<?xml version="1.0" encoding="utf-8" standalone="no"?>
<!DOCTYPE svg PUBLIC "-//W3C//DTD SVG 1.1//EN"
  "http://www.w3.org/Graphics/SVG/1.1/DTD/svg11.dtd">
<svg height="720pt" version="1.1" viewBox="0 0 720 720" width="720pt" xmlns="http://www.w3.org/2000/svg" xmlns:xlink="http://www.w3.org/1999/xlink">
 <metadata>
  <rdf:RDF xmlns:cc="http://creativecommons.org/ns#" xmlns:dc="http://purl.org/dc/elements/1.1/" xmlns:rdf="http://www.w3.org/1999/02/22-rdf-syntax-ns#">
   <cc:Work>
    <dc:type rdf:resource="http://purl.org/dc/dcmitype/StillImage"/>
    <dc:date>2022-01-11T13:26:02.227477</dc:date>
    <dc:format>image/svg+xml</dc:format>
    <dc:creator>
     <cc:Agent>
      <dc:title>Matplotlib v3.4.3, https://matplotlib.org/</dc:title>
     </cc:Agent>
    </dc:creator>
   </cc:Work>
  </rdf:RDF>
 </metadata>
 <defs>
  <style type="text/css">*{stroke-linecap:butt;stroke-linejoin:round;}</style>
 </defs>
 <g id="figure_1">
  <g id="patch_1">
   <path d="M 0 720 
L 720 720 
L 720 0 
L 0 0 
z
" style="fill:none;"/>
  </g>
  <g id="axes_1">
   <g id="patch_2">
    <path d="M 90 630 
L 648 630 
L 648 86.4 
L 90 86.4 
z
" style="fill:#ffffff;"/>
   </g>
   <g id="PathCollection_1">
    <defs>
     <path d="M 0.972304 -8.870829 
Q -1.277159 -8.870829 -2.413438 -6.653699 
Q -3.545098 -4.441189 -3.545098 0.006929 
Q -3.545098 4.436569 -2.413438 6.653699 
Q -1.277159 8.870829 0.972304 8.870829 
Q 3.240243 8.870829 4.371903 6.653699 
Q 5.508182 4.436569 5.508182 0.006929 
Q 5.508182 -4.441189 4.371903 -6.653699 
Q 3.240243 -8.870829 0.972304 -8.870829 
z
M 0.972304 -11.18034 
Q 4.598235 -11.18034 6.51051 -8.311928 
Q 8.422784 -5.448135 8.422784 0.006929 
Q 8.422784 5.448135 6.51051 8.316547 
Q 4.598235 11.18034 0.972304 11.18034 
Q -2.649008 11.18034 -4.561283 8.316547 
Q -6.473558 5.448135 -6.473558 0.006929 
Q -6.473558 -5.448135 -4.561283 -8.311928 
Q -2.649008 -11.18034 0.972304 -11.18034 
z
" id="m6f7ea75f47" style="stroke:#808080;"/>
    </defs>
    <g clip-path="url(#p829f7cbe1f)">
     <use style="fill:#808080;stroke:#808080;" x="161.348038" xlink:href="#m6f7ea75f47" y="275.95981"/>
    </g>
   </g>
   <g id="PathCollection_2">
    <defs>
     <path d="M -4.535873 8.63565 
L 0.404946 8.63565 
L 0.404946 -8.424791 
L -4.971969 -7.346533 
L -4.971969 -10.102082 
L 0.376192 -11.18034 
L 3.400108 -11.18034 
L 3.400108 8.63565 
L 8.340927 8.63565 
L 8.340927 11.18034 
L -4.535873 11.18034 
L -4.535873 8.63565 
z
" id="md6bf02ea4f" style="stroke:#808080;"/>
    </defs>
    <g clip-path="url(#p829f7cbe1f)">
     <use style="fill:#808080;stroke:#808080;" x="179.87357" xlink:href="#md6bf02ea4f" y="458.648521"/>
    </g>
   </g>
   <g id="PathCollection_3">
    <defs>
     <path d="M -2.294912 8.680651 
L 8.075736 8.680651 
L 8.075736 11.18034 
L -5.867913 11.18034 
L -5.867913 8.680651 
Q -4.177916 6.929457 -1.259259 3.982555 
Q 1.664105 1.030945 2.4126 0.174178 
Q 3.838976 -1.426376 4.403877 -2.537349 
Q 4.973486 -3.648321 4.973486 -4.721634 
Q 4.973486 -6.472828 3.744825 -7.574386 
Q 2.516165 -8.680651 0.543718 -8.680651 
Q -0.854413 -8.680651 -2.407892 -8.195778 
Q -3.956663 -7.710904 -5.72198 -6.722326 
L -5.72198 -9.725719 
Q -3.928418 -10.445968 -2.370232 -10.813154 
Q -0.807338 -11.18034 0.487227 -11.18034 
Q 3.900173 -11.18034 5.929111 -9.471513 
Q 7.958048 -7.767394 7.958048 -4.914642 
Q 7.958048 -3.558879 7.449637 -2.344341 
Q 6.945933 -1.13451 5.604292 0.513119 
Q 5.237107 0.941502 3.264659 2.979855 
Q 1.296919 5.018207 -2.294912 8.680651 
z
" id="me2e1fe0552" style="stroke:#808080;"/>
    </defs>
    <g clip-path="url(#p829f7cbe1f)">
     <use style="fill:#808080;stroke:#808080;" x="369.743937" xlink:href="#me2e1fe0552" y="429.325811"/>
    </g>
   </g>
   <g id="PathCollection_4">
    <defs>
     <path d="M 3.77605 -0.861447 
Q 5.868466 -0.413402 7.041697 1.004637 
Q 8.219548 2.418057 8.219548 4.496617 
Q 8.219548 7.683741 6.025513 9.43435 
Q 3.831478 11.18034 -0.210165 11.18034 
Q -1.563539 11.18034 -3.000054 10.912437 
Q -4.436569 10.644533 -5.965465 10.108727 
L -5.965465 7.295743 
Q -4.755282 8.002454 -3.314147 8.362737 
Q -1.868394 8.723021 -0.293308 8.723021 
Q 2.445772 8.723021 3.882287 7.64217 
Q 5.318802 6.561319 5.318802 4.496617 
Q 5.318802 2.588961 3.983905 1.517348 
Q 2.649008 0.441116 0.270213 0.441116 
L -2.242535 0.441116 
L -2.242535 -1.956155 
L 0.385688 -1.956155 
Q 2.533533 -1.956155 3.674431 -2.815293 
Q 4.815329 -3.674431 4.815329 -5.291088 
Q 4.815329 -6.949317 3.637479 -7.836169 
Q 2.464248 -8.72764 0.270213 -8.72764 
Q -0.930733 -8.72764 -2.302582 -8.464356 
Q -3.674431 -8.20569 -5.318802 -7.660646 
L -5.318802 -10.256536 
Q -3.655955 -10.718438 -2.205582 -10.949389 
Q -0.75521 -11.18034 0.528878 -11.18034 
Q 3.849954 -11.18034 5.780705 -9.66992 
Q 7.716074 -8.164119 7.716074 -5.595944 
Q 7.716074 -3.803764 6.690652 -2.570485 
Q 5.665229 -1.337207 3.77605 -0.861447 
z
" id="mad7a055b81" style="stroke:#808080;"/>
    </defs>
    <g clip-path="url(#p829f7cbe1f)">
     <use style="fill:#808080;stroke:#808080;" x="369.743937" xlink:href="#mad7a055b81" y="429.325811"/>
    </g>
   </g>
   <g id="PathCollection_5">
    <defs>
     <path d="M 2.695646 -8.544598 
L -4.943215 3.392919 
L 2.695646 3.392919 
L 2.695646 -8.544598 
z
M 1.900131 -11.18034 
L 5.705184 -11.18034 
L 5.705184 3.392919 
L 8.896829 3.392919 
L 8.896829 5.908855 
L 5.705184 5.908855 
L 5.705184 11.18034 
L 2.695646 11.18034 
L 2.695646 5.908855 
L -7.396852 5.908855 
L -7.396852 2.99037 
L 1.900131 -11.18034 
z
" id="mf9801c1587" style="stroke:#808080;"/>
    </defs>
    <g clip-path="url(#p829f7cbe1f)">
     <use style="fill:#808080;stroke:#808080;" x="578.772024" xlink:href="#mf9801c1587" y="408.87287"/>
    </g>
   </g>
   <g id="PathCollection_6">
    <defs>
     <path d="M -5.008473 -11.18034 
L 6.639575 -11.18034 
L 6.639575 -8.679629 
L -2.291535 -8.679629 
L -2.291535 -3.306861 
Q -1.647555 -3.527789 -1.003575 -3.635902 
Q -0.354894 -3.744015 0.293787 -3.744015 
Q 3.964943 -3.744015 6.108409 -1.732165 
Q 8.256576 0.279685 8.256576 3.715812 
Q 8.256576 7.255352 6.052002 9.220196 
Q 3.847428 11.18034 -0.16217 11.18034 
Q -1.544142 11.18034 -2.97782 10.945311 
Q -4.406798 10.710281 -5.934488 10.240223 
L -5.934488 7.255352 
Q -4.613624 7.974541 -3.203448 8.327085 
Q -1.793273 8.679629 -0.223278 8.679629 
Q 2.319738 8.679629 3.800422 7.344663 
Q 5.285807 6.009697 5.285807 3.715812 
Q 5.285807 1.426627 3.800422 0.091661 
Q 2.319738 -1.248005 -0.223278 -1.248005 
Q -1.412526 -1.248005 -2.597073 -0.984772 
Q -3.77692 -0.72154 -5.008473 -0.16217 
L -5.008473 -11.18034 
z
" id="m15f999037b" style="stroke:#808080;"/>
    </defs>
    <g clip-path="url(#p829f7cbe1f)">
     <use style="fill:#808080;stroke:#808080;" x="460.822505" xlink:href="#m15f999037b" y="388.984841"/>
    </g>
   </g>
   <g id="PathCollection_7">
    <defs>
     <path d="M 1.286397 -1.175541 
Q -0.676687 -1.175541 -1.826823 0.168594 
Q -2.97234 1.50811 -2.97234 3.845335 
Q -2.97234 6.168702 -1.826823 7.522075 
Q -0.676687 8.870829 1.286397 8.870829 
Q 3.249481 8.870829 4.394998 7.522075 
Q 5.540515 6.168702 5.540515 3.845335 
Q 5.540515 1.50811 4.394998 0.168594 
Q 3.249481 -1.175541 1.286397 -1.175541 
z
M 7.07403 -10.316583 
L 7.07403 -7.660646 
Q 5.974703 -8.177976 4.8569 -8.450499 
Q 3.739097 -8.72764 2.63977 -8.72764 
Q -0.247118 -8.72764 -1.771394 -6.778413 
Q -3.291052 -4.829186 -3.508146 -0.889162 
Q -2.658246 -2.145535 -1.374159 -2.815293 
Q -0.085452 -3.485051 1.457301 -3.485051 
Q 4.704473 -3.485051 6.589033 -1.512729 
Q 8.473594 0.454974 8.473594 3.845335 
Q 8.473594 7.166411 6.51051 9.175685 
Q 4.547426 11.18034 1.286397 11.18034 
Q -2.45501 11.18034 -4.43195 8.316547 
Q -6.408891 5.448135 -6.408891 0.006929 
Q -6.408891 -5.101708 -3.983905 -8.141024 
Q -1.55892 -11.18034 2.524295 -11.18034 
Q 3.623622 -11.18034 4.741425 -10.963246 
Q 5.859228 -10.746152 7.07403 -10.316583 
z
" id="md093ad657b" style="stroke:#808080;"/>
    </defs>
    <g clip-path="url(#p829f7cbe1f)">
     <use style="fill:#808080;stroke:#808080;" x="320.158907" xlink:href="#md093ad657b" y="234.152712"/>
    </g>
   </g>
   <g id="PathCollection_8"/>
   <g id="PathCollection_9"/>
   <g id="PathCollection_10"/>
   <g id="PathCollection_11"/>
   <g id="PathCollection_12"/>
   <g id="matplotlib.axis_1">
    <g id="xtick_1">
     <g id="line2d_1">
      <defs>
       <path d="M 0 0 
L 0 3.5 
" id="mdc67ba579b" style="stroke:#000000;stroke-width:0.8;"/>
      </defs>
      <g>
       <use style="stroke:#000000;stroke-width:0.8;" x="149.28039" xlink:href="#mdc67ba579b" y="630"/>
      </g>
     </g>
     <g id="text_1">
      <!-- −200 -->
      <g transform="translate(135.546796 644.598438)scale(0.1 -0.1)">
       <defs>
        <path d="M 678 2272 
L 4684 2272 
L 4684 1741 
L 678 1741 
L 678 2272 
z
" id="DejaVuSans-2212" transform="scale(0.015625)"/>
        <path d="M 1228 531 
L 3431 531 
L 3431 0 
L 469 0 
L 469 531 
Q 828 903 1448 1529 
Q 2069 2156 2228 2338 
Q 2531 2678 2651 2914 
Q 2772 3150 2772 3378 
Q 2772 3750 2511 3984 
Q 2250 4219 1831 4219 
Q 1534 4219 1204 4116 
Q 875 4013 500 3803 
L 500 4441 
Q 881 4594 1212 4672 
Q 1544 4750 1819 4750 
Q 2544 4750 2975 4387 
Q 3406 4025 3406 3419 
Q 3406 3131 3298 2873 
Q 3191 2616 2906 2266 
Q 2828 2175 2409 1742 
Q 1991 1309 1228 531 
z
" id="DejaVuSans-32" transform="scale(0.015625)"/>
        <path d="M 2034 4250 
Q 1547 4250 1301 3770 
Q 1056 3291 1056 2328 
Q 1056 1369 1301 889 
Q 1547 409 2034 409 
Q 2525 409 2770 889 
Q 3016 1369 3016 2328 
Q 3016 3291 2770 3770 
Q 2525 4250 2034 4250 
z
M 2034 4750 
Q 2819 4750 3233 4129 
Q 3647 3509 3647 2328 
Q 3647 1150 3233 529 
Q 2819 -91 2034 -91 
Q 1250 -91 836 529 
Q 422 1150 422 2328 
Q 422 3509 836 4129 
Q 1250 4750 2034 4750 
z
" id="DejaVuSans-30" transform="scale(0.015625)"/>
       </defs>
       <use xlink:href="#DejaVuSans-2212"/>
       <use x="83.789062" xlink:href="#DejaVuSans-32"/>
       <use x="147.412109" xlink:href="#DejaVuSans-30"/>
       <use x="211.035156" xlink:href="#DejaVuSans-30"/>
      </g>
     </g>
    </g>
    <g id="xtick_2">
     <g id="line2d_2">
      <g>
       <use style="stroke:#000000;stroke-width:0.8;" x="249.272342" xlink:href="#mdc67ba579b" y="630"/>
      </g>
     </g>
     <g id="text_2">
      <!-- −150 -->
      <g transform="translate(235.538749 644.598438)scale(0.1 -0.1)">
       <defs>
        <path d="M 794 531 
L 1825 531 
L 1825 4091 
L 703 3866 
L 703 4441 
L 1819 4666 
L 2450 4666 
L 2450 531 
L 3481 531 
L 3481 0 
L 794 0 
L 794 531 
z
" id="DejaVuSans-31" transform="scale(0.015625)"/>
        <path d="M 691 4666 
L 3169 4666 
L 3169 4134 
L 1269 4134 
L 1269 2991 
Q 1406 3038 1543 3061 
Q 1681 3084 1819 3084 
Q 2600 3084 3056 2656 
Q 3513 2228 3513 1497 
Q 3513 744 3044 326 
Q 2575 -91 1722 -91 
Q 1428 -91 1123 -41 
Q 819 9 494 109 
L 494 744 
Q 775 591 1075 516 
Q 1375 441 1709 441 
Q 2250 441 2565 725 
Q 2881 1009 2881 1497 
Q 2881 1984 2565 2268 
Q 2250 2553 1709 2553 
Q 1456 2553 1204 2497 
Q 953 2441 691 2322 
L 691 4666 
z
" id="DejaVuSans-35" transform="scale(0.015625)"/>
       </defs>
       <use xlink:href="#DejaVuSans-2212"/>
       <use x="83.789062" xlink:href="#DejaVuSans-31"/>
       <use x="147.412109" xlink:href="#DejaVuSans-35"/>
       <use x="211.035156" xlink:href="#DejaVuSans-30"/>
      </g>
     </g>
    </g>
    <g id="xtick_3">
     <g id="line2d_3">
      <g>
       <use style="stroke:#000000;stroke-width:0.8;" x="349.264294" xlink:href="#mdc67ba579b" y="630"/>
      </g>
     </g>
     <g id="text_3">
      <!-- −100 -->
      <g transform="translate(335.530701 644.598438)scale(0.1 -0.1)">
       <use xlink:href="#DejaVuSans-2212"/>
       <use x="83.789062" xlink:href="#DejaVuSans-31"/>
       <use x="147.412109" xlink:href="#DejaVuSans-30"/>
       <use x="211.035156" xlink:href="#DejaVuSans-30"/>
      </g>
     </g>
    </g>
    <g id="xtick_4">
     <g id="line2d_4">
      <g>
       <use style="stroke:#000000;stroke-width:0.8;" x="449.256247" xlink:href="#mdc67ba579b" y="630"/>
      </g>
     </g>
     <g id="text_4">
      <!-- −50 -->
      <g transform="translate(438.703903 644.598438)scale(0.1 -0.1)">
       <use xlink:href="#DejaVuSans-2212"/>
       <use x="83.789062" xlink:href="#DejaVuSans-35"/>
       <use x="147.412109" xlink:href="#DejaVuSans-30"/>
      </g>
     </g>
    </g>
    <g id="xtick_5">
     <g id="line2d_5">
      <g>
       <use style="stroke:#000000;stroke-width:0.8;" x="549.248199" xlink:href="#mdc67ba579b" y="630"/>
      </g>
     </g>
     <g id="text_5">
      <!-- 0 -->
      <g transform="translate(546.066949 644.598438)scale(0.1 -0.1)">
       <use xlink:href="#DejaVuSans-30"/>
      </g>
     </g>
    </g>
   </g>
   <g id="matplotlib.axis_2">
    <g id="ytick_1">
     <g id="line2d_6">
      <defs>
       <path d="M 0 0 
L -3.5 0 
" id="mfa7341df6f" style="stroke:#000000;stroke-width:0.8;"/>
      </defs>
      <g>
       <use style="stroke:#000000;stroke-width:0.8;" x="90" xlink:href="#mfa7341df6f" y="572.249426"/>
      </g>
     </g>
     <g id="text_6">
      <!-- −200 -->
      <g transform="translate(55.532812 576.048645)scale(0.1 -0.1)">
       <use xlink:href="#DejaVuSans-2212"/>
       <use x="83.789062" xlink:href="#DejaVuSans-32"/>
       <use x="147.412109" xlink:href="#DejaVuSans-30"/>
       <use x="211.035156" xlink:href="#DejaVuSans-30"/>
      </g>
     </g>
    </g>
    <g id="ytick_2">
     <g id="line2d_7">
      <g>
       <use style="stroke:#000000;stroke-width:0.8;" x="90" xlink:href="#mfa7341df6f" y="474.837912"/>
      </g>
     </g>
     <g id="text_7">
      <!-- −150 -->
      <g transform="translate(55.532812 478.63713)scale(0.1 -0.1)">
       <use xlink:href="#DejaVuSans-2212"/>
       <use x="83.789062" xlink:href="#DejaVuSans-31"/>
       <use x="147.412109" xlink:href="#DejaVuSans-35"/>
       <use x="211.035156" xlink:href="#DejaVuSans-30"/>
      </g>
     </g>
    </g>
    <g id="ytick_3">
     <g id="line2d_8">
      <g>
       <use style="stroke:#000000;stroke-width:0.8;" x="90" xlink:href="#mfa7341df6f" y="377.426397"/>
      </g>
     </g>
     <g id="text_8">
      <!-- −100 -->
      <g transform="translate(55.532812 381.225616)scale(0.1 -0.1)">
       <use xlink:href="#DejaVuSans-2212"/>
       <use x="83.789062" xlink:href="#DejaVuSans-31"/>
       <use x="147.412109" xlink:href="#DejaVuSans-30"/>
       <use x="211.035156" xlink:href="#DejaVuSans-30"/>
      </g>
     </g>
    </g>
    <g id="ytick_4">
     <g id="line2d_9">
      <g>
       <use style="stroke:#000000;stroke-width:0.8;" x="90" xlink:href="#mfa7341df6f" y="280.014882"/>
      </g>
     </g>
     <g id="text_9">
      <!-- −50 -->
      <g transform="translate(61.895313 283.814101)scale(0.1 -0.1)">
       <use xlink:href="#DejaVuSans-2212"/>
       <use x="83.789062" xlink:href="#DejaVuSans-35"/>
       <use x="147.412109" xlink:href="#DejaVuSans-30"/>
      </g>
     </g>
    </g>
    <g id="ytick_5">
     <g id="line2d_10">
      <g>
       <use style="stroke:#000000;stroke-width:0.8;" x="90" xlink:href="#mfa7341df6f" y="182.603368"/>
      </g>
     </g>
     <g id="text_10">
      <!-- 0 -->
      <g transform="translate(76.6375 186.402587)scale(0.1 -0.1)">
       <use xlink:href="#DejaVuSans-30"/>
      </g>
     </g>
    </g>
   </g>
   <g id="line2d_11">
    <path clip-path="url(#p829f7cbe1f)" d="M 320.158907 234.152712 
L 313.369481 226.826632 
L 305.939925 220.117544 
L 297.852628 214.176182 
L 289.120936 209.17757 
L 279.806036 205.307943 
L 270.029815 202.738029 
L 259.972846 201.58652 
L 249.85038 201.8889 
L 239.87352 203.589882 
L 230.214882 206.56384 
L 220.993319 210.649361 
L 212.277289 215.680149 
L 204.097442 221.503856 
L 196.460102 227.989733 
L 189.357834 235.029412 
L 182.776568 242.53453 
L 176.69999 250.433392 
L 171.112108 258.667697 
L 165.99869 267.189687 
L 161.348038 275.95981 
" style="fill:none;stroke:#808080;stroke-linecap:square;stroke-width:1.5;"/>
   </g>
   <g id="line2d_12">
    <path clip-path="url(#p829f7cbe1f)" d="M 161.348038 275.95981 
L 161.348038 201.58652 
L 320.158907 201.58652 
L 320.158907 275.95981 
L 161.348038 275.95981 
" style="fill:none;stroke:#d3d3d3;stroke-linecap:square;stroke-width:0.5;"/>
   </g>
   <g id="line2d_13">
    <path clip-path="url(#p829f7cbe1f)" d="M 161.348038 275.95981 
L 157.151403 284.944832 
L 153.40321 294.11632 
L 150.101208 303.449398 
L 147.246594 312.921722 
L 144.844172 322.51257 
L 142.902556 332.202018 
L 141.434442 341.970114 
L 140.456957 351.796009 
L 139.992083 361.65696 
L 140.067141 371.52713 
L 140.715285 381.376092 
L 141.97591 391.166917 
L 143.89479 400.85374 
L 146.523569 410.378734 
L 149.918071 419.668573 
L 154.134531 428.630804 
L 159.222725 437.151223 
L 165.215221 445.094348 
L 172.113369 452.310002 
L 179.87357 458.648521 
" style="fill:none;stroke:#808080;stroke-linecap:square;stroke-width:1.5;"/>
   </g>
   <g id="line2d_14">
    <path clip-path="url(#p829f7cbe1f)" d="M 139.992083 458.648521 
L 139.992083 275.95981 
L 179.87357 275.95981 
L 179.87357 458.648521 
L 139.992083 458.648521 
" style="fill:none;stroke:#d3d3d3;stroke-linecap:square;stroke-width:0.5;"/>
   </g>
   <g id="line2d_15">
    <path clip-path="url(#p829f7cbe1f)" d="M 179.87357 458.648521 
L 188.40056 463.983683 
L 197.554339 468.236357 
L 207.171052 471.388227 
L 217.089377 473.479042 
L 227.171175 474.590416 
L 237.310695 474.825355 
L 247.433904 474.291309 
L 257.492693 473.089624 
L 267.457974 471.310614 
L 277.313695 469.03226 
L 287.05235 466.320809 
L 296.671852 463.23214 
L 306.173458 459.81332 
L 315.560416 456.10406 
L 324.837099 452.137992 
L 334.008455 447.943728 
L 343.079669 443.545735 
L 352.055948 438.965041 
L 360.942395 434.219811 
L 369.743937 429.325811 
" style="fill:none;stroke:#808080;stroke-linecap:square;stroke-width:1.5;"/>
   </g>
   <g id="line2d_16">
    <path clip-path="url(#p829f7cbe1f)" d="M 179.87357 474.825355 
L 179.87357 429.325811 
L 369.743937 429.325811 
L 369.743937 474.825355 
L 179.87357 474.825355 
" style="fill:none;stroke:#d3d3d3;stroke-linecap:square;stroke-width:0.5;"/>
   </g>
   <g id="line2d_17">
    <path clip-path="url(#p829f7cbe1f)" d="M 369.743937 429.325811 
" style="fill:none;stroke:#808080;stroke-linecap:square;stroke-width:1.5;"/>
   </g>
   <g id="line2d_18">
    <path clip-path="url(#p829f7cbe1f)" d="M 369.743937 429.325811 
L 369.743937 429.325811 
L 369.743937 429.325811 
L 369.743937 429.325811 
L 369.743937 429.325811 
" style="fill:none;stroke:#d3d3d3;stroke-linecap:square;stroke-width:0.5;"/>
   </g>
   <g id="line2d_19">
    <path clip-path="url(#p829f7cbe1f)" d="M 369.743937 429.325811 
L 378.526762 424.482748 
L 387.427621 419.846854 
L 396.446573 415.430641 
L 405.583424 411.248053 
L 414.837627 407.314677 
L 424.208136 403.647993 
L 433.693225 400.267667 
L 443.290239 397.195891 
L 452.995261 394.457781 
L 462.802674 392.081844 
L 472.704556 390.100502 
L 482.689884 388.550683 
L 492.743444 387.474459 
L 502.844372 386.919682 
L 512.964196 386.940556 
L 523.064247 387.597974 
L 533.092281 388.959381 
L 542.978223 391.097771 
L 552.629017 394.089238 
L 561.922799 398.008386 
L 570.702878 402.920891 
L 578.772024 408.87287 
" style="fill:none;stroke:#808080;stroke-linecap:square;stroke-width:1.5;"/>
   </g>
   <g id="line2d_20">
    <path clip-path="url(#p829f7cbe1f)" d="M 369.743937 429.325811 
L 369.743937 386.919682 
L 578.772024 386.919682 
L 578.772024 429.325811 
L 369.743937 429.325811 
" style="fill:none;stroke:#d3d3d3;stroke-linecap:square;stroke-width:0.5;"/>
   </g>
   <g id="line2d_21">
    <path clip-path="url(#p829f7cbe1f)" d="M 578.772024 408.87287 
L 585.886736 415.87726 
L 591.748061 423.897304 
L 595.978711 432.822949 
L 598.065167 442.417591 
L 597.247807 452.15113 
L 592.560213 460.730881 
L 584.098149 465.919315 
L 574.156985 466.994917 
L 564.359905 465.339837 
L 554.993109 462.097613 
L 546.016826 457.857602 
L 537.366705 452.939592 
L 528.988692 447.535193 
L 520.839493 441.767581 
L 512.884427 435.720077 
L 505.095533 429.451345 
L 497.450094 423.00407 
L 489.929486 416.410171 
L 482.518303 409.694085 
L 475.203689 402.874889 
L 467.974818 395.967736 
L 460.822505 388.984841 
" style="fill:none;stroke:#808080;stroke-linecap:square;stroke-width:1.5;"/>
   </g>
   <g id="line2d_22">
    <path clip-path="url(#p829f7cbe1f)" d="M 460.822505 466.994917 
L 460.822505 388.984841 
L 598.065167 388.984841 
L 598.065167 466.994917 
L 460.822505 466.994917 
" style="fill:none;stroke:#d3d3d3;stroke-linecap:square;stroke-width:0.5;"/>
   </g>
   <g id="line2d_23">
    <path clip-path="url(#p829f7cbe1f)" d="M 460.822505 388.984841 
L 453.738896 381.936177 
L 446.717228 374.829983 
L 439.751638 367.67313 
L 432.837016 360.471405 
L 425.968882 353.229717 
L 419.143289 345.952263 
L 412.35674 338.642653 
L 405.606129 331.304015 
L 398.888678 323.93907 
L 392.201902 316.550196 
L 385.543562 309.139485 
L 378.911638 301.708784 
L 372.304302 294.259728 
L 365.719893 286.79377 
L 359.1569 279.31221 
L 352.613941 271.816208 
L 346.089755 264.306808 
L 339.583182 256.78495 
L 333.093158 249.251481 
L 326.618701 241.707169 
L 320.158907 234.152712 
" style="fill:none;stroke:#808080;stroke-linecap:square;stroke-width:1.5;"/>
   </g>
   <g id="line2d_24">
    <path clip-path="url(#p829f7cbe1f)" d="M 320.158907 388.984841 
L 320.158907 234.152712 
L 460.822505 234.152712 
L 460.822505 388.984841 
L 320.158907 388.984841 
" style="fill:none;stroke:#d3d3d3;stroke-linecap:square;stroke-width:0.5;"/>
   </g>
   <g id="line2d_25">
    <path clip-path="url(#p829f7cbe1f)" d="M 359.689799 412.484657 
L 359.689799 412.484657 
L 359.689799 412.484657 
" style="fill:none;stroke:#000000;stroke-linecap:square;stroke-width:3;"/>
   </g>
   <g id="line2d_26">
    <path clip-path="url(#p829f7cbe1f)" d="M 359.689799 412.484657 
L 359.689799 412.484657 
L 359.689799 412.484657 
L 359.689799 412.484657 
L 359.689799 412.484657 
" style="fill:none;stroke:#d3d3d3;stroke-linecap:square;stroke-width:0.5;"/>
   </g>
   <g id="line2d_27">
    <path clip-path="url(#p829f7cbe1f)" d="M 359.689799 412.484657 
L 359.689799 412.484657 
L 359.689799 412.484657 
" style="fill:none;stroke:#000000;stroke-linecap:square;stroke-width:3;"/>
   </g>
   <g id="line2d_28">
    <path clip-path="url(#p829f7cbe1f)" d="M 359.689799 412.484657 
L 359.689799 412.484657 
L 359.689799 412.484657 
L 359.689799 412.484657 
L 359.689799 412.484657 
" style="fill:none;stroke:#d3d3d3;stroke-linecap:square;stroke-width:0.5;"/>
   </g>
   <g id="line2d_29">
    <path clip-path="url(#p829f7cbe1f)" d="M 359.689799 412.484657 
L 368.882992 407.415352 
L 378.21839 402.553185 
L 387.698754 397.911096 
L 397.326988 393.503634 
L 407.1061 389.347232 
L 417.039143 385.460523 
L 427.129118 381.864738 
L 426.272377 382.138949 
" style="fill:none;stroke:#000000;stroke-linecap:square;stroke-width:3;"/>
   </g>
   <g id="line2d_30">
    <path clip-path="url(#p829f7cbe1f)" d="M 359.689799 412.484657 
L 359.689799 381.864738 
L 427.129118 381.864738 
L 427.129118 412.484657 
L 359.689799 412.484657 
" style="fill:none;stroke:#d3d3d3;stroke-linecap:square;stroke-width:0.5;"/>
   </g>
   <g id="line2d_31">
    <path clip-path="url(#p829f7cbe1f)" d="M 304.782518 246.609531 
L 304.782518 246.609531 
L 299.108472 240.484785 
L 293.071843 235.030919 
L 286.709884 230.354099 
L 280.076295 226.553483 
L 273.232599 223.707711 
L 266.233463 221.866074 
L 259.116852 221.050968 
L 251.911633 221.26744 
L 244.658127 222.506382 
L 237.420456 224.737585 
L 230.279779 227.903791 
L 223.317897 231.924388 
L 216.604375 236.706029 
L 210.191615 242.153488 
L 204.115718 248.177073 
L 198.399863 254.696285 
L 193.058052 261.640828 
L 188.098329 268.950121 
L 183.525239 276.572121 
" style="fill:none;stroke:#000000;stroke-linecap:square;stroke-width:3;"/>
   </g>
   <g id="line2d_32">
    <path clip-path="url(#p829f7cbe1f)" d="M 183.525239 276.572121 
L 183.525239 221.050968 
L 304.782518 221.050968 
L 304.782518 276.572121 
L 183.525239 276.572121 
" style="fill:none;stroke:#d3d3d3;stroke-linecap:square;stroke-width:0.5;"/>
   </g>
   <g id="line2d_33">
    <path clip-path="url(#p829f7cbe1f)" d="M 183.525239 276.572121 
L 179.341623 284.46193 
L 175.549875 292.580411 
L 172.152834 300.892902 
L 169.154412 309.368057 
L 166.560065 317.976789 
L 164.377133 326.691287 
L 162.615129 335.484065 
L 161.285954 344.326995 
L 160.404069 353.190283 
L 159.986581 362.041336 
L 160.053215 370.843477 
L 160.626068 379.554499 
L 161.729039 388.125072 
L 163.386758 396.497143 
L 165.622819 404.602639 
L 168.457232 412.363086 
L 171.903258 419.691127 
L 175.964466 426.495053 
L 180.633603 432.686889 
L 185.894929 438.192455 
" style="fill:none;stroke:#000000;stroke-linecap:square;stroke-width:3;"/>
   </g>
   <g id="line2d_34">
    <path clip-path="url(#p829f7cbe1f)" d="M 159.986581 438.192455 
L 159.986581 276.572121 
L 185.894929 276.572121 
L 185.894929 438.192455 
L 159.986581 438.192455 
" style="fill:none;stroke:#d3d3d3;stroke-linecap:square;stroke-width:0.5;"/>
   </g>
   <g id="line2d_35">
    <path clip-path="url(#p829f7cbe1f)" d="M 185.894929 438.192455 
L 191.729417 442.959029 
L 198.118014 446.955997 
L 205.037318 450.169317 
L 212.449268 452.596742 
L 220.294553 454.248588 
L 228.496501 455.150943 
L 236.9723 455.345841 
L 245.644048 454.887192 
L 254.445316 453.834839 
L 263.323143 452.249283 
L 272.237182 450.188107 
L 281.157664 447.704067 
L 290.063155 444.844363 
L 298.938554 441.650637 
L 307.773481 438.159339 
L 316.561027 434.402257 
L 325.296819 430.40708 
L 333.978329 426.197943 
L 342.604365 421.795915 
L 351.174699 417.219429 
" style="fill:none;stroke:#000000;stroke-linecap:square;stroke-width:3;"/>
   </g>
   <g id="line2d_36">
    <path clip-path="url(#p829f7cbe1f)" d="M 185.894929 455.345841 
L 185.894929 417.219429 
L 351.174699 417.219429 
L 351.174699 455.345841 
L 185.894929 455.345841 
" style="fill:none;stroke:#d3d3d3;stroke-linecap:square;stroke-width:0.5;"/>
   </g>
   <g id="line2d_37">
    <path clip-path="url(#p829f7cbe1f)" d="M 351.174699 417.219429 
L 359.689799 412.484657 
" style="fill:none;stroke:#000000;stroke-linecap:square;stroke-width:3;"/>
   </g>
   <g id="line2d_38">
    <path clip-path="url(#p829f7cbe1f)" d="M 351.174699 417.219429 
L 351.174699 412.484657 
L 359.689799 412.484657 
L 359.689799 417.219429 
L 351.174699 417.219429 
" style="fill:none;stroke:#d3d3d3;stroke-linecap:square;stroke-width:0.5;"/>
   </g>
   <g id="line2d_39">
    <path clip-path="url(#p829f7cbe1f)" d="M 426.272377 382.138949 
L 425.19126 381.028149 
L 418.188682 373.734825 
L 411.241512 366.40981 
L 404.344573 359.056293 
L 397.493349 351.677029 
L 390.683884 344.274415 
L 383.91269 336.850548 
L 377.176676 329.40727 
L 370.473091 321.946205 
L 363.799476 314.468792 
L 357.153622 306.976313 
L 350.533542 299.46991 
L 343.937439 291.950607 
L 337.363682 284.419322 
L 330.810791 276.876883 
L 324.277414 269.324038 
L 317.762315 261.761464 
L 311.264363 254.189775 
L 304.782518 246.609531 
L 304.782518 246.609531 
" style="fill:none;stroke:#000000;stroke-linecap:square;stroke-width:3;"/>
   </g>
   <g id="line2d_40">
    <path clip-path="url(#p829f7cbe1f)" d="M 304.782518 382.138949 
L 304.782518 246.609531 
L 426.272377 246.609531 
L 426.272377 382.138949 
L 304.782518 382.138949 
" style="fill:none;stroke:#d3d3d3;stroke-linecap:square;stroke-width:0.5;"/>
   </g>
   <g id="line2d_41">
    <path clip-path="url(#p829f7cbe1f)" d="M 335.535296 221.695893 
L 335.535296 221.695893 
L 327.63049 213.168479 
L 318.808008 205.204169 
L 308.995372 197.998266 
L 298.165576 191.801657 
L 286.379473 186.908175 
L 273.826167 183.609984 
L 260.828841 182.122072 
L 247.789126 182.51036 
L 235.088914 184.673382 
L 223.009308 188.390095 
L 211.706859 193.39493 
L 201.236681 199.435911 
L 191.590509 206.301684 
L 182.728589 213.825978 
L 174.599951 221.881751 
L 167.153273 230.372774 
L 160.341927 239.225957 
L 154.125888 248.385273 
L 148.472141 257.807252 
" style="fill:none;stroke:#000000;stroke-linecap:square;stroke-width:3;"/>
   </g>
   <g id="line2d_42">
    <path clip-path="url(#p829f7cbe1f)" d="M 148.472141 257.807252 
L 148.472141 182.122072 
L 335.535296 182.122072 
L 335.535296 257.807252 
L 148.472141 257.807252 
" style="fill:none;stroke:#d3d3d3;stroke-linecap:square;stroke-width:0.5;"/>
   </g>
   <g id="line2d_43">
    <path clip-path="url(#p829f7cbe1f)" d="M 148.472141 257.807252 
L 143.354452 267.457689 
L 138.75293 277.309254 
L 134.653587 287.339738 
L 131.048004 297.53074 
L 127.933124 307.866655 
L 125.311211 318.333853 
L 123.189983 328.919971 
L 121.58293 339.613234 
L 120.509845 350.401736 
L 119.997586 361.272584 
L 120.081067 372.210783 
L 120.804501 383.197685 
L 122.222782 394.208763 
L 124.402822 405.210338 
L 127.42432 416.15483 
L 131.378911 426.97406 
L 136.365804 437.570481 
L 142.480984 447.807392 
L 149.796839 457.501808 
L 158.331808 466.427549 
" style="fill:none;stroke:#000000;stroke-linecap:square;stroke-width:3;"/>
   </g>
   <g id="line2d_44">
    <path clip-path="url(#p829f7cbe1f)" d="M 119.997586 466.427549 
L 119.997586 257.807252 
L 158.331808 257.807252 
L 158.331808 466.427549 
L 119.997586 466.427549 
" style="fill:none;stroke:#d3d3d3;stroke-linecap:square;stroke-width:0.5;"/>
   </g>
   <g id="line2d_45">
    <path clip-path="url(#p829f7cbe1f)" d="M 158.331808 466.427549 
L 168.017722 474.338013 
L 178.683107 481.011368 
L 190.071361 486.303397 
L 201.892837 490.179713 
L 213.884202 492.709496 
L 225.845848 494.029889 
L 237.649089 494.304869 
L 249.223759 493.695426 
L 260.540069 492.344409 
L 271.592805 490.371945 
L 282.390209 487.876413 
L 292.947036 484.937551 
L 303.280549 481.619917 
L 313.408363 477.976002 
L 323.347352 474.048781 
L 333.113171 469.873727 
L 342.720091 465.480376 
L 352.181009 460.893527 
L 361.507531 456.134168 
L 370.71009 451.220193 
" style="fill:none;stroke:#000000;stroke-linecap:square;stroke-width:3;"/>
   </g>
   <g id="line2d_46">
    <path clip-path="url(#p829f7cbe1f)" d="M 158.331808 494.304869 
L 158.331808 451.220193 
L 370.71009 451.220193 
L 370.71009 494.304869 
L 158.331808 494.304869 
" style="fill:none;stroke:#d3d3d3;stroke-linecap:square;stroke-width:0.5;"/>
   </g>
   <g id="line2d_47">
    <path clip-path="url(#p829f7cbe1f)" d="M 370.71009 451.220193 
L 379.798075 446.166964 
" style="fill:none;stroke:#000000;stroke-linecap:square;stroke-width:3;"/>
   </g>
   <g id="line2d_48">
    <path clip-path="url(#p829f7cbe1f)" d="M 370.71009 451.220193 
L 370.71009 446.166964 
L 379.798075 446.166964 
L 379.798075 451.220193 
L 370.71009 451.220193 
" style="fill:none;stroke:#d3d3d3;stroke-linecap:square;stroke-width:0.5;"/>
   </g>
   <g id="line2d_49">
    <path clip-path="url(#p829f7cbe1f)" d="M 470.425442 370.73144 
L 461.179224 361.373895 
L 454.312015 354.318112 
L 447.48535 347.207985 
L 440.696252 340.049623 
L 433.942005 332.848232 
L 427.220132 325.608278 
L 420.528373 318.333616 
L 413.864667 311.027591 
L 407.227128 303.693121 
L 400.614033 296.332766 
L 394.0238 288.948776 
L 387.454981 281.543142 
L 380.906244 274.11763 
L 374.37636 266.673813 
L 367.8642 259.213094 
L 361.368719 251.736733 
L 354.888951 244.245862 
L 348.424001 236.741498 
L 341.97304 229.224563 
L 335.535296 221.695893 
L 335.535296 221.695893 
" style="fill:none;stroke:#000000;stroke-linecap:square;stroke-width:3;"/>
   </g>
   <g id="line2d_50">
    <path clip-path="url(#p829f7cbe1f)" d="M 335.535296 370.73144 
L 335.535296 221.695893 
L 470.425442 221.695893 
L 470.425442 370.73144 
L 335.535296 370.73144 
" style="fill:none;stroke:#d3d3d3;stroke-linecap:square;stroke-width:0.5;"/>
   </g>
   <g id="line2d_51">
    <path clip-path="url(#p829f7cbe1f)" d="M 470.425442 370.73144 
L 480.009611 369.244149 
L 491.071459 368.060365 
L 502.283417 367.445045 
L 513.630221 367.469061 
L 525.086767 368.215561 
L 536.613469 369.78145 
L 548.149787 372.278163 
L 559.605549 375.830875 
L 570.850083 380.574969 
L 581.699894 386.648614 
L 591.906448 394.18151 
L 601.144858 403.283182 
L 608.997813 414.04004 
L 614.907074 426.535611 
L 618.002414 440.8953 
L 616.567003 457.185391 
L 607.323157 473.873149 
L 590.150505 484.487981 
L 573.044598 486.447057 
L 559.030078 484.117491 
L 547.140734 480.01525 
L 536.534054 475.0104 
L 526.757161 469.454204 
L 517.559159 463.522104 
L 508.788996 457.315696 
L 500.348765 450.899776 
L 492.171217 444.318498 
L 484.208029 437.603436 
L 476.423222 430.778006 
L 468.789229 423.860083 
L 461.284425 416.863633 
L 457.659175 413.399743 
" style="fill:none;stroke:#000000;stroke-linecap:square;stroke-width:3;"/>
   </g>
   <g id="line2d_52">
    <path clip-path="url(#p829f7cbe1f)" d="M 457.659175 486.447057 
L 457.659175 367.445045 
L 618.002414 367.445045 
L 618.002414 486.447057 
L 457.659175 486.447057 
" style="fill:none;stroke:#d3d3d3;stroke-linecap:square;stroke-width:0.5;"/>
   </g>
   <g id="line2d_53">
    <path clip-path="url(#p829f7cbe1f)" d="M 379.798075 446.166964 
L 388.170531 441.550145 
L 396.636852 437.140523 
L 405.194392 432.950186 
L 413.83986 428.992471 
L 422.569153 425.282121 
L 431.377128 421.835463 
L 440.257331 418.670597 
L 449.20164 415.807602 
L 458.199811 413.268757 
L 457.659175 413.399743 
" style="fill:none;stroke:#000000;stroke-linecap:square;stroke-width:3;"/>
   </g>
   <g id="line2d_54">
    <path clip-path="url(#p829f7cbe1f)" d="M 379.798075 446.166964 
L 379.798075 413.268757 
L 458.199811 413.268757 
L 458.199811 446.166964 
L 379.798075 446.166964 
" style="fill:none;stroke:#d3d3d3;stroke-linecap:square;stroke-width:0.5;"/>
   </g>
   <g id="line2d_55">
    <path clip-path="url(#p829f7cbe1f)" d="M 379.798075 446.166964 
L 379.798075 446.166964 
L 379.798075 446.166964 
" style="fill:none;stroke:#000000;stroke-linecap:square;stroke-width:3;"/>
   </g>
   <g id="line2d_56">
    <path clip-path="url(#p829f7cbe1f)" d="M 379.798075 446.166964 
L 379.798075 446.166964 
L 379.798075 446.166964 
L 379.798075 446.166964 
L 379.798075 446.166964 
" style="fill:none;stroke:#d3d3d3;stroke-linecap:square;stroke-width:0.5;"/>
   </g>
   <g id="line2d_57">
    <path clip-path="url(#p829f7cbe1f)" d="M 379.798075 446.166964 
L 379.798075 446.166964 
L 379.798075 446.166964 
" style="fill:none;stroke:#000000;stroke-linecap:square;stroke-width:3;"/>
   </g>
   <g id="line2d_58">
    <path clip-path="url(#p829f7cbe1f)" d="M 379.798075 446.166964 
L 379.798075 446.166964 
L 379.798075 446.166964 
L 379.798075 446.166964 
L 379.798075 446.166964 
" style="fill:none;stroke:#d3d3d3;stroke-linecap:square;stroke-width:0.5;"/>
   </g>
   <g id="line2d_59">
    <path clip-path="url(#p829f7cbe1f)" d="M 508.108933 406.13975 
L 521.041727 406.980387 
L 529.571093 408.137312 
L 537.80666 409.917378 
L 545.652485 412.347601 
L 552.995516 415.441803 
L 559.705861 419.193168 
L 565.637601 423.56423 
L 570.628614 428.471339 
L 574.49831 433.754569 
L 577.050348 439.110286 
L 578.127919 443.939882 
L 577.928611 447.116869 
L 577.797269 447.588612 
L 578.045793 447.350649 
L 575.269372 447.542777 
L 569.689732 446.562182 
L 562.845484 444.179976 
L 555.499597 440.704804 
L 547.97625 436.424981 
L 540.418224 431.548282 
L 532.88999 426.219466 
L 525.420088 420.540378 
L 518.01985 414.584193 
L 510.69216 408.404704 
L 508.108933 406.13975 
" style="fill:none;stroke:#000000;stroke-linecap:square;stroke-width:3;"/>
   </g>
   <g id="line2d_60">
    <path clip-path="url(#p829f7cbe1f)" d="M 508.108933 447.588612 
L 508.108933 406.13975 
L 578.127919 406.13975 
L 578.127919 447.588612 
L 508.108933 447.588612 
" style="fill:none;stroke:#d3d3d3;stroke-linecap:square;stroke-width:0.5;"/>
   </g>
   <g id="line2d_61">
    <path clip-path="url(#p829f7cbe1f)" d="M 161.348038 246.736355 
L 165.184044 246.976279 
L 168.957063 247.692112 
L 172.605142 248.8721 
L 176.06838 250.496867 
L 179.28991 252.539735 
L 182.216835 254.96716 
L 184.801095 257.739284 
L 187.000256 260.810588 
L 188.778209 264.130642 
L 190.105759 267.644931 
L 190.961108 271.295749 
L 191.330211 275.023152 
L 191.207008 278.765934 
L 190.593521 282.46264 
L 189.499825 286.05257 
L 187.943877 289.476776 
L 185.951225 292.679035 
L 183.554591 295.606764 
L 180.793325 298.211891 
L 177.712768 300.451639 
L 174.363503 302.289232 
L 170.800524 303.694497 
L 167.082335 304.644359 
L 163.26999 305.123221 
L 159.426086 305.123221 
L 155.613741 304.644359 
L 151.895552 303.694497 
L 148.332573 302.289232 
L 144.983308 300.451639 
L 141.902751 298.211891 
L 139.141485 295.606764 
L 136.744851 292.679035 
L 134.752199 289.476776 
L 133.196251 286.05257 
L 132.102554 282.46264 
L 131.489068 278.765934 
L 131.365865 275.023152 
L 131.734968 271.295749 
L 132.590317 267.644931 
L 133.917867 264.130642 
L 135.69582 260.810588 
L 137.894981 257.739284 
L 140.479241 254.96716 
L 143.406166 252.539735 
L 146.627696 250.496867 
L 150.090934 248.8721 
L 153.739013 247.692112 
L 157.512032 246.976279 
L 161.348038 246.736355 
" style="fill:none;stroke:#808080;stroke-linecap:square;stroke-width:1.5;"/>
   </g>
   <g id="line2d_62">
    <path clip-path="url(#p829f7cbe1f)" d="M 179.87357 429.425066 
L 183.709576 429.664991 
L 187.482595 430.380824 
L 191.130674 431.560811 
L 194.593911 433.185578 
L 197.815441 435.228446 
L 200.742366 437.655871 
L 203.326626 440.427995 
L 205.525788 443.499299 
L 207.303741 446.819353 
L 208.631291 450.333642 
L 209.48664 453.984461 
L 209.855743 457.711863 
L 209.73254 461.454645 
L 209.119053 465.151351 
L 208.025356 468.741281 
L 206.469408 472.165487 
L 204.476757 475.367746 
L 202.080122 478.295475 
L 199.318856 480.900602 
L 196.2383 483.14035 
L 192.889034 484.977943 
L 189.326055 486.383208 
L 185.607867 487.33307 
L 181.795522 487.811933 
L 177.951618 487.811933 
L 174.139272 487.33307 
L 170.421084 486.383208 
L 166.858105 484.977943 
L 163.50884 483.14035 
L 160.428283 480.900602 
L 157.667017 478.295475 
L 155.270382 475.367746 
L 153.277731 472.165487 
L 151.721783 468.741281 
L 150.628086 465.151351 
L 150.014599 461.454645 
L 149.891396 457.711863 
L 150.2605 453.984461 
L 151.115849 450.333642 
L 152.443399 446.819353 
L 154.221351 443.499299 
L 156.420513 440.427995 
L 159.004773 437.655871 
L 161.931698 435.228446 
L 165.153228 433.185578 
L 168.616465 431.560811 
L 172.264545 430.380824 
L 176.037563 429.664991 
L 179.87357 429.425066 
" style="fill:none;stroke:#808080;stroke-linecap:square;stroke-width:1.5;"/>
   </g>
   <g id="line2d_63">
    <path clip-path="url(#p829f7cbe1f)" d="M 369.743937 400.102356 
L 373.579943 400.342281 
L 377.352962 401.058113 
L 381.001041 402.238101 
L 384.464279 403.862868 
L 387.685809 405.905736 
L 390.612734 408.333161 
L 393.196994 411.105285 
L 395.396155 414.176589 
L 397.174108 417.496643 
L 398.501658 421.010932 
L 399.357007 424.661751 
L 399.72611 428.389153 
L 399.602907 432.131935 
L 398.989421 435.828641 
L 397.895724 439.418571 
L 396.339776 442.842777 
L 394.347124 446.045036 
L 391.95049 448.972765 
L 389.189224 451.577892 
L 386.108667 453.81764 
L 382.759402 455.655233 
L 379.196423 457.060498 
L 375.478234 458.01036 
L 371.665889 458.489222 
L 367.821985 458.489222 
L 364.00964 458.01036 
L 360.291451 457.060498 
L 356.728472 455.655233 
L 353.379207 453.81764 
L 350.29865 451.577892 
L 347.537384 448.972765 
L 345.14075 446.045036 
L 343.148098 442.842777 
L 341.59215 439.418571 
L 340.498454 435.828641 
L 339.884967 432.131935 
L 339.761764 428.389153 
L 340.130867 424.661751 
L 340.986216 421.010932 
L 342.313766 417.496643 
L 344.091719 414.176589 
L 346.29088 411.105285 
L 348.87514 408.333161 
L 351.802065 405.905736 
L 355.023595 403.862868 
L 358.486833 402.238101 
L 362.134912 401.058113 
L 365.907931 400.342281 
L 369.743937 400.102356 
" style="fill:none;stroke:#808080;stroke-linecap:square;stroke-width:1.5;"/>
   </g>
   <g id="line2d_64">
    <path clip-path="url(#p829f7cbe1f)" d="M 369.743937 400.102356 
L 373.579943 400.342281 
L 377.352962 401.058113 
L 381.001041 402.238101 
L 384.464279 403.862868 
L 387.685809 405.905736 
L 390.612734 408.333161 
L 393.196994 411.105285 
L 395.396155 414.176589 
L 397.174108 417.496643 
L 398.501658 421.010932 
L 399.357007 424.661751 
L 399.72611 428.389153 
L 399.602907 432.131935 
L 398.989421 435.828641 
L 397.895724 439.418571 
L 396.339776 442.842777 
L 394.347124 446.045036 
L 391.95049 448.972765 
L 389.189224 451.577892 
L 386.108667 453.81764 
L 382.759402 455.655233 
L 379.196423 457.060498 
L 375.478234 458.01036 
L 371.665889 458.489222 
L 367.821985 458.489222 
L 364.00964 458.01036 
L 360.291451 457.060498 
L 356.728472 455.655233 
L 353.379207 453.81764 
L 350.29865 451.577892 
L 347.537384 448.972765 
L 345.14075 446.045036 
L 343.148098 442.842777 
L 341.59215 439.418571 
L 340.498454 435.828641 
L 339.884967 432.131935 
L 339.761764 428.389153 
L 340.130867 424.661751 
L 340.986216 421.010932 
L 342.313766 417.496643 
L 344.091719 414.176589 
L 346.29088 411.105285 
L 348.87514 408.333161 
L 351.802065 405.905736 
L 355.023595 403.862868 
L 358.486833 402.238101 
L 362.134912 401.058113 
L 365.907931 400.342281 
L 369.743937 400.102356 
" style="fill:none;stroke:#808080;stroke-linecap:square;stroke-width:1.5;"/>
   </g>
   <g id="line2d_65">
    <path clip-path="url(#p829f7cbe1f)" d="M 578.772024 379.649416 
L 582.608031 379.88934 
L 586.38105 380.605173 
L 590.029129 381.78516 
L 593.492366 383.409927 
L 596.713896 385.452795 
L 599.640821 387.88022 
L 602.225081 390.652344 
L 604.424243 393.723648 
L 606.202195 397.043702 
L 607.529745 400.557991 
L 608.385095 404.20881 
L 608.754198 407.936212 
L 608.630995 411.678994 
L 608.017508 415.3757 
L 606.923811 418.96563 
L 605.367863 422.389837 
L 603.375212 425.592095 
L 600.978577 428.519824 
L 598.217311 431.124951 
L 595.136754 433.364699 
L 591.787489 435.202293 
L 588.22451 436.607557 
L 584.506322 437.557419 
L 580.693976 438.036282 
L 576.850073 438.036282 
L 573.037727 437.557419 
L 569.319539 436.607557 
L 565.75656 435.202293 
L 562.407295 433.364699 
L 559.326738 431.124951 
L 556.565472 428.519824 
L 554.168837 425.592095 
L 552.176186 422.389837 
L 550.620238 418.96563 
L 549.526541 415.3757 
L 548.913054 411.678994 
L 548.789851 407.936212 
L 549.158954 404.20881 
L 550.014303 400.557991 
L 551.341854 397.043702 
L 553.119806 393.723648 
L 555.318968 390.652344 
L 557.903228 387.88022 
L 560.830153 385.452795 
L 564.051683 383.409927 
L 567.51492 381.78516 
L 571.162999 380.605173 
L 574.936018 379.88934 
L 578.772024 379.649416 
" style="fill:none;stroke:#808080;stroke-linecap:square;stroke-width:1.5;"/>
   </g>
   <g id="line2d_66">
    <path clip-path="url(#p829f7cbe1f)" d="M 460.822505 359.761386 
L 464.658512 360.00131 
L 468.43153 360.717143 
L 472.07961 361.897131 
L 475.542847 363.521898 
L 478.764377 365.564766 
L 481.691302 367.992191 
L 484.275562 370.764315 
L 486.474724 373.835619 
L 488.252676 377.155673 
L 489.580226 380.669962 
L 490.435575 384.32078 
L 490.804679 388.048183 
L 490.681476 391.790965 
L 490.067989 395.487671 
L 488.974292 399.0776 
L 487.418344 402.501807 
L 485.425693 405.704066 
L 483.029058 408.631795 
L 480.267792 411.236922 
L 477.187235 413.47667 
L 473.83797 415.314263 
L 470.274991 416.719528 
L 466.556803 417.66939 
L 462.744457 418.148252 
L 458.900553 418.148252 
L 455.088208 417.66939 
L 451.37002 416.719528 
L 447.807041 415.314263 
L 444.457775 413.47667 
L 441.377219 411.236922 
L 438.615953 408.631795 
L 436.219318 405.704066 
L 434.226667 402.501807 
L 432.670719 399.0776 
L 431.577022 395.487671 
L 430.963535 391.790965 
L 430.840332 388.048183 
L 431.209435 384.32078 
L 432.064784 380.669962 
L 433.392334 377.155673 
L 435.170287 373.835619 
L 437.369449 370.764315 
L 439.953709 367.992191 
L 442.880634 365.564766 
L 446.102164 363.521898 
L 449.565401 361.897131 
L 453.21348 360.717143 
L 456.986499 360.00131 
L 460.822505 359.761386 
" style="fill:none;stroke:#808080;stroke-linecap:square;stroke-width:1.5;"/>
   </g>
   <g id="line2d_67">
    <path clip-path="url(#p829f7cbe1f)" d="M 320.158907 204.929257 
L 323.994913 205.169181 
L 327.767932 205.885014 
L 331.416011 207.065002 
L 334.879248 208.689769 
L 338.100779 210.732637 
L 341.027704 213.160062 
L 343.611963 215.932186 
L 345.811125 219.00349 
L 347.589078 222.323544 
L 348.916628 225.837833 
L 349.771977 229.488651 
L 350.14108 233.216054 
L 350.017877 236.958836 
L 349.40439 240.655542 
L 348.310694 244.245471 
L 346.754745 247.669678 
L 344.762094 250.871937 
L 342.365459 253.799666 
L 339.604193 256.404793 
L 336.523637 258.644541 
L 333.174371 260.482134 
L 329.611392 261.887399 
L 325.893204 262.837261 
L 322.080859 263.316123 
L 318.236955 263.316123 
L 314.424609 262.837261 
L 310.706421 261.887399 
L 307.143442 260.482134 
L 303.794177 258.644541 
L 300.71362 256.404793 
L 297.952354 253.799666 
L 295.555719 250.871937 
L 293.563068 247.669678 
L 292.00712 244.245471 
L 290.913423 240.655542 
L 290.299936 236.958836 
L 290.176733 233.216054 
L 290.545837 229.488651 
L 291.401186 225.837833 
L 292.728736 222.323544 
L 294.506688 219.00349 
L 296.70585 215.932186 
L 299.29011 213.160062 
L 302.217035 210.732637 
L 305.438565 208.689769 
L 308.901803 207.065002 
L 312.549882 205.885014 
L 316.322901 205.169181 
L 320.158907 204.929257 
" style="fill:none;stroke:#808080;stroke-linecap:square;stroke-width:1.5;"/>
   </g>
   <g id="line2d_68"/>
   <g id="line2d_69"/>
   <g id="line2d_70"/>
   <g id="line2d_71"/>
   <g id="line2d_72"/>
   <g id="line2d_73"/>
   <g id="line2d_74"/>
   <g id="line2d_75"/>
   <g id="line2d_76"/>
   <g id="line2d_77"/>
   <g id="line2d_78"/>
   <g id="line2d_79"/>
   <g id="line2d_80"/>
   <g id="line2d_81"/>
   <g id="line2d_82"/>
   <g id="line2d_83"/>
   <g id="line2d_84"/>
   <g id="line2d_85"/>
   <g id="line2d_86"/>
   <g id="line2d_87"/>
   <g id="line2d_88"/>
   <g id="line2d_89"/>
   <g id="line2d_90"/>
   <g id="line2d_91"/>
   <g id="line2d_92"/>
   <g id="line2d_93"/>
   <g id="line2d_94"/>
   <g id="line2d_95"/>
   <g id="line2d_96"/>
   <g id="line2d_97"/>
   <g id="line2d_98"/>
   <g id="line2d_99"/>
   <g id="line2d_100"/>
   <g id="line2d_101"/>
   <g id="line2d_102"/>
   <g id="line2d_103"/>
   <g id="line2d_104"/>
   <g id="line2d_105"/>
   <g id="line2d_106"/>
   <g id="line2d_107"/>
   <g id="line2d_108"/>
   <g id="line2d_109"/>
   <g id="line2d_110"/>
   <g id="line2d_111"/>
   <g id="line2d_112"/>
   <g id="line2d_113"/>
   <g id="line2d_114"/>
   <g id="line2d_115"/>
   <g id="line2d_116"/>
   <g id="line2d_117"/>
   <g id="line2d_118"/>
   <g id="patch_3">
    <path d="M 90 630 
L 90 86.4 
" style="fill:none;stroke:#000000;stroke-linecap:square;stroke-linejoin:miter;stroke-width:0.8;"/>
   </g>
   <g id="patch_4">
    <path d="M 648 630 
L 648 86.4 
" style="fill:none;stroke:#000000;stroke-linecap:square;stroke-linejoin:miter;stroke-width:0.8;"/>
   </g>
   <g id="patch_5">
    <path d="M 90 630 
L 648 630 
" style="fill:none;stroke:#000000;stroke-linecap:square;stroke-linejoin:miter;stroke-width:0.8;"/>
   </g>
   <g id="patch_6">
    <path d="M 90 86.4 
L 648 86.4 
" style="fill:none;stroke:#000000;stroke-linecap:square;stroke-linejoin:miter;stroke-width:0.8;"/>
   </g>
   <g id="text_11">
    <!-- 0 -->
    <g transform="translate(-50.703514 377.426397)scale(0.1 -0.1)">
     <use xlink:href="#DejaVuSans-30"/>
    </g>
   </g>
   <g id="text_12">
    <!-- 0 -->
    <g transform="translate(-50.703514 348.202943)scale(0.1 -0.1)">
     <use xlink:href="#DejaVuSans-30"/>
    </g>
   </g>
   <g id="text_13">
    <!-- 0 -->
    <g transform="translate(-50.703514 318.979488)scale(0.1 -0.1)">
     <use xlink:href="#DejaVuSans-30"/>
    </g>
   </g>
  </g>
 </g>
 <defs>
  <clipPath id="p829f7cbe1f">
   <rect height="543.6" width="558" x="90" y="86.4"/>
  </clipPath>
 </defs>
</svg>
