<?xml version="1.0" encoding="utf-8" standalone="no"?>
<!DOCTYPE svg PUBLIC "-//W3C//DTD SVG 1.1//EN"
  "http://www.w3.org/Graphics/SVG/1.1/DTD/svg11.dtd">
<svg height="720pt" version="1.1" viewBox="0 0 720 720" width="720pt" xmlns="http://www.w3.org/2000/svg" xmlns:xlink="http://www.w3.org/1999/xlink">
 <metadata>
  <rdf:RDF xmlns:cc="http://creativecommons.org/ns#" xmlns:dc="http://purl.org/dc/elements/1.1/" xmlns:rdf="http://www.w3.org/1999/02/22-rdf-syntax-ns#">
   <cc:Work>
    <dc:type rdf:resource="http://purl.org/dc/dcmitype/StillImage"/>
    <dc:date>2022-01-11T13:26:08.715764</dc:date>
    <dc:format>image/svg+xml</dc:format>
    <dc:creator>
     <cc:Agent>
      <dc:title>Matplotlib v3.4.3, https://matplotlib.org/</dc:title>
     </cc:Agent>
    </dc:creator>
   </cc:Work>
  </rdf:RDF>
 </metadata>
 <defs>
  <style type="text/css">*{stroke-linecap:butt;stroke-linejoin:round;}</style>
 </defs>
 <g id="figure_1">
  <g id="patch_1">
   <path d="M 0 720 
L 720 720 
L 720 0 
L 0 0 
z
" style="fill:none;"/>
  </g>
  <g id="axes_1">
   <g id="patch_2">
    <path d="M 90 630 
L 648 630 
L 648 86.4 
L 90 86.4 
z
" style="fill:#ffffff;"/>
   </g>
   <g id="PathCollection_1">
    <defs>
     <path d="M 0.972304 -8.870829 
Q -1.277159 -8.870829 -2.413438 -6.653699 
Q -3.545098 -4.441189 -3.545098 0.006929 
Q -3.545098 4.436569 -2.413438 6.653699 
Q -1.277159 8.870829 0.972304 8.870829 
Q 3.240243 8.870829 4.371903 6.653699 
Q 5.508182 4.436569 5.508182 0.006929 
Q 5.508182 -4.441189 4.371903 -6.653699 
Q 3.240243 -8.870829 0.972304 -8.870829 
z
M 0.972304 -11.18034 
Q 4.598235 -11.18034 6.51051 -8.311928 
Q 8.422784 -5.448135 8.422784 0.006929 
Q 8.422784 5.448135 6.51051 8.316547 
Q 4.598235 11.18034 0.972304 11.18034 
Q -2.649008 11.18034 -4.561283 8.316547 
Q -6.473558 5.448135 -6.473558 0.006929 
Q -6.473558 -5.448135 -4.561283 -8.311928 
Q -2.649008 -11.18034 0.972304 -11.18034 
z
" id="mc35235179c" style="stroke:#808080;"/>
    </defs>
    <g clip-path="url(#p0247bdd11f)">
     <use style="fill:#808080;stroke:#808080;" x="182.82817" xlink:href="#mc35235179c" y="147.753502"/>
    </g>
   </g>
   <g id="PathCollection_2">
    <defs>
     <path d="M -4.535873 8.63565 
L 0.404946 8.63565 
L 0.404946 -8.424791 
L -4.971969 -7.346533 
L -4.971969 -10.102082 
L 0.376192 -11.18034 
L 3.400108 -11.18034 
L 3.400108 8.63565 
L 8.340927 8.63565 
L 8.340927 11.18034 
L -4.535873 11.18034 
L -4.535873 8.63565 
z
" id="m7a2492e9f8" style="stroke:#808080;"/>
    </defs>
    <g clip-path="url(#p0247bdd11f)">
     <use style="fill:#808080;stroke:#808080;" x="135.005602" xlink:href="#m7a2492e9f8" y="284.654569"/>
    </g>
   </g>
   <g id="PathCollection_3">
    <defs>
     <path d="M -2.294912 8.680651 
L 8.075736 8.680651 
L 8.075736 11.18034 
L -5.867913 11.18034 
L -5.867913 8.680651 
Q -4.177916 6.929457 -1.259259 3.982555 
Q 1.664105 1.030945 2.4126 0.174178 
Q 3.838976 -1.426376 4.403877 -2.537349 
Q 4.973486 -3.648321 4.973486 -4.721634 
Q 4.973486 -6.472828 3.744825 -7.574386 
Q 2.516165 -8.680651 0.543718 -8.680651 
Q -0.854413 -8.680651 -2.407892 -8.195778 
Q -3.956663 -7.710904 -5.72198 -6.722326 
L -5.72198 -9.725719 
Q -3.928418 -10.445968 -2.370232 -10.813154 
Q -0.807338 -11.18034 0.487227 -11.18034 
Q 3.900173 -11.18034 5.929111 -9.471513 
Q 7.958048 -7.767394 7.958048 -4.914642 
Q 7.958048 -3.558879 7.449637 -2.344341 
Q 6.945933 -1.13451 5.604292 0.513119 
Q 5.237107 0.941502 3.264659 2.979855 
Q 1.296919 5.018207 -2.294912 8.680651 
z
" id="m436bcbe40b" style="stroke:#808080;"/>
    </defs>
    <g clip-path="url(#p0247bdd11f)">
     <use style="fill:#808080;stroke:#808080;" x="155.085239" xlink:href="#m436bcbe40b" y="383.157177"/>
    </g>
   </g>
   <g id="PathCollection_4">
    <defs>
     <path d="M 3.77605 -0.861447 
Q 5.868466 -0.413402 7.041697 1.004637 
Q 8.219548 2.418057 8.219548 4.496617 
Q 8.219548 7.683741 6.025513 9.43435 
Q 3.831478 11.18034 -0.210165 11.18034 
Q -1.563539 11.18034 -3.000054 10.912437 
Q -4.436569 10.644533 -5.965465 10.108727 
L -5.965465 7.295743 
Q -4.755282 8.002454 -3.314147 8.362737 
Q -1.868394 8.723021 -0.293308 8.723021 
Q 2.445772 8.723021 3.882287 7.64217 
Q 5.318802 6.561319 5.318802 4.496617 
Q 5.318802 2.588961 3.983905 1.517348 
Q 2.649008 0.441116 0.270213 0.441116 
L -2.242535 0.441116 
L -2.242535 -1.956155 
L 0.385688 -1.956155 
Q 2.533533 -1.956155 3.674431 -2.815293 
Q 4.815329 -3.674431 4.815329 -5.291088 
Q 4.815329 -6.949317 3.637479 -7.836169 
Q 2.464248 -8.72764 0.270213 -8.72764 
Q -0.930733 -8.72764 -2.302582 -8.464356 
Q -3.674431 -8.20569 -5.318802 -7.660646 
L -5.318802 -10.256536 
Q -3.655955 -10.718438 -2.205582 -10.949389 
Q -0.75521 -11.18034 0.528878 -11.18034 
Q 3.849954 -11.18034 5.780705 -9.66992 
Q 7.716074 -8.164119 7.716074 -5.595944 
Q 7.716074 -3.803764 6.690652 -2.570485 
Q 5.665229 -1.337207 3.77605 -0.861447 
z
" id="mda154e36cb" style="stroke:#808080;"/>
    </defs>
    <g clip-path="url(#p0247bdd11f)">
     <use style="fill:#808080;stroke:#808080;" x="298.67004" xlink:href="#mda154e36cb" y="474.073747"/>
    </g>
   </g>
   <g id="PathCollection_5">
    <defs>
     <path d="M 2.695646 -8.544598 
L -4.943215 3.392919 
L 2.695646 3.392919 
L 2.695646 -8.544598 
z
M 1.900131 -11.18034 
L 5.705184 -11.18034 
L 5.705184 3.392919 
L 8.896829 3.392919 
L 8.896829 5.908855 
L 5.705184 5.908855 
L 5.705184 11.18034 
L 2.695646 11.18034 
L 2.695646 5.908855 
L -7.396852 5.908855 
L -7.396852 2.99037 
L 1.900131 -11.18034 
z
" id="m470a8126bb" style="stroke:#808080;"/>
    </defs>
    <g clip-path="url(#p0247bdd11f)">
     <use style="fill:#808080;stroke:#808080;" x="488.180286" xlink:href="#m470a8126bb" y="517.19191"/>
    </g>
   </g>
   <g id="PathCollection_6">
    <defs>
     <path d="M -5.008473 -11.18034 
L 6.639575 -11.18034 
L 6.639575 -8.679629 
L -2.291535 -8.679629 
L -2.291535 -3.306861 
Q -1.647555 -3.527789 -1.003575 -3.635902 
Q -0.354894 -3.744015 0.293787 -3.744015 
Q 3.964943 -3.744015 6.108409 -1.732165 
Q 8.256576 0.279685 8.256576 3.715812 
Q 8.256576 7.255352 6.052002 9.220196 
Q 3.847428 11.18034 -0.16217 11.18034 
Q -1.544142 11.18034 -2.97782 10.945311 
Q -4.406798 10.710281 -5.934488 10.240223 
L -5.934488 7.255352 
Q -4.613624 7.974541 -3.203448 8.327085 
Q -1.793273 8.679629 -0.223278 8.679629 
Q 2.319738 8.679629 3.800422 7.344663 
Q 5.285807 6.009697 5.285807 3.715812 
Q 5.285807 1.426627 3.800422 0.091661 
Q 2.319738 -1.248005 -0.223278 -1.248005 
Q -1.412526 -1.248005 -2.597073 -0.984772 
Q -3.77692 -0.72154 -5.008473 -0.16217 
L -5.008473 -11.18034 
z
" id="m829de4442b" style="stroke:#808080;"/>
    </defs>
    <g clip-path="url(#p0247bdd11f)">
     <use style="fill:#808080;stroke:#808080;" x="438.75242" xlink:href="#m829de4442b" y="421.109233"/>
    </g>
   </g>
   <g id="PathCollection_7">
    <defs>
     <path d="M 1.286397 -1.175541 
Q -0.676687 -1.175541 -1.826823 0.168594 
Q -2.97234 1.50811 -2.97234 3.845335 
Q -2.97234 6.168702 -1.826823 7.522075 
Q -0.676687 8.870829 1.286397 8.870829 
Q 3.249481 8.870829 4.394998 7.522075 
Q 5.540515 6.168702 5.540515 3.845335 
Q 5.540515 1.50811 4.394998 0.168594 
Q 3.249481 -1.175541 1.286397 -1.175541 
z
M 7.07403 -10.316583 
L 7.07403 -7.660646 
Q 5.974703 -8.177976 4.8569 -8.450499 
Q 3.739097 -8.72764 2.63977 -8.72764 
Q -0.247118 -8.72764 -1.771394 -6.778413 
Q -3.291052 -4.829186 -3.508146 -0.889162 
Q -2.658246 -2.145535 -1.374159 -2.815293 
Q -0.085452 -3.485051 1.457301 -3.485051 
Q 4.704473 -3.485051 6.589033 -1.512729 
Q 8.473594 0.454974 8.473594 3.845335 
Q 8.473594 7.166411 6.51051 9.175685 
Q 4.547426 11.18034 1.286397 11.18034 
Q -2.45501 11.18034 -4.43195 8.316547 
Q -6.408891 5.448135 -6.408891 0.006929 
Q -6.408891 -5.101708 -3.983905 -8.141024 
Q -1.55892 -11.18034 2.524295 -11.18034 
Q 3.623622 -11.18034 4.741425 -10.963246 
Q 5.859228 -10.746152 7.07403 -10.316583 
z
" id="mfa9dfc2592" style="stroke:#808080;"/>
    </defs>
    <g clip-path="url(#p0247bdd11f)">
     <use style="fill:#808080;stroke:#808080;" x="354.760787" xlink:href="#mfa9dfc2592" y="316.681742"/>
    </g>
   </g>
   <g id="PathCollection_8">
    <defs>
     <path d="M -5.93042 -11.18034 
L 8.446356 -11.18034 
L 8.446356 -9.891222 
L 0.32827 11.18034 
L -2.829829 11.18034 
L 4.809032 -8.630858 
L -5.93042 -8.630858 
L -5.93042 -11.18034 
z
" id="me8f4d8b735" style="stroke:#808080;"/>
    </defs>
    <g clip-path="url(#p0247bdd11f)">
     <use style="fill:#808080;stroke:#808080;" x="288.70073" xlink:href="#me8f4d8b735" y="205.938822"/>
    </g>
   </g>
   <g id="PathCollection_9"/>
   <g id="PathCollection_10"/>
   <g id="PathCollection_11"/>
   <g id="PathCollection_12"/>
   <g id="PathCollection_13"/>
   <g id="matplotlib.axis_1">
    <g id="xtick_1">
     <g id="line2d_1">
      <defs>
       <path d="M 0 0 
L 0 3.5 
" id="m8a804ed27d" style="stroke:#000000;stroke-width:0.8;"/>
      </defs>
      <g>
       <use style="stroke:#000000;stroke-width:0.8;" x="160.37326" xlink:href="#m8a804ed27d" y="630"/>
      </g>
     </g>
     <g id="text_1">
      <!-- −200 -->
      <g transform="translate(146.639666 644.598438)scale(0.1 -0.1)">
       <defs>
        <path d="M 678 2272 
L 4684 2272 
L 4684 1741 
L 678 1741 
L 678 2272 
z
" id="DejaVuSans-2212" transform="scale(0.015625)"/>
        <path d="M 1228 531 
L 3431 531 
L 3431 0 
L 469 0 
L 469 531 
Q 828 903 1448 1529 
Q 2069 2156 2228 2338 
Q 2531 2678 2651 2914 
Q 2772 3150 2772 3378 
Q 2772 3750 2511 3984 
Q 2250 4219 1831 4219 
Q 1534 4219 1204 4116 
Q 875 4013 500 3803 
L 500 4441 
Q 881 4594 1212 4672 
Q 1544 4750 1819 4750 
Q 2544 4750 2975 4387 
Q 3406 4025 3406 3419 
Q 3406 3131 3298 2873 
Q 3191 2616 2906 2266 
Q 2828 2175 2409 1742 
Q 1991 1309 1228 531 
z
" id="DejaVuSans-32" transform="scale(0.015625)"/>
        <path d="M 2034 4250 
Q 1547 4250 1301 3770 
Q 1056 3291 1056 2328 
Q 1056 1369 1301 889 
Q 1547 409 2034 409 
Q 2525 409 2770 889 
Q 3016 1369 3016 2328 
Q 3016 3291 2770 3770 
Q 2525 4250 2034 4250 
z
M 2034 4750 
Q 2819 4750 3233 4129 
Q 3647 3509 3647 2328 
Q 3647 1150 3233 529 
Q 2819 -91 2034 -91 
Q 1250 -91 836 529 
Q 422 1150 422 2328 
Q 422 3509 836 4129 
Q 1250 4750 2034 4750 
z
" id="DejaVuSans-30" transform="scale(0.015625)"/>
       </defs>
       <use xlink:href="#DejaVuSans-2212"/>
       <use x="83.789062" xlink:href="#DejaVuSans-32"/>
       <use x="147.412109" xlink:href="#DejaVuSans-30"/>
       <use x="211.035156" xlink:href="#DejaVuSans-30"/>
      </g>
     </g>
    </g>
    <g id="xtick_2">
     <g id="line2d_2">
      <g>
       <use style="stroke:#000000;stroke-width:0.8;" x="253.077248" xlink:href="#m8a804ed27d" y="630"/>
      </g>
     </g>
     <g id="text_2">
      <!-- −100 -->
      <g transform="translate(239.343654 644.598438)scale(0.1 -0.1)">
       <defs>
        <path d="M 794 531 
L 1825 531 
L 1825 4091 
L 703 3866 
L 703 4441 
L 1819 4666 
L 2450 4666 
L 2450 531 
L 3481 531 
L 3481 0 
L 794 0 
L 794 531 
z
" id="DejaVuSans-31" transform="scale(0.015625)"/>
       </defs>
       <use xlink:href="#DejaVuSans-2212"/>
       <use x="83.789062" xlink:href="#DejaVuSans-31"/>
       <use x="147.412109" xlink:href="#DejaVuSans-30"/>
       <use x="211.035156" xlink:href="#DejaVuSans-30"/>
      </g>
     </g>
    </g>
    <g id="xtick_3">
     <g id="line2d_3">
      <g>
       <use style="stroke:#000000;stroke-width:0.8;" x="345.781237" xlink:href="#m8a804ed27d" y="630"/>
      </g>
     </g>
     <g id="text_3">
      <!-- 0 -->
      <g transform="translate(342.599987 644.598438)scale(0.1 -0.1)">
       <use xlink:href="#DejaVuSans-30"/>
      </g>
     </g>
    </g>
    <g id="xtick_4">
     <g id="line2d_4">
      <g>
       <use style="stroke:#000000;stroke-width:0.8;" x="438.485225" xlink:href="#m8a804ed27d" y="630"/>
      </g>
     </g>
     <g id="text_4">
      <!-- 100 -->
      <g transform="translate(428.941475 644.598438)scale(0.1 -0.1)">
       <use xlink:href="#DejaVuSans-31"/>
       <use x="63.623047" xlink:href="#DejaVuSans-30"/>
       <use x="127.246094" xlink:href="#DejaVuSans-30"/>
      </g>
     </g>
    </g>
    <g id="xtick_5">
     <g id="line2d_5">
      <g>
       <use style="stroke:#000000;stroke-width:0.8;" x="531.189213" xlink:href="#m8a804ed27d" y="630"/>
      </g>
     </g>
     <g id="text_5">
      <!-- 200 -->
      <g transform="translate(521.645463 644.598438)scale(0.1 -0.1)">
       <use xlink:href="#DejaVuSans-32"/>
       <use x="63.623047" xlink:href="#DejaVuSans-30"/>
       <use x="127.246094" xlink:href="#DejaVuSans-30"/>
      </g>
     </g>
    </g>
    <g id="xtick_6">
     <g id="line2d_6">
      <g>
       <use style="stroke:#000000;stroke-width:0.8;" x="623.893202" xlink:href="#m8a804ed27d" y="630"/>
      </g>
     </g>
     <g id="text_6">
      <!-- 300 -->
      <g transform="translate(614.349452 644.598438)scale(0.1 -0.1)">
       <defs>
        <path d="M 2597 2516 
Q 3050 2419 3304 2112 
Q 3559 1806 3559 1356 
Q 3559 666 3084 287 
Q 2609 -91 1734 -91 
Q 1441 -91 1130 -33 
Q 819 25 488 141 
L 488 750 
Q 750 597 1062 519 
Q 1375 441 1716 441 
Q 2309 441 2620 675 
Q 2931 909 2931 1356 
Q 2931 1769 2642 2001 
Q 2353 2234 1838 2234 
L 1294 2234 
L 1294 2753 
L 1863 2753 
Q 2328 2753 2575 2939 
Q 2822 3125 2822 3475 
Q 2822 3834 2567 4026 
Q 2313 4219 1838 4219 
Q 1578 4219 1281 4162 
Q 984 4106 628 3988 
L 628 4550 
Q 988 4650 1302 4700 
Q 1616 4750 1894 4750 
Q 2613 4750 3031 4423 
Q 3450 4097 3450 3541 
Q 3450 3153 3228 2886 
Q 3006 2619 2597 2516 
z
" id="DejaVuSans-33" transform="scale(0.015625)"/>
       </defs>
       <use xlink:href="#DejaVuSans-33"/>
       <use x="63.623047" xlink:href="#DejaVuSans-30"/>
       <use x="127.246094" xlink:href="#DejaVuSans-30"/>
      </g>
     </g>
    </g>
   </g>
   <g id="matplotlib.axis_2">
    <g id="ytick_1">
     <g id="line2d_7">
      <defs>
       <path d="M 0 0 
L -3.5 0 
" id="m562d7968c7" style="stroke:#000000;stroke-width:0.8;"/>
      </defs>
      <g>
       <use style="stroke:#000000;stroke-width:0.8;" x="90" xlink:href="#m562d7968c7" y="561.442824"/>
      </g>
     </g>
     <g id="text_7">
      <!-- −200 -->
      <g transform="translate(55.532812 565.242043)scale(0.1 -0.1)">
       <use xlink:href="#DejaVuSans-2212"/>
       <use x="83.789062" xlink:href="#DejaVuSans-32"/>
       <use x="147.412109" xlink:href="#DejaVuSans-30"/>
       <use x="211.035156" xlink:href="#DejaVuSans-30"/>
      </g>
     </g>
    </g>
    <g id="ytick_2">
     <g id="line2d_8">
      <g>
       <use style="stroke:#000000;stroke-width:0.8;" x="90" xlink:href="#m562d7968c7" y="471.131197"/>
      </g>
     </g>
     <g id="text_8">
      <!-- −100 -->
      <g transform="translate(55.532812 474.930416)scale(0.1 -0.1)">
       <use xlink:href="#DejaVuSans-2212"/>
       <use x="83.789062" xlink:href="#DejaVuSans-31"/>
       <use x="147.412109" xlink:href="#DejaVuSans-30"/>
       <use x="211.035156" xlink:href="#DejaVuSans-30"/>
      </g>
     </g>
    </g>
    <g id="ytick_3">
     <g id="line2d_9">
      <g>
       <use style="stroke:#000000;stroke-width:0.8;" x="90" xlink:href="#m562d7968c7" y="380.81957"/>
      </g>
     </g>
     <g id="text_9">
      <!-- 0 -->
      <g transform="translate(76.6375 384.618788)scale(0.1 -0.1)">
       <use xlink:href="#DejaVuSans-30"/>
      </g>
     </g>
    </g>
    <g id="ytick_4">
     <g id="line2d_10">
      <g>
       <use style="stroke:#000000;stroke-width:0.8;" x="90" xlink:href="#m562d7968c7" y="290.507942"/>
      </g>
     </g>
     <g id="text_10">
      <!-- 100 -->
      <g transform="translate(63.9125 294.307161)scale(0.1 -0.1)">
       <use xlink:href="#DejaVuSans-31"/>
       <use x="63.623047" xlink:href="#DejaVuSans-30"/>
       <use x="127.246094" xlink:href="#DejaVuSans-30"/>
      </g>
     </g>
    </g>
    <g id="ytick_5">
     <g id="line2d_11">
      <g>
       <use style="stroke:#000000;stroke-width:0.8;" x="90" xlink:href="#m562d7968c7" y="200.196315"/>
      </g>
     </g>
     <g id="text_11">
      <!-- 200 -->
      <g transform="translate(63.9125 203.995533)scale(0.1 -0.1)">
       <use xlink:href="#DejaVuSans-32"/>
       <use x="63.623047" xlink:href="#DejaVuSans-30"/>
       <use x="127.246094" xlink:href="#DejaVuSans-30"/>
      </g>
     </g>
    </g>
    <g id="ytick_6">
     <g id="line2d_12">
      <g>
       <use style="stroke:#000000;stroke-width:0.8;" x="90" xlink:href="#m562d7968c7" y="109.884687"/>
      </g>
     </g>
     <g id="text_12">
      <!-- 300 -->
      <g transform="translate(63.9125 113.683906)scale(0.1 -0.1)">
       <use xlink:href="#DejaVuSans-33"/>
       <use x="63.623047" xlink:href="#DejaVuSans-30"/>
       <use x="127.246094" xlink:href="#DejaVuSans-30"/>
      </g>
     </g>
    </g>
   </g>
   <g id="line2d_13">
    <path clip-path="url(#p0247bdd11f)" d="M 288.70073 205.938822 
L 287.083344 201.520931 
L 285.423483 197.117521 
L 283.718542 192.730043 
L 281.965669 188.360147 
L 280.161739 184.009723 
L 278.303316 179.680939 
L 276.386616 175.376297 
L 274.407452 171.098695 
L 272.361188 166.851506 
L 270.242669 162.638674 
L 268.04615 158.464837 
L 265.765213 154.33548 
L 263.392661 150.257124 
L 260.920417 146.237578 
L 258.339392 142.286251 
L 255.639356 138.414567 
L 252.808804 134.636495 
L 249.834846 130.969259 
L 246.703161 127.434256 
L 243.398096 124.058273 
L 239.903072 120.875037 
L 236.201574 117.927138 
L 232.279192 115.268167 
L 228.127389 112.964545 
L 223.749655 111.095718 
L 219.169926 109.750316 
L 214.440845 109.015534 
L 209.646386 108.959611 
L 204.893368 109.61374 
L 200.293355 110.964241 
L 195.944966 112.960417 
L 191.926312 115.53219 
L 188.299074 118.607055 
L 185.120002 122.120301 
L 182.456548 126.017767 
L 180.407377 130.251237 
L 179.132337 134.761618 
L 178.89312 139.430108 
L 180.053849 143.957485 
L 182.82817 147.753502 
" style="fill:none;stroke:#808080;stroke-linecap:square;stroke-width:1.5;"/>
   </g>
   <g id="line2d_14">
    <path clip-path="url(#p0247bdd11f)" d="M 178.89312 205.938822 
L 178.89312 108.959611 
L 288.70073 108.959611 
L 288.70073 205.938822 
L 178.89312 205.938822 
" style="fill:none;stroke:#d3d3d3;stroke-linecap:square;stroke-width:0.5;"/>
   </g>
   <g id="line2d_15">
    <path clip-path="url(#p0247bdd11f)" d="M 182.82817 147.753502 
L 184.520804 151.907914 
L 184.421599 156.464257 
L 183.679374 160.969562 
L 182.615544 165.41476 
L 181.356703 169.813006 
L 179.966318 174.175479 
L 178.481222 178.51032 
L 176.924976 182.823417 
L 175.313742 187.119114 
L 173.659204 191.400694 
L 171.970166 195.670702 
L 170.25349 199.931156 
L 168.514673 204.183693 
L 166.758232 208.429669 
L 164.987955 212.670234 
L 163.207081 216.906379 
L 161.41843 221.138978 
L 159.624497 225.368816 
L 157.827525 229.596611 
L 156.029562 233.82303 
L 154.232505 238.048708 
L 152.438135 242.274252 
L 150.648152 246.500256 
L 148.864198 250.727305 
L 147.087881 254.955988 
L 145.320799 259.186897 
L 143.56456 263.420637 
L 141.8208 267.657832 
L 140.09121 271.899129 
L 138.377551 276.145203 
L 136.681686 280.396766 
L 135.005602 284.654569 
" style="fill:none;stroke:#808080;stroke-linecap:square;stroke-width:1.5;"/>
   </g>
   <g id="line2d_16">
    <path clip-path="url(#p0247bdd11f)" d="M 135.005602 284.654569 
L 135.005602 147.753502 
L 184.520804 147.753502 
L 184.520804 284.654569 
L 135.005602 284.654569 
" style="fill:none;stroke:#d3d3d3;stroke-linecap:square;stroke-width:0.5;"/>
   </g>
   <g id="line2d_17">
    <path clip-path="url(#p0247bdd11f)" d="M 135.005602 284.654569 
L 133.351442 288.919409 
L 131.721545 293.19214 
L 130.118487 297.473673 
L 128.545133 301.764993 
L 127.004705 306.067159 
L 125.500862 310.381317 
L 124.037803 314.70871 
L 122.620401 319.050684 
L 121.254373 323.408694 
L 119.946515 327.784309 
L 118.705011 332.179203 
L 117.539862 336.595134 
L 116.463487 341.033886 
L 115.491596 345.497159 
L 114.644472 349.98633 
L 113.948921 354.501994 
L 113.441329 359.043022 
L 113.172586 363.60459 
L 113.216212 368.173863 
L 113.681652 372.719999 
L 114.733501 377.169921 
L 116.602351 381.352352 
L 119.509237 384.916593 
L 123.407189 387.414589 
L 127.889713 388.69201 
L 132.559141 388.97176 
L 137.221915 388.548619 
L 141.813072 387.638993 
L 146.318222 386.382421 
L 150.739841 384.868625 
L 155.085239 383.157177 
" style="fill:none;stroke:#808080;stroke-linecap:square;stroke-width:1.5;"/>
   </g>
   <g id="line2d_18">
    <path clip-path="url(#p0247bdd11f)" d="M 113.172586 388.97176 
L 113.172586 284.654569 
L 155.085239 284.654569 
L 155.085239 388.97176 
L 113.172586 388.97176 
" style="fill:none;stroke:#d3d3d3;stroke-linecap:square;stroke-width:0.5;"/>
   </g>
   <g id="line2d_19">
    <path clip-path="url(#p0247bdd11f)" d="M 155.085239 383.157177 
L 159.423281 381.392606 
L 163.793865 379.705917 
L 168.199158 378.106846 
L 172.641257 376.606843 
L 177.122053 375.219417 
L 181.643019 373.960558 
L 186.204882 372.849205 
L 190.807131 371.907761 
L 195.447303 371.162582 
L 200.119955 370.644328 
L 204.81529 370.387925 
L 209.517458 370.431782 
L 214.2028 370.815724 
L 218.838637 371.577188 
L 223.383667 372.745619 
L 227.791031 374.336143 
L 232.014241 376.344747 
L 236.014436 378.747482 
L 239.766132 381.504501 
L 243.259291 384.567179 
L 246.497616 387.88536 
L 249.494728 391.412528 
L 252.27004 395.10842 
L 254.845461 398.939655 
L 257.243191 402.879229 
L 259.484481 406.905562 
L 261.589053 411.001464 
L 263.574946 415.153202 
L 265.458603 419.349728 
L 267.255084 423.582053 
L 268.978359 427.842757 
L 270.641644 432.1256 
L 272.257794 436.425204 
L 273.839776 440.736772 
L 275.40128 445.055818 
L 276.957572 449.37784 
L 278.52681 453.69783 
L 280.132248 458.009376 
L 281.806292 462.302678 
L 283.59886 466.559555 
L 285.597301 470.738557 
L 287.985643 474.719133 
L 291.279447 477.962217 
L 295.677751 477.570986 
L 298.67004 474.073747 
" style="fill:none;stroke:#808080;stroke-linecap:square;stroke-width:1.5;"/>
   </g>
   <g id="line2d_20">
    <path clip-path="url(#p0247bdd11f)" d="M 155.085239 477.962217 
L 155.085239 370.387925 
L 298.67004 370.387925 
L 298.67004 477.962217 
L 155.085239 477.962217 
" style="fill:none;stroke:#d3d3d3;stroke-linecap:square;stroke-width:0.5;"/>
   </g>
   <g id="line2d_21">
    <path clip-path="url(#p0247bdd11f)" d="M 298.67004 474.073747 
L 301.329447 470.234526 
L 304.383997 466.685963 
L 307.862374 463.529173 
L 311.760248 460.877495 
L 316.024817 458.830607 
L 320.559241 457.440634 
L 325.250522 456.69509 
L 330.000876 456.529659 
L 334.742811 456.856213 
L 339.437673 457.585903 
L 344.067435 458.640659 
L 348.6267 459.956191 
L 353.117069 461.480975 
L 357.543713 463.173983 
L 361.913427 465.002388 
L 366.233588 466.939621 
L 370.511615 468.963858 
L 374.754706 471.056863 
L 378.96973 473.203117 
L 383.163189 475.389164 
L 387.341223 477.603107 
L 391.509629 479.834235 
L 395.673883 482.072724 
L 399.839158 484.309415 
L 404.010341 486.535635 
L 408.19203 488.743066 
L 412.388538 490.923646 
L 416.603867 493.069496 
L 420.841692 495.172881 
L 425.105319 497.226192 
L 429.397647 499.221955 
L 433.72112 501.152862 
L 438.077684 503.011832 
L 442.468741 504.792085 
L 446.895112 506.487238 
L 451.357024 508.091415 
L 455.854099 509.59936 
L 460.385386 511.006547 
L 464.949396 512.309279 
L 469.544173 513.504767 
L 474.167377 514.591174 
L 478.816373 515.567634 
L 483.488328 516.434222 
L 488.180286 517.19191 
" style="fill:none;stroke:#808080;stroke-linecap:square;stroke-width:1.5;"/>
   </g>
   <g id="line2d_22">
    <path clip-path="url(#p0247bdd11f)" d="M 298.67004 517.19191 
L 298.67004 456.529659 
L 488.180286 456.529659 
L 488.180286 517.19191 
L 298.67004 517.19191 
" style="fill:none;stroke:#d3d3d3;stroke-linecap:square;stroke-width:0.5;"/>
   </g>
   <g id="line2d_23">
    <path clip-path="url(#p0247bdd11f)" d="M 488.180286 517.19191 
L 492.851596 517.721508 
L 497.544285 517.743564 
L 502.07014 516.662097 
L 504.978185 513.247355 
L 504.832941 508.678248 
L 503.316272 504.329006 
L 501.264247 500.214821 
L 498.939747 496.260277 
L 496.45077 492.41575 
L 493.851563 488.649999 
L 491.173288 484.942529 
L 488.435604 481.279274 
L 485.651798 477.650192 
L 482.831326 474.047872 
L 479.981207 470.466697 
L 477.106817 466.902305 
L 474.212395 463.351244 
L 471.301351 459.810733 
L 468.376491 456.2785 
L 465.440154 452.752663 
L 462.494325 449.231643 
L 459.540708 445.714104 
L 456.580781 442.198902 
L 453.615843 438.685049 
L 450.647046 435.171686 
L 447.675417 431.658056 
L 444.701887 428.143491 
L 441.727297 424.627395 
L 438.75242 421.109233 
" style="fill:none;stroke:#808080;stroke-linecap:square;stroke-width:1.5;"/>
   </g>
   <g id="line2d_24">
    <path clip-path="url(#p0247bdd11f)" d="M 438.75242 517.743564 
L 438.75242 421.109233 
L 504.978185 421.109233 
L 504.978185 517.743564 
L 438.75242 517.743564 
" style="fill:none;stroke:#d3d3d3;stroke-linecap:square;stroke-width:0.5;"/>
   </g>
   <g id="line2d_25">
    <path clip-path="url(#p0247bdd11f)" d="M 438.75242 421.109233 
L 435.777969 417.588519 
L 432.804604 414.064813 
L 429.832944 410.537709 
L 426.863569 407.006833 
L 423.89703 403.471837 
L 420.933849 399.932394 
L 417.974527 396.388195 
L 415.019547 392.83895 
L 412.069375 389.284378 
L 409.124467 385.724209 
L 406.185266 382.158184 
L 403.25221 378.586048 
L 400.325731 375.007551 
L 397.406258 371.422449 
L 394.49422 367.830497 
L 391.590046 364.231452 
L 388.694168 360.625071 
L 385.807023 357.011107 
L 382.929056 353.389313 
L 380.060719 349.759435 
L 377.202475 346.121218 
L 374.354801 342.474396 
L 371.518188 338.818699 
L 368.693144 335.153847 
L 365.880198 331.479551 
L 363.079899 327.795512 
L 360.292823 324.101417 
L 357.519574 320.39694 
L 354.760787 316.681742 
" style="fill:none;stroke:#808080;stroke-linecap:square;stroke-width:1.5;"/>
   </g>
   <g id="line2d_26">
    <path clip-path="url(#p0247bdd11f)" d="M 354.760787 421.109233 
L 354.760787 316.681742 
L 438.75242 316.681742 
L 438.75242 421.109233 
L 354.760787 421.109233 
" style="fill:none;stroke:#d3d3d3;stroke-linecap:square;stroke-width:0.5;"/>
   </g>
   <g id="line2d_27">
    <path clip-path="url(#p0247bdd11f)" d="M 354.760787 316.681742 
L 352.017135 312.955466 
L 349.289327 309.217736 
L 346.578119 305.468159 
L 343.884316 301.706318 
L 341.20878 297.931772 
L 338.552434 294.144055 
L 335.916272 290.342671 
L 333.301366 286.527093 
L 330.70888 282.696759 
L 328.140078 278.851069 
L 325.596338 274.989379 
L 323.07917 271.111 
L 320.590235 267.215192 
L 318.131366 263.301154 
L 315.704594 259.368025 
L 313.312185 255.414872 
L 310.95667 251.440685 
L 308.640902 247.444365 
L 306.368107 243.424717 
L 304.141957 239.380438 
L 301.966663 235.310107 
L 299.847081 231.21217 
L 297.788863 227.084929 
L 295.79864 222.926533 
L 293.884265 218.734968 
L 292.055138 214.508057 
L 290.322641 210.243482 
L 288.70073 205.938822 
" style="fill:none;stroke:#808080;stroke-linecap:square;stroke-width:1.5;"/>
   </g>
   <g id="line2d_28">
    <path clip-path="url(#p0247bdd11f)" d="M 288.70073 316.681742 
L 288.70073 205.938822 
L 354.760787 205.938822 
L 354.760787 316.681742 
L 288.70073 316.681742 
" style="fill:none;stroke:#d3d3d3;stroke-linecap:square;stroke-width:0.5;"/>
   </g>
   <g id="line2d_29">
    <path clip-path="url(#p0247bdd11f)" d="M 189.178078 141.173623 
L 193.74595 151.016663 
L 193.637958 157.437976 
L 192.764171 162.767671 
L 191.589688 167.679637 
L 190.244852 172.379611 
L 188.787344 176.953178 
L 187.24908 181.443427 
L 185.650149 185.874936 
L 184.004295 190.262995 
L 182.321494 194.617748 
L 180.60932 198.94627 
L 178.873724 203.253692 
L 177.119523 207.543863 
L 175.350711 211.81975 
L 173.570673 216.0837 
L 171.782332 220.33761 
L 169.988258 224.583045 
L 168.190747 228.82132 
L 166.391885 233.053562 
L 164.593594 237.280752 
L 162.797674 241.503757 
L 161.005828 245.723356 
L 159.2197 249.940258 
L 157.440889 254.155119 
L 155.670978 258.368551 
L 153.91155 262.581132 
L 152.164212 266.793412 
L 150.43061 271.005921 
L 148.712456 275.219171 
L 147.011546 279.433656 
L 145.329783 283.649859 
L 143.669213 287.868246 
" style="fill:none;stroke:#000000;stroke-linecap:square;stroke-width:3;"/>
   </g>
   <g id="line2d_30">
    <path clip-path="url(#p0247bdd11f)" d="M 143.669213 287.868246 
L 143.669213 141.173623 
L 193.74595 141.173623 
L 193.74595 287.868246 
L 143.669213 287.868246 
" style="fill:none;stroke:#d3d3d3;stroke-linecap:square;stroke-width:0.5;"/>
   </g>
   <g id="line2d_31">
    <path clip-path="url(#p0247bdd11f)" d="M 143.669213 287.868246 
L 142.032047 292.089266 
L 140.420707 296.313344 
L 138.837864 300.540877 
L 137.286496 304.772219 
L 135.769953 309.007662 
L 134.292041 313.247412 
L 132.857123 317.491547 
L 131.47025 321.739964 
L 130.137334 325.992291 
L 128.865366 330.247765 
L 127.662712 334.505037 
L 126.539498 338.761885 
L 125.508145 343.014749 
L 124.584083 347.25799 
L 123.786742 351.48266 
L 123.140872 355.674404 
L 122.678256 359.809777 
L 122.439574 363.849565 
L 122.475231 367.726504 
L 122.840529 371.323381 
L 123.570791 374.441728 
L 124.611948 376.805189 
L 125.79255 378.276317 
L 127.212261 379.179241 
L 129.364773 379.775904 
L 132.324697 379.943486 
L 135.810505 379.62274 
L 139.576904 378.874508 
L 143.481738 377.784389 
L 147.449533 376.425442 
L 151.440388 374.853335 
L 151.440388 374.853335 
" style="fill:none;stroke:#000000;stroke-linecap:square;stroke-width:3;"/>
   </g>
   <g id="line2d_32">
    <path clip-path="url(#p0247bdd11f)" d="M 122.439574 379.943486 
L 122.439574 287.868246 
L 151.440388 287.868246 
L 151.440388 379.943486 
L 122.439574 379.943486 
" style="fill:none;stroke:#d3d3d3;stroke-linecap:square;stroke-width:0.5;"/>
   </g>
   <g id="line2d_33">
    <path clip-path="url(#p0247bdd11f)" d="M 151.440388 374.853335 
" style="fill:none;stroke:#000000;stroke-linecap:square;stroke-width:3;"/>
   </g>
   <g id="line2d_34">
    <path clip-path="url(#p0247bdd11f)" d="M 151.440388 374.853335 
L 151.440388 374.853335 
L 151.440388 374.853335 
L 151.440388 374.853335 
L 151.440388 374.853335 
" style="fill:none;stroke:#d3d3d3;stroke-linecap:square;stroke-width:0.5;"/>
   </g>
   <g id="line2d_35">
    <path clip-path="url(#p0247bdd11f)" d="M 293.317518 465.508011 
L 297.639998 460.48939 
L 302.016139 456.52027 
L 307.035159 453.107496 
L 312.581659 450.445468 
L 318.438012 448.649074 
L 324.366575 447.705076 
L 330.192731 447.500431 
L 335.827851 447.887124 
L 341.246815 448.728384 
L 346.458121 449.914967 
L 351.483688 451.364604 
L 356.348548 453.016256 
L 361.076501 454.824303 
L 365.688677 456.754024 
L 370.203335 458.778378 
L 374.636123 460.875779 
L 379.000465 463.028549 
L 383.307949 465.221853 
L 387.568656 467.442936 
L 391.791438 469.680579 
L 395.984139 471.924704 
L 400.153764 474.16608 
L 404.306625 476.396107 
L 408.448435 478.606656 
L 412.584392 480.789956 
L 416.719236 482.938506 
L 420.857291 485.045033 
L 425.002489 487.102462 
L 429.158392 489.103913 
L 433.328196 491.042726 
L 437.514732 492.912497 
L 441.720468 494.707129 
L 445.947503 496.420904 
L 450.197561 498.048555 
L 454.471992 499.585346 
L 458.771773 501.02715 
L 463.097509 502.370515 
L 467.449452 503.612725 
L 471.827508 504.75183 
L 476.231269 505.786672 
L 480.660026 506.71687 
L 485.112803 507.542798 
L 489.588369 508.265533 
L 489.588369 508.265533 
" style="fill:none;stroke:#000000;stroke-linecap:square;stroke-width:3;"/>
   </g>
   <g id="line2d_36">
    <path clip-path="url(#p0247bdd11f)" d="M 293.317518 508.265533 
L 293.317518 447.500431 
L 489.588369 447.500431 
L 489.588369 508.265533 
L 293.317518 508.265533 
" style="fill:none;stroke:#d3d3d3;stroke-linecap:square;stroke-width:0.5;"/>
   </g>
   <g id="line2d_37">
    <path clip-path="url(#p0247bdd11f)" d="M 189.178078 141.173623 
L 189.178078 141.173623 
L 188.249318 139.172291 
" style="fill:none;stroke:#000000;stroke-linecap:square;stroke-width:3;"/>
   </g>
   <g id="line2d_38">
    <path clip-path="url(#p0247bdd11f)" d="M 188.249318 141.173623 
L 188.249318 139.172291 
L 189.178078 139.172291 
L 189.178078 141.173623 
L 188.249318 141.173623 
" style="fill:none;stroke:#d3d3d3;stroke-linecap:square;stroke-width:0.5;"/>
   </g>
   <g id="line2d_39">
    <path clip-path="url(#p0247bdd11f)" d="M 189.178078 141.173623 
L 188.511198 140.258943 
L 189.178078 141.173623 
L 189.178078 141.173623 
" style="fill:none;stroke:#000000;stroke-linecap:square;stroke-width:3;"/>
   </g>
   <g id="line2d_40">
    <path clip-path="url(#p0247bdd11f)" d="M 188.511198 141.173623 
L 188.511198 140.258943 
L 189.178078 140.258943 
L 189.178078 141.173623 
L 188.511198 141.173623 
" style="fill:none;stroke:#d3d3d3;stroke-linecap:square;stroke-width:0.5;"/>
   </g>
   <g id="line2d_41">
    <path clip-path="url(#p0247bdd11f)" d="M 279.955175 208.934458 
L 279.955175 208.934458 
L 278.366002 204.59362 
L 276.736959 200.27195 
L 275.06578 195.971342 
L 273.350017 191.693945 
L 271.587018 187.442212 
L 269.77391 183.218954 
L 267.907575 179.0274 
L 265.984633 174.871279 
L 264.001417 170.754914 
L 261.953954 166.683339 
L 259.837949 162.66244 
L 257.648771 158.699135 
L 255.381453 154.801592 
L 253.030714 150.979498 
L 250.591008 147.244393 
L 248.056625 143.610086 
L 245.421871 140.093154 
L 242.681377 136.713546 
L 239.830583 133.495273 
L 236.866501 130.467147 
L 233.788835 127.663454 
L 230.601535 125.124303 
L 227.314695 122.89518 
L 223.946327 121.025019 
L 220.522825 119.562119 
L 217.076411 118.548178 
L 213.63898 118.012849 
L 210.23618 117.972477 
L 206.889084 118.433146 
L 203.624815 119.392094 
L 200.486283 120.833729 
L 197.53259 122.724744 
L 194.833524 125.013165 
L 192.466059 127.629084 
L 190.51608 130.480409 
L 189.082347 133.435701 
L 188.269944 136.284737 
L 188.131931 138.685205 
L 188.249318 139.172291 
" style="fill:none;stroke:#000000;stroke-linecap:square;stroke-width:3;"/>
   </g>
   <g id="line2d_42">
    <path clip-path="url(#p0247bdd11f)" d="M 188.131931 208.934458 
L 188.131931 117.972477 
L 279.955175 117.972477 
L 279.955175 208.934458 
L 188.131931 208.934458 
" style="fill:none;stroke:#d3d3d3;stroke-linecap:square;stroke-width:0.5;"/>
   </g>
   <g id="line2d_43">
    <path clip-path="url(#p0247bdd11f)" d="M 489.588369 508.265533 
L 489.588369 508.265533 
L 493.518355 508.713734 
L 496.790343 508.742318 
L 497.895813 508.598311 
L 495.999126 511.001043 
L 495.800089 510.709595 
L 494.792896 507.880788 
L 493.093203 504.48067 
L 491.008839 500.936507 
L 488.691305 497.357418 
L 486.219558 493.776589 
L 483.639003 490.204513 
L 480.977973 486.643891 
L 478.255319 483.094566 
L 475.484235 479.555345 
L 472.674341 476.024725 
L 469.832885 472.501181 
L 466.965486 468.98328 
L 464.076601 465.469722 
L 461.169835 461.959343 
L 458.248157 458.45111 
L 455.314051 454.944103 
L 452.369621 451.437507 
L 449.416673 447.930594 
L 446.456773 444.422712 
L 443.491294 440.913275 
L 440.52145 437.401754 
L 437.548323 433.887668 
L 434.572889 430.370574 
" style="fill:none;stroke:#000000;stroke-linecap:square;stroke-width:3;"/>
   </g>
   <g id="line2d_44">
    <path clip-path="url(#p0247bdd11f)" d="M 434.572889 511.001043 
L 434.572889 430.370574 
L 497.895813 430.370574 
L 497.895813 511.001043 
L 434.572889 511.001043 
" style="fill:none;stroke:#d3d3d3;stroke-linecap:square;stroke-width:0.5;"/>
   </g>
   <g id="line2d_45">
    <path clip-path="url(#p0247bdd11f)" d="M 434.572889 430.370574 
L 431.596032 426.850069 
L 428.618557 423.325777 
L 425.641208 419.797348 
L 422.664671 416.264455 
L 419.689586 412.726789 
L 416.716554 409.184056 
L 413.746142 405.635976 
L 410.778888 402.082277 
L 407.815305 398.522699 
L 404.855888 394.956986 
L 401.901112 391.384889 
L 398.951441 387.806161 
L 396.007328 384.220558 
L 393.069214 380.627835 
L 390.137539 377.027748 
L 387.212737 373.420051 
L 384.295239 369.804494 
L 381.385478 366.180823 
L 378.483891 362.54878 
L 375.590916 358.908099 
L 372.707 355.258507 
L 369.832598 351.599721 
L 366.968174 347.931448 
L 364.114207 344.253386 
L 361.27119 340.565216 
L 358.43963 336.866608 
L 355.620059 333.157215 
L 352.813029 329.43667 
L 350.019116 325.70459 
" style="fill:none;stroke:#000000;stroke-linecap:square;stroke-width:3;"/>
   </g>
   <g id="line2d_46">
    <path clip-path="url(#p0247bdd11f)" d="M 350.019116 430.370574 
L 350.019116 325.70459 
L 434.572889 325.70459 
L 434.572889 430.370574 
L 350.019116 430.370574 
" style="fill:none;stroke:#d3d3d3;stroke-linecap:square;stroke-width:0.5;"/>
   </g>
   <g id="line2d_47">
    <path clip-path="url(#p0247bdd11f)" d="M 350.019116 325.70459 
L 347.238926 321.960568 
L 344.473098 318.204174 
L 341.722307 314.43495 
L 338.987266 310.652412 
L 336.268738 306.856039 
L 333.567532 303.045278 
L 330.884518 299.219534 
L 328.22063 295.378167 
L 325.576874 291.520489 
L 322.954338 287.645755 
L 320.354205 283.753158 
L 317.777763 279.84182 
L 315.226421 275.910784 
L 312.701728 271.958999 
L 310.205391 267.985315 
L 307.739303 263.988459 
L 305.305573 259.967022 
L 302.906561 255.919437 
L 300.544923 251.843947 
L 298.223668 247.73858 
L 295.946226 243.601101 
L 293.716535 239.428964 
L 291.539153 235.21925 
L 289.419403 230.968583 
L 287.363558 226.673026 
L 285.379101 222.327943 
L 283.475061 217.927819 
L 281.662497 213.466018 
L 279.955175 208.934458 
" style="fill:none;stroke:#000000;stroke-linecap:square;stroke-width:3;"/>
   </g>
   <g id="line2d_48">
    <path clip-path="url(#p0247bdd11f)" d="M 279.955175 325.70459 
L 279.955175 208.934458 
L 350.019116 208.934458 
L 350.019116 325.70459 
L 279.955175 325.70459 
" style="fill:none;stroke:#d3d3d3;stroke-linecap:square;stroke-width:0.5;"/>
   </g>
   <g id="line2d_49">
    <path clip-path="url(#p0247bdd11f)" d="M 279.955175 208.934458 
L 279.955175 208.934458 
" style="fill:none;stroke:#000000;stroke-linecap:square;stroke-width:3;"/>
   </g>
   <g id="line2d_50">
    <path clip-path="url(#p0247bdd11f)" d="M 279.955175 208.934458 
L 279.955175 208.934458 
L 279.955175 208.934458 
L 279.955175 208.934458 
L 279.955175 208.934458 
" style="fill:none;stroke:#d3d3d3;stroke-linecap:square;stroke-width:0.5;"/>
   </g>
   <g id="line2d_51">
    <path clip-path="url(#p0247bdd11f)" d="M 151.440388 374.853335 
L 151.440388 374.853335 
L 155.927203 373.028275 
L 160.464834 371.277153 
L 165.058573 369.609722 
L 169.714288 368.03764 
L 174.438411 366.574946 
L 179.237852 365.238644 
L 184.119791 364.049444 
L 189.091225 363.032651 
L 194.158109 362.219173 
L 199.323863 361.646527 
L 204.586894 361.359504 
L 209.936887 361.409867 
L 215.349906 361.853968 
L 220.783342 362.746973 
L 226.173286 364.133047 
L 231.438033 366.033197 
L 236.48985 368.435806 
L 241.252056 371.295849 
L 245.673576 374.544475 
L 249.734287 378.10403 
L 253.440847 381.901254 
L 256.817684 385.874633 
L 259.898071 389.976219 
L 262.717672 394.170225 
L 265.310816 398.430489 
L 267.708769 402.73795 
L 269.939218 407.078592 
L 272.026402 411.441896 
L 273.991507 415.819727 
L 275.853182 420.205518 
L 277.628047 424.59368 
L 279.331204 428.979116 
L 280.976723 433.356793 
L 282.578137 437.721277 
L 284.14898 442.066132 
L 285.70341 446.382988 
L 287.256981 450.659907 
L 288.827616 454.878157 
L 290.436617 459.005095 
L 292.108338 462.976286 
L 293.317518 465.508011 
" style="fill:none;stroke:#000000;stroke-linecap:square;stroke-width:3;"/>
   </g>
   <g id="line2d_52">
    <path clip-path="url(#p0247bdd11f)" d="M 151.440388 465.508011 
L 151.440388 361.359504 
L 293.317518 361.359504 
L 293.317518 465.508011 
L 151.440388 465.508011 
" style="fill:none;stroke:#d3d3d3;stroke-linecap:square;stroke-width:0.5;"/>
   </g>
   <g id="line2d_53">
    <path clip-path="url(#p0247bdd11f)" d="M 175.298335 152.719459 
L 175.20524 155.490538 
L 175.597154 153.128188 
" style="fill:none;stroke:#000000;stroke-linecap:square;stroke-width:3;"/>
   </g>
   <g id="line2d_54">
    <path clip-path="url(#p0247bdd11f)" d="M 175.20524 155.490538 
L 175.20524 152.719459 
L 175.597154 152.719459 
L 175.597154 155.490538 
L 175.20524 155.490538 
" style="fill:none;stroke:#d3d3d3;stroke-linecap:square;stroke-width:0.5;"/>
   </g>
   <g id="line2d_55">
    <path clip-path="url(#p0247bdd11f)" d="M 175.597154 153.128188 
L 176.478261 154.333382 
L 176.478261 154.333382 
" style="fill:none;stroke:#000000;stroke-linecap:square;stroke-width:3;"/>
   </g>
   <g id="line2d_56">
    <path clip-path="url(#p0247bdd11f)" d="M 175.597154 154.333382 
L 175.597154 153.128188 
L 176.478261 153.128188 
L 176.478261 154.333382 
L 175.597154 154.333382 
" style="fill:none;stroke:#d3d3d3;stroke-linecap:square;stroke-width:0.5;"/>
   </g>
   <g id="line2d_57">
    <path clip-path="url(#p0247bdd11f)" d="M 158.730091 391.461019 
L 158.730091 391.461019 
L 162.919359 389.756938 
L 167.122896 388.134682 
L 171.339742 386.603971 
L 175.568225 385.176045 
L 179.805696 383.863888 
L 184.048187 382.682472 
L 188.289972 381.648966 
L 192.523037 380.78287 
L 196.736496 380.10599 
L 200.916047 379.642129 
L 205.043685 379.416347 
L 209.098029 379.453696 
L 213.055694 379.777481 
L 216.893932 380.407403 
L 220.594048 381.358191 
L 224.144029 382.639088 
L 227.538633 384.253688 
L 230.776815 386.199116 
L 233.858689 388.464526 
L 236.784294 391.030329 
L 239.554386 393.869466 
L 242.171772 396.950422 
L 244.64201 400.240622 
L 246.97325 403.709085 
L 249.175566 407.327969 
L 251.260194 411.073174 
L 253.238887 414.924336 
L 255.123491 418.864508 
L 256.925699 422.87973 
L 258.656987 426.958588 
L 260.328671 431.091834 
L 261.952083 435.272084 
L 263.538864 439.493614 
L 265.101416 443.752266 
L 266.65358 448.045503 
L 268.211734 452.372691 
L 269.796639 456.735754 
L 271.436879 461.140595 
L 273.175968 465.600262 
L 275.089382 470.142823 
L 277.335433 474.835019 
L 280.374086 479.874494 
L 286.756353 485.845479 
L 301.252344 484.786875 
L 306.585487 478.774773 
" style="fill:none;stroke:#000000;stroke-linecap:square;stroke-width:3;"/>
   </g>
   <g id="line2d_58">
    <path clip-path="url(#p0247bdd11f)" d="M 158.730091 485.845479 
L 158.730091 379.416347 
L 306.585487 379.416347 
L 306.585487 485.845479 
L 158.730091 485.845479 
" style="fill:none;stroke:#d3d3d3;stroke-linecap:square;stroke-width:0.5;"/>
   </g>
   <g id="line2d_59">
    <path clip-path="url(#p0247bdd11f)" d="M 176.478261 154.333382 
L 176.478261 154.333382 
L 175.295657 152.799164 
L 175.298335 152.719459 
" style="fill:none;stroke:#000000;stroke-linecap:square;stroke-width:3;"/>
   </g>
   <g id="line2d_60">
    <path clip-path="url(#p0247bdd11f)" d="M 175.295657 154.333382 
L 175.295657 152.719459 
L 176.478261 152.719459 
L 176.478261 154.333382 
L 175.295657 154.333382 
" style="fill:none;stroke:#d3d3d3;stroke-linecap:square;stroke-width:0.5;"/>
   </g>
   <g id="line2d_61">
    <path clip-path="url(#p0247bdd11f)" d="M 297.446285 202.943187 
L 297.446285 202.943187 
L 295.800686 198.448242 
L 294.110008 193.963092 
L 292.371304 189.488743 
L 290.58132 185.026349 
L 288.736459 180.577233 
L 286.832723 176.142923 
L 284.865657 171.725194 
L 282.830271 167.326111 
L 280.720959 162.948098 
L 278.531383 158.59401 
L 276.254351 154.267235 
L 273.881654 149.971825 
L 271.403869 145.712656 
L 268.81012 141.495658 
L 266.087776 137.32811 
L 263.222088 133.219048 
L 260.195737 129.179836 
L 256.988315 125.224971 
L 253.575739 121.37324 
L 249.92969 117.6494 
L 246.017309 114.086621 
L 241.801613 110.729973 
L 237.243688 107.641154 
L 232.30845 104.904071 
L 226.976485 102.629316 
L 221.263441 100.952453 
L 215.242711 100.018219 
L 209.056592 99.946744 
L 202.897652 100.794333 
L 196.961896 102.536387 
L 191.403648 105.087105 
L 186.320033 108.339637 
L 181.764624 112.200945 
L 177.773946 116.611519 
L 174.397017 121.555126 
L 171.732407 127.066774 
L 169.994729 133.238499 
L 169.654309 140.175012 
L 171.596499 147.656027 
L 175.298335 152.719459 
" style="fill:none;stroke:#000000;stroke-linecap:square;stroke-width:3;"/>
   </g>
   <g id="line2d_62">
    <path clip-path="url(#p0247bdd11f)" d="M 169.654309 202.943187 
L 169.654309 99.946744 
L 297.446285 99.946744 
L 297.446285 202.943187 
L 169.654309 202.943187 
" style="fill:none;stroke:#d3d3d3;stroke-linecap:square;stroke-width:0.5;"/>
   </g>
   <g id="line2d_63">
    <path clip-path="url(#p0247bdd11f)" d="M 306.585487 478.774773 
L 308.750438 475.647149 
L 311.127996 472.882537 
L 313.708609 470.538076 
L 316.485338 468.647495 
L 319.467975 467.215746 
L 322.680469 466.232194 
L 326.134469 465.685103 
L 329.809022 465.558888 
L 333.657771 465.825303 
L 337.628531 466.443423 
L 341.67675 467.366351 
L 345.769713 468.547778 
L 349.885591 469.945693 
L 354.010925 471.523663 
L 358.138176 473.250751 
L 362.26384 475.100863 
L 366.387107 477.051937 
L 370.508947 479.085176 
L 374.63151 481.184382 
L 378.757721 483.335392 
L 382.891007 485.525636 
L 387.03512 487.743767 
L 391.194002 489.979369 
L 395.371692 492.222724 
L 399.572246 494.464614 
L 403.799668 496.696177 
L 408.057839 498.908786 
L 412.350444 501.093959 
L 416.680896 503.243301 
L 421.052246 505.348472 
L 425.467097 507.401183 
L 429.927508 509.393227 
L 434.434901 511.316535 
L 438.989979 513.163266 
L 443.592664 514.925921 
L 448.242055 516.597484 
L 452.936426 518.17157 
L 457.673263 519.642578 
L 462.449341 521.005833 
L 467.260838 522.257704 
L 472.103485 523.395677 
L 476.97272 524.418397 
L 481.863853 525.325646 
L 486.772202 526.118288 
L 486.772202 526.118288 
" style="fill:none;stroke:#000000;stroke-linecap:square;stroke-width:3;"/>
   </g>
   <g id="line2d_64">
    <path clip-path="url(#p0247bdd11f)" d="M 306.585487 526.118288 
L 306.585487 465.558888 
L 486.772202 465.558888 
L 486.772202 526.118288 
L 306.585487 526.118288 
" style="fill:none;stroke:#d3d3d3;stroke-linecap:square;stroke-width:0.5;"/>
   </g>
   <g id="line2d_65">
    <path clip-path="url(#p0247bdd11f)" d="M 486.772202 526.118288 
L 486.772202 526.118288 
L 492.184837 526.729281 
L 498.298228 526.74481 
L 506.244467 524.725883 
L 513.957244 515.493667 
L 513.865792 506.646901 
L 511.839648 500.777224 
L 509.43529 495.948972 
L 506.870655 491.584047 
L 504.210235 487.474082 
L 501.483568 483.523409 
L 498.707573 479.680545 
L 495.893236 475.914657 
L 493.048276 472.205818 
L 490.178417 468.540399 
L 487.288073 464.908668 
L 484.38075 461.303428 
L 481.459303 457.719207 
L 478.526102 454.151744 
L 475.583147 450.597657 
L 472.632151 447.054215 
L 469.674599 443.519183 
L 466.711794 439.990701 
L 463.744888 436.46721 
L 460.774913 432.947387 
L 457.802797 429.430097 
L 454.829385 425.914358 
L 451.85545 422.399315 
L 448.881704 418.884216 
" style="fill:none;stroke:#000000;stroke-linecap:square;stroke-width:3;"/>
   </g>
   <g id="line2d_66">
    <path clip-path="url(#p0247bdd11f)" d="M 448.881704 526.74481 
L 448.881704 418.884216 
L 513.957244 418.884216 
L 513.957244 526.74481 
L 448.881704 526.74481 
" style="fill:none;stroke:#d3d3d3;stroke-linecap:square;stroke-width:0.5;"/>
   </g>
   <g id="line2d_67">
    <path clip-path="url(#p0247bdd11f)" d="M 448.881704 418.884216 
L 445.908809 415.368397 
L 442.937381 411.851262 
L 439.968001 408.332278 
L 437.001218 404.810963 
L 434.037553 401.286877 
L 431.077506 397.759617 
L 428.121556 394.228812 
L 425.170166 390.694114 
L 422.223789 387.155201 
L 419.282863 383.611769 
L 416.347821 380.063529 
L 413.41909 376.510206 
L 410.497092 372.951538 
L 407.582247 369.387268 
L 404.674977 365.81715 
L 401.775703 362.240944 
L 398.884853 358.658411 
L 396.002857 355.069318 
L 393.130156 351.473433 
L 390.267196 347.870526 
L 387.414438 344.260364 
L 384.572353 340.642715 
L 381.741428 337.017343 
L 378.922169 333.384012 
L 376.115099 329.742477 
L 373.320765 326.092494 
L 370.539738 322.433809 
L 367.772617 318.766163 
L 365.020032 315.089291 
" style="fill:none;stroke:#000000;stroke-linecap:square;stroke-width:3;"/>
   </g>
   <g id="line2d_68">
    <path clip-path="url(#p0247bdd11f)" d="M 365.020032 418.884216 
L 365.020032 315.089291 
L 448.881704 315.089291 
L 448.881704 418.884216 
L 365.020032 418.884216 
" style="fill:none;stroke:#d3d3d3;stroke-linecap:square;stroke-width:0.5;"/>
   </g>
   <g id="line2d_69">
    <path clip-path="url(#p0247bdd11f)" d="M 365.020032 315.089291 
L 362.282648 311.402916 
L 359.561171 307.706758 
L 356.856347 304.000523 
L 354.168972 300.283907 
L 351.499895 296.556597 
L 348.850029 292.818266 
L 346.22035 289.068575 
L 343.611913 285.307174 
L 341.025859 281.533696 
L 338.463422 277.747762 
L 335.92595 273.948979 
L 333.414912 270.136938 
L 330.931918 266.311217 
L 328.478742 262.471384 
L 326.057341 258.616993 
L 323.669886 254.747591 
L 321.318796 250.862722 
L 319.00678 246.961933 
L 316.736882 243.044782 
L 314.512546 239.110854 
L 312.337689 235.159776 
L 310.21679 231.191251 
L 308.155008 227.20509 
L 306.158323 223.201276 
L 304.233721 219.18004 
L 302.389429 215.141993 
L 300.635216 211.088296 
L 298.982784 207.020946 
L 297.446285 202.943187 
" style="fill:none;stroke:#000000;stroke-linecap:square;stroke-width:3;"/>
   </g>
   <g id="line2d_70">
    <path clip-path="url(#p0247bdd11f)" d="M 297.446285 315.089291 
L 297.446285 202.943187 
L 365.020032 202.943187 
L 365.020032 315.089291 
L 297.446285 315.089291 
" style="fill:none;stroke:#d3d3d3;stroke-linecap:square;stroke-width:0.5;"/>
   </g>
   <g id="line2d_71">
    <path clip-path="url(#p0247bdd11f)" d="M 297.446285 202.943187 
L 297.446285 202.943187 
" style="fill:none;stroke:#000000;stroke-linecap:square;stroke-width:3;"/>
   </g>
   <g id="line2d_72">
    <path clip-path="url(#p0247bdd11f)" d="M 297.446285 202.943187 
L 297.446285 202.943187 
L 297.446285 202.943187 
L 297.446285 202.943187 
L 297.446285 202.943187 
" style="fill:none;stroke:#d3d3d3;stroke-linecap:square;stroke-width:0.5;"/>
   </g>
   <g id="line2d_73">
    <path clip-path="url(#p0247bdd11f)" d="M 175.597154 153.128188 
L 174.594577 159.171452 
L 173.6414 163.149883 
L 172.468553 167.2464 
L 171.145292 171.397781 
L 169.713363 175.577213 
L 168.199802 179.771898 
L 166.623189 183.975232 
L 164.996913 188.183639 
L 163.331013 192.395133 
L 161.633255 196.608619 
L 159.909823 200.823522 
L 158.165753 205.039588 
L 156.405237 209.256768 
L 154.63183 213.475148 
L 152.848602 217.694911 
L 151.058247 221.916312 
L 149.263166 226.139659 
L 147.46553 230.365309 
L 145.667336 234.593659 
L 143.870442 238.825148 
L 142.076605 243.060253 
L 140.287507 247.299491 
L 138.504784 251.543425 
L 136.730048 255.792662 
L 134.964907 260.047862 
L 133.21099 264.309743 
L 131.469963 268.579087 
L 129.743557 272.856751 
L 128.033589 277.143673 
L 126.34199 281.440891 
L 124.670837 285.749553 
" style="fill:none;stroke:#000000;stroke-linecap:square;stroke-width:3;"/>
   </g>
   <g id="line2d_74">
    <path clip-path="url(#p0247bdd11f)" d="M 124.670837 285.749553 
L 124.670837 153.128188 
L 175.597154 153.128188 
L 175.597154 285.749553 
L 124.670837 285.749553 
" style="fill:none;stroke:#d3d3d3;stroke-linecap:square;stroke-width:0.5;"/>
   </g>
   <g id="line2d_75">
    <path clip-path="url(#p0247bdd11f)" d="M 124.670837 285.749553 
L 123.022384 290.070935 
L 121.39911 294.406469 
L 119.803771 298.757767 
L 118.239457 303.126656 
L 116.709683 307.515223 
L 115.218484 311.925874 
L 113.770552 316.361404 
L 112.371412 320.825097 
L 111.027664 325.320853 
L 109.747311 329.853369 
L 108.540225 334.428383 
L 107.418829 339.053024 
L 106.399109 343.736327 
L 105.502202 348.489999 
L 104.75697 353.329584 
L 104.204402 358.276267 
L 103.905598 363.359614 
L 103.957194 368.621221 
L 104.522774 374.116617 
L 105.896211 379.898115 
L 108.592755 385.899516 
L 113.225924 391.556869 
L 119.602118 395.649938 
L 126.414654 397.608116 
L 132.793584 398.000035 
L 138.633324 397.474498 
L 144.04924 396.403479 
L 149.154705 394.980454 
L 154.03015 393.311807 
L 158.730091 391.461019 
L 158.730091 391.461019 
" style="fill:none;stroke:#000000;stroke-linecap:square;stroke-width:3;"/>
   </g>
   <g id="line2d_76">
    <path clip-path="url(#p0247bdd11f)" d="M 103.905598 398.000035 
L 103.905598 285.749553 
L 158.730091 285.749553 
L 158.730091 398.000035 
L 103.905598 398.000035 
" style="fill:none;stroke:#d3d3d3;stroke-linecap:square;stroke-width:0.5;"/>
   </g>
   <g id="line2d_77">
    <path clip-path="url(#p0247bdd11f)" d="M 158.730091 391.461019 
" style="fill:none;stroke:#000000;stroke-linecap:square;stroke-width:3;"/>
   </g>
   <g id="line2d_78">
    <path clip-path="url(#p0247bdd11f)" d="M 158.730091 391.461019 
L 158.730091 391.461019 
L 158.730091 391.461019 
L 158.730091 391.461019 
L 158.730091 391.461019 
" style="fill:none;stroke:#d3d3d3;stroke-linecap:square;stroke-width:0.5;"/>
   </g>
   <g id="line2d_79">
    <path clip-path="url(#p0247bdd11f)" d="M 306.585487 478.774773 
L 306.585487 478.774773 
L 306.585487 478.774773 
" style="fill:none;stroke:#000000;stroke-linecap:square;stroke-width:3;"/>
   </g>
   <g id="line2d_80">
    <path clip-path="url(#p0247bdd11f)" d="M 306.585487 478.774773 
L 306.585487 478.774773 
L 306.585487 478.774773 
L 306.585487 478.774773 
L 306.585487 478.774773 
" style="fill:none;stroke:#d3d3d3;stroke-linecap:square;stroke-width:0.5;"/>
   </g>
   <g id="line2d_81">
    <path clip-path="url(#p0247bdd11f)" d="M 306.585487 478.774773 
L 306.585487 478.774773 
L 306.585487 478.774773 
" style="fill:none;stroke:#000000;stroke-linecap:square;stroke-width:3;"/>
   </g>
   <g id="line2d_82">
    <path clip-path="url(#p0247bdd11f)" d="M 306.585487 478.774773 
L 306.585487 478.774773 
L 306.585487 478.774773 
L 306.585487 478.774773 
L 306.585487 478.774773 
" style="fill:none;stroke:#d3d3d3;stroke-linecap:square;stroke-width:0.5;"/>
   </g>
   <g id="line2d_83">
    <path clip-path="url(#p0247bdd11f)" d="M 182.82817 134.206758 
L 184.606378 134.317977 
L 186.355389 134.649806 
L 188.046482 135.196798 
L 189.651891 135.949971 
L 191.145255 136.896957 
L 192.502052 138.022208 
L 193.700004 139.307246 
L 194.719442 140.730971 
L 195.543624 142.270006 
L 196.15902 143.89908 
L 196.555523 145.591443 
L 196.726624 147.319308 
L 196.669512 149.054302 
L 196.385126 150.767937 
L 195.878135 152.432074 
L 195.156864 154.01939 
L 194.233156 155.50382 
L 193.122178 156.860991 
L 191.842173 158.068616 
L 190.414159 159.106868 
L 188.861583 159.958697 
L 187.209938 160.610118 
L 185.486345 161.050433 
L 183.719105 161.272413 
L 181.937235 161.272413 
L 180.169995 161.050433 
L 178.446401 160.610118 
L 176.794757 159.958697 
L 175.242181 159.106868 
L 173.814166 158.068616 
L 172.534161 156.860991 
L 171.423184 155.50382 
L 170.499476 154.01939 
L 169.778205 152.432074 
L 169.271214 150.767937 
L 168.986828 149.054302 
L 168.929716 147.319308 
L 169.100816 145.591443 
L 169.49732 143.89908 
L 170.112715 142.270006 
L 170.936898 140.730971 
L 171.956335 139.307246 
L 173.154288 138.022208 
L 174.511085 136.896957 
L 176.004449 135.949971 
L 177.609858 135.196798 
L 179.300951 134.649806 
L 181.049961 134.317977 
L 182.82817 134.206758 
" style="fill:none;stroke:#808080;stroke-linecap:square;stroke-width:1.5;"/>
   </g>
   <g id="line2d_84">
    <path clip-path="url(#p0247bdd11f)" d="M 135.005602 271.107825 
L 136.78381 271.219043 
L 138.53282 271.550873 
L 140.223914 272.097865 
L 141.829323 272.851037 
L 143.322686 273.798024 
L 144.679484 274.923274 
L 145.877436 276.208312 
L 146.896873 277.632037 
L 147.721056 279.171073 
L 148.336452 280.800146 
L 148.732955 282.49251 
L 148.904055 284.220374 
L 148.846944 285.955368 
L 148.562557 287.669003 
L 148.055566 289.333141 
L 147.334295 290.920457 
L 146.410587 292.404887 
L 145.29961 293.762057 
L 144.019605 294.969682 
L 142.591591 296.007934 
L 141.039015 296.859764 
L 139.38737 297.511184 
L 137.663777 297.9515 
L 135.896536 298.17348 
L 134.114667 298.17348 
L 132.347427 297.9515 
L 130.623833 297.511184 
L 128.972189 296.859764 
L 127.419612 296.007934 
L 125.991598 294.969682 
L 124.711593 293.762057 
L 123.600616 292.404887 
L 122.676908 290.920457 
L 121.955637 289.333141 
L 121.448646 287.669003 
L 121.16426 285.955368 
L 121.107148 284.220374 
L 121.278248 282.49251 
L 121.674752 280.800146 
L 122.290147 279.171073 
L 123.11433 277.632037 
L 124.133767 276.208312 
L 125.33172 274.923274 
L 126.688517 273.798024 
L 128.18188 272.851037 
L 129.787289 272.097865 
L 131.478383 271.550873 
L 133.227393 271.219043 
L 135.005602 271.107825 
" style="fill:none;stroke:#808080;stroke-linecap:square;stroke-width:1.5;"/>
   </g>
   <g id="line2d_85">
    <path clip-path="url(#p0247bdd11f)" d="M 155.085239 369.610433 
L 156.863448 369.721651 
L 158.612458 370.053481 
L 160.303552 370.600473 
L 161.908961 371.353645 
L 163.402324 372.300632 
L 164.759122 373.425882 
L 165.957074 374.71092 
L 166.976511 376.134645 
L 167.800694 377.673681 
L 168.416089 379.302755 
L 168.812593 380.995118 
L 168.983693 382.722982 
L 168.926582 384.457976 
L 168.642195 386.171611 
L 168.135204 387.835749 
L 167.413933 389.423065 
L 166.490225 390.907495 
L 165.379248 392.264665 
L 164.099243 393.472291 
L 162.671229 394.510542 
L 161.118652 395.362372 
L 159.467008 396.013792 
L 157.743415 396.454108 
L 155.976174 396.676088 
L 154.194305 396.676088 
L 152.427064 396.454108 
L 150.703471 396.013792 
L 149.051826 395.362372 
L 147.49925 394.510542 
L 146.071236 393.472291 
L 144.791231 392.264665 
L 143.680254 390.907495 
L 142.756546 389.423065 
L 142.035275 387.835749 
L 141.528284 386.171611 
L 141.243897 384.457976 
L 141.186786 382.722982 
L 141.357886 380.995118 
L 141.754389 379.302755 
L 142.369785 377.673681 
L 143.193968 376.134645 
L 144.213405 374.71092 
L 145.411357 373.425882 
L 146.768155 372.300632 
L 148.261518 371.353645 
L 149.866927 370.600473 
L 151.558021 370.053481 
L 153.307031 369.721651 
L 155.085239 369.610433 
" style="fill:none;stroke:#808080;stroke-linecap:square;stroke-width:1.5;"/>
   </g>
   <g id="line2d_86">
    <path clip-path="url(#p0247bdd11f)" d="M 298.67004 460.527003 
L 300.448249 460.638221 
L 302.197259 460.970051 
L 303.888352 461.517043 
L 305.493761 462.270215 
L 306.987125 463.217201 
L 308.343922 464.342452 
L 309.541875 465.62749 
L 310.561312 467.051215 
L 311.385495 468.59025 
L 312.00089 470.219324 
L 312.397394 471.911688 
L 312.568494 473.639552 
L 312.511382 475.374546 
L 312.226996 477.088181 
L 311.720005 478.752319 
L 310.998734 480.339635 
L 310.075026 481.824065 
L 308.964049 483.181235 
L 307.684044 484.38886 
L 306.256029 485.427112 
L 304.703453 486.278941 
L 303.051809 486.930362 
L 301.328215 487.370677 
L 299.560975 487.592658 
L 297.779105 487.592658 
L 296.011865 487.370677 
L 294.288272 486.930362 
L 292.636627 486.278941 
L 291.084051 485.427112 
L 289.656037 484.38886 
L 288.376032 483.181235 
L 287.265054 481.824065 
L 286.341346 480.339635 
L 285.620075 478.752319 
L 285.113084 477.088181 
L 284.828698 475.374546 
L 284.771586 473.639552 
L 284.942687 471.911688 
L 285.33919 470.219324 
L 285.954586 468.59025 
L 286.778768 467.051215 
L 287.798206 465.62749 
L 288.996158 464.342452 
L 290.352955 463.217201 
L 291.846319 462.270215 
L 293.451728 461.517043 
L 295.142821 460.970051 
L 296.891832 460.638221 
L 298.67004 460.527003 
" style="fill:none;stroke:#808080;stroke-linecap:square;stroke-width:1.5;"/>
   </g>
   <g id="line2d_87">
    <path clip-path="url(#p0247bdd11f)" d="M 488.180286 503.645166 
L 489.958494 503.756385 
L 491.707504 504.088214 
L 493.398598 504.635206 
L 495.004007 505.388379 
L 496.49737 506.335365 
L 497.854168 507.460616 
L 499.05212 508.745654 
L 500.071557 510.169379 
L 500.89574 511.708414 
L 501.511136 513.337488 
L 501.907639 515.029851 
L 502.078739 516.757716 
L 502.021628 518.49271 
L 501.737242 520.206345 
L 501.230251 521.870482 
L 500.508979 523.457798 
L 499.585272 524.942228 
L 498.474294 526.299398 
L 497.194289 527.507024 
L 495.766275 528.545275 
L 494.213699 529.397105 
L 492.562054 530.048526 
L 490.838461 530.488841 
L 489.07122 530.710821 
L 487.289351 530.710821 
L 485.522111 530.488841 
L 483.798517 530.048526 
L 482.146873 529.397105 
L 480.594297 528.545275 
L 479.166282 527.507024 
L 477.886277 526.299398 
L 476.7753 524.942228 
L 475.851592 523.457798 
L 475.130321 521.870482 
L 474.62333 520.206345 
L 474.338944 518.49271 
L 474.281832 516.757716 
L 474.452932 515.029851 
L 474.849436 513.337488 
L 475.464831 511.708414 
L 476.289014 510.169379 
L 477.308451 508.745654 
L 478.506404 507.460616 
L 479.863201 506.335365 
L 481.356565 505.388379 
L 482.961973 504.635206 
L 484.653067 504.088214 
L 486.402077 503.756385 
L 488.180286 503.645166 
" style="fill:none;stroke:#808080;stroke-linecap:square;stroke-width:1.5;"/>
   </g>
   <g id="line2d_88">
    <path clip-path="url(#p0247bdd11f)" d="M 438.75242 407.562489 
L 440.530629 407.673707 
L 442.279639 408.005537 
L 443.970732 408.552529 
L 445.576141 409.305701 
L 447.069505 410.252688 
L 448.426302 411.377938 
L 449.624255 412.662976 
L 450.643692 414.086701 
L 451.467875 415.625736 
L 452.08327 417.25481 
L 452.479774 418.947174 
L 452.650874 420.675038 
L 452.593762 422.410032 
L 452.309376 424.123667 
L 451.802385 425.787805 
L 451.081114 427.375121 
L 450.157406 428.859551 
L 449.046429 430.216721 
L 447.766424 431.424346 
L 446.338409 432.462598 
L 444.785833 433.314427 
L 443.134189 433.965848 
L 441.410595 434.406164 
L 439.643355 434.628144 
L 437.861485 434.628144 
L 436.094245 434.406164 
L 434.370652 433.965848 
L 432.719007 433.314427 
L 431.166431 432.462598 
L 429.738417 431.424346 
L 428.458412 430.216721 
L 427.347434 428.859551 
L 426.423726 427.375121 
L 425.702455 425.787805 
L 425.195464 424.123667 
L 424.911078 422.410032 
L 424.853966 420.675038 
L 425.025067 418.947174 
L 425.42157 417.25481 
L 426.036966 415.625736 
L 426.861149 414.086701 
L 427.880586 412.662976 
L 429.078538 411.377938 
L 430.435335 410.252688 
L 431.928699 409.305701 
L 433.534108 408.552529 
L 435.225201 408.005537 
L 436.974212 407.673707 
L 438.75242 407.562489 
" style="fill:none;stroke:#808080;stroke-linecap:square;stroke-width:1.5;"/>
   </g>
   <g id="line2d_89">
    <path clip-path="url(#p0247bdd11f)" d="M 354.760787 303.134998 
L 356.538996 303.246217 
L 358.288006 303.578046 
L 359.979099 304.125038 
L 361.584508 304.878211 
L 363.077872 305.825197 
L 364.434669 306.950447 
L 365.632622 308.235485 
L 366.652059 309.659211 
L 367.476242 311.198246 
L 368.091637 312.82732 
L 368.488141 314.519683 
L 368.659241 316.247548 
L 368.602129 317.982542 
L 368.317743 319.696176 
L 367.810752 321.360314 
L 367.089481 322.94763 
L 366.165773 324.43206 
L 365.054796 325.78923 
L 363.774791 326.996856 
L 362.346776 328.035107 
L 360.7942 328.886937 
L 359.142556 329.538358 
L 357.418962 329.978673 
L 355.651722 330.200653 
L 353.869853 330.200653 
L 352.102612 329.978673 
L 350.379019 329.538358 
L 348.727374 328.886937 
L 347.174798 328.035107 
L 345.746784 326.996856 
L 344.466779 325.78923 
L 343.355801 324.43206 
L 342.432094 322.94763 
L 341.710822 321.360314 
L 341.203831 319.696176 
L 340.919445 317.982542 
L 340.862333 316.247548 
L 341.033434 314.519683 
L 341.429937 312.82732 
L 342.045333 311.198246 
L 342.869516 309.659211 
L 343.888953 308.235485 
L 345.086905 306.950447 
L 346.443703 305.825197 
L 347.937066 304.878211 
L 349.542475 304.125038 
L 351.233569 303.578046 
L 352.982579 303.246217 
L 354.760787 303.134998 
" style="fill:none;stroke:#808080;stroke-linecap:square;stroke-width:1.5;"/>
   </g>
   <g id="line2d_90">
    <path clip-path="url(#p0247bdd11f)" d="M 288.70073 192.392078 
L 290.478938 192.503297 
L 292.227948 192.835126 
L 293.919042 193.382118 
L 295.524451 194.135291 
L 297.017814 195.082277 
L 298.374612 196.207528 
L 299.572564 197.492566 
L 300.592001 198.916291 
L 301.416184 200.455326 
L 302.03158 202.0844 
L 302.428083 203.776763 
L 302.599183 205.504628 
L 302.542072 207.239622 
L 302.257685 208.953257 
L 301.750694 210.617394 
L 301.029423 212.20471 
L 300.105715 213.68914 
L 298.994738 215.04631 
L 297.714733 216.253936 
L 296.286719 217.292187 
L 294.734143 218.144017 
L 293.082498 218.795438 
L 291.358905 219.235753 
L 289.591664 219.457733 
L 287.809795 219.457733 
L 286.042554 219.235753 
L 284.318961 218.795438 
L 282.667317 218.144017 
L 281.11474 217.292187 
L 279.686726 216.253936 
L 278.406721 215.04631 
L 277.295744 213.68914 
L 276.372036 212.20471 
L 275.650765 210.617394 
L 275.143774 208.953257 
L 274.859387 207.239622 
L 274.802276 205.504628 
L 274.973376 203.776763 
L 275.36988 202.0844 
L 275.985275 200.455326 
L 276.809458 198.916291 
L 277.828895 197.492566 
L 279.026847 196.207528 
L 280.383645 195.082277 
L 281.877008 194.135291 
L 283.482417 193.382118 
L 285.173511 192.835126 
L 286.922521 192.503297 
L 288.70073 192.392078 
" style="fill:none;stroke:#808080;stroke-linecap:square;stroke-width:1.5;"/>
   </g>
   <g id="line2d_91"/>
   <g id="line2d_92"/>
   <g id="line2d_93"/>
   <g id="line2d_94"/>
   <g id="line2d_95"/>
   <g id="line2d_96"/>
   <g id="line2d_97"/>
   <g id="line2d_98"/>
   <g id="line2d_99"/>
   <g id="line2d_100"/>
   <g id="line2d_101"/>
   <g id="line2d_102"/>
   <g id="line2d_103"/>
   <g id="line2d_104"/>
   <g id="line2d_105"/>
   <g id="line2d_106"/>
   <g id="line2d_107"/>
   <g id="line2d_108"/>
   <g id="line2d_109"/>
   <g id="line2d_110"/>
   <g id="line2d_111"/>
   <g id="line2d_112"/>
   <g id="line2d_113"/>
   <g id="line2d_114"/>
   <g id="line2d_115"/>
   <g id="line2d_116"/>
   <g id="line2d_117"/>
   <g id="line2d_118"/>
   <g id="line2d_119"/>
   <g id="line2d_120"/>
   <g id="line2d_121"/>
   <g id="line2d_122"/>
   <g id="line2d_123"/>
   <g id="line2d_124"/>
   <g id="line2d_125"/>
   <g id="line2d_126"/>
   <g id="line2d_127"/>
   <g id="line2d_128"/>
   <g id="line2d_129"/>
   <g id="line2d_130"/>
   <g id="line2d_131"/>
   <g id="line2d_132"/>
   <g id="line2d_133"/>
   <g id="line2d_134"/>
   <g id="line2d_135"/>
   <g id="line2d_136"/>
   <g id="line2d_137"/>
   <g id="line2d_138"/>
   <g id="line2d_139"/>
   <g id="line2d_140"/>
   <g id="line2d_141"/>
   <g id="patch_3">
    <path d="M 90 630 
L 90 86.4 
" style="fill:none;stroke:#000000;stroke-linecap:square;stroke-linejoin:miter;stroke-width:0.8;"/>
   </g>
   <g id="patch_4">
    <path d="M 648 630 
L 648 86.4 
" style="fill:none;stroke:#000000;stroke-linecap:square;stroke-linejoin:miter;stroke-width:0.8;"/>
   </g>
   <g id="patch_5">
    <path d="M 90 630 
L 648 630 
" style="fill:none;stroke:#000000;stroke-linecap:square;stroke-linejoin:miter;stroke-width:0.8;"/>
   </g>
   <g id="patch_6">
    <path d="M 90 86.4 
L 648 86.4 
" style="fill:none;stroke:#000000;stroke-linecap:square;stroke-linejoin:miter;stroke-width:0.8;"/>
   </g>
   <g id="text_13">
    <!-- 0 -->
    <g transform="translate(67.669271 471.131197)scale(0.1 -0.1)">
     <use xlink:href="#DejaVuSans-30"/>
    </g>
   </g>
   <g id="text_14">
    <!-- 0 -->
    <g transform="translate(67.669271 457.584453)scale(0.1 -0.1)">
     <use xlink:href="#DejaVuSans-30"/>
    </g>
   </g>
   <g id="text_15">
    <!-- 0 -->
    <g transform="translate(67.669271 444.037709)scale(0.1 -0.1)">
     <use xlink:href="#DejaVuSans-30"/>
    </g>
   </g>
  </g>
 </g>
 <defs>
  <clipPath id="p0247bdd11f">
   <rect height="543.6" width="558" x="90" y="86.4"/>
  </clipPath>
 </defs>
</svg>
