<?xml version="1.0" encoding="utf-8" standalone="no"?>
<!DOCTYPE svg PUBLIC "-//W3C//DTD SVG 1.1//EN"
  "http://www.w3.org/Graphics/SVG/1.1/DTD/svg11.dtd">
<svg height="720pt" version="1.1" viewBox="0 0 720 720" width="720pt" xmlns="http://www.w3.org/2000/svg" xmlns:xlink="http://www.w3.org/1999/xlink">
 <metadata>
  <rdf:RDF xmlns:cc="http://creativecommons.org/ns#" xmlns:dc="http://purl.org/dc/elements/1.1/" xmlns:rdf="http://www.w3.org/1999/02/22-rdf-syntax-ns#">
   <cc:Work>
    <dc:type rdf:resource="http://purl.org/dc/dcmitype/StillImage"/>
    <dc:date>2022-01-11T13:25:59.212882</dc:date>
    <dc:format>image/svg+xml</dc:format>
    <dc:creator>
     <cc:Agent>
      <dc:title>Matplotlib v3.4.3, https://matplotlib.org/</dc:title>
     </cc:Agent>
    </dc:creator>
   </cc:Work>
  </rdf:RDF>
 </metadata>
 <defs>
  <style type="text/css">*{stroke-linecap:butt;stroke-linejoin:round;}</style>
 </defs>
 <g id="figure_1">
  <g id="patch_1">
   <path d="M 0 720 
L 720 720 
L 720 0 
L 0 0 
z
" style="fill:none;"/>
  </g>
  <g id="axes_1">
   <g id="patch_2">
    <path d="M 90 630 
L 648 630 
L 648 86.4 
L 90 86.4 
z
" style="fill:#ffffff;"/>
   </g>
   <g id="PathCollection_1">
    <defs>
     <path d="M 0.972304 -8.870829 
Q -1.277159 -8.870829 -2.413438 -6.653699 
Q -3.545098 -4.441189 -3.545098 0.006929 
Q -3.545098 4.436569 -2.413438 6.653699 
Q -1.277159 8.870829 0.972304 8.870829 
Q 3.240243 8.870829 4.371903 6.653699 
Q 5.508182 4.436569 5.508182 0.006929 
Q 5.508182 -4.441189 4.371903 -6.653699 
Q 3.240243 -8.870829 0.972304 -8.870829 
z
M 0.972304 -11.18034 
Q 4.598235 -11.18034 6.51051 -8.311928 
Q 8.422784 -5.448135 8.422784 0.006929 
Q 8.422784 5.448135 6.51051 8.316547 
Q 4.598235 11.18034 0.972304 11.18034 
Q -2.649008 11.18034 -4.561283 8.316547 
Q -6.473558 5.448135 -6.473558 0.006929 
Q -6.473558 -5.448135 -4.561283 -8.311928 
Q -2.649008 -11.18034 0.972304 -11.18034 
z
" id="me8d908d693" style="stroke:#808080;"/>
    </defs>
    <g clip-path="url(#p114435e177)">
     <use style="fill:#808080;stroke:#808080;" x="150.425728" xlink:href="#me8d908d693" y="168.168712"/>
    </g>
   </g>
   <g id="PathCollection_2">
    <defs>
     <path d="M -4.535873 8.63565 
L 0.404946 8.63565 
L 0.404946 -8.424791 
L -4.971969 -7.346533 
L -4.971969 -10.102082 
L 0.376192 -11.18034 
L 3.400108 -11.18034 
L 3.400108 8.63565 
L 8.340927 8.63565 
L 8.340927 11.18034 
L -4.535873 11.18034 
L -4.535873 8.63565 
z
" id="m46ba440b80" style="stroke:#808080;"/>
    </defs>
    <g clip-path="url(#p114435e177)">
     <use style="fill:#808080;stroke:#808080;" x="116.808995" xlink:href="#m46ba440b80" y="272.718169"/>
    </g>
   </g>
   <g id="PathCollection_3">
    <defs>
     <path d="M -2.294912 8.680651 
L 8.075736 8.680651 
L 8.075736 11.18034 
L -5.867913 11.18034 
L -5.867913 8.680651 
Q -4.177916 6.929457 -1.259259 3.982555 
Q 1.664105 1.030945 2.4126 0.174178 
Q 3.838976 -1.426376 4.403877 -2.537349 
Q 4.973486 -3.648321 4.973486 -4.721634 
Q 4.973486 -6.472828 3.744825 -7.574386 
Q 2.516165 -8.680651 0.543718 -8.680651 
Q -0.854413 -8.680651 -2.407892 -8.195778 
Q -3.956663 -7.710904 -5.72198 -6.722326 
L -5.72198 -9.725719 
Q -3.928418 -10.445968 -2.370232 -10.813154 
Q -0.807338 -11.18034 0.487227 -11.18034 
Q 3.900173 -11.18034 5.929111 -9.471513 
Q 7.958048 -7.767394 7.958048 -4.914642 
Q 7.958048 -3.558879 7.449637 -2.344341 
Q 6.945933 -1.13451 5.604292 0.513119 
Q 5.237107 0.941502 3.264659 2.979855 
Q 1.296919 5.018207 -2.294912 8.680651 
z
" id="mf4ef5e6245" style="stroke:#808080;"/>
    </defs>
    <g clip-path="url(#p114435e177)">
     <use style="fill:#808080;stroke:#808080;" x="201.381669" xlink:href="#mf4ef5e6245" y="379.439824"/>
    </g>
   </g>
   <g id="PathCollection_4">
    <defs>
     <path d="M 3.77605 -0.861447 
Q 5.868466 -0.413402 7.041697 1.004637 
Q 8.219548 2.418057 8.219548 4.496617 
Q 8.219548 7.683741 6.025513 9.43435 
Q 3.831478 11.18034 -0.210165 11.18034 
Q -1.563539 11.18034 -3.000054 10.912437 
Q -4.436569 10.644533 -5.965465 10.108727 
L -5.965465 7.295743 
Q -4.755282 8.002454 -3.314147 8.362737 
Q -1.868394 8.723021 -0.293308 8.723021 
Q 2.445772 8.723021 3.882287 7.64217 
Q 5.318802 6.561319 5.318802 4.496617 
Q 5.318802 2.588961 3.983905 1.517348 
Q 2.649008 0.441116 0.270213 0.441116 
L -2.242535 0.441116 
L -2.242535 -1.956155 
L 0.385688 -1.956155 
Q 2.533533 -1.956155 3.674431 -2.815293 
Q 4.815329 -3.674431 4.815329 -5.291088 
Q 4.815329 -6.949317 3.637479 -7.836169 
Q 2.464248 -8.72764 0.270213 -8.72764 
Q -0.930733 -8.72764 -2.302582 -8.464356 
Q -3.674431 -8.20569 -5.318802 -7.660646 
L -5.318802 -10.256536 
Q -3.655955 -10.718438 -2.205582 -10.949389 
Q -0.75521 -11.18034 0.528878 -11.18034 
Q 3.849954 -11.18034 5.780705 -9.66992 
Q 7.716074 -8.164119 7.716074 -5.595944 
Q 7.716074 -3.803764 6.690652 -2.570485 
Q 5.665229 -1.337207 3.77605 -0.861447 
z
" id="mdf651dc175" style="stroke:#808080;"/>
    </defs>
    <g clip-path="url(#p114435e177)">
     <use style="fill:#808080;stroke:#808080;" x="287.660135" xlink:href="#mdf651dc175" y="482.691566"/>
    </g>
   </g>
   <g id="PathCollection_5">
    <defs>
     <path d="M 2.695646 -8.544598 
L -4.943215 3.392919 
L 2.695646 3.392919 
L 2.695646 -8.544598 
z
M 1.900131 -11.18034 
L 5.705184 -11.18034 
L 5.705184 3.392919 
L 8.896829 3.392919 
L 8.896829 5.908855 
L 5.705184 5.908855 
L 5.705184 11.18034 
L 2.695646 11.18034 
L 2.695646 5.908855 
L -7.396852 5.908855 
L -7.396852 2.99037 
L 1.900131 -11.18034 
z
" id="m6c2e60581e" style="stroke:#808080;"/>
    </defs>
    <g clip-path="url(#p114435e177)">
     <use style="fill:#808080;stroke:#808080;" x="342.138943" xlink:href="#m6c2e60581e" y="516.551781"/>
    </g>
   </g>
   <g id="PathCollection_6">
    <defs>
     <path d="M -5.008473 -11.18034 
L 6.639575 -11.18034 
L 6.639575 -8.679629 
L -2.291535 -8.679629 
L -2.291535 -3.306861 
Q -1.647555 -3.527789 -1.003575 -3.635902 
Q -0.354894 -3.744015 0.293787 -3.744015 
Q 3.964943 -3.744015 6.108409 -1.732165 
Q 8.256576 0.279685 8.256576 3.715812 
Q 8.256576 7.255352 6.052002 9.220196 
Q 3.847428 11.18034 -0.16217 11.18034 
Q -1.544142 11.18034 -2.97782 10.945311 
Q -4.406798 10.710281 -5.934488 10.240223 
L -5.934488 7.255352 
Q -4.613624 7.974541 -3.203448 8.327085 
Q -1.793273 8.679629 -0.223278 8.679629 
Q 2.319738 8.679629 3.800422 7.344663 
Q 5.285807 6.009697 5.285807 3.715812 
Q 5.285807 1.426627 3.800422 0.091661 
Q 2.319738 -1.248005 -0.223278 -1.248005 
Q -1.412526 -1.248005 -2.597073 -0.984772 
Q -3.77692 -0.72154 -5.008473 -0.16217 
L -5.008473 -11.18034 
z
" id="m0c8f334bc0" style="stroke:#808080;"/>
    </defs>
    <g clip-path="url(#p114435e177)">
     <use style="fill:#808080;stroke:#808080;" x="438.263621" xlink:href="#m0c8f334bc0" y="389.379713"/>
    </g>
   </g>
   <g id="PathCollection_7">
    <defs>
     <path d="M 1.286397 -1.175541 
Q -0.676687 -1.175541 -1.826823 0.168594 
Q -2.97234 1.50811 -2.97234 3.845335 
Q -2.97234 6.168702 -1.826823 7.522075 
Q -0.676687 8.870829 1.286397 8.870829 
Q 3.249481 8.870829 4.394998 7.522075 
Q 5.540515 6.168702 5.540515 3.845335 
Q 5.540515 1.50811 4.394998 0.168594 
Q 3.249481 -1.175541 1.286397 -1.175541 
z
M 7.07403 -10.316583 
L 7.07403 -7.660646 
Q 5.974703 -8.177976 4.8569 -8.450499 
Q 3.739097 -8.72764 2.63977 -8.72764 
Q -0.247118 -8.72764 -1.771394 -6.778413 
Q -3.291052 -4.829186 -3.508146 -0.889162 
Q -2.658246 -2.145535 -1.374159 -2.815293 
Q -0.085452 -3.485051 1.457301 -3.485051 
Q 4.704473 -3.485051 6.589033 -1.512729 
Q 8.473594 0.454974 8.473594 3.845335 
Q 8.473594 7.166411 6.51051 9.175685 
Q 4.547426 11.18034 1.286397 11.18034 
Q -2.45501 11.18034 -4.43195 8.316547 
Q -6.408891 5.448135 -6.408891 0.006929 
Q -6.408891 -5.101708 -3.983905 -8.141024 
Q -1.55892 -11.18034 2.524295 -11.18034 
Q 3.623622 -11.18034 4.741425 -10.963246 
Q 5.859228 -10.746152 7.07403 -10.316583 
z
" id="m0c08f6adb3" style="stroke:#808080;"/>
    </defs>
    <g clip-path="url(#p114435e177)">
     <use style="fill:#808080;stroke:#808080;" x="394.552228" xlink:href="#m0c08f6adb3" y="233.060583"/>
    </g>
   </g>
   <g id="PathCollection_8">
    <defs>
     <path d="M -5.93042 -11.18034 
L 8.446356 -11.18034 
L 8.446356 -9.891222 
L 0.32827 11.18034 
L -2.829829 11.18034 
L 4.809032 -8.630858 
L -5.93042 -8.630858 
L -5.93042 -11.18034 
z
" id="m2c06162439" style="stroke:#808080;"/>
    </defs>
    <g clip-path="url(#p114435e177)">
     <use style="fill:#808080;stroke:#808080;" x="394.552228" xlink:href="#m2c06162439" y="233.060583"/>
    </g>
   </g>
   <g id="PathCollection_9">
    <defs>
     <path d="M 1.002328 0.524259 
Q -1.076232 0.524259 -2.267939 1.637443 
Q -3.455028 2.750627 -3.455028 4.695235 
Q -3.455028 6.644461 -2.267939 7.757645 
Q -1.076232 8.870829 1.002328 8.870829 
Q 3.080887 8.870829 4.277213 7.753026 
Q 5.478159 6.630604 5.478159 4.695235 
Q 5.478159 2.750627 4.286451 1.637443 
Q 3.099363 0.524259 1.002328 0.524259 
z
M -1.912275 -0.713639 
Q -3.787597 -1.175541 -4.836115 -2.459629 
Q -5.880014 -3.748335 -5.880014 -5.595944 
Q -5.880014 -8.177976 -4.041643 -9.679158 
Q -2.198654 -11.18034 1.002328 -11.18034 
Q 4.221785 -11.18034 6.055536 -9.679158 
Q 7.889288 -8.177976 7.889288 -5.595944 
Q 7.889288 -3.748335 6.84077 -2.459629 
Q 5.796871 -1.175541 3.935406 -0.713639 
Q 6.041679 -0.224023 7.214911 1.207874 
Q 8.392761 2.635151 8.392761 4.695235 
Q 8.392761 7.83155 6.480486 9.508254 
Q 4.568212 11.18034 1.002328 11.18034 
Q -2.558938 11.18034 -4.475831 9.508254 
Q -6.388106 7.83155 -6.388106 4.695235 
Q -6.388106 2.635151 -5.205636 1.207874 
Q -4.018548 -0.224023 -1.912275 -0.713639 
z
M -2.979268 -5.318802 
Q -2.979268 -3.646717 -1.93537 -2.709056 
Q -0.886852 -1.771394 1.002328 -1.771394 
Q 2.882269 -1.771394 3.940025 -2.709056 
Q 5.0024 -3.646717 5.0024 -5.318802 
Q 5.0024 -6.995507 3.940025 -7.933168 
Q 2.882269 -8.870829 1.002328 -8.870829 
Q -0.886852 -8.870829 -1.93537 -7.933168 
Q -2.979268 -6.995507 -2.979268 -5.318802 
z
" id="m50bf2295c8" style="stroke:#808080;"/>
    </defs>
    <g clip-path="url(#p114435e177)">
     <use style="fill:#808080;stroke:#808080;" x="275.070954" xlink:href="#m50bf2295c8" y="147.73564"/>
    </g>
   </g>
   <g id="PathCollection_10"/>
   <g id="PathCollection_11"/>
   <g id="PathCollection_12"/>
   <g id="PathCollection_13"/>
   <g id="PathCollection_14"/>
   <g id="matplotlib.axis_1">
    <g id="xtick_1">
     <g id="line2d_1">
      <defs>
       <path d="M 0 0 
L 0 3.5 
" id="mf8f0fe24df" style="stroke:#000000;stroke-width:0.8;"/>
      </defs>
      <g>
       <use style="stroke:#000000;stroke-width:0.8;" x="150.916512" xlink:href="#mf8f0fe24df" y="630"/>
      </g>
     </g>
     <g id="text_1">
      <!-- −200 -->
      <g transform="translate(137.182919 644.598438)scale(0.1 -0.1)">
       <defs>
        <path d="M 678 2272 
L 4684 2272 
L 4684 1741 
L 678 1741 
L 678 2272 
z
" id="DejaVuSans-2212" transform="scale(0.015625)"/>
        <path d="M 1228 531 
L 3431 531 
L 3431 0 
L 469 0 
L 469 531 
Q 828 903 1448 1529 
Q 2069 2156 2228 2338 
Q 2531 2678 2651 2914 
Q 2772 3150 2772 3378 
Q 2772 3750 2511 3984 
Q 2250 4219 1831 4219 
Q 1534 4219 1204 4116 
Q 875 4013 500 3803 
L 500 4441 
Q 881 4594 1212 4672 
Q 1544 4750 1819 4750 
Q 2544 4750 2975 4387 
Q 3406 4025 3406 3419 
Q 3406 3131 3298 2873 
Q 3191 2616 2906 2266 
Q 2828 2175 2409 1742 
Q 1991 1309 1228 531 
z
" id="DejaVuSans-32" transform="scale(0.015625)"/>
        <path d="M 2034 4250 
Q 1547 4250 1301 3770 
Q 1056 3291 1056 2328 
Q 1056 1369 1301 889 
Q 1547 409 2034 409 
Q 2525 409 2770 889 
Q 3016 1369 3016 2328 
Q 3016 3291 2770 3770 
Q 2525 4250 2034 4250 
z
M 2034 4750 
Q 2819 4750 3233 4129 
Q 3647 3509 3647 2328 
Q 3647 1150 3233 529 
Q 2819 -91 2034 -91 
Q 1250 -91 836 529 
Q 422 1150 422 2328 
Q 422 3509 836 4129 
Q 1250 4750 2034 4750 
z
" id="DejaVuSans-30" transform="scale(0.015625)"/>
       </defs>
       <use xlink:href="#DejaVuSans-2212"/>
       <use x="83.789062" xlink:href="#DejaVuSans-32"/>
       <use x="147.412109" xlink:href="#DejaVuSans-30"/>
       <use x="211.035156" xlink:href="#DejaVuSans-30"/>
      </g>
     </g>
    </g>
    <g id="xtick_2">
     <g id="line2d_2">
      <g>
       <use style="stroke:#000000;stroke-width:0.8;" x="247.988673" xlink:href="#mf8f0fe24df" y="630"/>
      </g>
     </g>
     <g id="text_2">
      <!-- −100 -->
      <g transform="translate(234.255079 644.598438)scale(0.1 -0.1)">
       <defs>
        <path d="M 794 531 
L 1825 531 
L 1825 4091 
L 703 3866 
L 703 4441 
L 1819 4666 
L 2450 4666 
L 2450 531 
L 3481 531 
L 3481 0 
L 794 0 
L 794 531 
z
" id="DejaVuSans-31" transform="scale(0.015625)"/>
       </defs>
       <use xlink:href="#DejaVuSans-2212"/>
       <use x="83.789062" xlink:href="#DejaVuSans-31"/>
       <use x="147.412109" xlink:href="#DejaVuSans-30"/>
       <use x="211.035156" xlink:href="#DejaVuSans-30"/>
      </g>
     </g>
    </g>
    <g id="xtick_3">
     <g id="line2d_3">
      <g>
       <use style="stroke:#000000;stroke-width:0.8;" x="345.060833" xlink:href="#mf8f0fe24df" y="630"/>
      </g>
     </g>
     <g id="text_3">
      <!-- 0 -->
      <g transform="translate(341.879583 644.598438)scale(0.1 -0.1)">
       <use xlink:href="#DejaVuSans-30"/>
      </g>
     </g>
    </g>
    <g id="xtick_4">
     <g id="line2d_4">
      <g>
       <use style="stroke:#000000;stroke-width:0.8;" x="442.132993" xlink:href="#mf8f0fe24df" y="630"/>
      </g>
     </g>
     <g id="text_4">
      <!-- 100 -->
      <g transform="translate(432.589243 644.598438)scale(0.1 -0.1)">
       <use xlink:href="#DejaVuSans-31"/>
       <use x="63.623047" xlink:href="#DejaVuSans-30"/>
       <use x="127.246094" xlink:href="#DejaVuSans-30"/>
      </g>
     </g>
    </g>
    <g id="xtick_5">
     <g id="line2d_5">
      <g>
       <use style="stroke:#000000;stroke-width:0.8;" x="539.205153" xlink:href="#mf8f0fe24df" y="630"/>
      </g>
     </g>
     <g id="text_5">
      <!-- 200 -->
      <g transform="translate(529.661403 644.598438)scale(0.1 -0.1)">
       <use xlink:href="#DejaVuSans-32"/>
       <use x="63.623047" xlink:href="#DejaVuSans-30"/>
       <use x="127.246094" xlink:href="#DejaVuSans-30"/>
      </g>
     </g>
    </g>
    <g id="xtick_6">
     <g id="line2d_6">
      <g>
       <use style="stroke:#000000;stroke-width:0.8;" x="636.277313" xlink:href="#mf8f0fe24df" y="630"/>
      </g>
     </g>
     <g id="text_6">
      <!-- 300 -->
      <g transform="translate(626.733563 644.598438)scale(0.1 -0.1)">
       <defs>
        <path d="M 2597 2516 
Q 3050 2419 3304 2112 
Q 3559 1806 3559 1356 
Q 3559 666 3084 287 
Q 2609 -91 1734 -91 
Q 1441 -91 1130 -33 
Q 819 25 488 141 
L 488 750 
Q 750 597 1062 519 
Q 1375 441 1716 441 
Q 2309 441 2620 675 
Q 2931 909 2931 1356 
Q 2931 1769 2642 2001 
Q 2353 2234 1838 2234 
L 1294 2234 
L 1294 2753 
L 1863 2753 
Q 2328 2753 2575 2939 
Q 2822 3125 2822 3475 
Q 2822 3834 2567 4026 
Q 2313 4219 1838 4219 
Q 1578 4219 1281 4162 
Q 984 4106 628 3988 
L 628 4550 
Q 988 4650 1302 4700 
Q 1616 4750 1894 4750 
Q 2613 4750 3031 4423 
Q 3450 4097 3450 3541 
Q 3450 3153 3228 2886 
Q 3006 2619 2597 2516 
z
" id="DejaVuSans-33" transform="scale(0.015625)"/>
       </defs>
       <use xlink:href="#DejaVuSans-33"/>
       <use x="63.623047" xlink:href="#DejaVuSans-30"/>
       <use x="127.246094" xlink:href="#DejaVuSans-30"/>
      </g>
     </g>
    </g>
   </g>
   <g id="matplotlib.axis_2">
    <g id="ytick_1">
     <g id="line2d_7">
      <defs>
       <path d="M 0 0 
L -3.5 0 
" id="m42fde1754f" style="stroke:#000000;stroke-width:0.8;"/>
      </defs>
      <g>
       <use style="stroke:#000000;stroke-width:0.8;" x="90" xlink:href="#m42fde1754f" y="570.655527"/>
      </g>
     </g>
     <g id="text_7">
      <!-- −200 -->
      <g transform="translate(55.532812 574.454745)scale(0.1 -0.1)">
       <use xlink:href="#DejaVuSans-2212"/>
       <use x="83.789062" xlink:href="#DejaVuSans-32"/>
       <use x="147.412109" xlink:href="#DejaVuSans-30"/>
       <use x="211.035156" xlink:href="#DejaVuSans-30"/>
      </g>
     </g>
    </g>
    <g id="ytick_2">
     <g id="line2d_8">
      <g>
       <use style="stroke:#000000;stroke-width:0.8;" x="90" xlink:href="#m42fde1754f" y="476.088454"/>
      </g>
     </g>
     <g id="text_8">
      <!-- −100 -->
      <g transform="translate(55.532812 479.887673)scale(0.1 -0.1)">
       <use xlink:href="#DejaVuSans-2212"/>
       <use x="83.789062" xlink:href="#DejaVuSans-31"/>
       <use x="147.412109" xlink:href="#DejaVuSans-30"/>
       <use x="211.035156" xlink:href="#DejaVuSans-30"/>
      </g>
     </g>
    </g>
    <g id="ytick_3">
     <g id="line2d_9">
      <g>
       <use style="stroke:#000000;stroke-width:0.8;" x="90" xlink:href="#m42fde1754f" y="381.521382"/>
      </g>
     </g>
     <g id="text_9">
      <!-- 0 -->
      <g transform="translate(76.6375 385.320601)scale(0.1 -0.1)">
       <use xlink:href="#DejaVuSans-30"/>
      </g>
     </g>
    </g>
    <g id="ytick_4">
     <g id="line2d_10">
      <g>
       <use style="stroke:#000000;stroke-width:0.8;" x="90" xlink:href="#m42fde1754f" y="286.95431"/>
      </g>
     </g>
     <g id="text_10">
      <!-- 100 -->
      <g transform="translate(63.9125 290.753529)scale(0.1 -0.1)">
       <use xlink:href="#DejaVuSans-31"/>
       <use x="63.623047" xlink:href="#DejaVuSans-30"/>
       <use x="127.246094" xlink:href="#DejaVuSans-30"/>
      </g>
     </g>
    </g>
    <g id="ytick_5">
     <g id="line2d_11">
      <g>
       <use style="stroke:#000000;stroke-width:0.8;" x="90" xlink:href="#m42fde1754f" y="192.387238"/>
      </g>
     </g>
     <g id="text_11">
      <!-- 200 -->
      <g transform="translate(63.9125 196.186457)scale(0.1 -0.1)">
       <use xlink:href="#DejaVuSans-32"/>
       <use x="63.623047" xlink:href="#DejaVuSans-30"/>
       <use x="127.246094" xlink:href="#DejaVuSans-30"/>
      </g>
     </g>
    </g>
    <g id="ytick_6">
     <g id="line2d_12">
      <g>
       <use style="stroke:#000000;stroke-width:0.8;" x="90" xlink:href="#m42fde1754f" y="97.820166"/>
      </g>
     </g>
     <g id="text_12">
      <!-- 300 -->
      <g transform="translate(63.9125 101.619385)scale(0.1 -0.1)">
       <use xlink:href="#DejaVuSans-33"/>
       <use x="63.623047" xlink:href="#DejaVuSans-30"/>
       <use x="127.246094" xlink:href="#DejaVuSans-30"/>
      </g>
     </g>
    </g>
   </g>
   <g id="line2d_13">
    <path clip-path="url(#p114435e177)" d="M 275.070954 147.73564 
L 274.446023 152.541549 
L 273.644001 157.320454 
L 272.649405 162.062598 
L 271.445581 166.756299 
L 270.0149 171.38743 
L 268.33916 175.938837 
L 266.400303 180.389771 
L 264.181505 184.715453 
L 261.66869 188.887002 
L 258.852341 192.871934 
L 255.729396 196.635452 
L 252.304794 200.142545 
L 248.592226 203.360645 
L 244.613749 206.26234 
L 240.398262 208.827516 
L 235.97915 211.044451 
L 231.39165 212.90971 
L 226.670486 214.427039 
L 221.848113 215.605661 
L 216.953692 216.458402 
L 212.012721 216.999952 
L 207.047148 217.245441 
L 202.075798 217.20936 
L 197.114975 216.904792 
L 192.179133 216.342879 
L 187.28158 215.532446 
L 182.435199 214.479691 
L 177.653218 213.187865 
L 172.950085 211.656867 
L 168.342542 209.88264 
L 163.851123 207.856236 
L 159.502423 205.562348 
L 155.332957 202.976999 
L 151.396353 200.064108 
L 147.778001 196.771342 
L 144.626076 193.029931 
L 142.210555 188.780212 
L 140.975723 184.080061 
L 141.370916 179.280348 
L 143.389465 174.901626 
L 146.564564 171.207891 
L 150.425728 168.168712 
" style="fill:none;stroke:#808080;stroke-linecap:square;stroke-width:1.5;"/>
   </g>
   <g id="line2d_14">
    <path clip-path="url(#p114435e177)" d="M 140.975723 217.245441 
L 140.975723 147.73564 
L 275.070954 147.73564 
L 275.070954 217.245441 
L 140.975723 217.245441 
" style="fill:none;stroke:#d3d3d3;stroke-linecap:square;stroke-width:0.5;"/>
   </g>
   <g id="line2d_15">
    <path clip-path="url(#p114435e177)" d="M 150.425728 168.168712 
L 154.681233 165.645851 
L 159.273981 163.779844 
L 164.174197 163.011511 
L 169.028483 163.93903 
L 173.106411 166.680523 
L 176.068204 170.572957 
L 178.105132 175.001636 
L 179.471217 179.670807 
L 180.341436 184.452009 
L 180.825992 189.285011 
L 180.994762 194.138315 
L 180.892698 198.99342 
L 180.548565 203.837966 
L 179.979897 208.662383 
L 179.195832 213.458026 
L 178.198724 218.215927 
L 176.985046 222.925773 
L 175.545886 227.574893 
L 173.86731 232.147118 
L 171.930871 236.621492 
L 169.714687 240.97088 
L 167.195586 245.16083 
L 164.352868 249.149389 
L 161.173769 252.889024 
L 157.65953 256.331752 
L 153.829472 259.437275 
L 149.720141 262.181505 
L 145.37904 264.56133 
L 140.855969 266.59329 
L 136.196056 268.307596 
L 131.436365 269.740995 
L 126.60548 270.931129 
L 121.72459 271.913146 
L 116.808995 272.718169 
" style="fill:none;stroke:#808080;stroke-linecap:square;stroke-width:1.5;"/>
   </g>
   <g id="line2d_16">
    <path clip-path="url(#p114435e177)" d="M 116.808995 272.718169 
L 116.808995 163.011511 
L 180.994762 163.011511 
L 180.994762 272.718169 
L 116.808995 272.718169 
" style="fill:none;stroke:#d3d3d3;stroke-linecap:square;stroke-width:0.5;"/>
   </g>
   <g id="line2d_17">
    <path clip-path="url(#p114435e177)" d="M 116.808995 272.718169 
L 114.248017 276.200049 
L 115.552376 280.789744 
L 117.729304 285.091821 
L 120.25731 289.226627 
L 122.985369 293.251111 
L 125.845785 297.194287 
L 128.801348 301.073191 
L 131.829069 304.898946 
L 134.913641 308.679401 
L 138.044324 312.420428 
L 141.213279 316.126617 
L 144.414613 319.801675 
L 147.643777 323.44868 
L 150.897183 327.070237 
L 154.171947 330.668588 
L 157.46571 334.245696 
L 160.776506 337.803294 
L 164.102671 341.342938 
L 167.442773 344.866036 
L 170.795559 348.373879 
L 174.159915 351.867667 
L 177.534832 355.348525 
L 180.919379 358.817527 
L 184.312685 362.275707 
L 187.713912 365.724079 
L 191.122245 369.16365 
L 194.536872 372.595434 
L 197.956965 376.020467 
L 201.381669 379.439824 
" style="fill:none;stroke:#808080;stroke-linecap:square;stroke-width:1.5;"/>
   </g>
   <g id="line2d_18">
    <path clip-path="url(#p114435e177)" d="M 114.248017 379.439824 
L 114.248017 272.718169 
L 201.381669 272.718169 
L 201.381669 379.439824 
L 114.248017 379.439824 
" style="fill:none;stroke:#d3d3d3;stroke-linecap:square;stroke-width:0.5;"/>
   </g>
   <g id="line2d_19">
    <path clip-path="url(#p114435e177)" d="M 201.381669 379.439824 
L 204.810078 382.854634 
L 208.241219 386.266097 
L 211.674026 389.675503 
L 215.107317 393.084257 
L 218.539761 396.493899 
L 221.969844 399.906135 
L 225.395829 403.322869 
L 228.815699 406.74624 
L 232.227109 410.178659 
L 235.627304 413.622862 
L 239.01305 417.081956 
L 242.38053 420.55947 
L 245.72524 424.059412 
L 249.041875 427.586307 
L 252.324203 431.145226 
L 255.564951 434.74178 
L 258.755721 438.38206 
L 261.886958 442.072504 
L 264.948031 445.819658 
L 267.927454 449.629822 
L 270.813331 453.50858 
L 273.594014 457.460258 
L 276.258962 461.487398 
L 278.79968 465.590362 
L 281.210572 469.767184 
L 283.489477 474.013739 
L 285.637792 478.324183 
L 287.660135 482.691566 
" style="fill:none;stroke:#808080;stroke-linecap:square;stroke-width:1.5;"/>
   </g>
   <g id="line2d_20">
    <path clip-path="url(#p114435e177)" d="M 201.381669 482.691566 
L 201.381669 379.439824 
L 287.660135 379.439824 
L 287.660135 482.691566 
L 201.381669 482.691566 
" style="fill:none;stroke:#d3d3d3;stroke-linecap:square;stroke-width:0.5;"/>
   </g>
   <g id="line2d_21">
    <path clip-path="url(#p114435e177)" d="M 287.660135 482.691566 
L 289.767967 487.372913 
L 291.914444 492.037577 
L 294.116143 496.677686 
L 296.395309 501.281955 
L 298.782363 505.833571 
L 301.319934 510.306268 
L 304.069557 514.656529 
L 307.122773 518.806878 
L 310.61724 522.607286 
L 314.739588 525.745241 
L 319.593505 527.616515 
L 324.808389 527.605147 
L 329.742351 525.914373 
L 334.197216 523.223682 
L 338.276881 520.011694 
L 342.138943 516.551781 
" style="fill:none;stroke:#808080;stroke-linecap:square;stroke-width:1.5;"/>
   </g>
   <g id="line2d_22">
    <path clip-path="url(#p114435e177)" d="M 287.660135 527.616515 
L 287.660135 482.691566 
L 342.138943 482.691566 
L 342.138943 527.616515 
L 287.660135 527.616515 
" style="fill:none;stroke:#d3d3d3;stroke-linecap:square;stroke-width:0.5;"/>
   </g>
   <g id="line2d_23">
    <path clip-path="url(#p114435e177)" d="M 342.138943 516.551781 
L 345.889299 513.388502 
L 349.814505 510.431909 
L 353.818732 507.57775 
L 357.856312 504.768767 
L 361.900799 501.969401 
L 365.934526 499.155447 
L 369.94429 496.309233 
L 373.919288 493.417133 
L 377.850036 490.4682 
L 381.727744 487.453359 
L 385.543949 484.364934 
L 389.290278 481.196363 
L 392.958314 477.942033 
L 396.539507 474.5972 
L 400.025151 471.157959 
L 403.406388 467.621255 
L 406.674253 463.984919 
L 409.819757 460.247717 
L 412.833996 456.409401 
L 415.708293 452.470754 
L 418.434358 448.433622 
L 421.004469 444.300915 
L 423.411653 440.076576 
L 425.649861 435.765523 
L 427.714126 431.373539 
L 429.600686 426.907138 
L 431.307064 422.373396 
L 432.832108 417.77977 
L 434.175974 413.133903 
L 435.340059 408.443438 
L 436.326906 403.71585 
L 437.140064 398.9583 
L 437.783938 394.177516 
L 438.263621 389.379713 
" style="fill:none;stroke:#808080;stroke-linecap:square;stroke-width:1.5;"/>
   </g>
   <g id="line2d_24">
    <path clip-path="url(#p114435e177)" d="M 342.138943 516.551781 
L 342.138943 389.379713 
L 438.263621 389.379713 
L 438.263621 516.551781 
L 342.138943 516.551781 
" style="fill:none;stroke:#d3d3d3;stroke-linecap:square;stroke-width:0.5;"/>
   </g>
   <g id="line2d_25">
    <path clip-path="url(#p114435e177)" d="M 438.263621 389.379713 
L 438.584738 384.57054 
L 438.753287 379.755056 
L 438.775502 374.93773 
L 438.657733 370.12246 
L 438.406341 365.312608 
L 438.027618 360.511036 
L 437.527721 355.720158 
L 436.912625 350.941985 
L 436.188086 346.178176 
L 435.359621 341.430079 
L 434.432493 336.698775 
L 433.411704 331.985116 
L 432.301996 327.289759 
L 431.107858 322.613197 
L 429.833525 317.955782 
L 428.482997 313.31775 
L 427.060041 308.69924 
L 425.568208 304.100308 
L 424.01084 299.520943 
L 422.391087 294.96108 
L 420.711912 290.420605 
L 418.976109 285.899367 
L 417.186307 281.397185 
L 415.344986 276.913851 
L 413.454482 272.449136 
L 411.516996 268.002795 
L 409.534607 263.574569 
L 407.509276 259.164188 
L 405.442852 254.771372 
L 403.337083 250.395835 
L 401.193619 246.037285 
L 399.01402 241.695427 
L 396.799758 237.369961 
L 394.552228 233.060583 
" style="fill:none;stroke:#808080;stroke-linecap:square;stroke-width:1.5;"/>
   </g>
   <g id="line2d_26">
    <path clip-path="url(#p114435e177)" d="M 394.552228 389.379713 
L 394.552228 233.060583 
L 438.775502 233.060583 
L 438.775502 389.379713 
L 394.552228 389.379713 
" style="fill:none;stroke:#d3d3d3;stroke-linecap:square;stroke-width:0.5;"/>
   </g>
   <g id="line2d_27">
    <path clip-path="url(#p114435e177)" d="M 394.552228 233.060583 
" style="fill:none;stroke:#808080;stroke-linecap:square;stroke-width:1.5;"/>
   </g>
   <g id="line2d_28">
    <path clip-path="url(#p114435e177)" d="M 394.552228 233.060583 
L 394.552228 233.060583 
L 394.552228 233.060583 
L 394.552228 233.060583 
L 394.552228 233.060583 
" style="fill:none;stroke:#d3d3d3;stroke-linecap:square;stroke-width:0.5;"/>
   </g>
   <g id="line2d_29">
    <path clip-path="url(#p114435e177)" d="M 394.552228 233.060583 
L 392.296185 228.79528 
L 390.021654 224.53911 
L 387.727888 220.292534 
L 385.414081 216.056054 
L 383.079359 211.83022 
L 380.722774 207.615639 
L 378.343292 203.412982 
L 375.939786 199.222989 
L 373.51102 195.046489 
L 371.055637 190.884405 
L 368.572139 186.737775 
L 366.058871 182.607772 
L 363.513989 178.495729 
L 360.93544 174.403167 
L 358.320918 170.331838 
L 355.667824 166.28377 
L 352.973212 162.261333 
L 350.233723 158.267319 
L 347.445497 154.30505 
L 344.60407 150.378522 
L 341.704235 146.492595 
L 338.739861 142.653268 
L 335.703656 138.868049 
L 332.586851 135.146502 
L 329.378755 131.501052 
L 326.066153 127.948208 
L 322.63244 124.5105 
L 319.056383 121.219657 
L 315.310357 118.122101 
L 311.358048 115.289011 
L 307.152766 112.835995 
L 302.644462 110.963001 
L 297.83411 110.021925 
L 292.955831 110.505996 
L 288.571532 112.629844 
L 285.066677 115.975265 
L 282.383575 119.992915 
L 280.323783 124.352763 
L 278.721452 128.893203 
L 277.461794 133.53484 
L 276.466931 138.23626 
L 275.68286 142.974398 
L 275.070954 147.73564 
" style="fill:none;stroke:#808080;stroke-linecap:square;stroke-width:1.5;"/>
   </g>
   <g id="line2d_30">
    <path clip-path="url(#p114435e177)" d="M 275.070954 233.060583 
L 275.070954 110.021925 
L 394.552228 110.021925 
L 394.552228 233.060583 
L 275.070954 233.060583 
" style="fill:none;stroke:#d3d3d3;stroke-linecap:square;stroke-width:0.5;"/>
   </g>
   <g id="line2d_31">
    <path clip-path="url(#p114435e177)" d="M 335.462868 509.686649 
L 335.462868 509.686649 
L 339.791898 506.030164 
L 344.004373 502.856189 
L 348.146583 499.903431 
L 352.23403 497.059701 
L 356.270662 494.265777 
L 360.255632 491.485864 
L 364.185836 488.696158 
L 368.056957 485.879676 
L 371.863932 483.02364 
L 375.601175 480.118051 
L 379.262686 477.154863 
L 382.842129 474.127488 
L 386.332883 471.030495 
L 389.728093 467.859423 
L 393.020733 464.610671 
L 396.203673 461.281437 
L 399.269764 457.869685 
L 402.211931 454.374127 
L 405.023284 450.794224 
L 407.697229 447.130175 
L 410.227594 443.382914 
L 412.608745 439.554097 
L 414.835702 435.646073 
L 416.904242 431.661846 
L 418.810982 427.605025 
L 420.553448 423.479757 
L 422.130109 419.290641 
L 423.540391 415.042644 
L 424.784667 410.740993 
L 425.864209 406.391073 
L 426.781132 401.998326 
L 427.538306 397.568143 
L 428.139262 393.105782 
L 428.588088 388.61629 
" style="fill:none;stroke:#000000;stroke-linecap:square;stroke-width:3;"/>
   </g>
   <g id="line2d_32">
    <path clip-path="url(#p114435e177)" d="M 335.462868 509.686649 
L 335.462868 388.61629 
L 428.588088 388.61629 
L 428.588088 509.686649 
L 335.462868 509.686649 
" style="fill:none;stroke:#d3d3d3;stroke-linecap:square;stroke-width:0.5;"/>
   </g>
   <g id="line2d_33">
    <path clip-path="url(#p114435e177)" d="M 428.588088 388.61629 
L 428.88932 384.104439 
L 429.047836 379.574684 
L 429.068759 375.031134 
L 428.957362 370.477537 
L 428.718989 365.917277 
L 428.358988 361.353387 
L 427.882655 356.788555 
L 427.295186 352.225155 
L 426.601643 347.665265 
L 425.806928 343.110693 
L 424.915764 338.563003 
L 423.932685 334.023543 
L 422.862026 329.493464 
L 421.707926 324.973747 
L 420.474321 320.46522 
L 419.164953 315.968578 
L 417.783376 311.484398 
L 416.332956 307.013156 
L 414.816883 302.555239 
L 413.238179 298.110954 
L 411.599703 293.680542 
L 409.90416 289.264185 
L 408.15411 284.862009 
L 406.351976 280.4741 
L 404.500049 276.100501 
L 402.600496 271.741221 
L 400.65537 267.396238 
L 398.666611 263.065504 
L 396.636057 258.748947 
L 394.565449 254.446474 
L 392.456432 250.157974 
L 390.310566 245.88332 
L 388.129329 241.622369 
L 385.914119 237.374965 
L 385.914119 237.374965 
" style="fill:none;stroke:#000000;stroke-linecap:square;stroke-width:3;"/>
   </g>
   <g id="line2d_34">
    <path clip-path="url(#p114435e177)" d="M 385.914119 388.61629 
L 385.914119 237.374965 
L 429.068759 237.374965 
L 429.068759 388.61629 
L 385.914119 388.61629 
" style="fill:none;stroke:#d3d3d3;stroke-linecap:square;stroke-width:0.5;"/>
   </g>
   <g id="line2d_35">
    <path clip-path="url(#p114435e177)" d="M 385.914119 237.374965 
" style="fill:none;stroke:#000000;stroke-linecap:square;stroke-width:3;"/>
   </g>
   <g id="line2d_36">
    <path clip-path="url(#p114435e177)" d="M 385.914119 237.374965 
L 385.914119 237.374965 
L 385.914119 237.374965 
L 385.914119 237.374965 
L 385.914119 237.374965 
" style="fill:none;stroke:#d3d3d3;stroke-linecap:square;stroke-width:0.5;"/>
   </g>
   <g id="line2d_37">
    <path clip-path="url(#p114435e177)" d="M 186.482413 224.989205 
L 184.768019 230.526925 
L 182.916546 235.569487 
L 180.759499 240.552865 
L 178.261329 245.454812 
L 175.383617 250.240313 
L 172.091824 254.858081 
L 168.36624 259.23987 
L 164.214808 263.306486 
L 159.681201 266.982548 
L 154.840548 270.215589 
L 149.78246 272.989086 
L 144.590836 275.322021 
L 139.331036 277.257564 
L 134.047183 278.849245 
L 128.765801 280.150678 
L 126.098904 280.687362 
" style="fill:none;stroke:#000000;stroke-linecap:square;stroke-width:3;"/>
   </g>
   <g id="line2d_38">
    <path clip-path="url(#p114435e177)" d="M 126.098904 280.687362 
L 126.098904 224.989205 
L 186.482413 224.989205 
L 186.482413 280.687362 
L 126.098904 280.687362 
" style="fill:none;stroke:#d3d3d3;stroke-linecap:square;stroke-width:0.5;"/>
   </g>
   <g id="line2d_39">
    <path clip-path="url(#p114435e177)" d="M 284.720522 148.764731 
L 284.720522 148.764731 
L 284.053474 153.893864 
L 283.192286 159.024679 
L 282.117258 164.149691 
L 280.806635 169.259184 
L 279.236728 174.340366 
L 277.382353 179.376334 
L 275.21774 184.344905 
L 272.718112 189.217492 
L 269.862026 193.958359 
L 266.63442 198.524715 
L 263.029958 202.868147 
L 259.05591 206.937674 
L 254.733598 210.684196 
L 250.097618 214.065455 
L 245.192772 217.050236 
L 240.069422 219.620659 
L 234.778561 221.772135 
L 229.367746 223.511352 
L 223.878542 224.853186 
L 218.345488 225.817403 
L 212.796226 226.425805 
L 207.252318 226.700036 
L 201.73036 226.660078 
L 196.243136 226.32328 
L 190.800676 225.703753 
L 186.482413 224.989205 
" style="fill:none;stroke:#000000;stroke-linecap:square;stroke-width:3;"/>
   </g>
   <g id="line2d_40">
    <path clip-path="url(#p114435e177)" d="M 186.482413 226.700036 
L 186.482413 148.764731 
L 284.720522 148.764731 
L 284.720522 226.700036 
L 186.482413 226.700036 
" style="fill:none;stroke:#d3d3d3;stroke-linecap:square;stroke-width:0.5;"/>
   </g>
   <g id="line2d_41">
    <path clip-path="url(#p114435e177)" d="M 296.561752 478.919629 
L 296.561752 478.919629 
L 298.643768 483.543676 
L 300.751947 488.125175 
L 302.897779 492.647666 
L 305.095518 497.08767 
L 307.36234 501.410471 
L 309.717516 505.562569 
L 312.178249 509.45766 
L 314.744663 512.950618 
L 317.350993 515.795826 
L 319.739479 517.639439 
L 321.463173 518.336874 
L 322.983209 518.317104 
L 325.385244 517.463803 
L 328.483209 515.578889 
L 331.873947 512.90392 
L 335.462868 509.686649 
L 335.462868 509.686649 
" style="fill:none;stroke:#000000;stroke-linecap:square;stroke-width:3;"/>
   </g>
   <g id="line2d_42">
    <path clip-path="url(#p114435e177)" d="M 296.561752 518.336874 
L 296.561752 478.919629 
L 335.462868 478.919629 
L 335.462868 518.336874 
L 296.561752 518.336874 
" style="fill:none;stroke:#d3d3d3;stroke-linecap:square;stroke-width:0.5;"/>
   </g>
   <g id="line2d_43">
    <path clip-path="url(#p114435e177)" d="M 385.914119 237.374965 
L 385.914119 237.374965 
L 383.676414 233.14433 
L 381.421137 228.924189 
L 379.147627 224.715112 
L 376.85517 220.517721 
L 374.542999 216.332701 
L 372.210285 212.16081 
L 369.856133 208.002888 
L 367.479574 203.859869 
L 365.079555 199.732798 
L 362.65493 195.622849 
L 360.204451 191.531345 
L 357.726752 187.459787 
L 355.220336 183.409891 
L 352.68356 179.383624 
L 350.114615 175.383259 
L 347.511505 171.411445 
L 344.872024 167.471292 
L 342.193731 163.566481 
L 339.473921 159.701417 
L 336.709607 155.881421 
L 333.89749 152.113006 
L 331.033961 148.404242 
L 328.115125 144.76528 
L 325.136894 141.209101 
L 322.09521 137.752613 
L 318.986548 134.418293 
L 315.808996 131.236715 
L 312.564561 128.250493 
L 309.264253 125.520502 
L 305.939598 123.135379 
L 302.669373 121.223639 
L 299.638077 119.954744 
L 297.205591 119.458789 
L 295.637146 119.594788 
L 294.319627 120.250344 
L 292.667852 121.857022 
L 290.927759 124.481289 
L 289.354621 127.820948 
L 288.019905 131.608533 
L 286.916588 135.677381 
L 286.017376 139.928963 
L 285.293676 144.303829 
L 284.720522 148.764731 
L 284.720522 148.764731 
" style="fill:none;stroke:#000000;stroke-linecap:square;stroke-width:3;"/>
   </g>
   <g id="line2d_44">
    <path clip-path="url(#p114435e177)" d="M 284.720522 237.374965 
L 284.720522 119.458789 
L 385.914119 119.458789 
L 385.914119 237.374965 
L 284.720522 237.374965 
" style="fill:none;stroke:#d3d3d3;stroke-linecap:square;stroke-width:0.5;"/>
   </g>
   <g id="line2d_45">
    <path clip-path="url(#p114435e177)" d="M 126.098904 280.687362 
L 130.990712 287.902396 
L 133.70137 291.638836 
L 136.538764 295.36252 
L 139.469792 299.066024 
L 142.473073 302.746808 
L 145.533978 306.404428 
L 148.642049 310.039394 
L 151.789558 313.652651 
L 154.970631 317.245335 
L 158.180698 320.818643 
L 161.416135 324.373776 
L 164.67401 327.911905 
L 167.951916 331.434159 
L 171.247844 334.941623 
L 174.560092 338.435339 
L 177.887196 341.916311 
L 181.22788 345.385515 
L 184.581016 348.843907 
L 187.945589 352.292435 
L 191.320674 355.732046 
L 194.705413 359.163701 
L 198.098998 362.588387 
L 201.50065 366.007131 
L 204.909609 369.421013 
L 208.325113 372.831185 
L 211.746389 376.238889 
L 215.17263 379.64548 
L 218.60298 383.052446 
L 222.036516 386.461443 
L 225.472219 389.874322 
L 228.908951 393.293173 
L 232.345421 396.720366 
L 235.780144 400.158606 
L 239.211394 403.61099 
L 242.637141 407.081079 
L 246.054981 410.572968 
L 249.46204 414.091364 
L 252.854863 417.641662 
L 256.229266 421.230005 
L 259.580173 424.863306 
L 262.901413 428.549221 
L 266.185501 432.296008 
L 269.423426 436.112247 
L 272.604498 440.006363 
L 275.716322 443.985921 
L 278.74503 448.056733 
L 281.675872 452.221884 
L 284.494222 456.480904 
L 287.186935 460.829355 
L 289.743799 465.259069 
L 292.15872 469.759038 
L 294.430315 474.316755 
L 296.561752 478.919629 
L 296.561752 478.919629 
" style="fill:none;stroke:#000000;stroke-linecap:square;stroke-width:3;"/>
   </g>
   <g id="line2d_46">
    <path clip-path="url(#p114435e177)" d="M 126.098904 478.919629 
L 126.098904 280.687362 
L 296.561752 280.687362 
L 296.561752 478.919629 
L 126.098904 478.919629 
" style="fill:none;stroke:#d3d3d3;stroke-linecap:square;stroke-width:0.5;"/>
   </g>
   <g id="line2d_47">
    <path clip-path="url(#p114435e177)" d="M 155.94047 175.95115 
L 155.94047 175.95115 
L 159.175457 174.027992 
L 162.097191 172.827765 
L 164.20111 172.468182 
L 165.229754 172.641567 
L 166.216313 173.34194 
L 167.614679 175.221398 
L 168.95524 178.159814 
L 170.00111 181.748175 
L 170.72044 185.709617 
L 171.138477 189.887203 
L 171.287693 194.190333 
L 171.195536 198.563127 
L 170.882502 202.968108 
L 171.146281 200.730529 
" style="fill:none;stroke:#000000;stroke-linecap:square;stroke-width:3;"/>
   </g>
   <g id="line2d_48">
    <path clip-path="url(#p114435e177)" d="M 155.94047 202.968108 
L 155.94047 172.468182 
L 171.287693 172.468182 
L 171.287693 202.968108 
L 155.94047 202.968108 
" style="fill:none;stroke:#d3d3d3;stroke-linecap:square;stroke-width:0.5;"/>
   </g>
   <g id="line2d_49">
    <path clip-path="url(#p114435e177)" d="M 171.146281 200.730529 
L 168.194721 199.399069 
L 164.409107 197.40267 
L 160.859753 195.20268 
L 157.624149 192.810153 
L 154.815893 190.25821 
L 152.600461 187.637506 
L 151.180694 185.165622 
L 150.639416 183.185562 
L 150.758171 181.688298 
L 151.540552 180.037191 
L 153.285255 178.031583 
L 155.94047 175.95115 
L 155.94047 175.95115 
" style="fill:none;stroke:#000000;stroke-linecap:square;stroke-width:3;"/>
   </g>
   <g id="line2d_50">
    <path clip-path="url(#p114435e177)" d="M 150.639416 200.730529 
L 150.639416 175.95115 
L 171.146281 175.95115 
L 171.146281 200.730529 
L 150.639416 200.730529 
" style="fill:none;stroke:#d3d3d3;stroke-linecap:square;stroke-width:0.5;"/>
   </g>
   <g id="line2d_51">
    <path clip-path="url(#p114435e177)" d="M 167.804114 219.840096 
L 164.523282 218.576644 
L 159.507525 216.313403 
L 154.59574 213.722025 
L 149.806162 210.751318 
L 145.168556 207.318062 
L 140.740108 203.284473 
L 136.651691 198.422356 
L 133.240415 192.394803 
L 131.312031 184.97456 
L 131.983661 176.872398 
L 135.238379 169.766062 
L 139.843874 164.384198 
L 144.910985 160.386273 
L 144.910985 160.386273 
" style="fill:none;stroke:#000000;stroke-linecap:square;stroke-width:3;"/>
   </g>
   <g id="line2d_52">
    <path clip-path="url(#p114435e177)" d="M 131.312031 219.840096 
L 131.312031 160.386273 
L 167.804114 160.386273 
L 167.804114 219.840096 
L 131.312031 219.840096 
" style="fill:none;stroke:#d3d3d3;stroke-linecap:square;stroke-width:0.5;"/>
   </g>
   <g id="line2d_53">
    <path clip-path="url(#p114435e177)" d="M 115.358239 263.367669 
L 104.560824 276.807134 
L 106.597548 284.440189 
L 109.237121 289.672901 
L 112.052257 294.279973 
L 114.980025 298.599826 
L 117.9902 302.749738 
L 121.063931 306.783862 
L 124.188346 310.731868 
L 127.354209 314.611994 
L 130.554669 318.436428 
L 133.78451 322.213839 
L 137.039669 325.950699 
L 140.316923 329.652025 
L 143.613667 333.32183 
L 146.92776 336.963401 
L 150.25741 340.579487 
L 153.601096 344.172429 
L 156.957497 347.744252 
L 160.325454 351.296732 
L 163.703922 354.831447 
L 167.09195 358.349819 
L 170.488648 361.853143 
L 173.89317 365.342619 
L 177.304696 368.819368 
L 180.722411 372.284458 
L 184.145493 375.738913 
L 187.573094 379.183737 
L 191.004322 382.619921 
L 194.438225 386.048464 
" style="fill:none;stroke:#000000;stroke-linecap:square;stroke-width:3;"/>
   </g>
   <g id="line2d_54">
    <path clip-path="url(#p114435e177)" d="M 104.560824 386.048464 
L 104.560824 263.367669 
L 194.438225 263.367669 
L 194.438225 386.048464 
L 104.560824 386.048464 
" style="fill:none;stroke:#d3d3d3;stroke-linecap:square;stroke-width:0.5;"/>
   </g>
   <g id="line2d_55">
    <path clip-path="url(#p114435e177)" d="M 194.438225 386.048464 
L 197.873768 389.47038 
L 201.309808 392.886714 
L 204.745072 396.29856 
L 208.178118 399.707071 
L 211.607302 403.113475 
L 215.030737 406.519096 
L 218.446236 409.925372 
L 221.851254 413.333874 
L 225.242823 416.746328 
L 228.617468 420.164646 
L 231.97112 423.590944 
L 235.299019 427.027576 
L 238.595618 430.477161 
L 241.854485 433.942608 
L 245.068232 437.427145 
L 248.228489 440.934339 
L 251.32594 444.468113 
L 254.35049 448.032761 
L 257.291563 451.632953 
L 260.138586 455.273723 
L 262.881633 458.960427 
L 265.512157 462.698632 
L 268.023701 466.493893 
L 270.412425 470.351368 
L 272.677344 474.275298 
L 274.820233 478.268441 
L 276.845269 482.331612 
L 278.758519 486.463503 
L 278.758519 486.463503 
" style="fill:none;stroke:#000000;stroke-linecap:square;stroke-width:3;"/>
   </g>
   <g id="line2d_56">
    <path clip-path="url(#p114435e177)" d="M 194.438225 486.463503 
L 194.438225 386.048464 
L 278.758519 386.048464 
L 278.758519 486.463503 
L 194.438225 486.463503 
" style="fill:none;stroke:#d3d3d3;stroke-linecap:square;stroke-width:0.5;"/>
   </g>
   <g id="line2d_57">
    <path clip-path="url(#p114435e177)" d="M 278.758519 486.463503 
" style="fill:none;stroke:#000000;stroke-linecap:square;stroke-width:3;"/>
   </g>
   <g id="line2d_58">
    <path clip-path="url(#p114435e177)" d="M 278.758519 486.463503 
L 278.758519 486.463503 
L 278.758519 486.463503 
L 278.758519 486.463503 
L 278.758519 486.463503 
" style="fill:none;stroke:#d3d3d3;stroke-linecap:square;stroke-width:0.5;"/>
   </g>
   <g id="line2d_59">
    <path clip-path="url(#p114435e177)" d="M 265.421386 146.706549 
L 265.421386 146.706549 
L 264.838572 151.189234 
L 264.095716 155.616229 
L 263.181551 159.975505 
L 262.084527 164.253414 
L 260.793072 168.434494 
L 259.295968 172.501341 
L 257.582865 176.434636 
L 255.644899 180.213415 
L 253.475354 183.815646 
L 251.070261 187.219153 
L 248.428834 190.402757 
L 245.553678 193.347416 
L 242.450853 196.037095 
L 239.129879 198.459225 
L 235.603753 200.604796 
L 231.888878 202.468243 
L 228.00474 204.047286 
L 223.973226 205.342726 
L 219.817683 206.358137 
L 215.561896 207.099401 
L 211.229217 207.574099 
L 206.841977 207.790846 
L 202.421236 207.758643 
L 197.986814 207.486303 
L 193.55759 206.982004 
L 189.151991 206.252946 
L 190.010536 206.439444 
" style="fill:none;stroke:#000000;stroke-linecap:square;stroke-width:3;"/>
   </g>
   <g id="line2d_60">
    <path clip-path="url(#p114435e177)" d="M 189.151991 207.790846 
L 189.151991 146.706549 
L 265.421386 146.706549 
L 265.421386 207.790846 
L 189.151991 207.790846 
" style="fill:none;stroke:#d3d3d3;stroke-linecap:square;stroke-width:0.5;"/>
   </g>
   <g id="line2d_61">
    <path clip-path="url(#p114435e177)" d="M 167.804114 219.840096 
L 166.323753 224.62286 
L 164.818073 228.72475 
L 163.102244 232.690119 
L 161.168046 236.486948 
L 159.007555 240.081348 
L 156.613913 243.440698 
L 153.981298 246.538179 
L 151.104253 249.357017 
L 147.977743 251.892002 
L 144.599734 254.147422 
L 140.97562 256.133574 
L 137.121102 257.864559 
L 133.061077 259.357628 
L 128.825547 260.632746 
L 124.445159 261.71158 
L 119.948038 262.616159 
L 115.358239 263.367669 
" style="fill:none;stroke:#000000;stroke-linecap:square;stroke-width:3;"/>
   </g>
   <g id="line2d_62">
    <path clip-path="url(#p114435e177)" d="M 115.358239 263.367669 
L 115.358239 219.840096 
L 167.804114 219.840096 
L 167.804114 263.367669 
L 115.358239 263.367669 
" style="fill:none;stroke:#d3d3d3;stroke-linecap:square;stroke-width:0.5;"/>
   </g>
   <g id="line2d_63">
    <path clip-path="url(#p114435e177)" d="M 278.758519 486.463503 
L 278.758519 486.463503 
L 280.892166 491.202149 
L 283.076941 495.949979 
L 285.334507 500.707706 
L 287.6951 505.476241 
L 290.202385 510.25667 
L 292.922353 515.049967 
L 295.960866 519.855399 
L 299.500884 524.663138 
L 303.883487 529.418746 
L 309.739697 533.851043 
L 317.723836 536.896156 
L 326.633568 536.893191 
L 334.099458 534.364943 
L 339.911222 530.868474 
L 344.679815 527.119468 
L 348.815018 523.416913 
L 348.815018 523.416913 
" style="fill:none;stroke:#000000;stroke-linecap:square;stroke-width:3;"/>
   </g>
   <g id="line2d_64">
    <path clip-path="url(#p114435e177)" d="M 278.758519 536.896156 
L 278.758519 486.463503 
L 348.815018 486.463503 
L 348.815018 536.896156 
L 278.758519 536.896156 
" style="fill:none;stroke:#d3d3d3;stroke-linecap:square;stroke-width:0.5;"/>
   </g>
   <g id="line2d_65">
    <path clip-path="url(#p114435e177)" d="M 403.190336 228.746201 
L 403.190336 228.746201 
L 400.915956 224.44623 
L 398.62217 220.154031 
L 396.308149 215.869956 
L 393.972992 211.594386 
L 391.615719 207.327739 
L 389.235263 203.070468 
L 386.830451 198.823075 
L 384.399998 194.586109 
L 381.942486 190.360179 
L 379.456344 186.14596 
L 376.939828 181.944205 
L 374.39099 177.755757 
L 371.807643 173.581567 
L 369.18732 169.422711 
L 366.52722 165.280417 
L 363.824142 161.156095 
L 361.0744 157.051373 
L 358.273715 152.968156 
L 355.417072 148.908683 
L 352.498533 144.875622 
L 349.51098 140.872185 
L 346.44576 136.902295 
L 343.292187 132.970819 
L 340.036808 129.083903 
L 336.662301 125.249491 
L 333.145759 121.478123 
L 329.455885 117.784284 
L 325.548204 114.188821 
L 321.356461 110.723701 
L 316.776499 107.442643 
L 311.636159 104.448351 
L 305.650847 101.971259 
L 298.46263 100.585061 
L 290.274515 101.417204 
L 282.823437 105.009343 
L 277.465503 110.093508 
L 273.83939 115.50454 
L 271.292946 120.884577 
L 269.422999 126.177873 
L 268.006999 131.3923 
L 266.916487 136.543558 
L 266.072044 141.644968 
L 265.421386 146.706549 
L 265.421386 146.706549 
" style="fill:none;stroke:#000000;stroke-linecap:square;stroke-width:3;"/>
   </g>
   <g id="line2d_66">
    <path clip-path="url(#p114435e177)" d="M 265.421386 228.746201 
L 265.421386 100.585061 
L 403.190336 100.585061 
L 403.190336 228.746201 
L 265.421386 228.746201 
" style="fill:none;stroke:#d3d3d3;stroke-linecap:square;stroke-width:0.5;"/>
   </g>
   <g id="line2d_67">
    <path clip-path="url(#p114435e177)" d="M 144.910985 160.386273 
L 144.910985 160.386273 
L 150.187009 157.26371 
L 156.45077 154.731924 
L 164.147284 153.55484 
L 172.827212 155.236493 
L 179.99651 160.019105 
L 184.521729 165.924517 
L 187.255024 171.843458 
L 188.941324 177.593438 
L 189.962432 183.194401 
L 190.513506 188.68282 
L 190.701832 194.086297 
L 190.58986 199.423712 
L 190.214628 204.707823 
L 190.010536 206.439444 
" style="fill:none;stroke:#000000;stroke-linecap:square;stroke-width:3;"/>
   </g>
   <g id="line2d_68">
    <path clip-path="url(#p114435e177)" d="M 144.910985 206.439444 
L 144.910985 153.55484 
L 190.701832 153.55484 
L 190.701832 206.439444 
L 144.910985 206.439444 
" style="fill:none;stroke:#d3d3d3;stroke-linecap:square;stroke-width:0.5;"/>
   </g>
   <g id="line2d_69">
    <path clip-path="url(#p114435e177)" d="M 348.815018 523.416913 
L 348.815018 523.416913 
L 351.9867 520.74684 
L 355.624636 518.007629 
L 359.49088 515.252069 
L 363.478594 512.477832 
L 367.530935 509.673024 
L 371.61342 506.82503 
L 375.702744 503.922307 
L 379.78162 500.954591 
L 383.836139 497.91276 
L 387.854314 494.788667 
L 391.825211 491.575004 
L 395.738428 488.265237 
L 399.583745 484.853571 
L 403.350921 481.334978 
L 407.029569 477.705248 
L 410.609102 473.961073 
L 414.078742 470.100154 
L 417.427583 466.121307 
L 420.644709 462.024577 
L 423.719357 457.811334 
L 426.641123 453.484331 
L 429.400194 449.047732 
L 431.987604 444.50708 
L 434.395481 439.8692 
L 436.61727 435.142053 
L 438.647923 430.334519 
L 440.484019 425.456151 
L 442.123825 420.516896 
L 443.56728 415.526813 
L 444.815909 410.495802 
L 445.87268 405.433375 
L 446.741823 400.348457 
L 447.428613 395.249249 
L 447.939154 390.143135 
" style="fill:none;stroke:#000000;stroke-linecap:square;stroke-width:3;"/>
   </g>
   <g id="line2d_70">
    <path clip-path="url(#p114435e177)" d="M 348.815018 523.416913 
L 348.815018 390.143135 
L 447.939154 390.143135 
L 447.939154 523.416913 
L 348.815018 523.416913 
" style="fill:none;stroke:#d3d3d3;stroke-linecap:square;stroke-width:0.5;"/>
   </g>
   <g id="line2d_71">
    <path clip-path="url(#p114435e177)" d="M 447.939154 390.143135 
L 448.280156 385.036641 
L 448.458737 379.935428 
L 448.482244 374.844326 
L 448.358103 369.767384 
L 448.093693 364.707938 
L 447.696247 359.668685 
L 447.172787 354.65176 
L 446.530064 349.658815 
L 445.77453 344.691088 
L 444.912315 339.749466 
L 443.949222 334.834547 
L 442.890722 329.946689 
L 441.741966 325.086054 
L 440.507789 320.252647 
L 439.19273 315.446344 
L 437.801041 310.666923 
L 436.336707 305.914082 
L 434.80346 301.187459 
L 433.204797 296.486648 
L 431.543994 291.811206 
L 429.824122 287.160667 
L 428.048058 282.53455 
L 426.218505 277.932361 
L 424.337996 273.353602 
L 422.408914 268.797772 
L 420.433496 264.26437 
L 418.413845 259.752901 
L 416.351941 255.262872 
L 414.249647 250.793797 
L 412.108717 246.345195 
L 409.930807 241.916596 
L 407.717473 237.507534 
L 405.470187 233.117552 
L 403.190336 228.746201 
L 403.190336 228.746201 
" style="fill:none;stroke:#000000;stroke-linecap:square;stroke-width:3;"/>
   </g>
   <g id="line2d_72">
    <path clip-path="url(#p114435e177)" d="M 403.190336 390.143135 
L 403.190336 228.746201 
L 448.482244 228.746201 
L 448.482244 390.143135 
L 403.190336 390.143135 
" style="fill:none;stroke:#d3d3d3;stroke-linecap:square;stroke-width:0.5;"/>
   </g>
   <g id="line2d_73">
    <path clip-path="url(#p114435e177)" d="M 403.190336 228.746201 
" style="fill:none;stroke:#000000;stroke-linecap:square;stroke-width:3;"/>
   </g>
   <g id="line2d_74">
    <path clip-path="url(#p114435e177)" d="M 403.190336 228.746201 
L 403.190336 228.746201 
L 403.190336 228.746201 
L 403.190336 228.746201 
L 403.190336 228.746201 
" style="fill:none;stroke:#d3d3d3;stroke-linecap:square;stroke-width:0.5;"/>
   </g>
   <g id="line2d_75">
    <path clip-path="url(#p114435e177)" d="M 115.358239 263.367669 
L 115.358239 263.367669 
L 115.358239 263.367669 
" style="fill:none;stroke:#000000;stroke-linecap:square;stroke-width:3;"/>
   </g>
   <g id="line2d_76">
    <path clip-path="url(#p114435e177)" d="M 115.358239 263.367669 
L 115.358239 263.367669 
L 115.358239 263.367669 
L 115.358239 263.367669 
L 115.358239 263.367669 
" style="fill:none;stroke:#d3d3d3;stroke-linecap:square;stroke-width:0.5;"/>
   </g>
   <g id="line2d_77">
    <path clip-path="url(#p114435e177)" d="M 115.358239 263.367669 
L 115.358239 263.367669 
L 115.358239 263.367669 
" style="fill:none;stroke:#000000;stroke-linecap:square;stroke-width:3;"/>
   </g>
   <g id="line2d_78">
    <path clip-path="url(#p114435e177)" d="M 115.358239 263.367669 
L 115.358239 263.367669 
L 115.358239 263.367669 
L 115.358239 263.367669 
L 115.358239 263.367669 
" style="fill:none;stroke:#d3d3d3;stroke-linecap:square;stroke-width:0.5;"/>
   </g>
   <g id="line2d_79">
    <path clip-path="url(#p114435e177)" d="M 150.425728 153.983651 
L 152.287725 154.10011 
L 154.119148 154.447575 
L 155.889925 155.020341 
L 157.57098 155.809003 
L 159.13471 156.800611 
L 160.555439 157.978882 
L 161.809838 159.324471 
L 162.877311 160.815281 
L 163.740329 162.426835 
L 164.384722 164.13267 
L 164.799908 165.904777 
L 164.979071 167.714058 
L 164.919268 169.530804 
L 164.621482 171.325185 
L 164.090601 173.067736 
L 163.335344 174.729845 
L 162.368112 176.284221 
L 161.204785 177.705341 
L 159.864467 178.969869 
L 158.369165 180.057042 
L 156.743433 180.94901 
L 155.013963 181.631125 
L 153.209155 182.092188 
L 151.358643 182.324628 
L 149.492813 182.324628 
L 147.642301 182.092188 
L 145.837492 181.631125 
L 144.108023 180.94901 
L 142.48229 180.057042 
L 140.986988 178.969869 
L 139.64667 177.705341 
L 138.483344 176.284221 
L 137.516111 174.729845 
L 136.760854 173.067736 
L 136.229974 171.325185 
L 135.932188 169.530804 
L 135.872385 167.714058 
L 136.051548 165.904777 
L 136.466734 164.13267 
L 137.111126 162.426835 
L 137.974144 160.815281 
L 139.041617 159.324471 
L 140.296017 157.978882 
L 141.716746 156.800611 
L 143.280476 155.809003 
L 144.961531 155.020341 
L 146.732308 154.447575 
L 148.563731 154.10011 
L 150.425728 153.983651 
" style="fill:none;stroke:#808080;stroke-linecap:square;stroke-width:1.5;"/>
   </g>
   <g id="line2d_80">
    <path clip-path="url(#p114435e177)" d="M 116.808995 258.533108 
L 118.670992 258.649567 
L 120.502415 258.997032 
L 122.273192 259.569798 
L 123.954247 260.35846 
L 125.517977 261.350068 
L 126.938706 262.528339 
L 128.193105 263.873928 
L 129.260578 265.364739 
L 130.123596 266.976292 
L 130.767989 268.682128 
L 131.183175 270.454234 
L 131.362338 272.263515 
L 131.302535 274.080261 
L 131.004749 275.874642 
L 130.473868 277.617193 
L 129.718611 279.279302 
L 128.751379 280.833678 
L 127.588052 282.254798 
L 126.247734 283.519326 
L 124.752432 284.606499 
L 123.1267 285.498467 
L 121.39723 286.180582 
L 119.592422 286.641645 
L 117.74191 286.874085 
L 115.87608 286.874085 
L 114.025568 286.641645 
L 112.220759 286.180582 
L 110.49129 285.498467 
L 108.865557 284.606499 
L 107.370255 283.519326 
L 106.029937 282.254798 
L 104.866611 280.833678 
L 103.899378 279.279302 
L 103.144121 277.617193 
L 102.613241 275.874642 
L 102.315455 274.080261 
L 102.255652 272.263515 
L 102.434815 270.454234 
L 102.850001 268.682128 
L 103.494393 266.976292 
L 104.357411 265.364739 
L 105.424884 263.873928 
L 106.679284 262.528339 
L 108.100013 261.350068 
L 109.663743 260.35846 
L 111.344798 259.569798 
L 113.115575 258.997032 
L 114.946998 258.649567 
L 116.808995 258.533108 
" style="fill:none;stroke:#808080;stroke-linecap:square;stroke-width:1.5;"/>
   </g>
   <g id="line2d_81">
    <path clip-path="url(#p114435e177)" d="M 201.381669 365.254764 
L 203.243666 365.371223 
L 205.075089 365.718688 
L 206.845866 366.291454 
L 208.526921 367.080116 
L 210.090651 368.071723 
L 211.51138 369.249995 
L 212.76578 370.595584 
L 213.833252 372.086394 
L 214.69627 373.697948 
L 215.340663 375.403783 
L 215.755849 377.17589 
L 215.935012 378.985171 
L 215.875209 380.801917 
L 215.577423 382.596297 
L 215.046543 384.338849 
L 214.291286 386.000958 
L 213.324053 387.555334 
L 212.160727 388.976453 
L 210.820409 390.240982 
L 209.325107 391.328155 
L 207.699374 392.220123 
L 205.969904 392.902238 
L 204.165096 393.363301 
L 202.314584 393.59574 
L 200.448754 393.59574 
L 198.598242 393.363301 
L 196.793434 392.902238 
L 195.063964 392.220123 
L 193.438231 391.328155 
L 191.94293 390.240982 
L 190.602611 388.976453 
L 189.439285 387.555334 
L 188.472053 386.000958 
L 187.716796 384.338849 
L 187.185915 382.596297 
L 186.888129 380.801917 
L 186.828326 378.985171 
L 187.007489 377.17589 
L 187.422675 375.403783 
L 188.067068 373.697948 
L 188.930086 372.086394 
L 189.997559 370.595584 
L 191.251958 369.249995 
L 192.672687 368.071723 
L 194.236417 367.080116 
L 195.917472 366.291454 
L 197.688249 365.718688 
L 199.519672 365.371223 
L 201.381669 365.254764 
" style="fill:none;stroke:#808080;stroke-linecap:square;stroke-width:1.5;"/>
   </g>
   <g id="line2d_82">
    <path clip-path="url(#p114435e177)" d="M 287.660135 468.506505 
L 289.522132 468.622964 
L 291.353555 468.970429 
L 293.124332 469.543195 
L 294.805387 470.331857 
L 296.369117 471.323465 
L 297.789846 472.501736 
L 299.044246 473.847325 
L 300.111718 475.338136 
L 300.974736 476.949689 
L 301.619129 478.655525 
L 302.034315 480.427631 
L 302.213478 482.236912 
L 302.153675 484.053658 
L 301.855889 485.848039 
L 301.325009 487.59059 
L 300.569752 489.252699 
L 299.602519 490.807075 
L 298.439193 492.228195 
L 297.098875 493.492723 
L 295.603573 494.579896 
L 293.97784 495.471864 
L 292.24837 496.153979 
L 290.443562 496.615042 
L 288.59305 496.847482 
L 286.72722 496.847482 
L 284.876708 496.615042 
L 283.0719 496.153979 
L 281.34243 495.471864 
L 279.716697 494.579896 
L 278.221396 493.492723 
L 276.881078 492.228195 
L 275.717751 490.807075 
L 274.750519 489.252699 
L 273.995262 487.59059 
L 273.464381 485.848039 
L 273.166595 484.053658 
L 273.106792 482.236912 
L 273.285955 480.427631 
L 273.701141 478.655525 
L 274.345534 476.949689 
L 275.208552 475.338136 
L 276.276025 473.847325 
L 277.530424 472.501736 
L 278.951153 471.323465 
L 280.514883 470.331857 
L 282.195938 469.543195 
L 283.966715 468.970429 
L 285.798138 468.622964 
L 287.660135 468.506505 
" style="fill:none;stroke:#808080;stroke-linecap:square;stroke-width:1.5;"/>
   </g>
   <g id="line2d_83">
    <path clip-path="url(#p114435e177)" d="M 342.138943 502.36672 
L 344.00094 502.48318 
L 345.832363 502.830645 
L 347.60314 503.403411 
L 349.284195 504.192072 
L 350.847926 505.18368 
L 352.268655 506.361952 
L 353.523054 507.70754 
L 354.590527 509.198351 
L 355.453545 510.809905 
L 356.097937 512.51574 
L 356.513124 514.287847 
L 356.692286 516.097128 
L 356.632483 517.913874 
L 356.334697 519.708254 
L 355.803817 521.450805 
L 355.04856 523.112915 
L 354.081327 524.667291 
L 352.918001 526.08841 
L 351.577683 527.352938 
L 350.082381 528.440112 
L 348.456648 529.332079 
L 346.727179 530.014195 
L 344.92237 530.475258 
L 343.071859 530.707697 
L 341.206028 530.707697 
L 339.355516 530.475258 
L 337.550708 530.014195 
L 335.821239 529.332079 
L 334.195506 528.440112 
L 332.700204 527.352938 
L 331.359886 526.08841 
L 330.196559 524.667291 
L 329.229327 523.112915 
L 328.47407 521.450805 
L 327.94319 519.708254 
L 327.645403 517.913874 
L 327.5856 516.097128 
L 327.764763 514.287847 
L 328.179949 512.51574 
L 328.824342 510.809905 
L 329.68736 509.198351 
L 330.754833 507.70754 
L 332.009232 506.361952 
L 333.429961 505.18368 
L 334.993691 504.192072 
L 336.674747 503.403411 
L 338.445524 502.830645 
L 340.276946 502.48318 
L 342.138943 502.36672 
" style="fill:none;stroke:#808080;stroke-linecap:square;stroke-width:1.5;"/>
   </g>
   <g id="line2d_84">
    <path clip-path="url(#p114435e177)" d="M 438.263621 375.194652 
L 440.125618 375.311111 
L 441.957041 375.658576 
L 443.727818 376.231342 
L 445.408873 377.020004 
L 446.972603 378.011612 
L 448.393332 379.189883 
L 449.647732 380.535472 
L 450.715204 382.026282 
L 451.578222 383.637836 
L 452.222615 385.343671 
L 452.637801 387.115778 
L 452.816964 388.925059 
L 452.757161 390.741805 
L 452.459375 392.536186 
L 451.928494 394.278737 
L 451.173237 395.940846 
L 450.206005 397.495222 
L 449.042679 398.916342 
L 447.70236 400.18087 
L 446.207059 401.268043 
L 444.581326 402.160011 
L 442.851856 402.842126 
L 441.047048 403.303189 
L 439.196536 403.535629 
L 437.330706 403.535629 
L 435.480194 403.303189 
L 433.675386 402.842126 
L 431.945916 402.160011 
L 430.320183 401.268043 
L 428.824881 400.18087 
L 427.484563 398.916342 
L 426.321237 397.495222 
L 425.354004 395.940846 
L 424.598747 394.278737 
L 424.067867 392.536186 
L 423.770081 390.741805 
L 423.710278 388.925059 
L 423.889441 387.115778 
L 424.304627 385.343671 
L 424.94902 383.637836 
L 425.812038 382.026282 
L 426.87951 380.535472 
L 428.13391 379.189883 
L 429.554639 378.011612 
L 431.118369 377.020004 
L 432.799424 376.231342 
L 434.570201 375.658576 
L 436.401624 375.311111 
L 438.263621 375.194652 
" style="fill:none;stroke:#808080;stroke-linecap:square;stroke-width:1.5;"/>
   </g>
   <g id="line2d_85">
    <path clip-path="url(#p114435e177)" d="M 394.552228 218.875522 
L 396.414224 218.991982 
L 398.245647 219.339447 
L 400.016424 219.912213 
L 401.69748 220.700874 
L 403.26121 221.692482 
L 404.681939 222.870754 
L 405.936338 224.216343 
L 407.003811 225.707153 
L 407.866829 227.318707 
L 408.511222 229.024542 
L 408.926408 230.796649 
L 409.105571 232.60593 
L 409.045768 234.422676 
L 408.747981 236.217056 
L 408.217101 237.959608 
L 407.461844 239.621717 
L 406.494612 241.176093 
L 405.331285 242.597212 
L 403.990967 243.86174 
L 402.495665 244.948914 
L 400.869932 245.840881 
L 399.140463 246.522997 
L 397.335655 246.98406 
L 395.485143 247.216499 
L 393.619312 247.216499 
L 391.7688 246.98406 
L 389.963992 246.522997 
L 388.234523 245.840881 
L 386.60879 244.948914 
L 385.113488 243.86174 
L 383.77317 242.597212 
L 382.609844 241.176093 
L 381.642611 239.621717 
L 380.887354 237.959608 
L 380.356474 236.217056 
L 380.058688 234.422676 
L 379.998885 232.60593 
L 380.178047 230.796649 
L 380.593234 229.024542 
L 381.237626 227.318707 
L 382.100644 225.707153 
L 383.168117 224.216343 
L 384.422516 222.870754 
L 385.843245 221.692482 
L 387.406976 220.700874 
L 389.088031 219.912213 
L 390.858808 219.339447 
L 392.690231 218.991982 
L 394.552228 218.875522 
" style="fill:none;stroke:#808080;stroke-linecap:square;stroke-width:1.5;"/>
   </g>
   <g id="line2d_86">
    <path clip-path="url(#p114435e177)" d="M 394.552228 218.875522 
L 396.414224 218.991982 
L 398.245647 219.339447 
L 400.016424 219.912213 
L 401.69748 220.700874 
L 403.26121 221.692482 
L 404.681939 222.870754 
L 405.936338 224.216343 
L 407.003811 225.707153 
L 407.866829 227.318707 
L 408.511222 229.024542 
L 408.926408 230.796649 
L 409.105571 232.60593 
L 409.045768 234.422676 
L 408.747981 236.217056 
L 408.217101 237.959608 
L 407.461844 239.621717 
L 406.494612 241.176093 
L 405.331285 242.597212 
L 403.990967 243.86174 
L 402.495665 244.948914 
L 400.869932 245.840881 
L 399.140463 246.522997 
L 397.335655 246.98406 
L 395.485143 247.216499 
L 393.619312 247.216499 
L 391.7688 246.98406 
L 389.963992 246.522997 
L 388.234523 245.840881 
L 386.60879 244.948914 
L 385.113488 243.86174 
L 383.77317 242.597212 
L 382.609844 241.176093 
L 381.642611 239.621717 
L 380.887354 237.959608 
L 380.356474 236.217056 
L 380.058688 234.422676 
L 379.998885 232.60593 
L 380.178047 230.796649 
L 380.593234 229.024542 
L 381.237626 227.318707 
L 382.100644 225.707153 
L 383.168117 224.216343 
L 384.422516 222.870754 
L 385.843245 221.692482 
L 387.406976 220.700874 
L 389.088031 219.912213 
L 390.858808 219.339447 
L 392.690231 218.991982 
L 394.552228 218.875522 
" style="fill:none;stroke:#808080;stroke-linecap:square;stroke-width:1.5;"/>
   </g>
   <g id="line2d_87">
    <path clip-path="url(#p114435e177)" d="M 275.070954 133.550579 
L 276.932951 133.667038 
L 278.764373 134.014504 
L 280.535151 134.587269 
L 282.216206 135.375931 
L 283.779936 136.367539 
L 285.200665 137.545811 
L 286.455064 138.891399 
L 287.522537 140.38221 
L 288.385555 141.993764 
L 289.029948 143.699599 
L 289.445134 145.471706 
L 289.624297 147.280986 
L 289.564494 149.097733 
L 289.266707 150.892113 
L 288.735827 152.634664 
L 287.98057 154.296774 
L 287.013338 155.85115 
L 285.850011 157.272269 
L 284.509693 158.536797 
L 283.014391 159.623971 
L 281.388658 160.515938 
L 279.659189 161.198054 
L 277.854381 161.659116 
L 276.003869 161.891556 
L 274.138039 161.891556 
L 272.287527 161.659116 
L 270.482718 161.198054 
L 268.753249 160.515938 
L 267.127516 159.623971 
L 265.632214 158.536797 
L 264.291896 157.272269 
L 263.12857 155.85115 
L 262.161337 154.296774 
L 261.40608 152.634664 
L 260.8752 150.892113 
L 260.577414 149.097733 
L 260.517611 147.280986 
L 260.696774 145.471706 
L 261.11196 143.699599 
L 261.756352 141.993764 
L 262.61937 140.38221 
L 263.686843 138.891399 
L 264.941243 137.545811 
L 266.361972 136.367539 
L 267.925702 135.375931 
L 269.606757 134.587269 
L 271.377534 134.014504 
L 273.208957 133.667038 
L 275.070954 133.550579 
" style="fill:none;stroke:#808080;stroke-linecap:square;stroke-width:1.5;"/>
   </g>
   <g id="line2d_88"/>
   <g id="line2d_89"/>
   <g id="line2d_90"/>
   <g id="line2d_91"/>
   <g id="line2d_92"/>
   <g id="line2d_93"/>
   <g id="line2d_94"/>
   <g id="line2d_95"/>
   <g id="line2d_96"/>
   <g id="line2d_97"/>
   <g id="line2d_98"/>
   <g id="line2d_99"/>
   <g id="line2d_100"/>
   <g id="line2d_101"/>
   <g id="line2d_102"/>
   <g id="line2d_103"/>
   <g id="line2d_104"/>
   <g id="line2d_105"/>
   <g id="line2d_106"/>
   <g id="line2d_107"/>
   <g id="line2d_108"/>
   <g id="line2d_109"/>
   <g id="line2d_110"/>
   <g id="line2d_111"/>
   <g id="line2d_112"/>
   <g id="line2d_113"/>
   <g id="line2d_114"/>
   <g id="line2d_115"/>
   <g id="line2d_116"/>
   <g id="line2d_117"/>
   <g id="line2d_118"/>
   <g id="line2d_119"/>
   <g id="line2d_120"/>
   <g id="line2d_121"/>
   <g id="line2d_122"/>
   <g id="line2d_123"/>
   <g id="line2d_124"/>
   <g id="line2d_125"/>
   <g id="line2d_126"/>
   <g id="line2d_127"/>
   <g id="line2d_128"/>
   <g id="line2d_129"/>
   <g id="line2d_130"/>
   <g id="line2d_131"/>
   <g id="line2d_132"/>
   <g id="line2d_133"/>
   <g id="line2d_134"/>
   <g id="line2d_135"/>
   <g id="line2d_136"/>
   <g id="line2d_137"/>
   <g id="line2d_138"/>
   <g id="patch_3">
    <path d="M 90 630 
L 90 86.4 
" style="fill:none;stroke:#000000;stroke-linecap:square;stroke-linejoin:miter;stroke-width:0.8;"/>
   </g>
   <g id="patch_4">
    <path d="M 648 630 
L 648 86.4 
" style="fill:none;stroke:#000000;stroke-linecap:square;stroke-linejoin:miter;stroke-width:0.8;"/>
   </g>
   <g id="patch_5">
    <path d="M 90 630 
L 648 630 
" style="fill:none;stroke:#000000;stroke-linecap:square;stroke-linejoin:miter;stroke-width:0.8;"/>
   </g>
   <g id="patch_6">
    <path d="M 90 86.4 
L 648 86.4 
" style="fill:none;stroke:#000000;stroke-linecap:square;stroke-linejoin:miter;stroke-width:0.8;"/>
   </g>
   <g id="text_13">
    <!-- 0 -->
    <g transform="translate(53.844352 476.088454)scale(0.1 -0.1)">
     <use xlink:href="#DejaVuSans-30"/>
    </g>
   </g>
   <g id="text_14">
    <!-- 0 -->
    <g transform="translate(53.844352 461.903394)scale(0.1 -0.1)">
     <use xlink:href="#DejaVuSans-30"/>
    </g>
   </g>
   <g id="text_15">
    <!-- 0 -->
    <g transform="translate(53.844352 447.718333)scale(0.1 -0.1)">
     <use xlink:href="#DejaVuSans-30"/>
    </g>
   </g>
  </g>
 </g>
 <defs>
  <clipPath id="p114435e177">
   <rect height="543.6" width="558" x="90" y="86.4"/>
  </clipPath>
 </defs>
</svg>
