<?xml version="1.0" encoding="utf-8" standalone="no"?>
<!DOCTYPE svg PUBLIC "-//W3C//DTD SVG 1.1//EN"
  "http://www.w3.org/Graphics/SVG/1.1/DTD/svg11.dtd">
<svg height="720pt" version="1.1" viewBox="0 0 720 720" width="720pt" xmlns="http://www.w3.org/2000/svg" xmlns:xlink="http://www.w3.org/1999/xlink">
 <metadata>
  <rdf:RDF xmlns:cc="http://creativecommons.org/ns#" xmlns:dc="http://purl.org/dc/elements/1.1/" xmlns:rdf="http://www.w3.org/1999/02/22-rdf-syntax-ns#">
   <cc:Work>
    <dc:type rdf:resource="http://purl.org/dc/dcmitype/StillImage"/>
    <dc:date>2022-01-11T13:26:05.413251</dc:date>
    <dc:format>image/svg+xml</dc:format>
    <dc:creator>
     <cc:Agent>
      <dc:title>Matplotlib v3.4.3, https://matplotlib.org/</dc:title>
     </cc:Agent>
    </dc:creator>
   </cc:Work>
  </rdf:RDF>
 </metadata>
 <defs>
  <style type="text/css">*{stroke-linecap:butt;stroke-linejoin:round;}</style>
 </defs>
 <g id="figure_1">
  <g id="patch_1">
   <path d="M 0 720 
L 720 720 
L 720 0 
L 0 0 
z
" style="fill:none;"/>
  </g>
  <g id="axes_1">
   <g id="patch_2">
    <path d="M 90 630 
L 648 630 
L 648 86.4 
L 90 86.4 
z
" style="fill:#ffffff;"/>
   </g>
   <g id="PathCollection_1">
    <defs>
     <path d="M 0.972304 -8.870829 
Q -1.277159 -8.870829 -2.413438 -6.653699 
Q -3.545098 -4.441189 -3.545098 0.006929 
Q -3.545098 4.436569 -2.413438 6.653699 
Q -1.277159 8.870829 0.972304 8.870829 
Q 3.240243 8.870829 4.371903 6.653699 
Q 5.508182 4.436569 5.508182 0.006929 
Q 5.508182 -4.441189 4.371903 -6.653699 
Q 3.240243 -8.870829 0.972304 -8.870829 
z
M 0.972304 -11.18034 
Q 4.598235 -11.18034 6.51051 -8.311928 
Q 8.422784 -5.448135 8.422784 0.006929 
Q 8.422784 5.448135 6.51051 8.316547 
Q 4.598235 11.18034 0.972304 11.18034 
Q -2.649008 11.18034 -4.561283 8.316547 
Q -6.473558 5.448135 -6.473558 0.006929 
Q -6.473558 -5.448135 -4.561283 -8.311928 
Q -2.649008 -11.18034 0.972304 -11.18034 
z
" id="mc3fd68016c" style="stroke:#808080;"/>
    </defs>
    <g clip-path="url(#p92cc90fdab)">
     <use style="fill:#808080;stroke:#808080;" x="176.063113" xlink:href="#mc3fd68016c" y="119.793233"/>
    </g>
   </g>
   <g id="PathCollection_2">
    <defs>
     <path d="M -4.535873 8.63565 
L 0.404946 8.63565 
L 0.404946 -8.424791 
L -4.971969 -7.346533 
L -4.971969 -10.102082 
L 0.376192 -11.18034 
L 3.400108 -11.18034 
L 3.400108 8.63565 
L 8.340927 8.63565 
L 8.340927 11.18034 
L -4.535873 11.18034 
L -4.535873 8.63565 
z
" id="m6a657271e8" style="stroke:#808080;"/>
    </defs>
    <g clip-path="url(#p92cc90fdab)">
     <use style="fill:#808080;stroke:#808080;" x="232.565648" xlink:href="#m6a657271e8" y="345.500019"/>
    </g>
   </g>
   <g id="PathCollection_3">
    <defs>
     <path d="M -2.294912 8.680651 
L 8.075736 8.680651 
L 8.075736 11.18034 
L -5.867913 11.18034 
L -5.867913 8.680651 
Q -4.177916 6.929457 -1.259259 3.982555 
Q 1.664105 1.030945 2.4126 0.174178 
Q 3.838976 -1.426376 4.403877 -2.537349 
Q 4.973486 -3.648321 4.973486 -4.721634 
Q 4.973486 -6.472828 3.744825 -7.574386 
Q 2.516165 -8.680651 0.543718 -8.680651 
Q -0.854413 -8.680651 -2.407892 -8.195778 
Q -3.956663 -7.710904 -5.72198 -6.722326 
L -5.72198 -9.725719 
Q -3.928418 -10.445968 -2.370232 -10.813154 
Q -0.807338 -11.18034 0.487227 -11.18034 
Q 3.900173 -11.18034 5.929111 -9.471513 
Q 7.958048 -7.767394 7.958048 -4.914642 
Q 7.958048 -3.558879 7.449637 -2.344341 
Q 6.945933 -1.13451 5.604292 0.513119 
Q 5.237107 0.941502 3.264659 2.979855 
Q 1.296919 5.018207 -2.294912 8.680651 
z
" id="m609b4a0639" style="stroke:#808080;"/>
    </defs>
    <g clip-path="url(#p92cc90fdab)">
     <use style="fill:#808080;stroke:#808080;" x="280.017229" xlink:href="#m609b4a0639" y="575.218284"/>
    </g>
   </g>
   <g id="PathCollection_4">
    <defs>
     <path d="M 3.77605 -0.861447 
Q 5.868466 -0.413402 7.041697 1.004637 
Q 8.219548 2.418057 8.219548 4.496617 
Q 8.219548 7.683741 6.025513 9.43435 
Q 3.831478 11.18034 -0.210165 11.18034 
Q -1.563539 11.18034 -3.000054 10.912437 
Q -4.436569 10.644533 -5.965465 10.108727 
L -5.965465 7.295743 
Q -4.755282 8.002454 -3.314147 8.362737 
Q -1.868394 8.723021 -0.293308 8.723021 
Q 2.445772 8.723021 3.882287 7.64217 
Q 5.318802 6.561319 5.318802 4.496617 
Q 5.318802 2.588961 3.983905 1.517348 
Q 2.649008 0.441116 0.270213 0.441116 
L -2.242535 0.441116 
L -2.242535 -1.956155 
L 0.385688 -1.956155 
Q 2.533533 -1.956155 3.674431 -2.815293 
Q 4.815329 -3.674431 4.815329 -5.291088 
Q 4.815329 -6.949317 3.637479 -7.836169 
Q 2.464248 -8.72764 0.270213 -8.72764 
Q -0.930733 -8.72764 -2.302582 -8.464356 
Q -3.674431 -8.20569 -5.318802 -7.660646 
L -5.318802 -10.256536 
Q -3.655955 -10.718438 -2.205582 -10.949389 
Q -0.75521 -11.18034 0.528878 -11.18034 
Q 3.849954 -11.18034 5.780705 -9.66992 
Q 7.716074 -8.164119 7.716074 -5.595944 
Q 7.716074 -3.803764 6.690652 -2.570485 
Q 5.665229 -1.337207 3.77605 -0.861447 
z
" id="mfa05cc4042" style="stroke:#808080;"/>
    </defs>
    <g clip-path="url(#p92cc90fdab)">
     <use style="fill:#808080;stroke:#808080;" x="326.329271" xlink:href="#mfa05cc4042" y="496.594471"/>
    </g>
   </g>
   <g id="PathCollection_5">
    <defs>
     <path d="M 2.695646 -8.544598 
L -4.943215 3.392919 
L 2.695646 3.392919 
L 2.695646 -8.544598 
z
M 1.900131 -11.18034 
L 5.705184 -11.18034 
L 5.705184 3.392919 
L 8.896829 3.392919 
L 8.896829 5.908855 
L 5.705184 5.908855 
L 5.705184 11.18034 
L 2.695646 11.18034 
L 2.695646 5.908855 
L -7.396852 5.908855 
L -7.396852 2.99037 
L 1.900131 -11.18034 
z
" id="ma2f40e8277" style="stroke:#808080;"/>
    </defs>
    <g clip-path="url(#p92cc90fdab)">
     <use style="fill:#808080;stroke:#808080;" x="384.895373" xlink:href="#ma2f40e8277" y="479.446932"/>
    </g>
   </g>
   <g id="PathCollection_6">
    <defs>
     <path d="M -5.008473 -11.18034 
L 6.639575 -11.18034 
L 6.639575 -8.679629 
L -2.291535 -8.679629 
L -2.291535 -3.306861 
Q -1.647555 -3.527789 -1.003575 -3.635902 
Q -0.354894 -3.744015 0.293787 -3.744015 
Q 3.964943 -3.744015 6.108409 -1.732165 
Q 8.256576 0.279685 8.256576 3.715812 
Q 8.256576 7.255352 6.052002 9.220196 
Q 3.847428 11.18034 -0.16217 11.18034 
Q -1.544142 11.18034 -2.97782 10.945311 
Q -4.406798 10.710281 -5.934488 10.240223 
L -5.934488 7.255352 
Q -4.613624 7.974541 -3.203448 8.327085 
Q -1.793273 8.679629 -0.223278 8.679629 
Q 2.319738 8.679629 3.800422 7.344663 
Q 5.285807 6.009697 5.285807 3.715812 
Q 5.285807 1.426627 3.800422 0.091661 
Q 2.319738 -1.248005 -0.223278 -1.248005 
Q -1.412526 -1.248005 -2.597073 -0.984772 
Q -3.77692 -0.72154 -5.008473 -0.16217 
L -5.008473 -11.18034 
z
" id="m7776b0d0c0" style="stroke:#808080;"/>
    </defs>
    <g clip-path="url(#p92cc90fdab)">
     <use style="fill:#808080;stroke:#808080;" x="418.565092" xlink:href="#m7776b0d0c0" y="354.582054"/>
    </g>
   </g>
   <g id="PathCollection_7">
    <defs>
     <path d="M 1.286397 -1.175541 
Q -0.676687 -1.175541 -1.826823 0.168594 
Q -2.97234 1.50811 -2.97234 3.845335 
Q -2.97234 6.168702 -1.826823 7.522075 
Q -0.676687 8.870829 1.286397 8.870829 
Q 3.249481 8.870829 4.394998 7.522075 
Q 5.540515 6.168702 5.540515 3.845335 
Q 5.540515 1.50811 4.394998 0.168594 
Q 3.249481 -1.175541 1.286397 -1.175541 
z
M 7.07403 -10.316583 
L 7.07403 -7.660646 
Q 5.974703 -8.177976 4.8569 -8.450499 
Q 3.739097 -8.72764 2.63977 -8.72764 
Q -0.247118 -8.72764 -1.771394 -6.778413 
Q -3.291052 -4.829186 -3.508146 -0.889162 
Q -2.658246 -2.145535 -1.374159 -2.815293 
Q -0.085452 -3.485051 1.457301 -3.485051 
Q 4.704473 -3.485051 6.589033 -1.512729 
Q 8.473594 0.454974 8.473594 3.845335 
Q 8.473594 7.166411 6.51051 9.175685 
Q 4.547426 11.18034 1.286397 11.18034 
Q -2.45501 11.18034 -4.43195 8.316547 
Q -6.408891 5.448135 -6.408891 0.006929 
Q -6.408891 -5.101708 -3.983905 -8.141024 
Q -1.55892 -11.18034 2.524295 -11.18034 
Q 3.623622 -11.18034 4.741425 -10.963246 
Q 5.859228 -10.746152 7.07403 -10.316583 
z
" id="ma6a165ac86" style="stroke:#808080;"/>
    </defs>
    <g clip-path="url(#p92cc90fdab)">
     <use style="fill:#808080;stroke:#808080;" x="405.151612" xlink:href="#ma6a165ac86" y="215.952851"/>
    </g>
   </g>
   <g id="PathCollection_8"/>
   <g id="PathCollection_9"/>
   <g id="PathCollection_10"/>
   <g id="PathCollection_11"/>
   <g id="PathCollection_12"/>
   <g id="matplotlib.axis_1">
    <g id="xtick_1">
     <g id="line2d_1">
      <defs>
       <path d="M 0 0 
L 0 3.5 
" id="mae5717cd2d" style="stroke:#000000;stroke-width:0.8;"/>
      </defs>
      <g>
       <use style="stroke:#000000;stroke-width:0.8;" x="155.406293" xlink:href="#mae5717cd2d" y="630"/>
      </g>
     </g>
     <g id="text_1">
      <!-- −50 -->
      <g transform="translate(144.85395 644.598438)scale(0.1 -0.1)">
       <defs>
        <path d="M 678 2272 
L 4684 2272 
L 4684 1741 
L 678 1741 
L 678 2272 
z
" id="DejaVuSans-2212" transform="scale(0.015625)"/>
        <path d="M 691 4666 
L 3169 4666 
L 3169 4134 
L 1269 4134 
L 1269 2991 
Q 1406 3038 1543 3061 
Q 1681 3084 1819 3084 
Q 2600 3084 3056 2656 
Q 3513 2228 3513 1497 
Q 3513 744 3044 326 
Q 2575 -91 1722 -91 
Q 1428 -91 1123 -41 
Q 819 9 494 109 
L 494 744 
Q 775 591 1075 516 
Q 1375 441 1709 441 
Q 2250 441 2565 725 
Q 2881 1009 2881 1497 
Q 2881 1984 2565 2268 
Q 2250 2553 1709 2553 
Q 1456 2553 1204 2497 
Q 953 2441 691 2322 
L 691 4666 
z
" id="DejaVuSans-35" transform="scale(0.015625)"/>
        <path d="M 2034 4250 
Q 1547 4250 1301 3770 
Q 1056 3291 1056 2328 
Q 1056 1369 1301 889 
Q 1547 409 2034 409 
Q 2525 409 2770 889 
Q 3016 1369 3016 2328 
Q 3016 3291 2770 3770 
Q 2525 4250 2034 4250 
z
M 2034 4750 
Q 2819 4750 3233 4129 
Q 3647 3509 3647 2328 
Q 3647 1150 3233 529 
Q 2819 -91 2034 -91 
Q 1250 -91 836 529 
Q 422 1150 422 2328 
Q 422 3509 836 4129 
Q 1250 4750 2034 4750 
z
" id="DejaVuSans-30" transform="scale(0.015625)"/>
       </defs>
       <use xlink:href="#DejaVuSans-2212"/>
       <use x="83.789062" xlink:href="#DejaVuSans-35"/>
       <use x="147.412109" xlink:href="#DejaVuSans-30"/>
      </g>
     </g>
    </g>
    <g id="xtick_2">
     <g id="line2d_2">
      <g>
       <use style="stroke:#000000;stroke-width:0.8;" x="223.968539" xlink:href="#mae5717cd2d" y="630"/>
      </g>
     </g>
     <g id="text_2">
      <!-- 0 -->
      <g transform="translate(220.787289 644.598438)scale(0.1 -0.1)">
       <use xlink:href="#DejaVuSans-30"/>
      </g>
     </g>
    </g>
    <g id="xtick_3">
     <g id="line2d_3">
      <g>
       <use style="stroke:#000000;stroke-width:0.8;" x="292.530784" xlink:href="#mae5717cd2d" y="630"/>
      </g>
     </g>
     <g id="text_3">
      <!-- 50 -->
      <g transform="translate(286.168284 644.598438)scale(0.1 -0.1)">
       <use xlink:href="#DejaVuSans-35"/>
       <use x="63.623047" xlink:href="#DejaVuSans-30"/>
      </g>
     </g>
    </g>
    <g id="xtick_4">
     <g id="line2d_4">
      <g>
       <use style="stroke:#000000;stroke-width:0.8;" x="361.093029" xlink:href="#mae5717cd2d" y="630"/>
      </g>
     </g>
     <g id="text_4">
      <!-- 100 -->
      <g transform="translate(351.549279 644.598438)scale(0.1 -0.1)">
       <defs>
        <path d="M 794 531 
L 1825 531 
L 1825 4091 
L 703 3866 
L 703 4441 
L 1819 4666 
L 2450 4666 
L 2450 531 
L 3481 531 
L 3481 0 
L 794 0 
L 794 531 
z
" id="DejaVuSans-31" transform="scale(0.015625)"/>
       </defs>
       <use xlink:href="#DejaVuSans-31"/>
       <use x="63.623047" xlink:href="#DejaVuSans-30"/>
       <use x="127.246094" xlink:href="#DejaVuSans-30"/>
      </g>
     </g>
    </g>
    <g id="xtick_5">
     <g id="line2d_5">
      <g>
       <use style="stroke:#000000;stroke-width:0.8;" x="429.655274" xlink:href="#mae5717cd2d" y="630"/>
      </g>
     </g>
     <g id="text_5">
      <!-- 150 -->
      <g transform="translate(420.111524 644.598438)scale(0.1 -0.1)">
       <use xlink:href="#DejaVuSans-31"/>
       <use x="63.623047" xlink:href="#DejaVuSans-35"/>
       <use x="127.246094" xlink:href="#DejaVuSans-30"/>
      </g>
     </g>
    </g>
    <g id="xtick_6">
     <g id="line2d_6">
      <g>
       <use style="stroke:#000000;stroke-width:0.8;" x="498.21752" xlink:href="#mae5717cd2d" y="630"/>
      </g>
     </g>
     <g id="text_6">
      <!-- 200 -->
      <g transform="translate(488.67377 644.598438)scale(0.1 -0.1)">
       <defs>
        <path d="M 1228 531 
L 3431 531 
L 3431 0 
L 469 0 
L 469 531 
Q 828 903 1448 1529 
Q 2069 2156 2228 2338 
Q 2531 2678 2651 2914 
Q 2772 3150 2772 3378 
Q 2772 3750 2511 3984 
Q 2250 4219 1831 4219 
Q 1534 4219 1204 4116 
Q 875 4013 500 3803 
L 500 4441 
Q 881 4594 1212 4672 
Q 1544 4750 1819 4750 
Q 2544 4750 2975 4387 
Q 3406 4025 3406 3419 
Q 3406 3131 3298 2873 
Q 3191 2616 2906 2266 
Q 2828 2175 2409 1742 
Q 1991 1309 1228 531 
z
" id="DejaVuSans-32" transform="scale(0.015625)"/>
       </defs>
       <use xlink:href="#DejaVuSans-32"/>
       <use x="63.623047" xlink:href="#DejaVuSans-30"/>
       <use x="127.246094" xlink:href="#DejaVuSans-30"/>
      </g>
     </g>
    </g>
    <g id="xtick_7">
     <g id="line2d_7">
      <g>
       <use style="stroke:#000000;stroke-width:0.8;" x="566.779765" xlink:href="#mae5717cd2d" y="630"/>
      </g>
     </g>
     <g id="text_7">
      <!-- 250 -->
      <g transform="translate(557.236015 644.598438)scale(0.1 -0.1)">
       <use xlink:href="#DejaVuSans-32"/>
       <use x="63.623047" xlink:href="#DejaVuSans-35"/>
       <use x="127.246094" xlink:href="#DejaVuSans-30"/>
      </g>
     </g>
    </g>
    <g id="xtick_8">
     <g id="line2d_8">
      <g>
       <use style="stroke:#000000;stroke-width:0.8;" x="635.34201" xlink:href="#mae5717cd2d" y="630"/>
      </g>
     </g>
     <g id="text_8">
      <!-- 300 -->
      <g transform="translate(625.79826 644.598438)scale(0.1 -0.1)">
       <defs>
        <path d="M 2597 2516 
Q 3050 2419 3304 2112 
Q 3559 1806 3559 1356 
Q 3559 666 3084 287 
Q 2609 -91 1734 -91 
Q 1441 -91 1130 -33 
Q 819 25 488 141 
L 488 750 
Q 750 597 1062 519 
Q 1375 441 1716 441 
Q 2309 441 2620 675 
Q 2931 909 2931 1356 
Q 2931 1769 2642 2001 
Q 2353 2234 1838 2234 
L 1294 2234 
L 1294 2753 
L 1863 2753 
Q 2328 2753 2575 2939 
Q 2822 3125 2822 3475 
Q 2822 3834 2567 4026 
Q 2313 4219 1838 4219 
Q 1578 4219 1281 4162 
Q 984 4106 628 3988 
L 628 4550 
Q 988 4650 1302 4700 
Q 1616 4750 1894 4750 
Q 2613 4750 3031 4423 
Q 3450 4097 3450 3541 
Q 3450 3153 3228 2886 
Q 3006 2619 2597 2516 
z
" id="DejaVuSans-33" transform="scale(0.015625)"/>
       </defs>
       <use xlink:href="#DejaVuSans-33"/>
       <use x="63.623047" xlink:href="#DejaVuSans-30"/>
       <use x="127.246094" xlink:href="#DejaVuSans-30"/>
      </g>
     </g>
    </g>
   </g>
   <g id="matplotlib.axis_2">
    <g id="ytick_1">
     <g id="line2d_9">
      <defs>
       <path d="M 0 0 
L -3.5 0 
" id="m45aa466281" style="stroke:#000000;stroke-width:0.8;"/>
      </defs>
      <g>
       <use style="stroke:#000000;stroke-width:0.8;" x="90" xlink:href="#m45aa466281" y="566.281611"/>
      </g>
     </g>
     <g id="text_9">
      <!-- −50 -->
      <g transform="translate(61.895313 570.08083)scale(0.1 -0.1)">
       <use xlink:href="#DejaVuSans-2212"/>
       <use x="83.789062" xlink:href="#DejaVuSans-35"/>
       <use x="147.412109" xlink:href="#DejaVuSans-30"/>
      </g>
     </g>
    </g>
    <g id="ytick_2">
     <g id="line2d_10">
      <g>
       <use style="stroke:#000000;stroke-width:0.8;" x="90" xlink:href="#m45aa466281" y="499.488714"/>
      </g>
     </g>
     <g id="text_10">
      <!-- 0 -->
      <g transform="translate(76.6375 503.287933)scale(0.1 -0.1)">
       <use xlink:href="#DejaVuSans-30"/>
      </g>
     </g>
    </g>
    <g id="ytick_3">
     <g id="line2d_11">
      <g>
       <use style="stroke:#000000;stroke-width:0.8;" x="90" xlink:href="#m45aa466281" y="432.695817"/>
      </g>
     </g>
     <g id="text_11">
      <!-- 50 -->
      <g transform="translate(70.275 436.495036)scale(0.1 -0.1)">
       <use xlink:href="#DejaVuSans-35"/>
       <use x="63.623047" xlink:href="#DejaVuSans-30"/>
      </g>
     </g>
    </g>
    <g id="ytick_4">
     <g id="line2d_12">
      <g>
       <use style="stroke:#000000;stroke-width:0.8;" x="90" xlink:href="#m45aa466281" y="365.90292"/>
      </g>
     </g>
     <g id="text_12">
      <!-- 100 -->
      <g transform="translate(63.9125 369.702139)scale(0.1 -0.1)">
       <use xlink:href="#DejaVuSans-31"/>
       <use x="63.623047" xlink:href="#DejaVuSans-30"/>
       <use x="127.246094" xlink:href="#DejaVuSans-30"/>
      </g>
     </g>
    </g>
    <g id="ytick_5">
     <g id="line2d_13">
      <g>
       <use style="stroke:#000000;stroke-width:0.8;" x="90" xlink:href="#m45aa466281" y="299.110023"/>
      </g>
     </g>
     <g id="text_13">
      <!-- 150 -->
      <g transform="translate(63.9125 302.909242)scale(0.1 -0.1)">
       <use xlink:href="#DejaVuSans-31"/>
       <use x="63.623047" xlink:href="#DejaVuSans-35"/>
       <use x="127.246094" xlink:href="#DejaVuSans-30"/>
      </g>
     </g>
    </g>
    <g id="ytick_6">
     <g id="line2d_14">
      <g>
       <use style="stroke:#000000;stroke-width:0.8;" x="90" xlink:href="#m45aa466281" y="232.317126"/>
      </g>
     </g>
     <g id="text_14">
      <!-- 200 -->
      <g transform="translate(63.9125 236.116345)scale(0.1 -0.1)">
       <use xlink:href="#DejaVuSans-32"/>
       <use x="63.623047" xlink:href="#DejaVuSans-30"/>
       <use x="127.246094" xlink:href="#DejaVuSans-30"/>
      </g>
     </g>
    </g>
    <g id="ytick_7">
     <g id="line2d_15">
      <g>
       <use style="stroke:#000000;stroke-width:0.8;" x="90" xlink:href="#m45aa466281" y="165.524229"/>
      </g>
     </g>
     <g id="text_15">
      <!-- 250 -->
      <g transform="translate(63.9125 169.323448)scale(0.1 -0.1)">
       <use xlink:href="#DejaVuSans-32"/>
       <use x="63.623047" xlink:href="#DejaVuSans-35"/>
       <use x="127.246094" xlink:href="#DejaVuSans-30"/>
      </g>
     </g>
    </g>
    <g id="ytick_8">
     <g id="line2d_16">
      <g>
       <use style="stroke:#000000;stroke-width:0.8;" x="90" xlink:href="#m45aa466281" y="98.731332"/>
      </g>
     </g>
     <g id="text_16">
      <!-- 300 -->
      <g transform="translate(63.9125 102.530551)scale(0.1 -0.1)">
       <use xlink:href="#DejaVuSans-33"/>
       <use x="63.623047" xlink:href="#DejaVuSans-30"/>
       <use x="127.246094" xlink:href="#DejaVuSans-30"/>
      </g>
     </g>
    </g>
   </g>
   <g id="line2d_17">
    <path clip-path="url(#p92cc90fdab)" d="M 405.151612 215.952851 
L 398.330196 217.345322 
L 391.370371 217.756099 
L 384.400711 217.547981 
L 377.457232 216.915547 
L 370.549628 215.972168 
L 363.679294 214.789192 
L 356.844932 213.414359 
L 350.044478 211.881182 
L 343.275796 210.214079 
L 336.536933 208.431377 
L 329.826191 206.54715 
L 323.14214 204.572409 
L 316.483604 202.515881 
L 309.849632 200.384553 
L 303.239478 198.184041 
L 296.652578 195.918863 
L 290.088528 193.592628 
L 283.547073 191.208173 
L 277.028094 188.76766 
L 270.531602 186.272641 
L 264.057735 183.724096 
L 257.606764 181.122446 
L 251.179104 178.467549 
L 244.775338 175.758664 
L 238.396256 172.994401 
L 232.042922 170.172624 
L 225.716771 167.290324 
L 219.419774 164.343434 
L 213.154701 161.326553 
L 206.925545 158.232573 
L 200.738247 155.052097 
L 194.601953 151.772576 
L 188.531315 148.376913 
L 182.550886 144.841046 
L 176.704141 141.129243 
L 171.073368 137.182606 
L 165.827623 132.876239 
L 161.428072 127.722799 
L 162.502039 121.764087 
L 169.092105 120.009819 
L 176.063113 119.793233 
" style="fill:none;stroke:#808080;stroke-linecap:square;stroke-width:1.5;"/>
   </g>
   <g id="line2d_18">
    <path clip-path="url(#p92cc90fdab)" d="M 161.428072 217.756099 
L 161.428072 119.793233 
L 405.151612 119.793233 
L 405.151612 217.756099 
L 161.428072 217.756099 
" style="fill:none;stroke:#d3d3d3;stroke-linecap:square;stroke-width:0.5;"/>
   </g>
   <g id="line2d_19">
    <path clip-path="url(#p92cc90fdab)" d="M 176.063113 119.793233 
L 182.951387 120.780811 
L 189.355961 123.440756 
L 194.952339 127.484604 
L 199.682974 132.476896 
L 203.655673 138.067478 
L 207.013129 144.033221 
L 209.87962 150.24049 
L 212.352049 156.608569 
L 214.503986 163.087166 
L 216.391427 169.643826 
L 218.057547 176.256914 
L 219.536174 182.911587 
L 220.85425 189.597414 
L 222.033582 196.306903 
L 223.092075 203.034579 
L 224.044641 209.776378 
L 224.903854 216.52924 
L 225.680441 223.290835 
L 226.38366 230.059373 
L 227.02158 236.833461 
L 227.601307 243.612013 
L 228.129156 250.39417 
L 228.61079 257.179251 
L 229.051335 263.966713 
L 229.455469 270.756119 
L 229.827498 277.547118 
L 230.17142 284.339422 
L 230.490975 291.132798 
L 230.789693 297.927049 
L 231.070934 304.722015 
L 231.337917 311.517555 
L 231.593756 318.313551 
L 231.841484 325.109893 
L 232.084079 331.906482 
L 232.324488 338.703223 
L 232.565648 345.500019 
" style="fill:none;stroke:#808080;stroke-linecap:square;stroke-width:1.5;"/>
   </g>
   <g id="line2d_20">
    <path clip-path="url(#p92cc90fdab)" d="M 176.063113 345.500019 
L 176.063113 119.793233 
L 232.565648 119.793233 
L 232.565648 345.500019 
L 176.063113 345.500019 
" style="fill:none;stroke:#d3d3d3;stroke-linecap:square;stroke-width:0.5;"/>
   </g>
   <g id="line2d_21">
    <path clip-path="url(#p92cc90fdab)" d="M 232.565648 345.500019 
L 232.810509 352.29677 
L 233.062053 359.093368 
L 233.323314 365.889691 
L 233.597404 372.685603 
L 233.88753 379.480944 
L 234.19702 386.275526 
L 234.529346 393.069126 
L 234.888151 399.861481 
L 235.277275 406.652274 
L 235.700789 413.441125 
L 236.163028 420.22758 
L 236.668626 427.01109 
L 237.22256 433.790997 
L 237.830199 440.566509 
L 238.497347 447.336668 
L 239.230309 454.10032 
L 240.035952 460.85607 
L 240.921775 467.602229 
L 241.895987 474.336751 
L 242.967595 481.057152 
L 244.146494 487.760413 
L 245.443563 494.442861 
L 246.870766 501.100018 
L 248.44124 507.726422 
L 250.169381 514.315411 
L 252.070891 520.85886 
L 254.162785 527.346878 
L 256.463314 533.767458 
L 258.991769 540.106106 
L 261.768122 546.345458 
L 264.812437 552.464958 
L 268.144005 558.440653 
L 271.780179 564.245247 
L 275.734926 569.848521 
L 280.017229 575.218284 
" style="fill:none;stroke:#808080;stroke-linecap:square;stroke-width:1.5;"/>
   </g>
   <g id="line2d_22">
    <path clip-path="url(#p92cc90fdab)" d="M 232.565648 575.218284 
L 232.565648 345.500019 
L 280.017229 345.500019 
L 280.017229 575.218284 
L 232.565648 575.218284 
" style="fill:none;stroke:#d3d3d3;stroke-linecap:square;stroke-width:0.5;"/>
   </g>
   <g id="line2d_23">
    <path clip-path="url(#p92cc90fdab)" d="M 280.017229 575.218284 
L 284.617555 580.435467 
L 289.46474 585.436481 
L 294.649857 590.104385 
L 300.328253 594.188025 
L 306.751497 597.009229 
L 313.670884 596.576083 
L 318.642867 591.858624 
L 321.384387 585.545186 
L 322.959388 578.838947 
L 323.885209 572.013898 
L 324.406272 565.148815 
L 324.657129 558.271355 
L 324.722576 551.39213 
L 324.663028 544.514976 
L 324.527337 537.640583 
L 324.361042 530.767969 
L 324.214062 523.895312 
L 324.151783 517.021037 
L 324.2782 510.146907 
L 324.802417 503.291351 
L 326.329271 496.594471 
" style="fill:none;stroke:#808080;stroke-linecap:square;stroke-width:1.5;"/>
   </g>
   <g id="line2d_24">
    <path clip-path="url(#p92cc90fdab)" d="M 280.017229 597.009229 
L 280.017229 496.594471 
L 326.329271 496.594471 
L 326.329271 597.009229 
L 280.017229 597.009229 
" style="fill:none;stroke:#d3d3d3;stroke-linecap:square;stroke-width:0.5;"/>
   </g>
   <g id="line2d_25">
    <path clip-path="url(#p92cc90fdab)" d="M 326.329271 496.594471 
L 329.576296 490.13179 
L 333.726408 484.175706 
L 338.512276 478.688419 
L 343.762917 473.619235 
L 349.375457 468.931977 
L 355.291877 464.614046 
L 361.485839 460.683418 
L 367.957616 457.204842 
L 374.734636 454.337457 
L 381.860809 452.505408 
L 389.050977 453.237174 
L 392.392631 459.30767 
L 391.117383 466.403394 
L 388.34445 473.077464 
L 384.895373 479.446932 
" style="fill:none;stroke:#808080;stroke-linecap:square;stroke-width:1.5;"/>
   </g>
   <g id="line2d_26">
    <path clip-path="url(#p92cc90fdab)" d="M 326.329271 496.594471 
L 326.329271 452.505408 
L 392.392631 452.505408 
L 392.392631 496.594471 
L 326.329271 496.594471 
" style="fill:none;stroke:#d3d3d3;stroke-linecap:square;stroke-width:0.5;"/>
   </g>
   <g id="line2d_27">
    <path clip-path="url(#p92cc90fdab)" d="M 384.895373 479.446932 
L 381.488826 485.326464 
L 378.170288 491.26093 
L 374.962201 497.260752 
L 371.918673 503.349301 
L 372.450371 503.313436 
L 375.223587 497.096929 
L 377.829673 490.81329 
L 380.320428 484.486939 
L 382.718621 478.128334 
L 385.037766 471.743548 
L 387.287088 465.336645 
L 389.473424 458.910578 
L 391.602129 452.467617 
L 393.677556 446.009577 
L 395.703349 439.537956 
L 397.682629 433.054015 
L 399.61811 426.558838 
L 401.512193 420.053372 
L 403.36702 413.538454 
L 405.184523 407.014828 
L 406.96646 400.483169 
L 408.714438 393.944085 
L 410.429939 387.398134 
L 412.114334 380.845829 
L 413.768895 374.287644 
L 415.394812 367.724017 
L 416.993196 361.155359 
L 418.565092 354.582054 
" style="fill:none;stroke:#808080;stroke-linecap:square;stroke-width:1.5;"/>
   </g>
   <g id="line2d_28">
    <path clip-path="url(#p92cc90fdab)" d="M 371.918673 503.349301 
L 371.918673 354.582054 
L 418.565092 354.582054 
L 418.565092 503.349301 
L 371.918673 503.349301 
" style="fill:none;stroke:#d3d3d3;stroke-linecap:square;stroke-width:0.5;"/>
   </g>
   <g id="line2d_29">
    <path clip-path="url(#p92cc90fdab)" d="M 418.565092 354.582054 
L 420.137446 347.84972 
L 421.66236 341.105997 
L 423.135818 334.350257 
L 424.55319 327.581829 
L 425.909101 320.800002 
L 427.197249 314.004034 
L 428.410175 307.193167 
L 429.538947 300.366655 
L 430.572725 293.523817 
L 431.498164 286.664119 
L 432.298548 279.787337 
L 432.952514 272.893825 
L 433.432118 265.985016 
L 433.699769 259.064362 
L 433.703172 252.139175 
L 433.366537 245.224492 
L 432.574405 238.351811 
L 431.140273 231.591116 
L 428.745901 225.114069 
L 424.867228 219.389993 
L 419.063061 215.54983 
L 412.087974 214.613992 
L 405.151612 215.952851 
" style="fill:none;stroke:#808080;stroke-linecap:square;stroke-width:1.5;"/>
   </g>
   <g id="line2d_30">
    <path clip-path="url(#p92cc90fdab)" d="M 405.151612 354.582054 
L 405.151612 214.613992 
L 433.703172 214.613992 
L 433.703172 354.582054 
L 405.151612 354.582054 
" style="fill:none;stroke:#d3d3d3;stroke-linecap:square;stroke-width:0.5;"/>
   </g>
   <g id="line2d_31">
    <path clip-path="url(#p92cc90fdab)" d="M 313.549395 491.752226 
L 313.549395 491.752226 
L 313.549395 491.752226 
" style="fill:none;stroke:#000000;stroke-linecap:square;stroke-width:3;"/>
   </g>
   <g id="line2d_32">
    <path clip-path="url(#p92cc90fdab)" d="M 313.549395 491.752226 
L 313.549395 491.752226 
L 313.549395 491.752226 
L 313.549395 491.752226 
L 313.549395 491.752226 
" style="fill:none;stroke:#d3d3d3;stroke-linecap:square;stroke-width:0.5;"/>
   </g>
   <g id="line2d_33">
    <path clip-path="url(#p92cc90fdab)" d="M 313.549395 491.752226 
L 313.549395 491.752226 
L 313.549395 491.752226 
" style="fill:none;stroke:#000000;stroke-linecap:square;stroke-width:3;"/>
   </g>
   <g id="line2d_34">
    <path clip-path="url(#p92cc90fdab)" d="M 313.549395 491.752226 
L 313.549395 491.752226 
L 313.549395 491.752226 
L 313.549395 491.752226 
L 313.549395 491.752226 
" style="fill:none;stroke:#d3d3d3;stroke-linecap:square;stroke-width:0.5;"/>
   </g>
   <g id="line2d_35">
    <path clip-path="url(#p92cc90fdab)" d="M 290.586691 566.707727 
L 290.586691 566.707727 
L 294.829737 571.520527 
L 299.153773 575.983596 
L 303.492034 579.894058 
L 307.564508 582.840954 
L 310.105149 584.056328 
L 307.841289 584.484811 
L 306.896315 584.966607 
L 308.253176 581.697112 
L 309.444419 576.579977 
L 310.239183 570.700647 
L 310.712521 564.451433 
L 310.947634 557.994079 
L 311.010132 551.403179 
L 310.952104 544.71415 
L 310.818354 537.940932 
L 310.652378 531.081794 
L 310.503519 524.117995 
L 310.439347 517.003007 
L 310.576163 509.626436 
L 311.191076 501.672121 
L 313.549395 491.752226 
" style="fill:none;stroke:#000000;stroke-linecap:square;stroke-width:3;"/>
   </g>
   <g id="line2d_36">
    <path clip-path="url(#p92cc90fdab)" d="M 290.586691 584.966607 
L 290.586691 491.752226 
L 313.549395 491.752226 
L 313.549395 584.966607 
L 290.586691 584.966607 
" style="fill:none;stroke:#d3d3d3;stroke-linecap:square;stroke-width:0.5;"/>
   </g>
   <g id="line2d_37">
    <path clip-path="url(#p92cc90fdab)" d="M 313.549395 491.752226 
L 317.760676 483.352747 
L 322.85108 476.039091 
L 328.479066 469.582656 
L 334.484608 463.783053 
L 340.803658 458.505123 
L 347.428738 453.669976 
L 354.402302 449.245259 
L 361.842542 445.248144 
L 370.047256 441.783593 
L 379.949357 439.277252 
L 381.415419 439.479235 
" style="fill:none;stroke:#000000;stroke-linecap:square;stroke-width:3;"/>
   </g>
   <g id="line2d_38">
    <path clip-path="url(#p92cc90fdab)" d="M 313.549395 491.752226 
L 313.549395 439.277252 
L 381.415419 439.277252 
L 381.415419 491.752226 
L 313.549395 491.752226 
" style="fill:none;stroke:#d3d3d3;stroke-linecap:square;stroke-width:0.5;"/>
   </g>
   <g id="line2d_39">
    <path clip-path="url(#p92cc90fdab)" d="M 381.415419 439.479235 
L 384.526123 429.288833 
L 386.437408 422.874849 
L 388.309106 416.446257 
L 390.143149 410.004333 
L 391.941294 403.550187 
L 393.70515 397.084795 
L 395.436201 390.609028 
L 397.135822 384.123668 
L 398.80529 377.629424 
L 400.445797 371.126941 
L 402.058461 364.616811 
L 405.204394 351.575755 
" style="fill:none;stroke:#000000;stroke-linecap:square;stroke-width:3;"/>
   </g>
   <g id="line2d_40">
    <path clip-path="url(#p92cc90fdab)" d="M 381.415419 439.479235 
L 381.415419 351.575755 
L 405.204394 351.575755 
L 405.204394 439.479235 
L 381.415419 439.479235 
" style="fill:none;stroke:#d3d3d3;stroke-linecap:square;stroke-width:0.5;"/>
   </g>
   <g id="line2d_41">
    <path clip-path="url(#p92cc90fdab)" d="M 409.338586 228.673466 
L 409.338586 228.673466 
L 399.984723 230.606304 
L 391.489359 231.114176 
L 383.504413 230.877993 
L 375.837845 230.180645 
L 368.385333 229.163306 
L 361.086308 227.90676 
L 353.903153 226.461906 
L 346.811142 224.863085 
L 339.793252 223.134661 
L 332.837325 221.294574 
L 325.93441 219.356417 
L 319.077761 217.330703 
L 312.262189 215.225688 
L 305.483641 213.047921 
L 298.73891 210.802617 
L 292.025434 208.493916 
L 285.341142 206.125073 
L 278.684356 203.698582 
L 272.053699 201.216262 
L 265.448038 198.679318 
L 258.86643 196.088359 
L 252.308087 193.443406 
L 245.772337 190.743861 
L 239.258607 187.988458 
L 234.089072 185.748328 
" style="fill:none;stroke:#000000;stroke-linecap:square;stroke-width:3;"/>
   </g>
   <g id="line2d_42">
    <path clip-path="url(#p92cc90fdab)" d="M 234.089072 231.114176 
L 234.089072 185.748328 
L 409.338586 185.748328 
L 409.338586 231.114176 
L 234.089072 231.114176 
" style="fill:none;stroke:#d3d3d3;stroke-linecap:square;stroke-width:0.5;"/>
   </g>
   <g id="line2d_43">
    <path clip-path="url(#p92cc90fdab)" d="M 405.204394 351.575755 
L 406.756579 344.929791 
L 408.260364 338.279532 
L 409.711669 331.625389 
L 411.105806 324.967951 
L 412.437348 318.308059 
L 413.699956 311.646897 
L 414.886167 304.986138 
L 415.987096 298.328144 
L 416.992053 291.676285 
L 417.888015 285.035413 
L 418.658901 278.412626 
L 419.284563 271.818511 
L 419.739367 265.269251 
L 419.990205 258.790368 
L 419.993834 252.423684 
L 419.693849 246.241051 
L 419.019838 240.373112 
L 417.901627 235.072342 
L 416.358052 230.842166 
L 414.847798 228.510146 
L 414.25379 228.059863 
L 412.877266 227.950423 
L 409.338586 228.673466 
L 409.338586 228.673466 
" style="fill:none;stroke:#000000;stroke-linecap:square;stroke-width:3;"/>
   </g>
   <g id="line2d_44">
    <path clip-path="url(#p92cc90fdab)" d="M 405.204394 351.575755 
L 405.204394 227.950423 
L 419.993834 227.950423 
L 419.993834 351.575755 
L 405.204394 351.575755 
" style="fill:none;stroke:#d3d3d3;stroke-linecap:square;stroke-width:0.5;"/>
   </g>
   <g id="line2d_45">
    <path clip-path="url(#p92cc90fdab)" d="M 234.089072 185.748328 
L 235.569924 194.172841 
L 236.662393 201.116198 
L 237.641785 208.047646 
L 238.52234 214.968072 
L 239.316013 221.878276 
L 240.032977 228.778978 
L 240.681996 235.670817 
L 241.270711 242.554362 
L 241.80585 249.430116 
L 242.293404 256.298525 
L 242.738756 263.159976 
L 243.146788 270.014809 
L 243.52197 276.863317 
L 243.868432 283.705748 
L 244.190021 290.54231 
L 244.490351 297.373173 
L 244.772848 304.198466 
L 245.040786 311.018285 
L 245.297318 317.832687 
L 245.545508 324.641692 
L 245.788353 331.445282 
L 246.028811 338.243402 
L 246.269821 345.035951 
L 246.514324 351.822787 
L 246.765287 358.60372 
L 247.025719 365.378504 
L 247.298696 372.14684 
L 247.587377 378.908358 
L 247.895029 385.662621 
L 248.225048 392.409104 
" style="fill:none;stroke:#000000;stroke-linecap:square;stroke-width:3;"/>
   </g>
   <g id="line2d_46">
    <path clip-path="url(#p92cc90fdab)" d="M 234.089072 392.409104 
L 234.089072 185.748328 
L 248.225048 185.748328 
L 248.225048 392.409104 
L 234.089072 392.409104 
" style="fill:none;stroke:#d3d3d3;stroke-linecap:square;stroke-width:0.5;"/>
   </g>
   <g id="line2d_47">
    <path clip-path="url(#p92cc90fdab)" d="M 248.225048 392.409104 
L 248.580983 399.147191 
L 248.966561 405.876156 
L 249.385714 412.595149 
L 249.842606 419.303175 
L 250.341668 425.999074 
L 250.887631 432.681487 
L 251.485561 439.348831 
L 252.1409 445.999252 
L 252.859512 452.630584 
L 253.647725 459.240291 
L 254.512384 465.825401 
L 255.460899 472.382427 
L 256.5013 478.907276 
L 257.642286 485.395138 
L 258.893272 491.84036 
L 260.264427 498.236302 
L 261.766697 504.57517 
L 263.411802 510.847837 
L 265.212203 517.043655 
L 267.181014 523.150265 
L 269.331851 529.153438 
L 271.678602 535.036972 
L 274.235104 540.782684 
L 277.014727 546.370571 
L 280.029871 551.779175 
L 283.291431 556.986209 
L 286.808258 561.969435 
L 290.586691 566.707727 
L 290.586691 566.707727 
" style="fill:none;stroke:#000000;stroke-linecap:square;stroke-width:3;"/>
   </g>
   <g id="line2d_48">
    <path clip-path="url(#p92cc90fdab)" d="M 248.225048 566.707727 
L 248.225048 392.409104 
L 290.586691 392.409104 
L 290.586691 566.707727 
L 248.225048 566.707727 
" style="fill:none;stroke:#d3d3d3;stroke-linecap:square;stroke-width:0.5;"/>
   </g>
   <g id="line2d_49">
    <path clip-path="url(#p92cc90fdab)" d="M 405.204394 351.575755 
L 403.644331 358.09958 
L 405.204394 351.575755 
L 405.204394 351.575755 
" style="fill:none;stroke:#000000;stroke-linecap:square;stroke-width:3;"/>
   </g>
   <g id="line2d_50">
    <path clip-path="url(#p92cc90fdab)" d="M 403.644331 358.09958 
L 403.644331 351.575755 
L 405.204394 351.575755 
L 405.204394 358.09958 
L 403.644331 358.09958 
" style="fill:none;stroke:#d3d3d3;stroke-linecap:square;stroke-width:0.5;"/>
   </g>
   <g id="line2d_51">
    <path clip-path="url(#p92cc90fdab)" d="M 405.204394 351.575755 
L 405.204394 351.575755 
L 405.204394 351.575755 
" style="fill:none;stroke:#000000;stroke-linecap:square;stroke-width:3;"/>
   </g>
   <g id="line2d_52">
    <path clip-path="url(#p92cc90fdab)" d="M 405.204394 351.575755 
L 405.204394 351.575755 
L 405.204394 351.575755 
L 405.204394 351.575755 
L 405.204394 351.575755 
" style="fill:none;stroke:#d3d3d3;stroke-linecap:square;stroke-width:0.5;"/>
   </g>
   <g id="line2d_53">
    <path clip-path="url(#p92cc90fdab)" d="M 339.109146 501.436717 
L 339.109146 501.436717 
L 339.109146 501.436717 
" style="fill:none;stroke:#000000;stroke-linecap:square;stroke-width:3;"/>
   </g>
   <g id="line2d_54">
    <path clip-path="url(#p92cc90fdab)" d="M 339.109146 501.436717 
L 339.109146 501.436717 
L 339.109146 501.436717 
L 339.109146 501.436717 
L 339.109146 501.436717 
" style="fill:none;stroke:#d3d3d3;stroke-linecap:square;stroke-width:0.5;"/>
   </g>
   <g id="line2d_55">
    <path clip-path="url(#p92cc90fdab)" d="M 339.109146 501.436717 
L 339.109146 501.436717 
L 339.109146 501.436717 
" style="fill:none;stroke:#000000;stroke-linecap:square;stroke-width:3;"/>
   </g>
   <g id="line2d_56">
    <path clip-path="url(#p92cc90fdab)" d="M 339.109146 501.436717 
L 339.109146 501.436717 
L 339.109146 501.436717 
L 339.109146 501.436717 
L 339.109146 501.436717 
" style="fill:none;stroke:#d3d3d3;stroke-linecap:square;stroke-width:0.5;"/>
   </g>
   <g id="line2d_57">
    <path clip-path="url(#p92cc90fdab)" d="M 363.558949 489.564575 
L 365.066698 485.928923 
L 367.480925 479.796784 
L 369.818004 473.600132 
L 370.948644 470.487365 
" style="fill:none;stroke:#000000;stroke-linecap:square;stroke-width:3;"/>
   </g>
   <g id="line2d_58">
    <path clip-path="url(#p92cc90fdab)" d="M 363.558949 489.564575 
L 363.558949 470.487365 
L 370.948644 470.487365 
L 370.948644 489.564575 
L 363.558949 489.564575 
" style="fill:none;stroke:#d3d3d3;stroke-linecap:square;stroke-width:0.5;"/>
   </g>
   <g id="line2d_59">
    <path clip-path="url(#p92cc90fdab)" d="M 345.275395 491.540548 
L 348.545487 487.794183 
L 353.041227 483.455418 
L 357.947256 479.35883 
L 363.155016 475.558117 
L 368.569376 472.121578 
L 374.072691 469.161539 
L 370.948644 470.487365 
" style="fill:none;stroke:#000000;stroke-linecap:square;stroke-width:3;"/>
   </g>
   <g id="line2d_60">
    <path clip-path="url(#p92cc90fdab)" d="M 345.275395 491.540548 
L 345.275395 469.161539 
L 374.072691 469.161539 
L 374.072691 491.540548 
L 345.275395 491.540548 
" style="fill:none;stroke:#d3d3d3;stroke-linecap:square;stroke-width:0.5;"/>
   </g>
   <g id="line2d_61">
    <path clip-path="url(#p92cc90fdab)" d="M 363.558949 489.564575 
L 359.469888 497.747984 
L 345.275395 491.540548 
" style="fill:none;stroke:#000000;stroke-linecap:square;stroke-width:3;"/>
   </g>
   <g id="line2d_62">
    <path clip-path="url(#p92cc90fdab)" d="M 345.275395 497.747984 
L 345.275395 489.564575 
L 363.558949 489.564575 
L 363.558949 497.747984 
L 345.275395 497.747984 
" style="fill:none;stroke:#d3d3d3;stroke-linecap:square;stroke-width:0.5;"/>
   </g>
   <g id="line2d_63">
    <path clip-path="url(#p92cc90fdab)" d="M 375.446874 468.578345 
L 369.499741 478.842909 
L 366.073414 484.970257 
L 362.730072 491.223401 
L 363.558949 489.564575 
" style="fill:none;stroke:#000000;stroke-linecap:square;stroke-width:3;"/>
   </g>
   <g id="line2d_64">
    <path clip-path="url(#p92cc90fdab)" d="M 362.730072 491.223401 
L 362.730072 468.578345 
L 375.446874 468.578345 
L 375.446874 491.223401 
L 362.730072 491.223401 
" style="fill:none;stroke:#d3d3d3;stroke-linecap:square;stroke-width:0.5;"/>
   </g>
   <g id="line2d_65">
    <path clip-path="url(#p92cc90fdab)" d="M 388.73342 500.419851 
L 393.159931 489.177094 
L 395.619238 482.656536 
L 397.989644 476.130678 
L 400.283254 469.59766 
L 402.508618 463.056911 
L 404.672199 456.508411 
L 404.649259 456.579792 
" style="fill:none;stroke:#000000;stroke-linecap:square;stroke-width:3;"/>
   </g>
   <g id="line2d_66">
    <path clip-path="url(#p92cc90fdab)" d="M 388.73342 500.419851 
L 388.73342 456.508411 
L 404.672199 456.508411 
L 404.672199 500.419851 
L 388.73342 500.419851 
" style="fill:none;stroke:#d3d3d3;stroke-linecap:square;stroke-width:0.5;"/>
   </g>
   <g id="line2d_67">
    <path clip-path="url(#p92cc90fdab)" d="M 388.73342 500.419851 
L 387.19433 503.298102 
L 384.367458 508.950619 
L 359.983498 497.750429 
L 362.566111 491.958618 
L 363.558949 489.564575 
" style="fill:none;stroke:#000000;stroke-linecap:square;stroke-width:3;"/>
   </g>
   <g id="line2d_68">
    <path clip-path="url(#p92cc90fdab)" d="M 359.983498 508.950619 
L 359.983498 489.564575 
L 388.73342 489.564575 
L 388.73342 508.950619 
L 359.983498 508.950619 
" style="fill:none;stroke:#d3d3d3;stroke-linecap:square;stroke-width:0.5;"/>
   </g>
   <g id="line2d_69">
    <path clip-path="url(#p92cc90fdab)" d="M 372.999798 472.801922 
L 372.999798 472.801922 
L 375.446874 468.578345 
" style="fill:none;stroke:#000000;stroke-linecap:square;stroke-width:3;"/>
   </g>
   <g id="line2d_70">
    <path clip-path="url(#p92cc90fdab)" d="M 372.999798 472.801922 
L 372.999798 468.578345 
L 375.446874 468.578345 
L 375.446874 472.801922 
L 372.999798 472.801922 
" style="fill:none;stroke:#d3d3d3;stroke-linecap:square;stroke-width:0.5;"/>
   </g>
   <g id="line2d_71">
    <path clip-path="url(#p92cc90fdab)" d="M 375.661585 467.892105 
L 372.999798 472.801922 
L 372.999798 472.801922 
" style="fill:none;stroke:#000000;stroke-linecap:square;stroke-width:3;"/>
   </g>
   <g id="line2d_72">
    <path clip-path="url(#p92cc90fdab)" d="M 372.999798 472.801922 
L 372.999798 467.892105 
L 375.661585 467.892105 
L 375.661585 472.801922 
L 372.999798 472.801922 
" style="fill:none;stroke:#d3d3d3;stroke-linecap:square;stroke-width:0.5;"/>
   </g>
   <g id="line2d_73">
    <path clip-path="url(#p92cc90fdab)" d="M 404.649259 456.579792 
L 406.10061 458.966622 
L 404.17749 470.474645 
L 400.725284 478.819937 
L 396.790948 486.091943 
L 396.790948 486.091943 
" style="fill:none;stroke:#000000;stroke-linecap:square;stroke-width:3;"/>
   </g>
   <g id="line2d_74">
    <path clip-path="url(#p92cc90fdab)" d="M 396.790948 486.091943 
L 396.790948 456.579792 
L 406.10061 456.579792 
L 406.10061 486.091943 
L 396.790948 486.091943 
" style="fill:none;stroke:#d3d3d3;stroke-linecap:square;stroke-width:0.5;"/>
   </g>
   <g id="line2d_75">
    <path clip-path="url(#p92cc90fdab)" d="M 339.109146 501.436717 
L 341.391916 496.910832 
L 344.601736 492.312322 
L 345.275395 491.540548 
" style="fill:none;stroke:#000000;stroke-linecap:square;stroke-width:3;"/>
   </g>
   <g id="line2d_76">
    <path clip-path="url(#p92cc90fdab)" d="M 339.109146 501.436717 
L 339.109146 491.540548 
L 345.275395 491.540548 
L 345.275395 501.436717 
L 339.109146 501.436717 
" style="fill:none;stroke:#d3d3d3;stroke-linecap:square;stroke-width:0.5;"/>
   </g>
   <g id="line2d_77">
    <path clip-path="url(#p92cc90fdab)" d="M 176.363976 106.437869 
L 176.363976 106.437869 
L 186.667972 107.922258 
L 196.258218 111.897894 
L 204.202058 117.622899 
L 210.44401 124.197319 
L 215.356485 131.102009 
L 219.308339 138.118728 
L 222.563746 145.164931 
L 225.299864 152.210074 
L 225.361349 152.395142 
" style="fill:none;stroke:#000000;stroke-linecap:square;stroke-width:3;"/>
   </g>
   <g id="line2d_78">
    <path clip-path="url(#p92cc90fdab)" d="M 176.363976 152.395142 
L 176.363976 106.437869 
L 225.361349 106.437869 
L 225.361349 152.395142 
L 176.363976 152.395142 
" style="fill:none;stroke:#d3d3d3;stroke-linecap:square;stroke-width:0.5;"/>
   </g>
   <g id="line2d_79">
    <path clip-path="url(#p92cc90fdab)" d="M 431.925791 357.588353 
L 433.518312 350.769649 
L 435.064356 343.932462 
L 436.559967 337.075126 
L 438.000574 330.195707 
L 439.380854 323.291945 
L 440.694541 316.36117 
L 441.934183 309.400196 
L 443.090797 302.405167 
L 444.153397 295.371349 
L 445.108314 288.292825 
L 445.938195 281.162047 
L 446.620465 273.969138 
L 447.124869 266.700781 
L 447.409334 259.338355 
L 447.412511 251.854666 
L 447.039225 244.207933 
L 446.128971 236.330511 
L 444.37892 228.109891 
L 441.13375 219.385972 
L 434.886657 210.269841 
L 423.872331 203.039798 
L 411.298681 201.27756 
L 400.964638 203.232237 
L 400.964638 203.232237 
" style="fill:none;stroke:#000000;stroke-linecap:square;stroke-width:3;"/>
   </g>
   <g id="line2d_80">
    <path clip-path="url(#p92cc90fdab)" d="M 400.964638 357.588353 
L 400.964638 201.27756 
L 447.412511 201.27756 
L 447.412511 357.588353 
L 400.964638 357.588353 
" style="fill:none;stroke:#d3d3d3;stroke-linecap:square;stroke-width:0.5;"/>
   </g>
   <g id="line2d_81">
    <path clip-path="url(#p92cc90fdab)" d="M 396.790948 486.091943 
L 396.790948 486.091943 
L 393.477912 491.81002 
L 390.267162 497.551602 
L 388.73342 500.419851 
" style="fill:none;stroke:#000000;stroke-linecap:square;stroke-width:3;"/>
   </g>
   <g id="line2d_82">
    <path clip-path="url(#p92cc90fdab)" d="M 388.73342 500.419851 
L 388.73342 486.091943 
L 396.790948 486.091943 
L 396.790948 500.419851 
L 388.73342 500.419851 
" style="fill:none;stroke:#d3d3d3;stroke-linecap:square;stroke-width:0.5;"/>
   </g>
   <g id="line2d_83">
    <path clip-path="url(#p92cc90fdab)" d="M 404.649259 456.579792 
L 406.779119 449.952388 
L 408.833584 443.389186 
L 410.839134 436.819196 
L 412.798813 430.242827 
L 414.715281 423.660488 
L 416.590891 417.072574 
L 418.427753 410.47947 
L 420.22777 403.881543 
L 421.992675 397.279142 
L 423.724056 390.6726 
L 425.423377 384.062235 
L 427.091993 377.448347 
L 428.731162 370.831224 
L 431.925791 357.588353 
" style="fill:none;stroke:#000000;stroke-linecap:square;stroke-width:3;"/>
   </g>
   <g id="line2d_84">
    <path clip-path="url(#p92cc90fdab)" d="M 404.649259 456.579792 
L 404.649259 357.588353 
L 431.925791 357.588353 
L 431.925791 456.579792 
L 404.649259 456.579792 
" style="fill:none;stroke:#d3d3d3;stroke-linecap:square;stroke-width:0.5;"/>
   </g>
   <g id="line2d_85">
    <path clip-path="url(#p92cc90fdab)" d="M 269.447767 583.72884 
L 269.447767 583.72884 
L 274.405373 589.350408 
L 279.775706 594.889366 
L 285.80768 600.314712 
L 293.091999 605.535096 
L 303.397844 609.962131 
L 319.500479 608.667354 
L 330.389419 598.75064 
L 334.515597 589.39326 
L 336.474356 581.097916 
L 337.531236 573.327149 
L 338.100023 565.846197 
L 338.366624 558.548631 
L 338.43502 551.381082 
L 338.373953 544.315802 
L 338.23632 537.340233 
L 338.069707 530.454144 
L 337.924606 523.672629 
L 337.86422 517.039067 
L 337.980237 510.667379 
L 338.413758 504.910581 
L 339.109146 501.436717 
" style="fill:none;stroke:#000000;stroke-linecap:square;stroke-width:3;"/>
   </g>
   <g id="line2d_86">
    <path clip-path="url(#p92cc90fdab)" d="M 269.447767 609.962131 
L 269.447767 501.436717 
L 339.109146 501.436717 
L 339.109146 609.962131 
L 269.447767 609.962131 
" style="fill:none;stroke:#d3d3d3;stroke-linecap:square;stroke-width:0.5;"/>
   </g>
   <g id="line2d_87">
    <path clip-path="url(#p92cc90fdab)" d="M 400.964638 203.232237 
L 400.964638 203.232237 
L 396.675669 204.084339 
L 391.251383 204.398023 
L 385.297008 204.217969 
L 379.076619 203.650449 
L 372.713923 202.78103 
L 366.27228 201.671623 
L 359.786711 200.366812 
L 353.277814 198.899279 
L 346.758341 197.293498 
L 340.236541 195.568179 
L 333.717971 193.737882 
L 327.206519 191.814114 
L 320.705019 189.806074 
L 314.215623 187.721184 
L 307.740047 185.565464 
L 301.279722 183.343809 
L 294.835913 181.060182 
L 288.409789 178.717763 
L 282.002489 176.319057 
L 275.615166 173.865965 
L 269.24904 171.359833 
L 262.905441 168.801486 
L 256.58587 166.191236 
L 250.292068 163.52887 
L 244.026117 160.813634 
L 237.790576 158.044179 
L 231.588693 155.218506 
L 225.424717 152.333878 
L 219.30439 149.386716 
L 225.361349 152.395142 
" style="fill:none;stroke:#000000;stroke-linecap:square;stroke-width:3;"/>
   </g>
   <g id="line2d_88">
    <path clip-path="url(#p92cc90fdab)" d="M 219.30439 204.398023 
L 219.30439 149.386716 
L 400.964638 149.386716 
L 400.964638 204.398023 
L 219.30439 204.398023 
" style="fill:none;stroke:#d3d3d3;stroke-linecap:square;stroke-width:0.5;"/>
   </g>
   <g id="line2d_89">
    <path clip-path="url(#p92cc90fdab)" d="M 202.640183 171.098391 
L 200.615342 170.092658 
L 194.246017 166.818573 
L 187.897633 163.425631 
L 181.57132 159.886824 
L 175.268665 156.160174 
L 168.990126 152.173575 
L 162.725385 147.780401 
L 156.393206 142.57047 
L 149.41433 134.162894 
L 155.242813 110.43095 
L 167.673804 106.722887 
L 176.363976 106.437869 
L 176.363976 106.437869 
" style="fill:none;stroke:#000000;stroke-linecap:square;stroke-width:3;"/>
   </g>
   <g id="line2d_90">
    <path clip-path="url(#p92cc90fdab)" d="M 149.41433 171.098391 
L 149.41433 106.437869 
L 202.640183 106.437869 
L 202.640183 171.098391 
L 149.41433 171.098391 
" style="fill:none;stroke:#d3d3d3;stroke-linecap:square;stroke-width:0.5;"/>
   </g>
   <g id="line2d_91">
    <path clip-path="url(#p92cc90fdab)" d="M 345.275395 491.540548 
L 384.917243 508.876443 
L 387.881062 502.235241 
L 390.592648 495.697656 
L 388.73342 500.419851 
" style="fill:none;stroke:#000000;stroke-linecap:square;stroke-width:3;"/>
   </g>
   <g id="line2d_92">
    <path clip-path="url(#p92cc90fdab)" d="M 345.275395 508.876443 
L 345.275395 491.540548 
L 390.592648 491.540548 
L 390.592648 508.876443 
L 345.275395 508.876443 
" style="fill:none;stroke:#d3d3d3;stroke-linecap:square;stroke-width:0.5;"/>
   </g>
   <g id="line2d_93">
    <path clip-path="url(#p92cc90fdab)" d="M 202.640183 171.098391 
L 204.694302 179.252449 
L 206.099392 185.576707 
L 207.361336 191.97822 
L 208.497239 198.440965 
L 209.521758 204.952961 
L 210.447498 211.50511 
L 211.285367 218.090407 
L 212.044869 224.703394 
L 212.734343 231.339767 
L 213.361165 237.996106 
L 213.931904 244.669665 
L 214.452462 251.358223 
L 214.928175 258.059977 
L 215.363914 264.773449 
L 215.76415 271.497429 
L 216.133026 278.230919 
L 216.474407 284.973097 
L 216.791928 291.723285 
L 217.089036 298.480926 
L 217.36902 305.245563 
L 217.635048 312.016826 
L 217.890194 318.794415 
L 218.137459 325.578094 
L 218.379804 332.367682 
L 218.620165 339.163045 
L 218.861476 345.964087 
L 219.106695 352.770753 
L 219.358818 359.583016 
L 219.620908 366.400878 
L 219.896111 373.224367 
L 220.187683 380.053529 
" style="fill:none;stroke:#000000;stroke-linecap:square;stroke-width:3;"/>
   </g>
   <g id="line2d_94">
    <path clip-path="url(#p92cc90fdab)" d="M 202.640183 380.053529 
L 202.640183 171.098391 
L 220.187683 171.098391 
L 220.187683 380.053529 
L 202.640183 380.053529 
" style="fill:none;stroke:#d3d3d3;stroke-linecap:square;stroke-width:0.5;"/>
   </g>
   <g id="line2d_95">
    <path clip-path="url(#p92cc90fdab)" d="M 220.187683 380.053529 
L 220.499011 386.88843 
L 220.833645 393.729148 
L 221.195318 400.575771 
L 221.587988 407.428392 
L 222.015864 414.287101 
L 222.483449 421.151984 
L 222.995583 428.023106 
L 223.55749 434.900508 
L 224.174836 441.784187 
L 224.853793 448.674085 
L 225.601106 455.570057 
L 226.424179 462.471849 
L 227.331165 469.379057 
L 228.331074 476.291074 
L 229.43389 483.207028 
L 230.650702 490.125689 
L 231.993855 497.045362 
L 233.477105 503.963733 
L 235.115784 510.877673 
L 236.92696 517.782984 
L 238.929579 524.674065 
L 241.144557 531.54349 
L 243.594777 538.381478 
L 246.304936 545.17524 
L 249.30114 551.908232 
L 252.610147 558.559345 
L 256.258139 565.102132 
L 260.268926 571.504285 
L 264.661594 577.727608 
L 269.447767 583.72884 
L 269.447767 583.72884 
" style="fill:none;stroke:#000000;stroke-linecap:square;stroke-width:3;"/>
   </g>
   <g id="line2d_96">
    <path clip-path="url(#p92cc90fdab)" d="M 220.187683 583.72884 
L 220.187683 380.053529 
L 269.447767 380.053529 
L 269.447767 583.72884 
L 220.187683 583.72884 
" style="fill:none;stroke:#d3d3d3;stroke-linecap:square;stroke-width:0.5;"/>
   </g>
   <g id="line2d_97">
    <path clip-path="url(#p92cc90fdab)" d="M 269.447767 583.72884 
" style="fill:none;stroke:#000000;stroke-linecap:square;stroke-width:3;"/>
   </g>
   <g id="line2d_98">
    <path clip-path="url(#p92cc90fdab)" d="M 269.447767 583.72884 
L 269.447767 583.72884 
L 269.447767 583.72884 
L 269.447767 583.72884 
L 269.447767 583.72884 
" style="fill:none;stroke:#d3d3d3;stroke-linecap:square;stroke-width:0.5;"/>
   </g>
   <g id="line2d_99">
    <path clip-path="url(#p92cc90fdab)" d="M 431.925791 357.588353 
L 431.925791 357.588353 
L 431.925791 357.588353 
" style="fill:none;stroke:#000000;stroke-linecap:square;stroke-width:3;"/>
   </g>
   <g id="line2d_100">
    <path clip-path="url(#p92cc90fdab)" d="M 431.925791 357.588353 
L 431.925791 357.588353 
L 431.925791 357.588353 
L 431.925791 357.588353 
L 431.925791 357.588353 
" style="fill:none;stroke:#d3d3d3;stroke-linecap:square;stroke-width:0.5;"/>
   </g>
   <g id="line2d_101">
    <path clip-path="url(#p92cc90fdab)" d="M 431.925791 357.588353 
L 430.342061 364.211139 
L 431.925791 357.588353 
L 431.925791 357.588353 
" style="fill:none;stroke:#000000;stroke-linecap:square;stroke-width:3;"/>
   </g>
   <g id="line2d_102">
    <path clip-path="url(#p92cc90fdab)" d="M 430.342061 364.211139 
L 430.342061 357.588353 
L 431.925791 357.588353 
L 431.925791 364.211139 
L 430.342061 364.211139 
" style="fill:none;stroke:#d3d3d3;stroke-linecap:square;stroke-width:0.5;"/>
   </g>
   <g id="line2d_103">
    <path clip-path="url(#p92cc90fdab)" d="M 176.063113 99.755364 
L 178.693376 99.919874 
L 181.280451 100.410705 
L 183.781857 101.219796 
L 186.156522 102.333863 
L 188.365453 103.734611 
L 190.37238 105.399042 
L 192.144349 107.299826 
L 193.652265 109.40575 
L 194.871367 111.682237 
L 195.781639 114.091906 
L 196.368133 116.595191 
L 196.621218 119.150987 
L 196.536741 121.71733 
L 196.116087 124.252078 
L 195.366163 126.713612 
L 194.299284 129.061514 
L 192.932968 131.257231 
L 191.289649 133.26471 
L 189.396311 135.050987 
L 187.284042 136.586732 
L 184.987526 137.846729 
L 182.544471 138.810288 
L 179.994992 139.461587 
L 177.380952 139.789932 
L 174.745273 139.789932 
L 172.131233 139.461587 
L 169.581755 138.810288 
L 167.1387 137.846729 
L 164.842183 136.586732 
L 162.729914 135.050987 
L 160.836576 133.26471 
L 159.193257 131.257231 
L 157.826941 129.061514 
L 156.760062 126.713612 
L 156.010139 124.252078 
L 155.589485 121.71733 
L 155.505007 119.150987 
L 155.758093 116.595191 
L 156.344587 114.091906 
L 157.254858 111.682237 
L 158.47396 109.40575 
L 159.981876 107.299826 
L 161.753845 105.399042 
L 163.760772 103.734611 
L 165.969704 102.333863 
L 168.344368 101.219796 
L 170.845774 100.410705 
L 173.432849 99.919874 
L 176.063113 99.755364 
" style="fill:none;stroke:#808080;stroke-linecap:square;stroke-width:1.5;"/>
   </g>
   <g id="line2d_104">
    <path clip-path="url(#p92cc90fdab)" d="M 232.565648 325.46215 
L 235.195912 325.626661 
L 237.782987 326.117491 
L 240.284393 326.926582 
L 242.659058 328.040649 
L 244.867989 329.441398 
L 246.874916 331.105829 
L 248.646885 333.006612 
L 250.154801 335.112537 
L 251.373903 337.389023 
L 252.284175 339.798693 
L 252.870668 342.301977 
L 253.123754 344.857774 
L 253.039276 347.424116 
L 252.618622 349.958864 
L 251.868699 352.420399 
L 250.80182 354.768301 
L 249.435504 356.964018 
L 247.792185 358.971496 
L 245.898847 360.757774 
L 243.786578 362.293519 
L 241.490061 363.553515 
L 239.047006 364.517074 
L 236.497528 365.168373 
L 233.883488 365.496718 
L 231.247809 365.496718 
L 228.633769 365.168373 
L 226.08429 364.517074 
L 223.641235 363.553515 
L 221.344719 362.293519 
L 219.23245 360.757774 
L 217.339112 358.971496 
L 215.695793 356.964018 
L 214.329477 354.768301 
L 213.262598 352.420399 
L 212.512674 349.958864 
L 212.09202 347.424116 
L 212.007543 344.857774 
L 212.260629 342.301977 
L 212.847122 339.798693 
L 213.757394 337.389023 
L 214.976496 335.112537 
L 216.484412 333.006612 
L 218.256381 331.105829 
L 220.263308 329.441398 
L 222.472239 328.040649 
L 224.846904 326.926582 
L 227.34831 326.117491 
L 229.935385 325.626661 
L 232.565648 325.46215 
" style="fill:none;stroke:#808080;stroke-linecap:square;stroke-width:1.5;"/>
   </g>
   <g id="line2d_105">
    <path clip-path="url(#p92cc90fdab)" d="M 280.017229 555.180415 
L 282.647493 555.344925 
L 285.234567 555.835756 
L 287.735974 556.644847 
L 290.110638 557.758914 
L 292.319569 559.159662 
L 294.326496 560.824093 
L 296.098466 562.724877 
L 297.606381 564.830801 
L 298.825484 567.107288 
L 299.735755 569.516957 
L 300.322249 572.020242 
L 300.575335 574.576038 
L 300.490857 577.142381 
L 300.070203 579.677129 
L 299.32028 582.138663 
L 298.253401 584.486565 
L 296.887085 586.682282 
L 295.243766 588.689761 
L 293.350427 590.476038 
L 291.238158 592.011783 
L 288.941642 593.27178 
L 286.498587 594.235339 
L 283.949109 594.886638 
L 281.335069 595.214983 
L 278.69939 595.214983 
L 276.08535 594.886638 
L 273.535871 594.235339 
L 271.092816 593.27178 
L 268.7963 592.011783 
L 266.684031 590.476038 
L 264.790693 588.689761 
L 263.147374 586.682282 
L 261.781057 584.486565 
L 260.714178 582.138663 
L 259.964255 579.677129 
L 259.543601 577.142381 
L 259.459123 574.576038 
L 259.712209 572.020242 
L 260.298703 569.516957 
L 261.208974 567.107288 
L 262.428077 564.830801 
L 263.935993 562.724877 
L 265.707962 560.824093 
L 267.714889 559.159662 
L 269.92382 557.758914 
L 272.298485 556.644847 
L 274.799891 555.835756 
L 277.386966 555.344925 
L 280.017229 555.180415 
" style="fill:none;stroke:#808080;stroke-linecap:square;stroke-width:1.5;"/>
   </g>
   <g id="line2d_106">
    <path clip-path="url(#p92cc90fdab)" d="M 326.329271 476.556602 
L 328.959534 476.721113 
L 331.546609 477.211943 
L 334.048015 478.021035 
L 336.42268 479.135101 
L 338.631611 480.53585 
L 340.638538 482.200281 
L 342.410507 484.101064 
L 343.918423 486.206989 
L 345.137525 488.483476 
L 346.047797 490.893145 
L 346.634291 493.396429 
L 346.887376 495.952226 
L 346.802899 498.518568 
L 346.382245 501.053317 
L 345.632321 503.514851 
L 344.565442 505.862753 
L 343.199126 508.05847 
L 341.555807 510.065948 
L 339.662469 511.852226 
L 337.5502 513.387971 
L 335.253684 514.647967 
L 332.810629 515.611526 
L 330.26115 516.262825 
L 327.64711 516.59117 
L 325.011431 516.59117 
L 322.397391 516.262825 
L 319.847913 515.611526 
L 317.404858 514.647967 
L 315.108341 513.387971 
L 312.996072 511.852226 
L 311.102734 510.065948 
L 309.459415 508.05847 
L 308.093099 505.862753 
L 307.02622 503.514851 
L 306.276297 501.053317 
L 305.855643 498.518568 
L 305.771165 495.952226 
L 306.024251 493.396429 
L 306.610745 490.893145 
L 307.521016 488.483476 
L 308.740118 486.206989 
L 310.248034 484.101064 
L 312.020003 482.200281 
L 314.02693 480.53585 
L 316.235862 479.135101 
L 318.610526 478.021035 
L 321.111932 477.211943 
L 323.699007 476.721113 
L 326.329271 476.556602 
" style="fill:none;stroke:#808080;stroke-linecap:square;stroke-width:1.5;"/>
   </g>
   <g id="line2d_107">
    <path clip-path="url(#p92cc90fdab)" d="M 384.895373 459.409063 
L 387.525637 459.573574 
L 390.112711 460.064404 
L 392.614117 460.873496 
L 394.988782 461.987562 
L 397.197713 463.388311 
L 399.20464 465.052742 
L 400.97661 466.953525 
L 402.484525 469.05945 
L 403.703628 471.335937 
L 404.613899 473.745606 
L 405.200393 476.248891 
L 405.453479 478.804687 
L 405.369001 481.371029 
L 404.948347 483.905778 
L 404.198424 486.367312 
L 403.131545 488.715214 
L 401.765228 490.910931 
L 400.121909 492.91841 
L 398.228571 494.704687 
L 396.116302 496.240432 
L 393.819786 497.500429 
L 391.376731 498.463987 
L 388.827252 499.115286 
L 386.213212 499.443631 
L 383.577534 499.443631 
L 380.963494 499.115286 
L 378.414015 498.463987 
L 375.97096 497.500429 
L 373.674444 496.240432 
L 371.562175 494.704687 
L 369.668836 492.91841 
L 368.025518 490.910931 
L 366.659201 488.715214 
L 365.592322 486.367312 
L 364.842399 483.905778 
L 364.421745 481.371029 
L 364.337267 478.804687 
L 364.590353 476.248891 
L 365.176847 473.745606 
L 366.087118 471.335937 
L 367.306221 469.05945 
L 368.814136 466.953525 
L 370.586106 465.052742 
L 372.593033 463.388311 
L 374.801964 461.987562 
L 377.176628 460.873496 
L 379.678035 460.064404 
L 382.265109 459.573574 
L 384.895373 459.409063 
" style="fill:none;stroke:#808080;stroke-linecap:square;stroke-width:1.5;"/>
   </g>
   <g id="line2d_108">
    <path clip-path="url(#p92cc90fdab)" d="M 418.565092 334.544185 
L 421.195356 334.708696 
L 423.782431 335.199526 
L 426.283837 336.008617 
L 428.658502 337.122684 
L 430.867433 338.523433 
L 432.87436 340.187864 
L 434.646329 342.088647 
L 436.154245 344.194572 
L 437.373347 346.471058 
L 438.283619 348.880728 
L 438.870112 351.384012 
L 439.123198 353.939809 
L 439.03872 356.506151 
L 438.618066 359.040899 
L 437.868143 361.502434 
L 436.801264 363.850336 
L 435.434948 366.046053 
L 433.791629 368.053531 
L 431.898291 369.839809 
L 429.786022 371.375554 
L 427.489505 372.63555 
L 425.04645 373.599109 
L 422.496972 374.250408 
L 419.882932 374.578753 
L 417.247253 374.578753 
L 414.633213 374.250408 
L 412.083734 373.599109 
L 409.640679 372.63555 
L 407.344163 371.375554 
L 405.231894 369.839809 
L 403.338556 368.053531 
L 401.695237 366.046053 
L 400.328921 363.850336 
L 399.262042 361.502434 
L 398.512118 359.040899 
L 398.091464 356.506151 
L 398.006987 353.939809 
L 398.260072 351.384012 
L 398.846566 348.880728 
L 399.756838 346.471058 
L 400.97594 344.194572 
L 402.483856 342.088647 
L 404.255825 340.187864 
L 406.262752 338.523433 
L 408.471683 337.122684 
L 410.846348 336.008617 
L 413.347754 335.199526 
L 415.934829 334.708696 
L 418.565092 334.544185 
" style="fill:none;stroke:#808080;stroke-linecap:square;stroke-width:1.5;"/>
   </g>
   <g id="line2d_109">
    <path clip-path="url(#p92cc90fdab)" d="M 405.151612 195.914982 
L 407.781876 196.079493 
L 410.36895 196.570323 
L 412.870357 197.379414 
L 415.245021 198.493481 
L 417.453952 199.89423 
L 419.460879 201.558661 
L 421.232849 203.459444 
L 422.740764 205.565369 
L 423.959867 207.841855 
L 424.870138 210.251525 
L 425.456632 212.754809 
L 425.709718 215.310606 
L 425.62524 217.876948 
L 425.204586 220.411696 
L 424.454663 222.873231 
L 423.387784 225.221133 
L 422.021467 227.41685 
L 420.378149 229.424328 
L 418.48481 231.210606 
L 416.372541 232.746351 
L 414.076025 234.006347 
L 411.63297 234.969906 
L 409.083491 235.621205 
L 406.469451 235.94955 
L 403.833773 235.94955 
L 401.219733 235.621205 
L 398.670254 234.969906 
L 396.227199 234.006347 
L 393.930683 232.746351 
L 391.818414 231.210606 
L 389.925076 229.424328 
L 388.281757 227.41685 
L 386.91544 225.221133 
L 385.848561 222.873231 
L 385.098638 220.411696 
L 384.677984 217.876948 
L 384.593506 215.310606 
L 384.846592 212.754809 
L 385.433086 210.251525 
L 386.343357 207.841855 
L 387.56246 205.565369 
L 389.070375 203.459444 
L 390.842345 201.558661 
L 392.849272 199.89423 
L 395.058203 198.493481 
L 397.432867 197.379414 
L 399.934274 196.570323 
L 402.521348 196.079493 
L 405.151612 195.914982 
" style="fill:none;stroke:#808080;stroke-linecap:square;stroke-width:1.5;"/>
   </g>
   <g id="line2d_110"/>
   <g id="line2d_111"/>
   <g id="line2d_112"/>
   <g id="line2d_113"/>
   <g id="line2d_114"/>
   <g id="line2d_115"/>
   <g id="line2d_116"/>
   <g id="line2d_117"/>
   <g id="line2d_118"/>
   <g id="line2d_119"/>
   <g id="line2d_120"/>
   <g id="line2d_121"/>
   <g id="line2d_122"/>
   <g id="line2d_123"/>
   <g id="line2d_124"/>
   <g id="line2d_125"/>
   <g id="line2d_126"/>
   <g id="line2d_127"/>
   <g id="line2d_128"/>
   <g id="line2d_129"/>
   <g id="line2d_130"/>
   <g id="line2d_131"/>
   <g id="line2d_132"/>
   <g id="line2d_133"/>
   <g id="line2d_134"/>
   <g id="line2d_135"/>
   <g id="line2d_136"/>
   <g id="line2d_137"/>
   <g id="line2d_138"/>
   <g id="line2d_139"/>
   <g id="line2d_140"/>
   <g id="line2d_141"/>
   <g id="line2d_142"/>
   <g id="line2d_143"/>
   <g id="line2d_144"/>
   <g id="line2d_145"/>
   <g id="line2d_146"/>
   <g id="line2d_147"/>
   <g id="line2d_148"/>
   <g id="line2d_149"/>
   <g id="line2d_150"/>
   <g id="line2d_151"/>
   <g id="line2d_152"/>
   <g id="line2d_153"/>
   <g id="line2d_154"/>
   <g id="line2d_155"/>
   <g id="line2d_156"/>
   <g id="line2d_157"/>
   <g id="line2d_158"/>
   <g id="line2d_159"/>
   <g id="line2d_160"/>
   <g id="patch_3">
    <path d="M 90 630 
L 90 86.4 
" style="fill:none;stroke:#000000;stroke-linecap:square;stroke-linejoin:miter;stroke-width:0.8;"/>
   </g>
   <g id="patch_4">
    <path d="M 648 630 
L 648 86.4 
" style="fill:none;stroke:#000000;stroke-linecap:square;stroke-linejoin:miter;stroke-width:0.8;"/>
   </g>
   <g id="patch_5">
    <path d="M 90 630 
L 648 630 
" style="fill:none;stroke:#000000;stroke-linecap:square;stroke-linejoin:miter;stroke-width:0.8;"/>
   </g>
   <g id="patch_6">
    <path d="M 90 86.4 
L 648 86.4 
" style="fill:none;stroke:#000000;stroke-linecap:square;stroke-linejoin:miter;stroke-width:0.8;"/>
   </g>
   <g id="text_17">
    <!-- 0 -->
    <g transform="translate(-187.404933 633.074508)scale(0.1 -0.1)">
     <use xlink:href="#DejaVuSans-30"/>
    </g>
   </g>
   <g id="text_18">
    <!-- 0 -->
    <g transform="translate(-187.404933 613.036639)scale(0.1 -0.1)">
     <use xlink:href="#DejaVuSans-30"/>
    </g>
   </g>
   <g id="text_19">
    <!-- 0 -->
    <g transform="translate(-187.404933 592.99877)scale(0.1 -0.1)">
     <use xlink:href="#DejaVuSans-30"/>
    </g>
   </g>
  </g>
 </g>
 <defs>
  <clipPath id="p92cc90fdab">
   <rect height="543.6" width="558" x="90" y="86.4"/>
  </clipPath>
 </defs>
</svg>
