<?xml version="1.0" encoding="utf-8" standalone="no"?>
<!DOCTYPE svg PUBLIC "-//W3C//DTD SVG 1.1//EN"
  "http://www.w3.org/Graphics/SVG/1.1/DTD/svg11.dtd">
<svg height="720pt" version="1.1" viewBox="0 0 720 720" width="720pt" xmlns="http://www.w3.org/2000/svg" xmlns:xlink="http://www.w3.org/1999/xlink">
 <metadata>
  <rdf:RDF xmlns:cc="http://creativecommons.org/ns#" xmlns:dc="http://purl.org/dc/elements/1.1/" xmlns:rdf="http://www.w3.org/1999/02/22-rdf-syntax-ns#">
   <cc:Work>
    <dc:type rdf:resource="http://purl.org/dc/dcmitype/StillImage"/>
    <dc:date>2022-01-11T13:26:08.938458</dc:date>
    <dc:format>image/svg+xml</dc:format>
    <dc:creator>
     <cc:Agent>
      <dc:title>Matplotlib v3.4.3, https://matplotlib.org/</dc:title>
     </cc:Agent>
    </dc:creator>
   </cc:Work>
  </rdf:RDF>
 </metadata>
 <defs>
  <style type="text/css">*{stroke-linecap:butt;stroke-linejoin:round;}</style>
 </defs>
 <g id="figure_1">
  <g id="patch_1">
   <path d="M 0 720 
L 720 720 
L 720 0 
L 0 0 
z
" style="fill:none;"/>
  </g>
  <g id="axes_1">
   <g id="patch_2">
    <path d="M 90 630 
L 648 630 
L 648 86.4 
L 90 86.4 
z
" style="fill:#ffffff;"/>
   </g>
   <g id="PathCollection_1">
    <defs>
     <path d="M 0.972304 -8.870829 
Q -1.277159 -8.870829 -2.413438 -6.653699 
Q -3.545098 -4.441189 -3.545098 0.006929 
Q -3.545098 4.436569 -2.413438 6.653699 
Q -1.277159 8.870829 0.972304 8.870829 
Q 3.240243 8.870829 4.371903 6.653699 
Q 5.508182 4.436569 5.508182 0.006929 
Q 5.508182 -4.441189 4.371903 -6.653699 
Q 3.240243 -8.870829 0.972304 -8.870829 
z
M 0.972304 -11.18034 
Q 4.598235 -11.18034 6.51051 -8.311928 
Q 8.422784 -5.448135 8.422784 0.006929 
Q 8.422784 5.448135 6.51051 8.316547 
Q 4.598235 11.18034 0.972304 11.18034 
Q -2.649008 11.18034 -4.561283 8.316547 
Q -6.473558 5.448135 -6.473558 0.006929 
Q -6.473558 -5.448135 -4.561283 -8.311928 
Q -2.649008 -11.18034 0.972304 -11.18034 
z
" id="me2eb1d0f92" style="stroke:#808080;"/>
    </defs>
    <g clip-path="url(#p6df278ea3b)">
     <use style="fill:#808080;stroke:#808080;" x="286.453069" xlink:href="#me2eb1d0f92" y="110.556532"/>
    </g>
   </g>
   <g id="PathCollection_2">
    <defs>
     <path d="M -4.535873 8.63565 
L 0.404946 8.63565 
L 0.404946 -8.424791 
L -4.971969 -7.346533 
L -4.971969 -10.102082 
L 0.376192 -11.18034 
L 3.400108 -11.18034 
L 3.400108 8.63565 
L 8.340927 8.63565 
L 8.340927 11.18034 
L -4.535873 11.18034 
L -4.535873 8.63565 
z
" id="m0f262d9b06" style="stroke:#808080;"/>
    </defs>
    <g clip-path="url(#p6df278ea3b)">
     <use style="fill:#808080;stroke:#808080;" x="234.061513" xlink:href="#m0f262d9b06" y="261.404779"/>
    </g>
   </g>
   <g id="PathCollection_3">
    <defs>
     <path d="M -2.294912 8.680651 
L 8.075736 8.680651 
L 8.075736 11.18034 
L -5.867913 11.18034 
L -5.867913 8.680651 
Q -4.177916 6.929457 -1.259259 3.982555 
Q 1.664105 1.030945 2.4126 0.174178 
Q 3.838976 -1.426376 4.403877 -2.537349 
Q 4.973486 -3.648321 4.973486 -4.721634 
Q 4.973486 -6.472828 3.744825 -7.574386 
Q 2.516165 -8.680651 0.543718 -8.680651 
Q -0.854413 -8.680651 -2.407892 -8.195778 
Q -3.956663 -7.710904 -5.72198 -6.722326 
L -5.72198 -9.725719 
Q -3.928418 -10.445968 -2.370232 -10.813154 
Q -0.807338 -11.18034 0.487227 -11.18034 
Q 3.900173 -11.18034 5.929111 -9.471513 
Q 7.958048 -7.767394 7.958048 -4.914642 
Q 7.958048 -3.558879 7.449637 -2.344341 
Q 6.945933 -1.13451 5.604292 0.513119 
Q 5.237107 0.941502 3.264659 2.979855 
Q 1.296919 5.018207 -2.294912 8.680651 
z
" id="m2efdce3864" style="stroke:#808080;"/>
    </defs>
    <g clip-path="url(#p6df278ea3b)">
     <use style="fill:#808080;stroke:#808080;" x="234.061513" xlink:href="#m2efdce3864" y="261.404779"/>
    </g>
   </g>
   <g id="PathCollection_4">
    <defs>
     <path d="M 3.77605 -0.861447 
Q 5.868466 -0.413402 7.041697 1.004637 
Q 8.219548 2.418057 8.219548 4.496617 
Q 8.219548 7.683741 6.025513 9.43435 
Q 3.831478 11.18034 -0.210165 11.18034 
Q -1.563539 11.18034 -3.000054 10.912437 
Q -4.436569 10.644533 -5.965465 10.108727 
L -5.965465 7.295743 
Q -4.755282 8.002454 -3.314147 8.362737 
Q -1.868394 8.723021 -0.293308 8.723021 
Q 2.445772 8.723021 3.882287 7.64217 
Q 5.318802 6.561319 5.318802 4.496617 
Q 5.318802 2.588961 3.983905 1.517348 
Q 2.649008 0.441116 0.270213 0.441116 
L -2.242535 0.441116 
L -2.242535 -1.956155 
L 0.385688 -1.956155 
Q 2.533533 -1.956155 3.674431 -2.815293 
Q 4.815329 -3.674431 4.815329 -5.291088 
Q 4.815329 -6.949317 3.637479 -7.836169 
Q 2.464248 -8.72764 0.270213 -8.72764 
Q -0.930733 -8.72764 -2.302582 -8.464356 
Q -3.674431 -8.20569 -5.318802 -7.660646 
L -5.318802 -10.256536 
Q -3.655955 -10.718438 -2.205582 -10.949389 
Q -0.75521 -11.18034 0.528878 -11.18034 
Q 3.849954 -11.18034 5.780705 -9.66992 
Q 7.716074 -8.164119 7.716074 -5.595944 
Q 7.716074 -3.803764 6.690652 -2.570485 
Q 5.665229 -1.337207 3.77605 -0.861447 
z
" id="m9ad8a06e8d" style="stroke:#808080;"/>
    </defs>
    <g clip-path="url(#p6df278ea3b)">
     <use style="fill:#808080;stroke:#808080;" x="249.55538" xlink:href="#m9ad8a06e8d" y="444.727594"/>
    </g>
   </g>
   <g id="PathCollection_5">
    <defs>
     <path d="M 2.695646 -8.544598 
L -4.943215 3.392919 
L 2.695646 3.392919 
L 2.695646 -8.544598 
z
M 1.900131 -11.18034 
L 5.705184 -11.18034 
L 5.705184 3.392919 
L 8.896829 3.392919 
L 8.896829 5.908855 
L 5.705184 5.908855 
L 5.705184 11.18034 
L 2.695646 11.18034 
L 2.695646 5.908855 
L -7.396852 5.908855 
L -7.396852 2.99037 
L 1.900131 -11.18034 
z
" id="m461ab1866f" style="stroke:#808080;"/>
    </defs>
    <g clip-path="url(#p6df278ea3b)">
     <use style="fill:#808080;stroke:#808080;" x="319.999164" xlink:href="#m461ab1866f" y="601.427813"/>
    </g>
   </g>
   <g id="PathCollection_6">
    <defs>
     <path d="M -5.008473 -11.18034 
L 6.639575 -11.18034 
L 6.639575 -8.679629 
L -2.291535 -8.679629 
L -2.291535 -3.306861 
Q -1.647555 -3.527789 -1.003575 -3.635902 
Q -0.354894 -3.744015 0.293787 -3.744015 
Q 3.964943 -3.744015 6.108409 -1.732165 
Q 8.256576 0.279685 8.256576 3.715812 
Q 8.256576 7.255352 6.052002 9.220196 
Q 3.847428 11.18034 -0.16217 11.18034 
Q -1.544142 11.18034 -2.97782 10.945311 
Q -4.406798 10.710281 -5.934488 10.240223 
L -5.934488 7.255352 
Q -4.613624 7.974541 -3.203448 8.327085 
Q -1.793273 8.679629 -0.223278 8.679629 
Q 2.319738 8.679629 3.800422 7.344663 
Q 5.285807 6.009697 5.285807 3.715812 
Q 5.285807 1.426627 3.800422 0.091661 
Q 2.319738 -1.248005 -0.223278 -1.248005 
Q -1.412526 -1.248005 -2.597073 -0.984772 
Q -3.77692 -0.72154 -5.008473 -0.16217 
L -5.008473 -11.18034 
z
" id="m4d4d2868e6" style="stroke:#808080;"/>
    </defs>
    <g clip-path="url(#p6df278ea3b)">
     <use style="fill:#808080;stroke:#808080;" x="319.999164" xlink:href="#m4d4d2868e6" y="601.427813"/>
    </g>
   </g>
   <g id="PathCollection_7">
    <defs>
     <path d="M 1.286397 -1.175541 
Q -0.676687 -1.175541 -1.826823 0.168594 
Q -2.97234 1.50811 -2.97234 3.845335 
Q -2.97234 6.168702 -1.826823 7.522075 
Q -0.676687 8.870829 1.286397 8.870829 
Q 3.249481 8.870829 4.394998 7.522075 
Q 5.540515 6.168702 5.540515 3.845335 
Q 5.540515 1.50811 4.394998 0.168594 
Q 3.249481 -1.175541 1.286397 -1.175541 
z
M 7.07403 -10.316583 
L 7.07403 -7.660646 
Q 5.974703 -8.177976 4.8569 -8.450499 
Q 3.739097 -8.72764 2.63977 -8.72764 
Q -0.247118 -8.72764 -1.771394 -6.778413 
Q -3.291052 -4.829186 -3.508146 -0.889162 
Q -2.658246 -2.145535 -1.374159 -2.815293 
Q -0.085452 -3.485051 1.457301 -3.485051 
Q 4.704473 -3.485051 6.589033 -1.512729 
Q 8.473594 0.454974 8.473594 3.845335 
Q 8.473594 7.166411 6.51051 9.175685 
Q 4.547426 11.18034 1.286397 11.18034 
Q -2.45501 11.18034 -4.43195 8.316547 
Q -6.408891 5.448135 -6.408891 0.006929 
Q -6.408891 -5.101708 -3.983905 -8.141024 
Q -1.55892 -11.18034 2.524295 -11.18034 
Q 3.623622 -11.18034 4.741425 -10.963246 
Q 5.859228 -10.746152 7.07403 -10.316583 
z
" id="ma7c8548dea" style="stroke:#808080;"/>
    </defs>
    <g clip-path="url(#p6df278ea3b)">
     <use style="fill:#808080;stroke:#808080;" x="383.1205" xlink:href="#ma7c8548dea" y="519.02207"/>
    </g>
   </g>
   <g id="PathCollection_8">
    <defs>
     <path d="M -5.93042 -11.18034 
L 8.446356 -11.18034 
L 8.446356 -9.891222 
L 0.32827 11.18034 
L -2.829829 11.18034 
L 4.809032 -8.630858 
L -5.93042 -8.630858 
L -5.93042 -11.18034 
z
" id="m246b3fbe20" style="stroke:#808080;"/>
    </defs>
    <g clip-path="url(#p6df278ea3b)">
     <use style="fill:#808080;stroke:#808080;" x="374.519454" xlink:href="#m246b3fbe20" y="383.595012"/>
    </g>
   </g>
   <g id="PathCollection_9">
    <defs>
     <path d="M 1.002328 0.524259 
Q -1.076232 0.524259 -2.267939 1.637443 
Q -3.455028 2.750627 -3.455028 4.695235 
Q -3.455028 6.644461 -2.267939 7.757645 
Q -1.076232 8.870829 1.002328 8.870829 
Q 3.080887 8.870829 4.277213 7.753026 
Q 5.478159 6.630604 5.478159 4.695235 
Q 5.478159 2.750627 4.286451 1.637443 
Q 3.099363 0.524259 1.002328 0.524259 
z
M -1.912275 -0.713639 
Q -3.787597 -1.175541 -4.836115 -2.459629 
Q -5.880014 -3.748335 -5.880014 -5.595944 
Q -5.880014 -8.177976 -4.041643 -9.679158 
Q -2.198654 -11.18034 1.002328 -11.18034 
Q 4.221785 -11.18034 6.055536 -9.679158 
Q 7.889288 -8.177976 7.889288 -5.595944 
Q 7.889288 -3.748335 6.84077 -2.459629 
Q 5.796871 -1.175541 3.935406 -0.713639 
Q 6.041679 -0.224023 7.214911 1.207874 
Q 8.392761 2.635151 8.392761 4.695235 
Q 8.392761 7.83155 6.480486 9.508254 
Q 4.568212 11.18034 1.002328 11.18034 
Q -2.558938 11.18034 -4.475831 9.508254 
Q -6.388106 7.83155 -6.388106 4.695235 
Q -6.388106 2.635151 -5.205636 1.207874 
Q -4.018548 -0.224023 -1.912275 -0.713639 
z
M -2.979268 -5.318802 
Q -2.979268 -3.646717 -1.93537 -2.709056 
Q -0.886852 -1.771394 1.002328 -1.771394 
Q 2.882269 -1.771394 3.940025 -2.709056 
Q 5.0024 -3.646717 5.0024 -5.318802 
Q 5.0024 -6.995507 3.940025 -7.933168 
Q 2.882269 -8.870829 1.002328 -8.870829 
Q -0.886852 -8.870829 -1.93537 -7.933168 
Q -2.979268 -6.995507 -2.979268 -5.318802 
z
" id="mc40c29fcf9" style="stroke:#808080;"/>
    </defs>
    <g clip-path="url(#p6df278ea3b)">
     <use style="fill:#808080;stroke:#808080;" x="373.538343" xlink:href="#mc40c29fcf9" y="248.100809"/>
    </g>
   </g>
   <g id="PathCollection_10">
    <defs>
     <path d="M -5.117875 10.311964 
L -5.117875 7.656027 
Q -4.018548 8.177976 -2.896126 8.450499 
Q -1.769085 8.723021 -0.683615 8.723021 
Q 2.203273 8.723021 3.722931 6.783032 
Q 5.247208 4.843043 5.464302 0.884542 
Q 4.628259 2.127059 3.339552 2.792198 
Q 2.055464 3.457337 0.498854 3.457337 
Q -2.73446 3.457337 -4.619021 1.503491 
Q -6.503581 -0.454974 -6.503581 -3.849954 
Q -6.503581 -7.166411 -4.540497 -9.171066 
Q -2.577414 -11.18034 0.683615 -11.18034 
Q 4.425022 -11.18034 6.392725 -8.311928 
Q 8.365047 -5.448135 8.365047 0.006929 
Q 8.365047 5.101708 5.94468 8.141024 
Q 3.528932 11.18034 -0.554282 11.18034 
Q -1.653609 11.18034 -2.780651 10.963246 
Q -3.903073 10.746152 -5.117875 10.311964 
z
M 0.683615 1.175541 
Q 2.646699 1.175541 3.792216 -0.163975 
Q 4.942352 -1.50811 4.942352 -3.849954 
Q 4.942352 -6.173321 3.792216 -7.522075 
Q 2.646699 -8.870829 0.683615 -8.870829 
Q -1.279469 -8.870829 -2.424986 -7.522075 
Q -3.570503 -6.173321 -3.570503 -3.849954 
Q -3.570503 -1.50811 -2.424986 -0.163975 
Q -1.279469 1.175541 0.683615 1.175541 
z
" id="mc69b840b1b" style="stroke:#808080;"/>
    </defs>
    <g clip-path="url(#p6df278ea3b)">
     <use style="fill:#808080;stroke:#808080;" x="374.330165" xlink:href="#mc69b840b1b" y="243.32002"/>
    </g>
   </g>
   <g id="PathCollection_11"/>
   <g id="PathCollection_12"/>
   <g id="PathCollection_13"/>
   <g id="PathCollection_14"/>
   <g id="PathCollection_15"/>
   <g id="matplotlib.axis_1">
    <g id="xtick_1">
     <g id="line2d_1">
      <defs>
       <path d="M 0 0 
L 0 3.5 
" id="mb164ba1d15" style="stroke:#000000;stroke-width:0.8;"/>
      </defs>
      <g>
       <use style="stroke:#000000;stroke-width:0.8;" x="102.800404" xlink:href="#mb164ba1d15" y="630"/>
      </g>
     </g>
     <g id="text_1">
      <!-- −200 -->
      <g transform="translate(89.066811 644.598438)scale(0.1 -0.1)">
       <defs>
        <path d="M 678 2272 
L 4684 2272 
L 4684 1741 
L 678 1741 
L 678 2272 
z
" id="DejaVuSans-2212" transform="scale(0.015625)"/>
        <path d="M 1228 531 
L 3431 531 
L 3431 0 
L 469 0 
L 469 531 
Q 828 903 1448 1529 
Q 2069 2156 2228 2338 
Q 2531 2678 2651 2914 
Q 2772 3150 2772 3378 
Q 2772 3750 2511 3984 
Q 2250 4219 1831 4219 
Q 1534 4219 1204 4116 
Q 875 4013 500 3803 
L 500 4441 
Q 881 4594 1212 4672 
Q 1544 4750 1819 4750 
Q 2544 4750 2975 4387 
Q 3406 4025 3406 3419 
Q 3406 3131 3298 2873 
Q 3191 2616 2906 2266 
Q 2828 2175 2409 1742 
Q 1991 1309 1228 531 
z
" id="DejaVuSans-32" transform="scale(0.015625)"/>
        <path d="M 2034 4250 
Q 1547 4250 1301 3770 
Q 1056 3291 1056 2328 
Q 1056 1369 1301 889 
Q 1547 409 2034 409 
Q 2525 409 2770 889 
Q 3016 1369 3016 2328 
Q 3016 3291 2770 3770 
Q 2525 4250 2034 4250 
z
M 2034 4750 
Q 2819 4750 3233 4129 
Q 3647 3509 3647 2328 
Q 3647 1150 3233 529 
Q 2819 -91 2034 -91 
Q 1250 -91 836 529 
Q 422 1150 422 2328 
Q 422 3509 836 4129 
Q 1250 4750 2034 4750 
z
" id="DejaVuSans-30" transform="scale(0.015625)"/>
       </defs>
       <use xlink:href="#DejaVuSans-2212"/>
       <use x="83.789062" xlink:href="#DejaVuSans-32"/>
       <use x="147.412109" xlink:href="#DejaVuSans-30"/>
       <use x="211.035156" xlink:href="#DejaVuSans-30"/>
      </g>
     </g>
    </g>
    <g id="xtick_2">
     <g id="line2d_2">
      <g>
       <use style="stroke:#000000;stroke-width:0.8;" x="201.034514" xlink:href="#mb164ba1d15" y="630"/>
      </g>
     </g>
     <g id="text_2">
      <!-- −100 -->
      <g transform="translate(187.30092 644.598438)scale(0.1 -0.1)">
       <defs>
        <path d="M 794 531 
L 1825 531 
L 1825 4091 
L 703 3866 
L 703 4441 
L 1819 4666 
L 2450 4666 
L 2450 531 
L 3481 531 
L 3481 0 
L 794 0 
L 794 531 
z
" id="DejaVuSans-31" transform="scale(0.015625)"/>
       </defs>
       <use xlink:href="#DejaVuSans-2212"/>
       <use x="83.789062" xlink:href="#DejaVuSans-31"/>
       <use x="147.412109" xlink:href="#DejaVuSans-30"/>
       <use x="211.035156" xlink:href="#DejaVuSans-30"/>
      </g>
     </g>
    </g>
    <g id="xtick_3">
     <g id="line2d_3">
      <g>
       <use style="stroke:#000000;stroke-width:0.8;" x="299.268624" xlink:href="#mb164ba1d15" y="630"/>
      </g>
     </g>
     <g id="text_3">
      <!-- 0 -->
      <g transform="translate(296.087374 644.598438)scale(0.1 -0.1)">
       <use xlink:href="#DejaVuSans-30"/>
      </g>
     </g>
    </g>
    <g id="xtick_4">
     <g id="line2d_4">
      <g>
       <use style="stroke:#000000;stroke-width:0.8;" x="397.502734" xlink:href="#mb164ba1d15" y="630"/>
      </g>
     </g>
     <g id="text_4">
      <!-- 100 -->
      <g transform="translate(387.958984 644.598438)scale(0.1 -0.1)">
       <use xlink:href="#DejaVuSans-31"/>
       <use x="63.623047" xlink:href="#DejaVuSans-30"/>
       <use x="127.246094" xlink:href="#DejaVuSans-30"/>
      </g>
     </g>
    </g>
    <g id="xtick_5">
     <g id="line2d_5">
      <g>
       <use style="stroke:#000000;stroke-width:0.8;" x="495.736843" xlink:href="#mb164ba1d15" y="630"/>
      </g>
     </g>
     <g id="text_5">
      <!-- 200 -->
      <g transform="translate(486.193093 644.598438)scale(0.1 -0.1)">
       <use xlink:href="#DejaVuSans-32"/>
       <use x="63.623047" xlink:href="#DejaVuSans-30"/>
       <use x="127.246094" xlink:href="#DejaVuSans-30"/>
      </g>
     </g>
    </g>
    <g id="xtick_6">
     <g id="line2d_6">
      <g>
       <use style="stroke:#000000;stroke-width:0.8;" x="593.970953" xlink:href="#mb164ba1d15" y="630"/>
      </g>
     </g>
     <g id="text_6">
      <!-- 300 -->
      <g transform="translate(584.427203 644.598438)scale(0.1 -0.1)">
       <defs>
        <path d="M 2597 2516 
Q 3050 2419 3304 2112 
Q 3559 1806 3559 1356 
Q 3559 666 3084 287 
Q 2609 -91 1734 -91 
Q 1441 -91 1130 -33 
Q 819 25 488 141 
L 488 750 
Q 750 597 1062 519 
Q 1375 441 1716 441 
Q 2309 441 2620 675 
Q 2931 909 2931 1356 
Q 2931 1769 2642 2001 
Q 2353 2234 1838 2234 
L 1294 2234 
L 1294 2753 
L 1863 2753 
Q 2328 2753 2575 2939 
Q 2822 3125 2822 3475 
Q 2822 3834 2567 4026 
Q 2313 4219 1838 4219 
Q 1578 4219 1281 4162 
Q 984 4106 628 3988 
L 628 4550 
Q 988 4650 1302 4700 
Q 1616 4750 1894 4750 
Q 2613 4750 3031 4423 
Q 3450 4097 3450 3541 
Q 3450 3153 3228 2886 
Q 3006 2619 2597 2516 
z
" id="DejaVuSans-33" transform="scale(0.015625)"/>
       </defs>
       <use xlink:href="#DejaVuSans-33"/>
       <use x="63.623047" xlink:href="#DejaVuSans-30"/>
       <use x="127.246094" xlink:href="#DejaVuSans-30"/>
      </g>
     </g>
    </g>
   </g>
   <g id="matplotlib.axis_2">
    <g id="ytick_1">
     <g id="line2d_7">
      <defs>
       <path d="M 0 0 
L -3.5 0 
" id="m432ee7fe63" style="stroke:#000000;stroke-width:0.8;"/>
      </defs>
      <g>
       <use style="stroke:#000000;stroke-width:0.8;" x="90" xlink:href="#m432ee7fe63" y="617.529929"/>
      </g>
     </g>
     <g id="text_7">
      <!-- −200 -->
      <g transform="translate(55.532812 621.329147)scale(0.1 -0.1)">
       <use xlink:href="#DejaVuSans-2212"/>
       <use x="83.789062" xlink:href="#DejaVuSans-32"/>
       <use x="147.412109" xlink:href="#DejaVuSans-30"/>
       <use x="211.035156" xlink:href="#DejaVuSans-30"/>
      </g>
     </g>
    </g>
    <g id="ytick_2">
     <g id="line2d_8">
      <g>
       <use style="stroke:#000000;stroke-width:0.8;" x="90" xlink:href="#m432ee7fe63" y="521.830893"/>
      </g>
     </g>
     <g id="text_8">
      <!-- −100 -->
      <g transform="translate(55.532812 525.630111)scale(0.1 -0.1)">
       <use xlink:href="#DejaVuSans-2212"/>
       <use x="83.789062" xlink:href="#DejaVuSans-31"/>
       <use x="147.412109" xlink:href="#DejaVuSans-30"/>
       <use x="211.035156" xlink:href="#DejaVuSans-30"/>
      </g>
     </g>
    </g>
    <g id="ytick_3">
     <g id="line2d_9">
      <g>
       <use style="stroke:#000000;stroke-width:0.8;" x="90" xlink:href="#m432ee7fe63" y="426.131857"/>
      </g>
     </g>
     <g id="text_9">
      <!-- 0 -->
      <g transform="translate(76.6375 429.931076)scale(0.1 -0.1)">
       <use xlink:href="#DejaVuSans-30"/>
      </g>
     </g>
    </g>
    <g id="ytick_4">
     <g id="line2d_10">
      <g>
       <use style="stroke:#000000;stroke-width:0.8;" x="90" xlink:href="#m432ee7fe63" y="330.432821"/>
      </g>
     </g>
     <g id="text_10">
      <!-- 100 -->
      <g transform="translate(63.9125 334.23204)scale(0.1 -0.1)">
       <use xlink:href="#DejaVuSans-31"/>
       <use x="63.623047" xlink:href="#DejaVuSans-30"/>
       <use x="127.246094" xlink:href="#DejaVuSans-30"/>
      </g>
     </g>
    </g>
    <g id="ytick_5">
     <g id="line2d_11">
      <g>
       <use style="stroke:#000000;stroke-width:0.8;" x="90" xlink:href="#m432ee7fe63" y="234.733785"/>
      </g>
     </g>
     <g id="text_11">
      <!-- 200 -->
      <g transform="translate(63.9125 238.533004)scale(0.1 -0.1)">
       <use xlink:href="#DejaVuSans-32"/>
       <use x="63.623047" xlink:href="#DejaVuSans-30"/>
       <use x="127.246094" xlink:href="#DejaVuSans-30"/>
      </g>
     </g>
    </g>
    <g id="ytick_6">
     <g id="line2d_12">
      <g>
       <use style="stroke:#000000;stroke-width:0.8;" x="90" xlink:href="#m432ee7fe63" y="139.034749"/>
      </g>
     </g>
     <g id="text_12">
      <!-- 300 -->
      <g transform="translate(63.9125 142.833968)scale(0.1 -0.1)">
       <use xlink:href="#DejaVuSans-33"/>
       <use x="63.623047" xlink:href="#DejaVuSans-30"/>
       <use x="127.246094" xlink:href="#DejaVuSans-30"/>
      </g>
     </g>
    </g>
   </g>
   <g id="line2d_13">
    <path clip-path="url(#p6df278ea3b)" d="M 374.330165 243.32002 
L 375.205397 238.5675 
L 375.991308 233.800126 
L 376.682284 229.018839 
L 377.272235 224.224853 
L 377.754552 219.419707 
L 378.122073 214.605333 
L 378.367047 209.784129 
L 378.481099 204.959054 
L 378.455215 200.133722 
L 378.279725 195.312531 
L 377.944321 190.50079 
L 377.438095 185.704874 
L 376.749616 180.932385 
L 375.867064 176.192321 
L 374.778431 171.495245 
L 373.4718 166.853436 
L 371.935726 162.280994 
L 370.159711 157.793877 
L 368.134778 153.409837 
L 365.85412 149.148198 
L 363.313756 145.029463 
L 360.513146 141.074738 
L 357.455645 137.304977 
L 354.148729 133.740121 
L 350.603901 130.398234 
L 346.836283 127.294736 
L 342.863925 124.441862 
L 338.706926 121.848406 
L 334.386509 119.519778 
L 329.924145 117.458329 
L 325.340841 115.663873 
L 320.656621 114.134324 
L 315.890225 112.866358 
L 311.058987 111.856055 
L 306.17888 111.099473 
L 301.264679 110.593145 
L 296.330211 110.334501 
L 291.388684 110.322223 
L 286.453069 110.556532 
" style="fill:none;stroke:#808080;stroke-linecap:square;stroke-width:1.5;"/>
   </g>
   <g id="line2d_14">
    <path clip-path="url(#p6df278ea3b)" d="M 286.453069 243.32002 
L 286.453069 110.322223 
L 378.481099 110.322223 
L 378.481099 243.32002 
L 286.453069 243.32002 
" style="fill:none;stroke:#d3d3d3;stroke-linecap:square;stroke-width:0.5;"/>
   </g>
   <g id="line2d_15">
    <path clip-path="url(#p6df278ea3b)" d="M 286.453069 110.556532 
L 281.536542 111.039438 
L 276.652994 111.774919 
L 271.817604 112.769043 
L 267.047498 114.029979 
L 262.362483 115.567849 
L 257.78581 117.394293 
L 253.344894 119.521646 
L 249.071788 121.961531 
L 245.003106 124.722757 
L 241.178977 127.808562 
L 237.640614 131.21356 
L 234.426376 134.921221 
L 231.56689 138.903041 
L 229.080535 143.120287 
L 226.970906 147.52823 
L 225.227222 152.081564 
L 223.827344 156.739203 
L 222.742071 161.467194 
L 221.93929 166.239533 
L 221.387103 171.03749 
L 221.055732 175.848214 
L 220.91843 180.663214 
L 220.951708 185.477058 
L 221.1352 190.286354 
L 221.451345 195.089039 
L 221.885026 199.883885 
L 222.423208 204.670183 
L 223.054627 209.447541 
L 223.769508 214.21576 
L 224.559336 218.974761 
L 225.416669 223.724543 
L 226.334974 228.465155 
L 227.3085 233.196694 
L 228.332167 237.919287 
L 229.401476 242.633097 
L 230.512433 247.338317 
L 231.661482 252.03517 
L 232.845453 256.723901 
L 234.061513 261.404779 
" style="fill:none;stroke:#808080;stroke-linecap:square;stroke-width:1.5;"/>
   </g>
   <g id="line2d_16">
    <path clip-path="url(#p6df278ea3b)" d="M 220.91843 261.404779 
L 220.91843 110.556532 
L 286.453069 110.556532 
L 286.453069 261.404779 
L 220.91843 261.404779 
" style="fill:none;stroke:#d3d3d3;stroke-linecap:square;stroke-width:0.5;"/>
   </g>
   <g id="line2d_17">
    <path clip-path="url(#p6df278ea3b)" d="M 234.061513 261.404779 
" style="fill:none;stroke:#808080;stroke-linecap:square;stroke-width:1.5;"/>
   </g>
   <g id="line2d_18">
    <path clip-path="url(#p6df278ea3b)" d="M 234.061513 261.404779 
L 234.061513 261.404779 
L 234.061513 261.404779 
L 234.061513 261.404779 
L 234.061513 261.404779 
" style="fill:none;stroke:#d3d3d3;stroke-linecap:square;stroke-width:0.5;"/>
   </g>
   <g id="line2d_19">
    <path clip-path="url(#p6df278ea3b)" d="M 234.061513 261.404779 
L 235.162494 266.131693 
L 236.063905 270.893963 
L 236.832359 275.674936 
L 237.505369 280.467458 
L 238.106371 285.26783 
L 238.651128 290.073892 
L 239.150829 294.884277 
L 239.61376 299.698075 
L 240.046267 304.514657 
L 240.453346 309.333577 
L 240.839023 314.154514 
L 241.206609 318.97723 
L 241.558875 323.801548 
L 241.898177 328.627329 
L 242.226549 333.454463 
L 242.54577 338.282861 
L 242.857415 343.112446 
L 243.162899 347.94315 
L 243.463503 352.774914 
L 243.760405 357.607683 
L 244.054695 362.441405 
L 244.347397 367.276033 
L 244.639482 372.111526 
L 244.931876 376.947842 
L 245.225477 381.784948 
L 245.521162 386.622811 
L 245.819792 391.461404 
L 246.122227 396.300704 
L 246.429325 401.14069 
L 246.741957 405.981342 
L 247.061009 410.822644 
L 247.387389 415.664578 
L 247.72204 420.507121 
L 248.065938 425.350247 
L 248.420109 430.193918 
L 248.785632 435.038083 
L 249.16365 439.882673 
L 249.55538 444.727594 
" style="fill:none;stroke:#808080;stroke-linecap:square;stroke-width:1.5;"/>
   </g>
   <g id="line2d_20">
    <path clip-path="url(#p6df278ea3b)" d="M 234.061513 444.727594 
L 234.061513 261.404779 
L 249.55538 261.404779 
L 249.55538 444.727594 
L 234.061513 444.727594 
" style="fill:none;stroke:#d3d3d3;stroke-linecap:square;stroke-width:0.5;"/>
   </g>
   <g id="line2d_21">
    <path clip-path="url(#p6df278ea3b)" d="M 249.55538 444.727594 
L 249.962125 449.57272 
L 250.385283 454.417887 
L 250.826367 459.262883 
L 251.287016 464.107436 
L 251.769015 468.951206 
L 252.274316 473.793772 
L 252.805062 478.634615 
L 253.363617 483.473102 
L 253.952595 488.308475 
L 254.574903 493.13982 
L 255.233785 497.966055 
L 255.932877 502.785899 
L 256.676275 507.597847 
L 257.468611 512.400132 
L 258.315154 517.190694 
L 259.221925 521.967124 
L 260.195841 526.726614 
L 261.244897 531.465871 
L 262.378379 536.181021 
L 263.607133 540.867458 
L 264.943878 545.519632 
L 266.403586 550.13074 
L 268.00388 554.692259 
L 269.765428 559.193269 
L 271.712207 563.619469 
L 273.871398 567.951858 
L 276.272528 572.165158 
L 278.945312 576.226357 
L 281.915682 580.0943 
L 285.20009 583.72176 
L 288.799485 587.061225 
L 292.695808 590.073869 
L 296.853626 592.738444 
L 301.226834 595.055704 
L 305.767273 597.046439 
L 310.431552 598.744995 
L 315.184413 600.191855 
L 319.999164 601.427813 
" style="fill:none;stroke:#808080;stroke-linecap:square;stroke-width:1.5;"/>
   </g>
   <g id="line2d_22">
    <path clip-path="url(#p6df278ea3b)" d="M 249.55538 601.427813 
L 249.55538 444.727594 
L 319.999164 444.727594 
L 319.999164 601.427813 
L 249.55538 601.427813 
" style="fill:none;stroke:#d3d3d3;stroke-linecap:square;stroke-width:0.5;"/>
   </g>
   <g id="line2d_23">
    <path clip-path="url(#p6df278ea3b)" d="M 319.999164 601.427813 
" style="fill:none;stroke:#808080;stroke-linecap:square;stroke-width:1.5;"/>
   </g>
   <g id="line2d_24">
    <path clip-path="url(#p6df278ea3b)" d="M 319.999164 601.427813 
L 319.999164 601.427813 
L 319.999164 601.427813 
L 319.999164 601.427813 
L 319.999164 601.427813 
" style="fill:none;stroke:#d3d3d3;stroke-linecap:square;stroke-width:0.5;"/>
   </g>
   <g id="line2d_25">
    <path clip-path="url(#p6df278ea3b)" d="M 319.999164 601.427813 
L 324.840085 602.53088 
L 329.702016 603.544449 
L 334.58788 604.445322 
L 339.500237 605.201567 
L 344.440097 605.768171 
L 349.404066 606.080213 
L 354.377571 606.042592 
L 359.319419 605.517181 
L 364.130844 604.318093 
L 368.616242 602.252991 
L 372.504978 599.253609 
L 375.610993 595.482696 
L 377.956512 591.219255 
L 379.68951 586.683818 
L 380.964955 582.00255 
L 381.902632 577.241123 
L 382.587763 572.434218 
L 383.080373 567.601039 
L 383.423343 562.752734 
L 383.647951 557.896026 
L 383.777512 553.035075 
L 383.829755 548.172497 
L 383.818415 543.309944 
L 383.754305 538.448448 
L 383.646067 533.588637 
L 383.500695 528.730871 
L 383.323923 523.87533 
L 383.1205 519.02207 
" style="fill:none;stroke:#808080;stroke-linecap:square;stroke-width:1.5;"/>
   </g>
   <g id="line2d_26">
    <path clip-path="url(#p6df278ea3b)" d="M 319.999164 606.080213 
L 319.999164 519.02207 
L 383.829755 519.02207 
L 383.829755 606.080213 
L 319.999164 606.080213 
" style="fill:none;stroke:#d3d3d3;stroke-linecap:square;stroke-width:0.5;"/>
   </g>
   <g id="line2d_27">
    <path clip-path="url(#p6df278ea3b)" d="M 383.1205 519.02207 
L 382.894398 514.171069 
L 382.648971 509.32225 
L 382.387076 504.475501 
L 382.111163 499.63069 
L 381.823353 494.78767 
L 381.525493 489.946292 
L 381.219202 485.106401 
L 380.905912 480.267847 
L 380.586894 475.430484 
L 380.263285 470.594168 
L 379.936111 465.758764 
L 379.6063 460.924143 
L 379.274699 456.09018 
L 378.942085 451.256761 
L 378.609179 446.423775 
L 378.276649 441.591119 
L 377.945123 436.758695 
L 377.615192 431.926413 
L 377.287421 427.094186 
L 376.962349 422.261934 
L 376.640496 417.429583 
L 376.32237 412.597061 
L 376.008466 407.764304 
L 375.699275 402.931251 
L 375.395286 398.097845 
L 375.096988 393.264035 
L 374.804876 388.429771 
L 374.519454 383.595012 
" style="fill:none;stroke:#808080;stroke-linecap:square;stroke-width:1.5;"/>
   </g>
   <g id="line2d_28">
    <path clip-path="url(#p6df278ea3b)" d="M 374.519454 519.02207 
L 374.519454 383.595012 
L 383.1205 383.595012 
L 383.1205 519.02207 
L 374.519454 519.02207 
" style="fill:none;stroke:#d3d3d3;stroke-linecap:square;stroke-width:0.5;"/>
   </g>
   <g id="line2d_29">
    <path clip-path="url(#p6df278ea3b)" d="M 374.519454 383.595012 
L 374.24124 378.759716 
L 373.970769 373.92385 
L 373.708596 369.087381 
L 373.455306 364.250283 
L 373.211514 359.412533 
L 372.977874 354.574114 
L 372.755086 349.735013 
L 372.543904 344.895222 
L 372.345144 340.05474 
L 372.159698 335.213569 
L 371.988546 330.371723 
L 371.832772 325.529221 
L 371.693585 320.68609 
L 371.572342 315.842373 
L 371.470581 310.998122 
L 371.39006 306.153409 
L 371.332807 301.308327 
L 371.301187 296.463 
L 371.297987 291.617589 
L 371.326545 286.77231 
L 371.390909 281.927453 
L 371.496081 277.08342 
L 371.648372 272.240777 
L 371.85594 267.400346 
L 372.129666 262.563366 
L 372.484624 257.731797 
L 372.942773 252.908932 
L 373.538343 248.100809 
" style="fill:none;stroke:#808080;stroke-linecap:square;stroke-width:1.5;"/>
   </g>
   <g id="line2d_30">
    <path clip-path="url(#p6df278ea3b)" d="M 371.297987 383.595012 
L 371.297987 248.100809 
L 374.519454 248.100809 
L 374.519454 383.595012 
L 371.297987 383.595012 
" style="fill:none;stroke:#d3d3d3;stroke-linecap:square;stroke-width:0.5;"/>
   </g>
   <g id="line2d_31">
    <path clip-path="url(#p6df278ea3b)" d="M 373.538343 248.100809 
L 374.330165 243.32002 
" style="fill:none;stroke:#808080;stroke-linecap:square;stroke-width:1.5;"/>
   </g>
   <g id="line2d_32">
    <path clip-path="url(#p6df278ea3b)" d="M 373.538343 248.100809 
L 373.538343 243.32002 
L 374.330165 243.32002 
L 374.330165 248.100809 
L 373.538343 248.100809 
" style="fill:none;stroke:#d3d3d3;stroke-linecap:square;stroke-width:0.5;"/>
   </g>
   <g id="line2d_33">
    <path clip-path="url(#p6df278ea3b)" d="M 243.576989 259.027444 
L 243.576989 259.027444 
L 244.790771 264.233721 
L 245.750312 269.301247 
L 246.553154 274.29531 
L 247.24838 279.245577 
L 247.864635 284.167512 
L 248.420339 289.069989 
L 248.928164 293.958479 
L 249.397283 298.836552 
L 249.8346 303.706647 
L 250.245478 308.570497 
L 250.634192 313.429368 
L 251.004229 318.28421 
L 251.358483 323.135748 
L 251.699404 327.984546 
L 252.029094 332.831043 
L 252.349382 337.675587 
L 252.661885 342.518448 
L 252.968045 347.359841 
L 253.269168 352.199933 
L 253.566447 357.03885 
L 253.860988 361.876689 
L 254.153824 366.713522 
L 254.445931 371.549396 
L 254.738242 376.384343 
L 255.031657 381.218378 
L 255.327052 386.051506 
L 255.625289 390.883716 
L 255.927222 395.714989 
L 256.233706 400.545296 
L 256.545604 405.374593 
L 256.863794 410.202828 
L 257.189175 415.029932 
L 257.522674 419.85582 
L 257.865254 424.680384 
L 258.217922 429.503492 
L 258.581733 434.324983 
L 258.957806 439.144656 
L 259.347328 443.962265 
" style="fill:none;stroke:#000000;stroke-linecap:square;stroke-width:3;"/>
   </g>
   <g id="line2d_34">
    <path clip-path="url(#p6df278ea3b)" d="M 243.576989 443.962265 
L 243.576989 259.027444 
L 259.347328 259.027444 
L 259.347328 443.962265 
L 243.576989 443.962265 
" style="fill:none;stroke:#d3d3d3;stroke-linecap:square;stroke-width:0.5;"/>
   </g>
   <g id="line2d_35">
    <path clip-path="url(#p6df278ea3b)" d="M 259.347328 443.962265 
L 259.751563 448.777509 
L 260.171868 453.590023 
L 260.609705 458.399361 
L 261.066651 463.204988 
L 261.54442 468.006258 
L 262.044874 472.802395 
L 262.570053 477.592478 
L 263.122192 482.375406 
L 263.703748 487.149876 
L 264.317439 491.91435 
L 264.966272 496.667012 
L 265.653591 501.405726 
L 266.383125 506.127985 
L 267.159047 510.830843 
L 267.98604 515.510847 
L 268.86938 520.163941 
L 269.815021 524.785358 
L 270.829708 529.369477 
L 271.921089 533.909649 
L 273.097847 538.39797 
L 274.369829 542.824995 
L 275.748168 547.179367 
L 277.245353 551.447364 
L 278.875211 555.612361 
L 280.652716 559.654284 
L 282.593539 563.549229 
L 284.713293 567.269617 
L 287.026585 570.78547 
L 289.546269 574.067391 
L 292.283455 577.091134 
L 295.248283 579.842168 
L 298.449975 582.317614 
L 301.894233 584.524445 
L 305.578547 586.476051 
L 309.489079 588.189977 
L 313.60186 589.687167 
L 317.887256 590.991318 
L 322.314824 592.1276 
L 322.314824 592.1276 
" style="fill:none;stroke:#000000;stroke-linecap:square;stroke-width:3;"/>
   </g>
   <g id="line2d_36">
    <path clip-path="url(#p6df278ea3b)" d="M 259.347328 592.1276 
L 259.347328 443.962265 
L 322.314824 443.962265 
L 322.314824 592.1276 
L 259.347328 592.1276 
" style="fill:none;stroke:#d3d3d3;stroke-linecap:square;stroke-width:0.5;"/>
   </g>
   <g id="line2d_37">
    <path clip-path="url(#p6df278ea3b)" d="M 322.314824 592.1276 
" style="fill:none;stroke:#000000;stroke-linecap:square;stroke-width:3;"/>
   </g>
   <g id="line2d_38">
    <path clip-path="url(#p6df278ea3b)" d="M 322.314824 592.1276 
L 322.314824 592.1276 
L 322.314824 592.1276 
L 322.314824 592.1276 
L 322.314824 592.1276 
" style="fill:none;stroke:#d3d3d3;stroke-linecap:square;stroke-width:0.5;"/>
   </g>
   <g id="line2d_39">
    <path clip-path="url(#p6df278ea3b)" d="M 364.676775 241.54724 
L 364.676775 241.54724 
L 365.521198 236.962091 
L 366.277825 232.37246 
L 366.941506 227.780177 
L 367.506715 223.187424 
L 367.967527 218.596784 
L 368.317605 214.011315 
L 368.55019 209.434611 
L 368.658105 204.870885 
L 368.633767 200.325052 
L 368.469214 195.802813 
L 368.156157 191.310746 
L 367.686057 186.856383 
L 367.050229 182.448285 
L 366.239991 178.096083 
L 365.246838 173.810498 
L 364.06267 169.603299 
L 362.680041 165.487213 
L 361.092438 161.475758 
L 359.294574 157.583003 
L 357.282664 153.823267 
L 355.05468 150.210768 
L 352.610561 146.759269 
L 349.952381 143.481735 
L 347.084447 140.390041 
L 344.013348 137.494752 
L 340.747924 134.804958 
" style="fill:none;stroke:#000000;stroke-linecap:square;stroke-width:3;"/>
   </g>
   <g id="line2d_40">
    <path clip-path="url(#p6df278ea3b)" d="M 340.747924 241.54724 
L 340.747924 134.804958 
L 368.658105 134.804958 
L 368.658105 241.54724 
L 340.747924 241.54724 
" style="fill:none;stroke:#d3d3d3;stroke-linecap:square;stroke-width:0.5;"/>
   </g>
   <g id="line2d_41">
    <path clip-path="url(#p6df278ea3b)" d="M 340.747924 134.804958 
L 337.299146 132.328176 
L 333.679899 130.0703 
L 329.904665 128.035617 
L 325.989132 126.226887 
L 321.94978 124.6455 
L 317.803485 123.291692 
L 313.567199 122.164827 
L 309.257714 121.2637 
L 304.891553 120.586848 
L 300.484966 120.132855 
L 296.054028 119.900622 
L 291.614833 119.88959 
L 287.183763 120.099925 
L 282.777821 120.532635 
L 278.415003 121.189618 
L 274.114694 122.073625 
L 269.89803 123.188117 
L 265.78817 124.536996 
L 261.810345 126.124204 
L 257.991568 127.953224 
L 254.359833 130.026534 
L 250.942745 132.345165 
L 247.765713 134.908443 
L 244.850108 137.713892 
L 242.211952 140.756974 
L 239.86144 144.030285 
L 237.803046 147.522219 
" style="fill:none;stroke:#000000;stroke-linecap:square;stroke-width:3;"/>
   </g>
   <g id="line2d_42">
    <path clip-path="url(#p6df278ea3b)" d="M 237.803046 147.522219 
L 237.803046 119.88959 
L 340.747924 119.88959 
L 340.747924 147.522219 
L 237.803046 147.522219 
" style="fill:none;stroke:#d3d3d3;stroke-linecap:square;stroke-width:0.5;"/>
   </g>
   <g id="line2d_43">
    <path clip-path="url(#p6df278ea3b)" d="M 237.803046 147.522219 
L 236.035694 151.215911 
L 234.552795 155.089456 
L 233.342516 159.117694 
L 232.388655 163.274797 
L 231.672056 167.536594 
L 231.172191 171.881987 
L 230.868506 176.293448 
L 230.741371 180.756855 
L 230.772616 185.261024 
L 230.945768 189.79715 
L 231.246076 194.358294 
L 231.660432 198.938949 
L 232.177227 203.534707 
L 232.786199 208.142006 
L 233.478271 212.757941 
L 234.24541 217.380127 
L 235.0805 222.006596 
L 235.97722 226.635721 
L 236.929953 231.266158 
L 237.933698 235.896807 
L 238.983992 240.526768 
L 240.076852 245.15532 
L 241.208711 249.781892 
L 242.376378 254.406043 
L 243.576989 259.027444 
L 243.576989 259.027444 
" style="fill:none;stroke:#000000;stroke-linecap:square;stroke-width:3;"/>
   </g>
   <g id="line2d_44">
    <path clip-path="url(#p6df278ea3b)" d="M 230.741371 259.027444 
L 230.741371 147.522219 
L 243.576989 147.522219 
L 243.576989 259.027444 
L 230.741371 259.027444 
" style="fill:none;stroke:#d3d3d3;stroke-linecap:square;stroke-width:0.5;"/>
   </g>
   <g id="line2d_45">
    <path clip-path="url(#p6df278ea3b)" d="M 322.314824 592.1276 
L 322.314824 592.1276 
L 326.9932 593.193678 
L 331.652273 594.165039 
L 336.280522 595.018553 
L 340.85913 595.723669 
L 345.356787 596.240026 
L 349.720673 596.515281 
L 353.862098 596.485873 
L 357.640579 596.088069 
L 360.875927 595.288789 
L 363.464335 594.104792 
L 365.550035 592.495192 
L 367.371014 590.272614 
L 368.973524 587.346258 
L 370.312143 583.832845 
L 371.380109 579.906304 
L 372.206689 575.704464 
L 372.831214 571.319567 
L 373.290497 566.810959 
L 373.615337 562.216994 
L 373.830492 557.562923 
L 373.955638 552.865745 
L 374.006411 548.137153 
L 373.995309 543.385346 
L 373.932403 538.616176 
L 373.825882 533.83388 
L 373.682462 529.041565 
L 373.507707 524.24153 
L 373.30626 519.435496 
" style="fill:none;stroke:#000000;stroke-linecap:square;stroke-width:3;"/>
   </g>
   <g id="line2d_46">
    <path clip-path="url(#p6df278ea3b)" d="M 322.314824 596.515281 
L 322.314824 519.435496 
L 374.006411 519.435496 
L 374.006411 596.515281 
L 322.314824 596.515281 
" style="fill:none;stroke:#d3d3d3;stroke-linecap:square;stroke-width:0.5;"/>
   </g>
   <g id="line2d_47">
    <path clip-path="url(#p6df278ea3b)" d="M 373.30626 519.435496 
L 373.082032 514.624755 
L 372.838342 509.810286 
L 372.578028 504.992827 
L 372.303534 500.172943 
L 372.016979 495.351059 
L 371.720215 490.527497 
L 371.414866 485.702499 
L 371.102372 480.876244 
L 370.784012 476.048864 
L 370.460933 471.220452 
L 370.134166 466.391071 
L 369.804649 461.56076 
L 369.473236 456.72954 
L 369.140712 451.897418 
L 368.807802 447.064388 
L 368.475183 442.230434 
L 368.143487 437.395534 
L 367.813311 432.559657 
L 367.485224 427.722769 
L 367.159769 422.884832 
L 366.837472 418.045801 
L 366.518842 413.205631 
L 366.204379 408.364272 
L 365.894578 403.521671 
L 365.589929 398.677775 
L 365.290925 393.832524 
L 364.998063 388.985857 
L 364.711851 384.13771 
L 364.432809 379.288014 
" style="fill:none;stroke:#000000;stroke-linecap:square;stroke-width:3;"/>
   </g>
   <g id="line2d_48">
    <path clip-path="url(#p6df278ea3b)" d="M 364.432809 519.435496 
L 364.432809 379.288014 
L 373.30626 379.288014 
L 373.30626 519.435496 
L 364.432809 519.435496 
" style="fill:none;stroke:#d3d3d3;stroke-linecap:square;stroke-width:0.5;"/>
   </g>
   <g id="line2d_49">
    <path clip-path="url(#p6df278ea3b)" d="M 364.432809 379.288014 
L 364.161474 374.436698 
L 363.898404 369.583684 
L 363.644188 364.728889 
L 363.399442 359.872223 
L 363.164826 355.013588 
L 362.941044 350.152876 
L 362.728853 345.289969 
L 362.529077 340.424732 
L 362.342615 335.557015 
L 362.170455 330.686644 
L 362.013694 325.813421 
L 361.873554 320.937113 
L 361.751412 316.057445 
L 361.648831 311.17409 
L 361.567602 306.286652 
L 361.509796 301.394647 
L 361.477839 296.497471 
L 361.474605 291.594364 
L 361.503549 286.684347 
L 361.568894 281.766133 
L 361.675901 276.83799 
L 361.831282 271.89752 
L 362.043838 266.941279 
L 362.325533 261.964106 
L 362.693392 256.95783 
L 363.17318 251.908564 
L 363.807473 246.790316 
L 364.676775 241.54724 
L 364.676775 241.54724 
" style="fill:none;stroke:#000000;stroke-linecap:square;stroke-width:3;"/>
   </g>
   <g id="line2d_50">
    <path clip-path="url(#p6df278ea3b)" d="M 361.474605 379.288014 
L 361.474605 241.54724 
L 364.676775 241.54724 
L 364.676775 379.288014 
L 361.474605 379.288014 
" style="fill:none;stroke:#d3d3d3;stroke-linecap:square;stroke-width:0.5;"/>
   </g>
   <g id="line2d_51">
    <path clip-path="url(#p6df278ea3b)" d="M 364.676775 241.54724 
" style="fill:none;stroke:#000000;stroke-linecap:square;stroke-width:3;"/>
   </g>
   <g id="line2d_52">
    <path clip-path="url(#p6df278ea3b)" d="M 364.676775 241.54724 
L 364.676775 241.54724 
L 364.676775 241.54724 
L 364.676775 241.54724 
L 364.676775 241.54724 
" style="fill:none;stroke:#d3d3d3;stroke-linecap:square;stroke-width:0.5;"/>
   </g>
   <g id="line2d_53">
    <path clip-path="url(#p6df278ea3b)" d="M 224.546037 263.782115 
L 224.546037 263.782115 
L 225.534216 268.029665 
L 226.377497 272.486678 
L 227.111564 277.054563 
L 227.762358 281.689339 
L 228.348108 286.368147 
L 228.881917 291.077794 
L 229.373493 295.810076 
L 229.830236 300.559599 
L 230.257933 305.322667 
L 230.661214 310.096657 
L 231.043854 314.87966 
L 231.40899 319.670251 
L 231.759267 324.467348 
L 232.09695 329.270112 
L 232.424004 334.077883 
L 232.742157 338.890136 
L 233.052945 343.706444 
L 233.357753 348.52646 
L 233.657839 353.349896 
L 233.954363 358.176516 
L 234.248402 363.00612 
L 234.540971 367.838545 
L 234.833032 372.673656 
L 235.125509 377.511342 
L 235.419297 382.351517 
L 235.715271 387.194116 
L 236.014296 392.039093 
L 236.317232 396.886419 
L 236.624945 401.736083 
L 236.93831 406.588091 
L 237.258223 411.44246 
L 237.585604 416.299224 
L 237.921405 421.158423 
L 238.266622 426.02011 
L 238.622297 430.884343 
L 238.989531 435.751182 
L 239.369494 440.620689 
L 239.763433 445.492922 
" style="fill:none;stroke:#000000;stroke-linecap:square;stroke-width:3;"/>
   </g>
   <g id="line2d_54">
    <path clip-path="url(#p6df278ea3b)" d="M 224.546037 445.492922 
L 224.546037 263.782115 
L 239.763433 263.782115 
L 239.763433 445.492922 
L 224.546037 445.492922 
" style="fill:none;stroke:#d3d3d3;stroke-linecap:square;stroke-width:0.5;"/>
   </g>
   <g id="line2d_55">
    <path clip-path="url(#p6df278ea3b)" d="M 239.763433 445.492922 
L 240.172687 450.367931 
L 240.598698 455.245751 
L 241.043029 460.126404 
L 241.50738 465.009883 
L 241.99361 469.896155 
L 242.503757 474.785149 
L 243.040071 479.676751 
L 243.605042 484.570799 
L 244.201441 489.467073 
L 244.832367 494.36529 
L 245.501298 499.265098 
L 246.212164 504.166072 
L 246.969425 509.067709 
L 247.778176 513.969422 
L 248.644268 518.870541 
L 249.57447 523.770307 
L 250.576661 528.667869 
L 251.660086 533.562265 
L 252.835669 538.452394 
L 254.116418 543.336946 
L 255.517928 548.214269 
L 257.059005 553.082112 
L 258.762407 557.937155 
L 260.655645 562.774178 
L 262.771699 567.584654 
L 265.149257 572.354487 
L 267.831762 577.0607 
L 270.864038 581.667245 
L 274.285096 586.12121 
L 278.116725 590.352387 
L 282.350686 594.280281 
L 286.941642 597.830124 
L 291.813019 600.952443 
L 296.875121 603.635357 
L 302.045467 605.902901 
L 307.261244 607.802824 
L 312.48157 609.392392 
L 317.683503 610.728026 
L 317.683503 610.728026 
" style="fill:none;stroke:#000000;stroke-linecap:square;stroke-width:3;"/>
   </g>
   <g id="line2d_56">
    <path clip-path="url(#p6df278ea3b)" d="M 239.763433 610.728026 
L 239.763433 445.492922 
L 317.683503 445.492922 
L 317.683503 610.728026 
L 239.763433 610.728026 
" style="fill:none;stroke:#d3d3d3;stroke-linecap:square;stroke-width:0.5;"/>
   </g>
   <g id="line2d_57">
    <path clip-path="url(#p6df278ea3b)" d="M 317.683503 610.728026 
" style="fill:none;stroke:#000000;stroke-linecap:square;stroke-width:3;"/>
   </g>
   <g id="line2d_58">
    <path clip-path="url(#p6df278ea3b)" d="M 317.683503 610.728026 
L 317.683503 610.728026 
L 317.683503 610.728026 
L 317.683503 610.728026 
L 317.683503 610.728026 
" style="fill:none;stroke:#d3d3d3;stroke-linecap:square;stroke-width:0.5;"/>
   </g>
   <g id="line2d_59">
    <path clip-path="url(#p6df278ea3b)" d="M 383.983555 245.092801 
L 383.983555 245.092801 
L 384.889596 240.172909 
L 385.704791 235.227792 
L 386.423062 230.257501 
L 387.037754 225.262283 
L 387.541576 220.24263 
L 387.926542 215.199351 
L 388.183904 210.133648 
L 388.304093 205.047222 
L 388.276662 199.942392 
L 388.090236 194.822248 
L 387.732486 189.690834 
L 387.190133 184.553365 
L 386.449002 179.416485 
L 385.494137 174.288558 
L 384.310023 169.179993 
L 382.880931 164.103574 
L 381.191412 159.074774 
L 379.226983 154.111996 
L 376.974982 149.236672 
L 374.425575 144.473129 
L 371.572832 139.848158 
L 368.41573 135.390207 
L 364.95891 131.128219 
L 361.213011 127.090201 
L 357.194454 123.301716 
L 352.924643 119.784514 
" style="fill:none;stroke:#000000;stroke-linecap:square;stroke-width:3;"/>
   </g>
   <g id="line2d_60">
    <path clip-path="url(#p6df278ea3b)" d="M 352.924643 245.092801 
L 352.924643 119.784514 
L 388.304093 119.784514 
L 388.304093 245.092801 
L 352.924643 245.092801 
" style="fill:none;stroke:#d3d3d3;stroke-linecap:square;stroke-width:0.5;"/>
   </g>
   <g id="line2d_61">
    <path clip-path="url(#p6df278ea3b)" d="M 352.924643 119.784514 
L 348.428704 116.555548 
L 343.733953 113.626512 
L 338.868353 111.00394 
L 333.859158 108.689772 
L 328.731902 106.682247 
L 323.509758 104.976955 
L 318.213252 103.567888 
L 312.86026 102.448411 
L 307.466208 101.612099 
L 302.044392 101.053435 
L 296.606394 100.768381 
L 291.162535 100.754855 
L 285.722374 101.01314 
L 280.295263 101.546242 
L 274.890985 102.36022 
L 269.520514 103.46446 
L 264.196966 104.871841 
L 258.936796 106.598701 
L 253.761275 108.664382 
L 248.69822 111.090069 
L 243.783742 113.896527 
L 239.063466 117.100349 
L 234.592242 120.708682 
L 230.43112 124.713228 
L 226.6408 129.085468 
L 223.272341 133.775797 
L 220.358024 138.718355 
" style="fill:none;stroke:#000000;stroke-linecap:square;stroke-width:3;"/>
   </g>
   <g id="line2d_62">
    <path clip-path="url(#p6df278ea3b)" d="M 220.358024 138.718355 
L 220.358024 100.754855 
L 352.924643 100.754855 
L 352.924643 138.718355 
L 220.358024 138.718355 
" style="fill:none;stroke:#d3d3d3;stroke-linecap:square;stroke-width:0.5;"/>
   </g>
   <g id="line2d_63">
    <path clip-path="url(#p6df278ea3b)" d="M 220.358024 138.718355 
L 217.906118 143.840548 
L 215.90165 149.073671 
L 214.312172 154.360713 
L 213.095488 159.65959 
L 212.206525 164.942472 
L 211.602015 170.192993 
L 211.242959 175.402979 
L 211.095489 180.569573 
L 211.130801 185.693091 
L 211.324633 190.775558 
L 211.656615 195.819784 
L 212.109619 200.828821 
L 212.66919 205.805659 
L 213.323056 210.753076 
L 214.060745 215.673579 
L 214.873261 220.569396 
L 215.752838 225.442489 
L 216.692728 230.29459 
L 217.687046 235.127229 
L 218.730636 239.941767 
L 219.81896 244.739426 
L 220.948014 249.521315 
L 222.114253 254.288447 
L 223.314528 259.041758 
L 224.546037 263.782115 
L 224.546037 263.782115 
" style="fill:none;stroke:#000000;stroke-linecap:square;stroke-width:3;"/>
   </g>
   <g id="line2d_64">
    <path clip-path="url(#p6df278ea3b)" d="M 211.095489 263.782115 
L 211.095489 138.718355 
L 224.546037 138.718355 
L 224.546037 263.782115 
L 211.095489 263.782115 
" style="fill:none;stroke:#d3d3d3;stroke-linecap:square;stroke-width:0.5;"/>
   </g>
   <g id="line2d_65">
    <path clip-path="url(#p6df278ea3b)" d="M 317.683503 610.728026 
L 317.683503 610.728026 
L 322.68697 611.868082 
L 327.751759 612.923859 
L 332.895238 613.872091 
L 338.141343 614.679464 
L 343.523407 615.296316 
L 349.087459 615.645145 
L 354.893044 615.599311 
L 360.99826 614.946292 
L 367.385761 613.347397 
L 373.768149 610.40119 
L 379.45992 606.012026 
L 383.850972 600.692778 
L 386.939499 595.092253 
L 389.066878 589.534791 
L 390.5498 584.098797 
L 391.598576 578.777783 
L 392.344313 573.54887 
L 392.870249 568.391118 
L 393.231348 563.288475 
L 393.465409 558.22913 
L 393.599385 553.204405 
L 393.653099 548.207842 
L 393.641521 543.234542 
L 393.576207 538.280719 
L 393.466251 533.343394 
L 393.318928 528.420178 
L 393.14014 523.509129 
L 392.93474 518.608644 
" style="fill:none;stroke:#000000;stroke-linecap:square;stroke-width:3;"/>
   </g>
   <g id="line2d_66">
    <path clip-path="url(#p6df278ea3b)" d="M 317.683503 615.645145 
L 317.683503 518.608644 
L 393.653099 518.608644 
L 393.653099 615.645145 
L 317.683503 615.645145 
" style="fill:none;stroke:#d3d3d3;stroke-linecap:square;stroke-width:0.5;"/>
   </g>
   <g id="line2d_67">
    <path clip-path="url(#p6df278ea3b)" d="M 392.93474 518.608644 
L 392.706764 513.717382 
L 392.4596 508.834214 
L 392.196123 503.958174 
L 391.918791 499.088436 
L 391.629726 494.224282 
L 391.33077 489.365087 
L 391.023538 484.510303 
L 390.709451 479.65945 
L 390.389775 474.812103 
L 390.065638 469.967884 
L 389.738056 465.126458 
L 389.407951 460.287526 
L 389.076162 455.450821 
L 388.743459 450.616104 
L 388.410556 445.783162 
L 388.078115 440.951804 
L 387.746759 436.121857 
L 387.417074 431.293168 
L 387.089619 426.465602 
L 386.764929 421.639037 
L 386.443521 416.813364 
L 386.125898 411.988491 
L 385.812553 407.164337 
L 385.503973 402.340831 
L 385.200643 397.517916 
L 384.903051 392.695546 
L 384.611688 387.873686 
L 384.327057 383.052314 
L 384.049671 378.231419 
" style="fill:none;stroke:#000000;stroke-linecap:square;stroke-width:3;"/>
   </g>
   <g id="line2d_68">
    <path clip-path="url(#p6df278ea3b)" d="M 384.049671 518.608644 
L 384.049671 378.231419 
L 392.93474 378.231419 
L 392.93474 518.608644 
L 384.049671 518.608644 
" style="fill:none;stroke:#d3d3d3;stroke-linecap:square;stroke-width:0.5;"/>
   </g>
   <g id="line2d_69">
    <path clip-path="url(#p6df278ea3b)" d="M 384.049671 378.231419 
L 383.780064 373.411001 
L 383.518788 368.591078 
L 383.266424 363.771677 
L 383.023585 358.952844 
L 382.790921 354.134641 
L 382.569128 349.31715 
L 382.358954 344.500475 
L 382.16121 339.684747 
L 381.976781 334.870124 
L 381.806637 330.056803 
L 381.65185 325.245021 
L 381.513616 320.435068 
L 381.393272 315.627301 
L 381.292331 310.822153 
L 381.212519 306.020165 
L 381.155819 301.222008 
L 381.124534 296.428529 
L 381.121369 291.640814 
L 381.149541 286.860273 
L 381.212924 282.088773 
L 381.316261 277.32885 
L 381.465461 272.584033 
L 381.668042 267.859412 
L 381.933798 263.162626 
L 382.275856 258.505764 
L 382.712366 253.909299 
L 383.269212 249.411301 
L 383.983555 245.092801 
L 383.983555 245.092801 
" style="fill:none;stroke:#000000;stroke-linecap:square;stroke-width:3;"/>
   </g>
   <g id="line2d_70">
    <path clip-path="url(#p6df278ea3b)" d="M 381.121369 378.231419 
L 381.121369 245.092801 
L 384.049671 245.092801 
L 384.049671 378.231419 
L 381.121369 378.231419 
" style="fill:none;stroke:#d3d3d3;stroke-linecap:square;stroke-width:0.5;"/>
   </g>
   <g id="line2d_71">
    <path clip-path="url(#p6df278ea3b)" d="M 383.983555 245.092801 
" style="fill:none;stroke:#000000;stroke-linecap:square;stroke-width:3;"/>
   </g>
   <g id="line2d_72">
    <path clip-path="url(#p6df278ea3b)" d="M 383.983555 245.092801 
L 383.983555 245.092801 
L 383.983555 245.092801 
L 383.983555 245.092801 
L 383.983555 245.092801 
" style="fill:none;stroke:#d3d3d3;stroke-linecap:square;stroke-width:0.5;"/>
   </g>
   <g id="line2d_73">
    <path clip-path="url(#p6df278ea3b)" d="M 286.453069 96.201677 
L 288.337354 96.31953 
L 290.190699 96.671155 
L 291.982672 97.250776 
L 293.683849 98.048879 
L 295.266297 99.052356 
L 296.704032 100.244731 
L 297.973447 101.606427 
L 299.053697 103.115082 
L 299.927045 104.745926 
L 300.579151 106.47218 
L 300.999307 108.265499 
L 301.180614 110.096437 
L 301.120096 111.934929 
L 300.818745 113.750788 
L 300.28151 115.514198 
L 299.517213 117.196203 
L 298.538402 118.769184 
L 297.361151 120.207315 
L 296.00479 121.486979 
L 294.491589 122.587166 
L 292.846396 123.48981 
L 291.096225 124.18009 
L 289.269813 124.646672 
L 287.397151 124.881894 
L 285.508987 124.881894 
L 283.636324 124.646672 
L 281.809912 124.18009 
L 280.059741 123.48981 
L 278.414548 122.587166 
L 276.901348 121.486979 
L 275.544986 120.207315 
L 274.367735 118.769184 
L 273.388925 117.196203 
L 272.624627 115.514198 
L 272.087392 113.750788 
L 271.786042 111.934929 
L 271.725523 110.096437 
L 271.90683 108.265499 
L 272.326986 106.47218 
L 272.979092 104.745926 
L 273.85244 103.115082 
L 274.932691 101.606427 
L 276.202105 100.244731 
L 277.63984 99.052356 
L 279.222288 98.048879 
L 280.923466 97.250776 
L 282.715439 96.671155 
L 284.568784 96.31953 
L 286.453069 96.201677 
" style="fill:none;stroke:#808080;stroke-linecap:square;stroke-width:1.5;"/>
   </g>
   <g id="line2d_74">
    <path clip-path="url(#p6df278ea3b)" d="M 234.061513 247.049924 
L 235.945798 247.167777 
L 237.799143 247.519401 
L 239.591116 248.099023 
L 241.292293 248.897125 
L 242.874741 249.900603 
L 244.312476 251.092978 
L 245.581891 252.454673 
L 246.662141 253.963329 
L 247.535489 255.594173 
L 248.187595 257.320427 
L 248.607751 259.113746 
L 248.789059 260.944683 
L 248.72854 262.783176 
L 248.427189 264.599035 
L 247.889954 266.362445 
L 247.125657 268.044449 
L 246.146846 269.617431 
L 244.969595 271.055561 
L 243.613234 272.335226 
L 242.100033 273.435413 
L 240.45484 274.338057 
L 238.704669 275.028337 
L 236.878257 275.494919 
L 235.005595 275.730141 
L 233.117431 275.730141 
L 231.244768 275.494919 
L 229.418357 275.028337 
L 227.668185 274.338057 
L 226.022993 273.435413 
L 224.509792 272.335226 
L 223.15343 271.055561 
L 221.976179 269.617431 
L 220.997369 268.044449 
L 220.233071 266.362445 
L 219.695836 264.599035 
L 219.394486 262.783176 
L 219.333967 260.944683 
L 219.515274 259.113746 
L 219.93543 257.320427 
L 220.587536 255.594173 
L 221.460885 253.963329 
L 222.541135 252.454673 
L 223.810549 251.092978 
L 225.248284 249.900603 
L 226.830733 248.897125 
L 228.53191 248.099023 
L 230.323883 247.519401 
L 232.177228 247.167777 
L 234.061513 247.049924 
" style="fill:none;stroke:#808080;stroke-linecap:square;stroke-width:1.5;"/>
   </g>
   <g id="line2d_75">
    <path clip-path="url(#p6df278ea3b)" d="M 234.061513 247.049924 
L 235.945798 247.167777 
L 237.799143 247.519401 
L 239.591116 248.099023 
L 241.292293 248.897125 
L 242.874741 249.900603 
L 244.312476 251.092978 
L 245.581891 252.454673 
L 246.662141 253.963329 
L 247.535489 255.594173 
L 248.187595 257.320427 
L 248.607751 259.113746 
L 248.789059 260.944683 
L 248.72854 262.783176 
L 248.427189 264.599035 
L 247.889954 266.362445 
L 247.125657 268.044449 
L 246.146846 269.617431 
L 244.969595 271.055561 
L 243.613234 272.335226 
L 242.100033 273.435413 
L 240.45484 274.338057 
L 238.704669 275.028337 
L 236.878257 275.494919 
L 235.005595 275.730141 
L 233.117431 275.730141 
L 231.244768 275.494919 
L 229.418357 275.028337 
L 227.668185 274.338057 
L 226.022993 273.435413 
L 224.509792 272.335226 
L 223.15343 271.055561 
L 221.976179 269.617431 
L 220.997369 268.044449 
L 220.233071 266.362445 
L 219.695836 264.599035 
L 219.394486 262.783176 
L 219.333967 260.944683 
L 219.515274 259.113746 
L 219.93543 257.320427 
L 220.587536 255.594173 
L 221.460885 253.963329 
L 222.541135 252.454673 
L 223.810549 251.092978 
L 225.248284 249.900603 
L 226.830733 248.897125 
L 228.53191 248.099023 
L 230.323883 247.519401 
L 232.177228 247.167777 
L 234.061513 247.049924 
" style="fill:none;stroke:#808080;stroke-linecap:square;stroke-width:1.5;"/>
   </g>
   <g id="line2d_76">
    <path clip-path="url(#p6df278ea3b)" d="M 249.55538 430.372738 
L 251.439665 430.490591 
L 253.29301 430.842216 
L 255.084983 431.421838 
L 256.786161 432.21994 
L 258.368609 433.223417 
L 259.806344 434.415793 
L 261.075758 435.777488 
L 262.156009 437.286143 
L 263.029357 438.916987 
L 263.681463 440.643241 
L 264.101619 442.43656 
L 264.282926 444.267498 
L 264.222407 446.10599 
L 263.921057 447.921849 
L 263.383822 449.685259 
L 262.619524 451.367264 
L 261.640714 452.940246 
L 260.463463 454.378376 
L 259.107101 455.65804 
L 257.593901 456.758227 
L 255.948708 457.660871 
L 254.198537 458.351152 
L 252.372125 458.817733 
L 250.499462 459.052955 
L 248.611298 459.052955 
L 246.738636 458.817733 
L 244.912224 458.351152 
L 243.162053 457.660871 
L 241.51686 456.758227 
L 240.003659 455.65804 
L 238.647298 454.378376 
L 237.470047 452.940246 
L 236.491236 451.367264 
L 235.726939 449.685259 
L 235.189704 447.921849 
L 234.888353 446.10599 
L 234.827835 444.267498 
L 235.009142 442.43656 
L 235.429298 440.643241 
L 236.081404 438.916987 
L 236.954752 437.286143 
L 238.035002 435.777488 
L 239.304417 434.415793 
L 240.742152 433.223417 
L 242.3246 432.21994 
L 244.025777 431.421838 
L 245.81775 430.842216 
L 247.671095 430.490591 
L 249.55538 430.372738 
" style="fill:none;stroke:#808080;stroke-linecap:square;stroke-width:1.5;"/>
   </g>
   <g id="line2d_77">
    <path clip-path="url(#p6df278ea3b)" d="M 319.999164 587.072958 
L 321.883448 587.190811 
L 323.736793 587.542435 
L 325.528767 588.122057 
L 327.229944 588.920159 
L 328.812392 589.923636 
L 330.250127 591.116012 
L 331.519542 592.477707 
L 332.599792 593.986363 
L 333.47314 595.617207 
L 334.125246 597.343461 
L 334.545402 599.13678 
L 334.726709 600.967717 
L 334.666191 602.80621 
L 334.36484 604.622069 
L 333.827605 606.385479 
L 333.063308 608.067483 
L 332.084497 609.640465 
L 330.907246 611.078595 
L 329.550885 612.35826 
L 328.037684 613.458447 
L 326.392491 614.361091 
L 324.64232 615.051371 
L 322.815908 615.517953 
L 320.943246 615.753175 
L 319.055081 615.753175 
L 317.182419 615.517953 
L 315.356007 615.051371 
L 313.605836 614.361091 
L 311.960643 613.458447 
L 310.447443 612.35826 
L 309.091081 611.078595 
L 307.91383 609.640465 
L 306.93502 608.067483 
L 306.170722 606.385479 
L 305.633487 604.622069 
L 305.332136 602.80621 
L 305.271618 600.967717 
L 305.452925 599.13678 
L 305.873081 597.343461 
L 306.525187 595.617207 
L 307.398535 593.986363 
L 308.478786 592.477707 
L 309.7482 591.116012 
L 311.185935 589.923636 
L 312.768383 588.920159 
L 314.469561 588.122057 
L 316.261534 587.542435 
L 318.114879 587.190811 
L 319.999164 587.072958 
" style="fill:none;stroke:#808080;stroke-linecap:square;stroke-width:1.5;"/>
   </g>
   <g id="line2d_78">
    <path clip-path="url(#p6df278ea3b)" d="M 319.999164 587.072958 
L 321.883448 587.190811 
L 323.736793 587.542435 
L 325.528767 588.122057 
L 327.229944 588.920159 
L 328.812392 589.923636 
L 330.250127 591.116012 
L 331.519542 592.477707 
L 332.599792 593.986363 
L 333.47314 595.617207 
L 334.125246 597.343461 
L 334.545402 599.13678 
L 334.726709 600.967717 
L 334.666191 602.80621 
L 334.36484 604.622069 
L 333.827605 606.385479 
L 333.063308 608.067483 
L 332.084497 609.640465 
L 330.907246 611.078595 
L 329.550885 612.35826 
L 328.037684 613.458447 
L 326.392491 614.361091 
L 324.64232 615.051371 
L 322.815908 615.517953 
L 320.943246 615.753175 
L 319.055081 615.753175 
L 317.182419 615.517953 
L 315.356007 615.051371 
L 313.605836 614.361091 
L 311.960643 613.458447 
L 310.447443 612.35826 
L 309.091081 611.078595 
L 307.91383 609.640465 
L 306.93502 608.067483 
L 306.170722 606.385479 
L 305.633487 604.622069 
L 305.332136 602.80621 
L 305.271618 600.967717 
L 305.452925 599.13678 
L 305.873081 597.343461 
L 306.525187 595.617207 
L 307.398535 593.986363 
L 308.478786 592.477707 
L 309.7482 591.116012 
L 311.185935 589.923636 
L 312.768383 588.920159 
L 314.469561 588.122057 
L 316.261534 587.542435 
L 318.114879 587.190811 
L 319.999164 587.072958 
" style="fill:none;stroke:#808080;stroke-linecap:square;stroke-width:1.5;"/>
   </g>
   <g id="line2d_79">
    <path clip-path="url(#p6df278ea3b)" d="M 383.1205 504.667214 
L 385.004785 504.785067 
L 386.85813 505.136692 
L 388.650103 505.716314 
L 390.35128 506.514416 
L 391.933728 507.517893 
L 393.371463 508.710269 
L 394.640878 510.071964 
L 395.721128 511.580619 
L 396.594477 513.211463 
L 397.246583 514.937717 
L 397.666739 516.731036 
L 397.848046 518.561974 
L 397.787527 520.400466 
L 397.486176 522.216326 
L 396.948942 523.979735 
L 396.184644 525.66174 
L 395.205834 527.234722 
L 394.028583 528.672852 
L 392.672221 529.952516 
L 391.15902 531.052703 
L 389.513828 531.955347 
L 387.763656 532.645628 
L 385.937245 533.112209 
L 384.064582 533.347431 
L 382.176418 533.347431 
L 380.303755 533.112209 
L 378.477344 532.645628 
L 376.727173 531.955347 
L 375.08198 531.052703 
L 373.568779 529.952516 
L 372.212418 528.672852 
L 371.035166 527.234722 
L 370.056356 525.66174 
L 369.292059 523.979735 
L 368.754824 522.216326 
L 368.453473 520.400466 
L 368.392954 518.561974 
L 368.574262 516.731036 
L 368.994418 514.937717 
L 369.646524 513.211463 
L 370.519872 511.580619 
L 371.600122 510.071964 
L 372.869537 508.710269 
L 374.307272 507.517893 
L 375.88972 506.514416 
L 377.590897 505.716314 
L 379.38287 505.136692 
L 381.236215 504.785067 
L 383.1205 504.667214 
" style="fill:none;stroke:#808080;stroke-linecap:square;stroke-width:1.5;"/>
   </g>
   <g id="line2d_80">
    <path clip-path="url(#p6df278ea3b)" d="M 374.519454 369.240156 
L 376.403739 369.35801 
L 378.257084 369.709634 
L 380.049057 370.289256 
L 381.750234 371.087358 
L 383.332682 372.090835 
L 384.770418 373.283211 
L 386.039832 374.644906 
L 387.120082 376.153561 
L 387.993431 377.784405 
L 388.645537 379.510659 
L 389.065693 381.303978 
L 389.247 383.134916 
L 389.186481 384.973408 
L 388.88513 386.789268 
L 388.347896 388.552677 
L 387.583598 390.234682 
L 386.604788 391.807664 
L 385.427537 393.245794 
L 384.071175 394.525458 
L 382.557974 395.625645 
L 380.912782 396.52829 
L 379.16261 397.21857 
L 377.336199 397.685152 
L 375.463536 397.920374 
L 373.575372 397.920374 
L 371.702709 397.685152 
L 369.876298 397.21857 
L 368.126127 396.52829 
L 366.480934 395.625645 
L 364.967733 394.525458 
L 363.611372 393.245794 
L 362.43412 391.807664 
L 361.45531 390.234682 
L 360.691013 388.552677 
L 360.153778 386.789268 
L 359.852427 384.973408 
L 359.791908 383.134916 
L 359.973216 381.303978 
L 360.393372 379.510659 
L 361.045478 377.784405 
L 361.918826 376.153561 
L 362.999076 374.644906 
L 364.268491 373.283211 
L 365.706226 372.090835 
L 367.288674 371.087358 
L 368.989851 370.289256 
L 370.781824 369.709634 
L 372.635169 369.35801 
L 374.519454 369.240156 
" style="fill:none;stroke:#808080;stroke-linecap:square;stroke-width:1.5;"/>
   </g>
   <g id="line2d_81">
    <path clip-path="url(#p6df278ea3b)" d="M 373.538343 233.745953 
L 375.422628 233.863807 
L 377.275973 234.215431 
L 379.067946 234.795053 
L 380.769123 235.593155 
L 382.351571 236.596632 
L 383.789306 237.789008 
L 385.058721 239.150703 
L 386.138971 240.659358 
L 387.012319 242.290202 
L 387.664425 244.016456 
L 388.084581 245.809775 
L 388.265889 247.640713 
L 388.20537 249.479205 
L 387.904019 251.295065 
L 387.366784 253.058474 
L 386.602487 254.740479 
L 385.623676 256.313461 
L 384.446425 257.751591 
L 383.090064 259.031255 
L 381.576863 260.131442 
L 379.93167 261.034087 
L 378.181499 261.724367 
L 376.355087 262.190949 
L 374.482425 262.426171 
L 372.594261 262.426171 
L 370.721598 262.190949 
L 368.895186 261.724367 
L 367.145015 261.034087 
L 365.499822 260.131442 
L 363.986622 259.031255 
L 362.63026 257.751591 
L 361.453009 256.313461 
L 360.474199 254.740479 
L 359.709901 253.058474 
L 359.172666 251.295065 
L 358.871316 249.479205 
L 358.810797 247.640713 
L 358.992104 245.809775 
L 359.41226 244.016456 
L 360.064366 242.290202 
L 360.937715 240.659358 
L 362.017965 239.150703 
L 363.287379 237.789008 
L 364.725114 236.596632 
L 366.307562 235.593155 
L 368.00874 234.795053 
L 369.800713 234.215431 
L 371.654058 233.863807 
L 373.538343 233.745953 
" style="fill:none;stroke:#808080;stroke-linecap:square;stroke-width:1.5;"/>
   </g>
   <g id="line2d_82">
    <path clip-path="url(#p6df278ea3b)" d="M 374.330165 228.965165 
L 376.21445 229.083018 
L 378.067795 229.434643 
L 379.859768 230.014264 
L 381.560945 230.812367 
L 383.143393 231.815844 
L 384.581128 233.008219 
L 385.850543 234.369915 
L 386.930793 235.87857 
L 387.804141 237.509414 
L 388.456247 239.235668 
L 388.876403 241.028987 
L 389.057711 242.859925 
L 388.997192 244.698417 
L 388.695841 246.514276 
L 388.158606 248.277686 
L 387.394309 249.959691 
L 386.415499 251.532672 
L 385.238247 252.970803 
L 383.881886 254.250467 
L 382.368685 255.350654 
L 380.723492 256.253298 
L 378.973321 256.943578 
L 377.146909 257.41016 
L 375.274247 257.645382 
L 373.386083 257.645382 
L 371.51342 257.41016 
L 369.687009 256.943578 
L 367.936837 256.253298 
L 366.291645 255.350654 
L 364.778444 254.250467 
L 363.422082 252.970803 
L 362.244831 251.532672 
L 361.266021 249.959691 
L 360.501723 248.277686 
L 359.964489 246.514276 
L 359.663138 244.698417 
L 359.602619 242.859925 
L 359.783926 241.028987 
L 360.204082 239.235668 
L 360.856188 237.509414 
L 361.729537 235.87857 
L 362.809787 234.369915 
L 364.079201 233.008219 
L 365.516937 231.815844 
L 367.099385 230.812367 
L 368.800562 230.014264 
L 370.592535 229.434643 
L 372.44588 229.083018 
L 374.330165 228.965165 
" style="fill:none;stroke:#808080;stroke-linecap:square;stroke-width:1.5;"/>
   </g>
   <g id="line2d_83"/>
   <g id="line2d_84"/>
   <g id="line2d_85"/>
   <g id="line2d_86"/>
   <g id="line2d_87"/>
   <g id="line2d_88"/>
   <g id="line2d_89"/>
   <g id="line2d_90"/>
   <g id="line2d_91"/>
   <g id="line2d_92"/>
   <g id="line2d_93"/>
   <g id="line2d_94"/>
   <g id="line2d_95"/>
   <g id="line2d_96"/>
   <g id="line2d_97"/>
   <g id="line2d_98"/>
   <g id="line2d_99"/>
   <g id="line2d_100"/>
   <g id="line2d_101"/>
   <g id="line2d_102"/>
   <g id="line2d_103"/>
   <g id="line2d_104"/>
   <g id="line2d_105"/>
   <g id="line2d_106"/>
   <g id="line2d_107"/>
   <g id="line2d_108"/>
   <g id="line2d_109"/>
   <g id="line2d_110"/>
   <g id="line2d_111"/>
   <g id="line2d_112"/>
   <g id="line2d_113"/>
   <g id="line2d_114"/>
   <g id="line2d_115"/>
   <g id="line2d_116"/>
   <g id="line2d_117"/>
   <g id="line2d_118"/>
   <g id="line2d_119"/>
   <g id="line2d_120"/>
   <g id="line2d_121"/>
   <g id="line2d_122"/>
   <g id="line2d_123"/>
   <g id="line2d_124"/>
   <g id="line2d_125"/>
   <g id="line2d_126"/>
   <g id="line2d_127"/>
   <g id="line2d_128"/>
   <g id="line2d_129"/>
   <g id="line2d_130"/>
   <g id="line2d_131"/>
   <g id="line2d_132"/>
   <g id="line2d_133"/>
   <g id="patch_3">
    <path d="M 90 630 
L 90 86.4 
" style="fill:none;stroke:#000000;stroke-linecap:square;stroke-linejoin:miter;stroke-width:0.8;"/>
   </g>
   <g id="patch_4">
    <path d="M 648 630 
L 648 86.4 
" style="fill:none;stroke:#000000;stroke-linecap:square;stroke-linejoin:miter;stroke-width:0.8;"/>
   </g>
   <g id="patch_5">
    <path d="M 90 630 
L 648 630 
" style="fill:none;stroke:#000000;stroke-linecap:square;stroke-linejoin:miter;stroke-width:0.8;"/>
   </g>
   <g id="patch_6">
    <path d="M 90 86.4 
L 648 86.4 
" style="fill:none;stroke:#000000;stroke-linecap:square;stroke-linejoin:miter;stroke-width:0.8;"/>
   </g>
   <g id="text_13">
    <!-- 0 -->
    <g transform="translate(4.566295 521.830893)scale(0.1 -0.1)">
     <use xlink:href="#DejaVuSans-30"/>
    </g>
   </g>
   <g id="text_14">
    <!-- 0 -->
    <g transform="translate(4.566295 507.476037)scale(0.1 -0.1)">
     <use xlink:href="#DejaVuSans-30"/>
    </g>
   </g>
   <g id="text_15">
    <!-- 0 -->
    <g transform="translate(4.566295 493.121182)scale(0.1 -0.1)">
     <use xlink:href="#DejaVuSans-30"/>
    </g>
   </g>
  </g>
 </g>
 <defs>
  <clipPath id="p6df278ea3b">
   <rect height="543.6" width="558" x="90" y="86.4"/>
  </clipPath>
 </defs>
</svg>
