<?xml version="1.0" encoding="utf-8" standalone="no"?>
<!DOCTYPE svg PUBLIC "-//W3C//DTD SVG 1.1//EN"
  "http://www.w3.org/Graphics/SVG/1.1/DTD/svg11.dtd">
<svg height="720pt" version="1.1" viewBox="0 0 720 720" width="720pt" xmlns="http://www.w3.org/2000/svg" xmlns:xlink="http://www.w3.org/1999/xlink">
 <metadata>
  <rdf:RDF xmlns:cc="http://creativecommons.org/ns#" xmlns:dc="http://purl.org/dc/elements/1.1/" xmlns:rdf="http://www.w3.org/1999/02/22-rdf-syntax-ns#">
   <cc:Work>
    <dc:type rdf:resource="http://purl.org/dc/dcmitype/StillImage"/>
    <dc:date>2022-01-11T13:26:05.872041</dc:date>
    <dc:format>image/svg+xml</dc:format>
    <dc:creator>
     <cc:Agent>
      <dc:title>Matplotlib v3.4.3, https://matplotlib.org/</dc:title>
     </cc:Agent>
    </dc:creator>
   </cc:Work>
  </rdf:RDF>
 </metadata>
 <defs>
  <style type="text/css">*{stroke-linecap:butt;stroke-linejoin:round;}</style>
 </defs>
 <g id="figure_1">
  <g id="patch_1">
   <path d="M 0 720 
L 720 720 
L 720 0 
L 0 0 
z
" style="fill:none;"/>
  </g>
  <g id="axes_1">
   <g id="patch_2">
    <path d="M 90 630 
L 648 630 
L 648 86.4 
L 90 86.4 
z
" style="fill:#ffffff;"/>
   </g>
   <g id="PathCollection_1">
    <defs>
     <path d="M 0.972304 -8.870829 
Q -1.277159 -8.870829 -2.413438 -6.653699 
Q -3.545098 -4.441189 -3.545098 0.006929 
Q -3.545098 4.436569 -2.413438 6.653699 
Q -1.277159 8.870829 0.972304 8.870829 
Q 3.240243 8.870829 4.371903 6.653699 
Q 5.508182 4.436569 5.508182 0.006929 
Q 5.508182 -4.441189 4.371903 -6.653699 
Q 3.240243 -8.870829 0.972304 -8.870829 
z
M 0.972304 -11.18034 
Q 4.598235 -11.18034 6.51051 -8.311928 
Q 8.422784 -5.448135 8.422784 0.006929 
Q 8.422784 5.448135 6.51051 8.316547 
Q 4.598235 11.18034 0.972304 11.18034 
Q -2.649008 11.18034 -4.561283 8.316547 
Q -6.473558 5.448135 -6.473558 0.006929 
Q -6.473558 -5.448135 -4.561283 -8.311928 
Q -2.649008 -11.18034 0.972304 -11.18034 
z
" id="m08803b5b1f" style="stroke:#808080;"/>
    </defs>
    <g clip-path="url(#pe96aa2e9b9)">
     <use style="fill:#808080;stroke:#808080;" x="333.411836" xlink:href="#m08803b5b1f" y="216.089613"/>
    </g>
   </g>
   <g id="PathCollection_2">
    <defs>
     <path d="M -4.535873 8.63565 
L 0.404946 8.63565 
L 0.404946 -8.424791 
L -4.971969 -7.346533 
L -4.971969 -10.102082 
L 0.376192 -11.18034 
L 3.400108 -11.18034 
L 3.400108 8.63565 
L 8.340927 8.63565 
L 8.340927 11.18034 
L -4.535873 11.18034 
L -4.535873 8.63565 
z
" id="m77065e1c95" style="stroke:#808080;"/>
    </defs>
    <g clip-path="url(#pe96aa2e9b9)">
     <use style="fill:#808080;stroke:#808080;" x="243.738287" xlink:href="#m77065e1c95" y="145.379574"/>
    </g>
   </g>
   <g id="PathCollection_3">
    <defs>
     <path d="M -2.294912 8.680651 
L 8.075736 8.680651 
L 8.075736 11.18034 
L -5.867913 11.18034 
L -5.867913 8.680651 
Q -4.177916 6.929457 -1.259259 3.982555 
Q 1.664105 1.030945 2.4126 0.174178 
Q 3.838976 -1.426376 4.403877 -2.537349 
Q 4.973486 -3.648321 4.973486 -4.721634 
Q 4.973486 -6.472828 3.744825 -7.574386 
Q 2.516165 -8.680651 0.543718 -8.680651 
Q -0.854413 -8.680651 -2.407892 -8.195778 
Q -3.956663 -7.710904 -5.72198 -6.722326 
L -5.72198 -9.725719 
Q -3.928418 -10.445968 -2.370232 -10.813154 
Q -0.807338 -11.18034 0.487227 -11.18034 
Q 3.900173 -11.18034 5.929111 -9.471513 
Q 7.958048 -7.767394 7.958048 -4.914642 
Q 7.958048 -3.558879 7.449637 -2.344341 
Q 6.945933 -1.13451 5.604292 0.513119 
Q 5.237107 0.941502 3.264659 2.979855 
Q 1.296919 5.018207 -2.294912 8.680651 
z
" id="mbe00d80dc1" style="stroke:#808080;"/>
    </defs>
    <g clip-path="url(#pe96aa2e9b9)">
     <use style="fill:#808080;stroke:#808080;" x="140.586955" xlink:href="#mbe00d80dc1" y="113.014154"/>
    </g>
   </g>
   <g id="PathCollection_4">
    <defs>
     <path d="M 3.77605 -0.861447 
Q 5.868466 -0.413402 7.041697 1.004637 
Q 8.219548 2.418057 8.219548 4.496617 
Q 8.219548 7.683741 6.025513 9.43435 
Q 3.831478 11.18034 -0.210165 11.18034 
Q -1.563539 11.18034 -3.000054 10.912437 
Q -4.436569 10.644533 -5.965465 10.108727 
L -5.965465 7.295743 
Q -4.755282 8.002454 -3.314147 8.362737 
Q -1.868394 8.723021 -0.293308 8.723021 
Q 2.445772 8.723021 3.882287 7.64217 
Q 5.318802 6.561319 5.318802 4.496617 
Q 5.318802 2.588961 3.983905 1.517348 
Q 2.649008 0.441116 0.270213 0.441116 
L -2.242535 0.441116 
L -2.242535 -1.956155 
L 0.385688 -1.956155 
Q 2.533533 -1.956155 3.674431 -2.815293 
Q 4.815329 -3.674431 4.815329 -5.291088 
Q 4.815329 -6.949317 3.637479 -7.836169 
Q 2.464248 -8.72764 0.270213 -8.72764 
Q -0.930733 -8.72764 -2.302582 -8.464356 
Q -3.674431 -8.20569 -5.318802 -7.660646 
L -5.318802 -10.256536 
Q -3.655955 -10.718438 -2.205582 -10.949389 
Q -0.75521 -11.18034 0.528878 -11.18034 
Q 3.849954 -11.18034 5.780705 -9.66992 
Q 7.716074 -8.164119 7.716074 -5.595944 
Q 7.716074 -3.803764 6.690652 -2.570485 
Q 5.665229 -1.337207 3.77605 -0.861447 
z
" id="mc6550fa717" style="stroke:#808080;"/>
    </defs>
    <g clip-path="url(#pe96aa2e9b9)">
     <use style="fill:#808080;stroke:#808080;" x="140.586955" xlink:href="#mc6550fa717" y="113.014154"/>
    </g>
   </g>
   <g id="PathCollection_5">
    <defs>
     <path d="M 2.695646 -8.544598 
L -4.943215 3.392919 
L 2.695646 3.392919 
L 2.695646 -8.544598 
z
M 1.900131 -11.18034 
L 5.705184 -11.18034 
L 5.705184 3.392919 
L 8.896829 3.392919 
L 8.896829 5.908855 
L 5.705184 5.908855 
L 5.705184 11.18034 
L 2.695646 11.18034 
L 2.695646 5.908855 
L -7.396852 5.908855 
L -7.396852 2.99037 
L 1.900131 -11.18034 
z
" id="maf15d55f3f" style="stroke:#808080;"/>
    </defs>
    <g clip-path="url(#pe96aa2e9b9)">
     <use style="fill:#808080;stroke:#808080;" x="130.936914" xlink:href="#maf15d55f3f" y="241.042389"/>
    </g>
   </g>
   <g id="PathCollection_6">
    <defs>
     <path d="M -5.008473 -11.18034 
L 6.639575 -11.18034 
L 6.639575 -8.679629 
L -2.291535 -8.679629 
L -2.291535 -3.306861 
Q -1.647555 -3.527789 -1.003575 -3.635902 
Q -0.354894 -3.744015 0.293787 -3.744015 
Q 3.964943 -3.744015 6.108409 -1.732165 
Q 8.256576 0.279685 8.256576 3.715812 
Q 8.256576 7.255352 6.052002 9.220196 
Q 3.847428 11.18034 -0.16217 11.18034 
Q -1.544142 11.18034 -2.97782 10.945311 
Q -4.406798 10.710281 -5.934488 10.240223 
L -5.934488 7.255352 
Q -4.613624 7.974541 -3.203448 8.327085 
Q -1.793273 8.679629 -0.223278 8.679629 
Q 2.319738 8.679629 3.800422 7.344663 
Q 5.285807 6.009697 5.285807 3.715812 
Q 5.285807 1.426627 3.800422 0.091661 
Q 2.319738 -1.248005 -0.223278 -1.248005 
Q -1.412526 -1.248005 -2.597073 -0.984772 
Q -3.77692 -0.72154 -5.008473 -0.16217 
L -5.008473 -11.18034 
z
" id="m159898f6ed" style="stroke:#808080;"/>
    </defs>
    <g clip-path="url(#pe96aa2e9b9)">
     <use style="fill:#808080;stroke:#808080;" x="260.19446" xlink:href="#m159898f6ed" y="281.067114"/>
    </g>
   </g>
   <g id="PathCollection_7">
    <defs>
     <path d="M 1.286397 -1.175541 
Q -0.676687 -1.175541 -1.826823 0.168594 
Q -2.97234 1.50811 -2.97234 3.845335 
Q -2.97234 6.168702 -1.826823 7.522075 
Q -0.676687 8.870829 1.286397 8.870829 
Q 3.249481 8.870829 4.394998 7.522075 
Q 5.540515 6.168702 5.540515 3.845335 
Q 5.540515 1.50811 4.394998 0.168594 
Q 3.249481 -1.175541 1.286397 -1.175541 
z
M 7.07403 -10.316583 
L 7.07403 -7.660646 
Q 5.974703 -8.177976 4.8569 -8.450499 
Q 3.739097 -8.72764 2.63977 -8.72764 
Q -0.247118 -8.72764 -1.771394 -6.778413 
Q -3.291052 -4.829186 -3.508146 -0.889162 
Q -2.658246 -2.145535 -1.374159 -2.815293 
Q -0.085452 -3.485051 1.457301 -3.485051 
Q 4.704473 -3.485051 6.589033 -1.512729 
Q 8.473594 0.454974 8.473594 3.845335 
Q 8.473594 7.166411 6.51051 9.175685 
Q 4.547426 11.18034 1.286397 11.18034 
Q -2.45501 11.18034 -4.43195 8.316547 
Q -6.408891 5.448135 -6.408891 0.006929 
Q -6.408891 -5.101708 -3.983905 -8.141024 
Q -1.55892 -11.18034 2.524295 -11.18034 
Q 3.623622 -11.18034 4.741425 -10.963246 
Q 5.859228 -10.746152 7.07403 -10.316583 
z
" id="m83dc08d130" style="stroke:#808080;"/>
    </defs>
    <g clip-path="url(#pe96aa2e9b9)">
     <use style="fill:#808080;stroke:#808080;" x="421.450178" xlink:href="#m83dc08d130" y="286.058131"/>
    </g>
   </g>
   <g id="PathCollection_8"/>
   <g id="PathCollection_9"/>
   <g id="PathCollection_10"/>
   <g id="PathCollection_11"/>
   <g id="PathCollection_12"/>
   <g id="matplotlib.axis_1">
    <g id="xtick_1">
     <g id="line2d_1">
      <defs>
       <path d="M 0 0 
L 0 3.5 
" id="mde30d14bb4" style="stroke:#000000;stroke-width:0.8;"/>
      </defs>
      <g>
       <use style="stroke:#000000;stroke-width:0.8;" x="95.138941" xlink:href="#mde30d14bb4" y="630"/>
      </g>
     </g>
     <g id="text_1">
      <!-- −400 -->
      <g transform="translate(81.405347 644.598438)scale(0.1 -0.1)">
       <defs>
        <path d="M 678 2272 
L 4684 2272 
L 4684 1741 
L 678 1741 
L 678 2272 
z
" id="DejaVuSans-2212" transform="scale(0.015625)"/>
        <path d="M 2419 4116 
L 825 1625 
L 2419 1625 
L 2419 4116 
z
M 2253 4666 
L 3047 4666 
L 3047 1625 
L 3713 1625 
L 3713 1100 
L 3047 1100 
L 3047 0 
L 2419 0 
L 2419 1100 
L 313 1100 
L 313 1709 
L 2253 4666 
z
" id="DejaVuSans-34" transform="scale(0.015625)"/>
        <path d="M 2034 4250 
Q 1547 4250 1301 3770 
Q 1056 3291 1056 2328 
Q 1056 1369 1301 889 
Q 1547 409 2034 409 
Q 2525 409 2770 889 
Q 3016 1369 3016 2328 
Q 3016 3291 2770 3770 
Q 2525 4250 2034 4250 
z
M 2034 4750 
Q 2819 4750 3233 4129 
Q 3647 3509 3647 2328 
Q 3647 1150 3233 529 
Q 2819 -91 2034 -91 
Q 1250 -91 836 529 
Q 422 1150 422 2328 
Q 422 3509 836 4129 
Q 1250 4750 2034 4750 
z
" id="DejaVuSans-30" transform="scale(0.015625)"/>
       </defs>
       <use xlink:href="#DejaVuSans-2212"/>
       <use x="83.789062" xlink:href="#DejaVuSans-34"/>
       <use x="147.412109" xlink:href="#DejaVuSans-30"/>
       <use x="211.035156" xlink:href="#DejaVuSans-30"/>
      </g>
     </g>
    </g>
    <g id="xtick_2">
     <g id="line2d_2">
      <g>
       <use style="stroke:#000000;stroke-width:0.8;" x="176.391962" xlink:href="#mde30d14bb4" y="630"/>
      </g>
     </g>
     <g id="text_2">
      <!-- −300 -->
      <g transform="translate(162.658369 644.598438)scale(0.1 -0.1)">
       <defs>
        <path d="M 2597 2516 
Q 3050 2419 3304 2112 
Q 3559 1806 3559 1356 
Q 3559 666 3084 287 
Q 2609 -91 1734 -91 
Q 1441 -91 1130 -33 
Q 819 25 488 141 
L 488 750 
Q 750 597 1062 519 
Q 1375 441 1716 441 
Q 2309 441 2620 675 
Q 2931 909 2931 1356 
Q 2931 1769 2642 2001 
Q 2353 2234 1838 2234 
L 1294 2234 
L 1294 2753 
L 1863 2753 
Q 2328 2753 2575 2939 
Q 2822 3125 2822 3475 
Q 2822 3834 2567 4026 
Q 2313 4219 1838 4219 
Q 1578 4219 1281 4162 
Q 984 4106 628 3988 
L 628 4550 
Q 988 4650 1302 4700 
Q 1616 4750 1894 4750 
Q 2613 4750 3031 4423 
Q 3450 4097 3450 3541 
Q 3450 3153 3228 2886 
Q 3006 2619 2597 2516 
z
" id="DejaVuSans-33" transform="scale(0.015625)"/>
       </defs>
       <use xlink:href="#DejaVuSans-2212"/>
       <use x="83.789062" xlink:href="#DejaVuSans-33"/>
       <use x="147.412109" xlink:href="#DejaVuSans-30"/>
       <use x="211.035156" xlink:href="#DejaVuSans-30"/>
      </g>
     </g>
    </g>
    <g id="xtick_3">
     <g id="line2d_3">
      <g>
       <use style="stroke:#000000;stroke-width:0.8;" x="257.644984" xlink:href="#mde30d14bb4" y="630"/>
      </g>
     </g>
     <g id="text_3">
      <!-- −200 -->
      <g transform="translate(243.91139 644.598438)scale(0.1 -0.1)">
       <defs>
        <path d="M 1228 531 
L 3431 531 
L 3431 0 
L 469 0 
L 469 531 
Q 828 903 1448 1529 
Q 2069 2156 2228 2338 
Q 2531 2678 2651 2914 
Q 2772 3150 2772 3378 
Q 2772 3750 2511 3984 
Q 2250 4219 1831 4219 
Q 1534 4219 1204 4116 
Q 875 4013 500 3803 
L 500 4441 
Q 881 4594 1212 4672 
Q 1544 4750 1819 4750 
Q 2544 4750 2975 4387 
Q 3406 4025 3406 3419 
Q 3406 3131 3298 2873 
Q 3191 2616 2906 2266 
Q 2828 2175 2409 1742 
Q 1991 1309 1228 531 
z
" id="DejaVuSans-32" transform="scale(0.015625)"/>
       </defs>
       <use xlink:href="#DejaVuSans-2212"/>
       <use x="83.789062" xlink:href="#DejaVuSans-32"/>
       <use x="147.412109" xlink:href="#DejaVuSans-30"/>
       <use x="211.035156" xlink:href="#DejaVuSans-30"/>
      </g>
     </g>
    </g>
    <g id="xtick_4">
     <g id="line2d_4">
      <g>
       <use style="stroke:#000000;stroke-width:0.8;" x="338.898006" xlink:href="#mde30d14bb4" y="630"/>
      </g>
     </g>
     <g id="text_4">
      <!-- −100 -->
      <g transform="translate(325.164412 644.598438)scale(0.1 -0.1)">
       <defs>
        <path d="M 794 531 
L 1825 531 
L 1825 4091 
L 703 3866 
L 703 4441 
L 1819 4666 
L 2450 4666 
L 2450 531 
L 3481 531 
L 3481 0 
L 794 0 
L 794 531 
z
" id="DejaVuSans-31" transform="scale(0.015625)"/>
       </defs>
       <use xlink:href="#DejaVuSans-2212"/>
       <use x="83.789062" xlink:href="#DejaVuSans-31"/>
       <use x="147.412109" xlink:href="#DejaVuSans-30"/>
       <use x="211.035156" xlink:href="#DejaVuSans-30"/>
      </g>
     </g>
    </g>
    <g id="xtick_5">
     <g id="line2d_5">
      <g>
       <use style="stroke:#000000;stroke-width:0.8;" x="420.151028" xlink:href="#mde30d14bb4" y="630"/>
      </g>
     </g>
     <g id="text_5">
      <!-- 0 -->
      <g transform="translate(416.969778 644.598438)scale(0.1 -0.1)">
       <use xlink:href="#DejaVuSans-30"/>
      </g>
     </g>
    </g>
    <g id="xtick_6">
     <g id="line2d_6">
      <g>
       <use style="stroke:#000000;stroke-width:0.8;" x="501.40405" xlink:href="#mde30d14bb4" y="630"/>
      </g>
     </g>
     <g id="text_6">
      <!-- 100 -->
      <g transform="translate(491.8603 644.598438)scale(0.1 -0.1)">
       <use xlink:href="#DejaVuSans-31"/>
       <use x="63.623047" xlink:href="#DejaVuSans-30"/>
       <use x="127.246094" xlink:href="#DejaVuSans-30"/>
      </g>
     </g>
    </g>
    <g id="xtick_7">
     <g id="line2d_7">
      <g>
       <use style="stroke:#000000;stroke-width:0.8;" x="582.657071" xlink:href="#mde30d14bb4" y="630"/>
      </g>
     </g>
     <g id="text_7">
      <!-- 200 -->
      <g transform="translate(573.113321 644.598438)scale(0.1 -0.1)">
       <use xlink:href="#DejaVuSans-32"/>
       <use x="63.623047" xlink:href="#DejaVuSans-30"/>
       <use x="127.246094" xlink:href="#DejaVuSans-30"/>
      </g>
     </g>
    </g>
   </g>
   <g id="matplotlib.axis_2">
    <g id="ytick_1">
     <g id="line2d_8">
      <defs>
       <path d="M 0 0 
L -3.5 0 
" id="m11c6ace4aa" style="stroke:#000000;stroke-width:0.8;"/>
      </defs>
      <g>
       <use style="stroke:#000000;stroke-width:0.8;" x="90" xlink:href="#m11c6ace4aa" y="624.993677"/>
      </g>
     </g>
     <g id="text_8">
      <!-- −400 -->
      <g transform="translate(55.532812 628.792896)scale(0.1 -0.1)">
       <use xlink:href="#DejaVuSans-2212"/>
       <use x="83.789062" xlink:href="#DejaVuSans-34"/>
       <use x="147.412109" xlink:href="#DejaVuSans-30"/>
       <use x="211.035156" xlink:href="#DejaVuSans-30"/>
      </g>
     </g>
    </g>
    <g id="ytick_2">
     <g id="line2d_9">
      <g>
       <use style="stroke:#000000;stroke-width:0.8;" x="90" xlink:href="#m11c6ace4aa" y="545.837508"/>
      </g>
     </g>
     <g id="text_9">
      <!-- −300 -->
      <g transform="translate(55.532812 549.636726)scale(0.1 -0.1)">
       <use xlink:href="#DejaVuSans-2212"/>
       <use x="83.789062" xlink:href="#DejaVuSans-33"/>
       <use x="147.412109" xlink:href="#DejaVuSans-30"/>
       <use x="211.035156" xlink:href="#DejaVuSans-30"/>
      </g>
     </g>
    </g>
    <g id="ytick_3">
     <g id="line2d_10">
      <g>
       <use style="stroke:#000000;stroke-width:0.8;" x="90" xlink:href="#m11c6ace4aa" y="466.681338"/>
      </g>
     </g>
     <g id="text_10">
      <!-- −200 -->
      <g transform="translate(55.532812 470.480557)scale(0.1 -0.1)">
       <use xlink:href="#DejaVuSans-2212"/>
       <use x="83.789062" xlink:href="#DejaVuSans-32"/>
       <use x="147.412109" xlink:href="#DejaVuSans-30"/>
       <use x="211.035156" xlink:href="#DejaVuSans-30"/>
      </g>
     </g>
    </g>
    <g id="ytick_4">
     <g id="line2d_11">
      <g>
       <use style="stroke:#000000;stroke-width:0.8;" x="90" xlink:href="#m11c6ace4aa" y="387.525168"/>
      </g>
     </g>
     <g id="text_11">
      <!-- −100 -->
      <g transform="translate(55.532812 391.324387)scale(0.1 -0.1)">
       <use xlink:href="#DejaVuSans-2212"/>
       <use x="83.789062" xlink:href="#DejaVuSans-31"/>
       <use x="147.412109" xlink:href="#DejaVuSans-30"/>
       <use x="211.035156" xlink:href="#DejaVuSans-30"/>
      </g>
     </g>
    </g>
    <g id="ytick_5">
     <g id="line2d_12">
      <g>
       <use style="stroke:#000000;stroke-width:0.8;" x="90" xlink:href="#m11c6ace4aa" y="308.368999"/>
      </g>
     </g>
     <g id="text_12">
      <!-- 0 -->
      <g transform="translate(76.6375 312.168218)scale(0.1 -0.1)">
       <use xlink:href="#DejaVuSans-30"/>
      </g>
     </g>
    </g>
    <g id="ytick_6">
     <g id="line2d_13">
      <g>
       <use style="stroke:#000000;stroke-width:0.8;" x="90" xlink:href="#m11c6ace4aa" y="229.212829"/>
      </g>
     </g>
     <g id="text_13">
      <!-- 100 -->
      <g transform="translate(63.9125 233.012048)scale(0.1 -0.1)">
       <use xlink:href="#DejaVuSans-31"/>
       <use x="63.623047" xlink:href="#DejaVuSans-30"/>
       <use x="127.246094" xlink:href="#DejaVuSans-30"/>
      </g>
     </g>
    </g>
    <g id="ytick_7">
     <g id="line2d_14">
      <g>
       <use style="stroke:#000000;stroke-width:0.8;" x="90" xlink:href="#m11c6ace4aa" y="150.05666"/>
      </g>
     </g>
     <g id="text_14">
      <!-- 200 -->
      <g transform="translate(63.9125 153.855878)scale(0.1 -0.1)">
       <use xlink:href="#DejaVuSans-32"/>
       <use x="63.623047" xlink:href="#DejaVuSans-30"/>
       <use x="127.246094" xlink:href="#DejaVuSans-30"/>
      </g>
     </g>
    </g>
   </g>
   <g id="line2d_15">
    <path clip-path="url(#pe96aa2e9b9)" d="M 421.450178 286.058131 
L 417.605457 286.470961 
L 413.902697 284.747303 
L 410.457933 282.570301 
L 407.148486 280.202559 
L 403.920977 277.728454 
L 400.747698 275.186611 
L 397.612321 272.598284 
L 394.504351 269.976564 
L 391.416606 267.330166 
L 388.343931 264.665225 
L 385.282486 261.986248 
L 382.229326 259.296663 
L 379.182131 256.599151 
L 376.139038 253.895859 
L 373.098525 251.188542 
L 370.059324 248.478661 
L 367.020367 245.767451 
L 363.980741 243.055976 
L 360.93966 240.34516 
L 357.896434 237.635817 
L 354.850456 234.928676 
L 351.801184 232.224396 
L 348.748131 229.523575 
L 345.690854 226.82677 
L 342.628948 224.134496 
L 339.562039 221.44724 
L 336.489778 218.765465 
L 333.411836 216.089613 
" style="fill:none;stroke:#808080;stroke-linecap:square;stroke-width:1.5;"/>
   </g>
   <g id="line2d_16">
    <path clip-path="url(#pe96aa2e9b9)" d="M 333.411836 286.470961 
L 333.411836 216.089613 
L 421.450178 216.089613 
L 421.450178 286.470961 
L 333.411836 286.470961 
" style="fill:none;stroke:#d3d3d3;stroke-linecap:square;stroke-width:0.5;"/>
   </g>
   <g id="line2d_17">
    <path clip-path="url(#pe96aa2e9b9)" d="M 333.411836 216.089613 
L 330.327904 213.420112 
L 327.237683 210.75738 
L 324.140888 208.101824 
L 321.037242 205.453849 
L 317.926475 202.813857 
L 314.808318 200.182249 
L 311.682507 197.559431 
L 308.548779 194.945811 
L 305.406867 192.341805 
L 302.256505 189.74784 
L 299.097419 187.164351 
L 295.92933 184.591788 
L 292.751954 182.030618 
L 289.564994 179.481323 
L 286.368146 176.944409 
L 283.16109 174.420402 
L 279.943494 171.909858 
L 276.715009 169.41336 
L 273.475268 166.931526 
L 270.223884 164.465011 
L 266.960447 162.014511 
L 263.68452 159.58077 
L 260.39564 157.164587 
L 257.093311 154.766817 
L 253.777003 152.388385 
L 250.446146 150.030292 
L 247.100127 147.693626 
L 243.738287 145.379574 
" style="fill:none;stroke:#808080;stroke-linecap:square;stroke-width:1.5;"/>
   </g>
   <g id="line2d_18">
    <path clip-path="url(#pe96aa2e9b9)" d="M 243.738287 216.089613 
L 243.738287 145.379574 
L 333.411836 145.379574 
L 333.411836 216.089613 
L 243.738287 216.089613 
" style="fill:none;stroke:#d3d3d3;stroke-linecap:square;stroke-width:0.5;"/>
   </g>
   <g id="line2d_19">
    <path clip-path="url(#pe96aa2e9b9)" d="M 243.738287 145.379574 
L 240.359909 143.089435 
L 236.96422 140.82464 
L 233.550379 138.586769 
L 230.117468 136.377577 
L 226.664488 134.199021 
L 223.190343 132.053298 
L 219.693832 129.942887 
L 216.173635 127.870602 
L 212.628298 125.83966 
L 209.056214 123.853764 
L 205.455609 121.91721 
L 201.824521 120.035028 
L 198.160778 118.213158 
L 194.461985 116.45869 
L 190.725513 114.780184 
L 186.948502 113.188104 
L 183.127901 111.695419 
L 179.260573 110.318453 
L 175.343527 109.078098 
L 171.374413 108.001576 
L 167.352537 107.12503 
L 163.280952 106.497285 
L 159.170743 106.185129 
L 155.04973 106.279666 
L 150.979001 106.90014 
L 147.078193 108.182384 
L 143.540934 110.227387 
L 140.586955 113.014154 
" style="fill:none;stroke:#808080;stroke-linecap:square;stroke-width:1.5;"/>
   </g>
   <g id="line2d_20">
    <path clip-path="url(#pe96aa2e9b9)" d="M 140.586955 145.379574 
L 140.586955 106.185129 
L 243.738287 106.185129 
L 243.738287 145.379574 
L 140.586955 145.379574 
" style="fill:none;stroke:#d3d3d3;stroke-linecap:square;stroke-width:0.5;"/>
   </g>
   <g id="line2d_21">
    <path clip-path="url(#pe96aa2e9b9)" d="M 140.586955 113.014154 
" style="fill:none;stroke:#808080;stroke-linecap:square;stroke-width:1.5;"/>
   </g>
   <g id="line2d_22">
    <path clip-path="url(#pe96aa2e9b9)" d="M 140.586955 113.014154 
L 140.586955 113.014154 
L 140.586955 113.014154 
L 140.586955 113.014154 
L 140.586955 113.014154 
" style="fill:none;stroke:#d3d3d3;stroke-linecap:square;stroke-width:0.5;"/>
   </g>
   <g id="line2d_23">
    <path clip-path="url(#pe96aa2e9b9)" d="M 140.586955 113.014154 
L 138.026527 116.148281 
L 135.548793 119.344709 
L 133.157726 122.603016 
L 130.857417 125.92259 
L 128.652082 129.30262 
L 126.546069 132.742089 
L 124.543873 136.239761 
L 122.65014 139.794166 
L 120.86968 143.403589 
L 119.207477 147.066043 
L 117.668701 150.779251 
L 116.258703 154.540613 
L 114.983027 158.347174 
L 113.847398 162.195587 
L 112.857706 166.08207 
L 112.019986 170.002357 
L 111.340375 173.951653 
L 110.825055 177.92458 
L 110.480183 181.915133 
L 110.311785 185.916636 
L 110.325645 189.921716 
L 110.527154 193.922286 
L 110.921147 197.909561 
L 111.511721 201.874094 
L 112.302043 205.805859 
L 113.294158 209.69437 
L 114.488816 213.528839 
L 115.885328 217.298379 
L 117.481465 220.992237 
L 119.273425 224.600047 
L 121.255863 228.112078 
L 123.421991 231.519478 
L 125.76375 234.814472 
L 128.272027 237.990515 
L 130.936914 241.042389 
" style="fill:none;stroke:#808080;stroke-linecap:square;stroke-width:1.5;"/>
   </g>
   <g id="line2d_24">
    <path clip-path="url(#pe96aa2e9b9)" d="M 110.311785 241.042389 
L 110.311785 113.014154 
L 140.586955 113.014154 
L 140.586955 241.042389 
L 110.311785 241.042389 
" style="fill:none;stroke:#d3d3d3;stroke-linecap:square;stroke-width:0.5;"/>
   </g>
   <g id="line2d_25">
    <path clip-path="url(#pe96aa2e9b9)" d="M 130.936914 241.042389 
L 133.747977 243.966226 
L 136.694524 246.75949 
L 139.765844 249.420888 
L 142.951425 251.950262 
L 146.241116 254.348443 
L 149.625256 256.617101 
L 153.09476 258.758589 
L 156.64117 260.775801 
L 160.256674 262.672033 
L 163.934105 264.450871 
L 167.666922 266.116088 
L 171.449178 267.671563 
L 175.275485 269.121213 
L 179.140968 270.468939 
L 183.041227 271.718588 
L 186.972293 272.873921 
L 190.930586 273.938593 
L 194.91288 274.916134 
L 198.916269 275.809942 
L 202.938129 276.623277 
L 206.976097 277.359259 
L 211.028038 278.020866 
L 215.092026 278.61094 
L 219.166323 279.132186 
L 223.249354 279.587178 
L 227.339699 279.978365 
L 231.436073 280.308073 
L 235.537313 280.578513 
L 239.642365 280.791786 
L 243.750278 280.949887 
L 247.860189 281.054714 
L 251.971316 281.108066 
L 256.082953 281.111657 
L 260.19446 281.067114 
" style="fill:none;stroke:#808080;stroke-linecap:square;stroke-width:1.5;"/>
   </g>
   <g id="line2d_26">
    <path clip-path="url(#pe96aa2e9b9)" d="M 130.936914 281.111657 
L 130.936914 241.042389 
L 260.19446 241.042389 
L 260.19446 281.111657 
L 130.936914 281.111657 
" style="fill:none;stroke:#d3d3d3;stroke-linecap:square;stroke-width:0.5;"/>
   </g>
   <g id="line2d_27">
    <path clip-path="url(#pe96aa2e9b9)" d="M 260.19446 281.067114 
L 264.358359 280.997819 
L 268.522278 280.927869 
L 272.686236 280.857292 
L 276.850252 280.786117 
L 281.014346 280.714385 
L 285.178538 280.642143 
L 289.342849 280.569445 
L 293.507299 280.496357 
L 297.671912 280.422957 
L 301.836709 280.349334 
L 306.001717 280.275595 
L 310.16696 280.201861 
L 314.332468 280.128274 
L 318.498273 280.055001 
L 322.664408 279.982234 
L 326.830913 279.910194 
L 330.997833 279.83914 
L 335.165218 279.769372 
L 339.333125 279.701241 
L 343.501623 279.635154 
L 347.670792 279.571591 
L 351.840724 279.511113 
L 356.01153 279.454386 
L 360.183345 279.4022 
L 364.356327 279.355504 
L 368.530671 279.315441 
L 372.706613 279.283412 
L 376.88444 279.261147 
L 381.064509 279.250818 
L 385.247258 279.255209 
L 389.433228 279.277963 
L 393.623083 279.323992 
L 397.81762 279.400164 
L 402.017736 279.516549 
L 406.224241 279.688907 
L 410.437105 279.944285 
L 414.652214 280.336287 
L 418.842766 281.002654 
L 422.661379 282.632638 
L 421.450178 286.058131 
" style="fill:none;stroke:#808080;stroke-linecap:square;stroke-width:1.5;"/>
   </g>
   <g id="line2d_28">
    <path clip-path="url(#pe96aa2e9b9)" d="M 260.19446 286.058131 
L 260.19446 279.250818 
L 422.661379 279.250818 
L 422.661379 286.058131 
L 260.19446 286.058131 
" style="fill:none;stroke:#d3d3d3;stroke-linecap:square;stroke-width:0.5;"/>
   </g>
   <g id="line2d_29">
    <path clip-path="url(#pe96aa2e9b9)" d="M 146.880907 118.020286 
L 146.880907 118.020286 
L 146.880907 118.020286 
" style="fill:none;stroke:#000000;stroke-linecap:square;stroke-width:3;"/>
   </g>
   <g id="line2d_30">
    <path clip-path="url(#pe96aa2e9b9)" d="M 146.880907 118.020286 
L 146.880907 118.020286 
L 146.880907 118.020286 
L 146.880907 118.020286 
L 146.880907 118.020286 
" style="fill:none;stroke:#d3d3d3;stroke-linecap:square;stroke-width:0.5;"/>
   </g>
   <g id="line2d_31">
    <path clip-path="url(#pe96aa2e9b9)" d="M 146.880907 118.020286 
L 146.880907 118.020286 
L 146.880907 118.020286 
" style="fill:none;stroke:#000000;stroke-linecap:square;stroke-width:3;"/>
   </g>
   <g id="line2d_32">
    <path clip-path="url(#pe96aa2e9b9)" d="M 146.880907 118.020286 
L 146.880907 118.020286 
L 146.880907 118.020286 
L 146.880907 118.020286 
L 146.880907 118.020286 
" style="fill:none;stroke:#d3d3d3;stroke-linecap:square;stroke-width:0.5;"/>
   </g>
   <g id="line2d_33">
    <path clip-path="url(#pe96aa2e9b9)" d="M 383.810848 271.331682 
L 382.926362 270.564567 
L 379.841802 267.865366 
L 376.771515 265.160697 
L 373.711917 262.452207 
L 370.660232 259.741281 
L 367.614256 257.029101 
L 364.572212 254.316684 
L 361.532636 251.604924 
L 358.49431 248.894608 
L 355.456203 246.186442 
L 352.417433 243.481066 
L 349.377236 240.779064 
L 346.334947 238.080975 
L 343.289976 235.387304 
L 340.241798 232.698525 
L 337.189942 230.015087 
L 334.13398 227.337423 
L 331.07352 224.665949 
L 328.0082 222.00107 
L 324.937686 219.343185 
L 321.861663 216.692685 
L 318.779832 214.049961 
L 315.69191 211.415401 
L 312.597627 208.789398 
L 309.496718 206.172347 
" style="fill:none;stroke:#000000;stroke-linecap:square;stroke-width:3;"/>
   </g>
   <g id="line2d_34">
    <path clip-path="url(#pe96aa2e9b9)" d="M 309.496718 271.331682 
L 309.496718 206.172347 
L 383.810848 206.172347 
L 383.810848 271.331682 
L 309.496718 271.331682 
" style="fill:none;stroke:#d3d3d3;stroke-linecap:square;stroke-width:0.5;"/>
   </g>
   <g id="line2d_35">
    <path clip-path="url(#pe96aa2e9b9)" d="M 309.496718 206.172347 
L 306.388927 203.564648 
L 303.274005 200.966713 
L 300.151704 198.37896 
L 297.021777 195.801821 
L 293.883979 193.235741 
L 290.738063 190.681182 
L 287.583779 188.138625 
L 284.420874 185.608572 
L 281.249089 183.091546 
L 278.068159 180.588101 
L 274.877811 178.098817 
L 271.677765 175.624309 
L 268.467727 173.165228 
L 265.247395 170.722268 
L 262.016453 168.296168 
L 258.774571 165.887719 
L 255.521405 163.497771 
L 252.256593 161.12724 
L 248.979756 158.777115 
L 245.690495 156.448469 
L 242.388392 154.14247 
L 239.073008 151.860393 
L 235.743882 149.603638 
L 232.400529 147.373747 
L 229.042445 145.172423 
" style="fill:none;stroke:#000000;stroke-linecap:square;stroke-width:3;"/>
   </g>
   <g id="line2d_36">
    <path clip-path="url(#pe96aa2e9b9)" d="M 229.042445 206.172347 
L 229.042445 145.172423 
L 309.496718 145.172423 
L 309.496718 206.172347 
L 229.042445 206.172347 
" style="fill:none;stroke:#d3d3d3;stroke-linecap:square;stroke-width:0.5;"/>
   </g>
   <g id="line2d_37">
    <path clip-path="url(#pe96aa2e9b9)" d="M 229.042445 145.172423 
L 225.669102 143.00156 
L 222.279954 140.863273 
L 218.874441 138.759934 
L 215.451992 136.694219 
L 212.01204 134.669165 
L 208.554032 132.688241 
L 205.077457 130.75543 
L 201.581876 128.875348 
L 198.066979 127.053375 
L 194.53266 125.295839 
L 190.979139 123.610247 
L 187.407142 122.005585 
L 183.818183 120.492713 
L 180.215006 119.084892 
L 176.602283 117.79846 
L 172.987747 116.653719 
L 169.38404 115.67603 
L 165.811736 114.897023 
L 162.304247 114.355506 
L 158.915278 114.096833 
L 155.727987 114.167656 
L 152.857989 114.601197 
L 150.424557 115.395521 
L 148.464612 116.52417 
L 146.880907 118.020286 
" style="fill:none;stroke:#000000;stroke-linecap:square;stroke-width:3;"/>
   </g>
   <g id="line2d_38">
    <path clip-path="url(#pe96aa2e9b9)" d="M 146.880907 145.172423 
L 146.880907 114.096833 
L 229.042445 114.096833 
L 229.042445 145.172423 
L 146.880907 145.172423 
" style="fill:none;stroke:#d3d3d3;stroke-linecap:square;stroke-width:0.5;"/>
   </g>
   <g id="line2d_39">
    <path clip-path="url(#pe96aa2e9b9)" d="M 146.880907 118.020286 
" style="fill:none;stroke:#000000;stroke-linecap:square;stroke-width:3;"/>
   </g>
   <g id="line2d_40">
    <path clip-path="url(#pe96aa2e9b9)" d="M 146.880907 118.020286 
L 146.880907 118.020286 
L 146.880907 118.020286 
L 146.880907 118.020286 
L 146.880907 118.020286 
" style="fill:none;stroke:#d3d3d3;stroke-linecap:square;stroke-width:0.5;"/>
   </g>
   <g id="line2d_41">
    <path clip-path="url(#pe96aa2e9b9)" d="M 146.880907 118.020286 
L 144.44734 120.999109 
L 142.095818 124.032695 
L 139.829932 127.120396 
L 137.653375 130.261361 
L 135.569945 133.454526 
L 133.583554 136.698603 
L 131.698235 139.992068 
L 129.918141 143.333145 
L 128.247553 146.719788 
L 126.690882 150.149669 
L 125.252668 153.620152 
L 123.937575 157.128277 
L 122.750381 160.670732 
L 121.695965 164.243834 
L 120.77928 167.843501 
L 120.005325 171.465234 
L 119.379101 175.104093 
L 118.905555 178.754686 
L 118.589516 182.41116 
L 118.435617 186.067203 
L 118.448205 189.71606 
L 118.631235 193.350563 
L 118.988168 196.963181 
L 119.521855 200.546082 
L 120.234428 204.091221 
L 121.127189 207.590438 
L 122.200526 211.035575 
L 123.453829 214.418598 
L 124.885446 217.731729 
L 126.492658 220.96757 
L 128.271692 224.11923 
L 130.217763 227.18043 
L 132.325153 230.145601 
L 134.587322 233.009957 
L 136.997039 235.769542 
" style="fill:none;stroke:#000000;stroke-linecap:square;stroke-width:3;"/>
   </g>
   <g id="line2d_42">
    <path clip-path="url(#pe96aa2e9b9)" d="M 118.435617 235.769542 
L 118.435617 118.020286 
L 146.880907 118.020286 
L 146.880907 235.769542 
L 118.435617 235.769542 
" style="fill:none;stroke:#d3d3d3;stroke-linecap:square;stroke-width:0.5;"/>
   </g>
   <g id="line2d_43">
    <path clip-path="url(#pe96aa2e9b9)" d="M 136.997039 235.769542 
L 139.546538 238.421257 
L 142.22768 240.962857 
L 145.032112 243.392924 
L 147.95142 245.710814 
L 150.97727 247.916597 
L 154.101517 250.010974 
L 157.316302 251.995193 
L 160.614125 253.870962 
L 163.987883 255.640365 
L 167.430909 257.305781 
L 170.936981 258.869814 
L 174.500319 260.335228 
L 178.115582 261.704894 
L 181.777847 262.981743 
L 185.482589 264.168727 
L 189.225659 265.26879 
L 193.003257 266.284843 
L 196.811909 267.219744 
L 200.648438 268.076285 
L 204.509944 268.85718 
L 208.39378 269.565058 
L 212.29753 270.202459 
L 216.218988 270.77183 
L 220.156144 271.275523 
L 224.107159 271.715797 
L 228.07036 272.094817 
L 232.044216 272.414658 
L 236.027332 272.677304 
L 240.018433 272.884652 
L 244.016355 273.038516 
L 248.020037 273.140629 
L 252.028508 273.192645 
L 256.040881 273.196146 
L 260.056348 273.15264 
L 260.056348 273.15264 
" style="fill:none;stroke:#000000;stroke-linecap:square;stroke-width:3;"/>
   </g>
   <g id="line2d_44">
    <path clip-path="url(#pe96aa2e9b9)" d="M 136.997039 273.196146 
L 136.997039 235.769542 
L 260.056348 235.769542 
L 260.056348 273.196146 
L 136.997039 273.196146 
" style="fill:none;stroke:#d3d3d3;stroke-linecap:square;stroke-width:0.5;"/>
   </g>
   <g id="line2d_45">
    <path clip-path="url(#pe96aa2e9b9)" d="M 260.056348 273.15264 
" style="fill:none;stroke:#000000;stroke-linecap:square;stroke-width:3;"/>
   </g>
   <g id="line2d_46">
    <path clip-path="url(#pe96aa2e9b9)" d="M 260.056348 273.15264 
L 260.056348 273.15264 
L 260.056348 273.15264 
L 260.056348 273.15264 
L 260.056348 273.15264 
" style="fill:none;stroke:#d3d3d3;stroke-linecap:square;stroke-width:0.5;"/>
   </g>
   <g id="line2d_47">
    <path clip-path="url(#pe96aa2e9b9)" d="M 260.056348 273.15264 
L 260.056348 273.15264 
L 264.218915 273.083368 
L 268.381548 273.01344 
L 272.544279 272.942883 
L 276.70714 272.871728 
L 280.870165 272.800015 
L 285.033391 272.727789 
L 289.196857 272.655106 
L 293.360605 272.582031 
L 297.524684 272.50864 
L 301.689143 272.435023 
L 305.854041 272.361285 
L 310.019439 272.287548 
L 314.185411 272.213954 
L 318.352036 272.140667 
L 322.519406 272.067877 
L 326.687626 271.995807 
L 330.856819 271.924715 
L 335.027126 271.854898 
L 339.198712 271.786707 
L 343.371772 271.720548 
L 347.54654 271.656899 
L 351.723292 271.596323 
L 355.902367 271.539483 
L 360.084175 271.487173 
L 364.269224 271.440341 
L 368.458151 271.40014 
L 372.651764 271.367976 
L 376.851102 271.345596 
L 381.05754 271.335204 
L 385.272925 271.339631 
L 383.810848 271.331682 
" style="fill:none;stroke:#000000;stroke-linecap:square;stroke-width:3;"/>
   </g>
   <g id="line2d_48">
    <path clip-path="url(#pe96aa2e9b9)" d="M 260.056348 273.15264 
L 260.056348 271.331682 
L 385.272925 271.331682 
L 385.272925 273.15264 
L 260.056348 273.15264 
" style="fill:none;stroke:#d3d3d3;stroke-linecap:square;stroke-width:0.5;"/>
   </g>
   <g id="line2d_49">
    <path clip-path="url(#pe96aa2e9b9)" d="M 409.509734 271.957793 
L 405.959827 269.114154 
L 402.901687 266.589544 
L 399.84965 264.014984 
L 396.803267 261.404025 
L 393.7615 258.765883 
L 390.723171 256.10713 
L 387.687136 253.43263 
L 384.652344 250.746096 
L 381.617845 248.050437 
L 378.582794 245.347983 
L 375.546436 242.640637 
L 372.508097 239.929979 
L 369.467173 237.217345 
L 366.423117 234.503878 
L 363.375436 231.790568 
L 360.323675 229.078289 
L 357.267421 226.367816 
L 354.206286 223.659846 
L 351.13991 220.955015 
L 348.067955 218.253905 
L 344.990099 215.557058 
L 341.906037 212.864981 
L 338.815472 210.178156 
L 335.718121 207.49704 
L 332.613703 204.822075 
L 329.501944 202.153687 
" style="fill:none;stroke:#000000;stroke-linecap:square;stroke-width:3;"/>
   </g>
   <g id="line2d_50">
    <path clip-path="url(#pe96aa2e9b9)" d="M 329.501944 271.957793 
L 329.501944 202.153687 
L 409.509734 202.153687 
L 409.509734 271.957793 
L 329.501944 271.957793 
" style="fill:none;stroke:#d3d3d3;stroke-linecap:square;stroke-width:0.5;"/>
   </g>
   <g id="line2d_51">
    <path clip-path="url(#pe96aa2e9b9)" d="M 329.501944 202.153687 
L 326.382574 199.492297 
L 323.255323 196.838316 
L 320.119918 194.192152 
L 316.976087 191.554213 
L 313.823552 188.924908 
L 310.662031 186.30465 
L 307.491233 183.693859 
L 304.310858 181.092961 
L 301.120598 178.502394 
L 297.920129 175.92261 
L 294.709115 173.354075 
L 291.487202 170.797271 
L 288.25402 168.252703 
L 285.009176 165.720899 
L 281.752253 163.202412 
L 278.48281 160.697825 
L 275.200374 158.207754 
L 271.904441 155.732854 
L 268.594469 153.273822 
L 265.269875 150.831402 
L 261.93003 148.406393 
L 258.57425 145.999654 
L 255.201797 143.612114 
L 251.811863 141.244782 
L 248.403565 138.898754 
L 244.975937 136.575232 
" style="fill:none;stroke:#000000;stroke-linecap:square;stroke-width:3;"/>
   </g>
   <g id="line2d_52">
    <path clip-path="url(#pe96aa2e9b9)" d="M 244.975937 202.153687 
L 244.975937 136.575232 
L 329.501944 136.575232 
L 329.501944 202.153687 
L 244.975937 202.153687 
" style="fill:none;stroke:#d3d3d3;stroke-linecap:square;stroke-width:0.5;"/>
   </g>
   <g id="line2d_53">
    <path clip-path="url(#pe96aa2e9b9)" d="M 244.975937 136.575232 
L 241.527912 134.275533 
L 238.058313 132.001115 
L 234.565835 129.753593 
L 231.049022 127.534768 
L 227.506245 125.346662 
L 223.935672 123.191555 
L 220.33523 121.072039 
L 216.702563 118.99108 
L 213.034971 116.952098 
L 209.329343 114.959073 
L 205.582063 113.016681 
L 201.788896 111.130477 
L 197.944832 109.307133 
L 194.043884 107.554784 
L 190.07882 105.883494 
L 186.040796 104.305945 
L 181.918863 102.838446 
L 177.699307 101.502477 
L 173.364786 100.327123 
L 168.893338 99.353037 
L 164.257656 98.639064 
L 159.426209 98.273425 
L 154.371474 98.391675 
L 149.100013 99.199084 
L 143.731828 100.969246 
L 138.617256 103.930605 
" style="fill:none;stroke:#000000;stroke-linecap:square;stroke-width:3;"/>
   </g>
   <g id="line2d_54">
    <path clip-path="url(#pe96aa2e9b9)" d="M 138.617256 136.575232 
L 138.617256 98.273425 
L 244.975937 98.273425 
L 244.975937 136.575232 
L 138.617256 136.575232 
" style="fill:none;stroke:#d3d3d3;stroke-linecap:square;stroke-width:0.5;"/>
   </g>
   <g id="line2d_55">
    <path clip-path="url(#pe96aa2e9b9)" d="M 138.617256 103.930605 
L 134.293002 108.008023 
" style="fill:none;stroke:#000000;stroke-linecap:square;stroke-width:3;"/>
   </g>
   <g id="line2d_56">
    <path clip-path="url(#pe96aa2e9b9)" d="M 134.293002 108.008023 
L 134.293002 103.930605 
L 138.617256 103.930605 
L 138.617256 108.008023 
L 134.293002 108.008023 
" style="fill:none;stroke:#d3d3d3;stroke-linecap:square;stroke-width:0.5;"/>
   </g>
   <g id="line2d_57">
    <path clip-path="url(#pe96aa2e9b9)" d="M 260.332571 288.981587 
L 260.332571 288.981587 
L 264.497804 288.91227 
L 268.663008 288.842299 
L 272.828192 288.7717 
L 276.993363 288.700506 
L 281.158526 288.628756 
L 285.323685 288.556497 
L 289.48884 288.483784 
L 293.653993 288.410684 
L 297.81914 288.337275 
L 301.984275 288.263646 
L 306.149393 288.189904 
L 310.314481 288.116173 
L 314.479526 288.042595 
L 318.644509 287.969336 
L 322.80941 287.89659 
L 326.9742 287.82458 
L 331.138847 287.753564 
L 335.303309 287.683846 
L 339.467538 287.615775 
L 343.631475 287.54976 
L 347.795044 287.486282 
L 351.958155 287.425903 
L 356.120694 287.369288 
L 360.282515 287.317227 
L 364.443431 287.270666 
L 368.603191 287.230743 
L 372.761462 287.198849 
L 376.917778 287.176697 
L 381.071478 287.166432 
L 385.221591 287.170786 
L 389.366631 287.193314 
L 393.504228 287.238762 
L 397.630397 287.313679 
L 401.737962 287.427473 
L 405.8128 287.594369 
L 403.565978 287.45828 
" style="fill:none;stroke:#000000;stroke-linecap:square;stroke-width:3;"/>
   </g>
   <g id="line2d_58">
    <path clip-path="url(#pe96aa2e9b9)" d="M 260.332571 288.981587 
L 260.332571 287.166432 
L 405.8128 287.166432 
L 405.8128 288.981587 
L 260.332571 288.981587 
" style="fill:none;stroke:#d3d3d3;stroke-linecap:square;stroke-width:0.5;"/>
   </g>
   <g id="line2d_59">
    <path clip-path="url(#pe96aa2e9b9)" d="M 134.293002 108.008023 
L 131.605713 111.297453 
L 129.001767 114.656722 
L 126.485519 118.085636 
L 124.061459 121.583819 
L 121.734218 125.150715 
L 119.508584 128.785575 
L 117.389511 132.487453 
L 115.382139 136.255188 
L 113.491806 140.08739 
L 111.724073 143.982418 
L 110.084733 147.93835 
L 108.579831 151.952948 
L 107.215674 156.023615 
L 105.99883 160.14734 
L 104.936132 164.320638 
L 104.034646 168.53948 
L 103.301648 172.799213 
L 102.744556 177.094474 
L 102.37085 181.419106 
L 102.187953 185.766069 
L 102.203086 190.127372 
L 102.423074 194.49401 
L 102.854126 198.855941 
L 103.501587 203.202105 
L 104.369658 207.520498 
L 105.461127 211.798302 
L 106.777107 216.022103 
L 108.316827 220.178159 
L 110.077484 224.252746 
L 112.054192 228.232524 
L 114.240034 232.104926 
L 116.62622 235.858526 
L 119.202347 239.483342 
L 121.956733 242.971074 
L 124.87679 246.315235 
" style="fill:none;stroke:#000000;stroke-linecap:square;stroke-width:3;"/>
   </g>
   <g id="line2d_60">
    <path clip-path="url(#pe96aa2e9b9)" d="M 102.187953 246.315235 
L 102.187953 108.008023 
L 134.293002 108.008023 
L 134.293002 246.315235 
L 102.187953 246.315235 
" style="fill:none;stroke:#d3d3d3;stroke-linecap:square;stroke-width:0.5;"/>
   </g>
   <g id="line2d_61">
    <path clip-path="url(#pe96aa2e9b9)" d="M 124.87679 246.315235 
L 127.949416 249.511196 
L 131.161367 252.556123 
L 134.499576 255.448853 
L 137.95143 258.18971 
L 141.504962 260.780289 
L 145.148995 263.223227 
L 148.873218 265.521985 
L 152.668215 267.680639 
L 156.525465 269.703701 
L 160.437301 271.595961 
L 164.396863 273.362363 
L 168.398038 275.007899 
L 172.435388 276.537532 
L 176.504089 277.956134 
L 180.599865 279.268449 
L 184.718926 280.479053 
L 188.857914 281.592343 
L 193.013852 282.612524 
L 197.1841 283.543599 
L 201.366314 284.389374 
L 205.558413 285.153459 
L 209.758546 285.839273 
L 213.965065 286.450051 
L 218.176502 286.98885 
L 222.391548 287.45856 
L 226.609039 287.861913 
L 230.82793 288.201487 
L 235.047293 288.479722 
L 239.266297 288.69892 
L 243.484201 288.861259 
L 247.70034 288.968799 
L 251.914124 289.023487 
L 256.125025 289.027168 
L 260.332571 288.981587 
L 260.332571 288.981587 
" style="fill:none;stroke:#000000;stroke-linecap:square;stroke-width:3;"/>
   </g>
   <g id="line2d_62">
    <path clip-path="url(#pe96aa2e9b9)" d="M 124.87679 289.027168 
L 124.87679 246.315235 
L 260.332571 246.315235 
L 260.332571 289.027168 
L 124.87679 289.027168 
" style="fill:none;stroke:#d3d3d3;stroke-linecap:square;stroke-width:0.5;"/>
   </g>
   <g id="line2d_63">
    <path clip-path="url(#pe96aa2e9b9)" d="M 260.332571 288.981587 
" style="fill:none;stroke:#000000;stroke-linecap:square;stroke-width:3;"/>
   </g>
   <g id="line2d_64">
    <path clip-path="url(#pe96aa2e9b9)" d="M 260.332571 288.981587 
L 260.332571 288.981587 
L 260.332571 288.981587 
L 260.332571 288.981587 
L 260.332571 288.981587 
" style="fill:none;stroke:#d3d3d3;stroke-linecap:square;stroke-width:0.5;"/>
   </g>
   <g id="line2d_65">
    <path clip-path="url(#pe96aa2e9b9)" d="M 409.509734 271.957793 
L 411.050838 272.05128 
L 415.620664 272.477096 
L 420.630875 273.28109 
L 428.92209 277.587102 
L 427.622778 291.205667 
L 427.622778 291.205667 
" style="fill:none;stroke:#000000;stroke-linecap:square;stroke-width:3;"/>
   </g>
   <g id="line2d_66">
    <path clip-path="url(#pe96aa2e9b9)" d="M 409.509734 291.205667 
L 409.509734 271.957793 
L 428.92209 271.957793 
L 428.92209 291.205667 
L 409.509734 291.205667 
" style="fill:none;stroke:#d3d3d3;stroke-linecap:square;stroke-width:0.5;"/>
   </g>
   <g id="line2d_67">
    <path clip-path="url(#pe96aa2e9b9)" d="M 417.363788 293.481787 
L 415.068837 293.990958 
L 409.789882 291.573981 
L 405.800251 289.056303 
L 403.565978 287.45828 
" style="fill:none;stroke:#000000;stroke-linecap:square;stroke-width:3;"/>
   </g>
   <g id="line2d_68">
    <path clip-path="url(#pe96aa2e9b9)" d="M 403.565978 293.990958 
L 403.565978 287.45828 
L 417.363788 287.45828 
L 417.363788 293.990958 
L 403.565978 293.990958 
" style="fill:none;stroke:#d3d3d3;stroke-linecap:square;stroke-width:0.5;"/>
   </g>
   <g id="line2d_69">
    <path clip-path="url(#pe96aa2e9b9)" d="M 427.622778 291.205667 
L 427.622778 291.205667 
L 417.363788 293.481787 
" style="fill:none;stroke:#000000;stroke-linecap:square;stroke-width:3;"/>
   </g>
   <g id="line2d_70">
    <path clip-path="url(#pe96aa2e9b9)" d="M 417.363788 293.481787 
L 417.363788 291.205667 
L 427.622778 291.205667 
L 427.622778 293.481787 
L 417.363788 293.481787 
" style="fill:none;stroke:#d3d3d3;stroke-linecap:square;stroke-width:0.5;"/>
   </g>
   <g id="line2d_71">
    <path clip-path="url(#pe96aa2e9b9)" d="M 134.293002 108.008023 
L 134.293002 108.008023 
L 134.293002 108.008023 
" style="fill:none;stroke:#000000;stroke-linecap:square;stroke-width:3;"/>
   </g>
   <g id="line2d_72">
    <path clip-path="url(#pe96aa2e9b9)" d="M 134.293002 108.008023 
L 134.293002 108.008023 
L 134.293002 108.008023 
L 134.293002 108.008023 
L 134.293002 108.008023 
" style="fill:none;stroke:#d3d3d3;stroke-linecap:square;stroke-width:0.5;"/>
   </g>
   <g id="line2d_73">
    <path clip-path="url(#pe96aa2e9b9)" d="M 134.293002 108.008023 
L 134.293002 108.008023 
L 134.293002 108.008023 
" style="fill:none;stroke:#000000;stroke-linecap:square;stroke-width:3;"/>
   </g>
   <g id="line2d_74">
    <path clip-path="url(#pe96aa2e9b9)" d="M 134.293002 108.008023 
L 134.293002 108.008023 
L 134.293002 108.008023 
L 134.293002 108.008023 
L 134.293002 108.008023 
" style="fill:none;stroke:#d3d3d3;stroke-linecap:square;stroke-width:0.5;"/>
   </g>
   <g id="line2d_75">
    <path clip-path="url(#pe96aa2e9b9)" d="M 333.411836 204.216188 
L 334.970397 204.313668 
L 336.503367 204.60451 
L 337.985573 205.083936 
L 339.392679 205.744075 
L 340.70158 206.574088 
L 341.890783 207.560346 
L 342.940762 208.686653 
L 343.834276 209.934518 
L 344.556655 211.283448 
L 345.096035 212.711296 
L 345.443562 214.194616 
L 345.593528 215.709051 
L 345.543471 217.229735 
L 345.294212 218.731699 
L 344.849846 220.190279 
L 344.217667 221.581527 
L 343.408058 222.882598 
L 342.43431 224.072128 
L 341.312414 225.130585 
L 340.06079 226.04059 
L 338.699991 226.7872 
L 337.252361 227.358156 
L 335.741669 227.744083 
L 334.192721 227.938643 
L 332.630952 227.938643 
L 331.082004 227.744083 
L 329.571312 227.358156 
L 328.123682 226.7872 
L 326.762883 226.04059 
L 325.511259 225.130585 
L 324.389363 224.072128 
L 323.415615 222.882598 
L 322.606005 221.581527 
L 321.973827 220.190279 
L 321.529461 218.731699 
L 321.280202 217.229735 
L 321.230145 215.709051 
L 321.380111 214.194616 
L 321.727637 212.711296 
L 322.267018 211.283448 
L 322.989396 209.934518 
L 323.882911 208.686653 
L 324.93289 207.560346 
L 326.122093 206.574088 
L 327.430994 205.744075 
L 328.8381 205.083936 
L 330.320306 204.60451 
L 331.853276 204.313668 
L 333.411836 204.216188 
" style="fill:none;stroke:#808080;stroke-linecap:square;stroke-width:1.5;"/>
   </g>
   <g id="line2d_76">
    <path clip-path="url(#pe96aa2e9b9)" d="M 243.738287 133.506148 
L 245.296848 133.603629 
L 246.829817 133.89447 
L 248.312023 134.373897 
L 249.719129 135.034036 
L 251.02803 135.864049 
L 252.217233 136.850306 
L 253.267212 137.976614 
L 254.160727 139.224478 
L 254.883105 140.573409 
L 255.422486 142.001257 
L 255.770012 143.484576 
L 255.919978 144.999012 
L 255.869921 146.519696 
L 255.620663 148.021659 
L 255.176296 149.48024 
L 254.544118 150.871488 
L 253.734508 152.172558 
L 252.76076 153.362088 
L 251.638864 154.420546 
L 250.387241 155.33055 
L 249.026441 156.07716 
L 247.578811 156.648116 
L 246.068119 157.034043 
L 244.519172 157.228604 
L 242.957402 157.228604 
L 241.408454 157.034043 
L 239.897762 156.648116 
L 238.450132 156.07716 
L 237.089333 155.33055 
L 235.837709 154.420546 
L 234.715813 153.362088 
L 233.742066 152.172558 
L 232.932456 150.871488 
L 232.300277 149.48024 
L 231.855911 148.021659 
L 231.606653 146.519696 
L 231.556595 144.999012 
L 231.706561 143.484576 
L 232.054088 142.001257 
L 232.593468 140.573409 
L 233.315847 139.224478 
L 234.209361 137.976614 
L 235.25934 136.850306 
L 236.448544 135.864049 
L 237.757444 135.034036 
L 239.16455 134.373897 
L 240.646757 133.89447 
L 242.179726 133.603629 
L 243.738287 133.506148 
" style="fill:none;stroke:#808080;stroke-linecap:square;stroke-width:1.5;"/>
   </g>
   <g id="line2d_77">
    <path clip-path="url(#pe96aa2e9b9)" d="M 140.586955 101.140729 
L 142.145516 101.23821 
L 143.678485 101.529051 
L 145.160692 102.008477 
L 146.567797 102.668617 
L 147.876698 103.49863 
L 149.065901 104.484887 
L 150.11588 105.611195 
L 151.009395 106.859059 
L 151.731773 108.20799 
L 152.271154 109.635837 
L 152.61868 111.119157 
L 152.768646 112.633592 
L 152.718589 114.154277 
L 152.469331 115.65624 
L 152.024964 117.114821 
L 151.392786 118.506068 
L 150.583176 119.807139 
L 149.609428 120.996669 
L 148.487532 122.055126 
L 147.235909 122.965131 
L 145.87511 123.711741 
L 144.427479 124.282697 
L 142.916787 124.668624 
L 141.36784 124.863185 
L 139.80607 124.863185 
L 138.257122 124.668624 
L 136.746431 124.282697 
L 135.2988 123.711741 
L 133.938001 122.965131 
L 132.686377 122.055126 
L 131.564481 120.996669 
L 130.590734 119.807139 
L 129.781124 118.506068 
L 129.148946 117.114821 
L 128.704579 115.65624 
L 128.455321 114.154277 
L 128.405263 112.633592 
L 128.555229 111.119157 
L 128.902756 109.635837 
L 129.442136 108.20799 
L 130.164515 106.859059 
L 131.058029 105.611195 
L 132.108008 104.484887 
L 133.297212 103.49863 
L 134.606112 102.668617 
L 136.013218 102.008477 
L 137.495425 101.529051 
L 139.028394 101.23821 
L 140.586955 101.140729 
" style="fill:none;stroke:#808080;stroke-linecap:square;stroke-width:1.5;"/>
   </g>
   <g id="line2d_78">
    <path clip-path="url(#pe96aa2e9b9)" d="M 140.586955 101.140729 
L 142.145516 101.23821 
L 143.678485 101.529051 
L 145.160692 102.008477 
L 146.567797 102.668617 
L 147.876698 103.49863 
L 149.065901 104.484887 
L 150.11588 105.611195 
L 151.009395 106.859059 
L 151.731773 108.20799 
L 152.271154 109.635837 
L 152.61868 111.119157 
L 152.768646 112.633592 
L 152.718589 114.154277 
L 152.469331 115.65624 
L 152.024964 117.114821 
L 151.392786 118.506068 
L 150.583176 119.807139 
L 149.609428 120.996669 
L 148.487532 122.055126 
L 147.235909 122.965131 
L 145.87511 123.711741 
L 144.427479 124.282697 
L 142.916787 124.668624 
L 141.36784 124.863185 
L 139.80607 124.863185 
L 138.257122 124.668624 
L 136.746431 124.282697 
L 135.2988 123.711741 
L 133.938001 122.965131 
L 132.686377 122.055126 
L 131.564481 120.996669 
L 130.590734 119.807139 
L 129.781124 118.506068 
L 129.148946 117.114821 
L 128.704579 115.65624 
L 128.455321 114.154277 
L 128.405263 112.633592 
L 128.555229 111.119157 
L 128.902756 109.635837 
L 129.442136 108.20799 
L 130.164515 106.859059 
L 131.058029 105.611195 
L 132.108008 104.484887 
L 133.297212 103.49863 
L 134.606112 102.668617 
L 136.013218 102.008477 
L 137.495425 101.529051 
L 139.028394 101.23821 
L 140.586955 101.140729 
" style="fill:none;stroke:#808080;stroke-linecap:square;stroke-width:1.5;"/>
   </g>
   <g id="line2d_79">
    <path clip-path="url(#pe96aa2e9b9)" d="M 130.936914 229.168963 
L 132.495475 229.266444 
L 134.028445 229.557285 
L 135.510651 230.036712 
L 136.917757 230.696851 
L 138.226657 231.526864 
L 139.415861 232.513121 
L 140.46584 233.639429 
L 141.359354 234.887293 
L 142.081733 236.236224 
L 142.621113 237.664071 
L 142.96864 239.147391 
L 143.118606 240.661827 
L 143.068548 242.182511 
L 142.81929 243.684474 
L 142.374924 245.143055 
L 141.742745 246.534302 
L 140.933135 247.835373 
L 139.959388 249.024903 
L 138.837492 250.08336 
L 137.585868 250.993365 
L 136.225069 251.739975 
L 134.777439 252.310931 
L 133.266747 252.696858 
L 131.717799 252.891419 
L 130.156029 252.891419 
L 128.607082 252.696858 
L 127.09639 252.310931 
L 125.64876 251.739975 
L 124.28796 250.993365 
L 123.036337 250.08336 
L 121.914441 249.024903 
L 120.940693 247.835373 
L 120.131083 246.534302 
L 119.498905 245.143055 
L 119.054538 243.684474 
L 118.80528 242.182511 
L 118.755223 240.661827 
L 118.905189 239.147391 
L 119.252715 237.664071 
L 119.792096 236.236224 
L 120.514474 234.887293 
L 121.407989 233.639429 
L 122.457968 232.513121 
L 123.647171 231.526864 
L 124.956072 230.696851 
L 126.363178 230.036712 
L 127.845384 229.557285 
L 129.378353 229.266444 
L 130.936914 229.168963 
" style="fill:none;stroke:#808080;stroke-linecap:square;stroke-width:1.5;"/>
   </g>
   <g id="line2d_80">
    <path clip-path="url(#pe96aa2e9b9)" d="M 260.19446 269.193688 
L 261.753021 269.291169 
L 263.28599 269.58201 
L 264.768196 270.061437 
L 266.175302 270.721576 
L 267.484203 271.551589 
L 268.673406 272.537846 
L 269.723385 273.664154 
L 270.6169 274.912018 
L 271.339278 276.260949 
L 271.878659 277.688797 
L 272.226185 279.172116 
L 272.376151 280.686552 
L 272.326094 282.207236 
L 272.076836 283.709199 
L 271.632469 285.16778 
L 271.000291 286.559028 
L 270.190681 287.860098 
L 269.216933 289.049628 
L 268.095037 290.108086 
L 266.843414 291.01809 
L 265.482614 291.7647 
L 264.034984 292.335656 
L 262.524292 292.721583 
L 260.975345 292.916144 
L 259.413575 292.916144 
L 257.864627 292.721583 
L 256.353936 292.335656 
L 254.906305 291.7647 
L 253.545506 291.01809 
L 252.293882 290.108086 
L 251.171986 289.049628 
L 250.198239 287.860098 
L 249.388629 286.559028 
L 248.75645 285.16778 
L 248.312084 283.709199 
L 248.062826 282.207236 
L 248.012768 280.686552 
L 248.162734 279.172116 
L 248.510261 277.688797 
L 249.049641 276.260949 
L 249.77202 274.912018 
L 250.665534 273.664154 
L 251.715513 272.537846 
L 252.904717 271.551589 
L 254.213617 270.721576 
L 255.620723 270.061437 
L 257.10293 269.58201 
L 258.635899 269.291169 
L 260.19446 269.193688 
" style="fill:none;stroke:#808080;stroke-linecap:square;stroke-width:1.5;"/>
   </g>
   <g id="line2d_81">
    <path clip-path="url(#pe96aa2e9b9)" d="M 421.450178 274.184706 
L 423.008738 274.282186 
L 424.541708 274.573028 
L 426.023914 275.052454 
L 427.43102 275.712593 
L 428.739921 276.542606 
L 429.929124 277.528864 
L 430.979103 278.655171 
L 431.872618 279.903036 
L 432.594996 281.251966 
L 433.134377 282.679814 
L 433.481903 284.163134 
L 433.631869 285.677569 
L 433.581812 287.198253 
L 433.332553 288.700217 
L 432.888187 290.158797 
L 432.256008 291.550045 
L 431.446399 292.851116 
L 430.472651 294.040646 
L 429.350755 295.099103 
L 428.099131 296.009108 
L 426.738332 296.755718 
L 425.290702 297.326674 
L 423.78001 297.712601 
L 422.231062 297.907161 
L 420.669293 297.907161 
L 419.120345 297.712601 
L 417.609653 297.326674 
L 416.162023 296.755718 
L 414.801224 296.009108 
L 413.5496 295.099103 
L 412.427704 294.040646 
L 411.453956 292.851116 
L 410.644347 291.550045 
L 410.012168 290.158797 
L 409.567802 288.700217 
L 409.318543 287.198253 
L 409.268486 285.677569 
L 409.418452 284.163134 
L 409.765979 282.679814 
L 410.305359 281.251966 
L 411.027738 279.903036 
L 411.921252 278.655171 
L 412.971231 277.528864 
L 414.160434 276.542606 
L 415.469335 275.712593 
L 416.876441 275.052454 
L 418.358647 274.573028 
L 419.891617 274.282186 
L 421.450178 274.184706 
" style="fill:none;stroke:#808080;stroke-linecap:square;stroke-width:1.5;"/>
   </g>
   <g id="line2d_82"/>
   <g id="line2d_83"/>
   <g id="line2d_84"/>
   <g id="line2d_85"/>
   <g id="line2d_86"/>
   <g id="line2d_87"/>
   <g id="line2d_88"/>
   <g id="line2d_89"/>
   <g id="line2d_90"/>
   <g id="line2d_91"/>
   <g id="line2d_92"/>
   <g id="line2d_93"/>
   <g id="line2d_94"/>
   <g id="line2d_95"/>
   <g id="line2d_96"/>
   <g id="line2d_97"/>
   <g id="line2d_98"/>
   <g id="line2d_99"/>
   <g id="line2d_100"/>
   <g id="line2d_101"/>
   <g id="line2d_102"/>
   <g id="line2d_103"/>
   <g id="line2d_104"/>
   <g id="line2d_105"/>
   <g id="line2d_106"/>
   <g id="line2d_107"/>
   <g id="line2d_108"/>
   <g id="line2d_109"/>
   <g id="line2d_110"/>
   <g id="line2d_111"/>
   <g id="line2d_112"/>
   <g id="line2d_113"/>
   <g id="line2d_114"/>
   <g id="line2d_115"/>
   <g id="line2d_116"/>
   <g id="line2d_117"/>
   <g id="line2d_118"/>
   <g id="line2d_119"/>
   <g id="line2d_120"/>
   <g id="line2d_121"/>
   <g id="line2d_122"/>
   <g id="line2d_123"/>
   <g id="line2d_124"/>
   <g id="line2d_125"/>
   <g id="line2d_126"/>
   <g id="line2d_127"/>
   <g id="line2d_128"/>
   <g id="line2d_129"/>
   <g id="line2d_130"/>
   <g id="line2d_131"/>
   <g id="line2d_132"/>
   <g id="patch_3">
    <path d="M 90 630 
L 90 86.4 
" style="fill:none;stroke:#000000;stroke-linecap:square;stroke-linejoin:miter;stroke-width:0.8;"/>
   </g>
   <g id="patch_4">
    <path d="M 648 630 
L 648 86.4 
" style="fill:none;stroke:#000000;stroke-linecap:square;stroke-linejoin:miter;stroke-width:0.8;"/>
   </g>
   <g id="patch_5">
    <path d="M 90 630 
L 648 630 
" style="fill:none;stroke:#000000;stroke-linecap:square;stroke-linejoin:miter;stroke-width:0.8;"/>
   </g>
   <g id="patch_6">
    <path d="M 90 86.4 
L 648 86.4 
" style="fill:none;stroke:#000000;stroke-linecap:square;stroke-linejoin:miter;stroke-width:0.8;"/>
   </g>
   <g id="text_15">
    <!-- 0 -->
    <g transform="translate(176.391962 387.525168)scale(0.1 -0.1)">
     <use xlink:href="#DejaVuSans-30"/>
    </g>
   </g>
   <g id="text_16">
    <!-- 0 -->
    <g transform="translate(176.391962 375.651743)scale(0.1 -0.1)">
     <use xlink:href="#DejaVuSans-30"/>
    </g>
   </g>
   <g id="text_17">
    <!-- 0 -->
    <g transform="translate(176.391962 363.778318)scale(0.1 -0.1)">
     <use xlink:href="#DejaVuSans-30"/>
    </g>
   </g>
  </g>
 </g>
 <defs>
  <clipPath id="pe96aa2e9b9">
   <rect height="543.6" width="558" x="90" y="86.4"/>
  </clipPath>
 </defs>
</svg>
