<?xml version="1.0" encoding="utf-8" standalone="no"?>
<!DOCTYPE svg PUBLIC "-//W3C//DTD SVG 1.1//EN"
  "http://www.w3.org/Graphics/SVG/1.1/DTD/svg11.dtd">
<svg height="720pt" version="1.1" viewBox="0 0 720 720" width="720pt" xmlns="http://www.w3.org/2000/svg" xmlns:xlink="http://www.w3.org/1999/xlink">
 <metadata>
  <rdf:RDF xmlns:cc="http://creativecommons.org/ns#" xmlns:dc="http://purl.org/dc/elements/1.1/" xmlns:rdf="http://www.w3.org/1999/02/22-rdf-syntax-ns#">
   <cc:Work>
    <dc:type rdf:resource="http://purl.org/dc/dcmitype/StillImage"/>
    <dc:date>2022-01-11T13:26:03.572687</dc:date>
    <dc:format>image/svg+xml</dc:format>
    <dc:creator>
     <cc:Agent>
      <dc:title>Matplotlib v3.4.3, https://matplotlib.org/</dc:title>
     </cc:Agent>
    </dc:creator>
   </cc:Work>
  </rdf:RDF>
 </metadata>
 <defs>
  <style type="text/css">*{stroke-linecap:butt;stroke-linejoin:round;}</style>
 </defs>
 <g id="figure_1">
  <g id="patch_1">
   <path d="M 0 720 
L 720 720 
L 720 0 
L 0 0 
z
" style="fill:none;"/>
  </g>
  <g id="axes_1">
   <g id="patch_2">
    <path d="M 90 630 
L 648 630 
L 648 86.4 
L 90 86.4 
z
" style="fill:#ffffff;"/>
   </g>
   <g id="PathCollection_1">
    <defs>
     <path d="M 0.972304 -8.870829 
Q -1.277159 -8.870829 -2.413438 -6.653699 
Q -3.545098 -4.441189 -3.545098 0.006929 
Q -3.545098 4.436569 -2.413438 6.653699 
Q -1.277159 8.870829 0.972304 8.870829 
Q 3.240243 8.870829 4.371903 6.653699 
Q 5.508182 4.436569 5.508182 0.006929 
Q 5.508182 -4.441189 4.371903 -6.653699 
Q 3.240243 -8.870829 0.972304 -8.870829 
z
M 0.972304 -11.18034 
Q 4.598235 -11.18034 6.51051 -8.311928 
Q 8.422784 -5.448135 8.422784 0.006929 
Q 8.422784 5.448135 6.51051 8.316547 
Q 4.598235 11.18034 0.972304 11.18034 
Q -2.649008 11.18034 -4.561283 8.316547 
Q -6.473558 5.448135 -6.473558 0.006929 
Q -6.473558 -5.448135 -4.561283 -8.311928 
Q -2.649008 -11.18034 0.972304 -11.18034 
z
" id="mfd6bd8dd2d" style="stroke:#808080;"/>
    </defs>
    <g clip-path="url(#p1d6a6e2bdf)">
     <use style="fill:#808080;stroke:#808080;" x="419.930781" xlink:href="#mfd6bd8dd2d" y="301.726903"/>
    </g>
   </g>
   <g id="PathCollection_2">
    <defs>
     <path d="M -4.535873 8.63565 
L 0.404946 8.63565 
L 0.404946 -8.424791 
L -4.971969 -7.346533 
L -4.971969 -10.102082 
L 0.376192 -11.18034 
L 3.400108 -11.18034 
L 3.400108 8.63565 
L 8.340927 8.63565 
L 8.340927 11.18034 
L -4.535873 11.18034 
L -4.535873 8.63565 
z
" id="me40e6a7c68" style="stroke:#808080;"/>
    </defs>
    <g clip-path="url(#p1d6a6e2bdf)">
     <use style="fill:#808080;stroke:#808080;" x="465.093896" xlink:href="#me40e6a7c68" y="495.212952"/>
    </g>
   </g>
   <g id="PathCollection_3">
    <defs>
     <path d="M -2.294912 8.680651 
L 8.075736 8.680651 
L 8.075736 11.18034 
L -5.867913 11.18034 
L -5.867913 8.680651 
Q -4.177916 6.929457 -1.259259 3.982555 
Q 1.664105 1.030945 2.4126 0.174178 
Q 3.838976 -1.426376 4.403877 -2.537349 
Q 4.973486 -3.648321 4.973486 -4.721634 
Q 4.973486 -6.472828 3.744825 -7.574386 
Q 2.516165 -8.680651 0.543718 -8.680651 
Q -0.854413 -8.680651 -2.407892 -8.195778 
Q -3.956663 -7.710904 -5.72198 -6.722326 
L -5.72198 -9.725719 
Q -3.928418 -10.445968 -2.370232 -10.813154 
Q -0.807338 -11.18034 0.487227 -11.18034 
Q 3.900173 -11.18034 5.929111 -9.471513 
Q 7.958048 -7.767394 7.958048 -4.914642 
Q 7.958048 -3.558879 7.449637 -2.344341 
Q 6.945933 -1.13451 5.604292 0.513119 
Q 5.237107 0.941502 3.264659 2.979855 
Q 1.296919 5.018207 -2.294912 8.680651 
z
" id="med40c9002d" style="stroke:#808080;"/>
    </defs>
    <g clip-path="url(#p1d6a6e2bdf)">
     <use style="fill:#808080;stroke:#808080;" x="550.243158" xlink:href="#med40c9002d" y="533.259023"/>
    </g>
   </g>
   <g id="PathCollection_4">
    <defs>
     <path d="M 3.77605 -0.861447 
Q 5.868466 -0.413402 7.041697 1.004637 
Q 8.219548 2.418057 8.219548 4.496617 
Q 8.219548 7.683741 6.025513 9.43435 
Q 3.831478 11.18034 -0.210165 11.18034 
Q -1.563539 11.18034 -3.000054 10.912437 
Q -4.436569 10.644533 -5.965465 10.108727 
L -5.965465 7.295743 
Q -4.755282 8.002454 -3.314147 8.362737 
Q -1.868394 8.723021 -0.293308 8.723021 
Q 2.445772 8.723021 3.882287 7.64217 
Q 5.318802 6.561319 5.318802 4.496617 
Q 5.318802 2.588961 3.983905 1.517348 
Q 2.649008 0.441116 0.270213 0.441116 
L -2.242535 0.441116 
L -2.242535 -1.956155 
L 0.385688 -1.956155 
Q 2.533533 -1.956155 3.674431 -2.815293 
Q 4.815329 -3.674431 4.815329 -5.291088 
Q 4.815329 -6.949317 3.637479 -7.836169 
Q 2.464248 -8.72764 0.270213 -8.72764 
Q -0.930733 -8.72764 -2.302582 -8.464356 
Q -3.674431 -8.20569 -5.318802 -7.660646 
L -5.318802 -10.256536 
Q -3.655955 -10.718438 -2.205582 -10.949389 
Q -0.75521 -11.18034 0.528878 -11.18034 
Q 3.849954 -11.18034 5.780705 -9.66992 
Q 7.716074 -8.164119 7.716074 -5.595944 
Q 7.716074 -3.803764 6.690652 -2.570485 
Q 5.665229 -1.337207 3.77605 -0.861447 
z
" id="m39e0f9a2b3" style="stroke:#808080;"/>
    </defs>
    <g clip-path="url(#p1d6a6e2bdf)">
     <use style="fill:#808080;stroke:#808080;" x="588.242254" xlink:href="#m39e0f9a2b3" y="379.719407"/>
    </g>
   </g>
   <g id="PathCollection_5">
    <defs>
     <path d="M 2.695646 -8.544598 
L -4.943215 3.392919 
L 2.695646 3.392919 
L 2.695646 -8.544598 
z
M 1.900131 -11.18034 
L 5.705184 -11.18034 
L 5.705184 3.392919 
L 8.896829 3.392919 
L 8.896829 5.908855 
L 5.705184 5.908855 
L 5.705184 11.18034 
L 2.695646 11.18034 
L 2.695646 5.908855 
L -7.396852 5.908855 
L -7.396852 2.99037 
L 1.900131 -11.18034 
z
" id="maf94709189" style="stroke:#808080;"/>
    </defs>
    <g clip-path="url(#p1d6a6e2bdf)">
     <use style="fill:#808080;stroke:#808080;" x="614.487676" xlink:href="#maf94709189" y="224.189009"/>
    </g>
   </g>
   <g id="PathCollection_6">
    <defs>
     <path d="M -5.008473 -11.18034 
L 6.639575 -11.18034 
L 6.639575 -8.679629 
L -2.291535 -8.679629 
L -2.291535 -3.306861 
Q -1.647555 -3.527789 -1.003575 -3.635902 
Q -0.354894 -3.744015 0.293787 -3.744015 
Q 3.964943 -3.744015 6.108409 -1.732165 
Q 8.256576 0.279685 8.256576 3.715812 
Q 8.256576 7.255352 6.052002 9.220196 
Q 3.847428 11.18034 -0.16217 11.18034 
Q -1.544142 11.18034 -2.97782 10.945311 
Q -4.406798 10.710281 -5.934488 10.240223 
L -5.934488 7.255352 
Q -4.613624 7.974541 -3.203448 8.327085 
Q -1.793273 8.679629 -0.223278 8.679629 
Q 2.319738 8.679629 3.800422 7.344663 
Q 5.285807 6.009697 5.285807 3.715812 
Q 5.285807 1.426627 3.800422 0.091661 
Q 2.319738 -1.248005 -0.223278 -1.248005 
Q -1.412526 -1.248005 -2.597073 -0.984772 
Q -3.77692 -0.72154 -5.008473 -0.16217 
L -5.008473 -11.18034 
z
" id="mc30996a392" style="stroke:#808080;"/>
    </defs>
    <g clip-path="url(#p1d6a6e2bdf)">
     <use style="fill:#808080;stroke:#808080;" x="534.153659" xlink:href="#mc30996a392" y="130.659861"/>
    </g>
   </g>
   <g id="PathCollection_7"/>
   <g id="PathCollection_8"/>
   <g id="PathCollection_9"/>
   <g id="PathCollection_10"/>
   <g id="PathCollection_11"/>
   <g id="matplotlib.axis_1">
    <g id="xtick_1">
     <g id="line2d_1">
      <defs>
       <path d="M 0 0 
L 0 3.5 
" id="mac4d8f202b" style="stroke:#000000;stroke-width:0.8;"/>
      </defs>
      <g>
       <use style="stroke:#000000;stroke-width:0.8;" x="110.448544" xlink:href="#mac4d8f202b" y="630"/>
      </g>
     </g>
     <g id="text_1">
      <!-- −250 -->
      <g transform="translate(96.714951 644.598438)scale(0.1 -0.1)">
       <defs>
        <path d="M 678 2272 
L 4684 2272 
L 4684 1741 
L 678 1741 
L 678 2272 
z
" id="DejaVuSans-2212" transform="scale(0.015625)"/>
        <path d="M 1228 531 
L 3431 531 
L 3431 0 
L 469 0 
L 469 531 
Q 828 903 1448 1529 
Q 2069 2156 2228 2338 
Q 2531 2678 2651 2914 
Q 2772 3150 2772 3378 
Q 2772 3750 2511 3984 
Q 2250 4219 1831 4219 
Q 1534 4219 1204 4116 
Q 875 4013 500 3803 
L 500 4441 
Q 881 4594 1212 4672 
Q 1544 4750 1819 4750 
Q 2544 4750 2975 4387 
Q 3406 4025 3406 3419 
Q 3406 3131 3298 2873 
Q 3191 2616 2906 2266 
Q 2828 2175 2409 1742 
Q 1991 1309 1228 531 
z
" id="DejaVuSans-32" transform="scale(0.015625)"/>
        <path d="M 691 4666 
L 3169 4666 
L 3169 4134 
L 1269 4134 
L 1269 2991 
Q 1406 3038 1543 3061 
Q 1681 3084 1819 3084 
Q 2600 3084 3056 2656 
Q 3513 2228 3513 1497 
Q 3513 744 3044 326 
Q 2575 -91 1722 -91 
Q 1428 -91 1123 -41 
Q 819 9 494 109 
L 494 744 
Q 775 591 1075 516 
Q 1375 441 1709 441 
Q 2250 441 2565 725 
Q 2881 1009 2881 1497 
Q 2881 1984 2565 2268 
Q 2250 2553 1709 2553 
Q 1456 2553 1204 2497 
Q 953 2441 691 2322 
L 691 4666 
z
" id="DejaVuSans-35" transform="scale(0.015625)"/>
        <path d="M 2034 4250 
Q 1547 4250 1301 3770 
Q 1056 3291 1056 2328 
Q 1056 1369 1301 889 
Q 1547 409 2034 409 
Q 2525 409 2770 889 
Q 3016 1369 3016 2328 
Q 3016 3291 2770 3770 
Q 2525 4250 2034 4250 
z
M 2034 4750 
Q 2819 4750 3233 4129 
Q 3647 3509 3647 2328 
Q 3647 1150 3233 529 
Q 2819 -91 2034 -91 
Q 1250 -91 836 529 
Q 422 1150 422 2328 
Q 422 3509 836 4129 
Q 1250 4750 2034 4750 
z
" id="DejaVuSans-30" transform="scale(0.015625)"/>
       </defs>
       <use xlink:href="#DejaVuSans-2212"/>
       <use x="83.789062" xlink:href="#DejaVuSans-32"/>
       <use x="147.412109" xlink:href="#DejaVuSans-35"/>
       <use x="211.035156" xlink:href="#DejaVuSans-30"/>
      </g>
     </g>
    </g>
    <g id="xtick_2">
     <g id="line2d_2">
      <g>
       <use style="stroke:#000000;stroke-width:0.8;" x="177.455171" xlink:href="#mac4d8f202b" y="630"/>
      </g>
     </g>
     <g id="text_2">
      <!-- −200 -->
      <g transform="translate(163.721577 644.598438)scale(0.1 -0.1)">
       <use xlink:href="#DejaVuSans-2212"/>
       <use x="83.789062" xlink:href="#DejaVuSans-32"/>
       <use x="147.412109" xlink:href="#DejaVuSans-30"/>
       <use x="211.035156" xlink:href="#DejaVuSans-30"/>
      </g>
     </g>
    </g>
    <g id="xtick_3">
     <g id="line2d_3">
      <g>
       <use style="stroke:#000000;stroke-width:0.8;" x="244.461798" xlink:href="#mac4d8f202b" y="630"/>
      </g>
     </g>
     <g id="text_3">
      <!-- −150 -->
      <g transform="translate(230.728204 644.598438)scale(0.1 -0.1)">
       <defs>
        <path d="M 794 531 
L 1825 531 
L 1825 4091 
L 703 3866 
L 703 4441 
L 1819 4666 
L 2450 4666 
L 2450 531 
L 3481 531 
L 3481 0 
L 794 0 
L 794 531 
z
" id="DejaVuSans-31" transform="scale(0.015625)"/>
       </defs>
       <use xlink:href="#DejaVuSans-2212"/>
       <use x="83.789062" xlink:href="#DejaVuSans-31"/>
       <use x="147.412109" xlink:href="#DejaVuSans-35"/>
       <use x="211.035156" xlink:href="#DejaVuSans-30"/>
      </g>
     </g>
    </g>
    <g id="xtick_4">
     <g id="line2d_4">
      <g>
       <use style="stroke:#000000;stroke-width:0.8;" x="311.468425" xlink:href="#mac4d8f202b" y="630"/>
      </g>
     </g>
     <g id="text_4">
      <!-- −100 -->
      <g transform="translate(297.734831 644.598438)scale(0.1 -0.1)">
       <use xlink:href="#DejaVuSans-2212"/>
       <use x="83.789062" xlink:href="#DejaVuSans-31"/>
       <use x="147.412109" xlink:href="#DejaVuSans-30"/>
       <use x="211.035156" xlink:href="#DejaVuSans-30"/>
      </g>
     </g>
    </g>
    <g id="xtick_5">
     <g id="line2d_5">
      <g>
       <use style="stroke:#000000;stroke-width:0.8;" x="378.475052" xlink:href="#mac4d8f202b" y="630"/>
      </g>
     </g>
     <g id="text_5">
      <!-- −50 -->
      <g transform="translate(367.922708 644.598438)scale(0.1 -0.1)">
       <use xlink:href="#DejaVuSans-2212"/>
       <use x="83.789062" xlink:href="#DejaVuSans-35"/>
       <use x="147.412109" xlink:href="#DejaVuSans-30"/>
      </g>
     </g>
    </g>
    <g id="xtick_6">
     <g id="line2d_6">
      <g>
       <use style="stroke:#000000;stroke-width:0.8;" x="445.481679" xlink:href="#mac4d8f202b" y="630"/>
      </g>
     </g>
     <g id="text_6">
      <!-- 0 -->
      <g transform="translate(442.300429 644.598438)scale(0.1 -0.1)">
       <use xlink:href="#DejaVuSans-30"/>
      </g>
     </g>
    </g>
    <g id="xtick_7">
     <g id="line2d_7">
      <g>
       <use style="stroke:#000000;stroke-width:0.8;" x="512.488306" xlink:href="#mac4d8f202b" y="630"/>
      </g>
     </g>
     <g id="text_7">
      <!-- 50 -->
      <g transform="translate(506.125806 644.598438)scale(0.1 -0.1)">
       <use xlink:href="#DejaVuSans-35"/>
       <use x="63.623047" xlink:href="#DejaVuSans-30"/>
      </g>
     </g>
    </g>
    <g id="xtick_8">
     <g id="line2d_8">
      <g>
       <use style="stroke:#000000;stroke-width:0.8;" x="579.494933" xlink:href="#mac4d8f202b" y="630"/>
      </g>
     </g>
     <g id="text_8">
      <!-- 100 -->
      <g transform="translate(569.951183 644.598438)scale(0.1 -0.1)">
       <use xlink:href="#DejaVuSans-31"/>
       <use x="63.623047" xlink:href="#DejaVuSans-30"/>
       <use x="127.246094" xlink:href="#DejaVuSans-30"/>
      </g>
     </g>
    </g>
    <g id="xtick_9">
     <g id="line2d_9">
      <g>
       <use style="stroke:#000000;stroke-width:0.8;" x="646.501559" xlink:href="#mac4d8f202b" y="630"/>
      </g>
     </g>
     <g id="text_9">
      <!-- 150 -->
      <g transform="translate(636.957809 644.598438)scale(0.1 -0.1)">
       <use xlink:href="#DejaVuSans-31"/>
       <use x="63.623047" xlink:href="#DejaVuSans-35"/>
       <use x="127.246094" xlink:href="#DejaVuSans-30"/>
      </g>
     </g>
    </g>
   </g>
   <g id="matplotlib.axis_2">
    <g id="ytick_1">
     <g id="line2d_10">
      <defs>
       <path d="M 0 0 
L -3.5 0 
" id="m539cde1b20" style="stroke:#000000;stroke-width:0.8;"/>
      </defs>
      <g>
       <use style="stroke:#000000;stroke-width:0.8;" x="90" xlink:href="#m539cde1b20" y="610.07916"/>
      </g>
     </g>
     <g id="text_10">
      <!-- −250 -->
      <g transform="translate(55.532812 613.878379)scale(0.1 -0.1)">
       <use xlink:href="#DejaVuSans-2212"/>
       <use x="83.789062" xlink:href="#DejaVuSans-32"/>
       <use x="147.412109" xlink:href="#DejaVuSans-35"/>
       <use x="211.035156" xlink:href="#DejaVuSans-30"/>
      </g>
     </g>
    </g>
    <g id="ytick_2">
     <g id="line2d_11">
      <g>
       <use style="stroke:#000000;stroke-width:0.8;" x="90" xlink:href="#m539cde1b20" y="544.801736"/>
      </g>
     </g>
     <g id="text_11">
      <!-- −200 -->
      <g transform="translate(55.532812 548.600955)scale(0.1 -0.1)">
       <use xlink:href="#DejaVuSans-2212"/>
       <use x="83.789062" xlink:href="#DejaVuSans-32"/>
       <use x="147.412109" xlink:href="#DejaVuSans-30"/>
       <use x="211.035156" xlink:href="#DejaVuSans-30"/>
      </g>
     </g>
    </g>
    <g id="ytick_3">
     <g id="line2d_12">
      <g>
       <use style="stroke:#000000;stroke-width:0.8;" x="90" xlink:href="#m539cde1b20" y="479.524313"/>
      </g>
     </g>
     <g id="text_12">
      <!-- −150 -->
      <g transform="translate(55.532812 483.323532)scale(0.1 -0.1)">
       <use xlink:href="#DejaVuSans-2212"/>
       <use x="83.789062" xlink:href="#DejaVuSans-31"/>
       <use x="147.412109" xlink:href="#DejaVuSans-35"/>
       <use x="211.035156" xlink:href="#DejaVuSans-30"/>
      </g>
     </g>
    </g>
    <g id="ytick_4">
     <g id="line2d_13">
      <g>
       <use style="stroke:#000000;stroke-width:0.8;" x="90" xlink:href="#m539cde1b20" y="414.246889"/>
      </g>
     </g>
     <g id="text_13">
      <!-- −100 -->
      <g transform="translate(55.532812 418.046108)scale(0.1 -0.1)">
       <use xlink:href="#DejaVuSans-2212"/>
       <use x="83.789062" xlink:href="#DejaVuSans-31"/>
       <use x="147.412109" xlink:href="#DejaVuSans-30"/>
       <use x="211.035156" xlink:href="#DejaVuSans-30"/>
      </g>
     </g>
    </g>
    <g id="ytick_5">
     <g id="line2d_14">
      <g>
       <use style="stroke:#000000;stroke-width:0.8;" x="90" xlink:href="#m539cde1b20" y="348.969466"/>
      </g>
     </g>
     <g id="text_14">
      <!-- −50 -->
      <g transform="translate(61.895313 352.768684)scale(0.1 -0.1)">
       <use xlink:href="#DejaVuSans-2212"/>
       <use x="83.789062" xlink:href="#DejaVuSans-35"/>
       <use x="147.412109" xlink:href="#DejaVuSans-30"/>
      </g>
     </g>
    </g>
    <g id="ytick_6">
     <g id="line2d_15">
      <g>
       <use style="stroke:#000000;stroke-width:0.8;" x="90" xlink:href="#m539cde1b20" y="283.692042"/>
      </g>
     </g>
     <g id="text_15">
      <!-- 0 -->
      <g transform="translate(76.6375 287.491261)scale(0.1 -0.1)">
       <use xlink:href="#DejaVuSans-30"/>
      </g>
     </g>
    </g>
    <g id="ytick_7">
     <g id="line2d_16">
      <g>
       <use style="stroke:#000000;stroke-width:0.8;" x="90" xlink:href="#m539cde1b20" y="218.414618"/>
      </g>
     </g>
     <g id="text_16">
      <!-- 50 -->
      <g transform="translate(70.275 222.213837)scale(0.1 -0.1)">
       <use xlink:href="#DejaVuSans-35"/>
       <use x="63.623047" xlink:href="#DejaVuSans-30"/>
      </g>
     </g>
    </g>
    <g id="ytick_8">
     <g id="line2d_17">
      <g>
       <use style="stroke:#000000;stroke-width:0.8;" x="90" xlink:href="#m539cde1b20" y="153.137195"/>
      </g>
     </g>
     <g id="text_17">
      <!-- 100 -->
      <g transform="translate(63.9125 156.936413)scale(0.1 -0.1)">
       <use xlink:href="#DejaVuSans-31"/>
       <use x="63.623047" xlink:href="#DejaVuSans-30"/>
       <use x="127.246094" xlink:href="#DejaVuSans-30"/>
      </g>
     </g>
    </g>
    <g id="ytick_9">
     <g id="line2d_18">
      <g>
       <use style="stroke:#000000;stroke-width:0.8;" x="90" xlink:href="#m539cde1b20" y="87.859771"/>
      </g>
     </g>
     <g id="text_18">
      <!-- 150 -->
      <g transform="translate(63.9125 91.65899)scale(0.1 -0.1)">
       <use xlink:href="#DejaVuSans-31"/>
       <use x="63.623047" xlink:href="#DejaVuSans-35"/>
       <use x="127.246094" xlink:href="#DejaVuSans-30"/>
      </g>
     </g>
    </g>
   </g>
   <g id="line2d_19">
    <path clip-path="url(#p1d6a6e2bdf)" d="M 534.153659 130.659861 
L 527.784911 133.269565 
L 521.431189 135.917135 
L 515.093843 138.605314 
L 508.774416 141.337146 
L 502.474688 144.11602 
L 496.196713 146.945723 
L 489.94289 149.830505 
L 483.716025 152.775154 
L 477.519437 155.78509 
L 471.357073 158.866475 
L 465.23367 162.026356 
L 459.154966 165.272822 
L 453.127973 168.615221 
L 447.161358 172.064406 
L 441.265948 175.633048 
L 435.455435 179.336019 
L 429.747354 183.190843 
L 424.164462 187.218227 
L 418.736703 191.442634 
L 413.504004 195.89279 
L 408.520232 200.601875 
L 403.858621 205.60679 
L 399.618626 210.945238 
L 395.932801 216.648253 
L 392.968615 222.724912 
L 390.913656 229.138351 
L 389.930432 235.784 
L 390.088858 242.497675 
L 391.326701 249.107977 
L 393.479226 255.495726 
L 396.346461 261.613757 
L 399.742166 267.470862 
L 403.508958 273.10924 
L 407.511177 278.591861 
L 411.613322 284.003805 
L 415.629867 289.474785 
L 419.133643 295.260416 
L 419.930781 301.726903 
" style="fill:none;stroke:#808080;stroke-linecap:square;stroke-width:1.5;"/>
   </g>
   <g id="line2d_20">
    <path clip-path="url(#p1d6a6e2bdf)" d="M 389.930432 301.726903 
L 389.930432 130.659861 
L 534.153659 130.659861 
L 534.153659 301.726903 
L 389.930432 301.726903 
" style="fill:none;stroke:#d3d3d3;stroke-linecap:square;stroke-width:0.5;"/>
   </g>
   <g id="line2d_21">
    <path clip-path="url(#p1d6a6e2bdf)" d="M 419.930781 301.726903 
L 419.662073 308.295021 
L 420.368688 314.877554 
L 421.326204 321.428729 
L 422.420924 327.959072 
L 423.60805 334.47432 
L 424.864511 340.97789 
L 426.176639 347.471986 
L 427.535602 353.958098 
L 428.935361 360.437271 
L 430.37162 366.91025 
L 431.841243 373.377565 
L 433.341911 379.839594 
L 434.871896 386.296591 
L 436.429921 392.74872 
L 438.015066 399.196062 
L 439.626699 405.638633 
L 441.264428 412.076392 
L 442.928077 418.509242 
L 444.617656 424.937038 
L 446.333352 431.359585 
L 448.07552 437.776638 
L 449.844682 444.187901 
L 451.64153 450.593024 
L 453.466931 456.991598 
L 455.321941 463.383148 
L 457.207819 469.767124 
L 459.126055 476.14289 
L 461.078394 482.50971 
L 463.066879 488.86673 
L 465.093896 495.212952 
" style="fill:none;stroke:#808080;stroke-linecap:square;stroke-width:1.5;"/>
   </g>
   <g id="line2d_22">
    <path clip-path="url(#p1d6a6e2bdf)" d="M 419.662073 495.212952 
L 419.662073 301.726903 
L 465.093896 301.726903 
L 465.093896 495.212952 
L 419.662073 495.212952 
" style="fill:none;stroke:#d3d3d3;stroke-linecap:square;stroke-width:0.5;"/>
   </g>
   <g id="line2d_23">
    <path clip-path="url(#p1d6a6e2bdf)" d="M 465.093896 495.212952 
L 467.162237 501.547204 
L 469.275183 507.868098 
L 471.436608 514.173978 
L 473.651115 520.462843 
L 475.924223 526.732247 
L 478.262615 532.979155 
L 480.674489 539.199737 
L 483.17005 545.389062 
L 485.762234 551.540625 
L 488.467798 557.645597 
L 491.309036 563.691557 
L 494.316598 569.660245 
L 497.534396 575.523234 
L 501.028742 581.232792 
L 504.906677 586.699935 
L 509.355048 591.731935 
L 514.709615 595.813582 
L 521.227195 597.400026 
L 527.392239 594.825461 
L 531.929274 589.907452 
L 535.368779 584.186302 
L 538.153044 578.131745 
L 540.509639 571.905717 
L 542.564184 565.578246 
L 544.392788 559.184891 
L 546.045114 552.745842 
L 547.555473 546.273524 
L 548.948643 539.776062 
L 550.243158 533.259023 
" style="fill:none;stroke:#808080;stroke-linecap:square;stroke-width:1.5;"/>
   </g>
   <g id="line2d_24">
    <path clip-path="url(#p1d6a6e2bdf)" d="M 465.093896 597.400026 
L 465.093896 495.212952 
L 550.243158 495.212952 
L 550.243158 597.400026 
L 465.093896 597.400026 
" style="fill:none;stroke:#d3d3d3;stroke-linecap:square;stroke-width:0.5;"/>
   </g>
   <g id="line2d_25">
    <path clip-path="url(#p1d6a6e2bdf)" d="M 550.243158 533.259023 
L 551.50631 526.79182 
L 552.815015 520.333223 
L 554.167673 513.883221 
L 555.562464 507.441727 
L 556.997362 501.008579 
L 558.470146 494.583538 
L 559.978419 488.166295 
L 561.519626 481.756472 
L 563.091072 475.353626 
L 564.689942 468.957255 
L 566.313325 462.566805 
L 567.958225 456.181674 
L 569.621586 449.801222 
L 571.300307 443.424773 
L 572.991257 437.051624 
L 574.691287 430.681052 
L 576.397245 424.312316 
L 578.10598 417.944667 
L 579.814355 411.57735 
L 581.519249 405.209608 
L 583.217559 398.840687 
L 584.906203 392.469839 
L 586.582117 386.096322 
L 588.242254 379.719407 
" style="fill:none;stroke:#808080;stroke-linecap:square;stroke-width:1.5;"/>
   </g>
   <g id="line2d_26">
    <path clip-path="url(#p1d6a6e2bdf)" d="M 550.243158 533.259023 
L 550.243158 379.719407 
L 588.242254 379.719407 
L 588.242254 533.259023 
L 550.243158 533.259023 
" style="fill:none;stroke:#d3d3d3;stroke-linecap:square;stroke-width:0.5;"/>
   </g>
   <g id="line2d_27">
    <path clip-path="url(#p1d6a6e2bdf)" d="M 588.242254 379.719407 
L 589.883579 373.338376 
L 591.503061 366.952522 
L 593.097666 360.561157 
L 594.664348 354.163605 
L 596.200032 347.759209 
L 597.701609 341.347331 
L 599.165913 334.927353 
L 600.589707 328.498679 
L 601.969661 322.06074 
L 603.302331 315.612999 
L 604.584133 309.154954 
L 605.811314 302.686149 
L 606.979916 296.206181 
L 608.085747 289.714713 
L 609.124326 283.211494 
L 610.090847 276.696373 
L 610.980112 270.169326 
L 611.78647 263.630489 
L 612.503743 257.080192 
L 613.12513 250.519008 
L 613.643109 243.947811 
L 614.049307 237.367846 
L 614.334347 230.780819 
L 614.487676 224.189009 
" style="fill:none;stroke:#808080;stroke-linecap:square;stroke-width:1.5;"/>
   </g>
   <g id="line2d_28">
    <path clip-path="url(#p1d6a6e2bdf)" d="M 588.242254 379.719407 
L 588.242254 224.189009 
L 614.487676 224.189009 
L 614.487676 379.719407 
L 588.242254 379.719407 
" style="fill:none;stroke:#d3d3d3;stroke-linecap:square;stroke-width:0.5;"/>
   </g>
   <g id="line2d_29">
    <path clip-path="url(#p1d6a6e2bdf)" d="M 614.487676 224.189009 
L 614.497335 217.595408 
L 614.349689 211.0039 
L 614.029094 204.419499 
L 613.51747 197.848659 
L 612.793769 191.2997 
L 611.833306 184.783404 
L 610.606914 178.31387 
L 609.079903 171.909796 
L 607.210863 165.596418 
L 604.950454 159.408506 
L 602.240693 153.39494 
L 599.01596 147.62535 
L 595.20819 142.198518 
L 590.76003 137.249573 
L 585.648555 132.947771 
L 579.913822 129.472822 
L 573.672544 126.967506 
L 567.096904 125.49064 
L 560.366873 125.005294 
L 553.628986 125.407107 
L 546.981617 126.565395 
L 540.480917 128.352972 
L 534.153659 130.659861 
" style="fill:none;stroke:#808080;stroke-linecap:square;stroke-width:1.5;"/>
   </g>
   <g id="line2d_30">
    <path clip-path="url(#p1d6a6e2bdf)" d="M 534.153659 224.189009 
L 534.153659 125.005294 
L 614.497335 125.005294 
L 614.497335 224.189009 
L 534.153659 224.189009 
" style="fill:none;stroke:#d3d3d3;stroke-linecap:square;stroke-width:0.5;"/>
   </g>
   <g id="line2d_31">
    <path clip-path="url(#p1d6a6e2bdf)" d="M 432.054015 307.291137 
L 432.054015 307.291137 
L 433.028337 307.35125 
L 433.661614 313.220383 
L 434.570551 319.436322 
L 435.630143 325.756435 
L 436.789782 332.120582 
L 438.023508 338.50637 
L 439.316057 344.903512 
L 440.657633 351.306605 
L 442.04157 357.712521 
L 443.463141 364.119295 
L 444.918904 370.525604 
L 446.406303 376.930491 
L 447.92343 383.333221 
L 449.468859 389.733183 
L 451.041545 396.129847 
L 452.640745 402.522718 
L 454.265969 408.911319 
L 455.916946 415.295169 
L 457.593594 421.673772 
L 459.296007 428.0466 
L 461.024447 434.413089 
L 462.779334 440.77262 
L 464.561249 447.124513 
L 466.370936 453.468009 
L 468.209314 459.802257 
L 470.077485 466.126294 
L 471.976753 472.439021 
L 473.908647 478.739174 
L 475.87495 485.025288 
" style="fill:none;stroke:#000000;stroke-linecap:square;stroke-width:3;"/>
   </g>
   <g id="line2d_32">
    <path clip-path="url(#p1d6a6e2bdf)" d="M 432.054015 485.025288 
L 432.054015 307.291137 
L 475.87495 307.291137 
L 475.87495 485.025288 
L 432.054015 485.025288 
" style="fill:none;stroke:#d3d3d3;stroke-linecap:square;stroke-width:0.5;"/>
   </g>
   <g id="line2d_33">
    <path clip-path="url(#p1d6a6e2bdf)" d="M 475.87495 485.025288 
L 477.877734 491.295652 
L 479.919405 497.548241 
L 482.002765 503.780643 
L 484.131081 509.989946 
L 486.308175 516.172589 
L 488.538548 522.32416 
L 490.827521 528.439093 
L 493.181432 534.510243 
L 495.607872 540.528226 
L 498.115985 546.480409 
L 500.716814 552.34925 
L 503.423625 558.109482 
L 506.25195 563.723025 
L 509.218425 569.129155 
L 512.335064 574.223837 
L 515.585406 578.811958 
L 518.818793 582.488227 
L 521.229729 584.407458 
L 520.1956 584.383278 
L 518.998555 584.647978 
L 520.927285 582.453009 
L 523.396823 578.31944 
L 525.720872 573.257213 
L 527.819515 567.709186 
L 529.712771 561.876734 
L 531.432623 555.862667 
L 533.007501 549.724872 
L 534.460377 543.498527 
L 535.809486 537.206319 
L 537.069344 530.86359 
" style="fill:none;stroke:#000000;stroke-linecap:square;stroke-width:3;"/>
   </g>
   <g id="line2d_34">
    <path clip-path="url(#p1d6a6e2bdf)" d="M 475.87495 584.647978 
L 475.87495 485.025288 
L 537.069344 485.025288 
L 537.069344 584.647978 
L 475.87495 584.647978 
" style="fill:none;stroke:#d3d3d3;stroke-linecap:square;stroke-width:0.5;"/>
   </g>
   <g id="line2d_35">
    <path clip-path="url(#p1d6a6e2bdf)" d="M 537.069344 530.86359 
" style="fill:none;stroke:#000000;stroke-linecap:square;stroke-width:3;"/>
   </g>
   <g id="line2d_36">
    <path clip-path="url(#p1d6a6e2bdf)" d="M 537.069344 530.86359 
L 537.069344 530.86359 
L 537.069344 530.86359 
L 537.069344 530.86359 
L 537.069344 530.86359 
" style="fill:none;stroke:#d3d3d3;stroke-linecap:square;stroke-width:0.5;"/>
   </g>
   <g id="line2d_37">
    <path clip-path="url(#p1d6a6e2bdf)" d="M 537.069344 530.86359 
L 538.349957 524.306978 
L 539.676194 517.761848 
L 541.046303 511.228622 
L 542.458307 504.707628 
L 543.910018 498.19909 
L 545.399057 491.703126 
L 546.922872 485.219748 
L 548.478759 478.748862 
L 550.063884 472.290271 
L 551.675306 465.843682 
L 553.309996 459.40871 
L 554.964862 452.984888 
L 556.636762 446.571676 
L 558.322527 440.168469 
L 560.018972 433.774606 
L 561.72291 427.389386 
L 563.431166 421.012069 
L 565.140579 414.641892 
L 566.848015 408.278078 
L 568.550365 401.919838 
L 570.244551 395.566386 
L 571.927522 389.21694 
L 573.596257 382.870732 
L 575.247753 376.527012 
" style="fill:none;stroke:#000000;stroke-linecap:square;stroke-width:3;"/>
   </g>
   <g id="line2d_38">
    <path clip-path="url(#p1d6a6e2bdf)" d="M 537.069344 530.86359 
L 537.069344 376.527012 
L 575.247753 376.527012 
L 575.247753 530.86359 
L 537.069344 530.86359 
" style="fill:none;stroke:#d3d3d3;stroke-linecap:square;stroke-width:0.5;"/>
   </g>
   <g id="line2d_39">
    <path clip-path="url(#p1d6a6e2bdf)" d="M 575.247753 376.527012 
L 576.87903 370.185053 
L 578.487113 363.844156 
L 580.06903 357.503653 
L 581.621801 351.162914 
L 583.142423 344.821349 
L 584.627857 338.478415 
L 586.075016 332.133619 
L 587.480746 325.786525 
L 588.841803 319.436765 
L 590.154838 313.084044 
L 591.416369 306.728153 
L 592.622756 300.368986 
L 593.770169 294.006555 
L 594.854555 287.641011 
L 595.871602 281.272675 
L 596.816693 274.902067 
L 597.684861 268.529951 
L 598.470728 262.157382 
L 599.168449 255.785772 
L 599.771635 249.416963 
L 600.273275 243.053324 
L 600.665639 236.697871 
L 600.940172 230.354409 
L 601.087374 224.027724 
" style="fill:none;stroke:#000000;stroke-linecap:square;stroke-width:3;"/>
   </g>
   <g id="line2d_40">
    <path clip-path="url(#p1d6a6e2bdf)" d="M 575.247753 376.527012 
L 575.247753 224.027724 
L 601.087374 224.027724 
L 601.087374 376.527012 
L 575.247753 376.527012 
" style="fill:none;stroke:#d3d3d3;stroke-linecap:square;stroke-width:0.5;"/>
   </g>
   <g id="line2d_41">
    <path clip-path="url(#p1d6a6e2bdf)" d="M 601.087374 224.027724 
L 601.096657 217.723809 
L 600.956195 211.450167 
L 600.652745 205.216192 
L 600.171463 199.033669 
L 599.495724 192.917425 
L 598.606955 186.886204 
L 597.484555 180.963826 
L 596.106002 175.18074 
L 594.447329 169.576057 
L 592.484346 164.20008 
L 590.195129 159.117023 
L 587.56437 154.406788 
L 584.589444 150.162975 
L 581.285174 146.482473 
L 577.679348 143.444102 
L 573.792316 141.086692 
L 569.615791 139.410451 
L 565.125587 138.404105 
L 560.32431 138.060713 
L 555.262607 138.365229 
L 550.021191 139.280636 
L 544.682468 140.75023 
L 539.314071 142.708618 
L 539.314071 142.708618 
" style="fill:none;stroke:#000000;stroke-linecap:square;stroke-width:3;"/>
   </g>
   <g id="line2d_42">
    <path clip-path="url(#p1d6a6e2bdf)" d="M 539.314071 224.027724 
L 539.314071 138.060713 
L 601.096657 138.060713 
L 601.096657 224.027724 
L 539.314071 224.027724 
" style="fill:none;stroke:#d3d3d3;stroke-linecap:square;stroke-width:0.5;"/>
   </g>
   <g id="line2d_43">
    <path clip-path="url(#p1d6a6e2bdf)" d="M 539.314071 142.708618 
" style="fill:none;stroke:#000000;stroke-linecap:square;stroke-width:3;"/>
   </g>
   <g id="line2d_44">
    <path clip-path="url(#p1d6a6e2bdf)" d="M 539.314071 142.708618 
L 539.314071 142.708618 
L 539.314071 142.708618 
L 539.314071 142.708618 
L 539.314071 142.708618 
" style="fill:none;stroke:#d3d3d3;stroke-linecap:square;stroke-width:0.5;"/>
   </g>
   <g id="line2d_45">
    <path clip-path="url(#p1d6a6e2bdf)" d="M 539.314071 142.708618 
L 539.314071 142.708618 
L 533.0172 145.288866 
L 526.740414 147.904374 
L 520.485607 150.557537 
L 514.254947 153.250992 
L 508.050934 155.987639 
L 501.87646 158.770684 
L 495.734894 161.603674 
L 489.630187 164.490544 
L 483.566997 167.435668 
L 477.550865 170.443915 
L 471.588424 173.520709 
L 465.687686 176.672097 
L 459.858408 179.904807 
L 454.112581 183.226301 
L 448.46508 186.644798 
L 442.934534 190.169235 
L 437.54449 193.809114 
L 432.324963 197.574126 
L 427.314469 201.473396 
L 422.562568 205.514051 
L 418.132754 209.698722 
L 414.104942 214.0215 
L 410.575542 218.462422 
L 407.651037 222.982644 
L 405.430083 227.527927 
L 403.976693 232.053227 
L 403.3077 236.56593 
L 403.41725 241.137468 
L 404.301691 245.841139 
L 405.938902 250.688299 
L 408.262657 255.640132 
L 411.172735 260.65585 
L 414.5608 265.725117 
L 418.328753 270.88553 
L 422.398143 276.254026 
L 426.721801 282.147935 
L 431.296519 289.778902 
L 432.054015 307.291137 
L 432.054015 307.291137 
" style="fill:none;stroke:#000000;stroke-linecap:square;stroke-width:3;"/>
   </g>
   <g id="line2d_46">
    <path clip-path="url(#p1d6a6e2bdf)" d="M 403.3077 307.291137 
L 403.3077 142.708618 
L 539.314071 142.708618 
L 539.314071 307.291137 
L 403.3077 307.291137 
" style="fill:none;stroke:#d3d3d3;stroke-linecap:square;stroke-width:0.5;"/>
   </g>
   <g id="line2d_47">
    <path clip-path="url(#p1d6a6e2bdf)" d="M 537.069344 530.86359 
L 537.069344 530.86359 
L 537.069344 530.86359 
" style="fill:none;stroke:#000000;stroke-linecap:square;stroke-width:3;"/>
   </g>
   <g id="line2d_48">
    <path clip-path="url(#p1d6a6e2bdf)" d="M 537.069344 530.86359 
L 537.069344 530.86359 
L 537.069344 530.86359 
L 537.069344 530.86359 
L 537.069344 530.86359 
" style="fill:none;stroke:#d3d3d3;stroke-linecap:square;stroke-width:0.5;"/>
   </g>
   <g id="line2d_49">
    <path clip-path="url(#p1d6a6e2bdf)" d="M 537.069344 530.86359 
L 537.069344 530.86359 
L 537.069344 530.86359 
" style="fill:none;stroke:#000000;stroke-linecap:square;stroke-width:3;"/>
   </g>
   <g id="line2d_50">
    <path clip-path="url(#p1d6a6e2bdf)" d="M 537.069344 530.86359 
L 537.069344 530.86359 
L 537.069344 530.86359 
L 537.069344 530.86359 
L 537.069344 530.86359 
" style="fill:none;stroke:#d3d3d3;stroke-linecap:square;stroke-width:0.5;"/>
   </g>
   <g id="line2d_51">
    <path clip-path="url(#p1d6a6e2bdf)" d="M 563.416973 535.654456 
L 564.662664 529.276661 
L 565.953836 522.904598 
L 567.289042 516.537819 
L 568.666621 510.175826 
L 570.084706 503.818067 
L 571.541235 497.46395 
L 573.033966 491.112843 
L 574.560493 484.764083 
L 576.118259 478.416981 
L 577.704579 472.070828 
L 579.316654 465.7249 
L 580.951588 459.37846 
L 582.60641 453.030768 
L 584.278088 446.681078 
L 585.963543 440.328643 
L 587.659665 433.972718 
L 589.363324 427.612563 
L 591.071381 421.247442 
L 592.780696 414.876622 
L 594.488134 408.499377 
L 596.190568 402.114988 
L 597.884883 395.722737 
L 599.567977 389.321912 
L 601.236754 382.911803 
" style="fill:none;stroke:#000000;stroke-linecap:square;stroke-width:3;"/>
   </g>
   <g id="line2d_52">
    <path clip-path="url(#p1d6a6e2bdf)" d="M 563.416973 535.654456 
L 563.416973 382.911803 
L 601.236754 382.911803 
L 601.236754 535.654456 
L 563.416973 535.654456 
" style="fill:none;stroke:#d3d3d3;stroke-linecap:square;stroke-width:0.5;"/>
   </g>
   <g id="line2d_53">
    <path clip-path="url(#p1d6a6e2bdf)" d="M 601.236754 382.911803 
L 602.888128 376.491698 
L 604.519009 370.060889 
L 606.126302 363.618661 
L 607.706894 357.164296 
L 609.257642 350.697069 
L 610.775362 344.216248 
L 612.25681 337.721087 
L 613.698669 331.210833 
L 615.097519 324.684715 
L 616.449824 318.141955 
L 617.751897 311.581756 
L 618.999871 305.003312 
L 620.189664 298.405806 
L 621.316938 291.788415 
L 622.377051 285.150314 
L 623.365001 278.490679 
L 624.275362 271.808701 
L 625.102212 265.103595 
L 625.839036 258.374611 
L 626.478625 251.621053 
L 627.012944 244.842297 
L 627.432974 238.037821 
L 627.728523 231.207229 
L 627.887979 224.350295 
" style="fill:none;stroke:#000000;stroke-linecap:square;stroke-width:3;"/>
   </g>
   <g id="line2d_54">
    <path clip-path="url(#p1d6a6e2bdf)" d="M 601.236754 382.911803 
L 601.236754 224.350295 
L 627.887979 224.350295 
L 627.887979 382.911803 
L 601.236754 382.911803 
" style="fill:none;stroke:#d3d3d3;stroke-linecap:square;stroke-width:0.5;"/>
   </g>
   <g id="line2d_55">
    <path clip-path="url(#p1d6a6e2bdf)" d="M 627.887979 224.350295 
L 627.898012 217.467007 
L 627.743183 210.557633 
L 627.405444 203.622805 
L 626.863476 196.663649 
L 626.091814 189.681976 
L 625.059658 182.680604 
L 623.729272 175.663914 
L 622.053804 168.638853 
L 619.974398 161.616779 
L 617.416562 154.616932 
L 614.286258 147.672857 
L 610.46755 140.843913 
L 605.826935 134.23406 
L 600.234887 128.016673 
L 593.617763 122.45144 
L 586.035328 117.858952 
L 577.729297 114.524561 
L 569.068221 112.577175 
L 560.409435 111.949875 
L 551.995366 112.448985 
L 543.942044 113.850153 
L 536.279365 115.955714 
L 528.993247 118.611104 
L 528.993247 118.611104 
" style="fill:none;stroke:#000000;stroke-linecap:square;stroke-width:3;"/>
   </g>
   <g id="line2d_56">
    <path clip-path="url(#p1d6a6e2bdf)" d="M 528.993247 224.350295 
L 528.993247 111.949875 
L 627.898012 111.949875 
L 627.898012 224.350295 
L 528.993247 224.350295 
" style="fill:none;stroke:#d3d3d3;stroke-linecap:square;stroke-width:0.5;"/>
   </g>
   <g id="line2d_57">
    <path clip-path="url(#p1d6a6e2bdf)" d="M 528.993247 118.611104 
" style="fill:none;stroke:#000000;stroke-linecap:square;stroke-width:3;"/>
   </g>
   <g id="line2d_58">
    <path clip-path="url(#p1d6a6e2bdf)" d="M 528.993247 118.611104 
L 528.993247 118.611104 
L 528.993247 118.611104 
L 528.993247 118.611104 
L 528.993247 118.611104 
" style="fill:none;stroke:#d3d3d3;stroke-linecap:square;stroke-width:0.5;"/>
   </g>
   <g id="line2d_59">
    <path clip-path="url(#p1d6a6e2bdf)" d="M 407.807548 296.162669 
L 407.807548 296.162669 
L 406.29581 309.238791 
L 407.075761 316.534725 
L 408.081856 323.421136 
L 409.211705 330.16171 
L 410.426319 336.828057 
L 411.705515 343.449411 
L 413.03722 350.040461 
L 414.413571 356.609591 
L 415.829152 363.162022 
L 417.280098 369.701204 
L 418.763583 376.229526 
L 420.277519 382.748696 
L 421.820362 389.259962 
L 423.390983 395.764257 
L 424.988588 402.262276 
L 426.612652 408.754548 
L 428.262887 415.241465 
L 429.939209 421.723315 
L 431.641718 428.200305 
L 433.370696 434.67257 
L 435.126592 441.140187 
L 436.91003 447.603182 
L 438.721812 454.061536 
L 440.562926 460.515188 
L 442.434567 466.964039 
L 444.338153 473.407954 
L 446.275357 479.846759 
L 448.248142 486.280247 
L 450.258808 492.708172 
" style="fill:none;stroke:#000000;stroke-linecap:square;stroke-width:3;"/>
   </g>
   <g id="line2d_60">
    <path clip-path="url(#p1d6a6e2bdf)" d="M 406.29581 492.708172 
L 406.29581 296.162669 
L 450.258808 296.162669 
L 450.258808 492.708172 
L 406.29581 492.708172 
" style="fill:none;stroke:#d3d3d3;stroke-linecap:square;stroke-width:0.5;"/>
   </g>
   <g id="line2d_61">
    <path clip-path="url(#p1d6a6e2bdf)" d="M 450.258808 492.708172 
L 452.310057 499.130252 
L 454.405068 505.546167 
L 456.547601 511.955553 
L 458.742136 518.35801 
L 460.994056 524.753096 
L 463.309898 531.140334 
L 465.697709 537.519216 
L 468.167546 543.889231 
L 470.732228 550.249898 
L 473.408483 556.600841 
L 476.218782 562.941943 
L 479.194448 569.273632 
L 482.381246 575.597465 
L 485.850368 581.917314 
L 489.72242 588.241748 
L 494.227949 594.587912 
L 499.891303 600.975643 
L 508.189502 607.219705 
L 522.258789 610.416773 
L 535.785923 605.002944 
L 542.931263 597.361896 
L 547.340734 590.053164 
L 550.585217 583.006278 
L 553.199764 576.102249 
L 555.415598 569.279757 
L 557.352952 562.507115 
L 559.082726 555.766812 
L 560.650568 549.048522 
L 562.0878 542.345805 
L 563.416973 535.654456 
" style="fill:none;stroke:#000000;stroke-linecap:square;stroke-width:3;"/>
   </g>
   <g id="line2d_62">
    <path clip-path="url(#p1d6a6e2bdf)" d="M 450.258808 610.416773 
L 450.258808 492.708172 
L 563.416973 492.708172 
L 563.416973 610.416773 
L 450.258808 610.416773 
" style="fill:none;stroke:#d3d3d3;stroke-linecap:square;stroke-width:0.5;"/>
   </g>
   <g id="line2d_63">
    <path clip-path="url(#p1d6a6e2bdf)" d="M 563.416973 535.654456 
" style="fill:none;stroke:#000000;stroke-linecap:square;stroke-width:3;"/>
   </g>
   <g id="line2d_64">
    <path clip-path="url(#p1d6a6e2bdf)" d="M 563.416973 535.654456 
L 563.416973 535.654456 
L 563.416973 535.654456 
L 563.416973 535.654456 
L 563.416973 535.654456 
" style="fill:none;stroke:#d3d3d3;stroke-linecap:square;stroke-width:0.5;"/>
   </g>
   <g id="line2d_65">
    <path clip-path="url(#p1d6a6e2bdf)" d="M 528.993247 118.611104 
L 528.993247 118.611104 
L 522.552622 121.250264 
L 516.121964 123.929896 
L 509.702079 126.653091 
L 503.293886 129.423301 
L 496.898441 132.244402 
L 490.516967 135.120763 
L 484.150885 138.057337 
L 477.801864 141.059764 
L 471.471877 144.134511 
L 465.163282 147.289036 
L 458.878917 150.532002 
L 452.622245 153.873547 
L 446.397537 157.325635 
L 440.210134 160.902511 
L 434.066816 164.621299 
L 427.976336 168.502803 
L 421.950218 172.572571 
L 416.00396 176.862327 
L 410.158936 181.411872 
L 404.445439 186.271528 
L 398.90771 191.505028 
L 393.6123 197.192079 
L 388.66171 203.428054 
L 384.214565 210.313862 
L 380.507147 217.921896 
L 377.85062 226.223476 
L 376.553165 235.002069 
L 376.760466 243.857881 
L 378.35171 252.374815 
L 381.019551 260.303153 
L 384.430265 267.587383 
L 388.311596 274.285874 
L 392.457115 280.493363 
L 396.6936 286.298191 
L 400.828501 291.753583 
L 404.537932 296.801635 
L 406.970768 300.741931 
L 407.807548 296.162669 
L 407.807548 296.162669 
" style="fill:none;stroke:#000000;stroke-linecap:square;stroke-width:3;"/>
   </g>
   <g id="line2d_66">
    <path clip-path="url(#p1d6a6e2bdf)" d="M 376.553165 300.741931 
L 376.553165 118.611104 
L 528.993247 118.611104 
L 528.993247 300.741931 
L 376.553165 300.741931 
" style="fill:none;stroke:#d3d3d3;stroke-linecap:square;stroke-width:0.5;"/>
   </g>
   <g id="line2d_67">
    <path clip-path="url(#p1d6a6e2bdf)" d="M 563.416973 535.654456 
L 563.416973 535.654456 
L 563.416973 535.654456 
" style="fill:none;stroke:#000000;stroke-linecap:square;stroke-width:3;"/>
   </g>
   <g id="line2d_68">
    <path clip-path="url(#p1d6a6e2bdf)" d="M 563.416973 535.654456 
L 563.416973 535.654456 
L 563.416973 535.654456 
L 563.416973 535.654456 
L 563.416973 535.654456 
" style="fill:none;stroke:#d3d3d3;stroke-linecap:square;stroke-width:0.5;"/>
   </g>
   <g id="line2d_69">
    <path clip-path="url(#p1d6a6e2bdf)" d="M 563.416973 535.654456 
L 563.416973 535.654456 
L 563.416973 535.654456 
" style="fill:none;stroke:#000000;stroke-linecap:square;stroke-width:3;"/>
   </g>
   <g id="line2d_70">
    <path clip-path="url(#p1d6a6e2bdf)" d="M 563.416973 535.654456 
L 563.416973 535.654456 
L 563.416973 535.654456 
L 563.416973 535.654456 
L 563.416973 535.654456 
" style="fill:none;stroke:#d3d3d3;stroke-linecap:square;stroke-width:0.5;"/>
   </g>
   <g id="line2d_71">
    <path clip-path="url(#p1d6a6e2bdf)" d="M 419.930781 282.143676 
L 422.501367 282.304454 
L 425.029743 282.784148 
L 427.474394 283.574882 
L 429.79518 284.663671 
L 431.953992 286.032638 
L 433.915384 287.659305 
L 435.647149 289.516961 
L 437.120851 291.575104 
L 438.312293 293.799939 
L 439.201911 296.154935 
L 439.775098 298.601422 
L 440.022441 301.09923 
L 439.93988 303.607344 
L 439.528771 306.084581 
L 438.795862 308.490266 
L 437.75319 310.784896 
L 436.417874 312.930794 
L 434.811841 314.892724 
L 432.961461 316.638472 
L 430.897117 318.139373 
L 428.652707 319.370781 
L 426.265083 320.312478 
L 423.77345 320.948999 
L 421.21872 321.269895 
L 418.642843 321.269895 
L 416.088113 320.948999 
L 413.59648 320.312478 
L 411.208856 319.370781 
L 408.964445 318.139373 
L 406.900102 316.638472 
L 405.049722 314.892724 
L 403.443688 312.930794 
L 402.108373 310.784896 
L 401.0657 308.490266 
L 400.332792 306.084581 
L 399.921682 303.607344 
L 399.839121 301.09923 
L 400.086465 298.601422 
L 400.659652 296.154935 
L 401.54927 293.799939 
L 402.740712 291.575104 
L 404.214414 289.516961 
L 405.946179 287.659305 
L 407.907571 286.032638 
L 410.066383 284.663671 
L 412.387169 283.574882 
L 414.83182 282.784148 
L 417.360196 282.304454 
L 419.930781 282.143676 
" style="fill:none;stroke:#808080;stroke-linecap:square;stroke-width:1.5;"/>
   </g>
   <g id="line2d_72">
    <path clip-path="url(#p1d6a6e2bdf)" d="M 465.093896 475.629725 
L 467.664481 475.790503 
L 470.192857 476.270197 
L 472.637508 477.060931 
L 474.958294 478.14972 
L 477.117106 479.518687 
L 479.078498 481.145354 
L 480.810263 483.00301 
L 482.283965 485.061153 
L 483.475407 487.285988 
L 484.365025 489.640984 
L 484.938212 492.087471 
L 485.185556 494.585279 
L 485.102995 497.093393 
L 484.691885 499.57063 
L 483.958977 501.976314 
L 482.916304 504.270944 
L 481.580988 506.416843 
L 479.974955 508.378773 
L 478.124575 510.124521 
L 476.060232 511.625422 
L 473.815821 512.85683 
L 471.428197 513.798526 
L 468.936564 514.435048 
L 466.381834 514.755943 
L 463.805957 514.755943 
L 461.251227 514.435048 
L 458.759594 513.798526 
L 456.37197 512.85683 
L 454.127559 511.625422 
L 452.063216 510.124521 
L 450.212836 508.378773 
L 448.606803 506.416843 
L 447.271487 504.270944 
L 446.228815 501.976314 
L 445.495906 499.57063 
L 445.084797 497.093393 
L 445.002236 494.585279 
L 445.249579 492.087471 
L 445.822766 489.640984 
L 446.712384 487.285988 
L 447.903826 485.061153 
L 449.377528 483.00301 
L 451.109293 481.145354 
L 453.070685 479.518687 
L 455.229497 478.14972 
L 457.550283 477.060931 
L 459.994934 476.270197 
L 462.52331 475.790503 
L 465.093896 475.629725 
" style="fill:none;stroke:#808080;stroke-linecap:square;stroke-width:1.5;"/>
   </g>
   <g id="line2d_73">
    <path clip-path="url(#p1d6a6e2bdf)" d="M 550.243158 513.675796 
L 552.813744 513.836574 
L 555.34212 514.316268 
L 557.786771 515.107002 
L 560.107557 516.195791 
L 562.266369 517.564758 
L 564.227761 519.191425 
L 565.959526 521.049081 
L 567.433228 523.107224 
L 568.62467 525.332059 
L 569.514288 527.687055 
L 570.087475 530.133542 
L 570.334818 532.63135 
L 570.252257 535.139464 
L 569.841148 537.616701 
L 569.108239 540.022385 
L 568.065567 542.317015 
L 566.730251 544.462913 
L 565.124218 546.424844 
L 563.273838 548.170592 
L 561.209494 549.671493 
L 558.965084 550.902901 
L 556.57746 551.844597 
L 554.085827 552.481119 
L 551.531097 552.802014 
L 548.95522 552.802014 
L 546.40049 552.481119 
L 543.908857 551.844597 
L 541.521233 550.902901 
L 539.276822 549.671493 
L 537.212479 548.170592 
L 535.362099 546.424844 
L 533.756066 544.462913 
L 532.42075 542.317015 
L 531.378077 540.022385 
L 530.645169 537.616701 
L 530.234059 535.139464 
L 530.151498 532.63135 
L 530.398842 530.133542 
L 530.972029 527.687055 
L 531.861647 525.332059 
L 533.053089 523.107224 
L 534.526791 521.049081 
L 536.258556 519.191425 
L 538.219948 517.564758 
L 540.37876 516.195791 
L 542.699546 515.107002 
L 545.144197 514.316268 
L 547.672573 513.836574 
L 550.243158 513.675796 
" style="fill:none;stroke:#808080;stroke-linecap:square;stroke-width:1.5;"/>
   </g>
   <g id="line2d_74">
    <path clip-path="url(#p1d6a6e2bdf)" d="M 588.242254 360.13618 
L 590.812839 360.296958 
L 593.341215 360.776652 
L 595.785867 361.567386 
L 598.106652 362.656175 
L 600.265465 364.025142 
L 602.226856 365.651809 
L 603.958621 367.509465 
L 605.432324 369.567608 
L 606.623766 371.792443 
L 607.513384 374.147439 
L 608.08657 376.593926 
L 608.333914 379.091734 
L 608.251353 381.599848 
L 607.840243 384.077085 
L 607.107335 386.48277 
L 606.064663 388.7774 
L 604.729347 390.923298 
L 603.123313 392.885228 
L 601.272933 394.630976 
L 599.20859 396.131877 
L 596.96418 397.363285 
L 594.576556 398.304982 
L 592.084922 398.941503 
L 589.530193 399.262399 
L 586.954315 399.262399 
L 584.399585 398.941503 
L 581.907952 398.304982 
L 579.520328 397.363285 
L 577.275918 396.131877 
L 575.211574 394.630976 
L 573.361194 392.885228 
L 571.755161 390.923298 
L 570.419845 388.7774 
L 569.377173 386.48277 
L 568.644265 384.077085 
L 568.233155 381.599848 
L 568.150594 379.091734 
L 568.397937 376.593926 
L 568.971124 374.147439 
L 569.860742 371.792443 
L 571.052184 369.567608 
L 572.525887 367.509465 
L 574.257652 365.651809 
L 576.219043 364.025142 
L 578.377856 362.656175 
L 580.698641 361.567386 
L 583.143292 360.776652 
L 585.671669 360.296958 
L 588.242254 360.13618 
" style="fill:none;stroke:#808080;stroke-linecap:square;stroke-width:1.5;"/>
   </g>
   <g id="line2d_75">
    <path clip-path="url(#p1d6a6e2bdf)" d="M 614.487676 204.605782 
L 617.058262 204.76656 
L 619.586638 205.246254 
L 622.031289 206.036988 
L 624.352075 207.125777 
L 626.510887 208.494744 
L 628.472279 210.121411 
L 630.204043 211.979067 
L 631.677746 214.03721 
L 632.869188 216.262045 
L 633.758806 218.617041 
L 634.331993 221.063528 
L 634.579336 223.561336 
L 634.496775 226.06945 
L 634.085666 228.546687 
L 633.352757 230.952372 
L 632.310085 233.247002 
L 630.974769 235.3929 
L 629.368736 237.35483 
L 627.518356 239.100579 
L 625.454012 240.601479 
L 623.209602 241.832887 
L 620.821978 242.774584 
L 618.330345 243.411105 
L 615.775615 243.732001 
L 613.199738 243.732001 
L 610.645008 243.411105 
L 608.153375 242.774584 
L 605.765751 241.832887 
L 603.52134 240.601479 
L 601.456997 239.100579 
L 599.606617 237.35483 
L 598.000583 235.3929 
L 596.665268 233.247002 
L 595.622595 230.952372 
L 594.889687 228.546687 
L 594.478577 226.06945 
L 594.396016 223.561336 
L 594.64336 221.063528 
L 595.216547 218.617041 
L 596.106165 216.262045 
L 597.297607 214.03721 
L 598.771309 211.979067 
L 600.503074 210.121411 
L 602.464466 208.494744 
L 604.623278 207.125777 
L 606.944063 206.036988 
L 609.388715 205.246254 
L 611.917091 204.76656 
L 614.487676 204.605782 
" style="fill:none;stroke:#808080;stroke-linecap:square;stroke-width:1.5;"/>
   </g>
   <g id="line2d_76">
    <path clip-path="url(#p1d6a6e2bdf)" d="M 534.153659 111.076634 
L 536.724244 111.237412 
L 539.25262 111.717106 
L 541.697272 112.50784 
L 544.018057 113.596629 
L 546.17687 114.965596 
L 548.138261 116.592263 
L 549.870026 118.449919 
L 551.343729 120.508062 
L 552.535171 122.732897 
L 553.424789 125.087893 
L 553.997975 127.53438 
L 554.245319 130.032188 
L 554.162758 132.540302 
L 553.751648 135.017539 
L 553.01874 137.423223 
L 551.976068 139.717854 
L 550.640752 141.863752 
L 549.034718 143.825682 
L 547.184338 145.57143 
L 545.119995 147.072331 
L 542.875585 148.303739 
L 540.487961 149.245435 
L 537.996327 149.881957 
L 535.441598 150.202852 
L 532.86572 150.202852 
L 530.310991 149.881957 
L 527.819357 149.245435 
L 525.431733 148.303739 
L 523.187323 147.072331 
L 521.12298 145.57143 
L 519.2726 143.825682 
L 517.666566 141.863752 
L 516.33125 139.717854 
L 515.288578 137.423223 
L 514.55567 135.017539 
L 514.14456 132.540302 
L 514.061999 130.032188 
L 514.309343 127.53438 
L 514.882529 125.087893 
L 515.772147 122.732897 
L 516.963589 120.508062 
L 518.437292 118.449919 
L 520.169057 116.592263 
L 522.130448 114.965596 
L 524.289261 113.596629 
L 526.610046 112.50784 
L 529.054698 111.717106 
L 531.583074 111.237412 
L 534.153659 111.076634 
" style="fill:none;stroke:#808080;stroke-linecap:square;stroke-width:1.5;"/>
   </g>
   <g id="line2d_77"/>
   <g id="line2d_78"/>
   <g id="line2d_79"/>
   <g id="line2d_80"/>
   <g id="line2d_81"/>
   <g id="line2d_82"/>
   <g id="line2d_83"/>
   <g id="line2d_84"/>
   <g id="line2d_85"/>
   <g id="line2d_86"/>
   <g id="line2d_87"/>
   <g id="line2d_88"/>
   <g id="line2d_89"/>
   <g id="line2d_90"/>
   <g id="line2d_91"/>
   <g id="line2d_92"/>
   <g id="line2d_93"/>
   <g id="line2d_94"/>
   <g id="line2d_95"/>
   <g id="line2d_96"/>
   <g id="line2d_97"/>
   <g id="line2d_98"/>
   <g id="line2d_99"/>
   <g id="line2d_100"/>
   <g id="line2d_101"/>
   <g id="line2d_102"/>
   <g id="line2d_103"/>
   <g id="line2d_104"/>
   <g id="line2d_105"/>
   <g id="line2d_106"/>
   <g id="line2d_107"/>
   <g id="line2d_108"/>
   <g id="line2d_109"/>
   <g id="line2d_110"/>
   <g id="line2d_111"/>
   <g id="line2d_112"/>
   <g id="line2d_113"/>
   <g id="line2d_114"/>
   <g id="line2d_115"/>
   <g id="line2d_116"/>
   <g id="line2d_117"/>
   <g id="line2d_118"/>
   <g id="line2d_119"/>
   <g id="line2d_120"/>
   <g id="line2d_121"/>
   <g id="line2d_122"/>
   <g id="line2d_123"/>
   <g id="line2d_124"/>
   <g id="line2d_125"/>
   <g id="line2d_126"/>
   <g id="line2d_127"/>
   <g id="patch_3">
    <path d="M 90 630 
L 90 86.4 
" style="fill:none;stroke:#000000;stroke-linecap:square;stroke-linejoin:miter;stroke-width:0.8;"/>
   </g>
   <g id="patch_4">
    <path d="M 648 630 
L 648 86.4 
" style="fill:none;stroke:#000000;stroke-linecap:square;stroke-linejoin:miter;stroke-width:0.8;"/>
   </g>
   <g id="patch_5">
    <path d="M 90 630 
L 648 630 
" style="fill:none;stroke:#000000;stroke-linecap:square;stroke-linejoin:miter;stroke-width:0.8;"/>
   </g>
   <g id="patch_6">
    <path d="M 90 86.4 
L 648 86.4 
" style="fill:none;stroke:#000000;stroke-linecap:square;stroke-linejoin:miter;stroke-width:0.8;"/>
   </g>
   <g id="text_19">
    <!-- 0 -->
    <g transform="translate(43.441917 414.246889)scale(0.1 -0.1)">
     <use xlink:href="#DejaVuSans-30"/>
    </g>
   </g>
   <g id="text_20">
    <!-- 0 -->
    <g transform="translate(43.441917 394.663662)scale(0.1 -0.1)">
     <use xlink:href="#DejaVuSans-30"/>
    </g>
   </g>
   <g id="text_21">
    <!-- 0 -->
    <g transform="translate(43.441917 375.080435)scale(0.1 -0.1)">
     <use xlink:href="#DejaVuSans-30"/>
    </g>
   </g>
  </g>
 </g>
 <defs>
  <clipPath id="p1d6a6e2bdf">
   <rect height="543.6" width="558" x="90" y="86.4"/>
  </clipPath>
 </defs>
</svg>
