<?xml version="1.0" encoding="utf-8" standalone="no"?>
<!DOCTYPE svg PUBLIC "-//W3C//DTD SVG 1.1//EN"
  "http://www.w3.org/Graphics/SVG/1.1/DTD/svg11.dtd">
<svg height="720pt" version="1.1" viewBox="0 0 720 720" width="720pt" xmlns="http://www.w3.org/2000/svg" xmlns:xlink="http://www.w3.org/1999/xlink">
 <metadata>
  <rdf:RDF xmlns:cc="http://creativecommons.org/ns#" xmlns:dc="http://purl.org/dc/elements/1.1/" xmlns:rdf="http://www.w3.org/1999/02/22-rdf-syntax-ns#">
   <cc:Work>
    <dc:type rdf:resource="http://purl.org/dc/dcmitype/StillImage"/>
    <dc:date>2022-01-11T13:26:04.626099</dc:date>
    <dc:format>image/svg+xml</dc:format>
    <dc:creator>
     <cc:Agent>
      <dc:title>Matplotlib v3.4.3, https://matplotlib.org/</dc:title>
     </cc:Agent>
    </dc:creator>
   </cc:Work>
  </rdf:RDF>
 </metadata>
 <defs>
  <style type="text/css">*{stroke-linecap:butt;stroke-linejoin:round;}</style>
 </defs>
 <g id="figure_1">
  <g id="patch_1">
   <path d="M 0 720 
L 720 720 
L 720 0 
L 0 0 
z
" style="fill:none;"/>
  </g>
  <g id="axes_1">
   <g id="patch_2">
    <path d="M 90 630 
L 648 630 
L 648 86.4 
L 90 86.4 
z
" style="fill:#ffffff;"/>
   </g>
   <g id="PathCollection_1">
    <defs>
     <path d="M 0.972304 -8.870829 
Q -1.277159 -8.870829 -2.413438 -6.653699 
Q -3.545098 -4.441189 -3.545098 0.006929 
Q -3.545098 4.436569 -2.413438 6.653699 
Q -1.277159 8.870829 0.972304 8.870829 
Q 3.240243 8.870829 4.371903 6.653699 
Q 5.508182 4.436569 5.508182 0.006929 
Q 5.508182 -4.441189 4.371903 -6.653699 
Q 3.240243 -8.870829 0.972304 -8.870829 
z
M 0.972304 -11.18034 
Q 4.598235 -11.18034 6.51051 -8.311928 
Q 8.422784 -5.448135 8.422784 0.006929 
Q 8.422784 5.448135 6.51051 8.316547 
Q 4.598235 11.18034 0.972304 11.18034 
Q -2.649008 11.18034 -4.561283 8.316547 
Q -6.473558 5.448135 -6.473558 0.006929 
Q -6.473558 -5.448135 -4.561283 -8.311928 
Q -2.649008 -11.18034 0.972304 -11.18034 
z
" id="me1ec00fbe2" style="stroke:#808080;"/>
    </defs>
    <g clip-path="url(#p5a884ec284)">
     <use style="fill:#808080;stroke:#808080;" x="349.505479" xlink:href="#me1ec00fbe2" y="105.613066"/>
    </g>
   </g>
   <g id="PathCollection_2">
    <defs>
     <path d="M -4.535873 8.63565 
L 0.404946 8.63565 
L 0.404946 -8.424791 
L -4.971969 -7.346533 
L -4.971969 -10.102082 
L 0.376192 -11.18034 
L 3.400108 -11.18034 
L 3.400108 8.63565 
L 8.340927 8.63565 
L 8.340927 11.18034 
L -4.535873 11.18034 
L -4.535873 8.63565 
z
" id="mb392328c68" style="stroke:#808080;"/>
    </defs>
    <g clip-path="url(#p5a884ec284)">
     <use style="fill:#808080;stroke:#808080;" x="293.693941" xlink:href="#mb392328c68" y="258.526905"/>
    </g>
   </g>
   <g id="PathCollection_3">
    <defs>
     <path d="M -2.294912 8.680651 
L 8.075736 8.680651 
L 8.075736 11.18034 
L -5.867913 11.18034 
L -5.867913 8.680651 
Q -4.177916 6.929457 -1.259259 3.982555 
Q 1.664105 1.030945 2.4126 0.174178 
Q 3.838976 -1.426376 4.403877 -2.537349 
Q 4.973486 -3.648321 4.973486 -4.721634 
Q 4.973486 -6.472828 3.744825 -7.574386 
Q 2.516165 -8.680651 0.543718 -8.680651 
Q -0.854413 -8.680651 -2.407892 -8.195778 
Q -3.956663 -7.710904 -5.72198 -6.722326 
L -5.72198 -9.725719 
Q -3.928418 -10.445968 -2.370232 -10.813154 
Q -0.807338 -11.18034 0.487227 -11.18034 
Q 3.900173 -11.18034 5.929111 -9.471513 
Q 7.958048 -7.767394 7.958048 -4.914642 
Q 7.958048 -3.558879 7.449637 -2.344341 
Q 6.945933 -1.13451 5.604292 0.513119 
Q 5.237107 0.941502 3.264659 2.979855 
Q 1.296919 5.018207 -2.294912 8.680651 
z
" id="me13313070a" style="stroke:#808080;"/>
    </defs>
    <g clip-path="url(#p5a884ec284)">
     <use style="fill:#808080;stroke:#808080;" x="275.777378" xlink:href="#me13313070a" y="445.183867"/>
    </g>
   </g>
   <g id="PathCollection_4">
    <defs>
     <path d="M 3.77605 -0.861447 
Q 5.868466 -0.413402 7.041697 1.004637 
Q 8.219548 2.418057 8.219548 4.496617 
Q 8.219548 7.683741 6.025513 9.43435 
Q 3.831478 11.18034 -0.210165 11.18034 
Q -1.563539 11.18034 -3.000054 10.912437 
Q -4.436569 10.644533 -5.965465 10.108727 
L -5.965465 7.295743 
Q -4.755282 8.002454 -3.314147 8.362737 
Q -1.868394 8.723021 -0.293308 8.723021 
Q 2.445772 8.723021 3.882287 7.64217 
Q 5.318802 6.561319 5.318802 4.496617 
Q 5.318802 2.588961 3.983905 1.517348 
Q 2.649008 0.441116 0.270213 0.441116 
L -2.242535 0.441116 
L -2.242535 -1.956155 
L 0.385688 -1.956155 
Q 2.533533 -1.956155 3.674431 -2.815293 
Q 4.815329 -3.674431 4.815329 -5.291088 
Q 4.815329 -6.949317 3.637479 -7.836169 
Q 2.464248 -8.72764 0.270213 -8.72764 
Q -0.930733 -8.72764 -2.302582 -8.464356 
Q -3.674431 -8.20569 -5.318802 -7.660646 
L -5.318802 -10.256536 
Q -3.655955 -10.718438 -2.205582 -10.949389 
Q -0.75521 -11.18034 0.528878 -11.18034 
Q 3.849954 -11.18034 5.780705 -9.66992 
Q 7.716074 -8.164119 7.716074 -5.595944 
Q 7.716074 -3.803764 6.690652 -2.570485 
Q 5.665229 -1.337207 3.77605 -0.861447 
z
" id="mdf8e5774c1" style="stroke:#808080;"/>
    </defs>
    <g clip-path="url(#p5a884ec284)">
     <use style="fill:#808080;stroke:#808080;" x="443.998181" xlink:href="#mdf8e5774c1" y="442.076106"/>
    </g>
   </g>
   <g id="PathCollection_5">
    <defs>
     <path d="M 2.695646 -8.544598 
L -4.943215 3.392919 
L 2.695646 3.392919 
L 2.695646 -8.544598 
z
M 1.900131 -11.18034 
L 5.705184 -11.18034 
L 5.705184 3.392919 
L 8.896829 3.392919 
L 8.896829 5.908855 
L 5.705184 5.908855 
L 5.705184 11.18034 
L 2.695646 11.18034 
L 2.695646 5.908855 
L -7.396852 5.908855 
L -7.396852 2.99037 
L 1.900131 -11.18034 
z
" id="m3737ca64fc" style="stroke:#808080;"/>
    </defs>
    <g clip-path="url(#p5a884ec284)">
     <use style="fill:#808080;stroke:#808080;" x="450.059734" xlink:href="#m3737ca64fc" y="561.338757"/>
    </g>
   </g>
   <g id="PathCollection_6">
    <defs>
     <path d="M -5.008473 -11.18034 
L 6.639575 -11.18034 
L 6.639575 -8.679629 
L -2.291535 -8.679629 
L -2.291535 -3.306861 
Q -1.647555 -3.527789 -1.003575 -3.635902 
Q -0.354894 -3.744015 0.293787 -3.744015 
Q 3.964943 -3.744015 6.108409 -1.732165 
Q 8.256576 0.279685 8.256576 3.715812 
Q 8.256576 7.255352 6.052002 9.220196 
Q 3.847428 11.18034 -0.16217 11.18034 
Q -1.544142 11.18034 -2.97782 10.945311 
Q -4.406798 10.710281 -5.934488 10.240223 
L -5.934488 7.255352 
Q -4.613624 7.974541 -3.203448 8.327085 
Q -1.793273 8.679629 -0.223278 8.679629 
Q 2.319738 8.679629 3.800422 7.344663 
Q 5.285807 6.009697 5.285807 3.715812 
Q 5.285807 1.426627 3.800422 0.091661 
Q 2.319738 -1.248005 -0.223278 -1.248005 
Q -1.412526 -1.248005 -2.597073 -0.984772 
Q -3.77692 -0.72154 -5.008473 -0.16217 
L -5.008473 -11.18034 
z
" id="m15d8556307" style="stroke:#808080;"/>
    </defs>
    <g clip-path="url(#p5a884ec284)">
     <use style="fill:#808080;stroke:#808080;" x="544.840262" xlink:href="#m15d8556307" y="595.794485"/>
    </g>
   </g>
   <g id="PathCollection_7">
    <defs>
     <path d="M 1.286397 -1.175541 
Q -0.676687 -1.175541 -1.826823 0.168594 
Q -2.97234 1.50811 -2.97234 3.845335 
Q -2.97234 6.168702 -1.826823 7.522075 
Q -0.676687 8.870829 1.286397 8.870829 
Q 3.249481 8.870829 4.394998 7.522075 
Q 5.540515 6.168702 5.540515 3.845335 
Q 5.540515 1.50811 4.394998 0.168594 
Q 3.249481 -1.175541 1.286397 -1.175541 
z
M 7.07403 -10.316583 
L 7.07403 -7.660646 
Q 5.974703 -8.177976 4.8569 -8.450499 
Q 3.739097 -8.72764 2.63977 -8.72764 
Q -0.247118 -8.72764 -1.771394 -6.778413 
Q -3.291052 -4.829186 -3.508146 -0.889162 
Q -2.658246 -2.145535 -1.374159 -2.815293 
Q -0.085452 -3.485051 1.457301 -3.485051 
Q 4.704473 -3.485051 6.589033 -1.512729 
Q 8.473594 0.454974 8.473594 3.845335 
Q 8.473594 7.166411 6.51051 9.175685 
Q 4.547426 11.18034 1.286397 11.18034 
Q -2.45501 11.18034 -4.43195 8.316547 
Q -6.408891 5.448135 -6.408891 0.006929 
Q -6.408891 -5.101708 -3.983905 -8.141024 
Q -1.55892 -11.18034 2.524295 -11.18034 
Q 3.623622 -11.18034 4.741425 -10.963246 
Q 5.859228 -10.746152 7.07403 -10.316583 
z
" id="mba290c2651" style="stroke:#808080;"/>
    </defs>
    <g clip-path="url(#p5a884ec284)">
     <use style="fill:#808080;stroke:#808080;" x="544.840262" xlink:href="#mba290c2651" y="595.794485"/>
    </g>
   </g>
   <g id="PathCollection_8">
    <defs>
     <path d="M -5.93042 -11.18034 
L 8.446356 -11.18034 
L 8.446356 -9.891222 
L 0.32827 11.18034 
L -2.829829 11.18034 
L 4.809032 -8.630858 
L -5.93042 -8.630858 
L -5.93042 -11.18034 
z
" id="m3a6a6103d8" style="stroke:#808080;"/>
    </defs>
    <g clip-path="url(#p5a884ec284)">
     <use style="fill:#808080;stroke:#808080;" x="574.844237" xlink:href="#m3a6a6103d8" y="459.87943"/>
    </g>
   </g>
   <g id="PathCollection_9">
    <defs>
     <path d="M 1.002328 0.524259 
Q -1.076232 0.524259 -2.267939 1.637443 
Q -3.455028 2.750627 -3.455028 4.695235 
Q -3.455028 6.644461 -2.267939 7.757645 
Q -1.076232 8.870829 1.002328 8.870829 
Q 3.080887 8.870829 4.277213 7.753026 
Q 5.478159 6.630604 5.478159 4.695235 
Q 5.478159 2.750627 4.286451 1.637443 
Q 3.099363 0.524259 1.002328 0.524259 
z
M -1.912275 -0.713639 
Q -3.787597 -1.175541 -4.836115 -2.459629 
Q -5.880014 -3.748335 -5.880014 -5.595944 
Q -5.880014 -8.177976 -4.041643 -9.679158 
Q -2.198654 -11.18034 1.002328 -11.18034 
Q 4.221785 -11.18034 6.055536 -9.679158 
Q 7.889288 -8.177976 7.889288 -5.595944 
Q 7.889288 -3.748335 6.84077 -2.459629 
Q 5.796871 -1.175541 3.935406 -0.713639 
Q 6.041679 -0.224023 7.214911 1.207874 
Q 8.392761 2.635151 8.392761 4.695235 
Q 8.392761 7.83155 6.480486 9.508254 
Q 4.568212 11.18034 1.002328 11.18034 
Q -2.558938 11.18034 -4.475831 9.508254 
Q -6.388106 7.83155 -6.388106 4.695235 
Q -6.388106 2.635151 -5.205636 1.207874 
Q -4.018548 -0.224023 -1.912275 -0.713639 
z
M -2.979268 -5.318802 
Q -2.979268 -3.646717 -1.93537 -2.709056 
Q -0.886852 -1.771394 1.002328 -1.771394 
Q 2.882269 -1.771394 3.940025 -2.709056 
Q 5.0024 -3.646717 5.0024 -5.318802 
Q 5.0024 -6.995507 3.940025 -7.933168 
Q 2.882269 -8.870829 1.002328 -8.870829 
Q -0.886852 -8.870829 -1.93537 -7.933168 
Q -2.979268 -6.995507 -2.979268 -5.318802 
z
" id="m2c0f2e94f0" style="stroke:#808080;"/>
    </defs>
    <g clip-path="url(#p5a884ec284)">
     <use style="fill:#808080;stroke:#808080;" x="532.41789" xlink:href="#m2c0f2e94f0" y="319.602358"/>
    </g>
   </g>
   <g id="PathCollection_10">
    <defs>
     <path d="M -5.117875 10.311964 
L -5.117875 7.656027 
Q -4.018548 8.177976 -2.896126 8.450499 
Q -1.769085 8.723021 -0.683615 8.723021 
Q 2.203273 8.723021 3.722931 6.783032 
Q 5.247208 4.843043 5.464302 0.884542 
Q 4.628259 2.127059 3.339552 2.792198 
Q 2.055464 3.457337 0.498854 3.457337 
Q -2.73446 3.457337 -4.619021 1.503491 
Q -6.503581 -0.454974 -6.503581 -3.849954 
Q -6.503581 -7.166411 -4.540497 -9.171066 
Q -2.577414 -11.18034 0.683615 -11.18034 
Q 4.425022 -11.18034 6.392725 -8.311928 
Q 8.365047 -5.448135 8.365047 0.006929 
Q 8.365047 5.101708 5.94468 8.141024 
Q 3.528932 11.18034 -0.554282 11.18034 
Q -1.653609 11.18034 -2.780651 10.963246 
Q -3.903073 10.746152 -5.117875 10.311964 
z
M 0.683615 1.175541 
Q 2.646699 1.175541 3.792216 -0.163975 
Q 4.942352 -1.50811 4.942352 -3.849954 
Q 4.942352 -6.173321 3.792216 -7.522075 
Q 2.646699 -8.870829 0.683615 -8.870829 
Q -1.279469 -8.870829 -2.424986 -7.522075 
Q -3.570503 -6.173321 -3.570503 -3.849954 
Q -3.570503 -1.50811 -2.424986 -0.163975 
Q -1.279469 1.175541 0.683615 1.175541 
z
" id="m47d04e7edf" style="stroke:#808080;"/>
    </defs>
    <g clip-path="url(#p5a884ec284)">
     <use style="fill:#808080;stroke:#808080;" x="478.203246" xlink:href="#m47d04e7edf" y="184.082064"/>
    </g>
   </g>
   <g id="PathCollection_11">
    <defs>
     <path d="M -8.880215 5.210045 
L -5.893528 5.210045 
L -5.893528 -5.10286 
L -9.143831 -4.451061 
L -9.143831 -6.116769 
L -5.910909 -6.768568 
L -4.082976 -6.768568 
L -4.082976 5.210045 
L -1.096289 5.210045 
L -1.096289 6.74829 
L -8.880215 6.74829 
L -8.880215 5.210045 
z
M 6.507667 -5.563464 
Q 5.096885 -5.563464 4.384252 -4.17296 
Q 3.674515 -2.785353 3.674515 0.004345 
Q 3.674515 2.782456 4.384252 4.17296 
Q 5.096885 5.563464 6.507667 5.563464 
Q 7.930037 5.563464 8.639773 4.17296 
Q 9.352407 2.782456 9.352407 0.004345 
Q 9.352407 -2.785353 8.639773 -4.17296 
Q 7.930037 -5.563464 6.507667 -5.563464 
z
M 6.507667 -7.011906 
Q 8.781721 -7.011906 9.98103 -5.212941 
Q 11.18034 -3.416874 11.18034 0.004345 
Q 11.18034 3.416874 9.98103 5.215838 
Q 8.781721 7.011906 6.507667 7.011906 
Q 4.236511 7.011906 3.037201 5.215838 
Q 1.837891 3.416874 1.837891 0.004345 
Q 1.837891 -3.416874 3.037201 -5.212941 
Q 4.236511 -7.011906 6.507667 -7.011906 
z
" id="med60fb1299" style="stroke:#808080;"/>
    </defs>
    <g clip-path="url(#p5a884ec284)">
     <use style="fill:#808080;stroke:#808080;" x="478.203246" xlink:href="#med60fb1299" y="184.082064"/>
    </g>
   </g>
   <g id="PathCollection_12"/>
   <g id="PathCollection_13"/>
   <g id="PathCollection_14"/>
   <g id="PathCollection_15"/>
   <g id="PathCollection_16"/>
   <g id="matplotlib.axis_1">
    <g id="xtick_1">
     <g id="line2d_1">
      <defs>
       <path d="M 0 0 
L 0 3.5 
" id="mace6ab8fe9" style="stroke:#000000;stroke-width:0.8;"/>
      </defs>
      <g>
       <use style="stroke:#000000;stroke-width:0.8;" x="109.491692" xlink:href="#mace6ab8fe9" y="630"/>
      </g>
     </g>
     <g id="text_1">
      <!-- −400 -->
      <g transform="translate(95.758098 644.598438)scale(0.1 -0.1)">
       <defs>
        <path d="M 678 2272 
L 4684 2272 
L 4684 1741 
L 678 1741 
L 678 2272 
z
" id="DejaVuSans-2212" transform="scale(0.015625)"/>
        <path d="M 2419 4116 
L 825 1625 
L 2419 1625 
L 2419 4116 
z
M 2253 4666 
L 3047 4666 
L 3047 1625 
L 3713 1625 
L 3713 1100 
L 3047 1100 
L 3047 0 
L 2419 0 
L 2419 1100 
L 313 1100 
L 313 1709 
L 2253 4666 
z
" id="DejaVuSans-34" transform="scale(0.015625)"/>
        <path d="M 2034 4250 
Q 1547 4250 1301 3770 
Q 1056 3291 1056 2328 
Q 1056 1369 1301 889 
Q 1547 409 2034 409 
Q 2525 409 2770 889 
Q 3016 1369 3016 2328 
Q 3016 3291 2770 3770 
Q 2525 4250 2034 4250 
z
M 2034 4750 
Q 2819 4750 3233 4129 
Q 3647 3509 3647 2328 
Q 3647 1150 3233 529 
Q 2819 -91 2034 -91 
Q 1250 -91 836 529 
Q 422 1150 422 2328 
Q 422 3509 836 4129 
Q 1250 4750 2034 4750 
z
" id="DejaVuSans-30" transform="scale(0.015625)"/>
       </defs>
       <use xlink:href="#DejaVuSans-2212"/>
       <use x="83.789062" xlink:href="#DejaVuSans-34"/>
       <use x="147.412109" xlink:href="#DejaVuSans-30"/>
       <use x="211.035156" xlink:href="#DejaVuSans-30"/>
      </g>
     </g>
    </g>
    <g id="xtick_2">
     <g id="line2d_2">
      <g>
       <use style="stroke:#000000;stroke-width:0.8;" x="172.976718" xlink:href="#mace6ab8fe9" y="630"/>
      </g>
     </g>
     <g id="text_2">
      <!-- −300 -->
      <g transform="translate(159.243124 644.598438)scale(0.1 -0.1)">
       <defs>
        <path d="M 2597 2516 
Q 3050 2419 3304 2112 
Q 3559 1806 3559 1356 
Q 3559 666 3084 287 
Q 2609 -91 1734 -91 
Q 1441 -91 1130 -33 
Q 819 25 488 141 
L 488 750 
Q 750 597 1062 519 
Q 1375 441 1716 441 
Q 2309 441 2620 675 
Q 2931 909 2931 1356 
Q 2931 1769 2642 2001 
Q 2353 2234 1838 2234 
L 1294 2234 
L 1294 2753 
L 1863 2753 
Q 2328 2753 2575 2939 
Q 2822 3125 2822 3475 
Q 2822 3834 2567 4026 
Q 2313 4219 1838 4219 
Q 1578 4219 1281 4162 
Q 984 4106 628 3988 
L 628 4550 
Q 988 4650 1302 4700 
Q 1616 4750 1894 4750 
Q 2613 4750 3031 4423 
Q 3450 4097 3450 3541 
Q 3450 3153 3228 2886 
Q 3006 2619 2597 2516 
z
" id="DejaVuSans-33" transform="scale(0.015625)"/>
       </defs>
       <use xlink:href="#DejaVuSans-2212"/>
       <use x="83.789062" xlink:href="#DejaVuSans-33"/>
       <use x="147.412109" xlink:href="#DejaVuSans-30"/>
       <use x="211.035156" xlink:href="#DejaVuSans-30"/>
      </g>
     </g>
    </g>
    <g id="xtick_3">
     <g id="line2d_3">
      <g>
       <use style="stroke:#000000;stroke-width:0.8;" x="236.461744" xlink:href="#mace6ab8fe9" y="630"/>
      </g>
     </g>
     <g id="text_3">
      <!-- −200 -->
      <g transform="translate(222.728151 644.598438)scale(0.1 -0.1)">
       <defs>
        <path d="M 1228 531 
L 3431 531 
L 3431 0 
L 469 0 
L 469 531 
Q 828 903 1448 1529 
Q 2069 2156 2228 2338 
Q 2531 2678 2651 2914 
Q 2772 3150 2772 3378 
Q 2772 3750 2511 3984 
Q 2250 4219 1831 4219 
Q 1534 4219 1204 4116 
Q 875 4013 500 3803 
L 500 4441 
Q 881 4594 1212 4672 
Q 1544 4750 1819 4750 
Q 2544 4750 2975 4387 
Q 3406 4025 3406 3419 
Q 3406 3131 3298 2873 
Q 3191 2616 2906 2266 
Q 2828 2175 2409 1742 
Q 1991 1309 1228 531 
z
" id="DejaVuSans-32" transform="scale(0.015625)"/>
       </defs>
       <use xlink:href="#DejaVuSans-2212"/>
       <use x="83.789062" xlink:href="#DejaVuSans-32"/>
       <use x="147.412109" xlink:href="#DejaVuSans-30"/>
       <use x="211.035156" xlink:href="#DejaVuSans-30"/>
      </g>
     </g>
    </g>
    <g id="xtick_4">
     <g id="line2d_4">
      <g>
       <use style="stroke:#000000;stroke-width:0.8;" x="299.946771" xlink:href="#mace6ab8fe9" y="630"/>
      </g>
     </g>
     <g id="text_4">
      <!-- −100 -->
      <g transform="translate(286.213177 644.598438)scale(0.1 -0.1)">
       <defs>
        <path d="M 794 531 
L 1825 531 
L 1825 4091 
L 703 3866 
L 703 4441 
L 1819 4666 
L 2450 4666 
L 2450 531 
L 3481 531 
L 3481 0 
L 794 0 
L 794 531 
z
" id="DejaVuSans-31" transform="scale(0.015625)"/>
       </defs>
       <use xlink:href="#DejaVuSans-2212"/>
       <use x="83.789062" xlink:href="#DejaVuSans-31"/>
       <use x="147.412109" xlink:href="#DejaVuSans-30"/>
       <use x="211.035156" xlink:href="#DejaVuSans-30"/>
      </g>
     </g>
    </g>
    <g id="xtick_5">
     <g id="line2d_5">
      <g>
       <use style="stroke:#000000;stroke-width:0.8;" x="363.431797" xlink:href="#mace6ab8fe9" y="630"/>
      </g>
     </g>
     <g id="text_5">
      <!-- 0 -->
      <g transform="translate(360.250547 644.598438)scale(0.1 -0.1)">
       <use xlink:href="#DejaVuSans-30"/>
      </g>
     </g>
    </g>
    <g id="xtick_6">
     <g id="line2d_6">
      <g>
       <use style="stroke:#000000;stroke-width:0.8;" x="426.916824" xlink:href="#mace6ab8fe9" y="630"/>
      </g>
     </g>
     <g id="text_6">
      <!-- 100 -->
      <g transform="translate(417.373074 644.598438)scale(0.1 -0.1)">
       <use xlink:href="#DejaVuSans-31"/>
       <use x="63.623047" xlink:href="#DejaVuSans-30"/>
       <use x="127.246094" xlink:href="#DejaVuSans-30"/>
      </g>
     </g>
    </g>
    <g id="xtick_7">
     <g id="line2d_7">
      <g>
       <use style="stroke:#000000;stroke-width:0.8;" x="490.40185" xlink:href="#mace6ab8fe9" y="630"/>
      </g>
     </g>
     <g id="text_7">
      <!-- 200 -->
      <g transform="translate(480.8581 644.598438)scale(0.1 -0.1)">
       <use xlink:href="#DejaVuSans-32"/>
       <use x="63.623047" xlink:href="#DejaVuSans-30"/>
       <use x="127.246094" xlink:href="#DejaVuSans-30"/>
      </g>
     </g>
    </g>
    <g id="xtick_8">
     <g id="line2d_8">
      <g>
       <use style="stroke:#000000;stroke-width:0.8;" x="553.886876" xlink:href="#mace6ab8fe9" y="630"/>
      </g>
     </g>
     <g id="text_8">
      <!-- 300 -->
      <g transform="translate(544.343126 644.598438)scale(0.1 -0.1)">
       <use xlink:href="#DejaVuSans-33"/>
       <use x="63.623047" xlink:href="#DejaVuSans-30"/>
       <use x="127.246094" xlink:href="#DejaVuSans-30"/>
      </g>
     </g>
    </g>
    <g id="xtick_9">
     <g id="line2d_9">
      <g>
       <use style="stroke:#000000;stroke-width:0.8;" x="617.371903" xlink:href="#mace6ab8fe9" y="630"/>
      </g>
     </g>
     <g id="text_9">
      <!-- 400 -->
      <g transform="translate(607.828153 644.598438)scale(0.1 -0.1)">
       <use xlink:href="#DejaVuSans-34"/>
       <use x="63.623047" xlink:href="#DejaVuSans-30"/>
       <use x="127.246094" xlink:href="#DejaVuSans-30"/>
      </g>
     </g>
    </g>
   </g>
   <g id="matplotlib.axis_2">
    <g id="ytick_1">
     <g id="line2d_10">
      <defs>
       <path d="M 0 0 
L -3.5 0 
" id="mbe8f31f838" style="stroke:#000000;stroke-width:0.8;"/>
      </defs>
      <g>
       <use style="stroke:#000000;stroke-width:0.8;" x="90" xlink:href="#mbe8f31f838" y="611.01132"/>
      </g>
     </g>
     <g id="text_10">
      <!-- −400 -->
      <g transform="translate(55.532812 614.810538)scale(0.1 -0.1)">
       <use xlink:href="#DejaVuSans-2212"/>
       <use x="83.789062" xlink:href="#DejaVuSans-34"/>
       <use x="147.412109" xlink:href="#DejaVuSans-30"/>
       <use x="211.035156" xlink:href="#DejaVuSans-30"/>
      </g>
     </g>
    </g>
    <g id="ytick_2">
     <g id="line2d_11">
      <g>
       <use style="stroke:#000000;stroke-width:0.8;" x="90" xlink:href="#mbe8f31f838" y="549.164617"/>
      </g>
     </g>
     <g id="text_11">
      <!-- −300 -->
      <g transform="translate(55.532812 552.963835)scale(0.1 -0.1)">
       <use xlink:href="#DejaVuSans-2212"/>
       <use x="83.789062" xlink:href="#DejaVuSans-33"/>
       <use x="147.412109" xlink:href="#DejaVuSans-30"/>
       <use x="211.035156" xlink:href="#DejaVuSans-30"/>
      </g>
     </g>
    </g>
    <g id="ytick_3">
     <g id="line2d_12">
      <g>
       <use style="stroke:#000000;stroke-width:0.8;" x="90" xlink:href="#mbe8f31f838" y="487.317913"/>
      </g>
     </g>
     <g id="text_12">
      <!-- −200 -->
      <g transform="translate(55.532812 491.117132)scale(0.1 -0.1)">
       <use xlink:href="#DejaVuSans-2212"/>
       <use x="83.789062" xlink:href="#DejaVuSans-32"/>
       <use x="147.412109" xlink:href="#DejaVuSans-30"/>
       <use x="211.035156" xlink:href="#DejaVuSans-30"/>
      </g>
     </g>
    </g>
    <g id="ytick_4">
     <g id="line2d_13">
      <g>
       <use style="stroke:#000000;stroke-width:0.8;" x="90" xlink:href="#mbe8f31f838" y="425.47121"/>
      </g>
     </g>
     <g id="text_13">
      <!-- −100 -->
      <g transform="translate(55.532812 429.270429)scale(0.1 -0.1)">
       <use xlink:href="#DejaVuSans-2212"/>
       <use x="83.789062" xlink:href="#DejaVuSans-31"/>
       <use x="147.412109" xlink:href="#DejaVuSans-30"/>
       <use x="211.035156" xlink:href="#DejaVuSans-30"/>
      </g>
     </g>
    </g>
    <g id="ytick_5">
     <g id="line2d_14">
      <g>
       <use style="stroke:#000000;stroke-width:0.8;" x="90" xlink:href="#mbe8f31f838" y="363.624507"/>
      </g>
     </g>
     <g id="text_14">
      <!-- 0 -->
      <g transform="translate(76.6375 367.423726)scale(0.1 -0.1)">
       <use xlink:href="#DejaVuSans-30"/>
      </g>
     </g>
    </g>
    <g id="ytick_6">
     <g id="line2d_15">
      <g>
       <use style="stroke:#000000;stroke-width:0.8;" x="90" xlink:href="#mbe8f31f838" y="301.777804"/>
      </g>
     </g>
     <g id="text_15">
      <!-- 100 -->
      <g transform="translate(63.9125 305.577023)scale(0.1 -0.1)">
       <use xlink:href="#DejaVuSans-31"/>
       <use x="63.623047" xlink:href="#DejaVuSans-30"/>
       <use x="127.246094" xlink:href="#DejaVuSans-30"/>
      </g>
     </g>
    </g>
    <g id="ytick_7">
     <g id="line2d_16">
      <g>
       <use style="stroke:#000000;stroke-width:0.8;" x="90" xlink:href="#mbe8f31f838" y="239.931101"/>
      </g>
     </g>
     <g id="text_16">
      <!-- 200 -->
      <g transform="translate(63.9125 243.73032)scale(0.1 -0.1)">
       <use xlink:href="#DejaVuSans-32"/>
       <use x="63.623047" xlink:href="#DejaVuSans-30"/>
       <use x="127.246094" xlink:href="#DejaVuSans-30"/>
      </g>
     </g>
    </g>
    <g id="ytick_8">
     <g id="line2d_17">
      <g>
       <use style="stroke:#000000;stroke-width:0.8;" x="90" xlink:href="#mbe8f31f838" y="178.084398"/>
      </g>
     </g>
     <g id="text_17">
      <!-- 300 -->
      <g transform="translate(63.9125 181.883617)scale(0.1 -0.1)">
       <use xlink:href="#DejaVuSans-33"/>
       <use x="63.623047" xlink:href="#DejaVuSans-30"/>
       <use x="127.246094" xlink:href="#DejaVuSans-30"/>
      </g>
     </g>
    </g>
    <g id="ytick_9">
     <g id="line2d_18">
      <g>
       <use style="stroke:#000000;stroke-width:0.8;" x="90" xlink:href="#mbe8f31f838" y="116.237695"/>
      </g>
     </g>
     <g id="text_18">
      <!-- 400 -->
      <g transform="translate(63.9125 120.036913)scale(0.1 -0.1)">
       <use xlink:href="#DejaVuSans-34"/>
       <use x="63.623047" xlink:href="#DejaVuSans-30"/>
       <use x="127.246094" xlink:href="#DejaVuSans-30"/>
      </g>
     </g>
    </g>
   </g>
   <g id="line2d_19">
    <path clip-path="url(#p5a884ec284)" d="M 478.203246 184.082064 
L 477.375241 181.017418 
L 476.470502 177.973442 
L 475.486572 174.952889 
L 474.421229 171.958671 
L 473.272533 168.993846 
L 472.038867 166.061587 
L 470.718981 163.165156 
L 469.312018 160.307866 
L 467.817538 157.493037 
L 466.235529 154.723952 
L 464.566407 152.003817 
L 462.811001 149.335717 
L 460.970533 146.72258 
L 459.046584 144.167152 
L 457.041058 141.671968 
L 454.956134 139.239348 
L 452.794221 136.871384 
L 450.557911 134.569944 
L 448.24993 132.336684 
L 445.873098 130.173063 
L 443.430289 128.080358 
L 440.924395 126.059693 
L 438.358298 124.112062 
L 435.734848 122.238356 
L 433.056843 120.439388 
L 430.327013 118.715926 
L 427.548017 117.068715 
L 424.722436 115.498507 
L 421.852769 114.006084 
L 418.941443 112.592287 
L 415.990812 111.258034 
L 413.00317 110.004352 
L 409.980759 108.832396 
L 406.925788 107.743475 
L 403.840445 106.739081 
L 400.726921 105.820908 
L 397.587429 104.990888 
L 394.424235 104.251218 
L 391.239689 103.604394 
L 388.036262 103.053248 
L 384.816592 102.600992 
L 381.583539 102.25126 
L 378.340251 102.008163 
L 375.090249 101.876348 
L 371.837528 101.861056 
L 368.586683 101.968194 
L 365.343075 102.204409 
L 362.113036 102.577152 
L 358.904122 103.094739 
L 355.725444 103.766387 
L 352.588063 104.6022 
L 349.505479 105.613066 
" style="fill:none;stroke:#808080;stroke-linecap:square;stroke-width:1.5;"/>
   </g>
   <g id="line2d_20">
    <path clip-path="url(#p5a884ec284)" d="M 349.505479 184.082064 
L 349.505479 101.861056 
L 478.203246 101.861056 
L 478.203246 184.082064 
L 349.505479 184.082064 
" style="fill:none;stroke:#d3d3d3;stroke-linecap:square;stroke-width:0.5;"/>
   </g>
   <g id="line2d_21">
    <path clip-path="url(#p5a884ec284)" d="M 349.505479 105.613066 
L 346.510035 106.738219 
L 343.545403 107.938226 
L 340.61396 109.213175 
L 337.718162 110.563128 
L 334.860542 111.988111 
L 332.043712 113.488109 
L 329.270371 115.063061 
L 326.543301 116.712842 
L 323.865368 118.437259 
L 321.239522 120.236034 
L 318.668788 122.108793 
L 316.156266 124.055048 
L 313.705115 126.074184 
L 311.318545 128.165441 
L 308.999801 130.327901 
L 306.752142 132.560465 
L 304.578822 134.861848 
L 302.483061 137.230555 
L 300.468019 139.664881 
L 298.536764 142.162894 
L 296.692238 144.722433 
L 294.93722 147.341111 
L 293.274295 150.016317 
L 291.705815 152.745226 
L 290.23387 155.524811 
L 288.860252 158.35187 
L 287.586436 161.223045 
L 286.413553 164.134852 
L 285.342382 167.083717 
L 284.373335 170.066005 
L 283.506461 173.078063 
L 282.74145 176.116247 
L 282.077645 179.176968 
L 281.51406 182.256716 
L 281.049405 185.352092 
L 280.682114 188.459836 
L 280.410371 191.576846 
L 280.232147 194.700197 
L 280.14523 197.827151 
L 280.147261 200.955167 
L 280.235762 204.081905 
L 280.40817 207.205224 
L 280.661859 210.323183 
L 280.994174 213.43403 
L 281.402444 216.5362 
L 281.88401 219.628302 
L 282.436236 222.709108 
L 283.056527 225.777545 
L 283.742336 228.832683 
L 284.491181 231.87372 
L 285.300645 234.899973 
L 286.168383 237.910869 
L 287.09213 240.90593 
L 288.069698 243.884766 
L 289.09898 246.847065 
L 290.177952 249.792583 
L 291.304667 252.72114 
L 292.477259 255.632607 
L 293.693941 258.526905 
" style="fill:none;stroke:#808080;stroke-linecap:square;stroke-width:1.5;"/>
   </g>
   <g id="line2d_22">
    <path clip-path="url(#p5a884ec284)" d="M 280.14523 258.526905 
L 280.14523 105.613066 
L 349.505479 105.613066 
L 349.505479 258.526905 
L 280.14523 258.526905 
" style="fill:none;stroke:#d3d3d3;stroke-linecap:square;stroke-width:0.5;"/>
   </g>
   <g id="line2d_23">
    <path clip-path="url(#p5a884ec284)" d="M 293.693941 258.526905 
L 294.897721 261.430358 
L 296.027313 264.362192 
L 297.078963 267.321561 
L 298.049108 270.307316 
L 298.934461 273.317999 
L 299.732096 276.351848 
L 300.439536 279.406816 
L 301.054824 282.480606 
L 301.576592 285.570706 
L 302.004103 288.674454 
L 302.337275 291.789088 
L 302.576685 294.911823 
L 302.723545 298.039908 
L 302.779661 301.170694 
L 302.747371 304.301684 
L 302.629472 307.430582 
L 302.429143 310.555323 
L 302.149854 313.674094 
L 301.795287 316.785347 
L 301.369261 319.8878 
L 300.87566 322.980422 
L 300.318373 326.062429 
L 299.701247 329.133255 
L 299.028045 332.192538 
L 298.302415 335.240094 
L 297.527872 338.275896 
L 296.707783 341.300048 
L 295.845354 344.31277 
L 294.943637 347.314376 
L 294.00552 350.305258 
L 293.03374 353.285872 
L 292.030889 356.256725 
L 290.999418 359.218365 
L 289.941651 362.171375 
L 288.859797 365.11636 
L 287.755958 368.05395 
L 286.632143 370.984791 
L 285.490284 373.909545 
L 284.332244 376.828889 
L 283.159834 379.743516 
L 281.974827 382.654134 
L 280.778976 385.561473 
L 279.574026 388.466283 
L 278.361743 391.36934 
L 277.143927 394.271455 
L 275.92245 397.173469 
L 274.699281 400.07627 
L 273.476536 402.980786 
L 272.256529 405.887996 
L 271.041843 408.798926 
L 269.835431 411.714648 
L 268.640743 414.636263 
L 267.461913 417.564882 
L 266.304015 420.501575 
L 265.173451 423.447298 
L 264.078514 426.40277 
L 263.030272 429.368283 
L 262.043979 432.343453 
L 261.141462 435.326998 
L 260.355514 438.317065 
L 259.739303 441.314464 
L 259.39402 444.33824 
L 259.601968 447.446982 
L 261.287162 450.091297 
L 264.318183 450.569883 
L 267.379226 449.752922 
L 270.288979 448.439515 
L 273.077739 446.88352 
L 275.777378 445.183867 
" style="fill:none;stroke:#808080;stroke-linecap:square;stroke-width:1.5;"/>
   </g>
   <g id="line2d_24">
    <path clip-path="url(#p5a884ec284)" d="M 259.39402 450.569883 
L 259.39402 258.526905 
L 302.779661 258.526905 
L 302.779661 450.569883 
L 259.39402 450.569883 
" style="fill:none;stroke:#d3d3d3;stroke-linecap:square;stroke-width:0.5;"/>
   </g>
   <g id="line2d_25">
    <path clip-path="url(#p5a884ec284)" d="M 275.777378 445.183867 
L 278.462136 443.443671 
L 281.173622 441.74188 
L 283.911998 440.080271 
L 286.677376 438.460662 
L 289.469811 436.884904 
L 292.289294 435.354882 
L 295.135745 433.872504 
L 298.009005 432.439693 
L 300.908827 431.058378 
L 303.834874 429.730488 
L 306.78671 428.457933 
L 309.763794 427.242596 
L 312.765476 426.086317 
L 315.790995 424.990878 
L 318.839475 423.957989 
L 321.909927 422.989267 
L 325.001249 422.086225 
L 328.112229 421.250254 
L 331.241556 420.482606 
L 334.387819 419.784382 
L 337.549523 419.156516 
L 340.725101 418.599772 
L 343.912923 418.114726 
L 347.111311 417.701768 
L 350.318557 417.361098 
L 353.532935 417.092723 
L 356.752718 416.896465 
L 359.976193 416.771967 
L 363.201674 416.718697 
L 366.427514 416.735968 
L 369.652119 416.822946 
L 372.873956 416.978665 
L 376.091559 417.20205 
L 379.303536 417.491928 
L 382.508573 417.847049 
L 385.705433 418.266107 
L 388.892958 418.747755 
L 392.070065 419.290628 
L 395.235741 419.893357 
L 398.389037 420.554591 
L 401.52906 421.273018 
L 404.654964 422.047378 
L 407.765932 422.87649 
L 410.861166 423.759269 
L 413.939866 424.694758 
L 417.001202 425.682154 
L 420.044288 426.720849 
L 423.068138 427.81048 
L 426.071606 428.951001 
L 429.053306 430.142787 
L 432.011484 431.386784 
L 434.943819 432.684767 
L 437.84707 434.039768 
L 440.716433 435.456875 
L 443.54415 436.944898 
L 446.315966 438.520373 
L 448.998965 440.219981 
L 451.474808 442.179144 
L 450.23087 443.674661 
L 447.08315 442.996206 
L 443.998181 442.076106 
" style="fill:none;stroke:#808080;stroke-linecap:square;stroke-width:1.5;"/>
   </g>
   <g id="line2d_26">
    <path clip-path="url(#p5a884ec284)" d="M 275.777378 445.183867 
L 275.777378 416.718697 
L 451.474808 416.718697 
L 451.474808 445.183867 
L 275.777378 445.183867 
" style="fill:none;stroke:#d3d3d3;stroke-linecap:square;stroke-width:0.5;"/>
   </g>
   <g id="line2d_27">
    <path clip-path="url(#p5a884ec284)" d="M 443.998181 442.076106 
L 440.940909 442.489565 
L 438.883023 444.84317 
L 437.588783 447.689722 
L 436.688036 450.681634 
L 436.028295 453.735697 
L 435.536078 456.822022 
L 435.170196 459.926844 
L 434.905037 463.042754 
L 434.72348 466.165321 
L 434.613458 469.291692 
L 434.566126 472.419924 
L 434.574806 475.548632 
L 434.634336 478.676791 
L 434.740659 481.803619 
L 434.890544 484.928499 
L 435.081392 488.05093 
L 435.311107 491.170491 
L 435.577993 494.28682 
L 435.880682 497.399592 
L 436.21808 500.508509 
L 436.589327 503.613287 
L 436.993766 506.713651 
L 437.430915 509.809324 
L 437.900452 512.900023 
L 438.402202 515.985456 
L 438.936121 519.065312 
L 439.502295 522.139261 
L 440.10093 525.206945 
L 440.732352 528.267978 
L 441.397005 531.321936 
L 442.095452 534.368352 
L 442.828375 537.406713 
L 443.596583 540.436449 
L 444.401017 543.456924 
L 445.242754 546.467429 
L 446.12302 549.467169 
L 447.0432 552.455251 
L 448.004849 555.430665 
L 449.009711 558.392267 
L 450.059734 561.338757 
" style="fill:none;stroke:#808080;stroke-linecap:square;stroke-width:1.5;"/>
   </g>
   <g id="line2d_28">
    <path clip-path="url(#p5a884ec284)" d="M 434.566126 561.338757 
L 434.566126 442.076106 
L 450.059734 442.076106 
L 450.059734 561.338757 
L 434.566126 561.338757 
" style="fill:none;stroke:#d3d3d3;stroke-linecap:square;stroke-width:0.5;"/>
   </g>
   <g id="line2d_29">
    <path clip-path="url(#p5a884ec284)" d="M 450.059734 561.338757 
L 451.157092 564.268648 
L 452.304207 567.18024 
L 453.503778 570.071571 
L 454.758808 572.940374 
L 456.072637 575.784016 
L 457.44898 578.599423 
L 458.891959 581.382991 
L 460.406146 584.130476 
L 461.996591 586.836852 
L 463.66885 589.496151 
L 465.428994 592.101253 
L 467.283583 594.643645 
L 469.239592 597.113136 
L 471.30426 599.497531 
L 473.4848 601.782301 
L 475.787955 603.950273 
L 478.219305 605.981447 
L 480.782316 607.853062 
L 483.477141 609.540124 
L 486.299312 611.016586 
L 489.238644 612.257321 
L 492.278798 613.240756 
L 495.397917 613.951665 
L 498.57048 614.38335 
L 501.769963 614.53845 
L 504.971555 614.428127 
L 508.154198 614.070012 
L 511.301578 613.485628 
L 514.402169 612.698009 
L 517.448652 611.729888 
L 520.437064 610.602554 
L 523.365933 609.335264 
L 526.235529 607.94505 
L 529.047272 606.446761 
L 531.803294 604.85324 
L 534.506128 603.175546 
L 537.158497 601.423189 
L 539.763173 599.604351 
L 542.322883 597.726084 
L 544.840262 595.794485 
" style="fill:none;stroke:#808080;stroke-linecap:square;stroke-width:1.5;"/>
   </g>
   <g id="line2d_30">
    <path clip-path="url(#p5a884ec284)" d="M 450.059734 614.53845 
L 450.059734 561.338757 
L 544.840262 561.338757 
L 544.840262 614.53845 
L 450.059734 614.53845 
" style="fill:none;stroke:#d3d3d3;stroke-linecap:square;stroke-width:0.5;"/>
   </g>
   <g id="line2d_31">
    <path clip-path="url(#p5a884ec284)" d="M 544.840262 595.794485 
" style="fill:none;stroke:#808080;stroke-linecap:square;stroke-width:1.5;"/>
   </g>
   <g id="line2d_32">
    <path clip-path="url(#p5a884ec284)" d="M 544.840262 595.794485 
L 544.840262 595.794485 
L 544.840262 595.794485 
L 544.840262 595.794485 
L 544.840262 595.794485 
" style="fill:none;stroke:#d3d3d3;stroke-linecap:square;stroke-width:0.5;"/>
   </g>
   <g id="line2d_33">
    <path clip-path="url(#p5a884ec284)" d="M 544.840262 595.794485 
L 547.290232 593.805876 
L 549.666713 591.734382 
L 551.964949 589.580742 
L 554.180411 587.346307 
L 556.308908 585.033038 
L 558.346689 582.643493 
L 560.290527 580.180781 
L 562.137805 577.648499 
L 563.886562 575.050653 
L 565.535527 572.391563 
L 567.084118 569.675763 
L 568.532428 566.907901 
L 569.881181 564.092639 
L 571.131673 561.234572 
L 572.285703 558.338154 
L 573.345493 555.407638 
L 574.313614 552.44703 
L 575.192905 549.460067 
L 575.986403 546.450193 
L 576.697275 543.420558 
L 577.328761 540.37402 
L 577.884129 537.313153 
L 578.366629 534.240263 
L 578.779466 531.157406 
L 579.125769 528.066406 
L 579.408577 524.968875 
L 579.630821 521.866235 
L 579.79532 518.759732 
L 579.904767 515.65046 
L 579.961736 512.539374 
L 579.968673 509.427308 
L 579.927906 506.314988 
L 579.841638 503.203043 
L 579.71196 500.092021 
L 579.540847 496.982393 
L 579.33017 493.874569 
L 579.081697 490.768899 
L 578.797098 487.665686 
L 578.477953 484.565188 
L 578.125754 481.467625 
L 577.741912 478.373186 
L 577.327761 475.282029 
L 576.884562 472.194288 
L 576.41351 469.110073 
L 575.915734 466.029477 
L 575.392305 462.952576 
L 574.844237 459.87943 
" style="fill:none;stroke:#808080;stroke-linecap:square;stroke-width:1.5;"/>
   </g>
   <g id="line2d_34">
    <path clip-path="url(#p5a884ec284)" d="M 544.840262 595.794485 
L 544.840262 459.87943 
L 579.968673 459.87943 
L 579.968673 595.794485 
L 544.840262 595.794485 
" style="fill:none;stroke:#d3d3d3;stroke-linecap:square;stroke-width:0.5;"/>
   </g>
   <g id="line2d_35">
    <path clip-path="url(#p5a884ec284)" d="M 574.844237 459.87943 
L 574.272491 456.810087 
L 573.677981 453.744586 
L 573.061571 450.682952 
L 572.424084 447.625207 
L 571.766303 444.571361 
L 571.08897 441.521421 
L 570.392794 438.475388 
L 569.678449 435.433258 
L 568.946577 432.395022 
L 568.19779 429.360669 
L 567.432674 426.330185 
L 566.651785 423.303554 
L 565.855659 420.280756 
L 565.044803 417.261772 
L 564.219708 414.246579 
L 563.380839 411.235154 
L 562.528645 408.227473 
L 561.663554 405.223512 
L 560.785978 402.223244 
L 559.896313 399.226643 
L 558.994938 396.233683 
L 558.082217 393.244337 
L 557.158502 390.258577 
L 556.224131 387.276378 
L 555.279429 384.29771 
L 554.324708 381.322546 
L 553.360272 378.350859 
L 552.386411 375.382621 
L 551.403407 372.417803 
L 550.411532 369.456378 
L 549.411048 366.498318 
L 548.402209 363.543593 
L 547.385262 360.592175 
L 546.360445 357.644035 
L 545.327987 354.699144 
L 544.288113 351.757472 
L 543.241039 348.818989 
L 542.186977 345.883664 
L 541.12613 342.951465 
L 540.058697 340.02236 
L 538.984872 337.096317 
L 537.904842 334.173301 
L 536.818792 331.253278 
L 535.7269 328.33621 
L 534.629339 325.42206 
L 533.526281 322.51079 
L 532.41789 319.602358 
" style="fill:none;stroke:#808080;stroke-linecap:square;stroke-width:1.5;"/>
   </g>
   <g id="line2d_36">
    <path clip-path="url(#p5a884ec284)" d="M 532.41789 459.87943 
L 532.41789 319.602358 
L 574.844237 319.602358 
L 574.844237 459.87943 
L 532.41789 459.87943 
" style="fill:none;stroke:#d3d3d3;stroke-linecap:square;stroke-width:0.5;"/>
   </g>
   <g id="line2d_37">
    <path clip-path="url(#p5a884ec284)" d="M 532.41789 319.602358 
L 531.304331 316.696722 
L 530.185761 313.793837 
L 529.062337 310.893657 
L 527.934212 307.996132 
L 526.801536 305.10121 
L 525.664457 302.208837 
L 524.52312 299.318956 
L 523.377669 296.431506 
L 522.228247 293.54642 
L 521.074994 290.663633 
L 519.918049 287.78307 
L 518.757553 284.904653 
L 517.593643 282.028302 
L 516.42646 279.153929 
L 515.256142 276.281439 
L 514.082832 273.410733 
L 512.906672 270.541705 
L 511.727808 267.674241 
L 510.54639 264.80822 
L 509.362571 261.943512 
L 508.176511 259.079977 
L 506.988378 256.217465 
L 505.798346 253.355818 
L 504.606602 250.494863 
L 503.413345 247.634415 
L 502.21879 244.774276 
L 501.023173 241.914232 
L 499.826751 239.054053 
L 498.629812 236.193489 
L 497.432679 233.33227 
L 496.235719 230.470106 
L 495.039354 227.60668 
L 493.844072 224.741644 
L 492.650451 221.874622 
L 491.459176 219.005197 
L 490.271074 216.13291 
L 489.087161 213.257249 
L 487.908696 210.377636 
L 486.737278 207.49341 
L 485.574974 204.603802 
L 484.424523 201.707889 
L 483.289671 198.804518 
L 482.175733 195.892177 
L 481.090656 192.968725 
L 480.047196 190.030829 
L 479.068212 187.072603 
L 478.203246 184.082064 
" style="fill:none;stroke:#808080;stroke-linecap:square;stroke-width:1.5;"/>
   </g>
   <g id="line2d_38">
    <path clip-path="url(#p5a884ec284)" d="M 478.203246 319.602358 
L 478.203246 184.082064 
L 532.41789 184.082064 
L 532.41789 319.602358 
L 478.203246 319.602358 
" style="fill:none;stroke:#d3d3d3;stroke-linecap:square;stroke-width:0.5;"/>
   </g>
   <g id="line2d_39">
    <path clip-path="url(#p5a884ec284)" d="M 478.203246 184.082064 
" style="fill:none;stroke:#808080;stroke-linecap:square;stroke-width:1.5;"/>
   </g>
   <g id="line2d_40">
    <path clip-path="url(#p5a884ec284)" d="M 478.203246 184.082064 
L 478.203246 184.082064 
L 478.203246 184.082064 
L 478.203246 184.082064 
L 478.203246 184.082064 
" style="fill:none;stroke:#d3d3d3;stroke-linecap:square;stroke-width:0.5;"/>
   </g>
   <g id="line2d_41">
    <path clip-path="url(#p5a884ec284)" d="M 351.713421 111.411644 
L 351.713421 111.411644 
L 351.713421 111.411644 
" style="fill:none;stroke:#000000;stroke-linecap:square;stroke-width:3;"/>
   </g>
   <g id="line2d_42">
    <path clip-path="url(#p5a884ec284)" d="M 351.713421 111.411644 
L 351.713421 111.411644 
L 351.713421 111.411644 
L 351.713421 111.411644 
L 351.713421 111.411644 
" style="fill:none;stroke:#d3d3d3;stroke-linecap:square;stroke-width:0.5;"/>
   </g>
   <g id="line2d_43">
    <path clip-path="url(#p5a884ec284)" d="M 351.713421 111.411644 
L 351.713421 111.411644 
L 351.713421 111.411644 
" style="fill:none;stroke:#000000;stroke-linecap:square;stroke-width:3;"/>
   </g>
   <g id="line2d_44">
    <path clip-path="url(#p5a884ec284)" d="M 351.713421 111.411644 
L 351.713421 111.411644 
L 351.713421 111.411644 
L 351.713421 111.411644 
L 351.713421 111.411644 
" style="fill:none;stroke:#d3d3d3;stroke-linecap:square;stroke-width:0.5;"/>
   </g>
   <g id="line2d_45">
    <path clip-path="url(#p5a884ec284)" d="M 265.696837 443.708126 
L 265.797084 446.095684 
L 264.664646 444.854512 
L 263.520619 444.434213 
L 265.075883 443.989672 
L 265.696837 443.708126 
" style="fill:none;stroke:#000000;stroke-linecap:square;stroke-width:3;"/>
   </g>
   <g id="line2d_46">
    <path clip-path="url(#p5a884ec284)" d="M 263.520619 446.095684 
L 263.520619 443.708126 
L 265.797084 443.708126 
L 265.797084 446.095684 
L 263.520619 446.095684 
" style="fill:none;stroke:#d3d3d3;stroke-linecap:square;stroke-width:0.5;"/>
   </g>
   <g id="line2d_47">
    <path clip-path="url(#p5a884ec284)" d="M 442.013304 447.950723 
L 442.013304 447.950723 
L 444.508861 447.605074 
L 444.398662 447.905487 
L 443.578311 449.739939 
L 443.94258 448.525639 
" style="fill:none;stroke:#000000;stroke-linecap:square;stroke-width:3;"/>
   </g>
   <g id="line2d_48">
    <path clip-path="url(#p5a884ec284)" d="M 442.013304 449.739939 
L 442.013304 447.605074 
L 444.508861 447.605074 
L 444.508861 449.739939 
L 442.013304 449.739939 
" style="fill:none;stroke:#d3d3d3;stroke-linecap:square;stroke-width:0.5;"/>
   </g>
   <g id="line2d_49">
    <path clip-path="url(#p5a884ec284)" d="M 443.94258 448.525639 
L 442.013304 447.950723 
L 442.013304 447.950723 
" style="fill:none;stroke:#000000;stroke-linecap:square;stroke-width:3;"/>
   </g>
   <g id="line2d_50">
    <path clip-path="url(#p5a884ec284)" d="M 442.013304 448.525639 
L 442.013304 447.950723 
L 443.94258 447.950723 
L 443.94258 448.525639 
L 442.013304 448.525639 
" style="fill:none;stroke:#d3d3d3;stroke-linecap:square;stroke-width:0.5;"/>
   </g>
   <g id="line2d_51">
    <path clip-path="url(#p5a884ec284)" d="M 351.713421 111.411644 
L 348.869835 112.479752 
L 346.05727 113.618201 
L 343.278053 114.826939 
L 340.534577 116.105878 
L 337.829297 117.454889 
L 335.164735 118.873796 
L 332.543479 120.362374 
L 329.968177 121.920334 
L 327.441538 123.547319 
L 324.966327 125.242897 
L 322.545356 127.006547 
L 320.181477 128.83765 
L 317.877572 130.735483 
L 315.636539 132.699202 
L 313.461279 134.727838 
L 311.354674 136.820285 
L 309.319574 138.975293 
L 307.358769 141.191459 
L 305.47497 143.467223 
L 303.670785 145.800867 
L 301.948688 148.190508 
L 300.311002 150.634108 
L 298.759866 153.12947 
L 297.297215 155.674251 
L 295.924755 158.265969 
L 294.643947 160.902017 
L 293.455987 163.579679 
L 292.361791 166.296146 
L 291.361993 169.048541 
L 290.456931 171.833932 
L 289.646653 174.649364 
L 288.930921 177.491874 
L 288.309216 180.358521 
L 287.780752 183.246402 
L 287.344494 186.152677 
L 286.999176 189.074589 
L 286.743322 192.009477 
L 286.575268 194.954795 
L 286.493189 197.90812 
L 286.495121 200.867167 
L 286.578988 203.82979 
L 286.742623 206.79399 
L 286.98379 209.757913 
L 287.300207 212.719853 
L 287.689565 215.678249 
L 288.149543 218.631677 
L 288.677825 221.578852 
L 289.272112 224.518613 
L 289.930133 227.449925 
L 290.649658 230.371863 
L 291.4285 233.283611 
L 292.264526 236.18445 
L 293.155661 239.073753 
L 294.099888 241.950976 
L 295.095255 244.815648 
L 296.139873 247.667371 
L 297.23192 250.505807 
L 298.369639 253.330675 
L 299.551338 256.141744 
L 299.551338 256.141744 
" style="fill:none;stroke:#000000;stroke-linecap:square;stroke-width:3;"/>
   </g>
   <g id="line2d_52">
    <path clip-path="url(#p5a884ec284)" d="M 286.493189 256.141744 
L 286.493189 111.411644 
L 351.713421 111.411644 
L 351.713421 256.141744 
L 286.493189 256.141744 
" style="fill:none;stroke:#d3d3d3;stroke-linecap:square;stroke-width:0.5;"/>
   </g>
   <g id="line2d_53">
    <path clip-path="url(#p5a884ec284)" d="M 272.222625 440.059644 
L 272.222625 440.059644 
L 274.984136 438.269703 
L 277.775746 436.517629 
L 280.597719 434.8053 
L 283.450262 433.134644 
L 286.333515 431.507644 
L 289.247539 429.926324 
L 292.192311 428.392747 
L 295.16771 426.909007 
L 298.173507 425.477218 
L 301.209359 424.099501 
L 304.274798 422.777977 
L 307.369222 421.514743 
L 310.49189 420.311864 
L 313.641916 419.17135 
L 316.818267 418.09514 
L 320.01976 417.085079 
L 323.245067 416.142901 
L 326.492718 415.270208 
L 329.761107 414.46845 
L 333.048508 413.738906 
L 336.353083 413.08267 
L 339.672901 412.500639 
L 343.005955 411.993495 
L 346.350183 411.561708 
L 349.703489 411.205522 
L 353.063764 410.924965 
L 356.428908 410.719845 
L 359.796851 410.589765 
L 363.165571 410.534127 
L 366.533113 410.552153 
L 369.897603 410.642901 
L 373.257259 410.805278 
L 376.610406 411.038069 
L 379.955477 411.339955 
L 383.291022 411.709532 
L 386.615707 412.145342 
L 389.928314 412.645887 
L 393.227738 413.209656 
L 396.512985 413.835147 
L 399.783162 414.520888 
L 403.037471 415.265459 
L 406.275202 416.067519 
L 409.495722 416.925824 
L 412.698463 417.839263 
L 415.882916 418.806885 
L 419.048617 419.827941 
L 422.195136 420.901941 
L 425.322072 422.02872 
L 428.429045 423.208548 
L 431.5157 424.442289 
L 434.581732 425.73165 
L 437.626949 427.079615 
L 440.651463 428.491236 
L 443.656172 429.975236 
L 446.644213 431.547735 
L 449.625987 433.242865 
L 452.643564 435.156012 
L 452.790856 435.274369 
" style="fill:none;stroke:#000000;stroke-linecap:square;stroke-width:3;"/>
   </g>
   <g id="line2d_54">
    <path clip-path="url(#p5a884ec284)" d="M 272.222625 440.059644 
L 272.222625 410.534127 
L 452.790856 410.534127 
L 452.790856 440.059644 
L 272.222625 440.059644 
" style="fill:none;stroke:#d3d3d3;stroke-linecap:square;stroke-width:0.5;"/>
   </g>
   <g id="line2d_55">
    <path clip-path="url(#p5a884ec284)" d="M 445.692921 449.020814 
L 445.386425 448.955899 
L 443.94258 448.525639 
" style="fill:none;stroke:#000000;stroke-linecap:square;stroke-width:3;"/>
   </g>
   <g id="line2d_56">
    <path clip-path="url(#p5a884ec284)" d="M 443.94258 449.020814 
L 443.94258 448.525639 
L 445.692921 448.525639 
L 445.692921 449.020814 
L 443.94258 449.020814 
" style="fill:none;stroke:#d3d3d3;stroke-linecap:square;stroke-width:0.5;"/>
   </g>
   <g id="line2d_57">
    <path clip-path="url(#p5a884ec284)" d="M 265.696837 443.708126 
L 267.331218 442.967084 
L 269.756445 441.612737 
L 272.222625 440.059644 
L 272.222625 440.059644 
" style="fill:none;stroke:#000000;stroke-linecap:square;stroke-width:3;"/>
   </g>
   <g id="line2d_58">
    <path clip-path="url(#p5a884ec284)" d="M 265.696837 443.708126 
L 265.696837 440.059644 
L 272.222625 440.059644 
L 272.222625 443.708126 
L 265.696837 443.708126 
" style="fill:none;stroke:#d3d3d3;stroke-linecap:square;stroke-width:0.5;"/>
   </g>
   <g id="line2d_59">
    <path clip-path="url(#p5a884ec284)" d="M 472.045039 185.584967 
L 472.045039 185.584967 
L 471.255798 182.663746 
L 470.395148 179.768065 
L 469.460991 176.900268 
L 468.451424 174.062774 
L 467.364773 171.258057 
L 466.199629 168.488636 
L 464.954872 165.757048 
L 463.629696 163.065834 
L 462.223628 160.417511 
L 460.736535 157.814549 
L 459.168627 155.259353 
L 457.520458 152.754239 
L 455.792905 150.30142 
L 453.987159 147.90299 
L 452.104694 145.560917 
L 450.147246 143.277034 
L 448.116773 141.053042 
L 446.01543 138.890506 
L 443.845532 136.790865 
L 441.609519 134.755438 
L 439.309931 132.785434 
L 436.949373 130.88197 
L 434.530495 129.046082 
L 432.055965 127.278742 
L 429.528457 125.580877 
L 426.950635 123.953388 
L 424.325139 122.397166 
L 421.654588 120.913112 
L 418.941569 119.502159 
L 416.188646 118.165286 
L 413.398359 116.90354 
L 410.573236 115.718053 
L 407.715804 114.610067 
L 404.828605 113.580944 
L 401.914214 112.632196 
L 398.975261 111.765499 
L 396.014461 110.982714 
L 393.034646 110.285915 
L 390.0388 109.677407 
L 387.030111 109.159751 
L 384.01202 108.735793 
L 380.98829 108.408684 
L 377.963079 108.181909 
L 374.941042 108.05931 
L 371.927436 108.045106 
L 368.928261 108.143906 
L 365.950423 108.360712 
L 363.001928 108.700898 
L 360.092108 109.170159 
L 357.231879 109.774416 
L 354.434015 110.519649 
L 351.713421 111.411644 
" style="fill:none;stroke:#000000;stroke-linecap:square;stroke-width:3;"/>
   </g>
   <g id="line2d_60">
    <path clip-path="url(#p5a884ec284)" d="M 351.713421 185.584967 
L 351.713421 108.045106 
L 472.045039 108.045106 
L 472.045039 185.584967 
L 351.713421 185.584967 
" style="fill:none;stroke:#d3d3d3;stroke-linecap:square;stroke-width:0.5;"/>
   </g>
   <g id="line2d_61">
    <path clip-path="url(#p5a884ec284)" d="M 540.861564 590.975086 
L 540.861564 590.975086 
L 543.1418 589.12427 
L 545.349454 587.199957 
L 547.480996 585.202541 
L 549.533155 583.132821 
L 551.502982 580.992006 
L 553.387904 578.781711 
L 555.185767 576.503938 
L 556.894875 574.161053 
L 558.514013 571.755747 
L 560.04245 569.290995 
L 561.479944 566.77 
L 562.826722 564.196139 
L 564.083458 561.572905 
L 565.251232 558.903848 
L 566.331494 556.192519 
L 567.326017 553.442421 
L 568.236844 550.656965 
L 569.066239 547.839434 
L 569.816642 544.992956 
L 570.490621 542.12048 
L 571.090828 539.224768 
L 571.619967 536.308383 
L 572.080754 533.373693 
L 572.475897 530.42287 
L 572.80807 527.457898 
L 573.079892 524.480582 
L 573.293917 521.492557 
L 573.452622 518.495299 
L 573.558398 515.49014 
L 573.613543 512.478277 
L 573.620264 509.460783 
L 573.580672 506.438621 
L 573.496783 503.412652 
L 573.370519 500.383644 
L 573.203709 497.352286 
L 572.998094 494.319189 
L 572.755329 491.284901 
L 572.476984 488.249909 
L 572.164551 485.214646 
L 571.819446 482.179498 
L 571.443014 479.144808 
L 571.036528 476.110882 
L 570.601201 473.077991 
L 570.13818 470.046376 
L 569.648558 467.01625 
L 569.133371 463.987803 
L 568.593602 460.961203 
" style="fill:none;stroke:#000000;stroke-linecap:square;stroke-width:3;"/>
   </g>
   <g id="line2d_62">
    <path clip-path="url(#p5a884ec284)" d="M 540.861564 590.975086 
L 540.861564 460.961203 
L 573.620264 460.961203 
L 573.620264 590.975086 
L 540.861564 590.975086 
" style="fill:none;stroke:#d3d3d3;stroke-linecap:square;stroke-width:0.5;"/>
   </g>
   <g id="line2d_63">
    <path clip-path="url(#p5a884ec284)" d="M 568.593602 460.961203 
L 568.030189 457.936598 
L 567.444021 454.91412 
L 566.835945 451.893885 
L 566.206767 448.875995 
L 565.557254 445.86054 
L 564.888138 442.847599 
L 564.200115 439.83724 
L 563.49385 436.829526 
L 562.769979 433.824507 
L 562.029107 430.82223 
L 561.271814 427.822734 
L 560.498652 424.826052 
L 559.710152 421.832213 
L 558.90682 418.841241 
L 558.089142 415.853157 
L 557.257584 412.867976 
L 556.412591 409.885712 
L 555.554591 406.906376 
L 554.683996 403.929974 
L 553.8012 400.956512 
L 552.906583 397.985994 
L 552.00051 395.018419 
L 551.083332 392.053788 
L 550.155386 389.092098 
L 549.217 386.133345 
L 548.268486 383.177525 
L 547.310148 380.224629 
L 546.342278 377.274651 
L 545.365158 374.327581 
L 544.379062 371.38341 
L 543.384252 368.442125 
L 542.380984 365.503714 
L 541.369504 362.568164 
L 540.350052 359.63546 
L 539.322859 356.705585 
L 538.288149 353.778524 
L 537.246141 350.854258 
L 536.197047 347.932767 
L 535.14107 345.01403 
L 534.078411 342.098025 
L 533.009264 339.18473 
L 531.933817 336.274117 
L 530.852255 333.366161 
L 529.764757 330.460832 
L 528.671496 327.5581 
L 527.572644 324.657932 
L 526.468367 321.760293 
L 525.358828 318.865146 
" style="fill:none;stroke:#000000;stroke-linecap:square;stroke-width:3;"/>
   </g>
   <g id="line2d_64">
    <path clip-path="url(#p5a884ec284)" d="M 525.358828 460.961203 
L 525.358828 318.865146 
L 568.593602 318.865146 
L 568.593602 460.961203 
L 525.358828 460.961203 
" style="fill:none;stroke:#d3d3d3;stroke-linecap:square;stroke-width:0.5;"/>
   </g>
   <g id="line2d_65">
    <path clip-path="url(#p5a884ec284)" d="M 525.358828 318.865146 
L 524.244184 315.972451 
L 523.124593 313.082165 
L 522.000207 310.194243 
L 520.871175 307.308635 
L 519.737644 304.425289 
L 518.59976 301.544149 
L 517.457664 298.665156 
L 516.311498 295.788243 
L 515.1614 292.913343 
L 514.007508 290.040381 
L 512.84996 287.169277 
L 511.688891 284.299946 
L 510.524437 281.432294 
L 509.356735 278.566224 
L 508.185921 275.701627 
L 507.012135 272.838389 
L 505.835516 269.976386 
L 504.656207 267.115483 
L 503.474356 264.255536 
L 502.290113 261.396388 
L 501.103637 258.537869 
L 499.915091 255.679795 
L 498.724649 252.821965 
L 497.532495 249.964163 
L 496.338828 247.106149 
L 495.143862 244.247662 
L 493.947831 241.388417 
L 492.750994 238.528098 
L 491.553642 235.666354 
L 490.356099 232.802796 
L 489.158738 229.936988 
L 487.961989 227.068435 
L 486.766354 224.196574 
L 485.572424 221.320755 
L 484.380909 218.440214 
L 483.192669 215.554043 
L 482.008763 212.661133 
L 480.830519 209.760097 
L 479.659627 206.849136 
L 478.498294 203.925821 
L 477.349471 200.986693 
L 476.217242 198.026497 
L 475.107504 195.036535 
L 474.029317 192.000681 
L 472.998018 188.88372 
L 472.045039 185.584967 
L 472.045039 185.584967 
" style="fill:none;stroke:#000000;stroke-linecap:square;stroke-width:3;"/>
   </g>
   <g id="line2d_66">
    <path clip-path="url(#p5a884ec284)" d="M 472.045039 318.865146 
L 472.045039 185.584967 
L 525.358828 185.584967 
L 525.358828 318.865146 
L 472.045039 318.865146 
" style="fill:none;stroke:#d3d3d3;stroke-linecap:square;stroke-width:0.5;"/>
   </g>
   <g id="line2d_67">
    <path clip-path="url(#p5a884ec284)" d="M 299.551338 256.141744 
L 299.551338 256.141744 
L 300.812832 259.184435 
L 301.99886 262.262785 
L 303.105052 265.375677 
L 304.127204 268.521528 
L 305.061382 271.698282 
L 305.90404 274.903409 
L 306.652127 278.133937 
L 307.303197 281.386502 
L 307.855495 284.65742 
L 308.308023 287.942784 
L 308.660576 291.238561 
L 308.913749 294.540715 
L 309.068905 297.845307 
L 309.128123 301.148601 
L 309.094117 304.447145 
L 308.970136 307.737839 
L 308.759858 311.017975 
L 308.467283 314.285258 
L 308.096627 317.537812 
L 307.652228 320.774164 
L 307.13846 323.99322 
L 306.559667 327.194228 
L 305.920106 330.376747 
L 305.223903 333.540599 
L 304.475025 336.685834 
L 303.677259 339.812691 
L 302.834204 342.921561 
L 301.94926 346.012961 
L 301.025637 349.087504 
L 300.066357 352.145874 
L 299.074264 355.188809 
L 298.052033 358.217084 
L 297.002186 361.231497 
L 295.927102 364.232862 
L 294.829033 367.221994 
L 293.710119 370.199708 
L 292.572401 373.166816 
L 291.417837 376.124116 
L 290.248319 379.0724 
L 289.065686 382.012446 
L 287.871743 384.945018 
L 286.668277 387.870869 
L 285.457081 390.790739 
L 284.239972 393.705355 
L 283.018818 396.615426 
L 281.795572 399.521643 
L 280.572308 402.42467 
L 279.351269 405.325134 
L 278.13493 408.223599 
L 276.92608 411.120542 
L 275.727928 414.016295 
L 274.544255 416.910966 
L 273.379619 419.804306 
L 272.23965 422.695505 
L 271.131479 425.582847 
L 270.06437 428.463142 
L 269.050696 431.330741 
L 268.107461 434.175786 
L 267.258761 436.980872 
L 266.53991 439.714185 
L 266.004514 442.313008 
L 265.735503 444.629017 
L 265.696837 443.708126 
" style="fill:none;stroke:#000000;stroke-linecap:square;stroke-width:3;"/>
   </g>
   <g id="line2d_68">
    <path clip-path="url(#p5a884ec284)" d="M 265.696837 444.629017 
L 265.696837 256.141744 
L 309.128123 256.141744 
L 309.128123 444.629017 
L 265.696837 444.629017 
" style="fill:none;stroke:#d3d3d3;stroke-linecap:square;stroke-width:0.5;"/>
   </g>
   <g id="line2d_69">
    <path clip-path="url(#p5a884ec284)" d="M 443.94258 448.525639 
L 442.853366 452.156559 
L 442.276595 454.830193 
L 441.828912 457.639256 
L 441.488597 460.528391 
L 441.238476 463.468551 
L 441.065587 466.442865 
L 440.960116 469.440774 
L 440.914525 472.455273 
L 440.922935 475.481498 
L 440.980691 478.515939 
L 441.084071 481.55598 
L 441.230064 484.599615 
L 441.416223 487.645261 
L 441.640553 490.69164 
L 441.901423 493.737695 
L 442.197506 496.782525 
L 442.527733 499.825348 
L 442.89125 502.865467 
L 443.287394 505.902244 
L 443.71567 508.93508 
L 444.175732 511.963403 
L 444.667369 514.986653 
L 445.190499 518.004269 
L 445.745154 521.015683 
L 446.331483 524.020308 
L 446.949741 527.017528 
L 447.600292 530.006694 
L 448.283605 532.987109 
L 449.000256 535.958022 
L 449.750931 538.918618 
L 450.536429 541.868003 
L 451.357665 544.805193 
L 452.215674 547.729099 
L 453.111623 550.638511 
L 454.046814 553.532074 
L 455.022691 556.408267 
L 456.040856 559.265379 
L 457.103072 562.101467 
L 458.211279 564.914328 
" style="fill:none;stroke:#000000;stroke-linecap:square;stroke-width:3;"/>
   </g>
   <g id="line2d_70">
    <path clip-path="url(#p5a884ec284)" d="M 440.914525 564.914328 
L 440.914525 448.525639 
L 458.211279 448.525639 
L 458.211279 564.914328 
L 440.914525 564.914328 
" style="fill:none;stroke:#d3d3d3;stroke-linecap:square;stroke-width:0.5;"/>
   </g>
   <g id="line2d_71">
    <path clip-path="url(#p5a884ec284)" d="M 458.211279 564.914328 
L 459.367601 567.701443 
L 460.574356 570.459931 
L 461.834067 573.186477 
L 463.149463 575.877257 
L 464.52348 578.527845 
L 465.959251 581.133106 
L 467.460084 583.687068 
L 469.029419 586.182777 
L 470.670756 588.612141 
L 472.387553 590.965761 
L 474.183065 593.232766 
L 476.060136 595.400688 
L 478.020924 597.455405 
L 480.066582 599.381229 
L 482.196931 601.161209 
L 484.410205 602.777719 
L 486.702985 604.213377 
L 489.070407 605.4522 
L 491.506646 606.480785 
L 494.005452 607.289226 
L 496.560411 607.871566 
L 499.164687 608.22583 
L 501.810444 608.353905 
L 504.488442 608.261391 
L 507.188208 607.957357 
L 509.898777 607.453833 
L 512.609614 606.764999 
L 515.311399 605.906228 
L 517.996455 604.893172 
L 520.658863 603.741047 
L 523.294345 602.464146 
L 525.900027 601.075575 
L 528.474176 599.587144 
L 531.015937 598.009375 
L 533.525116 596.351575 
L 536.001997 594.621939 
L 538.447197 592.827668 
L 540.861564 590.975086 
L 540.861564 590.975086 
" style="fill:none;stroke:#000000;stroke-linecap:square;stroke-width:3;"/>
   </g>
   <g id="line2d_72">
    <path clip-path="url(#p5a884ec284)" d="M 458.211279 608.353905 
L 458.211279 564.914328 
L 540.861564 564.914328 
L 540.861564 608.353905 
L 458.211279 608.353905 
" style="fill:none;stroke:#d3d3d3;stroke-linecap:square;stroke-width:0.5;"/>
   </g>
   <g id="line2d_73">
    <path clip-path="url(#p5a884ec284)" d="M 540.861564 590.975086 
" style="fill:none;stroke:#000000;stroke-linecap:square;stroke-width:3;"/>
   </g>
   <g id="line2d_74">
    <path clip-path="url(#p5a884ec284)" d="M 540.861564 590.975086 
L 540.861564 590.975086 
L 540.861564 590.975086 
L 540.861564 590.975086 
L 540.861564 590.975086 
" style="fill:none;stroke:#d3d3d3;stroke-linecap:square;stroke-width:0.5;"/>
   </g>
   <g id="line2d_75">
    <path clip-path="url(#p5a884ec284)" d="M 347.297536 99.814489 
L 347.297536 99.814489 
L 347.297536 99.814489 
" style="fill:none;stroke:#000000;stroke-linecap:square;stroke-width:3;"/>
   </g>
   <g id="line2d_76">
    <path clip-path="url(#p5a884ec284)" d="M 347.297536 99.814489 
L 347.297536 99.814489 
L 347.297536 99.814489 
L 347.297536 99.814489 
L 347.297536 99.814489 
" style="fill:none;stroke:#d3d3d3;stroke-linecap:square;stroke-width:0.5;"/>
   </g>
   <g id="line2d_77">
    <path clip-path="url(#p5a884ec284)" d="M 347.297536 99.814489 
L 347.297536 99.814489 
L 347.297536 99.814489 
" style="fill:none;stroke:#000000;stroke-linecap:square;stroke-width:3;"/>
   </g>
   <g id="line2d_78">
    <path clip-path="url(#p5a884ec284)" d="M 347.297536 99.814489 
L 347.297536 99.814489 
L 347.297536 99.814489 
L 347.297536 99.814489 
L 347.297536 99.814489 
" style="fill:none;stroke:#d3d3d3;stroke-linecap:square;stroke-width:0.5;"/>
   </g>
   <g id="line2d_79">
    <path clip-path="url(#p5a884ec284)" d="M 548.818959 600.613884 
L 548.818959 600.613884 
L 551.438663 598.487482 
L 553.983972 596.268806 
L 556.448901 593.958944 
L 558.827666 591.559793 
L 561.114835 589.07407 
L 563.305473 586.505275 
L 565.395288 583.857623 
L 567.380735 581.135944 
L 569.259112 578.345558 
L 571.028603 575.492131 
L 572.688291 572.581527 
L 574.238134 569.619662 
L 575.678905 566.612372 
L 577.012115 563.565296 
L 578.239911 560.48379 
L 579.364968 557.372855 
L 580.390384 554.237096 
L 581.319572 551.0807 
L 582.156164 547.90743 
L 582.903928 544.720637 
L 583.566694 541.523272 
L 584.148291 538.317922 
L 584.652505 535.106832 
L 585.083035 531.891941 
L 585.443469 528.674913 
L 585.737262 525.457169 
L 585.967726 522.239913 
L 586.138017 519.024164 
L 586.251136 515.810779 
L 586.309928 512.600471 
L 586.317083 509.393833 
L 586.27514 506.191354 
L 586.186494 502.993435 
L 586.053401 499.800398 
L 585.877985 496.612501 
L 585.662246 493.429949 
L 585.408065 490.252897 
L 585.117213 487.081463 
L 584.791355 483.915729 
L 584.432062 480.755753 
L 584.040811 477.601564 
L 583.618994 474.453176 
L 583.167924 471.310584 
L 582.68884 468.17377 
L 582.18291 465.042705 
L 581.65124 461.917349 
L 581.094872 458.797657 
" style="fill:none;stroke:#000000;stroke-linecap:square;stroke-width:3;"/>
   </g>
   <g id="line2d_80">
    <path clip-path="url(#p5a884ec284)" d="M 548.818959 600.613884 
L 548.818959 458.797657 
L 586.317083 458.797657 
L 586.317083 600.613884 
L 548.818959 600.613884 
" style="fill:none;stroke:#d3d3d3;stroke-linecap:square;stroke-width:0.5;"/>
   </g>
   <g id="line2d_81">
    <path clip-path="url(#p5a884ec284)" d="M 581.094872 458.797657 
L 580.514794 455.683577 
L 579.91194 452.575051 
L 579.287196 449.47202 
L 578.641401 446.374418 
L 577.975351 443.282182 
L 577.289803 440.195244 
L 576.585474 437.113536 
L 575.863048 434.036989 
L 575.123175 430.965536 
L 574.366474 427.899108 
L 573.593534 424.837637 
L 572.804919 421.781056 
L 572.001166 418.7293 
L 571.182787 415.682303 
L 570.350273 412.640001 
L 569.504094 409.602332 
L 568.644699 406.569234 
L 567.772516 403.540648 
L 566.88796 400.516513 
L 565.991425 397.496773 
L 565.083292 394.481372 
L 564.163924 391.470254 
L 563.233673 388.463367 
L 562.292876 385.460657 
L 561.341858 382.462074 
L 560.38093 379.467568 
L 559.410395 376.47709 
L 558.430543 373.490591 
L 557.441655 370.508026 
L 556.444001 367.529347 
L 555.437844 364.554511 
L 554.423435 361.583472 
L 553.401021 358.616186 
L 552.370838 355.652611 
L 551.333115 352.692703 
L 550.288076 349.73642 
L 549.235937 346.78372 
L 548.176907 343.834561 
L 547.111189 340.8889 
L 546.038983 337.946695 
L 544.960479 335.007905 
L 543.875867 332.072486 
L 542.785329 329.140395 
L 541.689043 326.211588 
L 540.587182 323.286021 
L 539.479917 320.363648 
L 538.367413 317.444423 
L 537.249834 314.528298 
" style="fill:none;stroke:#000000;stroke-linecap:square;stroke-width:3;"/>
   </g>
   <g id="line2d_82">
    <path clip-path="url(#p5a884ec284)" d="M 537.249834 458.797657 
L 537.249834 314.528298 
L 581.094872 314.528298 
L 581.094872 458.797657 
L 537.249834 458.797657 
" style="fill:none;stroke:#d3d3d3;stroke-linecap:square;stroke-width:0.5;"/>
   </g>
   <g id="line2d_83">
    <path clip-path="url(#p5a884ec284)" d="M 537.249834 314.528298 
L 536.127338 311.615223 
L 535.000081 308.705148 
L 533.868217 305.798021 
L 532.731897 302.893785 
L 531.591269 299.992386 
L 530.44648 297.093763 
L 529.297675 294.197855 
L 528.144996 291.304597 
L 526.988588 288.413922 
L 525.82859 285.525758 
L 524.665146 282.64003 
L 523.498396 279.756659 
L 522.328483 276.875563 
L 521.15555 273.996654 
L 519.979743 271.119839 
L 518.801209 268.245021 
L 517.620101 265.372097 
L 516.436572 262.500958 
L 515.250786 259.631488 
L 514.062909 256.763566 
L 512.873119 253.897062 
L 511.681601 251.031842 
L 510.488555 248.167761 
L 509.294194 245.304668 
L 508.098752 242.442404 
L 506.902484 239.580803 
L 505.705671 236.719689 
L 504.50863 233.85888 
L 503.311717 230.998187 
L 502.11534 228.137417 
L 500.919969 225.276371 
L 499.726155 222.414853 
L 498.534548 219.552669 
L 497.345927 216.689639 
L 496.16124 213.825607 
L 494.981653 210.960455 
L 493.808629 208.094138 
L 492.644037 205.226723 
L 491.49032 202.358469 
L 490.350752 199.489956 
L 489.22987 196.622342 
L 488.134225 193.757856 
L 487.073808 190.900915 
L 486.065075 188.060978 
L 485.138407 185.261486 
L 484.361453 182.579162 
L 484.361453 182.579162 
" style="fill:none;stroke:#000000;stroke-linecap:square;stroke-width:3;"/>
   </g>
   <g id="line2d_84">
    <path clip-path="url(#p5a884ec284)" d="M 484.361453 314.528298 
L 484.361453 182.579162 
L 537.249834 182.579162 
L 537.249834 314.528298 
L 484.361453 314.528298 
" style="fill:none;stroke:#d3d3d3;stroke-linecap:square;stroke-width:0.5;"/>
   </g>
   <g id="line2d_85">
    <path clip-path="url(#p5a884ec284)" d="M 434.490212 439.33046 
L 431.599255 445.639505 
L 430.522705 449.20671 
L 429.779995 452.6412 
L 429.243244 456.004788 
L 428.851794 459.325297 
L 428.571598 462.616956 
L 428.381373 465.887776 
L 428.2668 469.14261 
L 428.217727 472.384576 
L 428.226677 475.615766 
L 428.287981 478.837644 
L 428.397248 482.051258 
L 428.551024 485.257384 
L 428.746561 488.456599 
L 428.981662 491.649342 
L 429.254564 494.835945 
L 429.563857 498.016659 
L 429.908426 501.191669 
L 430.287404 504.361107 
L 430.700137 507.525058 
L 431.146159 510.683568 
L 431.625173 513.836644 
L 432.137034 516.984259 
L 432.681744 520.126355 
L 433.259436 523.262838 
L 433.870377 526.393583 
L 434.514964 529.518428 
L 435.193719 532.637178 
L 435.907299 535.749596 
L 436.656493 538.855404 
L 437.442235 541.954279 
L 438.265604 545.045844 
L 439.127843 548.129665 
L 440.030367 551.20524 
L 440.974777 554.271992 
L 441.962885 557.329257 
L 442.996731 560.376267 
L 444.078612 563.412134 
L 445.211111 566.43583 
L 446.397134 569.446152 
" style="fill:none;stroke:#000000;stroke-linecap:square;stroke-width:3;"/>
   </g>
   <g id="line2d_86">
    <path clip-path="url(#p5a884ec284)" d="M 428.217727 569.446152 
L 428.217727 439.33046 
L 446.397134 439.33046 
L 446.397134 569.446152 
L 428.217727 569.446152 
" style="fill:none;stroke:#d3d3d3;stroke-linecap:square;stroke-width:0.5;"/>
   </g>
   <g id="line2d_87">
    <path clip-path="url(#p5a884ec284)" d="M 446.397134 569.446152 
L 447.639955 572.441698 
L 448.943259 575.420817 
L 450.311207 578.381555 
L 451.748497 581.321589 
L 453.260439 584.238138 
L 454.853041 587.127845 
L 456.533098 589.986637 
L 458.308282 592.809525 
L 460.187232 595.590364 
L 462.179612 598.321529 
L 464.29612 600.993505 
L 466.548383 603.594374 
L 468.948676 606.109197 
L 471.509328 608.519317 
L 474.24168 610.801686 
L 477.154428 612.928406 
L 480.251297 614.866871 
L 483.528216 616.580972 
L 486.970643 618.033858 
L 490.552143 619.192285 
L 494.235422 620.031764 
L 497.976273 620.54087 
L 501.729482 620.722995 
L 505.454669 620.594864 
L 509.120188 620.182667 
L 512.704379 619.517423 
L 516.194724 618.631018 
L 519.585906 617.553547 
L 522.877673 616.311936 
L 526.073003 614.929482 
L 529.176714 613.425953 
L 532.194517 611.817946 
L 535.132412 610.119336 
L 537.996319 608.341717 
L 540.791878 606.494803 
L 543.524348 604.586762 
L 546.198569 602.6245 
L 548.818959 600.613884 
L 548.818959 600.613884 
" style="fill:none;stroke:#000000;stroke-linecap:square;stroke-width:3;"/>
   </g>
   <g id="line2d_88">
    <path clip-path="url(#p5a884ec284)" d="M 446.397134 620.722995 
L 446.397134 569.446152 
L 548.818959 569.446152 
L 548.818959 620.722995 
L 446.397134 620.722995 
" style="fill:none;stroke:#d3d3d3;stroke-linecap:square;stroke-width:0.5;"/>
   </g>
   <g id="line2d_89">
    <path clip-path="url(#p5a884ec284)" d="M 279.332131 450.308089 
L 279.332131 450.308089 
L 281.940136 448.617638 
L 284.571498 446.966131 
L 287.226276 445.355243 
L 289.904489 443.786679 
L 292.606107 442.262164 
L 295.331049 440.783441 
L 298.07918 439.352261 
L 300.8503 437.970378 
L 303.644147 436.639539 
L 306.460389 435.361475 
L 309.298622 434.13789 
L 312.158365 432.970449 
L 315.039062 431.86077 
L 317.940074 430.810407 
L 320.860683 429.820838 
L 323.800094 428.893455 
L 326.75743 428.02955 
L 329.731741 427.230301 
L 332.722004 426.496763 
L 335.727129 425.829858 
L 338.745963 425.230363 
L 341.777302 424.698905 
L 344.819891 424.235956 
L 347.87244 423.841829 
L 350.933626 423.516674 
L 354.002107 423.260481 
L 357.076529 423.073086 
L 360.155535 422.954169 
L 363.237776 422.903267 
L 366.321914 422.919783 
L 369.406635 423.00299 
L 372.490653 423.152053 
L 375.572711 423.366031 
L 378.651594 423.643901 
L 381.726123 423.984565 
L 384.795158 424.386871 
L 387.857602 424.849623 
L 390.912391 425.371599 
L 393.958496 425.951566 
L 396.994912 426.588295 
L 400.02065 427.280577 
L 403.034725 428.027238 
L 406.036142 428.827155 
L 409.02387 429.679275 
L 411.996815 430.582631 
L 414.953787 431.536367 
L 417.893441 432.539757 
L 420.814204 433.59224 
L 423.714167 434.693454 
L 426.590911 435.843284 
L 429.441237 437.041918 
L 432.260688 438.28992 
L 434.490212 439.33046 
" style="fill:none;stroke:#000000;stroke-linecap:square;stroke-width:3;"/>
   </g>
   <g id="line2d_90">
    <path clip-path="url(#p5a884ec284)" d="M 279.332131 450.308089 
L 279.332131 422.903267 
L 434.490212 422.903267 
L 434.490212 450.308089 
L 279.332131 450.308089 
" style="fill:none;stroke:#d3d3d3;stroke-linecap:square;stroke-width:0.5;"/>
   </g>
   <g id="line2d_91">
    <path clip-path="url(#p5a884ec284)" d="M 484.361453 182.579162 
L 484.361453 182.579162 
L 483.494685 179.37109 
L 482.545856 176.178819 
L 481.512153 173.00551 
L 480.391034 169.854569 
L 479.180292 166.729634 
L 477.878105 163.634538 
L 476.48309 160.573264 
L 474.994339 157.549898 
L 473.411447 154.568563 
L 471.734524 151.633356 
L 469.964187 148.748282 
L 468.101544 145.917194 
L 466.14816 143.14374 
L 464.10601 140.431313 
L 461.977422 137.78302 
L 459.765023 135.201663 
L 457.47167 132.689725 
L 455.100391 130.249381 
L 452.654328 127.882503 
L 450.136677 125.590687 
L 447.550646 123.375282 
L 444.899416 121.237416 
L 442.186102 119.178043 
L 439.413732 117.19797 
L 436.585228 115.297899 
L 433.703391 113.478464 
L 430.770895 111.740264 
L 427.790283 110.083901 
L 424.76397 108.510009 
L 421.694241 107.019287 
L 418.583266 105.612528 
L 415.433104 104.29065 
L 412.245714 103.054724 
L 409.022971 101.906006 
L 405.766677 100.845965 
L 402.478581 99.876318 
L 399.160396 98.999063 
L 395.813824 98.216521 
L 392.440578 97.531381 
L 389.042413 96.946745 
L 385.621163 96.46619 
L 382.178787 96.093835 
L 378.717423 95.834418 
L 375.239457 95.693386 
L 371.74762 95.677005 
L 368.245104 95.792483 
L 364.735727 96.048106 
L 361.224144 96.453405 
L 357.716137 97.019318 
L 354.21901 97.758357 
L 350.742111 98.68475 
L 347.297536 99.814489 
" style="fill:none;stroke:#000000;stroke-linecap:square;stroke-width:3;"/>
   </g>
   <g id="line2d_92">
    <path clip-path="url(#p5a884ec284)" d="M 347.297536 182.579162 
L 347.297536 95.677005 
L 484.361453 95.677005 
L 484.361453 182.579162 
L 347.297536 182.579162 
" style="fill:none;stroke:#d3d3d3;stroke-linecap:square;stroke-width:0.5;"/>
   </g>
   <g id="line2d_93">
    <path clip-path="url(#p5a884ec284)" d="M 347.297536 99.814489 
L 344.150236 100.996687 
L 341.033535 102.258251 
L 337.949867 103.599411 
L 334.901748 105.020378 
L 331.891787 106.521333 
L 328.922689 108.102423 
L 325.997263 109.763748 
L 323.118425 111.505351 
L 320.289198 113.327199 
L 317.512717 115.229171 
L 314.792221 117.211039 
L 312.131056 119.272446 
L 309.532658 121.412885 
L 307.000551 123.631681 
L 304.538323 125.927963 
L 302.14961 128.300645 
L 299.83807 130.748402 
L 297.607353 133.269652 
L 295.461068 135.862539 
L 293.402744 138.524921 
L 291.435787 141.254357 
L 289.563437 144.048114 
L 287.788723 146.903164 
L 286.114416 149.8162 
L 284.542985 152.783653 
L 283.076557 155.801723 
L 281.716885 158.866411 
L 280.465315 161.973558 
L 279.322771 165.118893 
L 278.28974 168.298079 
L 277.366269 171.506761 
L 276.551979 174.740621 
L 275.846074 177.995416 
L 275.247368 181.267031 
L 274.754317 184.551507 
L 274.365052 187.845083 
L 274.07742 191.144215 
L 273.889025 194.445599 
L 273.797271 197.746182 
L 273.799401 201.043167 
L 273.892537 204.334019 
L 274.073717 207.616459 
L 274.339929 210.888453 
L 274.688141 214.148208 
L 275.115323 217.394152 
L 275.618477 220.624926 
L 276.194648 223.839364 
L 276.840942 227.036477 
L 277.55454 230.215441 
L 278.332705 233.375577 
L 279.17279 236.516336 
L 280.07224 239.637288 
L 281.028599 242.738107 
L 282.039508 245.818557 
L 283.102706 248.878481 
L 284.21603 251.917795 
L 285.377413 254.936472 
L 286.584879 257.934539 
L 287.836545 260.912065 
L 287.836545 260.912065 
" style="fill:none;stroke:#000000;stroke-linecap:square;stroke-width:3;"/>
   </g>
   <g id="line2d_94">
    <path clip-path="url(#p5a884ec284)" d="M 273.797271 260.912065 
L 273.797271 99.814489 
L 347.297536 99.814489 
L 347.297536 260.912065 
L 273.797271 260.912065 
" style="fill:none;stroke:#d3d3d3;stroke-linecap:square;stroke-width:0.5;"/>
   </g>
   <g id="line2d_95">
    <path clip-path="url(#p5a884ec284)" d="M 287.836545 260.912065 
L 287.836545 260.912065 
L 288.98261 263.676281 
L 290.055766 266.461599 
L 291.052873 269.267446 
L 291.971012 272.093105 
L 292.807539 274.937716 
L 293.560153 277.800287 
L 294.226945 280.679696 
L 294.806451 283.57471 
L 295.29769 286.483992 
L 295.700183 289.406123 
L 296.013974 292.339615 
L 296.239622 295.28293 
L 296.378186 298.234509 
L 296.431199 301.192786 
L 296.400624 304.156223 
L 296.288809 307.123325 
L 296.098428 310.09267 
L 295.832424 313.062929 
L 295.493947 316.032883 
L 295.086295 319.001435 
L 294.61286 321.967625 
L 294.07708 324.930629 
L 293.482389 327.889762 
L 292.832186 330.844476 
L 292.129804 333.794354 
L 291.378485 336.739101 
L 290.581361 339.678534 
L 289.741449 342.612578 
L 288.861636 345.541247 
L 287.944682 348.464642 
L 286.993217 351.382935 
L 286.009745 354.296366 
L 284.99665 357.205233 
L 283.956201 360.109887 
L 282.890561 363.010726 
L 281.801796 365.908192 
L 280.691885 368.802766 
L 279.562731 371.694974 
L 278.416169 374.585378 
L 277.253982 377.474586 
L 276.077912 380.363251 
L 274.889674 383.252077 
L 273.690971 386.141826 
L 272.483513 389.033326 
L 271.269036 391.927483 
L 270.049327 394.825296 
L 268.826254 397.727869 
L 267.601803 400.636438 
L 266.378127 403.552392 
L 265.157606 406.47731 
L 263.942934 409.413 
L 262.737232 412.361561 
L 261.544206 415.325458 
L 260.36838 418.307645 
L 259.215423 421.311749 
L 258.092658 424.342398 
L 257.009848 427.405825 
L 255.980497 430.511121 
L 255.024163 433.673123 
L 254.171118 436.919945 
L 253.474092 440.31592 
L 253.052538 444.047463 
L 253.406853 448.79828 
L 257.909679 455.328083 
L 265.115748 456.705553 
L 269.682569 455.516172 
L 273.246741 453.911945 
L 276.399032 452.154303 
L 279.332131 450.308089 
L 279.332131 450.308089 
" style="fill:none;stroke:#000000;stroke-linecap:square;stroke-width:3;"/>
   </g>
   <g id="line2d_96">
    <path clip-path="url(#p5a884ec284)" d="M 253.052538 456.705553 
L 253.052538 260.912065 
L 296.431199 260.912065 
L 296.431199 456.705553 
L 253.052538 456.705553 
" style="fill:none;stroke:#d3d3d3;stroke-linecap:square;stroke-width:0.5;"/>
   </g>
   <g id="line2d_97">
    <path clip-path="url(#p5a884ec284)" d="M 452.790856 435.274369 
L 456.058492 437.900079 
L 449.402075 449.806402 
L 445.692921 449.020814 
" style="fill:none;stroke:#000000;stroke-linecap:square;stroke-width:3;"/>
   </g>
   <g id="line2d_98">
    <path clip-path="url(#p5a884ec284)" d="M 445.692921 449.806402 
L 445.692921 435.274369 
L 456.058492 435.274369 
L 456.058492 449.806402 
L 445.692921 449.806402 
" style="fill:none;stroke:#d3d3d3;stroke-linecap:square;stroke-width:0.5;"/>
   </g>
   <g id="line2d_99">
    <path clip-path="url(#p5a884ec284)" d="M 349.505479 96.336061 
L 350.723221 96.412225 
L 351.920969 96.639467 
L 353.079054 97.014055 
L 354.178461 97.529838 
L 355.201138 98.178348 
L 356.130293 98.948935 
L 356.950668 99.828948 
L 357.648793 100.803936 
L 358.213205 101.857889 
L 358.634637 102.973502 
L 358.906168 104.132457 
L 359.02334 105.315724 
L 358.984229 106.503872 
L 358.789477 107.677394 
L 358.442283 108.81702 
L 357.948346 109.904037 
L 357.315777 110.920596 
L 356.554964 111.850005 
L 355.678398 112.677005 
L 354.700473 113.388014 
L 353.637247 113.971359 
L 352.506177 114.417462 
L 351.325835 114.718996 
L 350.115604 114.871011 
L 348.895354 114.871011 
L 347.685122 114.718996 
L 346.504781 114.417462 
L 345.373711 113.971359 
L 344.310484 113.388014 
L 343.332559 112.677005 
L 342.455994 111.850005 
L 341.69518 110.920596 
L 341.062612 109.904037 
L 340.568675 108.81702 
L 340.22148 107.677394 
L 340.026728 106.503872 
L 339.987617 105.315724 
L 340.10479 104.132457 
L 340.376321 102.973502 
L 340.797752 101.857889 
L 341.362165 100.803936 
L 342.06029 99.828948 
L 342.880665 98.948935 
L 343.809819 98.178348 
L 344.832496 97.529838 
L 345.931903 97.014055 
L 347.089989 96.639467 
L 348.287736 96.412225 
L 349.505479 96.336061 
" style="fill:none;stroke:#808080;stroke-linecap:square;stroke-width:1.5;"/>
   </g>
   <g id="line2d_100">
    <path clip-path="url(#p5a884ec284)" d="M 293.693941 249.249899 
L 294.911684 249.326063 
L 296.109432 249.553305 
L 297.267517 249.927893 
L 298.366924 250.443676 
L 299.389601 251.092186 
L 300.318755 251.862774 
L 301.13913 252.742787 
L 301.837256 253.717774 
L 302.401668 254.771728 
L 302.8231 255.887341 
L 303.094631 257.046296 
L 303.211803 258.229562 
L 303.172692 259.417711 
L 302.97794 260.591233 
L 302.630745 261.730858 
L 302.136809 262.817875 
L 301.50424 263.834434 
L 300.743427 264.763844 
L 299.866861 265.590843 
L 298.888936 266.301853 
L 297.82571 266.885198 
L 296.69464 267.3313 
L 295.514298 267.632834 
L 294.304066 267.78485 
L 293.083817 267.78485 
L 291.873585 267.632834 
L 290.693243 267.3313 
L 289.562173 266.885198 
L 288.498947 266.301853 
L 287.521022 265.590843 
L 286.644456 264.763844 
L 285.883643 263.834434 
L 285.251074 262.817875 
L 284.757138 261.730858 
L 284.409943 260.591233 
L 284.215191 259.417711 
L 284.17608 258.229562 
L 284.293252 257.046296 
L 284.564783 255.887341 
L 284.986215 254.771728 
L 285.550627 253.717774 
L 286.248753 252.742787 
L 287.069128 251.862774 
L 287.998282 251.092186 
L 289.020959 250.443676 
L 290.120366 249.927893 
L 291.278451 249.553305 
L 292.476199 249.326063 
L 293.693941 249.249899 
" style="fill:none;stroke:#808080;stroke-linecap:square;stroke-width:1.5;"/>
   </g>
   <g id="line2d_101">
    <path clip-path="url(#p5a884ec284)" d="M 275.777378 435.906861 
L 276.99512 435.983025 
L 278.192868 436.210267 
L 279.350953 436.584855 
L 280.45036 437.100638 
L 281.473037 437.749148 
L 282.402191 438.519736 
L 283.222567 439.399748 
L 283.920692 440.374736 
L 284.485104 441.428689 
L 284.906536 442.544303 
L 285.178067 443.703258 
L 285.295239 444.886524 
L 285.256128 446.074673 
L 285.061376 447.248195 
L 284.714182 448.38782 
L 284.220245 449.474837 
L 283.587676 450.491396 
L 282.826863 451.420806 
L 281.950297 452.247805 
L 280.972372 452.958815 
L 279.909146 453.54216 
L 278.778076 453.988262 
L 277.597734 454.289796 
L 276.387503 454.441812 
L 275.167253 454.441812 
L 273.957021 454.289796 
L 272.77668 453.988262 
L 271.64561 453.54216 
L 270.582383 452.958815 
L 269.604458 452.247805 
L 268.727892 451.420806 
L 267.967079 450.491396 
L 267.334511 449.474837 
L 266.840574 448.38782 
L 266.493379 447.248195 
L 266.298627 446.074673 
L 266.259516 444.886524 
L 266.376688 443.703258 
L 266.64822 442.544303 
L 267.069651 441.428689 
L 267.634064 440.374736 
L 268.332189 439.399748 
L 269.152564 438.519736 
L 270.081718 437.749148 
L 271.104395 437.100638 
L 272.203802 436.584855 
L 273.361887 436.210267 
L 274.559635 435.983025 
L 275.777378 435.906861 
" style="fill:none;stroke:#808080;stroke-linecap:square;stroke-width:1.5;"/>
   </g>
   <g id="line2d_102">
    <path clip-path="url(#p5a884ec284)" d="M 443.998181 432.799101 
L 445.215924 432.875265 
L 446.413671 433.102506 
L 447.571757 433.477094 
L 448.671164 433.992878 
L 449.693841 434.641388 
L 450.622995 435.411975 
L 451.44337 436.291988 
L 452.141495 437.266975 
L 452.705908 438.320929 
L 453.127339 439.436542 
L 453.39887 440.595497 
L 453.516043 441.778763 
L 453.476932 442.966912 
L 453.28218 444.140434 
L 452.934985 445.28006 
L 452.441048 446.367076 
L 451.80848 447.383635 
L 451.047666 448.313045 
L 450.171101 449.140044 
L 449.193176 449.851054 
L 448.129949 450.434399 
L 446.998879 450.880501 
L 445.818538 451.182036 
L 444.608306 451.334051 
L 443.388056 451.334051 
L 442.177825 451.182036 
L 440.997483 450.880501 
L 439.866413 450.434399 
L 438.803187 449.851054 
L 437.825262 449.140044 
L 436.948696 448.313045 
L 436.187883 447.383635 
L 435.555314 446.367076 
L 435.061377 445.28006 
L 434.714183 444.140434 
L 434.519431 442.966912 
L 434.48032 441.778763 
L 434.597492 440.595497 
L 434.869023 439.436542 
L 435.290455 438.320929 
L 435.854867 437.266975 
L 436.552992 436.291988 
L 437.373367 435.411975 
L 438.302522 434.641388 
L 439.325199 433.992878 
L 440.424606 433.477094 
L 441.582691 433.102506 
L 442.780438 432.875265 
L 443.998181 432.799101 
" style="fill:none;stroke:#808080;stroke-linecap:square;stroke-width:1.5;"/>
   </g>
   <g id="line2d_103">
    <path clip-path="url(#p5a884ec284)" d="M 450.059734 552.061751 
L 451.277477 552.137915 
L 452.475224 552.365157 
L 453.633309 552.739745 
L 454.732717 553.255528 
L 455.755393 553.904038 
L 456.684548 554.674626 
L 457.504923 555.554638 
L 458.203048 556.529626 
L 458.76746 557.583579 
L 459.188892 558.699193 
L 459.460423 559.858147 
L 459.577595 561.041414 
L 459.538484 562.229563 
L 459.343733 563.403085 
L 458.996538 564.54271 
L 458.502601 565.629727 
L 457.870033 566.646286 
L 457.109219 567.575696 
L 456.232654 568.402695 
L 455.254729 569.113705 
L 454.191502 569.69705 
L 453.060432 570.143152 
L 451.880091 570.444686 
L 450.669859 570.596701 
L 449.449609 570.596701 
L 448.239377 570.444686 
L 447.059036 570.143152 
L 445.927966 569.69705 
L 444.864739 569.113705 
L 443.886815 568.402695 
L 443.010249 567.575696 
L 442.249435 566.646286 
L 441.616867 565.629727 
L 441.12293 564.54271 
L 440.775735 563.403085 
L 440.580984 562.229563 
L 440.541873 561.041414 
L 440.659045 559.858147 
L 440.930576 558.699193 
L 441.352008 557.583579 
L 441.91642 556.529626 
L 442.614545 555.554638 
L 443.43492 554.674626 
L 444.364075 553.904038 
L 445.386752 553.255528 
L 446.486159 552.739745 
L 447.644244 552.365157 
L 448.841991 552.137915 
L 450.059734 552.061751 
" style="fill:none;stroke:#808080;stroke-linecap:square;stroke-width:1.5;"/>
   </g>
   <g id="line2d_104">
    <path clip-path="url(#p5a884ec284)" d="M 544.840262 586.517479 
L 546.058004 586.593643 
L 547.255752 586.820885 
L 548.413837 587.195473 
L 549.513244 587.711256 
L 550.535921 588.359766 
L 551.465075 589.130354 
L 552.28545 590.010366 
L 552.983576 590.985354 
L 553.547988 592.039307 
L 553.96942 593.154921 
L 554.240951 594.313876 
L 554.358123 595.497142 
L 554.319012 596.685291 
L 554.12426 597.858813 
L 553.777065 598.998438 
L 553.283129 600.085455 
L 552.65056 601.102014 
L 551.889747 602.031424 
L 551.013181 602.858423 
L 550.035256 603.569433 
L 548.97203 604.152778 
L 547.84096 604.59888 
L 546.660618 604.900414 
L 545.450387 605.05243 
L 544.230137 605.05243 
L 543.019905 604.900414 
L 541.839564 604.59888 
L 540.708493 604.152778 
L 539.645267 603.569433 
L 538.667342 602.858423 
L 537.790776 602.031424 
L 537.029963 601.102014 
L 536.397395 600.085455 
L 535.903458 598.998438 
L 535.556263 597.858813 
L 535.361511 596.685291 
L 535.3224 595.497142 
L 535.439572 594.313876 
L 535.711103 593.154921 
L 536.132535 592.039307 
L 536.696947 590.985354 
L 537.395073 590.010366 
L 538.215448 589.130354 
L 539.144602 588.359766 
L 540.167279 587.711256 
L 541.266686 587.195473 
L 542.424771 586.820885 
L 543.622519 586.593643 
L 544.840262 586.517479 
" style="fill:none;stroke:#808080;stroke-linecap:square;stroke-width:1.5;"/>
   </g>
   <g id="line2d_105">
    <path clip-path="url(#p5a884ec284)" d="M 544.840262 586.517479 
L 546.058004 586.593643 
L 547.255752 586.820885 
L 548.413837 587.195473 
L 549.513244 587.711256 
L 550.535921 588.359766 
L 551.465075 589.130354 
L 552.28545 590.010366 
L 552.983576 590.985354 
L 553.547988 592.039307 
L 553.96942 593.154921 
L 554.240951 594.313876 
L 554.358123 595.497142 
L 554.319012 596.685291 
L 554.12426 597.858813 
L 553.777065 598.998438 
L 553.283129 600.085455 
L 552.65056 601.102014 
L 551.889747 602.031424 
L 551.013181 602.858423 
L 550.035256 603.569433 
L 548.97203 604.152778 
L 547.84096 604.59888 
L 546.660618 604.900414 
L 545.450387 605.05243 
L 544.230137 605.05243 
L 543.019905 604.900414 
L 541.839564 604.59888 
L 540.708493 604.152778 
L 539.645267 603.569433 
L 538.667342 602.858423 
L 537.790776 602.031424 
L 537.029963 601.102014 
L 536.397395 600.085455 
L 535.903458 598.998438 
L 535.556263 597.858813 
L 535.361511 596.685291 
L 535.3224 595.497142 
L 535.439572 594.313876 
L 535.711103 593.154921 
L 536.132535 592.039307 
L 536.696947 590.985354 
L 537.395073 590.010366 
L 538.215448 589.130354 
L 539.144602 588.359766 
L 540.167279 587.711256 
L 541.266686 587.195473 
L 542.424771 586.820885 
L 543.622519 586.593643 
L 544.840262 586.517479 
" style="fill:none;stroke:#808080;stroke-linecap:square;stroke-width:1.5;"/>
   </g>
   <g id="line2d_106">
    <path clip-path="url(#p5a884ec284)" d="M 574.844237 450.602424 
L 576.06198 450.678588 
L 577.259727 450.90583 
L 578.417812 451.280418 
L 579.51722 451.796201 
L 580.539896 452.444711 
L 581.469051 453.215299 
L 582.289426 454.095312 
L 582.987551 455.070299 
L 583.551963 456.124253 
L 583.973395 457.239866 
L 584.244926 458.398821 
L 584.362098 459.582087 
L 584.322987 460.770236 
L 584.128236 461.943758 
L 583.781041 463.083383 
L 583.287104 464.1704 
L 582.654536 465.186959 
L 581.893722 466.116369 
L 581.017157 466.943368 
L 580.039232 467.654378 
L 578.976005 468.237723 
L 577.844935 468.683825 
L 576.664594 468.98536 
L 575.454362 469.137375 
L 574.234112 469.137375 
L 573.02388 468.98536 
L 571.843539 468.683825 
L 570.712469 468.237723 
L 569.649242 467.654378 
L 568.671318 466.943368 
L 567.794752 466.116369 
L 567.033938 465.186959 
L 566.40137 464.1704 
L 565.907433 463.083383 
L 565.560238 461.943758 
L 565.365487 460.770236 
L 565.326376 459.582087 
L 565.443548 458.398821 
L 565.715079 457.239866 
L 566.136511 456.124253 
L 566.700923 455.070299 
L 567.399048 454.095312 
L 568.219423 453.215299 
L 569.148578 452.444711 
L 570.171255 451.796201 
L 571.270662 451.280418 
L 572.428747 450.90583 
L 573.626494 450.678588 
L 574.844237 450.602424 
" style="fill:none;stroke:#808080;stroke-linecap:square;stroke-width:1.5;"/>
   </g>
   <g id="line2d_107">
    <path clip-path="url(#p5a884ec284)" d="M 532.41789 310.325353 
L 533.635633 310.401517 
L 534.83338 310.628758 
L 535.991466 311.003346 
L 537.090873 311.51913 
L 538.11355 312.16764 
L 539.042704 312.938227 
L 539.863079 313.81824 
L 540.561204 314.793227 
L 541.125617 315.847181 
L 541.547048 316.962794 
L 541.818579 318.121749 
L 541.935752 319.305016 
L 541.896641 320.493164 
L 541.701889 321.666686 
L 541.354694 322.806312 
L 540.860757 323.893328 
L 540.228189 324.909888 
L 539.467375 325.839297 
L 538.59081 326.666296 
L 537.612885 327.377306 
L 536.549658 327.960651 
L 535.418588 328.406754 
L 534.238247 328.708288 
L 533.028015 328.860303 
L 531.807765 328.860303 
L 530.597534 328.708288 
L 529.417192 328.406754 
L 528.286122 327.960651 
L 527.222896 327.377306 
L 526.244971 326.666296 
L 525.368405 325.839297 
L 524.607592 324.909888 
L 523.975023 323.893328 
L 523.481086 322.806312 
L 523.133892 321.666686 
L 522.93914 320.493164 
L 522.900029 319.305016 
L 523.017201 318.121749 
L 523.288732 316.962794 
L 523.710164 315.847181 
L 524.274576 314.793227 
L 524.972701 313.81824 
L 525.793076 312.938227 
L 526.722231 312.16764 
L 527.744908 311.51913 
L 528.844315 311.003346 
L 530.0024 310.628758 
L 531.200147 310.401517 
L 532.41789 310.325353 
" style="fill:none;stroke:#808080;stroke-linecap:square;stroke-width:1.5;"/>
   </g>
   <g id="line2d_108">
    <path clip-path="url(#p5a884ec284)" d="M 478.203246 174.805059 
L 479.420989 174.881223 
L 480.618736 175.108464 
L 481.776821 175.483052 
L 482.876228 175.998836 
L 483.898905 176.647346 
L 484.82806 177.417933 
L 485.648435 178.297946 
L 486.34656 179.272933 
L 486.910972 180.326887 
L 487.332404 181.4425 
L 487.603935 182.601455 
L 487.721107 183.784721 
L 487.681996 184.97287 
L 487.487245 186.146392 
L 487.14005 187.286018 
L 486.646113 188.373034 
L 486.013544 189.389594 
L 485.252731 190.319003 
L 484.376165 191.146002 
L 483.398241 191.857012 
L 482.335014 192.440357 
L 481.203944 192.88646 
L 480.023602 193.187994 
L 478.813371 193.340009 
L 477.593121 193.340009 
L 476.382889 193.187994 
L 475.202548 192.88646 
L 474.071478 192.440357 
L 473.008251 191.857012 
L 472.030326 191.146002 
L 471.153761 190.319003 
L 470.392947 189.389594 
L 469.760379 188.373034 
L 469.266442 187.286018 
L 468.919247 186.146392 
L 468.724495 184.97287 
L 468.685385 183.784721 
L 468.802557 182.601455 
L 469.074088 181.4425 
L 469.495519 180.326887 
L 470.059932 179.272933 
L 470.758057 178.297946 
L 471.578432 177.417933 
L 472.507586 176.647346 
L 473.530263 175.998836 
L 474.629671 175.483052 
L 475.787756 175.108464 
L 476.985503 174.881223 
L 478.203246 174.805059 
" style="fill:none;stroke:#808080;stroke-linecap:square;stroke-width:1.5;"/>
   </g>
   <g id="line2d_109">
    <path clip-path="url(#p5a884ec284)" d="M 478.203246 174.805059 
L 479.420989 174.881223 
L 480.618736 175.108464 
L 481.776821 175.483052 
L 482.876228 175.998836 
L 483.898905 176.647346 
L 484.82806 177.417933 
L 485.648435 178.297946 
L 486.34656 179.272933 
L 486.910972 180.326887 
L 487.332404 181.4425 
L 487.603935 182.601455 
L 487.721107 183.784721 
L 487.681996 184.97287 
L 487.487245 186.146392 
L 487.14005 187.286018 
L 486.646113 188.373034 
L 486.013544 189.389594 
L 485.252731 190.319003 
L 484.376165 191.146002 
L 483.398241 191.857012 
L 482.335014 192.440357 
L 481.203944 192.88646 
L 480.023602 193.187994 
L 478.813371 193.340009 
L 477.593121 193.340009 
L 476.382889 193.187994 
L 475.202548 192.88646 
L 474.071478 192.440357 
L 473.008251 191.857012 
L 472.030326 191.146002 
L 471.153761 190.319003 
L 470.392947 189.389594 
L 469.760379 188.373034 
L 469.266442 187.286018 
L 468.919247 186.146392 
L 468.724495 184.97287 
L 468.685385 183.784721 
L 468.802557 182.601455 
L 469.074088 181.4425 
L 469.495519 180.326887 
L 470.059932 179.272933 
L 470.758057 178.297946 
L 471.578432 177.417933 
L 472.507586 176.647346 
L 473.530263 175.998836 
L 474.629671 175.483052 
L 475.787756 175.108464 
L 476.985503 174.881223 
L 478.203246 174.805059 
" style="fill:none;stroke:#808080;stroke-linecap:square;stroke-width:1.5;"/>
   </g>
   <g id="line2d_110"/>
   <g id="line2d_111"/>
   <g id="line2d_112"/>
   <g id="line2d_113"/>
   <g id="line2d_114"/>
   <g id="line2d_115"/>
   <g id="line2d_116"/>
   <g id="line2d_117"/>
   <g id="line2d_118"/>
   <g id="line2d_119"/>
   <g id="line2d_120"/>
   <g id="line2d_121"/>
   <g id="line2d_122"/>
   <g id="line2d_123"/>
   <g id="line2d_124"/>
   <g id="line2d_125"/>
   <g id="line2d_126"/>
   <g id="line2d_127"/>
   <g id="line2d_128"/>
   <g id="line2d_129"/>
   <g id="line2d_130"/>
   <g id="line2d_131"/>
   <g id="line2d_132"/>
   <g id="line2d_133"/>
   <g id="line2d_134"/>
   <g id="line2d_135"/>
   <g id="line2d_136"/>
   <g id="line2d_137"/>
   <g id="line2d_138"/>
   <g id="line2d_139"/>
   <g id="line2d_140"/>
   <g id="line2d_141"/>
   <g id="line2d_142"/>
   <g id="line2d_143"/>
   <g id="line2d_144"/>
   <g id="line2d_145"/>
   <g id="line2d_146"/>
   <g id="line2d_147"/>
   <g id="line2d_148"/>
   <g id="line2d_149"/>
   <g id="line2d_150"/>
   <g id="line2d_151"/>
   <g id="line2d_152"/>
   <g id="line2d_153"/>
   <g id="line2d_154"/>
   <g id="line2d_155"/>
   <g id="line2d_156"/>
   <g id="line2d_157"/>
   <g id="line2d_158"/>
   <g id="line2d_159"/>
   <g id="line2d_160"/>
   <g id="patch_3">
    <path d="M 90 630 
L 90 86.4 
" style="fill:none;stroke:#000000;stroke-linecap:square;stroke-linejoin:miter;stroke-width:0.8;"/>
   </g>
   <g id="patch_4">
    <path d="M 648 630 
L 648 86.4 
" style="fill:none;stroke:#000000;stroke-linecap:square;stroke-linejoin:miter;stroke-width:0.8;"/>
   </g>
   <g id="patch_5">
    <path d="M 90 630 
L 648 630 
" style="fill:none;stroke:#000000;stroke-linecap:square;stroke-linejoin:miter;stroke-width:0.8;"/>
   </g>
   <g id="patch_6">
    <path d="M 90 86.4 
L 648 86.4 
" style="fill:none;stroke:#000000;stroke-linecap:square;stroke-linejoin:miter;stroke-width:0.8;"/>
   </g>
   <g id="text_19">
    <!-- 0 -->
    <g transform="translate(172.976718 425.47121)scale(0.1 -0.1)">
     <use xlink:href="#DejaVuSans-30"/>
    </g>
   </g>
   <g id="text_20">
    <!-- 0 -->
    <g transform="translate(172.976718 416.194205)scale(0.1 -0.1)">
     <use xlink:href="#DejaVuSans-30"/>
    </g>
   </g>
   <g id="text_21">
    <!-- 0 -->
    <g transform="translate(172.976718 406.917199)scale(0.1 -0.1)">
     <use xlink:href="#DejaVuSans-30"/>
    </g>
   </g>
  </g>
 </g>
 <defs>
  <clipPath id="p5a884ec284">
   <rect height="543.6" width="558" x="90" y="86.4"/>
  </clipPath>
 </defs>
</svg>
