<?xml version="1.0" encoding="utf-8" standalone="no"?>
<!DOCTYPE svg PUBLIC "-//W3C//DTD SVG 1.1//EN"
  "http://www.w3.org/Graphics/SVG/1.1/DTD/svg11.dtd">
<svg height="720pt" version="1.1" viewBox="0 0 720 720" width="720pt" xmlns="http://www.w3.org/2000/svg" xmlns:xlink="http://www.w3.org/1999/xlink">
 <metadata>
  <rdf:RDF xmlns:cc="http://creativecommons.org/ns#" xmlns:dc="http://purl.org/dc/elements/1.1/" xmlns:rdf="http://www.w3.org/1999/02/22-rdf-syntax-ns#">
   <cc:Work>
    <dc:type rdf:resource="http://purl.org/dc/dcmitype/StillImage"/>
    <dc:date>2022-01-11T13:25:58.681364</dc:date>
    <dc:format>image/svg+xml</dc:format>
    <dc:creator>
     <cc:Agent>
      <dc:title>Matplotlib v3.4.3, https://matplotlib.org/</dc:title>
     </cc:Agent>
    </dc:creator>
   </cc:Work>
  </rdf:RDF>
 </metadata>
 <defs>
  <style type="text/css">*{stroke-linecap:butt;stroke-linejoin:round;}</style>
 </defs>
 <g id="figure_1">
  <g id="patch_1">
   <path d="M 0 720 
L 720 720 
L 720 0 
L 0 0 
z
" style="fill:none;"/>
  </g>
  <g id="axes_1">
   <g id="patch_2">
    <path d="M 90 630 
L 648 630 
L 648 86.4 
L 90 86.4 
z
" style="fill:#ffffff;"/>
   </g>
   <g id="PathCollection_1">
    <defs>
     <path d="M 0.972304 -8.870829 
Q -1.277159 -8.870829 -2.413438 -6.653699 
Q -3.545098 -4.441189 -3.545098 0.006929 
Q -3.545098 4.436569 -2.413438 6.653699 
Q -1.277159 8.870829 0.972304 8.870829 
Q 3.240243 8.870829 4.371903 6.653699 
Q 5.508182 4.436569 5.508182 0.006929 
Q 5.508182 -4.441189 4.371903 -6.653699 
Q 3.240243 -8.870829 0.972304 -8.870829 
z
M 0.972304 -11.18034 
Q 4.598235 -11.18034 6.51051 -8.311928 
Q 8.422784 -5.448135 8.422784 0.006929 
Q 8.422784 5.448135 6.51051 8.316547 
Q 4.598235 11.18034 0.972304 11.18034 
Q -2.649008 11.18034 -4.561283 8.316547 
Q -6.473558 5.448135 -6.473558 0.006929 
Q -6.473558 -5.448135 -4.561283 -8.311928 
Q -2.649008 -11.18034 0.972304 -11.18034 
z
" id="ma512a950ed" style="stroke:#808080;"/>
    </defs>
    <g clip-path="url(#p8780edcbcc)">
     <use style="fill:#808080;stroke:#808080;" x="289.814737" xlink:href="#ma512a950ed" y="423.270098"/>
    </g>
   </g>
   <g id="PathCollection_2">
    <defs>
     <path d="M -4.535873 8.63565 
L 0.404946 8.63565 
L 0.404946 -8.424791 
L -4.971969 -7.346533 
L -4.971969 -10.102082 
L 0.376192 -11.18034 
L 3.400108 -11.18034 
L 3.400108 8.63565 
L 8.340927 8.63565 
L 8.340927 11.18034 
L -4.535873 11.18034 
L -4.535873 8.63565 
z
" id="m24a63d7b8c" style="stroke:#808080;"/>
    </defs>
    <g clip-path="url(#p8780edcbcc)">
     <use style="fill:#808080;stroke:#808080;" x="161.694059" xlink:href="#m24a63d7b8c" y="307.343569"/>
    </g>
   </g>
   <g id="PathCollection_3">
    <defs>
     <path d="M -2.294912 8.680651 
L 8.075736 8.680651 
L 8.075736 11.18034 
L -5.867913 11.18034 
L -5.867913 8.680651 
Q -4.177916 6.929457 -1.259259 3.982555 
Q 1.664105 1.030945 2.4126 0.174178 
Q 3.838976 -1.426376 4.403877 -2.537349 
Q 4.973486 -3.648321 4.973486 -4.721634 
Q 4.973486 -6.472828 3.744825 -7.574386 
Q 2.516165 -8.680651 0.543718 -8.680651 
Q -0.854413 -8.680651 -2.407892 -8.195778 
Q -3.956663 -7.710904 -5.72198 -6.722326 
L -5.72198 -9.725719 
Q -3.928418 -10.445968 -2.370232 -10.813154 
Q -0.807338 -11.18034 0.487227 -11.18034 
Q 3.900173 -11.18034 5.929111 -9.471513 
Q 7.958048 -7.767394 7.958048 -4.914642 
Q 7.958048 -3.558879 7.449637 -2.344341 
Q 6.945933 -1.13451 5.604292 0.513119 
Q 5.237107 0.941502 3.264659 2.979855 
Q 1.296919 5.018207 -2.294912 8.680651 
z
" id="m01d875b3cf" style="stroke:#808080;"/>
    </defs>
    <g clip-path="url(#p8780edcbcc)">
     <use style="fill:#808080;stroke:#808080;" x="131.790721" xlink:href="#m01d875b3cf" y="155.719983"/>
    </g>
   </g>
   <g id="PathCollection_4">
    <defs>
     <path d="M 3.77605 -0.861447 
Q 5.868466 -0.413402 7.041697 1.004637 
Q 8.219548 2.418057 8.219548 4.496617 
Q 8.219548 7.683741 6.025513 9.43435 
Q 3.831478 11.18034 -0.210165 11.18034 
Q -1.563539 11.18034 -3.000054 10.912437 
Q -4.436569 10.644533 -5.965465 10.108727 
L -5.965465 7.295743 
Q -4.755282 8.002454 -3.314147 8.362737 
Q -1.868394 8.723021 -0.293308 8.723021 
Q 2.445772 8.723021 3.882287 7.64217 
Q 5.318802 6.561319 5.318802 4.496617 
Q 5.318802 2.588961 3.983905 1.517348 
Q 2.649008 0.441116 0.270213 0.441116 
L -2.242535 0.441116 
L -2.242535 -1.956155 
L 0.385688 -1.956155 
Q 2.533533 -1.956155 3.674431 -2.815293 
Q 4.815329 -3.674431 4.815329 -5.291088 
Q 4.815329 -6.949317 3.637479 -7.836169 
Q 2.464248 -8.72764 0.270213 -8.72764 
Q -0.930733 -8.72764 -2.302582 -8.464356 
Q -3.674431 -8.20569 -5.318802 -7.660646 
L -5.318802 -10.256536 
Q -3.655955 -10.718438 -2.205582 -10.949389 
Q -0.75521 -11.18034 0.528878 -11.18034 
Q 3.849954 -11.18034 5.780705 -9.66992 
Q 7.716074 -8.164119 7.716074 -5.595944 
Q 7.716074 -3.803764 6.690652 -2.570485 
Q 5.665229 -1.337207 3.77605 -0.861447 
z
" id="mdc07aa3eb0" style="stroke:#808080;"/>
    </defs>
    <g clip-path="url(#p8780edcbcc)">
     <use style="fill:#808080;stroke:#808080;" x="246.384338" xlink:href="#mdc07aa3eb0" y="150.170766"/>
    </g>
   </g>
   <g id="PathCollection_5">
    <defs>
     <path d="M 2.695646 -8.544598 
L -4.943215 3.392919 
L 2.695646 3.392919 
L 2.695646 -8.544598 
z
M 1.900131 -11.18034 
L 5.705184 -11.18034 
L 5.705184 3.392919 
L 8.896829 3.392919 
L 8.896829 5.908855 
L 5.705184 5.908855 
L 5.705184 11.18034 
L 2.695646 11.18034 
L 2.695646 5.908855 
L -7.396852 5.908855 
L -7.396852 2.99037 
L 1.900131 -11.18034 
z
" id="md430373126" style="stroke:#808080;"/>
    </defs>
    <g clip-path="url(#p8780edcbcc)">
     <use style="fill:#808080;stroke:#808080;" x="255.021029" xlink:href="#md430373126" y="289.390637"/>
    </g>
   </g>
   <g id="PathCollection_6">
    <defs>
     <path d="M -5.008473 -11.18034 
L 6.639575 -11.18034 
L 6.639575 -8.679629 
L -2.291535 -8.679629 
L -2.291535 -3.306861 
Q -1.647555 -3.527789 -1.003575 -3.635902 
Q -0.354894 -3.744015 0.293787 -3.744015 
Q 3.964943 -3.744015 6.108409 -1.732165 
Q 8.256576 0.279685 8.256576 3.715812 
Q 8.256576 7.255352 6.052002 9.220196 
Q 3.847428 11.18034 -0.16217 11.18034 
Q -1.544142 11.18034 -2.97782 10.945311 
Q -4.406798 10.710281 -5.934488 10.240223 
L -5.934488 7.255352 
Q -4.613624 7.974541 -3.203448 8.327085 
Q -1.793273 8.679629 -0.223278 8.679629 
Q 2.319738 8.679629 3.800422 7.344663 
Q 5.285807 6.009697 5.285807 3.715812 
Q 5.285807 1.426627 3.800422 0.091661 
Q 2.319738 -1.248005 -0.223278 -1.248005 
Q -1.412526 -1.248005 -2.597073 -0.984772 
Q -3.77692 -0.72154 -5.008473 -0.16217 
L -5.008473 -11.18034 
z
" id="mf822ff1e02" style="stroke:#808080;"/>
    </defs>
    <g clip-path="url(#p8780edcbcc)">
     <use style="fill:#808080;stroke:#808080;" x="239.238071" xlink:href="#mf822ff1e02" y="444.905172"/>
    </g>
   </g>
   <g id="PathCollection_7">
    <defs>
     <path d="M 1.286397 -1.175541 
Q -0.676687 -1.175541 -1.826823 0.168594 
Q -2.97234 1.50811 -2.97234 3.845335 
Q -2.97234 6.168702 -1.826823 7.522075 
Q -0.676687 8.870829 1.286397 8.870829 
Q 3.249481 8.870829 4.394998 7.522075 
Q 5.540515 6.168702 5.540515 3.845335 
Q 5.540515 1.50811 4.394998 0.168594 
Q 3.249481 -1.175541 1.286397 -1.175541 
z
M 7.07403 -10.316583 
L 7.07403 -7.660646 
Q 5.974703 -8.177976 4.8569 -8.450499 
Q 3.739097 -8.72764 2.63977 -8.72764 
Q -0.247118 -8.72764 -1.771394 -6.778413 
Q -3.291052 -4.829186 -3.508146 -0.889162 
Q -2.658246 -2.145535 -1.374159 -2.815293 
Q -0.085452 -3.485051 1.457301 -3.485051 
Q 4.704473 -3.485051 6.589033 -1.512729 
Q 8.473594 0.454974 8.473594 3.845335 
Q 8.473594 7.166411 6.51051 9.175685 
Q 4.547426 11.18034 1.286397 11.18034 
Q -2.45501 11.18034 -4.43195 8.316547 
Q -6.408891 5.448135 -6.408891 0.006929 
Q -6.408891 -5.101708 -3.983905 -8.141024 
Q -1.55892 -11.18034 2.524295 -11.18034 
Q 3.623622 -11.18034 4.741425 -10.963246 
Q 5.859228 -10.746152 7.07403 -10.316583 
z
" id="me034dcfef1" style="stroke:#808080;"/>
    </defs>
    <g clip-path="url(#p8780edcbcc)">
     <use style="fill:#808080;stroke:#808080;" x="193.977769" xlink:href="#me034dcfef1" y="593.500948"/>
    </g>
   </g>
   <g id="PathCollection_8">
    <defs>
     <path d="M -5.93042 -11.18034 
L 8.446356 -11.18034 
L 8.446356 -9.891222 
L 0.32827 11.18034 
L -2.829829 11.18034 
L 4.809032 -8.630858 
L -5.93042 -8.630858 
L -5.93042 -11.18034 
z
" id="mf67ed7248b" style="stroke:#808080;"/>
    </defs>
    <g clip-path="url(#p8780edcbcc)">
     <use style="fill:#808080;stroke:#808080;" x="193.977769" xlink:href="#mf67ed7248b" y="593.500948"/>
    </g>
   </g>
   <g id="PathCollection_9">
    <defs>
     <path d="M 1.002328 0.524259 
Q -1.076232 0.524259 -2.267939 1.637443 
Q -3.455028 2.750627 -3.455028 4.695235 
Q -3.455028 6.644461 -2.267939 7.757645 
Q -1.076232 8.870829 1.002328 8.870829 
Q 3.080887 8.870829 4.277213 7.753026 
Q 5.478159 6.630604 5.478159 4.695235 
Q 5.478159 2.750627 4.286451 1.637443 
Q 3.099363 0.524259 1.002328 0.524259 
z
M -1.912275 -0.713639 
Q -3.787597 -1.175541 -4.836115 -2.459629 
Q -5.880014 -3.748335 -5.880014 -5.595944 
Q -5.880014 -8.177976 -4.041643 -9.679158 
Q -2.198654 -11.18034 1.002328 -11.18034 
Q 4.221785 -11.18034 6.055536 -9.679158 
Q 7.889288 -8.177976 7.889288 -5.595944 
Q 7.889288 -3.748335 6.84077 -2.459629 
Q 5.796871 -1.175541 3.935406 -0.713639 
Q 6.041679 -0.224023 7.214911 1.207874 
Q 8.392761 2.635151 8.392761 4.695235 
Q 8.392761 7.83155 6.480486 9.508254 
Q 4.568212 11.18034 1.002328 11.18034 
Q -2.558938 11.18034 -4.475831 9.508254 
Q -6.388106 7.83155 -6.388106 4.695235 
Q -6.388106 2.635151 -5.205636 1.207874 
Q -4.018548 -0.224023 -1.912275 -0.713639 
z
M -2.979268 -5.318802 
Q -2.979268 -3.646717 -1.93537 -2.709056 
Q -0.886852 -1.771394 1.002328 -1.771394 
Q 2.882269 -1.771394 3.940025 -2.709056 
Q 5.0024 -3.646717 5.0024 -5.318802 
Q 5.0024 -6.995507 3.940025 -7.933168 
Q 2.882269 -8.870829 1.002328 -8.870829 
Q -0.886852 -8.870829 -1.93537 -7.933168 
Q -2.979268 -6.995507 -2.979268 -5.318802 
z
" id="m0faa65bcc9" style="stroke:#808080;"/>
    </defs>
    <g clip-path="url(#p8780edcbcc)">
     <use style="fill:#808080;stroke:#808080;" x="320.43805" xlink:href="#m0faa65bcc9" y="568.12541"/>
    </g>
   </g>
   <g id="PathCollection_10">
    <defs>
     <path d="M -5.117875 10.311964 
L -5.117875 7.656027 
Q -4.018548 8.177976 -2.896126 8.450499 
Q -1.769085 8.723021 -0.683615 8.723021 
Q 2.203273 8.723021 3.722931 6.783032 
Q 5.247208 4.843043 5.464302 0.884542 
Q 4.628259 2.127059 3.339552 2.792198 
Q 2.055464 3.457337 0.498854 3.457337 
Q -2.73446 3.457337 -4.619021 1.503491 
Q -6.503581 -0.454974 -6.503581 -3.849954 
Q -6.503581 -7.166411 -4.540497 -9.171066 
Q -2.577414 -11.18034 0.683615 -11.18034 
Q 4.425022 -11.18034 6.392725 -8.311928 
Q 8.365047 -5.448135 8.365047 0.006929 
Q 8.365047 5.101708 5.94468 8.141024 
Q 3.528932 11.18034 -0.554282 11.18034 
Q -1.653609 11.18034 -2.780651 10.963246 
Q -3.903073 10.746152 -5.117875 10.311964 
z
M 0.683615 1.175541 
Q 2.646699 1.175541 3.792216 -0.163975 
Q 4.942352 -1.50811 4.942352 -3.849954 
Q 4.942352 -6.173321 3.792216 -7.522075 
Q 2.646699 -8.870829 0.683615 -8.870829 
Q -1.279469 -8.870829 -2.424986 -7.522075 
Q -3.570503 -6.173321 -3.570503 -3.849954 
Q -3.570503 -1.50811 -2.424986 -0.163975 
Q -1.279469 1.175541 0.683615 1.175541 
z
" id="mb5853e3d0f" style="stroke:#808080;"/>
    </defs>
    <g clip-path="url(#p8780edcbcc)">
     <use style="fill:#808080;stroke:#808080;" x="330.376593" xlink:href="#mb5853e3d0f" y="443.769959"/>
    </g>
   </g>
   <g id="PathCollection_11">
    <defs>
     <path d="M -8.880215 5.210045 
L -5.893528 5.210045 
L -5.893528 -5.10286 
L -9.143831 -4.451061 
L -9.143831 -6.116769 
L -5.910909 -6.768568 
L -4.082976 -6.768568 
L -4.082976 5.210045 
L -1.096289 5.210045 
L -1.096289 6.74829 
L -8.880215 6.74829 
L -8.880215 5.210045 
z
M 6.507667 -5.563464 
Q 5.096885 -5.563464 4.384252 -4.17296 
Q 3.674515 -2.785353 3.674515 0.004345 
Q 3.674515 2.782456 4.384252 4.17296 
Q 5.096885 5.563464 6.507667 5.563464 
Q 7.930037 5.563464 8.639773 4.17296 
Q 9.352407 2.782456 9.352407 0.004345 
Q 9.352407 -2.785353 8.639773 -4.17296 
Q 7.930037 -5.563464 6.507667 -5.563464 
z
M 6.507667 -7.011906 
Q 8.781721 -7.011906 9.98103 -5.212941 
Q 11.18034 -3.416874 11.18034 0.004345 
Q 11.18034 3.416874 9.98103 5.215838 
Q 8.781721 7.011906 6.507667 7.011906 
Q 4.236511 7.011906 3.037201 5.215838 
Q 1.837891 3.416874 1.837891 0.004345 
Q 1.837891 -3.416874 3.037201 -5.212941 
Q 4.236511 -7.011906 6.507667 -7.011906 
z
" id="m8bba6a1006" style="stroke:#808080;"/>
    </defs>
    <g clip-path="url(#p8780edcbcc)">
     <use style="fill:#808080;stroke:#808080;" x="330.376593" xlink:href="#m8bba6a1006" y="443.769959"/>
    </g>
   </g>
   <g id="PathCollection_12">
    <defs>
     <path d="M -8.829662 5.334915 
L -5.777332 5.334915 
L -5.777332 -5.204651 
L -9.099072 -4.538526 
L -9.099072 -6.240844 
L -5.795096 -6.906968 
L -3.926987 -6.906968 
L -3.926987 5.334915 
L -0.874658 5.334915 
L -0.874658 6.906968 
L -8.829662 6.906968 
L -8.829662 5.334915 
z
M 3.225336 5.334915 
L 6.277666 5.334915 
L 6.277666 -5.204651 
L 2.955926 -4.538526 
L 2.955926 -6.240844 
L 6.259902 -6.906968 
L 8.128011 -6.906968 
L 8.128011 5.334915 
L 11.18034 5.334915 
L 11.18034 6.906968 
L 3.225336 6.906968 
L 3.225336 5.334915 
z
" id="mec05c72b89" style="stroke:#808080;"/>
    </defs>
    <g clip-path="url(#p8780edcbcc)">
     <use style="fill:#808080;stroke:#808080;" x="428.771091" xlink:href="#mec05c72b89" y="429.574037"/>
    </g>
   </g>
   <g id="PathCollection_13"/>
   <g id="PathCollection_14"/>
   <g id="PathCollection_15"/>
   <g id="PathCollection_16"/>
   <g id="PathCollection_17"/>
   <g id="matplotlib.axis_1">
    <g id="xtick_1">
     <g id="line2d_1">
      <defs>
       <path d="M 0 0 
L 0 3.5 
" id="m6bdd5d6f90" style="stroke:#000000;stroke-width:0.8;"/>
      </defs>
      <g>
       <use style="stroke:#000000;stroke-width:0.8;" x="91.073373" xlink:href="#m6bdd5d6f90" y="630"/>
      </g>
     </g>
     <g id="text_1">
      <!-- −300 -->
      <g transform="translate(77.33978 644.598438)scale(0.1 -0.1)">
       <defs>
        <path d="M 678 2272 
L 4684 2272 
L 4684 1741 
L 678 1741 
L 678 2272 
z
" id="DejaVuSans-2212" transform="scale(0.015625)"/>
        <path d="M 2597 2516 
Q 3050 2419 3304 2112 
Q 3559 1806 3559 1356 
Q 3559 666 3084 287 
Q 2609 -91 1734 -91 
Q 1441 -91 1130 -33 
Q 819 25 488 141 
L 488 750 
Q 750 597 1062 519 
Q 1375 441 1716 441 
Q 2309 441 2620 675 
Q 2931 909 2931 1356 
Q 2931 1769 2642 2001 
Q 2353 2234 1838 2234 
L 1294 2234 
L 1294 2753 
L 1863 2753 
Q 2328 2753 2575 2939 
Q 2822 3125 2822 3475 
Q 2822 3834 2567 4026 
Q 2313 4219 1838 4219 
Q 1578 4219 1281 4162 
Q 984 4106 628 3988 
L 628 4550 
Q 988 4650 1302 4700 
Q 1616 4750 1894 4750 
Q 2613 4750 3031 4423 
Q 3450 4097 3450 3541 
Q 3450 3153 3228 2886 
Q 3006 2619 2597 2516 
z
" id="DejaVuSans-33" transform="scale(0.015625)"/>
        <path d="M 2034 4250 
Q 1547 4250 1301 3770 
Q 1056 3291 1056 2328 
Q 1056 1369 1301 889 
Q 1547 409 2034 409 
Q 2525 409 2770 889 
Q 3016 1369 3016 2328 
Q 3016 3291 2770 3770 
Q 2525 4250 2034 4250 
z
M 2034 4750 
Q 2819 4750 3233 4129 
Q 3647 3509 3647 2328 
Q 3647 1150 3233 529 
Q 2819 -91 2034 -91 
Q 1250 -91 836 529 
Q 422 1150 422 2328 
Q 422 3509 836 4129 
Q 1250 4750 2034 4750 
z
" id="DejaVuSans-30" transform="scale(0.015625)"/>
       </defs>
       <use xlink:href="#DejaVuSans-2212"/>
       <use x="83.789062" xlink:href="#DejaVuSans-33"/>
       <use x="147.412109" xlink:href="#DejaVuSans-30"/>
       <use x="211.035156" xlink:href="#DejaVuSans-30"/>
      </g>
     </g>
    </g>
    <g id="xtick_2">
     <g id="line2d_2">
      <g>
       <use style="stroke:#000000;stroke-width:0.8;" x="178.121698" xlink:href="#m6bdd5d6f90" y="630"/>
      </g>
     </g>
     <g id="text_2">
      <!-- −200 -->
      <g transform="translate(164.388104 644.598438)scale(0.1 -0.1)">
       <defs>
        <path d="M 1228 531 
L 3431 531 
L 3431 0 
L 469 0 
L 469 531 
Q 828 903 1448 1529 
Q 2069 2156 2228 2338 
Q 2531 2678 2651 2914 
Q 2772 3150 2772 3378 
Q 2772 3750 2511 3984 
Q 2250 4219 1831 4219 
Q 1534 4219 1204 4116 
Q 875 4013 500 3803 
L 500 4441 
Q 881 4594 1212 4672 
Q 1544 4750 1819 4750 
Q 2544 4750 2975 4387 
Q 3406 4025 3406 3419 
Q 3406 3131 3298 2873 
Q 3191 2616 2906 2266 
Q 2828 2175 2409 1742 
Q 1991 1309 1228 531 
z
" id="DejaVuSans-32" transform="scale(0.015625)"/>
       </defs>
       <use xlink:href="#DejaVuSans-2212"/>
       <use x="83.789062" xlink:href="#DejaVuSans-32"/>
       <use x="147.412109" xlink:href="#DejaVuSans-30"/>
       <use x="211.035156" xlink:href="#DejaVuSans-30"/>
      </g>
     </g>
    </g>
    <g id="xtick_3">
     <g id="line2d_3">
      <g>
       <use style="stroke:#000000;stroke-width:0.8;" x="265.170023" xlink:href="#m6bdd5d6f90" y="630"/>
      </g>
     </g>
     <g id="text_3">
      <!-- −100 -->
      <g transform="translate(251.436429 644.598438)scale(0.1 -0.1)">
       <defs>
        <path d="M 794 531 
L 1825 531 
L 1825 4091 
L 703 3866 
L 703 4441 
L 1819 4666 
L 2450 4666 
L 2450 531 
L 3481 531 
L 3481 0 
L 794 0 
L 794 531 
z
" id="DejaVuSans-31" transform="scale(0.015625)"/>
       </defs>
       <use xlink:href="#DejaVuSans-2212"/>
       <use x="83.789062" xlink:href="#DejaVuSans-31"/>
       <use x="147.412109" xlink:href="#DejaVuSans-30"/>
       <use x="211.035156" xlink:href="#DejaVuSans-30"/>
      </g>
     </g>
    </g>
    <g id="xtick_4">
     <g id="line2d_4">
      <g>
       <use style="stroke:#000000;stroke-width:0.8;" x="352.218347" xlink:href="#m6bdd5d6f90" y="630"/>
      </g>
     </g>
     <g id="text_4">
      <!-- 0 -->
      <g transform="translate(349.037097 644.598438)scale(0.1 -0.1)">
       <use xlink:href="#DejaVuSans-30"/>
      </g>
     </g>
    </g>
    <g id="xtick_5">
     <g id="line2d_5">
      <g>
       <use style="stroke:#000000;stroke-width:0.8;" x="439.266672" xlink:href="#m6bdd5d6f90" y="630"/>
      </g>
     </g>
     <g id="text_5">
      <!-- 100 -->
      <g transform="translate(429.722922 644.598438)scale(0.1 -0.1)">
       <use xlink:href="#DejaVuSans-31"/>
       <use x="63.623047" xlink:href="#DejaVuSans-30"/>
       <use x="127.246094" xlink:href="#DejaVuSans-30"/>
      </g>
     </g>
    </g>
    <g id="xtick_6">
     <g id="line2d_6">
      <g>
       <use style="stroke:#000000;stroke-width:0.8;" x="526.314997" xlink:href="#m6bdd5d6f90" y="630"/>
      </g>
     </g>
     <g id="text_6">
      <!-- 200 -->
      <g transform="translate(516.771247 644.598438)scale(0.1 -0.1)">
       <use xlink:href="#DejaVuSans-32"/>
       <use x="63.623047" xlink:href="#DejaVuSans-30"/>
       <use x="127.246094" xlink:href="#DejaVuSans-30"/>
      </g>
     </g>
    </g>
    <g id="xtick_7">
     <g id="line2d_7">
      <g>
       <use style="stroke:#000000;stroke-width:0.8;" x="613.363321" xlink:href="#m6bdd5d6f90" y="630"/>
      </g>
     </g>
     <g id="text_7">
      <!-- 300 -->
      <g transform="translate(603.819571 644.598438)scale(0.1 -0.1)">
       <use xlink:href="#DejaVuSans-33"/>
       <use x="63.623047" xlink:href="#DejaVuSans-30"/>
       <use x="127.246094" xlink:href="#DejaVuSans-30"/>
      </g>
     </g>
    </g>
   </g>
   <g id="matplotlib.axis_2">
    <g id="ytick_1">
     <g id="line2d_8">
      <defs>
       <path d="M 0 0 
L -3.5 0 
" id="m6eea9dfb64" style="stroke:#000000;stroke-width:0.8;"/>
      </defs>
      <g>
       <use style="stroke:#000000;stroke-width:0.8;" x="90" xlink:href="#m6eea9dfb64" y="628.954326"/>
      </g>
     </g>
     <g id="text_8">
      <!-- −300 -->
      <g transform="translate(55.532812 632.753545)scale(0.1 -0.1)">
       <use xlink:href="#DejaVuSans-2212"/>
       <use x="83.789062" xlink:href="#DejaVuSans-33"/>
       <use x="147.412109" xlink:href="#DejaVuSans-30"/>
       <use x="211.035156" xlink:href="#DejaVuSans-30"/>
      </g>
     </g>
    </g>
    <g id="ytick_2">
     <g id="line2d_9">
      <g>
       <use style="stroke:#000000;stroke-width:0.8;" x="90" xlink:href="#m6eea9dfb64" y="544.15241"/>
      </g>
     </g>
     <g id="text_9">
      <!-- −200 -->
      <g transform="translate(55.532812 547.951629)scale(0.1 -0.1)">
       <use xlink:href="#DejaVuSans-2212"/>
       <use x="83.789062" xlink:href="#DejaVuSans-32"/>
       <use x="147.412109" xlink:href="#DejaVuSans-30"/>
       <use x="211.035156" xlink:href="#DejaVuSans-30"/>
      </g>
     </g>
    </g>
    <g id="ytick_3">
     <g id="line2d_10">
      <g>
       <use style="stroke:#000000;stroke-width:0.8;" x="90" xlink:href="#m6eea9dfb64" y="459.350494"/>
      </g>
     </g>
     <g id="text_10">
      <!-- −100 -->
      <g transform="translate(55.532812 463.149713)scale(0.1 -0.1)">
       <use xlink:href="#DejaVuSans-2212"/>
       <use x="83.789062" xlink:href="#DejaVuSans-31"/>
       <use x="147.412109" xlink:href="#DejaVuSans-30"/>
       <use x="211.035156" xlink:href="#DejaVuSans-30"/>
      </g>
     </g>
    </g>
    <g id="ytick_4">
     <g id="line2d_11">
      <g>
       <use style="stroke:#000000;stroke-width:0.8;" x="90" xlink:href="#m6eea9dfb64" y="374.548578"/>
      </g>
     </g>
     <g id="text_11">
      <!-- 0 -->
      <g transform="translate(76.6375 378.347797)scale(0.1 -0.1)">
       <use xlink:href="#DejaVuSans-30"/>
      </g>
     </g>
    </g>
    <g id="ytick_5">
     <g id="line2d_12">
      <g>
       <use style="stroke:#000000;stroke-width:0.8;" x="90" xlink:href="#m6eea9dfb64" y="289.746662"/>
      </g>
     </g>
     <g id="text_12">
      <!-- 100 -->
      <g transform="translate(63.9125 293.54588)scale(0.1 -0.1)">
       <use xlink:href="#DejaVuSans-31"/>
       <use x="63.623047" xlink:href="#DejaVuSans-30"/>
       <use x="127.246094" xlink:href="#DejaVuSans-30"/>
      </g>
     </g>
    </g>
    <g id="ytick_6">
     <g id="line2d_13">
      <g>
       <use style="stroke:#000000;stroke-width:0.8;" x="90" xlink:href="#m6eea9dfb64" y="204.944745"/>
      </g>
     </g>
     <g id="text_13">
      <!-- 200 -->
      <g transform="translate(63.9125 208.743964)scale(0.1 -0.1)">
       <use xlink:href="#DejaVuSans-32"/>
       <use x="63.623047" xlink:href="#DejaVuSans-30"/>
       <use x="127.246094" xlink:href="#DejaVuSans-30"/>
      </g>
     </g>
    </g>
    <g id="ytick_7">
     <g id="line2d_14">
      <g>
       <use style="stroke:#000000;stroke-width:0.8;" x="90" xlink:href="#m6eea9dfb64" y="120.142829"/>
      </g>
     </g>
     <g id="text_14">
      <!-- 300 -->
      <g transform="translate(63.9125 123.942048)scale(0.1 -0.1)">
       <use xlink:href="#DejaVuSans-33"/>
       <use x="63.623047" xlink:href="#DejaVuSans-30"/>
       <use x="127.246094" xlink:href="#DejaVuSans-30"/>
      </g>
     </g>
    </g>
   </g>
   <g id="line2d_15">
    <path clip-path="url(#p8780edcbcc)" d="M 428.771091 429.574037 
L 429.07482 433.839809 
L 429.071368 438.115841 
L 428.695737 442.375753 
L 427.869525 446.573797 
L 426.506514 450.634978 
L 424.530627 454.447428 
L 421.909369 457.869511 
L 418.687283 460.764923 
L 414.984733 463.053072 
L 410.952862 464.732604 
L 406.724376 465.861049 
L 402.393369 466.518832 
L 398.019036 466.784645 
L 393.636471 466.725642 
L 389.265899 466.396007 
L 384.918758 465.838632 
L 380.601343 465.087396 
L 376.316925 464.169225 
L 372.066988 463.105721 
L 367.851955 461.9144 
L 363.67162 460.609622 
L 359.525415 459.203275 
L 355.41257 457.705304 
L 351.332212 456.124101 
L 347.283429 454.466806 
L 343.26531 452.739539 
L 339.276963 450.947584 
L 335.317536 449.095532 
L 331.386221 447.187394 
L 327.482259 445.226692 
L 323.604941 443.216535 
L 319.753608 441.159678 
L 315.92765 439.058571 
L 312.126507 436.915404 
L 308.34966 434.732134 
L 304.596637 432.510522 
L 300.867008 430.252152 
L 297.160378 427.958451 
L 293.476394 425.630711 
L 289.814737 423.270098 
" style="fill:none;stroke:#808080;stroke-linecap:square;stroke-width:1.5;"/>
   </g>
   <g id="line2d_16">
    <path clip-path="url(#p8780edcbcc)" d="M 289.814737 466.784645 
L 289.814737 423.270098 
L 429.07482 423.270098 
L 429.07482 466.784645 
L 289.814737 466.784645 
" style="fill:none;stroke:#d3d3d3;stroke-linecap:square;stroke-width:0.5;"/>
   </g>
   <g id="line2d_17">
    <path clip-path="url(#p8780edcbcc)" d="M 289.814737 423.270098 
L 286.175121 420.877671 
L 282.557295 418.454388 
L 278.961037 416.001117 
L 275.386158 413.518647 
L 271.832494 411.007691 
L 268.299913 408.468895 
L 264.788309 405.902843 
L 261.297605 403.310061 
L 257.827748 400.691024 
L 254.378713 398.046155 
L 250.950502 395.375834 
L 247.543141 392.680396 
L 244.156685 389.960137 
L 240.791215 387.215313 
L 237.446837 384.446146 
L 234.123687 381.652822 
L 230.821928 378.835496 
L 227.541753 375.99429 
L 224.283382 373.129297 
L 221.04707 370.24058 
L 217.833101 367.328174 
L 214.641793 364.392087 
L 211.473499 361.432297 
L 208.32861 358.44876 
L 205.207553 355.441402 
L 202.1108 352.410125 
L 199.03886 349.354804 
L 195.992294 346.27529 
L 192.971708 343.171407 
L 189.977761 340.042952 
L 187.011168 336.889699 
L 184.072702 333.711394 
L 181.163201 330.507755 
L 178.283572 327.278474 
L 175.434796 324.023217 
L 172.617934 320.741621 
L 169.834135 317.433293 
L 167.084641 314.097814 
L 164.370796 310.734732 
L 161.694059 307.343569 
" style="fill:none;stroke:#808080;stroke-linecap:square;stroke-width:1.5;"/>
   </g>
   <g id="line2d_18">
    <path clip-path="url(#p8780edcbcc)" d="M 161.694059 423.270098 
L 161.694059 307.343569 
L 289.814737 307.343569 
L 289.814737 423.270098 
L 161.694059 423.270098 
" style="fill:none;stroke:#d3d3d3;stroke-linecap:square;stroke-width:0.5;"/>
   </g>
   <g id="line2d_19">
    <path clip-path="url(#p8780edcbcc)" d="M 161.694059 307.343569 
L 159.056008 303.923814 
L 156.458357 300.474928 
L 153.902966 296.996339 
L 151.391856 293.487447 
L 148.927226 289.947623 
L 146.511471 286.376209 
L 144.147201 282.772524 
L 141.837267 279.135862 
L 139.584784 275.465501 
L 137.393163 271.760707 
L 135.26614 268.020745 
L 133.207816 264.244886 
L 131.222692 260.432428 
L 129.315721 256.582713 
L 127.49235 252.695154 
L 125.758576 248.769272 
L 124.121002 244.804737 
L 122.586892 240.801426 
L 121.16423 236.759498 
L 119.861775 232.67948 
L 118.689099 228.562381 
L 117.656612 224.40983 
L 116.775562 220.224233 
L 116.057979 216.008966 
L 115.516569 211.768574 
L 115.164511 207.508995 
L 115.015163 203.237761 
L 115.081636 198.964163 
L 115.376249 194.69934 
L 115.909867 190.456231 
L 116.691186 186.249371 
L 117.726015 182.094479 
L 119.01668 178.007858 
L 120.561636 174.005647 
L 122.355377 170.103015 
L 124.388683 166.313398 
L 126.649153 162.647897 
L 129.121965 159.114905 
L 131.790721 155.719983 
" style="fill:none;stroke:#808080;stroke-linecap:square;stroke-width:1.5;"/>
   </g>
   <g id="line2d_20">
    <path clip-path="url(#p8780edcbcc)" d="M 115.015163 307.343569 
L 115.015163 155.719983 
L 161.694059 155.719983 
L 161.694059 307.343569 
L 115.015163 307.343569 
" style="fill:none;stroke:#d3d3d3;stroke-linecap:square;stroke-width:0.5;"/>
   </g>
   <g id="line2d_21">
    <path clip-path="url(#p8780edcbcc)" d="M 131.790721 155.719983 
L 134.571872 152.406007 
L 137.39039 149.121599 
L 140.249656 145.870364 
L 143.153482 142.656541 
L 146.106181 139.485132 
L 149.112655 136.362082 
L 152.178498 133.294507 
L 155.310103 130.290995 
L 158.514786 127.362016 
L 161.800897 124.520461 
L 165.177901 121.782379 
L 168.656381 119.167955 
L 172.247846 116.702819 
L 175.964161 114.419719 
L 179.816276 112.360507 
L 183.811719 110.57813 
L 187.950268 109.137633 
L 192.217524 108.114168 
L 196.577737 107.584996 
L 200.970168 107.613645 
L 205.315143 108.23023 
L 209.531147 109.419319 
L 213.554279 111.124935 
L 217.348347 113.269086 
L 220.902801 115.771155 
L 224.2244 118.559737 
L 227.328852 121.576664 
L 230.235049 124.776489 
L 232.96185 128.12429 
L 235.52659 131.593288 
L 237.94455 135.162829 
L 240.228908 138.816817 
L 242.390897 142.542563 
L 244.44003 146.329939 
L 246.384338 150.170766 
" style="fill:none;stroke:#808080;stroke-linecap:square;stroke-width:1.5;"/>
   </g>
   <g id="line2d_22">
    <path clip-path="url(#p8780edcbcc)" d="M 131.790721 155.719983 
L 131.790721 107.584996 
L 246.384338 107.584996 
L 246.384338 155.719983 
L 131.790721 155.719983 
" style="fill:none;stroke:#d3d3d3;stroke-linecap:square;stroke-width:0.5;"/>
   </g>
   <g id="line2d_23">
    <path clip-path="url(#p8780edcbcc)" d="M 246.384338 150.170766 
L 248.230579 154.058362 
L 249.984427 157.987213 
L 251.650624 161.952727 
L 253.233109 165.951047 
L 254.735119 169.978909 
L 256.159273 174.033532 
L 257.507632 178.112531 
L 258.781754 182.213847 
L 259.982726 186.335691 
L 261.11119 190.476498 
L 262.167355 194.634883 
L 263.151003 198.80961 
L 264.061481 202.999555 
L 264.897684 207.203679 
L 265.658028 211.420991 
L 266.340406 215.650523 
L 266.942137 219.891288 
L 267.459888 224.142239 
L 267.889578 228.40222 
L 268.226251 232.669904 
L 268.463911 236.943709 
L 268.59531 241.221688 
L 268.611662 245.501377 
L 268.502268 249.779581 
L 268.25401 254.052054 
L 267.850666 258.313026 
L 267.271972 262.55446 
L 266.492337 266.764877 
L 265.479095 270.92741 
L 264.190226 275.016528 
L 262.57171 278.992404 
L 260.555644 282.791332 
L 258.062984 286.310608 
L 255.021029 289.390637 
" style="fill:none;stroke:#808080;stroke-linecap:square;stroke-width:1.5;"/>
   </g>
   <g id="line2d_24">
    <path clip-path="url(#p8780edcbcc)" d="M 246.384338 289.390637 
L 246.384338 150.170766 
L 268.611662 150.170766 
L 268.611662 289.390637 
L 246.384338 289.390637 
" style="fill:none;stroke:#d3d3d3;stroke-linecap:square;stroke-width:0.5;"/>
   </g>
   <g id="line2d_25">
    <path clip-path="url(#p8780edcbcc)" d="M 255.021029 289.390637 
L 252.092532 292.57862 
L 249.811929 296.242898 
L 247.977244 300.139614 
L 246.461174 304.164169 
L 245.1842 308.265802 
L 244.094226 312.417175 
L 243.155396 316.602369 
L 242.34195 320.811551 
L 241.634714 325.03835 
L 241.018987 329.278475 
L 240.483203 333.528931 
L 240.018067 337.787558 
L 239.61596 342.052752 
L 239.27053 346.323282 
L 238.976394 350.59818 
L 238.728925 354.876662 
L 238.524086 359.158079 
L 238.358309 363.44188 
L 238.228399 367.727595 
L 238.131455 372.014812 
L 238.064809 376.303168 
L 238.025976 380.592344 
L 238.012607 384.882057 
L 238.022458 389.172057 
L 238.053347 393.462123 
L 238.103135 397.752066 
L 238.169687 402.041724 
L 238.250853 406.330959 
L 238.344434 410.619663 
L 238.448158 414.907752 
L 238.559654 419.195168 
L 238.676414 423.481878 
L 238.795771 427.767871 
L 238.914858 432.053158 
L 239.030573 436.337771 
L 239.139542 440.621757 
L 239.238071 444.905172 
" style="fill:none;stroke:#808080;stroke-linecap:square;stroke-width:1.5;"/>
   </g>
   <g id="line2d_26">
    <path clip-path="url(#p8780edcbcc)" d="M 238.012607 444.905172 
L 238.012607 289.390637 
L 255.021029 289.390637 
L 255.021029 444.905172 
L 238.012607 444.905172 
" style="fill:none;stroke:#d3d3d3;stroke-linecap:square;stroke-width:0.5;"/>
   </g>
   <g id="line2d_27">
    <path clip-path="url(#p8780edcbcc)" d="M 239.238071 444.905172 
L 239.322108 449.188076 
L 239.387193 453.470521 
L 239.428411 457.752536 
L 239.440349 462.034108 
L 239.417058 466.315154 
L 239.352023 470.59549 
L 239.238158 474.874787 
L 239.067816 479.152515 
L 238.832852 483.427887 
L 238.524727 487.699784 
L 238.134671 491.966685 
L 237.65393 496.2266 
L 237.074077 500.477017 
L 236.387383 504.714886 
L 235.58724 508.936646 
L 234.668557 513.138322 
L 233.62812 517.315681 
L 232.464813 521.46446 
L 231.179688 525.580617 
L 229.775856 529.660604 
L 228.258199 533.701593 
L 226.63298 537.701637 
L 224.907386 541.659741 
L 223.089084 545.575844 
L 221.185835 549.450729 
L 219.2052 553.285866 
L 217.15433 557.083246 
L 215.039854 560.845201 
L 212.867831 564.574237 
L 210.64375 568.272906 
L 208.372561 571.943693 
L 206.058727 575.588947 
L 203.706269 579.210831 
L 201.318819 582.811307 
L 198.899659 586.392131 
L 196.451752 589.954874 
L 193.977769 593.500948 
" style="fill:none;stroke:#808080;stroke-linecap:square;stroke-width:1.5;"/>
   </g>
   <g id="line2d_28">
    <path clip-path="url(#p8780edcbcc)" d="M 193.977769 593.500948 
L 193.977769 444.905172 
L 239.440349 444.905172 
L 239.440349 593.500948 
L 193.977769 593.500948 
" style="fill:none;stroke:#d3d3d3;stroke-linecap:square;stroke-width:0.5;"/>
   </g>
   <g id="line2d_29">
    <path clip-path="url(#p8780edcbcc)" d="M 193.977769 593.500948 
" style="fill:none;stroke:#808080;stroke-linecap:square;stroke-width:1.5;"/>
   </g>
   <g id="line2d_30">
    <path clip-path="url(#p8780edcbcc)" d="M 193.977769 593.500948 
L 193.977769 593.500948 
L 193.977769 593.500948 
L 193.977769 593.500948 
L 193.977769 593.500948 
" style="fill:none;stroke:#d3d3d3;stroke-linecap:square;stroke-width:0.5;"/>
   </g>
   <g id="line2d_31">
    <path clip-path="url(#p8780edcbcc)" d="M 193.977769 593.500948 
L 191.849123 597.264407 
L 191.091077 601.463657 
L 193.03978 605.221086 
L 196.854908 607.350084 
L 201.158148 608.372195 
L 205.575685 608.780614 
L 210.011795 608.803154 
L 214.436373 608.555692 
L 218.839324 608.104449 
L 223.217563 607.490686 
L 227.570579 606.741814 
L 231.898761 605.876939 
L 236.202728 604.909875 
L 240.48306 603.850888 
L 244.740198 602.707757 
L 248.974404 601.48646 
L 253.18576 600.191619 
L 257.374167 598.826802 
L 261.539355 597.394741 
L 265.680882 595.897479 
L 269.798136 594.336475 
L 273.890331 592.712686 
L 277.956499 591.026619 
L 281.995477 589.278368 
L 286.005888 587.467643 
L 289.986118 585.593778 
L 293.934287 583.655743 
L 297.848209 581.652139 
L 301.725352 579.58119 
L 305.562776 577.440726 
L 309.35707 575.228169 
L 313.104262 572.9405 
L 316.799726 570.574238 
L 320.43805 568.12541 
" style="fill:none;stroke:#808080;stroke-linecap:square;stroke-width:1.5;"/>
   </g>
   <g id="line2d_32">
    <path clip-path="url(#p8780edcbcc)" d="M 191.091077 608.803154 
L 191.091077 568.12541 
L 320.43805 568.12541 
L 320.43805 608.803154 
L 191.091077 608.803154 
" style="fill:none;stroke:#d3d3d3;stroke-linecap:square;stroke-width:0.5;"/>
   </g>
   <g id="line2d_33">
    <path clip-path="url(#p8780edcbcc)" d="M 320.43805 568.12541 
L 324.012885 565.589519 
L 327.516763 562.961528 
L 330.940874 560.235851 
L 334.274792 557.406375 
L 337.506172 554.466523 
L 340.62039 551.409399 
L 343.600171 548.22803 
L 346.425226 544.91578 
L 349.071994 541.466975 
L 351.513607 537.877792 
L 353.72029 534.147423 
L 355.66042 530.279428 
L 357.302468 526.283041 
L 358.617834 522.174008 
L 359.584235 517.974473 
L 360.188855 513.711573 
L 360.430305 509.414859 
L 360.318687 505.113184 
L 359.87378 500.831957 
L 359.122048 496.591413 
L 358.093399 492.406083 
L 356.818428 488.285202 
L 355.326477 484.233632 
L 353.644504 480.252932 
L 351.796572 476.342347 
L 349.803767 472.499603 
L 347.684353 468.721513 
L 345.454036 465.004403 
L 343.12628 461.344397 
L 340.712615 457.737613 
L 338.222916 454.180272 
L 335.665656 450.668772 
L 333.048121 447.199722 
L 330.376593 443.769959 
" style="fill:none;stroke:#808080;stroke-linecap:square;stroke-width:1.5;"/>
   </g>
   <g id="line2d_34">
    <path clip-path="url(#p8780edcbcc)" d="M 320.43805 568.12541 
L 320.43805 443.769959 
L 360.430305 443.769959 
L 360.430305 568.12541 
L 320.43805 568.12541 
" style="fill:none;stroke:#d3d3d3;stroke-linecap:square;stroke-width:0.5;"/>
   </g>
   <g id="line2d_35">
    <path clip-path="url(#p8780edcbcc)" d="M 330.376593 443.769959 
" style="fill:none;stroke:#808080;stroke-linecap:square;stroke-width:1.5;"/>
   </g>
   <g id="line2d_36">
    <path clip-path="url(#p8780edcbcc)" d="M 330.376593 443.769959 
L 330.376593 443.769959 
L 330.376593 443.769959 
L 330.376593 443.769959 
L 330.376593 443.769959 
" style="fill:none;stroke:#d3d3d3;stroke-linecap:square;stroke-width:0.5;"/>
   </g>
   <g id="line2d_37">
    <path clip-path="url(#p8780edcbcc)" d="M 330.376593 443.769959 
L 327.772894 440.285889 
L 325.365792 436.670033 
L 323.161847 432.933152 
L 321.166477 429.086546 
L 319.383979 425.141876 
L 317.817575 421.110998 
L 316.469501 417.005816 
L 315.341111 412.838165 
L 314.433002 408.619712 
L 313.745149 404.361894 
L 313.277036 400.075885 
L 313.02779 395.772586 
L 312.996314 391.462649 
L 313.181397 387.156517 
L 313.581831 382.864492 
L 314.196505 378.596824 
L 315.024495 374.363825 
L 316.065134 370.175995 
L 317.318082 366.04419 
L 318.783368 361.979802 
L 320.461431 357.994987 
L 322.353125 354.102925 
L 324.459702 350.318134 
L 326.78275 346.656837 
L 329.324069 343.137405 
L 332.085443 339.780864 
L 335.068285 336.611474 
L 338.27306 333.657354 
L 341.69843 330.951084 
L 345.340001 328.530167 
L 349.188594 326.437097 
L 353.228015 324.718661 
L 357.432502 323.423931 
L 361.764386 322.600415 
L 366.172984 322.288154 
L 370.596071 322.512496 
L 374.964873 323.277558 
L 379.212079 324.563211 
L 383.280446 326.327484 
L 387.128895 328.513734 
L 390.734242 331.059654 
L 394.089038 333.904928 
L 397.197385 336.995909 
L 400.070589 340.287415 
L 402.723663 343.742612 
L 405.172949 347.331965 
L 407.434684 351.031933 
L 409.524239 354.823723 
L 411.455776 358.692258 
L 413.242149 362.625349 
L 414.894934 366.613059 
L 416.424516 370.647215 
L 417.840202 374.721043 
L 419.150339 378.828884 
L 420.362429 382.965974 
L 421.483222 387.128282 
L 422.518813 391.31237 
L 423.474718 395.515299 
L 424.355943 399.734537 
L 425.167044 403.967898 
L 425.912178 408.213489 
L 426.595148 412.469663 
L 427.219442 416.734982 
L 427.788265 421.008193 
L 428.304572 425.288199 
L 428.771091 429.574037 
" style="fill:none;stroke:#808080;stroke-linecap:square;stroke-width:1.5;"/>
   </g>
   <g id="line2d_38">
    <path clip-path="url(#p8780edcbcc)" d="M 312.996314 443.769959 
L 312.996314 322.288154 
L 428.771091 322.288154 
L 428.771091 443.769959 
L 312.996314 443.769959 
" style="fill:none;stroke:#d3d3d3;stroke-linecap:square;stroke-width:0.5;"/>
   </g>
   <g id="line2d_39">
    <path clip-path="url(#p8780edcbcc)" d="M 260.69758 295.819641 
L 260.69758 295.819641 
L 260.69758 295.819641 
" style="fill:none;stroke:#000000;stroke-linecap:square;stroke-width:3;"/>
   </g>
   <g id="line2d_40">
    <path clip-path="url(#p8780edcbcc)" d="M 260.69758 295.819641 
L 260.69758 295.819641 
L 260.69758 295.819641 
L 260.69758 295.819641 
L 260.69758 295.819641 
" style="fill:none;stroke:#d3d3d3;stroke-linecap:square;stroke-width:0.5;"/>
   </g>
   <g id="line2d_41">
    <path clip-path="url(#p8780edcbcc)" d="M 260.69758 295.819641 
L 260.69758 295.819641 
L 260.69758 295.819641 
" style="fill:none;stroke:#000000;stroke-linecap:square;stroke-width:3;"/>
   </g>
   <g id="line2d_42">
    <path clip-path="url(#p8780edcbcc)" d="M 260.69758 295.819641 
L 260.69758 295.819641 
L 260.69758 295.819641 
L 260.69758 295.819641 
L 260.69758 295.819641 
" style="fill:none;stroke:#d3d3d3;stroke-linecap:square;stroke-width:0.5;"/>
   </g>
   <g id="line2d_43">
    <path clip-path="url(#p8780edcbcc)" d="M 328.339268 455.182688 
L 327.44981 454.750975 
L 323.442178 452.738214 
L 319.4671 450.677381 
L 315.523255 448.571122 
L 311.609463 446.421784 
L 307.724668 444.231456 
L 303.867923 442.002004 
L 300.038378 439.735097 
L 296.23527 437.432237 
L 292.457911 435.094771 
L 288.705687 432.723914 
L 284.978045 430.320764 
L 281.27449 427.886309 
L 277.594581 425.421443 
L 273.937927 422.926973 
L 270.304181 420.403627 
L 266.693041 417.85206 
L 263.104243 415.272863 
L 259.537564 412.666565 
L 255.992813 410.033641 
L 252.469838 407.37451 
L 248.968517 404.689548 
L 246.88644 403.067765 
" style="fill:none;stroke:#000000;stroke-linecap:square;stroke-width:3;"/>
   </g>
   <g id="line2d_44">
    <path clip-path="url(#p8780edcbcc)" d="M 246.88644 455.182688 
L 246.88644 403.067765 
L 328.339268 403.067765 
L 328.339268 455.182688 
L 246.88644 455.182688 
" style="fill:none;stroke:#d3d3d3;stroke-linecap:square;stroke-width:0.5;"/>
   </g>
   <g id="line2d_45">
    <path clip-path="url(#p8780edcbcc)" d="M 246.88644 403.067765 
L 247.047064 410.428919 
L 247.150371 414.699698 
L 247.261538 418.974485 
L 247.37809 423.253532 
L 247.497382 427.537178 
L 247.616563 431.825853 
L 247.732537 436.120083 
L 247.841922 440.420486 
L 247.940999 444.727778 
L 248.025663 449.042764 
L 248.091369 453.366331 
L 248.133073 457.699433 
L 248.145177 462.043059 
L 248.121473 466.398192 
L 248.055101 470.765747 
L 247.938521 475.146482 
L 247.763515 479.540878 
L 247.521234 483.948994 
L 247.202307 488.370285 
L 246.797028 492.803397 
L 246.295644 497.245968 
L 245.688739 501.694446 
L 244.967717 506.143991 
L 244.125334 510.588486 
L 243.156225 515.02071 
L 242.057345 519.432682 
L 240.82823 523.816154 
L 239.471034 528.163183 
L 237.990309 532.466701 
L 236.392575 536.720971 
L 234.685768 540.921891 
L 232.878638 545.067086 
L 230.980203 549.155835 
L 228.999311 553.188854 
L 226.944325 557.168007 
L 224.822939 561.095996 
L 222.642099 564.976056 
L 220.407997 568.811699 
L 218.126119 572.606507 
L 215.801311 576.363975 
L 213.437862 580.087408 
L 211.039578 583.779859 
L 208.609853 587.444099 
L 206.151721 591.082618 
L 203.667897 594.697642 
L 201.160809 598.291172 
" style="fill:none;stroke:#000000;stroke-linecap:square;stroke-width:3;"/>
   </g>
   <g id="line2d_46">
    <path clip-path="url(#p8780edcbcc)" d="M 201.160809 598.291172 
L 201.160809 403.067765 
L 248.145177 403.067765 
L 248.145177 598.291172 
L 201.160809 598.291172 
" style="fill:none;stroke:#d3d3d3;stroke-linecap:square;stroke-width:0.5;"/>
   </g>
   <g id="line2d_47">
    <path clip-path="url(#p8780edcbcc)" d="M 201.160809 598.291172 
L 199.92753 600.423175 
L 199.75407 600.633217 
L 198.980156 599.022424 
L 199.798614 599.3695 
L 202.491483 599.992074 
L 205.958041 600.308607 
L 209.757018 600.326595 
L 213.714664 600.104697 
L 217.753077 599.690542 
L 221.833233 599.118415 
L 225.933768 598.412889 
L 230.042084 597.591891 
L 234.150238 596.668786 
L 238.252904 595.653727 
L 242.346275 594.554552 
L 246.427458 593.377378 
L 250.494116 592.127016 
L 254.544239 590.807253 
L 258.576006 589.42106 
L 262.587683 587.970738 
L 266.577552 586.458028 
L 270.543855 584.884193 
L 274.484746 583.250074 
L 278.398248 581.556138 
L 282.28221 579.802508 
L 286.134267 577.988991 
L 289.951789 576.115093 
L 293.731833 574.180033 
L 297.471081 572.18275 
L 301.165779 570.121911 
L 304.811651 567.99592 
L 308.403812 565.80292 
L 311.936662 563.54081 
L 315.403758 561.207263 
" style="fill:none;stroke:#000000;stroke-linecap:square;stroke-width:3;"/>
   </g>
   <g id="line2d_48">
    <path clip-path="url(#p8780edcbcc)" d="M 198.980156 600.633217 
L 198.980156 561.207263 
L 315.403758 561.207263 
L 315.403758 600.633217 
L 198.980156 600.633217 
" style="fill:none;stroke:#d3d3d3;stroke-linecap:square;stroke-width:0.5;"/>
   </g>
   <g id="line2d_49">
    <path clip-path="url(#p8780edcbcc)" d="M 315.403758 561.207263 
L 318.797675 558.799754 
L 322.109836 556.315611 
L 325.330334 553.752086 
L 328.447734 551.10646 
L 331.448875 548.376196 
L 334.318699 545.559142 
L 337.040143 542.653792 
L 339.594153 539.659598 
L 341.959913 536.577299 
L 344.115372 533.409203 
L 346.038151 530.159311 
L 347.706815 526.833167 
L 349.102369 523.437381 
L 350.209675 519.978943 
L 351.018477 516.464664 
L 351.523867 512.90112 
L 351.726339 509.295208 
L 351.631633 505.654896 
L 351.250438 501.989602 
L 350.597815 498.30985 
L 349.692232 494.626411 
L 348.55432 490.949337 
L 347.205576 487.28724 
L 345.66726 483.646944 
L 343.959584 480.033465 
L 342.10122 476.450179 
L 340.109065 472.899103 
L 337.998188 469.381172 
L 335.781897 465.896514 
L 333.47187 462.444664 
L 331.078315 459.024745 
L 328.610137 455.635607 
L 326.075103 452.275927 
L 328.339268 455.182688 
" style="fill:none;stroke:#000000;stroke-linecap:square;stroke-width:3;"/>
   </g>
   <g id="line2d_50">
    <path clip-path="url(#p8780edcbcc)" d="M 315.403758 561.207263 
L 315.403758 452.275927 
L 351.726339 452.275927 
L 351.726339 561.207263 
L 315.403758 561.207263 
" style="fill:none;stroke:#d3d3d3;stroke-linecap:square;stroke-width:0.5;"/>
   </g>
   <g id="line2d_51">
    <path clip-path="url(#p8780edcbcc)" d="M 328.339268 455.182688 
" style="fill:none;stroke:#000000;stroke-linecap:square;stroke-width:3;"/>
   </g>
   <g id="line2d_52">
    <path clip-path="url(#p8780edcbcc)" d="M 328.339268 455.182688 
L 328.339268 455.182688 
L 328.339268 455.182688 
L 328.339268 455.182688 
L 328.339268 455.182688 
" style="fill:none;stroke:#d3d3d3;stroke-linecap:square;stroke-width:0.5;"/>
   </g>
   <g id="line2d_53">
    <path clip-path="url(#p8780edcbcc)" d="M 201.160809 598.291172 
L 201.160809 598.291172 
L 201.160809 598.291172 
" style="fill:none;stroke:#000000;stroke-linecap:square;stroke-width:3;"/>
   </g>
   <g id="line2d_54">
    <path clip-path="url(#p8780edcbcc)" d="M 201.160809 598.291172 
L 201.160809 598.291172 
L 201.160809 598.291172 
L 201.160809 598.291172 
L 201.160809 598.291172 
" style="fill:none;stroke:#d3d3d3;stroke-linecap:square;stroke-width:0.5;"/>
   </g>
   <g id="line2d_55">
    <path clip-path="url(#p8780edcbcc)" d="M 201.160809 598.291172 
L 201.160809 598.291172 
L 201.160809 598.291172 
" style="fill:none;stroke:#000000;stroke-linecap:square;stroke-width:3;"/>
   </g>
   <g id="line2d_56">
    <path clip-path="url(#p8780edcbcc)" d="M 201.160809 598.291172 
L 201.160809 598.291172 
L 201.160809 598.291172 
L 201.160809 598.291172 
L 201.160809 598.291172 
" style="fill:none;stroke:#d3d3d3;stroke-linecap:square;stroke-width:0.5;"/>
   </g>
   <g id="line2d_57">
    <path clip-path="url(#p8780edcbcc)" d="M 339.580136 441.682595 
L 334.94594 435.481474 
L 332.794184 432.24918 
L 330.823232 428.907329 
L 329.037607 425.465032 
L 327.44106 421.93183 
L 326.036586 418.317597 
L 324.826463 414.632441 
L 323.812306 410.886624 
L 322.995132 407.090493 
L 322.375432 403.254426 
L 321.953249 399.388795 
L 321.728254 395.503953 
L 321.699827 391.610243 
L 321.867126 387.718017 
L 322.229151 383.837688 
L 322.784801 379.979799 
L 323.532912 376.155108 
L 324.47229 372.374705 
L 325.601714 368.650143 
L 326.919923 364.993602 
L 328.425574 361.418074 
L 330.117155 357.93758 
L 331.992857 354.567414 
L 334.050374 351.324408 
L 336.286628 348.227217 
L 338.69738 345.296589 
L 341.276732 342.555595 
L 344.016496 340.029731 
L 346.905467 337.7468 
L 349.928704 335.736428 
L 353.067015 334.029057 
L 356.296996 332.654331 
L 359.591994 331.639028 
L 362.924163 331.005002 
" style="fill:none;stroke:#000000;stroke-linecap:square;stroke-width:3;"/>
   </g>
   <g id="line2d_58">
    <path clip-path="url(#p8780edcbcc)" d="M 321.699827 441.682595 
L 321.699827 331.005002 
L 362.924163 331.005002 
L 362.924163 441.682595 
L 321.699827 441.682595 
" style="fill:none;stroke:#d3d3d3;stroke-linecap:square;stroke-width:0.5;"/>
   </g>
   <g id="line2d_59">
    <path clip-path="url(#p8780edcbcc)" d="M 362.924163 331.005002 
L 366.267024 330.767851 
L 369.597142 330.936666 
L 372.89356 331.514176 
L 376.135387 332.496047 
L 379.299975 333.869149 
L 382.363732 335.610474 
L 385.305085 337.688349 
L 388.10741 340.065826 
L 390.760381 342.704641 
L 393.259664 345.568355 
L 395.605693 348.624149 
L 397.802226 351.843497 
L 399.855093 355.202108 
L 401.771252 358.679525 
L 403.558145 362.258597 
L 405.223279 365.92495 
L 406.773974 369.666517 
L 408.217225 373.473129 
L 409.559622 377.336187 
L 410.807326 381.248385 
L 411.966067 385.203487 
L 413.041155 389.196148 
L 414.037505 393.221769 
L 414.959659 397.276374 
L 415.811818 401.356515 
L 416.597869 405.459191 
L 417.321405 409.58178 
L 417.985758 413.721989 
L 418.594016 417.877802 
L 419.149047 422.047447 
L 419.653516 426.229361 
L 420.109903 430.422164 
L 420.109903 430.422164 
" style="fill:none;stroke:#000000;stroke-linecap:square;stroke-width:3;"/>
   </g>
   <g id="line2d_60">
    <path clip-path="url(#p8780edcbcc)" d="M 362.924163 430.422164 
L 362.924163 330.767851 
L 420.109903 330.767851 
L 420.109903 430.422164 
L 362.924163 430.422164 
" style="fill:none;stroke:#d3d3d3;stroke-linecap:square;stroke-width:0.5;"/>
   </g>
   <g id="line2d_61">
    <path clip-path="url(#p8780edcbcc)" d="M 420.109903 430.422164 
L 420.109903 430.422164 
L 420.375758 434.148513 
L 420.373655 437.77292 
L 420.069023 441.242204 
L 419.432352 444.48706 
L 418.447528 447.429474 
L 417.115418 450.005621 
L 415.439136 452.196542 
L 413.398333 454.02951 
L 410.958683 455.534404 
L 408.11964 456.714159 
L 404.932999 457.562368 
L 401.477296 458.08573 
L 397.828818 458.306479 
L 394.048866 458.254972 
L 390.182602 457.96297 
L 386.262083 457.460024 
L 382.309763 456.772129 
L 378.341341 455.921547 
L 374.36783 454.927121 
L 370.396995 453.804751 
L 366.434332 452.56786 
L 362.483745 451.227825 
L 358.548009 449.794329 
L 354.629089 448.275661 
L 350.72837 446.678953 
L 346.846815 445.010375 
L 342.985079 443.275293 
L 339.580136 441.682595 
" style="fill:none;stroke:#000000;stroke-linecap:square;stroke-width:3;"/>
   </g>
   <g id="line2d_62">
    <path clip-path="url(#p8780edcbcc)" d="M 339.580136 458.306479 
L 339.580136 430.422164 
L 420.375758 430.422164 
L 420.375758 458.306479 
L 339.580136 458.306479 
" style="fill:none;stroke:#d3d3d3;stroke-linecap:square;stroke-width:0.5;"/>
   </g>
   <g id="line2d_63">
    <path clip-path="url(#p8780edcbcc)" d="M 328.339268 455.182688 
L 323.479987 448.944288 
L 323.479987 448.944288 
" style="fill:none;stroke:#000000;stroke-linecap:square;stroke-width:3;"/>
   </g>
   <g id="line2d_64">
    <path clip-path="url(#p8780edcbcc)" d="M 323.479987 455.182688 
L 323.479987 448.944288 
L 328.339268 448.944288 
L 328.339268 455.182688 
L 323.479987 455.182688 
" style="fill:none;stroke:#d3d3d3;stroke-linecap:square;stroke-width:0.5;"/>
   </g>
   <g id="line2d_65">
    <path clip-path="url(#p8780edcbcc)" d="M 337.273199 438.595631 
L 337.273199 438.595631 
L 339.580136 441.682595 
" style="fill:none;stroke:#000000;stroke-linecap:square;stroke-width:3;"/>
   </g>
   <g id="line2d_66">
    <path clip-path="url(#p8780edcbcc)" d="M 337.273199 441.682595 
L 337.273199 438.595631 
L 339.580136 438.595631 
L 339.580136 441.682595 
L 337.273199 441.682595 
" style="fill:none;stroke:#d3d3d3;stroke-linecap:square;stroke-width:0.5;"/>
   </g>
   <g id="line2d_67">
    <path clip-path="url(#p8780edcbcc)" d="M 249.344478 282.961633 
L 249.344478 282.961633 
L 251.660793 280.458007 
" style="fill:none;stroke:#000000;stroke-linecap:square;stroke-width:3;"/>
   </g>
   <g id="line2d_68">
    <path clip-path="url(#p8780edcbcc)" d="M 249.344478 282.961633 
L 249.344478 280.458007 
L 251.660793 280.458007 
L 251.660793 282.961633 
L 249.344478 282.961633 
" style="fill:none;stroke:#d3d3d3;stroke-linecap:square;stroke-width:0.5;"/>
   </g>
   <g id="line2d_69">
    <path clip-path="url(#p8780edcbcc)" d="M 138.558157 161.053717 
L 138.558157 161.053717 
L 141.281781 157.80828 
L 144.036122 154.598642 
L 146.823435 151.429207 
L 149.646148 148.305133 
L 152.506863 145.232492 
L 155.408347 142.218466 
L 158.353503 139.271596 
L 161.345307 136.402103 
L 164.386683 133.622294 
L 167.480297 130.947076 
L 170.628204 128.394584 
L 173.83128 125.986929 
L 177.088341 123.751008 
L 180.394863 121.719217 
L 183.741282 119.929711 
L 187.111208 118.425528 
L 190.480635 117.251639 
L 193.820314 116.449371 
L 197.103512 116.049705 
L 200.317085 116.069936 
L 203.465883 116.516853 
L 206.561936 117.390931 
L 209.607716 118.683493 
L 212.59089 120.370731 
L 215.491857 122.413969 
L 218.292944 124.7665 
L 220.982755 127.381187 
L 223.556283 130.215264 
L 226.01328 133.232213 
L 228.356463 136.401838 
L 230.590136 139.69955 
L 232.719265 143.105413 
L 234.748921 146.603246 
L 236.683961 150.179853 
" style="fill:none;stroke:#000000;stroke-linecap:square;stroke-width:3;"/>
   </g>
   <g id="line2d_70">
    <path clip-path="url(#p8780edcbcc)" d="M 138.558157 161.053717 
L 138.558157 116.049705 
L 236.683961 116.049705 
L 236.683961 161.053717 
L 138.558157 161.053717 
" style="fill:none;stroke:#d3d3d3;stroke-linecap:square;stroke-width:0.5;"/>
   </g>
   <g id="line2d_71">
    <path clip-path="url(#p8780edcbcc)" d="M 236.683961 150.179853 
L 238.528864 153.824399 
L 240.287653 157.527917 
L 241.963874 161.282929 
L 243.560597 165.083143 
L 245.080438 168.923223 
L 246.525574 172.798603 
L 247.897775 176.705341 
L 249.198416 180.640003 
L 250.428497 184.599568 
L 251.588654 188.581344 
L 252.679168 192.582902 
L 253.699961 196.602017 
L 254.650592 200.63661 
L 255.530247 204.684699 
L 256.337717 208.744341 
L 257.07137 212.813586 
L 257.729119 216.89041 
L 258.308367 220.972649 
L 258.805951 225.057919 
L 259.218068 229.143515 
L 259.540174 233.22628 
L 259.766871 237.302444 
L 259.891763 241.367393 
L 259.907278 245.41537 
L 259.804457 249.439044 
L 259.572712 253.428899 
L 259.199554 257.372352 
L 258.670352 261.252442 
L 257.968222 265.045879 
L 257.074308 268.720124 
L 255.96907 272.229124 
L 254.635821 275.507598 
L 253.068677 278.465273 
L 251.660793 280.458007 
" style="fill:none;stroke:#000000;stroke-linecap:square;stroke-width:3;"/>
   </g>
   <g id="line2d_72">
    <path clip-path="url(#p8780edcbcc)" d="M 236.683961 280.458007 
L 236.683961 150.179853 
L 259.907278 150.179853 
L 259.907278 280.458007 
L 236.683961 280.458007 
" style="fill:none;stroke:#d3d3d3;stroke-linecap:square;stroke-width:0.5;"/>
   </g>
   <g id="line2d_73">
    <path clip-path="url(#p8780edcbcc)" d="M 229.553081 366.33157 
L 226.951708 364.009597 
L 223.785831 361.140772 
L 220.642612 358.248927 
L 217.522458 355.33411 
L 214.425816 352.396345 
L 211.353169 349.435633 
L 208.30504 346.451954 
L 205.281998 343.445267 
L 202.284655 340.415509 
L 199.313675 337.362601 
L 196.369771 334.286439 
L 193.453715 331.186906 
L 190.566339 328.063862 
L 187.708539 324.917152 
L 184.881281 321.746604 
L 182.085607 318.552028 
L 179.32264 315.33322 
L 176.59359 312.089961 
L 173.899764 308.822018 
L 171.242572 305.529146 
L 168.623536 302.21109 
L 166.044302 298.867585 
L 163.506649 295.498363 
L 161.012501 292.103149 
L 158.563942 288.68167 
L 156.163232 285.23366 
L 153.812821 281.758862 
L 151.51537 278.257034 
L 149.273768 274.727966 
L 147.091158 271.171478 
L 144.970963 267.587443 
L 142.916905 263.975799 
L 140.933044 260.336565 
L 139.023801 256.66987 
L 137.193998 252.975978 
L 135.448886 249.255322 
L 133.794185 245.508545 
L 132.236112 241.736554 
L 130.781416 237.940568 
L 129.437401 234.122193 
L 128.211937 230.283497 
L 127.113461 226.42709 
L 126.150951 222.556219 
L 125.333872 218.674857 
L 124.672083 214.787788 
L 124.175693 210.900676 
L 123.854865 207.020099 
L 123.719566 203.153537 
L 123.779256 199.309299 
L 124.042548 195.496376 
L 124.516841 191.724222 
L 125.207977 188.002479 
L 126.119932 184.340679 
L 127.254574 180.74796 
L 128.611507 177.232814 
L 130.188002 173.80291 
L 131.979034 170.464958 
L 133.977409 167.224615 
L 136.174015 164.086414 
L 138.558157 161.053717 
L 138.558157 161.053717 
" style="fill:none;stroke:#000000;stroke-linecap:square;stroke-width:3;"/>
   </g>
   <g id="line2d_74">
    <path clip-path="url(#p8780edcbcc)" d="M 123.719566 366.33157 
L 123.719566 161.053717 
L 229.553081 161.053717 
L 229.553081 366.33157 
L 123.719566 366.33157 
" style="fill:none;stroke:#d3d3d3;stroke-linecap:square;stroke-width:0.5;"/>
   </g>
   <g id="line2d_75">
    <path clip-path="url(#p8780edcbcc)" d="M 249.344478 282.961633 
L 245.016358 287.63975 
L 242.088799 292.330644 
L 239.914318 296.943526 
L 238.199358 301.493297 
L 236.796344 305.998212 
L 235.621753 310.470908 
L 234.623643 314.919721 
L 233.767329 319.350263 
L 233.02835 323.766442 
L 232.388696 328.171064 
L 231.834649 332.566192 
L 231.355453 336.953366 
L 230.942472 341.33375 
L 230.588623 345.708224 
L 230.287989 350.077451 
L 230.035538 354.441928 
L 229.82693 358.802014 
L 229.658357 363.157966 
L 229.526434 367.509952 
L 229.553081 366.33157 
" style="fill:none;stroke:#000000;stroke-linecap:square;stroke-width:3;"/>
   </g>
   <g id="line2d_76">
    <path clip-path="url(#p8780edcbcc)" d="M 229.526434 367.509952 
L 229.526434 282.961633 
L 249.344478 282.961633 
L 249.344478 367.509952 
L 229.526434 367.509952 
" style="fill:none;stroke:#d3d3d3;stroke-linecap:square;stroke-width:0.5;"/>
   </g>
   <g id="line2d_77">
    <path clip-path="url(#p8780edcbcc)" d="M 249.344478 282.961633 
L 249.344478 282.961633 
L 249.344478 282.961633 
" style="fill:none;stroke:#000000;stroke-linecap:square;stroke-width:3;"/>
   </g>
   <g id="line2d_78">
    <path clip-path="url(#p8780edcbcc)" d="M 249.344478 282.961633 
L 249.344478 282.961633 
L 249.344478 282.961633 
L 249.344478 282.961633 
L 249.344478 282.961633 
" style="fill:none;stroke:#d3d3d3;stroke-linecap:square;stroke-width:0.5;"/>
   </g>
   <g id="line2d_79">
    <path clip-path="url(#p8780edcbcc)" d="M 251.660793 280.458007 
L 251.286504 280.987781 
L 249.344478 282.961633 
" style="fill:none;stroke:#000000;stroke-linecap:square;stroke-width:3;"/>
   </g>
   <g id="line2d_80">
    <path clip-path="url(#p8780edcbcc)" d="M 249.344478 282.961633 
L 249.344478 280.458007 
L 251.660793 280.458007 
L 251.660793 282.961633 
L 249.344478 282.961633 
" style="fill:none;stroke:#d3d3d3;stroke-linecap:square;stroke-width:0.5;"/>
   </g>
   <g id="line2d_81">
    <path clip-path="url(#p8780edcbcc)" d="M 229.314835 388.811119 
L 228.412619 388.052748 
L 225.062169 385.193875 
L 221.733542 382.310702 
L 218.426899 379.403263 
L 215.142432 376.471564 
L 211.88037 373.515577 
L 208.640973 370.535246 
L 205.42454 367.530484 
L 202.231403 364.501174 
L 199.061938 361.44717 
L 195.916559 358.368295 
L 192.795723 355.264341 
L 189.699934 352.13507 
L 186.629742 348.980213 
L 183.585752 345.799465 
L 180.56862 342.592493 
L 177.579064 339.358925 
L 174.617862 336.098357 
L 171.685862 332.810344 
L 168.783985 329.494406 
L 165.913229 326.150021 
L 163.07468 322.776625 
L 160.269517 319.373609 
L 157.49902 315.940318 
L 154.764581 312.476048 
L 152.067714 308.980043 
L 149.410066 305.451493 
L 146.793432 301.889529 
L 144.219771 298.293223 
L 141.691221 294.661585 
L 139.21012 290.993557 
L 136.779032 287.288013 
L 134.400766 283.543758 
L 132.07841 279.759524 
L 129.815364 275.933971 
L 127.615376 272.06569 
L 125.482587 268.153206 
L 123.421583 264.194985 
L 121.437444 260.189447 
L 119.535814 256.134987 
L 117.722968 252.029999 
L 116.005892 247.87292 
L 114.392367 243.662285 
L 112.89106 239.396803 
L 111.511614 235.075462 
L 110.264736 230.697672 
L 109.162273 226.263441 
L 108.217252 221.77361 
L 107.443876 217.230143 
L 106.857445 212.636471 
L 106.474157 207.997891 
L 106.31076 203.321985 
L 106.384016 198.619028 
L 106.70995 193.902304 
L 107.302893 189.188241 
L 108.174394 184.496264 
L 109.332098 179.848279 
L 110.778786 175.267756 
L 112.511764 170.778481 
L 114.522752 166.40312 
L 116.798332 162.161838 
L 119.320898 158.07118 
L 122.069915 154.143395 
L 125.023284 150.386248 
L 125.023284 150.386248 
" style="fill:none;stroke:#000000;stroke-linecap:square;stroke-width:3;"/>
   </g>
   <g id="line2d_82">
    <path clip-path="url(#p8780edcbcc)" d="M 106.31076 388.811119 
L 106.31076 150.386248 
L 229.314835 150.386248 
L 229.314835 388.811119 
L 106.31076 388.811119 
" style="fill:none;stroke:#d3d3d3;stroke-linecap:square;stroke-width:0.5;"/>
   </g>
   <g id="line2d_83">
    <path clip-path="url(#p8780edcbcc)" d="M 310.437175 426.062395 
L 309.598565 423.904399 
L 308.112539 419.379192 
L 306.869916 414.789707 
L 305.870873 410.148931 
L 305.114866 405.469362 
L 304.600823 400.762975 
L 304.327327 396.041219 
L 304.2928 391.315055 
L 304.495667 386.595017 
L 304.93451 381.891295 
L 305.60821 377.21385 
L 306.516078 372.572541 
L 307.657979 367.977285 
L 309.034449 363.438236 
L 310.646813 358.966002 
L 312.497289 354.5719 
L 314.589095 350.268271 
L 316.926547 346.068853 
L 319.515126 341.989265 
L 322.361509 338.047593 
L 325.473507 334.265138 
L 328.859838 330.667353 
L 332.529624 327.284977 
L 336.491393 324.155369 
L 340.751298 321.323906 
L 345.310172 318.845138 
L 350.159034 316.782991 
L 355.27301 315.208833 
L 360.604609 314.195827 
L 366.078945 313.808458 
L 371.594999 314.088327 
L 377.036187 315.040939 
L 382.28877 316.630375 
L 387.260917 318.785819 
L 391.894059 321.416995 
L 396.1634 324.430959 
L 400.070665 327.744031 
L 403.634389 331.287177 
L 406.881513 335.006476 
L 409.841633 338.861075 
L 412.543672 342.820434 
L 415.014276 346.861758 
L 417.277226 350.967921 
L 419.353407 355.12592 
L 421.26102 359.325748 
L 423.015895 363.5596 
L 424.631807 367.8213 
L 426.120781 372.105899 
L 427.493353 376.409382 
L 428.758791 380.728462 
L 429.925289 385.060415 
L 431.000121 389.402972 
L 431.989777 393.754224 
L 432.900068 398.112558 
L 433.73622 402.476606 
L 434.502951 406.845199 
L 435.204538 411.217336 
L 435.844867 415.592162 
L 436.427483 419.96894 
L 436.955628 424.347036 
L 437.432278 428.72591 
L 437.432278 428.72591 
" style="fill:none;stroke:#000000;stroke-linecap:square;stroke-width:3;"/>
   </g>
   <g id="line2d_84">
    <path clip-path="url(#p8780edcbcc)" d="M 304.2928 428.72591 
L 304.2928 313.808458 
L 437.432278 313.808458 
L 437.432278 428.72591 
L 304.2928 428.72591 
" style="fill:none;stroke:#d3d3d3;stroke-linecap:square;stroke-width:0.5;"/>
   </g>
   <g id="line2d_85">
    <path clip-path="url(#p8780edcbcc)" d="M 186.794728 588.710725 
L 183.770716 594.105638 
L 182.428083 602.294096 
L 187.099405 611.419747 
L 193.911202 615.330668 
L 199.824812 616.752317 
L 205.193329 617.252621 
L 210.266571 617.279713 
L 215.158081 617.006688 
L 219.92557 616.518356 
L 224.601892 615.862956 
L 229.20739 615.070739 
L 233.755439 614.161987 
L 238.255218 613.150965 
L 242.713217 612.048048 
L 247.134121 610.860962 
L 251.52135 609.595542 
L 255.877404 608.256221 
L 260.204096 606.846351 
L 264.502705 605.368423 
L 268.774081 603.824219 
L 273.01872 602.214921 
L 277.236807 600.541179 
L 281.428253 598.803163 
L 285.592707 597.000599 
L 289.729566 595.132777 
L 293.837969 593.198564 
L 297.916784 591.196392 
L 301.964585 589.124245 
L 305.979622 586.97963 
L 309.959773 584.759541 
L 313.902488 582.460417 
L 317.804713 580.07808 
L 321.662791 577.607667 
L 325.472341 575.043557 
L 329.228095 572.379284 
L 332.923691 569.607445 
L 336.551413 566.719617 
L 340.10185 563.706289 
L 343.563469 560.556851 
L 346.922082 557.259656 
L 350.160199 553.802268 
L 353.256299 550.171962 
L 356.184075 546.356651 
L 358.911843 542.346381 
L 361.402429 538.135535 
L 363.614024 533.72569 
L 365.502567 529.128701 
L 367.025994 524.369072 
L 368.149993 519.484281 
L 368.853843 514.522026 
L 369.134271 509.53451 
L 369.005741 504.571472 
L 368.497122 499.674312 
L 367.646282 494.872976 
L 366.494566 490.185755 
L 365.082536 485.621067 
L 363.447378 481.180024 
L 361.621747 476.85892 
L 359.633559 472.651229 
L 357.506315 468.549026 
L 355.259641 464.543924 
L 356.910371 467.295161 
" style="fill:none;stroke:#000000;stroke-linecap:square;stroke-width:3;"/>
   </g>
   <g id="line2d_86">
    <path clip-path="url(#p8780edcbcc)" d="M 182.428083 617.279713 
L 182.428083 464.543924 
L 369.134271 464.543924 
L 369.134271 617.279713 
L 182.428083 617.279713 
" style="fill:none;stroke:#d3d3d3;stroke-linecap:square;stroke-width:0.5;"/>
   </g>
   <g id="line2d_87">
    <path clip-path="url(#p8780edcbcc)" d="M 229.314835 388.811119 
L 229.348886 393.540485 
L 229.399071 397.864766 
L 229.466091 402.184649 
L 229.547749 406.499937 
L 229.641804 410.810407 
L 229.745946 415.115806 
L 229.857769 419.415852 
L 229.974738 423.710224 
L 230.09416 427.998563 
L 230.213153 432.280463 
L 230.328609 436.555459 
L 230.437161 440.823027 
L 230.535143 445.082566 
L 230.618554 449.333389 
L 230.683018 453.574712 
L 230.723749 457.80564 
L 230.735522 462.025157 
L 230.712643 466.232116 
L 230.648946 470.425233 
L 230.537794 474.603092 
L 230.372117 478.764152 
L 230.144471 482.906779 
L 229.847146 487.029283 
L 229.472313 491.129973 
L 229.012216 495.207233 
L 228.459414 499.259589 
L 227.80705 503.28578 
L 227.049145 507.284806 
L 226.180889 511.255934 
L 225.198895 515.198681 
L 224.101395 519.112765 
L 222.888343 522.99805 
L 221.561403 526.854508 
L 220.123823 530.682216 
L 218.580192 534.481384 
L 216.936134 538.252395 
L 215.197964 541.995854 
L 213.37236 545.712604 
L 211.466076 549.403725 
L 209.485721 553.070497 
L 207.43761 556.714346 
L 205.327665 560.336775 
L 203.16138 563.939304 
L 200.943811 567.523411 
L 198.679592 571.090485 
L 196.372959 574.641803 
L 194.027784 578.178515 
L 191.647596 581.701644 
L 189.235608 585.212106 
L 186.794728 588.710725 
" style="fill:none;stroke:#000000;stroke-linecap:square;stroke-width:3;"/>
   </g>
   <g id="line2d_88">
    <path clip-path="url(#p8780edcbcc)" d="M 186.794728 588.710725 
L 186.794728 388.811119 
L 230.735522 388.811119 
L 230.735522 588.710725 
L 186.794728 588.710725 
" style="fill:none;stroke:#d3d3d3;stroke-linecap:square;stroke-width:0.5;"/>
   </g>
   <g id="line2d_89">
    <path clip-path="url(#p8780edcbcc)" d="M 125.023284 150.386248 
L 125.023284 150.386248 
L 127.861964 147.003734 
L 130.744657 143.644556 
L 133.675877 140.311522 
L 136.660816 137.007949 
L 139.705499 133.737771 
L 142.816963 130.505698 
L 146.003492 127.317417 
L 149.274899 124.179887 
L 152.642889 121.101738 
L 156.121496 118.093846 
L 159.727598 115.170173 
L 163.481483 112.34898 
L 167.40735 109.654631 
L 171.533459 107.12022 
L 175.89127 104.791303 
L 180.512231 102.730731 
L 185.419901 101.023627 
L 190.614735 99.778966 
L 196.051961 99.120287 
L 201.623251 99.157353 
L 207.164402 99.943608 
L 212.500357 101.447707 
L 217.500843 103.566377 
L 222.105804 106.167442 
L 226.313745 109.128341 
L 230.155855 112.352974 
L 233.674949 115.772142 
L 236.913815 119.337715 
L 239.910421 123.016367 
L 242.696717 126.784738 
L 245.298963 130.626107 
L 247.73855 134.52822 
L 250.032872 138.48188 
L 252.196099 142.480026 
" style="fill:none;stroke:#000000;stroke-linecap:square;stroke-width:3;"/>
   </g>
   <g id="line2d_90">
    <path clip-path="url(#p8780edcbcc)" d="M 125.023284 150.386248 
L 125.023284 99.120287 
L 252.196099 99.120287 
L 252.196099 150.386248 
L 125.023284 150.386248 
" style="fill:none;stroke:#d3d3d3;stroke-linecap:square;stroke-width:0.5;"/>
   </g>
   <g id="line2d_91">
    <path clip-path="url(#p8780edcbcc)" d="M 252.196099 142.480026 
L 254.239813 146.517134 
L 256.173506 150.588807 
L 258.004981 154.691496 
L 259.740652 158.82231 
L 261.385781 162.97887 
L 262.944664 167.159215 
L 264.42077 171.361724 
L 265.816847 175.585059 
L 267.135011 179.828126 
L 268.376798 184.090039 
L 269.543211 188.370094 
L 270.634749 192.667749 
L 271.651415 196.982609 
L 272.592716 201.314412 
L 273.457652 205.663016 
L 274.244685 210.028396 
L 274.951693 214.410637 
L 275.575908 218.809927 
L 276.113825 223.226558 
L 276.561089 227.660925 
L 276.912328 232.113528 
L 277.160951 236.584974 
L 277.298858 241.075982 
L 277.316047 245.587384 
L 277.200079 250.120118 
L 276.935308 254.67521 
L 276.501778 259.2537 
L 275.873591 263.856479 
L 275.016451 268.483875 
L 273.883883 273.134696 
L 272.411381 277.803931 
L 270.507599 282.477211 
L 268.042611 287.117391 
L 264.839465 291.633434 
L 260.69758 295.819641 
" style="fill:none;stroke:#000000;stroke-linecap:square;stroke-width:3;"/>
   </g>
   <g id="line2d_92">
    <path clip-path="url(#p8780edcbcc)" d="M 252.196099 295.819641 
L 252.196099 142.480026 
L 277.316047 142.480026 
L 277.316047 295.819641 
L 252.196099 295.819641 
" style="fill:none;stroke:#d3d3d3;stroke-linecap:square;stroke-width:0.5;"/>
   </g>
   <g id="line2d_93">
    <path clip-path="url(#p8780edcbcc)" d="M 260.69758 295.819641 
" style="fill:none;stroke:#000000;stroke-linecap:square;stroke-width:3;"/>
   </g>
   <g id="line2d_94">
    <path clip-path="url(#p8780edcbcc)" d="M 260.69758 295.819641 
L 260.69758 295.819641 
L 260.69758 295.819641 
L 260.69758 295.819641 
L 260.69758 295.819641 
" style="fill:none;stroke:#d3d3d3;stroke-linecap:square;stroke-width:0.5;"/>
   </g>
   <g id="line2d_95">
    <path clip-path="url(#p8780edcbcc)" d="M 260.69758 295.819641 
L 259.168706 297.517489 
L 257.535059 300.155151 
L 256.040169 303.335702 
L 254.72299 306.83504 
L 253.572055 310.533392 
L 252.5667 314.363441 
L 251.687149 318.285018 
L 250.91657 322.272839 
L 250.241079 326.310258 
L 249.649277 330.385886 
L 249.131757 334.49167 
L 248.68068 338.62175 
L 248.289448 342.771754 
L 247.952437 346.938341 
L 247.6648 351.118909 
L 247.422311 355.311397 
L 247.221242 359.514143 
L 247.058262 363.725795 
L 246.930364 367.945239 
L 246.834801 372.171554 
L 246.769027 376.403978 
L 246.73066 380.641878 
L 246.729535 381.002938 
" style="fill:none;stroke:#000000;stroke-linecap:square;stroke-width:3;"/>
   </g>
   <g id="line2d_96">
    <path clip-path="url(#p8780edcbcc)" d="M 246.729535 381.002938 
L 246.729535 295.819641 
L 260.69758 295.819641 
L 260.69758 381.002938 
L 246.729535 381.002938 
" style="fill:none;stroke:#d3d3d3;stroke-linecap:square;stroke-width:0.5;"/>
   </g>
   <g id="line2d_97">
    <path clip-path="url(#p8780edcbcc)" d="M 310.437175 426.062395 
L 305.498746 423.072067 
L 301.862845 420.822132 
L 298.247101 418.537507 
L 294.651429 416.219432 
L 291.075753 413.869033 
L 287.52001 411.487332 
L 283.984148 409.075261 
L 280.468134 406.633667 
L 276.971946 404.163322 
L 273.495582 401.664927 
L 270.039055 399.13912 
L 266.602397 396.586481 
L 263.185658 394.007537 
L 259.788909 391.402763 
L 256.41224 388.772589 
L 253.055761 386.117402 
L 249.719607 383.437548 
L 246.403931 380.733336 
L 246.729535 381.002938 
" style="fill:none;stroke:#000000;stroke-linecap:square;stroke-width:3;"/>
   </g>
   <g id="line2d_98">
    <path clip-path="url(#p8780edcbcc)" d="M 246.403931 426.062395 
L 246.403931 380.733336 
L 310.437175 380.733336 
L 310.437175 426.062395 
L 246.403931 426.062395 
" style="fill:none;stroke:#d3d3d3;stroke-linecap:square;stroke-width:0.5;"/>
   </g>
   <g id="line2d_99">
    <path clip-path="url(#p8780edcbcc)" d="M 437.432278 428.72591 
L 437.432278 428.72591 
L 437.773883 433.531104 
L 437.76908 438.458763 
L 437.322451 443.509303 
L 436.306698 448.660533 
L 434.565501 453.840481 
L 431.945837 458.889235 
L 428.379602 463.542479 
L 423.976234 467.500337 
L 419.010782 470.571741 
L 413.786083 472.751049 
L 408.515753 474.15973 
L 403.309441 474.951934 
L 398.209253 475.262812 
L 393.224076 475.196311 
L 388.349196 474.829045 
L 383.575433 474.217239 
L 378.892924 473.402662 
L 374.29251 472.416902 
L 369.766147 471.28432 
L 365.306915 470.02405 
L 360.908908 468.651383 
L 356.910371 467.295161 
" style="fill:none;stroke:#000000;stroke-linecap:square;stroke-width:3;"/>
   </g>
   <g id="line2d_100">
    <path clip-path="url(#p8780edcbcc)" d="M 356.910371 475.262812 
L 356.910371 428.72591 
L 437.773883 428.72591 
L 437.773883 475.262812 
L 356.910371 475.262812 
" style="fill:none;stroke:#d3d3d3;stroke-linecap:square;stroke-width:0.5;"/>
   </g>
   <g id="line2d_101">
    <path clip-path="url(#p8780edcbcc)" d="M 186.794728 588.710725 
L 186.794728 588.710725 
L 186.794728 588.710725 
" style="fill:none;stroke:#000000;stroke-linecap:square;stroke-width:3;"/>
   </g>
   <g id="line2d_102">
    <path clip-path="url(#p8780edcbcc)" d="M 186.794728 588.710725 
L 186.794728 588.710725 
L 186.794728 588.710725 
L 186.794728 588.710725 
L 186.794728 588.710725 
" style="fill:none;stroke:#d3d3d3;stroke-linecap:square;stroke-width:0.5;"/>
   </g>
   <g id="line2d_103">
    <path clip-path="url(#p8780edcbcc)" d="M 186.794728 588.710725 
L 186.794728 588.710725 
L 186.794728 588.710725 
" style="fill:none;stroke:#000000;stroke-linecap:square;stroke-width:3;"/>
   </g>
   <g id="line2d_104">
    <path clip-path="url(#p8780edcbcc)" d="M 186.794728 588.710725 
L 186.794728 588.710725 
L 186.794728 588.710725 
L 186.794728 588.710725 
L 186.794728 588.710725 
" style="fill:none;stroke:#d3d3d3;stroke-linecap:square;stroke-width:0.5;"/>
   </g>
   <g id="line2d_105">
    <path clip-path="url(#p8780edcbcc)" d="M 289.814737 410.549811 
L 291.484461 410.654244 
L 293.126768 410.965829 
L 294.714691 411.479451 
L 296.222158 412.186674 
L 297.624415 413.075887 
L 298.898437 414.132488 
L 300.023305 415.339129 
L 300.980549 416.675996 
L 301.75445 418.121138 
L 302.332301 419.650825 
L 302.704615 421.239942 
L 302.865277 422.862393 
L 302.811649 424.491539 
L 302.544613 426.100628 
L 302.068552 427.663241 
L 301.391284 429.153718 
L 300.52393 430.547587 
L 299.480731 431.821959 
L 298.278816 432.95591 
L 296.937922 433.93082 
L 295.480065 434.730681 
L 293.929183 435.34236 
L 292.310743 435.755813 
L 290.651318 435.96425 
L 288.978156 435.96425 
L 287.318731 435.755813 
L 285.70029 435.34236 
L 284.149409 434.730681 
L 282.691552 433.93082 
L 281.350657 432.95591 
L 280.148743 431.821959 
L 279.105544 430.547587 
L 278.238189 429.153718 
L 277.560921 427.663241 
L 277.084861 426.100628 
L 276.817824 424.491539 
L 276.764197 422.862393 
L 276.924859 421.239942 
L 277.297172 419.650825 
L 277.875024 418.121138 
L 278.648925 416.675996 
L 279.606169 415.339129 
L 280.731037 414.132488 
L 282.005059 413.075887 
L 283.407316 412.186674 
L 284.914782 411.479451 
L 286.502706 410.965829 
L 288.145013 410.654244 
L 289.814737 410.549811 
" style="fill:none;stroke:#808080;stroke-linecap:square;stroke-width:1.5;"/>
   </g>
   <g id="line2d_106">
    <path clip-path="url(#p8780edcbcc)" d="M 161.694059 294.623282 
L 163.363783 294.727715 
L 165.00609 295.0393 
L 166.594014 295.552921 
L 168.10148 296.260145 
L 169.503737 297.149357 
L 170.777759 298.205959 
L 171.902627 299.4126 
L 172.859871 300.749467 
L 173.633772 302.194609 
L 174.211623 303.724296 
L 174.583937 305.313412 
L 174.744599 306.935864 
L 174.690972 308.56501 
L 174.423935 310.174099 
L 173.947874 311.736712 
L 173.270607 313.227189 
L 172.403252 314.621057 
L 171.360053 315.89543 
L 170.158138 317.02938 
L 168.817244 318.004291 
L 167.359387 318.804152 
L 165.808505 319.415831 
L 164.190065 319.829284 
L 162.53064 320.037721 
L 160.857478 320.037721 
L 159.198053 319.829284 
L 157.579613 319.415831 
L 156.028731 318.804152 
L 154.570874 318.004291 
L 153.22998 317.02938 
L 152.028065 315.89543 
L 150.984866 314.621057 
L 150.117511 313.227189 
L 149.440243 311.736712 
L 148.964183 310.174099 
L 148.697146 308.56501 
L 148.643519 306.935864 
L 148.804181 305.313412 
L 149.176494 303.724296 
L 149.754346 302.194609 
L 150.528247 300.749467 
L 151.485491 299.4126 
L 152.610359 298.205959 
L 153.884381 297.149357 
L 155.286638 296.260145 
L 156.794104 295.552921 
L 158.382028 295.0393 
L 160.024335 294.727715 
L 161.694059 294.623282 
" style="fill:none;stroke:#808080;stroke-linecap:square;stroke-width:1.5;"/>
   </g>
   <g id="line2d_107">
    <path clip-path="url(#p8780edcbcc)" d="M 131.790721 142.999695 
L 133.460445 143.104129 
L 135.102752 143.415714 
L 136.690675 143.929335 
L 138.198142 144.636558 
L 139.600399 145.525771 
L 140.874421 146.582372 
L 141.999289 147.789013 
L 142.956532 149.12588 
L 143.730434 150.571022 
L 144.308285 152.10071 
L 144.680599 153.689826 
L 144.841261 155.312277 
L 144.787633 156.941423 
L 144.520597 158.550513 
L 144.044536 160.113125 
L 143.367268 161.603603 
L 142.499914 162.997471 
L 141.456715 164.271843 
L 140.2548 165.405794 
L 138.913905 166.380704 
L 137.456049 167.180566 
L 135.905167 167.792245 
L 134.286726 168.205697 
L 132.627301 168.414135 
L 130.95414 168.414135 
L 129.294715 168.205697 
L 127.676274 167.792245 
L 126.125393 167.180566 
L 124.667536 166.380704 
L 123.326641 165.405794 
L 122.124727 164.271843 
L 121.081528 162.997471 
L 120.214173 161.603603 
L 119.536905 160.113125 
L 119.060844 158.550513 
L 118.793808 156.941423 
L 118.740181 155.312277 
L 118.900843 153.689826 
L 119.273156 152.10071 
L 119.851008 150.571022 
L 120.624909 149.12588 
L 121.582153 147.789013 
L 122.707021 146.582372 
L 123.981043 145.525771 
L 125.3833 144.636558 
L 126.890766 143.929335 
L 128.47869 143.415714 
L 130.120997 143.104129 
L 131.790721 142.999695 
" style="fill:none;stroke:#808080;stroke-linecap:square;stroke-width:1.5;"/>
   </g>
   <g id="line2d_108">
    <path clip-path="url(#p8780edcbcc)" d="M 246.384338 137.450479 
L 248.054062 137.554912 
L 249.696369 137.866498 
L 251.284293 138.380119 
L 252.791759 139.087342 
L 254.194016 139.976555 
L 255.468038 141.033156 
L 256.592906 142.239797 
L 257.55015 143.576664 
L 258.324051 145.021806 
L 258.901903 146.551494 
L 259.274216 148.14061 
L 259.434878 149.763061 
L 259.381251 151.392207 
L 259.114215 153.001296 
L 258.638154 154.563909 
L 257.960886 156.054386 
L 257.093531 157.448255 
L 256.050332 158.722627 
L 254.848418 159.856578 
L 253.507523 160.831488 
L 252.049666 161.631349 
L 250.498785 162.243028 
L 248.880344 162.656481 
L 247.220919 162.864918 
L 245.547758 162.864918 
L 243.888333 162.656481 
L 242.269892 162.243028 
L 240.71901 161.631349 
L 239.261153 160.831488 
L 237.920259 159.856578 
L 236.718344 158.722627 
L 235.675145 157.448255 
L 234.807791 156.054386 
L 234.130523 154.563909 
L 233.654462 153.001296 
L 233.387426 151.392207 
L 233.333798 149.763061 
L 233.49446 148.14061 
L 233.866774 146.551494 
L 234.444625 145.021806 
L 235.218527 143.576664 
L 236.17577 142.239797 
L 237.300638 141.033156 
L 238.57466 139.976555 
L 239.976917 139.087342 
L 241.484384 138.380119 
L 243.072307 137.866498 
L 244.714614 137.554912 
L 246.384338 137.450479 
" style="fill:none;stroke:#808080;stroke-linecap:square;stroke-width:1.5;"/>
   </g>
   <g id="line2d_109">
    <path clip-path="url(#p8780edcbcc)" d="M 255.021029 276.67035 
L 256.690753 276.774783 
L 258.33306 277.086368 
L 259.920984 277.599989 
L 261.42845 278.307213 
L 262.830707 279.196425 
L 264.104729 280.253027 
L 265.229597 281.459668 
L 266.186841 282.796535 
L 266.960742 284.241677 
L 267.538594 285.771364 
L 267.910907 287.36048 
L 268.071569 288.982932 
L 268.017942 290.612078 
L 267.750905 292.221167 
L 267.274845 293.78378 
L 266.597577 295.274257 
L 265.730222 296.668125 
L 264.687023 297.942498 
L 263.485108 299.076448 
L 262.144214 300.051359 
L 260.686357 300.85122 
L 259.135475 301.462899 
L 257.517035 301.876352 
L 255.85761 302.084789 
L 254.184448 302.084789 
L 252.525023 301.876352 
L 250.906583 301.462899 
L 249.355701 300.85122 
L 247.897844 300.051359 
L 246.55695 299.076448 
L 245.355035 297.942498 
L 244.311836 296.668125 
L 243.444481 295.274257 
L 242.767213 293.78378 
L 242.291153 292.221167 
L 242.024116 290.612078 
L 241.970489 288.982932 
L 242.131151 287.36048 
L 242.503465 285.771364 
L 243.081316 284.241677 
L 243.855217 282.796535 
L 244.812461 281.459668 
L 245.937329 280.253027 
L 247.211351 279.196425 
L 248.613608 278.307213 
L 250.121074 277.599989 
L 251.708998 277.086368 
L 253.351305 276.774783 
L 255.021029 276.67035 
" style="fill:none;stroke:#808080;stroke-linecap:square;stroke-width:1.5;"/>
   </g>
   <g id="line2d_110">
    <path clip-path="url(#p8780edcbcc)" d="M 239.238071 432.184884 
L 240.907795 432.289318 
L 242.550102 432.600903 
L 244.138025 433.114524 
L 245.645492 433.821748 
L 247.047749 434.71096 
L 248.321771 435.767562 
L 249.446639 436.974202 
L 250.403883 438.311069 
L 251.177784 439.756211 
L 251.755635 441.285899 
L 252.127949 442.875015 
L 252.288611 444.497467 
L 252.234983 446.126612 
L 251.967947 447.735702 
L 251.491886 449.298315 
L 250.814618 450.788792 
L 249.947264 452.18266 
L 248.904065 453.457032 
L 247.70215 454.590983 
L 246.361256 455.565893 
L 244.903399 456.365755 
L 243.352517 456.977434 
L 241.734077 457.390886 
L 240.074652 457.599324 
L 238.40149 457.599324 
L 236.742065 457.390886 
L 235.123624 456.977434 
L 233.572743 456.365755 
L 232.114886 455.565893 
L 230.773991 454.590983 
L 229.572077 453.457032 
L 228.528878 452.18266 
L 227.661523 450.788792 
L 226.984255 449.298315 
L 226.508195 447.735702 
L 226.241158 446.126612 
L 226.187531 444.497467 
L 226.348193 442.875015 
L 226.720506 441.285899 
L 227.298358 439.756211 
L 228.072259 438.311069 
L 229.029503 436.974202 
L 230.154371 435.767562 
L 231.428393 434.71096 
L 232.83065 433.821748 
L 234.338116 433.114524 
L 235.92604 432.600903 
L 237.568347 432.289318 
L 239.238071 432.184884 
" style="fill:none;stroke:#808080;stroke-linecap:square;stroke-width:1.5;"/>
   </g>
   <g id="line2d_111">
    <path clip-path="url(#p8780edcbcc)" d="M 193.977769 580.780661 
L 195.647493 580.885094 
L 197.2898 581.196679 
L 198.877724 581.710301 
L 200.38519 582.417524 
L 201.787447 583.306737 
L 203.061469 584.363338 
L 204.186337 585.569979 
L 205.143581 586.906846 
L 205.917482 588.351988 
L 206.495334 589.881675 
L 206.867647 591.470792 
L 207.028309 593.093243 
L 206.974682 594.722389 
L 206.707645 596.331478 
L 206.231585 597.894091 
L 205.554317 599.384568 
L 204.686962 600.778437 
L 203.643763 602.052809 
L 202.441848 603.18676 
L 201.100954 604.16167 
L 199.643097 604.961531 
L 198.092215 605.57321 
L 196.473775 605.986663 
L 194.81435 606.1951 
L 193.141188 606.1951 
L 191.481763 605.986663 
L 189.863323 605.57321 
L 188.312441 604.961531 
L 186.854584 604.16167 
L 185.51369 603.18676 
L 184.311775 602.052809 
L 183.268576 600.778437 
L 182.401221 599.384568 
L 181.723953 597.894091 
L 181.247893 596.331478 
L 180.980856 594.722389 
L 180.927229 593.093243 
L 181.087891 591.470792 
L 181.460204 589.881675 
L 182.038056 588.351988 
L 182.811957 586.906846 
L 183.769201 585.569979 
L 184.894069 584.363338 
L 186.168091 583.306737 
L 187.570348 582.417524 
L 189.077814 581.710301 
L 190.665738 581.196679 
L 192.308045 580.885094 
L 193.977769 580.780661 
" style="fill:none;stroke:#808080;stroke-linecap:square;stroke-width:1.5;"/>
   </g>
   <g id="line2d_112">
    <path clip-path="url(#p8780edcbcc)" d="M 193.977769 580.780661 
L 195.647493 580.885094 
L 197.2898 581.196679 
L 198.877724 581.710301 
L 200.38519 582.417524 
L 201.787447 583.306737 
L 203.061469 584.363338 
L 204.186337 585.569979 
L 205.143581 586.906846 
L 205.917482 588.351988 
L 206.495334 589.881675 
L 206.867647 591.470792 
L 207.028309 593.093243 
L 206.974682 594.722389 
L 206.707645 596.331478 
L 206.231585 597.894091 
L 205.554317 599.384568 
L 204.686962 600.778437 
L 203.643763 602.052809 
L 202.441848 603.18676 
L 201.100954 604.16167 
L 199.643097 604.961531 
L 198.092215 605.57321 
L 196.473775 605.986663 
L 194.81435 606.1951 
L 193.141188 606.1951 
L 191.481763 605.986663 
L 189.863323 605.57321 
L 188.312441 604.961531 
L 186.854584 604.16167 
L 185.51369 603.18676 
L 184.311775 602.052809 
L 183.268576 600.778437 
L 182.401221 599.384568 
L 181.723953 597.894091 
L 181.247893 596.331478 
L 180.980856 594.722389 
L 180.927229 593.093243 
L 181.087891 591.470792 
L 181.460204 589.881675 
L 182.038056 588.351988 
L 182.811957 586.906846 
L 183.769201 585.569979 
L 184.894069 584.363338 
L 186.168091 583.306737 
L 187.570348 582.417524 
L 189.077814 581.710301 
L 190.665738 581.196679 
L 192.308045 580.885094 
L 193.977769 580.780661 
" style="fill:none;stroke:#808080;stroke-linecap:square;stroke-width:1.5;"/>
   </g>
   <g id="line2d_113">
    <path clip-path="url(#p8780edcbcc)" d="M 320.43805 555.405123 
L 322.107774 555.509556 
L 323.750081 555.821141 
L 325.338004 556.334762 
L 326.845471 557.041986 
L 328.247728 557.931198 
L 329.52175 558.9878 
L 330.646618 560.194441 
L 331.603861 561.531308 
L 332.377763 562.97645 
L 332.955614 564.506137 
L 333.327928 566.095253 
L 333.48859 567.717705 
L 333.434962 569.346851 
L 333.167926 570.95594 
L 332.691865 572.518553 
L 332.014597 574.00903 
L 331.147243 575.402898 
L 330.104044 576.677271 
L 328.902129 577.811221 
L 327.561235 578.786132 
L 326.103378 579.585993 
L 324.552496 580.197672 
L 322.934055 580.611125 
L 321.274631 580.819562 
L 319.601469 580.819562 
L 317.942044 580.611125 
L 316.323603 580.197672 
L 314.772722 579.585993 
L 313.314865 578.786132 
L 311.97397 577.811221 
L 310.772056 576.677271 
L 309.728857 575.402898 
L 308.861502 574.00903 
L 308.184234 572.518553 
L 307.708174 570.95594 
L 307.441137 569.346851 
L 307.38751 567.717705 
L 307.548172 566.095253 
L 307.920485 564.506137 
L 308.498337 562.97645 
L 309.272238 561.531308 
L 310.229482 560.194441 
L 311.35435 558.9878 
L 312.628372 557.931198 
L 314.030629 557.041986 
L 315.538095 556.334762 
L 317.126019 555.821141 
L 318.768326 555.509556 
L 320.43805 555.405123 
" style="fill:none;stroke:#808080;stroke-linecap:square;stroke-width:1.5;"/>
   </g>
   <g id="line2d_114">
    <path clip-path="url(#p8780edcbcc)" d="M 330.376593 431.049672 
L 332.046317 431.154105 
L 333.688624 431.465691 
L 335.276548 431.979312 
L 336.784014 432.686535 
L 338.186271 433.575748 
L 339.460293 434.632349 
L 340.585161 435.83899 
L 341.542405 437.175857 
L 342.316306 438.620999 
L 342.894158 440.150687 
L 343.266471 441.739803 
L 343.427133 443.362254 
L 343.373506 444.9914 
L 343.106469 446.60049 
L 342.630409 448.163102 
L 341.953141 449.653579 
L 341.085786 451.047448 
L 340.042587 452.32182 
L 338.840672 453.455771 
L 337.499778 454.430681 
L 336.041921 455.230542 
L 334.491039 455.842221 
L 332.872599 456.255674 
L 331.213174 456.464112 
L 329.540012 456.464112 
L 327.880587 456.255674 
L 326.262147 455.842221 
L 324.711265 455.230542 
L 323.253408 454.430681 
L 321.912514 453.455771 
L 320.710599 452.32182 
L 319.6674 451.047448 
L 318.800045 449.653579 
L 318.122777 448.163102 
L 317.646717 446.60049 
L 317.37968 444.9914 
L 317.326053 443.362254 
L 317.486715 441.739803 
L 317.859028 440.150687 
L 318.43688 438.620999 
L 319.210781 437.175857 
L 320.168025 435.83899 
L 321.292893 434.632349 
L 322.566915 433.575748 
L 323.969172 432.686535 
L 325.476638 431.979312 
L 327.064562 431.465691 
L 328.706869 431.154105 
L 330.376593 431.049672 
" style="fill:none;stroke:#808080;stroke-linecap:square;stroke-width:1.5;"/>
   </g>
   <g id="line2d_115">
    <path clip-path="url(#p8780edcbcc)" d="M 330.376593 431.049672 
L 332.046317 431.154105 
L 333.688624 431.465691 
L 335.276548 431.979312 
L 336.784014 432.686535 
L 338.186271 433.575748 
L 339.460293 434.632349 
L 340.585161 435.83899 
L 341.542405 437.175857 
L 342.316306 438.620999 
L 342.894158 440.150687 
L 343.266471 441.739803 
L 343.427133 443.362254 
L 343.373506 444.9914 
L 343.106469 446.60049 
L 342.630409 448.163102 
L 341.953141 449.653579 
L 341.085786 451.047448 
L 340.042587 452.32182 
L 338.840672 453.455771 
L 337.499778 454.430681 
L 336.041921 455.230542 
L 334.491039 455.842221 
L 332.872599 456.255674 
L 331.213174 456.464112 
L 329.540012 456.464112 
L 327.880587 456.255674 
L 326.262147 455.842221 
L 324.711265 455.230542 
L 323.253408 454.430681 
L 321.912514 453.455771 
L 320.710599 452.32182 
L 319.6674 451.047448 
L 318.800045 449.653579 
L 318.122777 448.163102 
L 317.646717 446.60049 
L 317.37968 444.9914 
L 317.326053 443.362254 
L 317.486715 441.739803 
L 317.859028 440.150687 
L 318.43688 438.620999 
L 319.210781 437.175857 
L 320.168025 435.83899 
L 321.292893 434.632349 
L 322.566915 433.575748 
L 323.969172 432.686535 
L 325.476638 431.979312 
L 327.064562 431.465691 
L 328.706869 431.154105 
L 330.376593 431.049672 
" style="fill:none;stroke:#808080;stroke-linecap:square;stroke-width:1.5;"/>
   </g>
   <g id="line2d_116">
    <path clip-path="url(#p8780edcbcc)" d="M 428.771091 416.853749 
L 430.440815 416.958183 
L 432.083122 417.269768 
L 433.671045 417.783389 
L 435.178512 418.490613 
L 436.580769 419.379825 
L 437.854791 420.436427 
L 438.979659 421.643067 
L 439.936902 422.979934 
L 440.710804 424.425076 
L 441.288655 425.954764 
L 441.660969 427.54388 
L 441.821631 429.166332 
L 441.768003 430.795477 
L 441.500967 432.404567 
L 441.024906 433.96718 
L 440.347638 435.457657 
L 439.480284 436.851525 
L 438.437085 438.125897 
L 437.23517 439.259848 
L 435.894276 440.234758 
L 434.436419 441.03462 
L 432.885537 441.646299 
L 431.267096 442.059751 
L 429.607672 442.268189 
L 427.93451 442.268189 
L 426.275085 442.059751 
L 424.656644 441.646299 
L 423.105763 441.03462 
L 421.647906 440.234758 
L 420.307011 439.259848 
L 419.105097 438.125897 
L 418.061898 436.851525 
L 417.194543 435.457657 
L 416.517275 433.96718 
L 416.041215 432.404567 
L 415.774178 430.795477 
L 415.720551 429.166332 
L 415.881213 427.54388 
L 416.253526 425.954764 
L 416.831378 424.425076 
L 417.605279 422.979934 
L 418.562523 421.643067 
L 419.687391 420.436427 
L 420.961413 419.379825 
L 422.36367 418.490613 
L 423.871136 417.783389 
L 425.45906 417.269768 
L 427.101367 416.958183 
L 428.771091 416.853749 
" style="fill:none;stroke:#808080;stroke-linecap:square;stroke-width:1.5;"/>
   </g>
   <g id="line2d_117"/>
   <g id="line2d_118"/>
   <g id="line2d_119"/>
   <g id="line2d_120"/>
   <g id="line2d_121"/>
   <g id="line2d_122"/>
   <g id="line2d_123"/>
   <g id="line2d_124"/>
   <g id="line2d_125"/>
   <g id="line2d_126"/>
   <g id="line2d_127"/>
   <g id="line2d_128"/>
   <g id="line2d_129"/>
   <g id="line2d_130"/>
   <g id="line2d_131"/>
   <g id="line2d_132"/>
   <g id="line2d_133"/>
   <g id="line2d_134"/>
   <g id="line2d_135"/>
   <g id="line2d_136"/>
   <g id="line2d_137"/>
   <g id="line2d_138"/>
   <g id="line2d_139"/>
   <g id="line2d_140"/>
   <g id="line2d_141"/>
   <g id="line2d_142"/>
   <g id="line2d_143"/>
   <g id="line2d_144"/>
   <g id="line2d_145"/>
   <g id="line2d_146"/>
   <g id="line2d_147"/>
   <g id="line2d_148"/>
   <g id="line2d_149"/>
   <g id="line2d_150"/>
   <g id="line2d_151"/>
   <g id="line2d_152"/>
   <g id="line2d_153"/>
   <g id="line2d_154"/>
   <g id="line2d_155"/>
   <g id="line2d_156"/>
   <g id="line2d_157"/>
   <g id="line2d_158"/>
   <g id="line2d_159"/>
   <g id="line2d_160"/>
   <g id="line2d_161"/>
   <g id="line2d_162"/>
   <g id="line2d_163"/>
   <g id="line2d_164"/>
   <g id="line2d_165"/>
   <g id="line2d_166"/>
   <g id="line2d_167"/>
   <g id="patch_3">
    <path d="M 90 630 
L 90 86.4 
" style="fill:none;stroke:#000000;stroke-linecap:square;stroke-linejoin:miter;stroke-width:0.8;"/>
   </g>
   <g id="patch_4">
    <path d="M 648 630 
L 648 86.4 
" style="fill:none;stroke:#000000;stroke-linecap:square;stroke-linejoin:miter;stroke-width:0.8;"/>
   </g>
   <g id="patch_5">
    <path d="M 90 630 
L 648 630 
" style="fill:none;stroke:#000000;stroke-linecap:square;stroke-linejoin:miter;stroke-width:0.8;"/>
   </g>
   <g id="patch_6">
    <path d="M 90 86.4 
L 648 86.4 
" style="fill:none;stroke:#000000;stroke-linecap:square;stroke-linejoin:miter;stroke-width:0.8;"/>
   </g>
   <g id="text_15">
    <!-- 0 -->
    <g transform="translate(91.073373 459.350494)scale(0.1 -0.1)">
     <use xlink:href="#DejaVuSans-30"/>
    </g>
   </g>
   <g id="text_16">
    <!-- 0 -->
    <g transform="translate(91.073373 446.630207)scale(0.1 -0.1)">
     <use xlink:href="#DejaVuSans-30"/>
    </g>
   </g>
   <g id="text_17">
    <!-- 0 -->
    <g transform="translate(91.073373 433.909919)scale(0.1 -0.1)">
     <use xlink:href="#DejaVuSans-30"/>
    </g>
   </g>
  </g>
 </g>
 <defs>
  <clipPath id="p8780edcbcc">
   <rect height="543.6" width="558" x="90" y="86.4"/>
  </clipPath>
 </defs>
</svg>
