<?xml version="1.0" encoding="utf-8" standalone="no"?>
<!DOCTYPE svg PUBLIC "-//W3C//DTD SVG 1.1//EN"
  "http://www.w3.org/Graphics/SVG/1.1/DTD/svg11.dtd">
<svg height="720pt" version="1.1" viewBox="0 0 720 720" width="720pt" xmlns="http://www.w3.org/2000/svg" xmlns:xlink="http://www.w3.org/1999/xlink">
 <metadata>
  <rdf:RDF xmlns:cc="http://creativecommons.org/ns#" xmlns:dc="http://purl.org/dc/elements/1.1/" xmlns:rdf="http://www.w3.org/1999/02/22-rdf-syntax-ns#">
   <cc:Work>
    <dc:type rdf:resource="http://purl.org/dc/dcmitype/StillImage"/>
    <dc:date>2022-01-11T13:26:10.700930</dc:date>
    <dc:format>image/svg+xml</dc:format>
    <dc:creator>
     <cc:Agent>
      <dc:title>Matplotlib v3.4.3, https://matplotlib.org/</dc:title>
     </cc:Agent>
    </dc:creator>
   </cc:Work>
  </rdf:RDF>
 </metadata>
 <defs>
  <style type="text/css">*{stroke-linecap:butt;stroke-linejoin:round;}</style>
 </defs>
 <g id="figure_1">
  <g id="patch_1">
   <path d="M 0 720 
L 720 720 
L 720 0 
L 0 0 
z
" style="fill:none;"/>
  </g>
  <g id="axes_1">
   <g id="patch_2">
    <path d="M 90 630 
L 648 630 
L 648 86.4 
L 90 86.4 
z
" style="fill:#ffffff;"/>
   </g>
   <g id="PathCollection_1">
    <defs>
     <path d="M 0.972304 -8.870829 
Q -1.277159 -8.870829 -2.413438 -6.653699 
Q -3.545098 -4.441189 -3.545098 0.006929 
Q -3.545098 4.436569 -2.413438 6.653699 
Q -1.277159 8.870829 0.972304 8.870829 
Q 3.240243 8.870829 4.371903 6.653699 
Q 5.508182 4.436569 5.508182 0.006929 
Q 5.508182 -4.441189 4.371903 -6.653699 
Q 3.240243 -8.870829 0.972304 -8.870829 
z
M 0.972304 -11.18034 
Q 4.598235 -11.18034 6.51051 -8.311928 
Q 8.422784 -5.448135 8.422784 0.006929 
Q 8.422784 5.448135 6.51051 8.316547 
Q 4.598235 11.18034 0.972304 11.18034 
Q -2.649008 11.18034 -4.561283 8.316547 
Q -6.473558 5.448135 -6.473558 0.006929 
Q -6.473558 -5.448135 -4.561283 -8.311928 
Q -2.649008 -11.18034 0.972304 -11.18034 
z
" id="m94f30007b1" style="stroke:#808080;"/>
    </defs>
    <g clip-path="url(#pc361eb7eee)">
     <use style="fill:#808080;stroke:#808080;" x="336.107551" xlink:href="#m94f30007b1" y="384.793314"/>
    </g>
   </g>
   <g id="PathCollection_2">
    <defs>
     <path d="M -4.535873 8.63565 
L 0.404946 8.63565 
L 0.404946 -8.424791 
L -4.971969 -7.346533 
L -4.971969 -10.102082 
L 0.376192 -11.18034 
L 3.400108 -11.18034 
L 3.400108 8.63565 
L 8.340927 8.63565 
L 8.340927 11.18034 
L -4.535873 11.18034 
L -4.535873 8.63565 
z
" id="med0da035df" style="stroke:#808080;"/>
    </defs>
    <g clip-path="url(#pc361eb7eee)">
     <use style="fill:#808080;stroke:#808080;" x="260.997483" xlink:href="#med0da035df" y="357.135603"/>
    </g>
   </g>
   <g id="PathCollection_3">
    <defs>
     <path d="M -2.294912 8.680651 
L 8.075736 8.680651 
L 8.075736 11.18034 
L -5.867913 11.18034 
L -5.867913 8.680651 
Q -4.177916 6.929457 -1.259259 3.982555 
Q 1.664105 1.030945 2.4126 0.174178 
Q 3.838976 -1.426376 4.403877 -2.537349 
Q 4.973486 -3.648321 4.973486 -4.721634 
Q 4.973486 -6.472828 3.744825 -7.574386 
Q 2.516165 -8.680651 0.543718 -8.680651 
Q -0.854413 -8.680651 -2.407892 -8.195778 
Q -3.956663 -7.710904 -5.72198 -6.722326 
L -5.72198 -9.725719 
Q -3.928418 -10.445968 -2.370232 -10.813154 
Q -0.807338 -11.18034 0.487227 -11.18034 
Q 3.900173 -11.18034 5.929111 -9.471513 
Q 7.958048 -7.767394 7.958048 -4.914642 
Q 7.958048 -3.558879 7.449637 -2.344341 
Q 6.945933 -1.13451 5.604292 0.513119 
Q 5.237107 0.941502 3.264659 2.979855 
Q 1.296919 5.018207 -2.294912 8.680651 
z
" id="m5fbdc6d21f" style="stroke:#808080;"/>
    </defs>
    <g clip-path="url(#pc361eb7eee)">
     <use style="fill:#808080;stroke:#808080;" x="116.800869" xlink:href="#m5fbdc6d21f" y="513.754066"/>
    </g>
   </g>
   <g id="PathCollection_4">
    <defs>
     <path d="M 3.77605 -0.861447 
Q 5.868466 -0.413402 7.041697 1.004637 
Q 8.219548 2.418057 8.219548 4.496617 
Q 8.219548 7.683741 6.025513 9.43435 
Q 3.831478 11.18034 -0.210165 11.18034 
Q -1.563539 11.18034 -3.000054 10.912437 
Q -4.436569 10.644533 -5.965465 10.108727 
L -5.965465 7.295743 
Q -4.755282 8.002454 -3.314147 8.362737 
Q -1.868394 8.723021 -0.293308 8.723021 
Q 2.445772 8.723021 3.882287 7.64217 
Q 5.318802 6.561319 5.318802 4.496617 
Q 5.318802 2.588961 3.983905 1.517348 
Q 2.649008 0.441116 0.270213 0.441116 
L -2.242535 0.441116 
L -2.242535 -1.956155 
L 0.385688 -1.956155 
Q 2.533533 -1.956155 3.674431 -2.815293 
Q 4.815329 -3.674431 4.815329 -5.291088 
Q 4.815329 -6.949317 3.637479 -7.836169 
Q 2.464248 -8.72764 0.270213 -8.72764 
Q -0.930733 -8.72764 -2.302582 -8.464356 
Q -3.674431 -8.20569 -5.318802 -7.660646 
L -5.318802 -10.256536 
Q -3.655955 -10.718438 -2.205582 -10.949389 
Q -0.75521 -11.18034 0.528878 -11.18034 
Q 3.849954 -11.18034 5.780705 -9.66992 
Q 7.716074 -8.164119 7.716074 -5.595944 
Q 7.716074 -3.803764 6.690652 -2.570485 
Q 5.665229 -1.337207 3.77605 -0.861447 
z
" id="mce185d3a65" style="stroke:#808080;"/>
    </defs>
    <g clip-path="url(#pc361eb7eee)">
     <use style="fill:#808080;stroke:#808080;" x="239.133619" xlink:href="#mce185d3a65" y="523.542508"/>
    </g>
   </g>
   <g id="PathCollection_5">
    <defs>
     <path d="M 2.695646 -8.544598 
L -4.943215 3.392919 
L 2.695646 3.392919 
L 2.695646 -8.544598 
z
M 1.900131 -11.18034 
L 5.705184 -11.18034 
L 5.705184 3.392919 
L 8.896829 3.392919 
L 8.896829 5.908855 
L 5.705184 5.908855 
L 5.705184 11.18034 
L 2.695646 11.18034 
L 2.695646 5.908855 
L -7.396852 5.908855 
L -7.396852 2.99037 
L 1.900131 -11.18034 
z
" id="m7cc5d9a0eb" style="stroke:#808080;"/>
    </defs>
    <g clip-path="url(#pc361eb7eee)">
     <use style="fill:#808080;stroke:#808080;" x="365.651723" xlink:href="#m7cc5d9a0eb" y="497.095278"/>
    </g>
   </g>
   <g id="PathCollection_6">
    <defs>
     <path d="M -5.008473 -11.18034 
L 6.639575 -11.18034 
L 6.639575 -8.679629 
L -2.291535 -8.679629 
L -2.291535 -3.306861 
Q -1.647555 -3.527789 -1.003575 -3.635902 
Q -0.354894 -3.744015 0.293787 -3.744015 
Q 3.964943 -3.744015 6.108409 -1.732165 
Q 8.256576 0.279685 8.256576 3.715812 
Q 8.256576 7.255352 6.052002 9.220196 
Q 3.847428 11.18034 -0.16217 11.18034 
Q -1.544142 11.18034 -2.97782 10.945311 
Q -4.406798 10.710281 -5.934488 10.240223 
L -5.934488 7.255352 
Q -4.613624 7.974541 -3.203448 8.327085 
Q -1.793273 8.679629 -0.223278 8.679629 
Q 2.319738 8.679629 3.800422 7.344663 
Q 5.285807 6.009697 5.285807 3.715812 
Q 5.285807 1.426627 3.800422 0.091661 
Q 2.319738 -1.248005 -0.223278 -1.248005 
Q -1.412526 -1.248005 -2.597073 -0.984772 
Q -3.77692 -0.72154 -5.008473 -0.16217 
L -5.008473 -11.18034 
z
" id="m99708a1a0c" style="stroke:#808080;"/>
    </defs>
    <g clip-path="url(#pc361eb7eee)">
     <use style="fill:#808080;stroke:#808080;" x="493.516614" xlink:href="#m99708a1a0c" y="479.750999"/>
    </g>
   </g>
   <g id="PathCollection_7">
    <defs>
     <path d="M 1.286397 -1.175541 
Q -0.676687 -1.175541 -1.826823 0.168594 
Q -2.97234 1.50811 -2.97234 3.845335 
Q -2.97234 6.168702 -1.826823 7.522075 
Q -0.676687 8.870829 1.286397 8.870829 
Q 3.249481 8.870829 4.394998 7.522075 
Q 5.540515 6.168702 5.540515 3.845335 
Q 5.540515 1.50811 4.394998 0.168594 
Q 3.249481 -1.175541 1.286397 -1.175541 
z
M 7.07403 -10.316583 
L 7.07403 -7.660646 
Q 5.974703 -8.177976 4.8569 -8.450499 
Q 3.739097 -8.72764 2.63977 -8.72764 
Q -0.247118 -8.72764 -1.771394 -6.778413 
Q -3.291052 -4.829186 -3.508146 -0.889162 
Q -2.658246 -2.145535 -1.374159 -2.815293 
Q -0.085452 -3.485051 1.457301 -3.485051 
Q 4.704473 -3.485051 6.589033 -1.512729 
Q 8.473594 0.454974 8.473594 3.845335 
Q 8.473594 7.166411 6.51051 9.175685 
Q 4.547426 11.18034 1.286397 11.18034 
Q -2.45501 11.18034 -4.43195 8.316547 
Q -6.408891 5.448135 -6.408891 0.006929 
Q -6.408891 -5.101708 -3.983905 -8.141024 
Q -1.55892 -11.18034 2.524295 -11.18034 
Q 3.623622 -11.18034 4.741425 -10.963246 
Q 5.859228 -10.746152 7.07403 -10.316583 
z
" id="m2aa8f8bb7b" style="stroke:#808080;"/>
    </defs>
    <g clip-path="url(#pc361eb7eee)">
     <use style="fill:#808080;stroke:#808080;" x="493.516614" xlink:href="#m2aa8f8bb7b" y="479.750999"/>
    </g>
   </g>
   <g id="PathCollection_8">
    <defs>
     <path d="M -5.93042 -11.18034 
L 8.446356 -11.18034 
L 8.446356 -9.891222 
L 0.32827 11.18034 
L -2.829829 11.18034 
L 4.809032 -8.630858 
L -5.93042 -8.630858 
L -5.93042 -11.18034 
z
" id="me0e3e218f2" style="stroke:#808080;"/>
    </defs>
    <g clip-path="url(#pc361eb7eee)">
     <use style="fill:#808080;stroke:#808080;" x="545.059894" xlink:href="#me0e3e218f2" y="407.755117"/>
    </g>
   </g>
   <g id="PathCollection_9">
    <defs>
     <path d="M 1.002328 0.524259 
Q -1.076232 0.524259 -2.267939 1.637443 
Q -3.455028 2.750627 -3.455028 4.695235 
Q -3.455028 6.644461 -2.267939 7.757645 
Q -1.076232 8.870829 1.002328 8.870829 
Q 3.080887 8.870829 4.277213 7.753026 
Q 5.478159 6.630604 5.478159 4.695235 
Q 5.478159 2.750627 4.286451 1.637443 
Q 3.099363 0.524259 1.002328 0.524259 
z
M -1.912275 -0.713639 
Q -3.787597 -1.175541 -4.836115 -2.459629 
Q -5.880014 -3.748335 -5.880014 -5.595944 
Q -5.880014 -8.177976 -4.041643 -9.679158 
Q -2.198654 -11.18034 1.002328 -11.18034 
Q 4.221785 -11.18034 6.055536 -9.679158 
Q 7.889288 -8.177976 7.889288 -5.595944 
Q 7.889288 -3.748335 6.84077 -2.459629 
Q 5.796871 -1.175541 3.935406 -0.713639 
Q 6.041679 -0.224023 7.214911 1.207874 
Q 8.392761 2.635151 8.392761 4.695235 
Q 8.392761 7.83155 6.480486 9.508254 
Q 4.568212 11.18034 1.002328 11.18034 
Q -2.558938 11.18034 -4.475831 9.508254 
Q -6.388106 7.83155 -6.388106 4.695235 
Q -6.388106 2.635151 -5.205636 1.207874 
Q -4.018548 -0.224023 -1.912275 -0.713639 
z
M -2.979268 -5.318802 
Q -2.979268 -3.646717 -1.93537 -2.709056 
Q -0.886852 -1.771394 1.002328 -1.771394 
Q 2.882269 -1.771394 3.940025 -2.709056 
Q 5.0024 -3.646717 5.0024 -5.318802 
Q 5.0024 -6.995507 3.940025 -7.933168 
Q 2.882269 -8.870829 1.002328 -8.870829 
Q -0.886852 -8.870829 -1.93537 -7.933168 
Q -2.979268 -6.995507 -2.979268 -5.318802 
z
" id="m0a86280be7" style="stroke:#808080;"/>
    </defs>
    <g clip-path="url(#pc361eb7eee)">
     <use style="fill:#808080;stroke:#808080;" x="362.701299" xlink:href="#m0a86280be7" y="358.832228"/>
    </g>
   </g>
   <g id="PathCollection_10"/>
   <g id="PathCollection_11"/>
   <g id="PathCollection_12"/>
   <g id="PathCollection_13"/>
   <g id="PathCollection_14"/>
   <g id="matplotlib.axis_1">
    <g id="xtick_1">
     <g id="line2d_1">
      <defs>
       <path d="M 0 0 
L 0 3.5 
" id="m8776d0f1e6" style="stroke:#000000;stroke-width:0.8;"/>
      </defs>
      <g>
       <use style="stroke:#000000;stroke-width:0.8;" x="173.993187" xlink:href="#m8776d0f1e6" y="630"/>
      </g>
     </g>
     <g id="text_1">
      <!-- −200 -->
      <g transform="translate(160.259594 644.598438)scale(0.1 -0.1)">
       <defs>
        <path d="M 678 2272 
L 4684 2272 
L 4684 1741 
L 678 1741 
L 678 2272 
z
" id="DejaVuSans-2212" transform="scale(0.015625)"/>
        <path d="M 1228 531 
L 3431 531 
L 3431 0 
L 469 0 
L 469 531 
Q 828 903 1448 1529 
Q 2069 2156 2228 2338 
Q 2531 2678 2651 2914 
Q 2772 3150 2772 3378 
Q 2772 3750 2511 3984 
Q 2250 4219 1831 4219 
Q 1534 4219 1204 4116 
Q 875 4013 500 3803 
L 500 4441 
Q 881 4594 1212 4672 
Q 1544 4750 1819 4750 
Q 2544 4750 2975 4387 
Q 3406 4025 3406 3419 
Q 3406 3131 3298 2873 
Q 3191 2616 2906 2266 
Q 2828 2175 2409 1742 
Q 1991 1309 1228 531 
z
" id="DejaVuSans-32" transform="scale(0.015625)"/>
        <path d="M 2034 4250 
Q 1547 4250 1301 3770 
Q 1056 3291 1056 2328 
Q 1056 1369 1301 889 
Q 1547 409 2034 409 
Q 2525 409 2770 889 
Q 3016 1369 3016 2328 
Q 3016 3291 2770 3770 
Q 2525 4250 2034 4250 
z
M 2034 4750 
Q 2819 4750 3233 4129 
Q 3647 3509 3647 2328 
Q 3647 1150 3233 529 
Q 2819 -91 2034 -91 
Q 1250 -91 836 529 
Q 422 1150 422 2328 
Q 422 3509 836 4129 
Q 1250 4750 2034 4750 
z
" id="DejaVuSans-30" transform="scale(0.015625)"/>
       </defs>
       <use xlink:href="#DejaVuSans-2212"/>
       <use x="83.789062" xlink:href="#DejaVuSans-32"/>
       <use x="147.412109" xlink:href="#DejaVuSans-30"/>
       <use x="211.035156" xlink:href="#DejaVuSans-30"/>
      </g>
     </g>
    </g>
    <g id="xtick_2">
     <g id="line2d_2">
      <g>
       <use style="stroke:#000000;stroke-width:0.8;" x="259.42094" xlink:href="#m8776d0f1e6" y="630"/>
      </g>
     </g>
     <g id="text_2">
      <!-- −100 -->
      <g transform="translate(245.687346 644.598438)scale(0.1 -0.1)">
       <defs>
        <path d="M 794 531 
L 1825 531 
L 1825 4091 
L 703 3866 
L 703 4441 
L 1819 4666 
L 2450 4666 
L 2450 531 
L 3481 531 
L 3481 0 
L 794 0 
L 794 531 
z
" id="DejaVuSans-31" transform="scale(0.015625)"/>
       </defs>
       <use xlink:href="#DejaVuSans-2212"/>
       <use x="83.789062" xlink:href="#DejaVuSans-31"/>
       <use x="147.412109" xlink:href="#DejaVuSans-30"/>
       <use x="211.035156" xlink:href="#DejaVuSans-30"/>
      </g>
     </g>
    </g>
    <g id="xtick_3">
     <g id="line2d_3">
      <g>
       <use style="stroke:#000000;stroke-width:0.8;" x="344.848693" xlink:href="#m8776d0f1e6" y="630"/>
      </g>
     </g>
     <g id="text_3">
      <!-- 0 -->
      <g transform="translate(341.667443 644.598438)scale(0.1 -0.1)">
       <use xlink:href="#DejaVuSans-30"/>
      </g>
     </g>
    </g>
    <g id="xtick_4">
     <g id="line2d_4">
      <g>
       <use style="stroke:#000000;stroke-width:0.8;" x="430.276445" xlink:href="#m8776d0f1e6" y="630"/>
      </g>
     </g>
     <g id="text_4">
      <!-- 100 -->
      <g transform="translate(420.732695 644.598438)scale(0.1 -0.1)">
       <use xlink:href="#DejaVuSans-31"/>
       <use x="63.623047" xlink:href="#DejaVuSans-30"/>
       <use x="127.246094" xlink:href="#DejaVuSans-30"/>
      </g>
     </g>
    </g>
    <g id="xtick_5">
     <g id="line2d_5">
      <g>
       <use style="stroke:#000000;stroke-width:0.8;" x="515.704198" xlink:href="#m8776d0f1e6" y="630"/>
      </g>
     </g>
     <g id="text_5">
      <!-- 200 -->
      <g transform="translate(506.160448 644.598438)scale(0.1 -0.1)">
       <use xlink:href="#DejaVuSans-32"/>
       <use x="63.623047" xlink:href="#DejaVuSans-30"/>
       <use x="127.246094" xlink:href="#DejaVuSans-30"/>
      </g>
     </g>
    </g>
    <g id="xtick_6">
     <g id="line2d_6">
      <g>
       <use style="stroke:#000000;stroke-width:0.8;" x="601.131951" xlink:href="#m8776d0f1e6" y="630"/>
      </g>
     </g>
     <g id="text_6">
      <!-- 300 -->
      <g transform="translate(591.588201 644.598438)scale(0.1 -0.1)">
       <defs>
        <path d="M 2597 2516 
Q 3050 2419 3304 2112 
Q 3559 1806 3559 1356 
Q 3559 666 3084 287 
Q 2609 -91 1734 -91 
Q 1441 -91 1130 -33 
Q 819 25 488 141 
L 488 750 
Q 750 597 1062 519 
Q 1375 441 1716 441 
Q 2309 441 2620 675 
Q 2931 909 2931 1356 
Q 2931 1769 2642 2001 
Q 2353 2234 1838 2234 
L 1294 2234 
L 1294 2753 
L 1863 2753 
Q 2328 2753 2575 2939 
Q 2822 3125 2822 3475 
Q 2822 3834 2567 4026 
Q 2313 4219 1838 4219 
Q 1578 4219 1281 4162 
Q 984 4106 628 3988 
L 628 4550 
Q 988 4650 1302 4700 
Q 1616 4750 1894 4750 
Q 2613 4750 3031 4423 
Q 3450 4097 3450 3541 
Q 3450 3153 3228 2886 
Q 3006 2619 2597 2516 
z
" id="DejaVuSans-33" transform="scale(0.015625)"/>
       </defs>
       <use xlink:href="#DejaVuSans-33"/>
       <use x="63.623047" xlink:href="#DejaVuSans-30"/>
       <use x="127.246094" xlink:href="#DejaVuSans-30"/>
      </g>
     </g>
    </g>
   </g>
   <g id="matplotlib.axis_2">
    <g id="ytick_1">
     <g id="line2d_7">
      <defs>
       <path d="M 0 0 
L -3.5 0 
" id="mb0aa4aa2c3" style="stroke:#000000;stroke-width:0.8;"/>
      </defs>
      <g>
       <use style="stroke:#000000;stroke-width:0.8;" x="90" xlink:href="#mb0aa4aa2c3" y="548.174379"/>
      </g>
     </g>
     <g id="text_7">
      <!-- −200 -->
      <g transform="translate(55.532812 551.973598)scale(0.1 -0.1)">
       <use xlink:href="#DejaVuSans-2212"/>
       <use x="83.789062" xlink:href="#DejaVuSans-32"/>
       <use x="147.412109" xlink:href="#DejaVuSans-30"/>
       <use x="211.035156" xlink:href="#DejaVuSans-30"/>
      </g>
     </g>
    </g>
    <g id="ytick_2">
     <g id="line2d_8">
      <g>
       <use style="stroke:#000000;stroke-width:0.8;" x="90" xlink:href="#mb0aa4aa2c3" y="464.951213"/>
      </g>
     </g>
     <g id="text_8">
      <!-- −100 -->
      <g transform="translate(55.532812 468.750432)scale(0.1 -0.1)">
       <use xlink:href="#DejaVuSans-2212"/>
       <use x="83.789062" xlink:href="#DejaVuSans-31"/>
       <use x="147.412109" xlink:href="#DejaVuSans-30"/>
       <use x="211.035156" xlink:href="#DejaVuSans-30"/>
      </g>
     </g>
    </g>
    <g id="ytick_3">
     <g id="line2d_9">
      <g>
       <use style="stroke:#000000;stroke-width:0.8;" x="90" xlink:href="#mb0aa4aa2c3" y="381.728048"/>
      </g>
     </g>
     <g id="text_9">
      <!-- 0 -->
      <g transform="translate(76.6375 385.527267)scale(0.1 -0.1)">
       <use xlink:href="#DejaVuSans-30"/>
      </g>
     </g>
    </g>
    <g id="ytick_4">
     <g id="line2d_10">
      <g>
       <use style="stroke:#000000;stroke-width:0.8;" x="90" xlink:href="#mb0aa4aa2c3" y="298.504882"/>
      </g>
     </g>
     <g id="text_10">
      <!-- 100 -->
      <g transform="translate(63.9125 302.304101)scale(0.1 -0.1)">
       <use xlink:href="#DejaVuSans-31"/>
       <use x="63.623047" xlink:href="#DejaVuSans-30"/>
       <use x="127.246094" xlink:href="#DejaVuSans-30"/>
      </g>
     </g>
    </g>
    <g id="ytick_5">
     <g id="line2d_11">
      <g>
       <use style="stroke:#000000;stroke-width:0.8;" x="90" xlink:href="#mb0aa4aa2c3" y="215.281717"/>
      </g>
     </g>
     <g id="text_11">
      <!-- 200 -->
      <g transform="translate(63.9125 219.080936)scale(0.1 -0.1)">
       <use xlink:href="#DejaVuSans-32"/>
       <use x="63.623047" xlink:href="#DejaVuSans-30"/>
       <use x="127.246094" xlink:href="#DejaVuSans-30"/>
      </g>
     </g>
    </g>
    <g id="ytick_6">
     <g id="line2d_12">
      <g>
       <use style="stroke:#000000;stroke-width:0.8;" x="90" xlink:href="#mb0aa4aa2c3" y="132.058551"/>
      </g>
     </g>
     <g id="text_12">
      <!-- 300 -->
      <g transform="translate(63.9125 135.85777)scale(0.1 -0.1)">
       <use xlink:href="#DejaVuSans-33"/>
       <use x="63.623047" xlink:href="#DejaVuSans-30"/>
       <use x="127.246094" xlink:href="#DejaVuSans-30"/>
      </g>
     </g>
    </g>
   </g>
   <g id="line2d_13">
    <path clip-path="url(#pc361eb7eee)" d="M 362.701299 358.832228 
L 359.227104 356.062442 
L 355.146912 354.093782 
L 350.893097 352.502303 
L 346.529896 351.231771 
L 342.087816 350.288793 
L 337.589908 349.719116 
L 333.066231 349.617837 
L 328.585786 350.167807 
L 324.369624 351.717685 
L 321.131518 354.738977 
L 319.933772 358.952683 
L 320.569938 363.314415 
L 322.236652 367.422674 
L 324.479166 371.264913 
L 327.079859 374.886556 
L 329.924816 378.32884 
L 332.947944 381.623211 
L 336.107551 384.793314 
" style="fill:none;stroke:#808080;stroke-linecap:square;stroke-width:1.5;"/>
   </g>
   <g id="line2d_14">
    <path clip-path="url(#pc361eb7eee)" d="M 319.933772 384.793314 
L 319.933772 349.617837 
L 362.701299 349.617837 
L 362.701299 384.793314 
L 319.933772 384.793314 
" style="fill:none;stroke:#d3d3d3;stroke-linecap:square;stroke-width:0.5;"/>
   </g>
   <g id="line2d_15">
    <path clip-path="url(#pc361eb7eee)" d="M 336.107551 384.793314 
L 339.20883 387.779937 
L 342.326456 390.749701 
L 345.46254 393.700278 
L 348.619671 396.628795 
L 351.801076 399.531619 
L 355.010857 402.404044 
L 358.254373 405.239773 
L 361.538847 408.030039 
L 364.874455 410.761974 
L 368.276383 413.415281 
L 371.769293 415.954332 
L 375.398761 418.304666 
L 379.27293 420.246617 
L 383.194282 419.852922 
L 382.366682 415.804447 
L 380.204008 412.123119 
L 377.629428 408.69896 
L 374.807908 405.464089 
L 371.804764 402.387979 
L 368.654877 399.454212 
L 365.38034 396.652778 
L 361.996844 393.976904 
L 358.516488 391.421541 
L 354.949169 388.982569 
L 351.30333 386.656345 
L 347.586385 384.439446 
L 343.804966 382.328524 
L 339.965082 380.320225 
L 336.072206 378.41115 
L 332.131346 376.597846 
L 328.147083 374.876812 
L 324.123609 373.244516 
L 320.064752 371.697415 
L 315.974003 370.231975 
L 311.854537 368.844699 
L 307.709234 367.532143 
L 303.540704 366.290937 
L 299.351307 365.117796 
L 295.14317 364.009538 
L 290.918211 362.96309 
L 286.678155 361.975494 
L 282.424556 361.043915 
L 278.158805 360.165639 
L 273.882155 359.338076 
L 269.595729 358.558759 
L 265.300536 357.825344 
L 260.997483 357.135603 
" style="fill:none;stroke:#808080;stroke-linecap:square;stroke-width:1.5;"/>
   </g>
   <g id="line2d_16">
    <path clip-path="url(#pc361eb7eee)" d="M 260.997483 420.246617 
L 260.997483 357.135603 
L 383.194282 357.135603 
L 383.194282 420.246617 
L 260.997483 420.246617 
" style="fill:none;stroke:#d3d3d3;stroke-linecap:square;stroke-width:0.5;"/>
   </g>
   <g id="line2d_17">
    <path clip-path="url(#pc361eb7eee)" d="M 260.997483 357.135603 
L 256.667243 356.565245 
L 252.314598 356.189957 
L 247.949133 356.003306 
L 243.57947 355.998801 
L 239.213349 356.170001 
L 234.857713 356.510594 
L 230.518799 357.014459 
L 226.202217 357.675708 
L 221.913032 358.488707 
L 217.655833 359.448101 
L 213.434806 360.548815 
L 209.253787 361.786055 
L 205.116322 363.155304 
L 201.025712 364.652317 
L 196.985061 366.273103 
L 192.997314 368.013922 
L 189.06529 369.87126 
L 185.191718 371.841827 
L 181.379262 373.922533 
L 177.630553 376.110478 
L 173.948205 378.402934 
L 170.334845 380.797335 
L 166.793129 383.291259 
L 163.325761 385.882414 
L 159.935517 388.568624 
L 156.625256 391.347817 
L 153.397941 394.218005 
L 150.256656 397.177272 
L 147.204621 400.223757 
L 144.245209 403.355636 
L 141.381962 406.571103 
L 138.618606 409.868349 
L 135.959066 413.245537 
L 133.407476 416.700778 
L 130.968194 420.232098 
L 128.645806 423.837407 
L 126.445131 427.514462 
L 124.371216 431.260821 
L 122.429326 435.073804 
L 120.624919 438.950439 
L 118.963616 442.887413 
L 117.451144 446.881019 
L 116.093269 450.927111 
L 114.895703 455.021056 
L 113.86399 459.157704 
L 113.003368 463.331369 
L 112.318608 467.535833 
L 111.813845 471.76438 
L 111.492387 476.009851 
L 111.356533 480.264748 
L 111.407411 484.521362 
L 111.644839 488.771933 
L 112.06723 493.008834 
L 112.67156 497.224764 
L 113.453399 501.412935 
L 114.406997 505.567244 
L 115.525446 509.68241 
L 116.800869 513.754066 
" style="fill:none;stroke:#808080;stroke-linecap:square;stroke-width:1.5;"/>
   </g>
   <g id="line2d_18">
    <path clip-path="url(#pc361eb7eee)" d="M 111.356533 513.754066 
L 111.356533 355.998801 
L 260.997483 355.998801 
L 260.997483 513.754066 
L 111.356533 513.754066 
" style="fill:none;stroke:#d3d3d3;stroke-linecap:square;stroke-width:0.5;"/>
   </g>
   <g id="line2d_19">
    <path clip-path="url(#pc361eb7eee)" d="M 116.800869 513.754066 
L 118.582026 517.571683 
L 121.195654 520.903766 
L 124.451458 523.64974 
L 128.132542 525.832298 
L 132.075101 527.535639 
L 136.175639 528.85077 
L 140.372241 529.854481 
L 144.627734 530.606635 
L 148.919237 531.152963 
L 153.232256 531.528502 
L 157.557364 531.76041 
L 161.888309 531.870038 
L 166.220885 531.874425 
L 170.552242 531.787356 
L 174.880456 531.620129 
L 179.204239 531.382119 
L 183.522751 531.081183 
L 187.835475 530.723975 
L 192.142121 530.316182 
L 196.442566 529.862699 
L 200.736806 529.36778 
L 205.024926 528.835141 
L 209.307071 528.268053 
L 213.583432 527.669411 
L 217.85423 527.041794 
L 222.119708 526.387513 
L 226.380121 525.708646 
L 230.635733 525.007074 
L 234.88681 524.284507 
L 239.133619 523.542508 
" style="fill:none;stroke:#808080;stroke-linecap:square;stroke-width:1.5;"/>
   </g>
   <g id="line2d_20">
    <path clip-path="url(#pc361eb7eee)" d="M 116.800869 531.874425 
L 116.800869 513.754066 
L 239.133619 513.754066 
L 239.133619 531.874425 
L 116.800869 531.874425 
" style="fill:none;stroke:#d3d3d3;stroke-linecap:square;stroke-width:0.5;"/>
   </g>
   <g id="line2d_21">
    <path clip-path="url(#pc361eb7eee)" d="M 239.133619 523.542508 
L 243.376424 522.78251 
L 247.615487 522.005835 
L 251.851062 521.213705 
L 256.083398 520.407258 
L 260.312739 519.587555 
L 264.53932 518.755594 
L 268.76337 517.912311 
L 272.985109 517.058593 
L 277.204753 516.195283 
L 281.422508 515.323183 
L 285.638574 514.443063 
L 289.853146 513.555661 
L 294.066411 512.661693 
L 298.278552 511.761851 
L 302.489744 510.856809 
L 306.700159 509.947228 
L 310.909963 509.033755 
L 315.11932 508.11703 
L 319.328386 507.197685 
L 323.537318 506.276352 
L 327.746266 505.353659 
L 331.955381 504.430238 
L 336.16481 503.506725 
L 340.374698 502.583763 
L 344.58519 501.662007 
L 348.796429 500.742123 
L 353.008557 499.824794 
L 357.22172 498.910722 
L 361.43606 498.000633 
L 365.651723 497.095278 
" style="fill:none;stroke:#808080;stroke-linecap:square;stroke-width:1.5;"/>
   </g>
   <g id="line2d_22">
    <path clip-path="url(#pc361eb7eee)" d="M 239.133619 523.542508 
L 239.133619 497.095278 
L 365.651723 497.095278 
L 365.651723 523.542508 
L 239.133619 523.542508 
" style="fill:none;stroke:#d3d3d3;stroke-linecap:square;stroke-width:0.5;"/>
   </g>
   <g id="line2d_23">
    <path clip-path="url(#pc361eb7eee)" d="M 365.651723 497.095278 
L 369.868856 496.195439 
L 374.087608 495.301934 
L 378.308131 494.415621 
L 382.53058 493.537401 
L 386.755115 492.668231 
L 390.981897 491.809123 
L 395.211096 490.961158 
L 399.442885 490.125492 
L 403.677443 489.303368 
L 407.914955 488.496127 
L 412.155613 487.705223 
L 416.399615 486.932238 
L 420.647167 486.178904 
L 424.898477 485.447124 
L 429.153764 484.739001 
L 433.413244 484.056869 
L 437.67714 483.403336 
L 441.945667 482.781333 
L 446.219033 482.19417 
L 450.497428 481.645619 
L 454.781007 481.140001 
L 459.069877 480.682313 
L 463.364056 480.278376 
L 467.663438 479.935042 
L 471.967712 479.660452 
L 476.276258 479.464391 
L 480.587972 479.358766 
L 484.900989 479.358256 
L 489.212225 479.481226 
L 493.516614 479.750999 
" style="fill:none;stroke:#808080;stroke-linecap:square;stroke-width:1.5;"/>
   </g>
   <g id="line2d_24">
    <path clip-path="url(#pc361eb7eee)" d="M 365.651723 497.095278 
L 365.651723 479.358256 
L 493.516614 479.358256 
L 493.516614 497.095278 
L 365.651723 497.095278 
" style="fill:none;stroke:#d3d3d3;stroke-linecap:square;stroke-width:0.5;"/>
   </g>
   <g id="line2d_25">
    <path clip-path="url(#pc361eb7eee)" d="M 493.516614 479.750999 
" style="fill:none;stroke:#808080;stroke-linecap:square;stroke-width:1.5;"/>
   </g>
   <g id="line2d_26">
    <path clip-path="url(#pc361eb7eee)" d="M 493.516614 479.750999 
L 493.516614 479.750999 
L 493.516614 479.750999 
L 493.516614 479.750999 
L 493.516614 479.750999 
" style="fill:none;stroke:#d3d3d3;stroke-linecap:square;stroke-width:0.5;"/>
   </g>
   <g id="line2d_27">
    <path clip-path="url(#pc361eb7eee)" d="M 493.516614 479.750999 
L 497.858235 480.073172 
L 502.204483 480.329781 
L 506.554196 480.523153 
L 510.906331 480.655234 
L 515.259941 480.727615 
L 519.614148 480.741562 
L 523.968126 480.698029 
L 528.321082 480.597671 
L 532.672237 480.44085 
L 537.020813 480.227634 
L 541.366012 479.957791 
L 545.707001 479.630773 
L 550.042892 479.245697 
L 554.372717 478.801315 
L 558.695401 478.29597 
L 563.009729 477.727541 
L 567.3143 477.093375 
L 571.607468 476.390181 
L 575.887265 475.61391 
L 580.151293 474.759577 
L 584.39657 473.821034 
L 588.619308 472.790645 
L 592.814577 471.658841 
L 596.975792 470.413483 
L 601.093878 469.038923 
L 605.155884 467.514609 
L 609.142524 465.812936 
L 613.023628 463.895896 
L 616.749109 461.709858 
L 620.229978 459.178133 
L 623.296997 456.19487 
L 625.619745 452.646998 
L 626.652146 448.564403 
L 625.998397 444.37928 
L 623.978452 440.60636 
L 621.165444 437.354454 
L 617.912636 434.527303 
L 614.396519 432.022482 
L 610.709389 429.765632 
L 606.90379 427.704989 
L 603.011942 425.803847 
L 599.054817 424.03541 
L 595.046729 422.379546 
L 590.997841 420.820742 
L 586.915597 419.346777 
L 582.805605 417.94784 
L 578.672183 416.615919 
L 574.518727 415.344379 
L 570.347952 414.127655 
L 566.162059 412.961027 
L 561.962862 411.840452 
L 557.751869 410.762436 
L 553.53035 409.723935 
L 549.299384 408.722282 
L 545.059894 407.755117 
" style="fill:none;stroke:#808080;stroke-linecap:square;stroke-width:1.5;"/>
   </g>
   <g id="line2d_28">
    <path clip-path="url(#pc361eb7eee)" d="M 493.516614 480.741562 
L 493.516614 407.755117 
L 626.652146 407.755117 
L 626.652146 480.741562 
L 493.516614 480.741562 
" style="fill:none;stroke:#d3d3d3;stroke-linecap:square;stroke-width:0.5;"/>
   </g>
   <g id="line2d_29">
    <path clip-path="url(#pc361eb7eee)" d="M 545.059894 407.755117 
L 540.854694 406.812667 
L 536.649647 405.869446 
L 532.44471 404.925396 
L 528.239839 403.980451 
L 524.034996 403.034546 
L 519.830143 402.087606 
L 515.62525 401.139556 
L 511.420286 400.190312 
L 507.21523 399.239785 
L 503.010062 398.28788 
L 498.804772 397.33449 
L 494.599354 396.379505 
L 490.39381 395.422799 
L 486.188149 394.464238 
L 481.982391 393.503673 
L 477.776562 392.540938 
L 473.5707 391.575851 
L 469.364853 390.608208 
L 465.159083 389.637778 
L 460.953463 388.664304 
L 456.74808 387.687492 
L 452.54304 386.707008 
L 448.338464 385.722469 
L 444.134497 384.73343 
L 439.931307 383.73938 
L 435.72909 382.739715 
L 431.528076 381.733727 
L 427.328536 380.720573 
L 423.130793 379.699242 
L 418.935235 378.668511 
L 414.742331 377.626881 
L 410.552661 376.572493 
L 406.366956 375.503012 
L 402.186151 374.415446 
L 398.011482 373.305899 
L 393.844629 372.169166 
L 389.687966 370.998105 
L 385.54501 369.782556 
L 381.421288 368.507405 
L 377.326213 367.148775 
L 373.277696 365.665674 
L 369.316142 363.978391 
L 365.563987 361.897331 
L 362.701299 358.832228 
" style="fill:none;stroke:#808080;stroke-linecap:square;stroke-width:1.5;"/>
   </g>
   <g id="line2d_30">
    <path clip-path="url(#pc361eb7eee)" d="M 362.701299 407.755117 
L 362.701299 358.832228 
L 545.059894 358.832228 
L 545.059894 407.755117 
L 362.701299 407.755117 
" style="fill:none;stroke:#d3d3d3;stroke-linecap:square;stroke-width:0.5;"/>
   </g>
   <g id="line2d_31">
    <path clip-path="url(#pc361eb7eee)" d="M 108.676633 516.327083 
L 108.676633 516.327083 
L 111.257799 521.855334 
L 115.006333 526.640046 
L 119.463856 530.406377 
L 124.215097 533.228001 
L 129.038107 535.314297 
L 133.845278 536.857457 
L 138.609339 537.997666 
L 143.325424 538.831679 
L 147.995992 539.426535 
L 152.625404 539.829794 
L 157.2181 540.076161 
L 161.778068 540.191662 
L 166.308746 540.196302 
L 170.813073 540.105792 
L 175.293563 539.93271 
L 179.752382 539.687286 
L 184.191413 539.377967 
L 188.612309 539.011811 
L 193.016533 538.594787 
L 197.405387 538.131989 
L 201.780042 537.627808 
L 206.141556 537.086057 
L 210.49089 536.510075 
L 214.828921 535.902803 
L 219.156451 535.266852 
L 223.474218 534.604552 
L 227.782905 533.917994 
L 232.083141 533.209067 
L 236.37551 532.479483 
L 240.660556 531.730805 
" style="fill:none;stroke:#000000;stroke-linecap:square;stroke-width:3;"/>
   </g>
   <g id="line2d_32">
    <path clip-path="url(#pc361eb7eee)" d="M 108.676633 540.196302 
L 108.676633 516.327083 
L 240.660556 516.327083 
L 240.660556 540.196302 
L 108.676633 540.196302 
" style="fill:none;stroke:#d3d3d3;stroke-linecap:square;stroke-width:0.5;"/>
   </g>
   <g id="line2d_33">
    <path clip-path="url(#pc361eb7eee)" d="M 240.660556 531.730805 
L 244.938782 530.964463 
L 249.210661 530.181776 
L 253.476633 529.383962 
L 257.737109 528.572153 
L 261.992475 527.747408 
L 266.243093 526.910715 
L 270.489301 526.063009 
L 274.731419 525.205171 
L 278.969748 524.338038 
L 283.204569 523.462409 
L 287.436148 522.579051 
L 291.664738 521.688698 
L 295.890575 520.792063 
L 300.113882 519.889835 
L 304.334871 518.982688 
L 308.553743 518.07128 
L 312.770687 517.156258 
L 316.985881 516.238261 
L 321.199496 515.317923 
L 325.411692 514.395875 
L 329.622623 513.472748 
L 333.832431 512.549175 
L 338.041254 511.625795 
L 342.249222 510.703254 
L 346.456456 509.782211 
L 350.663071 508.863337 
L 354.869178 507.947319 
L 359.074877 507.034866 
L 363.280265 506.12671 
L 367.485429 505.22361 
L 371.690451 504.326355 
" style="fill:none;stroke:#000000;stroke-linecap:square;stroke-width:3;"/>
   </g>
   <g id="line2d_34">
    <path clip-path="url(#pc361eb7eee)" d="M 240.660556 531.730805 
L 240.660556 504.326355 
L 371.690451 504.326355 
L 371.690451 531.730805 
L 240.660556 531.730805 
" style="fill:none;stroke:#d3d3d3;stroke-linecap:square;stroke-width:0.5;"/>
   </g>
   <g id="line2d_35">
    <path clip-path="url(#pc361eb7eee)" d="M 371.690451 504.326355 
L 375.895405 503.435773 
L 380.100357 502.552729 
L 384.305364 501.678137 
L 388.510474 500.812962 
L 392.715722 499.958231 
L 396.921133 499.115035 
L 401.126715 498.284544 
L 405.332461 497.468013 
L 409.538341 496.666797 
L 413.744302 495.882362 
L 417.95026 495.116305 
L 422.156094 494.370369 
L 426.361638 493.646465 
L 430.566668 492.946702 
L 434.770892 492.273416 
L 438.973925 491.629209 
L 443.17527 491.01699 
L 447.374281 490.440039 
L 451.570124 489.902064 
L 455.761717 489.407296 
L 459.947646 488.960581 
L 464.126063 488.567519 
L 468.294521 488.234619 
L 472.44976 487.969508 
L 476.587384 487.781187 
L 480.70139 487.680349 
L 484.783464 487.679785 
L 488.821909 487.794851 
L 492.799989 488.043982 
L 492.799989 488.043982 
" style="fill:none;stroke:#000000;stroke-linecap:square;stroke-width:3;"/>
   </g>
   <g id="line2d_36">
    <path clip-path="url(#pc361eb7eee)" d="M 371.690451 504.326355 
L 371.690451 487.679785 
L 492.799989 487.679785 
L 492.799989 504.326355 
L 371.690451 504.326355 
" style="fill:none;stroke:#d3d3d3;stroke-linecap:square;stroke-width:0.5;"/>
   </g>
   <g id="line2d_37">
    <path clip-path="url(#pc361eb7eee)" d="M 311.572039 359.980281 
L 305.968105 358.311659 
L 301.644938 357.101049 
L 297.309327 355.959211 
L 292.962964 354.882685 
L 288.607336 353.868163 
L 284.24375 352.912489 
L 279.873352 352.012661 
L 275.497144 351.165827 
L 271.116007 350.369287 
L 266.730708 349.620482 
L 262.34192 348.916995 
L 262.34192 348.916995 
" style="fill:none;stroke:#000000;stroke-linecap:square;stroke-width:3;"/>
   </g>
   <g id="line2d_38">
    <path clip-path="url(#pc361eb7eee)" d="M 262.34192 359.980281 
L 262.34192 348.916995 
L 311.572039 348.916995 
L 311.572039 359.980281 
L 262.34192 359.980281 
" style="fill:none;stroke:#d3d3d3;stroke-linecap:square;stroke-width:0.5;"/>
   </g>
   <g id="line2d_39">
    <path clip-path="url(#pc361eb7eee)" d="M 370.690868 355.886072 
L 370.690868 355.886072 
L 363.490946 348.850865 
L 358.53701 346.454822 
L 353.64187 344.622573 
L 348.670525 343.174965 
L 343.569066 342.092536 
L 338.280179 341.424011 
L 332.710887 341.302723 
L 326.698256 342.051176 
L 320.069345 344.526671 
L 313.805601 350.458071 
L 311.394562 358.712276 
L 311.572039 359.980281 
" style="fill:none;stroke:#000000;stroke-linecap:square;stroke-width:3;"/>
   </g>
   <g id="line2d_40">
    <path clip-path="url(#pc361eb7eee)" d="M 311.394562 359.980281 
L 311.394562 341.302723 
L 370.690868 341.302723 
L 370.690868 359.980281 
L 311.394562 359.980281 
" style="fill:none;stroke:#d3d3d3;stroke-linecap:square;stroke-width:0.5;"/>
   </g>
   <g id="line2d_41">
    <path clip-path="url(#pc361eb7eee)" d="M 492.799989 488.043982 
L 492.799989 488.043982 
L 497.276277 488.376156 
L 501.752089 488.64042 
L 506.227074 488.839366 
L 510.700927 488.975145 
L 515.173384 489.049505 
L 519.64421 489.063827 
L 524.11319 489.019145 
L 528.580126 488.91616 
L 533.04483 488.755247 
L 537.507121 488.536455 
L 541.966818 488.2595 
L 546.423743 487.923746 
L 550.877709 487.528181 
L 555.328524 487.071377 
L 559.775986 486.551439 
L 564.219878 485.965933 
L 568.659967 485.311793 
L 573.095998 484.585187 
L 577.527692 483.781348 
L 581.954737 482.894333 
L 586.376783 481.91668 
L 590.793431 480.838934 
L 595.204209 479.648931 
L 599.608537 478.330726 
L 604.005643 476.862894 
L 608.394381 475.215739 
L 612.772743 473.346452 
L 617.136519 471.190201 
L 621.475085 468.642679 
L 625.756629 465.52425 
L 629.870661 461.509892 
L 633.407373 456.068049 
L 635.185837 448.9481 
L 634.066614 441.644086 
L 630.995603 435.859866 
L 627.23279 431.495806 
L 623.24654 428.026542 
L 619.168939 425.119922 
L 615.042097 422.593115 
L 610.882867 420.340578 
L 606.699656 418.29688 
L 602.49745 416.418781 
L 598.279579 414.676163 
L 594.048451 413.047142 
L 589.8059 411.515257 
L 585.553372 410.067778 
L 581.292037 408.694619 
L 577.022862 407.387638 
L 572.746658 406.140146 
L 568.46411 404.946571 
L 564.17581 403.802212 
L 559.882269 402.703058 
L 555.583934 401.645656 
L 551.281196 400.627007 
L 546.974404 399.644485 
L 546.974404 399.644485 
" style="fill:none;stroke:#000000;stroke-linecap:square;stroke-width:3;"/>
   </g>
   <g id="line2d_42">
    <path clip-path="url(#pc361eb7eee)" d="M 492.799989 489.063827 
L 492.799989 399.644485 
L 635.185837 399.644485 
L 635.185837 489.063827 
L 492.799989 489.063827 
" style="fill:none;stroke:#d3d3d3;stroke-linecap:square;stroke-width:0.5;"/>
   </g>
   <g id="line2d_43">
    <path clip-path="url(#pc361eb7eee)" d="M 262.34192 348.916995 
L 262.34192 348.916995 
L 257.613898 348.294184 
L 252.876234 347.885646 
L 248.138756 347.68304 
L 243.410082 347.678121 
L 238.697764 347.862855 
L 234.008417 348.229507 
L 229.347849 348.770693 
L 224.721179 349.479414 
L 220.132933 350.349073 
L 215.587146 351.37348 
L 211.087435 352.546845 
L 206.637078 353.863768 
L 202.239072 355.319224 
L 197.89619 356.908544 
L 193.61103 358.627396 
L 189.386054 360.471762 
L 185.223629 362.437924 
L 181.126056 364.522436 
L 177.095606 366.72211 
L 173.134537 369.033993 
L 169.245127 371.455352 
L 165.429692 373.983655 
L 161.690607 376.616556 
L 158.030326 379.351874 
L 154.451402 382.187583 
L 150.956504 385.121793 
L 147.548438 388.152734 
L 144.230164 391.278741 
L 141.004811 394.498235 
" style="fill:none;stroke:#000000;stroke-linecap:square;stroke-width:3;"/>
   </g>
   <g id="line2d_44">
    <path clip-path="url(#pc361eb7eee)" d="M 141.004811 394.498235 
L 141.004811 347.678121 
L 262.34192 347.678121 
L 262.34192 394.498235 
L 141.004811 394.498235 
" style="fill:none;stroke:#d3d3d3;stroke-linecap:square;stroke-width:0.5;"/>
   </g>
   <g id="line2d_45">
    <path clip-path="url(#pc361eb7eee)" d="M 141.004811 394.498235 
L 137.875706 397.809707 
L 134.846381 401.211694 
L 131.920602 404.702758 
L 129.102382 408.28146 
L 126.396004 411.946327 
L 123.806034 415.695819 
L 121.337338 419.528287 
L 118.99509 423.441926 
L 116.784775 427.434718 
L 114.71219 431.504369 
L 112.783418 435.648243 
L 111.004805 439.863277 
L 109.3829 444.145903 
L 107.924382 448.491959 
L 106.635956 452.896602 
L 105.52421 457.35424 
L 104.59545 461.858459 
L 103.855487 466.402002 
L 103.309413 470.976763 
L 102.961343 475.573847 
L 102.814163 480.183677 
L 102.869295 484.796168 
L 103.1265 489.400959 
L 103.583751 493.987694 
L 104.237184 498.546336 
L 105.08115 503.067477 
L 106.108362 507.542637 
L 107.310125 511.9645 
L 108.676633 516.327083 
L 108.676633 516.327083 
" style="fill:none;stroke:#000000;stroke-linecap:square;stroke-width:3;"/>
   </g>
   <g id="line2d_46">
    <path clip-path="url(#pc361eb7eee)" d="M 102.814163 516.327083 
L 102.814163 394.498235 
L 141.004811 394.498235 
L 141.004811 516.327083 
L 102.814163 516.327083 
" style="fill:none;stroke:#d3d3d3;stroke-linecap:square;stroke-width:0.5;"/>
   </g>
   <g id="line2d_47">
    <path clip-path="url(#pc361eb7eee)" d="M 108.676633 516.327083 
" style="fill:none;stroke:#000000;stroke-linecap:square;stroke-width:3;"/>
   </g>
   <g id="line2d_48">
    <path clip-path="url(#pc361eb7eee)" d="M 108.676633 516.327083 
L 108.676633 516.327083 
L 108.676633 516.327083 
L 108.676633 516.327083 
L 108.676633 516.327083 
" style="fill:none;stroke:#d3d3d3;stroke-linecap:square;stroke-width:0.5;"/>
   </g>
   <g id="line2d_49">
    <path clip-path="url(#pc361eb7eee)" d="M 546.974404 399.644485 
L 546.974404 399.644485 
L 542.770711 398.702373 
L 538.567265 397.759512 
L 534.364027 396.815843 
L 530.160965 395.871305 
L 525.958048 394.925833 
L 521.755251 393.979356 
L 517.552553 393.031801 
L 513.349939 392.083087 
L 509.147401 391.13313 
L 504.944938 390.181836 
L 500.742556 389.229106 
L 496.540272 388.274832 
L 492.338112 387.318897 
L 488.136114 386.361171 
L 483.934328 385.401512 
L 479.732817 384.439766 
L 475.531663 383.47576 
L 471.330961 382.5093 
L 467.130831 381.540172 
L 462.931411 380.568133 
L 458.732868 379.59291 
L 454.535402 378.614192 
L 450.339244 377.631623 
L 446.144674 376.644796 
L 441.952019 375.653237 
L 437.761675 374.656397 
L 433.574115 373.653631 
L 429.389915 372.644178 
L 425.209781 371.627131 
L 421.034588 370.601404 
L 416.865442 369.565677 
L 412.703759 368.518335 
L 408.551395 367.457374 
L 404.410831 366.38028 
L 400.285488 365.283848 
L 396.180231 364.163929 
L 392.102264 363.015056 
L 388.062784 361.829901 
L 384.080338 360.598509 
L 380.188292 359.307424 
L 376.454073 357.940028 
L 373.0396 356.488187 
L 370.457021 355.075386 
L 370.690868 355.886072 
L 370.690868 355.886072 
" style="fill:none;stroke:#000000;stroke-linecap:square;stroke-width:3;"/>
   </g>
   <g id="line2d_50">
    <path clip-path="url(#pc361eb7eee)" d="M 370.457021 399.644485 
L 370.457021 355.075386 
L 546.974404 355.075386 
L 546.974404 399.644485 
L 370.457021 399.644485 
" style="fill:none;stroke:#d3d3d3;stroke-linecap:square;stroke-width:0.5;"/>
   </g>
   <g id="line2d_51">
    <path clip-path="url(#pc361eb7eee)" d="M 494.233239 471.458016 
L 494.233239 471.458016 
L 498.440192 471.770189 
L 502.656877 472.019142 
L 506.881319 472.206941 
L 511.111736 472.335324 
L 515.346498 472.405726 
L 519.584086 472.419297 
L 523.823062 472.376912 
L 528.062038 472.279181 
L 532.299645 472.126453 
L 536.534505 471.918813 
L 540.765205 471.656082 
L 544.990259 471.3378 
L 549.208075 470.963213 
L 553.416909 470.531253 
L 557.614816 470.0405 
L 561.799581 469.489149 
L 565.968633 468.874957 
L 570.118938 468.195176 
L 574.246839 467.446471 
L 578.34785 466.624822 
L 582.416357 465.725388 
L 586.445184 464.742356 
L 590.424944 463.668752 
L 594.343046 462.49624 
L 598.182113 461.214952 
L 601.917386 459.813478 
L 605.512305 458.27942 
L 608.910736 456.601591 
L 612.023133 454.777038 
L 614.703328 452.832016 
L 616.723333 450.879847 
L 617.832117 449.225947 
L 618.118455 448.180705 
L 617.930181 447.114475 
L 616.961302 445.352853 
L 615.098098 443.213103 
L 612.578731 441.028063 
L 609.624099 438.925041 
L 606.376681 436.938148 
L 602.924713 435.069399 
L 599.324228 433.310815 
L 595.612183 431.652039 
L 591.81388 430.082928 
L 587.94723 428.594341 
L 584.025294 427.178297 
L 580.057837 425.827903 
L 576.052329 424.53722 
L 572.014592 423.301121 
L 567.949246 422.115164 
L 563.860008 420.975483 
L 559.749913 419.878692 
L 555.621469 418.821814 
L 551.476767 417.802215 
L 547.317572 416.817556 
L 543.145385 415.865748 
L 543.145385 415.865748 
" style="fill:none;stroke:#000000;stroke-linecap:square;stroke-width:3;"/>
   </g>
   <g id="line2d_52">
    <path clip-path="url(#pc361eb7eee)" d="M 494.233239 472.419297 
L 494.233239 415.865748 
L 618.118455 415.865748 
L 618.118455 472.419297 
L 494.233239 472.419297 
" style="fill:none;stroke:#d3d3d3;stroke-linecap:square;stroke-width:0.5;"/>
   </g>
   <g id="line2d_53">
    <path clip-path="url(#pc361eb7eee)" d="M 320.864178 380.938287 
L 326.706031 387.305151 
L 330.086524 390.69714 
" style="fill:none;stroke:#000000;stroke-linecap:square;stroke-width:3;"/>
   </g>
   <g id="line2d_54">
    <path clip-path="url(#pc361eb7eee)" d="M 320.864178 390.69714 
L 320.864178 380.938287 
L 330.086524 380.938287 
L 330.086524 390.69714 
L 320.864178 390.69714 
" style="fill:none;stroke:#d3d3d3;stroke-linecap:square;stroke-width:0.5;"/>
   </g>
   <g id="line2d_55">
    <path clip-path="url(#pc361eb7eee)" d="M 543.145385 415.865748 
L 543.145385 415.865748 
L 538.938677 414.92296 
L 534.73203 413.979381 
L 530.525392 413.034949 
L 526.318713 412.089598 
L 522.111943 411.143259 
L 517.905036 410.195857 
L 513.697946 409.247312 
L 509.490633 408.297537 
L 505.283058 407.346441 
L 501.075187 406.393923 
L 496.866989 405.439875 
L 492.658436 404.484177 
L 488.449508 403.526702 
L 484.240185 402.567306 
L 480.030454 401.605834 
L 475.820306 400.64211 
L 471.609737 399.675943 
L 467.398745 398.707116 
L 463.187336 397.735385 
L 458.975515 396.760476 
L 454.763291 395.782075 
L 450.550677 394.799825 
L 446.337684 393.813314 
L 442.124321 392.822065 
L 437.910595 391.825523 
L 433.696505 390.823033 
L 429.482036 389.813823 
L 425.267156 388.796968 
L 421.051805 387.771352 
L 416.835881 386.735617 
L 412.619219 385.688084 
L 408.401563 384.626652 
L 404.182517 383.548649 
L 399.961471 382.450612 
L 395.737476 381.32795 
L 391.509026 380.174404 
L 387.273669 378.981155 
L 383.027235 377.735212 
L 378.762239 376.4163 
L 374.464134 374.990126 
L 370.101318 373.391319 
L 365.592685 371.468595 
L 360.670952 368.719275 
L 354.711729 361.778384 
L 354.711729 361.778384 
" style="fill:none;stroke:#000000;stroke-linecap:square;stroke-width:3;"/>
   </g>
   <g id="line2d_56">
    <path clip-path="url(#pc361eb7eee)" d="M 354.711729 415.865748 
L 354.711729 361.778384 
L 543.145385 361.778384 
L 543.145385 415.865748 
L 354.711729 415.865748 
" style="fill:none;stroke:#d3d3d3;stroke-linecap:square;stroke-width:0.5;"/>
   </g>
   <g id="line2d_57">
    <path clip-path="url(#pc361eb7eee)" d="M 354.711729 361.778384 
L 354.711729 361.778384 
L 354.963261 363.274018 
L 351.756813 361.732742 
L 348.144324 360.382032 
L 344.389266 359.288576 
L 340.606566 358.48505 
L 336.899636 358.01422 
L 333.421575 357.932951 
L 330.473317 358.284437 
L 328.669902 358.9087 
L 328.457435 359.019884 
L 328.472982 359.193089 
L 328.778582 361.009635 
L 329.901803 363.74847 
L 331.674629 366.778932 
L 332.196465 367.505069 
" style="fill:none;stroke:#000000;stroke-linecap:square;stroke-width:3;"/>
   </g>
   <g id="line2d_58">
    <path clip-path="url(#pc361eb7eee)" d="M 328.457435 367.505069 
L 328.457435 357.932951 
L 354.963261 357.932951 
L 354.963261 367.505069 
L 328.457435 367.505069 
" style="fill:none;stroke:#d3d3d3;stroke-linecap:square;stroke-width:0.5;"/>
   </g>
   <g id="line2d_59">
    <path clip-path="url(#pc361eb7eee)" d="M 320.864178 380.938287 
L 317.035458 379.478922 
L 313.105524 378.071106 
L 309.139887 376.735648 
L 305.141557 375.469642 
L 301.113304 374.270214 
L 297.057676 373.134543 
L 292.977012 372.059865 
L 288.873457 371.043495 
L 284.748975 370.082826 
L 280.605361 369.175341 
L 276.444258 368.318617 
L 272.267165 367.510324 
L 268.075451 366.748232 
L 263.870364 366.030207 
L 259.653045 365.354212 
L 259.653045 365.354212 
" style="fill:none;stroke:#000000;stroke-linecap:square;stroke-width:3;"/>
   </g>
   <g id="line2d_60">
    <path clip-path="url(#pc361eb7eee)" d="M 259.653045 380.938287 
L 259.653045 365.354212 
L 320.864178 365.354212 
L 320.864178 380.938287 
L 259.653045 380.938287 
" style="fill:none;stroke:#d3d3d3;stroke-linecap:square;stroke-width:0.5;"/>
   </g>
   <g id="line2d_61">
    <path clip-path="url(#pc361eb7eee)" d="M 330.086524 390.69714 
L 333.21902 393.713822 
L 336.372073 396.717328 
L 339.548763 399.706104 
L 342.752989 402.678297 
L 345.9898 405.631664 
L 349.265927 408.563443 
L 352.590689 411.470172 
L 355.977618 414.347421 
L 359.447707 417.189394 
L 363.036698 419.98836 
L 366.814696 422.733976 
L 370.956554 425.413329 
L 376.193462 428.009411 
L 391.226483 422.686931 
L 390.123698 412.318015 
L 387.318462 407.516147 
L 384.314796 403.517857 
L 381.150048 399.888477 
L 377.846866 396.504623 
L 374.422008 393.314535 
L 370.888716 390.291601 
L 367.258031 387.420145 
L 363.539537 384.689871 
L 359.741794 382.093309 
L 355.872584 379.624521 
L 351.939047 377.278405 
L 347.947763 375.050298 
L 343.904797 372.935757 
L 339.815726 370.930443 
L 335.685663 369.030059 
L 331.519273 367.230333 
L 332.196465 367.505069 
" style="fill:none;stroke:#000000;stroke-linecap:square;stroke-width:3;"/>
   </g>
   <g id="line2d_62">
    <path clip-path="url(#pc361eb7eee)" d="M 330.086524 428.009411 
L 330.086524 367.230333 
L 391.226483 367.230333 
L 391.226483 428.009411 
L 330.086524 428.009411 
" style="fill:none;stroke:#d3d3d3;stroke-linecap:square;stroke-width:0.5;"/>
   </g>
   <g id="line2d_63">
    <path clip-path="url(#pc361eb7eee)" d="M 124.925104 511.18105 
L 124.925104 511.18105 
L 125.906253 513.288032 
L 127.384975 515.167485 
L 129.43906 516.893103 
L 132.049988 518.436595 
L 135.112096 519.756982 
L 138.506 520.844082 
L 142.135142 521.711296 
L 145.930043 522.381591 
L 149.842483 522.87939 
L 153.839108 523.22721 
L 157.896628 523.444659 
L 161.998551 523.548415 
L 166.133023 523.552549 
L 170.291411 523.468919 
L 174.467349 523.307549 
L 178.656096 523.076952 
L 182.85409 522.784399 
L 187.058641 522.436139 
L 191.26771 522.037576 
L 195.479746 521.593409 
L 199.693571 521.107753 
L 203.908295 520.584225 
L 208.123251 520.026031 
L 212.337942 519.436019 
L 216.552009 518.816737 
L 220.765197 518.170474 
L 224.977337 517.499297 
L 229.188325 516.80508 
L 233.39811 516.089531 
L 237.606682 515.354211 
" style="fill:none;stroke:#000000;stroke-linecap:square;stroke-width:3;"/>
   </g>
   <g id="line2d_64">
    <path clip-path="url(#pc361eb7eee)" d="M 124.925104 523.552549 
L 124.925104 511.18105 
L 237.606682 511.18105 
L 237.606682 523.552549 
L 124.925104 523.552549 
" style="fill:none;stroke:#d3d3d3;stroke-linecap:square;stroke-width:0.5;"/>
   </g>
   <g id="line2d_65">
    <path clip-path="url(#pc361eb7eee)" d="M 237.606682 515.354211 
L 241.814067 514.600557 
L 246.020312 513.829894 
L 250.22549 513.043448 
L 254.429687 512.242362 
L 258.633003 511.427703 
L 262.835548 510.600473 
L 267.037439 509.761613 
L 271.2388 508.912016 
L 275.439758 508.052528 
L 279.640447 507.183957 
L 283.841 506.307075 
L 288.041554 505.422625 
L 292.242248 504.531324 
L 296.443222 503.633867 
L 300.644617 502.730931 
L 304.846575 501.823176 
L 309.04924 500.911252 
L 313.252758 499.995798 
L 317.457276 499.077447 
L 321.662943 498.156828 
L 325.86991 497.23457 
L 330.078332 496.311301 
L 334.288366 495.387655 
L 338.500175 494.464272 
L 342.713924 493.541803 
L 346.929786 492.620909 
L 351.147937 491.702268 
L 355.368562 490.786578 
L 359.591855 489.874555 
L 363.818017 488.966946 
L 368.047261 488.064523 
" style="fill:none;stroke:#000000;stroke-linecap:square;stroke-width:3;"/>
   </g>
   <g id="line2d_66">
    <path clip-path="url(#pc361eb7eee)" d="M 237.606682 515.354211 
L 237.606682 488.064523 
L 368.047261 488.064523 
L 368.047261 515.354211 
L 237.606682 515.354211 
" style="fill:none;stroke:#d3d3d3;stroke-linecap:square;stroke-width:0.5;"/>
   </g>
   <g id="line2d_67">
    <path clip-path="url(#pc361eb7eee)" d="M 368.047261 488.064523 
L 372.279811 487.168096 
L 376.515905 486.278513 
L 380.755797 485.396666 
L 384.999756 484.523499 
L 389.248073 483.660015 
L 393.50106 482.807281 
L 397.759055 481.966441 
L 402.022425 481.138724 
L 406.291569 480.325458 
L 410.566924 479.528084 
L 414.848971 478.748171 
L 419.138239 477.98744 
L 423.435317 477.247784 
L 427.740859 476.5313 
L 432.055597 475.840322 
L 436.380354 475.177464 
L 440.716064 474.545675 
L 445.063785 473.948301 
L 449.424731 473.389173 
L 453.800298 472.872706 
L 458.192107 472.404044 
L 462.60205 471.989234 
L 467.032355 471.635465 
L 471.485664 471.351395 
L 475.965131 471.147596 
L 480.474554 471.037183 
L 485.018513 471.036727 
L 489.602541 471.167601 
L 494.233239 471.458016 
L 494.233239 471.458016 
" style="fill:none;stroke:#000000;stroke-linecap:square;stroke-width:3;"/>
   </g>
   <g id="line2d_68">
    <path clip-path="url(#pc361eb7eee)" d="M 368.047261 488.064523 
L 368.047261 471.036727 
L 494.233239 471.036727 
L 494.233239 488.064523 
L 368.047261 488.064523 
" style="fill:none;stroke:#d3d3d3;stroke-linecap:square;stroke-width:0.5;"/>
   </g>
   <g id="line2d_69">
    <path clip-path="url(#pc361eb7eee)" d="M 259.653045 365.354212 
L 259.653045 365.354212 
L 255.720589 364.836307 
L 251.752961 364.494268 
L 247.759509 364.323572 
L 243.748857 364.319481 
L 239.728933 364.477146 
L 235.707009 364.791681 
L 231.689748 365.258226 
L 227.683255 365.872001 
L 223.69313 366.628341 
L 219.724521 367.522723 
L 215.782178 368.550785 
L 211.870497 369.708341 
L 207.993572 370.991384 
L 204.155234 372.396089 
L 200.359093 373.918811 
L 196.608574 375.556081 
L 192.906951 377.304596 
L 189.257379 379.161218 
L 185.662919 381.122957 
L 182.126569 383.186963 
L 178.651283 385.350517 
L 175.239998 387.611015 
L 171.89565 389.965962 
L 168.621197 392.412954 
L 165.419632 394.949666 
L 162.294007 397.573841 
L 159.247443 400.283276 
L 156.283148 403.075803 
L 153.40443 405.949279 
" style="fill:none;stroke:#000000;stroke-linecap:square;stroke-width:3;"/>
   </g>
   <g id="line2d_70">
    <path clip-path="url(#pc361eb7eee)" d="M 153.40443 405.949279 
L 153.40443 364.319481 
L 259.653045 364.319481 
L 259.653045 405.949279 
L 153.40443 405.949279 
" style="fill:none;stroke:#d3d3d3;stroke-linecap:square;stroke-width:0.5;"/>
   </g>
   <g id="line2d_71">
    <path clip-path="url(#pc361eb7eee)" d="M 153.40443 405.949279 
L 150.614712 408.901565 
L 147.917543 411.930513 
L 145.316611 415.03394 
L 142.815749 418.209615 
L 140.418947 421.455229 
L 138.130353 424.768377 
L 135.954274 428.146527 
L 133.895173 431.586997 
L 131.957657 435.086925 
L 130.146462 438.64324 
L 128.46642 442.252635 
L 126.922427 445.911548 
L 125.519389 449.616134 
L 124.262156 453.362263 
L 123.155451 457.145509 
L 122.20377 460.961168 
L 121.411286 464.804278 
L 120.78173 468.669665 
L 120.318278 472.551996 
L 120.02343 476.445854 
L 119.898903 480.345819 
L 119.945528 484.246556 
L 120.163178 488.142907 
L 120.550708 492.029974 
L 121.105936 495.903192 
L 121.825647 499.758393 
L 122.705633 503.591851 
L 123.740767 507.40032 
L 124.925104 511.18105 
L 124.925104 511.18105 
" style="fill:none;stroke:#000000;stroke-linecap:square;stroke-width:3;"/>
   </g>
   <g id="line2d_72">
    <path clip-path="url(#pc361eb7eee)" d="M 119.898903 511.18105 
L 119.898903 405.949279 
L 153.40443 405.949279 
L 153.40443 511.18105 
L 119.898903 511.18105 
" style="fill:none;stroke:#d3d3d3;stroke-linecap:square;stroke-width:0.5;"/>
   </g>
   <g id="line2d_73">
    <path clip-path="url(#pc361eb7eee)" d="M 124.925104 511.18105 
" style="fill:none;stroke:#000000;stroke-linecap:square;stroke-width:3;"/>
   </g>
   <g id="line2d_74">
    <path clip-path="url(#pc361eb7eee)" d="M 124.925104 511.18105 
L 124.925104 511.18105 
L 124.925104 511.18105 
L 124.925104 511.18105 
L 124.925104 511.18105 
" style="fill:none;stroke:#d3d3d3;stroke-linecap:square;stroke-width:0.5;"/>
   </g>
   <g id="line2d_75">
    <path clip-path="url(#pc361eb7eee)" d="M 330.086524 390.69714 
L 330.086524 390.69714 
L 330.086524 390.69714 
" style="fill:none;stroke:#000000;stroke-linecap:square;stroke-width:3;"/>
   </g>
   <g id="line2d_76">
    <path clip-path="url(#pc361eb7eee)" d="M 330.086524 390.69714 
L 330.086524 390.69714 
L 330.086524 390.69714 
L 330.086524 390.69714 
L 330.086524 390.69714 
" style="fill:none;stroke:#d3d3d3;stroke-linecap:square;stroke-width:0.5;"/>
   </g>
   <g id="line2d_77">
    <path clip-path="url(#pc361eb7eee)" d="M 330.086524 390.69714 
L 330.086524 390.69714 
L 330.086524 390.69714 
" style="fill:none;stroke:#000000;stroke-linecap:square;stroke-width:3;"/>
   </g>
   <g id="line2d_78">
    <path clip-path="url(#pc361eb7eee)" d="M 330.086524 390.69714 
L 330.086524 390.69714 
L 330.086524 390.69714 
L 330.086524 390.69714 
L 330.086524 390.69714 
" style="fill:none;stroke:#d3d3d3;stroke-linecap:square;stroke-width:0.5;"/>
   </g>
   <g id="line2d_79">
    <path clip-path="url(#pc361eb7eee)" d="M 336.107551 372.309839 
L 337.746189 372.412328 
L 339.357922 372.718113 
L 340.916283 373.222172 
L 342.395685 373.916229 
L 343.771836 374.788887 
L 345.02214 375.825818 
L 346.126067 377.009994 
L 347.065489 378.321973 
L 347.824983 379.740211 
L 348.392077 381.241421 
L 348.757459 382.800952 
L 348.91513 384.393199 
L 348.862501 385.992015 
L 348.600436 387.571148 
L 348.133238 389.10467 
L 347.468579 390.567399 
L 346.617371 391.935318 
L 345.593593 393.185965 
L 344.414055 394.298805 
L 343.098124 395.255565 
L 341.667407 396.040536 
L 340.145399 396.640827 
L 338.557088 397.046583 
L 336.928557 397.25114 
L 335.286544 397.25114 
L 333.658013 397.046583 
L 332.069703 396.640827 
L 330.547694 396.040536 
L 329.116977 395.255565 
L 327.801046 394.298805 
L 326.621508 393.185965 
L 325.59773 391.935318 
L 324.746523 390.567399 
L 324.081863 389.10467 
L 323.614665 387.571148 
L 323.3526 385.992015 
L 323.299971 384.393199 
L 323.457642 382.800952 
L 323.823025 381.241421 
L 324.390118 379.740211 
L 325.149612 378.321973 
L 326.089035 377.009994 
L 327.192961 375.825818 
L 328.443265 374.788887 
L 329.819416 373.916229 
L 331.298818 373.222172 
L 332.857179 372.718113 
L 334.468912 372.412328 
L 336.107551 372.309839 
" style="fill:none;stroke:#808080;stroke-linecap:square;stroke-width:1.5;"/>
   </g>
   <g id="line2d_80">
    <path clip-path="url(#pc361eb7eee)" d="M 260.997483 344.652128 
L 262.636121 344.754618 
L 264.247854 345.060402 
L 265.806215 345.564461 
L 267.285617 346.258518 
L 268.661768 347.131176 
L 269.912072 348.168107 
L 271.015999 349.352284 
L 271.955421 350.664263 
L 272.714915 352.082501 
L 273.282009 353.58371 
L 273.647391 355.143242 
L 273.805062 356.735488 
L 273.752433 358.334304 
L 273.490368 359.913438 
L 273.02317 361.446959 
L 272.358511 362.909688 
L 271.507304 364.277607 
L 270.483526 365.528254 
L 269.303987 366.641095 
L 267.988056 367.597855 
L 266.55734 368.382825 
L 265.035331 368.983117 
L 263.44702 369.388872 
L 261.818489 369.593429 
L 260.176476 369.593429 
L 258.547945 369.388872 
L 256.959635 368.983117 
L 255.437626 368.382825 
L 254.00691 367.597855 
L 252.690978 366.641095 
L 251.51144 365.528254 
L 250.487662 364.277607 
L 249.636455 362.909688 
L 248.971795 361.446959 
L 248.504598 359.913438 
L 248.242533 358.334304 
L 248.189903 356.735488 
L 248.347574 355.143242 
L 248.712957 353.58371 
L 249.28005 352.082501 
L 250.039544 350.664263 
L 250.978967 349.352284 
L 252.082893 348.168107 
L 253.333197 347.131176 
L 254.709348 346.258518 
L 256.18875 345.564461 
L 257.747112 345.060402 
L 259.358844 344.754618 
L 260.997483 344.652128 
" style="fill:none;stroke:#808080;stroke-linecap:square;stroke-width:1.5;"/>
   </g>
   <g id="line2d_81">
    <path clip-path="url(#pc361eb7eee)" d="M 116.800869 501.270592 
L 118.439507 501.373081 
L 120.05124 501.678865 
L 121.609601 502.182924 
L 123.089003 502.876981 
L 124.465154 503.74964 
L 125.715458 504.78657 
L 126.819385 505.970747 
L 127.758807 507.282726 
L 128.518301 508.700964 
L 129.085395 510.202173 
L 129.450777 511.761705 
L 129.608448 513.353951 
L 129.555819 514.952767 
L 129.293754 516.531901 
L 128.826556 518.065422 
L 128.161896 519.528151 
L 127.310689 520.89607 
L 126.286911 522.146718 
L 125.107373 523.259558 
L 123.791442 524.216318 
L 122.360725 525.001289 
L 120.838717 525.60158 
L 119.250406 526.007335 
L 117.621875 526.211893 
L 115.979862 526.211893 
L 114.351331 526.007335 
L 112.763021 525.60158 
L 111.241012 525.001289 
L 109.810295 524.216318 
L 108.494364 523.259558 
L 107.314826 522.146718 
L 106.291048 520.89607 
L 105.439841 519.528151 
L 104.775181 518.065422 
L 104.307983 516.531901 
L 104.045918 514.952767 
L 103.993289 513.353951 
L 104.15096 511.761705 
L 104.516342 510.202173 
L 105.083436 508.700964 
L 105.84293 507.282726 
L 106.782353 505.970747 
L 107.886279 504.78657 
L 109.136583 503.74964 
L 110.512734 502.876981 
L 111.992136 502.182924 
L 113.550497 501.678865 
L 115.16223 501.373081 
L 116.800869 501.270592 
" style="fill:none;stroke:#808080;stroke-linecap:square;stroke-width:1.5;"/>
   </g>
   <g id="line2d_82">
    <path clip-path="url(#pc361eb7eee)" d="M 239.133619 511.059033 
L 240.772258 511.161522 
L 242.38399 511.467307 
L 243.942352 511.971366 
L 245.421754 512.665423 
L 246.797905 513.538081 
L 248.048209 514.575012 
L 249.152135 515.759189 
L 250.091558 517.071167 
L 250.851051 518.489405 
L 251.418145 519.990615 
L 251.783527 521.550147 
L 251.941198 523.142393 
L 251.888569 524.741209 
L 251.626504 526.320342 
L 251.159306 527.853864 
L 250.494647 529.316593 
L 249.64344 530.684512 
L 248.619662 531.935159 
L 247.440123 533.047999 
L 246.124192 534.00476 
L 244.693476 534.78973 
L 243.171467 535.390022 
L 241.583157 535.795777 
L 239.954625 536.000334 
L 238.312613 536.000334 
L 236.684081 535.795777 
L 235.095771 535.390022 
L 233.573762 534.78973 
L 232.143046 534.00476 
L 230.827115 533.047999 
L 229.647576 531.935159 
L 228.623798 530.684512 
L 227.772591 529.316593 
L 227.107932 527.853864 
L 226.640734 526.320342 
L 226.378669 524.741209 
L 226.32604 523.142393 
L 226.483711 521.550147 
L 226.849093 519.990615 
L 227.416187 518.489405 
L 228.17568 517.071167 
L 229.115103 515.759189 
L 230.219029 514.575012 
L 231.469333 513.538081 
L 232.845484 512.665423 
L 234.324886 511.971366 
L 235.883248 511.467307 
L 237.49498 511.161522 
L 239.133619 511.059033 
" style="fill:none;stroke:#808080;stroke-linecap:square;stroke-width:1.5;"/>
   </g>
   <g id="line2d_83">
    <path clip-path="url(#pc361eb7eee)" d="M 365.651723 484.611803 
L 367.290362 484.714292 
L 368.902094 485.020077 
L 370.460455 485.524136 
L 371.939858 486.218193 
L 373.316009 487.090851 
L 374.566312 488.127782 
L 375.670239 489.311959 
L 376.609662 490.623937 
L 377.369155 492.042175 
L 377.936249 493.543385 
L 378.301631 495.102917 
L 378.459302 496.695163 
L 378.406673 498.293979 
L 378.144608 499.873112 
L 377.67741 501.406634 
L 377.012751 502.869363 
L 376.161544 504.237282 
L 375.137766 505.487929 
L 373.958227 506.600769 
L 372.642296 507.55753 
L 371.21158 508.3425 
L 369.689571 508.942791 
L 368.101261 509.348547 
L 366.472729 509.553104 
L 364.830717 509.553104 
L 363.202185 509.348547 
L 361.613875 508.942791 
L 360.091866 508.3425 
L 358.66115 507.55753 
L 357.345219 506.600769 
L 356.16568 505.487929 
L 355.141902 504.237282 
L 354.290695 502.869363 
L 353.626036 501.406634 
L 353.158838 499.873112 
L 352.896773 498.293979 
L 352.844144 496.695163 
L 353.001815 495.102917 
L 353.367197 493.543385 
L 353.934291 492.042175 
L 354.693784 490.623937 
L 355.633207 489.311959 
L 356.737133 488.127782 
L 357.987437 487.090851 
L 359.363588 486.218193 
L 360.84299 485.524136 
L 362.401352 485.020077 
L 364.013084 484.714292 
L 365.651723 484.611803 
" style="fill:none;stroke:#808080;stroke-linecap:square;stroke-width:1.5;"/>
   </g>
   <g id="line2d_84">
    <path clip-path="url(#pc361eb7eee)" d="M 493.516614 467.267524 
L 495.155252 467.370013 
L 496.766985 467.675798 
L 498.325346 468.179857 
L 499.804748 468.873914 
L 501.180899 469.746572 
L 502.431203 470.783503 
L 503.53513 471.96768 
L 504.474552 473.279658 
L 505.234046 474.697896 
L 505.80114 476.199106 
L 506.166522 477.758638 
L 506.324193 479.350884 
L 506.271564 480.9497 
L 506.009499 482.528833 
L 505.542301 484.062355 
L 504.877642 485.525084 
L 504.026435 486.893003 
L 503.002657 488.14365 
L 501.823118 489.25649 
L 500.507187 490.213251 
L 499.076471 490.998221 
L 497.554462 491.598512 
L 495.966151 492.004268 
L 494.33762 492.208825 
L 492.695607 492.208825 
L 491.067076 492.004268 
L 489.478766 491.598512 
L 487.956757 490.998221 
L 486.526041 490.213251 
L 485.210109 489.25649 
L 484.030571 488.14365 
L 483.006793 486.893003 
L 482.155586 485.525084 
L 481.490926 484.062355 
L 481.023729 482.528833 
L 480.761664 480.9497 
L 480.709034 479.350884 
L 480.866705 477.758638 
L 481.232088 476.199106 
L 481.799181 474.697896 
L 482.558675 473.279658 
L 483.498098 471.96768 
L 484.602024 470.783503 
L 485.852328 469.746572 
L 487.228479 468.873914 
L 488.707881 468.179857 
L 490.266242 467.675798 
L 491.877975 467.370013 
L 493.516614 467.267524 
" style="fill:none;stroke:#808080;stroke-linecap:square;stroke-width:1.5;"/>
   </g>
   <g id="line2d_85">
    <path clip-path="url(#pc361eb7eee)" d="M 493.516614 467.267524 
L 495.155252 467.370013 
L 496.766985 467.675798 
L 498.325346 468.179857 
L 499.804748 468.873914 
L 501.180899 469.746572 
L 502.431203 470.783503 
L 503.53513 471.96768 
L 504.474552 473.279658 
L 505.234046 474.697896 
L 505.80114 476.199106 
L 506.166522 477.758638 
L 506.324193 479.350884 
L 506.271564 480.9497 
L 506.009499 482.528833 
L 505.542301 484.062355 
L 504.877642 485.525084 
L 504.026435 486.893003 
L 503.002657 488.14365 
L 501.823118 489.25649 
L 500.507187 490.213251 
L 499.076471 490.998221 
L 497.554462 491.598512 
L 495.966151 492.004268 
L 494.33762 492.208825 
L 492.695607 492.208825 
L 491.067076 492.004268 
L 489.478766 491.598512 
L 487.956757 490.998221 
L 486.526041 490.213251 
L 485.210109 489.25649 
L 484.030571 488.14365 
L 483.006793 486.893003 
L 482.155586 485.525084 
L 481.490926 484.062355 
L 481.023729 482.528833 
L 480.761664 480.9497 
L 480.709034 479.350884 
L 480.866705 477.758638 
L 481.232088 476.199106 
L 481.799181 474.697896 
L 482.558675 473.279658 
L 483.498098 471.96768 
L 484.602024 470.783503 
L 485.852328 469.746572 
L 487.228479 468.873914 
L 488.707881 468.179857 
L 490.266242 467.675798 
L 491.877975 467.370013 
L 493.516614 467.267524 
" style="fill:none;stroke:#808080;stroke-linecap:square;stroke-width:1.5;"/>
   </g>
   <g id="line2d_86">
    <path clip-path="url(#pc361eb7eee)" d="M 545.059894 395.271642 
L 546.698533 395.374131 
L 548.310265 395.679916 
L 549.868627 396.183975 
L 551.348029 396.878032 
L 552.72418 397.75069 
L 553.974484 398.787621 
L 555.07841 399.971797 
L 556.017833 401.283776 
L 556.777327 402.702014 
L 557.34442 404.203224 
L 557.709802 405.762755 
L 557.867473 407.355002 
L 557.814844 408.953818 
L 557.552779 410.532951 
L 557.085582 412.066473 
L 556.420922 413.529202 
L 555.569715 414.897121 
L 554.545937 416.147768 
L 553.366399 417.260608 
L 552.050467 418.217368 
L 550.619751 419.002339 
L 549.097742 419.60263 
L 547.509432 420.008386 
L 545.8809 420.212943 
L 544.238888 420.212943 
L 542.610356 420.008386 
L 541.022046 419.60263 
L 539.500037 419.002339 
L 538.069321 418.217368 
L 536.75339 417.260608 
L 535.573851 416.147768 
L 534.550073 414.897121 
L 533.698866 413.529202 
L 533.034207 412.066473 
L 532.567009 410.532951 
L 532.304944 408.953818 
L 532.252315 407.355002 
L 532.409986 405.762755 
L 532.775368 404.203224 
L 533.342462 402.702014 
L 534.101956 401.283776 
L 535.041378 399.971797 
L 536.145305 398.787621 
L 537.395608 397.75069 
L 538.77176 396.878032 
L 540.251162 396.183975 
L 541.809523 395.679916 
L 543.421255 395.374131 
L 545.059894 395.271642 
" style="fill:none;stroke:#808080;stroke-linecap:square;stroke-width:1.5;"/>
   </g>
   <g id="line2d_87">
    <path clip-path="url(#pc361eb7eee)" d="M 362.701299 346.348753 
L 364.339937 346.451242 
L 365.95167 346.757027 
L 367.510031 347.261086 
L 368.989433 347.955143 
L 370.365584 348.827801 
L 371.615888 349.864732 
L 372.719814 351.048909 
L 373.659237 352.360887 
L 374.418731 353.779125 
L 374.985825 355.280335 
L 375.351207 356.839867 
L 375.508878 358.432113 
L 375.456249 360.030929 
L 375.194184 361.610062 
L 374.726986 363.143584 
L 374.062326 364.606313 
L 373.211119 365.974232 
L 372.187341 367.224879 
L 371.007803 368.337719 
L 369.691872 369.29448 
L 368.261155 370.07945 
L 366.739147 370.679741 
L 365.150836 371.085497 
L 363.522305 371.290054 
L 361.880292 371.290054 
L 360.251761 371.085497 
L 358.66345 370.679741 
L 357.141442 370.07945 
L 355.710725 369.29448 
L 354.394794 368.337719 
L 353.215256 367.224879 
L 352.191478 365.974232 
L 351.340271 364.606313 
L 350.675611 363.143584 
L 350.208413 361.610062 
L 349.946348 360.030929 
L 349.893719 358.432113 
L 350.05139 356.839867 
L 350.416772 355.280335 
L 350.983866 353.779125 
L 351.74336 352.360887 
L 352.682783 351.048909 
L 353.786709 349.864732 
L 355.037013 348.827801 
L 356.413164 347.955143 
L 357.892566 347.261086 
L 359.450927 346.757027 
L 361.06266 346.451242 
L 362.701299 346.348753 
" style="fill:none;stroke:#808080;stroke-linecap:square;stroke-width:1.5;"/>
   </g>
   <g id="line2d_88"/>
   <g id="line2d_89"/>
   <g id="line2d_90"/>
   <g id="line2d_91"/>
   <g id="line2d_92"/>
   <g id="line2d_93"/>
   <g id="line2d_94"/>
   <g id="line2d_95"/>
   <g id="line2d_96"/>
   <g id="line2d_97"/>
   <g id="line2d_98"/>
   <g id="line2d_99"/>
   <g id="line2d_100"/>
   <g id="line2d_101"/>
   <g id="line2d_102"/>
   <g id="line2d_103"/>
   <g id="line2d_104"/>
   <g id="line2d_105"/>
   <g id="line2d_106"/>
   <g id="line2d_107"/>
   <g id="line2d_108"/>
   <g id="line2d_109"/>
   <g id="line2d_110"/>
   <g id="line2d_111"/>
   <g id="line2d_112"/>
   <g id="line2d_113"/>
   <g id="line2d_114"/>
   <g id="line2d_115"/>
   <g id="line2d_116"/>
   <g id="line2d_117"/>
   <g id="line2d_118"/>
   <g id="line2d_119"/>
   <g id="line2d_120"/>
   <g id="line2d_121"/>
   <g id="line2d_122"/>
   <g id="line2d_123"/>
   <g id="line2d_124"/>
   <g id="line2d_125"/>
   <g id="line2d_126"/>
   <g id="line2d_127"/>
   <g id="line2d_128"/>
   <g id="line2d_129"/>
   <g id="line2d_130"/>
   <g id="line2d_131"/>
   <g id="line2d_132"/>
   <g id="line2d_133"/>
   <g id="line2d_134"/>
   <g id="line2d_135"/>
   <g id="line2d_136"/>
   <g id="line2d_137"/>
   <g id="line2d_138"/>
   <g id="patch_3">
    <path d="M 90 630 
L 90 86.4 
" style="fill:none;stroke:#000000;stroke-linecap:square;stroke-linejoin:miter;stroke-width:0.8;"/>
   </g>
   <g id="patch_4">
    <path d="M 648 630 
L 648 86.4 
" style="fill:none;stroke:#000000;stroke-linecap:square;stroke-linejoin:miter;stroke-width:0.8;"/>
   </g>
   <g id="patch_5">
    <path d="M 90 630 
L 648 630 
" style="fill:none;stroke:#000000;stroke-linecap:square;stroke-linejoin:miter;stroke-width:0.8;"/>
   </g>
   <g id="patch_6">
    <path d="M 90 86.4 
L 648 86.4 
" style="fill:none;stroke:#000000;stroke-linecap:square;stroke-linejoin:miter;stroke-width:0.8;"/>
   </g>
   <g id="text_13">
    <!-- 0 -->
    <g transform="translate(88.565435 464.951213)scale(0.1 -0.1)">
     <use xlink:href="#DejaVuSans-30"/>
    </g>
   </g>
   <g id="text_14">
    <!-- 0 -->
    <g transform="translate(88.565435 452.467739)scale(0.1 -0.1)">
     <use xlink:href="#DejaVuSans-30"/>
    </g>
   </g>
   <g id="text_15">
    <!-- 0 -->
    <g transform="translate(88.565435 439.984264)scale(0.1 -0.1)">
     <use xlink:href="#DejaVuSans-30"/>
    </g>
   </g>
  </g>
 </g>
 <defs>
  <clipPath id="pc361eb7eee">
   <rect height="543.6" width="558" x="90" y="86.4"/>
  </clipPath>
 </defs>
</svg>
