<?xml version="1.0" encoding="utf-8" standalone="no"?>
<!DOCTYPE svg PUBLIC "-//W3C//DTD SVG 1.1//EN"
  "http://www.w3.org/Graphics/SVG/1.1/DTD/svg11.dtd">
<svg height="720pt" version="1.1" viewBox="0 0 720 720" width="720pt" xmlns="http://www.w3.org/2000/svg" xmlns:xlink="http://www.w3.org/1999/xlink">
 <metadata>
  <rdf:RDF xmlns:cc="http://creativecommons.org/ns#" xmlns:dc="http://purl.org/dc/elements/1.1/" xmlns:rdf="http://www.w3.org/1999/02/22-rdf-syntax-ns#">
   <cc:Work>
    <dc:type rdf:resource="http://purl.org/dc/dcmitype/StillImage"/>
    <dc:date>2022-01-11T13:26:10.973747</dc:date>
    <dc:format>image/svg+xml</dc:format>
    <dc:creator>
     <cc:Agent>
      <dc:title>Matplotlib v3.4.3, https://matplotlib.org/</dc:title>
     </cc:Agent>
    </dc:creator>
   </cc:Work>
  </rdf:RDF>
 </metadata>
 <defs>
  <style type="text/css">*{stroke-linecap:butt;stroke-linejoin:round;}</style>
 </defs>
 <g id="figure_1">
  <g id="patch_1">
   <path d="M 0 720 
L 720 720 
L 720 0 
L 0 0 
z
" style="fill:none;"/>
  </g>
  <g id="axes_1">
   <g id="patch_2">
    <path d="M 90 630 
L 648 630 
L 648 86.4 
L 90 86.4 
z
" style="fill:#ffffff;"/>
   </g>
   <g id="PathCollection_1">
    <defs>
     <path d="M 0.972304 -8.870829 
Q -1.277159 -8.870829 -2.413438 -6.653699 
Q -3.545098 -4.441189 -3.545098 0.006929 
Q -3.545098 4.436569 -2.413438 6.653699 
Q -1.277159 8.870829 0.972304 8.870829 
Q 3.240243 8.870829 4.371903 6.653699 
Q 5.508182 4.436569 5.508182 0.006929 
Q 5.508182 -4.441189 4.371903 -6.653699 
Q 3.240243 -8.870829 0.972304 -8.870829 
z
M 0.972304 -11.18034 
Q 4.598235 -11.18034 6.51051 -8.311928 
Q 8.422784 -5.448135 8.422784 0.006929 
Q 8.422784 5.448135 6.51051 8.316547 
Q 4.598235 11.18034 0.972304 11.18034 
Q -2.649008 11.18034 -4.561283 8.316547 
Q -6.473558 5.448135 -6.473558 0.006929 
Q -6.473558 -5.448135 -4.561283 -8.311928 
Q -2.649008 -11.18034 0.972304 -11.18034 
z
" id="m3d634c54f8" style="stroke:#808080;"/>
    </defs>
    <g clip-path="url(#pd6d04fe6fe)">
     <use style="fill:#808080;stroke:#808080;" x="213.93241" xlink:href="#m3d634c54f8" y="224.597321"/>
    </g>
   </g>
   <g id="PathCollection_2">
    <defs>
     <path d="M -4.535873 8.63565 
L 0.404946 8.63565 
L 0.404946 -8.424791 
L -4.971969 -7.346533 
L -4.971969 -10.102082 
L 0.376192 -11.18034 
L 3.400108 -11.18034 
L 3.400108 8.63565 
L 8.340927 8.63565 
L 8.340927 11.18034 
L -4.535873 11.18034 
L -4.535873 8.63565 
z
" id="m58582d0576" style="stroke:#808080;"/>
    </defs>
    <g clip-path="url(#pd6d04fe6fe)">
     <use style="fill:#808080;stroke:#808080;" x="183.213038" xlink:href="#m58582d0576" y="369.786217"/>
    </g>
   </g>
   <g id="PathCollection_3">
    <defs>
     <path d="M -2.294912 8.680651 
L 8.075736 8.680651 
L 8.075736 11.18034 
L -5.867913 11.18034 
L -5.867913 8.680651 
Q -4.177916 6.929457 -1.259259 3.982555 
Q 1.664105 1.030945 2.4126 0.174178 
Q 3.838976 -1.426376 4.403877 -2.537349 
Q 4.973486 -3.648321 4.973486 -4.721634 
Q 4.973486 -6.472828 3.744825 -7.574386 
Q 2.516165 -8.680651 0.543718 -8.680651 
Q -0.854413 -8.680651 -2.407892 -8.195778 
Q -3.956663 -7.710904 -5.72198 -6.722326 
L -5.72198 -9.725719 
Q -3.928418 -10.445968 -2.370232 -10.813154 
Q -0.807338 -11.18034 0.487227 -11.18034 
Q 3.900173 -11.18034 5.929111 -9.471513 
Q 7.958048 -7.767394 7.958048 -4.914642 
Q 7.958048 -3.558879 7.449637 -2.344341 
Q 6.945933 -1.13451 5.604292 0.513119 
Q 5.237107 0.941502 3.264659 2.979855 
Q 1.296919 5.018207 -2.294912 8.680651 
z
" id="m84feabc583" style="stroke:#808080;"/>
    </defs>
    <g clip-path="url(#pd6d04fe6fe)">
     <use style="fill:#808080;stroke:#808080;" x="314.23067" xlink:href="#m84feabc583" y="442.784812"/>
    </g>
   </g>
   <g id="PathCollection_4">
    <defs>
     <path d="M 3.77605 -0.861447 
Q 5.868466 -0.413402 7.041697 1.004637 
Q 8.219548 2.418057 8.219548 4.496617 
Q 8.219548 7.683741 6.025513 9.43435 
Q 3.831478 11.18034 -0.210165 11.18034 
Q -1.563539 11.18034 -3.000054 10.912437 
Q -4.436569 10.644533 -5.965465 10.108727 
L -5.965465 7.295743 
Q -4.755282 8.002454 -3.314147 8.362737 
Q -1.868394 8.723021 -0.293308 8.723021 
Q 2.445772 8.723021 3.882287 7.64217 
Q 5.318802 6.561319 5.318802 4.496617 
Q 5.318802 2.588961 3.983905 1.517348 
Q 2.649008 0.441116 0.270213 0.441116 
L -2.242535 0.441116 
L -2.242535 -1.956155 
L 0.385688 -1.956155 
Q 2.533533 -1.956155 3.674431 -2.815293 
Q 4.815329 -3.674431 4.815329 -5.291088 
Q 4.815329 -6.949317 3.637479 -7.836169 
Q 2.464248 -8.72764 0.270213 -8.72764 
Q -0.930733 -8.72764 -2.302582 -8.464356 
Q -3.674431 -8.20569 -5.318802 -7.660646 
L -5.318802 -10.256536 
Q -3.655955 -10.718438 -2.205582 -10.949389 
Q -0.75521 -11.18034 0.528878 -11.18034 
Q 3.849954 -11.18034 5.780705 -9.66992 
Q 7.716074 -8.164119 7.716074 -5.595944 
Q 7.716074 -3.803764 6.690652 -2.570485 
Q 5.665229 -1.337207 3.77605 -0.861447 
z
" id="mb132540986" style="stroke:#808080;"/>
    </defs>
    <g clip-path="url(#pd6d04fe6fe)">
     <use style="fill:#808080;stroke:#808080;" x="314.23067" xlink:href="#mb132540986" y="442.784812"/>
    </g>
   </g>
   <g id="PathCollection_5">
    <defs>
     <path d="M 2.695646 -8.544598 
L -4.943215 3.392919 
L 2.695646 3.392919 
L 2.695646 -8.544598 
z
M 1.900131 -11.18034 
L 5.705184 -11.18034 
L 5.705184 3.392919 
L 8.896829 3.392919 
L 8.896829 5.908855 
L 5.705184 5.908855 
L 5.705184 11.18034 
L 2.695646 11.18034 
L 2.695646 5.908855 
L -7.396852 5.908855 
L -7.396852 2.99037 
L 1.900131 -11.18034 
z
" id="mfa5e5a850b" style="stroke:#808080;"/>
    </defs>
    <g clip-path="url(#pd6d04fe6fe)">
     <use style="fill:#808080;stroke:#808080;" x="313.565505" xlink:href="#mfa5e5a850b" y="571.694911"/>
    </g>
   </g>
   <g id="PathCollection_6">
    <defs>
     <path d="M -5.008473 -11.18034 
L 6.639575 -11.18034 
L 6.639575 -8.679629 
L -2.291535 -8.679629 
L -2.291535 -3.306861 
Q -1.647555 -3.527789 -1.003575 -3.635902 
Q -0.354894 -3.744015 0.293787 -3.744015 
Q 3.964943 -3.744015 6.108409 -1.732165 
Q 8.256576 0.279685 8.256576 3.715812 
Q 8.256576 7.255352 6.052002 9.220196 
Q 3.847428 11.18034 -0.16217 11.18034 
Q -1.544142 11.18034 -2.97782 10.945311 
Q -4.406798 10.710281 -5.934488 10.240223 
L -5.934488 7.255352 
Q -4.613624 7.974541 -3.203448 8.327085 
Q -1.793273 8.679629 -0.223278 8.679629 
Q 2.319738 8.679629 3.800422 7.344663 
Q 5.285807 6.009697 5.285807 3.715812 
Q 5.285807 1.426627 3.800422 0.091661 
Q 2.319738 -1.248005 -0.223278 -1.248005 
Q -1.412526 -1.248005 -2.597073 -0.984772 
Q -3.77692 -0.72154 -5.008473 -0.16217 
L -5.008473 -11.18034 
z
" id="md5efdffde7" style="stroke:#808080;"/>
    </defs>
    <g clip-path="url(#pd6d04fe6fe)">
     <use style="fill:#808080;stroke:#808080;" x="308.60628" xlink:href="#md5efdffde7" y="508.387479"/>
    </g>
   </g>
   <g id="PathCollection_7">
    <defs>
     <path d="M 1.286397 -1.175541 
Q -0.676687 -1.175541 -1.826823 0.168594 
Q -2.97234 1.50811 -2.97234 3.845335 
Q -2.97234 6.168702 -1.826823 7.522075 
Q -0.676687 8.870829 1.286397 8.870829 
Q 3.249481 8.870829 4.394998 7.522075 
Q 5.540515 6.168702 5.540515 3.845335 
Q 5.540515 1.50811 4.394998 0.168594 
Q 3.249481 -1.175541 1.286397 -1.175541 
z
M 7.07403 -10.316583 
L 7.07403 -7.660646 
Q 5.974703 -8.177976 4.8569 -8.450499 
Q 3.739097 -8.72764 2.63977 -8.72764 
Q -0.247118 -8.72764 -1.771394 -6.778413 
Q -3.291052 -4.829186 -3.508146 -0.889162 
Q -2.658246 -2.145535 -1.374159 -2.815293 
Q -0.085452 -3.485051 1.457301 -3.485051 
Q 4.704473 -3.485051 6.589033 -1.512729 
Q 8.473594 0.454974 8.473594 3.845335 
Q 8.473594 7.166411 6.51051 9.175685 
Q 4.547426 11.18034 1.286397 11.18034 
Q -2.45501 11.18034 -4.43195 8.316547 
Q -6.408891 5.448135 -6.408891 0.006929 
Q -6.408891 -5.101708 -3.983905 -8.141024 
Q -1.55892 -11.18034 2.524295 -11.18034 
Q 3.623622 -11.18034 4.741425 -10.963246 
Q 5.859228 -10.746152 7.07403 -10.316583 
z
" id="m70ef956b8e" style="stroke:#808080;"/>
    </defs>
    <g clip-path="url(#pd6d04fe6fe)">
     <use style="fill:#808080;stroke:#808080;" x="368.898051" xlink:href="#m70ef956b8e" y="368.749821"/>
    </g>
   </g>
   <g id="PathCollection_8">
    <defs>
     <path d="M -5.93042 -11.18034 
L 8.446356 -11.18034 
L 8.446356 -9.891222 
L 0.32827 11.18034 
L -2.829829 11.18034 
L 4.809032 -8.630858 
L -5.93042 -8.630858 
L -5.93042 -11.18034 
z
" id="me02defcaff" style="stroke:#808080;"/>
    </defs>
    <g clip-path="url(#pd6d04fe6fe)">
     <use style="fill:#808080;stroke:#808080;" x="396.562794" xlink:href="#me02defcaff" y="141.992801"/>
    </g>
   </g>
   <g id="PathCollection_9"/>
   <g id="PathCollection_10"/>
   <g id="PathCollection_11"/>
   <g id="PathCollection_12"/>
   <g id="PathCollection_13"/>
   <g id="matplotlib.axis_1">
    <g id="xtick_1">
     <g id="line2d_1">
      <defs>
       <path d="M 0 0 
L 0 3.5 
" id="m834f583778" style="stroke:#000000;stroke-width:0.8;"/>
      </defs>
      <g>
       <use style="stroke:#000000;stroke-width:0.8;" x="132.33066" xlink:href="#m834f583778" y="630"/>
      </g>
     </g>
     <g id="text_1">
      <!-- −300 -->
      <g transform="translate(118.597067 644.598438)scale(0.1 -0.1)">
       <defs>
        <path d="M 678 2272 
L 4684 2272 
L 4684 1741 
L 678 1741 
L 678 2272 
z
" id="DejaVuSans-2212" transform="scale(0.015625)"/>
        <path d="M 2597 2516 
Q 3050 2419 3304 2112 
Q 3559 1806 3559 1356 
Q 3559 666 3084 287 
Q 2609 -91 1734 -91 
Q 1441 -91 1130 -33 
Q 819 25 488 141 
L 488 750 
Q 750 597 1062 519 
Q 1375 441 1716 441 
Q 2309 441 2620 675 
Q 2931 909 2931 1356 
Q 2931 1769 2642 2001 
Q 2353 2234 1838 2234 
L 1294 2234 
L 1294 2753 
L 1863 2753 
Q 2328 2753 2575 2939 
Q 2822 3125 2822 3475 
Q 2822 3834 2567 4026 
Q 2313 4219 1838 4219 
Q 1578 4219 1281 4162 
Q 984 4106 628 3988 
L 628 4550 
Q 988 4650 1302 4700 
Q 1616 4750 1894 4750 
Q 2613 4750 3031 4423 
Q 3450 4097 3450 3541 
Q 3450 3153 3228 2886 
Q 3006 2619 2597 2516 
z
" id="DejaVuSans-33" transform="scale(0.015625)"/>
        <path d="M 2034 4250 
Q 1547 4250 1301 3770 
Q 1056 3291 1056 2328 
Q 1056 1369 1301 889 
Q 1547 409 2034 409 
Q 2525 409 2770 889 
Q 3016 1369 3016 2328 
Q 3016 3291 2770 3770 
Q 2525 4250 2034 4250 
z
M 2034 4750 
Q 2819 4750 3233 4129 
Q 3647 3509 3647 2328 
Q 3647 1150 3233 529 
Q 2819 -91 2034 -91 
Q 1250 -91 836 529 
Q 422 1150 422 2328 
Q 422 3509 836 4129 
Q 1250 4750 2034 4750 
z
" id="DejaVuSans-30" transform="scale(0.015625)"/>
       </defs>
       <use xlink:href="#DejaVuSans-2212"/>
       <use x="83.789062" xlink:href="#DejaVuSans-33"/>
       <use x="147.412109" xlink:href="#DejaVuSans-30"/>
       <use x="211.035156" xlink:href="#DejaVuSans-30"/>
      </g>
     </g>
    </g>
    <g id="xtick_2">
     <g id="line2d_2">
      <g>
       <use style="stroke:#000000;stroke-width:0.8;" x="214.975236" xlink:href="#m834f583778" y="630"/>
      </g>
     </g>
     <g id="text_2">
      <!-- −200 -->
      <g transform="translate(201.241643 644.598438)scale(0.1 -0.1)">
       <defs>
        <path d="M 1228 531 
L 3431 531 
L 3431 0 
L 469 0 
L 469 531 
Q 828 903 1448 1529 
Q 2069 2156 2228 2338 
Q 2531 2678 2651 2914 
Q 2772 3150 2772 3378 
Q 2772 3750 2511 3984 
Q 2250 4219 1831 4219 
Q 1534 4219 1204 4116 
Q 875 4013 500 3803 
L 500 4441 
Q 881 4594 1212 4672 
Q 1544 4750 1819 4750 
Q 2544 4750 2975 4387 
Q 3406 4025 3406 3419 
Q 3406 3131 3298 2873 
Q 3191 2616 2906 2266 
Q 2828 2175 2409 1742 
Q 1991 1309 1228 531 
z
" id="DejaVuSans-32" transform="scale(0.015625)"/>
       </defs>
       <use xlink:href="#DejaVuSans-2212"/>
       <use x="83.789062" xlink:href="#DejaVuSans-32"/>
       <use x="147.412109" xlink:href="#DejaVuSans-30"/>
       <use x="211.035156" xlink:href="#DejaVuSans-30"/>
      </g>
     </g>
    </g>
    <g id="xtick_3">
     <g id="line2d_3">
      <g>
       <use style="stroke:#000000;stroke-width:0.8;" x="297.619812" xlink:href="#m834f583778" y="630"/>
      </g>
     </g>
     <g id="text_3">
      <!-- −100 -->
      <g transform="translate(283.886219 644.598438)scale(0.1 -0.1)">
       <defs>
        <path d="M 794 531 
L 1825 531 
L 1825 4091 
L 703 3866 
L 703 4441 
L 1819 4666 
L 2450 4666 
L 2450 531 
L 3481 531 
L 3481 0 
L 794 0 
L 794 531 
z
" id="DejaVuSans-31" transform="scale(0.015625)"/>
       </defs>
       <use xlink:href="#DejaVuSans-2212"/>
       <use x="83.789062" xlink:href="#DejaVuSans-31"/>
       <use x="147.412109" xlink:href="#DejaVuSans-30"/>
       <use x="211.035156" xlink:href="#DejaVuSans-30"/>
      </g>
     </g>
    </g>
    <g id="xtick_4">
     <g id="line2d_4">
      <g>
       <use style="stroke:#000000;stroke-width:0.8;" x="380.264388" xlink:href="#m834f583778" y="630"/>
      </g>
     </g>
     <g id="text_4">
      <!-- 0 -->
      <g transform="translate(377.083138 644.598438)scale(0.1 -0.1)">
       <use xlink:href="#DejaVuSans-30"/>
      </g>
     </g>
    </g>
    <g id="xtick_5">
     <g id="line2d_5">
      <g>
       <use style="stroke:#000000;stroke-width:0.8;" x="462.908964" xlink:href="#m834f583778" y="630"/>
      </g>
     </g>
     <g id="text_5">
      <!-- 100 -->
      <g transform="translate(453.365214 644.598438)scale(0.1 -0.1)">
       <use xlink:href="#DejaVuSans-31"/>
       <use x="63.623047" xlink:href="#DejaVuSans-30"/>
       <use x="127.246094" xlink:href="#DejaVuSans-30"/>
      </g>
     </g>
    </g>
    <g id="xtick_6">
     <g id="line2d_6">
      <g>
       <use style="stroke:#000000;stroke-width:0.8;" x="545.55354" xlink:href="#m834f583778" y="630"/>
      </g>
     </g>
     <g id="text_6">
      <!-- 200 -->
      <g transform="translate(536.00979 644.598438)scale(0.1 -0.1)">
       <use xlink:href="#DejaVuSans-32"/>
       <use x="63.623047" xlink:href="#DejaVuSans-30"/>
       <use x="127.246094" xlink:href="#DejaVuSans-30"/>
      </g>
     </g>
    </g>
    <g id="xtick_7">
     <g id="line2d_7">
      <g>
       <use style="stroke:#000000;stroke-width:0.8;" x="628.198116" xlink:href="#m834f583778" y="630"/>
      </g>
     </g>
     <g id="text_7">
      <!-- 300 -->
      <g transform="translate(618.654366 644.598438)scale(0.1 -0.1)">
       <use xlink:href="#DejaVuSans-33"/>
       <use x="63.623047" xlink:href="#DejaVuSans-30"/>
       <use x="127.246094" xlink:href="#DejaVuSans-30"/>
      </g>
     </g>
    </g>
   </g>
   <g id="matplotlib.axis_2">
    <g id="ytick_1">
     <g id="line2d_8">
      <defs>
       <path d="M 0 0 
L -3.5 0 
" id="m618d689774" style="stroke:#000000;stroke-width:0.8;"/>
      </defs>
      <g>
       <use style="stroke:#000000;stroke-width:0.8;" x="90" xlink:href="#m618d689774" y="588.761744"/>
      </g>
     </g>
     <g id="text_8">
      <!-- −300 -->
      <g transform="translate(55.532812 592.560962)scale(0.1 -0.1)">
       <use xlink:href="#DejaVuSans-2212"/>
       <use x="83.789062" xlink:href="#DejaVuSans-33"/>
       <use x="147.412109" xlink:href="#DejaVuSans-30"/>
       <use x="211.035156" xlink:href="#DejaVuSans-30"/>
      </g>
     </g>
    </g>
    <g id="ytick_2">
     <g id="line2d_9">
      <g>
       <use style="stroke:#000000;stroke-width:0.8;" x="90" xlink:href="#m618d689774" y="508.249931"/>
      </g>
     </g>
     <g id="text_9">
      <!-- −200 -->
      <g transform="translate(55.532812 512.04915)scale(0.1 -0.1)">
       <use xlink:href="#DejaVuSans-2212"/>
       <use x="83.789062" xlink:href="#DejaVuSans-32"/>
       <use x="147.412109" xlink:href="#DejaVuSans-30"/>
       <use x="211.035156" xlink:href="#DejaVuSans-30"/>
      </g>
     </g>
    </g>
    <g id="ytick_3">
     <g id="line2d_10">
      <g>
       <use style="stroke:#000000;stroke-width:0.8;" x="90" xlink:href="#m618d689774" y="427.738118"/>
      </g>
     </g>
     <g id="text_10">
      <!-- −100 -->
      <g transform="translate(55.532812 431.537337)scale(0.1 -0.1)">
       <use xlink:href="#DejaVuSans-2212"/>
       <use x="83.789062" xlink:href="#DejaVuSans-31"/>
       <use x="147.412109" xlink:href="#DejaVuSans-30"/>
       <use x="211.035156" xlink:href="#DejaVuSans-30"/>
      </g>
     </g>
    </g>
    <g id="ytick_4">
     <g id="line2d_11">
      <g>
       <use style="stroke:#000000;stroke-width:0.8;" x="90" xlink:href="#m618d689774" y="347.226306"/>
      </g>
     </g>
     <g id="text_11">
      <!-- 0 -->
      <g transform="translate(76.6375 351.025524)scale(0.1 -0.1)">
       <use xlink:href="#DejaVuSans-30"/>
      </g>
     </g>
    </g>
    <g id="ytick_5">
     <g id="line2d_12">
      <g>
       <use style="stroke:#000000;stroke-width:0.8;" x="90" xlink:href="#m618d689774" y="266.714493"/>
      </g>
     </g>
     <g id="text_12">
      <!-- 100 -->
      <g transform="translate(63.9125 270.513712)scale(0.1 -0.1)">
       <use xlink:href="#DejaVuSans-31"/>
       <use x="63.623047" xlink:href="#DejaVuSans-30"/>
       <use x="127.246094" xlink:href="#DejaVuSans-30"/>
      </g>
     </g>
    </g>
    <g id="ytick_6">
     <g id="line2d_13">
      <g>
       <use style="stroke:#000000;stroke-width:0.8;" x="90" xlink:href="#m618d689774" y="186.20268"/>
      </g>
     </g>
     <g id="text_13">
      <!-- 200 -->
      <g transform="translate(63.9125 190.001899)scale(0.1 -0.1)">
       <use xlink:href="#DejaVuSans-32"/>
       <use x="63.623047" xlink:href="#DejaVuSans-30"/>
       <use x="127.246094" xlink:href="#DejaVuSans-30"/>
      </g>
     </g>
    </g>
    <g id="ytick_7">
     <g id="line2d_14">
      <g>
       <use style="stroke:#000000;stroke-width:0.8;" x="90" xlink:href="#m618d689774" y="105.690868"/>
      </g>
     </g>
     <g id="text_14">
      <!-- 300 -->
      <g transform="translate(63.9125 109.490086)scale(0.1 -0.1)">
       <use xlink:href="#DejaVuSans-33"/>
       <use x="63.623047" xlink:href="#DejaVuSans-30"/>
       <use x="127.246094" xlink:href="#DejaVuSans-30"/>
      </g>
     </g>
    </g>
   </g>
   <g id="line2d_15">
    <path clip-path="url(#pd6d04fe6fe)" d="M 396.562794 141.992801 
L 394.41433 138.495445 
L 392.184984 135.046333 
L 389.863287 131.655439 
L 387.435853 128.335544 
L 384.887112 125.103205 
L 382.199128 121.980111 
L 379.351669 118.994879 
L 376.322888 116.185351 
L 373.091193 113.601135 
L 369.639211 111.305561 
L 365.960707 109.374936 
L 362.069962 107.891602 
L 358.009555 106.927906 
L 353.848821 106.52438 
L 349.66853 106.674722 
L 345.539369 107.329461 
L 341.508196 108.415029 
L 337.597301 109.854047 
L 333.811254 111.577492 
L 330.144574 113.528722 
L 326.58721 115.662998 
L 323.127706 117.945439 
L 319.754772 120.348838 
L 316.45796 122.851822 
L 313.227889 125.437431 
L 310.056247 128.092055 
L 306.935716 130.80465 
L 303.859853 133.566151 
L 300.822981 136.369044 
L 297.820079 139.207031 
L 294.846692 142.07479 
L 291.898846 144.967775 
L 288.972986 147.882074 
L 286.065912 150.81429 
L 283.174731 153.761448 
L 280.29682 156.720922 
L 277.429786 159.690379 
L 274.57144 162.667726 
L 271.719769 165.651074 
L 268.872916 168.638706 
L 266.029159 171.62905 
L 263.186901 174.620655 
L 260.344649 177.612177 
L 257.501008 180.602357 
L 254.654666 183.590015 
L 251.80439 186.574032 
L 248.949013 189.553345 
L 246.087432 192.526939 
L 243.218599 195.493836 
L 240.341517 198.453092 
L 237.455236 201.403791 
L 234.558848 204.345039 
L 231.651484 207.275963 
L 228.732311 210.195703 
L 225.80053 213.103414 
L 222.855374 215.998259 
L 219.896104 218.879408 
L 216.922011 221.746036 
L 213.93241 224.597321 
" style="fill:none;stroke:#808080;stroke-linecap:square;stroke-width:1.5;"/>
   </g>
   <g id="line2d_16">
    <path clip-path="url(#pd6d04fe6fe)" d="M 213.93241 224.597321 
L 213.93241 106.52438 
L 396.562794 106.52438 
L 396.562794 224.597321 
L 213.93241 224.597321 
" style="fill:none;stroke:#d3d3d3;stroke-linecap:square;stroke-width:0.5;"/>
   </g>
   <g id="line2d_17">
    <path clip-path="url(#pd6d04fe6fe)" d="M 213.93241 224.597321 
L 210.954705 227.459209 
L 208.017719 230.36071 
L 205.124941 233.303998 
L 202.280228 236.291346 
L 199.487839 239.325109 
L 196.752475 242.407717 
L 194.079324 245.541649 
L 191.474106 248.7294 
L 188.94311 251.973437 
L 186.49324 255.276143 
L 184.13204 258.639732 
L 181.867711 262.066162 
L 179.709105 265.557013 
L 177.665684 269.113351 
L 175.747446 272.735576 
L 173.964783 276.423258 
L 172.328296 280.174977 
L 170.848531 283.988176 
L 169.535662 287.859059 
L 168.399119 291.782542 
L 167.447203 295.752285 
L 166.686702 299.76081 
L 166.12257 303.799711 
L 165.757694 307.859937 
L 165.592784 311.932126 
L 165.626396 316.006946 
L 165.855089 320.075418 
L 166.27367 324.12919 
L 166.875529 328.160727 
L 167.652984 332.163438 
L 168.597638 336.131716 
L 169.700698 340.060927 
L 170.95325 343.947349 
L 172.346484 347.788074 
L 173.871861 351.580911 
L 175.521235 355.324266 
L 177.286929 359.017039 
L 179.161786 362.658522 
L 181.139184 366.248308 
L 183.213038 369.786217 
" style="fill:none;stroke:#808080;stroke-linecap:square;stroke-width:1.5;"/>
   </g>
   <g id="line2d_18">
    <path clip-path="url(#pd6d04fe6fe)" d="M 165.592784 369.786217 
L 165.592784 224.597321 
L 213.93241 224.597321 
L 213.93241 369.786217 
L 165.592784 369.786217 
" style="fill:none;stroke:#d3d3d3;stroke-linecap:square;stroke-width:0.5;"/>
   </g>
   <g id="line2d_19">
    <path clip-path="url(#pd6d04fe6fe)" d="M 183.213038 369.786217 
L 185.377787 373.272223 
L 187.628376 376.706403 
L 189.960223 380.08889 
L 192.369196 383.419828 
L 194.85158 386.699345 
L 197.404047 389.927524 
L 200.02363 393.104374 
L 202.707698 396.229815 
L 205.453928 399.303657 
L 208.260287 402.325578 
L 211.125013 405.295111 
L 214.046599 408.211618 
L 217.023777 411.074276 
L 220.055512 413.882052 
L 223.140987 416.633673 
L 226.2796 419.327597 
L 229.470961 421.961975 
L 232.714888 424.534608 
L 236.011405 427.042885 
L 239.36075 429.483722 
L 242.763371 431.85347 
L 246.219934 434.147807 
L 249.731324 436.361602 
L 253.298646 438.488731 
L 256.92322 440.52185 
L 260.606559 442.45208 
L 264.35033 444.268602 
L 268.156263 445.958099 
L 272.02599 447.503993 
L 275.960728 448.885399 
L 279.96071 450.075656 
L 284.024116 451.040294 
L 288.145079 451.734259 
L 292.309981 452.098374 
L 296.490645 452.055643 
L 300.632666 451.510024 
L 304.638942 450.355017 
L 308.35809 448.50459 
L 311.605077 445.947868 
L 314.23067 442.784812 
" style="fill:none;stroke:#808080;stroke-linecap:square;stroke-width:1.5;"/>
   </g>
   <g id="line2d_20">
    <path clip-path="url(#pd6d04fe6fe)" d="M 183.213038 452.098374 
L 183.213038 369.786217 
L 314.23067 369.786217 
L 314.23067 452.098374 
L 183.213038 452.098374 
" style="fill:none;stroke:#d3d3d3;stroke-linecap:square;stroke-width:0.5;"/>
   </g>
   <g id="line2d_21">
    <path clip-path="url(#pd6d04fe6fe)" d="M 314.23067 442.784812 
" style="fill:none;stroke:#808080;stroke-linecap:square;stroke-width:1.5;"/>
   </g>
   <g id="line2d_22">
    <path clip-path="url(#pd6d04fe6fe)" d="M 314.23067 442.784812 
L 314.23067 442.784812 
L 314.23067 442.784812 
L 314.23067 442.784812 
L 314.23067 442.784812 
" style="fill:none;stroke:#d3d3d3;stroke-linecap:square;stroke-width:0.5;"/>
   </g>
   <g id="line2d_23">
    <path clip-path="url(#pd6d04fe6fe)" d="M 314.23067 442.784812 
L 316.570917 439.3316 
L 318.949167 435.902205 
L 321.379185 432.506303 
L 323.882369 429.159785 
L 326.494746 425.891592 
L 329.284707 422.763935 
L 332.408934 419.957828 
L 336.250938 418.470031 
L 339.086452 421.286285 
L 340.018445 425.337005 
L 340.341966 429.491021 
L 340.375057 433.659871 
L 340.232512 437.824212 
L 339.969827 441.979576 
L 339.618363 446.125393 
L 339.19771 450.262152 
L 338.720994 454.390582 
L 338.197473 458.511397 
L 337.633934 462.625227 
L 337.035506 466.7326 
L 336.406155 470.833959 
L 335.749008 474.929667 
L 335.06656 479.020022 
L 334.360821 483.105273 
L 333.633424 487.185623 
L 332.885692 491.261243 
L 332.118694 495.332274 
L 331.333282 499.398834 
L 330.530118 503.461021 
L 329.709697 507.518912 
L 328.872351 511.572569 
L 328.018258 515.622034 
L 327.147442 519.667327 
L 326.259759 523.708445 
L 325.354883 527.745353 
L 324.432276 531.777973 
L 323.491139 535.806171 
L 322.530344 539.829734 
L 321.54832 543.848334 
L 320.542867 547.861474 
L 319.51084 551.868385 
L 318.447569 555.867852 
L 317.34566 559.857838 
L 316.192171 563.834583 
L 314.960056 567.789762 
L 313.565505 571.694911 
" style="fill:none;stroke:#808080;stroke-linecap:square;stroke-width:1.5;"/>
   </g>
   <g id="line2d_24">
    <path clip-path="url(#pd6d04fe6fe)" d="M 313.565505 571.694911 
L 313.565505 418.470031 
L 340.375057 418.470031 
L 340.375057 571.694911 
L 313.565505 571.694911 
" style="fill:none;stroke:#d3d3d3;stroke-linecap:square;stroke-width:0.5;"/>
   </g>
   <g id="line2d_25">
    <path clip-path="url(#pd6d04fe6fe)" d="M 313.565505 571.694911 
L 312.008851 575.507331 
L 310.433311 579.311858 
L 308.835311 583.107122 
L 307.210188 586.891232 
L 305.551666 590.6615 
L 303.850954 594.413951 
L 302.095097 598.142377 
L 300.263593 601.836273 
L 298.32044 605.475573 
L 296.190601 609.01322 
L 293.64402 612.286255 
L 290.113302 612.700061 
L 289.066978 608.78481 
L 288.866712 604.685592 
L 288.970788 600.581644 
L 289.247923 596.486334 
L 289.643336 592.401185 
L 290.128158 588.325878 
L 290.685014 584.259815 
L 291.302504 580.202426 
L 291.972679 576.153234 
L 292.689739 572.111855 
L 293.449301 568.077983 
L 294.247959 564.051376 
L 295.083009 560.031841 
L 295.952261 556.019231 
L 296.853915 552.01343 
L 297.786471 548.014352 
L 298.74867 544.021934 
L 299.73944 540.036132 
L 300.757863 536.056921 
L 301.80315 532.084288 
L 302.874616 528.118235 
L 303.971667 524.158776 
L 305.093785 520.205934 
L 306.240515 516.259741 
L 307.411463 512.320239 
L 308.60628 508.387479 
" style="fill:none;stroke:#808080;stroke-linecap:square;stroke-width:1.5;"/>
   </g>
   <g id="line2d_26">
    <path clip-path="url(#pd6d04fe6fe)" d="M 288.866712 612.700061 
L 288.866712 508.387479 
L 313.565505 508.387479 
L 313.565505 612.700061 
L 288.866712 612.700061 
" style="fill:none;stroke:#d3d3d3;stroke-linecap:square;stroke-width:0.5;"/>
   </g>
   <g id="line2d_27">
    <path clip-path="url(#pd6d04fe6fe)" d="M 308.60628 508.387479 
L 309.824666 504.461516 
L 311.066357 500.542416 
L 312.331124 496.63025 
L 313.618771 492.725098 
L 314.929131 488.827044 
L 316.262062 484.93618 
L 317.617448 481.052605 
L 318.995196 477.176424 
L 320.395233 473.307749 
L 321.817507 469.446698 
L 323.261985 465.593398 
L 324.728651 461.74798 
L 326.217508 457.910584 
L 327.728577 454.081359 
L 329.261892 450.260459 
L 330.817505 446.448049 
L 332.395485 442.644298 
L 333.995915 438.84939 
L 335.618893 435.063512 
L 337.264534 431.286865 
L 338.932968 427.519659 
L 340.62434 423.762115 
L 342.338811 420.014463 
L 344.076559 416.276948 
L 345.837778 412.549827 
L 347.622676 408.833369 
L 349.431483 405.127859 
L 351.264443 401.433596 
L 353.12182 397.750897 
L 355.003896 394.080094 
L 356.910972 390.421539 
L 358.843372 386.775604 
L 360.801439 383.142682 
L 362.785538 379.523189 
L 364.79606 375.917565 
L 366.833417 372.326277 
L 368.898051 368.749821 
" style="fill:none;stroke:#808080;stroke-linecap:square;stroke-width:1.5;"/>
   </g>
   <g id="line2d_28">
    <path clip-path="url(#pd6d04fe6fe)" d="M 308.60628 508.387479 
L 308.60628 368.749821 
L 368.898051 368.749821 
L 368.898051 508.387479 
L 308.60628 508.387479 
" style="fill:none;stroke:#d3d3d3;stroke-linecap:square;stroke-width:0.5;"/>
   </g>
   <g id="line2d_29">
    <path clip-path="url(#pd6d04fe6fe)" d="M 368.898051 368.749821 
L 370.960846 365.187918 
L 373.005407 361.616409 
L 375.030859 358.034959 
L 377.036284 354.44321 
L 379.020712 350.840779 
L 380.983117 347.22726 
L 382.922414 343.602222 
L 384.83745 339.965215 
L 386.726999 336.315768 
L 388.589758 332.653393 
L 390.424335 328.977584 
L 392.229248 325.287824 
L 394.002912 321.583586 
L 395.743634 317.864336 
L 397.449606 314.12954 
L 399.11889 310.378666 
L 400.74942 306.611194 
L 402.338984 302.826619 
L 403.885222 299.024461 
L 405.385614 295.204277 
L 406.837476 291.365668 
L 408.237954 287.508291 
L 409.584018 283.631878 
L 410.872461 279.736243 
L 412.099898 275.821308 
L 413.262771 271.887113 
L 414.357358 267.93384 
L 415.379782 263.961832 
L 416.326034 259.971614 
L 417.191996 255.963917 
L 417.97347 251.93969 
L 418.666226 247.900126 
L 419.266043 243.846675 
L 419.768768 239.781052 
L 420.170381 235.705244 
L 420.467062 231.621509 
L 420.655265 227.532364 
L 420.731796 223.440568 
L 420.693885 219.34909 
L 420.539256 215.261074 
L 420.266187 211.179793 
L 419.873559 207.10859 
L 419.360889 203.050825 
L 418.72835 199.009809 
L 417.976761 194.988748 
L 417.107574 190.990681 
L 416.122833 187.018433 
L 415.025121 183.07457 
L 413.817496 179.161365 
L 412.503423 175.280782 
L 411.086689 171.434456 
L 409.571336 167.6237 
L 407.961577 163.849506 
L 406.261734 160.112568 
L 404.476174 156.413297 
L 402.60925 152.751849 
L 400.665263 149.128155 
L 398.648416 145.54195 
L 396.562794 141.992801 
" style="fill:none;stroke:#808080;stroke-linecap:square;stroke-width:1.5;"/>
   </g>
   <g id="line2d_30">
    <path clip-path="url(#pd6d04fe6fe)" d="M 368.898051 368.749821 
L 368.898051 141.992801 
L 420.731796 141.992801 
L 420.731796 368.749821 
L 368.898051 368.749821 
" style="fill:none;stroke:#d3d3d3;stroke-linecap:square;stroke-width:0.5;"/>
   </g>
   <g id="line2d_31">
    <path clip-path="url(#pd6d04fe6fe)" d="M 219.697803 230.36579 
L 219.697803 230.36579 
L 219.697803 230.36579 
" style="fill:none;stroke:#000000;stroke-linecap:square;stroke-width:3;"/>
   </g>
   <g id="line2d_32">
    <path clip-path="url(#pd6d04fe6fe)" d="M 219.697803 230.36579 
L 219.697803 230.36579 
L 219.697803 230.36579 
L 219.697803 230.36579 
L 219.697803 230.36579 
" style="fill:none;stroke:#d3d3d3;stroke-linecap:square;stroke-width:0.5;"/>
   </g>
   <g id="line2d_33">
    <path clip-path="url(#pd6d04fe6fe)" d="M 219.697803 230.36579 
L 219.697803 230.36579 
L 219.697803 230.36579 
" style="fill:none;stroke:#000000;stroke-linecap:square;stroke-width:3;"/>
   </g>
   <g id="line2d_34">
    <path clip-path="url(#pd6d04fe6fe)" d="M 219.697803 230.36579 
L 219.697803 230.36579 
L 219.697803 230.36579 
L 219.697803 230.36579 
L 219.697803 230.36579 
" style="fill:none;stroke:#d3d3d3;stroke-linecap:square;stroke-width:0.5;"/>
   </g>
   <g id="line2d_35">
    <path clip-path="url(#pd6d04fe6fe)" d="M 307.314025 438.37813 
L 307.314025 438.37813 
L 307.314025 438.37813 
" style="fill:none;stroke:#000000;stroke-linecap:square;stroke-width:3;"/>
   </g>
   <g id="line2d_36">
    <path clip-path="url(#pd6d04fe6fe)" d="M 307.314025 438.37813 
L 307.314025 438.37813 
L 307.314025 438.37813 
L 307.314025 438.37813 
L 307.314025 438.37813 
" style="fill:none;stroke:#d3d3d3;stroke-linecap:square;stroke-width:0.5;"/>
   </g>
   <g id="line2d_37">
    <path clip-path="url(#pd6d04fe6fe)" d="M 307.314025 438.37813 
L 307.314025 438.37813 
L 307.314025 438.37813 
" style="fill:none;stroke:#000000;stroke-linecap:square;stroke-width:3;"/>
   </g>
   <g id="line2d_38">
    <path clip-path="url(#pd6d04fe6fe)" d="M 307.314025 438.37813 
L 307.314025 438.37813 
L 307.314025 438.37813 
L 307.314025 438.37813 
L 307.314025 438.37813 
" style="fill:none;stroke:#d3d3d3;stroke-linecap:square;stroke-width:0.5;"/>
   </g>
   <g id="line2d_39">
    <path clip-path="url(#pd6d04fe6fe)" d="M 219.697803 230.36579 
L 216.79833 233.152477 
L 213.943903 235.972403 
L 211.138211 238.827069 
L 208.385291 241.718003 
L 205.689554 244.646738 
L 203.055813 247.614796 
L 200.48931 250.623666 
L 197.995739 253.67477 
L 195.581258 256.769424 
L 193.252507 259.908796 
L 191.016594 263.093851 
L 188.881077 266.325288 
L 186.85392 269.603479 
L 184.943414 272.928398 
L 183.158074 276.299559 
L 181.506492 279.715958 
L 179.997159 283.17603 
L 178.638258 286.677623 
L 177.437429 290.218003 
L 176.401534 293.793871 
L 175.536433 297.401413 
L 174.846782 301.03636 
L 174.335881 304.694057 
L 174.005579 308.369552 
L 173.856237 312.057671 
L 173.886746 315.753112 
L 174.094617 319.450539 
L 174.476107 323.144679 
L 175.02639 326.83042 
L 175.739755 330.502902 
L 176.60981 334.157595 
L 177.629697 337.790361 
L 178.792282 341.397484 
L 180.090329 344.975686 
L 181.516652 348.522123 
L 183.064227 352.034357 
L 184.726289 355.510324 
L 186.496394 358.948291 
L 188.36846 362.34681 
L 190.336795 365.704667 
" style="fill:none;stroke:#000000;stroke-linecap:square;stroke-width:3;"/>
   </g>
   <g id="line2d_40">
    <path clip-path="url(#pd6d04fe6fe)" d="M 173.856237 365.704667 
L 173.856237 230.36579 
L 219.697803 230.36579 
L 219.697803 365.704667 
L 173.856237 365.704667 
" style="fill:none;stroke:#d3d3d3;stroke-linecap:square;stroke-width:0.5;"/>
   </g>
   <g id="line2d_41">
    <path clip-path="url(#pd6d04fe6fe)" d="M 190.336795 365.704667 
L 192.396105 369.020844 
L 194.541491 372.294468 
L 196.768445 375.524778 
L 199.072831 378.711082 
L 201.450869 381.852731 
L 203.899113 384.949083 
L 206.414433 387.999479 
L 208.99399 391.003216 
L 211.635219 393.959524 
L 214.335806 396.867544 
L 217.093668 399.7263 
L 219.906938 402.534678 
L 222.773946 405.291404 
L 225.693198 407.995008 
L 228.663364 410.6438 
L 231.683258 413.23583 
L 234.751822 415.768849 
L 237.868102 418.240258 
L 241.031227 420.64705 
L 244.240381 422.985737 
L 247.494764 425.252262 
L 250.793544 427.441891 
L 254.13579 429.549074 
L 257.52038 431.567279 
L 260.945867 433.488768 
L 264.41028 435.304329 
L 267.910843 437.00292 
L 271.443537 438.571226 
L 275.002443 439.993094 
L 278.57873 441.248857 
L 282.159092 442.314544 
L 285.723339 443.161128 
L 289.240779 443.754151 
L 292.66521 444.054634 
L 295.929409 444.023048 
L 298.943822 443.62874 
L 301.611809 442.863365 
L 303.874357 441.741316 
L 305.753599 440.262261 
L 307.314025 438.37813 
" style="fill:none;stroke:#000000;stroke-linecap:square;stroke-width:3;"/>
   </g>
   <g id="line2d_42">
    <path clip-path="url(#pd6d04fe6fe)" d="M 190.336795 444.054634 
L 190.336795 365.704667 
L 307.314025 365.704667 
L 307.314025 444.054634 
L 190.336795 444.054634 
" style="fill:none;stroke:#d3d3d3;stroke-linecap:square;stroke-width:0.5;"/>
   </g>
   <g id="line2d_43">
    <path clip-path="url(#pd6d04fe6fe)" d="M 307.314025 438.37813 
" style="fill:none;stroke:#000000;stroke-linecap:square;stroke-width:3;"/>
   </g>
   <g id="line2d_44">
    <path clip-path="url(#pd6d04fe6fe)" d="M 307.314025 438.37813 
L 307.314025 438.37813 
L 307.314025 438.37813 
L 307.314025 438.37813 
L 307.314025 438.37813 
" style="fill:none;stroke:#d3d3d3;stroke-linecap:square;stroke-width:0.5;"/>
   </g>
   <g id="line2d_45">
    <path clip-path="url(#pd6d04fe6fe)" d="M 361.709889 364.776879 
L 363.753068 361.24885 
L 365.777314 357.712829 
L 367.781729 354.168579 
L 369.765369 350.61585 
L 371.727239 347.054373 
L 373.666288 343.483863 
L 375.581406 339.904023 
L 377.471419 336.314544 
L 379.335077 332.715106 
L 381.171057 329.105382 
L 382.977952 325.485044 
L 384.754263 321.853759 
L 386.498396 318.2112 
L 388.208655 314.557047 
L 389.88323 310.890992 
L 391.520197 307.212744 
L 393.117507 303.522038 
L 394.67298 299.81864 
L 396.184301 296.102355 
L 397.649011 292.373035 
L 399.064508 288.63059 
L 400.428039 284.874997 
L 401.736703 281.10631 
L 402.98745 277.324673 
L 404.177087 273.53033 
L 405.302282 269.723639 
L 406.35958 265.905081 
L 407.345412 262.075274 
L 408.256124 258.234977 
L 409.087997 254.385105 
L 409.837278 250.526729 
L 410.500222 246.661083 
L 411.073133 242.78956 
L 411.552407 238.913707 
L 411.934592 235.035219 
L 412.216434 231.15592 
L 412.394941 227.277752 
L 412.46743 223.402746 
L 412.431584 219.533004 
L 412.2855 215.670667 
L 412.027727 211.817893 
L 411.657297 207.976823 
L 411.173751 204.149558 
L 410.577148 200.338136 
L 409.868064 196.544503 
L 409.047582 192.770496 
L 408.117267 189.017828 
L 407.079135 185.288065 
L 405.935614 181.58262 
L 404.68949 177.902742 
L 403.343864 174.249507 
L 401.902087 170.623819 
L 400.367713 167.026406 
L 398.744436 163.457826 
L 397.036049 159.918472 
L 395.246388 156.408582 
L 393.379293 152.928248 
L 391.438574 149.477432 
L 389.427979 146.05598 
L 389.427979 146.05598 
" style="fill:none;stroke:#000000;stroke-linecap:square;stroke-width:3;"/>
   </g>
   <g id="line2d_46">
    <path clip-path="url(#pd6d04fe6fe)" d="M 361.709889 364.776879 
L 361.709889 146.05598 
L 412.46743 146.05598 
L 412.46743 364.776879 
L 361.709889 364.776879 
" style="fill:none;stroke:#d3d3d3;stroke-linecap:square;stroke-width:0.5;"/>
   </g>
   <g id="line2d_47">
    <path clip-path="url(#pd6d04fe6fe)" d="M 389.427979 146.05598 
L 389.427979 146.05598 
L 387.368983 142.70418 
L 385.246982 139.421035 
L 383.055352 136.219959 
L 380.787221 133.117729 
L 378.435844 130.135402 
L 375.995271 127.29937 
L 373.46146 124.642404 
L 370.833891 122.204272 
L 368.1175 120.03108 
L 365.323863 118.172003 
L 362.469286 116.67237 
L 359.567168 115.564716 
L 356.61709 114.863984 
L 353.602618 114.571988 
L 350.506578 114.684403 
L 347.32983 115.189429 
L 344.093492 116.062138 
L 340.827237 117.264886 
L 337.55802 118.753736 
L 334.30536 120.485114 
L 331.081325 122.41973 
L 327.892257 124.523973 
L 324.740614 126.769848 
L 321.626394 129.134316 
L 318.548135 131.598482 
L 315.503551 134.146819 
L 312.489937 136.766514 
L 309.504425 139.44693 
L 306.544123 142.179175 
L 303.606209 144.95576 
L 300.687979 147.770334 
L 297.786863 150.617469 
L 294.900444 153.492491 
L 292.02645 156.391346 
L 289.162753 159.310491 
L 286.307362 162.246811 
L 283.458409 165.197543 
L 280.614146 168.160223 
L 277.772928 171.132635 
L 274.933213 174.112777 
L 272.093543 177.098824 
L 269.252545 180.089103 
L 266.408918 183.082072 
L 263.56143 186.076298 
L 260.708908 189.070441 
L 257.850237 192.063246 
L 254.984353 195.053522 
L 252.110238 198.04014 
L 249.226917 201.02202 
L 246.333454 203.998124 
L 243.428951 206.967451 
L 240.512542 209.929028 
L 237.583395 212.881911 
L 234.640703 215.825174 
L 231.683692 218.757907 
L 228.711609 221.679217 
L 225.723731 224.588217 
L 222.719355 227.484032 
L 219.697803 230.36579 
" style="fill:none;stroke:#000000;stroke-linecap:square;stroke-width:3;"/>
   </g>
   <g id="line2d_48">
    <path clip-path="url(#pd6d04fe6fe)" d="M 219.697803 230.36579 
L 219.697803 114.571988 
L 389.427979 114.571988 
L 389.427979 230.36579 
L 219.697803 230.36579 
" style="fill:none;stroke:#d3d3d3;stroke-linecap:square;stroke-width:0.5;"/>
   </g>
   <g id="line2d_49">
    <path clip-path="url(#pd6d04fe6fe)" d="M 307.314025 438.37813 
L 309.695863 434.863578 
L 312.131284 431.3518 
L 314.642973 427.841889 
L 317.269619 424.330615 
L 320.085961 420.808137 
L 323.26923 417.243145 
L 327.439341 413.524874 
L 337.147671 410.466385 
L 337.553284 410.801298 
" style="fill:none;stroke:#000000;stroke-linecap:square;stroke-width:3;"/>
   </g>
   <g id="line2d_50">
    <path clip-path="url(#pd6d04fe6fe)" d="M 307.314025 438.37813 
L 307.314025 410.466385 
L 337.553284 410.466385 
L 337.553284 438.37813 
L 307.314025 438.37813 
" style="fill:none;stroke:#d3d3d3;stroke-linecap:square;stroke-width:0.5;"/>
   </g>
   <g id="line2d_51">
    <path clip-path="url(#pd6d04fe6fe)" d="M 337.553284 410.801298 
L 340.148007 405.398653 
L 341.979221 401.647241 
L 343.835199 397.906587 
L 345.716238 394.176972 
L 347.622657 390.458691 
L 349.554796 386.752058 
L 351.513018 383.057405 
L 353.497711 379.375081 
L 355.509289 375.705461 
L 357.548194 372.048936 
L 359.614894 368.405927 
L 361.709889 364.776879 
" style="fill:none;stroke:#000000;stroke-linecap:square;stroke-width:3;"/>
   </g>
   <g id="line2d_52">
    <path clip-path="url(#pd6d04fe6fe)" d="M 337.553284 410.801298 
L 337.553284 364.776879 
L 361.709889 364.776879 
L 361.709889 410.801298 
L 337.553284 410.801298 
" style="fill:none;stroke:#d3d3d3;stroke-linecap:square;stroke-width:0.5;"/>
   </g>
   <g id="line2d_53">
    <path clip-path="url(#pd6d04fe6fe)" d="M 361.709889 364.776879 
L 361.709889 364.776879 
L 361.709889 364.776879 
" style="fill:none;stroke:#000000;stroke-linecap:square;stroke-width:3;"/>
   </g>
   <g id="line2d_54">
    <path clip-path="url(#pd6d04fe6fe)" d="M 361.709889 364.776879 
L 361.709889 364.776879 
L 361.709889 364.776879 
L 361.709889 364.776879 
L 361.709889 364.776879 
" style="fill:none;stroke:#d3d3d3;stroke-linecap:square;stroke-width:0.5;"/>
   </g>
   <g id="line2d_55">
    <path clip-path="url(#pd6d04fe6fe)" d="M 361.709889 364.776879 
L 361.709889 364.776879 
L 361.709889 364.776879 
" style="fill:none;stroke:#000000;stroke-linecap:square;stroke-width:3;"/>
   </g>
   <g id="line2d_56">
    <path clip-path="url(#pd6d04fe6fe)" d="M 361.709889 364.776879 
L 361.709889 364.776879 
L 361.709889 364.776879 
L 361.709889 364.776879 
L 361.709889 364.776879 
" style="fill:none;stroke:#d3d3d3;stroke-linecap:square;stroke-width:0.5;"/>
   </g>
   <g id="line2d_57">
    <path clip-path="url(#pd6d04fe6fe)" d="M 208.167018 218.828853 
L 208.167018 218.828853 
L 208.167018 218.828853 
" style="fill:none;stroke:#000000;stroke-linecap:square;stroke-width:3;"/>
   </g>
   <g id="line2d_58">
    <path clip-path="url(#pd6d04fe6fe)" d="M 208.167018 218.828853 
L 208.167018 218.828853 
L 208.167018 218.828853 
L 208.167018 218.828853 
L 208.167018 218.828853 
" style="fill:none;stroke:#d3d3d3;stroke-linecap:square;stroke-width:0.5;"/>
   </g>
   <g id="line2d_59">
    <path clip-path="url(#pd6d04fe6fe)" d="M 208.167018 218.828853 
L 208.167018 218.828853 
L 208.167018 218.828853 
" style="fill:none;stroke:#000000;stroke-linecap:square;stroke-width:3;"/>
   </g>
   <g id="line2d_60">
    <path clip-path="url(#pd6d04fe6fe)" d="M 208.167018 218.828853 
L 208.167018 218.828853 
L 208.167018 218.828853 
L 208.167018 218.828853 
L 208.167018 218.828853 
" style="fill:none;stroke:#d3d3d3;stroke-linecap:square;stroke-width:0.5;"/>
   </g>
   <g id="line2d_61">
    <path clip-path="url(#pd6d04fe6fe)" d="M 321.147315 447.191494 
L 321.147315 447.191494 
L 321.147315 447.191494 
" style="fill:none;stroke:#000000;stroke-linecap:square;stroke-width:3;"/>
   </g>
   <g id="line2d_62">
    <path clip-path="url(#pd6d04fe6fe)" d="M 321.147315 447.191494 
L 321.147315 447.191494 
L 321.147315 447.191494 
L 321.147315 447.191494 
L 321.147315 447.191494 
" style="fill:none;stroke:#d3d3d3;stroke-linecap:square;stroke-width:0.5;"/>
   </g>
   <g id="line2d_63">
    <path clip-path="url(#pd6d04fe6fe)" d="M 321.147315 447.191494 
L 321.147315 447.191494 
L 321.147315 447.191494 
" style="fill:none;stroke:#000000;stroke-linecap:square;stroke-width:3;"/>
   </g>
   <g id="line2d_64">
    <path clip-path="url(#pd6d04fe6fe)" d="M 321.147315 447.191494 
L 321.147315 447.191494 
L 321.147315 447.191494 
L 321.147315 447.191494 
L 321.147315 447.191494 
" style="fill:none;stroke:#d3d3d3;stroke-linecap:square;stroke-width:0.5;"/>
   </g>
   <g id="line2d_65">
    <path clip-path="url(#pd6d04fe6fe)" d="M 298.850732 585.51372 
L 298.868288 585.385538 
L 299.469422 581.435738 
L 300.12393 577.481275 
L 300.825889 573.525051 
L 301.570805 569.568986 
L 302.355182 565.614403 
L 303.176236 561.662252 
L 304.031714 557.713236 
L 304.919761 553.767893 
L 305.838834 549.826645 
L 306.787633 545.889834 
L 307.765052 541.957742 
L 308.770147 538.030611 
L 309.802101 534.108652 
L 310.860209 530.19205 
L 311.943854 526.280977 
L 313.0525 522.375591 
L 314.185676 518.476041 
L 315.342972 514.582472 
L 316.524024 510.695021 
L 317.728517 506.813826 
L 318.956173 502.939022 
L 320.206752 499.070745 
L 321.480043 495.209131 
L 322.775867 491.35432 
L 324.094069 487.506451 
L 325.434521 483.665668 
L 326.797115 479.83212 
L 326.315911 481.161814 
" style="fill:none;stroke:#000000;stroke-linecap:square;stroke-width:3;"/>
   </g>
   <g id="line2d_66">
    <path clip-path="url(#pd6d04fe6fe)" d="M 298.850732 585.51372 
L 298.850732 479.83212 
L 326.797115 479.83212 
L 326.797115 585.51372 
L 298.850732 585.51372 
" style="fill:none;stroke:#d3d3d3;stroke-linecap:square;stroke-width:0.5;"/>
   </g>
   <g id="line2d_67">
    <path clip-path="url(#pd6d04fe6fe)" d="M 326.315911 481.161814 
L 326.21466 481.747917 
L 325.49441 485.788174 
L 324.75362 489.825947 
L 323.993411 493.860938 
L 323.214683 497.892887 
L 322.418147 501.921557 
L 321.604342 505.94672 
L 320.773653 509.968146 
L 319.926314 513.985591 
L 319.06241 517.998777 
L 318.18187 522.007379 
L 317.284456 526.010996 
L 316.369743 530.009115 
L 315.437077 534.001059 
L 314.48553 537.9859 
L 313.513813 541.96233 
L 312.520151 545.928418 
L 311.502079 549.881173 
L 310.456098 553.815639 
L 309.377097 557.722759 
L 308.25737 561.583332 
L 307.086002 565.344453 
L 305.879603 568.735516 
L 305.879603 568.735516 
" style="fill:none;stroke:#000000;stroke-linecap:square;stroke-width:3;"/>
   </g>
   <g id="line2d_68">
    <path clip-path="url(#pd6d04fe6fe)" d="M 305.879603 568.735516 
L 305.879603 481.161814 
L 326.315911 481.161814 
L 326.315911 568.735516 
L 305.879603 568.735516 
" style="fill:none;stroke:#d3d3d3;stroke-linecap:square;stroke-width:0.5;"/>
   </g>
   <g id="line2d_69">
    <path clip-path="url(#pd6d04fe6fe)" d="M 305.879603 568.735516 
L 305.879603 568.735516 
L 304.33668 572.514313 
L 302.777517 576.279303 
L 301.199387 580.027387 
L 299.598894 583.75417 
L 297.971735 587.453175 
L 298.850732 585.51372 
" style="fill:none;stroke:#000000;stroke-linecap:square;stroke-width:3;"/>
   </g>
   <g id="line2d_70">
    <path clip-path="url(#pd6d04fe6fe)" d="M 297.971735 587.453175 
L 297.971735 568.735516 
L 305.879603 568.735516 
L 305.879603 587.453175 
L 297.971735 587.453175 
" style="fill:none;stroke:#d3d3d3;stroke-linecap:square;stroke-width:0.5;"/>
   </g>
   <g id="line2d_71">
    <path clip-path="url(#pd6d04fe6fe)" d="M 376.086212 372.722763 
L 378.168624 369.126986 
L 380.233499 365.519989 
L 382.279989 361.901338 
L 384.307199 358.27057 
L 386.314186 354.627185 
L 388.299947 350.970656 
L 390.263422 347.300421 
L 392.203481 343.615887 
L 394.118921 339.916431 
L 396.008458 336.201403 
L 397.870718 332.470124 
L 399.704233 328.721889 
L 401.507428 324.955971 
L 403.278614 321.171625 
L 405.015981 317.368088 
L 406.717583 313.544589 
L 408.381333 309.70035 
L 410.004988 305.834597 
L 411.586143 301.946567 
L 413.122216 298.035519 
L 414.610444 294.100745 
L 416.04787 290.141585 
L 417.431334 286.157446 
L 418.757471 282.147814 
L 420.022708 278.112287 
L 421.223259 274.050587 
L 422.355136 269.962598 
L 423.414152 265.84839 
L 424.395945 261.708252 
L 425.295995 257.542729 
L 426.109663 253.35265 
L 426.83223 249.13917 
L 427.458953 244.903791 
L 427.985129 240.648397 
L 428.40617 236.375269 
L 428.717689 232.087098 
L 428.915589 227.786976 
L 428.996162 223.478389 
L 428.956186 219.165176 
L 428.793012 214.851482 
L 428.504647 210.541693 
L 428.089821 206.240358 
L 427.548028 201.952091 
L 426.879551 197.681483 
L 426.085457 193.432993 
L 425.167565 189.210866 
L 424.128398 185.019038 
L 422.971106 180.861074 
L 421.699379 176.740111 
L 420.317355 172.658822 
L 418.829515 168.619405 
L 417.240584 164.62358 
L 415.555441 160.672606 
L 413.779032 156.76731 
L 411.916298 152.908121 
L 409.972113 149.095116 
L 407.951232 145.328063 
L 405.858257 141.606468 
L 403.697608 137.929621 
L 403.697608 137.929621 
" style="fill:none;stroke:#000000;stroke-linecap:square;stroke-width:3;"/>
   </g>
   <g id="line2d_72">
    <path clip-path="url(#pd6d04fe6fe)" d="M 376.086212 372.722763 
L 376.086212 137.929621 
L 428.996162 137.929621 
L 428.996162 372.722763 
L 376.086212 372.722763 
" style="fill:none;stroke:#d3d3d3;stroke-linecap:square;stroke-width:0.5;"/>
   </g>
   <g id="line2d_73">
    <path clip-path="url(#pd6d04fe6fe)" d="M 280.630693 605.278814 
L 280.602301 604.712714 
L 280.71595 600.1933 
L 281.010828 595.831719 
L 281.42487 591.552974 
L 281.927717 587.325708 
L 282.501739 583.134092 
L 283.135586 578.969113 
L 283.821429 574.825193 
L 284.55359 570.698659 
L 285.327797 566.586981 
L 286.140737 562.488348 
L 286.989783 558.40143 
L 287.872808 554.325225 
L 288.788068 550.258967 
L 289.734109 546.202059 
L 290.709708 542.154034 
L 291.713828 538.114522 
L 292.74558 534.08323 
L 293.804199 530.059924 
L 294.889024 526.044421 
L 295.999481 522.036576 
L 297.13507 518.036277 
L 298.295354 514.043441 
L 299.479953 510.058007 
L 300.688537 506.079936 
L 301.920816 502.109206 
L 303.17654 498.14581 
L 304.455496 494.189756 
L 305.757499 490.241064 
L 307.082395 486.299768 
L 308.430055 482.36591 
L 309.800376 478.439542 
L 311.193277 474.520729 
L 312.608699 470.609542 
L 314.046602 466.706062 
L 315.506968 462.810378 
L 316.989794 458.922591 
L 318.495099 455.042805 
L 320.022916 451.171137 
L 321.573296 447.307711 
L 322.373978 445.345446 
" style="fill:none;stroke:#000000;stroke-linecap:square;stroke-width:3;"/>
   </g>
   <g id="line2d_74">
    <path clip-path="url(#pd6d04fe6fe)" d="M 280.602301 605.278814 
L 280.602301 445.345446 
L 322.373978 445.345446 
L 322.373978 605.278814 
L 280.602301 605.278814 
" style="fill:none;stroke:#d3d3d3;stroke-linecap:square;stroke-width:0.5;"/>
   </g>
   <g id="line2d_75">
    <path clip-path="url(#pd6d04fe6fe)" d="M 208.167018 218.828853 
L 205.111081 221.765941 
L 202.091534 224.749017 
L 199.111671 227.780927 
L 196.175165 230.864688 
L 193.286124 234.00348 
L 190.449136 237.200638 
L 187.669338 240.459632 
L 184.952473 243.78403 
L 182.304962 247.177451 
L 179.733973 250.643489 
L 177.247487 254.185613 
L 174.854345 257.807036 
L 172.564289 261.510547 
L 170.387954 265.298304 
L 168.336817 269.171593 
L 166.423074 273.130558 
L 164.659432 277.173924 
L 163.058804 281.298728 
L 161.633894 285.500115 
L 160.396704 289.771213 
L 159.357973 294.103157 
L 158.526623 298.48526 
L 157.90926 302.905364 
L 157.509809 307.350323 
L 157.329331 311.806581 
L 157.366047 316.260779 
L 157.61556 320.700298 
L 158.071234 325.113701 
L 158.724668 329.491035 
L 159.566213 333.823974 
L 160.585466 338.105836 
L 161.771698 342.331494 
L 163.114218 346.497213 
L 164.602639 350.600462 
L 166.227071 354.639699 
L 167.978242 358.614175 
L 169.847569 362.523754 
L 171.827178 366.368753 
L 173.909907 370.149807 
L 176.08928 373.867766 
" style="fill:none;stroke:#000000;stroke-linecap:square;stroke-width:3;"/>
   </g>
   <g id="line2d_76">
    <path clip-path="url(#pd6d04fe6fe)" d="M 157.329331 373.867766 
L 157.329331 218.828853 
L 208.167018 218.828853 
L 208.167018 373.867766 
L 157.329331 373.867766 
" style="fill:none;stroke:#d3d3d3;stroke-linecap:square;stroke-width:0.5;"/>
   </g>
   <g id="line2d_77">
    <path clip-path="url(#pd6d04fe6fe)" d="M 176.08928 373.867766 
L 178.35947 377.523602 
L 180.715261 381.118338 
L 183.152001 384.653002 
L 185.665561 388.128573 
L 188.25229 391.54596 
L 190.90898 394.905964 
L 193.632828 398.209269 
L 196.421406 401.456415 
L 199.272636 404.64779 
L 202.184768 407.783613 
L 205.156358 410.863921 
L 208.186259 413.888557 
L 211.273609 416.857149 
L 214.417826 419.769097 
L 217.61861 422.623546 
L 220.875942 425.419364 
L 224.190101 428.155101 
L 227.561674 430.828957 
L 230.991584 433.43872 
L 234.481119 435.981707 
L 238.031978 438.454678 
L 241.646324 440.853724 
L 245.326857 443.17413 
L 249.076911 445.410184 
L 252.900573 447.554931 
L 256.802838 449.599831 
L 260.789816 451.534284 
L 264.868989 453.344971 
L 269.049537 455.014892 
L 273.342726 456.521941 
L 277.762329 457.836768 
L 282.324893 458.919461 
L 287.04938 459.714368 
L 291.954753 460.142115 
L 297.051881 460.088238 
L 302.321511 459.391308 
L 307.666075 457.846668 
L 312.841824 455.267865 
L 317.456556 451.633475 
L 321.147315 447.191494 
" style="fill:none;stroke:#000000;stroke-linecap:square;stroke-width:3;"/>
   </g>
   <g id="line2d_78">
    <path clip-path="url(#pd6d04fe6fe)" d="M 176.08928 460.142115 
L 176.08928 373.867766 
L 321.147315 373.867766 
L 321.147315 460.142115 
L 176.08928 460.142115 
" style="fill:none;stroke:#d3d3d3;stroke-linecap:square;stroke-width:0.5;"/>
   </g>
   <g id="line2d_79">
    <path clip-path="url(#pd6d04fe6fe)" d="M 321.147315 447.191494 
" style="fill:none;stroke:#000000;stroke-linecap:square;stroke-width:3;"/>
   </g>
   <g id="line2d_80">
    <path clip-path="url(#pd6d04fe6fe)" d="M 321.147315 447.191494 
L 321.147315 447.191494 
L 321.147315 447.191494 
L 321.147315 447.191494 
L 321.147315 447.191494 
" style="fill:none;stroke:#d3d3d3;stroke-linecap:square;stroke-width:0.5;"/>
   </g>
   <g id="line2d_81">
    <path clip-path="url(#pd6d04fe6fe)" d="M 348.389353 426.514403 
L 351.594334 419.621188 
L 353.334275 415.939094 
L 355.097346 412.268084 
L 356.883746 408.608477 
L 358.693688 404.960605 
L 360.527402 401.324822 
L 362.385135 397.701497 
L 364.267149 394.09102 
L 366.173727 390.493804 
L 368.105166 386.910283 
L 370.061787 383.340917 
L 372.043925 379.786193 
L 374.05194 376.246626 
L 376.086212 372.722763 
" style="fill:none;stroke:#000000;stroke-linecap:square;stroke-width:3;"/>
   </g>
   <g id="line2d_82">
    <path clip-path="url(#pd6d04fe6fe)" d="M 348.389353 426.514403 
L 348.389353 372.722763 
L 376.086212 372.722763 
L 376.086212 426.514403 
L 348.389353 426.514403 
" style="fill:none;stroke:#d3d3d3;stroke-linecap:square;stroke-width:0.5;"/>
   </g>
   <g id="line2d_83">
    <path clip-path="url(#pd6d04fe6fe)" d="M 321.251408 574.654306 
L 321.251408 574.654306 
L 319.681023 578.500349 
L 318.089106 582.344413 
L 316.471235 586.186857 
L 314.821483 590.028294 
L 313.131596 593.869825 
L 311.389495 597.71353 
L 309.576279 601.56361 
L 307.659394 605.429369 
L 305.573746 609.334513 
L 303.149655 613.356072 
L 299.54487 617.923228 
L 283.088004 616.940484 
L 280.849536 609.64238 
L 280.630693 605.278814 
" style="fill:none;stroke:#000000;stroke-linecap:square;stroke-width:3;"/>
   </g>
   <g id="line2d_84">
    <path clip-path="url(#pd6d04fe6fe)" d="M 280.630693 617.923228 
L 280.630693 574.654306 
L 321.251408 574.654306 
L 321.251408 617.923228 
L 280.630693 617.923228 
" style="fill:none;stroke:#d3d3d3;stroke-linecap:square;stroke-width:0.5;"/>
   </g>
   <g id="line2d_85">
    <path clip-path="url(#pd6d04fe6fe)" d="M 348.389353 426.514403 
L 348.601295 429.207413 
L 348.6385 433.786062 
L 348.487066 438.218252 
L 348.212344 442.565862 
L 347.84849 446.858478 
L 347.415954 451.112397 
L 346.928093 455.337496 
L 346.394182 459.540184 
L 345.820948 463.724839 
L 345.213439 467.894576 
L 344.575538 472.051681 
L 343.910292 476.197883 
L 343.220124 480.334515 
L 342.506982 484.462629 
L 341.772439 488.583072 
L 341.017764 492.696539 
L 340.243977 496.80361 
L 339.45188 500.904782 
L 338.64209 505.000485 
L 337.815052 509.091105 
L 336.971048 513.176992 
L 336.110202 517.258477 
L 335.232474 521.335877 
L 334.337649 525.409512 
L 333.42531 529.47971 
L 332.494809 533.54683 
L 331.545201 537.611283 
L 330.575158 541.673567 
L 329.582827 545.734338 
L 328.565582 549.794529 
L 327.519602 553.855596 
L 326.439039 557.920064 
L 325.314222 561.992916 
L 324.126972 566.085833 
L 322.834111 570.235071 
L 321.251408 574.654306 
L 321.251408 574.654306 
" style="fill:none;stroke:#000000;stroke-linecap:square;stroke-width:3;"/>
   </g>
   <g id="line2d_86">
    <path clip-path="url(#pd6d04fe6fe)" d="M 321.251408 574.654306 
L 321.251408 426.514403 
L 348.6385 426.514403 
L 348.6385 574.654306 
L 321.251408 574.654306 
" style="fill:none;stroke:#d3d3d3;stroke-linecap:square;stroke-width:0.5;"/>
   </g>
   <g id="line2d_87">
    <path clip-path="url(#pd6d04fe6fe)" d="M 403.697608 137.929621 
L 403.697608 137.929621 
L 401.459678 134.286711 
L 399.122986 130.67163 
L 396.671221 127.09092 
L 394.084484 123.553359 
L 391.338381 120.071008 
L 388.402984 116.660851 
L 385.241878 113.347354 
L 381.811885 110.166429 
L 378.064886 107.171189 
L 373.954559 104.439118 
L 369.452129 102.077503 
L 364.572756 100.218489 
L 359.402019 98.991827 
L 354.095024 98.476772 
L 348.830482 98.665042 
L 343.748909 99.469493 
L 338.9229 100.76792 
L 334.367365 102.443208 
L 330.064488 104.401249 
L 325.983787 106.572331 
L 322.093095 108.906266 
L 318.363154 111.366905 
L 314.76893 113.927828 
L 311.289526 116.569327 
L 307.907642 119.27638 
L 304.608944 122.037292 
L 301.381494 124.842786 
L 298.215281 127.685373 
L 295.101839 130.558913 
L 292.033949 133.458302 
L 289.005405 136.379245 
L 286.01083 139.318081 
L 283.045529 142.271658 
L 280.105374 145.237235 
L 277.186709 148.212404 
L 274.286278 151.195034 
L 271.401163 154.183215 
L 268.528735 157.175229 
L 265.66661 160.169512 
L 262.812618 163.164635 
L 259.964775 166.159276 
L 257.121257 169.152207 
L 254.28038 172.142281 
L 251.440586 175.128417 
L 248.600425 178.109588 
L 245.758542 181.084817 
L 242.913673 184.053168 
L 240.064626 187.013738 
L 237.210281 189.965652 
L 234.349581 192.90806 
L 231.481522 195.840131 
L 228.605154 198.76105 
L 225.719574 201.670014 
L 222.823919 204.566233 
L 219.917369 207.448921 
L 216.999139 210.317301 
L 214.068478 213.170598 
L 211.124667 216.008039 
L 208.167018 218.828853 
" style="fill:none;stroke:#000000;stroke-linecap:square;stroke-width:3;"/>
   </g>
   <g id="line2d_88">
    <path clip-path="url(#pd6d04fe6fe)" d="M 208.167018 218.828853 
L 208.167018 98.476772 
L 403.697608 98.476772 
L 403.697608 218.828853 
L 208.167018 218.828853 
" style="fill:none;stroke:#d3d3d3;stroke-linecap:square;stroke-width:0.5;"/>
   </g>
   <g id="line2d_89">
    <path clip-path="url(#pd6d04fe6fe)" d="M 321.147315 447.191494 
L 323.445972 443.799622 
L 322.373978 445.345446 
" style="fill:none;stroke:#000000;stroke-linecap:square;stroke-width:3;"/>
   </g>
   <g id="line2d_90">
    <path clip-path="url(#pd6d04fe6fe)" d="M 321.147315 447.191494 
L 321.147315 443.799622 
L 323.445972 443.799622 
L 323.445972 447.191494 
L 321.147315 447.191494 
" style="fill:none;stroke:#d3d3d3;stroke-linecap:square;stroke-width:0.5;"/>
   </g>
   <g id="line2d_91">
    <path clip-path="url(#pd6d04fe6fe)" d="M 376.086212 372.722763 
L 376.086212 372.722763 
L 376.086212 372.722763 
" style="fill:none;stroke:#000000;stroke-linecap:square;stroke-width:3;"/>
   </g>
   <g id="line2d_92">
    <path clip-path="url(#pd6d04fe6fe)" d="M 376.086212 372.722763 
L 376.086212 372.722763 
L 376.086212 372.722763 
L 376.086212 372.722763 
L 376.086212 372.722763 
" style="fill:none;stroke:#d3d3d3;stroke-linecap:square;stroke-width:0.5;"/>
   </g>
   <g id="line2d_93">
    <path clip-path="url(#pd6d04fe6fe)" d="M 376.086212 372.722763 
L 376.086212 372.722763 
L 376.086212 372.722763 
" style="fill:none;stroke:#000000;stroke-linecap:square;stroke-width:3;"/>
   </g>
   <g id="line2d_94">
    <path clip-path="url(#pd6d04fe6fe)" d="M 376.086212 372.722763 
L 376.086212 372.722763 
L 376.086212 372.722763 
L 376.086212 372.722763 
L 376.086212 372.722763 
" style="fill:none;stroke:#d3d3d3;stroke-linecap:square;stroke-width:0.5;"/>
   </g>
   <g id="line2d_95">
    <path clip-path="url(#pd6d04fe6fe)" d="M 213.93241 212.520549 
L 215.517663 212.6197 
L 217.076887 212.915522 
L 218.584478 213.403159 
L 220.015682 214.074604 
L 221.346999 214.918832 
L 222.556569 215.92198 
L 223.62453 217.067577 
L 224.533347 218.336813 
L 225.268097 219.708845 
L 225.816715 221.161147 
L 226.170193 222.66987 
L 226.322728 224.210242 
L 226.271813 225.756969 
L 226.018286 227.284656 
L 225.566309 228.768216 
L 224.923304 230.183291 
L 224.099829 231.506644 
L 223.109405 232.716546 
L 221.968295 233.79313 
L 220.695236 234.71872 
L 219.311131 235.478117 
L 217.838708 236.058851 
L 216.302144 236.451387 
L 214.726669 236.64928 
L 213.138152 236.64928 
L 211.562677 236.451387 
L 210.026113 236.058851 
L 208.55369 235.478117 
L 207.169585 234.71872 
L 205.896526 233.79313 
L 204.755416 232.716546 
L 203.764992 231.506644 
L 202.941517 230.183291 
L 202.298512 228.768216 
L 201.846535 227.284656 
L 201.593008 225.756969 
L 201.542093 224.210242 
L 201.694627 222.66987 
L 202.048106 221.161147 
L 202.596724 219.708845 
L 203.331474 218.336813 
L 204.240291 217.067577 
L 205.308252 215.92198 
L 206.517822 214.918832 
L 207.849139 214.074604 
L 209.280343 213.403159 
L 210.787934 212.915522 
L 212.347157 212.6197 
L 213.93241 212.520549 
" style="fill:none;stroke:#808080;stroke-linecap:square;stroke-width:1.5;"/>
   </g>
   <g id="line2d_96">
    <path clip-path="url(#pd6d04fe6fe)" d="M 183.213038 357.709445 
L 184.798291 357.808595 
L 186.357514 358.104417 
L 187.865105 358.592054 
L 189.296309 359.2635 
L 190.627626 360.107727 
L 191.837196 361.110875 
L 192.905157 362.256473 
L 193.813974 363.525708 
L 194.548724 364.897741 
L 195.097342 366.350042 
L 195.450821 367.858765 
L 195.603355 369.399137 
L 195.55244 370.945865 
L 195.298913 372.473551 
L 194.846936 373.957112 
L 194.203931 375.372186 
L 193.380456 376.695539 
L 192.390032 377.905441 
L 191.248922 378.982026 
L 189.975863 379.907616 
L 188.591758 380.667012 
L 187.119335 381.247747 
L 185.582771 381.640283 
L 184.007296 381.838176 
L 182.418779 381.838176 
L 180.843304 381.640283 
L 179.30674 381.247747 
L 177.834317 380.667012 
L 176.450213 379.907616 
L 175.177153 378.982026 
L 174.036043 377.905441 
L 173.045619 376.695539 
L 172.222144 375.372186 
L 171.579139 373.957112 
L 171.127162 372.473551 
L 170.873635 370.945865 
L 170.82272 369.399137 
L 170.975255 367.858765 
L 171.328733 366.350042 
L 171.877351 364.897741 
L 172.612101 363.525708 
L 173.520918 362.256473 
L 174.588879 361.110875 
L 175.798449 360.107727 
L 177.129766 359.2635 
L 178.56097 358.592054 
L 180.068561 358.104417 
L 181.627785 357.808595 
L 183.213038 357.709445 
" style="fill:none;stroke:#808080;stroke-linecap:square;stroke-width:1.5;"/>
   </g>
   <g id="line2d_97">
    <path clip-path="url(#pd6d04fe6fe)" d="M 314.23067 430.70804 
L 315.815923 430.80719 
L 317.375146 431.103012 
L 318.882737 431.59065 
L 320.313941 432.262095 
L 321.645259 433.106322 
L 322.854828 434.109471 
L 323.92279 435.255068 
L 324.831607 436.524303 
L 325.566356 437.896336 
L 326.114975 439.348637 
L 326.468453 440.85736 
L 326.620987 442.397732 
L 326.570073 443.94446 
L 326.316545 445.472146 
L 325.864569 446.955707 
L 325.221563 448.370781 
L 324.398088 449.694134 
L 323.407664 450.904036 
L 322.266554 451.980621 
L 320.993495 452.906211 
L 319.609391 453.665607 
L 318.136968 454.246342 
L 316.600403 454.638878 
L 315.024928 454.836771 
L 313.436411 454.836771 
L 311.860936 454.638878 
L 310.324372 454.246342 
L 308.851949 453.665607 
L 307.467845 452.906211 
L 306.194786 451.980621 
L 305.053676 450.904036 
L 304.063252 449.694134 
L 303.239776 448.370781 
L 302.596771 446.955707 
L 302.144794 445.472146 
L 301.891267 443.94446 
L 301.840353 442.397732 
L 301.992887 440.85736 
L 302.346365 439.348637 
L 302.894983 437.896336 
L 303.629733 436.524303 
L 304.53855 435.255068 
L 305.606511 434.109471 
L 306.816081 433.106322 
L 308.147398 432.262095 
L 309.578603 431.59065 
L 311.086194 431.103012 
L 312.645417 430.80719 
L 314.23067 430.70804 
" style="fill:none;stroke:#808080;stroke-linecap:square;stroke-width:1.5;"/>
   </g>
   <g id="line2d_98">
    <path clip-path="url(#pd6d04fe6fe)" d="M 314.23067 430.70804 
L 315.815923 430.80719 
L 317.375146 431.103012 
L 318.882737 431.59065 
L 320.313941 432.262095 
L 321.645259 433.106322 
L 322.854828 434.109471 
L 323.92279 435.255068 
L 324.831607 436.524303 
L 325.566356 437.896336 
L 326.114975 439.348637 
L 326.468453 440.85736 
L 326.620987 442.397732 
L 326.570073 443.94446 
L 326.316545 445.472146 
L 325.864569 446.955707 
L 325.221563 448.370781 
L 324.398088 449.694134 
L 323.407664 450.904036 
L 322.266554 451.980621 
L 320.993495 452.906211 
L 319.609391 453.665607 
L 318.136968 454.246342 
L 316.600403 454.638878 
L 315.024928 454.836771 
L 313.436411 454.836771 
L 311.860936 454.638878 
L 310.324372 454.246342 
L 308.851949 453.665607 
L 307.467845 452.906211 
L 306.194786 451.980621 
L 305.053676 450.904036 
L 304.063252 449.694134 
L 303.239776 448.370781 
L 302.596771 446.955707 
L 302.144794 445.472146 
L 301.891267 443.94446 
L 301.840353 442.397732 
L 301.992887 440.85736 
L 302.346365 439.348637 
L 302.894983 437.896336 
L 303.629733 436.524303 
L 304.53855 435.255068 
L 305.606511 434.109471 
L 306.816081 433.106322 
L 308.147398 432.262095 
L 309.578603 431.59065 
L 311.086194 431.103012 
L 312.645417 430.80719 
L 314.23067 430.70804 
" style="fill:none;stroke:#808080;stroke-linecap:square;stroke-width:1.5;"/>
   </g>
   <g id="line2d_99">
    <path clip-path="url(#pd6d04fe6fe)" d="M 313.565505 559.61814 
L 315.150758 559.71729 
L 316.709982 560.013112 
L 318.217573 560.500749 
L 319.648777 561.172194 
L 320.980094 562.016422 
L 322.189664 563.01957 
L 323.257625 564.165167 
L 324.166442 565.434403 
L 324.901192 566.806435 
L 325.44981 568.258737 
L 325.803288 569.76746 
L 325.955822 571.307832 
L 325.904908 572.85456 
L 325.651381 574.382246 
L 325.199404 575.865806 
L 324.556399 577.280881 
L 323.732923 578.604234 
L 322.742499 579.814136 
L 321.601389 580.890721 
L 320.32833 581.81631 
L 318.944226 582.575707 
L 317.471803 583.156441 
L 315.935239 583.548977 
L 314.359764 583.74687 
L 312.771247 583.74687 
L 311.195772 583.548977 
L 309.659207 583.156441 
L 308.186785 582.575707 
L 306.80268 581.81631 
L 305.529621 580.890721 
L 304.388511 579.814136 
L 303.398087 578.604234 
L 302.574612 577.280881 
L 301.931607 575.865806 
L 301.47963 574.382246 
L 301.226103 572.85456 
L 301.175188 571.307832 
L 301.327722 569.76746 
L 301.6812 568.258737 
L 302.229819 566.806435 
L 302.964569 565.434403 
L 303.873386 564.165167 
L 304.941347 563.01957 
L 306.150917 562.016422 
L 307.482234 561.172194 
L 308.913438 560.500749 
L 310.421029 560.013112 
L 311.980252 559.71729 
L 313.565505 559.61814 
" style="fill:none;stroke:#808080;stroke-linecap:square;stroke-width:1.5;"/>
   </g>
   <g id="line2d_100">
    <path clip-path="url(#pd6d04fe6fe)" d="M 308.60628 496.310707 
L 310.191534 496.409857 
L 311.750757 496.705679 
L 313.258348 497.193316 
L 314.689552 497.864761 
L 316.020869 498.708989 
L 317.230439 499.712137 
L 318.2984 500.857734 
L 319.207217 502.12697 
L 319.941967 503.499002 
L 320.490585 504.951304 
L 320.844063 506.460027 
L 320.996598 508.000399 
L 320.945683 509.547127 
L 320.692156 511.074813 
L 320.240179 512.558374 
L 319.597174 513.973448 
L 318.773699 515.296801 
L 317.783275 516.506703 
L 316.642165 517.583288 
L 315.369106 518.508877 
L 313.985001 519.268274 
L 312.512578 519.849008 
L 310.976014 520.241545 
L 309.400539 520.439437 
L 307.812022 520.439437 
L 306.236547 520.241545 
L 304.699983 519.849008 
L 303.22756 519.268274 
L 301.843455 518.508877 
L 300.570396 517.583288 
L 299.429286 516.506703 
L 298.438862 515.296801 
L 297.615387 513.973448 
L 296.972382 512.558374 
L 296.520405 511.074813 
L 296.266878 509.547127 
L 296.215963 508.000399 
L 296.368497 506.460027 
L 296.721976 504.951304 
L 297.270594 503.499002 
L 298.005344 502.12697 
L 298.914161 500.857734 
L 299.982122 499.712137 
L 301.191692 498.708989 
L 302.523009 497.864761 
L 303.954213 497.193316 
L 305.461804 496.705679 
L 307.021027 496.409857 
L 308.60628 496.310707 
" style="fill:none;stroke:#808080;stroke-linecap:square;stroke-width:1.5;"/>
   </g>
   <g id="line2d_101">
    <path clip-path="url(#pd6d04fe6fe)" d="M 368.898051 356.673049 
L 370.483304 356.772199 
L 372.042527 357.068021 
L 373.550118 357.555658 
L 374.981322 358.227103 
L 376.312639 359.071331 
L 377.522209 360.074479 
L 378.59017 361.220077 
L 379.498987 362.489312 
L 380.233737 363.861345 
L 380.782355 365.313646 
L 381.135834 366.822369 
L 381.288368 368.362741 
L 381.237453 369.909469 
L 380.983926 371.437155 
L 380.531949 372.920716 
L 379.888944 374.33579 
L 379.065469 375.659143 
L 378.075045 376.869045 
L 376.933935 377.94563 
L 375.660876 378.87122 
L 374.276771 379.630616 
L 372.804348 380.211351 
L 371.267784 380.603887 
L 369.692309 380.80178 
L 368.103792 380.80178 
L 366.528317 380.603887 
L 364.991753 380.211351 
L 363.51933 379.630616 
L 362.135225 378.87122 
L 360.862166 377.94563 
L 359.721056 376.869045 
L 358.730632 375.659143 
L 357.907157 374.33579 
L 357.264152 372.920716 
L 356.812175 371.437155 
L 356.558648 369.909469 
L 356.507733 368.362741 
L 356.660268 366.822369 
L 357.013746 365.313646 
L 357.562364 363.861345 
L 358.297114 362.489312 
L 359.205931 361.220077 
L 360.273892 360.074479 
L 361.483462 359.071331 
L 362.814779 358.227103 
L 364.245983 357.555658 
L 365.753574 357.068021 
L 367.312797 356.772199 
L 368.898051 356.673049 
" style="fill:none;stroke:#808080;stroke-linecap:square;stroke-width:1.5;"/>
   </g>
   <g id="line2d_102">
    <path clip-path="url(#pd6d04fe6fe)" d="M 396.562794 129.916029 
L 398.148047 130.015179 
L 399.70727 130.311001 
L 401.214861 130.798638 
L 402.646065 131.470083 
L 403.977382 132.314311 
L 405.186952 133.317459 
L 406.254913 134.463056 
L 407.16373 135.732292 
L 407.89848 137.104324 
L 408.447098 138.556626 
L 408.800577 140.065349 
L 408.953111 141.605721 
L 408.902196 143.152449 
L 408.648669 144.680135 
L 408.196692 146.163696 
L 407.553687 147.57877 
L 406.730212 148.902123 
L 405.739788 150.112025 
L 404.598678 151.18861 
L 403.325619 152.114199 
L 401.941514 152.873596 
L 400.469091 153.45433 
L 398.932527 153.846867 
L 397.357052 154.044759 
L 395.768535 154.044759 
L 394.19306 153.846867 
L 392.656496 153.45433 
L 391.184073 152.873596 
L 389.799968 152.114199 
L 388.526909 151.18861 
L 387.385799 150.112025 
L 386.395375 148.902123 
L 385.5719 147.57877 
L 384.928895 146.163696 
L 384.476918 144.680135 
L 384.223391 143.152449 
L 384.172476 141.605721 
L 384.325011 140.065349 
L 384.678489 138.556626 
L 385.227107 137.104324 
L 385.961857 135.732292 
L 386.870674 134.463056 
L 387.938635 133.317459 
L 389.148205 132.314311 
L 390.479522 131.470083 
L 391.910726 130.798638 
L 393.418317 130.311001 
L 394.97754 130.015179 
L 396.562794 129.916029 
" style="fill:none;stroke:#808080;stroke-linecap:square;stroke-width:1.5;"/>
   </g>
   <g id="line2d_103"/>
   <g id="line2d_104"/>
   <g id="line2d_105"/>
   <g id="line2d_106"/>
   <g id="line2d_107"/>
   <g id="line2d_108"/>
   <g id="line2d_109"/>
   <g id="line2d_110"/>
   <g id="line2d_111"/>
   <g id="line2d_112"/>
   <g id="line2d_113"/>
   <g id="line2d_114"/>
   <g id="line2d_115"/>
   <g id="line2d_116"/>
   <g id="line2d_117"/>
   <g id="line2d_118"/>
   <g id="line2d_119"/>
   <g id="line2d_120"/>
   <g id="line2d_121"/>
   <g id="line2d_122"/>
   <g id="line2d_123"/>
   <g id="line2d_124"/>
   <g id="line2d_125"/>
   <g id="line2d_126"/>
   <g id="line2d_127"/>
   <g id="line2d_128"/>
   <g id="line2d_129"/>
   <g id="line2d_130"/>
   <g id="line2d_131"/>
   <g id="line2d_132"/>
   <g id="line2d_133"/>
   <g id="line2d_134"/>
   <g id="line2d_135"/>
   <g id="line2d_136"/>
   <g id="line2d_137"/>
   <g id="line2d_138"/>
   <g id="line2d_139"/>
   <g id="line2d_140"/>
   <g id="line2d_141"/>
   <g id="line2d_142"/>
   <g id="line2d_143"/>
   <g id="line2d_144"/>
   <g id="line2d_145"/>
   <g id="line2d_146"/>
   <g id="line2d_147"/>
   <g id="line2d_148"/>
   <g id="line2d_149"/>
   <g id="line2d_150"/>
   <g id="line2d_151"/>
   <g id="line2d_152"/>
   <g id="line2d_153"/>
   <g id="patch_3">
    <path d="M 90 630 
L 90 86.4 
" style="fill:none;stroke:#000000;stroke-linecap:square;stroke-linejoin:miter;stroke-width:0.8;"/>
   </g>
   <g id="patch_4">
    <path d="M 648 630 
L 648 86.4 
" style="fill:none;stroke:#000000;stroke-linecap:square;stroke-linejoin:miter;stroke-width:0.8;"/>
   </g>
   <g id="patch_5">
    <path d="M 90 630 
L 648 630 
" style="fill:none;stroke:#000000;stroke-linecap:square;stroke-linejoin:miter;stroke-width:0.8;"/>
   </g>
   <g id="patch_6">
    <path d="M 90 86.4 
L 648 86.4 
" style="fill:none;stroke:#000000;stroke-linecap:square;stroke-linejoin:miter;stroke-width:0.8;"/>
   </g>
   <g id="text_15">
    <!-- 0 -->
    <g transform="translate(132.33066 427.738118)scale(0.1 -0.1)">
     <use xlink:href="#DejaVuSans-30"/>
    </g>
   </g>
   <g id="text_16">
    <!-- 0 -->
    <g transform="translate(132.33066 415.661346)scale(0.1 -0.1)">
     <use xlink:href="#DejaVuSans-30"/>
    </g>
   </g>
   <g id="text_17">
    <!-- 0 -->
    <g transform="translate(132.33066 403.584574)scale(0.1 -0.1)">
     <use xlink:href="#DejaVuSans-30"/>
    </g>
   </g>
  </g>
 </g>
 <defs>
  <clipPath id="pd6d04fe6fe">
   <rect height="543.6" width="558" x="90" y="86.4"/>
  </clipPath>
 </defs>
</svg>
