<?xml version="1.0" encoding="utf-8" standalone="no"?>
<!DOCTYPE svg PUBLIC "-//W3C//DTD SVG 1.1//EN"
  "http://www.w3.org/Graphics/SVG/1.1/DTD/svg11.dtd">
<svg height="720pt" version="1.1" viewBox="0 0 720 720" width="720pt" xmlns="http://www.w3.org/2000/svg" xmlns:xlink="http://www.w3.org/1999/xlink">
 <metadata>
  <rdf:RDF xmlns:cc="http://creativecommons.org/ns#" xmlns:dc="http://purl.org/dc/elements/1.1/" xmlns:rdf="http://www.w3.org/1999/02/22-rdf-syntax-ns#">
   <cc:Work>
    <dc:type rdf:resource="http://purl.org/dc/dcmitype/StillImage"/>
    <dc:date>2022-01-11T13:26:11.698498</dc:date>
    <dc:format>image/svg+xml</dc:format>
    <dc:creator>
     <cc:Agent>
      <dc:title>Matplotlib v3.4.3, https://matplotlib.org/</dc:title>
     </cc:Agent>
    </dc:creator>
   </cc:Work>
  </rdf:RDF>
 </metadata>
 <defs>
  <style type="text/css">*{stroke-linecap:butt;stroke-linejoin:round;}</style>
 </defs>
 <g id="figure_1">
  <g id="patch_1">
   <path d="M 0 720 
L 720 720 
L 720 0 
L 0 0 
z
" style="fill:none;"/>
  </g>
  <g id="axes_1">
   <g id="patch_2">
    <path d="M 90 630 
L 648 630 
L 648 86.4 
L 90 86.4 
z
" style="fill:#ffffff;"/>
   </g>
   <g id="PathCollection_1">
    <defs>
     <path d="M 0.972304 -8.870829 
Q -1.277159 -8.870829 -2.413438 -6.653699 
Q -3.545098 -4.441189 -3.545098 0.006929 
Q -3.545098 4.436569 -2.413438 6.653699 
Q -1.277159 8.870829 0.972304 8.870829 
Q 3.240243 8.870829 4.371903 6.653699 
Q 5.508182 4.436569 5.508182 0.006929 
Q 5.508182 -4.441189 4.371903 -6.653699 
Q 3.240243 -8.870829 0.972304 -8.870829 
z
M 0.972304 -11.18034 
Q 4.598235 -11.18034 6.51051 -8.311928 
Q 8.422784 -5.448135 8.422784 0.006929 
Q 8.422784 5.448135 6.51051 8.316547 
Q 4.598235 11.18034 0.972304 11.18034 
Q -2.649008 11.18034 -4.561283 8.316547 
Q -6.473558 5.448135 -6.473558 0.006929 
Q -6.473558 -5.448135 -4.561283 -8.311928 
Q -2.649008 -11.18034 0.972304 -11.18034 
z
" id="m9d55513cf5" style="stroke:#808080;"/>
    </defs>
    <g clip-path="url(#pfcc4f9a5e0)">
     <use style="fill:#808080;stroke:#808080;" x="205.183613" xlink:href="#m9d55513cf5" y="150.411758"/>
    </g>
   </g>
   <g id="PathCollection_2">
    <defs>
     <path d="M -4.535873 8.63565 
L 0.404946 8.63565 
L 0.404946 -8.424791 
L -4.971969 -7.346533 
L -4.971969 -10.102082 
L 0.376192 -11.18034 
L 3.400108 -11.18034 
L 3.400108 8.63565 
L 8.340927 8.63565 
L 8.340927 11.18034 
L -4.535873 11.18034 
L -4.535873 8.63565 
z
" id="mf47dfa11c1" style="stroke:#808080;"/>
    </defs>
    <g clip-path="url(#pfcc4f9a5e0)">
     <use style="fill:#808080;stroke:#808080;" x="262.850909" xlink:href="#mf47dfa11c1" y="131.831609"/>
    </g>
   </g>
   <g id="PathCollection_3">
    <defs>
     <path d="M -2.294912 8.680651 
L 8.075736 8.680651 
L 8.075736 11.18034 
L -5.867913 11.18034 
L -5.867913 8.680651 
Q -4.177916 6.929457 -1.259259 3.982555 
Q 1.664105 1.030945 2.4126 0.174178 
Q 3.838976 -1.426376 4.403877 -2.537349 
Q 4.973486 -3.648321 4.973486 -4.721634 
Q 4.973486 -6.472828 3.744825 -7.574386 
Q 2.516165 -8.680651 0.543718 -8.680651 
Q -0.854413 -8.680651 -2.407892 -8.195778 
Q -3.956663 -7.710904 -5.72198 -6.722326 
L -5.72198 -9.725719 
Q -3.928418 -10.445968 -2.370232 -10.813154 
Q -0.807338 -11.18034 0.487227 -11.18034 
Q 3.900173 -11.18034 5.929111 -9.471513 
Q 7.958048 -7.767394 7.958048 -4.914642 
Q 7.958048 -3.558879 7.449637 -2.344341 
Q 6.945933 -1.13451 5.604292 0.513119 
Q 5.237107 0.941502 3.264659 2.979855 
Q 1.296919 5.018207 -2.294912 8.680651 
z
" id="mf6ff7b571f" style="stroke:#808080;"/>
    </defs>
    <g clip-path="url(#pfcc4f9a5e0)">
     <use style="fill:#808080;stroke:#808080;" x="204.90385" xlink:href="#mf6ff7b571f" y="220.272066"/>
    </g>
   </g>
   <g id="PathCollection_4">
    <defs>
     <path d="M 3.77605 -0.861447 
Q 5.868466 -0.413402 7.041697 1.004637 
Q 8.219548 2.418057 8.219548 4.496617 
Q 8.219548 7.683741 6.025513 9.43435 
Q 3.831478 11.18034 -0.210165 11.18034 
Q -1.563539 11.18034 -3.000054 10.912437 
Q -4.436569 10.644533 -5.965465 10.108727 
L -5.965465 7.295743 
Q -4.755282 8.002454 -3.314147 8.362737 
Q -1.868394 8.723021 -0.293308 8.723021 
Q 2.445772 8.723021 3.882287 7.64217 
Q 5.318802 6.561319 5.318802 4.496617 
Q 5.318802 2.588961 3.983905 1.517348 
Q 2.649008 0.441116 0.270213 0.441116 
L -2.242535 0.441116 
L -2.242535 -1.956155 
L 0.385688 -1.956155 
Q 2.533533 -1.956155 3.674431 -2.815293 
Q 4.815329 -3.674431 4.815329 -5.291088 
Q 4.815329 -6.949317 3.637479 -7.836169 
Q 2.464248 -8.72764 0.270213 -8.72764 
Q -0.930733 -8.72764 -2.302582 -8.464356 
Q -3.674431 -8.20569 -5.318802 -7.660646 
L -5.318802 -10.256536 
Q -3.655955 -10.718438 -2.205582 -10.949389 
Q -0.75521 -11.18034 0.528878 -11.18034 
Q 3.849954 -11.18034 5.780705 -9.66992 
Q 7.716074 -8.164119 7.716074 -5.595944 
Q 7.716074 -3.803764 6.690652 -2.570485 
Q 5.665229 -1.337207 3.77605 -0.861447 
z
" id="m70cefb9aa0" style="stroke:#808080;"/>
    </defs>
    <g clip-path="url(#pfcc4f9a5e0)">
     <use style="fill:#808080;stroke:#808080;" x="131.436559" xlink:href="#m70cefb9aa0" y="355.042701"/>
    </g>
   </g>
   <g id="PathCollection_5">
    <defs>
     <path d="M 2.695646 -8.544598 
L -4.943215 3.392919 
L 2.695646 3.392919 
L 2.695646 -8.544598 
z
M 1.900131 -11.18034 
L 5.705184 -11.18034 
L 5.705184 3.392919 
L 8.896829 3.392919 
L 8.896829 5.908855 
L 5.705184 5.908855 
L 5.705184 11.18034 
L 2.695646 11.18034 
L 2.695646 5.908855 
L -7.396852 5.908855 
L -7.396852 2.99037 
L 1.900131 -11.18034 
z
" id="mf948ba19f1" style="stroke:#808080;"/>
    </defs>
    <g clip-path="url(#pfcc4f9a5e0)">
     <use style="fill:#808080;stroke:#808080;" x="131.436559" xlink:href="#mf948ba19f1" y="355.042701"/>
    </g>
   </g>
   <g id="PathCollection_6">
    <defs>
     <path d="M -5.008473 -11.18034 
L 6.639575 -11.18034 
L 6.639575 -8.679629 
L -2.291535 -8.679629 
L -2.291535 -3.306861 
Q -1.647555 -3.527789 -1.003575 -3.635902 
Q -0.354894 -3.744015 0.293787 -3.744015 
Q 3.964943 -3.744015 6.108409 -1.732165 
Q 8.256576 0.279685 8.256576 3.715812 
Q 8.256576 7.255352 6.052002 9.220196 
Q 3.847428 11.18034 -0.16217 11.18034 
Q -1.544142 11.18034 -2.97782 10.945311 
Q -4.406798 10.710281 -5.934488 10.240223 
L -5.934488 7.255352 
Q -4.613624 7.974541 -3.203448 8.327085 
Q -1.793273 8.679629 -0.223278 8.679629 
Q 2.319738 8.679629 3.800422 7.344663 
Q 5.285807 6.009697 5.285807 3.715812 
Q 5.285807 1.426627 3.800422 0.091661 
Q 2.319738 -1.248005 -0.223278 -1.248005 
Q -1.412526 -1.248005 -2.597073 -0.984772 
Q -3.77692 -0.72154 -5.008473 -0.16217 
L -5.008473 -11.18034 
z
" id="m10a47c2b2c" style="stroke:#808080;"/>
    </defs>
    <g clip-path="url(#pfcc4f9a5e0)">
     <use style="fill:#808080;stroke:#808080;" x="118.403541" xlink:href="#m10a47c2b2c" y="500.968553"/>
    </g>
   </g>
   <g id="PathCollection_7">
    <defs>
     <path d="M 1.286397 -1.175541 
Q -0.676687 -1.175541 -1.826823 0.168594 
Q -2.97234 1.50811 -2.97234 3.845335 
Q -2.97234 6.168702 -1.826823 7.522075 
Q -0.676687 8.870829 1.286397 8.870829 
Q 3.249481 8.870829 4.394998 7.522075 
Q 5.540515 6.168702 5.540515 3.845335 
Q 5.540515 1.50811 4.394998 0.168594 
Q 3.249481 -1.175541 1.286397 -1.175541 
z
M 7.07403 -10.316583 
L 7.07403 -7.660646 
Q 5.974703 -8.177976 4.8569 -8.450499 
Q 3.739097 -8.72764 2.63977 -8.72764 
Q -0.247118 -8.72764 -1.771394 -6.778413 
Q -3.291052 -4.829186 -3.508146 -0.889162 
Q -2.658246 -2.145535 -1.374159 -2.815293 
Q -0.085452 -3.485051 1.457301 -3.485051 
Q 4.704473 -3.485051 6.589033 -1.512729 
Q 8.473594 0.454974 8.473594 3.845335 
Q 8.473594 7.166411 6.51051 9.175685 
Q 4.547426 11.18034 1.286397 11.18034 
Q -2.45501 11.18034 -4.43195 8.316547 
Q -6.408891 5.448135 -6.408891 0.006929 
Q -6.408891 -5.101708 -3.983905 -8.141024 
Q -1.55892 -11.18034 2.524295 -11.18034 
Q 3.623622 -11.18034 4.741425 -10.963246 
Q 5.859228 -10.746152 7.07403 -10.316583 
z
" id="meeac071462" style="stroke:#808080;"/>
    </defs>
    <g clip-path="url(#pfcc4f9a5e0)">
     <use style="fill:#808080;stroke:#808080;" x="224.193966" xlink:href="#meeac071462" y="565.805772"/>
    </g>
   </g>
   <g id="PathCollection_8">
    <defs>
     <path d="M -5.93042 -11.18034 
L 8.446356 -11.18034 
L 8.446356 -9.891222 
L 0.32827 11.18034 
L -2.829829 11.18034 
L 4.809032 -8.630858 
L -5.93042 -8.630858 
L -5.93042 -11.18034 
z
" id="m1454c0151e" style="stroke:#808080;"/>
    </defs>
    <g clip-path="url(#pfcc4f9a5e0)">
     <use style="fill:#808080;stroke:#808080;" x="331.60555" xlink:href="#m1454c0151e" y="443.14073"/>
    </g>
   </g>
   <g id="PathCollection_9">
    <defs>
     <path d="M 1.002328 0.524259 
Q -1.076232 0.524259 -2.267939 1.637443 
Q -3.455028 2.750627 -3.455028 4.695235 
Q -3.455028 6.644461 -2.267939 7.757645 
Q -1.076232 8.870829 1.002328 8.870829 
Q 3.080887 8.870829 4.277213 7.753026 
Q 5.478159 6.630604 5.478159 4.695235 
Q 5.478159 2.750627 4.286451 1.637443 
Q 3.099363 0.524259 1.002328 0.524259 
z
M -1.912275 -0.713639 
Q -3.787597 -1.175541 -4.836115 -2.459629 
Q -5.880014 -3.748335 -5.880014 -5.595944 
Q -5.880014 -8.177976 -4.041643 -9.679158 
Q -2.198654 -11.18034 1.002328 -11.18034 
Q 4.221785 -11.18034 6.055536 -9.679158 
Q 7.889288 -8.177976 7.889288 -5.595944 
Q 7.889288 -3.748335 6.84077 -2.459629 
Q 5.796871 -1.175541 3.935406 -0.713639 
Q 6.041679 -0.224023 7.214911 1.207874 
Q 8.392761 2.635151 8.392761 4.695235 
Q 8.392761 7.83155 6.480486 9.508254 
Q 4.568212 11.18034 1.002328 11.18034 
Q -2.558938 11.18034 -4.475831 9.508254 
Q -6.388106 7.83155 -6.388106 4.695235 
Q -6.388106 2.635151 -5.205636 1.207874 
Q -4.018548 -0.224023 -1.912275 -0.713639 
z
M -2.979268 -5.318802 
Q -2.979268 -3.646717 -1.93537 -2.709056 
Q -0.886852 -1.771394 1.002328 -1.771394 
Q 2.882269 -1.771394 3.940025 -2.709056 
Q 5.0024 -3.646717 5.0024 -5.318802 
Q 5.0024 -6.995507 3.940025 -7.933168 
Q 2.882269 -8.870829 1.002328 -8.870829 
Q -0.886852 -8.870829 -1.93537 -7.933168 
Q -2.979268 -6.995507 -2.979268 -5.318802 
z
" id="ma8bb938a42" style="stroke:#808080;"/>
    </defs>
    <g clip-path="url(#pfcc4f9a5e0)">
     <use style="fill:#808080;stroke:#808080;" x="326.294589" xlink:href="#ma8bb938a42" y="271.170769"/>
    </g>
   </g>
   <g id="PathCollection_10">
    <defs>
     <path d="M -5.117875 10.311964 
L -5.117875 7.656027 
Q -4.018548 8.177976 -2.896126 8.450499 
Q -1.769085 8.723021 -0.683615 8.723021 
Q 2.203273 8.723021 3.722931 6.783032 
Q 5.247208 4.843043 5.464302 0.884542 
Q 4.628259 2.127059 3.339552 2.792198 
Q 2.055464 3.457337 0.498854 3.457337 
Q -2.73446 3.457337 -4.619021 1.503491 
Q -6.503581 -0.454974 -6.503581 -3.849954 
Q -6.503581 -7.166411 -4.540497 -9.171066 
Q -2.577414 -11.18034 0.683615 -11.18034 
Q 4.425022 -11.18034 6.392725 -8.311928 
Q 8.365047 -5.448135 8.365047 0.006929 
Q 8.365047 5.101708 5.94468 8.141024 
Q 3.528932 11.18034 -0.554282 11.18034 
Q -1.653609 11.18034 -2.780651 10.963246 
Q -3.903073 10.746152 -5.117875 10.311964 
z
M 0.683615 1.175541 
Q 2.646699 1.175541 3.792216 -0.163975 
Q 4.942352 -1.50811 4.942352 -3.849954 
Q 4.942352 -6.173321 3.792216 -7.522075 
Q 2.646699 -8.870829 0.683615 -8.870829 
Q -1.279469 -8.870829 -2.424986 -7.522075 
Q -3.570503 -6.173321 -3.570503 -3.849954 
Q -3.570503 -1.50811 -2.424986 -0.163975 
Q -1.279469 1.175541 0.683615 1.175541 
z
" id="me1ebe7a601" style="stroke:#808080;"/>
    </defs>
    <g clip-path="url(#pfcc4f9a5e0)">
     <use style="fill:#808080;stroke:#808080;" x="326.294589" xlink:href="#me1ebe7a601" y="271.170769"/>
    </g>
   </g>
   <g id="PathCollection_11"/>
   <g id="PathCollection_12"/>
   <g id="PathCollection_13"/>
   <g id="PathCollection_14"/>
   <g id="PathCollection_15"/>
   <g id="matplotlib.axis_1">
    <g id="xtick_1">
     <g id="line2d_1">
      <defs>
       <path d="M 0 0 
L 0 3.5 
" id="m7ab43e12e6" style="stroke:#000000;stroke-width:0.8;"/>
      </defs>
      <g>
       <use style="stroke:#000000;stroke-width:0.8;" x="148.7173" xlink:href="#m7ab43e12e6" y="630"/>
      </g>
     </g>
     <g id="text_1">
      <!-- −200 -->
      <g transform="translate(134.983707 644.598438)scale(0.1 -0.1)">
       <defs>
        <path d="M 678 2272 
L 4684 2272 
L 4684 1741 
L 678 1741 
L 678 2272 
z
" id="DejaVuSans-2212" transform="scale(0.015625)"/>
        <path d="M 1228 531 
L 3431 531 
L 3431 0 
L 469 0 
L 469 531 
Q 828 903 1448 1529 
Q 2069 2156 2228 2338 
Q 2531 2678 2651 2914 
Q 2772 3150 2772 3378 
Q 2772 3750 2511 3984 
Q 2250 4219 1831 4219 
Q 1534 4219 1204 4116 
Q 875 4013 500 3803 
L 500 4441 
Q 881 4594 1212 4672 
Q 1544 4750 1819 4750 
Q 2544 4750 2975 4387 
Q 3406 4025 3406 3419 
Q 3406 3131 3298 2873 
Q 3191 2616 2906 2266 
Q 2828 2175 2409 1742 
Q 1991 1309 1228 531 
z
" id="DejaVuSans-32" transform="scale(0.015625)"/>
        <path d="M 2034 4250 
Q 1547 4250 1301 3770 
Q 1056 3291 1056 2328 
Q 1056 1369 1301 889 
Q 1547 409 2034 409 
Q 2525 409 2770 889 
Q 3016 1369 3016 2328 
Q 3016 3291 2770 3770 
Q 2525 4250 2034 4250 
z
M 2034 4750 
Q 2819 4750 3233 4129 
Q 3647 3509 3647 2328 
Q 3647 1150 3233 529 
Q 2819 -91 2034 -91 
Q 1250 -91 836 529 
Q 422 1150 422 2328 
Q 422 3509 836 4129 
Q 1250 4750 2034 4750 
z
" id="DejaVuSans-30" transform="scale(0.015625)"/>
       </defs>
       <use xlink:href="#DejaVuSans-2212"/>
       <use x="83.789062" xlink:href="#DejaVuSans-32"/>
       <use x="147.412109" xlink:href="#DejaVuSans-30"/>
       <use x="211.035156" xlink:href="#DejaVuSans-30"/>
      </g>
     </g>
    </g>
    <g id="xtick_2">
     <g id="line2d_2">
      <g>
       <use style="stroke:#000000;stroke-width:0.8;" x="240.316325" xlink:href="#m7ab43e12e6" y="630"/>
      </g>
     </g>
     <g id="text_2">
      <!-- −100 -->
      <g transform="translate(226.582732 644.598438)scale(0.1 -0.1)">
       <defs>
        <path d="M 794 531 
L 1825 531 
L 1825 4091 
L 703 3866 
L 703 4441 
L 1819 4666 
L 2450 4666 
L 2450 531 
L 3481 531 
L 3481 0 
L 794 0 
L 794 531 
z
" id="DejaVuSans-31" transform="scale(0.015625)"/>
       </defs>
       <use xlink:href="#DejaVuSans-2212"/>
       <use x="83.789062" xlink:href="#DejaVuSans-31"/>
       <use x="147.412109" xlink:href="#DejaVuSans-30"/>
       <use x="211.035156" xlink:href="#DejaVuSans-30"/>
      </g>
     </g>
    </g>
    <g id="xtick_3">
     <g id="line2d_3">
      <g>
       <use style="stroke:#000000;stroke-width:0.8;" x="331.91535" xlink:href="#m7ab43e12e6" y="630"/>
      </g>
     </g>
     <g id="text_3">
      <!-- 0 -->
      <g transform="translate(328.7341 644.598438)scale(0.1 -0.1)">
       <use xlink:href="#DejaVuSans-30"/>
      </g>
     </g>
    </g>
    <g id="xtick_4">
     <g id="line2d_4">
      <g>
       <use style="stroke:#000000;stroke-width:0.8;" x="423.514376" xlink:href="#m7ab43e12e6" y="630"/>
      </g>
     </g>
     <g id="text_4">
      <!-- 100 -->
      <g transform="translate(413.970626 644.598438)scale(0.1 -0.1)">
       <use xlink:href="#DejaVuSans-31"/>
       <use x="63.623047" xlink:href="#DejaVuSans-30"/>
       <use x="127.246094" xlink:href="#DejaVuSans-30"/>
      </g>
     </g>
    </g>
    <g id="xtick_5">
     <g id="line2d_5">
      <g>
       <use style="stroke:#000000;stroke-width:0.8;" x="515.113401" xlink:href="#m7ab43e12e6" y="630"/>
      </g>
     </g>
     <g id="text_5">
      <!-- 200 -->
      <g transform="translate(505.569651 644.598438)scale(0.1 -0.1)">
       <use xlink:href="#DejaVuSans-32"/>
       <use x="63.623047" xlink:href="#DejaVuSans-30"/>
       <use x="127.246094" xlink:href="#DejaVuSans-30"/>
      </g>
     </g>
    </g>
    <g id="xtick_6">
     <g id="line2d_6">
      <g>
       <use style="stroke:#000000;stroke-width:0.8;" x="606.712426" xlink:href="#m7ab43e12e6" y="630"/>
      </g>
     </g>
     <g id="text_6">
      <!-- 300 -->
      <g transform="translate(597.168676 644.598438)scale(0.1 -0.1)">
       <defs>
        <path d="M 2597 2516 
Q 3050 2419 3304 2112 
Q 3559 1806 3559 1356 
Q 3559 666 3084 287 
Q 2609 -91 1734 -91 
Q 1441 -91 1130 -33 
Q 819 25 488 141 
L 488 750 
Q 750 597 1062 519 
Q 1375 441 1716 441 
Q 2309 441 2620 675 
Q 2931 909 2931 1356 
Q 2931 1769 2642 2001 
Q 2353 2234 1838 2234 
L 1294 2234 
L 1294 2753 
L 1863 2753 
Q 2328 2753 2575 2939 
Q 2822 3125 2822 3475 
Q 2822 3834 2567 4026 
Q 2313 4219 1838 4219 
Q 1578 4219 1281 4162 
Q 984 4106 628 3988 
L 628 4550 
Q 988 4650 1302 4700 
Q 1616 4750 1894 4750 
Q 2613 4750 3031 4423 
Q 3450 4097 3450 3541 
Q 3450 3153 3228 2886 
Q 3006 2619 2597 2516 
z
" id="DejaVuSans-33" transform="scale(0.015625)"/>
       </defs>
       <use xlink:href="#DejaVuSans-33"/>
       <use x="63.623047" xlink:href="#DejaVuSans-30"/>
       <use x="127.246094" xlink:href="#DejaVuSans-30"/>
      </g>
     </g>
    </g>
   </g>
   <g id="matplotlib.axis_2">
    <g id="ytick_1">
     <g id="line2d_7">
      <defs>
       <path d="M 0 0 
L -3.5 0 
" id="m4572c8bb2a" style="stroke:#000000;stroke-width:0.8;"/>
      </defs>
      <g>
       <use style="stroke:#000000;stroke-width:0.8;" x="90" xlink:href="#m4572c8bb2a" y="572.797985"/>
      </g>
     </g>
     <g id="text_7">
      <!-- −200 -->
      <g transform="translate(55.532812 576.597204)scale(0.1 -0.1)">
       <use xlink:href="#DejaVuSans-2212"/>
       <use x="83.789062" xlink:href="#DejaVuSans-32"/>
       <use x="147.412109" xlink:href="#DejaVuSans-30"/>
       <use x="211.035156" xlink:href="#DejaVuSans-30"/>
      </g>
     </g>
    </g>
    <g id="ytick_2">
     <g id="line2d_8">
      <g>
       <use style="stroke:#000000;stroke-width:0.8;" x="90" xlink:href="#m4572c8bb2a" y="483.562806"/>
      </g>
     </g>
     <g id="text_8">
      <!-- −100 -->
      <g transform="translate(55.532812 487.362024)scale(0.1 -0.1)">
       <use xlink:href="#DejaVuSans-2212"/>
       <use x="83.789062" xlink:href="#DejaVuSans-31"/>
       <use x="147.412109" xlink:href="#DejaVuSans-30"/>
       <use x="211.035156" xlink:href="#DejaVuSans-30"/>
      </g>
     </g>
    </g>
    <g id="ytick_3">
     <g id="line2d_9">
      <g>
       <use style="stroke:#000000;stroke-width:0.8;" x="90" xlink:href="#m4572c8bb2a" y="394.327626"/>
      </g>
     </g>
     <g id="text_9">
      <!-- 0 -->
      <g transform="translate(76.6375 398.126845)scale(0.1 -0.1)">
       <use xlink:href="#DejaVuSans-30"/>
      </g>
     </g>
    </g>
    <g id="ytick_4">
     <g id="line2d_10">
      <g>
       <use style="stroke:#000000;stroke-width:0.8;" x="90" xlink:href="#m4572c8bb2a" y="305.092447"/>
      </g>
     </g>
     <g id="text_10">
      <!-- 100 -->
      <g transform="translate(63.9125 308.891666)scale(0.1 -0.1)">
       <use xlink:href="#DejaVuSans-31"/>
       <use x="63.623047" xlink:href="#DejaVuSans-30"/>
       <use x="127.246094" xlink:href="#DejaVuSans-30"/>
      </g>
     </g>
    </g>
    <g id="ytick_5">
     <g id="line2d_11">
      <g>
       <use style="stroke:#000000;stroke-width:0.8;" x="90" xlink:href="#m4572c8bb2a" y="215.857268"/>
      </g>
     </g>
     <g id="text_11">
      <!-- 200 -->
      <g transform="translate(63.9125 219.656487)scale(0.1 -0.1)">
       <use xlink:href="#DejaVuSans-32"/>
       <use x="63.623047" xlink:href="#DejaVuSans-30"/>
       <use x="127.246094" xlink:href="#DejaVuSans-30"/>
      </g>
     </g>
    </g>
    <g id="ytick_6">
     <g id="line2d_12">
      <g>
       <use style="stroke:#000000;stroke-width:0.8;" x="90" xlink:href="#m4572c8bb2a" y="126.622089"/>
      </g>
     </g>
     <g id="text_12">
      <!-- 300 -->
      <g transform="translate(63.9125 130.421307)scale(0.1 -0.1)">
       <use xlink:href="#DejaVuSans-33"/>
       <use x="63.623047" xlink:href="#DejaVuSans-30"/>
       <use x="127.246094" xlink:href="#DejaVuSans-30"/>
      </g>
     </g>
    </g>
   </g>
   <g id="line2d_13">
    <path clip-path="url(#pfcc4f9a5e0)" d="M 326.294589 271.170769 
L 326.131749 266.603179 
L 325.92797 262.036623 
L 325.679667 257.471758 
L 325.382908 252.909373 
L 325.033377 248.350397 
L 324.626349 243.795928 
L 324.156656 239.24726 
L 323.618659 234.70592 
L 323.006229 230.173721 
L 322.312729 225.65282 
L 321.531015 221.145788 
L 320.65345 216.655688 
L 319.67195 212.186168 
L 318.57805 207.741544 
L 317.363017 203.326892 
L 316.017998 198.948125 
L 314.53422 194.612044 
L 312.903229 190.326367 
L 311.11717 186.099703 
L 309.169089 181.941477 
L 307.053232 177.861796 
L 304.765323 173.871253 
L 302.302781 169.980691 
L 299.664862 166.200933 
L 296.852685 162.542516 
L 293.869168 159.015456 
L 290.71885 155.629062 
L 287.407646 152.391837 
L 283.942549 149.311458 
L 280.331318 146.394857 
L 276.582183 143.648376 
L 272.703589 141.078003 
L 268.703999 138.689665 
L 264.591762 136.489592 
L 260.375057 134.484728 
L 256.061932 132.683236 
L 251.66043 131.095093 
L 247.178865 129.732861 
L 242.626287 128.612685 
L 238.013261 127.755681 
L 233.353182 127.189903 
L 228.664531 126.953251 
L 223.974917 127.097904 
L 219.328764 127.697162 
L 214.803038 128.855676 
L 210.541719 130.720956 
L 206.82776 133.472874 
L 204.160274 137.198101 
L 203.05598 141.61266 
L 203.533653 146.142626 
L 205.183613 150.411758 
" style="fill:none;stroke:#808080;stroke-linecap:square;stroke-width:1.5;"/>
   </g>
   <g id="line2d_14">
    <path clip-path="url(#pfcc4f9a5e0)" d="M 203.05598 271.170769 
L 203.05598 126.953251 
L 326.294589 126.953251 
L 326.294589 271.170769 
L 203.05598 271.170769 
" style="fill:none;stroke:#d3d3d3;stroke-linecap:square;stroke-width:0.5;"/>
   </g>
   <g id="line2d_15">
    <path clip-path="url(#pfcc4f9a5e0)" d="M 205.183613 150.411758 
L 207.298844 154.547849 
L 209.415928 158.684056 
L 211.535169 162.820007 
L 213.657005 166.955282 
L 215.782049 171.089396 
L 217.91116 175.221765 
L 220.045546 179.351654 
L 222.186908 183.478101 
L 224.33769 187.599776 
L 226.501464 191.714772 
L 228.683606 195.8202 
L 230.89252 199.91146 
L 233.142032 203.98071 
L 235.456601 208.013333 
L 237.884487 211.978117 
L 240.54051 215.791324 
L 243.837538 219.075948 
L 247.95056 218.186592 
L 249.966546 214.033748 
L 251.272643 209.586716 
L 252.303082 205.064548 
L 253.186461 200.509536 
L 253.978757 195.937355 
L 254.70968 191.355804 
L 255.397064 186.769426 
L 256.05259 182.181109 
L 256.684466 177.592769 
L 257.298828 173.005677 
L 257.900562 168.420655 
L 258.49383 163.838173 
L 259.082478 159.258425 
L 259.670404 154.681374 
L 260.262021 150.106797 
L 260.862981 145.534348 
L 261.481635 140.963712 
L 262.132761 136.395111 
L 262.850909 131.831609 
" style="fill:none;stroke:#808080;stroke-linecap:square;stroke-width:1.5;"/>
   </g>
   <g id="line2d_16">
    <path clip-path="url(#pfcc4f9a5e0)" d="M 205.183613 219.075948 
L 205.183613 131.831609 
L 262.850909 131.831609 
L 262.850909 219.075948 
L 205.183613 219.075948 
" style="fill:none;stroke:#d3d3d3;stroke-linecap:square;stroke-width:0.5;"/>
   </g>
   <g id="line2d_17">
    <path clip-path="url(#pfcc4f9a5e0)" d="M 262.850909 131.831609 
L 263.577719 127.383568 
L 264.226686 122.922558 
L 264.7593 118.445843 
L 265.092186 113.950406 
L 264.954171 109.434611 
L 262.099833 107.201332 
L 258.991005 110.466437 
L 256.416738 114.23044 
L 254.051974 118.132463 
L 251.805334 122.100924 
L 249.636305 126.108375 
L 247.522721 130.141285 
L 245.45088 134.191987 
L 243.411598 138.255714 
L 241.398357 142.329302 
L 239.406326 146.410537 
L 237.431796 150.49781 
L 235.471842 154.589907 
L 233.5241 158.685885 
L 231.586621 162.784996 
L 229.65777 166.886628 
L 227.736151 170.990272 
L 225.820556 175.095495 
L 223.909925 179.201925 
L 222.003316 183.309231 
L 220.09988 187.417119 
L 218.198844 191.525319 
L 216.299494 195.633584 
L 214.401168 199.74168 
L 212.503238 203.849384 
L 210.605109 207.956484 
L 208.706205 212.062769 
L 206.805969 216.168032 
L 204.90385 220.272066 
" style="fill:none;stroke:#808080;stroke-linecap:square;stroke-width:1.5;"/>
   </g>
   <g id="line2d_18">
    <path clip-path="url(#pfcc4f9a5e0)" d="M 204.90385 220.272066 
L 204.90385 107.201332 
L 265.092186 107.201332 
L 265.092186 220.272066 
L 204.90385 220.272066 
" style="fill:none;stroke:#d3d3d3;stroke-linecap:square;stroke-width:0.5;"/>
   </g>
   <g id="line2d_19">
    <path clip-path="url(#pfcc4f9a5e0)" d="M 204.90385 220.272066 
L 202.999305 224.374662 
L 201.091788 228.475606 
L 199.180748 232.574678 
L 197.265622 236.671649 
L 195.345835 240.766278 
L 193.420787 244.858313 
L 191.489856 248.947485 
L 189.552386 253.033506 
L 187.607684 257.116065 
L 185.65501 261.194827 
L 183.693574 265.269426 
L 181.72252 269.33946 
L 179.740923 273.404486 
L 177.747771 277.464013 
L 175.741951 281.517492 
L 173.722238 285.564307 
L 171.687264 289.60376 
L 169.635503 293.635057 
L 167.565233 297.657288 
L 165.474502 301.669399 
L 163.361078 305.670164 
L 161.22239 309.658135 
L 159.05545 313.631593 
L 156.856748 317.588468 
L 154.622124 321.526235 
L 152.346583 325.441769 
L 150.024047 329.331137 
L 147.647006 333.189287 
L 145.206018 337.009578 
L 142.688957 340.78303 
L 140.079877 344.497092 
L 137.357198 348.133469 
L 134.490723 351.664059 
L 131.436559 355.042701 
" style="fill:none;stroke:#808080;stroke-linecap:square;stroke-width:1.5;"/>
   </g>
   <g id="line2d_20">
    <path clip-path="url(#pfcc4f9a5e0)" d="M 131.436559 355.042701 
L 131.436559 220.272066 
L 204.90385 220.272066 
L 204.90385 355.042701 
L 131.436559 355.042701 
" style="fill:none;stroke:#d3d3d3;stroke-linecap:square;stroke-width:0.5;"/>
   </g>
   <g id="line2d_21">
    <path clip-path="url(#pfcc4f9a5e0)" d="M 131.436559 355.042701 
" style="fill:none;stroke:#808080;stroke-linecap:square;stroke-width:1.5;"/>
   </g>
   <g id="line2d_22">
    <path clip-path="url(#pfcc4f9a5e0)" d="M 131.436559 355.042701 
L 131.436559 355.042701 
L 131.436559 355.042701 
L 131.436559 355.042701 
L 131.436559 355.042701 
" style="fill:none;stroke:#d3d3d3;stroke-linecap:square;stroke-width:0.5;"/>
   </g>
   <g id="line2d_23">
    <path clip-path="url(#pfcc4f9a5e0)" d="M 131.436559 355.042701 
L 128.713941 358.693321 
L 126.581148 362.70582 
L 124.794387 366.876412 
L 123.24631 371.13693 
L 121.879573 375.456429 
L 120.659584 379.818139 
L 119.563737 384.211834 
L 118.576413 388.63072 
L 117.68639 393.069971 
L 116.885374 397.525978 
L 116.167117 401.995924 
L 115.526861 406.477535 
L 114.960967 410.968914 
L 114.466665 415.468445 
L 114.041881 419.974712 
L 113.685115 424.486453 
L 113.395348 429.002519 
L 113.171983 433.52184 
L 113.014794 438.043406 
L 112.9239 442.566237 
L 112.899737 447.089371 
L 112.943051 451.61184 
L 113.054886 456.132651 
L 113.236591 460.650771 
L 113.489818 465.1651 
L 113.816542 469.674452 
L 114.219067 474.177529 
L 114.700055 478.672888 
L 115.262546 483.158911 
L 115.909991 487.633762 
L 116.646291 492.095337 
L 117.475833 496.541208 
L 118.403541 500.968553 
" style="fill:none;stroke:#808080;stroke-linecap:square;stroke-width:1.5;"/>
   </g>
   <g id="line2d_24">
    <path clip-path="url(#pfcc4f9a5e0)" d="M 112.899737 500.968553 
L 112.899737 355.042701 
L 131.436559 355.042701 
L 131.436559 500.968553 
L 112.899737 500.968553 
" style="fill:none;stroke:#d3d3d3;stroke-linecap:square;stroke-width:0.5;"/>
   </g>
   <g id="line2d_25">
    <path clip-path="url(#pfcc4f9a5e0)" d="M 118.403541 500.968553 
L 119.434928 505.374069 
L 120.576151 509.753871 
L 121.83407 514.103362 
L 123.216308 518.417081 
L 124.731302 522.688513 
L 126.388343 526.909865 
L 128.197585 531.071784 
L 130.17001 535.163044 
L 132.317311 539.170171 
L 134.651659 543.077041 
L 137.185294 546.864478 
L 139.929882 550.509913 
L 142.895569 553.987212 
L 146.089719 557.266847 
L 149.515366 560.3166 
L 153.16959 563.103 
L 157.042149 565.593578 
L 161.114865 567.759749 
L 165.362159 569.57983 
L 169.752886 571.041431 
L 174.253101 572.142563 
L 178.829093 572.891184 
L 183.44995 573.303432 
L 188.089214 573.401159 
L 192.725554 573.209419 
L 197.34266 572.754334 
L 201.928676 572.061548 
L 206.47543 571.155239 
L 210.97765 570.057593 
L 215.432259 568.788605 
L 219.837799 567.366084 
L 224.193966 565.805772 
" style="fill:none;stroke:#808080;stroke-linecap:square;stroke-width:1.5;"/>
   </g>
   <g id="line2d_26">
    <path clip-path="url(#pfcc4f9a5e0)" d="M 118.403541 573.401159 
L 118.403541 500.968553 
L 224.193966 500.968553 
L 224.193966 573.401159 
L 118.403541 573.401159 
" style="fill:none;stroke:#d3d3d3;stroke-linecap:square;stroke-width:0.5;"/>
   </g>
   <g id="line2d_27">
    <path clip-path="url(#pfcc4f9a5e0)" d="M 224.193966 565.805772 
L 228.526849 564.153915 
L 232.839479 562.453045 
L 237.129679 560.699602 
L 241.395037 558.889718 
L 245.632854 557.019209 
L 249.840081 555.083561 
L 254.01325 553.077938 
L 258.148393 550.997187 
L 262.240967 548.835862 
L 266.285765 546.588269 
L 270.276833 544.248534 
L 274.207401 541.8107 
L 278.069825 539.268859 
L 281.855566 536.617322 
L 285.555217 533.850831 
L 289.158588 530.964802 
L 292.654876 527.955594 
L 296.032922 524.820778 
L 299.281552 521.559392 
L 302.39 518.172133 
L 305.348374 514.661471 
L 308.14812 511.031649 
L 310.782441 507.288559 
L 313.246616 503.43951 
L 315.538178 499.492898 
L 317.656943 495.457831 
L 319.604893 491.343737 
L 321.385937 487.160009 
L 323.005597 482.915701 
L 324.470653 478.619304 
L 325.788783 474.278596 
L 326.968238 469.900556 
L 328.017552 465.491349 
L 328.945313 461.056338 
L 329.759978 456.600138 
L 330.469745 452.12668 
L 331.082457 447.639282 
L 331.60555 443.14073 
" style="fill:none;stroke:#808080;stroke-linecap:square;stroke-width:1.5;"/>
   </g>
   <g id="line2d_28">
    <path clip-path="url(#pfcc4f9a5e0)" d="M 224.193966 565.805772 
L 224.193966 443.14073 
L 331.60555 443.14073 
L 331.60555 565.805772 
L 224.193966 565.805772 
" style="fill:none;stroke:#d3d3d3;stroke-linecap:square;stroke-width:0.5;"/>
   </g>
   <g id="line2d_29">
    <path clip-path="url(#pfcc4f9a5e0)" d="M 331.60555 443.14073 
L 332.04602 438.633347 
L 332.410416 434.119059 
L 332.704841 429.599457 
L 332.934969 425.075847 
L 333.106067 420.549298 
L 333.223017 416.02068 
L 333.290344 411.490694 
L 333.312246 406.959907 
L 333.292617 402.428764 
L 333.235079 397.897617 
L 333.143002 393.366738 
L 333.019531 388.836328 
L 332.867608 384.306535 
L 332.689992 379.777457 
L 332.489279 375.249153 
L 332.26792 370.721649 
L 332.02824 366.194941 
L 331.772451 361.669001 
L 331.502666 357.143784 
L 331.22092 352.619223 
L 330.929175 348.095241 
L 330.62934 343.571745 
L 330.323281 339.048635 
L 330.012835 334.525802 
L 329.699822 330.003131 
L 329.38606 325.480503 
L 329.073378 320.957793 
L 328.763631 316.43488 
L 328.458718 311.911638 
L 328.160598 307.387947 
L 327.87131 302.863691 
L 327.592998 298.33876 
L 327.327936 293.813054 
L 327.078559 289.286488 
L 326.847501 284.758996 
L 326.637641 280.230538 
L 326.452156 275.701113 
L 326.294589 271.170769 
" style="fill:none;stroke:#808080;stroke-linecap:square;stroke-width:1.5;"/>
   </g>
   <g id="line2d_30">
    <path clip-path="url(#pfcc4f9a5e0)" d="M 326.294589 443.14073 
L 326.294589 271.170769 
L 333.312246 271.170769 
L 333.312246 443.14073 
L 326.294589 443.14073 
" style="fill:none;stroke:#d3d3d3;stroke-linecap:square;stroke-width:0.5;"/>
   </g>
   <g id="line2d_31">
    <path clip-path="url(#pfcc4f9a5e0)" d="M 326.294589 271.170769 
" style="fill:none;stroke:#808080;stroke-linecap:square;stroke-width:1.5;"/>
   </g>
   <g id="line2d_32">
    <path clip-path="url(#pfcc4f9a5e0)" d="M 326.294589 271.170769 
L 326.294589 271.170769 
L 326.294589 271.170769 
L 326.294589 271.170769 
L 326.294589 271.170769 
" style="fill:none;stroke:#d3d3d3;stroke-linecap:square;stroke-width:0.5;"/>
   </g>
   <g id="line2d_33">
    <path clip-path="url(#pfcc4f9a5e0)" d="M 213.382925 146.433624 
L 213.382925 146.433624 
L 213.382925 146.433624 
" style="fill:none;stroke:#000000;stroke-linecap:square;stroke-width:3;"/>
   </g>
   <g id="line2d_34">
    <path clip-path="url(#pfcc4f9a5e0)" d="M 213.382925 146.433624 
L 213.382925 146.433624 
L 213.382925 146.433624 
L 213.382925 146.433624 
L 213.382925 146.433624 
" style="fill:none;stroke:#d3d3d3;stroke-linecap:square;stroke-width:0.5;"/>
   </g>
   <g id="line2d_35">
    <path clip-path="url(#pfcc4f9a5e0)" d="M 213.382925 146.433624 
L 213.382925 146.433624 
L 213.382925 146.433624 
" style="fill:none;stroke:#000000;stroke-linecap:square;stroke-width:3;"/>
   </g>
   <g id="line2d_36">
    <path clip-path="url(#pfcc4f9a5e0)" d="M 213.382925 146.433624 
L 213.382925 146.433624 
L 213.382925 146.433624 
L 213.382925 146.433624 
L 213.382925 146.433624 
" style="fill:none;stroke:#d3d3d3;stroke-linecap:square;stroke-width:0.5;"/>
   </g>
   <g id="line2d_37">
    <path clip-path="url(#pfcc4f9a5e0)" d="M 252.243596 140.955426 
L 249.66177 146.179501 
L 247.686974 150.225433 
L 245.726546 154.283518 
L 243.77824 158.351298 
L 241.840174 162.42693 
L 239.910754 166.508992 
L 237.988609 170.596364 
L 236.072546 174.688144 
L 234.161513 178.783593 
L 232.254571 182.882095 
L 230.350875 186.983126 
L 232.20424 182.983299 
" style="fill:none;stroke:#000000;stroke-linecap:square;stroke-width:3;"/>
   </g>
   <g id="line2d_38">
    <path clip-path="url(#pfcc4f9a5e0)" d="M 230.350875 186.983126 
L 230.350875 140.955426 
L 252.243596 140.955426 
L 252.243596 186.983126 
L 230.350875 186.983126 
" style="fill:none;stroke:#d3d3d3;stroke-linecap:square;stroke-width:0.5;"/>
   </g>
   <g id="line2d_39">
    <path clip-path="url(#pfcc4f9a5e0)" d="M 232.20424 182.983299 
L 232.497366 183.545036 
L 234.645893 187.631041 
L 236.805937 191.694911 
L 238.981545 195.724524 
L 241.178059 199.698015 
L 243.401224 203.571738 
L 243.299784 203.406019 
" style="fill:none;stroke:#000000;stroke-linecap:square;stroke-width:3;"/>
   </g>
   <g id="line2d_40">
    <path clip-path="url(#pfcc4f9a5e0)" d="M 232.20424 203.571738 
L 232.20424 182.983299 
L 243.401224 182.983299 
L 243.401224 203.571738 
L 232.20424 203.571738 
" style="fill:none;stroke:#d3d3d3;stroke-linecap:square;stroke-width:0.5;"/>
   </g>
   <g id="line2d_41">
    <path clip-path="url(#pfcc4f9a5e0)" d="M 243.299784 203.406019 
L 243.32536 203.293681 
L 244.167405 198.95069 
L 244.935726 194.516437 
L 245.651378 190.030408 
L 246.328444 185.512769 
L 246.976746 180.974967 
L 247.603481 176.423926 
L 248.214208 171.863963 
L 248.813474 167.297729 
L 249.405261 162.726683 
L 249.993346 158.151311 
L 250.581675 153.571128 
L 251.174859 148.984442 
L 251.779025 144.387622 
L 252.243596 140.955426 
" style="fill:none;stroke:#000000;stroke-linecap:square;stroke-width:3;"/>
   </g>
   <g id="line2d_42">
    <path clip-path="url(#pfcc4f9a5e0)" d="M 243.299784 203.406019 
L 243.299784 140.955426 
L 252.243596 140.955426 
L 252.243596 203.406019 
L 243.299784 203.406019 
" style="fill:none;stroke:#d3d3d3;stroke-linecap:square;stroke-width:0.5;"/>
   </g>
   <g id="line2d_43">
    <path clip-path="url(#pfcc4f9a5e0)" d="M 252.243596 140.955426 
L 252.403639 139.773043 
L 252.254111 140.822133 
" style="fill:none;stroke:#000000;stroke-linecap:square;stroke-width:3;"/>
   </g>
   <g id="line2d_44">
    <path clip-path="url(#pfcc4f9a5e0)" d="M 252.243596 140.955426 
L 252.243596 139.773043 
L 252.403639 139.773043 
L 252.403639 140.955426 
L 252.243596 140.955426 
" style="fill:none;stroke:#d3d3d3;stroke-linecap:square;stroke-width:0.5;"/>
   </g>
   <g id="line2d_45">
    <path clip-path="url(#pfcc4f9a5e0)" d="M 213.382925 146.433624 
L 215.496934 150.567325 
L 217.612461 154.700492 
L 219.729709 158.832551 
L 221.628439 162.533014 
" style="fill:none;stroke:#000000;stroke-linecap:square;stroke-width:3;"/>
   </g>
   <g id="line2d_46">
    <path clip-path="url(#pfcc4f9a5e0)" d="M 213.382925 162.533014 
L 213.382925 146.433624 
L 221.628439 146.433624 
L 221.628439 162.533014 
L 213.382925 162.533014 
" style="fill:none;stroke:#d3d3d3;stroke-linecap:square;stroke-width:0.5;"/>
   </g>
   <g id="line2d_47">
    <path clip-path="url(#pfcc4f9a5e0)" d="M 234.207829 136.281 
L 231.125678 142.595642 
L 229.137045 146.712103 
L 227.165443 150.828516 
L 225.208025 154.944841 
L 223.262487 159.061 
L 221.32693 163.176891 
L 221.628439 162.533014 
" style="fill:none;stroke:#000000;stroke-linecap:square;stroke-width:3;"/>
   </g>
   <g id="line2d_48">
    <path clip-path="url(#pfcc4f9a5e0)" d="M 221.32693 163.176891 
L 221.32693 136.281 
L 234.207829 136.281 
L 234.207829 163.176891 
L 221.32693 163.176891 
" style="fill:none;stroke:#d3d3d3;stroke-linecap:square;stroke-width:0.5;"/>
   </g>
   <g id="line2d_49">
    <path clip-path="url(#pfcc4f9a5e0)" d="M 234.207829 136.281 
L 232.535319 136.077779 
L 228.552032 135.876096 
L 224.691441 135.994079 
L 221.050666 136.461595 
L 217.782966 137.293781 
L 215.121706 138.448929 
L 213.344208 139.744118 
L 212.495421 140.898643 
L 212.201432 142.113709 
L 212.418557 143.972489 
L 213.382925 146.433624 
" style="fill:none;stroke:#000000;stroke-linecap:square;stroke-width:3;"/>
   </g>
   <g id="line2d_50">
    <path clip-path="url(#pfcc4f9a5e0)" d="M 212.201432 146.433624 
L 212.201432 135.876096 
L 234.207829 135.876096 
L 234.207829 146.433624 
L 212.201432 146.433624 
" style="fill:none;stroke:#d3d3d3;stroke-linecap:square;stroke-width:0.5;"/>
   </g>
   <g id="line2d_51">
    <path clip-path="url(#pfcc4f9a5e0)" d="M 138.107691 361.157643 
L 138.107691 361.157643 
L 138.107691 361.157643 
" style="fill:none;stroke:#000000;stroke-linecap:square;stroke-width:3;"/>
   </g>
   <g id="line2d_52">
    <path clip-path="url(#pfcc4f9a5e0)" d="M 138.107691 361.157643 
L 138.107691 361.157643 
L 138.107691 361.157643 
L 138.107691 361.157643 
L 138.107691 361.157643 
" style="fill:none;stroke:#d3d3d3;stroke-linecap:square;stroke-width:0.5;"/>
   </g>
   <g id="line2d_53">
    <path clip-path="url(#pfcc4f9a5e0)" d="M 138.107691 361.157643 
L 138.107691 361.157643 
L 138.107691 361.157643 
" style="fill:none;stroke:#000000;stroke-linecap:square;stroke-width:3;"/>
   </g>
   <g id="line2d_54">
    <path clip-path="url(#pfcc4f9a5e0)" d="M 138.107691 361.157643 
L 138.107691 361.157643 
L 138.107691 361.157643 
L 138.107691 361.157643 
L 138.107691 361.157643 
" style="fill:none;stroke:#d3d3d3;stroke-linecap:square;stroke-width:0.5;"/>
   </g>
   <g id="line2d_55">
    <path clip-path="url(#pfcc4f9a5e0)" d="M 222.601811 203.733567 
L 220.855889 207.51228 
L 218.957152 211.620693 
L 217.05715 215.729353 
L 215.155332 219.838032 
L 213.251153 223.946512 
L 211.344067 228.054583 
L 209.43352 232.16204 
L 207.518952 236.268679 
L 205.599783 240.374299 
L 203.675416 244.478696 
L 201.745226 248.581662 
L 199.808556 252.682987 
L 197.864712 256.782449 
L 195.912954 260.879821 
L 193.952487 264.974861 
L 191.982455 269.067316 
L 190.001927 273.156913 
L 188.009886 277.243362 
L 186.005214 281.32635 
L 183.986673 285.405535 
L 181.952886 289.480545 
L 179.902308 293.550971 
L 177.833193 297.616361 
L 175.743559 301.67621 
L 173.631131 305.729953 
L 171.493279 309.776955 
L 169.326933 313.816493 
L 167.128471 317.84774 
L 164.893573 321.869741 
L 162.617014 325.881385 
L 160.292382 329.881366 
L 157.911665 333.868128 
L 155.464653 337.839796 
L 152.938005 341.794067 
L 150.313776 345.728052 
L 147.566934 349.63801 
L 144.660937 353.518848 
L 141.539269 357.363035 
L 138.107691 361.157643 
" style="fill:none;stroke:#000000;stroke-linecap:square;stroke-width:3;"/>
   </g>
   <g id="line2d_56">
    <path clip-path="url(#pfcc4f9a5e0)" d="M 138.107691 361.157643 
L 138.107691 203.733567 
L 222.601811 203.733567 
L 222.601811 361.157643 
L 138.107691 361.157643 
" style="fill:none;stroke:#d3d3d3;stroke-linecap:square;stroke-width:0.5;"/>
   </g>
   <g id="line2d_57">
    <path clip-path="url(#pfcc4f9a5e0)" d="M 222.601811 203.733567 
L 225.106005 208.263405 
L 227.511979 212.454927 
L 230.119817 216.712108 
L 233.234527 221.173814 
L 238.929077 226.610114 
L 255.316462 223.491011 
L 258.635616 216.915623 
L 260.167119 211.719313 
L 261.280805 206.835414 
L 262.205517 202.068381 
L 263.021789 197.358272 
L 263.767983 192.6812 
L 264.465683 188.026082 
L 265.128433 183.387252 
L 265.76545 178.761612 
L 266.383449 174.147392 
L 266.987649 169.543581 
L 267.582399 164.949662 
L 268.17161 160.365539 
L 268.759133 155.79162 
L 269.349183 151.229152 
L 269.946936 146.681073 
L 269.529646 149.764079 
" style="fill:none;stroke:#000000;stroke-linecap:square;stroke-width:3;"/>
   </g>
   <g id="line2d_58">
    <path clip-path="url(#pfcc4f9a5e0)" d="M 222.601811 226.610114 
L 222.601811 146.681073 
L 269.946936 146.681073 
L 269.946936 226.610114 
L 222.601811 226.610114 
" style="fill:none;stroke:#d3d3d3;stroke-linecap:square;stroke-width:0.5;"/>
   </g>
   <g id="line2d_59">
    <path clip-path="url(#pfcc4f9a5e0)" d="M 138.107691 361.157643 
L 136.593041 363.244338 
L 134.906334 366.427582 
L 133.351668 370.059619 
L 131.94726 373.926133 
L 130.679079 377.934886 
L 129.531373 382.038611 
L 128.491042 386.210007 
L 127.547787 390.431864 
L 126.693589 394.692577 
L 125.922199 398.983887 
L 125.228732 403.299651 
L 124.609366 407.635119 
L 124.061118 411.9865 
L 123.581691 416.350676 
L 123.169347 420.725015 
L 122.822825 425.107237 
L 122.541272 429.495318 
L 122.324195 433.887424 
L 122.171426 438.281852 
L 122.083097 442.676985 
L 122.059621 447.071254 
L 122.101681 451.463106 
L 122.210224 455.85097 
L 122.38646 460.233229 
L 122.631865 464.608185 
L 122.948184 468.974031 
L 123.337446 473.328811 
L 123.80197 477.670384 
L 124.344384 481.996378 
L 124.96764 486.304138 
L 125.675037 490.59067 
L 126.470233 494.852571 
L 127.357274 499.085945 
" style="fill:none;stroke:#000000;stroke-linecap:square;stroke-width:3;"/>
   </g>
   <g id="line2d_60">
    <path clip-path="url(#pfcc4f9a5e0)" d="M 122.059621 499.085945 
L 122.059621 361.157643 
L 138.107691 361.157643 
L 138.107691 499.085945 
L 122.059621 499.085945 
" style="fill:none;stroke:#d3d3d3;stroke-linecap:square;stroke-width:0.5;"/>
   </g>
   <g id="line2d_61">
    <path clip-path="url(#pfcc4f9a5e0)" d="M 127.357274 499.085945 
L 128.340607 503.286315 
L 129.425095 507.448507 
L 130.616027 511.56652 
L 131.919115 515.63338 
L 133.340466 519.640968 
L 134.886541 523.579826 
L 136.564062 527.43896 
L 138.379878 531.205627 
L 140.340762 534.865157 
L 142.453129 538.400823 
L 144.722677 541.793835 
L 147.153965 545.023513 
L 149.749955 548.067737 
L 152.511628 550.903723 
L 155.437744 553.509137 
L 158.524839 555.863417 
L 161.767437 557.949077 
L 165.158318 559.752714 
L 168.688616 561.265529 
L 172.347635 562.483425 
L 176.122557 563.406869 
L 179.998393 564.040672 
L 183.958444 564.393674 
L 187.98522 564.478216 
L 192.061542 564.309378 
L 196.171496 563.904056 
L 200.30108 563.28003 
L 204.438487 562.455157 
L 208.574116 561.446756 
L 212.700399 560.271192 
L 216.811538 558.943643 
L 220.903222 557.477995 
" style="fill:none;stroke:#000000;stroke-linecap:square;stroke-width:3;"/>
   </g>
   <g id="line2d_62">
    <path clip-path="url(#pfcc4f9a5e0)" d="M 127.357274 564.478216 
L 127.357274 499.085945 
L 220.903222 499.085945 
L 220.903222 564.478216 
L 127.357274 564.478216 
" style="fill:none;stroke:#d3d3d3;stroke-linecap:square;stroke-width:0.5;"/>
   </g>
   <g id="line2d_63">
    <path clip-path="url(#pfcc4f9a5e0)" d="M 220.903222 557.477995 
L 225.140319 555.862662 
L 229.350255 554.202303 
L 233.530308 552.493888 
L 237.677489 550.734162 
L 241.788504 548.919635 
L 245.85969 547.046594 
L 249.88697 545.111106 
L 253.86579 543.109038 
L 257.791072 541.03609 
L 261.657161 538.887835 
L 265.4578 536.659777 
L 269.186111 534.347433 
L 272.834616 531.946421 
L 276.395296 529.452576 
L 279.859691 526.862066 
L 283.219067 524.171529 
L 286.464624 521.378193 
L 289.587767 518.479998 
L 292.580393 515.475689 
L 295.435193 512.364887 
L 298.145933 509.148134 
L 300.707674 505.826904 
L 303.116934 502.403601 
L 305.371767 498.881516 
L 307.471759 495.264775 
L 309.417971 491.55824 
L 311.212817 487.767389 
L 312.859916 483.898165 
L 314.36391 479.956805 
L 315.730274 475.949661 
L 316.965119 471.883038 
L 318.075005 467.763045 
L 319.066766 463.595485 
L 319.947357 459.38577 
L 320.723724 455.13887 
L 321.402699 450.859295 
L 321.990918 446.55109 
L 322.494766 442.217851 
L 322.920335 437.862753 
" style="fill:none;stroke:#000000;stroke-linecap:square;stroke-width:3;"/>
   </g>
   <g id="line2d_64">
    <path clip-path="url(#pfcc4f9a5e0)" d="M 220.903222 557.477995 
L 220.903222 437.862753 
L 322.920335 437.862753 
L 322.920335 557.477995 
L 220.903222 557.477995 
" style="fill:none;stroke:#d3d3d3;stroke-linecap:square;stroke-width:0.5;"/>
   </g>
   <g id="line2d_65">
    <path clip-path="url(#pfcc4f9a5e0)" d="M 322.920335 437.862753 
L 323.273405 433.488583 
L 323.559426 429.097772 
L 323.783526 424.692435 
L 323.950512 420.274406 
L 324.064884 415.845267 
L 324.13085 411.406383 
L 324.152343 406.958926 
L 324.133039 402.503901 
L 324.076378 398.042164 
L 323.985581 393.574445 
L 323.863669 389.10136 
L 323.713483 384.623428 
L 323.537697 380.141079 
L 323.338839 375.654669 
L 323.119304 371.164485 
L 322.881369 366.670753 
L 322.627207 362.173647 
L 322.358904 357.673291 
L 322.078467 353.169766 
L 321.787839 348.66311 
L 321.488912 344.153327 
L 321.183541 339.640384 
L 320.873552 335.124215 
L 320.560759 330.604725 
L 320.246976 326.081784 
L 319.934028 321.555234 
L 319.623773 317.024885 
L 319.31811 312.490515 
L 319.019004 307.951869 
L 318.728505 303.408653 
L 318.448767 298.860536 
L 318.182085 294.30714 
L 317.930917 289.748037 
L 317.697932 285.18274 
L 317.486054 280.610693 
L 317.298524 276.031259 
L 317.138972 271.443705 
L 317.138972 271.443705 
" style="fill:none;stroke:#000000;stroke-linecap:square;stroke-width:3;"/>
   </g>
   <g id="line2d_66">
    <path clip-path="url(#pfcc4f9a5e0)" d="M 317.138972 437.862753 
L 317.138972 271.443705 
L 324.152343 271.443705 
L 324.152343 437.862753 
L 317.138972 437.862753 
" style="fill:none;stroke:#d3d3d3;stroke-linecap:square;stroke-width:0.5;"/>
   </g>
   <g id="line2d_67">
    <path clip-path="url(#pfcc4f9a5e0)" d="M 317.138972 271.443705 
L 317.138972 271.443705 
L 316.978798 266.950745 
L 316.778644 262.465313 
L 316.535148 257.988709 
L 316.244647 253.52242 
L 315.903152 249.068136 
L 315.506332 244.627772 
L 315.049497 240.203493 
L 314.527579 235.797745 
L 313.935132 231.41329 
L 313.266331 227.053252 
L 312.514983 222.721149 
L 311.674563 218.420944 
L 310.73826 214.157072 
L 309.699046 209.934473 
L 308.549778 205.7586 
L 307.28332 201.635418 
L 305.892686 197.571367 
L 304.371215 193.573306 
L 302.712752 189.648438 
L 300.911835 185.804197 
L 298.963888 182.048145 
L 296.865379 178.387847 
L 294.613971 174.830766 
L 292.208619 171.384179 
L 289.649639 168.055104 
L 286.938716 164.85027 
L 284.078871 161.7761 
L 281.074381 158.838729 
L 277.930662 156.044047 
L 274.654134 153.39777 
L 271.252077 150.905549 
L 269.529646 149.764079 
" style="fill:none;stroke:#000000;stroke-linecap:square;stroke-width:3;"/>
   </g>
   <g id="line2d_68">
    <path clip-path="url(#pfcc4f9a5e0)" d="M 269.529646 271.443705 
L 269.529646 149.764079 
L 317.138972 149.764079 
L 317.138972 271.443705 
L 269.529646 271.443705 
" style="fill:none;stroke:#d3d3d3;stroke-linecap:square;stroke-width:0.5;"/>
   </g>
   <g id="line2d_69">
    <path clip-path="url(#pfcc4f9a5e0)" d="M 220.903222 557.477995 
L 220.903222 557.477995 
L 220.903222 557.477995 
" style="fill:none;stroke:#000000;stroke-linecap:square;stroke-width:3;"/>
   </g>
   <g id="line2d_70">
    <path clip-path="url(#pfcc4f9a5e0)" d="M 220.903222 557.477995 
L 220.903222 557.477995 
L 220.903222 557.477995 
L 220.903222 557.477995 
L 220.903222 557.477995 
" style="fill:none;stroke:#d3d3d3;stroke-linecap:square;stroke-width:0.5;"/>
   </g>
   <g id="line2d_71">
    <path clip-path="url(#pfcc4f9a5e0)" d="M 220.903222 557.477995 
L 220.903222 557.477995 
L 220.903222 557.477995 
" style="fill:none;stroke:#000000;stroke-linecap:square;stroke-width:3;"/>
   </g>
   <g id="line2d_72">
    <path clip-path="url(#pfcc4f9a5e0)" d="M 220.903222 557.477995 
L 220.903222 557.477995 
L 220.903222 557.477995 
L 220.903222 557.477995 
L 220.903222 557.477995 
" style="fill:none;stroke:#d3d3d3;stroke-linecap:square;stroke-width:0.5;"/>
   </g>
   <g id="line2d_73">
    <path clip-path="url(#pfcc4f9a5e0)" d="M 196.984301 154.389893 
L 196.984301 154.389893 
L 196.984301 154.389893 
" style="fill:none;stroke:#000000;stroke-linecap:square;stroke-width:3;"/>
   </g>
   <g id="line2d_74">
    <path clip-path="url(#pfcc4f9a5e0)" d="M 196.984301 154.389893 
L 196.984301 154.389893 
L 196.984301 154.389893 
L 196.984301 154.389893 
L 196.984301 154.389893 
" style="fill:none;stroke:#d3d3d3;stroke-linecap:square;stroke-width:0.5;"/>
   </g>
   <g id="line2d_75">
    <path clip-path="url(#pfcc4f9a5e0)" d="M 196.984301 154.389893 
L 196.984301 154.389893 
L 196.984301 154.389893 
" style="fill:none;stroke:#000000;stroke-linecap:square;stroke-width:3;"/>
   </g>
   <g id="line2d_76">
    <path clip-path="url(#pfcc4f9a5e0)" d="M 196.984301 154.389893 
L 196.984301 154.389893 
L 196.984301 154.389893 
L 196.984301 154.389893 
L 196.984301 154.389893 
" style="fill:none;stroke:#d3d3d3;stroke-linecap:square;stroke-width:0.5;"/>
   </g>
   <g id="line2d_77">
    <path clip-path="url(#pfcc4f9a5e0)" d="M 271.886906 133.294385 
L 272.634347 128.719778 
L 272.37863 130.477903 
" style="fill:none;stroke:#000000;stroke-linecap:square;stroke-width:3;"/>
   </g>
   <g id="line2d_78">
    <path clip-path="url(#pfcc4f9a5e0)" d="M 271.886906 133.294385 
L 271.886906 128.719778 
L 272.634347 128.719778 
L 272.634347 133.294385 
L 271.886906 133.294385 
" style="fill:none;stroke:#d3d3d3;stroke-linecap:square;stroke-width:0.5;"/>
   </g>
   <g id="line2d_79">
    <path clip-path="url(#pfcc4f9a5e0)" d="M 271.886906 133.294385 
L 271.886906 133.294385 
L 271.886906 133.294385 
" style="fill:none;stroke:#000000;stroke-linecap:square;stroke-width:3;"/>
   </g>
   <g id="line2d_80">
    <path clip-path="url(#pfcc4f9a5e0)" d="M 271.886906 133.294385 
L 271.886906 133.294385 
L 271.886906 133.294385 
L 271.886906 133.294385 
L 271.886906 133.294385 
" style="fill:none;stroke:#d3d3d3;stroke-linecap:square;stroke-width:0.5;"/>
   </g>
   <g id="line2d_81">
    <path clip-path="url(#pfcc4f9a5e0)" d="M 271.886906 133.294385 
L 271.886906 133.294385 
L 271.886906 133.294385 
" style="fill:none;stroke:#000000;stroke-linecap:square;stroke-width:3;"/>
   </g>
   <g id="line2d_82">
    <path clip-path="url(#pfcc4f9a5e0)" d="M 271.886906 133.294385 
L 271.886906 133.294385 
L 271.886906 133.294385 
L 271.886906 133.294385 
L 271.886906 133.294385 
" style="fill:none;stroke:#d3d3d3;stroke-linecap:square;stroke-width:0.5;"/>
   </g>
   <g id="line2d_83">
    <path clip-path="url(#pfcc4f9a5e0)" d="M 124.765428 348.927759 
L 124.765428 348.927759 
L 124.765428 348.927759 
" style="fill:none;stroke:#000000;stroke-linecap:square;stroke-width:3;"/>
   </g>
   <g id="line2d_84">
    <path clip-path="url(#pfcc4f9a5e0)" d="M 124.765428 348.927759 
L 124.765428 348.927759 
L 124.765428 348.927759 
L 124.765428 348.927759 
L 124.765428 348.927759 
" style="fill:none;stroke:#d3d3d3;stroke-linecap:square;stroke-width:0.5;"/>
   </g>
   <g id="line2d_85">
    <path clip-path="url(#pfcc4f9a5e0)" d="M 124.765428 348.927759 
L 124.765428 348.927759 
L 124.765428 348.927759 
" style="fill:none;stroke:#000000;stroke-linecap:square;stroke-width:3;"/>
   </g>
   <g id="line2d_86">
    <path clip-path="url(#pfcc4f9a5e0)" d="M 124.765428 348.927759 
L 124.765428 348.927759 
L 124.765428 348.927759 
L 124.765428 348.927759 
L 124.765428 348.927759 
" style="fill:none;stroke:#d3d3d3;stroke-linecap:square;stroke-width:0.5;"/>
   </g>
   <g id="line2d_87">
    <path clip-path="url(#pfcc4f9a5e0)" d="M 211.897635 183.429189 
L 209.847498 187.8596 
L 207.947168 191.969986 
L 206.048416 196.079003 
L 204.150588 200.186489 
L 202.253065 204.292275 
L 200.35526 208.396184 
L 198.456605 212.498032 
L 196.556547 216.59762 
L 194.654544 220.694741 
L 192.750056 224.789173 
L 190.842543 228.880677 
L 188.931461 232.968999 
L 187.016253 237.05386 
L 185.096349 241.134964 
L 183.171157 245.211983 
L 181.240061 249.284562 
L 179.302414 253.352309 
L 177.357534 257.414793 
L 175.404693 261.471537 
L 173.443114 265.522008 
L 171.471961 269.565611 
L 169.490328 273.601677 
L 167.49723 277.62945 
L 165.491589 281.648068 
L 163.47222 285.656548 
L 161.437812 289.653753 
L 159.386906 293.638366 
L 157.317872 297.608846 
L 155.228877 301.563372 
L 153.117848 305.499777 
L 150.982428 309.415446 
L 148.819922 313.307194 
L 146.627233 317.171084 
L 144.400784 321.002172 
L 142.136428 324.794146 
L 139.82936 328.538779 
L 137.474031 332.225088 
L 135.064138 335.838007 
L 132.59282 339.356175 
L 130.053459 342.74809 
L 127.442178 345.965083 
L 124.765428 348.927759 
" style="fill:none;stroke:#000000;stroke-linecap:square;stroke-width:3;"/>
   </g>
   <g id="line2d_88">
    <path clip-path="url(#pfcc4f9a5e0)" d="M 124.765428 348.927759 
L 124.765428 183.429189 
L 211.897635 183.429189 
L 211.897635 348.927759 
L 124.765428 348.927759 
" style="fill:none;stroke:#d3d3d3;stroke-linecap:square;stroke-width:0.5;"/>
   </g>
   <g id="line2d_89">
    <path clip-path="url(#pfcc4f9a5e0)" d="M 227.48471 574.13355 
L 231.913379 572.445168 
L 236.328703 570.703788 
L 240.72905 568.905316 
L 245.112584 567.045275 
L 249.477204 565.118782 
L 253.820473 563.120528 
L 258.139529 561.044771 
L 262.430996 558.885336 
L 266.690863 556.635633 
L 270.914369 554.288703 
L 275.095867 551.837291 
L 279.228692 549.273967 
L 283.305034 546.591296 
L 287.315836 543.782067 
L 291.250742 540.839595 
L 295.098109 537.758075 
L 298.845128 534.532994 
L 302.478077 531.161557 
L 305.982711 527.643094 
L 309.344807 523.979378 
L 312.550815 520.174809 
L 315.588566 516.236394 
L 318.447948 512.173518 
L 321.121465 507.997504 
L 323.604597 503.721022 
L 325.895916 499.357423 
L 327.996969 494.920086 
L 329.911958 490.421852 
L 331.647285 485.874597 
L 333.211032 481.288948 
L 334.612448 476.674154 
L 335.861471 472.038067 
L 336.968338 467.387213 
L 337.943268 462.726907 
L 338.796232 458.061407 
L 339.536791 453.394064 
L 340.173996 448.727474 
L 340.716334 444.06361 
L 341.171705 439.403941 
" style="fill:none;stroke:#000000;stroke-linecap:square;stroke-width:3;"/>
   </g>
   <g id="line2d_90">
    <path clip-path="url(#pfcc4f9a5e0)" d="M 227.48471 574.13355 
L 227.48471 439.403941 
L 341.171705 439.403941 
L 341.171705 574.13355 
L 227.48471 574.13355 
" style="fill:none;stroke:#d3d3d3;stroke-linecap:square;stroke-width:0.5;"/>
   </g>
   <g id="line2d_91">
    <path clip-path="url(#pfcc4f9a5e0)" d="M 341.171705 439.403941 
L 341.547427 434.749536 
L 341.850256 430.101142 
L 342.086413 425.459258 
L 342.261623 420.82419 
L 342.38115 416.196092 
L 342.449838 411.575006 
L 342.472148 406.960887 
L 342.452195 402.353627 
L 342.393779 397.753071 
L 342.300422 393.159031 
L 342.175392 388.571297 
L 342.021733 383.989643 
L 341.842286 379.413835 
L 341.639718 374.843637 
L 341.416537 370.278813 
L 341.175112 365.719128 
L 340.917694 361.164356 
L 340.646428 356.614276 
L 340.363373 352.068681 
L 340.070511 347.527371 
L 339.769768 342.990163 
L 339.463021 338.456887 
L 339.152118 333.927389 
L 338.838885 329.401538 
L 338.525145 324.879222 
L 338.212728 320.360353 
L 337.90349 315.844874 
L 337.599327 311.332761 
L 337.302192 306.824026 
L 337.014115 302.31873 
L 336.737228 297.816984 
L 336.473786 293.318968 
L 336.2262 288.824938 
L 335.99707 284.335251 
L 335.789228 279.850384 
L 335.605787 275.370968 
L 335.450206 270.897832 
L 335.450206 270.897832 
" style="fill:none;stroke:#000000;stroke-linecap:square;stroke-width:3;"/>
   </g>
   <g id="line2d_92">
    <path clip-path="url(#pfcc4f9a5e0)" d="M 335.450206 439.403941 
L 335.450206 270.897832 
L 342.472148 270.897832 
L 342.472148 439.403941 
L 335.450206 439.403941 
" style="fill:none;stroke:#d3d3d3;stroke-linecap:square;stroke-width:0.5;"/>
   </g>
   <g id="line2d_93">
    <path clip-path="url(#pfcc4f9a5e0)" d="M 242.782817 119.561681 
L 239.448077 118.942319 
L 234.171046 118.302026 
L 228.777031 118.030406 
L 223.258393 118.20173 
L 217.606861 118.932729 
L 211.823111 120.417571 
L 205.961732 122.992983 
L 200.311312 127.201631 
L 195.825126 133.497558 
L 193.910528 141.111611 
L 194.64875 148.312762 
L 196.984301 154.389893 
" style="fill:none;stroke:#000000;stroke-linecap:square;stroke-width:3;"/>
   </g>
   <g id="line2d_94">
    <path clip-path="url(#pfcc4f9a5e0)" d="M 193.910528 154.389893 
L 193.910528 118.030406 
L 242.782817 118.030406 
L 242.782817 154.389893 
L 193.910528 154.389893 
" style="fill:none;stroke:#d3d3d3;stroke-linecap:square;stroke-width:0.5;"/>
   </g>
   <g id="line2d_95">
    <path clip-path="url(#pfcc4f9a5e0)" d="M 196.984301 154.389893 
L 199.100754 158.528372 
L 201.219394 162.667621 
L 203.34063 166.807464 
L 205.465037 170.94775 
L 207.593425 175.088368 
L 209.726928 179.22926 
L 211.867152 183.370447 
L 211.897635 183.429189 
" style="fill:none;stroke:#000000;stroke-linecap:square;stroke-width:3;"/>
   </g>
   <g id="line2d_96">
    <path clip-path="url(#pfcc4f9a5e0)" d="M 196.984301 183.429189 
L 196.984301 154.389893 
L 211.897635 154.389893 
L 211.897635 183.429189 
L 196.984301 183.429189 
" style="fill:none;stroke:#d3d3d3;stroke-linecap:square;stroke-width:0.5;"/>
   </g>
   <g id="line2d_97">
    <path clip-path="url(#pfcc4f9a5e0)" d="M 335.450206 270.897832 
L 335.450206 270.897832 
L 335.284701 266.255612 
L 335.077296 261.607932 
L 334.824186 256.954808 
L 334.521169 252.296326 
L 334.163602 247.632657 
L 333.746366 242.964084 
L 333.263815 238.291026 
L 332.709739 233.614095 
L 332.077326 228.934152 
L 331.359128 224.252389 
L 330.547046 219.570426 
L 329.632337 214.890432 
L 328.605641 210.215264 
L 327.457055 205.548615 
L 326.176256 200.895184 
L 324.752676 196.260831 
L 323.175753 191.652721 
L 321.435242 187.079428 
L 319.521589 182.550969 
L 317.426343 178.078757 
L 315.142576 173.675447 
L 312.665266 169.354659 
L 309.991592 165.130615 
L 307.121104 161.017686 
L 304.055731 157.029928 
L 300.799619 153.180642 
L 297.358828 149.482024 
L 293.74091 145.944944 
L 289.954435 142.578869 
L 286.008502 139.391944 
L 281.912289 136.391204 
L 277.674663 133.5829 
L 273.303868 130.972907 
L 272.37863 130.477903 
" style="fill:none;stroke:#000000;stroke-linecap:square;stroke-width:3;"/>
   </g>
   <g id="line2d_98">
    <path clip-path="url(#pfcc4f9a5e0)" d="M 272.37863 270.897832 
L 272.37863 130.477903 
L 335.450206 130.477903 
L 335.450206 270.897832 
L 272.37863 270.897832 
" style="fill:none;stroke:#d3d3d3;stroke-linecap:square;stroke-width:0.5;"/>
   </g>
   <g id="line2d_99">
    <path clip-path="url(#pfcc4f9a5e0)" d="M 124.765428 348.927759 
L 120.834841 354.142304 
L 118.255961 358.984059 
L 116.237106 363.693204 
L 114.54536 368.347728 
L 113.080067 372.977971 
L 111.787795 377.597666 
L 110.636431 382.213662 
L 109.605039 386.829577 
L 108.679191 391.447365 
L 107.848548 396.068068 
L 107.105502 400.692198 
L 106.444357 405.319951 
L 105.860816 409.951329 
L 105.351639 414.586213 
L 104.914415 419.224409 
L 104.547404 423.86567 
L 104.249424 428.50972 
L 104.019771 433.156256 
L 103.858163 437.804959 
L 103.764703 442.455489 
L 103.739854 447.107488 
L 103.784421 451.760574 
L 103.899548 456.414333 
L 104.086721 461.068313 
L 104.347772 465.722015 
L 104.6849 470.374873 
L 105.100689 475.026246 
L 105.598141 479.675392 
L 106.180708 484.321445 
L 106.852342 488.963386 
L 107.617545 493.600004 
L 108.481432 498.229845 
L 109.449807 502.85116 
" style="fill:none;stroke:#000000;stroke-linecap:square;stroke-width:3;"/>
   </g>
   <g id="line2d_100">
    <path clip-path="url(#pfcc4f9a5e0)" d="M 103.739854 502.85116 
L 103.739854 348.927759 
L 124.765428 348.927759 
L 124.765428 502.85116 
L 103.739854 502.85116 
" style="fill:none;stroke:#d3d3d3;stroke-linecap:square;stroke-width:0.5;"/>
   </g>
   <g id="line2d_101">
    <path clip-path="url(#pfcc4f9a5e0)" d="M 109.449807 502.85116 
L 110.529249 507.461823 
L 111.727207 512.059235 
L 113.052113 516.640204 
L 114.513501 521.200781 
L 116.122138 525.736059 
L 117.890145 530.239903 
L 119.831108 534.704609 
L 121.960141 539.120462 
L 124.293859 543.475185 
L 126.850189 547.753259 
L 129.64791 551.935122 
L 132.705799 555.996312 
L 136.041183 559.906687 
L 139.667809 563.629972 
L 143.592988 567.124063 
L 147.814341 570.342584 
L 152.316862 573.238079 
L 157.071412 575.766785 
L 162.035703 577.894131 
L 167.158138 579.599437 
L 172.383645 580.878258 
L 177.659792 581.741697 
L 182.941456 582.213189 
L 188.193208 582.324102 
L 193.389566 582.109459 
L 198.513824 581.604613 
L 203.556272 580.843067 
L 208.512374 579.85532 
L 213.381184 578.66843 
L 218.16412 577.306019 
L 222.864059 575.788525 
L 227.48471 574.13355 
" style="fill:none;stroke:#000000;stroke-linecap:square;stroke-width:3;"/>
   </g>
   <g id="line2d_102">
    <path clip-path="url(#pfcc4f9a5e0)" d="M 109.449807 582.324102 
L 109.449807 502.85116 
L 227.48471 502.85116 
L 227.48471 582.324102 
L 109.449807 582.324102 
" style="fill:none;stroke:#d3d3d3;stroke-linecap:square;stroke-width:0.5;"/>
   </g>
   <g id="line2d_103">
    <path clip-path="url(#pfcc4f9a5e0)" d="M 272.37863 130.477903 
L 273.309352 124.078937 
L 273.875138 119.320071 
L 274.245322 114.293334 
L 274.022797 108.178003 
L 257.00537 99.785277 
L 251.607305 105.185555 
L 248.627284 109.535251 
L 246.08577 113.727706 
L 243.738011 117.874438 
L 241.502855 122.003931 
L 242.782817 119.561681 
" style="fill:none;stroke:#000000;stroke-linecap:square;stroke-width:3;"/>
   </g>
   <g id="line2d_104">
    <path clip-path="url(#pfcc4f9a5e0)" d="M 241.502855 130.477903 
L 241.502855 99.785277 
L 274.245322 99.785277 
L 274.245322 130.477903 
L 241.502855 130.477903 
" style="fill:none;stroke:#d3d3d3;stroke-linecap:square;stroke-width:0.5;"/>
   </g>
   <g id="line2d_105">
    <path clip-path="url(#pfcc4f9a5e0)" d="M 227.48471 574.13355 
L 227.48471 574.13355 
L 227.48471 574.13355 
" style="fill:none;stroke:#000000;stroke-linecap:square;stroke-width:3;"/>
   </g>
   <g id="line2d_106">
    <path clip-path="url(#pfcc4f9a5e0)" d="M 227.48471 574.13355 
L 227.48471 574.13355 
L 227.48471 574.13355 
L 227.48471 574.13355 
L 227.48471 574.13355 
" style="fill:none;stroke:#d3d3d3;stroke-linecap:square;stroke-width:0.5;"/>
   </g>
   <g id="line2d_107">
    <path clip-path="url(#pfcc4f9a5e0)" d="M 227.48471 574.13355 
L 227.48471 574.13355 
L 227.48471 574.13355 
" style="fill:none;stroke:#000000;stroke-linecap:square;stroke-width:3;"/>
   </g>
   <g id="line2d_108">
    <path clip-path="url(#pfcc4f9a5e0)" d="M 227.48471 574.13355 
L 227.48471 574.13355 
L 227.48471 574.13355 
L 227.48471 574.13355 
L 227.48471 574.13355 
" style="fill:none;stroke:#d3d3d3;stroke-linecap:square;stroke-width:0.5;"/>
   </g>
   <g id="line2d_109">
    <path clip-path="url(#pfcc4f9a5e0)" d="M 205.183613 137.026481 
L 206.940626 137.136374 
L 208.66879 137.464249 
L 210.339727 138.004721 
L 211.926 138.748916 
L 213.401564 139.684615 
L 214.742189 140.796453 
L 215.925863 142.066175 
L 216.933149 143.47293 
L 217.747509 144.993621 
L 218.355569 146.603278 
L 218.747346 148.27547 
L 218.916407 149.982739 
L 218.859976 151.697053 
L 218.57898 153.390263 
L 218.078032 155.034565 
L 217.365358 156.602961 
L 216.45266 158.069698 
L 215.354924 159.410692 
L 214.090176 160.603923 
L 212.679183 161.6298 
L 211.145112 162.471476 
L 209.513154 163.115132 
L 207.810105 163.550199 
L 206.063928 163.769534 
L 204.303297 163.769534 
L 202.557121 163.550199 
L 200.854072 163.115132 
L 199.222114 162.471476 
L 197.688043 161.6298 
L 196.27705 160.603923 
L 195.012301 159.410692 
L 193.914566 158.069698 
L 193.001868 156.602961 
L 192.289194 155.034565 
L 191.788246 153.390263 
L 191.507249 151.697053 
L 191.450818 149.982739 
L 191.61988 148.27547 
L 192.011657 146.603278 
L 192.619717 144.993621 
L 193.434076 143.47293 
L 194.441363 142.066175 
L 195.625036 140.796453 
L 196.965662 139.684615 
L 198.441226 138.748916 
L 200.027499 138.004721 
L 201.698436 137.464249 
L 203.426599 137.136374 
L 205.183613 137.026481 
" style="fill:none;stroke:#808080;stroke-linecap:square;stroke-width:1.5;"/>
   </g>
   <g id="line2d_110">
    <path clip-path="url(#pfcc4f9a5e0)" d="M 262.850909 118.446332 
L 264.607923 118.556225 
L 266.336086 118.884099 
L 268.007023 119.424571 
L 269.593297 120.168767 
L 271.06886 121.104466 
L 272.409486 122.216304 
L 273.59316 123.486025 
L 274.600446 124.892781 
L 275.414805 126.413472 
L 276.022865 128.023128 
L 276.414643 129.69532 
L 276.583704 131.40259 
L 276.527273 133.116904 
L 276.246276 134.810113 
L 275.745328 136.454416 
L 275.032654 138.022812 
L 274.119956 139.489549 
L 273.022221 140.830542 
L 271.757473 142.023774 
L 270.346479 143.04965 
L 268.812408 143.891327 
L 267.18045 144.534983 
L 265.477401 144.97005 
L 263.731225 145.189384 
L 261.970594 145.189384 
L 260.224418 144.97005 
L 258.521368 144.534983 
L 256.88941 143.891327 
L 255.35534 143.04965 
L 253.944346 142.023774 
L 252.679598 140.830542 
L 251.581862 139.489549 
L 250.669164 138.022812 
L 249.95649 136.454416 
L 249.455542 134.810113 
L 249.174546 133.116904 
L 249.118115 131.40259 
L 249.287176 129.69532 
L 249.678953 128.023128 
L 250.287014 126.413472 
L 251.101373 124.892781 
L 252.108659 123.486025 
L 253.292333 122.216304 
L 254.632958 121.104466 
L 256.108522 120.168767 
L 257.694796 119.424571 
L 259.365732 118.884099 
L 261.093896 118.556225 
L 262.850909 118.446332 
" style="fill:none;stroke:#808080;stroke-linecap:square;stroke-width:1.5;"/>
   </g>
   <g id="line2d_111">
    <path clip-path="url(#pfcc4f9a5e0)" d="M 204.90385 206.886789 
L 206.660864 206.996682 
L 208.389027 207.324557 
L 210.059964 207.865029 
L 211.646238 208.609224 
L 213.121801 209.544923 
L 214.462427 210.656761 
L 215.6461 211.926483 
L 216.653387 213.333238 
L 217.467746 214.853929 
L 218.075806 216.463586 
L 218.467584 218.135777 
L 218.636645 219.843047 
L 218.580214 221.557361 
L 218.299217 223.25057 
L 217.798269 224.894873 
L 217.085595 226.463269 
L 216.172897 227.930006 
L 215.075162 229.271 
L 213.810414 230.464231 
L 212.39942 231.490107 
L 210.865349 232.331784 
L 209.233391 232.97544 
L 207.530342 233.410507 
L 205.784166 233.629842 
L 204.023535 233.629842 
L 202.277359 233.410507 
L 200.574309 232.97544 
L 198.942351 232.331784 
L 197.40828 231.490107 
L 195.997287 230.464231 
L 194.732539 229.271 
L 193.634803 227.930006 
L 192.722105 226.463269 
L 192.009431 224.894873 
L 191.508483 223.25057 
L 191.227487 221.557361 
L 191.171056 219.843047 
L 191.340117 218.135777 
L 191.731894 216.463586 
L 192.339954 214.853929 
L 193.154314 213.333238 
L 194.1616 211.926483 
L 195.345274 210.656761 
L 196.685899 209.544923 
L 198.161463 208.609224 
L 199.747736 207.865029 
L 201.418673 207.324557 
L 203.146837 206.996682 
L 204.90385 206.886789 
" style="fill:none;stroke:#808080;stroke-linecap:square;stroke-width:1.5;"/>
   </g>
   <g id="line2d_112">
    <path clip-path="url(#pfcc4f9a5e0)" d="M 131.436559 341.657424 
L 133.193573 341.767317 
L 134.921736 342.095191 
L 136.592673 342.635664 
L 138.178947 343.379859 
L 139.65451 344.315558 
L 140.995136 345.427396 
L 142.178809 346.697117 
L 143.186096 348.103873 
L 144.000455 349.624564 
L 144.608515 351.234221 
L 145.000293 352.906412 
L 145.169354 354.613682 
L 145.112923 356.327996 
L 144.831926 358.021205 
L 144.330978 359.665508 
L 143.618304 361.233904 
L 142.705606 362.700641 
L 141.607871 364.041635 
L 140.343123 365.234866 
L 138.932129 366.260742 
L 137.398058 367.102419 
L 135.7661 367.746075 
L 134.063051 368.181142 
L 132.316875 368.400476 
L 130.556244 368.400476 
L 128.810068 368.181142 
L 127.107018 367.746075 
L 125.47506 367.102419 
L 123.940989 366.260742 
L 122.529996 365.234866 
L 121.265248 364.041635 
L 120.167512 362.700641 
L 119.254814 361.233904 
L 118.54214 359.665508 
L 118.041192 358.021205 
L 117.760196 356.327996 
L 117.703765 354.613682 
L 117.872826 352.906412 
L 118.264603 351.234221 
L 118.872663 349.624564 
L 119.687023 348.103873 
L 120.694309 346.697117 
L 121.877983 345.427396 
L 123.218608 344.315558 
L 124.694172 343.379859 
L 126.280445 342.635664 
L 127.951382 342.095191 
L 129.679546 341.767317 
L 131.436559 341.657424 
" style="fill:none;stroke:#808080;stroke-linecap:square;stroke-width:1.5;"/>
   </g>
   <g id="line2d_113">
    <path clip-path="url(#pfcc4f9a5e0)" d="M 131.436559 341.657424 
L 133.193573 341.767317 
L 134.921736 342.095191 
L 136.592673 342.635664 
L 138.178947 343.379859 
L 139.65451 344.315558 
L 140.995136 345.427396 
L 142.178809 346.697117 
L 143.186096 348.103873 
L 144.000455 349.624564 
L 144.608515 351.234221 
L 145.000293 352.906412 
L 145.169354 354.613682 
L 145.112923 356.327996 
L 144.831926 358.021205 
L 144.330978 359.665508 
L 143.618304 361.233904 
L 142.705606 362.700641 
L 141.607871 364.041635 
L 140.343123 365.234866 
L 138.932129 366.260742 
L 137.398058 367.102419 
L 135.7661 367.746075 
L 134.063051 368.181142 
L 132.316875 368.400476 
L 130.556244 368.400476 
L 128.810068 368.181142 
L 127.107018 367.746075 
L 125.47506 367.102419 
L 123.940989 366.260742 
L 122.529996 365.234866 
L 121.265248 364.041635 
L 120.167512 362.700641 
L 119.254814 361.233904 
L 118.54214 359.665508 
L 118.041192 358.021205 
L 117.760196 356.327996 
L 117.703765 354.613682 
L 117.872826 352.906412 
L 118.264603 351.234221 
L 118.872663 349.624564 
L 119.687023 348.103873 
L 120.694309 346.697117 
L 121.877983 345.427396 
L 123.218608 344.315558 
L 124.694172 343.379859 
L 126.280445 342.635664 
L 127.951382 342.095191 
L 129.679546 341.767317 
L 131.436559 341.657424 
" style="fill:none;stroke:#808080;stroke-linecap:square;stroke-width:1.5;"/>
   </g>
   <g id="line2d_114">
    <path clip-path="url(#pfcc4f9a5e0)" d="M 118.403541 487.583276 
L 120.160554 487.693169 
L 121.888718 488.021043 
L 123.559655 488.561515 
L 125.145928 489.305711 
L 126.621492 490.24141 
L 127.962117 491.353248 
L 129.145791 492.622969 
L 130.153077 494.029725 
L 130.967437 495.550416 
L 131.575497 497.160072 
L 131.967274 498.832264 
L 132.136335 500.539534 
L 132.079904 502.253848 
L 131.798908 503.947057 
L 131.29796 505.59136 
L 130.585286 507.159756 
L 129.672588 508.626493 
L 128.574852 509.967486 
L 127.310104 511.160718 
L 125.899111 512.186594 
L 124.36504 513.028271 
L 122.733082 513.671927 
L 121.030032 514.106994 
L 119.283856 514.326328 
L 117.523225 514.326328 
L 115.777049 514.106994 
L 114.074 513.671927 
L 112.442042 513.028271 
L 110.907971 512.186594 
L 109.496978 511.160718 
L 108.232229 509.967486 
L 107.134494 508.626493 
L 106.221796 507.159756 
L 105.509122 505.59136 
L 105.008174 503.947057 
L 104.727177 502.253848 
L 104.670746 500.539534 
L 104.839808 498.832264 
L 105.231585 497.160072 
L 105.839645 495.550416 
L 106.654004 494.029725 
L 107.661291 492.622969 
L 108.844964 491.353248 
L 110.18559 490.24141 
L 111.661153 489.305711 
L 113.247427 488.561515 
L 114.918364 488.021043 
L 116.646527 487.693169 
L 118.403541 487.583276 
" style="fill:none;stroke:#808080;stroke-linecap:square;stroke-width:1.5;"/>
   </g>
   <g id="line2d_115">
    <path clip-path="url(#pfcc4f9a5e0)" d="M 224.193966 552.420495 
L 225.95098 552.530388 
L 227.679143 552.858263 
L 229.35008 553.398735 
L 230.936354 554.14293 
L 232.411917 555.078629 
L 233.752543 556.190467 
L 234.936216 557.460189 
L 235.943503 558.866944 
L 236.757862 560.387635 
L 237.365922 561.997292 
L 237.7577 563.669483 
L 237.926761 565.376753 
L 237.87033 567.091067 
L 237.589333 568.784276 
L 237.088385 570.428579 
L 236.375711 571.996975 
L 235.463013 573.463712 
L 234.365278 574.804706 
L 233.10053 575.997937 
L 231.689536 577.023813 
L 230.155465 577.86549 
L 228.523507 578.509146 
L 226.820458 578.944213 
L 225.074282 579.163548 
L 223.313651 579.163548 
L 221.567475 578.944213 
L 219.864425 578.509146 
L 218.232467 577.86549 
L 216.698396 577.023813 
L 215.287403 575.997937 
L 214.022655 574.804706 
L 212.924919 573.463712 
L 212.012221 571.996975 
L 211.299547 570.428579 
L 210.798599 568.784276 
L 210.517603 567.091067 
L 210.461172 565.376753 
L 210.630233 563.669483 
L 211.02201 561.997292 
L 211.63007 560.387635 
L 212.44443 558.866944 
L 213.451716 557.460189 
L 214.63539 556.190467 
L 215.976015 555.078629 
L 217.451579 554.14293 
L 219.037852 553.398735 
L 220.708789 552.858263 
L 222.436953 552.530388 
L 224.193966 552.420495 
" style="fill:none;stroke:#808080;stroke-linecap:square;stroke-width:1.5;"/>
   </g>
   <g id="line2d_116">
    <path clip-path="url(#pfcc4f9a5e0)" d="M 331.60555 429.755453 
L 333.362563 429.865346 
L 335.090727 430.193221 
L 336.761664 430.733693 
L 338.347937 431.477888 
L 339.823501 432.413587 
L 341.164126 433.525425 
L 342.3478 434.795147 
L 343.355086 436.201902 
L 344.169446 437.722593 
L 344.777506 439.33225 
L 345.169283 441.004442 
L 345.338344 442.711711 
L 345.281913 444.426025 
L 345.000917 446.119235 
L 344.499969 447.763537 
L 343.787295 449.331933 
L 342.874597 450.79867 
L 341.776861 452.139664 
L 340.512113 453.332895 
L 339.10112 454.358772 
L 337.567049 455.200448 
L 335.935091 455.844104 
L 334.232041 456.279171 
L 332.485865 456.498506 
L 330.725234 456.498506 
L 328.979058 456.279171 
L 327.276009 455.844104 
L 325.644051 455.200448 
L 324.10998 454.358772 
L 322.698986 453.332895 
L 321.434238 452.139664 
L 320.336503 450.79867 
L 319.423805 449.331933 
L 318.711131 447.763537 
L 318.210183 446.119235 
L 317.929186 444.426025 
L 317.872755 442.711711 
L 318.041816 441.004442 
L 318.433594 439.33225 
L 319.041654 437.722593 
L 319.856013 436.201902 
L 320.8633 434.795147 
L 322.046973 433.525425 
L 323.387599 432.413587 
L 324.863162 431.477888 
L 326.449436 430.733693 
L 328.120373 430.193221 
L 329.848536 429.865346 
L 331.60555 429.755453 
" style="fill:none;stroke:#808080;stroke-linecap:square;stroke-width:1.5;"/>
   </g>
   <g id="line2d_117">
    <path clip-path="url(#pfcc4f9a5e0)" d="M 326.294589 257.785492 
L 328.051603 257.895385 
L 329.779766 258.223259 
L 331.450703 258.763731 
L 333.036977 259.507926 
L 334.512541 260.443625 
L 335.853166 261.555464 
L 337.03684 262.825185 
L 338.044126 264.23194 
L 338.858485 265.752631 
L 339.466545 267.362288 
L 339.858323 269.03448 
L 340.027384 270.741749 
L 339.970953 272.456063 
L 339.689956 274.149273 
L 339.189008 275.793575 
L 338.476334 277.361972 
L 337.563636 278.828708 
L 336.465901 280.169702 
L 335.201153 281.362933 
L 333.790159 282.38881 
L 332.256088 283.230486 
L 330.62413 283.874142 
L 328.921081 284.30921 
L 327.174905 284.528544 
L 325.414274 284.528544 
L 323.668098 284.30921 
L 321.965048 283.874142 
L 320.33309 283.230486 
L 318.79902 282.38881 
L 317.388026 281.362933 
L 316.123278 280.169702 
L 315.025542 278.828708 
L 314.112845 277.361972 
L 313.40017 275.793575 
L 312.899222 274.149273 
L 312.618226 272.456063 
L 312.561795 270.741749 
L 312.730856 269.03448 
L 313.122633 267.362288 
L 313.730694 265.752631 
L 314.545053 264.23194 
L 315.552339 262.825185 
L 316.736013 261.555464 
L 318.076638 260.443625 
L 319.552202 259.507926 
L 321.138476 258.763731 
L 322.809412 258.223259 
L 324.537576 257.895385 
L 326.294589 257.785492 
" style="fill:none;stroke:#808080;stroke-linecap:square;stroke-width:1.5;"/>
   </g>
   <g id="line2d_118">
    <path clip-path="url(#pfcc4f9a5e0)" d="M 326.294589 257.785492 
L 328.051603 257.895385 
L 329.779766 258.223259 
L 331.450703 258.763731 
L 333.036977 259.507926 
L 334.512541 260.443625 
L 335.853166 261.555464 
L 337.03684 262.825185 
L 338.044126 264.23194 
L 338.858485 265.752631 
L 339.466545 267.362288 
L 339.858323 269.03448 
L 340.027384 270.741749 
L 339.970953 272.456063 
L 339.689956 274.149273 
L 339.189008 275.793575 
L 338.476334 277.361972 
L 337.563636 278.828708 
L 336.465901 280.169702 
L 335.201153 281.362933 
L 333.790159 282.38881 
L 332.256088 283.230486 
L 330.62413 283.874142 
L 328.921081 284.30921 
L 327.174905 284.528544 
L 325.414274 284.528544 
L 323.668098 284.30921 
L 321.965048 283.874142 
L 320.33309 283.230486 
L 318.79902 282.38881 
L 317.388026 281.362933 
L 316.123278 280.169702 
L 315.025542 278.828708 
L 314.112845 277.361972 
L 313.40017 275.793575 
L 312.899222 274.149273 
L 312.618226 272.456063 
L 312.561795 270.741749 
L 312.730856 269.03448 
L 313.122633 267.362288 
L 313.730694 265.752631 
L 314.545053 264.23194 
L 315.552339 262.825185 
L 316.736013 261.555464 
L 318.076638 260.443625 
L 319.552202 259.507926 
L 321.138476 258.763731 
L 322.809412 258.223259 
L 324.537576 257.895385 
L 326.294589 257.785492 
" style="fill:none;stroke:#808080;stroke-linecap:square;stroke-width:1.5;"/>
   </g>
   <g id="line2d_119"/>
   <g id="line2d_120"/>
   <g id="line2d_121"/>
   <g id="line2d_122"/>
   <g id="line2d_123"/>
   <g id="line2d_124"/>
   <g id="line2d_125"/>
   <g id="line2d_126"/>
   <g id="line2d_127"/>
   <g id="line2d_128"/>
   <g id="line2d_129"/>
   <g id="line2d_130"/>
   <g id="line2d_131"/>
   <g id="line2d_132"/>
   <g id="line2d_133"/>
   <g id="line2d_134"/>
   <g id="line2d_135"/>
   <g id="line2d_136"/>
   <g id="line2d_137"/>
   <g id="line2d_138"/>
   <g id="line2d_139"/>
   <g id="line2d_140"/>
   <g id="line2d_141"/>
   <g id="line2d_142"/>
   <g id="line2d_143"/>
   <g id="line2d_144"/>
   <g id="line2d_145"/>
   <g id="line2d_146"/>
   <g id="line2d_147"/>
   <g id="line2d_148"/>
   <g id="line2d_149"/>
   <g id="line2d_150"/>
   <g id="line2d_151"/>
   <g id="line2d_152"/>
   <g id="line2d_153"/>
   <g id="line2d_154"/>
   <g id="line2d_155"/>
   <g id="line2d_156"/>
   <g id="line2d_157"/>
   <g id="line2d_158"/>
   <g id="line2d_159"/>
   <g id="line2d_160"/>
   <g id="line2d_161"/>
   <g id="line2d_162"/>
   <g id="line2d_163"/>
   <g id="line2d_164"/>
   <g id="line2d_165"/>
   <g id="line2d_166"/>
   <g id="line2d_167"/>
   <g id="line2d_168"/>
   <g id="line2d_169"/>
   <g id="patch_3">
    <path d="M 90 630 
L 90 86.4 
" style="fill:none;stroke:#000000;stroke-linecap:square;stroke-linejoin:miter;stroke-width:0.8;"/>
   </g>
   <g id="patch_4">
    <path d="M 648 630 
L 648 86.4 
" style="fill:none;stroke:#000000;stroke-linecap:square;stroke-linejoin:miter;stroke-width:0.8;"/>
   </g>
   <g id="patch_5">
    <path d="M 90 630 
L 648 630 
" style="fill:none;stroke:#000000;stroke-linecap:square;stroke-linejoin:miter;stroke-width:0.8;"/>
   </g>
   <g id="patch_6">
    <path d="M 90 86.4 
L 648 86.4 
" style="fill:none;stroke:#000000;stroke-linecap:square;stroke-linejoin:miter;stroke-width:0.8;"/>
   </g>
   <g id="text_13">
    <!-- 0 -->
    <g transform="translate(57.118275 483.562806)scale(0.1 -0.1)">
     <use xlink:href="#DejaVuSans-30"/>
    </g>
   </g>
   <g id="text_14">
    <!-- 0 -->
    <g transform="translate(57.118275 470.177529)scale(0.1 -0.1)">
     <use xlink:href="#DejaVuSans-30"/>
    </g>
   </g>
   <g id="text_15">
    <!-- 0 -->
    <g transform="translate(57.118275 456.792252)scale(0.1 -0.1)">
     <use xlink:href="#DejaVuSans-30"/>
    </g>
   </g>
  </g>
 </g>
 <defs>
  <clipPath id="pfcc4f9a5e0">
   <rect height="543.6" width="558" x="90" y="86.4"/>
  </clipPath>
 </defs>
</svg>
