<?xml version="1.0" encoding="utf-8" standalone="no"?>
<!DOCTYPE svg PUBLIC "-//W3C//DTD SVG 1.1//EN"
  "http://www.w3.org/Graphics/SVG/1.1/DTD/svg11.dtd">
<svg height="720pt" version="1.1" viewBox="0 0 720 720" width="720pt" xmlns="http://www.w3.org/2000/svg" xmlns:xlink="http://www.w3.org/1999/xlink">
 <metadata>
  <rdf:RDF xmlns:cc="http://creativecommons.org/ns#" xmlns:dc="http://purl.org/dc/elements/1.1/" xmlns:rdf="http://www.w3.org/1999/02/22-rdf-syntax-ns#">
   <cc:Work>
    <dc:type rdf:resource="http://purl.org/dc/dcmitype/StillImage"/>
    <dc:date>2022-01-11T13:26:00.066256</dc:date>
    <dc:format>image/svg+xml</dc:format>
    <dc:creator>
     <cc:Agent>
      <dc:title>Matplotlib v3.4.3, https://matplotlib.org/</dc:title>
     </cc:Agent>
    </dc:creator>
   </cc:Work>
  </rdf:RDF>
 </metadata>
 <defs>
  <style type="text/css">*{stroke-linecap:butt;stroke-linejoin:round;}</style>
 </defs>
 <g id="figure_1">
  <g id="patch_1">
   <path d="M 0 720 
L 720 720 
L 720 0 
L 0 0 
z
" style="fill:none;"/>
  </g>
  <g id="axes_1">
   <g id="patch_2">
    <path d="M 90 630 
L 648 630 
L 648 86.4 
L 90 86.4 
z
" style="fill:#ffffff;"/>
   </g>
   <g id="PathCollection_1">
    <defs>
     <path d="M 0.972304 -8.870829 
Q -1.277159 -8.870829 -2.413438 -6.653699 
Q -3.545098 -4.441189 -3.545098 0.006929 
Q -3.545098 4.436569 -2.413438 6.653699 
Q -1.277159 8.870829 0.972304 8.870829 
Q 3.240243 8.870829 4.371903 6.653699 
Q 5.508182 4.436569 5.508182 0.006929 
Q 5.508182 -4.441189 4.371903 -6.653699 
Q 3.240243 -8.870829 0.972304 -8.870829 
z
M 0.972304 -11.18034 
Q 4.598235 -11.18034 6.51051 -8.311928 
Q 8.422784 -5.448135 8.422784 0.006929 
Q 8.422784 5.448135 6.51051 8.316547 
Q 4.598235 11.18034 0.972304 11.18034 
Q -2.649008 11.18034 -4.561283 8.316547 
Q -6.473558 5.448135 -6.473558 0.006929 
Q -6.473558 -5.448135 -4.561283 -8.311928 
Q -2.649008 -11.18034 0.972304 -11.18034 
z
" id="m11025138be" style="stroke:#808080;"/>
    </defs>
    <g clip-path="url(#pd8b38cb46f)">
     <use style="fill:#808080;stroke:#808080;" x="438.603531" xlink:href="#m11025138be" y="421.624347"/>
    </g>
   </g>
   <g id="PathCollection_2">
    <defs>
     <path d="M -4.535873 8.63565 
L 0.404946 8.63565 
L 0.404946 -8.424791 
L -4.971969 -7.346533 
L -4.971969 -10.102082 
L 0.376192 -11.18034 
L 3.400108 -11.18034 
L 3.400108 8.63565 
L 8.340927 8.63565 
L 8.340927 11.18034 
L -4.535873 11.18034 
L -4.535873 8.63565 
z
" id="m13ec0c8b46" style="stroke:#808080;"/>
    </defs>
    <g clip-path="url(#pd8b38cb46f)">
     <use style="fill:#808080;stroke:#808080;" x="255.046028" xlink:href="#m13ec0c8b46" y="385.498981"/>
    </g>
   </g>
   <g id="PathCollection_3">
    <defs>
     <path d="M -2.294912 8.680651 
L 8.075736 8.680651 
L 8.075736 11.18034 
L -5.867913 11.18034 
L -5.867913 8.680651 
Q -4.177916 6.929457 -1.259259 3.982555 
Q 1.664105 1.030945 2.4126 0.174178 
Q 3.838976 -1.426376 4.403877 -2.537349 
Q 4.973486 -3.648321 4.973486 -4.721634 
Q 4.973486 -6.472828 3.744825 -7.574386 
Q 2.516165 -8.680651 0.543718 -8.680651 
Q -0.854413 -8.680651 -2.407892 -8.195778 
Q -3.956663 -7.710904 -5.72198 -6.722326 
L -5.72198 -9.725719 
Q -3.928418 -10.445968 -2.370232 -10.813154 
Q -0.807338 -11.18034 0.487227 -11.18034 
Q 3.900173 -11.18034 5.929111 -9.471513 
Q 7.958048 -7.767394 7.958048 -4.914642 
Q 7.958048 -3.558879 7.449637 -2.344341 
Q 6.945933 -1.13451 5.604292 0.513119 
Q 5.237107 0.941502 3.264659 2.979855 
Q 1.296919 5.018207 -2.294912 8.680651 
z
" id="m82672b1299" style="stroke:#808080;"/>
    </defs>
    <g clip-path="url(#pd8b38cb46f)">
     <use style="fill:#808080;stroke:#808080;" x="325.291982" xlink:href="#m82672b1299" y="476.02539"/>
    </g>
   </g>
   <g id="PathCollection_4">
    <defs>
     <path d="M 3.77605 -0.861447 
Q 5.868466 -0.413402 7.041697 1.004637 
Q 8.219548 2.418057 8.219548 4.496617 
Q 8.219548 7.683741 6.025513 9.43435 
Q 3.831478 11.18034 -0.210165 11.18034 
Q -1.563539 11.18034 -3.000054 10.912437 
Q -4.436569 10.644533 -5.965465 10.108727 
L -5.965465 7.295743 
Q -4.755282 8.002454 -3.314147 8.362737 
Q -1.868394 8.723021 -0.293308 8.723021 
Q 2.445772 8.723021 3.882287 7.64217 
Q 5.318802 6.561319 5.318802 4.496617 
Q 5.318802 2.588961 3.983905 1.517348 
Q 2.649008 0.441116 0.270213 0.441116 
L -2.242535 0.441116 
L -2.242535 -1.956155 
L 0.385688 -1.956155 
Q 2.533533 -1.956155 3.674431 -2.815293 
Q 4.815329 -3.674431 4.815329 -5.291088 
Q 4.815329 -6.949317 3.637479 -7.836169 
Q 2.464248 -8.72764 0.270213 -8.72764 
Q -0.930733 -8.72764 -2.302582 -8.464356 
Q -3.674431 -8.20569 -5.318802 -7.660646 
L -5.318802 -10.256536 
Q -3.655955 -10.718438 -2.205582 -10.949389 
Q -0.75521 -11.18034 0.528878 -11.18034 
Q 3.849954 -11.18034 5.780705 -9.66992 
Q 7.716074 -8.164119 7.716074 -5.595944 
Q 7.716074 -3.803764 6.690652 -2.570485 
Q 5.665229 -1.337207 3.77605 -0.861447 
z
" id="m08c8ecbdbf" style="stroke:#808080;"/>
    </defs>
    <g clip-path="url(#pd8b38cb46f)">
     <use style="fill:#808080;stroke:#808080;" x="456.778294" xlink:href="#m08c8ecbdbf" y="556.331803"/>
    </g>
   </g>
   <g id="PathCollection_5">
    <defs>
     <path d="M 2.695646 -8.544598 
L -4.943215 3.392919 
L 2.695646 3.392919 
L 2.695646 -8.544598 
z
M 1.900131 -11.18034 
L 5.705184 -11.18034 
L 5.705184 3.392919 
L 8.896829 3.392919 
L 8.896829 5.908855 
L 5.705184 5.908855 
L 5.705184 11.18034 
L 2.695646 11.18034 
L 2.695646 5.908855 
L -7.396852 5.908855 
L -7.396852 2.99037 
L 1.900131 -11.18034 
z
" id="m8fde097ef2" style="stroke:#808080;"/>
    </defs>
    <g clip-path="url(#pd8b38cb46f)">
     <use style="fill:#808080;stroke:#808080;" x="571.787598" xlink:href="#m8fde097ef2" y="591.598288"/>
    </g>
   </g>
   <g id="PathCollection_6">
    <defs>
     <path d="M -5.008473 -11.18034 
L 6.639575 -11.18034 
L 6.639575 -8.679629 
L -2.291535 -8.679629 
L -2.291535 -3.306861 
Q -1.647555 -3.527789 -1.003575 -3.635902 
Q -0.354894 -3.744015 0.293787 -3.744015 
Q 3.964943 -3.744015 6.108409 -1.732165 
Q 8.256576 0.279685 8.256576 3.715812 
Q 8.256576 7.255352 6.052002 9.220196 
Q 3.847428 11.18034 -0.16217 11.18034 
Q -1.544142 11.18034 -2.97782 10.945311 
Q -4.406798 10.710281 -5.934488 10.240223 
L -5.934488 7.255352 
Q -4.613624 7.974541 -3.203448 8.327085 
Q -1.793273 8.679629 -0.223278 8.679629 
Q 2.319738 8.679629 3.800422 7.344663 
Q 5.285807 6.009697 5.285807 3.715812 
Q 5.285807 1.426627 3.800422 0.091661 
Q 2.319738 -1.248005 -0.223278 -1.248005 
Q -1.412526 -1.248005 -2.597073 -0.984772 
Q -3.77692 -0.72154 -5.008473 -0.16217 
L -5.008473 -11.18034 
z
" id="m1b2bf1baf2" style="stroke:#808080;"/>
    </defs>
    <g clip-path="url(#pd8b38cb46f)">
     <use style="fill:#808080;stroke:#808080;" x="571.787598" xlink:href="#m1b2bf1baf2" y="591.598288"/>
    </g>
   </g>
   <g id="PathCollection_7">
    <defs>
     <path d="M 1.286397 -1.175541 
Q -0.676687 -1.175541 -1.826823 0.168594 
Q -2.97234 1.50811 -2.97234 3.845335 
Q -2.97234 6.168702 -1.826823 7.522075 
Q -0.676687 8.870829 1.286397 8.870829 
Q 3.249481 8.870829 4.394998 7.522075 
Q 5.540515 6.168702 5.540515 3.845335 
Q 5.540515 1.50811 4.394998 0.168594 
Q 3.249481 -1.175541 1.286397 -1.175541 
z
M 7.07403 -10.316583 
L 7.07403 -7.660646 
Q 5.974703 -8.177976 4.8569 -8.450499 
Q 3.739097 -8.72764 2.63977 -8.72764 
Q -0.247118 -8.72764 -1.771394 -6.778413 
Q -3.291052 -4.829186 -3.508146 -0.889162 
Q -2.658246 -2.145535 -1.374159 -2.815293 
Q -0.085452 -3.485051 1.457301 -3.485051 
Q 4.704473 -3.485051 6.589033 -1.512729 
Q 8.473594 0.454974 8.473594 3.845335 
Q 8.473594 7.166411 6.51051 9.175685 
Q 4.547426 11.18034 1.286397 11.18034 
Q -2.45501 11.18034 -4.43195 8.316547 
Q -6.408891 5.448135 -6.408891 0.006929 
Q -6.408891 -5.101708 -3.983905 -8.141024 
Q -1.55892 -11.18034 2.524295 -11.18034 
Q 3.623622 -11.18034 4.741425 -10.963246 
Q 5.859228 -10.746152 7.07403 -10.316583 
z
" id="m3b77ac0958" style="stroke:#808080;"/>
    </defs>
    <g clip-path="url(#pd8b38cb46f)">
     <use style="fill:#808080;stroke:#808080;" x="463.85375" xlink:href="#m3b77ac0958" y="471.581219"/>
    </g>
   </g>
   <g id="PathCollection_8">
    <defs>
     <path d="M -5.93042 -11.18034 
L 8.446356 -11.18034 
L 8.446356 -9.891222 
L 0.32827 11.18034 
L -2.829829 11.18034 
L 4.809032 -8.630858 
L -5.93042 -8.630858 
L -5.93042 -11.18034 
z
" id="mb9f935ca62" style="stroke:#808080;"/>
    </defs>
    <g clip-path="url(#pd8b38cb46f)">
     <use style="fill:#808080;stroke:#808080;" x="405.819291" xlink:href="#mb9f935ca62" y="325.33731"/>
    </g>
   </g>
   <g id="PathCollection_9">
    <defs>
     <path d="M 1.002328 0.524259 
Q -1.076232 0.524259 -2.267939 1.637443 
Q -3.455028 2.750627 -3.455028 4.695235 
Q -3.455028 6.644461 -2.267939 7.757645 
Q -1.076232 8.870829 1.002328 8.870829 
Q 3.080887 8.870829 4.277213 7.753026 
Q 5.478159 6.630604 5.478159 4.695235 
Q 5.478159 2.750627 4.286451 1.637443 
Q 3.099363 0.524259 1.002328 0.524259 
z
M -1.912275 -0.713639 
Q -3.787597 -1.175541 -4.836115 -2.459629 
Q -5.880014 -3.748335 -5.880014 -5.595944 
Q -5.880014 -8.177976 -4.041643 -9.679158 
Q -2.198654 -11.18034 1.002328 -11.18034 
Q 4.221785 -11.18034 6.055536 -9.679158 
Q 7.889288 -8.177976 7.889288 -5.595944 
Q 7.889288 -3.748335 6.84077 -2.459629 
Q 5.796871 -1.175541 3.935406 -0.713639 
Q 6.041679 -0.224023 7.214911 1.207874 
Q 8.392761 2.635151 8.392761 4.695235 
Q 8.392761 7.83155 6.480486 9.508254 
Q 4.568212 11.18034 1.002328 11.18034 
Q -2.558938 11.18034 -4.475831 9.508254 
Q -6.388106 7.83155 -6.388106 4.695235 
Q -6.388106 2.635151 -5.205636 1.207874 
Q -4.018548 -0.224023 -1.912275 -0.713639 
z
M -2.979268 -5.318802 
Q -2.979268 -3.646717 -1.93537 -2.709056 
Q -0.886852 -1.771394 1.002328 -1.771394 
Q 2.882269 -1.771394 3.940025 -2.709056 
Q 5.0024 -3.646717 5.0024 -5.318802 
Q 5.0024 -6.995507 3.940025 -7.933168 
Q 2.882269 -8.870829 1.002328 -8.870829 
Q -0.886852 -8.870829 -1.93537 -7.933168 
Q -2.979268 -6.995507 -2.979268 -5.318802 
z
" id="mcc27e02fef" style="stroke:#808080;"/>
    </defs>
    <g clip-path="url(#pd8b38cb46f)">
     <use style="fill:#808080;stroke:#808080;" x="488.491603" xlink:href="#mcc27e02fef" y="198.483471"/>
    </g>
   </g>
   <g id="PathCollection_10">
    <defs>
     <path d="M -5.117875 10.311964 
L -5.117875 7.656027 
Q -4.018548 8.177976 -2.896126 8.450499 
Q -1.769085 8.723021 -0.683615 8.723021 
Q 2.203273 8.723021 3.722931 6.783032 
Q 5.247208 4.843043 5.464302 0.884542 
Q 4.628259 2.127059 3.339552 2.792198 
Q 2.055464 3.457337 0.498854 3.457337 
Q -2.73446 3.457337 -4.619021 1.503491 
Q -6.503581 -0.454974 -6.503581 -3.849954 
Q -6.503581 -7.166411 -4.540497 -9.171066 
Q -2.577414 -11.18034 0.683615 -11.18034 
Q 4.425022 -11.18034 6.392725 -8.311928 
Q 8.365047 -5.448135 8.365047 0.006929 
Q 8.365047 5.101708 5.94468 8.141024 
Q 3.528932 11.18034 -0.554282 11.18034 
Q -1.653609 11.18034 -2.780651 10.963246 
Q -3.903073 10.746152 -5.117875 10.311964 
z
M 0.683615 1.175541 
Q 2.646699 1.175541 3.792216 -0.163975 
Q 4.942352 -1.50811 4.942352 -3.849954 
Q 4.942352 -6.173321 3.792216 -7.522075 
Q 2.646699 -8.870829 0.683615 -8.870829 
Q -1.279469 -8.870829 -2.424986 -7.522075 
Q -3.570503 -6.173321 -3.570503 -3.849954 
Q -3.570503 -1.50811 -2.424986 -0.163975 
Q -1.279469 1.175541 0.683615 1.175541 
z
" id="m9926568ee8" style="stroke:#808080;"/>
    </defs>
    <g clip-path="url(#pd8b38cb46f)">
     <use style="fill:#808080;stroke:#808080;" x="626.868927" xlink:href="#m9926568ee8" y="138.720759"/>
    </g>
   </g>
   <g id="PathCollection_11">
    <defs>
     <path d="M -8.880215 5.210045 
L -5.893528 5.210045 
L -5.893528 -5.10286 
L -9.143831 -4.451061 
L -9.143831 -6.116769 
L -5.910909 -6.768568 
L -4.082976 -6.768568 
L -4.082976 5.210045 
L -1.096289 5.210045 
L -1.096289 6.74829 
L -8.880215 6.74829 
L -8.880215 5.210045 
z
M 6.507667 -5.563464 
Q 5.096885 -5.563464 4.384252 -4.17296 
Q 3.674515 -2.785353 3.674515 0.004345 
Q 3.674515 2.782456 4.384252 4.17296 
Q 5.096885 5.563464 6.507667 5.563464 
Q 7.930037 5.563464 8.639773 4.17296 
Q 9.352407 2.782456 9.352407 0.004345 
Q 9.352407 -2.785353 8.639773 -4.17296 
Q 7.930037 -5.563464 6.507667 -5.563464 
z
M 6.507667 -7.011906 
Q 8.781721 -7.011906 9.98103 -5.212941 
Q 11.18034 -3.416874 11.18034 0.004345 
Q 11.18034 3.416874 9.98103 5.215838 
Q 8.781721 7.011906 6.507667 7.011906 
Q 4.236511 7.011906 3.037201 5.215838 
Q 1.837891 3.416874 1.837891 0.004345 
Q 1.837891 -3.416874 3.037201 -5.212941 
Q 4.236511 -7.011906 6.507667 -7.011906 
z
" id="m16a428183c" style="stroke:#808080;"/>
    </defs>
    <g clip-path="url(#pd8b38cb46f)">
     <use style="fill:#808080;stroke:#808080;" x="566.812348" xlink:href="#m16a428183c" y="287.159115"/>
    </g>
   </g>
   <g id="PathCollection_12">
    <defs>
     <path d="M -8.829662 5.334915 
L -5.777332 5.334915 
L -5.777332 -5.204651 
L -9.099072 -4.538526 
L -9.099072 -6.240844 
L -5.795096 -6.906968 
L -3.926987 -6.906968 
L -3.926987 5.334915 
L -0.874658 5.334915 
L -0.874658 6.906968 
L -8.829662 6.906968 
L -8.829662 5.334915 
z
M 3.225336 5.334915 
L 6.277666 5.334915 
L 6.277666 -5.204651 
L 2.955926 -4.538526 
L 2.955926 -6.240844 
L 6.259902 -6.906968 
L 8.128011 -6.906968 
L 8.128011 5.334915 
L 11.18034 5.334915 
L 11.18034 6.906968 
L 3.225336 6.906968 
L 3.225336 5.334915 
z
" id="mcac3b51fb0" style="stroke:#808080;"/>
    </defs>
    <g clip-path="url(#pd8b38cb46f)">
     <use style="fill:#808080;stroke:#808080;" x="566.812348" xlink:href="#mcac3b51fb0" y="287.159115"/>
    </g>
   </g>
   <g id="PathCollection_13"/>
   <g id="PathCollection_14"/>
   <g id="PathCollection_15"/>
   <g id="PathCollection_16"/>
   <g id="PathCollection_17"/>
   <g id="matplotlib.axis_1">
    <g id="xtick_1">
     <g id="line2d_1">
      <defs>
       <path d="M 0 0 
L 0 3.5 
" id="m2cc9e990cf" style="stroke:#000000;stroke-width:0.8;"/>
      </defs>
      <g>
       <use style="stroke:#000000;stroke-width:0.8;" x="107.793432" xlink:href="#m2cc9e990cf" y="630"/>
      </g>
     </g>
     <g id="text_1">
      <!-- −300 -->
      <g transform="translate(94.059838 644.598438)scale(0.1 -0.1)">
       <defs>
        <path d="M 678 2272 
L 4684 2272 
L 4684 1741 
L 678 1741 
L 678 2272 
z
" id="DejaVuSans-2212" transform="scale(0.015625)"/>
        <path d="M 2597 2516 
Q 3050 2419 3304 2112 
Q 3559 1806 3559 1356 
Q 3559 666 3084 287 
Q 2609 -91 1734 -91 
Q 1441 -91 1130 -33 
Q 819 25 488 141 
L 488 750 
Q 750 597 1062 519 
Q 1375 441 1716 441 
Q 2309 441 2620 675 
Q 2931 909 2931 1356 
Q 2931 1769 2642 2001 
Q 2353 2234 1838 2234 
L 1294 2234 
L 1294 2753 
L 1863 2753 
Q 2328 2753 2575 2939 
Q 2822 3125 2822 3475 
Q 2822 3834 2567 4026 
Q 2313 4219 1838 4219 
Q 1578 4219 1281 4162 
Q 984 4106 628 3988 
L 628 4550 
Q 988 4650 1302 4700 
Q 1616 4750 1894 4750 
Q 2613 4750 3031 4423 
Q 3450 4097 3450 3541 
Q 3450 3153 3228 2886 
Q 3006 2619 2597 2516 
z
" id="DejaVuSans-33" transform="scale(0.015625)"/>
        <path d="M 2034 4250 
Q 1547 4250 1301 3770 
Q 1056 3291 1056 2328 
Q 1056 1369 1301 889 
Q 1547 409 2034 409 
Q 2525 409 2770 889 
Q 3016 1369 3016 2328 
Q 3016 3291 2770 3770 
Q 2525 4250 2034 4250 
z
M 2034 4750 
Q 2819 4750 3233 4129 
Q 3647 3509 3647 2328 
Q 3647 1150 3233 529 
Q 2819 -91 2034 -91 
Q 1250 -91 836 529 
Q 422 1150 422 2328 
Q 422 3509 836 4129 
Q 1250 4750 2034 4750 
z
" id="DejaVuSans-30" transform="scale(0.015625)"/>
       </defs>
       <use xlink:href="#DejaVuSans-2212"/>
       <use x="83.789062" xlink:href="#DejaVuSans-33"/>
       <use x="147.412109" xlink:href="#DejaVuSans-30"/>
       <use x="211.035156" xlink:href="#DejaVuSans-30"/>
      </g>
     </g>
    </g>
    <g id="xtick_2">
     <g id="line2d_2">
      <g>
       <use style="stroke:#000000;stroke-width:0.8;" x="190.890821" xlink:href="#m2cc9e990cf" y="630"/>
      </g>
     </g>
     <g id="text_2">
      <!-- −200 -->
      <g transform="translate(177.157228 644.598438)scale(0.1 -0.1)">
       <defs>
        <path d="M 1228 531 
L 3431 531 
L 3431 0 
L 469 0 
L 469 531 
Q 828 903 1448 1529 
Q 2069 2156 2228 2338 
Q 2531 2678 2651 2914 
Q 2772 3150 2772 3378 
Q 2772 3750 2511 3984 
Q 2250 4219 1831 4219 
Q 1534 4219 1204 4116 
Q 875 4013 500 3803 
L 500 4441 
Q 881 4594 1212 4672 
Q 1544 4750 1819 4750 
Q 2544 4750 2975 4387 
Q 3406 4025 3406 3419 
Q 3406 3131 3298 2873 
Q 3191 2616 2906 2266 
Q 2828 2175 2409 1742 
Q 1991 1309 1228 531 
z
" id="DejaVuSans-32" transform="scale(0.015625)"/>
       </defs>
       <use xlink:href="#DejaVuSans-2212"/>
       <use x="83.789062" xlink:href="#DejaVuSans-32"/>
       <use x="147.412109" xlink:href="#DejaVuSans-30"/>
       <use x="211.035156" xlink:href="#DejaVuSans-30"/>
      </g>
     </g>
    </g>
    <g id="xtick_3">
     <g id="line2d_3">
      <g>
       <use style="stroke:#000000;stroke-width:0.8;" x="273.988211" xlink:href="#m2cc9e990cf" y="630"/>
      </g>
     </g>
     <g id="text_3">
      <!-- −100 -->
      <g transform="translate(260.254617 644.598438)scale(0.1 -0.1)">
       <defs>
        <path d="M 794 531 
L 1825 531 
L 1825 4091 
L 703 3866 
L 703 4441 
L 1819 4666 
L 2450 4666 
L 2450 531 
L 3481 531 
L 3481 0 
L 794 0 
L 794 531 
z
" id="DejaVuSans-31" transform="scale(0.015625)"/>
       </defs>
       <use xlink:href="#DejaVuSans-2212"/>
       <use x="83.789062" xlink:href="#DejaVuSans-31"/>
       <use x="147.412109" xlink:href="#DejaVuSans-30"/>
       <use x="211.035156" xlink:href="#DejaVuSans-30"/>
      </g>
     </g>
    </g>
    <g id="xtick_4">
     <g id="line2d_4">
      <g>
       <use style="stroke:#000000;stroke-width:0.8;" x="357.085601" xlink:href="#m2cc9e990cf" y="630"/>
      </g>
     </g>
     <g id="text_4">
      <!-- 0 -->
      <g transform="translate(353.904351 644.598438)scale(0.1 -0.1)">
       <use xlink:href="#DejaVuSans-30"/>
      </g>
     </g>
    </g>
    <g id="xtick_5">
     <g id="line2d_5">
      <g>
       <use style="stroke:#000000;stroke-width:0.8;" x="440.182991" xlink:href="#m2cc9e990cf" y="630"/>
      </g>
     </g>
     <g id="text_5">
      <!-- 100 -->
      <g transform="translate(430.639241 644.598438)scale(0.1 -0.1)">
       <use xlink:href="#DejaVuSans-31"/>
       <use x="63.623047" xlink:href="#DejaVuSans-30"/>
       <use x="127.246094" xlink:href="#DejaVuSans-30"/>
      </g>
     </g>
    </g>
    <g id="xtick_6">
     <g id="line2d_6">
      <g>
       <use style="stroke:#000000;stroke-width:0.8;" x="523.28038" xlink:href="#m2cc9e990cf" y="630"/>
      </g>
     </g>
     <g id="text_6">
      <!-- 200 -->
      <g transform="translate(513.73663 644.598438)scale(0.1 -0.1)">
       <use xlink:href="#DejaVuSans-32"/>
       <use x="63.623047" xlink:href="#DejaVuSans-30"/>
       <use x="127.246094" xlink:href="#DejaVuSans-30"/>
      </g>
     </g>
    </g>
    <g id="xtick_7">
     <g id="line2d_7">
      <g>
       <use style="stroke:#000000;stroke-width:0.8;" x="606.37777" xlink:href="#m2cc9e990cf" y="630"/>
      </g>
     </g>
     <g id="text_7">
      <!-- 300 -->
      <g transform="translate(596.83402 644.598438)scale(0.1 -0.1)">
       <use xlink:href="#DejaVuSans-33"/>
       <use x="63.623047" xlink:href="#DejaVuSans-30"/>
       <use x="127.246094" xlink:href="#DejaVuSans-30"/>
      </g>
     </g>
    </g>
   </g>
   <g id="matplotlib.axis_2">
    <g id="ytick_1">
     <g id="line2d_8">
      <defs>
       <path d="M 0 0 
L -3.5 0 
" id="mc4d6577289" style="stroke:#000000;stroke-width:0.8;"/>
      </defs>
      <g>
       <use style="stroke:#000000;stroke-width:0.8;" x="90" xlink:href="#mc4d6577289" y="612.665754"/>
      </g>
     </g>
     <g id="text_8">
      <!-- −300 -->
      <g transform="translate(55.532812 616.464972)scale(0.1 -0.1)">
       <use xlink:href="#DejaVuSans-2212"/>
       <use x="83.789062" xlink:href="#DejaVuSans-33"/>
       <use x="147.412109" xlink:href="#DejaVuSans-30"/>
       <use x="211.035156" xlink:href="#DejaVuSans-30"/>
      </g>
     </g>
    </g>
    <g id="ytick_2">
     <g id="line2d_9">
      <g>
       <use style="stroke:#000000;stroke-width:0.8;" x="90" xlink:href="#mc4d6577289" y="531.712813"/>
      </g>
     </g>
     <g id="text_9">
      <!-- −200 -->
      <g transform="translate(55.532812 535.512031)scale(0.1 -0.1)">
       <use xlink:href="#DejaVuSans-2212"/>
       <use x="83.789062" xlink:href="#DejaVuSans-32"/>
       <use x="147.412109" xlink:href="#DejaVuSans-30"/>
       <use x="211.035156" xlink:href="#DejaVuSans-30"/>
      </g>
     </g>
    </g>
    <g id="ytick_3">
     <g id="line2d_10">
      <g>
       <use style="stroke:#000000;stroke-width:0.8;" x="90" xlink:href="#mc4d6577289" y="450.759872"/>
      </g>
     </g>
     <g id="text_10">
      <!-- −100 -->
      <g transform="translate(55.532812 454.559091)scale(0.1 -0.1)">
       <use xlink:href="#DejaVuSans-2212"/>
       <use x="83.789062" xlink:href="#DejaVuSans-31"/>
       <use x="147.412109" xlink:href="#DejaVuSans-30"/>
       <use x="211.035156" xlink:href="#DejaVuSans-30"/>
      </g>
     </g>
    </g>
    <g id="ytick_4">
     <g id="line2d_11">
      <g>
       <use style="stroke:#000000;stroke-width:0.8;" x="90" xlink:href="#mc4d6577289" y="369.806931"/>
      </g>
     </g>
     <g id="text_11">
      <!-- 0 -->
      <g transform="translate(76.6375 373.60615)scale(0.1 -0.1)">
       <use xlink:href="#DejaVuSans-30"/>
      </g>
     </g>
    </g>
    <g id="ytick_5">
     <g id="line2d_12">
      <g>
       <use style="stroke:#000000;stroke-width:0.8;" x="90" xlink:href="#mc4d6577289" y="288.85399"/>
      </g>
     </g>
     <g id="text_12">
      <!-- 100 -->
      <g transform="translate(63.9125 292.653209)scale(0.1 -0.1)">
       <use xlink:href="#DejaVuSans-31"/>
       <use x="63.623047" xlink:href="#DejaVuSans-30"/>
       <use x="127.246094" xlink:href="#DejaVuSans-30"/>
      </g>
     </g>
    </g>
    <g id="ytick_6">
     <g id="line2d_13">
      <g>
       <use style="stroke:#000000;stroke-width:0.8;" x="90" xlink:href="#mc4d6577289" y="207.901049"/>
      </g>
     </g>
     <g id="text_13">
      <!-- 200 -->
      <g transform="translate(63.9125 211.700268)scale(0.1 -0.1)">
       <use xlink:href="#DejaVuSans-32"/>
       <use x="63.623047" xlink:href="#DejaVuSans-30"/>
       <use x="127.246094" xlink:href="#DejaVuSans-30"/>
      </g>
     </g>
    </g>
    <g id="ytick_7">
     <g id="line2d_14">
      <g>
       <use style="stroke:#000000;stroke-width:0.8;" x="90" xlink:href="#mc4d6577289" y="126.948108"/>
      </g>
     </g>
     <g id="text_14">
      <!-- 300 -->
      <g transform="translate(63.9125 130.747327)scale(0.1 -0.1)">
       <use xlink:href="#DejaVuSans-33"/>
       <use x="63.623047" xlink:href="#DejaVuSans-30"/>
       <use x="127.246094" xlink:href="#DejaVuSans-30"/>
      </g>
     </g>
    </g>
   </g>
   <g id="line2d_15">
    <path clip-path="url(#pd8b38cb46f)" d="M 566.812348 287.159115 
L 564.846437 290.783244 
L 562.86088 294.397181 
L 560.855044 298.00046 
L 558.828259 301.592578 
L 556.779827 305.173002 
L 554.709012 308.741158 
L 552.615041 312.296435 
L 550.4971 315.838175 
L 548.354334 319.365672 
L 546.185842 322.878168 
L 543.990674 326.374848 
L 541.767832 329.854831 
L 539.51626 333.317168 
L 537.234846 336.760834 
L 534.922415 340.18472 
L 532.57773 343.587622 
L 530.199481 346.968238 
L 527.786288 350.325151 
L 525.336694 353.656819 
L 522.84916 356.961564 
L 520.322062 360.237554 
L 517.753689 363.48279 
L 515.14224 366.695084 
L 512.485819 369.872041 
L 509.782435 373.011035 
L 507.030006 376.109185 
L 504.226357 379.163325 
L 501.369228 382.169977 
L 498.456282 385.125316 
L 495.48512 388.025136 
L 492.453305 390.864811 
L 489.358385 393.639264 
L 486.197936 396.342923 
L 482.969613 398.969696 
L 479.671219 401.51294 
L 476.300781 403.965449 
L 472.856657 406.319458 
L 469.337653 408.566669 
L 465.743157 410.698317 
L 462.073289 412.705278 
L 458.329051 414.578223 
L 454.512463 416.307843 
L 450.626678 417.885122 
L 446.676047 419.301669 
L 442.666114 420.550088 
L 438.603531 421.624347 
" style="fill:none;stroke:#808080;stroke-linecap:square;stroke-width:1.5;"/>
   </g>
   <g id="line2d_16">
    <path clip-path="url(#pd8b38cb46f)" d="M 438.603531 421.624347 
L 438.603531 287.159115 
L 566.812348 287.159115 
L 566.812348 421.624347 
L 438.603531 421.624347 
" style="fill:none;stroke:#d3d3d3;stroke-linecap:square;stroke-width:0.5;"/>
   </g>
   <g id="line2d_17">
    <path clip-path="url(#pd8b38cb46f)" d="M 438.603531 421.624347 
L 434.495883 422.520121 
L 430.351431 423.235077 
L 426.178793 423.769038 
L 421.986593 424.124042 
L 417.78312 424.304258 
L 413.576022 424.315789 
L 409.372067 424.166392 
L 405.176986 423.86514 
L 400.995391 423.422064 
L 396.830777 422.847818 
L 392.685565 422.153373 
L 388.5612 421.349766 
L 384.458262 420.447899 
L 380.376596 419.458393 
L 376.315435 418.391488 
L 372.273523 417.256979 
L 368.249218 416.064189 
L 364.240592 414.821961 
L 360.245509 413.538668 
L 356.261701 412.222233 
L 352.28682 410.880157 
L 348.318494 409.519553 
L 344.354361 408.147176 
L 340.39211 406.769455 
L 336.429507 405.392525 
L 332.464418 404.022251 
L 328.494832 402.664254 
L 324.51888 401.32393 
L 320.534849 400.006465 
L 316.541199 398.716849 
L 312.536568 397.459878 
L 308.519793 396.240165 
L 304.489909 395.062134 
L 300.446163 393.930022 
L 296.388013 392.847865 
L 292.315137 391.819497 
L 288.227426 390.848533 
L 284.124989 389.938357 
L 280.008143 389.09211 
L 275.877406 388.312676 
L 271.733488 387.602666 
L 267.577274 386.964409 
L 263.409812 386.399939 
L 259.232293 385.910987 
L 255.046028 385.498981 
" style="fill:none;stroke:#808080;stroke-linecap:square;stroke-width:1.5;"/>
   </g>
   <g id="line2d_18">
    <path clip-path="url(#pd8b38cb46f)" d="M 255.046028 424.315789 
L 255.046028 385.498981 
L 438.603531 385.498981 
L 438.603531 424.315789 
L 255.046028 424.315789 
" style="fill:none;stroke:#d3d3d3;stroke-linecap:square;stroke-width:0.5;"/>
   </g>
   <g id="line2d_19">
    <path clip-path="url(#pd8b38cb46f)" d="M 255.046028 385.498981 
L 250.859744 385.212647 
L 246.65992 385.141073 
L 242.462829 385.386031 
L 238.33166 386.147023 
L 234.537869 387.852754 
L 232.127066 391.100639 
L 232.128271 395.138906 
L 233.547405 398.938907 
L 235.603332 402.463972 
L 238.00869 405.797308 
L 240.634542 408.989285 
L 243.411468 412.070843 
L 246.297993 415.062856 
L 249.267547 417.980335 
L 252.302201 420.834544 
L 255.389342 423.634197 
L 258.519794 426.386194 
L 261.686691 429.096105 
L 264.884767 431.768497 
L 268.109903 434.407162 
L 271.358818 437.015293 
L 274.628857 439.595598 
L 277.917842 442.150398 
L 281.223964 444.6817 
L 284.545706 447.191248 
L 287.88178 449.680568 
L 291.231086 452.151005 
L 294.592678 454.603749 
L 297.96573 457.039858 
L 301.349527 459.460275 
L 304.743435 461.865846 
L 308.146898 464.257334 
L 311.559422 466.635424 
L 314.980566 469.000737 
L 318.409937 471.353835 
L 321.847181 473.695231 
L 325.291982 476.02539 
" style="fill:none;stroke:#808080;stroke-linecap:square;stroke-width:1.5;"/>
   </g>
   <g id="line2d_20">
    <path clip-path="url(#pd8b38cb46f)" d="M 232.127066 476.02539 
L 232.127066 385.141073 
L 325.291982 385.141073 
L 325.291982 476.02539 
L 232.127066 476.02539 
" style="fill:none;stroke:#d3d3d3;stroke-linecap:square;stroke-width:0.5;"/>
   </g>
   <g id="line2d_21">
    <path clip-path="url(#pd8b38cb46f)" d="M 325.291982 476.02539 
L 328.744052 478.344737 
L 332.203132 480.653659 
L 335.668989 482.95251 
L 339.14141 485.241615 
L 342.620201 487.52127 
L 346.105189 489.791746 
L 349.596214 492.053291 
L 353.093131 494.306133 
L 356.595811 496.550478 
L 360.104135 498.786516 
L 363.617996 501.014418 
L 367.137298 503.23434 
L 370.661955 505.446422 
L 374.191889 507.650792 
L 377.727034 509.847562 
L 381.26733 512.036832 
L 384.812725 514.218689 
L 388.363176 516.393209 
L 391.918648 518.560456 
L 395.47911 520.720481 
L 399.044542 522.873327 
L 402.61493 525.019024 
L 406.190266 527.15759 
L 409.770551 529.289033 
L 413.35579 531.413352 
L 416.945999 533.530531 
L 420.541198 535.640544 
L 424.141417 537.743355 
L 427.746694 539.838913 
L 431.357072 541.927157 
L 434.972606 544.008009 
L 438.593358 546.081382 
L 442.219401 548.14717 
L 445.850817 550.205252 
L 449.487699 552.255492 
L 453.130152 554.297734 
L 456.778294 556.331803 
" style="fill:none;stroke:#808080;stroke-linecap:square;stroke-width:1.5;"/>
   </g>
   <g id="line2d_22">
    <path clip-path="url(#pd8b38cb46f)" d="M 325.291982 556.331803 
L 325.291982 476.02539 
L 456.778294 476.02539 
L 456.778294 556.331803 
L 325.291982 556.331803 
" style="fill:none;stroke:#d3d3d3;stroke-linecap:square;stroke-width:0.5;"/>
   </g>
   <g id="line2d_23">
    <path clip-path="url(#pd8b38cb46f)" d="M 456.778294 556.331803 
L 460.432256 558.3575 
L 464.092185 560.374607 
L 467.758243 562.382874 
L 471.430613 564.382026 
L 475.109496 566.371754 
L 478.795116 568.351711 
L 482.487723 570.321512 
L 486.187595 572.280721 
L 489.895043 574.228851 
L 493.610413 576.165351 
L 497.334096 578.089597 
L 501.066526 580.000882 
L 504.808197 581.898397 
L 508.559666 583.781213 
L 512.321563 585.648258 
L 516.094608 587.498281 
L 519.879625 589.329818 
L 523.67756 591.141128 
L 527.489507 592.93013 
L 531.316738 594.694294 
L 535.160736 596.430503 
L 539.023245 598.134853 
L 542.906318 599.802345 
L 546.812387 601.426429 
L 550.744319 602.998259 
L 554.705471 604.505455 
L 558.699669 605.929888 
L 562.730974 607.243415 
L 566.802952 608.398793 
L 570.917547 609.307173 
L 575.081379 609.763434 
L 579.195581 608.980573 
L 580.536929 605.401017 
L 579.085688 601.588044 
L 576.903444 598.085072 
L 574.426833 594.777617 
L 571.787598 591.598288 
" style="fill:none;stroke:#808080;stroke-linecap:square;stroke-width:1.5;"/>
   </g>
   <g id="line2d_24">
    <path clip-path="url(#pd8b38cb46f)" d="M 456.778294 609.763434 
L 456.778294 556.331803 
L 580.536929 556.331803 
L 580.536929 609.763434 
L 456.778294 609.763434 
" style="fill:none;stroke:#d3d3d3;stroke-linecap:square;stroke-width:0.5;"/>
   </g>
   <g id="line2d_25">
    <path clip-path="url(#pd8b38cb46f)" d="M 571.787598 591.598288 
" style="fill:none;stroke:#808080;stroke-linecap:square;stroke-width:1.5;"/>
   </g>
   <g id="line2d_26">
    <path clip-path="url(#pd8b38cb46f)" d="M 571.787598 591.598288 
L 571.787598 591.598288 
L 571.787598 591.598288 
L 571.787598 591.598288 
L 571.787598 591.598288 
" style="fill:none;stroke:#d3d3d3;stroke-linecap:square;stroke-width:0.5;"/>
   </g>
   <g id="line2d_27">
    <path clip-path="url(#pd8b38cb46f)" d="M 571.787598 591.598288 
L 569.052847 588.488317 
L 566.26917 585.419638 
L 563.450633 582.381151 
L 560.606908 579.364916 
L 557.74498 576.365042 
L 554.870094 573.377011 
L 551.986308 570.397267 
L 549.096851 567.422944 
L 546.204345 564.451684 
L 543.310967 561.481514 
L 540.418555 558.51075 
L 537.528686 555.537942 
L 534.642736 552.561819 
L 531.761924 549.581255 
L 528.887344 546.595242 
L 526.019991 543.602868 
L 523.160782 540.6033 
L 520.310574 537.595771 
L 517.470176 534.579569 
L 514.640358 531.554026 
L 511.821863 528.518516 
L 509.015417 525.472443 
L 506.221727 522.415238 
L 503.441497 519.346358 
L 500.675425 516.265276 
L 497.924212 513.171486 
L 495.188564 510.064491 
L 492.469197 506.943808 
L 489.766838 503.808963 
L 487.082231 500.65949 
L 484.416138 497.49493 
L 481.769343 494.314826 
L 479.142653 491.118727 
L 476.536903 487.906185 
L 473.952959 484.676753 
L 471.391719 481.429985 
L 468.854115 478.165436 
L 466.341121 474.882663 
L 463.85375 471.581219 
" style="fill:none;stroke:#808080;stroke-linecap:square;stroke-width:1.5;"/>
   </g>
   <g id="line2d_28">
    <path clip-path="url(#pd8b38cb46f)" d="M 463.85375 591.598288 
L 463.85375 471.581219 
L 571.787598 471.581219 
L 571.787598 591.598288 
L 463.85375 591.598288 
" style="fill:none;stroke:#d3d3d3;stroke-linecap:square;stroke-width:0.5;"/>
   </g>
   <g id="line2d_29">
    <path clip-path="url(#pd8b38cb46f)" d="M 463.85375 471.581219 
L 461.393061 468.260662 
L 458.96016 464.920546 
L 456.556205 461.560428 
L 454.18241 458.179864 
L 451.840045 454.778412 
L 449.530446 451.355633 
L 447.255012 447.911088 
L 445.015217 444.444348 
L 442.812606 440.954985 
L 440.648806 437.442583 
L 438.525528 433.906736 
L 436.444572 430.347052 
L 434.407834 426.763156 
L 432.417307 423.154694 
L 430.475088 419.521339 
L 428.583385 415.862794 
L 426.744519 412.178802 
L 424.960929 408.469148 
L 423.235177 404.733671 
L 421.56995 400.97227 
L 419.968065 397.184918 
L 418.432468 393.371669 
L 416.966236 389.532673 
L 415.572574 385.668188 
L 414.254813 381.778597 
L 413.016404 377.86442 
L 411.860908 373.926337 
L 410.791984 369.965197 
L 409.813374 365.982046 
L 408.92888 361.978134 
L 408.142338 357.954942 
L 407.457593 353.91419 
L 406.878453 349.857856 
L 406.408657 345.788184 
L 406.051822 341.707693 
L 405.811395 337.619172 
L 405.690596 333.525684 
L 405.692362 329.430545 
L 405.819291 325.33731 
" style="fill:none;stroke:#808080;stroke-linecap:square;stroke-width:1.5;"/>
   </g>
   <g id="line2d_30">
    <path clip-path="url(#pd8b38cb46f)" d="M 405.690596 471.581219 
L 405.690596 325.33731 
L 463.85375 325.33731 
L 463.85375 471.581219 
L 405.690596 471.581219 
" style="fill:none;stroke:#d3d3d3;stroke-linecap:square;stroke-width:0.5;"/>
   </g>
   <g id="line2d_31">
    <path clip-path="url(#pd8b38cb46f)" d="M 405.819291 325.33731 
L 406.073583 321.249742 
L 406.456992 317.171773 
L 406.970775 313.107467 
L 407.615662 309.060961 
L 408.391824 305.036413 
L 409.298861 301.037944 
L 410.335805 297.069576 
L 411.501127 293.135176 
L 412.792768 289.238401 
L 414.208176 285.38265 
L 415.744353 281.571029 
L 417.397912 277.806313 
L 419.165136 274.090931 
L 421.042045 270.426954 
L 423.024454 266.816091 
L 425.108038 263.259694 
L 427.28839 259.758778 
L 429.561069 256.314031 
L 431.921651 252.925843 
L 434.365767 249.59433 
L 436.889136 246.319361 
L 439.487592 243.100587 
L 442.157106 239.93747 
L 444.893804 236.829305 
L 447.693973 233.775253 
L 450.554071 230.774359 
L 453.470732 227.825574 
L 456.440763 224.927776 
L 459.461146 222.079787 
L 462.52903 219.280388 
L 465.641732 216.528331 
L 468.796724 213.822354 
L 471.991634 211.161185 
L 475.224233 208.543555 
L 478.49243 205.968206 
L 481.794263 203.43389 
L 485.127895 200.93938 
L 488.491603 198.483471 
" style="fill:none;stroke:#808080;stroke-linecap:square;stroke-width:1.5;"/>
   </g>
   <g id="line2d_32">
    <path clip-path="url(#pd8b38cb46f)" d="M 405.819291 325.33731 
L 405.819291 198.483471 
L 488.491603 198.483471 
L 488.491603 325.33731 
L 405.819291 325.33731 
" style="fill:none;stroke:#d3d3d3;stroke-linecap:square;stroke-width:0.5;"/>
   </g>
   <g id="line2d_33">
    <path clip-path="url(#pd8b38cb46f)" d="M 488.491603 198.483471 
L 491.886715 196.039708 
L 495.287543 193.603072 
L 498.694404 191.173925 
L 502.107633 188.752661 
L 505.527593 186.339709 
L 508.95467 183.93554 
L 512.389283 181.540671 
L 515.831882 179.155671 
L 519.282953 176.781167 
L 522.743023 174.417857 
L 526.212665 172.066513 
L 529.692503 169.728 
L 533.183217 167.403284 
L 536.685555 165.093454 
L 540.200336 162.79974 
L 543.728469 160.523539 
L 547.270958 158.266448 
L 550.828921 156.030301 
L 554.403609 153.817222 
L 557.996427 151.629684 
L 561.608963 149.470594 
L 565.243022 147.3434 
L 568.900665 145.252234 
L 572.584264 143.202104 
L 576.296566 141.199162 
L 580.04077 139.251083 
L 583.820628 137.367608 
L 587.640557 135.561366 
L 591.505762 133.849124 
L 595.422334 132.253801 
L 599.397201 130.807841 
L 603.437589 129.559142 
L 607.548859 128.582087 
L 611.726893 127.998949 
L 615.931306 128.020616 
L 619.995859 128.997375 
L 623.451007 131.297393 
L 625.731805 134.748441 
L 626.868927 138.720759 
" style="fill:none;stroke:#808080;stroke-linecap:square;stroke-width:1.5;"/>
   </g>
   <g id="line2d_34">
    <path clip-path="url(#pd8b38cb46f)" d="M 488.491603 198.483471 
L 488.491603 127.998949 
L 626.868927 127.998949 
L 626.868927 198.483471 
L 488.491603 198.483471 
" style="fill:none;stroke:#d3d3d3;stroke-linecap:square;stroke-width:0.5;"/>
   </g>
   <g id="line2d_35">
    <path clip-path="url(#pd8b38cb46f)" d="M 626.868927 138.720759 
L 627.226834 142.835636 
L 627.081621 146.96611 
L 626.596004 151.074543 
L 625.866966 155.150638 
L 624.955634 159.192929 
L 623.902704 163.202896 
L 622.736554 167.182925 
L 621.477742 171.13556 
L 620.141633 175.063224 
L 618.740019 178.968124 
L 617.282149 182.852241 
L 615.775413 186.717333 
L 614.225814 190.564961 
L 612.638294 194.396512 
L 611.016974 198.21322 
L 609.365326 202.016187 
L 607.686304 205.806402 
L 605.982441 209.584752 
L 604.255928 213.352039 
L 602.508671 217.108992 
L 600.742342 220.856269 
L 598.958412 224.594474 
L 597.158183 228.324159 
L 595.342815 232.04583 
L 593.513344 235.759952 
L 591.6707 239.466955 
L 589.81572 243.167239 
L 587.94916 246.861171 
L 586.071707 250.549096 
L 584.183984 254.231332 
L 582.28656 257.90818 
L 580.379956 261.579917 
L 578.464649 265.246806 
L 576.541077 268.909093 
L 574.609644 272.567007 
L 572.670722 276.220768 
L 570.724657 279.870579 
L 568.771766 283.516634 
L 566.812348 287.159115 
" style="fill:none;stroke:#808080;stroke-linecap:square;stroke-width:1.5;"/>
   </g>
   <g id="line2d_36">
    <path clip-path="url(#pd8b38cb46f)" d="M 566.812348 287.159115 
L 566.812348 138.720759 
L 627.226834 138.720759 
L 627.226834 287.159115 
L 566.812348 287.159115 
" style="fill:none;stroke:#d3d3d3;stroke-linecap:square;stroke-width:0.5;"/>
   </g>
   <g id="line2d_37">
    <path clip-path="url(#pd8b38cb46f)" d="M 566.812348 287.159115 
" style="fill:none;stroke:#808080;stroke-linecap:square;stroke-width:1.5;"/>
   </g>
   <g id="line2d_38">
    <path clip-path="url(#pd8b38cb46f)" d="M 566.812348 287.159115 
L 566.812348 287.159115 
L 566.812348 287.159115 
L 566.812348 287.159115 
L 566.812348 287.159115 
" style="fill:none;stroke:#d3d3d3;stroke-linecap:square;stroke-width:0.5;"/>
   </g>
   <g id="line2d_39">
    <path clip-path="url(#pd8b38cb46f)" d="M 568.396816 600.454871 
L 567.855976 599.733152 
L 565.425146 596.80553 
" style="fill:none;stroke:#000000;stroke-linecap:square;stroke-width:3;"/>
   </g>
   <g id="line2d_40">
    <path clip-path="url(#pd8b38cb46f)" d="M 565.425146 600.454871 
L 565.425146 596.80553 
L 568.396816 596.80553 
L 568.396816 600.454871 
L 565.425146 600.454871 
" style="fill:none;stroke:#d3d3d3;stroke-linecap:square;stroke-width:0.5;"/>
   </g>
   <g id="line2d_41">
    <path clip-path="url(#pd8b38cb46f)" d="M 254.289595 393.560665 
L 254.289595 393.560665 
L 250.47123 393.299088 
L 246.790346 393.23537 
L 243.388657 393.430923 
L 240.628149 393.927037 
L 239.445939 394.385128 
L 240.111231 393.34443 
L 240.237612 393.371788 
L 241.029051 395.41605 
L 242.58953 398.080664 
L 244.633939 400.910989 
L 246.988685 403.772424 
L 249.55431 406.619078 
L 252.270817 409.434652 
L 255.099963 412.214073 
L 258.01617 414.956812 
L 261.001625 417.664207 
L 264.043496 420.338305 
L 267.132268 422.981347 
L 270.260712 425.595538 
L 273.423216 428.182952 
L 276.615346 430.745491 
L 279.833539 433.28488 
L 283.074892 435.802677 
L 286.337009 438.300284 
L 289.617892 440.778961 
L 292.915856 443.239842 
L 296.229468 445.683949 
L 299.5575 448.112206 
L 302.89889 450.525445 
L 306.252716 452.924423 
L 309.618169 455.309826 
L 312.99454 457.682276 
L 316.381201 460.042342 
L 319.777592 462.390541 
" style="fill:none;stroke:#000000;stroke-linecap:square;stroke-width:3;"/>
   </g>
   <g id="line2d_42">
    <path clip-path="url(#pd8b38cb46f)" d="M 239.445939 462.390541 
L 239.445939 393.23537 
L 319.777592 393.23537 
L 319.777592 462.390541 
L 239.445939 462.390541 
" style="fill:none;stroke:#d3d3d3;stroke-linecap:square;stroke-width:0.5;"/>
   </g>
   <g id="line2d_43">
    <path clip-path="url(#pd8b38cb46f)" d="M 319.777592 462.390541 
L 323.183218 464.727346 
L 326.597633 467.053191 
L 330.020437 469.36847 
L 333.451269 471.673547 
L 336.889804 473.968755 
L 340.335749 476.254399 
L 343.788835 478.530758 
L 347.248821 480.798089 
L 350.715485 483.056626 
L 354.188626 485.306587 
L 357.668062 487.548166 
L 361.153625 489.781544 
L 364.645165 492.006884 
L 368.142541 494.224334 
L 371.645628 496.434028 
L 375.154313 498.636086 
L 378.66849 500.830616 
L 382.188068 503.017712 
L 385.712961 505.197457 
L 389.243095 507.369922 
L 392.778403 509.535168 
L 396.318827 511.693242 
L 399.864314 513.844183 
L 403.414822 515.988017 
L 406.970315 518.124762 
L 410.530763 520.254423 
L 414.096143 522.376994 
L 417.666441 524.492459 
L 421.241646 526.60079 
L 424.821757 528.701949 
L 428.406779 530.795883 
L 431.996722 532.882529 
L 435.591605 534.96181 
L 439.191453 537.033635 
L 442.796299 539.097899 
" style="fill:none;stroke:#000000;stroke-linecap:square;stroke-width:3;"/>
   </g>
   <g id="line2d_44">
    <path clip-path="url(#pd8b38cb46f)" d="M 319.777592 539.097899 
L 319.777592 462.390541 
L 442.796299 462.390541 
L 442.796299 539.097899 
L 319.777592 539.097899 
" style="fill:none;stroke:#d3d3d3;stroke-linecap:square;stroke-width:0.5;"/>
   </g>
   <g id="line2d_45">
    <path clip-path="url(#pd8b38cb46f)" d="M 442.796299 539.097899 
L 446.406183 541.154481 
L 450.021154 543.203243 
L 453.641266 545.24403 
L 457.266586 547.276665 
L 460.897187 549.300954 
L 464.533152 551.316674 
L 468.174575 553.323582 
L 471.821561 555.321401 
L 475.474226 557.309827 
L 479.132699 559.288516 
L 482.797121 561.257086 
L 486.467649 563.215109 
L 490.144455 565.162105 
L 493.827728 567.097532 
L 497.517672 569.020779 
L 501.214514 570.931156 
L 504.918496 572.827874 
L 508.629885 574.710032 
L 512.348963 576.576593 
L 516.076036 578.426355 
L 519.811422 580.257915 
L 523.555453 582.069621 
L 527.308458 583.859506 
L 531.070748 585.625206 
L 534.842583 587.36384 
L 538.624112 589.07184 
L 542.415275 590.744717 
L 546.215627 592.3767 
L 550.02401 593.960188 
L 553.837938 595.484878 
L 557.652359 596.936302 
L 561.457021 598.293256 
L 565.230321 599.522969 
L 568.92311 600.571423 
L 568.396816 600.454871 
" style="fill:none;stroke:#000000;stroke-linecap:square;stroke-width:3;"/>
   </g>
   <g id="line2d_46">
    <path clip-path="url(#pd8b38cb46f)" d="M 442.796299 600.571423 
L 442.796299 539.097899 
L 568.92311 539.097899 
L 568.92311 600.571423 
L 442.796299 600.571423 
" style="fill:none;stroke:#d3d3d3;stroke-linecap:square;stroke-width:0.5;"/>
   </g>
   <g id="line2d_47">
    <path clip-path="url(#pd8b38cb46f)" d="M 568.396816 600.454871 
" style="fill:none;stroke:#000000;stroke-linecap:square;stroke-width:3;"/>
   </g>
   <g id="line2d_48">
    <path clip-path="url(#pd8b38cb46f)" d="M 568.396816 600.454871 
L 568.396816 600.454871 
L 568.396816 600.454871 
L 568.396816 600.454871 
L 568.396816 600.454871 
" style="fill:none;stroke:#d3d3d3;stroke-linecap:square;stroke-width:0.5;"/>
   </g>
   <g id="line2d_49">
    <path clip-path="url(#pd8b38cb46f)" d="M 427.717024 431.735032 
L 427.078602 431.816732 
L 422.52729 432.202181 
L 417.975115 432.397391 
L 413.433398 432.40989 
L 408.911944 432.249267 
L 404.418811 431.926668 
L 399.96023 431.4543 
L 395.540647 430.844951 
L 391.162867 430.111595 
L 386.828252 429.267068 
L 382.536947 428.323837 
L 378.288109 427.29384 
L 374.080121 426.188393 
L 369.910785 425.018143 
L 365.777482 423.793068 
L 361.677311 422.522489 
L 357.607199 421.215108 
L 353.56399 419.879054 
L 349.544512 418.521928 
L 345.545632 417.150853 
L 341.564297 415.772524 
L 337.597568 414.393246 
L 333.642637 413.018981 
L 329.696854 411.655376 
L 325.757731 410.307797 
L 321.822961 408.981351 
L 317.890419 407.680907 
L 313.958173 406.411112 
L 310.024482 405.1764 
L 306.087805 403.981001 
L 302.146798 402.828943 
L 298.200315 401.724053 
L 294.247408 400.669952 
L 290.287327 399.670056 
L 286.319511 398.727562 
L 282.343586 397.845446 
L 278.359362 397.026454 
L 274.36682 396.273089 
L 270.366107 395.587609 
L 266.357521 394.972017 
L 262.341507 394.428055 
L 258.318636 393.9572 
L 254.289595 393.560665 
L 254.289595 393.560665 
" style="fill:none;stroke:#000000;stroke-linecap:square;stroke-width:3;"/>
   </g>
   <g id="line2d_50">
    <path clip-path="url(#pd8b38cb46f)" d="M 254.289595 432.40989 
L 254.289595 393.560665 
L 427.717024 393.560665 
L 427.717024 432.40989 
L 254.289595 432.40989 
" style="fill:none;stroke:#d3d3d3;stroke-linecap:square;stroke-width:0.5;"/>
   </g>
   <g id="line2d_51">
    <path clip-path="url(#pd8b38cb46f)" d="M 565.425146 596.80553 
L 562.788616 593.807376 
L 560.076306 590.817427 
L 557.310271 587.835567 
L 554.505227 584.860375 
L 551.671506 581.890073 
L 548.816659 578.922876 
L 545.946397 575.957108 
L 543.065155 572.991243 
L 540.176462 570.0239 
L 537.283187 567.053835 
L 534.387706 564.079919 
L 531.49202 561.101128 
L 528.597845 558.116521 
L 525.706672 555.125236 
L 522.819815 552.12647 
L 519.938451 549.119474 
L 517.063649 546.103546 
L 514.196387 543.07802 
L 511.337576 540.042266 
L 508.488075 536.995678 
L 505.648697 533.937676 
L 502.820227 530.867697 
L 500.003423 527.785197 
L 497.199029 524.689643 
L 494.407777 521.580514 
L 491.630398 518.457298 
L 488.86762 515.319488 
L 486.120176 512.166584 
L 483.388809 508.998087 
L 480.674273 505.813501 
L 477.977338 502.612332 
L 475.298794 499.394081 
L 472.639453 496.158252 
L 470.00015 492.904342 
L 467.381753 489.631848 
L 464.785157 486.340259 
L 462.211295 483.029063 
L 459.661138 479.697739 
L 457.135695 476.345762 
L 454.636024 472.972599 
L 452.163229 469.577711 
L 449.718468 466.160553 
L 447.302954 462.720573 
L 444.91796 459.257214 
L 442.564825 455.769911 
L 440.244956 452.258095 
L 437.959835 448.721195 
L 435.711022 445.158636 
L 433.500164 441.569841 
L 431.328997 437.954238 
L 429.19935 434.311256 
L 427.11316 430.640334 
L 427.717024 431.735032 
" style="fill:none;stroke:#000000;stroke-linecap:square;stroke-width:3;"/>
   </g>
   <g id="line2d_52">
    <path clip-path="url(#pd8b38cb46f)" d="M 427.11316 596.80553 
L 427.11316 430.640334 
L 565.425146 430.640334 
L 565.425146 596.80553 
L 427.11316 596.80553 
" style="fill:none;stroke:#d3d3d3;stroke-linecap:square;stroke-width:0.5;"/>
   </g>
   <g id="line2d_53">
    <path clip-path="url(#pd8b38cb46f)" d="M 565.425146 596.80553 
L 565.425146 596.80553 
L 565.425146 596.80553 
" style="fill:none;stroke:#000000;stroke-linecap:square;stroke-width:3;"/>
   </g>
   <g id="line2d_54">
    <path clip-path="url(#pd8b38cb46f)" d="M 565.425146 596.80553 
L 565.425146 596.80553 
L 565.425146 596.80553 
L 565.425146 596.80553 
L 565.425146 596.80553 
" style="fill:none;stroke:#d3d3d3;stroke-linecap:square;stroke-width:0.5;"/>
   </g>
   <g id="line2d_55">
    <path clip-path="url(#pd8b38cb46f)" d="M 565.425146 596.80553 
L 565.425146 596.80553 
L 565.425146 596.80553 
" style="fill:none;stroke:#000000;stroke-linecap:square;stroke-width:3;"/>
   </g>
   <g id="line2d_56">
    <path clip-path="url(#pd8b38cb46f)" d="M 565.425146 596.80553 
L 565.425146 596.80553 
L 565.425146 596.80553 
L 565.425146 596.80553 
L 565.425146 596.80553 
" style="fill:none;stroke:#d3d3d3;stroke-linecap:square;stroke-width:0.5;"/>
   </g>
   <g id="line2d_57">
    <path clip-path="url(#pd8b38cb46f)" d="M 483.546451 191.977693 
L 483.546451 191.977693 
L 483.546451 191.977693 
" style="fill:none;stroke:#000000;stroke-linecap:square;stroke-width:3;"/>
   </g>
   <g id="line2d_58">
    <path clip-path="url(#pd8b38cb46f)" d="M 483.546451 191.977693 
L 483.546451 191.977693 
L 483.546451 191.977693 
L 483.546451 191.977693 
L 483.546451 191.977693 
" style="fill:none;stroke:#d3d3d3;stroke-linecap:square;stroke-width:0.5;"/>
   </g>
   <g id="line2d_59">
    <path clip-path="url(#pd8b38cb46f)" d="M 483.546451 191.977693 
L 483.546451 191.977693 
L 483.546451 191.977693 
" style="fill:none;stroke:#000000;stroke-linecap:square;stroke-width:3;"/>
   </g>
   <g id="line2d_60">
    <path clip-path="url(#pd8b38cb46f)" d="M 483.546451 191.977693 
L 483.546451 191.977693 
L 483.546451 191.977693 
L 483.546451 191.977693 
L 483.546451 191.977693 
" style="fill:none;stroke:#d3d3d3;stroke-linecap:square;stroke-width:0.5;"/>
   </g>
   <g id="line2d_61">
    <path clip-path="url(#pd8b38cb46f)" d="M 578.15005 586.391047 
L 575.317077 583.169258 
L 572.462033 580.02185 
L 569.590994 576.926735 
L 566.708588 573.869458 
L 563.818455 570.84001 
L 560.923528 567.831145 
L 558.026219 564.837425 
L 555.128546 561.854645 
L 552.232228 558.879469 
L 549.338748 555.909192 
L 546.449404 552.941581 
L 543.565351 549.974757 
L 540.687626 547.007116 
L 537.817176 544.037273 
L 534.954873 541.064014 
L 532.10153 538.086261 
L 529.257915 535.103054 
L 526.424762 532.113521 
L 523.602775 529.116871 
L 520.79264 526.112374 
L 517.995029 523.099356 
L 515.210606 520.077188 
L 512.440031 517.045279 
L 509.683965 514.003072 
L 506.943072 510.950039 
L 504.218026 507.885674 
L 501.509509 504.809493 
L 498.818219 501.721032 
L 496.144868 498.619839 
L 493.49019 495.505479 
L 490.854939 492.377528 
L 488.239891 489.235571 
L 485.645853 486.079203 
L 483.073656 482.908029 
L 480.524165 479.721658 
L 477.99828 476.519711 
L 475.496935 473.301809 
L 473.021105 470.067586 
L 470.571806 466.816677 
L 468.150098 463.548725 
L 465.757091 460.263382 
L 463.393942 456.960303 
L 461.061865 453.639155 
L 458.76213 450.299611 
L 456.496067 446.941354 
L 454.265069 443.564081 
L 452.070599 440.1675 
L 449.914189 436.751334 
L 447.797447 433.315325 
L 445.722059 429.859235 
L 443.689794 426.382848 
L 444.817573 428.367311 
" style="fill:none;stroke:#000000;stroke-linecap:square;stroke-width:3;"/>
   </g>
   <g id="line2d_62">
    <path clip-path="url(#pd8b38cb46f)" d="M 443.689794 586.391047 
L 443.689794 426.382848 
L 578.15005 426.382848 
L 578.15005 586.391047 
L 443.689794 586.391047 
" style="fill:none;stroke:#d3d3d3;stroke-linecap:square;stroke-width:0.5;"/>
   </g>
   <g id="line2d_63">
    <path clip-path="url(#pd8b38cb46f)" d="M 574.169319 290.922925 
L 574.169319 290.922925 
L 572.183222 294.584265 
L 570.176562 298.236612 
L 568.148645 301.879553 
L 566.098737 305.512653 
L 564.026066 309.135442 
L 561.929818 312.747418 
L 559.809135 316.348045 
L 557.663111 319.936744 
L 555.490789 323.512897 
L 553.291155 327.075833 
L 551.063139 330.624835 
L 548.805606 334.159124 
L 546.517356 337.677859 
L 544.197112 341.180132 
L 541.843523 344.664954 
L 539.455153 348.131252 
L 537.030475 351.577861 
L 534.567867 355.003507 
L 532.065606 358.4068 
L 529.521857 361.78622 
L 526.934667 365.140102 
L 524.301962 368.466615 
L 521.621536 371.763746 
L 518.891042 375.029278 
L 516.107994 378.26076 
L 513.269755 381.455484 
L 510.373536 384.610448 
L 507.416402 387.722321 
L 504.395269 390.7874 
L 501.306923 393.801567 
L 498.148032 396.760239 
L 494.915182 399.658311 
L 491.604918 402.4901 
L 488.213809 405.249292 
L 484.738533 407.928883 
L 481.175988 410.521136 
L 477.52344 413.017554 
L 473.778697 415.408871 
L 469.940327 417.685093 
L 466.007894 419.835593 
L 461.982222 421.849265 
L 457.865652 423.714782 
L 453.662262 425.420934 
L 449.378027 426.957062 
L 445.020857 428.313558 
L 444.817573 428.367311 
" style="fill:none;stroke:#000000;stroke-linecap:square;stroke-width:3;"/>
   </g>
   <g id="line2d_64">
    <path clip-path="url(#pd8b38cb46f)" d="M 444.817573 428.367311 
L 444.817573 290.922925 
L 574.169319 290.922925 
L 574.169319 428.367311 
L 444.817573 428.367311 
" style="fill:none;stroke:#d3d3d3;stroke-linecap:square;stroke-width:0.5;"/>
   </g>
   <g id="line2d_65">
    <path clip-path="url(#pd8b38cb46f)" d="M 419.514766 416.205878 
L 413.718647 416.221687 
L 409.832191 416.083518 
L 405.93516 415.803611 
L 402.030553 415.389828 
L 398.120907 414.850684 
L 394.208264 414.19515 
L 390.294148 413.432463 
L 386.379576 412.571961 
L 382.465082 411.622946 
L 378.550749 410.594583 
L 374.636261 409.495815 
L 370.720955 408.33531 
L 366.803873 407.121434 
L 362.883819 405.862228 
L 358.959412 404.565411 
L 355.029129 403.238386 
L 351.091356 401.888253 
L 347.144425 400.521828 
L 343.186653 399.145664 
L 339.216377 397.766069 
L 335.231981 396.389126 
L 331.231932 395.020711 
L 327.214799 393.66651 
L 323.17928 392.332024 
L 319.124224 391.022586 
L 315.048654 389.743356 
L 310.951781 388.499328 
L 306.833021 387.295325 
L 302.692011 386.135991 
L 298.528618 385.025778 
L 294.342946 383.968939 
L 290.135342 382.969504 
L 285.906393 382.031267 
L 281.656924 381.157767 
L 277.387992 380.352263 
L 273.100869 379.617724 
L 268.797027 378.956801 
L 264.478118 378.371822 
L 260.14595 377.864774 
L 255.802461 377.437297 
L 255.802461 377.437297 
" style="fill:none;stroke:#000000;stroke-linecap:square;stroke-width:3;"/>
   </g>
   <g id="line2d_66">
    <path clip-path="url(#pd8b38cb46f)" d="M 255.802461 416.221687 
L 255.802461 377.437297 
L 419.514766 377.437297 
L 419.514766 416.221687 
L 255.802461 416.221687 
" style="fill:none;stroke:#d3d3d3;stroke-linecap:square;stroke-width:0.5;"/>
   </g>
   <g id="line2d_67">
    <path clip-path="url(#pd8b38cb46f)" d="M 255.802461 377.437297 
L 255.802461 377.437297 
L 251.248259 377.126206 
L 246.529494 377.046776 
L 241.537001 377.341138 
L 236.03517 378.36701 
L 229.629798 381.320381 
L 224.1429 388.856848 
L 224.018929 396.906024 
L 226.06576 402.461765 
L 228.617134 406.84728 
L 231.383441 410.683628 
L 234.280398 414.206145 
L 237.268627 417.522608 
L 240.325169 420.691059 
L 243.435131 423.746597 
L 246.588231 426.712276 
L 249.777058 429.604187 
L 252.996093 432.434084 
L 256.241114 435.210864 
L 259.508822 437.941455 
L 262.79659 440.631372 
L 266.10229 443.285095 
L 269.424175 445.906315 
L 272.760792 448.498119 
L 276.110919 451.063117 
L 279.473519 453.603535 
L 282.847704 456.121295 
L 286.232705 458.618062 
L 289.627855 461.095293 
L 293.032571 463.55427 
L 296.446337 465.996126 
L 299.868701 468.421867 
L 303.299256 470.832392 
L 306.737643 473.228506 
L 310.18354 475.610932 
L 313.636656 477.980324 
L 317.09673 480.337272 
" style="fill:none;stroke:#000000;stroke-linecap:square;stroke-width:3;"/>
   </g>
   <g id="line2d_68">
    <path clip-path="url(#pd8b38cb46f)" d="M 224.018929 480.337272 
L 224.018929 377.046776 
L 317.09673 377.046776 
L 317.09673 480.337272 
L 224.018929 480.337272 
" style="fill:none;stroke:#d3d3d3;stroke-linecap:square;stroke-width:0.5;"/>
   </g>
   <g id="line2d_69">
    <path clip-path="url(#pd8b38cb46f)" d="M 317.09673 480.337272 
L 320.563527 482.682311 
L 324.036835 485.015927 
L 327.51646 487.338562 
L 331.002229 489.650621 
L 334.493984 491.952472 
L 337.991582 494.244451 
L 341.494893 496.526865 
L 345.003801 498.799995 
L 348.518201 501.0641 
L 352.037997 503.319412 
L 355.563106 505.566148 
L 359.093451 507.804502 
L 362.628968 510.034652 
L 366.169597 512.256759 
L 369.715288 514.470969 
L 373.266001 516.677412 
L 376.821699 518.876206 
L 380.382355 521.067455 
L 383.94795 523.25125 
L 387.518469 525.427669 
L 391.093906 527.59678 
L 394.674262 529.758637 
L 398.259545 531.913285 
L 401.84977 534.060757 
L 405.444958 536.201073 
L 409.045139 538.334245 
L 412.650351 540.460271 
L 416.260639 542.57914 
L 419.876056 544.690827 
L 423.496665 546.795298 
L 427.122539 548.892504 
L 430.753759 550.982384 
L 434.390417 553.064865 
L 438.032619 555.139858 
L 441.68048 557.207261 
L 445.334132 559.266955 
L 448.993718 561.318803 
" style="fill:none;stroke:#000000;stroke-linecap:square;stroke-width:3;"/>
   </g>
   <g id="line2d_70">
    <path clip-path="url(#pd8b38cb46f)" d="M 317.09673 561.318803 
L 317.09673 480.337272 
L 448.993718 480.337272 
L 448.993718 561.318803 
L 317.09673 561.318803 
" style="fill:none;stroke:#d3d3d3;stroke-linecap:square;stroke-width:0.5;"/>
   </g>
   <g id="line2d_71">
    <path clip-path="url(#pd8b38cb46f)" d="M 448.993718 561.318803 
L 452.659401 563.362652 
L 456.33136 565.398326 
L 460.009794 567.425631 
L 463.694925 569.444346 
L 467.387 571.454225 
L 471.086293 573.454991 
L 474.79311 575.446337 
L 478.507796 577.427915 
L 482.230735 579.399338 
L 485.962358 581.360171 
L 489.703155 583.309923 
L 493.453677 585.248039 
L 497.214556 587.173891 
L 500.98651 589.086762 
L 504.770368 590.985833 
L 508.56709 592.87016 
L 512.377794 594.738647 
L 516.203797 596.590014 
L 520.046662 598.42275 
L 523.908266 600.235053 
L 527.790893 602.024747 
L 531.69736 603.789166 
L 535.631214 605.524989 
L 539.59701 607.227991 
L 543.600763 608.89267 
L 547.650699 610.511639 
L 551.758584 612.074607 
L 555.942318 613.56652 
L 560.231626 614.963862 
L 564.682794 616.226164 
L 569.427586 617.271274 
L 574.912661 617.857059 
L 583.573526 615.861259 
L 588.734998 604.078328 
L 586.455461 597.848079 
L 583.778439 593.537956 
L 580.997689 589.822083 
" style="fill:none;stroke:#000000;stroke-linecap:square;stroke-width:3;"/>
   </g>
   <g id="line2d_72">
    <path clip-path="url(#pd8b38cb46f)" d="M 448.993718 617.857059 
L 448.993718 561.318803 
L 588.734998 561.318803 
L 588.734998 617.857059 
L 448.993718 617.857059 
" style="fill:none;stroke:#d3d3d3;stroke-linecap:square;stroke-width:0.5;"/>
   </g>
   <g id="line2d_73">
    <path clip-path="url(#pd8b38cb46f)" d="M 580.997689 589.822083 
L 578.15005 586.391047 
" style="fill:none;stroke:#000000;stroke-linecap:square;stroke-width:3;"/>
   </g>
   <g id="line2d_74">
    <path clip-path="url(#pd8b38cb46f)" d="M 578.15005 589.822083 
L 578.15005 586.391047 
L 580.997689 586.391047 
L 580.997689 589.822083 
L 578.15005 589.822083 
" style="fill:none;stroke:#d3d3d3;stroke-linecap:square;stroke-width:0.5;"/>
   </g>
   <g id="line2d_75">
    <path clip-path="url(#pd8b38cb46f)" d="M 419.514766 416.205878 
L 419.245543 415.666513 
L 417.409644 411.848049 
L 415.631298 407.998715 
L 413.913329 404.118163 
L 412.258711 400.206114 
L 410.670572 396.26237 
L 409.152198 392.286829 
L 407.707032 388.279502 
L 406.338674 384.240533 
L 405.050876 380.170221 
L 403.847536 376.069039 
L 402.732687 371.937664 
L 401.710477 367.777 
L 400.785153 363.588204 
L 399.961032 359.372715 
L 399.242462 355.132279 
L 398.633787 350.868973 
L 398.139293 346.585225 
L 397.763155 342.283834 
L 397.509373 337.967971 
L 397.381703 333.641188 
L 397.383585 329.307403 
L 397.518069 324.970881 
L 397.787745 320.6362 
L 398.194669 316.308203 
L 398.74031 311.991942 
L 399.425494 307.692605 
L 400.250377 303.415442 
L 401.21442 299.165676 
L 402.316395 294.948421 
L 403.554404 290.768596 
L 404.925911 286.63085 
L 406.427799 282.53949 
L 408.056436 278.498425 
L 409.807746 274.511127 
L 411.677291 270.580596 
L 413.660358 266.709354 
L 415.752033 262.899438 
L 417.947281 259.152418 
L 420.241018 255.469415 
L 422.628171 251.851131 
L 425.103732 248.297887 
L 427.662803 244.809658 
L 430.300631 241.386114 
L 433.012638 238.026663 
L 435.794434 234.730484 
L 438.641839 231.496568 
L 441.550886 228.323751 
L 444.517822 225.210745 
L 447.539113 222.156164 
L 450.611435 219.158551 
L 453.731671 216.216398 
L 456.896903 213.328161 
L 460.1044 210.492283 
L 463.351615 207.7072 
L 466.636169 204.971355 
L 469.955844 202.283209 
L 473.308572 199.641242 
L 476.692426 197.043966 
L 480.105611 194.489923 
L 483.546451 191.977693 
" style="fill:none;stroke:#000000;stroke-linecap:square;stroke-width:3;"/>
   </g>
   <g id="line2d_76">
    <path clip-path="url(#pd8b38cb46f)" d="M 397.381703 416.205878 
L 397.381703 191.977693 
L 483.546451 191.977693 
L 483.546451 416.205878 
L 397.381703 416.205878 
" style="fill:none;stroke:#d3d3d3;stroke-linecap:square;stroke-width:0.5;"/>
   </g>
   <g id="line2d_77">
    <path clip-path="url(#pd8b38cb46f)" d="M 483.546451 191.977693 
L 486.955893 189.523615 
L 490.371814 187.076167 
L 493.794591 184.635671 
L 497.224633 182.202481 
L 500.662377 179.776981 
L 504.108301 177.359591 
L 507.562922 174.950772 
L 511.026802 172.551029 
L 514.500554 170.16092 
L 517.984853 167.781062 
L 521.480436 165.412139 
L 524.988122 163.054912 
L 528.508812 160.710234 
L 532.043516 158.379059 
L 535.593358 156.062467 
L 539.159607 153.761677 
L 542.743697 151.478083 
L 546.347261 149.213279 
L 549.972177 146.969107 
L 553.620615 144.747709 
L 557.295113 142.551593 
L 560.998665 140.38373 
L 564.734847 138.247673 
L 568.507991 136.147721 
L 572.32342 134.089159 
L 576.187801 132.078584 
L 580.109658 130.124398 
L 584.100166 128.237569 
L 588.174416 126.432837 
L 592.353518 124.730773 
L 596.668281 123.161522 
L 601.165942 121.77221 
L 605.922849 120.643285 
L 611.067204 119.929205 
L 616.800292 119.969707 
L 623.240947 121.54488 
L 629.44898 125.694631 
L 633.385435 131.595648 
L 635.068142 137.404826 
L 635.535392 142.699132 
" style="fill:none;stroke:#000000;stroke-linecap:square;stroke-width:3;"/>
   </g>
   <g id="line2d_78">
    <path clip-path="url(#pd8b38cb46f)" d="M 483.546451 191.977693 
L 483.546451 119.929205 
L 635.535392 119.929205 
L 635.535392 191.977693 
L 483.546451 191.977693 
" style="fill:none;stroke:#d3d3d3;stroke-linecap:square;stroke-width:0.5;"/>
   </g>
   <g id="line2d_79">
    <path clip-path="url(#pd8b38cb46f)" d="M 635.535392 142.699132 
L 635.36533 147.606358 
L 634.816765 152.256029 
L 634.017214 156.729077 
L 633.037728 161.074792 
L 631.922008 165.324429 
L 630.699001 169.498805 
L 629.388973 173.612422 
L 628.006738 177.675784 
L 626.563487 181.696755 
L 625.067907 185.681385 
L 623.526892 189.634442 
L 621.946015 193.559757 
L 620.329848 197.460464 
L 618.682199 201.339166 
L 617.00627 205.198052 
L 615.304784 209.038981 
L 613.580078 212.863556 
L 611.834173 216.673163 
L 610.068827 220.469015 
L 608.285583 224.25218 
L 606.4858 228.023605 
L 604.670684 231.784135 
L 602.841308 235.534526 
L 600.998631 239.27546 
L 599.143515 243.007556 
L 597.276737 246.731373 
L 595.399001 250.447425 
L 593.510944 254.156179 
L 591.613147 257.858067 
L 589.70614 261.553486 
L 587.790408 265.242802 
L 585.866397 268.926356 
L 583.934516 272.604462 
L 581.995142 276.277416 
L 580.048624 279.945491 
L 578.095285 283.608943 
L 576.135424 287.268013 
L 574.169319 290.922925 
L 574.169319 290.922925 
" style="fill:none;stroke:#000000;stroke-linecap:square;stroke-width:3;"/>
   </g>
   <g id="line2d_80">
    <path clip-path="url(#pd8b38cb46f)" d="M 574.169319 290.922925 
L 574.169319 142.699132 
L 635.535392 142.699132 
L 635.535392 290.922925 
L 574.169319 290.922925 
" style="fill:none;stroke:#d3d3d3;stroke-linecap:square;stroke-width:0.5;"/>
   </g>
   <g id="line2d_81">
    <path clip-path="url(#pd8b38cb46f)" d="M 578.15005 586.391047 
L 578.15005 586.391047 
L 578.15005 586.391047 
" style="fill:none;stroke:#000000;stroke-linecap:square;stroke-width:3;"/>
   </g>
   <g id="line2d_82">
    <path clip-path="url(#pd8b38cb46f)" d="M 578.15005 586.391047 
L 578.15005 586.391047 
L 578.15005 586.391047 
L 578.15005 586.391047 
L 578.15005 586.391047 
" style="fill:none;stroke:#d3d3d3;stroke-linecap:square;stroke-width:0.5;"/>
   </g>
   <g id="line2d_83">
    <path clip-path="url(#pd8b38cb46f)" d="M 578.15005 586.391047 
L 578.15005 586.391047 
L 578.15005 586.391047 
" style="fill:none;stroke:#000000;stroke-linecap:square;stroke-width:3;"/>
   </g>
   <g id="line2d_84">
    <path clip-path="url(#pd8b38cb46f)" d="M 578.15005 586.391047 
L 578.15005 586.391047 
L 578.15005 586.391047 
L 578.15005 586.391047 
L 578.15005 586.391047 
" style="fill:none;stroke:#d3d3d3;stroke-linecap:square;stroke-width:0.5;"/>
   </g>
   <g id="line2d_85">
    <path clip-path="url(#pd8b38cb46f)" d="M 436.756941 413.726524 
L 434.243495 408.691091 
L 432.512214 405.090247 
L 430.839056 401.468627 
L 429.226572 397.826378 
L 427.67742 394.163722 
L 426.194365 390.480968 
L 424.780274 386.778517 
L 423.438116 383.056874 
L 422.170952 379.31666 
L 420.981932 375.55862 
L 419.87428 371.783634 
L 418.851282 367.992731 
L 417.916271 364.187091 
L 417.072606 360.368064 
L 416.323645 356.537168 
L 415.672723 352.6961 
L 415.123119 348.846739 
L 414.678021 344.991143 
L 414.34049 341.131552 
L 414.113417 337.270374 
L 413.999489 333.410181 
L 414.00114 329.553688 
L 414.120513 325.70374 
L 414.359422 321.863284 
L 414.719314 318.035344 
L 415.201241 314.222993 
L 415.80583 310.429316 
L 416.533271 306.657384 
L 417.383303 302.910212 
L 418.355215 299.190732 
L 419.44785 295.501756 
L 420.659625 291.845951 
L 421.988552 288.225811 
L 423.43227 284.643632 
L 424.988078 281.101499 
L 426.652981 277.601266 
L 428.423731 274.144554 
L 430.296875 270.732743 
L 432.268795 267.366971 
L 434.335761 264.048142 
L 436.493967 260.776932 
L 438.73957 257.5538 
L 441.068731 254.379003 
L 443.47764 251.252608 
L 445.962545 248.174512 
L 448.519779 245.144455 
L 451.145769 242.162043 
L 453.83706 239.226756 
L 456.59032 236.337973 
L 459.402351 233.494984 
L 462.270091 230.697001 
L 465.19062 227.943177 
L 468.161158 225.232615 
L 471.179063 222.56438 
L 474.241833 219.937508 
L 477.3471 217.351014 
L 480.492623 214.803902 
L 483.676288 212.29517 
L 486.8961 209.823814 
L 490.15018 207.388837 
L 493.436755 204.989248 
" style="fill:none;stroke:#000000;stroke-linecap:square;stroke-width:3;"/>
   </g>
   <g id="line2d_86">
    <path clip-path="url(#pd8b38cb46f)" d="M 413.999489 413.726524 
L 413.999489 204.989248 
L 493.436755 204.989248 
L 493.436755 413.726524 
L 413.999489 413.726524 
" style="fill:none;stroke:#d3d3d3;stroke-linecap:square;stroke-width:0.5;"/>
   </g>
   <g id="line2d_87">
    <path clip-path="url(#pd8b38cb46f)" d="M 493.436755 204.989248 
L 496.817536 202.5558 
L 500.203272 200.129977 
L 503.594216 197.712179 
L 506.990633 195.30284 
L 510.392808 192.902437 
L 513.801039 190.511489 
L 517.215644 188.13057 
L 520.636962 185.760312 
L 524.065352 183.401414 
L 527.501194 181.054652 
L 530.944895 178.720888 
L 534.396884 176.401088 
L 537.857622 174.096334 
L 541.327593 171.807849 
L 544.807314 169.537013 
L 548.297331 167.285401 
L 551.79822 165.054813 
L 555.310581 162.847324 
L 558.835041 160.665336 
L 562.372239 158.511658 
L 565.922814 156.389595 
L 569.487379 154.30307 
L 573.066482 152.256796 
L 576.660538 150.256487 
L 580.269712 148.309165 
L 583.89374 146.423581 
L 587.531598 144.610818 
L 591.180947 142.885164 
L 594.837108 141.265412 
L 598.491151 139.776829 
L 602.12612 138.454159 
L 605.709236 137.346074 
L 609.174869 136.520889 
L 612.386581 136.068693 
L 615.06232 136.071524 
L 616.75077 136.449871 
L 617.453033 136.900156 
L 618.078175 137.901234 
L 618.669712 140.036692 
L 618.918276 142.97214 
" style="fill:none;stroke:#000000;stroke-linecap:square;stroke-width:3;"/>
   </g>
   <g id="line2d_88">
    <path clip-path="url(#pd8b38cb46f)" d="M 493.436755 204.989248 
L 493.436755 136.068693 
L 618.918276 136.068693 
L 618.918276 204.989248 
L 493.436755 204.989248 
" style="fill:none;stroke:#d3d3d3;stroke-linecap:square;stroke-width:0.5;"/>
   </g>
   <g id="line2d_89">
    <path clip-path="url(#pd8b38cb46f)" d="M 618.918276 142.97214 
L 618.797912 146.325862 
L 618.375242 149.893056 
L 617.716718 153.572199 
L 616.87354 157.311067 
L 615.8834 161.081362 
L 614.774108 164.867045 
L 613.56651 168.658699 
L 612.276527 172.450663 
L 610.916551 176.239493 
L 609.496391 180.023097 
L 608.023934 183.800225 
L 606.505613 187.570166 
L 604.94674 191.33256 
L 603.35175 195.087274 
L 601.724383 198.834323 
L 600.067824 202.573822 
L 598.384803 206.305947 
L 596.677683 210.030916 
L 594.948516 213.748969 
L 593.199101 217.460358 
L 591.431023 221.165344 
L 589.645681 224.864184 
L 587.844322 228.557133 
L 586.028058 232.244443 
L 584.197885 235.926355 
L 582.354702 239.603104 
L 580.499319 243.274917 
L 578.632469 246.942012 
L 576.75482 250.604597 
L 574.86698 254.262873 
L 572.969504 257.917032 
L 571.062901 261.567256 
L 569.147638 265.213723 
L 567.224146 268.856599 
L 565.29282 272.496045 
L 563.354028 276.132214 
L 561.408108 279.765255 
L 559.455377 283.395306 
L 559.455377 283.395306 
" style="fill:none;stroke:#000000;stroke-linecap:square;stroke-width:3;"/>
   </g>
   <g id="line2d_90">
    <path clip-path="url(#pd8b38cb46f)" d="M 559.455377 283.395306 
L 559.455377 142.97214 
L 618.918276 142.97214 
L 618.918276 283.395306 
L 559.455377 283.395306 
" style="fill:none;stroke:#d3d3d3;stroke-linecap:square;stroke-width:0.5;"/>
   </g>
   <g id="line2d_91">
    <path clip-path="url(#pd8b38cb46f)" d="M 559.455377 283.395306 
L 559.455377 283.395306 
L 557.509652 286.982222 
L 555.545199 290.557751 
L 553.561442 294.121366 
L 551.557782 297.672503 
L 549.533589 301.210561 
L 547.488206 304.734898 
L 545.420946 308.244825 
L 543.331088 311.739605 
L 541.217879 315.218447 
L 539.080528 318.680504 
L 536.91821 322.124861 
L 534.730058 325.550538 
L 532.515164 328.956477 
L 530.272579 332.341537 
L 528.001307 335.704486 
L 525.700306 339.043993 
L 523.368487 342.358616 
L 521.004709 345.646795 
L 518.607782 348.906838 
L 516.176463 352.136907 
L 513.709457 355.335007 
L 511.205416 358.498966 
L 508.662944 361.626423 
L 506.080595 364.714805 
L 503.456876 367.76131 
L 500.790258 370.762885 
L 498.079178 373.716202 
L 495.322054 376.617634 
L 492.517294 379.463233 
L 489.663318 382.248704 
L 486.758578 384.969383 
L 483.801587 387.620216 
L 480.790953 390.195746 
L 477.725418 392.690101 
L 474.603906 395.096998 
L 471.425574 397.409762 
L 468.189874 399.621362 
L 464.896608 401.724467 
L 461.545987 403.711541 
L 458.138685 405.574963 
L 454.67588 407.307182 
L 451.159273 408.900904 
L 447.591093 410.349309 
L 443.974066 411.646277 
L 440.311371 412.786619 
L 436.756941 413.726524 
" style="fill:none;stroke:#000000;stroke-linecap:square;stroke-width:3;"/>
   </g>
   <g id="line2d_92">
    <path clip-path="url(#pd8b38cb46f)" d="M 436.756941 413.726524 
L 436.756941 283.395306 
L 559.455377 283.395306 
L 559.455377 413.726524 
L 436.756941 413.726524 
" style="fill:none;stroke:#d3d3d3;stroke-linecap:square;stroke-width:0.5;"/>
   </g>
   <g id="line2d_93">
    <path clip-path="url(#pd8b38cb46f)" d="M 493.436755 204.989248 
L 493.436755 204.989248 
L 493.436755 204.989248 
" style="fill:none;stroke:#000000;stroke-linecap:square;stroke-width:3;"/>
   </g>
   <g id="line2d_94">
    <path clip-path="url(#pd8b38cb46f)" d="M 493.436755 204.989248 
L 493.436755 204.989248 
L 493.436755 204.989248 
L 493.436755 204.989248 
L 493.436755 204.989248 
" style="fill:none;stroke:#d3d3d3;stroke-linecap:square;stroke-width:0.5;"/>
   </g>
   <g id="line2d_95">
    <path clip-path="url(#pd8b38cb46f)" d="M 493.436755 204.989248 
L 493.436755 204.989248 
L 493.436755 204.989248 
" style="fill:none;stroke:#000000;stroke-linecap:square;stroke-width:3;"/>
   </g>
   <g id="line2d_96">
    <path clip-path="url(#pd8b38cb46f)" d="M 493.436755 204.989248 
L 493.436755 204.989248 
L 493.436755 204.989248 
L 493.436755 204.989248 
L 493.436755 204.989248 
" style="fill:none;stroke:#d3d3d3;stroke-linecap:square;stroke-width:0.5;"/>
   </g>
   <g id="line2d_97">
    <path clip-path="url(#pd8b38cb46f)" d="M 438.603531 409.481406 
L 440.19747 409.581099 
L 441.765236 409.878542 
L 443.281087 410.368851 
L 444.720133 411.043975 
L 446.058745 411.892828 
L 447.274942 412.901473 
L 448.348754 414.053347 
L 449.262551 415.329536 
L 450.001326 416.709086 
L 450.55295 418.169345 
L 450.908365 419.686335 
L 451.061735 421.235146 
L 451.010542 422.790349 
L 450.755626 424.326405 
L 450.301172 425.818094 
L 449.654644 427.240922 
L 448.826657 428.571526 
L 447.830806 429.788057 
L 446.683444 430.87054 
L 445.40341 431.801201 
L 444.011722 432.564759 
L 442.531232 433.148675 
L 440.986248 433.543362 
L 439.402141 433.742339 
L 437.804921 433.742339 
L 436.220814 433.543362 
L 434.67583 433.148675 
L 433.19534 432.564759 
L 431.803652 431.801201 
L 430.523618 430.87054 
L 429.376256 429.788057 
L 428.380405 428.571526 
L 427.552418 427.240922 
L 426.90589 425.818094 
L 426.451436 424.326405 
L 426.19652 422.790349 
L 426.145327 421.235146 
L 426.298697 419.686335 
L 426.654112 418.169345 
L 427.205736 416.709086 
L 427.944511 415.329536 
L 428.858308 414.053347 
L 429.93212 412.901473 
L 431.148317 411.892828 
L 432.486929 411.043975 
L 433.925975 410.368851 
L 435.441826 409.878542 
L 437.009592 409.581099 
L 438.603531 409.481406 
" style="fill:none;stroke:#808080;stroke-linecap:square;stroke-width:1.5;"/>
   </g>
   <g id="line2d_98">
    <path clip-path="url(#pd8b38cb46f)" d="M 255.046028 373.35604 
L 256.639967 373.455733 
L 258.207733 373.753176 
L 259.723584 374.243485 
L 261.16263 374.918609 
L 262.501242 375.767462 
L 263.717439 376.776107 
L 264.791251 377.927981 
L 265.705048 379.20417 
L 266.443823 380.58372 
L 266.995447 382.043979 
L 267.350862 383.560969 
L 267.504232 385.10978 
L 267.453039 386.664983 
L 267.198123 388.201039 
L 266.743669 389.692728 
L 266.097141 391.115556 
L 265.269154 392.44616 
L 264.273303 393.662691 
L 263.125941 394.745174 
L 261.845907 395.675835 
L 260.454219 396.439393 
L 258.973729 397.023309 
L 257.428745 397.417996 
L 255.844638 397.616973 
L 254.247418 397.616973 
L 252.66331 397.417996 
L 251.118327 397.023309 
L 249.637837 396.439393 
L 248.246149 395.675835 
L 246.966115 394.745174 
L 245.818753 393.662691 
L 244.822902 392.44616 
L 243.994915 391.115556 
L 243.348387 389.692728 
L 242.893933 388.201039 
L 242.639017 386.664983 
L 242.587824 385.10978 
L 242.741194 383.560969 
L 243.096609 382.043979 
L 243.648233 380.58372 
L 244.387008 379.20417 
L 245.300805 377.927981 
L 246.374617 376.776107 
L 247.590814 375.767462 
L 248.929426 374.918609 
L 250.368472 374.243485 
L 251.884323 373.753176 
L 253.452089 373.455733 
L 255.046028 373.35604 
" style="fill:none;stroke:#808080;stroke-linecap:square;stroke-width:1.5;"/>
   </g>
   <g id="line2d_99">
    <path clip-path="url(#pd8b38cb46f)" d="M 325.291982 463.882449 
L 326.885921 463.982143 
L 328.453687 464.279586 
L 329.969538 464.769895 
L 331.408584 465.445019 
L 332.747195 466.293872 
L 333.963392 467.302517 
L 335.037205 468.45439 
L 335.951002 469.73058 
L 336.689777 471.11013 
L 337.241401 472.570389 
L 337.596816 474.087378 
L 337.750186 475.63619 
L 337.698993 477.191392 
L 337.444077 478.727449 
L 336.989623 480.219138 
L 336.343095 481.641966 
L 335.515108 482.972569 
L 334.519257 484.189101 
L 333.371895 485.271584 
L 332.091861 486.202245 
L 330.700173 486.965802 
L 329.219682 487.549718 
L 327.674699 487.944405 
L 326.090592 488.143383 
L 324.493372 488.143383 
L 322.909264 487.944405 
L 321.364281 487.549718 
L 319.883791 486.965802 
L 318.492103 486.202245 
L 317.212069 485.271584 
L 316.064706 484.189101 
L 315.068856 482.972569 
L 314.240869 481.641966 
L 313.59434 480.219138 
L 313.139887 478.727449 
L 312.884971 477.191392 
L 312.833777 475.63619 
L 312.987147 474.087378 
L 313.342562 472.570389 
L 313.894186 471.11013 
L 314.632962 469.73058 
L 315.546759 468.45439 
L 316.620571 467.302517 
L 317.836768 466.293872 
L 319.17538 465.445019 
L 320.614426 464.769895 
L 322.130277 464.279586 
L 323.698043 463.982143 
L 325.291982 463.882449 
" style="fill:none;stroke:#808080;stroke-linecap:square;stroke-width:1.5;"/>
   </g>
   <g id="line2d_100">
    <path clip-path="url(#pd8b38cb46f)" d="M 456.778294 544.188862 
L 458.372233 544.288555 
L 459.939999 544.585998 
L 461.45585 545.076307 
L 462.894896 545.751431 
L 464.233507 546.600284 
L 465.449704 547.608929 
L 466.523517 548.760803 
L 467.437314 550.036992 
L 468.176089 551.416542 
L 468.727713 552.876801 
L 469.083128 554.393791 
L 469.236498 555.942602 
L 469.185305 557.497805 
L 468.930389 559.033861 
L 468.475935 560.52555 
L 467.829407 561.948378 
L 467.00142 563.278982 
L 466.005569 564.495513 
L 464.858207 565.577996 
L 463.578173 566.508657 
L 462.186485 567.272215 
L 460.705994 567.856131 
L 459.161011 568.250818 
L 457.576904 568.449795 
L 455.979684 568.449795 
L 454.395576 568.250818 
L 452.850593 567.856131 
L 451.370103 567.272215 
L 449.978415 566.508657 
L 448.698381 565.577996 
L 447.551018 564.495513 
L 446.555168 563.278982 
L 445.727181 561.948378 
L 445.080652 560.52555 
L 444.626199 559.033861 
L 444.371283 557.497805 
L 444.320089 555.942602 
L 444.473459 554.393791 
L 444.828874 552.876801 
L 445.380499 551.416542 
L 446.119274 550.036992 
L 447.033071 548.760803 
L 448.106883 547.608929 
L 449.32308 546.600284 
L 450.661692 545.751431 
L 452.100738 545.076307 
L 453.616589 544.585998 
L 455.184355 544.288555 
L 456.778294 544.188862 
" style="fill:none;stroke:#808080;stroke-linecap:square;stroke-width:1.5;"/>
   </g>
   <g id="line2d_101">
    <path clip-path="url(#pd8b38cb46f)" d="M 571.787598 579.455347 
L 573.381537 579.55504 
L 574.949303 579.852484 
L 576.465154 580.342793 
L 577.9042 581.017916 
L 579.242811 581.86677 
L 580.459008 582.875414 
L 581.532821 584.027288 
L 582.446618 585.303478 
L 583.185393 586.683028 
L 583.737017 588.143286 
L 584.092432 589.660276 
L 584.245802 591.209088 
L 584.194609 592.76429 
L 583.939693 594.300347 
L 583.485239 595.792036 
L 582.838711 597.214863 
L 582.010724 598.545467 
L 581.014873 599.761998 
L 579.867511 600.844482 
L 578.587477 601.775143 
L 577.195789 602.5387 
L 575.715298 603.122616 
L 574.170315 603.517303 
L 572.586208 603.71628 
L 570.988988 603.71628 
L 569.40488 603.517303 
L 567.859897 603.122616 
L 566.379407 602.5387 
L 564.987719 601.775143 
L 563.707685 600.844482 
L 562.560322 599.761998 
L 561.564472 598.545467 
L 560.736485 597.214863 
L 560.089956 595.792036 
L 559.635503 594.300347 
L 559.380587 592.76429 
L 559.329394 591.209088 
L 559.482763 589.660276 
L 559.838178 588.143286 
L 560.389803 586.683028 
L 561.128578 585.303478 
L 562.042375 584.027288 
L 563.116187 582.875414 
L 564.332384 581.86677 
L 565.670996 581.017916 
L 567.110042 580.342793 
L 568.625893 579.852484 
L 570.193659 579.55504 
L 571.787598 579.455347 
" style="fill:none;stroke:#808080;stroke-linecap:square;stroke-width:1.5;"/>
   </g>
   <g id="line2d_102">
    <path clip-path="url(#pd8b38cb46f)" d="M 571.787598 579.455347 
L 573.381537 579.55504 
L 574.949303 579.852484 
L 576.465154 580.342793 
L 577.9042 581.017916 
L 579.242811 581.86677 
L 580.459008 582.875414 
L 581.532821 584.027288 
L 582.446618 585.303478 
L 583.185393 586.683028 
L 583.737017 588.143286 
L 584.092432 589.660276 
L 584.245802 591.209088 
L 584.194609 592.76429 
L 583.939693 594.300347 
L 583.485239 595.792036 
L 582.838711 597.214863 
L 582.010724 598.545467 
L 581.014873 599.761998 
L 579.867511 600.844482 
L 578.587477 601.775143 
L 577.195789 602.5387 
L 575.715298 603.122616 
L 574.170315 603.517303 
L 572.586208 603.71628 
L 570.988988 603.71628 
L 569.40488 603.517303 
L 567.859897 603.122616 
L 566.379407 602.5387 
L 564.987719 601.775143 
L 563.707685 600.844482 
L 562.560322 599.761998 
L 561.564472 598.545467 
L 560.736485 597.214863 
L 560.089956 595.792036 
L 559.635503 594.300347 
L 559.380587 592.76429 
L 559.329394 591.209088 
L 559.482763 589.660276 
L 559.838178 588.143286 
L 560.389803 586.683028 
L 561.128578 585.303478 
L 562.042375 584.027288 
L 563.116187 582.875414 
L 564.332384 581.86677 
L 565.670996 581.017916 
L 567.110042 580.342793 
L 568.625893 579.852484 
L 570.193659 579.55504 
L 571.787598 579.455347 
" style="fill:none;stroke:#808080;stroke-linecap:square;stroke-width:1.5;"/>
   </g>
   <g id="line2d_103">
    <path clip-path="url(#pd8b38cb46f)" d="M 463.85375 459.438278 
L 465.447689 459.537971 
L 467.015456 459.835415 
L 468.531307 460.325724 
L 469.970353 461.000847 
L 471.308964 461.849701 
L 472.525161 462.858345 
L 473.598974 464.010219 
L 474.51277 465.286409 
L 475.251546 466.665959 
L 475.80317 468.126217 
L 476.158585 469.643207 
L 476.311955 471.192019 
L 476.260761 472.747221 
L 476.005845 474.283278 
L 475.551392 475.774967 
L 474.904864 477.197794 
L 474.076876 478.528398 
L 473.081026 479.744929 
L 471.933664 480.827413 
L 470.653629 481.758074 
L 469.261941 482.521631 
L 467.781451 483.105547 
L 466.236468 483.500234 
L 464.652361 483.699211 
L 463.05514 483.699211 
L 461.471033 483.500234 
L 459.92605 483.105547 
L 458.44556 482.521631 
L 457.053872 481.758074 
L 455.773837 480.827413 
L 454.626475 479.744929 
L 453.630624 478.528398 
L 452.802637 477.197794 
L 452.156109 475.774967 
L 451.701656 474.283278 
L 451.44674 472.747221 
L 451.395546 471.192019 
L 451.548916 469.643207 
L 451.904331 468.126217 
L 452.455955 466.665959 
L 453.194731 465.286409 
L 454.108527 464.010219 
L 455.18234 462.858345 
L 456.398537 461.849701 
L 457.737148 461.000847 
L 459.176194 460.325724 
L 460.692045 459.835415 
L 462.259812 459.537971 
L 463.85375 459.438278 
" style="fill:none;stroke:#808080;stroke-linecap:square;stroke-width:1.5;"/>
   </g>
   <g id="line2d_104">
    <path clip-path="url(#pd8b38cb46f)" d="M 405.819291 313.194369 
L 407.41323 313.294063 
L 408.980996 313.591506 
L 410.496847 314.081815 
L 411.935893 314.756939 
L 413.274505 315.605792 
L 414.490702 316.614436 
L 415.564514 317.76631 
L 416.478311 319.0425 
L 417.217086 320.42205 
L 417.76871 321.882309 
L 418.124125 323.399298 
L 418.277495 324.94811 
L 418.226302 326.503312 
L 417.971386 328.039369 
L 417.516932 329.531058 
L 416.870404 330.953886 
L 416.042417 332.284489 
L 415.046566 333.50102 
L 413.899204 334.583504 
L 412.61917 335.514165 
L 411.227482 336.277722 
L 409.746992 336.861638 
L 408.202008 337.256325 
L 406.617901 337.455303 
L 405.020681 337.455303 
L 403.436574 337.256325 
L 401.89159 336.861638 
L 400.4111 336.277722 
L 399.019412 335.514165 
L 397.739378 334.583504 
L 396.592016 333.50102 
L 395.596165 332.284489 
L 394.768178 330.953886 
L 394.12165 329.531058 
L 393.667196 328.039369 
L 393.41228 326.503312 
L 393.361087 324.94811 
L 393.514457 323.399298 
L 393.869872 321.882309 
L 394.421496 320.42205 
L 395.160271 319.0425 
L 396.074068 317.76631 
L 397.14788 316.614436 
L 398.364077 315.605792 
L 399.702689 314.756939 
L 401.141735 314.081815 
L 402.657586 313.591506 
L 404.225352 313.294063 
L 405.819291 313.194369 
" style="fill:none;stroke:#808080;stroke-linecap:square;stroke-width:1.5;"/>
   </g>
   <g id="line2d_105">
    <path clip-path="url(#pd8b38cb46f)" d="M 488.491603 186.34053 
L 490.085542 186.440223 
L 491.653308 186.737666 
L 493.16916 187.227975 
L 494.608206 187.903099 
L 495.946817 188.751952 
L 497.163014 189.760597 
L 498.236827 190.912471 
L 499.150623 192.18866 
L 499.889399 193.568211 
L 500.441023 195.028469 
L 500.796438 196.545459 
L 500.949808 198.09427 
L 500.898614 199.649473 
L 500.643698 201.185529 
L 500.189245 202.677218 
L 499.542717 204.100046 
L 498.714729 205.43065 
L 497.718879 206.647181 
L 496.571517 207.729664 
L 495.291482 208.660325 
L 493.899794 209.423883 
L 492.419304 210.007799 
L 490.874321 210.402486 
L 489.290214 210.601463 
L 487.692993 210.601463 
L 486.108886 210.402486 
L 484.563903 210.007799 
L 483.083412 209.423883 
L 481.691724 208.660325 
L 480.41169 207.729664 
L 479.264328 206.647181 
L 478.268477 205.43065 
L 477.44049 204.100046 
L 476.793962 202.677218 
L 476.339509 201.185529 
L 476.084593 199.649473 
L 476.033399 198.09427 
L 476.186769 196.545459 
L 476.542184 195.028469 
L 477.093808 193.568211 
L 477.832584 192.18866 
L 478.74638 190.912471 
L 479.820193 189.760597 
L 481.03639 188.751952 
L 482.375001 187.903099 
L 483.814047 187.227975 
L 485.329898 186.737666 
L 486.897665 186.440223 
L 488.491603 186.34053 
" style="fill:none;stroke:#808080;stroke-linecap:square;stroke-width:1.5;"/>
   </g>
   <g id="line2d_106">
    <path clip-path="url(#pd8b38cb46f)" d="M 626.868927 126.577818 
L 628.462866 126.677511 
L 630.030632 126.974954 
L 631.546483 127.465263 
L 632.985529 128.140387 
L 634.32414 128.989241 
L 635.540337 129.997885 
L 636.61415 131.149759 
L 637.527947 132.425949 
L 638.266722 133.805499 
L 638.818346 135.265757 
L 639.173761 136.782747 
L 639.327131 138.331559 
L 639.275938 139.886761 
L 639.021022 141.422818 
L 638.566568 142.914507 
L 637.92004 144.337334 
L 637.092053 145.667938 
L 636.096202 146.884469 
L 634.94884 147.966952 
L 633.668806 148.897614 
L 632.277118 149.661171 
L 630.796627 150.245087 
L 629.251644 150.639774 
L 627.667537 150.838751 
L 626.070317 150.838751 
L 624.486209 150.639774 
L 622.941226 150.245087 
L 621.460736 149.661171 
L 620.069048 148.897614 
L 618.789014 147.966952 
L 617.641651 146.884469 
L 616.645801 145.667938 
L 615.817814 144.337334 
L 615.171285 142.914507 
L 614.716832 141.422818 
L 614.461916 139.886761 
L 614.410723 138.331559 
L 614.564092 136.782747 
L 614.919507 135.265757 
L 615.471132 133.805499 
L 616.209907 132.425949 
L 617.123704 131.149759 
L 618.197516 129.997885 
L 619.413713 128.989241 
L 620.752325 128.140387 
L 622.191371 127.465263 
L 623.707222 126.974954 
L 625.274988 126.677511 
L 626.868927 126.577818 
" style="fill:none;stroke:#808080;stroke-linecap:square;stroke-width:1.5;"/>
   </g>
   <g id="line2d_107">
    <path clip-path="url(#pd8b38cb46f)" d="M 566.812348 275.016174 
L 568.406287 275.115868 
L 569.974053 275.413311 
L 571.489904 275.90362 
L 572.92895 276.578744 
L 574.267562 277.427597 
L 575.483759 278.436241 
L 576.557571 279.588115 
L 577.471368 280.864305 
L 578.210143 282.243855 
L 578.761768 283.704114 
L 579.117182 285.221103 
L 579.270552 286.769915 
L 579.219359 288.325117 
L 578.964443 289.861174 
L 578.50999 291.352863 
L 577.863461 292.775691 
L 577.035474 294.106294 
L 576.039623 295.322826 
L 574.892261 296.405309 
L 573.612227 297.33597 
L 572.220539 298.099527 
L 570.740049 298.683443 
L 569.195066 299.07813 
L 567.610958 299.277108 
L 566.013738 299.277108 
L 564.429631 299.07813 
L 562.884648 298.683443 
L 561.404157 298.099527 
L 560.012469 297.33597 
L 558.732435 296.405309 
L 557.585073 295.322826 
L 556.589222 294.106294 
L 555.761235 292.775691 
L 555.114707 291.352863 
L 554.660253 289.861174 
L 554.405337 288.325117 
L 554.354144 286.769915 
L 554.507514 285.221103 
L 554.862929 283.704114 
L 555.414553 282.243855 
L 556.153328 280.864305 
L 557.067125 279.588115 
L 558.140937 278.436241 
L 559.357134 277.427597 
L 560.695746 276.578744 
L 562.134792 275.90362 
L 563.650643 275.413311 
L 565.218409 275.115868 
L 566.812348 275.016174 
" style="fill:none;stroke:#808080;stroke-linecap:square;stroke-width:1.5;"/>
   </g>
   <g id="line2d_108">
    <path clip-path="url(#pd8b38cb46f)" d="M 566.812348 275.016174 
L 568.406287 275.115868 
L 569.974053 275.413311 
L 571.489904 275.90362 
L 572.92895 276.578744 
L 574.267562 277.427597 
L 575.483759 278.436241 
L 576.557571 279.588115 
L 577.471368 280.864305 
L 578.210143 282.243855 
L 578.761768 283.704114 
L 579.117182 285.221103 
L 579.270552 286.769915 
L 579.219359 288.325117 
L 578.964443 289.861174 
L 578.50999 291.352863 
L 577.863461 292.775691 
L 577.035474 294.106294 
L 576.039623 295.322826 
L 574.892261 296.405309 
L 573.612227 297.33597 
L 572.220539 298.099527 
L 570.740049 298.683443 
L 569.195066 299.07813 
L 567.610958 299.277108 
L 566.013738 299.277108 
L 564.429631 299.07813 
L 562.884648 298.683443 
L 561.404157 298.099527 
L 560.012469 297.33597 
L 558.732435 296.405309 
L 557.585073 295.322826 
L 556.589222 294.106294 
L 555.761235 292.775691 
L 555.114707 291.352863 
L 554.660253 289.861174 
L 554.405337 288.325117 
L 554.354144 286.769915 
L 554.507514 285.221103 
L 554.862929 283.704114 
L 555.414553 282.243855 
L 556.153328 280.864305 
L 557.067125 279.588115 
L 558.140937 278.436241 
L 559.357134 277.427597 
L 560.695746 276.578744 
L 562.134792 275.90362 
L 563.650643 275.413311 
L 565.218409 275.115868 
L 566.812348 275.016174 
" style="fill:none;stroke:#808080;stroke-linecap:square;stroke-width:1.5;"/>
   </g>
   <g id="line2d_109"/>
   <g id="line2d_110"/>
   <g id="line2d_111"/>
   <g id="line2d_112"/>
   <g id="line2d_113"/>
   <g id="line2d_114"/>
   <g id="line2d_115"/>
   <g id="line2d_116"/>
   <g id="line2d_117"/>
   <g id="line2d_118"/>
   <g id="line2d_119"/>
   <g id="line2d_120"/>
   <g id="line2d_121"/>
   <g id="line2d_122"/>
   <g id="line2d_123"/>
   <g id="line2d_124"/>
   <g id="line2d_125"/>
   <g id="line2d_126"/>
   <g id="line2d_127"/>
   <g id="line2d_128"/>
   <g id="line2d_129"/>
   <g id="line2d_130"/>
   <g id="line2d_131"/>
   <g id="line2d_132"/>
   <g id="line2d_133"/>
   <g id="line2d_134"/>
   <g id="line2d_135"/>
   <g id="line2d_136"/>
   <g id="line2d_137"/>
   <g id="line2d_138"/>
   <g id="line2d_139"/>
   <g id="line2d_140"/>
   <g id="line2d_141"/>
   <g id="line2d_142"/>
   <g id="line2d_143"/>
   <g id="line2d_144"/>
   <g id="line2d_145"/>
   <g id="line2d_146"/>
   <g id="line2d_147"/>
   <g id="line2d_148"/>
   <g id="line2d_149"/>
   <g id="line2d_150"/>
   <g id="line2d_151"/>
   <g id="line2d_152"/>
   <g id="line2d_153"/>
   <g id="line2d_154"/>
   <g id="line2d_155"/>
   <g id="line2d_156"/>
   <g id="line2d_157"/>
   <g id="line2d_158"/>
   <g id="line2d_159"/>
   <g id="patch_3">
    <path d="M 90 630 
L 90 86.4 
" style="fill:none;stroke:#000000;stroke-linecap:square;stroke-linejoin:miter;stroke-width:0.8;"/>
   </g>
   <g id="patch_4">
    <path d="M 648 630 
L 648 86.4 
" style="fill:none;stroke:#000000;stroke-linecap:square;stroke-linejoin:miter;stroke-width:0.8;"/>
   </g>
   <g id="patch_5">
    <path d="M 90 630 
L 648 630 
" style="fill:none;stroke:#000000;stroke-linecap:square;stroke-linejoin:miter;stroke-width:0.8;"/>
   </g>
   <g id="patch_6">
    <path d="M 90 86.4 
L 648 86.4 
" style="fill:none;stroke:#000000;stroke-linecap:square;stroke-linejoin:miter;stroke-width:0.8;"/>
   </g>
   <g id="text_15">
    <!-- 0 -->
    <g transform="translate(107.793432 450.759872)scale(0.1 -0.1)">
     <use xlink:href="#DejaVuSans-30"/>
    </g>
   </g>
   <g id="text_16">
    <!-- 0 -->
    <g transform="translate(107.793432 438.616931)scale(0.1 -0.1)">
     <use xlink:href="#DejaVuSans-30"/>
    </g>
   </g>
   <g id="text_17">
    <!-- 0 -->
    <g transform="translate(107.793432 426.473989)scale(0.1 -0.1)">
     <use xlink:href="#DejaVuSans-30"/>
    </g>
   </g>
  </g>
 </g>
 <defs>
  <clipPath id="pd8b38cb46f">
   <rect height="543.6" width="558" x="90" y="86.4"/>
  </clipPath>
 </defs>
</svg>
