<?xml version="1.0" encoding="utf-8" standalone="no"?>
<!DOCTYPE svg PUBLIC "-//W3C//DTD SVG 1.1//EN"
  "http://www.w3.org/Graphics/SVG/1.1/DTD/svg11.dtd">
<svg height="720pt" version="1.1" viewBox="0 0 720 720" width="720pt" xmlns="http://www.w3.org/2000/svg" xmlns:xlink="http://www.w3.org/1999/xlink">
 <metadata>
  <rdf:RDF xmlns:cc="http://creativecommons.org/ns#" xmlns:dc="http://purl.org/dc/elements/1.1/" xmlns:rdf="http://www.w3.org/1999/02/22-rdf-syntax-ns#">
   <cc:Work>
    <dc:type rdf:resource="http://purl.org/dc/dcmitype/StillImage"/>
    <dc:date>2022-01-11T13:26:09.639249</dc:date>
    <dc:format>image/svg+xml</dc:format>
    <dc:creator>
     <cc:Agent>
      <dc:title>Matplotlib v3.4.3, https://matplotlib.org/</dc:title>
     </cc:Agent>
    </dc:creator>
   </cc:Work>
  </rdf:RDF>
 </metadata>
 <defs>
  <style type="text/css">*{stroke-linecap:butt;stroke-linejoin:round;}</style>
 </defs>
 <g id="figure_1">
  <g id="patch_1">
   <path d="M 0 720 
L 720 720 
L 720 0 
L 0 0 
z
" style="fill:none;"/>
  </g>
  <g id="axes_1">
   <g id="patch_2">
    <path d="M 90 630 
L 648 630 
L 648 86.4 
L 90 86.4 
z
" style="fill:#ffffff;"/>
   </g>
   <g id="PathCollection_1">
    <defs>
     <path d="M 0.972304 -8.870829 
Q -1.277159 -8.870829 -2.413438 -6.653699 
Q -3.545098 -4.441189 -3.545098 0.006929 
Q -3.545098 4.436569 -2.413438 6.653699 
Q -1.277159 8.870829 0.972304 8.870829 
Q 3.240243 8.870829 4.371903 6.653699 
Q 5.508182 4.436569 5.508182 0.006929 
Q 5.508182 -4.441189 4.371903 -6.653699 
Q 3.240243 -8.870829 0.972304 -8.870829 
z
M 0.972304 -11.18034 
Q 4.598235 -11.18034 6.51051 -8.311928 
Q 8.422784 -5.448135 8.422784 0.006929 
Q 8.422784 5.448135 6.51051 8.316547 
Q 4.598235 11.18034 0.972304 11.18034 
Q -2.649008 11.18034 -4.561283 8.316547 
Q -6.473558 5.448135 -6.473558 0.006929 
Q -6.473558 -5.448135 -4.561283 -8.311928 
Q -2.649008 -11.18034 0.972304 -11.18034 
z
" id="mbca6715a03" style="stroke:#808080;"/>
    </defs>
    <g clip-path="url(#pe9c8164732)">
     <use style="fill:#808080;stroke:#808080;" x="159.409025" xlink:href="#mbca6715a03" y="258.467836"/>
    </g>
   </g>
   <g id="PathCollection_2">
    <defs>
     <path d="M -4.535873 8.63565 
L 0.404946 8.63565 
L 0.404946 -8.424791 
L -4.971969 -7.346533 
L -4.971969 -10.102082 
L 0.376192 -11.18034 
L 3.400108 -11.18034 
L 3.400108 8.63565 
L 8.340927 8.63565 
L 8.340927 11.18034 
L -4.535873 11.18034 
L -4.535873 8.63565 
z
" id="ma61aa77564" style="stroke:#808080;"/>
    </defs>
    <g clip-path="url(#pe9c8164732)">
     <use style="fill:#808080;stroke:#808080;" x="175.961237" xlink:href="#ma61aa77564" y="476.967012"/>
    </g>
   </g>
   <g id="PathCollection_3">
    <defs>
     <path d="M -2.294912 8.680651 
L 8.075736 8.680651 
L 8.075736 11.18034 
L -5.867913 11.18034 
L -5.867913 8.680651 
Q -4.177916 6.929457 -1.259259 3.982555 
Q 1.664105 1.030945 2.4126 0.174178 
Q 3.838976 -1.426376 4.403877 -2.537349 
Q 4.973486 -3.648321 4.973486 -4.721634 
Q 4.973486 -6.472828 3.744825 -7.574386 
Q 2.516165 -8.680651 0.543718 -8.680651 
Q -0.854413 -8.680651 -2.407892 -8.195778 
Q -3.956663 -7.710904 -5.72198 -6.722326 
L -5.72198 -9.725719 
Q -3.928418 -10.445968 -2.370232 -10.813154 
Q -0.807338 -11.18034 0.487227 -11.18034 
Q 3.900173 -11.18034 5.929111 -9.471513 
Q 7.958048 -7.767394 7.958048 -4.914642 
Q 7.958048 -3.558879 7.449637 -2.344341 
Q 6.945933 -1.13451 5.604292 0.513119 
Q 5.237107 0.941502 3.264659 2.979855 
Q 1.296919 5.018207 -2.294912 8.680651 
z
" id="mf885e92d1d" style="stroke:#808080;"/>
    </defs>
    <g clip-path="url(#pe9c8164732)">
     <use style="fill:#808080;stroke:#808080;" x="384.012696" xlink:href="#mf885e92d1d" y="588.083829"/>
    </g>
   </g>
   <g id="PathCollection_4">
    <defs>
     <path d="M 3.77605 -0.861447 
Q 5.868466 -0.413402 7.041697 1.004637 
Q 8.219548 2.418057 8.219548 4.496617 
Q 8.219548 7.683741 6.025513 9.43435 
Q 3.831478 11.18034 -0.210165 11.18034 
Q -1.563539 11.18034 -3.000054 10.912437 
Q -4.436569 10.644533 -5.965465 10.108727 
L -5.965465 7.295743 
Q -4.755282 8.002454 -3.314147 8.362737 
Q -1.868394 8.723021 -0.293308 8.723021 
Q 2.445772 8.723021 3.882287 7.64217 
Q 5.318802 6.561319 5.318802 4.496617 
Q 5.318802 2.588961 3.983905 1.517348 
Q 2.649008 0.441116 0.270213 0.441116 
L -2.242535 0.441116 
L -2.242535 -1.956155 
L 0.385688 -1.956155 
Q 2.533533 -1.956155 3.674431 -2.815293 
Q 4.815329 -3.674431 4.815329 -5.291088 
Q 4.815329 -6.949317 3.637479 -7.836169 
Q 2.464248 -8.72764 0.270213 -8.72764 
Q -0.930733 -8.72764 -2.302582 -8.464356 
Q -3.674431 -8.20569 -5.318802 -7.660646 
L -5.318802 -10.256536 
Q -3.655955 -10.718438 -2.205582 -10.949389 
Q -0.75521 -11.18034 0.528878 -11.18034 
Q 3.849954 -11.18034 5.780705 -9.66992 
Q 7.716074 -8.164119 7.716074 -5.595944 
Q 7.716074 -3.803764 6.690652 -2.570485 
Q 5.665229 -1.337207 3.77605 -0.861447 
z
" id="m570ff8f218" style="stroke:#808080;"/>
    </defs>
    <g clip-path="url(#pe9c8164732)">
     <use style="fill:#808080;stroke:#808080;" x="384.012696" xlink:href="#m570ff8f218" y="588.083829"/>
    </g>
   </g>
   <g id="PathCollection_5">
    <defs>
     <path d="M 2.695646 -8.544598 
L -4.943215 3.392919 
L 2.695646 3.392919 
L 2.695646 -8.544598 
z
M 1.900131 -11.18034 
L 5.705184 -11.18034 
L 5.705184 3.392919 
L 8.896829 3.392919 
L 8.896829 5.908855 
L 5.705184 5.908855 
L 5.705184 11.18034 
L 2.695646 11.18034 
L 2.695646 5.908855 
L -7.396852 5.908855 
L -7.396852 2.99037 
L 1.900131 -11.18034 
z
" id="mc5a235c761" style="stroke:#808080;"/>
    </defs>
    <g clip-path="url(#pe9c8164732)">
     <use style="fill:#808080;stroke:#808080;" x="562.322525" xlink:href="#mc5a235c761" y="554.557174"/>
    </g>
   </g>
   <g id="PathCollection_6">
    <defs>
     <path d="M -5.008473 -11.18034 
L 6.639575 -11.18034 
L 6.639575 -8.679629 
L -2.291535 -8.679629 
L -2.291535 -3.306861 
Q -1.647555 -3.527789 -1.003575 -3.635902 
Q -0.354894 -3.744015 0.293787 -3.744015 
Q 3.964943 -3.744015 6.108409 -1.732165 
Q 8.256576 0.279685 8.256576 3.715812 
Q 8.256576 7.255352 6.052002 9.220196 
Q 3.847428 11.18034 -0.16217 11.18034 
Q -1.544142 11.18034 -2.97782 10.945311 
Q -4.406798 10.710281 -5.934488 10.240223 
L -5.934488 7.255352 
Q -4.613624 7.974541 -3.203448 8.327085 
Q -1.793273 8.679629 -0.223278 8.679629 
Q 2.319738 8.679629 3.800422 7.344663 
Q 5.285807 6.009697 5.285807 3.715812 
Q 5.285807 1.426627 3.800422 0.091661 
Q 2.319738 -1.248005 -0.223278 -1.248005 
Q -1.412526 -1.248005 -2.597073 -0.984772 
Q -3.77692 -0.72154 -5.008473 -0.16217 
L -5.008473 -11.18034 
z
" id="ma966206416" style="stroke:#808080;"/>
    </defs>
    <g clip-path="url(#pe9c8164732)">
     <use style="fill:#808080;stroke:#808080;" x="588.336745" xlink:href="#ma966206416" y="375.948961"/>
    </g>
   </g>
   <g id="PathCollection_7">
    <defs>
     <path d="M 1.286397 -1.175541 
Q -0.676687 -1.175541 -1.826823 0.168594 
Q -2.97234 1.50811 -2.97234 3.845335 
Q -2.97234 6.168702 -1.826823 7.522075 
Q -0.676687 8.870829 1.286397 8.870829 
Q 3.249481 8.870829 4.394998 7.522075 
Q 5.540515 6.168702 5.540515 3.845335 
Q 5.540515 1.50811 4.394998 0.168594 
Q 3.249481 -1.175541 1.286397 -1.175541 
z
M 7.07403 -10.316583 
L 7.07403 -7.660646 
Q 5.974703 -8.177976 4.8569 -8.450499 
Q 3.739097 -8.72764 2.63977 -8.72764 
Q -0.247118 -8.72764 -1.771394 -6.778413 
Q -3.291052 -4.829186 -3.508146 -0.889162 
Q -2.658246 -2.145535 -1.374159 -2.815293 
Q -0.085452 -3.485051 1.457301 -3.485051 
Q 4.704473 -3.485051 6.589033 -1.512729 
Q 8.473594 0.454974 8.473594 3.845335 
Q 8.473594 7.166411 6.51051 9.175685 
Q 4.547426 11.18034 1.286397 11.18034 
Q -2.45501 11.18034 -4.43195 8.316547 
Q -6.408891 5.448135 -6.408891 0.006929 
Q -6.408891 -5.101708 -3.983905 -8.141024 
Q -1.55892 -11.18034 2.524295 -11.18034 
Q 3.623622 -11.18034 4.741425 -10.963246 
Q 5.859228 -10.746152 7.07403 -10.316583 
z
" id="m29135e1f95" style="stroke:#808080;"/>
    </defs>
    <g clip-path="url(#pe9c8164732)">
     <use style="fill:#808080;stroke:#808080;" x="578.230488" xlink:href="#m29135e1f95" y="191.819589"/>
    </g>
   </g>
   <g id="PathCollection_8">
    <defs>
     <path d="M -5.93042 -11.18034 
L 8.446356 -11.18034 
L 8.446356 -9.891222 
L 0.32827 11.18034 
L -2.829829 11.18034 
L 4.809032 -8.630858 
L -5.93042 -8.630858 
L -5.93042 -11.18034 
z
" id="mfd50068e35" style="stroke:#808080;"/>
    </defs>
    <g clip-path="url(#pe9c8164732)">
     <use style="fill:#808080;stroke:#808080;" x="580.049513" xlink:href="#mfd50068e35" y="184.922173"/>
    </g>
   </g>
   <g id="PathCollection_9">
    <defs>
     <path d="M 1.002328 0.524259 
Q -1.076232 0.524259 -2.267939 1.637443 
Q -3.455028 2.750627 -3.455028 4.695235 
Q -3.455028 6.644461 -2.267939 7.757645 
Q -1.076232 8.870829 1.002328 8.870829 
Q 3.080887 8.870829 4.277213 7.753026 
Q 5.478159 6.630604 5.478159 4.695235 
Q 5.478159 2.750627 4.286451 1.637443 
Q 3.099363 0.524259 1.002328 0.524259 
z
M -1.912275 -0.713639 
Q -3.787597 -1.175541 -4.836115 -2.459629 
Q -5.880014 -3.748335 -5.880014 -5.595944 
Q -5.880014 -8.177976 -4.041643 -9.679158 
Q -2.198654 -11.18034 1.002328 -11.18034 
Q 4.221785 -11.18034 6.055536 -9.679158 
Q 7.889288 -8.177976 7.889288 -5.595944 
Q 7.889288 -3.748335 6.84077 -2.459629 
Q 5.796871 -1.175541 3.935406 -0.713639 
Q 6.041679 -0.224023 7.214911 1.207874 
Q 8.392761 2.635151 8.392761 4.695235 
Q 8.392761 7.83155 6.480486 9.508254 
Q 4.568212 11.18034 1.002328 11.18034 
Q -2.558938 11.18034 -4.475831 9.508254 
Q -6.388106 7.83155 -6.388106 4.695235 
Q -6.388106 2.635151 -5.205636 1.207874 
Q -4.018548 -0.224023 -1.912275 -0.713639 
z
M -2.979268 -5.318802 
Q -2.979268 -3.646717 -1.93537 -2.709056 
Q -0.886852 -1.771394 1.002328 -1.771394 
Q 2.882269 -1.771394 3.940025 -2.709056 
Q 5.0024 -3.646717 5.0024 -5.318802 
Q 5.0024 -6.995507 3.940025 -7.933168 
Q 2.882269 -8.870829 1.002328 -8.870829 
Q -0.886852 -8.870829 -1.93537 -7.933168 
Q -2.979268 -6.995507 -2.979268 -5.318802 
z
" id="m0a8f51c4be" style="stroke:#808080;"/>
    </defs>
    <g clip-path="url(#pe9c8164732)">
     <use style="fill:#808080;stroke:#808080;" x="482.735267" xlink:href="#m0a8f51c4be" y="149.950082"/>
    </g>
   </g>
   <g id="PathCollection_10"/>
   <g id="PathCollection_11"/>
   <g id="PathCollection_12"/>
   <g id="PathCollection_13"/>
   <g id="PathCollection_14"/>
   <g id="matplotlib.axis_1">
    <g id="xtick_1">
     <g id="line2d_1">
      <defs>
       <path d="M 0 0 
L 0 3.5 
" id="m4886ce9d09" style="stroke:#000000;stroke-width:0.8;"/>
      </defs>
      <g>
       <use style="stroke:#000000;stroke-width:0.8;" x="157.621512" xlink:href="#m4886ce9d09" y="630"/>
      </g>
     </g>
     <g id="text_1">
      <!-- −200 -->
      <g transform="translate(143.887918 644.598438)scale(0.1 -0.1)">
       <defs>
        <path d="M 678 2272 
L 4684 2272 
L 4684 1741 
L 678 1741 
L 678 2272 
z
" id="DejaVuSans-2212" transform="scale(0.015625)"/>
        <path d="M 1228 531 
L 3431 531 
L 3431 0 
L 469 0 
L 469 531 
Q 828 903 1448 1529 
Q 2069 2156 2228 2338 
Q 2531 2678 2651 2914 
Q 2772 3150 2772 3378 
Q 2772 3750 2511 3984 
Q 2250 4219 1831 4219 
Q 1534 4219 1204 4116 
Q 875 4013 500 3803 
L 500 4441 
Q 881 4594 1212 4672 
Q 1544 4750 1819 4750 
Q 2544 4750 2975 4387 
Q 3406 4025 3406 3419 
Q 3406 3131 3298 2873 
Q 3191 2616 2906 2266 
Q 2828 2175 2409 1742 
Q 1991 1309 1228 531 
z
" id="DejaVuSans-32" transform="scale(0.015625)"/>
        <path d="M 2034 4250 
Q 1547 4250 1301 3770 
Q 1056 3291 1056 2328 
Q 1056 1369 1301 889 
Q 1547 409 2034 409 
Q 2525 409 2770 889 
Q 3016 1369 3016 2328 
Q 3016 3291 2770 3770 
Q 2525 4250 2034 4250 
z
M 2034 4750 
Q 2819 4750 3233 4129 
Q 3647 3509 3647 2328 
Q 3647 1150 3233 529 
Q 2819 -91 2034 -91 
Q 1250 -91 836 529 
Q 422 1150 422 2328 
Q 422 3509 836 4129 
Q 1250 4750 2034 4750 
z
" id="DejaVuSans-30" transform="scale(0.015625)"/>
       </defs>
       <use xlink:href="#DejaVuSans-2212"/>
       <use x="83.789062" xlink:href="#DejaVuSans-32"/>
       <use x="147.412109" xlink:href="#DejaVuSans-30"/>
       <use x="211.035156" xlink:href="#DejaVuSans-30"/>
      </g>
     </g>
    </g>
    <g id="xtick_2">
     <g id="line2d_2">
      <g>
       <use style="stroke:#000000;stroke-width:0.8;" x="230.140467" xlink:href="#m4886ce9d09" y="630"/>
      </g>
     </g>
     <g id="text_2">
      <!-- −150 -->
      <g transform="translate(216.406873 644.598438)scale(0.1 -0.1)">
       <defs>
        <path d="M 794 531 
L 1825 531 
L 1825 4091 
L 703 3866 
L 703 4441 
L 1819 4666 
L 2450 4666 
L 2450 531 
L 3481 531 
L 3481 0 
L 794 0 
L 794 531 
z
" id="DejaVuSans-31" transform="scale(0.015625)"/>
        <path d="M 691 4666 
L 3169 4666 
L 3169 4134 
L 1269 4134 
L 1269 2991 
Q 1406 3038 1543 3061 
Q 1681 3084 1819 3084 
Q 2600 3084 3056 2656 
Q 3513 2228 3513 1497 
Q 3513 744 3044 326 
Q 2575 -91 1722 -91 
Q 1428 -91 1123 -41 
Q 819 9 494 109 
L 494 744 
Q 775 591 1075 516 
Q 1375 441 1709 441 
Q 2250 441 2565 725 
Q 2881 1009 2881 1497 
Q 2881 1984 2565 2268 
Q 2250 2553 1709 2553 
Q 1456 2553 1204 2497 
Q 953 2441 691 2322 
L 691 4666 
z
" id="DejaVuSans-35" transform="scale(0.015625)"/>
       </defs>
       <use xlink:href="#DejaVuSans-2212"/>
       <use x="83.789062" xlink:href="#DejaVuSans-31"/>
       <use x="147.412109" xlink:href="#DejaVuSans-35"/>
       <use x="211.035156" xlink:href="#DejaVuSans-30"/>
      </g>
     </g>
    </g>
    <g id="xtick_3">
     <g id="line2d_3">
      <g>
       <use style="stroke:#000000;stroke-width:0.8;" x="302.659423" xlink:href="#m4886ce9d09" y="630"/>
      </g>
     </g>
     <g id="text_3">
      <!-- −100 -->
      <g transform="translate(288.925829 644.598438)scale(0.1 -0.1)">
       <use xlink:href="#DejaVuSans-2212"/>
       <use x="83.789062" xlink:href="#DejaVuSans-31"/>
       <use x="147.412109" xlink:href="#DejaVuSans-30"/>
       <use x="211.035156" xlink:href="#DejaVuSans-30"/>
      </g>
     </g>
    </g>
    <g id="xtick_4">
     <g id="line2d_4">
      <g>
       <use style="stroke:#000000;stroke-width:0.8;" x="375.178378" xlink:href="#m4886ce9d09" y="630"/>
      </g>
     </g>
     <g id="text_4">
      <!-- −50 -->
      <g transform="translate(364.626035 644.598438)scale(0.1 -0.1)">
       <use xlink:href="#DejaVuSans-2212"/>
       <use x="83.789062" xlink:href="#DejaVuSans-35"/>
       <use x="147.412109" xlink:href="#DejaVuSans-30"/>
      </g>
     </g>
    </g>
    <g id="xtick_5">
     <g id="line2d_5">
      <g>
       <use style="stroke:#000000;stroke-width:0.8;" x="447.697334" xlink:href="#m4886ce9d09" y="630"/>
      </g>
     </g>
     <g id="text_5">
      <!-- 0 -->
      <g transform="translate(444.516084 644.598438)scale(0.1 -0.1)">
       <use xlink:href="#DejaVuSans-30"/>
      </g>
     </g>
    </g>
    <g id="xtick_6">
     <g id="line2d_6">
      <g>
       <use style="stroke:#000000;stroke-width:0.8;" x="520.216289" xlink:href="#m4886ce9d09" y="630"/>
      </g>
     </g>
     <g id="text_6">
      <!-- 50 -->
      <g transform="translate(513.853789 644.598438)scale(0.1 -0.1)">
       <use xlink:href="#DejaVuSans-35"/>
       <use x="63.623047" xlink:href="#DejaVuSans-30"/>
      </g>
     </g>
    </g>
    <g id="xtick_7">
     <g id="line2d_7">
      <g>
       <use style="stroke:#000000;stroke-width:0.8;" x="592.735245" xlink:href="#m4886ce9d09" y="630"/>
      </g>
     </g>
     <g id="text_7">
      <!-- 100 -->
      <g transform="translate(583.191495 644.598438)scale(0.1 -0.1)">
       <use xlink:href="#DejaVuSans-31"/>
       <use x="63.623047" xlink:href="#DejaVuSans-30"/>
       <use x="127.246094" xlink:href="#DejaVuSans-30"/>
      </g>
     </g>
    </g>
   </g>
   <g id="matplotlib.axis_2">
    <g id="ytick_1">
     <g id="line2d_8">
      <defs>
       <path d="M 0 0 
L -3.5 0 
" id="m25568068fa" style="stroke:#000000;stroke-width:0.8;"/>
      </defs>
      <g>
       <use style="stroke:#000000;stroke-width:0.8;" x="90" xlink:href="#m25568068fa" y="564.12356"/>
      </g>
     </g>
     <g id="text_8">
      <!-- −200 -->
      <g transform="translate(55.532812 567.922778)scale(0.1 -0.1)">
       <use xlink:href="#DejaVuSans-2212"/>
       <use x="83.789062" xlink:href="#DejaVuSans-32"/>
       <use x="147.412109" xlink:href="#DejaVuSans-30"/>
       <use x="211.035156" xlink:href="#DejaVuSans-30"/>
      </g>
     </g>
    </g>
    <g id="ytick_2">
     <g id="line2d_9">
      <g>
       <use style="stroke:#000000;stroke-width:0.8;" x="90" xlink:href="#m25568068fa" y="493.476061"/>
      </g>
     </g>
     <g id="text_9">
      <!-- −150 -->
      <g transform="translate(55.532812 497.27528)scale(0.1 -0.1)">
       <use xlink:href="#DejaVuSans-2212"/>
       <use x="83.789062" xlink:href="#DejaVuSans-31"/>
       <use x="147.412109" xlink:href="#DejaVuSans-35"/>
       <use x="211.035156" xlink:href="#DejaVuSans-30"/>
      </g>
     </g>
    </g>
    <g id="ytick_3">
     <g id="line2d_10">
      <g>
       <use style="stroke:#000000;stroke-width:0.8;" x="90" xlink:href="#m25568068fa" y="422.828562"/>
      </g>
     </g>
     <g id="text_10">
      <!-- −100 -->
      <g transform="translate(55.532812 426.627781)scale(0.1 -0.1)">
       <use xlink:href="#DejaVuSans-2212"/>
       <use x="83.789062" xlink:href="#DejaVuSans-31"/>
       <use x="147.412109" xlink:href="#DejaVuSans-30"/>
       <use x="211.035156" xlink:href="#DejaVuSans-30"/>
      </g>
     </g>
    </g>
    <g id="ytick_4">
     <g id="line2d_11">
      <g>
       <use style="stroke:#000000;stroke-width:0.8;" x="90" xlink:href="#m25568068fa" y="352.181064"/>
      </g>
     </g>
     <g id="text_11">
      <!-- −50 -->
      <g transform="translate(61.895313 355.980282)scale(0.1 -0.1)">
       <use xlink:href="#DejaVuSans-2212"/>
       <use x="83.789062" xlink:href="#DejaVuSans-35"/>
       <use x="147.412109" xlink:href="#DejaVuSans-30"/>
      </g>
     </g>
    </g>
    <g id="ytick_5">
     <g id="line2d_12">
      <g>
       <use style="stroke:#000000;stroke-width:0.8;" x="90" xlink:href="#m25568068fa" y="281.533565"/>
      </g>
     </g>
     <g id="text_12">
      <!-- 0 -->
      <g transform="translate(76.6375 285.332784)scale(0.1 -0.1)">
       <use xlink:href="#DejaVuSans-30"/>
      </g>
     </g>
    </g>
    <g id="ytick_6">
     <g id="line2d_13">
      <g>
       <use style="stroke:#000000;stroke-width:0.8;" x="90" xlink:href="#m25568068fa" y="210.886066"/>
      </g>
     </g>
     <g id="text_13">
      <!-- 50 -->
      <g transform="translate(70.275 214.685285)scale(0.1 -0.1)">
       <use xlink:href="#DejaVuSans-35"/>
       <use x="63.623047" xlink:href="#DejaVuSans-30"/>
      </g>
     </g>
    </g>
    <g id="ytick_7">
     <g id="line2d_14">
      <g>
       <use style="stroke:#000000;stroke-width:0.8;" x="90" xlink:href="#m25568068fa" y="140.238568"/>
      </g>
     </g>
     <g id="text_14">
      <!-- 100 -->
      <g transform="translate(63.9125 144.037787)scale(0.1 -0.1)">
       <use xlink:href="#DejaVuSans-31"/>
       <use x="63.623047" xlink:href="#DejaVuSans-30"/>
       <use x="127.246094" xlink:href="#DejaVuSans-30"/>
      </g>
     </g>
    </g>
   </g>
   <g id="line2d_15">
    <path clip-path="url(#pe9c8164732)" d="M 482.735267 149.950082 
L 476.401082 153.540876 
L 470.032838 157.074031 
L 463.631588 160.550118 
L 457.198353 163.969701 
L 450.734118 167.333342 
L 444.239838 170.641596 
L 437.716433 173.895008 
L 431.164791 177.094111 
L 424.585766 180.239424 
L 417.980183 183.33145 
L 411.34883 186.370672 
L 404.692469 189.357552 
L 398.011826 192.29253 
L 391.307599 195.176018 
L 384.580453 198.008397 
L 377.831025 200.790021 
L 371.059919 203.521203 
L 364.267711 206.202223 
L 357.454945 208.833315 
L 350.622137 211.414667 
L 343.769771 213.946419 
L 336.898301 216.42865 
L 330.00815 218.861379 
L 323.099709 221.244555 
L 316.173336 223.578049 
L 309.229357 225.861642 
L 302.268062 228.095017 
L 295.289704 230.277742 
L 288.2945 232.409253 
L 281.282623 234.488835 
L 274.254203 236.515591 
L 267.209324 238.488413 
L 260.148015 240.405937 
L 253.070253 242.26649 
L 245.975948 244.068017 
L 238.864942 245.807984 
L 231.736999 247.483249 
L 224.591794 249.089878 
L 217.428907 250.622881 
L 210.247803 252.075826 
L 203.04783 253.440235 
L 195.8282 254.704617 
L 188.587998 255.852802 
L 181.326208 256.860849 
L 174.041856 257.690662 
L 166.734647 258.274595 
L 159.409025 258.467836 
" style="fill:none;stroke:#808080;stroke-linecap:square;stroke-width:1.5;"/>
   </g>
   <g id="line2d_16">
    <path clip-path="url(#pe9c8164732)" d="M 159.409025 258.467836 
L 159.409025 149.950082 
L 482.735267 149.950082 
L 482.735267 258.467836 
L 159.409025 258.467836 
" style="fill:none;stroke:#d3d3d3;stroke-linecap:square;stroke-width:0.5;"/>
   </g>
   <g id="line2d_17">
    <path clip-path="url(#pe9c8164732)" d="M 159.409025 258.467836 
L 152.825976 261.34498 
L 148.04665 266.788998 
L 144.356978 272.986163 
L 141.371143 279.524644 
L 138.905256 286.259881 
L 136.858292 293.12429 
L 135.168785 300.07992 
L 133.796655 307.102482 
L 132.714481 314.174808 
L 131.90287 321.283769 
L 131.347794 328.418676 
L 131.038959 335.570369 
L 130.96876 342.730675 
L 131.131567 349.892056 
L 131.523229 357.047377 
L 132.140711 364.189745 
L 132.981817 371.312394 
L 134.044978 378.408607 
L 135.329073 385.471656 
L 136.833284 392.494759 
L 138.556969 399.471059 
L 140.499554 406.393613 
L 142.660428 413.255386 
L 145.038858 420.049266 
L 147.633904 426.768083 
L 150.444343 433.404636 
L 153.468612 439.951734 
L 156.704739 446.402242 
L 160.150309 452.749131 
L 163.802418 458.985538 
L 167.657653 465.104826 
L 171.712079 471.100649 
L 175.961237 476.967012 
" style="fill:none;stroke:#808080;stroke-linecap:square;stroke-width:1.5;"/>
   </g>
   <g id="line2d_18">
    <path clip-path="url(#pe9c8164732)" d="M 130.96876 476.967012 
L 130.96876 258.467836 
L 175.961237 258.467836 
L 175.961237 476.967012 
L 130.96876 476.967012 
" style="fill:none;stroke:#d3d3d3;stroke-linecap:square;stroke-width:0.5;"/>
   </g>
   <g id="line2d_19">
    <path clip-path="url(#pe9c8164732)" d="M 175.961237 476.967012 
L 180.400162 482.698334 
L 185.023402 488.289501 
L 189.825059 493.735915 
L 194.798832 499.033536 
L 199.938075 504.178912 
L 205.235852 509.1692 
L 210.685009 514.002173 
L 216.278236 518.676226 
L 222.008134 523.190354 
L 227.867283 527.544142 
L 233.848296 531.737729 
L 239.943881 535.771776 
L 246.146887 539.647426 
L 252.450347 543.366257 
L 258.847517 546.93024 
L 265.331901 550.341687 
L 271.897275 553.60321 
L 278.537704 556.71767 
L 285.247551 559.68814 
L 292.021483 562.517857 
L 298.854472 565.210191 
L 305.741792 567.768607 
L 312.679014 570.196637 
L 319.661997 572.497849 
L 326.686878 574.675827 
L 333.750061 576.734147 
L 340.848202 578.67636 
L 347.978201 580.505978 
L 355.137183 582.22646 
L 362.32249 583.841201 
L 369.531663 585.353526 
L 376.76243 586.766681 
L 384.012696 588.083829 
" style="fill:none;stroke:#808080;stroke-linecap:square;stroke-width:1.5;"/>
   </g>
   <g id="line2d_20">
    <path clip-path="url(#pe9c8164732)" d="M 175.961237 588.083829 
L 175.961237 476.967012 
L 384.012696 476.967012 
L 384.012696 588.083829 
L 175.961237 588.083829 
" style="fill:none;stroke:#d3d3d3;stroke-linecap:square;stroke-width:0.5;"/>
   </g>
   <g id="line2d_21">
    <path clip-path="url(#pe9c8164732)" d="M 384.012696 588.083829 
" style="fill:none;stroke:#808080;stroke-linecap:square;stroke-width:1.5;"/>
   </g>
   <g id="line2d_22">
    <path clip-path="url(#pe9c8164732)" d="M 384.012696 588.083829 
L 384.012696 588.083829 
L 384.012696 588.083829 
L 384.012696 588.083829 
L 384.012696 588.083829 
" style="fill:none;stroke:#d3d3d3;stroke-linecap:square;stroke-width:0.5;"/>
   </g>
   <g id="line2d_23">
    <path clip-path="url(#pe9c8164732)" d="M 384.012696 588.083829 
L 391.217035 589.294592 
L 398.438038 590.40449 
L 405.675115 591.406672 
L 412.92745 592.293607 
L 420.193947 593.057 
L 427.47317 593.687703 
L 434.763263 594.17561 
L 442.061852 594.509546 
L 449.365913 594.677143 
L 456.671619 594.664706 
L 463.974121 594.457086 
L 471.267296 594.037546 
L 478.543404 593.387666 
L 485.792674 592.487284 
L 493.002795 591.31454 
L 500.158314 589.846058 
L 507.239975 588.057364 
L 514.224054 585.923623 
L 521.081836 583.420779 
L 527.779405 580.527172 
L 534.27804 577.225564 
L 540.535428 573.505399 
L 546.507855 569.364896 
L 552.15322 564.812485 
L 557.434437 559.867108 
L 562.322525 554.557174 
" style="fill:none;stroke:#808080;stroke-linecap:square;stroke-width:1.5;"/>
   </g>
   <g id="line2d_24">
    <path clip-path="url(#pe9c8164732)" d="M 384.012696 594.677143 
L 384.012696 554.557174 
L 562.322525 554.557174 
L 562.322525 594.677143 
L 384.012696 594.677143 
" style="fill:none;stroke:#d3d3d3;stroke-linecap:square;stroke-width:0.5;"/>
   </g>
   <g id="line2d_25">
    <path clip-path="url(#pe9c8164732)" d="M 562.322525 554.557174 
L 566.798718 548.91831 
L 570.855203 542.99043 
L 574.494489 536.814719 
L 577.727783 530.431087 
L 580.572861 523.876349 
L 583.051885 517.183185 
L 585.189485 510.379753 
L 587.011231 503.489762 
L 588.542534 496.532822 
L 589.807908 489.524936 
L 590.830524 482.479021 
L 591.631993 475.405413 
L 592.232283 468.312315 
L 592.64974 461.206192 
L 592.90117 454.092096 
L 593.001951 446.973936 
L 592.966156 439.854699 
L 592.806691 432.736627 
L 592.535419 425.621364 
L 592.163287 418.510067 
L 591.700435 411.403499 
L 591.156308 404.302105 
L 590.53975 397.206068 
L 589.859092 390.115359 
L 589.122239 383.029773 
L 588.336745 375.948961 
" style="fill:none;stroke:#808080;stroke-linecap:square;stroke-width:1.5;"/>
   </g>
   <g id="line2d_26">
    <path clip-path="url(#pe9c8164732)" d="M 562.322525 554.557174 
L 562.322525 375.948961 
L 593.001951 375.948961 
L 593.001951 554.557174 
L 562.322525 554.557174 
" style="fill:none;stroke:#d3d3d3;stroke-linecap:square;stroke-width:0.5;"/>
   </g>
   <g id="line2d_27">
    <path clip-path="url(#pe9c8164732)" d="M 588.336745 375.948961 
L 587.509882 368.872452 
L 586.648714 361.799678 
L 585.760159 354.729985 
L 584.851053 347.662652 
L 583.928218 340.5969 
L 582.998524 333.531905 
L 582.06896 326.466807 
L 581.146704 319.400724 
L 580.239201 312.332759 
L 579.354251 305.26202 
L 578.500102 298.187635 
L 577.685557 291.108774 
L 576.920098 284.024679 
L 576.214029 276.934705 
L 575.578639 269.838371 
L 575.026393 262.735431 
L 574.571162 255.625972 
L 574.228479 248.510546 
L 574.015852 241.390351 
L 573.953114 234.267477 
L 574.062817 227.145244 
L 574.370672 220.028666 
L 574.90598 212.925074 
L 575.702029 205.84495 
L 576.796326 198.803015 
L 578.230488 191.819589 
" style="fill:none;stroke:#808080;stroke-linecap:square;stroke-width:1.5;"/>
   </g>
   <g id="line2d_28">
    <path clip-path="url(#pe9c8164732)" d="M 573.953114 375.948961 
L 573.953114 191.819589 
L 588.336745 191.819589 
L 588.336745 375.948961 
L 573.953114 375.948961 
" style="fill:none;stroke:#d3d3d3;stroke-linecap:square;stroke-width:0.5;"/>
   </g>
   <g id="line2d_29">
    <path clip-path="url(#pe9c8164732)" d="M 578.230488 191.819589 
L 580.049513 184.922173 
" style="fill:none;stroke:#808080;stroke-linecap:square;stroke-width:1.5;"/>
   </g>
   <g id="line2d_30">
    <path clip-path="url(#pe9c8164732)" d="M 578.230488 191.819589 
L 578.230488 184.922173 
L 580.049513 184.922173 
L 580.049513 191.819589 
L 578.230488 191.819589 
" style="fill:none;stroke:#d3d3d3;stroke-linecap:square;stroke-width:0.5;"/>
   </g>
   <g id="line2d_31">
    <path clip-path="url(#pe9c8164732)" d="M 580.049513 184.922173 
L 581.98406 177.922503 
L 583.621635 170.851289 
L 584.883971 163.707631 
L 585.656275 156.498775 
L 585.763419 149.253535 
L 584.931014 142.058152 
L 582.744508 135.148986 
L 578.732173 129.08438 
L 572.851205 124.701046 
L 565.828014 122.373175 
L 558.431801 121.723746 
L 551.020031 122.232214 
L 543.706836 123.531698 
L 536.519471 125.393007 
L 529.457413 127.671151 
L 522.511805 130.270577 
L 515.671966 133.125589 
L 508.927573 136.189278 
L 502.26933 139.427044 
L 495.689087 142.812646 
L 489.179774 146.325709 
L 482.735267 149.950082 
" style="fill:none;stroke:#808080;stroke-linecap:square;stroke-width:1.5;"/>
   </g>
   <g id="line2d_32">
    <path clip-path="url(#pe9c8164732)" d="M 482.735267 184.922173 
L 482.735267 121.723746 
L 585.763419 121.723746 
L 585.763419 184.922173 
L 482.735267 184.922173 
" style="fill:none;stroke:#d3d3d3;stroke-linecap:square;stroke-width:0.5;"/>
   </g>
   <g id="line2d_33">
    <path clip-path="url(#pe9c8164732)" d="M 386.57664 574.176857 
L 386.57664 574.176857 
L 393.582254 575.354236 
L 400.591222 576.43156 
L 407.601638 577.402374 
L 414.611204 578.259642 
L 421.617169 578.995691 
L 428.616243 579.602153 
L 435.604494 580.069897 
L 442.577238 580.38897 
L 449.528892 580.548535 
L 456.452807 580.536815 
L 463.341075 580.341051 
L 470.184299 579.947492 
L 476.971339 579.341411 
L 483.689035 578.507194 
L 490.321927 577.428508 
L 496.852011 576.088585 
L 503.258583 574.470648 
L 509.51826 572.558502 
L 515.605275 570.337275 
L 521.492149 567.794258 
L 527.150785 564.919753 
L 532.553911 561.707785 
L 537.676668 558.156584 
L 542.498019 554.2688 
L 547.001688 550.051524 
L 551.176542 545.516205 
" style="fill:none;stroke:#000000;stroke-linecap:square;stroke-width:3;"/>
   </g>
   <g id="line2d_34">
    <path clip-path="url(#pe9c8164732)" d="M 386.57664 580.548535 
L 386.57664 545.516205 
L 551.176542 545.516205 
L 551.176542 580.548535 
L 386.57664 580.548535 
" style="fill:none;stroke:#d3d3d3;stroke-linecap:square;stroke-width:0.5;"/>
   </g>
   <g id="line2d_35">
    <path clip-path="url(#pe9c8164732)" d="M 551.176542 545.516205 
L 555.016506 540.678485 
L 558.520245 535.557852 
L 561.690767 530.176987 
L 564.534989 524.560803 
L 567.063223 518.735262 
L 569.288566 512.726209 
L 571.226211 506.558362 
L 572.892739 500.254598 
L 574.305472 493.83552 
L 575.48192 487.31929 
L 576.439353 480.721647 
L 577.194493 474.056043 
L 577.763309 467.33386 
L 578.160907 460.564636 
L 578.401475 453.756313 
L 578.498284 446.91545 
L 578.463714 440.047436 
L 578.309309 433.156656 
L 578.045837 426.246654 
L 577.683359 419.320254 
L 577.2313 412.379675 
L 576.698523 405.426617 
L 576.0934 398.462338 
L 575.423875 391.487717 
L 574.697534 384.503303 
L 573.921669 377.509357 
L 573.103334 370.505882 
" style="fill:none;stroke:#000000;stroke-linecap:square;stroke-width:3;"/>
   </g>
   <g id="line2d_36">
    <path clip-path="url(#pe9c8164732)" d="M 551.176542 545.516205 
L 551.176542 370.505882 
L 578.498284 370.505882 
L 578.498284 545.516205 
L 551.176542 545.516205 
" style="fill:none;stroke:#d3d3d3;stroke-linecap:square;stroke-width:0.5;"/>
   </g>
   <g id="line2d_37">
    <path clip-path="url(#pe9c8164732)" d="M 573.103334 370.505882 
L 572.249411 363.492653 
L 571.366669 356.469237 
L 570.461818 349.435006 
L 569.54158 342.389149 
L 568.612745 335.330683 
L 567.682242 328.258452 
L 566.757216 321.171133 
L 565.845103 314.067234 
L 564.953725 306.945091 
L 564.091392 299.802867 
L 563.267022 292.638543 
L 562.490282 285.44992 
L 561.771748 278.234616 
L 561.123109 270.990069 
L 560.557396 263.713553 
L 560.089274 256.402201 
L 559.735383 249.053065 
L 559.514766 241.663204 
L 559.449374 234.229843 
L 559.564684 226.750629 
L 559.890417 219.224048 
L 560.46136 211.65007 
L 561.318235 204.031168 
L 562.508486 196.373857 
L 564.086721 188.690955 
L 566.114311 181.004738 
L 566.114311 181.004738 
" style="fill:none;stroke:#000000;stroke-linecap:square;stroke-width:3;"/>
   </g>
   <g id="line2d_38">
    <path clip-path="url(#pe9c8164732)" d="M 559.449374 370.505882 
L 559.449374 181.004738 
L 573.103334 181.004738 
L 573.103334 370.505882 
L 559.449374 370.505882 
" style="fill:none;stroke:#d3d3d3;stroke-linecap:square;stroke-width:0.5;"/>
   </g>
   <g id="line2d_39">
    <path clip-path="url(#pe9c8164732)" d="M 566.114311 181.004738 
" style="fill:none;stroke:#000000;stroke-linecap:square;stroke-width:3;"/>
   </g>
   <g id="line2d_40">
    <path clip-path="url(#pe9c8164732)" d="M 566.114311 181.004738 
L 566.114311 181.004738 
L 566.114311 181.004738 
L 566.114311 181.004738 
L 566.114311 181.004738 
" style="fill:none;stroke:#d3d3d3;stroke-linecap:square;stroke-width:0.5;"/>
   </g>
   <g id="line2d_41">
    <path clip-path="url(#pe9c8164732)" d="M 566.114311 181.004738 
L 566.114311 181.004738 
L 567.909445 174.510716 
L 569.401849 168.06884 
L 570.522636 161.732151 
L 571.182136 155.595741 
L 571.271911 149.834927 
L 570.697028 144.770824 
L 569.500913 140.909687 
L 568.01141 138.60087 
L 566.173752 137.244014 
L 563.038002 136.238786 
L 558.441916 135.853242 
L 552.925426 136.239255 
L 546.929846 137.307916 
L 540.699949 138.922854 
L 534.363127 140.967874 
L 527.986375 143.354872 
L 521.60571 146.018504 
L 515.240783 148.909998 
L 508.9023 151.992391 
L 502.595929 155.237166 
L 496.324433 158.621938 
L 490.088876 162.128841 
L 490.088876 162.128841 
" style="fill:none;stroke:#000000;stroke-linecap:square;stroke-width:3;"/>
   </g>
   <g id="line2d_42">
    <path clip-path="url(#pe9c8164732)" d="M 490.088876 181.004738 
L 490.088876 135.853242 
L 571.271911 135.853242 
L 571.271911 181.004738 
L 490.088876 181.004738 
" style="fill:none;stroke:#d3d3d3;stroke-linecap:square;stroke-width:0.5;"/>
   </g>
   <g id="line2d_43">
    <path clip-path="url(#pe9c8164732)" d="M 490.088876 162.128841 
L 490.088876 162.128841 
L 483.637025 165.786341 
L 477.152269 169.38414 
L 470.635661 172.922871 
L 464.088214 176.403165 
L 457.510902 179.825647 
L 450.904663 183.190936 
L 444.270395 186.49964 
L 437.60896 189.752355 
L 430.92118 192.949663 
L 424.207844 196.092128 
L 417.469701 199.180295 
L 410.707464 202.214685 
L 403.921809 205.195799 
L 397.113378 208.124105 
L 390.282773 211.000045 
L 383.430563 213.824029 
L 376.557276 216.596427 
L 369.663407 219.317575 
L 362.749409 221.987764 
L 355.815697 224.607237 
L 348.862646 227.176189 
L 341.890588 229.694756 
L 334.899812 232.163014 
L 327.890556 234.580967 
L 320.86301 236.948546 
L 313.817308 239.265591 
L 306.753522 241.531848 
L 299.671656 243.746948 
L 292.571637 245.910397 
L 285.453302 248.021551 
L 278.316385 250.079592 
L 271.160497 252.083499 
L 263.9851 254.032002 
L 256.789473 255.923536 
L 249.572668 257.756166 
L 242.333441 259.527502 
L 235.070161 261.234569 
L 227.780671 262.873633 
L 220.462083 264.439947 
L 213.110435 265.927382 
L 205.72013 267.327833 
L 198.282928 268.630279 
L 190.785996 269.819108 
L 183.207735 270.870951 
L 175.507609 271.747823 
L 167.595935 272.37916 
L 161.340159 272.540957 
" style="fill:none;stroke:#000000;stroke-linecap:square;stroke-width:3;"/>
   </g>
   <g id="line2d_44">
    <path clip-path="url(#pe9c8164732)" d="M 161.340159 272.540957 
L 161.340159 162.128841 
L 490.088876 162.128841 
L 490.088876 272.540957 
L 161.340159 272.540957 
" style="fill:none;stroke:#d3d3d3;stroke-linecap:square;stroke-width:0.5;"/>
   </g>
   <g id="line2d_45">
    <path clip-path="url(#pe9c8164732)" d="M 161.340159 272.540957 
L 157.321618 279.320524 
L 154.855911 284.727328 
L 152.714695 290.579344 
L 150.888301 296.706196 
L 149.355738 303.017127 
L 148.097539 309.457671 
L 147.097824 315.991987 
L 146.344104 322.594682 
L 145.826663 329.246627 
L 145.537982 335.932643 
L 145.472254 342.640146 
L 145.625006 349.358296 
L 145.992808 356.077464 
L 146.57304 362.788861 
L 147.363701 369.48429 
L 148.363261 376.155975 
L 149.570526 382.796437 
L 150.984534 389.398407 
L 152.604458 395.954771 
L 154.429516 402.458531 
L 156.4589 408.902786 
L 158.691707 415.280723 
L 161.126876 421.585625 
L 163.763133 427.81088 
L 166.598942 433.950009 
L 169.632469 439.996687 
L 172.861539 445.944782 
L 176.283617 451.788388 
L 179.895784 457.521862 
L 183.694729 463.139868 
L 187.676745 468.63741 
L 191.837737 474.009869 
L 196.173233 479.253036 
" style="fill:none;stroke:#000000;stroke-linecap:square;stroke-width:3;"/>
   </g>
   <g id="line2d_46">
    <path clip-path="url(#pe9c8164732)" d="M 145.472254 479.253036 
L 145.472254 272.540957 
L 196.173233 272.540957 
L 196.173233 479.253036 
L 145.472254 479.253036 
" style="fill:none;stroke:#d3d3d3;stroke-linecap:square;stroke-width:0.5;"/>
   </g>
   <g id="line2d_47">
    <path clip-path="url(#pe9c8164732)" d="M 196.173233 479.253036 
L 200.678407 484.36314 
L 205.348108 489.336872 
L 210.176891 494.171398 
L 215.159058 498.864371 
L 220.288701 503.413937 
L 225.559745 507.818729 
L 230.965999 512.077858 
L 236.501197 516.1909 
L 242.159047 520.157875 
L 247.933272 523.979221 
L 253.817653 527.655768 
L 259.806066 531.188707 
L 265.892509 534.579554 
L 272.071141 537.830121 
L 278.336294 540.942479 
L 284.682501 543.918924 
L 291.10451 546.761947 
L 297.597291 549.474198 
L 304.156047 552.05846 
L 310.776218 554.517622 
L 317.453479 556.85465 
L 324.183744 559.072566 
L 330.963157 561.174426 
L 337.788091 563.163303 
L 344.655137 565.042272 
L 351.561101 566.814389 
L 358.502992 568.482688 
L 365.478015 570.050163 
L 372.483559 571.519762 
L 379.51719 572.894382 
L 386.57664 574.176857 
L 386.57664 574.176857 
" style="fill:none;stroke:#000000;stroke-linecap:square;stroke-width:3;"/>
   </g>
   <g id="line2d_48">
    <path clip-path="url(#pe9c8164732)" d="M 196.173233 574.176857 
L 196.173233 479.253036 
L 386.57664 479.253036 
L 386.57664 574.176857 
L 196.173233 574.176857 
" style="fill:none;stroke:#d3d3d3;stroke-linecap:square;stroke-width:0.5;"/>
   </g>
   <g id="line2d_49">
    <path clip-path="url(#pe9c8164732)" d="M 159.211178 272.596021 
L 159.211178 272.596021 
L 162.37085 271.983572 
L 160.039796 274.734763 
L 161.340159 272.540957 
" style="fill:none;stroke:#000000;stroke-linecap:square;stroke-width:3;"/>
   </g>
   <g id="line2d_50">
    <path clip-path="url(#pe9c8164732)" d="M 159.211178 274.734763 
L 159.211178 271.983572 
L 162.37085 271.983572 
L 162.37085 274.734763 
L 159.211178 274.734763 
" style="fill:none;stroke:#d3d3d3;stroke-linecap:square;stroke-width:0.5;"/>
   </g>
   <g id="line2d_51">
    <path clip-path="url(#pe9c8164732)" d="M 161.340159 272.540957 
L 159.211178 272.596021 
L 159.211178 272.596021 
" style="fill:none;stroke:#000000;stroke-linecap:square;stroke-width:3;"/>
   </g>
   <g id="line2d_52">
    <path clip-path="url(#pe9c8164732)" d="M 159.211178 272.596021 
L 159.211178 272.540957 
L 161.340159 272.540957 
L 161.340159 272.596021 
L 159.211178 272.596021 
" style="fill:none;stroke:#d3d3d3;stroke-linecap:square;stroke-width:0.5;"/>
   </g>
   <g id="line2d_53">
    <path clip-path="url(#pe9c8164732)" d="M 159.606873 244.339651 
L 143.281102 250.706388 
L 136.053504 258.843232 
L 131.392338 266.651802 
L 127.886375 274.32196 
L 125.095817 281.940417 
L 122.828282 289.542384 
L 120.981831 297.142712 
L 119.495771 304.747293 
L 118.331138 312.357629 
L 117.461637 319.972857 
L 116.868925 327.590725 
L 116.539936 335.208095 
L 116.465267 342.821205 
L 116.638129 350.425817 
L 117.05365 358.01729 
L 117.708381 365.590628 
L 118.599933 373.140498 
L 119.726696 380.66124 
L 121.087621 388.146875 
L 122.682033 395.591111 
L 124.509481 402.987348 
L 126.569592 410.328695 
L 128.861957 417.607986 
L 131.386009 424.817809 
L 134.140931 431.950541 
L 137.125554 438.998392 
L 140.338281 445.95346 
L 143.77701 452.807797 
L 147.439079 459.55348 
L 151.32122 466.182688 
L 155.419523 472.687789 
L 159.729429 479.061429 
L 164.24573 485.296614 
L 168.962588 491.3868 
" style="fill:none;stroke:#000000;stroke-linecap:square;stroke-width:3;"/>
   </g>
   <g id="line2d_54">
    <path clip-path="url(#pe9c8164732)" d="M 116.465267 491.3868 
L 116.465267 244.339651 
L 168.962588 244.339651 
L 168.962588 491.3868 
L 116.465267 491.3868 
" style="fill:none;stroke:#d3d3d3;stroke-linecap:square;stroke-width:0.5;"/>
   </g>
   <g id="line2d_55">
    <path clip-path="url(#pe9c8164732)" d="M 168.962588 491.3868 
L 173.873572 497.325966 
L 178.971711 503.10869 
L 184.249557 508.7302 
L 189.699258 514.186426 
L 195.312646 519.474028 
L 201.081317 524.59041 
L 206.996726 529.533722 
L 213.050269 534.30285 
L 219.233368 538.897384 
L 225.537545 543.317583 
L 231.95449 547.564331 
L 238.47612 551.639084 
L 245.094629 555.543808 
L 251.802525 559.280926 
L 258.592662 562.853253 
L 265.458257 566.263941 
L 272.392907 569.516417 
L 279.390591 572.614333 
L 286.445674 575.561516 
L 293.552896 578.361921 
L 300.707366 581.019592 
L 307.904549 583.538624 
L 315.140251 585.923133 
L 322.410599 588.177229 
L 329.712031 590.304991 
L 337.041267 592.310449 
L 344.3953 594.197567 
L 351.771374 595.970231 
L 359.166966 597.632238 
L 366.579767 599.187289 
L 374.00767 600.63898 
L 381.448753 601.990801 
L 381.448753 601.990801 
" style="fill:none;stroke:#000000;stroke-linecap:square;stroke-width:3;"/>
   </g>
   <g id="line2d_56">
    <path clip-path="url(#pe9c8164732)" d="M 168.962588 601.990801 
L 168.962588 491.3868 
L 381.448753 491.3868 
L 381.448753 601.990801 
L 168.962588 601.990801 
" style="fill:none;stroke:#d3d3d3;stroke-linecap:square;stroke-width:0.5;"/>
   </g>
   <g id="line2d_57">
    <path clip-path="url(#pe9c8164732)" d="M 475.381658 137.771322 
L 475.381658 137.771322 
L 469.165139 141.29541 
L 462.913407 144.763923 
L 456.627515 148.177364 
L 450.308491 151.536237 
L 443.957334 154.841037 
L 437.575013 158.092257 
L 431.162471 161.290376 
L 424.720622 164.435867 
L 418.250352 167.529185 
L 411.752521 170.570771 
L 405.22796 173.561049 
L 398.677474 176.500419 
L 392.101843 179.389262 
L 385.50182 182.22793 
L 378.878133 185.016749 
L 372.231487 187.756012 
L 365.562561 190.445979 
L 358.872014 193.08687 
L 352.160482 195.678866 
L 345.428578 198.222098 
L 338.676897 200.716649 
L 331.906014 203.162543 
L 325.116488 205.559744 
L 318.308861 207.908143 
L 311.483661 210.207552 
L 304.641405 212.457692 
L 297.782601 214.658186 
L 290.907752 216.808536 
L 284.017363 218.90811 
L 277.111944 220.956119 
L 270.192021 222.95159 
L 263.25815 224.893327 
L 256.310931 226.779872 
L 249.351033 228.609445 
L 242.379227 230.379867 
L 235.396443 232.088465 
L 228.403836 233.731929 
L 221.402917 235.306123 
L 214.39573 236.805815 
L 207.385172 238.22427 
L 200.375529 239.552636 
L 193.373472 240.778955 
L 186.39 241.886496 
L 179.44468 242.850746 
L 172.576103 243.633501 
L 165.873358 244.170031 
L 159.606873 244.339651 
" style="fill:none;stroke:#000000;stroke-linecap:square;stroke-width:3;"/>
   </g>
   <g id="line2d_58">
    <path clip-path="url(#pe9c8164732)" d="M 159.606873 244.339651 
L 159.606873 137.771322 
L 475.381658 137.771322 
L 475.381658 244.339651 
L 159.606873 244.339651 
" style="fill:none;stroke:#d3d3d3;stroke-linecap:square;stroke-width:0.5;"/>
   </g>
   <g id="line2d_59">
    <path clip-path="url(#pe9c8164732)" d="M 381.448753 601.990801 
L 381.448753 601.990801 
L 388.851817 603.234948 
L 396.284853 604.377419 
L 403.748592 605.41097 
L 411.243695 606.327571 
L 418.770724 607.118308 
L 426.330097 607.773253 
L 433.922032 608.281323 
L 441.546465 608.630123 
L 449.202935 608.80575 
L 456.89043 608.792598 
L 464.607168 608.57312 
L 472.350293 608.1276 
L 480.115468 607.433921 
L 487.896313 606.467374 
L 495.683663 605.200571 
L 503.464618 603.60353 
L 511.221367 601.644081 
L 518.929849 599.288744 
L 526.558396 596.504283 
L 534.066662 593.260085 
L 541.405296 589.531375 
L 548.516946 585.303013 
L 555.339041 580.573208 
L 561.808421 575.356169 
L 567.867186 569.682693 
L 573.468507 563.598143 
" style="fill:none;stroke:#000000;stroke-linecap:square;stroke-width:3;"/>
   </g>
   <g id="line2d_60">
    <path clip-path="url(#pe9c8164732)" d="M 381.448753 608.80575 
L 381.448753 563.598143 
L 573.468507 563.598143 
L 573.468507 608.80575 
L 381.448753 608.80575 
" style="fill:none;stroke:#d3d3d3;stroke-linecap:square;stroke-width:0.5;"/>
   </g>
   <g id="line2d_61">
    <path clip-path="url(#pe9c8164732)" d="M 573.468507 563.598143 
L 578.580931 557.158136 
L 583.190161 550.423007 
L 587.29821 543.45245 
L 590.920578 536.301371 
L 594.0825 529.017435 
L 596.815204 521.640161 
L 599.152758 514.201145 
L 601.129723 506.724926 
L 602.779597 499.230124 
L 604.133895 491.730582 
L 605.221695 484.236396 
L 606.069494 476.754782 
L 606.701256 469.29077 
L 607.138572 461.847748 
L 607.400865 454.42788 
L 607.505617 447.032422 
L 607.468597 439.661962 
L 607.304072 432.316598 
L 607.025001 424.996074 
L 606.643215 417.699879 
L 606.169571 410.427323 
L 605.614093 403.177593 
L 604.986099 395.949798 
L 604.294309 388.743001 
L 603.546944 381.556243 
L 602.751821 374.388565 
L 601.916431 367.239023 
" style="fill:none;stroke:#000000;stroke-linecap:square;stroke-width:3;"/>
   </g>
   <g id="line2d_62">
    <path clip-path="url(#pe9c8164732)" d="M 573.468507 563.598143 
L 573.468507 367.239023 
L 607.505617 367.239023 
L 607.505617 563.598143 
L 573.468507 563.598143 
" style="fill:none;stroke:#d3d3d3;stroke-linecap:square;stroke-width:0.5;"/>
   </g>
   <g id="line2d_63">
    <path clip-path="url(#pe9c8164732)" d="M 601.916431 367.239023 
L 601.048018 360.106702 
L 600.15365 352.990732 
L 599.240289 345.890297 
L 598.314857 338.80465 
L 597.384304 331.733127 
L 596.455678 324.675163 
L 595.536191 317.630315 
L 594.633299 310.598284 
L 593.754778 303.57895 
L 592.908812 296.572404 
L 592.104091 289.579005 
L 591.349914 282.599438 
L 590.65631 275.634794 
L 590.034169 268.686672 
L 589.495391 261.757308 
L 589.05305 254.849742 
L 588.721575 247.968028 
L 588.516939 241.117499 
L 588.456853 234.305111 
L 588.560951 227.539858 
L 588.850927 220.833284 
L 589.3506 214.200078 
L 590.085824 207.658732 
L 591.084166 201.232173 
L 592.374256 194.948223 
L 593.984714 188.839608 
L 593.984714 188.839608 
" style="fill:none;stroke:#000000;stroke-linecap:square;stroke-width:3;"/>
   </g>
   <g id="line2d_64">
    <path clip-path="url(#pe9c8164732)" d="M 588.456853 367.239023 
L 588.456853 188.839608 
L 601.916431 188.839608 
L 601.916431 367.239023 
L 588.456853 367.239023 
" style="fill:none;stroke:#d3d3d3;stroke-linecap:square;stroke-width:0.5;"/>
   </g>
   <g id="line2d_65">
    <path clip-path="url(#pe9c8164732)" d="M 593.984714 188.839608 
" style="fill:none;stroke:#000000;stroke-linecap:square;stroke-width:3;"/>
   </g>
   <g id="line2d_66">
    <path clip-path="url(#pe9c8164732)" d="M 593.984714 188.839608 
L 593.984714 188.839608 
L 593.984714 188.839608 
L 593.984714 188.839608 
L 593.984714 188.839608 
" style="fill:none;stroke:#d3d3d3;stroke-linecap:square;stroke-width:0.5;"/>
   </g>
   <g id="line2d_67">
    <path clip-path="url(#pe9c8164732)" d="M 593.984714 188.839608 
L 593.984714 188.839608 
L 596.058675 181.334291 
L 597.841421 173.633738 
L 599.245306 165.683111 
L 600.130415 157.401809 
L 600.254927 148.672143 
L 599.164999 139.34548 
L 595.988103 129.388285 
L 589.452935 119.56789 
L 579.528658 112.158079 
L 568.618025 108.507563 
L 558.421687 107.59425 
L 549.114637 108.225173 
L 540.483825 109.75548 
L 532.338994 111.863161 
L 524.551699 114.374429 
L 517.037235 117.186283 
L 509.738222 120.232674 
L 502.614364 123.468558 
L 495.63636 126.861697 
L 488.782246 130.388126 
L 482.035115 134.02948 
L 475.381658 137.771322 
L 475.381658 137.771322 
" style="fill:none;stroke:#000000;stroke-linecap:square;stroke-width:3;"/>
   </g>
   <g id="line2d_68">
    <path clip-path="url(#pe9c8164732)" d="M 475.381658 188.839608 
L 475.381658 107.59425 
L 600.254927 107.59425 
L 600.254927 188.839608 
L 475.381658 188.839608 
" style="fill:none;stroke:#d3d3d3;stroke-linecap:square;stroke-width:0.5;"/>
   </g>
   <g id="line2d_69">
    <path clip-path="url(#pe9c8164732)" d="M 159.606873 244.339651 
L 159.606873 244.339651 
L 159.606873 244.339651 
" style="fill:none;stroke:#000000;stroke-linecap:square;stroke-width:3;"/>
   </g>
   <g id="line2d_70">
    <path clip-path="url(#pe9c8164732)" d="M 159.606873 244.339651 
L 159.606873 244.339651 
L 159.606873 244.339651 
L 159.606873 244.339651 
L 159.606873 244.339651 
" style="fill:none;stroke:#d3d3d3;stroke-linecap:square;stroke-width:0.5;"/>
   </g>
   <g id="line2d_71">
    <path clip-path="url(#pe9c8164732)" d="M 159.606873 244.339651 
L 159.606873 244.339651 
L 159.606873 244.339651 
" style="fill:none;stroke:#000000;stroke-linecap:square;stroke-width:3;"/>
   </g>
   <g id="line2d_72">
    <path clip-path="url(#pe9c8164732)" d="M 159.606873 244.339651 
L 159.606873 244.339651 
L 159.606873 244.339651 
L 159.606873 244.339651 
L 159.606873 244.339651 
" style="fill:none;stroke:#d3d3d3;stroke-linecap:square;stroke-width:0.5;"/>
   </g>
   <g id="line2d_73">
    <path clip-path="url(#pe9c8164732)" d="M 159.409025 237.273586 
L 162.191081 237.447591 
L 164.927455 237.966747 
L 167.573217 238.822531 
L 170.084923 240.00089 
L 172.421331 241.482475 
L 174.544077 243.24296 
L 176.418306 245.253437 
L 178.013243 247.480894 
L 179.3027 249.888757 
L 180.265503 252.437487 
L 180.885843 255.085236 
L 181.153534 257.788527 
L 181.064181 260.502972 
L 180.619252 263.184 
L 179.82605 265.787589 
L 178.697602 268.270988 
L 177.252436 270.593419 
L 175.514282 272.716749 
L 173.511679 274.606111 
L 171.277512 276.230484 
L 168.848464 277.563195 
L 166.264421 278.58236 
L 163.567813 279.271245 
L 160.802917 279.618539 
L 158.015134 279.618539 
L 155.250238 279.271245 
L 152.55363 278.58236 
L 149.969587 277.563195 
L 147.540539 276.230484 
L 145.306372 274.606111 
L 143.303769 272.716749 
L 141.565615 270.593419 
L 140.120449 268.270988 
L 138.992 265.787589 
L 138.198799 263.184 
L 137.753869 260.502972 
L 137.664516 257.788527 
L 137.932208 255.085236 
L 138.552548 252.437487 
L 139.515351 249.888757 
L 140.804807 247.480894 
L 142.399745 245.253437 
L 144.273974 243.24296 
L 146.39672 241.482475 
L 148.733128 240.00089 
L 151.244834 238.822531 
L 153.890596 237.966747 
L 156.62697 237.447591 
L 159.409025 237.273586 
" style="fill:none;stroke:#808080;stroke-linecap:square;stroke-width:1.5;"/>
   </g>
   <g id="line2d_74">
    <path clip-path="url(#pe9c8164732)" d="M 175.961237 455.772763 
L 178.743293 455.946767 
L 181.479667 456.465924 
L 184.125429 457.321707 
L 186.637135 458.500066 
L 188.973543 459.981652 
L 191.096289 461.742137 
L 192.970518 463.752614 
L 194.565455 465.980071 
L 195.854912 468.387933 
L 196.817715 470.936664 
L 197.438055 473.584412 
L 197.705746 476.287703 
L 197.616393 479.002148 
L 197.171464 481.683177 
L 196.378262 484.286765 
L 195.249814 486.770164 
L 193.804648 489.092596 
L 192.066494 491.215925 
L 190.063891 493.105288 
L 187.829724 494.729661 
L 185.400676 496.062371 
L 182.816633 497.081537 
L 180.120025 497.770422 
L 177.355129 498.117716 
L 174.567346 498.117716 
L 171.80245 497.770422 
L 169.105842 497.081537 
L 166.521799 496.062371 
L 164.092751 494.729661 
L 161.858584 493.105288 
L 159.855981 491.215925 
L 158.117827 489.092596 
L 156.672661 486.770164 
L 155.544212 484.286765 
L 154.751011 481.683177 
L 154.306081 479.002148 
L 154.216728 476.287703 
L 154.48442 473.584412 
L 155.10476 470.936664 
L 156.067563 468.387933 
L 157.357019 465.980071 
L 158.951957 463.752614 
L 160.826186 461.742137 
L 162.948932 459.981652 
L 165.28534 458.500066 
L 167.797046 457.321707 
L 170.442808 456.465924 
L 173.179182 455.946767 
L 175.961237 455.772763 
" style="fill:none;stroke:#808080;stroke-linecap:square;stroke-width:1.5;"/>
   </g>
   <g id="line2d_75">
    <path clip-path="url(#pe9c8164732)" d="M 384.012696 566.88958 
L 386.794752 567.063584 
L 389.531126 567.58274 
L 392.176888 568.438524 
L 394.688594 569.616883 
L 397.025002 571.098469 
L 399.147748 572.858954 
L 401.021977 574.869431 
L 402.616914 577.096888 
L 403.906371 579.50475 
L 404.869174 582.05348 
L 405.489514 584.701229 
L 405.757205 587.40452 
L 405.667853 590.118965 
L 405.222923 592.799993 
L 404.429721 595.403582 
L 403.301273 597.886981 
L 401.856107 600.209412 
L 400.117953 602.332742 
L 398.11535 604.222105 
L 395.881183 605.846478 
L 393.452135 607.179188 
L 390.868092 608.198354 
L 388.171484 608.887239 
L 385.406588 609.234533 
L 382.618805 609.234533 
L 379.853909 608.887239 
L 377.157301 608.198354 
L 374.573258 607.179188 
L 372.14421 605.846478 
L 369.910043 604.222105 
L 367.90744 602.332742 
L 366.169286 600.209412 
L 364.72412 597.886981 
L 363.595672 595.403582 
L 362.80247 592.799993 
L 362.35754 590.118965 
L 362.268188 587.40452 
L 362.535879 584.701229 
L 363.156219 582.05348 
L 364.119022 579.50475 
L 365.408478 577.096888 
L 367.003416 574.869431 
L 368.877645 572.858954 
L 371.000391 571.098469 
L 373.336799 569.616883 
L 375.848505 568.438524 
L 378.494267 567.58274 
L 381.230641 567.063584 
L 384.012696 566.88958 
" style="fill:none;stroke:#808080;stroke-linecap:square;stroke-width:1.5;"/>
   </g>
   <g id="line2d_76">
    <path clip-path="url(#pe9c8164732)" d="M 384.012696 566.88958 
L 386.794752 567.063584 
L 389.531126 567.58274 
L 392.176888 568.438524 
L 394.688594 569.616883 
L 397.025002 571.098469 
L 399.147748 572.858954 
L 401.021977 574.869431 
L 402.616914 577.096888 
L 403.906371 579.50475 
L 404.869174 582.05348 
L 405.489514 584.701229 
L 405.757205 587.40452 
L 405.667853 590.118965 
L 405.222923 592.799993 
L 404.429721 595.403582 
L 403.301273 597.886981 
L 401.856107 600.209412 
L 400.117953 602.332742 
L 398.11535 604.222105 
L 395.881183 605.846478 
L 393.452135 607.179188 
L 390.868092 608.198354 
L 388.171484 608.887239 
L 385.406588 609.234533 
L 382.618805 609.234533 
L 379.853909 608.887239 
L 377.157301 608.198354 
L 374.573258 607.179188 
L 372.14421 605.846478 
L 369.910043 604.222105 
L 367.90744 602.332742 
L 366.169286 600.209412 
L 364.72412 597.886981 
L 363.595672 595.403582 
L 362.80247 592.799993 
L 362.35754 590.118965 
L 362.268188 587.40452 
L 362.535879 584.701229 
L 363.156219 582.05348 
L 364.119022 579.50475 
L 365.408478 577.096888 
L 367.003416 574.869431 
L 368.877645 572.858954 
L 371.000391 571.098469 
L 373.336799 569.616883 
L 375.848505 568.438524 
L 378.494267 567.58274 
L 381.230641 567.063584 
L 384.012696 566.88958 
" style="fill:none;stroke:#808080;stroke-linecap:square;stroke-width:1.5;"/>
   </g>
   <g id="line2d_77">
    <path clip-path="url(#pe9c8164732)" d="M 562.322525 533.362924 
L 565.10458 533.536929 
L 567.840954 534.056085 
L 570.486716 534.911869 
L 572.998422 536.090228 
L 575.33483 537.571814 
L 577.457576 539.332299 
L 579.331806 541.342775 
L 580.926743 543.570232 
L 582.216199 545.978095 
L 583.179002 548.526825 
L 583.799342 551.174574 
L 584.067034 553.877865 
L 583.977681 556.59231 
L 583.532751 559.273338 
L 582.73955 561.876927 
L 581.611102 564.360326 
L 580.165935 566.682757 
L 578.427781 568.806087 
L 576.425179 570.69545 
L 574.191011 572.319822 
L 571.761964 573.652533 
L 569.17792 574.671698 
L 566.481312 575.360584 
L 563.716416 575.707878 
L 560.928633 575.707878 
L 558.163738 575.360584 
L 555.467129 574.671698 
L 552.883086 573.652533 
L 550.454038 572.319822 
L 548.219871 570.69545 
L 546.217269 568.806087 
L 544.479114 566.682757 
L 543.033948 564.360326 
L 541.9055 561.876927 
L 541.112299 559.273338 
L 540.667369 556.59231 
L 540.578016 553.877865 
L 540.845707 551.174574 
L 541.466047 548.526825 
L 542.42885 545.978095 
L 543.718307 543.570232 
L 545.313244 541.342775 
L 547.187473 539.332299 
L 549.31022 537.571814 
L 551.646628 536.090228 
L 554.158333 534.911869 
L 556.804095 534.056085 
L 559.540469 533.536929 
L 562.322525 533.362924 
" style="fill:none;stroke:#808080;stroke-linecap:square;stroke-width:1.5;"/>
   </g>
   <g id="line2d_78">
    <path clip-path="url(#pe9c8164732)" d="M 588.336745 354.754711 
L 591.1188 354.928716 
L 593.855174 355.447872 
L 596.500936 356.303656 
L 599.012642 357.482015 
L 601.34905 358.963601 
L 603.471796 360.724086 
L 605.346025 362.734563 
L 606.940963 364.96202 
L 608.230419 367.369882 
L 609.193222 369.918612 
L 609.813562 372.566361 
L 610.081254 375.269652 
L 609.991901 377.984097 
L 609.546971 380.665125 
L 608.75377 383.268714 
L 607.625321 385.752113 
L 606.180155 388.074544 
L 604.442001 390.197874 
L 602.439398 392.087237 
L 600.205231 393.711609 
L 597.776183 395.04432 
L 595.19214 396.063485 
L 592.495532 396.752371 
L 589.730636 397.099665 
L 586.942853 397.099665 
L 584.177957 396.752371 
L 581.481349 396.063485 
L 578.897306 395.04432 
L 576.468258 393.711609 
L 574.234091 392.087237 
L 572.231488 390.197874 
L 570.493334 388.074544 
L 569.048168 385.752113 
L 567.91972 383.268714 
L 567.126518 380.665125 
L 566.681589 377.984097 
L 566.592236 375.269652 
L 566.859927 372.566361 
L 567.480267 369.918612 
L 568.44307 367.369882 
L 569.732527 364.96202 
L 571.327464 362.734563 
L 573.201693 360.724086 
L 575.324439 358.963601 
L 577.660847 357.482015 
L 580.172553 356.303656 
L 582.818315 355.447872 
L 585.554689 354.928716 
L 588.336745 354.754711 
" style="fill:none;stroke:#808080;stroke-linecap:square;stroke-width:1.5;"/>
   </g>
   <g id="line2d_79">
    <path clip-path="url(#pe9c8164732)" d="M 578.230488 170.625339 
L 581.012544 170.799344 
L 583.748918 171.3185 
L 586.39468 172.174284 
L 588.906386 173.352643 
L 591.242794 174.834229 
L 593.36554 176.594713 
L 595.239769 178.60519 
L 596.834706 180.832647 
L 598.124163 183.24051 
L 599.086966 185.78924 
L 599.707306 188.436989 
L 599.974997 191.14028 
L 599.885645 193.854725 
L 599.440715 196.535753 
L 598.647513 199.139342 
L 597.519065 201.622741 
L 596.073899 203.945172 
L 594.335745 206.068502 
L 592.333142 207.957865 
L 590.098975 209.582237 
L 587.669927 210.914948 
L 585.085884 211.934113 
L 582.389276 212.622999 
L 579.62438 212.970293 
L 576.836597 212.970293 
L 574.071701 212.622999 
L 571.375093 211.934113 
L 568.79105 210.914948 
L 566.362002 209.582237 
L 564.127835 207.957865 
L 562.125232 206.068502 
L 560.387078 203.945172 
L 558.941912 201.622741 
L 557.813463 199.139342 
L 557.020262 196.535753 
L 556.575332 193.854725 
L 556.485979 191.14028 
L 556.753671 188.436989 
L 557.374011 185.78924 
L 558.336814 183.24051 
L 559.62627 180.832647 
L 561.221208 178.60519 
L 563.095437 176.594713 
L 565.218183 174.834229 
L 567.554591 173.352643 
L 570.066297 172.174284 
L 572.712059 171.3185 
L 575.448433 170.799344 
L 578.230488 170.625339 
" style="fill:none;stroke:#808080;stroke-linecap:square;stroke-width:1.5;"/>
   </g>
   <g id="line2d_80">
    <path clip-path="url(#pe9c8164732)" d="M 580.049513 163.727923 
L 582.831568 163.901928 
L 585.567942 164.421084 
L 588.213704 165.276868 
L 590.72541 166.455227 
L 593.061818 167.936813 
L 595.184564 169.697297 
L 597.058793 171.707774 
L 598.653731 173.935231 
L 599.943187 176.343094 
L 600.90599 178.891824 
L 601.52633 181.539573 
L 601.794022 184.242864 
L 601.704669 186.957309 
L 601.259739 189.638337 
L 600.466538 192.241926 
L 599.338089 194.725325 
L 597.892923 197.047756 
L 596.154769 199.171086 
L 594.152167 201.060449 
L 591.917999 202.684821 
L 589.488951 204.017532 
L 586.904908 205.036697 
L 584.2083 205.725583 
L 581.443404 206.072877 
L 578.655621 206.072877 
L 575.890725 205.725583 
L 573.194117 205.036697 
L 570.610074 204.017532 
L 568.181026 202.684821 
L 565.946859 201.060449 
L 563.944257 199.171086 
L 562.206102 197.047756 
L 560.760936 194.725325 
L 559.632488 192.241926 
L 558.839287 189.638337 
L 558.394357 186.957309 
L 558.305004 184.242864 
L 558.572695 181.539573 
L 559.193035 178.891824 
L 560.155838 176.343094 
L 561.445295 173.935231 
L 563.040232 171.707774 
L 564.914461 169.697297 
L 567.037207 167.936813 
L 569.373615 166.455227 
L 571.885321 165.276868 
L 574.531083 164.421084 
L 577.267457 163.901928 
L 580.049513 163.727923 
" style="fill:none;stroke:#808080;stroke-linecap:square;stroke-width:1.5;"/>
   </g>
   <g id="line2d_81">
    <path clip-path="url(#pe9c8164732)" d="M 482.735267 128.755832 
L 485.517322 128.929837 
L 488.253696 129.448993 
L 490.899458 130.304777 
L 493.411164 131.483136 
L 495.747572 132.964722 
L 497.870318 134.725206 
L 499.744548 136.735683 
L 501.339485 138.96314 
L 502.628941 141.371003 
L 503.591744 143.919733 
L 504.212084 146.567482 
L 504.479776 149.270773 
L 504.390423 151.985218 
L 503.945493 154.666246 
L 503.152292 157.269835 
L 502.023844 159.753234 
L 500.578677 162.075665 
L 498.840523 164.198995 
L 496.837921 166.088358 
L 494.603753 167.71273 
L 492.174706 169.045441 
L 489.590663 170.064606 
L 486.894054 170.753492 
L 484.129158 171.100786 
L 481.341375 171.100786 
L 478.57648 170.753492 
L 475.879871 170.064606 
L 473.295828 169.045441 
L 470.86678 167.71273 
L 468.632613 166.088358 
L 466.630011 164.198995 
L 464.891856 162.075665 
L 463.44669 159.753234 
L 462.318242 157.269835 
L 461.525041 154.666246 
L 461.080111 151.985218 
L 460.990758 149.270773 
L 461.258449 146.567482 
L 461.878789 143.919733 
L 462.841592 141.371003 
L 464.131049 138.96314 
L 465.725986 136.735683 
L 467.600215 134.725206 
L 469.722962 132.964722 
L 472.05937 131.483136 
L 474.571075 130.304777 
L 477.216837 129.448993 
L 479.953211 128.929837 
L 482.735267 128.755832 
" style="fill:none;stroke:#808080;stroke-linecap:square;stroke-width:1.5;"/>
   </g>
   <g id="line2d_82"/>
   <g id="line2d_83"/>
   <g id="line2d_84"/>
   <g id="line2d_85"/>
   <g id="line2d_86"/>
   <g id="line2d_87"/>
   <g id="line2d_88"/>
   <g id="line2d_89"/>
   <g id="line2d_90"/>
   <g id="line2d_91"/>
   <g id="line2d_92"/>
   <g id="line2d_93"/>
   <g id="line2d_94"/>
   <g id="line2d_95"/>
   <g id="line2d_96"/>
   <g id="line2d_97"/>
   <g id="line2d_98"/>
   <g id="line2d_99"/>
   <g id="line2d_100"/>
   <g id="line2d_101"/>
   <g id="line2d_102"/>
   <g id="line2d_103"/>
   <g id="line2d_104"/>
   <g id="line2d_105"/>
   <g id="line2d_106"/>
   <g id="line2d_107"/>
   <g id="line2d_108"/>
   <g id="line2d_109"/>
   <g id="line2d_110"/>
   <g id="line2d_111"/>
   <g id="line2d_112"/>
   <g id="line2d_113"/>
   <g id="line2d_114"/>
   <g id="line2d_115"/>
   <g id="line2d_116"/>
   <g id="line2d_117"/>
   <g id="line2d_118"/>
   <g id="line2d_119"/>
   <g id="line2d_120"/>
   <g id="line2d_121"/>
   <g id="line2d_122"/>
   <g id="line2d_123"/>
   <g id="line2d_124"/>
   <g id="line2d_125"/>
   <g id="line2d_126"/>
   <g id="line2d_127"/>
   <g id="line2d_128"/>
   <g id="line2d_129"/>
   <g id="line2d_130"/>
   <g id="line2d_131"/>
   <g id="line2d_132"/>
   <g id="patch_3">
    <path d="M 90 630 
L 90 86.4 
" style="fill:none;stroke:#000000;stroke-linecap:square;stroke-linejoin:miter;stroke-width:0.8;"/>
   </g>
   <g id="patch_4">
    <path d="M 648 630 
L 648 86.4 
" style="fill:none;stroke:#000000;stroke-linecap:square;stroke-linejoin:miter;stroke-width:0.8;"/>
   </g>
   <g id="patch_5">
    <path d="M 90 630 
L 648 630 
" style="fill:none;stroke:#000000;stroke-linecap:square;stroke-linejoin:miter;stroke-width:0.8;"/>
   </g>
   <g id="patch_6">
    <path d="M 90 86.4 
L 648 86.4 
" style="fill:none;stroke:#000000;stroke-linecap:square;stroke-linejoin:miter;stroke-width:0.8;"/>
   </g>
   <g id="text_15">
    <!-- 0 -->
    <g transform="translate(12.583601 422.828562)scale(0.1 -0.1)">
     <use xlink:href="#DejaVuSans-30"/>
    </g>
   </g>
   <g id="text_16">
    <!-- 0 -->
    <g transform="translate(12.583601 401.634313)scale(0.1 -0.1)">
     <use xlink:href="#DejaVuSans-30"/>
    </g>
   </g>
   <g id="text_17">
    <!-- 0 -->
    <g transform="translate(12.583601 380.440063)scale(0.1 -0.1)">
     <use xlink:href="#DejaVuSans-30"/>
    </g>
   </g>
  </g>
 </g>
 <defs>
  <clipPath id="pe9c8164732">
   <rect height="543.6" width="558" x="90" y="86.4"/>
  </clipPath>
 </defs>
</svg>
