<?xml version="1.0" encoding="utf-8" standalone="no"?>
<!DOCTYPE svg PUBLIC "-//W3C//DTD SVG 1.1//EN"
  "http://www.w3.org/Graphics/SVG/1.1/DTD/svg11.dtd">
<svg height="720pt" version="1.1" viewBox="0 0 720 720" width="720pt" xmlns="http://www.w3.org/2000/svg" xmlns:xlink="http://www.w3.org/1999/xlink">
 <metadata>
  <rdf:RDF xmlns:cc="http://creativecommons.org/ns#" xmlns:dc="http://purl.org/dc/elements/1.1/" xmlns:rdf="http://www.w3.org/1999/02/22-rdf-syntax-ns#">
   <cc:Work>
    <dc:type rdf:resource="http://purl.org/dc/dcmitype/StillImage"/>
    <dc:date>2022-01-11T13:26:06.959731</dc:date>
    <dc:format>image/svg+xml</dc:format>
    <dc:creator>
     <cc:Agent>
      <dc:title>Matplotlib v3.4.3, https://matplotlib.org/</dc:title>
     </cc:Agent>
    </dc:creator>
   </cc:Work>
  </rdf:RDF>
 </metadata>
 <defs>
  <style type="text/css">*{stroke-linecap:butt;stroke-linejoin:round;}</style>
 </defs>
 <g id="figure_1">
  <g id="patch_1">
   <path d="M 0 720 
L 720 720 
L 720 0 
L 0 0 
z
" style="fill:none;"/>
  </g>
  <g id="axes_1">
   <g id="patch_2">
    <path d="M 90 630 
L 648 630 
L 648 86.4 
L 90 86.4 
z
" style="fill:#ffffff;"/>
   </g>
   <g id="PathCollection_1">
    <defs>
     <path d="M 0.972304 -8.870829 
Q -1.277159 -8.870829 -2.413438 -6.653699 
Q -3.545098 -4.441189 -3.545098 0.006929 
Q -3.545098 4.436569 -2.413438 6.653699 
Q -1.277159 8.870829 0.972304 8.870829 
Q 3.240243 8.870829 4.371903 6.653699 
Q 5.508182 4.436569 5.508182 0.006929 
Q 5.508182 -4.441189 4.371903 -6.653699 
Q 3.240243 -8.870829 0.972304 -8.870829 
z
M 0.972304 -11.18034 
Q 4.598235 -11.18034 6.51051 -8.311928 
Q 8.422784 -5.448135 8.422784 0.006929 
Q 8.422784 5.448135 6.51051 8.316547 
Q 4.598235 11.18034 0.972304 11.18034 
Q -2.649008 11.18034 -4.561283 8.316547 
Q -6.473558 5.448135 -6.473558 0.006929 
Q -6.473558 -5.448135 -4.561283 -8.311928 
Q -2.649008 -11.18034 0.972304 -11.18034 
z
" id="m739fdaa8f5" style="stroke:#808080;"/>
    </defs>
    <g clip-path="url(#pf77689a8a1)">
     <use style="fill:#808080;stroke:#808080;" x="308.694923" xlink:href="#m739fdaa8f5" y="186.761064"/>
    </g>
   </g>
   <g id="PathCollection_2">
    <defs>
     <path d="M -4.535873 8.63565 
L 0.404946 8.63565 
L 0.404946 -8.424791 
L -4.971969 -7.346533 
L -4.971969 -10.102082 
L 0.376192 -11.18034 
L 3.400108 -11.18034 
L 3.400108 8.63565 
L 8.340927 8.63565 
L 8.340927 11.18034 
L -4.535873 11.18034 
L -4.535873 8.63565 
z
" id="m52e52fc826" style="stroke:#808080;"/>
    </defs>
    <g clip-path="url(#pf77689a8a1)">
     <use style="fill:#808080;stroke:#808080;" x="151.704162" xlink:href="#m52e52fc826" y="284.370028"/>
    </g>
   </g>
   <g id="PathCollection_3">
    <defs>
     <path d="M -2.294912 8.680651 
L 8.075736 8.680651 
L 8.075736 11.18034 
L -5.867913 11.18034 
L -5.867913 8.680651 
Q -4.177916 6.929457 -1.259259 3.982555 
Q 1.664105 1.030945 2.4126 0.174178 
Q 3.838976 -1.426376 4.403877 -2.537349 
Q 4.973486 -3.648321 4.973486 -4.721634 
Q 4.973486 -6.472828 3.744825 -7.574386 
Q 2.516165 -8.680651 0.543718 -8.680651 
Q -0.854413 -8.680651 -2.407892 -8.195778 
Q -3.956663 -7.710904 -5.72198 -6.722326 
L -5.72198 -9.725719 
Q -3.928418 -10.445968 -2.370232 -10.813154 
Q -0.807338 -11.18034 0.487227 -11.18034 
Q 3.900173 -11.18034 5.929111 -9.471513 
Q 7.958048 -7.767394 7.958048 -4.914642 
Q 7.958048 -3.558879 7.449637 -2.344341 
Q 6.945933 -1.13451 5.604292 0.513119 
Q 5.237107 0.941502 3.264659 2.979855 
Q 1.296919 5.018207 -2.294912 8.680651 
z
" id="mec0bc20d8e" style="stroke:#808080;"/>
    </defs>
    <g clip-path="url(#pf77689a8a1)">
     <use style="fill:#808080;stroke:#808080;" x="151.704162" xlink:href="#mec0bc20d8e" y="284.370028"/>
    </g>
   </g>
   <g id="PathCollection_4">
    <defs>
     <path d="M 3.77605 -0.861447 
Q 5.868466 -0.413402 7.041697 1.004637 
Q 8.219548 2.418057 8.219548 4.496617 
Q 8.219548 7.683741 6.025513 9.43435 
Q 3.831478 11.18034 -0.210165 11.18034 
Q -1.563539 11.18034 -3.000054 10.912437 
Q -4.436569 10.644533 -5.965465 10.108727 
L -5.965465 7.295743 
Q -4.755282 8.002454 -3.314147 8.362737 
Q -1.868394 8.723021 -0.293308 8.723021 
Q 2.445772 8.723021 3.882287 7.64217 
Q 5.318802 6.561319 5.318802 4.496617 
Q 5.318802 2.588961 3.983905 1.517348 
Q 2.649008 0.441116 0.270213 0.441116 
L -2.242535 0.441116 
L -2.242535 -1.956155 
L 0.385688 -1.956155 
Q 2.533533 -1.956155 3.674431 -2.815293 
Q 4.815329 -3.674431 4.815329 -5.291088 
Q 4.815329 -6.949317 3.637479 -7.836169 
Q 2.464248 -8.72764 0.270213 -8.72764 
Q -0.930733 -8.72764 -2.302582 -8.464356 
Q -3.674431 -8.20569 -5.318802 -7.660646 
L -5.318802 -10.256536 
Q -3.655955 -10.718438 -2.205582 -10.949389 
Q -0.75521 -11.18034 0.528878 -11.18034 
Q 3.849954 -11.18034 5.780705 -9.66992 
Q 7.716074 -8.164119 7.716074 -5.595944 
Q 7.716074 -3.803764 6.690652 -2.570485 
Q 5.665229 -1.337207 3.77605 -0.861447 
z
" id="me4d688c993" style="stroke:#808080;"/>
    </defs>
    <g clip-path="url(#pf77689a8a1)">
     <use style="fill:#808080;stroke:#808080;" x="145.034668" xlink:href="#me4d688c993" y="347.741017"/>
    </g>
   </g>
   <g id="PathCollection_5">
    <defs>
     <path d="M 2.695646 -8.544598 
L -4.943215 3.392919 
L 2.695646 3.392919 
L 2.695646 -8.544598 
z
M 1.900131 -11.18034 
L 5.705184 -11.18034 
L 5.705184 3.392919 
L 8.896829 3.392919 
L 8.896829 5.908855 
L 5.705184 5.908855 
L 5.705184 11.18034 
L 2.695646 11.18034 
L 2.695646 5.908855 
L -7.396852 5.908855 
L -7.396852 2.99037 
L 1.900131 -11.18034 
z
" id="m7259a4eebd" style="stroke:#808080;"/>
    </defs>
    <g clip-path="url(#pf77689a8a1)">
     <use style="fill:#808080;stroke:#808080;" x="261.652693" xlink:href="#m7259a4eebd" y="439.721609"/>
    </g>
   </g>
   <g id="PathCollection_6">
    <defs>
     <path d="M -5.008473 -11.18034 
L 6.639575 -11.18034 
L 6.639575 -8.679629 
L -2.291535 -8.679629 
L -2.291535 -3.306861 
Q -1.647555 -3.527789 -1.003575 -3.635902 
Q -0.354894 -3.744015 0.293787 -3.744015 
Q 3.964943 -3.744015 6.108409 -1.732165 
Q 8.256576 0.279685 8.256576 3.715812 
Q 8.256576 7.255352 6.052002 9.220196 
Q 3.847428 11.18034 -0.16217 11.18034 
Q -1.544142 11.18034 -2.97782 10.945311 
Q -4.406798 10.710281 -5.934488 10.240223 
L -5.934488 7.255352 
Q -4.613624 7.974541 -3.203448 8.327085 
Q -1.793273 8.679629 -0.223278 8.679629 
Q 2.319738 8.679629 3.800422 7.344663 
Q 5.285807 6.009697 5.285807 3.715812 
Q 5.285807 1.426627 3.800422 0.091661 
Q 2.319738 -1.248005 -0.223278 -1.248005 
Q -1.412526 -1.248005 -2.597073 -0.984772 
Q -3.77692 -0.72154 -5.008473 -0.16217 
L -5.008473 -11.18034 
z
" id="m74247c7d9c" style="stroke:#808080;"/>
    </defs>
    <g clip-path="url(#pf77689a8a1)">
     <use style="fill:#808080;stroke:#808080;" x="402.212404" xlink:href="#m74247c7d9c" y="473.619372"/>
    </g>
   </g>
   <g id="PathCollection_7">
    <defs>
     <path d="M 1.286397 -1.175541 
Q -0.676687 -1.175541 -1.826823 0.168594 
Q -2.97234 1.50811 -2.97234 3.845335 
Q -2.97234 6.168702 -1.826823 7.522075 
Q -0.676687 8.870829 1.286397 8.870829 
Q 3.249481 8.870829 4.394998 7.522075 
Q 5.540515 6.168702 5.540515 3.845335 
Q 5.540515 1.50811 4.394998 0.168594 
Q 3.249481 -1.175541 1.286397 -1.175541 
z
M 7.07403 -10.316583 
L 7.07403 -7.660646 
Q 5.974703 -8.177976 4.8569 -8.450499 
Q 3.739097 -8.72764 2.63977 -8.72764 
Q -0.247118 -8.72764 -1.771394 -6.778413 
Q -3.291052 -4.829186 -3.508146 -0.889162 
Q -2.658246 -2.145535 -1.374159 -2.815293 
Q -0.085452 -3.485051 1.457301 -3.485051 
Q 4.704473 -3.485051 6.589033 -1.512729 
Q 8.473594 0.454974 8.473594 3.845335 
Q 8.473594 7.166411 6.51051 9.175685 
Q 4.547426 11.18034 1.286397 11.18034 
Q -2.45501 11.18034 -4.43195 8.316547 
Q -6.408891 5.448135 -6.408891 0.006929 
Q -6.408891 -5.101708 -3.983905 -8.141024 
Q -1.55892 -11.18034 2.524295 -11.18034 
Q 3.623622 -11.18034 4.741425 -10.963246 
Q 5.859228 -10.746152 7.07403 -10.316583 
z
" id="m971115eb3f" style="stroke:#808080;"/>
    </defs>
    <g clip-path="url(#pf77689a8a1)">
     <use style="fill:#808080;stroke:#808080;" x="541.400332" xlink:href="#m971115eb3f" y="516.850298"/>
    </g>
   </g>
   <g id="PathCollection_8">
    <defs>
     <path d="M -5.93042 -11.18034 
L 8.446356 -11.18034 
L 8.446356 -9.891222 
L 0.32827 11.18034 
L -2.829829 11.18034 
L 4.809032 -8.630858 
L -5.93042 -8.630858 
L -5.93042 -11.18034 
z
" id="m447a4c87d6" style="stroke:#808080;"/>
    </defs>
    <g clip-path="url(#pf77689a8a1)">
     <use style="fill:#808080;stroke:#808080;" x="603.045796" xlink:href="#m447a4c87d6" y="474.591386"/>
    </g>
   </g>
   <g id="PathCollection_9">
    <defs>
     <path d="M 1.002328 0.524259 
Q -1.076232 0.524259 -2.267939 1.637443 
Q -3.455028 2.750627 -3.455028 4.695235 
Q -3.455028 6.644461 -2.267939 7.757645 
Q -1.076232 8.870829 1.002328 8.870829 
Q 3.080887 8.870829 4.277213 7.753026 
Q 5.478159 6.630604 5.478159 4.695235 
Q 5.478159 2.750627 4.286451 1.637443 
Q 3.099363 0.524259 1.002328 0.524259 
z
M -1.912275 -0.713639 
Q -3.787597 -1.175541 -4.836115 -2.459629 
Q -5.880014 -3.748335 -5.880014 -5.595944 
Q -5.880014 -8.177976 -4.041643 -9.679158 
Q -2.198654 -11.18034 1.002328 -11.18034 
Q 4.221785 -11.18034 6.055536 -9.679158 
Q 7.889288 -8.177976 7.889288 -5.595944 
Q 7.889288 -3.748335 6.84077 -2.459629 
Q 5.796871 -1.175541 3.935406 -0.713639 
Q 6.041679 -0.224023 7.214911 1.207874 
Q 8.392761 2.635151 8.392761 4.695235 
Q 8.392761 7.83155 6.480486 9.508254 
Q 4.568212 11.18034 1.002328 11.18034 
Q -2.558938 11.18034 -4.475831 9.508254 
Q -6.388106 7.83155 -6.388106 4.695235 
Q -6.388106 2.635151 -5.205636 1.207874 
Q -4.018548 -0.224023 -1.912275 -0.713639 
z
M -2.979268 -5.318802 
Q -2.979268 -3.646717 -1.93537 -2.709056 
Q -0.886852 -1.771394 1.002328 -1.771394 
Q 2.882269 -1.771394 3.940025 -2.709056 
Q 5.0024 -3.646717 5.0024 -5.318802 
Q 5.0024 -6.995507 3.940025 -7.933168 
Q 2.882269 -8.870829 1.002328 -8.870829 
Q -0.886852 -8.870829 -1.93537 -7.933168 
Q -2.979268 -6.995507 -2.979268 -5.318802 
z
" id="m2b11dd1025" style="stroke:#808080;"/>
    </defs>
    <g clip-path="url(#pf77689a8a1)">
     <use style="fill:#808080;stroke:#808080;" x="600.49099" xlink:href="#m2b11dd1025" y="471.382723"/>
    </g>
   </g>
   <g id="PathCollection_10">
    <defs>
     <path d="M -5.117875 10.311964 
L -5.117875 7.656027 
Q -4.018548 8.177976 -2.896126 8.450499 
Q -1.769085 8.723021 -0.683615 8.723021 
Q 2.203273 8.723021 3.722931 6.783032 
Q 5.247208 4.843043 5.464302 0.884542 
Q 4.628259 2.127059 3.339552 2.792198 
Q 2.055464 3.457337 0.498854 3.457337 
Q -2.73446 3.457337 -4.619021 1.503491 
Q -6.503581 -0.454974 -6.503581 -3.849954 
Q -6.503581 -7.166411 -4.540497 -9.171066 
Q -2.577414 -11.18034 0.683615 -11.18034 
Q 4.425022 -11.18034 6.392725 -8.311928 
Q 8.365047 -5.448135 8.365047 0.006929 
Q 8.365047 5.101708 5.94468 8.141024 
Q 3.528932 11.18034 -0.554282 11.18034 
Q -1.653609 11.18034 -2.780651 10.963246 
Q -3.903073 10.746152 -5.117875 10.311964 
z
M 0.683615 1.175541 
Q 2.646699 1.175541 3.792216 -0.163975 
Q 4.942352 -1.50811 4.942352 -3.849954 
Q 4.942352 -6.173321 3.792216 -7.522075 
Q 2.646699 -8.870829 0.683615 -8.870829 
Q -1.279469 -8.870829 -2.424986 -7.522075 
Q -3.570503 -6.173321 -3.570503 -3.849954 
Q -3.570503 -1.50811 -2.424986 -0.163975 
Q -1.279469 1.175541 0.683615 1.175541 
z
" id="m4d40ed6d15" style="stroke:#808080;"/>
    </defs>
    <g clip-path="url(#pf77689a8a1)">
     <use style="fill:#808080;stroke:#808080;" x="503.307216" xlink:href="#m4d40ed6d15" y="321.248113"/>
    </g>
   </g>
   <g id="PathCollection_11">
    <defs>
     <path d="M -8.880215 5.210045 
L -5.893528 5.210045 
L -5.893528 -5.10286 
L -9.143831 -4.451061 
L -9.143831 -6.116769 
L -5.910909 -6.768568 
L -4.082976 -6.768568 
L -4.082976 5.210045 
L -1.096289 5.210045 
L -1.096289 6.74829 
L -8.880215 6.74829 
L -8.880215 5.210045 
z
M 6.507667 -5.563464 
Q 5.096885 -5.563464 4.384252 -4.17296 
Q 3.674515 -2.785353 3.674515 0.004345 
Q 3.674515 2.782456 4.384252 4.17296 
Q 5.096885 5.563464 6.507667 5.563464 
Q 7.930037 5.563464 8.639773 4.17296 
Q 9.352407 2.782456 9.352407 0.004345 
Q 9.352407 -2.785353 8.639773 -4.17296 
Q 7.930037 -5.563464 6.507667 -5.563464 
z
M 6.507667 -7.011906 
Q 8.781721 -7.011906 9.98103 -5.212941 
Q 11.18034 -3.416874 11.18034 0.004345 
Q 11.18034 3.416874 9.98103 5.215838 
Q 8.781721 7.011906 6.507667 7.011906 
Q 4.236511 7.011906 3.037201 5.215838 
Q 1.837891 3.416874 1.837891 0.004345 
Q 1.837891 -3.416874 3.037201 -5.212941 
Q 4.236511 -7.011906 6.507667 -7.011906 
z
" id="mddb7ce3b72" style="stroke:#808080;"/>
    </defs>
    <g clip-path="url(#pf77689a8a1)">
     <use style="fill:#808080;stroke:#808080;" x="445.465046" xlink:href="#mddb7ce3b72" y="157.303872"/>
    </g>
   </g>
   <g id="PathCollection_12"/>
   <g id="PathCollection_13"/>
   <g id="PathCollection_14"/>
   <g id="PathCollection_15"/>
   <g id="PathCollection_16"/>
   <g id="matplotlib.axis_1">
    <g id="xtick_1">
     <g id="line2d_1">
      <defs>
       <path d="M 0 0 
L 0 3.5 
" id="m645ce72a79" style="stroke:#000000;stroke-width:0.8;"/>
      </defs>
      <g>
       <use style="stroke:#000000;stroke-width:0.8;" x="110.724544" xlink:href="#m645ce72a79" y="630"/>
      </g>
     </g>
     <g id="text_1">
      <!-- −300 -->
      <g transform="translate(96.99095 644.598438)scale(0.1 -0.1)">
       <defs>
        <path d="M 678 2272 
L 4684 2272 
L 4684 1741 
L 678 1741 
L 678 2272 
z
" id="DejaVuSans-2212" transform="scale(0.015625)"/>
        <path d="M 2597 2516 
Q 3050 2419 3304 2112 
Q 3559 1806 3559 1356 
Q 3559 666 3084 287 
Q 2609 -91 1734 -91 
Q 1441 -91 1130 -33 
Q 819 25 488 141 
L 488 750 
Q 750 597 1062 519 
Q 1375 441 1716 441 
Q 2309 441 2620 675 
Q 2931 909 2931 1356 
Q 2931 1769 2642 2001 
Q 2353 2234 1838 2234 
L 1294 2234 
L 1294 2753 
L 1863 2753 
Q 2328 2753 2575 2939 
Q 2822 3125 2822 3475 
Q 2822 3834 2567 4026 
Q 2313 4219 1838 4219 
Q 1578 4219 1281 4162 
Q 984 4106 628 3988 
L 628 4550 
Q 988 4650 1302 4700 
Q 1616 4750 1894 4750 
Q 2613 4750 3031 4423 
Q 3450 4097 3450 3541 
Q 3450 3153 3228 2886 
Q 3006 2619 2597 2516 
z
" id="DejaVuSans-33" transform="scale(0.015625)"/>
        <path d="M 2034 4250 
Q 1547 4250 1301 3770 
Q 1056 3291 1056 2328 
Q 1056 1369 1301 889 
Q 1547 409 2034 409 
Q 2525 409 2770 889 
Q 3016 1369 3016 2328 
Q 3016 3291 2770 3770 
Q 2525 4250 2034 4250 
z
M 2034 4750 
Q 2819 4750 3233 4129 
Q 3647 3509 3647 2328 
Q 3647 1150 3233 529 
Q 2819 -91 2034 -91 
Q 1250 -91 836 529 
Q 422 1150 422 2328 
Q 422 3509 836 4129 
Q 1250 4750 2034 4750 
z
" id="DejaVuSans-30" transform="scale(0.015625)"/>
       </defs>
       <use xlink:href="#DejaVuSans-2212"/>
       <use x="83.789062" xlink:href="#DejaVuSans-33"/>
       <use x="147.412109" xlink:href="#DejaVuSans-30"/>
       <use x="211.035156" xlink:href="#DejaVuSans-30"/>
      </g>
     </g>
    </g>
    <g id="xtick_2">
     <g id="line2d_2">
      <g>
       <use style="stroke:#000000;stroke-width:0.8;" x="193.126391" xlink:href="#m645ce72a79" y="630"/>
      </g>
     </g>
     <g id="text_2">
      <!-- −200 -->
      <g transform="translate(179.392797 644.598438)scale(0.1 -0.1)">
       <defs>
        <path d="M 1228 531 
L 3431 531 
L 3431 0 
L 469 0 
L 469 531 
Q 828 903 1448 1529 
Q 2069 2156 2228 2338 
Q 2531 2678 2651 2914 
Q 2772 3150 2772 3378 
Q 2772 3750 2511 3984 
Q 2250 4219 1831 4219 
Q 1534 4219 1204 4116 
Q 875 4013 500 3803 
L 500 4441 
Q 881 4594 1212 4672 
Q 1544 4750 1819 4750 
Q 2544 4750 2975 4387 
Q 3406 4025 3406 3419 
Q 3406 3131 3298 2873 
Q 3191 2616 2906 2266 
Q 2828 2175 2409 1742 
Q 1991 1309 1228 531 
z
" id="DejaVuSans-32" transform="scale(0.015625)"/>
       </defs>
       <use xlink:href="#DejaVuSans-2212"/>
       <use x="83.789062" xlink:href="#DejaVuSans-32"/>
       <use x="147.412109" xlink:href="#DejaVuSans-30"/>
       <use x="211.035156" xlink:href="#DejaVuSans-30"/>
      </g>
     </g>
    </g>
    <g id="xtick_3">
     <g id="line2d_3">
      <g>
       <use style="stroke:#000000;stroke-width:0.8;" x="275.528237" xlink:href="#m645ce72a79" y="630"/>
      </g>
     </g>
     <g id="text_3">
      <!-- −100 -->
      <g transform="translate(261.794644 644.598438)scale(0.1 -0.1)">
       <defs>
        <path d="M 794 531 
L 1825 531 
L 1825 4091 
L 703 3866 
L 703 4441 
L 1819 4666 
L 2450 4666 
L 2450 531 
L 3481 531 
L 3481 0 
L 794 0 
L 794 531 
z
" id="DejaVuSans-31" transform="scale(0.015625)"/>
       </defs>
       <use xlink:href="#DejaVuSans-2212"/>
       <use x="83.789062" xlink:href="#DejaVuSans-31"/>
       <use x="147.412109" xlink:href="#DejaVuSans-30"/>
       <use x="211.035156" xlink:href="#DejaVuSans-30"/>
      </g>
     </g>
    </g>
    <g id="xtick_4">
     <g id="line2d_4">
      <g>
       <use style="stroke:#000000;stroke-width:0.8;" x="357.930084" xlink:href="#m645ce72a79" y="630"/>
      </g>
     </g>
     <g id="text_4">
      <!-- 0 -->
      <g transform="translate(354.748834 644.598438)scale(0.1 -0.1)">
       <use xlink:href="#DejaVuSans-30"/>
      </g>
     </g>
    </g>
    <g id="xtick_5">
     <g id="line2d_5">
      <g>
       <use style="stroke:#000000;stroke-width:0.8;" x="440.331931" xlink:href="#m645ce72a79" y="630"/>
      </g>
     </g>
     <g id="text_5">
      <!-- 100 -->
      <g transform="translate(430.788181 644.598438)scale(0.1 -0.1)">
       <use xlink:href="#DejaVuSans-31"/>
       <use x="63.623047" xlink:href="#DejaVuSans-30"/>
       <use x="127.246094" xlink:href="#DejaVuSans-30"/>
      </g>
     </g>
    </g>
    <g id="xtick_6">
     <g id="line2d_6">
      <g>
       <use style="stroke:#000000;stroke-width:0.8;" x="522.733777" xlink:href="#m645ce72a79" y="630"/>
      </g>
     </g>
     <g id="text_6">
      <!-- 200 -->
      <g transform="translate(513.190027 644.598438)scale(0.1 -0.1)">
       <use xlink:href="#DejaVuSans-32"/>
       <use x="63.623047" xlink:href="#DejaVuSans-30"/>
       <use x="127.246094" xlink:href="#DejaVuSans-30"/>
      </g>
     </g>
    </g>
    <g id="xtick_7">
     <g id="line2d_7">
      <g>
       <use style="stroke:#000000;stroke-width:0.8;" x="605.135624" xlink:href="#m645ce72a79" y="630"/>
      </g>
     </g>
     <g id="text_7">
      <!-- 300 -->
      <g transform="translate(595.591874 644.598438)scale(0.1 -0.1)">
       <use xlink:href="#DejaVuSans-33"/>
       <use x="63.623047" xlink:href="#DejaVuSans-30"/>
       <use x="127.246094" xlink:href="#DejaVuSans-30"/>
      </g>
     </g>
    </g>
   </g>
   <g id="matplotlib.axis_2">
    <g id="ytick_1">
     <g id="line2d_8">
      <defs>
       <path d="M 0 0 
L -3.5 0 
" id="mec709a6784" style="stroke:#000000;stroke-width:0.8;"/>
      </defs>
      <g>
       <use style="stroke:#000000;stroke-width:0.8;" x="90" xlink:href="#mec709a6784" y="609.810283"/>
      </g>
     </g>
     <g id="text_8">
      <!-- −300 -->
      <g transform="translate(55.532812 613.609502)scale(0.1 -0.1)">
       <use xlink:href="#DejaVuSans-2212"/>
       <use x="83.789062" xlink:href="#DejaVuSans-33"/>
       <use x="147.412109" xlink:href="#DejaVuSans-30"/>
       <use x="211.035156" xlink:href="#DejaVuSans-30"/>
      </g>
     </g>
    </g>
    <g id="ytick_2">
     <g id="line2d_9">
      <g>
       <use style="stroke:#000000;stroke-width:0.8;" x="90" xlink:href="#mec709a6784" y="529.534936"/>
      </g>
     </g>
     <g id="text_9">
      <!-- −200 -->
      <g transform="translate(55.532812 533.334154)scale(0.1 -0.1)">
       <use xlink:href="#DejaVuSans-2212"/>
       <use x="83.789062" xlink:href="#DejaVuSans-32"/>
       <use x="147.412109" xlink:href="#DejaVuSans-30"/>
       <use x="211.035156" xlink:href="#DejaVuSans-30"/>
      </g>
     </g>
    </g>
    <g id="ytick_3">
     <g id="line2d_10">
      <g>
       <use style="stroke:#000000;stroke-width:0.8;" x="90" xlink:href="#mec709a6784" y="449.259588"/>
      </g>
     </g>
     <g id="text_10">
      <!-- −100 -->
      <g transform="translate(55.532812 453.058807)scale(0.1 -0.1)">
       <use xlink:href="#DejaVuSans-2212"/>
       <use x="83.789062" xlink:href="#DejaVuSans-31"/>
       <use x="147.412109" xlink:href="#DejaVuSans-30"/>
       <use x="211.035156" xlink:href="#DejaVuSans-30"/>
      </g>
     </g>
    </g>
    <g id="ytick_4">
     <g id="line2d_11">
      <g>
       <use style="stroke:#000000;stroke-width:0.8;" x="90" xlink:href="#mec709a6784" y="368.984241"/>
      </g>
     </g>
     <g id="text_11">
      <!-- 0 -->
      <g transform="translate(76.6375 372.78346)scale(0.1 -0.1)">
       <use xlink:href="#DejaVuSans-30"/>
      </g>
     </g>
    </g>
    <g id="ytick_5">
     <g id="line2d_12">
      <g>
       <use style="stroke:#000000;stroke-width:0.8;" x="90" xlink:href="#mec709a6784" y="288.708893"/>
      </g>
     </g>
     <g id="text_12">
      <!-- 100 -->
      <g transform="translate(63.9125 292.508112)scale(0.1 -0.1)">
       <use xlink:href="#DejaVuSans-31"/>
       <use x="63.623047" xlink:href="#DejaVuSans-30"/>
       <use x="127.246094" xlink:href="#DejaVuSans-30"/>
      </g>
     </g>
    </g>
    <g id="ytick_6">
     <g id="line2d_13">
      <g>
       <use style="stroke:#000000;stroke-width:0.8;" x="90" xlink:href="#mec709a6784" y="208.433546"/>
      </g>
     </g>
     <g id="text_13">
      <!-- 200 -->
      <g transform="translate(63.9125 212.232765)scale(0.1 -0.1)">
       <use xlink:href="#DejaVuSans-32"/>
       <use x="63.623047" xlink:href="#DejaVuSans-30"/>
       <use x="127.246094" xlink:href="#DejaVuSans-30"/>
      </g>
     </g>
    </g>
    <g id="ytick_7">
     <g id="line2d_14">
      <g>
       <use style="stroke:#000000;stroke-width:0.8;" x="90" xlink:href="#mec709a6784" y="128.158198"/>
      </g>
     </g>
     <g id="text_14">
      <!-- 300 -->
      <g transform="translate(63.9125 131.957417)scale(0.1 -0.1)">
       <use xlink:href="#DejaVuSans-33"/>
       <use x="63.623047" xlink:href="#DejaVuSans-30"/>
       <use x="127.246094" xlink:href="#DejaVuSans-30"/>
      </g>
     </g>
    </g>
   </g>
   <g id="line2d_15">
    <path clip-path="url(#pf77689a8a1)" d="M 445.465046 157.303872 
L 444.572885 153.331494 
L 443.609377 149.374277 
L 442.5648 145.436019 
L 441.427387 141.521778 
L 440.182749 137.63839 
L 438.813106 133.795245 
L 437.296268 130.005495 
L 435.604324 126.287969 
L 433.702092 122.670241 
L 431.545662 119.193551 
L 429.082259 115.920417 
L 426.254746 112.944893 
L 423.017526 110.400993 
L 419.370239 108.453137 
L 415.394826 107.244897 
L 411.246405 106.821786 
L 407.082338 107.108271 
L 403.002632 107.965416 
L 399.047825 109.256058 
L 395.223477 110.871831 
L 391.520321 112.733893 
L 387.924659 114.785953 
L 384.422663 116.98748 
L 381.001852 119.308748 
L 377.651426 121.727488 
L 374.362183 124.226664 
L 371.126308 126.792994 
L 367.937152 129.415937 
L 364.789028 132.086996 
L 361.677046 134.799221 
L 358.596969 137.546857 
L 355.545104 140.32508 
L 352.518209 143.129804 
L 349.51342 145.957533 
L 346.52819 148.805248 
L 343.560239 151.67032 
L 340.607517 154.550439 
L 337.668166 157.44356 
L 334.740495 160.34786 
L 331.822955 163.261701 
L 328.914118 166.183599 
L 326.012664 169.112203 
L 323.117361 172.046274 
L 320.227057 174.984665 
L 317.340666 177.92631 
L 314.45716 180.870212 
L 311.575558 183.815428 
L 308.694923 186.761064 
" style="fill:none;stroke:#808080;stroke-linecap:square;stroke-width:1.5;"/>
   </g>
   <g id="line2d_16">
    <path clip-path="url(#pf77689a8a1)" d="M 308.694923 186.761064 
L 308.694923 106.821786 
L 445.465046 106.821786 
L 445.465046 186.761064 
L 308.694923 186.761064 
" style="fill:none;stroke:#d3d3d3;stroke-linecap:square;stroke-width:0.5;"/>
   </g>
   <g id="line2d_17">
    <path clip-path="url(#pf77689a8a1)" d="M 308.694923 186.761064 
L 305.814349 189.706266 
L 302.932959 192.650209 
L 300.049898 195.592096 
L 297.164326 198.531147 
L 294.275417 201.466596 
L 291.382348 204.397684 
L 288.4843 207.323653 
L 285.580448 210.243743 
L 282.669962 213.157184 
L 279.751997 216.063192 
L 276.825693 218.960961 
L 273.890166 221.849659 
L 270.944505 224.728417 
L 267.987766 227.596329 
L 265.018968 230.452433 
L 262.037083 233.295708 
L 259.041033 236.125063 
L 256.029681 238.939319 
L 253.001824 241.737199 
L 249.956182 244.517307 
L 246.891391 247.278108 
L 243.805988 250.017903 
L 240.698405 252.734799 
L 237.566947 255.426673 
L 234.40978 258.091129 
L 231.224915 260.725441 
L 228.010181 263.326491 
L 224.763204 265.890681 
L 221.481383 268.413832 
L 218.161848 270.891052 
L 214.801435 273.316564 
L 211.396637 275.683487 
L 207.943564 277.983544 
L 204.437896 280.206677 
L 200.874842 282.34052 
L 197.249119 284.36968 
L 193.554984 286.274731 
L 189.786376 288.030786 
L 185.937335 289.605451 
L 182.002994 290.955911 
L 177.981859 292.024879 
L 173.880747 292.735558 
L 169.724793 292.987458 
L 165.57455 292.659725 
L 161.544599 291.636268 
L 157.798249 289.861374 
L 154.491677 287.390167 
L 151.704162 284.370028 
" style="fill:none;stroke:#808080;stroke-linecap:square;stroke-width:1.5;"/>
   </g>
   <g id="line2d_18">
    <path clip-path="url(#pf77689a8a1)" d="M 151.704162 292.987458 
L 151.704162 186.761064 
L 308.694923 186.761064 
L 308.694923 292.987458 
L 151.704162 292.987458 
" style="fill:none;stroke:#d3d3d3;stroke-linecap:square;stroke-width:0.5;"/>
   </g>
   <g id="line2d_19">
    <path clip-path="url(#pf77689a8a1)" d="M 151.704162 284.370028 
" style="fill:none;stroke:#808080;stroke-linecap:square;stroke-width:1.5;"/>
   </g>
   <g id="line2d_20">
    <path clip-path="url(#pf77689a8a1)" d="M 151.704162 284.370028 
L 151.704162 284.370028 
L 151.704162 284.370028 
L 151.704162 284.370028 
L 151.704162 284.370028 
" style="fill:none;stroke:#d3d3d3;stroke-linecap:square;stroke-width:0.5;"/>
   </g>
   <g id="line2d_21">
    <path clip-path="url(#pf77689a8a1)" d="M 151.704162 284.370028 
L 149.17794 281.151735 
L 146.630776 277.949894 
L 144.059717 274.767205 
L 141.461046 271.607071 
L 138.830003 268.473887 
L 136.160323 265.373508 
L 133.443516 262.314049 
L 130.667604 259.307315 
L 127.814796 256.371654 
L 124.85669 253.5383 
L 121.742998 250.868307 
L 118.369456 248.512838 
L 114.495213 247.085891 
L 111.294173 249.189964 
L 110.597178 253.134758 
L 110.775048 257.15465 
L 111.330495 261.142726 
L 112.105751 265.096541 
L 113.030112 269.021064 
L 114.065292 272.920785 
L 115.188021 276.799093 
L 116.383027 280.658486 
L 117.639732 284.500805 
L 118.950521 288.327421 
L 120.309749 292.139353 
L 121.713148 295.937357 
L 123.157445 299.721984 
L 124.640107 303.493623 
L 126.159171 307.252526 
L 127.713122 310.998838 
L 129.300803 314.732602 
L 130.921354 318.45378 
L 132.574163 322.162253 
L 134.258831 325.857829 
L 135.975142 329.540248 
L 137.723047 333.209179 
L 139.502648 336.864224 
L 141.314184 340.504918 
L 143.158025 344.13072 
L 145.034668 347.741017 
" style="fill:none;stroke:#808080;stroke-linecap:square;stroke-width:1.5;"/>
   </g>
   <g id="line2d_22">
    <path clip-path="url(#pf77689a8a1)" d="M 110.597178 347.741017 
L 110.597178 247.085891 
L 151.704162 247.085891 
L 151.704162 347.741017 
L 110.597178 347.741017 
" style="fill:none;stroke:#d3d3d3;stroke-linecap:square;stroke-width:0.5;"/>
   </g>
   <g id="line2d_23">
    <path clip-path="url(#pf77689a8a1)" d="M 145.034668 347.741017 
L 146.944729 351.335113 
L 148.888948 354.912228 
L 150.868185 358.471487 
L 152.883425 362.011913 
L 154.935779 365.532415 
L 157.026488 369.031779 
L 159.156934 372.508648 
L 161.328644 375.96151 
L 163.543296 379.388674 
L 165.802735 382.788249 
L 168.108981 386.158113 
L 170.46424 389.495886 
L 172.870918 392.798883 
L 175.331637 396.064076 
L 177.849243 399.288038 
L 180.426826 402.466875 
L 183.067725 405.596157 
L 185.775541 408.670827 
L 188.554134 411.685094 
L 191.407619 414.632313 
L 194.34034 417.504844 
L 197.356829 420.293885 
L 200.461724 422.989292 
L 203.659652 425.579383 
L 206.955039 428.050726 
L 210.351846 430.387956 
L 213.85319 432.573629 
L 217.460848 434.588176 
L 221.174627 436.410038 
L 224.99162 438.016064 
L 228.905435 439.382296 
L 232.905511 440.485187 
L 236.976747 441.303268 
L 241.099656 441.819092 
L 245.251205 442.021129 
L 249.406336 441.905176 
L 253.539909 441.4749 
L 257.628649 440.741354 
L 261.652693 439.721609 
" style="fill:none;stroke:#808080;stroke-linecap:square;stroke-width:1.5;"/>
   </g>
   <g id="line2d_24">
    <path clip-path="url(#pf77689a8a1)" d="M 145.034668 442.021129 
L 145.034668 347.741017 
L 261.652693 347.741017 
L 261.652693 442.021129 
L 145.034668 442.021129 
" style="fill:none;stroke:#d3d3d3;stroke-linecap:square;stroke-width:0.5;"/>
   </g>
   <g id="line2d_25">
    <path clip-path="url(#pf77689a8a1)" d="M 261.652693 439.721609 
L 265.758576 439.08767 
L 269.919343 439.062919 
L 274.068606 439.348807 
L 278.197585 439.826646 
L 282.306674 440.436745 
L 286.398014 441.14449 
L 290.473899 441.927835 
L 294.536388 442.771768 
L 298.587248 443.665548 
L 302.627968 444.601184 
L 306.659805 445.572548 
L 310.683819 446.574813 
L 314.700907 447.604102 
L 318.711837 448.657237 
L 322.717267 449.731579 
L 326.717764 450.824901 
L 330.713822 451.935302 
L 334.705871 453.061143 
L 338.694291 454.200999 
L 342.679418 455.353614 
L 346.661549 456.517879 
L 350.640954 457.692803 
L 354.617872 458.877497 
L 358.592524 460.071155 
L 362.565108 461.273047 
L 366.53581 462.482503 
L 370.5048 463.698909 
L 374.472236 464.921696 
L 378.438267 466.150335 
L 382.403034 467.384333 
L 386.36667 468.623227 
L 390.329304 469.866581 
L 394.291059 471.113983 
L 398.252054 472.365038 
L 402.212404 473.619372 
" style="fill:none;stroke:#808080;stroke-linecap:square;stroke-width:1.5;"/>
   </g>
   <g id="line2d_26">
    <path clip-path="url(#pf77689a8a1)" d="M 261.652693 473.619372 
L 261.652693 439.062919 
L 402.212404 439.062919 
L 402.212404 473.619372 
L 261.652693 473.619372 
" style="fill:none;stroke:#d3d3d3;stroke-linecap:square;stroke-width:0.5;"/>
   </g>
   <g id="line2d_27">
    <path clip-path="url(#pf77689a8a1)" d="M 402.212404 473.619372 
L 406.172225 474.876623 
L 410.131628 476.136444 
L 414.090724 477.398497 
L 418.049624 478.662454 
L 422.008438 479.927993 
L 425.967278 481.194798 
L 429.926255 482.462558 
L 433.885481 483.730962 
L 437.845072 484.999701 
L 441.805145 486.268467 
L 445.765818 487.536948 
L 449.727215 488.804828 
L 453.68946 490.071788 
L 457.652684 491.3375 
L 461.617019 492.60163 
L 465.582604 493.863831 
L 469.549581 495.123746 
L 473.518101 496.381003 
L 477.488316 497.635213 
L 481.460389 498.885968 
L 485.434488 500.13284 
L 489.410788 501.375372 
L 493.389474 502.613081 
L 497.370739 503.845452 
L 501.354784 505.07193 
L 505.341821 506.291919 
L 509.332074 507.504775 
L 513.325775 508.709795 
L 517.323169 509.906215 
L 521.324514 511.093196 
L 525.330078 512.269812 
L 529.340142 513.435041 
L 533.355001 514.587741 
L 537.374959 515.726638 
L 541.400332 516.850298 
" style="fill:none;stroke:#808080;stroke-linecap:square;stroke-width:1.5;"/>
   </g>
   <g id="line2d_28">
    <path clip-path="url(#pf77689a8a1)" d="M 402.212404 516.850298 
L 402.212404 473.619372 
L 541.400332 473.619372 
L 541.400332 516.850298 
L 402.212404 516.850298 
" style="fill:none;stroke:#d3d3d3;stroke-linecap:square;stroke-width:0.5;"/>
   </g>
   <g id="line2d_29">
    <path clip-path="url(#pf77689a8a1)" d="M 541.400332 516.850298 
L 545.431442 517.957094 
L 549.468621 519.045179 
L 553.512199 520.11243 
L 557.562501 521.156399 
L 561.619837 522.174234 
L 565.68449 523.162591 
L 569.756695 524.117505 
L 573.836613 525.034237 
L 577.924292 525.907044 
L 582.019615 526.728893 
L 586.122227 527.491028 
L 590.231434 528.182376 
L 594.346082 528.788637 
L 598.464418 529.290893 
L 602.584021 529.663315 
L 606.701963 529.869098 
L 610.815471 529.852455 
L 614.921717 529.520651 
L 619.000134 528.701087 
L 622.88615 527.068304 
L 625.939906 524.265521 
L 627.403269 520.548677 
L 627.452422 516.567386 
L 626.627814 512.631521 
L 625.284032 508.808862 
L 623.612492 505.097547 
L 621.719394 501.481937 
L 619.667725 497.946222 
L 617.497333 494.477118 
L 615.234854 491.063958 
L 612.898911 487.69824 
L 610.503021 484.373152 
L 608.057303 481.083186 
L 605.569527 477.823838 
L 603.045796 474.591386 
" style="fill:none;stroke:#808080;stroke-linecap:square;stroke-width:1.5;"/>
   </g>
   <g id="line2d_30">
    <path clip-path="url(#pf77689a8a1)" d="M 541.400332 529.869098 
L 541.400332 474.591386 
L 627.452422 474.591386 
L 627.452422 529.869098 
L 541.400332 529.869098 
" style="fill:none;stroke:#d3d3d3;stroke-linecap:square;stroke-width:0.5;"/>
   </g>
   <g id="line2d_31">
    <path clip-path="url(#pf77689a8a1)" d="M 603.045796 474.591386 
L 600.49099 471.382723 
" style="fill:none;stroke:#808080;stroke-linecap:square;stroke-width:1.5;"/>
   </g>
   <g id="line2d_32">
    <path clip-path="url(#pf77689a8a1)" d="M 600.49099 474.591386 
L 600.49099 471.382723 
L 603.045796 471.382723 
L 603.045796 474.591386 
L 600.49099 474.591386 
" style="fill:none;stroke:#d3d3d3;stroke-linecap:square;stroke-width:0.5;"/>
   </g>
   <g id="line2d_33">
    <path clip-path="url(#pf77689a8a1)" d="M 600.49099 471.382723 
L 597.940762 468.194629 
L 595.404334 464.996119 
L 592.881852 461.787176 
L 590.373459 458.567787 
L 587.879303 455.337939 
L 585.39953 452.097618 
L 582.934287 448.846816 
L 580.483722 445.585521 
L 578.047983 442.313726 
L 575.627219 439.031425 
L 573.22158 435.738612 
L 570.831214 432.435283 
L 568.456271 429.121436 
L 566.096904 425.797071 
L 563.753261 422.462189 
L 561.425495 419.116793 
L 559.113756 415.760886 
L 556.818197 412.394475 
L 554.538969 409.017568 
L 552.276224 405.630175 
L 550.030114 402.232307 
L 547.800791 398.823979 
L 545.588408 395.405205 
L 543.393115 391.976003 
L 541.215065 388.536393 
L 539.05441 385.086396 
L 536.911301 381.626036 
L 534.785889 378.155339 
L 532.678325 374.674332 
L 530.588759 371.183047 
L 528.517342 367.681515 
L 526.464221 364.169772 
L 524.429546 360.647853 
L 522.413466 357.115799 
L 520.416126 353.573651 
L 518.437674 350.021452 
L 516.478254 346.459249 
L 514.538011 342.887092 
L 512.617089 339.30503 
L 510.71563 335.713117 
L 508.833774 332.111409 
L 506.971661 328.499965 
L 505.129429 324.878845 
L 503.307216 321.248113 
" style="fill:none;stroke:#808080;stroke-linecap:square;stroke-width:1.5;"/>
   </g>
   <g id="line2d_34">
    <path clip-path="url(#pf77689a8a1)" d="M 503.307216 471.382723 
L 503.307216 321.248113 
L 600.49099 321.248113 
L 600.49099 471.382723 
L 503.307216 471.382723 
" style="fill:none;stroke:#d3d3d3;stroke-linecap:square;stroke-width:0.5;"/>
   </g>
   <g id="line2d_35">
    <path clip-path="url(#pf77689a8a1)" d="M 503.307216 321.248113 
L 501.505155 317.607834 
L 499.723382 313.958076 
L 497.962027 310.298909 
L 496.22122 306.630407 
L 494.50109 302.952645 
L 492.801763 299.265702 
L 491.123363 295.569656 
L 489.466011 291.86459 
L 487.829828 288.150591 
L 486.21493 284.427744 
L 484.621434 280.696139 
L 483.04945 276.955869 
L 481.49909 273.207028 
L 479.970461 269.449712 
L 478.463666 265.684019 
L 476.978809 261.910051 
L 475.515988 258.12791 
L 474.075299 254.337701 
L 472.656835 250.539532 
L 471.260687 246.733511 
L 469.886941 242.91975 
L 468.535681 239.09836 
L 467.206987 235.269457 
L 465.900937 231.433158 
L 464.617604 227.58958 
L 463.357059 223.738844 
L 462.119368 219.88107 
L 460.904596 216.016382 
L 459.712801 212.144904 
L 458.54404 208.266762 
L 457.398366 204.382083 
L 456.275827 200.490996 
L 455.176468 196.59363 
L 454.100331 192.690116 
L 453.047454 188.780587 
L 452.017871 184.865173 
L 451.011611 180.944011 
L 450.028701 177.017233 
L 449.069162 173.084975 
L 448.133015 169.147373 
L 447.220273 165.204564 
L 446.330948 161.256684 
L 445.465046 157.303872 
" style="fill:none;stroke:#808080;stroke-linecap:square;stroke-width:1.5;"/>
   </g>
   <g id="line2d_36">
    <path clip-path="url(#pf77689a8a1)" d="M 445.465046 321.248113 
L 445.465046 157.303872 
L 503.307216 157.303872 
L 503.307216 321.248113 
L 445.465046 321.248113 
" style="fill:none;stroke:#d3d3d3;stroke-linecap:square;stroke-width:0.5;"/>
   </g>
   <g id="line2d_37">
    <path clip-path="url(#pf77689a8a1)" d="M 259.301619 432.027755 
L 259.301619 432.027755 
L 259.301619 432.027755 
" style="fill:none;stroke:#000000;stroke-linecap:square;stroke-width:3;"/>
   </g>
   <g id="line2d_38">
    <path clip-path="url(#pf77689a8a1)" d="M 259.301619 432.027755 
L 259.301619 432.027755 
L 259.301619 432.027755 
L 259.301619 432.027755 
L 259.301619 432.027755 
" style="fill:none;stroke:#d3d3d3;stroke-linecap:square;stroke-width:0.5;"/>
   </g>
   <g id="line2d_39">
    <path clip-path="url(#pf77689a8a1)" d="M 259.301619 432.027755 
L 259.301619 432.027755 
L 259.301619 432.027755 
" style="fill:none;stroke:#000000;stroke-linecap:square;stroke-width:3;"/>
   </g>
   <g id="line2d_40">
    <path clip-path="url(#pf77689a8a1)" d="M 259.301619 432.027755 
L 259.301619 432.027755 
L 259.301619 432.027755 
L 259.301619 432.027755 
L 259.301619 432.027755 
" style="fill:none;stroke:#d3d3d3;stroke-linecap:square;stroke-width:0.5;"/>
   </g>
   <g id="line2d_41">
    <path clip-path="url(#pf77689a8a1)" d="M 437.401395 158.95661 
L 437.401395 158.95661 
L 436.538153 155.112891 
L 435.610144 151.301335 
L 434.609685 147.529239 
L 433.527879 143.806136 
L 432.354456 140.144639 
L 431.077682 136.561654 
L 429.684449 133.08013 
L 428.16082 129.73156 
L 426.493519 126.559349 
L 424.673277 123.622756 
L 422.701097 120.999453 
L 420.596535 118.780734 
L 418.398087 117.048493 
L 416.131227 115.834506 
L 413.749159 115.110713 
L 411.149714 114.848768 
L 408.289752 115.049161 
L 405.220723 115.696655 
L 402.026231 116.740866 
L 398.774316 118.115809 
L 395.508282 119.758688 
L 392.252596 121.6171 
L 389.019942 123.649545 
L 385.816158 125.8237 
L 382.64324 128.114397 
L 379.50107 130.501898 
L 376.388405 132.970563 
L 373.303435 135.507853 
L 370.244103 138.103601 
L 367.208282 140.749468 
L 364.193872 143.438539 
L 361.198854 146.165023 
" style="fill:none;stroke:#000000;stroke-linecap:square;stroke-width:3;"/>
   </g>
   <g id="line2d_42">
    <path clip-path="url(#pf77689a8a1)" d="M 361.198854 158.95661 
L 361.198854 114.848768 
L 437.401395 114.848768 
L 437.401395 158.95661 
L 361.198854 158.95661 
" style="fill:none;stroke:#d3d3d3;stroke-linecap:square;stroke-width:0.5;"/>
   </g>
   <g id="line2d_43">
    <path clip-path="url(#pf77689a8a1)" d="M 361.198854 146.165023 
L 358.221314 148.924024 
L 355.25945 151.711363 
L 352.311578 154.523446 
L 349.376122 157.357154 
L 346.45161 160.20976 
L 343.536663 163.078863 
L 340.62999 165.962334 
L 337.730376 168.858272 
L 334.836675 171.764968 
L 331.947802 174.680874 
L 329.062726 177.604582 
L 326.180462 180.5348 
L 323.300066 183.470336 
L 320.420626 186.410086 
L 317.541262 189.353016 
L 314.661115 192.298152 
L 311.779345 195.244577 
L 308.895124 198.191412 
L 306.007634 201.137818 
L 303.11606 204.082983 
L 300.219588 207.026116 
L 297.317398 209.966444 
L 294.408659 212.903206 
L 291.492528 215.835644 
L 288.568141 218.763 
L 285.634609 221.68451 
L 282.691015 224.5994 
L 279.736405 227.506875 
L 276.769783 230.406117 
L 273.790105 233.296278 
L 270.796268 236.176468 
L 267.787106 239.045751 
L 264.761377 241.903132 
" style="fill:none;stroke:#000000;stroke-linecap:square;stroke-width:3;"/>
   </g>
   <g id="line2d_44">
    <path clip-path="url(#pf77689a8a1)" d="M 264.761377 241.903132 
L 264.761377 146.165023 
L 361.198854 146.165023 
L 361.198854 241.903132 
L 264.761377 241.903132 
" style="fill:none;stroke:#d3d3d3;stroke-linecap:square;stroke-width:0.5;"/>
   </g>
   <g id="line2d_45">
    <path clip-path="url(#pf77689a8a1)" d="M 264.761377 241.903132 
L 261.717755 244.747545 
L 258.654812 247.577842 
L 255.571013 250.392778 
L 252.464688 253.190989 
L 249.334024 255.970972 
L 246.177032 258.73106 
L 242.991527 261.469389 
L 239.775089 264.183859 
L 236.525029 266.872088 
L 233.238334 269.531351 
L 229.91161 272.158506 
L 226.541002 274.749902 
L 223.122102 277.301255 
L 219.649817 279.807489 
L 216.118213 282.26253 
L 212.520296 284.659022 
L 208.84773 286.987932 
L 205.090451 289.238008 
L 201.236146 291.394978 
L 197.269553 293.440361 
L 193.171544 295.34965 
L 188.917994 297.089408 
L 184.478714 298.612568 
L 179.817424 299.850712 
L 174.895915 300.701941 
L 169.69069 301.014924 
L 164.237613 300.580898 
L 158.709816 299.173822 
L 153.457444 296.684767 
L 148.869921 293.25935 
L 145.143709 289.227445 
L 145.143709 289.227445 
" style="fill:none;stroke:#000000;stroke-linecap:square;stroke-width:3;"/>
   </g>
   <g id="line2d_46">
    <path clip-path="url(#pf77689a8a1)" d="M 145.143709 301.014924 
L 145.143709 241.903132 
L 264.761377 241.903132 
L 264.761377 301.014924 
L 145.143709 301.014924 
" style="fill:none;stroke:#d3d3d3;stroke-linecap:square;stroke-width:0.5;"/>
   </g>
   <g id="line2d_47">
    <path clip-path="url(#pf77689a8a1)" d="M 119.422767 259.567775 
L 119.457854 259.818873 
L 120.166384 263.42989 
L 121.03319 267.109214 
L 122.018445 270.8205 
L 123.097127 274.546474 
L 124.252558 278.277958 
L 125.4731 282.009649 
L 126.750332 285.738267 
L 128.077997 289.461656 
L 129.451345 293.178316 
L 130.866718 296.887141 
L 132.321271 300.587265 
L 133.812777 304.27797 
L 135.339496 307.958626 
L 136.900073 311.628649 
L 138.493473 315.287478 
L 140.118918 318.934552 
L 141.775856 322.5693 
L 143.463925 326.191122 
L 145.182929 329.799388 
L 146.932823 333.393422 
L 148.713699 336.972499 
L 150.525772 340.535833 
L 152.369375 344.082573 
L 154.244955 347.611789 
L 156.153063 351.122468 
L 158.094358 354.613499 
L 160.069603 358.083666 
L 162.079664 361.531628 
L 164.125512 364.955911 
L 166.208225 368.354887 
L 168.328986 371.726753 
L 170.489091 375.069515 
L 172.689945 378.380953 
L 174.93307 381.658598 
L 177.2201 384.899695 
L 179.552787 388.101161 
L 181.932995 391.259542 
L 184.362696 394.370958 
L 186.843963 397.43104 
L 189.378957 400.434863 
L 191.969899 403.376862 
L 194.619046 406.250745 
L 197.328635 409.049393 
L 200.100829 411.764751 
L 202.937621 414.387716 
L 205.840725 416.908031 
L 208.811426 419.314185 
L 211.850399 421.593351 
L 214.957495 423.731381 
L 218.131508 425.712882 
L 221.369946 427.521438 
L 224.668847 429.139977 
L 228.0227 430.551351 
L 231.424524 431.739077 
L 234.866141 432.688195 
L 238.338591 433.386123 
L 241.832593 433.823376 
L 245.338859 433.994049 
L 248.848186 433.896078 
L 252.351344 433.531312 
L 255.838965 432.905441 
L 259.301619 432.027755 
" style="fill:none;stroke:#000000;stroke-linecap:square;stroke-width:3;"/>
   </g>
   <g id="line2d_48">
    <path clip-path="url(#pf77689a8a1)" d="M 119.422767 433.994049 
L 119.422767 259.567775 
L 259.301619 259.567775 
L 259.301619 433.994049 
L 119.422767 433.994049 
" style="fill:none;stroke:#d3d3d3;stroke-linecap:square;stroke-width:0.5;"/>
   </g>
   <g id="line2d_49">
    <path clip-path="url(#pf77689a8a1)" d="M 259.301619 432.027755 
L 265.248198 431.075548 
L 270.241528 431.041523 
L 274.871856 431.359504 
L 279.319074 431.873807 
L 283.656835 432.517701 
L 287.921817 433.255407 
L 292.134833 434.065065 
L 296.308833 434.932138 
L 300.452433 435.846364 
L 304.57167 436.800171 
L 308.670944 437.787774 
L 312.753564 438.804632 
L 316.822087 439.847096 
L 320.87853 440.912179 
L 324.924512 441.997396 
L 328.961355 443.100649 
L 332.990152 444.220146 
L 337.011816 445.354339 
L 341.027121 446.501877 
L 345.036726 447.661572 
L 349.0412 448.832369 
L 353.041037 450.013325 
L 357.036669 451.203593 
L 361.028477 452.402403 
L 365.0168 453.609056 
L 369.00194 454.82291 
L 372.984171 456.043374 
L 376.963738 457.2699 
L 380.940869 458.501977 
L 384.915769 459.739129 
L 388.88863 460.980906 
L 392.859631 462.226886 
L 396.828937 463.476665 
L 400.796705 464.72986 
L 404.763084 465.986102 
" style="fill:none;stroke:#000000;stroke-linecap:square;stroke-width:3;"/>
   </g>
   <g id="line2d_50">
    <path clip-path="url(#pf77689a8a1)" d="M 259.301619 465.986102 
L 259.301619 431.041523 
L 404.763084 431.041523 
L 404.763084 465.986102 
L 259.301619 465.986102 
" style="fill:none;stroke:#d3d3d3;stroke-linecap:square;stroke-width:0.5;"/>
   </g>
   <g id="line2d_51">
    <path clip-path="url(#pf77689a8a1)" d="M 404.763084 465.986102 
L 408.728214 467.245039 
L 412.692231 468.506328 
L 416.655264 469.769637 
L 420.617441 471.034639 
L 424.578882 472.301018 
L 428.539707 473.568459 
L 432.500034 474.836651 
L 436.459978 476.105284 
L 440.419653 477.374051 
L 444.379172 478.642639 
L 448.338648 479.910736 
L 452.298194 481.178024 
L 456.257923 482.444179 
L 460.217947 483.70887 
L 464.178381 484.971755 
L 468.13934 486.232484 
L 472.100938 487.490691 
L 476.063295 488.745995 
L 480.026527 489.997999 
L 483.990754 491.246285 
L 487.956097 492.490409 
L 491.922678 493.729904 
L 495.89062 494.964271 
L 499.860044 496.192977 
L 503.831074 497.415449 
L 507.80383 498.631068 
L 511.778433 499.839167 
L 515.754997 501.039017 
L 519.733632 502.229823 
L 523.714439 503.410711 
L 527.697507 504.58072 
L 531.682908 505.738783 
L 535.670693 506.883711 
L 539.660881 508.014175 
L 543.65345 509.128678 
" style="fill:none;stroke:#000000;stroke-linecap:square;stroke-width:3;"/>
   </g>
   <g id="line2d_52">
    <path clip-path="url(#pf77689a8a1)" d="M 404.763084 509.128678 
L 404.763084 465.986102 
L 543.65345 465.986102 
L 543.65345 509.128678 
L 404.763084 509.128678 
" style="fill:none;stroke:#d3d3d3;stroke-linecap:square;stroke-width:0.5;"/>
   </g>
   <g id="line2d_53">
    <path clip-path="url(#pf77689a8a1)" d="M 543.65345 509.128678 
L 547.648325 510.225527 
L 551.645357 511.302794 
L 555.644299 512.358266 
L 559.644772 513.389394 
L 563.646224 514.393214 
L 567.647859 515.366252 
L 571.648556 516.304406 
L 575.64674 517.202782 
L 579.640207 518.055487 
L 583.625851 518.855344 
L 587.599276 519.59351 
L 591.554181 520.258942 
L 595.481394 520.837659 
L 599.367293 521.311691 
L 603.191094 521.657595 
L 606.919885 521.844371 
L 610.498448 521.830863 
L 613.824284 521.564627 
L 616.675174 520.999707 
L 618.554852 520.23918 
L 619.091765 519.800821 
L 619.271292 519.252013 
L 619.265121 517.475397 
L 618.69843 514.815433 
L 617.622829 511.764799 
L 616.177481 508.558507 
L 614.468694 505.296 
L 612.56758 502.020238 
L 610.52161 498.750257 
L 608.363323 495.494419 
L 606.115735 492.256088 
L 603.795624 489.03622 
L 601.415551 485.834593 
L 598.985146 482.65043 
L 596.51194 479.482707 
" style="fill:none;stroke:#000000;stroke-linecap:square;stroke-width:3;"/>
   </g>
   <g id="line2d_54">
    <path clip-path="url(#pf77689a8a1)" d="M 543.65345 521.844371 
L 543.65345 479.482707 
L 619.271292 479.482707 
L 619.271292 521.844371 
L 543.65345 521.844371 
" style="fill:none;stroke:#d3d3d3;stroke-linecap:square;stroke-width:0.5;"/>
   </g>
   <g id="line2d_55">
    <path clip-path="url(#pf77689a8a1)" d="M 596.51194 479.482707 
L 594.001934 476.330322 
" style="fill:none;stroke:#000000;stroke-linecap:square;stroke-width:3;"/>
   </g>
   <g id="line2d_56">
    <path clip-path="url(#pf77689a8a1)" d="M 594.001934 479.482707 
L 594.001934 476.330322 
L 596.51194 476.330322 
L 596.51194 479.482707 
L 594.001934 479.482707 
" style="fill:none;stroke:#d3d3d3;stroke-linecap:square;stroke-width:0.5;"/>
   </g>
   <g id="line2d_57">
    <path clip-path="url(#pf77689a8a1)" d="M 594.001934 476.330322 
L 591.43047 473.115679 
L 588.872769 469.890343 
L 586.328979 466.654295 
L 583.79925 463.407521 
L 581.283729 460.150005 
L 578.782566 456.881734 
L 576.295911 453.602696 
L 573.823915 450.31288 
L 571.366729 447.012277 
L 568.924506 443.700879 
L 566.497397 440.378679 
L 564.085556 437.045674 
L 561.689137 433.701859 
L 559.308292 430.347233 
L 556.943178 426.981798 
L 554.593948 423.605554 
L 552.260757 420.218505 
L 549.943762 416.820658 
L 547.643117 413.41202 
L 545.358979 409.9926 
L 543.091503 406.56241 
L 540.840845 403.121464 
L 538.607163 399.669777 
L 536.390611 396.207366 
L 534.191346 392.734252 
L 532.009524 389.250457 
L 529.8453 385.756004 
L 527.698831 382.250921 
L 525.570271 378.735236 
L 523.459775 375.20898 
L 521.367497 371.672187 
L 519.293592 368.124893 
L 517.238213 364.567136 
L 515.201513 360.998956 
L 513.183642 357.420397 
L 511.184753 353.831505 
L 509.204995 350.232328 
L 507.244517 346.622916 
L 505.303469 343.003323 
L 503.381996 339.373605 
L 501.480245 335.73382 
L 499.59836 332.084029 
L 497.736484 328.424295 
L 495.894759 324.754686 
" style="fill:none;stroke:#000000;stroke-linecap:square;stroke-width:3;"/>
   </g>
   <g id="line2d_58">
    <path clip-path="url(#pf77689a8a1)" d="M 495.894759 476.330322 
L 495.894759 324.754686 
L 594.001934 324.754686 
L 594.001934 476.330322 
L 495.894759 476.330322 
" style="fill:none;stroke:#d3d3d3;stroke-linecap:square;stroke-width:0.5;"/>
   </g>
   <g id="line2d_59">
    <path clip-path="url(#pf77689a8a1)" d="M 495.894759 324.754686 
L 494.073324 321.075269 
L 492.272319 317.386117 
L 490.49188 313.687303 
L 488.732141 309.978904 
L 486.993235 306.260999 
L 485.275295 302.533669 
L 483.578447 298.797 
L 481.902819 295.051078 
L 480.248536 291.295992 
L 478.615719 287.531835 
L 477.004488 283.7587 
L 475.414959 279.976685 
L 473.847248 276.185888 
L 472.301467 272.386412 
L 470.777723 268.578361 
L 469.276123 264.76184 
L 467.796771 260.936958 
L 466.339767 257.103825 
L 464.905207 253.262556 
L 463.493186 249.413264 
L 462.103794 245.556067 
L 460.737119 241.691085 
L 459.393245 237.818437 
L 458.072253 233.938247 
L 456.774219 230.050639 
L 455.499217 226.155741 
L 454.247318 222.25368 
L 453.018588 218.344586 
L 451.813089 214.428591 
L 450.63088 210.505827 
L 449.472017 206.576429 
L 448.336551 202.640532 
L 447.224529 198.698272 
L 446.135995 194.749789 
L 445.070988 190.795222 
L 444.029546 186.834709 
L 443.011698 182.868392 
L 442.017474 178.896414 
L 441.046897 174.918917 
L 440.099986 170.936043 
L 439.176758 166.947938 
L 438.277225 162.954746 
L 437.401395 158.95661 
L 437.401395 158.95661 
" style="fill:none;stroke:#000000;stroke-linecap:square;stroke-width:3;"/>
   </g>
   <g id="line2d_60">
    <path clip-path="url(#pf77689a8a1)" d="M 437.401395 324.754686 
L 437.401395 158.95661 
L 495.894759 158.95661 
L 495.894759 324.754686 
L 437.401395 324.754686 
" style="fill:none;stroke:#d3d3d3;stroke-linecap:square;stroke-width:0.5;"/>
   </g>
   <g id="line2d_61">
    <path clip-path="url(#pf77689a8a1)" d="M 437.401395 158.95661 
" style="fill:none;stroke:#000000;stroke-linecap:square;stroke-width:3;"/>
   </g>
   <g id="line2d_62">
    <path clip-path="url(#pf77689a8a1)" d="M 437.401395 158.95661 
L 437.401395 158.95661 
L 437.401395 158.95661 
L 437.401395 158.95661 
L 437.401395 158.95661 
" style="fill:none;stroke:#d3d3d3;stroke-linecap:square;stroke-width:0.5;"/>
   </g>
   <g id="line2d_63">
    <path clip-path="url(#pf77689a8a1)" d="M 145.143709 289.227445 
L 145.143709 289.227445 
L 142.64776 286.047714 
L 140.135522 282.889767 
L 137.605254 279.757564 
L 135.054941 276.656219 
L 132.482268 273.592521 
L 129.884661 270.575803 
L 127.259467 267.619441 
L 124.604592 264.743675 
L 121.920517 261.981361 
L 119.217138 259.391257 
L 119.422767 259.567775 
" style="fill:none;stroke:#000000;stroke-linecap:square;stroke-width:3;"/>
   </g>
   <g id="line2d_64">
    <path clip-path="url(#pf77689a8a1)" d="M 119.217138 289.227445 
L 119.217138 259.391257 
L 145.143709 259.391257 
L 145.143709 289.227445 
L 119.217138 289.227445 
" style="fill:none;stroke:#d3d3d3;stroke-linecap:square;stroke-width:0.5;"/>
   </g>
   <g id="line2d_65">
    <path clip-path="url(#pf77689a8a1)" d="M 594.001934 476.330322 
L 594.001934 476.330322 
L 594.001934 476.330322 
" style="fill:none;stroke:#000000;stroke-linecap:square;stroke-width:3;"/>
   </g>
   <g id="line2d_66">
    <path clip-path="url(#pf77689a8a1)" d="M 594.001934 476.330322 
L 594.001934 476.330322 
L 594.001934 476.330322 
L 594.001934 476.330322 
L 594.001934 476.330322 
" style="fill:none;stroke:#d3d3d3;stroke-linecap:square;stroke-width:0.5;"/>
   </g>
   <g id="line2d_67">
    <path clip-path="url(#pf77689a8a1)" d="M 594.001934 476.330322 
L 594.001934 476.330322 
L 594.001934 476.330322 
" style="fill:none;stroke:#000000;stroke-linecap:square;stroke-width:3;"/>
   </g>
   <g id="line2d_68">
    <path clip-path="url(#pf77689a8a1)" d="M 594.001934 476.330322 
L 594.001934 476.330322 
L 594.001934 476.330322 
L 594.001934 476.330322 
L 594.001934 476.330322 
" style="fill:none;stroke:#d3d3d3;stroke-linecap:square;stroke-width:0.5;"/>
   </g>
   <g id="line2d_69">
    <path clip-path="url(#pf77689a8a1)" d="M 264.003767 447.415462 
L 264.003767 447.415462 
L 264.003767 447.415462 
" style="fill:none;stroke:#000000;stroke-linecap:square;stroke-width:3;"/>
   </g>
   <g id="line2d_70">
    <path clip-path="url(#pf77689a8a1)" d="M 264.003767 447.415462 
L 264.003767 447.415462 
L 264.003767 447.415462 
L 264.003767 447.415462 
L 264.003767 447.415462 
" style="fill:none;stroke:#d3d3d3;stroke-linecap:square;stroke-width:0.5;"/>
   </g>
   <g id="line2d_71">
    <path clip-path="url(#pf77689a8a1)" d="M 264.003767 447.415462 
L 264.003767 447.415462 
L 264.003767 447.415462 
" style="fill:none;stroke:#000000;stroke-linecap:square;stroke-width:3;"/>
   </g>
   <g id="line2d_72">
    <path clip-path="url(#pf77689a8a1)" d="M 264.003767 447.415462 
L 264.003767 447.415462 
L 264.003767 447.415462 
L 264.003767 447.415462 
L 264.003767 447.415462 
" style="fill:none;stroke:#d3d3d3;stroke-linecap:square;stroke-width:0.5;"/>
   </g>
   <g id="line2d_73">
    <path clip-path="url(#pf77689a8a1)" d="M 453.528696 155.651133 
L 453.528696 155.651133 
L 452.607617 151.550096 
L 451.608611 147.447218 
L 450.519916 143.342798 
L 449.326895 139.23742 
L 448.011042 135.132141 
L 446.548531 131.028835 
L 444.908087 126.93086 
L 443.047828 122.844379 
L 440.910666 118.781133 
L 438.418047 114.764347 
L 435.463421 110.841381 
L 431.912957 107.109052 
L 427.636965 103.753492 
L 422.609252 101.071768 
L 417.040493 99.37908 
L 411.343097 98.794804 
L 405.874924 99.16738 
L 400.784542 100.234178 
L 396.069419 101.771249 
L 391.672638 103.627852 
L 387.53236 105.709099 
L 383.596722 107.954807 
L 379.825385 110.325416 
L 376.187546 112.793797 
L 372.659613 115.340578 
L 369.223296 117.951429 
L 365.864212 120.615425 
L 362.570868 123.324022 
L 359.333953 126.070391 
L 356.145809 128.848974 
L 353.000065 131.655175 
L 349.891353 134.485137 
" style="fill:none;stroke:#000000;stroke-linecap:square;stroke-width:3;"/>
   </g>
   <g id="line2d_74">
    <path clip-path="url(#pf77689a8a1)" d="M 349.891353 155.651133 
L 349.891353 98.794804 
L 453.528696 98.794804 
L 453.528696 155.651133 
L 349.891353 155.651133 
" style="fill:none;stroke:#d3d3d3;stroke-linecap:square;stroke-width:0.5;"/>
   </g>
   <g id="line2d_75">
    <path clip-path="url(#pf77689a8a1)" d="M 349.891353 134.485137 
L 346.815104 137.335585 
L 343.76739 140.203703 
L 340.744801 143.087051 
L 337.744356 145.983487 
L 334.763425 148.891118 
L 331.79967 151.808257 
L 328.851001 154.733386 
L 325.915534 157.665129 
L 322.991561 160.602229 
L 320.077526 163.543532 
L 317.171996 166.487966 
L 314.273652 169.43453 
L 311.381267 172.382284 
L 308.493694 175.330338 
L 305.609854 178.277841 
L 302.728731 181.223976 
L 299.849353 184.167955 
L 296.970794 187.109006 
L 294.092162 190.046373 
L 291.212592 192.979312 
L 288.331246 195.907077 
L 285.447298 198.828923 
L 282.55994 201.7441 
L 279.668368 204.651842 
L 276.771783 207.551369 
L 273.869386 210.441874 
L 270.960371 213.322522 
L 268.043927 216.192442 
L 265.119227 219.050718 
L 262.185428 221.89638 
L 259.241668 224.728397 
L 256.28706 227.545665 
L 253.320689 230.346994 
" style="fill:none;stroke:#000000;stroke-linecap:square;stroke-width:3;"/>
   </g>
   <g id="line2d_76">
    <path clip-path="url(#pf77689a8a1)" d="M 253.320689 230.346994 
L 253.320689 134.485137 
L 349.891353 134.485137 
L 349.891353 230.346994 
L 253.320689 230.346994 
" style="fill:none;stroke:#d3d3d3;stroke-linecap:square;stroke-width:0.5;"/>
   </g>
   <g id="line2d_77">
    <path clip-path="url(#pf77689a8a1)" d="M 253.320689 230.346994 
L 250.341608 233.131094 
L 247.348836 235.896556 
L 244.341351 238.641836 
L 241.318093 241.365227 
L 238.277953 244.064833 
L 235.219778 246.738538 
L 232.142366 249.383958 
L 229.044471 251.998399 
L 225.9248 254.578795 
L 222.782027 257.121631 
L 219.614799 259.622855 
L 216.421763 262.077761 
L 213.201595 264.480849 
L 209.953053 266.825639 
L 206.675062 269.104443 
L 203.366833 271.308066 
L 200.028062 273.425421 
L 196.659233 275.443031 
L 193.262093 277.344382 
L 189.840414 279.109101 
L 186.401208 280.711921 
L 182.956676 282.121494 
L 179.527274 283.299255 
L 176.146293 284.199045 
L 172.865578 284.769176 
L 169.758895 284.959992 
L 166.911487 284.738552 
L 164.379382 284.098713 
L 162.139054 283.03798 
L 160.113432 281.520983 
L 158.264615 279.512612 
L 158.264615 279.512612 
" style="fill:none;stroke:#000000;stroke-linecap:square;stroke-width:3;"/>
   </g>
   <g id="line2d_78">
    <path clip-path="url(#pf77689a8a1)" d="M 158.264615 284.959992 
L 158.264615 230.346994 
L 253.320689 230.346994 
L 253.320689 284.959992 
L 158.264615 284.959992 
" style="fill:none;stroke:#d3d3d3;stroke-linecap:square;stroke-width:0.5;"/>
   </g>
   <g id="line2d_79">
    <path clip-path="url(#pf77689a8a1)" d="M 606.980046 466.435124 
L 604.451055 463.273579 
L 601.9359 460.101894 
L 599.434724 456.920057 
L 596.947669 453.728053 
L 594.474878 450.525872 
L 592.016495 447.313502 
L 589.572664 444.090935 
L 587.14353 440.858162 
L 584.729238 437.615175 
L 582.329933 434.361971 
L 579.945762 431.098544 
L 577.576871 427.824892 
L 575.223406 424.541014 
L 572.885515 421.24691 
L 570.563344 417.942581 
L 568.257042 414.628031 
L 565.966755 411.303266 
L 563.692632 407.968291 
L 561.434821 404.623116 
L 559.193469 401.26775 
L 556.968725 397.902204 
L 554.760737 394.526493 
L 552.569653 391.140633 
L 550.395619 387.74464 
L 548.238785 384.338533 
L 546.099297 380.922335 
L 543.977303 377.496067 
L 541.872948 374.059756 
L 539.78638 370.613429 
L 537.717744 367.157114 
L 535.667186 363.690844 
L 533.63485 360.21465 
L 531.62088 356.728571 
L 529.625419 353.232642 
L 527.64861 349.726904 
L 525.690595 346.211399 
L 523.751513 342.686171 
L 521.831505 339.151267 
L 519.93071 335.606736 
L 518.049263 332.052629 
L 516.187302 328.488999 
L 514.344962 324.915902 
L 512.522374 321.333396 
L 510.719672 317.74154 
" style="fill:none;stroke:#000000;stroke-linecap:square;stroke-width:3;"/>
   </g>
   <g id="line2d_80">
    <path clip-path="url(#pf77689a8a1)" d="M 510.719672 466.435124 
L 510.719672 317.74154 
L 606.980046 317.74154 
L 606.980046 466.435124 
L 510.719672 466.435124 
" style="fill:none;stroke:#d3d3d3;stroke-linecap:square;stroke-width:0.5;"/>
   </g>
   <g id="line2d_81">
    <path clip-path="url(#pf77689a8a1)" d="M 510.719672 317.74154 
L 508.936986 314.140398 
L 507.174444 310.530034 
L 505.432174 306.910515 
L 503.7103 303.281911 
L 502.008945 299.644292 
L 500.328232 295.997734 
L 498.668279 292.342311 
L 497.029203 288.678103 
L 495.41112 285.005189 
L 493.814142 281.323653 
L 492.23838 277.633579 
L 490.683941 273.935054 
L 489.150932 270.228168 
L 487.639455 266.513011 
L 486.14961 262.789678 
L 484.681495 259.058262 
L 483.235205 255.318862 
L 481.810831 251.571577 
L 480.408464 247.816508 
L 479.028188 244.053758 
L 477.670088 240.283432 
L 476.334242 236.505636 
L 475.020729 232.720478 
L 473.729621 228.92807 
L 472.460989 225.128521 
L 471.214901 221.321946 
L 469.991419 217.50846 
L 468.790604 213.688177 
L 467.612513 209.861217 
L 466.4572 206.027697 
L 465.324714 202.187737 
L 464.215102 198.34146 
L 463.128407 194.488988 
L 462.064668 190.630443 
L 461.02392 186.765952 
L 460.006196 182.895638 
L 459.011523 179.019629 
L 458.039927 175.138051 
L 457.091428 171.251033 
L 456.166044 167.358703 
L 455.263788 163.461189 
L 454.38467 159.558623 
L 453.528696 155.651133 
L 453.528696 155.651133 
" style="fill:none;stroke:#000000;stroke-linecap:square;stroke-width:3;"/>
   </g>
   <g id="line2d_82">
    <path clip-path="url(#pf77689a8a1)" d="M 453.528696 317.74154 
L 453.528696 155.651133 
L 510.719672 155.651133 
L 510.719672 317.74154 
L 453.528696 317.74154 
" style="fill:none;stroke:#d3d3d3;stroke-linecap:square;stroke-width:0.5;"/>
   </g>
   <g id="line2d_83">
    <path clip-path="url(#pf77689a8a1)" d="M 453.528696 155.651133 
" style="fill:none;stroke:#000000;stroke-linecap:square;stroke-width:3;"/>
   </g>
   <g id="line2d_84">
    <path clip-path="url(#pf77689a8a1)" d="M 453.528696 155.651133 
L 453.528696 155.651133 
L 453.528696 155.651133 
L 453.528696 155.651133 
L 453.528696 155.651133 
" style="fill:none;stroke:#d3d3d3;stroke-linecap:square;stroke-width:0.5;"/>
   </g>
   <g id="line2d_85">
    <path clip-path="url(#pf77689a8a1)" d="M 158.264615 279.512612 
L 158.264615 279.512612 
L 155.70812 276.255757 
L 153.126031 273.010021 
L 150.514179 269.776846 
L 147.867152 266.557924 
L 145.177738 263.355252 
L 142.435985 260.171213 
L 139.627564 257.008656 
L 136.730617 253.870955 
L 133.709075 250.761947 
L 130.496242 247.685342 
L 126.944752 244.642425 
L 122.609496 241.629576 
L 115.026856 239.075081 
L 103.683533 246.112563 
L 102.360277 252.908158 
L 102.57471 257.943149 
L 103.203135 262.466579 
L 104.045118 266.763192 
L 105.027034 270.932914 
L 106.112139 275.02107 
L 107.278915 279.051712 
L 108.513495 283.039013 
L 109.806365 286.991961 
L 111.150709 290.916575 
L 112.541501 294.81705 
L 113.974951 298.696399 
L 115.448171 302.556828 
L 116.958942 306.39998 
L 118.505565 310.227082 
L 120.086748 314.039049 
L 121.701532 317.836556 
L 123.349235 321.620083 
L 125.029408 325.389954 
L 126.741805 329.146359 
L 128.486358 332.889373 
L 130.263166 336.618969 
L 132.072473 340.335027 
L 133.914669 344.037337 
L 135.790279 347.725608 
" style="fill:none;stroke:#000000;stroke-linecap:square;stroke-width:3;"/>
   </g>
   <g id="line2d_86">
    <path clip-path="url(#pf77689a8a1)" d="M 102.360277 347.725608 
L 102.360277 239.075081 
L 158.264615 239.075081 
L 158.264615 347.725608 
L 102.360277 347.725608 
" style="fill:none;stroke:#d3d3d3;stroke-linecap:square;stroke-width:0.5;"/>
   </g>
   <g id="line2d_87">
    <path clip-path="url(#pf77689a8a1)" d="M 135.790279 347.725608 
L 137.69996 351.399462 
L 139.644503 355.058438 
L 141.624833 358.701988 
L 143.642013 362.329474 
L 145.697248 365.940159 
L 147.791893 369.533202 
L 149.927464 373.107646 
L 152.105644 376.66241 
L 154.328301 380.196267 
L 156.597501 383.707833 
L 158.915526 387.195544 
L 161.284893 390.657628 
L 163.70838 394.092076 
L 166.189049 397.496605 
L 168.730278 400.86861 
L 171.33579 404.205117 
L 174.009688 407.50271 
L 176.756493 410.757452 
L 179.581182 413.964793 
L 182.489222 417.119443 
L 185.486602 420.215234 
L 188.579852 423.244937 
L 191.776036 426.200053 
L 195.082723 429.070554 
L 198.507877 431.844581 
L 202.05968 434.5081 
L 205.746197 437.044532 
L 209.574872 439.434375 
L 213.551751 441.654915 
L 217.680407 443.680098 
L 221.96054 445.480777 
L 226.386345 447.025516 
L 230.944881 448.282179 
L 235.614904 449.220413 
L 240.366719 449.814809 
L 245.16355 450.04821 
L 249.964486 449.914274 
L 254.728473 449.418489 
L 259.418333 448.577267 
L 264.003767 447.415462 
" style="fill:none;stroke:#000000;stroke-linecap:square;stroke-width:3;"/>
   </g>
   <g id="line2d_88">
    <path clip-path="url(#pf77689a8a1)" d="M 135.790279 450.04821 
L 135.790279 347.725608 
L 264.003767 347.725608 
L 264.003767 450.04821 
L 135.790279 450.04821 
" style="fill:none;stroke:#d3d3d3;stroke-linecap:square;stroke-width:0.5;"/>
   </g>
   <g id="line2d_89">
    <path clip-path="url(#pf77689a8a1)" d="M 264.003767 447.415462 
" style="fill:none;stroke:#000000;stroke-linecap:square;stroke-width:3;"/>
   </g>
   <g id="line2d_90">
    <path clip-path="url(#pf77689a8a1)" d="M 264.003767 447.415462 
L 264.003767 447.415462 
L 264.003767 447.415462 
L 264.003767 447.415462 
L 264.003767 447.415462 
" style="fill:none;stroke:#d3d3d3;stroke-linecap:square;stroke-width:0.5;"/>
   </g>
   <g id="line2d_91">
    <path clip-path="url(#pf77689a8a1)" d="M 264.003767 447.415462 
L 266.268955 447.099792 
L 269.597157 447.084315 
L 273.265356 447.338111 
L 277.076097 447.779485 
L 280.956512 448.355788 
L 284.874212 449.033574 
L 288.812965 449.790605 
L 292.763943 450.611399 
L 296.722062 451.484732 
L 300.684266 452.402198 
L 304.648667 453.357321 
L 308.614074 454.344995 
L 312.579728 455.361108 
L 316.545145 456.402296 
L 320.510022 457.465763 
L 324.474173 458.549153 
L 328.437492 459.650457 
L 332.399926 460.767948 
L 336.361462 461.900121 
L 340.322109 463.045657 
L 344.281898 464.20339 
L 348.24087 465.372282 
L 352.199075 466.551401 
L 356.15657 467.739907 
L 360.113417 468.937038 
L 364.069681 470.142097 
L 368.025429 471.354445 
L 371.980733 472.573492 
L 375.935665 473.798693 
L 379.890299 475.029537 
L 383.84471 476.265548 
L 387.798978 477.506277 
L 391.753181 478.751301 
L 395.707402 480.000217 
L 399.661725 481.252642 
" style="fill:none;stroke:#000000;stroke-linecap:square;stroke-width:3;"/>
   </g>
   <g id="line2d_92">
    <path clip-path="url(#pf77689a8a1)" d="M 264.003767 481.252642 
L 264.003767 447.084315 
L 399.661725 447.084315 
L 399.661725 481.252642 
L 264.003767 481.252642 
" style="fill:none;stroke:#d3d3d3;stroke-linecap:square;stroke-width:0.5;"/>
   </g>
   <g id="line2d_93">
    <path clip-path="url(#pf77689a8a1)" d="M 399.661725 481.252642 
L 403.616236 482.508207 
L 407.571025 483.76656 
L 411.526184 485.027358 
L 415.481807 486.290269 
L 419.437995 487.554968 
L 423.394849 488.821138 
L 427.352475 490.088465 
L 431.310984 491.356639 
L 435.270492 492.625352 
L 439.231118 493.894295 
L 443.192989 495.163159 
L 447.156236 496.431632 
L 451.120998 497.699396 
L 455.087421 498.96613 
L 459.055657 500.231504 
L 463.025868 501.495177 
L 466.998224 502.756801 
L 470.972906 504.01601 
L 474.950105 505.272426 
L 478.930024 506.525652 
L 482.912878 507.77527 
L 486.898898 509.020839 
L 490.888329 510.261891 
L 494.881434 511.497927 
L 498.878494 512.728412 
L 502.879813 513.952771 
L 506.885715 515.170383 
L 510.896553 516.380573 
L 514.912707 517.582608 
L 518.934589 518.77568 
L 522.962649 519.958904 
L 526.997377 521.131299 
L 531.039309 522.291772 
L 535.089037 523.439102 
L 539.147213 524.571917 
" style="fill:none;stroke:#000000;stroke-linecap:square;stroke-width:3;"/>
   </g>
   <g id="line2d_94">
    <path clip-path="url(#pf77689a8a1)" d="M 399.661725 524.571917 
L 399.661725 481.252642 
L 539.147213 481.252642 
L 539.147213 524.571917 
L 399.661725 524.571917 
" style="fill:none;stroke:#d3d3d3;stroke-linecap:square;stroke-width:0.5;"/>
   </g>
   <g id="line2d_95">
    <path clip-path="url(#pf77689a8a1)" d="M 539.147213 524.571917 
L 543.214559 525.688661 
L 547.291886 526.787564 
L 551.380099 527.866594 
L 555.480229 528.923403 
L 559.59345 529.955254 
L 563.721121 530.958929 
L 567.864834 531.930605 
L 572.026485 532.865691 
L 576.208377 533.758602 
L 580.413379 534.602441 
L 584.645178 535.388546 
L 588.908688 536.105809 
L 593.210769 536.739615 
L 597.561543 537.270095 
L 601.976949 537.669035 
L 606.48404 537.893825 
L 611.132493 537.874046 
L 616.019151 537.476674 
L 621.325094 536.402468 
L 627.217449 533.897428 
L 632.788047 528.73022 
L 635.535246 521.845342 
L 635.639723 515.659375 
L 634.557199 510.44761 
L 632.945235 505.852926 
L 631.047503 501.636587 
L 628.970094 497.667874 
L 626.767869 493.872206 
L 624.473056 490.203979 
L 622.106386 486.633497 
L 619.682087 483.140392 
L 617.210418 479.710085 
L 614.699054 476.331779 
L 612.153909 472.997246 
L 609.579653 469.700065 
" style="fill:none;stroke:#000000;stroke-linecap:square;stroke-width:3;"/>
   </g>
   <g id="line2d_96">
    <path clip-path="url(#pf77689a8a1)" d="M 539.147213 537.893825 
L 539.147213 469.700065 
L 635.639723 469.700065 
L 635.639723 537.893825 
L 539.147213 537.893825 
" style="fill:none;stroke:#d3d3d3;stroke-linecap:square;stroke-width:0.5;"/>
   </g>
   <g id="line2d_97">
    <path clip-path="url(#pf77689a8a1)" d="M 609.579653 469.700065 
L 606.980046 466.435124 
" style="fill:none;stroke:#000000;stroke-linecap:square;stroke-width:3;"/>
   </g>
   <g id="line2d_98">
    <path clip-path="url(#pf77689a8a1)" d="M 606.980046 469.700065 
L 606.980046 466.435124 
L 609.579653 466.435124 
L 609.579653 469.700065 
L 606.980046 469.700065 
" style="fill:none;stroke:#d3d3d3;stroke-linecap:square;stroke-width:0.5;"/>
   </g>
   <g id="line2d_99">
    <path clip-path="url(#pf77689a8a1)" d="M 606.980046 466.435124 
L 606.980046 466.435124 
L 606.980046 466.435124 
" style="fill:none;stroke:#000000;stroke-linecap:square;stroke-width:3;"/>
   </g>
   <g id="line2d_100">
    <path clip-path="url(#pf77689a8a1)" d="M 606.980046 466.435124 
L 606.980046 466.435124 
L 606.980046 466.435124 
L 606.980046 466.435124 
L 606.980046 466.435124 
" style="fill:none;stroke:#d3d3d3;stroke-linecap:square;stroke-width:0.5;"/>
   </g>
   <g id="line2d_101">
    <path clip-path="url(#pf77689a8a1)" d="M 606.980046 466.435124 
L 606.980046 466.435124 
L 606.980046 466.435124 
" style="fill:none;stroke:#000000;stroke-linecap:square;stroke-width:3;"/>
   </g>
   <g id="line2d_102">
    <path clip-path="url(#pf77689a8a1)" d="M 606.980046 466.435124 
L 606.980046 466.435124 
L 606.980046 466.435124 
L 606.980046 466.435124 
L 606.980046 466.435124 
" style="fill:none;stroke:#d3d3d3;stroke-linecap:square;stroke-width:0.5;"/>
   </g>
   <g id="line2d_103">
    <path clip-path="url(#pf77689a8a1)" d="M 308.694923 174.719762 
L 310.27552 174.818621 
L 311.830164 175.113575 
L 313.333327 175.59978 
L 314.760328 176.269253 
L 316.087735 177.111001 
L 317.293752 178.111203 
L 318.358577 179.253435 
L 319.264724 180.518943 
L 319.997316 181.886946 
L 320.544323 183.334982 
L 320.896763 184.839274 
L 321.048849 186.375122 
L 320.998084 187.917307 
L 320.745302 189.440506 
L 320.294653 190.919709 
L 319.653536 192.330628 
L 318.832479 193.650094 
L 317.844964 194.856443 
L 316.707205 195.929865 
L 315.437885 196.852736 
L 314.057846 197.609903 
L 312.589748 198.188931 
L 311.057696 198.580315 
L 309.486849 198.777626 
L 307.902997 198.777626 
L 306.332149 198.580315 
L 304.800098 198.188931 
L 303.332 197.609903 
L 301.95196 196.852736 
L 300.68264 195.929865 
L 299.544882 194.856443 
L 298.557367 193.650094 
L 297.73631 192.330628 
L 297.095193 190.919709 
L 296.644544 189.440506 
L 296.391761 187.917307 
L 296.340996 186.375122 
L 296.493083 184.839274 
L 296.845523 183.334982 
L 297.39253 181.886946 
L 298.125121 180.518943 
L 299.031269 179.253435 
L 300.096094 178.111203 
L 301.302111 177.111001 
L 302.629518 176.269253 
L 304.056519 175.59978 
L 305.559682 175.113575 
L 307.114326 174.818621 
L 308.694923 174.719762 
" style="fill:none;stroke:#808080;stroke-linecap:square;stroke-width:1.5;"/>
   </g>
   <g id="line2d_104">
    <path clip-path="url(#pf77689a8a1)" d="M 151.704162 272.328726 
L 153.284759 272.427585 
L 154.839403 272.722539 
L 156.342566 273.208744 
L 157.769567 273.878217 
L 159.096974 274.719965 
L 160.302991 275.720167 
L 161.367816 276.862399 
L 162.273963 278.127907 
L 163.006555 279.49591 
L 163.553562 280.943946 
L 163.906002 282.448238 
L 164.058089 283.984086 
L 164.007324 285.526271 
L 163.754541 287.04947 
L 163.303892 288.528673 
L 162.662775 289.939592 
L 161.841718 291.259058 
L 160.854203 292.465407 
L 159.716445 293.538829 
L 158.447125 294.461701 
L 157.067085 295.218867 
L 155.598987 295.797895 
L 154.066936 296.189279 
L 152.496088 296.38659 
L 150.912236 296.38659 
L 149.341388 296.189279 
L 147.809337 295.797895 
L 146.341239 295.218867 
L 144.9612 294.461701 
L 143.691879 293.538829 
L 142.554121 292.465407 
L 141.566606 291.259058 
L 140.745549 289.939592 
L 140.104432 288.528673 
L 139.653783 287.04947 
L 139.401 285.526271 
L 139.350236 283.984086 
L 139.502322 282.448238 
L 139.854762 280.943946 
L 140.401769 279.49591 
L 141.134361 278.127907 
L 142.040508 276.862399 
L 143.105333 275.720167 
L 144.31135 274.719965 
L 145.638757 273.878217 
L 147.065758 273.208744 
L 148.568921 272.722539 
L 150.123565 272.427585 
L 151.704162 272.328726 
" style="fill:none;stroke:#808080;stroke-linecap:square;stroke-width:1.5;"/>
   </g>
   <g id="line2d_105">
    <path clip-path="url(#pf77689a8a1)" d="M 151.704162 272.328726 
L 153.284759 272.427585 
L 154.839403 272.722539 
L 156.342566 273.208744 
L 157.769567 273.878217 
L 159.096974 274.719965 
L 160.302991 275.720167 
L 161.367816 276.862399 
L 162.273963 278.127907 
L 163.006555 279.49591 
L 163.553562 280.943946 
L 163.906002 282.448238 
L 164.058089 283.984086 
L 164.007324 285.526271 
L 163.754541 287.04947 
L 163.303892 288.528673 
L 162.662775 289.939592 
L 161.841718 291.259058 
L 160.854203 292.465407 
L 159.716445 293.538829 
L 158.447125 294.461701 
L 157.067085 295.218867 
L 155.598987 295.797895 
L 154.066936 296.189279 
L 152.496088 296.38659 
L 150.912236 296.38659 
L 149.341388 296.189279 
L 147.809337 295.797895 
L 146.341239 295.218867 
L 144.9612 294.461701 
L 143.691879 293.538829 
L 142.554121 292.465407 
L 141.566606 291.259058 
L 140.745549 289.939592 
L 140.104432 288.528673 
L 139.653783 287.04947 
L 139.401 285.526271 
L 139.350236 283.984086 
L 139.502322 282.448238 
L 139.854762 280.943946 
L 140.401769 279.49591 
L 141.134361 278.127907 
L 142.040508 276.862399 
L 143.105333 275.720167 
L 144.31135 274.719965 
L 145.638757 273.878217 
L 147.065758 273.208744 
L 148.568921 272.722539 
L 150.123565 272.427585 
L 151.704162 272.328726 
" style="fill:none;stroke:#808080;stroke-linecap:square;stroke-width:1.5;"/>
   </g>
   <g id="line2d_106">
    <path clip-path="url(#pf77689a8a1)" d="M 145.034668 335.699715 
L 146.615265 335.798574 
L 148.169908 336.093527 
L 149.673072 336.579732 
L 151.100072 337.249205 
L 152.427479 338.090954 
L 153.633497 339.091156 
L 154.698321 340.233388 
L 155.604469 341.498896 
L 156.337061 342.866899 
L 156.884068 344.314934 
L 157.236508 345.819227 
L 157.388594 347.355074 
L 157.337829 348.897259 
L 157.085047 350.420459 
L 156.634397 351.899662 
L 155.993281 353.31058 
L 155.172224 354.630047 
L 154.184709 355.836395 
L 153.04695 356.909818 
L 151.77763 357.832689 
L 150.397591 358.589855 
L 148.929492 359.168884 
L 147.397441 359.560267 
L 145.826593 359.757579 
L 144.242742 359.757579 
L 142.671894 359.560267 
L 141.139843 359.168884 
L 139.671744 358.589855 
L 138.291705 357.832689 
L 137.022385 356.909818 
L 135.884626 355.836395 
L 134.897111 354.630047 
L 134.076055 353.31058 
L 133.434938 351.899662 
L 132.984288 350.420459 
L 132.731506 348.897259 
L 132.680741 347.355074 
L 132.832827 345.819227 
L 133.185267 344.314934 
L 133.732274 342.866899 
L 134.464866 341.498896 
L 135.371014 340.233388 
L 136.435838 339.091156 
L 137.641856 338.090954 
L 138.969263 337.249205 
L 140.396263 336.579732 
L 141.899427 336.093527 
L 143.45407 335.798574 
L 145.034668 335.699715 
" style="fill:none;stroke:#808080;stroke-linecap:square;stroke-width:1.5;"/>
   </g>
   <g id="line2d_107">
    <path clip-path="url(#pf77689a8a1)" d="M 261.652693 427.680306 
L 263.23329 427.779165 
L 264.787934 428.074119 
L 266.291097 428.560324 
L 267.718098 429.229797 
L 269.045505 430.071545 
L 270.251522 431.071747 
L 271.316347 432.213979 
L 272.222494 433.479487 
L 272.955086 434.84749 
L 273.502093 436.295526 
L 273.854533 437.799818 
L 274.006619 439.335666 
L 273.955854 440.877851 
L 273.703072 442.40105 
L 273.252422 443.880254 
L 272.611306 445.291172 
L 271.790249 446.610638 
L 270.802734 447.816987 
L 269.664975 448.890409 
L 268.395655 449.813281 
L 267.015616 450.570447 
L 265.547518 451.149476 
L 264.015466 451.540859 
L 262.444619 451.738171 
L 260.860767 451.738171 
L 259.289919 451.540859 
L 257.757868 451.149476 
L 256.28977 450.570447 
L 254.90973 449.813281 
L 253.64041 448.890409 
L 252.502652 447.816987 
L 251.515137 446.610638 
L 250.69408 445.291172 
L 250.052963 443.880254 
L 249.602314 442.40105 
L 249.349531 440.877851 
L 249.298766 439.335666 
L 249.450853 437.799818 
L 249.803293 436.295526 
L 250.3503 434.84749 
L 251.082891 433.479487 
L 251.989039 432.213979 
L 253.053864 431.071747 
L 254.259881 430.071545 
L 255.587288 429.229797 
L 257.014289 428.560324 
L 258.517452 428.074119 
L 260.072096 427.779165 
L 261.652693 427.680306 
" style="fill:none;stroke:#808080;stroke-linecap:square;stroke-width:1.5;"/>
   </g>
   <g id="line2d_108">
    <path clip-path="url(#pf77689a8a1)" d="M 402.212404 461.57807 
L 403.793001 461.676929 
L 405.347645 461.971882 
L 406.850808 462.458087 
L 408.277809 463.12756 
L 409.605216 463.969309 
L 410.811233 464.969511 
L 411.876058 466.111743 
L 412.782206 467.377251 
L 413.514798 468.745254 
L 414.061804 470.19329 
L 414.414244 471.697582 
L 414.566331 473.233429 
L 414.515566 474.775614 
L 414.262783 476.298814 
L 413.812134 477.778017 
L 413.171017 479.188935 
L 412.34996 480.508402 
L 411.362445 481.71475 
L 410.224687 482.788173 
L 408.955367 483.711044 
L 407.575327 484.46821 
L 406.107229 485.047239 
L 404.575178 485.438622 
L 403.00433 485.635934 
L 401.420479 485.635934 
L 399.849631 485.438622 
L 398.317579 485.047239 
L 396.849481 484.46821 
L 395.469442 483.711044 
L 394.200122 482.788173 
L 393.062363 481.71475 
L 392.074848 480.508402 
L 391.253791 479.188935 
L 390.612675 477.778017 
L 390.162025 476.298814 
L 389.909243 474.775614 
L 389.858478 473.233429 
L 390.010564 471.697582 
L 390.363004 470.19329 
L 390.910011 468.745254 
L 391.642603 467.377251 
L 392.548751 466.111743 
L 393.613575 464.969511 
L 394.819592 463.969309 
L 396.146999 463.12756 
L 397.574 462.458087 
L 399.077163 461.971882 
L 400.631807 461.676929 
L 402.212404 461.57807 
" style="fill:none;stroke:#808080;stroke-linecap:square;stroke-width:1.5;"/>
   </g>
   <g id="line2d_109">
    <path clip-path="url(#pf77689a8a1)" d="M 541.400332 504.808995 
L 542.980929 504.907854 
L 544.535572 505.202808 
L 546.038736 505.689013 
L 547.465736 506.358486 
L 548.793143 507.200234 
L 549.999161 508.200436 
L 551.063985 509.342668 
L 551.970133 510.608176 
L 552.702725 511.976179 
L 553.249732 513.424215 
L 553.602172 514.928507 
L 553.754258 516.464355 
L 553.703493 518.00654 
L 553.450711 519.529739 
L 553.000061 521.008942 
L 552.358945 522.419861 
L 551.537888 523.739327 
L 550.550373 524.945676 
L 549.412614 526.019098 
L 548.143294 526.94197 
L 546.763255 527.699136 
L 545.295156 528.278164 
L 543.763105 528.669548 
L 542.192257 528.866859 
L 540.608406 528.866859 
L 539.037558 528.669548 
L 537.505507 528.278164 
L 536.037408 527.699136 
L 534.657369 526.94197 
L 533.388049 526.019098 
L 532.25029 524.945676 
L 531.262775 523.739327 
L 530.441718 522.419861 
L 529.800602 521.008942 
L 529.349952 519.529739 
L 529.09717 518.00654 
L 529.046405 516.464355 
L 529.198491 514.928507 
L 529.550931 513.424215 
L 530.097938 511.976179 
L 530.83053 510.608176 
L 531.736678 509.342668 
L 532.801502 508.200436 
L 534.00752 507.200234 
L 535.334927 506.358486 
L 536.761927 505.689013 
L 538.265091 505.202808 
L 539.819734 504.907854 
L 541.400332 504.808995 
" style="fill:none;stroke:#808080;stroke-linecap:square;stroke-width:1.5;"/>
   </g>
   <g id="line2d_110">
    <path clip-path="url(#pf77689a8a1)" d="M 603.045796 462.550084 
L 604.626393 462.648943 
L 606.181037 462.943896 
L 607.6842 463.430101 
L 609.111201 464.099574 
L 610.438608 464.941322 
L 611.644625 465.941524 
L 612.70945 467.083757 
L 613.615598 468.349264 
L 614.34819 469.717267 
L 614.895197 471.165303 
L 615.247637 472.669595 
L 615.399723 474.205443 
L 615.348958 475.747628 
L 615.096175 477.270828 
L 614.645526 478.750031 
L 614.004409 480.160949 
L 613.183353 481.480415 
L 612.195837 482.686764 
L 611.058079 483.760187 
L 609.788759 484.683058 
L 608.40872 485.440224 
L 606.940621 486.019253 
L 605.40857 486.410636 
L 603.837722 486.607948 
L 602.253871 486.607948 
L 600.683023 486.410636 
L 599.150971 486.019253 
L 597.682873 485.440224 
L 596.302834 484.683058 
L 595.033514 483.760187 
L 593.895755 482.686764 
L 592.90824 481.480415 
L 592.087183 480.160949 
L 591.446067 478.750031 
L 590.995417 477.270828 
L 590.742635 475.747628 
L 590.69187 474.205443 
L 590.843956 472.669595 
L 591.196396 471.165303 
L 591.743403 469.717267 
L 592.475995 468.349264 
L 593.382143 467.083757 
L 594.446967 465.941524 
L 595.652984 464.941322 
L 596.980391 464.099574 
L 598.407392 463.430101 
L 599.910555 462.943896 
L 601.465199 462.648943 
L 603.045796 462.550084 
" style="fill:none;stroke:#808080;stroke-linecap:square;stroke-width:1.5;"/>
   </g>
   <g id="line2d_111">
    <path clip-path="url(#pf77689a8a1)" d="M 600.49099 459.341421 
L 602.071587 459.44028 
L 603.626231 459.735234 
L 605.129394 460.221439 
L 606.556395 460.890912 
L 607.883802 461.73266 
L 609.089819 462.732862 
L 610.154644 463.875094 
L 611.060792 465.140602 
L 611.793383 466.508605 
L 612.34039 467.956641 
L 612.69283 469.460933 
L 612.844917 470.996781 
L 612.794152 472.538966 
L 612.541369 474.062165 
L 612.09072 475.541368 
L 611.449603 476.952287 
L 610.628546 478.271753 
L 609.641031 479.478102 
L 608.503273 480.551524 
L 607.233953 481.474395 
L 605.853913 482.231562 
L 604.385815 482.81059 
L 602.853764 483.201974 
L 601.282916 483.399285 
L 599.699064 483.399285 
L 598.128217 483.201974 
L 596.596165 482.81059 
L 595.128067 482.231562 
L 593.748028 481.474395 
L 592.478708 480.551524 
L 591.340949 479.478102 
L 590.353434 478.271753 
L 589.532377 476.952287 
L 588.891261 475.541368 
L 588.440611 474.062165 
L 588.187829 472.538966 
L 588.137064 470.996781 
L 588.28915 469.460933 
L 588.64159 467.956641 
L 589.188597 466.508605 
L 589.921189 465.140602 
L 590.827336 463.875094 
L 591.892161 462.732862 
L 593.098178 461.73266 
L 594.425585 460.890912 
L 595.852586 460.221439 
L 597.355749 459.735234 
L 598.910393 459.44028 
L 600.49099 459.341421 
" style="fill:none;stroke:#808080;stroke-linecap:square;stroke-width:1.5;"/>
   </g>
   <g id="line2d_112">
    <path clip-path="url(#pf77689a8a1)" d="M 503.307216 309.206811 
L 504.887813 309.30567 
L 506.442457 309.600623 
L 507.94562 310.086828 
L 509.372621 310.756301 
L 510.700028 311.598049 
L 511.906045 312.598251 
L 512.970869 313.740484 
L 513.877017 315.005992 
L 514.609609 316.373995 
L 515.156616 317.82203 
L 515.509056 319.326322 
L 515.661142 320.86217 
L 515.610377 322.404355 
L 515.357595 323.927555 
L 514.906945 325.406758 
L 514.265829 326.817676 
L 513.444772 328.137143 
L 512.457257 329.343491 
L 511.319498 330.416914 
L 510.050178 331.339785 
L 508.670139 332.096951 
L 507.202041 332.67598 
L 505.669989 333.067363 
L 504.099141 333.264675 
L 502.51529 333.264675 
L 500.944442 333.067363 
L 499.412391 332.67598 
L 497.944292 332.096951 
L 496.564253 331.339785 
L 495.294933 330.416914 
L 494.157175 329.343491 
L 493.169659 328.137143 
L 492.348603 326.817676 
L 491.707486 325.406758 
L 491.256837 323.927555 
L 491.004054 322.404355 
L 490.953289 320.86217 
L 491.105375 319.326322 
L 491.457815 317.82203 
L 492.004822 316.373995 
L 492.737414 315.005992 
L 493.643562 313.740484 
L 494.708387 312.598251 
L 495.914404 311.598049 
L 497.241811 310.756301 
L 498.668812 310.086828 
L 500.171975 309.600623 
L 501.726619 309.30567 
L 503.307216 309.206811 
" style="fill:none;stroke:#808080;stroke-linecap:square;stroke-width:1.5;"/>
   </g>
   <g id="line2d_113">
    <path clip-path="url(#pf77689a8a1)" d="M 445.465046 145.26257 
L 447.045643 145.361429 
L 448.600287 145.656382 
L 450.10345 146.142587 
L 451.530451 146.81206 
L 452.857857 147.653808 
L 454.063875 148.65401 
L 455.128699 149.796243 
L 456.034847 151.06175 
L 456.767439 152.429753 
L 457.314446 153.877789 
L 457.666886 155.382081 
L 457.818972 156.917929 
L 457.768207 158.460114 
L 457.515425 159.983314 
L 457.064775 161.462517 
L 456.423659 162.873435 
L 455.602602 164.192901 
L 454.615087 165.39925 
L 453.477328 166.472673 
L 452.208008 167.395544 
L 450.827969 168.15271 
L 449.359871 168.731739 
L 447.827819 169.123122 
L 446.256971 169.320434 
L 444.67312 169.320434 
L 443.102272 169.123122 
L 441.570221 168.731739 
L 440.102122 168.15271 
L 438.722083 167.395544 
L 437.452763 166.472673 
L 436.315005 165.39925 
L 435.327489 164.192901 
L 434.506433 162.873435 
L 433.865316 161.462517 
L 433.414667 159.983314 
L 433.161884 158.460114 
L 433.111119 156.917929 
L 433.263205 155.382081 
L 433.615645 153.877789 
L 434.162652 152.429753 
L 434.895244 151.06175 
L 435.801392 149.796243 
L 436.866217 148.65401 
L 438.072234 147.653808 
L 439.399641 146.81206 
L 440.826642 146.142587 
L 442.329805 145.656382 
L 443.884449 145.361429 
L 445.465046 145.26257 
" style="fill:none;stroke:#808080;stroke-linecap:square;stroke-width:1.5;"/>
   </g>
   <g id="line2d_114"/>
   <g id="line2d_115"/>
   <g id="line2d_116"/>
   <g id="line2d_117"/>
   <g id="line2d_118"/>
   <g id="line2d_119"/>
   <g id="line2d_120"/>
   <g id="line2d_121"/>
   <g id="line2d_122"/>
   <g id="line2d_123"/>
   <g id="line2d_124"/>
   <g id="line2d_125"/>
   <g id="line2d_126"/>
   <g id="line2d_127"/>
   <g id="line2d_128"/>
   <g id="line2d_129"/>
   <g id="line2d_130"/>
   <g id="line2d_131"/>
   <g id="line2d_132"/>
   <g id="line2d_133"/>
   <g id="line2d_134"/>
   <g id="line2d_135"/>
   <g id="line2d_136"/>
   <g id="line2d_137"/>
   <g id="line2d_138"/>
   <g id="line2d_139"/>
   <g id="line2d_140"/>
   <g id="line2d_141"/>
   <g id="line2d_142"/>
   <g id="line2d_143"/>
   <g id="line2d_144"/>
   <g id="line2d_145"/>
   <g id="line2d_146"/>
   <g id="line2d_147"/>
   <g id="line2d_148"/>
   <g id="line2d_149"/>
   <g id="line2d_150"/>
   <g id="line2d_151"/>
   <g id="line2d_152"/>
   <g id="line2d_153"/>
   <g id="line2d_154"/>
   <g id="line2d_155"/>
   <g id="line2d_156"/>
   <g id="line2d_157"/>
   <g id="line2d_158"/>
   <g id="line2d_159"/>
   <g id="line2d_160"/>
   <g id="line2d_161"/>
   <g id="line2d_162"/>
   <g id="line2d_163"/>
   <g id="line2d_164"/>
   <g id="patch_3">
    <path d="M 90 630 
L 90 86.4 
" style="fill:none;stroke:#000000;stroke-linecap:square;stroke-linejoin:miter;stroke-width:0.8;"/>
   </g>
   <g id="patch_4">
    <path d="M 648 630 
L 648 86.4 
" style="fill:none;stroke:#000000;stroke-linecap:square;stroke-linejoin:miter;stroke-width:0.8;"/>
   </g>
   <g id="patch_5">
    <path d="M 90 630 
L 648 630 
" style="fill:none;stroke:#000000;stroke-linecap:square;stroke-linejoin:miter;stroke-width:0.8;"/>
   </g>
   <g id="patch_6">
    <path d="M 90 86.4 
L 648 86.4 
" style="fill:none;stroke:#000000;stroke-linecap:square;stroke-linejoin:miter;stroke-width:0.8;"/>
   </g>
   <g id="text_15">
    <!-- 0 -->
    <g transform="translate(110.724544 449.259588)scale(0.1 -0.1)">
     <use xlink:href="#DejaVuSans-30"/>
    </g>
   </g>
   <g id="text_16">
    <!-- 0 -->
    <g transform="translate(110.724544 437.218286)scale(0.1 -0.1)">
     <use xlink:href="#DejaVuSans-30"/>
    </g>
   </g>
   <g id="text_17">
    <!-- 0 -->
    <g transform="translate(110.724544 425.176984)scale(0.1 -0.1)">
     <use xlink:href="#DejaVuSans-30"/>
    </g>
   </g>
  </g>
 </g>
 <defs>
  <clipPath id="pf77689a8a1">
   <rect height="543.6" width="558" x="90" y="86.4"/>
  </clipPath>
 </defs>
</svg>
