<?xml version="1.0" encoding="utf-8" standalone="no"?>
<!DOCTYPE svg PUBLIC "-//W3C//DTD SVG 1.1//EN"
  "http://www.w3.org/Graphics/SVG/1.1/DTD/svg11.dtd">
<svg height="720pt" version="1.1" viewBox="0 0 720 720" width="720pt" xmlns="http://www.w3.org/2000/svg" xmlns:xlink="http://www.w3.org/1999/xlink">
 <metadata>
  <rdf:RDF xmlns:cc="http://creativecommons.org/ns#" xmlns:dc="http://purl.org/dc/elements/1.1/" xmlns:rdf="http://www.w3.org/1999/02/22-rdf-syntax-ns#">
   <cc:Work>
    <dc:type rdf:resource="http://purl.org/dc/dcmitype/StillImage"/>
    <dc:date>2022-01-11T13:26:08.489808</dc:date>
    <dc:format>image/svg+xml</dc:format>
    <dc:creator>
     <cc:Agent>
      <dc:title>Matplotlib v3.4.3, https://matplotlib.org/</dc:title>
     </cc:Agent>
    </dc:creator>
   </cc:Work>
  </rdf:RDF>
 </metadata>
 <defs>
  <style type="text/css">*{stroke-linecap:butt;stroke-linejoin:round;}</style>
 </defs>
 <g id="figure_1">
  <g id="patch_1">
   <path d="M 0 720 
L 720 720 
L 720 0 
L 0 0 
z
" style="fill:none;"/>
  </g>
  <g id="axes_1">
   <g id="patch_2">
    <path d="M 90 630 
L 648 630 
L 648 86.4 
L 90 86.4 
z
" style="fill:#ffffff;"/>
   </g>
   <g id="PathCollection_1">
    <defs>
     <path d="M 0.972304 -8.870829 
Q -1.277159 -8.870829 -2.413438 -6.653699 
Q -3.545098 -4.441189 -3.545098 0.006929 
Q -3.545098 4.436569 -2.413438 6.653699 
Q -1.277159 8.870829 0.972304 8.870829 
Q 3.240243 8.870829 4.371903 6.653699 
Q 5.508182 4.436569 5.508182 0.006929 
Q 5.508182 -4.441189 4.371903 -6.653699 
Q 3.240243 -8.870829 0.972304 -8.870829 
z
M 0.972304 -11.18034 
Q 4.598235 -11.18034 6.51051 -8.311928 
Q 8.422784 -5.448135 8.422784 0.006929 
Q 8.422784 5.448135 6.51051 8.316547 
Q 4.598235 11.18034 0.972304 11.18034 
Q -2.649008 11.18034 -4.561283 8.316547 
Q -6.473558 5.448135 -6.473558 0.006929 
Q -6.473558 -5.448135 -4.561283 -8.311928 
Q -2.649008 -11.18034 0.972304 -11.18034 
z
" id="m49af8d5e1c" style="stroke:#808080;"/>
    </defs>
    <g clip-path="url(#p668d971646)">
     <use style="fill:#808080;stroke:#808080;" x="259.724574" xlink:href="#m49af8d5e1c" y="189.724298"/>
    </g>
   </g>
   <g id="PathCollection_2">
    <defs>
     <path d="M -4.535873 8.63565 
L 0.404946 8.63565 
L 0.404946 -8.424791 
L -4.971969 -7.346533 
L -4.971969 -10.102082 
L 0.376192 -11.18034 
L 3.400108 -11.18034 
L 3.400108 8.63565 
L 8.340927 8.63565 
L 8.340927 11.18034 
L -4.535873 11.18034 
L -4.535873 8.63565 
z
" id="mcdd2908d8b" style="stroke:#808080;"/>
    </defs>
    <g clip-path="url(#p668d971646)">
     <use style="fill:#808080;stroke:#808080;" x="356.240898" xlink:href="#mcdd2908d8b" y="330.508353"/>
    </g>
   </g>
   <g id="PathCollection_3">
    <defs>
     <path d="M -2.294912 8.680651 
L 8.075736 8.680651 
L 8.075736 11.18034 
L -5.867913 11.18034 
L -5.867913 8.680651 
Q -4.177916 6.929457 -1.259259 3.982555 
Q 1.664105 1.030945 2.4126 0.174178 
Q 3.838976 -1.426376 4.403877 -2.537349 
Q 4.973486 -3.648321 4.973486 -4.721634 
Q 4.973486 -6.472828 3.744825 -7.574386 
Q 2.516165 -8.680651 0.543718 -8.680651 
Q -0.854413 -8.680651 -2.407892 -8.195778 
Q -3.956663 -7.710904 -5.72198 -6.722326 
L -5.72198 -9.725719 
Q -3.928418 -10.445968 -2.370232 -10.813154 
Q -0.807338 -11.18034 0.487227 -11.18034 
Q 3.900173 -11.18034 5.929111 -9.471513 
Q 7.958048 -7.767394 7.958048 -4.914642 
Q 7.958048 -3.558879 7.449637 -2.344341 
Q 6.945933 -1.13451 5.604292 0.513119 
Q 5.237107 0.941502 3.264659 2.979855 
Q 1.296919 5.018207 -2.294912 8.680651 
z
" id="md7189e6135" style="stroke:#808080;"/>
    </defs>
    <g clip-path="url(#p668d971646)">
     <use style="fill:#808080;stroke:#808080;" x="300.291603" xlink:href="#md7189e6135" y="504.965277"/>
    </g>
   </g>
   <g id="PathCollection_4">
    <defs>
     <path d="M 3.77605 -0.861447 
Q 5.868466 -0.413402 7.041697 1.004637 
Q 8.219548 2.418057 8.219548 4.496617 
Q 8.219548 7.683741 6.025513 9.43435 
Q 3.831478 11.18034 -0.210165 11.18034 
Q -1.563539 11.18034 -3.000054 10.912437 
Q -4.436569 10.644533 -5.965465 10.108727 
L -5.965465 7.295743 
Q -4.755282 8.002454 -3.314147 8.362737 
Q -1.868394 8.723021 -0.293308 8.723021 
Q 2.445772 8.723021 3.882287 7.64217 
Q 5.318802 6.561319 5.318802 4.496617 
Q 5.318802 2.588961 3.983905 1.517348 
Q 2.649008 0.441116 0.270213 0.441116 
L -2.242535 0.441116 
L -2.242535 -1.956155 
L 0.385688 -1.956155 
Q 2.533533 -1.956155 3.674431 -2.815293 
Q 4.815329 -3.674431 4.815329 -5.291088 
Q 4.815329 -6.949317 3.637479 -7.836169 
Q 2.464248 -8.72764 0.270213 -8.72764 
Q -0.930733 -8.72764 -2.302582 -8.464356 
Q -3.674431 -8.20569 -5.318802 -7.660646 
L -5.318802 -10.256536 
Q -3.655955 -10.718438 -2.205582 -10.949389 
Q -0.75521 -11.18034 0.528878 -11.18034 
Q 3.849954 -11.18034 5.780705 -9.66992 
Q 7.716074 -8.164119 7.716074 -5.595944 
Q 7.716074 -3.803764 6.690652 -2.570485 
Q 5.665229 -1.337207 3.77605 -0.861447 
z
" id="mf742d008e0" style="stroke:#808080;"/>
    </defs>
    <g clip-path="url(#p668d971646)">
     <use style="fill:#808080;stroke:#808080;" x="406.989523" xlink:href="#mf742d008e0" y="518.875123"/>
    </g>
   </g>
   <g id="PathCollection_5">
    <defs>
     <path d="M 2.695646 -8.544598 
L -4.943215 3.392919 
L 2.695646 3.392919 
L 2.695646 -8.544598 
z
M 1.900131 -11.18034 
L 5.705184 -11.18034 
L 5.705184 3.392919 
L 8.896829 3.392919 
L 8.896829 5.908855 
L 5.705184 5.908855 
L 5.705184 11.18034 
L 2.695646 11.18034 
L 2.695646 5.908855 
L -7.396852 5.908855 
L -7.396852 2.99037 
L 1.900131 -11.18034 
z
" id="mbf2e52e8ab" style="stroke:#808080;"/>
    </defs>
    <g clip-path="url(#p668d971646)">
     <use style="fill:#808080;stroke:#808080;" x="588.549568" xlink:href="#mbf2e52e8ab" y="413.795966"/>
    </g>
   </g>
   <g id="PathCollection_6">
    <defs>
     <path d="M -5.008473 -11.18034 
L 6.639575 -11.18034 
L 6.639575 -8.679629 
L -2.291535 -8.679629 
L -2.291535 -3.306861 
Q -1.647555 -3.527789 -1.003575 -3.635902 
Q -0.354894 -3.744015 0.293787 -3.744015 
Q 3.964943 -3.744015 6.108409 -1.732165 
Q 8.256576 0.279685 8.256576 3.715812 
Q 8.256576 7.255352 6.052002 9.220196 
Q 3.847428 11.18034 -0.16217 11.18034 
Q -1.544142 11.18034 -2.97782 10.945311 
Q -4.406798 10.710281 -5.934488 10.240223 
L -5.934488 7.255352 
Q -4.613624 7.974541 -3.203448 8.327085 
Q -1.793273 8.679629 -0.223278 8.679629 
Q 2.319738 8.679629 3.800422 7.344663 
Q 5.285807 6.009697 5.285807 3.715812 
Q 5.285807 1.426627 3.800422 0.091661 
Q 2.319738 -1.248005 -0.223278 -1.248005 
Q -1.412526 -1.248005 -2.597073 -0.984772 
Q -3.77692 -0.72154 -5.008473 -0.16217 
L -5.008473 -11.18034 
z
" id="m460a56842f" style="stroke:#808080;"/>
    </defs>
    <g clip-path="url(#p668d971646)">
     <use style="fill:#808080;stroke:#808080;" x="503.345021" xlink:href="#m460a56842f" y="285.441706"/>
    </g>
   </g>
   <g id="PathCollection_7">
    <defs>
     <path d="M 1.286397 -1.175541 
Q -0.676687 -1.175541 -1.826823 0.168594 
Q -2.97234 1.50811 -2.97234 3.845335 
Q -2.97234 6.168702 -1.826823 7.522075 
Q -0.676687 8.870829 1.286397 8.870829 
Q 3.249481 8.870829 4.394998 7.522075 
Q 5.540515 6.168702 5.540515 3.845335 
Q 5.540515 1.50811 4.394998 0.168594 
Q 3.249481 -1.175541 1.286397 -1.175541 
z
M 7.07403 -10.316583 
L 7.07403 -7.660646 
Q 5.974703 -8.177976 4.8569 -8.450499 
Q 3.739097 -8.72764 2.63977 -8.72764 
Q -0.247118 -8.72764 -1.771394 -6.778413 
Q -3.291052 -4.829186 -3.508146 -0.889162 
Q -2.658246 -2.145535 -1.374159 -2.815293 
Q -0.085452 -3.485051 1.457301 -3.485051 
Q 4.704473 -3.485051 6.589033 -1.512729 
Q 8.473594 0.454974 8.473594 3.845335 
Q 8.473594 7.166411 6.51051 9.175685 
Q 4.547426 11.18034 1.286397 11.18034 
Q -2.45501 11.18034 -4.43195 8.316547 
Q -6.408891 5.448135 -6.408891 0.006929 
Q -6.408891 -5.101708 -3.983905 -8.141024 
Q -1.55892 -11.18034 2.524295 -11.18034 
Q 3.623622 -11.18034 4.741425 -10.963246 
Q 5.859228 -10.746152 7.07403 -10.316583 
z
" id="m8a861e0969" style="stroke:#808080;"/>
    </defs>
    <g clip-path="url(#p668d971646)">
     <use style="fill:#808080;stroke:#808080;" x="352.778287" xlink:href="#m8a861e0969" y="179.014762"/>
    </g>
   </g>
   <g id="PathCollection_8"/>
   <g id="PathCollection_9"/>
   <g id="PathCollection_10"/>
   <g id="PathCollection_11"/>
   <g id="PathCollection_12"/>
   <g id="matplotlib.axis_1">
    <g id="xtick_1">
     <g id="line2d_1">
      <defs>
       <path d="M 0 0 
L 0 3.5 
" id="mdd7cf78f2c" style="stroke:#000000;stroke-width:0.8;"/>
      </defs>
      <g>
       <use style="stroke:#000000;stroke-width:0.8;" x="142.117353" xlink:href="#mdd7cf78f2c" y="630"/>
      </g>
     </g>
     <g id="text_1">
      <!-- −200 -->
      <g transform="translate(128.383759 644.598438)scale(0.1 -0.1)">
       <defs>
        <path d="M 678 2272 
L 4684 2272 
L 4684 1741 
L 678 1741 
L 678 2272 
z
" id="DejaVuSans-2212" transform="scale(0.015625)"/>
        <path d="M 1228 531 
L 3431 531 
L 3431 0 
L 469 0 
L 469 531 
Q 828 903 1448 1529 
Q 2069 2156 2228 2338 
Q 2531 2678 2651 2914 
Q 2772 3150 2772 3378 
Q 2772 3750 2511 3984 
Q 2250 4219 1831 4219 
Q 1534 4219 1204 4116 
Q 875 4013 500 3803 
L 500 4441 
Q 881 4594 1212 4672 
Q 1544 4750 1819 4750 
Q 2544 4750 2975 4387 
Q 3406 4025 3406 3419 
Q 3406 3131 3298 2873 
Q 3191 2616 2906 2266 
Q 2828 2175 2409 1742 
Q 1991 1309 1228 531 
z
" id="DejaVuSans-32" transform="scale(0.015625)"/>
        <path d="M 2034 4250 
Q 1547 4250 1301 3770 
Q 1056 3291 1056 2328 
Q 1056 1369 1301 889 
Q 1547 409 2034 409 
Q 2525 409 2770 889 
Q 3016 1369 3016 2328 
Q 3016 3291 2770 3770 
Q 2525 4250 2034 4250 
z
M 2034 4750 
Q 2819 4750 3233 4129 
Q 3647 3509 3647 2328 
Q 3647 1150 3233 529 
Q 2819 -91 2034 -91 
Q 1250 -91 836 529 
Q 422 1150 422 2328 
Q 422 3509 836 4129 
Q 1250 4750 2034 4750 
z
" id="DejaVuSans-30" transform="scale(0.015625)"/>
       </defs>
       <use xlink:href="#DejaVuSans-2212"/>
       <use x="83.789062" xlink:href="#DejaVuSans-32"/>
       <use x="147.412109" xlink:href="#DejaVuSans-30"/>
       <use x="211.035156" xlink:href="#DejaVuSans-30"/>
      </g>
     </g>
    </g>
    <g id="xtick_2">
     <g id="line2d_2">
      <g>
       <use style="stroke:#000000;stroke-width:0.8;" x="226.231967" xlink:href="#mdd7cf78f2c" y="630"/>
      </g>
     </g>
     <g id="text_2">
      <!-- −150 -->
      <g transform="translate(212.498373 644.598438)scale(0.1 -0.1)">
       <defs>
        <path d="M 794 531 
L 1825 531 
L 1825 4091 
L 703 3866 
L 703 4441 
L 1819 4666 
L 2450 4666 
L 2450 531 
L 3481 531 
L 3481 0 
L 794 0 
L 794 531 
z
" id="DejaVuSans-31" transform="scale(0.015625)"/>
        <path d="M 691 4666 
L 3169 4666 
L 3169 4134 
L 1269 4134 
L 1269 2991 
Q 1406 3038 1543 3061 
Q 1681 3084 1819 3084 
Q 2600 3084 3056 2656 
Q 3513 2228 3513 1497 
Q 3513 744 3044 326 
Q 2575 -91 1722 -91 
Q 1428 -91 1123 -41 
Q 819 9 494 109 
L 494 744 
Q 775 591 1075 516 
Q 1375 441 1709 441 
Q 2250 441 2565 725 
Q 2881 1009 2881 1497 
Q 2881 1984 2565 2268 
Q 2250 2553 1709 2553 
Q 1456 2553 1204 2497 
Q 953 2441 691 2322 
L 691 4666 
z
" id="DejaVuSans-35" transform="scale(0.015625)"/>
       </defs>
       <use xlink:href="#DejaVuSans-2212"/>
       <use x="83.789062" xlink:href="#DejaVuSans-31"/>
       <use x="147.412109" xlink:href="#DejaVuSans-35"/>
       <use x="211.035156" xlink:href="#DejaVuSans-30"/>
      </g>
     </g>
    </g>
    <g id="xtick_3">
     <g id="line2d_3">
      <g>
       <use style="stroke:#000000;stroke-width:0.8;" x="310.346581" xlink:href="#mdd7cf78f2c" y="630"/>
      </g>
     </g>
     <g id="text_3">
      <!-- −100 -->
      <g transform="translate(296.612987 644.598438)scale(0.1 -0.1)">
       <use xlink:href="#DejaVuSans-2212"/>
       <use x="83.789062" xlink:href="#DejaVuSans-31"/>
       <use x="147.412109" xlink:href="#DejaVuSans-30"/>
       <use x="211.035156" xlink:href="#DejaVuSans-30"/>
      </g>
     </g>
    </g>
    <g id="xtick_4">
     <g id="line2d_4">
      <g>
       <use style="stroke:#000000;stroke-width:0.8;" x="394.461195" xlink:href="#mdd7cf78f2c" y="630"/>
      </g>
     </g>
     <g id="text_4">
      <!-- −50 -->
      <g transform="translate(383.908851 644.598438)scale(0.1 -0.1)">
       <use xlink:href="#DejaVuSans-2212"/>
       <use x="83.789062" xlink:href="#DejaVuSans-35"/>
       <use x="147.412109" xlink:href="#DejaVuSans-30"/>
      </g>
     </g>
    </g>
    <g id="xtick_5">
     <g id="line2d_5">
      <g>
       <use style="stroke:#000000;stroke-width:0.8;" x="478.575809" xlink:href="#mdd7cf78f2c" y="630"/>
      </g>
     </g>
     <g id="text_5">
      <!-- 0 -->
      <g transform="translate(475.394559 644.598438)scale(0.1 -0.1)">
       <use xlink:href="#DejaVuSans-30"/>
      </g>
     </g>
    </g>
    <g id="xtick_6">
     <g id="line2d_6">
      <g>
       <use style="stroke:#000000;stroke-width:0.8;" x="562.690422" xlink:href="#mdd7cf78f2c" y="630"/>
      </g>
     </g>
     <g id="text_6">
      <!-- 50 -->
      <g transform="translate(556.327922 644.598438)scale(0.1 -0.1)">
       <use xlink:href="#DejaVuSans-35"/>
       <use x="63.623047" xlink:href="#DejaVuSans-30"/>
      </g>
     </g>
    </g>
    <g id="xtick_7">
     <g id="line2d_7">
      <g>
       <use style="stroke:#000000;stroke-width:0.8;" x="646.805036" xlink:href="#mdd7cf78f2c" y="630"/>
      </g>
     </g>
     <g id="text_7">
      <!-- 100 -->
      <g transform="translate(637.261286 644.598438)scale(0.1 -0.1)">
       <use xlink:href="#DejaVuSans-31"/>
       <use x="63.623047" xlink:href="#DejaVuSans-30"/>
       <use x="127.246094" xlink:href="#DejaVuSans-30"/>
      </g>
     </g>
    </g>
   </g>
   <g id="matplotlib.axis_2">
    <g id="ytick_1">
     <g id="line2d_8">
      <defs>
       <path d="M 0 0 
L -3.5 0 
" id="m49f722e25c" style="stroke:#000000;stroke-width:0.8;"/>
      </defs>
      <g>
       <use style="stroke:#000000;stroke-width:0.8;" x="90" xlink:href="#m49f722e25c" y="579.227611"/>
      </g>
     </g>
     <g id="text_8">
      <!-- −200 -->
      <g transform="translate(55.532812 583.02683)scale(0.1 -0.1)">
       <use xlink:href="#DejaVuSans-2212"/>
       <use x="83.789062" xlink:href="#DejaVuSans-32"/>
       <use x="147.412109" xlink:href="#DejaVuSans-30"/>
       <use x="211.035156" xlink:href="#DejaVuSans-30"/>
      </g>
     </g>
    </g>
    <g id="ytick_2">
     <g id="line2d_9">
      <g>
       <use style="stroke:#000000;stroke-width:0.8;" x="90" xlink:href="#m49f722e25c" y="497.283697"/>
      </g>
     </g>
     <g id="text_9">
      <!-- −150 -->
      <g transform="translate(55.532812 501.082916)scale(0.1 -0.1)">
       <use xlink:href="#DejaVuSans-2212"/>
       <use x="83.789062" xlink:href="#DejaVuSans-31"/>
       <use x="147.412109" xlink:href="#DejaVuSans-35"/>
       <use x="211.035156" xlink:href="#DejaVuSans-30"/>
      </g>
     </g>
    </g>
    <g id="ytick_3">
     <g id="line2d_10">
      <g>
       <use style="stroke:#000000;stroke-width:0.8;" x="90" xlink:href="#m49f722e25c" y="415.339783"/>
      </g>
     </g>
     <g id="text_10">
      <!-- −100 -->
      <g transform="translate(55.532812 419.139001)scale(0.1 -0.1)">
       <use xlink:href="#DejaVuSans-2212"/>
       <use x="83.789062" xlink:href="#DejaVuSans-31"/>
       <use x="147.412109" xlink:href="#DejaVuSans-30"/>
       <use x="211.035156" xlink:href="#DejaVuSans-30"/>
      </g>
     </g>
    </g>
    <g id="ytick_4">
     <g id="line2d_11">
      <g>
       <use style="stroke:#000000;stroke-width:0.8;" x="90" xlink:href="#m49f722e25c" y="333.395868"/>
      </g>
     </g>
     <g id="text_11">
      <!-- −50 -->
      <g transform="translate(61.895313 337.195087)scale(0.1 -0.1)">
       <use xlink:href="#DejaVuSans-2212"/>
       <use x="83.789062" xlink:href="#DejaVuSans-35"/>
       <use x="147.412109" xlink:href="#DejaVuSans-30"/>
      </g>
     </g>
    </g>
    <g id="ytick_5">
     <g id="line2d_12">
      <g>
       <use style="stroke:#000000;stroke-width:0.8;" x="90" xlink:href="#m49f722e25c" y="251.451954"/>
      </g>
     </g>
     <g id="text_12">
      <!-- 0 -->
      <g transform="translate(76.6375 255.251173)scale(0.1 -0.1)">
       <use xlink:href="#DejaVuSans-30"/>
      </g>
     </g>
    </g>
    <g id="ytick_6">
     <g id="line2d_13">
      <g>
       <use style="stroke:#000000;stroke-width:0.8;" x="90" xlink:href="#m49f722e25c" y="169.50804"/>
      </g>
     </g>
     <g id="text_13">
      <!-- 50 -->
      <g transform="translate(70.275 173.307259)scale(0.1 -0.1)">
       <use xlink:href="#DejaVuSans-35"/>
       <use x="63.623047" xlink:href="#DejaVuSans-30"/>
      </g>
     </g>
    </g>
    <g id="ytick_7">
     <g id="line2d_14">
      <g>
       <use style="stroke:#000000;stroke-width:0.8;" x="90" xlink:href="#m49f722e25c" y="87.564126"/>
      </g>
     </g>
     <g id="text_14">
      <!-- 100 -->
      <g transform="translate(63.9125 91.363345)scale(0.1 -0.1)">
       <use xlink:href="#DejaVuSans-31"/>
       <use x="63.623047" xlink:href="#DejaVuSans-30"/>
       <use x="127.246094" xlink:href="#DejaVuSans-30"/>
      </g>
     </g>
    </g>
   </g>
   <g id="line2d_15">
    <path clip-path="url(#p668d971646)" d="M 352.778287 179.014762 
L 344.904913 175.653504 
L 336.908896 172.564937 
L 328.828447 169.677714 
L 320.684268 166.952835 
L 312.489437 164.367038 
L 304.253094 161.905941 
L 295.982048 159.56077 
L 287.681533 157.326689 
L 279.35556 155.201938 
L 271.007072 153.18748 
L 262.637961 151.287022 
L 254.24901 149.507431 
L 245.839757 147.859662 
L 237.408289 146.36056 
L 228.950975 145.036306 
L 220.4622 143.929512 
L 211.934568 143.115734 
L 203.362934 142.750613 
L 194.788947 143.26425 
L 187.727561 147.040794 
L 191.841414 154.119357 
L 198.608772 159.256229 
L 205.851436 163.746505 
L 213.310331 167.89576 
L 220.895341 171.825196 
L 228.564312 175.598217 
L 236.293897 179.252993 
L 244.069696 182.814647 
L 251.882152 186.300779 
L 259.724574 189.724298 
" style="fill:none;stroke:#808080;stroke-linecap:square;stroke-width:1.5;"/>
   </g>
   <g id="line2d_16">
    <path clip-path="url(#p668d971646)" d="M 187.727561 189.724298 
L 187.727561 142.750613 
L 352.778287 142.750613 
L 352.778287 189.724298 
L 187.727561 189.724298 
" style="fill:none;stroke:#d3d3d3;stroke-linecap:square;stroke-width:0.5;"/>
   </g>
   <g id="line2d_17">
    <path clip-path="url(#p668d971646)" d="M 259.724574 189.724298 
L 267.514833 193.122985 
L 275.27623 196.58413 
L 282.999051 200.126127 
L 290.670163 203.772558 
L 298.271598 207.553666 
L 305.778452 211.508143 
L 313.155779 215.68508 
L 320.354129 220.145652 
L 327.303526 224.963395 
L 333.906595 230.220714 
L 340.033883 235.997883 
L 345.528749 242.351309 
L 350.231589 249.285022 
L 354.023622 256.733149 
L 356.867015 264.574 
L 358.810491 272.670743 
L 359.959369 280.908291 
L 360.437375 289.206961 
L 360.361272 297.518197 
L 359.830546 305.814797 
L 358.926074 314.082524 
L 357.712409 322.314582 
L 356.240898 330.508353 
" style="fill:none;stroke:#808080;stroke-linecap:square;stroke-width:1.5;"/>
   </g>
   <g id="line2d_18">
    <path clip-path="url(#p668d971646)" d="M 259.724574 330.508353 
L 259.724574 189.724298 
L 360.437375 189.724298 
L 360.437375 330.508353 
L 259.724574 330.508353 
" style="fill:none;stroke:#d3d3d3;stroke-linecap:square;stroke-width:0.5;"/>
   </g>
   <g id="line2d_19">
    <path clip-path="url(#p668d971646)" d="M 356.240898 330.508353 
L 354.552539 338.663561 
L 352.68032 346.781242 
L 350.651038 354.863155 
L 348.486685 362.911443 
L 346.205523 370.928431 
L 343.822895 378.916511 
L 341.351866 386.878063 
L 338.803725 394.815435 
L 336.188387 402.730926 
L 333.514727 410.626802 
L 330.790866 418.505328 
L 328.024439 426.368808 
L 325.222852 434.219655 
L 322.393576 442.060461 
L 319.544503 449.894104 
L 316.684439 457.723888 
L 313.823834 465.553739 
L 310.975988 473.38853 
L 308.159191 481.234662 
L 305.400955 489.101238 
L 302.747637 497.002711 
L 300.291603 504.965277 
" style="fill:none;stroke:#808080;stroke-linecap:square;stroke-width:1.5;"/>
   </g>
   <g id="line2d_20">
    <path clip-path="url(#p668d971646)" d="M 300.291603 504.965277 
L 300.291603 330.508353 
L 356.240898 330.508353 
L 356.240898 504.965277 
L 300.291603 504.965277 
" style="fill:none;stroke:#d3d3d3;stroke-linecap:square;stroke-width:0.5;"/>
   </g>
   <g id="line2d_21">
    <path clip-path="url(#p668d971646)" d="M 300.291603 504.965277 
L 298.004325 513.087746 
L 295.815731 521.235957 
L 293.749243 529.414349 
L 291.837876 537.628414 
L 290.130459 545.88485 
L 288.703935 554.191274 
L 287.690707 562.553833 
L 287.349822 570.964276 
L 288.297734 579.319425 
L 292.29223 586.66385 
L 300.341006 589.049165 
L 308.730758 587.186479 
L 316.626685 583.772701 
L 324.174194 579.666788 
L 331.490108 575.17792 
L 338.645733 570.449426 
L 345.686329 565.559583 
L 352.642298 560.556087 
L 359.535104 555.470361 
L 366.380551 550.324372 
L 373.190692 545.134224 
L 379.975004 539.912194 
L 386.741148 534.667976 
L 393.495474 529.409463 
L 400.243372 524.143275 
L 406.989523 518.875123 
" style="fill:none;stroke:#808080;stroke-linecap:square;stroke-width:1.5;"/>
   </g>
   <g id="line2d_22">
    <path clip-path="url(#p668d971646)" d="M 287.349822 589.049165 
L 287.349822 504.965277 
L 406.989523 504.965277 
L 406.989523 589.049165 
L 287.349822 589.049165 
" style="fill:none;stroke:#d3d3d3;stroke-linecap:square;stroke-width:0.5;"/>
   </g>
   <g id="line2d_23">
    <path clip-path="url(#p668d971646)" d="M 406.989523 518.875123 
L 413.738088 513.610067 
L 420.492844 508.352718 
L 427.257302 503.107389 
L 434.034798 497.878226 
L 440.828571 492.669315 
L 447.641839 487.484786 
L 454.477863 482.328921 
L 461.34002 477.206257 
L 468.231877 472.12171 
L 475.157276 467.080725 
L 482.120432 462.089453 
L 489.126055 457.154986 
L 496.179503 452.285669 
L 503.286983 447.491532 
L 510.455822 442.784905 
L 517.694839 438.181323 
L 525.014877 433.700919 
L 532.429569 429.370674 
L 539.956498 425.228215 
L 547.618953 421.328751 
L 555.448554 417.758801 
L 563.488575 414.666709 
L 571.792933 412.341509 
L 580.369681 411.458574 
L 588.549568 413.795966 
" style="fill:none;stroke:#808080;stroke-linecap:square;stroke-width:1.5;"/>
   </g>
   <g id="line2d_24">
    <path clip-path="url(#p668d971646)" d="M 406.989523 518.875123 
L 406.989523 411.458574 
L 588.549568 411.458574 
L 588.549568 518.875123 
L 406.989523 518.875123 
" style="fill:none;stroke:#d3d3d3;stroke-linecap:square;stroke-width:0.5;"/>
   </g>
   <g id="line2d_25">
    <path clip-path="url(#p668d971646)" d="M 588.549568 413.795966 
L 595.650333 418.357256 
L 603.280594 421.859408 
L 606.648367 416.631819 
L 603.261166 409.024967 
L 599.053095 401.79213 
L 594.506372 394.752033 
L 589.762124 387.842467 
L 584.881364 381.03019 
L 579.896178 374.295538 
L 574.825437 367.626147 
L 569.680996 361.013968 
L 564.470552 354.4537 
L 559.199132 347.941917 
L 553.869929 341.476551 
L 548.484798 335.05657 
L 543.044569 328.681779 
L 537.549253 322.352695 
L 531.998173 316.070462 
L 526.390066 309.83681 
L 520.723148 303.654019 
L 514.995171 297.524912 
L 509.203472 291.452845 
L 503.345021 285.441706 
" style="fill:none;stroke:#808080;stroke-linecap:square;stroke-width:1.5;"/>
   </g>
   <g id="line2d_26">
    <path clip-path="url(#p668d971646)" d="M 503.345021 421.859408 
L 503.345021 285.441706 
L 606.648367 285.441706 
L 606.648367 421.859408 
L 503.345021 421.859408 
" style="fill:none;stroke:#d3d3d3;stroke-linecap:square;stroke-width:0.5;"/>
   </g>
   <g id="line2d_27">
    <path clip-path="url(#p668d971646)" d="M 503.345021 285.441706 
L 497.416474 279.495911 
L 491.414234 273.620395 
L 485.334533 267.820588 
L 479.17352 262.102373 
L 472.92738 256.472029 
L 466.592466 250.936128 
L 460.165453 245.501415 
L 453.643497 240.174638 
L 447.024406 234.962352 
L 440.306788 229.870692 
L 433.490187 224.905128 
L 426.575168 220.070232 
L 419.563351 215.369458 
L 412.457392 210.804973 
L 405.260896 206.377557 
L 397.978286 202.086567 
L 390.614624 197.929986 
L 383.175416 193.904539 
L 375.66642 190.005857 
L 368.093452 186.228687 
L 360.462236 182.56711 
L 352.778287 179.014762 
" style="fill:none;stroke:#808080;stroke-linecap:square;stroke-width:1.5;"/>
   </g>
   <g id="line2d_28">
    <path clip-path="url(#p668d971646)" d="M 352.778287 285.441706 
L 352.778287 179.014762 
L 503.345021 179.014762 
L 503.345021 285.441706 
L 352.778287 285.441706 
" style="fill:none;stroke:#d3d3d3;stroke-linecap:square;stroke-width:0.5;"/>
   </g>
   <g id="line2d_29">
    <path clip-path="url(#p668d971646)" d="M 316.491839 509.382907 
L 316.491839 509.382907 
L 316.491839 509.382907 
" style="fill:none;stroke:#000000;stroke-linecap:square;stroke-width:3;"/>
   </g>
   <g id="line2d_30">
    <path clip-path="url(#p668d971646)" d="M 316.491839 509.382907 
L 316.491839 509.382907 
L 316.491839 509.382907 
L 316.491839 509.382907 
L 316.491839 509.382907 
" style="fill:none;stroke:#d3d3d3;stroke-linecap:square;stroke-width:0.5;"/>
   </g>
   <g id="line2d_31">
    <path clip-path="url(#p668d971646)" d="M 316.491839 509.382907 
L 316.491839 509.382907 
L 316.491839 509.382907 
" style="fill:none;stroke:#000000;stroke-linecap:square;stroke-width:3;"/>
   </g>
   <g id="line2d_32">
    <path clip-path="url(#p668d971646)" d="M 316.491839 509.382907 
L 316.491839 509.382907 
L 316.491839 509.382907 
L 316.491839 509.382907 
L 316.491839 509.382907 
" style="fill:none;stroke:#d3d3d3;stroke-linecap:square;stroke-width:0.5;"/>
   </g>
   <g id="line2d_33">
    <path clip-path="url(#p668d971646)" d="M 316.491839 509.382907 
L 314.252161 517.336231 
L 312.119087 525.277548 
L 310.11795 533.19695 
L 308.284121 541.077081 
L 306.668947 548.885799 
L 305.350405 556.558738 
L 304.452313 563.951831 
L 304.170313 570.685594 
L 304.657716 575.501167 
L 303.489593 574.432781 
L 299.487167 572.681505 
L 302.995204 571.77961 
L 308.966351 569.181571 
L 315.526947 565.608806 
L 322.252562 561.480937 
L 329.021671 557.007385 
L 335.794691 552.303167 
L 342.558971 547.437448 
L 349.311819 542.454932 
L 356.054444 537.386208 
L 362.789582 532.253203 
L 369.520503 527.072258 
L 376.250602 521.855972 
L 382.983228 516.614351 
L 389.721632 511.355572 
" style="fill:none;stroke:#000000;stroke-linecap:square;stroke-width:3;"/>
   </g>
   <g id="line2d_34">
    <path clip-path="url(#p668d971646)" d="M 299.487167 575.501167 
L 299.487167 509.382907 
L 389.721632 509.382907 
L 389.721632 575.501167 
L 299.487167 575.501167 
" style="fill:none;stroke:#d3d3d3;stroke-linecap:square;stroke-width:0.5;"/>
   </g>
   <g id="line2d_35">
    <path clip-path="url(#p668d971646)" d="M 389.721632 511.355572 
L 396.468967 506.086495 
L 403.228315 500.813027 
L 410.002719 495.540387 
L 416.795233 490.273305 
L 423.608973 485.016181 
L 430.447168 479.773215 
L 437.313228 474.548518 
L 444.210821 469.346222 
L 451.143955 464.170579 
L 458.117096 459.026072 
L 465.135307 453.91754 
L 472.204429 448.850324 
L 479.331335 443.830447 
L 486.524271 438.864858 
L 493.793351 433.961752 
L 501.151279 429.131027 
L 508.614467 424.384955 
L 516.204816 419.739208 
L 523.952734 415.214532 
L 531.902554 410.839646 
L 540.123111 406.656765 
L 548.730553 402.73349 
L 557.944456 399.193477 
L 568.250736 396.320139 
L 574.972676 395.662936 
" style="fill:none;stroke:#000000;stroke-linecap:square;stroke-width:3;"/>
   </g>
   <g id="line2d_36">
    <path clip-path="url(#p668d971646)" d="M 389.721632 511.355572 
L 389.721632 395.662936 
L 574.972676 395.662936 
L 574.972676 511.355572 
L 389.721632 511.355572 
" style="fill:none;stroke:#d3d3d3;stroke-linecap:square;stroke-width:0.5;"/>
   </g>
   <g id="line2d_37">
    <path clip-path="url(#p668d971646)" d="M 574.972676 395.662936 
" style="fill:none;stroke:#000000;stroke-linecap:square;stroke-width:3;"/>
   </g>
   <g id="line2d_38">
    <path clip-path="url(#p668d971646)" d="M 574.972676 395.662936 
L 574.972676 395.662936 
L 574.972676 395.662936 
L 574.972676 395.662936 
L 574.972676 395.662936 
" style="fill:none;stroke:#d3d3d3;stroke-linecap:square;stroke-width:0.5;"/>
   </g>
   <g id="line2d_39">
    <path clip-path="url(#p668d971646)" d="M 345.671728 193.869459 
L 345.671728 193.869459 
L 338.461123 190.792368 
L 330.92925 187.883478 
L 323.209831 185.125423 
L 315.366417 182.501257 
L 307.434921 179.998598 
L 299.438299 177.609158 
L 291.392678 175.327918 
L 283.310297 173.152553 
L 275.201077 171.083115 
L 267.073606 169.12198 
L 258.935881 167.27405 
L 250.796115 165.547291 
L 242.663881 163.953757 
L 234.552203 162.511429 
L 241.821262 163.649771 
" style="fill:none;stroke:#000000;stroke-linecap:square;stroke-width:3;"/>
   </g>
   <g id="line2d_40">
    <path clip-path="url(#p668d971646)" d="M 234.552203 193.869459 
L 234.552203 162.511429 
L 345.671728 162.511429 
L 345.671728 193.869459 
L 234.552203 193.869459 
" style="fill:none;stroke:#d3d3d3;stroke-linecap:square;stroke-width:0.5;"/>
   </g>
   <g id="line2d_41">
    <path clip-path="url(#p668d971646)" d="M 266.547581 174.74396 
L 266.547581 174.74396 
L 274.44828 178.190849 
L 282.353039 181.71596 
L 290.261414 185.343119 
L 298.172207 189.103581 
L 306.0827 193.038594 
L 313.987095 197.202785 
L 321.873451 201.668438 
L 329.717771 206.530172 
L 337.473116 211.908104 
L 345.051446 217.944212 
L 352.299403 224.781206 
L 358.982175 232.511662 
L 364.80932 241.105248 
L 369.526614 250.369646 
L 373.023945 260.008333 
L 375.362528 269.741545 
L 376.709546 279.385833 
L 377.256438 288.855901 
L 377.17248 298.129718 
L 376.59188 307.215884 
L 375.616656 316.134165 
L 374.323651 324.906264 
" style="fill:none;stroke:#000000;stroke-linecap:square;stroke-width:3;"/>
   </g>
   <g id="line2d_42">
    <path clip-path="url(#p668d971646)" d="M 266.547581 324.906264 
L 266.547581 174.74396 
L 377.256438 174.74396 
L 377.256438 324.906264 
L 266.547581 324.906264 
" style="fill:none;stroke:#d3d3d3;stroke-linecap:square;stroke-width:0.5;"/>
   </g>
   <g id="line2d_43">
    <path clip-path="url(#p668d971646)" d="M 374.323651 324.906264 
L 372.77112 333.552217 
L 371.003822 342.089346 
L 369.056685 350.532257 
L 366.957412 358.893173 
L 364.728332 367.182328 
L 362.38773 375.408335 
L 359.950823 383.578479 
L 357.430486 391.698963 
L 354.837815 399.775095 
L 352.182557 407.811443 
L 349.473475 415.811954 
L 346.718656 423.780048 
L 343.925794 431.718686 
L 341.102489 439.630409 
L 338.256576 447.517331 
L 335.396562 455.38107 
L 332.532226 463.222549 
L 329.675571 471.041585 
L 326.842398 478.835986 
L 324.055211 486.599567 
L 321.349109 494.317234 
L 318.785552 501.950618 
L 316.491839 509.382907 
" style="fill:none;stroke:#000000;stroke-linecap:square;stroke-width:3;"/>
   </g>
   <g id="line2d_44">
    <path clip-path="url(#p668d971646)" d="M 316.491839 509.382907 
L 316.491839 324.906264 
L 374.323651 324.906264 
L 374.323651 509.382907 
L 316.491839 509.382907 
" style="fill:none;stroke:#d3d3d3;stroke-linecap:square;stroke-width:0.5;"/>
   </g>
   <g id="line2d_45">
    <path clip-path="url(#p668d971646)" d="M 316.491839 509.382907 
" style="fill:none;stroke:#000000;stroke-linecap:square;stroke-width:3;"/>
   </g>
   <g id="line2d_46">
    <path clip-path="url(#p668d971646)" d="M 316.491839 509.382907 
L 316.491839 509.382907 
L 316.491839 509.382907 
L 316.491839 509.382907 
L 316.491839 509.382907 
" style="fill:none;stroke:#d3d3d3;stroke-linecap:square;stroke-width:0.5;"/>
   </g>
   <g id="line2d_47">
    <path clip-path="url(#p668d971646)" d="M 241.821262 163.649771 
L 243.538769 164.461842 
L 251.146595 167.946518 
L 258.820947 171.371001 
L 266.547581 174.74396 
L 266.547581 174.74396 
" style="fill:none;stroke:#000000;stroke-linecap:square;stroke-width:3;"/>
   </g>
   <g id="line2d_48">
    <path clip-path="url(#p668d971646)" d="M 241.821262 174.74396 
L 241.821262 163.649771 
L 266.547581 163.649771 
L 266.547581 174.74396 
L 241.821262 174.74396 
" style="fill:none;stroke:#d3d3d3;stroke-linecap:square;stroke-width:0.5;"/>
   </g>
   <g id="line2d_49">
    <path clip-path="url(#p668d971646)" d="M 574.972676 395.662936 
L 566.317496 383.970518 
L 561.364689 377.456286 
L 556.326236 370.980358 
L 551.214079 364.543856 
L 546.036223 358.147661 
L 540.798079 351.792772 
L 535.503257 345.480456 
L 530.15405 339.212323 
L 524.751749 332.990362 
L 519.296847 326.816971 
L 513.789186 320.694962 
L 508.228056 314.627582 
L 502.612272 308.618514 
L 496.940229 302.671884 
L 491.209955 296.792248 
L 485.419153 290.984583 
L 479.565243 285.254246 
L 473.645412 279.606928 
L 467.656663 274.048574 
L 461.595873 268.585282 
L 455.459867 263.223175 
L 449.245488 257.968242 
L 442.949696 252.826159 
L 436.569662 247.8021 
L 430.102882 242.900545 
L 423.547289 238.1251 
L 416.901373 233.478351 
L 410.164287 228.961756 
L 403.335935 224.575597 
L 396.41704 220.318976 
L 389.409157 216.189874 
L 382.314662 212.18525 
L 375.136676 208.301174 
L 367.878959 204.53298 
L 360.545777 200.875431 
L 353.141753 197.322887 
L 345.671728 193.869459 
L 345.671728 193.869459 
" style="fill:none;stroke:#000000;stroke-linecap:square;stroke-width:3;"/>
   </g>
   <g id="line2d_50">
    <path clip-path="url(#p668d971646)" d="M 345.671728 395.662936 
L 345.671728 193.869459 
L 574.972676 193.869459 
L 574.972676 395.662936 
L 345.671728 395.662936 
" style="fill:none;stroke:#d3d3d3;stroke-linecap:square;stroke-width:0.5;"/>
   </g>
   <g id="line2d_51">
    <path clip-path="url(#p668d971646)" d="M 284.091366 500.547647 
L 284.091366 500.547647 
L 284.091366 500.547647 
" style="fill:none;stroke:#000000;stroke-linecap:square;stroke-width:3;"/>
   </g>
   <g id="line2d_52">
    <path clip-path="url(#p668d971646)" d="M 284.091366 500.547647 
L 284.091366 500.547647 
L 284.091366 500.547647 
L 284.091366 500.547647 
L 284.091366 500.547647 
" style="fill:none;stroke:#d3d3d3;stroke-linecap:square;stroke-width:0.5;"/>
   </g>
   <g id="line2d_53">
    <path clip-path="url(#p668d971646)" d="M 284.091366 500.547647 
L 284.091366 500.547647 
L 284.091366 500.547647 
" style="fill:none;stroke:#000000;stroke-linecap:square;stroke-width:3;"/>
   </g>
   <g id="line2d_54">
    <path clip-path="url(#p668d971646)" d="M 284.091366 500.547647 
L 284.091366 500.547647 
L 284.091366 500.547647 
L 284.091366 500.547647 
L 284.091366 500.547647 
" style="fill:none;stroke:#d3d3d3;stroke-linecap:square;stroke-width:0.5;"/>
   </g>
   <g id="line2d_55">
    <path clip-path="url(#p668d971646)" d="M 577.24187 428.13852 
L 599.227381 437.765403 
L 622.765616 411.934931 
L 618.178614 401.448742 
L 613.455585 393.322861 
L 608.601922 385.806082 
L 603.642812 378.583156 
L 598.596423 371.53953 
L 593.474859 364.620557 
L 588.286185 357.796008 
L 583.035757 351.047577 
L 577.727024 344.363544 
L 572.362041 337.736173 
L 566.941778 331.16033 
L 561.466338 324.632684 
L 555.935088 318.151236 
L 550.346757 311.715027 
L 544.6995 305.323953 
L 538.990947 298.978657 
L 533.21824 292.680456 
L 527.37807 286.431309 
L 521.466715 280.233806 
L 515.480087 274.091163 
L 509.413795 268.00724 
" style="fill:none;stroke:#000000;stroke-linecap:square;stroke-width:3;"/>
   </g>
   <g id="line2d_56">
    <path clip-path="url(#p668d971646)" d="M 509.413795 437.765403 
L 509.413795 268.00724 
L 622.765616 268.00724 
L 622.765616 437.765403 
L 509.413795 437.765403 
" style="fill:none;stroke:#d3d3d3;stroke-linecap:square;stroke-width:0.5;"/>
   </g>
   <g id="line2d_57">
    <path clip-path="url(#p668d971646)" d="M 509.413795 268.00724 
L 503.263226 261.986544 
L 497.023654 256.034247 
L 490.690377 250.156173 
L 484.258886 244.358775 
L 477.725065 238.64908 
L 471.085417 233.034588 
L 464.337298 227.523117 
L 457.479149 222.122604 
L 450.510695 216.840838 
L 443.433086 211.685157 
L 436.248962 206.662114 
L 428.962414 201.777159 
L 421.578848 197.03435 
L 414.104753 192.436139 
L 406.547415 187.98326 
L 398.914585 183.674723 
L 391.214157 179.507903 
L 383.453881 175.478734 
L 375.641127 171.581943 
L 367.782719 167.811333 
L 359.884846 164.160066 
L 359.884846 164.160066 
" style="fill:none;stroke:#000000;stroke-linecap:square;stroke-width:3;"/>
   </g>
   <g id="line2d_58">
    <path clip-path="url(#p668d971646)" d="M 359.884846 268.00724 
L 359.884846 164.160066 
L 509.413795 164.160066 
L 509.413795 268.00724 
L 359.884846 268.00724 
" style="fill:none;stroke:#d3d3d3;stroke-linecap:square;stroke-width:0.5;"/>
   </g>
   <g id="line2d_59">
    <path clip-path="url(#p668d971646)" d="M 284.091366 500.547647 
L 281.756489 508.839261 
L 279.512376 517.194366 
L 277.380536 525.631748 
L 275.391631 534.179747 
L 273.59197 542.8839 
L 272.057465 551.823809 
L 270.929102 561.155835 
L 270.529332 571.242958 
L 271.937753 583.137684 
L 281.094868 598.894919 
L 301.194845 605.416826 
L 314.466312 602.593347 
L 324.28702 598.363831 
L 332.821441 593.724771 
L 340.727654 588.874904 
L 348.269796 583.891467 
L 355.577968 578.815999 
L 362.725624 573.674726 
L 369.758389 568.48579 
L 376.706658 563.262537 
L 383.591802 558.015245 
L 390.429504 552.75213 
L 397.231693 547.47998 
L 404.00772 542.204575 
L 410.765112 536.930979 
" style="fill:none;stroke:#000000;stroke-linecap:square;stroke-width:3;"/>
   </g>
   <g id="line2d_60">
    <path clip-path="url(#p668d971646)" d="M 270.529332 605.416826 
L 270.529332 500.547647 
L 410.765112 500.547647 
L 410.765112 605.416826 
L 270.529332 605.416826 
" style="fill:none;stroke:#d3d3d3;stroke-linecap:square;stroke-width:0.5;"/>
   </g>
   <g id="line2d_61">
    <path clip-path="url(#p668d971646)" d="M 410.765112 536.930979 
L 417.51008 531.663751 
L 424.247861 526.407106 
L 430.982969 521.165048 
L 437.71937 515.941473 
L 444.460623 510.740271 
L 451.209975 505.565414 
L 457.97045 500.421054 
L 464.744905 495.311621 
L 471.536084 490.241935 
L 478.346657 485.217348 
L 485.179245 480.24391 
L 492.036436 475.328582 
L 498.920776 470.479524 
L 505.834734 465.706479 
L 512.780614 461.021313 
L 519.760365 456.438784 
L 526.775212 451.977691 
L 533.824937 447.662631 
L 540.906403 443.526816 
L 548.010443 439.616783 
L 555.114795 436.000736 
L 562.166555 432.784112 
L 569.032695 430.139941 
L 575.33513 428.362878 
L 577.24187 428.13852 
" style="fill:none;stroke:#000000;stroke-linecap:square;stroke-width:3;"/>
   </g>
   <g id="line2d_62">
    <path clip-path="url(#p668d971646)" d="M 410.765112 536.930979 
L 410.765112 428.13852 
L 577.24187 428.13852 
L 577.24187 536.930979 
L 410.765112 536.930979 
" style="fill:none;stroke:#d3d3d3;stroke-linecap:square;stroke-width:0.5;"/>
   </g>
   <g id="line2d_63">
    <path clip-path="url(#p668d971646)" d="M 577.24187 428.13852 
" style="fill:none;stroke:#000000;stroke-linecap:square;stroke-width:3;"/>
   </g>
   <g id="line2d_64">
    <path clip-path="url(#p668d971646)" d="M 577.24187 428.13852 
L 577.24187 428.13852 
L 577.24187 428.13852 
L 577.24187 428.13852 
L 577.24187 428.13852 
" style="fill:none;stroke:#d3d3d3;stroke-linecap:square;stroke-width:0.5;"/>
   </g>
   <g id="line2d_65">
    <path clip-path="url(#p668d971646)" d="M 252.901566 204.704636 
L 252.901566 204.704636 
L 260.581387 208.05512 
L 268.199422 211.452299 
L 275.736689 214.909135 
L 283.168119 218.441534 
L 290.460496 222.068739 
L 297.569808 225.813501 
L 304.438107 229.701722 
L 310.990486 233.761133 
L 317.133937 238.018685 
L 322.761744 242.497216 
L 327.768364 247.214559 
L 332.075322 252.190955 
L 335.653857 257.464795 
L 338.52063 263.096653 
L 340.710084 269.139667 
L 342.258454 275.599941 
L 343.209192 282.43075 
L 343.618312 289.558022 
L 343.550065 296.906677 
L 343.069213 304.413709 
L 342.235491 312.030883 
L 341.101168 319.722899 
" style="fill:none;stroke:#000000;stroke-linecap:square;stroke-width:3;"/>
   </g>
   <g id="line2d_66">
    <path clip-path="url(#p668d971646)" d="M 252.901566 319.722899 
L 252.901566 204.704636 
L 343.618312 204.704636 
L 343.618312 319.722899 
L 252.901566 319.722899 
" style="fill:none;stroke:#d3d3d3;stroke-linecap:square;stroke-width:0.5;"/>
   </g>
   <g id="line2d_67">
    <path clip-path="url(#p668d971646)" d="M 341.101168 319.722899 
L 339.710675 327.464489 
L 338.101255 335.237777 
L 336.303956 343.030228 
L 334.344664 350.833137 
L 332.245039 358.640557 
L 330.023316 366.448528 
L 327.694967 374.254542 
L 325.273246 382.057164 
L 322.769636 389.855775 
L 320.194218 397.650409 
L 317.555979 405.44165 
L 314.863077 413.230607 
L 312.123084 421.018931 
L 309.343215 428.808902 
L 306.530575 436.60359 
L 303.692445 444.407138 
L 300.836652 452.225226 
L 297.972097 460.065893 
L 295.109578 467.941074 
L 292.263172 475.869757 
L 289.452801 483.885243 
L 286.709722 492.054804 
L 284.091366 500.547647 
" style="fill:none;stroke:#000000;stroke-linecap:square;stroke-width:3;"/>
   </g>
   <g id="line2d_68">
    <path clip-path="url(#p668d971646)" d="M 284.091366 500.547647 
L 284.091366 319.722899 
L 341.101168 319.722899 
L 341.101168 500.547647 
L 284.091366 500.547647 
" style="fill:none;stroke:#d3d3d3;stroke-linecap:square;stroke-width:0.5;"/>
   </g>
   <g id="line2d_69">
    <path clip-path="url(#p668d971646)" d="M 284.091366 500.547647 
" style="fill:none;stroke:#000000;stroke-linecap:square;stroke-width:3;"/>
   </g>
   <g id="line2d_70">
    <path clip-path="url(#p668d971646)" d="M 284.091366 500.547647 
L 284.091366 500.547647 
L 284.091366 500.547647 
L 284.091366 500.547647 
L 284.091366 500.547647 
" style="fill:none;stroke:#d3d3d3;stroke-linecap:square;stroke-width:0.5;"/>
   </g>
   <g id="line2d_71">
    <path clip-path="url(#p668d971646)" d="M 359.884846 164.160066 
L 359.884846 164.160066 
L 351.348704 160.51464 
L 342.888542 157.246395 
L 334.447062 154.230006 
L 326.002119 151.404413 
L 317.543953 148.735478 
L 309.067889 146.202724 
L 300.571419 143.793623 
L 292.052769 141.500824 
L 283.510043 139.32076 
L 274.940538 137.252979 
L 266.340041 135.299995 
L 257.701906 133.46757 
L 249.015632 131.765568 
L 240.264374 130.209692 
L 231.420007 128.824994 
L 222.43195 127.653457 
L 213.196871 126.773153 
L 203.451126 126.362055 
L 192.147828 127.078698 
L 171.388899 143.136858 
L 180.394059 166.128789 
L 189.088587 172.76829 
L 197.2225 177.815162 
L 205.218084 182.263918 
L 213.170223 186.383875 
L 221.10986 190.290202 
L 229.049024 194.044144 
L 236.992797 197.682776 
L 244.943356 201.230556 
L 252.901566 204.704636 
L 252.901566 204.704636 
" style="fill:none;stroke:#000000;stroke-linecap:square;stroke-width:3;"/>
   </g>
   <g id="line2d_72">
    <path clip-path="url(#p668d971646)" d="M 171.388899 204.704636 
L 171.388899 126.362055 
L 359.884846 126.362055 
L 359.884846 204.704636 
L 171.388899 204.704636 
" style="fill:none;stroke:#d3d3d3;stroke-linecap:square;stroke-width:0.5;"/>
   </g>
   <g id="line2d_73">
    <path clip-path="url(#p668d971646)" d="M 577.24187 428.13852 
L 579.797068 427.83786 
L 578.852747 427.188289 
L 578.852747 427.188289 
" style="fill:none;stroke:#000000;stroke-linecap:square;stroke-width:3;"/>
   </g>
   <g id="line2d_74">
    <path clip-path="url(#p668d971646)" d="M 577.24187 428.13852 
L 577.24187 427.188289 
L 579.797068 427.188289 
L 579.797068 428.13852 
L 577.24187 428.13852 
" style="fill:none;stroke:#d3d3d3;stroke-linecap:square;stroke-width:0.5;"/>
   </g>
   <g id="line2d_75">
    <path clip-path="url(#p668d971646)" d="M 578.852747 427.188289 
L 578.852747 427.188289 
L 586.985794 432.40513 
L 577.24187 428.13852 
" style="fill:none;stroke:#000000;stroke-linecap:square;stroke-width:3;"/>
   </g>
   <g id="line2d_76">
    <path clip-path="url(#p668d971646)" d="M 577.24187 432.40513 
L 577.24187 427.188289 
L 586.985794 427.188289 
L 586.985794 432.40513 
L 577.24187 432.40513 
" style="fill:none;stroke:#d3d3d3;stroke-linecap:square;stroke-width:0.5;"/>
   </g>
   <g id="line2d_77">
    <path clip-path="url(#p668d971646)" d="M 259.724574 165.141124 
L 262.951475 165.342951 
L 266.125391 165.94512 
L 269.194205 166.937742 
L 272.107529 168.304518 
L 274.817524 170.023007 
L 277.279694 172.064991 
L 279.45361 174.396939 
L 281.303575 176.980563 
L 282.799213 179.773438 
L 283.915966 182.729707 
L 284.635498 185.800826 
L 284.945993 188.936368 
L 284.842352 192.084849 
L 284.326279 195.194569 
L 283.406246 198.214467 
L 282.097361 201.094957 
L 280.421115 203.788741 
L 278.405033 206.251588 
L 276.082218 208.443057 
L 273.490811 210.327164 
L 270.673363 211.872973 
L 267.676135 213.055101 
L 264.548344 213.854138 
L 261.341346 214.256963 
L 258.107801 214.256963 
L 254.900803 213.854138 
L 251.773012 213.055101 
L 248.775785 211.872973 
L 245.958336 210.327164 
L 243.366929 208.443057 
L 241.044114 206.251588 
L 239.028032 203.788741 
L 237.351786 201.094957 
L 236.042901 198.214467 
L 235.122868 195.194569 
L 234.606795 192.084849 
L 234.503154 188.936368 
L 234.813649 185.800826 
L 235.533181 182.729707 
L 236.649934 179.773438 
L 238.145573 176.980563 
L 239.995538 174.396939 
L 242.169453 172.064991 
L 244.631623 170.023007 
L 247.341618 168.304518 
L 250.254942 166.937742 
L 253.323756 165.94512 
L 256.497672 165.342951 
L 259.724574 165.141124 
" style="fill:none;stroke:#808080;stroke-linecap:square;stroke-width:1.5;"/>
   </g>
   <g id="line2d_78">
    <path clip-path="url(#p668d971646)" d="M 356.240898 305.925178 
L 359.467799 306.127006 
L 362.641715 306.729175 
L 365.71053 307.721797 
L 368.623853 309.088573 
L 371.333849 310.807062 
L 373.796018 312.849045 
L 375.969934 315.180994 
L 377.819899 317.764618 
L 379.315537 320.557493 
L 380.432291 323.513761 
L 381.151822 326.584881 
L 381.462317 329.720423 
L 381.358677 332.868904 
L 380.842603 335.978624 
L 379.92257 338.998522 
L 378.613685 341.879012 
L 376.93744 344.572796 
L 374.921357 347.035643 
L 372.598542 349.227111 
L 370.007135 351.111219 
L 367.189687 352.657027 
L 364.19246 353.839156 
L 361.064668 354.638193 
L 357.85767 355.041018 
L 354.624125 355.041018 
L 351.417127 354.638193 
L 348.289336 353.839156 
L 345.292109 352.657027 
L 342.47466 351.111219 
L 339.883253 349.227111 
L 337.560438 347.035643 
L 335.544356 344.572796 
L 333.86811 341.879012 
L 332.559225 338.998522 
L 331.639192 335.978624 
L 331.123119 332.868904 
L 331.019479 329.720423 
L 331.329973 326.584881 
L 332.049505 323.513761 
L 333.166258 320.557493 
L 334.661897 317.764618 
L 336.511862 315.180994 
L 338.685777 312.849045 
L 341.147947 310.807062 
L 343.857943 309.088573 
L 346.771266 307.721797 
L 349.840081 306.729175 
L 353.013996 306.127006 
L 356.240898 305.925178 
" style="fill:none;stroke:#808080;stroke-linecap:square;stroke-width:1.5;"/>
   </g>
   <g id="line2d_79">
    <path clip-path="url(#p668d971646)" d="M 300.291603 480.382103 
L 303.518504 480.58393 
L 306.69242 481.186099 
L 309.761234 482.178721 
L 312.674558 483.545498 
L 315.384554 485.263986 
L 317.846723 487.30597 
L 320.020639 489.637919 
L 321.870604 492.221542 
L 323.366242 495.014418 
L 324.482996 497.970686 
L 325.202527 501.041805 
L 325.513022 504.177348 
L 325.409382 507.325828 
L 324.893308 510.435548 
L 323.973275 513.455446 
L 322.66439 516.335936 
L 320.988144 519.029721 
L 318.972062 521.492567 
L 316.649247 523.684036 
L 314.05784 525.568143 
L 311.240392 527.113952 
L 308.243165 528.29608 
L 305.115373 529.095117 
L 301.908375 529.497943 
L 298.67483 529.497943 
L 295.467832 529.095117 
L 292.340041 528.29608 
L 289.342814 527.113952 
L 286.525365 525.568143 
L 283.933958 523.684036 
L 281.611143 521.492567 
L 279.595061 519.029721 
L 277.918815 516.335936 
L 276.60993 513.455446 
L 275.689897 510.435548 
L 275.173824 507.325828 
L 275.070184 504.177348 
L 275.380678 501.041805 
L 276.10021 497.970686 
L 277.216963 495.014418 
L 278.712602 492.221542 
L 280.562567 489.637919 
L 282.736482 487.30597 
L 285.198652 485.263986 
L 287.908647 483.545498 
L 290.821971 482.178721 
L 293.890785 481.186099 
L 297.064701 480.58393 
L 300.291603 480.382103 
" style="fill:none;stroke:#808080;stroke-linecap:square;stroke-width:1.5;"/>
   </g>
   <g id="line2d_80">
    <path clip-path="url(#p668d971646)" d="M 406.989523 494.291948 
L 410.216425 494.493776 
L 413.390341 495.095945 
L 416.459155 496.088567 
L 419.372479 497.455343 
L 422.082474 499.173832 
L 424.544644 501.215816 
L 426.718559 503.547764 
L 428.568524 506.131388 
L 430.064163 508.924263 
L 431.180916 511.880532 
L 431.900448 514.951651 
L 432.210943 518.087193 
L 432.107302 521.235674 
L 431.591229 524.345394 
L 430.671196 527.365292 
L 429.362311 530.245782 
L 427.686065 532.939566 
L 425.669983 535.402413 
L 423.347168 537.593881 
L 420.755761 539.477989 
L 417.938312 541.023797 
L 414.941085 542.205926 
L 411.813294 543.004963 
L 408.606296 543.407788 
L 405.372751 543.407788 
L 402.165753 543.004963 
L 399.037962 542.205926 
L 396.040735 541.023797 
L 393.223286 539.477989 
L 390.631879 537.593881 
L 388.309064 535.402413 
L 386.292982 532.939566 
L 384.616736 530.245782 
L 383.307851 527.365292 
L 382.387818 524.345394 
L 381.871745 521.235674 
L 381.768104 518.087193 
L 382.078599 514.951651 
L 382.798131 511.880532 
L 383.914884 508.924263 
L 385.410522 506.131388 
L 387.260487 503.547764 
L 389.434403 501.215816 
L 391.896573 499.173832 
L 394.606568 497.455343 
L 397.519892 496.088567 
L 400.588706 495.095945 
L 403.762622 494.493776 
L 406.989523 494.291948 
" style="fill:none;stroke:#808080;stroke-linecap:square;stroke-width:1.5;"/>
   </g>
   <g id="line2d_81">
    <path clip-path="url(#p668d971646)" d="M 588.549568 389.212792 
L 591.77647 389.41462 
L 594.950386 390.016788 
L 598.0192 391.00941 
L 600.932524 392.376187 
L 603.642519 394.094676 
L 606.104689 396.136659 
L 608.278604 398.468608 
L 610.128569 401.052232 
L 611.624208 403.845107 
L 612.740961 406.801375 
L 613.460493 409.872494 
L 613.770988 413.008037 
L 613.667347 416.156517 
L 613.151274 419.266237 
L 612.231241 422.286136 
L 610.922356 425.166626 
L 609.24611 427.86041 
L 607.230028 430.323256 
L 604.907213 432.514725 
L 602.315806 434.398832 
L 599.498357 435.944641 
L 596.50113 437.126769 
L 593.373339 437.925806 
L 590.166341 438.328632 
L 586.932796 438.328632 
L 583.725798 437.925806 
L 580.598007 437.126769 
L 577.600779 435.944641 
L 574.783331 434.398832 
L 572.191924 432.514725 
L 569.869109 430.323256 
L 567.853027 427.86041 
L 566.176781 425.166626 
L 564.867896 422.286136 
L 563.947863 419.266237 
L 563.431789 416.156517 
L 563.328149 413.008037 
L 563.638644 409.872494 
L 564.358176 406.801375 
L 565.474929 403.845107 
L 566.970567 401.052232 
L 568.820532 398.468608 
L 570.994448 396.136659 
L 573.456618 394.094676 
L 576.166613 392.376187 
L 579.079937 391.00941 
L 582.148751 390.016788 
L 585.322667 389.41462 
L 588.549568 389.212792 
" style="fill:none;stroke:#808080;stroke-linecap:square;stroke-width:1.5;"/>
   </g>
   <g id="line2d_82">
    <path clip-path="url(#p668d971646)" d="M 503.345021 260.858531 
L 506.571922 261.060359 
L 509.745838 261.662528 
L 512.814653 262.65515 
L 515.727976 264.021926 
L 518.437972 265.740415 
L 520.900142 267.782398 
L 523.074057 270.114347 
L 524.924022 272.697971 
L 526.41966 275.490846 
L 527.536414 278.447114 
L 528.255945 281.518234 
L 528.56644 284.653776 
L 528.4628 287.802256 
L 527.946726 290.911977 
L 527.026694 293.931875 
L 525.717808 296.812365 
L 524.041563 299.506149 
L 522.02548 301.968996 
L 519.702665 304.160464 
L 517.111258 306.044572 
L 514.29381 307.59038 
L 511.296583 308.772509 
L 508.168791 309.571546 
L 504.961793 309.974371 
L 501.728248 309.974371 
L 498.521251 309.571546 
L 495.393459 308.772509 
L 492.396232 307.59038 
L 489.578784 306.044572 
L 486.987377 304.160464 
L 484.664562 301.968996 
L 482.648479 299.506149 
L 480.972233 296.812365 
L 479.663348 293.931875 
L 478.743315 290.911977 
L 478.227242 287.802256 
L 478.123602 284.653776 
L 478.434097 281.518234 
L 479.153628 278.447114 
L 480.270381 275.490846 
L 481.76602 272.697971 
L 483.615985 270.114347 
L 485.7899 267.782398 
L 488.25207 265.740415 
L 490.962066 264.021926 
L 493.875389 262.65515 
L 496.944204 261.662528 
L 500.118119 261.060359 
L 503.345021 260.858531 
" style="fill:none;stroke:#808080;stroke-linecap:square;stroke-width:1.5;"/>
   </g>
   <g id="line2d_83">
    <path clip-path="url(#p668d971646)" d="M 352.778287 154.431588 
L 356.005189 154.633416 
L 359.179104 155.235584 
L 362.247919 156.228206 
L 365.161242 157.594983 
L 367.871238 159.313472 
L 370.333408 161.355455 
L 372.507323 163.687404 
L 374.357288 166.271028 
L 375.852927 169.063903 
L 376.96968 172.020171 
L 377.689212 175.09129 
L 377.999706 178.226833 
L 377.896066 181.375313 
L 377.379993 184.485033 
L 376.45996 187.504932 
L 375.151075 190.385422 
L 373.474829 193.079206 
L 371.458747 195.542052 
L 369.135932 197.733521 
L 366.544524 199.617628 
L 363.727076 201.163437 
L 360.729849 202.345565 
L 357.602057 203.144602 
L 354.39506 203.547428 
L 351.161515 203.547428 
L 347.954517 203.144602 
L 344.826725 202.345565 
L 341.829498 201.163437 
L 339.01205 199.617628 
L 336.420643 197.733521 
L 334.097828 195.542052 
L 332.081745 193.079206 
L 330.4055 190.385422 
L 329.096614 187.504932 
L 328.176582 184.485033 
L 327.660508 181.375313 
L 327.556868 178.226833 
L 327.867363 175.09129 
L 328.586894 172.020171 
L 329.703648 169.063903 
L 331.199286 166.271028 
L 333.049251 163.687404 
L 335.223166 161.355455 
L 337.685336 159.313472 
L 340.395332 157.594983 
L 343.308655 156.228206 
L 346.37747 155.235584 
L 349.551386 154.633416 
L 352.778287 154.431588 
" style="fill:none;stroke:#808080;stroke-linecap:square;stroke-width:1.5;"/>
   </g>
   <g id="line2d_84"/>
   <g id="line2d_85"/>
   <g id="line2d_86"/>
   <g id="line2d_87"/>
   <g id="line2d_88"/>
   <g id="line2d_89"/>
   <g id="line2d_90"/>
   <g id="line2d_91"/>
   <g id="line2d_92"/>
   <g id="line2d_93"/>
   <g id="line2d_94"/>
   <g id="line2d_95"/>
   <g id="line2d_96"/>
   <g id="line2d_97"/>
   <g id="line2d_98"/>
   <g id="line2d_99"/>
   <g id="line2d_100"/>
   <g id="line2d_101"/>
   <g id="line2d_102"/>
   <g id="line2d_103"/>
   <g id="line2d_104"/>
   <g id="line2d_105"/>
   <g id="line2d_106"/>
   <g id="line2d_107"/>
   <g id="line2d_108"/>
   <g id="line2d_109"/>
   <g id="line2d_110"/>
   <g id="line2d_111"/>
   <g id="line2d_112"/>
   <g id="line2d_113"/>
   <g id="line2d_114"/>
   <g id="line2d_115"/>
   <g id="line2d_116"/>
   <g id="line2d_117"/>
   <g id="line2d_118"/>
   <g id="line2d_119"/>
   <g id="line2d_120"/>
   <g id="line2d_121"/>
   <g id="line2d_122"/>
   <g id="line2d_123"/>
   <g id="line2d_124"/>
   <g id="line2d_125"/>
   <g id="line2d_126"/>
   <g id="line2d_127"/>
   <g id="line2d_128"/>
   <g id="line2d_129"/>
   <g id="line2d_130"/>
   <g id="line2d_131"/>
   <g id="line2d_132"/>
   <g id="line2d_133"/>
   <g id="line2d_134"/>
   <g id="patch_3">
    <path d="M 90 630 
L 90 86.4 
" style="fill:none;stroke:#000000;stroke-linecap:square;stroke-linejoin:miter;stroke-width:0.8;"/>
   </g>
   <g id="patch_4">
    <path d="M 648 630 
L 648 86.4 
" style="fill:none;stroke:#000000;stroke-linecap:square;stroke-linejoin:miter;stroke-width:0.8;"/>
   </g>
   <g id="patch_5">
    <path d="M 90 630 
L 648 630 
" style="fill:none;stroke:#000000;stroke-linecap:square;stroke-linejoin:miter;stroke-width:0.8;"/>
   </g>
   <g id="patch_6">
    <path d="M 90 86.4 
L 648 86.4 
" style="fill:none;stroke:#000000;stroke-linecap:square;stroke-linejoin:miter;stroke-width:0.8;"/>
   </g>
   <g id="text_15">
    <!-- 0 -->
    <g transform="translate(-26.111875 415.339783)scale(0.1 -0.1)">
     <use xlink:href="#DejaVuSans-30"/>
    </g>
   </g>
   <g id="text_16">
    <!-- 0 -->
    <g transform="translate(-26.111875 390.756608)scale(0.1 -0.1)">
     <use xlink:href="#DejaVuSans-30"/>
    </g>
   </g>
   <g id="text_17">
    <!-- 0 -->
    <g transform="translate(-26.111875 366.173434)scale(0.1 -0.1)">
     <use xlink:href="#DejaVuSans-30"/>
    </g>
   </g>
  </g>
 </g>
 <defs>
  <clipPath id="p668d971646">
   <rect height="543.6" width="558" x="90" y="86.4"/>
  </clipPath>
 </defs>
</svg>
