<?xml version="1.0" encoding="utf-8" standalone="no"?>
<!DOCTYPE svg PUBLIC "-//W3C//DTD SVG 1.1//EN"
  "http://www.w3.org/Graphics/SVG/1.1/DTD/svg11.dtd">
<svg height="720pt" version="1.1" viewBox="0 0 720 720" width="720pt" xmlns="http://www.w3.org/2000/svg" xmlns:xlink="http://www.w3.org/1999/xlink">
 <metadata>
  <rdf:RDF xmlns:cc="http://creativecommons.org/ns#" xmlns:dc="http://purl.org/dc/elements/1.1/" xmlns:rdf="http://www.w3.org/1999/02/22-rdf-syntax-ns#">
   <cc:Work>
    <dc:type rdf:resource="http://purl.org/dc/dcmitype/StillImage"/>
    <dc:date>2022-01-11T13:25:58.120484</dc:date>
    <dc:format>image/svg+xml</dc:format>
    <dc:creator>
     <cc:Agent>
      <dc:title>Matplotlib v3.4.3, https://matplotlib.org/</dc:title>
     </cc:Agent>
    </dc:creator>
   </cc:Work>
  </rdf:RDF>
 </metadata>
 <defs>
  <style type="text/css">*{stroke-linecap:butt;stroke-linejoin:round;}</style>
 </defs>
 <g id="figure_1">
  <g id="patch_1">
   <path d="M 0 720 
L 720 720 
L 720 0 
L 0 0 
z
" style="fill:none;"/>
  </g>
  <g id="axes_1">
   <g id="patch_2">
    <path d="M 90 630 
L 648 630 
L 648 86.4 
L 90 86.4 
z
" style="fill:#ffffff;"/>
   </g>
   <g id="PathCollection_1">
    <defs>
     <path d="M 0.972304 -8.870829 
Q -1.277159 -8.870829 -2.413438 -6.653699 
Q -3.545098 -4.441189 -3.545098 0.006929 
Q -3.545098 4.436569 -2.413438 6.653699 
Q -1.277159 8.870829 0.972304 8.870829 
Q 3.240243 8.870829 4.371903 6.653699 
Q 5.508182 4.436569 5.508182 0.006929 
Q 5.508182 -4.441189 4.371903 -6.653699 
Q 3.240243 -8.870829 0.972304 -8.870829 
z
M 0.972304 -11.18034 
Q 4.598235 -11.18034 6.51051 -8.311928 
Q 8.422784 -5.448135 8.422784 0.006929 
Q 8.422784 5.448135 6.51051 8.316547 
Q 4.598235 11.18034 0.972304 11.18034 
Q -2.649008 11.18034 -4.561283 8.316547 
Q -6.473558 5.448135 -6.473558 0.006929 
Q -6.473558 -5.448135 -4.561283 -8.311928 
Q -2.649008 -11.18034 0.972304 -11.18034 
z
" id="m6cb6b006e4" style="stroke:#808080;"/>
    </defs>
    <g clip-path="url(#p8470489c50)">
     <use style="fill:#808080;stroke:#808080;" x="446.322941" xlink:href="#m6cb6b006e4" y="138.679016"/>
    </g>
   </g>
   <g id="PathCollection_2">
    <defs>
     <path d="M -4.535873 8.63565 
L 0.404946 8.63565 
L 0.404946 -8.424791 
L -4.971969 -7.346533 
L -4.971969 -10.102082 
L 0.376192 -11.18034 
L 3.400108 -11.18034 
L 3.400108 8.63565 
L 8.340927 8.63565 
L 8.340927 11.18034 
L -4.535873 11.18034 
L -4.535873 8.63565 
z
" id="maee904ede2" style="stroke:#808080;"/>
    </defs>
    <g clip-path="url(#p8470489c50)">
     <use style="fill:#808080;stroke:#808080;" x="325.955232" xlink:href="#maee904ede2" y="164.29013"/>
    </g>
   </g>
   <g id="PathCollection_3">
    <defs>
     <path d="M -2.294912 8.680651 
L 8.075736 8.680651 
L 8.075736 11.18034 
L -5.867913 11.18034 
L -5.867913 8.680651 
Q -4.177916 6.929457 -1.259259 3.982555 
Q 1.664105 1.030945 2.4126 0.174178 
Q 3.838976 -1.426376 4.403877 -2.537349 
Q 4.973486 -3.648321 4.973486 -4.721634 
Q 4.973486 -6.472828 3.744825 -7.574386 
Q 2.516165 -8.680651 0.543718 -8.680651 
Q -0.854413 -8.680651 -2.407892 -8.195778 
Q -3.956663 -7.710904 -5.72198 -6.722326 
L -5.72198 -9.725719 
Q -3.928418 -10.445968 -2.370232 -10.813154 
Q -0.807338 -11.18034 0.487227 -11.18034 
Q 3.900173 -11.18034 5.929111 -9.471513 
Q 7.958048 -7.767394 7.958048 -4.914642 
Q 7.958048 -3.558879 7.449637 -2.344341 
Q 6.945933 -1.13451 5.604292 0.513119 
Q 5.237107 0.941502 3.264659 2.979855 
Q 1.296919 5.018207 -2.294912 8.680651 
z
" id="m2a7b257277" style="stroke:#808080;"/>
    </defs>
    <g clip-path="url(#p8470489c50)">
     <use style="fill:#808080;stroke:#808080;" x="227.281466" xlink:href="#m2a7b257277" y="306.570549"/>
    </g>
   </g>
   <g id="PathCollection_4">
    <defs>
     <path d="M 3.77605 -0.861447 
Q 5.868466 -0.413402 7.041697 1.004637 
Q 8.219548 2.418057 8.219548 4.496617 
Q 8.219548 7.683741 6.025513 9.43435 
Q 3.831478 11.18034 -0.210165 11.18034 
Q -1.563539 11.18034 -3.000054 10.912437 
Q -4.436569 10.644533 -5.965465 10.108727 
L -5.965465 7.295743 
Q -4.755282 8.002454 -3.314147 8.362737 
Q -1.868394 8.723021 -0.293308 8.723021 
Q 2.445772 8.723021 3.882287 7.64217 
Q 5.318802 6.561319 5.318802 4.496617 
Q 5.318802 2.588961 3.983905 1.517348 
Q 2.649008 0.441116 0.270213 0.441116 
L -2.242535 0.441116 
L -2.242535 -1.956155 
L 0.385688 -1.956155 
Q 2.533533 -1.956155 3.674431 -2.815293 
Q 4.815329 -3.674431 4.815329 -5.291088 
Q 4.815329 -6.949317 3.637479 -7.836169 
Q 2.464248 -8.72764 0.270213 -8.72764 
Q -0.930733 -8.72764 -2.302582 -8.464356 
Q -3.674431 -8.20569 -5.318802 -7.660646 
L -5.318802 -10.256536 
Q -3.655955 -10.718438 -2.205582 -10.949389 
Q -0.75521 -11.18034 0.528878 -11.18034 
Q 3.849954 -11.18034 5.780705 -9.66992 
Q 7.716074 -8.164119 7.716074 -5.595944 
Q 7.716074 -3.803764 6.690652 -2.570485 
Q 5.665229 -1.337207 3.77605 -0.861447 
z
" id="m1cb5f3bcc1" style="stroke:#808080;"/>
    </defs>
    <g clip-path="url(#p8470489c50)">
     <use style="fill:#808080;stroke:#808080;" x="238.839347" xlink:href="#m1cb5f3bcc1" y="469.160334"/>
    </g>
   </g>
   <g id="PathCollection_5">
    <defs>
     <path d="M 2.695646 -8.544598 
L -4.943215 3.392919 
L 2.695646 3.392919 
L 2.695646 -8.544598 
z
M 1.900131 -11.18034 
L 5.705184 -11.18034 
L 5.705184 3.392919 
L 8.896829 3.392919 
L 8.896829 5.908855 
L 5.705184 5.908855 
L 5.705184 11.18034 
L 2.695646 11.18034 
L 2.695646 5.908855 
L -7.396852 5.908855 
L -7.396852 2.99037 
L 1.900131 -11.18034 
z
" id="mdaa6f61001" style="stroke:#808080;"/>
    </defs>
    <g clip-path="url(#p8470489c50)">
     <use style="fill:#808080;stroke:#808080;" x="276.118469" xlink:href="#mdaa6f61001" y="592.403116"/>
    </g>
   </g>
   <g id="PathCollection_6">
    <defs>
     <path d="M -5.008473 -11.18034 
L 6.639575 -11.18034 
L 6.639575 -8.679629 
L -2.291535 -8.679629 
L -2.291535 -3.306861 
Q -1.647555 -3.527789 -1.003575 -3.635902 
Q -0.354894 -3.744015 0.293787 -3.744015 
Q 3.964943 -3.744015 6.108409 -1.732165 
Q 8.256576 0.279685 8.256576 3.715812 
Q 8.256576 7.255352 6.052002 9.220196 
Q 3.847428 11.18034 -0.16217 11.18034 
Q -1.544142 11.18034 -2.97782 10.945311 
Q -4.406798 10.710281 -5.934488 10.240223 
L -5.934488 7.255352 
Q -4.613624 7.974541 -3.203448 8.327085 
Q -1.793273 8.679629 -0.223278 8.679629 
Q 2.319738 8.679629 3.800422 7.344663 
Q 5.285807 6.009697 5.285807 3.715812 
Q 5.285807 1.426627 3.800422 0.091661 
Q 2.319738 -1.248005 -0.223278 -1.248005 
Q -1.412526 -1.248005 -2.597073 -0.984772 
Q -3.77692 -0.72154 -5.008473 -0.16217 
L -5.008473 -11.18034 
z
" id="m1088ca5b8a" style="stroke:#808080;"/>
    </defs>
    <g clip-path="url(#p8470489c50)">
     <use style="fill:#808080;stroke:#808080;" x="405.280017" xlink:href="#m1088ca5b8a" y="538.485093"/>
    </g>
   </g>
   <g id="PathCollection_7">
    <defs>
     <path d="M 1.286397 -1.175541 
Q -0.676687 -1.175541 -1.826823 0.168594 
Q -2.97234 1.50811 -2.97234 3.845335 
Q -2.97234 6.168702 -1.826823 7.522075 
Q -0.676687 8.870829 1.286397 8.870829 
Q 3.249481 8.870829 4.394998 7.522075 
Q 5.540515 6.168702 5.540515 3.845335 
Q 5.540515 1.50811 4.394998 0.168594 
Q 3.249481 -1.175541 1.286397 -1.175541 
z
M 7.07403 -10.316583 
L 7.07403 -7.660646 
Q 5.974703 -8.177976 4.8569 -8.450499 
Q 3.739097 -8.72764 2.63977 -8.72764 
Q -0.247118 -8.72764 -1.771394 -6.778413 
Q -3.291052 -4.829186 -3.508146 -0.889162 
Q -2.658246 -2.145535 -1.374159 -2.815293 
Q -0.085452 -3.485051 1.457301 -3.485051 
Q 4.704473 -3.485051 6.589033 -1.512729 
Q 8.473594 0.454974 8.473594 3.845335 
Q 8.473594 7.166411 6.51051 9.175685 
Q 4.547426 11.18034 1.286397 11.18034 
Q -2.45501 11.18034 -4.43195 8.316547 
Q -6.408891 5.448135 -6.408891 0.006929 
Q -6.408891 -5.101708 -3.983905 -8.141024 
Q -1.55892 -11.18034 2.524295 -11.18034 
Q 3.623622 -11.18034 4.741425 -10.963246 
Q 5.859228 -10.746152 7.07403 -10.316583 
z
" id="m598296acda" style="stroke:#808080;"/>
    </defs>
    <g clip-path="url(#p8470489c50)">
     <use style="fill:#808080;stroke:#808080;" x="530.267725" xlink:href="#m598296acda" y="479.001683"/>
    </g>
   </g>
   <g id="PathCollection_8">
    <defs>
     <path d="M -5.93042 -11.18034 
L 8.446356 -11.18034 
L 8.446356 -9.891222 
L 0.32827 11.18034 
L -2.829829 11.18034 
L 4.809032 -8.630858 
L -5.93042 -8.630858 
L -5.93042 -11.18034 
z
" id="mfc0b456946" style="stroke:#808080;"/>
    </defs>
    <g clip-path="url(#p8470489c50)">
     <use style="fill:#808080;stroke:#808080;" x="530.267725" xlink:href="#mfc0b456946" y="479.001683"/>
    </g>
   </g>
   <g id="PathCollection_9">
    <defs>
     <path d="M 1.002328 0.524259 
Q -1.076232 0.524259 -2.267939 1.637443 
Q -3.455028 2.750627 -3.455028 4.695235 
Q -3.455028 6.644461 -2.267939 7.757645 
Q -1.076232 8.870829 1.002328 8.870829 
Q 3.080887 8.870829 4.277213 7.753026 
Q 5.478159 6.630604 5.478159 4.695235 
Q 5.478159 2.750627 4.286451 1.637443 
Q 3.099363 0.524259 1.002328 0.524259 
z
M -1.912275 -0.713639 
Q -3.787597 -1.175541 -4.836115 -2.459629 
Q -5.880014 -3.748335 -5.880014 -5.595944 
Q -5.880014 -8.177976 -4.041643 -9.679158 
Q -2.198654 -11.18034 1.002328 -11.18034 
Q 4.221785 -11.18034 6.055536 -9.679158 
Q 7.889288 -8.177976 7.889288 -5.595944 
Q 7.889288 -3.748335 6.84077 -2.459629 
Q 5.796871 -1.175541 3.935406 -0.713639 
Q 6.041679 -0.224023 7.214911 1.207874 
Q 8.392761 2.635151 8.392761 4.695235 
Q 8.392761 7.83155 6.480486 9.508254 
Q 4.568212 11.18034 1.002328 11.18034 
Q -2.558938 11.18034 -4.475831 9.508254 
Q -6.388106 7.83155 -6.388106 4.695235 
Q -6.388106 2.635151 -5.205636 1.207874 
Q -4.018548 -0.224023 -1.912275 -0.713639 
z
M -2.979268 -5.318802 
Q -2.979268 -3.646717 -1.93537 -2.709056 
Q -0.886852 -1.771394 1.002328 -1.771394 
Q 2.882269 -1.771394 3.940025 -2.709056 
Q 5.0024 -3.646717 5.0024 -5.318802 
Q 5.0024 -6.995507 3.940025 -7.933168 
Q 2.882269 -8.870829 1.002328 -8.870829 
Q -0.886852 -8.870829 -1.93537 -7.933168 
Q -2.979268 -6.995507 -2.979268 -5.318802 
z
" id="md949632789" style="stroke:#808080;"/>
    </defs>
    <g clip-path="url(#p8470489c50)">
     <use style="fill:#808080;stroke:#808080;" x="452.877752" xlink:href="#md949632789" y="287.682597"/>
    </g>
   </g>
   <g id="PathCollection_10"/>
   <g id="PathCollection_11"/>
   <g id="PathCollection_12"/>
   <g id="PathCollection_13"/>
   <g id="PathCollection_14"/>
   <g id="matplotlib.axis_1">
    <g id="xtick_1">
     <g id="line2d_1">
      <defs>
       <path d="M 0 0 
L 0 3.5 
" id="m307bde124a" style="stroke:#000000;stroke-width:0.8;"/>
      </defs>
      <g>
       <use style="stroke:#000000;stroke-width:0.8;" x="142.042594" xlink:href="#m307bde124a" y="630"/>
      </g>
     </g>
     <g id="text_1">
      <!-- −200 -->
      <g transform="translate(128.309 644.598438)scale(0.1 -0.1)">
       <defs>
        <path d="M 678 2272 
L 4684 2272 
L 4684 1741 
L 678 1741 
L 678 2272 
z
" id="DejaVuSans-2212" transform="scale(0.015625)"/>
        <path d="M 1228 531 
L 3431 531 
L 3431 0 
L 469 0 
L 469 531 
Q 828 903 1448 1529 
Q 2069 2156 2228 2338 
Q 2531 2678 2651 2914 
Q 2772 3150 2772 3378 
Q 2772 3750 2511 3984 
Q 2250 4219 1831 4219 
Q 1534 4219 1204 4116 
Q 875 4013 500 3803 
L 500 4441 
Q 881 4594 1212 4672 
Q 1544 4750 1819 4750 
Q 2544 4750 2975 4387 
Q 3406 4025 3406 3419 
Q 3406 3131 3298 2873 
Q 3191 2616 2906 2266 
Q 2828 2175 2409 1742 
Q 1991 1309 1228 531 
z
" id="DejaVuSans-32" transform="scale(0.015625)"/>
        <path d="M 2034 4250 
Q 1547 4250 1301 3770 
Q 1056 3291 1056 2328 
Q 1056 1369 1301 889 
Q 1547 409 2034 409 
Q 2525 409 2770 889 
Q 3016 1369 3016 2328 
Q 3016 3291 2770 3770 
Q 2525 4250 2034 4250 
z
M 2034 4750 
Q 2819 4750 3233 4129 
Q 3647 3509 3647 2328 
Q 3647 1150 3233 529 
Q 2819 -91 2034 -91 
Q 1250 -91 836 529 
Q 422 1150 422 2328 
Q 422 3509 836 4129 
Q 1250 4750 2034 4750 
z
" id="DejaVuSans-30" transform="scale(0.015625)"/>
       </defs>
       <use xlink:href="#DejaVuSans-2212"/>
       <use x="83.789062" xlink:href="#DejaVuSans-32"/>
       <use x="147.412109" xlink:href="#DejaVuSans-30"/>
       <use x="211.035156" xlink:href="#DejaVuSans-30"/>
      </g>
     </g>
    </g>
    <g id="xtick_2">
     <g id="line2d_2">
      <g>
       <use style="stroke:#000000;stroke-width:0.8;" x="223.661721" xlink:href="#m307bde124a" y="630"/>
      </g>
     </g>
     <g id="text_2">
      <!-- −100 -->
      <g transform="translate(209.928127 644.598438)scale(0.1 -0.1)">
       <defs>
        <path d="M 794 531 
L 1825 531 
L 1825 4091 
L 703 3866 
L 703 4441 
L 1819 4666 
L 2450 4666 
L 2450 531 
L 3481 531 
L 3481 0 
L 794 0 
L 794 531 
z
" id="DejaVuSans-31" transform="scale(0.015625)"/>
       </defs>
       <use xlink:href="#DejaVuSans-2212"/>
       <use x="83.789062" xlink:href="#DejaVuSans-31"/>
       <use x="147.412109" xlink:href="#DejaVuSans-30"/>
       <use x="211.035156" xlink:href="#DejaVuSans-30"/>
      </g>
     </g>
    </g>
    <g id="xtick_3">
     <g id="line2d_3">
      <g>
       <use style="stroke:#000000;stroke-width:0.8;" x="305.280849" xlink:href="#m307bde124a" y="630"/>
      </g>
     </g>
     <g id="text_3">
      <!-- 0 -->
      <g transform="translate(302.099599 644.598438)scale(0.1 -0.1)">
       <use xlink:href="#DejaVuSans-30"/>
      </g>
     </g>
    </g>
    <g id="xtick_4">
     <g id="line2d_4">
      <g>
       <use style="stroke:#000000;stroke-width:0.8;" x="386.899976" xlink:href="#m307bde124a" y="630"/>
      </g>
     </g>
     <g id="text_4">
      <!-- 100 -->
      <g transform="translate(377.356226 644.598438)scale(0.1 -0.1)">
       <use xlink:href="#DejaVuSans-31"/>
       <use x="63.623047" xlink:href="#DejaVuSans-30"/>
       <use x="127.246094" xlink:href="#DejaVuSans-30"/>
      </g>
     </g>
    </g>
    <g id="xtick_5">
     <g id="line2d_5">
      <g>
       <use style="stroke:#000000;stroke-width:0.8;" x="468.519104" xlink:href="#m307bde124a" y="630"/>
      </g>
     </g>
     <g id="text_5">
      <!-- 200 -->
      <g transform="translate(458.975354 644.598438)scale(0.1 -0.1)">
       <use xlink:href="#DejaVuSans-32"/>
       <use x="63.623047" xlink:href="#DejaVuSans-30"/>
       <use x="127.246094" xlink:href="#DejaVuSans-30"/>
      </g>
     </g>
    </g>
    <g id="xtick_6">
     <g id="line2d_6">
      <g>
       <use style="stroke:#000000;stroke-width:0.8;" x="550.138231" xlink:href="#m307bde124a" y="630"/>
      </g>
     </g>
     <g id="text_6">
      <!-- 300 -->
      <g transform="translate(540.594481 644.598438)scale(0.1 -0.1)">
       <defs>
        <path d="M 2597 2516 
Q 3050 2419 3304 2112 
Q 3559 1806 3559 1356 
Q 3559 666 3084 287 
Q 2609 -91 1734 -91 
Q 1441 -91 1130 -33 
Q 819 25 488 141 
L 488 750 
Q 750 597 1062 519 
Q 1375 441 1716 441 
Q 2309 441 2620 675 
Q 2931 909 2931 1356 
Q 2931 1769 2642 2001 
Q 2353 2234 1838 2234 
L 1294 2234 
L 1294 2753 
L 1863 2753 
Q 2328 2753 2575 2939 
Q 2822 3125 2822 3475 
Q 2822 3834 2567 4026 
Q 2313 4219 1838 4219 
Q 1578 4219 1281 4162 
Q 984 4106 628 3988 
L 628 4550 
Q 988 4650 1302 4700 
Q 1616 4750 1894 4750 
Q 2613 4750 3031 4423 
Q 3450 4097 3450 3541 
Q 3450 3153 3228 2886 
Q 3006 2619 2597 2516 
z
" id="DejaVuSans-33" transform="scale(0.015625)"/>
       </defs>
       <use xlink:href="#DejaVuSans-33"/>
       <use x="63.623047" xlink:href="#DejaVuSans-30"/>
       <use x="127.246094" xlink:href="#DejaVuSans-30"/>
      </g>
     </g>
    </g>
    <g id="xtick_7">
     <g id="line2d_7">
      <g>
       <use style="stroke:#000000;stroke-width:0.8;" x="631.757359" xlink:href="#m307bde124a" y="630"/>
      </g>
     </g>
     <g id="text_7">
      <!-- 400 -->
      <g transform="translate(622.213609 644.598438)scale(0.1 -0.1)">
       <defs>
        <path d="M 2419 4116 
L 825 1625 
L 2419 1625 
L 2419 4116 
z
M 2253 4666 
L 3047 4666 
L 3047 1625 
L 3713 1625 
L 3713 1100 
L 3047 1100 
L 3047 0 
L 2419 0 
L 2419 1100 
L 313 1100 
L 313 1709 
L 2253 4666 
z
" id="DejaVuSans-34" transform="scale(0.015625)"/>
       </defs>
       <use xlink:href="#DejaVuSans-34"/>
       <use x="63.623047" xlink:href="#DejaVuSans-30"/>
       <use x="127.246094" xlink:href="#DejaVuSans-30"/>
      </g>
     </g>
    </g>
   </g>
   <g id="matplotlib.axis_2">
    <g id="ytick_1">
     <g id="line2d_8">
      <defs>
       <path d="M 0 0 
L -3.5 0 
" id="ma573569ee8" style="stroke:#000000;stroke-width:0.8;"/>
      </defs>
      <g>
       <use style="stroke:#000000;stroke-width:0.8;" x="90" xlink:href="#ma573569ee8" y="579.300441"/>
      </g>
     </g>
     <g id="text_8">
      <!-- −200 -->
      <g transform="translate(55.532812 583.09966)scale(0.1 -0.1)">
       <use xlink:href="#DejaVuSans-2212"/>
       <use x="83.789062" xlink:href="#DejaVuSans-32"/>
       <use x="147.412109" xlink:href="#DejaVuSans-30"/>
       <use x="211.035156" xlink:href="#DejaVuSans-30"/>
      </g>
     </g>
    </g>
    <g id="ytick_2">
     <g id="line2d_9">
      <g>
       <use style="stroke:#000000;stroke-width:0.8;" x="90" xlink:href="#ma573569ee8" y="499.787614"/>
      </g>
     </g>
     <g id="text_9">
      <!-- −100 -->
      <g transform="translate(55.532812 503.586832)scale(0.1 -0.1)">
       <use xlink:href="#DejaVuSans-2212"/>
       <use x="83.789062" xlink:href="#DejaVuSans-31"/>
       <use x="147.412109" xlink:href="#DejaVuSans-30"/>
       <use x="211.035156" xlink:href="#DejaVuSans-30"/>
      </g>
     </g>
    </g>
    <g id="ytick_3">
     <g id="line2d_10">
      <g>
       <use style="stroke:#000000;stroke-width:0.8;" x="90" xlink:href="#ma573569ee8" y="420.274786"/>
      </g>
     </g>
     <g id="text_10">
      <!-- 0 -->
      <g transform="translate(76.6375 424.074005)scale(0.1 -0.1)">
       <use xlink:href="#DejaVuSans-30"/>
      </g>
     </g>
    </g>
    <g id="ytick_4">
     <g id="line2d_11">
      <g>
       <use style="stroke:#000000;stroke-width:0.8;" x="90" xlink:href="#ma573569ee8" y="340.761959"/>
      </g>
     </g>
     <g id="text_11">
      <!-- 100 -->
      <g transform="translate(63.9125 344.561177)scale(0.1 -0.1)">
       <use xlink:href="#DejaVuSans-31"/>
       <use x="63.623047" xlink:href="#DejaVuSans-30"/>
       <use x="127.246094" xlink:href="#DejaVuSans-30"/>
      </g>
     </g>
    </g>
    <g id="ytick_5">
     <g id="line2d_12">
      <g>
       <use style="stroke:#000000;stroke-width:0.8;" x="90" xlink:href="#ma573569ee8" y="261.249131"/>
      </g>
     </g>
     <g id="text_12">
      <!-- 200 -->
      <g transform="translate(63.9125 265.04835)scale(0.1 -0.1)">
       <use xlink:href="#DejaVuSans-32"/>
       <use x="63.623047" xlink:href="#DejaVuSans-30"/>
       <use x="127.246094" xlink:href="#DejaVuSans-30"/>
      </g>
     </g>
    </g>
    <g id="ytick_6">
     <g id="line2d_13">
      <g>
       <use style="stroke:#000000;stroke-width:0.8;" x="90" xlink:href="#ma573569ee8" y="181.736304"/>
      </g>
     </g>
     <g id="text_13">
      <!-- 300 -->
      <g transform="translate(63.9125 185.535522)scale(0.1 -0.1)">
       <use xlink:href="#DejaVuSans-33"/>
       <use x="63.623047" xlink:href="#DejaVuSans-30"/>
       <use x="127.246094" xlink:href="#DejaVuSans-30"/>
      </g>
     </g>
    </g>
    <g id="ytick_7">
     <g id="line2d_14">
      <g>
       <use style="stroke:#000000;stroke-width:0.8;" x="90" xlink:href="#ma573569ee8" y="102.223476"/>
      </g>
     </g>
     <g id="text_14">
      <!-- 400 -->
      <g transform="translate(63.9125 106.022695)scale(0.1 -0.1)">
       <use xlink:href="#DejaVuSans-34"/>
       <use x="63.623047" xlink:href="#DejaVuSans-30"/>
       <use x="127.246094" xlink:href="#DejaVuSans-30"/>
      </g>
     </g>
    </g>
   </g>
   <g id="line2d_15">
    <path clip-path="url(#p8470489c50)" d="M 452.877752 287.682597 
L 455.578528 284.658002 
L 458.16964 281.544053 
L 460.644822 278.342138 
L 462.997842 275.054188 
L 465.222578 271.682701 
L 467.313104 268.230757 
L 469.263781 264.702019 
L 471.069347 261.100717 
L 472.724999 257.43162 
L 474.226479 253.699991 
L 475.570132 249.911532 
L 476.752966 246.072314 
L 477.772687 242.188697 
L 478.627713 238.267248 
L 479.317179 234.314658 
L 479.840915 230.337654 
L 480.199412 226.342925 
L 480.393778 222.33705 
L 480.425673 218.326437 
L 480.297247 214.317275 
L 480.011069 210.315496 
L 479.570053 206.326749 
L 478.977393 202.356385 
L 478.236488 198.409455 
L 477.350887 194.490711 
L 476.324226 190.604619 
L 475.160182 186.755378 
L 473.862429 182.946937 
L 472.434598 179.183028 
L 470.880248 175.467188 
L 469.202841 171.802793 
L 467.405719 168.193088 
L 465.49209 164.641215 
L 463.465019 161.150253 
L 461.327411 157.723244 
L 459.082015 154.363232 
L 456.731415 151.073292 
L 454.27803 147.856571 
L 451.724117 144.716321 
L 449.071773 141.65594 
L 446.322941 138.679016 
" style="fill:none;stroke:#808080;stroke-linecap:square;stroke-width:1.5;"/>
   </g>
   <g id="line2d_16">
    <path clip-path="url(#p8470489c50)" d="M 446.322941 287.682597 
L 446.322941 138.679016 
L 480.425673 138.679016 
L 480.425673 287.682597 
L 446.322941 287.682597 
" style="fill:none;stroke:#d3d3d3;stroke-linecap:square;stroke-width:0.5;"/>
   </g>
   <g id="line2d_17">
    <path clip-path="url(#p8470489c50)" d="M 446.322941 138.679016 
L 443.479419 135.789372 
L 440.542871 132.991113 
L 437.514843 130.288691 
L 434.396783 127.68696 
L 431.190071 125.191249 
L 427.896055 122.807445 
L 424.516102 120.542081 
L 421.051666 118.402431 
L 417.504371 116.39663 
L 413.876132 114.533783 
L 410.169304 112.824096 
L 406.386877 111.278995 
L 402.532723 109.911235 
L 398.611909 108.73498 
L 394.631073 107.76582 
L 390.598869 107.020693 
L 386.526457 106.517655 
L 382.428013 106.275442 
L 378.32118 106.312759 
L 374.227355 106.64726 
L 370.17169 107.294212 
L 366.182641 108.264934 
L 362.290974 109.565198 
L 358.528212 111.193888 
L 354.924667 113.142233 
L 351.507364 115.393882 
L 348.298226 117.925891 
L 345.312879 120.710457 
L 342.560244 123.717059 
L 340.042894 126.914593 
L 337.757978 130.273168 
L 335.698447 133.76538 
L 333.854325 137.367044 
L 332.213861 141.057449 
L 330.764466 144.819287 
L 329.493407 148.638365 
L 328.388292 152.50322 
L 327.437371 156.404698 
L 326.629704 160.335563 
L 325.955232 164.29013 
" style="fill:none;stroke:#808080;stroke-linecap:square;stroke-width:1.5;"/>
   </g>
   <g id="line2d_18">
    <path clip-path="url(#p8470489c50)" d="M 325.955232 164.29013 
L 325.955232 106.275442 
L 446.322941 106.275442 
L 446.322941 164.29013 
L 325.955232 164.29013 
" style="fill:none;stroke:#d3d3d3;stroke-linecap:square;stroke-width:0.5;"/>
   </g>
   <g id="line2d_19">
    <path clip-path="url(#p8470489c50)" d="M 325.955232 164.29013 
L 325.325713 168.267455 
L 324.662896 172.240224 
L 323.96557 176.208012 
L 323.232444 180.170349 
L 322.46214 184.126715 
L 321.653191 188.076531 
L 320.80403 192.019155 
L 319.912979 195.953869 
L 318.978246 199.879872 
L 317.997907 203.796264 
L 316.969901 207.702037 
L 315.892014 211.596056 
L 314.761868 215.477041 
L 313.576905 219.343544 
L 312.334373 223.193929 
L 311.031307 227.026337 
L 309.664515 230.838655 
L 308.230557 234.628475 
L 306.72573 238.393051 
L 305.146044 242.129242 
L 303.487213 245.833452 
L 301.744635 249.501558 
L 299.913385 253.128825 
L 297.988215 256.709813 
L 295.963559 260.238269 
L 293.833569 263.70701 
L 291.592159 267.107788 
L 289.233098 270.431162 
L 286.750147 273.666363 
L 284.137253 276.801179 
L 281.388835 279.821895 
L 278.500155 282.713299 
L 275.467798 285.458832 
L 272.290249 288.040939 
L 268.968526 290.441705 
L 265.506805 292.643847 
L 261.912906 294.632136 
L 258.19849 296.395256 
L 254.378844 297.928104 
L 250.472176 299.234605 
L 246.498564 300.331464 
L 242.478988 301.254316 
L 238.435817 302.070889 
L 234.400527 302.916908 
L 230.468716 304.119575 
L 227.281466 306.570549 
" style="fill:none;stroke:#808080;stroke-linecap:square;stroke-width:1.5;"/>
   </g>
   <g id="line2d_20">
    <path clip-path="url(#p8470489c50)" d="M 227.281466 306.570549 
L 227.281466 164.29013 
L 325.955232 164.29013 
L 325.955232 306.570549 
L 227.281466 306.570549 
" style="fill:none;stroke:#d3d3d3;stroke-linecap:square;stroke-width:0.5;"/>
   </g>
   <g id="line2d_21">
    <path clip-path="url(#p8470489c50)" d="M 227.281466 306.570549 
L 227.00281 310.603522 
L 227.772099 314.633242 
L 228.769762 318.619856 
L 229.851383 322.591682 
L 230.962791 326.561381 
L 232.076853 330.535076 
L 233.177601 334.515937 
L 234.254576 338.505667 
L 235.300374 342.505181 
L 236.309422 346.514941 
L 237.277313 350.535129 
L 238.200418 354.565745 
L 239.075648 358.606654 
L 239.900297 362.657621 
L 240.671948 366.718323 
L 241.388404 370.788359 
L 242.047646 374.867253 
L 242.647804 378.95446 
L 243.187143 383.049361 
L 243.664048 387.15127 
L 244.077028 391.259432 
L 244.424714 395.373025 
L 244.705859 399.491163 
L 244.91935 403.612902 
L 245.064213 407.737242 
L 245.139622 411.863133 
L 245.144904 415.989485 
L 245.079551 420.115173 
L 244.943225 424.23905 
L 244.735763 428.359952 
L 244.45718 432.476714 
L 244.107674 436.588176 
L 243.687621 440.693196 
L 243.197577 444.79066 
L 242.638269 448.879493 
L 242.010593 452.958668 
L 241.315599 457.027213 
L 240.554486 461.08422 
L 239.728584 465.128849 
L 238.839347 469.160334 
" style="fill:none;stroke:#808080;stroke-linecap:square;stroke-width:1.5;"/>
   </g>
   <g id="line2d_22">
    <path clip-path="url(#p8470489c50)" d="M 227.00281 469.160334 
L 227.00281 306.570549 
L 245.144904 306.570549 
L 245.144904 469.160334 
L 227.00281 469.160334 
" style="fill:none;stroke:#d3d3d3;stroke-linecap:square;stroke-width:0.5;"/>
   </g>
   <g id="line2d_23">
    <path clip-path="url(#p8470489c50)" d="M 238.839347 469.160334 
L 237.956174 473.10154 
L 237.106456 477.049618 
L 236.288771 481.004057 
L 235.502045 484.964438 
L 234.745486 488.930417 
L 234.018556 492.901705 
L 233.320932 496.878063 
L 232.652493 500.859289 
L 232.013309 504.845214 
L 231.403632 508.835696 
L 230.823897 512.830614 
L 230.27473 516.829864 
L 229.756954 520.833357 
L 229.271605 524.84101 
L 228.819958 528.852745 
L 228.403552 532.86848 
L 228.024231 536.888123 
L 227.684193 540.91156 
L 227.386057 544.938639 
L 227.13294 548.969155 
L 226.928577 553.002821 
L 226.777456 557.039225 
L 226.685017 561.077779 
L 226.657912 565.117634 
L 226.704374 569.157555 
L 226.834724 573.195734 
L 227.062122 577.229485 
L 227.403673 581.254757 
L 227.882134 585.265298 
L 228.52863 589.25116 
L 229.387147 593.195857 
L 230.522188 597.07044 
L 232.031723 600.819894 
L 234.064871 604.328717 
L 236.814711 607.340606 
L 240.361511 609.392773 
L 244.405362 610.123646 
L 248.502433 609.692937 
L 252.445182 608.486201 
L 256.201601 606.791736 
L 259.792671 604.78023 
L 263.246766 602.55139 
L 266.588671 600.166048 
L 269.838163 597.663296 
L 273.010716 595.069485 
L 276.118469 592.403116 
" style="fill:none;stroke:#808080;stroke-linecap:square;stroke-width:1.5;"/>
   </g>
   <g id="line2d_24">
    <path clip-path="url(#p8470489c50)" d="M 226.657912 610.123646 
L 226.657912 469.160334 
L 276.118469 469.160334 
L 276.118469 610.123646 
L 226.657912 610.123646 
" style="fill:none;stroke:#d3d3d3;stroke-linecap:square;stroke-width:0.5;"/>
   </g>
   <g id="line2d_25">
    <path clip-path="url(#p8470489c50)" d="M 276.118469 592.403116 
L 279.267017 589.762096 
L 282.525215 587.250305 
L 285.880065 584.862083 
L 289.319385 582.590427 
L 292.832076 580.427509 
L 296.408248 578.365109 
L 300.039222 576.394955 
L 303.717473 574.508974 
L 307.436519 572.699451 
L 311.190803 570.959133 
L 314.975573 569.281273 
L 318.786758 567.65965 
L 322.620872 566.088558 
L 326.474914 564.56278 
L 330.346294 563.077561 
L 334.232767 561.62857 
L 338.13237 560.211862 
L 342.043384 558.823839 
L 345.964288 557.461221 
L 349.89373 556.121008 
L 353.830498 554.800451 
L 357.7735 553.497025 
L 361.721745 552.208405 
L 365.674328 550.932438 
L 369.630413 549.66713 
L 373.58923 548.410621 
L 377.550058 547.161171 
L 381.512226 545.917145 
L 385.475099 544.676998 
L 389.438078 543.43926 
L 393.400592 542.20253 
L 397.362098 540.965456 
L 401.322074 539.726735 
L 405.280017 538.485093 
" style="fill:none;stroke:#808080;stroke-linecap:square;stroke-width:1.5;"/>
   </g>
   <g id="line2d_26">
    <path clip-path="url(#p8470489c50)" d="M 276.118469 592.403116 
L 276.118469 538.485093 
L 405.280017 538.485093 
L 405.280017 592.403116 
L 276.118469 592.403116 
" style="fill:none;stroke:#d3d3d3;stroke-linecap:square;stroke-width:0.5;"/>
   </g>
   <g id="line2d_27">
    <path clip-path="url(#p8470489c50)" d="M 405.280017 538.485093 
L 409.235441 537.239281 
L 413.187876 535.988065 
L 417.136861 534.730215 
L 421.081943 533.464494 
L 425.022676 532.189653 
L 428.958616 530.904417 
L 432.889316 529.607473 
L 436.814324 528.297461 
L 440.733175 526.972963 
L 444.645382 525.632482 
L 448.550435 524.274432 
L 452.447783 522.897121 
L 456.336823 521.498723 
L 460.216885 520.077263 
L 464.087209 518.63058 
L 467.946918 517.156302 
L 471.79499 515.6518 
L 475.630206 514.114139 
L 479.4511 512.540024 
L 483.255884 510.925717 
L 487.042356 509.266947 
L 490.807763 507.558791 
L 494.548636 505.795512 
L 498.260546 503.970355 
L 501.937768 502.07527 
L 505.572793 500.100524 
L 509.155608 498.034172 
L 512.67258 495.861295 
L 516.104676 493.562897 
L 519.424466 491.114296 
L 522.590801 488.482842 
L 525.53882 485.625031 
L 528.160445 482.484748 
L 530.267725 479.001683 
" style="fill:none;stroke:#808080;stroke-linecap:square;stroke-width:1.5;"/>
   </g>
   <g id="line2d_28">
    <path clip-path="url(#p8470489c50)" d="M 405.280017 538.485093 
L 405.280017 479.001683 
L 530.267725 479.001683 
L 530.267725 538.485093 
L 405.280017 538.485093 
" style="fill:none;stroke:#d3d3d3;stroke-linecap:square;stroke-width:0.5;"/>
   </g>
   <g id="line2d_29">
    <path clip-path="url(#p8470489c50)" d="M 530.267725 479.001683 
" style="fill:none;stroke:#808080;stroke-linecap:square;stroke-width:1.5;"/>
   </g>
   <g id="line2d_30">
    <path clip-path="url(#p8470489c50)" d="M 530.267725 479.001683 
L 530.267725 479.001683 
L 530.267725 479.001683 
L 530.267725 479.001683 
L 530.267725 479.001683 
" style="fill:none;stroke:#d3d3d3;stroke-linecap:square;stroke-width:0.5;"/>
   </g>
   <g id="line2d_31">
    <path clip-path="url(#p8470489c50)" d="M 530.267725 479.001683 
L 531.899124 475.277008 
L 533.231334 471.444085 
L 534.183576 467.50892 
L 534.65966 463.496356 
L 534.561443 459.460719 
L 533.818692 455.489037 
L 532.424252 451.683597 
L 530.444239 448.126942 
L 527.989884 444.856753 
L 525.177335 441.868219 
L 522.103671 439.13191 
L 518.841585 436.609972 
L 515.443062 434.265132 
L 511.944892 432.064232 
L 508.373351 429.978959 
L 504.747565 427.985455 
L 501.081808 426.063582 
L 497.387045 424.196185 
L 493.671969 422.368438 
L 489.943723 420.567312 
L 486.208399 418.781132 
L 482.471412 416.999227 
L 478.737778 415.211639 
L 475.012346 413.408877 
L 471.299994 411.581712 
L 467.605812 409.720992 
L 463.935285 407.817477 
L 460.294495 405.86169 
L 456.690333 403.843777 
L 453.130763 401.753378 
L 449.625124 399.579518 
L 446.184501 397.310533 
L 442.822161 394.934038 
L 439.554071 392.43699 
L 436.399481 389.805893 
L 433.381536 387.027229 
L 430.527817 384.088212 
L 427.870632 380.978004 
L 425.446763 377.689458 
L 423.296245 374.221358 
L 421.459764 370.580829 
L 419.974535 366.785224 
L 418.869163 362.862448 
L 418.158849 358.848921 
L 417.842764 354.785192 
L 417.90473 350.710526 
L 418.316924 346.65829 
L 419.044969 342.653499 
L 420.052673 338.712612 
L 421.305362 334.844853 
L 422.771693 331.054088 
L 424.424282 327.340618 
L 426.239647 323.702572 
L 428.197813 320.136898 
L 430.281825 316.639987 
L 432.477258 313.208053 
L 434.771794 309.837352 
L 437.154867 306.524297 
L 439.617365 303.265505 
L 442.151395 300.057819 
L 444.750088 296.898308 
L 447.407446 293.784251 
L 450.118209 290.713128 
L 452.877752 287.682597 
" style="fill:none;stroke:#808080;stroke-linecap:square;stroke-width:1.5;"/>
   </g>
   <g id="line2d_32">
    <path clip-path="url(#p8470489c50)" d="M 417.842764 479.001683 
L 417.842764 287.682597 
L 534.65966 287.682597 
L 534.65966 479.001683 
L 417.842764 479.001683 
" style="fill:none;stroke:#d3d3d3;stroke-linecap:square;stroke-width:0.5;"/>
   </g>
   <g id="line2d_33">
    <path clip-path="url(#p8470489c50)" d="M 270.66013 586.49149 
L 270.66013 586.49149 
L 274.073827 583.627956 
L 277.587519 580.919098 
L 281.184957 578.358089 
L 284.851794 575.936075 
L 288.575737 573.643008 
L 292.346481 571.468336 
L 296.155523 569.401514 
L 299.995915 567.432356 
L 303.862015 565.551251 
L 307.749247 563.749278 
L 311.653898 562.018251 
L 315.572944 560.350717 
L 319.503907 558.739925 
L 323.444741 557.179776 
L 327.39374 555.664771 
L 331.349469 554.189953 
L 335.310701 552.750849 
L 339.276381 551.343421 
L 343.245584 549.964014 
L 347.217491 548.609315 
L 351.191365 547.276308 
L 355.166537 545.962247 
L 359.142389 544.664614 
L 363.118348 543.3811 
L 367.09387 542.109574 
L 371.068442 540.848064 
L 375.041568 539.594735 
L 379.012772 538.347871 
L 382.981589 537.105864 
L 386.947563 535.867191 
L 390.910247 534.630407 
L 394.869197 533.394132 
L 398.823973 532.157037 
L 402.774134 530.917836 
" style="fill:none;stroke:#000000;stroke-linecap:square;stroke-width:3;"/>
   </g>
   <g id="line2d_34">
    <path clip-path="url(#p8470489c50)" d="M 270.66013 586.49149 
L 270.66013 530.917836 
L 402.774134 530.917836 
L 402.774134 586.49149 
L 270.66013 586.49149 
" style="fill:none;stroke:#d3d3d3;stroke-linecap:square;stroke-width:0.5;"/>
   </g>
   <g id="line2d_35">
    <path clip-path="url(#p8470489c50)" d="M 402.774134 530.917836 
L 406.719237 529.675276 
L 410.658837 528.428124 
L 414.592478 527.175161 
L 418.519698 525.915172 
L 422.44002 524.646935 
L 426.352949 523.369213 
L 430.257967 522.080743 
L 434.154525 520.780228 
L 438.042037 519.466322 
L 441.91987 518.137621 
L 445.787329 516.792647 
L 449.643645 515.429838 
L 453.487952 514.047528 
L 457.319264 512.643929 
L 461.136448 511.217112 
L 464.938177 509.764985 
L 468.722887 508.28526 
L 472.488712 506.775426 
L 476.233396 505.232715 
L 479.954189 503.654053 
L 483.647701 502.036019 
L 487.309707 500.374787 
L 490.934881 498.666066 
L 494.516433 496.905038 
L 498.045589 495.086304 
L 501.510844 493.203853 
L 504.896854 491.25111 
L 508.182763 489.221156 
L 511.33959 487.107383 
L 514.32607 484.905146 
L 517.081995 482.615812 
L 519.518011 480.256643 
L 521.503538 477.884077 
L 522.871443 475.639398 
L 522.871443 475.639398 
" style="fill:none;stroke:#000000;stroke-linecap:square;stroke-width:3;"/>
   </g>
   <g id="line2d_36">
    <path clip-path="url(#p8470489c50)" d="M 402.774134 530.917836 
L 402.774134 475.639398 
L 522.871443 475.639398 
L 522.871443 530.917836 
L 402.774134 530.917836 
" style="fill:none;stroke:#d3d3d3;stroke-linecap:square;stroke-width:0.5;"/>
   </g>
   <g id="line2d_37">
    <path clip-path="url(#p8470489c50)" d="M 522.871443 475.639398 
" style="fill:none;stroke:#000000;stroke-linecap:square;stroke-width:3;"/>
   </g>
   <g id="line2d_38">
    <path clip-path="url(#p8470489c50)" d="M 522.871443 475.639398 
L 522.871443 475.639398 
L 522.871443 475.639398 
L 522.871443 475.639398 
L 522.871443 475.639398 
" style="fill:none;stroke:#d3d3d3;stroke-linecap:square;stroke-width:0.5;"/>
   </g>
   <g id="line2d_39">
    <path clip-path="url(#p8470489c50)" d="M 246.805949 470.889377 
L 246.805949 470.889377 
L 245.937524 474.764782 
L 245.101307 478.650135 
L 244.296107 482.544207 
L 243.521023 486.445982 
L 242.775406 490.354609 
L 242.058826 494.269357 
L 241.371049 498.189587 
L 240.712027 502.114726 
L 240.081887 506.044249 
L 239.480928 509.977665 
L 238.909622 513.914498 
L 238.368621 517.854276 
L 237.858765 521.796515 
L 237.3811 525.740705 
L 236.936898 529.686291 
L 236.527684 533.632648 
L 236.15527 537.57906 
L 235.821805 541.52468 
L 235.529828 545.468485 
L 235.282344 549.409213 
L 235.082916 553.345283 
L 234.93579 557.27467 
L 234.846046 561.194739 
L 234.819809 565.102002 
L 234.864512 568.991757 
L 234.98925 572.857534 
L 235.205243 576.690235 
L 235.526421 580.47675 
L 235.970132 584.19763 
L 236.557821 587.82307 
L 237.315082 591.305653 
L 238.268986 594.566945 
L 239.43552 597.473343 
L 240.776156 599.803645 
L 242.105147 601.285845 
L 243.217412 601.944131 
L 244.581557 602.174216 
L 246.721753 601.933193 
L 249.435276 601.095334 
L 252.411436 599.74976 
L 255.48031 598.029388 
L 258.565769 596.037751 
L 261.635502 593.846321 
L 264.67663 591.50385 
L 267.684944 589.044197 
L 270.66013 586.49149 
L 270.66013 586.49149 
" style="fill:none;stroke:#000000;stroke-linecap:square;stroke-width:3;"/>
   </g>
   <g id="line2d_40">
    <path clip-path="url(#p8470489c50)" d="M 234.819809 602.174216 
L 234.819809 470.889377 
L 270.66013 470.889377 
L 270.66013 602.174216 
L 234.819809 602.174216 
" style="fill:none;stroke:#d3d3d3;stroke-linecap:square;stroke-width:0.5;"/>
   </g>
   <g id="line2d_41">
    <path clip-path="url(#p8470489c50)" d="M 446.811903 282.362547 
L 446.811903 282.362547 
L 449.329244 279.543415 
L 451.739279 276.647116 
L 454.036818 273.675039 
L 456.216764 270.628968 
L 458.274172 267.511097 
L 460.204309 264.324028 
L 462.002718 261.070776 
L 463.665273 257.754748 
L 465.188235 254.379734 
L 466.568302 250.949872 
L 467.802648 247.469624 
L 468.888952 243.94373 
L 469.825422 240.377168 
L 470.610805 236.775107 
L 471.244385 233.142858 
L 471.725975 229.485823 
L 472.055891 225.809449 
L 472.23493 222.119178 
L 472.264331 218.420408 
L 472.14573 214.718452 
L 471.88112 211.018509 
L 471.472802 207.325636 
L 470.923333 203.644728 
L 470.235481 199.980508 
L 469.412182 196.337517 
L 468.456491 192.720115 
L 467.371547 189.132488 
L 466.160539 185.57865 
L 464.82667 182.062465 
L 463.373133 178.587657 
L 461.803092 175.157831 
L 460.119656 171.776493 
L 458.325874 168.447079 
L 456.424715 165.17297 
L 454.419069 161.957527 
L 452.311736 158.804116 
L 450.10543 155.716134 
L 447.802779 152.697042 
L 445.406328 149.750401 
L 442.918553 146.879898 
L 440.341865 144.089392 
" style="fill:none;stroke:#000000;stroke-linecap:square;stroke-width:3;"/>
   </g>
   <g id="line2d_42">
    <path clip-path="url(#p8470489c50)" d="M 440.341865 282.362547 
L 440.341865 144.089392 
L 472.264331 144.089392 
L 472.264331 282.362547 
L 440.341865 282.362547 
" style="fill:none;stroke:#d3d3d3;stroke-linecap:square;stroke-width:0.5;"/>
   </g>
   <g id="line2d_43">
    <path clip-path="url(#p8470489c50)" d="M 440.341865 144.089392 
L 437.678635 141.382949 
L 434.931205 138.764887 
L 432.101924 136.23982 
L 429.193177 133.812717 
L 426.207429 131.488949 
L 423.14728 129.274356 
L 420.015534 127.175309 
L 416.815281 125.198775 
L 413.550006 123.352387 
L 410.223712 121.644505 
L 406.841083 120.084274 
L 403.407657 118.681652 
L 399.930044 117.447419 
L 396.416143 116.393122 
L 392.875381 115.530965 
L 389.31891 114.873595 
L 385.759746 114.433778 
L 382.212777 114.223959 
L 378.694593 114.255715 
L 375.223077 114.539151 
L 371.816785 115.082308 
L 368.49417 115.890676 
L 365.272826 116.96685 
L 362.16892 118.310308 
L 359.196897 119.917248 
L 356.369418 121.780407 
L 353.69733 123.888919 
L 351.189526 126.228371 
L 348.852653 128.781217 
L 346.690811 131.527584 
L 344.705381 134.446358 
L 342.895111 137.516323 
L 341.256433 140.71714 
L 339.783935 144.030065 
L 338.470896 147.438357 
L 337.30978 150.927435 
L 336.292671 154.484839 
L 335.411593 158.100079 
L 334.658752 161.764413 
L 334.026692 165.470612 
L 334.026692 165.470612 
" style="fill:none;stroke:#000000;stroke-linecap:square;stroke-width:3;"/>
   </g>
   <g id="line2d_44">
    <path clip-path="url(#p8470489c50)" d="M 334.026692 165.470612 
L 334.026692 114.223959 
L 440.341865 114.223959 
L 440.341865 165.470612 
L 334.026692 165.470612 
" style="fill:none;stroke:#d3d3d3;stroke-linecap:square;stroke-width:0.5;"/>
   </g>
   <g id="line2d_45">
    <path clip-path="url(#p8470489c50)" d="M 522.871443 475.639398 
L 522.871443 475.639398 
L 524.28249 472.419497 
L 525.392556 469.228917 
L 526.149276 466.108364 
L 526.507645 463.104883 
L 526.440103 460.252552 
L 525.934772 457.546551 
L 524.97996 454.943774 
L 523.563796 452.404121 
L 521.698338 449.921929 
L 519.43069 447.514584 
L 516.828114 445.19898 
L 513.958716 442.981407 
L 510.881094 440.858434 
L 507.641907 438.820749 
L 504.277093 436.856344 
L 500.814075 434.952436 
L 497.273853 433.096443 
L 493.672689 431.276392 
L 490.023379 429.481026 
L 486.33619 427.699747 
L 482.619552 425.922508 
L 478.880573 424.139654 
L 475.125432 422.341763 
L 471.359689 420.519484 
L 467.58854 418.663364 
L 463.817047 416.763682 
L 460.05035 414.810266 
L 456.293887 412.792306 
L 452.553643 410.698156 
L 448.836435 408.515121 
L 445.150269 406.229236 
L 441.504794 403.825052 
" style="fill:none;stroke:#000000;stroke-linecap:square;stroke-width:3;"/>
   </g>
   <g id="line2d_46">
    <path clip-path="url(#p8470489c50)" d="M 441.504794 475.639398 
L 441.504794 403.825052 
L 526.507645 403.825052 
L 526.507645 475.639398 
L 441.504794 475.639398 
" style="fill:none;stroke:#d3d3d3;stroke-linecap:square;stroke-width:0.5;"/>
   </g>
   <g id="line2d_47">
    <path clip-path="url(#p8470489c50)" d="M 441.504794 403.825052 
L 437.911889 401.285455 
L 434.386427 398.591571 
L 430.947251 395.722867 
L 427.618373 392.657593 
L 424.430354 389.373853 
L 421.421624 385.851613 
L 418.639264 382.07601 
L 416.138338 378.042034 
L 413.978626 373.759955 
L 412.21793 369.259732 
L 410.902604 364.591679 
L 410.058205 359.821351 
L 409.68439 355.019319 
L 409.756537 350.249703 
L 410.232962 345.561996 
L 411.064044 340.988327 
L 412.199831 336.545235 
L 413.594703 332.237625 
L 415.209327 328.062913 
L 417.010866 324.014338 
L 418.972322 320.083235 
L 421.071588 316.260423 
L 423.290522 312.536965 
L 425.61414 308.904538 
L 428.029966 305.355578 
L 430.527527 301.883293 
L 433.097952 298.481623 
L 435.733674 295.145171 
L 438.428193 291.869124 
L 441.175888 288.649179 
L 443.971879 285.481478 
L 446.811903 282.362547 
L 446.811903 282.362547 
" style="fill:none;stroke:#000000;stroke-linecap:square;stroke-width:3;"/>
   </g>
   <g id="line2d_48">
    <path clip-path="url(#p8470489c50)" d="M 409.68439 403.825052 
L 409.68439 282.362547 
L 446.811903 282.362547 
L 446.811903 403.825052 
L 409.68439 403.825052 
" style="fill:none;stroke:#d3d3d3;stroke-linecap:square;stroke-width:0.5;"/>
   </g>
   <g id="line2d_49">
    <path clip-path="url(#p8470489c50)" d="M 446.811903 282.362547 
" style="fill:none;stroke:#000000;stroke-linecap:square;stroke-width:3;"/>
   </g>
   <g id="line2d_50">
    <path clip-path="url(#p8470489c50)" d="M 446.811903 282.362547 
L 446.811903 282.362547 
L 446.811903 282.362547 
L 446.811903 282.362547 
L 446.811903 282.362547 
" style="fill:none;stroke:#d3d3d3;stroke-linecap:square;stroke-width:0.5;"/>
   </g>
   <g id="line2d_51">
    <path clip-path="url(#p8470489c50)" d="M 235.251969 310.959472 
L 236.673148 316.63448 
L 237.729994 320.514955 
L 238.834965 324.461617 
L 239.953053 328.449686 
L 241.064188 332.468146 
L 242.155568 336.511268 
L 243.218334 340.575704 
L 244.245956 344.659304 
L 245.23336 348.760563 
L 246.176422 352.878342 
L 247.071673 357.011711 
L 247.9161 361.159856 
L 248.707026 365.322014 
L 249.44203 369.497439 
L 250.11889 373.685365 
L 250.735552 377.884994 
L 251.29011 382.095477 
L 251.780791 386.315901 
L 252.205954 390.545286 
L 252.564092 394.78258 
L 252.853832 399.026654 
L 253.073946 403.276309 
L 253.223361 407.530274 
L 253.301163 411.787213 
L 253.306613 416.045735 
L 253.239152 420.304402 
L 253.098414 424.561739 
L 252.884225 428.816252 
L 252.596614 433.066434 
L 252.235811 437.310789 
L 251.802249 441.547838 
L 251.296559 445.77614 
L 250.719563 449.994304 
L 250.072266 454.201 
L 249.355849 458.394977 
L 248.571648 462.575065 
L 247.721144 466.74019 
L 246.805949 470.889377 
L 246.805949 470.889377 
" style="fill:none;stroke:#000000;stroke-linecap:square;stroke-width:3;"/>
   </g>
   <g id="line2d_52">
    <path clip-path="url(#p8470489c50)" d="M 235.251969 470.889377 
L 235.251969 310.959472 
L 253.306613 310.959472 
L 253.306613 470.889377 
L 235.251969 470.889377 
" style="fill:none;stroke:#d3d3d3;stroke-linecap:square;stroke-width:0.5;"/>
   </g>
   <g id="line2d_53">
    <path clip-path="url(#p8470489c50)" d="M 334.026692 165.470612 
L 334.026692 165.470612 
L 333.387231 169.510742 
L 332.713563 173.548545 
L 332.004388 177.583739 
L 331.258321 181.616007 
L 330.473875 185.644994 
L 329.649462 189.670303 
L 328.783378 193.691487 
L 327.873791 197.708042 
L 326.918731 201.719398 
L 325.916079 205.724913 
L 324.863547 209.723852 
L 323.758662 213.715384 
L 322.598752 217.698559 
L 321.38092 221.672289 
L 320.102025 225.635329 
L 318.758654 229.586248 
L 317.347095 233.523398 
L 315.86331 237.444874 
L 314.302894 241.348472 
L 312.661051 245.231631 
L 310.932547 249.091372 
L 309.111681 252.924215 
L 307.192247 256.726091 
L 305.167504 260.492221 
L 303.030158 264.216988 
L 300.772363 267.893772 
L 298.385748 271.514759 
L 295.8615 275.070729 
L 293.190511 278.550807 
L 290.363637 281.942205 
L 287.372095 285.229979 
L 284.208062 288.396833 
L 280.865499 291.423065 
L 277.341237 294.286754 
L 273.636299 296.964344 
L 269.757349 299.431795 
L 265.718079 301.666426 
L 261.540314 303.649502 
L 257.254682 305.369462 
L 252.901167 306.825619 
L 248.53086 308.032314 
L 244.212836 309.024118 
L 240.058358 309.863474 
L 236.310332 310.647455 
L 235.251969 310.959472 
" style="fill:none;stroke:#000000;stroke-linecap:square;stroke-width:3;"/>
   </g>
   <g id="line2d_54">
    <path clip-path="url(#p8470489c50)" d="M 235.251969 310.959472 
L 235.251969 165.470612 
L 334.026692 165.470612 
L 334.026692 310.959472 
L 235.251969 310.959472 
" style="fill:none;stroke:#d3d3d3;stroke-linecap:square;stroke-width:0.5;"/>
   </g>
   <g id="line2d_55">
    <path clip-path="url(#p8470489c50)" d="M 234.272293 310.67434 
L 235.09798 309.588742 
L 235.735591 312.890657 
L 235.251969 310.959472 
" style="fill:none;stroke:#000000;stroke-linecap:square;stroke-width:3;"/>
   </g>
   <g id="line2d_56">
    <path clip-path="url(#p8470489c50)" d="M 234.272293 312.890657 
L 234.272293 309.588742 
L 235.735591 309.588742 
L 235.735591 312.890657 
L 234.272293 312.890657 
" style="fill:none;stroke:#d3d3d3;stroke-linecap:square;stroke-width:0.5;"/>
   </g>
   <g id="line2d_57">
    <path clip-path="url(#p8470489c50)" d="M 235.251969 310.959472 
L 233.732779 311.407345 
L 234.272293 310.67434 
" style="fill:none;stroke:#000000;stroke-linecap:square;stroke-width:3;"/>
   </g>
   <g id="line2d_58">
    <path clip-path="url(#p8470489c50)" d="M 233.732779 311.407345 
L 233.732779 310.67434 
L 235.251969 310.67434 
L 235.251969 311.407345 
L 233.732779 311.407345 
" style="fill:none;stroke:#d3d3d3;stroke-linecap:square;stroke-width:0.5;"/>
   </g>
   <g id="line2d_59">
    <path clip-path="url(#p8470489c50)" d="M 234.272293 310.67434 
L 234.272293 310.67434 
L 234.272293 310.67434 
" style="fill:none;stroke:#000000;stroke-linecap:square;stroke-width:3;"/>
   </g>
   <g id="line2d_60">
    <path clip-path="url(#p8470489c50)" d="M 234.272293 310.67434 
L 234.272293 310.67434 
L 234.272293 310.67434 
L 234.272293 310.67434 
L 234.272293 310.67434 
" style="fill:none;stroke:#d3d3d3;stroke-linecap:square;stroke-width:0.5;"/>
   </g>
   <g id="line2d_61">
    <path clip-path="url(#p8470489c50)" d="M 234.272293 310.67434 
L 234.272293 310.67434 
L 234.272293 310.67434 
" style="fill:none;stroke:#000000;stroke-linecap:square;stroke-width:3;"/>
   </g>
   <g id="line2d_62">
    <path clip-path="url(#p8470489c50)" d="M 234.272293 310.67434 
L 234.272293 310.67434 
L 234.272293 310.67434 
L 234.272293 310.67434 
L 234.272293 310.67434 
" style="fill:none;stroke:#d3d3d3;stroke-linecap:square;stroke-width:0.5;"/>
   </g>
   <g id="line2d_63">
    <path clip-path="url(#p8470489c50)" d="M 220.290639 302.466758 
L 220.290639 302.466758 
L 220.290639 302.466758 
" style="fill:none;stroke:#000000;stroke-linecap:square;stroke-width:3;"/>
   </g>
   <g id="line2d_64">
    <path clip-path="url(#p8470489c50)" d="M 220.290639 302.466758 
L 220.290639 302.466758 
L 220.290639 302.466758 
L 220.290639 302.466758 
L 220.290639 302.466758 
" style="fill:none;stroke:#d3d3d3;stroke-linecap:square;stroke-width:0.5;"/>
   </g>
   <g id="line2d_65">
    <path clip-path="url(#p8470489c50)" d="M 220.290639 302.466758 
L 220.290639 302.466758 
L 220.290639 302.466758 
" style="fill:none;stroke:#000000;stroke-linecap:square;stroke-width:3;"/>
   </g>
   <g id="line2d_66">
    <path clip-path="url(#p8470489c50)" d="M 220.290639 302.466758 
L 220.290639 302.466758 
L 220.290639 302.466758 
L 220.290639 302.466758 
L 220.290639 302.466758 
" style="fill:none;stroke:#d3d3d3;stroke-linecap:square;stroke-width:0.5;"/>
   </g>
   <g id="line2d_67">
    <path clip-path="url(#p8470489c50)" d="M 537.664007 482.363967 
L 537.664007 482.363967 
L 539.515758 478.13452 
L 541.070112 473.659253 
L 542.217875 468.909477 
L 542.811674 463.887828 
L 542.682783 458.668887 
L 541.702613 453.431522 
L 539.868545 448.423421 
L 537.324682 443.849764 
L 534.281429 439.791577 
L 530.923979 436.221854 
L 527.379227 433.064841 
L 523.724455 430.238538 
L 520.005029 427.67183 
L 516.247877 425.307714 
L 512.469608 423.101574 
L 508.681055 421.018474 
L 504.889763 419.030721 
L 501.101401 417.115977 
L 497.32056 415.255851 
L 493.551257 413.434876 
L 489.797247 411.639755 
L 486.06225 409.858801 
L 482.350123 408.081515 
L 478.665003 406.298271 
L 475.011447 404.50006 
L 471.394576 402.678301 
L 467.820221 400.824687 
L 464.295103 398.931075 
L 460.827022 396.989398 
L 457.42509 394.991634 
L 454.099979 392.9298 
L 450.864208 390.796014 
" style="fill:none;stroke:#000000;stroke-linecap:square;stroke-width:3;"/>
   </g>
   <g id="line2d_68">
    <path clip-path="url(#p8470489c50)" d="M 450.864208 482.363967 
L 450.864208 390.796014 
L 542.811674 390.796014 
L 542.811674 482.363967 
L 450.864208 482.363967 
" style="fill:none;stroke:#d3d3d3;stroke-linecap:square;stroke-width:0.5;"/>
   </g>
   <g id="line2d_69">
    <path clip-path="url(#p8470489c50)" d="M 450.864208 390.796014 
L 447.732433 388.582621 
L 444.721714 386.282408 
L 441.851712 383.88892 
L 439.1447 381.396865 
L 436.62528 378.802571 
L 434.31964 376.104395 
L 432.254262 373.302906 
L 430.454152 370.400682 
L 428.940901 367.401703 
L 427.73114 364.310715 
L 426.835722 361.133218 
L 426.259494 357.87649 
L 426.001137 354.551065 
L 426.052924 351.171349 
L 426.400886 347.754585 
L 427.025895 344.318671 
L 427.905515 340.879989 
L 429.016022 337.45208 
L 430.33406 334.045264 
L 431.837698 330.666898 
L 433.506971 327.321909 
L 435.324038 324.013374 
L 437.273127 320.743008 
L 439.340375 317.511567 
L 441.513622 314.319127 
L 443.782208 311.165302 
L 446.136779 308.049387 
L 448.569116 304.970468 
L 451.071984 301.927492 
L 453.639004 298.919324 
L 456.264539 295.944778 
L 458.943602 293.002648 
L 458.943602 293.002648 
" style="fill:none;stroke:#000000;stroke-linecap:square;stroke-width:3;"/>
   </g>
   <g id="line2d_70">
    <path clip-path="url(#p8470489c50)" d="M 426.001137 390.796014 
L 426.001137 293.002648 
L 458.943602 293.002648 
L 458.943602 390.796014 
L 426.001137 390.796014 
" style="fill:none;stroke:#d3d3d3;stroke-linecap:square;stroke-width:0.5;"/>
   </g>
   <g id="line2d_71">
    <path clip-path="url(#p8470489c50)" d="M 458.943602 293.002648 
" style="fill:none;stroke:#000000;stroke-linecap:square;stroke-width:3;"/>
   </g>
   <g id="line2d_72">
    <path clip-path="url(#p8470489c50)" d="M 458.943602 293.002648 
L 458.943602 293.002648 
L 458.943602 293.002648 
L 458.943602 293.002648 
L 458.943602 293.002648 
" style="fill:none;stroke:#d3d3d3;stroke-linecap:square;stroke-width:0.5;"/>
   </g>
   <g id="line2d_73">
    <path clip-path="url(#p8470489c50)" d="M 220.290639 302.466758 
L 218.907641 311.618301 
L 219.808606 316.375827 
L 220.866377 320.605232 
L 221.972772 324.668409 
L 223.090616 328.661145 
L 224.200654 332.620465 
L 225.291014 336.563727 
L 226.353585 340.500066 
L 227.382414 344.434658 
L 228.372887 348.370578 
L 229.321266 352.309696 
L 230.224414 356.253148 
L 231.079623 360.201597 
L 231.884494 364.155386 
L 232.63687 368.114632 
L 233.334779 372.079279 
L 233.976403 376.049142 
L 234.560057 380.023926 
L 235.084175 384.003246 
L 235.547305 387.98664 
L 235.948102 391.973578 
L 236.285335 395.96347 
L 236.557885 399.955672 
L 236.764753 403.949495 
L 236.905066 407.94421 
L 236.978081 411.939052 
L 236.983195 415.933234 
L 236.91995 419.925944 
L 236.788037 423.91636 
L 236.587301 427.903653 
L 236.317747 431.886994 
L 235.979536 435.865563 
L 235.572992 439.838553 
L 235.098594 443.805179 
L 234.556976 447.764682 
L 233.94892 451.716336 
L 233.275349 455.65945 
L 232.537323 459.593375 
L 231.736024 463.517508 
L 230.872745 467.431291 
" style="fill:none;stroke:#000000;stroke-linecap:square;stroke-width:3;"/>
   </g>
   <g id="line2d_74">
    <path clip-path="url(#p8470489c50)" d="M 218.907641 467.431291 
L 218.907641 302.466758 
L 236.983195 302.466758 
L 236.983195 467.431291 
L 218.907641 467.431291 
" style="fill:none;stroke:#d3d3d3;stroke-linecap:square;stroke-width:0.5;"/>
   </g>
   <g id="line2d_75">
    <path clip-path="url(#p8470489c50)" d="M 230.872745 467.431291 
L 229.974825 471.438298 
L 229.111604 475.4491 
L 228.281436 479.463907 
L 227.483066 483.482895 
L 226.715567 487.506225 
L 225.978286 491.534053 
L 225.270814 495.566539 
L 224.592959 499.603852 
L 223.94473 503.646179 
L 223.326335 507.693727 
L 222.738172 511.746729 
L 222.18084 515.805452 
L 221.655142 519.870198 
L 221.16211 523.941314 
L 220.703017 528.019199 
L 220.27942 532.104312 
L 219.893192 536.197186 
L 219.546582 540.298439 
L 219.242285 544.408793 
L 218.983537 548.529098 
L 218.774238 552.660359 
L 218.619122 556.80378 
L 218.523987 560.960819 
L 218.496015 565.133265 
L 218.544236 569.323353 
L 218.680198 573.533934 
L 218.919001 577.768735 
L 219.280925 582.032765 
L 219.794136 586.332965 
L 220.49944 590.679251 
L 221.459212 595.08606 
L 222.775389 599.573935 
L 224.627926 604.166445 
L 227.353587 608.853789 
L 231.524276 613.395367 
L 237.50561 616.841414 
L 244.229168 618.073076 
L 250.283113 617.45268 
L 255.455088 615.877069 
L 259.991765 613.833711 
L 264.105032 611.531072 
L 267.927763 609.06503 
L 271.54184 606.485774 
L 274.999697 603.822742 
L 278.336489 601.094773 
L 281.576808 598.314742 
L 281.576808 598.314742 
" style="fill:none;stroke:#000000;stroke-linecap:square;stroke-width:3;"/>
   </g>
   <g id="line2d_76">
    <path clip-path="url(#p8470489c50)" d="M 218.496015 618.073076 
L 218.496015 467.431291 
L 281.576808 467.431291 
L 281.576808 618.073076 
L 218.496015 618.073076 
" style="fill:none;stroke:#d3d3d3;stroke-linecap:square;stroke-width:0.5;"/>
   </g>
   <g id="line2d_77">
    <path clip-path="url(#p8470489c50)" d="M 281.576808 598.314742 
L 281.576808 598.314742 
L 284.460207 595.896237 
L 287.46291 593.581513 
L 290.575173 591.366076 
L 293.786976 589.244779 
L 297.088415 587.21201 
L 300.470014 585.261881 
L 303.922922 583.388396 
L 307.439031 581.585592 
L 311.011023 579.847652 
L 314.63236 578.168988 
L 318.297248 576.544296 
L 322.000572 574.968584 
L 325.737836 573.43719 
L 329.505086 571.945783 
L 333.298848 570.490351 
L 337.116065 569.067188 
L 340.95404 567.672874 
L 344.810388 566.304257 
L 348.682992 564.958428 
L 352.569968 563.632701 
L 356.46963 562.324594 
L 360.380463 561.031804 
L 364.301102 559.752195 
L 368.230308 558.483776 
L 372.166956 557.224685 
L 376.110017 555.973177 
L 380.058548 554.727607 
L 384.01168 553.486419 
L 387.96861 552.248132 
L 391.928593 551.01133 
L 395.890938 549.774652 
L 399.854999 548.536781 
L 403.820174 547.296433 
L 407.785899 546.052349 
" style="fill:none;stroke:#000000;stroke-linecap:square;stroke-width:3;"/>
   </g>
   <g id="line2d_78">
    <path clip-path="url(#p8470489c50)" d="M 281.576808 598.314742 
L 281.576808 546.052349 
L 407.785899 546.052349 
L 407.785899 598.314742 
L 281.576808 598.314742 
" style="fill:none;stroke:#d3d3d3;stroke-linecap:square;stroke-width:0.5;"/>
   </g>
   <g id="line2d_79">
    <path clip-path="url(#p8470489c50)" d="M 407.785899 546.052349 
L 411.751645 544.803286 
L 415.716916 543.548007 
L 419.681243 542.285269 
L 423.644187 541.013817 
L 427.605332 539.732372 
L 431.564283 538.439621 
L 435.520666 537.134202 
L 439.474124 535.814694 
L 443.424312 534.479603 
L 447.370895 533.127342 
L 451.313541 531.756218 
L 455.251921 530.364404 
L 459.185695 528.949919 
L 463.114506 527.510597 
L 467.037969 526.044048 
L 470.95566 524.547619 
L 474.867093 523.018339 
L 478.7717 521.452852 
L 482.668803 519.847333 
L 486.55758 518.19738 
L 490.43701 516.497875 
L 494.305819 514.742794 
L 498.162391 512.924958 
L 502.004658 511.035673 
L 505.829946 509.064236 
L 509.634742 506.997194 
L 513.414362 504.817235 
L 517.162396 502.501435 
L 520.869762 500.01841 
L 524.522863 497.323446 
L 528.099608 494.349871 
L 531.559629 490.993419 
L 534.817352 487.085418 
L 537.664007 482.363967 
L 537.664007 482.363967 
" style="fill:none;stroke:#000000;stroke-linecap:square;stroke-width:3;"/>
   </g>
   <g id="line2d_80">
    <path clip-path="url(#p8470489c50)" d="M 407.785899 546.052349 
L 407.785899 482.363967 
L 537.664007 482.363967 
L 537.664007 546.052349 
L 407.785899 546.052349 
" style="fill:none;stroke:#d3d3d3;stroke-linecap:square;stroke-width:0.5;"/>
   </g>
   <g id="line2d_81">
    <path clip-path="url(#p8470489c50)" d="M 537.664007 482.363967 
" style="fill:none;stroke:#000000;stroke-linecap:square;stroke-width:3;"/>
   </g>
   <g id="line2d_82">
    <path clip-path="url(#p8470489c50)" d="M 537.664007 482.363967 
L 537.664007 482.363967 
L 537.664007 482.363967 
L 537.664007 482.363967 
L 537.664007 482.363967 
" style="fill:none;stroke:#d3d3d3;stroke-linecap:square;stroke-width:0.5;"/>
   </g>
   <g id="line2d_83">
    <path clip-path="url(#p8470489c50)" d="M 317.883771 163.109648 
L 317.883771 163.109648 
L 317.264194 167.024168 
L 316.61223 170.931903 
L 315.926752 174.832285 
L 315.206567 178.724691 
L 314.450405 182.608436 
L 313.65692 186.48276 
L 312.824682 190.346824 
L 311.952168 194.199697 
L 311.037761 198.040345 
L 310.079735 201.867615 
L 309.076255 205.680222 
L 308.025366 209.476728 
L 306.924984 213.255523 
L 305.77289 217.0148 
L 304.56672 220.75253 
L 303.30396 224.466426 
L 301.981934 228.153911 
L 300.597805 231.812076 
L 299.148565 235.43763 
L 297.631038 239.026853 
L 296.041879 242.575533 
L 294.377588 246.078901 
L 292.634523 249.531558 
L 290.808925 252.927404 
L 288.896961 256.25955 
L 286.894775 259.520248 
L 284.79857 262.700817 
L 282.604697 265.791596 
L 280.309782 268.781918 
L 277.910869 271.660154 
L 275.405575 274.413812 
L 272.792248 277.029766 
L 270.070098 279.494599 
L 267.239261 281.795125 
L 264.300753 283.919065 
L 261.256262 285.855899 
L 258.107732 287.597847 
L 254.856666 289.141011 
L 251.503006 290.486746 
L 248.043185 291.643591 
L 244.466267 292.630614 
L 240.745141 293.484513 
L 236.813276 294.278303 
L 232.490721 295.186361 
L 227.204653 296.831806 
L 220.290639 302.466758 
" style="fill:none;stroke:#000000;stroke-linecap:square;stroke-width:3;"/>
   </g>
   <g id="line2d_84">
    <path clip-path="url(#p8470489c50)" d="M 220.290639 302.466758 
L 220.290639 163.109648 
L 317.883771 163.109648 
L 317.883771 302.466758 
L 220.290639 302.466758 
" style="fill:none;stroke:#d3d3d3;stroke-linecap:square;stroke-width:0.5;"/>
   </g>
   <g id="line2d_85">
    <path clip-path="url(#p8470489c50)" d="M 458.943602 293.002648 
L 458.943602 293.002648 
L 461.827813 289.772589 
L 464.600001 286.44099 
L 467.252826 283.009237 
L 469.778921 279.479407 
L 472.170985 275.854305 
L 474.421899 272.137486 
L 476.524845 268.333263 
L 478.473421 264.446686 
L 480.261764 260.483506 
L 481.884655 256.450109 
L 483.337616 252.35344 
L 484.616981 248.200898 
L 485.719952 244.000226 
L 486.644621 239.759389 
L 487.389972 235.486457 
L 487.955855 231.189484 
L 488.342934 226.876401 
L 488.552627 222.554922 
L 488.587016 218.232466 
L 488.448765 213.916098 
L 488.141017 209.612483 
L 487.667305 205.327861 
L 487.031453 201.068042 
L 486.237495 196.838402 
L 485.289592 192.643906 
L 484.191961 188.489124 
L 482.948817 184.378268 
L 481.564319 180.315224 
L 480.042526 176.30359 
L 478.387363 172.346719 
L 476.60259 168.447756 
L 474.691781 164.609682 
L 472.658307 160.835351 
L 470.505322 157.127535 
L 468.235753 153.488961 
L 465.852295 149.922348 
L 463.3574 146.430451 
L 460.753281 143.016099 
L 458.041906 139.682241 
L 455.224993 136.431982 
L 452.304017 133.26864 
" style="fill:none;stroke:#000000;stroke-linecap:square;stroke-width:3;"/>
   </g>
   <g id="line2d_86">
    <path clip-path="url(#p8470489c50)" d="M 452.304017 293.002648 
L 452.304017 133.26864 
L 488.587016 133.26864 
L 488.587016 293.002648 
L 452.304017 293.002648 
" style="fill:none;stroke:#d3d3d3;stroke-linecap:square;stroke-width:0.5;"/>
   </g>
   <g id="line2d_87">
    <path clip-path="url(#p8470489c50)" d="M 452.304017 133.26864 
L 449.280204 130.195794 
L 446.154538 127.21734 
L 442.927762 124.337563 
L 439.600389 121.561203 
L 436.172712 118.893549 
L 432.644829 116.340535 
L 429.01667 113.908852 
L 425.28805 111.606088 
L 421.458736 109.440873 
L 417.528552 107.423061 
L 413.497526 105.563919 
L 409.366097 103.876337 
L 405.135402 102.375051 
L 400.807675 101.076837 
L 396.386766 100.000675 
L 391.878828 99.167791 
L 387.293168 98.601533 
L 382.64325 98.326924 
L 377.947767 98.369802 
L 373.231633 98.755369 
L 368.526595 99.506116 
L 363.871112 100.639191 
L 359.309122 102.163546 
L 354.887504 104.077468 
L 350.652437 106.367218 
L 346.64531 109.007358 
L 342.899122 111.962864 
L 339.436232 115.192543 
L 336.267835 118.652901 
L 333.394977 122.301602 
L 330.810576 126.099977 
L 328.501784 130.014438 
L 326.452218 134.016948 
L 324.643788 138.084833 
L 323.058036 142.200217 
L 321.677033 146.349295 
L 320.483913 150.5216 
L 319.46315 154.709317 
L 318.600656 158.906712 
L 317.883771 163.109648 
L 317.883771 163.109648 
" style="fill:none;stroke:#000000;stroke-linecap:square;stroke-width:3;"/>
   </g>
   <g id="line2d_88">
    <path clip-path="url(#p8470489c50)" d="M 317.883771 163.109648 
L 317.883771 98.326924 
L 452.304017 98.326924 
L 452.304017 163.109648 
L 317.883771 163.109648 
" style="fill:none;stroke:#d3d3d3;stroke-linecap:square;stroke-width:0.5;"/>
   </g>
   <g id="line2d_89">
    <path clip-path="url(#p8470489c50)" d="M 230.872745 467.431291 
L 230.872745 467.431291 
L 230.872745 467.431291 
" style="fill:none;stroke:#000000;stroke-linecap:square;stroke-width:3;"/>
   </g>
   <g id="line2d_90">
    <path clip-path="url(#p8470489c50)" d="M 230.872745 467.431291 
L 230.872745 467.431291 
L 230.872745 467.431291 
L 230.872745 467.431291 
L 230.872745 467.431291 
" style="fill:none;stroke:#d3d3d3;stroke-linecap:square;stroke-width:0.5;"/>
   </g>
   <g id="line2d_91">
    <path clip-path="url(#p8470489c50)" d="M 230.872745 467.431291 
L 230.872745 467.431291 
L 230.872745 467.431291 
" style="fill:none;stroke:#000000;stroke-linecap:square;stroke-width:3;"/>
   </g>
   <g id="line2d_92">
    <path clip-path="url(#p8470489c50)" d="M 230.872745 467.431291 
L 230.872745 467.431291 
L 230.872745 467.431291 
L 230.872745 467.431291 
L 230.872745 467.431291 
" style="fill:none;stroke:#d3d3d3;stroke-linecap:square;stroke-width:0.5;"/>
   </g>
   <g id="line2d_93">
    <path clip-path="url(#p8470489c50)" d="M 446.322941 126.752092 
L 447.888524 126.850012 
L 449.428401 127.142164 
L 450.917286 127.623751 
L 452.330732 128.286864 
L 453.64553 129.120617 
L 454.840092 130.111318 
L 455.894802 131.242701 
L 456.792342 132.496188 
L 457.517975 133.851196 
L 458.059786 135.285477 
L 458.408878 136.775481 
L 458.55952 138.29674 
L 458.509237 139.824276 
L 458.258856 141.333007 
L 457.812487 142.798159 
L 457.17746 144.195675 
L 456.364203 145.502608 
L 455.386068 146.697498 
L 454.259116 147.760725 
L 453.001853 148.67483 
L 451.634923 149.424804 
L 450.18077 149.998332 
L 448.663271 150.385998 
L 447.107344 150.581435 
L 445.538538 150.581435 
L 443.982611 150.385998 
L 442.465112 149.998332 
L 441.010959 149.424804 
L 439.644029 148.67483 
L 438.386766 147.760725 
L 437.259814 146.697498 
L 436.28168 145.502608 
L 435.468422 144.195675 
L 434.833395 142.798159 
L 434.387026 141.333007 
L 434.136645 139.824276 
L 434.086362 138.29674 
L 434.237004 136.775481 
L 434.586096 135.285477 
L 435.127907 133.851196 
L 435.85354 132.496188 
L 436.751081 131.242701 
L 437.805791 130.111318 
L 439.000352 129.120617 
L 440.31515 128.286864 
L 441.728596 127.623751 
L 443.217481 127.142164 
L 444.757358 126.850012 
L 446.322941 126.752092 
" style="fill:none;stroke:#808080;stroke-linecap:square;stroke-width:1.5;"/>
   </g>
   <g id="line2d_94">
    <path clip-path="url(#p8470489c50)" d="M 325.955232 152.363206 
L 327.520815 152.461126 
L 329.060692 152.753277 
L 330.549577 153.234864 
L 331.963023 153.897978 
L 333.277821 154.73173 
L 334.472382 155.722432 
L 335.527092 156.853814 
L 336.424633 158.107301 
L 337.150266 159.46231 
L 337.692077 160.896591 
L 338.041169 162.386594 
L 338.191811 163.907853 
L 338.141528 165.435389 
L 337.891147 166.94412 
L 337.444778 168.409273 
L 336.809751 169.806789 
L 335.996493 171.113722 
L 335.018358 172.308612 
L 333.891407 173.371838 
L 332.634144 174.285943 
L 331.267214 175.035917 
L 329.813061 175.609446 
L 328.295562 175.997111 
L 326.739635 176.192549 
L 325.170829 176.192549 
L 323.614902 175.997111 
L 322.097403 175.609446 
L 320.64325 175.035917 
L 319.276319 174.285943 
L 318.019056 173.371838 
L 316.892105 172.308612 
L 315.91397 171.113722 
L 315.100713 169.806789 
L 314.465686 168.409273 
L 314.019317 166.94412 
L 313.768936 165.435389 
L 313.718653 163.907853 
L 313.869294 162.386594 
L 314.218387 160.896591 
L 314.760198 159.46231 
L 315.485831 158.107301 
L 316.383371 156.853814 
L 317.438081 155.722432 
L 318.632643 154.73173 
L 319.947441 153.897978 
L 321.360887 153.234864 
L 322.849772 152.753277 
L 324.389648 152.461126 
L 325.955232 152.363206 
" style="fill:none;stroke:#808080;stroke-linecap:square;stroke-width:1.5;"/>
   </g>
   <g id="line2d_95">
    <path clip-path="url(#p8470489c50)" d="M 227.281466 294.643625 
L 228.847049 294.741545 
L 230.386926 295.033697 
L 231.875811 295.515283 
L 233.289257 296.178397 
L 234.604055 297.01215 
L 235.798617 298.002851 
L 236.853327 299.134233 
L 237.750867 300.38772 
L 238.4765 301.742729 
L 239.018311 303.17701 
L 239.367403 304.667013 
L 239.518045 306.188272 
L 239.467762 307.715808 
L 239.217381 309.224539 
L 238.771012 310.689692 
L 238.135985 312.087208 
L 237.322728 313.394141 
L 236.344593 314.589031 
L 235.217641 315.652257 
L 233.960378 316.566362 
L 232.593448 317.316336 
L 231.139295 317.889865 
L 229.621796 318.277531 
L 228.065869 318.472968 
L 226.497063 318.472968 
L 224.941136 318.277531 
L 223.423637 317.889865 
L 221.969484 317.316336 
L 220.602554 316.566362 
L 219.345291 315.652257 
L 218.218339 314.589031 
L 217.240204 313.394141 
L 216.426947 312.087208 
L 215.79192 310.689692 
L 215.345551 309.224539 
L 215.09517 307.715808 
L 215.044887 306.188272 
L 215.195529 304.667013 
L 215.544621 303.17701 
L 216.086432 301.742729 
L 216.812065 300.38772 
L 217.709606 299.134233 
L 218.764316 298.002851 
L 219.958877 297.01215 
L 221.273675 296.178397 
L 222.687121 295.515283 
L 224.176006 295.033697 
L 225.715883 294.741545 
L 227.281466 294.643625 
" style="fill:none;stroke:#808080;stroke-linecap:square;stroke-width:1.5;"/>
   </g>
   <g id="line2d_96">
    <path clip-path="url(#p8470489c50)" d="M 238.839347 457.23341 
L 240.40493 457.33133 
L 241.944807 457.623482 
L 243.433692 458.105068 
L 244.847138 458.768182 
L 246.161936 459.601935 
L 247.356497 460.592636 
L 248.411207 461.724018 
L 249.308748 462.977505 
L 250.034381 464.332514 
L 250.576192 465.766795 
L 250.925284 467.256798 
L 251.075926 468.778057 
L 251.025643 470.305593 
L 250.775262 471.814324 
L 250.328893 473.279477 
L 249.693866 474.676993 
L 248.880608 475.983926 
L 247.902474 477.178816 
L 246.775522 478.242042 
L 245.518259 479.156147 
L 244.151329 479.906121 
L 242.697176 480.47965 
L 241.179677 480.867316 
L 239.62375 481.062753 
L 238.054944 481.062753 
L 236.499017 480.867316 
L 234.981518 480.47965 
L 233.527365 479.906121 
L 232.160434 479.156147 
L 230.903171 478.242042 
L 229.77622 477.178816 
L 228.798085 475.983926 
L 227.984828 474.676993 
L 227.349801 473.279477 
L 226.903432 471.814324 
L 226.653051 470.305593 
L 226.602768 468.778057 
L 226.753409 467.256798 
L 227.102502 465.766795 
L 227.644313 464.332514 
L 228.369946 462.977505 
L 229.267486 461.724018 
L 230.322196 460.592636 
L 231.516758 459.601935 
L 232.831556 458.768182 
L 234.245002 458.105068 
L 235.733887 457.623482 
L 237.273764 457.33133 
L 238.839347 457.23341 
" style="fill:none;stroke:#808080;stroke-linecap:square;stroke-width:1.5;"/>
   </g>
   <g id="line2d_97">
    <path clip-path="url(#p8470489c50)" d="M 276.118469 580.476191 
L 277.684052 580.574111 
L 279.223929 580.866263 
L 280.712814 581.34785 
L 282.12626 582.010963 
L 283.441058 582.844716 
L 284.635619 583.835417 
L 285.69033 584.9668 
L 286.58787 586.220287 
L 287.313503 587.575295 
L 287.855314 589.009577 
L 288.204406 590.49958 
L 288.355048 592.020839 
L 288.304765 593.548375 
L 288.054384 595.057106 
L 287.608015 596.522258 
L 286.972988 597.919775 
L 286.159731 599.226708 
L 285.181596 600.421597 
L 284.054644 601.484824 
L 282.797381 602.398929 
L 281.430451 603.148903 
L 279.976298 603.722431 
L 278.458799 604.110097 
L 276.902872 604.305535 
L 275.334066 604.305535 
L 273.778139 604.110097 
L 272.26064 603.722431 
L 270.806487 603.148903 
L 269.439557 602.398929 
L 268.182294 601.484824 
L 267.055342 600.421597 
L 266.077207 599.226708 
L 265.26395 597.919775 
L 264.628923 596.522258 
L 264.182554 595.057106 
L 263.932173 593.548375 
L 263.88189 592.020839 
L 264.032532 590.49958 
L 264.381624 589.009577 
L 264.923435 587.575295 
L 265.649068 586.220287 
L 266.546608 584.9668 
L 267.601319 583.835417 
L 268.79588 582.844716 
L 270.110678 582.010963 
L 271.524124 581.34785 
L 273.013009 580.866263 
L 274.552886 580.574111 
L 276.118469 580.476191 
" style="fill:none;stroke:#808080;stroke-linecap:square;stroke-width:1.5;"/>
   </g>
   <g id="line2d_98">
    <path clip-path="url(#p8470489c50)" d="M 405.280017 526.558169 
L 406.8456 526.656089 
L 408.385476 526.94824 
L 409.874361 527.429827 
L 411.287807 528.092941 
L 412.602606 528.926693 
L 413.797167 529.917395 
L 414.851877 531.048777 
L 415.749418 532.302264 
L 416.475051 533.657273 
L 417.016862 535.091554 
L 417.365954 536.581557 
L 417.516596 538.102816 
L 417.466313 539.630352 
L 417.215931 541.139083 
L 416.769563 542.604236 
L 416.134536 544.001752 
L 415.321278 545.308685 
L 414.343143 546.503575 
L 413.216192 547.566801 
L 411.958929 548.480906 
L 410.591998 549.23088 
L 409.137845 549.804409 
L 407.620347 550.192074 
L 406.06442 550.387512 
L 404.495613 550.387512 
L 402.939686 550.192074 
L 401.422188 549.804409 
L 399.968035 549.23088 
L 398.601104 548.480906 
L 397.343841 547.566801 
L 396.21689 546.503575 
L 395.238755 545.308685 
L 394.425497 544.001752 
L 393.79047 542.604236 
L 393.344102 541.139083 
L 393.09372 539.630352 
L 393.043438 538.102816 
L 393.194079 536.581557 
L 393.543172 535.091554 
L 394.084982 533.657273 
L 394.810616 532.302264 
L 395.708156 531.048777 
L 396.762866 529.917395 
L 397.957428 528.926693 
L 399.272226 528.092941 
L 400.685672 527.429827 
L 402.174557 526.94824 
L 403.714433 526.656089 
L 405.280017 526.558169 
" style="fill:none;stroke:#808080;stroke-linecap:square;stroke-width:1.5;"/>
   </g>
   <g id="line2d_99">
    <path clip-path="url(#p8470489c50)" d="M 530.267725 467.074759 
L 531.833308 467.172678 
L 533.373185 467.46483 
L 534.86207 467.946417 
L 536.275516 468.609531 
L 537.590314 469.443283 
L 538.784876 470.433985 
L 539.839586 471.565367 
L 540.737126 472.818854 
L 541.462759 474.173863 
L 542.00457 475.608144 
L 542.353662 477.098147 
L 542.504304 478.619406 
L 542.454021 480.146942 
L 542.20364 481.655673 
L 541.757271 483.120826 
L 541.122244 484.518342 
L 540.308987 485.825275 
L 539.330852 487.020164 
L 538.203901 488.083391 
L 536.946638 488.997496 
L 535.579707 489.74747 
L 534.125554 490.320999 
L 532.608055 490.708664 
L 531.052128 490.904102 
L 529.483322 490.904102 
L 527.927395 490.708664 
L 526.409896 490.320999 
L 524.955743 489.74747 
L 523.588813 488.997496 
L 522.33155 488.083391 
L 521.204598 487.020164 
L 520.226464 485.825275 
L 519.413206 484.518342 
L 518.778179 483.120826 
L 518.33181 481.655673 
L 518.081429 480.146942 
L 518.031146 478.619406 
L 518.181788 477.098147 
L 518.53088 475.608144 
L 519.072691 474.173863 
L 519.798324 472.818854 
L 520.695865 471.565367 
L 521.750575 470.433985 
L 522.945136 469.443283 
L 524.259934 468.609531 
L 525.67338 467.946417 
L 527.162265 467.46483 
L 528.702142 467.172678 
L 530.267725 467.074759 
" style="fill:none;stroke:#808080;stroke-linecap:square;stroke-width:1.5;"/>
   </g>
   <g id="line2d_100">
    <path clip-path="url(#p8470489c50)" d="M 530.267725 467.074759 
L 531.833308 467.172678 
L 533.373185 467.46483 
L 534.86207 467.946417 
L 536.275516 468.609531 
L 537.590314 469.443283 
L 538.784876 470.433985 
L 539.839586 471.565367 
L 540.737126 472.818854 
L 541.462759 474.173863 
L 542.00457 475.608144 
L 542.353662 477.098147 
L 542.504304 478.619406 
L 542.454021 480.146942 
L 542.20364 481.655673 
L 541.757271 483.120826 
L 541.122244 484.518342 
L 540.308987 485.825275 
L 539.330852 487.020164 
L 538.203901 488.083391 
L 536.946638 488.997496 
L 535.579707 489.74747 
L 534.125554 490.320999 
L 532.608055 490.708664 
L 531.052128 490.904102 
L 529.483322 490.904102 
L 527.927395 490.708664 
L 526.409896 490.320999 
L 524.955743 489.74747 
L 523.588813 488.997496 
L 522.33155 488.083391 
L 521.204598 487.020164 
L 520.226464 485.825275 
L 519.413206 484.518342 
L 518.778179 483.120826 
L 518.33181 481.655673 
L 518.081429 480.146942 
L 518.031146 478.619406 
L 518.181788 477.098147 
L 518.53088 475.608144 
L 519.072691 474.173863 
L 519.798324 472.818854 
L 520.695865 471.565367 
L 521.750575 470.433985 
L 522.945136 469.443283 
L 524.259934 468.609531 
L 525.67338 467.946417 
L 527.162265 467.46483 
L 528.702142 467.172678 
L 530.267725 467.074759 
" style="fill:none;stroke:#808080;stroke-linecap:square;stroke-width:1.5;"/>
   </g>
   <g id="line2d_101">
    <path clip-path="url(#p8470489c50)" d="M 452.877752 275.755673 
L 454.443336 275.853593 
L 455.983212 276.145745 
L 457.472097 276.627332 
L 458.885543 277.290445 
L 460.200341 278.124198 
L 461.394903 279.114899 
L 462.449613 280.246282 
L 463.347153 281.499769 
L 464.072787 282.854777 
L 464.614598 284.289058 
L 464.96369 285.779062 
L 465.114331 287.300321 
L 465.064049 288.827857 
L 464.813667 290.336588 
L 464.367299 291.80174 
L 463.732272 293.199257 
L 462.919014 294.506189 
L 461.940879 295.701079 
L 460.813928 296.764306 
L 459.556665 297.678411 
L 458.189734 298.428385 
L 456.735581 299.001913 
L 455.218083 299.389579 
L 453.662156 299.585016 
L 452.093349 299.585016 
L 450.537422 299.389579 
L 449.019924 299.001913 
L 447.565771 298.428385 
L 446.19884 297.678411 
L 444.941577 296.764306 
L 443.814626 295.701079 
L 442.836491 294.506189 
L 442.023233 293.199257 
L 441.388206 291.80174 
L 440.941838 290.336588 
L 440.691456 288.827857 
L 440.641174 287.300321 
L 440.791815 285.779062 
L 441.140907 284.289058 
L 441.682718 282.854777 
L 442.408352 281.499769 
L 443.305892 280.246282 
L 444.360602 279.114899 
L 445.555164 278.124198 
L 446.869962 277.290445 
L 448.283408 276.627332 
L 449.772293 276.145745 
L 451.312169 275.853593 
L 452.877752 275.755673 
" style="fill:none;stroke:#808080;stroke-linecap:square;stroke-width:1.5;"/>
   </g>
   <g id="line2d_102"/>
   <g id="line2d_103"/>
   <g id="line2d_104"/>
   <g id="line2d_105"/>
   <g id="line2d_106"/>
   <g id="line2d_107"/>
   <g id="line2d_108"/>
   <g id="line2d_109"/>
   <g id="line2d_110"/>
   <g id="line2d_111"/>
   <g id="line2d_112"/>
   <g id="line2d_113"/>
   <g id="line2d_114"/>
   <g id="line2d_115"/>
   <g id="line2d_116"/>
   <g id="line2d_117"/>
   <g id="line2d_118"/>
   <g id="line2d_119"/>
   <g id="line2d_120"/>
   <g id="line2d_121"/>
   <g id="line2d_122"/>
   <g id="line2d_123"/>
   <g id="line2d_124"/>
   <g id="line2d_125"/>
   <g id="line2d_126"/>
   <g id="line2d_127"/>
   <g id="line2d_128"/>
   <g id="line2d_129"/>
   <g id="line2d_130"/>
   <g id="line2d_131"/>
   <g id="line2d_132"/>
   <g id="line2d_133"/>
   <g id="line2d_134"/>
   <g id="line2d_135"/>
   <g id="line2d_136"/>
   <g id="line2d_137"/>
   <g id="line2d_138"/>
   <g id="line2d_139"/>
   <g id="line2d_140"/>
   <g id="line2d_141"/>
   <g id="line2d_142"/>
   <g id="line2d_143"/>
   <g id="line2d_144"/>
   <g id="line2d_145"/>
   <g id="line2d_146"/>
   <g id="line2d_147"/>
   <g id="line2d_148"/>
   <g id="line2d_149"/>
   <g id="line2d_150"/>
   <g id="line2d_151"/>
   <g id="line2d_152"/>
   <g id="patch_3">
    <path d="M 90 630 
L 90 86.4 
" style="fill:none;stroke:#000000;stroke-linecap:square;stroke-linejoin:miter;stroke-width:0.8;"/>
   </g>
   <g id="patch_4">
    <path d="M 648 630 
L 648 86.4 
" style="fill:none;stroke:#000000;stroke-linecap:square;stroke-linejoin:miter;stroke-width:0.8;"/>
   </g>
   <g id="patch_5">
    <path d="M 90 630 
L 648 630 
" style="fill:none;stroke:#000000;stroke-linecap:square;stroke-linejoin:miter;stroke-width:0.8;"/>
   </g>
   <g id="patch_6">
    <path d="M 90 86.4 
L 648 86.4 
" style="fill:none;stroke:#000000;stroke-linecap:square;stroke-linejoin:miter;stroke-width:0.8;"/>
   </g>
   <g id="text_15">
    <!-- 0 -->
    <g transform="translate(60.423466 499.787614)scale(0.1 -0.1)">
     <use xlink:href="#DejaVuSans-30"/>
    </g>
   </g>
   <g id="text_16">
    <!-- 0 -->
    <g transform="translate(60.423466 487.860689)scale(0.1 -0.1)">
     <use xlink:href="#DejaVuSans-30"/>
    </g>
   </g>
   <g id="text_17">
    <!-- 0 -->
    <g transform="translate(60.423466 475.933765)scale(0.1 -0.1)">
     <use xlink:href="#DejaVuSans-30"/>
    </g>
   </g>
  </g>
 </g>
 <defs>
  <clipPath id="p8470489c50">
   <rect height="543.6" width="558" x="90" y="86.4"/>
  </clipPath>
 </defs>
</svg>
