<?xml version="1.0" encoding="utf-8" standalone="no"?>
<!DOCTYPE svg PUBLIC "-//W3C//DTD SVG 1.1//EN"
  "http://www.w3.org/Graphics/SVG/1.1/DTD/svg11.dtd">
<svg height="720pt" version="1.1" viewBox="0 0 720 720" width="720pt" xmlns="http://www.w3.org/2000/svg" xmlns:xlink="http://www.w3.org/1999/xlink">
 <metadata>
  <rdf:RDF xmlns:cc="http://creativecommons.org/ns#" xmlns:dc="http://purl.org/dc/elements/1.1/" xmlns:rdf="http://www.w3.org/1999/02/22-rdf-syntax-ns#">
   <cc:Work>
    <dc:type rdf:resource="http://purl.org/dc/dcmitype/StillImage"/>
    <dc:date>2022-01-11T13:26:05.652538</dc:date>
    <dc:format>image/svg+xml</dc:format>
    <dc:creator>
     <cc:Agent>
      <dc:title>Matplotlib v3.4.3, https://matplotlib.org/</dc:title>
     </cc:Agent>
    </dc:creator>
   </cc:Work>
  </rdf:RDF>
 </metadata>
 <defs>
  <style type="text/css">*{stroke-linecap:butt;stroke-linejoin:round;}</style>
 </defs>
 <g id="figure_1">
  <g id="patch_1">
   <path d="M 0 720 
L 720 720 
L 720 0 
L 0 0 
z
" style="fill:none;"/>
  </g>
  <g id="axes_1">
   <g id="patch_2">
    <path d="M 90 630 
L 648 630 
L 648 86.4 
L 90 86.4 
z
" style="fill:#ffffff;"/>
   </g>
   <g id="PathCollection_1">
    <defs>
     <path d="M 0.972304 -8.870829 
Q -1.277159 -8.870829 -2.413438 -6.653699 
Q -3.545098 -4.441189 -3.545098 0.006929 
Q -3.545098 4.436569 -2.413438 6.653699 
Q -1.277159 8.870829 0.972304 8.870829 
Q 3.240243 8.870829 4.371903 6.653699 
Q 5.508182 4.436569 5.508182 0.006929 
Q 5.508182 -4.441189 4.371903 -6.653699 
Q 3.240243 -8.870829 0.972304 -8.870829 
z
M 0.972304 -11.18034 
Q 4.598235 -11.18034 6.51051 -8.311928 
Q 8.422784 -5.448135 8.422784 0.006929 
Q 8.422784 5.448135 6.51051 8.316547 
Q 4.598235 11.18034 0.972304 11.18034 
Q -2.649008 11.18034 -4.561283 8.316547 
Q -6.473558 5.448135 -6.473558 0.006929 
Q -6.473558 -5.448135 -4.561283 -8.311928 
Q -2.649008 -11.18034 0.972304 -11.18034 
z
" id="m0cd65451b0" style="stroke:#808080;"/>
    </defs>
    <g clip-path="url(#pb35e619a1d)">
     <use style="fill:#808080;stroke:#808080;" x="371.95356" xlink:href="#m0cd65451b0" y="219.521526"/>
    </g>
   </g>
   <g id="PathCollection_2">
    <defs>
     <path d="M -4.535873 8.63565 
L 0.404946 8.63565 
L 0.404946 -8.424791 
L -4.971969 -7.346533 
L -4.971969 -10.102082 
L 0.376192 -11.18034 
L 3.400108 -11.18034 
L 3.400108 8.63565 
L 8.340927 8.63565 
L 8.340927 11.18034 
L -4.535873 11.18034 
L -4.535873 8.63565 
z
" id="m5a76b140d2" style="stroke:#808080;"/>
    </defs>
    <g clip-path="url(#pb35e619a1d)">
     <use style="fill:#808080;stroke:#808080;" x="176.085321" xlink:href="#m5a76b140d2" y="232.79189"/>
    </g>
   </g>
   <g id="PathCollection_3">
    <defs>
     <path d="M -2.294912 8.680651 
L 8.075736 8.680651 
L 8.075736 11.18034 
L -5.867913 11.18034 
L -5.867913 8.680651 
Q -4.177916 6.929457 -1.259259 3.982555 
Q 1.664105 1.030945 2.4126 0.174178 
Q 3.838976 -1.426376 4.403877 -2.537349 
Q 4.973486 -3.648321 4.973486 -4.721634 
Q 4.973486 -6.472828 3.744825 -7.574386 
Q 2.516165 -8.680651 0.543718 -8.680651 
Q -0.854413 -8.680651 -2.407892 -8.195778 
Q -3.956663 -7.710904 -5.72198 -6.722326 
L -5.72198 -9.725719 
Q -3.928418 -10.445968 -2.370232 -10.813154 
Q -0.807338 -11.18034 0.487227 -11.18034 
Q 3.900173 -11.18034 5.929111 -9.471513 
Q 7.958048 -7.767394 7.958048 -4.914642 
Q 7.958048 -3.558879 7.449637 -2.344341 
Q 6.945933 -1.13451 5.604292 0.513119 
Q 5.237107 0.941502 3.264659 2.979855 
Q 1.296919 5.018207 -2.294912 8.680651 
z
" id="m94d72a7b90" style="stroke:#808080;"/>
    </defs>
    <g clip-path="url(#pb35e619a1d)">
     <use style="fill:#808080;stroke:#808080;" x="164.524929" xlink:href="#m94d72a7b90" y="393.643109"/>
    </g>
   </g>
   <g id="PathCollection_4">
    <defs>
     <path d="M 3.77605 -0.861447 
Q 5.868466 -0.413402 7.041697 1.004637 
Q 8.219548 2.418057 8.219548 4.496617 
Q 8.219548 7.683741 6.025513 9.43435 
Q 3.831478 11.18034 -0.210165 11.18034 
Q -1.563539 11.18034 -3.000054 10.912437 
Q -4.436569 10.644533 -5.965465 10.108727 
L -5.965465 7.295743 
Q -4.755282 8.002454 -3.314147 8.362737 
Q -1.868394 8.723021 -0.293308 8.723021 
Q 2.445772 8.723021 3.882287 7.64217 
Q 5.318802 6.561319 5.318802 4.496617 
Q 5.318802 2.588961 3.983905 1.517348 
Q 2.649008 0.441116 0.270213 0.441116 
L -2.242535 0.441116 
L -2.242535 -1.956155 
L 0.385688 -1.956155 
Q 2.533533 -1.956155 3.674431 -2.815293 
Q 4.815329 -3.674431 4.815329 -5.291088 
Q 4.815329 -6.949317 3.637479 -7.836169 
Q 2.464248 -8.72764 0.270213 -8.72764 
Q -0.930733 -8.72764 -2.302582 -8.464356 
Q -3.674431 -8.20569 -5.318802 -7.660646 
L -5.318802 -10.256536 
Q -3.655955 -10.718438 -2.205582 -10.949389 
Q -0.75521 -11.18034 0.528878 -11.18034 
Q 3.849954 -11.18034 5.780705 -9.66992 
Q 7.716074 -8.164119 7.716074 -5.595944 
Q 7.716074 -3.803764 6.690652 -2.570485 
Q 5.665229 -1.337207 3.77605 -0.861447 
z
" id="mb4a3d9b3cc" style="stroke:#808080;"/>
    </defs>
    <g clip-path="url(#pb35e619a1d)">
     <use style="fill:#808080;stroke:#808080;" x="168.107263" xlink:href="#mb4a3d9b3cc" y="400.140955"/>
    </g>
   </g>
   <g id="PathCollection_5">
    <defs>
     <path d="M 2.695646 -8.544598 
L -4.943215 3.392919 
L 2.695646 3.392919 
L 2.695646 -8.544598 
z
M 1.900131 -11.18034 
L 5.705184 -11.18034 
L 5.705184 3.392919 
L 8.896829 3.392919 
L 8.896829 5.908855 
L 5.705184 5.908855 
L 5.705184 11.18034 
L 2.695646 11.18034 
L 2.695646 5.908855 
L -7.396852 5.908855 
L -7.396852 2.99037 
L 1.900131 -11.18034 
z
" id="m88f53b78f4" style="stroke:#808080;"/>
    </defs>
    <g clip-path="url(#pb35e619a1d)">
     <use style="fill:#808080;stroke:#808080;" x="347.179164" xlink:href="#m88f53b78f4" y="466.564005"/>
    </g>
   </g>
   <g id="PathCollection_6">
    <defs>
     <path d="M -5.008473 -11.18034 
L 6.639575 -11.18034 
L 6.639575 -8.679629 
L -2.291535 -8.679629 
L -2.291535 -3.306861 
Q -1.647555 -3.527789 -1.003575 -3.635902 
Q -0.354894 -3.744015 0.293787 -3.744015 
Q 3.964943 -3.744015 6.108409 -1.732165 
Q 8.256576 0.279685 8.256576 3.715812 
Q 8.256576 7.255352 6.052002 9.220196 
Q 3.847428 11.18034 -0.16217 11.18034 
Q -1.544142 11.18034 -2.97782 10.945311 
Q -4.406798 10.710281 -5.934488 10.240223 
L -5.934488 7.255352 
Q -4.613624 7.974541 -3.203448 8.327085 
Q -1.793273 8.679629 -0.223278 8.679629 
Q 2.319738 8.679629 3.800422 7.344663 
Q 5.285807 6.009697 5.285807 3.715812 
Q 5.285807 1.426627 3.800422 0.091661 
Q 2.319738 -1.248005 -0.223278 -1.248005 
Q -1.412526 -1.248005 -2.597073 -0.984772 
Q -3.77692 -0.72154 -5.008473 -0.16217 
L -5.008473 -11.18034 
z
" id="m4a93ee208c" style="stroke:#808080;"/>
    </defs>
    <g clip-path="url(#pb35e619a1d)">
     <use style="fill:#808080;stroke:#808080;" x="524.707441" xlink:href="#m4a93ee208c" y="358.505778"/>
    </g>
   </g>
   <g id="PathCollection_7">
    <defs>
     <path d="M 1.286397 -1.175541 
Q -0.676687 -1.175541 -1.826823 0.168594 
Q -2.97234 1.50811 -2.97234 3.845335 
Q -2.97234 6.168702 -1.826823 7.522075 
Q -0.676687 8.870829 1.286397 8.870829 
Q 3.249481 8.870829 4.394998 7.522075 
Q 5.540515 6.168702 5.540515 3.845335 
Q 5.540515 1.50811 4.394998 0.168594 
Q 3.249481 -1.175541 1.286397 -1.175541 
z
M 7.07403 -10.316583 
L 7.07403 -7.660646 
Q 5.974703 -8.177976 4.8569 -8.450499 
Q 3.739097 -8.72764 2.63977 -8.72764 
Q -0.247118 -8.72764 -1.771394 -6.778413 
Q -3.291052 -4.829186 -3.508146 -0.889162 
Q -2.658246 -2.145535 -1.374159 -2.815293 
Q -0.085452 -3.485051 1.457301 -3.485051 
Q 4.704473 -3.485051 6.589033 -1.512729 
Q 8.473594 0.454974 8.473594 3.845335 
Q 8.473594 7.166411 6.51051 9.175685 
Q 4.547426 11.18034 1.286397 11.18034 
Q -2.45501 11.18034 -4.43195 8.316547 
Q -6.408891 5.448135 -6.408891 0.006929 
Q -6.408891 -5.101708 -3.983905 -8.141024 
Q -1.55892 -11.18034 2.524295 -11.18034 
Q 3.623622 -11.18034 4.741425 -10.963246 
Q 5.859228 -10.746152 7.07403 -10.316583 
z
" id="mbbc52bc46b" style="stroke:#808080;"/>
    </defs>
    <g clip-path="url(#pb35e619a1d)">
     <use style="fill:#808080;stroke:#808080;" x="568.528919" xlink:href="#mbbc52bc46b" y="215.0751"/>
    </g>
   </g>
   <g id="PathCollection_8">
    <defs>
     <path d="M -5.93042 -11.18034 
L 8.446356 -11.18034 
L 8.446356 -9.891222 
L 0.32827 11.18034 
L -2.829829 11.18034 
L 4.809032 -8.630858 
L -5.93042 -8.630858 
L -5.93042 -11.18034 
z
" id="m926edc77ba" style="stroke:#808080;"/>
    </defs>
    <g clip-path="url(#pb35e619a1d)">
     <use style="fill:#808080;stroke:#808080;" x="568.528919" xlink:href="#m926edc77ba" y="215.0751"/>
    </g>
   </g>
   <g id="PathCollection_9"/>
   <g id="PathCollection_10"/>
   <g id="PathCollection_11"/>
   <g id="PathCollection_12"/>
   <g id="PathCollection_13"/>
   <g id="matplotlib.axis_1">
    <g id="xtick_1">
     <g id="line2d_1">
      <defs>
       <path d="M 0 0 
L 0 3.5 
" id="mc00713af22" style="stroke:#000000;stroke-width:0.8;"/>
      </defs>
      <g>
       <use style="stroke:#000000;stroke-width:0.8;" x="158.400656" xlink:href="#mc00713af22" y="630"/>
      </g>
     </g>
     <g id="text_1">
      <!-- −150 -->
      <g transform="translate(144.667062 644.598438)scale(0.1 -0.1)">
       <defs>
        <path d="M 678 2272 
L 4684 2272 
L 4684 1741 
L 678 1741 
L 678 2272 
z
" id="DejaVuSans-2212" transform="scale(0.015625)"/>
        <path d="M 794 531 
L 1825 531 
L 1825 4091 
L 703 3866 
L 703 4441 
L 1819 4666 
L 2450 4666 
L 2450 531 
L 3481 531 
L 3481 0 
L 794 0 
L 794 531 
z
" id="DejaVuSans-31" transform="scale(0.015625)"/>
        <path d="M 691 4666 
L 3169 4666 
L 3169 4134 
L 1269 4134 
L 1269 2991 
Q 1406 3038 1543 3061 
Q 1681 3084 1819 3084 
Q 2600 3084 3056 2656 
Q 3513 2228 3513 1497 
Q 3513 744 3044 326 
Q 2575 -91 1722 -91 
Q 1428 -91 1123 -41 
Q 819 9 494 109 
L 494 744 
Q 775 591 1075 516 
Q 1375 441 1709 441 
Q 2250 441 2565 725 
Q 2881 1009 2881 1497 
Q 2881 1984 2565 2268 
Q 2250 2553 1709 2553 
Q 1456 2553 1204 2497 
Q 953 2441 691 2322 
L 691 4666 
z
" id="DejaVuSans-35" transform="scale(0.015625)"/>
        <path d="M 2034 4250 
Q 1547 4250 1301 3770 
Q 1056 3291 1056 2328 
Q 1056 1369 1301 889 
Q 1547 409 2034 409 
Q 2525 409 2770 889 
Q 3016 1369 3016 2328 
Q 3016 3291 2770 3770 
Q 2525 4250 2034 4250 
z
M 2034 4750 
Q 2819 4750 3233 4129 
Q 3647 3509 3647 2328 
Q 3647 1150 3233 529 
Q 2819 -91 2034 -91 
Q 1250 -91 836 529 
Q 422 1150 422 2328 
Q 422 3509 836 4129 
Q 1250 4750 2034 4750 
z
" id="DejaVuSans-30" transform="scale(0.015625)"/>
       </defs>
       <use xlink:href="#DejaVuSans-2212"/>
       <use x="83.789062" xlink:href="#DejaVuSans-31"/>
       <use x="147.412109" xlink:href="#DejaVuSans-35"/>
       <use x="211.035156" xlink:href="#DejaVuSans-30"/>
      </g>
     </g>
    </g>
    <g id="xtick_2">
     <g id="line2d_2">
      <g>
       <use style="stroke:#000000;stroke-width:0.8;" x="232.721057" xlink:href="#mc00713af22" y="630"/>
      </g>
     </g>
     <g id="text_2">
      <!-- −100 -->
      <g transform="translate(218.987463 644.598438)scale(0.1 -0.1)">
       <use xlink:href="#DejaVuSans-2212"/>
       <use x="83.789062" xlink:href="#DejaVuSans-31"/>
       <use x="147.412109" xlink:href="#DejaVuSans-30"/>
       <use x="211.035156" xlink:href="#DejaVuSans-30"/>
      </g>
     </g>
    </g>
    <g id="xtick_3">
     <g id="line2d_3">
      <g>
       <use style="stroke:#000000;stroke-width:0.8;" x="307.041458" xlink:href="#mc00713af22" y="630"/>
      </g>
     </g>
     <g id="text_3">
      <!-- −50 -->
      <g transform="translate(296.489115 644.598438)scale(0.1 -0.1)">
       <use xlink:href="#DejaVuSans-2212"/>
       <use x="83.789062" xlink:href="#DejaVuSans-35"/>
       <use x="147.412109" xlink:href="#DejaVuSans-30"/>
      </g>
     </g>
    </g>
    <g id="xtick_4">
     <g id="line2d_4">
      <g>
       <use style="stroke:#000000;stroke-width:0.8;" x="381.36186" xlink:href="#mc00713af22" y="630"/>
      </g>
     </g>
     <g id="text_4">
      <!-- 0 -->
      <g transform="translate(378.18061 644.598438)scale(0.1 -0.1)">
       <use xlink:href="#DejaVuSans-30"/>
      </g>
     </g>
    </g>
    <g id="xtick_5">
     <g id="line2d_5">
      <g>
       <use style="stroke:#000000;stroke-width:0.8;" x="455.682261" xlink:href="#mc00713af22" y="630"/>
      </g>
     </g>
     <g id="text_5">
      <!-- 50 -->
      <g transform="translate(449.319761 644.598438)scale(0.1 -0.1)">
       <use xlink:href="#DejaVuSans-35"/>
       <use x="63.623047" xlink:href="#DejaVuSans-30"/>
      </g>
     </g>
    </g>
    <g id="xtick_6">
     <g id="line2d_6">
      <g>
       <use style="stroke:#000000;stroke-width:0.8;" x="530.002663" xlink:href="#mc00713af22" y="630"/>
      </g>
     </g>
     <g id="text_6">
      <!-- 100 -->
      <g transform="translate(520.458913 644.598438)scale(0.1 -0.1)">
       <use xlink:href="#DejaVuSans-31"/>
       <use x="63.623047" xlink:href="#DejaVuSans-30"/>
       <use x="127.246094" xlink:href="#DejaVuSans-30"/>
      </g>
     </g>
    </g>
    <g id="xtick_7">
     <g id="line2d_7">
      <g>
       <use style="stroke:#000000;stroke-width:0.8;" x="604.323064" xlink:href="#mc00713af22" y="630"/>
      </g>
     </g>
     <g id="text_7">
      <!-- 150 -->
      <g transform="translate(594.779314 644.598438)scale(0.1 -0.1)">
       <use xlink:href="#DejaVuSans-31"/>
       <use x="63.623047" xlink:href="#DejaVuSans-35"/>
       <use x="127.246094" xlink:href="#DejaVuSans-30"/>
      </g>
     </g>
    </g>
   </g>
   <g id="matplotlib.axis_2">
    <g id="ytick_1">
     <g id="line2d_8">
      <defs>
       <path d="M 0 0 
L -3.5 0 
" id="md9b98b637b" style="stroke:#000000;stroke-width:0.8;"/>
      </defs>
      <g>
       <use style="stroke:#000000;stroke-width:0.8;" x="90" xlink:href="#md9b98b637b" y="563.364523"/>
      </g>
     </g>
     <g id="text_8">
      <!-- −150 -->
      <g transform="translate(55.532812 567.163741)scale(0.1 -0.1)">
       <use xlink:href="#DejaVuSans-2212"/>
       <use x="83.789062" xlink:href="#DejaVuSans-31"/>
       <use x="147.412109" xlink:href="#DejaVuSans-35"/>
       <use x="211.035156" xlink:href="#DejaVuSans-30"/>
      </g>
     </g>
    </g>
    <g id="ytick_2">
     <g id="line2d_9">
      <g>
       <use style="stroke:#000000;stroke-width:0.8;" x="90" xlink:href="#md9b98b637b" y="490.962067"/>
      </g>
     </g>
     <g id="text_9">
      <!-- −100 -->
      <g transform="translate(55.532812 494.761286)scale(0.1 -0.1)">
       <use xlink:href="#DejaVuSans-2212"/>
       <use x="83.789062" xlink:href="#DejaVuSans-31"/>
       <use x="147.412109" xlink:href="#DejaVuSans-30"/>
       <use x="211.035156" xlink:href="#DejaVuSans-30"/>
      </g>
     </g>
    </g>
    <g id="ytick_3">
     <g id="line2d_10">
      <g>
       <use style="stroke:#000000;stroke-width:0.8;" x="90" xlink:href="#md9b98b637b" y="418.559611"/>
      </g>
     </g>
     <g id="text_10">
      <!-- −50 -->
      <g transform="translate(61.895313 422.35883)scale(0.1 -0.1)">
       <use xlink:href="#DejaVuSans-2212"/>
       <use x="83.789062" xlink:href="#DejaVuSans-35"/>
       <use x="147.412109" xlink:href="#DejaVuSans-30"/>
      </g>
     </g>
    </g>
    <g id="ytick_4">
     <g id="line2d_11">
      <g>
       <use style="stroke:#000000;stroke-width:0.8;" x="90" xlink:href="#md9b98b637b" y="346.157156"/>
      </g>
     </g>
     <g id="text_11">
      <!-- 0 -->
      <g transform="translate(76.6375 349.956375)scale(0.1 -0.1)">
       <use xlink:href="#DejaVuSans-30"/>
      </g>
     </g>
    </g>
    <g id="ytick_5">
     <g id="line2d_12">
      <g>
       <use style="stroke:#000000;stroke-width:0.8;" x="90" xlink:href="#md9b98b637b" y="273.7547"/>
      </g>
     </g>
     <g id="text_12">
      <!-- 50 -->
      <g transform="translate(70.275 277.553919)scale(0.1 -0.1)">
       <use xlink:href="#DejaVuSans-35"/>
       <use x="63.623047" xlink:href="#DejaVuSans-30"/>
      </g>
     </g>
    </g>
    <g id="ytick_6">
     <g id="line2d_13">
      <g>
       <use style="stroke:#000000;stroke-width:0.8;" x="90" xlink:href="#md9b98b637b" y="201.352245"/>
      </g>
     </g>
     <g id="text_13">
      <!-- 100 -->
      <g transform="translate(63.9125 205.151463)scale(0.1 -0.1)">
       <use xlink:href="#DejaVuSans-31"/>
       <use x="63.623047" xlink:href="#DejaVuSans-30"/>
       <use x="127.246094" xlink:href="#DejaVuSans-30"/>
      </g>
     </g>
    </g>
    <g id="ytick_7">
     <g id="line2d_14">
      <g>
       <use style="stroke:#000000;stroke-width:0.8;" x="90" xlink:href="#md9b98b637b" y="128.949789"/>
      </g>
     </g>
     <g id="text_14">
      <!-- 150 -->
      <g transform="translate(63.9125 132.749008)scale(0.1 -0.1)">
       <use xlink:href="#DejaVuSans-31"/>
       <use x="63.623047" xlink:href="#DejaVuSans-35"/>
       <use x="127.246094" xlink:href="#DejaVuSans-30"/>
      </g>
     </g>
    </g>
   </g>
   <g id="line2d_15">
    <path clip-path="url(#pb35e619a1d)" d="M 568.528919 215.0751 
L 561.037042 216.128847 
L 553.519886 216.984526 
L 545.986643 217.685411 
L 538.442624 218.26172 
L 530.891111 218.735532 
L 523.334247 219.123571 
L 515.773495 219.438894 
L 508.209893 219.691952 
L 500.644201 219.891292 
L 493.076988 220.044038 
L 485.508686 220.156231 
L 477.939627 220.233073 
L 470.370064 220.279105 
L 462.800188 220.298348 
L 455.230139 220.294405 
L 447.66001 220.270547 
L 440.089859 220.229776 
L 432.519711 220.174881 
L 424.949561 220.10848 
L 417.379378 220.033061 
L 409.80911 219.951015 
L 402.238686 219.86466 
L 394.66802 219.776273 
L 387.097015 219.688111 
L 379.525564 219.602433 
L 371.95356 219.521526 
" style="fill:none;stroke:#808080;stroke-linecap:square;stroke-width:1.5;"/>
   </g>
   <g id="line2d_16">
    <path clip-path="url(#pb35e619a1d)" d="M 371.95356 220.298348 
L 371.95356 215.0751 
L 568.528919 215.0751 
L 568.528919 220.298348 
L 371.95356 220.298348 
" style="fill:none;stroke:#d3d3d3;stroke-linecap:square;stroke-width:0.5;"/>
   </g>
   <g id="line2d_17">
    <path clip-path="url(#pb35e619a1d)" d="M 371.95356 219.521526 
L 364.380895 219.447725 
L 356.807468 219.383437 
L 349.233192 219.331166 
L 341.657996 219.293537 
L 334.081839 219.273326 
L 326.504713 219.27349 
L 318.926654 219.297204 
L 311.347755 219.347903 
L 303.768181 219.429324 
L 296.18818 219.545564 
L 288.608104 219.701143 
L 281.028436 219.90108 
L 273.449812 220.150987 
L 265.873062 220.457176 
L 258.299255 220.826799 
L 250.729754 221.268012 
L 243.166294 221.790186 
L 235.611088 222.40417 
L 228.066963 223.122623 
L 220.537558 223.960442 
L 213.027602 224.935317 
L 205.543325 226.068449 
L 198.093065 227.385494 
L 190.688214 228.917797 
L 183.344692 230.703974 
L 176.085321 232.79189 
" style="fill:none;stroke:#808080;stroke-linecap:square;stroke-width:1.5;"/>
   </g>
   <g id="line2d_18">
    <path clip-path="url(#pb35e619a1d)" d="M 176.085321 232.79189 
L 176.085321 219.273326 
L 371.95356 219.273326 
L 371.95356 232.79189 
L 176.085321 232.79189 
" style="fill:none;stroke:#d3d3d3;stroke-linecap:square;stroke-width:0.5;"/>
   </g>
   <g id="line2d_19">
    <path clip-path="url(#pb35e619a1d)" d="M 176.085321 232.79189 
L 168.943661 235.240875 
L 161.970137 238.123617 
L 155.241315 241.526021 
L 148.871914 245.541238 
L 143.024426 250.251682 
L 137.90191 255.695297 
L 133.705896 261.828181 
L 130.567008 268.516782 
L 128.498279 275.578939 
L 127.409369 282.843127 
L 127.15839 290.182839 
L 127.597689 297.519239 
L 128.597131 304.809073 
L 130.050457 312.03152 
L 131.873712 319.178641 
L 134.001253 326.24946 
L 136.381706 333.246539 
L 138.974581 340.17408 
L 141.747666 347.036908 
L 144.675061 353.839928 
L 147.735721 360.587858 
L 150.912367 367.285104 
L 154.190682 373.93572 
L 157.558689 380.543405 
L 161.006295 387.111517 
L 164.524929 393.643109 
" style="fill:none;stroke:#808080;stroke-linecap:square;stroke-width:1.5;"/>
   </g>
   <g id="line2d_20">
    <path clip-path="url(#pb35e619a1d)" d="M 127.15839 393.643109 
L 127.15839 232.79189 
L 176.085321 232.79189 
L 176.085321 393.643109 
L 127.15839 393.643109 
" style="fill:none;stroke:#d3d3d3;stroke-linecap:square;stroke-width:0.5;"/>
   </g>
   <g id="line2d_21">
    <path clip-path="url(#pb35e619a1d)" d="M 164.524929 393.643109 
L 168.107263 400.140955 
" style="fill:none;stroke:#808080;stroke-linecap:square;stroke-width:1.5;"/>
   </g>
   <g id="line2d_22">
    <path clip-path="url(#pb35e619a1d)" d="M 164.524929 400.140955 
L 164.524929 393.643109 
L 168.107263 393.643109 
L 168.107263 400.140955 
L 164.524929 400.140955 
" style="fill:none;stroke:#d3d3d3;stroke-linecap:square;stroke-width:0.5;"/>
   </g>
   <g id="line2d_23">
    <path clip-path="url(#pb35e619a1d)" d="M 168.107263 400.140955 
L 171.813864 406.532011 
L 175.751714 412.790482 
L 179.933094 418.897201 
L 184.36967 424.830519 
L 189.071935 430.566257 
L 194.048508 436.077802 
L 199.305326 441.336417 
L 204.844762 446.311824 
L 210.664755 450.973102 
L 216.758092 455.289906 
L 223.111977 459.233942 
L 229.708026 462.780558 
L 236.522785 465.910245 
L 243.528747 468.609817 
L 250.695758 470.873079 
L 257.992604 472.700878 
L 265.388555 474.10058 
L 272.854663 475.085076 
L 280.364695 475.671547 
L 287.895674 475.880147 
L 295.428066 475.732783 
L 302.9457 475.252083 
L 310.435501 474.460577 
L 317.887133 473.380116 
L 325.292598 472.031475 
L 332.645848 470.434122 
L 339.942429 468.6061 
L 347.179164 466.564005 
" style="fill:none;stroke:#808080;stroke-linecap:square;stroke-width:1.5;"/>
   </g>
   <g id="line2d_24">
    <path clip-path="url(#pb35e619a1d)" d="M 168.107263 475.880147 
L 168.107263 400.140955 
L 347.179164 400.140955 
L 347.179164 475.880147 
L 168.107263 475.880147 
" style="fill:none;stroke:#d3d3d3;stroke-linecap:square;stroke-width:0.5;"/>
   </g>
   <g id="line2d_25">
    <path clip-path="url(#pb35e619a1d)" d="M 347.179164 466.564005 
L 354.353886 464.323007 
L 361.465215 461.896923 
L 368.512377 459.298295 
L 375.495054 456.538495 
L 382.413269 453.627815 
L 389.267287 450.575568 
L 396.057546 447.390177 
L 402.784596 444.079259 
L 409.449049 440.649706 
L 416.051548 437.107748 
L 422.592734 433.45902 
L 429.073225 429.708619 
L 435.493596 425.861149 
L 441.854364 421.920766 
L 448.155976 417.891216 
L 454.3988 413.775869 
L 460.583109 409.577746 
L 466.70908 405.299545 
L 472.77678 400.943658 
L 478.786159 396.512192 
L 484.737037 392.006981 
L 490.629098 387.429596 
L 496.461875 382.781354 
L 502.234733 378.063321 
L 507.946857 373.276313 
L 513.597225 368.420893 
L 519.18459 363.497368 
L 524.707441 358.505778 
" style="fill:none;stroke:#808080;stroke-linecap:square;stroke-width:1.5;"/>
   </g>
   <g id="line2d_26">
    <path clip-path="url(#pb35e619a1d)" d="M 347.179164 466.564005 
L 347.179164 358.505778 
L 524.707441 358.505778 
L 524.707441 466.564005 
L 347.179164 466.564005 
" style="fill:none;stroke:#d3d3d3;stroke-linecap:square;stroke-width:0.5;"/>
   </g>
   <g id="line2d_27">
    <path clip-path="url(#pb35e619a1d)" d="M 524.707441 358.505778 
L 530.163974 353.445881 
L 535.552036 348.317135 
L 540.869074 343.118676 
L 546.112057 337.84928 
L 551.27738 332.507332 
L 556.360747 327.090768 
L 561.357006 321.59702 
L 566.259946 316.022935 
L 571.062009 310.364677 
L 575.75391 304.617611 
L 580.324101 298.776146 
L 584.758016 292.833544 
L 589.036967 286.781685 
L 593.136493 280.610763 
L 597.023804 274.308936 
L 600.65367 267.861944 
L 603.961488 261.252838 
L 606.850935 254.462342 
L 609.170555 247.471792 
L 610.666789 240.276611 
L 610.892195 232.944533 
L 609.112127 225.834909 
L 604.717375 219.943607 
L 598.304602 216.190119 
L 591.034172 214.354068 
L 583.527446 213.820121 
L 576.002609 214.148358 
L 568.528919 215.0751 
" style="fill:none;stroke:#808080;stroke-linecap:square;stroke-width:1.5;"/>
   </g>
   <g id="line2d_28">
    <path clip-path="url(#pb35e619a1d)" d="M 524.707441 358.505778 
L 524.707441 213.820121 
L 610.892195 213.820121 
L 610.892195 358.505778 
L 524.707441 358.505778 
" style="fill:none;stroke:#d3d3d3;stroke-linecap:square;stroke-width:0.5;"/>
   </g>
   <g id="line2d_29">
    <path clip-path="url(#pb35e619a1d)" d="M 568.528919 215.0751 
" style="fill:none;stroke:#808080;stroke-linecap:square;stroke-width:1.5;"/>
   </g>
   <g id="line2d_30">
    <path clip-path="url(#pb35e619a1d)" d="M 568.528919 215.0751 
L 568.528919 215.0751 
L 568.528919 215.0751 
L 568.528919 215.0751 
L 568.528919 215.0751 
" style="fill:none;stroke:#d3d3d3;stroke-linecap:square;stroke-width:0.5;"/>
   </g>
   <g id="line2d_31">
    <path clip-path="url(#pb35e619a1d)" d="M 181.170539 393.232301 
L 184.626293 399.191054 
L 188.27695 404.99332 
L 192.129907 410.620646 
L 196.191724 416.053044 
L 200.467805 421.269212 
L 204.96206 426.246878 
L 209.676593 430.963305 
L 214.611426 435.395936 
L 219.764306 439.523155 
L 225.130593 443.325076 
L 230.703244 446.784315 
L 236.472849 449.886634 
L 242.427729 452.621427 
L 248.554075 454.982003 
L 254.836163 456.965705 
L 261.256689 458.573841 
L 267.797227 459.811476 
L 274.438803 460.687057 
L 281.16251 461.211929 
L 287.950098 461.399753 
L 294.784464 461.265873 
L 301.650001 460.826712 
L 308.53279 460.099213 
L 315.420676 459.10037 
L 322.303218 457.846852 
L 329.171584 456.354737 
L 336.018397 454.639315 
L 342.837563 452.714982 
" style="fill:none;stroke:#000000;stroke-linecap:square;stroke-width:3;"/>
   </g>
   <g id="line2d_32">
    <path clip-path="url(#pb35e619a1d)" d="M 181.170539 461.399753 
L 181.170539 393.232301 
L 342.837563 393.232301 
L 342.837563 461.399753 
L 181.170539 461.399753 
" style="fill:none;stroke:#d3d3d3;stroke-linecap:square;stroke-width:0.5;"/>
   </g>
   <g id="line2d_33">
    <path clip-path="url(#pb35e619a1d)" d="M 342.837563 452.714982 
L 349.624092 450.595174 
L 356.373937 448.29236 
L 363.083842 445.818051 
L 369.751201 443.182837 
L 376.373944 440.396436 
L 382.950436 437.467748 
L 389.479389 434.404914 
L 395.959791 431.215369 
L 402.390844 427.905905 
L 408.77191 424.48272 
L 415.102473 420.951465 
L 421.3821 417.317296 
L 427.610408 413.58491 
L 433.787041 409.758585 
L 439.911645 405.842214 
L 445.98385 401.839334 
L 452.003249 397.753152 
L 457.969382 393.586572 
L 463.88172 389.342212 
L 469.739651 385.022423 
L 475.542461 380.629307 
L 481.289318 376.164726 
L 486.979254 371.630315 
L 492.611142 367.027493 
L 498.183677 362.357467 
L 503.695345 357.621235 
L 509.14439 352.819599 
L 514.528779 347.953156 
" style="fill:none;stroke:#000000;stroke-linecap:square;stroke-width:3;"/>
   </g>
   <g id="line2d_34">
    <path clip-path="url(#pb35e619a1d)" d="M 342.837563 452.714982 
L 342.837563 347.953156 
L 514.528779 347.953156 
L 514.528779 452.714982 
L 342.837563 452.714982 
" style="fill:none;stroke:#d3d3d3;stroke-linecap:square;stroke-width:0.5;"/>
   </g>
   <g id="line2d_35">
    <path clip-path="url(#pb35e619a1d)" d="M 514.528779 347.953156 
L 519.846153 343.022307 
L 525.093769 338.027256 
L 530.268429 332.968009 
L 535.366392 327.844376 
L 540.383259 322.655975 
L 545.313828 317.402245 
L 550.151905 312.082456 
L 554.890057 306.695751 
L 559.519277 301.241199 
L 564.028538 295.717909 
L 568.404173 290.125208 
L 572.629001 284.462967 
L 576.681086 278.732165 
L 580.531911 272.935911 
L 584.143658 267.081318 
L 587.465068 261.183091 
L 590.425098 255.2707 
L 592.92344 249.403494 
L 594.818354 243.704393 
L 595.923125 238.437148 
L 596.080511 234.159306 
L 595.524435 231.705628 
L 594.820786 230.747866 
L 592.849758 229.66028 
L 588.819588 228.67294 
L 583.432254 228.300316 
L 577.340657 228.57006 
L 570.89113 229.371563 
" style="fill:none;stroke:#000000;stroke-linecap:square;stroke-width:3;"/>
   </g>
   <g id="line2d_36">
    <path clip-path="url(#pb35e619a1d)" d="M 514.528779 347.953156 
L 514.528779 228.300316 
L 596.080511 228.300316 
L 596.080511 347.953156 
L 514.528779 347.953156 
" style="fill:none;stroke:#d3d3d3;stroke-linecap:square;stroke-width:0.5;"/>
   </g>
   <g id="line2d_37">
    <path clip-path="url(#pb35e619a1d)" d="M 570.89113 229.371563 
L 570.89113 229.371563 
" style="fill:none;stroke:#000000;stroke-linecap:square;stroke-width:3;"/>
   </g>
   <g id="line2d_38">
    <path clip-path="url(#pb35e619a1d)" d="M 570.89113 229.371563 
L 570.89113 229.371563 
L 570.89113 229.371563 
L 570.89113 229.371563 
L 570.89113 229.371563 
" style="fill:none;stroke:#d3d3d3;stroke-linecap:square;stroke-width:0.5;"/>
   </g>
   <g id="line2d_39">
    <path clip-path="url(#pb35e619a1d)" d="M 570.89113 229.371563 
L 570.89113 229.371563 
L 562.944107 230.489662 
L 555.077071 231.385336 
L 547.265676 232.112193 
L 539.494932 232.705878 
L 531.755066 233.191542 
L 524.039423 233.587757 
L 516.343306 233.908742 
L 508.663309 234.165705 
L 500.996897 234.367706 
L 493.342149 234.522225 
L 485.697582 234.635553 
L 478.062033 234.713073 
L 470.434574 234.759459 
L 462.814458 234.778832 
L 455.201073 234.774869 
L 447.59391 234.750895 
L 439.992546 234.709957 
L 432.396622 234.654875 
L 424.80583 234.588294 
L 417.219912 234.512719 
L 409.638647 234.430554 
L 402.06185 234.344127 
L 394.489372 234.255719 
L 386.921099 234.167588 
L 379.356957 234.081992 
L 371.79691 234.001213 
" style="fill:none;stroke:#000000;stroke-linecap:square;stroke-width:3;"/>
   </g>
   <g id="line2d_40">
    <path clip-path="url(#pb35e619a1d)" d="M 371.79691 234.778832 
L 371.79691 229.371563 
L 570.89113 229.371563 
L 570.89113 234.778832 
L 371.79691 234.778832 
" style="fill:none;stroke:#d3d3d3;stroke-linecap:square;stroke-width:0.5;"/>
   </g>
   <g id="line2d_41">
    <path clip-path="url(#pb35e619a1d)" d="M 371.79691 234.001213 
L 364.240971 233.927574 
L 356.689207 233.86347 
L 349.141745 233.811383 
L 341.598789 233.773913 
L 334.060627 233.753802 
L 326.527647 233.753963 
L 319.000362 233.777517 
L 311.479425 233.827826 
L 303.965664 233.908537 
L 296.460109 234.023632 
L 288.964038 234.177482 
L 281.479027 234.374917 
L 274.007015 234.6213 
L 266.550381 234.922626 
L 259.11205 235.285625 
L 251.695625 235.7179 
L 244.305558 236.228082 
L 236.947376 236.826026 
L 229.627985 237.523039 
L 222.35608 238.332153 
L 215.14271 239.268456 
L 208.002052 240.34946 
L 200.95251 241.595518 
L 194.01826 243.030216 
L 187.231421 244.680655 
L 180.635071 246.577354 
L 174.287181 248.753317 
" style="fill:none;stroke:#000000;stroke-linecap:square;stroke-width:3;"/>
   </g>
   <g id="line2d_42">
    <path clip-path="url(#pb35e619a1d)" d="M 174.287181 248.753317 
L 174.287181 233.753802 
L 371.79691 233.753802 
L 371.79691 248.753317 
L 174.287181 248.753317 
" style="fill:none;stroke:#d3d3d3;stroke-linecap:square;stroke-width:0.5;"/>
   </g>
   <g id="line2d_43">
    <path clip-path="url(#pb35e619a1d)" d="M 174.287181 248.753317 
L 168.265102 251.241425 
L 162.668637 254.069147 
L 157.616499 257.25075 
L 153.227221 260.782163 
L 149.581658 264.651754 
L 146.692781 268.872193 
L 144.524833 273.495663 
L 143.041876 278.569674 
L 142.219025 284.081154 
L 142.02066 289.956839 
L 142.390341 296.101356 
L 143.258855 302.427828 
L 144.555747 308.869149 
L 146.216573 315.377636 
L 148.18569 321.920857 
L 150.416449 328.47728 
L 152.870251 335.032844 
L 155.515287 341.578513 
L 158.325317 348.108607 
L 161.278606 354.619688 
L 164.357052 361.109814 
L 167.545492 367.57804 
L 170.831138 374.024094 
L 174.203146 380.448146 
L 177.652259 386.850662 
L 181.170539 393.232301 
" style="fill:none;stroke:#000000;stroke-linecap:square;stroke-width:3;"/>
   </g>
   <g id="line2d_44">
    <path clip-path="url(#pb35e619a1d)" d="M 142.02066 393.232301 
L 142.02066 248.753317 
L 181.170539 248.753317 
L 181.170539 393.232301 
L 142.02066 393.232301 
" style="fill:none;stroke:#d3d3d3;stroke-linecap:square;stroke-width:0.5;"/>
   </g>
   <g id="line2d_45">
    <path clip-path="url(#pb35e619a1d)" d="M 181.170539 393.232301 
L 181.170539 393.232301 
L 181.170539 393.232301 
" style="fill:none;stroke:#000000;stroke-linecap:square;stroke-width:3;"/>
   </g>
   <g id="line2d_46">
    <path clip-path="url(#pb35e619a1d)" d="M 181.170539 393.232301 
L 181.170539 393.232301 
L 181.170539 393.232301 
L 181.170539 393.232301 
L 181.170539 393.232301 
" style="fill:none;stroke:#d3d3d3;stroke-linecap:square;stroke-width:0.5;"/>
   </g>
   <g id="line2d_47">
    <path clip-path="url(#pb35e619a1d)" d="M 181.170539 393.232301 
L 181.170539 393.232301 
L 181.170539 393.232301 
" style="fill:none;stroke:#000000;stroke-linecap:square;stroke-width:3;"/>
   </g>
   <g id="line2d_48">
    <path clip-path="url(#pb35e619a1d)" d="M 181.170539 393.232301 
L 181.170539 393.232301 
L 181.170539 393.232301 
L 181.170539 393.232301 
L 181.170539 393.232301 
" style="fill:none;stroke:#d3d3d3;stroke-linecap:square;stroke-width:0.5;"/>
   </g>
   <g id="line2d_49">
    <path clip-path="url(#pb35e619a1d)" d="M 566.166708 200.778636 
L 566.166708 200.778636 
L 559.129976 201.768032 
L 551.962702 202.583715 
L 544.70761 203.258629 
L 537.390317 203.817563 
L 530.027157 204.279521 
L 522.629072 204.659385 
L 515.203683 204.969047 
L 507.756477 205.2182 
L 500.291505 205.414878 
L 492.811826 205.565851 
L 485.31979 205.676909 
L 477.817221 205.753073 
L 470.305554 205.79875 
L 462.785919 205.817863 
L 455.259204 205.813942 
L 447.726109 205.790199 
L 440.187172 205.749596 
L 432.642801 205.694886 
L 425.093291 205.628666 
L 417.538843 205.553404 
L 409.979573 205.471476 
L 402.415523 205.385194 
L 394.846669 205.296828 
L 387.27293 205.208634 
L 379.694171 205.122873 
L 372.11021 205.041839 
" style="fill:none;stroke:#000000;stroke-linecap:square;stroke-width:3;"/>
   </g>
   <g id="line2d_50">
    <path clip-path="url(#pb35e619a1d)" d="M 372.11021 205.817863 
L 372.11021 200.778636 
L 566.166708 200.778636 
L 566.166708 205.817863 
L 372.11021 205.817863 
" style="fill:none;stroke:#d3d3d3;stroke-linecap:square;stroke-width:0.5;"/>
   </g>
   <g id="line2d_51">
    <path clip-path="url(#pb35e619a1d)" d="M 372.11021 205.041839 
L 364.520818 204.967875 
L 356.92573 204.903405 
L 349.324638 204.850949 
L 341.717203 204.813161 
L 334.103052 204.792849 
L 326.481778 204.793016 
L 318.852945 204.816891 
L 311.216086 204.86798 
L 303.570699 204.950111 
L 295.916251 205.067496 
L 288.252171 205.224804 
L 280.577844 205.427244 
L 272.892609 205.680674 
L 265.195744 205.991727 
L 257.486461 206.367973 
L 249.763882 206.818125 
L 242.02703 207.352291 
L 234.274801 207.982314 
L 226.505941 208.722207 
L 218.719035 209.588731 
L 210.912495 210.602178 
L 203.084598 211.787438 
L 195.233621 213.175471 
L 187.358168 214.805377 
L 179.457962 216.727294 
L 171.535572 219.006426 
L 163.60014 221.728432 
" style="fill:none;stroke:#000000;stroke-linecap:square;stroke-width:3;"/>
   </g>
   <g id="line2d_52">
    <path clip-path="url(#pb35e619a1d)" d="M 163.60014 221.728432 
L 163.60014 204.792849 
L 372.11021 204.792849 
L 372.11021 221.728432 
L 163.60014 221.728432 
" style="fill:none;stroke:#d3d3d3;stroke-linecap:square;stroke-width:0.5;"/>
   </g>
   <g id="line2d_53">
    <path clip-path="url(#pb35e619a1d)" d="M 163.60014 221.728432 
L 155.675172 225.005808 
L 147.813993 228.982895 
L 140.127329 233.831727 
L 132.821631 239.721202 
L 126.222162 246.738841 
L 120.719011 254.784169 
L 116.609183 263.5379 
L 113.954681 272.588204 
L 112.599714 281.605101 
L 112.29612 290.408838 
L 112.805036 298.937123 
L 113.935406 307.190319 
L 115.545167 315.19389 
L 117.53085 322.979646 
L 119.816816 330.578064 
L 122.346962 338.015797 
L 125.078911 345.315316 
L 127.980044 352.495303 
L 131.024805 359.57125 
L 134.192836 366.556027 
L 137.467683 373.460395 
L 140.835871 380.293401 
L 144.286239 387.062715 
L 147.809444 393.774888 
L 151.397598 400.435556 
L 155.043988 407.049609 
" style="fill:none;stroke:#000000;stroke-linecap:square;stroke-width:3;"/>
   </g>
   <g id="line2d_54">
    <path clip-path="url(#pb35e619a1d)" d="M 112.29612 407.049609 
L 112.29612 221.728432 
L 163.60014 221.728432 
L 163.60014 407.049609 
L 112.29612 407.049609 
" style="fill:none;stroke:#d3d3d3;stroke-linecap:square;stroke-width:0.5;"/>
   </g>
   <g id="line2d_55">
    <path clip-path="url(#pb35e619a1d)" d="M 155.043988 407.049609 
L 159.001435 413.872967 
L 163.226478 420.587643 
L 167.736281 427.173756 
L 172.547617 433.607993 
L 177.676065 439.863301 
L 183.134955 445.908726 
L 188.93406 451.70953 
L 195.078098 457.227712 
L 201.565204 462.42305 
L 208.385591 467.254736 
L 215.520709 471.683569 
L 222.943202 475.674481 
L 230.61784 479.199063 
L 238.50342 482.237631 
L 246.555353 484.780453 
L 254.728519 486.827915 
L 262.979883 488.389684 
L 271.270523 489.483096 
L 279.566881 490.131165 
L 287.84125 490.360541 
L 296.071668 490.199694 
L 304.241399 489.677453 
L 312.338212 488.82194 
L 320.35359 487.659862 
L 328.281977 486.216097 
L 336.120111 484.513506 
L 343.86646 482.572885 
L 351.520765 480.413028 
" style="fill:none;stroke:#000000;stroke-linecap:square;stroke-width:3;"/>
   </g>
   <g id="line2d_56">
    <path clip-path="url(#pb35e619a1d)" d="M 155.043988 490.360541 
L 155.043988 407.049609 
L 351.520765 407.049609 
L 351.520765 490.360541 
L 155.043988 490.360541 
" style="fill:none;stroke:#d3d3d3;stroke-linecap:square;stroke-width:0.5;"/>
   </g>
   <g id="line2d_57">
    <path clip-path="url(#pb35e619a1d)" d="M 351.520765 480.413028 
L 359.08368 478.050841 
L 366.556493 475.501485 
L 373.940912 472.77854 
L 381.238908 469.894153 
L 388.452594 466.859194 
L 395.584138 463.683387 
L 402.635704 460.37544 
L 409.6094 456.94315 
L 416.507254 453.393506 
L 423.331186 449.732776 
L 430.082995 445.966576 
L 436.76435 442.099943 
L 443.376784 438.137388 
L 449.921687 434.082946 
L 456.400307 429.940217 
L 462.813749 425.712404 
L 469.162969 421.402341 
L 475.448779 417.012518 
L 481.671841 412.545104 
L 487.832666 408.001961 
L 493.931613 403.384655 
L 499.968878 398.694467 
L 505.944496 393.932394 
L 511.858324 389.099149 
L 517.710036 384.195159 
L 523.499106 379.22055 
L 529.224789 374.175137 
L 534.886103 369.058399 
" style="fill:none;stroke:#000000;stroke-linecap:square;stroke-width:3;"/>
   </g>
   <g id="line2d_58">
    <path clip-path="url(#pb35e619a1d)" d="M 351.520765 480.413028 
L 351.520765 369.058399 
L 534.886103 369.058399 
L 534.886103 480.413028 
L 351.520765 480.413028 
" style="fill:none;stroke:#d3d3d3;stroke-linecap:square;stroke-width:0.5;"/>
   </g>
   <g id="line2d_59">
    <path clip-path="url(#pb35e619a1d)" d="M 534.886103 369.058399 
L 540.481794 363.869454 
L 546.010303 358.607014 
L 551.469719 353.269342 
L 556.857721 347.854185 
L 562.171501 342.358688 
L 567.407666 336.779292 
L 572.562108 331.111585 
L 577.629836 325.350119 
L 582.604741 319.488155 
L 587.479281 313.517313 
L 592.244029 307.427083 
L 596.887031 301.204122 
L 601.392848 294.831205 
L 605.741075 288.285615 
L 609.903949 281.536555 
L 613.842271 274.540797 
L 617.497878 267.234976 
L 620.77843 259.521189 
L 623.522755 251.239191 
L 625.410452 242.116074 
L 625.70388 231.72976 
L 622.699819 219.96419 
L 614.613964 209.139347 
L 603.759446 202.719958 
L 593.248756 200.035195 
L 583.622638 199.339927 
L 574.664562 199.726657 
L 566.166708 200.778636 
" style="fill:none;stroke:#000000;stroke-linecap:square;stroke-width:3;"/>
   </g>
   <g id="line2d_60">
    <path clip-path="url(#pb35e619a1d)" d="M 534.886103 369.058399 
L 534.886103 199.339927 
L 625.70388 199.339927 
L 625.70388 369.058399 
L 534.886103 369.058399 
" style="fill:none;stroke:#d3d3d3;stroke-linecap:square;stroke-width:0.5;"/>
   </g>
   <g id="line2d_61">
    <path clip-path="url(#pb35e619a1d)" d="M 566.166708 200.778636 
L 566.166708 200.778636 
" style="fill:none;stroke:#000000;stroke-linecap:square;stroke-width:3;"/>
   </g>
   <g id="line2d_62">
    <path clip-path="url(#pb35e619a1d)" d="M 566.166708 200.778636 
L 566.166708 200.778636 
L 566.166708 200.778636 
L 566.166708 200.778636 
L 566.166708 200.778636 
" style="fill:none;stroke:#d3d3d3;stroke-linecap:square;stroke-width:0.5;"/>
   </g>
   <g id="line2d_63">
    <path clip-path="url(#pb35e619a1d)" d="M 155.043988 407.049609 
L 155.043988 407.049609 
L 155.043988 407.049609 
" style="fill:none;stroke:#000000;stroke-linecap:square;stroke-width:3;"/>
   </g>
   <g id="line2d_64">
    <path clip-path="url(#pb35e619a1d)" d="M 155.043988 407.049609 
L 155.043988 407.049609 
L 155.043988 407.049609 
L 155.043988 407.049609 
L 155.043988 407.049609 
" style="fill:none;stroke:#d3d3d3;stroke-linecap:square;stroke-width:0.5;"/>
   </g>
   <g id="line2d_65">
    <path clip-path="url(#pb35e619a1d)" d="M 155.043988 407.049609 
L 155.043988 407.049609 
L 155.043988 407.049609 
" style="fill:none;stroke:#000000;stroke-linecap:square;stroke-width:3;"/>
   </g>
   <g id="line2d_66">
    <path clip-path="url(#pb35e619a1d)" d="M 155.043988 407.049609 
L 155.043988 407.049609 
L 155.043988 407.049609 
L 155.043988 407.049609 
L 155.043988 407.049609 
" style="fill:none;stroke:#d3d3d3;stroke-linecap:square;stroke-width:0.5;"/>
   </g>
   <g id="line2d_67">
    <path clip-path="url(#pb35e619a1d)" d="M 371.95356 197.800789 
L 374.804724 197.979116 
L 377.609073 198.511169 
L 380.320558 199.388211 
L 382.894657 200.595841 
L 385.289104 202.114231 
L 387.464582 203.918448 
L 389.385369 205.978868 
L 391.019926 208.261657 
L 392.341414 210.729333 
L 393.328134 213.341377 
L 393.963884 216.054898 
L 394.238225 218.825342 
L 394.146652 221.607216 
L 393.69067 224.354844 
L 392.877765 227.023109 
L 391.721285 229.568198 
L 390.240219 231.948321 
L 388.458887 234.124396 
L 386.406538 236.060693 
L 384.116872 237.725417 
L 381.627484 239.091233 
L 378.979251 240.135716 
L 376.215656 240.841714 
L 373.382077 241.197635 
L 370.525042 241.197635 
L 367.691464 240.841714 
L 364.927869 240.135716 
L 362.279636 239.091233 
L 359.790248 237.725417 
L 357.500581 236.060693 
L 355.448232 234.124396 
L 353.6669 231.948321 
L 352.185835 229.568198 
L 351.029355 227.023109 
L 350.21645 224.354844 
L 349.760467 221.607216 
L 349.668895 218.825342 
L 349.943236 216.054898 
L 350.578986 213.341377 
L 351.565706 210.729333 
L 352.887194 208.261657 
L 354.521751 205.978868 
L 356.442538 203.918448 
L 358.618015 202.114231 
L 361.012462 200.595841 
L 363.586561 199.388211 
L 366.298047 198.511169 
L 369.102395 197.979116 
L 371.95356 197.800789 
" style="fill:none;stroke:#808080;stroke-linecap:square;stroke-width:1.5;"/>
   </g>
   <g id="line2d_68">
    <path clip-path="url(#pb35e619a1d)" d="M 176.085321 211.071153 
L 178.936486 211.24948 
L 181.740834 211.781533 
L 184.452319 212.658575 
L 187.026419 213.866206 
L 189.420866 215.384596 
L 191.596343 217.188813 
L 193.51713 219.249232 
L 195.151687 221.532021 
L 196.473175 223.999697 
L 197.459895 226.611741 
L 198.095645 229.325263 
L 198.369986 232.095706 
L 198.278414 234.877581 
L 197.822431 237.625208 
L 197.009526 240.293473 
L 195.853046 242.838562 
L 194.37198 245.218685 
L 192.590648 247.39476 
L 190.538299 249.331057 
L 188.248633 250.995781 
L 185.759245 252.361597 
L 183.111012 253.40608 
L 180.347417 254.112078 
L 177.513838 254.467999 
L 174.656804 254.467999 
L 171.823225 254.112078 
L 169.05963 253.40608 
L 166.411397 252.361597 
L 163.922009 250.995781 
L 161.632343 249.331057 
L 159.579994 247.39476 
L 157.798662 245.218685 
L 156.317596 242.838562 
L 155.161116 240.293473 
L 154.348211 237.625208 
L 153.892229 234.877581 
L 153.800656 232.095706 
L 154.074997 229.325263 
L 154.710747 226.611741 
L 155.697467 223.999697 
L 157.018955 221.532021 
L 158.653512 219.249232 
L 160.574299 217.188813 
L 162.749777 215.384596 
L 165.144223 213.866206 
L 167.718323 212.658575 
L 170.429808 211.781533 
L 173.234157 211.24948 
L 176.085321 211.071153 
" style="fill:none;stroke:#808080;stroke-linecap:square;stroke-width:1.5;"/>
   </g>
   <g id="line2d_69">
    <path clip-path="url(#pb35e619a1d)" d="M 164.524929 371.922372 
L 167.376093 372.100699 
L 170.180442 372.632752 
L 172.891927 373.509794 
L 175.466026 374.717425 
L 177.860473 376.235815 
L 180.035951 378.040032 
L 181.956738 380.100451 
L 183.591295 382.38324 
L 184.912783 384.850917 
L 185.899503 387.46296 
L 186.535253 390.176482 
L 186.809594 392.946925 
L 186.718021 395.7288 
L 186.262039 398.476428 
L 185.449134 401.144692 
L 184.292654 403.689781 
L 182.811588 406.069904 
L 181.030256 408.24598 
L 178.977907 410.182276 
L 176.688241 411.847 
L 174.198853 413.212816 
L 171.550619 414.257299 
L 168.787025 414.963297 
L 165.953446 415.319218 
L 163.096411 415.319218 
L 160.262833 414.963297 
L 157.499238 414.257299 
L 154.851005 413.212816 
L 152.361617 411.847 
L 150.07195 410.182276 
L 148.019601 408.24598 
L 146.238269 406.069904 
L 144.757204 403.689781 
L 143.600724 401.144692 
L 142.787819 398.476428 
L 142.331836 395.7288 
L 142.240264 392.946925 
L 142.514605 390.176482 
L 143.150355 387.46296 
L 144.137075 384.850917 
L 145.458563 382.38324 
L 147.09312 380.100451 
L 149.013907 378.040032 
L 151.189384 376.235815 
L 153.583831 374.717425 
L 156.15793 373.509794 
L 158.869416 372.632752 
L 161.673764 372.100699 
L 164.524929 371.922372 
" style="fill:none;stroke:#808080;stroke-linecap:square;stroke-width:1.5;"/>
   </g>
   <g id="line2d_70">
    <path clip-path="url(#pb35e619a1d)" d="M 168.107263 378.420218 
L 170.958428 378.598545 
L 173.762776 379.130598 
L 176.474262 380.00764 
L 179.048361 381.215271 
L 181.442808 382.733661 
L 183.618285 384.537878 
L 185.539072 386.598297 
L 187.173629 388.881087 
L 188.495117 391.348763 
L 189.481837 393.960806 
L 190.117587 396.674328 
L 190.391928 399.444771 
L 190.300356 402.226646 
L 189.844373 404.974274 
L 189.031468 407.642539 
L 187.874988 410.187628 
L 186.393923 412.56775 
L 184.612591 414.743826 
L 182.560242 416.680122 
L 180.270575 418.344846 
L 177.781187 419.710663 
L 175.132954 420.755145 
L 172.369359 421.461143 
L 169.535781 421.817064 
L 166.678746 421.817064 
L 163.845168 421.461143 
L 161.081573 420.755145 
L 158.433339 419.710663 
L 155.943951 418.344846 
L 153.654285 416.680122 
L 151.601936 414.743826 
L 149.820604 412.56775 
L 148.339538 410.187628 
L 147.183058 407.642539 
L 146.370153 404.974274 
L 145.914171 402.226646 
L 145.822598 399.444771 
L 146.096939 396.674328 
L 146.732689 393.960806 
L 147.719409 391.348763 
L 149.040897 388.881087 
L 150.675454 386.598297 
L 152.596241 384.537878 
L 154.771719 382.733661 
L 157.166166 381.215271 
L 159.740265 380.00764 
L 162.45175 379.130598 
L 165.256099 378.598545 
L 168.107263 378.420218 
" style="fill:none;stroke:#808080;stroke-linecap:square;stroke-width:1.5;"/>
   </g>
   <g id="line2d_71">
    <path clip-path="url(#pb35e619a1d)" d="M 347.179164 444.843268 
L 350.030328 445.021595 
L 352.834677 445.553648 
L 355.546162 446.43069 
L 358.120261 447.638321 
L 360.514708 449.156711 
L 362.690186 450.960928 
L 364.610973 453.021347 
L 366.24553 455.304137 
L 367.567018 457.771813 
L 368.553738 460.383856 
L 369.189488 463.097378 
L 369.463829 465.867821 
L 369.372256 468.649696 
L 368.916274 471.397324 
L 368.103369 474.065589 
L 366.946889 476.610678 
L 365.465823 478.9908 
L 363.684491 481.166876 
L 361.632142 483.103172 
L 359.342476 484.767896 
L 356.853088 486.133713 
L 354.204854 487.178195 
L 351.441259 487.884193 
L 348.607681 488.240114 
L 345.750646 488.240114 
L 342.917068 487.884193 
L 340.153473 487.178195 
L 337.50524 486.133713 
L 335.015852 484.767896 
L 332.726185 483.103172 
L 330.673836 481.166876 
L 328.892504 478.9908 
L 327.411439 476.610678 
L 326.254959 474.065589 
L 325.442054 471.397324 
L 324.986071 468.649696 
L 324.894499 465.867821 
L 325.16884 463.097378 
L 325.80459 460.383856 
L 326.79131 457.771813 
L 328.112798 455.304137 
L 329.747355 453.021347 
L 331.668142 450.960928 
L 333.843619 449.156711 
L 336.238066 447.638321 
L 338.812165 446.43069 
L 341.523651 445.553648 
L 344.327999 445.021595 
L 347.179164 444.843268 
" style="fill:none;stroke:#808080;stroke-linecap:square;stroke-width:1.5;"/>
   </g>
   <g id="line2d_72">
    <path clip-path="url(#pb35e619a1d)" d="M 524.707441 336.785041 
L 527.558606 336.963368 
L 530.362954 337.495421 
L 533.07444 338.372463 
L 535.648539 339.580094 
L 538.042986 341.098483 
L 540.218463 342.902701 
L 542.13925 344.96312 
L 543.773807 347.245909 
L 545.095295 349.713585 
L 546.082015 352.325629 
L 546.717765 355.03915 
L 546.992106 357.809594 
L 546.900534 360.591469 
L 546.444551 363.339096 
L 545.631646 366.007361 
L 544.475166 368.55245 
L 542.994101 370.932573 
L 541.212769 373.108648 
L 539.16042 375.044945 
L 536.870753 376.709669 
L 534.381365 378.075485 
L 531.733132 379.119968 
L 528.969537 379.825966 
L 526.135959 380.181887 
L 523.278924 380.181887 
L 520.445345 379.825966 
L 517.68175 379.119968 
L 515.033517 378.075485 
L 512.544129 376.709669 
L 510.254463 375.044945 
L 508.202114 373.108648 
L 506.420782 370.932573 
L 504.939716 368.55245 
L 503.783236 366.007361 
L 502.970331 363.339096 
L 502.514349 360.591469 
L 502.422776 357.809594 
L 502.697117 355.03915 
L 503.332867 352.325629 
L 504.319587 349.713585 
L 505.641075 347.245909 
L 507.275632 344.96312 
L 509.196419 342.902701 
L 511.371897 341.098483 
L 513.766344 339.580094 
L 516.340443 338.372463 
L 519.051928 337.495421 
L 521.856277 336.963368 
L 524.707441 336.785041 
" style="fill:none;stroke:#808080;stroke-linecap:square;stroke-width:1.5;"/>
   </g>
   <g id="line2d_73">
    <path clip-path="url(#pb35e619a1d)" d="M 568.528919 193.354363 
L 571.380084 193.53269 
L 574.184432 194.064743 
L 576.895917 194.941785 
L 579.470017 196.149416 
L 581.864464 197.667805 
L 584.039941 199.472023 
L 585.960728 201.532442 
L 587.595285 203.815231 
L 588.916773 206.282907 
L 589.903493 208.894951 
L 590.539243 211.608472 
L 590.813584 214.378916 
L 590.722012 217.160791 
L 590.266029 219.908418 
L 589.453124 222.576683 
L 588.296644 225.121772 
L 586.815578 227.501895 
L 585.034246 229.67797 
L 582.981897 231.614267 
L 580.692231 233.278991 
L 578.202843 234.644807 
L 575.55461 235.68929 
L 572.791015 236.395288 
L 569.957436 236.751209 
L 567.100402 236.751209 
L 564.266823 236.395288 
L 561.503228 235.68929 
L 558.854995 234.644807 
L 556.365607 233.278991 
L 554.075941 231.614267 
L 552.023592 229.67797 
L 550.24226 227.501895 
L 548.761194 225.121772 
L 547.604714 222.576683 
L 546.791809 219.908418 
L 546.335827 217.160791 
L 546.244254 214.378916 
L 546.518595 211.608472 
L 547.154345 208.894951 
L 548.141065 206.282907 
L 549.462553 203.815231 
L 551.09711 201.532442 
L 553.017897 199.472023 
L 555.193375 197.667805 
L 557.587821 196.149416 
L 560.161921 194.941785 
L 562.873406 194.064743 
L 565.677755 193.53269 
L 568.528919 193.354363 
" style="fill:none;stroke:#808080;stroke-linecap:square;stroke-width:1.5;"/>
   </g>
   <g id="line2d_74">
    <path clip-path="url(#pb35e619a1d)" d="M 568.528919 193.354363 
L 571.380084 193.53269 
L 574.184432 194.064743 
L 576.895917 194.941785 
L 579.470017 196.149416 
L 581.864464 197.667805 
L 584.039941 199.472023 
L 585.960728 201.532442 
L 587.595285 203.815231 
L 588.916773 206.282907 
L 589.903493 208.894951 
L 590.539243 211.608472 
L 590.813584 214.378916 
L 590.722012 217.160791 
L 590.266029 219.908418 
L 589.453124 222.576683 
L 588.296644 225.121772 
L 586.815578 227.501895 
L 585.034246 229.67797 
L 582.981897 231.614267 
L 580.692231 233.278991 
L 578.202843 234.644807 
L 575.55461 235.68929 
L 572.791015 236.395288 
L 569.957436 236.751209 
L 567.100402 236.751209 
L 564.266823 236.395288 
L 561.503228 235.68929 
L 558.854995 234.644807 
L 556.365607 233.278991 
L 554.075941 231.614267 
L 552.023592 229.67797 
L 550.24226 227.501895 
L 548.761194 225.121772 
L 547.604714 222.576683 
L 546.791809 219.908418 
L 546.335827 217.160791 
L 546.244254 214.378916 
L 546.518595 211.608472 
L 547.154345 208.894951 
L 548.141065 206.282907 
L 549.462553 203.815231 
L 551.09711 201.532442 
L 553.017897 199.472023 
L 555.193375 197.667805 
L 557.587821 196.149416 
L 560.161921 194.941785 
L 562.873406 194.064743 
L 565.677755 193.53269 
L 568.528919 193.354363 
" style="fill:none;stroke:#808080;stroke-linecap:square;stroke-width:1.5;"/>
   </g>
   <g id="line2d_75"/>
   <g id="line2d_76"/>
   <g id="line2d_77"/>
   <g id="line2d_78"/>
   <g id="line2d_79"/>
   <g id="line2d_80"/>
   <g id="line2d_81"/>
   <g id="line2d_82"/>
   <g id="line2d_83"/>
   <g id="line2d_84"/>
   <g id="line2d_85"/>
   <g id="line2d_86"/>
   <g id="line2d_87"/>
   <g id="line2d_88"/>
   <g id="line2d_89"/>
   <g id="line2d_90"/>
   <g id="line2d_91"/>
   <g id="line2d_92"/>
   <g id="line2d_93"/>
   <g id="line2d_94"/>
   <g id="line2d_95"/>
   <g id="line2d_96"/>
   <g id="line2d_97"/>
   <g id="line2d_98"/>
   <g id="line2d_99"/>
   <g id="line2d_100"/>
   <g id="line2d_101"/>
   <g id="line2d_102"/>
   <g id="line2d_103"/>
   <g id="line2d_104"/>
   <g id="line2d_105"/>
   <g id="line2d_106"/>
   <g id="line2d_107"/>
   <g id="line2d_108"/>
   <g id="line2d_109"/>
   <g id="line2d_110"/>
   <g id="line2d_111"/>
   <g id="line2d_112"/>
   <g id="line2d_113"/>
   <g id="line2d_114"/>
   <g id="line2d_115"/>
   <g id="line2d_116"/>
   <g id="line2d_117"/>
   <g id="line2d_118"/>
   <g id="line2d_119"/>
   <g id="line2d_120"/>
   <g id="line2d_121"/>
   <g id="line2d_122"/>
   <g id="line2d_123"/>
   <g id="line2d_124"/>
   <g id="line2d_125"/>
   <g id="patch_3">
    <path d="M 90 630 
L 90 86.4 
" style="fill:none;stroke:#000000;stroke-linecap:square;stroke-linejoin:miter;stroke-width:0.8;"/>
   </g>
   <g id="patch_4">
    <path d="M 648 630 
L 648 86.4 
" style="fill:none;stroke:#000000;stroke-linecap:square;stroke-linejoin:miter;stroke-width:0.8;"/>
   </g>
   <g id="patch_5">
    <path d="M 90 630 
L 648 630 
" style="fill:none;stroke:#000000;stroke-linecap:square;stroke-linejoin:miter;stroke-width:0.8;"/>
   </g>
   <g id="patch_6">
    <path d="M 90 86.4 
L 648 86.4 
" style="fill:none;stroke:#000000;stroke-linecap:square;stroke-linejoin:miter;stroke-width:0.8;"/>
   </g>
   <g id="text_15">
    <!-- 0 -->
    <g transform="translate(-64.560549 490.962067)scale(0.1 -0.1)">
     <use xlink:href="#DejaVuSans-30"/>
    </g>
   </g>
   <g id="text_16">
    <!-- 0 -->
    <g transform="translate(-64.560549 469.24133)scale(0.1 -0.1)">
     <use xlink:href="#DejaVuSans-30"/>
    </g>
   </g>
   <g id="text_17">
    <!-- 0 -->
    <g transform="translate(-64.560549 447.520594)scale(0.1 -0.1)">
     <use xlink:href="#DejaVuSans-30"/>
    </g>
   </g>
  </g>
 </g>
 <defs>
  <clipPath id="pb35e619a1d">
   <rect height="543.6" width="558" x="90" y="86.4"/>
  </clipPath>
 </defs>
</svg>
