<?xml version="1.0" encoding="utf-8" standalone="no"?>
<!DOCTYPE svg PUBLIC "-//W3C//DTD SVG 1.1//EN"
  "http://www.w3.org/Graphics/SVG/1.1/DTD/svg11.dtd">
<svg height="720pt" version="1.1" viewBox="0 0 720 720" width="720pt" xmlns="http://www.w3.org/2000/svg" xmlns:xlink="http://www.w3.org/1999/xlink">
 <metadata>
  <rdf:RDF xmlns:cc="http://creativecommons.org/ns#" xmlns:dc="http://purl.org/dc/elements/1.1/" xmlns:rdf="http://www.w3.org/1999/02/22-rdf-syntax-ns#">
   <cc:Work>
    <dc:type rdf:resource="http://purl.org/dc/dcmitype/StillImage"/>
    <dc:date>2022-01-11T13:26:09.207609</dc:date>
    <dc:format>image/svg+xml</dc:format>
    <dc:creator>
     <cc:Agent>
      <dc:title>Matplotlib v3.4.3, https://matplotlib.org/</dc:title>
     </cc:Agent>
    </dc:creator>
   </cc:Work>
  </rdf:RDF>
 </metadata>
 <defs>
  <style type="text/css">*{stroke-linecap:butt;stroke-linejoin:round;}</style>
 </defs>
 <g id="figure_1">
  <g id="patch_1">
   <path d="M 0 720 
L 720 720 
L 720 0 
L 0 0 
z
" style="fill:none;"/>
  </g>
  <g id="axes_1">
   <g id="patch_2">
    <path d="M 90 630 
L 648 630 
L 648 86.4 
L 90 86.4 
z
" style="fill:#ffffff;"/>
   </g>
   <g id="PathCollection_1">
    <defs>
     <path d="M 0.972304 -8.870829 
Q -1.277159 -8.870829 -2.413438 -6.653699 
Q -3.545098 -4.441189 -3.545098 0.006929 
Q -3.545098 4.436569 -2.413438 6.653699 
Q -1.277159 8.870829 0.972304 8.870829 
Q 3.240243 8.870829 4.371903 6.653699 
Q 5.508182 4.436569 5.508182 0.006929 
Q 5.508182 -4.441189 4.371903 -6.653699 
Q 3.240243 -8.870829 0.972304 -8.870829 
z
M 0.972304 -11.18034 
Q 4.598235 -11.18034 6.51051 -8.311928 
Q 8.422784 -5.448135 8.422784 0.006929 
Q 8.422784 5.448135 6.51051 8.316547 
Q 4.598235 11.18034 0.972304 11.18034 
Q -2.649008 11.18034 -4.561283 8.316547 
Q -6.473558 5.448135 -6.473558 0.006929 
Q -6.473558 -5.448135 -4.561283 -8.311928 
Q -2.649008 -11.18034 0.972304 -11.18034 
z
" id="m9207f5a9cb" style="stroke:#808080;"/>
    </defs>
    <g clip-path="url(#p662ed9d7a6)">
     <use style="fill:#808080;stroke:#808080;" x="460.588176" xlink:href="#m9207f5a9cb" y="157.307417"/>
    </g>
   </g>
   <g id="PathCollection_2">
    <defs>
     <path d="M -4.535873 8.63565 
L 0.404946 8.63565 
L 0.404946 -8.424791 
L -4.971969 -7.346533 
L -4.971969 -10.102082 
L 0.376192 -11.18034 
L 3.400108 -11.18034 
L 3.400108 8.63565 
L 8.340927 8.63565 
L 8.340927 11.18034 
L -4.535873 11.18034 
L -4.535873 8.63565 
z
" id="m0aa2ac5f99" style="stroke:#808080;"/>
    </defs>
    <g clip-path="url(#p662ed9d7a6)">
     <use style="fill:#808080;stroke:#808080;" x="351.248628" xlink:href="#m0aa2ac5f99" y="254.72871"/>
    </g>
   </g>
   <g id="PathCollection_3">
    <defs>
     <path d="M -2.294912 8.680651 
L 8.075736 8.680651 
L 8.075736 11.18034 
L -5.867913 11.18034 
L -5.867913 8.680651 
Q -4.177916 6.929457 -1.259259 3.982555 
Q 1.664105 1.030945 2.4126 0.174178 
Q 3.838976 -1.426376 4.403877 -2.537349 
Q 4.973486 -3.648321 4.973486 -4.721634 
Q 4.973486 -6.472828 3.744825 -7.574386 
Q 2.516165 -8.680651 0.543718 -8.680651 
Q -0.854413 -8.680651 -2.407892 -8.195778 
Q -3.956663 -7.710904 -5.72198 -6.722326 
L -5.72198 -9.725719 
Q -3.928418 -10.445968 -2.370232 -10.813154 
Q -0.807338 -11.18034 0.487227 -11.18034 
Q 3.900173 -11.18034 5.929111 -9.471513 
Q 7.958048 -7.767394 7.958048 -4.914642 
Q 7.958048 -3.558879 7.449637 -2.344341 
Q 6.945933 -1.13451 5.604292 0.513119 
Q 5.237107 0.941502 3.264659 2.979855 
Q 1.296919 5.018207 -2.294912 8.680651 
z
" id="m75a18bbc7a" style="stroke:#808080;"/>
    </defs>
    <g clip-path="url(#p662ed9d7a6)">
     <use style="fill:#808080;stroke:#808080;" x="223.419464" xlink:href="#m75a18bbc7a" y="389.022316"/>
    </g>
   </g>
   <g id="PathCollection_4">
    <defs>
     <path d="M 3.77605 -0.861447 
Q 5.868466 -0.413402 7.041697 1.004637 
Q 8.219548 2.418057 8.219548 4.496617 
Q 8.219548 7.683741 6.025513 9.43435 
Q 3.831478 11.18034 -0.210165 11.18034 
Q -1.563539 11.18034 -3.000054 10.912437 
Q -4.436569 10.644533 -5.965465 10.108727 
L -5.965465 7.295743 
Q -4.755282 8.002454 -3.314147 8.362737 
Q -1.868394 8.723021 -0.293308 8.723021 
Q 2.445772 8.723021 3.882287 7.64217 
Q 5.318802 6.561319 5.318802 4.496617 
Q 5.318802 2.588961 3.983905 1.517348 
Q 2.649008 0.441116 0.270213 0.441116 
L -2.242535 0.441116 
L -2.242535 -1.956155 
L 0.385688 -1.956155 
Q 2.533533 -1.956155 3.674431 -2.815293 
Q 4.815329 -3.674431 4.815329 -5.291088 
Q 4.815329 -6.949317 3.637479 -7.836169 
Q 2.464248 -8.72764 0.270213 -8.72764 
Q -0.930733 -8.72764 -2.302582 -8.464356 
Q -3.674431 -8.20569 -5.318802 -7.660646 
L -5.318802 -10.256536 
Q -3.655955 -10.718438 -2.205582 -10.949389 
Q -0.75521 -11.18034 0.528878 -11.18034 
Q 3.849954 -11.18034 5.780705 -9.66992 
Q 7.716074 -8.164119 7.716074 -5.595944 
Q 7.716074 -3.803764 6.690652 -2.570485 
Q 5.665229 -1.337207 3.77605 -0.861447 
z
" id="mbbb38a0b23" style="stroke:#808080;"/>
    </defs>
    <g clip-path="url(#p662ed9d7a6)">
     <use style="fill:#808080;stroke:#808080;" x="151.147784" xlink:href="#mbbb38a0b23" y="550.050644"/>
    </g>
   </g>
   <g id="PathCollection_5">
    <defs>
     <path d="M 2.695646 -8.544598 
L -4.943215 3.392919 
L 2.695646 3.392919 
L 2.695646 -8.544598 
z
M 1.900131 -11.18034 
L 5.705184 -11.18034 
L 5.705184 3.392919 
L 8.896829 3.392919 
L 8.896829 5.908855 
L 5.705184 5.908855 
L 5.705184 11.18034 
L 2.695646 11.18034 
L 2.695646 5.908855 
L -7.396852 5.908855 
L -7.396852 2.99037 
L 1.900131 -11.18034 
z
" id="m194d017cb2" style="stroke:#808080;"/>
    </defs>
    <g clip-path="url(#p662ed9d7a6)">
     <use style="fill:#808080;stroke:#808080;" x="251.541855" xlink:href="#m194d017cb2" y="532.647415"/>
    </g>
   </g>
   <g id="PathCollection_6">
    <defs>
     <path d="M -5.008473 -11.18034 
L 6.639575 -11.18034 
L 6.639575 -8.679629 
L -2.291535 -8.679629 
L -2.291535 -3.306861 
Q -1.647555 -3.527789 -1.003575 -3.635902 
Q -0.354894 -3.744015 0.293787 -3.744015 
Q 3.964943 -3.744015 6.108409 -1.732165 
Q 8.256576 0.279685 8.256576 3.715812 
Q 8.256576 7.255352 6.052002 9.220196 
Q 3.847428 11.18034 -0.16217 11.18034 
Q -1.544142 11.18034 -2.97782 10.945311 
Q -4.406798 10.710281 -5.934488 10.240223 
L -5.934488 7.255352 
Q -4.613624 7.974541 -3.203448 8.327085 
Q -1.793273 8.679629 -0.223278 8.679629 
Q 2.319738 8.679629 3.800422 7.344663 
Q 5.285807 6.009697 5.285807 3.715812 
Q 5.285807 1.426627 3.800422 0.091661 
Q 2.319738 -1.248005 -0.223278 -1.248005 
Q -1.412526 -1.248005 -2.597073 -0.984772 
Q -3.77692 -0.72154 -5.008473 -0.16217 
L -5.008473 -11.18034 
z
" id="m91c99646d9" style="stroke:#808080;"/>
    </defs>
    <g clip-path="url(#p662ed9d7a6)">
     <use style="fill:#808080;stroke:#808080;" x="353.702647" xlink:href="#m91c99646d9" y="397.485173"/>
    </g>
   </g>
   <g id="PathCollection_7">
    <defs>
     <path d="M 1.286397 -1.175541 
Q -0.676687 -1.175541 -1.826823 0.168594 
Q -2.97234 1.50811 -2.97234 3.845335 
Q -2.97234 6.168702 -1.826823 7.522075 
Q -0.676687 8.870829 1.286397 8.870829 
Q 3.249481 8.870829 4.394998 7.522075 
Q 5.540515 6.168702 5.540515 3.845335 
Q 5.540515 1.50811 4.394998 0.168594 
Q 3.249481 -1.175541 1.286397 -1.175541 
z
M 7.07403 -10.316583 
L 7.07403 -7.660646 
Q 5.974703 -8.177976 4.8569 -8.450499 
Q 3.739097 -8.72764 2.63977 -8.72764 
Q -0.247118 -8.72764 -1.771394 -6.778413 
Q -3.291052 -4.829186 -3.508146 -0.889162 
Q -2.658246 -2.145535 -1.374159 -2.815293 
Q -0.085452 -3.485051 1.457301 -3.485051 
Q 4.704473 -3.485051 6.589033 -1.512729 
Q 8.473594 0.454974 8.473594 3.845335 
Q 8.473594 7.166411 6.51051 9.175685 
Q 4.547426 11.18034 1.286397 11.18034 
Q -2.45501 11.18034 -4.43195 8.316547 
Q -6.408891 5.448135 -6.408891 0.006929 
Q -6.408891 -5.101708 -3.983905 -8.141024 
Q -1.55892 -11.18034 2.524295 -11.18034 
Q 3.623622 -11.18034 4.741425 -10.963246 
Q 5.859228 -10.746152 7.07403 -10.316583 
z
" id="m805575b347" style="stroke:#808080;"/>
    </defs>
    <g clip-path="url(#p662ed9d7a6)">
     <use style="fill:#808080;stroke:#808080;" x="476.799343" xlink:href="#m805575b347" y="282.178596"/>
    </g>
   </g>
   <g id="PathCollection_8">
    <defs>
     <path d="M -5.93042 -11.18034 
L 8.446356 -11.18034 
L 8.446356 -9.891222 
L 0.32827 11.18034 
L -2.829829 11.18034 
L 4.809032 -8.630858 
L -5.93042 -8.630858 
L -5.93042 -11.18034 
z
" id="m64d81e8050" style="stroke:#808080;"/>
    </defs>
    <g clip-path="url(#p662ed9d7a6)">
     <use style="fill:#808080;stroke:#808080;" x="573.476302" xlink:href="#m64d81e8050" y="146.334237"/>
    </g>
   </g>
   <g id="PathCollection_9">
    <defs>
     <path d="M 1.002328 0.524259 
Q -1.076232 0.524259 -2.267939 1.637443 
Q -3.455028 2.750627 -3.455028 4.695235 
Q -3.455028 6.644461 -2.267939 7.757645 
Q -1.076232 8.870829 1.002328 8.870829 
Q 3.080887 8.870829 4.277213 7.753026 
Q 5.478159 6.630604 5.478159 4.695235 
Q 5.478159 2.750627 4.286451 1.637443 
Q 3.099363 0.524259 1.002328 0.524259 
z
M -1.912275 -0.713639 
Q -3.787597 -1.175541 -4.836115 -2.459629 
Q -5.880014 -3.748335 -5.880014 -5.595944 
Q -5.880014 -8.177976 -4.041643 -9.679158 
Q -2.198654 -11.18034 1.002328 -11.18034 
Q 4.221785 -11.18034 6.055536 -9.679158 
Q 7.889288 -8.177976 7.889288 -5.595944 
Q 7.889288 -3.748335 6.84077 -2.459629 
Q 5.796871 -1.175541 3.935406 -0.713639 
Q 6.041679 -0.224023 7.214911 1.207874 
Q 8.392761 2.635151 8.392761 4.695235 
Q 8.392761 7.83155 6.480486 9.508254 
Q 4.568212 11.18034 1.002328 11.18034 
Q -2.558938 11.18034 -4.475831 9.508254 
Q -6.388106 7.83155 -6.388106 4.695235 
Q -6.388106 2.635151 -5.205636 1.207874 
Q -4.018548 -0.224023 -1.912275 -0.713639 
z
M -2.979268 -5.318802 
Q -2.979268 -3.646717 -1.93537 -2.709056 
Q -0.886852 -1.771394 1.002328 -1.771394 
Q 2.882269 -1.771394 3.940025 -2.709056 
Q 5.0024 -3.646717 5.0024 -5.318802 
Q 5.0024 -6.995507 3.940025 -7.933168 
Q 2.882269 -8.870829 1.002328 -8.870829 
Q -0.886852 -8.870829 -1.93537 -7.933168 
Q -2.979268 -6.995507 -2.979268 -5.318802 
z
" id="m8bc3b3216a" style="stroke:#808080;"/>
    </defs>
    <g clip-path="url(#p662ed9d7a6)">
     <use style="fill:#808080;stroke:#808080;" x="573.476302" xlink:href="#m8bc3b3216a" y="146.334237"/>
    </g>
   </g>
   <g id="PathCollection_10"/>
   <g id="PathCollection_11"/>
   <g id="PathCollection_12"/>
   <g id="PathCollection_13"/>
   <g id="PathCollection_14"/>
   <g id="matplotlib.axis_1">
    <g id="xtick_1">
     <g id="line2d_1">
      <defs>
       <path d="M 0 0 
L 0 3.5 
" id="m1ddb84530d" style="stroke:#000000;stroke-width:0.8;"/>
      </defs>
      <g>
       <use style="stroke:#000000;stroke-width:0.8;" x="120.012556" xlink:href="#m1ddb84530d" y="630"/>
      </g>
     </g>
     <g id="text_1">
      <!-- −200 -->
      <g transform="translate(106.278962 644.598438)scale(0.1 -0.1)">
       <defs>
        <path d="M 678 2272 
L 4684 2272 
L 4684 1741 
L 678 1741 
L 678 2272 
z
" id="DejaVuSans-2212" transform="scale(0.015625)"/>
        <path d="M 1228 531 
L 3431 531 
L 3431 0 
L 469 0 
L 469 531 
Q 828 903 1448 1529 
Q 2069 2156 2228 2338 
Q 2531 2678 2651 2914 
Q 2772 3150 2772 3378 
Q 2772 3750 2511 3984 
Q 2250 4219 1831 4219 
Q 1534 4219 1204 4116 
Q 875 4013 500 3803 
L 500 4441 
Q 881 4594 1212 4672 
Q 1544 4750 1819 4750 
Q 2544 4750 2975 4387 
Q 3406 4025 3406 3419 
Q 3406 3131 3298 2873 
Q 3191 2616 2906 2266 
Q 2828 2175 2409 1742 
Q 1991 1309 1228 531 
z
" id="DejaVuSans-32" transform="scale(0.015625)"/>
        <path d="M 2034 4250 
Q 1547 4250 1301 3770 
Q 1056 3291 1056 2328 
Q 1056 1369 1301 889 
Q 1547 409 2034 409 
Q 2525 409 2770 889 
Q 3016 1369 3016 2328 
Q 3016 3291 2770 3770 
Q 2525 4250 2034 4250 
z
M 2034 4750 
Q 2819 4750 3233 4129 
Q 3647 3509 3647 2328 
Q 3647 1150 3233 529 
Q 2819 -91 2034 -91 
Q 1250 -91 836 529 
Q 422 1150 422 2328 
Q 422 3509 836 4129 
Q 1250 4750 2034 4750 
z
" id="DejaVuSans-30" transform="scale(0.015625)"/>
       </defs>
       <use xlink:href="#DejaVuSans-2212"/>
       <use x="83.789062" xlink:href="#DejaVuSans-32"/>
       <use x="147.412109" xlink:href="#DejaVuSans-30"/>
       <use x="211.035156" xlink:href="#DejaVuSans-30"/>
      </g>
     </g>
    </g>
    <g id="xtick_2">
     <g id="line2d_2">
      <g>
       <use style="stroke:#000000;stroke-width:0.8;" x="232.215528" xlink:href="#m1ddb84530d" y="630"/>
      </g>
     </g>
     <g id="text_2">
      <!-- −100 -->
      <g transform="translate(218.481934 644.598438)scale(0.1 -0.1)">
       <defs>
        <path d="M 794 531 
L 1825 531 
L 1825 4091 
L 703 3866 
L 703 4441 
L 1819 4666 
L 2450 4666 
L 2450 531 
L 3481 531 
L 3481 0 
L 794 0 
L 794 531 
z
" id="DejaVuSans-31" transform="scale(0.015625)"/>
       </defs>
       <use xlink:href="#DejaVuSans-2212"/>
       <use x="83.789062" xlink:href="#DejaVuSans-31"/>
       <use x="147.412109" xlink:href="#DejaVuSans-30"/>
       <use x="211.035156" xlink:href="#DejaVuSans-30"/>
      </g>
     </g>
    </g>
    <g id="xtick_3">
     <g id="line2d_3">
      <g>
       <use style="stroke:#000000;stroke-width:0.8;" x="344.418499" xlink:href="#m1ddb84530d" y="630"/>
      </g>
     </g>
     <g id="text_3">
      <!-- 0 -->
      <g transform="translate(341.237249 644.598438)scale(0.1 -0.1)">
       <use xlink:href="#DejaVuSans-30"/>
      </g>
     </g>
    </g>
    <g id="xtick_4">
     <g id="line2d_4">
      <g>
       <use style="stroke:#000000;stroke-width:0.8;" x="456.621471" xlink:href="#m1ddb84530d" y="630"/>
      </g>
     </g>
     <g id="text_4">
      <!-- 100 -->
      <g transform="translate(447.077721 644.598438)scale(0.1 -0.1)">
       <use xlink:href="#DejaVuSans-31"/>
       <use x="63.623047" xlink:href="#DejaVuSans-30"/>
       <use x="127.246094" xlink:href="#DejaVuSans-30"/>
      </g>
     </g>
    </g>
    <g id="xtick_5">
     <g id="line2d_5">
      <g>
       <use style="stroke:#000000;stroke-width:0.8;" x="568.824443" xlink:href="#m1ddb84530d" y="630"/>
      </g>
     </g>
     <g id="text_5">
      <!-- 200 -->
      <g transform="translate(559.280693 644.598438)scale(0.1 -0.1)">
       <use xlink:href="#DejaVuSans-32"/>
       <use x="63.623047" xlink:href="#DejaVuSans-30"/>
       <use x="127.246094" xlink:href="#DejaVuSans-30"/>
      </g>
     </g>
    </g>
   </g>
   <g id="matplotlib.axis_2">
    <g id="ytick_1">
     <g id="line2d_6">
      <defs>
       <path d="M 0 0 
L -3.5 0 
" id="md67bd0948e" style="stroke:#000000;stroke-width:0.8;"/>
      </defs>
      <g>
       <use style="stroke:#000000;stroke-width:0.8;" x="90" xlink:href="#md67bd0948e" y="600.761962"/>
      </g>
     </g>
     <g id="text_6">
      <!-- −200 -->
      <g transform="translate(55.532812 604.561181)scale(0.1 -0.1)">
       <use xlink:href="#DejaVuSans-2212"/>
       <use x="83.789062" xlink:href="#DejaVuSans-32"/>
       <use x="147.412109" xlink:href="#DejaVuSans-30"/>
       <use x="211.035156" xlink:href="#DejaVuSans-30"/>
      </g>
     </g>
    </g>
    <g id="ytick_2">
     <g id="line2d_7">
      <g>
       <use style="stroke:#000000;stroke-width:0.8;" x="90" xlink:href="#md67bd0948e" y="491.454551"/>
      </g>
     </g>
     <g id="text_7">
      <!-- −100 -->
      <g transform="translate(55.532812 495.253769)scale(0.1 -0.1)">
       <use xlink:href="#DejaVuSans-2212"/>
       <use x="83.789062" xlink:href="#DejaVuSans-31"/>
       <use x="147.412109" xlink:href="#DejaVuSans-30"/>
       <use x="211.035156" xlink:href="#DejaVuSans-30"/>
      </g>
     </g>
    </g>
    <g id="ytick_3">
     <g id="line2d_8">
      <g>
       <use style="stroke:#000000;stroke-width:0.8;" x="90" xlink:href="#md67bd0948e" y="382.147139"/>
      </g>
     </g>
     <g id="text_8">
      <!-- 0 -->
      <g transform="translate(76.6375 385.946358)scale(0.1 -0.1)">
       <use xlink:href="#DejaVuSans-30"/>
      </g>
     </g>
    </g>
    <g id="ytick_4">
     <g id="line2d_9">
      <g>
       <use style="stroke:#000000;stroke-width:0.8;" x="90" xlink:href="#md67bd0948e" y="272.839728"/>
      </g>
     </g>
     <g id="text_9">
      <!-- 100 -->
      <g transform="translate(63.9125 276.638947)scale(0.1 -0.1)">
       <use xlink:href="#DejaVuSans-31"/>
       <use x="63.623047" xlink:href="#DejaVuSans-30"/>
       <use x="127.246094" xlink:href="#DejaVuSans-30"/>
      </g>
     </g>
    </g>
    <g id="ytick_5">
     <g id="line2d_10">
      <g>
       <use style="stroke:#000000;stroke-width:0.8;" x="90" xlink:href="#md67bd0948e" y="163.532317"/>
      </g>
     </g>
     <g id="text_10">
      <!-- 200 -->
      <g transform="translate(63.9125 167.331536)scale(0.1 -0.1)">
       <use xlink:href="#DejaVuSans-32"/>
       <use x="63.623047" xlink:href="#DejaVuSans-30"/>
       <use x="127.246094" xlink:href="#DejaVuSans-30"/>
      </g>
     </g>
    </g>
   </g>
   <g id="line2d_11">
    <path clip-path="url(#p662ed9d7a6)" d="M 573.476302 146.334237 
L 575.235562 141.023981 
L 576.52271 135.587077 
L 577.099457 130.039763 
L 576.535952 124.505736 
L 574.188857 119.466374 
L 569.85461 115.886362 
L 564.431832 114.142754 
L 558.728962 113.726164 
L 553.020549 114.143632 
L 547.376369 115.110044 
L 541.811727 116.463011 
L 536.326596 118.103796 
L 530.916385 119.968435 
L 525.575387 122.013299 
L 520.297971 124.207372 
L 515.078995 126.527854 
L 509.913918 128.957513 
L 504.798797 131.483027 
L 499.730239 134.093898 
L 494.70534 136.781726 
L 489.721629 139.5397 
L 484.777009 142.362244 
L 479.869715 145.244759 
L 474.998278 148.183433 
L 470.161487 151.175104 
L 465.358371 154.217152 
L 460.588176 157.307417 
" style="fill:none;stroke:#808080;stroke-linecap:square;stroke-width:1.5;"/>
   </g>
   <g id="line2d_12">
    <path clip-path="url(#p662ed9d7a6)" d="M 460.588176 157.307417 
L 460.588176 113.726164 
L 577.099457 113.726164 
L 577.099457 157.307417 
L 460.588176 157.307417 
" style="fill:none;stroke:#d3d3d3;stroke-linecap:square;stroke-width:0.5;"/>
   </g>
   <g id="line2d_13">
    <path clip-path="url(#p662ed9d7a6)" d="M 460.588176 157.307417 
L 455.850352 160.444145 
L 451.144546 163.625937 
L 446.470594 166.851717 
L 441.828526 170.120705 
L 437.218562 173.432405 
L 432.641127 176.786587 
L 428.096855 180.183285 
L 423.586612 183.622793 
L 419.111511 187.10567 
L 414.672935 190.632742 
L 410.272569 194.205112 
L 405.912431 197.824163 
L 401.594906 201.491571 
L 397.322785 205.209305 
L 393.099308 208.979629 
L 388.928194 212.80509 
L 384.813678 216.688493 
L 380.760527 220.632858 
L 376.774032 224.64135 
L 372.859976 228.717174 
L 369.024548 232.863435 
L 365.274204 237.082962 
L 361.615458 241.378099 
L 358.054607 245.750479 
L 354.597392 250.20081 
L 351.248628 254.72871 
" style="fill:none;stroke:#808080;stroke-linecap:square;stroke-width:1.5;"/>
   </g>
   <g id="line2d_14">
    <path clip-path="url(#p662ed9d7a6)" d="M 351.248628 254.72871 
L 351.248628 157.307417 
L 460.588176 157.307417 
L 460.588176 254.72871 
L 351.248628 254.72871 
" style="fill:none;stroke:#d3d3d3;stroke-linecap:square;stroke-width:0.5;"/>
   </g>
   <g id="line2d_15">
    <path clip-path="url(#p662ed9d7a6)" d="M 351.248628 254.72871 
L 347.688834 259.069749 
L 343.860687 263.184122 
L 339.923993 267.192608 
L 335.931838 271.142939 
L 331.908455 275.059834 
L 327.867015 278.958038 
L 323.815616 282.847135 
L 319.759752 286.733725 
L 315.703463 290.622548 
L 311.649923 294.517129 
L 307.601762 298.42017 
L 303.56125 302.333801 
L 299.530413 306.259752 
L 295.511098 310.199467 
L 291.505026 314.154194 
L 287.513824 318.125041 
L 283.53905 322.11302 
L 279.582211 326.119088 
L 275.644783 330.144161 
L 271.728224 334.189144 
L 267.833988 338.254938 
L 263.963535 342.342453 
L 260.118348 346.452614 
L 256.299941 350.586373 
L 252.509869 354.744703 
L 248.749746 358.928609 
L 245.021251 363.139124 
L 241.326137 367.37731 
L 237.66625 371.644258 
L 234.04353 375.941085 
L 230.460027 380.26893 
L 226.917908 384.62895 
L 223.419464 389.022316 
" style="fill:none;stroke:#808080;stroke-linecap:square;stroke-width:1.5;"/>
   </g>
   <g id="line2d_16">
    <path clip-path="url(#p662ed9d7a6)" d="M 223.419464 389.022316 
L 223.419464 254.72871 
L 351.248628 254.72871 
L 351.248628 389.022316 
L 223.419464 389.022316 
" style="fill:none;stroke:#d3d3d3;stroke-linecap:square;stroke-width:0.5;"/>
   </g>
   <g id="line2d_17">
    <path clip-path="url(#p662ed9d7a6)" d="M 223.419464 389.022316 
L 219.96712 393.450202 
L 216.563439 397.913783 
L 213.211123 402.414221 
L 209.913022 406.952652 
L 206.672122 411.530178 
L 203.491552 416.147846 
L 200.374563 420.806636 
L 197.324524 425.507439 
L 194.344898 430.251035 
L 191.439217 435.038075 
L 188.611052 439.869052 
L 185.863973 444.744281 
L 183.201499 449.663877 
L 180.627053 454.627729 
L 178.143895 459.635484 
L 175.755063 464.686535 
L 173.463303 469.780007 
L 171.271004 474.914762 
L 169.180132 480.089399 
L 167.192172 485.302274 
L 165.308079 490.551519 
L 163.52824 495.835078 
L 161.852453 501.150739 
L 160.27992 506.49618 
L 158.809263 511.869014 
L 157.438545 517.266832 
L 156.16532 522.687246 
L 154.986685 528.127929 
L 153.899346 533.586651 
L 152.899688 539.061298 
L 151.983847 544.549902 
L 151.147784 550.050644 
" style="fill:none;stroke:#808080;stroke-linecap:square;stroke-width:1.5;"/>
   </g>
   <g id="line2d_18">
    <path clip-path="url(#p662ed9d7a6)" d="M 151.147784 550.050644 
L 151.147784 389.022316 
L 223.419464 389.022316 
L 223.419464 550.050644 
L 151.147784 550.050644 
" style="fill:none;stroke:#d3d3d3;stroke-linecap:square;stroke-width:0.5;"/>
   </g>
   <g id="line2d_19">
    <path clip-path="url(#p662ed9d7a6)" d="M 151.147784 550.050644 
L 150.405899 555.580346 
L 149.795469 561.126196 
L 149.346307 566.687429 
L 149.100366 572.261269 
L 149.119424 577.840405 
L 149.499722 583.40665 
L 150.401614 588.913119 
L 152.109943 594.22739 
L 155.112816 598.941358 
L 159.806142 602.029863 
L 165.447752 602.698307 
L 171.038436 601.610952 
L 176.336197 599.564262 
L 181.367559 596.967212 
L 186.186535 594.020668 
L 190.837002 590.833081 
L 195.351405 587.468701 
L 199.7537 583.968506 
L 204.061897 580.360181 
L 208.289828 576.663286 
L 212.448339 572.892154 
L 216.546091 569.057592 
L 220.590113 565.167951 
L 224.586192 561.229812 
L 228.53915 557.248447 
L 232.453049 553.228144 
L 236.33134 549.172426 
L 240.17698 545.084225 
L 243.99252 540.965993 
L 247.78017 536.819804 
L 251.541855 532.647415 
" style="fill:none;stroke:#808080;stroke-linecap:square;stroke-width:1.5;"/>
   </g>
   <g id="line2d_20">
    <path clip-path="url(#p662ed9d7a6)" d="M 149.100366 602.698307 
L 149.100366 532.647415 
L 251.541855 532.647415 
L 251.541855 602.698307 
L 149.100366 602.698307 
" style="fill:none;stroke:#d3d3d3;stroke-linecap:square;stroke-width:0.5;"/>
   </g>
   <g id="line2d_21">
    <path clip-path="url(#p662ed9d7a6)" d="M 251.541855 532.647415 
L 255.279256 528.450327 
L 258.993846 524.229823 
L 262.68691 519.987002 
L 266.359577 515.722807 
L 270.012827 511.438048 
L 273.647509 507.133414 
L 277.264353 502.809491 
L 280.863972 498.466772 
L 284.446872 494.105663 
L 288.013452 489.726496 
L 291.564006 485.329525 
L 295.098718 480.914936 
L 298.61766 476.482843 
L 302.120779 472.033291 
L 305.607889 467.56625 
L 309.078647 463.081609 
L 312.532532 458.579167 
L 315.968807 454.058615 
L 319.386467 449.519518 
L 322.784165 444.961275 
L 326.160108 440.383074 
L 329.511893 435.78381 
L 332.836251 431.161958 
L 336.128616 426.515362 
L 339.382369 421.840851 
L 342.587343 417.133497 
L 345.726511 412.384968 
L 348.766985 407.579169 
L 351.625073 402.67624 
L 353.702647 397.485173 
" style="fill:none;stroke:#808080;stroke-linecap:square;stroke-width:1.5;"/>
   </g>
   <g id="line2d_22">
    <path clip-path="url(#p662ed9d7a6)" d="M 251.541855 532.647415 
L 251.541855 397.485173 
L 353.702647 397.485173 
L 353.702647 532.647415 
L 251.541855 532.647415 
" style="fill:none;stroke:#d3d3d3;stroke-linecap:square;stroke-width:0.5;"/>
   </g>
   <g id="line2d_23">
    <path clip-path="url(#p662ed9d7a6)" d="M 353.702647 397.485173 
L 356.195811 392.601997 
L 359.926576 388.387549 
L 363.914744 384.395198 
L 368.020698 380.515072 
L 372.192896 376.702026 
L 376.405788 372.932287 
L 380.644563 369.191452 
L 384.899731 365.469949 
L 389.164758 361.760981 
L 393.43489 358.059471 
L 397.706509 354.361468 
L 401.976751 350.663789 
L 406.243272 346.963801 
L 410.504094 343.259266 
L 414.757503 339.548242 
L 419.001974 335.829009 
L 423.23612 332.100018 
L 427.458652 328.359851 
L 431.668355 324.607193 
L 435.864059 320.840806 
L 440.044623 317.059515 
L 444.208922 313.262191 
L 448.355835 309.447738 
L 452.484231 305.615088 
L 456.592963 301.763188 
L 460.680859 297.890999 
L 464.746714 293.997483 
L 468.789283 290.081605 
L 472.807275 286.142325 
L 476.799343 282.178596 
" style="fill:none;stroke:#808080;stroke-linecap:square;stroke-width:1.5;"/>
   </g>
   <g id="line2d_24">
    <path clip-path="url(#p662ed9d7a6)" d="M 353.702647 397.485173 
L 353.702647 282.178596 
L 476.799343 282.178596 
L 476.799343 397.485173 
L 353.702647 397.485173 
" style="fill:none;stroke:#d3d3d3;stroke-linecap:square;stroke-width:0.5;"/>
   </g>
   <g id="line2d_25">
    <path clip-path="url(#p662ed9d7a6)" d="M 476.799343 282.178596 
L 480.764081 278.189361 
L 484.700016 274.17355 
L 488.6056 270.130078 
L 492.479204 266.057843 
L 496.31911 261.955725 
L 500.123503 257.822588 
L 503.890463 253.657274 
L 507.617959 249.458608 
L 511.303836 245.225397 
L 514.945808 240.956433 
L 518.541449 236.650491 
L 522.088182 232.30634 
L 525.583268 227.922739 
L 529.023799 223.498446 
L 532.406683 219.032226 
L 535.728636 214.522857 
L 538.986171 209.969139 
L 542.175587 205.369909 
L 545.292964 200.724052 
L 548.33415 196.030517 
L 551.29476 191.28834 
L 554.170168 186.496658 
L 556.95551 181.654741 
L 559.645685 176.762014 
L 562.235364 171.818088 
L 564.719006 166.822796 
L 567.090877 161.776223 
L 569.345078 156.678742 
L 571.475586 151.531058 
L 573.476302 146.334237 
" style="fill:none;stroke:#808080;stroke-linecap:square;stroke-width:1.5;"/>
   </g>
   <g id="line2d_26">
    <path clip-path="url(#p662ed9d7a6)" d="M 476.799343 282.178596 
L 476.799343 146.334237 
L 573.476302 146.334237 
L 573.476302 282.178596 
L 476.799343 282.178596 
" style="fill:none;stroke:#d3d3d3;stroke-linecap:square;stroke-width:0.5;"/>
   </g>
   <g id="line2d_27">
    <path clip-path="url(#p662ed9d7a6)" d="M 573.476302 146.334237 
" style="fill:none;stroke:#808080;stroke-linecap:square;stroke-width:1.5;"/>
   </g>
   <g id="line2d_28">
    <path clip-path="url(#p662ed9d7a6)" d="M 573.476302 146.334237 
L 573.476302 146.334237 
L 573.476302 146.334237 
L 573.476302 146.334237 
L 573.476302 146.334237 
" style="fill:none;stroke:#d3d3d3;stroke-linecap:square;stroke-width:0.5;"/>
   </g>
   <g id="line2d_29">
    <path clip-path="url(#p662ed9d7a6)" d="M 342.5302 398.493599 
L 342.5302 398.493599 
L 347.306971 385.931538 
L 351.717769 380.935729 
L 356.009805 376.637839 
L 360.286792 372.595785 
L 364.56559 368.68522 
L 368.848108 364.853142 
L 373.132917 361.071665 
L 377.417899 357.324079 
L 381.700948 353.599436 
L 385.980139 349.890073 
L 390.253748 346.190346 
L 394.52023 342.495923 
L 398.778187 338.803363 
L 403.026333 335.10985 
L 407.26347 331.413024 
L 411.488463 327.710859 
L 415.700226 324.001582 
L 419.8977 320.283612 
L 424.079845 316.555521 
L 428.245628 312.815995 
L 432.394011 309.063812 
L 436.523949 305.297823 
L 440.634373 301.516934 
L 444.724195 297.720097 
L 448.792291 293.906295 
L 452.837502 290.07454 
L 456.858625 286.223863 
L 460.854408 282.353307 
L 464.823545 278.461927 
L 468.764671 274.548781 
" style="fill:none;stroke:#000000;stroke-linecap:square;stroke-width:3;"/>
   </g>
   <g id="line2d_30">
    <path clip-path="url(#p662ed9d7a6)" d="M 342.5302 398.493599 
L 342.5302 274.548781 
L 468.764671 274.548781 
L 468.764671 398.493599 
L 342.5302 398.493599 
" style="fill:none;stroke:#d3d3d3;stroke-linecap:square;stroke-width:0.5;"/>
   </g>
   <g id="line2d_31">
    <path clip-path="url(#p662ed9d7a6)" d="M 468.764671 274.548781 
L 472.676353 270.612933 
L 476.557087 266.653446 
L 480.405294 262.669381 
L 484.219306 258.659797 
L 487.997367 254.623752 
L 491.737624 250.560297 
L 495.438117 246.468484 
L 499.096778 242.34736 
L 502.711415 238.195973 
L 506.279711 234.013375 
L 509.799215 229.798619 
L 513.267331 225.550769 
L 516.68131 221.268903 
L 520.038248 216.952117 
L 523.335069 212.599532 
L 526.568526 208.210305 
L 529.735188 203.783632 
L 532.831439 199.318766 
L 535.853469 194.815024 
L 538.797276 190.271798 
L 541.65866 185.688578 
L 544.433232 181.06496 
L 547.11641 176.400669 
L 549.703437 171.695573 
L 552.189389 166.949708 
L 554.569197 162.163295 
L 556.83767 157.336762 
L 558.989527 152.470763 
L 561.019437 147.566195 
L 562.922063 142.624221 
L 562.922063 142.624221 
" style="fill:none;stroke:#000000;stroke-linecap:square;stroke-width:3;"/>
   </g>
   <g id="line2d_32">
    <path clip-path="url(#p662ed9d7a6)" d="M 468.764671 274.548781 
L 468.764671 142.624221 
L 562.922063 142.624221 
L 562.922063 274.548781 
L 468.764671 274.548781 
" style="fill:none;stroke:#d3d3d3;stroke-linecap:square;stroke-width:0.5;"/>
   </g>
   <g id="line2d_33">
    <path clip-path="url(#p662ed9d7a6)" d="M 562.922063 142.624221 
" style="fill:none;stroke:#000000;stroke-linecap:square;stroke-width:3;"/>
   </g>
   <g id="line2d_34">
    <path clip-path="url(#p662ed9d7a6)" d="M 562.922063 142.624221 
L 562.922063 142.624221 
L 562.922063 142.624221 
L 562.922063 142.624221 
L 562.922063 142.624221 
" style="fill:none;stroke:#d3d3d3;stroke-linecap:square;stroke-width:0.5;"/>
   </g>
   <g id="line2d_35">
    <path clip-path="url(#p662ed9d7a6)" d="M 562.922063 142.624221 
L 562.922063 142.624221 
L 564.434858 138.062711 
L 565.469069 133.710121 
L 565.880863 129.849321 
L 565.629309 127.072177 
L 565.179915 125.982122 
L 564.602717 125.54576 
L 562.465368 124.904312 
L 558.854931 124.656216 
L 554.480972 124.981386 
L 549.746609 125.794111 
L 544.842448 126.987449 
L 539.861418 128.477932 
L 534.851359 130.204935 
L 529.838037 132.124512 
L 524.835778 134.204297 
L 519.852689 136.419969 
L 514.893375 138.752886 
L 509.96042 141.188494 
L 505.055225 143.715242 
L 500.178496 146.323833 
L 495.330542 149.006695 
L 490.511454 151.757592 
L 485.721223 154.571354 
L 480.959809 157.443665 
L 476.227193 160.370908 
L 471.52341 163.350047 
L 466.848576 166.378538 
" style="fill:none;stroke:#000000;stroke-linecap:square;stroke-width:3;"/>
   </g>
   <g id="line2d_36">
    <path clip-path="url(#p662ed9d7a6)" d="M 466.848576 166.378538 
L 466.848576 124.656216 
L 565.880863 124.656216 
L 565.880863 166.378538 
L 466.848576 166.378538 
" style="fill:none;stroke:#d3d3d3;stroke-linecap:square;stroke-width:0.5;"/>
   </g>
   <g id="line2d_37">
    <path clip-path="url(#p662ed9d7a6)" d="M 466.848576 166.378538 
L 462.202905 169.454258 
L 457.586724 172.575452 
L 453.000496 175.74069 
L 448.444829 178.948835 
L 443.920497 182.199019 
L 439.428458 185.490624 
L 434.969876 188.82327 
L 430.546144 192.196803 
L 426.158909 195.611292 
L 421.810105 199.067024 
L 417.501979 202.564505 
L 413.237129 206.104457 
L 409.018534 209.687823 
L 404.849583 213.315765 
L 400.734104 216.989666 
L 396.676372 220.711125 
L 392.681112 224.481953 
L 388.753466 228.30416 
L 384.898935 232.179936 
L 381.123265 236.111625 
L 377.432301 240.101684 
L 373.831767 244.152628 
L 370.327015 248.266952 
L 366.922743 252.44704 
L 363.622699 256.695029 
L 360.42943 261.012669 
L 360.42943 261.012669 
" style="fill:none;stroke:#000000;stroke-linecap:square;stroke-width:3;"/>
   </g>
   <g id="line2d_38">
    <path clip-path="url(#p662ed9d7a6)" d="M 360.42943 261.012669 
L 360.42943 166.378538 
L 466.848576 166.378538 
L 466.848576 261.012669 
L 360.42943 261.012669 
" style="fill:none;stroke:#d3d3d3;stroke-linecap:square;stroke-width:0.5;"/>
   </g>
   <g id="line2d_39">
    <path clip-path="url(#p662ed9d7a6)" d="M 360.42943 261.012669 
L 360.42943 261.012669 
L 356.161354 266.235964 
L 352.048549 270.65778 
L 347.965035 274.816051 
L 343.889505 278.848964 
L 339.817718 282.813009 
L 335.749464 286.737086 
L 331.685687 290.638069 
L 327.627702 294.526691 
L 323.576944 298.41021 
L 319.534884 302.29376 
L 315.502998 306.181108 
L 311.482748 310.075112 
L 307.475586 313.978002 
L 303.482942 317.891573 
L 299.506236 321.81731 
L 295.546872 325.756479 
L 291.606247 329.710194 
L 287.685754 333.679461 
L 283.786791 337.665212 
L 279.910763 341.668333 
L 276.059095 345.689681 
L 272.233236 349.730098 
L 268.434671 353.790423 
L 264.664926 357.871497 
L 260.925581 361.974169 
L 257.218279 366.099298 
L 253.544731 370.247757 
L 249.90673 374.420434 
L 246.306156 378.618225 
L 242.744988 382.842041 
L 239.225308 387.092801 
L 235.74931 391.371426 
" style="fill:none;stroke:#000000;stroke-linecap:square;stroke-width:3;"/>
   </g>
   <g id="line2d_40">
    <path clip-path="url(#p662ed9d7a6)" d="M 235.74931 391.371426 
L 235.74931 261.012669 
L 360.42943 261.012669 
L 360.42943 391.371426 
L 235.74931 391.371426 
" style="fill:none;stroke:#d3d3d3;stroke-linecap:square;stroke-width:0.5;"/>
   </g>
   <g id="line2d_41">
    <path clip-path="url(#p662ed9d7a6)" d="M 235.74931 391.371426 
L 232.319303 395.678841 
L 228.937717 400.015968 
L 225.607105 404.383717 
L 222.330144 408.782983 
L 219.109629 413.214639 
L 215.948471 417.679526 
L 212.849683 422.178446 
L 209.816373 426.712154 
L 206.851719 431.281343 
L 203.958954 435.886642 
L 201.141328 440.528597 
L 198.402082 445.207669 
L 195.744405 449.924218 
L 193.171393 454.678495 
L 190.685994 459.470634 
L 188.290965 464.300646 
L 185.988809 469.16841 
L 183.781729 474.073667 
L 181.671571 479.016021 
L 179.659781 483.994934 
L 177.747359 489.00973 
L 175.93483 494.059593 
L 174.222224 499.143576 
L 172.609061 504.260605 
L 171.094358 509.409491 
L 169.676642 514.588943 
L 168.353974 519.797577 
L 167.123992 525.033938 
L 165.983951 530.296516 
L 164.930779 535.583764 
L 163.961131 540.894119 
L 163.071448 546.226018 
L 162.258017 551.577918 
" style="fill:none;stroke:#000000;stroke-linecap:square;stroke-width:3;"/>
   </g>
   <g id="line2d_42">
    <path clip-path="url(#p662ed9d7a6)" d="M 162.258017 551.577918 
L 162.258017 391.371426 
L 235.74931 391.371426 
L 235.74931 551.577918 
L 162.258017 551.577918 
" style="fill:none;stroke:#d3d3d3;stroke-linecap:square;stroke-width:0.5;"/>
   </g>
   <g id="line2d_43">
    <path clip-path="url(#p662ed9d7a6)" d="M 162.258017 551.577918 
" style="fill:none;stroke:#000000;stroke-linecap:square;stroke-width:3;"/>
   </g>
   <g id="line2d_44">
    <path clip-path="url(#p662ed9d7a6)" d="M 162.258017 551.577918 
L 162.258017 551.577918 
L 162.258017 551.577918 
L 162.258017 551.577918 
L 162.258017 551.577918 
" style="fill:none;stroke:#d3d3d3;stroke-linecap:square;stroke-width:0.5;"/>
   </g>
   <g id="line2d_45">
    <path clip-path="url(#p662ed9d7a6)" d="M 162.258017 551.577918 
L 161.546682 556.879355 
L 160.966574 562.148622 
L 160.544921 567.366654 
L 160.31795 572.501648 
L 160.3342 577.497558 
L 160.656888 582.248748 
L 161.354445 586.540692 
L 162.421259 589.917552 
L 163.421363 591.595195 
L 163.570943 591.732801 
L 164.686908 591.792725 
L 167.685033 591.179811 
L 171.552475 589.676746 
L 175.71226 587.526444 
L 179.949286 584.934424 
L 184.183482 582.031538 
L 188.384463 578.900405 
L 192.541398 575.5951 
L 196.651594 572.152493 
L 200.715816 568.598669 
L 204.736264 564.952687 
L 208.715647 561.228856 
L 212.656761 557.438169 
L 216.562295 553.589243 
L 220.434753 549.688943 
L 224.27642 545.742824 
L 228.089366 541.755433 
L 231.875453 537.730534 
L 235.636351 533.671274 
L 239.373554 529.580302 
L 243.088396 525.459867 
" style="fill:none;stroke:#000000;stroke-linecap:square;stroke-width:3;"/>
   </g>
   <g id="line2d_46">
    <path clip-path="url(#p662ed9d7a6)" d="M 160.31795 591.792725 
L 160.31795 525.459867 
L 243.088396 525.459867 
L 243.088396 591.792725 
L 160.31795 591.792725 
" style="fill:none;stroke:#d3d3d3;stroke-linecap:square;stroke-width:0.5;"/>
   </g>
   <g id="line2d_47">
    <path clip-path="url(#p662ed9d7a6)" d="M 243.088396 525.459867 
L 246.782064 521.311889 
L 250.455613 517.138011 
L 254.109975 512.939652 
L 257.745969 508.718036 
L 261.364306 504.474223 
L 264.965598 500.209133 
L 268.550359 495.923563 
L 272.119009 491.618205 
L 275.671872 487.293657 
L 279.209177 482.950435 
L 282.731049 478.588982 
L 286.237511 474.209676 
L 289.728465 469.812834 
L 293.203684 465.39872 
L 296.662792 460.96755 
L 300.105235 456.519495 
L 303.53025 452.054689 
L 306.936808 447.573233 
L 310.323546 443.075204 
L 313.688665 438.560671 
L 317.029769 434.02972 
L 320.343627 429.482506 
L 323.625775 424.919346 
L 326.869838 420.340934 
L 330.066251 415.748829 
L 333.199614 411.146714 
L 336.242354 406.544205 
L 339.135655 401.971624 
L 341.702834 397.572708 
L 342.5302 398.493599 
L 342.5302 398.493599 
" style="fill:none;stroke:#000000;stroke-linecap:square;stroke-width:3;"/>
   </g>
   <g id="line2d_48">
    <path clip-path="url(#p662ed9d7a6)" d="M 243.088396 525.459867 
L 243.088396 397.572708 
L 342.5302 397.572708 
L 342.5302 525.459867 
L 243.088396 525.459867 
" style="fill:none;stroke:#d3d3d3;stroke-linecap:square;stroke-width:0.5;"/>
   </g>
   <g id="line2d_49">
    <path clip-path="url(#p662ed9d7a6)" d="M 342.5302 398.493599 
" style="fill:none;stroke:#000000;stroke-linecap:square;stroke-width:3;"/>
   </g>
   <g id="line2d_50">
    <path clip-path="url(#p662ed9d7a6)" d="M 342.5302 398.493599 
L 342.5302 398.493599 
L 342.5302 398.493599 
L 342.5302 398.493599 
L 342.5302 398.493599 
" style="fill:none;stroke:#d3d3d3;stroke-linecap:square;stroke-width:0.5;"/>
   </g>
   <g id="line2d_51">
    <path clip-path="url(#p662ed9d7a6)" d="M 162.258017 551.577918 
L 162.258017 551.577918 
L 162.258017 551.577918 
" style="fill:none;stroke:#000000;stroke-linecap:square;stroke-width:3;"/>
   </g>
   <g id="line2d_52">
    <path clip-path="url(#p662ed9d7a6)" d="M 162.258017 551.577918 
L 162.258017 551.577918 
L 162.258017 551.577918 
L 162.258017 551.577918 
L 162.258017 551.577918 
" style="fill:none;stroke:#d3d3d3;stroke-linecap:square;stroke-width:0.5;"/>
   </g>
   <g id="line2d_53">
    <path clip-path="url(#p662ed9d7a6)" d="M 162.258017 551.577918 
L 162.258017 551.577918 
L 162.258017 551.577918 
" style="fill:none;stroke:#000000;stroke-linecap:square;stroke-width:3;"/>
   </g>
   <g id="line2d_54">
    <path clip-path="url(#p662ed9d7a6)" d="M 162.258017 551.577918 
L 162.258017 551.577918 
L 162.258017 551.577918 
L 162.258017 551.577918 
L 162.258017 551.577918 
" style="fill:none;stroke:#d3d3d3;stroke-linecap:square;stroke-width:0.5;"/>
   </g>
   <g id="line2d_55">
    <path clip-path="url(#p662ed9d7a6)" d="M 140.037551 548.523369 
L 140.037551 548.523369 
L 140.037551 548.523369 
" style="fill:none;stroke:#000000;stroke-linecap:square;stroke-width:3;"/>
   </g>
   <g id="line2d_56">
    <path clip-path="url(#p662ed9d7a6)" d="M 140.037551 548.523369 
L 140.037551 548.523369 
L 140.037551 548.523369 
L 140.037551 548.523369 
L 140.037551 548.523369 
" style="fill:none;stroke:#d3d3d3;stroke-linecap:square;stroke-width:0.5;"/>
   </g>
   <g id="line2d_57">
    <path clip-path="url(#p662ed9d7a6)" d="M 140.037551 548.523369 
L 140.037551 548.523369 
L 140.037551 548.523369 
" style="fill:none;stroke:#000000;stroke-linecap:square;stroke-width:3;"/>
   </g>
   <g id="line2d_58">
    <path clip-path="url(#p662ed9d7a6)" d="M 140.037551 548.523369 
L 140.037551 548.523369 
L 140.037551 548.523369 
L 140.037551 548.523369 
L 140.037551 548.523369 
" style="fill:none;stroke:#d3d3d3;stroke-linecap:square;stroke-width:0.5;"/>
   </g>
   <g id="line2d_59">
    <path clip-path="url(#p662ed9d7a6)" d="M 140.037551 548.523369 
L 139.265115 554.281338 
L 138.624363 560.10377 
L 138.147693 566.008204 
L 137.882783 572.020889 
L 137.904647 578.183252 
L 138.342556 584.564551 
L 139.448782 591.285546 
L 141.798627 598.537229 
L 146.804269 606.287521 
L 156.04134 612.326925 
L 166.208595 613.603888 
L 174.391839 612.042093 
L 181.119919 609.451778 
L 187.022857 606.40798 
L 192.423784 603.106912 
L 197.490522 599.634624 
L 202.318346 596.036997 
L 206.966001 592.341913 
L 211.4722 588.567868 
L 215.86384 584.727903 
L 220.160414 580.83162 
L 224.376535 576.886328 
L 228.523465 572.897733 
L 232.610088 568.870381 
L 236.643547 564.807951 
L 240.629678 560.713463 
L 244.573314 556.58942 
L 248.478508 552.437916 
L 252.348689 548.260713 
L 256.186786 544.059306 
L 259.995314 539.834963 
" style="fill:none;stroke:#000000;stroke-linecap:square;stroke-width:3;"/>
   </g>
   <g id="line2d_60">
    <path clip-path="url(#p662ed9d7a6)" d="M 137.882783 613.603888 
L 137.882783 539.834963 
L 259.995314 539.834963 
L 259.995314 613.603888 
L 137.882783 613.603888 
" style="fill:none;stroke:#d3d3d3;stroke-linecap:square;stroke-width:0.5;"/>
   </g>
   <g id="line2d_61">
    <path clip-path="url(#p662ed9d7a6)" d="M 259.995314 539.834963 
L 263.776449 535.588766 
L 267.532078 531.321634 
L 271.263846 527.034351 
L 274.973186 522.727579 
L 278.661348 518.401873 
L 282.329421 514.057695 
L 285.978346 509.695419 
L 289.608934 505.315338 
L 293.221871 500.91767 
L 296.817727 496.502557 
L 300.396963 492.070067 
L 303.959926 487.620195 
L 307.506855 483.152852 
L 311.037874 478.667863 
L 314.552986 474.164951 
L 318.052058 469.643724 
L 321.534815 465.103644 
L 325.000807 460.543997 
L 328.449387 455.963831 
L 331.879664 451.361879 
L 335.290447 446.736429 
L 338.68016 442.085115 
L 342.046726 437.404571 
L 345.387394 432.68979 
L 348.698487 427.932873 
L 351.975072 423.120279 
L 355.210667 418.225731 
L 358.398314 413.186714 
L 361.547312 407.779772 
L 363.540342 401.010316 
" style="fill:none;stroke:#000000;stroke-linecap:square;stroke-width:3;"/>
   </g>
   <g id="line2d_62">
    <path clip-path="url(#p662ed9d7a6)" d="M 259.995314 539.834963 
L 259.995314 401.010316 
L 363.540342 401.010316 
L 363.540342 539.834963 
L 259.995314 539.834963 
" style="fill:none;stroke:#d3d3d3;stroke-linecap:square;stroke-width:0.5;"/>
   </g>
   <g id="line2d_63">
    <path clip-path="url(#p662ed9d7a6)" d="M 363.540342 401.010316 
L 368.135383 395.839369 
L 371.819682 392.152557 
L 375.754603 388.434359 
L 379.820203 384.718832 
L 383.963469 381.011432 
L 388.15621 377.311239 
L 392.381563 373.615818 
L 396.628568 369.922526 
L 400.889642 366.22887 
L 405.159271 362.532589 
L 409.433272 358.831655 
L 413.708357 355.12424 
L 417.981856 351.408682 
L 422.251537 347.68346 
L 426.515485 343.947159 
L 430.772013 340.198454 
L 435.019605 336.43609 
L 439.256866 332.658864 
L 443.48249 328.865617 
L 447.695234 325.055218 
L 451.893896 321.226558 
L 456.077296 317.378541 
L 460.244266 313.510079 
L 464.393634 309.620082 
L 468.524215 305.707457 
L 472.634803 301.771103 
L 476.724159 297.809902 
L 480.791005 293.822722 
L 484.834015 289.80841 
L 488.85181 285.765789 
" style="fill:none;stroke:#000000;stroke-linecap:square;stroke-width:3;"/>
   </g>
   <g id="line2d_64">
    <path clip-path="url(#p662ed9d7a6)" d="M 363.540342 401.010316 
L 363.540342 285.765789 
L 488.85181 285.765789 
L 488.85181 401.010316 
L 363.540342 401.010316 
" style="fill:none;stroke:#d3d3d3;stroke-linecap:square;stroke-width:0.5;"/>
   </g>
   <g id="line2d_65">
    <path clip-path="url(#p662ed9d7a6)" d="M 488.85181 285.765789 
L 492.842945 281.693654 
L 496.805907 277.590775 
L 500.739103 273.455888 
L 504.640853 269.287699 
L 508.509382 265.084879 
L 512.342809 260.846064 
L 516.139141 256.569856 
L 519.896257 252.254821 
L 523.611904 247.89949 
L 527.283682 243.502364 
L 530.909033 239.061911 
L 534.485226 234.576575 
L 538.009351 230.044776 
L 541.478298 225.464921 
L 544.888746 220.83541 
L 548.237153 216.154646 
L 551.519735 211.421052 
L 554.732459 206.63308 
L 557.871025 201.789236 
L 560.93086 196.888101 
L 563.907105 191.928355 
L 566.79461 186.908813 
L 569.587933 181.828455 
L 572.281339 176.686469 
L 574.868816 171.482297 
L 577.344084 166.215683 
L 579.700628 160.886722 
L 581.931735 155.495922 
L 584.030541 150.044253 
L 584.030541 150.044253 
" style="fill:none;stroke:#000000;stroke-linecap:square;stroke-width:3;"/>
   </g>
   <g id="line2d_66">
    <path clip-path="url(#p662ed9d7a6)" d="M 488.85181 285.765789 
L 488.85181 150.044253 
L 584.030541 150.044253 
L 584.030541 285.765789 
L 488.85181 285.765789 
" style="fill:none;stroke:#d3d3d3;stroke-linecap:square;stroke-width:0.5;"/>
   </g>
   <g id="line2d_67">
    <path clip-path="url(#p662ed9d7a6)" d="M 584.030541 150.044253 
" style="fill:none;stroke:#000000;stroke-linecap:square;stroke-width:3;"/>
   </g>
   <g id="line2d_68">
    <path clip-path="url(#p662ed9d7a6)" d="M 584.030541 150.044253 
L 584.030541 150.044253 
L 584.030541 150.044253 
L 584.030541 150.044253 
L 584.030541 150.044253 
" style="fill:none;stroke:#d3d3d3;stroke-linecap:square;stroke-width:0.5;"/>
   </g>
   <g id="line2d_69">
    <path clip-path="url(#p662ed9d7a6)" d="M 342.067826 248.44475 
L 342.067826 248.44475 
L 339.216313 251.903533 
L 335.672825 255.710465 
L 331.882951 259.569164 
L 327.974171 263.436913 
L 323.999192 267.306659 
L 319.984566 271.17899 
L 315.945545 275.056202 
L 311.891803 278.940758 
L 307.829983 282.834885 
L 303.764962 286.740498 
L 299.700526 290.659231 
L 295.639752 294.59249 
L 291.58524 298.541501 
L 287.539254 302.507361 
L 283.503817 306.491079 
L 279.480777 310.493602 
L 275.471853 314.515847 
L 271.478668 318.558715 
L 267.502775 322.623111 
L 263.545685 326.709956 
L 259.608881 330.820196 
L 255.693835 334.954807 
L 251.802026 339.114806 
L 247.934956 343.301249 
L 244.094157 347.515238 
L 240.281214 351.757921 
L 236.49777 356.030491 
L 232.745545 360.334187 
L 229.026344 364.670292 
L 225.342072 369.040129 
L 221.694746 373.44506 
L 218.086506 377.886475 
" style="fill:none;stroke:#000000;stroke-linecap:square;stroke-width:3;"/>
   </g>
   <g id="line2d_70">
    <path clip-path="url(#p662ed9d7a6)" d="M 218.086506 377.886475 
L 218.086506 248.44475 
L 342.067826 248.44475 
L 342.067826 377.886475 
L 218.086506 377.886475 
" style="fill:none;stroke:#d3d3d3;stroke-linecap:square;stroke-width:0.5;"/>
   </g>
   <g id="line2d_71">
    <path clip-path="url(#p662ed9d7a6)" d="M 218.086506 377.886475 
L 214.519626 382.36579 
L 210.996524 386.884436 
L 207.519772 391.44385 
L 204.092102 396.045459 
L 200.716414 400.690666 
L 197.395774 405.38083 
L 194.13342 410.117246 
L 190.932753 414.901119 
L 187.797328 419.733535 
L 184.730842 424.615429 
L 181.737107 429.547553 
L 178.820023 434.530434 
L 175.98354 439.564345 
L 173.231606 444.64926 
L 170.568112 449.784823 
L 167.996826 454.970322 
L 165.521318 460.20466 
L 163.144878 465.486348 
L 160.870437 470.813503 
L 158.700483 476.183863 
L 156.636985 481.594817 
L 154.681327 487.043445 
L 152.834255 492.52658 
L 151.095844 498.040873 
L 149.465482 503.582869 
L 147.941884 509.149086 
L 146.523116 514.736087 
L 145.206648 520.340554 
L 143.98942 525.959343 
L 142.867914 531.589538 
L 141.838246 537.228478 
L 140.896247 542.873785 
L 140.037551 548.523369 
" style="fill:none;stroke:#000000;stroke-linecap:square;stroke-width:3;"/>
   </g>
   <g id="line2d_72">
    <path clip-path="url(#p662ed9d7a6)" d="M 140.037551 548.523369 
L 140.037551 377.886475 
L 218.086506 377.886475 
L 218.086506 548.523369 
L 140.037551 548.523369 
" style="fill:none;stroke:#d3d3d3;stroke-linecap:square;stroke-width:0.5;"/>
   </g>
   <g id="line2d_73">
    <path clip-path="url(#p662ed9d7a6)" d="M 140.037551 548.523369 
" style="fill:none;stroke:#000000;stroke-linecap:square;stroke-width:3;"/>
   </g>
   <g id="line2d_74">
    <path clip-path="url(#p662ed9d7a6)" d="M 140.037551 548.523369 
L 140.037551 548.523369 
L 140.037551 548.523369 
L 140.037551 548.523369 
L 140.037551 548.523369 
" style="fill:none;stroke:#d3d3d3;stroke-linecap:square;stroke-width:0.5;"/>
   </g>
   <g id="line2d_75">
    <path clip-path="url(#p662ed9d7a6)" d="M 584.030541 150.044253 
L 584.030541 150.044253 
L 586.036266 143.98525 
L 587.576352 137.464033 
L 588.318052 130.230205 
L 587.442595 121.939295 
L 583.197799 112.950627 
L 575.106503 106.226965 
L 566.398297 103.381196 
L 558.602993 102.796112 
L 551.560127 103.305877 
L 545.006128 104.425977 
L 538.781006 105.938573 
L 532.791773 107.729659 
L 526.981411 109.731934 
L 521.312737 111.902086 
L 515.760164 114.210448 
L 510.305301 116.635739 
L 504.934461 119.16214 
L 499.637173 121.77756 
L 494.405253 124.472555 
L 489.232185 127.239619 
L 484.112716 130.072706 
L 479.042563 132.966896 
L 474.018208 135.918163 
L 469.036748 138.923201 
L 464.095782 141.979301 
L 459.193332 145.084257 
L 454.327775 148.236296 
" style="fill:none;stroke:#000000;stroke-linecap:square;stroke-width:3;"/>
   </g>
   <g id="line2d_76">
    <path clip-path="url(#p662ed9d7a6)" d="M 454.327775 150.044253 
L 454.327775 102.796112 
L 588.318052 102.796112 
L 588.318052 150.044253 
L 454.327775 150.044253 
" style="fill:none;stroke:#d3d3d3;stroke-linecap:square;stroke-width:0.5;"/>
   </g>
   <g id="line2d_77">
    <path clip-path="url(#p662ed9d7a6)" d="M 454.327775 148.236296 
L 449.497799 151.434032 
L 444.702367 154.676422 
L 439.940693 157.962743 
L 435.212223 161.292576 
L 430.516628 164.665792 
L 425.853795 168.082551 
L 421.223834 171.5433 
L 416.627081 175.048783 
L 412.064112 178.600048 
L 407.535765 182.198461 
L 403.04316 185.845719 
L 398.587733 189.543869 
L 394.171278 193.295319 
L 389.795987 197.102845 
L 385.464512 200.969592 
L 381.180015 204.899054 
L 376.946244 208.895032 
L 372.767587 212.961557 
L 368.64913 217.102765 
L 364.596687 221.322723 
L 360.616796 225.625186 
L 356.716642 230.013297 
L 352.903901 234.489246 
L 349.186471 239.053918 
L 345.572085 243.70659 
L 342.067826 248.44475 
L 342.067826 248.44475 
" style="fill:none;stroke:#000000;stroke-linecap:square;stroke-width:3;"/>
   </g>
   <g id="line2d_78">
    <path clip-path="url(#p662ed9d7a6)" d="M 342.067826 248.44475 
L 342.067826 148.236296 
L 454.327775 148.236296 
L 454.327775 248.44475 
L 342.067826 248.44475 
" style="fill:none;stroke:#d3d3d3;stroke-linecap:square;stroke-width:0.5;"/>
   </g>
   <g id="line2d_79">
    <path clip-path="url(#p662ed9d7a6)" d="M 363.540342 401.010316 
L 364.875093 396.476747 
L 364.875093 396.476747 
" style="fill:none;stroke:#000000;stroke-linecap:square;stroke-width:3;"/>
   </g>
   <g id="line2d_80">
    <path clip-path="url(#p662ed9d7a6)" d="M 363.540342 401.010316 
L 363.540342 396.476747 
L 364.875093 396.476747 
L 364.875093 401.010316 
L 363.540342 401.010316 
" style="fill:none;stroke:#d3d3d3;stroke-linecap:square;stroke-width:0.5;"/>
   </g>
   <g id="line2d_81">
    <path clip-path="url(#p662ed9d7a6)" d="M 364.875093 396.476747 
L 364.875093 396.476747 
L 365.084651 399.272455 
L 363.540342 401.010316 
" style="fill:none;stroke:#000000;stroke-linecap:square;stroke-width:3;"/>
   </g>
   <g id="line2d_82">
    <path clip-path="url(#p662ed9d7a6)" d="M 363.540342 401.010316 
L 363.540342 396.476747 
L 365.084651 396.476747 
L 365.084651 401.010316 
L 363.540342 401.010316 
" style="fill:none;stroke:#d3d3d3;stroke-linecap:square;stroke-width:0.5;"/>
   </g>
   <g id="line2d_83">
    <path clip-path="url(#p662ed9d7a6)" d="M 460.588176 140.911305 
L 462.740405 141.045917 
L 464.857296 141.447542 
L 466.904087 142.109586 
L 468.847171 143.021178 
L 470.654643 144.16735 
L 472.296823 145.529281 
L 473.746748 147.084609 
L 474.98061 148.807795 
L 475.978148 150.670544 
L 476.722983 152.642271 
L 477.202885 154.690599 
L 477.409974 156.781896 
L 477.34085 158.881821 
L 476.996647 160.955895 
L 476.383018 162.970061 
L 475.510037 164.891246 
L 474.39204 166.687906 
L 473.047385 168.330538 
L 471.498149 169.79217 
L 469.769771 171.048803 
L 467.890633 172.079803 
L 465.891588 172.868241 
L 463.805461 173.401171 
L 461.666506 173.669841 
L 459.509845 173.669841 
L 457.370891 173.401171 
L 455.284764 172.868241 
L 453.285719 172.079803 
L 451.40658 171.048803 
L 449.678203 169.79217 
L 448.128967 168.330538 
L 446.784311 166.687906 
L 445.666314 164.891246 
L 444.793334 162.970061 
L 444.179704 160.955895 
L 443.835502 158.881821 
L 443.766377 156.781896 
L 443.973466 154.690599 
L 444.453369 152.642271 
L 445.198204 150.670544 
L 446.195742 148.807795 
L 447.429603 147.084609 
L 448.879528 145.529281 
L 450.521709 144.16735 
L 452.329181 143.021178 
L 454.272265 142.109586 
L 456.319056 141.447542 
L 458.435946 141.045917 
L 460.588176 140.911305 
" style="fill:none;stroke:#808080;stroke-linecap:square;stroke-width:1.5;"/>
   </g>
   <g id="line2d_84">
    <path clip-path="url(#p662ed9d7a6)" d="M 351.248628 238.332598 
L 353.400858 238.46721 
L 355.517748 238.868835 
L 357.564539 239.530879 
L 359.507623 240.442471 
L 361.315095 241.588642 
L 362.957276 242.950573 
L 364.4072 244.505901 
L 365.641062 246.229087 
L 366.6386 248.091837 
L 367.383435 250.063564 
L 367.863338 252.111892 
L 368.070427 254.203188 
L 368.001302 256.303114 
L 367.657099 258.377188 
L 367.04347 260.391354 
L 366.17049 262.312539 
L 365.052493 264.109198 
L 363.707837 265.75183 
L 362.158601 267.213463 
L 360.430224 268.470096 
L 358.551085 269.501096 
L 356.55204 270.289534 
L 354.465913 270.822463 
L 352.326958 271.091134 
L 350.170298 271.091134 
L 348.031343 270.822463 
L 345.945216 270.289534 
L 343.946171 269.501096 
L 342.067033 268.470096 
L 340.338655 267.213463 
L 338.789419 265.75183 
L 337.444763 264.109198 
L 336.326767 262.312539 
L 335.453786 260.391354 
L 334.840157 258.377188 
L 334.495954 256.303114 
L 334.42683 254.203188 
L 334.633919 252.111892 
L 335.113821 250.063564 
L 335.858656 248.091837 
L 336.856194 246.229087 
L 338.090056 244.505901 
L 339.539981 242.950573 
L 341.182161 241.588642 
L 342.989633 240.442471 
L 344.932717 239.530879 
L 346.979508 238.868835 
L 349.096398 238.46721 
L 351.248628 238.332598 
" style="fill:none;stroke:#808080;stroke-linecap:square;stroke-width:1.5;"/>
   </g>
   <g id="line2d_85">
    <path clip-path="url(#p662ed9d7a6)" d="M 223.419464 372.626204 
L 225.571694 372.760816 
L 227.688584 373.162441 
L 229.735375 373.824485 
L 231.678459 374.736077 
L 233.485931 375.882248 
L 235.128112 377.244179 
L 236.578036 378.799507 
L 237.811898 380.522693 
L 238.809436 382.385443 
L 239.554271 384.357169 
L 240.034174 386.405498 
L 240.241263 388.496794 
L 240.172138 390.59672 
L 239.827935 392.670794 
L 239.214306 394.68496 
L 238.341326 396.606145 
L 237.223329 398.402804 
L 235.878673 400.045436 
L 234.329437 401.507069 
L 232.60106 402.763702 
L 230.721921 403.794702 
L 228.722876 404.58314 
L 226.636749 405.116069 
L 224.497794 405.38474 
L 222.341134 405.38474 
L 220.202179 405.116069 
L 218.116052 404.58314 
L 216.117007 403.794702 
L 214.237869 402.763702 
L 212.509491 401.507069 
L 210.960255 400.045436 
L 209.615599 398.402804 
L 208.497603 396.606145 
L 207.624622 394.68496 
L 207.010993 392.670794 
L 206.66679 390.59672 
L 206.597666 388.496794 
L 206.804755 386.405498 
L 207.284657 384.357169 
L 208.029492 382.385443 
L 209.02703 380.522693 
L 210.260892 378.799507 
L 211.710817 377.244179 
L 213.352997 375.882248 
L 215.160469 374.736077 
L 217.103553 373.824485 
L 219.150344 373.162441 
L 221.267234 372.760816 
L 223.419464 372.626204 
" style="fill:none;stroke:#808080;stroke-linecap:square;stroke-width:1.5;"/>
   </g>
   <g id="line2d_86">
    <path clip-path="url(#p662ed9d7a6)" d="M 151.147784 533.654532 
L 153.300014 533.789144 
L 155.416904 534.190769 
L 157.463695 534.852813 
L 159.406779 535.764405 
L 161.214251 536.910576 
L 162.856431 538.272507 
L 164.306356 539.827835 
L 165.540218 541.551021 
L 166.537756 543.413771 
L 167.282591 545.385497 
L 167.762493 547.433826 
L 167.969583 549.525122 
L 167.900458 551.625048 
L 167.556255 553.699122 
L 166.942626 555.713288 
L 166.069646 557.634473 
L 164.951649 559.431132 
L 163.606993 561.073764 
L 162.057757 562.535397 
L 160.32938 563.79203 
L 158.450241 564.82303 
L 156.451196 565.611468 
L 154.365069 566.144397 
L 152.226114 566.413068 
L 150.069454 566.413068 
L 147.930499 566.144397 
L 145.844372 565.611468 
L 143.845327 564.82303 
L 141.966188 563.79203 
L 140.237811 562.535397 
L 138.688575 561.073764 
L 137.343919 559.431132 
L 136.225922 557.634473 
L 135.352942 555.713288 
L 134.739313 553.699122 
L 134.39511 551.625048 
L 134.325985 549.525122 
L 134.533075 547.433826 
L 135.012977 545.385497 
L 135.757812 543.413771 
L 136.75535 541.551021 
L 137.989212 539.827835 
L 139.439137 538.272507 
L 141.081317 536.910576 
L 142.888789 535.764405 
L 144.831873 534.852813 
L 146.878664 534.190769 
L 148.995554 533.789144 
L 151.147784 533.654532 
" style="fill:none;stroke:#808080;stroke-linecap:square;stroke-width:1.5;"/>
   </g>
   <g id="line2d_87">
    <path clip-path="url(#p662ed9d7a6)" d="M 251.541855 516.251304 
L 253.694085 516.385916 
L 255.810975 516.787541 
L 257.857766 517.449585 
L 259.80085 518.361177 
L 261.608322 519.507348 
L 263.250503 520.869279 
L 264.700427 522.424607 
L 265.934289 524.147793 
L 266.931827 526.010543 
L 267.676662 527.982269 
L 268.156565 530.030598 
L 268.363654 532.121894 
L 268.294529 534.22182 
L 267.950326 536.295894 
L 267.336697 538.310059 
L 266.463717 540.231245 
L 265.34572 542.027904 
L 264.001064 543.670536 
L 262.451828 545.132168 
L 260.723451 546.388802 
L 258.844312 547.419802 
L 256.845267 548.208239 
L 254.75914 548.741169 
L 252.620185 549.00984 
L 250.463525 549.00984 
L 248.32457 548.741169 
L 246.238443 548.208239 
L 244.239398 547.419802 
L 242.36026 546.388802 
L 240.631882 545.132168 
L 239.082646 543.670536 
L 237.73799 542.027904 
L 236.619994 540.231245 
L 235.747013 538.310059 
L 235.133384 536.295894 
L 234.789181 534.22182 
L 234.720057 532.121894 
L 234.927146 530.030598 
L 235.407048 527.982269 
L 236.151883 526.010543 
L 237.149421 524.147793 
L 238.383283 522.424607 
L 239.833208 520.869279 
L 241.475388 519.507348 
L 243.28286 518.361177 
L 245.225944 517.449585 
L 247.272735 516.787541 
L 249.389625 516.385916 
L 251.541855 516.251304 
" style="fill:none;stroke:#808080;stroke-linecap:square;stroke-width:1.5;"/>
   </g>
   <g id="line2d_88">
    <path clip-path="url(#p662ed9d7a6)" d="M 353.702647 381.089061 
L 355.854876 381.223673 
L 357.971766 381.625299 
L 360.018558 382.287342 
L 361.961642 383.198934 
L 363.769114 384.345106 
L 365.411294 385.707037 
L 366.861219 387.262365 
L 368.095081 388.985551 
L 369.092619 390.8483 
L 369.837454 392.820027 
L 370.317356 394.868355 
L 370.524445 396.959652 
L 370.455321 399.059577 
L 370.111118 401.133651 
L 369.497489 403.147817 
L 368.624508 405.069003 
L 367.506511 406.865662 
L 366.161855 408.508294 
L 364.61262 409.969926 
L 362.884242 411.226559 
L 361.005103 412.257559 
L 359.006059 413.045997 
L 356.919932 413.578927 
L 354.780977 413.847597 
L 352.624316 413.847597 
L 350.485362 413.578927 
L 348.399235 413.045997 
L 346.40019 412.257559 
L 344.521051 411.226559 
L 342.792674 409.969926 
L 341.243438 408.508294 
L 339.898782 406.865662 
L 338.780785 405.069003 
L 337.907805 403.147817 
L 337.294175 401.133651 
L 336.949973 399.059577 
L 336.880848 396.959652 
L 337.087937 394.868355 
L 337.567839 392.820027 
L 338.312675 390.8483 
L 339.310213 388.985551 
L 340.544074 387.262365 
L 341.993999 385.707037 
L 343.63618 384.345106 
L 345.443652 383.198934 
L 347.386736 382.287342 
L 349.433527 381.625299 
L 351.550417 381.223673 
L 353.702647 381.089061 
" style="fill:none;stroke:#808080;stroke-linecap:square;stroke-width:1.5;"/>
   </g>
   <g id="line2d_89">
    <path clip-path="url(#p662ed9d7a6)" d="M 476.799343 265.782484 
L 478.951573 265.917096 
L 481.068463 266.318721 
L 483.115254 266.980765 
L 485.058338 267.892357 
L 486.86581 269.038529 
L 488.50799 270.40046 
L 489.957915 271.955787 
L 491.191777 273.678973 
L 492.189315 275.541723 
L 492.93415 277.51345 
L 493.414052 279.561778 
L 493.621141 281.653075 
L 493.552017 283.753 
L 493.207814 285.827074 
L 492.594185 287.84124 
L 491.721204 289.762425 
L 490.603208 291.559084 
L 489.258552 293.201716 
L 487.709316 294.663349 
L 485.980938 295.919982 
L 484.1018 296.950982 
L 482.102755 297.73942 
L 480.016628 298.272349 
L 477.877673 298.54102 
L 475.721013 298.54102 
L 473.582058 298.272349 
L 471.495931 297.73942 
L 469.496886 296.950982 
L 467.617747 295.919982 
L 465.88937 294.663349 
L 464.340134 293.201716 
L 462.995478 291.559084 
L 461.877481 289.762425 
L 461.004501 287.84124 
L 460.390872 285.827074 
L 460.046669 283.753 
L 459.977544 281.653075 
L 460.184633 279.561778 
L 460.664536 277.51345 
L 461.409371 275.541723 
L 462.406909 273.678973 
L 463.640771 271.955787 
L 465.090695 270.40046 
L 466.732876 269.038529 
L 468.540348 267.892357 
L 470.483432 266.980765 
L 472.530223 266.318721 
L 474.647113 265.917096 
L 476.799343 265.782484 
" style="fill:none;stroke:#808080;stroke-linecap:square;stroke-width:1.5;"/>
   </g>
   <g id="line2d_90">
    <path clip-path="url(#p662ed9d7a6)" d="M 573.476302 129.938126 
L 575.628532 130.072737 
L 577.745422 130.474363 
L 579.792213 131.136407 
L 581.735297 132.047999 
L 583.542769 133.19417 
L 585.18495 134.556101 
L 586.634875 136.111429 
L 587.868736 137.834615 
L 588.866274 139.697364 
L 589.611109 141.669091 
L 590.091012 143.71742 
L 590.298101 145.808716 
L 590.228976 147.908642 
L 589.884774 149.982715 
L 589.271144 151.996881 
L 588.398164 153.918067 
L 587.280167 155.714726 
L 585.935511 157.357358 
L 584.386275 158.81899 
L 582.657898 160.075623 
L 580.778759 161.106623 
L 578.779714 161.895061 
L 576.693587 162.427991 
L 574.554633 162.696661 
L 572.397972 162.696661 
L 570.259017 162.427991 
L 568.17289 161.895061 
L 566.173845 161.106623 
L 564.294707 160.075623 
L 562.566329 158.81899 
L 561.017094 157.357358 
L 559.672438 155.714726 
L 558.554441 153.918067 
L 557.68146 151.996881 
L 557.067831 149.982715 
L 556.723628 147.908642 
L 556.654504 145.808716 
L 556.861593 143.71742 
L 557.341495 141.669091 
L 558.08633 139.697364 
L 559.083868 137.834615 
L 560.31773 136.111429 
L 561.767655 134.556101 
L 563.409835 133.19417 
L 565.217307 132.047999 
L 567.160391 131.136407 
L 569.207182 130.474363 
L 571.324073 130.072737 
L 573.476302 129.938126 
" style="fill:none;stroke:#808080;stroke-linecap:square;stroke-width:1.5;"/>
   </g>
   <g id="line2d_91">
    <path clip-path="url(#p662ed9d7a6)" d="M 573.476302 129.938126 
L 575.628532 130.072737 
L 577.745422 130.474363 
L 579.792213 131.136407 
L 581.735297 132.047999 
L 583.542769 133.19417 
L 585.18495 134.556101 
L 586.634875 136.111429 
L 587.868736 137.834615 
L 588.866274 139.697364 
L 589.611109 141.669091 
L 590.091012 143.71742 
L 590.298101 145.808716 
L 590.228976 147.908642 
L 589.884774 149.982715 
L 589.271144 151.996881 
L 588.398164 153.918067 
L 587.280167 155.714726 
L 585.935511 157.357358 
L 584.386275 158.81899 
L 582.657898 160.075623 
L 580.778759 161.106623 
L 578.779714 161.895061 
L 576.693587 162.427991 
L 574.554633 162.696661 
L 572.397972 162.696661 
L 570.259017 162.427991 
L 568.17289 161.895061 
L 566.173845 161.106623 
L 564.294707 160.075623 
L 562.566329 158.81899 
L 561.017094 157.357358 
L 559.672438 155.714726 
L 558.554441 153.918067 
L 557.68146 151.996881 
L 557.067831 149.982715 
L 556.723628 147.908642 
L 556.654504 145.808716 
L 556.861593 143.71742 
L 557.341495 141.669091 
L 558.08633 139.697364 
L 559.083868 137.834615 
L 560.31773 136.111429 
L 561.767655 134.556101 
L 563.409835 133.19417 
L 565.217307 132.047999 
L 567.160391 131.136407 
L 569.207182 130.474363 
L 571.324073 130.072737 
L 573.476302 129.938126 
" style="fill:none;stroke:#808080;stroke-linecap:square;stroke-width:1.5;"/>
   </g>
   <g id="line2d_92"/>
   <g id="line2d_93"/>
   <g id="line2d_94"/>
   <g id="line2d_95"/>
   <g id="line2d_96"/>
   <g id="line2d_97"/>
   <g id="line2d_98"/>
   <g id="line2d_99"/>
   <g id="line2d_100"/>
   <g id="line2d_101"/>
   <g id="line2d_102"/>
   <g id="line2d_103"/>
   <g id="line2d_104"/>
   <g id="line2d_105"/>
   <g id="line2d_106"/>
   <g id="line2d_107"/>
   <g id="line2d_108"/>
   <g id="line2d_109"/>
   <g id="line2d_110"/>
   <g id="line2d_111"/>
   <g id="line2d_112"/>
   <g id="line2d_113"/>
   <g id="line2d_114"/>
   <g id="line2d_115"/>
   <g id="line2d_116"/>
   <g id="line2d_117"/>
   <g id="line2d_118"/>
   <g id="line2d_119"/>
   <g id="line2d_120"/>
   <g id="line2d_121"/>
   <g id="line2d_122"/>
   <g id="line2d_123"/>
   <g id="line2d_124"/>
   <g id="line2d_125"/>
   <g id="line2d_126"/>
   <g id="line2d_127"/>
   <g id="line2d_128"/>
   <g id="line2d_129"/>
   <g id="line2d_130"/>
   <g id="line2d_131"/>
   <g id="line2d_132"/>
   <g id="line2d_133"/>
   <g id="line2d_134"/>
   <g id="line2d_135"/>
   <g id="line2d_136"/>
   <g id="line2d_137"/>
   <g id="line2d_138"/>
   <g id="line2d_139"/>
   <g id="line2d_140"/>
   <g id="line2d_141"/>
   <g id="line2d_142"/>
   <g id="patch_3">
    <path d="M 90 630 
L 90 86.4 
" style="fill:none;stroke:#000000;stroke-linecap:square;stroke-linejoin:miter;stroke-width:0.8;"/>
   </g>
   <g id="patch_4">
    <path d="M 648 630 
L 648 86.4 
" style="fill:none;stroke:#000000;stroke-linecap:square;stroke-linejoin:miter;stroke-width:0.8;"/>
   </g>
   <g id="patch_5">
    <path d="M 90 630 
L 648 630 
" style="fill:none;stroke:#000000;stroke-linecap:square;stroke-linejoin:miter;stroke-width:0.8;"/>
   </g>
   <g id="patch_6">
    <path d="M 90 86.4 
L 648 86.4 
" style="fill:none;stroke:#000000;stroke-linecap:square;stroke-linejoin:miter;stroke-width:0.8;"/>
   </g>
   <g id="text_11">
    <!-- 0 -->
    <g transform="translate(7.809584 491.454551)scale(0.1 -0.1)">
     <use xlink:href="#DejaVuSans-30"/>
    </g>
   </g>
   <g id="text_12">
    <!-- 0 -->
    <g transform="translate(7.809584 475.058439)scale(0.1 -0.1)">
     <use xlink:href="#DejaVuSans-30"/>
    </g>
   </g>
   <g id="text_13">
    <!-- 0 -->
    <g transform="translate(7.809584 458.662327)scale(0.1 -0.1)">
     <use xlink:href="#DejaVuSans-30"/>
    </g>
   </g>
  </g>
 </g>
 <defs>
  <clipPath id="p662ed9d7a6">
   <rect height="543.6" width="558" x="90" y="86.4"/>
  </clipPath>
 </defs>
</svg>
