<?xml version="1.0" encoding="utf-8" standalone="no"?>
<!DOCTYPE svg PUBLIC "-//W3C//DTD SVG 1.1//EN"
  "http://www.w3.org/Graphics/SVG/1.1/DTD/svg11.dtd">
<svg height="720pt" version="1.1" viewBox="0 0 720 720" width="720pt" xmlns="http://www.w3.org/2000/svg" xmlns:xlink="http://www.w3.org/1999/xlink">
 <metadata>
  <rdf:RDF xmlns:cc="http://creativecommons.org/ns#" xmlns:dc="http://purl.org/dc/elements/1.1/" xmlns:rdf="http://www.w3.org/1999/02/22-rdf-syntax-ns#">
   <cc:Work>
    <dc:type rdf:resource="http://purl.org/dc/dcmitype/StillImage"/>
    <dc:date>2022-01-11T13:26:09.894584</dc:date>
    <dc:format>image/svg+xml</dc:format>
    <dc:creator>
     <cc:Agent>
      <dc:title>Matplotlib v3.4.3, https://matplotlib.org/</dc:title>
     </cc:Agent>
    </dc:creator>
   </cc:Work>
  </rdf:RDF>
 </metadata>
 <defs>
  <style type="text/css">*{stroke-linecap:butt;stroke-linejoin:round;}</style>
 </defs>
 <g id="figure_1">
  <g id="patch_1">
   <path d="M 0 720 
L 720 720 
L 720 0 
L 0 0 
z
" style="fill:none;"/>
  </g>
  <g id="axes_1">
   <g id="patch_2">
    <path d="M 90 630 
L 648 630 
L 648 86.4 
L 90 86.4 
z
" style="fill:#ffffff;"/>
   </g>
   <g id="PathCollection_1">
    <defs>
     <path d="M 0.972304 -8.870829 
Q -1.277159 -8.870829 -2.413438 -6.653699 
Q -3.545098 -4.441189 -3.545098 0.006929 
Q -3.545098 4.436569 -2.413438 6.653699 
Q -1.277159 8.870829 0.972304 8.870829 
Q 3.240243 8.870829 4.371903 6.653699 
Q 5.508182 4.436569 5.508182 0.006929 
Q 5.508182 -4.441189 4.371903 -6.653699 
Q 3.240243 -8.870829 0.972304 -8.870829 
z
M 0.972304 -11.18034 
Q 4.598235 -11.18034 6.51051 -8.311928 
Q 8.422784 -5.448135 8.422784 0.006929 
Q 8.422784 5.448135 6.51051 8.316547 
Q 4.598235 11.18034 0.972304 11.18034 
Q -2.649008 11.18034 -4.561283 8.316547 
Q -6.473558 5.448135 -6.473558 0.006929 
Q -6.473558 -5.448135 -4.561283 -8.311928 
Q -2.649008 -11.18034 0.972304 -11.18034 
z
" id="mf625b46eb0" style="stroke:#808080;"/>
    </defs>
    <g clip-path="url(#pe3a1099911)">
     <use style="fill:#808080;stroke:#808080;" x="488.289575" xlink:href="#mf625b46eb0" y="305.973755"/>
    </g>
   </g>
   <g id="PathCollection_2">
    <defs>
     <path d="M -4.535873 8.63565 
L 0.404946 8.63565 
L 0.404946 -8.424791 
L -4.971969 -7.346533 
L -4.971969 -10.102082 
L 0.376192 -11.18034 
L 3.400108 -11.18034 
L 3.400108 8.63565 
L 8.340927 8.63565 
L 8.340927 11.18034 
L -4.535873 11.18034 
L -4.535873 8.63565 
z
" id="m3631186df1" style="stroke:#808080;"/>
    </defs>
    <g clip-path="url(#pe3a1099911)">
     <use style="fill:#808080;stroke:#808080;" x="353.396418" xlink:href="#m3631186df1" y="362.194143"/>
    </g>
   </g>
   <g id="PathCollection_3">
    <defs>
     <path d="M -2.294912 8.680651 
L 8.075736 8.680651 
L 8.075736 11.18034 
L -5.867913 11.18034 
L -5.867913 8.680651 
Q -4.177916 6.929457 -1.259259 3.982555 
Q 1.664105 1.030945 2.4126 0.174178 
Q 3.838976 -1.426376 4.403877 -2.537349 
Q 4.973486 -3.648321 4.973486 -4.721634 
Q 4.973486 -6.472828 3.744825 -7.574386 
Q 2.516165 -8.680651 0.543718 -8.680651 
Q -0.854413 -8.680651 -2.407892 -8.195778 
Q -3.956663 -7.710904 -5.72198 -6.722326 
L -5.72198 -9.725719 
Q -3.928418 -10.445968 -2.370232 -10.813154 
Q -0.807338 -11.18034 0.487227 -11.18034 
Q 3.900173 -11.18034 5.929111 -9.471513 
Q 7.958048 -7.767394 7.958048 -4.914642 
Q 7.958048 -3.558879 7.449637 -2.344341 
Q 6.945933 -1.13451 5.604292 0.513119 
Q 5.237107 0.941502 3.264659 2.979855 
Q 1.296919 5.018207 -2.294912 8.680651 
z
" id="m95a2ecf6c1" style="stroke:#808080;"/>
    </defs>
    <g clip-path="url(#pe3a1099911)">
     <use style="fill:#808080;stroke:#808080;" x="182.039224" xlink:href="#m95a2ecf6c1" y="473.454886"/>
    </g>
   </g>
   <g id="PathCollection_4">
    <defs>
     <path d="M 3.77605 -0.861447 
Q 5.868466 -0.413402 7.041697 1.004637 
Q 8.219548 2.418057 8.219548 4.496617 
Q 8.219548 7.683741 6.025513 9.43435 
Q 3.831478 11.18034 -0.210165 11.18034 
Q -1.563539 11.18034 -3.000054 10.912437 
Q -4.436569 10.644533 -5.965465 10.108727 
L -5.965465 7.295743 
Q -4.755282 8.002454 -3.314147 8.362737 
Q -1.868394 8.723021 -0.293308 8.723021 
Q 2.445772 8.723021 3.882287 7.64217 
Q 5.318802 6.561319 5.318802 4.496617 
Q 5.318802 2.588961 3.983905 1.517348 
Q 2.649008 0.441116 0.270213 0.441116 
L -2.242535 0.441116 
L -2.242535 -1.956155 
L 0.385688 -1.956155 
Q 2.533533 -1.956155 3.674431 -2.815293 
Q 4.815329 -3.674431 4.815329 -5.291088 
Q 4.815329 -6.949317 3.637479 -7.836169 
Q 2.464248 -8.72764 0.270213 -8.72764 
Q -0.930733 -8.72764 -2.302582 -8.464356 
Q -3.674431 -8.20569 -5.318802 -7.660646 
L -5.318802 -10.256536 
Q -3.655955 -10.718438 -2.205582 -10.949389 
Q -0.75521 -11.18034 0.528878 -11.18034 
Q 3.849954 -11.18034 5.780705 -9.66992 
Q 7.716074 -8.164119 7.716074 -5.595944 
Q 7.716074 -3.803764 6.690652 -2.570485 
Q 5.665229 -1.337207 3.77605 -0.861447 
z
" id="mf9f890b9bf" style="stroke:#808080;"/>
    </defs>
    <g clip-path="url(#pe3a1099911)">
     <use style="fill:#808080;stroke:#808080;" x="229.998602" xlink:href="#mf9f890b9bf" y="430.053044"/>
    </g>
   </g>
   <g id="PathCollection_5">
    <defs>
     <path d="M 2.695646 -8.544598 
L -4.943215 3.392919 
L 2.695646 3.392919 
L 2.695646 -8.544598 
z
M 1.900131 -11.18034 
L 5.705184 -11.18034 
L 5.705184 3.392919 
L 8.896829 3.392919 
L 8.896829 5.908855 
L 5.705184 5.908855 
L 5.705184 11.18034 
L 2.695646 11.18034 
L 2.695646 5.908855 
L -7.396852 5.908855 
L -7.396852 2.99037 
L 1.900131 -11.18034 
z
" id="m8f00829f84" style="stroke:#808080;"/>
    </defs>
    <g clip-path="url(#pe3a1099911)">
     <use style="fill:#808080;stroke:#808080;" x="388.423883" xlink:href="#m8f00829f84" y="442.819993"/>
    </g>
   </g>
   <g id="PathCollection_6">
    <defs>
     <path d="M -5.008473 -11.18034 
L 6.639575 -11.18034 
L 6.639575 -8.679629 
L -2.291535 -8.679629 
L -2.291535 -3.306861 
Q -1.647555 -3.527789 -1.003575 -3.635902 
Q -0.354894 -3.744015 0.293787 -3.744015 
Q 3.964943 -3.744015 6.108409 -1.732165 
Q 8.256576 0.279685 8.256576 3.715812 
Q 8.256576 7.255352 6.052002 9.220196 
Q 3.847428 11.18034 -0.16217 11.18034 
Q -1.544142 11.18034 -2.97782 10.945311 
Q -4.406798 10.710281 -5.934488 10.240223 
L -5.934488 7.255352 
Q -4.613624 7.974541 -3.203448 8.327085 
Q -1.793273 8.679629 -0.223278 8.679629 
Q 2.319738 8.679629 3.800422 7.344663 
Q 5.285807 6.009697 5.285807 3.715812 
Q 5.285807 1.426627 3.800422 0.091661 
Q 2.319738 -1.248005 -0.223278 -1.248005 
Q -1.412526 -1.248005 -2.597073 -0.984772 
Q -3.77692 -0.72154 -5.008473 -0.16217 
L -5.008473 -11.18034 
z
" id="md64b0d871c" style="stroke:#808080;"/>
    </defs>
    <g clip-path="url(#pe3a1099911)">
     <use style="fill:#808080;stroke:#808080;" x="514.446282" xlink:href="#md64b0d871c" y="563.001837"/>
    </g>
   </g>
   <g id="PathCollection_7">
    <defs>
     <path d="M 1.286397 -1.175541 
Q -0.676687 -1.175541 -1.826823 0.168594 
Q -2.97234 1.50811 -2.97234 3.845335 
Q -2.97234 6.168702 -1.826823 7.522075 
Q -0.676687 8.870829 1.286397 8.870829 
Q 3.249481 8.870829 4.394998 7.522075 
Q 5.540515 6.168702 5.540515 3.845335 
Q 5.540515 1.50811 4.394998 0.168594 
Q 3.249481 -1.175541 1.286397 -1.175541 
z
M 7.07403 -10.316583 
L 7.07403 -7.660646 
Q 5.974703 -8.177976 4.8569 -8.450499 
Q 3.739097 -8.72764 2.63977 -8.72764 
Q -0.247118 -8.72764 -1.771394 -6.778413 
Q -3.291052 -4.829186 -3.508146 -0.889162 
Q -2.658246 -2.145535 -1.374159 -2.815293 
Q -0.085452 -3.485051 1.457301 -3.485051 
Q 4.704473 -3.485051 6.589033 -1.512729 
Q 8.473594 0.454974 8.473594 3.845335 
Q 8.473594 7.166411 6.51051 9.175685 
Q 4.547426 11.18034 1.286397 11.18034 
Q -2.45501 11.18034 -4.43195 8.316547 
Q -6.408891 5.448135 -6.408891 0.006929 
Q -6.408891 -5.101708 -3.983905 -8.141024 
Q -1.55892 -11.18034 2.524295 -11.18034 
Q 3.623622 -11.18034 4.741425 -10.963246 
Q 5.859228 -10.746152 7.07403 -10.316583 
z
" id="m54d132078e" style="stroke:#808080;"/>
    </defs>
    <g clip-path="url(#pe3a1099911)">
     <use style="fill:#808080;stroke:#808080;" x="619.103726" xlink:href="#m54d132078e" y="517.427858"/>
    </g>
   </g>
   <g id="PathCollection_8">
    <defs>
     <path d="M -5.93042 -11.18034 
L 8.446356 -11.18034 
L 8.446356 -9.891222 
L 0.32827 11.18034 
L -2.829829 11.18034 
L 4.809032 -8.630858 
L -5.93042 -8.630858 
L -5.93042 -11.18034 
z
" id="m00fc0e24e0" style="stroke:#808080;"/>
    </defs>
    <g clip-path="url(#pe3a1099911)">
     <use style="fill:#808080;stroke:#808080;" x="561.079276" xlink:href="#m00fc0e24e0" y="503.381559"/>
    </g>
   </g>
   <g id="PathCollection_9"/>
   <g id="PathCollection_10"/>
   <g id="PathCollection_11"/>
   <g id="PathCollection_12"/>
   <g id="PathCollection_13"/>
   <g id="matplotlib.axis_1">
    <g id="xtick_1">
     <g id="line2d_1">
      <defs>
       <path d="M 0 0 
L 0 3.5 
" id="m5418f5d5e8" style="stroke:#000000;stroke-width:0.8;"/>
      </defs>
      <g>
       <use style="stroke:#000000;stroke-width:0.8;" x="138.686897" xlink:href="#m5418f5d5e8" y="630"/>
      </g>
     </g>
     <g id="text_1">
      <!-- −200 -->
      <g transform="translate(124.953303 644.598438)scale(0.1 -0.1)">
       <defs>
        <path d="M 678 2272 
L 4684 2272 
L 4684 1741 
L 678 1741 
L 678 2272 
z
" id="DejaVuSans-2212" transform="scale(0.015625)"/>
        <path d="M 1228 531 
L 3431 531 
L 3431 0 
L 469 0 
L 469 531 
Q 828 903 1448 1529 
Q 2069 2156 2228 2338 
Q 2531 2678 2651 2914 
Q 2772 3150 2772 3378 
Q 2772 3750 2511 3984 
Q 2250 4219 1831 4219 
Q 1534 4219 1204 4116 
Q 875 4013 500 3803 
L 500 4441 
Q 881 4594 1212 4672 
Q 1544 4750 1819 4750 
Q 2544 4750 2975 4387 
Q 3406 4025 3406 3419 
Q 3406 3131 3298 2873 
Q 3191 2616 2906 2266 
Q 2828 2175 2409 1742 
Q 1991 1309 1228 531 
z
" id="DejaVuSans-32" transform="scale(0.015625)"/>
        <path d="M 2034 4250 
Q 1547 4250 1301 3770 
Q 1056 3291 1056 2328 
Q 1056 1369 1301 889 
Q 1547 409 2034 409 
Q 2525 409 2770 889 
Q 3016 1369 3016 2328 
Q 3016 3291 2770 3770 
Q 2525 4250 2034 4250 
z
M 2034 4750 
Q 2819 4750 3233 4129 
Q 3647 3509 3647 2328 
Q 3647 1150 3233 529 
Q 2819 -91 2034 -91 
Q 1250 -91 836 529 
Q 422 1150 422 2328 
Q 422 3509 836 4129 
Q 1250 4750 2034 4750 
z
" id="DejaVuSans-30" transform="scale(0.015625)"/>
       </defs>
       <use xlink:href="#DejaVuSans-2212"/>
       <use x="83.789062" xlink:href="#DejaVuSans-32"/>
       <use x="147.412109" xlink:href="#DejaVuSans-30"/>
       <use x="211.035156" xlink:href="#DejaVuSans-30"/>
      </g>
     </g>
    </g>
    <g id="xtick_2">
     <g id="line2d_2">
      <g>
       <use style="stroke:#000000;stroke-width:0.8;" x="235.737492" xlink:href="#m5418f5d5e8" y="630"/>
      </g>
     </g>
     <g id="text_2">
      <!-- −100 -->
      <g transform="translate(222.003898 644.598438)scale(0.1 -0.1)">
       <defs>
        <path d="M 794 531 
L 1825 531 
L 1825 4091 
L 703 3866 
L 703 4441 
L 1819 4666 
L 2450 4666 
L 2450 531 
L 3481 531 
L 3481 0 
L 794 0 
L 794 531 
z
" id="DejaVuSans-31" transform="scale(0.015625)"/>
       </defs>
       <use xlink:href="#DejaVuSans-2212"/>
       <use x="83.789062" xlink:href="#DejaVuSans-31"/>
       <use x="147.412109" xlink:href="#DejaVuSans-30"/>
       <use x="211.035156" xlink:href="#DejaVuSans-30"/>
      </g>
     </g>
    </g>
    <g id="xtick_3">
     <g id="line2d_3">
      <g>
       <use style="stroke:#000000;stroke-width:0.8;" x="332.788087" xlink:href="#m5418f5d5e8" y="630"/>
      </g>
     </g>
     <g id="text_3">
      <!-- 0 -->
      <g transform="translate(329.606837 644.598438)scale(0.1 -0.1)">
       <use xlink:href="#DejaVuSans-30"/>
      </g>
     </g>
    </g>
    <g id="xtick_4">
     <g id="line2d_4">
      <g>
       <use style="stroke:#000000;stroke-width:0.8;" x="429.838682" xlink:href="#m5418f5d5e8" y="630"/>
      </g>
     </g>
     <g id="text_4">
      <!-- 100 -->
      <g transform="translate(420.294932 644.598438)scale(0.1 -0.1)">
       <use xlink:href="#DejaVuSans-31"/>
       <use x="63.623047" xlink:href="#DejaVuSans-30"/>
       <use x="127.246094" xlink:href="#DejaVuSans-30"/>
      </g>
     </g>
    </g>
    <g id="xtick_5">
     <g id="line2d_5">
      <g>
       <use style="stroke:#000000;stroke-width:0.8;" x="526.889277" xlink:href="#m5418f5d5e8" y="630"/>
      </g>
     </g>
     <g id="text_5">
      <!-- 200 -->
      <g transform="translate(517.345527 644.598438)scale(0.1 -0.1)">
       <use xlink:href="#DejaVuSans-32"/>
       <use x="63.623047" xlink:href="#DejaVuSans-30"/>
       <use x="127.246094" xlink:href="#DejaVuSans-30"/>
      </g>
     </g>
    </g>
    <g id="xtick_6">
     <g id="line2d_6">
      <g>
       <use style="stroke:#000000;stroke-width:0.8;" x="623.939872" xlink:href="#m5418f5d5e8" y="630"/>
      </g>
     </g>
     <g id="text_6">
      <!-- 300 -->
      <g transform="translate(614.396122 644.598438)scale(0.1 -0.1)">
       <defs>
        <path d="M 2597 2516 
Q 3050 2419 3304 2112 
Q 3559 1806 3559 1356 
Q 3559 666 3084 287 
Q 2609 -91 1734 -91 
Q 1441 -91 1130 -33 
Q 819 25 488 141 
L 488 750 
Q 750 597 1062 519 
Q 1375 441 1716 441 
Q 2309 441 2620 675 
Q 2931 909 2931 1356 
Q 2931 1769 2642 2001 
Q 2353 2234 1838 2234 
L 1294 2234 
L 1294 2753 
L 1863 2753 
Q 2328 2753 2575 2939 
Q 2822 3125 2822 3475 
Q 2822 3834 2567 4026 
Q 2313 4219 1838 4219 
Q 1578 4219 1281 4162 
Q 984 4106 628 3988 
L 628 4550 
Q 988 4650 1302 4700 
Q 1616 4750 1894 4750 
Q 2613 4750 3031 4423 
Q 3450 4097 3450 3541 
Q 3450 3153 3228 2886 
Q 3006 2619 2597 2516 
z
" id="DejaVuSans-33" transform="scale(0.015625)"/>
       </defs>
       <use xlink:href="#DejaVuSans-33"/>
       <use x="63.623047" xlink:href="#DejaVuSans-30"/>
       <use x="127.246094" xlink:href="#DejaVuSans-30"/>
      </g>
     </g>
    </g>
   </g>
   <g id="matplotlib.axis_2">
    <g id="ytick_1">
     <g id="line2d_7">
      <defs>
       <path d="M 0 0 
L -3.5 0 
" id="md2d30a3c1f" style="stroke:#000000;stroke-width:0.8;"/>
      </defs>
      <g>
       <use style="stroke:#000000;stroke-width:0.8;" x="90" xlink:href="#md2d30a3c1f" y="582.569539"/>
      </g>
     </g>
     <g id="text_7">
      <!-- −200 -->
      <g transform="translate(55.532812 586.368758)scale(0.1 -0.1)">
       <use xlink:href="#DejaVuSans-2212"/>
       <use x="83.789062" xlink:href="#DejaVuSans-32"/>
       <use x="147.412109" xlink:href="#DejaVuSans-30"/>
       <use x="211.035156" xlink:href="#DejaVuSans-30"/>
      </g>
     </g>
    </g>
    <g id="ytick_2">
     <g id="line2d_8">
      <g>
       <use style="stroke:#000000;stroke-width:0.8;" x="90" xlink:href="#md2d30a3c1f" y="488.023476"/>
      </g>
     </g>
     <g id="text_8">
      <!-- −100 -->
      <g transform="translate(55.532812 491.822694)scale(0.1 -0.1)">
       <use xlink:href="#DejaVuSans-2212"/>
       <use x="83.789062" xlink:href="#DejaVuSans-31"/>
       <use x="147.412109" xlink:href="#DejaVuSans-30"/>
       <use x="211.035156" xlink:href="#DejaVuSans-30"/>
      </g>
     </g>
    </g>
    <g id="ytick_3">
     <g id="line2d_9">
      <g>
       <use style="stroke:#000000;stroke-width:0.8;" x="90" xlink:href="#md2d30a3c1f" y="393.477412"/>
      </g>
     </g>
     <g id="text_9">
      <!-- 0 -->
      <g transform="translate(76.6375 397.276631)scale(0.1 -0.1)">
       <use xlink:href="#DejaVuSans-30"/>
      </g>
     </g>
    </g>
    <g id="ytick_4">
     <g id="line2d_10">
      <g>
       <use style="stroke:#000000;stroke-width:0.8;" x="90" xlink:href="#md2d30a3c1f" y="298.931349"/>
      </g>
     </g>
     <g id="text_10">
      <!-- 100 -->
      <g transform="translate(63.9125 302.730567)scale(0.1 -0.1)">
       <use xlink:href="#DejaVuSans-31"/>
       <use x="63.623047" xlink:href="#DejaVuSans-30"/>
       <use x="127.246094" xlink:href="#DejaVuSans-30"/>
      </g>
     </g>
    </g>
    <g id="ytick_5">
     <g id="line2d_11">
      <g>
       <use style="stroke:#000000;stroke-width:0.8;" x="90" xlink:href="#md2d30a3c1f" y="204.385285"/>
      </g>
     </g>
     <g id="text_11">
      <!-- 200 -->
      <g transform="translate(63.9125 208.184504)scale(0.1 -0.1)">
       <use xlink:href="#DejaVuSans-32"/>
       <use x="63.623047" xlink:href="#DejaVuSans-30"/>
       <use x="127.246094" xlink:href="#DejaVuSans-30"/>
      </g>
     </g>
    </g>
    <g id="ytick_6">
     <g id="line2d_12">
      <g>
       <use style="stroke:#000000;stroke-width:0.8;" x="90" xlink:href="#md2d30a3c1f" y="109.839222"/>
      </g>
     </g>
     <g id="text_12">
      <!-- 300 -->
      <g transform="translate(63.9125 113.63844)scale(0.1 -0.1)">
       <use xlink:href="#DejaVuSans-33"/>
       <use x="63.623047" xlink:href="#DejaVuSans-30"/>
       <use x="127.246094" xlink:href="#DejaVuSans-30"/>
      </g>
     </g>
    </g>
   </g>
   <g id="line2d_13">
    <path clip-path="url(#pe3a1099911)" d="M 561.079276 503.381559 
L 557.528386 500.067442 
L 553.969361 496.761781 
L 550.40319 493.463702 
L 546.831041 490.17215 
L 543.254294 486.885854 
L 539.674582 483.603275 
L 536.093833 480.322548 
L 532.51434 477.041412 
L 528.938829 473.757117 
L 525.370558 470.466316 
L 521.813448 467.16493 
L 518.272242 463.847989 
L 514.75273 460.509437 
L 511.26204 457.141908 
L 507.809043 453.736484 
L 504.404886 450.282445 
L 501.063709 446.767067 
L 497.803562 443.17557 
L 494.647492 439.491361 
L 491.624653 435.696846 
L 488.770991 431.775085 
L 486.128706 427.712489 
L 483.743407 423.502272 
L 481.658259 419.1476 
L 479.906019 414.662709 
L 478.50191 410.070796 
L 477.440794 405.399256 
L 476.699863 400.674484 
L 476.244908 395.918339 
L 476.037067 391.146892 
L 476.037937 386.370863 
L 476.212527 381.596781 
L 476.530482 376.828235 
L 476.966228 372.066901 
L 477.498583 367.313279 
L 478.11015 362.567197 
L 478.786699 357.828128 
L 479.516596 353.09538 
L 480.290313 348.36821 
L 481.100025 343.645894 
L 481.939289 338.92775 
L 482.802775 334.213162 
L 483.68606 329.50158 
L 484.58546 324.792518 
L 485.497897 320.085552 
L 486.420786 315.38031 
L 487.351956 310.676471 
L 488.289575 305.973755 
" style="fill:none;stroke:#808080;stroke-linecap:square;stroke-width:1.5;"/>
   </g>
   <g id="line2d_14">
    <path clip-path="url(#pe3a1099911)" d="M 476.037067 503.381559 
L 476.037067 305.973755 
L 561.079276 305.973755 
L 561.079276 503.381559 
L 476.037067 503.381559 
" style="fill:none;stroke:#d3d3d3;stroke-linecap:square;stroke-width:0.5;"/>
   </g>
   <g id="line2d_15">
    <path clip-path="url(#pe3a1099911)" d="M 488.289575 305.973755 
L 489.184503 301.257658 
L 489.971882 296.523823 
L 490.622952 291.770728 
L 491.094806 286.997817 
L 491.319118 282.207943 
L 491.17723 277.415607 
L 490.438981 272.679415 
L 488.615412 268.253559 
L 484.97963 265.140082 
L 480.137422 264.528085 
L 475.337683 265.594492 
L 470.786354 267.445938 
L 466.43328 269.712236 
L 462.227312 272.229222 
L 458.132142 274.912175 
L 454.122306 277.712113 
L 450.179499 280.598238 
L 446.29017 283.549918 
L 442.444019 286.552618 
L 438.633017 289.595684 
L 434.850783 292.671046 
L 431.092142 295.772418 
L 427.352833 298.894789 
L 423.629296 302.03408 
L 419.918515 305.186916 
L 416.217909 308.350454 
L 412.525241 311.522267 
L 408.838557 314.700255 
L 405.156133 317.882583 
L 401.476434 321.067621 
L 397.798083 324.253916 
L 394.119839 327.440153 
L 390.440571 330.625133 
L 386.759243 333.807754 
L 383.074902 336.986993 
L 379.386664 340.161896 
L 375.693705 343.331562 
L 371.995253 346.495138 
L 368.290582 349.651809 
L 364.579002 352.800793 
L 360.859861 355.941331 
L 357.132532 359.072688 
L 353.396418 362.194143 
" style="fill:none;stroke:#808080;stroke-linecap:square;stroke-width:1.5;"/>
   </g>
   <g id="line2d_16">
    <path clip-path="url(#pe3a1099911)" d="M 353.396418 362.194143 
L 353.396418 264.528085 
L 491.319118 264.528085 
L 491.319118 362.194143 
L 353.396418 362.194143 
" style="fill:none;stroke:#d3d3d3;stroke-linecap:square;stroke-width:0.5;"/>
   </g>
   <g id="line2d_17">
    <path clip-path="url(#pe3a1099911)" d="M 353.396418 362.194143 
L 349.65094 365.304989 
L 345.895541 368.404527 
L 342.12968 371.492063 
L 338.352831 374.566908 
L 334.56448 377.628369 
L 330.764124 380.675754 
L 326.951267 383.708365 
L 323.125425 386.725495 
L 319.286117 389.726429 
L 315.432869 392.710441 
L 311.56521 395.676789 
L 307.682673 398.624716 
L 303.784796 401.553449 
L 299.871115 404.462193 
L 295.94117 407.350131 
L 291.994503 410.216422 
L 288.030653 413.060199 
L 284.049163 415.880568 
L 280.049574 418.6766 
L 276.031427 421.447338 
L 271.994263 424.191785 
L 267.937625 426.908908 
L 263.861054 429.597634 
L 259.764091 432.256844 
L 255.64628 434.885374 
L 251.507166 437.482012 
L 247.346294 440.04549 
L 243.163217 442.574486 
L 238.957488 445.067621 
L 234.728667 447.523449 
L 230.476323 449.94046 
L 226.200032 452.317073 
L 221.899383 454.651632 
L 217.573978 456.942405 
L 213.223438 459.187575 
L 208.847401 461.385237 
L 204.445532 463.533397 
L 200.017523 465.629964 
L 195.563099 467.672747 
L 191.082026 469.65945 
L 186.574113 471.587669 
L 182.039224 473.454886 
" style="fill:none;stroke:#808080;stroke-linecap:square;stroke-width:1.5;"/>
   </g>
   <g id="line2d_18">
    <path clip-path="url(#pe3a1099911)" d="M 182.039224 473.454886 
L 182.039224 362.194143 
L 353.396418 362.194143 
L 353.396418 473.454886 
L 182.039224 473.454886 
" style="fill:none;stroke:#d3d3d3;stroke-linecap:square;stroke-width:0.5;"/>
   </g>
   <g id="line2d_19">
    <path clip-path="url(#pe3a1099911)" d="M 182.039224 473.454886 
L 177.442694 475.321961 
L 172.855394 477.209587 
L 168.27786 479.118682 
L 163.710713 481.050339 
L 159.154676 483.005867 
L 154.610602 484.986853 
L 150.079523 486.995246 
L 145.56271 489.033477 
L 141.061776 491.104649 
L 136.578841 493.212822 
L 132.116814 495.363507 
L 127.679934 497.564548 
L 123.274883 499.827906 
L 118.913509 502.173831 
L 114.62137 504.643446 
L 110.484315 507.363256 
L 111.522563 509.176844 
L 116.215231 507.534725 
L 120.790321 505.60211 
L 125.292585 503.519438 
L 129.739275 501.330723 
L 134.13926 499.057073 
L 138.497781 496.710737 
L 142.818198 494.299667 
L 147.102782 491.829442 
L 151.353126 489.304197 
L 155.570381 486.727141 
L 159.755398 484.100851 
L 163.908821 481.427468 
L 168.031148 478.708813 
L 172.122778 475.946479 
L 176.18404 473.141885 
L 180.215215 470.296324 
L 184.216558 467.410988 
L 188.188306 464.486996 
L 192.130692 461.525411 
L 196.043952 458.52725 
L 199.92833 455.493496 
L 203.784083 452.425107 
L 207.611488 449.323017 
L 211.410838 446.188142 
L 215.182448 443.021383 
L 218.926658 439.823627 
L 222.643827 436.595747 
L 226.33434 433.338604 
L 229.998602 430.053044 
" style="fill:none;stroke:#808080;stroke-linecap:square;stroke-width:1.5;"/>
   </g>
   <g id="line2d_20">
    <path clip-path="url(#pe3a1099911)" d="M 110.484315 509.176844 
L 110.484315 430.053044 
L 229.998602 430.053044 
L 229.998602 509.176844 
L 110.484315 509.176844 
" style="fill:none;stroke:#d3d3d3;stroke-linecap:square;stroke-width:0.5;"/>
   </g>
   <g id="line2d_21">
    <path clip-path="url(#pe3a1099911)" d="M 229.998602 430.053044 
L 233.62626 426.843322 
L 237.327137 423.713877 
L 241.106924 420.675272 
L 244.971518 417.739759 
L 248.926862 414.921521 
L 252.978713 412.23691 
L 257.132284 409.704637 
L 261.391745 407.345871 
L 265.759573 405.184146 
L 270.235742 403.244971 
L 274.816827 401.555019 
L 279.495158 400.140786 
L 284.258246 399.026722 
L 289.088739 398.232994 
L 293.965141 397.773252 
L 298.863319 397.652926 
L 303.75856 397.868528 
L 308.627731 398.408178 
L 313.451032 399.253193 
L 318.213034 400.380268 
L 322.902927 401.763731 
L 327.514174 403.377459 
L 332.043801 405.19627 
L 336.491572 407.196776 
L 340.859208 409.357811 
L 345.149732 411.660547 
L 349.366956 414.088416 
L 353.515109 416.626936 
L 357.598575 419.263491 
L 361.621717 421.987097 
L 365.588777 424.78819 
L 369.5038 427.658424 
L 373.37061 430.590498 
L 377.19279 433.57801 
L 380.973687 436.615322 
L 384.716419 439.697454 
L 388.423883 442.819993 
" style="fill:none;stroke:#808080;stroke-linecap:square;stroke-width:1.5;"/>
   </g>
   <g id="line2d_22">
    <path clip-path="url(#pe3a1099911)" d="M 229.998602 442.819993 
L 229.998602 397.652926 
L 388.423883 397.652926 
L 388.423883 442.819993 
L 229.998602 442.819993 
" style="fill:none;stroke:#d3d3d3;stroke-linecap:square;stroke-width:0.5;"/>
   </g>
   <g id="line2d_23">
    <path clip-path="url(#pe3a1099911)" d="M 388.423883 442.819993 
L 392.098779 445.979009 
L 395.743617 449.170991 
L 399.360741 452.392793 
L 402.95234 455.641576 
L 406.520464 458.914775 
L 410.067042 462.210058 
L 413.593889 465.525295 
L 417.102726 468.858531 
L 420.595184 472.20796 
L 424.072821 475.571906 
L 427.537131 478.9488 
L 430.989551 482.337166 
L 434.431476 485.735601 
L 437.864263 489.142761 
L 441.289246 492.557348 
L 444.707742 495.978092 
L 448.121064 499.403743 
L 451.530531 502.83305 
L 454.937484 506.264748 
L 458.343292 509.697543 
L 461.749378 513.130094 
L 465.157231 516.560989 
L 468.56843 519.988722 
L 471.984674 523.411664 
L 475.407814 526.828023 
L 478.839893 530.235801 
L 482.283206 533.632727 
L 485.740368 537.016179 
L 489.214411 540.38307 
L 492.708915 543.729687 
L 496.22819 547.051466 
L 499.777541 550.342645 
L 503.363664 553.595729 
L 506.995254 556.800611 
L 510.684 559.943054 
L 514.446282 563.001837 
" style="fill:none;stroke:#808080;stroke-linecap:square;stroke-width:1.5;"/>
   </g>
   <g id="line2d_24">
    <path clip-path="url(#pe3a1099911)" d="M 388.423883 563.001837 
L 388.423883 442.819993 
L 514.446282 442.819993 
L 514.446282 563.001837 
L 388.423883 563.001837 
" style="fill:none;stroke:#d3d3d3;stroke-linecap:square;stroke-width:0.5;"/>
   </g>
   <g id="line2d_25">
    <path clip-path="url(#pe3a1099911)" d="M 514.446282 563.001837 
L 518.357439 565.95543 
L 522.411928 568.717416 
L 526.624546 571.242251 
L 531.00905 573.46877 
L 535.574004 575.314761 
L 540.314145 576.671938 
L 545.194924 577.406532 
L 550.132212 577.377026 
L 554.983305 576.48037 
L 559.576884 574.70989 
L 563.77729 572.169929 
L 567.526892 569.025593 
L 570.836275 565.439492 
L 573.751322 561.540446 
L 576.327665 557.420747 
L 578.618312 553.144128 
L 580.669607 548.75444 
L 582.520949 544.282271 
L 584.205854 539.749438 
L 585.753381 535.171972 
L 587.1896 530.562102 
L 588.539097 525.92965 
L 589.826698 521.283124 
L 591.079787 516.630777 
L 592.33208 511.982063 
L 593.630955 507.350474 
L 595.054624 502.761225 
L 596.763005 498.280581 
L 599.209087 494.204344 
L 603.618453 493.016511 
L 607.415143 496.250095 
L 610.239817 500.213883 
L 612.69419 504.393086 
L 614.947213 508.680406 
L 617.0709 513.03252 
L 619.103726 517.427858 
" style="fill:none;stroke:#808080;stroke-linecap:square;stroke-width:1.5;"/>
   </g>
   <g id="line2d_26">
    <path clip-path="url(#pe3a1099911)" d="M 514.446282 577.406532 
L 514.446282 493.016511 
L 619.103726 493.016511 
L 619.103726 577.406532 
L 514.446282 577.406532 
" style="fill:none;stroke:#d3d3d3;stroke-linecap:square;stroke-width:0.5;"/>
   </g>
   <g id="line2d_27">
    <path clip-path="url(#pe3a1099911)" d="M 619.103726 517.427858 
L 621.078342 522.119044 
L 622.724828 526.930218 
L 623.819522 531.886436 
L 623.742749 536.922822 
L 620.746628 540.827479 
L 615.634494 541.197343 
L 610.695839 539.81134 
L 605.991278 537.727118 
L 601.458376 535.260487 
L 597.061593 532.548783 
L 592.776627 529.66418 
L 588.585789 526.649099 
L 584.475851 523.530534 
L 580.436723 520.326728 
L 576.460571 517.050594 
L 572.541221 513.711612 
L 568.673746 510.316947 
L 564.854174 506.872141 
L 561.079276 503.381559 
" style="fill:none;stroke:#808080;stroke-linecap:square;stroke-width:1.5;"/>
   </g>
   <g id="line2d_28">
    <path clip-path="url(#pe3a1099911)" d="M 561.079276 541.197343 
L 561.079276 503.381559 
L 623.819522 503.381559 
L 623.819522 541.197343 
L 561.079276 541.197343 
" style="fill:none;stroke:#d3d3d3;stroke-linecap:square;stroke-width:0.5;"/>
   </g>
   <g id="line2d_29">
    <path clip-path="url(#pe3a1099911)" d="M 185.753977 482.189486 
L 185.753977 482.189486 
L 185.753977 482.189486 
" style="fill:none;stroke:#000000;stroke-linecap:square;stroke-width:3;"/>
   </g>
   <g id="line2d_30">
    <path clip-path="url(#pe3a1099911)" d="M 185.753977 482.189486 
L 185.753977 482.189486 
L 185.753977 482.189486 
L 185.753977 482.189486 
L 185.753977 482.189486 
" style="fill:none;stroke:#d3d3d3;stroke-linecap:square;stroke-width:0.5;"/>
   </g>
   <g id="line2d_31">
    <path clip-path="url(#pe3a1099911)" d="M 185.753977 482.189486 
L 185.753977 482.189486 
L 185.753977 482.189486 
" style="fill:none;stroke:#000000;stroke-linecap:square;stroke-width:3;"/>
   </g>
   <g id="line2d_32">
    <path clip-path="url(#pe3a1099911)" d="M 185.753977 482.189486 
L 185.753977 482.189486 
L 185.753977 482.189486 
L 185.753977 482.189486 
L 185.753977 482.189486 
" style="fill:none;stroke:#d3d3d3;stroke-linecap:square;stroke-width:0.5;"/>
   </g>
   <g id="line2d_33">
    <path clip-path="url(#pe3a1099911)" d="M 520.55935 555.658552 
L 520.55935 555.658552 
L 520.55935 555.658552 
" style="fill:none;stroke:#000000;stroke-linecap:square;stroke-width:3;"/>
   </g>
   <g id="line2d_34">
    <path clip-path="url(#pe3a1099911)" d="M 520.55935 555.658552 
L 520.55935 555.658552 
L 520.55935 555.658552 
L 520.55935 555.658552 
L 520.55935 555.658552 
" style="fill:none;stroke:#d3d3d3;stroke-linecap:square;stroke-width:0.5;"/>
   </g>
   <g id="line2d_35">
    <path clip-path="url(#pe3a1099911)" d="M 520.55935 555.658552 
L 520.55935 555.658552 
L 520.55935 555.658552 
" style="fill:none;stroke:#000000;stroke-linecap:square;stroke-width:3;"/>
   </g>
   <g id="line2d_36">
    <path clip-path="url(#pe3a1099911)" d="M 520.55935 555.658552 
L 520.55935 555.658552 
L 520.55935 555.658552 
L 520.55935 555.658552 
L 520.55935 555.658552 
" style="fill:none;stroke:#d3d3d3;stroke-linecap:square;stroke-width:0.5;"/>
   </g>
   <g id="line2d_37">
    <path clip-path="url(#pe3a1099911)" d="M 520.55935 555.658552 
L 524.123717 558.350589 
L 527.752246 560.82289 
L 531.43299 563.029675 
L 535.142903 564.914739 
L 538.842242 566.41238 
L 542.470235 567.453603 
L 545.950597 567.980629 
L 549.220879 567.964196 
L 552.279333 567.400138 
L 555.188017 566.277288 
L 557.999794 564.573173 
L 560.707594 562.29834 
L 563.272068 559.516031 
L 565.661789 556.317129 
L 567.865727 552.791146 
L 569.888855 549.012724 
L 571.745101 545.039535 
L 573.452394 540.914674 
L 575.03005 536.669875 
L 576.497713 532.328263 
L 577.207904 530.048591 
" style="fill:none;stroke:#000000;stroke-linecap:square;stroke-width:3;"/>
   </g>
   <g id="line2d_38">
    <path clip-path="url(#pe3a1099911)" d="M 520.55935 567.980629 
L 520.55935 530.048591 
L 577.207904 530.048591 
L 577.207904 567.980629 
L 520.55935 567.980629 
" style="fill:none;stroke:#d3d3d3;stroke-linecap:square;stroke-width:0.5;"/>
   </g>
   <g id="line2d_39">
    <path clip-path="url(#pe3a1099911)" d="M 554.356327 510.200227 
L 554.356327 510.200227 
L 550.823232 506.902719 
L 547.280304 503.61201 
L 543.728183 500.326926 
L 540.167625 497.046055 
L 536.599512 493.767693 
L 533.024881 490.489773 
L 529.444944 487.20979 
L 525.861128 483.924691 
L 522.275114 480.630747 
L 518.6889 477.323394 
L 515.104876 473.997024 
L 511.525941 470.644733 
L 507.955662 467.258008 
L 504.398518 463.826341 
L 500.860255 460.336782 
L 497.348434 456.773431 
L 493.873257 453.116954 
L 490.448785 449.344256 
L 487.094692 445.428621 
L 483.838561 441.340863 
L 480.718398 437.052294 
L 477.784299 432.540307 
L 475.097129 427.796472 
L 472.721649 422.83479 
L 470.713663 417.695058 
L 469.105646 412.436785 
L 467.898756 407.124895 
L 467.065661 401.814888 
L 466.56117 396.544707 
L 466.333919 391.334543 
L 466.334631 386.191164 
L 466.520177 381.113066 
L 466.854689 376.094532 
L 467.309117 371.128245 
L 467.860221 366.206739 
L 468.489479 361.323096 
L 469.182109 356.471224 
L 469.926267 351.645902 
L 470.712414 346.842724 
L 471.532818 342.058008 
L 472.381181 337.288686 
L 473.252336 332.532208 
L 474.142025 327.786453 
L 475.046721 323.049655 
L 475.963489 318.320338 
L 476.889874 313.597269 
L 477.823819 308.879412 
L 478.763591 304.165894 
L 478.763591 304.165894 
" style="fill:none;stroke:#000000;stroke-linecap:square;stroke-width:3;"/>
   </g>
   <g id="line2d_40">
    <path clip-path="url(#pe3a1099911)" d="M 466.333919 510.200227 
L 466.333919 304.165894 
L 554.356327 304.165894 
L 554.356327 510.200227 
L 466.333919 510.200227 
" style="fill:none;stroke:#d3d3d3;stroke-linecap:square;stroke-width:0.5;"/>
   </g>
   <g id="line2d_41">
    <path clip-path="url(#pe3a1099911)" d="M 577.207904 530.048591 
L 570.130038 524.216881 
L 566.096739 520.78085 
L 562.127485 517.296868 
L 558.215727 513.768937 
L 554.356327 510.200227 
L 554.356327 510.200227 
" style="fill:none;stroke:#000000;stroke-linecap:square;stroke-width:3;"/>
   </g>
   <g id="line2d_42">
    <path clip-path="url(#pe3a1099911)" d="M 554.356327 530.048591 
L 554.356327 510.200227 
L 577.207904 510.200227 
L 577.207904 530.048591 
L 554.356327 530.048591 
" style="fill:none;stroke:#d3d3d3;stroke-linecap:square;stroke-width:0.5;"/>
   </g>
   <g id="line2d_43">
    <path clip-path="url(#pe3a1099911)" d="M 478.763591 304.165894 
L 478.763591 304.165894 
L 479.623516 299.634607 
L 480.372643 295.131445 
L 480.983229 290.675495 
L 481.416095 286.301601 
L 481.614964 282.078765 
L 481.502211 278.158935 
L 481.010585 274.920807 
L 480.421013 273.319365 
L 481.166253 273.834253 
L 481.023579 273.943195 
L 478.467 274.544121 
L 475.017935 275.954496 
L 471.296735 277.894011 
L 467.495435 280.169649 
L 463.679459 282.67005 
L 459.872383 285.328586 
L 456.082267 288.103039 
L 452.310961 290.965205 
L 448.557753 293.895377 
L 444.820906 296.879253 
L 441.098331 299.906119 
L 437.38789 302.967729 
L 433.687528 306.057584 
L 429.995328 309.17046 
L 426.309522 312.302078 
L 422.628494 315.448881 
L 418.950764 318.607864 
L 415.274981 321.776458 
L 411.599903 324.952437 
L 407.924389 328.133853 
L 404.247384 331.318982 
L 400.567911 334.506284 
L 396.885057 337.694367 
L 393.19797 340.881967 
L 389.505848 344.06792 
L 385.807935 347.251151 
L 382.103512 350.430656 
L 378.391895 353.605493 
L 374.67243 356.774769 
L 370.944491 359.937633 
L 367.20747 363.093268 
L 363.460783 366.240888 
L 359.703859 369.379728 
L 355.936146 372.509041 
L 352.1571 375.628096 
L 348.36619 378.736169 
L 344.562892 381.832545 
L 340.746691 384.916512 
L 336.917075 387.987359 
L 333.07354 391.04437 
L 329.425492 393.921287 
" style="fill:none;stroke:#000000;stroke-linecap:square;stroke-width:3;"/>
   </g>
   <g id="line2d_44">
    <path clip-path="url(#pe3a1099911)" d="M 329.425492 393.921287 
L 329.425492 273.319365 
L 481.614964 273.319365 
L 481.614964 393.921287 
L 329.425492 393.921287 
" style="fill:none;stroke:#d3d3d3;stroke-linecap:square;stroke-width:0.5;"/>
   </g>
   <g id="line2d_45">
    <path clip-path="url(#pe3a1099911)" d="M 329.425492 393.921287 
L 335.93431 396.534592 
L 340.729553 398.691241 
L 345.403915 401.00392 
L 349.965105 403.451826 
L 354.421369 406.01723 
L 358.780966 408.685081 
L 363.051856 411.442597 
L 367.241532 414.278901 
L 371.356935 417.184703 
L 375.404436 420.152032 
L 379.389847 423.174015 
L 383.318456 426.244694 
L 387.195064 429.358878 
L 391.024034 432.512014 
L 394.809333 435.700097 
L 398.554574 438.919574 
L 402.263056 442.167285 
L 405.937799 445.440402 
L 409.581575 448.736377 
L 413.196939 452.052907 
L 416.786253 455.387894 
L 420.351706 458.739417 
L 423.895339 462.105705 
L 427.419062 465.485116 
L 430.924666 468.876112 
L 434.413841 472.277243 
L 437.888193 475.687132 
L 441.349247 479.104453 
L 444.798466 482.527922 
L 448.237262 485.956279 
L 451.667 489.388273 
L 455.089015 492.822647 
L 458.504618 496.258124 
L 461.915108 499.693385 
L 465.321783 503.127054 
L 468.725951 506.557672 
L 472.12894 509.98367 
L 475.532114 513.403341 
L 478.93689 516.814792 
L 482.344746 520.2159 
L 485.757246 523.60424 
L 489.17606 526.977 
L 492.602979 530.330858 
L 496.039939 533.661815 
L 499.489037 536.964958 
L 502.952533 540.234103 
L 506.432817 543.46126 
L 509.932296 546.635782 
L 513.45308 549.74294 
L 516.996177 552.761416 
L 520.55935 555.658552 
" style="fill:none;stroke:#000000;stroke-linecap:square;stroke-width:3;"/>
   </g>
   <g id="line2d_46">
    <path clip-path="url(#pe3a1099911)" d="M 329.425492 555.658552 
L 329.425492 393.921287 
L 520.55935 393.921287 
L 520.55935 555.658552 
L 329.425492 555.658552 
" style="fill:none;stroke:#d3d3d3;stroke-linecap:square;stroke-width:0.5;"/>
   </g>
   <g id="line2d_47">
    <path clip-path="url(#pe3a1099911)" d="M 178.324471 464.720287 
L 178.324471 464.720287 
L 178.324471 464.720287 
" style="fill:none;stroke:#000000;stroke-linecap:square;stroke-width:3;"/>
   </g>
   <g id="line2d_48">
    <path clip-path="url(#pe3a1099911)" d="M 178.324471 464.720287 
L 178.324471 464.720287 
L 178.324471 464.720287 
L 178.324471 464.720287 
L 178.324471 464.720287 
" style="fill:none;stroke:#d3d3d3;stroke-linecap:square;stroke-width:0.5;"/>
   </g>
   <g id="line2d_49">
    <path clip-path="url(#pe3a1099911)" d="M 178.324471 464.720287 
L 178.324471 464.720287 
L 178.324471 464.720287 
" style="fill:none;stroke:#000000;stroke-linecap:square;stroke-width:3;"/>
   </g>
   <g id="line2d_50">
    <path clip-path="url(#pe3a1099911)" d="M 178.324471 464.720287 
L 178.324471 464.720287 
L 178.324471 464.720287 
L 178.324471 464.720287 
L 178.324471 464.720287 
" style="fill:none;stroke:#d3d3d3;stroke-linecap:square;stroke-width:0.5;"/>
   </g>
   <g id="line2d_51">
    <path clip-path="url(#pe3a1099911)" d="M 242.328157 431.950599 
L 247.183481 428.047261 
L 250.824864 425.281207 
L 254.526105 422.643912 
L 258.28832 420.151071 
L 262.111756 417.819911 
L 265.995565 415.668986 
L 269.937642 413.717766 
L 273.934559 411.985987 
L 271.82581 412.764021 
" style="fill:none;stroke:#000000;stroke-linecap:square;stroke-width:3;"/>
   </g>
   <g id="line2d_52">
    <path clip-path="url(#pe3a1099911)" d="M 242.328157 431.950599 
L 242.328157 411.985987 
L 273.934559 411.985987 
L 273.934559 431.950599 
L 242.328157 431.950599 
" style="fill:none;stroke:#d3d3d3;stroke-linecap:square;stroke-width:0.5;"/>
   </g>
   <g id="line2d_53">
    <path clip-path="url(#pe3a1099911)" d="M 271.82581 412.764021 
L 270.450722 413.712221 
L 266.467839 416.419771 
L 262.46761 419.099113 
L 258.449661 421.749176 
L 254.413625 424.368842 
L 250.359143 426.956949 
L 246.285862 429.512289 
L 242.328157 431.950599 
" style="fill:none;stroke:#000000;stroke-linecap:square;stroke-width:3;"/>
   </g>
   <g id="line2d_54">
    <path clip-path="url(#pe3a1099911)" d="M 242.328157 431.950599 
L 242.328157 412.764021 
L 271.82581 412.764021 
L 271.82581 431.950599 
L 242.328157 431.950599 
" style="fill:none;stroke:#d3d3d3;stroke-linecap:square;stroke-width:0.5;"/>
   </g>
   <g id="line2d_55">
    <path clip-path="url(#pe3a1099911)" d="M 236.598675 436.984705 
L 236.598675 436.984705 
L 240.072754 433.91082 
L 243.600185 430.927979 
L 242.328157 431.950599 
" style="fill:none;stroke:#000000;stroke-linecap:square;stroke-width:3;"/>
   </g>
   <g id="line2d_56">
    <path clip-path="url(#pe3a1099911)" d="M 236.598675 436.984705 
L 236.598675 430.927979 
L 243.600185 430.927979 
L 243.600185 436.984705 
L 236.598675 436.984705 
" style="fill:none;stroke:#d3d3d3;stroke-linecap:square;stroke-width:0.5;"/>
   </g>
   <g id="line2d_57">
    <path clip-path="url(#pe3a1099911)" d="M 178.324471 464.720287 
L 173.6874 466.60383 
L 169.057849 468.508842 
L 164.436051 470.436399 
L 159.822249 472.38779 
L 161.201475 471.795803 
" style="fill:none;stroke:#000000;stroke-linecap:square;stroke-width:3;"/>
   </g>
   <g id="line2d_58">
    <path clip-path="url(#pe3a1099911)" d="M 159.822249 472.38779 
L 159.822249 464.720287 
L 178.324471 464.720287 
L 178.324471 472.38779 
L 159.822249 472.38779 
" style="fill:none;stroke:#d3d3d3;stroke-linecap:square;stroke-width:0.5;"/>
   </g>
   <g id="line2d_59">
    <path clip-path="url(#pe3a1099911)" d="M 582.850012 509.934493 
L 582.952287 509.554843 
L 584.294251 504.770397 
L 585.829776 499.824012 
L 587.862823 494.5107 
L 591.929131 487.951992 
L 607.553268 484.373848 
L 614.964584 490.308781 
L 618.499296 495.249396 
L 621.245979 499.922919 
L 623.658424 504.512612 
L 625.882619 509.070319 
L 627.98468 513.615182 
L 627.98468 513.615182 
" style="fill:none;stroke:#000000;stroke-linecap:square;stroke-width:3;"/>
   </g>
   <g id="line2d_60">
    <path clip-path="url(#pe3a1099911)" d="M 582.850012 513.615182 
L 582.850012 484.373848 
L 627.98468 484.373848 
L 627.98468 513.615182 
L 582.850012 513.615182 
" style="fill:none;stroke:#d3d3d3;stroke-linecap:square;stroke-width:0.5;"/>
   </g>
   <g id="line2d_61">
    <path clip-path="url(#pe3a1099911)" d="M 508.333214 570.345123 
L 512.59116 573.56027 
L 517.07161 576.611942 
L 521.816102 579.454827 
L 526.875196 582.022802 
L 532.305767 584.217142 
L 538.158055 585.890273 
L 544.439251 586.832434 
L 551.043544 586.789856 
L 557.687277 585.560602 
L 563.965751 583.142492 
L 569.554785 579.766685 
L 574.34619 575.752846 
L 578.400483 571.362953 
L 581.840854 566.763763 
L 584.789603 562.050349 
L 587.347769 557.275531 
L 589.594114 552.469345 
L 591.589503 547.649867 
L 593.381657 542.829001 
L 595.009049 538.015681 
L 593.844928 541.75196 
" style="fill:none;stroke:#000000;stroke-linecap:square;stroke-width:3;"/>
   </g>
   <g id="line2d_62">
    <path clip-path="url(#pe3a1099911)" d="M 508.333214 586.832434 
L 508.333214 538.015681 
L 595.009049 538.015681 
L 595.009049 586.832434 
L 508.333214 586.832434 
" style="fill:none;stroke:#d3d3d3;stroke-linecap:square;stroke-width:0.5;"/>
   </g>
   <g id="line2d_63">
    <path clip-path="url(#pe3a1099911)" d="M 582.850012 509.934493 
L 578.985704 506.642375 
L 575.220008 503.337027 
L 571.49262 499.975346 
L 567.802226 496.562891 
L 567.802226 496.562891 
" style="fill:none;stroke:#000000;stroke-linecap:square;stroke-width:3;"/>
   </g>
   <g id="line2d_64">
    <path clip-path="url(#pe3a1099911)" d="M 567.802226 509.934493 
L 567.802226 496.562891 
L 582.850012 496.562891 
L 582.850012 509.934493 
L 567.802226 509.934493 
" style="fill:none;stroke:#d3d3d3;stroke-linecap:square;stroke-width:0.5;"/>
   </g>
   <g id="line2d_65">
    <path clip-path="url(#pe3a1099911)" d="M 310.669744 408.320293 
L 309.691922 409.054995 
L 305.736908 411.994457 
L 301.763958 414.913997 
L 297.772559 417.812774 
L 293.762197 420.689919 
L 289.732355 423.544537 
L 285.682509 426.375702 
L 281.612131 429.182454 
L 277.520688 431.963799 
L 273.407641 434.718703 
L 269.272447 437.446092 
L 265.114557 440.144846 
L 260.933417 442.813799 
L 256.728469 445.451735 
L 252.49915 448.057381 
L 248.244894 450.629408 
L 243.965131 453.166427 
L 239.659292 455.666979 
L 235.326806 458.12954 
L 230.967102 460.552507 
L 226.579616 462.934202 
L 222.163787 465.272862 
L 217.719061 467.566633 
L 213.244899 469.81357 
L 208.740773 472.011628 
L 204.206179 474.158656 
L 199.640635 476.252394 
L 195.043688 478.290465 
L 190.414925 480.27037 
L 185.753977 482.189486 
" style="fill:none;stroke:#000000;stroke-linecap:square;stroke-width:3;"/>
   </g>
   <g id="line2d_66">
    <path clip-path="url(#pe3a1099911)" d="M 185.753977 482.189486 
L 185.753977 408.320293 
L 310.669744 408.320293 
L 310.669744 482.189486 
L 185.753977 482.189486 
" style="fill:none;stroke:#d3d3d3;stroke-linecap:square;stroke-width:0.5;"/>
   </g>
   <g id="line2d_67">
    <path clip-path="url(#pe3a1099911)" d="M 497.815559 307.781616 
L 497.815559 307.781616 
L 498.745489 302.88071 
L 499.571121 297.9162 
L 500.262674 292.86596 
L 500.773517 287.694034 
L 501.023272 282.337121 
L 500.852248 276.672279 
L 499.867377 270.438023 
L 496.809811 263.187752 
L 488.793006 256.445911 
L 479.251265 255.112974 
L 472.208365 256.644863 
L 466.554772 258.937379 
L 461.569825 261.53046 
L 456.959189 264.288794 
L 452.584824 267.1543 
L 448.372228 270.095639 
L 444.27673 273.093438 
L 440.26938 276.13463 
L 436.330284 279.209858 
L 432.445129 282.312116 
L 428.603235 285.435973 
L 424.796394 288.577108 
L 421.018138 291.731993 
L 417.263263 294.897701 
L 413.527508 298.071754 
L 409.807323 301.252026 
L 406.099718 304.436669 
L 402.402134 307.624053 
" style="fill:none;stroke:#000000;stroke-linecap:square;stroke-width:3;"/>
   </g>
   <g id="line2d_68">
    <path clip-path="url(#pe3a1099911)" d="M 402.402134 307.781616 
L 402.402134 255.112974 
L 501.023272 255.112974 
L 501.023272 307.781616 
L 402.402134 307.781616 
" style="fill:none;stroke:#d3d3d3;stroke-linecap:square;stroke-width:0.5;"/>
   </g>
   <g id="line2d_69">
    <path clip-path="url(#pe3a1099911)" d="M 402.402134 307.624053 
L 398.712363 310.812729 
L 395.028478 314.00139 
L 391.348782 317.18885 
L 387.671768 320.374022 
L 383.996085 323.555898 
L 380.320516 326.73354 
L 376.643955 329.906066 
L 372.965393 333.07264 
L 369.283898 336.232467 
L 365.598612 339.384783 
L 361.908733 342.52885 
L 358.213514 345.663953 
L 354.512251 348.789395 
L 350.804282 351.904488 
L 347.088976 355.008559 
L 343.365733 358.100938 
L 339.633982 361.180959 
L 335.893171 364.247958 
L 332.142771 367.30127 
L 328.38227 370.340226 
L 324.611172 373.36415 
L 320.828995 376.37236 
L 317.035269 379.364163 
L 313.229536 382.338855 
L 309.411347 385.295718 
L 305.58026 388.234017 
L 301.735843 391.153002 
L 305.237262 388.522154 
" style="fill:none;stroke:#000000;stroke-linecap:square;stroke-width:3;"/>
   </g>
   <g id="line2d_70">
    <path clip-path="url(#pe3a1099911)" d="M 301.735843 391.153002 
L 301.735843 307.624053 
L 402.402134 307.624053 
L 402.402134 391.153002 
L 301.735843 391.153002 
" style="fill:none;stroke:#d3d3d3;stroke-linecap:square;stroke-width:0.5;"/>
   </g>
   <g id="line2d_71">
    <path clip-path="url(#pe3a1099911)" d="M 310.669744 408.320293 
L 315.652599 409.499903 
L 319.84769 410.737619 
L 324.016537 412.196721 
L 328.153292 413.857948 
L 332.253591 415.702311 
L 336.314501 417.711702 
L 340.334358 419.869268 
L 344.312543 422.159601 
L 348.249253 424.568791 
L 352.145293 427.084384 
L 356.001903 429.695293 
L 359.820619 432.391678 
L 363.603164 435.164816 
L 367.351372 438.006982 
L 371.067124 440.911326 
L 374.752311 443.871766 
L 378.408803 446.882894 
L 382.038434 449.939889 
L 385.642984 453.038443 
L 389.224179 456.174698 
L 392.783683 459.345183 
L 396.323104 462.546775 
L 399.843989 465.776643 
L 403.347831 469.032222 
L 406.836073 472.311173 
L 410.310112 475.611356 
L 413.771306 478.930804 
L 417.220977 482.2677 
L 420.660421 485.620358 
L 424.09091 488.987201 
L 427.513705 492.366749 
L 430.93006 495.7576 
L 434.341229 499.158416 
L 437.748483 502.567912 
L 441.153112 505.984839 
L 444.556445 509.407975 
L 447.959859 512.83611 
L 451.364801 516.268032 
L 454.772806 519.702516 
L 458.185522 523.138307 
L 461.604746 526.574103 
L 465.032459 530.008535 
L 468.470882 533.440146 
L 471.922539 536.867362 
L 475.390351 540.288454 
L 478.877757 543.701501 
L 482.388884 547.104325 
L 485.928794 550.494417 
L 489.503847 553.86883 
L 493.122265 557.22403 
L 496.795031 560.555675 
L 500.537428 563.858283 
L 504.371824 567.124692 
L 508.333214 570.345123 
" style="fill:none;stroke:#000000;stroke-linecap:square;stroke-width:3;"/>
   </g>
   <g id="line2d_72">
    <path clip-path="url(#pe3a1099911)" d="M 310.669744 570.345123 
L 310.669744 408.320293 
L 508.333214 408.320293 
L 508.333214 570.345123 
L 310.669744 570.345123 
" style="fill:none;stroke:#d3d3d3;stroke-linecap:square;stroke-width:0.5;"/>
   </g>
   <g id="line2d_73">
    <path clip-path="url(#pe3a1099911)" d="M 223.39853 423.121383 
L 223.39853 423.121383 
L 227.179767 419.775825 
L 231.054088 416.499775 
L 235.030368 413.303282 
L 239.118172 410.19831 
L 243.32762 407.19913 
L 247.669106 404.322748 
L 252.152811 401.589363 
L 256.787925 399.022756 
L 261.581504 396.650526 
L 266.536925 394.503956 
L 271.651984 392.617254 
L 276.916917 391.025913 
L 282.312823 389.764016 
L 287.811197 388.860661 
L 293.375201 388.336129 
L 298.962831 388.198816 
L 304.531402 388.443947 
L 305.237262 388.522154 
" style="fill:none;stroke:#000000;stroke-linecap:square;stroke-width:3;"/>
   </g>
   <g id="line2d_74">
    <path clip-path="url(#pe3a1099911)" d="M 223.39853 423.121383 
L 223.39853 388.198816 
L 305.237262 388.198816 
L 305.237262 423.121383 
L 223.39853 423.121383 
" style="fill:none;stroke:#d3d3d3;stroke-linecap:square;stroke-width:0.5;"/>
   </g>
   <g id="line2d_75">
    <path clip-path="url(#pe3a1099911)" d="M 185.753977 482.189486 
L 181.197989 484.040092 
L 176.652938 485.910332 
L 172.119669 487.800965 
L 170.733501 488.387239 
" style="fill:none;stroke:#000000;stroke-linecap:square;stroke-width:3;"/>
   </g>
   <g id="line2d_76">
    <path clip-path="url(#pe3a1099911)" d="M 170.733501 488.387239 
L 170.733501 482.189486 
L 185.753977 482.189486 
L 185.753977 488.387239 
L 170.733501 488.387239 
" style="fill:none;stroke:#d3d3d3;stroke-linecap:square;stroke-width:0.5;"/>
   </g>
   <g id="line2d_77">
    <path clip-path="url(#pe3a1099911)" d="M 567.802226 496.562891 
L 567.802226 496.562891 
L 564.23354 493.232164 
L 560.658418 489.911552 
L 557.078196 486.600478 
L 553.494456 483.298245 
L 549.909076 480.004015 
L 546.324282 476.716776 
L 542.742723 473.435306 
L 539.167553 470.158133 
L 535.602543 466.883486 
L 532.052217 463.609237 
L 528.522021 460.332836 
L 525.018544 457.051245 
L 521.549797 453.760866 
L 518.125562 450.457475 
L 514.757831 447.136186 
L 511.461337 443.791459 
L 508.254162 440.41718 
L 505.158339 437.006883 
L 502.200292 433.554101 
L 499.410745 430.05283 
L 496.823585 426.497877 
L 494.473114 422.88467 
L 492.389685 419.208072 
L 490.594868 415.46041 
L 489.098376 411.630359 
L 487.898174 407.704807 
L 486.982832 403.673617 
L 486.334065 399.53408 
L 485.928646 395.29197 
L 485.740215 390.959241 
L 485.741243 386.550561 
L 485.904876 382.080496 
L 486.206274 377.561939 
L 486.62334 373.005556 
L 487.136945 368.419819 
L 487.73082 363.811299 
L 488.391289 359.185032 
L 489.106925 354.544858 
L 489.868211 349.893697 
L 490.667232 345.233779 
L 491.497397 340.566814 
L 492.353214 335.894116 
L 493.230095 331.216707 
L 494.1242 326.535382 
L 495.032304 321.850766 
L 495.951697 317.163351 
L 496.880093 312.47353 
L 497.815559 307.781616 
L 497.815559 307.781616 
" style="fill:none;stroke:#000000;stroke-linecap:square;stroke-width:3;"/>
   </g>
   <g id="line2d_78">
    <path clip-path="url(#pe3a1099911)" d="M 485.740215 496.562891 
L 485.740215 307.781616 
L 567.802226 307.781616 
L 567.802226 496.562891 
L 485.740215 496.562891 
" style="fill:none;stroke:#d3d3d3;stroke-linecap:square;stroke-width:0.5;"/>
   </g>
   <g id="line2d_79">
    <path clip-path="url(#pe3a1099911)" d="M 627.98468 513.615182 
L 627.98468 513.615182 
L 630.161249 518.788358 
L 632.05959 524.34348 
L 633.442411 530.65872 
L 633.211981 538.994405 
L 624.738212 549.4454 
L 614.056765 550.526178 
L 607.189228 548.627219 
L 601.557938 546.137613 
L 596.468171 543.369502 
L 593.844928 541.75196 
" style="fill:none;stroke:#000000;stroke-linecap:square;stroke-width:3;"/>
   </g>
   <g id="line2d_80">
    <path clip-path="url(#pe3a1099911)" d="M 593.844928 550.526178 
L 593.844928 513.615182 
L 633.442411 513.615182 
L 633.442411 550.526178 
L 593.844928 550.526178 
" style="fill:none;stroke:#d3d3d3;stroke-linecap:square;stroke-width:0.5;"/>
   </g>
   <g id="line2d_81">
    <path clip-path="url(#pe3a1099911)" d="M 161.201475 471.795803 
L 162.54641 470.908823 
L 166.552123 468.204491 
L 170.530186 465.457349 
L 174.480656 462.668755 
L 178.403615 459.839939 
L 182.299171 456.972037 
L 186.167458 454.066115 
L 190.008635 451.123178 
L 193.822888 448.144192 
L 197.610429 445.130084 
L 201.371496 442.081758 
L 205.106355 439.000094 
L 208.815295 435.885953 
L 212.498631 432.740185 
L 216.156704 429.563621 
L 219.789876 426.357084 
L 223.39853 423.121383 
L 223.39853 423.121383 
" style="fill:none;stroke:#000000;stroke-linecap:square;stroke-width:3;"/>
   </g>
   <g id="line2d_82">
    <path clip-path="url(#pe3a1099911)" d="M 161.201475 471.795803 
L 161.201475 423.121383 
L 223.39853 423.121383 
L 223.39853 471.795803 
L 161.201475 471.795803 
" style="fill:none;stroke:#d3d3d3;stroke-linecap:square;stroke-width:0.5;"/>
   </g>
   <g id="line2d_83">
    <path clip-path="url(#pe3a1099911)" d="M 161.201475 471.795803 
L 155.21669 474.364575 
L 150.619617 476.368668 
L 146.031256 478.402455 
L 141.451782 480.468967 
L 136.881268 482.572163 
L 132.31957 484.717386 
L 127.766077 486.912173 
L 123.219129 489.167847 
L 118.674439 491.503019 
L 114.119949 493.953001 
L 109.512621 496.604793 
L 104.557589 499.876397 
L 114.214863 518.260367 
L 119.867698 516.294218 
L 124.823421 514.201668 
L 129.571607 512.005449 
L 134.206513 509.724177 
L 138.763265 507.369562 
L 143.258952 504.94941 
L 147.703203 502.469249 
L 152.10197 499.933203 
L 156.459167 497.344483 
L 160.777483 494.705677 
L 165.058835 492.018938 
L 169.30462 489.286108 
L 173.515885 486.508802 
L 170.733501 488.387239 
" style="fill:none;stroke:#000000;stroke-linecap:square;stroke-width:3;"/>
   </g>
   <g id="line2d_84">
    <path clip-path="url(#pe3a1099911)" d="M 104.557589 518.260367 
L 104.557589 471.795803 
L 173.515885 471.795803 
L 173.515885 518.260367 
L 104.557589 518.260367 
" style="fill:none;stroke:#d3d3d3;stroke-linecap:square;stroke-width:0.5;"/>
   </g>
   <g id="line2d_85">
    <path clip-path="url(#pe3a1099911)" d="M 508.333214 570.345123 
L 508.333214 570.345123 
L 508.333214 570.345123 
" style="fill:none;stroke:#000000;stroke-linecap:square;stroke-width:3;"/>
   </g>
   <g id="line2d_86">
    <path clip-path="url(#pe3a1099911)" d="M 508.333214 570.345123 
L 508.333214 570.345123 
L 508.333214 570.345123 
L 508.333214 570.345123 
L 508.333214 570.345123 
" style="fill:none;stroke:#d3d3d3;stroke-linecap:square;stroke-width:0.5;"/>
   </g>
   <g id="line2d_87">
    <path clip-path="url(#pe3a1099911)" d="M 508.333214 570.345123 
L 508.333214 570.345123 
L 508.333214 570.345123 
" style="fill:none;stroke:#000000;stroke-linecap:square;stroke-width:3;"/>
   </g>
   <g id="line2d_88">
    <path clip-path="url(#pe3a1099911)" d="M 508.333214 570.345123 
L 508.333214 570.345123 
L 508.333214 570.345123 
L 508.333214 570.345123 
L 508.333214 570.345123 
" style="fill:none;stroke:#d3d3d3;stroke-linecap:square;stroke-width:0.5;"/>
   </g>
   <g id="line2d_89">
    <path clip-path="url(#pe3a1099911)" d="M 603.496551 507.762507 
L 604.142402 508.863253 
L 606.236002 512.848199 
L 608.259181 516.99472 
L 610.222773 521.240535 
L 610.222773 521.240535 
" style="fill:none;stroke:#000000;stroke-linecap:square;stroke-width:3;"/>
   </g>
   <g id="line2d_90">
    <path clip-path="url(#pe3a1099911)" d="M 603.496551 521.240535 
L 603.496551 507.762507 
L 610.222773 507.762507 
L 610.222773 521.240535 
L 603.496551 521.240535 
" style="fill:none;stroke:#d3d3d3;stroke-linecap:square;stroke-width:0.5;"/>
   </g>
   <g id="line2d_91">
    <path clip-path="url(#pe3a1099911)" d="M 599.471007 522.728345 
L 600.470341 519.018181 
L 601.711873 514.409283 
L 602.967658 509.930551 
L 604.279473 505.698439 
L 603.496551 507.762507 
" style="fill:none;stroke:#000000;stroke-linecap:square;stroke-width:3;"/>
   </g>
   <g id="line2d_92">
    <path clip-path="url(#pe3a1099911)" d="M 599.471007 522.728345 
L 599.471007 505.698439 
L 604.279473 505.698439 
L 604.279473 522.728345 
L 599.471007 522.728345 
" style="fill:none;stroke:#d3d3d3;stroke-linecap:square;stroke-width:0.5;"/>
   </g>
   <g id="line2d_93">
    <path clip-path="url(#pe3a1099911)" d="M 610.222773 521.240535 
L 610.222773 521.240535 
L 611.995436 525.449729 
L 613.390067 529.516956 
L 614.196634 533.114152 
L 614.273518 534.851239 
L 616.755044 532.209558 
L 617.212223 531.868508 
L 614.202449 530.995461 
L 610.424618 529.316624 
L 606.44858 527.151472 
L 602.431744 524.673487 
L 598.42786 521.977816 
L 599.471007 522.728345 
" style="fill:none;stroke:#000000;stroke-linecap:square;stroke-width:3;"/>
   </g>
   <g id="line2d_94">
    <path clip-path="url(#pe3a1099911)" d="M 598.42786 534.851239 
L 598.42786 521.240535 
L 617.212223 521.240535 
L 617.212223 534.851239 
L 598.42786 534.851239 
" style="fill:none;stroke:#d3d3d3;stroke-linecap:square;stroke-width:0.5;"/>
   </g>
   <g id="line2d_95">
    <path clip-path="url(#pe3a1099911)" d="M 488.289575 291.791845 
L 490.151158 291.908279 
L 491.982174 292.255667 
L 493.752558 292.828305 
L 495.43324 293.616792 
L 496.996622 294.608179 
L 498.417036 295.786189 
L 499.671157 297.131479 
L 500.738392 298.621958 
L 501.601218 300.233154 
L 502.245468 301.93861 
L 502.660562 303.710323 
L 502.839685 305.519202 
L 502.779895 307.335545 
L 502.482175 309.129527 
L 501.951413 310.871691 
L 501.196324 312.533431 
L 500.229306 314.087461 
L 499.066238 315.508265 
L 497.726218 316.772512 
L 496.231248 317.859444 
L 494.605876 318.751214 
L 492.876791 319.433177 
L 491.072384 319.894138 
L 489.222283 320.126526 
L 487.356867 320.126526 
L 485.506766 319.894138 
L 483.702359 319.433177 
L 481.973274 318.751214 
L 480.347902 317.859444 
L 478.852932 316.772512 
L 477.512912 315.508265 
L 476.349844 314.087461 
L 475.382826 312.533431 
L 474.627737 310.871691 
L 474.096975 309.129527 
L 473.799255 307.335545 
L 473.739465 305.519202 
L 473.918588 303.710323 
L 474.333682 301.93861 
L 474.977932 300.233154 
L 475.840758 298.621958 
L 476.907993 297.131479 
L 478.162114 295.786189 
L 479.582528 294.608179 
L 481.14591 293.616792 
L 482.826592 292.828305 
L 484.596976 292.255667 
L 486.427992 291.908279 
L 488.289575 291.791845 
" style="fill:none;stroke:#808080;stroke-linecap:square;stroke-width:1.5;"/>
   </g>
   <g id="line2d_96">
    <path clip-path="url(#pe3a1099911)" d="M 353.396418 348.012234 
L 355.258001 348.128667 
L 357.089017 348.476055 
L 358.859401 349.048694 
L 360.540082 349.83718 
L 362.103465 350.828568 
L 363.523878 352.006578 
L 364.777999 353.351867 
L 365.845235 354.842347 
L 366.708061 356.453543 
L 367.35231 358.158999 
L 367.767405 359.930712 
L 367.946527 361.739591 
L 367.886738 363.555933 
L 367.589018 365.349915 
L 367.058255 367.092079 
L 366.303166 368.75382 
L 365.336148 370.30785 
L 364.173081 371.728654 
L 362.83306 372.992901 
L 361.338091 374.079833 
L 359.712719 374.971602 
L 357.983634 375.653566 
L 356.179226 376.114527 
L 354.329126 376.346915 
L 352.46371 376.346915 
L 350.613609 376.114527 
L 348.809202 375.653566 
L 347.080116 374.971602 
L 345.454745 374.079833 
L 343.959775 372.992901 
L 342.619755 371.728654 
L 341.456687 370.30785 
L 340.489669 368.75382 
L 339.73458 367.092079 
L 339.203818 365.349915 
L 338.906097 363.555933 
L 338.846308 361.739591 
L 339.025431 359.930712 
L 339.440525 358.158999 
L 340.084774 356.453543 
L 340.947601 354.842347 
L 342.014836 353.351867 
L 343.268957 352.006578 
L 344.68937 350.828568 
L 346.252753 349.83718 
L 347.933435 349.048694 
L 349.703818 348.476055 
L 351.534834 348.128667 
L 353.396418 348.012234 
" style="fill:none;stroke:#808080;stroke-linecap:square;stroke-width:1.5;"/>
   </g>
   <g id="line2d_97">
    <path clip-path="url(#pe3a1099911)" d="M 182.039224 459.272977 
L 183.900807 459.38941 
L 185.731823 459.736798 
L 187.502207 460.309437 
L 189.182889 461.097923 
L 190.746271 462.089311 
L 192.166685 463.267321 
L 193.420806 464.61261 
L 194.488041 466.10309 
L 195.350867 467.714286 
L 195.995117 469.419742 
L 196.410211 471.191455 
L 196.589334 473.000334 
L 196.529544 474.816676 
L 196.231824 476.610658 
L 195.701062 478.352822 
L 194.945973 480.014563 
L 193.978955 481.568593 
L 192.815887 482.989397 
L 191.475867 484.253644 
L 189.980897 485.340576 
L 188.355525 486.232345 
L 186.62644 486.914309 
L 184.822033 487.375269 
L 182.971932 487.607658 
L 181.106516 487.607658 
L 179.256415 487.375269 
L 177.452008 486.914309 
L 175.722923 486.232345 
L 174.097551 485.340576 
L 172.602581 484.253644 
L 171.262561 482.989397 
L 170.099493 481.568593 
L 169.132475 480.014563 
L 168.377386 478.352822 
L 167.846624 476.610658 
L 167.548904 474.816676 
L 167.489114 473.000334 
L 167.668237 471.191455 
L 168.083331 469.419742 
L 168.727581 467.714286 
L 169.590407 466.10309 
L 170.657642 464.61261 
L 171.911763 463.267321 
L 173.332177 462.089311 
L 174.895559 461.097923 
L 176.576241 460.309437 
L 178.346625 459.736798 
L 180.177641 459.38941 
L 182.039224 459.272977 
" style="fill:none;stroke:#808080;stroke-linecap:square;stroke-width:1.5;"/>
   </g>
   <g id="line2d_98">
    <path clip-path="url(#pe3a1099911)" d="M 229.998602 415.871135 
L 231.860185 415.987568 
L 233.691202 416.334956 
L 235.461585 416.907594 
L 237.142267 417.696081 
L 238.70565 418.687469 
L 240.126063 419.865479 
L 241.380184 421.210768 
L 242.447419 422.701248 
L 243.310246 424.312443 
L 243.954495 426.0179 
L 244.369589 427.789613 
L 244.548712 429.598492 
L 244.488923 431.414834 
L 244.191202 433.208816 
L 243.66044 434.95098 
L 242.905351 436.61272 
L 241.938333 438.166751 
L 240.775265 439.587554 
L 239.435245 440.851802 
L 237.940275 441.938734 
L 236.314904 442.830503 
L 234.585818 443.512467 
L 232.781411 443.973427 
L 230.93131 444.205815 
L 229.065894 444.205815 
L 227.215793 443.973427 
L 225.411386 443.512467 
L 223.682301 442.830503 
L 222.056929 441.938734 
L 220.56196 440.851802 
L 219.221939 439.587554 
L 218.058871 438.166751 
L 217.091854 436.61272 
L 216.336764 434.95098 
L 215.806002 433.208816 
L 215.508282 431.414834 
L 215.448492 429.598492 
L 215.627615 427.789613 
L 216.042709 426.0179 
L 216.686959 424.312443 
L 217.549785 422.701248 
L 218.617021 421.210768 
L 219.871141 419.865479 
L 221.291555 418.687469 
L 222.854938 417.696081 
L 224.535619 416.907594 
L 226.306003 416.334956 
L 228.137019 415.987568 
L 229.998602 415.871135 
" style="fill:none;stroke:#808080;stroke-linecap:square;stroke-width:1.5;"/>
   </g>
   <g id="line2d_99">
    <path clip-path="url(#pe3a1099911)" d="M 388.423883 428.638083 
L 390.285467 428.754517 
L 392.116483 429.101905 
L 393.886866 429.674543 
L 395.567548 430.46303 
L 397.130931 431.454417 
L 398.551344 432.632427 
L 399.805465 433.977717 
L 400.872701 435.468196 
L 401.735527 437.079392 
L 402.379776 438.784848 
L 402.79487 440.556561 
L 402.973993 442.36544 
L 402.914204 444.181783 
L 402.616484 445.975764 
L 402.085721 447.717929 
L 401.330632 449.379669 
L 400.363614 450.933699 
L 399.200546 452.354503 
L 397.860526 453.61875 
L 396.365556 454.705682 
L 394.740185 455.597452 
L 393.011099 456.279415 
L 391.206692 456.740376 
L 389.356591 456.972764 
L 387.491176 456.972764 
L 385.641075 456.740376 
L 383.836667 456.279415 
L 382.107582 455.597452 
L 380.48221 454.705682 
L 378.987241 453.61875 
L 377.64722 452.354503 
L 376.484153 450.933699 
L 375.517135 449.379669 
L 374.762046 447.717929 
L 374.231283 445.975764 
L 373.933563 444.181783 
L 373.873774 442.36544 
L 374.052897 440.556561 
L 374.467991 438.784848 
L 375.11224 437.079392 
L 375.975066 435.468196 
L 377.042302 433.977717 
L 378.296423 432.632427 
L 379.716836 431.454417 
L 381.280219 430.46303 
L 382.960901 429.674543 
L 384.731284 429.101905 
L 386.5623 428.754517 
L 388.423883 428.638083 
" style="fill:none;stroke:#808080;stroke-linecap:square;stroke-width:1.5;"/>
   </g>
   <g id="line2d_100">
    <path clip-path="url(#pe3a1099911)" d="M 514.446282 548.819928 
L 516.307865 548.936361 
L 518.138881 549.283749 
L 519.909265 549.856388 
L 521.589946 550.644874 
L 523.153329 551.636262 
L 524.573743 552.814272 
L 525.827863 554.159561 
L 526.895099 555.650041 
L 527.757925 557.261237 
L 528.402175 558.966693 
L 528.817269 560.738406 
L 528.996392 562.547285 
L 528.936602 564.363627 
L 528.638882 566.157609 
L 528.10812 567.899773 
L 527.35303 569.561513 
L 526.386013 571.115544 
L 525.222945 572.536348 
L 523.882924 573.800595 
L 522.387955 574.887527 
L 520.762583 575.779296 
L 519.033498 576.46126 
L 517.229091 576.92222 
L 515.37899 577.154609 
L 513.513574 577.154609 
L 511.663473 576.92222 
L 509.859066 576.46126 
L 508.129981 575.779296 
L 506.504609 574.887527 
L 505.009639 573.800595 
L 503.669619 572.536348 
L 502.506551 571.115544 
L 501.539533 569.561513 
L 500.784444 567.899773 
L 500.253682 566.157609 
L 499.955961 564.363627 
L 499.896172 562.547285 
L 500.075295 560.738406 
L 500.490389 558.966693 
L 501.134638 557.261237 
L 501.997465 555.650041 
L 503.0647 554.159561 
L 504.318821 552.814272 
L 505.739234 551.636262 
L 507.302617 550.644874 
L 508.983299 549.856388 
L 510.753683 549.283749 
L 512.584699 548.936361 
L 514.446282 548.819928 
" style="fill:none;stroke:#808080;stroke-linecap:square;stroke-width:1.5;"/>
   </g>
   <g id="line2d_101">
    <path clip-path="url(#pe3a1099911)" d="M 619.103726 503.245949 
L 620.96531 503.362382 
L 622.796326 503.70977 
L 624.566709 504.282409 
L 626.247391 505.070895 
L 627.810774 506.062283 
L 629.231187 507.240293 
L 630.485308 508.585582 
L 631.552543 510.076062 
L 632.41537 511.687258 
L 633.059619 513.392714 
L 633.474713 515.164427 
L 633.653836 516.973306 
L 633.594047 518.789648 
L 633.296326 520.58363 
L 632.765564 522.325794 
L 632.010475 523.987534 
L 631.043457 525.541565 
L 629.880389 526.962369 
L 628.540369 528.226616 
L 627.045399 529.313548 
L 625.420028 530.205317 
L 623.690942 530.887281 
L 621.886535 531.348241 
L 620.036434 531.58063 
L 618.171018 531.58063 
L 616.320918 531.348241 
L 614.51651 530.887281 
L 612.787425 530.205317 
L 611.162053 529.313548 
L 609.667084 528.226616 
L 608.327063 526.962369 
L 607.163996 525.541565 
L 606.196978 523.987534 
L 605.441889 522.325794 
L 604.911126 520.58363 
L 604.613406 518.789648 
L 604.553617 516.973306 
L 604.732739 515.164427 
L 605.147833 513.392714 
L 605.792083 511.687258 
L 606.654909 510.076062 
L 607.722145 508.585582 
L 608.976266 507.240293 
L 610.396679 506.062283 
L 611.960062 505.070895 
L 613.640743 504.282409 
L 615.411127 503.70977 
L 617.242143 503.362382 
L 619.103726 503.245949 
" style="fill:none;stroke:#808080;stroke-linecap:square;stroke-width:1.5;"/>
   </g>
   <g id="line2d_102">
    <path clip-path="url(#pe3a1099911)" d="M 561.079276 489.199649 
L 562.940859 489.316083 
L 564.771875 489.663471 
L 566.542259 490.236109 
L 568.222941 491.024596 
L 569.786324 492.015983 
L 571.206737 493.193993 
L 572.460858 494.539283 
L 573.528093 496.029762 
L 574.39092 497.640958 
L 575.035169 499.346414 
L 575.450263 501.118128 
L 575.629386 502.927006 
L 575.569596 504.743349 
L 575.271876 506.537331 
L 574.741114 508.279495 
L 573.986025 509.941235 
L 573.019007 511.495266 
L 571.855939 512.916069 
L 570.515919 514.180317 
L 569.020949 515.267249 
L 567.395577 516.159018 
L 565.666492 516.840982 
L 563.862085 517.301942 
L 562.011984 517.53433 
L 560.146568 517.53433 
L 558.296467 517.301942 
L 556.49206 516.840982 
L 554.762975 516.159018 
L 553.137603 515.267249 
L 551.642633 514.180317 
L 550.302613 512.916069 
L 549.139545 511.495266 
L 548.172528 509.941235 
L 547.417438 508.279495 
L 546.886676 506.537331 
L 546.588956 504.743349 
L 546.529166 502.927006 
L 546.708289 501.118128 
L 547.123383 499.346414 
L 547.767633 497.640958 
L 548.630459 496.029762 
L 549.697695 494.539283 
L 550.951815 493.193993 
L 552.372229 492.015983 
L 553.935612 491.024596 
L 555.616293 490.236109 
L 557.386677 489.663471 
L 559.217693 489.316083 
L 561.079276 489.199649 
" style="fill:none;stroke:#808080;stroke-linecap:square;stroke-width:1.5;"/>
   </g>
   <g id="line2d_103"/>
   <g id="line2d_104"/>
   <g id="line2d_105"/>
   <g id="line2d_106"/>
   <g id="line2d_107"/>
   <g id="line2d_108"/>
   <g id="line2d_109"/>
   <g id="line2d_110"/>
   <g id="line2d_111"/>
   <g id="line2d_112"/>
   <g id="line2d_113"/>
   <g id="line2d_114"/>
   <g id="line2d_115"/>
   <g id="line2d_116"/>
   <g id="line2d_117"/>
   <g id="line2d_118"/>
   <g id="line2d_119"/>
   <g id="line2d_120"/>
   <g id="line2d_121"/>
   <g id="line2d_122"/>
   <g id="line2d_123"/>
   <g id="line2d_124"/>
   <g id="line2d_125"/>
   <g id="line2d_126"/>
   <g id="line2d_127"/>
   <g id="line2d_128"/>
   <g id="line2d_129"/>
   <g id="line2d_130"/>
   <g id="line2d_131"/>
   <g id="line2d_132"/>
   <g id="line2d_133"/>
   <g id="line2d_134"/>
   <g id="line2d_135"/>
   <g id="line2d_136"/>
   <g id="line2d_137"/>
   <g id="line2d_138"/>
   <g id="line2d_139"/>
   <g id="line2d_140"/>
   <g id="line2d_141"/>
   <g id="line2d_142"/>
   <g id="line2d_143"/>
   <g id="line2d_144"/>
   <g id="line2d_145"/>
   <g id="line2d_146"/>
   <g id="line2d_147"/>
   <g id="line2d_148"/>
   <g id="line2d_149"/>
   <g id="line2d_150"/>
   <g id="line2d_151"/>
   <g id="line2d_152"/>
   <g id="line2d_153"/>
   <g id="patch_3">
    <path d="M 90 630 
L 90 86.4 
" style="fill:none;stroke:#000000;stroke-linecap:square;stroke-linejoin:miter;stroke-width:0.8;"/>
   </g>
   <g id="patch_4">
    <path d="M 648 630 
L 648 86.4 
" style="fill:none;stroke:#000000;stroke-linecap:square;stroke-linejoin:miter;stroke-width:0.8;"/>
   </g>
   <g id="patch_5">
    <path d="M 90 630 
L 648 630 
" style="fill:none;stroke:#000000;stroke-linecap:square;stroke-linejoin:miter;stroke-width:0.8;"/>
   </g>
   <g id="patch_6">
    <path d="M 90 86.4 
L 648 86.4 
" style="fill:none;stroke:#000000;stroke-linecap:square;stroke-linejoin:miter;stroke-width:0.8;"/>
   </g>
   <g id="text_13">
    <!-- 0 -->
    <g transform="translate(41.636302 488.023476)scale(0.1 -0.1)">
     <use xlink:href="#DejaVuSans-30"/>
    </g>
   </g>
   <g id="text_14">
    <!-- 0 -->
    <g transform="translate(41.636302 473.841566)scale(0.1 -0.1)">
     <use xlink:href="#DejaVuSans-30"/>
    </g>
   </g>
   <g id="text_15">
    <!-- 0 -->
    <g transform="translate(41.636302 459.659657)scale(0.1 -0.1)">
     <use xlink:href="#DejaVuSans-30"/>
    </g>
   </g>
  </g>
 </g>
 <defs>
  <clipPath id="pe3a1099911">
   <rect height="543.6" width="558" x="90" y="86.4"/>
  </clipPath>
 </defs>
</svg>
