<?xml version="1.0" encoding="utf-8" standalone="no"?>
<!DOCTYPE svg PUBLIC "-//W3C//DTD SVG 1.1//EN"
  "http://www.w3.org/Graphics/SVG/1.1/DTD/svg11.dtd">
<svg height="720pt" version="1.1" viewBox="0 0 720 720" width="720pt" xmlns="http://www.w3.org/2000/svg" xmlns:xlink="http://www.w3.org/1999/xlink">
 <metadata>
  <rdf:RDF xmlns:cc="http://creativecommons.org/ns#" xmlns:dc="http://purl.org/dc/elements/1.1/" xmlns:rdf="http://www.w3.org/1999/02/22-rdf-syntax-ns#">
   <cc:Work>
    <dc:type rdf:resource="http://purl.org/dc/dcmitype/StillImage"/>
    <dc:date>2022-01-11T13:26:09.430471</dc:date>
    <dc:format>image/svg+xml</dc:format>
    <dc:creator>
     <cc:Agent>
      <dc:title>Matplotlib v3.4.3, https://matplotlib.org/</dc:title>
     </cc:Agent>
    </dc:creator>
   </cc:Work>
  </rdf:RDF>
 </metadata>
 <defs>
  <style type="text/css">*{stroke-linecap:butt;stroke-linejoin:round;}</style>
 </defs>
 <g id="figure_1">
  <g id="patch_1">
   <path d="M 0 720 
L 720 720 
L 720 0 
L 0 0 
z
" style="fill:none;"/>
  </g>
  <g id="axes_1">
   <g id="patch_2">
    <path d="M 90 630 
L 648 630 
L 648 86.4 
L 90 86.4 
z
" style="fill:#ffffff;"/>
   </g>
   <g id="PathCollection_1">
    <defs>
     <path d="M 0.972304 -8.870829 
Q -1.277159 -8.870829 -2.413438 -6.653699 
Q -3.545098 -4.441189 -3.545098 0.006929 
Q -3.545098 4.436569 -2.413438 6.653699 
Q -1.277159 8.870829 0.972304 8.870829 
Q 3.240243 8.870829 4.371903 6.653699 
Q 5.508182 4.436569 5.508182 0.006929 
Q 5.508182 -4.441189 4.371903 -6.653699 
Q 3.240243 -8.870829 0.972304 -8.870829 
z
M 0.972304 -11.18034 
Q 4.598235 -11.18034 6.51051 -8.311928 
Q 8.422784 -5.448135 8.422784 0.006929 
Q 8.422784 5.448135 6.51051 8.316547 
Q 4.598235 11.18034 0.972304 11.18034 
Q -2.649008 11.18034 -4.561283 8.316547 
Q -6.473558 5.448135 -6.473558 0.006929 
Q -6.473558 -5.448135 -4.561283 -8.311928 
Q -2.649008 -11.18034 0.972304 -11.18034 
z
" id="mda3ca0f042" style="stroke:#808080;"/>
    </defs>
    <g clip-path="url(#p7706ae45ce)">
     <use style="fill:#808080;stroke:#808080;" x="326.349331" xlink:href="#mda3ca0f042" y="381.866103"/>
    </g>
   </g>
   <g id="PathCollection_2">
    <defs>
     <path d="M -4.535873 8.63565 
L 0.404946 8.63565 
L 0.404946 -8.424791 
L -4.971969 -7.346533 
L -4.971969 -10.102082 
L 0.376192 -11.18034 
L 3.400108 -11.18034 
L 3.400108 8.63565 
L 8.340927 8.63565 
L 8.340927 11.18034 
L -4.535873 11.18034 
L -4.535873 8.63565 
z
" id="m1bd1ed0c31" style="stroke:#808080;"/>
    </defs>
    <g clip-path="url(#p7706ae45ce)">
     <use style="fill:#808080;stroke:#808080;" x="377.020272" xlink:href="#m1bd1ed0c31" y="549.08031"/>
    </g>
   </g>
   <g id="PathCollection_3">
    <defs>
     <path d="M -2.294912 8.680651 
L 8.075736 8.680651 
L 8.075736 11.18034 
L -5.867913 11.18034 
L -5.867913 8.680651 
Q -4.177916 6.929457 -1.259259 3.982555 
Q 1.664105 1.030945 2.4126 0.174178 
Q 3.838976 -1.426376 4.403877 -2.537349 
Q 4.973486 -3.648321 4.973486 -4.721634 
Q 4.973486 -6.472828 3.744825 -7.574386 
Q 2.516165 -8.680651 0.543718 -8.680651 
Q -0.854413 -8.680651 -2.407892 -8.195778 
Q -3.956663 -7.710904 -5.72198 -6.722326 
L -5.72198 -9.725719 
Q -3.928418 -10.445968 -2.370232 -10.813154 
Q -0.807338 -11.18034 0.487227 -11.18034 
Q 3.900173 -11.18034 5.929111 -9.471513 
Q 7.958048 -7.767394 7.958048 -4.914642 
Q 7.958048 -3.558879 7.449637 -2.344341 
Q 6.945933 -1.13451 5.604292 0.513119 
Q 5.237107 0.941502 3.264659 2.979855 
Q 1.296919 5.018207 -2.294912 8.680651 
z
" id="m6eebb0a269" style="stroke:#808080;"/>
    </defs>
    <g clip-path="url(#p7706ae45ce)">
     <use style="fill:#808080;stroke:#808080;" x="489.209389" xlink:href="#m6eebb0a269" y="603.077739"/>
    </g>
   </g>
   <g id="PathCollection_4">
    <defs>
     <path d="M 3.77605 -0.861447 
Q 5.868466 -0.413402 7.041697 1.004637 
Q 8.219548 2.418057 8.219548 4.496617 
Q 8.219548 7.683741 6.025513 9.43435 
Q 3.831478 11.18034 -0.210165 11.18034 
Q -1.563539 11.18034 -3.000054 10.912437 
Q -4.436569 10.644533 -5.965465 10.108727 
L -5.965465 7.295743 
Q -4.755282 8.002454 -3.314147 8.362737 
Q -1.868394 8.723021 -0.293308 8.723021 
Q 2.445772 8.723021 3.882287 7.64217 
Q 5.318802 6.561319 5.318802 4.496617 
Q 5.318802 2.588961 3.983905 1.517348 
Q 2.649008 0.441116 0.270213 0.441116 
L -2.242535 0.441116 
L -2.242535 -1.956155 
L 0.385688 -1.956155 
Q 2.533533 -1.956155 3.674431 -2.815293 
Q 4.815329 -3.674431 4.815329 -5.291088 
Q 4.815329 -6.949317 3.637479 -7.836169 
Q 2.464248 -8.72764 0.270213 -8.72764 
Q -0.930733 -8.72764 -2.302582 -8.464356 
Q -3.674431 -8.20569 -5.318802 -7.660646 
L -5.318802 -10.256536 
Q -3.655955 -10.718438 -2.205582 -10.949389 
Q -0.75521 -11.18034 0.528878 -11.18034 
Q 3.849954 -11.18034 5.780705 -9.66992 
Q 7.716074 -8.164119 7.716074 -5.595944 
Q 7.716074 -3.803764 6.690652 -2.570485 
Q 5.665229 -1.337207 3.77605 -0.861447 
z
" id="m2e96045390" style="stroke:#808080;"/>
    </defs>
    <g clip-path="url(#p7706ae45ce)">
     <use style="fill:#808080;stroke:#808080;" x="592.088752" xlink:href="#m2e96045390" y="528.133485"/>
    </g>
   </g>
   <g id="PathCollection_5">
    <defs>
     <path d="M 2.695646 -8.544598 
L -4.943215 3.392919 
L 2.695646 3.392919 
L 2.695646 -8.544598 
z
M 1.900131 -11.18034 
L 5.705184 -11.18034 
L 5.705184 3.392919 
L 8.896829 3.392919 
L 8.896829 5.908855 
L 5.705184 5.908855 
L 5.705184 11.18034 
L 2.695646 11.18034 
L 2.695646 5.908855 
L -7.396852 5.908855 
L -7.396852 2.99037 
L 1.900131 -11.18034 
z
" id="m1e444cfebf" style="stroke:#808080;"/>
    </defs>
    <g clip-path="url(#p7706ae45ce)">
     <use style="fill:#808080;stroke:#808080;" x="609.218715" xlink:href="#m1e444cfebf" y="409.031797"/>
    </g>
   </g>
   <g id="PathCollection_6">
    <defs>
     <path d="M -5.008473 -11.18034 
L 6.639575 -11.18034 
L 6.639575 -8.679629 
L -2.291535 -8.679629 
L -2.291535 -3.306861 
Q -1.647555 -3.527789 -1.003575 -3.635902 
Q -0.354894 -3.744015 0.293787 -3.744015 
Q 3.964943 -3.744015 6.108409 -1.732165 
Q 8.256576 0.279685 8.256576 3.715812 
Q 8.256576 7.255352 6.052002 9.220196 
Q 3.847428 11.18034 -0.16217 11.18034 
Q -1.544142 11.18034 -2.97782 10.945311 
Q -4.406798 10.710281 -5.934488 10.240223 
L -5.934488 7.255352 
Q -4.613624 7.974541 -3.203448 8.327085 
Q -1.793273 8.679629 -0.223278 8.679629 
Q 2.319738 8.679629 3.800422 7.344663 
Q 5.285807 6.009697 5.285807 3.715812 
Q 5.285807 1.426627 3.800422 0.091661 
Q 2.319738 -1.248005 -0.223278 -1.248005 
Q -1.412526 -1.248005 -2.597073 -0.984772 
Q -3.77692 -0.72154 -5.008473 -0.16217 
L -5.008473 -11.18034 
z
" id="m84178d045f" style="stroke:#808080;"/>
    </defs>
    <g clip-path="url(#p7706ae45ce)">
     <use style="fill:#808080;stroke:#808080;" x="605.499834" xlink:href="#m84178d045f" y="405.407028"/>
    </g>
   </g>
   <g id="PathCollection_7">
    <defs>
     <path d="M 1.286397 -1.175541 
Q -0.676687 -1.175541 -1.826823 0.168594 
Q -2.97234 1.50811 -2.97234 3.845335 
Q -2.97234 6.168702 -1.826823 7.522075 
Q -0.676687 8.870829 1.286397 8.870829 
Q 3.249481 8.870829 4.394998 7.522075 
Q 5.540515 6.168702 5.540515 3.845335 
Q 5.540515 1.50811 4.394998 0.168594 
Q 3.249481 -1.175541 1.286397 -1.175541 
z
M 7.07403 -10.316583 
L 7.07403 -7.660646 
Q 5.974703 -8.177976 4.8569 -8.450499 
Q 3.739097 -8.72764 2.63977 -8.72764 
Q -0.247118 -8.72764 -1.771394 -6.778413 
Q -3.291052 -4.829186 -3.508146 -0.889162 
Q -2.658246 -2.145535 -1.374159 -2.815293 
Q -0.085452 -3.485051 1.457301 -3.485051 
Q 4.704473 -3.485051 6.589033 -1.512729 
Q 8.473594 0.454974 8.473594 3.845335 
Q 8.473594 7.166411 6.51051 9.175685 
Q 4.547426 11.18034 1.286397 11.18034 
Q -2.45501 11.18034 -4.43195 8.316547 
Q -6.408891 5.448135 -6.408891 0.006929 
Q -6.408891 -5.101708 -3.983905 -8.141024 
Q -1.55892 -11.18034 2.524295 -11.18034 
Q 3.623622 -11.18034 4.741425 -10.963246 
Q 5.859228 -10.746152 7.07403 -10.316583 
z
" id="mf48fa103cc" style="stroke:#808080;"/>
    </defs>
    <g clip-path="url(#p7706ae45ce)">
     <use style="fill:#808080;stroke:#808080;" x="408.919104" xlink:href="#mf48fa103cc" y="305.977524"/>
    </g>
   </g>
   <g id="PathCollection_8"/>
   <g id="PathCollection_9"/>
   <g id="PathCollection_10"/>
   <g id="PathCollection_11"/>
   <g id="PathCollection_12"/>
   <g id="matplotlib.axis_1">
    <g id="xtick_1">
     <g id="line2d_1">
      <defs>
       <path d="M 0 0 
L 0 3.5 
" id="md7f61ceff6" style="stroke:#000000;stroke-width:0.8;"/>
      </defs>
      <g>
       <use style="stroke:#000000;stroke-width:0.8;" x="137.328149" xlink:href="#md7f61ceff6" y="630"/>
      </g>
     </g>
     <g id="text_1">
      <!-- −200 -->
      <g transform="translate(123.594555 644.598438)scale(0.1 -0.1)">
       <defs>
        <path d="M 678 2272 
L 4684 2272 
L 4684 1741 
L 678 1741 
L 678 2272 
z
" id="DejaVuSans-2212" transform="scale(0.015625)"/>
        <path d="M 1228 531 
L 3431 531 
L 3431 0 
L 469 0 
L 469 531 
Q 828 903 1448 1529 
Q 2069 2156 2228 2338 
Q 2531 2678 2651 2914 
Q 2772 3150 2772 3378 
Q 2772 3750 2511 3984 
Q 2250 4219 1831 4219 
Q 1534 4219 1204 4116 
Q 875 4013 500 3803 
L 500 4441 
Q 881 4594 1212 4672 
Q 1544 4750 1819 4750 
Q 2544 4750 2975 4387 
Q 3406 4025 3406 3419 
Q 3406 3131 3298 2873 
Q 3191 2616 2906 2266 
Q 2828 2175 2409 1742 
Q 1991 1309 1228 531 
z
" id="DejaVuSans-32" transform="scale(0.015625)"/>
        <path d="M 2034 4250 
Q 1547 4250 1301 3770 
Q 1056 3291 1056 2328 
Q 1056 1369 1301 889 
Q 1547 409 2034 409 
Q 2525 409 2770 889 
Q 3016 1369 3016 2328 
Q 3016 3291 2770 3770 
Q 2525 4250 2034 4250 
z
M 2034 4750 
Q 2819 4750 3233 4129 
Q 3647 3509 3647 2328 
Q 3647 1150 3233 529 
Q 2819 -91 2034 -91 
Q 1250 -91 836 529 
Q 422 1150 422 2328 
Q 422 3509 836 4129 
Q 1250 4750 2034 4750 
z
" id="DejaVuSans-30" transform="scale(0.015625)"/>
       </defs>
       <use xlink:href="#DejaVuSans-2212"/>
       <use x="83.789062" xlink:href="#DejaVuSans-32"/>
       <use x="147.412109" xlink:href="#DejaVuSans-30"/>
       <use x="211.035156" xlink:href="#DejaVuSans-30"/>
      </g>
     </g>
    </g>
    <g id="xtick_2">
     <g id="line2d_2">
      <g>
       <use style="stroke:#000000;stroke-width:0.8;" x="241.632027" xlink:href="#md7f61ceff6" y="630"/>
      </g>
     </g>
     <g id="text_2">
      <!-- −100 -->
      <g transform="translate(227.898433 644.598438)scale(0.1 -0.1)">
       <defs>
        <path d="M 794 531 
L 1825 531 
L 1825 4091 
L 703 3866 
L 703 4441 
L 1819 4666 
L 2450 4666 
L 2450 531 
L 3481 531 
L 3481 0 
L 794 0 
L 794 531 
z
" id="DejaVuSans-31" transform="scale(0.015625)"/>
       </defs>
       <use xlink:href="#DejaVuSans-2212"/>
       <use x="83.789062" xlink:href="#DejaVuSans-31"/>
       <use x="147.412109" xlink:href="#DejaVuSans-30"/>
       <use x="211.035156" xlink:href="#DejaVuSans-30"/>
      </g>
     </g>
    </g>
    <g id="xtick_3">
     <g id="line2d_3">
      <g>
       <use style="stroke:#000000;stroke-width:0.8;" x="345.935906" xlink:href="#md7f61ceff6" y="630"/>
      </g>
     </g>
     <g id="text_3">
      <!-- 0 -->
      <g transform="translate(342.754656 644.598438)scale(0.1 -0.1)">
       <use xlink:href="#DejaVuSans-30"/>
      </g>
     </g>
    </g>
    <g id="xtick_4">
     <g id="line2d_4">
      <g>
       <use style="stroke:#000000;stroke-width:0.8;" x="450.239784" xlink:href="#md7f61ceff6" y="630"/>
      </g>
     </g>
     <g id="text_4">
      <!-- 100 -->
      <g transform="translate(440.696034 644.598438)scale(0.1 -0.1)">
       <use xlink:href="#DejaVuSans-31"/>
       <use x="63.623047" xlink:href="#DejaVuSans-30"/>
       <use x="127.246094" xlink:href="#DejaVuSans-30"/>
      </g>
     </g>
    </g>
    <g id="xtick_5">
     <g id="line2d_5">
      <g>
       <use style="stroke:#000000;stroke-width:0.8;" x="554.543662" xlink:href="#md7f61ceff6" y="630"/>
      </g>
     </g>
     <g id="text_5">
      <!-- 200 -->
      <g transform="translate(544.999912 644.598438)scale(0.1 -0.1)">
       <use xlink:href="#DejaVuSans-32"/>
       <use x="63.623047" xlink:href="#DejaVuSans-30"/>
       <use x="127.246094" xlink:href="#DejaVuSans-30"/>
      </g>
     </g>
    </g>
   </g>
   <g id="matplotlib.axis_2">
    <g id="ytick_1">
     <g id="line2d_6">
      <defs>
       <path d="M 0 0 
L -3.5 0 
" id="m38e63e2a1e" style="stroke:#000000;stroke-width:0.8;"/>
      </defs>
      <g>
       <use style="stroke:#000000;stroke-width:0.8;" x="90" xlink:href="#m38e63e2a1e" y="583.893223"/>
      </g>
     </g>
     <g id="text_6">
      <!-- −200 -->
      <g transform="translate(55.532812 587.692441)scale(0.1 -0.1)">
       <use xlink:href="#DejaVuSans-2212"/>
       <use x="83.789062" xlink:href="#DejaVuSans-32"/>
       <use x="147.412109" xlink:href="#DejaVuSans-30"/>
       <use x="211.035156" xlink:href="#DejaVuSans-30"/>
      </g>
     </g>
    </g>
    <g id="ytick_2">
     <g id="line2d_7">
      <g>
       <use style="stroke:#000000;stroke-width:0.8;" x="90" xlink:href="#m38e63e2a1e" y="482.281057"/>
      </g>
     </g>
     <g id="text_7">
      <!-- −100 -->
      <g transform="translate(55.532812 486.080276)scale(0.1 -0.1)">
       <use xlink:href="#DejaVuSans-2212"/>
       <use x="83.789062" xlink:href="#DejaVuSans-31"/>
       <use x="147.412109" xlink:href="#DejaVuSans-30"/>
       <use x="211.035156" xlink:href="#DejaVuSans-30"/>
      </g>
     </g>
    </g>
    <g id="ytick_3">
     <g id="line2d_8">
      <g>
       <use style="stroke:#000000;stroke-width:0.8;" x="90" xlink:href="#m38e63e2a1e" y="380.668892"/>
      </g>
     </g>
     <g id="text_8">
      <!-- 0 -->
      <g transform="translate(76.6375 384.468111)scale(0.1 -0.1)">
       <use xlink:href="#DejaVuSans-30"/>
      </g>
     </g>
    </g>
    <g id="ytick_4">
     <g id="line2d_9">
      <g>
       <use style="stroke:#000000;stroke-width:0.8;" x="90" xlink:href="#m38e63e2a1e" y="279.056726"/>
      </g>
     </g>
     <g id="text_9">
      <!-- 100 -->
      <g transform="translate(63.9125 282.855945)scale(0.1 -0.1)">
       <use xlink:href="#DejaVuSans-31"/>
       <use x="63.623047" xlink:href="#DejaVuSans-30"/>
       <use x="127.246094" xlink:href="#DejaVuSans-30"/>
      </g>
     </g>
    </g>
    <g id="ytick_5">
     <g id="line2d_10">
      <g>
       <use style="stroke:#000000;stroke-width:0.8;" x="90" xlink:href="#m38e63e2a1e" y="177.444561"/>
      </g>
     </g>
     <g id="text_10">
      <!-- 200 -->
      <g transform="translate(63.9125 181.24378)scale(0.1 -0.1)">
       <use xlink:href="#DejaVuSans-32"/>
       <use x="63.623047" xlink:href="#DejaVuSans-30"/>
       <use x="127.246094" xlink:href="#DejaVuSans-30"/>
      </g>
     </g>
    </g>
   </g>
   <g id="line2d_11">
    <path clip-path="url(#p7706ae45ce)" d="M 408.919104 305.977524 
L 403.675105 306.771466 
L 398.408403 307.406943 
L 393.126025 307.90332 
L 387.833121 308.277266 
L 382.533475 308.543262 
L 377.229861 308.714029 
L 371.9243 308.800875 
L 366.618244 308.814006 
L 361.312702 308.762772 
L 356.00834 308.655908 
L 350.705545 308.501739 
L 345.404479 308.308392 
L 340.105114 308.084016 
L 334.807258 307.837028 
L 329.510579 307.576408 
L 324.21463 307.312086 
L 318.918875 307.055468 
L 313.622747 306.820195 
L 308.325762 306.623318 
L 303.027767 306.487188 
L 297.729515 306.44273 
L 292.434107 306.535516 
L 287.150931 306.838131 
L 281.908063 307.478283 
L 276.799423 308.711283 
L 272.207077 311.108893 
L 269.593226 315.478093 
L 270.098366 320.667087 
L 272.179898 325.451077 
L 274.914741 329.883794 
L 277.994581 334.088671 
L 281.287653 338.135821 
L 284.725739 342.067075 
L 288.26898 345.909377 
L 291.89206 349.68115 
L 295.577893 353.395578 
L 299.314392 357.062445 
L 303.092686 360.689217 
L 306.906061 364.28173 
L 310.749311 367.844631 
L 314.618309 371.381683 
L 318.509724 374.895972 
L 322.420823 378.390063 
L 326.349331 381.866103 
" style="fill:none;stroke:#808080;stroke-linecap:square;stroke-width:1.5;"/>
   </g>
   <g id="line2d_12">
    <path clip-path="url(#p7706ae45ce)" d="M 269.593226 381.866103 
L 269.593226 305.977524 
L 408.919104 305.977524 
L 408.919104 381.866103 
L 269.593226 381.866103 
" style="fill:none;stroke:#d3d3d3;stroke-linecap:square;stroke-width:0.5;"/>
   </g>
   <g id="line2d_13">
    <path clip-path="url(#p7706ae45ce)" d="M 326.349331 381.866103 
L 330.266558 385.37501 
L 334.117362 388.952923 
L 337.890023 392.608648 
L 341.569622 396.352618 
L 345.136879 400.197242 
L 348.566467 404.157273 
L 351.824572 408.250128 
L 354.865328 412.495916 
L 357.625801 416.916557 
L 360.019571 421.532635 
L 361.930947 426.35529 
L 363.217456 431.370026 
L 363.737122 436.515564 
L 363.411276 441.679912 
L 362.286298 446.741766 
L 360.526067 451.633344 
L 358.343312 456.363082 
L 355.943146 460.992411 
L 353.507453 465.603647 
L 351.202059 470.277194 
L 349.185906 475.075205 
L 347.609954 480.026629 
L 346.600238 485.116126 
L 346.231231 490.286784 
L 346.509547 495.461596 
L 347.38358 500.571296 
L 348.771004 505.570415 
L 350.584463 510.437611 
L 352.745739 515.168356 
L 355.190194 519.767439 
L 357.866281 524.243876 
L 360.733405 528.608057 
L 363.759622 532.87033 
L 366.919666 537.040371 
L 370.193405 541.126963 
L 373.564651 545.137953 
L 377.020272 549.08031 
" style="fill:none;stroke:#808080;stroke-linecap:square;stroke-width:1.5;"/>
   </g>
   <g id="line2d_14">
    <path clip-path="url(#p7706ae45ce)" d="M 326.349331 549.08031 
L 326.349331 381.866103 
L 377.020272 381.866103 
L 377.020272 549.08031 
L 326.349331 549.08031 
" style="fill:none;stroke:#d3d3d3;stroke-linecap:square;stroke-width:0.5;"/>
   </g>
   <g id="line2d_15">
    <path clip-path="url(#p7706ae45ce)" d="M 377.020272 549.08031 
L 380.503887 552.924843 
L 384.045104 556.719194 
L 387.648549 560.457548 
L 391.319198 564.13326 
L 395.062373 567.738723 
L 398.883717 571.265238 
L 402.78914 574.702853 
L 406.784727 578.040212 
L 410.876599 581.26439 
L 415.070699 584.360756 
L 419.372503 587.312875 
L 423.786635 590.102489 
L 428.316381 592.709633 
L 432.963123 595.112915 
L 437.725727 597.290053 
L 442.599951 599.218672 
L 447.577994 600.877368 
L 452.6483 602.246981 
L 457.795723 603.311906 
L 463.002122 604.061255 
L 468.247334 604.489647 
L 473.510381 604.59746 
L 478.770718 604.390515 
L 484.009309 603.879276 
L 489.209389 603.077739 
" style="fill:none;stroke:#808080;stroke-linecap:square;stroke-width:1.5;"/>
   </g>
   <g id="line2d_16">
    <path clip-path="url(#p7706ae45ce)" d="M 377.020272 604.59746 
L 377.020272 549.08031 
L 489.209389 549.08031 
L 489.209389 604.59746 
L 377.020272 604.59746 
" style="fill:none;stroke:#d3d3d3;stroke-linecap:square;stroke-width:0.5;"/>
   </g>
   <g id="line2d_17">
    <path clip-path="url(#p7706ae45ce)" d="M 489.209389 603.077739 
L 494.356869 602.002235 
L 499.440407 600.670308 
L 504.451242 599.099788 
L 509.382866 597.30809 
L 514.230643 595.311756 
L 518.991418 593.126174 
L 523.663164 590.765452 
L 528.244677 588.242391 
L 532.735328 585.56852 
L 537.134868 582.75418 
L 541.443275 579.808614 
L 545.66064 576.74007 
L 549.787076 573.555904 
L 553.822658 570.262672 
L 557.767371 566.866218 
L 561.621074 563.371753 
L 565.383467 559.783919 
L 569.054067 556.106857 
L 572.632186 552.344258 
L 576.116909 548.49941 
L 579.507072 544.575243 
L 582.801239 540.574366 
L 585.997676 536.499104 
L 589.09432 532.351527 
L 592.088752 528.133485 
" style="fill:none;stroke:#808080;stroke-linecap:square;stroke-width:1.5;"/>
   </g>
   <g id="line2d_18">
    <path clip-path="url(#p7706ae45ce)" d="M 489.209389 603.077739 
L 489.209389 528.133485 
L 592.088752 528.133485 
L 592.088752 603.077739 
L 489.209389 603.077739 
" style="fill:none;stroke:#d3d3d3;stroke-linecap:square;stroke-width:0.5;"/>
   </g>
   <g id="line2d_19">
    <path clip-path="url(#p7706ae45ce)" d="M 592.088752 528.133485 
L 594.978149 523.846637 
L 597.759246 519.492478 
L 600.428282 515.072376 
L 602.980937 510.5876 
L 605.412262 506.03936 
L 607.71659 501.42885 
L 609.88744 496.7573 
L 611.917391 492.026036 
L 613.797949 487.236563 
L 615.51937 482.390666 
L 617.070464 477.490543 
L 618.438364 472.538979 
L 619.608243 467.539589 
L 620.563008 462.497137 
L 621.282943 457.417972 
L 621.745344 452.310627 
L 621.924172 447.186623 
L 621.789811 442.06155 
L 621.309082 436.95647 
L 620.44577 431.899647 
L 619.162052 426.928493 
L 617.421324 422.091348 
L 615.192865 417.448299 
L 612.458302 413.069801 
L 609.218715 409.031797 
" style="fill:none;stroke:#808080;stroke-linecap:square;stroke-width:1.5;"/>
   </g>
   <g id="line2d_20">
    <path clip-path="url(#p7706ae45ce)" d="M 592.088752 528.133485 
L 592.088752 409.031797 
L 621.924172 409.031797 
L 621.924172 528.133485 
L 592.088752 528.133485 
" style="fill:none;stroke:#d3d3d3;stroke-linecap:square;stroke-width:0.5;"/>
   </g>
   <g id="line2d_21">
    <path clip-path="url(#p7706ae45ce)" d="M 609.218715 409.031797 
L 605.499834 405.407028 
" style="fill:none;stroke:#808080;stroke-linecap:square;stroke-width:1.5;"/>
   </g>
   <g id="line2d_22">
    <path clip-path="url(#p7706ae45ce)" d="M 605.499834 409.031797 
L 605.499834 405.407028 
L 609.218715 405.407028 
L 609.218715 409.031797 
L 605.499834 409.031797 
" style="fill:none;stroke:#d3d3d3;stroke-linecap:square;stroke-width:0.5;"/>
   </g>
   <g id="line2d_23">
    <path clip-path="url(#p7706ae45ce)" d="M 605.499834 405.407028 
L 601.451504 401.94481 
L 597.377788 398.510881 
L 593.278607 395.105722 
L 589.153853 391.729854 
L 585.003386 388.383848 
L 580.827036 385.068324 
L 576.624602 381.783955 
L 572.395848 378.531476 
L 568.140505 375.311685 
L 563.858267 372.125449 
L 559.548791 368.973715 
L 555.211694 365.857515 
L 550.846553 362.777974 
L 546.452903 359.736325 
L 542.030231 356.733916 
L 537.577979 353.772228 
L 533.095539 350.852888 
L 528.582253 347.977692 
L 524.037406 345.148624 
L 519.46023 342.367884 
L 514.849898 339.637915 
L 510.205523 336.961445 
L 505.526157 334.341525 
L 500.810792 331.781584 
L 496.058356 329.285489 
L 491.267722 326.85762 
L 486.437705 324.502961 
L 481.567074 322.227212 
L 476.654565 320.03693 
L 471.698897 317.939697 
L 466.698805 315.944339 
L 461.653088 314.061206 
L 456.56068 312.302522 
L 451.420762 310.682851 
L 446.232947 309.219704 
L 440.997562 307.934346 
L 435.716125 306.852876 
L 430.392133 306.007671 
L 425.032412 305.439309 
L 419.649445 305.199022 
L 414.265423 305.351544 
L 408.919104 305.977524 
" style="fill:none;stroke:#808080;stroke-linecap:square;stroke-width:1.5;"/>
   </g>
   <g id="line2d_24">
    <path clip-path="url(#p7706ae45ce)" d="M 408.919104 405.407028 
L 408.919104 305.199022 
L 605.499834 305.199022 
L 605.499834 405.407028 
L 408.919104 405.407028 
" style="fill:none;stroke:#d3d3d3;stroke-linecap:square;stroke-width:0.5;"/>
   </g>
   <g id="line2d_25">
    <path clip-path="url(#p7706ae45ce)" d="M 280.319756 318.267527 
L 278.960523 318.852596 
L 279.874842 317.188176 
L 280.089273 317.748605 
L 280.319756 318.267527 
" style="fill:none;stroke:#000000;stroke-linecap:square;stroke-width:3;"/>
   </g>
   <g id="line2d_26">
    <path clip-path="url(#p7706ae45ce)" d="M 278.960523 318.852596 
L 278.960523 317.188176 
L 280.319756 317.188176 
L 280.319756 318.852596 
L 278.960523 318.852596 
" style="fill:none;stroke:#d3d3d3;stroke-linecap:square;stroke-width:0.5;"/>
   </g>
   <g id="line2d_27">
    <path clip-path="url(#p7706ae45ce)" d="M 280.319756 318.267527 
L 281.401307 320.702584 
L 283.599966 324.257046 
L 286.308994 327.9533 
L 289.33312 331.669094 
L 292.567552 335.367133 
L 295.951188 339.03619 
L 299.445741 342.67407 
L 303.025796 346.281848 
L 306.673683 349.861723 
L 310.376648 353.416167 
L 314.125193 356.947591 
L 317.912059 360.458212 
L 321.731574 363.95002 
L 325.57922 367.424777 
L 329.451334 370.884036 
L 333.344909 374.329163 
L 333.344909 374.329163 
" style="fill:none;stroke:#000000;stroke-linecap:square;stroke-width:3;"/>
   </g>
   <g id="line2d_28">
    <path clip-path="url(#p7706ae45ce)" d="M 280.319756 374.329163 
L 280.319756 318.267527 
L 333.344909 318.267527 
L 333.344909 374.329163 
L 280.319756 374.329163 
" style="fill:none;stroke:#d3d3d3;stroke-linecap:square;stroke-width:0.5;"/>
   </g>
   <g id="line2d_29">
    <path clip-path="url(#p7706ae45ce)" d="M 384.887366 542.408554 
L 384.887366 542.408554 
L 388.274167 546.146266 
L 391.70759 549.825145 
L 395.190694 553.438686 
L 398.726645 556.979552 
L 402.318676 560.43948 
L 405.970041 563.809187 
L 409.683932 567.078282 
L 413.463384 570.235193 
L 417.31115 573.267125 
L 421.229549 576.160063 
L 425.2203 578.89885 
L 429.284341 581.467363 
L 433.421666 583.848805 
L 437.63119 586.026131 
L 441.910674 587.982593 
L 446.256712 589.702387 
L 450.664782 591.171314 
L 455.129324 592.37741 
L 459.643789 593.311457 
L 464.200665 593.967346 
L 468.791466 594.342267 
L 473.406764 594.436745 
L 478.036332 594.254516 
L 482.669422 593.802248 
L 487.29516 593.089108 
" style="fill:none;stroke:#000000;stroke-linecap:square;stroke-width:3;"/>
   </g>
   <g id="line2d_30">
    <path clip-path="url(#p7706ae45ce)" d="M 384.887366 594.436745 
L 384.887366 542.408554 
L 487.29516 542.408554 
L 487.29516 594.436745 
L 384.887366 594.436745 
" style="fill:none;stroke:#d3d3d3;stroke-linecap:square;stroke-width:0.5;"/>
   </g>
   <g id="line2d_31">
    <path clip-path="url(#p7706ae45ce)" d="M 487.29516 593.089108 
L 491.902972 592.126229 
L 496.482966 590.926107 
L 501.026205 589.502023 
L 505.524853 587.86752 
L 509.972212 586.035982 
L 514.362658 584.020326 
L 518.691536 581.832788 
L 522.955017 579.484803 
L 527.14996 576.98695 
L 531.273768 574.348945 
L 535.324268 571.579663 
L 539.299603 568.687183 
L 543.198138 565.678846 
L 547.018386 562.561311 
L 550.758943 559.340618 
L 554.418431 556.022244 
L 557.995454 552.611164 
L 561.488557 549.1119 
L 564.896187 545.528571 
L 568.216663 541.864937 
L 571.448142 538.124446 
L 574.588584 534.310272 
L 577.635723 530.425357 
L 580.587032 526.472445 
L 583.439682 522.45413 
L 586.190507 518.372887 
" style="fill:none;stroke:#000000;stroke-linecap:square;stroke-width:3;"/>
   </g>
   <g id="line2d_32">
    <path clip-path="url(#p7706ae45ce)" d="M 487.29516 593.089108 
L 487.29516 518.372887 
L 586.190507 518.372887 
L 586.190507 593.089108 
L 487.29516 593.089108 
" style="fill:none;stroke:#d3d3d3;stroke-linecap:square;stroke-width:0.5;"/>
   </g>
   <g id="line2d_33">
    <path clip-path="url(#p7706ae45ce)" d="M 586.190507 518.372887 
L 588.835954 514.231124 
L 591.372038 510.031224 
L 593.794284 505.775598 
L 596.097661 501.466748 
L 598.276518 497.107336 
L 600.324494 492.700271 
L 602.234434 488.248811 
L 603.998286 483.756688 
L 605.606984 479.228271 
L 607.05033 474.668759 
L 608.316862 470.084438 
L 609.393727 465.48299 
L 610.26657 460.873895 
L 610.919459 456.268924 
L 611.334889 451.682738 
L 611.493927 447.133585 
L 611.376576 442.64406 
L 610.962477 438.241799 
L 610.232029 433.959895 
L 609.167973 429.836648 
L 607.757235 425.914158 
L 605.992515 422.235402 
L 603.872856 418.840046 
L 601.402777 415.760372 
L 598.590784 413.01934 
" style="fill:none;stroke:#000000;stroke-linecap:square;stroke-width:3;"/>
   </g>
   <g id="line2d_34">
    <path clip-path="url(#p7706ae45ce)" d="M 586.190507 518.372887 
L 586.190507 413.01934 
L 611.493927 413.01934 
L 611.493927 518.372887 
L 586.190507 518.372887 
" style="fill:none;stroke:#d3d3d3;stroke-linecap:square;stroke-width:0.5;"/>
   </g>
   <g id="line2d_35">
    <path clip-path="url(#p7706ae45ce)" d="M 333.344909 374.329163 
L 333.344909 374.329163 
L 337.393028 377.955362 
L 341.391198 381.670261 
L 345.330777 385.487821 
L 349.200598 389.425479 
L 352.985898 393.505313 
L 356.666614 397.755656 
L 360.214603 402.213243 
L 363.588938 406.925811 
L 366.727835 411.95429 
L 369.535192 417.371341 
L 371.861311 423.246887 
L 373.488756 429.60209 
L 374.16563 436.322668 
L 373.738927 443.102576 
L 372.307255 449.560776 
L 370.186548 455.464798 
L 367.727854 460.797895 
L 365.206856 465.662109 
L 362.820096 470.180043 
L 360.711504 474.451865 
L 358.987756 478.54923 
L 357.719436 482.527743 
L 356.941051 486.444961 
L 356.661312 490.364727 
L 356.875982 494.338094 
L 357.569164 498.382742 
L 358.70887 502.484846 
L 360.249115 506.616151 
L 362.137738 510.748549 
L 364.323712 514.860381 
L 366.761256 518.937211 
L 369.411222 522.970474 
L 372.240977 526.955795 
L 375.223634 530.891589 
L 378.33713 534.778036 
L 381.563349 538.616397 
L 384.887366 542.408554 
L 384.887366 542.408554 
" style="fill:none;stroke:#000000;stroke-linecap:square;stroke-width:3;"/>
   </g>
   <g id="line2d_36">
    <path clip-path="url(#p7706ae45ce)" d="M 333.344909 542.408554 
L 333.344909 374.329163 
L 384.887366 374.329163 
L 384.887366 542.408554 
L 333.344909 542.408554 
" style="fill:none;stroke:#d3d3d3;stroke-linecap:square;stroke-width:0.5;"/>
   </g>
   <g id="line2d_37">
    <path clip-path="url(#p7706ae45ce)" d="M 598.590784 413.01934 
L 594.598295 409.604878 
L 590.581351 406.218804 
L 586.539959 402.861649 
L 582.474102 399.533985 
L 578.383743 396.236436 
L 574.268817 392.969674 
L 570.12924 389.734429 
L 565.964901 386.531493 
L 561.775668 383.361722 
L 557.561385 380.226047 
L 553.321873 377.125479 
L 549.05693 374.061119 
L 544.766332 371.034165 
L 540.449833 368.045925 
L 536.10717 365.097828 
L 531.738057 362.191441 
L 527.342195 359.328485 
L 522.919273 356.510852 
L 518.468969 353.74063 
L 513.99096 351.02013 
L 509.484929 348.351917 
L 504.950575 345.738843 
L 500.387624 343.184094 
L 495.79585 340.691241 
L 491.175099 338.264298 
L 486.525315 335.907797 
L 481.846586 333.626876 
L 477.139198 331.427381 
L 472.403706 329.315999 
L 467.641035 327.300411 
L 462.852615 325.389487 
L 458.040571 323.593515 
L 453.207981 321.924497 
L 448.359243 320.396498 
L 443.500606 319.026079 
L 438.640928 317.832808 
L 433.792779 316.839844 
L 428.974068 316.07454 
L 424.210386 315.56892 
L 419.538298 315.359661 
L 415.00956 315.486868 
L 410.695248 315.990333 
L 410.695248 315.990333 
" style="fill:none;stroke:#000000;stroke-linecap:square;stroke-width:3;"/>
   </g>
   <g id="line2d_38">
    <path clip-path="url(#p7706ae45ce)" d="M 410.695248 413.01934 
L 410.695248 315.359661 
L 598.590784 315.359661 
L 598.590784 413.01934 
L 410.695248 413.01934 
" style="fill:none;stroke:#d3d3d3;stroke-linecap:square;stroke-width:0.5;"/>
   </g>
   <g id="line2d_39">
    <path clip-path="url(#p7706ae45ce)" d="M 410.695248 315.990333 
L 410.695248 315.990333 
L 405.109941 316.83608 
L 399.544101 317.507746 
L 393.998745 318.028906 
L 388.474124 318.419276 
L 382.970061 318.695574 
L 377.486151 318.872177 
L 372.021893 318.961647 
L 366.576774 318.975142 
L 361.15033 318.922758 
L 355.742192 318.813816 
L 350.352139 318.657121 
L 344.980149 318.461196 
L 339.626474 318.234528 
L 334.291744 317.985826 
L 328.977124 317.724326 
L 323.684553 317.460172 
L 318.417151 317.204922 
L 313.179882 316.972248 
L 307.980748 316.778974 
L 302.833005 316.646633 
L 297.759606 316.603904 
L 292.802854 316.690381 
L 288.047752 316.961717 
L 283.686318 317.490737 
L 280.219004 318.310894 
L 280.319756 318.267527 
" style="fill:none;stroke:#000000;stroke-linecap:square;stroke-width:3;"/>
   </g>
   <g id="line2d_40">
    <path clip-path="url(#p7706ae45ce)" d="M 280.219004 318.975142 
L 280.219004 315.990333 
L 410.695248 315.990333 
L 410.695248 318.975142 
L 280.219004 318.975142 
" style="fill:none;stroke:#d3d3d3;stroke-linecap:square;stroke-width:0.5;"/>
   </g>
   <g id="line2d_41">
    <path clip-path="url(#p7706ae45ce)" d="M 598.590784 413.01934 
L 598.590784 413.01934 
L 598.590784 413.01934 
" style="fill:none;stroke:#000000;stroke-linecap:square;stroke-width:3;"/>
   </g>
   <g id="line2d_42">
    <path clip-path="url(#p7706ae45ce)" d="M 598.590784 413.01934 
L 598.590784 413.01934 
L 598.590784 413.01934 
L 598.590784 413.01934 
L 598.590784 413.01934 
" style="fill:none;stroke:#d3d3d3;stroke-linecap:square;stroke-width:0.5;"/>
   </g>
   <g id="line2d_43">
    <path clip-path="url(#p7706ae45ce)" d="M 598.590784 413.01934 
L 598.590784 413.01934 
L 598.590784 413.01934 
" style="fill:none;stroke:#000000;stroke-linecap:square;stroke-width:3;"/>
   </g>
   <g id="line2d_44">
    <path clip-path="url(#p7706ae45ce)" d="M 598.590784 413.01934 
L 598.590784 413.01934 
L 598.590784 413.01934 
L 598.590784 413.01934 
L 598.590784 413.01934 
" style="fill:none;stroke:#d3d3d3;stroke-linecap:square;stroke-width:0.5;"/>
   </g>
   <g id="line2d_45">
    <path clip-path="url(#p7706ae45ce)" d="M 612.408884 397.794715 
L 608.304713 394.284741 
L 604.174226 390.802958 
L 600.017256 387.349795 
L 595.833603 383.925723 
L 591.623028 380.531261 
L 587.385255 377.166974 
L 583.119964 373.833482 
L 578.826795 370.53146 
L 574.505342 367.261648 
L 570.155149 364.024851 
L 565.775708 360.821951 
L 561.366458 357.65391 
L 556.926775 354.521784 
L 552.455972 351.426725 
L 547.953292 348.370004 
L 543.417901 345.353014 
L 538.848883 342.377291 
L 534.245233 339.444533 
L 529.605844 336.556619 
L 524.929501 333.715637 
L 520.214867 330.923913 
L 515.460472 328.184047 
L 510.664691 325.498956 
L 505.825734 322.871928 
L 500.941614 320.306681 
L 496.010129 317.807442 
L 491.028823 315.379045 
L 485.99495 313.027043 
L 480.905424 310.757861 
L 475.756759 308.578982 
L 470.544995 306.499192 
L 465.265605 304.528897 
L 459.913378 302.680547 
L 454.482281 300.969204 
L 448.965287 299.413329 
L 443.354196 298.035885 
L 437.639471 296.865908 
L 431.810199 295.940801 
L 425.854438 295.309697 
L 419.760591 295.038382 
L 413.521286 295.21622 
L 407.142961 295.964714 
L 407.142961 295.964714 
" style="fill:none;stroke:#000000;stroke-linecap:square;stroke-width:3;"/>
   </g>
   <g id="line2d_46">
    <path clip-path="url(#p7706ae45ce)" d="M 407.142961 397.794715 
L 407.142961 295.038382 
L 612.408884 295.038382 
L 612.408884 397.794715 
L 407.142961 397.794715 
" style="fill:none;stroke:#d3d3d3;stroke-linecap:square;stroke-width:0.5;"/>
   </g>
   <g id="line2d_47">
    <path clip-path="url(#p7706ae45ce)" d="M 407.142961 295.964714 
L 407.142961 295.964714 
L 402.240268 296.706852 
L 397.272704 297.30614 
L 392.253305 297.777734 
L 387.192119 298.135256 
L 382.096889 298.390951 
L 376.973571 298.55588 
L 371.826708 298.640104 
L 366.659714 298.652869 
L 361.475075 298.602787 
L 356.274488 298.498 
L 351.058951 298.346357 
L 345.82881 298.155587 
L 340.583754 297.933504 
L 335.322771 297.688229 
L 330.044035 297.428489 
L 324.744707 297.164 
L 319.420599 296.906013 
L 314.065612 296.668142 
L 308.670777 296.467662 
L 303.222529 296.327743 
L 297.699424 296.281556 
L 292.065359 296.380652 
L 286.25411 296.714544 
L 280.129808 297.465829 
L 273.379842 299.111672 
L 265.453631 303.365191 
L 259.31161 313.76801 
L 260.10746 323.585569 
L 262.958489 330.19957 
L 266.229517 335.510542 
L 269.680167 340.224043 
L 273.242186 344.602547 
L 276.883927 348.767017 
L 280.586772 352.782565 
L 284.338379 356.68823 
L 288.129991 360.509309 
L 291.955102 364.263167 
L 295.808723 367.962267 
L 299.686929 371.615869 
L 303.586563 375.231051 
L 307.505044 378.813347 
L 311.440228 382.367168 
L 315.390311 385.896089 
L 319.353753 389.403042 
L 319.353753 389.403042 
" style="fill:none;stroke:#000000;stroke-linecap:square;stroke-width:3;"/>
   </g>
   <g id="line2d_48">
    <path clip-path="url(#p7706ae45ce)" d="M 259.31161 389.403042 
L 259.31161 295.964714 
L 407.142961 295.964714 
L 407.142961 389.403042 
L 259.31161 389.403042 
" style="fill:none;stroke:#d3d3d3;stroke-linecap:square;stroke-width:0.5;"/>
   </g>
   <g id="line2d_49">
    <path clip-path="url(#p7706ae45ce)" d="M 319.353753 389.403042 
L 319.353753 389.403042 
L 323.140088 392.794657 
L 326.843525 396.235585 
L 330.449269 399.729474 
L 333.938647 403.279758 
L 337.28786 406.889171 
L 340.466321 410.558889 
L 343.43454 414.287014 
L 346.141717 418.066021 
L 348.523766 421.878824 
L 350.50395 425.693929 
L 352.000582 429.463693 
L 352.946156 433.137962 
L 353.308614 436.70846 
L 353.083626 440.257249 
L 352.265342 443.922756 
L 350.865585 447.801891 
L 348.95877 451.92827 
L 346.679436 456.322713 
L 344.194811 461.02725 
L 341.692614 466.102523 
L 339.384056 471.601181 
L 337.500473 477.525516 
L 336.259426 483.787291 
L 335.80115 490.20884 
L 336.143112 496.585097 
L 337.197997 502.759849 
L 338.833139 508.655984 
L 340.919812 514.259071 
L 343.35374 519.588163 
L 346.056675 524.674497 
L 348.971306 529.550541 
L 352.055588 534.24564 
L 355.278266 538.784864 
L 358.615698 543.189154 
L 362.04968 547.47589 
L 365.565953 551.659509 
L 369.153179 555.752066 
L 369.153179 555.752066 
" style="fill:none;stroke:#000000;stroke-linecap:square;stroke-width:3;"/>
   </g>
   <g id="line2d_50">
    <path clip-path="url(#p7706ae45ce)" d="M 319.353753 555.752066 
L 319.353753 389.403042 
L 369.153179 389.403042 
L 369.153179 555.752066 
L 319.353753 555.752066 
" style="fill:none;stroke:#d3d3d3;stroke-linecap:square;stroke-width:0.5;"/>
   </g>
   <g id="line2d_51">
    <path clip-path="url(#p7706ae45ce)" d="M 369.153179 555.752066 
L 369.153179 555.752066 
L 372.733608 559.70342 
L 376.382618 563.613242 
L 380.106403 567.47641 
L 383.911752 571.286967 
L 387.806071 575.037966 
L 391.797394 578.721288 
L 395.894348 582.327424 
L 400.10607 585.845231 
L 404.442048 589.261656 
L 408.911848 592.56145 
L 413.524707 595.726899 
L 418.288929 598.737616 
L 423.211096 601.57046 
L 428.295056 604.199699 
L 433.54078 606.597513 
L 438.94319 608.734957 
L 444.491206 610.583423 
L 450.167276 612.116553 
L 455.947656 613.312355 
L 461.803578 614.155164 
L 467.703201 614.637027 
L 473.613998 614.758175 
L 479.505105 614.526514 
L 485.349197 613.956304 
L 491.123619 613.066369 
" style="fill:none;stroke:#000000;stroke-linecap:square;stroke-width:3;"/>
   </g>
   <g id="line2d_52">
    <path clip-path="url(#p7706ae45ce)" d="M 369.153179 614.758175 
L 369.153179 555.752066 
L 491.123619 555.752066 
L 491.123619 614.758175 
L 369.153179 614.758175 
" style="fill:none;stroke:#d3d3d3;stroke-linecap:square;stroke-width:0.5;"/>
   </g>
   <g id="line2d_53">
    <path clip-path="url(#p7706ae45ce)" d="M 491.123619 613.066369 
L 496.810765 611.878241 
L 502.397849 610.41451 
L 507.87628 608.697552 
L 513.24088 606.74866 
L 518.489075 604.587529 
L 523.620179 602.232021 
L 528.634792 599.698116 
L 533.534336 596.999978 
L 538.320695 594.150091 
L 542.995968 591.159416 
L 547.562283 588.037565 
L 552.021677 584.792957 
L 556.376013 581.432961 
L 560.626929 577.964033 
L 564.7758 574.391819 
L 568.823718 570.721261 
L 572.77148 566.956673 
L 576.619577 563.101814 
L 580.368185 559.159946 
L 584.017155 555.133884 
L 587.566002 551.02604 
L 591.013894 546.83846 
L 594.359628 542.572851 
L 597.601609 538.230608 
L 600.737821 533.81284 
L 603.76579 529.320386 
" style="fill:none;stroke:#000000;stroke-linecap:square;stroke-width:3;"/>
   </g>
   <g id="line2d_54">
    <path clip-path="url(#p7706ae45ce)" d="M 491.123619 613.066369 
L 491.123619 529.320386 
L 603.76579 529.320386 
L 603.76579 613.066369 
L 491.123619 613.066369 
" style="fill:none;stroke:#d3d3d3;stroke-linecap:square;stroke-width:0.5;"/>
   </g>
   <g id="line2d_55">
    <path clip-path="url(#p7706ae45ce)" d="M 603.76579 529.320386 
L 606.682537 524.753832 
L 609.484525 520.113529 
L 612.167591 515.399603 
L 614.726862 510.611973 
L 617.156663 505.750364 
L 619.450386 500.814328 
L 621.600349 495.80326 
L 623.597612 490.716438 
L 625.431755 485.553062 
L 627.090599 480.312326 
L 628.559866 474.99352 
L 629.822759 469.596189 
L 630.859446 464.12038 
L 631.646427 458.567021 
L 632.1558 452.938516 
L 632.354418 447.23966 
L 632.203046 441.47904 
L 631.655687 435.67114 
L 630.659511 429.839398 
L 629.156132 424.020338 
L 627.085413 418.268538 
L 624.393215 412.661196 
L 621.043748 407.299557 
L 617.034653 402.303222 
L 612.408884 397.794715 
" style="fill:none;stroke:#000000;stroke-linecap:square;stroke-width:3;"/>
   </g>
   <g id="line2d_56">
    <path clip-path="url(#p7706ae45ce)" d="M 603.76579 529.320386 
L 603.76579 397.794715 
L 632.354418 397.794715 
L 632.354418 529.320386 
L 603.76579 529.320386 
" style="fill:none;stroke:#d3d3d3;stroke-linecap:square;stroke-width:0.5;"/>
   </g>
   <g id="line2d_57">
    <path clip-path="url(#p7706ae45ce)" d="M 612.408884 397.794715 
L 612.408884 397.794715 
L 612.408884 397.794715 
" style="fill:none;stroke:#000000;stroke-linecap:square;stroke-width:3;"/>
   </g>
   <g id="line2d_58">
    <path clip-path="url(#p7706ae45ce)" d="M 612.408884 397.794715 
L 612.408884 397.794715 
L 612.408884 397.794715 
L 612.408884 397.794715 
L 612.408884 397.794715 
" style="fill:none;stroke:#d3d3d3;stroke-linecap:square;stroke-width:0.5;"/>
   </g>
   <g id="line2d_59">
    <path clip-path="url(#p7706ae45ce)" d="M 612.408884 397.794715 
L 612.408884 397.794715 
L 612.408884 397.794715 
" style="fill:none;stroke:#000000;stroke-linecap:square;stroke-width:3;"/>
   </g>
   <g id="line2d_60">
    <path clip-path="url(#p7706ae45ce)" d="M 612.408884 397.794715 
L 612.408884 397.794715 
L 612.408884 397.794715 
L 612.408884 397.794715 
L 612.408884 397.794715 
" style="fill:none;stroke:#d3d3d3;stroke-linecap:square;stroke-width:0.5;"/>
   </g>
   <g id="line2d_61">
    <path clip-path="url(#p7706ae45ce)" d="M 326.349331 366.624278 
L 328.350043 366.749413 
L 330.317904 367.122764 
L 332.220601 367.7382 
L 334.026892 368.585616 
L 335.707118 369.651097 
L 337.233689 370.917148 
L 338.581539 372.36298 
L 339.728537 373.964854 
L 340.655848 375.696466 
L 341.348247 377.529383 
L 341.794364 379.433509 
L 341.986874 381.377578 
L 341.922616 383.329669 
L 341.602645 385.257728 
L 341.032215 387.130096 
L 340.220693 388.91603 
L 339.181403 390.586205 
L 337.931411 392.113195 
L 336.491241 393.471929 
L 334.884542 394.640095 
L 333.137694 395.598512 
L 331.279382 396.331444 
L 329.340119 396.826855 
L 327.351747 397.076612 
L 325.346915 397.076612 
L 323.358543 396.826855 
L 321.419279 396.331444 
L 319.560967 395.598512 
L 317.81412 394.640095 
L 316.20742 393.471929 
L 314.767251 392.113195 
L 313.517259 390.586205 
L 312.477969 388.91603 
L 311.666446 387.130096 
L 311.096016 385.257728 
L 310.776045 383.329669 
L 310.711787 381.377578 
L 310.904297 379.433509 
L 311.350414 377.529383 
L 312.042813 375.696466 
L 312.970125 373.964854 
L 314.117122 372.36298 
L 315.464972 370.917148 
L 316.991543 369.651097 
L 318.671769 368.585616 
L 320.47806 367.7382 
L 322.380757 367.122764 
L 324.348618 366.749413 
L 326.349331 366.624278 
" style="fill:none;stroke:#808080;stroke-linecap:square;stroke-width:1.5;"/>
   </g>
   <g id="line2d_62">
    <path clip-path="url(#p7706ae45ce)" d="M 377.020272 533.838485 
L 379.020985 533.96362 
L 380.988846 534.336971 
L 382.891543 534.952407 
L 384.697834 535.799823 
L 386.37806 536.865304 
L 387.904631 538.131355 
L 389.252481 539.577188 
L 390.399478 541.179061 
L 391.32679 542.910673 
L 392.019189 544.74359 
L 392.465306 546.647716 
L 392.657816 548.591786 
L 392.593558 550.543876 
L 392.273587 552.471935 
L 391.703157 554.344304 
L 390.891634 556.130238 
L 389.852344 557.800412 
L 388.602352 559.327403 
L 387.162183 560.686136 
L 385.555483 561.854302 
L 383.808636 562.81272 
L 381.950324 563.545652 
L 380.01106 564.041063 
L 378.022688 564.290819 
L 376.017856 564.290819 
L 374.029484 564.041063 
L 372.090221 563.545652 
L 370.231909 562.81272 
L 368.485061 561.854302 
L 366.878362 560.686136 
L 365.438192 559.327403 
L 364.1882 557.800412 
L 363.14891 556.130238 
L 362.337388 554.344304 
L 361.766958 552.471935 
L 361.446987 550.543876 
L 361.382729 548.591786 
L 361.575239 546.647716 
L 362.021356 544.74359 
L 362.713755 542.910673 
L 363.641066 541.179061 
L 364.788064 539.577188 
L 366.135914 538.131355 
L 367.662485 536.865304 
L 369.342711 535.799823 
L 371.149002 534.952407 
L 373.051699 534.336971 
L 375.01956 533.96362 
L 377.020272 533.838485 
" style="fill:none;stroke:#808080;stroke-linecap:square;stroke-width:1.5;"/>
   </g>
   <g id="line2d_63">
    <path clip-path="url(#p7706ae45ce)" d="M 489.209389 587.835914 
L 491.210102 587.961049 
L 493.177963 588.3344 
L 495.08066 588.949836 
L 496.886951 589.797252 
L 498.567177 590.862733 
L 500.093748 592.128784 
L 501.441598 593.574616 
L 502.588595 595.17649 
L 503.515907 596.908102 
L 504.208306 598.741019 
L 504.654423 600.645145 
L 504.846933 602.589214 
L 504.782675 604.541305 
L 504.462704 606.469364 
L 503.892274 608.341732 
L 503.080751 610.127666 
L 502.041461 611.79784 
L 500.791469 613.324831 
L 499.3513 614.683564 
L 497.7446 615.851731 
L 495.997753 616.810148 
L 494.139441 617.54308 
L 492.200177 618.038491 
L 490.211805 618.288247 
L 488.206973 618.288247 
L 486.218601 618.038491 
L 484.279338 617.54308 
L 482.421026 616.810148 
L 480.674178 615.851731 
L 479.067479 614.683564 
L 477.627309 613.324831 
L 476.377317 611.79784 
L 475.338027 610.127666 
L 474.526505 608.341732 
L 473.956075 606.469364 
L 473.636104 604.541305 
L 473.571846 602.589214 
L 473.764356 600.645145 
L 474.210473 598.741019 
L 474.902872 596.908102 
L 475.830183 595.17649 
L 476.977181 593.574616 
L 478.325031 592.128784 
L 479.851602 590.862733 
L 481.531828 589.797252 
L 483.338119 588.949836 
L 485.240816 588.3344 
L 487.208677 587.961049 
L 489.209389 587.835914 
" style="fill:none;stroke:#808080;stroke-linecap:square;stroke-width:1.5;"/>
   </g>
   <g id="line2d_64">
    <path clip-path="url(#p7706ae45ce)" d="M 592.088752 512.89166 
L 594.089464 513.016795 
L 596.057325 513.390146 
L 597.960022 514.005582 
L 599.766313 514.852998 
L 601.446539 515.918479 
L 602.97311 517.18453 
L 604.32096 518.630363 
L 605.467958 520.232236 
L 606.395269 521.963848 
L 607.087668 523.796765 
L 607.533785 525.700891 
L 607.726295 527.64496 
L 607.662037 529.597051 
L 607.342066 531.52511 
L 606.771636 533.397479 
L 605.960114 535.183413 
L 604.920824 536.853587 
L 603.670832 538.380577 
L 602.230662 539.739311 
L 600.623963 540.907477 
L 598.877115 541.865895 
L 597.018803 542.598826 
L 595.07954 543.094238 
L 593.091168 543.343994 
L 591.086336 543.343994 
L 589.097964 543.094238 
L 587.1587 542.598826 
L 585.300388 541.865895 
L 583.553541 540.907477 
L 581.946841 539.739311 
L 580.506672 538.380577 
L 579.25668 536.853587 
L 578.21739 535.183413 
L 577.405867 533.397479 
L 576.835437 531.52511 
L 576.515466 529.597051 
L 576.451208 527.64496 
L 576.643718 525.700891 
L 577.089835 523.796765 
L 577.782234 521.963848 
L 578.709546 520.232236 
L 579.856543 518.630363 
L 581.204394 517.18453 
L 582.730965 515.918479 
L 584.41119 514.852998 
L 586.217481 514.005582 
L 588.120178 513.390146 
L 590.088039 513.016795 
L 592.088752 512.89166 
" style="fill:none;stroke:#808080;stroke-linecap:square;stroke-width:1.5;"/>
   </g>
   <g id="line2d_65">
    <path clip-path="url(#p7706ae45ce)" d="M 609.218715 393.789972 
L 611.219428 393.915107 
L 613.187289 394.288458 
L 615.089986 394.903894 
L 616.896277 395.75131 
L 618.576502 396.816791 
L 620.103073 398.082842 
L 621.450924 399.528675 
L 622.597921 401.130548 
L 623.525233 402.86216 
L 624.217631 404.695077 
L 624.663749 406.599203 
L 624.856259 408.543272 
L 624.792 410.495363 
L 624.47203 412.423422 
L 623.9016 414.295791 
L 623.090077 416.081724 
L 622.050787 417.751899 
L 620.800795 419.278889 
L 619.360626 420.637623 
L 617.753926 421.805789 
L 616.007079 422.764207 
L 614.148767 423.497138 
L 612.209503 423.99255 
L 610.221131 424.242306 
L 608.216299 424.242306 
L 606.227927 423.99255 
L 604.288664 423.497138 
L 602.430352 422.764207 
L 600.683504 421.805789 
L 599.076805 420.637623 
L 597.636635 419.278889 
L 596.386643 417.751899 
L 595.347353 416.081724 
L 594.535831 414.295791 
L 593.965401 412.423422 
L 593.64543 410.495363 
L 593.581172 408.543272 
L 593.773682 406.599203 
L 594.219799 404.695077 
L 594.912198 402.86216 
L 595.839509 401.130548 
L 596.986507 399.528675 
L 598.334357 398.082842 
L 599.860928 396.816791 
L 601.541154 395.75131 
L 603.347445 394.903894 
L 605.250142 394.288458 
L 607.218003 393.915107 
L 609.218715 393.789972 
" style="fill:none;stroke:#808080;stroke-linecap:square;stroke-width:1.5;"/>
   </g>
   <g id="line2d_66">
    <path clip-path="url(#p7706ae45ce)" d="M 605.499834 390.165203 
L 607.500547 390.290338 
L 609.468408 390.663689 
L 611.371105 391.279125 
L 613.177396 392.126541 
L 614.857621 393.192022 
L 616.384192 394.458073 
L 617.732043 395.903905 
L 618.87904 397.505779 
L 619.806352 399.237391 
L 620.49875 401.070308 
L 620.944867 402.974434 
L 621.137377 404.918503 
L 621.073119 406.870594 
L 620.753149 408.798653 
L 620.182719 410.671021 
L 619.371196 412.456955 
L 618.331906 414.127129 
L 617.081914 415.65412 
L 615.641745 417.012853 
L 614.035045 418.18102 
L 612.288198 419.139437 
L 610.429886 419.872369 
L 608.490622 420.36778 
L 606.50225 420.617536 
L 604.497418 420.617536 
L 602.509046 420.36778 
L 600.569783 419.872369 
L 598.711471 419.139437 
L 596.964623 418.18102 
L 595.357924 417.012853 
L 593.917754 415.65412 
L 592.667762 414.127129 
L 591.628472 412.456955 
L 590.81695 410.671021 
L 590.24652 408.798653 
L 589.926549 406.870594 
L 589.862291 404.918503 
L 590.054801 402.974434 
L 590.500918 401.070308 
L 591.193317 399.237391 
L 592.120628 397.505779 
L 593.267626 395.903905 
L 594.615476 394.458073 
L 596.142047 393.192022 
L 597.822273 392.126541 
L 599.628564 391.279125 
L 601.531261 390.663689 
L 603.499122 390.290338 
L 605.499834 390.165203 
" style="fill:none;stroke:#808080;stroke-linecap:square;stroke-width:1.5;"/>
   </g>
   <g id="line2d_67">
    <path clip-path="url(#p7706ae45ce)" d="M 408.919104 290.735699 
L 410.919817 290.860834 
L 412.887678 291.234185 
L 414.790375 291.849621 
L 416.596666 292.697037 
L 418.276892 293.762518 
L 419.803463 295.028569 
L 421.151313 296.474401 
L 422.29831 298.076275 
L 423.225622 299.807887 
L 423.918021 301.640804 
L 424.364138 303.54493 
L 424.556648 305.488999 
L 424.49239 307.44109 
L 424.172419 309.369149 
L 423.601989 311.241517 
L 422.790466 313.027451 
L 421.751176 314.697626 
L 420.501184 316.224616 
L 419.061015 317.58335 
L 417.454315 318.751516 
L 415.707468 319.709933 
L 413.849156 320.442865 
L 411.909892 320.938276 
L 409.92152 321.188033 
L 407.916688 321.188033 
L 405.928316 320.938276 
L 403.989053 320.442865 
L 402.130741 319.709933 
L 400.383893 318.751516 
L 398.777194 317.58335 
L 397.337024 316.224616 
L 396.087032 314.697626 
L 395.047742 313.027451 
L 394.23622 311.241517 
L 393.66579 309.369149 
L 393.345819 307.44109 
L 393.281561 305.488999 
L 393.474071 303.54493 
L 393.920188 301.640804 
L 394.612587 299.807887 
L 395.539898 298.076275 
L 396.686896 296.474401 
L 398.034746 295.028569 
L 399.561317 293.762518 
L 401.241543 292.697037 
L 403.047834 291.849621 
L 404.950531 291.234185 
L 406.918392 290.860834 
L 408.919104 290.735699 
" style="fill:none;stroke:#808080;stroke-linecap:square;stroke-width:1.5;"/>
   </g>
   <g id="line2d_68"/>
   <g id="line2d_69"/>
   <g id="line2d_70"/>
   <g id="line2d_71"/>
   <g id="line2d_72"/>
   <g id="line2d_73"/>
   <g id="line2d_74"/>
   <g id="line2d_75"/>
   <g id="line2d_76"/>
   <g id="line2d_77"/>
   <g id="line2d_78"/>
   <g id="line2d_79"/>
   <g id="line2d_80"/>
   <g id="line2d_81"/>
   <g id="line2d_82"/>
   <g id="line2d_83"/>
   <g id="line2d_84"/>
   <g id="line2d_85"/>
   <g id="line2d_86"/>
   <g id="line2d_87"/>
   <g id="line2d_88"/>
   <g id="line2d_89"/>
   <g id="line2d_90"/>
   <g id="line2d_91"/>
   <g id="line2d_92"/>
   <g id="line2d_93"/>
   <g id="line2d_94"/>
   <g id="line2d_95"/>
   <g id="line2d_96"/>
   <g id="line2d_97"/>
   <g id="line2d_98"/>
   <g id="line2d_99"/>
   <g id="line2d_100"/>
   <g id="line2d_101"/>
   <g id="line2d_102"/>
   <g id="line2d_103"/>
   <g id="line2d_104"/>
   <g id="line2d_105"/>
   <g id="line2d_106"/>
   <g id="line2d_107"/>
   <g id="line2d_108"/>
   <g id="line2d_109"/>
   <g id="line2d_110"/>
   <g id="line2d_111"/>
   <g id="line2d_112"/>
   <g id="line2d_113"/>
   <g id="line2d_114"/>
   <g id="line2d_115"/>
   <g id="line2d_116"/>
   <g id="line2d_117"/>
   <g id="line2d_118"/>
   <g id="patch_3">
    <path d="M 90 630 
L 90 86.4 
" style="fill:none;stroke:#000000;stroke-linecap:square;stroke-linejoin:miter;stroke-width:0.8;"/>
   </g>
   <g id="patch_4">
    <path d="M 648 630 
L 648 86.4 
" style="fill:none;stroke:#000000;stroke-linecap:square;stroke-linejoin:miter;stroke-width:0.8;"/>
   </g>
   <g id="patch_5">
    <path d="M 90 630 
L 648 630 
" style="fill:none;stroke:#000000;stroke-linecap:square;stroke-linejoin:miter;stroke-width:0.8;"/>
   </g>
   <g id="patch_6">
    <path d="M 90 86.4 
L 648 86.4 
" style="fill:none;stroke:#000000;stroke-linecap:square;stroke-linejoin:miter;stroke-width:0.8;"/>
   </g>
   <g id="text_11">
    <!-- 0 -->
    <g transform="translate(33.02427 482.281057)scale(0.1 -0.1)">
     <use xlink:href="#DejaVuSans-30"/>
    </g>
   </g>
   <g id="text_12">
    <!-- 0 -->
    <g transform="translate(33.02427 467.039233)scale(0.1 -0.1)">
     <use xlink:href="#DejaVuSans-30"/>
    </g>
   </g>
   <g id="text_13">
    <!-- 0 -->
    <g transform="translate(33.02427 451.797408)scale(0.1 -0.1)">
     <use xlink:href="#DejaVuSans-30"/>
    </g>
   </g>
  </g>
 </g>
 <defs>
  <clipPath id="p7706ae45ce">
   <rect height="543.6" width="558" x="90" y="86.4"/>
  </clipPath>
 </defs>
</svg>
