<?xml version="1.0" encoding="utf-8" standalone="no"?>
<!DOCTYPE svg PUBLIC "-//W3C//DTD SVG 1.1//EN"
  "http://www.w3.org/Graphics/SVG/1.1/DTD/svg11.dtd">
<svg height="720pt" version="1.1" viewBox="0 0 720 720" width="720pt" xmlns="http://www.w3.org/2000/svg" xmlns:xlink="http://www.w3.org/1999/xlink">
 <metadata>
  <rdf:RDF xmlns:cc="http://creativecommons.org/ns#" xmlns:dc="http://purl.org/dc/elements/1.1/" xmlns:rdf="http://www.w3.org/1999/02/22-rdf-syntax-ns#">
   <cc:Work>
    <dc:type rdf:resource="http://purl.org/dc/dcmitype/StillImage"/>
    <dc:date>2022-01-11T13:26:07.760998</dc:date>
    <dc:format>image/svg+xml</dc:format>
    <dc:creator>
     <cc:Agent>
      <dc:title>Matplotlib v3.4.3, https://matplotlib.org/</dc:title>
     </cc:Agent>
    </dc:creator>
   </cc:Work>
  </rdf:RDF>
 </metadata>
 <defs>
  <style type="text/css">*{stroke-linecap:butt;stroke-linejoin:round;}</style>
 </defs>
 <g id="figure_1">
  <g id="patch_1">
   <path d="M 0 720 
L 720 720 
L 720 0 
L 0 0 
z
" style="fill:none;"/>
  </g>
  <g id="axes_1">
   <g id="patch_2">
    <path d="M 90 630 
L 648 630 
L 648 86.4 
L 90 86.4 
z
" style="fill:#ffffff;"/>
   </g>
   <g id="PathCollection_1">
    <defs>
     <path d="M 0.972304 -8.870829 
Q -1.277159 -8.870829 -2.413438 -6.653699 
Q -3.545098 -4.441189 -3.545098 0.006929 
Q -3.545098 4.436569 -2.413438 6.653699 
Q -1.277159 8.870829 0.972304 8.870829 
Q 3.240243 8.870829 4.371903 6.653699 
Q 5.508182 4.436569 5.508182 0.006929 
Q 5.508182 -4.441189 4.371903 -6.653699 
Q 3.240243 -8.870829 0.972304 -8.870829 
z
M 0.972304 -11.18034 
Q 4.598235 -11.18034 6.51051 -8.311928 
Q 8.422784 -5.448135 8.422784 0.006929 
Q 8.422784 5.448135 6.51051 8.316547 
Q 4.598235 11.18034 0.972304 11.18034 
Q -2.649008 11.18034 -4.561283 8.316547 
Q -6.473558 5.448135 -6.473558 0.006929 
Q -6.473558 -5.448135 -4.561283 -8.311928 
Q -2.649008 -11.18034 0.972304 -11.18034 
z
" id="m8b3ad6ebcf" style="stroke:#808080;"/>
    </defs>
    <g clip-path="url(#p7e8c25e7a9)">
     <use style="fill:#808080;stroke:#808080;" x="361.769995" xlink:href="#m8b3ad6ebcf" y="235.362667"/>
    </g>
   </g>
   <g id="PathCollection_2">
    <defs>
     <path d="M -4.535873 8.63565 
L 0.404946 8.63565 
L 0.404946 -8.424791 
L -4.971969 -7.346533 
L -4.971969 -10.102082 
L 0.376192 -11.18034 
L 3.400108 -11.18034 
L 3.400108 8.63565 
L 8.340927 8.63565 
L 8.340927 11.18034 
L -4.535873 11.18034 
L -4.535873 8.63565 
z
" id="m2e90bbe248" style="stroke:#808080;"/>
    </defs>
    <g clip-path="url(#p7e8c25e7a9)">
     <use style="fill:#808080;stroke:#808080;" x="234.196112" xlink:href="#m2e90bbe248" y="221.288441"/>
    </g>
   </g>
   <g id="PathCollection_3">
    <defs>
     <path d="M -2.294912 8.680651 
L 8.075736 8.680651 
L 8.075736 11.18034 
L -5.867913 11.18034 
L -5.867913 8.680651 
Q -4.177916 6.929457 -1.259259 3.982555 
Q 1.664105 1.030945 2.4126 0.174178 
Q 3.838976 -1.426376 4.403877 -2.537349 
Q 4.973486 -3.648321 4.973486 -4.721634 
Q 4.973486 -6.472828 3.744825 -7.574386 
Q 2.516165 -8.680651 0.543718 -8.680651 
Q -0.854413 -8.680651 -2.407892 -8.195778 
Q -3.956663 -7.710904 -5.72198 -6.722326 
L -5.72198 -9.725719 
Q -3.928418 -10.445968 -2.370232 -10.813154 
Q -0.807338 -11.18034 0.487227 -11.18034 
Q 3.900173 -11.18034 5.929111 -9.471513 
Q 7.958048 -7.767394 7.958048 -4.914642 
Q 7.958048 -3.558879 7.449637 -2.344341 
Q 6.945933 -1.13451 5.604292 0.513119 
Q 5.237107 0.941502 3.264659 2.979855 
Q 1.296919 5.018207 -2.294912 8.680651 
z
" id="m184e7f1993" style="stroke:#808080;"/>
    </defs>
    <g clip-path="url(#p7e8c25e7a9)">
     <use style="fill:#808080;stroke:#808080;" x="107.976991" xlink:href="#m184e7f1993" y="194.997762"/>
    </g>
   </g>
   <g id="PathCollection_4">
    <defs>
     <path d="M 3.77605 -0.861447 
Q 5.868466 -0.413402 7.041697 1.004637 
Q 8.219548 2.418057 8.219548 4.496617 
Q 8.219548 7.683741 6.025513 9.43435 
Q 3.831478 11.18034 -0.210165 11.18034 
Q -1.563539 11.18034 -3.000054 10.912437 
Q -4.436569 10.644533 -5.965465 10.108727 
L -5.965465 7.295743 
Q -4.755282 8.002454 -3.314147 8.362737 
Q -1.868394 8.723021 -0.293308 8.723021 
Q 2.445772 8.723021 3.882287 7.64217 
Q 5.318802 6.561319 5.318802 4.496617 
Q 5.318802 2.588961 3.983905 1.517348 
Q 2.649008 0.441116 0.270213 0.441116 
L -2.242535 0.441116 
L -2.242535 -1.956155 
L 0.385688 -1.956155 
Q 2.533533 -1.956155 3.674431 -2.815293 
Q 4.815329 -3.674431 4.815329 -5.291088 
Q 4.815329 -6.949317 3.637479 -7.836169 
Q 2.464248 -8.72764 0.270213 -8.72764 
Q -0.930733 -8.72764 -2.302582 -8.464356 
Q -3.674431 -8.20569 -5.318802 -7.660646 
L -5.318802 -10.256536 
Q -3.655955 -10.718438 -2.205582 -10.949389 
Q -0.75521 -11.18034 0.528878 -11.18034 
Q 3.849954 -11.18034 5.780705 -9.66992 
Q 7.716074 -8.164119 7.716074 -5.595944 
Q 7.716074 -3.803764 6.690652 -2.570485 
Q 5.665229 -1.337207 3.77605 -0.861447 
z
" id="me4ab22e255" style="stroke:#808080;"/>
    </defs>
    <g clip-path="url(#p7e8c25e7a9)">
     <use style="fill:#808080;stroke:#808080;" x="110.363675" xlink:href="#me4ab22e255" y="192.449246"/>
    </g>
   </g>
   <g id="PathCollection_5">
    <defs>
     <path d="M 2.695646 -8.544598 
L -4.943215 3.392919 
L 2.695646 3.392919 
L 2.695646 -8.544598 
z
M 1.900131 -11.18034 
L 5.705184 -11.18034 
L 5.705184 3.392919 
L 8.896829 3.392919 
L 8.896829 5.908855 
L 5.705184 5.908855 
L 5.705184 11.18034 
L 2.695646 11.18034 
L 2.695646 5.908855 
L -7.396852 5.908855 
L -7.396852 2.99037 
L 1.900131 -11.18034 
z
" id="m9fd03b091a" style="stroke:#808080;"/>
    </defs>
    <g clip-path="url(#p7e8c25e7a9)">
     <use style="fill:#808080;stroke:#808080;" x="232.561951" xlink:href="#m9fd03b091a" y="203.593341"/>
    </g>
   </g>
   <g id="PathCollection_6">
    <defs>
     <path d="M -5.008473 -11.18034 
L 6.639575 -11.18034 
L 6.639575 -8.679629 
L -2.291535 -8.679629 
L -2.291535 -3.306861 
Q -1.647555 -3.527789 -1.003575 -3.635902 
Q -0.354894 -3.744015 0.293787 -3.744015 
Q 3.964943 -3.744015 6.108409 -1.732165 
Q 8.256576 0.279685 8.256576 3.715812 
Q 8.256576 7.255352 6.052002 9.220196 
Q 3.847428 11.18034 -0.16217 11.18034 
Q -1.544142 11.18034 -2.97782 10.945311 
Q -4.406798 10.710281 -5.934488 10.240223 
L -5.934488 7.255352 
Q -4.613624 7.974541 -3.203448 8.327085 
Q -1.793273 8.679629 -0.223278 8.679629 
Q 2.319738 8.679629 3.800422 7.344663 
Q 5.285807 6.009697 5.285807 3.715812 
Q 5.285807 1.426627 3.800422 0.091661 
Q 2.319738 -1.248005 -0.223278 -1.248005 
Q -1.412526 -1.248005 -2.597073 -0.984772 
Q -3.77692 -0.72154 -5.008473 -0.16217 
L -5.008473 -11.18034 
z
" id="m6440ea03ef" style="stroke:#808080;"/>
    </defs>
    <g clip-path="url(#p7e8c25e7a9)">
     <use style="fill:#808080;stroke:#808080;" x="353.253415" xlink:href="#m6440ea03ef" y="232.137919"/>
    </g>
   </g>
   <g id="PathCollection_7">
    <defs>
     <path d="M 1.286397 -1.175541 
Q -0.676687 -1.175541 -1.826823 0.168594 
Q -2.97234 1.50811 -2.97234 3.845335 
Q -2.97234 6.168702 -1.826823 7.522075 
Q -0.676687 8.870829 1.286397 8.870829 
Q 3.249481 8.870829 4.394998 7.522075 
Q 5.540515 6.168702 5.540515 3.845335 
Q 5.540515 1.50811 4.394998 0.168594 
Q 3.249481 -1.175541 1.286397 -1.175541 
z
M 7.07403 -10.316583 
L 7.07403 -7.660646 
Q 5.974703 -8.177976 4.8569 -8.450499 
Q 3.739097 -8.72764 2.63977 -8.72764 
Q -0.247118 -8.72764 -1.771394 -6.778413 
Q -3.291052 -4.829186 -3.508146 -0.889162 
Q -2.658246 -2.145535 -1.374159 -2.815293 
Q -0.085452 -3.485051 1.457301 -3.485051 
Q 4.704473 -3.485051 6.589033 -1.512729 
Q 8.473594 0.454974 8.473594 3.845335 
Q 8.473594 7.166411 6.51051 9.175685 
Q 4.547426 11.18034 1.286397 11.18034 
Q -2.45501 11.18034 -4.43195 8.316547 
Q -6.408891 5.448135 -6.408891 0.006929 
Q -6.408891 -5.101708 -3.983905 -8.141024 
Q -1.55892 -11.18034 2.524295 -11.18034 
Q 3.623622 -11.18034 4.741425 -10.963246 
Q 5.859228 -10.746152 7.07403 -10.316583 
z
" id="m341743644b" style="stroke:#808080;"/>
    </defs>
    <g clip-path="url(#p7e8c25e7a9)">
     <use style="fill:#808080;stroke:#808080;" x="469.782801" xlink:href="#m341743644b" y="253.877029"/>
    </g>
   </g>
   <g id="PathCollection_8">
    <defs>
     <path d="M -5.93042 -11.18034 
L 8.446356 -11.18034 
L 8.446356 -9.891222 
L 0.32827 11.18034 
L -2.829829 11.18034 
L 4.809032 -8.630858 
L -5.93042 -8.630858 
L -5.93042 -11.18034 
z
" id="m73f62bbb65" style="stroke:#808080;"/>
    </defs>
    <g clip-path="url(#p7e8c25e7a9)">
     <use style="fill:#808080;stroke:#808080;" x="606.709647" xlink:href="#m73f62bbb65" y="280.290964"/>
    </g>
   </g>
   <g id="PathCollection_9">
    <defs>
     <path d="M 1.002328 0.524259 
Q -1.076232 0.524259 -2.267939 1.637443 
Q -3.455028 2.750627 -3.455028 4.695235 
Q -3.455028 6.644461 -2.267939 7.757645 
Q -1.076232 8.870829 1.002328 8.870829 
Q 3.080887 8.870829 4.277213 7.753026 
Q 5.478159 6.630604 5.478159 4.695235 
Q 5.478159 2.750627 4.286451 1.637443 
Q 3.099363 0.524259 1.002328 0.524259 
z
M -1.912275 -0.713639 
Q -3.787597 -1.175541 -4.836115 -2.459629 
Q -5.880014 -3.748335 -5.880014 -5.595944 
Q -5.880014 -8.177976 -4.041643 -9.679158 
Q -2.198654 -11.18034 1.002328 -11.18034 
Q 4.221785 -11.18034 6.055536 -9.679158 
Q 7.889288 -8.177976 7.889288 -5.595944 
Q 7.889288 -3.748335 6.84077 -2.459629 
Q 5.796871 -1.175541 3.935406 -0.713639 
Q 6.041679 -0.224023 7.214911 1.207874 
Q 8.392761 2.635151 8.392761 4.695235 
Q 8.392761 7.83155 6.480486 9.508254 
Q 4.568212 11.18034 1.002328 11.18034 
Q -2.558938 11.18034 -4.475831 9.508254 
Q -6.388106 7.83155 -6.388106 4.695235 
Q -6.388106 2.635151 -5.205636 1.207874 
Q -4.018548 -0.224023 -1.912275 -0.713639 
z
M -2.979268 -5.318802 
Q -2.979268 -3.646717 -1.93537 -2.709056 
Q -0.886852 -1.771394 1.002328 -1.771394 
Q 2.882269 -1.771394 3.940025 -2.709056 
Q 5.0024 -3.646717 5.0024 -5.318802 
Q 5.0024 -6.995507 3.940025 -7.933168 
Q 2.882269 -8.870829 1.002328 -8.870829 
Q -0.886852 -8.870829 -1.93537 -7.933168 
Q -2.979268 -6.995507 -2.979268 -5.318802 
z
" id="mb4be2ff2a9" style="stroke:#808080;"/>
    </defs>
    <g clip-path="url(#p7e8c25e7a9)">
     <use style="fill:#808080;stroke:#808080;" x="485.194657" xlink:href="#mb4be2ff2a9" y="244.550599"/>
    </g>
   </g>
   <g id="PathCollection_10"/>
   <g id="PathCollection_11"/>
   <g id="PathCollection_12"/>
   <g id="PathCollection_13"/>
   <g id="PathCollection_14"/>
   <g id="matplotlib.axis_1">
    <g id="xtick_1">
     <g id="line2d_1">
      <defs>
       <path d="M 0 0 
L 0 3.5 
" id="mfad2a52cc0" style="stroke:#000000;stroke-width:0.8;"/>
      </defs>
      <g>
       <use style="stroke:#000000;stroke-width:0.8;" x="113.394001" xlink:href="#mfad2a52cc0" y="630"/>
      </g>
     </g>
     <g id="text_1">
      <!-- −500 -->
      <g transform="translate(99.660407 644.598438)scale(0.1 -0.1)">
       <defs>
        <path d="M 678 2272 
L 4684 2272 
L 4684 1741 
L 678 1741 
L 678 2272 
z
" id="DejaVuSans-2212" transform="scale(0.015625)"/>
        <path d="M 691 4666 
L 3169 4666 
L 3169 4134 
L 1269 4134 
L 1269 2991 
Q 1406 3038 1543 3061 
Q 1681 3084 1819 3084 
Q 2600 3084 3056 2656 
Q 3513 2228 3513 1497 
Q 3513 744 3044 326 
Q 2575 -91 1722 -91 
Q 1428 -91 1123 -41 
Q 819 9 494 109 
L 494 744 
Q 775 591 1075 516 
Q 1375 441 1709 441 
Q 2250 441 2565 725 
Q 2881 1009 2881 1497 
Q 2881 1984 2565 2268 
Q 2250 2553 1709 2553 
Q 1456 2553 1204 2497 
Q 953 2441 691 2322 
L 691 4666 
z
" id="DejaVuSans-35" transform="scale(0.015625)"/>
        <path d="M 2034 4250 
Q 1547 4250 1301 3770 
Q 1056 3291 1056 2328 
Q 1056 1369 1301 889 
Q 1547 409 2034 409 
Q 2525 409 2770 889 
Q 3016 1369 3016 2328 
Q 3016 3291 2770 3770 
Q 2525 4250 2034 4250 
z
M 2034 4750 
Q 2819 4750 3233 4129 
Q 3647 3509 3647 2328 
Q 3647 1150 3233 529 
Q 2819 -91 2034 -91 
Q 1250 -91 836 529 
Q 422 1150 422 2328 
Q 422 3509 836 4129 
Q 1250 4750 2034 4750 
z
" id="DejaVuSans-30" transform="scale(0.015625)"/>
       </defs>
       <use xlink:href="#DejaVuSans-2212"/>
       <use x="83.789062" xlink:href="#DejaVuSans-35"/>
       <use x="147.412109" xlink:href="#DejaVuSans-30"/>
       <use x="211.035156" xlink:href="#DejaVuSans-30"/>
      </g>
     </g>
    </g>
    <g id="xtick_2">
     <g id="line2d_2">
      <g>
       <use style="stroke:#000000;stroke-width:0.8;" x="185.735922" xlink:href="#mfad2a52cc0" y="630"/>
      </g>
     </g>
     <g id="text_2">
      <!-- −400 -->
      <g transform="translate(172.002328 644.598438)scale(0.1 -0.1)">
       <defs>
        <path d="M 2419 4116 
L 825 1625 
L 2419 1625 
L 2419 4116 
z
M 2253 4666 
L 3047 4666 
L 3047 1625 
L 3713 1625 
L 3713 1100 
L 3047 1100 
L 3047 0 
L 2419 0 
L 2419 1100 
L 313 1100 
L 313 1709 
L 2253 4666 
z
" id="DejaVuSans-34" transform="scale(0.015625)"/>
       </defs>
       <use xlink:href="#DejaVuSans-2212"/>
       <use x="83.789062" xlink:href="#DejaVuSans-34"/>
       <use x="147.412109" xlink:href="#DejaVuSans-30"/>
       <use x="211.035156" xlink:href="#DejaVuSans-30"/>
      </g>
     </g>
    </g>
    <g id="xtick_3">
     <g id="line2d_3">
      <g>
       <use style="stroke:#000000;stroke-width:0.8;" x="258.077843" xlink:href="#mfad2a52cc0" y="630"/>
      </g>
     </g>
     <g id="text_3">
      <!-- −300 -->
      <g transform="translate(244.344249 644.598438)scale(0.1 -0.1)">
       <defs>
        <path d="M 2597 2516 
Q 3050 2419 3304 2112 
Q 3559 1806 3559 1356 
Q 3559 666 3084 287 
Q 2609 -91 1734 -91 
Q 1441 -91 1130 -33 
Q 819 25 488 141 
L 488 750 
Q 750 597 1062 519 
Q 1375 441 1716 441 
Q 2309 441 2620 675 
Q 2931 909 2931 1356 
Q 2931 1769 2642 2001 
Q 2353 2234 1838 2234 
L 1294 2234 
L 1294 2753 
L 1863 2753 
Q 2328 2753 2575 2939 
Q 2822 3125 2822 3475 
Q 2822 3834 2567 4026 
Q 2313 4219 1838 4219 
Q 1578 4219 1281 4162 
Q 984 4106 628 3988 
L 628 4550 
Q 988 4650 1302 4700 
Q 1616 4750 1894 4750 
Q 2613 4750 3031 4423 
Q 3450 4097 3450 3541 
Q 3450 3153 3228 2886 
Q 3006 2619 2597 2516 
z
" id="DejaVuSans-33" transform="scale(0.015625)"/>
       </defs>
       <use xlink:href="#DejaVuSans-2212"/>
       <use x="83.789062" xlink:href="#DejaVuSans-33"/>
       <use x="147.412109" xlink:href="#DejaVuSans-30"/>
       <use x="211.035156" xlink:href="#DejaVuSans-30"/>
      </g>
     </g>
    </g>
    <g id="xtick_4">
     <g id="line2d_4">
      <g>
       <use style="stroke:#000000;stroke-width:0.8;" x="330.419764" xlink:href="#mfad2a52cc0" y="630"/>
      </g>
     </g>
     <g id="text_4">
      <!-- −200 -->
      <g transform="translate(316.68617 644.598438)scale(0.1 -0.1)">
       <defs>
        <path d="M 1228 531 
L 3431 531 
L 3431 0 
L 469 0 
L 469 531 
Q 828 903 1448 1529 
Q 2069 2156 2228 2338 
Q 2531 2678 2651 2914 
Q 2772 3150 2772 3378 
Q 2772 3750 2511 3984 
Q 2250 4219 1831 4219 
Q 1534 4219 1204 4116 
Q 875 4013 500 3803 
L 500 4441 
Q 881 4594 1212 4672 
Q 1544 4750 1819 4750 
Q 2544 4750 2975 4387 
Q 3406 4025 3406 3419 
Q 3406 3131 3298 2873 
Q 3191 2616 2906 2266 
Q 2828 2175 2409 1742 
Q 1991 1309 1228 531 
z
" id="DejaVuSans-32" transform="scale(0.015625)"/>
       </defs>
       <use xlink:href="#DejaVuSans-2212"/>
       <use x="83.789062" xlink:href="#DejaVuSans-32"/>
       <use x="147.412109" xlink:href="#DejaVuSans-30"/>
       <use x="211.035156" xlink:href="#DejaVuSans-30"/>
      </g>
     </g>
    </g>
    <g id="xtick_5">
     <g id="line2d_5">
      <g>
       <use style="stroke:#000000;stroke-width:0.8;" x="402.761685" xlink:href="#mfad2a52cc0" y="630"/>
      </g>
     </g>
     <g id="text_5">
      <!-- −100 -->
      <g transform="translate(389.028091 644.598438)scale(0.1 -0.1)">
       <defs>
        <path d="M 794 531 
L 1825 531 
L 1825 4091 
L 703 3866 
L 703 4441 
L 1819 4666 
L 2450 4666 
L 2450 531 
L 3481 531 
L 3481 0 
L 794 0 
L 794 531 
z
" id="DejaVuSans-31" transform="scale(0.015625)"/>
       </defs>
       <use xlink:href="#DejaVuSans-2212"/>
       <use x="83.789062" xlink:href="#DejaVuSans-31"/>
       <use x="147.412109" xlink:href="#DejaVuSans-30"/>
       <use x="211.035156" xlink:href="#DejaVuSans-30"/>
      </g>
     </g>
    </g>
    <g id="xtick_6">
     <g id="line2d_6">
      <g>
       <use style="stroke:#000000;stroke-width:0.8;" x="475.103606" xlink:href="#mfad2a52cc0" y="630"/>
      </g>
     </g>
     <g id="text_6">
      <!-- 0 -->
      <g transform="translate(471.922356 644.598438)scale(0.1 -0.1)">
       <use xlink:href="#DejaVuSans-30"/>
      </g>
     </g>
    </g>
    <g id="xtick_7">
     <g id="line2d_7">
      <g>
       <use style="stroke:#000000;stroke-width:0.8;" x="547.445527" xlink:href="#mfad2a52cc0" y="630"/>
      </g>
     </g>
     <g id="text_7">
      <!-- 100 -->
      <g transform="translate(537.901777 644.598438)scale(0.1 -0.1)">
       <use xlink:href="#DejaVuSans-31"/>
       <use x="63.623047" xlink:href="#DejaVuSans-30"/>
       <use x="127.246094" xlink:href="#DejaVuSans-30"/>
      </g>
     </g>
    </g>
    <g id="xtick_8">
     <g id="line2d_8">
      <g>
       <use style="stroke:#000000;stroke-width:0.8;" x="619.787448" xlink:href="#mfad2a52cc0" y="630"/>
      </g>
     </g>
     <g id="text_8">
      <!-- 200 -->
      <g transform="translate(610.243698 644.598438)scale(0.1 -0.1)">
       <use xlink:href="#DejaVuSans-32"/>
       <use x="63.623047" xlink:href="#DejaVuSans-30"/>
       <use x="127.246094" xlink:href="#DejaVuSans-30"/>
      </g>
     </g>
    </g>
   </g>
   <g id="matplotlib.axis_2">
    <g id="ytick_1">
     <g id="line2d_9">
      <defs>
       <path d="M 0 0 
L -3.5 0 
" id="mc60d09f6ee" style="stroke:#000000;stroke-width:0.8;"/>
      </defs>
      <g>
       <use style="stroke:#000000;stroke-width:0.8;" x="90" xlink:href="#mc60d09f6ee" y="607.209715"/>
      </g>
     </g>
     <g id="text_9">
      <!-- −500 -->
      <g transform="translate(55.532812 611.008934)scale(0.1 -0.1)">
       <use xlink:href="#DejaVuSans-2212"/>
       <use x="83.789062" xlink:href="#DejaVuSans-35"/>
       <use x="147.412109" xlink:href="#DejaVuSans-30"/>
       <use x="211.035156" xlink:href="#DejaVuSans-30"/>
      </g>
     </g>
    </g>
    <g id="ytick_2">
     <g id="line2d_10">
      <g>
       <use style="stroke:#000000;stroke-width:0.8;" x="90" xlink:href="#mc60d09f6ee" y="536.734683"/>
      </g>
     </g>
     <g id="text_10">
      <!-- −400 -->
      <g transform="translate(55.532812 540.533901)scale(0.1 -0.1)">
       <use xlink:href="#DejaVuSans-2212"/>
       <use x="83.789062" xlink:href="#DejaVuSans-34"/>
       <use x="147.412109" xlink:href="#DejaVuSans-30"/>
       <use x="211.035156" xlink:href="#DejaVuSans-30"/>
      </g>
     </g>
    </g>
    <g id="ytick_3">
     <g id="line2d_11">
      <g>
       <use style="stroke:#000000;stroke-width:0.8;" x="90" xlink:href="#mc60d09f6ee" y="466.25965"/>
      </g>
     </g>
     <g id="text_11">
      <!-- −300 -->
      <g transform="translate(55.532812 470.058869)scale(0.1 -0.1)">
       <use xlink:href="#DejaVuSans-2212"/>
       <use x="83.789062" xlink:href="#DejaVuSans-33"/>
       <use x="147.412109" xlink:href="#DejaVuSans-30"/>
       <use x="211.035156" xlink:href="#DejaVuSans-30"/>
      </g>
     </g>
    </g>
    <g id="ytick_4">
     <g id="line2d_12">
      <g>
       <use style="stroke:#000000;stroke-width:0.8;" x="90" xlink:href="#mc60d09f6ee" y="395.784617"/>
      </g>
     </g>
     <g id="text_12">
      <!-- −200 -->
      <g transform="translate(55.532812 399.583836)scale(0.1 -0.1)">
       <use xlink:href="#DejaVuSans-2212"/>
       <use x="83.789062" xlink:href="#DejaVuSans-32"/>
       <use x="147.412109" xlink:href="#DejaVuSans-30"/>
       <use x="211.035156" xlink:href="#DejaVuSans-30"/>
      </g>
     </g>
    </g>
    <g id="ytick_5">
     <g id="line2d_13">
      <g>
       <use style="stroke:#000000;stroke-width:0.8;" x="90" xlink:href="#mc60d09f6ee" y="325.309584"/>
      </g>
     </g>
     <g id="text_13">
      <!-- −100 -->
      <g transform="translate(55.532812 329.108803)scale(0.1 -0.1)">
       <use xlink:href="#DejaVuSans-2212"/>
       <use x="83.789062" xlink:href="#DejaVuSans-31"/>
       <use x="147.412109" xlink:href="#DejaVuSans-30"/>
       <use x="211.035156" xlink:href="#DejaVuSans-30"/>
      </g>
     </g>
    </g>
    <g id="ytick_6">
     <g id="line2d_14">
      <g>
       <use style="stroke:#000000;stroke-width:0.8;" x="90" xlink:href="#mc60d09f6ee" y="254.834552"/>
      </g>
     </g>
     <g id="text_14">
      <!-- 0 -->
      <g transform="translate(76.6375 258.63377)scale(0.1 -0.1)">
       <use xlink:href="#DejaVuSans-30"/>
      </g>
     </g>
    </g>
    <g id="ytick_7">
     <g id="line2d_15">
      <g>
       <use style="stroke:#000000;stroke-width:0.8;" x="90" xlink:href="#mc60d09f6ee" y="184.359519"/>
      </g>
     </g>
     <g id="text_15">
      <!-- 100 -->
      <g transform="translate(63.9125 188.158738)scale(0.1 -0.1)">
       <use xlink:href="#DejaVuSans-31"/>
       <use x="63.623047" xlink:href="#DejaVuSans-30"/>
       <use x="127.246094" xlink:href="#DejaVuSans-30"/>
      </g>
     </g>
    </g>
    <g id="ytick_8">
     <g id="line2d_16">
      <g>
       <use style="stroke:#000000;stroke-width:0.8;" x="90" xlink:href="#mc60d09f6ee" y="113.884486"/>
      </g>
     </g>
     <g id="text_16">
      <!-- 200 -->
      <g transform="translate(63.9125 117.683705)scale(0.1 -0.1)">
       <use xlink:href="#DejaVuSans-32"/>
       <use x="63.623047" xlink:href="#DejaVuSans-30"/>
       <use x="127.246094" xlink:href="#DejaVuSans-30"/>
      </g>
     </g>
    </g>
   </g>
   <g id="line2d_17">
    <path clip-path="url(#p7e8c25e7a9)" d="M 485.194657 244.550599 
L 481.63876 244.72665 
L 478.081677 244.636317 
L 474.537653 244.489953 
L 471.003244 244.313355 
L 467.476265 244.116648 
L 463.955152 243.905071 
L 460.438701 243.68176 
L 456.925932 243.448768 
L 453.416023 243.207523 
L 449.908263 242.959067 
L 446.402029 242.704187 
L 442.896767 242.443489 
L 439.391978 242.177455 
L 435.887207 241.906472 
L 432.382041 241.630857 
L 428.876099 241.350869 
L 425.36903 241.066726 
L 421.860511 240.778611 
L 418.35024 240.486677 
L 414.837938 240.191057 
L 411.323345 239.891862 
L 407.806221 239.589186 
L 404.286339 239.283113 
L 400.763491 238.973712 
L 397.237483 238.661042 
L 393.708134 238.345156 
L 390.175276 238.026096 
L 386.638757 237.7039 
L 383.098432 237.378598 
L 379.554171 237.050215 
L 376.005854 236.718771 
L 372.453371 236.384284 
L 368.896625 236.046766 
L 365.335526 235.706225 
L 361.769995 235.362667 
" style="fill:none;stroke:#808080;stroke-linecap:square;stroke-width:1.5;"/>
   </g>
   <g id="line2d_18">
    <path clip-path="url(#p7e8c25e7a9)" d="M 361.769995 244.72665 
L 361.769995 235.362667 
L 485.194657 235.362667 
L 485.194657 244.72665 
L 361.769995 244.72665 
" style="fill:none;stroke:#d3d3d3;stroke-linecap:square;stroke-width:0.5;"/>
   </g>
   <g id="line2d_19">
    <path clip-path="url(#p7e8c25e7a9)" d="M 361.769995 235.362667 
L 358.199963 235.016094 
L 354.625369 234.666505 
L 351.046164 234.313897 
L 347.462304 233.958265 
L 343.873756 233.599601 
L 340.280495 233.237893 
L 336.682505 232.873128 
L 333.079778 232.505293 
L 329.472313 232.134368 
L 325.860119 231.760335 
L 322.243211 231.383172 
L 318.621613 231.002854 
L 314.995356 230.619357 
L 311.36448 230.23265 
L 307.729031 229.842703 
L 304.089064 229.449483 
L 300.444639 229.052954 
L 296.795826 228.653076 
L 293.1427 228.24981 
L 289.485346 227.84311 
L 285.823854 227.432928 
L 282.158321 227.019215 
L 278.488852 226.601914 
L 274.815561 226.180969 
L 271.138564 225.756317 
L 267.45799 225.32789 
L 263.77397 224.895618 
L 260.086645 224.459423 
L 256.396163 224.019223 
L 252.702678 223.574929 
L 249.006351 223.126446 
L 245.307351 222.673671 
L 241.605855 222.216493 
L 237.902045 221.754793 
L 234.196112 221.288441 
" style="fill:none;stroke:#808080;stroke-linecap:square;stroke-width:1.5;"/>
   </g>
   <g id="line2d_20">
    <path clip-path="url(#p7e8c25e7a9)" d="M 234.196112 235.362667 
L 234.196112 221.288441 
L 361.769995 221.288441 
L 361.769995 235.362667 
L 234.196112 235.362667 
" style="fill:none;stroke:#d3d3d3;stroke-linecap:square;stroke-width:0.5;"/>
   </g>
   <g id="line2d_21">
    <path clip-path="url(#p7e8c25e7a9)" d="M 234.196112 221.288441 
L 230.488255 220.817297 
L 226.778679 220.341208 
L 223.0676 219.860008 
L 219.35524 219.373516 
L 215.641829 218.881535 
L 211.927608 218.383848 
L 208.212826 217.880217 
L 204.497742 217.37038 
L 200.782628 216.854048 
L 197.067764 216.330898 
L 193.353445 215.800575 
L 189.63998 215.26268 
L 185.927692 214.716765 
L 182.216924 214.162328 
L 178.508035 213.598797 
L 174.801411 213.025524 
L 171.097463 212.441767 
L 167.396636 211.846668 
L 163.699414 211.239234 
L 160.006328 210.618298 
L 156.317971 209.982484 
L 152.635013 209.330144 
L 148.958226 208.659286 
L 145.288519 207.967463 
L 141.626985 207.251619 
L 137.974988 206.50786 
L 134.334279 205.731102 
L 130.707218 204.914504 
L 127.097159 204.048507 
L 123.509201 203.119069 
L 119.951843 202.104136 
L 116.441222 200.965538 
L 113.014949 199.626366 
L 109.802987 197.883025 
L 107.976991 194.997762 
" style="fill:none;stroke:#808080;stroke-linecap:square;stroke-width:1.5;"/>
   </g>
   <g id="line2d_22">
    <path clip-path="url(#p7e8c25e7a9)" d="M 107.976991 221.288441 
L 107.976991 194.997762 
L 234.196112 194.997762 
L 234.196112 221.288441 
L 107.976991 221.288441 
" style="fill:none;stroke:#d3d3d3;stroke-linecap:square;stroke-width:0.5;"/>
   </g>
   <g id="line2d_23">
    <path clip-path="url(#p7e8c25e7a9)" d="M 107.976991 194.997762 
L 110.363675 192.449246 
" style="fill:none;stroke:#808080;stroke-linecap:square;stroke-width:1.5;"/>
   </g>
   <g id="line2d_24">
    <path clip-path="url(#p7e8c25e7a9)" d="M 107.976991 194.997762 
L 107.976991 192.449246 
L 110.363675 192.449246 
L 110.363675 194.997762 
L 107.976991 194.997762 
" style="fill:none;stroke:#d3d3d3;stroke-linecap:square;stroke-width:0.5;"/>
   </g>
   <g id="line2d_25">
    <path clip-path="url(#p7e8c25e7a9)" d="M 110.363675 192.449246 
L 113.668437 190.942296 
L 117.176261 189.948422 
L 120.769027 189.299848 
L 124.398621 188.894708 
L 128.043629 188.669633 
L 131.693811 188.583189 
L 135.344038 188.606958 
L 138.991694 188.720635 
L 142.63547 188.909204 
L 146.274757 189.161239 
L 149.909336 189.467832 
L 153.539203 189.821895 
L 157.164475 190.217685 
L 160.785329 190.650481 
L 164.401976 191.116347 
L 168.014634 191.611965 
L 171.623525 192.134506 
L 175.228862 192.681538 
L 178.83085 193.250952 
L 182.429679 193.840902 
L 186.025529 194.449766 
L 189.618567 195.076107 
L 193.208948 195.718646 
L 196.796815 196.376236 
L 200.3823 197.047846 
L 203.965526 197.732543 
L 207.546606 198.429481 
L 211.125645 199.137889 
L 214.702739 199.85706 
L 218.277977 200.586346 
L 221.851443 201.325149 
L 225.423214 202.072919 
L 228.993361 202.829141 
L 232.561951 203.593341 
" style="fill:none;stroke:#808080;stroke-linecap:square;stroke-width:1.5;"/>
   </g>
   <g id="line2d_26">
    <path clip-path="url(#p7e8c25e7a9)" d="M 110.363675 203.593341 
L 110.363675 188.583189 
L 232.561951 188.583189 
L 232.561951 203.593341 
L 110.363675 203.593341 
" style="fill:none;stroke:#d3d3d3;stroke-linecap:square;stroke-width:0.5;"/>
   </g>
   <g id="line2d_27">
    <path clip-path="url(#p7e8c25e7a9)" d="M 232.561951 203.593341 
L 236.129045 204.365073 
L 239.694701 205.143922 
L 243.258973 205.929498 
L 246.82191 206.721435 
L 250.383562 207.519386 
L 253.94397 208.323024 
L 257.503177 209.132041 
L 261.061222 209.94614 
L 264.618142 210.765041 
L 268.173971 211.588477 
L 271.728741 212.416189 
L 275.282485 213.247932 
L 278.835231 214.083467 
L 282.387007 214.922566 
L 285.93784 215.765006 
L 289.487755 216.61057 
L 293.036777 217.45905 
L 296.584928 218.310239 
L 300.132232 219.163936 
L 303.67871 220.019944 
L 307.224383 220.878066 
L 310.76927 221.738111 
L 314.313391 222.599885 
L 317.856766 223.463199 
L 321.399412 224.32786 
L 324.941349 225.193677 
L 328.482594 226.060457 
L 332.023165 226.928003 
L 335.563079 227.796117 
L 339.102354 228.664596 
L 342.641007 229.533233 
L 346.179057 230.401815 
L 349.71652 231.270119 
L 353.253415 232.137919 
" style="fill:none;stroke:#808080;stroke-linecap:square;stroke-width:1.5;"/>
   </g>
   <g id="line2d_28">
    <path clip-path="url(#p7e8c25e7a9)" d="M 232.561951 232.137919 
L 232.561951 203.593341 
L 353.253415 203.593341 
L 353.253415 232.137919 
L 232.561951 232.137919 
" style="fill:none;stroke:#d3d3d3;stroke-linecap:square;stroke-width:0.5;"/>
   </g>
   <g id="line2d_29">
    <path clip-path="url(#p7e8c25e7a9)" d="M 353.253415 232.137919 
L 356.789761 233.004976 
L 360.325577 233.871039 
L 363.860882 234.735847 
L 367.395698 235.599124 
L 370.930047 236.460573 
L 374.463952 237.319883 
L 377.997439 238.176716 
L 381.530534 239.03071 
L 385.063268 239.881472 
L 388.595675 240.728574 
L 392.12779 241.571549 
L 395.659657 242.409878 
L 399.191324 243.24299 
L 402.722845 244.070244 
L 406.254286 244.89092 
L 409.785724 245.704203 
L 413.317249 246.509159 
L 416.848973 247.304713 
L 420.38103 248.089608 
L 423.91359 248.862364 
L 427.446864 249.621214 
L 430.981121 250.36401 
L 434.516709 251.088105 
L 438.05409 251.790161 
L 441.593881 252.465866 
L 445.136927 253.109477 
L 448.684416 253.713043 
L 452.238047 254.264986 
L 455.800309 254.747254 
L 459.374817 255.128762 
L 462.966038 255.346943 
L 466.569347 255.233608 
L 469.782801 253.877029 
" style="fill:none;stroke:#808080;stroke-linecap:square;stroke-width:1.5;"/>
   </g>
   <g id="line2d_30">
    <path clip-path="url(#p7e8c25e7a9)" d="M 353.253415 255.346943 
L 353.253415 232.137919 
L 469.782801 232.137919 
L 469.782801 255.346943 
L 353.253415 255.346943 
" style="fill:none;stroke:#d3d3d3;stroke-linecap:square;stroke-width:0.5;"/>
   </g>
   <g id="line2d_31">
    <path clip-path="url(#p7e8c25e7a9)" d="M 469.782801 253.877029 
L 472.867607 252.133142 
L 476.561255 252.576678 
L 480.141886 253.622324 
L 483.658398 254.877759 
L 487.144921 256.223684 
L 490.619063 257.608659 
L 494.090504 259.005797 
L 497.564919 260.399246 
L 501.045807 261.778819 
L 504.535406 263.137527 
L 508.03519 264.470295 
L 511.546147 265.773245 
L 515.068951 267.043268 
L 518.604062 268.277754 
L 522.15179 269.474413 
L 525.712341 270.631148 
L 529.285841 271.745967 
L 532.872353 272.816915 
L 536.471886 273.842017 
L 540.084405 274.819237 
L 543.709826 275.746431 
L 547.348019 276.621314 
L 550.9988 277.441419 
L 554.661924 278.204055 
L 558.33707 278.906272 
L 562.023832 279.544803 
L 565.72169 280.116019 
L 569.429983 280.615861 
L 573.147875 281.039767 
L 576.874301 281.382591 
L 580.607907 281.638491 
L 584.346955 281.800814 
L 588.08921 281.861944 
L 591.831781 281.813129 
L 595.570899 281.644269 
L 599.301623 281.34368 
L 603.017431 280.897813 
L 606.709647 280.290964 
" style="fill:none;stroke:#808080;stroke-linecap:square;stroke-width:1.5;"/>
   </g>
   <g id="line2d_32">
    <path clip-path="url(#p7e8c25e7a9)" d="M 469.782801 281.861944 
L 469.782801 252.133142 
L 606.709647 252.133142 
L 606.709647 281.861944 
L 469.782801 281.861944 
" style="fill:none;stroke:#d3d3d3;stroke-linecap:square;stroke-width:0.5;"/>
   </g>
   <g id="line2d_33">
    <path clip-path="url(#p7e8c25e7a9)" d="M 606.709647 280.290964 
L 610.362284 279.569486 
L 613.99763 278.773417 
L 617.608153 277.878684 
L 621.179374 276.84552 
L 624.678302 275.599827 
L 628.005079 273.974434 
L 630.631816 271.479731 
L 630.008052 268.104328 
L 627.146392 265.767355 
L 623.86238 264.01819 
L 620.437296 262.557988 
L 616.943908 261.273325 
L 613.410275 260.108919 
L 609.849846 259.03337 
L 606.270047 258.026996 
L 602.675408 257.076592 
L 599.068898 256.172847 
L 595.452579 255.308953 
L 591.82794 254.479792 
L 588.196094 253.681439 
L 584.557895 252.91084 
L 580.914009 252.165605 
L 577.264962 251.443854 
L 573.611176 250.744126 
L 569.952986 250.065303 
L 566.29066 249.406559 
L 562.624408 248.767336 
L 558.954394 248.147313 
L 555.280737 247.546406 
L 551.603519 246.964763 
L 547.922784 246.402775 
L 544.238546 245.8611 
L 540.550784 245.34069 
L 536.859446 244.842844 
L 533.164448 244.369279 
L 529.465677 243.922222 
L 525.762992 243.504554 
L 522.056232 243.120001 
L 518.345229 242.773431 
L 514.629839 242.471279 
L 510.910006 242.222224 
L 507.185898 242.038268 
L 503.458214 241.93658 
L 499.728893 241.942816 
L 496.002958 242.097617 
L 492.293843 242.4706 
L 488.641868 243.194166 
L 485.194657 244.550599 
" style="fill:none;stroke:#808080;stroke-linecap:square;stroke-width:1.5;"/>
   </g>
   <g id="line2d_34">
    <path clip-path="url(#p7e8c25e7a9)" d="M 485.194657 280.290964 
L 485.194657 241.93658 
L 630.631816 241.93658 
L 630.631816 280.290964 
L 485.194657 280.290964 
" style="fill:none;stroke:#d3d3d3;stroke-linecap:square;stroke-width:0.5;"/>
   </g>
   <g id="line2d_35">
    <path clip-path="url(#p7e8c25e7a9)" d="M 490.587249 249.981282 
L 488.852657 250.630735 
L 488.852657 250.630735 
" style="fill:none;stroke:#000000;stroke-linecap:square;stroke-width:3;"/>
   </g>
   <g id="line2d_36">
    <path clip-path="url(#p7e8c25e7a9)" d="M 488.852657 250.630735 
L 488.852657 249.981282 
L 490.587249 249.981282 
L 490.587249 250.630735 
L 488.852657 250.630735 
" style="fill:none;stroke:#d3d3d3;stroke-linecap:square;stroke-width:0.5;"/>
   </g>
   <g id="line2d_37">
    <path clip-path="url(#p7e8c25e7a9)" d="M 605.335204 273.371827 
L 605.335204 273.371827 
L 605.335204 273.371827 
" style="fill:none;stroke:#000000;stroke-linecap:square;stroke-width:3;"/>
   </g>
   <g id="line2d_38">
    <path clip-path="url(#p7e8c25e7a9)" d="M 605.335204 273.371827 
L 605.335204 273.371827 
L 605.335204 273.371827 
L 605.335204 273.371827 
L 605.335204 273.371827 
" style="fill:none;stroke:#d3d3d3;stroke-linecap:square;stroke-width:0.5;"/>
   </g>
   <g id="line2d_39">
    <path clip-path="url(#p7e8c25e7a9)" d="M 605.335204 273.371827 
L 605.335204 273.371827 
L 605.335204 273.371827 
" style="fill:none;stroke:#000000;stroke-linecap:square;stroke-width:3;"/>
   </g>
   <g id="line2d_40">
    <path clip-path="url(#p7e8c25e7a9)" d="M 605.335204 273.371827 
L 605.335204 273.371827 
L 605.335204 273.371827 
L 605.335204 273.371827 
L 605.335204 273.371827 
" style="fill:none;stroke:#d3d3d3;stroke-linecap:square;stroke-width:0.5;"/>
   </g>
   <g id="line2d_41">
    <path clip-path="url(#p7e8c25e7a9)" d="M 619.942429 270.035452 
L 617.734199 269.095023 
L 614.520647 267.913678 
L 611.187934 266.815641 
L 607.780865 265.786495 
L 604.323357 264.814541 
L 600.829517 263.890811 
L 597.308303 263.008454 
L 593.765736 262.162188 
L 590.206056 261.347893 
L 586.632358 260.562326 
L 583.046972 259.802917 
L 579.451706 259.067627 
L 575.847992 258.354845 
L 572.23699 257.663312 
L 568.619664 256.992071 
L 564.99683 256.340432 
L 561.369197 255.707942 
L 557.737396 255.094375 
L 554.102009 254.499728 
L 550.463587 253.924221 
L 546.822679 253.368314 
L 543.179852 252.832726 
L 539.53572 252.318471 
L 535.890982 251.826909 
L 532.246467 251.359812 
L 528.603205 250.91946 
L 524.962525 250.508781 
L 521.326204 250.131528 
L 517.696711 249.792559 
L 514.077593 249.498218 
L 510.474155 249.256924 
L 506.894679 249.080058 
L 503.352771 248.983334 
L 499.872233 248.988936 
L 496.498159 249.128589 
L 493.325256 249.446107 
L 490.579629 249.984135 
L 490.587249 249.981282 
" style="fill:none;stroke:#000000;stroke-linecap:square;stroke-width:3;"/>
   </g>
   <g id="line2d_42">
    <path clip-path="url(#p7e8c25e7a9)" d="M 490.579629 270.035452 
L 490.579629 248.983334 
L 619.942429 248.983334 
L 619.942429 270.035452 
L 490.579629 270.035452 
" style="fill:none;stroke:#d3d3d3;stroke-linecap:square;stroke-width:0.5;"/>
   </g>
   <g id="line2d_43">
    <path clip-path="url(#p7e8c25e7a9)" d="M 605.335204 273.371827 
L 608.856591 272.676323 
L 612.322592 271.917435 
L 615.703867 271.079732 
L 618.942176 270.143487 
L 621.900772 269.092472 
L 619.942429 270.035452 
" style="fill:none;stroke:#000000;stroke-linecap:square;stroke-width:3;"/>
   </g>
   <g id="line2d_44">
    <path clip-path="url(#p7e8c25e7a9)" d="M 605.335204 273.371827 
L 605.335204 269.092472 
L 621.900772 269.092472 
L 621.900772 273.371827 
L 605.335204 273.371827 
" style="fill:none;stroke:#d3d3d3;stroke-linecap:square;stroke-width:0.5;"/>
   </g>
   <g id="line2d_45">
    <path clip-path="url(#p7e8c25e7a9)" d="M 490.587249 249.981282 
L 493.376479 251.09319 
L 496.852552 252.492192 
L 500.307588 253.877873 
L 503.753136 255.243447 
L 507.196104 256.584005 
L 510.640811 257.895804 
L 514.090042 259.175851 
L 517.54562 260.421643 
L 521.008743 261.630995 
L 524.480179 262.801924 
L 527.960393 263.932563 
L 531.449624 265.021097 
L 534.947935 266.065712 
L 538.455244 267.064554 
L 541.971338 268.015695 
L 545.495885 268.917096 
L 549.02843 269.76658 
L 552.568391 270.561796 
L 556.115042 271.300192 
L 559.6675 271.978975 
L 563.224688 272.595075 
L 566.785306 273.145104 
L 570.347782 273.625305 
L 573.91021 274.031504 
L 577.47027 274.359043 
L 581.02513 274.602718 
L 584.571313 274.756701 
L 588.104528 274.814456 
L 591.61945 274.768662 
L 595.109437 274.611119 
L 598.566162 274.332692 
L 601.979152 273.923274 
L 605.335204 273.371827 
" style="fill:none;stroke:#000000;stroke-linecap:square;stroke-width:3;"/>
   </g>
   <g id="line2d_46">
    <path clip-path="url(#p7e8c25e7a9)" d="M 490.587249 274.814456 
L 490.587249 249.981282 
L 605.335204 249.981282 
L 605.335204 274.814456 
L 490.587249 274.814456 
" style="fill:none;stroke:#d3d3d3;stroke-linecap:square;stroke-width:0.5;"/>
   </g>
   <g id="line2d_47">
    <path clip-path="url(#p7e8c25e7a9)" d="M 463.393818 250.571306 
L 463.393818 250.571306 
L 462.854956 250.897655 
" style="fill:none;stroke:#000000;stroke-linecap:square;stroke-width:3;"/>
   </g>
   <g id="line2d_48">
    <path clip-path="url(#p7e8c25e7a9)" d="M 462.854956 250.897655 
L 462.854956 250.571306 
L 463.393818 250.571306 
L 463.393818 250.897655 
L 462.854956 250.897655 
" style="fill:none;stroke:#d3d3d3;stroke-linecap:square;stroke-width:0.5;"/>
   </g>
   <g id="line2d_49">
    <path clip-path="url(#p7e8c25e7a9)" d="M 124.180552 195.967876 
L 128.348938 195.710857 
L 131.749535 195.630483 
L 135.198378 195.653032 
L 138.679781 195.761584 
L 142.183721 195.942953 
L 145.703565 196.18674 
L 149.234793 196.484632 
L 152.774251 196.829887 
L 156.319687 197.21697 
L 159.869473 197.641278 
L 163.422405 198.098942 
L 166.97759 198.586679 
L 170.534353 199.101675 
L 174.092181 199.641501 
L 177.65068 200.204042 
L 181.209549 200.787443 
L 184.768552 201.390069 
L 188.327507 202.01047 
L 191.886273 202.647352 
L 195.444739 203.299554 
L 199.00282 203.966031 
L 202.560448 204.645837 
L 206.117573 205.338114 
L 209.674155 206.042077 
L 213.230164 206.757009 
L 216.78558 207.482252 
L 220.340387 208.217198 
L 223.894574 208.961286 
L 227.448135 209.713996 
L 231.001067 210.474843 
L 234.553369 211.243375 
L 238.105043 212.01917 
L 241.656094 212.801832 
L 245.206525 213.590989 
L 248.756344 214.386289 
L 252.305557 215.187401 
L 255.854173 215.99401 
L 259.402202 216.805817 
L 262.949651 217.622539 
L 266.496533 218.443902 
L 263.655088 217.782284 
" style="fill:none;stroke:#000000;stroke-linecap:square;stroke-width:3;"/>
   </g>
   <g id="line2d_50">
    <path clip-path="url(#p7e8c25e7a9)" d="M 124.180552 218.443902 
L 124.180552 195.630483 
L 266.496533 195.630483 
L 266.496533 218.443902 
L 124.180552 218.443902 
" style="fill:none;stroke:#d3d3d3;stroke-linecap:square;stroke-width:0.5;"/>
   </g>
   <g id="line2d_51">
    <path clip-path="url(#p7e8c25e7a9)" d="M 263.655088 217.782284 
L 260.962225 217.46373 
L 257.278986 217.024394 
L 253.592947 216.580996 
L 249.904285 216.133443 
L 246.213187 215.681635 
L 242.519846 215.225464 
L 238.824467 214.764815 
L 235.127262 214.299562 
L 231.428455 213.829568 
L 227.72828 213.354685 
L 224.026981 212.874753 
L 220.324813 212.389597 
L 216.622046 211.899026 
L 212.918961 211.402832 
L 209.215856 210.900784 
L 205.513044 210.392631 
L 201.810856 209.878095 
L 198.109644 209.356868 
L 194.409781 208.82861 
L 190.71167 208.292939 
L 187.01574 207.74943 
L 183.32246 207.197605 
L 179.632338 206.636926 
L 175.945936 206.066782 
L 172.263875 205.486474 
L 168.586855 204.895204 
L 164.915671 204.292048 
L 161.251242 203.675932 
L 157.594646 203.045594 
L 153.94717 202.399541 
L 150.310389 201.735984 
L 146.68627 201.052759 
L 143.077349 200.347206 
L 139.486994 199.616009 
L 135.919857 198.85496 
L 132.382665 198.058617 
L 128.885704 197.219789 
L 125.445888 196.328808 
L 124.180552 195.967876 
" style="fill:none;stroke:#000000;stroke-linecap:square;stroke-width:3;"/>
   </g>
   <g id="line2d_52">
    <path clip-path="url(#p7e8c25e7a9)" d="M 124.180552 217.782284 
L 124.180552 195.967876 
L 263.655088 195.967876 
L 263.655088 217.782284 
L 124.180552 217.782284 
" style="fill:none;stroke:#d3d3d3;stroke-linecap:square;stroke-width:0.5;"/>
   </g>
   <g id="line2d_53">
    <path clip-path="url(#p7e8c25e7a9)" d="M 476.171784 257.182752 
L 476.171784 257.182752 
L 473.304849 259.167761 
L 472.861062 259.094028 
" style="fill:none;stroke:#000000;stroke-linecap:square;stroke-width:3;"/>
   </g>
   <g id="line2d_54">
    <path clip-path="url(#p7e8c25e7a9)" d="M 472.861062 259.167761 
L 472.861062 257.182752 
L 476.171784 257.182752 
L 476.171784 259.167761 
L 472.861062 259.167761 
" style="fill:none;stroke:#d3d3d3;stroke-linecap:square;stroke-width:0.5;"/>
   </g>
   <g id="line2d_55">
    <path clip-path="url(#p7e8c25e7a9)" d="M 368.207192 243.062201 
L 368.19258 243.060815 
L 364.626138 242.719763 
L 361.055301 242.375693 
L 357.479992 242.028608 
L 353.900144 241.678505 
L 350.315698 241.325381 
L 346.726606 240.96923 
L 343.132827 240.610043 
L 339.534331 240.247808 
L 335.931094 239.882511 
L 332.323103 239.514138 
L 328.710352 239.14267 
L 325.092841 238.768086 
L 321.470582 238.390365 
L 317.843591 238.009482 
L 314.211895 237.625408 
L 310.575525 237.238117 
L 306.934523 236.847574 
L 303.288935 236.453747 
L 299.638816 236.056598 
L 295.984229 235.656088 
L 292.325242 235.252175 
L 288.66193 234.844812 
L 284.994377 234.433951 
L 281.322672 234.019541 
L 277.64691 233.601525 
L 273.967194 233.179844 
L 270.283633 232.754433 
L 266.596343 232.325225 
L 262.905444 231.892145 
L 259.211065 231.455116 
L 255.51334 231.014052 
L 251.812409 230.568862 
L 248.108417 230.119449 
L 244.401516 229.665707 
L 240.691864 229.207522 
L 236.979623 228.744771 
L 233.264961 228.27732 
" style="fill:none;stroke:#000000;stroke-linecap:square;stroke-width:3;"/>
   </g>
   <g id="line2d_56">
    <path clip-path="url(#p7e8c25e7a9)" d="M 233.264961 243.062201 
L 233.264961 228.27732 
L 368.207192 228.27732 
L 368.207192 243.062201 
L 233.264961 243.062201 
" style="fill:none;stroke:#d3d3d3;stroke-linecap:square;stroke-width:0.5;"/>
   </g>
   <g id="line2d_57">
    <path clip-path="url(#p7e8c25e7a9)" d="M 233.264961 228.27732 
L 229.548054 227.805026 
L 225.829079 227.32773 
L 222.10822 226.845262 
L 218.385667 226.357435 
L 214.661612 225.864044 
L 210.936254 225.364864 
L 207.209795 224.85965 
L 203.48244 224.348129 
L 199.754399 223.83 
L 196.025884 223.304928 
L 192.297109 222.772541 
L 188.56829 222.232422 
L 184.839644 221.684101 
L 181.111387 221.12705 
L 177.383731 220.560668 
L 173.656886 219.984267 
L 169.931052 219.39706 
L 166.206418 218.798133 
L 162.483157 218.186419 
L 158.761413 217.560664 
L 155.041295 216.919374 
L 151.322855 216.260747 
L 147.606063 215.582588 
L 143.890767 214.882167 
L 140.176622 214.156032 
L 136.462981 213.399711 
L 132.7487 212.607243 
L 129.031772 211.770392 
L 125.308614 210.877224 
L 121.572514 209.909329 
L 117.809856 208.835624 
L 113.98931 207.595901 
L 110.022184 206.042516 
L 105.546607 203.581579 
L 100.851288 193.781814 
L 106.621756 186.417771 
L 106.621756 186.417771 
" style="fill:none;stroke:#000000;stroke-linecap:square;stroke-width:3;"/>
   </g>
   <g id="line2d_58">
    <path clip-path="url(#p7e8c25e7a9)" d="M 100.851288 228.27732 
L 100.851288 186.417771 
L 233.264961 186.417771 
L 233.264961 228.27732 
L 100.851288 228.27732 
" style="fill:none;stroke:#d3d3d3;stroke-linecap:square;stroke-width:0.5;"/>
   </g>
   <g id="line2d_59">
    <path clip-path="url(#p7e8c25e7a9)" d="M 608.08409 287.2101 
L 611.867978 286.462649 
L 615.672668 285.629399 
L 619.512438 284.677636 
L 623.416573 283.547552 
L 627.455833 282.107182 
L 631.848288 279.945158 
L 637.148712 274.53932 
L 635.648518 263.69147 
L 631.037388 259.826077 
L 626.992857 257.664712 
L 623.140393 256.020953 
L 619.36717 254.632973 
L 615.632616 253.402197 
L 611.918827 252.280244 
L 608.216737 251.239451 
L 604.521298 250.262373 
L 600.829494 249.33724 
L 597.139421 248.455718 
L 593.449823 247.611691 
L 589.75983 246.800551 
L 586.068818 246.018764 
L 582.376311 245.263582 
L 578.681933 244.532864 
L 574.985362 243.824941 
L 571.286308 243.138534 
L 567.584489 242.472686 
L 563.879619 241.826729 
L 560.171392 241.20025 
L 556.459465 240.593084 
L 552.74345 240.005304 
L 549.022889 239.437237 
L 545.297241 238.889474 
L 541.565849 238.362908 
L 537.827911 237.858779 
L 534.08243 237.378747 
L 530.328149 236.924984 
L 526.56346 236.500326 
L 522.78626 236.108474 
L 518.993747 235.754303 
L 515.182084 235.444341 
L 511.345856 235.187523 
L 507.477117 234.996477 
L 503.563657 234.889825 
L 499.585554 234.896696 
L 495.507757 235.066645 
L 491.262431 235.495094 
L 486.704108 236.404196 
L 481.536658 238.470462 
L 481.536658 238.470462 
" style="fill:none;stroke:#000000;stroke-linecap:square;stroke-width:3;"/>
   </g>
   <g id="line2d_60">
    <path clip-path="url(#p7e8c25e7a9)" d="M 481.536658 287.2101 
L 481.536658 234.889825 
L 637.148712 234.889825 
L 637.148712 287.2101 
L 481.536658 287.2101 
" style="fill:none;stroke:#d3d3d3;stroke-linecap:square;stroke-width:0.5;"/>
   </g>
   <g id="line2d_61">
    <path clip-path="url(#p7e8c25e7a9)" d="M 106.621756 186.417771 
L 106.621756 186.417771 
L 111.199406 184.317964 
L 115.551387 183.080992 
L 119.724962 182.326128 
L 123.775069 181.873434 
L 127.73832 181.628409 
L 131.638087 181.535895 
L 135.489698 181.560883 
L 139.303607 181.679685 
L 143.087218 181.875455 
L 146.845948 182.135738 
L 150.583878 182.451033 
L 154.304156 182.813902 
L 158.009263 183.218399 
L 161.701186 183.659684 
L 165.381546 184.133752 
L 169.051678 184.637251 
L 172.712697 185.167337 
L 176.365544 185.721576 
L 180.011019 186.297862 
L 183.649808 186.894361 
L 187.282506 187.509463 
L 190.909627 188.141745 
L 194.531623 188.78994 
L 198.14889 189.452918 
L 201.761781 190.129661 
L 205.370605 190.819248 
L 208.97564 191.520848 
L 212.577135 192.2337 
L 216.175313 192.95711 
L 219.770374 193.690439 
L 223.3625 194.433101 
L 226.951855 195.184551 
L 230.538588 195.944286 
L 234.122835 196.711839 
L 237.704721 197.486771 
L 241.284358 198.268674 
" style="fill:none;stroke:#000000;stroke-linecap:square;stroke-width:3;"/>
   </g>
   <g id="line2d_62">
    <path clip-path="url(#p7e8c25e7a9)" d="M 106.621756 198.268674 
L 106.621756 181.535895 
L 241.284358 181.535895 
L 241.284358 198.268674 
L 106.621756 198.268674 
" style="fill:none;stroke:#d3d3d3;stroke-linecap:square;stroke-width:0.5;"/>
   </g>
   <g id="line2d_63">
    <path clip-path="url(#p7e8c25e7a9)" d="M 241.284358 198.268674 
L 244.861852 199.057164 
L 248.437296 199.85188 
L 252.01078 200.652482 
L 255.582383 201.458648 
L 259.152181 202.270071 
L 262.720243 203.086462 
L 266.286633 203.907544 
L 269.851409 204.733051 
L 273.414626 205.56273 
L 276.976335 206.396337 
L 280.536584 207.233637 
L 284.095416 208.074403 
L 287.652871 208.918414 
L 291.208989 209.765456 
L 294.763803 210.61532 
L 298.317347 211.467803 
L 301.86965 212.322703 
L 305.420741 213.179824 
L 308.970646 214.038971 
L 312.519387 214.899951 
L 316.066989 215.762571 
L 319.613469 216.626641 
L 323.158846 217.491969 
L 326.703138 218.358362 
L 330.246357 219.225625 
L 333.788517 220.09356 
L 337.329629 220.961968 
L 340.869702 221.830643 
L 344.408743 222.699375 
L 347.946756 223.567948 
L 351.483746 224.436136 
L 355.019712 225.303708 
L 358.554652 226.17042 
L 362.088563 227.036017 
L 365.621437 227.90023 
L 369.153264 228.762776 
L 370.686983 229.1366 
" style="fill:none;stroke:#000000;stroke-linecap:square;stroke-width:3;"/>
   </g>
   <g id="line2d_64">
    <path clip-path="url(#p7e8c25e7a9)" d="M 241.284358 229.1366 
L 241.284358 198.268674 
L 370.686983 198.268674 
L 370.686983 229.1366 
L 241.284358 229.1366 
" style="fill:none;stroke:#d3d3d3;stroke-linecap:square;stroke-width:0.5;"/>
   </g>
   <g id="line2d_65">
    <path clip-path="url(#p7e8c25e7a9)" d="M 370.686983 229.1366 
" style="fill:none;stroke:#000000;stroke-linecap:square;stroke-width:3;"/>
   </g>
   <g id="line2d_66">
    <path clip-path="url(#p7e8c25e7a9)" d="M 370.686983 229.1366 
L 370.686983 229.1366 
L 370.686983 229.1366 
L 370.686983 229.1366 
L 370.686983 229.1366 
" style="fill:none;stroke:#d3d3d3;stroke-linecap:square;stroke-width:0.5;"/>
   </g>
   <g id="line2d_67">
    <path clip-path="url(#p7e8c25e7a9)" d="M 473.152963 258.925514 
L 476.171784 257.182752 
L 476.171784 257.182752 
" style="fill:none;stroke:#000000;stroke-linecap:square;stroke-width:3;"/>
   </g>
   <g id="line2d_68">
    <path clip-path="url(#p7e8c25e7a9)" d="M 473.152963 258.925514 
L 473.152963 257.182752 
L 476.171784 257.182752 
L 476.171784 258.925514 
L 473.152963 258.925514 
" style="fill:none;stroke:#d3d3d3;stroke-linecap:square;stroke-width:0.5;"/>
   </g>
   <g id="line2d_69">
    <path clip-path="url(#p7e8c25e7a9)" d="M 481.536658 238.470462 
L 481.536658 238.470462 
L 481.725546 237.679654 
L 478.343483 237.59343 
L 474.881075 237.450395 
L 471.397651 237.276334 
L 467.907059 237.081651 
L 464.413998 236.871758 
L 460.920291 236.649891 
L 457.426632 236.418165 
L 453.933209 236.178053 
L 450.439967 235.930625 
L 446.946727 235.676689 
L 443.45325 235.416868 
L 439.959267 235.151654 
L 436.464499 234.881444 
L 432.968665 234.606563 
L 429.471489 234.327275 
L 425.972706 234.043803 
L 422.472059 233.756334 
L 418.969304 233.465026 
L 415.464207 233.170012 
L 411.956548 232.871407 
L 408.44612 232.569308 
L 404.932726 232.263799 
L 401.416182 231.954951 
L 397.896316 231.642826 
L 394.372965 231.327477 
L 390.845981 231.008948 
L 387.315223 230.687276 
L 383.780562 230.362494 
L 380.241881 230.034628 
L 376.699069 229.703699 
L 373.152029 229.369725 
L 369.60067 229.032718 
L 370.686983 229.1366 
" style="fill:none;stroke:#000000;stroke-linecap:square;stroke-width:3;"/>
   </g>
   <g id="line2d_70">
    <path clip-path="url(#p7e8c25e7a9)" d="M 369.60067 238.470462 
L 369.60067 229.032718 
L 481.725546 229.032718 
L 481.725546 238.470462 
L 369.60067 238.470462 
" style="fill:none;stroke:#d3d3d3;stroke-linecap:square;stroke-width:0.5;"/>
   </g>
   <g id="line2d_71">
    <path clip-path="url(#p7e8c25e7a9)" d="M 368.207192 243.062201 
L 372.714192 244.15813 
L 376.252585 245.016153 
L 379.791328 245.871512 
L 383.330517 246.723828 
L 386.87026 247.57269 
L 390.410685 248.417647 
L 393.951938 249.258205 
L 397.494192 250.093814 
L 401.037651 250.923864 
L 404.582557 251.747669 
L 408.129204 252.564454 
L 411.677947 253.373335 
L 415.229227 254.173292 
L 418.783589 254.963143 
L 422.341728 255.741494 
L 425.904534 256.506685 
L 429.473175 257.256706 
L 433.049218 257.989082 
L 436.634816 258.700703 
L 440.233025 259.387551 
L 443.848353 260.044279 
L 447.487779 260.663461 
L 451.162836 261.234213 
L 454.894334 261.739273 
L 458.725062 262.147781 
L 462.763734 262.39169 
L 467.426342 262.231485 
L 472.861062 259.094028 
" style="fill:none;stroke:#000000;stroke-linecap:square;stroke-width:3;"/>
   </g>
   <g id="line2d_72">
    <path clip-path="url(#p7e8c25e7a9)" d="M 368.207192 262.39169 
L 368.207192 243.062201 
L 472.861062 243.062201 
L 472.861062 262.39169 
L 368.207192 262.39169 
" style="fill:none;stroke:#d3d3d3;stroke-linecap:square;stroke-width:0.5;"/>
   </g>
   <g id="line2d_73">
    <path clip-path="url(#p7e8c25e7a9)" d="M 473.152963 258.925514 
L 477.79931 260.290099 
L 481.057987 261.454208 
L 484.431101 262.756501 
L 487.861648 264.124127 
L 491.328456 265.519403 
L 494.822251 266.920619 
L 498.338478 268.314192 
L 501.874708 269.69105 
L 505.429568 271.044786 
L 509.002252 272.370638 
L 512.592282 273.664893 
L 516.19938 274.924514 
L 519.823401 276.146902 
L 523.46429 277.329733 
L 527.122059 278.470837 
L 530.79677 279.568118 
L 534.488528 280.61948 
L 538.197472 281.622779 
L 541.923768 282.575766 
L 545.667609 283.476049 
L 549.42921 284.321041 
L 553.208805 285.107919 
L 557.006641 285.833569 
L 560.822977 286.494531 
L 564.658073 287.086934 
L 568.512183 287.606416 
L 572.385539 288.048031 
L 576.278333 288.406138 
L 580.190684 288.674263 
L 584.122597 288.844927 
L 588.073893 288.909431 
L 592.044111 288.857596 
L 596.03236 288.67742 
L 600.037084 288.354669 
L 604.055709 287.872353 
L 608.08409 287.2101 
" style="fill:none;stroke:#000000;stroke-linecap:square;stroke-width:3;"/>
   </g>
   <g id="line2d_74">
    <path clip-path="url(#p7e8c25e7a9)" d="M 473.152963 288.909431 
L 473.152963 258.925514 
L 608.08409 258.925514 
L 608.08409 288.909431 
L 473.152963 288.909431 
" style="fill:none;stroke:#d3d3d3;stroke-linecap:square;stroke-width:0.5;"/>
   </g>
   <g id="line2d_75">
    <path clip-path="url(#p7e8c25e7a9)" d="M 472.861062 259.094028 
L 474.854415 259.425213 
L 473.152963 258.925514 
" style="fill:none;stroke:#000000;stroke-linecap:square;stroke-width:3;"/>
   </g>
   <g id="line2d_76">
    <path clip-path="url(#p7e8c25e7a9)" d="M 472.861062 259.425213 
L 472.861062 258.925514 
L 474.854415 258.925514 
L 474.854415 259.425213 
L 472.861062 259.425213 
" style="fill:none;stroke:#d3d3d3;stroke-linecap:square;stroke-width:0.5;"/>
   </g>
   <g id="line2d_77">
    <path clip-path="url(#p7e8c25e7a9)" d="M 608.08409 287.2101 
L 608.08409 287.2101 
L 608.08409 287.2101 
" style="fill:none;stroke:#000000;stroke-linecap:square;stroke-width:3;"/>
   </g>
   <g id="line2d_78">
    <path clip-path="url(#p7e8c25e7a9)" d="M 608.08409 287.2101 
L 608.08409 287.2101 
L 608.08409 287.2101 
L 608.08409 287.2101 
L 608.08409 287.2101 
" style="fill:none;stroke:#d3d3d3;stroke-linecap:square;stroke-width:0.5;"/>
   </g>
   <g id="line2d_79">
    <path clip-path="url(#p7e8c25e7a9)" d="M 608.08409 287.2101 
L 608.08409 287.2101 
L 608.08409 287.2101 
" style="fill:none;stroke:#000000;stroke-linecap:square;stroke-width:3;"/>
   </g>
   <g id="line2d_80">
    <path clip-path="url(#p7e8c25e7a9)" d="M 608.08409 287.2101 
L 608.08409 287.2101 
L 608.08409 287.2101 
L 608.08409 287.2101 
L 608.08409 287.2101 
" style="fill:none;stroke:#d3d3d3;stroke-linecap:square;stroke-width:0.5;"/>
   </g>
   <g id="line2d_81">
    <path clip-path="url(#p7e8c25e7a9)" d="M 361.769995 224.791412 
L 363.157627 224.878202 
L 364.522474 225.137146 
L 365.842125 225.563993 
L 367.094912 226.151735 
L 368.260265 226.890719 
L 369.319047 227.768813 
L 370.253874 228.771597 
L 371.049395 229.882607 
L 371.69255 231.083599 
L 372.172776 232.354853 
L 372.482189 233.675496 
L 372.615708 235.023841 
L 372.57114 236.377751 
L 372.349219 237.714992 
L 371.953586 239.013609 
L 371.390739 240.252277 
L 370.66992 241.410658 
L 369.802965 242.469731 
L 368.804108 243.412106 
L 367.689751 244.22231 
L 366.478192 244.887038 
L 365.189325 245.395377 
L 363.844312 245.738979 
L 362.465239 245.912202 
L 361.07475 245.912202 
L 359.695677 245.738979 
L 358.350665 245.395377 
L 357.061797 244.887038 
L 355.850238 244.22231 
L 354.735882 243.412106 
L 353.737025 242.469731 
L 352.870069 241.410658 
L 352.14925 240.252277 
L 351.586404 239.013609 
L 351.190771 237.714992 
L 350.968849 236.377751 
L 350.924282 235.023841 
L 351.057801 233.675496 
L 351.367214 232.354853 
L 351.84744 231.083599 
L 352.490594 229.882607 
L 353.286116 228.771597 
L 354.220943 227.768813 
L 355.279725 226.890719 
L 356.445077 226.151735 
L 357.697864 225.563993 
L 359.017516 225.137146 
L 360.382363 224.878202 
L 361.769995 224.791412 
" style="fill:none;stroke:#808080;stroke-linecap:square;stroke-width:1.5;"/>
   </g>
   <g id="line2d_82">
    <path clip-path="url(#p7e8c25e7a9)" d="M 234.196112 210.717186 
L 235.583744 210.803976 
L 236.948591 211.062921 
L 238.268242 211.489768 
L 239.521029 212.077509 
L 240.686381 212.816493 
L 241.745164 213.694587 
L 242.67999 214.697372 
L 243.475512 215.808381 
L 244.118667 217.009373 
L 244.598893 218.280628 
L 244.908306 219.60127 
L 245.041825 220.949616 
L 244.997257 222.303525 
L 244.775335 223.640767 
L 244.379703 224.939383 
L 243.816856 226.178051 
L 243.096037 227.336432 
L 242.229082 228.395505 
L 241.230225 229.33788 
L 240.115868 230.148084 
L 238.904309 230.812813 
L 237.615442 231.321151 
L 236.270429 231.664753 
L 234.891356 231.837976 
L 233.500867 231.837976 
L 232.121794 231.664753 
L 230.776782 231.321151 
L 229.487914 230.812813 
L 228.276355 230.148084 
L 227.161999 229.33788 
L 226.163142 228.395505 
L 225.296186 227.336432 
L 224.575367 226.178051 
L 224.01252 224.939383 
L 223.616888 223.640767 
L 223.394966 222.303525 
L 223.350399 220.949616 
L 223.483918 219.60127 
L 223.793331 218.280628 
L 224.273557 217.009373 
L 224.916711 215.808381 
L 225.712233 214.697372 
L 226.64706 213.694587 
L 227.705842 212.816493 
L 228.871194 212.077509 
L 230.123981 211.489768 
L 231.443633 211.062921 
L 232.80848 210.803976 
L 234.196112 210.717186 
" style="fill:none;stroke:#808080;stroke-linecap:square;stroke-width:1.5;"/>
   </g>
   <g id="line2d_83">
    <path clip-path="url(#p7e8c25e7a9)" d="M 107.976991 184.426507 
L 109.364623 184.513297 
L 110.72947 184.772241 
L 112.049121 185.199089 
L 113.301908 185.78683 
L 114.46726 186.525814 
L 115.526042 187.403908 
L 116.460869 188.406692 
L 117.256391 189.517702 
L 117.899546 190.718694 
L 118.379772 191.989948 
L 118.689185 193.310591 
L 118.822704 194.658937 
L 118.778136 196.012846 
L 118.556214 197.350087 
L 118.160582 198.648704 
L 117.597735 199.887372 
L 116.876916 201.045753 
L 116.009961 202.104826 
L 115.011104 203.047201 
L 113.896747 203.857405 
L 112.685188 204.522134 
L 111.396321 205.030472 
L 110.051308 205.374074 
L 108.672235 205.547297 
L 107.281746 205.547297 
L 105.902673 205.374074 
L 104.557661 205.030472 
L 103.268793 204.522134 
L 102.057234 203.857405 
L 100.942878 203.047201 
L 99.944021 202.104826 
L 99.077065 201.045753 
L 98.356246 199.887372 
L 97.793399 198.648704 
L 97.397767 197.350087 
L 97.175845 196.012846 
L 97.131278 194.658937 
L 97.264797 193.310591 
L 97.57421 191.989948 
L 98.054436 190.718694 
L 98.69759 189.517702 
L 99.493112 188.406692 
L 100.427939 187.403908 
L 101.486721 186.525814 
L 102.652073 185.78683 
L 103.90486 185.199089 
L 105.224512 184.772241 
L 106.589359 184.513297 
L 107.976991 184.426507 
" style="fill:none;stroke:#808080;stroke-linecap:square;stroke-width:1.5;"/>
   </g>
   <g id="line2d_84">
    <path clip-path="url(#p7e8c25e7a9)" d="M 110.363675 181.877991 
L 111.751307 181.964781 
L 113.116154 182.223726 
L 114.435805 182.650573 
L 115.688593 183.238314 
L 116.853945 183.977299 
L 117.912727 184.855392 
L 118.847554 185.858177 
L 119.643076 186.969186 
L 120.28623 188.170178 
L 120.766456 189.441433 
L 121.075869 190.762075 
L 121.209388 192.110421 
L 121.164821 193.46433 
L 120.942899 194.801572 
L 120.547266 196.100188 
L 119.98442 197.338856 
L 119.2636 198.497237 
L 118.396645 199.55631 
L 117.397788 200.498686 
L 116.283431 201.308889 
L 115.071873 201.973618 
L 113.783005 202.481956 
L 112.437992 202.825558 
L 111.058919 202.998781 
L 109.668431 202.998781 
L 108.289358 202.825558 
L 106.944345 202.481956 
L 105.655478 201.973618 
L 104.443919 201.308889 
L 103.329562 200.498686 
L 102.330705 199.55631 
L 101.46375 198.497237 
L 100.74293 197.338856 
L 100.180084 196.100188 
L 99.784451 194.801572 
L 99.562529 193.46433 
L 99.517962 192.110421 
L 99.651481 190.762075 
L 99.960894 189.441433 
L 100.44112 188.170178 
L 101.084274 186.969186 
L 101.879796 185.858177 
L 102.814623 184.855392 
L 103.873405 183.977299 
L 105.038757 183.238314 
L 106.291545 182.650573 
L 107.611196 182.223726 
L 108.976043 181.964781 
L 110.363675 181.877991 
" style="fill:none;stroke:#808080;stroke-linecap:square;stroke-width:1.5;"/>
   </g>
   <g id="line2d_85">
    <path clip-path="url(#p7e8c25e7a9)" d="M 232.561951 193.022086 
L 233.949583 193.108876 
L 235.31443 193.36782 
L 236.634081 193.794667 
L 237.886868 194.382409 
L 239.052221 195.121393 
L 240.111003 195.999487 
L 241.04583 197.002271 
L 241.841351 198.113281 
L 242.484506 199.314273 
L 242.964732 200.585527 
L 243.274145 201.906169 
L 243.407664 203.254515 
L 243.363096 204.608425 
L 243.141175 205.945666 
L 242.745542 207.244283 
L 242.182695 208.482951 
L 241.461876 209.641332 
L 240.594921 210.700405 
L 239.596064 211.64278 
L 238.481707 212.452984 
L 237.270148 213.117712 
L 235.981281 213.626051 
L 234.636268 213.969653 
L 233.257195 214.142876 
L 231.866706 214.142876 
L 230.487633 213.969653 
L 229.142621 213.626051 
L 227.853753 213.117712 
L 226.642194 212.452984 
L 225.527838 211.64278 
L 224.528981 210.700405 
L 223.662025 209.641332 
L 222.941206 208.482951 
L 222.37836 207.244283 
L 221.982727 205.945666 
L 221.760805 204.608425 
L 221.716238 203.254515 
L 221.849757 201.906169 
L 222.15917 200.585527 
L 222.639396 199.314273 
L 223.28255 198.113281 
L 224.078072 197.002271 
L 225.012899 195.999487 
L 226.071681 195.121393 
L 227.237033 194.382409 
L 228.48982 193.794667 
L 229.809472 193.36782 
L 231.174319 193.108876 
L 232.561951 193.022086 
" style="fill:none;stroke:#808080;stroke-linecap:square;stroke-width:1.5;"/>
   </g>
   <g id="line2d_86">
    <path clip-path="url(#p7e8c25e7a9)" d="M 353.253415 221.566664 
L 354.641047 221.653454 
L 356.005894 221.912399 
L 357.325546 222.339246 
L 358.578333 222.926987 
L 359.743685 223.665972 
L 360.802467 224.544065 
L 361.737294 225.54685 
L 362.532816 226.657859 
L 363.17597 227.858851 
L 363.656196 229.130106 
L 363.965609 230.450748 
L 364.099128 231.799094 
L 364.054561 233.153003 
L 363.832639 234.490245 
L 363.437006 235.788861 
L 362.87416 237.027529 
L 362.153341 238.18591 
L 361.286385 239.244983 
L 360.287528 240.187359 
L 359.173172 240.997562 
L 357.961613 241.662291 
L 356.672745 242.170629 
L 355.327733 242.514231 
L 353.94866 242.687454 
L 352.558171 242.687454 
L 351.179098 242.514231 
L 349.834085 242.170629 
L 348.545218 241.662291 
L 347.333659 240.997562 
L 346.219302 240.187359 
L 345.220445 239.244983 
L 344.35349 238.18591 
L 343.632671 237.027529 
L 343.069824 235.788861 
L 342.674191 234.490245 
L 342.45227 233.153003 
L 342.407702 231.799094 
L 342.541221 230.450748 
L 342.850634 229.130106 
L 343.33086 227.858851 
L 343.974015 226.657859 
L 344.769536 225.54685 
L 345.704363 224.544065 
L 346.763145 223.665972 
L 347.928498 222.926987 
L 349.181285 222.339246 
L 350.500936 221.912399 
L 351.865783 221.653454 
L 353.253415 221.566664 
" style="fill:none;stroke:#808080;stroke-linecap:square;stroke-width:1.5;"/>
   </g>
   <g id="line2d_87">
    <path clip-path="url(#p7e8c25e7a9)" d="M 469.782801 243.305774 
L 471.170433 243.392564 
L 472.53528 243.651509 
L 473.854931 244.078356 
L 475.107718 244.666097 
L 476.27307 245.405081 
L 477.331853 246.283175 
L 478.266679 247.285959 
L 479.062201 248.396969 
L 479.705356 249.597961 
L 480.185582 250.869215 
L 480.494995 252.189858 
L 480.628514 253.538204 
L 480.583946 254.892113 
L 480.362024 256.229355 
L 479.966392 257.527971 
L 479.403545 258.766639 
L 478.682726 259.92502 
L 477.815771 260.984093 
L 476.816914 261.926468 
L 475.702557 262.736672 
L 474.490998 263.401401 
L 473.202131 263.909739 
L 471.857118 264.253341 
L 470.478045 264.426564 
L 469.087556 264.426564 
L 467.708483 264.253341 
L 466.363471 263.909739 
L 465.074603 263.401401 
L 463.863044 262.736672 
L 462.748688 261.926468 
L 461.749831 260.984093 
L 460.882875 259.92502 
L 460.162056 258.766639 
L 459.599209 257.527971 
L 459.203577 256.229355 
L 458.981655 254.892113 
L 458.937088 253.538204 
L 459.070607 252.189858 
L 459.38002 250.869215 
L 459.860246 249.597961 
L 460.5034 248.396969 
L 461.298922 247.285959 
L 462.233749 246.283175 
L 463.292531 245.405081 
L 464.457883 244.666097 
L 465.71067 244.078356 
L 467.030322 243.651509 
L 468.395169 243.392564 
L 469.782801 243.305774 
" style="fill:none;stroke:#808080;stroke-linecap:square;stroke-width:1.5;"/>
   </g>
   <g id="line2d_88">
    <path clip-path="url(#p7e8c25e7a9)" d="M 606.709647 269.719709 
L 608.097279 269.806499 
L 609.462126 270.065443 
L 610.781777 270.49229 
L 612.034564 271.080031 
L 613.199917 271.819016 
L 614.258699 272.69711 
L 615.193526 273.699894 
L 615.989047 274.810904 
L 616.632202 276.011896 
L 617.112428 277.28315 
L 617.421841 278.603792 
L 617.55536 279.952138 
L 617.510792 281.306047 
L 617.288871 282.643289 
L 616.893238 283.941906 
L 616.330391 285.180574 
L 615.609572 286.338955 
L 614.742617 287.398028 
L 613.74376 288.340403 
L 612.629403 289.150607 
L 611.417844 289.815335 
L 610.128977 290.323674 
L 608.783964 290.667276 
L 607.404891 290.840499 
L 606.014402 290.840499 
L 604.635329 290.667276 
L 603.290317 290.323674 
L 602.001449 289.815335 
L 600.78989 289.150607 
L 599.675534 288.340403 
L 598.676677 287.398028 
L 597.809721 286.338955 
L 597.088902 285.180574 
L 596.526056 283.941906 
L 596.130423 282.643289 
L 595.908501 281.306047 
L 595.863934 279.952138 
L 595.997453 278.603792 
L 596.306866 277.28315 
L 596.787092 276.011896 
L 597.430246 274.810904 
L 598.225768 273.699894 
L 599.160595 272.69711 
L 600.219377 271.819016 
L 601.384729 271.080031 
L 602.637516 270.49229 
L 603.957168 270.065443 
L 605.322015 269.806499 
L 606.709647 269.719709 
" style="fill:none;stroke:#808080;stroke-linecap:square;stroke-width:1.5;"/>
   </g>
   <g id="line2d_89">
    <path clip-path="url(#p7e8c25e7a9)" d="M 485.194657 233.979344 
L 486.582289 234.066133 
L 487.947136 234.325078 
L 489.266788 234.751925 
L 490.519575 235.339666 
L 491.684927 236.078651 
L 492.743709 236.956744 
L 493.678536 237.959529 
L 494.474058 239.070539 
L 495.117212 240.271531 
L 495.597438 241.542785 
L 495.906851 242.863427 
L 496.04037 244.211773 
L 495.995803 245.565682 
L 495.773881 246.902924 
L 495.378248 248.201541 
L 494.815402 249.440209 
L 494.094583 250.59859 
L 493.227627 251.657663 
L 492.22877 252.600038 
L 491.114414 253.410242 
L 489.902855 254.07497 
L 488.613987 254.583309 
L 487.268975 254.926911 
L 485.889902 255.100134 
L 484.499413 255.100134 
L 483.12034 254.926911 
L 481.775327 254.583309 
L 480.48646 254.07497 
L 479.274901 253.410242 
L 478.160544 252.600038 
L 477.161687 251.657663 
L 476.294732 250.59859 
L 475.573913 249.440209 
L 475.011066 248.201541 
L 474.615434 246.902924 
L 474.393512 245.565682 
L 474.348944 244.211773 
L 474.482463 242.863427 
L 474.791876 241.542785 
L 475.272102 240.271531 
L 475.915257 239.070539 
L 476.710779 237.959529 
L 477.645605 236.956744 
L 478.704388 236.078651 
L 479.86974 235.339666 
L 481.122527 234.751925 
L 482.442178 234.325078 
L 483.807025 234.066133 
L 485.194657 233.979344 
" style="fill:none;stroke:#808080;stroke-linecap:square;stroke-width:1.5;"/>
   </g>
   <g id="line2d_90"/>
   <g id="line2d_91"/>
   <g id="line2d_92"/>
   <g id="line2d_93"/>
   <g id="line2d_94"/>
   <g id="line2d_95"/>
   <g id="line2d_96"/>
   <g id="line2d_97"/>
   <g id="line2d_98"/>
   <g id="line2d_99"/>
   <g id="line2d_100"/>
   <g id="line2d_101"/>
   <g id="line2d_102"/>
   <g id="line2d_103"/>
   <g id="line2d_104"/>
   <g id="line2d_105"/>
   <g id="line2d_106"/>
   <g id="line2d_107"/>
   <g id="line2d_108"/>
   <g id="line2d_109"/>
   <g id="line2d_110"/>
   <g id="line2d_111"/>
   <g id="line2d_112"/>
   <g id="line2d_113"/>
   <g id="line2d_114"/>
   <g id="line2d_115"/>
   <g id="line2d_116"/>
   <g id="line2d_117"/>
   <g id="line2d_118"/>
   <g id="line2d_119"/>
   <g id="line2d_120"/>
   <g id="line2d_121"/>
   <g id="line2d_122"/>
   <g id="line2d_123"/>
   <g id="line2d_124"/>
   <g id="line2d_125"/>
   <g id="line2d_126"/>
   <g id="line2d_127"/>
   <g id="line2d_128"/>
   <g id="line2d_129"/>
   <g id="line2d_130"/>
   <g id="line2d_131"/>
   <g id="line2d_132"/>
   <g id="line2d_133"/>
   <g id="line2d_134"/>
   <g id="line2d_135"/>
   <g id="line2d_136"/>
   <g id="line2d_137"/>
   <g id="line2d_138"/>
   <g id="line2d_139"/>
   <g id="line2d_140"/>
   <g id="patch_3">
    <path d="M 90 630 
L 90 86.4 
" style="fill:none;stroke:#000000;stroke-linecap:square;stroke-linejoin:miter;stroke-width:0.8;"/>
   </g>
   <g id="patch_4">
    <path d="M 648 630 
L 648 86.4 
" style="fill:none;stroke:#000000;stroke-linecap:square;stroke-linejoin:miter;stroke-width:0.8;"/>
   </g>
   <g id="patch_5">
    <path d="M 90 630 
L 648 630 
" style="fill:none;stroke:#000000;stroke-linecap:square;stroke-linejoin:miter;stroke-width:0.8;"/>
   </g>
   <g id="patch_6">
    <path d="M 90 86.4 
L 648 86.4 
" style="fill:none;stroke:#000000;stroke-linecap:square;stroke-linejoin:miter;stroke-width:0.8;"/>
   </g>
   <g id="text_17">
    <!-- 0 -->
    <g transform="translate(258.077843 325.309584)scale(0.1 -0.1)">
     <use xlink:href="#DejaVuSans-30"/>
    </g>
   </g>
   <g id="text_18">
    <!-- 0 -->
    <g transform="translate(258.077843 314.738329)scale(0.1 -0.1)">
     <use xlink:href="#DejaVuSans-30"/>
    </g>
   </g>
   <g id="text_19">
    <!-- 0 -->
    <g transform="translate(258.077843 304.167075)scale(0.1 -0.1)">
     <use xlink:href="#DejaVuSans-30"/>
    </g>
   </g>
  </g>
 </g>
 <defs>
  <clipPath id="p7e8c25e7a9">
   <rect height="543.6" width="558" x="90" y="86.4"/>
  </clipPath>
 </defs>
</svg>
