<?xml version="1.0" encoding="utf-8" standalone="no"?>
<!DOCTYPE svg PUBLIC "-//W3C//DTD SVG 1.1//EN"
  "http://www.w3.org/Graphics/SVG/1.1/DTD/svg11.dtd">
<svg height="720pt" version="1.1" viewBox="0 0 720 720" width="720pt" xmlns="http://www.w3.org/2000/svg" xmlns:xlink="http://www.w3.org/1999/xlink">
 <metadata>
  <rdf:RDF xmlns:cc="http://creativecommons.org/ns#" xmlns:dc="http://purl.org/dc/elements/1.1/" xmlns:rdf="http://www.w3.org/1999/02/22-rdf-syntax-ns#">
   <cc:Work>
    <dc:type rdf:resource="http://purl.org/dc/dcmitype/StillImage"/>
    <dc:date>2022-01-11T13:26:01.465767</dc:date>
    <dc:format>image/svg+xml</dc:format>
    <dc:creator>
     <cc:Agent>
      <dc:title>Matplotlib v3.4.3, https://matplotlib.org/</dc:title>
     </cc:Agent>
    </dc:creator>
   </cc:Work>
  </rdf:RDF>
 </metadata>
 <defs>
  <style type="text/css">*{stroke-linecap:butt;stroke-linejoin:round;}</style>
 </defs>
 <g id="figure_1">
  <g id="patch_1">
   <path d="M 0 720 
L 720 720 
L 720 0 
L 0 0 
z
" style="fill:none;"/>
  </g>
  <g id="axes_1">
   <g id="patch_2">
    <path d="M 90 630 
L 648 630 
L 648 86.4 
L 90 86.4 
z
" style="fill:#ffffff;"/>
   </g>
   <g id="PathCollection_1">
    <defs>
     <path d="M 0.972304 -8.870829 
Q -1.277159 -8.870829 -2.413438 -6.653699 
Q -3.545098 -4.441189 -3.545098 0.006929 
Q -3.545098 4.436569 -2.413438 6.653699 
Q -1.277159 8.870829 0.972304 8.870829 
Q 3.240243 8.870829 4.371903 6.653699 
Q 5.508182 4.436569 5.508182 0.006929 
Q 5.508182 -4.441189 4.371903 -6.653699 
Q 3.240243 -8.870829 0.972304 -8.870829 
z
M 0.972304 -11.18034 
Q 4.598235 -11.18034 6.51051 -8.311928 
Q 8.422784 -5.448135 8.422784 0.006929 
Q 8.422784 5.448135 6.51051 8.316547 
Q 4.598235 11.18034 0.972304 11.18034 
Q -2.649008 11.18034 -4.561283 8.316547 
Q -6.473558 5.448135 -6.473558 0.006929 
Q -6.473558 -5.448135 -4.561283 -8.311928 
Q -2.649008 -11.18034 0.972304 -11.18034 
z
" id="m10167f0ab2" style="stroke:#808080;"/>
    </defs>
    <g clip-path="url(#p9891ea81eb)">
     <use style="fill:#808080;stroke:#808080;" x="311.049721" xlink:href="#m10167f0ab2" y="216.726735"/>
    </g>
   </g>
   <g id="PathCollection_2">
    <defs>
     <path d="M -4.535873 8.63565 
L 0.404946 8.63565 
L 0.404946 -8.424791 
L -4.971969 -7.346533 
L -4.971969 -10.102082 
L 0.376192 -11.18034 
L 3.400108 -11.18034 
L 3.400108 8.63565 
L 8.340927 8.63565 
L 8.340927 11.18034 
L -4.535873 11.18034 
L -4.535873 8.63565 
z
" id="m65e5eab93b" style="stroke:#808080;"/>
    </defs>
    <g clip-path="url(#p9891ea81eb)">
     <use style="fill:#808080;stroke:#808080;" x="223.890168" xlink:href="#m65e5eab93b" y="327.880855"/>
    </g>
   </g>
   <g id="PathCollection_3">
    <defs>
     <path d="M -2.294912 8.680651 
L 8.075736 8.680651 
L 8.075736 11.18034 
L -5.867913 11.18034 
L -5.867913 8.680651 
Q -4.177916 6.929457 -1.259259 3.982555 
Q 1.664105 1.030945 2.4126 0.174178 
Q 3.838976 -1.426376 4.403877 -2.537349 
Q 4.973486 -3.648321 4.973486 -4.721634 
Q 4.973486 -6.472828 3.744825 -7.574386 
Q 2.516165 -8.680651 0.543718 -8.680651 
Q -0.854413 -8.680651 -2.407892 -8.195778 
Q -3.956663 -7.710904 -5.72198 -6.722326 
L -5.72198 -9.725719 
Q -3.928418 -10.445968 -2.370232 -10.813154 
Q -0.807338 -11.18034 0.487227 -11.18034 
Q 3.900173 -11.18034 5.929111 -9.471513 
Q 7.958048 -7.767394 7.958048 -4.914642 
Q 7.958048 -3.558879 7.449637 -2.344341 
Q 6.945933 -1.13451 5.604292 0.513119 
Q 5.237107 0.941502 3.264659 2.979855 
Q 1.296919 5.018207 -2.294912 8.680651 
z
" id="m2aab15569d" style="stroke:#808080;"/>
    </defs>
    <g clip-path="url(#p9891ea81eb)">
     <use style="fill:#808080;stroke:#808080;" x="307.691711" xlink:href="#m2aab15569d" y="448.054389"/>
    </g>
   </g>
   <g id="PathCollection_4">
    <defs>
     <path d="M 3.77605 -0.861447 
Q 5.868466 -0.413402 7.041697 1.004637 
Q 8.219548 2.418057 8.219548 4.496617 
Q 8.219548 7.683741 6.025513 9.43435 
Q 3.831478 11.18034 -0.210165 11.18034 
Q -1.563539 11.18034 -3.000054 10.912437 
Q -4.436569 10.644533 -5.965465 10.108727 
L -5.965465 7.295743 
Q -4.755282 8.002454 -3.314147 8.362737 
Q -1.868394 8.723021 -0.293308 8.723021 
Q 2.445772 8.723021 3.882287 7.64217 
Q 5.318802 6.561319 5.318802 4.496617 
Q 5.318802 2.588961 3.983905 1.517348 
Q 2.649008 0.441116 0.270213 0.441116 
L -2.242535 0.441116 
L -2.242535 -1.956155 
L 0.385688 -1.956155 
Q 2.533533 -1.956155 3.674431 -2.815293 
Q 4.815329 -3.674431 4.815329 -5.291088 
Q 4.815329 -6.949317 3.637479 -7.836169 
Q 2.464248 -8.72764 0.270213 -8.72764 
Q -0.930733 -8.72764 -2.302582 -8.464356 
Q -3.674431 -8.20569 -5.318802 -7.660646 
L -5.318802 -10.256536 
Q -3.655955 -10.718438 -2.205582 -10.949389 
Q -0.75521 -11.18034 0.528878 -11.18034 
Q 3.849954 -11.18034 5.780705 -9.66992 
Q 7.716074 -8.164119 7.716074 -5.595944 
Q 7.716074 -3.803764 6.690652 -2.570485 
Q 5.665229 -1.337207 3.77605 -0.861447 
z
" id="m097ac19f89" style="stroke:#808080;"/>
    </defs>
    <g clip-path="url(#p9891ea81eb)">
     <use style="fill:#808080;stroke:#808080;" x="350.085963" xlink:href="#m097ac19f89" y="591.529599"/>
    </g>
   </g>
   <g id="PathCollection_5">
    <defs>
     <path d="M 2.695646 -8.544598 
L -4.943215 3.392919 
L 2.695646 3.392919 
L 2.695646 -8.544598 
z
M 1.900131 -11.18034 
L 5.705184 -11.18034 
L 5.705184 3.392919 
L 8.896829 3.392919 
L 8.896829 5.908855 
L 5.705184 5.908855 
L 5.705184 11.18034 
L 2.695646 11.18034 
L 2.695646 5.908855 
L -7.396852 5.908855 
L -7.396852 2.99037 
L 1.900131 -11.18034 
z
" id="m61fb73d2fd" style="stroke:#808080;"/>
    </defs>
    <g clip-path="url(#p9891ea81eb)">
     <use style="fill:#808080;stroke:#808080;" x="350.085963" xlink:href="#m61fb73d2fd" y="591.529599"/>
    </g>
   </g>
   <g id="PathCollection_6">
    <defs>
     <path d="M -5.008473 -11.18034 
L 6.639575 -11.18034 
L 6.639575 -8.679629 
L -2.291535 -8.679629 
L -2.291535 -3.306861 
Q -1.647555 -3.527789 -1.003575 -3.635902 
Q -0.354894 -3.744015 0.293787 -3.744015 
Q 3.964943 -3.744015 6.108409 -1.732165 
Q 8.256576 0.279685 8.256576 3.715812 
Q 8.256576 7.255352 6.052002 9.220196 
Q 3.847428 11.18034 -0.16217 11.18034 
Q -1.544142 11.18034 -2.97782 10.945311 
Q -4.406798 10.710281 -5.934488 10.240223 
L -5.934488 7.255352 
Q -4.613624 7.974541 -3.203448 8.327085 
Q -1.793273 8.679629 -0.223278 8.679629 
Q 2.319738 8.679629 3.800422 7.344663 
Q 5.285807 6.009697 5.285807 3.715812 
Q 5.285807 1.426627 3.800422 0.091661 
Q 2.319738 -1.248005 -0.223278 -1.248005 
Q -1.412526 -1.248005 -2.597073 -0.984772 
Q -3.77692 -0.72154 -5.008473 -0.16217 
L -5.008473 -11.18034 
z
" id="m42748b2e33" style="stroke:#808080;"/>
    </defs>
    <g clip-path="url(#p9891ea81eb)">
     <use style="fill:#808080;stroke:#808080;" x="444.834524" xlink:href="#m42748b2e33" y="462.361375"/>
    </g>
   </g>
   <g id="PathCollection_7">
    <defs>
     <path d="M 1.286397 -1.175541 
Q -0.676687 -1.175541 -1.826823 0.168594 
Q -2.97234 1.50811 -2.97234 3.845335 
Q -2.97234 6.168702 -1.826823 7.522075 
Q -0.676687 8.870829 1.286397 8.870829 
Q 3.249481 8.870829 4.394998 7.522075 
Q 5.540515 6.168702 5.540515 3.845335 
Q 5.540515 1.50811 4.394998 0.168594 
Q 3.249481 -1.175541 1.286397 -1.175541 
z
M 7.07403 -10.316583 
L 7.07403 -7.660646 
Q 5.974703 -8.177976 4.8569 -8.450499 
Q 3.739097 -8.72764 2.63977 -8.72764 
Q -0.247118 -8.72764 -1.771394 -6.778413 
Q -3.291052 -4.829186 -3.508146 -0.889162 
Q -2.658246 -2.145535 -1.374159 -2.815293 
Q -0.085452 -3.485051 1.457301 -3.485051 
Q 4.704473 -3.485051 6.589033 -1.512729 
Q 8.473594 0.454974 8.473594 3.845335 
Q 8.473594 7.166411 6.51051 9.175685 
Q 4.547426 11.18034 1.286397 11.18034 
Q -2.45501 11.18034 -4.43195 8.316547 
Q -6.408891 5.448135 -6.408891 0.006929 
Q -6.408891 -5.101708 -3.983905 -8.141024 
Q -1.55892 -11.18034 2.524295 -11.18034 
Q 3.623622 -11.18034 4.741425 -10.963246 
Q 5.859228 -10.746152 7.07403 -10.316583 
z
" id="m509c993078" style="stroke:#808080;"/>
    </defs>
    <g clip-path="url(#p9891ea81eb)">
     <use style="fill:#808080;stroke:#808080;" x="486.278458" xlink:href="#m509c993078" y="282.496608"/>
    </g>
   </g>
   <g id="PathCollection_8">
    <defs>
     <path d="M -5.93042 -11.18034 
L 8.446356 -11.18034 
L 8.446356 -9.891222 
L 0.32827 11.18034 
L -2.829829 11.18034 
L 4.809032 -8.630858 
L -5.93042 -8.630858 
L -5.93042 -11.18034 
z
" id="m9c3d4692ba" style="stroke:#808080;"/>
    </defs>
    <g clip-path="url(#p9891ea81eb)">
     <use style="fill:#808080;stroke:#808080;" x="472.97994" xlink:href="#m9c3d4692ba" y="118.068821"/>
    </g>
   </g>
   <g id="PathCollection_9">
    <defs>
     <path d="M 1.002328 0.524259 
Q -1.076232 0.524259 -2.267939 1.637443 
Q -3.455028 2.750627 -3.455028 4.695235 
Q -3.455028 6.644461 -2.267939 7.757645 
Q -1.076232 8.870829 1.002328 8.870829 
Q 3.080887 8.870829 4.277213 7.753026 
Q 5.478159 6.630604 5.478159 4.695235 
Q 5.478159 2.750627 4.286451 1.637443 
Q 3.099363 0.524259 1.002328 0.524259 
z
M -1.912275 -0.713639 
Q -3.787597 -1.175541 -4.836115 -2.459629 
Q -5.880014 -3.748335 -5.880014 -5.595944 
Q -5.880014 -8.177976 -4.041643 -9.679158 
Q -2.198654 -11.18034 1.002328 -11.18034 
Q 4.221785 -11.18034 6.055536 -9.679158 
Q 7.889288 -8.177976 7.889288 -5.595944 
Q 7.889288 -3.748335 6.84077 -2.459629 
Q 5.796871 -1.175541 3.935406 -0.713639 
Q 6.041679 -0.224023 7.214911 1.207874 
Q 8.392761 2.635151 8.392761 4.695235 
Q 8.392761 7.83155 6.480486 9.508254 
Q 4.568212 11.18034 1.002328 11.18034 
Q -2.558938 11.18034 -4.475831 9.508254 
Q -6.388106 7.83155 -6.388106 4.695235 
Q -6.388106 2.635151 -5.205636 1.207874 
Q -4.018548 -0.224023 -1.912275 -0.713639 
z
M -2.979268 -5.318802 
Q -2.979268 -3.646717 -1.93537 -2.709056 
Q -0.886852 -1.771394 1.002328 -1.771394 
Q 2.882269 -1.771394 3.940025 -2.709056 
Q 5.0024 -3.646717 5.0024 -5.318802 
Q 5.0024 -6.995507 3.940025 -7.933168 
Q 2.882269 -8.870829 1.002328 -8.870829 
Q -0.886852 -8.870829 -1.93537 -7.933168 
Q -2.979268 -6.995507 -2.979268 -5.318802 
z
" id="m36145a70df" style="stroke:#808080;"/>
    </defs>
    <g clip-path="url(#p9891ea81eb)">
     <use style="fill:#808080;stroke:#808080;" x="472.97994" xlink:href="#m36145a70df" y="118.068821"/>
    </g>
   </g>
   <g id="PathCollection_10"/>
   <g id="PathCollection_11"/>
   <g id="PathCollection_12"/>
   <g id="PathCollection_13"/>
   <g id="PathCollection_14"/>
   <g id="matplotlib.axis_1">
    <g id="xtick_1">
     <g id="line2d_1">
      <defs>
       <path d="M 0 0 
L 0 3.5 
" id="m48a52255a5" style="stroke:#000000;stroke-width:0.8;"/>
      </defs>
      <g>
       <use style="stroke:#000000;stroke-width:0.8;" x="197.560444" xlink:href="#m48a52255a5" y="630"/>
      </g>
     </g>
     <g id="text_1">
      <!-- −100 -->
      <g transform="translate(183.826851 644.598438)scale(0.1 -0.1)">
       <defs>
        <path d="M 678 2272 
L 4684 2272 
L 4684 1741 
L 678 1741 
L 678 2272 
z
" id="DejaVuSans-2212" transform="scale(0.015625)"/>
        <path d="M 794 531 
L 1825 531 
L 1825 4091 
L 703 3866 
L 703 4441 
L 1819 4666 
L 2450 4666 
L 2450 531 
L 3481 531 
L 3481 0 
L 794 0 
L 794 531 
z
" id="DejaVuSans-31" transform="scale(0.015625)"/>
        <path d="M 2034 4250 
Q 1547 4250 1301 3770 
Q 1056 3291 1056 2328 
Q 1056 1369 1301 889 
Q 1547 409 2034 409 
Q 2525 409 2770 889 
Q 3016 1369 3016 2328 
Q 3016 3291 2770 3770 
Q 2525 4250 2034 4250 
z
M 2034 4750 
Q 2819 4750 3233 4129 
Q 3647 3509 3647 2328 
Q 3647 1150 3233 529 
Q 2819 -91 2034 -91 
Q 1250 -91 836 529 
Q 422 1150 422 2328 
Q 422 3509 836 4129 
Q 1250 4750 2034 4750 
z
" id="DejaVuSans-30" transform="scale(0.015625)"/>
       </defs>
       <use xlink:href="#DejaVuSans-2212"/>
       <use x="83.789062" xlink:href="#DejaVuSans-31"/>
       <use x="147.412109" xlink:href="#DejaVuSans-30"/>
       <use x="211.035156" xlink:href="#DejaVuSans-30"/>
      </g>
     </g>
    </g>
    <g id="xtick_2">
     <g id="line2d_2">
      <g>
       <use style="stroke:#000000;stroke-width:0.8;" x="314.591956" xlink:href="#m48a52255a5" y="630"/>
      </g>
     </g>
     <g id="text_2">
      <!-- 0 -->
      <g transform="translate(311.410706 644.598438)scale(0.1 -0.1)">
       <use xlink:href="#DejaVuSans-30"/>
      </g>
     </g>
    </g>
    <g id="xtick_3">
     <g id="line2d_3">
      <g>
       <use style="stroke:#000000;stroke-width:0.8;" x="431.623467" xlink:href="#m48a52255a5" y="630"/>
      </g>
     </g>
     <g id="text_3">
      <!-- 100 -->
      <g transform="translate(422.079717 644.598438)scale(0.1 -0.1)">
       <use xlink:href="#DejaVuSans-31"/>
       <use x="63.623047" xlink:href="#DejaVuSans-30"/>
       <use x="127.246094" xlink:href="#DejaVuSans-30"/>
      </g>
     </g>
    </g>
    <g id="xtick_4">
     <g id="line2d_4">
      <g>
       <use style="stroke:#000000;stroke-width:0.8;" x="548.654978" xlink:href="#m48a52255a5" y="630"/>
      </g>
     </g>
     <g id="text_4">
      <!-- 200 -->
      <g transform="translate(539.111228 644.598438)scale(0.1 -0.1)">
       <defs>
        <path d="M 1228 531 
L 3431 531 
L 3431 0 
L 469 0 
L 469 531 
Q 828 903 1448 1529 
Q 2069 2156 2228 2338 
Q 2531 2678 2651 2914 
Q 2772 3150 2772 3378 
Q 2772 3750 2511 3984 
Q 2250 4219 1831 4219 
Q 1534 4219 1204 4116 
Q 875 4013 500 3803 
L 500 4441 
Q 881 4594 1212 4672 
Q 1544 4750 1819 4750 
Q 2544 4750 2975 4387 
Q 3406 4025 3406 3419 
Q 3406 3131 3298 2873 
Q 3191 2616 2906 2266 
Q 2828 2175 2409 1742 
Q 1991 1309 1228 531 
z
" id="DejaVuSans-32" transform="scale(0.015625)"/>
       </defs>
       <use xlink:href="#DejaVuSans-32"/>
       <use x="63.623047" xlink:href="#DejaVuSans-30"/>
       <use x="127.246094" xlink:href="#DejaVuSans-30"/>
      </g>
     </g>
    </g>
   </g>
   <g id="matplotlib.axis_2">
    <g id="ytick_1">
     <g id="line2d_5">
      <defs>
       <path d="M 0 0 
L -3.5 0 
" id="m172a2a9de9" style="stroke:#000000;stroke-width:0.8;"/>
      </defs>
      <g>
       <use style="stroke:#000000;stroke-width:0.8;" x="90" xlink:href="#m172a2a9de9" y="525.215309"/>
      </g>
     </g>
     <g id="text_5">
      <!-- −100 -->
      <g transform="translate(55.532812 529.014528)scale(0.1 -0.1)">
       <use xlink:href="#DejaVuSans-2212"/>
       <use x="83.789062" xlink:href="#DejaVuSans-31"/>
       <use x="147.412109" xlink:href="#DejaVuSans-30"/>
       <use x="211.035156" xlink:href="#DejaVuSans-30"/>
      </g>
     </g>
    </g>
    <g id="ytick_2">
     <g id="line2d_6">
      <g>
       <use style="stroke:#000000;stroke-width:0.8;" x="90" xlink:href="#m172a2a9de9" y="411.203966"/>
      </g>
     </g>
     <g id="text_6">
      <!-- 0 -->
      <g transform="translate(76.6375 415.003185)scale(0.1 -0.1)">
       <use xlink:href="#DejaVuSans-30"/>
      </g>
     </g>
    </g>
    <g id="ytick_3">
     <g id="line2d_7">
      <g>
       <use style="stroke:#000000;stroke-width:0.8;" x="90" xlink:href="#m172a2a9de9" y="297.192623"/>
      </g>
     </g>
     <g id="text_7">
      <!-- 100 -->
      <g transform="translate(63.9125 300.991841)scale(0.1 -0.1)">
       <use xlink:href="#DejaVuSans-31"/>
       <use x="63.623047" xlink:href="#DejaVuSans-30"/>
       <use x="127.246094" xlink:href="#DejaVuSans-30"/>
      </g>
     </g>
    </g>
    <g id="ytick_4">
     <g id="line2d_8">
      <g>
       <use style="stroke:#000000;stroke-width:0.8;" x="90" xlink:href="#m172a2a9de9" y="183.18128"/>
      </g>
     </g>
     <g id="text_8">
      <!-- 200 -->
      <g transform="translate(63.9125 186.980498)scale(0.1 -0.1)">
       <use xlink:href="#DejaVuSans-32"/>
       <use x="63.623047" xlink:href="#DejaVuSans-30"/>
       <use x="127.246094" xlink:href="#DejaVuSans-30"/>
      </g>
     </g>
    </g>
   </g>
   <g id="line2d_9">
    <path clip-path="url(#p9891ea81eb)" d="M 472.97994 118.068821 
L 468.247037 121.633286 
L 463.494169 125.17306 
L 458.720895 128.687023 
L 453.926795 132.174055 
L 449.111467 135.633044 
L 444.27453 139.062902 
L 439.415627 142.462572 
L 434.534429 145.831043 
L 429.63064 149.167362 
L 424.704006 152.470647 
L 419.754326 155.740096 
L 414.781455 158.975003 
L 409.785319 162.174772 
L 404.765921 165.338928 
L 399.723352 168.467132 
L 394.657795 171.559196 
L 389.569537 174.615096 
L 384.458968 177.634987 
L 379.32659 180.619212 
L 374.173018 183.568316 
L 368.998979 186.48306 
L 363.805311 189.364422 
L 358.592966 192.213611 
L 353.363002 195.032071 
L 348.116582 197.821485 
L 342.854973 200.583776 
L 337.57954 203.321114 
L 332.291747 206.035912 
L 326.993156 208.730833 
L 321.685426 211.40879 
L 316.370322 214.072947 
L 311.049721 216.726735 
" style="fill:none;stroke:#808080;stroke-linecap:square;stroke-width:1.5;"/>
   </g>
   <g id="line2d_10">
    <path clip-path="url(#p9891ea81eb)" d="M 311.049721 216.726735 
L 311.049721 118.068821 
L 472.97994 118.068821 
L 472.97994 216.726735 
L 311.049721 216.726735 
" style="fill:none;stroke:#d3d3d3;stroke-linecap:square;stroke-width:0.5;"/>
   </g>
   <g id="line2d_11">
    <path clip-path="url(#p9891ea81eb)" d="M 311.049721 216.726735 
L 305.725621 219.373852 
L 300.400159 222.018284 
L 295.075636 224.664326 
L 289.754544 227.316608 
L 284.439605 229.980138 
L 279.133828 232.660349 
L 273.84057 235.363165 
L 268.563632 238.095091 
L 263.307368 240.863321 
L 258.076848 243.675885 
L 252.878063 246.541834 
L 247.718213 249.471491 
L 242.606103 252.476777 
L 237.552708 255.57166 
L 232.571992 258.772754 
L 227.682132 262.100164 
L 222.907404 265.578654 
L 218.281214 269.239298 
L 213.851197 273.121734 
L 209.688207 277.276885 
L 205.902834 281.76871 
L 202.675196 286.668367 
L 200.297651 292.019602 
L 199.179306 297.741578 
L 199.667652 303.524512 
L 201.741069 308.952836 
L 205.03221 313.787855 
L 209.133212 318.012871 
L 213.751957 321.709271 
L 218.707409 324.971745 
L 223.890168 327.880855 
" style="fill:none;stroke:#808080;stroke-linecap:square;stroke-width:1.5;"/>
   </g>
   <g id="line2d_12">
    <path clip-path="url(#p9891ea81eb)" d="M 199.179306 327.880855 
L 199.179306 216.726735 
L 311.049721 216.726735 
L 311.049721 327.880855 
L 199.179306 327.880855 
" style="fill:none;stroke:#d3d3d3;stroke-linecap:square;stroke-width:0.5;"/>
   </g>
   <g id="line2d_13">
    <path clip-path="url(#p9891ea81eb)" d="M 223.890168 327.880855 
L 229.069104 330.695496 
L 234.145211 333.682573 
L 239.105353 336.849161 
L 243.935812 340.200659 
L 248.622726 343.740342 
L 253.15264 347.468984 
L 257.513137 351.384611 
L 261.693484 355.482432 
L 265.685207 359.754982 
L 269.482538 364.19247 
L 273.082654 368.78328 
L 276.485704 373.514574 
L 279.694626 378.372904 
L 282.714802 383.344778 
L 285.553616 388.41712 
L 288.219972 393.57761 
L 290.723828 398.814906 
L 293.075773 404.118753 
L 295.286686 409.480008 
L 297.367456 414.890612 
L 299.328785 420.343513 
L 301.181047 425.832581 
L 302.934202 431.352497 
L 304.597754 436.898666 
L 306.180734 442.467109 
L 307.691711 448.054389 
" style="fill:none;stroke:#808080;stroke-linecap:square;stroke-width:1.5;"/>
   </g>
   <g id="line2d_14">
    <path clip-path="url(#p9891ea81eb)" d="M 223.890168 448.054389 
L 223.890168 327.880855 
L 307.691711 327.880855 
L 307.691711 448.054389 
L 223.890168 448.054389 
" style="fill:none;stroke:#d3d3d3;stroke-linecap:square;stroke-width:0.5;"/>
   </g>
   <g id="line2d_15">
    <path clip-path="url(#p9891ea81eb)" d="M 307.691711 448.054389 
L 309.138823 453.657526 
L 310.52981 459.273935 
L 311.872068 464.901364 
L 313.172698 470.537845 
L 314.438571 476.181649 
L 315.676389 481.831242 
L 316.892758 487.485249 
L 318.094266 493.142415 
L 319.287567 498.801564 
L 320.479482 504.461558 
L 321.677111 510.121242 
L 322.887973 515.779381 
L 324.120168 521.434581 
L 325.38259 527.085182 
L 326.685194 532.729114 
L 328.039348 538.363702 
L 329.45831 543.985386 
L 330.957882 549.589316 
L 332.557353 555.168756 
L 334.280869 560.714136 
L 336.159521 566.211538 
L 338.234614 571.640061 
L 340.562967 576.966959 
L 343.225657 582.137886 
L 346.341952 587.055495 
L 350.085963 591.529599 
" style="fill:none;stroke:#808080;stroke-linecap:square;stroke-width:1.5;"/>
   </g>
   <g id="line2d_16">
    <path clip-path="url(#p9891ea81eb)" d="M 307.691711 591.529599 
L 307.691711 448.054389 
L 350.085963 448.054389 
L 350.085963 591.529599 
L 307.691711 591.529599 
" style="fill:none;stroke:#d3d3d3;stroke-linecap:square;stroke-width:0.5;"/>
   </g>
   <g id="line2d_17">
    <path clip-path="url(#p9891ea81eb)" d="M 350.085963 591.529599 
" style="fill:none;stroke:#808080;stroke-linecap:square;stroke-width:1.5;"/>
   </g>
   <g id="line2d_18">
    <path clip-path="url(#p9891ea81eb)" d="M 350.085963 591.529599 
L 350.085963 591.529599 
L 350.085963 591.529599 
L 350.085963 591.529599 
L 350.085963 591.529599 
" style="fill:none;stroke:#d3d3d3;stroke-linecap:square;stroke-width:0.5;"/>
   </g>
   <g id="line2d_19">
    <path clip-path="url(#p9891ea81eb)" d="M 350.085963 591.529599 
L 354.418329 595.44186 
L 359.266386 598.729116 
L 364.706599 600.952628 
L 370.563191 601.524319 
L 376.288801 600.206501 
L 381.444298 597.430217 
L 385.984276 593.761958 
L 390.023756 589.564782 
L 393.679199 585.036834 
L 397.038055 580.288493 
L 400.162793 575.385088 
L 403.098337 570.367676 
L 405.877675 565.263414 
L 408.525599 560.091054 
L 411.061146 554.864006 
L 413.499228 549.592151 
L 415.851728 544.282952 
L 418.128258 538.942169 
L 420.336702 533.574329 
L 422.483599 528.183044 
L 424.57443 522.771242 
L 426.613831 517.341319 
L 428.605758 511.895262 
L 430.553606 506.434731 
L 432.460312 500.961125 
L 434.328429 495.475636 
L 436.160186 489.979278 
L 437.957539 484.472929 
L 439.722213 478.957346 
L 441.455728 473.433187 
L 443.159433 467.901029 
L 444.834524 462.361375 
" style="fill:none;stroke:#808080;stroke-linecap:square;stroke-width:1.5;"/>
   </g>
   <g id="line2d_20">
    <path clip-path="url(#p9891ea81eb)" d="M 350.085963 601.524319 
L 350.085963 462.361375 
L 444.834524 462.361375 
L 444.834524 601.524319 
L 350.085963 601.524319 
" style="fill:none;stroke:#d3d3d3;stroke-linecap:square;stroke-width:0.5;"/>
   </g>
   <g id="line2d_21">
    <path clip-path="url(#p9891ea81eb)" d="M 444.834524 462.361375 
L 446.482066 456.814671 
L 448.103004 451.261309 
L 449.698181 445.701639 
L 451.268345 440.135968 
L 452.814163 434.564575 
L 454.336223 428.987704 
L 455.835047 423.405578 
L 457.311093 417.818395 
L 458.764762 412.226334 
L 460.1964 406.629555 
L 461.606304 401.028204 
L 462.994724 395.422412 
L 464.361865 389.812298 
L 465.70789 384.19797 
L 467.032923 378.579526 
L 468.337046 372.957053 
L 469.620304 367.330634 
L 470.882706 361.70034 
L 472.124221 356.066237 
L 473.344782 350.428387 
L 474.544287 344.786842 
L 475.722592 339.141651 
L 476.879516 333.492859 
L 478.01484 327.840503 
L 479.1283 322.184619 
L 480.219591 316.525236 
L 481.288361 310.86238 
L 482.334208 305.196072 
L 483.356682 299.526331 
L 484.355272 293.853168 
L 485.32941 288.176592 
L 486.278458 282.496608 
" style="fill:none;stroke:#808080;stroke-linecap:square;stroke-width:1.5;"/>
   </g>
   <g id="line2d_22">
    <path clip-path="url(#p9891ea81eb)" d="M 444.834524 462.361375 
L 444.834524 282.496608 
L 486.278458 282.496608 
L 486.278458 462.361375 
L 444.834524 462.361375 
" style="fill:none;stroke:#d3d3d3;stroke-linecap:square;stroke-width:0.5;"/>
   </g>
   <g id="line2d_23">
    <path clip-path="url(#p9891ea81eb)" d="M 486.278458 282.496608 
L 487.201708 276.813215 
L 488.098371 271.126407 
L 488.967567 265.436172 
L 489.808317 259.742494 
L 490.619528 254.045349 
L 491.399979 248.344705 
L 492.148304 242.640524 
L 492.862966 236.932759 
L 493.542237 231.221352 
L 494.184156 225.506237 
L 494.786498 219.787336 
L 495.346715 214.064561 
L 495.861878 208.337814 
L 496.328591 202.60699 
L 496.742883 196.871978 
L 497.100073 191.132676 
L 497.394574 185.389001 
L 497.619642 179.640923 
L 497.767008 173.888513 
L 497.826367 168.132032 
L 497.784615 162.372099 
L 497.624678 156.60999 
L 497.323667 150.848213 
L 496.849783 145.09166 
L 496.156839 139.350039 
L 495.173801 133.643453 
L 493.782875 128.016654 
L 491.768114 122.581789 
L 488.687669 117.681684 
L 483.832053 114.573218 
L 478.042281 115.132985 
L 472.97994 118.068821 
" style="fill:none;stroke:#808080;stroke-linecap:square;stroke-width:1.5;"/>
   </g>
   <g id="line2d_24">
    <path clip-path="url(#p9891ea81eb)" d="M 472.97994 282.496608 
L 472.97994 114.573218 
L 497.826367 114.573218 
L 497.826367 282.496608 
L 472.97994 282.496608 
" style="fill:none;stroke:#d3d3d3;stroke-linecap:square;stroke-width:0.5;"/>
   </g>
   <g id="line2d_25">
    <path clip-path="url(#p9891ea81eb)" d="M 472.97994 118.068821 
" style="fill:none;stroke:#808080;stroke-linecap:square;stroke-width:1.5;"/>
   </g>
   <g id="line2d_26">
    <path clip-path="url(#p9891ea81eb)" d="M 472.97994 118.068821 
L 472.97994 118.068821 
L 472.97994 118.068821 
L 472.97994 118.068821 
L 472.97994 118.068821 
" style="fill:none;stroke:#d3d3d3;stroke-linecap:square;stroke-width:0.5;"/>
   </g>
   <g id="line2d_27">
    <path clip-path="url(#p9891ea81eb)" d="M 480.162153 127.070473 
L 480.162153 127.070473 
L 475.380226 130.671858 
L 470.576303 134.249654 
L 465.749924 137.80271 
L 460.900662 141.329863 
L 456.028128 144.829945 
L 451.131968 148.301796 
L 446.211872 151.74428 
L 441.267584 155.156287 
L 436.298903 158.536755 
L 431.305699 161.884674 
L 426.28792 165.199103 
L 421.245607 168.479182 
L 416.178899 171.724149 
L 411.088046 174.933348 
L 405.973419 178.106254 
L 400.835513 181.242481 
L 395.674958 184.341802 
L 390.492519 187.404163 
L 385.289096 190.429698 
L 380.065727 193.418744 
L 374.823585 196.371854 
L 369.56397 199.289804 
L 364.288307 202.173607 
L 358.99814 205.024513 
L 353.695124 207.84402 
L 348.381021 210.633872 
L 343.057696 213.396063 
L 337.727115 216.132832 
L 332.391343 218.846665 
L 327.052556 221.540293 
L 321.713038 224.21669 
L 316.375206 226.879073 
" style="fill:none;stroke:#000000;stroke-linecap:square;stroke-width:3;"/>
   </g>
   <g id="line2d_28">
    <path clip-path="url(#p9891ea81eb)" d="M 316.375206 226.879073 
L 316.375206 127.070473 
L 480.162153 127.070473 
L 480.162153 226.879073 
L 316.375206 226.879073 
" style="fill:none;stroke:#d3d3d3;stroke-linecap:square;stroke-width:0.5;"/>
   </g>
   <g id="line2d_29">
    <path clip-path="url(#p9891ea81eb)" d="M 316.375206 226.879073 
L 311.041623 229.530906 
L 305.715028 232.175901 
L 300.398374 234.818031 
L 295.094874 237.461543 
L 289.808064 240.110974 
L 284.541883 242.771177 
L 279.300778 245.447356 
L 274.089837 248.145105 
L 268.914965 250.870456 
L 263.783122 253.629941 
L 258.702629 256.430651 
L 253.683602 259.280313 
L 248.738533 262.187344 
L 243.883124 265.160891 
L 239.137469 268.210788 
L 234.527783 271.34735 
L 230.088979 274.580788 
L 225.868548 277.919801 
L 221.932439 281.368343 
L 218.37368 284.918333 
L 215.323175 288.533634 
L 212.954513 292.118576 
L 211.448148 295.481782 
L 210.862407 298.408654 
L 211.079535 300.996735 
L 212.118172 303.681423 
L 214.129036 306.615017 
L 217.059862 309.625072 
L 220.709488 312.541675 
L 224.879631 315.285135 
L 229.422338 317.833956 
L 229.422338 317.833956 
" style="fill:none;stroke:#000000;stroke-linecap:square;stroke-width:3;"/>
   </g>
   <g id="line2d_30">
    <path clip-path="url(#p9891ea81eb)" d="M 210.862407 317.833956 
L 210.862407 226.879073 
L 316.375206 226.879073 
L 316.375206 317.833956 
L 210.862407 317.833956 
" style="fill:none;stroke:#d3d3d3;stroke-linecap:square;stroke-width:0.5;"/>
   </g>
   <g id="line2d_31">
    <path clip-path="url(#p9891ea81eb)" d="M 358.485082 583.590158 
L 358.485082 583.590158 
L 361.842868 586.628775 
L 365.050422 588.817748 
L 367.735501 589.939953 
L 369.755944 590.150339 
L 371.910617 589.633236 
L 374.725776 588.094961 
L 377.895808 585.522076 
L 381.109869 582.177185 
L 384.235316 578.303132 
L 387.232448 574.06479 
L 390.097372 569.568324 
L 392.838392 564.882933 
L 395.467085 560.055045 
L 397.995058 555.1168 
L 400.432863 550.09112 
L 402.789729 544.994786 
L 405.073612 539.840377 
L 407.291331 534.637518 
L 409.448731 529.393706 
L 411.550835 524.114878 
L 413.601971 518.805797 
L 415.605886 513.470337 
L 417.56584 508.111682 
L 419.484674 502.732476 
L 421.364881 497.334933 
L 423.208651 491.920926 
L 425.017918 486.492045 
L 426.794392 481.049655 
L 428.539592 475.594933 
L 430.254866 470.128896 
L 431.941417 464.652435 
L 433.600317 459.166327 
" style="fill:none;stroke:#000000;stroke-linecap:square;stroke-width:3;"/>
   </g>
   <g id="line2d_32">
    <path clip-path="url(#p9891ea81eb)" d="M 358.485082 590.150339 
L 358.485082 459.166327 
L 433.600317 459.166327 
L 433.600317 590.150339 
L 358.485082 590.150339 
" style="fill:none;stroke:#d3d3d3;stroke-linecap:square;stroke-width:0.5;"/>
   </g>
   <g id="line2d_33">
    <path clip-path="url(#p9891ea81eb)" d="M 433.600317 459.166327 
L 435.232521 453.671258 
L 436.838882 448.167833 
L 438.420164 442.656589 
L 439.977044 437.138006 
L 441.510126 431.612511 
L 443.019945 426.080491 
L 444.506975 420.542291 
L 445.97163 414.998225 
L 447.414272 409.448579 
L 448.835215 403.893612 
L 450.234723 398.333562 
L 451.613018 392.768647 
L 452.970281 387.199069 
L 454.306651 381.625015 
L 455.622229 376.046658 
L 456.91708 370.464161 
L 458.19123 364.877676 
L 459.44467 359.287348 
L 460.677356 353.693314 
L 461.889206 348.095705 
L 463.080102 342.494647 
L 464.24989 336.890262 
L 465.398376 331.28267 
L 466.52533 325.671987 
L 467.630477 320.058331 
L 468.713501 314.441817 
L 469.774042 308.822561 
L 470.81169 303.200683 
L 471.825983 297.576305 
L 472.816404 291.949553 
L 473.782377 286.320559 
L 474.723258 280.689461 
L 475.638331 275.056408 
" style="fill:none;stroke:#000000;stroke-linecap:square;stroke-width:3;"/>
   </g>
   <g id="line2d_34">
    <path clip-path="url(#p9891ea81eb)" d="M 433.600317 459.166327 
L 433.600317 275.056408 
L 475.638331 275.056408 
L 475.638331 459.166327 
L 433.600317 459.166327 
" style="fill:none;stroke:#d3d3d3;stroke-linecap:square;stroke-width:0.5;"/>
   </g>
   <g id="line2d_35">
    <path clip-path="url(#p9891ea81eb)" d="M 475.638331 275.056408 
L 476.526802 269.421559 
L 477.387786 263.785088 
L 478.220301 258.147183 
L 479.023252 252.508054 
L 479.795418 246.867938 
L 480.535434 241.2271 
L 481.241771 235.585844 
L 481.912708 229.944522 
L 482.546303 224.303547 
L 483.140352 218.663408 
L 483.692344 213.024692 
L 484.1994 207.388116 
L 484.658196 201.754567 
L 485.064866 196.125161 
L 485.414879 190.501328 
L 485.702867 184.884934 
L 485.922406 179.27847 
L 486.065715 173.685335 
L 486.123238 168.110293 
L 486.083057 162.560216 
L 485.930063 157.045367 
L 485.64476 151.581693 
L 485.201582 146.195187 
L 484.566721 140.930789 
L 483.696442 135.872199 
L 482.542466 131.190935 
L 481.106003 127.282527 
L 479.826568 125.129304 
L 481.038303 125.644734 
L 482.336019 125.739065 
L 480.162153 127.070473 
L 480.162153 127.070473 
" style="fill:none;stroke:#000000;stroke-linecap:square;stroke-width:3;"/>
   </g>
   <g id="line2d_36">
    <path clip-path="url(#p9891ea81eb)" d="M 475.638331 275.056408 
L 475.638331 125.129304 
L 486.123238 125.129304 
L 486.123238 275.056408 
L 475.638331 275.056408 
" style="fill:none;stroke:#d3d3d3;stroke-linecap:square;stroke-width:0.5;"/>
   </g>
   <g id="line2d_37">
    <path clip-path="url(#p9891ea81eb)" d="M 229.422338 317.833956 
L 229.422338 317.833956 
L 234.942528 320.834143 
L 240.375545 324.031335 
L 245.705354 327.434009 
L 250.914398 331.048263 
L 255.984117 334.877125 
L 260.8957 338.919984 
L 265.631036 343.172242 
L 270.173759 347.625292 
L 274.510264 352.266854 
L 278.630522 357.08165 
L 282.528593 362.052317 
L 286.202761 367.160431 
L 289.655312 372.387479 
L 292.892028 377.715675 
L 295.921517 383.128552 
L 298.754476 388.611326 
L 301.402989 394.151045 
L 303.879914 399.736583 
L 306.198389 405.358527 
L 308.371456 411.009 
L 310.411799 416.681458 
L 312.331574 422.370492 
L 314.142317 428.071634 
L 315.854901 433.781186 
L 317.479533 439.496078 
L 319.025787 445.21374 
" style="fill:none;stroke:#000000;stroke-linecap:square;stroke-width:3;"/>
   </g>
   <g id="line2d_38">
    <path clip-path="url(#p9891ea81eb)" d="M 229.422338 445.21374 
L 229.422338 317.833956 
L 319.025787 317.833956 
L 319.025787 445.21374 
L 229.422338 445.21374 
" style="fill:none;stroke:#d3d3d3;stroke-linecap:square;stroke-width:0.5;"/>
   </g>
   <g id="line2d_39">
    <path clip-path="url(#p9891ea81eb)" d="M 319.025787 445.21374 
L 320.502646 450.931999 
L 321.918556 456.648991 
L 323.281497 462.363092 
L 324.599043 468.072848 
L 325.878441 473.776926 
L 327.12668 479.474061 
L 328.350569 485.163005 
L 329.556816 490.842474 
L 330.752114 496.511088 
L 331.943233 502.167302 
L 333.137121 507.809318 
L 334.341026 513.434968 
L 335.562625 519.041568 
L 336.810189 524.625711 
L 338.092779 530.18299 
L 339.420479 535.707596 
L 340.804692 541.191751 
L 342.258501 546.624861 
L 343.797094 551.992232 
L 345.438247 557.273059 
L 347.20275 562.43714 
L 349.114418 567.439307 
L 351.198576 572.209586 
L 353.475541 576.635319 
L 355.938324 580.529605 
L 358.485082 583.590158 
L 358.485082 583.590158 
" style="fill:none;stroke:#000000;stroke-linecap:square;stroke-width:3;"/>
   </g>
   <g id="line2d_40">
    <path clip-path="url(#p9891ea81eb)" d="M 319.025787 583.590158 
L 319.025787 445.21374 
L 358.485082 445.21374 
L 358.485082 583.590158 
L 319.025787 583.590158 
" style="fill:none;stroke:#d3d3d3;stroke-linecap:square;stroke-width:0.5;"/>
   </g>
   <g id="line2d_41">
    <path clip-path="url(#p9891ea81eb)" d="M 358.485082 583.590158 
" style="fill:none;stroke:#000000;stroke-linecap:square;stroke-width:3;"/>
   </g>
   <g id="line2d_42">
    <path clip-path="url(#p9891ea81eb)" d="M 358.485082 583.590158 
L 358.485082 583.590158 
L 358.485082 583.590158 
L 358.485082 583.590158 
L 358.485082 583.590158 
" style="fill:none;stroke:#d3d3d3;stroke-linecap:square;stroke-width:0.5;"/>
   </g>
   <g id="line2d_43">
    <path clip-path="url(#p9891ea81eb)" d="M 465.797728 109.067169 
L 465.797728 109.067169 
L 461.113847 112.594715 
L 456.412034 116.096465 
L 451.691866 119.571335 
L 446.952927 123.018246 
L 442.194806 126.436144 
L 437.417093 129.824008 
L 432.619383 133.180864 
L 427.801274 136.505798 
L 422.962376 139.797969 
L 418.102314 143.05662 
L 413.220731 146.281088 
L 408.317302 149.470824 
L 403.391739 152.625395 
L 398.443796 155.744507 
L 393.473285 158.828009 
L 388.480077 161.875911 
L 383.464115 164.888391 
L 378.425417 167.865812 
L 373.364085 170.808726 
L 368.280309 173.717889 
L 363.174372 176.594266 
L 358.046652 179.439039 
L 352.897625 182.253615 
L 347.727863 185.03963 
L 342.53804 187.79895 
L 337.328925 190.53368 
L 332.101384 193.246164 
L 326.85638 195.938993 
L 321.594968 198.615002 
L 316.318296 201.277286 
L 311.027607 203.929205 
L 305.724237 206.574397 
" style="fill:none;stroke:#000000;stroke-linecap:square;stroke-width:3;"/>
   </g>
   <g id="line2d_44">
    <path clip-path="url(#p9891ea81eb)" d="M 305.724237 206.574397 
L 305.724237 109.067169 
L 465.797728 109.067169 
L 465.797728 206.574397 
L 305.724237 206.574397 
" style="fill:none;stroke:#d3d3d3;stroke-linecap:square;stroke-width:0.5;"/>
   </g>
   <g id="line2d_45">
    <path clip-path="url(#p9891ea81eb)" d="M 305.724237 206.574397 
L 300.409619 209.216798 
L 295.085291 211.860667 
L 289.752899 214.51062 
L 284.414214 217.171674 
L 279.071146 219.849303 
L 273.725772 222.54952 
L 268.380362 225.278973 
L 263.037426 228.045077 
L 257.69977 230.856187 
L 252.370574 233.72183 
L 247.053497 236.653017 
L 241.752825 239.662668 
L 236.473673 242.76621 
L 231.222292 245.982429 
L 226.006516 249.334721 
L 220.836482 252.852978 
L 215.725828 256.576519 
L 210.693881 260.558796 
L 205.769955 264.875126 
L 201.002734 269.635437 
L 196.482492 275.003785 
L 192.395879 281.218158 
L 189.147153 288.557423 
L 187.496204 297.074501 
L 188.255769 306.052289 
L 191.363967 314.224248 
L 195.935384 320.960692 
L 201.206562 326.40067 
L 206.794425 330.876868 
L 212.535187 334.658356 
L 218.357997 337.927754 
L 218.357997 337.927754 
" style="fill:none;stroke:#000000;stroke-linecap:square;stroke-width:3;"/>
   </g>
   <g id="line2d_46">
    <path clip-path="url(#p9891ea81eb)" d="M 187.496204 337.927754 
L 187.496204 206.574397 
L 305.724237 206.574397 
L 305.724237 337.927754 
L 187.496204 337.927754 
" style="fill:none;stroke:#d3d3d3;stroke-linecap:square;stroke-width:0.5;"/>
   </g>
   <g id="line2d_47">
    <path clip-path="url(#p9891ea81eb)" d="M 341.686844 599.46904 
L 341.686844 599.46904 
L 346.99379 604.254946 
L 353.482351 608.640485 
L 361.677698 611.965304 
L 371.370438 612.898299 
L 380.666984 610.779767 
L 388.162819 606.765473 
L 394.072744 602.001841 
L 398.937643 596.952379 
L 403.123082 591.770536 
L 406.843662 586.512196 
L 410.228213 581.201853 
L 413.358281 575.852418 
L 416.288266 570.471784 
L 419.05614 565.065308 
L 421.689429 559.636892 
L 424.208727 554.189516 
L 426.629844 548.725528 
L 428.965186 543.246821 
L 431.224674 537.754951 
L 433.416363 532.25121 
L 435.546889 526.736687 
L 437.621776 521.212301 
L 439.645675 515.678842 
L 441.622538 510.136986 
L 443.555744 504.587318 
L 445.448207 499.030345 
L 447.302454 493.466512 
L 449.120687 487.896203 
L 450.904833 482.319759 
L 452.656589 476.737478 
L 454.377448 471.149622 
L 456.068731 465.556423 
" style="fill:none;stroke:#000000;stroke-linecap:square;stroke-width:3;"/>
   </g>
   <g id="line2d_48">
    <path clip-path="url(#p9891ea81eb)" d="M 341.686844 612.898299 
L 341.686844 465.556423 
L 456.068731 465.556423 
L 456.068731 612.898299 
L 341.686844 612.898299 
" style="fill:none;stroke:#d3d3d3;stroke-linecap:square;stroke-width:0.5;"/>
   </g>
   <g id="line2d_49">
    <path clip-path="url(#p9891ea81eb)" d="M 456.068731 465.556423 
L 457.731611 459.958084 
L 459.367126 454.354786 
L 460.976198 448.746688 
L 462.559647 443.133931 
L 464.1182 437.516638 
L 465.652501 431.894918 
L 467.163119 426.268866 
L 468.650557 420.638566 
L 470.115252 415.004089 
L 471.557585 409.365498 
L 472.977885 403.722846 
L 474.37643 398.076177 
L 475.753449 392.425527 
L 477.10913 386.770925 
L 478.443617 381.112393 
L 479.757012 375.449946 
L 481.049379 369.783591 
L 482.320741 364.113331 
L 483.571085 358.439161 
L 484.800359 352.761069 
L 486.008472 347.079037 
L 487.195294 341.39304 
L 488.360657 335.703048 
L 489.50435 330.009019 
L 490.626124 324.310907 
L 491.725681 318.608655 
L 492.802679 312.902199 
L 493.856727 307.191462 
L 494.887381 301.476356 
L 495.89414 295.756782 
L 496.876442 290.032626 
L 497.833658 284.303755 
L 498.765086 278.570022 
" style="fill:none;stroke:#000000;stroke-linecap:square;stroke-width:3;"/>
   </g>
   <g id="line2d_50">
    <path clip-path="url(#p9891ea81eb)" d="M 456.068731 465.556423 
L 456.068731 278.570022 
L 498.765086 278.570022 
L 498.765086 465.556423 
L 456.068731 465.556423 
" style="fill:none;stroke:#d3d3d3;stroke-linecap:square;stroke-width:0.5;"/>
   </g>
   <g id="line2d_51">
    <path clip-path="url(#p9891ea81eb)" d="M 498.765086 278.570022 
L 499.66994 272.831254 
L 500.547348 267.087257 
L 501.396332 261.337806 
L 502.215803 255.582643 
L 503.00454 249.821472 
L 503.761173 244.053948 
L 504.484162 238.279674 
L 505.171765 232.498182 
L 505.82201 226.708926 
L 506.432644 220.911264 
L 507.001087 215.10443 
L 507.524357 209.287512 
L 507.998985 203.459412 
L 508.420899 197.618795 
L 508.785266 191.764023 
L 509.086281 185.893068 
L 509.316877 180.003376 
L 509.4683 174.09169 
L 509.529497 168.153771 
L 509.486173 162.183982 
L 509.319292 156.174612 
L 509.002574 150.114732 
L 508.497985 143.988133 
L 507.746957 137.769289 
L 506.65116 131.414706 
L 505.023283 124.842372 
L 502.430224 117.881051 
L 497.548771 110.234063 
L 486.625803 103.501701 
L 473.748543 104.526904 
L 465.797728 109.067169 
L 465.797728 109.067169 
" style="fill:none;stroke:#000000;stroke-linecap:square;stroke-width:3;"/>
   </g>
   <g id="line2d_52">
    <path clip-path="url(#p9891ea81eb)" d="M 465.797728 278.570022 
L 465.797728 103.501701 
L 509.529497 103.501701 
L 509.529497 278.570022 
L 465.797728 278.570022 
" style="fill:none;stroke:#d3d3d3;stroke-linecap:square;stroke-width:0.5;"/>
   </g>
   <g id="line2d_53">
    <path clip-path="url(#p9891ea81eb)" d="M 218.357997 337.927754 
L 218.357997 337.927754 
L 223.19568 340.556848 
L 227.914876 343.333812 
L 232.505352 346.264314 
L 236.957227 349.353055 
L 241.261335 352.603558 
L 245.40958 356.017984 
L 249.395238 359.596979 
L 253.213208 363.339571 
L 256.860149 367.24311 
L 260.334553 371.303291 
L 263.636714 375.514243 
L 266.768646 379.868716 
L 269.73394 384.358329 
L 272.537575 388.973881 
L 275.185715 393.705688 
L 277.685469 398.543894 
L 280.044667 403.478768 
L 282.271632 408.500923 
L 284.374983 413.601489 
L 286.363456 418.772224 
L 288.245772 424.005569 
L 290.03052 429.294669 
L 291.726087 434.633361 
L 293.340607 440.016145 
L 294.881934 445.43814 
L 296.357635 450.895038 
" style="fill:none;stroke:#000000;stroke-linecap:square;stroke-width:3;"/>
   </g>
   <g id="line2d_54">
    <path clip-path="url(#p9891ea81eb)" d="M 218.357997 450.895038 
L 218.357997 337.927754 
L 296.357635 337.927754 
L 296.357635 450.895038 
L 218.357997 450.895038 
" style="fill:none;stroke:#d3d3d3;stroke-linecap:square;stroke-width:0.5;"/>
   </g>
   <g id="line2d_55">
    <path clip-path="url(#p9891ea81eb)" d="M 296.357635 450.895038 
L 297.775 456.383053 
L 299.141065 461.898878 
L 300.46264 467.439635 
L 301.746354 473.002842 
L 302.998701 478.586372 
L 304.226098 484.188423 
L 305.434947 489.807493 
L 306.631716 495.442356 
L 307.82302 501.092041 
L 309.015732 506.755814 
L 310.217102 512.433166 
L 311.43492 518.123794 
L 312.677711 523.827595 
L 313.954991 529.544653 
L 315.277609 535.275239 
L 316.658218 541.019808 
L 318.111927 546.77902 
L 319.657263 552.553772 
L 321.317612 558.345279 
L 323.123491 564.155213 
L 325.116292 569.985937 
L 327.354811 575.840815 
L 329.927358 581.724333 
L 332.975774 587.640453 
L 336.74558 593.581384 
L 341.686844 599.46904 
L 341.686844 599.46904 
" style="fill:none;stroke:#000000;stroke-linecap:square;stroke-width:3;"/>
   </g>
   <g id="line2d_56">
    <path clip-path="url(#p9891ea81eb)" d="M 296.357635 599.46904 
L 296.357635 450.895038 
L 341.686844 450.895038 
L 341.686844 599.46904 
L 296.357635 599.46904 
" style="fill:none;stroke:#d3d3d3;stroke-linecap:square;stroke-width:0.5;"/>
   </g>
   <g id="line2d_57">
    <path clip-path="url(#p9891ea81eb)" d="M 341.686844 599.46904 
" style="fill:none;stroke:#000000;stroke-linecap:square;stroke-width:3;"/>
   </g>
   <g id="line2d_58">
    <path clip-path="url(#p9891ea81eb)" d="M 341.686844 599.46904 
L 341.686844 599.46904 
L 341.686844 599.46904 
L 341.686844 599.46904 
L 341.686844 599.46904 
" style="fill:none;stroke:#d3d3d3;stroke-linecap:square;stroke-width:0.5;"/>
   </g>
   <g id="line2d_59">
    <path clip-path="url(#p9891ea81eb)" d="M 311.049721 199.625033 
L 313.29457 199.765438 
L 315.502558 200.184347 
L 317.637431 200.874881 
L 319.664134 201.825703 
L 321.549388 203.021198 
L 323.262238 204.441739 
L 324.774559 206.063998 
L 326.061519 207.86134 
L 327.101985 209.804251 
L 327.878873 211.860829 
L 328.379428 213.997305 
L 328.595429 216.178598 
L 328.52333 218.368892 
L 328.164314 220.532222 
L 327.524278 222.633065 
L 326.61373 224.636927 
L 325.447621 226.510903 
L 324.045099 228.224224 
L 322.429194 229.748756 
L 320.626437 231.059468 
L 318.666432 232.134836 
L 316.58136 232.957203 
L 314.405459 233.513067 
L 312.174456 233.793299 
L 309.924986 233.793299 
L 307.693984 233.513067 
L 305.518083 232.957203 
L 303.433011 232.134836 
L 301.473005 231.059468 
L 299.670249 229.748756 
L 298.054343 228.224224 
L 296.651821 226.510903 
L 295.485713 224.636927 
L 294.575165 222.633065 
L 293.935128 220.532222 
L 293.576113 218.368892 
L 293.504014 216.178598 
L 293.720015 213.997305 
L 294.220569 211.860829 
L 294.997458 209.804251 
L 296.037924 207.86134 
L 297.324883 206.063998 
L 298.837204 204.441739 
L 300.550054 203.021198 
L 302.435309 201.825703 
L 304.462012 200.874881 
L 306.596884 200.184347 
L 308.804873 199.765438 
L 311.049721 199.625033 
" style="fill:none;stroke:#808080;stroke-linecap:square;stroke-width:1.5;"/>
   </g>
   <g id="line2d_60">
    <path clip-path="url(#p9891ea81eb)" d="M 223.890168 310.779153 
L 226.135016 310.919558 
L 228.343005 311.338467 
L 230.477878 312.029001 
L 232.50458 312.979823 
L 234.389835 314.175318 
L 236.102685 315.595859 
L 237.615006 317.218118 
L 238.901965 319.01546 
L 239.942432 320.958371 
L 240.71932 323.014949 
L 241.219874 325.151425 
L 241.435875 327.332718 
L 241.363776 329.523012 
L 241.004761 331.686342 
L 240.364725 333.787185 
L 239.454176 335.791047 
L 238.288068 337.665023 
L 236.885546 339.378344 
L 235.26964 340.902876 
L 233.466884 342.213588 
L 231.506878 343.288956 
L 229.421807 344.111323 
L 227.245905 344.667187 
L 225.014903 344.947419 
L 222.765433 344.947419 
L 220.53443 344.667187 
L 218.358529 344.111323 
L 216.273457 343.288956 
L 214.313452 342.213588 
L 212.510696 340.902876 
L 210.89479 339.378344 
L 209.492268 337.665023 
L 208.326159 335.791047 
L 207.415611 333.787185 
L 206.775575 331.686342 
L 206.41656 329.523012 
L 206.344461 327.332718 
L 206.560461 325.151425 
L 207.061016 323.014949 
L 207.837904 320.958371 
L 208.87837 319.01546 
L 210.16533 317.218118 
L 211.677651 315.595859 
L 213.390501 314.175318 
L 215.275755 312.979823 
L 217.302458 312.029001 
L 219.437331 311.338467 
L 221.645319 310.919558 
L 223.890168 310.779153 
" style="fill:none;stroke:#808080;stroke-linecap:square;stroke-width:1.5;"/>
   </g>
   <g id="line2d_61">
    <path clip-path="url(#p9891ea81eb)" d="M 307.691711 430.952687 
L 309.93656 431.093092 
L 312.144548 431.512001 
L 314.279421 432.202535 
L 316.306124 433.153356 
L 318.191378 434.348852 
L 319.904228 435.769393 
L 321.416549 437.391652 
L 322.703509 439.188994 
L 323.743975 441.131905 
L 324.520863 443.188483 
L 325.021418 445.324959 
L 325.237419 447.506252 
L 325.165319 449.696546 
L 324.806304 451.859875 
L 324.166268 453.960719 
L 323.25572 455.96458 
L 322.089611 457.838557 
L 320.687089 459.551878 
L 319.071184 461.07641 
L 317.268427 462.387121 
L 315.308422 463.462489 
L 313.22335 464.284857 
L 311.047449 464.84072 
L 308.816446 465.120953 
L 306.566976 465.120953 
L 304.335974 464.84072 
L 302.160073 464.284857 
L 300.075001 463.462489 
L 298.114995 462.387121 
L 296.312239 461.07641 
L 294.696333 459.551878 
L 293.293811 457.838557 
L 292.127703 455.96458 
L 291.217155 453.960719 
L 290.577118 451.859875 
L 290.218103 449.696546 
L 290.146004 447.506252 
L 290.362005 445.324959 
L 290.862559 443.188483 
L 291.639448 441.131905 
L 292.679914 439.188994 
L 293.966873 437.391652 
L 295.479194 435.769393 
L 297.192044 434.348852 
L 299.077299 433.153356 
L 301.104002 432.202535 
L 303.238874 431.512001 
L 305.446863 431.093092 
L 307.691711 430.952687 
" style="fill:none;stroke:#808080;stroke-linecap:square;stroke-width:1.5;"/>
   </g>
   <g id="line2d_62">
    <path clip-path="url(#p9891ea81eb)" d="M 350.085963 574.427897 
L 352.330811 574.568302 
L 354.5388 574.987211 
L 356.673673 575.677745 
L 358.700375 576.628566 
L 360.58563 577.824062 
L 362.29848 579.244603 
L 363.810801 580.866862 
L 365.09776 582.664204 
L 366.138227 584.607115 
L 366.915115 586.663693 
L 367.415669 588.800169 
L 367.63167 590.981462 
L 367.559571 593.171756 
L 367.200556 595.335085 
L 366.56052 597.435929 
L 365.649971 599.439791 
L 364.483863 601.313767 
L 363.081341 603.027088 
L 361.465435 604.55162 
L 359.662679 605.862331 
L 357.702673 606.937699 
L 355.617601 607.760067 
L 353.4417 608.315931 
L 351.210698 608.596163 
L 348.961228 608.596163 
L 346.730225 608.315931 
L 344.554324 607.760067 
L 342.469252 606.937699 
L 340.509247 605.862331 
L 338.706491 604.55162 
L 337.090585 603.027088 
L 335.688063 601.313767 
L 334.521954 599.439791 
L 333.611406 597.435929 
L 332.97137 595.335085 
L 332.612355 593.171756 
L 332.540256 590.981462 
L 332.756256 588.800169 
L 333.256811 586.663693 
L 334.033699 584.607115 
L 335.074165 582.664204 
L 336.361125 580.866862 
L 337.873446 579.244603 
L 339.586296 577.824062 
L 341.47155 576.628566 
L 343.498253 575.677745 
L 345.633126 574.987211 
L 347.841114 574.568302 
L 350.085963 574.427897 
" style="fill:none;stroke:#808080;stroke-linecap:square;stroke-width:1.5;"/>
   </g>
   <g id="line2d_63">
    <path clip-path="url(#p9891ea81eb)" d="M 350.085963 574.427897 
L 352.330811 574.568302 
L 354.5388 574.987211 
L 356.673673 575.677745 
L 358.700375 576.628566 
L 360.58563 577.824062 
L 362.29848 579.244603 
L 363.810801 580.866862 
L 365.09776 582.664204 
L 366.138227 584.607115 
L 366.915115 586.663693 
L 367.415669 588.800169 
L 367.63167 590.981462 
L 367.559571 593.171756 
L 367.200556 595.335085 
L 366.56052 597.435929 
L 365.649971 599.439791 
L 364.483863 601.313767 
L 363.081341 603.027088 
L 361.465435 604.55162 
L 359.662679 605.862331 
L 357.702673 606.937699 
L 355.617601 607.760067 
L 353.4417 608.315931 
L 351.210698 608.596163 
L 348.961228 608.596163 
L 346.730225 608.315931 
L 344.554324 607.760067 
L 342.469252 606.937699 
L 340.509247 605.862331 
L 338.706491 604.55162 
L 337.090585 603.027088 
L 335.688063 601.313767 
L 334.521954 599.439791 
L 333.611406 597.435929 
L 332.97137 595.335085 
L 332.612355 593.171756 
L 332.540256 590.981462 
L 332.756256 588.800169 
L 333.256811 586.663693 
L 334.033699 584.607115 
L 335.074165 582.664204 
L 336.361125 580.866862 
L 337.873446 579.244603 
L 339.586296 577.824062 
L 341.47155 576.628566 
L 343.498253 575.677745 
L 345.633126 574.987211 
L 347.841114 574.568302 
L 350.085963 574.427897 
" style="fill:none;stroke:#808080;stroke-linecap:square;stroke-width:1.5;"/>
   </g>
   <g id="line2d_64">
    <path clip-path="url(#p9891ea81eb)" d="M 444.834524 445.259673 
L 447.079373 445.400078 
L 449.287361 445.818987 
L 451.422234 446.509521 
L 453.448937 447.460343 
L 455.334191 448.655838 
L 457.047041 450.076379 
L 458.559362 451.698639 
L 459.846322 453.49598 
L 460.886788 455.438891 
L 461.663676 457.495469 
L 462.16423 459.631945 
L 462.380231 461.813238 
L 462.308132 464.003532 
L 461.949117 466.166862 
L 461.309081 468.267705 
L 460.398533 470.271567 
L 459.232424 472.145543 
L 457.829902 473.858864 
L 456.213996 475.383396 
L 454.41124 476.694108 
L 452.451235 477.769476 
L 450.366163 478.591843 
L 448.190262 479.147707 
L 445.959259 479.427939 
L 443.709789 479.427939 
L 441.478787 479.147707 
L 439.302885 478.591843 
L 437.217814 477.769476 
L 435.257808 476.694108 
L 433.455052 475.383396 
L 431.839146 473.858864 
L 430.436624 472.145543 
L 429.270516 470.271567 
L 428.359967 468.267705 
L 427.719931 466.166862 
L 427.360916 464.003532 
L 427.288817 461.813238 
L 427.504818 459.631945 
L 428.005372 457.495469 
L 428.78226 455.438891 
L 429.822727 453.49598 
L 431.109686 451.698639 
L 432.622007 450.076379 
L 434.334857 448.655838 
L 436.220112 447.460343 
L 438.246814 446.509521 
L 440.381687 445.818987 
L 442.589675 445.400078 
L 444.834524 445.259673 
" style="fill:none;stroke:#808080;stroke-linecap:square;stroke-width:1.5;"/>
   </g>
   <g id="line2d_65">
    <path clip-path="url(#p9891ea81eb)" d="M 486.278458 265.394907 
L 488.523307 265.535311 
L 490.731295 265.95422 
L 492.866168 266.644754 
L 494.89287 267.595576 
L 496.778125 268.791071 
L 498.490975 270.211612 
L 500.003296 271.833872 
L 501.290255 273.631213 
L 502.330722 275.574124 
L 503.10761 277.630702 
L 503.608164 279.767178 
L 503.824165 281.948472 
L 503.752066 284.138765 
L 503.393051 286.302095 
L 502.753015 288.402938 
L 501.842466 290.4068 
L 500.676358 292.280776 
L 499.273836 293.994097 
L 497.65793 295.518629 
L 495.855174 296.829341 
L 493.895168 297.904709 
L 491.810097 298.727076 
L 489.634195 299.28294 
L 487.403193 299.563172 
L 485.153723 299.563172 
L 482.92272 299.28294 
L 480.746819 298.727076 
L 478.661747 297.904709 
L 476.701742 296.829341 
L 474.898986 295.518629 
L 473.28308 293.994097 
L 471.880558 292.280776 
L 470.714449 290.4068 
L 469.803901 288.402938 
L 469.163865 286.302095 
L 468.80485 284.138765 
L 468.732751 281.948472 
L 468.948752 279.767178 
L 469.449306 277.630702 
L 470.226194 275.574124 
L 471.26666 273.631213 
L 472.55362 271.833872 
L 474.065941 270.211612 
L 475.778791 268.791071 
L 477.664045 267.595576 
L 479.690748 266.644754 
L 481.825621 265.95422 
L 484.033609 265.535311 
L 486.278458 265.394907 
" style="fill:none;stroke:#808080;stroke-linecap:square;stroke-width:1.5;"/>
   </g>
   <g id="line2d_66">
    <path clip-path="url(#p9891ea81eb)" d="M 472.97994 100.967119 
L 475.224789 101.107524 
L 477.432777 101.526433 
L 479.56765 102.216967 
L 481.594353 103.167788 
L 483.479607 104.363284 
L 485.192457 105.783825 
L 486.704778 107.406084 
L 487.991738 109.203426 
L 489.032204 111.146337 
L 489.809092 113.202915 
L 490.309647 115.339391 
L 490.525648 117.520684 
L 490.453549 119.710978 
L 490.094533 121.874307 
L 489.454497 123.975151 
L 488.543949 125.979012 
L 487.37784 127.852989 
L 485.975318 129.56631 
L 484.359413 131.090842 
L 482.556656 132.401553 
L 480.596651 133.476921 
L 478.511579 134.299289 
L 476.335678 134.855152 
L 474.104675 135.135385 
L 471.855205 135.135385 
L 469.624203 134.855152 
L 467.448302 134.299289 
L 465.36323 133.476921 
L 463.403224 132.401553 
L 461.600468 131.090842 
L 459.984562 129.56631 
L 458.58204 127.852989 
L 457.415932 125.979012 
L 456.505384 123.975151 
L 455.865347 121.874307 
L 455.506332 119.710978 
L 455.434233 117.520684 
L 455.650234 115.339391 
L 456.150788 113.202915 
L 456.927677 111.146337 
L 457.968143 109.203426 
L 459.255102 107.406084 
L 460.767423 105.783825 
L 462.480273 104.363284 
L 464.365528 103.167788 
L 466.392231 102.216967 
L 468.527103 101.526433 
L 470.735092 101.107524 
L 472.97994 100.967119 
" style="fill:none;stroke:#808080;stroke-linecap:square;stroke-width:1.5;"/>
   </g>
   <g id="line2d_67">
    <path clip-path="url(#p9891ea81eb)" d="M 472.97994 100.967119 
L 475.224789 101.107524 
L 477.432777 101.526433 
L 479.56765 102.216967 
L 481.594353 103.167788 
L 483.479607 104.363284 
L 485.192457 105.783825 
L 486.704778 107.406084 
L 487.991738 109.203426 
L 489.032204 111.146337 
L 489.809092 113.202915 
L 490.309647 115.339391 
L 490.525648 117.520684 
L 490.453549 119.710978 
L 490.094533 121.874307 
L 489.454497 123.975151 
L 488.543949 125.979012 
L 487.37784 127.852989 
L 485.975318 129.56631 
L 484.359413 131.090842 
L 482.556656 132.401553 
L 480.596651 133.476921 
L 478.511579 134.299289 
L 476.335678 134.855152 
L 474.104675 135.135385 
L 471.855205 135.135385 
L 469.624203 134.855152 
L 467.448302 134.299289 
L 465.36323 133.476921 
L 463.403224 132.401553 
L 461.600468 131.090842 
L 459.984562 129.56631 
L 458.58204 127.852989 
L 457.415932 125.979012 
L 456.505384 123.975151 
L 455.865347 121.874307 
L 455.506332 119.710978 
L 455.434233 117.520684 
L 455.650234 115.339391 
L 456.150788 113.202915 
L 456.927677 111.146337 
L 457.968143 109.203426 
L 459.255102 107.406084 
L 460.767423 105.783825 
L 462.480273 104.363284 
L 464.365528 103.167788 
L 466.392231 102.216967 
L 468.527103 101.526433 
L 470.735092 101.107524 
L 472.97994 100.967119 
" style="fill:none;stroke:#808080;stroke-linecap:square;stroke-width:1.5;"/>
   </g>
   <g id="line2d_68"/>
   <g id="line2d_69"/>
   <g id="line2d_70"/>
   <g id="line2d_71"/>
   <g id="line2d_72"/>
   <g id="line2d_73"/>
   <g id="line2d_74"/>
   <g id="line2d_75"/>
   <g id="line2d_76"/>
   <g id="line2d_77"/>
   <g id="line2d_78"/>
   <g id="line2d_79"/>
   <g id="line2d_80"/>
   <g id="line2d_81"/>
   <g id="line2d_82"/>
   <g id="line2d_83"/>
   <g id="line2d_84"/>
   <g id="line2d_85"/>
   <g id="line2d_86"/>
   <g id="line2d_87"/>
   <g id="line2d_88"/>
   <g id="line2d_89"/>
   <g id="line2d_90"/>
   <g id="line2d_91"/>
   <g id="line2d_92"/>
   <g id="line2d_93"/>
   <g id="line2d_94"/>
   <g id="line2d_95"/>
   <g id="line2d_96"/>
   <g id="line2d_97"/>
   <g id="line2d_98"/>
   <g id="line2d_99"/>
   <g id="line2d_100"/>
   <g id="line2d_101"/>
   <g id="line2d_102"/>
   <g id="line2d_103"/>
   <g id="line2d_104"/>
   <g id="line2d_105"/>
   <g id="line2d_106"/>
   <g id="line2d_107"/>
   <g id="line2d_108"/>
   <g id="line2d_109"/>
   <g id="line2d_110"/>
   <g id="line2d_111"/>
   <g id="line2d_112"/>
   <g id="line2d_113"/>
   <g id="line2d_114"/>
   <g id="line2d_115"/>
   <g id="line2d_116"/>
   <g id="line2d_117"/>
   <g id="line2d_118"/>
   <g id="patch_3">
    <path d="M 90 630 
L 90 86.4 
" style="fill:none;stroke:#000000;stroke-linecap:square;stroke-linejoin:miter;stroke-width:0.8;"/>
   </g>
   <g id="patch_4">
    <path d="M 648 630 
L 648 86.4 
" style="fill:none;stroke:#000000;stroke-linecap:square;stroke-linejoin:miter;stroke-width:0.8;"/>
   </g>
   <g id="patch_5">
    <path d="M 90 630 
L 648 630 
" style="fill:none;stroke:#000000;stroke-linecap:square;stroke-linejoin:miter;stroke-width:0.8;"/>
   </g>
   <g id="patch_6">
    <path d="M 90 86.4 
L 648 86.4 
" style="fill:none;stroke:#000000;stroke-linecap:square;stroke-linejoin:miter;stroke-width:0.8;"/>
   </g>
   <g id="text_9">
    <!-- 0 -->
    <g transform="translate(-36.502578 525.215309)scale(0.1 -0.1)">
     <use xlink:href="#DejaVuSans-30"/>
    </g>
   </g>
   <g id="text_10">
    <!-- 0 -->
    <g transform="translate(-36.502578 508.113608)scale(0.1 -0.1)">
     <use xlink:href="#DejaVuSans-30"/>
    </g>
   </g>
   <g id="text_11">
    <!-- 0 -->
    <g transform="translate(-36.502578 491.011906)scale(0.1 -0.1)">
     <use xlink:href="#DejaVuSans-30"/>
    </g>
   </g>
  </g>
 </g>
 <defs>
  <clipPath id="p9891ea81eb">
   <rect height="543.6" width="558" x="90" y="86.4"/>
  </clipPath>
 </defs>
</svg>
