<?xml version="1.0" encoding="utf-8" standalone="no"?>
<!DOCTYPE svg PUBLIC "-//W3C//DTD SVG 1.1//EN"
  "http://www.w3.org/Graphics/SVG/1.1/DTD/svg11.dtd">
<svg height="720pt" version="1.1" viewBox="0 0 720 720" width="720pt" xmlns="http://www.w3.org/2000/svg" xmlns:xlink="http://www.w3.org/1999/xlink">
 <metadata>
  <rdf:RDF xmlns:cc="http://creativecommons.org/ns#" xmlns:dc="http://purl.org/dc/elements/1.1/" xmlns:rdf="http://www.w3.org/1999/02/22-rdf-syntax-ns#">
   <cc:Work>
    <dc:type rdf:resource="http://purl.org/dc/dcmitype/StillImage"/>
    <dc:date>2022-01-11T13:26:00.570770</dc:date>
    <dc:format>image/svg+xml</dc:format>
    <dc:creator>
     <cc:Agent>
      <dc:title>Matplotlib v3.4.3, https://matplotlib.org/</dc:title>
     </cc:Agent>
    </dc:creator>
   </cc:Work>
  </rdf:RDF>
 </metadata>
 <defs>
  <style type="text/css">*{stroke-linecap:butt;stroke-linejoin:round;}</style>
 </defs>
 <g id="figure_1">
  <g id="patch_1">
   <path d="M 0 720 
L 720 720 
L 720 0 
L 0 0 
z
" style="fill:none;"/>
  </g>
  <g id="axes_1">
   <g id="patch_2">
    <path d="M 90 630 
L 648 630 
L 648 86.4 
L 90 86.4 
z
" style="fill:#ffffff;"/>
   </g>
   <g id="PathCollection_1">
    <defs>
     <path d="M 0.972304 -8.870829 
Q -1.277159 -8.870829 -2.413438 -6.653699 
Q -3.545098 -4.441189 -3.545098 0.006929 
Q -3.545098 4.436569 -2.413438 6.653699 
Q -1.277159 8.870829 0.972304 8.870829 
Q 3.240243 8.870829 4.371903 6.653699 
Q 5.508182 4.436569 5.508182 0.006929 
Q 5.508182 -4.441189 4.371903 -6.653699 
Q 3.240243 -8.870829 0.972304 -8.870829 
z
M 0.972304 -11.18034 
Q 4.598235 -11.18034 6.51051 -8.311928 
Q 8.422784 -5.448135 8.422784 0.006929 
Q 8.422784 5.448135 6.51051 8.316547 
Q 4.598235 11.18034 0.972304 11.18034 
Q -2.649008 11.18034 -4.561283 8.316547 
Q -6.473558 5.448135 -6.473558 0.006929 
Q -6.473558 -5.448135 -4.561283 -8.311928 
Q -2.649008 -11.18034 0.972304 -11.18034 
z
" id="m1d31b6cf67" style="stroke:#808080;"/>
    </defs>
    <g clip-path="url(#pea8e9a1297)">
     <use style="fill:#808080;stroke:#808080;" x="222.279198" xlink:href="#m1d31b6cf67" y="400.888152"/>
    </g>
   </g>
   <g id="PathCollection_2">
    <defs>
     <path d="M -4.535873 8.63565 
L 0.404946 8.63565 
L 0.404946 -8.424791 
L -4.971969 -7.346533 
L -4.971969 -10.102082 
L 0.376192 -11.18034 
L 3.400108 -11.18034 
L 3.400108 8.63565 
L 8.340927 8.63565 
L 8.340927 11.18034 
L -4.535873 11.18034 
L -4.535873 8.63565 
z
" id="mb730ba6661" style="stroke:#808080;"/>
    </defs>
    <g clip-path="url(#pea8e9a1297)">
     <use style="fill:#808080;stroke:#808080;" x="214.856628" xlink:href="#mb730ba6661" y="476.533845"/>
    </g>
   </g>
   <g id="PathCollection_3">
    <defs>
     <path d="M -2.294912 8.680651 
L 8.075736 8.680651 
L 8.075736 11.18034 
L -5.867913 11.18034 
L -5.867913 8.680651 
Q -4.177916 6.929457 -1.259259 3.982555 
Q 1.664105 1.030945 2.4126 0.174178 
Q 3.838976 -1.426376 4.403877 -2.537349 
Q 4.973486 -3.648321 4.973486 -4.721634 
Q 4.973486 -6.472828 3.744825 -7.574386 
Q 2.516165 -8.680651 0.543718 -8.680651 
Q -0.854413 -8.680651 -2.407892 -8.195778 
Q -3.956663 -7.710904 -5.72198 -6.722326 
L -5.72198 -9.725719 
Q -3.928418 -10.445968 -2.370232 -10.813154 
Q -0.807338 -11.18034 0.487227 -11.18034 
Q 3.900173 -11.18034 5.929111 -9.471513 
Q 7.958048 -7.767394 7.958048 -4.914642 
Q 7.958048 -3.558879 7.449637 -2.344341 
Q 6.945933 -1.13451 5.604292 0.513119 
Q 5.237107 0.941502 3.264659 2.979855 
Q 1.296919 5.018207 -2.294912 8.680651 
z
" id="mdfd476c2a4" style="stroke:#808080;"/>
    </defs>
    <g clip-path="url(#pea8e9a1297)">
     <use style="fill:#808080;stroke:#808080;" x="314.427369" xlink:href="#mdfd476c2a4" y="595.306853"/>
    </g>
   </g>
   <g id="PathCollection_4">
    <defs>
     <path d="M 3.77605 -0.861447 
Q 5.868466 -0.413402 7.041697 1.004637 
Q 8.219548 2.418057 8.219548 4.496617 
Q 8.219548 7.683741 6.025513 9.43435 
Q 3.831478 11.18034 -0.210165 11.18034 
Q -1.563539 11.18034 -3.000054 10.912437 
Q -4.436569 10.644533 -5.965465 10.108727 
L -5.965465 7.295743 
Q -4.755282 8.002454 -3.314147 8.362737 
Q -1.868394 8.723021 -0.293308 8.723021 
Q 2.445772 8.723021 3.882287 7.64217 
Q 5.318802 6.561319 5.318802 4.496617 
Q 5.318802 2.588961 3.983905 1.517348 
Q 2.649008 0.441116 0.270213 0.441116 
L -2.242535 0.441116 
L -2.242535 -1.956155 
L 0.385688 -1.956155 
Q 2.533533 -1.956155 3.674431 -2.815293 
Q 4.815329 -3.674431 4.815329 -5.291088 
Q 4.815329 -6.949317 3.637479 -7.836169 
Q 2.464248 -8.72764 0.270213 -8.72764 
Q -0.930733 -8.72764 -2.302582 -8.464356 
Q -3.674431 -8.20569 -5.318802 -7.660646 
L -5.318802 -10.256536 
Q -3.655955 -10.718438 -2.205582 -10.949389 
Q -0.75521 -11.18034 0.528878 -11.18034 
Q 3.849954 -11.18034 5.780705 -9.66992 
Q 7.716074 -8.164119 7.716074 -5.595944 
Q 7.716074 -3.803764 6.690652 -2.570485 
Q 5.665229 -1.337207 3.77605 -0.861447 
z
" id="mc887dbaa83" style="stroke:#808080;"/>
    </defs>
    <g clip-path="url(#pea8e9a1297)">
     <use style="fill:#808080;stroke:#808080;" x="495.298665" xlink:href="#mc887dbaa83" y="545.225759"/>
    </g>
   </g>
   <g id="PathCollection_5">
    <defs>
     <path d="M 2.695646 -8.544598 
L -4.943215 3.392919 
L 2.695646 3.392919 
L 2.695646 -8.544598 
z
M 1.900131 -11.18034 
L 5.705184 -11.18034 
L 5.705184 3.392919 
L 8.896829 3.392919 
L 8.896829 5.908855 
L 5.705184 5.908855 
L 5.705184 11.18034 
L 2.695646 11.18034 
L 2.695646 5.908855 
L -7.396852 5.908855 
L -7.396852 2.99037 
L 1.900131 -11.18034 
z
" id="me279d064ea" style="stroke:#808080;"/>
    </defs>
    <g clip-path="url(#pea8e9a1297)">
     <use style="fill:#808080;stroke:#808080;" x="495.298665" xlink:href="#me279d064ea" y="545.225759"/>
    </g>
   </g>
   <g id="PathCollection_6">
    <defs>
     <path d="M -5.008473 -11.18034 
L 6.639575 -11.18034 
L 6.639575 -8.679629 
L -2.291535 -8.679629 
L -2.291535 -3.306861 
Q -1.647555 -3.527789 -1.003575 -3.635902 
Q -0.354894 -3.744015 0.293787 -3.744015 
Q 3.964943 -3.744015 6.108409 -1.732165 
Q 8.256576 0.279685 8.256576 3.715812 
Q 8.256576 7.255352 6.052002 9.220196 
Q 3.847428 11.18034 -0.16217 11.18034 
Q -1.544142 11.18034 -2.97782 10.945311 
Q -4.406798 10.710281 -5.934488 10.240223 
L -5.934488 7.255352 
Q -4.613624 7.974541 -3.203448 8.327085 
Q -1.793273 8.679629 -0.223278 8.679629 
Q 2.319738 8.679629 3.800422 7.344663 
Q 5.285807 6.009697 5.285807 3.715812 
Q 5.285807 1.426627 3.800422 0.091661 
Q 2.319738 -1.248005 -0.223278 -1.248005 
Q -1.412526 -1.248005 -2.597073 -0.984772 
Q -3.77692 -0.72154 -5.008473 -0.16217 
L -5.008473 -11.18034 
z
" id="m4f42d13c72" style="stroke:#808080;"/>
    </defs>
    <g clip-path="url(#pea8e9a1297)">
     <use style="fill:#808080;stroke:#808080;" x="494.759384" xlink:href="#m4f42d13c72" y="456.817709"/>
    </g>
   </g>
   <g id="PathCollection_7">
    <defs>
     <path d="M 1.286397 -1.175541 
Q -0.676687 -1.175541 -1.826823 0.168594 
Q -2.97234 1.50811 -2.97234 3.845335 
Q -2.97234 6.168702 -1.826823 7.522075 
Q -0.676687 8.870829 1.286397 8.870829 
Q 3.249481 8.870829 4.394998 7.522075 
Q 5.540515 6.168702 5.540515 3.845335 
Q 5.540515 1.50811 4.394998 0.168594 
Q 3.249481 -1.175541 1.286397 -1.175541 
z
M 7.07403 -10.316583 
L 7.07403 -7.660646 
Q 5.974703 -8.177976 4.8569 -8.450499 
Q 3.739097 -8.72764 2.63977 -8.72764 
Q -0.247118 -8.72764 -1.771394 -6.778413 
Q -3.291052 -4.829186 -3.508146 -0.889162 
Q -2.658246 -2.145535 -1.374159 -2.815293 
Q -0.085452 -3.485051 1.457301 -3.485051 
Q 4.704473 -3.485051 6.589033 -1.512729 
Q 8.473594 0.454974 8.473594 3.845335 
Q 8.473594 7.166411 6.51051 9.175685 
Q 4.547426 11.18034 1.286397 11.18034 
Q -2.45501 11.18034 -4.43195 8.316547 
Q -6.408891 5.448135 -6.408891 0.006929 
Q -6.408891 -5.101708 -3.983905 -8.141024 
Q -1.55892 -11.18034 2.524295 -11.18034 
Q 3.623622 -11.18034 4.741425 -10.963246 
Q 5.859228 -10.746152 7.07403 -10.316583 
z
" id="m687917a79a" style="stroke:#808080;"/>
    </defs>
    <g clip-path="url(#pea8e9a1297)">
     <use style="fill:#808080;stroke:#808080;" x="319.992976" xlink:href="#m687917a79a" y="246.95764"/>
    </g>
   </g>
   <g id="PathCollection_8"/>
   <g id="PathCollection_9"/>
   <g id="PathCollection_10"/>
   <g id="PathCollection_11"/>
   <g id="PathCollection_12"/>
   <g id="matplotlib.axis_1">
    <g id="xtick_1">
     <g id="line2d_1">
      <defs>
       <path d="M 0 0 
L 0 3.5 
" id="med24eb3cba" style="stroke:#000000;stroke-width:0.8;"/>
      </defs>
      <g>
       <use style="stroke:#000000;stroke-width:0.8;" x="113.430904" xlink:href="#med24eb3cba" y="630"/>
      </g>
     </g>
     <g id="text_1">
      <!-- −150 -->
      <g transform="translate(99.69731 644.598438)scale(0.1 -0.1)">
       <defs>
        <path d="M 678 2272 
L 4684 2272 
L 4684 1741 
L 678 1741 
L 678 2272 
z
" id="DejaVuSans-2212" transform="scale(0.015625)"/>
        <path d="M 794 531 
L 1825 531 
L 1825 4091 
L 703 3866 
L 703 4441 
L 1819 4666 
L 2450 4666 
L 2450 531 
L 3481 531 
L 3481 0 
L 794 0 
L 794 531 
z
" id="DejaVuSans-31" transform="scale(0.015625)"/>
        <path d="M 691 4666 
L 3169 4666 
L 3169 4134 
L 1269 4134 
L 1269 2991 
Q 1406 3038 1543 3061 
Q 1681 3084 1819 3084 
Q 2600 3084 3056 2656 
Q 3513 2228 3513 1497 
Q 3513 744 3044 326 
Q 2575 -91 1722 -91 
Q 1428 -91 1123 -41 
Q 819 9 494 109 
L 494 744 
Q 775 591 1075 516 
Q 1375 441 1709 441 
Q 2250 441 2565 725 
Q 2881 1009 2881 1497 
Q 2881 1984 2565 2268 
Q 2250 2553 1709 2553 
Q 1456 2553 1204 2497 
Q 953 2441 691 2322 
L 691 4666 
z
" id="DejaVuSans-35" transform="scale(0.015625)"/>
        <path d="M 2034 4250 
Q 1547 4250 1301 3770 
Q 1056 3291 1056 2328 
Q 1056 1369 1301 889 
Q 1547 409 2034 409 
Q 2525 409 2770 889 
Q 3016 1369 3016 2328 
Q 3016 3291 2770 3770 
Q 2525 4250 2034 4250 
z
M 2034 4750 
Q 2819 4750 3233 4129 
Q 3647 3509 3647 2328 
Q 3647 1150 3233 529 
Q 2819 -91 2034 -91 
Q 1250 -91 836 529 
Q 422 1150 422 2328 
Q 422 3509 836 4129 
Q 1250 4750 2034 4750 
z
" id="DejaVuSans-30" transform="scale(0.015625)"/>
       </defs>
       <use xlink:href="#DejaVuSans-2212"/>
       <use x="83.789062" xlink:href="#DejaVuSans-31"/>
       <use x="147.412109" xlink:href="#DejaVuSans-35"/>
       <use x="211.035156" xlink:href="#DejaVuSans-30"/>
      </g>
     </g>
    </g>
    <g id="xtick_2">
     <g id="line2d_2">
      <g>
       <use style="stroke:#000000;stroke-width:0.8;" x="182.355937" xlink:href="#med24eb3cba" y="630"/>
      </g>
     </g>
     <g id="text_2">
      <!-- −100 -->
      <g transform="translate(168.622344 644.598438)scale(0.1 -0.1)">
       <use xlink:href="#DejaVuSans-2212"/>
       <use x="83.789062" xlink:href="#DejaVuSans-31"/>
       <use x="147.412109" xlink:href="#DejaVuSans-30"/>
       <use x="211.035156" xlink:href="#DejaVuSans-30"/>
      </g>
     </g>
    </g>
    <g id="xtick_3">
     <g id="line2d_3">
      <g>
       <use style="stroke:#000000;stroke-width:0.8;" x="251.28097" xlink:href="#med24eb3cba" y="630"/>
      </g>
     </g>
     <g id="text_3">
      <!-- −50 -->
      <g transform="translate(240.728627 644.598438)scale(0.1 -0.1)">
       <use xlink:href="#DejaVuSans-2212"/>
       <use x="83.789062" xlink:href="#DejaVuSans-35"/>
       <use x="147.412109" xlink:href="#DejaVuSans-30"/>
      </g>
     </g>
    </g>
    <g id="xtick_4">
     <g id="line2d_4">
      <g>
       <use style="stroke:#000000;stroke-width:0.8;" x="320.206004" xlink:href="#med24eb3cba" y="630"/>
      </g>
     </g>
     <g id="text_4">
      <!-- 0 -->
      <g transform="translate(317.024754 644.598438)scale(0.1 -0.1)">
       <use xlink:href="#DejaVuSans-30"/>
      </g>
     </g>
    </g>
    <g id="xtick_5">
     <g id="line2d_5">
      <g>
       <use style="stroke:#000000;stroke-width:0.8;" x="389.131037" xlink:href="#med24eb3cba" y="630"/>
      </g>
     </g>
     <g id="text_5">
      <!-- 50 -->
      <g transform="translate(382.768537 644.598438)scale(0.1 -0.1)">
       <use xlink:href="#DejaVuSans-35"/>
       <use x="63.623047" xlink:href="#DejaVuSans-30"/>
      </g>
     </g>
    </g>
    <g id="xtick_6">
     <g id="line2d_6">
      <g>
       <use style="stroke:#000000;stroke-width:0.8;" x="458.05607" xlink:href="#med24eb3cba" y="630"/>
      </g>
     </g>
     <g id="text_6">
      <!-- 100 -->
      <g transform="translate(448.51232 644.598438)scale(0.1 -0.1)">
       <use xlink:href="#DejaVuSans-31"/>
       <use x="63.623047" xlink:href="#DejaVuSans-30"/>
       <use x="127.246094" xlink:href="#DejaVuSans-30"/>
      </g>
     </g>
    </g>
    <g id="xtick_7">
     <g id="line2d_7">
      <g>
       <use style="stroke:#000000;stroke-width:0.8;" x="526.981103" xlink:href="#med24eb3cba" y="630"/>
      </g>
     </g>
     <g id="text_7">
      <!-- 150 -->
      <g transform="translate(517.437353 644.598438)scale(0.1 -0.1)">
       <use xlink:href="#DejaVuSans-31"/>
       <use x="63.623047" xlink:href="#DejaVuSans-35"/>
       <use x="127.246094" xlink:href="#DejaVuSans-30"/>
      </g>
     </g>
    </g>
    <g id="xtick_8">
     <g id="line2d_8">
      <g>
       <use style="stroke:#000000;stroke-width:0.8;" x="595.906136" xlink:href="#med24eb3cba" y="630"/>
      </g>
     </g>
     <g id="text_8">
      <!-- 200 -->
      <g transform="translate(586.362386 644.598438)scale(0.1 -0.1)">
       <defs>
        <path d="M 1228 531 
L 3431 531 
L 3431 0 
L 469 0 
L 469 531 
Q 828 903 1448 1529 
Q 2069 2156 2228 2338 
Q 2531 2678 2651 2914 
Q 2772 3150 2772 3378 
Q 2772 3750 2511 3984 
Q 2250 4219 1831 4219 
Q 1534 4219 1204 4116 
Q 875 4013 500 3803 
L 500 4441 
Q 881 4594 1212 4672 
Q 1544 4750 1819 4750 
Q 2544 4750 2975 4387 
Q 3406 4025 3406 3419 
Q 3406 3131 3298 2873 
Q 3191 2616 2906 2266 
Q 2828 2175 2409 1742 
Q 1991 1309 1228 531 
z
" id="DejaVuSans-32" transform="scale(0.015625)"/>
       </defs>
       <use xlink:href="#DejaVuSans-32"/>
       <use x="63.623047" xlink:href="#DejaVuSans-30"/>
       <use x="127.246094" xlink:href="#DejaVuSans-30"/>
      </g>
     </g>
    </g>
   </g>
   <g id="matplotlib.axis_2">
    <g id="ytick_1">
     <g id="line2d_9">
      <defs>
       <path d="M 0 0 
L -3.5 0 
" id="mad8da1886b" style="stroke:#000000;stroke-width:0.8;"/>
      </defs>
      <g>
       <use style="stroke:#000000;stroke-width:0.8;" x="90" xlink:href="#mad8da1886b" y="607.173764"/>
      </g>
     </g>
     <g id="text_9">
      <!-- −150 -->
      <g transform="translate(55.532812 610.972983)scale(0.1 -0.1)">
       <use xlink:href="#DejaVuSans-2212"/>
       <use x="83.789062" xlink:href="#DejaVuSans-31"/>
       <use x="147.412109" xlink:href="#DejaVuSans-35"/>
       <use x="211.035156" xlink:href="#DejaVuSans-30"/>
      </g>
     </g>
    </g>
    <g id="ytick_2">
     <g id="line2d_10">
      <g>
       <use style="stroke:#000000;stroke-width:0.8;" x="90" xlink:href="#mad8da1886b" y="540.027442"/>
      </g>
     </g>
     <g id="text_10">
      <!-- −100 -->
      <g transform="translate(55.532812 543.826661)scale(0.1 -0.1)">
       <use xlink:href="#DejaVuSans-2212"/>
       <use x="83.789062" xlink:href="#DejaVuSans-31"/>
       <use x="147.412109" xlink:href="#DejaVuSans-30"/>
       <use x="211.035156" xlink:href="#DejaVuSans-30"/>
      </g>
     </g>
    </g>
    <g id="ytick_3">
     <g id="line2d_11">
      <g>
       <use style="stroke:#000000;stroke-width:0.8;" x="90" xlink:href="#mad8da1886b" y="472.881119"/>
      </g>
     </g>
     <g id="text_11">
      <!-- −50 -->
      <g transform="translate(61.895313 476.680338)scale(0.1 -0.1)">
       <use xlink:href="#DejaVuSans-2212"/>
       <use x="83.789062" xlink:href="#DejaVuSans-35"/>
       <use x="147.412109" xlink:href="#DejaVuSans-30"/>
      </g>
     </g>
    </g>
    <g id="ytick_4">
     <g id="line2d_12">
      <g>
       <use style="stroke:#000000;stroke-width:0.8;" x="90" xlink:href="#mad8da1886b" y="405.734796"/>
      </g>
     </g>
     <g id="text_12">
      <!-- 0 -->
      <g transform="translate(76.6375 409.534015)scale(0.1 -0.1)">
       <use xlink:href="#DejaVuSans-30"/>
      </g>
     </g>
    </g>
    <g id="ytick_5">
     <g id="line2d_13">
      <g>
       <use style="stroke:#000000;stroke-width:0.8;" x="90" xlink:href="#mad8da1886b" y="338.588474"/>
      </g>
     </g>
     <g id="text_13">
      <!-- 50 -->
      <g transform="translate(70.275 342.387693)scale(0.1 -0.1)">
       <use xlink:href="#DejaVuSans-35"/>
       <use x="63.623047" xlink:href="#DejaVuSans-30"/>
      </g>
     </g>
    </g>
    <g id="ytick_6">
     <g id="line2d_14">
      <g>
       <use style="stroke:#000000;stroke-width:0.8;" x="90" xlink:href="#mad8da1886b" y="271.442151"/>
      </g>
     </g>
     <g id="text_14">
      <!-- 100 -->
      <g transform="translate(63.9125 275.24137)scale(0.1 -0.1)">
       <use xlink:href="#DejaVuSans-31"/>
       <use x="63.623047" xlink:href="#DejaVuSans-30"/>
       <use x="127.246094" xlink:href="#DejaVuSans-30"/>
      </g>
     </g>
    </g>
    <g id="ytick_7">
     <g id="line2d_15">
      <g>
       <use style="stroke:#000000;stroke-width:0.8;" x="90" xlink:href="#mad8da1886b" y="204.295828"/>
      </g>
     </g>
     <g id="text_15">
      <!-- 150 -->
      <g transform="translate(63.9125 208.095047)scale(0.1 -0.1)">
       <use xlink:href="#DejaVuSans-31"/>
       <use x="63.623047" xlink:href="#DejaVuSans-35"/>
       <use x="127.246094" xlink:href="#DejaVuSans-30"/>
      </g>
     </g>
    </g>
    <g id="ytick_8">
     <g id="line2d_16">
      <g>
       <use style="stroke:#000000;stroke-width:0.8;" x="90" xlink:href="#mad8da1886b" y="137.149506"/>
      </g>
     </g>
     <g id="text_16">
      <!-- 200 -->
      <g transform="translate(63.9125 140.948724)scale(0.1 -0.1)">
       <use xlink:href="#DejaVuSans-32"/>
       <use x="63.623047" xlink:href="#DejaVuSans-30"/>
       <use x="127.246094" xlink:href="#DejaVuSans-30"/>
      </g>
     </g>
    </g>
   </g>
   <g id="line2d_17">
    <path clip-path="url(#pea8e9a1297)" d="M 319.992976 246.95764 
L 319.246631 240.173731 
L 318.094532 233.444877 
L 316.427575 226.82025 
L 314.090854 220.390599 
L 310.870172 214.33383 
L 306.514691 208.997767 
L 300.894431 204.956245 
L 294.288706 202.770434 
L 287.316101 202.49602 
L 280.449842 203.723455 
L 273.869997 206.002537 
L 267.603159 209.015633 
L 261.628291 212.560661 
L 255.916143 216.508078 
L 250.440229 220.77168 
L 245.178924 225.291793 
L 240.115184 230.025691 
L 235.235813 234.941955 
L 230.530769 240.017008 
L 225.992636 245.232913 
L 221.616237 250.575899 
L 217.398381 256.035368 
L 213.337707 261.603187 
L 209.434625 267.273181 
L 205.691321 273.040762 
L 202.111853 278.90264 
L 198.702318 284.856605 
L 195.471118 290.901331 
L 192.429334 297.036208 
L 189.591252 303.261149 
L 186.975069 309.576362 
L 184.603852 315.98202 
L 182.506832 322.47775 
L 180.721131 329.061801 
L 179.294037 335.729638 
L 178.285886 342.47155 
L 177.773378 349.268583 
L 177.852521 356.085822 
L 178.638799 362.862069 
L 180.259333 369.496517 
L 182.829067 375.838367 
L 186.407724 381.694452 
L 190.955559 386.870409 
L 196.327502 391.232972 
L 202.321096 394.747331 
L 208.739761 397.463541 
L 215.428649 399.475867 
L 222.279198 400.888152 
" style="fill:none;stroke:#808080;stroke-linecap:square;stroke-width:1.5;"/>
   </g>
   <g id="line2d_18">
    <path clip-path="url(#pea8e9a1297)" d="M 177.773378 400.888152 
L 177.773378 202.49602 
L 319.992976 202.49602 
L 319.992976 400.888152 
L 177.773378 400.888152 
" style="fill:none;stroke:#d3d3d3;stroke-linecap:square;stroke-width:0.5;"/>
   </g>
   <g id="line2d_19">
    <path clip-path="url(#pea8e9a1297)" d="M 222.279198 400.888152 
L 229.422663 401.950336 
L 236.604676 402.736091 
L 243.819036 403.168696 
L 251.046869 403.12874 
L 258.233785 402.414824 
L 265.209903 400.653004 
L 271.361623 397.116006 
L 274.65633 391.054382 
L 273.242204 384.226997 
L 268.864853 378.645947 
L 262.990981 374.572515 
L 256.239387 372.117787 
L 249.064231 371.526561 
L 242.029553 372.995258 
L 235.732236 376.378202 
L 230.497311 381.184318 
L 226.314794 386.893392 
L 223.023966 393.141278 
L 220.451083 399.709433 
L 218.452544 406.470647 
L 216.918007 413.349781 
L 215.763909 420.301245 
L 214.926589 427.296607 
L 214.356905 434.31769 
L 214.016337 441.352632 
L 213.874226 448.39356 
L 213.90581 455.435185 
L 214.090817 462.473928 
L 214.412449 469.507361 
L 214.856628 476.533845 
" style="fill:none;stroke:#808080;stroke-linecap:square;stroke-width:1.5;"/>
   </g>
   <g id="line2d_20">
    <path clip-path="url(#pea8e9a1297)" d="M 213.874226 476.533845 
L 213.874226 371.526561 
L 274.65633 371.526561 
L 274.65633 476.533845 
L 213.874226 476.533845 
" style="fill:none;stroke:#d3d3d3;stroke-linecap:square;stroke-width:0.5;"/>
   </g>
   <g id="line2d_21">
    <path clip-path="url(#pea8e9a1297)" d="M 214.856628 476.533845 
L 215.351642 483.348751 
L 215.868579 490.161424 
L 216.416508 496.971144 
L 217.007019 503.776859 
L 217.654956 510.577009 
L 218.379406 517.369234 
L 219.205004 524.149907 
L 220.163673 530.913344 
L 221.296912 537.650491 
L 222.6587 544.346699 
L 224.318876 550.978009 
L 226.366213 557.505092 
L 228.908837 563.864141 
L 232.066671 569.955675 
L 235.947832 575.6378 
L 240.606424 580.73936 
L 246.002826 585.105755 
L 252.006732 588.656714 
L 258.449096 591.407456 
L 265.177278 593.440553 
L 272.078801 594.863274 
L 279.079345 595.779133 
L 286.132185 596.276483 
L 293.208377 596.42684 
L 300.289903 596.286957 
L 307.365362 595.90173 
L 314.427369 595.306853 
" style="fill:none;stroke:#808080;stroke-linecap:square;stroke-width:1.5;"/>
   </g>
   <g id="line2d_22">
    <path clip-path="url(#pea8e9a1297)" d="M 214.856628 596.42684 
L 214.856628 476.533845 
L 314.427369 476.533845 
L 314.427369 596.42684 
L 214.856628 596.42684 
" style="fill:none;stroke:#d3d3d3;stroke-linecap:square;stroke-width:0.5;"/>
   </g>
   <g id="line2d_23">
    <path clip-path="url(#pea8e9a1297)" d="M 314.427369 595.306853 
L 321.470996 594.530959 
L 328.492844 593.597254 
L 335.490488 592.524752 
L 342.462136 591.32919 
L 349.406431 590.023718 
L 356.322328 588.619416 
L 363.209021 587.125683 
L 370.065909 585.550542 
L 376.892568 583.900866 
L 383.688749 582.182555 
L 390.454375 580.400676 
L 397.189543 578.559569 
L 403.894533 576.662928 
L 410.569809 574.713869 
L 417.216035 572.714974 
L 423.834075 570.668327 
L 430.425001 568.575539 
L 436.990101 566.437757 
L 443.530886 564.255669 
L 450.049093 562.029499 
L 456.546699 559.758987 
L 463.025936 557.443376 
L 469.489344 555.081403 
L 475.939898 552.671398 
L 482.381443 550.211845 
L 488.820715 547.704857 
L 495.298665 545.225759 
" style="fill:none;stroke:#808080;stroke-linecap:square;stroke-width:1.5;"/>
   </g>
   <g id="line2d_24">
    <path clip-path="url(#pea8e9a1297)" d="M 314.427369 595.306853 
L 314.427369 545.225759 
L 495.298665 545.225759 
L 495.298665 595.306853 
L 314.427369 595.306853 
" style="fill:none;stroke:#d3d3d3;stroke-linecap:square;stroke-width:0.5;"/>
   </g>
   <g id="line2d_25">
    <path clip-path="url(#pea8e9a1297)" d="M 495.298665 545.225759 
" style="fill:none;stroke:#808080;stroke-linecap:square;stroke-width:1.5;"/>
   </g>
   <g id="line2d_26">
    <path clip-path="url(#pea8e9a1297)" d="M 495.298665 545.225759 
L 495.298665 545.225759 
L 495.298665 545.225759 
L 495.298665 545.225759 
L 495.298665 545.225759 
" style="fill:none;stroke:#d3d3d3;stroke-linecap:square;stroke-width:0.5;"/>
   </g>
   <g id="line2d_27">
    <path clip-path="url(#pea8e9a1297)" d="M 495.298665 545.225759 
L 502.068151 543.144886 
L 508.84121 541.065319 
L 515.617378 538.987579 
L 522.396224 536.912255 
L 529.177387 534.840012 
L 535.960617 532.771608 
L 542.745814 530.707912 
L 549.533084 528.649932 
L 556.322782 526.598851 
L 563.115545 524.556064 
L 569.912284 522.523213 
L 576.714051 520.502155 
L 583.521651 518.49467 
L 590.334576 516.501331 
L 597.148159 514.517392 
L 603.944956 512.517313 
L 610.660282 510.383658 
L 616.802524 507.243777 
L 613.870978 501.856541 
L 607.720123 498.364976 
L 601.313074 495.348825 
L 594.805289 492.544334 
L 588.242123 489.865346 
L 581.643741 487.271942 
L 575.020967 484.742036 
L 568.380272 482.261995 
L 561.725792 479.822749 
L 555.060292 477.417929 
L 548.385673 475.042877 
L 541.703265 472.694081 
L 535.014004 470.368825 
L 528.318545 468.064975 
L 521.617339 465.78083 
L 514.910684 463.515026 
L 508.198759 461.266462 
L 501.481654 459.034256 
L 494.759384 456.817709 
" style="fill:none;stroke:#808080;stroke-linecap:square;stroke-width:1.5;"/>
   </g>
   <g id="line2d_28">
    <path clip-path="url(#pea8e9a1297)" d="M 494.759384 545.225759 
L 494.759384 456.817709 
L 616.802524 456.817709 
L 616.802524 545.225759 
L 494.759384 545.225759 
" style="fill:none;stroke:#d3d3d3;stroke-linecap:square;stroke-width:0.5;"/>
   </g>
   <g id="line2d_29">
    <path clip-path="url(#pea8e9a1297)" d="M 494.759384 456.817709 
L 488.014781 454.558961 
L 481.300887 452.219381 
L 474.620935 449.793311 
L 467.978387 447.274579 
L 461.377045 444.656491 
L 454.821182 441.931823 
L 448.315679 439.09283 
L 441.866173 436.131277 
L 435.479213 433.038494 
L 429.162415 429.805467 
L 422.924602 426.422966 
L 416.775924 422.881727 
L 410.727929 419.172679 
L 404.793572 415.287237 
L 398.987138 411.217637 
L 393.324048 406.957313 
L 387.820548 402.501286 
L 382.493262 397.846547 
L 377.358629 392.992367 
L 372.432265 387.940526 
L 367.728287 382.695395 
L 363.258679 377.263862 
L 359.032764 371.655102 
L 355.056837 365.880201 
L 351.334 359.951682 
L 347.864194 353.88298 
L 344.644424 347.687924 
L 341.669111 341.380266 
L 338.930541 334.973289 
L 336.419349 328.479512 
L 334.124988 321.910494 
L 332.036165 315.276722 
L 330.141215 308.587573 
L 328.428409 301.851327 
L 326.886189 295.075231 
L 325.503349 288.265569 
L 324.269159 281.427761 
L 323.173441 274.566459 
L 322.206619 267.68564 
L 321.359731 260.788703 
L 320.624432 253.878544 
L 319.992976 246.95764 
" style="fill:none;stroke:#808080;stroke-linecap:square;stroke-width:1.5;"/>
   </g>
   <g id="line2d_30">
    <path clip-path="url(#pea8e9a1297)" d="M 319.992976 456.817709 
L 319.992976 246.95764 
L 494.759384 246.95764 
L 494.759384 456.817709 
L 319.992976 456.817709 
" style="fill:none;stroke:#d3d3d3;stroke-linecap:square;stroke-width:0.5;"/>
   </g>
   <g id="line2d_31">
    <path clip-path="url(#pea8e9a1297)" d="M 259.481533 388.504621 
L 261.944156 387.309126 
L 260.972628 389.429286 
L 260.926274 390.259473 
L 259.481533 388.504621 
" style="fill:none;stroke:#000000;stroke-linecap:square;stroke-width:3;"/>
   </g>
   <g id="line2d_32">
    <path clip-path="url(#pea8e9a1297)" d="M 259.481533 390.259473 
L 259.481533 387.309126 
L 261.944156 387.309126 
L 261.944156 390.259473 
L 259.481533 390.259473 
" style="fill:none;stroke:#d3d3d3;stroke-linecap:square;stroke-width:0.5;"/>
   </g>
   <g id="line2d_33">
    <path clip-path="url(#pea8e9a1297)" d="M 241.137811 389.762045 
L 250.394457 389.714524 
L 255.974599 389.167136 
L 260.324661 388.09532 
L 259.481533 388.504621 
" style="fill:none;stroke:#000000;stroke-linecap:square;stroke-width:3;"/>
   </g>
   <g id="line2d_34">
    <path clip-path="url(#pea8e9a1297)" d="M 241.137811 389.762045 
L 241.137811 388.09532 
L 260.324661 388.09532 
L 260.324661 389.762045 
L 241.137811 389.762045 
" style="fill:none;stroke:#d3d3d3;stroke-linecap:square;stroke-width:0.5;"/>
   </g>
   <g id="line2d_35">
    <path clip-path="url(#pea8e9a1297)" d="M 259.481533 388.504621 
L 259.413005 388.421384 
L 256.538956 386.440008 
L 253.165823 385.208992 
L 249.898922 384.931185 
L 246.905236 385.556468 
L 243.954079 387.157367 
L 241.137811 389.762045 
" style="fill:none;stroke:#000000;stroke-linecap:square;stroke-width:3;"/>
   </g>
   <g id="line2d_36">
    <path clip-path="url(#pea8e9a1297)" d="M 241.137811 389.762045 
L 241.137811 384.931185 
L 259.481533 384.931185 
L 259.481533 389.762045 
L 241.137811 389.762045 
" style="fill:none;stroke:#d3d3d3;stroke-linecap:square;stroke-width:0.5;"/>
   </g>
   <g id="line2d_37">
    <path clip-path="url(#pea8e9a1297)" d="M 228.60842 475.602161 
L 228.60842 475.602161 
L 228.60842 475.602161 
" style="fill:none;stroke:#000000;stroke-linecap:square;stroke-width:3;"/>
   </g>
   <g id="line2d_38">
    <path clip-path="url(#pea8e9a1297)" d="M 228.60842 475.602161 
L 228.60842 475.602161 
L 228.60842 475.602161 
L 228.60842 475.602161 
L 228.60842 475.602161 
" style="fill:none;stroke:#d3d3d3;stroke-linecap:square;stroke-width:0.5;"/>
   </g>
   <g id="line2d_39">
    <path clip-path="url(#pea8e9a1297)" d="M 228.60842 475.602161 
L 228.60842 475.602161 
L 228.60842 475.602161 
" style="fill:none;stroke:#000000;stroke-linecap:square;stroke-width:3;"/>
   </g>
   <g id="line2d_40">
    <path clip-path="url(#pea8e9a1297)" d="M 228.60842 475.602161 
L 228.60842 475.602161 
L 228.60842 475.602161 
L 228.60842 475.602161 
L 228.60842 475.602161 
" style="fill:none;stroke:#d3d3d3;stroke-linecap:square;stroke-width:0.5;"/>
   </g>
   <g id="line2d_41">
    <path clip-path="url(#pea8e9a1297)" d="M 491.148652 532.419511 
L 491.148652 532.419511 
L 491.148652 532.419511 
" style="fill:none;stroke:#000000;stroke-linecap:square;stroke-width:3;"/>
   </g>
   <g id="line2d_42">
    <path clip-path="url(#pea8e9a1297)" d="M 491.148652 532.419511 
L 491.148652 532.419511 
L 491.148652 532.419511 
L 491.148652 532.419511 
L 491.148652 532.419511 
" style="fill:none;stroke:#d3d3d3;stroke-linecap:square;stroke-width:0.5;"/>
   </g>
   <g id="line2d_43">
    <path clip-path="url(#pea8e9a1297)" d="M 491.148652 532.419511 
L 491.148652 532.419511 
L 491.148652 532.419511 
" style="fill:none;stroke:#000000;stroke-linecap:square;stroke-width:3;"/>
   </g>
   <g id="line2d_44">
    <path clip-path="url(#pea8e9a1297)" d="M 491.148652 532.419511 
L 491.148652 532.419511 
L 491.148652 532.419511 
L 491.148652 532.419511 
L 491.148652 532.419511 
" style="fill:none;stroke:#d3d3d3;stroke-linecap:square;stroke-width:0.5;"/>
   </g>
   <g id="line2d_45">
    <path clip-path="url(#pea8e9a1297)" d="M 490.355099 469.543104 
L 483.454489 467.232097 
L 476.573758 464.834366 
L 469.715316 462.343454 
L 462.881762 459.752277 
L 456.076006 457.053096 
L 449.301414 454.237495 
L 442.561972 451.296379 
L 435.86247 448.219992 
L 429.208705 444.99797 
L 422.607698 441.61943 
L 416.067915 438.073125 
L 409.599475 434.347657 
L 403.214339 430.431776 
L 396.926427 426.314765 
L 390.751652 421.986913 
L 384.707822 417.440063 
L 378.814368 412.668205 
L 373.09188 407.668061 
L 367.561436 402.439604 
L 362.243763 396.986418 
L 357.158272 391.315835 
L 352.322082 385.438806 
L 347.749137 379.369471 
L 343.449539 373.124497 
L 339.42916 366.722237 
L 335.689593 360.181839 
L 332.228387 353.522396 
L 329.039541 346.762222 
L 326.11413 339.918317 
L 323.441011 333.006017 
L 321.007504 326.038826 
L 318.800009 319.02839 
L 316.804525 311.984576 
L 315.007066 304.91562 
L 313.393965 297.828309 
L 311.952096 290.728169 
L 310.669009 283.61966 
L 309.533015 276.506349 
L 308.533221 269.391065 
L 307.65953 262.276037 
L 306.902625 255.163011 
L 306.25393 248.053346 
L 306.25393 248.053346 
" style="fill:none;stroke:#000000;stroke-linecap:square;stroke-width:3;"/>
   </g>
   <g id="line2d_46">
    <path clip-path="url(#pea8e9a1297)" d="M 306.25393 469.543104 
L 306.25393 248.053346 
L 490.355099 248.053346 
L 490.355099 469.543104 
L 306.25393 469.543104 
" style="fill:none;stroke:#d3d3d3;stroke-linecap:square;stroke-width:0.5;"/>
   </g>
   <g id="line2d_47">
    <path clip-path="url(#pea8e9a1297)" d="M 306.25393 248.053346 
L 306.25393 248.053346 
L 305.58475 241.964612 
L 304.582995 236.10654 
L 303.199861 230.600069 
L 301.401686 225.637824 
L 299.219102 221.51113 
L 296.830955 218.555378 
L 294.477142 216.841598 
L 291.891966 215.995163 
L 288.448163 215.879924 
L 284.130779 216.665099 
L 279.311603 218.341203 
L 274.29056 220.758811 
L 269.23484 223.760363 
L 264.229653 227.220308 
L 259.31789 231.045314 
L 254.521241 235.166653 
L 249.850738 239.533211 
L 245.312061 244.1064 
L 240.908302 248.856612 
L 236.641474 253.760789 
L 232.513362 258.800717 
L 228.526055 263.961812 
L 224.682295 269.232233 
L 220.985742 274.602205 
L 217.441218 280.063497 
L 214.054935 285.608971 
L 210.834763 291.232193 
L 207.790538 296.927038 
L 204.934437 302.68727 
L 202.281438 308.506039 
L 199.849889 314.375233 
L 197.662197 320.284606 
L 195.745635 326.220542 
L 194.133224 332.164293 
L 192.864546 338.089458 
L 191.98613 343.9585 
L 191.550654 349.718294 
L 191.613643 355.295623 
L 192.226099 360.595798 
L 193.423443 365.511528 
L 195.218351 369.95017 
L 197.612411 373.871647 
L 200.623211 377.297357 
L 204.282508 380.265426 
L 208.589693 382.786904 
L 211.811706 384.148232 
" style="fill:none;stroke:#000000;stroke-linecap:square;stroke-width:3;"/>
   </g>
   <g id="line2d_48">
    <path clip-path="url(#pea8e9a1297)" d="M 191.550654 384.148232 
L 191.550654 215.879924 
L 306.25393 215.879924 
L 306.25393 384.148232 
L 191.550654 384.148232 
" style="fill:none;stroke:#d3d3d3;stroke-linecap:square;stroke-width:0.5;"/>
   </g>
   <g id="line2d_49">
    <path clip-path="url(#pea8e9a1297)" d="M 586.338946 503.648479 
L 583.009205 502.289388 
L 576.554407 499.752464 
L 570.041247 497.264452 
L 563.488285 494.817187 
L 556.906577 492.404622 
L 550.303155 490.022203 
L 543.682711 487.666432 
L 537.048487 485.334573 
L 530.402781 483.024459 
L 523.747252 480.73435 
L 517.083112 478.46284 
L 510.411253 476.208791 
L 503.732332 473.971284 
L 497.046831 471.749581 
L 490.355099 469.543104 
" style="fill:none;stroke:#000000;stroke-linecap:square;stroke-width:3;"/>
   </g>
   <g id="line2d_50">
    <path clip-path="url(#pea8e9a1297)" d="M 490.355099 503.648479 
L 490.355099 469.543104 
L 586.338946 469.543104 
L 586.338946 503.648479 
L 490.355099 503.648479 
" style="fill:none;stroke:#d3d3d3;stroke-linecap:square;stroke-width:0.5;"/>
   </g>
   <g id="line2d_51">
    <path clip-path="url(#pea8e9a1297)" d="M 230.468303 415.818418 
L 243.386066 416.591335 
L 251.69928 416.542956 
L 260.492971 415.662513 
L 270.095144 413.210689 
L 280.77909 406.922885 
L 288.340032 392.679478 
L 285.558133 378.194522 
L 278.316702 368.87051 
L 269.443006 362.705023 
L 259.312951 359.026583 
L 248.22954 358.121938 
L 237.15387 360.434049 
L 227.510393 365.599037 
L 220.026889 372.44929 
L 214.490315 379.990483 
L 210.405276 387.735156 
L 211.811706 384.148232 
" style="fill:none;stroke:#000000;stroke-linecap:square;stroke-width:3;"/>
   </g>
   <g id="line2d_52">
    <path clip-path="url(#pea8e9a1297)" d="M 210.405276 416.591335 
L 210.405276 358.121938 
L 288.340032 358.121938 
L 288.340032 416.591335 
L 210.405276 416.591335 
" style="fill:none;stroke:#d3d3d3;stroke-linecap:square;stroke-width:0.5;"/>
   </g>
   <g id="line2d_53">
    <path clip-path="url(#pea8e9a1297)" d="M 491.148652 532.419511 
L 497.922196 530.337391 
L 504.699933 528.256388 
L 511.481526 526.176985 
L 518.266706 524.099721 
L 525.055313 522.025204 
L 531.847353 519.954113 
L 538.643052 517.887223 
L 545.442922 515.825423 
L 552.247824 513.769749 
L 559.058979 511.721431 
L 565.877878 509.681954 
L 572.705834 507.653114 
L 579.542584 505.637034 
L 586.381969 503.635951 
L 586.338946 503.648479 
" style="fill:none;stroke:#000000;stroke-linecap:square;stroke-width:3;"/>
   </g>
   <g id="line2d_54">
    <path clip-path="url(#pea8e9a1297)" d="M 491.148652 532.419511 
L 491.148652 503.635951 
L 586.381969 503.635951 
L 586.381969 532.419511 
L 491.148652 532.419511 
" style="fill:none;stroke:#d3d3d3;stroke-linecap:square;stroke-width:0.5;"/>
   </g>
   <g id="line2d_55">
    <path clip-path="url(#pea8e9a1297)" d="M 228.60842 475.602161 
L 229.100908 482.382346 
L 229.614041 489.144956 
L 230.156357 495.88503 
L 230.738633 502.596043 
L 231.374453 509.269335 
L 232.080904 515.893283 
L 232.879402 522.452108 
L 233.796614 528.924149 
L 234.865351 535.279404 
L 236.125106 541.47616 
L 237.621584 547.456816 
L 239.404096 553.144009 
L 241.519681 558.440671 
L 244.005247 563.241733 
L 246.886224 567.465136 
L 250.193881 571.090069 
L 253.986468 574.157975 
L 258.325921 576.72158 
L 263.220423 578.808273 
L 268.60793 580.433809 
L 274.389784 581.624067 
L 280.467249 582.418107 
L 286.758663 582.861094 
L 293.202108 582.997577 
L 299.752304 582.867909 
L 306.376464 582.507065 
L 313.050744 581.94472 
" style="fill:none;stroke:#000000;stroke-linecap:square;stroke-width:3;"/>
   </g>
   <g id="line2d_56">
    <path clip-path="url(#pea8e9a1297)" d="M 228.60842 582.997577 
L 228.60842 475.602161 
L 313.050744 475.602161 
L 313.050744 582.997577 
L 228.60842 582.997577 
" style="fill:none;stroke:#d3d3d3;stroke-linecap:square;stroke-width:0.5;"/>
   </g>
   <g id="line2d_57">
    <path clip-path="url(#pea8e9a1297)" d="M 313.050744 581.94472 
L 319.757599 581.205833 
L 326.483922 580.31136 
L 333.219753 579.278937 
L 339.957401 578.123469 
L 346.69084 576.85761 
L 353.415285 575.492162 
L 360.126907 574.036386 
L 366.822631 572.498255 
L 373.499989 570.884648 
L 380.157023 569.201511 
L 386.79221 567.453979 
L 393.404414 565.64648 
L 399.99284 563.782807 
L 406.557016 561.866184 
L 413.096763 559.899311 
L 419.612182 557.884398 
L 426.103639 555.823192 
L 432.571749 553.716991 
L 439.017371 551.56665 
L 445.441592 549.372579 
L 451.845737 547.134726 
L 458.231406 544.852555 
L 464.600621 542.525004 
L 470.956399 540.15041 
L 477.305274 537.726236 
L 483.674275 535.24658 
L 491.148652 532.419511 
" style="fill:none;stroke:#000000;stroke-linecap:square;stroke-width:3;"/>
   </g>
   <g id="line2d_58">
    <path clip-path="url(#pea8e9a1297)" d="M 313.050744 581.94472 
L 313.050744 532.419511 
L 491.148652 532.419511 
L 491.148652 581.94472 
L 313.050744 581.94472 
" style="fill:none;stroke:#d3d3d3;stroke-linecap:square;stroke-width:0.5;"/>
   </g>
   <g id="line2d_59">
    <path clip-path="url(#pea8e9a1297)" d="M 491.148652 532.419511 
" style="fill:none;stroke:#000000;stroke-linecap:square;stroke-width:3;"/>
   </g>
   <g id="line2d_60">
    <path clip-path="url(#pea8e9a1297)" d="M 491.148652 532.419511 
L 491.148652 532.419511 
L 491.148652 532.419511 
L 491.148652 532.419511 
L 491.148652 532.419511 
" style="fill:none;stroke:#d3d3d3;stroke-linecap:square;stroke-width:0.5;"/>
   </g>
   <g id="line2d_61">
    <path clip-path="url(#pea8e9a1297)" d="M 230.468303 415.818418 
L 230.466851 415.824927 
L 229.419987 422.133643 
L 228.647516 428.589959 
L 228.11525 435.152515 
L 227.793948 441.792467 
L 227.658883 448.489328 
L 227.689181 455.228292 
L 227.867182 461.998488 
L 228.177874 468.791816 
L 228.60842 475.602161 
" style="fill:none;stroke:#000000;stroke-linecap:square;stroke-width:3;"/>
   </g>
   <g id="line2d_62">
    <path clip-path="url(#pea8e9a1297)" d="M 227.658883 475.602161 
L 227.658883 415.818418 
L 230.468303 415.818418 
L 230.468303 475.602161 
L 227.658883 475.602161 
" style="fill:none;stroke:#d3d3d3;stroke-linecap:square;stroke-width:0.5;"/>
   </g>
   <g id="line2d_63">
    <path clip-path="url(#pea8e9a1297)" d="M 490.355099 469.543104 
L 490.355099 469.543104 
L 490.355099 469.543104 
" style="fill:none;stroke:#000000;stroke-linecap:square;stroke-width:3;"/>
   </g>
   <g id="line2d_64">
    <path clip-path="url(#pea8e9a1297)" d="M 490.355099 469.543104 
L 490.355099 469.543104 
L 490.355099 469.543104 
L 490.355099 469.543104 
L 490.355099 469.543104 
" style="fill:none;stroke:#d3d3d3;stroke-linecap:square;stroke-width:0.5;"/>
   </g>
   <g id="line2d_65">
    <path clip-path="url(#pea8e9a1297)" d="M 490.355099 469.543104 
L 490.355099 469.543104 
L 490.355099 469.543104 
" style="fill:none;stroke:#000000;stroke-linecap:square;stroke-width:3;"/>
   </g>
   <g id="line2d_66">
    <path clip-path="url(#pea8e9a1297)" d="M 490.355099 469.543104 
L 490.355099 469.543104 
L 490.355099 469.543104 
L 490.355099 469.543104 
L 490.355099 469.543104 
" style="fill:none;stroke:#d3d3d3;stroke-linecap:square;stroke-width:0.5;"/>
   </g>
   <g id="line2d_67">
    <path clip-path="url(#pea8e9a1297)" d="M 201.104836 477.465528 
L 201.104836 477.465528 
L 201.104836 477.465528 
" style="fill:none;stroke:#000000;stroke-linecap:square;stroke-width:3;"/>
   </g>
   <g id="line2d_68">
    <path clip-path="url(#pea8e9a1297)" d="M 201.104836 477.465528 
L 201.104836 477.465528 
L 201.104836 477.465528 
L 201.104836 477.465528 
L 201.104836 477.465528 
" style="fill:none;stroke:#d3d3d3;stroke-linecap:square;stroke-width:0.5;"/>
   </g>
   <g id="line2d_69">
    <path clip-path="url(#pea8e9a1297)" d="M 201.104836 477.465528 
L 201.104836 477.465528 
L 201.104836 477.465528 
" style="fill:none;stroke:#000000;stroke-linecap:square;stroke-width:3;"/>
   </g>
   <g id="line2d_70">
    <path clip-path="url(#pea8e9a1297)" d="M 201.104836 477.465528 
L 201.104836 477.465528 
L 201.104836 477.465528 
L 201.104836 477.465528 
L 201.104836 477.465528 
" style="fill:none;stroke:#d3d3d3;stroke-linecap:square;stroke-width:0.5;"/>
   </g>
   <g id="line2d_71">
    <path clip-path="url(#pea8e9a1297)" d="M 499.448679 558.032006 
L 499.448679 558.032006 
L 499.448679 558.032006 
" style="fill:none;stroke:#000000;stroke-linecap:square;stroke-width:3;"/>
   </g>
   <g id="line2d_72">
    <path clip-path="url(#pea8e9a1297)" d="M 499.448679 558.032006 
L 499.448679 558.032006 
L 499.448679 558.032006 
L 499.448679 558.032006 
L 499.448679 558.032006 
" style="fill:none;stroke:#d3d3d3;stroke-linecap:square;stroke-width:0.5;"/>
   </g>
   <g id="line2d_73">
    <path clip-path="url(#pea8e9a1297)" d="M 499.448679 558.032006 
L 499.448679 558.032006 
L 499.448679 558.032006 
" style="fill:none;stroke:#000000;stroke-linecap:square;stroke-width:3;"/>
   </g>
   <g id="line2d_74">
    <path clip-path="url(#pea8e9a1297)" d="M 499.448679 558.032006 
L 499.448679 558.032006 
L 499.448679 558.032006 
L 499.448679 558.032006 
L 499.448679 558.032006 
" style="fill:none;stroke:#d3d3d3;stroke-linecap:square;stroke-width:0.5;"/>
   </g>
   <g id="line2d_75">
    <path clip-path="url(#pea8e9a1297)" d="M 499.16367 444.092314 
L 492.575074 441.885825 
L 486.028017 439.604397 
L 479.526555 437.243168 
L 473.075011 434.796881 
L 466.678084 432.259887 
L 460.34095 429.626152 
L 454.069386 426.889281 
L 447.869876 424.042561 
L 441.749721 421.079018 
L 435.717132 417.991503 
L 429.78129 414.772807 
L 423.952374 411.415796 
L 418.241519 407.913582 
L 412.660718 404.259709 
L 407.222624 400.448361 
L 401.940274 396.474562 
L 396.826728 392.334367 
L 391.894644 388.025032 
L 387.155822 383.54513 
L 382.620767 378.894635 
L 378.298302 374.074955 
L 374.195276 369.088919 
L 370.316391 363.940733 
L 366.664136 358.635906 
L 363.238839 353.181127 
L 360.038796 347.584121 
L 357.06046 341.853453 
L 354.298681 335.99831 
L 351.746952 330.02826 
L 349.397687 323.953006 
L 347.242471 317.782162 
L 345.272321 311.525055 
L 343.477906 305.190569 
L 341.849752 298.787034 
L 340.378412 292.322153 
L 339.054602 285.802968 
L 337.869309 279.235861 
L 336.813867 272.626568 
L 335.880016 265.980216 
L 335.059931 259.301369 
L 334.346239 252.594078 
L 333.732022 245.861934 
L 333.732022 245.861934 
" style="fill:none;stroke:#000000;stroke-linecap:square;stroke-width:3;"/>
   </g>
   <g id="line2d_76">
    <path clip-path="url(#pea8e9a1297)" d="M 333.732022 444.092314 
L 333.732022 245.861934 
L 499.16367 245.861934 
L 499.16367 444.092314 
L 333.732022 444.092314 
" style="fill:none;stroke:#d3d3d3;stroke-linecap:square;stroke-width:0.5;"/>
   </g>
   <g id="line2d_77">
    <path clip-path="url(#pea8e9a1297)" d="M 203.534836 409.87715 
L 202.10783 418.468847 
L 201.205661 426.003255 
L 200.598559 433.482865 
L 200.238726 440.912797 
L 200.08957 448.297791 
L 200.122439 455.642077 
L 200.314452 462.949367 
L 200.647025 470.222907 
L 201.104836 477.465528 
" style="fill:none;stroke:#000000;stroke-linecap:square;stroke-width:3;"/>
   </g>
   <g id="line2d_78">
    <path clip-path="url(#pea8e9a1297)" d="M 200.08957 477.465528 
L 200.08957 409.87715 
L 203.534836 409.87715 
L 203.534836 477.465528 
L 200.08957 477.465528 
" style="fill:none;stroke:#d3d3d3;stroke-linecap:square;stroke-width:0.5;"/>
   </g>
   <g id="line2d_79">
    <path clip-path="url(#pea8e9a1297)" d="M 499.448679 558.032006 
L 506.214106 555.95238 
L 512.982487 553.87425 
L 519.753229 551.798174 
L 526.525741 549.724789 
L 533.299462 547.65482 
L 540.073881 545.589103 
L 546.848577 543.528601 
L 553.623246 541.474442 
L 560.39774 539.427952 
L 567.172112 537.390696 
L 573.94669 535.364473 
L 580.722267 533.351196 
L 587.500717 531.352306 
L 594.287182 529.366711 
L 601.098425 527.383454 
L 607.999299 525.352612 
L 615.322813 523.021439 
L 627.32249 515.922125 
L 621.755017 490.84047 
L 614.038661 486.429515 
L 607.058096 483.141394 
L 600.239182 480.202443 
L 593.475041 477.441304 
L 586.733075 474.791421 
L 580.000688 472.219621 
L 573.272258 469.706803 
L 566.545006 467.240875 
L 559.817429 464.813654 
L 553.088635 462.419323 
L 546.358044 460.053588 
L 539.625227 457.713191 
L 532.889838 455.395601 
L 526.151566 453.098821 
L 519.410114 450.82126 
L 512.665186 448.561639 
L 505.916476 446.318931 
L 499.16367 444.092314 
" style="fill:none;stroke:#000000;stroke-linecap:square;stroke-width:3;"/>
   </g>
   <g id="line2d_80">
    <path clip-path="url(#pea8e9a1297)" d="M 499.16367 558.032006 
L 499.16367 444.092314 
L 627.32249 444.092314 
L 627.32249 558.032006 
L 499.16367 558.032006 
" style="fill:none;stroke:#d3d3d3;stroke-linecap:square;stroke-width:0.5;"/>
   </g>
   <g id="line2d_81">
    <path clip-path="url(#pea8e9a1297)" d="M 201.104836 477.465528 
L 201.602375 484.315157 
L 202.123116 491.177892 
L 202.67666 498.057258 
L 203.275404 504.957675 
L 203.935459 511.884682 
L 204.677909 518.845185 
L 205.530607 525.847706 
L 206.530731 532.90254 
L 207.728472 540.021577 
L 209.192294 547.217237 
L 211.016169 554.499201 
L 213.328331 561.866175 
L 216.297993 569.28761 
L 220.128096 576.669616 
L 225.009439 583.810464 
L 231.018967 590.388652 
L 238.019184 596.053536 
L 245.687543 600.591847 
L 253.677769 604.006639 
L 261.746626 606.447297 
L 269.767818 608.10248 
L 277.691442 609.140158 
L 285.505708 609.691872 
L 293.214646 609.856103 
L 300.827501 609.706006 
L 308.35426 609.296395 
L 315.803994 608.668986 
" style="fill:none;stroke:#000000;stroke-linecap:square;stroke-width:3;"/>
   </g>
   <g id="line2d_82">
    <path clip-path="url(#pea8e9a1297)" d="M 201.104836 609.856103 
L 201.104836 477.465528 
L 315.803994 477.465528 
L 315.803994 609.856103 
L 201.104836 609.856103 
" style="fill:none;stroke:#d3d3d3;stroke-linecap:square;stroke-width:0.5;"/>
   </g>
   <g id="line2d_83">
    <path clip-path="url(#pea8e9a1297)" d="M 315.803994 608.668986 
L 323.184392 607.856085 
L 330.501766 606.883148 
L 337.761222 605.770566 
L 344.96687 604.534911 
L 352.122022 603.189827 
L 359.229371 601.746669 
L 366.291135 600.21498 
L 373.309186 598.60283 
L 380.285146 596.917084 
L 387.220475 595.1636 
L 394.116539 593.347373 
L 400.974673 591.472658 
L 407.796225 589.543049 
L 414.582603 587.561554 
L 421.335308 585.530637 
L 428.055968 583.452257 
L 434.746363 581.327887 
L 441.408453 579.158523 
L 448.044402 576.944688 
L 454.656595 574.686419 
L 461.24766 572.383249 
L 467.820466 570.034197 
L 474.378068 567.637801 
L 480.923398 565.192387 
L 487.457611 562.697455 
L 493.967155 560.163134 
L 499.448679 558.032006 
" style="fill:none;stroke:#000000;stroke-linecap:square;stroke-width:3;"/>
   </g>
   <g id="line2d_84">
    <path clip-path="url(#pea8e9a1297)" d="M 315.803994 608.668986 
L 315.803994 558.032006 
L 499.448679 558.032006 
L 499.448679 608.668986 
L 315.803994 608.668986 
" style="fill:none;stroke:#d3d3d3;stroke-linecap:square;stroke-width:0.5;"/>
   </g>
   <g id="line2d_85">
    <path clip-path="url(#pea8e9a1297)" d="M 499.448679 558.032006 
" style="fill:none;stroke:#000000;stroke-linecap:square;stroke-width:3;"/>
   </g>
   <g id="line2d_86">
    <path clip-path="url(#pea8e9a1297)" d="M 499.448679 558.032006 
L 499.448679 558.032006 
L 499.448679 558.032006 
L 499.448679 558.032006 
L 499.448679 558.032006 
" style="fill:none;stroke:#d3d3d3;stroke-linecap:square;stroke-width:0.5;"/>
   </g>
   <g id="line2d_87">
    <path clip-path="url(#pea8e9a1297)" d="M 333.732022 245.861934 
L 333.732022 245.861934 
L 332.908512 238.382851 
L 331.60607 230.783213 
L 329.655289 223.04043 
L 326.780023 215.143373 
L 322.521241 207.156529 
L 316.198428 199.440155 
L 307.311721 193.070892 
L 296.685445 189.545706 
L 286.184039 189.112117 
L 276.768906 190.781811 
L 268.428392 193.663872 
L 260.915758 197.272455 
L 254.021742 201.360959 
L 247.602633 205.795849 
L 241.562569 210.498046 
L 235.836607 215.416934 
L 230.37963 220.518172 
L 225.159565 225.777509 
L 220.153237 231.177404 
L 215.343799 236.705036 
L 210.719113 242.351081 
L 206.270706 248.108924 
L 201.99312 253.974141 
L 197.883508 259.944157 
L 193.941425 266.018026 
L 190.168772 272.196309 
L 186.569874 278.481016 
L 183.151697 284.875624 
L 179.924231 291.385145 
L 176.901066 298.016259 
L 174.100248 304.777491 
L 171.545506 311.679434 
L 169.268028 318.734958 
L 167.309038 325.95931 
L 165.723528 333.369818 
L 164.585642 340.984599 
L 163.996103 348.818871 
L 164.091399 356.876021 
L 165.051499 365.12834 
L 167.095223 373.481505 
L 170.439784 381.726564 
L 175.203038 389.517257 
L 181.287908 396.443462 
L 188.372496 402.200517 
L 196.052499 406.707758 
L 203.534836 409.87715 
" style="fill:none;stroke:#000000;stroke-linecap:square;stroke-width:3;"/>
   </g>
   <g id="line2d_88">
    <path clip-path="url(#pea8e9a1297)" d="M 163.996103 409.87715 
L 163.996103 189.112117 
L 333.732022 189.112117 
L 333.732022 409.87715 
L 163.996103 409.87715 
" style="fill:none;stroke:#d3d3d3;stroke-linecap:square;stroke-width:0.5;"/>
   </g>
   <g id="line2d_89">
    <path clip-path="url(#pea8e9a1297)" d="M 499.16367 444.092314 
L 499.16367 444.092314 
L 499.16367 444.092314 
" style="fill:none;stroke:#000000;stroke-linecap:square;stroke-width:3;"/>
   </g>
   <g id="line2d_90">
    <path clip-path="url(#pea8e9a1297)" d="M 499.16367 444.092314 
L 499.16367 444.092314 
L 499.16367 444.092314 
L 499.16367 444.092314 
L 499.16367 444.092314 
" style="fill:none;stroke:#d3d3d3;stroke-linecap:square;stroke-width:0.5;"/>
   </g>
   <g id="line2d_91">
    <path clip-path="url(#pea8e9a1297)" d="M 499.16367 444.092314 
L 499.16367 444.092314 
L 499.16367 444.092314 
" style="fill:none;stroke:#000000;stroke-linecap:square;stroke-width:3;"/>
   </g>
   <g id="line2d_92">
    <path clip-path="url(#pea8e9a1297)" d="M 499.16367 444.092314 
L 499.16367 444.092314 
L 499.16367 444.092314 
L 499.16367 444.092314 
L 499.16367 444.092314 
" style="fill:none;stroke:#d3d3d3;stroke-linecap:square;stroke-width:0.5;"/>
   </g>
   <g id="line2d_93">
    <path clip-path="url(#pea8e9a1297)" d="M 222.279198 380.744255 
L 224.923379 380.909636 
L 227.524143 381.403064 
L 230.038785 382.216436 
L 232.426015 383.336397 
L 234.646634 384.744558 
L 236.664181 386.417796 
L 238.445526 388.328637 
L 239.961421 390.445705 
L 241.186974 392.734238 
L 242.102062 395.156657 
L 242.691659 397.673188 
L 242.946084 400.242508 
L 242.861159 402.822429 
L 242.438279 405.37059 
L 241.684388 407.84515 
L 240.611864 410.205475 
L 239.238318 412.41281 
L 237.586303 414.430911 
L 235.682947 416.22664 
L 233.559501 417.770512 
L 231.250833 419.037175 
L 228.794851 420.005833 
L 226.231882 420.660578 
L 223.60401 420.990661 
L 220.954385 420.990661 
L 218.326513 420.660578 
L 215.763544 420.005833 
L 213.307562 419.037175 
L 210.998894 417.770512 
L 208.875449 416.22664 
L 206.972092 414.430911 
L 205.320078 412.41281 
L 203.946532 410.205475 
L 202.874008 407.84515 
L 202.120116 405.37059 
L 201.697236 402.822429 
L 201.612312 400.242508 
L 201.866737 397.673188 
L 202.456334 395.156657 
L 203.371422 392.734238 
L 204.596975 390.445705 
L 206.11287 388.328637 
L 207.894215 386.417796 
L 209.911761 384.744558 
L 212.132381 383.336397 
L 214.519611 382.216436 
L 217.034253 381.403064 
L 219.635016 380.909636 
L 222.279198 380.744255 
" style="fill:none;stroke:#808080;stroke-linecap:square;stroke-width:1.5;"/>
   </g>
   <g id="line2d_94">
    <path clip-path="url(#pea8e9a1297)" d="M 214.856628 456.389948 
L 217.500809 456.555329 
L 220.101573 457.048757 
L 222.616215 457.862129 
L 225.003445 458.982091 
L 227.224064 460.390251 
L 229.241611 462.063489 
L 231.022956 463.97433 
L 232.538851 466.091398 
L 233.764404 468.379931 
L 234.679492 470.80235 
L 235.269089 473.318881 
L 235.523514 475.888201 
L 235.43859 478.468123 
L 235.01571 481.016283 
L 234.261818 483.490843 
L 233.189294 485.851168 
L 231.815748 488.058504 
L 230.163734 490.076604 
L 228.260377 491.872333 
L 226.136931 493.416205 
L 223.828263 494.682869 
L 221.372281 495.651526 
L 218.809312 496.306271 
L 216.181441 496.636354 
L 213.531815 496.636354 
L 210.903944 496.306271 
L 208.340975 495.651526 
L 205.884993 494.682869 
L 203.576325 493.416205 
L 201.452879 491.872333 
L 199.549522 490.076604 
L 197.897508 488.058504 
L 196.523962 485.851168 
L 195.451438 483.490843 
L 194.697546 481.016283 
L 194.274667 478.468123 
L 194.189742 475.888201 
L 194.444167 473.318881 
L 195.033764 470.80235 
L 195.948852 468.379931 
L 197.174405 466.091398 
L 198.6903 463.97433 
L 200.471645 462.063489 
L 202.489192 460.390251 
L 204.709811 458.982091 
L 207.097041 457.862129 
L 209.611683 457.048757 
L 212.212447 456.555329 
L 214.856628 456.389948 
" style="fill:none;stroke:#808080;stroke-linecap:square;stroke-width:1.5;"/>
   </g>
   <g id="line2d_95">
    <path clip-path="url(#pea8e9a1297)" d="M 314.427369 575.162957 
L 317.07155 575.328338 
L 319.672314 575.821766 
L 322.186956 576.635138 
L 324.574186 577.755099 
L 326.794806 579.16326 
L 328.812352 580.836498 
L 330.593697 582.747339 
L 332.109592 584.864407 
L 333.335145 587.15294 
L 334.250233 589.575359 
L 334.83983 592.09189 
L 335.094255 594.66121 
L 335.009331 597.241131 
L 334.586451 599.789292 
L 333.832559 602.263851 
L 332.760035 604.624177 
L 331.386489 606.831512 
L 329.734475 608.849613 
L 327.831118 610.645342 
L 325.707672 612.189214 
L 323.399004 613.455877 
L 320.943022 614.424534 
L 318.380054 615.07928 
L 315.752182 615.409362 
L 313.102556 615.409362 
L 310.474685 615.07928 
L 307.911716 614.424534 
L 305.455734 613.455877 
L 303.147066 612.189214 
L 301.02362 610.645342 
L 299.120263 608.849613 
L 297.468249 606.831512 
L 296.094703 604.624177 
L 295.022179 602.263851 
L 294.268287 599.789292 
L 293.845408 597.241131 
L 293.760483 594.66121 
L 294.014908 592.09189 
L 294.604505 589.575359 
L 295.519593 587.15294 
L 296.745146 584.864407 
L 298.261041 582.747339 
L 300.042386 580.836498 
L 302.059933 579.16326 
L 304.280552 577.755099 
L 306.667782 576.635138 
L 309.182424 575.821766 
L 311.783188 575.328338 
L 314.427369 575.162957 
" style="fill:none;stroke:#808080;stroke-linecap:square;stroke-width:1.5;"/>
   </g>
   <g id="line2d_96">
    <path clip-path="url(#pea8e9a1297)" d="M 495.298665 525.081862 
L 497.942846 525.247243 
L 500.54361 525.740671 
L 503.058252 526.554043 
L 505.445482 527.674005 
L 507.666102 529.082166 
L 509.683648 530.755404 
L 511.464993 532.666245 
L 512.980888 534.783313 
L 514.206441 537.071845 
L 515.121529 539.494265 
L 515.711126 542.010795 
L 515.965551 544.580115 
L 515.880627 547.160037 
L 515.457747 549.708198 
L 514.703855 552.182757 
L 513.631331 554.543082 
L 512.257785 556.750418 
L 510.605771 558.768519 
L 508.702414 560.564248 
L 506.578969 562.108119 
L 504.270301 563.374783 
L 501.814319 564.34344 
L 499.25135 564.998185 
L 496.623478 565.328268 
L 493.973853 565.328268 
L 491.345981 564.998185 
L 488.783012 564.34344 
L 486.32703 563.374783 
L 484.018362 562.108119 
L 481.894916 560.564248 
L 479.99156 558.768519 
L 478.339545 556.750418 
L 476.965999 554.543082 
L 475.893475 552.182757 
L 475.139584 549.708198 
L 474.716704 547.160037 
L 474.631779 544.580115 
L 474.886204 542.010795 
L 475.475801 539.494265 
L 476.390889 537.071845 
L 477.616442 534.783313 
L 479.132337 532.666245 
L 480.913682 530.755404 
L 482.931229 529.082166 
L 485.151848 527.674005 
L 487.539078 526.554043 
L 490.05372 525.740671 
L 492.654484 525.247243 
L 495.298665 525.081862 
" style="fill:none;stroke:#808080;stroke-linecap:square;stroke-width:1.5;"/>
   </g>
   <g id="line2d_97">
    <path clip-path="url(#pea8e9a1297)" d="M 495.298665 525.081862 
L 497.942846 525.247243 
L 500.54361 525.740671 
L 503.058252 526.554043 
L 505.445482 527.674005 
L 507.666102 529.082166 
L 509.683648 530.755404 
L 511.464993 532.666245 
L 512.980888 534.783313 
L 514.206441 537.071845 
L 515.121529 539.494265 
L 515.711126 542.010795 
L 515.965551 544.580115 
L 515.880627 547.160037 
L 515.457747 549.708198 
L 514.703855 552.182757 
L 513.631331 554.543082 
L 512.257785 556.750418 
L 510.605771 558.768519 
L 508.702414 560.564248 
L 506.578969 562.108119 
L 504.270301 563.374783 
L 501.814319 564.34344 
L 499.25135 564.998185 
L 496.623478 565.328268 
L 493.973853 565.328268 
L 491.345981 564.998185 
L 488.783012 564.34344 
L 486.32703 563.374783 
L 484.018362 562.108119 
L 481.894916 560.564248 
L 479.99156 558.768519 
L 478.339545 556.750418 
L 476.965999 554.543082 
L 475.893475 552.182757 
L 475.139584 549.708198 
L 474.716704 547.160037 
L 474.631779 544.580115 
L 474.886204 542.010795 
L 475.475801 539.494265 
L 476.390889 537.071845 
L 477.616442 534.783313 
L 479.132337 532.666245 
L 480.913682 530.755404 
L 482.931229 529.082166 
L 485.151848 527.674005 
L 487.539078 526.554043 
L 490.05372 525.740671 
L 492.654484 525.247243 
L 495.298665 525.081862 
" style="fill:none;stroke:#808080;stroke-linecap:square;stroke-width:1.5;"/>
   </g>
   <g id="line2d_98">
    <path clip-path="url(#pea8e9a1297)" d="M 494.759384 436.673812 
L 497.403565 436.839194 
L 500.004329 437.332621 
L 502.518971 438.145994 
L 504.906201 439.265955 
L 507.126821 440.674116 
L 509.144367 442.347354 
L 510.925712 444.258195 
L 512.441607 446.375263 
L 513.66716 448.663795 
L 514.582248 451.086215 
L 515.171845 453.602745 
L 515.42627 456.172066 
L 515.341346 458.751987 
L 514.918466 461.300148 
L 514.164574 463.774707 
L 513.09205 466.135033 
L 511.718504 468.342368 
L 510.06649 470.360469 
L 508.163133 472.156198 
L 506.039688 473.700069 
L 503.73102 474.966733 
L 501.275038 475.93539 
L 498.712069 476.590136 
L 496.084197 476.920218 
L 493.434572 476.920218 
L 490.8067 476.590136 
L 488.243731 475.93539 
L 485.787749 474.966733 
L 483.479081 473.700069 
L 481.355635 472.156198 
L 479.452279 470.360469 
L 477.800264 468.342368 
L 476.426718 466.135033 
L 475.354194 463.774707 
L 474.600303 461.300148 
L 474.177423 458.751987 
L 474.092498 456.172066 
L 474.346923 453.602745 
L 474.93652 451.086215 
L 475.851608 448.663795 
L 477.077161 446.375263 
L 478.593056 444.258195 
L 480.374401 442.347354 
L 482.391948 440.674116 
L 484.612567 439.265955 
L 486.999797 438.145994 
L 489.514439 437.332621 
L 492.115203 436.839194 
L 494.759384 436.673812 
" style="fill:none;stroke:#808080;stroke-linecap:square;stroke-width:1.5;"/>
   </g>
   <g id="line2d_99">
    <path clip-path="url(#pea8e9a1297)" d="M 319.992976 226.813743 
L 322.637158 226.979124 
L 325.237922 227.472552 
L 327.752564 228.285924 
L 330.139793 229.405886 
L 332.360413 230.814047 
L 334.377959 232.487285 
L 336.159305 234.398126 
L 337.675199 236.515193 
L 338.900752 238.803726 
L 339.81584 241.226145 
L 340.405438 243.742676 
L 340.659863 246.311996 
L 340.574938 248.891918 
L 340.152058 251.440079 
L 339.398166 253.914638 
L 338.325642 256.274963 
L 336.952096 258.482299 
L 335.300082 260.5004 
L 333.396725 262.296129 
L 331.27328 263.84 
L 328.964612 265.106664 
L 326.50863 266.075321 
L 323.945661 266.730066 
L 321.317789 267.060149 
L 318.668164 267.060149 
L 316.040292 266.730066 
L 313.477323 266.075321 
L 311.021341 265.106664 
L 308.712673 263.84 
L 306.589227 262.296129 
L 304.685871 260.5004 
L 303.033856 258.482299 
L 301.66031 256.274963 
L 300.587786 253.914638 
L 299.833895 251.440079 
L 299.411015 248.891918 
L 299.32609 246.311996 
L 299.580515 243.742676 
L 300.170112 241.226145 
L 301.0852 238.803726 
L 302.310753 236.515193 
L 303.826648 234.398126 
L 305.607993 232.487285 
L 307.62554 230.814047 
L 309.846159 229.405886 
L 312.233389 228.285924 
L 314.748031 227.472552 
L 317.348795 226.979124 
L 319.992976 226.813743 
" style="fill:none;stroke:#808080;stroke-linecap:square;stroke-width:1.5;"/>
   </g>
   <g id="line2d_100"/>
   <g id="line2d_101"/>
   <g id="line2d_102"/>
   <g id="line2d_103"/>
   <g id="line2d_104"/>
   <g id="line2d_105"/>
   <g id="line2d_106"/>
   <g id="line2d_107"/>
   <g id="line2d_108"/>
   <g id="line2d_109"/>
   <g id="line2d_110"/>
   <g id="line2d_111"/>
   <g id="line2d_112"/>
   <g id="line2d_113"/>
   <g id="line2d_114"/>
   <g id="line2d_115"/>
   <g id="line2d_116"/>
   <g id="line2d_117"/>
   <g id="line2d_118"/>
   <g id="line2d_119"/>
   <g id="line2d_120"/>
   <g id="line2d_121"/>
   <g id="line2d_122"/>
   <g id="line2d_123"/>
   <g id="line2d_124"/>
   <g id="line2d_125"/>
   <g id="line2d_126"/>
   <g id="line2d_127"/>
   <g id="line2d_128"/>
   <g id="line2d_129"/>
   <g id="line2d_130"/>
   <g id="line2d_131"/>
   <g id="line2d_132"/>
   <g id="line2d_133"/>
   <g id="line2d_134"/>
   <g id="line2d_135"/>
   <g id="line2d_136"/>
   <g id="line2d_137"/>
   <g id="line2d_138"/>
   <g id="line2d_139"/>
   <g id="line2d_140"/>
   <g id="line2d_141"/>
   <g id="line2d_142"/>
   <g id="line2d_143"/>
   <g id="line2d_144"/>
   <g id="line2d_145"/>
   <g id="line2d_146"/>
   <g id="line2d_147"/>
   <g id="line2d_148"/>
   <g id="line2d_149"/>
   <g id="line2d_150"/>
   <g id="patch_3">
    <path d="M 90 630 
L 90 86.4 
" style="fill:none;stroke:#000000;stroke-linecap:square;stroke-linejoin:miter;stroke-width:0.8;"/>
   </g>
   <g id="patch_4">
    <path d="M 648 630 
L 648 86.4 
" style="fill:none;stroke:#000000;stroke-linecap:square;stroke-linejoin:miter;stroke-width:0.8;"/>
   </g>
   <g id="patch_5">
    <path d="M 90 630 
L 648 630 
" style="fill:none;stroke:#000000;stroke-linecap:square;stroke-linejoin:miter;stroke-width:0.8;"/>
   </g>
   <g id="patch_6">
    <path d="M 90 86.4 
L 648 86.4 
" style="fill:none;stroke:#000000;stroke-linecap:square;stroke-linejoin:miter;stroke-width:0.8;"/>
   </g>
   <g id="text_17">
    <!-- 0 -->
    <g transform="translate(-93.344196 540.027442)scale(0.1 -0.1)">
     <use xlink:href="#DejaVuSans-30"/>
    </g>
   </g>
   <g id="text_18">
    <!-- 0 -->
    <g transform="translate(-93.344196 519.883545)scale(0.1 -0.1)">
     <use xlink:href="#DejaVuSans-30"/>
    </g>
   </g>
   <g id="text_19">
    <!-- 0 -->
    <g transform="translate(-93.344196 499.739648)scale(0.1 -0.1)">
     <use xlink:href="#DejaVuSans-30"/>
    </g>
   </g>
  </g>
 </g>
 <defs>
  <clipPath id="pea8e9a1297">
   <rect height="543.6" width="558" x="90" y="86.4"/>
  </clipPath>
 </defs>
</svg>
