<?xml version="1.0" encoding="utf-8" standalone="no"?>
<!DOCTYPE svg PUBLIC "-//W3C//DTD SVG 1.1//EN"
  "http://www.w3.org/Graphics/SVG/1.1/DTD/svg11.dtd">
<svg height="720pt" version="1.1" viewBox="0 0 720 720" width="720pt" xmlns="http://www.w3.org/2000/svg" xmlns:xlink="http://www.w3.org/1999/xlink">
 <metadata>
  <rdf:RDF xmlns:cc="http://creativecommons.org/ns#" xmlns:dc="http://purl.org/dc/elements/1.1/" xmlns:rdf="http://www.w3.org/1999/02/22-rdf-syntax-ns#">
   <cc:Work>
    <dc:type rdf:resource="http://purl.org/dc/dcmitype/StillImage"/>
    <dc:date>2022-01-11T13:26:11.189721</dc:date>
    <dc:format>image/svg+xml</dc:format>
    <dc:creator>
     <cc:Agent>
      <dc:title>Matplotlib v3.4.3, https://matplotlib.org/</dc:title>
     </cc:Agent>
    </dc:creator>
   </cc:Work>
  </rdf:RDF>
 </metadata>
 <defs>
  <style type="text/css">*{stroke-linecap:butt;stroke-linejoin:round;}</style>
 </defs>
 <g id="figure_1">
  <g id="patch_1">
   <path d="M 0 720 
L 720 720 
L 720 0 
L 0 0 
z
" style="fill:none;"/>
  </g>
  <g id="axes_1">
   <g id="patch_2">
    <path d="M 90 630 
L 648 630 
L 648 86.4 
L 90 86.4 
z
" style="fill:#ffffff;"/>
   </g>
   <g id="PathCollection_1">
    <defs>
     <path d="M 0.972304 -8.870829 
Q -1.277159 -8.870829 -2.413438 -6.653699 
Q -3.545098 -4.441189 -3.545098 0.006929 
Q -3.545098 4.436569 -2.413438 6.653699 
Q -1.277159 8.870829 0.972304 8.870829 
Q 3.240243 8.870829 4.371903 6.653699 
Q 5.508182 4.436569 5.508182 0.006929 
Q 5.508182 -4.441189 4.371903 -6.653699 
Q 3.240243 -8.870829 0.972304 -8.870829 
z
M 0.972304 -11.18034 
Q 4.598235 -11.18034 6.51051 -8.311928 
Q 8.422784 -5.448135 8.422784 0.006929 
Q 8.422784 5.448135 6.51051 8.316547 
Q 4.598235 11.18034 0.972304 11.18034 
Q -2.649008 11.18034 -4.561283 8.316547 
Q -6.473558 5.448135 -6.473558 0.006929 
Q -6.473558 -5.448135 -4.561283 -8.311928 
Q -2.649008 -11.18034 0.972304 -11.18034 
z
" id="m92245f5df5" style="stroke:#808080;"/>
    </defs>
    <g clip-path="url(#p49796e98cc)">
     <use style="fill:#808080;stroke:#808080;" x="287.206095" xlink:href="#m92245f5df5" y="445.743243"/>
    </g>
   </g>
   <g id="PathCollection_2">
    <defs>
     <path d="M -4.535873 8.63565 
L 0.404946 8.63565 
L 0.404946 -8.424791 
L -4.971969 -7.346533 
L -4.971969 -10.102082 
L 0.376192 -11.18034 
L 3.400108 -11.18034 
L 3.400108 8.63565 
L 8.340927 8.63565 
L 8.340927 11.18034 
L -4.535873 11.18034 
L -4.535873 8.63565 
z
" id="m76c224cdb0" style="stroke:#808080;"/>
    </defs>
    <g clip-path="url(#p49796e98cc)">
     <use style="fill:#808080;stroke:#808080;" x="434.046928" xlink:href="#m76c224cdb0" y="505.420604"/>
    </g>
   </g>
   <g id="PathCollection_3">
    <defs>
     <path d="M -2.294912 8.680651 
L 8.075736 8.680651 
L 8.075736 11.18034 
L -5.867913 11.18034 
L -5.867913 8.680651 
Q -4.177916 6.929457 -1.259259 3.982555 
Q 1.664105 1.030945 2.4126 0.174178 
Q 3.838976 -1.426376 4.403877 -2.537349 
Q 4.973486 -3.648321 4.973486 -4.721634 
Q 4.973486 -6.472828 3.744825 -7.574386 
Q 2.516165 -8.680651 0.543718 -8.680651 
Q -0.854413 -8.680651 -2.407892 -8.195778 
Q -3.956663 -7.710904 -5.72198 -6.722326 
L -5.72198 -9.725719 
Q -3.928418 -10.445968 -2.370232 -10.813154 
Q -0.807338 -11.18034 0.487227 -11.18034 
Q 3.900173 -11.18034 5.929111 -9.471513 
Q 7.958048 -7.767394 7.958048 -4.914642 
Q 7.958048 -3.558879 7.449637 -2.344341 
Q 6.945933 -1.13451 5.604292 0.513119 
Q 5.237107 0.941502 3.264659 2.979855 
Q 1.296919 5.018207 -2.294912 8.680651 
z
" id="m7a36129ce5" style="stroke:#808080;"/>
    </defs>
    <g clip-path="url(#p49796e98cc)">
     <use style="fill:#808080;stroke:#808080;" x="562.203194" xlink:href="#m7a36129ce5" y="333.066389"/>
    </g>
   </g>
   <g id="PathCollection_4">
    <defs>
     <path d="M 3.77605 -0.861447 
Q 5.868466 -0.413402 7.041697 1.004637 
Q 8.219548 2.418057 8.219548 4.496617 
Q 8.219548 7.683741 6.025513 9.43435 
Q 3.831478 11.18034 -0.210165 11.18034 
Q -1.563539 11.18034 -3.000054 10.912437 
Q -4.436569 10.644533 -5.965465 10.108727 
L -5.965465 7.295743 
Q -4.755282 8.002454 -3.314147 8.362737 
Q -1.868394 8.723021 -0.293308 8.723021 
Q 2.445772 8.723021 3.882287 7.64217 
Q 5.318802 6.561319 5.318802 4.496617 
Q 5.318802 2.588961 3.983905 1.517348 
Q 2.649008 0.441116 0.270213 0.441116 
L -2.242535 0.441116 
L -2.242535 -1.956155 
L 0.385688 -1.956155 
Q 2.533533 -1.956155 3.674431 -2.815293 
Q 4.815329 -3.674431 4.815329 -5.291088 
Q 4.815329 -6.949317 3.637479 -7.836169 
Q 2.464248 -8.72764 0.270213 -8.72764 
Q -0.930733 -8.72764 -2.302582 -8.464356 
Q -3.674431 -8.20569 -5.318802 -7.660646 
L -5.318802 -10.256536 
Q -3.655955 -10.718438 -2.205582 -10.949389 
Q -0.75521 -11.18034 0.528878 -11.18034 
Q 3.849954 -11.18034 5.780705 -9.66992 
Q 7.716074 -8.164119 7.716074 -5.595944 
Q 7.716074 -3.803764 6.690652 -2.570485 
Q 5.665229 -1.337207 3.77605 -0.861447 
z
" id="m1ef9d06cf5" style="stroke:#808080;"/>
    </defs>
    <g clip-path="url(#p49796e98cc)">
     <use style="fill:#808080;stroke:#808080;" x="296.140924" xlink:href="#m1ef9d06cf5" y="182.953375"/>
    </g>
   </g>
   <g id="PathCollection_5"/>
   <g id="PathCollection_6"/>
   <g id="PathCollection_7"/>
   <g id="PathCollection_8"/>
   <g id="PathCollection_9"/>
   <g id="matplotlib.axis_1">
    <g id="xtick_1">
     <g id="line2d_1">
      <defs>
       <path d="M 0 0 
L 0 3.5 
" id="m39a4312f56" style="stroke:#000000;stroke-width:0.8;"/>
      </defs>
      <g>
       <use style="stroke:#000000;stroke-width:0.8;" x="178.01933" xlink:href="#m39a4312f56" y="630"/>
      </g>
     </g>
     <g id="text_1">
      <!-- −50 -->
      <g transform="translate(167.466987 644.598438)scale(0.1 -0.1)">
       <defs>
        <path d="M 678 2272 
L 4684 2272 
L 4684 1741 
L 678 1741 
L 678 2272 
z
" id="DejaVuSans-2212" transform="scale(0.015625)"/>
        <path d="M 691 4666 
L 3169 4666 
L 3169 4134 
L 1269 4134 
L 1269 2991 
Q 1406 3038 1543 3061 
Q 1681 3084 1819 3084 
Q 2600 3084 3056 2656 
Q 3513 2228 3513 1497 
Q 3513 744 3044 326 
Q 2575 -91 1722 -91 
Q 1428 -91 1123 -41 
Q 819 9 494 109 
L 494 744 
Q 775 591 1075 516 
Q 1375 441 1709 441 
Q 2250 441 2565 725 
Q 2881 1009 2881 1497 
Q 2881 1984 2565 2268 
Q 2250 2553 1709 2553 
Q 1456 2553 1204 2497 
Q 953 2441 691 2322 
L 691 4666 
z
" id="DejaVuSans-35" transform="scale(0.015625)"/>
        <path d="M 2034 4250 
Q 1547 4250 1301 3770 
Q 1056 3291 1056 2328 
Q 1056 1369 1301 889 
Q 1547 409 2034 409 
Q 2525 409 2770 889 
Q 3016 1369 3016 2328 
Q 3016 3291 2770 3770 
Q 2525 4250 2034 4250 
z
M 2034 4750 
Q 2819 4750 3233 4129 
Q 3647 3509 3647 2328 
Q 3647 1150 3233 529 
Q 2819 -91 2034 -91 
Q 1250 -91 836 529 
Q 422 1150 422 2328 
Q 422 3509 836 4129 
Q 1250 4750 2034 4750 
z
" id="DejaVuSans-30" transform="scale(0.015625)"/>
       </defs>
       <use xlink:href="#DejaVuSans-2212"/>
       <use x="83.789062" xlink:href="#DejaVuSans-35"/>
       <use x="147.412109" xlink:href="#DejaVuSans-30"/>
      </g>
     </g>
    </g>
    <g id="xtick_2">
     <g id="line2d_2">
      <g>
       <use style="stroke:#000000;stroke-width:0.8;" x="289.291344" xlink:href="#m39a4312f56" y="630"/>
      </g>
     </g>
     <g id="text_2">
      <!-- 0 -->
      <g transform="translate(286.110094 644.598438)scale(0.1 -0.1)">
       <use xlink:href="#DejaVuSans-30"/>
      </g>
     </g>
    </g>
    <g id="xtick_3">
     <g id="line2d_3">
      <g>
       <use style="stroke:#000000;stroke-width:0.8;" x="400.563358" xlink:href="#m39a4312f56" y="630"/>
      </g>
     </g>
     <g id="text_3">
      <!-- 50 -->
      <g transform="translate(394.200858 644.598438)scale(0.1 -0.1)">
       <use xlink:href="#DejaVuSans-35"/>
       <use x="63.623047" xlink:href="#DejaVuSans-30"/>
      </g>
     </g>
    </g>
    <g id="xtick_4">
     <g id="line2d_4">
      <g>
       <use style="stroke:#000000;stroke-width:0.8;" x="511.835372" xlink:href="#m39a4312f56" y="630"/>
      </g>
     </g>
     <g id="text_4">
      <!-- 100 -->
      <g transform="translate(502.291622 644.598438)scale(0.1 -0.1)">
       <defs>
        <path d="M 794 531 
L 1825 531 
L 1825 4091 
L 703 3866 
L 703 4441 
L 1819 4666 
L 2450 4666 
L 2450 531 
L 3481 531 
L 3481 0 
L 794 0 
L 794 531 
z
" id="DejaVuSans-31" transform="scale(0.015625)"/>
       </defs>
       <use xlink:href="#DejaVuSans-31"/>
       <use x="63.623047" xlink:href="#DejaVuSans-30"/>
       <use x="127.246094" xlink:href="#DejaVuSans-30"/>
      </g>
     </g>
    </g>
    <g id="xtick_5">
     <g id="line2d_5">
      <g>
       <use style="stroke:#000000;stroke-width:0.8;" x="623.107385" xlink:href="#m39a4312f56" y="630"/>
      </g>
     </g>
     <g id="text_5">
      <!-- 150 -->
      <g transform="translate(613.563635 644.598438)scale(0.1 -0.1)">
       <use xlink:href="#DejaVuSans-31"/>
       <use x="63.623047" xlink:href="#DejaVuSans-35"/>
       <use x="127.246094" xlink:href="#DejaVuSans-30"/>
      </g>
     </g>
    </g>
   </g>
   <g id="matplotlib.axis_2">
    <g id="ytick_1">
     <g id="line2d_6">
      <defs>
       <path d="M 0 0 
L -3.5 0 
" id="m80c3e7f58b" style="stroke:#000000;stroke-width:0.8;"/>
      </defs>
      <g>
       <use style="stroke:#000000;stroke-width:0.8;" x="90" xlink:href="#m80c3e7f58b" y="544.252136"/>
      </g>
     </g>
     <g id="text_6">
      <!-- −50 -->
      <g transform="translate(61.895313 548.051355)scale(0.1 -0.1)">
       <use xlink:href="#DejaVuSans-2212"/>
       <use x="83.789062" xlink:href="#DejaVuSans-35"/>
       <use x="147.412109" xlink:href="#DejaVuSans-30"/>
      </g>
     </g>
    </g>
    <g id="ytick_2">
     <g id="line2d_7">
      <g>
       <use style="stroke:#000000;stroke-width:0.8;" x="90" xlink:href="#m80c3e7f58b" y="435.851658"/>
      </g>
     </g>
     <g id="text_7">
      <!-- 0 -->
      <g transform="translate(76.6375 439.650877)scale(0.1 -0.1)">
       <use xlink:href="#DejaVuSans-30"/>
      </g>
     </g>
    </g>
    <g id="ytick_3">
     <g id="line2d_8">
      <g>
       <use style="stroke:#000000;stroke-width:0.8;" x="90" xlink:href="#m80c3e7f58b" y="327.45118"/>
      </g>
     </g>
     <g id="text_8">
      <!-- 50 -->
      <g transform="translate(70.275 331.250399)scale(0.1 -0.1)">
       <use xlink:href="#DejaVuSans-35"/>
       <use x="63.623047" xlink:href="#DejaVuSans-30"/>
      </g>
     </g>
    </g>
    <g id="ytick_4">
     <g id="line2d_9">
      <g>
       <use style="stroke:#000000;stroke-width:0.8;" x="90" xlink:href="#m80c3e7f58b" y="219.050702"/>
      </g>
     </g>
     <g id="text_9">
      <!-- 100 -->
      <g transform="translate(63.9125 222.849921)scale(0.1 -0.1)">
       <use xlink:href="#DejaVuSans-31"/>
       <use x="63.623047" xlink:href="#DejaVuSans-30"/>
       <use x="127.246094" xlink:href="#DejaVuSans-30"/>
      </g>
     </g>
    </g>
    <g id="ytick_5">
     <g id="line2d_10">
      <g>
       <use style="stroke:#000000;stroke-width:0.8;" x="90" xlink:href="#m80c3e7f58b" y="110.650224"/>
      </g>
     </g>
     <g id="text_10">
      <!-- 150 -->
      <g transform="translate(63.9125 114.449443)scale(0.1 -0.1)">
       <use xlink:href="#DejaVuSans-31"/>
       <use x="63.623047" xlink:href="#DejaVuSans-35"/>
       <use x="127.246094" xlink:href="#DejaVuSans-30"/>
      </g>
     </g>
    </g>
   </g>
   <g id="line2d_11">
    <path clip-path="url(#p49796e98cc)" d="M 296.140924 182.953375 
L 285.47428 186.853608 
L 275.011596 191.245427 
L 264.837321 196.236869 
L 255.084288 201.968566 
L 245.967065 208.617569 
L 237.833379 216.381281 
L 231.210754 225.400539 
L 226.735749 235.588067 
L 224.828719 246.506019 
L 225.378637 257.570218 
L 227.885431 268.382106 
L 231.805172 278.794815 
L 236.71311 288.807005 
L 242.310611 298.472805 
L 248.389946 307.860048 
L 254.801869 317.03572 
L 261.432932 326.06263 
L 268.190131 335.000231 
L 274.989718 343.906987 
L 281.747504 352.843551 
L 288.368144 361.876702 
L 294.729974 371.084308 
L 300.659178 380.561248 
L 305.880062 390.423675 
L 309.913807 400.795586 
L 311.897126 411.701687 
L 310.54078 422.666093 
L 305.189358 432.392058 
L 296.940072 439.999223 
L 287.206095 445.743243 
" style="fill:none;stroke:#808080;stroke-linecap:square;stroke-width:1.5;"/>
   </g>
   <g id="line2d_12">
    <path clip-path="url(#p49796e98cc)" d="M 224.828719 445.743243 
L 224.828719 182.953375 
L 311.897126 182.953375 
L 311.897126 445.743243 
L 224.828719 445.743243 
" style="fill:none;stroke:#d3d3d3;stroke-linecap:square;stroke-width:0.5;"/>
   </g>
   <g id="line2d_13">
    <path clip-path="url(#p49796e98cc)" d="M 287.206095 445.743243 
L 276.743519 450.577592 
L 266.007519 454.793411 
L 254.935318 458.071628 
L 243.482739 459.608835 
L 233.255395 455.715083 
L 237.427456 445.908608 
L 247.169446 439.821527 
L 258.101944 436.056919 
L 269.499575 433.983966 
L 281.067655 433.279221 
L 292.645359 433.728276 
L 304.134152 435.169602 
L 315.471211 437.473486 
L 326.616465 440.532404 
L 337.545104 444.255767 
L 348.242783 448.566564 
L 358.702392 453.398956 
L 368.921807 458.69641 
L 378.902315 464.4102 
L 388.647497 470.498178 
L 398.162436 476.923747 
L 407.453159 483.655017 
L 416.52624 490.664092 
L 425.388523 497.926482 
L 434.046928 505.420604 
" style="fill:none;stroke:#808080;stroke-linecap:square;stroke-width:1.5;"/>
   </g>
   <g id="line2d_14">
    <path clip-path="url(#p49796e98cc)" d="M 233.255395 505.420604 
L 233.255395 433.279221 
L 434.046928 433.279221 
L 434.046928 505.420604 
L 233.255395 505.420604 
" style="fill:none;stroke:#d3d3d3;stroke-linecap:square;stroke-width:0.5;"/>
   </g>
   <g id="line2d_15">
    <path clip-path="url(#p49796e98cc)" d="M 434.046928 505.420604 
L 442.60271 512.914093 
L 451.276273 520.279578 
L 460.081133 527.497421 
L 469.033501 534.542646 
L 478.153063 541.382835 
L 487.464052 547.974873 
L 496.996736 554.259742 
L 506.789425 560.153755 
L 516.890888 565.532971 
L 527.361805 570.203573 
L 538.267551 573.84211 
L 549.62501 575.875043 
L 561.160839 575.314416 
L 571.771999 571.05799 
L 579.942452 563.316318 
L 585.423666 553.574069 
L 588.880048 542.950601 
L 590.938045 531.958575 
L 592.011669 520.815205 
L 592.364247 509.616841 
L 592.168273 498.40859 
L 591.541463 487.212219 
L 590.567336 476.038165 
L 589.307206 464.891091 
L 587.807416 453.772614 
L 586.103889 442.682733 
L 584.225076 431.620578 
L 582.193939 420.584842 
L 580.029318 409.574009 
L 577.746901 398.586493 
L 575.359919 387.620712 
L 572.879664 376.675126 
L 570.315875 365.748263 
L 567.677039 354.838722 
L 564.970609 343.94518 
L 562.203194 333.066389 
" style="fill:none;stroke:#808080;stroke-linecap:square;stroke-width:1.5;"/>
   </g>
   <g id="line2d_16">
    <path clip-path="url(#p49796e98cc)" d="M 434.046928 575.875043 
L 434.046928 333.066389 
L 592.364247 333.066389 
L 592.364247 575.875043 
L 434.046928 575.875043 
" style="fill:none;stroke:#d3d3d3;stroke-linecap:square;stroke-width:0.5;"/>
   </g>
   <g id="line2d_17">
    <path clip-path="url(#p49796e98cc)" d="M 562.203194 333.066389 
L 559.307114 322.171041 
L 556.222251 311.327552 
L 552.927928 300.545471 
L 549.400251 289.836076 
L 545.611565 279.2131 
L 541.529875 268.693698 
L 537.11826 258.299754 
L 532.334383 248.059603 
L 527.130282 238.01026 
L 521.452748 228.200171 
L 515.244802 218.692346 
L 508.448967 209.567361 
L 501.013089 200.925123 
L 492.899101 192.883503 
L 484.093883 185.571495 
L 474.619345 179.115461 
L 464.537036 173.620088 
L 453.943282 169.149876 
L 442.955063 165.718755 
L 431.691907 163.292015 
L 420.26068 161.798378 
L 408.747244 161.145949 
L 397.214816 161.236409 
L 385.706574 161.974757 
L 374.249947 163.274618 
L 362.860934 165.06028 
L 351.547708 167.266768 
L 340.313348 169.838936 
L 329.157779 172.730182 
L 318.079115 175.901118 
L 307.074545 179.318343 
L 296.140924 182.953375 
" style="fill:none;stroke:#808080;stroke-linecap:square;stroke-width:1.5;"/>
   </g>
   <g id="line2d_18">
    <path clip-path="url(#p49796e98cc)" d="M 296.140924 333.066389 
L 296.140924 161.145949 
L 562.203194 161.145949 
L 562.203194 333.066389 
L 296.140924 333.066389 
" style="fill:none;stroke:#d3d3d3;stroke-linecap:square;stroke-width:0.5;"/>
   </g>
   <g id="line2d_19">
    <path clip-path="url(#p49796e98cc)" d="M 449.042251 489.401154 
L 449.042251 489.401154 
L 449.042251 489.401154 
" style="fill:none;stroke:#000000;stroke-linecap:square;stroke-width:3;"/>
   </g>
   <g id="line2d_20">
    <path clip-path="url(#p49796e98cc)" d="M 449.042251 489.401154 
L 449.042251 489.401154 
L 449.042251 489.401154 
L 449.042251 489.401154 
L 449.042251 489.401154 
" style="fill:none;stroke:#d3d3d3;stroke-linecap:square;stroke-width:0.5;"/>
   </g>
   <g id="line2d_21">
    <path clip-path="url(#p49796e98cc)" d="M 449.042251 489.401154 
L 449.042251 489.401154 
L 449.042251 489.401154 
" style="fill:none;stroke:#000000;stroke-linecap:square;stroke-width:3;"/>
   </g>
   <g id="line2d_22">
    <path clip-path="url(#p49796e98cc)" d="M 449.042251 489.401154 
L 449.042251 489.401154 
L 449.042251 489.401154 
L 449.042251 489.401154 
L 449.042251 489.401154 
" style="fill:none;stroke:#d3d3d3;stroke-linecap:square;stroke-width:0.5;"/>
   </g>
   <g id="line2d_23">
    <path clip-path="url(#p49796e98cc)" d="M 449.042251 489.401154 
L 457.35921 496.685533 
L 465.759169 503.818758 
L 474.246743 510.776617 
L 482.825868 517.528277 
L 491.498828 524.033736 
L 500.264354 530.239982 
L 509.113884 536.075089 
L 518.023833 541.438929 
L 526.938927 546.188534 
L 535.73422 550.116252 
L 544.125684 552.926632 
L 551.477985 554.27023 
L 556.671204 554.080089 
L 559.448394 553.005492 
L 561.972918 550.526738 
L 564.838393 545.336226 
L 567.23854 537.897592 
L 568.877319 529.104537 
L 569.796031 519.536125 
L 570.110099 509.513203 
L 569.929238 499.214151 
L 569.342528 488.741956 
L 568.419629 478.158578 
L 567.214857 467.502689 
L 565.770933 456.799183 
L 564.121892 446.064493 
L 562.295225 435.309682 
L 560.313441 424.542306 
L 558.195208 413.767577 
L 555.956194 402.989108 
L 553.609698 392.209394 
L 551.167121 381.430144 
L 548.638335 370.652501 
L 546.03196 359.877198 
L 540.615956 338.335111 
" style="fill:none;stroke:#000000;stroke-linecap:square;stroke-width:3;"/>
   </g>
   <g id="line2d_24">
    <path clip-path="url(#p49796e98cc)" d="M 449.042251 554.27023 
L 449.042251 338.335111 
L 570.110099 338.335111 
L 570.110099 554.27023 
L 449.042251 554.27023 
" style="fill:none;stroke:#d3d3d3;stroke-linecap:square;stroke-width:0.5;"/>
   </g>
   <g id="line2d_25">
    <path clip-path="url(#p49796e98cc)" d="M 303.526508 203.404749 
L 303.526508 203.404749 
L 293.755246 206.976874 
L 284.376983 210.912268 
L 275.534002 215.248362 
L 267.430332 220.006507 
L 260.3474 225.163507 
L 254.625356 230.608774 
L 250.538742 236.147059 
L 248.083008 241.714882 
L 247.050646 247.676831 
L 247.405385 254.477124 
L 249.187706 262.108458 
L 252.272032 270.281561 
L 256.419309 278.733442 
L 261.387583 287.308718 
L 266.976048 295.936013 
L 273.027988 304.595491 
L 279.421391 313.298324 
L 286.05839 322.076689 
L 292.856033 330.980894 
L 299.738012 340.081984 
L 306.625737 349.480353 
L 313.425466 359.32369 
L 320.003438 369.842548 
L 326.124877 381.420637 
L 331.275453 394.716546 
L 334.126508 410.673908 
L 332.974863 419.741261 
" style="fill:none;stroke:#000000;stroke-linecap:square;stroke-width:3;"/>
   </g>
   <g id="line2d_26">
    <path clip-path="url(#p49796e98cc)" d="M 247.050646 419.741261 
L 247.050646 203.404749 
L 334.126508 203.404749 
L 334.126508 419.741261 
L 247.050646 419.741261 
" style="fill:none;stroke:#d3d3d3;stroke-linecap:square;stroke-width:0.5;"/>
   </g>
   <g id="line2d_27">
    <path clip-path="url(#p49796e98cc)" d="M 332.974863 419.741261 
L 345.493903 424.005776 
L 357.283035 428.755858 
L 368.71369 434.036449 
L 379.800457 439.783165 
L 390.558704 445.94192 
L 401.003906 452.466974 
L 411.151227 459.319399 
L 421.015256 466.465869 
L 430.609857 473.877683 
L 439.948103 481.52999 
L 449.042251 489.401154 
" style="fill:none;stroke:#000000;stroke-linecap:square;stroke-width:3;"/>
   </g>
   <g id="line2d_28">
    <path clip-path="url(#p49796e98cc)" d="M 332.974863 489.401154 
L 332.974863 419.741261 
L 449.042251 419.741261 
L 449.042251 489.401154 
L 332.974863 489.401154 
" style="fill:none;stroke:#d3d3d3;stroke-linecap:square;stroke-width:0.5;"/>
   </g>
   <g id="line2d_29">
    <path clip-path="url(#p49796e98cc)" d="M 540.615956 338.335111 
L 537.809693 327.777465 
L 534.831346 317.308152 
L 531.664206 306.942042 
L 528.289482 296.696631 
L 524.68613 286.592871 
L 520.830759 276.656206 
L 516.697683 266.917844 
L 512.259217 257.416231 
L 507.486374 248.198635 
L 502.350128 239.322558 
L 496.823337 230.856433 
L 490.883248 222.878708 
L 484.513977 215.474165 
L 477.707783 208.726726 
L 470.4638 202.70953 
L 462.784328 197.475606 
L 454.6718 193.053615 
L 446.13088 189.450181 
L 437.176061 186.655114 
L 427.838819 184.644688 
L 418.167992 183.382407 
L 408.223165 182.820032 
L 398.065694 182.900652 
L 387.751661 183.563116 
L 377.328248 184.746306 
L 366.832939 186.392263 
L 356.294373 188.447977 
L 345.733858 190.866097 
L 335.166983 193.604945 
L 324.605048 196.628117 
L 314.056233 199.903919 
L 303.526508 203.404749 
L 303.526508 203.404749 
" style="fill:none;stroke:#000000;stroke-linecap:square;stroke-width:3;"/>
   </g>
   <g id="line2d_30">
    <path clip-path="url(#p49796e98cc)" d="M 303.526508 338.335111 
L 303.526508 182.820032 
L 540.615956 182.820032 
L 540.615956 338.335111 
L 303.526508 338.335111 
" style="fill:none;stroke:#d3d3d3;stroke-linecap:square;stroke-width:0.5;"/>
   </g>
   <g id="line2d_31">
    <path clip-path="url(#p49796e98cc)" d="M 540.615956 338.335111 
L 540.615956 338.335111 
L 540.615956 338.335111 
" style="fill:none;stroke:#000000;stroke-linecap:square;stroke-width:3;"/>
   </g>
   <g id="line2d_32">
    <path clip-path="url(#p49796e98cc)" d="M 540.615956 338.335111 
L 540.615956 338.335111 
L 540.615956 338.335111 
L 540.615956 338.335111 
L 540.615956 338.335111 
" style="fill:none;stroke:#d3d3d3;stroke-linecap:square;stroke-width:0.5;"/>
   </g>
   <g id="line2d_33">
    <path clip-path="url(#p49796e98cc)" d="M 540.615956 338.335111 
L 543.355588 349.104666 
L 540.615956 338.335111 
L 540.615956 338.335111 
" style="fill:none;stroke:#000000;stroke-linecap:square;stroke-width:3;"/>
   </g>
   <g id="line2d_34">
    <path clip-path="url(#p49796e98cc)" d="M 540.615956 349.104666 
L 540.615956 338.335111 
L 543.355588 338.335111 
L 543.355588 349.104666 
L 540.615956 349.104666 
" style="fill:none;stroke:#d3d3d3;stroke-linecap:square;stroke-width:0.5;"/>
   </g>
   <g id="line2d_35">
    <path clip-path="url(#p49796e98cc)" d="M 419.051605 521.440053 
L 419.051605 521.440053 
L 419.051605 521.440053 
" style="fill:none;stroke:#000000;stroke-linecap:square;stroke-width:3;"/>
   </g>
   <g id="line2d_36">
    <path clip-path="url(#p49796e98cc)" d="M 419.051605 521.440053 
L 419.051605 521.440053 
L 419.051605 521.440053 
L 419.051605 521.440053 
L 419.051605 521.440053 
" style="fill:none;stroke:#d3d3d3;stroke-linecap:square;stroke-width:0.5;"/>
   </g>
   <g id="line2d_37">
    <path clip-path="url(#p49796e98cc)" d="M 419.051605 521.440053 
L 419.051605 521.440053 
L 419.051605 521.440053 
" style="fill:none;stroke:#000000;stroke-linecap:square;stroke-width:3;"/>
   </g>
   <g id="line2d_38">
    <path clip-path="url(#p49796e98cc)" d="M 419.051605 521.440053 
L 419.051605 521.440053 
L 419.051605 521.440053 
L 419.051605 521.440053 
L 419.051605 521.440053 
" style="fill:none;stroke:#d3d3d3;stroke-linecap:square;stroke-width:0.5;"/>
   </g>
   <g id="line2d_39">
    <path clip-path="url(#p49796e98cc)" d="M 308.907732 458.18363 
L 297.226456 465.1013 
L 297.226456 465.1013 
" style="fill:none;stroke:#000000;stroke-linecap:square;stroke-width:3;"/>
   </g>
   <g id="line2d_40">
    <path clip-path="url(#p49796e98cc)" d="M 297.226456 465.1013 
L 297.226456 458.18363 
L 308.907732 458.18363 
L 308.907732 465.1013 
L 297.226456 465.1013 
" style="fill:none;stroke:#d3d3d3;stroke-linecap:square;stroke-width:0.5;"/>
   </g>
   <g id="line2d_41">
    <path clip-path="url(#p49796e98cc)" d="M 297.226456 465.1013 
L 297.226456 465.1013 
L 297.226456 465.1013 
" style="fill:none;stroke:#000000;stroke-linecap:square;stroke-width:3;"/>
   </g>
   <g id="line2d_42">
    <path clip-path="url(#p49796e98cc)" d="M 297.226456 465.1013 
L 297.226456 465.1013 
L 297.226456 465.1013 
L 297.226456 465.1013 
L 297.226456 465.1013 
" style="fill:none;stroke:#d3d3d3;stroke-linecap:square;stroke-width:0.5;"/>
   </g>
   <g id="line2d_43">
    <path clip-path="url(#p49796e98cc)" d="M 419.051605 521.440053 
L 427.84621 529.142653 
L 436.793377 536.740398 
L 445.915523 544.218225 
L 455.241133 551.557015 
L 464.807297 558.731934 
L 474.663749 565.709764 
L 484.879589 572.444394 
L 495.555017 578.868582 
L 506.84285 584.877408 
L 518.98939 590.290894 
L 532.409418 594.757588 
L 547.772035 597.479857 
L 565.650474 596.548743 
L 584.095604 589.110488 
L 597.911986 576.105898 
L 606.008938 561.811912 
L 610.521557 548.00361 
L 612.998772 534.812613 
L 614.227307 522.094285 
L 614.618396 509.72048 
L 614.407308 497.603029 
L 613.740398 485.682481 
L 612.715044 473.917753 
L 611.399554 462.279492 
L 609.843899 450.746046 
L 608.085887 439.300972 
L 606.154927 427.931474 
L 604.074436 416.627377 
L 601.863429 405.38044 
L 599.537608 394.183879 
L 597.11014 383.03203 
L 594.592206 371.920109 
L 591.993416 360.844025 
L 589.322117 349.800246 
L 583.790432 327.797667 
" style="fill:none;stroke:#000000;stroke-linecap:square;stroke-width:3;"/>
   </g>
   <g id="line2d_44">
    <path clip-path="url(#p49796e98cc)" d="M 419.051605 597.479857 
L 419.051605 327.797667 
L 614.618396 327.797667 
L 614.618396 597.479857 
L 419.051605 597.479857 
" style="fill:none;stroke:#d3d3d3;stroke-linecap:square;stroke-width:0.5;"/>
   </g>
   <g id="line2d_45">
    <path clip-path="url(#p49796e98cc)" d="M 288.755339 162.502002 
L 288.755339 162.502002 
L 277.193313 166.730343 
L 265.64621 171.578585 
L 254.14064 177.225377 
L 242.738245 183.930624 
L 231.586731 192.071632 
L 221.041401 202.153787 
L 211.882765 214.654018 
L 205.38849 229.461252 
L 202.606792 245.335206 
L 203.351889 260.663312 
L 206.583155 274.655754 
L 211.338313 287.308069 
L 217.00691 298.880568 
L 223.233638 309.636892 
L 229.803843 319.784082 
L 236.57575 329.475948 
L 243.444472 338.826937 
L 250.321872 347.923772 
L 257.123404 356.83308 
L 263.756997 365.605118 
L 270.11055 374.273051 
L 276.034481 382.844927 
L 281.314918 391.279948 
L 285.635246 399.426714 
L 288.552161 406.874626 
L 289.667745 412.729466 
L 289.751237 411.942671 
" style="fill:none;stroke:#000000;stroke-linecap:square;stroke-width:3;"/>
   </g>
   <g id="line2d_46">
    <path clip-path="url(#p49796e98cc)" d="M 202.606792 412.729466 
L 202.606792 162.502002 
L 289.751237 162.502002 
L 289.751237 412.729466 
L 202.606792 412.729466 
" style="fill:none;stroke:#d3d3d3;stroke-linecap:square;stroke-width:0.5;"/>
   </g>
   <g id="line2d_47">
    <path clip-path="url(#p49796e98cc)" d="M 297.226456 465.1013 
L 285.742009 470.406334 
L 273.547517 475.191239 
L 260.10558 479.158515 
L 243.554206 481.288819 
L 213.131832 464.972517 
L 222.368285 429.946102 
L 237.781568 420.164865 
L 252.491977 415.076971 
L 266.847028 412.458423 
L 280.875486 411.599933 
L 289.751237 411.942671 
" style="fill:none;stroke:#000000;stroke-linecap:square;stroke-width:3;"/>
   </g>
   <g id="line2d_48">
    <path clip-path="url(#p49796e98cc)" d="M 213.131832 481.288819 
L 213.131832 411.599933 
L 297.226456 411.599933 
L 297.226456 481.288819 
L 213.131832 481.288819 
" style="fill:none;stroke:#d3d3d3;stroke-linecap:square;stroke-width:0.5;"/>
   </g>
   <g id="line2d_49">
    <path clip-path="url(#p49796e98cc)" d="M 583.790432 327.797667 
L 580.804536 316.564617 
L 577.613155 305.346952 
L 574.19165 294.148899 
L 570.51102 282.975521 
L 566.537001 271.833329 
L 562.228991 260.731191 
L 557.538836 249.681664 
L 552.409549 238.702975 
L 546.77419 227.821885 
L 540.555369 217.077785 
L 533.666268 206.528259 
L 526.014686 196.256013 
L 517.512202 186.37608 
L 508.09042 177.040279 
L 497.723966 168.433459 
L 486.454362 160.755315 
L 474.402271 154.186561 
L 461.755685 148.849571 
L 448.734066 144.782395 
L 435.544994 141.939342 
L 422.353368 140.214348 
L 409.271323 139.471866 
L 396.363938 139.572165 
L 383.661487 140.386398 
L 371.171646 141.80293 
L 358.888928 143.728297 
L 346.801043 146.085559 
L 334.892838 148.811774 
L 323.148576 151.855419 
L 311.553181 155.17412 
L 300.092856 158.732767 
L 288.755339 162.502002 
L 288.755339 162.502002 
" style="fill:none;stroke:#000000;stroke-linecap:square;stroke-width:3;"/>
   </g>
   <g id="line2d_50">
    <path clip-path="url(#p49796e98cc)" d="M 288.755339 327.797667 
L 288.755339 139.471866 
L 583.790432 139.471866 
L 583.790432 327.797667 
L 288.755339 327.797667 
" style="fill:none;stroke:#d3d3d3;stroke-linecap:square;stroke-width:0.5;"/>
   </g>
   <g id="line2d_51">
    <path clip-path="url(#p49796e98cc)" d="M 308.907732 458.18363 
L 319.899463 461.201392 
L 329.596304 464.505758 
L 339.20253 468.37727 
L 348.691093 472.761462 
L 358.043156 477.609654 
L 367.245927 482.878481 
L 376.291088 488.529382 
L 385.173645 494.528094 
L 393.891063 500.844164 
L 402.442623 507.450501 
L 410.828942 514.322975 
L 419.051605 521.440053 
" style="fill:none;stroke:#000000;stroke-linecap:square;stroke-width:3;"/>
   </g>
   <g id="line2d_52">
    <path clip-path="url(#p49796e98cc)" d="M 308.907732 521.440053 
L 308.907732 458.18363 
L 419.051605 458.18363 
L 419.051605 521.440053 
L 308.907732 521.440053 
" style="fill:none;stroke:#d3d3d3;stroke-linecap:square;stroke-width:0.5;"/>
   </g>
   <g id="line2d_53">
    <path clip-path="url(#p49796e98cc)" d="M 583.790432 327.797667 
L 586.58563 338.785695 
L 583.790432 327.797667 
L 583.790432 327.797667 
" style="fill:none;stroke:#000000;stroke-linecap:square;stroke-width:3;"/>
   </g>
   <g id="line2d_54">
    <path clip-path="url(#p49796e98cc)" d="M 583.790432 338.785695 
L 583.790432 327.797667 
L 586.58563 327.797667 
L 586.58563 338.785695 
L 583.790432 338.785695 
" style="fill:none;stroke:#d3d3d3;stroke-linecap:square;stroke-width:0.5;"/>
   </g>
   <g id="line2d_55">
    <path clip-path="url(#p49796e98cc)" d="M 583.790432 327.797667 
L 583.790432 327.797667 
L 583.790432 327.797667 
" style="fill:none;stroke:#000000;stroke-linecap:square;stroke-width:3;"/>
   </g>
   <g id="line2d_56">
    <path clip-path="url(#p49796e98cc)" d="M 583.790432 327.797667 
L 583.790432 327.797667 
L 583.790432 327.797667 
L 583.790432 327.797667 
L 583.790432 327.797667 
" style="fill:none;stroke:#d3d3d3;stroke-linecap:square;stroke-width:0.5;"/>
   </g>
   <g id="line2d_57">
    <path clip-path="url(#p49796e98cc)" d="M 287.206095 413.2231 
L 291.474839 413.49009 
L 295.673492 414.286676 
L 299.733109 415.599777 
L 303.587034 417.407834 
L 307.171984 419.681157 
L 310.429094 422.382419 
L 313.304884 425.467265 
L 315.752132 428.885043 
L 317.730655 432.579631 
L 319.207965 436.490365 
L 320.159806 440.553032 
L 320.570548 444.700921 
L 320.433446 448.865926 
L 319.750752 452.979656 
L 318.533676 456.974564 
L 316.802202 460.785055 
L 314.58476 464.348559 
L 311.917762 467.606565 
L 308.844998 470.505575 
L 305.416925 472.997989 
L 301.68983 475.04288 
L 297.724912 476.606672 
L 293.587276 477.663688 
L 289.344861 478.19657 
L 285.067328 478.19657 
L 280.824913 477.663688 
L 276.687277 476.606672 
L 272.722359 475.04288 
L 268.995265 472.997989 
L 265.567191 470.505575 
L 262.494428 467.606565 
L 259.827429 464.348559 
L 257.609988 460.785055 
L 255.878513 456.974564 
L 254.661437 452.979656 
L 253.978743 448.865926 
L 253.841641 444.700921 
L 254.252383 440.553032 
L 255.204224 436.490365 
L 256.681534 432.579631 
L 258.660057 428.885043 
L 261.107306 425.467265 
L 263.983095 422.382419 
L 267.240206 419.681157 
L 270.825156 417.407834 
L 274.67908 415.599777 
L 278.738698 414.286676 
L 282.93735 413.49009 
L 287.206095 413.2231 
" style="fill:none;stroke:#808080;stroke-linecap:square;stroke-width:1.5;"/>
   </g>
   <g id="line2d_58">
    <path clip-path="url(#p49796e98cc)" d="M 434.046928 472.90046 
L 438.315673 473.16745 
L 442.514325 473.964036 
L 446.573943 475.277138 
L 450.427867 477.085194 
L 454.012817 479.358518 
L 457.269927 482.05978 
L 460.145717 485.144626 
L 462.592965 488.562403 
L 464.571488 492.256991 
L 466.048799 496.167726 
L 467.000639 500.230392 
L 467.411381 504.378282 
L 467.274279 508.543286 
L 466.591586 512.657016 
L 465.374509 516.651925 
L 463.643035 520.462415 
L 461.425593 524.025919 
L 458.758595 527.283925 
L 455.685832 530.182935 
L 452.257758 532.675349 
L 448.530663 534.72024 
L 444.565746 536.284032 
L 440.42811 537.341048 
L 436.185695 537.873931 
L 431.908161 537.873931 
L 427.665746 537.341048 
L 423.52811 536.284032 
L 419.563193 534.72024 
L 415.836098 532.675349 
L 412.408024 530.182935 
L 409.335261 527.283925 
L 406.668262 524.025919 
L 404.450821 520.462415 
L 402.719347 516.651925 
L 401.50227 512.657016 
L 400.819576 508.543286 
L 400.682475 504.378282 
L 401.093216 500.230392 
L 402.045057 496.167726 
L 403.522368 492.256991 
L 405.500891 488.562403 
L 407.948139 485.144626 
L 410.823928 482.05978 
L 414.081039 479.358518 
L 417.665989 477.085194 
L 421.519913 475.277138 
L 425.579531 473.964036 
L 429.778183 473.16745 
L 434.046928 472.90046 
" style="fill:none;stroke:#808080;stroke-linecap:square;stroke-width:1.5;"/>
   </g>
   <g id="line2d_59">
    <path clip-path="url(#p49796e98cc)" d="M 562.203194 300.546246 
L 566.471939 300.813235 
L 570.670591 301.609821 
L 574.730209 302.922923 
L 578.584133 304.73098 
L 582.169083 307.004303 
L 585.426194 309.705565 
L 588.301983 312.790411 
L 590.749231 316.208188 
L 592.727754 319.902777 
L 594.205065 323.813511 
L 595.156906 327.876177 
L 595.567647 332.024067 
L 595.430546 336.189071 
L 594.747852 340.302802 
L 593.530775 344.29771 
L 591.799301 348.1082 
L 589.58186 351.671705 
L 586.914861 354.92971 
L 583.842098 357.828721 
L 580.414024 360.321134 
L 576.686929 362.366026 
L 572.722012 363.929818 
L 568.584376 364.986833 
L 564.341961 365.519716 
L 560.064427 365.519716 
L 555.822012 364.986833 
L 551.684376 363.929818 
L 547.719459 362.366026 
L 543.992364 360.321134 
L 540.56429 357.828721 
L 537.491527 354.92971 
L 534.824529 351.671705 
L 532.607087 348.1082 
L 530.875613 344.29771 
L 529.658537 340.302802 
L 528.975843 336.189071 
L 528.838741 332.024067 
L 529.249483 327.876177 
L 530.201323 323.813511 
L 531.678634 319.902777 
L 533.657157 316.208188 
L 536.104405 312.790411 
L 538.980195 309.705565 
L 542.237305 307.004303 
L 545.822255 304.73098 
L 549.67618 302.922923 
L 553.735797 301.609821 
L 557.934449 300.813235 
L 562.203194 300.546246 
" style="fill:none;stroke:#808080;stroke-linecap:square;stroke-width:1.5;"/>
   </g>
   <g id="line2d_60">
    <path clip-path="url(#p49796e98cc)" d="M 296.140924 150.433232 
L 300.409669 150.700222 
L 304.608321 151.496808 
L 308.667938 152.809909 
L 312.521863 154.617966 
L 316.106813 156.891289 
L 319.363923 159.592551 
L 322.239713 162.677398 
L 324.686961 166.095175 
L 326.665484 169.789763 
L 328.142794 173.700497 
L 329.094635 177.763164 
L 329.505377 181.911053 
L 329.368275 186.076058 
L 328.685581 190.189788 
L 327.468505 194.184696 
L 325.737031 197.995187 
L 323.519589 201.558691 
L 320.852591 204.816697 
L 317.779827 207.715707 
L 314.351754 210.208121 
L 310.624659 212.253012 
L 306.659742 213.816804 
L 302.522105 214.87382 
L 298.27969 215.406703 
L 294.002157 215.406703 
L 289.759742 214.87382 
L 285.622106 213.816804 
L 281.657188 212.253012 
L 277.930094 210.208121 
L 274.50202 207.715707 
L 271.429257 204.816697 
L 268.762258 201.558691 
L 266.544817 197.995187 
L 264.813342 194.184696 
L 263.596266 190.189788 
L 262.913572 186.076058 
L 262.776471 181.911053 
L 263.187212 177.763164 
L 264.139053 173.700497 
L 265.616364 169.789763 
L 267.594887 166.095175 
L 270.042135 162.677398 
L 272.917924 159.592551 
L 276.175035 156.891289 
L 279.759985 154.617966 
L 283.613909 152.809909 
L 287.673527 151.496808 
L 291.872179 150.700222 
L 296.140924 150.433232 
" style="fill:none;stroke:#808080;stroke-linecap:square;stroke-width:1.5;"/>
   </g>
   <g id="line2d_61"/>
   <g id="line2d_62"/>
   <g id="line2d_63"/>
   <g id="line2d_64"/>
   <g id="line2d_65"/>
   <g id="line2d_66"/>
   <g id="line2d_67"/>
   <g id="line2d_68"/>
   <g id="line2d_69"/>
   <g id="line2d_70"/>
   <g id="line2d_71"/>
   <g id="line2d_72"/>
   <g id="line2d_73"/>
   <g id="line2d_74"/>
   <g id="line2d_75"/>
   <g id="line2d_76"/>
   <g id="line2d_77"/>
   <g id="line2d_78"/>
   <g id="line2d_79"/>
   <g id="line2d_80"/>
   <g id="line2d_81"/>
   <g id="line2d_82"/>
   <g id="line2d_83"/>
   <g id="line2d_84"/>
   <g id="line2d_85"/>
   <g id="line2d_86"/>
   <g id="line2d_87"/>
   <g id="line2d_88"/>
   <g id="line2d_89"/>
   <g id="line2d_90"/>
   <g id="line2d_91"/>
   <g id="line2d_92"/>
   <g id="line2d_93"/>
   <g id="line2d_94"/>
   <g id="line2d_95"/>
   <g id="line2d_96"/>
   <g id="line2d_97"/>
   <g id="line2d_98"/>
   <g id="line2d_99"/>
   <g id="line2d_100"/>
   <g id="line2d_101"/>
   <g id="line2d_102"/>
   <g id="line2d_103"/>
   <g id="line2d_104"/>
   <g id="line2d_105"/>
   <g id="line2d_106"/>
   <g id="line2d_107"/>
   <g id="line2d_108"/>
   <g id="line2d_109"/>
   <g id="line2d_110"/>
   <g id="line2d_111"/>
   <g id="patch_3">
    <path d="M 90 630 
L 90 86.4 
" style="fill:none;stroke:#000000;stroke-linecap:square;stroke-linejoin:miter;stroke-width:0.8;"/>
   </g>
   <g id="patch_4">
    <path d="M 648 630 
L 648 86.4 
" style="fill:none;stroke:#000000;stroke-linecap:square;stroke-linejoin:miter;stroke-width:0.8;"/>
   </g>
   <g id="patch_5">
    <path d="M 90 630 
L 648 630 
" style="fill:none;stroke:#000000;stroke-linecap:square;stroke-linejoin:miter;stroke-width:0.8;"/>
   </g>
   <g id="patch_6">
    <path d="M 90 86.4 
L 648 86.4 
" style="fill:none;stroke:#000000;stroke-linecap:square;stroke-linejoin:miter;stroke-width:0.8;"/>
   </g>
   <g id="text_11">
    <!-- 0 -->
    <g transform="translate(-378.340739 652.652614)scale(0.1 -0.1)">
     <use xlink:href="#DejaVuSans-30"/>
    </g>
   </g>
   <g id="text_12">
    <!-- 0 -->
    <g transform="translate(-378.340739 620.132471)scale(0.1 -0.1)">
     <use xlink:href="#DejaVuSans-30"/>
    </g>
   </g>
   <g id="text_13">
    <!-- 0 -->
    <g transform="translate(-378.340739 587.612327)scale(0.1 -0.1)">
     <use xlink:href="#DejaVuSans-30"/>
    </g>
   </g>
  </g>
 </g>
 <defs>
  <clipPath id="p49796e98cc">
   <rect height="543.6" width="558" x="90" y="86.4"/>
  </clipPath>
 </defs>
</svg>
