<?xml version="1.0" encoding="utf-8" standalone="no"?>
<!DOCTYPE svg PUBLIC "-//W3C//DTD SVG 1.1//EN"
  "http://www.w3.org/Graphics/SVG/1.1/DTD/svg11.dtd">
<svg height="720pt" version="1.1" viewBox="0 0 720 720" width="720pt" xmlns="http://www.w3.org/2000/svg" xmlns:xlink="http://www.w3.org/1999/xlink">
 <metadata>
  <rdf:RDF xmlns:cc="http://creativecommons.org/ns#" xmlns:dc="http://purl.org/dc/elements/1.1/" xmlns:rdf="http://www.w3.org/1999/02/22-rdf-syntax-ns#">
   <cc:Work>
    <dc:type rdf:resource="http://purl.org/dc/dcmitype/StillImage"/>
    <dc:date>2022-01-11T13:26:11.920390</dc:date>
    <dc:format>image/svg+xml</dc:format>
    <dc:creator>
     <cc:Agent>
      <dc:title>Matplotlib v3.4.3, https://matplotlib.org/</dc:title>
     </cc:Agent>
    </dc:creator>
   </cc:Work>
  </rdf:RDF>
 </metadata>
 <defs>
  <style type="text/css">*{stroke-linecap:butt;stroke-linejoin:round;}</style>
 </defs>
 <g id="figure_1">
  <g id="patch_1">
   <path d="M 0 720 
L 720 720 
L 720 0 
L 0 0 
z
" style="fill:none;"/>
  </g>
  <g id="axes_1">
   <g id="patch_2">
    <path d="M 90 630 
L 648 630 
L 648 86.4 
L 90 86.4 
z
" style="fill:#ffffff;"/>
   </g>
   <g id="PathCollection_1">
    <defs>
     <path d="M 0.972304 -8.870829 
Q -1.277159 -8.870829 -2.413438 -6.653699 
Q -3.545098 -4.441189 -3.545098 0.006929 
Q -3.545098 4.436569 -2.413438 6.653699 
Q -1.277159 8.870829 0.972304 8.870829 
Q 3.240243 8.870829 4.371903 6.653699 
Q 5.508182 4.436569 5.508182 0.006929 
Q 5.508182 -4.441189 4.371903 -6.653699 
Q 3.240243 -8.870829 0.972304 -8.870829 
z
M 0.972304 -11.18034 
Q 4.598235 -11.18034 6.51051 -8.311928 
Q 8.422784 -5.448135 8.422784 0.006929 
Q 8.422784 5.448135 6.51051 8.316547 
Q 4.598235 11.18034 0.972304 11.18034 
Q -2.649008 11.18034 -4.561283 8.316547 
Q -6.473558 5.448135 -6.473558 0.006929 
Q -6.473558 -5.448135 -4.561283 -8.311928 
Q -2.649008 -11.18034 0.972304 -11.18034 
z
" id="mebc416809c" style="stroke:#808080;"/>
    </defs>
    <g clip-path="url(#p6f3aae97d3)">
     <use style="fill:#808080;stroke:#808080;" x="264.232157" xlink:href="#mebc416809c" y="128.399143"/>
    </g>
   </g>
   <g id="PathCollection_2">
    <defs>
     <path d="M -4.535873 8.63565 
L 0.404946 8.63565 
L 0.404946 -8.424791 
L -4.971969 -7.346533 
L -4.971969 -10.102082 
L 0.376192 -11.18034 
L 3.400108 -11.18034 
L 3.400108 8.63565 
L 8.340927 8.63565 
L 8.340927 11.18034 
L -4.535873 11.18034 
L -4.535873 8.63565 
z
" id="md8942c8b67" style="stroke:#808080;"/>
    </defs>
    <g clip-path="url(#p6f3aae97d3)">
     <use style="fill:#808080;stroke:#808080;" x="150.684625" xlink:href="#md8942c8b67" y="206.656275"/>
    </g>
   </g>
   <g id="PathCollection_3">
    <defs>
     <path d="M -2.294912 8.680651 
L 8.075736 8.680651 
L 8.075736 11.18034 
L -5.867913 11.18034 
L -5.867913 8.680651 
Q -4.177916 6.929457 -1.259259 3.982555 
Q 1.664105 1.030945 2.4126 0.174178 
Q 3.838976 -1.426376 4.403877 -2.537349 
Q 4.973486 -3.648321 4.973486 -4.721634 
Q 4.973486 -6.472828 3.744825 -7.574386 
Q 2.516165 -8.680651 0.543718 -8.680651 
Q -0.854413 -8.680651 -2.407892 -8.195778 
Q -3.956663 -7.710904 -5.72198 -6.722326 
L -5.72198 -9.725719 
Q -3.928418 -10.445968 -2.370232 -10.813154 
Q -0.807338 -11.18034 0.487227 -11.18034 
Q 3.900173 -11.18034 5.929111 -9.471513 
Q 7.958048 -7.767394 7.958048 -4.914642 
Q 7.958048 -3.558879 7.449637 -2.344341 
Q 6.945933 -1.13451 5.604292 0.513119 
Q 5.237107 0.941502 3.264659 2.979855 
Q 1.296919 5.018207 -2.294912 8.680651 
z
" id="mf23da2a0be" style="stroke:#808080;"/>
    </defs>
    <g clip-path="url(#p6f3aae97d3)">
     <use style="fill:#808080;stroke:#808080;" x="128.998119" xlink:href="#mf23da2a0be" y="336.396982"/>
    </g>
   </g>
   <g id="PathCollection_4">
    <defs>
     <path d="M 3.77605 -0.861447 
Q 5.868466 -0.413402 7.041697 1.004637 
Q 8.219548 2.418057 8.219548 4.496617 
Q 8.219548 7.683741 6.025513 9.43435 
Q 3.831478 11.18034 -0.210165 11.18034 
Q -1.563539 11.18034 -3.000054 10.912437 
Q -4.436569 10.644533 -5.965465 10.108727 
L -5.965465 7.295743 
Q -4.755282 8.002454 -3.314147 8.362737 
Q -1.868394 8.723021 -0.293308 8.723021 
Q 2.445772 8.723021 3.882287 7.64217 
Q 5.318802 6.561319 5.318802 4.496617 
Q 5.318802 2.588961 3.983905 1.517348 
Q 2.649008 0.441116 0.270213 0.441116 
L -2.242535 0.441116 
L -2.242535 -1.956155 
L 0.385688 -1.956155 
Q 2.533533 -1.956155 3.674431 -2.815293 
Q 4.815329 -3.674431 4.815329 -5.291088 
Q 4.815329 -6.949317 3.637479 -7.836169 
Q 2.464248 -8.72764 0.270213 -8.72764 
Q -0.930733 -8.72764 -2.302582 -8.464356 
Q -3.674431 -8.20569 -5.318802 -7.660646 
L -5.318802 -10.256536 
Q -3.655955 -10.718438 -2.205582 -10.949389 
Q -0.75521 -11.18034 0.528878 -11.18034 
Q 3.849954 -11.18034 5.780705 -9.66992 
Q 7.716074 -8.164119 7.716074 -5.595944 
Q 7.716074 -3.803764 6.690652 -2.570485 
Q 5.665229 -1.337207 3.77605 -0.861447 
z
" id="mbd4c78ce7b" style="stroke:#808080;"/>
    </defs>
    <g clip-path="url(#p6f3aae97d3)">
     <use style="fill:#808080;stroke:#808080;" x="130.805228" xlink:href="#mbd4c78ce7b" y="342.372257"/>
    </g>
   </g>
   <g id="PathCollection_5">
    <defs>
     <path d="M 2.695646 -8.544598 
L -4.943215 3.392919 
L 2.695646 3.392919 
L 2.695646 -8.544598 
z
M 1.900131 -11.18034 
L 5.705184 -11.18034 
L 5.705184 3.392919 
L 8.896829 3.392919 
L 8.896829 5.908855 
L 5.705184 5.908855 
L 5.705184 11.18034 
L 2.695646 11.18034 
L 2.695646 5.908855 
L -7.396852 5.908855 
L -7.396852 2.99037 
L 1.900131 -11.18034 
z
" id="m6ff006b8e9" style="stroke:#808080;"/>
    </defs>
    <g clip-path="url(#p6f3aae97d3)">
     <use style="fill:#808080;stroke:#808080;" x="314.657024" xlink:href="#m6ff006b8e9" y="350.264927"/>
    </g>
   </g>
   <g id="PathCollection_6">
    <defs>
     <path d="M -5.008473 -11.18034 
L 6.639575 -11.18034 
L 6.639575 -8.679629 
L -2.291535 -8.679629 
L -2.291535 -3.306861 
Q -1.647555 -3.527789 -1.003575 -3.635902 
Q -0.354894 -3.744015 0.293787 -3.744015 
Q 3.964943 -3.744015 6.108409 -1.732165 
Q 8.256576 0.279685 8.256576 3.715812 
Q 8.256576 7.255352 6.052002 9.220196 
Q 3.847428 11.18034 -0.16217 11.18034 
Q -1.544142 11.18034 -2.97782 10.945311 
Q -4.406798 10.710281 -5.934488 10.240223 
L -5.934488 7.255352 
Q -4.613624 7.974541 -3.203448 8.327085 
Q -1.793273 8.679629 -0.223278 8.679629 
Q 2.319738 8.679629 3.800422 7.344663 
Q 5.285807 6.009697 5.285807 3.715812 
Q 5.285807 1.426627 3.800422 0.091661 
Q 2.319738 -1.248005 -0.223278 -1.248005 
Q -1.412526 -1.248005 -2.597073 -0.984772 
Q -3.77692 -0.72154 -5.008473 -0.16217 
L -5.008473 -11.18034 
z
" id="m7820d150e1" style="stroke:#808080;"/>
    </defs>
    <g clip-path="url(#p6f3aae97d3)">
     <use style="fill:#808080;stroke:#808080;" x="350.746429" xlink:href="#m7820d150e1" y="174.5557"/>
    </g>
   </g>
   <g id="PathCollection_7"/>
   <g id="PathCollection_8"/>
   <g id="PathCollection_9"/>
   <g id="PathCollection_10"/>
   <g id="PathCollection_11"/>
   <g id="matplotlib.axis_1">
    <g id="xtick_1">
     <g id="line2d_1">
      <defs>
       <path d="M 0 0 
L 0 3.5 
" id="ma9f1bb607e" style="stroke:#000000;stroke-width:0.8;"/>
      </defs>
      <g>
       <use style="stroke:#000000;stroke-width:0.8;" x="91.529646" xlink:href="#ma9f1bb607e" y="630"/>
      </g>
     </g>
     <g id="text_1">
      <!-- −250 -->
      <g transform="translate(77.796052 644.598438)scale(0.1 -0.1)">
       <defs>
        <path d="M 678 2272 
L 4684 2272 
L 4684 1741 
L 678 1741 
L 678 2272 
z
" id="DejaVuSans-2212" transform="scale(0.015625)"/>
        <path d="M 1228 531 
L 3431 531 
L 3431 0 
L 469 0 
L 469 531 
Q 828 903 1448 1529 
Q 2069 2156 2228 2338 
Q 2531 2678 2651 2914 
Q 2772 3150 2772 3378 
Q 2772 3750 2511 3984 
Q 2250 4219 1831 4219 
Q 1534 4219 1204 4116 
Q 875 4013 500 3803 
L 500 4441 
Q 881 4594 1212 4672 
Q 1544 4750 1819 4750 
Q 2544 4750 2975 4387 
Q 3406 4025 3406 3419 
Q 3406 3131 3298 2873 
Q 3191 2616 2906 2266 
Q 2828 2175 2409 1742 
Q 1991 1309 1228 531 
z
" id="DejaVuSans-32" transform="scale(0.015625)"/>
        <path d="M 691 4666 
L 3169 4666 
L 3169 4134 
L 1269 4134 
L 1269 2991 
Q 1406 3038 1543 3061 
Q 1681 3084 1819 3084 
Q 2600 3084 3056 2656 
Q 3513 2228 3513 1497 
Q 3513 744 3044 326 
Q 2575 -91 1722 -91 
Q 1428 -91 1123 -41 
Q 819 9 494 109 
L 494 744 
Q 775 591 1075 516 
Q 1375 441 1709 441 
Q 2250 441 2565 725 
Q 2881 1009 2881 1497 
Q 2881 1984 2565 2268 
Q 2250 2553 1709 2553 
Q 1456 2553 1204 2497 
Q 953 2441 691 2322 
L 691 4666 
z
" id="DejaVuSans-35" transform="scale(0.015625)"/>
        <path d="M 2034 4250 
Q 1547 4250 1301 3770 
Q 1056 3291 1056 2328 
Q 1056 1369 1301 889 
Q 1547 409 2034 409 
Q 2525 409 2770 889 
Q 3016 1369 3016 2328 
Q 3016 3291 2770 3770 
Q 2525 4250 2034 4250 
z
M 2034 4750 
Q 2819 4750 3233 4129 
Q 3647 3509 3647 2328 
Q 3647 1150 3233 529 
Q 2819 -91 2034 -91 
Q 1250 -91 836 529 
Q 422 1150 422 2328 
Q 422 3509 836 4129 
Q 1250 4750 2034 4750 
z
" id="DejaVuSans-30" transform="scale(0.015625)"/>
       </defs>
       <use xlink:href="#DejaVuSans-2212"/>
       <use x="83.789062" xlink:href="#DejaVuSans-32"/>
       <use x="147.412109" xlink:href="#DejaVuSans-35"/>
       <use x="211.035156" xlink:href="#DejaVuSans-30"/>
      </g>
     </g>
    </g>
    <g id="xtick_2">
     <g id="line2d_2">
      <g>
       <use style="stroke:#000000;stroke-width:0.8;" x="154.212749" xlink:href="#ma9f1bb607e" y="630"/>
      </g>
     </g>
     <g id="text_2">
      <!-- −200 -->
      <g transform="translate(140.479155 644.598438)scale(0.1 -0.1)">
       <use xlink:href="#DejaVuSans-2212"/>
       <use x="83.789062" xlink:href="#DejaVuSans-32"/>
       <use x="147.412109" xlink:href="#DejaVuSans-30"/>
       <use x="211.035156" xlink:href="#DejaVuSans-30"/>
      </g>
     </g>
    </g>
    <g id="xtick_3">
     <g id="line2d_3">
      <g>
       <use style="stroke:#000000;stroke-width:0.8;" x="216.895853" xlink:href="#ma9f1bb607e" y="630"/>
      </g>
     </g>
     <g id="text_3">
      <!-- −150 -->
      <g transform="translate(203.162259 644.598438)scale(0.1 -0.1)">
       <defs>
        <path d="M 794 531 
L 1825 531 
L 1825 4091 
L 703 3866 
L 703 4441 
L 1819 4666 
L 2450 4666 
L 2450 531 
L 3481 531 
L 3481 0 
L 794 0 
L 794 531 
z
" id="DejaVuSans-31" transform="scale(0.015625)"/>
       </defs>
       <use xlink:href="#DejaVuSans-2212"/>
       <use x="83.789062" xlink:href="#DejaVuSans-31"/>
       <use x="147.412109" xlink:href="#DejaVuSans-35"/>
       <use x="211.035156" xlink:href="#DejaVuSans-30"/>
      </g>
     </g>
    </g>
    <g id="xtick_4">
     <g id="line2d_4">
      <g>
       <use style="stroke:#000000;stroke-width:0.8;" x="279.578956" xlink:href="#ma9f1bb607e" y="630"/>
      </g>
     </g>
     <g id="text_4">
      <!-- −100 -->
      <g transform="translate(265.845362 644.598438)scale(0.1 -0.1)">
       <use xlink:href="#DejaVuSans-2212"/>
       <use x="83.789062" xlink:href="#DejaVuSans-31"/>
       <use x="147.412109" xlink:href="#DejaVuSans-30"/>
       <use x="211.035156" xlink:href="#DejaVuSans-30"/>
      </g>
     </g>
    </g>
    <g id="xtick_5">
     <g id="line2d_5">
      <g>
       <use style="stroke:#000000;stroke-width:0.8;" x="342.26206" xlink:href="#ma9f1bb607e" y="630"/>
      </g>
     </g>
     <g id="text_5">
      <!-- −50 -->
      <g transform="translate(331.709716 644.598438)scale(0.1 -0.1)">
       <use xlink:href="#DejaVuSans-2212"/>
       <use x="83.789062" xlink:href="#DejaVuSans-35"/>
       <use x="147.412109" xlink:href="#DejaVuSans-30"/>
      </g>
     </g>
    </g>
    <g id="xtick_6">
     <g id="line2d_6">
      <g>
       <use style="stroke:#000000;stroke-width:0.8;" x="404.945163" xlink:href="#ma9f1bb607e" y="630"/>
      </g>
     </g>
     <g id="text_6">
      <!-- 0 -->
      <g transform="translate(401.763913 644.598438)scale(0.1 -0.1)">
       <use xlink:href="#DejaVuSans-30"/>
      </g>
     </g>
    </g>
    <g id="xtick_7">
     <g id="line2d_7">
      <g>
       <use style="stroke:#000000;stroke-width:0.8;" x="467.628267" xlink:href="#ma9f1bb607e" y="630"/>
      </g>
     </g>
     <g id="text_7">
      <!-- 50 -->
      <g transform="translate(461.265767 644.598438)scale(0.1 -0.1)">
       <use xlink:href="#DejaVuSans-35"/>
       <use x="63.623047" xlink:href="#DejaVuSans-30"/>
      </g>
     </g>
    </g>
    <g id="xtick_8">
     <g id="line2d_8">
      <g>
       <use style="stroke:#000000;stroke-width:0.8;" x="530.31137" xlink:href="#ma9f1bb607e" y="630"/>
      </g>
     </g>
     <g id="text_8">
      <!-- 100 -->
      <g transform="translate(520.76762 644.598438)scale(0.1 -0.1)">
       <use xlink:href="#DejaVuSans-31"/>
       <use x="63.623047" xlink:href="#DejaVuSans-30"/>
       <use x="127.246094" xlink:href="#DejaVuSans-30"/>
      </g>
     </g>
    </g>
    <g id="xtick_9">
     <g id="line2d_9">
      <g>
       <use style="stroke:#000000;stroke-width:0.8;" x="592.994474" xlink:href="#ma9f1bb607e" y="630"/>
      </g>
     </g>
     <g id="text_9">
      <!-- 150 -->
      <g transform="translate(583.450724 644.598438)scale(0.1 -0.1)">
       <use xlink:href="#DejaVuSans-31"/>
       <use x="63.623047" xlink:href="#DejaVuSans-35"/>
       <use x="127.246094" xlink:href="#DejaVuSans-30"/>
      </g>
     </g>
    </g>
   </g>
   <g id="matplotlib.axis_2">
    <g id="ytick_1">
     <g id="line2d_10">
      <defs>
       <path d="M 0 0 
L -3.5 0 
" id="mb76efc533b" style="stroke:#000000;stroke-width:0.8;"/>
      </defs>
      <g>
       <use style="stroke:#000000;stroke-width:0.8;" x="90" xlink:href="#mb76efc533b" y="628.509829"/>
      </g>
     </g>
     <g id="text_10">
      <!-- −250 -->
      <g transform="translate(55.532812 632.309048)scale(0.1 -0.1)">
       <use xlink:href="#DejaVuSans-2212"/>
       <use x="83.789062" xlink:href="#DejaVuSans-32"/>
       <use x="147.412109" xlink:href="#DejaVuSans-35"/>
       <use x="211.035156" xlink:href="#DejaVuSans-30"/>
      </g>
     </g>
    </g>
    <g id="ytick_2">
     <g id="line2d_11">
      <g>
       <use style="stroke:#000000;stroke-width:0.8;" x="90" xlink:href="#mb76efc533b" y="567.444354"/>
      </g>
     </g>
     <g id="text_11">
      <!-- −200 -->
      <g transform="translate(55.532812 571.243573)scale(0.1 -0.1)">
       <use xlink:href="#DejaVuSans-2212"/>
       <use x="83.789062" xlink:href="#DejaVuSans-32"/>
       <use x="147.412109" xlink:href="#DejaVuSans-30"/>
       <use x="211.035156" xlink:href="#DejaVuSans-30"/>
      </g>
     </g>
    </g>
    <g id="ytick_3">
     <g id="line2d_12">
      <g>
       <use style="stroke:#000000;stroke-width:0.8;" x="90" xlink:href="#mb76efc533b" y="506.378879"/>
      </g>
     </g>
     <g id="text_12">
      <!-- −150 -->
      <g transform="translate(55.532812 510.178098)scale(0.1 -0.1)">
       <use xlink:href="#DejaVuSans-2212"/>
       <use x="83.789062" xlink:href="#DejaVuSans-31"/>
       <use x="147.412109" xlink:href="#DejaVuSans-35"/>
       <use x="211.035156" xlink:href="#DejaVuSans-30"/>
      </g>
     </g>
    </g>
    <g id="ytick_4">
     <g id="line2d_13">
      <g>
       <use style="stroke:#000000;stroke-width:0.8;" x="90" xlink:href="#mb76efc533b" y="445.313404"/>
      </g>
     </g>
     <g id="text_13">
      <!-- −100 -->
      <g transform="translate(55.532812 449.112623)scale(0.1 -0.1)">
       <use xlink:href="#DejaVuSans-2212"/>
       <use x="83.789062" xlink:href="#DejaVuSans-31"/>
       <use x="147.412109" xlink:href="#DejaVuSans-30"/>
       <use x="211.035156" xlink:href="#DejaVuSans-30"/>
      </g>
     </g>
    </g>
    <g id="ytick_5">
     <g id="line2d_14">
      <g>
       <use style="stroke:#000000;stroke-width:0.8;" x="90" xlink:href="#mb76efc533b" y="384.247929"/>
      </g>
     </g>
     <g id="text_14">
      <!-- −50 -->
      <g transform="translate(61.895313 388.047148)scale(0.1 -0.1)">
       <use xlink:href="#DejaVuSans-2212"/>
       <use x="83.789062" xlink:href="#DejaVuSans-35"/>
       <use x="147.412109" xlink:href="#DejaVuSans-30"/>
      </g>
     </g>
    </g>
    <g id="ytick_6">
     <g id="line2d_15">
      <g>
       <use style="stroke:#000000;stroke-width:0.8;" x="90" xlink:href="#mb76efc533b" y="323.182454"/>
      </g>
     </g>
     <g id="text_15">
      <!-- 0 -->
      <g transform="translate(76.6375 326.981673)scale(0.1 -0.1)">
       <use xlink:href="#DejaVuSans-30"/>
      </g>
     </g>
    </g>
    <g id="ytick_7">
     <g id="line2d_16">
      <g>
       <use style="stroke:#000000;stroke-width:0.8;" x="90" xlink:href="#mb76efc533b" y="262.116979"/>
      </g>
     </g>
     <g id="text_16">
      <!-- 50 -->
      <g transform="translate(70.275 265.916198)scale(0.1 -0.1)">
       <use xlink:href="#DejaVuSans-35"/>
       <use x="63.623047" xlink:href="#DejaVuSans-30"/>
      </g>
     </g>
    </g>
    <g id="ytick_8">
     <g id="line2d_17">
      <g>
       <use style="stroke:#000000;stroke-width:0.8;" x="90" xlink:href="#mb76efc533b" y="201.051504"/>
      </g>
     </g>
     <g id="text_17">
      <!-- 100 -->
      <g transform="translate(63.9125 204.850723)scale(0.1 -0.1)">
       <use xlink:href="#DejaVuSans-31"/>
       <use x="63.623047" xlink:href="#DejaVuSans-30"/>
       <use x="127.246094" xlink:href="#DejaVuSans-30"/>
      </g>
     </g>
    </g>
    <g id="ytick_9">
     <g id="line2d_18">
      <g>
       <use style="stroke:#000000;stroke-width:0.8;" x="90" xlink:href="#mb76efc533b" y="139.986029"/>
      </g>
     </g>
     <g id="text_18">
      <!-- 150 -->
      <g transform="translate(63.9125 143.785248)scale(0.1 -0.1)">
       <use xlink:href="#DejaVuSans-31"/>
       <use x="63.623047" xlink:href="#DejaVuSans-35"/>
       <use x="127.246094" xlink:href="#DejaVuSans-30"/>
      </g>
     </g>
    </g>
   </g>
   <g id="line2d_19">
    <path clip-path="url(#p6f3aae97d3)" d="M 350.746429 174.5557 
L 352.873104 168.681776 
L 354.638812 162.695961 
L 355.947996 156.600453 
L 356.666839 150.412527 
L 356.609215 144.184221 
L 355.533214 138.042632 
L 353.191487 132.246265 
L 349.486146 127.178608 
L 344.613809 123.167403 
L 338.961138 120.289919 
L 332.877382 118.415059 
L 326.586751 117.35151 
L 320.213786 116.929271 
L 313.824609 117.017538 
L 307.45417 117.519716 
L 301.121059 118.364685 
L 294.835199 119.499506 
L 288.601856 120.884166 
L 282.42378 122.487949 
L 276.302373 124.286947 
L 270.238359 126.262332 
L 264.232157 128.399143 
" style="fill:none;stroke:#808080;stroke-linecap:square;stroke-width:1.5;"/>
   </g>
   <g id="line2d_20">
    <path clip-path="url(#p6f3aae97d3)" d="M 264.232157 174.5557 
L 264.232157 116.929271 
L 356.666839 116.929271 
L 356.666839 174.5557 
L 264.232157 174.5557 
" style="fill:none;stroke:#d3d3d3;stroke-linecap:square;stroke-width:0.5;"/>
   </g>
   <g id="line2d_21">
    <path clip-path="url(#p6f3aae97d3)" d="M 264.232157 128.399143 
L 258.28412 130.68542 
L 252.394668 133.111577 
L 246.564388 135.669943 
L 240.794093 138.354413 
L 235.084869 141.160196 
L 229.438121 144.083614 
L 223.855607 147.121952 
L 218.339476 150.273343 
L 212.892312 153.536675 
L 207.517175 156.911517 
L 202.217659 160.398068 
L 196.997945 163.997099 
L 191.862868 167.709916 
L 186.817995 171.538313 
L 181.869703 175.484531 
L 177.025272 179.551204 
L 172.292977 183.74129 
L 167.682189 188.05799 
L 163.203468 192.504639 
L 158.868641 197.084557 
L 154.690863 201.80087 
L 150.684625 206.656275 
" style="fill:none;stroke:#808080;stroke-linecap:square;stroke-width:1.5;"/>
   </g>
   <g id="line2d_22">
    <path clip-path="url(#p6f3aae97d3)" d="M 150.684625 206.656275 
L 150.684625 128.399143 
L 264.232157 128.399143 
L 264.232157 206.656275 
L 150.684625 206.656275 
" style="fill:none;stroke:#d3d3d3;stroke-linecap:square;stroke-width:0.5;"/>
   </g>
   <g id="line2d_23">
    <path clip-path="url(#p6f3aae97d3)" d="M 150.684625 206.656275 
L 146.865708 211.652761 
L 143.25103 216.791276 
L 139.858386 222.071366 
L 136.706034 227.490797 
L 133.812119 233.045201 
L 131.193938 238.727813 
L 128.867101 244.529338 
L 126.844628 250.438018 
L 125.136118 256.439926 
L 123.747088 262.519481 
L 122.678595 268.660144 
L 121.9272 274.845193 
L 121.485266 281.058483 
L 121.341552 287.285096 
L 121.481973 293.51181 
L 121.890448 299.727365 
L 122.549705 305.922542 
L 123.441997 312.090092 
L 124.549672 318.224563 
L 125.855612 324.322069 
L 127.343522 330.38004 
L 128.998119 336.396982 
" style="fill:none;stroke:#808080;stroke-linecap:square;stroke-width:1.5;"/>
   </g>
   <g id="line2d_24">
    <path clip-path="url(#p6f3aae97d3)" d="M 121.341552 336.396982 
L 121.341552 206.656275 
L 150.684625 206.656275 
L 150.684625 336.396982 
L 121.341552 336.396982 
" style="fill:none;stroke:#d3d3d3;stroke-linecap:square;stroke-width:0.5;"/>
   </g>
   <g id="line2d_25">
    <path clip-path="url(#p6f3aae97d3)" d="M 128.998119 336.396982 
L 130.805228 342.372257 
" style="fill:none;stroke:#808080;stroke-linecap:square;stroke-width:1.5;"/>
   </g>
   <g id="line2d_26">
    <path clip-path="url(#p6f3aae97d3)" d="M 128.998119 342.372257 
L 128.998119 336.396982 
L 130.805228 336.396982 
L 130.805228 342.372257 
L 128.998119 342.372257 
" style="fill:none;stroke:#d3d3d3;stroke-linecap:square;stroke-width:0.5;"/>
   </g>
   <g id="line2d_27">
    <path clip-path="url(#p6f3aae97d3)" d="M 130.805228 342.372257 
L 132.788344 348.294923 
L 134.990295 354.143966 
L 137.42809 359.903613 
L 140.119732 365.554961 
L 143.08386 371.075391 
L 146.339134 376.437988 
L 149.903251 381.611041 
L 153.791548 386.557784 
L 158.015134 391.236632 
L 162.578681 395.602177 
L 167.478163 399.607192 
L 172.699058 403.205712 
L 178.215634 406.356882 
L 183.991812 409.028864 
L 189.983661 411.201877 
L 196.14305 412.869565 
L 202.421594 414.038446 
L 208.774013 414.725752 
L 215.160402 414.956398 
L 221.54728 414.759817 
L 227.907642 414.167206 
L 234.220356 413.209417 
L 240.469227 411.915526 
L 246.64195 410.31195 
L 252.729101 408.421986 
L 258.723203 406.265598 
L 264.617891 403.859352 
L 270.407115 401.2164 
L 276.084344 398.346419 
L 281.641667 395.255466 
L 287.068631 391.945629 
L 292.350579 388.414388 
L 297.466003 384.65344 
L 302.381912 380.646593 
L 307.044917 376.365811 
L 311.361847 371.763322 
L 315.149673 366.754878 
L 317.968621 361.192656 
L 318.465618 355.070032 
L 314.657024 350.264927 
" style="fill:none;stroke:#808080;stroke-linecap:square;stroke-width:1.5;"/>
   </g>
   <g id="line2d_28">
    <path clip-path="url(#p6f3aae97d3)" d="M 130.805228 414.956398 
L 130.805228 342.372257 
L 318.465618 342.372257 
L 318.465618 414.956398 
L 130.805228 414.956398 
" style="fill:none;stroke:#d3d3d3;stroke-linecap:square;stroke-width:0.5;"/>
   </g>
   <g id="line2d_29">
    <path clip-path="url(#p6f3aae97d3)" d="M 314.657024 350.264927 
L 311.582986 344.926922 
L 310.682651 338.756174 
L 310.541472 332.520669 
L 310.809793 326.280519 
L 311.347852 320.046521 
L 312.083653 313.821866 
L 312.974333 307.608119 
L 313.991897 301.406366 
L 315.11687 295.217467 
L 316.335081 289.042106 
L 317.635879 282.880816 
L 319.011069 276.733989 
L 320.454237 270.601895 
L 321.960313 264.484704 
L 323.525265 258.382505 
L 325.145888 252.29533 
L 326.819654 246.223168 
L 328.544595 240.165991 
L 330.319232 234.123769 
L 332.142508 228.096485 
L 334.013753 222.084163 
L 335.932652 216.086875 
L 337.899237 210.104772 
L 339.913874 204.138101 
L 341.977279 198.187235 
L 344.09053 192.252704 
L 346.255104 186.335235 
L 348.472923 180.435806 
L 350.746429 174.5557 
" style="fill:none;stroke:#808080;stroke-linecap:square;stroke-width:1.5;"/>
   </g>
   <g id="line2d_30">
    <path clip-path="url(#p6f3aae97d3)" d="M 310.541472 350.264927 
L 310.541472 174.5557 
L 350.746429 174.5557 
L 350.746429 350.264927 
L 310.541472 350.264927 
" style="fill:none;stroke:#d3d3d3;stroke-linecap:square;stroke-width:0.5;"/>
   </g>
   <g id="line2d_31">
    <path clip-path="url(#p6f3aae97d3)" d="M 339.035588 170.196465 
L 339.035588 170.196465 
L 340.939701 164.93895 
L 342.479101 159.723747 
L 343.578362 154.613718 
L 344.150825 149.712572 
L 344.114476 145.181683 
L 343.431622 141.232032 
L 342.145089 138.021511 
L 340.283571 135.472393 
L 337.697231 133.353564 
L 334.236287 131.602426 
L 329.980728 130.297675 
L 325.140939 129.483114 
L 319.915096 129.138899 
L 314.446563 129.215594 
L 308.830509 129.658986 
L 303.128902 130.420126 
L 297.382413 131.457849 
L 291.618251 132.738473 
L 285.855077 134.234681 
L 280.106055 135.924335 
L 274.380769 137.789446 
L 268.686457 139.815348 
" style="fill:none;stroke:#000000;stroke-linecap:square;stroke-width:3;"/>
   </g>
   <g id="line2d_32">
    <path clip-path="url(#p6f3aae97d3)" d="M 268.686457 170.196465 
L 268.686457 129.138899 
L 344.150825 129.138899 
L 344.150825 170.196465 
L 268.686457 170.196465 
" style="fill:none;stroke:#d3d3d3;stroke-linecap:square;stroke-width:0.5;"/>
   </g>
   <g id="line2d_33">
    <path clip-path="url(#p6f3aae97d3)" d="M 268.686457 139.815348 
L 263.028811 141.990044 
L 257.412519 144.303702 
L 251.841636 146.748263 
L 246.319849 149.317137 
L 240.850668 152.004962 
L 235.437572 154.80742 
L 230.084133 157.721085 
L 224.794104 160.743302 
L 219.571511 163.87209 
L 214.420731 167.106059 
L 209.346563 170.444341 
L 204.354304 173.886523 
L 199.449821 177.432592 
L 194.639623 181.082874 
L 189.930935 184.837977 
L 185.331766 188.698721 
L 180.850975 192.666069 
L 176.498319 196.74104 
L 172.284493 200.924616 
L 168.221133 205.217629 
L 164.320786 209.620644 
L 160.596818 214.133825 
L 157.063267 218.756806 
" style="fill:none;stroke:#000000;stroke-linecap:square;stroke-width:3;"/>
   </g>
   <g id="line2d_34">
    <path clip-path="url(#p6f3aae97d3)" d="M 157.063267 218.756806 
L 157.063267 139.815348 
L 268.686457 139.815348 
L 268.686457 218.756806 
L 157.063267 218.756806 
" style="fill:none;stroke:#d3d3d3;stroke-linecap:square;stroke-width:0.5;"/>
   </g>
   <g id="line2d_35">
    <path clip-path="url(#p6f3aae97d3)" d="M 157.063267 218.756806 
L 153.734605 223.488564 
L 150.625421 228.327314 
L 147.750015 233.270429 
L 145.121933 238.314405 
L 142.75345 243.454864 
L 140.655073 248.686597 
L 138.835078 254.003618 
L 137.299144 259.399239 
L 136.050113 264.866142 
L 135.087876 270.396453 
L 134.409407 275.981857 
L 134.008924 281.61374 
L 133.878172 287.283387 
L 134.006801 292.982207 
L 134.382805 298.701975 
L 134.992992 304.43503 
L 135.823441 310.174445 
L 136.859918 315.914123 
L 138.088235 321.64884 
L 139.494528 327.374232 
L 141.065471 333.086748 
L 142.788422 338.783585 
" style="fill:none;stroke:#000000;stroke-linecap:square;stroke-width:3;"/>
   </g>
   <g id="line2d_36">
    <path clip-path="url(#p6f3aae97d3)" d="M 133.878172 338.783585 
L 133.878172 218.756806 
L 157.063267 218.756806 
L 157.063267 338.783585 
L 133.878172 338.783585 
" style="fill:none;stroke:#d3d3d3;stroke-linecap:square;stroke-width:0.5;"/>
   </g>
   <g id="line2d_37">
    <path clip-path="url(#p6f3aae97d3)" d="M 142.788422 338.783585 
L 144.636753 344.304052 
L 146.675304 349.71943 
L 148.915172 355.01186 
L 151.367335 360.16086 
L 154.042248 365.143152 
L 156.949306 369.932658 
L 160.096202 374.500722 
L 163.488239 378.816712 
L 167.127688 382.849046 
L 171.013336 386.566646 
L 175.140341 389.940664 
L 179.500379 392.946159 
L 184.081907 395.563376 
L 188.870307 397.77842 
L 193.847781 399.583401 
L 198.993216 400.976285 
L 204.282369 401.960631 
L 209.688644 402.545203 
L 215.184358 402.743325 
L 220.742179 402.571933 
L 226.336348 402.05042 
" style="fill:none;stroke:#000000;stroke-linecap:square;stroke-width:3;"/>
   </g>
   <g id="line2d_38">
    <path clip-path="url(#p6f3aae97d3)" d="M 142.788422 402.743325 
L 142.788422 338.783585 
L 226.336348 338.783585 
L 226.336348 402.743325 
L 142.788422 402.743325 
" style="fill:none;stroke:#d3d3d3;stroke-linecap:square;stroke-width:0.5;"/>
   </g>
   <g id="line2d_39">
    <path clip-path="url(#p6f3aae97d3)" d="M 226.336348 402.05042 
L 231.943474 401.199438 
L 237.542859 400.039822 
L 243.116426 398.591728 
L 248.648359 396.874015 
L 254.124552 394.903842 
L 259.531932 392.696442 
L 264.857662 390.265042 
L 270.088175 387.620871 
L 275.207959 384.773294 
L 280.197847 381.730096 
L 285.03246 378.498074 
L 289.675995 375.084368 
L 294.074755 371.499647 
L 298.142728 367.766497 
L 301.731077 363.944539 
L 304.558385 360.220409 
L 306.079923 357.317162 
L 306.312083 358.06612 
L 307.993791 360.610118 
L 307.993791 360.610118 
" style="fill:none;stroke:#000000;stroke-linecap:square;stroke-width:3;"/>
   </g>
   <g id="line2d_40">
    <path clip-path="url(#p6f3aae97d3)" d="M 226.336348 402.05042 
L 226.336348 357.317162 
L 307.993791 357.317162 
L 307.993791 402.05042 
L 226.336348 402.05042 
" style="fill:none;stroke:#d3d3d3;stroke-linecap:square;stroke-width:0.5;"/>
   </g>
   <g id="line2d_41">
    <path clip-path="url(#p6f3aae97d3)" d="M 307.993791 360.610118 
L 307.993791 360.610118 
L 299.415582 347.869105 
L 298.174184 339.5742 
L 298.006265 332.337272 
L 298.299906 325.48335 
L 298.87468 318.819335 
L 299.6489 312.268102 
L 300.577008 305.792563 
L 301.630313 299.372632 
L 302.789291 292.996463 
L 304.039933 286.656585 
L 305.371812 280.348005 
L 306.776962 274.067209 
L 308.249189 267.811605 
L 309.783626 261.579195 
L 311.376428 255.368384 
L 313.024566 249.17785 
L 314.725676 243.006476 
L 316.477955 236.853298 
L 318.280081 230.717476 
L 320.131163 224.59827 
L 322.030702 218.495036 
L 323.978568 212.407217 
L 325.974994 206.334341 
L 328.020577 200.276024 
L 330.116292 194.231978 
L 332.263529 188.202013 
L 334.464134 182.186051 
L 336.720485 176.184141 
L 339.035588 170.196465 
L 339.035588 170.196465 
" style="fill:none;stroke:#000000;stroke-linecap:square;stroke-width:3;"/>
   </g>
   <g id="line2d_42">
    <path clip-path="url(#p6f3aae97d3)" d="M 298.006265 360.610118 
L 298.006265 170.196465 
L 339.035588 170.196465 
L 339.035588 360.610118 
L 298.006265 360.610118 
" style="fill:none;stroke:#d3d3d3;stroke-linecap:square;stroke-width:0.5;"/>
   </g>
   <g id="line2d_43">
    <path clip-path="url(#p6f3aae97d3)" d="M 142.788422 338.783585 
L 142.788422 338.783585 
L 142.788422 338.783585 
" style="fill:none;stroke:#000000;stroke-linecap:square;stroke-width:3;"/>
   </g>
   <g id="line2d_44">
    <path clip-path="url(#p6f3aae97d3)" d="M 142.788422 338.783585 
L 142.788422 338.783585 
L 142.788422 338.783585 
L 142.788422 338.783585 
L 142.788422 338.783585 
" style="fill:none;stroke:#d3d3d3;stroke-linecap:square;stroke-width:0.5;"/>
   </g>
   <g id="line2d_45">
    <path clip-path="url(#p6f3aae97d3)" d="M 142.788422 338.783585 
L 142.788422 338.783585 
L 142.788422 338.783585 
" style="fill:none;stroke:#000000;stroke-linecap:square;stroke-width:3;"/>
   </g>
   <g id="line2d_46">
    <path clip-path="url(#p6f3aae97d3)" d="M 142.788422 338.783585 
L 142.788422 338.783585 
L 142.788422 338.783585 
L 142.788422 338.783585 
L 142.788422 338.783585 
" style="fill:none;stroke:#d3d3d3;stroke-linecap:square;stroke-width:0.5;"/>
   </g>
   <g id="line2d_47">
    <path clip-path="url(#p6f3aae97d3)" d="M 118.822033 345.960928 
L 118.822033 345.960928 
L 118.822033 345.960928 
" style="fill:none;stroke:#000000;stroke-linecap:square;stroke-width:3;"/>
   </g>
   <g id="line2d_48">
    <path clip-path="url(#p6f3aae97d3)" d="M 118.822033 345.960928 
L 118.822033 345.960928 
L 118.822033 345.960928 
L 118.822033 345.960928 
L 118.822033 345.960928 
" style="fill:none;stroke:#d3d3d3;stroke-linecap:square;stroke-width:0.5;"/>
   </g>
   <g id="line2d_49">
    <path clip-path="url(#p6f3aae97d3)" d="M 118.822033 345.960928 
L 118.822033 345.960928 
L 118.822033 345.960928 
" style="fill:none;stroke:#000000;stroke-linecap:square;stroke-width:3;"/>
   </g>
   <g id="line2d_50">
    <path clip-path="url(#p6f3aae97d3)" d="M 118.822033 345.960928 
L 118.822033 345.960928 
L 118.822033 345.960928 
L 118.822033 345.960928 
L 118.822033 345.960928 
" style="fill:none;stroke:#d3d3d3;stroke-linecap:square;stroke-width:0.5;"/>
   </g>
   <g id="line2d_51">
    <path clip-path="url(#p6f3aae97d3)" d="M 323.290759 342.495298 
L 321.320256 339.919735 
L 321.320256 339.919735 
" style="fill:none;stroke:#000000;stroke-linecap:square;stroke-width:3;"/>
   </g>
   <g id="line2d_52">
    <path clip-path="url(#p6f3aae97d3)" d="M 321.320256 342.495298 
L 321.320256 339.919735 
L 323.290759 339.919735 
L 323.290759 342.495298 
L 321.320256 342.495298 
" style="fill:none;stroke:#d3d3d3;stroke-linecap:square;stroke-width:0.5;"/>
   </g>
   <g id="line2d_53">
    <path clip-path="url(#p6f3aae97d3)" d="M 323.290759 342.495298 
L 323.076679 332.704066 
L 323.31968 327.077689 
L 323.821025 321.273706 
L 324.518406 315.37563 
L 325.371658 309.423675 
L 326.35348 303.4401 
L 327.444448 297.43847 
L 328.630229 291.427627 
L 329.899947 285.413628 
L 331.245176 279.400769 
L 332.659284 273.392185 
L 334.136999 267.390212 
L 335.674101 261.396627 
L 337.267211 255.41281 
L 338.913632 249.43986 
L 340.611236 243.478684 
L 342.358384 237.530061 
L 344.153853 231.594701 
L 345.996804 225.673289 
L 347.886737 219.766533 
L 349.823479 213.875203 
L 351.807172 208.000178 
L 353.838265 202.142492 
L 355.91753 196.303395 
L 358.046073 190.48442 
L 360.225362 184.687471 
L 362.457271 178.914936 
L 362.457271 178.914936 
" style="fill:none;stroke:#000000;stroke-linecap:square;stroke-width:3;"/>
   </g>
   <g id="line2d_54">
    <path clip-path="url(#p6f3aae97d3)" d="M 323.076679 342.495298 
L 323.076679 178.914936 
L 362.457271 178.914936 
L 362.457271 342.495298 
L 323.076679 342.495298 
" style="fill:none;stroke:#d3d3d3;stroke-linecap:square;stroke-width:0.5;"/>
   </g>
   <g id="line2d_55">
    <path clip-path="url(#p6f3aae97d3)" d="M 118.822033 345.960928 
L 120.939934 352.285794 
L 123.305286 358.568502 
L 125.941009 364.795367 
L 128.872128 370.949062 
L 132.125472 377.007629 
L 135.728962 382.943319 
L 139.7103 388.72136 
L 144.094856 394.298855 
L 148.90258 399.624219 
L 154.144026 404.637708 
L 159.815985 409.27372 
L 165.897738 413.465265 
L 172.349361 417.150388 
L 179.113317 420.279309 
L 186.11954 422.820352 
L 193.292885 424.762845 
L 200.560818 426.11626 
L 207.859382 426.9063 
L 215.136447 427.16947 
L 222.352382 426.947701 
L 229.478936 426.283992 
L 236.497239 425.219397 
L 243.395595 423.79123 
L 250.167474 422.032173 
L 256.809843 419.969957 
L 263.321855 417.627353 
L 269.70385 415.022262 
L 275.956567 412.167758 
L 282.080513 409.071968 
L 288.075376 405.737637 
L 293.939414 402.161161 
L 299.668697 398.330702 
L 305.256011 394.222512 
L 310.689069 389.793539 
L 315.947107 384.965125 
L 320.992617 379.582105 
L 325.740962 373.289347 
L 329.857319 365.068149 
L 330.619154 352.073943 
L 323.937846 343.341079 
" style="fill:none;stroke:#000000;stroke-linecap:square;stroke-width:3;"/>
   </g>
   <g id="line2d_56">
    <path clip-path="url(#p6f3aae97d3)" d="M 118.822033 427.16947 
L 118.822033 343.341079 
L 330.619154 343.341079 
L 330.619154 427.16947 
L 118.822033 427.16947 
" style="fill:none;stroke:#d3d3d3;stroke-linecap:square;stroke-width:0.5;"/>
   </g>
   <g id="line2d_57">
    <path clip-path="url(#p6f3aae97d3)" d="M 362.457271 178.914936 
L 362.457271 178.914936 
L 364.806507 172.424601 
L 366.798523 165.668175 
L 368.31763 158.587188 
L 369.182854 151.112482 
L 369.103955 143.186759 
L 367.634805 134.853233 
L 364.237885 126.471018 
L 358.68872 118.884823 
L 351.530387 112.981241 
L 343.685989 108.977412 
L 335.774037 106.532443 
L 328.032564 105.219906 
L 320.512477 104.719643 
L 313.202656 104.819482 
L 306.077832 105.380445 
L 299.113217 106.309245 
L 292.287986 107.541164 
L 285.585462 109.029859 
L 278.992482 110.741216 
L 272.498692 112.649559 
L 266.095948 114.735218 
L 259.777858 116.982938 
" style="fill:none;stroke:#000000;stroke-linecap:square;stroke-width:3;"/>
   </g>
   <g id="line2d_58">
    <path clip-path="url(#p6f3aae97d3)" d="M 259.777858 178.914936 
L 259.777858 104.719643 
L 369.182854 104.719643 
L 369.182854 178.914936 
L 259.777858 178.914936 
" style="fill:none;stroke:#d3d3d3;stroke-linecap:square;stroke-width:0.5;"/>
   </g>
   <g id="line2d_59">
    <path clip-path="url(#p6f3aae97d3)" d="M 259.777858 116.982938 
L 253.539429 119.380796 
L 247.376818 121.919453 
L 241.287141 124.591622 
L 235.268336 127.391689 
L 229.31907 130.315429 
L 223.43867 133.359807 
L 217.627081 136.522819 
L 211.884848 139.803384 
L 206.213112 143.201259 
L 200.613619 146.716975 
L 195.088755 150.351795 
L 189.641585 154.107675 
L 184.275915 157.987239 
L 178.996367 161.993751 
L 173.808472 166.131086 
L 168.718777 170.403687 
L 163.734979 174.816511 
L 158.86606 179.37494 
L 154.122443 184.084662 
L 149.516149 188.951485 
L 145.06094 193.981096 
L 140.772433 199.178726 
L 136.668148 204.548716 
" style="fill:none;stroke:#000000;stroke-linecap:square;stroke-width:3;"/>
   </g>
   <g id="line2d_60">
    <path clip-path="url(#p6f3aae97d3)" d="M 136.668148 204.548716 
L 136.668148 116.982938 
L 259.777858 116.982938 
L 259.777858 204.548716 
L 136.668148 204.548716 
" style="fill:none;stroke:#d3d3d3;stroke-linecap:square;stroke-width:0.5;"/>
   </g>
   <g id="line2d_61">
    <path clip-path="url(#p6f3aae97d3)" d="M 136.668148 204.548716 
L 132.767454 210.093988 
L 129.091351 215.815419 
L 125.662054 221.711164 
L 122.502304 227.775997 
L 119.634426 234.000761 
L 117.07913 240.372079 
L 114.854179 246.872418 
L 112.973092 253.480612 
L 111.444063 260.17282 
L 110.269314 266.923836 
L 109.444993 273.708529 
L 108.961609 280.503226 
L 108.804931 287.286806 
L 108.957145 294.041413 
L 109.398091 300.752755 
L 110.106418 307.410054 
L 111.060552 314.005739 
L 112.239426 320.535003 
L 113.622988 326.995299 
L 115.192515 333.385849 
L 116.930767 339.707216 
L 118.822033 345.960928 
" style="fill:none;stroke:#000000;stroke-linecap:square;stroke-width:3;"/>
   </g>
   <g id="line2d_62">
    <path clip-path="url(#p6f3aae97d3)" d="M 108.804931 345.960928 
L 108.804931 204.548716 
L 136.668148 204.548716 
L 136.668148 345.960928 
L 108.804931 345.960928 
" style="fill:none;stroke:#d3d3d3;stroke-linecap:square;stroke-width:0.5;"/>
   </g>
   <g id="line2d_63">
    <path clip-path="url(#p6f3aae97d3)" d="M 321.320256 339.919735 
L 321.320256 339.919735 
L 323.75039 341.984738 
L 323.937846 343.341079 
" style="fill:none;stroke:#000000;stroke-linecap:square;stroke-width:3;"/>
   </g>
   <g id="line2d_64">
    <path clip-path="url(#p6f3aae97d3)" d="M 321.320256 343.341079 
L 321.320256 339.919735 
L 323.937846 339.919735 
L 323.937846 343.341079 
L 321.320256 343.341079 
" style="fill:none;stroke:#d3d3d3;stroke-linecap:square;stroke-width:0.5;"/>
   </g>
   <g id="line2d_65">
    <path clip-path="url(#p6f3aae97d3)" d="M 323.937846 343.341079 
L 323.191119 337.938147 
L 323.290759 342.495298 
" style="fill:none;stroke:#000000;stroke-linecap:square;stroke-width:3;"/>
   </g>
   <g id="line2d_66">
    <path clip-path="url(#p6f3aae97d3)" d="M 323.191119 343.341079 
L 323.191119 337.938147 
L 323.937846 337.938147 
L 323.937846 343.341079 
L 323.191119 343.341079 
" style="fill:none;stroke:#d3d3d3;stroke-linecap:square;stroke-width:0.5;"/>
   </g>
   <g id="line2d_67">
    <path clip-path="url(#p6f3aae97d3)" d="M 264.232157 110.079501 
L 266.636879 110.229905 
L 269.002114 110.678647 
L 271.289028 111.418359 
L 273.460067 112.436896 
L 275.479585 113.717532 
L 277.31442 115.23924 
L 278.934445 116.977033 
L 280.313058 118.902377 
L 281.427624 120.983657 
L 282.25984 123.186699 
L 282.796043 125.47533 
L 283.027427 127.81197 
L 282.950193 130.158251 
L 282.56561 132.475647 
L 281.879991 134.726107 
L 280.904596 136.872679 
L 279.65544 138.880116 
L 278.153034 140.715455 
L 276.422048 142.348561 
L 274.490904 143.752618 
L 272.391311 144.904571 
L 270.157746 145.785505 
L 267.826882 146.380956 
L 265.436993 146.681146 
L 263.027321 146.681146 
L 260.637433 146.380956 
L 258.306569 145.785505 
L 256.073004 144.904571 
L 253.973411 143.752618 
L 252.042267 142.348561 
L 250.311281 140.715455 
L 248.808875 138.880116 
L 247.559719 136.872679 
L 246.584323 134.726107 
L 245.898705 132.475647 
L 245.514122 130.158251 
L 245.436888 127.81197 
L 245.668272 125.47533 
L 246.204475 123.186699 
L 247.036691 120.983657 
L 248.151257 118.902377 
L 249.52987 116.977033 
L 251.149895 115.23924 
L 252.98473 113.717532 
L 255.004248 112.436896 
L 257.175287 111.418359 
L 259.4622 110.678647 
L 261.827436 110.229905 
L 264.232157 110.079501 
" style="fill:none;stroke:#808080;stroke-linecap:square;stroke-width:1.5;"/>
   </g>
   <g id="line2d_68">
    <path clip-path="url(#p6f3aae97d3)" d="M 150.684625 188.336633 
L 153.089347 188.487037 
L 155.454582 188.935779 
L 157.741496 189.675492 
L 159.912535 190.694028 
L 161.932053 191.974664 
L 163.766888 193.496372 
L 165.386913 195.234165 
L 166.765526 197.159509 
L 167.880092 199.240789 
L 168.712308 201.443832 
L 169.248511 203.732462 
L 169.479895 206.069102 
L 169.402661 208.415383 
L 169.018078 210.732779 
L 168.332459 212.98324 
L 167.357064 215.129811 
L 166.107908 217.137248 
L 164.605502 218.972587 
L 162.874516 220.605693 
L 160.943372 222.00975 
L 158.843779 223.161703 
L 156.610214 224.042637 
L 154.27935 224.638088 
L 151.889462 224.938278 
L 149.479789 224.938278 
L 147.089901 224.638088 
L 144.759037 224.042637 
L 142.525472 223.161703 
L 140.425879 222.00975 
L 138.494735 220.605693 
L 136.763749 218.972587 
L 135.261343 217.137248 
L 134.012187 215.129811 
L 133.036791 212.98324 
L 132.351173 210.732779 
L 131.96659 208.415383 
L 131.889356 206.069102 
L 132.12074 203.732462 
L 132.656943 201.443832 
L 133.489159 199.240789 
L 134.603725 197.159509 
L 135.982338 195.234165 
L 137.602363 193.496372 
L 139.437198 191.974664 
L 141.456716 190.694028 
L 143.627755 189.675492 
L 145.914669 188.935779 
L 148.279904 188.487037 
L 150.684625 188.336633 
" style="fill:none;stroke:#808080;stroke-linecap:square;stroke-width:1.5;"/>
   </g>
   <g id="line2d_69">
    <path clip-path="url(#p6f3aae97d3)" d="M 128.998119 318.077339 
L 131.40284 318.227743 
L 133.768076 318.676486 
L 136.054989 319.416198 
L 138.226029 320.434735 
L 140.245547 321.715371 
L 142.080382 323.237079 
L 143.700406 324.974872 
L 145.07902 326.900215 
L 146.193586 328.981496 
L 147.025802 331.184538 
L 147.562005 333.473169 
L 147.793389 335.809808 
L 147.716155 338.156089 
L 147.331571 340.473486 
L 146.645953 342.723946 
L 145.670558 344.870518 
L 144.421402 346.877955 
L 142.918996 348.713294 
L 141.18801 350.3464 
L 139.256865 351.750456 
L 137.157273 352.902409 
L 134.923708 353.783344 
L 132.592844 354.378795 
L 130.202955 354.678985 
L 127.793283 354.678985 
L 125.403394 354.378795 
L 123.072531 353.783344 
L 120.838965 352.902409 
L 118.739373 351.750456 
L 116.808229 350.3464 
L 115.077243 348.713294 
L 113.574837 346.877955 
L 112.32568 344.870518 
L 111.350285 342.723946 
L 110.664667 340.473486 
L 110.280084 338.156089 
L 110.20285 335.809808 
L 110.434234 333.473169 
L 110.970436 331.184538 
L 111.802653 328.981496 
L 112.917219 326.900215 
L 114.295832 324.974872 
L 115.915857 323.237079 
L 117.750692 321.715371 
L 119.77021 320.434735 
L 121.941249 319.416198 
L 124.228162 318.676486 
L 126.593398 318.227743 
L 128.998119 318.077339 
" style="fill:none;stroke:#808080;stroke-linecap:square;stroke-width:1.5;"/>
   </g>
   <g id="line2d_70">
    <path clip-path="url(#p6f3aae97d3)" d="M 130.805228 324.052614 
L 133.209949 324.203018 
L 135.575185 324.65176 
L 137.862098 325.391473 
L 140.033137 326.410009 
L 142.052655 327.690645 
L 143.88749 329.212353 
L 145.507515 330.950146 
L 146.886128 332.87549 
L 148.000694 334.95677 
L 148.832911 337.159813 
L 149.369113 339.448444 
L 149.600497 341.785083 
L 149.523263 344.131364 
L 149.13868 346.448761 
L 148.453062 348.699221 
L 147.477667 350.845793 
L 146.22851 352.853229 
L 144.726104 354.688569 
L 142.995118 356.321674 
L 141.063974 357.725731 
L 138.964382 358.877684 
L 136.730816 359.758619 
L 134.399953 360.354069 
L 132.010064 360.654259 
L 129.600392 360.654259 
L 127.210503 360.354069 
L 124.879639 359.758619 
L 122.646074 358.877684 
L 120.546482 357.725731 
L 118.615337 356.321674 
L 116.884351 354.688569 
L 115.381945 352.853229 
L 114.132789 350.845793 
L 113.157394 348.699221 
L 112.471776 346.448761 
L 112.087192 344.131364 
L 112.009958 341.785083 
L 112.241342 339.448444 
L 112.777545 337.159813 
L 113.609761 334.95677 
L 114.724327 332.87549 
L 116.102941 330.950146 
L 117.722965 329.212353 
L 119.5578 327.690645 
L 121.577318 326.410009 
L 123.748358 325.391473 
L 126.035271 324.65176 
L 128.400506 324.203018 
L 130.805228 324.052614 
" style="fill:none;stroke:#808080;stroke-linecap:square;stroke-width:1.5;"/>
   </g>
   <g id="line2d_71">
    <path clip-path="url(#p6f3aae97d3)" d="M 314.657024 331.945284 
L 317.061745 332.095688 
L 319.426981 332.54443 
L 321.713894 333.284143 
L 323.884933 334.302679 
L 325.904451 335.583315 
L 327.739286 337.105023 
L 329.359311 338.842816 
L 330.737924 340.76816 
L 331.85249 342.84944 
L 332.684706 345.052483 
L 333.220909 347.341114 
L 333.452293 349.677753 
L 333.375059 352.024034 
L 332.990476 354.34143 
L 332.304858 356.591891 
L 331.329462 358.738463 
L 330.080306 360.745899 
L 328.5779 362.581238 
L 326.846914 364.214344 
L 324.91577 365.618401 
L 322.816177 366.770354 
L 320.582612 367.651289 
L 318.251748 368.246739 
L 315.86186 368.546929 
L 313.452188 368.546929 
L 311.062299 368.246739 
L 308.731435 367.651289 
L 306.49787 366.770354 
L 304.398277 365.618401 
L 302.467133 364.214344 
L 300.736147 362.581238 
L 299.233741 360.745899 
L 297.984585 358.738463 
L 297.00919 356.591891 
L 296.323571 354.34143 
L 295.938988 352.024034 
L 295.861754 349.677753 
L 296.093138 347.341114 
L 296.629341 345.052483 
L 297.461557 342.84944 
L 298.576123 340.76816 
L 299.954736 338.842816 
L 301.574761 337.105023 
L 303.409596 335.583315 
L 305.429114 334.302679 
L 307.600153 333.284143 
L 309.887067 332.54443 
L 312.252302 332.095688 
L 314.657024 331.945284 
" style="fill:none;stroke:#808080;stroke-linecap:square;stroke-width:1.5;"/>
   </g>
   <g id="line2d_72">
    <path clip-path="url(#p6f3aae97d3)" d="M 350.746429 156.236058 
L 353.151151 156.386462 
L 355.516386 156.835204 
L 357.8033 157.574917 
L 359.974339 158.593453 
L 361.993857 159.874089 
L 363.828692 161.395797 
L 365.448717 163.13359 
L 366.82733 165.058934 
L 367.941896 167.140214 
L 368.774112 169.343257 
L 369.310315 171.631887 
L 369.541699 173.968527 
L 369.464465 176.314808 
L 369.079882 178.632204 
L 368.394263 180.882665 
L 367.418868 183.029236 
L 366.169712 185.036673 
L 364.667306 186.872012 
L 362.93632 188.505118 
L 361.005176 189.909175 
L 358.905583 191.061128 
L 356.672018 191.942062 
L 354.341154 192.537513 
L 351.951266 192.837703 
L 349.541593 192.837703 
L 347.151705 192.537513 
L 344.820841 191.942062 
L 342.587276 191.061128 
L 340.487683 189.909175 
L 338.556539 188.505118 
L 336.825553 186.872012 
L 335.323147 185.036673 
L 334.073991 183.029236 
L 333.098595 180.882665 
L 332.412977 178.632204 
L 332.028394 176.314808 
L 331.95116 173.968527 
L 332.182544 171.631887 
L 332.718747 169.343257 
L 333.550963 167.140214 
L 334.665529 165.058934 
L 336.044142 163.13359 
L 337.664167 161.395797 
L 339.499002 159.874089 
L 341.51852 158.593453 
L 343.689559 157.574917 
L 345.976472 156.835204 
L 348.341708 156.386462 
L 350.746429 156.236058 
" style="fill:none;stroke:#808080;stroke-linecap:square;stroke-width:1.5;"/>
   </g>
   <g id="line2d_73"/>
   <g id="line2d_74"/>
   <g id="line2d_75"/>
   <g id="line2d_76"/>
   <g id="line2d_77"/>
   <g id="line2d_78"/>
   <g id="line2d_79"/>
   <g id="line2d_80"/>
   <g id="line2d_81"/>
   <g id="line2d_82"/>
   <g id="line2d_83"/>
   <g id="line2d_84"/>
   <g id="line2d_85"/>
   <g id="line2d_86"/>
   <g id="line2d_87"/>
   <g id="line2d_88"/>
   <g id="line2d_89"/>
   <g id="line2d_90"/>
   <g id="line2d_91"/>
   <g id="line2d_92"/>
   <g id="line2d_93"/>
   <g id="line2d_94"/>
   <g id="line2d_95"/>
   <g id="line2d_96"/>
   <g id="line2d_97"/>
   <g id="line2d_98"/>
   <g id="line2d_99"/>
   <g id="line2d_100"/>
   <g id="line2d_101"/>
   <g id="line2d_102"/>
   <g id="line2d_103"/>
   <g id="line2d_104"/>
   <g id="line2d_105"/>
   <g id="line2d_106"/>
   <g id="line2d_107"/>
   <g id="line2d_108"/>
   <g id="line2d_109"/>
   <g id="line2d_110"/>
   <g id="line2d_111"/>
   <g id="line2d_112"/>
   <g id="line2d_113"/>
   <g id="line2d_114"/>
   <g id="line2d_115"/>
   <g id="line2d_116"/>
   <g id="line2d_117"/>
   <g id="line2d_118"/>
   <g id="line2d_119"/>
   <g id="line2d_120"/>
   <g id="line2d_121"/>
   <g id="line2d_122"/>
   <g id="line2d_123"/>
   <g id="patch_3">
    <path d="M 90 630 
L 90 86.4 
" style="fill:none;stroke:#000000;stroke-linecap:square;stroke-linejoin:miter;stroke-width:0.8;"/>
   </g>
   <g id="patch_4">
    <path d="M 648 630 
L 648 86.4 
" style="fill:none;stroke:#000000;stroke-linecap:square;stroke-linejoin:miter;stroke-width:0.8;"/>
   </g>
   <g id="patch_5">
    <path d="M 90 630 
L 648 630 
" style="fill:none;stroke:#000000;stroke-linecap:square;stroke-linejoin:miter;stroke-width:0.8;"/>
   </g>
   <g id="patch_6">
    <path d="M 90 86.4 
L 648 86.4 
" style="fill:none;stroke:#000000;stroke-linecap:square;stroke-linejoin:miter;stroke-width:0.8;"/>
   </g>
   <g id="text_19">
    <!-- 0 -->
    <g transform="translate(28.846542 445.313404)scale(0.1 -0.1)">
     <use xlink:href="#DejaVuSans-30"/>
    </g>
   </g>
   <g id="text_20">
    <!-- 0 -->
    <g transform="translate(28.846542 426.993761)scale(0.1 -0.1)">
     <use xlink:href="#DejaVuSans-30"/>
    </g>
   </g>
   <g id="text_21">
    <!-- 0 -->
    <g transform="translate(28.846542 408.674119)scale(0.1 -0.1)">
     <use xlink:href="#DejaVuSans-30"/>
    </g>
   </g>
  </g>
 </g>
 <defs>
  <clipPath id="p6f3aae97d3">
   <rect height="543.6" width="558" x="90" y="86.4"/>
  </clipPath>
 </defs>
</svg>
