<?xml version="1.0" encoding="utf-8" standalone="no"?>
<!DOCTYPE svg PUBLIC "-//W3C//DTD SVG 1.1//EN"
  "http://www.w3.org/Graphics/SVG/1.1/DTD/svg11.dtd">
<svg height="720pt" version="1.1" viewBox="0 0 720 720" width="720pt" xmlns="http://www.w3.org/2000/svg" xmlns:xlink="http://www.w3.org/1999/xlink">
 <metadata>
  <rdf:RDF xmlns:cc="http://creativecommons.org/ns#" xmlns:dc="http://purl.org/dc/elements/1.1/" xmlns:rdf="http://www.w3.org/1999/02/22-rdf-syntax-ns#">
   <cc:Work>
    <dc:type rdf:resource="http://purl.org/dc/dcmitype/StillImage"/>
    <dc:date>2022-01-11T13:26:00.329201</dc:date>
    <dc:format>image/svg+xml</dc:format>
    <dc:creator>
     <cc:Agent>
      <dc:title>Matplotlib v3.4.3, https://matplotlib.org/</dc:title>
     </cc:Agent>
    </dc:creator>
   </cc:Work>
  </rdf:RDF>
 </metadata>
 <defs>
  <style type="text/css">*{stroke-linecap:butt;stroke-linejoin:round;}</style>
 </defs>
 <g id="figure_1">
  <g id="patch_1">
   <path d="M 0 720 
L 720 720 
L 720 0 
L 0 0 
z
" style="fill:none;"/>
  </g>
  <g id="axes_1">
   <g id="patch_2">
    <path d="M 90 630 
L 648 630 
L 648 86.4 
L 90 86.4 
z
" style="fill:#ffffff;"/>
   </g>
   <g id="PathCollection_1">
    <defs>
     <path d="M 0.972304 -8.870829 
Q -1.277159 -8.870829 -2.413438 -6.653699 
Q -3.545098 -4.441189 -3.545098 0.006929 
Q -3.545098 4.436569 -2.413438 6.653699 
Q -1.277159 8.870829 0.972304 8.870829 
Q 3.240243 8.870829 4.371903 6.653699 
Q 5.508182 4.436569 5.508182 0.006929 
Q 5.508182 -4.441189 4.371903 -6.653699 
Q 3.240243 -8.870829 0.972304 -8.870829 
z
M 0.972304 -11.18034 
Q 4.598235 -11.18034 6.51051 -8.311928 
Q 8.422784 -5.448135 8.422784 0.006929 
Q 8.422784 5.448135 6.51051 8.316547 
Q 4.598235 11.18034 0.972304 11.18034 
Q -2.649008 11.18034 -4.561283 8.316547 
Q -6.473558 5.448135 -6.473558 0.006929 
Q -6.473558 -5.448135 -4.561283 -8.311928 
Q -2.649008 -11.18034 0.972304 -11.18034 
z
" id="m6555aa3baa" style="stroke:#808080;"/>
    </defs>
    <g clip-path="url(#p2a0f432f33)">
     <use style="fill:#808080;stroke:#808080;" x="265.873303" xlink:href="#m6555aa3baa" y="171.758245"/>
    </g>
   </g>
   <g id="PathCollection_2">
    <defs>
     <path d="M -4.535873 8.63565 
L 0.404946 8.63565 
L 0.404946 -8.424791 
L -4.971969 -7.346533 
L -4.971969 -10.102082 
L 0.376192 -11.18034 
L 3.400108 -11.18034 
L 3.400108 8.63565 
L 8.340927 8.63565 
L 8.340927 11.18034 
L -4.535873 11.18034 
L -4.535873 8.63565 
z
" id="m8e039a75d5" style="stroke:#808080;"/>
    </defs>
    <g clip-path="url(#p2a0f432f33)">
     <use style="fill:#808080;stroke:#808080;" x="177.520821" xlink:href="#m8e039a75d5" y="220.58785"/>
    </g>
   </g>
   <g id="PathCollection_3">
    <defs>
     <path d="M -2.294912 8.680651 
L 8.075736 8.680651 
L 8.075736 11.18034 
L -5.867913 11.18034 
L -5.867913 8.680651 
Q -4.177916 6.929457 -1.259259 3.982555 
Q 1.664105 1.030945 2.4126 0.174178 
Q 3.838976 -1.426376 4.403877 -2.537349 
Q 4.973486 -3.648321 4.973486 -4.721634 
Q 4.973486 -6.472828 3.744825 -7.574386 
Q 2.516165 -8.680651 0.543718 -8.680651 
Q -0.854413 -8.680651 -2.407892 -8.195778 
Q -3.956663 -7.710904 -5.72198 -6.722326 
L -5.72198 -9.725719 
Q -3.928418 -10.445968 -2.370232 -10.813154 
Q -0.807338 -11.18034 0.487227 -11.18034 
Q 3.900173 -11.18034 5.929111 -9.471513 
Q 7.958048 -7.767394 7.958048 -4.914642 
Q 7.958048 -3.558879 7.449637 -2.344341 
Q 6.945933 -1.13451 5.604292 0.513119 
Q 5.237107 0.941502 3.264659 2.979855 
Q 1.296919 5.018207 -2.294912 8.680651 
z
" id="md5f910de9f" style="stroke:#808080;"/>
    </defs>
    <g clip-path="url(#p2a0f432f33)">
     <use style="fill:#808080;stroke:#808080;" x="216.445533" xlink:href="#md5f910de9f" y="441.803587"/>
    </g>
   </g>
   <g id="PathCollection_4">
    <defs>
     <path d="M 3.77605 -0.861447 
Q 5.868466 -0.413402 7.041697 1.004637 
Q 8.219548 2.418057 8.219548 4.496617 
Q 8.219548 7.683741 6.025513 9.43435 
Q 3.831478 11.18034 -0.210165 11.18034 
Q -1.563539 11.18034 -3.000054 10.912437 
Q -4.436569 10.644533 -5.965465 10.108727 
L -5.965465 7.295743 
Q -4.755282 8.002454 -3.314147 8.362737 
Q -1.868394 8.723021 -0.293308 8.723021 
Q 2.445772 8.723021 3.882287 7.64217 
Q 5.318802 6.561319 5.318802 4.496617 
Q 5.318802 2.588961 3.983905 1.517348 
Q 2.649008 0.441116 0.270213 0.441116 
L -2.242535 0.441116 
L -2.242535 -1.956155 
L 0.385688 -1.956155 
Q 2.533533 -1.956155 3.674431 -2.815293 
Q 4.815329 -3.674431 4.815329 -5.291088 
Q 4.815329 -6.949317 3.637479 -7.836169 
Q 2.464248 -8.72764 0.270213 -8.72764 
Q -0.930733 -8.72764 -2.302582 -8.464356 
Q -3.674431 -8.20569 -5.318802 -7.660646 
L -5.318802 -10.256536 
Q -3.655955 -10.718438 -2.205582 -10.949389 
Q -0.75521 -11.18034 0.528878 -11.18034 
Q 3.849954 -11.18034 5.780705 -9.66992 
Q 7.716074 -8.164119 7.716074 -5.595944 
Q 7.716074 -3.803764 6.690652 -2.570485 
Q 5.665229 -1.337207 3.77605 -0.861447 
z
" id="mc4f6536877" style="stroke:#808080;"/>
    </defs>
    <g clip-path="url(#p2a0f432f33)">
     <use style="fill:#808080;stroke:#808080;" x="399.176922" xlink:href="#mc4f6536877" y="576.764664"/>
    </g>
   </g>
   <g id="PathCollection_5">
    <defs>
     <path d="M 2.695646 -8.544598 
L -4.943215 3.392919 
L 2.695646 3.392919 
L 2.695646 -8.544598 
z
M 1.900131 -11.18034 
L 5.705184 -11.18034 
L 5.705184 3.392919 
L 8.896829 3.392919 
L 8.896829 5.908855 
L 5.705184 5.908855 
L 5.705184 11.18034 
L 2.695646 11.18034 
L 2.695646 5.908855 
L -7.396852 5.908855 
L -7.396852 2.99037 
L 1.900131 -11.18034 
z
" id="mafba6880f6" style="stroke:#808080;"/>
    </defs>
    <g clip-path="url(#p2a0f432f33)">
     <use style="fill:#808080;stroke:#808080;" x="399.176922" xlink:href="#mafba6880f6" y="576.764664"/>
    </g>
   </g>
   <g id="PathCollection_6">
    <defs>
     <path d="M -5.008473 -11.18034 
L 6.639575 -11.18034 
L 6.639575 -8.679629 
L -2.291535 -8.679629 
L -2.291535 -3.306861 
Q -1.647555 -3.527789 -1.003575 -3.635902 
Q -0.354894 -3.744015 0.293787 -3.744015 
Q 3.964943 -3.744015 6.108409 -1.732165 
Q 8.256576 0.279685 8.256576 3.715812 
Q 8.256576 7.255352 6.052002 9.220196 
Q 3.847428 11.18034 -0.16217 11.18034 
Q -1.544142 11.18034 -2.97782 10.945311 
Q -4.406798 10.710281 -5.934488 10.240223 
L -5.934488 7.255352 
Q -4.613624 7.974541 -3.203448 8.327085 
Q -1.793273 8.679629 -0.223278 8.679629 
Q 2.319738 8.679629 3.800422 7.344663 
Q 5.285807 6.009697 5.285807 3.715812 
Q 5.285807 1.426627 3.800422 0.091661 
Q 2.319738 -1.248005 -0.223278 -1.248005 
Q -1.412526 -1.248005 -2.597073 -0.984772 
Q -3.77692 -0.72154 -5.008473 -0.16217 
L -5.008473 -11.18034 
z
" id="mca213e608f" style="stroke:#808080;"/>
    </defs>
    <g clip-path="url(#p2a0f432f33)">
     <use style="fill:#808080;stroke:#808080;" x="442.109393" xlink:href="#mca213e608f" y="412.482324"/>
    </g>
   </g>
   <g id="PathCollection_7">
    <defs>
     <path d="M 1.286397 -1.175541 
Q -0.676687 -1.175541 -1.826823 0.168594 
Q -2.97234 1.50811 -2.97234 3.845335 
Q -2.97234 6.168702 -1.826823 7.522075 
Q -0.676687 8.870829 1.286397 8.870829 
Q 3.249481 8.870829 4.394998 7.522075 
Q 5.540515 6.168702 5.540515 3.845335 
Q 5.540515 1.50811 4.394998 0.168594 
Q 3.249481 -1.175541 1.286397 -1.175541 
z
M 7.07403 -10.316583 
L 7.07403 -7.660646 
Q 5.974703 -8.177976 4.8569 -8.450499 
Q 3.739097 -8.72764 2.63977 -8.72764 
Q -0.247118 -8.72764 -1.771394 -6.778413 
Q -3.291052 -4.829186 -3.508146 -0.889162 
Q -2.658246 -2.145535 -1.374159 -2.815293 
Q -0.085452 -3.485051 1.457301 -3.485051 
Q 4.704473 -3.485051 6.589033 -1.512729 
Q 8.473594 0.454974 8.473594 3.845335 
Q 8.473594 7.166411 6.51051 9.175685 
Q 4.547426 11.18034 1.286397 11.18034 
Q -2.45501 11.18034 -4.43195 8.316547 
Q -6.408891 5.448135 -6.408891 0.006929 
Q -6.408891 -5.101708 -3.983905 -8.141024 
Q -1.55892 -11.18034 2.524295 -11.18034 
Q 3.623622 -11.18034 4.741425 -10.963246 
Q 5.859228 -10.746152 7.07403 -10.316583 
z
" id="m294a821fe6" style="stroke:#808080;"/>
    </defs>
    <g clip-path="url(#p2a0f432f33)">
     <use style="fill:#808080;stroke:#808080;" x="372.930737" xlink:href="#m294a821fe6" y="334.592072"/>
    </g>
   </g>
   <g id="PathCollection_8"/>
   <g id="PathCollection_9"/>
   <g id="PathCollection_10"/>
   <g id="PathCollection_11"/>
   <g id="PathCollection_12"/>
   <g id="matplotlib.axis_1">
    <g id="xtick_1">
     <g id="line2d_1">
      <defs>
       <path d="M 0 0 
L 0 3.5 
" id="mab8789ee1c" style="stroke:#000000;stroke-width:0.8;"/>
      </defs>
      <g>
       <use style="stroke:#000000;stroke-width:0.8;" x="129.583231" xlink:href="#mab8789ee1c" y="630"/>
      </g>
     </g>
     <g id="text_1">
      <!-- −150 -->
      <g transform="translate(115.849637 644.598438)scale(0.1 -0.1)">
       <defs>
        <path d="M 678 2272 
L 4684 2272 
L 4684 1741 
L 678 1741 
L 678 2272 
z
" id="DejaVuSans-2212" transform="scale(0.015625)"/>
        <path d="M 794 531 
L 1825 531 
L 1825 4091 
L 703 3866 
L 703 4441 
L 1819 4666 
L 2450 4666 
L 2450 531 
L 3481 531 
L 3481 0 
L 794 0 
L 794 531 
z
" id="DejaVuSans-31" transform="scale(0.015625)"/>
        <path d="M 691 4666 
L 3169 4666 
L 3169 4134 
L 1269 4134 
L 1269 2991 
Q 1406 3038 1543 3061 
Q 1681 3084 1819 3084 
Q 2600 3084 3056 2656 
Q 3513 2228 3513 1497 
Q 3513 744 3044 326 
Q 2575 -91 1722 -91 
Q 1428 -91 1123 -41 
Q 819 9 494 109 
L 494 744 
Q 775 591 1075 516 
Q 1375 441 1709 441 
Q 2250 441 2565 725 
Q 2881 1009 2881 1497 
Q 2881 1984 2565 2268 
Q 2250 2553 1709 2553 
Q 1456 2553 1204 2497 
Q 953 2441 691 2322 
L 691 4666 
z
" id="DejaVuSans-35" transform="scale(0.015625)"/>
        <path d="M 2034 4250 
Q 1547 4250 1301 3770 
Q 1056 3291 1056 2328 
Q 1056 1369 1301 889 
Q 1547 409 2034 409 
Q 2525 409 2770 889 
Q 3016 1369 3016 2328 
Q 3016 3291 2770 3770 
Q 2525 4250 2034 4250 
z
M 2034 4750 
Q 2819 4750 3233 4129 
Q 3647 3509 3647 2328 
Q 3647 1150 3233 529 
Q 2819 -91 2034 -91 
Q 1250 -91 836 529 
Q 422 1150 422 2328 
Q 422 3509 836 4129 
Q 1250 4750 2034 4750 
z
" id="DejaVuSans-30" transform="scale(0.015625)"/>
       </defs>
       <use xlink:href="#DejaVuSans-2212"/>
       <use x="83.789062" xlink:href="#DejaVuSans-31"/>
       <use x="147.412109" xlink:href="#DejaVuSans-35"/>
       <use x="211.035156" xlink:href="#DejaVuSans-30"/>
      </g>
     </g>
    </g>
    <g id="xtick_2">
     <g id="line2d_2">
      <g>
       <use style="stroke:#000000;stroke-width:0.8;" x="203.976405" xlink:href="#mab8789ee1c" y="630"/>
      </g>
     </g>
     <g id="text_2">
      <!-- −100 -->
      <g transform="translate(190.242811 644.598438)scale(0.1 -0.1)">
       <use xlink:href="#DejaVuSans-2212"/>
       <use x="83.789062" xlink:href="#DejaVuSans-31"/>
       <use x="147.412109" xlink:href="#DejaVuSans-30"/>
       <use x="211.035156" xlink:href="#DejaVuSans-30"/>
      </g>
     </g>
    </g>
    <g id="xtick_3">
     <g id="line2d_3">
      <g>
       <use style="stroke:#000000;stroke-width:0.8;" x="278.369579" xlink:href="#mab8789ee1c" y="630"/>
      </g>
     </g>
     <g id="text_3">
      <!-- −50 -->
      <g transform="translate(267.817235 644.598438)scale(0.1 -0.1)">
       <use xlink:href="#DejaVuSans-2212"/>
       <use x="83.789062" xlink:href="#DejaVuSans-35"/>
       <use x="147.412109" xlink:href="#DejaVuSans-30"/>
      </g>
     </g>
    </g>
    <g id="xtick_4">
     <g id="line2d_4">
      <g>
       <use style="stroke:#000000;stroke-width:0.8;" x="352.762753" xlink:href="#mab8789ee1c" y="630"/>
      </g>
     </g>
     <g id="text_4">
      <!-- 0 -->
      <g transform="translate(349.581503 644.598438)scale(0.1 -0.1)">
       <use xlink:href="#DejaVuSans-30"/>
      </g>
     </g>
    </g>
    <g id="xtick_5">
     <g id="line2d_5">
      <g>
       <use style="stroke:#000000;stroke-width:0.8;" x="427.155927" xlink:href="#mab8789ee1c" y="630"/>
      </g>
     </g>
     <g id="text_5">
      <!-- 50 -->
      <g transform="translate(420.793427 644.598438)scale(0.1 -0.1)">
       <use xlink:href="#DejaVuSans-35"/>
       <use x="63.623047" xlink:href="#DejaVuSans-30"/>
      </g>
     </g>
    </g>
    <g id="xtick_6">
     <g id="line2d_6">
      <g>
       <use style="stroke:#000000;stroke-width:0.8;" x="501.5491" xlink:href="#mab8789ee1c" y="630"/>
      </g>
     </g>
     <g id="text_6">
      <!-- 100 -->
      <g transform="translate(492.00535 644.598438)scale(0.1 -0.1)">
       <use xlink:href="#DejaVuSans-31"/>
       <use x="63.623047" xlink:href="#DejaVuSans-30"/>
       <use x="127.246094" xlink:href="#DejaVuSans-30"/>
      </g>
     </g>
    </g>
    <g id="xtick_7">
     <g id="line2d_7">
      <g>
       <use style="stroke:#000000;stroke-width:0.8;" x="575.942274" xlink:href="#mab8789ee1c" y="630"/>
      </g>
     </g>
     <g id="text_7">
      <!-- 150 -->
      <g transform="translate(566.398524 644.598438)scale(0.1 -0.1)">
       <use xlink:href="#DejaVuSans-31"/>
       <use x="63.623047" xlink:href="#DejaVuSans-35"/>
       <use x="127.246094" xlink:href="#DejaVuSans-30"/>
      </g>
     </g>
    </g>
   </g>
   <g id="matplotlib.axis_2">
    <g id="ytick_1">
     <g id="line2d_8">
      <defs>
       <path d="M 0 0 
L -3.5 0 
" id="mff3b87c477" style="stroke:#000000;stroke-width:0.8;"/>
      </defs>
      <g>
       <use style="stroke:#000000;stroke-width:0.8;" x="90" xlink:href="#mff3b87c477" y="591.438272"/>
      </g>
     </g>
     <g id="text_8">
      <!-- −150 -->
      <g transform="translate(55.532812 595.23749)scale(0.1 -0.1)">
       <use xlink:href="#DejaVuSans-2212"/>
       <use x="83.789062" xlink:href="#DejaVuSans-31"/>
       <use x="147.412109" xlink:href="#DejaVuSans-35"/>
       <use x="211.035156" xlink:href="#DejaVuSans-30"/>
      </g>
     </g>
    </g>
    <g id="ytick_2">
     <g id="line2d_9">
      <g>
       <use style="stroke:#000000;stroke-width:0.8;" x="90" xlink:href="#mff3b87c477" y="518.964922"/>
      </g>
     </g>
     <g id="text_9">
      <!-- −100 -->
      <g transform="translate(55.532812 522.76414)scale(0.1 -0.1)">
       <use xlink:href="#DejaVuSans-2212"/>
       <use x="83.789062" xlink:href="#DejaVuSans-31"/>
       <use x="147.412109" xlink:href="#DejaVuSans-30"/>
       <use x="211.035156" xlink:href="#DejaVuSans-30"/>
      </g>
     </g>
    </g>
    <g id="ytick_3">
     <g id="line2d_10">
      <g>
       <use style="stroke:#000000;stroke-width:0.8;" x="90" xlink:href="#mff3b87c477" y="446.491572"/>
      </g>
     </g>
     <g id="text_10">
      <!-- −50 -->
      <g transform="translate(61.895313 450.29079)scale(0.1 -0.1)">
       <use xlink:href="#DejaVuSans-2212"/>
       <use x="83.789062" xlink:href="#DejaVuSans-35"/>
       <use x="147.412109" xlink:href="#DejaVuSans-30"/>
      </g>
     </g>
    </g>
    <g id="ytick_4">
     <g id="line2d_11">
      <g>
       <use style="stroke:#000000;stroke-width:0.8;" x="90" xlink:href="#mff3b87c477" y="374.018222"/>
      </g>
     </g>
     <g id="text_11">
      <!-- 0 -->
      <g transform="translate(76.6375 377.81744)scale(0.1 -0.1)">
       <use xlink:href="#DejaVuSans-30"/>
      </g>
     </g>
    </g>
    <g id="ytick_5">
     <g id="line2d_12">
      <g>
       <use style="stroke:#000000;stroke-width:0.8;" x="90" xlink:href="#mff3b87c477" y="301.544872"/>
      </g>
     </g>
     <g id="text_12">
      <!-- 50 -->
      <g transform="translate(70.275 305.34409)scale(0.1 -0.1)">
       <use xlink:href="#DejaVuSans-35"/>
       <use x="63.623047" xlink:href="#DejaVuSans-30"/>
      </g>
     </g>
    </g>
    <g id="ytick_6">
     <g id="line2d_13">
      <g>
       <use style="stroke:#000000;stroke-width:0.8;" x="90" xlink:href="#mff3b87c477" y="229.071522"/>
      </g>
     </g>
     <g id="text_13">
      <!-- 100 -->
      <g transform="translate(63.9125 232.87074)scale(0.1 -0.1)">
       <use xlink:href="#DejaVuSans-31"/>
       <use x="63.623047" xlink:href="#DejaVuSans-30"/>
       <use x="127.246094" xlink:href="#DejaVuSans-30"/>
      </g>
     </g>
    </g>
    <g id="ytick_7">
     <g id="line2d_14">
      <g>
       <use style="stroke:#000000;stroke-width:0.8;" x="90" xlink:href="#mff3b87c477" y="156.598172"/>
      </g>
     </g>
     <g id="text_14">
      <!-- 150 -->
      <g transform="translate(63.9125 160.39739)scale(0.1 -0.1)">
       <use xlink:href="#DejaVuSans-31"/>
       <use x="63.623047" xlink:href="#DejaVuSans-35"/>
       <use x="127.246094" xlink:href="#DejaVuSans-30"/>
      </g>
     </g>
    </g>
   </g>
   <g id="line2d_15">
    <path clip-path="url(#p2a0f432f33)" d="M 372.930737 334.592072 
L 369.791142 327.812535 
L 366.244593 321.232098 
L 362.561517 314.730369 
L 358.796436 308.277724 
L 354.971586 301.860722 
L 351.098365 295.471768 
L 347.18333 289.106064 
L 343.23049 282.76041 
L 339.242363 276.432632 
L 335.220509 270.121276 
L 331.165836 263.825436 
L 327.078769 257.544644 
L 322.95935 251.278807 
L 318.807298 245.028161 
L 314.622038 238.793253 
L 310.402707 232.574928 
L 306.148146 226.374337 
L 301.856878 220.192949 
L 297.527068 214.032585 
L 293.156471 207.895459 
L 288.742351 201.784249 
L 284.281389 195.702184 
L 279.769544 189.653178 
L 275.201879 183.642008 
L 270.572315 177.674568 
L 265.873303 171.758245 
" style="fill:none;stroke:#808080;stroke-linecap:square;stroke-width:1.5;"/>
   </g>
   <g id="line2d_16">
    <path clip-path="url(#p2a0f432f33)" d="M 265.873303 334.592072 
L 265.873303 171.758245 
L 372.930737 171.758245 
L 372.930737 334.592072 
L 265.873303 334.592072 
" style="fill:none;stroke:#d3d3d3;stroke-linecap:square;stroke-width:0.5;"/>
   </g>
   <g id="line2d_17">
    <path clip-path="url(#p2a0f432f33)" d="M 265.873303 171.758245 
L 261.095352 165.902466 
L 256.226358 160.119531 
L 251.250612 154.425945 
L 246.147294 148.844602 
L 240.888099 143.408605 
L 235.433405 138.16838 
L 229.725922 133.206024 
L 223.680446 128.667267 
L 217.171654 124.840956 
L 210.058687 122.370275 
L 202.534852 122.62509 
L 196.044253 126.622663 
L 191.556443 132.752029 
L 188.446902 139.580115 
L 186.147291 146.680968 
L 184.364648 153.917936 
L 182.939666 161.23187 
L 181.776758 168.592664 
L 180.814062 175.983478 
L 180.009207 183.39425 
L 179.331892 190.818668 
L 178.759684 198.252615 
L 178.27551 205.693314 
L 177.866075 213.138847 
L 177.520821 220.58785 
" style="fill:none;stroke:#808080;stroke-linecap:square;stroke-width:1.5;"/>
   </g>
   <g id="line2d_18">
    <path clip-path="url(#p2a0f432f33)" d="M 177.520821 220.58785 
L 177.520821 122.370275 
L 265.873303 122.370275 
L 265.873303 220.58785 
L 177.520821 220.58785 
" style="fill:none;stroke:#d3d3d3;stroke-linecap:square;stroke-width:0.5;"/>
   </g>
   <g id="line2d_19">
    <path clip-path="url(#p2a0f432f33)" d="M 177.520821 220.58785 
L 177.245111 227.908706 
L 177.040437 235.232459 
L 176.908624 242.558224 
L 176.851451 249.885534 
L 176.870782 257.213933 
L 176.96863 264.542814 
L 177.147199 271.871357 
L 177.408902 279.198529 
L 177.756384 286.523101 
L 178.192537 293.843671 
L 178.720522 301.158679 
L 179.343783 308.466419 
L 180.066073 315.765043 
L 180.89147 323.05255 
L 181.824404 330.326767 
L 182.869676 337.585328 
L 184.032477 344.825633 
L 185.318408 352.044807 
L 186.733489 359.239647 
L 188.284165 366.406563 
L 189.9773 373.541517 
L 191.820161 380.639954 
L 193.820378 387.696736 
L 195.985886 394.706073 
L 198.324837 401.661473 
L 200.845476 408.555691 
L 203.555986 415.380715 
L 206.46428 422.127775 
L 209.577758 428.787395 
L 212.903016 435.3495 
L 216.445533 441.803587 
" style="fill:none;stroke:#808080;stroke-linecap:square;stroke-width:1.5;"/>
   </g>
   <g id="line2d_20">
    <path clip-path="url(#p2a0f432f33)" d="M 176.851451 441.803587 
L 176.851451 220.58785 
L 216.445533 220.58785 
L 216.445533 441.803587 
L 176.851451 441.803587 
" style="fill:none;stroke:#d3d3d3;stroke-linecap:square;stroke-width:0.5;"/>
   </g>
   <g id="line2d_21">
    <path clip-path="url(#p2a0f432f33)" d="M 216.445533 441.803587 
L 220.20933 448.138959 
L 224.196648 454.345028 
L 228.407655 460.411675 
L 232.840231 466.329649 
L 237.489848 472.090971 
L 242.349589 477.689311 
L 247.410296 483.120297 
L 252.66086 488.381718 
L 258.08861 493.473611 
L 263.679787 498.398212 
L 269.420032 503.159783 
L 275.294858 507.76435 
L 281.290078 512.219377 
L 287.392138 516.533402 
L 293.588379 520.715692 
L 299.867195 524.775908 
L 306.218123 528.723832 
L 312.631867 532.569127 
L 319.10026 536.321161 
L 325.616206 539.988876 
L 332.17359 543.580699 
L 338.767176 547.104487 
L 345.392498 550.567502 
L 352.045759 553.976406 
L 358.723723 557.337268 
L 365.423618 560.655584 
L 372.143048 563.936304 
L 378.879911 567.183858 
L 385.63232 570.402186 
L 392.398539 573.594771 
L 399.176922 576.764664 
" style="fill:none;stroke:#808080;stroke-linecap:square;stroke-width:1.5;"/>
   </g>
   <g id="line2d_22">
    <path clip-path="url(#p2a0f432f33)" d="M 216.445533 576.764664 
L 216.445533 441.803587 
L 399.176922 441.803587 
L 399.176922 576.764664 
L 216.445533 576.764664 
" style="fill:none;stroke:#d3d3d3;stroke-linecap:square;stroke-width:0.5;"/>
   </g>
   <g id="line2d_23">
    <path clip-path="url(#p2a0f432f33)" d="M 399.176922 576.764664 
" style="fill:none;stroke:#808080;stroke-linecap:square;stroke-width:1.5;"/>
   </g>
   <g id="line2d_24">
    <path clip-path="url(#p2a0f432f33)" d="M 399.176922 576.764664 
L 399.176922 576.764664 
L 399.176922 576.764664 
L 399.176922 576.764664 
L 399.176922 576.764664 
" style="fill:none;stroke:#d3d3d3;stroke-linecap:square;stroke-width:0.5;"/>
   </g>
   <g id="line2d_25">
    <path clip-path="url(#p2a0f432f33)" d="M 399.176922 576.764664 
L 406.035269 579.843024 
L 412.986177 582.716535 
L 420.032642 585.358331 
L 427.176898 587.735403 
L 434.419685 589.806723 
L 441.758983 591.520725 
L 449.187794 592.811925 
L 456.690188 593.596566 
L 464.23421 593.767581 
L 471.759361 593.190661 
L 479.156487 591.707114 
L 486.243459 589.156273 
L 492.758273 585.431893 
L 498.408905 580.557956 
L 502.979624 574.715675 
L 506.407425 568.176075 
L 508.763416 561.200022 
L 510.183391 553.984635 
L 510.812109 546.66038 
L 510.777491 539.308174 
L 510.184112 531.976885 
L 509.114775 524.695848 
L 507.634348 517.482769 
L 505.793564 510.34852 
L 503.632159 503.300017 
L 501.181281 496.341983 
L 498.465277 489.478064 
L 495.502991 482.711571 
L 492.308693 476.046017 
L 488.892711 469.485568 
L 485.261834 463.035471 
L 481.419494 456.702528 
L 477.365764 450.4957 
L 473.097123 444.42693 
L 468.605974 438.512344 
L 463.879803 432.774102 
L 458.89987 427.243378 
L 453.639228 421.96543 
L 448.059894 417.008718 
L 442.109393 412.482324 
" style="fill:none;stroke:#808080;stroke-linecap:square;stroke-width:1.5;"/>
   </g>
   <g id="line2d_26">
    <path clip-path="url(#p2a0f432f33)" d="M 399.176922 593.767581 
L 399.176922 412.482324 
L 510.812109 412.482324 
L 510.812109 593.767581 
L 399.176922 593.767581 
" style="fill:none;stroke:#d3d3d3;stroke-linecap:square;stroke-width:0.5;"/>
   </g>
   <g id="line2d_27">
    <path clip-path="url(#p2a0f432f33)" d="M 442.109393 412.482324 
L 435.851688 408.100568 
L 429.656263 403.637375 
L 423.53888 399.073387 
L 417.520621 394.384008 
L 411.630703 389.539081 
L 405.909391 384.503095 
L 400.410185 379.236744 
L 395.199489 373.701099 
L 390.351119 367.865426 
L 385.933582 361.717576 
L 381.992354 355.271857 
L 378.535756 348.567521 
L 375.533832 341.656966 
L 372.930737 334.592072 
" style="fill:none;stroke:#808080;stroke-linecap:square;stroke-width:1.5;"/>
   </g>
   <g id="line2d_28">
    <path clip-path="url(#p2a0f432f33)" d="M 372.930737 412.482324 
L 372.930737 334.592072 
L 442.109393 334.592072 
L 442.109393 412.482324 
L 372.930737 412.482324 
" style="fill:none;stroke:#d3d3d3;stroke-linecap:square;stroke-width:0.5;"/>
   </g>
   <g id="line2d_29">
    <path clip-path="url(#p2a0f432f33)" d="M 192.38676 221.186525 
L 192.38676 221.186525 
L 192.38676 221.186525 
" style="fill:none;stroke:#000000;stroke-linecap:square;stroke-width:3;"/>
   </g>
   <g id="line2d_30">
    <path clip-path="url(#p2a0f432f33)" d="M 192.38676 221.186525 
L 192.38676 221.186525 
L 192.38676 221.186525 
L 192.38676 221.186525 
L 192.38676 221.186525 
" style="fill:none;stroke:#d3d3d3;stroke-linecap:square;stroke-width:0.5;"/>
   </g>
   <g id="line2d_31">
    <path clip-path="url(#p2a0f432f33)" d="M 192.38676 221.186525 
L 192.726768 213.850467 
L 192.38676 221.186525 
L 192.38676 221.186525 
" style="fill:none;stroke:#000000;stroke-linecap:square;stroke-width:3;"/>
   </g>
   <g id="line2d_32">
    <path clip-path="url(#p2a0f432f33)" d="M 192.38676 221.186525 
L 192.38676 213.850467 
L 192.726768 213.850467 
L 192.726768 221.186525 
L 192.38676 221.186525 
" style="fill:none;stroke:#d3d3d3;stroke-linecap:square;stroke-width:0.5;"/>
   </g>
   <g id="line2d_33">
    <path clip-path="url(#p2a0f432f33)" d="M 192.38676 221.186525 
L 192.116135 228.372263 
L 191.915336 235.55728 
L 191.786077 242.740906 
L 191.730037 249.922614 
L 191.748971 257.101725 
L 191.844769 264.27731 
L 192.019491 271.448163 
L 192.275384 278.612812 
L 192.614898 285.76955 
L 193.040699 292.916455 
L 193.55568 300.051413 
L 194.162982 307.172125 
L 194.866 314.276112 
L 195.668404 321.360705 
L 196.574149 328.423026 
L 197.587493 335.459968 
L 198.713 342.468159 
L 199.955555 349.443927 
L 201.320361 356.383259 
L 202.812936 363.281757 
L 204.439098 370.134599 
L 206.204942 376.936501 
L 208.116803 383.681686 
L 210.1812 390.363874 
L 212.404766 396.976282 
L 214.794157 403.511657 
L 217.355946 409.962335 
L 220.096486 416.320344 
L 223.021767 422.57754 
L 226.137252 428.725789 
L 229.447704 434.757176 
L 232.957004 440.664249 
" style="fill:none;stroke:#000000;stroke-linecap:square;stroke-width:3;"/>
   </g>
   <g id="line2d_34">
    <path clip-path="url(#p2a0f432f33)" d="M 191.730037 440.664249 
L 191.730037 221.186525 
L 232.957004 221.186525 
L 232.957004 440.664249 
L 191.730037 440.664249 
" style="fill:none;stroke:#d3d3d3;stroke-linecap:square;stroke-width:0.5;"/>
   </g>
   <g id="line2d_35">
    <path clip-path="url(#p2a0f432f33)" d="M 232.957004 440.664249 
L 236.667978 446.440259 
L 240.582216 452.079396 
L 244.699922 457.576993 
L 249.019767 462.92968 
L 253.538794 468.135484 
L 258.252364 473.193875 
L 263.154171 478.105745 
L 268.236336 482.873354 
L 273.489588 487.50023 
L 278.903515 491.991032 
L 284.466878 496.351398 
L 290.167948 500.587767 
L 295.994847 504.707191 
L 301.935853 508.717145 
L 307.979668 512.625346 
L 314.115611 516.439586 
L 320.333767 520.167582 
L 326.625063 523.81686 
L 332.981302 527.394655 
L 339.395157 530.90784 
L 345.860133 534.36288 
L 352.370505 537.765799 
L 358.921247 541.122165 
L 365.507955 544.437092 
L 372.126758 547.71524 
L 378.774242 550.960827 
L 385.447367 554.177651 
L 392.14339 557.369102 
L 398.8598 560.538183 
L 405.594248 563.687528 
L 405.594248 563.687528 
" style="fill:none;stroke:#000000;stroke-linecap:square;stroke-width:3;"/>
   </g>
   <g id="line2d_36">
    <path clip-path="url(#p2a0f432f33)" d="M 232.957004 563.687528 
L 232.957004 440.664249 
L 405.594248 440.664249 
L 405.594248 563.687528 
L 232.957004 563.687528 
" style="fill:none;stroke:#d3d3d3;stroke-linecap:square;stroke-width:0.5;"/>
   </g>
   <g id="line2d_37">
    <path clip-path="url(#p2a0f432f33)" d="M 433.496524 424.301514 
L 427.092102 419.816979 
L 420.716888 415.224192 
L 414.377876 410.494732 
L 408.085491 405.591557 
L 401.856975 400.467779 
L 395.721301 395.066542 
L 389.725882 389.324208 
L 383.943777 383.180494 
L 378.476236 376.598511 
L 373.440792 369.590119 
L 368.939358 362.228518 
L 365.020773 354.629402 
L 361.666384 346.909273 
L 358.808026 339.153422 
L 358.808026 339.153422 
" style="fill:none;stroke:#000000;stroke-linecap:square;stroke-width:3;"/>
   </g>
   <g id="line2d_38">
    <path clip-path="url(#p2a0f432f33)" d="M 358.808026 424.301514 
L 358.808026 339.153422 
L 433.496524 339.153422 
L 433.496524 424.301514 
L 358.808026 424.301514 
" style="fill:none;stroke:#d3d3d3;stroke-linecap:square;stroke-width:0.5;"/>
   </g>
   <g id="line2d_39">
    <path clip-path="url(#p2a0f432f33)" d="M 358.808026 339.153422 
L 358.808026 339.153422 
L 356.50606 334.338932 
L 353.158835 328.130097 
L 349.586207 321.823616 
L 345.898364 315.503425 
L 342.134207 309.188282 
L 338.3122 302.883823 
L 334.442531 296.591891 
L 330.531328 290.313084 
L 326.582473 284.047621 
L 322.598482 277.795684 
L 318.580978 271.557558 
L 314.530964 265.333709 
L 310.448983 259.124816 
L 306.335214 252.931802 
L 302.189531 246.75585 
L 298.011534 240.598441 
L 293.800564 234.461375 
L 289.555701 228.346828 
L 285.275756 222.257405 
L 280.959247 216.196223 
L 276.604366 210.167018 
L 272.208943 204.174299 
L 267.770395 198.223546 
L 263.285663 192.321497 
L 258.751155 186.476553 
" style="fill:none;stroke:#000000;stroke-linecap:square;stroke-width:3;"/>
   </g>
   <g id="line2d_40">
    <path clip-path="url(#p2a0f432f33)" d="M 258.751155 339.153422 
L 258.751155 186.476553 
L 358.808026 186.476553 
L 358.808026 339.153422 
L 258.751155 339.153422 
" style="fill:none;stroke:#d3d3d3;stroke-linecap:square;stroke-width:0.5;"/>
   </g>
   <g id="line2d_41">
    <path clip-path="url(#p2a0f432f33)" d="M 258.751155 186.476553 
L 254.162684 180.699366 
L 249.515432 175.003709 
L 244.804 169.407817 
L 240.022649 163.936519 
L 235.166052 158.624753 
L 230.231321 153.523665 
L 225.223408 148.711734 
L 220.170127 144.316126 
L 215.167204 140.554762 
L 210.525109 137.808977 
L 207.219225 136.598545 
L 206.871419 136.490434 
L 206.68733 136.751405 
L 204.635988 139.661203 
L 202.413258 144.577518 
L 200.503614 150.487778 
L 198.92008 156.922684 
L 197.607712 163.661926 
L 196.513244 170.591483 
L 195.594367 177.647134 
L 194.818682 184.790183 
L 194.161363 191.996024 
L 193.603172 199.248312 
L 193.128992 206.535789 
L 192.38676 221.186525 
" style="fill:none;stroke:#000000;stroke-linecap:square;stroke-width:3;"/>
   </g>
   <g id="line2d_42">
    <path clip-path="url(#p2a0f432f33)" d="M 192.38676 221.186525 
L 192.38676 136.490434 
L 258.751155 136.490434 
L 258.751155 221.186525 
L 192.38676 221.186525 
" style="fill:none;stroke:#d3d3d3;stroke-linecap:square;stroke-width:0.5;"/>
   </g>
   <g id="line2d_43">
    <path clip-path="url(#p2a0f432f33)" d="M 405.594248 563.687528 
L 405.594248 563.687528 
L 412.062307 566.59082 
L 418.573872 569.282853 
L 425.121035 571.737655 
L 431.691861 573.924208 
L 438.268487 575.805406 
L 444.824331 577.337008 
L 451.320004 578.466865 
L 457.697613 579.13516 
L 463.873668 579.277167 
L 469.733012 578.831045 
L 475.132051 577.752741 
L 479.927914 576.032195 
L 484.040643 573.685822 
L 487.494557 570.706996 
L 490.357612 567.041244 
L 492.649123 562.658072 
L 494.34563 557.620445 
L 495.436276 552.061652 
L 495.943543 546.127215 
L 495.913033 539.940771 
L 495.398611 533.596143 
L 494.452938 527.161212 
L 493.123219 520.68443 
L 491.449967 514.200592 
L 489.467166 507.735195 
L 487.202962 501.307539 
L 484.680464 494.932913 
L 481.9185 488.62416 
L 478.93226 482.392858 
L 475.733831 476.250264 
L 472.332627 470.208168 
L 468.735754 464.279757 
L 464.948342 458.480605 
L 460.973901 452.829949 
L 456.814827 447.352453 
L 452.473275 442.080833 
L 447.952888 437.059912 
L 443.262535 432.353185 
L 438.424829 428.053654 
L 433.496524 424.301514 
" style="fill:none;stroke:#000000;stroke-linecap:square;stroke-width:3;"/>
   </g>
   <g id="line2d_44">
    <path clip-path="url(#p2a0f432f33)" d="M 405.594248 579.277167 
L 405.594248 424.301514 
L 495.943543 424.301514 
L 495.943543 579.277167 
L 405.594248 579.277167 
" style="fill:none;stroke:#d3d3d3;stroke-linecap:square;stroke-width:0.5;"/>
   </g>
   <g id="line2d_45">
    <path clip-path="url(#p2a0f432f33)" d="M 433.496524 424.301514 
L 433.496524 424.301514 
L 433.496524 424.301514 
" style="fill:none;stroke:#000000;stroke-linecap:square;stroke-width:3;"/>
   </g>
   <g id="line2d_46">
    <path clip-path="url(#p2a0f432f33)" d="M 433.496524 424.301514 
L 433.496524 424.301514 
L 433.496524 424.301514 
L 433.496524 424.301514 
L 433.496524 424.301514 
" style="fill:none;stroke:#d3d3d3;stroke-linecap:square;stroke-width:0.5;"/>
   </g>
   <g id="line2d_47">
    <path clip-path="url(#p2a0f432f33)" d="M 433.496524 424.301514 
L 433.496524 424.301514 
L 433.496524 424.301514 
" style="fill:none;stroke:#000000;stroke-linecap:square;stroke-width:3;"/>
   </g>
   <g id="line2d_48">
    <path clip-path="url(#p2a0f432f33)" d="M 433.496524 424.301514 
L 433.496524 424.301514 
L 433.496524 424.301514 
L 433.496524 424.301514 
L 433.496524 424.301514 
" style="fill:none;stroke:#d3d3d3;stroke-linecap:square;stroke-width:0.5;"/>
   </g>
   <g id="line2d_49">
    <path clip-path="url(#p2a0f432f33)" d="M 162.654883 219.989176 
L 163.005382 212.427227 
L 162.654883 219.989176 
L 162.654883 219.989176 
" style="fill:none;stroke:#000000;stroke-linecap:square;stroke-width:3;"/>
   </g>
   <g id="line2d_50">
    <path clip-path="url(#p2a0f432f33)" d="M 162.654883 219.989176 
L 162.654883 212.427227 
L 163.005382 212.427227 
L 163.005382 219.989176 
L 162.654883 219.989176 
" style="fill:none;stroke:#d3d3d3;stroke-linecap:square;stroke-width:0.5;"/>
   </g>
   <g id="line2d_51">
    <path clip-path="url(#p2a0f432f33)" d="M 162.654883 219.989176 
L 162.654883 219.989176 
L 162.654883 219.989176 
" style="fill:none;stroke:#000000;stroke-linecap:square;stroke-width:3;"/>
   </g>
   <g id="line2d_52">
    <path clip-path="url(#p2a0f432f33)" d="M 162.654883 219.989176 
L 162.654883 219.989176 
L 162.654883 219.989176 
L 162.654883 219.989176 
L 162.654883 219.989176 
" style="fill:none;stroke:#d3d3d3;stroke-linecap:square;stroke-width:0.5;"/>
   </g>
   <g id="line2d_53">
    <path clip-path="url(#p2a0f432f33)" d="M 450.722263 400.663134 
L 444.611274 396.384157 
L 438.595638 392.050558 
L 432.699883 387.652041 
L 426.955751 383.176458 
L 421.404432 378.610383 
L 416.097482 373.939647 
L 411.094487 369.149279 
L 406.455201 364.221705 
L 402.226003 359.132341 
L 398.426371 353.845032 
L 395.045349 348.315195 
L 392.050739 342.505641 
L 389.401281 336.404658 
L 387.053448 330.030721 
L 387.053448 330.030721 
" style="fill:none;stroke:#000000;stroke-linecap:square;stroke-width:3;"/>
   </g>
   <g id="line2d_54">
    <path clip-path="url(#p2a0f432f33)" d="M 387.053448 400.663134 
L 387.053448 330.030721 
L 450.722263 330.030721 
L 450.722263 400.663134 
L 387.053448 400.663134 
" style="fill:none;stroke:#d3d3d3;stroke-linecap:square;stroke-width:0.5;"/>
   </g>
   <g id="line2d_55">
    <path clip-path="url(#p2a0f432f33)" d="M 392.759596 589.841801 
L 392.759596 589.841801 
L 400.00823 593.095229 
L 407.398483 596.150217 
L 414.944249 598.979008 
L 422.661935 601.546598 
L 430.570883 603.808039 
L 438.693636 605.704441 
L 447.055584 607.156986 
L 455.682762 608.057972 
L 464.594751 608.257995 
L 473.785709 607.550276 
L 483.180922 605.661487 
L 492.559004 602.280351 
L 501.475904 597.177965 
L 509.323253 590.408916 
L 515.601636 582.390106 
L 520.165728 573.694078 
L 523.181202 564.779599 
L 524.930506 555.907618 
L 525.680674 547.193545 
L 525.641949 538.675576 
L 524.969612 530.357627 
L 523.776613 522.230483 
L 522.145478 514.281109 
L 520.13716 506.496449 
L 517.797151 498.864839 
L 515.1596 491.376426 
L 512.25009 484.023215 
L 509.087483 476.798981 
L 505.685125 469.699176 
L 502.051592 462.720873 
L 498.19104 455.862774 
L 494.103234 449.125298 
L 489.783186 442.510794 
L 485.220346 436.023911 
L 480.397121 429.672235 
L 475.286331 423.467372 
L 469.846851 417.426843 
L 464.015921 411.577675 
L 457.69496 405.963782 
L 450.722263 400.663134 
" style="fill:none;stroke:#000000;stroke-linecap:square;stroke-width:3;"/>
   </g>
   <g id="line2d_56">
    <path clip-path="url(#p2a0f432f33)" d="M 392.759596 608.257995 
L 392.759596 400.663134 
L 525.680674 400.663134 
L 525.680674 608.257995 
L 392.759596 608.257995 
" style="fill:none;stroke:#d3d3d3;stroke-linecap:square;stroke-width:0.5;"/>
   </g>
   <g id="line2d_57">
    <path clip-path="url(#p2a0f432f33)" d="M 387.053448 330.030721 
L 387.053448 330.030721 
L 383.076224 321.286139 
L 379.330352 314.334099 
L 375.536827 307.637123 
L 371.694508 301.052023 
L 367.808964 294.533162 
L 363.88453 288.059712 
L 359.924129 281.620237 
L 355.929653 275.207736 
L 351.902252 268.817642 
L 347.842536 262.446868 
L 343.750694 256.093313 
L 339.626573 249.755579 
L 335.469716 243.432797 
L 331.279381 237.124521 
L 327.054545 230.830655 
L 322.793879 224.551416 
L 318.495728 218.287299 
L 314.158054 212.03907 
L 309.77838 205.807764 
L 305.353694 199.594695 
L 300.880336 193.401479 
L 296.353834 187.230069 
L 291.768693 181.082811 
L 287.118095 174.962518 
L 282.393475 168.872582 
" style="fill:none;stroke:#000000;stroke-linecap:square;stroke-width:3;"/>
   </g>
   <g id="line2d_58">
    <path clip-path="url(#p2a0f432f33)" d="M 282.393475 330.030721 
L 282.393475 168.872582 
L 387.053448 168.872582 
L 387.053448 330.030721 
L 282.393475 330.030721 
" style="fill:none;stroke:#d3d3d3;stroke-linecap:square;stroke-width:0.5;"/>
   </g>
   <g id="line2d_59">
    <path clip-path="url(#p2a0f432f33)" d="M 282.393475 168.872582 
L 277.583922 162.817124 
L 272.675271 156.801222 
L 267.648715 150.831245 
L 262.478576 144.91537 
L 257.128535 139.06445 
L 251.544876 133.293545 
L 245.643403 127.625026 
L 239.281717 122.095921 
L 232.193689 116.779771 
L 223.818199 111.872936 
L 212.89815 108.142005 
L 198.198285 108.759747 
L 185.401177 116.493922 
L 178.476898 125.842855 
L 174.480547 134.582712 
L 171.790967 142.874159 
L 169.809216 150.913188 
L 168.271619 158.801814 
L 167.040272 166.593846 
L 166.033756 174.319822 
L 165.199733 181.998316 
L 164.502422 189.641312 
L 163.916196 197.256918 
L 163.422029 204.85084 
L 162.654883 219.989176 
" style="fill:none;stroke:#000000;stroke-linecap:square;stroke-width:3;"/>
   </g>
   <g id="line2d_60">
    <path clip-path="url(#p2a0f432f33)" d="M 162.654883 219.989176 
L 162.654883 108.142005 
L 282.393475 108.142005 
L 282.393475 219.989176 
L 162.654883 219.989176 
" style="fill:none;stroke:#d3d3d3;stroke-linecap:square;stroke-width:0.5;"/>
   </g>
   <g id="line2d_61">
    <path clip-path="url(#p2a0f432f33)" d="M 162.654883 219.989176 
L 162.374087 227.445148 
L 162.165539 234.907639 
L 162.031171 242.375542 
L 161.972865 249.848453 
L 161.992593 257.326142 
L 162.092492 264.808319 
L 162.274907 272.294552 
L 162.54242 279.784246 
L 162.89787 287.276652 
L 163.344376 294.770887 
L 163.885364 302.265945 
L 164.524585 309.760713 
L 165.266145 317.253974 
L 166.114536 324.744394 
L 167.074659 332.230507 
L 168.151859 339.710688 
L 169.351955 347.183107 
L 170.681262 354.645687 
L 172.146617 362.096035 
L 173.755393 369.531369 
L 175.515502 376.948435 
L 177.43538 384.343408 
L 179.523953 391.711785 
L 181.790573 399.048272 
L 184.244908 406.346663 
L 186.896795 413.599725 
L 189.756027 420.799096 
L 192.832075 427.935207 
L 196.133749 434.99725 
L 199.66878 441.973212 
L 203.443362 448.849999 
L 207.461655 455.61367 
" style="fill:none;stroke:#000000;stroke-linecap:square;stroke-width:3;"/>
   </g>
   <g id="line2d_62">
    <path clip-path="url(#p2a0f432f33)" d="M 161.972865 455.61367 
L 161.972865 219.989176 
L 207.461655 219.989176 
L 207.461655 455.61367 
L 161.972865 455.61367 
" style="fill:none;stroke:#d3d3d3;stroke-linecap:square;stroke-width:0.5;"/>
   </g>
   <g id="line2d_63">
    <path clip-path="url(#p2a0f432f33)" d="M 207.461655 455.61367 
L 211.725318 462.249797 
L 216.233094 468.743953 
L 220.980539 475.082305 
L 225.959929 481.252263 
L 231.160384 487.243139 
L 236.568228 493.046719 
L 242.167548 498.657691 
L 247.940884 504.073868 
L 253.869987 509.296194 
L 259.936549 514.328534 
L 266.122839 519.177303 
L 272.412208 523.850987 
L 278.78943 528.359614 
L 285.240904 532.714238 
L 291.754721 536.926471 
L 298.320636 541.008079 
L 304.929966 544.970672 
L 311.575457 548.825463 
L 318.25111 552.583098 
L 324.952023 556.253558 
L 331.674218 559.846094 
L 338.414491 563.369206 
L 345.170271 566.830647 
L 351.939491 570.237443 
L 358.720477 573.595929 
L 365.511854 576.911781 
L 372.312456 580.190064 
L 379.12125 583.43527 
L 385.937279 586.65136 
L 392.759596 589.841801 
L 392.759596 589.841801 
" style="fill:none;stroke:#000000;stroke-linecap:square;stroke-width:3;"/>
   </g>
   <g id="line2d_64">
    <path clip-path="url(#p2a0f432f33)" d="M 207.461655 589.841801 
L 207.461655 455.61367 
L 392.759596 455.61367 
L 392.759596 589.841801 
L 207.461655 589.841801 
" style="fill:none;stroke:#d3d3d3;stroke-linecap:square;stroke-width:0.5;"/>
   </g>
   <g id="line2d_65">
    <path clip-path="url(#p2a0f432f33)" d="M 450.722263 400.663134 
L 450.722263 400.663134 
L 450.722263 400.663134 
" style="fill:none;stroke:#000000;stroke-linecap:square;stroke-width:3;"/>
   </g>
   <g id="line2d_66">
    <path clip-path="url(#p2a0f432f33)" d="M 450.722263 400.663134 
L 450.722263 400.663134 
L 450.722263 400.663134 
L 450.722263 400.663134 
L 450.722263 400.663134 
" style="fill:none;stroke:#d3d3d3;stroke-linecap:square;stroke-width:0.5;"/>
   </g>
   <g id="line2d_67">
    <path clip-path="url(#p2a0f432f33)" d="M 450.722263 400.663134 
L 450.722263 400.663134 
L 450.722263 400.663134 
" style="fill:none;stroke:#000000;stroke-linecap:square;stroke-width:3;"/>
   </g>
   <g id="line2d_68">
    <path clip-path="url(#p2a0f432f33)" d="M 450.722263 400.663134 
L 450.722263 400.663134 
L 450.722263 400.663134 
L 450.722263 400.663134 
L 450.722263 400.663134 
" style="fill:none;stroke:#d3d3d3;stroke-linecap:square;stroke-width:0.5;"/>
   </g>
   <g id="line2d_69">
    <path clip-path="url(#p2a0f432f33)" d="M 265.873303 150.01624 
L 268.72726 150.194742 
L 271.534354 150.727315 
L 274.248494 151.605216 
L 276.825114 152.81403 
L 279.221905 154.333906 
L 281.399513 156.13989 
L 283.322181 158.202327 
L 284.958339 160.487351 
L 286.28112 162.957444 
L 287.268807 165.572045 
L 287.905179 168.288223 
L 288.179789 171.06138 
L 288.088127 173.845978 
L 287.631698 176.596296 
L 286.817997 179.267174 
L 285.660384 181.814755 
L 284.177868 184.197208 
L 282.394792 186.375415 
L 280.340434 188.313607 
L 278.048525 189.979961 
L 275.5567 191.347115 
L 272.905873 192.39262 
L 270.139572 193.099309 
L 267.303219 193.455579 
L 264.443387 193.455579 
L 261.607034 193.099309 
L 258.840733 192.39262 
L 256.189907 191.347115 
L 253.698081 189.979961 
L 251.406173 188.313607 
L 249.351814 186.375415 
L 247.568738 184.197208 
L 246.086222 181.814755 
L 244.92861 179.267174 
L 244.114909 176.596296 
L 243.65848 173.845978 
L 243.566818 171.06138 
L 243.841427 168.288223 
L 244.4778 165.572045 
L 245.465486 162.957444 
L 246.788268 160.487351 
L 248.424426 158.202327 
L 250.347093 156.13989 
L 252.524701 154.333906 
L 254.921492 152.81403 
L 257.498112 151.605216 
L 260.212252 150.727315 
L 263.019347 150.194742 
L 265.873303 150.01624 
" style="fill:none;stroke:#808080;stroke-linecap:square;stroke-width:1.5;"/>
   </g>
   <g id="line2d_70">
    <path clip-path="url(#p2a0f432f33)" d="M 177.520821 198.845845 
L 180.374778 199.024347 
L 183.181872 199.556921 
L 185.896013 200.434822 
L 188.472632 201.643635 
L 190.869424 203.163511 
L 193.047031 204.969495 
L 194.969699 207.031932 
L 196.605857 209.316956 
L 197.928639 211.787049 
L 198.916325 214.40165 
L 199.552697 217.117829 
L 199.827307 219.890985 
L 199.735645 222.675583 
L 199.279216 225.425902 
L 198.465515 228.096779 
L 197.307902 230.64436 
L 195.825387 233.026814 
L 194.04231 235.20502 
L 191.987952 237.143212 
L 189.696043 238.809566 
L 187.204218 240.17672 
L 184.553392 241.222225 
L 181.787091 241.928914 
L 178.950738 242.285184 
L 176.090905 242.285184 
L 173.254552 241.928914 
L 170.488251 241.222225 
L 167.837425 240.17672 
L 165.3456 238.809566 
L 163.053691 237.143212 
L 160.999333 235.20502 
L 159.216256 233.026814 
L 157.733741 230.64436 
L 156.576128 228.096779 
L 155.762427 225.425902 
L 155.305998 222.675583 
L 155.214336 219.890985 
L 155.488946 217.117829 
L 156.125318 214.40165 
L 157.113004 211.787049 
L 158.435786 209.316956 
L 160.071944 207.031932 
L 161.994612 204.969495 
L 164.172219 203.163511 
L 166.569011 201.643635 
L 169.14563 200.434822 
L 171.859771 199.556921 
L 174.666865 199.024347 
L 177.520821 198.845845 
" style="fill:none;stroke:#808080;stroke-linecap:square;stroke-width:1.5;"/>
   </g>
   <g id="line2d_71">
    <path clip-path="url(#p2a0f432f33)" d="M 216.445533 420.061582 
L 219.299489 420.240084 
L 222.106584 420.772658 
L 224.820724 421.650559 
L 227.397344 422.859372 
L 229.794135 424.379248 
L 231.971743 426.185232 
L 233.89441 428.247669 
L 235.530568 430.532694 
L 236.85335 433.002786 
L 237.841036 435.617387 
L 238.477409 438.333566 
L 238.752018 441.106722 
L 238.660356 443.891321 
L 238.203927 446.641639 
L 237.390226 449.312516 
L 236.232614 451.860097 
L 234.750098 454.242551 
L 232.967022 456.420757 
L 230.912663 458.358949 
L 228.620755 460.025303 
L 226.128929 461.392457 
L 223.478103 462.437962 
L 220.711802 463.144652 
L 217.875449 463.500921 
L 215.015617 463.500921 
L 212.179264 463.144652 
L 209.412963 462.437962 
L 206.762136 461.392457 
L 204.270311 460.025303 
L 201.978402 458.358949 
L 199.924044 456.420757 
L 198.140968 454.242551 
L 196.658452 451.860097 
L 195.500839 449.312516 
L 194.687138 446.641639 
L 194.230709 443.891321 
L 194.139047 441.106722 
L 194.413657 438.333566 
L 195.050029 435.617387 
L 196.037716 433.002786 
L 197.360497 430.532694 
L 198.996655 428.247669 
L 200.919323 426.185232 
L 203.096931 424.379248 
L 205.493722 422.859372 
L 208.070342 421.650559 
L 210.784482 420.772658 
L 213.591576 420.240084 
L 216.445533 420.061582 
" style="fill:none;stroke:#808080;stroke-linecap:square;stroke-width:1.5;"/>
   </g>
   <g id="line2d_72">
    <path clip-path="url(#p2a0f432f33)" d="M 399.176922 555.022659 
L 402.030879 555.201161 
L 404.837973 555.733735 
L 407.552113 556.611636 
L 410.128733 557.820449 
L 412.525525 559.340325 
L 414.703132 561.146309 
L 416.6258 563.208746 
L 418.261958 565.493771 
L 419.58474 567.963863 
L 420.572426 570.578464 
L 421.208798 573.294643 
L 421.483408 576.067799 
L 421.391746 578.852398 
L 420.935317 581.602716 
L 420.121616 584.273593 
L 418.964003 586.821174 
L 417.481488 589.203628 
L 415.698411 591.381834 
L 413.644053 593.320026 
L 411.352144 594.98638 
L 408.860319 596.353534 
L 406.209493 597.399039 
L 403.443192 598.105729 
L 400.606839 598.461998 
L 397.747006 598.461998 
L 394.910653 598.105729 
L 392.144352 597.399039 
L 389.493526 596.353534 
L 387.001701 594.98638 
L 384.709792 593.320026 
L 382.655433 591.381834 
L 380.872357 589.203628 
L 379.389842 586.821174 
L 378.232229 584.273593 
L 377.418528 581.602716 
L 376.962099 578.852398 
L 376.870437 576.067799 
L 377.145047 573.294643 
L 377.781419 570.578464 
L 378.769105 567.963863 
L 380.091887 565.493771 
L 381.728045 563.208746 
L 383.650713 561.146309 
L 385.82832 559.340325 
L 388.225112 557.820449 
L 390.801731 556.611636 
L 393.515872 555.733735 
L 396.322966 555.201161 
L 399.176922 555.022659 
" style="fill:none;stroke:#808080;stroke-linecap:square;stroke-width:1.5;"/>
   </g>
   <g id="line2d_73">
    <path clip-path="url(#p2a0f432f33)" d="M 399.176922 555.022659 
L 402.030879 555.201161 
L 404.837973 555.733735 
L 407.552113 556.611636 
L 410.128733 557.820449 
L 412.525525 559.340325 
L 414.703132 561.146309 
L 416.6258 563.208746 
L 418.261958 565.493771 
L 419.58474 567.963863 
L 420.572426 570.578464 
L 421.208798 573.294643 
L 421.483408 576.067799 
L 421.391746 578.852398 
L 420.935317 581.602716 
L 420.121616 584.273593 
L 418.964003 586.821174 
L 417.481488 589.203628 
L 415.698411 591.381834 
L 413.644053 593.320026 
L 411.352144 594.98638 
L 408.860319 596.353534 
L 406.209493 597.399039 
L 403.443192 598.105729 
L 400.606839 598.461998 
L 397.747006 598.461998 
L 394.910653 598.105729 
L 392.144352 597.399039 
L 389.493526 596.353534 
L 387.001701 594.98638 
L 384.709792 593.320026 
L 382.655433 591.381834 
L 380.872357 589.203628 
L 379.389842 586.821174 
L 378.232229 584.273593 
L 377.418528 581.602716 
L 376.962099 578.852398 
L 376.870437 576.067799 
L 377.145047 573.294643 
L 377.781419 570.578464 
L 378.769105 567.963863 
L 380.091887 565.493771 
L 381.728045 563.208746 
L 383.650713 561.146309 
L 385.82832 559.340325 
L 388.225112 557.820449 
L 390.801731 556.611636 
L 393.515872 555.733735 
L 396.322966 555.201161 
L 399.176922 555.022659 
" style="fill:none;stroke:#808080;stroke-linecap:square;stroke-width:1.5;"/>
   </g>
   <g id="line2d_74">
    <path clip-path="url(#p2a0f432f33)" d="M 442.109393 390.740319 
L 444.96335 390.91882 
L 447.770444 391.451394 
L 450.484584 392.329295 
L 453.061204 393.538108 
L 455.457996 395.057985 
L 457.635603 396.863969 
L 459.558271 398.926405 
L 461.194429 401.21143 
L 462.517211 403.681522 
L 463.504897 406.296124 
L 464.141269 409.012302 
L 464.415879 411.785458 
L 464.324217 414.570057 
L 463.867788 417.320375 
L 463.054087 419.991253 
L 461.896474 422.538834 
L 460.413958 424.921287 
L 458.630882 427.099493 
L 456.576524 429.037686 
L 454.284615 430.70404 
L 451.79279 432.071193 
L 449.141963 433.116699 
L 446.375662 433.823388 
L 443.539309 434.179658 
L 440.679477 434.179658 
L 437.843124 433.823388 
L 435.076823 433.116699 
L 432.425997 432.071193 
L 429.934172 430.70404 
L 427.642263 429.037686 
L 425.587904 427.099493 
L 423.804828 424.921287 
L 422.322312 422.538834 
L 421.1647 419.991253 
L 420.350999 417.320375 
L 419.89457 414.570057 
L 419.802908 411.785458 
L 420.077518 409.012302 
L 420.71389 406.296124 
L 421.701576 403.681522 
L 423.024358 401.21143 
L 424.660516 398.926405 
L 426.583183 396.863969 
L 428.760791 395.057985 
L 431.157582 393.538108 
L 433.734202 392.329295 
L 436.448342 391.451394 
L 439.255437 390.91882 
L 442.109393 390.740319 
" style="fill:none;stroke:#808080;stroke-linecap:square;stroke-width:1.5;"/>
   </g>
   <g id="line2d_75">
    <path clip-path="url(#p2a0f432f33)" d="M 372.930737 312.850067 
L 375.784694 313.028568 
L 378.591788 313.561142 
L 381.305928 314.439043 
L 383.882548 315.647856 
L 386.279339 317.167733 
L 388.456947 318.973716 
L 390.379615 321.036153 
L 392.015772 323.321178 
L 393.338554 325.79127 
L 394.32624 328.405871 
L 394.962613 331.12205 
L 395.237223 333.895206 
L 395.145561 336.679805 
L 394.689132 339.430123 
L 393.87543 342.101 
L 392.717818 344.648581 
L 391.235302 347.031035 
L 389.452226 349.209241 
L 387.397867 351.147433 
L 385.105959 352.813787 
L 382.614134 354.180941 
L 379.963307 355.226446 
L 377.197006 355.933136 
L 374.360653 356.289405 
L 371.500821 356.289405 
L 368.664468 355.933136 
L 365.898167 355.226446 
L 363.247341 354.180941 
L 360.755515 352.813787 
L 358.463607 351.147433 
L 356.409248 349.209241 
L 354.626172 347.031035 
L 353.143656 344.648581 
L 351.986044 342.101 
L 351.172343 339.430123 
L 350.715914 336.679805 
L 350.624252 333.895206 
L 350.898861 331.12205 
L 351.535234 328.405871 
L 352.52292 325.79127 
L 353.845702 323.321178 
L 355.48186 321.036153 
L 357.404527 318.973716 
L 359.582135 317.167733 
L 361.978926 315.647856 
L 364.555546 314.439043 
L 367.269686 313.561142 
L 370.076781 313.028568 
L 372.930737 312.850067 
" style="fill:none;stroke:#808080;stroke-linecap:square;stroke-width:1.5;"/>
   </g>
   <g id="line2d_76"/>
   <g id="line2d_77"/>
   <g id="line2d_78"/>
   <g id="line2d_79"/>
   <g id="line2d_80"/>
   <g id="line2d_81"/>
   <g id="line2d_82"/>
   <g id="line2d_83"/>
   <g id="line2d_84"/>
   <g id="line2d_85"/>
   <g id="line2d_86"/>
   <g id="line2d_87"/>
   <g id="line2d_88"/>
   <g id="line2d_89"/>
   <g id="line2d_90"/>
   <g id="line2d_91"/>
   <g id="line2d_92"/>
   <g id="line2d_93"/>
   <g id="line2d_94"/>
   <g id="line2d_95"/>
   <g id="line2d_96"/>
   <g id="line2d_97"/>
   <g id="line2d_98"/>
   <g id="line2d_99"/>
   <g id="line2d_100"/>
   <g id="line2d_101"/>
   <g id="line2d_102"/>
   <g id="line2d_103"/>
   <g id="line2d_104"/>
   <g id="line2d_105"/>
   <g id="line2d_106"/>
   <g id="line2d_107"/>
   <g id="line2d_108"/>
   <g id="line2d_109"/>
   <g id="line2d_110"/>
   <g id="line2d_111"/>
   <g id="line2d_112"/>
   <g id="line2d_113"/>
   <g id="line2d_114"/>
   <g id="line2d_115"/>
   <g id="line2d_116"/>
   <g id="line2d_117"/>
   <g id="line2d_118"/>
   <g id="line2d_119"/>
   <g id="line2d_120"/>
   <g id="line2d_121"/>
   <g id="line2d_122"/>
   <g id="line2d_123"/>
   <g id="line2d_124"/>
   <g id="line2d_125"/>
   <g id="line2d_126"/>
   <g id="patch_3">
    <path d="M 90 630 
L 90 86.4 
" style="fill:none;stroke:#000000;stroke-linecap:square;stroke-linejoin:miter;stroke-width:0.8;"/>
   </g>
   <g id="patch_4">
    <path d="M 648 630 
L 648 86.4 
" style="fill:none;stroke:#000000;stroke-linecap:square;stroke-linejoin:miter;stroke-width:0.8;"/>
   </g>
   <g id="patch_5">
    <path d="M 90 630 
L 648 630 
" style="fill:none;stroke:#000000;stroke-linecap:square;stroke-linejoin:miter;stroke-width:0.8;"/>
   </g>
   <g id="patch_6">
    <path d="M 90 86.4 
L 648 86.4 
" style="fill:none;stroke:#000000;stroke-linecap:square;stroke-linejoin:miter;stroke-width:0.8;"/>
   </g>
   <g id="text_15">
    <!-- 0 -->
    <g transform="translate(-93.596291 518.964922)scale(0.1 -0.1)">
     <use xlink:href="#DejaVuSans-30"/>
    </g>
   </g>
   <g id="text_16">
    <!-- 0 -->
    <g transform="translate(-93.596291 497.222917)scale(0.1 -0.1)">
     <use xlink:href="#DejaVuSans-30"/>
    </g>
   </g>
   <g id="text_17">
    <!-- 0 -->
    <g transform="translate(-93.596291 475.480912)scale(0.1 -0.1)">
     <use xlink:href="#DejaVuSans-30"/>
    </g>
   </g>
  </g>
 </g>
 <defs>
  <clipPath id="p2a0f432f33">
   <rect height="543.6" width="558" x="90" y="86.4"/>
  </clipPath>
 </defs>
</svg>
