<?xml version="1.0" encoding="utf-8" standalone="no"?>
<!DOCTYPE svg PUBLIC "-//W3C//DTD SVG 1.1//EN"
  "http://www.w3.org/Graphics/SVG/1.1/DTD/svg11.dtd">
<svg height="720pt" version="1.1" viewBox="0 0 720 720" width="720pt" xmlns="http://www.w3.org/2000/svg" xmlns:xlink="http://www.w3.org/1999/xlink">
 <metadata>
  <rdf:RDF xmlns:cc="http://creativecommons.org/ns#" xmlns:dc="http://purl.org/dc/elements/1.1/" xmlns:rdf="http://www.w3.org/1999/02/22-rdf-syntax-ns#">
   <cc:Work>
    <dc:type rdf:resource="http://purl.org/dc/dcmitype/StillImage"/>
    <dc:date>2022-01-11T13:26:04.350161</dc:date>
    <dc:format>image/svg+xml</dc:format>
    <dc:creator>
     <cc:Agent>
      <dc:title>Matplotlib v3.4.3, https://matplotlib.org/</dc:title>
     </cc:Agent>
    </dc:creator>
   </cc:Work>
  </rdf:RDF>
 </metadata>
 <defs>
  <style type="text/css">*{stroke-linecap:butt;stroke-linejoin:round;}</style>
 </defs>
 <g id="figure_1">
  <g id="patch_1">
   <path d="M 0 720 
L 720 720 
L 720 0 
L 0 0 
z
" style="fill:none;"/>
  </g>
  <g id="axes_1">
   <g id="patch_2">
    <path d="M 90 630 
L 648 630 
L 648 86.4 
L 90 86.4 
z
" style="fill:#ffffff;"/>
   </g>
   <g id="PathCollection_1">
    <defs>
     <path d="M 0.972304 -8.870829 
Q -1.277159 -8.870829 -2.413438 -6.653699 
Q -3.545098 -4.441189 -3.545098 0.006929 
Q -3.545098 4.436569 -2.413438 6.653699 
Q -1.277159 8.870829 0.972304 8.870829 
Q 3.240243 8.870829 4.371903 6.653699 
Q 5.508182 4.436569 5.508182 0.006929 
Q 5.508182 -4.441189 4.371903 -6.653699 
Q 3.240243 -8.870829 0.972304 -8.870829 
z
M 0.972304 -11.18034 
Q 4.598235 -11.18034 6.51051 -8.311928 
Q 8.422784 -5.448135 8.422784 0.006929 
Q 8.422784 5.448135 6.51051 8.316547 
Q 4.598235 11.18034 0.972304 11.18034 
Q -2.649008 11.18034 -4.561283 8.316547 
Q -6.473558 5.448135 -6.473558 0.006929 
Q -6.473558 -5.448135 -4.561283 -8.311928 
Q -2.649008 -11.18034 0.972304 -11.18034 
z
" id="mf51327997f" style="stroke:#808080;"/>
    </defs>
    <g clip-path="url(#p801b431614)">
     <use style="fill:#808080;stroke:#808080;" x="449.293131" xlink:href="#mf51327997f" y="107.89666"/>
    </g>
   </g>
   <g id="PathCollection_2">
    <defs>
     <path d="M -4.535873 8.63565 
L 0.404946 8.63565 
L 0.404946 -8.424791 
L -4.971969 -7.346533 
L -4.971969 -10.102082 
L 0.376192 -11.18034 
L 3.400108 -11.18034 
L 3.400108 8.63565 
L 8.340927 8.63565 
L 8.340927 11.18034 
L -4.535873 11.18034 
L -4.535873 8.63565 
z
" id="m229e705e2e" style="stroke:#808080;"/>
    </defs>
    <g clip-path="url(#p801b431614)">
     <use style="fill:#808080;stroke:#808080;" x="301.758649" xlink:href="#m229e705e2e" y="105.163574"/>
    </g>
   </g>
   <g id="PathCollection_3">
    <defs>
     <path d="M -2.294912 8.680651 
L 8.075736 8.680651 
L 8.075736 11.18034 
L -5.867913 11.18034 
L -5.867913 8.680651 
Q -4.177916 6.929457 -1.259259 3.982555 
Q 1.664105 1.030945 2.4126 0.174178 
Q 3.838976 -1.426376 4.403877 -2.537349 
Q 4.973486 -3.648321 4.973486 -4.721634 
Q 4.973486 -6.472828 3.744825 -7.574386 
Q 2.516165 -8.680651 0.543718 -8.680651 
Q -0.854413 -8.680651 -2.407892 -8.195778 
Q -3.956663 -7.710904 -5.72198 -6.722326 
L -5.72198 -9.725719 
Q -3.928418 -10.445968 -2.370232 -10.813154 
Q -0.807338 -11.18034 0.487227 -11.18034 
Q 3.900173 -11.18034 5.929111 -9.471513 
Q 7.958048 -7.767394 7.958048 -4.914642 
Q 7.958048 -3.558879 7.449637 -2.344341 
Q 6.945933 -1.13451 5.604292 0.513119 
Q 5.237107 0.941502 3.264659 2.979855 
Q 1.296919 5.018207 -2.294912 8.680651 
z
" id="m011c330f6f" style="stroke:#808080;"/>
    </defs>
    <g clip-path="url(#p801b431614)">
     <use style="fill:#808080;stroke:#808080;" x="205.157434" xlink:href="#m011c330f6f" y="129.951261"/>
    </g>
   </g>
   <g id="PathCollection_4">
    <defs>
     <path d="M 3.77605 -0.861447 
Q 5.868466 -0.413402 7.041697 1.004637 
Q 8.219548 2.418057 8.219548 4.496617 
Q 8.219548 7.683741 6.025513 9.43435 
Q 3.831478 11.18034 -0.210165 11.18034 
Q -1.563539 11.18034 -3.000054 10.912437 
Q -4.436569 10.644533 -5.965465 10.108727 
L -5.965465 7.295743 
Q -4.755282 8.002454 -3.314147 8.362737 
Q -1.868394 8.723021 -0.293308 8.723021 
Q 2.445772 8.723021 3.882287 7.64217 
Q 5.318802 6.561319 5.318802 4.496617 
Q 5.318802 2.588961 3.983905 1.517348 
Q 2.649008 0.441116 0.270213 0.441116 
L -2.242535 0.441116 
L -2.242535 -1.956155 
L 0.385688 -1.956155 
Q 2.533533 -1.956155 3.674431 -2.815293 
Q 4.815329 -3.674431 4.815329 -5.291088 
Q 4.815329 -6.949317 3.637479 -7.836169 
Q 2.464248 -8.72764 0.270213 -8.72764 
Q -0.930733 -8.72764 -2.302582 -8.464356 
Q -3.674431 -8.20569 -5.318802 -7.660646 
L -5.318802 -10.256536 
Q -3.655955 -10.718438 -2.205582 -10.949389 
Q -0.75521 -11.18034 0.528878 -11.18034 
Q 3.849954 -11.18034 5.780705 -9.66992 
Q 7.716074 -8.164119 7.716074 -5.595944 
Q 7.716074 -3.803764 6.690652 -2.570485 
Q 5.665229 -1.337207 3.77605 -0.861447 
z
" id="meb93e0e9b0" style="stroke:#808080;"/>
    </defs>
    <g clip-path="url(#p801b431614)">
     <use style="fill:#808080;stroke:#808080;" x="150.817547" xlink:href="#meb93e0e9b0" y="230.032551"/>
    </g>
   </g>
   <g id="PathCollection_5">
    <defs>
     <path d="M 2.695646 -8.544598 
L -4.943215 3.392919 
L 2.695646 3.392919 
L 2.695646 -8.544598 
z
M 1.900131 -11.18034 
L 5.705184 -11.18034 
L 5.705184 3.392919 
L 8.896829 3.392919 
L 8.896829 5.908855 
L 5.705184 5.908855 
L 5.705184 11.18034 
L 2.695646 11.18034 
L 2.695646 5.908855 
L -7.396852 5.908855 
L -7.396852 2.99037 
L 1.900131 -11.18034 
z
" id="mfa05c165b4" style="stroke:#808080;"/>
    </defs>
    <g clip-path="url(#p801b431614)">
     <use style="fill:#808080;stroke:#808080;" x="119.116059" xlink:href="#mfa05c165b4" y="342.699113"/>
    </g>
   </g>
   <g id="PathCollection_6">
    <defs>
     <path d="M -5.008473 -11.18034 
L 6.639575 -11.18034 
L 6.639575 -8.679629 
L -2.291535 -8.679629 
L -2.291535 -3.306861 
Q -1.647555 -3.527789 -1.003575 -3.635902 
Q -0.354894 -3.744015 0.293787 -3.744015 
Q 3.964943 -3.744015 6.108409 -1.732165 
Q 8.256576 0.279685 8.256576 3.715812 
Q 8.256576 7.255352 6.052002 9.220196 
Q 3.847428 11.18034 -0.16217 11.18034 
Q -1.544142 11.18034 -2.97782 10.945311 
Q -4.406798 10.710281 -5.934488 10.240223 
L -5.934488 7.255352 
Q -4.613624 7.974541 -3.203448 8.327085 
Q -1.793273 8.679629 -0.223278 8.679629 
Q 2.319738 8.679629 3.800422 7.344663 
Q 5.285807 6.009697 5.285807 3.715812 
Q 5.285807 1.426627 3.800422 0.091661 
Q 2.319738 -1.248005 -0.223278 -1.248005 
Q -1.412526 -1.248005 -2.597073 -0.984772 
Q -3.77692 -0.72154 -5.008473 -0.16217 
L -5.008473 -11.18034 
z
" id="m3ba6f0974e" style="stroke:#808080;"/>
    </defs>
    <g clip-path="url(#p801b431614)">
     <use style="fill:#808080;stroke:#808080;" x="303.163868" xlink:href="#m3ba6f0974e" y="441.111627"/>
    </g>
   </g>
   <g id="PathCollection_7">
    <defs>
     <path d="M 1.286397 -1.175541 
Q -0.676687 -1.175541 -1.826823 0.168594 
Q -2.97234 1.50811 -2.97234 3.845335 
Q -2.97234 6.168702 -1.826823 7.522075 
Q -0.676687 8.870829 1.286397 8.870829 
Q 3.249481 8.870829 4.394998 7.522075 
Q 5.540515 6.168702 5.540515 3.845335 
Q 5.540515 1.50811 4.394998 0.168594 
Q 3.249481 -1.175541 1.286397 -1.175541 
z
M 7.07403 -10.316583 
L 7.07403 -7.660646 
Q 5.974703 -8.177976 4.8569 -8.450499 
Q 3.739097 -8.72764 2.63977 -8.72764 
Q -0.247118 -8.72764 -1.771394 -6.778413 
Q -3.291052 -4.829186 -3.508146 -0.889162 
Q -2.658246 -2.145535 -1.374159 -2.815293 
Q -0.085452 -3.485051 1.457301 -3.485051 
Q 4.704473 -3.485051 6.589033 -1.512729 
Q 8.473594 0.454974 8.473594 3.845335 
Q 8.473594 7.166411 6.51051 9.175685 
Q 4.547426 11.18034 1.286397 11.18034 
Q -2.45501 11.18034 -4.43195 8.316547 
Q -6.408891 5.448135 -6.408891 0.006929 
Q -6.408891 -5.101708 -3.983905 -8.141024 
Q -1.55892 -11.18034 2.524295 -11.18034 
Q 3.623622 -11.18034 4.741425 -10.963246 
Q 5.859228 -10.746152 7.07403 -10.316583 
z
" id="m687b827bac" style="stroke:#808080;"/>
    </defs>
    <g clip-path="url(#p801b431614)">
     <use style="fill:#808080;stroke:#808080;" x="412.78167" xlink:href="#m687b827bac" y="328.342446"/>
    </g>
   </g>
   <g id="PathCollection_8">
    <defs>
     <path d="M -5.93042 -11.18034 
L 8.446356 -11.18034 
L 8.446356 -9.891222 
L 0.32827 11.18034 
L -2.829829 11.18034 
L 4.809032 -8.630858 
L -5.93042 -8.630858 
L -5.93042 -11.18034 
z
" id="md719d82edd" style="stroke:#808080;"/>
    </defs>
    <g clip-path="url(#p801b431614)">
     <use style="fill:#808080;stroke:#808080;" x="542.151431" xlink:href="#md719d82edd" y="243.686298"/>
    </g>
   </g>
   <g id="PathCollection_9">
    <defs>
     <path d="M 1.002328 0.524259 
Q -1.076232 0.524259 -2.267939 1.637443 
Q -3.455028 2.750627 -3.455028 4.695235 
Q -3.455028 6.644461 -2.267939 7.757645 
Q -1.076232 8.870829 1.002328 8.870829 
Q 3.080887 8.870829 4.277213 7.753026 
Q 5.478159 6.630604 5.478159 4.695235 
Q 5.478159 2.750627 4.286451 1.637443 
Q 3.099363 0.524259 1.002328 0.524259 
z
M -1.912275 -0.713639 
Q -3.787597 -1.175541 -4.836115 -2.459629 
Q -5.880014 -3.748335 -5.880014 -5.595944 
Q -5.880014 -8.177976 -4.041643 -9.679158 
Q -2.198654 -11.18034 1.002328 -11.18034 
Q 4.221785 -11.18034 6.055536 -9.679158 
Q 7.889288 -8.177976 7.889288 -5.595944 
Q 7.889288 -3.748335 6.84077 -2.459629 
Q 5.796871 -1.175541 3.935406 -0.713639 
Q 6.041679 -0.224023 7.214911 1.207874 
Q 8.392761 2.635151 8.392761 4.695235 
Q 8.392761 7.83155 6.480486 9.508254 
Q 4.568212 11.18034 1.002328 11.18034 
Q -2.558938 11.18034 -4.475831 9.508254 
Q -6.388106 7.83155 -6.388106 4.695235 
Q -6.388106 2.635151 -5.205636 1.207874 
Q -4.018548 -0.224023 -1.912275 -0.713639 
z
M -2.979268 -5.318802 
Q -2.979268 -3.646717 -1.93537 -2.709056 
Q -0.886852 -1.771394 1.002328 -1.771394 
Q 2.882269 -1.771394 3.940025 -2.709056 
Q 5.0024 -3.646717 5.0024 -5.318802 
Q 5.0024 -6.995507 3.940025 -7.933168 
Q 2.882269 -8.870829 1.002328 -8.870829 
Q -0.886852 -8.870829 -1.93537 -7.933168 
Q -2.979268 -6.995507 -2.979268 -5.318802 
z
" id="m2d9c990a1b" style="stroke:#808080;"/>
    </defs>
    <g clip-path="url(#p801b431614)">
     <use style="fill:#808080;stroke:#808080;" x="594.376771" xlink:href="#m2d9c990a1b" y="132.759909"/>
    </g>
   </g>
   <g id="PathCollection_10"/>
   <g id="PathCollection_11"/>
   <g id="PathCollection_12"/>
   <g id="PathCollection_13"/>
   <g id="PathCollection_14"/>
   <g id="matplotlib.axis_1">
    <g id="xtick_1">
     <g id="line2d_1">
      <defs>
       <path d="M 0 0 
L 0 3.5 
" id="m8899d5c959" style="stroke:#000000;stroke-width:0.8;"/>
      </defs>
      <g>
       <use style="stroke:#000000;stroke-width:0.8;" x="126.721692" xlink:href="#m8899d5c959" y="630"/>
      </g>
     </g>
     <g id="text_1">
      <!-- −400 -->
      <g transform="translate(112.988098 644.598438)scale(0.1 -0.1)">
       <defs>
        <path d="M 678 2272 
L 4684 2272 
L 4684 1741 
L 678 1741 
L 678 2272 
z
" id="DejaVuSans-2212" transform="scale(0.015625)"/>
        <path d="M 2419 4116 
L 825 1625 
L 2419 1625 
L 2419 4116 
z
M 2253 4666 
L 3047 4666 
L 3047 1625 
L 3713 1625 
L 3713 1100 
L 3047 1100 
L 3047 0 
L 2419 0 
L 2419 1100 
L 313 1100 
L 313 1709 
L 2253 4666 
z
" id="DejaVuSans-34" transform="scale(0.015625)"/>
        <path d="M 2034 4250 
Q 1547 4250 1301 3770 
Q 1056 3291 1056 2328 
Q 1056 1369 1301 889 
Q 1547 409 2034 409 
Q 2525 409 2770 889 
Q 3016 1369 3016 2328 
Q 3016 3291 2770 3770 
Q 2525 4250 2034 4250 
z
M 2034 4750 
Q 2819 4750 3233 4129 
Q 3647 3509 3647 2328 
Q 3647 1150 3233 529 
Q 2819 -91 2034 -91 
Q 1250 -91 836 529 
Q 422 1150 422 2328 
Q 422 3509 836 4129 
Q 1250 4750 2034 4750 
z
" id="DejaVuSans-30" transform="scale(0.015625)"/>
       </defs>
       <use xlink:href="#DejaVuSans-2212"/>
       <use x="83.789062" xlink:href="#DejaVuSans-34"/>
       <use x="147.412109" xlink:href="#DejaVuSans-30"/>
       <use x="211.035156" xlink:href="#DejaVuSans-30"/>
      </g>
     </g>
    </g>
    <g id="xtick_2">
     <g id="line2d_2">
      <g>
       <use style="stroke:#000000;stroke-width:0.8;" x="201.997261" xlink:href="#m8899d5c959" y="630"/>
      </g>
     </g>
     <g id="text_2">
      <!-- −300 -->
      <g transform="translate(188.263668 644.598438)scale(0.1 -0.1)">
       <defs>
        <path d="M 2597 2516 
Q 3050 2419 3304 2112 
Q 3559 1806 3559 1356 
Q 3559 666 3084 287 
Q 2609 -91 1734 -91 
Q 1441 -91 1130 -33 
Q 819 25 488 141 
L 488 750 
Q 750 597 1062 519 
Q 1375 441 1716 441 
Q 2309 441 2620 675 
Q 2931 909 2931 1356 
Q 2931 1769 2642 2001 
Q 2353 2234 1838 2234 
L 1294 2234 
L 1294 2753 
L 1863 2753 
Q 2328 2753 2575 2939 
Q 2822 3125 2822 3475 
Q 2822 3834 2567 4026 
Q 2313 4219 1838 4219 
Q 1578 4219 1281 4162 
Q 984 4106 628 3988 
L 628 4550 
Q 988 4650 1302 4700 
Q 1616 4750 1894 4750 
Q 2613 4750 3031 4423 
Q 3450 4097 3450 3541 
Q 3450 3153 3228 2886 
Q 3006 2619 2597 2516 
z
" id="DejaVuSans-33" transform="scale(0.015625)"/>
       </defs>
       <use xlink:href="#DejaVuSans-2212"/>
       <use x="83.789062" xlink:href="#DejaVuSans-33"/>
       <use x="147.412109" xlink:href="#DejaVuSans-30"/>
       <use x="211.035156" xlink:href="#DejaVuSans-30"/>
      </g>
     </g>
    </g>
    <g id="xtick_3">
     <g id="line2d_3">
      <g>
       <use style="stroke:#000000;stroke-width:0.8;" x="277.272831" xlink:href="#m8899d5c959" y="630"/>
      </g>
     </g>
     <g id="text_3">
      <!-- −200 -->
      <g transform="translate(263.539237 644.598438)scale(0.1 -0.1)">
       <defs>
        <path d="M 1228 531 
L 3431 531 
L 3431 0 
L 469 0 
L 469 531 
Q 828 903 1448 1529 
Q 2069 2156 2228 2338 
Q 2531 2678 2651 2914 
Q 2772 3150 2772 3378 
Q 2772 3750 2511 3984 
Q 2250 4219 1831 4219 
Q 1534 4219 1204 4116 
Q 875 4013 500 3803 
L 500 4441 
Q 881 4594 1212 4672 
Q 1544 4750 1819 4750 
Q 2544 4750 2975 4387 
Q 3406 4025 3406 3419 
Q 3406 3131 3298 2873 
Q 3191 2616 2906 2266 
Q 2828 2175 2409 1742 
Q 1991 1309 1228 531 
z
" id="DejaVuSans-32" transform="scale(0.015625)"/>
       </defs>
       <use xlink:href="#DejaVuSans-2212"/>
       <use x="83.789062" xlink:href="#DejaVuSans-32"/>
       <use x="147.412109" xlink:href="#DejaVuSans-30"/>
       <use x="211.035156" xlink:href="#DejaVuSans-30"/>
      </g>
     </g>
    </g>
    <g id="xtick_4">
     <g id="line2d_4">
      <g>
       <use style="stroke:#000000;stroke-width:0.8;" x="352.5484" xlink:href="#m8899d5c959" y="630"/>
      </g>
     </g>
     <g id="text_4">
      <!-- −100 -->
      <g transform="translate(338.814807 644.598438)scale(0.1 -0.1)">
       <defs>
        <path d="M 794 531 
L 1825 531 
L 1825 4091 
L 703 3866 
L 703 4441 
L 1819 4666 
L 2450 4666 
L 2450 531 
L 3481 531 
L 3481 0 
L 794 0 
L 794 531 
z
" id="DejaVuSans-31" transform="scale(0.015625)"/>
       </defs>
       <use xlink:href="#DejaVuSans-2212"/>
       <use x="83.789062" xlink:href="#DejaVuSans-31"/>
       <use x="147.412109" xlink:href="#DejaVuSans-30"/>
       <use x="211.035156" xlink:href="#DejaVuSans-30"/>
      </g>
     </g>
    </g>
    <g id="xtick_5">
     <g id="line2d_5">
      <g>
       <use style="stroke:#000000;stroke-width:0.8;" x="427.82397" xlink:href="#m8899d5c959" y="630"/>
      </g>
     </g>
     <g id="text_5">
      <!-- 0 -->
      <g transform="translate(424.64272 644.598438)scale(0.1 -0.1)">
       <use xlink:href="#DejaVuSans-30"/>
      </g>
     </g>
    </g>
    <g id="xtick_6">
     <g id="line2d_6">
      <g>
       <use style="stroke:#000000;stroke-width:0.8;" x="503.099539" xlink:href="#m8899d5c959" y="630"/>
      </g>
     </g>
     <g id="text_6">
      <!-- 100 -->
      <g transform="translate(493.555789 644.598438)scale(0.1 -0.1)">
       <use xlink:href="#DejaVuSans-31"/>
       <use x="63.623047" xlink:href="#DejaVuSans-30"/>
       <use x="127.246094" xlink:href="#DejaVuSans-30"/>
      </g>
     </g>
    </g>
    <g id="xtick_7">
     <g id="line2d_7">
      <g>
       <use style="stroke:#000000;stroke-width:0.8;" x="578.375109" xlink:href="#m8899d5c959" y="630"/>
      </g>
     </g>
     <g id="text_7">
      <!-- 200 -->
      <g transform="translate(568.831359 644.598438)scale(0.1 -0.1)">
       <use xlink:href="#DejaVuSans-32"/>
       <use x="63.623047" xlink:href="#DejaVuSans-30"/>
       <use x="127.246094" xlink:href="#DejaVuSans-30"/>
      </g>
     </g>
    </g>
   </g>
   <g id="matplotlib.axis_2">
    <g id="ytick_1">
     <g id="line2d_8">
      <defs>
       <path d="M 0 0 
L -3.5 0 
" id="m49695f74ec" style="stroke:#000000;stroke-width:0.8;"/>
      </defs>
      <g>
       <use style="stroke:#000000;stroke-width:0.8;" x="90" xlink:href="#m49695f74ec" y="594.225965"/>
      </g>
     </g>
     <g id="text_8">
      <!-- −400 -->
      <g transform="translate(55.532812 598.025183)scale(0.1 -0.1)">
       <use xlink:href="#DejaVuSans-2212"/>
       <use x="83.789062" xlink:href="#DejaVuSans-34"/>
       <use x="147.412109" xlink:href="#DejaVuSans-30"/>
       <use x="211.035156" xlink:href="#DejaVuSans-30"/>
      </g>
     </g>
    </g>
    <g id="ytick_2">
     <g id="line2d_9">
      <g>
       <use style="stroke:#000000;stroke-width:0.8;" x="90" xlink:href="#m49695f74ec" y="520.892991"/>
      </g>
     </g>
     <g id="text_9">
      <!-- −300 -->
      <g transform="translate(55.532812 524.692209)scale(0.1 -0.1)">
       <use xlink:href="#DejaVuSans-2212"/>
       <use x="83.789062" xlink:href="#DejaVuSans-33"/>
       <use x="147.412109" xlink:href="#DejaVuSans-30"/>
       <use x="211.035156" xlink:href="#DejaVuSans-30"/>
      </g>
     </g>
    </g>
    <g id="ytick_3">
     <g id="line2d_10">
      <g>
       <use style="stroke:#000000;stroke-width:0.8;" x="90" xlink:href="#m49695f74ec" y="447.560016"/>
      </g>
     </g>
     <g id="text_10">
      <!-- −200 -->
      <g transform="translate(55.532812 451.359235)scale(0.1 -0.1)">
       <use xlink:href="#DejaVuSans-2212"/>
       <use x="83.789062" xlink:href="#DejaVuSans-32"/>
       <use x="147.412109" xlink:href="#DejaVuSans-30"/>
       <use x="211.035156" xlink:href="#DejaVuSans-30"/>
      </g>
     </g>
    </g>
    <g id="ytick_4">
     <g id="line2d_11">
      <g>
       <use style="stroke:#000000;stroke-width:0.8;" x="90" xlink:href="#m49695f74ec" y="374.227042"/>
      </g>
     </g>
     <g id="text_11">
      <!-- −100 -->
      <g transform="translate(55.532812 378.026261)scale(0.1 -0.1)">
       <use xlink:href="#DejaVuSans-2212"/>
       <use x="83.789062" xlink:href="#DejaVuSans-31"/>
       <use x="147.412109" xlink:href="#DejaVuSans-30"/>
       <use x="211.035156" xlink:href="#DejaVuSans-30"/>
      </g>
     </g>
    </g>
    <g id="ytick_5">
     <g id="line2d_12">
      <g>
       <use style="stroke:#000000;stroke-width:0.8;" x="90" xlink:href="#m49695f74ec" y="300.894068"/>
      </g>
     </g>
     <g id="text_12">
      <!-- 0 -->
      <g transform="translate(76.6375 304.693287)scale(0.1 -0.1)">
       <use xlink:href="#DejaVuSans-30"/>
      </g>
     </g>
    </g>
    <g id="ytick_6">
     <g id="line2d_13">
      <g>
       <use style="stroke:#000000;stroke-width:0.8;" x="90" xlink:href="#m49695f74ec" y="227.561094"/>
      </g>
     </g>
     <g id="text_13">
      <!-- 100 -->
      <g transform="translate(63.9125 231.360313)scale(0.1 -0.1)">
       <use xlink:href="#DejaVuSans-31"/>
       <use x="63.623047" xlink:href="#DejaVuSans-30"/>
       <use x="127.246094" xlink:href="#DejaVuSans-30"/>
      </g>
     </g>
    </g>
    <g id="ytick_7">
     <g id="line2d_14">
      <g>
       <use style="stroke:#000000;stroke-width:0.8;" x="90" xlink:href="#m49695f74ec" y="154.22812"/>
      </g>
     </g>
     <g id="text_14">
      <!-- 200 -->
      <g transform="translate(63.9125 158.027339)scale(0.1 -0.1)">
       <use xlink:href="#DejaVuSans-32"/>
       <use x="63.623047" xlink:href="#DejaVuSans-30"/>
       <use x="127.246094" xlink:href="#DejaVuSans-30"/>
      </g>
     </g>
    </g>
   </g>
   <g id="line2d_15">
    <path clip-path="url(#p801b431614)" d="M 594.376771 132.759909 
L 591.442225 130.414748 
L 588.116722 128.603746 
L 584.629127 127.100185 
L 581.055662 125.798156 
L 577.42976 124.640573 
L 573.768792 123.592985 
L 570.082862 122.632845 
L 566.378332 121.744494 
L 562.659455 120.916551 
L 558.929207 120.140449 
L 555.189751 119.409549 
L 551.442705 118.718587 
L 547.689313 118.063308 
L 543.930549 117.440214 
L 540.167193 116.846389 
L 536.399878 116.279374 
L 532.629126 115.737069 
L 528.855372 115.217671 
L 525.078984 114.719611 
L 521.300275 114.241522 
L 517.519517 113.782197 
L 513.736943 113.340571 
L 509.952761 112.915694 
L 506.167152 112.506718 
L 502.380277 112.112882 
L 498.592282 111.7335 
L 494.803296 111.367951 
L 491.013438 111.015672 
L 487.222817 110.67615 
L 483.43153 110.348917 
L 479.639668 110.033547 
L 475.847316 109.729648 
L 472.054553 109.43686 
L 468.26145 109.154852 
L 464.468078 108.883321 
L 460.6745 108.621985 
L 456.880778 108.370586 
L 453.08697 108.128884 
L 449.293131 107.89666 
" style="fill:none;stroke:#808080;stroke-linecap:square;stroke-width:1.5;"/>
   </g>
   <g id="line2d_16">
    <path clip-path="url(#p801b431614)" d="M 449.293131 132.759909 
L 449.293131 107.89666 
L 594.376771 107.89666 
L 594.376771 132.759909 
L 449.293131 132.759909 
" style="fill:none;stroke:#d3d3d3;stroke-linecap:square;stroke-width:0.5;"/>
   </g>
   <g id="line2d_17">
    <path clip-path="url(#p801b431614)" d="M 449.293131 107.89666 
L 445.499314 107.673708 
L 441.70557 107.459841 
L 437.911948 107.254885 
L 434.118495 107.058678 
L 430.325256 106.871074 
L 426.532276 106.691936 
L 422.739598 106.521138 
L 418.947263 106.358567 
L 415.155314 106.204116 
L 411.363789 106.057691 
L 407.572729 105.919206 
L 403.782172 105.788582 
L 399.992156 105.665751 
L 396.202719 105.55065 
L 392.413899 105.443227 
L 388.625731 105.343435 
L 384.838252 105.251236 
L 381.051499 105.1666 
L 377.265506 105.089501 
L 373.48031 105.019926 
L 369.695945 104.957863 
L 365.912447 104.903312 
L 362.129851 104.856278 
L 358.34819 104.816775 
L 354.5675 104.784824 
L 350.787814 104.760453 
L 347.009168 104.743701 
L 343.231594 104.734612 
L 339.455127 104.733242 
L 335.679801 104.739654 
L 331.905648 104.753923 
L 328.132703 104.776133 
L 324.360998 104.806378 
L 320.590567 104.844767 
L 316.821441 104.89142 
L 313.053655 104.94647 
L 309.287239 105.010066 
L 305.522227 105.082373 
L 301.758649 105.163574 
" style="fill:none;stroke:#808080;stroke-linecap:square;stroke-width:1.5;"/>
   </g>
   <g id="line2d_18">
    <path clip-path="url(#p801b431614)" d="M 301.758649 107.89666 
L 301.758649 104.733242 
L 449.293131 104.733242 
L 449.293131 107.89666 
L 301.758649 107.89666 
" style="fill:none;stroke:#d3d3d3;stroke-linecap:square;stroke-width:0.5;"/>
   </g>
   <g id="line2d_19">
    <path clip-path="url(#p801b431614)" d="M 301.758649 105.163574 
L 297.996537 105.253871 
L 294.235922 105.35349 
L 290.476835 105.462679 
L 286.719306 105.581712 
L 282.963364 105.710895 
L 279.209038 105.850569 
L 275.456358 106.001111 
L 271.705351 106.162944 
L 267.956045 106.336541 
L 264.208466 106.522434 
L 260.462642 106.721223 
L 256.718598 106.933587 
L 252.976361 107.160301 
L 249.235955 107.402252 
L 245.497407 107.660462 
L 241.760744 107.936118 
L 238.025996 108.230613 
L 234.293196 108.54559 
L 230.562386 108.883018 
L 226.833617 109.24528 
L 223.106966 109.635305 
L 219.382542 110.056761 
L 215.660522 110.514333 
L 211.941202 111.014167 
L 208.225106 111.564584 
L 204.513227 112.177307 
L 200.807585 112.869751 
L 197.112708 113.669697 
L 193.440212 114.626251 
L 189.826564 115.841377 
L 186.438008 117.599436 
L 184.978454 120.758102 
L 187.523344 123.380979 
L 190.832867 125.142329 
L 194.321964 126.563902 
L 197.892139 127.800545 
L 201.509296 128.91807 
L 205.157434 129.951261 
" style="fill:none;stroke:#808080;stroke-linecap:square;stroke-width:1.5;"/>
   </g>
   <g id="line2d_20">
    <path clip-path="url(#p801b431614)" d="M 184.978454 129.951261 
L 184.978454 105.163574 
L 301.758649 105.163574 
L 301.758649 129.951261 
L 184.978454 129.951261 
" style="fill:none;stroke:#d3d3d3;stroke-linecap:square;stroke-width:0.5;"/>
   </g>
   <g id="line2d_21">
    <path clip-path="url(#p801b431614)" d="M 205.157434 129.951261 
L 208.768669 131.136772 
L 212.180065 132.786601 
L 215.169122 135.074975 
L 217.334403 138.108581 
L 218.311144 141.680629 
L 218.18255 145.379447 
L 217.296869 148.979209 
L 215.930878 152.4375 
L 214.249602 155.768658 
L 212.350617 158.994578 
L 210.294864 162.13431 
L 208.122588 165.203092 
L 205.861627 168.213043 
L 203.531964 171.173926 
L 201.148405 174.093741 
L 198.722205 176.979154 
L 196.262135 179.835808 
L 193.775168 182.668546 
L 191.266972 185.48158 
L 188.742237 188.278612 
L 186.204923 191.06294 
L 183.658435 193.837525 
L 181.105759 196.605056 
L 178.549562 199.367999 
L 175.992268 202.128637 
L 173.436124 204.889099 
L 170.883249 207.651395 
L 168.335674 210.417433 
L 165.795375 213.189044 
L 163.26431 215.967999 
L 160.744437 218.756024 
L 158.237744 221.554814 
L 155.746272 224.366048 
L 153.272135 227.191401 
L 150.817547 230.032551 
" style="fill:none;stroke:#808080;stroke-linecap:square;stroke-width:1.5;"/>
   </g>
   <g id="line2d_22">
    <path clip-path="url(#p801b431614)" d="M 150.817547 230.032551 
L 150.817547 129.951261 
L 218.311144 129.951261 
L 218.311144 230.032551 
L 150.817547 230.032551 
" style="fill:none;stroke:#d3d3d3;stroke-linecap:square;stroke-width:0.5;"/>
   </g>
   <g id="line2d_23">
    <path clip-path="url(#p801b431614)" d="M 150.817547 230.032551 
L 148.384842 232.891195 
L 145.976502 235.769054 
L 143.595184 238.667884 
L 141.243748 241.589485 
L 138.925294 244.535704 
L 136.643198 247.508446 
L 134.401155 250.509672 
L 132.203229 253.541408 
L 130.053907 256.605736 
L 127.958165 259.704792 
L 125.921538 262.840754 
L 123.950207 266.015817 
L 122.051087 269.232163 
L 120.23193 272.491911 
L 118.50144 275.797045 
L 116.869379 279.149316 
L 115.346688 282.550108 
L 113.945576 286.000252 
L 112.679582 289.499799 
L 111.563577 293.04772 
L 110.613652 296.64156 
L 109.846864 300.277039 
L 109.280771 303.947652 
L 108.93272 307.644323 
L 108.818875 311.355212 
L 108.953037 315.065773 
L 109.345385 318.75918 
L 110.00136 322.417132 
L 110.92093 326.020987 
L 112.098419 329.55304 
L 113.522983 332.997712 
L 115.17961 336.342439 
L 117.050427 339.578115 
L 119.116059 342.699113 
" style="fill:none;stroke:#808080;stroke-linecap:square;stroke-width:1.5;"/>
   </g>
   <g id="line2d_24">
    <path clip-path="url(#p801b431614)" d="M 108.818875 342.699113 
L 108.818875 230.032551 
L 150.817547 230.032551 
L 150.817547 342.699113 
L 108.818875 342.699113 
" style="fill:none;stroke:#d3d3d3;stroke-linecap:square;stroke-width:0.5;"/>
   </g>
   <g id="line2d_25">
    <path clip-path="url(#p801b431614)" d="M 119.116059 342.699113 
L 121.309912 345.767094 
L 123.549597 348.8028 
L 125.835979 351.804674 
L 128.169827 354.771134 
L 130.551805 357.700582 
L 132.982459 360.591421 
L 135.462207 363.442064 
L 137.991332 366.250947 
L 140.56997 369.016548 
L 143.198109 371.737396 
L 145.875585 374.412091 
L 148.602078 377.039316 
L 151.377114 379.617849 
L 154.200073 382.146577 
L 157.07019 384.624507 
L 159.986564 387.050773 
L 162.948174 389.424645 
L 165.953881 391.74553 
L 169.002452 394.012976 
L 172.092566 396.22667 
L 175.222832 398.386436 
L 178.391805 400.492229 
L 181.597998 402.544129 
L 184.839898 404.54233 
L 188.115977 406.487131 
L 191.424705 408.378925 
L 194.76456 410.218186 
L 198.134041 412.005456 
L 201.53167 413.741335 
L 204.956003 415.426463 
L 208.405635 417.061512 
L 211.879202 418.64717 
L 215.375388 420.18413 
L 218.892923 421.673078 
L 222.430589 423.11468 
L 225.987215 424.50957 
L 229.561685 425.858337 
L 233.15293 427.161515 
L 236.759933 428.419565 
L 240.381727 429.632863 
L 244.017395 430.801684 
L 247.666069 431.926175 
L 251.326933 433.00634 
L 254.999223 434.041996 
L 258.682229 435.032743 
L 262.375302 435.977898 
L 266.077857 436.876423 
L 269.789389 437.726806 
L 273.509484 438.526892 
L 277.237847 439.27361 
L 280.974336 439.962524 
L 284.719022 440.587025 
L 288.472276 441.136738 
L 292.234899 441.593946 
L 296.008187 441.923657 
L 299.792111 442.033064 
L 303.163868 441.111627 
" style="fill:none;stroke:#808080;stroke-linecap:square;stroke-width:1.5;"/>
   </g>
   <g id="line2d_26">
    <path clip-path="url(#p801b431614)" d="M 119.116059 442.033064 
L 119.116059 342.699113 
L 303.163868 342.699113 
L 303.163868 442.033064 
L 119.116059 442.033064 
" style="fill:none;stroke:#d3d3d3;stroke-linecap:square;stroke-width:0.5;"/>
   </g>
   <g id="line2d_27">
    <path clip-path="url(#p801b431614)" d="M 303.163868 441.111627 
L 304.722717 437.77991 
L 306.869061 434.715417 
L 309.141518 431.740019 
L 311.481702 428.816062 
L 313.867376 425.927941 
L 316.287252 423.067357 
L 318.734674 420.229277 
L 321.205328 417.41038 
L 323.696238 414.608349 
L 326.20525 411.821501 
L 328.730749 409.048576 
L 331.271495 406.288612 
L 333.826514 403.540859 
L 336.395028 400.804728 
L 338.976408 398.079753 
L 341.570142 395.365563 
L 344.175807 392.661865 
L 346.793057 389.968428 
L 349.421605 387.285071 
L 352.061212 384.611658 
L 354.711684 381.948089 
L 357.37286 379.294295 
L 360.044611 376.650236 
L 362.726835 374.015895 
L 365.419451 371.391276 
L 368.122401 368.776405 
L 370.835643 366.171323 
L 373.559154 363.57609 
L 376.292922 360.99078 
L 379.036953 358.415481 
L 381.791261 355.850296 
L 384.555875 353.29534 
L 387.330833 350.750741 
L 390.116182 348.216639 
L 392.911979 345.693186 
L 395.718291 343.180546 
L 398.535191 340.678895 
L 401.362763 338.188421 
L 404.201097 335.709322 
L 407.050288 333.241809 
L 409.910442 330.786106 
L 412.78167 328.342446 
" style="fill:none;stroke:#808080;stroke-linecap:square;stroke-width:1.5;"/>
   </g>
   <g id="line2d_28">
    <path clip-path="url(#p801b431614)" d="M 303.163868 441.111627 
L 303.163868 328.342446 
L 412.78167 328.342446 
L 412.78167 441.111627 
L 303.163868 441.111627 
" style="fill:none;stroke:#d3d3d3;stroke-linecap:square;stroke-width:0.5;"/>
   </g>
   <g id="line2d_29">
    <path clip-path="url(#p801b431614)" d="M 412.78167 328.342446 
L 415.66409 325.911078 
L 418.557826 323.492261 
L 421.463008 321.086268 
L 424.379775 318.693384 
L 427.308268 316.31391 
L 430.248637 313.948158 
L 433.201036 311.596458 
L 436.165627 309.259153 
L 439.142576 306.9366 
L 442.132054 304.629176 
L 445.134239 302.337273 
L 448.149313 300.061299 
L 451.177466 297.801682 
L 454.218889 295.558869 
L 457.273782 293.333327 
L 460.342347 291.125543 
L 463.424792 288.936025 
L 466.521329 286.765306 
L 469.632174 284.613939 
L 472.757548 282.482506 
L 475.897675 280.371611 
L 479.052782 278.281887 
L 482.223099 276.213995 
L 485.408859 274.168625 
L 488.610298 272.146499 
L 491.827649 270.148371 
L 495.061152 268.175028 
L 498.311041 266.227294 
L 501.577553 264.306027 
L 504.860922 262.412128 
L 508.161379 260.546534 
L 511.479149 258.710228 
L 514.814455 256.904233 
L 518.167509 255.12962 
L 521.538518 253.387506 
L 524.927675 251.679059 
L 528.335161 250.005495 
L 531.761142 248.368085 
L 535.205767 246.768153 
L 538.669163 245.207079 
L 542.151431 243.686298 
" style="fill:none;stroke:#808080;stroke-linecap:square;stroke-width:1.5;"/>
   </g>
   <g id="line2d_30">
    <path clip-path="url(#p801b431614)" d="M 412.78167 328.342446 
L 412.78167 243.686298 
L 542.151431 243.686298 
L 542.151431 328.342446 
L 412.78167 328.342446 
" style="fill:none;stroke:#d3d3d3;stroke-linecap:square;stroke-width:0.5;"/>
   </g>
   <g id="line2d_31">
    <path clip-path="url(#p801b431614)" d="M 542.151431 243.686298 
L 545.710569 242.134828 
L 549.251522 240.544524 
L 552.772587 238.913051 
L 556.271833 237.237859 
L 559.747069 235.51616 
L 563.195789 233.744898 
L 566.615123 231.92072 
L 570.001762 230.039939 
L 573.351881 228.098499 
L 576.661028 226.091934 
L 579.924002 224.015328 
L 583.134695 221.863275 
L 586.285898 219.629847 
L 589.369065 217.308569 
L 592.374023 214.892434 
L 595.288626 212.37394 
L 598.098349 209.745223 
L 600.785834 206.998286 
L 603.33042 204.125412 
L 605.707739 201.119815 
L 607.889503 197.976612 
L 609.843734 194.69415 
L 611.535721 191.275644 
L 612.930048 187.730883 
L 613.993826 184.077503 
L 614.700826 180.341146 
L 615.03559 176.553931 
L 614.996141 172.751213 
L 614.594223 168.967439 
L 613.852962 165.232403 
L 612.802897 161.568931 
L 611.477788 157.992324 
L 609.911223 154.511133 
L 608.134451 151.128608 
L 606.175322 147.844264 
L 604.058011 144.655222 
L 601.803202 141.557234 
L 599.428472 138.5454 
L 596.948755 135.614625 
L 594.376771 132.759909 
" style="fill:none;stroke:#808080;stroke-linecap:square;stroke-width:1.5;"/>
   </g>
   <g id="line2d_32">
    <path clip-path="url(#p801b431614)" d="M 542.151431 243.686298 
L 542.151431 132.759909 
L 615.03559 132.759909 
L 615.03559 243.686298 
L 542.151431 243.686298 
" style="fill:none;stroke:#d3d3d3;stroke-linecap:square;stroke-width:0.5;"/>
   </g>
   <g id="line2d_33">
    <path clip-path="url(#p801b431614)" d="M 125.323556 338.550936 
L 123.493386 335.785961 
L 125.323556 338.550936 
L 125.323556 338.550936 
" style="fill:none;stroke:#000000;stroke-linecap:square;stroke-width:3;"/>
   </g>
   <g id="line2d_34">
    <path clip-path="url(#p801b431614)" d="M 123.493386 338.550936 
L 123.493386 335.785961 
L 125.323556 335.785961 
L 125.323556 338.550936 
L 123.493386 338.550936 
" style="fill:none;stroke:#d3d3d3;stroke-linecap:square;stroke-width:0.5;"/>
   </g>
   <g id="line2d_35">
    <path clip-path="url(#p801b431614)" d="M 125.323556 338.550936 
L 125.323556 338.550936 
L 125.323556 338.550936 
" style="fill:none;stroke:#000000;stroke-linecap:square;stroke-width:3;"/>
   </g>
   <g id="line2d_36">
    <path clip-path="url(#p801b431614)" d="M 125.323556 338.550936 
L 125.323556 338.550936 
L 125.323556 338.550936 
L 125.323556 338.550936 
L 125.323556 338.550936 
" style="fill:none;stroke:#d3d3d3;stroke-linecap:square;stroke-width:0.5;"/>
   </g>
   <g id="line2d_37">
    <path clip-path="url(#p801b431614)" d="M 539.113984 236.976514 
L 542.598301 235.457664 
L 546.059987 233.902966 
L 549.496934 232.310475 
L 552.906762 230.678098 
L 556.286774 229.003585 
L 559.633903 227.284512 
L 562.944651 225.518278 
L 566.215012 223.70209 
L 569.440385 221.832964 
L 572.615462 219.907722 
L 575.734108 217.923003 
L 578.789207 215.875285 
L 581.772486 213.760929 
L 584.674319 211.576248 
L 587.483504 209.317616 
L 590.18703 206.981637 
L 592.769856 204.565363 
L 595.214741 202.066611 
L 597.502192 199.484336 
L 599.610632 196.819062 
L 601.51689 194.073278 
L 603.197138 191.251664 
L 604.628275 188.36098 
L 605.7896 185.409497 
L 606.664395 182.406097 
L 607.241017 179.3595 
L 607.513356 176.278199 
L 607.480941 173.171232 
L 607.149011 170.049161 
L 606.528491 166.92432 
L 605.635462 163.809996 
L 604.48993 160.719014 
L 603.114153 157.662456 
L 601.530967 154.648955 
L 599.76249 151.684578 
L 597.829295 148.773101 
L 595.750009 145.916462 
L 593.541218 143.115225 
L 591.217551 140.368991 
L 588.791855 137.676723 
L 588.791855 137.676723 
" style="fill:none;stroke:#000000;stroke-linecap:square;stroke-width:3;"/>
   </g>
   <g id="line2d_38">
    <path clip-path="url(#p801b431614)" d="M 539.113984 236.976514 
L 539.113984 137.676723 
L 607.513356 137.676723 
L 607.513356 236.976514 
L 539.113984 236.976514 
" style="fill:none;stroke:#d3d3d3;stroke-linecap:square;stroke-width:0.5;"/>
   </g>
   <g id="line2d_39">
    <path clip-path="url(#p801b431614)" d="M 588.791855 137.676723 
L 588.791855 137.676723 
L 587.337957 136.562141 
L 584.807673 135.190499 
L 581.812973 133.900963 
L 578.579731 132.723424 
L 575.20621 131.64664 
L 571.742108 130.655496 
L 568.215484 129.736915 
L 564.643512 128.880388 
L 561.037374 128.077568 
L 557.404712 127.321784 
L 553.750954 126.607644 
L 550.08008 125.930737 
L 546.395089 125.287405 
L 542.698293 124.674587 
L 538.991506 124.089692 
L 535.27618 123.530503 
L 531.553491 122.995113 
L 527.824407 122.481865 
L 524.089733 121.989308 
L 520.350146 121.516169 
L 516.606221 121.06132 
L 512.85845 120.623758 
L 509.107259 120.202586 
L 505.353018 119.797 
L 501.596051 119.406275 
L 497.836646 119.029756 
L 494.075056 118.666851 
L 490.31151 118.317017 
L 486.546211 117.979764 
L 482.779344 117.654639 
L 479.011076 117.341232 
L 475.241561 117.039163 
L 471.470937 116.748084 
L 467.699335 116.467675 
L 463.926874 116.197641 
" style="fill:none;stroke:#000000;stroke-linecap:square;stroke-width:3;"/>
   </g>
   <g id="line2d_40">
    <path clip-path="url(#p801b431614)" d="M 463.926874 137.676723 
L 463.926874 116.197641 
L 588.791855 116.197641 
L 588.791855 137.676723 
L 463.926874 137.676723 
" style="fill:none;stroke:#d3d3d3;stroke-linecap:square;stroke-width:0.5;"/>
   </g>
   <g id="line2d_41">
    <path clip-path="url(#p801b431614)" d="M 463.926874 116.197641 
L 460.153664 115.937708 
L 456.379808 115.687625 
L 452.605404 115.44716 
L 448.830542 115.216097 
L 445.055307 114.994237 
L 441.279782 114.781398 
L 437.504043 114.577407 
L 433.728163 114.38211 
L 429.952214 114.195361 
L 426.176262 114.017027 
L 422.400373 113.846986 
L 418.624609 113.685125 
L 414.849031 113.531341 
L 411.073698 113.385541 
L 407.298668 113.247642 
L 403.523997 113.117565 
L 399.749739 112.995244 
L 395.975949 112.880619 
L 392.20268 112.773637 
L 388.429984 112.674252 
L 384.657912 112.582429 
L 380.886517 112.498135 
L 377.115849 112.421349 
L 373.345958 112.352055 
L 369.576894 112.290243 
L 365.808709 112.235913 
L 362.041453 112.18907 
L 358.275175 112.149727 
L 354.509927 112.117907 
L 350.745761 112.093636 
L 346.982726 112.076953 
L 343.220876 112.067902 
L 339.460263 112.066538 
L 335.700941 112.072923 
L 331.942965 112.08713 
L 328.18639 112.109244 
" style="fill:none;stroke:#000000;stroke-linecap:square;stroke-width:3;"/>
   </g>
   <g id="line2d_42">
    <path clip-path="url(#p801b431614)" d="M 328.18639 116.197641 
L 328.18639 112.066538 
L 463.926874 112.066538 
L 463.926874 116.197641 
L 328.18639 116.197641 
" style="fill:none;stroke:#d3d3d3;stroke-linecap:square;stroke-width:0.5;"/>
   </g>
   <g id="line2d_43">
    <path clip-path="url(#p801b431614)" d="M 328.18639 112.109244 
L 324.431273 112.139356 
L 320.677673 112.177574 
L 316.92565 112.224015 
L 313.175266 112.27881 
L 309.426587 112.342106 
L 305.679679 112.414066 
L 301.934613 112.494867 
L 298.191463 112.58471 
L 294.450308 112.683813 
L 290.71123 112.79242 
L 286.974318 112.9108 
L 283.239669 113.039251 
L 279.507385 113.178104 
L 275.777581 113.327728 
L 272.050382 113.488534 
L 268.325926 113.66098 
L 264.60437 113.845582 
L 260.885891 114.042919 
L 257.170691 114.253647 
L 253.459005 114.47851 
L 249.751111 114.718356 
L 246.047337 114.974164 
L 242.34808 115.247059 
L 238.653826 115.538359 
L 234.965184 115.849609 
L 231.282923 116.182643 
L 227.608046 116.539666 
L 223.941884 116.923356 
L 220.286255 117.337019 
L 216.643724 117.784808 
L 213.018048 118.272041 
L 209.415001 118.805684 
L 205.843982 119.395102 
L 202.32151 120.053208 
L 198.879763 120.798081 
L 199.600029 120.610664 
" style="fill:none;stroke:#000000;stroke-linecap:square;stroke-width:3;"/>
   </g>
   <g id="line2d_44">
    <path clip-path="url(#p801b431614)" d="M 198.879763 120.798081 
L 198.879763 112.109244 
L 328.18639 112.109244 
L 328.18639 120.798081 
L 198.879763 120.798081 
" style="fill:none;stroke:#d3d3d3;stroke-linecap:square;stroke-width:0.5;"/>
   </g>
   <g id="line2d_45">
    <path clip-path="url(#p801b431614)" d="M 199.600029 120.610664 
" style="fill:none;stroke:#000000;stroke-linecap:square;stroke-width:3;"/>
   </g>
   <g id="line2d_46">
    <path clip-path="url(#p801b431614)" d="M 199.600029 120.610664 
L 199.600029 120.610664 
L 199.600029 120.610664 
L 199.600029 120.610664 
L 199.600029 120.610664 
" style="fill:none;stroke:#d3d3d3;stroke-linecap:square;stroke-width:0.5;"/>
   </g>
   <g id="line2d_47">
    <path clip-path="url(#p801b431614)" d="M 199.600029 120.610664 
L 200.27519 120.844423 
L 203.688765 121.89887 
L 207.187651 122.889713 
L 207.187651 122.889713 
" style="fill:none;stroke:#000000;stroke-linecap:square;stroke-width:3;"/>
   </g>
   <g id="line2d_48">
    <path clip-path="url(#p801b431614)" d="M 199.600029 122.889713 
L 199.600029 120.610664 
L 207.187651 120.610664 
L 207.187651 122.889713 
L 199.600029 122.889713 
" style="fill:none;stroke:#d3d3d3;stroke-linecap:square;stroke-width:0.5;"/>
   </g>
   <g id="line2d_49">
    <path clip-path="url(#p801b431614)" d="M 125.323556 338.550936 
L 127.454947 341.531574 
L 129.62894 344.478247 
L 131.846348 347.38957 
L 134.107907 350.264153 
L 136.414271 353.100614 
L 138.766 355.897592 
L 141.163555 358.653752 
L 143.607288 361.367803 
L 146.097437 364.038502 
L 148.634119 366.664671 
L 151.21733 369.245202 
L 153.846938 371.779073 
L 156.522686 374.265349 
L 159.244188 376.703195 
L 162.010937 379.091883 
L 164.822307 381.43079 
L 167.677556 383.719408 
L 170.575838 385.957342 
L 173.516207 388.144308 
L 176.49763 390.280136 
L 179.518992 392.364759 
L 182.579112 394.398217 
L 185.676752 396.380642 
L 188.810625 398.312255 
L 191.97941 400.193359 
L 195.181758 402.024325 
L 198.416304 403.805588 
L 201.681674 405.537632 
L 204.976495 407.220981 
L 208.299399 408.856192 
L 211.649031 410.44384 
L 215.024051 411.984509 
L 218.423143 413.478783 
L 221.845009 414.927233 
L 225.288381 416.330408 
L 228.752011 417.688823 
L 232.23468 419.002948 
L 235.73519 420.273199 
L 239.252365 421.499917 
L 242.785043 422.683361 
L 246.332077 423.823685 
L 249.892319 424.920923 
L 253.464616 425.974954 
L 257.047789 426.985479 
L 260.640618 427.951969 
L 264.241802 428.873609 
L 267.849912 429.749218 
L 271.463314 430.577122 
L 275.080025 431.35498 
L 278.697478 432.079496 
L 282.31205 432.74595 
L 285.918091 433.347361 
L 289.505612 433.872864 
L 293.053835 434.304175 
L 296.507598 434.606516 
L 297.810974 434.646108 
" style="fill:none;stroke:#000000;stroke-linecap:square;stroke-width:3;"/>
   </g>
   <g id="line2d_50">
    <path clip-path="url(#p801b431614)" d="M 125.323556 434.646108 
L 125.323556 338.550936 
L 297.810974 338.550936 
L 297.810974 434.646108 
L 125.323556 434.646108 
" style="fill:none;stroke:#d3d3d3;stroke-linecap:square;stroke-width:0.5;"/>
   </g>
   <g id="line2d_51">
    <path clip-path="url(#p801b431614)" d="M 297.810974 434.646108 
L 300.760617 430.429959 
L 303.160978 427.286638 
L 305.584843 424.258006 
L 308.032643 421.294629 
L 310.502227 418.375263 
L 312.991442 415.488707 
L 315.498495 412.628274 
L 318.021946 409.789633 
L 320.560643 406.969809 
L 323.113659 404.16667 
L 325.680243 401.378637 
L 328.259781 398.604514 
L 330.85177 395.843375 
L 333.455792 393.094498 
L 336.071503 390.357309 
L 338.698619 387.631354 
L 341.336902 384.916271 
L 343.986158 382.211773 
L 346.64623 379.517634 
L 349.316989 376.833677 
L 351.998334 374.15977 
L 354.690188 371.495817 
L 357.392493 368.841752 
L 360.105212 366.197539 
L 362.828322 363.563164 
L 365.561818 360.938636 
L 368.305707 358.323984 
L 371.060009 355.719256 
L 373.824757 353.124514 
L 376.599993 350.539838 
L 379.385772 347.965322 
L 382.182156 345.401075 
L 384.989218 342.847219 
L 387.807039 340.303887 
L 390.63571 337.771228 
L 393.475329 335.249402 
L 396.326002 332.738581 
L 399.187842 330.23895 
L 402.060971 327.750707 
L 404.945518 325.27406 
L 407.841619 322.809232 
" style="fill:none;stroke:#000000;stroke-linecap:square;stroke-width:3;"/>
   </g>
   <g id="line2d_52">
    <path clip-path="url(#p801b431614)" d="M 297.810974 434.646108 
L 297.810974 322.809232 
L 407.841619 322.809232 
L 407.841619 434.646108 
L 297.810974 434.646108 
" style="fill:none;stroke:#d3d3d3;stroke-linecap:square;stroke-width:0.5;"/>
   </g>
   <g id="line2d_53">
    <path clip-path="url(#p801b431614)" d="M 407.841619 322.809232 
L 410.749417 320.356457 
L 413.669063 317.915982 
L 416.600713 315.488069 
L 419.544533 313.072992 
L 422.500692 310.671039 
L 425.46937 308.282511 
L 428.450751 305.907726 
L 431.445027 303.547017 
L 434.452397 301.200731 
L 437.473065 298.869233 
L 440.507246 296.552905 
L 443.555156 294.252144 
L 446.617023 291.967371 
L 449.693079 289.69902 
L 452.783564 287.447549 
L 455.888722 285.213437 
L 459.008807 282.997184 
L 462.144078 280.799311 
L 465.294801 278.620368 
L 468.461246 276.460926 
L 471.643691 274.321584 
L 474.84242 272.202968 
L 478.057722 270.105735 
L 481.289891 268.030571 
L 484.539225 265.978193 
L 487.806029 263.949355 
L 491.090608 261.944842 
L 494.393273 259.965479 
L 497.714336 258.012129 
L 501.054111 256.085695 
L 504.412913 254.187123 
L 507.791055 252.317404 
L 511.188849 250.477575 
L 514.606603 248.668721 
L 518.04462 246.891981 
L 521.503195 245.148542 
L 524.982615 243.439651 
L 528.483154 241.76661 
L 532.005071 240.13078 
L 535.548608 238.533586 
L 539.113984 236.976514 
" style="fill:none;stroke:#000000;stroke-linecap:square;stroke-width:3;"/>
   </g>
   <g id="line2d_54">
    <path clip-path="url(#p801b431614)" d="M 407.841619 322.809232 
L 407.841619 236.976514 
L 539.113984 236.976514 
L 539.113984 322.809232 
L 407.841619 322.809232 
" style="fill:none;stroke:#d3d3d3;stroke-linecap:square;stroke-width:0.5;"/>
   </g>
   <g id="line2d_55">
    <path clip-path="url(#p801b431614)" d="M 539.113984 236.976514 
" style="fill:none;stroke:#000000;stroke-linecap:square;stroke-width:3;"/>
   </g>
   <g id="line2d_56">
    <path clip-path="url(#p801b431614)" d="M 539.113984 236.976514 
L 539.113984 236.976514 
L 539.113984 236.976514 
L 539.113984 236.976514 
L 539.113984 236.976514 
" style="fill:none;stroke:#d3d3d3;stroke-linecap:square;stroke-width:0.5;"/>
   </g>
   <g id="line2d_57">
    <path clip-path="url(#p801b431614)" d="M 207.187651 122.889713 
L 207.187651 122.889713 
L 211.58802 124.337252 
L 216.109484 126.531718 
L 220.56577 129.962519 
L 224.165086 135.027006 
L 225.802864 140.96591 
L 225.626899 146.46679 
L 224.465068 151.217954 
L 222.811772 155.411171 
L 220.883624 159.234086 
L 218.781941 162.805429 
L 216.561159 166.197719 
L 214.254215 169.457014 
L 211.882828 172.614118 
L 209.46223 175.690662 
L 207.003593 178.702498 
L 204.515404 181.661668 
L 202.004302 184.577602 
L 199.475614 187.457878 
L 196.933714 190.308721 
L 194.382275 193.135344 
L 191.824449 195.942185 
L 189.262994 198.733081 
L 186.700377 201.511392 
L 184.138848 204.280099 
L 181.580499 207.041875 
L 179.02731 209.799147 
L 176.48119 212.554132 
L 173.944006 215.308886 
L 171.417614 218.065323 
L 168.903882 220.825244 
L 166.404713 223.590359 
L 163.922064 226.362301 
L 161.45797 229.142639 
L 159.014563 231.932895 
" style="fill:none;stroke:#000000;stroke-linecap:square;stroke-width:3;"/>
   </g>
   <g id="line2d_58">
    <path clip-path="url(#p801b431614)" d="M 159.014563 231.932895 
L 159.014563 122.889713 
L 225.802864 122.889713 
L 225.802864 231.932895 
L 159.014563 231.932895 
" style="fill:none;stroke:#d3d3d3;stroke-linecap:square;stroke-width:0.5;"/>
   </g>
   <g id="line2d_59">
    <path clip-path="url(#p801b431614)" d="M 159.014563 231.932895 
L 156.594093 234.734549 
L 154.198949 237.549049 
L 151.831687 240.377816 
L 149.495049 243.222248 
L 147.191997 246.083722 
L 144.925744 248.963594 
L 142.699783 251.863198 
L 140.517934 254.783833 
L 138.384378 257.726759 
L 136.303713 260.693176 
L 134.281002 263.684208 
L 132.321833 266.700865 
L 130.432378 269.74401 
L 128.619462 272.814303 
L 126.890623 275.912137 
L 125.254179 279.037557 
L 123.719273 282.190154 
L 122.295908 285.368957 
L 120.994945 288.572291 
L 119.828051 291.797638 
L 118.807578 295.041501 
L 117.946353 298.299295 
L 117.257358 301.56529 
L 116.753311 304.832646 
L 116.446138 308.093571 
L 116.346415 311.339592 
L 116.462805 314.561919 
L 116.801582 317.75183 
L 117.366277 320.900982 
L 118.157453 324.001596 
L 119.172615 327.046529 
L 120.406263 330.029287 
L 121.850093 332.944085 
L 125.323556 338.550936 
" style="fill:none;stroke:#000000;stroke-linecap:square;stroke-width:3;"/>
   </g>
   <g id="line2d_60">
    <path clip-path="url(#p801b431614)" d="M 116.346415 338.550936 
L 116.346415 231.932895 
L 159.014563 231.932895 
L 159.014563 338.550936 
L 116.346415 338.550936 
" style="fill:none;stroke:#d3d3d3;stroke-linecap:square;stroke-width:0.5;"/>
   </g>
   <g id="line2d_61">
    <path clip-path="url(#p801b431614)" d="M 539.113984 236.976514 
L 539.113984 236.976514 
L 539.113984 236.976514 
" style="fill:none;stroke:#000000;stroke-linecap:square;stroke-width:3;"/>
   </g>
   <g id="line2d_62">
    <path clip-path="url(#p801b431614)" d="M 539.113984 236.976514 
L 539.113984 236.976514 
L 539.113984 236.976514 
L 539.113984 236.976514 
L 539.113984 236.976514 
" style="fill:none;stroke:#d3d3d3;stroke-linecap:square;stroke-width:0.5;"/>
   </g>
   <g id="line2d_63">
    <path clip-path="url(#p801b431614)" d="M 539.113984 236.976514 
L 539.113984 236.976514 
L 539.113984 236.976514 
" style="fill:none;stroke:#000000;stroke-linecap:square;stroke-width:3;"/>
   </g>
   <g id="line2d_64">
    <path clip-path="url(#p801b431614)" d="M 539.113984 236.976514 
L 539.113984 236.976514 
L 539.113984 236.976514 
L 539.113984 236.976514 
L 539.113984 236.976514 
" style="fill:none;stroke:#d3d3d3;stroke-linecap:square;stroke-width:0.5;"/>
   </g>
   <g id="line2d_65">
    <path clip-path="url(#p801b431614)" d="M 112.908562 346.847289 
L 110.607469 343.370268 
L 112.908562 346.847289 
L 112.908562 346.847289 
" style="fill:none;stroke:#000000;stroke-linecap:square;stroke-width:3;"/>
   </g>
   <g id="line2d_66">
    <path clip-path="url(#p801b431614)" d="M 110.607469 346.847289 
L 110.607469 343.370268 
L 112.908562 343.370268 
L 112.908562 346.847289 
L 110.607469 346.847289 
" style="fill:none;stroke:#d3d3d3;stroke-linecap:square;stroke-width:0.5;"/>
   </g>
   <g id="line2d_67">
    <path clip-path="url(#p801b431614)" d="M 112.908562 346.847289 
L 112.908562 346.847289 
L 112.908562 346.847289 
" style="fill:none;stroke:#000000;stroke-linecap:square;stroke-width:3;"/>
   </g>
   <g id="line2d_68">
    <path clip-path="url(#p801b431614)" d="M 112.908562 346.847289 
L 112.908562 346.847289 
L 112.908562 346.847289 
L 112.908562 346.847289 
L 112.908562 346.847289 
" style="fill:none;stroke:#d3d3d3;stroke-linecap:square;stroke-width:0.5;"/>
   </g>
   <g id="line2d_69">
    <path clip-path="url(#p801b431614)" d="M 545.188878 250.396083 
L 548.822837 248.811992 
L 552.443057 247.186082 
L 556.048239 245.515626 
L 559.636904 243.797619 
L 563.207364 242.028735 
L 566.757675 240.205284 
L 570.285594 238.323162 
L 573.788513 236.377788 
L 577.263378 234.364034 
L 580.706594 232.276146 
L 584.113896 230.107653 
L 587.480184 227.851265 
L 590.799311 225.498764 
L 594.063811 223.040891 
L 597.264541 220.467251 
L 600.390221 217.766243 
L 603.426841 214.925082 
L 606.356927 211.929961 
L 609.158648 208.766488 
L 611.804845 205.420569 
L 614.262116 201.879946 
L 616.49033 198.136635 
L 618.443167 194.190308 
L 620.070496 190.052269 
L 621.323256 185.748908 
L 622.160636 181.322792 
L 622.557824 176.829663 
L 622.51134 172.331193 
L 622.039435 167.885717 
L 621.177432 163.540486 
L 619.970333 159.327866 
L 618.465646 155.265635 
L 616.708293 151.359809 
L 614.737934 147.608261 
L 612.588153 144.00395 
L 610.286728 140.537343 
L 607.856394 137.198007 
L 605.315726 133.975575 
L 602.679958 130.860259 
L 599.961687 127.843094 
L 599.961687 127.843094 
" style="fill:none;stroke:#000000;stroke-linecap:square;stroke-width:3;"/>
   </g>
   <g id="line2d_70">
    <path clip-path="url(#p801b431614)" d="M 545.188878 250.396083 
L 545.188878 127.843094 
L 622.557824 127.843094 
L 622.557824 250.396083 
L 545.188878 250.396083 
" style="fill:none;stroke:#d3d3d3;stroke-linecap:square;stroke-width:0.5;"/>
   </g>
   <g id="line2d_71">
    <path clip-path="url(#p801b431614)" d="M 599.961687 127.843094 
L 599.961687 127.843094 
L 595.546493 124.267356 
L 591.42577 122.016994 
L 587.44528 120.299407 
L 583.531593 118.872888 
L 579.65331 117.634507 
L 575.795476 116.530474 
L 571.950241 115.528776 
L 568.113153 114.6086 
L 564.281535 113.755535 
L 560.453702 112.959114 
L 556.628548 112.211453 
L 552.805331 111.506438 
L 548.983537 110.839212 
L 545.162806 110.205841 
L 541.342881 109.603087 
L 537.523577 109.028244 
L 533.704761 108.479025 
L 529.886336 107.953477 
L 526.068234 107.449914 
L 522.250404 106.966874 
L 518.432812 106.503074 
L 514.615436 106.057383 
L 510.798263 105.628801 
L 506.981286 105.216436 
L 503.164503 104.81949 
L 499.347917 104.437244 
L 495.531536 104.069051 
L 491.715367 103.714326 
L 487.899423 103.372535 
L 484.083716 103.043195 
L 480.26826 102.725863 
L 476.453072 102.420133 
L 472.638168 102.125636 
L 468.823565 101.84203 
L 465.009282 101.569001 
L 461.195337 101.306262 
L 457.381748 101.053546 
L 453.568536 100.810608 
" style="fill:none;stroke:#000000;stroke-linecap:square;stroke-width:3;"/>
   </g>
   <g id="line2d_72">
    <path clip-path="url(#p801b431614)" d="M 453.568536 127.843094 
L 453.568536 100.810608 
L 599.961687 100.810608 
L 599.961687 127.843094 
L 453.568536 127.843094 
" style="fill:none;stroke:#d3d3d3;stroke-linecap:square;stroke-width:0.5;"/>
   </g>
   <g id="line2d_73">
    <path clip-path="url(#p801b431614)" d="M 453.568536 100.810608 
L 449.755721 100.577222 
L 445.943322 100.353178 
L 442.131359 100.138284 
L 438.319854 99.932362 
L 434.508827 99.735247 
L 430.698299 99.546787 
L 426.88829 99.366845 
L 423.078823 99.195291 
L 419.269918 99.032009 
L 415.461597 98.876892 
L 411.65388 98.729841 
L 407.84679 98.59077 
L 404.040347 98.459599 
L 400.234573 98.336257 
L 396.42949 98.220681 
L 392.625118 98.112817 
L 388.821478 98.012617 
L 385.018592 97.920043 
L 381.21648 97.835064 
L 377.415164 97.757654 
L 373.614662 97.687796 
L 369.814996 97.625483 
L 366.016185 97.570711 
L 362.218249 97.523486 
L 358.421205 97.483823 
L 354.625072 97.451741 
L 350.829868 97.42727 
L 347.03561 97.410448 
L 343.242313 97.401322 
L 339.449991 97.399946 
L 335.65866 97.406386 
L 331.868332 97.420716 
L 328.079016 97.443022 
L 324.290723 97.473401 
L 320.50346 97.511961 
L 316.717233 97.558825 
L 312.932043 97.614129 
L 309.147892 97.678025 
L 305.364774 97.75068 
" style="fill:none;stroke:#000000;stroke-linecap:square;stroke-width:3;"/>
   </g>
   <g id="line2d_74">
    <path clip-path="url(#p801b431614)" d="M 305.364774 100.810608 
L 305.364774 97.399946 
L 453.568536 97.399946 
L 453.568536 100.810608 
L 305.364774 100.810608 
" style="fill:none;stroke:#d3d3d3;stroke-linecap:square;stroke-width:0.5;"/>
   </g>
   <g id="line2d_75">
    <path clip-path="url(#p801b431614)" d="M 305.364774 97.75068 
L 301.582685 97.83228 
L 297.801611 97.923033 
L 294.021537 98.023168 
L 290.242441 98.132937 
L 286.464293 98.252623 
L 282.687059 98.382539 
L 278.910691 98.523033 
L 275.135134 98.674493 
L 271.36032 98.837354 
L 267.586163 99.012102 
L 263.812562 99.199286 
L 260.039394 99.399526 
L 256.266506 99.613527 
L 252.493716 99.842093 
L 248.720798 100.086147 
L 244.947476 100.34676 
L 241.173408 100.625177 
L 237.398165 100.922866 
L 233.621209 101.241571 
L 229.841848 101.583393 
L 226.059188 101.950894 
L 222.272047 102.347255 
L 218.478829 102.776502 
L 214.677321 103.243857 
L 210.864356 103.756293 
L 207.035211 104.323483 
L 203.182472 104.959512 
L 199.29366 105.686294 
L 195.345654 106.541314 
L 191.289039 107.598771 
L 186.990312 109.048531 
L 181.903228 111.746171 
L 177.894409 123.238076 
L 183.340898 129.478159 
L 187.659542 131.792163 
L 191.640482 133.416144 
L 195.509088 134.756668 
L 199.329827 135.93727 
L 203.127216 137.012809 
" style="fill:none;stroke:#000000;stroke-linecap:square;stroke-width:3;"/>
   </g>
   <g id="line2d_76">
    <path clip-path="url(#p801b431614)" d="M 177.894409 137.012809 
L 177.894409 97.75068 
L 305.364774 97.75068 
L 305.364774 137.012809 
L 177.894409 137.012809 
" style="fill:none;stroke:#d3d3d3;stroke-linecap:square;stroke-width:0.5;"/>
   </g>
   <g id="line2d_77">
    <path clip-path="url(#p801b431614)" d="M 203.127216 137.012809 
L 203.127216 137.012809 
" style="fill:none;stroke:#000000;stroke-linecap:square;stroke-width:3;"/>
   </g>
   <g id="line2d_78">
    <path clip-path="url(#p801b431614)" d="M 203.127216 137.012809 
L 203.127216 137.012809 
L 203.127216 137.012809 
L 203.127216 137.012809 
L 203.127216 137.012809 
" style="fill:none;stroke:#d3d3d3;stroke-linecap:square;stroke-width:0.5;"/>
   </g>
   <g id="line2d_79">
    <path clip-path="url(#p801b431614)" d="M 112.908562 346.847289 
L 115.164878 350.002614 
L 117.470254 353.127353 
L 119.82561 356.219779 
L 122.231746 359.278115 
L 124.689338 362.300551 
L 127.198917 365.285251 
L 129.760859 368.230376 
L 132.375375 371.134091 
L 135.042503 373.994593 
L 137.7621 376.810121 
L 140.53384 379.57898 
L 143.357217 382.29956 
L 146.231542 384.970349 
L 149.155958 387.589959 
L 152.129442 390.157131 
L 155.150822 392.670756 
L 158.218791 395.129882 
L 161.331925 397.533718 
L 164.488697 399.881643 
L 167.687502 402.173204 
L 170.926672 404.408112 
L 174.204497 406.586242 
L 177.519244 408.707617 
L 180.869171 410.772406 
L 184.252543 412.780904 
L 187.667651 414.733525 
L 191.112817 416.630784 
L 194.586409 418.473281 
L 198.086846 420.261688 
L 201.612608 421.996733 
L 205.16224 423.679183 
L 208.734353 425.30983 
L 212.327633 426.889477 
L 215.940837 428.418924 
L 219.572797 429.898953 
L 223.222419 431.330318 
L 226.888689 432.713726 
L 230.570669 434.049831 
L 234.267501 435.339213 
L 237.97841 436.582366 
L 241.702713 437.779682 
L 245.439819 438.931428 
L 249.189251 440.037725 
L 252.950657 441.098513 
L 256.723841 442.113517 
L 260.508802 443.082187 
L 264.305802 444.003628 
L 268.115464 444.87649 
L 271.938944 445.698804 
L 275.778217 446.467724 
L 279.636622 447.179098 
L 283.519952 447.826688 
L 287.438939 448.400612 
L 291.415963 448.883717 
L 295.508777 449.240797 
L 299.952221 449.364702 
L 310.599375 439.968309 
L 310.599375 439.968309 
" style="fill:none;stroke:#000000;stroke-linecap:square;stroke-width:3;"/>
   </g>
   <g id="line2d_80">
    <path clip-path="url(#p801b431614)" d="M 112.908562 449.364702 
L 112.908562 346.847289 
L 310.599375 346.847289 
L 310.599375 449.364702 
L 112.908562 449.364702 
" style="fill:none;stroke:#d3d3d3;stroke-linecap:square;stroke-width:0.5;"/>
   </g>
   <g id="line2d_81">
    <path clip-path="url(#p801b431614)" d="M 310.599375 439.968309 
L 310.599375 439.968309 
L 311.08596 441.697726 
L 312.977504 439.000875 
L 315.122058 436.1934 
L 317.378561 433.374119 
L 319.702109 430.561253 
L 322.072278 427.759451 
L 324.477906 424.969848 
L 326.912162 422.192486 
L 329.370531 419.427064 
L 331.849857 416.673192 
L 334.347839 413.930483 
L 336.862748 411.198588 
L 339.393247 408.477205 
L 341.938286 405.766081 
L 344.497024 403.065008 
L 347.06878 400.373818 
L 349.652996 397.692377 
L 352.249213 395.020584 
L 354.857052 392.358369 
L 357.476194 389.705683 
L 360.106379 387.062501 
L 362.747386 384.428821 
L 365.399035 381.804656 
L 368.061176 379.190038 
L 370.73369 376.585014 
L 373.416479 373.989646 
L 376.109468 371.404011 
L 378.8126 368.828196 
L 381.525835 366.262305 
L 384.249149 363.706449 
L 386.982529 361.160755 
L 389.725979 358.625358 
L 392.47951 356.100406 
L 395.243145 353.586059 
L 398.016918 351.082485 
L 400.800871 348.589864 
L 403.595054 346.108389 
L 406.399525 343.638261 
L 409.214351 341.179693 
L 412.039605 338.732912 
L 414.875366 336.298152 
" style="fill:none;stroke:#000000;stroke-linecap:square;stroke-width:3;"/>
   </g>
   <g id="line2d_82">
    <path clip-path="url(#p801b431614)" d="M 310.599375 441.697726 
L 310.599375 336.298152 
L 414.875366 336.298152 
L 414.875366 441.697726 
L 310.599375 441.697726 
" style="fill:none;stroke:#d3d3d3;stroke-linecap:square;stroke-width:0.5;"/>
   </g>
   <g id="line2d_83">
    <path clip-path="url(#p801b431614)" d="M 414.875366 336.298152 
L 417.721721 333.875661 
L 420.578762 331.465699 
L 423.446588 329.06854 
L 426.325303 326.684466 
L 429.215017 324.313776 
L 432.115843 321.956781 
L 435.027903 319.613806 
L 437.951322 317.28519 
L 440.886227 314.971288 
L 443.832754 312.672469 
L 446.791042 310.389119 
L 449.761232 308.121641 
L 452.74347 305.870453 
L 455.737908 303.635993 
L 458.7447 301.418719 
L 461.764001 299.219105 
L 464.795972 297.037649 
L 467.840776 294.874867 
L 470.898579 292.7313 
L 473.969547 290.607511 
L 477.05385 288.504086 
L 480.151658 286.421638 
L 483.263143 284.360805 
L 486.388476 282.322254 
L 489.527828 280.306679 
L 492.68137 278.314805 
L 495.84927 276.347387 
L 499.031696 274.405214 
L 502.22881 272.489108 
L 505.440771 270.599926 
L 508.667734 268.738561 
L 511.909845 266.905946 
L 515.167243 265.103052 
L 518.440061 263.330891 
L 521.728416 261.590518 
L 525.032416 259.883032 
L 528.352154 258.209576 
L 531.687706 256.571339 
L 535.039131 254.969561 
L 538.406463 253.405526 
L 541.789717 251.880571 
L 545.188878 250.396083 
" style="fill:none;stroke:#000000;stroke-linecap:square;stroke-width:3;"/>
   </g>
   <g id="line2d_84">
    <path clip-path="url(#p801b431614)" d="M 414.875366 336.298152 
L 414.875366 250.396083 
L 545.188878 250.396083 
L 545.188878 336.298152 
L 414.875366 336.298152 
" style="fill:none;stroke:#d3d3d3;stroke-linecap:square;stroke-width:0.5;"/>
   </g>
   <g id="line2d_85">
    <path clip-path="url(#p801b431614)" d="M 545.188878 250.396083 
" style="fill:none;stroke:#000000;stroke-linecap:square;stroke-width:3;"/>
   </g>
   <g id="line2d_86">
    <path clip-path="url(#p801b431614)" d="M 545.188878 250.396083 
L 545.188878 250.396083 
L 545.188878 250.396083 
L 545.188878 250.396083 
L 545.188878 250.396083 
" style="fill:none;stroke:#d3d3d3;stroke-linecap:square;stroke-width:0.5;"/>
   </g>
   <g id="line2d_87">
    <path clip-path="url(#p801b431614)" d="M 203.127216 137.012809 
L 203.127216 137.012809 
L 205.949318 137.936292 
L 208.250646 139.041483 
L 209.772473 140.187431 
L 210.503719 141.190156 
L 210.819424 142.395347 
L 210.738201 144.292103 
L 210.128669 146.740464 
L 209.049984 149.463829 
L 207.61558 152.303231 
L 205.919293 155.183727 
L 204.028568 158.0709 
L 201.990962 160.94917 
L 199.840425 163.811969 
L 197.601699 166.65719 
L 195.293216 169.484983 
L 192.929007 172.296639 
L 190.519967 175.094014 
L 188.074723 177.879214 
L 185.60023 180.654438 
L 183.102199 183.421881 
L 180.585397 186.183695 
L 178.053876 188.941968 
L 175.511142 191.69872 
L 172.960276 194.4559 
L 170.404037 197.215398 
L 167.844939 199.979052 
L 165.285309 202.748657 
L 162.727341 205.52598 
L 160.173136 208.312766 
L 157.624737 211.110754 
L 155.084161 213.921689 
L 152.553424 216.747327 
L 150.034573 219.589458 
L 147.529707 222.449906 
" style="fill:none;stroke:#000000;stroke-linecap:square;stroke-width:3;"/>
   </g>
   <g id="line2d_88">
    <path clip-path="url(#p801b431614)" d="M 147.529707 222.449906 
L 147.529707 137.012809 
L 210.819424 137.012809 
L 210.819424 222.449906 
L 147.529707 222.449906 
" style="fill:none;stroke:#d3d3d3;stroke-linecap:square;stroke-width:0.5;"/>
   </g>
   <g id="line2d_89">
    <path clip-path="url(#p801b431614)" d="M 147.529707 222.449906 
L 145.041001 225.330553 
L 142.570735 228.23334 
L 140.121318 231.160292 
L 137.695319 234.113521 
L 135.295498 237.095248 
L 132.924843 240.107814 
L 130.586612 243.153693 
L 128.284377 246.235512 
L 126.02208 249.356057 
L 123.804101 252.518295 
L 121.635327 255.725376 
L 119.521244 258.980642 
L 117.468036 262.287623 
L 115.482712 265.650022 
L 113.573237 269.071684 
L 111.7487 272.556533 
L 110.019486 276.108478 
L 108.397469 279.731258 
L 106.896207 283.428213 
L 105.531114 287.20196 
L 104.319576 291.053938 
L 103.280951 294.983824 
L 102.436369 298.988788 
L 101.808231 303.062657 
L 101.419302 307.195075 
L 101.291335 311.370831 
L 101.443269 315.569626 
L 101.889187 319.76653 
L 102.636443 323.933283 
L 103.684407 328.040378 
L 105.024223 332.059551 
L 106.639703 335.966138 
L 108.509128 339.740793 
L 112.908562 346.847289 
" style="fill:none;stroke:#000000;stroke-linecap:square;stroke-width:3;"/>
   </g>
   <g id="line2d_90">
    <path clip-path="url(#p801b431614)" d="M 101.291335 346.847289 
L 101.291335 222.449906 
L 147.529707 222.449906 
L 147.529707 346.847289 
L 101.291335 346.847289 
" style="fill:none;stroke:#d3d3d3;stroke-linecap:square;stroke-width:0.5;"/>
   </g>
   <g id="line2d_91">
    <path clip-path="url(#p801b431614)" d="M 545.188878 250.396083 
L 545.188878 250.396083 
L 545.188878 250.396083 
" style="fill:none;stroke:#000000;stroke-linecap:square;stroke-width:3;"/>
   </g>
   <g id="line2d_92">
    <path clip-path="url(#p801b431614)" d="M 545.188878 250.396083 
L 545.188878 250.396083 
L 545.188878 250.396083 
L 545.188878 250.396083 
L 545.188878 250.396083 
" style="fill:none;stroke:#d3d3d3;stroke-linecap:square;stroke-width:0.5;"/>
   </g>
   <g id="line2d_93">
    <path clip-path="url(#p801b431614)" d="M 545.188878 250.396083 
L 545.188878 250.396083 
L 545.188878 250.396083 
" style="fill:none;stroke:#000000;stroke-linecap:square;stroke-width:3;"/>
   </g>
   <g id="line2d_94">
    <path clip-path="url(#p801b431614)" d="M 545.188878 250.396083 
L 545.188878 250.396083 
L 545.188878 250.396083 
L 545.188878 250.396083 
L 545.188878 250.396083 
" style="fill:none;stroke:#d3d3d3;stroke-linecap:square;stroke-width:0.5;"/>
   </g>
   <g id="line2d_95">
    <path clip-path="url(#p801b431614)" d="M 449.293131 96.896713 
L 450.737035 96.987023 
L 452.15723 97.256468 
L 453.530397 97.700625 
L 454.833988 98.312201 
L 456.046598 99.081153 
L 457.148316 99.994855 
L 458.121053 101.038305 
L 458.948835 102.194369 
L 459.618071 103.444065 
L 460.117771 104.766871 
L 460.439732 106.141069 
L 460.578665 107.544094 
L 460.532291 108.952908 
L 460.301369 110.344378 
L 459.889693 111.695657 
L 459.304021 112.984556 
L 458.553971 114.189912 
L 457.651858 115.291933 
L 456.612495 116.272524 
L 455.452949 117.115584 
L 454.192258 117.807269 
L 452.851124 118.336222 
L 451.451567 118.693757 
L 450.016569 118.874005 
L 448.569693 118.874005 
L 447.134695 118.693757 
L 445.735139 118.336222 
L 444.394004 117.807269 
L 443.133314 117.115584 
L 441.973767 116.272524 
L 440.934404 115.291933 
L 440.032291 114.189912 
L 439.282241 112.984556 
L 438.696569 111.695657 
L 438.284893 110.344378 
L 438.053972 108.952908 
L 438.007597 107.544094 
L 438.146531 106.141069 
L 438.468491 104.766871 
L 438.968192 103.444065 
L 439.637427 102.194369 
L 440.46521 101.038305 
L 441.437946 99.994855 
L 442.539665 99.081153 
L 443.752275 98.312201 
L 445.055866 97.700625 
L 446.429032 97.256468 
L 447.849227 96.987023 
L 449.293131 96.896713 
" style="fill:none;stroke:#808080;stroke-linecap:square;stroke-width:1.5;"/>
   </g>
   <g id="line2d_96">
    <path clip-path="url(#p801b431614)" d="M 301.758649 94.163628 
L 303.202553 94.253937 
L 304.622748 94.523382 
L 305.995915 94.967539 
L 307.299505 95.579115 
L 308.512116 96.348067 
L 309.613834 97.26177 
L 310.58657 98.305219 
L 311.414353 99.461283 
L 312.083589 100.710979 
L 312.583289 102.033786 
L 312.90525 103.407983 
L 313.044183 104.811008 
L 312.997808 106.219822 
L 312.766887 107.611292 
L 312.355211 108.962571 
L 311.769539 110.25147 
L 311.019489 111.456826 
L 310.117376 112.558847 
L 309.078013 113.539438 
L 307.918467 114.382498 
L 306.657776 115.074183 
L 305.316642 115.603136 
L 303.917085 115.960671 
L 302.482087 116.140919 
L 301.035211 116.140919 
L 299.600213 115.960671 
L 298.200656 115.603136 
L 296.859522 115.074183 
L 295.598831 114.382498 
L 294.439285 113.539438 
L 293.399922 112.558847 
L 292.497809 111.456826 
L 291.747759 110.25147 
L 291.162087 108.962571 
L 290.750411 107.611292 
L 290.51949 106.219822 
L 290.473115 104.811008 
L 290.612048 103.407983 
L 290.934009 102.033786 
L 291.433709 100.710979 
L 292.102945 99.461283 
L 292.930727 98.305219 
L 293.903464 97.26177 
L 295.005182 96.348067 
L 296.217792 95.579115 
L 297.521383 94.967539 
L 298.89455 94.523382 
L 300.314745 94.253937 
L 301.758649 94.163628 
" style="fill:none;stroke:#808080;stroke-linecap:square;stroke-width:1.5;"/>
   </g>
   <g id="line2d_97">
    <path clip-path="url(#p801b431614)" d="M 205.157434 118.951315 
L 206.601338 119.041624 
L 208.021533 119.311069 
L 209.394699 119.755226 
L 210.69829 120.366802 
L 211.9109 121.135754 
L 213.012619 122.049457 
L 213.985355 123.092907 
L 214.813138 124.248971 
L 215.482373 125.498666 
L 215.982074 126.821473 
L 216.304034 128.195671 
L 216.442968 129.598695 
L 216.396593 131.007509 
L 216.165672 132.398979 
L 215.753996 133.750258 
L 215.168324 135.039157 
L 214.418274 136.244513 
L 213.516161 137.346534 
L 212.476798 138.327125 
L 211.317251 139.170185 
L 210.056561 139.86187 
L 208.715426 140.390823 
L 207.31587 140.748359 
L 205.880872 140.928606 
L 204.433995 140.928606 
L 202.998998 140.748359 
L 201.599441 140.390823 
L 200.258307 139.86187 
L 198.997616 139.170185 
L 197.83807 138.327125 
L 196.798707 137.346534 
L 195.896594 136.244513 
L 195.146544 135.039157 
L 194.560872 133.750258 
L 194.149196 132.398979 
L 193.918274 131.007509 
L 193.8719 129.598695 
L 194.010833 128.195671 
L 194.332794 126.821473 
L 194.832494 125.498666 
L 195.50173 124.248971 
L 196.329512 123.092907 
L 197.302249 122.049457 
L 198.403967 121.135754 
L 199.616577 120.366802 
L 200.920168 119.755226 
L 202.293335 119.311069 
L 203.71353 119.041624 
L 205.157434 118.951315 
" style="fill:none;stroke:#808080;stroke-linecap:square;stroke-width:1.5;"/>
   </g>
   <g id="line2d_98">
    <path clip-path="url(#p801b431614)" d="M 150.817547 219.032605 
L 152.261451 219.122914 
L 153.681646 219.39236 
L 155.054813 219.836517 
L 156.358404 220.448092 
L 157.571014 221.217044 
L 158.672732 222.130747 
L 159.645469 223.174197 
L 160.473251 224.330261 
L 161.142487 225.579956 
L 161.642187 226.902763 
L 161.964148 228.276961 
L 162.103081 229.679985 
L 162.056707 231.088799 
L 161.825785 232.480269 
L 161.414109 233.831548 
L 160.828437 235.120447 
L 160.078387 236.325803 
L 159.176274 237.427825 
L 158.136911 238.408415 
L 156.977365 239.251475 
L 155.716674 239.94316 
L 154.37554 240.472113 
L 152.975983 240.829649 
L 151.540985 241.009897 
L 150.094109 241.009897 
L 148.659111 240.829649 
L 147.259555 240.472113 
L 145.91842 239.94316 
L 144.65773 239.251475 
L 143.498183 238.408415 
L 142.45882 237.427825 
L 141.556707 236.325803 
L 140.806657 235.120447 
L 140.220985 233.831548 
L 139.809309 232.480269 
L 139.578388 231.088799 
L 139.532013 229.679985 
L 139.670946 228.276961 
L 139.992907 226.902763 
L 140.492607 225.579956 
L 141.161843 224.330261 
L 141.989626 223.174197 
L 142.962362 222.130747 
L 144.064081 221.217044 
L 145.276691 220.448092 
L 146.580282 219.836517 
L 147.953448 219.39236 
L 149.373643 219.122914 
L 150.817547 219.032605 
" style="fill:none;stroke:#808080;stroke-linecap:square;stroke-width:1.5;"/>
   </g>
   <g id="line2d_99">
    <path clip-path="url(#p801b431614)" d="M 119.116059 331.699167 
L 120.559963 331.789476 
L 121.980158 332.058921 
L 123.353325 332.503078 
L 124.656916 333.114654 
L 125.869526 333.883606 
L 126.971244 334.797309 
L 127.943981 335.840758 
L 128.771763 336.996822 
L 129.440999 338.246518 
L 129.940699 339.569325 
L 130.26266 340.943522 
L 130.401593 342.346547 
L 130.355219 343.755361 
L 130.124297 345.146831 
L 129.712621 346.49811 
L 129.126949 347.787009 
L 128.376899 348.992365 
L 127.474786 350.094386 
L 126.435423 351.074977 
L 125.275877 351.918037 
L 124.015186 352.609722 
L 122.674052 353.138675 
L 121.274495 353.49621 
L 119.839498 353.676458 
L 118.392621 353.676458 
L 116.957623 353.49621 
L 115.558067 353.138675 
L 114.216932 352.609722 
L 112.956242 351.918037 
L 111.796695 351.074977 
L 110.757332 350.094386 
L 109.855219 348.992365 
L 109.105169 347.787009 
L 108.519497 346.49811 
L 108.107821 345.146831 
L 107.8769 343.755361 
L 107.830525 342.346547 
L 107.969459 340.943522 
L 108.291419 339.569325 
L 108.79112 338.246518 
L 109.460355 336.996822 
L 110.288138 335.840758 
L 111.260874 334.797309 
L 112.362593 333.883606 
L 113.575203 333.114654 
L 114.878794 332.503078 
L 116.25196 332.058921 
L 117.672155 331.789476 
L 119.116059 331.699167 
" style="fill:none;stroke:#808080;stroke-linecap:square;stroke-width:1.5;"/>
   </g>
   <g id="line2d_100">
    <path clip-path="url(#p801b431614)" d="M 303.163868 430.111681 
L 304.607772 430.201991 
L 306.027967 430.471436 
L 307.401133 430.915593 
L 308.704724 431.527168 
L 309.917334 432.296121 
L 311.019053 433.209823 
L 311.991789 434.253273 
L 312.819571 435.409337 
L 313.488807 436.659032 
L 313.988508 437.981839 
L 314.310468 439.356037 
L 314.449402 440.759062 
L 314.403027 442.167875 
L 314.172106 443.559346 
L 313.760429 444.910624 
L 313.174758 446.199524 
L 312.424708 447.40488 
L 311.522595 448.506901 
L 310.483232 449.487492 
L 309.323685 450.330551 
L 308.062994 451.022236 
L 306.72186 451.551189 
L 305.322304 451.908725 
L 303.887306 452.088973 
L 302.440429 452.088973 
L 301.005431 451.908725 
L 299.605875 451.551189 
L 298.264741 451.022236 
L 297.00405 450.330551 
L 295.844503 449.487492 
L 294.80514 448.506901 
L 293.903028 447.40488 
L 293.152977 446.199524 
L 292.567306 444.910624 
L 292.15563 443.559346 
L 291.924708 442.167875 
L 291.878334 440.759062 
L 292.017267 439.356037 
L 292.339227 437.981839 
L 292.838928 436.659032 
L 293.508164 435.409337 
L 294.335946 434.253273 
L 295.308683 433.209823 
L 296.410401 432.296121 
L 297.623011 431.527168 
L 298.926602 430.915593 
L 300.299769 430.471436 
L 301.719964 430.201991 
L 303.163868 430.111681 
" style="fill:none;stroke:#808080;stroke-linecap:square;stroke-width:1.5;"/>
   </g>
   <g id="line2d_101">
    <path clip-path="url(#p801b431614)" d="M 412.78167 317.3425 
L 414.225574 317.43281 
L 415.645769 317.702255 
L 417.018936 318.146412 
L 418.322527 318.757987 
L 419.535137 319.52694 
L 420.636855 320.440642 
L 421.609592 321.484092 
L 422.437374 322.640156 
L 423.10661 323.889851 
L 423.60631 325.212658 
L 423.928271 326.586856 
L 424.067204 327.989881 
L 424.020829 329.398694 
L 423.789908 330.790165 
L 423.378232 332.141443 
L 422.79256 333.430343 
L 422.04251 334.635699 
L 421.140397 335.73772 
L 420.101034 336.718311 
L 418.941488 337.56137 
L 417.680797 338.253055 
L 416.339663 338.782008 
L 414.940106 339.139544 
L 413.505108 339.319792 
L 412.058232 339.319792 
L 410.623234 339.139544 
L 409.223677 338.782008 
L 407.882543 338.253055 
L 406.621852 337.56137 
L 405.462306 336.718311 
L 404.422943 335.73772 
L 403.52083 334.635699 
L 402.77078 333.430343 
L 402.185108 332.141443 
L 401.773432 330.790165 
L 401.542511 329.398694 
L 401.496136 327.989881 
L 401.635069 326.586856 
L 401.95703 325.212658 
L 402.45673 323.889851 
L 403.125966 322.640156 
L 403.953749 321.484092 
L 404.926485 320.440642 
L 406.028203 319.52694 
L 407.240814 318.757987 
L 408.544404 318.146412 
L 409.917571 317.702255 
L 411.337766 317.43281 
L 412.78167 317.3425 
" style="fill:none;stroke:#808080;stroke-linecap:square;stroke-width:1.5;"/>
   </g>
   <g id="line2d_102">
    <path clip-path="url(#p801b431614)" d="M 542.151431 232.686352 
L 543.595335 232.776662 
L 545.01553 233.046107 
L 546.388697 233.490264 
L 547.692288 234.10184 
L 548.904898 234.870792 
L 550.006616 235.784494 
L 550.979353 236.827944 
L 551.807135 237.984008 
L 552.476371 239.233703 
L 552.976072 240.55651 
L 553.298032 241.930708 
L 553.436965 243.333733 
L 553.390591 244.742547 
L 553.159669 246.134017 
L 552.747993 247.485295 
L 552.162321 248.774195 
L 551.412271 249.979551 
L 550.510159 251.081572 
L 549.470796 252.062163 
L 548.311249 252.905222 
L 547.050558 253.596907 
L 545.709424 254.12586 
L 544.309868 254.483396 
L 542.87487 254.663644 
L 541.427993 254.663644 
L 539.992995 254.483396 
L 538.593439 254.12586 
L 537.252305 253.596907 
L 535.991614 252.905222 
L 534.832067 252.062163 
L 533.792704 251.081572 
L 532.890591 249.979551 
L 532.140541 248.774195 
L 531.55487 247.485295 
L 531.143193 246.134017 
L 530.912272 244.742547 
L 530.865897 243.333733 
L 531.004831 241.930708 
L 531.326791 240.55651 
L 531.826492 239.233703 
L 532.495728 237.984008 
L 533.32351 236.827944 
L 534.296246 235.784494 
L 535.397965 234.870792 
L 536.610575 234.10184 
L 537.914166 233.490264 
L 539.287332 233.046107 
L 540.707527 232.776662 
L 542.151431 232.686352 
" style="fill:none;stroke:#808080;stroke-linecap:square;stroke-width:1.5;"/>
   </g>
   <g id="line2d_103">
    <path clip-path="url(#p801b431614)" d="M 594.376771 121.759962 
L 595.820675 121.850272 
L 597.24087 122.119717 
L 598.614037 122.563874 
L 599.917628 123.17545 
L 601.130238 123.944402 
L 602.231956 124.858104 
L 603.204693 125.901554 
L 604.032475 127.057618 
L 604.701711 128.307314 
L 605.201412 129.63012 
L 605.523372 131.004318 
L 605.662305 132.407343 
L 605.615931 133.816157 
L 605.385009 135.207627 
L 604.973333 136.558906 
L 604.387661 137.847805 
L 603.637611 139.053161 
L 602.735498 140.155182 
L 601.696136 141.135773 
L 600.536589 141.978833 
L 599.275898 142.670518 
L 597.934764 143.199471 
L 596.535207 143.557006 
L 595.10021 143.737254 
L 593.653333 143.737254 
L 592.218335 143.557006 
L 590.818779 143.199471 
L 589.477644 142.670518 
L 588.216954 141.978833 
L 587.057407 141.135773 
L 586.018044 140.155182 
L 585.115931 139.053161 
L 584.365881 137.847805 
L 583.78021 136.558906 
L 583.368533 135.207627 
L 583.137612 133.816157 
L 583.091237 132.407343 
L 583.230171 131.004318 
L 583.552131 129.63012 
L 584.051832 128.307314 
L 584.721068 127.057618 
L 585.54885 125.901554 
L 586.521586 124.858104 
L 587.623305 123.944402 
L 588.835915 123.17545 
L 590.139506 122.563874 
L 591.512672 122.119717 
L 592.932867 121.850272 
L 594.376771 121.759962 
" style="fill:none;stroke:#808080;stroke-linecap:square;stroke-width:1.5;"/>
   </g>
   <g id="line2d_104"/>
   <g id="line2d_105"/>
   <g id="line2d_106"/>
   <g id="line2d_107"/>
   <g id="line2d_108"/>
   <g id="line2d_109"/>
   <g id="line2d_110"/>
   <g id="line2d_111"/>
   <g id="line2d_112"/>
   <g id="line2d_113"/>
   <g id="line2d_114"/>
   <g id="line2d_115"/>
   <g id="line2d_116"/>
   <g id="line2d_117"/>
   <g id="line2d_118"/>
   <g id="line2d_119"/>
   <g id="line2d_120"/>
   <g id="line2d_121"/>
   <g id="line2d_122"/>
   <g id="line2d_123"/>
   <g id="line2d_124"/>
   <g id="line2d_125"/>
   <g id="line2d_126"/>
   <g id="line2d_127"/>
   <g id="line2d_128"/>
   <g id="line2d_129"/>
   <g id="line2d_130"/>
   <g id="line2d_131"/>
   <g id="line2d_132"/>
   <g id="line2d_133"/>
   <g id="line2d_134"/>
   <g id="line2d_135"/>
   <g id="line2d_136"/>
   <g id="line2d_137"/>
   <g id="line2d_138"/>
   <g id="line2d_139"/>
   <g id="line2d_140"/>
   <g id="line2d_141"/>
   <g id="line2d_142"/>
   <g id="line2d_143"/>
   <g id="line2d_144"/>
   <g id="line2d_145"/>
   <g id="line2d_146"/>
   <g id="line2d_147"/>
   <g id="line2d_148"/>
   <g id="line2d_149"/>
   <g id="line2d_150"/>
   <g id="line2d_151"/>
   <g id="line2d_152"/>
   <g id="line2d_153"/>
   <g id="line2d_154"/>
   <g id="patch_3">
    <path d="M 90 630 
L 90 86.4 
" style="fill:none;stroke:#000000;stroke-linecap:square;stroke-linejoin:miter;stroke-width:0.8;"/>
   </g>
   <g id="patch_4">
    <path d="M 648 630 
L 648 86.4 
" style="fill:none;stroke:#000000;stroke-linecap:square;stroke-linejoin:miter;stroke-width:0.8;"/>
   </g>
   <g id="patch_5">
    <path d="M 90 630 
L 648 630 
" style="fill:none;stroke:#000000;stroke-linecap:square;stroke-linejoin:miter;stroke-width:0.8;"/>
   </g>
   <g id="patch_6">
    <path d="M 90 86.4 
L 648 86.4 
" style="fill:none;stroke:#000000;stroke-linecap:square;stroke-linejoin:miter;stroke-width:0.8;"/>
   </g>
   <g id="text_15">
    <!-- 0 -->
    <g transform="translate(201.997261 374.227042)scale(0.1 -0.1)">
     <use xlink:href="#DejaVuSans-30"/>
    </g>
   </g>
   <g id="text_16">
    <!-- 0 -->
    <g transform="translate(201.997261 363.227096)scale(0.1 -0.1)">
     <use xlink:href="#DejaVuSans-30"/>
    </g>
   </g>
   <g id="text_17">
    <!-- 0 -->
    <g transform="translate(201.997261 352.22715)scale(0.1 -0.1)">
     <use xlink:href="#DejaVuSans-30"/>
    </g>
   </g>
  </g>
 </g>
 <defs>
  <clipPath id="p801b431614">
   <rect height="543.6" width="558" x="90" y="86.4"/>
  </clipPath>
 </defs>
</svg>
