<?xml version="1.0" encoding="utf-8" standalone="no"?>
<!DOCTYPE svg PUBLIC "-//W3C//DTD SVG 1.1//EN"
  "http://www.w3.org/Graphics/SVG/1.1/DTD/svg11.dtd">
<svg height="720pt" version="1.1" viewBox="0 0 720 720" width="720pt" xmlns="http://www.w3.org/2000/svg" xmlns:xlink="http://www.w3.org/1999/xlink">
 <metadata>
  <rdf:RDF xmlns:cc="http://creativecommons.org/ns#" xmlns:dc="http://purl.org/dc/elements/1.1/" xmlns:rdf="http://www.w3.org/1999/02/22-rdf-syntax-ns#">
   <cc:Work>
    <dc:type rdf:resource="http://purl.org/dc/dcmitype/StillImage"/>
    <dc:date>2022-01-11T13:25:58.383843</dc:date>
    <dc:format>image/svg+xml</dc:format>
    <dc:creator>
     <cc:Agent>
      <dc:title>Matplotlib v3.4.3, https://matplotlib.org/</dc:title>
     </cc:Agent>
    </dc:creator>
   </cc:Work>
  </rdf:RDF>
 </metadata>
 <defs>
  <style type="text/css">*{stroke-linecap:butt;stroke-linejoin:round;}</style>
 </defs>
 <g id="figure_1">
  <g id="patch_1">
   <path d="M 0 720 
L 720 720 
L 720 0 
L 0 0 
z
" style="fill:none;"/>
  </g>
  <g id="axes_1">
   <g id="patch_2">
    <path d="M 90 630 
L 648 630 
L 648 86.4 
L 90 86.4 
z
" style="fill:#ffffff;"/>
   </g>
   <g id="PathCollection_1">
    <defs>
     <path d="M 0.972304 -8.870829 
Q -1.277159 -8.870829 -2.413438 -6.653699 
Q -3.545098 -4.441189 -3.545098 0.006929 
Q -3.545098 4.436569 -2.413438 6.653699 
Q -1.277159 8.870829 0.972304 8.870829 
Q 3.240243 8.870829 4.371903 6.653699 
Q 5.508182 4.436569 5.508182 0.006929 
Q 5.508182 -4.441189 4.371903 -6.653699 
Q 3.240243 -8.870829 0.972304 -8.870829 
z
M 0.972304 -11.18034 
Q 4.598235 -11.18034 6.51051 -8.311928 
Q 8.422784 -5.448135 8.422784 0.006929 
Q 8.422784 5.448135 6.51051 8.316547 
Q 4.598235 11.18034 0.972304 11.18034 
Q -2.649008 11.18034 -4.561283 8.316547 
Q -6.473558 5.448135 -6.473558 0.006929 
Q -6.473558 -5.448135 -4.561283 -8.311928 
Q -2.649008 -11.18034 0.972304 -11.18034 
z
" id="ma261a6f625" style="stroke:#808080;"/>
    </defs>
    <g clip-path="url(#pe515c5e5c9)">
     <use style="fill:#808080;stroke:#808080;" x="317.436997" xlink:href="#ma261a6f625" y="256.477028"/>
    </g>
   </g>
   <g id="PathCollection_2">
    <defs>
     <path d="M -4.535873 8.63565 
L 0.404946 8.63565 
L 0.404946 -8.424791 
L -4.971969 -7.346533 
L -4.971969 -10.102082 
L 0.376192 -11.18034 
L 3.400108 -11.18034 
L 3.400108 8.63565 
L 8.340927 8.63565 
L 8.340927 11.18034 
L -4.535873 11.18034 
L -4.535873 8.63565 
z
" id="m29e29de3c6" style="stroke:#808080;"/>
    </defs>
    <g clip-path="url(#pe515c5e5c9)">
     <use style="fill:#808080;stroke:#808080;" x="193.000617" xlink:href="#m29e29de3c6" y="338.610365"/>
    </g>
   </g>
   <g id="PathCollection_3">
    <defs>
     <path d="M -2.294912 8.680651 
L 8.075736 8.680651 
L 8.075736 11.18034 
L -5.867913 11.18034 
L -5.867913 8.680651 
Q -4.177916 6.929457 -1.259259 3.982555 
Q 1.664105 1.030945 2.4126 0.174178 
Q 3.838976 -1.426376 4.403877 -2.537349 
Q 4.973486 -3.648321 4.973486 -4.721634 
Q 4.973486 -6.472828 3.744825 -7.574386 
Q 2.516165 -8.680651 0.543718 -8.680651 
Q -0.854413 -8.680651 -2.407892 -8.195778 
Q -3.956663 -7.710904 -5.72198 -6.722326 
L -5.72198 -9.725719 
Q -3.928418 -10.445968 -2.370232 -10.813154 
Q -0.807338 -11.18034 0.487227 -11.18034 
Q 3.900173 -11.18034 5.929111 -9.471513 
Q 7.958048 -7.767394 7.958048 -4.914642 
Q 7.958048 -3.558879 7.449637 -2.344341 
Q 6.945933 -1.13451 5.604292 0.513119 
Q 5.237107 0.941502 3.264659 2.979855 
Q 1.296919 5.018207 -2.294912 8.680651 
z
" id="m59dc8dae74" style="stroke:#808080;"/>
    </defs>
    <g clip-path="url(#pe515c5e5c9)">
     <use style="fill:#808080;stroke:#808080;" x="188.712828" xlink:href="#m59dc8dae74" y="467.499028"/>
    </g>
   </g>
   <g id="PathCollection_4">
    <defs>
     <path d="M 3.77605 -0.861447 
Q 5.868466 -0.413402 7.041697 1.004637 
Q 8.219548 2.418057 8.219548 4.496617 
Q 8.219548 7.683741 6.025513 9.43435 
Q 3.831478 11.18034 -0.210165 11.18034 
Q -1.563539 11.18034 -3.000054 10.912437 
Q -4.436569 10.644533 -5.965465 10.108727 
L -5.965465 7.295743 
Q -4.755282 8.002454 -3.314147 8.362737 
Q -1.868394 8.723021 -0.293308 8.723021 
Q 2.445772 8.723021 3.882287 7.64217 
Q 5.318802 6.561319 5.318802 4.496617 
Q 5.318802 2.588961 3.983905 1.517348 
Q 2.649008 0.441116 0.270213 0.441116 
L -2.242535 0.441116 
L -2.242535 -1.956155 
L 0.385688 -1.956155 
Q 2.533533 -1.956155 3.674431 -2.815293 
Q 4.815329 -3.674431 4.815329 -5.291088 
Q 4.815329 -6.949317 3.637479 -7.836169 
Q 2.464248 -8.72764 0.270213 -8.72764 
Q -0.930733 -8.72764 -2.302582 -8.464356 
Q -3.674431 -8.20569 -5.318802 -7.660646 
L -5.318802 -10.256536 
Q -3.655955 -10.718438 -2.205582 -10.949389 
Q -0.75521 -11.18034 0.528878 -11.18034 
Q 3.849954 -11.18034 5.780705 -9.66992 
Q 7.716074 -8.164119 7.716074 -5.595944 
Q 7.716074 -3.803764 6.690652 -2.570485 
Q 5.665229 -1.337207 3.77605 -0.861447 
z
" id="m3991d55b35" style="stroke:#808080;"/>
    </defs>
    <g clip-path="url(#pe515c5e5c9)">
     <use style="fill:#808080;stroke:#808080;" x="278.859391" xlink:href="#m3991d55b35" y="580.170609"/>
    </g>
   </g>
   <g id="PathCollection_5">
    <defs>
     <path d="M 2.695646 -8.544598 
L -4.943215 3.392919 
L 2.695646 3.392919 
L 2.695646 -8.544598 
z
M 1.900131 -11.18034 
L 5.705184 -11.18034 
L 5.705184 3.392919 
L 8.896829 3.392919 
L 8.896829 5.908855 
L 5.705184 5.908855 
L 5.705184 11.18034 
L 2.695646 11.18034 
L 2.695646 5.908855 
L -7.396852 5.908855 
L -7.396852 2.99037 
L 1.900131 -11.18034 
z
" id="mc3acd98a33" style="stroke:#808080;"/>
    </defs>
    <g clip-path="url(#pe515c5e5c9)">
     <use style="fill:#808080;stroke:#808080;" x="406.722772" xlink:href="#mc3acd98a33" y="579.4855"/>
    </g>
   </g>
   <g id="PathCollection_6">
    <defs>
     <path d="M -5.008473 -11.18034 
L 6.639575 -11.18034 
L 6.639575 -8.679629 
L -2.291535 -8.679629 
L -2.291535 -3.306861 
Q -1.647555 -3.527789 -1.003575 -3.635902 
Q -0.354894 -3.744015 0.293787 -3.744015 
Q 3.964943 -3.744015 6.108409 -1.732165 
Q 8.256576 0.279685 8.256576 3.715812 
Q 8.256576 7.255352 6.052002 9.220196 
Q 3.847428 11.18034 -0.16217 11.18034 
Q -1.544142 11.18034 -2.97782 10.945311 
Q -4.406798 10.710281 -5.934488 10.240223 
L -5.934488 7.255352 
Q -4.613624 7.974541 -3.203448 8.327085 
Q -1.793273 8.679629 -0.223278 8.679629 
Q 2.319738 8.679629 3.800422 7.344663 
Q 5.285807 6.009697 5.285807 3.715812 
Q 5.285807 1.426627 3.800422 0.091661 
Q 2.319738 -1.248005 -0.223278 -1.248005 
Q -1.412526 -1.248005 -2.597073 -0.984772 
Q -3.77692 -0.72154 -5.008473 -0.16217 
L -5.008473 -11.18034 
z
" id="m967ea57456" style="stroke:#808080;"/>
    </defs>
    <g clip-path="url(#pe515c5e5c9)">
     <use style="fill:#808080;stroke:#808080;" x="408.905001" xlink:href="#m967ea57456" y="576.348625"/>
    </g>
   </g>
   <g id="PathCollection_7">
    <defs>
     <path d="M 1.286397 -1.175541 
Q -0.676687 -1.175541 -1.826823 0.168594 
Q -2.97234 1.50811 -2.97234 3.845335 
Q -2.97234 6.168702 -1.826823 7.522075 
Q -0.676687 8.870829 1.286397 8.870829 
Q 3.249481 8.870829 4.394998 7.522075 
Q 5.540515 6.168702 5.540515 3.845335 
Q 5.540515 1.50811 4.394998 0.168594 
Q 3.249481 -1.175541 1.286397 -1.175541 
z
M 7.07403 -10.316583 
L 7.07403 -7.660646 
Q 5.974703 -8.177976 4.8569 -8.450499 
Q 3.739097 -8.72764 2.63977 -8.72764 
Q -0.247118 -8.72764 -1.771394 -6.778413 
Q -3.291052 -4.829186 -3.508146 -0.889162 
Q -2.658246 -2.145535 -1.374159 -2.815293 
Q -0.085452 -3.485051 1.457301 -3.485051 
Q 4.704473 -3.485051 6.589033 -1.512729 
Q 8.473594 0.454974 8.473594 3.845335 
Q 8.473594 7.166411 6.51051 9.175685 
Q 4.547426 11.18034 1.286397 11.18034 
Q -2.45501 11.18034 -4.43195 8.316547 
Q -6.408891 5.448135 -6.408891 0.006929 
Q -6.408891 -5.101708 -3.983905 -8.141024 
Q -1.55892 -11.18034 2.524295 -11.18034 
Q 3.623622 -11.18034 4.741425 -10.963246 
Q 5.859228 -10.746152 7.07403 -10.316583 
z
" id="m971cd70289" style="stroke:#808080;"/>
    </defs>
    <g clip-path="url(#pe515c5e5c9)">
     <use style="fill:#808080;stroke:#808080;" x="506.070854" xlink:href="#m971cd70289" y="497.383831"/>
    </g>
   </g>
   <g id="PathCollection_8">
    <defs>
     <path d="M -5.93042 -11.18034 
L 8.446356 -11.18034 
L 8.446356 -9.891222 
L 0.32827 11.18034 
L -2.829829 11.18034 
L 4.809032 -8.630858 
L -5.93042 -8.630858 
L -5.93042 -11.18034 
z
" id="m9d435389ed" style="stroke:#808080;"/>
    </defs>
    <g clip-path="url(#pe515c5e5c9)">
     <use style="fill:#808080;stroke:#808080;" x="611.926297" xlink:href="#m9d435389ed" y="429.125799"/>
    </g>
   </g>
   <g id="PathCollection_9">
    <defs>
     <path d="M 1.002328 0.524259 
Q -1.076232 0.524259 -2.267939 1.637443 
Q -3.455028 2.750627 -3.455028 4.695235 
Q -3.455028 6.644461 -2.267939 7.757645 
Q -1.076232 8.870829 1.002328 8.870829 
Q 3.080887 8.870829 4.277213 7.753026 
Q 5.478159 6.630604 5.478159 4.695235 
Q 5.478159 2.750627 4.286451 1.637443 
Q 3.099363 0.524259 1.002328 0.524259 
z
M -1.912275 -0.713639 
Q -3.787597 -1.175541 -4.836115 -2.459629 
Q -5.880014 -3.748335 -5.880014 -5.595944 
Q -5.880014 -8.177976 -4.041643 -9.679158 
Q -2.198654 -11.18034 1.002328 -11.18034 
Q 4.221785 -11.18034 6.055536 -9.679158 
Q 7.889288 -8.177976 7.889288 -5.595944 
Q 7.889288 -3.748335 6.84077 -2.459629 
Q 5.796871 -1.175541 3.935406 -0.713639 
Q 6.041679 -0.224023 7.214911 1.207874 
Q 8.392761 2.635151 8.392761 4.695235 
Q 8.392761 7.83155 6.480486 9.508254 
Q 4.568212 11.18034 1.002328 11.18034 
Q -2.558938 11.18034 -4.475831 9.508254 
Q -6.388106 7.83155 -6.388106 4.695235 
Q -6.388106 2.635151 -5.205636 1.207874 
Q -4.018548 -0.224023 -1.912275 -0.713639 
z
M -2.979268 -5.318802 
Q -2.979268 -3.646717 -1.93537 -2.709056 
Q -0.886852 -1.771394 1.002328 -1.771394 
Q 2.882269 -1.771394 3.940025 -2.709056 
Q 5.0024 -3.646717 5.0024 -5.318802 
Q 5.0024 -6.995507 3.940025 -7.933168 
Q 2.882269 -8.870829 1.002328 -8.870829 
Q -0.886852 -8.870829 -1.93537 -7.933168 
Q -2.979268 -6.995507 -2.979268 -5.318802 
z
" id="m105b6451ba" style="stroke:#808080;"/>
    </defs>
    <g clip-path="url(#pe515c5e5c9)">
     <use style="fill:#808080;stroke:#808080;" x="599.735774" xlink:href="#m105b6451ba" y="315.235597"/>
    </g>
   </g>
   <g id="PathCollection_10">
    <defs>
     <path d="M -5.117875 10.311964 
L -5.117875 7.656027 
Q -4.018548 8.177976 -2.896126 8.450499 
Q -1.769085 8.723021 -0.683615 8.723021 
Q 2.203273 8.723021 3.722931 6.783032 
Q 5.247208 4.843043 5.464302 0.884542 
Q 4.628259 2.127059 3.339552 2.792198 
Q 2.055464 3.457337 0.498854 3.457337 
Q -2.73446 3.457337 -4.619021 1.503491 
Q -6.503581 -0.454974 -6.503581 -3.849954 
Q -6.503581 -7.166411 -4.540497 -9.171066 
Q -2.577414 -11.18034 0.683615 -11.18034 
Q 4.425022 -11.18034 6.392725 -8.311928 
Q 8.365047 -5.448135 8.365047 0.006929 
Q 8.365047 5.101708 5.94468 8.141024 
Q 3.528932 11.18034 -0.554282 11.18034 
Q -1.653609 11.18034 -2.780651 10.963246 
Q -3.903073 10.746152 -5.117875 10.311964 
z
M 0.683615 1.175541 
Q 2.646699 1.175541 3.792216 -0.163975 
Q 4.942352 -1.50811 4.942352 -3.849954 
Q 4.942352 -6.173321 3.792216 -7.522075 
Q 2.646699 -8.870829 0.683615 -8.870829 
Q -1.279469 -8.870829 -2.424986 -7.522075 
Q -3.570503 -6.173321 -3.570503 -3.849954 
Q -3.570503 -1.50811 -2.424986 -0.163975 
Q -1.279469 1.175541 0.683615 1.175541 
z
" id="m9de1009d66" style="stroke:#808080;"/>
    </defs>
    <g clip-path="url(#pe515c5e5c9)">
     <use style="fill:#808080;stroke:#808080;" x="599.735774" xlink:href="#m9de1009d66" y="315.235597"/>
    </g>
   </g>
   <g id="PathCollection_11">
    <defs>
     <path d="M -8.880215 5.210045 
L -5.893528 5.210045 
L -5.893528 -5.10286 
L -9.143831 -4.451061 
L -9.143831 -6.116769 
L -5.910909 -6.768568 
L -4.082976 -6.768568 
L -4.082976 5.210045 
L -1.096289 5.210045 
L -1.096289 6.74829 
L -8.880215 6.74829 
L -8.880215 5.210045 
z
M 6.507667 -5.563464 
Q 5.096885 -5.563464 4.384252 -4.17296 
Q 3.674515 -2.785353 3.674515 0.004345 
Q 3.674515 2.782456 4.384252 4.17296 
Q 5.096885 5.563464 6.507667 5.563464 
Q 7.930037 5.563464 8.639773 4.17296 
Q 9.352407 2.782456 9.352407 0.004345 
Q 9.352407 -2.785353 8.639773 -4.17296 
Q 7.930037 -5.563464 6.507667 -5.563464 
z
M 6.507667 -7.011906 
Q 8.781721 -7.011906 9.98103 -5.212941 
Q 11.18034 -3.416874 11.18034 0.004345 
Q 11.18034 3.416874 9.98103 5.215838 
Q 8.781721 7.011906 6.507667 7.011906 
Q 4.236511 7.011906 3.037201 5.215838 
Q 1.837891 3.416874 1.837891 0.004345 
Q 1.837891 -3.416874 3.037201 -5.212941 
Q 4.236511 -7.011906 6.507667 -7.011906 
z
" id="m02a0e98a25" style="stroke:#808080;"/>
    </defs>
    <g clip-path="url(#pe515c5e5c9)">
     <use style="fill:#808080;stroke:#808080;" x="429.469866" xlink:href="#m02a0e98a25" y="162.106954"/>
    </g>
   </g>
   <g id="PathCollection_12"/>
   <g id="PathCollection_13"/>
   <g id="PathCollection_14"/>
   <g id="PathCollection_15"/>
   <g id="PathCollection_16"/>
   <g id="matplotlib.axis_1">
    <g id="xtick_1">
     <g id="line2d_1">
      <defs>
       <path d="M 0 0 
L 0 3.5 
" id="m843df57832" style="stroke:#000000;stroke-width:0.8;"/>
      </defs>
      <g>
       <use style="stroke:#000000;stroke-width:0.8;" x="125.255831" xlink:href="#m843df57832" y="630"/>
      </g>
     </g>
     <g id="text_1">
      <!-- −300 -->
      <g transform="translate(111.522237 644.598438)scale(0.1 -0.1)">
       <defs>
        <path d="M 678 2272 
L 4684 2272 
L 4684 1741 
L 678 1741 
L 678 2272 
z
" id="DejaVuSans-2212" transform="scale(0.015625)"/>
        <path d="M 2597 2516 
Q 3050 2419 3304 2112 
Q 3559 1806 3559 1356 
Q 3559 666 3084 287 
Q 2609 -91 1734 -91 
Q 1441 -91 1130 -33 
Q 819 25 488 141 
L 488 750 
Q 750 597 1062 519 
Q 1375 441 1716 441 
Q 2309 441 2620 675 
Q 2931 909 2931 1356 
Q 2931 1769 2642 2001 
Q 2353 2234 1838 2234 
L 1294 2234 
L 1294 2753 
L 1863 2753 
Q 2328 2753 2575 2939 
Q 2822 3125 2822 3475 
Q 2822 3834 2567 4026 
Q 2313 4219 1838 4219 
Q 1578 4219 1281 4162 
Q 984 4106 628 3988 
L 628 4550 
Q 988 4650 1302 4700 
Q 1616 4750 1894 4750 
Q 2613 4750 3031 4423 
Q 3450 4097 3450 3541 
Q 3450 3153 3228 2886 
Q 3006 2619 2597 2516 
z
" id="DejaVuSans-33" transform="scale(0.015625)"/>
        <path d="M 2034 4250 
Q 1547 4250 1301 3770 
Q 1056 3291 1056 2328 
Q 1056 1369 1301 889 
Q 1547 409 2034 409 
Q 2525 409 2770 889 
Q 3016 1369 3016 2328 
Q 3016 3291 2770 3770 
Q 2525 4250 2034 4250 
z
M 2034 4750 
Q 2819 4750 3233 4129 
Q 3647 3509 3647 2328 
Q 3647 1150 3233 529 
Q 2819 -91 2034 -91 
Q 1250 -91 836 529 
Q 422 1150 422 2328 
Q 422 3509 836 4129 
Q 1250 4750 2034 4750 
z
" id="DejaVuSans-30" transform="scale(0.015625)"/>
       </defs>
       <use xlink:href="#DejaVuSans-2212"/>
       <use x="83.789062" xlink:href="#DejaVuSans-33"/>
       <use x="147.412109" xlink:href="#DejaVuSans-30"/>
       <use x="211.035156" xlink:href="#DejaVuSans-30"/>
      </g>
     </g>
    </g>
    <g id="xtick_2">
     <g id="line2d_2">
      <g>
       <use style="stroke:#000000;stroke-width:0.8;" x="202.088227" xlink:href="#m843df57832" y="630"/>
      </g>
     </g>
     <g id="text_2">
      <!-- −200 -->
      <g transform="translate(188.354634 644.598438)scale(0.1 -0.1)">
       <defs>
        <path d="M 1228 531 
L 3431 531 
L 3431 0 
L 469 0 
L 469 531 
Q 828 903 1448 1529 
Q 2069 2156 2228 2338 
Q 2531 2678 2651 2914 
Q 2772 3150 2772 3378 
Q 2772 3750 2511 3984 
Q 2250 4219 1831 4219 
Q 1534 4219 1204 4116 
Q 875 4013 500 3803 
L 500 4441 
Q 881 4594 1212 4672 
Q 1544 4750 1819 4750 
Q 2544 4750 2975 4387 
Q 3406 4025 3406 3419 
Q 3406 3131 3298 2873 
Q 3191 2616 2906 2266 
Q 2828 2175 2409 1742 
Q 1991 1309 1228 531 
z
" id="DejaVuSans-32" transform="scale(0.015625)"/>
       </defs>
       <use xlink:href="#DejaVuSans-2212"/>
       <use x="83.789062" xlink:href="#DejaVuSans-32"/>
       <use x="147.412109" xlink:href="#DejaVuSans-30"/>
       <use x="211.035156" xlink:href="#DejaVuSans-30"/>
      </g>
     </g>
    </g>
    <g id="xtick_3">
     <g id="line2d_3">
      <g>
       <use style="stroke:#000000;stroke-width:0.8;" x="278.920624" xlink:href="#m843df57832" y="630"/>
      </g>
     </g>
     <g id="text_3">
      <!-- −100 -->
      <g transform="translate(265.18703 644.598438)scale(0.1 -0.1)">
       <defs>
        <path d="M 794 531 
L 1825 531 
L 1825 4091 
L 703 3866 
L 703 4441 
L 1819 4666 
L 2450 4666 
L 2450 531 
L 3481 531 
L 3481 0 
L 794 0 
L 794 531 
z
" id="DejaVuSans-31" transform="scale(0.015625)"/>
       </defs>
       <use xlink:href="#DejaVuSans-2212"/>
       <use x="83.789062" xlink:href="#DejaVuSans-31"/>
       <use x="147.412109" xlink:href="#DejaVuSans-30"/>
       <use x="211.035156" xlink:href="#DejaVuSans-30"/>
      </g>
     </g>
    </g>
    <g id="xtick_4">
     <g id="line2d_4">
      <g>
       <use style="stroke:#000000;stroke-width:0.8;" x="355.75302" xlink:href="#m843df57832" y="630"/>
      </g>
     </g>
     <g id="text_4">
      <!-- 0 -->
      <g transform="translate(352.57177 644.598438)scale(0.1 -0.1)">
       <use xlink:href="#DejaVuSans-30"/>
      </g>
     </g>
    </g>
    <g id="xtick_5">
     <g id="line2d_5">
      <g>
       <use style="stroke:#000000;stroke-width:0.8;" x="432.585416" xlink:href="#m843df57832" y="630"/>
      </g>
     </g>
     <g id="text_5">
      <!-- 100 -->
      <g transform="translate(423.041666 644.598438)scale(0.1 -0.1)">
       <use xlink:href="#DejaVuSans-31"/>
       <use x="63.623047" xlink:href="#DejaVuSans-30"/>
       <use x="127.246094" xlink:href="#DejaVuSans-30"/>
      </g>
     </g>
    </g>
    <g id="xtick_6">
     <g id="line2d_6">
      <g>
       <use style="stroke:#000000;stroke-width:0.8;" x="509.417813" xlink:href="#m843df57832" y="630"/>
      </g>
     </g>
     <g id="text_6">
      <!-- 200 -->
      <g transform="translate(499.874063 644.598438)scale(0.1 -0.1)">
       <use xlink:href="#DejaVuSans-32"/>
       <use x="63.623047" xlink:href="#DejaVuSans-30"/>
       <use x="127.246094" xlink:href="#DejaVuSans-30"/>
      </g>
     </g>
    </g>
    <g id="xtick_7">
     <g id="line2d_7">
      <g>
       <use style="stroke:#000000;stroke-width:0.8;" x="586.250209" xlink:href="#m843df57832" y="630"/>
      </g>
     </g>
     <g id="text_7">
      <!-- 300 -->
      <g transform="translate(576.706459 644.598438)scale(0.1 -0.1)">
       <use xlink:href="#DejaVuSans-33"/>
       <use x="63.623047" xlink:href="#DejaVuSans-30"/>
       <use x="127.246094" xlink:href="#DejaVuSans-30"/>
      </g>
     </g>
    </g>
   </g>
   <g id="matplotlib.axis_2">
    <g id="ytick_1">
     <g id="line2d_8">
      <defs>
       <path d="M 0 0 
L -3.5 0 
" id="m4b1ae89644" style="stroke:#000000;stroke-width:0.8;"/>
      </defs>
      <g>
       <use style="stroke:#000000;stroke-width:0.8;" x="90" xlink:href="#m4b1ae89644" y="595.653997"/>
      </g>
     </g>
     <g id="text_8">
      <!-- −300 -->
      <g transform="translate(55.532812 599.453216)scale(0.1 -0.1)">
       <use xlink:href="#DejaVuSans-2212"/>
       <use x="83.789062" xlink:href="#DejaVuSans-33"/>
       <use x="147.412109" xlink:href="#DejaVuSans-30"/>
       <use x="211.035156" xlink:href="#DejaVuSans-30"/>
      </g>
     </g>
    </g>
    <g id="ytick_2">
     <g id="line2d_9">
      <g>
       <use style="stroke:#000000;stroke-width:0.8;" x="90" xlink:href="#m4b1ae89644" y="520.804372"/>
      </g>
     </g>
     <g id="text_9">
      <!-- −200 -->
      <g transform="translate(55.532812 524.603591)scale(0.1 -0.1)">
       <use xlink:href="#DejaVuSans-2212"/>
       <use x="83.789062" xlink:href="#DejaVuSans-32"/>
       <use x="147.412109" xlink:href="#DejaVuSans-30"/>
       <use x="211.035156" xlink:href="#DejaVuSans-30"/>
      </g>
     </g>
    </g>
    <g id="ytick_3">
     <g id="line2d_10">
      <g>
       <use style="stroke:#000000;stroke-width:0.8;" x="90" xlink:href="#m4b1ae89644" y="445.954747"/>
      </g>
     </g>
     <g id="text_10">
      <!-- −100 -->
      <g transform="translate(55.532812 449.753966)scale(0.1 -0.1)">
       <use xlink:href="#DejaVuSans-2212"/>
       <use x="83.789062" xlink:href="#DejaVuSans-31"/>
       <use x="147.412109" xlink:href="#DejaVuSans-30"/>
       <use x="211.035156" xlink:href="#DejaVuSans-30"/>
      </g>
     </g>
    </g>
    <g id="ytick_4">
     <g id="line2d_11">
      <g>
       <use style="stroke:#000000;stroke-width:0.8;" x="90" xlink:href="#m4b1ae89644" y="371.105122"/>
      </g>
     </g>
     <g id="text_11">
      <!-- 0 -->
      <g transform="translate(76.6375 374.904341)scale(0.1 -0.1)">
       <use xlink:href="#DejaVuSans-30"/>
      </g>
     </g>
    </g>
    <g id="ytick_5">
     <g id="line2d_12">
      <g>
       <use style="stroke:#000000;stroke-width:0.8;" x="90" xlink:href="#m4b1ae89644" y="296.255498"/>
      </g>
     </g>
     <g id="text_12">
      <!-- 100 -->
      <g transform="translate(63.9125 300.054716)scale(0.1 -0.1)">
       <use xlink:href="#DejaVuSans-31"/>
       <use x="63.623047" xlink:href="#DejaVuSans-30"/>
       <use x="127.246094" xlink:href="#DejaVuSans-30"/>
      </g>
     </g>
    </g>
    <g id="ytick_6">
     <g id="line2d_13">
      <g>
       <use style="stroke:#000000;stroke-width:0.8;" x="90" xlink:href="#m4b1ae89644" y="221.405873"/>
      </g>
     </g>
     <g id="text_13">
      <!-- 200 -->
      <g transform="translate(63.9125 225.205091)scale(0.1 -0.1)">
       <use xlink:href="#DejaVuSans-32"/>
       <use x="63.623047" xlink:href="#DejaVuSans-30"/>
       <use x="127.246094" xlink:href="#DejaVuSans-30"/>
      </g>
     </g>
    </g>
    <g id="ytick_7">
     <g id="line2d_14">
      <g>
       <use style="stroke:#000000;stroke-width:0.8;" x="90" xlink:href="#m4b1ae89644" y="146.556248"/>
      </g>
     </g>
     <g id="text_14">
      <!-- 300 -->
      <g transform="translate(63.9125 150.355467)scale(0.1 -0.1)">
       <use xlink:href="#DejaVuSans-33"/>
       <use x="63.623047" xlink:href="#DejaVuSans-30"/>
       <use x="127.246094" xlink:href="#DejaVuSans-30"/>
      </g>
     </g>
    </g>
   </g>
   <g id="line2d_15">
    <path clip-path="url(#pe515c5e5c9)" d="M 429.469866 162.106954 
L 425.5784 161.776315 
L 421.674939 161.637898 
L 417.770098 161.712364 
L 413.877887 162.019623 
L 410.015691 162.577059 
L 406.203653 163.397411 
L 402.463315 164.486718 
L 398.815628 165.842868 
L 395.278706 167.45529 
L 391.865903 169.30598 
L 388.58471 171.371602 
L 385.436678 173.626035 
L 382.418183 176.042747 
L 379.521672 178.596559 
L 376.737007 181.264706 
L 374.05265 184.027276 
L 371.456572 186.867225 
L 368.936883 189.770155 
L 366.482225 192.723973 
L 364.081989 195.718534 
L 361.726405 198.745302 
L 359.406565 201.797055 
L 357.114389 204.867634 
L 354.84258 207.951742 
L 352.584555 211.044774 
L 350.334384 214.142686 
L 348.086725 217.241889 
L 345.836762 220.339163 
L 343.580157 223.431588 
L 341.312999 226.516495 
L 339.031766 229.591418 
L 336.733281 232.654062 
L 334.414689 235.702275 
L 332.073422 238.734029 
L 329.70718 241.747399 
L 327.313907 244.740551 
L 324.891774 247.711735 
L 322.439162 250.659273 
L 319.954649 253.581553 
L 317.436997 256.477028 
" style="fill:none;stroke:#808080;stroke-linecap:square;stroke-width:1.5;"/>
   </g>
   <g id="line2d_16">
    <path clip-path="url(#pe515c5e5c9)" d="M 317.436997 256.477028 
L 317.436997 161.637898 
L 429.469866 161.637898 
L 429.469866 256.477028 
L 317.436997 256.477028 
" style="fill:none;stroke:#d3d3d3;stroke-linecap:square;stroke-width:0.5;"/>
   </g>
   <g id="line2d_17">
    <path clip-path="url(#pe515c5e5c9)" d="M 317.436997 256.477028 
L 314.885139 259.34421 
L 312.298172 262.18167 
L 309.675344 264.988036 
L 307.016049 267.761991 
L 304.319817 270.502277 
L 301.586305 273.207692 
L 298.815292 275.877093 
L 296.006672 278.509393 
L 293.160444 281.103569 
L 290.276709 283.658655 
L 287.355664 286.173749 
L 284.397591 288.648011 
L 281.402854 291.080664 
L 278.371894 293.470993 
L 275.305219 295.818351 
L 272.2034 298.12215 
L 269.067069 300.381869 
L 265.896905 302.597049 
L 262.693635 304.767293 
L 259.458028 306.892265 
L 256.190886 308.971691 
L 252.893043 311.005354 
L 249.565356 312.993094 
L 246.208707 314.934809 
L 242.82399 316.830446 
L 239.412115 318.680008 
L 235.973998 320.483543 
L 232.51056 322.241147 
L 229.022724 323.952962 
L 225.511411 325.61917 
L 221.977536 327.239992 
L 218.422008 328.815688 
L 214.845724 330.34655 
L 211.249569 331.832905 
L 207.634415 333.275106 
L 204.001116 334.673534 
L 200.350509 336.028598 
L 196.683411 337.340725 
L 193.000617 338.610365 
" style="fill:none;stroke:#808080;stroke-linecap:square;stroke-width:1.5;"/>
   </g>
   <g id="line2d_18">
    <path clip-path="url(#pe515c5e5c9)" d="M 193.000617 338.610365 
L 193.000617 256.477028 
L 317.436997 256.477028 
L 317.436997 338.610365 
L 193.000617 338.610365 
" style="fill:none;stroke:#d3d3d3;stroke-linecap:square;stroke-width:0.5;"/>
   </g>
   <g id="line2d_19">
    <path clip-path="url(#pe515c5e5c9)" d="M 193.000617 338.610365 
L 189.390101 340.017126 
L 185.937043 341.75821 
L 182.686095 343.835718 
L 179.679871 346.237981 
L 176.953607 348.93944 
L 174.53083 351.903446 
L 172.421468 355.087154 
L 170.622759 358.446829 
L 169.122132 361.942018 
L 167.900771 365.537935 
L 166.936816 369.206184 
L 166.207735 372.924408 
L 165.691824 376.675414 
L 165.369007 380.446163 
L 165.221166 384.22684 
L 165.232189 388.010077 
L 165.387863 391.790342 
L 165.675698 395.563471 
L 166.084734 399.326323 
L 166.60534 403.076524 
L 167.229043 406.812272 
L 167.94837 410.5322 
L 168.756711 414.23527 
L 169.648198 417.920697 
L 170.617613 421.58789 
L 171.660298 425.236403 
L 172.772082 428.865908 
L 173.949225 432.476163 
L 175.188361 436.066995 
L 176.486454 439.638282 
L 177.840763 443.18994 
L 179.248806 446.721913 
L 180.708333 450.234167 
L 182.2173 453.726679 
L 183.77385 457.199434 
L 185.376291 460.65242 
L 187.023085 464.085624 
L 188.712828 467.499028 
" style="fill:none;stroke:#808080;stroke-linecap:square;stroke-width:1.5;"/>
   </g>
   <g id="line2d_20">
    <path clip-path="url(#pe515c5e5c9)" d="M 165.221166 467.499028 
L 165.221166 338.610365 
L 193.000617 338.610365 
L 193.000617 467.499028 
L 165.221166 467.499028 
" style="fill:none;stroke:#d3d3d3;stroke-linecap:square;stroke-width:0.5;"/>
   </g>
   <g id="line2d_21">
    <path clip-path="url(#pe515c5e5c9)" d="M 188.712828 467.499028 
L 190.444242 470.892606 
L 192.216161 474.266325 
L 194.027523 477.620136 
L 195.877362 480.953977 
L 197.764798 484.267772 
L 199.689032 487.561426 
L 201.64934 490.834823 
L 203.645069 494.087829 
L 205.675629 497.320286 
L 207.740492 500.532014 
L 209.839186 503.722808 
L 211.971296 506.892434 
L 214.136457 510.040632 
L 216.334353 513.167113 
L 218.564714 516.271555 
L 220.827319 519.353605 
L 223.121989 522.412873 
L 225.448588 525.448935 
L 227.807023 528.461323 
L 230.197242 531.449532 
L 232.619238 534.413011 
L 235.07304 537.35116 
L 237.558724 540.263329 
L 240.076406 543.148815 
L 242.626244 546.006855 
L 245.208441 548.83662 
L 247.823247 551.637216 
L 250.470955 554.407672 
L 253.151908 557.146936 
L 255.8665 559.853867 
L 258.615173 562.527224 
L 261.398427 565.165659 
L 264.216816 567.767706 
L 267.070953 570.331766 
L 269.96151 572.856091 
L 272.889225 575.33877 
L 275.854896 577.77771 
L 278.859391 580.170609 
" style="fill:none;stroke:#808080;stroke-linecap:square;stroke-width:1.5;"/>
   </g>
   <g id="line2d_22">
    <path clip-path="url(#pe515c5e5c9)" d="M 188.712828 580.170609 
L 188.712828 467.499028 
L 278.859391 467.499028 
L 278.859391 580.170609 
L 188.712828 580.170609 
" style="fill:none;stroke:#d3d3d3;stroke-linecap:square;stroke-width:0.5;"/>
   </g>
   <g id="line2d_23">
    <path clip-path="url(#pe515c5e5c9)" d="M 278.859391 580.170609 
L 281.90364 582.514934 
L 284.98864 584.80789 
L 288.115449 587.046385 
L 291.285181 589.226993 
L 294.498998 591.345904 
L 297.758095 593.398876 
L 301.063679 595.381176 
L 304.416941 597.287511 
L 307.819013 599.111956 
L 311.270909 600.847872 
L 314.773454 602.487821 
L 318.327177 604.023479 
L 321.932181 605.445551 
L 325.587973 606.743705 
L 329.293259 607.906529 
L 333.045688 608.921539 
L 336.84157 609.775265 
L 340.67556 610.45344 
L 344.54036 610.941336 
L 348.426463 611.224259 
L 352.322017 611.288238 
L 356.212869 611.120856 
L 360.082861 610.712178 
L 363.914404 610.055647 
L 367.689307 609.148807 
L 371.38977 607.993701 
L 374.999412 606.59686 
L 378.504144 604.968868 
L 381.892795 603.12358 
L 385.157395 601.077146 
L 388.29315 598.846991 
L 391.298156 596.450899 
L 394.172963 593.906265 
L 396.920062 591.229571 
L 399.543388 588.436048 
L 402.047869 585.539517 
L 404.439045 582.552347 
L 406.722772 579.4855 
" style="fill:none;stroke:#808080;stroke-linecap:square;stroke-width:1.5;"/>
   </g>
   <g id="line2d_24">
    <path clip-path="url(#pe515c5e5c9)" d="M 278.859391 611.288238 
L 278.859391 579.4855 
L 406.722772 579.4855 
L 406.722772 611.288238 
L 278.859391 611.288238 
" style="fill:none;stroke:#d3d3d3;stroke-linecap:square;stroke-width:0.5;"/>
   </g>
   <g id="line2d_25">
    <path clip-path="url(#pe515c5e5c9)" d="M 406.722772 579.4855 
L 408.905001 576.348625 
" style="fill:none;stroke:#808080;stroke-linecap:square;stroke-width:1.5;"/>
   </g>
   <g id="line2d_26">
    <path clip-path="url(#pe515c5e5c9)" d="M 406.722772 579.4855 
L 406.722772 576.348625 
L 408.905001 576.348625 
L 408.905001 579.4855 
L 406.722772 579.4855 
" style="fill:none;stroke:#d3d3d3;stroke-linecap:square;stroke-width:0.5;"/>
   </g>
   <g id="line2d_27">
    <path clip-path="url(#pe515c5e5c9)" d="M 408.905001 576.348625 
L 411.071444 573.227427 
L 413.32469 570.165112 
L 415.659288 567.161201 
L 418.070041 564.214951 
L 420.552018 561.325405 
L 423.100562 558.491424 
L 425.711289 555.711729 
L 428.380086 552.984924 
L 431.103099 550.309527 
L 433.876727 547.683993 
L 436.697607 545.106728 
L 439.562601 542.576111 
L 442.468783 540.090501 
L 445.413425 537.648252 
L 448.393982 535.247718 
L 451.40808 532.887262 
L 454.453503 530.565257 
L 457.528177 528.280094 
L 460.630165 526.030181 
L 463.757648 523.813946 
L 466.908919 521.629836 
L 470.082374 519.47632 
L 473.276498 517.351884 
L 476.48986 515.255031 
L 479.721103 513.184283 
L 482.968939 511.138174 
L 486.232137 509.115249 
L 489.50952 507.114063 
L 492.799955 505.133175 
L 496.102352 503.17115 
L 499.415651 501.226548 
L 502.738821 499.297926 
L 506.070854 497.383831 
" style="fill:none;stroke:#808080;stroke-linecap:square;stroke-width:1.5;"/>
   </g>
   <g id="line2d_28">
    <path clip-path="url(#pe515c5e5c9)" d="M 408.905001 576.348625 
L 408.905001 497.383831 
L 506.070854 497.383831 
L 506.070854 576.348625 
L 408.905001 576.348625 
" style="fill:none;stroke:#d3d3d3;stroke-linecap:square;stroke-width:0.5;"/>
   </g>
   <g id="line2d_29">
    <path clip-path="url(#pe515c5e5c9)" d="M 506.070854 497.383831 
L 509.410757 495.482798 
L 512.757548 493.593342 
L 516.110248 491.713955 
L 519.46788 489.843102 
L 522.829457 487.979211 
L 526.193981 486.12067 
L 529.560431 484.265818 
L 532.927759 482.412941 
L 536.294885 480.560257 
L 539.660681 478.705916 
L 543.023966 476.847981 
L 546.383496 474.984425 
L 549.73795 473.113115 
L 553.085914 471.231798 
L 556.425871 469.338091 
L 559.756175 467.429461 
L 563.075036 465.50321 
L 566.380488 463.556455 
L 569.670366 461.586109 
L 572.942266 459.588858 
L 576.193502 457.561137 
L 579.421063 455.499105 
L 582.621545 453.398622 
L 585.791088 451.255223 
L 588.925288 449.064096 
L 592.019103 446.820068 
L 595.066732 444.517592 
L 598.06149 442.150758 
L 600.995653 439.71332 
L 603.860294 437.19876 
L 606.645115 434.600393 
L 609.338283 431.911545 
L 611.926297 429.125799 
" style="fill:none;stroke:#808080;stroke-linecap:square;stroke-width:1.5;"/>
   </g>
   <g id="line2d_30">
    <path clip-path="url(#pe515c5e5c9)" d="M 506.070854 497.383831 
L 506.070854 429.125799 
L 611.926297 429.125799 
L 611.926297 497.383831 
L 506.070854 497.383831 
" style="fill:none;stroke:#d3d3d3;stroke-linecap:square;stroke-width:0.5;"/>
   </g>
   <g id="line2d_31">
    <path clip-path="url(#pe515c5e5c9)" d="M 611.926297 429.125799 
L 614.393926 426.237357 
L 616.724271 423.241492 
L 618.899009 420.135116 
L 620.898893 416.917399 
L 622.704552 413.590384 
L 624.297588 410.159466 
L 625.66189 406.633596 
L 626.784978 403.025098 
L 627.659131 399.349027 
L 628.282061 395.622158 
L 628.656967 391.861756 
L 628.791991 388.08438 
L 628.699215 384.304912 
L 628.393434 380.535939 
L 627.890949 376.787506 
L 627.208522 373.067161 
L 626.362584 369.380209 
L 625.368703 365.730064 
L 624.241279 362.118623 
L 622.993399 358.546629 
L 621.636821 355.01397 
L 620.182029 351.519934 
L 618.638325 348.063407 
L 617.013946 344.643022 
L 615.31618 341.25727 
L 613.551483 337.904579 
L 611.725584 334.583372 
L 609.84358 331.292103 
L 607.910018 328.029288 
L 605.928971 324.793515 
L 603.904098 321.583454 
L 601.838702 318.397865 
L 599.735774 315.235597 
" style="fill:none;stroke:#808080;stroke-linecap:square;stroke-width:1.5;"/>
   </g>
   <g id="line2d_32">
    <path clip-path="url(#pe515c5e5c9)" d="M 599.735774 429.125799 
L 599.735774 315.235597 
L 628.791991 315.235597 
L 628.791991 429.125799 
L 599.735774 429.125799 
" style="fill:none;stroke:#d3d3d3;stroke-linecap:square;stroke-width:0.5;"/>
   </g>
   <g id="line2d_33">
    <path clip-path="url(#pe515c5e5c9)" d="M 599.735774 315.235597 
" style="fill:none;stroke:#808080;stroke-linecap:square;stroke-width:1.5;"/>
   </g>
   <g id="line2d_34">
    <path clip-path="url(#pe515c5e5c9)" d="M 599.735774 315.235597 
L 599.735774 315.235597 
L 599.735774 315.235597 
L 599.735774 315.235597 
L 599.735774 315.235597 
" style="fill:none;stroke:#d3d3d3;stroke-linecap:square;stroke-width:0.5;"/>
   </g>
   <g id="line2d_35">
    <path clip-path="url(#pe515c5e5c9)" d="M 599.735774 315.235597 
L 597.593662 312.067599 
L 595.437612 308.908562 
L 593.267446 305.758683 
L 591.082981 302.618173 
L 588.884026 299.48725 
L 586.670382 296.366145 
L 584.441844 293.255099 
L 582.198197 290.154365 
L 579.939216 287.06421 
L 577.664671 283.984915 
L 575.374317 280.916774 
L 573.067905 277.860097 
L 570.74517 274.815212 
L 568.40584 271.782463 
L 566.049629 268.762214 
L 563.676239 265.754848 
L 561.285361 262.760771 
L 558.876669 259.78041 
L 556.449826 256.81422 
L 554.004476 253.862679 
L 551.54025 250.926295 
L 549.056759 248.005607 
L 546.553597 245.101187 
L 544.030336 242.21364 
L 541.486531 239.343614 
L 538.92171 236.491794 
L 536.335379 233.658912 
L 533.727018 230.84575 
L 531.096079 228.053142 
L 528.441982 225.281979 
L 525.764119 222.533218 
L 523.061845 219.807885 
L 520.334475 217.10708 
L 517.58129 214.431991 
L 514.801521 211.783898 
L 511.994358 209.164182 
L 509.158938 206.574343 
L 506.294344 204.016005 
L 503.399601 201.490939 
L 500.473674 199.001074 
L 497.51546 196.548524 
L 494.523786 194.135604 
L 491.497405 191.764866 
L 488.434995 189.439126 
L 485.335151 187.161502 
L 482.196393 184.935463 
L 479.017158 182.764878 
L 475.795815 180.65408 
L 472.530668 178.607938 
L 469.219981 176.631946 
L 465.862001 174.732321 
L 462.455005 172.916125 
L 458.997366 171.191401 
L 455.487646 169.567326 
L 451.924724 168.05439 
L 448.307987 166.664575 
L 444.637575 165.411551 
L 440.914716 164.310834 
L 437.142158 163.379905 
L 433.324708 162.638206 
L 429.469866 162.106954 
" style="fill:none;stroke:#808080;stroke-linecap:square;stroke-width:1.5;"/>
   </g>
   <g id="line2d_36">
    <path clip-path="url(#pe515c5e5c9)" d="M 429.469866 315.235597 
L 429.469866 162.106954 
L 599.735774 162.106954 
L 599.735774 315.235597 
L 429.469866 315.235597 
" style="fill:none;stroke:#d3d3d3;stroke-linecap:square;stroke-width:0.5;"/>
   </g>
   <g id="line2d_37">
    <path clip-path="url(#pe515c5e5c9)" d="M 195.521234 345.681068 
L 195.521234 345.681068 
L 192.578411 346.82721 
L 189.809817 348.22276 
L 187.233884 349.868627 
L 184.864045 351.762312 
L 182.709423 353.897572 
L 180.776014 356.263422 
L 179.067238 358.843288 
L 177.583614 361.61538 
L 176.322209 364.554431 
L 175.276566 367.634108 
L 174.437266 370.829148 
L 173.792861 374.116766 
L 173.330847 377.477276 
L 173.038472 380.894162 
L 172.9033 384.35382 
L 172.913563 387.845165 
L 173.058347 391.359216 
L 173.327654 394.888711 
L 173.712409 398.42777 
L 174.204408 401.971629 
L 174.79626 405.516411 
L 175.481311 409.058952 
L 176.253576 412.596659 
L 177.107663 416.127399 
L 178.038715 419.649411 
L 179.042348 423.161232 
L 180.1146 426.661645 
L 181.251886 430.149632 
L 182.450956 433.624336 
L 183.708859 437.085034 
L 185.022914 440.531107 
L 186.390677 443.96203 
L 187.809926 447.377344 
L 189.278627 450.776651 
L 190.794927 454.159599 
L 192.357129 457.52587 
L 193.963683 460.875177 
L 195.613168 464.207251 
" style="fill:none;stroke:#000000;stroke-linecap:square;stroke-width:3;"/>
   </g>
   <g id="line2d_38">
    <path clip-path="url(#pe515c5e5c9)" d="M 172.9033 464.207251 
L 172.9033 345.681068 
L 195.613168 345.681068 
L 195.613168 464.207251 
L 172.9033 464.207251 
" style="fill:none;stroke:#d3d3d3;stroke-linecap:square;stroke-width:0.5;"/>
   </g>
   <g id="line2d_39">
    <path clip-path="url(#pe515c5e5c9)" d="M 195.613168 464.207251 
L 197.304284 467.521841 
L 199.03584 470.818704 
L 200.806744 474.097602 
L 202.615999 477.358299 
L 204.462689 480.600555 
L 206.34598 483.824125 
L 208.265107 487.028754 
L 210.219374 490.214177 
L 212.208148 493.380114 
L 214.230853 496.526269 
L 216.286969 499.652325 
L 218.376025 502.757947 
L 220.497603 505.842774 
L 222.651326 508.90642 
L 224.836865 511.948473 
L 227.053929 514.968489 
L 229.302269 517.965991 
L 231.581674 520.940468 
L 233.891971 523.891371 
L 236.233021 526.81811 
L 238.604722 529.720051 
L 241.007005 532.596513 
L 243.439837 535.446764 
L 245.903215 538.270015 
L 248.397172 541.065421 
L 250.921773 543.832069 
L 253.477113 546.568978 
L 256.063323 549.275088 
L 258.680565 551.949258 
L 261.329031 554.590253 
L 264.008947 557.19674 
L 266.720569 559.767275 
L 269.464184 562.300293 
L 272.240107 564.794093 
L 275.04868 567.246827 
L 277.890271 569.656482 
L 280.765269 572.02086 
L 283.674079 574.33756 
L 286.617115 576.603953 
" style="fill:none;stroke:#000000;stroke-linecap:square;stroke-width:3;"/>
   </g>
   <g id="line2d_40">
    <path clip-path="url(#pe515c5e5c9)" d="M 195.613168 576.603953 
L 195.613168 464.207251 
L 286.617115 464.207251 
L 286.617115 576.603953 
L 195.613168 576.603953 
" style="fill:none;stroke:#d3d3d3;stroke-linecap:square;stroke-width:0.5;"/>
   </g>
   <g id="line2d_41">
    <path clip-path="url(#pe515c5e5c9)" d="M 286.617115 576.603953 
L 289.594792 578.817152 
L 292.607517 580.973986 
L 295.655665 583.070966 
L 298.739569 585.10424 
L 301.859487 587.069561 
L 305.015571 588.96223 
L 308.207821 590.777055 
L 311.436036 592.508295 
L 314.699741 594.149607 
L 317.998109 595.693998 
L 321.329855 597.133781 
L 324.693126 598.460553 
L 328.085362 599.665184 
L 331.50316 600.737861 
L 334.942128 601.668167 
L 338.396767 602.445241 
L 341.860388 603.058012 
L 345.325116 603.495518 
L 348.78199 603.747315 
L 352.221192 603.80392 
L 355.632401 603.657286 
L 359.005222 603.301205 
L 362.329623 602.73164 
L 365.596302 601.94692 
L 368.796907 600.947834 
L 371.924134 599.737622 
L 374.971717 598.321889 
L 377.934413 596.70843 
L 380.808002 594.906958 
L 383.589323 592.928721 
L 386.276307 590.786049 
L 388.86799 588.491866 
L 391.364461 586.05923 
L 393.766765 583.500933 
L 396.07676 580.82921 
L 398.296957 578.055525 
L 400.430354 575.190462 
L 402.480286 572.243672 
L 402.480286 572.243672 
" style="fill:none;stroke:#000000;stroke-linecap:square;stroke-width:3;"/>
   </g>
   <g id="line2d_42">
    <path clip-path="url(#pe515c5e5c9)" d="M 286.617115 603.80392 
L 286.617115 572.243672 
L 402.480286 572.243672 
L 402.480286 603.80392 
L 286.617115 603.80392 
" style="fill:none;stroke:#d3d3d3;stroke-linecap:square;stroke-width:0.5;"/>
   </g>
   <g id="line2d_43">
    <path clip-path="url(#pe515c5e5c9)" d="M 402.480286 572.243672 
" style="fill:none;stroke:#000000;stroke-linecap:square;stroke-width:3;"/>
   </g>
   <g id="line2d_44">
    <path clip-path="url(#pe515c5e5c9)" d="M 402.480286 572.243672 
L 402.480286 572.243672 
L 402.480286 572.243672 
L 402.480286 572.243672 
L 402.480286 572.243672 
" style="fill:none;stroke:#d3d3d3;stroke-linecap:square;stroke-width:0.5;"/>
   </g>
   <g id="line2d_45">
    <path clip-path="url(#pe515c5e5c9)" d="M 402.480286 572.243672 
L 402.480286 572.243672 
L 404.767075 568.949051 
L 407.139974 565.724086 
L 409.592953 562.567824 
L 412.12033 559.479017 
L 414.716773 556.456182 
L 417.377302 553.497652 
L 420.097275 550.60162 
L 422.872377 547.766181 
L 425.698605 544.989359 
L 428.572248 542.269136 
L 431.489867 539.603473 
L 434.44828 536.990329 
L 437.444538 534.427668 
L 440.475908 531.913479 
L 443.539855 529.445774 
L 446.634028 527.022601 
L 449.756238 524.642042 
L 452.904447 522.30222 
L 456.076755 520.001298 
L 459.271382 517.737477 
L 462.486661 515.509 
L 465.721026 513.314146 
L 468.972997 511.151231 
L 472.241178 509.018604 
L 475.524239 506.914646 
L 478.820914 504.837765 
L 482.129994 502.786395 
L 485.450311 500.75899 
L 488.78074 498.754024 
L 492.120189 496.769983 
L 495.46759 494.805364 
L 498.821895 492.858672 
L 502.182069 490.92841 
" style="fill:none;stroke:#000000;stroke-linecap:square;stroke-width:3;"/>
   </g>
   <g id="line2d_46">
    <path clip-path="url(#pe515c5e5c9)" d="M 402.480286 572.243672 
L 402.480286 490.92841 
L 502.182069 490.92841 
L 502.182069 572.243672 
L 402.480286 572.243672 
" style="fill:none;stroke:#d3d3d3;stroke-linecap:square;stroke-width:0.5;"/>
   </g>
   <g id="line2d_47">
    <path clip-path="url(#pe515c5e5c9)" d="M 502.182069 490.92841 
L 505.547085 489.013081 
L 508.915915 487.111182 
L 512.287525 485.221194 
L 515.660871 483.341585 
L 519.034885 481.470797 
L 522.408475 479.607247 
L 525.780514 477.749315 
L 529.149829 475.895345 
L 532.515198 474.043628 
L 535.875332 472.192406 
L 539.228871 470.339856 
L 542.574365 468.484087 
L 545.910264 466.623129 
L 549.234899 464.754924 
L 552.546464 462.877316 
L 555.842996 460.988045 
L 559.122347 459.084729 
L 562.382157 457.16486 
L 565.619825 455.22579 
L 568.832461 453.264723 
L 572.016854 451.2787 
L 575.169411 449.264599 
L 578.286103 447.219123 
L 581.362398 445.138802 
L 584.393184 443.019996 
L 587.372686 440.858912 
L 590.294375 438.651621 
L 593.150872 436.394106 
L 595.933856 434.082314 
L 598.633978 431.712242 
L 601.240806 429.280047 
L 603.742807 426.782176 
L 606.127408 424.215529 
L 608.381147 421.577629 
" style="fill:none;stroke:#000000;stroke-linecap:square;stroke-width:3;"/>
   </g>
   <g id="line2d_48">
    <path clip-path="url(#pe515c5e5c9)" d="M 502.182069 490.92841 
L 502.182069 421.577629 
L 608.381147 421.577629 
L 608.381147 490.92841 
L 502.182069 490.92841 
" style="fill:none;stroke:#d3d3d3;stroke-linecap:square;stroke-width:0.5;"/>
   </g>
   <g id="line2d_49">
    <path clip-path="url(#pe515c5e5c9)" d="M 608.381147 421.577629 
L 610.489955 418.866779 
L 612.43958 416.082196 
L 614.216135 413.224073 
L 615.80674 410.293584 
L 617.200163 407.292831 
L 618.387386 404.224803 
L 619.362016 401.093389 
L 620.12054 397.903469 
L 620.662428 394.661029 
L 620.990113 391.37319 
L 621.108842 388.048041 
L 621.026378 384.694277 
L 620.752539 381.320697 
L 620.298647 377.935701 
L 619.67692 374.54689 
L 618.899913 371.160805 
L 617.980056 367.782832 
L 616.929304 364.417223 
L 615.758909 361.0672 
L 614.479295 357.73509 
L 613.100002 354.422486 
L 611.629698 351.130386 
L 610.076208 347.859332 
L 608.44658 344.609512 
L 606.74715 341.380856 
L 604.983611 338.173109 
L 603.161087 334.985884 
L 601.284191 331.818711 
L 599.357089 328.671067 
L 597.383552 325.542402 
L 595.366999 322.43216 
L 593.310547 319.339788 
L 593.310547 319.339788 
" style="fill:none;stroke:#000000;stroke-linecap:square;stroke-width:3;"/>
   </g>
   <g id="line2d_50">
    <path clip-path="url(#pe515c5e5c9)" d="M 593.310547 421.577629 
L 593.310547 319.339788 
L 621.108842 319.339788 
L 621.108842 421.577629 
L 593.310547 421.577629 
" style="fill:none;stroke:#d3d3d3;stroke-linecap:square;stroke-width:0.5;"/>
   </g>
   <g id="line2d_51">
    <path clip-path="url(#pe515c5e5c9)" d="M 428.622057 169.546208 
L 428.622057 169.546208 
L 425.097995 169.246632 
L 421.603452 169.122536 
L 418.149076 169.188215 
L 414.745783 169.456679 
L 411.403769 169.938856 
L 408.131496 170.642922 
L 404.935019 171.573791 
L 401.817921 172.732724 
L 398.781837 174.116967 
L 395.827142 175.719456 
L 392.95339 177.528845 
L 390.159339 179.530054 
L 387.44272 181.705334 
L 384.800037 184.035581 
L 382.226554 186.501578 
L 379.716471 189.084955 
L 377.263219 191.768786 
L 374.859784 194.537876 
L 372.498992 197.378814 
L 370.173737 200.279881 
L 367.87714 203.230893 
L 365.602656 206.223007 
L 363.344127 209.248531 
L 361.095818 212.300748 
L 358.852414 215.373759 
L 356.609016 218.46235 
L 354.361122 221.561875 
L 352.104608 224.668165 
L 349.8357 227.777447 
L 347.550957 230.886277 
L 345.247245 233.991494 
L 342.921716 237.090168 
L 340.571789 240.179571 
L 338.195134 243.257143 
L 335.789655 246.320474 
L 333.353477 249.36728 
L 330.884932 252.395391 
L 328.382546 255.402741 
L 325.845034 258.387353 
L 323.271283 261.34734 
" style="fill:none;stroke:#000000;stroke-linecap:square;stroke-width:3;"/>
   </g>
   <g id="line2d_52">
    <path clip-path="url(#pe515c5e5c9)" d="M 323.271283 261.34734 
L 323.271283 169.122536 
L 428.622057 169.122536 
L 428.622057 261.34734 
L 323.271283 261.34734 
" style="fill:none;stroke:#d3d3d3;stroke-linecap:square;stroke-width:0.5;"/>
   </g>
   <g id="line2d_53">
    <path clip-path="url(#pe515c5e5c9)" d="M 323.271283 261.34734 
L 320.660351 264.280891 
L 318.011453 267.186275 
L 315.323954 270.061834 
L 312.597364 272.905982 
L 309.831332 275.717206 
L 307.025632 278.494063 
L 304.180165 281.235185 
L 301.294946 283.939273 
L 298.370099 286.605103 
L 295.405853 289.231524 
L 292.402532 291.817459 
L 289.360547 294.361906 
L 286.280396 296.863941 
L 283.162649 299.322714 
L 280.007948 301.737449 
L 276.816998 304.107449 
L 273.590558 306.432091 
L 270.32944 308.710826 
L 267.0345 310.943178 
L 263.70663 313.128744 
L 260.346756 315.267191 
L 256.955832 317.358254 
L 253.534832 319.401736 
L 250.084747 321.397501 
L 246.60658 323.345477 
L 243.101343 325.245651 
L 239.570049 327.098065 
L 236.013712 328.902815 
L 232.433341 330.660047 
L 228.829939 332.369954 
L 225.204498 334.032776 
L 221.557996 335.648789 
L 217.891397 337.218314 
L 214.205646 338.741701 
L 210.501669 340.219338 
L 206.78037 341.651639 
L 203.04263 343.039046 
L 199.289308 344.382027 
L 195.521234 345.681068 
L 195.521234 345.681068 
" style="fill:none;stroke:#000000;stroke-linecap:square;stroke-width:3;"/>
   </g>
   <g id="line2d_54">
    <path clip-path="url(#pe515c5e5c9)" d="M 195.521234 345.681068 
L 195.521234 261.34734 
L 323.271283 261.34734 
L 323.271283 345.681068 
L 195.521234 345.681068 
" style="fill:none;stroke:#d3d3d3;stroke-linecap:square;stroke-width:0.5;"/>
   </g>
   <g id="line2d_55">
    <path clip-path="url(#pe515c5e5c9)" d="M 593.310547 319.339788 
L 593.310547 319.339788 
L 591.186424 316.198394 
L 589.048757 313.066292 
L 586.897387 309.943695 
L 584.73215 306.830827 
L 582.552873 303.727922 
L 580.35938 300.635227 
L 578.151486 297.553 
L 575.929001 294.481512 
L 573.691726 291.421049 
L 571.439455 288.371909 
L 569.171975 285.334408 
L 566.889065 282.308878 
L 564.590494 279.295669 
L 562.276024 276.295149 
L 559.945407 273.307706 
L 557.598386 270.333751 
L 555.234693 267.373717 
L 552.85405 264.428062 
L 550.456169 261.49727 
L 548.040749 258.581853 
L 545.607478 255.682354 
L 543.15603 252.799349 
L 540.686067 249.933449 
L 538.197237 247.085302 
L 535.689172 244.255598 
L 533.161491 241.445072 
L 530.613793 238.654504 
L 528.045663 235.88473 
L 525.456667 233.13664 
L 522.846351 230.411188 
L 520.214245 227.709392 
L 517.559854 225.032348 
L 514.882663 222.381231 
L 512.182136 219.757304 
L 509.457713 217.16193 
L 506.708811 214.596581 
L 503.934823 212.062848 
L 501.135116 209.562456 
L 498.309039 207.09728 
L 495.455912 204.66936 
L 492.575042 202.280925 
L 489.665713 199.934413 
L 486.727199 197.632497 
L 483.758771 195.37812 
L 480.7597 193.174527 
L 477.729278 191.025307 
L 474.666833 188.934442 
L 471.571754 186.90636 
L 468.443525 184.945996 
L 465.281769 183.058866 
L 462.086309 181.251148 
L 458.857246 179.529766 
L 455.595057 177.902489 
L 452.300728 176.378028 
L 448.975916 174.966133 
L 445.623153 173.677675 
L 442.246084 172.524694 
L 438.849743 171.520397 
L 435.440839 170.679059 
L 432.028024 170.015803 
L 428.622057 169.546208 
L 428.622057 169.546208 
" style="fill:none;stroke:#000000;stroke-linecap:square;stroke-width:3;"/>
   </g>
   <g id="line2d_56">
    <path clip-path="url(#pe515c5e5c9)" d="M 428.622057 319.339788 
L 428.622057 169.546208 
L 593.310547 169.546208 
L 593.310547 319.339788 
L 428.622057 319.339788 
" style="fill:none;stroke:#d3d3d3;stroke-linecap:square;stroke-width:0.5;"/>
   </g>
   <g id="line2d_57">
    <path clip-path="url(#pe515c5e5c9)" d="M 430.317675 154.6677 
L 430.317675 154.6677 
L 426.058804 154.305998 
L 421.746426 154.153259 
L 417.39112 154.236512 
L 413.00999 154.582568 
L 408.627613 155.215261 
L 404.27581 156.1519 
L 399.991611 157.399646 
L 395.813335 158.953012 
L 391.775575 160.793612 
L 387.904664 162.892504 
L 384.21603 165.214359 
L 380.714017 167.722017 
L 377.393646 170.380159 
L 374.243306 173.157537 
L 371.24746 176.027834 
L 368.388829 178.969597 
L 365.649924 181.965664 
L 363.013981 185.002434 
L 360.465459 188.069133 
L 357.990241 191.157188 
L 355.57567 194.259712 
L 353.210473 197.371103 
L 350.88465 200.486738 
L 348.589341 203.602737 
L 346.316696 206.715789 
L 344.059753 209.823022 
L 341.812327 212.921903 
L 339.568915 216.01016 
L 337.324613 219.08573 
L 335.075042 222.146713 
L 332.816286 225.191342 
L 330.544847 228.217955 
L 328.257589 231.22498 
L 325.95171 234.210915 
L 323.624705 237.174323 
L 321.274337 240.113823 
L 318.898616 243.02808 
L 316.495778 245.915805 
L 314.064264 248.775752 
L 311.60271 251.606716 
" style="fill:none;stroke:#000000;stroke-linecap:square;stroke-width:3;"/>
   </g>
   <g id="line2d_58">
    <path clip-path="url(#pe515c5e5c9)" d="M 311.60271 251.606716 
L 311.60271 154.153259 
L 430.317675 154.153259 
L 430.317675 251.606716 
L 311.60271 251.606716 
" style="fill:none;stroke:#d3d3d3;stroke-linecap:square;stroke-width:0.5;"/>
   </g>
   <g id="line2d_59">
    <path clip-path="url(#pe515c5e5c9)" d="M 311.60271 251.606716 
L 309.109926 254.407529 
L 306.584891 257.177065 
L 304.026734 259.914238 
L 301.434735 262.618 
L 298.808303 265.287349 
L 296.146978 267.921322 
L 293.45042 270.519001 
L 290.718398 273.079514 
L 287.950788 275.602035 
L 285.147566 278.085787 
L 282.308797 280.53004 
L 279.434635 282.934116 
L 276.525313 285.297386 
L 273.581139 287.619273 
L 270.602489 289.899253 
L 267.589803 292.136851 
L 264.54358 294.331647 
L 261.464369 296.483272 
L 258.352771 298.591407 
L 255.209427 300.655786 
L 252.035016 302.67619 
L 248.830253 304.652453 
L 245.595881 306.584453 
L 242.332667 308.472117 
L 239.041401 310.315416 
L 235.722888 312.114365 
L 232.377947 313.86902 
L 229.007409 315.579479 
L 225.612108 317.245877 
L 222.192883 318.868385 
L 218.750575 320.447209 
L 215.28602 321.982586 
L 211.80005 323.474787 
L 208.293493 324.924108 
L 204.767162 326.330873 
L 201.221863 327.69543 
L 197.658388 329.01815 
L 194.077514 330.299423 
L 190.48 331.539661 
L 190.48 331.539661 
" style="fill:none;stroke:#000000;stroke-linecap:square;stroke-width:3;"/>
   </g>
   <g id="line2d_60">
    <path clip-path="url(#pe515c5e5c9)" d="M 190.48 331.539661 
L 190.48 251.606716 
L 311.60271 251.606716 
L 311.60271 331.539661 
L 190.48 331.539661 
" style="fill:none;stroke:#d3d3d3;stroke-linecap:square;stroke-width:0.5;"/>
   </g>
   <g id="line2d_61">
    <path clip-path="url(#pe515c5e5c9)" d="M 606.161001 311.131405 
L 606.161001 311.131405 
L 604.000901 307.936804 
L 601.826467 304.750831 
L 599.637504 301.573671 
L 597.433812 298.405519 
L 595.215178 295.246578 
L 592.981385 292.097062 
L 590.732202 288.957197 
L 588.467393 285.827217 
L 586.186707 282.707372 
L 583.889886 279.597921 
L 581.57666 276.499139 
L 579.246745 273.411315 
L 576.899846 270.334754 
L 574.535656 267.269777 
L 572.15385 264.216721 
L 569.754093 261.175944 
L 567.336029 258.147824 
L 564.899289 255.132759 
L 562.443483 252.13117 
L 559.968204 249.143505 
L 557.473023 246.170237 
L 554.957488 243.211866 
L 552.421126 240.268925 
L 549.863436 237.341979 
L 547.283889 234.431629 
L 544.681929 231.538516 
L 542.056965 228.66332 
L 539.408373 225.80677 
L 536.735491 222.969643 
L 534.037614 220.15277 
L 531.313994 217.357044 
L 528.563836 214.583421 
L 525.786288 211.83293 
L 522.980443 209.106679 
L 520.145329 206.405865 
L 517.279905 203.731783 
L 514.383054 201.085837 
L 511.453571 198.469554 
L 508.490164 195.884598 
L 505.491436 193.332788 
L 502.455879 190.816122 
L 499.381859 188.336796 
L 496.267612 185.897236 
L 493.111219 183.500132 
L 489.910603 181.148477 
L 486.663507 178.845618 
L 483.367482 176.595313 
L 480.019875 174.401799 
L 476.617812 172.26988 
L 473.158193 170.205025 
L 469.637692 168.213494 
L 466.052764 166.302485 
L 462.399676 164.480313 
L 458.674564 162.756625 
L 454.873532 161.142646 
L 450.992821 159.651475 
L 447.029066 158.298407 
L 442.97969 157.101272 
L 438.843477 156.080752 
L 434.621393 155.260609 
L 430.317675 154.6677 
L 430.317675 154.6677 
" style="fill:none;stroke:#000000;stroke-linecap:square;stroke-width:3;"/>
   </g>
   <g id="line2d_62">
    <path clip-path="url(#pe515c5e5c9)" d="M 430.317675 311.131405 
L 430.317675 154.6677 
L 606.161001 154.6677 
L 606.161001 311.131405 
L 430.317675 311.131405 
" style="fill:none;stroke:#d3d3d3;stroke-linecap:square;stroke-width:0.5;"/>
   </g>
   <g id="line2d_63">
    <path clip-path="url(#pe515c5e5c9)" d="M 415.329716 580.453577 
L 415.329716 580.453577 
L 417.375812 577.505802 
L 419.509406 574.606138 
L 421.725624 571.754577 
L 424.019753 568.950885 
L 426.387263 566.194627 
L 428.823822 563.485197 
L 431.325303 560.821838 
L 433.887794 558.203667 
L 436.507593 555.629696 
L 439.181207 553.09885 
L 441.905348 550.609983 
L 444.676923 548.161893 
L 447.493029 545.753334 
L 450.350943 543.383025 
L 453.248109 541.049663 
L 456.182133 538.751923 
L 459.150768 536.488472 
L 462.151908 534.257967 
L 465.183575 532.059064 
L 468.243914 529.890414 
L 471.331178 527.750672 
L 474.443722 525.638494 
L 477.579998 523.552536 
L 480.738542 521.491458 
L 483.917968 519.453921 
L 487.116964 517.438583 
L 490.334281 515.444103 
L 493.568729 513.469135 
L 496.81917 511.512327 
L 500.084514 509.572317 
L 503.363711 507.647732 
L 506.655748 505.73718 
L 509.95964 503.839253 
" style="fill:none;stroke:#000000;stroke-linecap:square;stroke-width:3;"/>
   </g>
   <g id="line2d_64">
    <path clip-path="url(#pe515c5e5c9)" d="M 415.329716 580.453577 
L 415.329716 503.839253 
L 509.95964 503.839253 
L 509.95964 580.453577 
L 415.329716 580.453577 
" style="fill:none;stroke:#d3d3d3;stroke-linecap:square;stroke-width:0.5;"/>
   </g>
   <g id="line2d_65">
    <path clip-path="url(#pe515c5e5c9)" d="M 509.95964 503.839253 
L 513.27443 501.952514 
L 516.599181 500.075502 
L 519.932971 498.206717 
L 523.27489 496.34462 
L 526.62403 494.487625 
L 529.979486 492.634093 
L 533.340347 490.782321 
L 536.70569 488.930537 
L 540.074572 487.076887 
L 543.446029 485.219426 
L 546.819061 483.356106 
L 550.192627 481.484764 
L 553.565635 479.603101 
L 556.93693 477.708673 
L 560.305278 475.798866 
L 563.669354 473.870877 
L 567.027725 471.92169 
L 570.378819 469.94805 
L 573.720908 467.946428 
L 577.05207 465.912994 
L 580.370151 463.843574 
L 583.672715 461.733611 
L 586.956987 459.578121 
L 590.219778 457.371644 
L 593.457393 455.108196 
L 596.665519 452.781224 
L 599.839089 450.383562 
L 602.972108 447.907409 
L 606.057449 445.344326 
L 609.086609 442.685277 
L 612.049425 439.92074 
L 614.933759 437.040914 
L 617.725185 434.03607 
L 620.406705 430.897085 
" style="fill:none;stroke:#000000;stroke-linecap:square;stroke-width:3;"/>
   </g>
   <g id="line2d_66">
    <path clip-path="url(#pe515c5e5c9)" d="M 509.95964 503.839253 
L 509.95964 430.897085 
L 620.406705 430.897085 
L 620.406705 503.839253 
L 509.95964 503.839253 
" style="fill:none;stroke:#d3d3d3;stroke-linecap:square;stroke-width:0.5;"/>
   </g>
   <g id="line2d_67">
    <path clip-path="url(#pe515c5e5c9)" d="M 620.406705 430.897085 
L 622.958586 427.616205 
L 625.358438 424.188036 
L 627.581651 420.610725 
L 629.602364 416.887185 
L 631.395013 413.026101 
L 632.936395 409.042389 
L 634.20794 404.956806 
L 635.197722 400.794585 
L 635.901694 396.583287 
L 636.323822 392.350323 
L 636.475141 388.12072 
L 636.372051 383.915547 
L 636.034328 379.751181 
L 635.483251 375.63931 
L 634.740124 371.587431 
L 633.825254 367.599613 
L 632.75735 363.677296 
L 631.553254 359.820024 
L 630.227888 356.026059 
L 628.794348 352.292849 
L 627.264056 348.617382 
L 625.646953 344.996428 
L 623.951683 341.426713 
L 622.185779 337.905029 
L 620.355816 334.428302 
L 618.467558 330.993635 
L 616.526074 327.598323 
L 614.535846 324.239866 
L 612.500853 320.915963 
L 610.424645 317.624505 
L 608.310405 314.36357 
L 606.161001 311.131405 
L 606.161001 311.131405 
" style="fill:none;stroke:#000000;stroke-linecap:square;stroke-width:3;"/>
   </g>
   <g id="line2d_68">
    <path clip-path="url(#pe515c5e5c9)" d="M 606.161001 430.897085 
L 606.161001 311.131405 
L 636.475141 311.131405 
L 636.475141 430.897085 
L 606.161001 430.897085 
" style="fill:none;stroke:#d3d3d3;stroke-linecap:square;stroke-width:0.5;"/>
   </g>
   <g id="line2d_69">
    <path clip-path="url(#pe515c5e5c9)" d="M 190.48 331.539661 
L 190.48 331.539661 
L 186.201791 333.207043 
L 182.064269 335.29366 
L 178.138307 337.802809 
L 174.495696 340.71365 
L 171.19779 343.981307 
L 168.285646 347.54347 
L 165.775698 351.33102 
L 163.661903 355.278277 
L 161.922055 359.329605 
L 160.524976 363.441761 
L 159.436365 367.583219 
L 158.622609 371.73205 
L 158.052801 375.873552 
L 157.699542 379.998163 
L 157.539032 384.09986 
L 157.550814 388.174989 
L 157.717379 392.221467 
L 158.023743 396.238231 
L 158.457058 400.224877 
L 159.006271 404.181419 
L 159.661826 408.108133 
L 160.41543 412.005447 
L 161.259846 415.873881 
L 162.188733 419.713996 
L 163.196512 423.526369 
L 164.278248 427.311574 
L 165.429564 431.07017 
L 166.646564 434.802694 
L 167.925765 438.509654 
L 169.264049 442.19153 
L 170.658613 445.848772 
L 172.106935 449.481797 
L 173.606741 453.09099 
L 175.155974 456.676706 
L 176.752773 460.239269 
L 178.395453 463.778969 
L 180.082487 467.296071 
L 181.812488 470.790804 
" style="fill:none;stroke:#000000;stroke-linecap:square;stroke-width:3;"/>
   </g>
   <g id="line2d_70">
    <path clip-path="url(#pe515c5e5c9)" d="M 157.539032 470.790804 
L 157.539032 331.539661 
L 190.48 331.539661 
L 190.48 470.790804 
L 157.539032 470.790804 
" style="fill:none;stroke:#d3d3d3;stroke-linecap:square;stroke-width:0.5;"/>
   </g>
   <g id="line2d_71">
    <path clip-path="url(#pe515c5e5c9)" d="M 181.812488 470.790804 
L 183.5842 474.263372 
L 185.396482 477.713946 
L 187.248303 481.142669 
L 189.138726 484.549656 
L 191.066907 487.93499 
L 193.032084 491.298727 
L 195.033574 494.640892 
L 197.070764 497.96148 
L 199.14311 501.260458 
L 201.25013 504.53776 
L 203.391404 507.79329 
L 205.566567 511.02692 
L 207.775311 514.23849 
L 210.017379 517.427805 
L 212.292564 520.594637 
L 214.60071 523.738721 
L 216.941709 526.859756 
L 219.315501 529.957401 
L 221.722074 533.031275 
L 224.161464 536.080955 
L 226.633754 539.105971 
L 229.139076 542.105807 
L 231.677612 545.079895 
L 234.249596 548.027616 
L 236.855315 550.948288 
L 239.49511 553.841171 
L 242.169381 556.705454 
L 244.878587 559.540257 
L 247.623252 562.344615 
L 250.403968 565.117481 
L 253.221399 567.857707 
L 256.076285 570.564043 
L 258.969448 573.23512 
L 261.901799 575.869439 
L 264.87434 578.465354 
L 267.888178 581.021059 
L 270.944524 583.53456 
L 274.044703 586.003658 
L 277.190166 588.425915 
" style="fill:none;stroke:#000000;stroke-linecap:square;stroke-width:3;"/>
   </g>
   <g id="line2d_72">
    <path clip-path="url(#pe515c5e5c9)" d="M 181.812488 588.425915 
L 181.812488 470.790804 
L 277.190166 470.790804 
L 277.190166 588.425915 
L 181.812488 588.425915 
" style="fill:none;stroke:#d3d3d3;stroke-linecap:square;stroke-width:0.5;"/>
   </g>
   <g id="line2d_73">
    <path clip-path="url(#pe515c5e5c9)" d="M 277.190166 588.425915 
L 280.382487 590.798628 
L 283.623381 593.118784 
L 286.914696 595.38302 
L 290.258426 597.587568 
L 293.656702 599.728192 
L 297.111787 601.800123 
L 300.626061 603.797967 
L 304.201989 605.715617 
L 307.842077 607.546136 
L 311.548799 609.281644 
L 315.324499 610.913176 
L 319.171235 612.43055 
L 323.090584 613.822227 
L 327.083358 615.075197 
L 331.149248 616.174911 
L 335.286373 617.105289 
L 339.490732 617.848869 
L 343.755604 618.387153 
L 348.070936 618.701204 
L 352.422841 618.772556 
L 356.793337 618.584427 
L 361.160501 618.123151 
L 365.499186 617.379655 
L 369.782312 616.350694 
L 373.982634 615.039567 
L 378.07469 613.456098 
L 382.036571 611.615848 
L 385.851176 609.538731 
L 389.506787 607.247334 
L 392.996976 604.765262 
L 396.320005 602.115749 
L 399.477935 599.320664 
L 402.475662 596.399911 
L 405.320011 593.371162 
L 408.018978 590.249824 
L 410.581132 587.049169 
L 413.015191 583.780537 
L 415.329716 580.453577 
L 415.329716 580.453577 
" style="fill:none;stroke:#000000;stroke-linecap:square;stroke-width:3;"/>
   </g>
   <g id="line2d_74">
    <path clip-path="url(#pe515c5e5c9)" d="M 277.190166 618.772556 
L 277.190166 580.453577 
L 415.329716 580.453577 
L 415.329716 618.772556 
L 277.190166 618.772556 
" style="fill:none;stroke:#d3d3d3;stroke-linecap:square;stroke-width:0.5;"/>
   </g>
   <g id="line2d_75">
    <path clip-path="url(#pe515c5e5c9)" d="M 415.329716 580.453577 
" style="fill:none;stroke:#000000;stroke-linecap:square;stroke-width:3;"/>
   </g>
   <g id="line2d_76">
    <path clip-path="url(#pe515c5e5c9)" d="M 415.329716 580.453577 
L 415.329716 580.453577 
L 415.329716 580.453577 
L 415.329716 580.453577 
L 415.329716 580.453577 
" style="fill:none;stroke:#d3d3d3;stroke-linecap:square;stroke-width:0.5;"/>
   </g>
   <g id="line2d_77">
    <path clip-path="url(#pe515c5e5c9)" d="M 317.436997 245.249584 
L 318.910763 245.341761 
L 320.36033 245.616779 
L 321.761896 246.070122 
L 323.092447 246.694346 
L 324.330136 247.479201 
L 325.45464 248.411801 
L 326.447495 249.476831 
L 327.292397 250.656804 
L 327.975474 251.932345 
L 328.485509 253.28251 
L 328.814128 254.685129 
L 328.955935 256.11717 
L 328.908601 257.555121 
L 328.672904 258.975369 
L 328.252713 260.354594 
L 327.654929 261.67015 
L 326.889367 262.900435 
L 325.968597 264.025248 
L 324.907738 265.026119 
L 323.72421 265.886615 
L 322.437446 266.592605 
L 321.068575 267.132498 
L 319.640073 267.497428 
L 318.175397 267.681403 
L 316.698596 267.681403 
L 315.23392 267.497428 
L 313.805419 267.132498 
L 312.436548 266.592605 
L 311.149784 265.886615 
L 309.966256 265.026119 
L 308.905397 264.025248 
L 307.984627 262.900435 
L 307.219064 261.67015 
L 306.62128 260.354594 
L 306.20109 258.975369 
L 305.965392 257.555121 
L 305.918059 256.11717 
L 306.059865 254.685129 
L 306.388484 253.28251 
L 306.89852 251.932345 
L 307.581597 250.656804 
L 308.426499 249.476831 
L 309.419353 248.411801 
L 310.543857 247.479201 
L 311.781546 246.694346 
L 313.112097 246.070122 
L 314.513663 245.616779 
L 315.96323 245.341761 
L 317.436997 245.249584 
" style="fill:none;stroke:#808080;stroke-linecap:square;stroke-width:1.5;"/>
   </g>
   <g id="line2d_78">
    <path clip-path="url(#pe515c5e5c9)" d="M 193.000617 327.382921 
L 194.474383 327.475098 
L 195.92395 327.750116 
L 197.325516 328.203459 
L 198.656068 328.827683 
L 199.893757 329.612538 
L 201.018261 330.545138 
L 202.011115 331.610168 
L 202.856017 332.790141 
L 203.539094 334.065682 
L 204.049129 335.415847 
L 204.377748 336.818466 
L 204.519555 338.250507 
L 204.472221 339.688458 
L 204.236524 341.108706 
L 203.816334 342.487931 
L 203.218549 343.803487 
L 202.452987 345.033772 
L 201.532217 346.158585 
L 200.471358 347.159456 
L 199.28783 348.019952 
L 198.001066 348.725942 
L 196.632195 349.265835 
L 195.203693 349.630765 
L 193.739017 349.81474 
L 192.262217 349.81474 
L 190.797541 349.630765 
L 189.369039 349.265835 
L 188.000168 348.725942 
L 186.713404 348.019952 
L 185.529876 347.159456 
L 184.469017 346.158585 
L 183.548247 345.033772 
L 182.782685 343.803487 
L 182.1849 342.487931 
L 181.76471 341.108706 
L 181.529013 339.688458 
L 181.481679 338.250507 
L 181.623486 336.818466 
L 181.952105 335.415847 
L 182.46214 334.065682 
L 183.145217 332.790141 
L 183.990119 331.610168 
L 184.982973 330.545138 
L 186.107477 329.612538 
L 187.345166 328.827683 
L 188.675718 328.203459 
L 190.077284 327.750116 
L 191.526851 327.475098 
L 193.000617 327.382921 
" style="fill:none;stroke:#808080;stroke-linecap:square;stroke-width:1.5;"/>
   </g>
   <g id="line2d_79">
    <path clip-path="url(#pe515c5e5c9)" d="M 188.712828 456.271584 
L 190.186594 456.363761 
L 191.636161 456.638779 
L 193.037728 457.092122 
L 194.368279 457.716346 
L 195.605968 458.501201 
L 196.730472 459.433801 
L 197.723326 460.498831 
L 198.568228 461.678804 
L 199.251305 462.954345 
L 199.76134 464.30451 
L 200.089959 465.707129 
L 200.231766 467.13917 
L 200.184432 468.577121 
L 199.948735 469.997369 
L 199.528545 471.376594 
L 198.93076 472.69215 
L 198.165198 473.922435 
L 197.244428 475.047248 
L 196.183569 476.048119 
L 195.000041 476.908615 
L 193.713277 477.614605 
L 192.344406 478.154498 
L 190.915904 478.519428 
L 189.451228 478.703403 
L 187.974428 478.703403 
L 186.509752 478.519428 
L 185.08125 478.154498 
L 183.712379 477.614605 
L 182.425615 476.908615 
L 181.242087 476.048119 
L 180.181228 475.047248 
L 179.260458 473.922435 
L 178.494896 472.69215 
L 177.897111 471.376594 
L 177.476921 469.997369 
L 177.241224 468.577121 
L 177.19389 467.13917 
L 177.335697 465.707129 
L 177.664316 464.30451 
L 178.174351 462.954345 
L 178.857428 461.678804 
L 179.70233 460.498831 
L 180.695184 459.433801 
L 181.819688 458.501201 
L 183.057377 457.716346 
L 184.387929 457.092122 
L 185.789495 456.638779 
L 187.239062 456.363761 
L 188.712828 456.271584 
" style="fill:none;stroke:#808080;stroke-linecap:square;stroke-width:1.5;"/>
   </g>
   <g id="line2d_80">
    <path clip-path="url(#pe515c5e5c9)" d="M 278.859391 568.943165 
L 280.333157 569.035342 
L 281.782724 569.31036 
L 283.18429 569.763703 
L 284.514842 570.387927 
L 285.752531 571.172783 
L 286.877035 572.105382 
L 287.869889 573.170412 
L 288.714791 574.350386 
L 289.397868 575.625927 
L 289.907903 576.976092 
L 290.236522 578.37871 
L 290.378329 579.810752 
L 290.330995 581.248702 
L 290.095298 582.66895 
L 289.675108 584.048176 
L 289.077323 585.363732 
L 288.311761 586.594017 
L 287.390991 587.718829 
L 286.330132 588.719701 
L 285.146604 589.580196 
L 283.85984 590.286186 
L 282.490969 590.826079 
L 281.062467 591.191009 
L 279.597791 591.374985 
L 278.120991 591.374985 
L 276.656315 591.191009 
L 275.227813 590.826079 
L 273.858942 590.286186 
L 272.572178 589.580196 
L 271.38865 588.719701 
L 270.327791 587.718829 
L 269.407021 586.594017 
L 268.641459 585.363732 
L 268.043674 584.048176 
L 267.623484 582.66895 
L 267.387787 581.248702 
L 267.340453 579.810752 
L 267.48226 578.37871 
L 267.810879 576.976092 
L 268.320914 575.625927 
L 269.003991 574.350386 
L 269.848893 573.170412 
L 270.841747 572.105382 
L 271.966251 571.172783 
L 273.20394 570.387927 
L 274.534491 569.763703 
L 275.936057 569.31036 
L 277.385625 569.035342 
L 278.859391 568.943165 
" style="fill:none;stroke:#808080;stroke-linecap:square;stroke-width:1.5;"/>
   </g>
   <g id="line2d_81">
    <path clip-path="url(#pe515c5e5c9)" d="M 406.722772 568.258056 
L 408.196539 568.350233 
L 409.646106 568.625251 
L 411.047672 569.078594 
L 412.378223 569.702818 
L 413.615912 570.487673 
L 414.740416 571.420273 
L 415.73327 572.485303 
L 416.578173 573.665276 
L 417.261249 574.940817 
L 417.771285 576.290982 
L 418.099904 577.693601 
L 418.241711 579.125642 
L 418.194377 580.563593 
L 417.95868 581.983841 
L 417.538489 583.363066 
L 416.940705 584.678622 
L 416.175142 585.908907 
L 415.254372 587.03372 
L 414.193514 588.034591 
L 413.009985 588.895087 
L 411.723221 589.601077 
L 410.35435 590.14097 
L 408.925849 590.5059 
L 407.461173 590.689875 
L 405.984372 590.689875 
L 404.519696 590.5059 
L 403.091194 590.14097 
L 401.722323 589.601077 
L 400.435559 588.895087 
L 399.252031 588.034591 
L 398.191173 587.03372 
L 397.270402 585.908907 
L 396.50484 584.678622 
L 395.907056 583.363066 
L 395.486865 581.983841 
L 395.251168 580.563593 
L 395.203834 579.125642 
L 395.345641 577.693601 
L 395.67426 576.290982 
L 396.184295 574.940817 
L 396.867372 573.665276 
L 397.712274 572.485303 
L 398.705129 571.420273 
L 399.829633 570.487673 
L 401.067322 569.702818 
L 402.397873 569.078594 
L 403.799439 568.625251 
L 405.249006 568.350233 
L 406.722772 568.258056 
" style="fill:none;stroke:#808080;stroke-linecap:square;stroke-width:1.5;"/>
   </g>
   <g id="line2d_82">
    <path clip-path="url(#pe515c5e5c9)" d="M 408.905001 565.121181 
L 410.378767 565.213358 
L 411.828334 565.488376 
L 413.2299 565.941719 
L 414.560452 566.565943 
L 415.798141 567.350798 
L 416.922645 568.283398 
L 417.915499 569.348428 
L 418.760401 570.528401 
L 419.443478 571.803942 
L 419.953513 573.154107 
L 420.282132 574.556726 
L 420.423939 575.988767 
L 420.376605 577.426718 
L 420.140908 578.846966 
L 419.720718 580.226191 
L 419.122933 581.541747 
L 418.357371 582.772032 
L 417.436601 583.896845 
L 416.375742 584.897716 
L 415.192214 585.758212 
L 413.90545 586.464202 
L 412.536579 587.004095 
L 411.108077 587.369025 
L 409.643401 587.553 
L 408.166601 587.553 
L 406.701925 587.369025 
L 405.273423 587.004095 
L 403.904552 586.464202 
L 402.617788 585.758212 
L 401.43426 584.897716 
L 400.373401 583.896845 
L 399.452631 582.772032 
L 398.687069 581.541747 
L 398.089284 580.226191 
L 397.669094 578.846966 
L 397.433397 577.426718 
L 397.386063 575.988767 
L 397.52787 574.556726 
L 397.856489 573.154107 
L 398.366524 571.803942 
L 399.049601 570.528401 
L 399.894503 569.348428 
L 400.887357 568.283398 
L 402.011861 567.350798 
L 403.24955 566.565943 
L 404.580101 565.941719 
L 405.981668 565.488376 
L 407.431235 565.213358 
L 408.905001 565.121181 
" style="fill:none;stroke:#808080;stroke-linecap:square;stroke-width:1.5;"/>
   </g>
   <g id="line2d_83">
    <path clip-path="url(#pe515c5e5c9)" d="M 506.070854 486.156387 
L 507.544621 486.248565 
L 508.994188 486.523583 
L 510.395754 486.976925 
L 511.726305 487.601149 
L 512.963994 488.386005 
L 514.088498 489.318604 
L 515.081352 490.383635 
L 515.926254 491.563608 
L 516.609331 492.839149 
L 517.119367 494.189314 
L 517.447986 495.591932 
L 517.589792 497.023974 
L 517.542459 498.461924 
L 517.306761 499.882172 
L 516.886571 501.261398 
L 516.288787 502.576954 
L 515.523224 503.807239 
L 514.602454 504.932052 
L 513.541595 505.932923 
L 512.358067 506.793418 
L 511.071303 507.499408 
L 509.702432 508.039301 
L 508.273931 508.404231 
L 506.809255 508.588207 
L 505.332454 508.588207 
L 503.867778 508.404231 
L 502.439276 508.039301 
L 501.070405 507.499408 
L 499.783641 506.793418 
L 498.600113 505.932923 
L 497.539254 504.932052 
L 496.618484 503.807239 
L 495.852922 502.576954 
L 495.255138 501.261398 
L 494.834947 499.882172 
L 494.59925 498.461924 
L 494.551916 497.023974 
L 494.693723 495.591932 
L 495.022342 494.189314 
L 495.532377 492.839149 
L 496.215454 491.563608 
L 497.060356 490.383635 
L 498.053211 489.318604 
L 499.177714 488.386005 
L 500.415403 487.601149 
L 501.745955 486.976925 
L 503.147521 486.523583 
L 504.597088 486.248565 
L 506.070854 486.156387 
" style="fill:none;stroke:#808080;stroke-linecap:square;stroke-width:1.5;"/>
   </g>
   <g id="line2d_84">
    <path clip-path="url(#pe515c5e5c9)" d="M 611.926297 417.898356 
L 613.400063 417.990533 
L 614.84963 418.265551 
L 616.251196 418.718894 
L 617.581748 419.343118 
L 618.819437 420.127973 
L 619.943941 421.060572 
L 620.936795 422.125603 
L 621.781697 423.305576 
L 622.464774 424.581117 
L 622.974809 425.931282 
L 623.303428 427.3339 
L 623.445235 428.765942 
L 623.397901 430.203892 
L 623.162204 431.624141 
L 622.742014 433.003366 
L 622.144229 434.318922 
L 621.378667 435.549207 
L 620.457897 436.67402 
L 619.397038 437.674891 
L 618.21351 438.535386 
L 616.926746 439.241377 
L 615.557875 439.781269 
L 614.129373 440.1462 
L 612.664697 440.330175 
L 611.187897 440.330175 
L 609.723221 440.1462 
L 608.294719 439.781269 
L 606.925848 439.241377 
L 605.639084 438.535386 
L 604.455556 437.674891 
L 603.394697 436.67402 
L 602.473927 435.549207 
L 601.708364 434.318922 
L 601.11058 433.003366 
L 600.69039 431.624141 
L 600.454693 430.203892 
L 600.407359 428.765942 
L 600.549166 427.3339 
L 600.877785 425.931282 
L 601.38782 424.581117 
L 602.070897 423.305576 
L 602.915799 422.125603 
L 603.908653 421.060572 
L 605.033157 420.127973 
L 606.270846 419.343118 
L 607.601397 418.718894 
L 609.002963 418.265551 
L 610.452531 417.990533 
L 611.926297 417.898356 
" style="fill:none;stroke:#808080;stroke-linecap:square;stroke-width:1.5;"/>
   </g>
   <g id="line2d_85">
    <path clip-path="url(#pe515c5e5c9)" d="M 599.735774 304.008153 
L 601.20954 304.10033 
L 602.659107 304.375348 
L 604.060673 304.828691 
L 605.391225 305.452915 
L 606.628914 306.23777 
L 607.753417 307.17037 
L 608.746272 308.2354 
L 609.591174 309.415373 
L 610.274251 310.690914 
L 610.784286 312.041079 
L 611.112905 313.443698 
L 611.254712 314.875739 
L 611.207378 316.31369 
L 610.971681 317.733938 
L 610.55149 319.113163 
L 609.953706 320.428719 
L 609.188144 321.659004 
L 608.267374 322.783817 
L 607.206515 323.784688 
L 606.022987 324.645184 
L 604.736223 325.351174 
L 603.367352 325.891067 
L 601.93885 326.255997 
L 600.474174 326.439972 
L 598.997373 326.439972 
L 597.532697 326.255997 
L 596.104196 325.891067 
L 594.735325 325.351174 
L 593.448561 324.645184 
L 592.265033 323.784688 
L 591.204174 322.783817 
L 590.283404 321.659004 
L 589.517841 320.428719 
L 588.920057 319.113163 
L 588.499867 317.733938 
L 588.264169 316.31369 
L 588.216836 314.875739 
L 588.358642 313.443698 
L 588.687261 312.041079 
L 589.197297 310.690914 
L 589.880374 309.415373 
L 590.725276 308.2354 
L 591.71813 307.17037 
L 592.842634 306.23777 
L 594.080323 305.452915 
L 595.410874 304.828691 
L 596.81244 304.375348 
L 598.262007 304.10033 
L 599.735774 304.008153 
" style="fill:none;stroke:#808080;stroke-linecap:square;stroke-width:1.5;"/>
   </g>
   <g id="line2d_86">
    <path clip-path="url(#pe515c5e5c9)" d="M 599.735774 304.008153 
L 601.20954 304.10033 
L 602.659107 304.375348 
L 604.060673 304.828691 
L 605.391225 305.452915 
L 606.628914 306.23777 
L 607.753417 307.17037 
L 608.746272 308.2354 
L 609.591174 309.415373 
L 610.274251 310.690914 
L 610.784286 312.041079 
L 611.112905 313.443698 
L 611.254712 314.875739 
L 611.207378 316.31369 
L 610.971681 317.733938 
L 610.55149 319.113163 
L 609.953706 320.428719 
L 609.188144 321.659004 
L 608.267374 322.783817 
L 607.206515 323.784688 
L 606.022987 324.645184 
L 604.736223 325.351174 
L 603.367352 325.891067 
L 601.93885 326.255997 
L 600.474174 326.439972 
L 598.997373 326.439972 
L 597.532697 326.255997 
L 596.104196 325.891067 
L 594.735325 325.351174 
L 593.448561 324.645184 
L 592.265033 323.784688 
L 591.204174 322.783817 
L 590.283404 321.659004 
L 589.517841 320.428719 
L 588.920057 319.113163 
L 588.499867 317.733938 
L 588.264169 316.31369 
L 588.216836 314.875739 
L 588.358642 313.443698 
L 588.687261 312.041079 
L 589.197297 310.690914 
L 589.880374 309.415373 
L 590.725276 308.2354 
L 591.71813 307.17037 
L 592.842634 306.23777 
L 594.080323 305.452915 
L 595.410874 304.828691 
L 596.81244 304.375348 
L 598.262007 304.10033 
L 599.735774 304.008153 
" style="fill:none;stroke:#808080;stroke-linecap:square;stroke-width:1.5;"/>
   </g>
   <g id="line2d_87">
    <path clip-path="url(#pe515c5e5c9)" d="M 429.469866 150.87951 
L 430.943632 150.971688 
L 432.393199 151.246705 
L 433.794765 151.700048 
L 435.125317 152.324272 
L 436.363006 153.109128 
L 437.48751 154.041727 
L 438.480364 155.106757 
L 439.325266 156.286731 
L 440.008343 157.562272 
L 440.518378 158.912437 
L 440.846997 160.315055 
L 440.988804 161.747097 
L 440.94147 163.185047 
L 440.705773 164.605295 
L 440.285583 165.984521 
L 439.687798 167.300077 
L 438.922236 168.530362 
L 438.001466 169.655175 
L 436.940607 170.656046 
L 435.757079 171.516541 
L 434.470315 172.222531 
L 433.101444 172.762424 
L 431.672942 173.127354 
L 430.208266 173.31133 
L 428.731466 173.31133 
L 427.26679 173.127354 
L 425.838288 172.762424 
L 424.469417 172.222531 
L 423.182653 171.516541 
L 421.999125 170.656046 
L 420.938266 169.655175 
L 420.017496 168.530362 
L 419.251934 167.300077 
L 418.654149 165.984521 
L 418.233959 164.605295 
L 417.998262 163.185047 
L 417.950928 161.747097 
L 418.092735 160.315055 
L 418.421354 158.912437 
L 418.931389 157.562272 
L 419.614466 156.286731 
L 420.459368 155.106757 
L 421.452222 154.041727 
L 422.576726 153.109128 
L 423.814415 152.324272 
L 425.144967 151.700048 
L 426.546533 151.246705 
L 427.9961 150.971688 
L 429.469866 150.87951 
" style="fill:none;stroke:#808080;stroke-linecap:square;stroke-width:1.5;"/>
   </g>
   <g id="line2d_88"/>
   <g id="line2d_89"/>
   <g id="line2d_90"/>
   <g id="line2d_91"/>
   <g id="line2d_92"/>
   <g id="line2d_93"/>
   <g id="line2d_94"/>
   <g id="line2d_95"/>
   <g id="line2d_96"/>
   <g id="line2d_97"/>
   <g id="line2d_98"/>
   <g id="line2d_99"/>
   <g id="line2d_100"/>
   <g id="line2d_101"/>
   <g id="line2d_102"/>
   <g id="line2d_103"/>
   <g id="line2d_104"/>
   <g id="line2d_105"/>
   <g id="line2d_106"/>
   <g id="line2d_107"/>
   <g id="line2d_108"/>
   <g id="line2d_109"/>
   <g id="line2d_110"/>
   <g id="line2d_111"/>
   <g id="line2d_112"/>
   <g id="line2d_113"/>
   <g id="line2d_114"/>
   <g id="line2d_115"/>
   <g id="line2d_116"/>
   <g id="line2d_117"/>
   <g id="line2d_118"/>
   <g id="line2d_119"/>
   <g id="line2d_120"/>
   <g id="line2d_121"/>
   <g id="line2d_122"/>
   <g id="line2d_123"/>
   <g id="line2d_124"/>
   <g id="line2d_125"/>
   <g id="line2d_126"/>
   <g id="line2d_127"/>
   <g id="line2d_128"/>
   <g id="line2d_129"/>
   <g id="line2d_130"/>
   <g id="line2d_131"/>
   <g id="line2d_132"/>
   <g id="line2d_133"/>
   <g id="line2d_134"/>
   <g id="line2d_135"/>
   <g id="line2d_136"/>
   <g id="line2d_137"/>
   <g id="line2d_138"/>
   <g id="patch_3">
    <path d="M 90 630 
L 90 86.4 
" style="fill:none;stroke:#000000;stroke-linecap:square;stroke-linejoin:miter;stroke-width:0.8;"/>
   </g>
   <g id="patch_4">
    <path d="M 648 630 
L 648 86.4 
" style="fill:none;stroke:#000000;stroke-linecap:square;stroke-linejoin:miter;stroke-width:0.8;"/>
   </g>
   <g id="patch_5">
    <path d="M 90 630 
L 648 630 
" style="fill:none;stroke:#000000;stroke-linecap:square;stroke-linejoin:miter;stroke-width:0.8;"/>
   </g>
   <g id="patch_6">
    <path d="M 90 86.4 
L 648 86.4 
" style="fill:none;stroke:#000000;stroke-linecap:square;stroke-linejoin:miter;stroke-width:0.8;"/>
   </g>
   <g id="text_15">
    <!-- 0 -->
    <g transform="translate(125.255831 445.954747)scale(0.1 -0.1)">
     <use xlink:href="#DejaVuSans-30"/>
    </g>
   </g>
   <g id="text_16">
    <!-- 0 -->
    <g transform="translate(125.255831 434.727304)scale(0.1 -0.1)">
     <use xlink:href="#DejaVuSans-30"/>
    </g>
   </g>
   <g id="text_17">
    <!-- 0 -->
    <g transform="translate(125.255831 423.49986)scale(0.1 -0.1)">
     <use xlink:href="#DejaVuSans-30"/>
    </g>
   </g>
  </g>
 </g>
 <defs>
  <clipPath id="pe515c5e5c9">
   <rect height="543.6" width="558" x="90" y="86.4"/>
  </clipPath>
 </defs>
</svg>
