<?xml version="1.0" encoding="utf-8" standalone="no"?>
<!DOCTYPE svg PUBLIC "-//W3C//DTD SVG 1.1//EN"
  "http://www.w3.org/Graphics/SVG/1.1/DTD/svg11.dtd">
<svg height="720pt" version="1.1" viewBox="0 0 720 720" width="720pt" xmlns="http://www.w3.org/2000/svg" xmlns:xlink="http://www.w3.org/1999/xlink">
 <metadata>
  <rdf:RDF xmlns:cc="http://creativecommons.org/ns#" xmlns:dc="http://purl.org/dc/elements/1.1/" xmlns:rdf="http://www.w3.org/1999/02/22-rdf-syntax-ns#">
   <cc:Work>
    <dc:type rdf:resource="http://purl.org/dc/dcmitype/StillImage"/>
    <dc:date>2022-01-11T13:26:06.138058</dc:date>
    <dc:format>image/svg+xml</dc:format>
    <dc:creator>
     <cc:Agent>
      <dc:title>Matplotlib v3.4.3, https://matplotlib.org/</dc:title>
     </cc:Agent>
    </dc:creator>
   </cc:Work>
  </rdf:RDF>
 </metadata>
 <defs>
  <style type="text/css">*{stroke-linecap:butt;stroke-linejoin:round;}</style>
 </defs>
 <g id="figure_1">
  <g id="patch_1">
   <path d="M 0 720 
L 720 720 
L 720 0 
L 0 0 
z
" style="fill:none;"/>
  </g>
  <g id="axes_1">
   <g id="patch_2">
    <path d="M 90 630 
L 648 630 
L 648 86.4 
L 90 86.4 
z
" style="fill:#ffffff;"/>
   </g>
   <g id="PathCollection_1">
    <defs>
     <path d="M 0.972304 -8.870829 
Q -1.277159 -8.870829 -2.413438 -6.653699 
Q -3.545098 -4.441189 -3.545098 0.006929 
Q -3.545098 4.436569 -2.413438 6.653699 
Q -1.277159 8.870829 0.972304 8.870829 
Q 3.240243 8.870829 4.371903 6.653699 
Q 5.508182 4.436569 5.508182 0.006929 
Q 5.508182 -4.441189 4.371903 -6.653699 
Q 3.240243 -8.870829 0.972304 -8.870829 
z
M 0.972304 -11.18034 
Q 4.598235 -11.18034 6.51051 -8.311928 
Q 8.422784 -5.448135 8.422784 0.006929 
Q 8.422784 5.448135 6.51051 8.316547 
Q 4.598235 11.18034 0.972304 11.18034 
Q -2.649008 11.18034 -4.561283 8.316547 
Q -6.473558 5.448135 -6.473558 0.006929 
Q -6.473558 -5.448135 -4.561283 -8.311928 
Q -2.649008 -11.18034 0.972304 -11.18034 
z
" id="ma8dbb3e6bd" style="stroke:#808080;"/>
    </defs>
    <g clip-path="url(#p1baf01a52e)">
     <use style="fill:#808080;stroke:#808080;" x="274.279077" xlink:href="#ma8dbb3e6bd" y="170.024686"/>
    </g>
   </g>
   <g id="PathCollection_2">
    <defs>
     <path d="M -4.535873 8.63565 
L 0.404946 8.63565 
L 0.404946 -8.424791 
L -4.971969 -7.346533 
L -4.971969 -10.102082 
L 0.376192 -11.18034 
L 3.400108 -11.18034 
L 3.400108 8.63565 
L 8.340927 8.63565 
L 8.340927 11.18034 
L -4.535873 11.18034 
L -4.535873 8.63565 
z
" id="m2ebf8a4dbf" style="stroke:#808080;"/>
    </defs>
    <g clip-path="url(#p1baf01a52e)">
     <use style="fill:#808080;stroke:#808080;" x="163.199138" xlink:href="#m2ebf8a4dbf" y="292.886736"/>
    </g>
   </g>
   <g id="PathCollection_3">
    <defs>
     <path d="M -2.294912 8.680651 
L 8.075736 8.680651 
L 8.075736 11.18034 
L -5.867913 11.18034 
L -5.867913 8.680651 
Q -4.177916 6.929457 -1.259259 3.982555 
Q 1.664105 1.030945 2.4126 0.174178 
Q 3.838976 -1.426376 4.403877 -2.537349 
Q 4.973486 -3.648321 4.973486 -4.721634 
Q 4.973486 -6.472828 3.744825 -7.574386 
Q 2.516165 -8.680651 0.543718 -8.680651 
Q -0.854413 -8.680651 -2.407892 -8.195778 
Q -3.956663 -7.710904 -5.72198 -6.722326 
L -5.72198 -9.725719 
Q -3.928418 -10.445968 -2.370232 -10.813154 
Q -0.807338 -11.18034 0.487227 -11.18034 
Q 3.900173 -11.18034 5.929111 -9.471513 
Q 7.958048 -7.767394 7.958048 -4.914642 
Q 7.958048 -3.558879 7.449637 -2.344341 
Q 6.945933 -1.13451 5.604292 0.513119 
Q 5.237107 0.941502 3.264659 2.979855 
Q 1.296919 5.018207 -2.294912 8.680651 
z
" id="m33429527d2" style="stroke:#808080;"/>
    </defs>
    <g clip-path="url(#p1baf01a52e)">
     <use style="fill:#808080;stroke:#808080;" x="163.199138" xlink:href="#m33429527d2" y="292.886736"/>
    </g>
   </g>
   <g id="PathCollection_4">
    <defs>
     <path d="M 3.77605 -0.861447 
Q 5.868466 -0.413402 7.041697 1.004637 
Q 8.219548 2.418057 8.219548 4.496617 
Q 8.219548 7.683741 6.025513 9.43435 
Q 3.831478 11.18034 -0.210165 11.18034 
Q -1.563539 11.18034 -3.000054 10.912437 
Q -4.436569 10.644533 -5.965465 10.108727 
L -5.965465 7.295743 
Q -4.755282 8.002454 -3.314147 8.362737 
Q -1.868394 8.723021 -0.293308 8.723021 
Q 2.445772 8.723021 3.882287 7.64217 
Q 5.318802 6.561319 5.318802 4.496617 
Q 5.318802 2.588961 3.983905 1.517348 
Q 2.649008 0.441116 0.270213 0.441116 
L -2.242535 0.441116 
L -2.242535 -1.956155 
L 0.385688 -1.956155 
Q 2.533533 -1.956155 3.674431 -2.815293 
Q 4.815329 -3.674431 4.815329 -5.291088 
Q 4.815329 -6.949317 3.637479 -7.836169 
Q 2.464248 -8.72764 0.270213 -8.72764 
Q -0.930733 -8.72764 -2.302582 -8.464356 
Q -3.674431 -8.20569 -5.318802 -7.660646 
L -5.318802 -10.256536 
Q -3.655955 -10.718438 -2.205582 -10.949389 
Q -0.75521 -11.18034 0.528878 -11.18034 
Q 3.849954 -11.18034 5.780705 -9.66992 
Q 7.716074 -8.164119 7.716074 -5.595944 
Q 7.716074 -3.803764 6.690652 -2.570485 
Q 5.665229 -1.337207 3.77605 -0.861447 
z
" id="m6f9af647f5" style="stroke:#808080;"/>
    </defs>
    <g clip-path="url(#p1baf01a52e)">
     <use style="fill:#808080;stroke:#808080;" x="152.777351" xlink:href="#m6f9af647f5" y="393.464102"/>
    </g>
   </g>
   <g id="PathCollection_5">
    <defs>
     <path d="M 2.695646 -8.544598 
L -4.943215 3.392919 
L 2.695646 3.392919 
L 2.695646 -8.544598 
z
M 1.900131 -11.18034 
L 5.705184 -11.18034 
L 5.705184 3.392919 
L 8.896829 3.392919 
L 8.896829 5.908855 
L 5.705184 5.908855 
L 5.705184 11.18034 
L 2.695646 11.18034 
L 2.695646 5.908855 
L -7.396852 5.908855 
L -7.396852 2.99037 
L 1.900131 -11.18034 
z
" id="mef0d42de69" style="stroke:#808080;"/>
    </defs>
    <g clip-path="url(#p1baf01a52e)">
     <use style="fill:#808080;stroke:#808080;" x="269.877898" xlink:href="#mef0d42de69" y="477.828365"/>
    </g>
   </g>
   <g id="PathCollection_6">
    <defs>
     <path d="M -5.008473 -11.18034 
L 6.639575 -11.18034 
L 6.639575 -8.679629 
L -2.291535 -8.679629 
L -2.291535 -3.306861 
Q -1.647555 -3.527789 -1.003575 -3.635902 
Q -0.354894 -3.744015 0.293787 -3.744015 
Q 3.964943 -3.744015 6.108409 -1.732165 
Q 8.256576 0.279685 8.256576 3.715812 
Q 8.256576 7.255352 6.052002 9.220196 
Q 3.847428 11.18034 -0.16217 11.18034 
Q -1.544142 11.18034 -2.97782 10.945311 
Q -4.406798 10.710281 -5.934488 10.240223 
L -5.934488 7.255352 
Q -4.613624 7.974541 -3.203448 8.327085 
Q -1.793273 8.679629 -0.223278 8.679629 
Q 2.319738 8.679629 3.800422 7.344663 
Q 5.285807 6.009697 5.285807 3.715812 
Q 5.285807 1.426627 3.800422 0.091661 
Q 2.319738 -1.248005 -0.223278 -1.248005 
Q -1.412526 -1.248005 -2.597073 -0.984772 
Q -3.77692 -0.72154 -5.008473 -0.16217 
L -5.008473 -11.18034 
z
" id="mf25245eaf2" style="stroke:#808080;"/>
    </defs>
    <g clip-path="url(#p1baf01a52e)">
     <use style="fill:#808080;stroke:#808080;" x="397.075175" xlink:href="#mf25245eaf2" y="534.157731"/>
    </g>
   </g>
   <g id="PathCollection_7">
    <defs>
     <path d="M 1.286397 -1.175541 
Q -0.676687 -1.175541 -1.826823 0.168594 
Q -2.97234 1.50811 -2.97234 3.845335 
Q -2.97234 6.168702 -1.826823 7.522075 
Q -0.676687 8.870829 1.286397 8.870829 
Q 3.249481 8.870829 4.394998 7.522075 
Q 5.540515 6.168702 5.540515 3.845335 
Q 5.540515 1.50811 4.394998 0.168594 
Q 3.249481 -1.175541 1.286397 -1.175541 
z
M 7.07403 -10.316583 
L 7.07403 -7.660646 
Q 5.974703 -8.177976 4.8569 -8.450499 
Q 3.739097 -8.72764 2.63977 -8.72764 
Q -0.247118 -8.72764 -1.771394 -6.778413 
Q -3.291052 -4.829186 -3.508146 -0.889162 
Q -2.658246 -2.145535 -1.374159 -2.815293 
Q -0.085452 -3.485051 1.457301 -3.485051 
Q 4.704473 -3.485051 6.589033 -1.512729 
Q 8.473594 0.454974 8.473594 3.845335 
Q 8.473594 7.166411 6.51051 9.175685 
Q 4.547426 11.18034 1.286397 11.18034 
Q -2.45501 11.18034 -4.43195 8.316547 
Q -6.408891 5.448135 -6.408891 0.006929 
Q -6.408891 -5.101708 -3.983905 -8.141024 
Q -1.55892 -11.18034 2.524295 -11.18034 
Q 3.623622 -11.18034 4.741425 -10.963246 
Q 5.859228 -10.746152 7.07403 -10.316583 
z
" id="mae0bb8bda7" style="stroke:#808080;"/>
    </defs>
    <g clip-path="url(#p1baf01a52e)">
     <use style="fill:#808080;stroke:#808080;" x="365.413524" xlink:href="#mae0bb8bda7" y="455.075414"/>
    </g>
   </g>
   <g id="PathCollection_8">
    <defs>
     <path d="M -5.93042 -11.18034 
L 8.446356 -11.18034 
L 8.446356 -9.891222 
L 0.32827 11.18034 
L -2.829829 11.18034 
L 4.809032 -8.630858 
L -5.93042 -8.630858 
L -5.93042 -11.18034 
z
" id="m948d6bd668" style="stroke:#808080;"/>
    </defs>
    <g clip-path="url(#p1baf01a52e)">
     <use style="fill:#808080;stroke:#808080;" x="309.540859" xlink:href="#m948d6bd668" y="347.025662"/>
    </g>
   </g>
   <g id="PathCollection_9">
    <defs>
     <path d="M 1.002328 0.524259 
Q -1.076232 0.524259 -2.267939 1.637443 
Q -3.455028 2.750627 -3.455028 4.695235 
Q -3.455028 6.644461 -2.267939 7.757645 
Q -1.076232 8.870829 1.002328 8.870829 
Q 3.080887 8.870829 4.277213 7.753026 
Q 5.478159 6.630604 5.478159 4.695235 
Q 5.478159 2.750627 4.286451 1.637443 
Q 3.099363 0.524259 1.002328 0.524259 
z
M -1.912275 -0.713639 
Q -3.787597 -1.175541 -4.836115 -2.459629 
Q -5.880014 -3.748335 -5.880014 -5.595944 
Q -5.880014 -8.177976 -4.041643 -9.679158 
Q -2.198654 -11.18034 1.002328 -11.18034 
Q 4.221785 -11.18034 6.055536 -9.679158 
Q 7.889288 -8.177976 7.889288 -5.595944 
Q 7.889288 -3.748335 6.84077 -2.459629 
Q 5.796871 -1.175541 3.935406 -0.713639 
Q 6.041679 -0.224023 7.214911 1.207874 
Q 8.392761 2.635151 8.392761 4.695235 
Q 8.392761 7.83155 6.480486 9.508254 
Q 4.568212 11.18034 1.002328 11.18034 
Q -2.558938 11.18034 -4.475831 9.508254 
Q -6.388106 7.83155 -6.388106 4.695235 
Q -6.388106 2.635151 -5.205636 1.207874 
Q -4.018548 -0.224023 -1.912275 -0.713639 
z
M -2.979268 -5.318802 
Q -2.979268 -3.646717 -1.93537 -2.709056 
Q -0.886852 -1.771394 1.002328 -1.771394 
Q 2.882269 -1.771394 3.940025 -2.709056 
Q 5.0024 -3.646717 5.0024 -5.318802 
Q 5.0024 -6.995507 3.940025 -7.933168 
Q 2.882269 -8.870829 1.002328 -8.870829 
Q -0.886852 -8.870829 -1.93537 -7.933168 
Q -2.979268 -6.995507 -2.979268 -5.318802 
z
" id="m0a64322d3e" style="stroke:#808080;"/>
    </defs>
    <g clip-path="url(#p1baf01a52e)">
     <use style="fill:#808080;stroke:#808080;" x="394.989557" xlink:href="#m0a64322d3e" y="226.488423"/>
    </g>
   </g>
   <g id="PathCollection_10">
    <defs>
     <path d="M -5.117875 10.311964 
L -5.117875 7.656027 
Q -4.018548 8.177976 -2.896126 8.450499 
Q -1.769085 8.723021 -0.683615 8.723021 
Q 2.203273 8.723021 3.722931 6.783032 
Q 5.247208 4.843043 5.464302 0.884542 
Q 4.628259 2.127059 3.339552 2.792198 
Q 2.055464 3.457337 0.498854 3.457337 
Q -2.73446 3.457337 -4.619021 1.503491 
Q -6.503581 -0.454974 -6.503581 -3.849954 
Q -6.503581 -7.166411 -4.540497 -9.171066 
Q -2.577414 -11.18034 0.683615 -11.18034 
Q 4.425022 -11.18034 6.392725 -8.311928 
Q 8.365047 -5.448135 8.365047 0.006929 
Q 8.365047 5.101708 5.94468 8.141024 
Q 3.528932 11.18034 -0.554282 11.18034 
Q -1.653609 11.18034 -2.780651 10.963246 
Q -3.903073 10.746152 -5.117875 10.311964 
z
M 0.683615 1.175541 
Q 2.646699 1.175541 3.792216 -0.163975 
Q 4.942352 -1.50811 4.942352 -3.849954 
Q 4.942352 -6.173321 3.792216 -7.522075 
Q 2.646699 -8.870829 0.683615 -8.870829 
Q -1.279469 -8.870829 -2.424986 -7.522075 
Q -3.570503 -6.173321 -3.570503 -3.849954 
Q -3.570503 -1.50811 -2.424986 -0.163975 
Q -1.279469 1.175541 0.683615 1.175541 
z
" id="m651793ba66" style="stroke:#808080;"/>
    </defs>
    <g clip-path="url(#p1baf01a52e)">
     <use style="fill:#808080;stroke:#808080;" x="451.615092" xlink:href="#m651793ba66" y="109.78666"/>
    </g>
   </g>
   <g id="PathCollection_11">
    <defs>
     <path d="M -8.880215 5.210045 
L -5.893528 5.210045 
L -5.893528 -5.10286 
L -9.143831 -4.451061 
L -9.143831 -6.116769 
L -5.910909 -6.768568 
L -4.082976 -6.768568 
L -4.082976 5.210045 
L -1.096289 5.210045 
L -1.096289 6.74829 
L -8.880215 6.74829 
L -8.880215 5.210045 
z
M 6.507667 -5.563464 
Q 5.096885 -5.563464 4.384252 -4.17296 
Q 3.674515 -2.785353 3.674515 0.004345 
Q 3.674515 2.782456 4.384252 4.17296 
Q 5.096885 5.563464 6.507667 5.563464 
Q 7.930037 5.563464 8.639773 4.17296 
Q 9.352407 2.782456 9.352407 0.004345 
Q 9.352407 -2.785353 8.639773 -4.17296 
Q 7.930037 -5.563464 6.507667 -5.563464 
z
M 6.507667 -7.011906 
Q 8.781721 -7.011906 9.98103 -5.212941 
Q 11.18034 -3.416874 11.18034 0.004345 
Q 11.18034 3.416874 9.98103 5.215838 
Q 8.781721 7.011906 6.507667 7.011906 
Q 4.236511 7.011906 3.037201 5.215838 
Q 1.837891 3.416874 1.837891 0.004345 
Q 1.837891 -3.416874 3.037201 -5.212941 
Q 4.236511 -7.011906 6.507667 -7.011906 
z
" id="m36f607c314" style="stroke:#808080;"/>
    </defs>
    <g clip-path="url(#p1baf01a52e)">
     <use style="fill:#808080;stroke:#808080;" x="451.615092" xlink:href="#m36f607c314" y="109.78666"/>
    </g>
   </g>
   <g id="PathCollection_12"/>
   <g id="PathCollection_13"/>
   <g id="PathCollection_14"/>
   <g id="PathCollection_15"/>
   <g id="PathCollection_16"/>
   <g id="matplotlib.axis_1">
    <g id="xtick_1">
     <g id="line2d_1">
      <defs>
       <path d="M 0 0 
L 0 3.5 
" id="md8e251a4a7" style="stroke:#000000;stroke-width:0.8;"/>
      </defs>
      <g>
       <use style="stroke:#000000;stroke-width:0.8;" x="138.600242" xlink:href="#md8e251a4a7" y="630"/>
      </g>
     </g>
     <g id="text_1">
      <!-- −200 -->
      <g transform="translate(124.866648 644.598438)scale(0.1 -0.1)">
       <defs>
        <path d="M 678 2272 
L 4684 2272 
L 4684 1741 
L 678 1741 
L 678 2272 
z
" id="DejaVuSans-2212" transform="scale(0.015625)"/>
        <path d="M 1228 531 
L 3431 531 
L 3431 0 
L 469 0 
L 469 531 
Q 828 903 1448 1529 
Q 2069 2156 2228 2338 
Q 2531 2678 2651 2914 
Q 2772 3150 2772 3378 
Q 2772 3750 2511 3984 
Q 2250 4219 1831 4219 
Q 1534 4219 1204 4116 
Q 875 4013 500 3803 
L 500 4441 
Q 881 4594 1212 4672 
Q 1544 4750 1819 4750 
Q 2544 4750 2975 4387 
Q 3406 4025 3406 3419 
Q 3406 3131 3298 2873 
Q 3191 2616 2906 2266 
Q 2828 2175 2409 1742 
Q 1991 1309 1228 531 
z
" id="DejaVuSans-32" transform="scale(0.015625)"/>
        <path d="M 2034 4250 
Q 1547 4250 1301 3770 
Q 1056 3291 1056 2328 
Q 1056 1369 1301 889 
Q 1547 409 2034 409 
Q 2525 409 2770 889 
Q 3016 1369 3016 2328 
Q 3016 3291 2770 3770 
Q 2525 4250 2034 4250 
z
M 2034 4750 
Q 2819 4750 3233 4129 
Q 3647 3509 3647 2328 
Q 3647 1150 3233 529 
Q 2819 -91 2034 -91 
Q 1250 -91 836 529 
Q 422 1150 422 2328 
Q 422 3509 836 4129 
Q 1250 4750 2034 4750 
z
" id="DejaVuSans-30" transform="scale(0.015625)"/>
       </defs>
       <use xlink:href="#DejaVuSans-2212"/>
       <use x="83.789062" xlink:href="#DejaVuSans-32"/>
       <use x="147.412109" xlink:href="#DejaVuSans-30"/>
       <use x="211.035156" xlink:href="#DejaVuSans-30"/>
      </g>
     </g>
    </g>
    <g id="xtick_2">
     <g id="line2d_2">
      <g>
       <use style="stroke:#000000;stroke-width:0.8;" x="231.414538" xlink:href="#md8e251a4a7" y="630"/>
      </g>
     </g>
     <g id="text_2">
      <!-- −100 -->
      <g transform="translate(217.680945 644.598438)scale(0.1 -0.1)">
       <defs>
        <path d="M 794 531 
L 1825 531 
L 1825 4091 
L 703 3866 
L 703 4441 
L 1819 4666 
L 2450 4666 
L 2450 531 
L 3481 531 
L 3481 0 
L 794 0 
L 794 531 
z
" id="DejaVuSans-31" transform="scale(0.015625)"/>
       </defs>
       <use xlink:href="#DejaVuSans-2212"/>
       <use x="83.789062" xlink:href="#DejaVuSans-31"/>
       <use x="147.412109" xlink:href="#DejaVuSans-30"/>
       <use x="211.035156" xlink:href="#DejaVuSans-30"/>
      </g>
     </g>
    </g>
    <g id="xtick_3">
     <g id="line2d_3">
      <g>
       <use style="stroke:#000000;stroke-width:0.8;" x="324.228835" xlink:href="#md8e251a4a7" y="630"/>
      </g>
     </g>
     <g id="text_3">
      <!-- 0 -->
      <g transform="translate(321.047585 644.598438)scale(0.1 -0.1)">
       <use xlink:href="#DejaVuSans-30"/>
      </g>
     </g>
    </g>
    <g id="xtick_4">
     <g id="line2d_4">
      <g>
       <use style="stroke:#000000;stroke-width:0.8;" x="417.043132" xlink:href="#md8e251a4a7" y="630"/>
      </g>
     </g>
     <g id="text_4">
      <!-- 100 -->
      <g transform="translate(407.499382 644.598438)scale(0.1 -0.1)">
       <use xlink:href="#DejaVuSans-31"/>
       <use x="63.623047" xlink:href="#DejaVuSans-30"/>
       <use x="127.246094" xlink:href="#DejaVuSans-30"/>
      </g>
     </g>
    </g>
    <g id="xtick_5">
     <g id="line2d_5">
      <g>
       <use style="stroke:#000000;stroke-width:0.8;" x="509.857428" xlink:href="#md8e251a4a7" y="630"/>
      </g>
     </g>
     <g id="text_5">
      <!-- 200 -->
      <g transform="translate(500.313678 644.598438)scale(0.1 -0.1)">
       <use xlink:href="#DejaVuSans-32"/>
       <use x="63.623047" xlink:href="#DejaVuSans-30"/>
       <use x="127.246094" xlink:href="#DejaVuSans-30"/>
      </g>
     </g>
    </g>
    <g id="xtick_6">
     <g id="line2d_6">
      <g>
       <use style="stroke:#000000;stroke-width:0.8;" x="602.671725" xlink:href="#md8e251a4a7" y="630"/>
      </g>
     </g>
     <g id="text_6">
      <!-- 300 -->
      <g transform="translate(593.127975 644.598438)scale(0.1 -0.1)">
       <defs>
        <path d="M 2597 2516 
Q 3050 2419 3304 2112 
Q 3559 1806 3559 1356 
Q 3559 666 3084 287 
Q 2609 -91 1734 -91 
Q 1441 -91 1130 -33 
Q 819 25 488 141 
L 488 750 
Q 750 597 1062 519 
Q 1375 441 1716 441 
Q 2309 441 2620 675 
Q 2931 909 2931 1356 
Q 2931 1769 2642 2001 
Q 2353 2234 1838 2234 
L 1294 2234 
L 1294 2753 
L 1863 2753 
Q 2328 2753 2575 2939 
Q 2822 3125 2822 3475 
Q 2822 3834 2567 4026 
Q 2313 4219 1838 4219 
Q 1578 4219 1281 4162 
Q 984 4106 628 3988 
L 628 4550 
Q 988 4650 1302 4700 
Q 1616 4750 1894 4750 
Q 2613 4750 3031 4423 
Q 3450 4097 3450 3541 
Q 3450 3153 3228 2886 
Q 3006 2619 2597 2516 
z
" id="DejaVuSans-33" transform="scale(0.015625)"/>
       </defs>
       <use xlink:href="#DejaVuSans-33"/>
       <use x="63.623047" xlink:href="#DejaVuSans-30"/>
       <use x="127.246094" xlink:href="#DejaVuSans-30"/>
      </g>
     </g>
    </g>
   </g>
   <g id="matplotlib.axis_2">
    <g id="ytick_1">
     <g id="line2d_7">
      <defs>
       <path d="M 0 0 
L -3.5 0 
" id="m011df2a318" style="stroke:#000000;stroke-width:0.8;"/>
      </defs>
      <g>
       <use style="stroke:#000000;stroke-width:0.8;" x="90" xlink:href="#m011df2a318" y="582.653958"/>
      </g>
     </g>
     <g id="text_7">
      <!-- −200 -->
      <g transform="translate(55.532812 586.453177)scale(0.1 -0.1)">
       <use xlink:href="#DejaVuSans-2212"/>
       <use x="83.789062" xlink:href="#DejaVuSans-32"/>
       <use x="147.412109" xlink:href="#DejaVuSans-30"/>
       <use x="211.035156" xlink:href="#DejaVuSans-30"/>
      </g>
     </g>
    </g>
    <g id="ytick_2">
     <g id="line2d_8">
      <g>
       <use style="stroke:#000000;stroke-width:0.8;" x="90" xlink:href="#m011df2a318" y="492.234869"/>
      </g>
     </g>
     <g id="text_8">
      <!-- −100 -->
      <g transform="translate(55.532812 496.034088)scale(0.1 -0.1)">
       <use xlink:href="#DejaVuSans-2212"/>
       <use x="83.789062" xlink:href="#DejaVuSans-31"/>
       <use x="147.412109" xlink:href="#DejaVuSans-30"/>
       <use x="211.035156" xlink:href="#DejaVuSans-30"/>
      </g>
     </g>
    </g>
    <g id="ytick_3">
     <g id="line2d_9">
      <g>
       <use style="stroke:#000000;stroke-width:0.8;" x="90" xlink:href="#m011df2a318" y="401.81578"/>
      </g>
     </g>
     <g id="text_9">
      <!-- 0 -->
      <g transform="translate(76.6375 405.614999)scale(0.1 -0.1)">
       <use xlink:href="#DejaVuSans-30"/>
      </g>
     </g>
    </g>
    <g id="ytick_4">
     <g id="line2d_10">
      <g>
       <use style="stroke:#000000;stroke-width:0.8;" x="90" xlink:href="#m011df2a318" y="311.396691"/>
      </g>
     </g>
     <g id="text_10">
      <!-- 100 -->
      <g transform="translate(63.9125 315.19591)scale(0.1 -0.1)">
       <use xlink:href="#DejaVuSans-31"/>
       <use x="63.623047" xlink:href="#DejaVuSans-30"/>
       <use x="127.246094" xlink:href="#DejaVuSans-30"/>
      </g>
     </g>
    </g>
    <g id="ytick_5">
     <g id="line2d_11">
      <g>
       <use style="stroke:#000000;stroke-width:0.8;" x="90" xlink:href="#m011df2a318" y="220.977602"/>
      </g>
     </g>
     <g id="text_11">
      <!-- 200 -->
      <g transform="translate(63.9125 224.776821)scale(0.1 -0.1)">
       <use xlink:href="#DejaVuSans-32"/>
       <use x="63.623047" xlink:href="#DejaVuSans-30"/>
       <use x="127.246094" xlink:href="#DejaVuSans-30"/>
      </g>
     </g>
    </g>
    <g id="ytick_6">
     <g id="line2d_12">
      <g>
       <use style="stroke:#000000;stroke-width:0.8;" x="90" xlink:href="#m011df2a318" y="130.558513"/>
      </g>
     </g>
     <g id="text_12">
      <!-- 300 -->
      <g transform="translate(63.9125 134.357732)scale(0.1 -0.1)">
       <use xlink:href="#DejaVuSans-33"/>
       <use x="63.623047" xlink:href="#DejaVuSans-30"/>
       <use x="127.246094" xlink:href="#DejaVuSans-30"/>
      </g>
     </g>
    </g>
   </g>
   <g id="line2d_13">
    <path clip-path="url(#p1baf01a52e)" d="M 451.615092 109.78666 
L 447.084685 110.992138 
L 442.555457 112.202687 
L 438.027462 113.41857 
L 433.500758 114.640071 
L 428.975409 115.867491 
L 424.451486 117.101155 
L 419.929065 118.341414 
L 415.408233 119.588645 
L 410.889083 120.843257 
L 406.371721 122.105689 
L 401.856262 123.37642 
L 397.342837 124.655969 
L 392.83159 125.9449 
L 388.322685 127.243829 
L 383.816306 128.553428 
L 379.312658 129.874434 
L 374.811977 131.207655 
L 370.314529 132.553981 
L 365.820617 133.914396 
L 361.330591 135.289986 
L 356.844848 136.68196 
L 352.363853 138.091663 
L 347.888139 139.5206 
L 343.418334 140.97046 
L 338.955168 142.443146 
L 334.499504 143.94081 
L 330.052367 145.465901 
L 325.614978 147.021213 
L 321.188803 148.609958 
L 316.775623 150.23584 
L 312.377607 151.903165 
L 307.997431 153.616964 
L 303.638424 155.383157 
L 299.30477 157.208759 
L 295.001793 159.102141 
L 290.736342 161.07337 
L 286.517354 163.134636 
L 282.356643 165.300797 
L 278.270045 167.590046 
L 274.279077 170.024686 
" style="fill:none;stroke:#808080;stroke-linecap:square;stroke-width:1.5;"/>
   </g>
   <g id="line2d_14">
    <path clip-path="url(#p1baf01a52e)" d="M 274.279077 170.024686 
L 274.279077 109.78666 
L 451.615092 109.78666 
L 451.615092 170.024686 
L 274.279077 170.024686 
" style="fill:none;stroke:#d3d3d3;stroke-linecap:square;stroke-width:0.5;"/>
   </g>
   <g id="line2d_15">
    <path clip-path="url(#p1baf01a52e)" d="M 274.279077 170.024686 
L 270.413302 172.631903 
L 266.713612 175.444204 
L 263.236363 178.498684 
L 260.057383 181.833315 
L 257.272243 185.47739 
L 254.98479 189.434468 
L 253.275535 193.665163 
L 252.159321 198.089666 
L 251.567394 202.618623 
L 251.372177 207.186528 
L 251.427417 211.761321 
L 251.593523 216.334799 
L 251.744968 220.909036 
L 251.769108 225.485653 
L 251.564103 230.058299 
L 251.039834 234.607613 
L 250.123044 239.099128 
L 248.765348 243.485624 
L 246.949979 247.714625 
L 244.692409 251.738805 
L 242.033244 255.524682 
L 239.0267 259.055983 
L 235.72975 262.331772 
L 232.194991 265.361914 
L 228.467435 268.162394 
L 224.583952 270.751749 
L 220.574038 273.148801 
L 216.461046 275.371416 
L 212.263416 277.435931 
L 207.995752 279.35698 
L 203.669676 281.147516 
L 199.294509 282.818946 
L 194.877782 284.381292 
L 190.425629 285.843362 
L 185.94309 287.212905 
L 181.43434 288.496763 
L 176.90286 289.700986 
L 172.351575 290.83095 
L 167.782965 291.89144 
L 163.199138 292.886736 
" style="fill:none;stroke:#808080;stroke-linecap:square;stroke-width:1.5;"/>
   </g>
   <g id="line2d_16">
    <path clip-path="url(#p1baf01a52e)" d="M 163.199138 292.886736 
L 163.199138 170.024686 
L 274.279077 170.024686 
L 274.279077 292.886736 
L 163.199138 292.886736 
" style="fill:none;stroke:#d3d3d3;stroke-linecap:square;stroke-width:0.5;"/>
   </g>
   <g id="line2d_17">
    <path clip-path="url(#p1baf01a52e)" d="M 163.199138 292.886736 
" style="fill:none;stroke:#808080;stroke-linecap:square;stroke-width:1.5;"/>
   </g>
   <g id="line2d_18">
    <path clip-path="url(#p1baf01a52e)" d="M 163.199138 292.886736 
L 163.199138 292.886736 
L 163.199138 292.886736 
L 163.199138 292.886736 
L 163.199138 292.886736 
" style="fill:none;stroke:#d3d3d3;stroke-linecap:square;stroke-width:0.5;"/>
   </g>
   <g id="line2d_19">
    <path clip-path="url(#p1baf01a52e)" d="M 163.199138 292.886736 
L 158.609061 293.912637 
L 154.05126 295.066844 
L 149.535019 296.366488 
L 145.072859 297.832182 
L 140.681938 299.488824 
L 136.386151 301.366453 
L 132.21923 303.500943 
L 128.229216 305.933965 
L 124.484342 308.710888 
L 121.079095 311.874152 
L 118.135811 315.44894 
L 115.792079 319.421291 
L 114.165662 323.720353 
L 113.309525 328.226527 
L 113.192911 332.8093 
L 113.724607 337.365408 
L 114.792723 341.831985 
L 116.292575 346.179366 
L 118.137497 350.398632 
L 120.259546 354.491845 
L 122.606512 358.466102 
L 125.138367 362.330351 
L 127.824233 366.093808 
L 130.640033 369.765235 
L 133.566772 373.352647 
L 136.589271 376.863243 
L 139.69526 380.303424 
L 142.874702 383.678862 
L 146.1193 386.994574 
L 149.422129 390.255007 
L 152.777351 393.464102 
" style="fill:none;stroke:#808080;stroke-linecap:square;stroke-width:1.5;"/>
   </g>
   <g id="line2d_20">
    <path clip-path="url(#p1baf01a52e)" d="M 113.192911 393.464102 
L 113.192911 292.886736 
L 163.199138 292.886736 
L 163.199138 393.464102 
L 113.192911 393.464102 
" style="fill:none;stroke:#d3d3d3;stroke-linecap:square;stroke-width:0.5;"/>
   </g>
   <g id="line2d_21">
    <path clip-path="url(#p1baf01a52e)" d="M 152.777351 393.464102 
L 156.180011 396.625369 
L 159.625864 399.741935 
L 163.111251 402.816597 
L 166.632997 405.851863 
L 170.18833 408.849989 
L 173.774819 411.813009 
L 177.390318 414.742761 
L 181.032927 417.640908 
L 184.700954 420.508962 
L 188.39289 423.348296 
L 192.10738 426.16016 
L 195.843208 428.945694 
L 199.599278 431.705938 
L 203.374598 434.441841 
L 207.168272 437.154271 
L 210.979484 439.844019 
L 214.807496 442.511808 
L 218.651634 445.158295 
L 222.511288 447.784081 
L 226.385899 450.389707 
L 230.274961 452.975665 
L 234.178012 455.542396 
L 238.094634 458.090295 
L 242.024448 460.61971 
L 245.967111 463.130947 
L 249.922315 465.624267 
L 253.889785 468.099892 
L 257.869278 470.557999 
L 261.860579 472.998725 
L 265.863504 475.422164 
L 269.877898 477.828365 
" style="fill:none;stroke:#808080;stroke-linecap:square;stroke-width:1.5;"/>
   </g>
   <g id="line2d_22">
    <path clip-path="url(#p1baf01a52e)" d="M 152.777351 477.828365 
L 152.777351 393.464102 
L 269.877898 393.464102 
L 269.877898 477.828365 
L 152.777351 477.828365 
" style="fill:none;stroke:#d3d3d3;stroke-linecap:square;stroke-width:0.5;"/>
   </g>
   <g id="line2d_23">
    <path clip-path="url(#p1baf01a52e)" d="M 269.877898 477.828365 
L 273.903634 480.217333 
L 277.940614 482.589025 
L 281.988768 484.943345 
L 286.048057 487.280147 
L 290.118473 489.599223 
L 294.20004 491.900302 
L 298.292817 494.183039 
L 302.396902 496.447013 
L 306.512434 498.691707 
L 310.639595 500.916503 
L 314.778622 503.120662 
L 318.92981 505.303302 
L 323.093522 507.463373 
L 327.270198 509.599625 
L 331.460375 511.710561 
L 335.664705 513.794382 
L 339.883976 515.848908 
L 344.119151 517.871478 
L 348.371415 519.858797 
L 352.642236 521.806735 
L 356.933459 523.710015 
L 361.247442 525.561747 
L 365.587256 527.352675 
L 369.957003 529.069913 
L 374.362325 530.694656 
L 378.81126 532.197637 
L 383.31566 533.528917 
L 387.893034 534.590294 
L 392.560595 535.134563 
L 397.075175 534.157731 
" style="fill:none;stroke:#808080;stroke-linecap:square;stroke-width:1.5;"/>
   </g>
   <g id="line2d_24">
    <path clip-path="url(#p1baf01a52e)" d="M 269.877898 535.134563 
L 269.877898 477.828365 
L 397.075175 477.828365 
L 397.075175 535.134563 
L 269.877898 535.134563 
" style="fill:none;stroke:#d3d3d3;stroke-linecap:square;stroke-width:0.5;"/>
   </g>
   <g id="line2d_25">
    <path clip-path="url(#p1baf01a52e)" d="M 397.075175 534.157731 
L 401.370765 532.104268 
L 405.904252 530.573445 
L 410.477869 529.15323 
L 415.048897 527.721122 
L 419.592189 526.206982 
L 424.082546 524.550701 
L 428.485151 522.684421 
L 432.74064 520.516976 
L 436.730575 517.913571 
L 440.18995 514.677334 
L 442.535281 510.624584 
L 442.981983 506.007332 
L 441.57415 501.579472 
L 439.062306 497.654266 
L 435.954675 494.15294 
L 432.493791 490.964073 
L 428.803852 488.009891 
L 424.95567 485.238219 
L 420.992859 482.61276 
L 416.943834 480.107244 
L 412.827947 477.702015 
L 408.658863 475.381963 
L 404.446538 473.135208 
L 400.198417 470.952232 
L 395.920204 468.825278 
L 391.616351 466.747941 
L 387.290402 464.714863 
L 382.945218 462.72151 
L 378.583144 460.764012 
L 374.206124 458.839034 
L 369.81579 456.943679 
L 365.413524 455.075414 
" style="fill:none;stroke:#808080;stroke-linecap:square;stroke-width:1.5;"/>
   </g>
   <g id="line2d_26">
    <path clip-path="url(#p1baf01a52e)" d="M 365.413524 534.157731 
L 365.413524 455.075414 
L 442.981983 455.075414 
L 442.981983 534.157731 
L 365.413524 534.157731 
" style="fill:none;stroke:#d3d3d3;stroke-linecap:square;stroke-width:0.5;"/>
   </g>
   <g id="line2d_27">
    <path clip-path="url(#p1baf01a52e)" d="M 365.413524 455.075414 
L 361.118484 453.243524 
L 356.843051 451.3685 
L 352.590103 449.445466 
L 348.363139 447.468809 
L 344.166433 445.432039 
L 340.005259 443.327626 
L 335.886164 441.146801 
L 331.817351 438.879336 
L 327.809178 436.513276 
L 323.874836 434.034675 
L 320.031242 431.427346 
L 316.30022 428.672705 
L 312.709973 425.74988 
L 309.296817 422.636352 
L 306.106861 419.309576 
L 303.196896 415.750175 
L 300.633036 411.947153 
L 298.485074 407.904668 
L 296.815294 403.64791 
L 295.66387 399.223756 
L 295.03762 394.693148 
L 294.909136 390.117767 
L 295.22662 385.548194 
L 295.92779 381.01876 
L 296.951062 376.548653 
L 298.241629 372.145934 
L 299.753425 367.811675 
L 301.44883 363.543081 
L 303.297484 359.335502 
L 305.274937 355.183608 
L 307.361423 351.082026 
L 309.540859 347.025662 
" style="fill:none;stroke:#808080;stroke-linecap:square;stroke-width:1.5;"/>
   </g>
   <g id="line2d_28">
    <path clip-path="url(#p1baf01a52e)" d="M 294.909136 455.075414 
L 294.909136 347.025662 
L 365.413524 347.025662 
L 365.413524 455.075414 
L 294.909136 455.075414 
" style="fill:none;stroke:#d3d3d3;stroke-linecap:square;stroke-width:0.5;"/>
   </g>
   <g id="line2d_29">
    <path clip-path="url(#p1baf01a52e)" d="M 309.540859 347.025662 
L 311.800055 343.009833 
L 314.128095 339.030315 
L 316.515871 335.083331 
L 318.955713 331.165522 
L 321.441114 327.273903 
L 323.966509 323.405825 
L 326.527102 319.558934 
L 329.118734 315.731128 
L 331.737771 311.920532 
L 334.381022 308.125462 
L 337.045666 304.344404 
L 339.729196 300.57599 
L 342.429372 296.818979 
L 345.144179 293.07224 
L 347.871802 289.334739 
L 350.610589 285.605526 
L 353.359035 281.883725 
L 356.115761 278.168521 
L 358.879493 274.459156 
L 361.649053 270.754922 
L 364.423342 267.05515 
L 367.20133 263.359209 
L 369.982045 259.666498 
L 372.764567 255.976443 
L 375.548014 252.288493 
L 378.331541 248.602115 
L 381.114329 244.91679 
L 383.895579 241.232011 
L 386.674504 237.54728 
L 389.450327 233.862101 
L 392.222272 230.175981 
L 394.989557 226.488423 
" style="fill:none;stroke:#808080;stroke-linecap:square;stroke-width:1.5;"/>
   </g>
   <g id="line2d_30">
    <path clip-path="url(#p1baf01a52e)" d="M 309.540859 347.025662 
L 309.540859 226.488423 
L 394.989557 226.488423 
L 394.989557 347.025662 
L 309.540859 347.025662 
" style="fill:none;stroke:#d3d3d3;stroke-linecap:square;stroke-width:0.5;"/>
   </g>
   <g id="line2d_31">
    <path clip-path="url(#p1baf01a52e)" d="M 394.989557 226.488423 
L 397.751391 222.798925 
L 400.506964 219.106971 
L 403.255443 215.412032 
L 405.995962 211.713556 
L 408.727616 208.010964 
L 411.449451 204.30364 
L 414.160453 200.590927 
L 416.859537 196.872111 
L 419.545532 193.146409 
L 422.217164 189.412958 
L 424.873036 185.670791 
L 427.511598 181.918817 
L 430.131119 178.155787 
L 432.729638 174.380264 
L 435.304912 170.59057 
L 437.854332 166.784732 
L 440.37482 162.960402 
L 442.862677 159.114764 
L 445.313357 155.244399 
L 447.72114 151.345118 
L 450.078614 147.411733 
L 452.375852 143.437758 
L 454.599012 139.414992 
L 456.727861 135.332991 
L 458.731058 131.1784 
L 460.556364 126.934303 
L 462.107777 122.580343 
L 463.181786 118.097998 
L 463.233681 113.52954 
L 460.764229 109.813193 
L 456.223094 108.990926 
L 451.615092 109.78666 
" style="fill:none;stroke:#808080;stroke-linecap:square;stroke-width:1.5;"/>
   </g>
   <g id="line2d_32">
    <path clip-path="url(#p1baf01a52e)" d="M 394.989557 226.488423 
L 394.989557 108.990926 
L 463.233681 108.990926 
L 463.233681 226.488423 
L 394.989557 226.488423 
" style="fill:none;stroke:#d3d3d3;stroke-linecap:square;stroke-width:0.5;"/>
   </g>
   <g id="line2d_33">
    <path clip-path="url(#p1baf01a52e)" d="M 451.615092 109.78666 
" style="fill:none;stroke:#808080;stroke-linecap:square;stroke-width:1.5;"/>
   </g>
   <g id="line2d_34">
    <path clip-path="url(#p1baf01a52e)" d="M 451.615092 109.78666 
L 451.615092 109.78666 
L 451.615092 109.78666 
L 451.615092 109.78666 
L 451.615092 109.78666 
" style="fill:none;stroke:#d3d3d3;stroke-linecap:square;stroke-width:0.5;"/>
   </g>
   <g id="line2d_35">
    <path clip-path="url(#p1baf01a52e)" d="M 165.154832 301.725641 
L 165.154832 301.725641 
L 165.154832 301.725641 
" style="fill:none;stroke:#000000;stroke-linecap:square;stroke-width:3;"/>
   </g>
   <g id="line2d_36">
    <path clip-path="url(#p1baf01a52e)" d="M 165.154832 301.725641 
L 165.154832 301.725641 
L 165.154832 301.725641 
L 165.154832 301.725641 
L 165.154832 301.725641 
" style="fill:none;stroke:#d3d3d3;stroke-linecap:square;stroke-width:0.5;"/>
   </g>
   <g id="line2d_37">
    <path clip-path="url(#p1baf01a52e)" d="M 165.154832 301.725641 
L 165.154832 301.725641 
L 165.154832 301.725641 
" style="fill:none;stroke:#000000;stroke-linecap:square;stroke-width:3;"/>
   </g>
   <g id="line2d_38">
    <path clip-path="url(#p1baf01a52e)" d="M 165.154832 301.725641 
L 165.154832 301.725641 
L 165.154832 301.725641 
L 165.154832 301.725641 
L 165.154832 301.725641 
" style="fill:none;stroke:#d3d3d3;stroke-linecap:square;stroke-width:0.5;"/>
   </g>
   <g id="line2d_39">
    <path clip-path="url(#p1baf01a52e)" d="M 361.73198 463.375587 
L 357.35384 461.508246 
L 352.986078 459.592719 
L 348.630173 457.623117 
L 344.287961 455.592547 
L 339.96174 453.492894 
L 335.654428 451.31454 
L 331.369769 449.04601 
L 327.112649 446.673536 
L 322.889539 444.1805 
L 318.709172 441.546766 
L 314.583554 438.747918 
L 310.529495 435.754474 
L 306.570915 432.531339 
L 302.742198 429.038065 
L 299.092676 425.231049 
L 295.691571 421.069578 
L 292.630766 416.527791 
L 290.019863 411.612385 
L 287.967382 406.379024 
L 286.549809 400.93313 
L 285.785067 395.40584 
L 285.629997 389.916895 
L 286.002078 384.548638 
L 286.80733 379.342086 
L 287.959289 374.307381 
L 289.386567 369.436902 
L 291.033263 364.715071 
L 292.856511 360.124093 
L 294.823535 355.646779 
L 296.909097 351.267682 
L 299.093534 346.973406 
L 301.36131 342.752525 
" style="fill:none;stroke:#000000;stroke-linecap:square;stroke-width:3;"/>
   </g>
   <g id="line2d_40">
    <path clip-path="url(#p1baf01a52e)" d="M 285.629997 463.375587 
L 285.629997 342.752525 
L 361.73198 342.752525 
L 361.73198 463.375587 
L 285.629997 463.375587 
" style="fill:none;stroke:#d3d3d3;stroke-linecap:square;stroke-width:0.5;"/>
   </g>
   <g id="line2d_41">
    <path clip-path="url(#p1baf01a52e)" d="M 301.36131 342.752525 
L 303.69998 338.595359 
L 306.09943 334.493724 
L 308.551341 330.440688 
L 311.048785 326.430357 
L 313.585927 322.457704 
L 316.157806 318.518413 
L 318.760165 314.608763 
L 321.389318 310.725529 
L 324.042053 306.865898 
L 326.715544 303.027405 
L 329.407294 299.207881 
L 332.11508 295.405401 
L 334.836911 291.618256 
L 337.570992 287.844915 
L 340.3157 284.084002 
L 343.069553 280.334273 
L 345.831195 276.594601 
L 348.599377 272.863957 
L 351.372941 269.141397 
L 354.150808 265.426052 
L 356.931967 261.717118 
L 359.715462 258.013849 
L 362.500389 254.315545 
L 365.28588 250.621551 
L 368.071103 246.931249 
L 370.855249 243.244052 
L 373.637528 239.5594 
L 376.417164 235.876759 
L 379.193386 232.195612 
L 381.965423 228.51546 
L 384.732499 224.835815 
L 387.493824 221.1562 
" style="fill:none;stroke:#000000;stroke-linecap:square;stroke-width:3;"/>
   </g>
   <g id="line2d_42">
    <path clip-path="url(#p1baf01a52e)" d="M 301.36131 342.752525 
L 301.36131 221.1562 
L 387.493824 221.1562 
L 387.493824 342.752525 
L 301.36131 342.752525 
" style="fill:none;stroke:#d3d3d3;stroke-linecap:square;stroke-width:0.5;"/>
   </g>
   <g id="line2d_43">
    <path clip-path="url(#p1baf01a52e)" d="M 387.493824 221.1562 
L 390.248592 217.476141 
L 392.995967 213.795171 
L 395.735084 210.112819 
L 398.465033 206.428608 
L 401.184853 202.742056 
L 403.893524 199.052664 
L 406.589949 195.359915 
L 409.272945 191.663266 
L 411.94122 187.962145 
L 414.593357 184.255939 
L 417.227787 180.543986 
L 419.842753 176.825568 
L 422.43627 173.099897 
L 425.006071 169.366105 
L 427.549531 165.623232 
L 430.063572 161.870217 
L 432.544521 158.105892 
L 434.98792 154.32899 
L 437.38824 150.538181 
L 439.738458 146.732157 
L 442.029403 142.909828 
L 444.248706 139.070758 
L 446.379048 135.216102 
L 448.395076 131.35074 
L 450.257708 127.488371 
L 451.902914 123.66491 
L 453.218789 119.978896 
L 454.005372 116.741677 
L 454.111499 115.197298 
L 456.088946 117.624176 
L 456.736543 118.018989 
L 454.055673 118.510372 
" style="fill:none;stroke:#000000;stroke-linecap:square;stroke-width:3;"/>
   </g>
   <g id="line2d_44">
    <path clip-path="url(#p1baf01a52e)" d="M 387.493824 221.1562 
L 387.493824 115.197298 
L 456.736543 115.197298 
L 456.736543 221.1562 
L 387.493824 221.1562 
" style="fill:none;stroke:#d3d3d3;stroke-linecap:square;stroke-width:0.5;"/>
   </g>
   <g id="line2d_45">
    <path clip-path="url(#p1baf01a52e)" d="M 454.055673 118.510372 
L 454.055673 118.510372 
" style="fill:none;stroke:#000000;stroke-linecap:square;stroke-width:3;"/>
   </g>
   <g id="line2d_46">
    <path clip-path="url(#p1baf01a52e)" d="M 454.055673 118.510372 
L 454.055673 118.510372 
L 454.055673 118.510372 
L 454.055673 118.510372 
L 454.055673 118.510372 
" style="fill:none;stroke:#d3d3d3;stroke-linecap:square;stroke-width:0.5;"/>
   </g>
   <g id="line2d_47">
    <path clip-path="url(#p1baf01a52e)" d="M 165.154832 301.725641 
L 160.808987 302.696885 
L 156.527044 303.781137 
L 152.324619 304.990333 
L 148.222064 306.337703 
L 144.246085 307.837486 
L 140.431815 309.504179 
L 136.825171 311.350927 
L 133.484821 313.386613 
L 130.481812 315.611542 
L 127.893131 318.013415 
L 125.785468 320.569501 
L 124.194046 323.263108 
L 123.117944 326.106945 
L 122.543654 329.138213 
L 122.463677 332.376001 
L 122.864795 335.793995 
L 123.71352 339.336013 
L 124.95931 342.943543 
L 126.546016 346.570442 
L 128.420595 350.185268 
L 130.536998 353.768477 
L 132.856896 357.308835 
L 135.348988 360.800521 
L 137.987874 364.241104 
L 140.752928 367.630216 
L 143.627326 370.968711 
L 146.597256 374.258132 
L 149.651291 377.500387 
L 152.77991 380.697544 
L 155.975114 383.851707 
L 159.230134 386.964944 
" style="fill:none;stroke:#000000;stroke-linecap:square;stroke-width:3;"/>
   </g>
   <g id="line2d_48">
    <path clip-path="url(#p1baf01a52e)" d="M 122.463677 386.964944 
L 122.463677 301.725641 
L 165.154832 301.725641 
L 165.154832 386.964944 
L 122.463677 386.964944 
" style="fill:none;stroke:#d3d3d3;stroke-linecap:square;stroke-width:0.5;"/>
   </g>
   <g id="line2d_49">
    <path clip-path="url(#p1baf01a52e)" d="M 159.230134 386.964944 
L 162.539202 390.039243 
L 165.897369 393.076488 
L 169.300359 396.078453 
L 172.744462 399.046793 
L 176.226433 401.983048 
L 179.743427 404.888648 
L 183.292932 407.764917 
L 186.872722 410.61308 
L 190.480817 413.43427 
L 194.11545 416.229531 
L 197.775035 418.999829 
L 201.458145 421.746053 
L 205.163496 424.469023 
L 208.889925 427.169494 
L 212.636378 429.84816 
L 216.401896 432.505658 
L 220.185607 435.142572 
L 223.986716 437.759435 
L 227.804496 440.356733 
L 231.638282 442.934904 
L 235.487466 445.494346 
L 239.351492 448.035412 
L 243.229847 450.558416 
L 247.122064 453.063632 
L 251.027715 455.551293 
L 254.946406 458.021597 
L 258.87778 460.474698 
L 262.821509 462.910714 
L 266.777294 465.329722 
L 270.744866 467.731757 
L 274.723981 470.116812 
" style="fill:none;stroke:#000000;stroke-linecap:square;stroke-width:3;"/>
   </g>
   <g id="line2d_50">
    <path clip-path="url(#p1baf01a52e)" d="M 159.230134 470.116812 
L 159.230134 386.964944 
L 274.723981 386.964944 
L 274.723981 470.116812 
L 159.230134 470.116812 
" style="fill:none;stroke:#d3d3d3;stroke-linecap:square;stroke-width:0.5;"/>
   </g>
   <g id="line2d_51">
    <path clip-path="url(#p1baf01a52e)" d="M 274.723981 470.116812 
L 278.714418 472.484832 
L 282.715982 474.835717 
L 286.728499 477.169313 
L 290.751819 479.485409 
L 294.785811 481.783733 
L 298.830364 484.063944 
L 302.885387 486.325624 
L 306.950808 488.568269 
L 311.026572 490.791274 
L 315.11264 492.993919 
L 319.208989 495.175351 
L 323.315606 497.334557 
L 327.432489 499.470336 
L 331.559638 501.581258 
L 335.697046 503.665612 
L 339.844689 505.72134 
L 344.002502 507.745944 
L 348.170348 509.736364 
L 352.347959 511.688801 
L 356.534847 513.598467 
L 360.730142 515.459215 
L 364.932302 517.26297 
L 369.138559 518.998819 
L 373.343804 520.651477 
L 377.538147 522.198533 
L 381.700937 523.605123 
L 385.783769 524.812559 
L 389.649909 525.71185 
L 392.760422 526.09475 
L 391.511351 526.920529 
L 391.511351 526.920529 
" style="fill:none;stroke:#000000;stroke-linecap:square;stroke-width:3;"/>
   </g>
   <g id="line2d_52">
    <path clip-path="url(#p1baf01a52e)" d="M 274.723981 526.920529 
L 274.723981 470.116812 
L 392.760422 470.116812 
L 392.760422 526.920529 
L 274.723981 526.920529 
" style="fill:none;stroke:#d3d3d3;stroke-linecap:square;stroke-width:0.5;"/>
   </g>
   <g id="line2d_53">
    <path clip-path="url(#p1baf01a52e)" d="M 391.511351 526.920529 
" style="fill:none;stroke:#000000;stroke-linecap:square;stroke-width:3;"/>
   </g>
   <g id="line2d_54">
    <path clip-path="url(#p1baf01a52e)" d="M 391.511351 526.920529 
L 391.511351 526.920529 
L 391.511351 526.920529 
L 391.511351 526.920529 
L 391.511351 526.920529 
" style="fill:none;stroke:#d3d3d3;stroke-linecap:square;stroke-width:0.5;"/>
   </g>
   <g id="line2d_55">
    <path clip-path="url(#p1baf01a52e)" d="M 454.055673 118.510372 
L 454.055673 118.510372 
L 449.535183 119.71321 
L 445.016373 120.920975 
L 440.499333 122.133917 
L 435.98416 123.352306 
L 431.470961 124.57643 
L 426.959853 125.806599 
L 422.450965 127.043147 
L 417.944439 128.286431 
L 413.440433 129.536839 
L 408.93912 130.794785 
L 404.440695 132.060723 
L 399.945373 133.335139 
L 395.453395 134.618565 
L 390.965031 135.911576 
L 386.480585 137.2148 
L 382.0004 138.528924 
L 377.524862 139.854697 
L 373.054411 141.192941 
L 368.589548 142.544561 
L 364.130847 143.910553 
L 359.678965 145.292019 
L 355.234662 146.690177 
L 350.798817 148.106385 
L 346.372456 149.542151 
L 341.956777 150.999165 
L 337.553194 152.479322 
L 333.163378 153.984751 
L 328.789324 155.51786 
L 324.433425 157.081374 
L 320.098574 158.678391 
L 315.788298 160.312443 
L 311.50693 161.987569 
L 307.259845 163.708395 
L 303.05377 165.480226 
L 298.897211 167.309144 
L 294.801032 169.202093 
L 290.77924 171.166935 
L 286.850064 173.21243 
L 283.037385 175.348041 
L 279.372553 177.583414 
" style="fill:none;stroke:#000000;stroke-linecap:square;stroke-width:3;"/>
   </g>
   <g id="line2d_56">
    <path clip-path="url(#p1baf01a52e)" d="M 279.372553 177.583414 
L 279.372553 118.510372 
L 454.055673 118.510372 
L 454.055673 177.583414 
L 279.372553 177.583414 
" style="fill:none;stroke:#d3d3d3;stroke-linecap:square;stroke-width:0.5;"/>
   </g>
   <g id="line2d_57">
    <path clip-path="url(#p1baf01a52e)" d="M 279.372553 177.583414 
L 275.896465 179.927296 
L 272.66127 182.385653 
L 269.729975 184.959132 
L 267.170478 187.641732 
L 265.040038 190.426284 
L 263.363598 193.323993 
L 262.126002 196.388406 
L 261.291649 199.703872 
L 260.819987 203.330817 
L 260.653168 207.274491 
L 260.705136 211.505693 
L 260.868248 215.99118 
L 261.024051 220.705738 
L 261.049376 225.628706 
L 260.819641 230.733209 
L 260.214775 235.973363 
L 259.13184 241.274554 
L 257.503479 246.533775 
L 255.313682 251.634881 
L 252.599392 256.473882 
L 249.434872 260.980238 
L 245.908311 265.12329 
L 242.102925 268.905057 
L 238.087639 272.347746 
L 233.915423 275.482754 
L 229.625425 278.343492 
L 225.246109 280.961608 
L 220.798142 283.365417 
L 216.296628 285.579522 
L 211.752741 287.625006 
L 207.174865 289.519835 
L 202.569382 291.279308 
L 197.941227 292.916487 
L 193.29427 294.442563 
L 188.631585 295.867174 
L 183.955649 297.198658 
L 179.26848 298.444273 
L 174.571737 299.610365 
L 169.866801 300.702511 
L 165.154832 301.725641 
" style="fill:none;stroke:#000000;stroke-linecap:square;stroke-width:3;"/>
   </g>
   <g id="line2d_58">
    <path clip-path="url(#p1baf01a52e)" d="M 165.154832 301.725641 
L 165.154832 177.583414 
L 279.372553 177.583414 
L 279.372553 301.725641 
L 165.154832 301.725641 
" style="fill:none;stroke:#d3d3d3;stroke-linecap:square;stroke-width:0.5;"/>
   </g>
   <g id="line2d_59">
    <path clip-path="url(#p1baf01a52e)" d="M 391.511351 526.920529 
L 391.511351 526.920529 
L 398.064754 523.655407 
L 403.03302 521.975065 
L 407.675218 520.533401 
L 412.146198 519.132774 
L 416.467186 517.692993 
L 420.613094 516.164267 
L 424.51987 514.509231 
L 428.064679 512.706378 
L 431.018313 510.786961 
L 432.995006 508.965393 
L 433.717675 507.801984 
L 433.771889 507.126216 
L 433.220636 505.520292 
L 431.658963 503.107614 
L 429.289176 500.445059 
L 426.381299 497.768268 
L 423.114108 495.153577 
L 419.598081 492.621628 
L 415.902969 490.17378 
L 412.074447 487.804853 
L 408.143538 485.507807 
L 404.132028 483.275498 
L 400.055677 481.101305 
L 395.926186 478.979313 
L 391.752444 476.904316 
L 387.541342 474.87176 
L 383.298315 472.877662 
L 379.027723 470.918535 
L 374.73311 468.991316 
L 370.417393 467.093302 
L 366.083002 465.222102 
L 361.73198 463.375587 
" style="fill:none;stroke:#000000;stroke-linecap:square;stroke-width:3;"/>
   </g>
   <g id="line2d_60">
    <path clip-path="url(#p1baf01a52e)" d="M 361.73198 526.920529 
L 361.73198 463.375587 
L 433.771889 463.375587 
L 433.771889 526.920529 
L 361.73198 526.920529 
" style="fill:none;stroke:#d3d3d3;stroke-linecap:square;stroke-width:0.5;"/>
   </g>
   <g id="line2d_61">
    <path clip-path="url(#p1baf01a52e)" d="M 361.73198 463.375587 
L 361.73198 463.375587 
L 361.73198 463.375587 
" style="fill:none;stroke:#000000;stroke-linecap:square;stroke-width:3;"/>
   </g>
   <g id="line2d_62">
    <path clip-path="url(#p1baf01a52e)" d="M 361.73198 463.375587 
L 361.73198 463.375587 
L 361.73198 463.375587 
L 361.73198 463.375587 
L 361.73198 463.375587 
" style="fill:none;stroke:#d3d3d3;stroke-linecap:square;stroke-width:0.5;"/>
   </g>
   <g id="line2d_63">
    <path clip-path="url(#p1baf01a52e)" d="M 361.73198 463.375587 
L 361.73198 463.375587 
L 361.73198 463.375587 
" style="fill:none;stroke:#000000;stroke-linecap:square;stroke-width:3;"/>
   </g>
   <g id="line2d_64">
    <path clip-path="url(#p1baf01a52e)" d="M 361.73198 463.375587 
L 361.73198 463.375587 
L 361.73198 463.375587 
L 361.73198 463.375587 
L 361.73198 463.375587 
" style="fill:none;stroke:#d3d3d3;stroke-linecap:square;stroke-width:0.5;"/>
   </g>
   <g id="line2d_65">
    <path clip-path="url(#p1baf01a52e)" d="M 161.243444 284.047832 
L 161.243444 284.047832 
L 161.243444 284.047832 
" style="fill:none;stroke:#000000;stroke-linecap:square;stroke-width:3;"/>
   </g>
   <g id="line2d_66">
    <path clip-path="url(#p1baf01a52e)" d="M 161.243444 284.047832 
L 161.243444 284.047832 
L 161.243444 284.047832 
L 161.243444 284.047832 
L 161.243444 284.047832 
" style="fill:none;stroke:#d3d3d3;stroke-linecap:square;stroke-width:0.5;"/>
   </g>
   <g id="line2d_67">
    <path clip-path="url(#p1baf01a52e)" d="M 161.243444 284.047832 
L 161.243444 284.047832 
L 161.243444 284.047832 
" style="fill:none;stroke:#000000;stroke-linecap:square;stroke-width:3;"/>
   </g>
   <g id="line2d_68">
    <path clip-path="url(#p1baf01a52e)" d="M 161.243444 284.047832 
L 161.243444 284.047832 
L 161.243444 284.047832 
L 161.243444 284.047832 
L 161.243444 284.047832 
" style="fill:none;stroke:#d3d3d3;stroke-linecap:square;stroke-width:0.5;"/>
   </g>
   <g id="line2d_69">
    <path clip-path="url(#p1baf01a52e)" d="M 161.243444 284.047832 
L 156.409134 285.128389 
L 151.575476 286.352552 
L 146.74542 287.742642 
L 141.923654 289.326661 
L 137.117791 291.140162 
L 132.340487 293.228727 
L 127.613288 295.650959 
L 122.973611 298.481318 
L 118.486873 301.810234 
L 114.26506 305.734888 
L 110.486155 310.328378 
L 107.390112 315.579473 
L 105.21338 321.333761 
L 104.075395 327.314841 
L 103.922144 333.2426 
L 104.584419 338.93682 
L 105.871925 344.327957 
L 107.625839 349.415189 
L 109.728979 354.226823 
L 112.098497 358.798422 
L 114.676025 363.163727 
L 117.419838 367.351867 
L 120.299478 371.387096 
L 123.292193 375.289365 
L 126.380615 379.075077 
L 129.551215 382.757775 
L 132.793264 386.348716 
L 136.098113 389.857336 
L 139.458691 393.291604 
L 142.869143 396.658306 
L 146.324569 399.963261 
" style="fill:none;stroke:#000000;stroke-linecap:square;stroke-width:3;"/>
   </g>
   <g id="line2d_70">
    <path clip-path="url(#p1baf01a52e)" d="M 103.922144 399.963261 
L 103.922144 284.047832 
L 161.243444 284.047832 
L 161.243444 399.963261 
L 103.922144 399.963261 
" style="fill:none;stroke:#d3d3d3;stroke-linecap:square;stroke-width:0.5;"/>
   </g>
   <g id="line2d_71">
    <path clip-path="url(#p1baf01a52e)" d="M 146.324569 399.963261 
L 149.82082 403.211496 
L 153.354359 406.407381 
L 156.922142 409.55474 
L 160.521532 412.656933 
L 164.150227 415.716931 
L 167.806211 418.737371 
L 171.487705 421.720605 
L 175.193132 424.668737 
L 178.921091 427.583655 
L 182.670329 430.467061 
L 186.439725 433.320491 
L 190.228271 436.145335 
L 194.03506 438.942853 
L 197.859271 441.714188 
L 201.700166 444.460382 
L 205.557072 447.18238 
L 209.429385 449.881043 
L 213.316553 452.557155 
L 217.21808 455.211429 
L 221.133516 457.84451 
L 225.062455 460.456985 
L 229.004533 463.049381 
L 232.959422 465.622174 
L 236.926832 468.175788 
L 240.906507 470.7106 
L 244.898224 473.226938 
L 248.90179 475.725086 
L 252.917046 478.205284 
L 256.943863 480.667729 
L 260.982141 483.112572 
L 265.031815 485.539919 
" style="fill:none;stroke:#000000;stroke-linecap:square;stroke-width:3;"/>
   </g>
   <g id="line2d_72">
    <path clip-path="url(#p1baf01a52e)" d="M 146.324569 485.539919 
L 146.324569 399.963261 
L 265.031815 399.963261 
L 265.031815 485.539919 
L 146.324569 485.539919 
" style="fill:none;stroke:#d3d3d3;stroke-linecap:square;stroke-width:0.5;"/>
   </g>
   <g id="line2d_73">
    <path clip-path="url(#p1baf01a52e)" d="M 265.031815 485.539919 
L 269.09285 487.949835 
L 273.165246 490.342332 
L 277.249036 492.717378 
L 281.344294 495.074886 
L 285.451134 497.414714 
L 289.569715 499.73666 
L 293.700247 502.040455 
L 297.842996 504.325756 
L 301.998295 506.59214 
L 306.16655 508.839087 
L 310.348256 511.065973 
L 314.544015 513.272046 
L 318.754554 515.45641 
L 322.980758 517.617992 
L 327.223705 519.75551 
L 331.48472 521.867423 
L 335.765449 523.951872 
L 340.067955 526.006591 
L 344.394872 528.028793 
L 348.749625 530.015003 
L 353.136777 531.960816 
L 357.562583 533.860524 
L 362.035954 535.70653 
L 366.570201 537.48835 
L 371.186502 539.19078 
L 375.921582 540.790151 
L 380.847551 542.245276 
L 386.13616 543.468737 
L 392.360767 544.174376 
L 402.639 541.394933 
L 402.639 541.394933 
" style="fill:none;stroke:#000000;stroke-linecap:square;stroke-width:3;"/>
   </g>
   <g id="line2d_74">
    <path clip-path="url(#p1baf01a52e)" d="M 265.031815 544.174376 
L 265.031815 485.539919 
L 402.639 485.539919 
L 402.639 544.174376 
L 265.031815 544.174376 
" style="fill:none;stroke:#d3d3d3;stroke-linecap:square;stroke-width:0.5;"/>
   </g>
   <g id="line2d_75">
    <path clip-path="url(#p1baf01a52e)" d="M 402.639 541.394933 
" style="fill:none;stroke:#000000;stroke-linecap:square;stroke-width:3;"/>
   </g>
   <g id="line2d_76">
    <path clip-path="url(#p1baf01a52e)" d="M 402.639 541.394933 
L 402.639 541.394933 
L 402.639 541.394933 
L 402.639 541.394933 
L 402.639 541.394933 
" style="fill:none;stroke:#d3d3d3;stroke-linecap:square;stroke-width:0.5;"/>
   </g>
   <g id="line2d_77">
    <path clip-path="url(#p1baf01a52e)" d="M 402.639 541.394933 
L 402.639 541.394933 
L 404.676775 540.553128 
L 408.775484 539.171826 
L 413.28052 537.773058 
L 417.951595 536.30947 
L 422.717192 534.72097 
L 427.551997 532.937135 
L 432.450431 530.859611 
L 437.416601 528.327574 
L 442.442838 525.040182 
L 447.384894 520.389276 
L 451.352888 513.447183 
L 452.192077 504.888449 
L 449.927664 497.638653 
L 446.465649 492.200918 
L 442.620174 487.860821 
L 438.606282 484.159878 
L 434.493596 480.866205 
L 430.313259 477.85481 
L 426.082748 475.05174 
L 421.813221 472.409635 
L 417.512356 469.896222 
L 413.185699 467.488428 
L 408.837398 465.169112 
L 404.470648 462.92515 
L 400.087963 460.74624 
L 395.691361 458.624123 
L 391.282489 456.552064 
L 386.862713 454.524485 
L 382.433178 452.536708 
L 377.994855 450.584765 
L 373.548579 448.665256 
L 369.095069 446.775241 
" style="fill:none;stroke:#000000;stroke-linecap:square;stroke-width:3;"/>
   </g>
   <g id="line2d_78">
    <path clip-path="url(#p1baf01a52e)" d="M 369.095069 541.394933 
L 369.095069 446.775241 
L 452.192077 446.775241 
L 452.192077 541.394933 
L 369.095069 541.394933 
" style="fill:none;stroke:#d3d3d3;stroke-linecap:square;stroke-width:0.5;"/>
   </g>
   <g id="line2d_79">
    <path clip-path="url(#p1baf01a52e)" d="M 449.174511 101.062949 
L 449.174511 101.062949 
L 444.634187 102.271065 
L 440.094541 103.484399 
L 435.555591 104.703224 
L 431.017356 105.927836 
L 426.479858 107.158551 
L 421.943119 108.39571 
L 417.407166 109.639681 
L 412.872027 110.890859 
L 408.337734 112.149675 
L 403.804321 113.416593 
L 399.271829 114.692118 
L 394.7403 115.976799 
L 390.209785 117.271236 
L 385.68034 118.576082 
L 381.152026 119.892056 
L 376.624917 121.219943 
L 372.099093 122.560613 
L 367.574647 123.915022 
L 363.051687 125.284231 
L 358.530334 126.669419 
L 354.010731 128.071901 
L 349.493043 129.493148 
L 344.977461 130.934816 
L 340.464212 132.398769 
L 335.953558 133.887126 
L 331.445815 135.402299 
L 326.941356 136.947051 
L 322.440631 138.524567 
L 317.944181 140.138542 
L 313.452671 141.793289 
L 308.966916 143.493887 
L 304.487932 145.24636 
L 300.017003 147.05792 
L 295.555771 148.937291 
L 291.106374 150.895137 
L 286.671652 152.944646 
L 282.255468 155.102337 
L 277.863221 157.389164 
L 273.502705 159.832051 
L 269.185601 162.465959 
" style="fill:none;stroke:#000000;stroke-linecap:square;stroke-width:3;"/>
   </g>
   <g id="line2d_80">
    <path clip-path="url(#p1baf01a52e)" d="M 269.185601 162.465959 
L 269.185601 101.062949 
L 449.174511 101.062949 
L 449.174511 162.465959 
L 269.185601 162.465959 
" style="fill:none;stroke:#d3d3d3;stroke-linecap:square;stroke-width:0.5;"/>
   </g>
   <g id="line2d_81">
    <path clip-path="url(#p1baf01a52e)" d="M 269.185601 162.465959 
L 264.930139 165.33651 
L 260.765954 168.502756 
L 256.742751 172.038235 
L 252.944287 176.024899 
L 249.504448 180.528497 
L 246.605983 185.544943 
L 244.425067 190.941921 
L 243.026994 196.47546 
L 242.3148 201.906429 
L 242.091187 207.098566 
L 242.149697 212.016949 
L 242.318798 216.678418 
L 242.465884 221.112333 
L 242.48884 225.342599 
L 242.308565 229.38339 
L 241.864894 233.241864 
L 241.114248 236.923702 
L 240.027216 240.437474 
L 238.586277 243.794368 
L 236.785426 247.003728 
L 234.631615 250.069126 
L 232.145089 252.988675 
L 229.356574 255.758486 
L 226.302342 258.376081 
L 223.019447 260.842033 
L 219.54248 263.160006 
L 215.901967 265.335994 
L 212.12395 267.377415 
L 208.230205 269.292341 
L 204.238763 271.088953 
L 200.164488 272.775197 
L 196.019637 274.358584 
L 191.814336 275.846098 
L 187.556988 277.24416 
L 183.254596 278.558637 
L 178.913031 279.794867 
L 174.53724 280.957699 
L 170.131414 282.051535 
L 165.699128 283.080369 
L 161.243444 284.047832 
" style="fill:none;stroke:#000000;stroke-linecap:square;stroke-width:3;"/>
   </g>
   <g id="line2d_82">
    <path clip-path="url(#p1baf01a52e)" d="M 161.243444 284.047832 
L 161.243444 162.465959 
L 269.185601 162.465959 
L 269.185601 284.047832 
L 161.243444 284.047832 
" style="fill:none;stroke:#d3d3d3;stroke-linecap:square;stroke-width:0.5;"/>
   </g>
   <g id="line2d_83">
    <path clip-path="url(#p1baf01a52e)" d="M 369.095069 446.775241 
L 364.883128 444.978803 
L 360.700024 443.144281 
L 356.550034 441.267816 
L 352.438316 439.345071 
L 348.371126 437.371184 
L 344.35609 435.340711 
L 340.402559 433.247592 
L 336.522053 431.085135 
L 332.728817 428.846051 
L 329.040499 426.522585 
L 325.478931 424.106774 
L 322.070944 421.590936 
L 318.84903 418.968421 
L 315.851436 416.23464 
L 313.121047 413.388103 
L 310.702221 410.430772 
L 308.635306 407.366515 
L 306.950285 404.196951 
L 305.663205 400.916796 
L 304.777932 397.514383 
L 304.290173 393.980457 
L 304.188275 390.318639 
L 304.451163 386.547751 
L 305.04825 382.695435 
L 305.942835 378.789925 
L 307.09669 374.854966 
L 308.473587 370.908279 
L 310.041149 366.962069 
L 311.771434 363.024225 
L 313.640777 359.099534 
L 315.629312 355.190646 
L 317.720408 351.298799 
" style="fill:none;stroke:#000000;stroke-linecap:square;stroke-width:3;"/>
   </g>
   <g id="line2d_84">
    <path clip-path="url(#p1baf01a52e)" d="M 304.188275 446.775241 
L 304.188275 351.298799 
L 369.095069 351.298799 
L 369.095069 446.775241 
L 304.188275 446.775241 
" style="fill:none;stroke:#d3d3d3;stroke-linecap:square;stroke-width:0.5;"/>
   </g>
   <g id="line2d_85">
    <path clip-path="url(#p1baf01a52e)" d="M 317.720408 351.298799 
L 319.900131 347.424308 
L 322.156761 343.566907 
L 324.4804 339.725975 
L 326.862641 335.900686 
L 329.296302 332.090101 
L 331.775213 328.293238 
L 334.29404 324.509104 
L 336.848149 320.736727 
L 339.433489 316.975166 
L 342.0465 313.223519 
L 344.684038 309.480927 
L 347.343313 305.746579 
L 350.021833 302.019701 
L 352.717366 298.299564 
L 355.427903 294.585476 
L 358.151624 290.87678 
L 360.886875 287.172848 
L 363.632144 283.473085 
L 366.386045 279.776916 
L 369.147298 276.083793 
L 371.914718 272.393182 
L 374.687198 268.704569 
L 377.463702 265.017451 
L 380.243253 261.331335 
L 383.024925 257.645737 
L 385.807834 253.960178 
L 388.591131 250.274179 
L 391.373993 246.587263 
L 394.155622 242.898947 
L 396.935231 239.208742 
L 399.712045 235.516147 
L 402.48529 231.820647 
" style="fill:none;stroke:#000000;stroke-linecap:square;stroke-width:3;"/>
   </g>
   <g id="line2d_86">
    <path clip-path="url(#p1baf01a52e)" d="M 317.720408 351.298799 
L 317.720408 231.820647 
L 402.48529 231.820647 
L 402.48529 351.298799 
L 317.720408 351.298799 
" style="fill:none;stroke:#d3d3d3;stroke-linecap:square;stroke-width:0.5;"/>
   </g>
   <g id="line2d_87">
    <path clip-path="url(#p1baf01a52e)" d="M 402.48529 231.820647 
L 405.254191 228.121708 
L 408.017961 224.41877 
L 410.775802 220.711245 
L 413.526891 216.998503 
L 416.270379 213.279871 
L 419.005377 209.554617 
L 421.730956 205.82194 
L 424.446129 202.080955 
L 427.149844 198.330673 
L 429.840971 194.569978 
L 432.518284 190.797597 
L 435.180443 187.012066 
L 437.825967 183.211678 
L 440.453205 179.394423 
L 443.060292 175.557908 
L 445.645091 171.699246 
L 448.205119 167.814913 
L 450.737433 163.900538 
L 453.238474 159.950617 
L 455.703822 155.958078 
L 458.127826 151.913639 
L 460.502998 147.804758 
L 462.818976 143.613881 
L 465.060647 139.315242 
L 467.204409 134.86843 
L 469.209815 130.203696 
L 470.996765 125.181791 
L 472.358201 119.454319 
L 472.355864 111.861783 
L 465.439512 102.00221 
L 455.709645 99.962863 
L 449.174511 101.062949 
" style="fill:none;stroke:#000000;stroke-linecap:square;stroke-width:3;"/>
   </g>
   <g id="line2d_88">
    <path clip-path="url(#p1baf01a52e)" d="M 402.48529 231.820647 
L 402.48529 99.962863 
L 472.358201 99.962863 
L 472.358201 231.820647 
L 402.48529 231.820647 
" style="fill:none;stroke:#d3d3d3;stroke-linecap:square;stroke-width:0.5;"/>
   </g>
   <g id="line2d_89">
    <path clip-path="url(#p1baf01a52e)" d="M 449.174511 101.062949 
L 449.174511 101.062949 
" style="fill:none;stroke:#000000;stroke-linecap:square;stroke-width:3;"/>
   </g>
   <g id="line2d_90">
    <path clip-path="url(#p1baf01a52e)" d="M 449.174511 101.062949 
L 449.174511 101.062949 
L 449.174511 101.062949 
L 449.174511 101.062949 
L 449.174511 101.062949 
" style="fill:none;stroke:#d3d3d3;stroke-linecap:square;stroke-width:0.5;"/>
   </g>
   <g id="line2d_91">
    <path clip-path="url(#p1baf01a52e)" d="M 369.095069 446.775241 
L 369.095069 446.775241 
L 369.095069 446.775241 
" style="fill:none;stroke:#000000;stroke-linecap:square;stroke-width:3;"/>
   </g>
   <g id="line2d_92">
    <path clip-path="url(#p1baf01a52e)" d="M 369.095069 446.775241 
L 369.095069 446.775241 
L 369.095069 446.775241 
L 369.095069 446.775241 
L 369.095069 446.775241 
" style="fill:none;stroke:#d3d3d3;stroke-linecap:square;stroke-width:0.5;"/>
   </g>
   <g id="line2d_93">
    <path clip-path="url(#p1baf01a52e)" d="M 369.095069 446.775241 
L 369.095069 446.775241 
L 369.095069 446.775241 
" style="fill:none;stroke:#000000;stroke-linecap:square;stroke-width:3;"/>
   </g>
   <g id="line2d_94">
    <path clip-path="url(#p1baf01a52e)" d="M 369.095069 446.775241 
L 369.095069 446.775241 
L 369.095069 446.775241 
L 369.095069 446.775241 
L 369.095069 446.775241 
" style="fill:none;stroke:#d3d3d3;stroke-linecap:square;stroke-width:0.5;"/>
   </g>
   <g id="line2d_95">
    <path clip-path="url(#p1baf01a52e)" d="M 274.279077 156.461823 
L 276.059401 156.573174 
L 277.810493 156.905398 
L 279.503598 157.453041 
L 281.110918 158.20711 
L 282.606058 159.155223 
L 283.96447 160.281812 
L 285.163848 161.568379 
L 286.184498 162.993799 
L 287.009662 164.534665 
L 287.625789 166.165677 
L 288.022764 167.860055 
L 288.194069 169.589975 
L 288.136889 171.327033 
L 287.852164 173.042707 
L 287.34457 174.708825 
L 286.622441 176.29803 
L 285.697634 177.784226 
L 284.585334 179.143011 
L 283.303806 180.352074 
L 281.874093 181.391561 
L 280.319669 182.244404 
L 278.666059 182.8966 
L 276.940415 183.337439 
L 275.171072 183.559683 
L 273.387082 183.559683 
L 271.617739 183.337439 
L 269.892095 182.8966 
L 268.238485 182.244404 
L 266.684061 181.391561 
L 265.254348 180.352074 
L 263.97282 179.143011 
L 262.86052 177.784226 
L 261.935713 176.29803 
L 261.213584 174.708825 
L 260.70599 173.042707 
L 260.421265 171.327033 
L 260.364085 169.589975 
L 260.53539 167.860055 
L 260.932365 166.165677 
L 261.548492 164.534665 
L 262.373656 162.993799 
L 263.394306 161.568379 
L 264.593684 160.281812 
L 265.952096 159.155223 
L 267.447236 158.20711 
L 269.054556 157.453041 
L 270.747661 156.905398 
L 272.498753 156.573174 
L 274.279077 156.461823 
" style="fill:none;stroke:#808080;stroke-linecap:square;stroke-width:1.5;"/>
   </g>
   <g id="line2d_96">
    <path clip-path="url(#p1baf01a52e)" d="M 163.199138 279.323873 
L 164.979462 279.435224 
L 166.730554 279.767448 
L 168.42366 280.315091 
L 170.030979 281.06916 
L 171.526119 282.017273 
L 172.884531 283.143862 
L 174.083909 284.430429 
L 175.104559 285.855849 
L 175.929723 287.396715 
L 176.54585 289.027728 
L 176.942825 290.722105 
L 177.11413 292.452025 
L 177.05695 294.189083 
L 176.772225 295.904757 
L 176.264631 297.570875 
L 175.542502 299.16008 
L 174.617695 300.646276 
L 173.505395 302.005061 
L 172.223867 303.214124 
L 170.794154 304.253611 
L 169.23973 305.106454 
L 167.58612 305.75865 
L 165.860476 306.199489 
L 164.091133 306.421733 
L 162.307143 306.421733 
L 160.5378 306.199489 
L 158.812156 305.75865 
L 157.158546 305.106454 
L 155.604122 304.253611 
L 154.174409 303.214124 
L 152.892881 302.005061 
L 151.780581 300.646276 
L 150.855774 299.16008 
L 150.133645 297.570875 
L 149.626051 295.904757 
L 149.341326 294.189083 
L 149.284147 292.452025 
L 149.455451 290.722105 
L 149.852426 289.027728 
L 150.468553 287.396715 
L 151.293717 285.855849 
L 152.314367 284.430429 
L 153.513745 283.143862 
L 154.872157 282.017273 
L 156.367297 281.06916 
L 157.974617 280.315091 
L 159.667722 279.767448 
L 161.418814 279.435224 
L 163.199138 279.323873 
" style="fill:none;stroke:#808080;stroke-linecap:square;stroke-width:1.5;"/>
   </g>
   <g id="line2d_97">
    <path clip-path="url(#p1baf01a52e)" d="M 163.199138 279.323873 
L 164.979462 279.435224 
L 166.730554 279.767448 
L 168.42366 280.315091 
L 170.030979 281.06916 
L 171.526119 282.017273 
L 172.884531 283.143862 
L 174.083909 284.430429 
L 175.104559 285.855849 
L 175.929723 287.396715 
L 176.54585 289.027728 
L 176.942825 290.722105 
L 177.11413 292.452025 
L 177.05695 294.189083 
L 176.772225 295.904757 
L 176.264631 297.570875 
L 175.542502 299.16008 
L 174.617695 300.646276 
L 173.505395 302.005061 
L 172.223867 303.214124 
L 170.794154 304.253611 
L 169.23973 305.106454 
L 167.58612 305.75865 
L 165.860476 306.199489 
L 164.091133 306.421733 
L 162.307143 306.421733 
L 160.5378 306.199489 
L 158.812156 305.75865 
L 157.158546 305.106454 
L 155.604122 304.253611 
L 154.174409 303.214124 
L 152.892881 302.005061 
L 151.780581 300.646276 
L 150.855774 299.16008 
L 150.133645 297.570875 
L 149.626051 295.904757 
L 149.341326 294.189083 
L 149.284147 292.452025 
L 149.455451 290.722105 
L 149.852426 289.027728 
L 150.468553 287.396715 
L 151.293717 285.855849 
L 152.314367 284.430429 
L 153.513745 283.143862 
L 154.872157 282.017273 
L 156.367297 281.06916 
L 157.974617 280.315091 
L 159.667722 279.767448 
L 161.418814 279.435224 
L 163.199138 279.323873 
" style="fill:none;stroke:#808080;stroke-linecap:square;stroke-width:1.5;"/>
   </g>
   <g id="line2d_98">
    <path clip-path="url(#p1baf01a52e)" d="M 152.777351 379.901239 
L 154.557676 380.01259 
L 156.308767 380.344814 
L 158.001873 380.892457 
L 159.609192 381.646526 
L 161.104333 382.594639 
L 162.462744 383.721228 
L 163.662122 385.007795 
L 164.682773 386.433215 
L 165.507936 387.974081 
L 166.124064 389.605094 
L 166.521039 391.299471 
L 166.692343 393.029391 
L 166.635163 394.76645 
L 166.350439 396.482123 
L 165.842844 398.148241 
L 165.120715 399.737446 
L 164.195908 401.223643 
L 163.083609 402.582428 
L 161.802081 403.79149 
L 160.372367 404.830977 
L 158.817944 405.68382 
L 157.164334 406.336016 
L 155.438689 406.776855 
L 153.669346 406.999099 
L 151.885357 406.999099 
L 150.116013 406.776855 
L 148.390369 406.336016 
L 146.736759 405.68382 
L 145.182336 404.830977 
L 143.752622 403.79149 
L 142.471094 402.582428 
L 141.358795 401.223643 
L 140.433988 399.737446 
L 139.711858 398.148241 
L 139.204264 396.482123 
L 138.91954 394.76645 
L 138.86236 393.029391 
L 139.033664 391.299471 
L 139.430639 389.605094 
L 140.046767 387.974081 
L 140.87193 386.433215 
L 141.892581 385.007795 
L 143.091958 383.721228 
L 144.45037 382.594639 
L 145.945511 381.646526 
L 147.55283 380.892457 
L 149.245936 380.344814 
L 150.997027 380.01259 
L 152.777351 379.901239 
" style="fill:none;stroke:#808080;stroke-linecap:square;stroke-width:1.5;"/>
   </g>
   <g id="line2d_99">
    <path clip-path="url(#p1baf01a52e)" d="M 269.877898 464.265502 
L 271.658222 464.376853 
L 273.409314 464.709077 
L 275.102419 465.25672 
L 276.709739 466.010789 
L 278.204879 466.958902 
L 279.563291 468.085491 
L 280.762669 469.372059 
L 281.783319 470.797478 
L 282.608483 472.338344 
L 283.22461 473.969357 
L 283.621585 475.663734 
L 283.79289 477.393654 
L 283.73571 479.130713 
L 283.450985 480.846387 
L 282.943391 482.512505 
L 282.221262 484.101709 
L 281.296455 485.587906 
L 280.184155 486.946691 
L 278.902627 488.155753 
L 277.472914 489.19524 
L 275.91849 490.048083 
L 274.26488 490.700279 
L 272.539236 491.141118 
L 270.769893 491.363362 
L 268.985903 491.363362 
L 267.21656 491.141118 
L 265.490916 490.700279 
L 263.837306 490.048083 
L 262.282882 489.19524 
L 260.853169 488.155753 
L 259.571641 486.946691 
L 258.459341 485.587906 
L 257.534534 484.101709 
L 256.812405 482.512505 
L 256.304811 480.846387 
L 256.020086 479.130713 
L 255.962906 477.393654 
L 256.134211 475.663734 
L 256.531186 473.969357 
L 257.147313 472.338344 
L 257.972477 470.797478 
L 258.993127 469.372059 
L 260.192505 468.085491 
L 261.550917 466.958902 
L 263.046057 466.010789 
L 264.653377 465.25672 
L 266.346482 464.709077 
L 268.097574 464.376853 
L 269.877898 464.265502 
" style="fill:none;stroke:#808080;stroke-linecap:square;stroke-width:1.5;"/>
   </g>
   <g id="line2d_100">
    <path clip-path="url(#p1baf01a52e)" d="M 397.075175 520.594868 
L 398.855499 520.706219 
L 400.606591 521.038443 
L 402.299697 521.586086 
L 403.907016 522.340155 
L 405.402156 523.288268 
L 406.760568 524.414857 
L 407.959946 525.701424 
L 408.980596 527.126844 
L 409.80576 528.66771 
L 410.421888 530.298722 
L 410.818863 531.9931 
L 410.990167 533.72302 
L 410.932987 535.460078 
L 410.648262 537.175752 
L 410.140668 538.84187 
L 409.418539 540.431075 
L 408.493732 541.917271 
L 407.381432 543.276056 
L 406.099905 544.485119 
L 404.670191 545.524606 
L 403.115767 546.377449 
L 401.462157 547.029645 
L 399.736513 547.470484 
L 397.96717 547.692728 
L 396.18318 547.692728 
L 394.413837 547.470484 
L 392.688193 547.029645 
L 391.034583 546.377449 
L 389.480159 545.524606 
L 388.050446 544.485119 
L 386.768918 543.276056 
L 385.656619 541.917271 
L 384.731812 540.431075 
L 384.009682 538.84187 
L 383.502088 537.175752 
L 383.217363 535.460078 
L 383.160184 533.72302 
L 383.331488 531.9931 
L 383.728463 530.298722 
L 384.344591 528.66771 
L 385.169754 527.126844 
L 386.190404 525.701424 
L 387.389782 524.414857 
L 388.748194 523.288268 
L 390.243335 522.340155 
L 391.850654 521.586086 
L 393.543759 521.038443 
L 395.294851 520.706219 
L 397.075175 520.594868 
" style="fill:none;stroke:#808080;stroke-linecap:square;stroke-width:1.5;"/>
   </g>
   <g id="line2d_101">
    <path clip-path="url(#p1baf01a52e)" d="M 365.413524 441.512551 
L 367.193849 441.623901 
L 368.94494 441.956126 
L 370.638046 442.503769 
L 372.245365 443.257837 
L 373.740506 444.20595 
L 375.098917 445.33254 
L 376.298295 446.619107 
L 377.318946 448.044526 
L 378.144109 449.585393 
L 378.760237 451.216405 
L 379.157212 452.910782 
L 379.328516 454.640703 
L 379.271336 456.377761 
L 378.986612 458.093435 
L 378.479017 459.759553 
L 377.756888 461.348757 
L 376.832081 462.834954 
L 375.719782 464.193739 
L 374.438254 465.402801 
L 373.00854 466.442288 
L 371.454117 467.295131 
L 369.800507 467.947327 
L 368.074863 468.388167 
L 366.305519 468.610411 
L 364.52153 468.610411 
L 362.752186 468.388167 
L 361.026542 467.947327 
L 359.372932 467.295131 
L 357.818509 466.442288 
L 356.388795 465.402801 
L 355.107267 464.193739 
L 353.994968 462.834954 
L 353.070161 461.348757 
L 352.348031 459.759553 
L 351.840437 458.093435 
L 351.555713 456.377761 
L 351.498533 454.640703 
L 351.669837 452.910782 
L 352.066812 451.216405 
L 352.68294 449.585393 
L 353.508103 448.044526 
L 354.528754 446.619107 
L 355.728131 445.33254 
L 357.086543 444.20595 
L 358.581684 443.257837 
L 360.189003 442.503769 
L 361.882109 441.956126 
L 363.6332 441.623901 
L 365.413524 441.512551 
" style="fill:none;stroke:#808080;stroke-linecap:square;stroke-width:1.5;"/>
   </g>
   <g id="line2d_102">
    <path clip-path="url(#p1baf01a52e)" d="M 309.540859 333.462799 
L 311.321184 333.574149 
L 313.072275 333.906374 
L 314.765381 334.454017 
L 316.3727 335.208085 
L 317.867841 336.156198 
L 319.226252 337.282788 
L 320.42563 338.569355 
L 321.446281 339.994774 
L 322.271444 341.535641 
L 322.887572 343.166653 
L 323.284547 344.86103 
L 323.455851 346.590951 
L 323.398671 348.328009 
L 323.113947 350.043683 
L 322.606352 351.709801 
L 321.884223 353.299006 
L 320.959416 354.785202 
L 319.847117 356.143987 
L 318.565589 357.353049 
L 317.135875 358.392536 
L 315.581452 359.24538 
L 313.927842 359.897575 
L 312.202197 360.338415 
L 310.432854 360.560659 
L 308.648865 360.560659 
L 306.879521 360.338415 
L 305.153877 359.897575 
L 303.500267 359.24538 
L 301.945844 358.392536 
L 300.51613 357.353049 
L 299.234602 356.143987 
L 298.122303 354.785202 
L 297.197496 353.299006 
L 296.475366 351.709801 
L 295.967772 350.043683 
L 295.683048 348.328009 
L 295.625868 346.590951 
L 295.797172 344.86103 
L 296.194147 343.166653 
L 296.810275 341.535641 
L 297.635438 339.994774 
L 298.656089 338.569355 
L 299.855466 337.282788 
L 301.213878 336.156198 
L 302.709019 335.208085 
L 304.316338 334.454017 
L 306.009444 333.906374 
L 307.760535 333.574149 
L 309.540859 333.462799 
" style="fill:none;stroke:#808080;stroke-linecap:square;stroke-width:1.5;"/>
   </g>
   <g id="line2d_103">
    <path clip-path="url(#p1baf01a52e)" d="M 394.989557 212.92556 
L 396.769882 213.036911 
L 398.520973 213.369135 
L 400.214079 213.916778 
L 401.821398 214.670847 
L 403.316539 215.61896 
L 404.67495 216.745549 
L 405.874328 218.032116 
L 406.894978 219.457536 
L 407.720142 220.998402 
L 408.33627 222.629414 
L 408.733245 224.323792 
L 408.904549 226.053712 
L 408.847369 227.79077 
L 408.562645 229.506444 
L 408.05505 231.172562 
L 407.332921 232.761767 
L 406.408114 234.247963 
L 405.295815 235.606748 
L 404.014287 236.815811 
L 402.584573 237.855298 
L 401.030149 238.708141 
L 399.37654 239.360337 
L 397.650895 239.801176 
L 395.881552 240.02342 
L 394.097563 240.02342 
L 392.328219 239.801176 
L 390.602575 239.360337 
L 388.948965 238.708141 
L 387.394542 237.855298 
L 385.964828 236.815811 
L 384.6833 235.606748 
L 383.571001 234.247963 
L 382.646194 232.761767 
L 381.924064 231.172562 
L 381.41647 229.506444 
L 381.131746 227.79077 
L 381.074566 226.053712 
L 381.24587 224.323792 
L 381.642845 222.629414 
L 382.258973 220.998402 
L 383.084136 219.457536 
L 384.104787 218.032116 
L 385.304164 216.745549 
L 386.662576 215.61896 
L 388.157717 214.670847 
L 389.765036 213.916778 
L 391.458142 213.369135 
L 393.209233 213.036911 
L 394.989557 212.92556 
" style="fill:none;stroke:#808080;stroke-linecap:square;stroke-width:1.5;"/>
   </g>
   <g id="line2d_104">
    <path clip-path="url(#p1baf01a52e)" d="M 451.615092 96.223797 
L 453.395416 96.335148 
L 455.146508 96.667372 
L 456.839614 97.215015 
L 458.446933 97.969084 
L 459.942073 98.917197 
L 461.300485 100.043786 
L 462.499863 101.330353 
L 463.520513 102.755773 
L 464.345677 104.296639 
L 464.961805 105.927651 
L 465.35878 107.622029 
L 465.530084 109.351949 
L 465.472904 111.089007 
L 465.188179 112.804681 
L 464.680585 114.470799 
L 463.958456 116.060004 
L 463.033649 117.5462 
L 461.921349 118.904985 
L 460.639822 120.114048 
L 459.210108 121.153535 
L 457.655684 122.006378 
L 456.002074 122.658574 
L 454.27643 123.099413 
L 452.507087 123.321657 
L 450.723097 123.321657 
L 448.953754 123.099413 
L 447.22811 122.658574 
L 445.5745 122.006378 
L 444.020076 121.153535 
L 442.590363 120.114048 
L 441.308835 118.904985 
L 440.196536 117.5462 
L 439.271729 116.060004 
L 438.549599 114.470799 
L 438.042005 112.804681 
L 437.75728 111.089007 
L 437.700101 109.351949 
L 437.871405 107.622029 
L 438.26838 105.927651 
L 438.884507 104.296639 
L 439.709671 102.755773 
L 440.730321 101.330353 
L 441.929699 100.043786 
L 443.288111 98.917197 
L 444.783251 97.969084 
L 446.390571 97.215015 
L 448.083676 96.667372 
L 449.834768 96.335148 
L 451.615092 96.223797 
" style="fill:none;stroke:#808080;stroke-linecap:square;stroke-width:1.5;"/>
   </g>
   <g id="line2d_105">
    <path clip-path="url(#p1baf01a52e)" d="M 451.615092 96.223797 
L 453.395416 96.335148 
L 455.146508 96.667372 
L 456.839614 97.215015 
L 458.446933 97.969084 
L 459.942073 98.917197 
L 461.300485 100.043786 
L 462.499863 101.330353 
L 463.520513 102.755773 
L 464.345677 104.296639 
L 464.961805 105.927651 
L 465.35878 107.622029 
L 465.530084 109.351949 
L 465.472904 111.089007 
L 465.188179 112.804681 
L 464.680585 114.470799 
L 463.958456 116.060004 
L 463.033649 117.5462 
L 461.921349 118.904985 
L 460.639822 120.114048 
L 459.210108 121.153535 
L 457.655684 122.006378 
L 456.002074 122.658574 
L 454.27643 123.099413 
L 452.507087 123.321657 
L 450.723097 123.321657 
L 448.953754 123.099413 
L 447.22811 122.658574 
L 445.5745 122.006378 
L 444.020076 121.153535 
L 442.590363 120.114048 
L 441.308835 118.904985 
L 440.196536 117.5462 
L 439.271729 116.060004 
L 438.549599 114.470799 
L 438.042005 112.804681 
L 437.75728 111.089007 
L 437.700101 109.351949 
L 437.871405 107.622029 
L 438.26838 105.927651 
L 438.884507 104.296639 
L 439.709671 102.755773 
L 440.730321 101.330353 
L 441.929699 100.043786 
L 443.288111 98.917197 
L 444.783251 97.969084 
L 446.390571 97.215015 
L 448.083676 96.667372 
L 449.834768 96.335148 
L 451.615092 96.223797 
" style="fill:none;stroke:#808080;stroke-linecap:square;stroke-width:1.5;"/>
   </g>
   <g id="line2d_106"/>
   <g id="line2d_107"/>
   <g id="line2d_108"/>
   <g id="line2d_109"/>
   <g id="line2d_110"/>
   <g id="line2d_111"/>
   <g id="line2d_112"/>
   <g id="line2d_113"/>
   <g id="line2d_114"/>
   <g id="line2d_115"/>
   <g id="line2d_116"/>
   <g id="line2d_117"/>
   <g id="line2d_118"/>
   <g id="line2d_119"/>
   <g id="line2d_120"/>
   <g id="line2d_121"/>
   <g id="line2d_122"/>
   <g id="line2d_123"/>
   <g id="line2d_124"/>
   <g id="line2d_125"/>
   <g id="line2d_126"/>
   <g id="line2d_127"/>
   <g id="line2d_128"/>
   <g id="line2d_129"/>
   <g id="line2d_130"/>
   <g id="line2d_131"/>
   <g id="line2d_132"/>
   <g id="line2d_133"/>
   <g id="line2d_134"/>
   <g id="line2d_135"/>
   <g id="line2d_136"/>
   <g id="line2d_137"/>
   <g id="line2d_138"/>
   <g id="line2d_139"/>
   <g id="line2d_140"/>
   <g id="line2d_141"/>
   <g id="line2d_142"/>
   <g id="line2d_143"/>
   <g id="line2d_144"/>
   <g id="line2d_145"/>
   <g id="line2d_146"/>
   <g id="line2d_147"/>
   <g id="line2d_148"/>
   <g id="line2d_149"/>
   <g id="line2d_150"/>
   <g id="line2d_151"/>
   <g id="line2d_152"/>
   <g id="line2d_153"/>
   <g id="line2d_154"/>
   <g id="line2d_155"/>
   <g id="line2d_156"/>
   <g id="patch_3">
    <path d="M 90 630 
L 90 86.4 
" style="fill:none;stroke:#000000;stroke-linecap:square;stroke-linejoin:miter;stroke-width:0.8;"/>
   </g>
   <g id="patch_4">
    <path d="M 648 630 
L 648 86.4 
" style="fill:none;stroke:#000000;stroke-linecap:square;stroke-linejoin:miter;stroke-width:0.8;"/>
   </g>
   <g id="patch_5">
    <path d="M 90 630 
L 648 630 
" style="fill:none;stroke:#000000;stroke-linecap:square;stroke-linejoin:miter;stroke-width:0.8;"/>
   </g>
   <g id="patch_6">
    <path d="M 90 86.4 
L 648 86.4 
" style="fill:none;stroke:#000000;stroke-linecap:square;stroke-linejoin:miter;stroke-width:0.8;"/>
   </g>
   <g id="text_13">
    <!-- 0 -->
    <g transform="translate(45.785945 492.234869)scale(0.1 -0.1)">
     <use xlink:href="#DejaVuSans-30"/>
    </g>
   </g>
   <g id="text_14">
    <!-- 0 -->
    <g transform="translate(45.785945 478.672006)scale(0.1 -0.1)">
     <use xlink:href="#DejaVuSans-30"/>
    </g>
   </g>
   <g id="text_15">
    <!-- 0 -->
    <g transform="translate(45.785945 465.109142)scale(0.1 -0.1)">
     <use xlink:href="#DejaVuSans-30"/>
    </g>
   </g>
  </g>
 </g>
 <defs>
  <clipPath id="p1baf01a52e">
   <rect height="543.6" width="558" x="90" y="86.4"/>
  </clipPath>
 </defs>
</svg>
