<?xml version="1.0" encoding="utf-8" standalone="no"?>
<!DOCTYPE svg PUBLIC "-//W3C//DTD SVG 1.1//EN"
  "http://www.w3.org/Graphics/SVG/1.1/DTD/svg11.dtd">
<svg height="720pt" version="1.1" viewBox="0 0 720 720" width="720pt" xmlns="http://www.w3.org/2000/svg" xmlns:xlink="http://www.w3.org/1999/xlink">
 <metadata>
  <rdf:RDF xmlns:cc="http://creativecommons.org/ns#" xmlns:dc="http://purl.org/dc/elements/1.1/" xmlns:rdf="http://www.w3.org/1999/02/22-rdf-syntax-ns#">
   <cc:Work>
    <dc:type rdf:resource="http://purl.org/dc/dcmitype/StillImage"/>
    <dc:date>2022-01-11T13:26:05.131655</dc:date>
    <dc:format>image/svg+xml</dc:format>
    <dc:creator>
     <cc:Agent>
      <dc:title>Matplotlib v3.4.3, https://matplotlib.org/</dc:title>
     </cc:Agent>
    </dc:creator>
   </cc:Work>
  </rdf:RDF>
 </metadata>
 <defs>
  <style type="text/css">*{stroke-linecap:butt;stroke-linejoin:round;}</style>
 </defs>
 <g id="figure_1">
  <g id="patch_1">
   <path d="M 0 720 
L 720 720 
L 720 0 
L 0 0 
z
" style="fill:none;"/>
  </g>
  <g id="axes_1">
   <g id="patch_2">
    <path d="M 90 630 
L 648 630 
L 648 86.4 
L 90 86.4 
z
" style="fill:#ffffff;"/>
   </g>
   <g id="PathCollection_1">
    <defs>
     <path d="M 0.972304 -8.870829 
Q -1.277159 -8.870829 -2.413438 -6.653699 
Q -3.545098 -4.441189 -3.545098 0.006929 
Q -3.545098 4.436569 -2.413438 6.653699 
Q -1.277159 8.870829 0.972304 8.870829 
Q 3.240243 8.870829 4.371903 6.653699 
Q 5.508182 4.436569 5.508182 0.006929 
Q 5.508182 -4.441189 4.371903 -6.653699 
Q 3.240243 -8.870829 0.972304 -8.870829 
z
M 0.972304 -11.18034 
Q 4.598235 -11.18034 6.51051 -8.311928 
Q 8.422784 -5.448135 8.422784 0.006929 
Q 8.422784 5.448135 6.51051 8.316547 
Q 4.598235 11.18034 0.972304 11.18034 
Q -2.649008 11.18034 -4.561283 8.316547 
Q -6.473558 5.448135 -6.473558 0.006929 
Q -6.473558 -5.448135 -4.561283 -8.311928 
Q -2.649008 -11.18034 0.972304 -11.18034 
z
" id="m3de3f00a4f" style="stroke:#808080;"/>
    </defs>
    <g clip-path="url(#pee71871d09)">
     <use style="fill:#808080;stroke:#808080;" x="594.288737" xlink:href="#m3de3f00a4f" y="320.009011"/>
    </g>
   </g>
   <g id="PathCollection_2">
    <defs>
     <path d="M -4.535873 8.63565 
L 0.404946 8.63565 
L 0.404946 -8.424791 
L -4.971969 -7.346533 
L -4.971969 -10.102082 
L 0.376192 -11.18034 
L 3.400108 -11.18034 
L 3.400108 8.63565 
L 8.340927 8.63565 
L 8.340927 11.18034 
L -4.535873 11.18034 
L -4.535873 8.63565 
z
" id="m983c2d2f6a" style="stroke:#808080;"/>
    </defs>
    <g clip-path="url(#pee71871d09)">
     <use style="fill:#808080;stroke:#808080;" x="444.934513" xlink:href="#m983c2d2f6a" y="278.097074"/>
    </g>
   </g>
   <g id="PathCollection_3">
    <defs>
     <path d="M -2.294912 8.680651 
L 8.075736 8.680651 
L 8.075736 11.18034 
L -5.867913 11.18034 
L -5.867913 8.680651 
Q -4.177916 6.929457 -1.259259 3.982555 
Q 1.664105 1.030945 2.4126 0.174178 
Q 3.838976 -1.426376 4.403877 -2.537349 
Q 4.973486 -3.648321 4.973486 -4.721634 
Q 4.973486 -6.472828 3.744825 -7.574386 
Q 2.516165 -8.680651 0.543718 -8.680651 
Q -0.854413 -8.680651 -2.407892 -8.195778 
Q -3.956663 -7.710904 -5.72198 -6.722326 
L -5.72198 -9.725719 
Q -3.928418 -10.445968 -2.370232 -10.813154 
Q -0.807338 -11.18034 0.487227 -11.18034 
Q 3.900173 -11.18034 5.929111 -9.471513 
Q 7.958048 -7.767394 7.958048 -4.914642 
Q 7.958048 -3.558879 7.449637 -2.344341 
Q 6.945933 -1.13451 5.604292 0.513119 
Q 5.237107 0.941502 3.264659 2.979855 
Q 1.296919 5.018207 -2.294912 8.680651 
z
" id="ma9d1a75430" style="stroke:#808080;"/>
    </defs>
    <g clip-path="url(#pee71871d09)">
     <use style="fill:#808080;stroke:#808080;" x="299.728337" xlink:href="#ma9d1a75430" y="297.286906"/>
    </g>
   </g>
   <g id="PathCollection_4">
    <defs>
     <path d="M 3.77605 -0.861447 
Q 5.868466 -0.413402 7.041697 1.004637 
Q 8.219548 2.418057 8.219548 4.496617 
Q 8.219548 7.683741 6.025513 9.43435 
Q 3.831478 11.18034 -0.210165 11.18034 
Q -1.563539 11.18034 -3.000054 10.912437 
Q -4.436569 10.644533 -5.965465 10.108727 
L -5.965465 7.295743 
Q -4.755282 8.002454 -3.314147 8.362737 
Q -1.868394 8.723021 -0.293308 8.723021 
Q 2.445772 8.723021 3.882287 7.64217 
Q 5.318802 6.561319 5.318802 4.496617 
Q 5.318802 2.588961 3.983905 1.517348 
Q 2.649008 0.441116 0.270213 0.441116 
L -2.242535 0.441116 
L -2.242535 -1.956155 
L 0.385688 -1.956155 
Q 2.533533 -1.956155 3.674431 -2.815293 
Q 4.815329 -3.674431 4.815329 -5.291088 
Q 4.815329 -6.949317 3.637479 -7.836169 
Q 2.464248 -8.72764 0.270213 -8.72764 
Q -0.930733 -8.72764 -2.302582 -8.464356 
Q -3.674431 -8.20569 -5.318802 -7.660646 
L -5.318802 -10.256536 
Q -3.655955 -10.718438 -2.205582 -10.949389 
Q -0.75521 -11.18034 0.528878 -11.18034 
Q 3.849954 -11.18034 5.780705 -9.66992 
Q 7.716074 -8.164119 7.716074 -5.595944 
Q 7.716074 -3.803764 6.690652 -2.570485 
Q 5.665229 -1.337207 3.77605 -0.861447 
z
" id="m79c266cf82" style="stroke:#808080;"/>
    </defs>
    <g clip-path="url(#pee71871d09)">
     <use style="fill:#808080;stroke:#808080;" x="302.249015" xlink:href="#m79c266cf82" y="374.754998"/>
    </g>
   </g>
   <g id="PathCollection_5">
    <defs>
     <path d="M 2.695646 -8.544598 
L -4.943215 3.392919 
L 2.695646 3.392919 
L 2.695646 -8.544598 
z
M 1.900131 -11.18034 
L 5.705184 -11.18034 
L 5.705184 3.392919 
L 8.896829 3.392919 
L 8.896829 5.908855 
L 5.705184 5.908855 
L 5.705184 11.18034 
L 2.695646 11.18034 
L 2.695646 5.908855 
L -7.396852 5.908855 
L -7.396852 2.99037 
L 1.900131 -11.18034 
z
" id="mc5cda8c42b" style="stroke:#808080;"/>
    </defs>
    <g clip-path="url(#pee71871d09)">
     <use style="fill:#808080;stroke:#808080;" x="247.656931" xlink:href="#mc5cda8c42b" y="421.50104"/>
    </g>
   </g>
   <g id="PathCollection_6">
    <defs>
     <path d="M -5.008473 -11.18034 
L 6.639575 -11.18034 
L 6.639575 -8.679629 
L -2.291535 -8.679629 
L -2.291535 -3.306861 
Q -1.647555 -3.527789 -1.003575 -3.635902 
Q -0.354894 -3.744015 0.293787 -3.744015 
Q 3.964943 -3.744015 6.108409 -1.732165 
Q 8.256576 0.279685 8.256576 3.715812 
Q 8.256576 7.255352 6.052002 9.220196 
Q 3.847428 11.18034 -0.16217 11.18034 
Q -1.544142 11.18034 -2.97782 10.945311 
Q -4.406798 10.710281 -5.934488 10.240223 
L -5.934488 7.255352 
Q -4.613624 7.974541 -3.203448 8.327085 
Q -1.793273 8.679629 -0.223278 8.679629 
Q 2.319738 8.679629 3.800422 7.344663 
Q 5.285807 6.009697 5.285807 3.715812 
Q 5.285807 1.426627 3.800422 0.091661 
Q 2.319738 -1.248005 -0.223278 -1.248005 
Q -1.412526 -1.248005 -2.597073 -0.984772 
Q -3.77692 -0.72154 -5.008473 -0.16217 
L -5.008473 -11.18034 
z
" id="mf9b74393fd" style="stroke:#808080;"/>
    </defs>
    <g clip-path="url(#pee71871d09)">
     <use style="fill:#808080;stroke:#808080;" x="268.379029" xlink:href="#mf9b74393fd" y="499.676291"/>
    </g>
   </g>
   <g id="PathCollection_7">
    <defs>
     <path d="M 1.286397 -1.175541 
Q -0.676687 -1.175541 -1.826823 0.168594 
Q -2.97234 1.50811 -2.97234 3.845335 
Q -2.97234 6.168702 -1.826823 7.522075 
Q -0.676687 8.870829 1.286397 8.870829 
Q 3.249481 8.870829 4.394998 7.522075 
Q 5.540515 6.168702 5.540515 3.845335 
Q 5.540515 1.50811 4.394998 0.168594 
Q 3.249481 -1.175541 1.286397 -1.175541 
z
M 7.07403 -10.316583 
L 7.07403 -7.660646 
Q 5.974703 -8.177976 4.8569 -8.450499 
Q 3.739097 -8.72764 2.63977 -8.72764 
Q -0.247118 -8.72764 -1.771394 -6.778413 
Q -3.291052 -4.829186 -3.508146 -0.889162 
Q -2.658246 -2.145535 -1.374159 -2.815293 
Q -0.085452 -3.485051 1.457301 -3.485051 
Q 4.704473 -3.485051 6.589033 -1.512729 
Q 8.473594 0.454974 8.473594 3.845335 
Q 8.473594 7.166411 6.51051 9.175685 
Q 4.547426 11.18034 1.286397 11.18034 
Q -2.45501 11.18034 -4.43195 8.316547 
Q -6.408891 5.448135 -6.408891 0.006929 
Q -6.408891 -5.101708 -3.983905 -8.141024 
Q -1.55892 -11.18034 2.524295 -11.18034 
Q 3.623622 -11.18034 4.741425 -10.963246 
Q 5.859228 -10.746152 7.07403 -10.316583 
z
" id="m56e8b16881" style="stroke:#808080;"/>
    </defs>
    <g clip-path="url(#pee71871d09)">
     <use style="fill:#808080;stroke:#808080;" x="294.812943" xlink:href="#m56e8b16881" y="514.552864"/>
    </g>
   </g>
   <g id="PathCollection_8">
    <defs>
     <path d="M -5.93042 -11.18034 
L 8.446356 -11.18034 
L 8.446356 -9.891222 
L 0.32827 11.18034 
L -2.829829 11.18034 
L 4.809032 -8.630858 
L -5.93042 -8.630858 
L -5.93042 -11.18034 
z
" id="m4acfbb90eb" style="stroke:#808080;"/>
    </defs>
    <g clip-path="url(#pee71871d09)">
     <use style="fill:#808080;stroke:#808080;" x="442.119214" xlink:href="#m4acfbb90eb" y="606.503591"/>
    </g>
   </g>
   <g id="PathCollection_9">
    <defs>
     <path d="M 1.002328 0.524259 
Q -1.076232 0.524259 -2.267939 1.637443 
Q -3.455028 2.750627 -3.455028 4.695235 
Q -3.455028 6.644461 -2.267939 7.757645 
Q -1.076232 8.870829 1.002328 8.870829 
Q 3.080887 8.870829 4.277213 7.753026 
Q 5.478159 6.630604 5.478159 4.695235 
Q 5.478159 2.750627 4.286451 1.637443 
Q 3.099363 0.524259 1.002328 0.524259 
z
M -1.912275 -0.713639 
Q -3.787597 -1.175541 -4.836115 -2.459629 
Q -5.880014 -3.748335 -5.880014 -5.595944 
Q -5.880014 -8.177976 -4.041643 -9.679158 
Q -2.198654 -11.18034 1.002328 -11.18034 
Q 4.221785 -11.18034 6.055536 -9.679158 
Q 7.889288 -8.177976 7.889288 -5.595944 
Q 7.889288 -3.748335 6.84077 -2.459629 
Q 5.796871 -1.175541 3.935406 -0.713639 
Q 6.041679 -0.224023 7.214911 1.207874 
Q 8.392761 2.635151 8.392761 4.695235 
Q 8.392761 7.83155 6.480486 9.508254 
Q 4.568212 11.18034 1.002328 11.18034 
Q -2.558938 11.18034 -4.475831 9.508254 
Q -6.388106 7.83155 -6.388106 4.695235 
Q -6.388106 2.635151 -5.205636 1.207874 
Q -4.018548 -0.224023 -1.912275 -0.713639 
z
M -2.979268 -5.318802 
Q -2.979268 -3.646717 -1.93537 -2.709056 
Q -0.886852 -1.771394 1.002328 -1.771394 
Q 2.882269 -1.771394 3.940025 -2.709056 
Q 5.0024 -3.646717 5.0024 -5.318802 
Q 5.0024 -6.995507 3.940025 -7.933168 
Q 2.882269 -8.870829 1.002328 -8.870829 
Q -0.886852 -8.870829 -1.93537 -7.933168 
Q -2.979268 -6.995507 -2.979268 -5.318802 
z
" id="m6e6e058ad7" style="stroke:#808080;"/>
    </defs>
    <g clip-path="url(#pee71871d09)">
     <use style="fill:#808080;stroke:#808080;" x="492.675809" xlink:href="#m6e6e058ad7" y="540.033281"/>
    </g>
   </g>
   <g id="PathCollection_10">
    <defs>
     <path d="M -5.117875 10.311964 
L -5.117875 7.656027 
Q -4.018548 8.177976 -2.896126 8.450499 
Q -1.769085 8.723021 -0.683615 8.723021 
Q 2.203273 8.723021 3.722931 6.783032 
Q 5.247208 4.843043 5.464302 0.884542 
Q 4.628259 2.127059 3.339552 2.792198 
Q 2.055464 3.457337 0.498854 3.457337 
Q -2.73446 3.457337 -4.619021 1.503491 
Q -6.503581 -0.454974 -6.503581 -3.849954 
Q -6.503581 -7.166411 -4.540497 -9.171066 
Q -2.577414 -11.18034 0.683615 -11.18034 
Q 4.425022 -11.18034 6.392725 -8.311928 
Q 8.365047 -5.448135 8.365047 0.006929 
Q 8.365047 5.101708 5.94468 8.141024 
Q 3.528932 11.18034 -0.554282 11.18034 
Q -1.653609 11.18034 -2.780651 10.963246 
Q -3.903073 10.746152 -5.117875 10.311964 
z
M 0.683615 1.175541 
Q 2.646699 1.175541 3.792216 -0.163975 
Q 4.942352 -1.50811 4.942352 -3.849954 
Q 4.942352 -6.173321 3.792216 -7.522075 
Q 2.646699 -8.870829 0.683615 -8.870829 
Q -1.279469 -8.870829 -2.424986 -7.522075 
Q -3.570503 -6.173321 -3.570503 -3.849954 
Q -3.570503 -1.50811 -2.424986 -0.163975 
Q -1.279469 1.175541 0.683615 1.175541 
z
" id="mb1a870e9e9" style="stroke:#808080;"/>
    </defs>
    <g clip-path="url(#pee71871d09)">
     <use style="fill:#808080;stroke:#808080;" x="474.029363" xlink:href="#mb1a870e9e9" y="439.893525"/>
    </g>
   </g>
   <g id="PathCollection_11"/>
   <g id="PathCollection_12"/>
   <g id="PathCollection_13"/>
   <g id="PathCollection_14"/>
   <g id="PathCollection_15"/>
   <g id="matplotlib.axis_1">
    <g id="xtick_1">
     <g id="line2d_1">
      <defs>
       <path d="M 0 0 
L 0 3.5 
" id="m35a327b95d" style="stroke:#000000;stroke-width:0.8;"/>
      </defs>
      <g>
       <use style="stroke:#000000;stroke-width:0.8;" x="128.171487" xlink:href="#m35a327b95d" y="630"/>
      </g>
     </g>
     <g id="text_1">
      <!-- −200 -->
      <g transform="translate(114.437894 644.598438)scale(0.1 -0.1)">
       <defs>
        <path d="M 678 2272 
L 4684 2272 
L 4684 1741 
L 678 1741 
L 678 2272 
z
" id="DejaVuSans-2212" transform="scale(0.015625)"/>
        <path d="M 1228 531 
L 3431 531 
L 3431 0 
L 469 0 
L 469 531 
Q 828 903 1448 1529 
Q 2069 2156 2228 2338 
Q 2531 2678 2651 2914 
Q 2772 3150 2772 3378 
Q 2772 3750 2511 3984 
Q 2250 4219 1831 4219 
Q 1534 4219 1204 4116 
Q 875 4013 500 3803 
L 500 4441 
Q 881 4594 1212 4672 
Q 1544 4750 1819 4750 
Q 2544 4750 2975 4387 
Q 3406 4025 3406 3419 
Q 3406 3131 3298 2873 
Q 3191 2616 2906 2266 
Q 2828 2175 2409 1742 
Q 1991 1309 1228 531 
z
" id="DejaVuSans-32" transform="scale(0.015625)"/>
        <path d="M 2034 4250 
Q 1547 4250 1301 3770 
Q 1056 3291 1056 2328 
Q 1056 1369 1301 889 
Q 1547 409 2034 409 
Q 2525 409 2770 889 
Q 3016 1369 3016 2328 
Q 3016 3291 2770 3770 
Q 2525 4250 2034 4250 
z
M 2034 4750 
Q 2819 4750 3233 4129 
Q 3647 3509 3647 2328 
Q 3647 1150 3233 529 
Q 2819 -91 2034 -91 
Q 1250 -91 836 529 
Q 422 1150 422 2328 
Q 422 3509 836 4129 
Q 1250 4750 2034 4750 
z
" id="DejaVuSans-30" transform="scale(0.015625)"/>
       </defs>
       <use xlink:href="#DejaVuSans-2212"/>
       <use x="83.789062" xlink:href="#DejaVuSans-32"/>
       <use x="147.412109" xlink:href="#DejaVuSans-30"/>
       <use x="211.035156" xlink:href="#DejaVuSans-30"/>
      </g>
     </g>
    </g>
    <g id="xtick_2">
     <g id="line2d_2">
      <g>
       <use style="stroke:#000000;stroke-width:0.8;" x="224.263736" xlink:href="#m35a327b95d" y="630"/>
      </g>
     </g>
     <g id="text_2">
      <!-- −100 -->
      <g transform="translate(210.530143 644.598438)scale(0.1 -0.1)">
       <defs>
        <path d="M 794 531 
L 1825 531 
L 1825 4091 
L 703 3866 
L 703 4441 
L 1819 4666 
L 2450 4666 
L 2450 531 
L 3481 531 
L 3481 0 
L 794 0 
L 794 531 
z
" id="DejaVuSans-31" transform="scale(0.015625)"/>
       </defs>
       <use xlink:href="#DejaVuSans-2212"/>
       <use x="83.789062" xlink:href="#DejaVuSans-31"/>
       <use x="147.412109" xlink:href="#DejaVuSans-30"/>
       <use x="211.035156" xlink:href="#DejaVuSans-30"/>
      </g>
     </g>
    </g>
    <g id="xtick_3">
     <g id="line2d_3">
      <g>
       <use style="stroke:#000000;stroke-width:0.8;" x="320.355985" xlink:href="#m35a327b95d" y="630"/>
      </g>
     </g>
     <g id="text_3">
      <!-- 0 -->
      <g transform="translate(317.174735 644.598438)scale(0.1 -0.1)">
       <use xlink:href="#DejaVuSans-30"/>
      </g>
     </g>
    </g>
    <g id="xtick_4">
     <g id="line2d_4">
      <g>
       <use style="stroke:#000000;stroke-width:0.8;" x="416.448234" xlink:href="#m35a327b95d" y="630"/>
      </g>
     </g>
     <g id="text_4">
      <!-- 100 -->
      <g transform="translate(406.904484 644.598438)scale(0.1 -0.1)">
       <use xlink:href="#DejaVuSans-31"/>
       <use x="63.623047" xlink:href="#DejaVuSans-30"/>
       <use x="127.246094" xlink:href="#DejaVuSans-30"/>
      </g>
     </g>
    </g>
    <g id="xtick_5">
     <g id="line2d_5">
      <g>
       <use style="stroke:#000000;stroke-width:0.8;" x="512.540483" xlink:href="#m35a327b95d" y="630"/>
      </g>
     </g>
     <g id="text_5">
      <!-- 200 -->
      <g transform="translate(502.996733 644.598438)scale(0.1 -0.1)">
       <use xlink:href="#DejaVuSans-32"/>
       <use x="63.623047" xlink:href="#DejaVuSans-30"/>
       <use x="127.246094" xlink:href="#DejaVuSans-30"/>
      </g>
     </g>
    </g>
    <g id="xtick_6">
     <g id="line2d_6">
      <g>
       <use style="stroke:#000000;stroke-width:0.8;" x="608.632732" xlink:href="#m35a327b95d" y="630"/>
      </g>
     </g>
     <g id="text_6">
      <!-- 300 -->
      <g transform="translate(599.088982 644.598438)scale(0.1 -0.1)">
       <defs>
        <path d="M 2597 2516 
Q 3050 2419 3304 2112 
Q 3559 1806 3559 1356 
Q 3559 666 3084 287 
Q 2609 -91 1734 -91 
Q 1441 -91 1130 -33 
Q 819 25 488 141 
L 488 750 
Q 750 597 1062 519 
Q 1375 441 1716 441 
Q 2309 441 2620 675 
Q 2931 909 2931 1356 
Q 2931 1769 2642 2001 
Q 2353 2234 1838 2234 
L 1294 2234 
L 1294 2753 
L 1863 2753 
Q 2328 2753 2575 2939 
Q 2822 3125 2822 3475 
Q 2822 3834 2567 4026 
Q 2313 4219 1838 4219 
Q 1578 4219 1281 4162 
Q 984 4106 628 3988 
L 628 4550 
Q 988 4650 1302 4700 
Q 1616 4750 1894 4750 
Q 2613 4750 3031 4423 
Q 3450 4097 3450 3541 
Q 3450 3153 3228 2886 
Q 3006 2619 2597 2516 
z
" id="DejaVuSans-33" transform="scale(0.015625)"/>
       </defs>
       <use xlink:href="#DejaVuSans-33"/>
       <use x="63.623047" xlink:href="#DejaVuSans-30"/>
       <use x="127.246094" xlink:href="#DejaVuSans-30"/>
      </g>
     </g>
    </g>
   </g>
   <g id="matplotlib.axis_2">
    <g id="ytick_1">
     <g id="line2d_7">
      <defs>
       <path d="M 0 0 
L -3.5 0 
" id="mcdfe9e70a7" style="stroke:#000000;stroke-width:0.8;"/>
      </defs>
      <g>
       <use style="stroke:#000000;stroke-width:0.8;" x="90" xlink:href="#mcdfe9e70a7" y="592.813583"/>
      </g>
     </g>
     <g id="text_7">
      <!-- −200 -->
      <g transform="translate(55.532812 596.612802)scale(0.1 -0.1)">
       <use xlink:href="#DejaVuSans-2212"/>
       <use x="83.789062" xlink:href="#DejaVuSans-32"/>
       <use x="147.412109" xlink:href="#DejaVuSans-30"/>
       <use x="211.035156" xlink:href="#DejaVuSans-30"/>
      </g>
     </g>
    </g>
    <g id="ytick_2">
     <g id="line2d_8">
      <g>
       <use style="stroke:#000000;stroke-width:0.8;" x="90" xlink:href="#mcdfe9e70a7" y="499.201134"/>
      </g>
     </g>
     <g id="text_8">
      <!-- −100 -->
      <g transform="translate(55.532812 503.000353)scale(0.1 -0.1)">
       <use xlink:href="#DejaVuSans-2212"/>
       <use x="83.789062" xlink:href="#DejaVuSans-31"/>
       <use x="147.412109" xlink:href="#DejaVuSans-30"/>
       <use x="211.035156" xlink:href="#DejaVuSans-30"/>
      </g>
     </g>
    </g>
    <g id="ytick_3">
     <g id="line2d_9">
      <g>
       <use style="stroke:#000000;stroke-width:0.8;" x="90" xlink:href="#mcdfe9e70a7" y="405.588685"/>
      </g>
     </g>
     <g id="text_9">
      <!-- 0 -->
      <g transform="translate(76.6375 409.387904)scale(0.1 -0.1)">
       <use xlink:href="#DejaVuSans-30"/>
      </g>
     </g>
    </g>
    <g id="ytick_4">
     <g id="line2d_10">
      <g>
       <use style="stroke:#000000;stroke-width:0.8;" x="90" xlink:href="#mcdfe9e70a7" y="311.976237"/>
      </g>
     </g>
     <g id="text_10">
      <!-- 100 -->
      <g transform="translate(63.9125 315.775455)scale(0.1 -0.1)">
       <use xlink:href="#DejaVuSans-31"/>
       <use x="63.623047" xlink:href="#DejaVuSans-30"/>
       <use x="127.246094" xlink:href="#DejaVuSans-30"/>
      </g>
     </g>
    </g>
    <g id="ytick_5">
     <g id="line2d_11">
      <g>
       <use style="stroke:#000000;stroke-width:0.8;" x="90" xlink:href="#mcdfe9e70a7" y="218.363788"/>
      </g>
     </g>
     <g id="text_11">
      <!-- 200 -->
      <g transform="translate(63.9125 222.163006)scale(0.1 -0.1)">
       <use xlink:href="#DejaVuSans-32"/>
       <use x="63.623047" xlink:href="#DejaVuSans-30"/>
       <use x="127.246094" xlink:href="#DejaVuSans-30"/>
      </g>
     </g>
    </g>
    <g id="ytick_6">
     <g id="line2d_12">
      <g>
       <use style="stroke:#000000;stroke-width:0.8;" x="90" xlink:href="#mcdfe9e70a7" y="124.751339"/>
      </g>
     </g>
     <g id="text_12">
      <!-- 300 -->
      <g transform="translate(63.9125 128.550558)scale(0.1 -0.1)">
       <use xlink:href="#DejaVuSans-33"/>
       <use x="63.623047" xlink:href="#DejaVuSans-30"/>
       <use x="127.246094" xlink:href="#DejaVuSans-30"/>
      </g>
     </g>
    </g>
   </g>
   <g id="line2d_13">
    <path clip-path="url(#pee71871d09)" d="M 474.029363 439.893525 
L 476.518433 435.775677 
L 479.811387 432.231115 
L 483.682565 429.288771 
L 487.930567 426.886233 
L 492.414987 424.930847 
L 497.047504 423.334678 
L 501.774096 422.02507 
L 506.561525 420.944631 
L 511.388954 420.048354 
L 516.243033 419.300596 
L 521.115029 418.672629 
L 525.999122 418.140781 
L 530.89137 417.685054 
L 535.789059 417.288093 
L 540.690276 416.934391 
L 545.593626 416.609653 
L 550.498017 416.300263 
L 555.402498 415.992803 
L 560.306099 415.673579 
L 565.207671 415.328124 
L 570.105678 414.940628 
L 574.997917 414.493234 
L 579.8811 413.965143 
L 584.750181 413.331399 
L 589.597276 412.561235 
L 594.409809 411.61576 
L 599.167295 410.444788 
L 603.835637 408.982733 
L 608.357086 407.144329 
L 612.633683 404.823751 
L 616.505753 401.908111 
L 619.7451 398.325733 
L 622.11381 394.128408 
L 623.498758 389.517848 
L 623.978382 384.735549 
L 623.734792 379.944347 
L 622.946613 375.217562 
L 621.750486 370.577934 
L 620.243503 366.027155 
L 618.494226 361.559582 
L 616.551885 357.167599 
L 614.452631 352.843563 
L 612.223624 348.580458 
L 609.885691 344.372058 
L 607.455107 340.212911 
L 604.944803 336.098258 
L 602.365202 332.023953 
L 599.724822 327.986366 
L 597.030706 323.982319 
L 594.288737 320.009011 
" style="fill:none;stroke:#808080;stroke-linecap:square;stroke-width:1.5;"/>
   </g>
   <g id="line2d_14">
    <path clip-path="url(#pee71871d09)" d="M 474.029363 439.893525 
L 474.029363 320.009011 
L 623.978382 320.009011 
L 623.978382 439.893525 
L 474.029363 439.893525 
" style="fill:none;stroke:#d3d3d3;stroke-linecap:square;stroke-width:0.5;"/>
   </g>
   <g id="line2d_15">
    <path clip-path="url(#pee71871d09)" d="M 594.288737 320.009011 
L 591.467429 316.155467 
L 588.469855 312.430026 
L 585.29825 308.843687 
L 581.956441 305.407005 
L 578.449851 302.129794 
L 574.785435 299.020851 
L 570.971537 296.087694 
L 567.017686 293.33637 
L 562.934336 290.77131 
L 558.732579 288.395273 
L 554.423847 286.20936 
L 550.019623 284.213095 
L 545.53119 282.404564 
L 540.969413 280.780594 
L 536.344573 279.336951 
L 531.666251 278.068546 
L 526.943255 276.96964 
L 522.183584 276.034025 
L 517.394433 275.255189 
L 512.582211 274.626458 
L 507.752578 274.141112 
L 502.910504 273.792476 
L 498.060316 273.573989 
L 493.205763 273.479262 
L 488.350069 273.502112 
L 483.495993 273.636585 
L 478.645874 273.876974 
L 473.801684 274.217818 
L 468.965065 274.653907 
L 464.137372 275.180274 
L 459.3197 275.792186 
L 454.51292 276.485128 
L 449.717696 277.254796 
L 444.934513 278.097074 
" style="fill:none;stroke:#808080;stroke-linecap:square;stroke-width:1.5;"/>
   </g>
   <g id="line2d_16">
    <path clip-path="url(#pee71871d09)" d="M 444.934513 320.009011 
L 444.934513 273.479262 
L 594.288737 273.479262 
L 594.288737 320.009011 
L 444.934513 320.009011 
" style="fill:none;stroke:#d3d3d3;stroke-linecap:square;stroke-width:0.5;"/>
   </g>
   <g id="line2d_17">
    <path clip-path="url(#pee71871d09)" d="M 444.934513 278.097074 
L 440.163692 279.008022 
L 435.405403 279.983854 
L 430.659684 281.020922 
L 425.926442 282.115692 
L 421.205468 283.264726 
L 416.49644 284.464656 
L 411.798924 285.712161 
L 407.11238 287.003936 
L 402.436155 288.336662 
L 397.769488 289.706969 
L 393.111499 291.11139 
L 388.461183 292.546312 
L 383.817401 294.007912 
L 379.178865 295.492071 
L 374.544124 296.99428 
L 369.911538 298.509501 
L 365.279253 300.031991 
L 360.645169 301.555064 
L 356.006898 303.070756 
L 351.361709 304.569354 
L 346.706471 306.0387 
L 342.037578 307.46315 
L 337.350866 308.821927 
L 332.641549 310.086438 
L 327.904244 311.215593 
L 323.133395 312.147128 
L 318.325475 312.780021 
L 313.489891 312.93559 
L 308.706662 312.271988 
L 304.371282 310.214999 
L 301.381258 306.535598 
L 300.01342 302.008788 
L 299.728337 297.286906 
" style="fill:none;stroke:#808080;stroke-linecap:square;stroke-width:1.5;"/>
   </g>
   <g id="line2d_18">
    <path clip-path="url(#pee71871d09)" d="M 299.728337 312.93559 
L 299.728337 278.097074 
L 444.934513 278.097074 
L 444.934513 312.93559 
L 299.728337 312.93559 
" style="fill:none;stroke:#d3d3d3;stroke-linecap:square;stroke-width:0.5;"/>
   </g>
   <g id="line2d_19">
    <path clip-path="url(#pee71871d09)" d="M 299.728337 297.286906 
L 299.662322 292.363821 
L 299.202824 287.458444 
L 298.149272 282.641239 
L 296.066365 278.177588 
L 292.109139 275.350591 
L 287.31585 276.505126 
L 283.688453 279.878548 
L 280.97358 284.002416 
L 278.899919 288.483779 
L 277.335015 293.167427 
L 276.204243 297.973068 
L 275.460844 302.851798 
L 275.073256 307.76993 
L 275.018826 312.701919 
L 275.280321 317.626931 
L 275.843847 322.527054 
L 276.697518 327.386334 
L 277.83059 332.190251 
L 279.232873 336.92545 
L 280.894342 341.579613 
L 282.804886 346.141418 
L 284.954162 350.600548 
L 287.331527 354.947721 
L 289.926036 359.174721 
L 292.726479 363.274423 
L 295.721455 367.240809 
L 298.899465 371.068953 
L 302.249015 374.754998 
" style="fill:none;stroke:#808080;stroke-linecap:square;stroke-width:1.5;"/>
   </g>
   <g id="line2d_20">
    <path clip-path="url(#pee71871d09)" d="M 275.018826 374.754998 
L 275.018826 275.350591 
L 302.249015 275.350591 
L 302.249015 374.754998 
L 275.018826 374.754998 
" style="fill:none;stroke:#d3d3d3;stroke-linecap:square;stroke-width:0.5;"/>
   </g>
   <g id="line2d_21">
    <path clip-path="url(#pee71871d09)" d="M 302.249015 374.754998 
L 305.416689 378.508336 
L 308.033385 382.639873 
L 309.912884 387.132285 
L 310.868155 391.892118 
L 310.791265 396.743768 
L 309.717146 401.487444 
L 307.797735 405.977806 
L 305.220268 410.149816 
L 302.149346 413.995721 
L 298.710354 417.535117 
L 294.993684 420.79628 
L 291.063676 423.807531 
L 286.966411 426.59403 
L 282.73536 429.176939 
L 278.395227 431.573506 
L 273.964511 433.797405 
L 269.457217 435.859087 
L 264.883996 437.766023 
L 260.252897 439.522765 
L 255.569836 441.130787 
L 250.838873 442.587962 
L 246.062301 443.88745 
L 241.240592 445.015462 
L 236.372249 445.946557 
L 231.453976 446.632665 
L 226.483807 446.972183 
L 221.490867 446.688699 
L 217.222118 444.46351 
L 218.66882 440.0902 
L 222.216602 436.711396 
L 226.177271 433.780574 
L 230.318461 431.089657 
L 234.564548 428.552977 
L 238.880993 426.125712 
L 243.248956 423.78095 
L 247.656931 421.50104 
" style="fill:none;stroke:#808080;stroke-linecap:square;stroke-width:1.5;"/>
   </g>
   <g id="line2d_22">
    <path clip-path="url(#pee71871d09)" d="M 217.222118 446.972183 
L 217.222118 374.754998 
L 310.868155 374.754998 
L 310.868155 446.972183 
L 217.222118 446.972183 
" style="fill:none;stroke:#d3d3d3;stroke-linecap:square;stroke-width:0.5;"/>
   </g>
   <g id="line2d_23">
    <path clip-path="url(#pee71871d09)" d="M 247.656931 421.50104 
L 252.144507 419.292832 
L 256.700972 417.222839 
L 261.337501 415.329304 
L 266.067395 413.670122 
L 270.904578 412.338739 
L 275.855149 411.498304 
L 280.876663 411.457086 
L 285.696136 412.779248 
L 289.452659 415.963205 
L 291.456652 420.418236 
L 292.105566 425.259983 
L 291.934853 430.146639 
L 291.254104 434.992655 
L 290.231999 439.781881 
L 288.966968 444.516153 
L 287.521105 449.201747 
L 285.936418 453.845626 
L 284.243184 458.454447 
L 282.464633 463.034417 
L 280.619862 467.591446 
L 278.725952 472.131441 
L 276.79993 476.660771 
L 274.861304 481.187043 
L 272.936685 485.720655 
L 271.071294 490.27857 
L 269.371026 494.896344 
L 268.379029 499.676291 
" style="fill:none;stroke:#808080;stroke-linecap:square;stroke-width:1.5;"/>
   </g>
   <g id="line2d_24">
    <path clip-path="url(#pee71871d09)" d="M 247.656931 499.676291 
L 247.656931 411.457086 
L 292.105566 411.457086 
L 292.105566 499.676291 
L 247.656931 499.676291 
" style="fill:none;stroke:#d3d3d3;stroke-linecap:square;stroke-width:0.5;"/>
   </g>
   <g id="line2d_25">
    <path clip-path="url(#pee71871d09)" d="M 268.379029 499.676291 
L 270.444933 504.347136 
L 275.095459 506.81374 
L 280.193402 508.336975 
L 285.286203 509.906213 
L 290.21496 511.910269 
L 294.812943 514.552864 
" style="fill:none;stroke:#808080;stroke-linecap:square;stroke-width:1.5;"/>
   </g>
   <g id="line2d_26">
    <path clip-path="url(#pee71871d09)" d="M 268.379029 514.552864 
L 268.379029 499.676291 
L 294.812943 499.676291 
L 294.812943 514.552864 
L 268.379029 514.552864 
" style="fill:none;stroke:#d3d3d3;stroke-linecap:square;stroke-width:0.5;"/>
   </g>
   <g id="line2d_27">
    <path clip-path="url(#pee71871d09)" d="M 294.812943 514.552864 
L 298.717215 517.534515 
L 302.458813 520.708349 
L 306.129973 523.963351 
L 309.765424 527.260285 
L 313.382612 530.579039 
L 316.992124 533.907316 
L 320.601292 537.236672 
L 324.215728 540.560756 
L 327.840059 543.874402 
L 331.478338 547.173113 
L 335.134285 550.452741 
L 338.811441 553.709264 
L 342.513279 556.938629 
L 346.243271 560.136627 
L 350.004957 563.29878 
L 353.801978 566.420243 
L 357.638108 569.495704 
L 361.517277 572.519284 
L 365.443569 575.484432 
L 369.421212 578.383824 
L 373.454547 581.209249 
L 377.547959 583.951509 
L 381.705786 586.600319 
L 385.93217 589.144245 
L 390.230862 591.570675 
L 394.604968 593.865862 
L 399.056635 596.015076 
L 403.5867 598.002887 
L 408.19432 599.81362 
L 412.876659 601.431993 
L 417.628674 602.843922 
L 422.443103 604.03741 
L 427.310678 605.003426 
L 432.220557 605.736614 
L 437.160869 606.235707 
L 442.119214 606.503591 
" style="fill:none;stroke:#808080;stroke-linecap:square;stroke-width:1.5;"/>
   </g>
   <g id="line2d_28">
    <path clip-path="url(#pee71871d09)" d="M 294.812943 606.503591 
L 294.812943 514.552864 
L 442.119214 514.552864 
L 442.119214 606.503591 
L 294.812943 606.503591 
" style="fill:none;stroke:#d3d3d3;stroke-linecap:square;stroke-width:0.5;"/>
   </g>
   <g id="line2d_29">
    <path clip-path="url(#pee71871d09)" d="M 442.119214 606.503591 
L 447.204199 606.596966 
L 452.289218 606.52681 
L 457.365779 606.240364 
L 462.418138 605.683865 
L 467.421212 604.803649 
L 472.338536 603.547914 
L 477.120583 601.869531 
L 481.704072 599.730182 
L 486.013164 597.105708 
L 489.963442 593.9918 
L 493.468948 590.408365 
L 496.451221 586.40055 
L 498.847886 582.035285 
L 500.618043 577.394071 
L 501.743042 572.564453 
L 502.223246 567.632811 
L 502.072682 562.680023 
L 501.313478 557.780052 
L 499.971123 553.000733 
L 498.070684 548.406055 
L 495.633705 544.059983 
L 492.675809 540.033281 
" style="fill:none;stroke:#808080;stroke-linecap:square;stroke-width:1.5;"/>
   </g>
   <g id="line2d_30">
    <path clip-path="url(#pee71871d09)" d="M 442.119214 606.596966 
L 442.119214 540.033281 
L 502.223246 540.033281 
L 502.223246 606.596966 
L 442.119214 606.596966 
" style="fill:none;stroke:#d3d3d3;stroke-linecap:square;stroke-width:0.5;"/>
   </g>
   <g id="line2d_31">
    <path clip-path="url(#pee71871d09)" d="M 492.675809 540.033281 
L 489.591067 536.303006 
L 486.559377 532.532764 
L 483.591601 528.716459 
L 480.701335 524.846826 
L 477.905617 520.915143 
L 475.225848 516.910971 
L 472.688985 512.822093 
L 470.328994 508.63498 
L 468.188259 504.336307 
L 466.318067 499.916114 
L 464.776327 495.372702 
L 463.620348 490.717884 
L 462.894412 485.979156 
L 462.616796 481.195503 
L 462.774105 476.40775 
L 463.326649 471.649077 
L 464.220542 466.94059 
L 465.399346 462.292101 
L 466.81138 457.705393 
L 468.412733 453.177575 
L 470.167597 448.703534 
L 472.047362 444.277434 
L 474.029363 439.893525 
" style="fill:none;stroke:#808080;stroke-linecap:square;stroke-width:1.5;"/>
   </g>
   <g id="line2d_32">
    <path clip-path="url(#pee71871d09)" d="M 462.616796 540.033281 
L 462.616796 439.893525 
L 492.675809 439.893525 
L 492.675809 540.033281 
L 462.616796 540.033281 
" style="fill:none;stroke:#d3d3d3;stroke-linecap:square;stroke-width:0.5;"/>
   </g>
   <g id="line2d_33">
    <path clip-path="url(#pee71871d09)" d="M 309.303108 368.398285 
L 309.303108 368.398285 
L 309.303108 368.398285 
" style="fill:none;stroke:#000000;stroke-linecap:square;stroke-width:3;"/>
   </g>
   <g id="line2d_34">
    <path clip-path="url(#pee71871d09)" d="M 309.303108 368.398285 
L 309.303108 368.398285 
L 309.303108 368.398285 
L 309.303108 368.398285 
L 309.303108 368.398285 
" style="fill:none;stroke:#d3d3d3;stroke-linecap:square;stroke-width:0.5;"/>
   </g>
   <g id="line2d_35">
    <path clip-path="url(#pee71871d09)" d="M 309.303108 368.398285 
L 309.303108 368.398285 
L 309.303108 368.398285 
" style="fill:none;stroke:#000000;stroke-linecap:square;stroke-width:3;"/>
   </g>
   <g id="line2d_36">
    <path clip-path="url(#pee71871d09)" d="M 309.303108 368.398285 
L 309.303108 368.398285 
L 309.303108 368.398285 
L 309.303108 368.398285 
L 309.303108 368.398285 
" style="fill:none;stroke:#d3d3d3;stroke-linecap:square;stroke-width:0.5;"/>
   </g>
   <g id="line2d_37">
    <path clip-path="url(#pee71871d09)" d="M 243.207866 413.203621 
L 243.207866 413.203621 
L 243.207866 413.203621 
" style="fill:none;stroke:#000000;stroke-linecap:square;stroke-width:3;"/>
   </g>
   <g id="line2d_38">
    <path clip-path="url(#pee71871d09)" d="M 243.207866 413.203621 
L 243.207866 413.203621 
L 243.207866 413.203621 
L 243.207866 413.203621 
L 243.207866 413.203621 
" style="fill:none;stroke:#d3d3d3;stroke-linecap:square;stroke-width:0.5;"/>
   </g>
   <g id="line2d_39">
    <path clip-path="url(#pee71871d09)" d="M 243.207866 413.203621 
L 243.207866 413.203621 
L 243.207866 413.203621 
" style="fill:none;stroke:#000000;stroke-linecap:square;stroke-width:3;"/>
   </g>
   <g id="line2d_40">
    <path clip-path="url(#pee71871d09)" d="M 243.207866 413.203621 
L 243.207866 413.203621 
L 243.207866 413.203621 
L 243.207866 413.203621 
L 243.207866 413.203621 
" style="fill:none;stroke:#d3d3d3;stroke-linecap:square;stroke-width:0.5;"/>
   </g>
   <g id="line2d_41">
    <path clip-path="url(#pee71871d09)" d="M 277.956466 498.915489 
L 277.08038 497.576101 
L 278.301679 497.988957 
L 282.884695 499.350382 
L 278.416194 497.970757 
" style="fill:none;stroke:#000000;stroke-linecap:square;stroke-width:3;"/>
   </g>
   <g id="line2d_42">
    <path clip-path="url(#pee71871d09)" d="M 277.08038 499.350382 
L 277.08038 497.576101 
L 282.884695 497.576101 
L 282.884695 499.350382 
L 277.08038 499.350382 
" style="fill:none;stroke:#d3d3d3;stroke-linecap:square;stroke-width:0.5;"/>
   </g>
   <g id="line2d_43">
    <path clip-path="url(#pee71871d09)" d="M 309.303108 368.398285 
L 313.207554 373.028584 
L 316.57826 378.357595 
L 319.109758 384.419421 
L 320.438866 391.054822 
L 320.332318 397.856872 
L 318.866128 404.349871 
L 316.351055 410.244053 
L 313.120226 415.479274 
L 309.419007 420.117598 
L 305.403446 424.252089 
L 302.035744 427.207829 
" style="fill:none;stroke:#000000;stroke-linecap:square;stroke-width:3;"/>
   </g>
   <g id="line2d_44">
    <path clip-path="url(#pee71871d09)" d="M 302.035744 427.207829 
L 302.035744 368.398285 
L 320.438866 368.398285 
L 320.438866 427.207829 
L 302.035744 427.207829 
" style="fill:none;stroke:#d3d3d3;stroke-linecap:square;stroke-width:0.5;"/>
   </g>
   <g id="line2d_45">
    <path clip-path="url(#pee71871d09)" d="M 586.343421 325.274089 
L 586.343421 325.274089 
L 583.77137 321.760923 
L 581.045493 318.373089 
L 578.167407 315.118603 
L 575.139742 312.00495 
L 571.966143 309.038931 
L 568.651243 306.226518 
L 565.200601 303.572741 
L 561.620615 301.081596 
L 557.918411 298.755995 
L 554.101702 296.597738 
L 550.17864 294.607531 
L 546.157654 292.785023 
L 542.047292 291.128882 
L 537.856067 289.63688 
L 533.592319 288.306004 
L 529.264102 287.132572 
L 524.879084 286.112352 
L 520.444483 285.240681 
L 515.967016 284.512574 
L 511.452872 283.922827 
L 506.907708 283.466104 
L 502.336649 283.137013 
L 497.74431 282.93017 
L 493.134815 282.840252 
L 488.511826 282.86203 
L 483.878579 282.990408 
L 479.237913 283.220434 
L 474.592298 283.547324 
L 469.943876 283.96646 
L 465.294479 284.473402 
L 460.645663 285.063879 
L 455.998728 285.73379 
L 451.354739 286.479194 
L 446.714548 287.296303 
" style="fill:none;stroke:#000000;stroke-linecap:square;stroke-width:3;"/>
   </g>
   <g id="line2d_46">
    <path clip-path="url(#pee71871d09)" d="M 446.714548 325.274089 
L 446.714548 282.840252 
L 586.343421 282.840252 
L 586.343421 325.274089 
L 446.714548 325.274089 
" style="fill:none;stroke:#d3d3d3;stroke-linecap:square;stroke-width:0.5;"/>
   </g>
   <g id="line2d_47">
    <path clip-path="url(#pee71871d09)" d="M 446.714548 287.296303 
L 442.078804 288.181468 
L 437.447973 289.131169 
L 432.822341 290.142002 
L 428.202028 291.210659 
L 423.586988 292.333917 
L 418.977014 293.508613 
L 414.371735 294.731628 
L 409.770612 295.999864 
L 405.172929 297.31021 
L 400.577782 298.659521 
L 395.984055 300.044571 
L 391.390396 301.462015 
L 386.795182 302.908332 
L 382.196469 304.379753 
L 377.591922 305.872179 
L 372.978727 307.381059 
L 368.353464 308.901242 
L 363.711923 310.426765 
L 359.048836 311.950562 
L 354.357491 313.464039 
L 349.629103 314.956452 
L 344.851829 316.413926 
L 340.009069 317.817863 
L 335.076448 319.142167 
L 330.016039 320.347977 
L 324.764602 321.372508 
L 319.208195 322.101684 
L 313.128965 322.290229 
L 306.158299 321.29804 
L 298.428841 317.571585 
L 292.729587 310.609288 
L 290.513207 303.414856 
L 290.120648 297.119556 
L 290.120648 297.119556 
" style="fill:none;stroke:#000000;stroke-linecap:square;stroke-width:3;"/>
   </g>
   <g id="line2d_48">
    <path clip-path="url(#pee71871d09)" d="M 290.120648 322.290229 
L 290.120648 287.296303 
L 446.714548 287.296303 
L 446.714548 322.290229 
L 290.120648 322.290229 
" style="fill:none;stroke:#d3d3d3;stroke-linecap:square;stroke-width:0.5;"/>
   </g>
   <g id="line2d_49">
    <path clip-path="url(#pee71871d09)" d="M 465.274338 436.035086 
L 465.274338 436.035086 
L 468.798142 430.201936 
L 473.312044 425.335934 
L 478.348604 421.502162 
L 483.589071 418.534909 
L 488.87814 416.226771 
L 494.153164 414.408173 
L 499.392571 412.95588 
L 504.591152 411.782299 
L 509.749745 410.82432 
L 514.871114 410.03525 
L 519.958351 409.379451 
L 525.014258 408.828834 
L 530.041136 408.360525 
L 535.040708 407.955279 
L 540.014093 407.596351 
L 544.961767 407.268668 
L 549.883507 406.95818 
L 554.778283 406.65133 
L 559.644089 406.334576 
L 564.477675 405.993931 
L 569.274146 405.614499 
L 574.026354 405.179961 
L 578.72397 404.672018 
L 583.352061 404.069771 
L 587.888887 403.349123 
L 592.302494 402.482394 
L 596.545541 401.438707 
L 600.548014 400.186421 
L 604.209249 398.700107 
L 607.397289 396.974545 
L 609.978447 395.038044 
L 611.89769 392.923099 
L 613.228111 390.564731 
L 614.052447 387.801381 
L 614.370602 384.573247 
L 614.1841 380.97602 
L 613.543084 377.144111 
L 612.520077 373.180465 
L 611.184863 369.150389 
L 609.595726 365.092816 
L 607.798927 361.030486 
L 605.830636 356.976533 
L 603.719149 352.938395 
L 601.486757 348.920104 
L 599.151197 344.923646 
L 596.726735 340.949759 
L 594.224973 336.998436 
L 591.65544 333.069218 
L 589.026047 329.161388 
L 586.343421 325.274089 
L 586.343421 325.274089 
" style="fill:none;stroke:#000000;stroke-linecap:square;stroke-width:3;"/>
   </g>
   <g id="line2d_50">
    <path clip-path="url(#pee71871d09)" d="M 465.274338 436.035086 
L 465.274338 325.274089 
L 614.370602 325.274089 
L 614.370602 436.035086 
L 465.274338 436.035086 
" style="fill:none;stroke:#d3d3d3;stroke-linecap:square;stroke-width:0.5;"/>
   </g>
   <g id="line2d_51">
    <path clip-path="url(#pee71871d09)" d="M 278.416194 497.970757 
L 277.956466 498.915489 
L 277.956466 498.915489 
" style="fill:none;stroke:#000000;stroke-linecap:square;stroke-width:3;"/>
   </g>
   <g id="line2d_52">
    <path clip-path="url(#pee71871d09)" d="M 277.956466 498.915489 
L 277.956466 497.970757 
L 278.416194 497.970757 
L 278.416194 498.915489 
L 277.956466 498.915489 
" style="fill:none;stroke:#d3d3d3;stroke-linecap:square;stroke-width:0.5;"/>
   </g>
   <g id="line2d_53">
    <path clip-path="url(#pee71871d09)" d="M 300.343102 506.897256 
L 300.343102 506.897256 
L 304.898985 510.36754 
L 308.866448 513.732184 
L 312.64608 517.083202 
L 316.337973 520.431278 
L 319.982559 523.775156 
L 323.600651 527.111343 
L 327.204779 530.43605 
L 330.803384 533.745578 
L 334.402673 537.036333 
L 338.00754 540.304757 
L 341.622072 543.54724 
L 345.249843 546.760034 
L 348.894096 549.939173 
L 352.557861 553.080401 
L 356.244034 556.179089 
L 359.955422 559.230172 
L 363.694776 562.228065 
L 367.464799 565.166595 
L 371.268146 568.038922 
L 375.107401 570.837473 
L 378.985049 573.553877 
L 382.903423 576.178921 
L 386.864638 578.702532 
L 390.87052 581.113799 
L 394.922513 583.401052 
L 399.021599 585.552014 
L 403.168223 587.554047 
L 407.362241 589.394494 
L 411.602911 591.061115 
L 415.888919 592.542591 
L 420.218448 593.829064 
L 424.589246 594.912629 
L 428.99868 595.787748 
L 433.443718 596.451518 
L 437.920801 596.903782 
L 442.425587 597.147105 
" style="fill:none;stroke:#000000;stroke-linecap:square;stroke-width:3;"/>
   </g>
   <g id="line2d_54">
    <path clip-path="url(#pee71871d09)" d="M 300.343102 597.147105 
L 300.343102 506.897256 
L 442.425587 506.897256 
L 442.425587 597.147105 
L 300.343102 597.147105 
" style="fill:none;stroke:#d3d3d3;stroke-linecap:square;stroke-width:0.5;"/>
   </g>
   <g id="line2d_55">
    <path clip-path="url(#pee71871d09)" d="M 278.416194 497.970757 
L 288.50079 501.08432 
L 294.460932 503.512465 
L 300.343102 506.897256 
L 300.343102 506.897256 
" style="fill:none;stroke:#000000;stroke-linecap:square;stroke-width:3;"/>
   </g>
   <g id="line2d_56">
    <path clip-path="url(#pee71871d09)" d="M 278.416194 506.897256 
L 278.416194 497.970757 
L 300.343102 497.970757 
L 300.343102 506.897256 
L 278.416194 506.897256 
" style="fill:none;stroke:#d3d3d3;stroke-linecap:square;stroke-width:0.5;"/>
   </g>
   <g id="line2d_57">
    <path clip-path="url(#pee71871d09)" d="M 442.425587 597.147105 
L 447.243521 597.2358 
L 451.960678 597.171038 
L 456.565739 596.911621 
L 461.041928 596.419123 
L 465.365795 595.659066 
L 469.506828 594.602365 
L 473.428154 593.226991 
L 477.088478 591.519545 
L 480.445063 589.476245 
L 483.457017 587.10296 
L 486.087787 584.414448 
L 488.306152 581.433592 
L 490.086121 578.191394 
L 491.406911 574.72751 
L 492.253715 571.090276 
L 492.618869 567.335487 
L 492.50261 563.524228 
L 491.913003 559.720698 
L 490.865297 555.99091 
L 489.381294 552.402826 
L 487.489698 549.028595 
L 485.229689 545.950454 
L 485.229689 545.950454 
" style="fill:none;stroke:#000000;stroke-linecap:square;stroke-width:3;"/>
   </g>
   <g id="line2d_58">
    <path clip-path="url(#pee71871d09)" d="M 442.425587 597.2358 
L 442.425587 545.950454 
L 492.618869 545.950454 
L 492.618869 597.2358 
L 442.425587 597.2358 
" style="fill:none;stroke:#d3d3d3;stroke-linecap:square;stroke-width:0.5;"/>
   </g>
   <g id="line2d_59">
    <path clip-path="url(#pee71871d09)" d="M 277.956466 498.915489 
L 277.956466 498.915489 
L 277.956466 498.915489 
" style="fill:none;stroke:#000000;stroke-linecap:square;stroke-width:3;"/>
   </g>
   <g id="line2d_60">
    <path clip-path="url(#pee71871d09)" d="M 277.956466 498.915489 
L 277.956466 498.915489 
L 277.956466 498.915489 
L 277.956466 498.915489 
L 277.956466 498.915489 
" style="fill:none;stroke:#d3d3d3;stroke-linecap:square;stroke-width:0.5;"/>
   </g>
   <g id="line2d_61">
    <path clip-path="url(#pee71871d09)" d="M 290.120648 297.119556 
L 290.120648 297.119556 
L 290.06389 292.807391 
L 289.688898 288.773573 
L 288.950454 285.34784 
L 288.15615 283.492589 
L 290.241717 284.533363 
L 292.569939 284.343102 
L 291.244533 285.661915 
L 289.460721 288.392306 
L 287.876614 291.824021 
L 286.602148 295.643 
L 285.649702 299.693978 
L 285.010902 303.889027 
L 284.673592 308.172492 
L 284.625942 312.505813 
L 284.857265 316.860248 
L 285.357944 321.213101 
L 286.119148 325.545628 
L 287.132532 329.841844 
L 288.389985 334.087805 
L 289.88344 338.27118 
L 291.604732 342.38099 
L 293.54551 346.407446 
L 295.697191 350.341848 
L 298.050947 354.176527 
L 300.597724 357.904797 
L 303.328276 361.520918 
L 306.233221 365.020065 
L 309.303108 368.398285 
" style="fill:none;stroke:#000000;stroke-linecap:square;stroke-width:3;"/>
   </g>
   <g id="line2d_62">
    <path clip-path="url(#pee71871d09)" d="M 284.625942 368.398285 
L 284.625942 283.492589 
L 309.303108 283.492589 
L 309.303108 368.398285 
L 284.625942 368.398285 
" style="fill:none;stroke:#d3d3d3;stroke-linecap:square;stroke-width:0.5;"/>
   </g>
   <g id="line2d_63">
    <path clip-path="url(#pee71871d09)" d="M 485.229689 545.950454 
L 485.229689 545.950454 
L 482.069358 542.128741 
L 478.949894 538.249294 
L 475.879873 534.30144 
L 472.870284 530.271942 
L 469.935344 526.144298 
L 467.093715 521.898005 
L 464.370344 517.508096 
L 461.799155 512.945612 
L 459.426523 508.18026 
L 457.314537 503.187093 
L 455.540966 497.958506 
L 454.190697 492.519192 
L 453.33537 486.934615 
L 453.00818 481.300895 
L 453.191118 475.716444 
L 453.824746 470.253891 
L 454.831173 464.949571 
L 456.134082 459.809898 
L 457.66879 454.823646 
L 459.384392 449.972158 
L 461.242133 445.235445 
L 463.212806 440.595057 
L 465.274338 436.035086 
L 465.274338 436.035086 
" style="fill:none;stroke:#000000;stroke-linecap:square;stroke-width:3;"/>
   </g>
   <g id="line2d_64">
    <path clip-path="url(#pee71871d09)" d="M 453.00818 545.950454 
L 453.00818 436.035086 
L 485.229689 436.035086 
L 485.229689 545.950454 
L 453.00818 545.950454 
" style="fill:none;stroke:#d3d3d3;stroke-linecap:square;stroke-width:0.5;"/>
   </g>
   <g id="line2d_65">
    <path clip-path="url(#pee71871d09)" d="M 302.035744 427.207829 
L 300.717326 436.618315 
L 299.583076 441.937153 
L 298.215134 447.058149 
L 296.679131 452.036595 
L 295.017102 456.907507 
L 293.258563 461.694302 
L 291.426082 466.413287 
L 289.538555 471.076026 
L 287.613604 475.690496 
L 285.66998 480.261259 
L 283.73106 484.788219 
L 281.831914 489.261697 
L 280.038399 493.643168 
L 278.521386 497.754588 
L 277.956466 498.915489 
" style="fill:none;stroke:#000000;stroke-linecap:square;stroke-width:3;"/>
   </g>
   <g id="line2d_66">
    <path clip-path="url(#pee71871d09)" d="M 277.956466 498.915489 
L 277.956466 427.207829 
L 302.035744 427.207829 
L 302.035744 498.915489 
L 277.956466 498.915489 
" style="fill:none;stroke:#d3d3d3;stroke-linecap:square;stroke-width:0.5;"/>
   </g>
   <g id="line2d_67">
    <path clip-path="url(#pee71871d09)" d="M 442.425587 597.147105 
L 442.425587 597.147105 
L 442.425587 597.147105 
" style="fill:none;stroke:#000000;stroke-linecap:square;stroke-width:3;"/>
   </g>
   <g id="line2d_68">
    <path clip-path="url(#pee71871d09)" d="M 442.425587 597.147105 
L 442.425587 597.147105 
L 442.425587 597.147105 
L 442.425587 597.147105 
L 442.425587 597.147105 
" style="fill:none;stroke:#d3d3d3;stroke-linecap:square;stroke-width:0.5;"/>
   </g>
   <g id="line2d_69">
    <path clip-path="url(#pee71871d09)" d="M 442.425587 597.147105 
L 442.425587 597.147105 
L 442.425587 597.147105 
" style="fill:none;stroke:#000000;stroke-linecap:square;stroke-width:3;"/>
   </g>
   <g id="line2d_70">
    <path clip-path="url(#pee71871d09)" d="M 442.425587 597.147105 
L 442.425587 597.147105 
L 442.425587 597.147105 
L 442.425587 597.147105 
L 442.425587 597.147105 
" style="fill:none;stroke:#d3d3d3;stroke-linecap:square;stroke-width:0.5;"/>
   </g>
   <g id="line2d_71">
    <path clip-path="url(#pee71871d09)" d="M 295.194921 381.111712 
L 295.194921 381.111712 
L 295.194921 381.111712 
" style="fill:none;stroke:#000000;stroke-linecap:square;stroke-width:3;"/>
   </g>
   <g id="line2d_72">
    <path clip-path="url(#pee71871d09)" d="M 295.194921 381.111712 
L 295.194921 381.111712 
L 295.194921 381.111712 
L 295.194921 381.111712 
L 295.194921 381.111712 
" style="fill:none;stroke:#d3d3d3;stroke-linecap:square;stroke-width:0.5;"/>
   </g>
   <g id="line2d_73">
    <path clip-path="url(#pee71871d09)" d="M 295.194921 381.111712 
L 295.194921 381.111712 
L 295.194921 381.111712 
" style="fill:none;stroke:#000000;stroke-linecap:square;stroke-width:3;"/>
   </g>
   <g id="line2d_74">
    <path clip-path="url(#pee71871d09)" d="M 295.194921 381.111712 
L 295.194921 381.111712 
L 295.194921 381.111712 
L 295.194921 381.111712 
L 295.194921 381.111712 
" style="fill:none;stroke:#d3d3d3;stroke-linecap:square;stroke-width:0.5;"/>
   </g>
   <g id="line2d_75">
    <path clip-path="url(#pee71871d09)" d="M 278.822416 420.521251 
L 277.820383 421.132896 
L 273.829698 423.336347 
L 269.725077 425.396466 
L 265.526721 427.31677 
L 261.25115 429.099552 
L 256.912364 430.745392 
L 252.522889 432.252612 
L 248.094921 433.616494 
L 243.641976 434.828014 
L 239.181941 435.871569 
L 241.589139 435.410997 
" style="fill:none;stroke:#000000;stroke-linecap:square;stroke-width:3;"/>
   </g>
   <g id="line2d_76">
    <path clip-path="url(#pee71871d09)" d="M 239.181941 435.871569 
L 239.181941 420.521251 
L 278.822416 420.521251 
L 278.822416 435.871569 
L 239.181941 435.871569 
" style="fill:none;stroke:#d3d3d3;stroke-linecap:square;stroke-width:0.5;"/>
   </g>
   <g id="line2d_77">
    <path clip-path="url(#pee71871d09)" d="M 252.105997 429.79846 
L 256.351358 427.709301 
L 260.603877 425.777153 
L 264.845691 424.044379 
L 269.039637 422.572299 
L 273.105008 421.451241 
L 276.855832 420.80865 
L 279.851988 420.764956 
L 278.822416 420.521251 
" style="fill:none;stroke:#000000;stroke-linecap:square;stroke-width:3;"/>
   </g>
   <g id="line2d_78">
    <path clip-path="url(#pee71871d09)" d="M 252.105997 429.79846 
L 252.105997 420.521251 
L 279.851988 420.521251 
L 279.851988 429.79846 
L 252.105997 429.79846 
" style="fill:none;stroke:#d3d3d3;stroke-linecap:square;stroke-width:0.5;"/>
   </g>
   <g id="line2d_79">
    <path clip-path="url(#pee71871d09)" d="M 241.589139 435.410997 
L 243.594614 434.283324 
L 247.815953 432.017336 
L 252.105997 429.79846 
" style="fill:none;stroke:#000000;stroke-linecap:square;stroke-width:3;"/>
   </g>
   <g id="line2d_80">
    <path clip-path="url(#pee71871d09)" d="M 241.589139 435.410997 
L 241.589139 429.79846 
L 252.105997 429.79846 
L 252.105997 435.410997 
L 241.589139 435.410997 
" style="fill:none;stroke:#d3d3d3;stroke-linecap:square;stroke-width:0.5;"/>
   </g>
   <g id="line2d_81">
    <path clip-path="url(#pee71871d09)" d="M 252.105997 429.79846 
L 252.105997 429.79846 
L 252.105997 429.79846 
" style="fill:none;stroke:#000000;stroke-linecap:square;stroke-width:3;"/>
   </g>
   <g id="line2d_82">
    <path clip-path="url(#pee71871d09)" d="M 252.105997 429.79846 
L 252.105997 429.79846 
L 252.105997 429.79846 
L 252.105997 429.79846 
L 252.105997 429.79846 
" style="fill:none;stroke:#d3d3d3;stroke-linecap:square;stroke-width:0.5;"/>
   </g>
   <g id="line2d_83">
    <path clip-path="url(#pee71871d09)" d="M 252.105997 429.79846 
L 252.105997 429.79846 
L 252.105997 429.79846 
" style="fill:none;stroke:#000000;stroke-linecap:square;stroke-width:3;"/>
   </g>
   <g id="line2d_84">
    <path clip-path="url(#pee71871d09)" d="M 252.105997 429.79846 
L 252.105997 429.79846 
L 252.105997 429.79846 
L 252.105997 429.79846 
L 252.105997 429.79846 
" style="fill:none;stroke:#d3d3d3;stroke-linecap:square;stroke-width:0.5;"/>
   </g>
   <g id="line2d_85">
    <path clip-path="url(#pee71871d09)" d="M 258.801591 500.437093 
L 258.801591 500.437093 
L 258.801591 500.437093 
" style="fill:none;stroke:#000000;stroke-linecap:square;stroke-width:3;"/>
   </g>
   <g id="line2d_86">
    <path clip-path="url(#pee71871d09)" d="M 258.801591 500.437093 
L 258.801591 500.437093 
L 258.801591 500.437093 
L 258.801591 500.437093 
L 258.801591 500.437093 
" style="fill:none;stroke:#d3d3d3;stroke-linecap:square;stroke-width:0.5;"/>
   </g>
   <g id="line2d_87">
    <path clip-path="url(#pee71871d09)" d="M 258.801591 500.437093 
L 258.801591 500.437093 
L 258.801591 500.437093 
" style="fill:none;stroke:#000000;stroke-linecap:square;stroke-width:3;"/>
   </g>
   <g id="line2d_88">
    <path clip-path="url(#pee71871d09)" d="M 258.801591 500.437093 
L 258.801591 500.437093 
L 258.801591 500.437093 
L 258.801591 500.437093 
L 258.801591 500.437093 
" style="fill:none;stroke:#d3d3d3;stroke-linecap:square;stroke-width:0.5;"/>
   </g>
   <g id="line2d_89">
    <path clip-path="url(#pee71871d09)" d="M 482.784388 443.751965 
L 482.784388 443.751965 
L 484.238724 441.349418 
L 486.31073 439.126296 
L 489.016525 437.075379 
L 492.272062 435.237556 
L 495.951834 433.634922 
L 499.941844 432.261183 
L 504.155621 431.094259 
L 508.531897 430.106964 
L 513.028163 429.272387 
L 517.614952 428.565942 
L 522.271707 427.965808 
L 526.983986 427.452728 
L 531.741605 427.009583 
L 536.537409 426.620907 
L 541.366459 426.27243 
L 546.225484 425.950638 
L 551.112527 425.642346 
L 556.026713 425.334276 
L 560.96811 425.012582 
L 565.937668 424.662317 
L 570.93721 424.266757 
L 575.969481 423.806508 
L 581.038229 423.258268 
L 586.148301 422.593027 
L 591.305664 421.773347 
L 596.517123 420.749127 
L 601.789049 419.450869 
L 607.123259 417.779045 
L 612.504922 415.588551 
L 617.870076 412.672958 
L 623.033059 408.778177 
L 627.592511 403.728368 
L 630.99951 397.692085 
L 632.945068 391.234316 
L 633.586163 384.89785 
L 633.285484 378.912675 
L 632.350143 373.291013 
L 630.980894 367.975402 
L 629.302143 362.90392 
L 627.392727 358.026349 
L 625.304842 353.304712 
L 623.074626 348.710592 
L 620.728098 344.222521 
L 618.284624 339.824013 
L 615.759017 335.502176 
L 613.16287 331.246757 
L 610.505431 327.049469 
L 607.794205 322.903515 
L 605.035364 318.80325 
L 602.234052 314.743933 
L 602.234052 314.743933 
" style="fill:none;stroke:#000000;stroke-linecap:square;stroke-width:3;"/>
   </g>
   <g id="line2d_90">
    <path clip-path="url(#pee71871d09)" d="M 482.784388 443.751965 
L 482.784388 314.743933 
L 633.586163 314.743933 
L 633.586163 443.751965 
L 482.784388 443.751965 
" style="fill:none;stroke:#d3d3d3;stroke-linecap:square;stroke-width:0.5;"/>
   </g>
   <g id="line2d_91">
    <path clip-path="url(#pee71871d09)" d="M 441.81284 615.860076 
L 447.164877 615.958133 
L 452.617759 615.882582 
L 458.16582 615.569108 
L 463.794347 614.948607 
L 469.476629 613.948232 
L 475.170244 612.493464 
L 480.813011 610.51207 
L 486.319665 607.940819 
L 491.581265 604.735171 
L 496.469867 600.880639 
L 500.850109 596.402281 
L 504.59629 591.367509 
L 507.609651 585.879176 
L 509.829174 580.060633 
L 511.23237 574.038631 
L 511.827623 567.930135 
L 511.642753 561.835818 
L 510.713953 555.839406 
L 509.076949 550.010556 
L 506.760075 544.409284 
L 503.777712 539.091372 
L 500.121928 534.116107 
L 500.121928 534.116107 
" style="fill:none;stroke:#000000;stroke-linecap:square;stroke-width:3;"/>
   </g>
   <g id="line2d_92">
    <path clip-path="url(#pee71871d09)" d="M 441.81284 615.958133 
L 441.81284 534.116107 
L 511.827623 534.116107 
L 511.827623 615.958133 
L 441.81284 615.958133 
" style="fill:none;stroke:#d3d3d3;stroke-linecap:square;stroke-width:0.5;"/>
   </g>
   <g id="line2d_93">
    <path clip-path="url(#pee71871d09)" d="M 289.282783 522.208472 
L 289.282783 522.208472 
L 292.535445 524.701489 
L 296.051178 527.684515 
L 299.613867 530.8435 
L 303.192875 534.089292 
L 306.782666 537.382923 
L 310.383596 540.70329 
L 313.997806 544.037294 
L 317.628072 547.375934 
L 321.277445 550.712471 
L 324.949136 554.04147 
L 328.646498 557.358243 
L 332.37304 560.658494 
L 336.132462 563.938084 
L 339.928682 567.192853 
L 343.765881 570.418471 
L 347.648533 573.610315 
L 351.581441 576.763343 
L 355.569755 579.871972 
L 359.618992 582.929942 
L 363.735023 585.930175 
L 367.924044 588.864622 
L 372.192496 591.724097 
L 376.546934 594.498106 
L 380.993821 597.174692 
L 385.539212 599.740298 
L 390.188337 602.179711 
L 394.945048 604.476106 
L 399.811159 606.61128 
L 404.78573 608.566125 
L 409.864398 610.321396 
L 415.0389 611.858781 
L 420.29696 613.162191 
L 425.622676 614.219104 
L 430.997395 615.02171 
L 436.400937 615.567633 
L 441.81284 615.860076 
" style="fill:none;stroke:#000000;stroke-linecap:square;stroke-width:3;"/>
   </g>
   <g id="line2d_94">
    <path clip-path="url(#pee71871d09)" d="M 289.282783 615.860076 
L 289.282783 522.208472 
L 441.81284 522.208472 
L 441.81284 615.860076 
L 289.282783 615.860076 
" style="fill:none;stroke:#d3d3d3;stroke-linecap:square;stroke-width:0.5;"/>
   </g>
   <g id="line2d_95">
    <path clip-path="url(#pee71871d09)" d="M 279.914622 441.33967 
L 278.36308 446.366899 
L 276.855735 450.783745 
L 275.227805 455.214591 
L 273.503184 459.655547 
L 271.701169 464.106865 
L 269.838301 468.572386 
L 267.92988 473.060283 
L 265.991549 477.585866 
L 264.041455 482.179614 
L 262.104189 486.913971 
L 260.220667 492.0381 
L 258.801591 500.437093 
" style="fill:none;stroke:#000000;stroke-linecap:square;stroke-width:3;"/>
   </g>
   <g id="line2d_96">
    <path clip-path="url(#pee71871d09)" d="M 258.801591 500.437093 
L 258.801591 441.33967 
L 279.914622 441.33967 
L 279.914622 500.437093 
L 258.801591 500.437093 
" style="fill:none;stroke:#d3d3d3;stroke-linecap:square;stroke-width:0.5;"/>
   </g>
   <g id="line2d_97">
    <path clip-path="url(#pee71871d09)" d="M 243.207866 413.203621 
L 247.937656 410.876363 
L 252.798067 408.668524 
L 257.82931 406.614229 
L 263.095153 404.767945 
L 268.704148 403.226237 
L 274.854466 402.187957 
L 281.901337 402.149216 
L 290.075912 404.446916 
L 294.75708 408.414947 
" style="fill:none;stroke:#000000;stroke-linecap:square;stroke-width:3;"/>
   </g>
   <g id="line2d_98">
    <path clip-path="url(#pee71871d09)" d="M 243.207866 413.203621 
L 243.207866 402.149216 
L 294.75708 402.149216 
L 294.75708 413.203621 
L 243.207866 413.203621 
" style="fill:none;stroke:#d3d3d3;stroke-linecap:square;stroke-width:0.5;"/>
   </g>
   <g id="line2d_99">
    <path clip-path="url(#pee71871d09)" d="M 500.121928 534.116107 
L 500.121928 534.116107 
L 497.112775 530.477271 
L 494.16886 526.816233 
L 491.303329 523.131478 
L 488.532386 519.42171 
L 485.875891 515.685987 
L 483.357982 511.923936 
L 481.007627 508.136089 
L 478.858833 504.324347 
L 476.949996 500.492354 
L 475.321596 496.645134 
L 474.011687 492.786898 
L 473.049998 488.916577 
L 472.453455 485.023697 
L 472.225412 481.090111 
L 472.357093 477.099055 
L 472.828552 473.044263 
L 473.60991 468.931609 
L 474.66461 464.774304 
L 475.953969 460.58714 
L 477.441074 456.382992 
L 479.09306 452.171622 
L 480.881918 447.959812 
L 482.784388 443.751965 
L 482.784388 443.751965 
" style="fill:none;stroke:#000000;stroke-linecap:square;stroke-width:3;"/>
   </g>
   <g id="line2d_100">
    <path clip-path="url(#pee71871d09)" d="M 472.225412 534.116107 
L 472.225412 443.751965 
L 500.121928 443.751965 
L 500.121928 534.116107 
L 472.225412 534.116107 
" style="fill:none;stroke:#d3d3d3;stroke-linecap:square;stroke-width:0.5;"/>
   </g>
   <g id="line2d_101">
    <path clip-path="url(#pee71871d09)" d="M 258.801591 500.437093 
L 263.809487 511.11817 
L 271.88924 515.638523 
L 277.502109 517.323568 
L 282.071617 518.728106 
L 285.968988 520.308073 
L 289.282783 522.208472 
L 289.282783 522.208472 
" style="fill:none;stroke:#000000;stroke-linecap:square;stroke-width:3;"/>
   </g>
   <g id="line2d_102">
    <path clip-path="url(#pee71871d09)" d="M 258.801591 522.208472 
L 258.801591 500.437093 
L 289.282783 500.437093 
L 289.282783 522.208472 
L 258.801591 522.208472 
" style="fill:none;stroke:#d3d3d3;stroke-linecap:square;stroke-width:0.5;"/>
   </g>
   <g id="line2d_103">
    <path clip-path="url(#pee71871d09)" d="M 309.336026 297.454256 
L 309.336026 297.454256 
L 309.260753 291.92025 
L 308.71675 286.143314 
L 307.34809 279.934637 
L 303.97658 272.862588 
L 293.976561 266.167819 
L 282.061761 268.66715 
L 276.132373 274.09518 
L 272.48644 279.612526 
L 269.923225 285.143537 
L 268.067882 290.691853 
L 266.758784 296.252159 
L 265.910786 301.814569 
L 265.47292 307.367367 
L 265.41171 312.898025 
L 265.703378 318.393614 
L 266.329749 323.841008 
L 267.275887 329.227039 
L 268.528647 334.538658 
L 270.07576 339.763095 
L 271.905243 344.888045 
L 274.00504 349.901845 
L 276.362814 354.793651 
L 278.965864 359.553595 
L 281.801125 364.172915 
L 284.855233 368.64405 
L 288.114633 372.9607 
L 291.565708 377.117842 
L 295.194921 381.111712 
" style="fill:none;stroke:#000000;stroke-linecap:square;stroke-width:3;"/>
   </g>
   <g id="line2d_104">
    <path clip-path="url(#pee71871d09)" d="M 265.41171 381.111712 
L 265.41171 266.167819 
L 309.336026 266.167819 
L 309.336026 381.111712 
L 265.41171 381.111712 
" style="fill:none;stroke:#d3d3d3;stroke-linecap:square;stroke-width:0.5;"/>
   </g>
   <g id="line2d_105">
    <path clip-path="url(#pee71871d09)" d="M 602.234052 314.743933 
L 602.234052 314.743933 
L 599.163488 310.550011 
L 595.894217 306.486962 
L 592.429094 302.568771 
L 588.77314 298.809059 
L 584.933559 295.220658 
L 580.919627 291.815183 
L 576.742474 288.602648 
L 572.414757 285.591143 
L 567.950261 282.786624 
L 563.363457 280.192807 
L 558.669054 277.811189 
L 553.881592 275.641166 
L 549.015088 273.680246 
L 544.082759 271.924308 
L 539.096827 270.367897 
L 534.068401 269.00452 
L 529.007425 267.826928 
L 523.922685 266.827368 
L 518.821851 265.997803 
L 513.711549 265.330089 
L 508.597449 264.816121 
L 503.484358 264.447938 
L 498.376321 264.217807 
L 493.276711 264.118272 
L 488.188312 264.142193 
L 483.113406 264.282763 
L 478.053836 264.533513 
L 473.011069 264.888312 
L 467.986254 265.341354 
L 462.980264 265.887147 
L 457.993737 266.520492 
L 453.027112 267.236466 
L 448.080653 268.030397 
L 443.154479 268.897845 
" style="fill:none;stroke:#000000;stroke-linecap:square;stroke-width:3;"/>
   </g>
   <g id="line2d_106">
    <path clip-path="url(#pee71871d09)" d="M 443.154479 314.743933 
L 443.154479 264.118272 
L 602.234052 264.118272 
L 602.234052 314.743933 
L 443.154479 314.743933 
" style="fill:none;stroke:#d3d3d3;stroke-linecap:square;stroke-width:0.5;"/>
   </g>
   <g id="line2d_107">
    <path clip-path="url(#pee71871d09)" d="M 443.154479 268.897845 
L 438.24858 269.834576 
L 433.362834 270.836539 
L 428.497026 271.899842 
L 423.650855 273.020725 
L 418.823948 274.195535 
L 414.015866 275.4207 
L 409.226114 276.692694 
L 404.454148 278.008009 
L 399.699381 279.363114 
L 394.961195 280.754417 
L 390.238944 282.178209 
L 385.53197 283.63061 
L 380.839619 285.107491 
L 376.161262 286.604389 
L 371.496327 288.116381 
L 366.844348 289.637943 
L 362.205041 291.16274 
L 357.578416 292.683362 
L 352.964959 294.190951 
L 348.365927 295.674668 
L 343.783839 297.120948 
L 339.223327 298.512373 
L 334.692663 299.825992 
L 330.206651 301.030709 
L 325.792449 302.083209 
L 321.502188 302.921748 
L 317.442754 303.458358 
L 313.850818 303.580951 
L 311.255024 303.245937 
L 310.313724 302.858413 
L 310.032928 302.461907 
L 309.513633 300.602721 
L 309.336026 297.454256 
L 309.336026 297.454256 
" style="fill:none;stroke:#000000;stroke-linecap:square;stroke-width:3;"/>
   </g>
   <g id="line2d_108">
    <path clip-path="url(#pee71871d09)" d="M 309.336026 303.580951 
L 309.336026 268.897845 
L 443.154479 268.897845 
L 443.154479 303.580951 
L 309.336026 303.580951 
" style="fill:none;stroke:#d3d3d3;stroke-linecap:square;stroke-width:0.5;"/>
   </g>
   <g id="line2d_109">
    <path clip-path="url(#pee71871d09)" d="M 295.194921 381.111712 
L 297.625824 383.988089 
L 299.48851 386.92215 
L 300.71601 389.845149 
L 301.297444 392.729414 
L 301.250212 395.630665 
L 300.568164 398.625016 
L 299.244414 401.71156 
L 297.320309 404.820358 
L 294.879686 407.873843 
L 292.017261 410.818145 
L 294.75708 408.414947 
" style="fill:none;stroke:#000000;stroke-linecap:square;stroke-width:3;"/>
   </g>
   <g id="line2d_110">
    <path clip-path="url(#pee71871d09)" d="M 292.017261 410.818145 
L 292.017261 381.111712 
L 301.297444 381.111712 
L 301.297444 410.818145 
L 292.017261 410.818145 
" style="fill:none;stroke:#d3d3d3;stroke-linecap:square;stroke-width:0.5;"/>
   </g>
   <g id="line2d_111">
    <path clip-path="url(#pee71871d09)" d="M 279.914622 441.33967 
L 278.203944 442.198343 
L 273.387712 444.401404 
L 268.516843 446.432493 
L 263.593429 448.300138 
L 258.616783 450.008963 
L 253.582825 451.559429 
L 248.482626 452.946886 
L 243.299243 454.159355 
L 238.000411 455.172448 
L 232.51909 455.936225 
L 226.687126 456.331332 
L 219.882461 455.917877 
L 208.462934 448.312981 
L 211.206178 434.192813 
L 216.066 429.519017 
L 220.645686 426.125944 
L 225.160277 423.191455 
L 229.66207 420.501698 
L 234.167372 417.9681 
L 238.681958 415.544563 
L 243.207866 413.203621 
" style="fill:none;stroke:#000000;stroke-linecap:square;stroke-width:3;"/>
   </g>
   <g id="line2d_112">
    <path clip-path="url(#pee71871d09)" d="M 208.462934 456.331332 
L 208.462934 413.203621 
L 279.914622 413.203621 
L 279.914622 456.331332 
L 208.462934 456.331332 
" style="fill:none;stroke:#d3d3d3;stroke-linecap:square;stroke-width:0.5;"/>
   </g>
   <g id="line2d_113">
    <path clip-path="url(#pee71871d09)" d="M 441.81284 615.860076 
L 441.81284 615.860076 
L 441.81284 615.860076 
" style="fill:none;stroke:#000000;stroke-linecap:square;stroke-width:3;"/>
   </g>
   <g id="line2d_114">
    <path clip-path="url(#pee71871d09)" d="M 441.81284 615.860076 
L 441.81284 615.860076 
L 441.81284 615.860076 
L 441.81284 615.860076 
L 441.81284 615.860076 
" style="fill:none;stroke:#d3d3d3;stroke-linecap:square;stroke-width:0.5;"/>
   </g>
   <g id="line2d_115">
    <path clip-path="url(#pee71871d09)" d="M 441.81284 615.860076 
L 441.81284 615.860076 
L 441.81284 615.860076 
" style="fill:none;stroke:#000000;stroke-linecap:square;stroke-width:3;"/>
   </g>
   <g id="line2d_116">
    <path clip-path="url(#pee71871d09)" d="M 441.81284 615.860076 
L 441.81284 615.860076 
L 441.81284 615.860076 
L 441.81284 615.860076 
L 441.81284 615.860076 
" style="fill:none;stroke:#d3d3d3;stroke-linecap:square;stroke-width:0.5;"/>
   </g>
   <g id="line2d_117">
    <path clip-path="url(#pee71871d09)" d="M 594.288737 305.967144 
L 596.131937 306.082427 
L 597.944873 306.426385 
L 599.697774 306.993369 
L 601.36186 307.774069 
L 602.909804 308.755667 
L 604.316192 309.922045 
L 605.557928 311.25405 
L 606.614625 312.729811 
L 607.468931 314.325097 
L 608.106819 316.013712 
L 608.517814 317.76793 
L 608.695168 319.558947 
L 608.635969 321.357354 
L 608.341189 323.13362 
L 607.815668 324.858581 
L 607.068035 326.503912 
L 606.110566 328.042597 
L 604.958983 329.449371 
L 603.632195 330.701134 
L 602.151988 331.777333 
L 600.542666 332.660296 
L 598.830655 333.335526 
L 597.044066 333.791934 
L 595.212234 334.022028 
L 593.365239 334.022028 
L 591.533407 333.791934 
L 589.746818 333.335526 
L 588.034807 332.660296 
L 586.425485 331.777333 
L 584.945278 330.701134 
L 583.61849 329.449371 
L 582.466907 328.042597 
L 581.509438 326.503912 
L 580.761805 324.858581 
L 580.236284 323.13362 
L 579.941504 321.357354 
L 579.882305 319.558947 
L 580.059659 317.76793 
L 580.470654 316.013712 
L 581.108542 314.325097 
L 581.962848 312.729811 
L 583.019545 311.25405 
L 584.261281 309.922045 
L 585.667669 308.755667 
L 587.215614 307.774069 
L 588.879699 306.993369 
L 590.632601 306.426385 
L 592.445536 306.082427 
L 594.288737 305.967144 
" style="fill:none;stroke:#808080;stroke-linecap:square;stroke-width:1.5;"/>
   </g>
   <g id="line2d_118">
    <path clip-path="url(#pee71871d09)" d="M 444.934513 264.055207 
L 446.777714 264.17049 
L 448.590649 264.514448 
L 450.343551 265.081432 
L 452.007636 265.862133 
L 453.555581 266.84373 
L 454.961969 268.010108 
L 456.203705 269.342113 
L 457.260402 270.817875 
L 458.114708 272.41316 
L 458.752596 274.101776 
L 459.163591 275.855994 
L 459.340945 277.64701 
L 459.281746 279.445417 
L 458.986966 281.221684 
L 458.461445 282.946644 
L 457.713812 284.591976 
L 456.756343 286.13066 
L 455.60476 287.537434 
L 454.277972 288.789197 
L 452.797765 289.865396 
L 451.188443 290.74836 
L 449.476432 291.423589 
L 447.689843 291.879998 
L 445.858011 292.110091 
L 444.011016 292.110091 
L 442.179184 291.879998 
L 440.392595 291.423589 
L 438.680584 290.74836 
L 437.071262 289.865396 
L 435.591055 288.789197 
L 434.264267 287.537434 
L 433.112684 286.13066 
L 432.155215 284.591976 
L 431.407582 282.946644 
L 430.882061 281.221684 
L 430.587281 279.445417 
L 430.528082 277.64701 
L 430.705436 275.855994 
L 431.116431 274.101776 
L 431.754319 272.41316 
L 432.608625 270.817875 
L 433.665322 269.342113 
L 434.907058 268.010108 
L 436.313446 266.84373 
L 437.861391 265.862133 
L 439.525476 265.081432 
L 441.278378 264.514448 
L 443.091313 264.17049 
L 444.934513 264.055207 
" style="fill:none;stroke:#808080;stroke-linecap:square;stroke-width:1.5;"/>
   </g>
   <g id="line2d_119">
    <path clip-path="url(#pee71871d09)" d="M 299.728337 283.245039 
L 301.571537 283.360322 
L 303.384473 283.70428 
L 305.137374 284.271264 
L 306.80146 285.051964 
L 308.349405 286.033562 
L 309.755792 287.19994 
L 310.997529 288.531945 
L 312.054225 290.007706 
L 312.908532 291.602992 
L 313.546419 293.291607 
L 313.957414 295.045825 
L 314.134769 296.836842 
L 314.075569 298.635249 
L 313.780789 300.411515 
L 313.255268 302.136476 
L 312.507635 303.781807 
L 311.550166 305.320492 
L 310.398583 306.727266 
L 309.071795 307.979029 
L 307.591588 309.055228 
L 305.982266 309.938191 
L 304.270255 310.613421 
L 302.483666 311.069829 
L 300.651835 311.299923 
L 298.804839 311.299923 
L 296.973007 311.069829 
L 295.186418 310.613421 
L 293.474407 309.938191 
L 291.865085 309.055228 
L 290.384878 307.979029 
L 289.05809 306.727266 
L 287.906507 305.320492 
L 286.949039 303.781807 
L 286.201406 302.136476 
L 285.675884 300.411515 
L 285.381104 298.635249 
L 285.321905 296.836842 
L 285.499259 295.045825 
L 285.910254 293.291607 
L 286.548142 291.602992 
L 287.402448 290.007706 
L 288.459145 288.531945 
L 289.700882 287.19994 
L 291.107269 286.033562 
L 292.655214 285.051964 
L 294.319299 284.271264 
L 296.072201 283.70428 
L 297.885136 283.360322 
L 299.728337 283.245039 
" style="fill:none;stroke:#808080;stroke-linecap:square;stroke-width:1.5;"/>
   </g>
   <g id="line2d_120">
    <path clip-path="url(#pee71871d09)" d="M 302.249015 360.713131 
L 304.092215 360.828415 
L 305.905151 361.172372 
L 307.658052 361.739356 
L 309.322138 362.520057 
L 310.870083 363.501655 
L 312.27647 364.668032 
L 313.518206 366.000037 
L 314.574903 367.475799 
L 315.429209 369.071084 
L 316.067097 370.7597 
L 316.478092 372.513918 
L 316.655446 374.304934 
L 316.596247 376.103341 
L 316.301467 377.879608 
L 315.775946 379.604569 
L 315.028313 381.2499 
L 314.070844 382.788585 
L 312.919261 384.195358 
L 311.592473 385.447122 
L 310.112266 386.52332 
L 308.502944 387.406284 
L 306.790933 388.081513 
L 305.004344 388.537922 
L 303.172512 388.768015 
L 301.325517 388.768015 
L 299.493685 388.537922 
L 297.707096 388.081513 
L 295.995085 387.406284 
L 294.385763 386.52332 
L 292.905556 385.447122 
L 291.578768 384.195358 
L 290.427185 382.788585 
L 289.469716 381.2499 
L 288.722083 379.604569 
L 288.196562 377.879608 
L 287.901782 376.103341 
L 287.842583 374.304934 
L 288.019937 372.513918 
L 288.430932 370.7597 
L 289.06882 369.071084 
L 289.923126 367.475799 
L 290.979823 366.000037 
L 292.22156 364.668032 
L 293.627947 363.501655 
L 295.175892 362.520057 
L 296.839977 361.739356 
L 298.592879 361.172372 
L 300.405814 360.828415 
L 302.249015 360.713131 
" style="fill:none;stroke:#808080;stroke-linecap:square;stroke-width:1.5;"/>
   </g>
   <g id="line2d_121">
    <path clip-path="url(#pee71871d09)" d="M 247.656931 407.459173 
L 249.500132 407.574457 
L 251.313067 407.918414 
L 253.065969 408.485398 
L 254.730054 409.266099 
L 256.277999 410.247697 
L 257.684386 411.414074 
L 258.926123 412.746079 
L 259.98282 414.221841 
L 260.837126 415.817126 
L 261.475014 417.505742 
L 261.886009 419.25996 
L 262.063363 421.050976 
L 262.004164 422.849383 
L 261.709383 424.62565 
L 261.183862 426.350611 
L 260.436229 427.995942 
L 259.478761 429.534627 
L 258.327178 430.9414 
L 257.00039 432.193164 
L 255.520182 433.269362 
L 253.910861 434.152326 
L 252.19885 434.827555 
L 250.41226 435.283964 
L 248.580429 435.514057 
L 246.733433 435.514057 
L 244.901602 435.283964 
L 243.115012 434.827555 
L 241.403001 434.152326 
L 239.79368 433.269362 
L 238.313472 432.193164 
L 236.986684 430.9414 
L 235.835102 429.534627 
L 234.877633 427.995942 
L 234.13 426.350611 
L 233.604479 424.62565 
L 233.309698 422.849383 
L 233.250499 421.050976 
L 233.427853 419.25996 
L 233.838849 417.505742 
L 234.476736 415.817126 
L 235.331042 414.221841 
L 236.387739 412.746079 
L 237.629476 411.414074 
L 239.035863 410.247697 
L 240.583808 409.266099 
L 242.247894 408.485398 
L 244.000795 407.918414 
L 245.81373 407.574457 
L 247.656931 407.459173 
" style="fill:none;stroke:#808080;stroke-linecap:square;stroke-width:1.5;"/>
   </g>
   <g id="line2d_122">
    <path clip-path="url(#pee71871d09)" d="M 268.379029 485.634423 
L 270.222229 485.749707 
L 272.035165 486.093665 
L 273.788066 486.660649 
L 275.452152 487.441349 
L 277.000097 488.422947 
L 278.406484 489.589325 
L 279.648221 490.92133 
L 280.704918 492.397091 
L 281.559224 493.992377 
L 282.197111 495.680992 
L 282.608106 497.43521 
L 282.785461 499.226227 
L 282.726261 501.024633 
L 282.431481 502.8009 
L 281.90596 504.525861 
L 281.158327 506.171192 
L 280.200858 507.709877 
L 279.049275 509.116651 
L 277.722487 510.368414 
L 276.24228 511.444613 
L 274.632958 512.327576 
L 272.920947 513.002806 
L 271.134358 513.459214 
L 269.302527 513.689308 
L 267.455531 513.689308 
L 265.623699 513.459214 
L 263.83711 513.002806 
L 262.125099 512.327576 
L 260.515778 511.444613 
L 259.03557 510.368414 
L 257.708782 509.116651 
L 256.557199 507.709877 
L 255.599731 506.171192 
L 254.852098 504.525861 
L 254.326576 502.8009 
L 254.031796 501.024633 
L 253.972597 499.226227 
L 254.149951 497.43521 
L 254.560946 495.680992 
L 255.198834 493.992377 
L 256.05314 492.397091 
L 257.109837 490.92133 
L 258.351574 489.589325 
L 259.757961 488.422947 
L 261.305906 487.441349 
L 262.969991 486.660649 
L 264.722893 486.093665 
L 266.535828 485.749707 
L 268.379029 485.634423 
" style="fill:none;stroke:#808080;stroke-linecap:square;stroke-width:1.5;"/>
   </g>
   <g id="line2d_123">
    <path clip-path="url(#pee71871d09)" d="M 294.812943 500.510997 
L 296.656143 500.62628 
L 298.469079 500.970238 
L 300.22198 501.537222 
L 301.886066 502.317923 
L 303.434011 503.29952 
L 304.840398 504.465898 
L 306.082134 505.797903 
L 307.138831 507.273664 
L 307.993137 508.86895 
L 308.631025 510.557566 
L 309.04202 512.311784 
L 309.219374 514.1028 
L 309.160175 515.901207 
L 308.865395 517.677474 
L 308.339874 519.402434 
L 307.592241 521.047765 
L 306.634772 522.58645 
L 305.483189 523.993224 
L 304.156401 525.244987 
L 302.676194 526.321186 
L 301.066872 527.204149 
L 299.354861 527.879379 
L 297.568272 528.335788 
L 295.73644 528.565881 
L 293.889445 528.565881 
L 292.057613 528.335788 
L 290.271024 527.879379 
L 288.559013 527.204149 
L 286.949691 526.321186 
L 285.469484 525.244987 
L 284.142696 523.993224 
L 282.991113 522.58645 
L 282.033644 521.047765 
L 281.286011 519.402434 
L 280.76049 517.677474 
L 280.46571 515.901207 
L 280.406511 514.1028 
L 280.583865 512.311784 
L 280.99486 510.557566 
L 281.632748 508.86895 
L 282.487054 507.273664 
L 283.543751 505.797903 
L 284.785488 504.465898 
L 286.191875 503.29952 
L 287.73982 502.317923 
L 289.403905 501.537222 
L 291.156807 500.970238 
L 292.969742 500.62628 
L 294.812943 500.510997 
" style="fill:none;stroke:#808080;stroke-linecap:square;stroke-width:1.5;"/>
   </g>
   <g id="line2d_124">
    <path clip-path="url(#pee71871d09)" d="M 442.119214 592.461723 
L 443.962414 592.577007 
L 445.77535 592.920964 
L 447.528251 593.487948 
L 449.192337 594.268649 
L 450.740282 595.250247 
L 452.146669 596.416624 
L 453.388406 597.74863 
L 454.445102 599.224391 
L 455.299409 600.819677 
L 455.937296 602.508292 
L 456.348291 604.26251 
L 456.525646 606.053527 
L 456.466446 607.851933 
L 456.171666 609.6282 
L 455.646145 611.353161 
L 454.898512 612.998492 
L 453.941043 614.537177 
L 452.78946 615.943951 
L 451.462672 617.195714 
L 449.982465 618.271913 
L 448.373143 619.154876 
L 446.661132 619.830106 
L 444.874543 620.286514 
L 443.042712 620.516607 
L 441.195716 620.516607 
L 439.363884 620.286514 
L 437.577295 619.830106 
L 435.865284 619.154876 
L 434.255962 618.271913 
L 432.775755 617.195714 
L 431.448967 615.943951 
L 430.297384 614.537177 
L 429.339916 612.998492 
L 428.592283 611.353161 
L 428.066761 609.6282 
L 427.771981 607.851933 
L 427.712782 606.053527 
L 427.890136 604.26251 
L 428.301131 602.508292 
L 428.939019 600.819677 
L 429.793325 599.224391 
L 430.850022 597.74863 
L 432.091759 596.416624 
L 433.498146 595.250247 
L 435.046091 594.268649 
L 436.710176 593.487948 
L 438.463078 592.920964 
L 440.276013 592.577007 
L 442.119214 592.461723 
" style="fill:none;stroke:#808080;stroke-linecap:square;stroke-width:1.5;"/>
   </g>
   <g id="line2d_125">
    <path clip-path="url(#pee71871d09)" d="M 492.675809 525.991413 
L 494.519009 526.106697 
L 496.331945 526.450654 
L 498.084846 527.017638 
L 499.748932 527.798339 
L 501.296877 528.779937 
L 502.703264 529.946314 
L 503.945001 531.27832 
L 505.001697 532.754081 
L 505.856003 534.349367 
L 506.493891 536.037982 
L 506.904886 537.7922 
L 507.08224 539.583217 
L 507.023041 541.381623 
L 506.728261 543.15789 
L 506.20274 544.882851 
L 505.455107 546.528182 
L 504.497638 548.066867 
L 503.346055 549.473641 
L 502.019267 550.725404 
L 500.53906 551.801603 
L 498.929738 552.684566 
L 497.217727 553.359795 
L 495.431138 553.816204 
L 493.599306 554.046297 
L 491.752311 554.046297 
L 489.920479 553.816204 
L 488.13389 553.359795 
L 486.421879 552.684566 
L 484.812557 551.801603 
L 483.33235 550.725404 
L 482.005562 549.473641 
L 480.853979 548.066867 
L 479.896511 546.528182 
L 479.148878 544.882851 
L 478.623356 543.15789 
L 478.328576 541.381623 
L 478.269377 539.583217 
L 478.446731 537.7922 
L 478.857726 536.037982 
L 479.495614 534.349367 
L 480.34992 532.754081 
L 481.406617 531.27832 
L 482.648354 529.946314 
L 484.054741 528.779937 
L 485.602686 527.798339 
L 487.266771 527.017638 
L 489.019673 526.450654 
L 490.832608 526.106697 
L 492.675809 525.991413 
" style="fill:none;stroke:#808080;stroke-linecap:square;stroke-width:1.5;"/>
   </g>
   <g id="line2d_126">
    <path clip-path="url(#pee71871d09)" d="M 474.029363 425.851658 
L 475.872564 425.966942 
L 477.685499 426.310899 
L 479.438401 426.877883 
L 481.102486 427.658584 
L 482.650431 428.640182 
L 484.056818 429.806559 
L 485.298555 431.138564 
L 486.355252 432.614326 
L 487.209558 434.209611 
L 487.847445 435.898227 
L 488.258441 437.652445 
L 488.435795 439.443461 
L 488.376596 441.241868 
L 488.081815 443.018135 
L 487.556294 444.743096 
L 486.808661 446.388427 
L 485.851192 447.927112 
L 484.69961 449.333885 
L 483.372822 450.585649 
L 481.892614 451.661847 
L 480.283293 452.544811 
L 478.571282 453.22004 
L 476.784692 453.676449 
L 474.952861 453.906542 
L 473.105865 453.906542 
L 471.274034 453.676449 
L 469.487444 453.22004 
L 467.775433 452.544811 
L 466.166112 451.661847 
L 464.685904 450.585649 
L 463.359116 449.333885 
L 462.207534 447.927112 
L 461.250065 446.388427 
L 460.502432 444.743096 
L 459.976911 443.018135 
L 459.68213 441.241868 
L 459.622931 439.443461 
L 459.800285 437.652445 
L 460.211281 435.898227 
L 460.849168 434.209611 
L 461.703474 432.614326 
L 462.760171 431.138564 
L 464.001908 429.806559 
L 465.408295 428.640182 
L 466.95624 427.658584 
L 468.620325 426.877883 
L 470.373227 426.310899 
L 472.186162 425.966942 
L 474.029363 425.851658 
" style="fill:none;stroke:#808080;stroke-linecap:square;stroke-width:1.5;"/>
   </g>
   <g id="line2d_127"/>
   <g id="line2d_128"/>
   <g id="line2d_129"/>
   <g id="line2d_130"/>
   <g id="line2d_131"/>
   <g id="line2d_132"/>
   <g id="line2d_133"/>
   <g id="line2d_134"/>
   <g id="line2d_135"/>
   <g id="line2d_136"/>
   <g id="line2d_137"/>
   <g id="line2d_138"/>
   <g id="line2d_139"/>
   <g id="line2d_140"/>
   <g id="line2d_141"/>
   <g id="line2d_142"/>
   <g id="line2d_143"/>
   <g id="line2d_144"/>
   <g id="line2d_145"/>
   <g id="line2d_146"/>
   <g id="line2d_147"/>
   <g id="line2d_148"/>
   <g id="line2d_149"/>
   <g id="line2d_150"/>
   <g id="line2d_151"/>
   <g id="line2d_152"/>
   <g id="line2d_153"/>
   <g id="line2d_154"/>
   <g id="line2d_155"/>
   <g id="line2d_156"/>
   <g id="line2d_157"/>
   <g id="line2d_158"/>
   <g id="line2d_159"/>
   <g id="line2d_160"/>
   <g id="line2d_161"/>
   <g id="line2d_162"/>
   <g id="line2d_163"/>
   <g id="line2d_164"/>
   <g id="line2d_165"/>
   <g id="line2d_166"/>
   <g id="line2d_167"/>
   <g id="line2d_168"/>
   <g id="line2d_169"/>
   <g id="line2d_170"/>
   <g id="line2d_171"/>
   <g id="line2d_172"/>
   <g id="line2d_173"/>
   <g id="line2d_174"/>
   <g id="line2d_175"/>
   <g id="line2d_176"/>
   <g id="line2d_177"/>
   <g id="patch_3">
    <path d="M 90 630 
L 90 86.4 
" style="fill:none;stroke:#000000;stroke-linecap:square;stroke-linejoin:miter;stroke-width:0.8;"/>
   </g>
   <g id="patch_4">
    <path d="M 648 630 
L 648 86.4 
" style="fill:none;stroke:#000000;stroke-linecap:square;stroke-linejoin:miter;stroke-width:0.8;"/>
   </g>
   <g id="patch_5">
    <path d="M 90 630 
L 648 630 
" style="fill:none;stroke:#000000;stroke-linecap:square;stroke-linejoin:miter;stroke-width:0.8;"/>
   </g>
   <g id="patch_6">
    <path d="M 90 86.4 
L 648 86.4 
" style="fill:none;stroke:#000000;stroke-linecap:square;stroke-linejoin:miter;stroke-width:0.8;"/>
   </g>
   <g id="text_13">
    <!-- 0 -->
    <g transform="translate(32.079239 499.201134)scale(0.1 -0.1)">
     <use xlink:href="#DejaVuSans-30"/>
    </g>
   </g>
   <g id="text_14">
    <!-- 0 -->
    <g transform="translate(32.079239 485.159267)scale(0.1 -0.1)">
     <use xlink:href="#DejaVuSans-30"/>
    </g>
   </g>
   <g id="text_15">
    <!-- 0 -->
    <g transform="translate(32.079239 471.1174)scale(0.1 -0.1)">
     <use xlink:href="#DejaVuSans-30"/>
    </g>
   </g>
  </g>
 </g>
 <defs>
  <clipPath id="pee71871d09">
   <rect height="543.6" width="558" x="90" y="86.4"/>
  </clipPath>
 </defs>
</svg>
