<?xml version="1.0" encoding="utf-8" standalone="no"?>
<!DOCTYPE svg PUBLIC "-//W3C//DTD SVG 1.1//EN"
  "http://www.w3.org/Graphics/SVG/1.1/DTD/svg11.dtd">
<svg height="720pt" version="1.1" viewBox="0 0 720 720" width="720pt" xmlns="http://www.w3.org/2000/svg" xmlns:xlink="http://www.w3.org/1999/xlink">
 <metadata>
  <rdf:RDF xmlns:cc="http://creativecommons.org/ns#" xmlns:dc="http://purl.org/dc/elements/1.1/" xmlns:rdf="http://www.w3.org/1999/02/22-rdf-syntax-ns#">
   <cc:Work>
    <dc:type rdf:resource="http://purl.org/dc/dcmitype/StillImage"/>
    <dc:date>2022-01-11T13:26:03.346071</dc:date>
    <dc:format>image/svg+xml</dc:format>
    <dc:creator>
     <cc:Agent>
      <dc:title>Matplotlib v3.4.3, https://matplotlib.org/</dc:title>
     </cc:Agent>
    </dc:creator>
   </cc:Work>
  </rdf:RDF>
 </metadata>
 <defs>
  <style type="text/css">*{stroke-linecap:butt;stroke-linejoin:round;}</style>
 </defs>
 <g id="figure_1">
  <g id="patch_1">
   <path d="M 0 720 
L 720 720 
L 720 0 
L 0 0 
z
" style="fill:none;"/>
  </g>
  <g id="axes_1">
   <g id="patch_2">
    <path d="M 90 630 
L 648 630 
L 648 86.4 
L 90 86.4 
z
" style="fill:#ffffff;"/>
   </g>
   <g id="PathCollection_1">
    <defs>
     <path d="M 0.972304 -8.870829 
Q -1.277159 -8.870829 -2.413438 -6.653699 
Q -3.545098 -4.441189 -3.545098 0.006929 
Q -3.545098 4.436569 -2.413438 6.653699 
Q -1.277159 8.870829 0.972304 8.870829 
Q 3.240243 8.870829 4.371903 6.653699 
Q 5.508182 4.436569 5.508182 0.006929 
Q 5.508182 -4.441189 4.371903 -6.653699 
Q 3.240243 -8.870829 0.972304 -8.870829 
z
M 0.972304 -11.18034 
Q 4.598235 -11.18034 6.51051 -8.311928 
Q 8.422784 -5.448135 8.422784 0.006929 
Q 8.422784 5.448135 6.51051 8.316547 
Q 4.598235 11.18034 0.972304 11.18034 
Q -2.649008 11.18034 -4.561283 8.316547 
Q -6.473558 5.448135 -6.473558 0.006929 
Q -6.473558 -5.448135 -4.561283 -8.311928 
Q -2.649008 -11.18034 0.972304 -11.18034 
z
" id="m19d55dba78" style="stroke:#808080;"/>
    </defs>
    <g clip-path="url(#p086587fa30)">
     <use style="fill:#808080;stroke:#808080;" x="576.056269" xlink:href="#m19d55dba78" y="133.322633"/>
    </g>
   </g>
   <g id="PathCollection_2">
    <defs>
     <path d="M -4.535873 8.63565 
L 0.404946 8.63565 
L 0.404946 -8.424791 
L -4.971969 -7.346533 
L -4.971969 -10.102082 
L 0.376192 -11.18034 
L 3.400108 -11.18034 
L 3.400108 8.63565 
L 8.340927 8.63565 
L 8.340927 11.18034 
L -4.535873 11.18034 
L -4.535873 8.63565 
z
" id="m2660245ac1" style="stroke:#808080;"/>
    </defs>
    <g clip-path="url(#p086587fa30)">
     <use style="fill:#808080;stroke:#808080;" x="426.448007" xlink:href="#m2660245ac1" y="133.780089"/>
    </g>
   </g>
   <g id="PathCollection_3">
    <defs>
     <path d="M -2.294912 8.680651 
L 8.075736 8.680651 
L 8.075736 11.18034 
L -5.867913 11.18034 
L -5.867913 8.680651 
Q -4.177916 6.929457 -1.259259 3.982555 
Q 1.664105 1.030945 2.4126 0.174178 
Q 3.838976 -1.426376 4.403877 -2.537349 
Q 4.973486 -3.648321 4.973486 -4.721634 
Q 4.973486 -6.472828 3.744825 -7.574386 
Q 2.516165 -8.680651 0.543718 -8.680651 
Q -0.854413 -8.680651 -2.407892 -8.195778 
Q -3.956663 -7.710904 -5.72198 -6.722326 
L -5.72198 -9.725719 
Q -3.928418 -10.445968 -2.370232 -10.813154 
Q -0.807338 -11.18034 0.487227 -11.18034 
Q 3.900173 -11.18034 5.929111 -9.471513 
Q 7.958048 -7.767394 7.958048 -4.914642 
Q 7.958048 -3.558879 7.449637 -2.344341 
Q 6.945933 -1.13451 5.604292 0.513119 
Q 5.237107 0.941502 3.264659 2.979855 
Q 1.296919 5.018207 -2.294912 8.680651 
z
" id="m506378db85" style="stroke:#808080;"/>
    </defs>
    <g clip-path="url(#p086587fa30)">
     <use style="fill:#808080;stroke:#808080;" x="282.635502" xlink:href="#m506378db85" y="196.900777"/>
    </g>
   </g>
   <g id="PathCollection_4">
    <defs>
     <path d="M 3.77605 -0.861447 
Q 5.868466 -0.413402 7.041697 1.004637 
Q 8.219548 2.418057 8.219548 4.496617 
Q 8.219548 7.683741 6.025513 9.43435 
Q 3.831478 11.18034 -0.210165 11.18034 
Q -1.563539 11.18034 -3.000054 10.912437 
Q -4.436569 10.644533 -5.965465 10.108727 
L -5.965465 7.295743 
Q -4.755282 8.002454 -3.314147 8.362737 
Q -1.868394 8.723021 -0.293308 8.723021 
Q 2.445772 8.723021 3.882287 7.64217 
Q 5.318802 6.561319 5.318802 4.496617 
Q 5.318802 2.588961 3.983905 1.517348 
Q 2.649008 0.441116 0.270213 0.441116 
L -2.242535 0.441116 
L -2.242535 -1.956155 
L 0.385688 -1.956155 
Q 2.533533 -1.956155 3.674431 -2.815293 
Q 4.815329 -3.674431 4.815329 -5.291088 
Q 4.815329 -6.949317 3.637479 -7.836169 
Q 2.464248 -8.72764 0.270213 -8.72764 
Q -0.930733 -8.72764 -2.302582 -8.464356 
Q -3.674431 -8.20569 -5.318802 -7.660646 
L -5.318802 -10.256536 
Q -3.655955 -10.718438 -2.205582 -10.949389 
Q -0.75521 -11.18034 0.528878 -11.18034 
Q 3.849954 -11.18034 5.780705 -9.66992 
Q 7.716074 -8.164119 7.716074 -5.595944 
Q 7.716074 -3.803764 6.690652 -2.570485 
Q 5.665229 -1.337207 3.77605 -0.861447 
z
" id="m3896c4eceb" style="stroke:#808080;"/>
    </defs>
    <g clip-path="url(#p086587fa30)">
     <use style="fill:#808080;stroke:#808080;" x="134.144977" xlink:href="#m3896c4eceb" y="248.695888"/>
    </g>
   </g>
   <g id="PathCollection_5">
    <defs>
     <path d="M 2.695646 -8.544598 
L -4.943215 3.392919 
L 2.695646 3.392919 
L 2.695646 -8.544598 
z
M 1.900131 -11.18034 
L 5.705184 -11.18034 
L 5.705184 3.392919 
L 8.896829 3.392919 
L 8.896829 5.908855 
L 5.705184 5.908855 
L 5.705184 11.18034 
L 2.695646 11.18034 
L 2.695646 5.908855 
L -7.396852 5.908855 
L -7.396852 2.99037 
L 1.900131 -11.18034 
z
" id="mb2a97242cc" style="stroke:#808080;"/>
    </defs>
    <g clip-path="url(#p086587fa30)">
     <use style="fill:#808080;stroke:#808080;" x="134.144977" xlink:href="#mb2a97242cc" y="248.695888"/>
    </g>
   </g>
   <g id="PathCollection_6">
    <defs>
     <path d="M -5.008473 -11.18034 
L 6.639575 -11.18034 
L 6.639575 -8.679629 
L -2.291535 -8.679629 
L -2.291535 -3.306861 
Q -1.647555 -3.527789 -1.003575 -3.635902 
Q -0.354894 -3.744015 0.293787 -3.744015 
Q 3.964943 -3.744015 6.108409 -1.732165 
Q 8.256576 0.279685 8.256576 3.715812 
Q 8.256576 7.255352 6.052002 9.220196 
Q 3.847428 11.18034 -0.16217 11.18034 
Q -1.544142 11.18034 -2.97782 10.945311 
Q -4.406798 10.710281 -5.934488 10.240223 
L -5.934488 7.255352 
Q -4.613624 7.974541 -3.203448 8.327085 
Q -1.793273 8.679629 -0.223278 8.679629 
Q 2.319738 8.679629 3.800422 7.344663 
Q 5.285807 6.009697 5.285807 3.715812 
Q 5.285807 1.426627 3.800422 0.091661 
Q 2.319738 -1.248005 -0.223278 -1.248005 
Q -1.412526 -1.248005 -2.597073 -0.984772 
Q -3.77692 -0.72154 -5.008473 -0.16217 
L -5.008473 -11.18034 
z
" id="mc1d31c1e30" style="stroke:#808080;"/>
    </defs>
    <g clip-path="url(#p086587fa30)">
     <use style="fill:#808080;stroke:#808080;" x="197.608591" xlink:href="#mc1d31c1e30" y="401.499529"/>
    </g>
   </g>
   <g id="PathCollection_7">
    <defs>
     <path d="M 1.286397 -1.175541 
Q -0.676687 -1.175541 -1.826823 0.168594 
Q -2.97234 1.50811 -2.97234 3.845335 
Q -2.97234 6.168702 -1.826823 7.522075 
Q -0.676687 8.870829 1.286397 8.870829 
Q 3.249481 8.870829 4.394998 7.522075 
Q 5.540515 6.168702 5.540515 3.845335 
Q 5.540515 1.50811 4.394998 0.168594 
Q 3.249481 -1.175541 1.286397 -1.175541 
z
M 7.07403 -10.316583 
L 7.07403 -7.660646 
Q 5.974703 -8.177976 4.8569 -8.450499 
Q 3.739097 -8.72764 2.63977 -8.72764 
Q -0.247118 -8.72764 -1.771394 -6.778413 
Q -3.291052 -4.829186 -3.508146 -0.889162 
Q -2.658246 -2.145535 -1.374159 -2.815293 
Q -0.085452 -3.485051 1.457301 -3.485051 
Q 4.704473 -3.485051 6.589033 -1.512729 
Q 8.473594 0.454974 8.473594 3.845335 
Q 8.473594 7.166411 6.51051 9.175685 
Q 4.547426 11.18034 1.286397 11.18034 
Q -2.45501 11.18034 -4.43195 8.316547 
Q -6.408891 5.448135 -6.408891 0.006929 
Q -6.408891 -5.101708 -3.983905 -8.141024 
Q -1.55892 -11.18034 2.524295 -11.18034 
Q 3.623622 -11.18034 4.741425 -10.963246 
Q 5.859228 -10.746152 7.07403 -10.316583 
z
" id="m24d1a6926f" style="stroke:#808080;"/>
    </defs>
    <g clip-path="url(#p086587fa30)">
     <use style="fill:#808080;stroke:#808080;" x="348.488933" xlink:href="#m24d1a6926f" y="512.570736"/>
    </g>
   </g>
   <g id="PathCollection_8">
    <defs>
     <path d="M -5.93042 -11.18034 
L 8.446356 -11.18034 
L 8.446356 -9.891222 
L 0.32827 11.18034 
L -2.829829 11.18034 
L 4.809032 -8.630858 
L -5.93042 -8.630858 
L -5.93042 -11.18034 
z
" id="me7a9590e04" style="stroke:#808080;"/>
    </defs>
    <g clip-path="url(#p086587fa30)">
     <use style="fill:#808080;stroke:#808080;" x="502.857565" xlink:href="#me7a9590e04" y="458.252359"/>
    </g>
   </g>
   <g id="PathCollection_9">
    <defs>
     <path d="M 1.002328 0.524259 
Q -1.076232 0.524259 -2.267939 1.637443 
Q -3.455028 2.750627 -3.455028 4.695235 
Q -3.455028 6.644461 -2.267939 7.757645 
Q -1.076232 8.870829 1.002328 8.870829 
Q 3.080887 8.870829 4.277213 7.753026 
Q 5.478159 6.630604 5.478159 4.695235 
Q 5.478159 2.750627 4.286451 1.637443 
Q 3.099363 0.524259 1.002328 0.524259 
z
M -1.912275 -0.713639 
Q -3.787597 -1.175541 -4.836115 -2.459629 
Q -5.880014 -3.748335 -5.880014 -5.595944 
Q -5.880014 -8.177976 -4.041643 -9.679158 
Q -2.198654 -11.18034 1.002328 -11.18034 
Q 4.221785 -11.18034 6.055536 -9.679158 
Q 7.889288 -8.177976 7.889288 -5.595944 
Q 7.889288 -3.748335 6.84077 -2.459629 
Q 5.796871 -1.175541 3.935406 -0.713639 
Q 6.041679 -0.224023 7.214911 1.207874 
Q 8.392761 2.635151 8.392761 4.695235 
Q 8.392761 7.83155 6.480486 9.508254 
Q 4.568212 11.18034 1.002328 11.18034 
Q -2.558938 11.18034 -4.475831 9.508254 
Q -6.388106 7.83155 -6.388106 4.695235 
Q -6.388106 2.635151 -5.205636 1.207874 
Q -4.018548 -0.224023 -1.912275 -0.713639 
z
M -2.979268 -5.318802 
Q -2.979268 -3.646717 -1.93537 -2.709056 
Q -0.886852 -1.771394 1.002328 -1.771394 
Q 2.882269 -1.771394 3.940025 -2.709056 
Q 5.0024 -3.646717 5.0024 -5.318802 
Q 5.0024 -6.995507 3.940025 -7.933168 
Q 2.882269 -8.870829 1.002328 -8.870829 
Q -0.886852 -8.870829 -1.93537 -7.933168 
Q -2.979268 -6.995507 -2.979268 -5.318802 
z
" id="m2913178acd" style="stroke:#808080;"/>
    </defs>
    <g clip-path="url(#p086587fa30)">
     <use style="fill:#808080;stroke:#808080;" x="524.640576" xlink:href="#m2913178acd" y="339.538462"/>
    </g>
   </g>
   <g id="PathCollection_10"/>
   <g id="PathCollection_11"/>
   <g id="PathCollection_12"/>
   <g id="PathCollection_13"/>
   <g id="PathCollection_14"/>
   <g id="matplotlib.axis_1">
    <g id="xtick_1">
     <g id="line2d_1">
      <defs>
       <path d="M 0 0 
L 0 3.5 
" id="maaa949d475" style="stroke:#000000;stroke-width:0.8;"/>
      </defs>
      <g>
       <use style="stroke:#000000;stroke-width:0.8;" x="92.219456" xlink:href="#maaa949d475" y="630"/>
      </g>
     </g>
     <g id="text_1">
      <!-- −300 -->
      <g transform="translate(78.485863 644.598438)scale(0.1 -0.1)">
       <defs>
        <path d="M 678 2272 
L 4684 2272 
L 4684 1741 
L 678 1741 
L 678 2272 
z
" id="DejaVuSans-2212" transform="scale(0.015625)"/>
        <path d="M 2597 2516 
Q 3050 2419 3304 2112 
Q 3559 1806 3559 1356 
Q 3559 666 3084 287 
Q 2609 -91 1734 -91 
Q 1441 -91 1130 -33 
Q 819 25 488 141 
L 488 750 
Q 750 597 1062 519 
Q 1375 441 1716 441 
Q 2309 441 2620 675 
Q 2931 909 2931 1356 
Q 2931 1769 2642 2001 
Q 2353 2234 1838 2234 
L 1294 2234 
L 1294 2753 
L 1863 2753 
Q 2328 2753 2575 2939 
Q 2822 3125 2822 3475 
Q 2822 3834 2567 4026 
Q 2313 4219 1838 4219 
Q 1578 4219 1281 4162 
Q 984 4106 628 3988 
L 628 4550 
Q 988 4650 1302 4700 
Q 1616 4750 1894 4750 
Q 2613 4750 3031 4423 
Q 3450 4097 3450 3541 
Q 3450 3153 3228 2886 
Q 3006 2619 2597 2516 
z
" id="DejaVuSans-33" transform="scale(0.015625)"/>
        <path d="M 2034 4250 
Q 1547 4250 1301 3770 
Q 1056 3291 1056 2328 
Q 1056 1369 1301 889 
Q 1547 409 2034 409 
Q 2525 409 2770 889 
Q 3016 1369 3016 2328 
Q 3016 3291 2770 3770 
Q 2525 4250 2034 4250 
z
M 2034 4750 
Q 2819 4750 3233 4129 
Q 3647 3509 3647 2328 
Q 3647 1150 3233 529 
Q 2819 -91 2034 -91 
Q 1250 -91 836 529 
Q 422 1150 422 2328 
Q 422 3509 836 4129 
Q 1250 4750 2034 4750 
z
" id="DejaVuSans-30" transform="scale(0.015625)"/>
       </defs>
       <use xlink:href="#DejaVuSans-2212"/>
       <use x="83.789062" xlink:href="#DejaVuSans-33"/>
       <use x="147.412109" xlink:href="#DejaVuSans-30"/>
       <use x="211.035156" xlink:href="#DejaVuSans-30"/>
      </g>
     </g>
    </g>
    <g id="xtick_2">
     <g id="line2d_2">
      <g>
       <use style="stroke:#000000;stroke-width:0.8;" x="199.835533" xlink:href="#maaa949d475" y="630"/>
      </g>
     </g>
     <g id="text_2">
      <!-- −200 -->
      <g transform="translate(186.101939 644.598438)scale(0.1 -0.1)">
       <defs>
        <path d="M 1228 531 
L 3431 531 
L 3431 0 
L 469 0 
L 469 531 
Q 828 903 1448 1529 
Q 2069 2156 2228 2338 
Q 2531 2678 2651 2914 
Q 2772 3150 2772 3378 
Q 2772 3750 2511 3984 
Q 2250 4219 1831 4219 
Q 1534 4219 1204 4116 
Q 875 4013 500 3803 
L 500 4441 
Q 881 4594 1212 4672 
Q 1544 4750 1819 4750 
Q 2544 4750 2975 4387 
Q 3406 4025 3406 3419 
Q 3406 3131 3298 2873 
Q 3191 2616 2906 2266 
Q 2828 2175 2409 1742 
Q 1991 1309 1228 531 
z
" id="DejaVuSans-32" transform="scale(0.015625)"/>
       </defs>
       <use xlink:href="#DejaVuSans-2212"/>
       <use x="83.789062" xlink:href="#DejaVuSans-32"/>
       <use x="147.412109" xlink:href="#DejaVuSans-30"/>
       <use x="211.035156" xlink:href="#DejaVuSans-30"/>
      </g>
     </g>
    </g>
    <g id="xtick_3">
     <g id="line2d_3">
      <g>
       <use style="stroke:#000000;stroke-width:0.8;" x="307.451609" xlink:href="#maaa949d475" y="630"/>
      </g>
     </g>
     <g id="text_3">
      <!-- −100 -->
      <g transform="translate(293.718015 644.598438)scale(0.1 -0.1)">
       <defs>
        <path d="M 794 531 
L 1825 531 
L 1825 4091 
L 703 3866 
L 703 4441 
L 1819 4666 
L 2450 4666 
L 2450 531 
L 3481 531 
L 3481 0 
L 794 0 
L 794 531 
z
" id="DejaVuSans-31" transform="scale(0.015625)"/>
       </defs>
       <use xlink:href="#DejaVuSans-2212"/>
       <use x="83.789062" xlink:href="#DejaVuSans-31"/>
       <use x="147.412109" xlink:href="#DejaVuSans-30"/>
       <use x="211.035156" xlink:href="#DejaVuSans-30"/>
      </g>
     </g>
    </g>
    <g id="xtick_4">
     <g id="line2d_4">
      <g>
       <use style="stroke:#000000;stroke-width:0.8;" x="415.067686" xlink:href="#maaa949d475" y="630"/>
      </g>
     </g>
     <g id="text_4">
      <!-- 0 -->
      <g transform="translate(411.886436 644.598438)scale(0.1 -0.1)">
       <use xlink:href="#DejaVuSans-30"/>
      </g>
     </g>
    </g>
    <g id="xtick_5">
     <g id="line2d_5">
      <g>
       <use style="stroke:#000000;stroke-width:0.8;" x="522.683762" xlink:href="#maaa949d475" y="630"/>
      </g>
     </g>
     <g id="text_5">
      <!-- 100 -->
      <g transform="translate(513.140012 644.598438)scale(0.1 -0.1)">
       <use xlink:href="#DejaVuSans-31"/>
       <use x="63.623047" xlink:href="#DejaVuSans-30"/>
       <use x="127.246094" xlink:href="#DejaVuSans-30"/>
      </g>
     </g>
    </g>
    <g id="xtick_6">
     <g id="line2d_6">
      <g>
       <use style="stroke:#000000;stroke-width:0.8;" x="630.299838" xlink:href="#maaa949d475" y="630"/>
      </g>
     </g>
     <g id="text_6">
      <!-- 200 -->
      <g transform="translate(620.756088 644.598438)scale(0.1 -0.1)">
       <use xlink:href="#DejaVuSans-32"/>
       <use x="63.623047" xlink:href="#DejaVuSans-30"/>
       <use x="127.246094" xlink:href="#DejaVuSans-30"/>
      </g>
     </g>
    </g>
   </g>
   <g id="matplotlib.axis_2">
    <g id="ytick_1">
     <g id="line2d_7">
      <defs>
       <path d="M 0 0 
L -3.5 0 
" id="mba95bdda6f" style="stroke:#000000;stroke-width:0.8;"/>
      </defs>
      <g>
       <use style="stroke:#000000;stroke-width:0.8;" x="90" xlink:href="#mba95bdda6f" y="627.83782"/>
      </g>
     </g>
     <g id="text_7">
      <!-- −300 -->
      <g transform="translate(55.532812 631.637039)scale(0.1 -0.1)">
       <use xlink:href="#DejaVuSans-2212"/>
       <use x="83.789062" xlink:href="#DejaVuSans-33"/>
       <use x="147.412109" xlink:href="#DejaVuSans-30"/>
       <use x="211.035156" xlink:href="#DejaVuSans-30"/>
      </g>
     </g>
    </g>
    <g id="ytick_2">
     <g id="line2d_8">
      <g>
       <use style="stroke:#000000;stroke-width:0.8;" x="90" xlink:href="#mba95bdda6f" y="522.998933"/>
      </g>
     </g>
     <g id="text_8">
      <!-- −200 -->
      <g transform="translate(55.532812 526.798151)scale(0.1 -0.1)">
       <use xlink:href="#DejaVuSans-2212"/>
       <use x="83.789062" xlink:href="#DejaVuSans-32"/>
       <use x="147.412109" xlink:href="#DejaVuSans-30"/>
       <use x="211.035156" xlink:href="#DejaVuSans-30"/>
      </g>
     </g>
    </g>
    <g id="ytick_3">
     <g id="line2d_9">
      <g>
       <use style="stroke:#000000;stroke-width:0.8;" x="90" xlink:href="#mba95bdda6f" y="418.160045"/>
      </g>
     </g>
     <g id="text_9">
      <!-- −100 -->
      <g transform="translate(55.532812 421.959264)scale(0.1 -0.1)">
       <use xlink:href="#DejaVuSans-2212"/>
       <use x="83.789062" xlink:href="#DejaVuSans-31"/>
       <use x="147.412109" xlink:href="#DejaVuSans-30"/>
       <use x="211.035156" xlink:href="#DejaVuSans-30"/>
      </g>
     </g>
    </g>
    <g id="ytick_4">
     <g id="line2d_10">
      <g>
       <use style="stroke:#000000;stroke-width:0.8;" x="90" xlink:href="#mba95bdda6f" y="313.321158"/>
      </g>
     </g>
     <g id="text_10">
      <!-- 0 -->
      <g transform="translate(76.6375 317.120377)scale(0.1 -0.1)">
       <use xlink:href="#DejaVuSans-30"/>
      </g>
     </g>
    </g>
    <g id="ytick_5">
     <g id="line2d_11">
      <g>
       <use style="stroke:#000000;stroke-width:0.8;" x="90" xlink:href="#mba95bdda6f" y="208.482271"/>
      </g>
     </g>
     <g id="text_11">
      <!-- 100 -->
      <g transform="translate(63.9125 212.281489)scale(0.1 -0.1)">
       <use xlink:href="#DejaVuSans-31"/>
       <use x="63.623047" xlink:href="#DejaVuSans-30"/>
       <use x="127.246094" xlink:href="#DejaVuSans-30"/>
      </g>
     </g>
    </g>
    <g id="ytick_6">
     <g id="line2d_12">
      <g>
       <use style="stroke:#000000;stroke-width:0.8;" x="90" xlink:href="#mba95bdda6f" y="103.643383"/>
      </g>
     </g>
     <g id="text_12">
      <!-- 200 -->
      <g transform="translate(63.9125 107.442602)scale(0.1 -0.1)">
       <use xlink:href="#DejaVuSans-32"/>
       <use x="63.623047" xlink:href="#DejaVuSans-30"/>
       <use x="127.246094" xlink:href="#DejaVuSans-30"/>
      </g>
     </g>
    </g>
   </g>
   <g id="line2d_13">
    <path clip-path="url(#p086587fa30)" d="M 524.640576 339.538462 
L 529.672664 341.74904 
L 534.950692 343.320234 
L 540.403737 344.141849 
L 545.9211 344.141017 
L 551.372308 343.308985 
L 556.639453 341.704366 
L 561.641217 339.430115 
L 566.337082 336.602397 
L 570.717615 333.328609 
L 574.791764 329.698203 
L 578.577061 325.781876 
L 582.093688 321.634269 
L 585.361412 317.297397 
L 588.398204 312.803705 
L 591.21977 308.178486 
L 593.839512 303.441698 
L 596.268673 298.609299 
L 598.516553 293.694229 
L 600.590719 288.707135 
L 602.497215 283.656916 
L 604.240727 278.551123 
L 605.824735 273.396285 
L 607.251628 268.198146 
L 608.522804 262.961869 
L 609.638747 257.692198 
L 610.599084 252.393592 
L 611.402641 247.070351 
L 612.047473 241.726721 
L 612.530899 236.367 
L 612.84953 230.995635 
L 612.999287 225.61732 
L 612.975433 220.237101 
L 612.772604 214.860477 
L 612.384849 209.493508 
L 611.805692 204.142929 
L 611.028208 198.816266 
L 610.045133 193.521944 
L 608.849011 188.269401 
L 607.432375 183.069174 
L 605.787991 177.932965 
L 603.909139 172.87367 
L 601.789955 167.905337 
L 599.425811 163.043057 
L 596.813708 158.302759 
L 593.952676 153.700899 
L 590.844118 149.254047 
L 587.492069 144.97838 
L 583.903319 140.889125 
L 580.087379 136.999988 
L 576.056269 133.322633 
" style="fill:none;stroke:#808080;stroke-linecap:square;stroke-width:1.5;"/>
   </g>
   <g id="line2d_14">
    <path clip-path="url(#p086587fa30)" d="M 524.640576 344.141849 
L 524.640576 133.322633 
L 612.999287 133.322633 
L 612.999287 344.141849 
L 524.640576 344.141849 
" style="fill:none;stroke:#d3d3d3;stroke-linecap:square;stroke-width:0.5;"/>
   </g>
   <g id="line2d_15">
    <path clip-path="url(#p086587fa30)" d="M 576.056269 133.322633 
L 571.869014 129.929586 
L 567.467072 126.805219 
L 562.862272 123.972122 
L 558.071571 121.44863 
L 553.116254 119.247385 
L 548.02062 117.374433 
L 542.810366 115.829002 
L 537.510959 114.603998 
L 532.146262 113.687042 
L 526.737566 113.061805 
L 521.303068 112.709403 
L 515.857739 112.609649 
L 510.413476 112.742072 
L 504.979423 113.086657 
L 499.562371 113.624342 
L 494.167166 114.337311 
L 488.797089 115.20913 
L 483.45419 116.224777 
L 478.139564 117.370608 
L 472.853583 118.634271 
L 467.596072 120.00461 
L 462.366453 121.471558 
L 457.163859 123.026021 
L 451.987214 124.659781 
L 446.835298 126.365396 
L 441.7068 128.136113 
L 436.600352 129.965789 
L 431.514556 131.848822 
L 426.448007 133.780089 
" style="fill:none;stroke:#808080;stroke-linecap:square;stroke-width:1.5;"/>
   </g>
   <g id="line2d_16">
    <path clip-path="url(#p086587fa30)" d="M 426.448007 133.780089 
L 426.448007 112.609649 
L 576.056269 112.609649 
L 576.056269 133.780089 
L 426.448007 133.780089 
" style="fill:none;stroke:#d3d3d3;stroke-linecap:square;stroke-width:0.5;"/>
   </g>
   <g id="line2d_17">
    <path clip-path="url(#p086587fa30)" d="M 426.448007 133.780089 
L 421.399307 135.754889 
L 416.367073 137.768898 
L 411.349951 139.818124 
L 406.346615 141.898872 
L 401.355775 144.007711 
L 396.376178 146.141446 
L 391.406609 148.297093 
L 386.445892 150.471854 
L 381.49289 152.663105 
L 376.546508 154.868371 
L 371.605687 157.085316 
L 366.669408 159.311729 
L 361.736689 161.545513 
L 356.806587 163.784673 
L 351.878194 166.027311 
L 346.950639 168.271613 
L 342.023087 170.515848 
L 337.094738 172.758359 
L 332.164826 174.997557 
L 327.23262 177.231921 
L 322.297422 179.459988 
L 317.35857 181.680356 
L 312.415432 183.891679 
L 307.467413 186.092663 
L 302.513948 188.282066 
L 297.554507 190.458697 
L 292.58859 192.621414 
L 287.615733 194.769123 
L 282.635502 196.900777 
" style="fill:none;stroke:#808080;stroke-linecap:square;stroke-width:1.5;"/>
   </g>
   <g id="line2d_18">
    <path clip-path="url(#p086587fa30)" d="M 282.635502 196.900777 
L 282.635502 133.780089 
L 426.448007 133.780089 
L 426.448007 196.900777 
L 282.635502 196.900777 
" style="fill:none;stroke:#d3d3d3;stroke-linecap:square;stroke-width:0.5;"/>
   </g>
   <g id="line2d_19">
    <path clip-path="url(#p086587fa30)" d="M 282.635502 196.900777 
L 277.647496 199.015378 
L 272.651346 201.111973 
L 267.646714 203.189656 
L 262.633296 205.247568 
L 257.610817 207.284896 
L 252.579034 209.300875 
L 247.537735 211.294784 
L 242.486738 213.265952 
L 237.425889 215.21375 
L 232.355068 217.137599 
L 227.274181 219.036966 
L 222.183161 220.911364 
L 217.081973 222.76035 
L 211.970605 224.583529 
L 206.849074 226.38055 
L 201.717423 228.151106 
L 196.575718 229.894934 
L 191.424051 231.611815 
L 186.262536 233.30157 
L 181.091309 234.964063 
L 175.910527 236.599196 
L 170.720369 238.206912 
L 165.521028 239.787189 
L 160.312718 241.340044 
L 155.095665 242.865526 
L 149.870109 244.36372 
L 144.636301 245.834742 
L 139.394502 247.278739 
L 134.144977 248.695888 
" style="fill:none;stroke:#808080;stroke-linecap:square;stroke-width:1.5;"/>
   </g>
   <g id="line2d_20">
    <path clip-path="url(#p086587fa30)" d="M 134.144977 248.695888 
L 134.144977 196.900777 
L 282.635502 196.900777 
L 282.635502 248.695888 
L 134.144977 248.695888 
" style="fill:none;stroke:#d3d3d3;stroke-linecap:square;stroke-width:0.5;"/>
   </g>
   <g id="line2d_21">
    <path clip-path="url(#p086587fa30)" d="M 134.144977 248.695888 
" style="fill:none;stroke:#808080;stroke-linecap:square;stroke-width:1.5;"/>
   </g>
   <g id="line2d_22">
    <path clip-path="url(#p086587fa30)" d="M 134.144977 248.695888 
L 134.144977 248.695888 
L 134.144977 248.695888 
L 134.144977 248.695888 
L 134.144977 248.695888 
" style="fill:none;stroke:#d3d3d3;stroke-linecap:square;stroke-width:0.5;"/>
   </g>
   <g id="line2d_23">
    <path clip-path="url(#p086587fa30)" d="M 134.144977 248.695888 
L 129.068385 250.556669 
L 124.536637 253.450924 
L 120.936281 257.391825 
L 118.522489 262.116559 
L 117.251517 267.251153 
L 116.903796 272.526903 
L 117.254488 277.808105 
L 118.131599 283.036612 
L 119.413235 288.189985 
L 121.013426 293.261309 
L 122.87047 298.250403 
L 124.939059 303.159997 
L 127.185173 307.99399 
L 129.582743 312.756647 
L 132.111435 317.452206 
L 134.75513 322.084704 
L 137.500873 326.657891 
L 140.338119 331.175205 
L 143.258186 335.639768 
L 146.253856 340.054402 
L 149.319071 344.421645 
L 152.448701 348.743772 
L 155.638373 353.022818 
L 158.884327 357.260594 
L 162.183315 361.458713 
L 165.53251 365.618602 
L 168.929441 369.74152 
L 172.371937 373.828572 
L 175.858082 377.880722 
L 179.386179 381.898805 
L 182.954722 385.883536 
L 186.562368 389.83552 
L 190.207921 393.755258 
L 193.890313 397.643156 
L 197.608591 401.499529 
" style="fill:none;stroke:#808080;stroke-linecap:square;stroke-width:1.5;"/>
   </g>
   <g id="line2d_24">
    <path clip-path="url(#p086587fa30)" d="M 116.903796 401.499529 
L 116.903796 248.695888 
L 197.608591 248.695888 
L 197.608591 401.499529 
L 116.903796 401.499529 
" style="fill:none;stroke:#d3d3d3;stroke-linecap:square;stroke-width:0.5;"/>
   </g>
   <g id="line2d_25">
    <path clip-path="url(#p086587fa30)" d="M 197.608591 401.499529 
L 201.361905 405.324607 
L 205.149497 409.118537 
L 208.970699 412.881389 
L 212.824917 416.613158 
L 216.711636 420.313765 
L 220.630409 423.983057 
L 224.580855 427.62081 
L 228.562656 431.226728 
L 232.575557 434.80044 
L 236.619364 438.341503 
L 240.69394 441.849393 
L 244.799208 445.323509 
L 248.935151 448.763163 
L 253.101809 452.167579 
L 257.299284 455.535885 
L 261.527739 458.867106 
L 265.787398 462.160156 
L 270.078553 465.41383 
L 274.40156 468.626789 
L 278.756844 471.797549 
L 283.144904 474.924465 
L 287.566312 478.005712 
L 292.021717 481.03927 
L 296.511852 484.022891 
L 301.037528 486.954079 
L 305.599647 489.830055 
L 310.199195 492.647719 
L 314.837249 495.403607 
L 319.514972 498.093846 
L 324.233613 500.714086 
L 328.994499 503.259442 
L 333.799025 505.724412 
L 338.648632 508.102785 
L 343.544787 510.387542 
L 348.488933 512.570736 
" style="fill:none;stroke:#808080;stroke-linecap:square;stroke-width:1.5;"/>
   </g>
   <g id="line2d_26">
    <path clip-path="url(#p086587fa30)" d="M 197.608591 512.570736 
L 197.608591 401.499529 
L 348.488933 401.499529 
L 348.488933 512.570736 
L 197.608591 512.570736 
" style="fill:none;stroke:#d3d3d3;stroke-linecap:square;stroke-width:0.5;"/>
   </g>
   <g id="line2d_27">
    <path clip-path="url(#p086587fa30)" d="M 348.488933 512.570736 
L 353.482439 514.643358 
L 358.526511 516.595198 
L 363.622082 518.414681 
L 368.769651 520.088716 
L 373.969077 521.602541 
L 379.219298 522.939612 
L 384.517985 524.081544 
L 389.861106 525.008183 
L 395.242419 525.697844 
L 400.652938 526.127823 
L 406.08042 526.27525 
L 411.509017 526.118337 
L 416.919241 525.638008 
L 422.288421 524.819764 
L 427.591758 523.65549 
L 432.803958 522.144812 
L 437.901205 520.295598 
L 442.863085 518.123427 
L 447.674048 515.65009 
L 452.324125 512.901505 
L 456.80886 509.905516 
L 461.12863 506.689979 
L 465.287613 503.281367 
L 469.292686 499.703916 
L 473.152411 495.97925 
L 476.876218 492.126327 
L 480.473793 488.161593 
L 483.954666 484.099232 
L 487.327947 479.951452 
L 490.602184 475.728759 
L 493.785293 471.440208 
L 496.88455 467.093613 
L 499.906614 462.695721 
L 502.857565 458.252359 
" style="fill:none;stroke:#808080;stroke-linecap:square;stroke-width:1.5;"/>
   </g>
   <g id="line2d_28">
    <path clip-path="url(#p086587fa30)" d="M 348.488933 526.27525 
L 348.488933 458.252359 
L 502.857565 458.252359 
L 502.857565 526.27525 
L 348.488933 526.27525 
" style="fill:none;stroke:#d3d3d3;stroke-linecap:square;stroke-width:0.5;"/>
   </g>
   <g id="line2d_29">
    <path clip-path="url(#p086587fa30)" d="M 502.857565 458.252359 
L 505.645764 453.706638 
L 508.173176 449.019934 
L 510.44464 444.211783 
L 512.466043 439.299892 
L 514.243885 434.300163 
L 515.784919 429.226794 
L 517.095881 424.092427 
L 518.18327 418.908309 
L 519.053197 413.684479 
L 519.711262 408.429939 
L 520.162469 403.152829 
L 520.411162 397.860595 
L 520.460965 392.56015 
L 520.314741 387.258029 
L 519.974537 381.960543 
L 519.441529 376.673943 
L 518.715943 371.404591 
L 517.796953 366.159154 
L 516.682538 360.944835 
L 515.369278 355.769672 
L 513.852063 350.642929 
L 512.123687 345.575643 
L 510.174381 340.581405 
L 507.991938 335.67718 
L 505.570395 330.880352 
L 506.032065 328.515952 
L 510.539365 331.518665 
L 515.149573 334.351928 
L 519.855607 337.018858 
L 524.640576 339.538462 
" style="fill:none;stroke:#808080;stroke-linecap:square;stroke-width:1.5;"/>
   </g>
   <g id="line2d_30">
    <path clip-path="url(#p086587fa30)" d="M 502.857565 458.252359 
L 502.857565 328.515952 
L 524.640576 328.515952 
L 524.640576 458.252359 
L 502.857565 458.252359 
" style="fill:none;stroke:#d3d3d3;stroke-linecap:square;stroke-width:0.5;"/>
   </g>
   <g id="line2d_31">
    <path clip-path="url(#p086587fa30)" d="M 568.919813 141.169773 
L 568.919813 141.169773 
L 568.919813 141.169773 
" style="fill:none;stroke:#000000;stroke-linecap:square;stroke-width:3;"/>
   </g>
   <g id="line2d_32">
    <path clip-path="url(#p086587fa30)" d="M 568.919813 141.169773 
L 568.919813 141.169773 
L 568.919813 141.169773 
L 568.919813 141.169773 
L 568.919813 141.169773 
" style="fill:none;stroke:#d3d3d3;stroke-linecap:square;stroke-width:0.5;"/>
   </g>
   <g id="line2d_33">
    <path clip-path="url(#p086587fa30)" d="M 568.919813 141.169773 
L 568.919813 141.169773 
L 568.919813 141.169773 
" style="fill:none;stroke:#000000;stroke-linecap:square;stroke-width:3;"/>
   </g>
   <g id="line2d_34">
    <path clip-path="url(#p086587fa30)" d="M 568.919813 141.169773 
L 568.919813 141.169773 
L 568.919813 141.169773 
L 568.919813 141.169773 
L 568.919813 141.169773 
" style="fill:none;stroke:#d3d3d3;stroke-linecap:square;stroke-width:0.5;"/>
   </g>
   <g id="line2d_35">
    <path clip-path="url(#p086587fa30)" d="M 493.779374 452.622342 
L 493.779374 452.622342 
L 496.257543 448.581834 
L 498.516492 444.392704 
L 500.557553 440.072009 
L 502.383064 435.635873 
L 503.996103 431.099355 
L 505.400248 426.476394 
L 506.599359 421.779822 
L 507.597396 417.02142 
L 508.398262 412.212009 
L 509.005679 407.361563 
L 509.423091 402.479337 
L 509.653576 397.574003 
L 509.699786 392.653801 
L 509.563891 387.72669 
L 509.247526 382.800521 
L 508.751752 377.883223 
L 508.077004 372.983021 
L 507.223049 368.108699 
L 506.188926 363.26994 
L 504.972896 358.477764 
L 503.57238 353.745138 
L 501.983917 349.087778 
L 500.203105 344.524887 
L 498.223784 340.076759 
L 496.019993 335.712393 
L 496.729531 335.019744 
" style="fill:none;stroke:#000000;stroke-linecap:square;stroke-width:3;"/>
   </g>
   <g id="line2d_36">
    <path clip-path="url(#p086587fa30)" d="M 493.779374 452.622342 
L 493.779374 335.019744 
L 509.699786 335.019744 
L 509.699786 452.622342 
L 493.779374 452.622342 
" style="fill:none;stroke:#d3d3d3;stroke-linecap:square;stroke-width:0.5;"/>
   </g>
   <g id="line2d_37">
    <path clip-path="url(#p086587fa30)" d="M 136.991727 258.806318 
L 136.991727 258.806318 
L 133.85658 259.94566 
L 131.529199 261.420059 
L 129.87494 263.229884 
L 128.666677 265.616565 
L 127.904798 268.734937 
L 127.665182 272.459469 
L 127.941779 276.578139 
L 128.67261 280.924769 
L 129.784746 285.392854 
L 131.213097 289.917837 
L 132.904473 294.460929 
L 134.81664 298.998742 
L 136.916268 303.51715 
L 139.17695 308.007676 
L 141.577608 312.465348 
L 144.10126 316.887398 
L 146.734089 321.272449 
L 149.464746 325.620007 
L 152.283827 329.93013 
L 155.183467 334.203215 
L 158.157034 338.439858 
L 161.198896 342.640755 
L 164.304233 346.806649 
L 167.468892 350.938277 
L 170.689273 355.036355 
L 173.962236 359.101552 
L 177.285029 363.13448 
L 180.655227 367.135691 
L 184.070682 371.10567 
L 187.529488 375.044834 
L 191.029941 378.953532 
L 194.570521 382.832045 
L 198.14986 386.680587 
L 201.766731 390.499305 
" style="fill:none;stroke:#000000;stroke-linecap:square;stroke-width:3;"/>
   </g>
   <g id="line2d_38">
    <path clip-path="url(#p086587fa30)" d="M 127.665182 390.499305 
L 127.665182 258.806318 
L 201.766731 258.806318 
L 201.766731 390.499305 
L 127.665182 390.499305 
" style="fill:none;stroke:#d3d3d3;stroke-linecap:square;stroke-width:0.5;"/>
   </g>
   <g id="line2d_39">
    <path clip-path="url(#p086587fa30)" d="M 201.766731 390.499305 
L 205.420028 394.288282 
L 209.108755 398.047537 
L 212.832014 401.777025 
L 216.588996 405.476638 
L 220.378974 409.146206 
L 224.201293 412.785496 
L 228.05537 416.394211 
L 231.940686 419.97199 
L 235.856782 423.518405 
L 239.803256 427.03296 
L 243.77976 430.515088 
L 247.786 433.964147 
L 251.821731 437.379417 
L 255.886755 440.760093 
L 259.980924 444.105282 
L 264.104133 447.413994 
L 268.256323 450.685135 
L 272.437479 453.917499 
L 276.647627 457.109754 
L 280.886835 460.260434 
L 285.155209 463.367925 
L 289.452895 466.430444 
L 293.780072 469.446027 
L 298.136952 472.412507 
L 302.523775 475.327485 
L 306.940804 478.188312 
L 311.388317 480.992047 
L 315.866598 483.735432 
L 320.375924 486.414843 
L 324.916553 489.026248 
L 329.488697 491.565153 
L 334.092501 494.026545 
L 338.728007 496.404819 
L 343.395109 498.693712 
L 348.093499 500.886212 
" style="fill:none;stroke:#000000;stroke-linecap:square;stroke-width:3;"/>
   </g>
   <g id="line2d_40">
    <path clip-path="url(#p086587fa30)" d="M 201.766731 500.886212 
L 201.766731 390.499305 
L 348.093499 390.499305 
L 348.093499 500.886212 
L 201.766731 500.886212 
" style="fill:none;stroke:#d3d3d3;stroke-linecap:square;stroke-width:0.5;"/>
   </g>
   <g id="line2d_41">
    <path clip-path="url(#p086587fa30)" d="M 348.093499 500.886212 
L 352.822596 502.974481 
L 357.581459 504.949754 
L 362.368681 506.802254 
L 367.182258 508.521107 
L 372.019439 510.094274 
L 376.876556 511.508525 
L 381.748846 512.749455 
L 386.630277 513.80159 
L 391.513421 514.648604 
L 396.389401 515.273671 
L 401.24798 515.659973 
L 406.077821 515.791362 
L 410.866953 515.653125 
L 415.603379 515.232787 
L 420.275711 514.520866 
L 424.873681 513.511508 
L 429.388377 512.202977 
L 433.812232 510.597967 
L 438.138904 508.70371 
L 442.363206 506.531765 
L 446.481194 504.097449 
L 450.490344 501.418923 
L 454.389703 498.516091 
L 458.179906 495.409503 
L 461.863048 492.119415 
L 465.442427 488.665117 
L 468.922246 485.064497 
L 472.307303 481.333849 
L 475.602729 477.487812 
L 478.813774 473.539434 
L 481.945648 469.500272 
L 485.003417 465.380532 
L 487.991934 461.189199 
L 490.915804 456.934164 
L 493.779374 452.622342 
" style="fill:none;stroke:#000000;stroke-linecap:square;stroke-width:3;"/>
   </g>
   <g id="line2d_42">
    <path clip-path="url(#p086587fa30)" d="M 348.093499 515.791362 
L 348.093499 452.622342 
L 493.779374 452.622342 
L 493.779374 515.791362 
L 348.093499 515.791362 
" style="fill:none;stroke:#d3d3d3;stroke-linecap:square;stroke-width:0.5;"/>
   </g>
   <g id="line2d_43">
    <path clip-path="url(#p086587fa30)" d="M 493.779374 452.622342 
L 493.779374 452.622342 
" style="fill:none;stroke:#000000;stroke-linecap:square;stroke-width:3;"/>
   </g>
   <g id="line2d_44">
    <path clip-path="url(#p086587fa30)" d="M 493.779374 452.622342 
L 493.779374 452.622342 
L 493.779374 452.622342 
L 493.779374 452.622342 
L 493.779374 452.622342 
" style="fill:none;stroke:#d3d3d3;stroke-linecap:square;stroke-width:0.5;"/>
   </g>
   <g id="line2d_45">
    <path clip-path="url(#p086587fa30)" d="M 518.186496 323.824902 
L 499.86856 337.110051 
L 496.729531 335.019744 
" style="fill:none;stroke:#000000;stroke-linecap:square;stroke-width:3;"/>
   </g>
   <g id="line2d_46">
    <path clip-path="url(#p086587fa30)" d="M 496.729531 337.110051 
L 496.729531 323.824902 
L 518.186496 323.824902 
L 518.186496 337.110051 
L 496.729531 337.110051 
" style="fill:none;stroke:#d3d3d3;stroke-linecap:square;stroke-width:0.5;"/>
   </g>
   <g id="line2d_47">
    <path clip-path="url(#p086587fa30)" d="M 518.186496 323.824902 
L 520.719712 325.381633 
L 525.113662 327.871546 
L 529.621829 330.245283 
L 529.621829 330.245283 
" style="fill:none;stroke:#000000;stroke-linecap:square;stroke-width:3;"/>
   </g>
   <g id="line2d_48">
    <path clip-path="url(#p086587fa30)" d="M 518.186496 330.245283 
L 518.186496 323.824902 
L 529.621829 323.824902 
L 529.621829 330.245283 
L 518.186496 330.245283 
" style="fill:none;stroke:#d3d3d3;stroke-linecap:square;stroke-width:0.5;"/>
   </g>
   <g id="line2d_49">
    <path clip-path="url(#p086587fa30)" d="M 568.919813 141.169773 
L 565.252497 138.197838 
L 561.419414 135.477076 
L 557.425518 133.019748 
L 553.277593 130.83482 
L 548.984246 128.927689 
L 544.555898 127.300117 
L 540.004669 125.950318 
L 535.344088 124.873166 
L 530.5886 124.060528 
L 525.752943 123.50172 
L 520.851502 123.184058 
L 515.897753 123.093466 
L 510.903876 123.21507 
L 505.88053 123.533728 
L 500.836789 124.034458 
L 495.780197 124.702764 
L 490.716883 125.52485 
L 485.651729 126.487758 
L 480.588534 127.579428 
L 475.530189 128.788713 
L 470.478824 130.105355 
L 465.435946 131.519948 
L 460.402556 133.023879 
L 455.379246 134.609265 
L 450.36628 136.268895 
L 445.363658 137.996163 
L 440.371178 139.785015 
L 435.388473 141.629889 
L 430.415051 143.525666 
" style="fill:none;stroke:#000000;stroke-linecap:square;stroke-width:3;"/>
   </g>
   <g id="line2d_50">
    <path clip-path="url(#p086587fa30)" d="M 430.415051 143.525666 
L 430.415051 123.093466 
L 568.919813 123.093466 
L 568.919813 143.525666 
L 430.415051 143.525666 
" style="fill:none;stroke:#d3d3d3;stroke-linecap:square;stroke-width:0.5;"/>
   </g>
   <g id="line2d_51">
    <path clip-path="url(#p086587fa30)" d="M 430.415051 143.525666 
L 425.450322 145.467627 
L 420.493624 147.45141 
L 415.54424 149.472974 
L 410.601412 151.528562 
L 405.664357 153.614678 
L 400.732273 155.728057 
L 395.804353 157.86564 
L 390.879781 160.024557 
L 385.95775 162.202108 
L 381.037457 164.395743 
L 376.118111 166.603054 
L 371.198932 168.821755 
L 366.279161 171.049676 
L 361.358053 173.284752 
L 356.434884 175.525012 
L 351.508954 177.768574 
L 346.579583 180.013638 
L 341.646117 182.258477 
L 336.707926 184.501435 
L 331.764406 186.740924 
L 326.814982 188.975413 
L 321.859104 191.203435 
L 316.896252 193.423577 
L 311.925937 195.634478 
L 306.947695 197.834831 
L 301.961097 200.02338 
L 296.965743 202.198917 
L 291.961262 204.360283 
L 286.947317 206.506367 
" style="fill:none;stroke:#000000;stroke-linecap:square;stroke-width:3;"/>
   </g>
   <g id="line2d_52">
    <path clip-path="url(#p086587fa30)" d="M 286.947317 206.506367 
L 286.947317 143.525666 
L 430.415051 143.525666 
L 430.415051 206.506367 
L 286.947317 206.506367 
" style="fill:none;stroke:#d3d3d3;stroke-linecap:square;stroke-width:0.5;"/>
   </g>
   <g id="line2d_53">
    <path clip-path="url(#p086587fa30)" d="M 286.947317 206.506367 
L 281.923602 208.636106 
L 276.889843 210.748482 
L 271.845796 212.842528 
L 266.791251 214.917321 
L 261.726028 216.971988 
L 256.649979 219.005702 
L 251.562986 221.017683 
L 246.464963 223.007201 
L 241.355854 224.973573 
L 236.235633 226.916165 
L 231.1043 228.834389 
L 225.961887 230.727708 
L 220.808452 232.595631 
L 215.644079 234.437716 
L 210.468877 236.253569 
L 205.282982 238.04284 
L 200.086553 239.805228 
L 194.879768 241.540478 
L 189.662831 243.248377 
L 184.435964 244.928757 
L 179.199406 246.581495 
L 173.953415 248.206505 
L 168.698263 249.803746 
L 163.434238 251.373212 
L 158.161636 252.914937 
L 152.880767 254.428989 
L 147.591945 255.915474 
L 142.295491 257.374527 
L 136.991727 258.806318 
" style="fill:none;stroke:#000000;stroke-linecap:square;stroke-width:3;"/>
   </g>
   <g id="line2d_54">
    <path clip-path="url(#p086587fa30)" d="M 136.991727 258.806318 
L 136.991727 206.506367 
L 286.947317 206.506367 
L 286.947317 258.806318 
L 136.991727 258.806318 
" style="fill:none;stroke:#d3d3d3;stroke-linecap:square;stroke-width:0.5;"/>
   </g>
   <g id="line2d_55">
    <path clip-path="url(#p086587fa30)" d="M 136.991727 258.806318 
L 136.991727 258.806318 
" style="fill:none;stroke:#000000;stroke-linecap:square;stroke-width:3;"/>
   </g>
   <g id="line2d_56">
    <path clip-path="url(#p086587fa30)" d="M 136.991727 258.806318 
L 136.991727 258.806318 
L 136.991727 258.806318 
L 136.991727 258.806318 
L 136.991727 258.806318 
" style="fill:none;stroke:#d3d3d3;stroke-linecap:square;stroke-width:0.5;"/>
   </g>
   <g id="line2d_57">
    <path clip-path="url(#p086587fa30)" d="M 529.621829 330.245283 
L 529.621829 330.245283 
L 533.494155 331.948421 
L 537.376329 333.106128 
L 541.239413 333.689617 
L 545.079056 333.68927 
L 548.906527 333.104006 
L 552.72215 331.939713 
L 556.500979 330.219469 
L 560.202317 327.988804 
L 563.786373 325.308796 
L 567.223689 322.244735 
L 570.496505 318.857777 
L 573.596346 315.201096 
L 576.52094 311.31913 
L 579.271698 307.248316 
L 581.851966 303.018344 
L 584.265909 298.653428 
L 586.51783 294.173428 
L 588.61178 289.594774 
L 590.551337 284.931207 
L 592.339494 280.194359 
L 593.978605 275.394217 
L 595.470373 270.53949 
L 596.815851 265.637896 
L 598.015456 260.696408 
L 599.068986 255.721445 
L 599.975641 250.719039 
L 600.734042 245.69498 
L 601.342249 240.65494 
L 601.797786 235.604586 
L 602.097662 230.54969 
L 602.238397 225.496224 
L 602.216054 220.450455 
L 602.02628 215.419034 
L 601.664358 210.409082 
L 601.125269 205.428266 
L 600.403778 200.484865 
L 599.49453 195.587825 
L 598.392182 190.746789 
L 597.091542 185.972101 
L 595.587744 181.274772 
L 593.876437 176.666411 
L 591.953981 172.159096 
L 589.817662 167.765201 
L 587.465885 163.497175 
L 584.898354 159.367277 
L 582.11622 155.38729 
L 579.12219 151.56823 
L 575.920574 147.920075 
L 572.517291 144.451516 
L 568.919813 141.169773 
" style="fill:none;stroke:#000000;stroke-linecap:square;stroke-width:3;"/>
   </g>
   <g id="line2d_58">
    <path clip-path="url(#p086587fa30)" d="M 529.621829 333.689617 
L 529.621829 141.169773 
L 602.238397 141.169773 
L 602.238397 333.689617 
L 529.621829 333.689617 
" style="fill:none;stroke:#d3d3d3;stroke-linecap:square;stroke-width:0.5;"/>
   </g>
   <g id="line2d_59">
    <path clip-path="url(#p086587fa30)" d="M 583.192724 125.475493 
L 583.192724 125.475493 
L 583.192724 125.475493 
" style="fill:none;stroke:#000000;stroke-linecap:square;stroke-width:3;"/>
   </g>
   <g id="line2d_60">
    <path clip-path="url(#p086587fa30)" d="M 583.192724 125.475493 
L 583.192724 125.475493 
L 583.192724 125.475493 
L 583.192724 125.475493 
L 583.192724 125.475493 
" style="fill:none;stroke:#d3d3d3;stroke-linecap:square;stroke-width:0.5;"/>
   </g>
   <g id="line2d_61">
    <path clip-path="url(#p086587fa30)" d="M 583.192724 125.475493 
L 583.192724 125.475493 
L 583.192724 125.475493 
" style="fill:none;stroke:#000000;stroke-linecap:square;stroke-width:3;"/>
   </g>
   <g id="line2d_62">
    <path clip-path="url(#p086587fa30)" d="M 583.192724 125.475493 
L 583.192724 125.475493 
L 583.192724 125.475493 
L 583.192724 125.475493 
L 583.192724 125.475493 
" style="fill:none;stroke:#d3d3d3;stroke-linecap:square;stroke-width:0.5;"/>
   </g>
   <g id="line2d_63">
    <path clip-path="url(#p086587fa30)" d="M 496.729531 335.019744 
L 512.195569 319.921852 
L 516.456572 322.761816 
L 518.186496 323.824902 
" style="fill:none;stroke:#000000;stroke-linecap:square;stroke-width:3;"/>
   </g>
   <g id="line2d_64">
    <path clip-path="url(#p086587fa30)" d="M 496.729531 335.019744 
L 496.729531 319.921852 
L 518.186496 319.921852 
L 518.186496 335.019744 
L 496.729531 335.019744 
" style="fill:none;stroke:#d3d3d3;stroke-linecap:square;stroke-width:0.5;"/>
   </g>
   <g id="line2d_65">
    <path clip-path="url(#p086587fa30)" d="M 583.192724 125.475493 
L 578.485531 121.661334 
L 573.51473 118.133362 
L 568.299026 114.924496 
L 562.865549 112.062439 
L 557.248262 109.567082 
L 551.485342 107.448749 
L 545.616062 105.707685 
L 539.677829 104.33483 
L 533.703924 103.313555 
L 527.722189 102.621889 
L 521.754634 102.234747 
L 515.817724 102.125833 
L 509.923075 102.269075 
L 504.078316 102.639586 
L 498.287953 103.214225 
L 492.554135 103.971858 
L 486.877295 104.893409 
L 481.256651 105.961796 
L 475.690595 107.161787 
L 470.176977 108.479828 
L 464.713319 109.903866 
L 459.296961 111.423168 
L 453.925162 113.028164 
L 448.595181 114.710297 
L 443.304316 116.461897 
L 438.049941 118.276062 
L 432.829525 120.146562 
L 427.640639 122.067756 
L 422.480964 124.034513 
" style="fill:none;stroke:#000000;stroke-linecap:square;stroke-width:3;"/>
   </g>
   <g id="line2d_66">
    <path clip-path="url(#p086587fa30)" d="M 422.480964 125.475493 
L 422.480964 102.125833 
L 583.192724 102.125833 
L 583.192724 125.475493 
L 422.480964 125.475493 
" style="fill:none;stroke:#d3d3d3;stroke-linecap:square;stroke-width:0.5;"/>
   </g>
   <g id="line2d_67">
    <path clip-path="url(#p086587fa30)" d="M 422.480964 124.034513 
L 417.348292 126.042152 
L 412.240523 128.086386 
L 407.155663 130.163274 
L 402.091819 132.269181 
L 397.047194 134.400743 
L 392.020083 136.554836 
L 387.008865 138.728545 
L 382.012002 140.919152 
L 377.02803 143.124102 
L 372.055559 145.340998 
L 367.093263 147.567578 
L 362.139883 149.801703 
L 357.194217 152.04135 
L 352.255121 154.284595 
L 347.321503 156.52961 
L 342.392324 158.774652 
L 337.466591 161.018059 
L 332.543359 163.258241 
L 327.621726 165.493679 
L 322.700833 167.722918 
L 317.779862 169.944563 
L 312.858035 172.157277 
L 307.934612 174.359782 
L 303.008889 176.550848 
L 298.080201 178.7293 
L 293.147916 180.894013 
L 288.211438 183.04391 
L 283.270204 185.177962 
L 278.323687 187.295187 
" style="fill:none;stroke:#000000;stroke-linecap:square;stroke-width:3;"/>
   </g>
   <g id="line2d_68">
    <path clip-path="url(#p086587fa30)" d="M 278.323687 187.295187 
L 278.323687 124.034513 
L 422.480964 124.034513 
L 422.480964 187.295187 
L 278.323687 187.295187 
" style="fill:none;stroke:#d3d3d3;stroke-linecap:square;stroke-width:0.5;"/>
   </g>
   <g id="line2d_69">
    <path clip-path="url(#p086587fa30)" d="M 278.323687 187.295187 
L 273.371389 189.39465 
L 268.412848 191.475463 
L 263.447632 193.536783 
L 258.475341 195.577814 
L 253.495607 197.597804 
L 248.50809 199.596048 
L 243.512485 201.571886 
L 238.508512 203.524702 
L 233.495925 205.453926 
L 228.474504 207.359034 
L 223.444061 209.239544 
L 218.404435 211.09502 
L 213.355494 212.925069 
L 208.297131 214.729341 
L 203.229271 216.507531 
L 198.151864 218.259371 
L 193.064884 219.98464 
L 187.968333 221.683152 
L 182.86224 223.354764 
L 177.746653 224.999369 
L 172.621649 226.616898 
L 167.487323 228.207319 
L 162.343794 229.770633 
L 157.191198 231.306876 
L 152.029693 232.816115 
L 146.859451 234.298451 
L 141.680657 235.75401 
L 136.493513 237.182951 
L 131.298227 238.585457 
" style="fill:none;stroke:#000000;stroke-linecap:square;stroke-width:3;"/>
   </g>
   <g id="line2d_70">
    <path clip-path="url(#p086587fa30)" d="M 131.298227 238.585457 
L 131.298227 187.295187 
L 278.323687 187.295187 
L 278.323687 238.585457 
L 131.298227 238.585457 
" style="fill:none;stroke:#d3d3d3;stroke-linecap:square;stroke-width:0.5;"/>
   </g>
   <g id="line2d_71">
    <path clip-path="url(#p086587fa30)" d="M 131.298227 238.585457 
L 131.298227 238.585457 
" style="fill:none;stroke:#000000;stroke-linecap:square;stroke-width:3;"/>
   </g>
   <g id="line2d_72">
    <path clip-path="url(#p086587fa30)" d="M 131.298227 238.585457 
L 131.298227 238.585457 
L 131.298227 238.585457 
L 131.298227 238.585457 
L 131.298227 238.585457 
" style="fill:none;stroke:#d3d3d3;stroke-linecap:square;stroke-width:0.5;"/>
   </g>
   <g id="line2d_73">
    <path clip-path="url(#p086587fa30)" d="M 511.935756 463.882376 
L 511.935756 463.882376 
L 515.033986 458.831442 
L 517.82986 453.647164 
L 520.331726 448.351557 
L 522.549023 442.963911 
L 524.491668 437.500971 
L 526.169591 431.977195 
L 527.592402 426.405031 
L 528.769144 420.795199 
L 529.708132 415.15695 
L 530.416844 409.498315 
L 530.901848 403.826321 
L 531.168747 398.147188 
L 531.222143 392.4665 
L 531.06559 386.789367 
L 530.701548 381.120564 
L 530.131307 375.464662 
L 529.354881 369.826161 
L 528.370856 364.209608 
L 527.176149 358.61973 
L 525.765659 353.061581 
L 524.131746 347.540719 
L 525.437222 351.367949 
" style="fill:none;stroke:#000000;stroke-linecap:square;stroke-width:3;"/>
   </g>
   <g id="line2d_74">
    <path clip-path="url(#p086587fa30)" d="M 511.935756 463.882376 
L 511.935756 347.540719 
L 531.222143 347.540719 
L 531.222143 463.882376 
L 511.935756 463.882376 
" style="fill:none;stroke:#d3d3d3;stroke-linecap:square;stroke-width:0.5;"/>
   </g>
   <g id="line2d_75">
    <path clip-path="url(#p086587fa30)" d="M 131.298227 238.585457 
L 131.298227 238.585457 
L 124.28019 241.167677 
L 117.544075 245.48179 
L 111.997621 251.553767 
L 108.378301 258.616553 
L 106.598236 265.767369 
L 106.142411 272.594338 
L 106.567198 279.038071 
L 107.590589 285.148454 
L 109.041723 290.987117 
L 110.813755 296.60478 
L 112.836468 302.039878 
L 115.061479 307.321252 
L 117.454078 312.47083 
L 119.988537 317.505618 
L 122.645262 322.439065 
L 125.409 327.282011 
L 128.267658 332.043334 
L 131.211491 336.730403 
L 134.232544 341.349406 
L 137.324246 345.905588 
L 140.481108 350.403432 
L 143.698506 354.846789 
L 146.972512 359.238987 
L 150.299762 363.582911 
L 153.677357 367.881072 
L 157.102785 372.135653 
L 160.573854 376.348561 
L 164.088648 380.521453 
L 167.645482 384.655774 
L 171.242871 388.752776 
L 174.879502 392.81354 
L 178.554215 396.838995 
L 182.265982 400.82993 
L 186.013896 404.787008 
" style="fill:none;stroke:#000000;stroke-linecap:square;stroke-width:3;"/>
   </g>
   <g id="line2d_76">
    <path clip-path="url(#p086587fa30)" d="M 106.142411 404.787008 
L 106.142411 238.585457 
L 186.013896 238.585457 
L 186.013896 404.787008 
L 106.142411 404.787008 
" style="fill:none;stroke:#d3d3d3;stroke-linecap:square;stroke-width:0.5;"/>
   </g>
   <g id="line2d_77">
    <path clip-path="url(#p086587fa30)" d="M 186.013896 404.787008 
L 189.797155 408.710777 
L 193.615054 412.601677 
L 197.46698 416.460049 
L 201.352401 420.28614 
L 205.270861 424.080111 
L 209.22198 427.842034 
L 213.205448 431.571903 
L 217.221023 435.26963 
L 221.268529 438.935051 
L 225.347859 442.56792 
L 229.458968 446.167917 
L 233.60188 449.734639 
L 237.776686 453.267601 
L 241.983547 456.766233 
L 246.222695 460.229876 
L 250.494436 463.657775 
L 254.799154 467.049076 
L 259.137318 470.402814 
L 263.509479 473.717907 
L 267.916284 476.993144 
L 272.358479 480.227173 
L 276.836913 483.418485 
L 281.352551 486.565398 
L 285.906483 489.666033 
L 290.499928 492.718297 
L 295.134252 495.719847 
L 299.810977 498.668063 
L 304.531793 501.560006 
L 309.298574 504.392372 
L 314.113391 507.161443 
L 318.97853 509.863018 
L 323.896498 512.49234 
L 328.870042 515.044004 
L 333.902156 517.511859 
L 338.996075 519.888872 
" style="fill:none;stroke:#000000;stroke-linecap:square;stroke-width:3;"/>
   </g>
   <g id="line2d_78">
    <path clip-path="url(#p086587fa30)" d="M 186.013896 519.888872 
L 186.013896 404.787008 
L 338.996075 404.787008 
L 338.996075 519.888872 
L 186.013896 519.888872 
" style="fill:none;stroke:#d3d3d3;stroke-linecap:square;stroke-width:0.5;"/>
   </g>
   <g id="line2d_79">
    <path clip-path="url(#p086587fa30)" d="M 338.996075 519.888872 
L 344.155271 522.166991 
L 349.383419 524.336963 
L 354.684342 526.388142 
L 360.061907 528.308256 
L 365.519864 530.083157 
L 371.061597 531.696558 
L 376.68975 533.129769 
L 382.405694 534.361498 
L 388.208791 535.367761 
L 394.095438 536.122017 
L 400.057897 536.595673 
L 406.083019 536.759139 
L 412.151081 536.58355 
L 418.235104 536.04323 
L 424.301131 535.118662 
L 430.309835 533.799473 
L 436.21954 532.086647 
L 441.990178 529.993229 
L 447.587266 527.543144 
L 452.98489 524.768414 
L 458.167056 521.70556 
L 463.127377 518.392108 
L 467.867557 514.863867 
L 472.395319 511.153231 
L 476.722324 507.288416 
L 480.862396 503.293383 
L 484.830191 499.188156 
L 488.640283 494.989337 
L 492.306602 490.710652 
L 495.842121 486.363471 
L 499.25872 481.957247 
L 502.567169 477.499884 
L 505.777167 472.998026 
L 508.897424 468.457277 
L 511.935756 463.882376 
" style="fill:none;stroke:#000000;stroke-linecap:square;stroke-width:3;"/>
   </g>
   <g id="line2d_80">
    <path clip-path="url(#p086587fa30)" d="M 338.996075 536.759139 
L 338.996075 463.882376 
L 511.935756 463.882376 
L 511.935756 536.759139 
L 338.996075 536.759139 
" style="fill:none;stroke:#d3d3d3;stroke-linecap:square;stroke-width:0.5;"/>
   </g>
   <g id="line2d_81">
    <path clip-path="url(#p086587fa30)" d="M 511.935756 463.882376 
L 511.935756 463.882376 
" style="fill:none;stroke:#000000;stroke-linecap:square;stroke-width:3;"/>
   </g>
   <g id="line2d_82">
    <path clip-path="url(#p086587fa30)" d="M 511.935756 463.882376 
L 511.935756 463.882376 
L 511.935756 463.882376 
L 511.935756 463.882376 
L 511.935756 463.882376 
" style="fill:none;stroke:#d3d3d3;stroke-linecap:square;stroke-width:0.5;"/>
   </g>
   <g id="line2d_83">
    <path clip-path="url(#p086587fa30)" d="M 525.437222 351.367949 
L 525.851173 351.54966 
L 532.525056 353.53434 
L 539.568062 354.594081 
L 546.763145 354.592763 
L 553.838089 353.513965 
L 560.556755 351.46902 
L 566.781455 348.640761 
L 572.471846 345.215991 
L 577.648857 341.348423 
L 582.35984 337.151671 
L 586.657616 332.705975 
L 590.591031 328.067442 
L 594.201884 323.275665 
L 597.52471 318.359093 
L 600.587574 313.338627 
L 603.413115 308.229968 
L 606.019517 303.04517 
L 608.421325 297.793683 
L 610.630101 292.483064 
L 612.654936 287.119472 
L 614.502849 281.708029 
L 616.179097 276.253079 
L 617.687405 270.758395 
L 619.030153 265.22733 
L 620.208507 259.662951 
L 621.222527 254.068145 
L 622.07124 248.445722 
L 622.752696 242.798503 
L 623.264013 237.129414 
L 623.601398 231.441579 
L 623.760177 225.738416 
L 623.734812 220.023747 
L 623.518927 214.30192 
L 623.10534 208.577933 
L 622.486114 202.857593 
L 621.652638 197.147667 
L 620.595736 191.456063 
L 619.30584 185.792013 
L 617.773209 180.166247 
L 615.988237 174.591159 
L 613.941841 169.08093 
L 611.62593 163.651578 
L 609.033959 158.320912 
L 606.161531 153.108342 
L 603.006998 148.034522 
L 599.572016 143.120804 
L 595.861948 138.388529 
L 591.886064 133.858175 
L 587.657467 129.54846 
L 583.192724 125.475493 
" style="fill:none;stroke:#000000;stroke-linecap:square;stroke-width:3;"/>
   </g>
   <g id="line2d_84">
    <path clip-path="url(#p086587fa30)" d="M 525.437222 354.594081 
L 525.437222 125.475493 
L 623.760177 125.475493 
L 623.760177 354.594081 
L 525.437222 354.594081 
" style="fill:none;stroke:#d3d3d3;stroke-linecap:square;stroke-width:0.5;"/>
   </g>
   <g id="line2d_85">
    <path clip-path="url(#p086587fa30)" d="M 576.056269 117.5968 
L 578.120514 117.725909 
L 580.150865 118.111115 
L 582.113983 118.746095 
L 583.977633 119.62042 
L 585.711215 120.719736 
L 587.286263 122.025991 
L 588.676914 123.517736 
L 589.860335 125.170478 
L 590.817093 126.957078 
L 591.53148 128.848199 
L 591.991763 130.812792 
L 592.190386 132.818595 
L 592.124088 134.832675 
L 591.793956 136.82196 
L 591.205412 138.753786 
L 590.368119 140.596433 
L 589.295827 142.319644 
L 588.006141 143.895124 
L 586.520238 145.297005 
L 584.862517 146.502266 
L 583.060198 147.491119 
L 581.142875 148.247325 
L 579.14203 148.758468 
L 577.090516 149.016156 
L 575.022021 149.016156 
L 572.970507 148.758468 
L 570.969662 148.247325 
L 569.052339 147.491119 
L 567.25002 146.502266 
L 565.592299 145.297005 
L 564.106397 143.895124 
L 562.816711 142.319644 
L 561.744418 140.596433 
L 560.907125 138.753786 
L 560.318581 136.82196 
L 559.988449 134.832675 
L 559.922151 132.818595 
L 560.120774 130.812792 
L 560.581058 128.848199 
L 561.295444 126.957078 
L 562.252202 125.170478 
L 563.435623 123.517736 
L 564.826275 122.025991 
L 566.401322 120.719736 
L 568.134904 119.62042 
L 569.998554 118.746095 
L 571.961672 118.111115 
L 573.992023 117.725909 
L 576.056269 117.5968 
" style="fill:none;stroke:#808080;stroke-linecap:square;stroke-width:1.5;"/>
   </g>
   <g id="line2d_86">
    <path clip-path="url(#p086587fa30)" d="M 426.448007 118.054256 
L 428.512253 118.183365 
L 430.542604 118.568572 
L 432.505722 119.203551 
L 434.369372 120.077877 
L 436.102954 121.177192 
L 437.678001 122.483447 
L 439.068653 123.975193 
L 440.252074 125.627934 
L 441.208832 127.414534 
L 441.923218 129.305656 
L 442.383502 131.270248 
L 442.582125 133.276051 
L 442.515827 135.290131 
L 442.185695 137.279416 
L 441.597151 139.211242 
L 440.759858 141.053889 
L 439.687565 142.7771 
L 438.397879 144.352581 
L 436.911977 145.754461 
L 435.254256 146.959723 
L 433.451937 147.948575 
L 431.534614 148.704782 
L 429.533769 149.215925 
L 427.482255 149.473612 
L 425.413759 149.473612 
L 423.362246 149.215925 
L 421.361401 148.704782 
L 419.444078 147.948575 
L 417.641759 146.959723 
L 415.984038 145.754461 
L 414.498135 144.352581 
L 413.208449 142.7771 
L 412.136157 141.053889 
L 411.298864 139.211242 
L 410.71032 137.279416 
L 410.380188 135.290131 
L 410.31389 133.276051 
L 410.512513 131.270248 
L 410.972796 129.305656 
L 411.687183 127.414534 
L 412.643941 125.627934 
L 413.827362 123.975193 
L 415.218013 122.483447 
L 416.793061 121.177192 
L 418.526643 120.077877 
L 420.390293 119.203551 
L 422.353411 118.568572 
L 424.383762 118.183365 
L 426.448007 118.054256 
" style="fill:none;stroke:#808080;stroke-linecap:square;stroke-width:1.5;"/>
   </g>
   <g id="line2d_87">
    <path clip-path="url(#p086587fa30)" d="M 282.635502 181.174944 
L 284.699748 181.304053 
L 286.730099 181.689259 
L 288.693216 182.324239 
L 290.556867 183.198564 
L 292.290448 184.29788 
L 293.865496 185.604135 
L 295.256147 187.09588 
L 296.439568 188.748622 
L 297.396327 190.535222 
L 298.110713 192.426344 
L 298.570996 194.390936 
L 298.76962 196.396739 
L 298.703321 198.410819 
L 298.373189 200.400104 
L 297.784645 202.33193 
L 296.947353 204.174577 
L 295.87506 205.897788 
L 294.585374 207.473269 
L 293.099471 208.875149 
L 291.441751 210.080411 
L 289.639432 211.069263 
L 287.722108 211.825469 
L 285.721263 212.336612 
L 283.66975 212.5943 
L 281.601254 212.5943 
L 279.549741 212.336612 
L 277.548895 211.825469 
L 275.631572 211.069263 
L 273.829253 210.080411 
L 272.171532 208.875149 
L 270.68563 207.473269 
L 269.395944 205.897788 
L 268.323651 204.174577 
L 267.486359 202.33193 
L 266.897814 200.400104 
L 266.567683 198.410819 
L 266.501384 196.396739 
L 266.700007 194.390936 
L 267.160291 192.426344 
L 267.874677 190.535222 
L 268.831436 188.748622 
L 270.014856 187.09588 
L 271.405508 185.604135 
L 272.980556 184.29788 
L 274.714137 183.198564 
L 276.577788 182.324239 
L 278.540905 181.689259 
L 280.571256 181.304053 
L 282.635502 181.174944 
" style="fill:none;stroke:#808080;stroke-linecap:square;stroke-width:1.5;"/>
   </g>
   <g id="line2d_88">
    <path clip-path="url(#p086587fa30)" d="M 134.144977 232.970054 
L 136.209223 233.099163 
L 138.239574 233.48437 
L 140.202691 234.119349 
L 142.066341 234.993675 
L 143.799923 236.092991 
L 145.374971 237.399246 
L 146.765622 238.890991 
L 147.949043 240.543733 
L 148.905802 242.330332 
L 149.620188 244.221454 
L 150.080471 246.186046 
L 150.279095 248.19185 
L 150.212796 250.20593 
L 149.882664 252.195215 
L 149.29412 254.127041 
L 148.456828 255.969688 
L 147.384535 257.692899 
L 146.094849 259.268379 
L 144.608946 260.67026 
L 142.951226 261.875521 
L 141.148907 262.864374 
L 139.231583 263.62058 
L 137.230738 264.131723 
L 135.179225 264.38941 
L 133.110729 264.38941 
L 131.059216 264.131723 
L 129.05837 263.62058 
L 127.141047 262.864374 
L 125.338728 261.875521 
L 123.681007 260.67026 
L 122.195105 259.268379 
L 120.905419 257.692899 
L 119.833126 255.969688 
L 118.995833 254.127041 
L 118.407289 252.195215 
L 118.077158 250.20593 
L 118.010859 248.19185 
L 118.209482 246.186046 
L 118.669766 244.221454 
L 119.384152 242.330332 
L 120.34091 240.543733 
L 121.524331 238.890991 
L 122.914983 237.399246 
L 124.490031 236.092991 
L 126.223612 234.993675 
L 128.087262 234.119349 
L 130.05038 233.48437 
L 132.080731 233.099163 
L 134.144977 232.970054 
" style="fill:none;stroke:#808080;stroke-linecap:square;stroke-width:1.5;"/>
   </g>
   <g id="line2d_89">
    <path clip-path="url(#p086587fa30)" d="M 134.144977 232.970054 
L 136.209223 233.099163 
L 138.239574 233.48437 
L 140.202691 234.119349 
L 142.066341 234.993675 
L 143.799923 236.092991 
L 145.374971 237.399246 
L 146.765622 238.890991 
L 147.949043 240.543733 
L 148.905802 242.330332 
L 149.620188 244.221454 
L 150.080471 246.186046 
L 150.279095 248.19185 
L 150.212796 250.20593 
L 149.882664 252.195215 
L 149.29412 254.127041 
L 148.456828 255.969688 
L 147.384535 257.692899 
L 146.094849 259.268379 
L 144.608946 260.67026 
L 142.951226 261.875521 
L 141.148907 262.864374 
L 139.231583 263.62058 
L 137.230738 264.131723 
L 135.179225 264.38941 
L 133.110729 264.38941 
L 131.059216 264.131723 
L 129.05837 263.62058 
L 127.141047 262.864374 
L 125.338728 261.875521 
L 123.681007 260.67026 
L 122.195105 259.268379 
L 120.905419 257.692899 
L 119.833126 255.969688 
L 118.995833 254.127041 
L 118.407289 252.195215 
L 118.077158 250.20593 
L 118.010859 248.19185 
L 118.209482 246.186046 
L 118.669766 244.221454 
L 119.384152 242.330332 
L 120.34091 240.543733 
L 121.524331 238.890991 
L 122.914983 237.399246 
L 124.490031 236.092991 
L 126.223612 234.993675 
L 128.087262 234.119349 
L 130.05038 233.48437 
L 132.080731 233.099163 
L 134.144977 232.970054 
" style="fill:none;stroke:#808080;stroke-linecap:square;stroke-width:1.5;"/>
   </g>
   <g id="line2d_90">
    <path clip-path="url(#p086587fa30)" d="M 197.608591 385.773696 
L 199.672837 385.902805 
L 201.703188 386.288012 
L 203.666306 386.922991 
L 205.529956 387.797317 
L 207.263538 388.896633 
L 208.838585 390.202887 
L 210.229237 391.694633 
L 211.412658 393.347374 
L 212.369416 395.133974 
L 213.083802 397.025096 
L 213.544086 398.989688 
L 213.742709 400.995492 
L 213.676411 403.009571 
L 213.346279 404.998856 
L 212.757735 406.930683 
L 211.920442 408.773329 
L 210.848149 410.496541 
L 209.558463 412.072021 
L 208.072561 413.473901 
L 206.41484 414.679163 
L 204.612521 415.668015 
L 202.695198 416.424222 
L 200.694353 416.935365 
L 198.642839 417.193052 
L 196.574344 417.193052 
L 194.52283 416.935365 
L 192.521985 416.424222 
L 190.604662 415.668015 
L 188.802343 414.679163 
L 187.144622 413.473901 
L 185.658719 412.072021 
L 184.369033 410.496541 
L 183.296741 408.773329 
L 182.459448 406.930683 
L 181.870904 404.998856 
L 181.540772 403.009571 
L 181.474474 400.995492 
L 181.673097 398.989688 
L 182.13338 397.025096 
L 182.847767 395.133974 
L 183.804525 393.347374 
L 184.987946 391.694633 
L 186.378597 390.202887 
L 187.953645 388.896633 
L 189.687227 387.797317 
L 191.550877 386.922991 
L 193.513995 386.288012 
L 195.544346 385.902805 
L 197.608591 385.773696 
" style="fill:none;stroke:#808080;stroke-linecap:square;stroke-width:1.5;"/>
   </g>
   <g id="line2d_91">
    <path clip-path="url(#p086587fa30)" d="M 348.488933 496.844903 
L 350.553179 496.974011 
L 352.58353 497.359218 
L 354.546647 497.994197 
L 356.410298 498.868523 
L 358.143879 499.967839 
L 359.718927 501.274094 
L 361.109579 502.765839 
L 362.292999 504.418581 
L 363.249758 506.20518 
L 363.964144 508.096302 
L 364.424428 510.060894 
L 364.623051 512.066698 
L 364.556752 514.080778 
L 364.226621 516.070063 
L 363.638076 518.001889 
L 362.800784 519.844536 
L 361.728491 521.567747 
L 360.438805 523.143227 
L 358.952903 524.545108 
L 357.295182 525.750369 
L 355.492863 526.739222 
L 353.57554 527.495428 
L 351.574694 528.006571 
L 349.523181 528.264258 
L 347.454685 528.264258 
L 345.403172 528.006571 
L 343.402327 527.495428 
L 341.485003 526.739222 
L 339.682684 525.750369 
L 338.024964 524.545108 
L 336.539061 523.143227 
L 335.249375 521.567747 
L 334.177082 519.844536 
L 333.33979 518.001889 
L 332.751246 516.070063 
L 332.421114 514.080778 
L 332.354815 512.066698 
L 332.553439 510.060894 
L 333.013722 508.096302 
L 333.728108 506.20518 
L 334.684867 504.418581 
L 335.868288 502.765839 
L 337.258939 501.274094 
L 338.833987 499.967839 
L 340.567568 498.868523 
L 342.431219 497.994197 
L 344.394336 497.359218 
L 346.424687 496.974011 
L 348.488933 496.844903 
" style="fill:none;stroke:#808080;stroke-linecap:square;stroke-width:1.5;"/>
   </g>
   <g id="line2d_92">
    <path clip-path="url(#p086587fa30)" d="M 502.857565 442.526526 
L 504.921811 442.655635 
L 506.952162 443.040841 
L 508.915279 443.675821 
L 510.77893 444.550147 
L 512.512511 445.649462 
L 514.087559 446.955717 
L 515.478211 448.447462 
L 516.661631 450.100204 
L 517.61839 451.886804 
L 518.332776 453.777926 
L 518.79306 455.742518 
L 518.991683 457.748321 
L 518.925384 459.762401 
L 518.595253 461.751686 
L 518.006708 463.683512 
L 517.169416 465.526159 
L 516.097123 467.24937 
L 514.807437 468.824851 
L 513.321535 470.226731 
L 511.663814 471.431993 
L 509.861495 472.420845 
L 507.944172 473.177051 
L 505.943326 473.688195 
L 503.891813 473.945882 
L 501.823317 473.945882 
L 499.771804 473.688195 
L 497.770959 473.177051 
L 495.853635 472.420845 
L 494.051316 471.431993 
L 492.393596 470.226731 
L 490.907693 468.824851 
L 489.618007 467.24937 
L 488.545714 465.526159 
L 487.708422 463.683512 
L 487.119878 461.751686 
L 486.789746 459.762401 
L 486.723447 457.748321 
L 486.922071 455.742518 
L 487.382354 453.777926 
L 488.09674 451.886804 
L 489.053499 450.100204 
L 490.23692 448.447462 
L 491.627571 446.955717 
L 493.202619 445.649462 
L 494.9362 444.550147 
L 496.799851 443.675821 
L 498.762968 443.040841 
L 500.793319 442.655635 
L 502.857565 442.526526 
" style="fill:none;stroke:#808080;stroke-linecap:square;stroke-width:1.5;"/>
   </g>
   <g id="line2d_93">
    <path clip-path="url(#p086587fa30)" d="M 524.640576 323.812629 
L 526.704822 323.941738 
L 528.735173 324.326945 
L 530.698291 324.961924 
L 532.561941 325.83625 
L 534.295522 326.935566 
L 535.87057 328.24182 
L 537.261222 329.733566 
L 538.444642 331.386307 
L 539.401401 333.172907 
L 540.115787 335.064029 
L 540.576071 337.028621 
L 540.774694 339.034425 
L 540.708395 341.048505 
L 540.378264 343.03779 
L 539.78972 344.969616 
L 538.952427 346.812262 
L 537.880134 348.535474 
L 536.590448 350.110954 
L 535.104546 351.512835 
L 533.446825 352.718096 
L 531.644506 353.706949 
L 529.727183 354.463155 
L 527.726337 354.974298 
L 525.674824 355.231985 
L 523.606328 355.231985 
L 521.554815 354.974298 
L 519.55397 354.463155 
L 517.636646 353.706949 
L 515.834327 352.718096 
L 514.176607 351.512835 
L 512.690704 350.110954 
L 511.401018 348.535474 
L 510.328725 346.812262 
L 509.491433 344.969616 
L 508.902889 343.03779 
L 508.572757 341.048505 
L 508.506458 339.034425 
L 508.705082 337.028621 
L 509.165365 335.064029 
L 509.879751 333.172907 
L 510.83651 331.386307 
L 512.019931 329.733566 
L 513.410582 328.24182 
L 514.98563 326.935566 
L 516.719211 325.83625 
L 518.582862 324.961924 
L 520.545979 324.326945 
L 522.57633 323.941738 
L 524.640576 323.812629 
" style="fill:none;stroke:#808080;stroke-linecap:square;stroke-width:1.5;"/>
   </g>
   <g id="line2d_94"/>
   <g id="line2d_95"/>
   <g id="line2d_96"/>
   <g id="line2d_97"/>
   <g id="line2d_98"/>
   <g id="line2d_99"/>
   <g id="line2d_100"/>
   <g id="line2d_101"/>
   <g id="line2d_102"/>
   <g id="line2d_103"/>
   <g id="line2d_104"/>
   <g id="line2d_105"/>
   <g id="line2d_106"/>
   <g id="line2d_107"/>
   <g id="line2d_108"/>
   <g id="line2d_109"/>
   <g id="line2d_110"/>
   <g id="line2d_111"/>
   <g id="line2d_112"/>
   <g id="line2d_113"/>
   <g id="line2d_114"/>
   <g id="line2d_115"/>
   <g id="line2d_116"/>
   <g id="line2d_117"/>
   <g id="line2d_118"/>
   <g id="line2d_119"/>
   <g id="line2d_120"/>
   <g id="line2d_121"/>
   <g id="line2d_122"/>
   <g id="line2d_123"/>
   <g id="line2d_124"/>
   <g id="line2d_125"/>
   <g id="line2d_126"/>
   <g id="line2d_127"/>
   <g id="line2d_128"/>
   <g id="line2d_129"/>
   <g id="line2d_130"/>
   <g id="line2d_131"/>
   <g id="line2d_132"/>
   <g id="line2d_133"/>
   <g id="line2d_134"/>
   <g id="line2d_135"/>
   <g id="line2d_136"/>
   <g id="line2d_137"/>
   <g id="line2d_138"/>
   <g id="line2d_139"/>
   <g id="line2d_140"/>
   <g id="line2d_141"/>
   <g id="line2d_142"/>
   <g id="line2d_143"/>
   <g id="line2d_144"/>
   <g id="patch_3">
    <path d="M 90 630 
L 90 86.4 
" style="fill:none;stroke:#000000;stroke-linecap:square;stroke-linejoin:miter;stroke-width:0.8;"/>
   </g>
   <g id="patch_4">
    <path d="M 648 630 
L 648 86.4 
" style="fill:none;stroke:#000000;stroke-linecap:square;stroke-linejoin:miter;stroke-width:0.8;"/>
   </g>
   <g id="patch_5">
    <path d="M 90 630 
L 648 630 
" style="fill:none;stroke:#000000;stroke-linecap:square;stroke-linejoin:miter;stroke-width:0.8;"/>
   </g>
   <g id="patch_6">
    <path d="M 90 86.4 
L 648 86.4 
" style="fill:none;stroke:#000000;stroke-linecap:square;stroke-linejoin:miter;stroke-width:0.8;"/>
   </g>
   <g id="text_13">
    <!-- 0 -->
    <g transform="translate(92.219456 418.160045)scale(0.1 -0.1)">
     <use xlink:href="#DejaVuSans-30"/>
    </g>
   </g>
   <g id="text_14">
    <!-- 0 -->
    <g transform="translate(92.219456 402.434212)scale(0.1 -0.1)">
     <use xlink:href="#DejaVuSans-30"/>
    </g>
   </g>
   <g id="text_15">
    <!-- 0 -->
    <g transform="translate(92.219456 386.708379)scale(0.1 -0.1)">
     <use xlink:href="#DejaVuSans-30"/>
    </g>
   </g>
  </g>
 </g>
 <defs>
  <clipPath id="p086587fa30">
   <rect height="543.6" width="558" x="90" y="86.4"/>
  </clipPath>
 </defs>
</svg>
