<?xml version="1.0" encoding="utf-8" standalone="no"?>
<!DOCTYPE svg PUBLIC "-//W3C//DTD SVG 1.1//EN"
  "http://www.w3.org/Graphics/SVG/1.1/DTD/svg11.dtd">
<svg height="720pt" version="1.1" viewBox="0 0 720 720" width="720pt" xmlns="http://www.w3.org/2000/svg" xmlns:xlink="http://www.w3.org/1999/xlink">
 <metadata>
  <rdf:RDF xmlns:cc="http://creativecommons.org/ns#" xmlns:dc="http://purl.org/dc/elements/1.1/" xmlns:rdf="http://www.w3.org/1999/02/22-rdf-syntax-ns#">
   <cc:Work>
    <dc:type rdf:resource="http://purl.org/dc/dcmitype/StillImage"/>
    <dc:date>2022-01-11T13:25:57.846575</dc:date>
    <dc:format>image/svg+xml</dc:format>
    <dc:creator>
     <cc:Agent>
      <dc:title>Matplotlib v3.4.3, https://matplotlib.org/</dc:title>
     </cc:Agent>
    </dc:creator>
   </cc:Work>
  </rdf:RDF>
 </metadata>
 <defs>
  <style type="text/css">*{stroke-linecap:butt;stroke-linejoin:round;}</style>
 </defs>
 <g id="figure_1">
  <g id="patch_1">
   <path d="M 0 720 
L 720 720 
L 720 0 
L 0 0 
z
" style="fill:none;"/>
  </g>
  <g id="axes_1">
   <g id="patch_2">
    <path d="M 90 630 
L 648 630 
L 648 86.4 
L 90 86.4 
z
" style="fill:#ffffff;"/>
   </g>
   <g id="PathCollection_1">
    <defs>
     <path d="M 0.972304 -8.870829 
Q -1.277159 -8.870829 -2.413438 -6.653699 
Q -3.545098 -4.441189 -3.545098 0.006929 
Q -3.545098 4.436569 -2.413438 6.653699 
Q -1.277159 8.870829 0.972304 8.870829 
Q 3.240243 8.870829 4.371903 6.653699 
Q 5.508182 4.436569 5.508182 0.006929 
Q 5.508182 -4.441189 4.371903 -6.653699 
Q 3.240243 -8.870829 0.972304 -8.870829 
z
M 0.972304 -11.18034 
Q 4.598235 -11.18034 6.51051 -8.311928 
Q 8.422784 -5.448135 8.422784 0.006929 
Q 8.422784 5.448135 6.51051 8.316547 
Q 4.598235 11.18034 0.972304 11.18034 
Q -2.649008 11.18034 -4.561283 8.316547 
Q -6.473558 5.448135 -6.473558 0.006929 
Q -6.473558 -5.448135 -4.561283 -8.311928 
Q -2.649008 -11.18034 0.972304 -11.18034 
z
" id="ma6dae35d7d" style="stroke:#808080;"/>
    </defs>
    <g clip-path="url(#p607895132d)">
     <use style="fill:#808080;stroke:#808080;" x="450.441817" xlink:href="#ma6dae35d7d" y="198.688964"/>
    </g>
   </g>
   <g id="PathCollection_2">
    <defs>
     <path d="M -4.535873 8.63565 
L 0.404946 8.63565 
L 0.404946 -8.424791 
L -4.971969 -7.346533 
L -4.971969 -10.102082 
L 0.376192 -11.18034 
L 3.400108 -11.18034 
L 3.400108 8.63565 
L 8.340927 8.63565 
L 8.340927 11.18034 
L -4.535873 11.18034 
L -4.535873 8.63565 
z
" id="m010774c5bc" style="stroke:#808080;"/>
    </defs>
    <g clip-path="url(#p607895132d)">
     <use style="fill:#808080;stroke:#808080;" x="282.526087" xlink:href="#m010774c5bc" y="203.366972"/>
    </g>
   </g>
   <g id="PathCollection_3">
    <defs>
     <path d="M -2.294912 8.680651 
L 8.075736 8.680651 
L 8.075736 11.18034 
L -5.867913 11.18034 
L -5.867913 8.680651 
Q -4.177916 6.929457 -1.259259 3.982555 
Q 1.664105 1.030945 2.4126 0.174178 
Q 3.838976 -1.426376 4.403877 -2.537349 
Q 4.973486 -3.648321 4.973486 -4.721634 
Q 4.973486 -6.472828 3.744825 -7.574386 
Q 2.516165 -8.680651 0.543718 -8.680651 
Q -0.854413 -8.680651 -2.407892 -8.195778 
Q -3.956663 -7.710904 -5.72198 -6.722326 
L -5.72198 -9.725719 
Q -3.928418 -10.445968 -2.370232 -10.813154 
Q -0.807338 -11.18034 0.487227 -11.18034 
Q 3.900173 -11.18034 5.929111 -9.471513 
Q 7.958048 -7.767394 7.958048 -4.914642 
Q 7.958048 -3.558879 7.449637 -2.344341 
Q 6.945933 -1.13451 5.604292 0.513119 
Q 5.237107 0.941502 3.264659 2.979855 
Q 1.296919 5.018207 -2.294912 8.680651 
z
" id="m15d9ef1692" style="stroke:#808080;"/>
    </defs>
    <g clip-path="url(#p607895132d)">
     <use style="fill:#808080;stroke:#808080;" x="131.204621" xlink:href="#m15d9ef1692" y="264.366384"/>
    </g>
   </g>
   <g id="PathCollection_4">
    <defs>
     <path d="M 3.77605 -0.861447 
Q 5.868466 -0.413402 7.041697 1.004637 
Q 8.219548 2.418057 8.219548 4.496617 
Q 8.219548 7.683741 6.025513 9.43435 
Q 3.831478 11.18034 -0.210165 11.18034 
Q -1.563539 11.18034 -3.000054 10.912437 
Q -4.436569 10.644533 -5.965465 10.108727 
L -5.965465 7.295743 
Q -4.755282 8.002454 -3.314147 8.362737 
Q -1.868394 8.723021 -0.293308 8.723021 
Q 2.445772 8.723021 3.882287 7.64217 
Q 5.318802 6.561319 5.318802 4.496617 
Q 5.318802 2.588961 3.983905 1.517348 
Q 2.649008 0.441116 0.270213 0.441116 
L -2.242535 0.441116 
L -2.242535 -1.956155 
L 0.385688 -1.956155 
Q 2.533533 -1.956155 3.674431 -2.815293 
Q 4.815329 -3.674431 4.815329 -5.291088 
Q 4.815329 -6.949317 3.637479 -7.836169 
Q 2.464248 -8.72764 0.270213 -8.72764 
Q -0.930733 -8.72764 -2.302582 -8.464356 
Q -3.674431 -8.20569 -5.318802 -7.660646 
L -5.318802 -10.256536 
Q -3.655955 -10.718438 -2.205582 -10.949389 
Q -0.75521 -11.18034 0.528878 -11.18034 
Q 3.849954 -11.18034 5.780705 -9.66992 
Q 7.716074 -8.164119 7.716074 -5.595944 
Q 7.716074 -3.803764 6.690652 -2.570485 
Q 5.665229 -1.337207 3.77605 -0.861447 
z
" id="me63a4230ea" style="stroke:#808080;"/>
    </defs>
    <g clip-path="url(#p607895132d)">
     <use style="fill:#808080;stroke:#808080;" x="131.204621" xlink:href="#me63a4230ea" y="264.366384"/>
    </g>
   </g>
   <g id="PathCollection_5">
    <defs>
     <path d="M 2.695646 -8.544598 
L -4.943215 3.392919 
L 2.695646 3.392919 
L 2.695646 -8.544598 
z
M 1.900131 -11.18034 
L 5.705184 -11.18034 
L 5.705184 3.392919 
L 8.896829 3.392919 
L 8.896829 5.908855 
L 5.705184 5.908855 
L 5.705184 11.18034 
L 2.695646 11.18034 
L 2.695646 5.908855 
L -7.396852 5.908855 
L -7.396852 2.99037 
L 1.900131 -11.18034 
z
" id="me609f3ac73" style="stroke:#808080;"/>
    </defs>
    <g clip-path="url(#p607895132d)">
     <use style="fill:#808080;stroke:#808080;" x="157.121796" xlink:href="#me609f3ac73" y="361.859157"/>
    </g>
   </g>
   <g id="PathCollection_6">
    <defs>
     <path d="M -5.008473 -11.18034 
L 6.639575 -11.18034 
L 6.639575 -8.679629 
L -2.291535 -8.679629 
L -2.291535 -3.306861 
Q -1.647555 -3.527789 -1.003575 -3.635902 
Q -0.354894 -3.744015 0.293787 -3.744015 
Q 3.964943 -3.744015 6.108409 -1.732165 
Q 8.256576 0.279685 8.256576 3.715812 
Q 8.256576 7.255352 6.052002 9.220196 
Q 3.847428 11.18034 -0.16217 11.18034 
Q -1.544142 11.18034 -2.97782 10.945311 
Q -4.406798 10.710281 -5.934488 10.240223 
L -5.934488 7.255352 
Q -4.613624 7.974541 -3.203448 8.327085 
Q -1.793273 8.679629 -0.223278 8.679629 
Q 2.319738 8.679629 3.800422 7.344663 
Q 5.285807 6.009697 5.285807 3.715812 
Q 5.285807 1.426627 3.800422 0.091661 
Q 2.319738 -1.248005 -0.223278 -1.248005 
Q -1.412526 -1.248005 -2.597073 -0.984772 
Q -3.77692 -0.72154 -5.008473 -0.16217 
L -5.008473 -11.18034 
z
" id="mfe66a28002" style="stroke:#808080;"/>
    </defs>
    <g clip-path="url(#p607895132d)">
     <use style="fill:#808080;stroke:#808080;" x="363.301713" xlink:href="#mfe66a28002" y="366.841301"/>
    </g>
   </g>
   <g id="PathCollection_7">
    <defs>
     <path d="M 1.286397 -1.175541 
Q -0.676687 -1.175541 -1.826823 0.168594 
Q -2.97234 1.50811 -2.97234 3.845335 
Q -2.97234 6.168702 -1.826823 7.522075 
Q -0.676687 8.870829 1.286397 8.870829 
Q 3.249481 8.870829 4.394998 7.522075 
Q 5.540515 6.168702 5.540515 3.845335 
Q 5.540515 1.50811 4.394998 0.168594 
Q 3.249481 -1.175541 1.286397 -1.175541 
z
M 7.07403 -10.316583 
L 7.07403 -7.660646 
Q 5.974703 -8.177976 4.8569 -8.450499 
Q 3.739097 -8.72764 2.63977 -8.72764 
Q -0.247118 -8.72764 -1.771394 -6.778413 
Q -3.291052 -4.829186 -3.508146 -0.889162 
Q -2.658246 -2.145535 -1.374159 -2.815293 
Q -0.085452 -3.485051 1.457301 -3.485051 
Q 4.704473 -3.485051 6.589033 -1.512729 
Q 8.473594 0.454974 8.473594 3.845335 
Q 8.473594 7.166411 6.51051 9.175685 
Q 4.547426 11.18034 1.286397 11.18034 
Q -2.45501 11.18034 -4.43195 8.316547 
Q -6.408891 5.448135 -6.408891 0.006929 
Q -6.408891 -5.101708 -3.983905 -8.141024 
Q -1.55892 -11.18034 2.524295 -11.18034 
Q 3.623622 -11.18034 4.741425 -10.963246 
Q 5.859228 -10.746152 7.07403 -10.316583 
z
" id="mb8aa690935" style="stroke:#808080;"/>
    </defs>
    <g clip-path="url(#p607895132d)">
     <use style="fill:#808080;stroke:#808080;" x="502.142401" xlink:href="#mb8aa690935" y="419.357897"/>
    </g>
   </g>
   <g id="PathCollection_8">
    <defs>
     <path d="M -5.93042 -11.18034 
L 8.446356 -11.18034 
L 8.446356 -9.891222 
L 0.32827 11.18034 
L -2.829829 11.18034 
L 4.809032 -8.630858 
L -5.93042 -8.630858 
L -5.93042 -11.18034 
z
" id="m742f76acff" style="stroke:#808080;"/>
    </defs>
    <g clip-path="url(#p607895132d)">
     <use style="fill:#808080;stroke:#808080;" x="596.846283" xlink:href="#m742f76acff" y="267.551027"/>
    </g>
   </g>
   <g id="PathCollection_9"/>
   <g id="PathCollection_10"/>
   <g id="PathCollection_11"/>
   <g id="PathCollection_12"/>
   <g id="PathCollection_13"/>
   <g id="matplotlib.axis_1">
    <g id="xtick_1">
     <g id="line2d_1">
      <defs>
       <path d="M 0 0 
L 0 3.5 
" id="m9f71f8393e" style="stroke:#000000;stroke-width:0.8;"/>
      </defs>
      <g>
       <use style="stroke:#000000;stroke-width:0.8;" x="97.800026" xlink:href="#m9f71f8393e" y="630"/>
      </g>
     </g>
     <g id="text_1">
      <!-- −200 -->
      <g transform="translate(84.066432 644.598438)scale(0.1 -0.1)">
       <defs>
        <path d="M 678 2272 
L 4684 2272 
L 4684 1741 
L 678 1741 
L 678 2272 
z
" id="DejaVuSans-2212" transform="scale(0.015625)"/>
        <path d="M 1228 531 
L 3431 531 
L 3431 0 
L 469 0 
L 469 531 
Q 828 903 1448 1529 
Q 2069 2156 2228 2338 
Q 2531 2678 2651 2914 
Q 2772 3150 2772 3378 
Q 2772 3750 2511 3984 
Q 2250 4219 1831 4219 
Q 1534 4219 1204 4116 
Q 875 4013 500 3803 
L 500 4441 
Q 881 4594 1212 4672 
Q 1544 4750 1819 4750 
Q 2544 4750 2975 4387 
Q 3406 4025 3406 3419 
Q 3406 3131 3298 2873 
Q 3191 2616 2906 2266 
Q 2828 2175 2409 1742 
Q 1991 1309 1228 531 
z
" id="DejaVuSans-32" transform="scale(0.015625)"/>
        <path d="M 2034 4250 
Q 1547 4250 1301 3770 
Q 1056 3291 1056 2328 
Q 1056 1369 1301 889 
Q 1547 409 2034 409 
Q 2525 409 2770 889 
Q 3016 1369 3016 2328 
Q 3016 3291 2770 3770 
Q 2525 4250 2034 4250 
z
M 2034 4750 
Q 2819 4750 3233 4129 
Q 3647 3509 3647 2328 
Q 3647 1150 3233 529 
Q 2819 -91 2034 -91 
Q 1250 -91 836 529 
Q 422 1150 422 2328 
Q 422 3509 836 4129 
Q 1250 4750 2034 4750 
z
" id="DejaVuSans-30" transform="scale(0.015625)"/>
       </defs>
       <use xlink:href="#DejaVuSans-2212"/>
       <use x="83.789062" xlink:href="#DejaVuSans-32"/>
       <use x="147.412109" xlink:href="#DejaVuSans-30"/>
       <use x="211.035156" xlink:href="#DejaVuSans-30"/>
      </g>
     </g>
    </g>
    <g id="xtick_2">
     <g id="line2d_2">
      <g>
       <use style="stroke:#000000;stroke-width:0.8;" x="204.936554" xlink:href="#m9f71f8393e" y="630"/>
      </g>
     </g>
     <g id="text_2">
      <!-- −100 -->
      <g transform="translate(191.202961 644.598438)scale(0.1 -0.1)">
       <defs>
        <path d="M 794 531 
L 1825 531 
L 1825 4091 
L 703 3866 
L 703 4441 
L 1819 4666 
L 2450 4666 
L 2450 531 
L 3481 531 
L 3481 0 
L 794 0 
L 794 531 
z
" id="DejaVuSans-31" transform="scale(0.015625)"/>
       </defs>
       <use xlink:href="#DejaVuSans-2212"/>
       <use x="83.789062" xlink:href="#DejaVuSans-31"/>
       <use x="147.412109" xlink:href="#DejaVuSans-30"/>
       <use x="211.035156" xlink:href="#DejaVuSans-30"/>
      </g>
     </g>
    </g>
    <g id="xtick_3">
     <g id="line2d_3">
      <g>
       <use style="stroke:#000000;stroke-width:0.8;" x="312.073082" xlink:href="#m9f71f8393e" y="630"/>
      </g>
     </g>
     <g id="text_3">
      <!-- 0 -->
      <g transform="translate(308.891832 644.598438)scale(0.1 -0.1)">
       <use xlink:href="#DejaVuSans-30"/>
      </g>
     </g>
    </g>
    <g id="xtick_4">
     <g id="line2d_4">
      <g>
       <use style="stroke:#000000;stroke-width:0.8;" x="419.209611" xlink:href="#m9f71f8393e" y="630"/>
      </g>
     </g>
     <g id="text_4">
      <!-- 100 -->
      <g transform="translate(409.665861 644.598438)scale(0.1 -0.1)">
       <use xlink:href="#DejaVuSans-31"/>
       <use x="63.623047" xlink:href="#DejaVuSans-30"/>
       <use x="127.246094" xlink:href="#DejaVuSans-30"/>
      </g>
     </g>
    </g>
    <g id="xtick_5">
     <g id="line2d_5">
      <g>
       <use style="stroke:#000000;stroke-width:0.8;" x="526.346139" xlink:href="#m9f71f8393e" y="630"/>
      </g>
     </g>
     <g id="text_5">
      <!-- 200 -->
      <g transform="translate(516.802389 644.598438)scale(0.1 -0.1)">
       <use xlink:href="#DejaVuSans-32"/>
       <use x="63.623047" xlink:href="#DejaVuSans-30"/>
       <use x="127.246094" xlink:href="#DejaVuSans-30"/>
      </g>
     </g>
    </g>
    <g id="xtick_6">
     <g id="line2d_6">
      <g>
       <use style="stroke:#000000;stroke-width:0.8;" x="633.482667" xlink:href="#m9f71f8393e" y="630"/>
      </g>
     </g>
     <g id="text_6">
      <!-- 300 -->
      <g transform="translate(623.938917 644.598438)scale(0.1 -0.1)">
       <defs>
        <path d="M 2597 2516 
Q 3050 2419 3304 2112 
Q 3559 1806 3559 1356 
Q 3559 666 3084 287 
Q 2609 -91 1734 -91 
Q 1441 -91 1130 -33 
Q 819 25 488 141 
L 488 750 
Q 750 597 1062 519 
Q 1375 441 1716 441 
Q 2309 441 2620 675 
Q 2931 909 2931 1356 
Q 2931 1769 2642 2001 
Q 2353 2234 1838 2234 
L 1294 2234 
L 1294 2753 
L 1863 2753 
Q 2328 2753 2575 2939 
Q 2822 3125 2822 3475 
Q 2822 3834 2567 4026 
Q 2313 4219 1838 4219 
Q 1578 4219 1281 4162 
Q 984 4106 628 3988 
L 628 4550 
Q 988 4650 1302 4700 
Q 1616 4750 1894 4750 
Q 2613 4750 3031 4423 
Q 3450 4097 3450 3541 
Q 3450 3153 3228 2886 
Q 3006 2619 2597 2516 
z
" id="DejaVuSans-33" transform="scale(0.015625)"/>
       </defs>
       <use xlink:href="#DejaVuSans-33"/>
       <use x="63.623047" xlink:href="#DejaVuSans-30"/>
       <use x="127.246094" xlink:href="#DejaVuSans-30"/>
      </g>
     </g>
    </g>
   </g>
   <g id="matplotlib.axis_2">
    <g id="ytick_1">
     <g id="line2d_7">
      <defs>
       <path d="M 0 0 
L -3.5 0 
" id="m57871830f1" style="stroke:#000000;stroke-width:0.8;"/>
      </defs>
      <g>
       <use style="stroke:#000000;stroke-width:0.8;" x="90" xlink:href="#m57871830f1" y="622.401265"/>
      </g>
     </g>
     <g id="text_7">
      <!-- −200 -->
      <g transform="translate(55.532812 626.200484)scale(0.1 -0.1)">
       <use xlink:href="#DejaVuSans-2212"/>
       <use x="83.789062" xlink:href="#DejaVuSans-32"/>
       <use x="147.412109" xlink:href="#DejaVuSans-30"/>
       <use x="211.035156" xlink:href="#DejaVuSans-30"/>
      </g>
     </g>
    </g>
    <g id="ytick_2">
     <g id="line2d_8">
      <g>
       <use style="stroke:#000000;stroke-width:0.8;" x="90" xlink:href="#m57871830f1" y="518.02955"/>
      </g>
     </g>
     <g id="text_8">
      <!-- −100 -->
      <g transform="translate(55.532812 521.828769)scale(0.1 -0.1)">
       <use xlink:href="#DejaVuSans-2212"/>
       <use x="83.789062" xlink:href="#DejaVuSans-31"/>
       <use x="147.412109" xlink:href="#DejaVuSans-30"/>
       <use x="211.035156" xlink:href="#DejaVuSans-30"/>
      </g>
     </g>
    </g>
    <g id="ytick_3">
     <g id="line2d_9">
      <g>
       <use style="stroke:#000000;stroke-width:0.8;" x="90" xlink:href="#m57871830f1" y="413.657836"/>
      </g>
     </g>
     <g id="text_9">
      <!-- 0 -->
      <g transform="translate(76.6375 417.457055)scale(0.1 -0.1)">
       <use xlink:href="#DejaVuSans-30"/>
      </g>
     </g>
    </g>
    <g id="ytick_4">
     <g id="line2d_10">
      <g>
       <use style="stroke:#000000;stroke-width:0.8;" x="90" xlink:href="#m57871830f1" y="309.286121"/>
      </g>
     </g>
     <g id="text_10">
      <!-- 100 -->
      <g transform="translate(63.9125 313.08534)scale(0.1 -0.1)">
       <use xlink:href="#DejaVuSans-31"/>
       <use x="63.623047" xlink:href="#DejaVuSans-30"/>
       <use x="127.246094" xlink:href="#DejaVuSans-30"/>
      </g>
     </g>
    </g>
    <g id="ytick_5">
     <g id="line2d_11">
      <g>
       <use style="stroke:#000000;stroke-width:0.8;" x="90" xlink:href="#m57871830f1" y="204.914407"/>
      </g>
     </g>
     <g id="text_11">
      <!-- 200 -->
      <g transform="translate(63.9125 208.713626)scale(0.1 -0.1)">
       <use xlink:href="#DejaVuSans-32"/>
       <use x="63.623047" xlink:href="#DejaVuSans-30"/>
       <use x="127.246094" xlink:href="#DejaVuSans-30"/>
      </g>
     </g>
    </g>
    <g id="ytick_6">
     <g id="line2d_12">
      <g>
       <use style="stroke:#000000;stroke-width:0.8;" x="90" xlink:href="#m57871830f1" y="100.542692"/>
      </g>
     </g>
     <g id="text_12">
      <!-- 300 -->
      <g transform="translate(63.9125 104.341911)scale(0.1 -0.1)">
       <use xlink:href="#DejaVuSans-33"/>
       <use x="63.623047" xlink:href="#DejaVuSans-30"/>
       <use x="127.246094" xlink:href="#DejaVuSans-30"/>
      </g>
     </g>
    </g>
   </g>
   <g id="line2d_13">
    <path clip-path="url(#p607895132d)" d="M 596.846283 267.551027 
L 594.283206 262.880878 
L 591.360362 258.415596 
L 588.115842 254.166124 
L 584.587438 250.136723 
L 580.810827 246.32634 
L 576.818524 242.730037 
L 572.639427 239.34028 
L 568.29879 236.147977 
L 563.81844 233.143256 
L 559.217113 230.316018 
L 554.510843 227.656303 
L 549.713328 225.154523 
L 544.836289 222.801592 
L 539.889762 220.588999 
L 534.882371 218.508823 
L 529.821547 216.553735 
L 524.713715 214.716969 
L 519.564452 212.992296 
L 514.378616 211.373982 
L 509.160454 209.856755 
L 503.913695 208.435765 
L 498.641622 207.106546 
L 493.347136 205.864986 
L 488.032811 204.707296 
L 482.700936 203.629977 
L 477.353551 202.629801 
L 471.992485 201.703781 
L 466.619375 200.849154 
L 461.235696 200.063362 
L 455.842777 199.344031 
L 450.441817 198.688964 
" style="fill:none;stroke:#808080;stroke-linecap:square;stroke-width:1.5;"/>
   </g>
   <g id="line2d_14">
    <path clip-path="url(#p607895132d)" d="M 450.441817 267.551027 
L 450.441817 198.688964 
L 596.846283 198.688964 
L 596.846283 267.551027 
L 450.441817 267.551027 
" style="fill:none;stroke:#d3d3d3;stroke-linecap:square;stroke-width:0.5;"/>
   </g>
   <g id="line2d_15">
    <path clip-path="url(#p607895132d)" d="M 450.441817 198.688964 
L 445.033904 198.096116 
L 439.620026 197.563591 
L 434.201078 197.089629 
L 428.77788 196.672591 
L 423.351175 196.310957 
L 417.921649 196.003313 
L 412.489925 195.748348 
L 407.056579 195.544843 
L 401.62214 195.39167 
L 396.187097 195.287783 
L 390.7519 195.232216 
L 385.31697 195.22408 
L 379.882697 195.262553 
L 374.449446 195.346887 
L 369.017559 195.476395 
L 363.587359 195.650456 
L 358.159153 195.868512 
L 352.733232 196.130062 
L 347.309877 196.434665 
L 341.889357 196.781939 
L 336.471938 197.171558 
L 331.057878 197.603254 
L 325.647434 198.076815 
L 320.240863 198.59209 
L 314.838425 199.148984 
L 309.440384 199.747463 
L 304.047011 200.387556 
L 298.658591 201.069357 
L 293.275418 201.793025 
L 287.897805 202.558794 
L 282.526087 203.366972 
" style="fill:none;stroke:#808080;stroke-linecap:square;stroke-width:1.5;"/>
   </g>
   <g id="line2d_16">
    <path clip-path="url(#p607895132d)" d="M 282.526087 203.366972 
L 282.526087 195.22408 
L 450.441817 195.22408 
L 450.441817 203.366972 
L 282.526087 203.366972 
" style="fill:none;stroke:#d3d3d3;stroke-linecap:square;stroke-width:0.5;"/>
   </g>
   <g id="line2d_17">
    <path clip-path="url(#p607895132d)" d="M 282.526087 203.366972 
L 277.16062 204.217947 
L 271.801791 205.112197 
L 266.450022 206.050293 
L 261.105774 207.032912 
L 255.769557 208.060845 
L 250.441934 209.13501 
L 245.123535 210.256471 
L 239.815068 211.426451 
L 234.517329 212.646358 
L 229.231225 213.91781 
L 223.957793 215.24267 
L 218.698224 216.623083 
L 213.453902 218.061532 
L 208.226441 219.560893 
L 203.017748 221.124517 
L 197.830089 222.756334 
L 192.666193 224.460977 
L 187.529381 226.243954 
L 182.423757 228.111874 
L 177.354463 230.072749 
L 172.328064 232.136414 
L 167.353119 234.315108 
L 162.441052 236.624323 
L 157.607567 239.084024 
L 152.874999 241.720511 
L 148.276469 244.569239 
L 143.863647 247.679155 
L 139.722214 251.118959 
L 136.004326 254.983593 
L 132.995332 259.386 
L 131.204621 264.366384 
" style="fill:none;stroke:#808080;stroke-linecap:square;stroke-width:1.5;"/>
   </g>
   <g id="line2d_18">
    <path clip-path="url(#p607895132d)" d="M 131.204621 264.366384 
L 131.204621 203.366972 
L 282.526087 203.366972 
L 282.526087 264.366384 
L 131.204621 264.366384 
" style="fill:none;stroke:#d3d3d3;stroke-linecap:square;stroke-width:0.5;"/>
   </g>
   <g id="line2d_19">
    <path clip-path="url(#p607895132d)" d="M 131.204621 264.366384 
" style="fill:none;stroke:#808080;stroke-linecap:square;stroke-width:1.5;"/>
   </g>
   <g id="line2d_20">
    <path clip-path="url(#p607895132d)" d="M 131.204621 264.366384 
L 131.204621 264.366384 
L 131.204621 264.366384 
L 131.204621 264.366384 
L 131.204621 264.366384 
" style="fill:none;stroke:#d3d3d3;stroke-linecap:square;stroke-width:0.5;"/>
   </g>
   <g id="line2d_21">
    <path clip-path="url(#p607895132d)" d="M 131.204621 264.366384 
L 129.921756 269.682937 
L 128.222487 274.888933 
L 126.275934 280.012584 
L 124.199454 285.087725 
L 122.097797 290.152539 
L 120.091179 295.251995 
L 118.347397 300.438305 
L 117.122849 305.757735 
L 116.776164 311.196316 
L 117.616992 316.592963 
L 119.604209 321.706524 
L 122.39532 326.442006 
L 125.670269 330.858851 
L 129.235912 335.049272 
L 132.985678 339.085239 
L 136.858429 343.014904 
L 140.816742 346.869506 
L 144.836348 350.669497 
L 148.900818 354.428583 
L 152.998688 358.156223 
L 157.121796 361.859157 
" style="fill:none;stroke:#808080;stroke-linecap:square;stroke-width:1.5;"/>
   </g>
   <g id="line2d_22">
    <path clip-path="url(#p607895132d)" d="M 116.776164 361.859157 
L 116.776164 264.366384 
L 157.121796 264.366384 
L 157.121796 361.859157 
L 116.776164 361.859157 
" style="fill:none;stroke:#d3d3d3;stroke-linecap:square;stroke-width:0.5;"/>
   </g>
   <g id="line2d_23">
    <path clip-path="url(#p607895132d)" d="M 157.121796 361.859157 
L 161.674785 364.861088 
L 166.865372 366.638038 
L 172.304911 367.424945 
L 177.798771 367.489905 
L 183.270633 367.032891 
L 188.694712 366.18874 
L 194.064458 365.048363 
L 199.380372 363.674931 
L 204.645441 362.113947 
L 209.863438 360.399313 
L 215.03829 358.557047 
L 220.173855 356.607647 
L 225.273857 354.567634 
L 230.341875 352.450616 
L 235.381356 350.268033 
L 240.395636 348.029707 
L 245.387956 345.744251 
L 250.361487 343.4194 
L 255.319351 341.062274 
L 260.26464 338.679611 
L 265.200448 336.277964 
L 270.129894 333.86391 
L 275.056165 331.444244 
L 279.982553 329.026201 
L 284.912517 326.617712 
L 289.849746 324.227711 
L 294.798253 321.866538 
L 299.762491 319.546467 
L 304.747496 317.282451 
L 309.75908 315.093197 
L 314.80406 313.002783 
L 319.890504 311.043198 
L 325.027893 309.258501 
L 330.226813 307.71196 
L 335.49696 306.498828 
L 340.839372 305.769665 
L 346.220044 305.769938 
L 351.492615 306.878878 
L 356.262267 309.503254 
L 359.975872 313.614194 
L 362.461297 318.600345 
L 363.985767 323.908066 
L 364.858844 329.296691 
L 365.289223 334.69235 
L 365.404648 340.07735 
L 365.285082 345.449811 
L 364.983167 350.81133 
L 364.535394 356.163474 
L 363.968244 361.506908 
L 363.301713 366.841301 
" style="fill:none;stroke:#808080;stroke-linecap:square;stroke-width:1.5;"/>
   </g>
   <g id="line2d_24">
    <path clip-path="url(#p607895132d)" d="M 157.121796 367.489905 
L 157.121796 305.769665 
L 365.404648 305.769665 
L 365.404648 367.489905 
L 157.121796 367.489905 
" style="fill:none;stroke:#d3d3d3;stroke-linecap:square;stroke-width:0.5;"/>
   </g>
   <g id="line2d_25">
    <path clip-path="url(#p607895132d)" d="M 363.301713 366.841301 
L 362.57836 372.079859 
L 361.806998 377.312172 
L 360.988862 382.538101 
L 360.125579 387.757629 
L 359.219434 392.970923 
L 358.273807 398.178434 
L 357.29396 403.381072 
L 356.288521 408.580503 
L 355.272574 413.779718 
L 354.274856 418.9841 
L 353.357805 424.203362 
L 352.691857 429.451563 
L 353.026895 434.635751 
L 357.424966 436.939939 
L 362.748314 435.912032 
L 367.940418 434.421054 
L 373.125571 432.874902 
L 378.331478 431.379191 
L 383.565643 429.971402 
L 388.828741 428.665271 
L 394.118801 427.464443 
L 399.432889 426.367778 
L 404.767854 425.371766 
L 410.120657 424.471738 
L 415.488516 423.66252 
L 420.868955 422.938794 
L 426.259809 422.295306 
L 431.659204 421.726986 
L 437.065531 421.229011 
L 442.477418 420.796835 
L 447.893698 420.426201 
L 453.313384 420.113139 
L 458.735643 419.853959 
L 464.159772 419.645238 
L 469.585185 419.483801 
L 475.011391 419.366709 
L 480.437985 419.29124 
L 485.86463 419.254874 
L 491.291055 419.255277 
L 496.717037 419.290287 
L 502.142401 419.357897 
" style="fill:none;stroke:#808080;stroke-linecap:square;stroke-width:1.5;"/>
   </g>
   <g id="line2d_26">
    <path clip-path="url(#p607895132d)" d="M 352.691857 436.939939 
L 352.691857 366.841301 
L 502.142401 366.841301 
L 502.142401 436.939939 
L 352.691857 436.939939 
" style="fill:none;stroke:#d3d3d3;stroke-linecap:square;stroke-width:0.5;"/>
   </g>
   <g id="line2d_27">
    <path clip-path="url(#p607895132d)" d="M 502.142401 419.357897 
L 507.60736 419.404041 
L 513.072341 419.370894 
L 518.535969 419.252254 
L 523.996529 419.041187 
L 529.451872 418.729913 
L 534.899307 418.309685 
L 540.33545 417.77064 
L 545.756038 417.101639 
L 551.155685 416.29008 
L 556.52756 415.321706 
L 561.862978 414.180409 
L 567.150873 412.848056 
L 572.377125 411.304382 
L 577.523741 409.52701 
L 582.567881 407.491737 
L 587.4808 405.173229 
L 592.226883 402.546357 
L 596.763087 399.588416 
L 601.039348 396.282339 
L 605.000645 392.620696 
L 608.591237 388.609702 
L 611.76096 384.271779 
L 614.472219 379.645151 
L 616.705424 374.779814 
L 618.460807 369.730964 
L 619.756181 364.552134 
L 620.621951 359.290169 
L 621.095457 353.982847 
L 621.216194 348.658749 
L 621.022557 343.338435 
L 620.550014 338.036085 
L 619.830321 332.761103 
L 618.891401 327.51945 
L 617.757552 322.314669 
L 616.44982 317.148634 
L 614.986406 312.022084 
L 613.38307 306.934997 
L 611.653482 301.886845 
L 609.809542 296.876774 
L 607.861639 291.903726 
L 605.818882 286.966521 
L 603.689283 282.063917 
L 601.479918 277.194642 
L 599.197059 272.35743 
L 596.846283 267.551027 
" style="fill:none;stroke:#808080;stroke-linecap:square;stroke-width:1.5;"/>
   </g>
   <g id="line2d_28">
    <path clip-path="url(#p607895132d)" d="M 502.142401 419.404041 
L 502.142401 267.551027 
L 621.216194 267.551027 
L 621.216194 419.404041 
L 502.142401 419.404041 
" style="fill:none;stroke:#d3d3d3;stroke-linecap:square;stroke-width:0.5;"/>
   </g>
   <g id="line2d_29">
    <path clip-path="url(#p607895132d)" d="M 373.926082 368.185946 
L 373.926082 368.185946 
L 373.926082 368.185946 
" style="fill:none;stroke:#000000;stroke-linecap:square;stroke-width:3;"/>
   </g>
   <g id="line2d_30">
    <path clip-path="url(#p607895132d)" d="M 373.926082 368.185946 
L 373.926082 368.185946 
L 373.926082 368.185946 
L 373.926082 368.185946 
L 373.926082 368.185946 
" style="fill:none;stroke:#d3d3d3;stroke-linecap:square;stroke-width:0.5;"/>
   </g>
   <g id="line2d_31">
    <path clip-path="url(#p607895132d)" d="M 373.926082 368.185946 
L 373.926082 368.185946 
L 373.926082 368.185946 
" style="fill:none;stroke:#000000;stroke-linecap:square;stroke-width:3;"/>
   </g>
   <g id="line2d_32">
    <path clip-path="url(#p607895132d)" d="M 373.926082 368.185946 
L 373.926082 368.185946 
L 373.926082 368.185946 
L 373.926082 368.185946 
L 373.926082 368.185946 
" style="fill:none;stroke:#d3d3d3;stroke-linecap:square;stroke-width:0.5;"/>
   </g>
   <g id="line2d_33">
    <path clip-path="url(#p607895132d)" d="M 164.362325 354.16629 
L 164.362325 354.16629 
L 166.389423 355.488833 
L 169.327705 356.480264 
L 173.077068 357.014916 
L 177.35202 357.061812 
L 181.931796 356.677535 
L 186.683926 355.937044 
L 191.532785 354.906779 
L 196.434747 353.639997 
L 201.364049 352.178375 
L 206.305201 350.554591 
L 211.248858 348.794551 
L 216.189503 346.919083 
L 221.124095 344.945194 
L 226.051257 342.886985 
L 230.970763 340.756341 
L 235.883221 338.563449 
L 240.789861 336.317203 
L 245.692407 334.025524 
L 250.592996 331.695621 
L 255.49414 329.334221 
L 260.398721 326.947764 
L 265.310017 324.542597 
L 270.231758 322.125154 
L 275.168227 319.702165 
L 280.124404 317.280874 
L 285.106181 314.869318 
L 290.120682 312.476673 
L 295.176726 310.113722 
L 300.285527 307.793526 
L 305.461778 305.532414 
L 310.725362 303.351549 
L 316.104168 301.279562 
L 321.638851 299.357284 
L 327.391086 297.647027 
L 333.457681 296.252474 
L 339.99097 295.365271 
L 347.200078 295.376526 
L 355.159885 297.072203 
L 363.03633 301.417188 
L 368.990138 307.973506 
L 372.52863 315.030069 
L 374.471509 321.766704 
L 375.504979 328.126779 
L 375.991388 334.20915 
L 376.118273 340.101229 
L 375.990364 345.862331 
L 375.671334 351.530812 
L 375.202883 357.131332 
L 374.614044 362.679709 
L 373.926082 368.185946 
" style="fill:none;stroke:#000000;stroke-linecap:square;stroke-width:3;"/>
   </g>
   <g id="line2d_34">
    <path clip-path="url(#p607895132d)" d="M 164.362325 368.185946 
L 164.362325 295.365271 
L 376.118273 295.365271 
L 376.118273 368.185946 
L 164.362325 368.185946 
" style="fill:none;stroke:#d3d3d3;stroke-linecap:square;stroke-width:0.5;"/>
   </g>
   <g id="line2d_35">
    <path clip-path="url(#p607895132d)" d="M 587.204743 272.101989 
L 587.204743 272.101989 
L 585.039865 268.158006 
L 582.544909 264.347 
L 579.743333 260.678188 
L 576.660747 257.158351 
L 573.323552 253.79168 
L 569.757763 250.579885 
L 565.988133 247.522499 
L 562.0376 244.617292 
L 557.927007 241.860703 
L 553.675021 239.24824 
L 549.298206 236.774816 
L 544.811157 234.435018 
L 540.226687 232.223305 
L 535.55602 230.134159 
L 530.808983 228.162185 
L 525.994181 226.302177 
L 521.119162 224.549162 
L 516.190555 222.89842 
L 511.214195 221.345499 
L 506.195232 219.88621 
L 501.138219 218.516625 
L 496.047196 217.233067 
L 490.925755 216.032098 
L 485.777097 214.910508 
L 480.604086 213.865297 
L 475.409287 212.893668 
L 470.195004 211.993009 
L 464.963312 211.160882 
L 459.716084 210.395011 
L 454.455016 209.693272 
L 449.181645 209.053684 
" style="fill:none;stroke:#000000;stroke-linecap:square;stroke-width:3;"/>
   </g>
   <g id="line2d_36">
    <path clip-path="url(#p607895132d)" d="M 449.181645 272.101989 
L 449.181645 209.053684 
L 587.204743 209.053684 
L 587.204743 272.101989 
L 449.181645 272.101989 
" style="fill:none;stroke:#d3d3d3;stroke-linecap:square;stroke-width:0.5;"/>
   </g>
   <g id="line2d_37">
    <path clip-path="url(#p607895132d)" d="M 449.181645 209.053684 
L 443.897366 208.474393 
L 438.603452 207.953672 
L 433.301062 207.489907 
L 427.991259 207.081592 
L 422.675015 206.727321 
L 417.353223 206.425784 
L 412.026705 206.175759 
L 406.696221 205.976109 
L 401.362473 205.825775 
L 396.026111 205.723776 
L 390.687741 205.669201 
L 385.347929 205.661208 
L 380.007204 205.69902 
L 374.666065 205.781924 
L 369.324982 205.909268 
L 363.9844 206.080458 
L 358.644747 206.294957 
L 353.30643 206.552285 
L 347.969845 206.852015 
L 342.635375 207.193776 
L 337.303397 207.577251 
L 331.974283 208.002173 
L 326.648402 208.468334 
L 321.326126 208.975575 
L 316.007832 209.523795 
L 310.693904 210.112948 
L 305.38474 210.743047 
L 300.080753 211.414164 
L 294.782375 212.126433 
L 289.490066 212.880055 
L 284.204314 213.675298 
L 278.925646 214.512506 
" style="fill:none;stroke:#000000;stroke-linecap:square;stroke-width:3;"/>
   </g>
   <g id="line2d_38">
    <path clip-path="url(#p607895132d)" d="M 278.925646 214.512506 
L 278.925646 205.661208 
L 449.181645 205.661208 
L 449.181645 214.512506 
L 278.925646 214.512506 
" style="fill:none;stroke:#d3d3d3;stroke-linecap:square;stroke-width:0.5;"/>
   </g>
   <g id="line2d_39">
    <path clip-path="url(#p607895132d)" d="M 278.925646 214.512506 
L 273.654628 215.392101 
L 268.391883 216.314592 
L 263.138089 217.280578 
L 257.894 218.290763 
L 252.66045 219.34596 
L 247.438376 220.447107 
L 242.228832 221.595282 
L 237.033012 222.791717 
L 231.85228 224.037821 
L 226.688203 225.335203 
L 221.542598 226.685701 
L 216.417584 228.091419 
L 211.315656 229.554766 
L 206.239778 231.07851 
L 201.193512 232.665839 
L 196.181179 234.320433 
L 191.208093 236.046561 
L 186.280881 237.849179 
L 181.407934 239.734064 
L 176.600073 241.707948 
L 171.871533 243.77865 
L 167.241485 245.955154 
L 162.736434 248.247508 
L 158.394146 250.666206 
L 154.270261 253.22021 
L 150.449632 255.911359 
L 147.065299 258.719009 
L 144.32427 261.559283 
L 142.503699 264.195528 
L 141.749454 266.211922 
L 141.749454 266.211922 
" style="fill:none;stroke:#000000;stroke-linecap:square;stroke-width:3;"/>
   </g>
   <g id="line2d_40">
    <path clip-path="url(#p607895132d)" d="M 141.749454 266.211922 
L 141.749454 214.512506 
L 278.925646 214.512506 
L 278.925646 266.211922 
L 141.749454 266.211922 
" style="fill:none;stroke:#d3d3d3;stroke-linecap:square;stroke-width:0.5;"/>
   </g>
   <g id="line2d_41">
    <path clip-path="url(#p607895132d)" d="M 373.926082 368.185946 
L 373.189846 373.517814 
L 372.405046 378.841298 
L 371.573067 384.155663 
L 370.695775 389.45991 
L 369.775838 394.752576 
L 368.817271 400.031382 
L 367.82642 405.292487 
L 366.813846 410.52886 
L 365.798256 415.726243 
L 364.815621 420.851567 
L 363.943544 425.811364 
L 364.093308 424.645504 
" style="fill:none;stroke:#000000;stroke-linecap:square;stroke-width:3;"/>
   </g>
   <g id="line2d_42">
    <path clip-path="url(#p607895132d)" d="M 363.943544 425.811364 
L 363.943544 368.185946 
L 373.926082 368.185946 
L 373.926082 425.811364 
L 363.943544 425.811364 
" style="fill:none;stroke:#d3d3d3;stroke-linecap:square;stroke-width:0.5;"/>
   </g>
   <g id="line2d_43">
    <path clip-path="url(#p607895132d)" d="M 141.749454 266.211922 
L 141.749454 266.211922 
L 140.230946 272.523668 
L 138.339749 278.322653 
L 136.263826 283.788681 
L 134.128288 289.008854 
L 132.049413 294.018466 
L 130.164209 298.80699 
L 128.650163 303.301069 
L 127.712055 307.343928 
L 127.481848 310.79385 
L 127.964292 313.886923 
L 129.242632 317.149299 
L 131.349669 320.711463 
L 134.1095 324.429045 
L 137.31289 328.192113 
L 140.809021 331.954458 
L 144.501377 335.700811 
L 148.328685 339.427721 
L 152.251138 343.135809 
L 156.242137 346.826915 
L 160.283451 350.503093 
L 164.362325 354.16629 
L 164.362325 354.16629 
" style="fill:none;stroke:#000000;stroke-linecap:square;stroke-width:3;"/>
   </g>
   <g id="line2d_44">
    <path clip-path="url(#p607895132d)" d="M 127.481848 354.16629 
L 127.481848 266.211922 
L 164.362325 266.211922 
L 164.362325 354.16629 
L 127.481848 354.16629 
" style="fill:none;stroke:#d3d3d3;stroke-linecap:square;stroke-width:0.5;"/>
   </g>
   <g id="line2d_45">
    <path clip-path="url(#p607895132d)" d="M 364.093308 424.645504 
L 364.801621 424.441854 
L 370.023569 422.884788 
L 375.383514 421.34491 
L 380.815364 419.88399 
L 386.290622 418.525217 
L 391.793989 417.275962 
L 397.315997 416.136374 
L 402.850247 415.10314 
L 408.39218 414.171295 
L 413.938445 413.335166 
L 419.486537 412.588874 
L 425.034572 411.926612 
L 430.581129 411.342791 
L 436.12514 410.832124 
L 441.665813 410.389655 
L 447.202569 410.010769 
L 452.734995 409.691188 
L 458.262809 409.426957 
L 463.785833 409.214426 
L 469.303968 409.050226 
L 474.817182 408.931253 
L 480.32549 408.854644 
L 485.828948 408.817761 
L 491.327643 408.818167 
L 496.821685 408.853613 
L 502.311204 408.922021 
" style="fill:none;stroke:#000000;stroke-linecap:square;stroke-width:3;"/>
   </g>
   <g id="line2d_46">
    <path clip-path="url(#p607895132d)" d="M 364.093308 424.645504 
L 364.093308 408.817761 
L 502.311204 408.817761 
L 502.311204 424.645504 
L 364.093308 424.645504 
" style="fill:none;stroke:#d3d3d3;stroke-linecap:square;stroke-width:0.5;"/>
   </g>
   <g id="line2d_47">
    <path clip-path="url(#p607895132d)" d="M 502.311204 408.922021 
L 507.622403 408.96688 
L 512.921815 408.934753 
L 518.206686 408.820014 
L 523.473713 408.61645 
L 528.718925 408.317194 
L 533.937533 407.914654 
L 539.123744 407.400437 
L 544.270532 406.765284 
L 549.36936 405.999008 
L 554.409849 405.090463 
L 559.379376 404.027551 
L 564.262636 402.797304 
L 569.041163 401.386071 
L 573.692895 399.779865 
L 578.191877 397.964894 
L 582.508298 395.928312 
L 586.609092 393.659128 
L 590.459363 391.149099 
L 594.024717 388.393338 
L 597.274178 385.390364 
L 600.18286 382.141647 
L 602.73341 378.65129 
L 604.915904 374.926674 
L 606.726962 370.980127 
L 608.16919 366.830389 
L 609.251165 362.50239 
L 609.987293 358.025069 
L 610.396937 353.428298 
L 610.502867 348.740175 
L 610.329505 343.985359 
L 609.901405 339.184433 
L 609.242173 334.353982 
L 608.37381 329.507049 
L 607.316405 324.653706 
L 606.088057 319.801633 
L 604.704938 314.956618 
L 603.181423 310.122972 
L 601.530266 305.30387 
L 599.762772 300.501607 
L 597.888963 295.717801 
L 595.917742 290.953554 
L 593.857022 286.209566 
L 591.713859 281.486232 
L 589.494552 276.783714 
L 587.204743 272.101989 
L 587.204743 272.101989 
" style="fill:none;stroke:#000000;stroke-linecap:square;stroke-width:3;"/>
   </g>
   <g id="line2d_48">
    <path clip-path="url(#p607895132d)" d="M 502.311204 408.96688 
L 502.311204 272.101989 
L 610.502867 272.101989 
L 610.502867 408.96688 
L 502.311204 408.96688 
" style="fill:none;stroke:#d3d3d3;stroke-linecap:square;stroke-width:0.5;"/>
   </g>
   <g id="line2d_49">
    <path clip-path="url(#p607895132d)" d="M 502.311204 408.922021 
L 502.311204 408.922021 
L 502.311204 408.922021 
" style="fill:none;stroke:#000000;stroke-linecap:square;stroke-width:3;"/>
   </g>
   <g id="line2d_50">
    <path clip-path="url(#p607895132d)" d="M 502.311204 408.922021 
L 502.311204 408.922021 
L 502.311204 408.922021 
L 502.311204 408.922021 
L 502.311204 408.922021 
" style="fill:none;stroke:#d3d3d3;stroke-linecap:square;stroke-width:0.5;"/>
   </g>
   <g id="line2d_51">
    <path clip-path="url(#p607895132d)" d="M 502.311204 408.922021 
L 502.311204 408.922021 
L 502.311204 408.922021 
" style="fill:none;stroke:#000000;stroke-linecap:square;stroke-width:3;"/>
   </g>
   <g id="line2d_52">
    <path clip-path="url(#p607895132d)" d="M 502.311204 408.922021 
L 502.311204 408.922021 
L 502.311204 408.922021 
L 502.311204 408.922021 
L 502.311204 408.922021 
" style="fill:none;stroke:#d3d3d3;stroke-linecap:square;stroke-width:0.5;"/>
   </g>
   <g id="line2d_53">
    <path clip-path="url(#p607895132d)" d="M 352.677343 365.496657 
L 352.677343 365.496657 
L 352.677343 365.496657 
" style="fill:none;stroke:#000000;stroke-linecap:square;stroke-width:3;"/>
   </g>
   <g id="line2d_54">
    <path clip-path="url(#p607895132d)" d="M 352.677343 365.496657 
L 352.677343 365.496657 
L 352.677343 365.496657 
L 352.677343 365.496657 
L 352.677343 365.496657 
" style="fill:none;stroke:#d3d3d3;stroke-linecap:square;stroke-width:0.5;"/>
   </g>
   <g id="line2d_55">
    <path clip-path="url(#p607895132d)" d="M 352.677343 365.496657 
L 352.677343 365.496657 
L 352.677343 365.496657 
" style="fill:none;stroke:#000000;stroke-linecap:square;stroke-width:3;"/>
   </g>
   <g id="line2d_56">
    <path clip-path="url(#p607895132d)" d="M 352.677343 365.496657 
L 352.677343 365.496657 
L 352.677343 365.496657 
L 352.677343 365.496657 
L 352.677343 365.496657 
" style="fill:none;stroke:#d3d3d3;stroke-linecap:square;stroke-width:0.5;"/>
   </g>
   <g id="line2d_57">
    <path clip-path="url(#p607895132d)" d="M 149.881267 369.552023 
L 149.881267 369.552023 
L 156.960147 374.233343 
L 164.403039 376.795811 
L 171.532754 377.834974 
L 178.245522 377.917998 
L 184.60947 377.388246 
L 190.705498 376.440437 
L 196.596131 375.189947 
L 202.325997 373.709864 
L 207.926833 372.049519 
L 213.421675 370.244034 
L 218.827721 368.319544 
L 224.158207 366.296211 
L 229.423618 364.190074 
L 234.632493 362.014247 
L 239.791949 359.779726 
L 244.908051 357.495964 
L 249.98605 355.171298 
L 255.030567 352.813275 
L 260.045706 350.428928 
L 265.035141 348.025 
L 270.002175 345.608164 
L 274.949772 343.185224 
L 279.880572 340.763333 
L 284.796879 338.350237 
L 289.700629 335.954549 
L 294.59331 333.586104 
L 299.475825 331.256404 
L 304.348256 328.979212 
L 309.209465 326.771376 
L 314.056382 324.65398 
L 318.882757 322.654017 
L 323.67684 320.806835 
L 328.416934 319.159719 
L 333.06254 317.776893 
L 337.536238 316.745181 
L 341.687773 316.17406 
L 345.240009 316.16335 
L 347.825346 316.685552 
L 349.488203 317.589319 
L 350.961607 319.254882 
L 352.393963 322.170621 
L 353.500026 326.049427 
L 354.212709 330.466604 
L 354.587058 335.175549 
L 354.691023 340.053471 
L 354.579801 345.037291 
L 354.295 350.091848 
L 353.867905 355.195617 
L 353.322444 360.334108 
L 352.677343 365.496657 
" style="fill:none;stroke:#000000;stroke-linecap:square;stroke-width:3;"/>
   </g>
   <g id="line2d_58">
    <path clip-path="url(#p607895132d)" d="M 149.881267 377.917998 
L 149.881267 316.16335 
L 354.691023 316.16335 
L 354.691023 377.917998 
L 149.881267 377.917998 
" style="fill:none;stroke:#d3d3d3;stroke-linecap:square;stroke-width:0.5;"/>
   </g>
   <g id="line2d_59">
    <path clip-path="url(#p607895132d)" d="M 606.487822 263.000065 
L 606.487822 263.000065 
L 603.526546 257.60375 
L 600.175814 252.484193 
L 596.488351 247.654061 
L 592.514128 243.115096 
L 588.298103 238.860999 
L 583.879285 234.880188 
L 579.290721 231.158061 
L 574.55998 227.678662 
L 569.709873 224.425809 
L 564.759206 221.383796 
L 559.723479 218.53779 
L 554.6155 215.874028 
L 549.44589 213.37988 
L 544.223503 211.043839 
L 538.955759 208.855461 
L 533.648912 206.805292 
L 528.308267 204.884776 
L 522.938349 203.086171 
L 517.543036 201.402465 
L 512.125676 199.827301 
L 506.689171 198.354905 
L 501.236048 196.980025 
L 495.768518 195.697874 
L 490.288526 194.504084 
L 484.797785 193.394658 
L 479.297816 192.365934 
L 473.789966 191.414553 
L 468.275439 190.537426 
L 462.755308 189.731712 
L 457.230537 188.994791 
L 451.701989 188.324244 
" style="fill:none;stroke:#000000;stroke-linecap:square;stroke-width:3;"/>
   </g>
   <g id="line2d_60">
    <path clip-path="url(#p607895132d)" d="M 451.701989 263.000065 
L 451.701989 188.324244 
L 606.487822 188.324244 
L 606.487822 263.000065 
L 451.701989 263.000065 
" style="fill:none;stroke:#d3d3d3;stroke-linecap:square;stroke-width:0.5;"/>
   </g>
   <g id="line2d_61">
    <path clip-path="url(#p607895132d)" d="M 451.701989 188.324244 
L 446.170443 187.717839 
L 440.6366 187.173511 
L 435.101095 186.689351 
L 429.5645 186.26359 
L 424.027336 185.894592 
L 418.490075 185.580842 
L 412.953145 185.320936 
L 407.416937 185.113577 
L 401.881808 184.957564 
L 396.348083 184.85179 
L 390.816059 184.795232 
L 385.286011 184.786952 
L 379.75819 184.826087 
L 374.232827 184.911849 
L 368.710136 185.043521 
L 363.190319 185.220455 
L 357.673559 185.442067 
L 352.160034 185.707839 
L 346.649908 186.017315 
L 341.143339 186.370101 
L 335.640478 186.765865 
L 330.141473 187.204334 
L 324.646466 187.685297 
L 319.1556 188.208605 
L 313.669018 188.774173 
L 308.186863 189.381977 
L 302.709283 190.032065 
L 297.236429 190.724549 
L 291.768461 191.459617 
L 286.305545 192.237534 
L 280.847859 193.058645 
L 275.395594 193.923388 
" style="fill:none;stroke:#000000;stroke-linecap:square;stroke-width:3;"/>
   </g>
   <g id="line2d_62">
    <path clip-path="url(#p607895132d)" d="M 275.395594 193.923388 
L 275.395594 184.786952 
L 451.701989 184.786952 
L 451.701989 193.923388 
L 275.395594 193.923388 
" style="fill:none;stroke:#d3d3d3;stroke-linecap:square;stroke-width:0.5;"/>
   </g>
   <g id="line2d_63">
    <path clip-path="url(#p607895132d)" d="M 275.395594 193.923388 
L 269.948954 194.832292 
L 264.508162 195.785994 
L 259.07346 196.785245 
L 253.645114 197.830926 
L 248.223418 198.924061 
L 242.808694 200.065835 
L 237.401303 201.25762 
L 232.001646 202.500998 
L 226.610171 203.797799 
L 221.227382 205.150137 
L 215.85385 206.560466 
L 210.490219 208.031646 
L 205.137227 209.56702 
L 199.795718 211.170525 
L 194.466666 212.84683 
L 189.151207 214.601521 
L 183.85067 216.441348 
L 178.566633 218.37457 
L 173.300991 220.411434 
L 168.056056 222.564879 
L 162.834704 224.851567 
L 157.640619 227.293491 
L 152.4787 229.92054 
L 147.355851 232.774816 
L 142.282677 235.918268 
L 137.277662 239.446951 
L 132.37913 243.518909 
L 127.684383 248.407903 
L 123.486964 254.576471 
L 120.659788 262.520845 
L 120.659788 262.520845 
" style="fill:none;stroke:#000000;stroke-linecap:square;stroke-width:3;"/>
   </g>
   <g id="line2d_64">
    <path clip-path="url(#p607895132d)" d="M 120.659788 262.520845 
L 120.659788 193.923388 
L 275.395594 193.923388 
L 275.395594 262.520845 
L 120.659788 262.520845 
" style="fill:none;stroke:#d3d3d3;stroke-linecap:square;stroke-width:0.5;"/>
   </g>
   <g id="line2d_65">
    <path clip-path="url(#p607895132d)" d="M 120.659788 262.520845 
L 120.659788 262.520845 
L 119.612566 266.842205 
L 118.105225 271.455213 
L 116.288041 276.236486 
L 114.270621 281.166596 
L 112.14618 286.286613 
L 110.018148 291.697001 
L 108.044631 297.57554 
L 106.533643 304.171542 
L 106.070479 311.598783 
L 107.269693 319.299002 
L 109.965787 326.263748 
L 113.440972 332.17255 
L 117.231038 337.288657 
L 121.158935 341.906431 
L 125.162334 346.216021 
L 129.215482 350.328996 
L 133.304799 354.311291 
L 137.421559 358.203185 
L 141.559499 362.030252 
L 145.713924 365.809354 
L 149.881267 369.552023 
L 149.881267 369.552023 
" style="fill:none;stroke:#000000;stroke-linecap:square;stroke-width:3;"/>
   </g>
   <g id="line2d_66">
    <path clip-path="url(#p607895132d)" d="M 106.070479 369.552023 
L 106.070479 262.520845 
L 149.881267 262.520845 
L 149.881267 369.552023 
L 106.070479 369.552023 
" style="fill:none;stroke:#d3d3d3;stroke-linecap:square;stroke-width:0.5;"/>
   </g>
   <g id="line2d_67">
    <path clip-path="url(#p607895132d)" d="M 501.973598 429.793773 
L 507.592317 429.841203 
L 513.222866 429.807035 
L 518.865253 429.684495 
L 524.519345 429.465923 
L 530.18482 429.142631 
L 535.86108 428.704716 
L 541.547155 428.140844 
L 547.241544 427.437995 
L 552.94201 426.581152 
L 558.645271 425.552948 
L 564.346581 424.333267 
L 570.03911 422.898809 
L 575.713087 421.222692 
L 581.354588 419.274154 
L 586.943884 417.018581 
L 592.453302 414.418145 
L 597.844674 411.433585 
L 603.06681 408.027734 
L 608.05398 404.17134 
L 612.727111 399.851029 
L 616.999614 395.077757 
L 620.788509 389.892269 
L 624.028534 384.363627 
L 626.683885 378.579501 
L 628.752424 372.631539 
L 630.261197 366.601879 
L 631.25661 360.55527 
L 631.793977 354.537397 
L 631.929521 348.577324 
L 631.71561 342.69151 
L 631.198622 336.887737 
L 630.41847 331.168223 
L 629.408993 325.531851 
L 628.1987 319.975632 
L 626.811582 314.495635 
L 625.267874 309.087551 
L 623.584716 303.747022 
L 621.776698 298.46982 
L 619.856313 293.251942 
L 617.834316 288.089651 
L 615.720022 282.979489 
L 613.521544 277.918268 
L 611.245977 272.903052 
L 608.899565 267.931146 
L 606.487822 263.000065 
L 606.487822 263.000065 
" style="fill:none;stroke:#000000;stroke-linecap:square;stroke-width:3;"/>
   </g>
   <g id="line2d_68">
    <path clip-path="url(#p607895132d)" d="M 501.973598 429.841203 
L 501.973598 263.000065 
L 631.929521 263.000065 
L 631.929521 429.841203 
L 501.973598 429.841203 
" style="fill:none;stroke:#d3d3d3;stroke-linecap:square;stroke-width:0.5;"/>
   </g>
   <g id="line2d_69">
    <path clip-path="url(#p607895132d)" d="M 352.677343 365.496657 
L 351.966873 370.641904 
L 351.208951 375.783047 
L 350.404657 380.920539 
L 349.555383 386.055349 
L 348.66303 391.18927 
L 347.730343 396.325487 
L 346.761499 401.469657 
L 345.763195 406.632146 
L 344.746891 411.833192 
L 343.734092 417.116632 
L 342.772065 422.595359 
L 342.008442 428.667958 
L 342.898049 438.036907 
L 358.103258 447.356172 
L 365.564082 445.982282 
L 371.079215 444.400254 
L 376.227574 442.865015 
L 381.279443 441.413473 
L 386.315922 440.058813 
L 391.36686 438.805326 
L 396.443613 437.652925 
L 401.549781 436.599182 
L 406.68546 435.640391 
L 411.849133 434.772181 
L 417.038587 433.989874 
L 422.251373 433.288713 
L 427.485046 432.664 
L 432.737278 432.111182 
L 438.005921 431.625899 
L 443.289022 431.204016 
L 448.584827 430.841633 
L 453.891774 430.535089 
L 459.208476 430.280961 
L 464.533711 430.07605 
L 469.866401 429.917376 
L 475.2056 429.802166 
L 480.550479 429.727836 
L 485.900313 429.691988 
L 491.254467 429.692388 
L 496.612389 429.72696 
L 501.973598 429.793773 
" style="fill:none;stroke:#000000;stroke-linecap:square;stroke-width:3;"/>
   </g>
   <g id="line2d_70">
    <path clip-path="url(#p607895132d)" d="M 342.008442 447.356172 
L 342.008442 365.496657 
L 501.973598 365.496657 
L 501.973598 447.356172 
L 342.008442 447.356172 
" style="fill:none;stroke:#d3d3d3;stroke-linecap:square;stroke-width:0.5;"/>
   </g>
   <g id="line2d_71">
    <path clip-path="url(#p607895132d)" d="M 501.973598 429.793773 
L 501.973598 429.793773 
L 501.973598 429.793773 
" style="fill:none;stroke:#000000;stroke-linecap:square;stroke-width:3;"/>
   </g>
   <g id="line2d_72">
    <path clip-path="url(#p607895132d)" d="M 501.973598 429.793773 
L 501.973598 429.793773 
L 501.973598 429.793773 
L 501.973598 429.793773 
L 501.973598 429.793773 
" style="fill:none;stroke:#d3d3d3;stroke-linecap:square;stroke-width:0.5;"/>
   </g>
   <g id="line2d_73">
    <path clip-path="url(#p607895132d)" d="M 501.973598 429.793773 
L 501.973598 429.793773 
L 501.973598 429.793773 
" style="fill:none;stroke:#000000;stroke-linecap:square;stroke-width:3;"/>
   </g>
   <g id="line2d_74">
    <path clip-path="url(#p607895132d)" d="M 501.973598 429.793773 
L 501.973598 429.793773 
L 501.973598 429.793773 
L 501.973598 429.793773 
L 501.973598 429.793773 
" style="fill:none;stroke:#d3d3d3;stroke-linecap:square;stroke-width:0.5;"/>
   </g>
   <g id="line2d_75">
    <path clip-path="url(#p607895132d)" d="M 450.441817 183.033206 
L 452.496864 183.16174 
L 454.518168 183.54523 
L 456.472538 184.17738 
L 458.327883 185.04781 
L 460.05374 186.142227 
L 461.621769 187.442661 
L 463.006224 188.927759 
L 464.184371 190.573135 
L 465.136866 192.351774 
L 465.848069 194.234469 
L 466.306301 196.190306 
L 466.504039 198.187172 
L 466.438036 200.192277 
L 466.109376 202.172697 
L 465.523454 204.095915 
L 464.689893 205.930351 
L 463.622378 207.645883 
L 462.338439 209.214343 
L 460.859158 210.609977 
L 459.208824 211.809867 
L 457.414537 212.794313 
L 455.505757 213.54715 
L 453.513828 214.056015 
L 451.471456 214.312554 
L 449.412178 214.312554 
L 447.369806 214.056015 
L 445.377877 213.54715 
L 443.469097 212.794313 
L 441.67481 211.809867 
L 440.024476 210.609977 
L 438.545195 209.214343 
L 437.261256 207.645883 
L 436.193741 205.930351 
L 435.36018 204.095915 
L 434.774258 202.172697 
L 434.445598 200.192277 
L 434.379594 198.187172 
L 434.577333 196.190306 
L 435.035565 194.234469 
L 435.746768 192.351774 
L 436.699263 190.573135 
L 437.87741 188.927759 
L 439.261865 187.442661 
L 440.829894 186.142227 
L 442.555751 185.04781 
L 444.411096 184.17738 
L 446.365466 183.54523 
L 448.38677 183.16174 
L 450.441817 183.033206 
" style="fill:none;stroke:#808080;stroke-linecap:square;stroke-width:1.5;"/>
   </g>
   <g id="line2d_76">
    <path clip-path="url(#p607895132d)" d="M 282.526087 187.711214 
L 284.581134 187.839748 
L 286.602437 188.223238 
L 288.556807 188.855388 
L 290.412153 189.725818 
L 292.13801 190.820235 
L 293.706039 192.120669 
L 295.090493 193.605767 
L 296.268641 195.251143 
L 297.221136 197.029782 
L 297.932339 198.912477 
L 298.390571 200.868314 
L 298.588309 202.86518 
L 298.522306 204.870285 
L 298.193645 206.850705 
L 297.607724 208.773923 
L 296.774162 210.608359 
L 295.706648 212.323891 
L 294.422709 213.892351 
L 292.943428 215.287985 
L 291.293094 216.487875 
L 289.498806 217.472321 
L 287.590027 218.225158 
L 285.598097 218.734023 
L 283.555726 218.990562 
L 281.496448 218.990562 
L 279.454076 218.734023 
L 277.462147 218.225158 
L 275.553367 217.472321 
L 273.759079 216.487875 
L 272.108746 215.287985 
L 270.629465 213.892351 
L 269.345526 212.323891 
L 268.278011 210.608359 
L 267.444449 208.773923 
L 266.858528 206.850705 
L 266.529867 204.870285 
L 266.463864 202.86518 
L 266.661602 200.868314 
L 267.119835 198.912477 
L 267.831038 197.029782 
L 268.783533 195.251143 
L 269.96168 193.605767 
L 271.346135 192.120669 
L 272.914164 190.820235 
L 274.64002 189.725818 
L 276.495366 188.855388 
L 278.449736 188.223238 
L 280.471039 187.839748 
L 282.526087 187.711214 
" style="fill:none;stroke:#808080;stroke-linecap:square;stroke-width:1.5;"/>
   </g>
   <g id="line2d_77">
    <path clip-path="url(#p607895132d)" d="M 131.204621 248.710626 
L 133.259668 248.83916 
L 135.280972 249.22265 
L 137.235341 249.8548 
L 139.090687 250.72523 
L 140.816544 251.819647 
L 142.384573 253.120081 
L 143.769027 254.605179 
L 144.947175 256.250555 
L 145.89967 258.029194 
L 146.610873 259.911889 
L 147.069105 261.867726 
L 147.266843 263.864592 
L 147.20084 265.869697 
L 146.87218 267.850117 
L 146.286258 269.773335 
L 145.452697 271.607771 
L 144.385182 273.323303 
L 143.101243 274.891763 
L 141.621962 276.287397 
L 139.971628 277.487287 
L 138.17734 278.471733 
L 136.268561 279.22457 
L 134.276632 279.733435 
L 132.23426 279.989974 
L 130.174982 279.989974 
L 128.13261 279.733435 
L 126.140681 279.22457 
L 124.231901 278.471733 
L 122.437614 277.487287 
L 120.78728 276.287397 
L 119.307999 274.891763 
L 118.02406 273.323303 
L 116.956545 271.607771 
L 116.122984 269.773335 
L 115.537062 267.850117 
L 115.208401 265.869697 
L 115.142398 263.864592 
L 115.340137 261.867726 
L 115.798369 259.911889 
L 116.509572 258.029194 
L 117.462067 256.250555 
L 118.640214 254.605179 
L 120.024669 253.120081 
L 121.592698 251.819647 
L 123.318555 250.72523 
L 125.1739 249.8548 
L 127.12827 249.22265 
L 129.149574 248.83916 
L 131.204621 248.710626 
" style="fill:none;stroke:#808080;stroke-linecap:square;stroke-width:1.5;"/>
   </g>
   <g id="line2d_78">
    <path clip-path="url(#p607895132d)" d="M 131.204621 248.710626 
L 133.259668 248.83916 
L 135.280972 249.22265 
L 137.235341 249.8548 
L 139.090687 250.72523 
L 140.816544 251.819647 
L 142.384573 253.120081 
L 143.769027 254.605179 
L 144.947175 256.250555 
L 145.89967 258.029194 
L 146.610873 259.911889 
L 147.069105 261.867726 
L 147.266843 263.864592 
L 147.20084 265.869697 
L 146.87218 267.850117 
L 146.286258 269.773335 
L 145.452697 271.607771 
L 144.385182 273.323303 
L 143.101243 274.891763 
L 141.621962 276.287397 
L 139.971628 277.487287 
L 138.17734 278.471733 
L 136.268561 279.22457 
L 134.276632 279.733435 
L 132.23426 279.989974 
L 130.174982 279.989974 
L 128.13261 279.733435 
L 126.140681 279.22457 
L 124.231901 278.471733 
L 122.437614 277.487287 
L 120.78728 276.287397 
L 119.307999 274.891763 
L 118.02406 273.323303 
L 116.956545 271.607771 
L 116.122984 269.773335 
L 115.537062 267.850117 
L 115.208401 265.869697 
L 115.142398 263.864592 
L 115.340137 261.867726 
L 115.798369 259.911889 
L 116.509572 258.029194 
L 117.462067 256.250555 
L 118.640214 254.605179 
L 120.024669 253.120081 
L 121.592698 251.819647 
L 123.318555 250.72523 
L 125.1739 249.8548 
L 127.12827 249.22265 
L 129.149574 248.83916 
L 131.204621 248.710626 
" style="fill:none;stroke:#808080;stroke-linecap:square;stroke-width:1.5;"/>
   </g>
   <g id="line2d_79">
    <path clip-path="url(#p607895132d)" d="M 157.121796 346.203399 
L 159.176843 346.331933 
L 161.198147 346.715423 
L 163.152517 347.347573 
L 165.007862 348.218003 
L 166.733719 349.31242 
L 168.301748 350.612854 
L 169.686203 352.097952 
L 170.86435 353.743328 
L 171.816845 355.521967 
L 172.528048 357.404662 
L 172.986281 359.360499 
L 173.184019 361.357365 
L 173.118016 363.36247 
L 172.789355 365.34289 
L 172.203433 367.266108 
L 171.369872 369.100544 
L 170.302357 370.816076 
L 169.018418 372.384536 
L 167.539137 373.78017 
L 165.888803 374.98006 
L 164.094516 375.964506 
L 162.185736 376.717343 
L 160.193807 377.226208 
L 158.151435 377.482747 
L 156.092157 377.482747 
L 154.049785 377.226208 
L 152.057856 376.717343 
L 150.149077 375.964506 
L 148.354789 374.98006 
L 146.704455 373.78017 
L 145.225174 372.384536 
L 143.941235 370.816076 
L 142.87372 369.100544 
L 142.040159 367.266108 
L 141.454237 365.34289 
L 141.125577 363.36247 
L 141.059574 361.357365 
L 141.257312 359.360499 
L 141.715544 357.404662 
L 142.426747 355.521967 
L 143.379242 353.743328 
L 144.55739 352.097952 
L 145.941844 350.612854 
L 147.509873 349.31242 
L 149.23573 348.218003 
L 151.091076 347.347573 
L 153.045445 346.715423 
L 155.066749 346.331933 
L 157.121796 346.203399 
" style="fill:none;stroke:#808080;stroke-linecap:square;stroke-width:1.5;"/>
   </g>
   <g id="line2d_80">
    <path clip-path="url(#p607895132d)" d="M 363.301713 351.185544 
L 365.35676 351.314077 
L 367.378064 351.697568 
L 369.332434 352.329717 
L 371.187779 353.200147 
L 372.913636 354.294564 
L 374.481665 355.594998 
L 375.86612 357.080096 
L 377.044267 358.725473 
L 377.996762 360.504111 
L 378.707965 362.386806 
L 379.166197 364.342644 
L 379.363935 366.339509 
L 379.297932 368.344614 
L 378.969272 370.325035 
L 378.38335 372.248252 
L 377.549789 374.082688 
L 376.482274 375.798221 
L 375.198335 377.366681 
L 373.719054 378.762314 
L 372.06872 379.962205 
L 370.274433 380.946651 
L 368.365653 381.699487 
L 366.373724 382.208353 
L 364.331352 382.464892 
L 362.272074 382.464892 
L 360.229702 382.208353 
L 358.237773 381.699487 
L 356.328993 380.946651 
L 354.534706 379.962205 
L 352.884372 378.762314 
L 351.405091 377.366681 
L 350.121152 375.798221 
L 349.053637 374.082688 
L 348.220076 372.248252 
L 347.634154 370.325035 
L 347.305494 368.344614 
L 347.23949 366.339509 
L 347.437229 364.342644 
L 347.895461 362.386806 
L 348.606664 360.504111 
L 349.559159 358.725473 
L 350.737306 357.080096 
L 352.121761 355.594998 
L 353.68979 354.294564 
L 355.415647 353.200147 
L 357.270992 352.329717 
L 359.225362 351.697568 
L 361.246666 351.314077 
L 363.301713 351.185544 
" style="fill:none;stroke:#808080;stroke-linecap:square;stroke-width:1.5;"/>
   </g>
   <g id="line2d_81">
    <path clip-path="url(#p607895132d)" d="M 502.142401 403.70214 
L 504.197448 403.830674 
L 506.218752 404.214164 
L 508.173122 404.846314 
L 510.028467 405.716743 
L 511.754324 406.81116 
L 513.322353 408.111594 
L 514.706808 409.596692 
L 515.884955 411.242069 
L 516.83745 413.020707 
L 517.548653 414.903402 
L 518.006885 416.85924 
L 518.204624 418.856105 
L 518.13862 420.86121 
L 517.80996 422.841631 
L 517.224038 424.764849 
L 516.390477 426.599284 
L 515.322962 428.314817 
L 514.039023 429.883277 
L 512.559742 431.27891 
L 510.909408 432.478801 
L 509.115121 433.463247 
L 507.206341 434.216084 
L 505.214412 434.724949 
L 503.17204 434.981488 
L 501.112762 434.981488 
L 499.07039 434.724949 
L 497.078461 434.216084 
L 495.169681 433.463247 
L 493.375394 432.478801 
L 491.72506 431.27891 
L 490.245779 429.883277 
L 488.96184 428.314817 
L 487.894325 426.599284 
L 487.060764 424.764849 
L 486.474842 422.841631 
L 486.146182 420.86121 
L 486.080179 418.856105 
L 486.277917 416.85924 
L 486.736149 414.903402 
L 487.447352 413.020707 
L 488.399847 411.242069 
L 489.577994 409.596692 
L 490.962449 408.111594 
L 492.530478 406.81116 
L 494.256335 405.716743 
L 496.11168 404.846314 
L 498.06605 404.214164 
L 500.087354 403.830674 
L 502.142401 403.70214 
" style="fill:none;stroke:#808080;stroke-linecap:square;stroke-width:1.5;"/>
   </g>
   <g id="line2d_82">
    <path clip-path="url(#p607895132d)" d="M 596.846283 251.89527 
L 598.90133 252.023803 
L 600.922634 252.407294 
L 602.877003 253.039443 
L 604.732349 253.909873 
L 606.458206 255.00429 
L 608.026235 256.304724 
L 609.410689 257.789822 
L 610.588837 259.435199 
L 611.541332 261.213837 
L 612.252535 263.096532 
L 612.710767 265.05237 
L 612.908505 267.049235 
L 612.842502 269.05434 
L 612.513842 271.034761 
L 611.92792 272.957978 
L 611.094359 274.792414 
L 610.026844 276.507947 
L 608.742905 278.076407 
L 607.263624 279.47204 
L 605.61329 280.671931 
L 603.819002 281.656377 
L 601.910223 282.409213 
L 599.918294 282.918079 
L 597.875922 283.174618 
L 595.816644 283.174618 
L 593.774272 282.918079 
L 591.782343 282.409213 
L 589.873563 281.656377 
L 588.079276 280.671931 
L 586.428942 279.47204 
L 584.949661 278.076407 
L 583.665722 276.507947 
L 582.598207 274.792414 
L 581.764646 272.957978 
L 581.178724 271.034761 
L 580.850063 269.05434 
L 580.78406 267.049235 
L 580.981798 265.05237 
L 581.440031 263.096532 
L 582.151234 261.213837 
L 583.103729 259.435199 
L 584.281876 257.789822 
L 585.666331 256.304724 
L 587.23436 255.00429 
L 588.960217 253.909873 
L 590.815562 253.039443 
L 592.769932 252.407294 
L 594.791236 252.023803 
L 596.846283 251.89527 
" style="fill:none;stroke:#808080;stroke-linecap:square;stroke-width:1.5;"/>
   </g>
   <g id="line2d_83"/>
   <g id="line2d_84"/>
   <g id="line2d_85"/>
   <g id="line2d_86"/>
   <g id="line2d_87"/>
   <g id="line2d_88"/>
   <g id="line2d_89"/>
   <g id="line2d_90"/>
   <g id="line2d_91"/>
   <g id="line2d_92"/>
   <g id="line2d_93"/>
   <g id="line2d_94"/>
   <g id="line2d_95"/>
   <g id="line2d_96"/>
   <g id="line2d_97"/>
   <g id="line2d_98"/>
   <g id="line2d_99"/>
   <g id="line2d_100"/>
   <g id="line2d_101"/>
   <g id="line2d_102"/>
   <g id="line2d_103"/>
   <g id="line2d_104"/>
   <g id="line2d_105"/>
   <g id="line2d_106"/>
   <g id="line2d_107"/>
   <g id="line2d_108"/>
   <g id="line2d_109"/>
   <g id="line2d_110"/>
   <g id="line2d_111"/>
   <g id="line2d_112"/>
   <g id="line2d_113"/>
   <g id="line2d_114"/>
   <g id="line2d_115"/>
   <g id="line2d_116"/>
   <g id="line2d_117"/>
   <g id="line2d_118"/>
   <g id="line2d_119"/>
   <g id="line2d_120"/>
   <g id="line2d_121"/>
   <g id="line2d_122"/>
   <g id="line2d_123"/>
   <g id="line2d_124"/>
   <g id="line2d_125"/>
   <g id="line2d_126"/>
   <g id="line2d_127"/>
   <g id="line2d_128"/>
   <g id="line2d_129"/>
   <g id="line2d_130"/>
   <g id="line2d_131"/>
   <g id="line2d_132"/>
   <g id="line2d_133"/>
   <g id="patch_3">
    <path d="M 90 630 
L 90 86.4 
" style="fill:none;stroke:#000000;stroke-linecap:square;stroke-linejoin:miter;stroke-width:0.8;"/>
   </g>
   <g id="patch_4">
    <path d="M 648 630 
L 648 86.4 
" style="fill:none;stroke:#000000;stroke-linecap:square;stroke-linejoin:miter;stroke-width:0.8;"/>
   </g>
   <g id="patch_5">
    <path d="M 90 630 
L 648 630 
" style="fill:none;stroke:#000000;stroke-linecap:square;stroke-linejoin:miter;stroke-width:0.8;"/>
   </g>
   <g id="patch_6">
    <path d="M 90 86.4 
L 648 86.4 
" style="fill:none;stroke:#000000;stroke-linecap:square;stroke-linejoin:miter;stroke-width:0.8;"/>
   </g>
   <g id="text_13">
    <!-- 0 -->
    <g transform="translate(-9.336502 518.02955)scale(0.1 -0.1)">
     <use xlink:href="#DejaVuSans-30"/>
    </g>
   </g>
   <g id="text_14">
    <!-- 0 -->
    <g transform="translate(-9.336502 502.373793)scale(0.1 -0.1)">
     <use xlink:href="#DejaVuSans-30"/>
    </g>
   </g>
   <g id="text_15">
    <!-- 0 -->
    <g transform="translate(-9.336502 486.718036)scale(0.1 -0.1)">
     <use xlink:href="#DejaVuSans-30"/>
    </g>
   </g>
  </g>
 </g>
 <defs>
  <clipPath id="p607895132d">
   <rect height="543.6" width="558" x="90" y="86.4"/>
  </clipPath>
 </defs>
</svg>
