<?xml version="1.0" encoding="utf-8" standalone="no"?>
<!DOCTYPE svg PUBLIC "-//W3C//DTD SVG 1.1//EN"
  "http://www.w3.org/Graphics/SVG/1.1/DTD/svg11.dtd">
<svg height="720pt" version="1.1" viewBox="0 0 720 720" width="720pt" xmlns="http://www.w3.org/2000/svg" xmlns:xlink="http://www.w3.org/1999/xlink">
 <metadata>
  <rdf:RDF xmlns:cc="http://creativecommons.org/ns#" xmlns:dc="http://purl.org/dc/elements/1.1/" xmlns:rdf="http://www.w3.org/1999/02/22-rdf-syntax-ns#">
   <cc:Work>
    <dc:type rdf:resource="http://purl.org/dc/dcmitype/StillImage"/>
    <dc:date>2022-01-11T13:26:02.667612</dc:date>
    <dc:format>image/svg+xml</dc:format>
    <dc:creator>
     <cc:Agent>
      <dc:title>Matplotlib v3.4.3, https://matplotlib.org/</dc:title>
     </cc:Agent>
    </dc:creator>
   </cc:Work>
  </rdf:RDF>
 </metadata>
 <defs>
  <style type="text/css">*{stroke-linecap:butt;stroke-linejoin:round;}</style>
 </defs>
 <g id="figure_1">
  <g id="patch_1">
   <path d="M 0 720 
L 720 720 
L 720 0 
L 0 0 
z
" style="fill:none;"/>
  </g>
  <g id="axes_1">
   <g id="patch_2">
    <path d="M 90 630 
L 648 630 
L 648 86.4 
L 90 86.4 
z
" style="fill:#ffffff;"/>
   </g>
   <g id="PathCollection_1">
    <defs>
     <path d="M 0.972304 -8.870829 
Q -1.277159 -8.870829 -2.413438 -6.653699 
Q -3.545098 -4.441189 -3.545098 0.006929 
Q -3.545098 4.436569 -2.413438 6.653699 
Q -1.277159 8.870829 0.972304 8.870829 
Q 3.240243 8.870829 4.371903 6.653699 
Q 5.508182 4.436569 5.508182 0.006929 
Q 5.508182 -4.441189 4.371903 -6.653699 
Q 3.240243 -8.870829 0.972304 -8.870829 
z
M 0.972304 -11.18034 
Q 4.598235 -11.18034 6.51051 -8.311928 
Q 8.422784 -5.448135 8.422784 0.006929 
Q 8.422784 5.448135 6.51051 8.316547 
Q 4.598235 11.18034 0.972304 11.18034 
Q -2.649008 11.18034 -4.561283 8.316547 
Q -6.473558 5.448135 -6.473558 0.006929 
Q -6.473558 -5.448135 -4.561283 -8.311928 
Q -2.649008 -11.18034 0.972304 -11.18034 
z
" id="m75e4c52491" style="stroke:#808080;"/>
    </defs>
    <g clip-path="url(#peb114e20f6)">
     <use style="fill:#808080;stroke:#808080;" x="263.944316" xlink:href="#m75e4c52491" y="350.132003"/>
    </g>
   </g>
   <g id="PathCollection_2">
    <defs>
     <path d="M -4.535873 8.63565 
L 0.404946 8.63565 
L 0.404946 -8.424791 
L -4.971969 -7.346533 
L -4.971969 -10.102082 
L 0.376192 -11.18034 
L 3.400108 -11.18034 
L 3.400108 8.63565 
L 8.340927 8.63565 
L 8.340927 11.18034 
L -4.535873 11.18034 
L -4.535873 8.63565 
z
" id="mc3dcd318c5" style="stroke:#808080;"/>
    </defs>
    <g clip-path="url(#peb114e20f6)">
     <use style="fill:#808080;stroke:#808080;" x="228.474133" xlink:href="#mc3dcd318c5" y="482.034592"/>
    </g>
   </g>
   <g id="PathCollection_3">
    <defs>
     <path d="M -2.294912 8.680651 
L 8.075736 8.680651 
L 8.075736 11.18034 
L -5.867913 11.18034 
L -5.867913 8.680651 
Q -4.177916 6.929457 -1.259259 3.982555 
Q 1.664105 1.030945 2.4126 0.174178 
Q 3.838976 -1.426376 4.403877 -2.537349 
Q 4.973486 -3.648321 4.973486 -4.721634 
Q 4.973486 -6.472828 3.744825 -7.574386 
Q 2.516165 -8.680651 0.543718 -8.680651 
Q -0.854413 -8.680651 -2.407892 -8.195778 
Q -3.956663 -7.710904 -5.72198 -6.722326 
L -5.72198 -9.725719 
Q -3.928418 -10.445968 -2.370232 -10.813154 
Q -0.807338 -11.18034 0.487227 -11.18034 
Q 3.900173 -11.18034 5.929111 -9.471513 
Q 7.958048 -7.767394 7.958048 -4.914642 
Q 7.958048 -3.558879 7.449637 -2.344341 
Q 6.945933 -1.13451 5.604292 0.513119 
Q 5.237107 0.941502 3.264659 2.979855 
Q 1.296919 5.018207 -2.294912 8.680651 
z
" id="m958bb7f2af" style="stroke:#808080;"/>
    </defs>
    <g clip-path="url(#peb114e20f6)">
     <use style="fill:#808080;stroke:#808080;" x="303.77902" xlink:href="#m958bb7f2af" y="590.559153"/>
    </g>
   </g>
   <g id="PathCollection_4">
    <defs>
     <path d="M 3.77605 -0.861447 
Q 5.868466 -0.413402 7.041697 1.004637 
Q 8.219548 2.418057 8.219548 4.496617 
Q 8.219548 7.683741 6.025513 9.43435 
Q 3.831478 11.18034 -0.210165 11.18034 
Q -1.563539 11.18034 -3.000054 10.912437 
Q -4.436569 10.644533 -5.965465 10.108727 
L -5.965465 7.295743 
Q -4.755282 8.002454 -3.314147 8.362737 
Q -1.868394 8.723021 -0.293308 8.723021 
Q 2.445772 8.723021 3.882287 7.64217 
Q 5.318802 6.561319 5.318802 4.496617 
Q 5.318802 2.588961 3.983905 1.517348 
Q 2.649008 0.441116 0.270213 0.441116 
L -2.242535 0.441116 
L -2.242535 -1.956155 
L 0.385688 -1.956155 
Q 2.533533 -1.956155 3.674431 -2.815293 
Q 4.815329 -3.674431 4.815329 -5.291088 
Q 4.815329 -6.949317 3.637479 -7.836169 
Q 2.464248 -8.72764 0.270213 -8.72764 
Q -0.930733 -8.72764 -2.302582 -8.464356 
Q -3.674431 -8.20569 -5.318802 -7.660646 
L -5.318802 -10.256536 
Q -3.655955 -10.718438 -2.205582 -10.949389 
Q -0.75521 -11.18034 0.528878 -11.18034 
Q 3.849954 -11.18034 5.780705 -9.66992 
Q 7.716074 -8.164119 7.716074 -5.595944 
Q 7.716074 -3.803764 6.690652 -2.570485 
Q 5.665229 -1.337207 3.77605 -0.861447 
z
" id="ma8e00cb21f" style="stroke:#808080;"/>
    </defs>
    <g clip-path="url(#peb114e20f6)">
     <use style="fill:#808080;stroke:#808080;" x="395.253999" xlink:href="#ma8e00cb21f" y="509.874647"/>
    </g>
   </g>
   <g id="PathCollection_5">
    <defs>
     <path d="M 2.695646 -8.544598 
L -4.943215 3.392919 
L 2.695646 3.392919 
L 2.695646 -8.544598 
z
M 1.900131 -11.18034 
L 5.705184 -11.18034 
L 5.705184 3.392919 
L 8.896829 3.392919 
L 8.896829 5.908855 
L 5.705184 5.908855 
L 5.705184 11.18034 
L 2.695646 11.18034 
L 2.695646 5.908855 
L -7.396852 5.908855 
L -7.396852 2.99037 
L 1.900131 -11.18034 
z
" id="mbe7b33fec8" style="stroke:#808080;"/>
    </defs>
    <g clip-path="url(#peb114e20f6)">
     <use style="fill:#808080;stroke:#808080;" x="504.133515" xlink:href="#mbe7b33fec8" y="428.251739"/>
    </g>
   </g>
   <g id="PathCollection_6">
    <defs>
     <path d="M -5.008473 -11.18034 
L 6.639575 -11.18034 
L 6.639575 -8.679629 
L -2.291535 -8.679629 
L -2.291535 -3.306861 
Q -1.647555 -3.527789 -1.003575 -3.635902 
Q -0.354894 -3.744015 0.293787 -3.744015 
Q 3.964943 -3.744015 6.108409 -1.732165 
Q 8.256576 0.279685 8.256576 3.715812 
Q 8.256576 7.255352 6.052002 9.220196 
Q 3.847428 11.18034 -0.16217 11.18034 
Q -1.544142 11.18034 -2.97782 10.945311 
Q -4.406798 10.710281 -5.934488 10.240223 
L -5.934488 7.255352 
Q -4.613624 7.974541 -3.203448 8.327085 
Q -1.793273 8.679629 -0.223278 8.679629 
Q 2.319738 8.679629 3.800422 7.344663 
Q 5.285807 6.009697 5.285807 3.715812 
Q 5.285807 1.426627 3.800422 0.091661 
Q 2.319738 -1.248005 -0.223278 -1.248005 
Q -1.412526 -1.248005 -2.597073 -0.984772 
Q -3.77692 -0.72154 -5.008473 -0.16217 
L -5.008473 -11.18034 
z
" id="m021be7bf8d" style="stroke:#808080;"/>
    </defs>
    <g clip-path="url(#peb114e20f6)">
     <use style="fill:#808080;stroke:#808080;" x="594.541664" xlink:href="#m021be7bf8d" y="440.079995"/>
    </g>
   </g>
   <g id="PathCollection_7">
    <defs>
     <path d="M 1.286397 -1.175541 
Q -0.676687 -1.175541 -1.826823 0.168594 
Q -2.97234 1.50811 -2.97234 3.845335 
Q -2.97234 6.168702 -1.826823 7.522075 
Q -0.676687 8.870829 1.286397 8.870829 
Q 3.249481 8.870829 4.394998 7.522075 
Q 5.540515 6.168702 5.540515 3.845335 
Q 5.540515 1.50811 4.394998 0.168594 
Q 3.249481 -1.175541 1.286397 -1.175541 
z
M 7.07403 -10.316583 
L 7.07403 -7.660646 
Q 5.974703 -8.177976 4.8569 -8.450499 
Q 3.739097 -8.72764 2.63977 -8.72764 
Q -0.247118 -8.72764 -1.771394 -6.778413 
Q -3.291052 -4.829186 -3.508146 -0.889162 
Q -2.658246 -2.145535 -1.374159 -2.815293 
Q -0.085452 -3.485051 1.457301 -3.485051 
Q 4.704473 -3.485051 6.589033 -1.512729 
Q 8.473594 0.454974 8.473594 3.845335 
Q 8.473594 7.166411 6.51051 9.175685 
Q 4.547426 11.18034 1.286397 11.18034 
Q -2.45501 11.18034 -4.43195 8.316547 
Q -6.408891 5.448135 -6.408891 0.006929 
Q -6.408891 -5.101708 -3.983905 -8.141024 
Q -1.55892 -11.18034 2.524295 -11.18034 
Q 3.623622 -11.18034 4.741425 -10.963246 
Q 5.859228 -10.746152 7.07403 -10.316583 
z
" id="ma3d5e5e7d6" style="stroke:#808080;"/>
    </defs>
    <g clip-path="url(#peb114e20f6)">
     <use style="fill:#808080;stroke:#808080;" x="440.730844" xlink:href="#ma3d5e5e7d6" y="357.247454"/>
    </g>
   </g>
   <g id="PathCollection_8"/>
   <g id="PathCollection_9"/>
   <g id="PathCollection_10"/>
   <g id="PathCollection_11"/>
   <g id="PathCollection_12"/>
   <g id="matplotlib.axis_1">
    <g id="xtick_1">
     <g id="line2d_1">
      <defs>
       <path d="M 0 0 
L 0 3.5 
" id="mf9c4b13fad" style="stroke:#000000;stroke-width:0.8;"/>
      </defs>
      <g>
       <use style="stroke:#000000;stroke-width:0.8;" x="143.535497" xlink:href="#mf9c4b13fad" y="630"/>
      </g>
     </g>
     <g id="text_1">
      <!-- −200 -->
      <g transform="translate(129.801903 644.598438)scale(0.1 -0.1)">
       <defs>
        <path d="M 678 2272 
L 4684 2272 
L 4684 1741 
L 678 1741 
L 678 2272 
z
" id="DejaVuSans-2212" transform="scale(0.015625)"/>
        <path d="M 1228 531 
L 3431 531 
L 3431 0 
L 469 0 
L 469 531 
Q 828 903 1448 1529 
Q 2069 2156 2228 2338 
Q 2531 2678 2651 2914 
Q 2772 3150 2772 3378 
Q 2772 3750 2511 3984 
Q 2250 4219 1831 4219 
Q 1534 4219 1204 4116 
Q 875 4013 500 3803 
L 500 4441 
Q 881 4594 1212 4672 
Q 1544 4750 1819 4750 
Q 2544 4750 2975 4387 
Q 3406 4025 3406 3419 
Q 3406 3131 3298 2873 
Q 3191 2616 2906 2266 
Q 2828 2175 2409 1742 
Q 1991 1309 1228 531 
z
" id="DejaVuSans-32" transform="scale(0.015625)"/>
        <path d="M 2034 4250 
Q 1547 4250 1301 3770 
Q 1056 3291 1056 2328 
Q 1056 1369 1301 889 
Q 1547 409 2034 409 
Q 2525 409 2770 889 
Q 3016 1369 3016 2328 
Q 3016 3291 2770 3770 
Q 2525 4250 2034 4250 
z
M 2034 4750 
Q 2819 4750 3233 4129 
Q 3647 3509 3647 2328 
Q 3647 1150 3233 529 
Q 2819 -91 2034 -91 
Q 1250 -91 836 529 
Q 422 1150 422 2328 
Q 422 3509 836 4129 
Q 1250 4750 2034 4750 
z
" id="DejaVuSans-30" transform="scale(0.015625)"/>
       </defs>
       <use xlink:href="#DejaVuSans-2212"/>
       <use x="83.789062" xlink:href="#DejaVuSans-32"/>
       <use x="147.412109" xlink:href="#DejaVuSans-30"/>
       <use x="211.035156" xlink:href="#DejaVuSans-30"/>
      </g>
     </g>
    </g>
    <g id="xtick_2">
     <g id="line2d_2">
      <g>
       <use style="stroke:#000000;stroke-width:0.8;" x="242.602499" xlink:href="#mf9c4b13fad" y="630"/>
      </g>
     </g>
     <g id="text_2">
      <!-- −100 -->
      <g transform="translate(228.868905 644.598438)scale(0.1 -0.1)">
       <defs>
        <path d="M 794 531 
L 1825 531 
L 1825 4091 
L 703 3866 
L 703 4441 
L 1819 4666 
L 2450 4666 
L 2450 531 
L 3481 531 
L 3481 0 
L 794 0 
L 794 531 
z
" id="DejaVuSans-31" transform="scale(0.015625)"/>
       </defs>
       <use xlink:href="#DejaVuSans-2212"/>
       <use x="83.789062" xlink:href="#DejaVuSans-31"/>
       <use x="147.412109" xlink:href="#DejaVuSans-30"/>
       <use x="211.035156" xlink:href="#DejaVuSans-30"/>
      </g>
     </g>
    </g>
    <g id="xtick_3">
     <g id="line2d_3">
      <g>
       <use style="stroke:#000000;stroke-width:0.8;" x="341.669501" xlink:href="#mf9c4b13fad" y="630"/>
      </g>
     </g>
     <g id="text_3">
      <!-- 0 -->
      <g transform="translate(338.488251 644.598438)scale(0.1 -0.1)">
       <use xlink:href="#DejaVuSans-30"/>
      </g>
     </g>
    </g>
    <g id="xtick_4">
     <g id="line2d_4">
      <g>
       <use style="stroke:#000000;stroke-width:0.8;" x="440.736503" xlink:href="#mf9c4b13fad" y="630"/>
      </g>
     </g>
     <g id="text_4">
      <!-- 100 -->
      <g transform="translate(431.192753 644.598438)scale(0.1 -0.1)">
       <use xlink:href="#DejaVuSans-31"/>
       <use x="63.623047" xlink:href="#DejaVuSans-30"/>
       <use x="127.246094" xlink:href="#DejaVuSans-30"/>
      </g>
     </g>
    </g>
    <g id="xtick_5">
     <g id="line2d_5">
      <g>
       <use style="stroke:#000000;stroke-width:0.8;" x="539.803505" xlink:href="#mf9c4b13fad" y="630"/>
      </g>
     </g>
     <g id="text_5">
      <!-- 200 -->
      <g transform="translate(530.259755 644.598438)scale(0.1 -0.1)">
       <use xlink:href="#DejaVuSans-32"/>
       <use x="63.623047" xlink:href="#DejaVuSans-30"/>
       <use x="127.246094" xlink:href="#DejaVuSans-30"/>
      </g>
     </g>
    </g>
    <g id="xtick_6">
     <g id="line2d_6">
      <g>
       <use style="stroke:#000000;stroke-width:0.8;" x="638.870506" xlink:href="#mf9c4b13fad" y="630"/>
      </g>
     </g>
     <g id="text_6">
      <!-- 300 -->
      <g transform="translate(629.326756 644.598438)scale(0.1 -0.1)">
       <defs>
        <path d="M 2597 2516 
Q 3050 2419 3304 2112 
Q 3559 1806 3559 1356 
Q 3559 666 3084 287 
Q 2609 -91 1734 -91 
Q 1441 -91 1130 -33 
Q 819 25 488 141 
L 488 750 
Q 750 597 1062 519 
Q 1375 441 1716 441 
Q 2309 441 2620 675 
Q 2931 909 2931 1356 
Q 2931 1769 2642 2001 
Q 2353 2234 1838 2234 
L 1294 2234 
L 1294 2753 
L 1863 2753 
Q 2328 2753 2575 2939 
Q 2822 3125 2822 3475 
Q 2822 3834 2567 4026 
Q 2313 4219 1838 4219 
Q 1578 4219 1281 4162 
Q 984 4106 628 3988 
L 628 4550 
Q 988 4650 1302 4700 
Q 1616 4750 1894 4750 
Q 2613 4750 3031 4423 
Q 3450 4097 3450 3541 
Q 3450 3153 3228 2886 
Q 3006 2619 2597 2516 
z
" id="DejaVuSans-33" transform="scale(0.015625)"/>
       </defs>
       <use xlink:href="#DejaVuSans-33"/>
       <use x="63.623047" xlink:href="#DejaVuSans-30"/>
       <use x="127.246094" xlink:href="#DejaVuSans-30"/>
      </g>
     </g>
    </g>
   </g>
   <g id="matplotlib.axis_2">
    <g id="ytick_1">
     <g id="line2d_7">
      <defs>
       <path d="M 0 0 
L -3.5 0 
" id="me783abcc2d" style="stroke:#000000;stroke-width:0.8;"/>
      </defs>
      <g>
       <use style="stroke:#000000;stroke-width:0.8;" x="90" xlink:href="#me783abcc2d" y="577.846064"/>
      </g>
     </g>
     <g id="text_7">
      <!-- −200 -->
      <g transform="translate(55.532812 581.645283)scale(0.1 -0.1)">
       <use xlink:href="#DejaVuSans-2212"/>
       <use x="83.789062" xlink:href="#DejaVuSans-32"/>
       <use x="147.412109" xlink:href="#DejaVuSans-30"/>
       <use x="211.035156" xlink:href="#DejaVuSans-30"/>
      </g>
     </g>
    </g>
    <g id="ytick_2">
     <g id="line2d_8">
      <g>
       <use style="stroke:#000000;stroke-width:0.8;" x="90" xlink:href="#me783abcc2d" y="481.33563"/>
      </g>
     </g>
     <g id="text_8">
      <!-- −100 -->
      <g transform="translate(55.532812 485.134849)scale(0.1 -0.1)">
       <use xlink:href="#DejaVuSans-2212"/>
       <use x="83.789062" xlink:href="#DejaVuSans-31"/>
       <use x="147.412109" xlink:href="#DejaVuSans-30"/>
       <use x="211.035156" xlink:href="#DejaVuSans-30"/>
      </g>
     </g>
    </g>
    <g id="ytick_3">
     <g id="line2d_9">
      <g>
       <use style="stroke:#000000;stroke-width:0.8;" x="90" xlink:href="#me783abcc2d" y="384.825196"/>
      </g>
     </g>
     <g id="text_9">
      <!-- 0 -->
      <g transform="translate(76.6375 388.624415)scale(0.1 -0.1)">
       <use xlink:href="#DejaVuSans-30"/>
      </g>
     </g>
    </g>
    <g id="ytick_4">
     <g id="line2d_10">
      <g>
       <use style="stroke:#000000;stroke-width:0.8;" x="90" xlink:href="#me783abcc2d" y="288.314762"/>
      </g>
     </g>
     <g id="text_10">
      <!-- 100 -->
      <g transform="translate(63.9125 292.113981)scale(0.1 -0.1)">
       <use xlink:href="#DejaVuSans-31"/>
       <use x="63.623047" xlink:href="#DejaVuSans-30"/>
       <use x="127.246094" xlink:href="#DejaVuSans-30"/>
      </g>
     </g>
    </g>
    <g id="ytick_5">
     <g id="line2d_11">
      <g>
       <use style="stroke:#000000;stroke-width:0.8;" x="90" xlink:href="#me783abcc2d" y="191.804328"/>
      </g>
     </g>
     <g id="text_11">
      <!-- 200 -->
      <g transform="translate(63.9125 195.603547)scale(0.1 -0.1)">
       <use xlink:href="#DejaVuSans-32"/>
       <use x="63.623047" xlink:href="#DejaVuSans-30"/>
       <use x="127.246094" xlink:href="#DejaVuSans-30"/>
      </g>
     </g>
    </g>
    <g id="ytick_6">
     <g id="line2d_12">
      <g>
       <use style="stroke:#000000;stroke-width:0.8;" x="90" xlink:href="#me783abcc2d" y="95.293894"/>
      </g>
     </g>
     <g id="text_12">
      <!-- 300 -->
      <g transform="translate(63.9125 99.093112)scale(0.1 -0.1)">
       <use xlink:href="#DejaVuSans-33"/>
       <use x="63.623047" xlink:href="#DejaVuSans-30"/>
       <use x="127.246094" xlink:href="#DejaVuSans-30"/>
      </g>
     </g>
    </g>
   </g>
   <g id="line2d_13">
    <path clip-path="url(#peb114e20f6)" d="M 440.730844 357.247454 
L 436.024042 359.280545 
L 431.27434 361.21591 
L 426.480718 363.04385 
L 421.642484 364.753359 
L 416.759408 366.33195 
L 411.831888 367.765481 
L 406.861162 369.037984 
L 401.849571 370.131517 
L 396.800888 371.026067 
L 391.720737 371.699559 
L 386.617108 372.12803 
L 381.500961 372.286092 
L 376.386887 372.147826 
L 371.293678 371.688277 
L 366.244548 370.885657 
L 361.266597 369.724208 
L 356.389107 368.197325 
L 351.64049 366.310174 
L 347.044245 364.080954 
L 342.614804 361.540294 
L 338.354212 358.729105 
L 334.250117 355.695926 
L 330.274726 352.495144 
L 326.383861 349.187467 
L 322.515126 345.844172 
L 318.584982 342.557619 
L 314.48759 339.462192 
L 310.108156 336.767554 
L 305.379148 334.777054 
L 300.37375 333.795254 
L 295.297544 333.91441 
L 290.331244 334.965851 
L 285.548244 336.695603 
L 280.951108 338.893719 
L 276.517178 341.415984 
L 272.219871 344.167877 
L 268.035446 347.087171 
L 263.944316 350.132003 
" style="fill:none;stroke:#808080;stroke-linecap:square;stroke-width:1.5;"/>
   </g>
   <g id="line2d_14">
    <path clip-path="url(#peb114e20f6)" d="M 263.944316 372.286092 
L 263.944316 333.795254 
L 440.730844 333.795254 
L 440.730844 372.286092 
L 263.944316 372.286092 
" style="fill:none;stroke:#d3d3d3;stroke-linecap:square;stroke-width:0.5;"/>
   </g>
   <g id="line2d_15">
    <path clip-path="url(#peb114e20f6)" d="M 263.944316 350.132003 
L 260.185853 353.340571 
L 256.746983 356.875099 
L 253.589137 360.652519 
L 250.68085 364.617664 
L 247.997114 368.732152 
L 245.518071 372.968165 
L 243.227847 377.304835 
L 241.113626 381.726048 
L 239.164981 386.219049 
L 237.373358 390.773527 
L 235.731712 395.380983 
L 234.23422 400.034289 
L 232.876074 404.72737 
L 231.653312 409.454964 
L 230.562696 414.21244 
L 229.601608 418.995657 
L 228.767971 423.800856 
L 228.060185 428.624571 
L 227.477072 433.463551 
L 227.017831 438.314703 
L 226.682005 443.175042 
L 226.469445 448.041645 
L 226.380286 452.91161 
L 226.414919 457.782028 
L 226.573973 462.649945 
L 226.858292 467.512341 
L 227.268919 472.366097 
L 227.807073 477.207975 
L 228.474133 482.034592 
" style="fill:none;stroke:#808080;stroke-linecap:square;stroke-width:1.5;"/>
   </g>
   <g id="line2d_16">
    <path clip-path="url(#peb114e20f6)" d="M 226.380286 482.034592 
L 226.380286 350.132003 
L 263.944316 350.132003 
L 263.944316 482.034592 
L 226.380286 482.034592 
" style="fill:none;stroke:#d3d3d3;stroke-linecap:square;stroke-width:0.5;"/>
   </g>
   <g id="line2d_17">
    <path clip-path="url(#peb114e20f6)" d="M 228.474133 482.034592 
L 229.27162 486.842399 
L 230.20117 491.62766 
L 231.264516 496.386429 
L 232.463463 501.114532 
L 233.799856 505.807552 
L 235.275553 510.46081 
L 236.892386 515.069353 
L 238.652121 519.627942 
L 240.556417 524.131052 
L 242.60677 528.572863 
L 244.804467 532.947275 
L 247.150522 537.247915 
L 249.645614 541.468166 
L 252.290027 545.601195 
L 255.083584 549.640003 
L 258.025584 553.57748 
L 261.114743 557.406475 
L 264.349147 561.119881 
L 267.72621 564.71072 
L 271.242649 568.172253 
L 274.894475 571.498079 
L 278.677006 574.682244 
L 282.584894 577.719345 
L 286.612179 580.604627 
L 290.752358 583.334062 
L 294.998475 585.904414 
L 299.343216 588.313289 
L 303.77902 590.559153 
" style="fill:none;stroke:#808080;stroke-linecap:square;stroke-width:1.5;"/>
   </g>
   <g id="line2d_18">
    <path clip-path="url(#peb114e20f6)" d="M 228.474133 590.559153 
L 228.474133 482.034592 
L 303.77902 482.034592 
L 303.77902 590.559153 
L 228.474133 590.559153 
" style="fill:none;stroke:#d3d3d3;stroke-linecap:square;stroke-width:0.5;"/>
   </g>
   <g id="line2d_19">
    <path clip-path="url(#peb114e20f6)" d="M 303.77902 590.559153 
L 308.408114 592.736778 
L 313.08596 594.812745 
L 317.814488 596.775925 
L 322.595613 598.612875 
L 327.431094 600.307177 
L 332.322296 601.838547 
L 337.269782 603.181618 
L 342.272611 604.304267 
L 347.327115 605.165312 
L 352.424722 605.711401 
L 357.547972 605.873056 
L 362.66314 605.560533 
L 367.707106 604.66265 
L 372.568165 603.057765 
L 377.07358 600.652264 
L 381.019416 597.444578 
L 384.256386 593.557845 
L 386.757732 589.187644 
L 388.601302 584.517558 
L 389.908634 579.67815 
L 390.801405 574.749288 
L 391.384898 569.775985 
L 391.746065 564.782227 
L 391.956438 559.780033 
L 392.075664 554.774894 
L 392.154327 549.768998 
L 392.235806 544.76319 
L 392.357271 539.758182 
L 392.550009 534.755256 
L 392.839353 529.756608 
L 393.244464 524.765349 
L 393.77825 519.785265 
L 394.447598 514.82041 
L 395.253999 509.874647 
" style="fill:none;stroke:#808080;stroke-linecap:square;stroke-width:1.5;"/>
   </g>
   <g id="line2d_20">
    <path clip-path="url(#peb114e20f6)" d="M 303.77902 605.873056 
L 303.77902 509.874647 
L 395.253999 509.874647 
L 395.253999 605.873056 
L 303.77902 605.873056 
" style="fill:none;stroke:#d3d3d3;stroke-linecap:square;stroke-width:0.5;"/>
   </g>
   <g id="line2d_21">
    <path clip-path="url(#peb114e20f6)" d="M 395.253999 509.874647 
L 395.760399 504.959744 
L 395.700386 500.017711 
L 395.244069 495.094293 
L 394.507625 490.202933 
L 393.570989 485.344254 
L 392.490998 480.514073 
L 391.30979 475.706608 
L 390.060065 470.915749 
L 388.76845 466.135534 
L 387.457768 461.360294 
L 386.148648 456.584667 
L 384.860801 451.803577 
L 383.614129 447.0122 
L 382.429845 442.205973 
L 381.331734 437.380676 
L 380.347767 432.532651 
L 379.512288 427.659298 
L 378.869187 422.760106 
L 378.47662 417.838784 
L 378.414077 412.90767 
L 378.792437 407.996918 
L 379.765502 403.173231 
L 381.531543 398.574144 
L 384.285823 394.449452 
L 388.070819 391.138026 
L 392.632867 388.877851 
L 397.571141 387.626266 
L 402.608406 387.164706 
L 407.63151 387.279709 
L 412.609074 387.820035 
L 417.536007 388.68527 
L 422.413592 389.807138 
L 427.244221 391.13719 
L 432.030313 392.639707 
L 436.77418 394.287555 
L 441.478039 396.059632 
L 446.144018 397.939217 
L 450.774155 399.912849 
L 455.370386 401.969539 
L 459.934535 404.100211 
L 464.468311 406.297287 
L 468.973308 408.554375 
L 473.451006 410.866038 
L 477.902775 413.227613 
L 482.329883 415.635068 
L 486.733501 418.084898 
L 491.114711 420.574033 
L 495.474512 423.09977 
L 499.813829 425.659715 
L 504.133515 428.251739 
" style="fill:none;stroke:#808080;stroke-linecap:square;stroke-width:1.5;"/>
   </g>
   <g id="line2d_22">
    <path clip-path="url(#peb114e20f6)" d="M 378.414077 509.874647 
L 378.414077 387.164706 
L 504.133515 387.164706 
L 504.133515 509.874647 
L 378.414077 509.874647 
" style="fill:none;stroke:#d3d3d3;stroke-linecap:square;stroke-width:0.5;"/>
   </g>
   <g id="line2d_23">
    <path clip-path="url(#peb114e20f6)" d="M 504.133515 428.251739 
L 508.390534 430.819485 
L 512.654642 433.375808 
L 516.926301 435.919937 
L 521.206016 438.451012 
L 525.494343 440.968077 
L 529.791897 443.470056 
L 534.099361 445.955738 
L 538.417495 448.423748 
L 542.747153 450.872517 
L 547.089298 453.300241 
L 551.445025 455.704829 
L 555.815585 458.083835 
L 560.202423 460.434364 
L 564.607219 462.752959 
L 569.031951 465.035422 
L 573.47897 467.276581 
L 577.951114 469.46994 
L 582.451855 471.607149 
L 586.985518 473.67718 
L 591.557601 475.664949 
L 596.175247 477.548901 
L 600.847948 479.296398 
L 605.588549 480.853912 
L 610.414207 482.122805 
L 615.344353 482.883831 
L 620.318021 482.440281 
L 623.295566 478.858634 
L 622.46721 474.118335 
L 620.32752 469.711631 
L 617.67491 465.572698 
L 614.74264 461.620757 
L 611.62835 457.808026 
L 608.382472 454.105038 
L 605.034651 450.49242 
L 601.603893 446.956745 
L 598.10315 443.488335 
L 594.541664 440.079995 
" style="fill:none;stroke:#808080;stroke-linecap:square;stroke-width:1.5;"/>
   </g>
   <g id="line2d_24">
    <path clip-path="url(#peb114e20f6)" d="M 504.133515 482.883831 
L 504.133515 428.251739 
L 623.295566 428.251739 
L 623.295566 482.883831 
L 504.133515 482.883831 
" style="fill:none;stroke:#d3d3d3;stroke-linecap:square;stroke-width:0.5;"/>
   </g>
   <g id="line2d_25">
    <path clip-path="url(#peb114e20f6)" d="M 594.541664 440.079995 
L 590.926257 436.726265 
L 587.262101 433.422932 
L 583.553198 430.166721 
L 579.802689 426.955078 
L 576.013068 423.786022 
L 572.186326 420.658036 
L 568.324053 417.569997 
L 564.427519 414.521113 
L 560.497719 411.510893 
L 556.535423 408.539114 
L 552.541197 405.605804 
L 548.515432 402.711237 
L 544.458353 399.855927 
L 540.370035 397.040636 
L 536.250402 394.266383 
L 532.099235 391.534465 
L 527.916167 388.846487 
L 523.700679 386.204397 
L 519.45209 383.610539 
L 515.169546 381.067717 
L 510.852001 378.579286 
L 506.498194 376.149268 
L 502.106621 373.782502 
L 497.675499 371.484857 
L 493.202721 369.26352 
L 488.685802 367.127392 
L 484.121814 365.087672 
L 479.507322 363.158709 
L 474.838329 361.359308 
L 470.110285 359.714806 
L 465.318284 358.260528 
L 460.457864 357.04786 
L 455.527598 356.155613 
L 450.537579 355.712615 
L 445.538969 355.943934 
L 440.730844 357.247454 
" style="fill:none;stroke:#808080;stroke-linecap:square;stroke-width:1.5;"/>
   </g>
   <g id="line2d_26">
    <path clip-path="url(#peb114e20f6)" d="M 440.730844 440.079995 
L 440.730844 355.712615 
L 594.541664 355.712615 
L 594.541664 440.079995 
L 440.730844 440.079995 
" style="fill:none;stroke:#d3d3d3;stroke-linecap:square;stroke-width:0.5;"/>
   </g>
   <g id="line2d_27">
    <path clip-path="url(#peb114e20f6)" d="M 270.061346 357.723505 
L 270.061346 357.723505 
L 270.061346 357.723505 
" style="fill:none;stroke:#000000;stroke-linecap:square;stroke-width:3;"/>
   </g>
   <g id="line2d_28">
    <path clip-path="url(#peb114e20f6)" d="M 270.061346 357.723505 
L 270.061346 357.723505 
L 270.061346 357.723505 
L 270.061346 357.723505 
L 270.061346 357.723505 
" style="fill:none;stroke:#d3d3d3;stroke-linecap:square;stroke-width:0.5;"/>
   </g>
   <g id="line2d_29">
    <path clip-path="url(#peb114e20f6)" d="M 270.061346 357.723505 
L 270.061346 357.723505 
L 270.061346 357.723505 
" style="fill:none;stroke:#000000;stroke-linecap:square;stroke-width:3;"/>
   </g>
   <g id="line2d_30">
    <path clip-path="url(#peb114e20f6)" d="M 270.061346 357.723505 
L 270.061346 357.723505 
L 270.061346 357.723505 
L 270.061346 357.723505 
L 270.061346 357.723505 
" style="fill:none;stroke:#d3d3d3;stroke-linecap:square;stroke-width:0.5;"/>
   </g>
   <g id="line2d_31">
    <path clip-path="url(#peb114e20f6)" d="M 308.180875 581.913144 
L 308.180875 581.913144 
L 312.618703 584.000828 
L 317.085287 585.983084 
L 321.578527 587.848637 
L 326.095186 589.584056 
L 330.630353 591.173238 
L 335.176643 592.596771 
L 339.722997 593.831164 
L 344.252884 594.848002 
L 348.74162 595.613152 
L 353.152503 596.086436 
L 357.431698 596.222678 
L 361.503029 595.975891 
L 365.267815 595.30874 
L 368.622764 594.205109 
L 371.508388 592.667956 
L 373.952447 590.681074 
L 376.026448 588.185555 
L 377.762691 585.143631 
L 379.15858 581.598598 
L 380.223591 577.648023 
L 380.993021 573.392979 
L 381.517836 568.913511 
L 381.853554 564.265883 
L 382.054285 559.487653 
L 382.170523 554.603699 
L 382.248637 549.631194 
L 382.330827 544.583338 
L 382.454926 539.472023 
L 382.653878 534.309574 
L 382.954941 529.109586 
L 383.378885 523.886927 
L 383.939476 518.657031 
L 384.643534 513.434777 
L 385.491614 508.233327 
L 385.491614 508.233327 
" style="fill:none;stroke:#000000;stroke-linecap:square;stroke-width:3;"/>
   </g>
   <g id="line2d_32">
    <path clip-path="url(#peb114e20f6)" d="M 308.180875 596.222678 
L 308.180875 508.233327 
L 385.491614 508.233327 
L 385.491614 596.222678 
L 308.180875 596.222678 
" style="fill:none;stroke:#d3d3d3;stroke-linecap:square;stroke-width:0.5;"/>
   </g>
   <g id="line2d_33">
    <path clip-path="url(#peb114e20f6)" d="M 270.061346 357.723505 
L 267.077707 360.273452 
L 264.203627 363.229139 
L 261.474171 366.495159 
L 258.901643 370.003225 
L 256.488114 373.70394 
L 254.231178 377.560791 
L 252.126629 381.546144 
L 250.16972 385.638605 
L 248.355748 389.82126 
L 246.680329 394.08048 
L 245.139506 398.405083 
L 243.729787 402.785746 
L 242.448141 407.214569 
L 241.291975 411.684758 
L 240.259111 416.190376 
L 239.347751 420.72616 
L 238.556452 425.287375 
L 237.884093 429.869692 
L 237.329853 434.4691 
L 236.893187 439.081822 
L 236.5738 443.704257 
L 236.371633 448.33292 
L 236.286838 452.964402 
L 236.319765 457.595323 
L 236.470942 462.222303 
L 236.741061 466.841928 
L 237.130958 471.450723 
L 237.641599 476.045126 
L 238.274062 480.621469 
" style="fill:none;stroke:#000000;stroke-linecap:square;stroke-width:3;"/>
   </g>
   <g id="line2d_34">
    <path clip-path="url(#peb114e20f6)" d="M 236.286838 480.621469 
L 236.286838 357.723505 
L 270.061346 357.723505 
L 270.061346 480.621469 
L 236.286838 480.621469 
" style="fill:none;stroke:#d3d3d3;stroke-linecap:square;stroke-width:0.5;"/>
   </g>
   <g id="line2d_35">
    <path clip-path="url(#peb114e20f6)" d="M 238.274062 480.621469 
L 239.029519 485.175954 
L 239.909216 489.704635 
L 240.914454 494.203406 
L 242.046562 498.667982 
L 243.306877 503.093891 
L 244.696715 507.476464 
L 246.21734 511.810833 
L 247.869934 516.091924 
L 249.655563 520.314468 
L 251.575134 524.473005 
L 253.629365 528.5619 
L 255.818736 532.575363 
L 258.143455 536.507482 
L 260.60341 540.352255 
L 263.198134 544.103635 
L 265.926767 547.755582 
L 268.788023 551.302122 
L 271.780161 554.737408 
L 274.900969 558.055791 
L 278.147746 561.251889 
L 281.517307 564.320658 
L 285.005988 567.257464 
L 288.609664 570.058141 
L 292.323777 572.719053 
L 296.143383 575.237138 
L 300.063189 577.609948 
L 304.077621 579.835671 
L 308.180875 581.913144 
L 308.180875 581.913144 
" style="fill:none;stroke:#000000;stroke-linecap:square;stroke-width:3;"/>
   </g>
   <g id="line2d_36">
    <path clip-path="url(#peb114e20f6)" d="M 238.274062 581.913144 
L 238.274062 480.621469 
L 308.180875 480.621469 
L 308.180875 581.913144 
L 238.274062 581.913144 
" style="fill:none;stroke:#d3d3d3;stroke-linecap:square;stroke-width:0.5;"/>
   </g>
   <g id="line2d_37">
    <path clip-path="url(#peb114e20f6)" d="M 308.180875 581.913144 
" style="fill:none;stroke:#000000;stroke-linecap:square;stroke-width:3;"/>
   </g>
   <g id="line2d_38">
    <path clip-path="url(#peb114e20f6)" d="M 308.180875 581.913144 
L 308.180875 581.913144 
L 308.180875 581.913144 
L 308.180875 581.913144 
L 308.180875 581.913144 
" style="fill:none;stroke:#d3d3d3;stroke-linecap:square;stroke-width:0.5;"/>
   </g>
   <g id="line2d_39">
    <path clip-path="url(#peb114e20f6)" d="M 385.491614 508.233327 
L 385.491614 508.233327 
L 385.860604 504.599458 
L 385.808924 500.552799 
L 385.409703 496.258431 
L 384.740069 491.814789 
L 383.865008 487.27715 
L 382.836052 482.675977 
L 381.693851 478.027648 
L 380.471086 473.340338 
L 379.194873 468.617211 
L 377.888627 463.858157 
L 376.573533 459.060708 
L 375.269776 454.220471 
L 373.99768 449.331236 
L 372.778917 444.384839 
L 371.637947 439.370796 
L 370.603972 434.275656 
L 369.713827 429.082043 
L 369.016582 423.767294 
L 368.581327 418.3018 
L 368.510966 412.647893 
L 368.967017 406.763174 
L 370.210909 400.623064 
L 372.645752 394.307063 
L 376.729559 388.208104 
L 382.506179 383.153352 
L 389.209331 379.821408 
L 395.938919 378.107116 
L 402.320375 377.517742 
L 408.337016 377.65317 
L 414.064027 378.273643 
L 411.509148 377.825281 
" style="fill:none;stroke:#000000;stroke-linecap:square;stroke-width:3;"/>
   </g>
   <g id="line2d_40">
    <path clip-path="url(#peb114e20f6)" d="M 368.510966 508.233327 
L 368.510966 377.517742 
L 414.064027 377.517742 
L 414.064027 508.233327 
L 368.510966 508.233327 
" style="fill:none;stroke:#d3d3d3;stroke-linecap:square;stroke-width:0.5;"/>
   </g>
   <g id="line2d_41">
    <path clip-path="url(#peb114e20f6)" d="M 411.509148 377.825281 
L 409.208841 378.414116 
L 403.82544 379.588656 
L 398.362762 380.556412 
L 392.822161 381.290769 
L 387.208022 381.761889 
L 381.529175 381.937096 
L 375.800672 381.781958 
L 370.045727 381.26244 
L 364.297279 380.348424 
L 358.598261 379.018581 
L 352.999473 377.265863 
L 347.554497 375.102095 
L 342.312322 372.559887 
L 337.30978 369.690949 
L 332.566272 366.561674 
L 328.082216 363.248264 
L 323.84106 359.834039 
L 319.813913 356.410867 
L 315.966581 353.085994 
L 312.271189 349.994662 
L 308.727674 347.314341 
L 305.393636 345.255682 
L 302.358922 343.968659 
L 299.533925 343.411556 
L 296.552181 343.487744 
L 293.187651 344.207023 
L 289.511244 345.540794 
L 285.667963 347.380616 
L 281.75941 349.605105 
L 277.840383 352.115323 
L 273.937238 354.83869 
L 270.061346 357.723505 
" style="fill:none;stroke:#000000;stroke-linecap:square;stroke-width:3;"/>
   </g>
   <g id="line2d_42">
    <path clip-path="url(#peb114e20f6)" d="M 270.061346 381.937096 
L 270.061346 343.411556 
L 411.509148 343.411556 
L 411.509148 381.937096 
L 270.061346 381.937096 
" style="fill:none;stroke:#d3d3d3;stroke-linecap:square;stroke-width:0.5;"/>
   </g>
   <g id="line2d_43">
    <path clip-path="url(#peb114e20f6)" d="M 444.836964 366.030472 
L 444.836964 366.030472 
L 439.946036 368.143066 
L 434.994462 370.160652 
L 429.978825 372.073209 
L 424.895678 373.8692 
L 419.741654 375.535317 
L 414.513607 377.056198 
L 411.509148 377.825281 
" style="fill:none;stroke:#000000;stroke-linecap:square;stroke-width:3;"/>
   </g>
   <g id="line2d_44">
    <path clip-path="url(#peb114e20f6)" d="M 411.509148 377.825281 
L 411.509148 366.030472 
L 444.836964 366.030472 
L 444.836964 377.825281 
L 411.509148 377.825281 
" style="fill:none;stroke:#d3d3d3;stroke-linecap:square;stroke-width:0.5;"/>
   </g>
   <g id="line2d_45">
    <path clip-path="url(#peb114e20f6)" d="M 411.509148 377.825281 
L 419.572283 379.240299 
L 424.912919 380.468281 
L 430.12105 381.902032 
L 435.221075 383.502948 
L 440.230479 385.242929 
L 445.162235 387.10079 
L 450.026287 389.060113 
L 454.830471 391.107895 
L 459.581111 393.233651 
L 464.283413 395.428796 
L 468.941727 397.686207 
L 473.559744 399.999907 
L 478.140627 402.36483 
L 482.687112 404.776641 
L 487.20159 407.231601 
L 491.686162 409.726462 
L 496.142686 412.258381 
L 500.572817 414.824857 
L 504.978033 417.423676 
L 509.359664 420.052868 
L 509.359664 420.052868 
" style="fill:none;stroke:#000000;stroke-linecap:square;stroke-width:3;"/>
   </g>
   <g id="line2d_46">
    <path clip-path="url(#peb114e20f6)" d="M 411.509148 420.052868 
L 411.509148 377.825281 
L 509.359664 377.825281 
L 509.359664 420.052868 
L 411.509148 420.052868 
" style="fill:none;stroke:#d3d3d3;stroke-linecap:square;stroke-width:0.5;"/>
   </g>
   <g id="line2d_47">
    <path clip-path="url(#peb114e20f6)" d="M 509.359664 420.052868 
L 509.359664 420.052868 
L 513.594356 422.607146 
L 517.834629 425.149181 
L 522.080782 427.678119 
L 526.333132 430.193011 
L 530.592017 432.692796 
L 534.857797 435.176277 
L 539.13085 437.642103 
L 543.411578 440.088735 
L 547.700402 442.514411 
L 551.997759 444.917097 
L 556.304099 447.294424 
L 560.619871 449.64361 
L 564.945505 451.961351 
L 569.281379 454.243673 
L 573.627768 456.485733 
L 577.984742 458.681525 
L 582.352003 460.823464 
L 586.728576 462.901741 
L 591.112229 464.903327 
L 595.498318 466.810314 
L 599.877317 468.597055 
L 604.229026 470.224829 
L 608.507183 471.631211 
L 612.590482 472.707512 
L 610.351639 472.353243 
" style="fill:none;stroke:#000000;stroke-linecap:square;stroke-width:3;"/>
   </g>
   <g id="line2d_48">
    <path clip-path="url(#peb114e20f6)" d="M 509.359664 472.707512 
L 509.359664 420.052868 
L 612.590482 420.052868 
L 612.590482 472.707512 
L 509.359664 472.707512 
" style="fill:none;stroke:#d3d3d3;stroke-linecap:square;stroke-width:0.5;"/>
   </g>
   <g id="line2d_49">
    <path clip-path="url(#peb114e20f6)" d="M 610.351639 472.353243 
L 609.481331 470.997475 
L 606.865102 467.472986 
L 603.993596 463.958054 
L 600.944337 460.479634 
L 597.762112 457.045845 
L 594.47507 453.658361 
L 591.10205 450.316543 
L 587.656283 447.018978 
L 584.147412 443.764095 
L 580.582681 440.550412 
L 576.967662 437.376637 
L 573.306725 434.241705 
L 569.603349 431.144777 
L 565.860341 428.08524 
L 562.079984 425.062698 
L 558.264151 422.076963 
L 554.414383 419.128048 
L 550.531951 416.216169 
L 546.617904 413.341742 
L 542.673102 410.505388 
L 538.698249 407.707946 
L 534.693912 404.950484 
L 530.660544 402.234321 
L 526.598502 399.561054 
L 522.508061 396.932592 
L 518.389432 394.351205 
L 514.242784 391.819577 
L 510.068265 389.340888 
L 505.866033 386.918908 
L 501.636301 384.558128 
L 497.3794 382.263923 
L 493.09587 380.042786 
L 488.786611 377.902627 
L 484.453111 375.853199 
L 480.097827 373.906692 
L 475.724824 372.078589 
L 471.340904 370.388917 
L 466.957661 368.864122 
L 462.595468 367.539893 
L 458.291624 366.46535 
L 454.118186 365.708487 
L 450.223304 365.3588 
L 446.92552 365.499982 
L 444.836964 366.030472 
L 444.836964 366.030472 
" style="fill:none;stroke:#000000;stroke-linecap:square;stroke-width:3;"/>
   </g>
   <g id="line2d_50">
    <path clip-path="url(#peb114e20f6)" d="M 444.836964 472.353243 
L 444.836964 365.3588 
L 610.351639 365.3588 
L 610.351639 472.353243 
L 444.836964 472.353243 
" style="fill:none;stroke:#d3d3d3;stroke-linecap:square;stroke-width:0.5;"/>
   </g>
   <g id="line2d_51">
    <path clip-path="url(#peb114e20f6)" d="M 436.624725 348.464437 
L 436.624725 348.464437 
L 432.102047 350.418025 
L 427.554218 352.271169 
L 422.982612 354.014492 
L 418.389291 355.637518 
L 413.777162 357.128583 
L 409.150169 358.474765 
L 404.513484 359.661853 
L 399.873701 360.674378 
L 395.239013 361.495722 
L 390.619314 362.108349 
L 386.026195 362.49417 
L 381.472748 362.635087 
L 376.973103 362.513695 
L 372.54163 362.114114 
L 368.191816 361.422889 
L 363.934933 360.429836 
L 359.778741 359.128787 
L 355.726483 357.518253 
L 351.776168 355.602021 
L 347.919827 353.389639 
L 344.142152 350.896537 
L 340.418018 348.143587 
L 336.708392 345.156249 
L 332.953809 341.964067 
L 329.063671 338.602351 
L 324.898774 335.120576 
L 320.247507 331.610043 
L 314.822676 328.279426 
L 308.399374 325.585449 
L 301.213575 324.178952 
L 294.042906 324.341076 
L 287.474836 325.724679 
L 281.585244 327.850411 
L 276.234253 330.406822 
L 271.274946 333.226862 
L 266.599358 336.220431 
L 262.133655 339.335653 
L 257.827285 342.5405 
" style="fill:none;stroke:#000000;stroke-linecap:square;stroke-width:3;"/>
   </g>
   <g id="line2d_52">
    <path clip-path="url(#peb114e20f6)" d="M 257.827285 362.635087 
L 257.827285 324.178952 
L 436.624725 324.178952 
L 436.624725 362.635087 
L 257.827285 362.635087 
" style="fill:none;stroke:#d3d3d3;stroke-linecap:square;stroke-width:0.5;"/>
   </g>
   <g id="line2d_53">
    <path clip-path="url(#peb114e20f6)" d="M 405.016384 511.515967 
L 405.016384 511.515967 
L 405.660194 505.32003 
L 405.591847 499.482622 
L 405.078434 493.930155 
L 404.275181 488.591076 
L 403.27697 483.411359 
L 402.145944 478.35217 
L 400.925729 473.385568 
L 399.649043 468.491161 
L 398.342027 463.653858 
L 397.026908 458.862431 
L 395.723762 454.108627 
L 394.451825 449.386684 
L 393.230578 444.693165 
L 392.080772 440.027107 
L 391.025522 435.390556 
L 390.091563 430.789646 
L 389.31075 426.236553 
L 388.721792 421.752918 
L 388.371913 417.375768 
L 388.317187 413.167447 
L 388.617857 409.230662 
L 389.320095 405.723398 
L 390.417335 402.841224 
L 391.842088 400.690801 
L 393.635459 399.122699 
L 396.056403 397.934295 
L 399.203364 397.145417 
L 402.896437 396.811669 
L 406.926003 396.906248 
L 411.15412 397.366427 
L 415.49973 398.13024 
L 419.914265 399.145995 
L 424.367392 400.372347 
L 428.839552 401.776466 
L 433.317882 403.33218 
L 437.793842 405.018474 
L 442.261749 406.818322 
L 446.717839 408.717802 
L 451.15966 410.705426 
L 455.585657 412.771627 
L 459.994895 414.908368 
L 464.386872 417.108844 
L 468.761385 419.367247 
L 473.118438 421.678585 
L 477.458176 424.038535 
L 481.78084 426.443334 
L 486.086735 428.889685 
L 490.376207 431.374682 
L 494.649624 433.895754 
L 498.907365 436.450611 
L 498.907365 436.450611 
" style="fill:none;stroke:#000000;stroke-linecap:square;stroke-width:3;"/>
   </g>
   <g id="line2d_54">
    <path clip-path="url(#peb114e20f6)" d="M 388.317187 511.515967 
L 388.317187 396.811669 
L 498.907365 396.811669 
L 498.907365 511.515967 
L 388.317187 511.515967 
" style="fill:none;stroke:#d3d3d3;stroke-linecap:square;stroke-width:0.5;"/>
   </g>
   <g id="line2d_55">
    <path clip-path="url(#peb114e20f6)" d="M 257.827285 342.5405 
L 253.293998 346.40769 
L 249.290339 350.52106 
L 245.704102 354.80988 
L 242.460057 359.232104 
L 239.506113 363.760364 
L 236.804965 368.375538 
L 234.329064 373.063525 
L 232.057532 377.81349 
L 229.974213 382.616838 
L 228.066387 387.466575 
L 226.323917 392.356883 
L 224.738653 397.282832 
L 223.304007 402.240171 
L 222.014649 407.225171 
L 220.866281 412.234503 
L 219.855464 417.265153 
L 218.979491 422.314338 
L 218.236278 427.37945 
L 217.62429 432.458002 
L 217.142475 437.547584 
L 216.79021 442.645828 
L 216.567258 447.750369 
L 216.473734 452.858819 
L 216.510073 457.968732 
L 216.677003 463.077587 
L 216.975523 468.182753 
L 217.406879 473.281471 
L 217.972547 478.370823 
L 218.674205 483.447715 
" style="fill:none;stroke:#000000;stroke-linecap:square;stroke-width:3;"/>
   </g>
   <g id="line2d_56">
    <path clip-path="url(#peb114e20f6)" d="M 216.473734 483.447715 
L 216.473734 342.5405 
L 257.827285 342.5405 
L 257.827285 483.447715 
L 216.473734 483.447715 
" style="fill:none;stroke:#d3d3d3;stroke-linecap:square;stroke-width:0.5;"/>
   </g>
   <g id="line2d_57">
    <path clip-path="url(#peb114e20f6)" d="M 218.674205 483.447715 
L 219.513721 488.508845 
L 220.493123 493.550685 
L 221.614578 498.569451 
L 222.880364 503.561082 
L 224.292836 508.521213 
L 225.854392 513.445156 
L 227.567432 518.327873 
L 229.434308 523.16396 
L 231.457271 527.947635 
L 233.638407 532.672721 
L 235.97957 537.33265 
L 238.482307 541.920467 
L 241.147773 546.42885 
L 243.976645 550.850135 
L 246.969035 555.176371 
L 250.124401 559.399377 
L 253.441463 563.510829 
L 256.918133 567.502353 
L 260.551452 571.36565 
L 264.337552 575.092618 
L 268.271644 578.675499 
L 272.348024 582.107024 
L 276.560124 585.38055 
L 280.90058 588.490202 
L 285.361334 591.430985 
L 289.933761 594.19888 
L 294.608811 596.790907 
L 299.377164 599.205162 
L 299.377164 599.205162 
" style="fill:none;stroke:#000000;stroke-linecap:square;stroke-width:3;"/>
   </g>
   <g id="line2d_58">
    <path clip-path="url(#peb114e20f6)" d="M 218.674205 599.205162 
L 218.674205 483.447715 
L 299.377164 483.447715 
L 299.377164 599.205162 
L 218.674205 599.205162 
" style="fill:none;stroke:#d3d3d3;stroke-linecap:square;stroke-width:0.5;"/>
   </g>
   <g id="line2d_59">
    <path clip-path="url(#peb114e20f6)" d="M 299.377164 599.205162 
" style="fill:none;stroke:#000000;stroke-linecap:square;stroke-width:3;"/>
   </g>
   <g id="line2d_60">
    <path clip-path="url(#peb114e20f6)" d="M 299.377164 599.205162 
L 299.377164 599.205162 
L 299.377164 599.205162 
L 299.377164 599.205162 
L 299.377164 599.205162 
" style="fill:none;stroke:#d3d3d3;stroke-linecap:square;stroke-width:0.5;"/>
   </g>
   <g id="line2d_61">
    <path clip-path="url(#peb114e20f6)" d="M 299.377164 599.205162 
L 299.377164 599.205162 
L 304.197526 601.472728 
L 309.086633 603.642405 
L 314.05045 605.703213 
L 319.09604 607.641694 
L 324.231835 609.441116 
L 329.467949 611.080323 
L 334.816567 612.532072 
L 340.292337 613.760532 
L 345.91261 614.717471 
L 351.696941 615.336367 
L 357.664247 615.523435 
L 363.823251 615.145174 
L 370.146397 614.016561 
L 376.513565 611.91042 
L 382.638772 608.636572 
L 388.086386 604.208081 
L 392.486323 598.930135 
L 395.752772 593.231657 
L 398.044024 587.436519 
L 399.593677 581.708277 
L 400.609788 576.105598 
L 401.25196 570.638459 
L 401.638577 565.298571 
L 401.858591 560.072414 
L 401.980806 554.946089 
L 402.060018 549.906801 
L 402.140786 544.943043 
L 402.259615 540.04434 
L 402.44614 535.200939 
L 402.723765 530.403631 
L 403.110044 525.643772 
L 403.617023 520.9135 
L 404.251661 516.206043 
L 405.016384 511.515967 
L 405.016384 511.515967 
" style="fill:none;stroke:#000000;stroke-linecap:square;stroke-width:3;"/>
   </g>
   <g id="line2d_62">
    <path clip-path="url(#peb114e20f6)" d="M 299.377164 615.523435 
L 299.377164 511.515967 
L 405.016384 511.515967 
L 405.016384 615.523435 
L 299.377164 615.523435 
" style="fill:none;stroke:#d3d3d3;stroke-linecap:square;stroke-width:0.5;"/>
   </g>
   <g id="line2d_63">
    <path clip-path="url(#peb114e20f6)" d="M 498.907365 436.450611 
L 498.907365 436.450611 
L 503.186712 439.031823 
L 507.474655 441.602435 
L 511.77182 444.161754 
L 516.0789 446.709013 
L 520.396669 449.243358 
L 524.725998 451.763835 
L 529.067872 454.269372 
L 533.423411 456.75876 
L 537.793904 459.230623 
L 542.180837 461.683386 
L 546.585951 464.115235 
L 551.0113 466.524059 
L 555.459342 468.907378 
L 559.933059 471.262245 
L 564.436134 473.585111 
L 568.973199 475.871637 
L 573.550225 478.116416 
L 578.175133 480.312558 
L 582.858807 482.451034 
L 587.616884 484.519583 
L 592.473176 486.500748 
L 597.46687 488.367967 
L 602.669916 490.076612 
L 608.237931 491.538099 
L 614.611639 492.508441 
L 623.665462 491.523681 
L 633.13995 479.939427 
L 631.771216 470.803472 
L 628.963206 464.982262 
L 625.86849 460.147921 
L 622.620178 455.768528 
L 619.263104 451.657999 
L 615.820606 447.730442 
L 612.307191 443.938994 
L 608.732716 440.25513 
L 605.10425 436.660127 
L 601.427045 433.141012 
" style="fill:none;stroke:#000000;stroke-linecap:square;stroke-width:3;"/>
   </g>
   <g id="line2d_64">
    <path clip-path="url(#peb114e20f6)" d="M 498.907365 492.508441 
L 498.907365 433.141012 
L 633.13995 433.141012 
L 633.13995 492.508441 
L 498.907365 492.508441 
" style="fill:none;stroke:#d3d3d3;stroke-linecap:square;stroke-width:0.5;"/>
   </g>
   <g id="line2d_65">
    <path clip-path="url(#peb114e20f6)" d="M 601.427045 433.141012 
L 597.705102 429.688435 
L 593.941521 426.295452 
L 590.138733 422.956805 
L 586.298653 419.668452 
L 582.422787 416.427267 
L 578.51231 413.230833 
L 574.568123 410.077296 
L 570.590887 406.965264 
L 566.581056 403.893739 
L 562.538894 400.862058 
L 558.46449 397.869866 
L 554.357761 394.917086 
L 550.218458 392.003909 
L 546.046158 389.130788 
L 541.84026 386.298444 
L 537.599968 383.507876 
L 533.324274 380.760382 
L 529.011927 378.05759 
L 524.661397 375.401501 
L 520.270828 372.794546 
L 515.837969 370.239664 
L 511.360086 367.740408 
L 506.833841 365.30108 
L 502.255128 362.926928 
L 497.618831 360.624412 
L 492.918492 358.401584 
L 488.1458 356.268651 
L 483.289819 354.238829 
L 478.335755 352.3297 
L 473.262908 350.565491 
L 468.041099 348.981162 
L 462.624103 347.63037 
L 456.93701 346.602739 
L 450.851855 346.066429 
L 444.152418 346.387885 
L 436.624725 348.464437 
L 436.624725 348.464437 
" style="fill:none;stroke:#000000;stroke-linecap:square;stroke-width:3;"/>
   </g>
   <g id="line2d_66">
    <path clip-path="url(#peb114e20f6)" d="M 436.624725 433.141012 
L 436.624725 346.066429 
L 601.427045 346.066429 
L 601.427045 433.141012 
L 436.624725 433.141012 
" style="fill:none;stroke:#d3d3d3;stroke-linecap:square;stroke-width:0.5;"/>
   </g>
   <g id="line2d_67">
    <path clip-path="url(#peb114e20f6)" d="M 257.827285 342.5405 
L 257.827285 342.5405 
L 257.827285 342.5405 
" style="fill:none;stroke:#000000;stroke-linecap:square;stroke-width:3;"/>
   </g>
   <g id="line2d_68">
    <path clip-path="url(#peb114e20f6)" d="M 257.827285 342.5405 
L 257.827285 342.5405 
L 257.827285 342.5405 
L 257.827285 342.5405 
L 257.827285 342.5405 
" style="fill:none;stroke:#d3d3d3;stroke-linecap:square;stroke-width:0.5;"/>
   </g>
   <g id="line2d_69">
    <path clip-path="url(#peb114e20f6)" d="M 257.827285 342.5405 
L 257.827285 342.5405 
L 257.827285 342.5405 
" style="fill:none;stroke:#000000;stroke-linecap:square;stroke-width:3;"/>
   </g>
   <g id="line2d_70">
    <path clip-path="url(#peb114e20f6)" d="M 257.827285 342.5405 
L 257.827285 342.5405 
L 257.827285 342.5405 
L 257.827285 342.5405 
L 257.827285 342.5405 
" style="fill:none;stroke:#d3d3d3;stroke-linecap:square;stroke-width:0.5;"/>
   </g>
   <g id="line2d_71">
    <path clip-path="url(#peb114e20f6)" d="M 263.944316 335.655438 
L 265.844577 335.77429 
L 267.713635 336.128896 
L 269.520802 336.713432 
L 271.236403 337.518301 
L 272.832268 338.530286 
L 274.282193 339.732772 
L 275.562371 341.106012 
L 276.65178 342.627459 
L 277.532533 344.27213 
L 278.190168 346.013021 
L 278.613886 347.821544 
L 278.796731 349.668006 
L 278.735699 351.522086 
L 278.431793 353.353342 
L 277.890003 355.131702 
L 277.119226 356.827968 
L 276.132116 358.414287 
L 274.944884 359.86461 
L 273.577022 361.155125 
L 272.050992 362.26464 
L 270.39185 363.174937 
L 268.62684 363.87107 
L 266.784942 364.341608 
L 264.896402 364.578824 
L 262.992229 364.578824 
L 261.103689 364.341608 
L 259.261792 363.87107 
L 257.496781 363.174937 
L 255.837639 362.26464 
L 254.311609 361.155125 
L 252.943747 359.86461 
L 251.756515 358.414287 
L 250.769405 356.827968 
L 249.998628 355.131702 
L 249.456838 353.353342 
L 249.152932 351.522086 
L 249.0919 349.668006 
L 249.274745 347.821544 
L 249.698463 346.013021 
L 250.356098 344.27213 
L 251.236851 342.627459 
L 252.32626 341.106012 
L 253.606438 339.732772 
L 255.056363 338.530286 
L 256.652228 337.518301 
L 258.367829 336.713432 
L 260.174996 336.128896 
L 262.044054 335.77429 
L 263.944316 335.655438 
" style="fill:none;stroke:#808080;stroke-linecap:square;stroke-width:1.5;"/>
   </g>
   <g id="line2d_72">
    <path clip-path="url(#peb114e20f6)" d="M 228.474133 467.558027 
L 230.374394 467.676879 
L 232.243453 468.031485 
L 234.05062 468.616021 
L 235.766221 469.42089 
L 237.362086 470.432876 
L 238.812011 471.635361 
L 240.092188 473.008601 
L 241.181598 474.530048 
L 242.062351 476.17472 
L 242.719986 477.91561 
L 243.143704 479.724134 
L 243.326549 481.570595 
L 243.265517 483.424676 
L 242.961611 485.255931 
L 242.419821 487.034292 
L 241.649044 488.730558 
L 240.661934 490.316876 
L 239.474702 491.7672 
L 238.10684 493.057714 
L 236.580809 494.167229 
L 234.921668 495.077527 
L 233.156657 495.773659 
L 231.31476 496.244197 
L 229.42622 496.481414 
L 227.522047 496.481414 
L 225.633507 496.244197 
L 223.791609 495.773659 
L 222.026599 495.077527 
L 220.367457 494.167229 
L 218.841427 493.057714 
L 217.473565 491.7672 
L 216.286332 490.316876 
L 215.299223 488.730558 
L 214.528445 487.034292 
L 213.986656 485.255931 
L 213.68275 483.424676 
L 213.621718 481.570595 
L 213.804562 479.724134 
L 214.228281 477.91561 
L 214.885916 476.17472 
L 215.766669 474.530048 
L 216.856078 473.008601 
L 218.136256 471.635361 
L 219.586181 470.432876 
L 221.182046 469.42089 
L 222.897647 468.616021 
L 224.704813 468.031485 
L 226.573872 467.676879 
L 228.474133 467.558027 
" style="fill:none;stroke:#808080;stroke-linecap:square;stroke-width:1.5;"/>
   </g>
   <g id="line2d_73">
    <path clip-path="url(#peb114e20f6)" d="M 303.77902 576.082588 
L 305.679281 576.201441 
L 307.54834 576.556046 
L 309.355506 577.140582 
L 311.071107 577.945451 
L 312.666972 578.957437 
L 314.116897 580.159922 
L 315.397075 581.533163 
L 316.486484 583.054609 
L 317.367237 584.699281 
L 318.024872 586.440171 
L 318.448591 588.248695 
L 318.631435 590.095156 
L 318.570403 591.949237 
L 318.266498 593.780492 
L 317.724708 595.558853 
L 316.95393 597.255119 
L 315.966821 598.841437 
L 314.779588 600.291761 
L 313.411726 601.582275 
L 311.885696 602.69179 
L 310.226554 603.602088 
L 308.461544 604.298221 
L 306.619647 604.768758 
L 304.731106 605.005975 
L 302.826933 605.005975 
L 300.938393 604.768758 
L 299.096496 604.298221 
L 297.331486 603.602088 
L 295.672344 602.69179 
L 294.146313 601.582275 
L 292.778452 600.291761 
L 291.591219 598.841437 
L 290.60411 597.255119 
L 289.833332 595.558853 
L 289.291542 593.780492 
L 288.987636 591.949237 
L 288.926604 590.095156 
L 289.109449 588.248695 
L 289.533167 586.440171 
L 290.190802 584.699281 
L 291.071555 583.054609 
L 292.160965 581.533163 
L 293.441142 580.159922 
L 294.891067 578.957437 
L 296.486932 577.945451 
L 298.202533 577.140582 
L 300.0097 576.556046 
L 301.878759 576.201441 
L 303.77902 576.082588 
" style="fill:none;stroke:#808080;stroke-linecap:square;stroke-width:1.5;"/>
   </g>
   <g id="line2d_74">
    <path clip-path="url(#peb114e20f6)" d="M 395.253999 495.398082 
L 397.15426 495.516934 
L 399.023319 495.87154 
L 400.830485 496.456076 
L 402.546086 497.260945 
L 404.141951 498.27293 
L 405.591876 499.475416 
L 406.872054 500.848656 
L 407.961463 502.370103 
L 408.842216 504.014774 
L 409.499851 505.755665 
L 409.92357 507.564189 
L 410.106414 509.41065 
L 410.045382 511.26473 
L 409.741477 513.095986 
L 409.199687 514.874347 
L 408.428909 516.570613 
L 407.4418 518.156931 
L 406.254567 519.607254 
L 404.886705 520.897769 
L 403.360675 522.007284 
L 401.701533 522.917581 
L 399.936523 523.613714 
L 398.094626 524.084252 
L 396.206085 524.321468 
L 394.301912 524.321468 
L 392.413372 524.084252 
L 390.571475 523.613714 
L 388.806465 522.917581 
L 387.147323 522.007284 
L 385.621292 520.897769 
L 384.253431 519.607254 
L 383.066198 518.156931 
L 382.079088 516.570613 
L 381.308311 514.874347 
L 380.766521 513.095986 
L 380.462615 511.26473 
L 380.401583 509.41065 
L 380.584428 507.564189 
L 381.008146 505.755665 
L 381.665781 504.014774 
L 382.546534 502.370103 
L 383.635944 500.848656 
L 384.916121 499.475416 
L 386.366046 498.27293 
L 387.961911 497.260945 
L 389.677512 496.456076 
L 391.484679 495.87154 
L 393.353738 495.516934 
L 395.253999 495.398082 
" style="fill:none;stroke:#808080;stroke-linecap:square;stroke-width:1.5;"/>
   </g>
   <g id="line2d_75">
    <path clip-path="url(#peb114e20f6)" d="M 504.133515 413.775174 
L 506.033776 413.894026 
L 507.902835 414.248632 
L 509.710002 414.833168 
L 511.425602 415.638037 
L 513.021468 416.650023 
L 514.471393 417.852508 
L 515.75157 419.225748 
L 516.840979 420.747195 
L 517.721733 422.391867 
L 518.379367 424.132757 
L 518.803086 425.941281 
L 518.98593 427.787742 
L 518.924899 429.641823 
L 518.620993 431.473078 
L 518.079203 433.251439 
L 517.308425 434.947705 
L 516.321316 436.534023 
L 515.134083 437.984347 
L 513.766221 439.274861 
L 512.240191 440.384376 
L 510.581049 441.294674 
L 508.816039 441.990806 
L 506.974142 442.461344 
L 505.085602 442.698561 
L 503.181428 442.698561 
L 501.292888 442.461344 
L 499.450991 441.990806 
L 497.685981 441.294674 
L 496.026839 440.384376 
L 494.500808 439.274861 
L 493.132947 437.984347 
L 491.945714 436.534023 
L 490.958605 434.947705 
L 490.187827 433.251439 
L 489.646037 431.473078 
L 489.342131 429.641823 
L 489.2811 427.787742 
L 489.463944 425.941281 
L 489.887662 424.132757 
L 490.545297 422.391867 
L 491.42605 420.747195 
L 492.51546 419.225748 
L 493.795637 417.852508 
L 495.245562 416.650023 
L 496.841427 415.638037 
L 498.557028 414.833168 
L 500.364195 414.248632 
L 502.233254 413.894026 
L 504.133515 413.775174 
" style="fill:none;stroke:#808080;stroke-linecap:square;stroke-width:1.5;"/>
   </g>
   <g id="line2d_76">
    <path clip-path="url(#peb114e20f6)" d="M 594.541664 425.60343 
L 596.441925 425.722283 
L 598.310984 426.076888 
L 600.11815 426.661425 
L 601.833751 427.466293 
L 603.429616 428.478279 
L 604.879542 429.680764 
L 606.159719 431.054005 
L 607.249128 432.575452 
L 608.129881 434.220123 
L 608.787516 435.961013 
L 609.211235 437.769537 
L 609.394079 439.615999 
L 609.333048 441.470079 
L 609.029142 443.301334 
L 608.487352 445.079695 
L 607.716574 446.775961 
L 606.729465 448.362279 
L 605.542232 449.812603 
L 604.17437 451.103117 
L 602.64834 452.212632 
L 600.989198 453.12293 
L 599.224188 453.819063 
L 597.382291 454.2896 
L 595.493751 454.526817 
L 593.589577 454.526817 
L 591.701037 454.2896 
L 589.85914 453.819063 
L 588.09413 453.12293 
L 586.434988 452.212632 
L 584.908957 451.103117 
L 583.541096 449.812603 
L 582.353863 448.362279 
L 581.366754 446.775961 
L 580.595976 445.079695 
L 580.054186 443.301334 
L 579.75028 441.470079 
L 579.689248 439.615999 
L 579.872093 437.769537 
L 580.295811 435.961013 
L 580.953446 434.220123 
L 581.834199 432.575452 
L 582.923609 431.054005 
L 584.203786 429.680764 
L 585.653711 428.478279 
L 587.249576 427.466293 
L 588.965177 426.661425 
L 590.772344 426.076888 
L 592.641403 425.722283 
L 594.541664 425.60343 
" style="fill:none;stroke:#808080;stroke-linecap:square;stroke-width:1.5;"/>
   </g>
   <g id="line2d_77">
    <path clip-path="url(#peb114e20f6)" d="M 440.730844 342.770889 
L 442.631105 342.889741 
L 444.500164 343.244347 
L 446.307331 343.828883 
L 448.022932 344.633752 
L 449.618797 345.645738 
L 451.068722 346.848223 
L 452.348899 348.221463 
L 453.438309 349.74291 
L 454.319062 351.387582 
L 454.976697 353.128472 
L 455.400415 354.936996 
L 455.58326 356.783457 
L 455.522228 358.637538 
L 455.218322 360.468793 
L 454.676532 362.247154 
L 453.905755 363.94342 
L 452.918645 365.529738 
L 451.731412 366.980062 
L 450.363551 368.270576 
L 448.83752 369.380091 
L 447.178378 370.290389 
L 445.413368 370.986521 
L 443.571471 371.457059 
L 441.682931 371.694276 
L 439.778758 371.694276 
L 437.890217 371.457059 
L 436.04832 370.986521 
L 434.28331 370.290389 
L 432.624168 369.380091 
L 431.098138 368.270576 
L 429.730276 366.980062 
L 428.543043 365.529738 
L 427.555934 363.94342 
L 426.785156 362.247154 
L 426.243366 360.468793 
L 425.939461 358.637538 
L 425.878429 356.783457 
L 426.061273 354.936996 
L 426.484992 353.128472 
L 427.142627 351.387582 
L 428.02338 349.74291 
L 429.112789 348.221463 
L 430.392967 346.848223 
L 431.842892 345.645738 
L 433.438757 344.633752 
L 435.154358 343.828883 
L 436.961524 343.244347 
L 438.830583 342.889741 
L 440.730844 342.770889 
" style="fill:none;stroke:#808080;stroke-linecap:square;stroke-width:1.5;"/>
   </g>
   <g id="line2d_78"/>
   <g id="line2d_79"/>
   <g id="line2d_80"/>
   <g id="line2d_81"/>
   <g id="line2d_82"/>
   <g id="line2d_83"/>
   <g id="line2d_84"/>
   <g id="line2d_85"/>
   <g id="line2d_86"/>
   <g id="line2d_87"/>
   <g id="line2d_88"/>
   <g id="line2d_89"/>
   <g id="line2d_90"/>
   <g id="line2d_91"/>
   <g id="line2d_92"/>
   <g id="line2d_93"/>
   <g id="line2d_94"/>
   <g id="line2d_95"/>
   <g id="line2d_96"/>
   <g id="line2d_97"/>
   <g id="line2d_98"/>
   <g id="line2d_99"/>
   <g id="line2d_100"/>
   <g id="line2d_101"/>
   <g id="line2d_102"/>
   <g id="line2d_103"/>
   <g id="line2d_104"/>
   <g id="line2d_105"/>
   <g id="line2d_106"/>
   <g id="line2d_107"/>
   <g id="line2d_108"/>
   <g id="line2d_109"/>
   <g id="line2d_110"/>
   <g id="line2d_111"/>
   <g id="line2d_112"/>
   <g id="line2d_113"/>
   <g id="line2d_114"/>
   <g id="line2d_115"/>
   <g id="line2d_116"/>
   <g id="line2d_117"/>
   <g id="line2d_118"/>
   <g id="line2d_119"/>
   <g id="line2d_120"/>
   <g id="line2d_121"/>
   <g id="line2d_122"/>
   <g id="line2d_123"/>
   <g id="line2d_124"/>
   <g id="line2d_125"/>
   <g id="line2d_126"/>
   <g id="line2d_127"/>
   <g id="line2d_128"/>
   <g id="patch_3">
    <path d="M 90 630 
L 90 86.4 
" style="fill:none;stroke:#000000;stroke-linecap:square;stroke-linejoin:miter;stroke-width:0.8;"/>
   </g>
   <g id="patch_4">
    <path d="M 648 630 
L 648 86.4 
" style="fill:none;stroke:#000000;stroke-linecap:square;stroke-linejoin:miter;stroke-width:0.8;"/>
   </g>
   <g id="patch_5">
    <path d="M 90 630 
L 648 630 
" style="fill:none;stroke:#000000;stroke-linecap:square;stroke-linejoin:miter;stroke-width:0.8;"/>
   </g>
   <g id="patch_6">
    <path d="M 90 86.4 
L 648 86.4 
" style="fill:none;stroke:#000000;stroke-linecap:square;stroke-linejoin:miter;stroke-width:0.8;"/>
   </g>
   <g id="text_13">
    <!-- 0 -->
    <g transform="translate(44.468495 481.33563)scale(0.1 -0.1)">
     <use xlink:href="#DejaVuSans-30"/>
    </g>
   </g>
   <g id="text_14">
    <!-- 0 -->
    <g transform="translate(44.468495 466.859065)scale(0.1 -0.1)">
     <use xlink:href="#DejaVuSans-30"/>
    </g>
   </g>
   <g id="text_15">
    <!-- 0 -->
    <g transform="translate(44.468495 452.3825)scale(0.1 -0.1)">
     <use xlink:href="#DejaVuSans-30"/>
    </g>
   </g>
  </g>
 </g>
 <defs>
  <clipPath id="peb114e20f6">
   <rect height="543.6" width="558" x="90" y="86.4"/>
  </clipPath>
 </defs>
</svg>
