<?xml version="1.0" encoding="utf-8" standalone="no"?>
<!DOCTYPE svg PUBLIC "-//W3C//DTD SVG 1.1//EN"
  "http://www.w3.org/Graphics/SVG/1.1/DTD/svg11.dtd">
<svg height="720pt" version="1.1" viewBox="0 0 720 720" width="720pt" xmlns="http://www.w3.org/2000/svg" xmlns:xlink="http://www.w3.org/1999/xlink">
 <metadata>
  <rdf:RDF xmlns:cc="http://creativecommons.org/ns#" xmlns:dc="http://purl.org/dc/elements/1.1/" xmlns:rdf="http://www.w3.org/1999/02/22-rdf-syntax-ns#">
   <cc:Work>
    <dc:type rdf:resource="http://purl.org/dc/dcmitype/StillImage"/>
    <dc:date>2022-01-11T13:25:59.495865</dc:date>
    <dc:format>image/svg+xml</dc:format>
    <dc:creator>
     <cc:Agent>
      <dc:title>Matplotlib v3.4.3, https://matplotlib.org/</dc:title>
     </cc:Agent>
    </dc:creator>
   </cc:Work>
  </rdf:RDF>
 </metadata>
 <defs>
  <style type="text/css">*{stroke-linecap:butt;stroke-linejoin:round;}</style>
 </defs>
 <g id="figure_1">
  <g id="patch_1">
   <path d="M 0 720 
L 720 720 
L 720 0 
L 0 0 
z
" style="fill:none;"/>
  </g>
  <g id="axes_1">
   <g id="patch_2">
    <path d="M 90 630 
L 648 630 
L 648 86.4 
L 90 86.4 
z
" style="fill:#ffffff;"/>
   </g>
   <g id="PathCollection_1">
    <defs>
     <path d="M 0.972304 -8.870829 
Q -1.277159 -8.870829 -2.413438 -6.653699 
Q -3.545098 -4.441189 -3.545098 0.006929 
Q -3.545098 4.436569 -2.413438 6.653699 
Q -1.277159 8.870829 0.972304 8.870829 
Q 3.240243 8.870829 4.371903 6.653699 
Q 5.508182 4.436569 5.508182 0.006929 
Q 5.508182 -4.441189 4.371903 -6.653699 
Q 3.240243 -8.870829 0.972304 -8.870829 
z
M 0.972304 -11.18034 
Q 4.598235 -11.18034 6.51051 -8.311928 
Q 8.422784 -5.448135 8.422784 0.006929 
Q 8.422784 5.448135 6.51051 8.316547 
Q 4.598235 11.18034 0.972304 11.18034 
Q -2.649008 11.18034 -4.561283 8.316547 
Q -6.473558 5.448135 -6.473558 0.006929 
Q -6.473558 -5.448135 -4.561283 -8.311928 
Q -2.649008 -11.18034 0.972304 -11.18034 
z
" id="m7643688e10" style="stroke:#808080;"/>
    </defs>
    <g clip-path="url(#p6fd04c88c3)">
     <use style="fill:#808080;stroke:#808080;" x="477.107394" xlink:href="#m7643688e10" y="276.882917"/>
    </g>
   </g>
   <g id="PathCollection_2">
    <defs>
     <path d="M -4.535873 8.63565 
L 0.404946 8.63565 
L 0.404946 -8.424791 
L -4.971969 -7.346533 
L -4.971969 -10.102082 
L 0.376192 -11.18034 
L 3.400108 -11.18034 
L 3.400108 8.63565 
L 8.340927 8.63565 
L 8.340927 11.18034 
L -4.535873 11.18034 
L -4.535873 8.63565 
z
" id="mc5664b84a5" style="stroke:#808080;"/>
    </defs>
    <g clip-path="url(#p6fd04c88c3)">
     <use style="fill:#808080;stroke:#808080;" x="350.842943" xlink:href="#mc5664b84a5" y="233.694822"/>
    </g>
   </g>
   <g id="PathCollection_3">
    <defs>
     <path d="M -2.294912 8.680651 
L 8.075736 8.680651 
L 8.075736 11.18034 
L -5.867913 11.18034 
L -5.867913 8.680651 
Q -4.177916 6.929457 -1.259259 3.982555 
Q 1.664105 1.030945 2.4126 0.174178 
Q 3.838976 -1.426376 4.403877 -2.537349 
Q 4.973486 -3.648321 4.973486 -4.721634 
Q 4.973486 -6.472828 3.744825 -7.574386 
Q 2.516165 -8.680651 0.543718 -8.680651 
Q -0.854413 -8.680651 -2.407892 -8.195778 
Q -3.956663 -7.710904 -5.72198 -6.722326 
L -5.72198 -9.725719 
Q -3.928418 -10.445968 -2.370232 -10.813154 
Q -0.807338 -11.18034 0.487227 -11.18034 
Q 3.900173 -11.18034 5.929111 -9.471513 
Q 7.958048 -7.767394 7.958048 -4.914642 
Q 7.958048 -3.558879 7.449637 -2.344341 
Q 6.945933 -1.13451 5.604292 0.513119 
Q 5.237107 0.941502 3.264659 2.979855 
Q 1.296919 5.018207 -2.294912 8.680651 
z
" id="m5b34b46667" style="stroke:#808080;"/>
    </defs>
    <g clip-path="url(#p6fd04c88c3)">
     <use style="fill:#808080;stroke:#808080;" x="130.701735" xlink:href="#m5b34b46667" y="110.223378"/>
    </g>
   </g>
   <g id="PathCollection_4">
    <defs>
     <path d="M 3.77605 -0.861447 
Q 5.868466 -0.413402 7.041697 1.004637 
Q 8.219548 2.418057 8.219548 4.496617 
Q 8.219548 7.683741 6.025513 9.43435 
Q 3.831478 11.18034 -0.210165 11.18034 
Q -1.563539 11.18034 -3.000054 10.912437 
Q -4.436569 10.644533 -5.965465 10.108727 
L -5.965465 7.295743 
Q -4.755282 8.002454 -3.314147 8.362737 
Q -1.868394 8.723021 -0.293308 8.723021 
Q 2.445772 8.723021 3.882287 7.64217 
Q 5.318802 6.561319 5.318802 4.496617 
Q 5.318802 2.588961 3.983905 1.517348 
Q 2.649008 0.441116 0.270213 0.441116 
L -2.242535 0.441116 
L -2.242535 -1.956155 
L 0.385688 -1.956155 
Q 2.533533 -1.956155 3.674431 -2.815293 
Q 4.815329 -3.674431 4.815329 -5.291088 
Q 4.815329 -6.949317 3.637479 -7.836169 
Q 2.464248 -8.72764 0.270213 -8.72764 
Q -0.930733 -8.72764 -2.302582 -8.464356 
Q -3.674431 -8.20569 -5.318802 -7.660646 
L -5.318802 -10.256536 
Q -3.655955 -10.718438 -2.205582 -10.949389 
Q -0.75521 -11.18034 0.528878 -11.18034 
Q 3.849954 -11.18034 5.780705 -9.66992 
Q 7.716074 -8.164119 7.716074 -5.595944 
Q 7.716074 -3.803764 6.690652 -2.570485 
Q 5.665229 -1.337207 3.77605 -0.861447 
z
" id="m9c514ec2e9" style="stroke:#808080;"/>
    </defs>
    <g clip-path="url(#p6fd04c88c3)">
     <use style="fill:#808080;stroke:#808080;" x="115.055505" xlink:href="#m9c514ec2e9" y="302.964148"/>
    </g>
   </g>
   <g id="PathCollection_5">
    <defs>
     <path d="M 2.695646 -8.544598 
L -4.943215 3.392919 
L 2.695646 3.392919 
L 2.695646 -8.544598 
z
M 1.900131 -11.18034 
L 5.705184 -11.18034 
L 5.705184 3.392919 
L 8.896829 3.392919 
L 8.896829 5.908855 
L 5.705184 5.908855 
L 5.705184 11.18034 
L 2.695646 11.18034 
L 2.695646 5.908855 
L -7.396852 5.908855 
L -7.396852 2.99037 
L 1.900131 -11.18034 
z
" id="mfd8ec90d0b" style="stroke:#808080;"/>
    </defs>
    <g clip-path="url(#p6fd04c88c3)">
     <use style="fill:#808080;stroke:#808080;" x="314.983165" xlink:href="#mfd8ec90d0b" y="358.985469"/>
    </g>
   </g>
   <g id="PathCollection_6">
    <defs>
     <path d="M -5.008473 -11.18034 
L 6.639575 -11.18034 
L 6.639575 -8.679629 
L -2.291535 -8.679629 
L -2.291535 -3.306861 
Q -1.647555 -3.527789 -1.003575 -3.635902 
Q -0.354894 -3.744015 0.293787 -3.744015 
Q 3.964943 -3.744015 6.108409 -1.732165 
Q 8.256576 0.279685 8.256576 3.715812 
Q 8.256576 7.255352 6.052002 9.220196 
Q 3.847428 11.18034 -0.16217 11.18034 
Q -1.544142 11.18034 -2.97782 10.945311 
Q -4.406798 10.710281 -5.934488 10.240223 
L -5.934488 7.255352 
Q -4.613624 7.974541 -3.203448 8.327085 
Q -1.793273 8.679629 -0.223278 8.679629 
Q 2.319738 8.679629 3.800422 7.344663 
Q 5.285807 6.009697 5.285807 3.715812 
Q 5.285807 1.426627 3.800422 0.091661 
Q 2.319738 -1.248005 -0.223278 -1.248005 
Q -1.412526 -1.248005 -2.597073 -0.984772 
Q -3.77692 -0.72154 -5.008473 -0.16217 
L -5.008473 -11.18034 
z
" id="m281dc8baee" style="stroke:#808080;"/>
    </defs>
    <g clip-path="url(#p6fd04c88c3)">
     <use style="fill:#808080;stroke:#808080;" x="344.012232" xlink:href="#m281dc8baee" y="425.923692"/>
    </g>
   </g>
   <g id="PathCollection_7">
    <defs>
     <path d="M 1.286397 -1.175541 
Q -0.676687 -1.175541 -1.826823 0.168594 
Q -2.97234 1.50811 -2.97234 3.845335 
Q -2.97234 6.168702 -1.826823 7.522075 
Q -0.676687 8.870829 1.286397 8.870829 
Q 3.249481 8.870829 4.394998 7.522075 
Q 5.540515 6.168702 5.540515 3.845335 
Q 5.540515 1.50811 4.394998 0.168594 
Q 3.249481 -1.175541 1.286397 -1.175541 
z
M 7.07403 -10.316583 
L 7.07403 -7.660646 
Q 5.974703 -8.177976 4.8569 -8.450499 
Q 3.739097 -8.72764 2.63977 -8.72764 
Q -0.247118 -8.72764 -1.771394 -6.778413 
Q -3.291052 -4.829186 -3.508146 -0.889162 
Q -2.658246 -2.145535 -1.374159 -2.815293 
Q -0.085452 -3.485051 1.457301 -3.485051 
Q 4.704473 -3.485051 6.589033 -1.512729 
Q 8.473594 0.454974 8.473594 3.845335 
Q 8.473594 7.166411 6.51051 9.175685 
Q 4.547426 11.18034 1.286397 11.18034 
Q -2.45501 11.18034 -4.43195 8.316547 
Q -6.408891 5.448135 -6.408891 0.006929 
Q -6.408891 -5.101708 -3.983905 -8.141024 
Q -1.55892 -11.18034 2.524295 -11.18034 
Q 3.623622 -11.18034 4.741425 -10.963246 
Q 5.859228 -10.746152 7.07403 -10.316583 
z
" id="me4e9cd7173" style="stroke:#808080;"/>
    </defs>
    <g clip-path="url(#p6fd04c88c3)">
     <use style="fill:#808080;stroke:#808080;" x="456.7543" xlink:href="#me4e9cd7173" y="537.154818"/>
    </g>
   </g>
   <g id="PathCollection_8">
    <defs>
     <path d="M -5.93042 -11.18034 
L 8.446356 -11.18034 
L 8.446356 -9.891222 
L 0.32827 11.18034 
L -2.829829 11.18034 
L 4.809032 -8.630858 
L -5.93042 -8.630858 
L -5.93042 -11.18034 
z
" id="m19e4cb2eac" style="stroke:#808080;"/>
    </defs>
    <g clip-path="url(#p6fd04c88c3)">
     <use style="fill:#808080;stroke:#808080;" x="525.592711" xlink:href="#m19e4cb2eac" y="452.362783"/>
    </g>
   </g>
   <g id="PathCollection_9"/>
   <g id="PathCollection_10"/>
   <g id="PathCollection_11"/>
   <g id="PathCollection_12"/>
   <g id="PathCollection_13"/>
   <g id="matplotlib.axis_1">
    <g id="xtick_1">
     <g id="line2d_1">
      <defs>
       <path d="M 0 0 
L 0 3.5 
" id="m9c7489f5f1" style="stroke:#000000;stroke-width:0.8;"/>
      </defs>
      <g>
       <use style="stroke:#000000;stroke-width:0.8;" x="100.820196" xlink:href="#m9c7489f5f1" y="630"/>
      </g>
     </g>
     <g id="text_1">
      <!-- −200 -->
      <g transform="translate(87.086603 644.598438)scale(0.1 -0.1)">
       <defs>
        <path d="M 678 2272 
L 4684 2272 
L 4684 1741 
L 678 1741 
L 678 2272 
z
" id="DejaVuSans-2212" transform="scale(0.015625)"/>
        <path d="M 1228 531 
L 3431 531 
L 3431 0 
L 469 0 
L 469 531 
Q 828 903 1448 1529 
Q 2069 2156 2228 2338 
Q 2531 2678 2651 2914 
Q 2772 3150 2772 3378 
Q 2772 3750 2511 3984 
Q 2250 4219 1831 4219 
Q 1534 4219 1204 4116 
Q 875 4013 500 3803 
L 500 4441 
Q 881 4594 1212 4672 
Q 1544 4750 1819 4750 
Q 2544 4750 2975 4387 
Q 3406 4025 3406 3419 
Q 3406 3131 3298 2873 
Q 3191 2616 2906 2266 
Q 2828 2175 2409 1742 
Q 1991 1309 1228 531 
z
" id="DejaVuSans-32" transform="scale(0.015625)"/>
        <path d="M 2034 4250 
Q 1547 4250 1301 3770 
Q 1056 3291 1056 2328 
Q 1056 1369 1301 889 
Q 1547 409 2034 409 
Q 2525 409 2770 889 
Q 3016 1369 3016 2328 
Q 3016 3291 2770 3770 
Q 2525 4250 2034 4250 
z
M 2034 4750 
Q 2819 4750 3233 4129 
Q 3647 3509 3647 2328 
Q 3647 1150 3233 529 
Q 2819 -91 2034 -91 
Q 1250 -91 836 529 
Q 422 1150 422 2328 
Q 422 3509 836 4129 
Q 1250 4750 2034 4750 
z
" id="DejaVuSans-30" transform="scale(0.015625)"/>
       </defs>
       <use xlink:href="#DejaVuSans-2212"/>
       <use x="83.789062" xlink:href="#DejaVuSans-32"/>
       <use x="147.412109" xlink:href="#DejaVuSans-30"/>
       <use x="211.035156" xlink:href="#DejaVuSans-30"/>
      </g>
     </g>
    </g>
    <g id="xtick_2">
     <g id="line2d_2">
      <g>
       <use style="stroke:#000000;stroke-width:0.8;" x="201.709487" xlink:href="#m9c7489f5f1" y="630"/>
      </g>
     </g>
     <g id="text_2">
      <!-- −100 -->
      <g transform="translate(187.975893 644.598438)scale(0.1 -0.1)">
       <defs>
        <path d="M 794 531 
L 1825 531 
L 1825 4091 
L 703 3866 
L 703 4441 
L 1819 4666 
L 2450 4666 
L 2450 531 
L 3481 531 
L 3481 0 
L 794 0 
L 794 531 
z
" id="DejaVuSans-31" transform="scale(0.015625)"/>
       </defs>
       <use xlink:href="#DejaVuSans-2212"/>
       <use x="83.789062" xlink:href="#DejaVuSans-31"/>
       <use x="147.412109" xlink:href="#DejaVuSans-30"/>
       <use x="211.035156" xlink:href="#DejaVuSans-30"/>
      </g>
     </g>
    </g>
    <g id="xtick_3">
     <g id="line2d_3">
      <g>
       <use style="stroke:#000000;stroke-width:0.8;" x="302.598777" xlink:href="#m9c7489f5f1" y="630"/>
      </g>
     </g>
     <g id="text_3">
      <!-- 0 -->
      <g transform="translate(299.417527 644.598438)scale(0.1 -0.1)">
       <use xlink:href="#DejaVuSans-30"/>
      </g>
     </g>
    </g>
    <g id="xtick_4">
     <g id="line2d_4">
      <g>
       <use style="stroke:#000000;stroke-width:0.8;" x="403.488067" xlink:href="#m9c7489f5f1" y="630"/>
      </g>
     </g>
     <g id="text_4">
      <!-- 100 -->
      <g transform="translate(393.944317 644.598438)scale(0.1 -0.1)">
       <use xlink:href="#DejaVuSans-31"/>
       <use x="63.623047" xlink:href="#DejaVuSans-30"/>
       <use x="127.246094" xlink:href="#DejaVuSans-30"/>
      </g>
     </g>
    </g>
    <g id="xtick_5">
     <g id="line2d_5">
      <g>
       <use style="stroke:#000000;stroke-width:0.8;" x="504.377358" xlink:href="#m9c7489f5f1" y="630"/>
      </g>
     </g>
     <g id="text_5">
      <!-- 200 -->
      <g transform="translate(494.833608 644.598438)scale(0.1 -0.1)">
       <use xlink:href="#DejaVuSans-32"/>
       <use x="63.623047" xlink:href="#DejaVuSans-30"/>
       <use x="127.246094" xlink:href="#DejaVuSans-30"/>
      </g>
     </g>
    </g>
    <g id="xtick_6">
     <g id="line2d_6">
      <g>
       <use style="stroke:#000000;stroke-width:0.8;" x="605.266648" xlink:href="#m9c7489f5f1" y="630"/>
      </g>
     </g>
     <g id="text_6">
      <!-- 300 -->
      <g transform="translate(595.722898 644.598438)scale(0.1 -0.1)">
       <defs>
        <path d="M 2597 2516 
Q 3050 2419 3304 2112 
Q 3559 1806 3559 1356 
Q 3559 666 3084 287 
Q 2609 -91 1734 -91 
Q 1441 -91 1130 -33 
Q 819 25 488 141 
L 488 750 
Q 750 597 1062 519 
Q 1375 441 1716 441 
Q 2309 441 2620 675 
Q 2931 909 2931 1356 
Q 2931 1769 2642 2001 
Q 2353 2234 1838 2234 
L 1294 2234 
L 1294 2753 
L 1863 2753 
Q 2328 2753 2575 2939 
Q 2822 3125 2822 3475 
Q 2822 3834 2567 4026 
Q 2313 4219 1838 4219 
Q 1578 4219 1281 4162 
Q 984 4106 628 3988 
L 628 4550 
Q 988 4650 1302 4700 
Q 1616 4750 1894 4750 
Q 2613 4750 3031 4423 
Q 3450 4097 3450 3541 
Q 3450 3153 3228 2886 
Q 3006 2619 2597 2516 
z
" id="DejaVuSans-33" transform="scale(0.015625)"/>
       </defs>
       <use xlink:href="#DejaVuSans-33"/>
       <use x="63.623047" xlink:href="#DejaVuSans-30"/>
       <use x="127.246094" xlink:href="#DejaVuSans-30"/>
      </g>
     </g>
    </g>
   </g>
   <g id="matplotlib.axis_2">
    <g id="ytick_1">
     <g id="line2d_7">
      <defs>
       <path d="M 0 0 
L -3.5 0 
" id="mf0a577508c" style="stroke:#000000;stroke-width:0.8;"/>
      </defs>
      <g>
       <use style="stroke:#000000;stroke-width:0.8;" x="90" xlink:href="#mf0a577508c" y="619.459035"/>
      </g>
     </g>
     <g id="text_7">
      <!-- −200 -->
      <g transform="translate(55.532812 623.258253)scale(0.1 -0.1)">
       <use xlink:href="#DejaVuSans-2212"/>
       <use x="83.789062" xlink:href="#DejaVuSans-32"/>
       <use x="147.412109" xlink:href="#DejaVuSans-30"/>
       <use x="211.035156" xlink:href="#DejaVuSans-30"/>
      </g>
     </g>
    </g>
    <g id="ytick_2">
     <g id="line2d_8">
      <g>
       <use style="stroke:#000000;stroke-width:0.8;" x="90" xlink:href="#mf0a577508c" y="521.173339"/>
      </g>
     </g>
     <g id="text_8">
      <!-- −100 -->
      <g transform="translate(55.532812 524.972558)scale(0.1 -0.1)">
       <use xlink:href="#DejaVuSans-2212"/>
       <use x="83.789062" xlink:href="#DejaVuSans-31"/>
       <use x="147.412109" xlink:href="#DejaVuSans-30"/>
       <use x="211.035156" xlink:href="#DejaVuSans-30"/>
      </g>
     </g>
    </g>
    <g id="ytick_3">
     <g id="line2d_9">
      <g>
       <use style="stroke:#000000;stroke-width:0.8;" x="90" xlink:href="#mf0a577508c" y="422.887643"/>
      </g>
     </g>
     <g id="text_9">
      <!-- 0 -->
      <g transform="translate(76.6375 426.686862)scale(0.1 -0.1)">
       <use xlink:href="#DejaVuSans-30"/>
      </g>
     </g>
    </g>
    <g id="ytick_4">
     <g id="line2d_10">
      <g>
       <use style="stroke:#000000;stroke-width:0.8;" x="90" xlink:href="#mf0a577508c" y="324.601947"/>
      </g>
     </g>
     <g id="text_10">
      <!-- 100 -->
      <g transform="translate(63.9125 328.401166)scale(0.1 -0.1)">
       <use xlink:href="#DejaVuSans-31"/>
       <use x="63.623047" xlink:href="#DejaVuSans-30"/>
       <use x="127.246094" xlink:href="#DejaVuSans-30"/>
      </g>
     </g>
    </g>
    <g id="ytick_5">
     <g id="line2d_11">
      <g>
       <use style="stroke:#000000;stroke-width:0.8;" x="90" xlink:href="#mf0a577508c" y="226.316251"/>
      </g>
     </g>
     <g id="text_11">
      <!-- 200 -->
      <g transform="translate(63.9125 230.11547)scale(0.1 -0.1)">
       <use xlink:href="#DejaVuSans-32"/>
       <use x="63.623047" xlink:href="#DejaVuSans-30"/>
       <use x="127.246094" xlink:href="#DejaVuSans-30"/>
      </g>
     </g>
    </g>
    <g id="ytick_6">
     <g id="line2d_12">
      <g>
       <use style="stroke:#000000;stroke-width:0.8;" x="90" xlink:href="#mf0a577508c" y="128.030556"/>
      </g>
     </g>
     <g id="text_12">
      <!-- 300 -->
      <g transform="translate(63.9125 131.829774)scale(0.1 -0.1)">
       <use xlink:href="#DejaVuSans-33"/>
       <use x="63.623047" xlink:href="#DejaVuSans-30"/>
       <use x="127.246094" xlink:href="#DejaVuSans-30"/>
      </g>
     </g>
    </g>
   </g>
   <g id="line2d_13">
    <path clip-path="url(#p6fd04c88c3)" d="M 525.592711 452.362783 
L 525.153428 447.419929 
L 524.676831 442.480512 
L 524.16195 437.545054 
L 523.607812 432.614105 
L 523.013434 427.688237 
L 522.37783 422.768037 
L 521.700012 417.854114 
L 520.978987 412.947085 
L 520.213764 408.047584 
L 519.403352 403.156252 
L 518.546762 398.273742 
L 517.64301 393.400716 
L 516.691116 388.537843 
L 515.690111 383.685804 
L 514.63903 378.845288 
L 513.536924 374.016995 
L 512.382854 369.201636 
L 511.175897 364.399937 
L 509.915144 359.612636 
L 508.599708 354.840488 
L 507.228717 350.084264 
L 505.801324 345.344758 
L 504.316702 340.622781 
L 502.774046 335.919171 
L 501.172577 331.23479 
L 499.511535 326.570528 
L 497.790186 321.927305 
L 496.007814 317.306073 
L 494.163722 312.707822 
L 492.257227 308.133578 
L 490.287656 303.584412 
L 488.254341 299.061443 
L 486.15661 294.565843 
L 483.993778 290.098846 
L 481.765137 285.661754 
L 479.469942 281.255952 
L 477.107394 276.882917 
" style="fill:none;stroke:#808080;stroke-linecap:square;stroke-width:1.5;"/>
   </g>
   <g id="line2d_14">
    <path clip-path="url(#p6fd04c88c3)" d="M 477.107394 452.362783 
L 477.107394 276.882917 
L 525.592711 276.882917 
L 525.592711 452.362783 
L 477.107394 452.362783 
" style="fill:none;stroke:#d3d3d3;stroke-linecap:square;stroke-width:0.5;"/>
   </g>
   <g id="line2d_15">
    <path clip-path="url(#p6fd04c88c3)" d="M 477.107394 276.882917 
L 474.676624 272.544239 
L 472.176667 268.241639 
L 469.606438 263.976998 
L 466.9647 259.752388 
L 464.250026 255.570114 
L 461.460755 251.432768 
L 458.594937 247.343294 
L 455.650272 243.305075 
L 452.624029 239.322044 
L 449.512949 235.39883 
L 446.313134 231.54095 
L 443.019902 227.755068 
L 439.627611 224.049348 
L 436.129451 220.433942 
L 432.517199 216.921676 
L 428.780932 213.529037 
L 424.908766 210.2776 
L 420.886692 207.19614 
L 416.698773 204.323747 
L 412.3283 201.714327 
L 407.761145 199.442711 
L 402.993616 197.611318 
L 398.047517 196.352628 
L 392.991005 195.815596 
L 387.949695 196.122589 
L 383.081362 197.309583 
L 378.51744 199.302221 
L 374.321728 201.955325 
L 370.495393 205.113064 
L 367.004892 208.644261 
L 363.805444 212.450109 
L 360.853276 216.459279 
L 358.110134 220.620648 
L 355.544072 224.897248 
L 353.128849 229.261993 
L 350.842943 233.694822 
" style="fill:none;stroke:#808080;stroke-linecap:square;stroke-width:1.5;"/>
   </g>
   <g id="line2d_16">
    <path clip-path="url(#p6fd04c88c3)" d="M 350.842943 276.882917 
L 350.842943 195.815596 
L 477.107394 195.815596 
L 477.107394 276.882917 
L 350.842943 276.882917 
" style="fill:none;stroke:#d3d3d3;stroke-linecap:square;stroke-width:0.5;"/>
   </g>
   <g id="line2d_17">
    <path clip-path="url(#p6fd04c88c3)" d="M 350.842943 233.694822 
L 347.744717 237.70189 
L 343.348434 240.326342 
L 338.362088 241.646641 
L 333.20563 242.041247 
L 328.036227 241.808084 
L 322.905656 241.133081 
L 317.829341 240.131512 
L 312.810072 238.877934 
L 307.846231 237.422912 
L 302.934795 235.80223 
L 298.072465 234.042142 
L 293.256093 232.1625 
L 288.48282 230.178695 
L 283.750109 228.102918 
L 279.055729 225.944996 
L 274.397725 223.712971 
L 269.774383 221.413509 
L 265.184202 219.052194 
L 260.625867 216.633745 
L 256.098222 214.162183 
L 251.60025 211.640951 
L 247.131062 209.073014 
L 242.689876 206.460933 
L 238.276012 203.806921 
L 233.888878 201.112896 
L 229.527968 198.380512 
L 225.192854 195.611197 
L 220.883182 192.806167 
L 216.598672 189.966452 
L 212.339116 187.09291 
L 208.104378 184.186234 
L 203.8944 181.246962 
L 199.709202 178.275481 
L 195.548893 175.272027 
L 191.413678 172.236683 
L 187.303869 169.169376 
L 183.219906 166.069859 
L 179.162377 162.937702 
L 175.132047 159.772266 
L 171.129904 156.57267 
L 167.157208 153.33775 
L 163.215578 150.065989 
L 159.307099 146.755434 
L 155.434495 143.403555 
L 151.60138 140.007054 
L 147.812676 136.561541 
L 144.075309 133.061022 
L 140.399482 129.496964 
L 136.801228 125.856501 
L 133.308312 122.118456 
L 129.97709 118.242665 
L 126.964895 114.129789 
L 125.784518 109.53572 
L 130.701735 110.223378 
" style="fill:none;stroke:#808080;stroke-linecap:square;stroke-width:1.5;"/>
   </g>
   <g id="line2d_18">
    <path clip-path="url(#p6fd04c88c3)" d="M 125.784518 242.041247 
L 125.784518 109.53572 
L 350.842943 109.53572 
L 350.842943 242.041247 
L 125.784518 242.041247 
" style="fill:none;stroke:#d3d3d3;stroke-linecap:square;stroke-width:0.5;"/>
   </g>
   <g id="line2d_19">
    <path clip-path="url(#p6fd04c88c3)" d="M 130.701735 110.223378 
L 134.212632 113.730151 
L 136.252041 118.291222 
L 137.653965 123.07357 
L 138.699793 127.935904 
L 139.51142 132.836106 
L 140.153406 137.757533 
L 140.664496 142.69244 
L 141.069974 147.636793 
L 141.387363 152.588301 
L 141.629358 157.545551 
L 141.805483 162.5076 
L 141.923072 167.473762 
L 141.987898 172.443497 
L 142.004583 177.416346 
L 141.976874 182.391893 
L 141.907844 187.369744 
L 141.800023 192.349518 
L 141.655508 197.330835 
L 141.476032 202.313317 
L 141.263022 207.296583 
L 141.017639 212.280252 
L 140.740804 217.263942 
L 140.433225 222.24727 
L 140.095402 227.229853 
L 139.727635 232.211311 
L 139.330025 237.191267 
L 138.902458 242.169343 
L 138.444595 247.145163 
L 137.955837 252.11835 
L 137.435291 257.088519 
L 136.881703 262.055273 
L 136.29338 267.018187 
L 135.668066 271.976795 
L 135.002761 276.930552 
L 134.293454 281.878787 
L 133.534701 286.820613 
L 132.718937 291.754765 
L 131.835286 296.679276 
L 130.867337 301.5908 
L 129.788556 306.482961 
L 128.551301 311.341712 
L 127.053414 316.129047 
L 124.960882 320.70853 
L 120.924235 321.82151 
L 118.651003 317.473733 
L 117.19402 312.706236 
L 116.041905 307.853555 
L 115.055505 302.964148 
" style="fill:none;stroke:#808080;stroke-linecap:square;stroke-width:1.5;"/>
   </g>
   <g id="line2d_20">
    <path clip-path="url(#p6fd04c88c3)" d="M 115.055505 321.82151 
L 115.055505 110.223378 
L 142.004583 110.223378 
L 142.004583 321.82151 
L 115.055505 321.82151 
" style="fill:none;stroke:#d3d3d3;stroke-linecap:square;stroke-width:0.5;"/>
   </g>
   <g id="line2d_21">
    <path clip-path="url(#p6fd04c88c3)" d="M 115.055505 302.964148 
L 115.236768 297.945834 
L 117.344597 293.349 
L 120.681819 289.483016 
L 124.734879 286.309407 
L 129.217906 283.722563 
L 133.971306 281.630597 
L 138.900299 279.963608 
L 143.94497 278.669309 
L 149.065269 277.70822 
L 154.233015 277.050047 
L 159.427392 276.671116 
L 164.632315 276.552548 
L 169.834825 276.67895 
L 175.02411 277.037439 
L 180.19089 277.616921 
L 185.327048 278.407528 
L 190.425406 279.400189 
L 195.479609 280.586292 
L 200.484076 281.95743 
L 205.433998 283.505219 
L 210.32535 285.221165 
L 215.154927 287.096602 
L 219.920363 289.122669 
L 224.62014 291.290335 
L 229.253581 293.590452 
L 233.820811 296.013842 
L 238.322698 298.551386 
L 242.760774 301.194129 
L 247.137133 303.933372 
L 251.45433 306.760761 
L 255.715268 309.668353 
L 259.923096 312.648672 
L 264.081103 315.69474 
L 268.192639 318.800099 
L 272.261038 321.958808 
L 276.289554 325.165437 
L 280.281321 328.415045 
L 284.239315 331.703158 
L 288.166333 335.02573 
L 292.064982 338.379122 
L 295.937672 341.76006 
L 299.786621 345.165608 
L 303.613861 348.59314 
L 307.421253 352.040311 
L 311.210499 355.505036 
L 314.983165 358.985469 
" style="fill:none;stroke:#808080;stroke-linecap:square;stroke-width:1.5;"/>
   </g>
   <g id="line2d_22">
    <path clip-path="url(#p6fd04c88c3)" d="M 115.055505 358.985469 
L 115.055505 276.552548 
L 314.983165 276.552548 
L 314.983165 358.985469 
L 115.055505 358.985469 
" style="fill:none;stroke:#d3d3d3;stroke-linecap:square;stroke-width:0.5;"/>
   </g>
   <g id="line2d_23">
    <path clip-path="url(#p6fd04c88c3)" d="M 314.983165 358.985469 
L 318.894707 362.580522 
L 322.835289 366.143878 
L 326.805828 369.673937 
L 330.807388 373.168888 
L 334.841202 376.626671 
L 338.908712 380.044921 
L 343.011608 383.420887 
L 347.151891 386.75134 
L 351.331938 390.032424 
L 355.554598 393.259467 
L 359.823304 396.426689 
L 364.142187 399.526798 
L 368.5161 402.550416 
L 372.950039 405.485558 
L 377.444285 408.319776 
L 381.996708 411.181506 
L 378.048891 411.983977 
L 372.715635 412.492426 
L 367.469272 413.578211 
L 362.36936 415.204847 
L 357.456615 417.3139 
L 352.754763 419.842745 
L 348.273513 422.730944 
L 344.012232 425.923692 
" style="fill:none;stroke:#808080;stroke-linecap:square;stroke-width:1.5;"/>
   </g>
   <g id="line2d_24">
    <path clip-path="url(#p6fd04c88c3)" d="M 314.983165 425.923692 
L 314.983165 358.985469 
L 381.996708 358.985469 
L 381.996708 425.923692 
L 314.983165 425.923692 
" style="fill:none;stroke:#d3d3d3;stroke-linecap:square;stroke-width:0.5;"/>
   </g>
   <g id="line2d_25">
    <path clip-path="url(#p6fd04c88c3)" d="M 344.012232 425.923692 
L 340.016456 429.230094 
L 336.160009 432.698081 
L 332.541927 436.410731 
L 329.412632 440.523886 
L 327.586813 445.2733 
L 328.95346 450.077726 
L 332.788956 453.492711 
L 337.290812 456.035973 
L 341.999184 458.223843 
L 346.785676 460.273335 
L 351.596639 462.288792 
L 356.403929 464.327287 
L 361.190347 466.422401 
L 365.944212 468.594485 
L 370.657043 470.855728 
L 375.322466 473.212941 
L 379.935651 475.669233 
L 384.492992 478.225096 
L 388.9919 480.879163 
L 393.430655 483.628753 
L 397.808286 486.470275 
L 402.124464 489.399547 
L 406.379404 492.412032 
L 410.57378 495.503023 
L 414.708638 498.667778 
L 418.785324 501.901625 
L 422.805422 505.200037 
L 426.770688 508.558678 
L 430.683005 511.973438 
L 434.54434 515.440454 
L 438.356704 518.956113 
L 442.122125 522.517054 
L 445.842624 526.120163 
L 449.520195 529.762561 
L 453.156787 533.441595 
L 456.7543 537.154818 
" style="fill:none;stroke:#808080;stroke-linecap:square;stroke-width:1.5;"/>
   </g>
   <g id="line2d_26">
    <path clip-path="url(#p6fd04c88c3)" d="M 327.586813 537.154818 
L 327.586813 425.923692 
L 456.7543 425.923692 
L 456.7543 537.154818 
L 327.586813 537.154818 
" style="fill:none;stroke:#d3d3d3;stroke-linecap:square;stroke-width:0.5;"/>
   </g>
   <g id="line2d_27">
    <path clip-path="url(#p6fd04c88c3)" d="M 456.7543 537.154818 
L 460.492768 540.768705 
L 464.530357 544.061306 
L 468.889246 546.935626 
L 473.577683 549.260393 
L 478.569803 550.868242 
L 483.776268 551.574823 
L 489.024364 551.236089 
L 494.086688 549.826889 
L 498.764197 547.467821 
L 502.952567 544.361984 
L 506.638475 540.709334 
L 509.858169 536.665302 
L 512.663178 532.339395 
L 515.103712 527.807085 
L 517.223294 523.121111 
L 519.058144 518.319269 
L 520.638063 513.429332 
L 521.987575 508.472139 
L 523.126947 503.463596 
L 524.073007 498.416022 
L 524.839788 493.339087 
L 525.439022 488.240492 
L 525.880532 483.126477 
L 526.172539 478.002194 
L 526.321906 472.872003 
L 526.334335 467.739696 
L 526.214526 462.608664 
L 525.966302 457.482036 
L 525.592711 452.362783 
" style="fill:none;stroke:#808080;stroke-linecap:square;stroke-width:1.5;"/>
   </g>
   <g id="line2d_28">
    <path clip-path="url(#p6fd04c88c3)" d="M 456.7543 551.574823 
L 456.7543 452.362783 
L 526.334335 452.362783 
L 526.334335 551.574823 
L 456.7543 551.574823 
" style="fill:none;stroke:#d3d3d3;stroke-linecap:square;stroke-width:0.5;"/>
   </g>
   <g id="line2d_29">
    <path clip-path="url(#p6fd04c88c3)" d="M 105.133394 304.74407 
L 105.133394 304.74407 
L 105.133394 304.74407 
" style="fill:none;stroke:#000000;stroke-linecap:square;stroke-width:3;"/>
   </g>
   <g id="line2d_30">
    <path clip-path="url(#p6fd04c88c3)" d="M 105.133394 304.74407 
L 105.133394 304.74407 
L 105.133394 304.74407 
L 105.133394 304.74407 
L 105.133394 304.74407 
" style="fill:none;stroke:#d3d3d3;stroke-linecap:square;stroke-width:0.5;"/>
   </g>
   <g id="line2d_31">
    <path clip-path="url(#p6fd04c88c3)" d="M 105.133394 304.74407 
L 105.133394 304.74407 
L 105.133394 304.74407 
" style="fill:none;stroke:#000000;stroke-linecap:square;stroke-width:3;"/>
   </g>
   <g id="line2d_32">
    <path clip-path="url(#p6fd04c88c3)" d="M 105.133394 304.74407 
L 105.133394 304.74407 
L 105.133394 304.74407 
L 105.133394 304.74407 
L 105.133394 304.74407 
" style="fill:none;stroke:#d3d3d3;stroke-linecap:square;stroke-width:0.5;"/>
   </g>
   <g id="line2d_33">
    <path clip-path="url(#p6fd04c88c3)" d="M 134.56233 101.142854 
L 134.56233 101.142854 
L 137.574092 103.900528 
" style="fill:none;stroke:#000000;stroke-linecap:square;stroke-width:3;"/>
   </g>
   <g id="line2d_34">
    <path clip-path="url(#p6fd04c88c3)" d="M 134.56233 103.900528 
L 134.56233 101.142854 
L 137.574092 101.142854 
L 137.574092 103.900528 
L 134.56233 103.900528 
" style="fill:none;stroke:#d3d3d3;stroke-linecap:square;stroke-width:0.5;"/>
   </g>
   <g id="line2d_35">
    <path clip-path="url(#p6fd04c88c3)" d="M 134.56233 101.142854 
L 134.56233 101.142854 
L 134.56233 101.142854 
" style="fill:none;stroke:#000000;stroke-linecap:square;stroke-width:3;"/>
   </g>
   <g id="line2d_36">
    <path clip-path="url(#p6fd04c88c3)" d="M 134.56233 101.142854 
L 134.56233 101.142854 
L 134.56233 101.142854 
L 134.56233 101.142854 
L 134.56233 101.142854 
" style="fill:none;stroke:#d3d3d3;stroke-linecap:square;stroke-width:0.5;"/>
   </g>
   <g id="line2d_37">
    <path clip-path="url(#p6fd04c88c3)" d="M 321.935479 351.863067 
L 321.935479 351.863067 
L 321.935479 351.863067 
" style="fill:none;stroke:#000000;stroke-linecap:square;stroke-width:3;"/>
   </g>
   <g id="line2d_38">
    <path clip-path="url(#p6fd04c88c3)" d="M 321.935479 351.863067 
L 321.935479 351.863067 
L 321.935479 351.863067 
L 321.935479 351.863067 
L 321.935479 351.863067 
" style="fill:none;stroke:#d3d3d3;stroke-linecap:square;stroke-width:0.5;"/>
   </g>
   <g id="line2d_39">
    <path clip-path="url(#p6fd04c88c3)" d="M 321.935479 351.863067 
L 321.935479 351.863067 
L 321.935479 351.863067 
" style="fill:none;stroke:#000000;stroke-linecap:square;stroke-width:3;"/>
   </g>
   <g id="line2d_40">
    <path clip-path="url(#p6fd04c88c3)" d="M 321.935479 351.863067 
L 321.935479 351.863067 
L 321.935479 351.863067 
L 321.935479 351.863067 
L 321.935479 351.863067 
" style="fill:none;stroke:#d3d3d3;stroke-linecap:square;stroke-width:0.5;"/>
   </g>
   <g id="line2d_41">
    <path clip-path="url(#p6fd04c88c3)" d="M 350.421658 433.514014 
L 350.421658 433.514014 
L 350.421658 433.514014 
" style="fill:none;stroke:#000000;stroke-linecap:square;stroke-width:3;"/>
   </g>
   <g id="line2d_42">
    <path clip-path="url(#p6fd04c88c3)" d="M 350.421658 433.514014 
L 350.421658 433.514014 
L 350.421658 433.514014 
L 350.421658 433.514014 
L 350.421658 433.514014 
" style="fill:none;stroke:#d3d3d3;stroke-linecap:square;stroke-width:0.5;"/>
   </g>
   <g id="line2d_43">
    <path clip-path="url(#p6fd04c88c3)" d="M 350.421658 433.514014 
L 350.421658 433.514014 
L 350.421658 433.514014 
" style="fill:none;stroke:#000000;stroke-linecap:square;stroke-width:3;"/>
   </g>
   <g id="line2d_44">
    <path clip-path="url(#p6fd04c88c3)" d="M 350.421658 433.514014 
L 350.421658 433.514014 
L 350.421658 433.514014 
L 350.421658 433.514014 
L 350.421658 433.514014 
" style="fill:none;stroke:#d3d3d3;stroke-linecap:square;stroke-width:0.5;"/>
   </g>
   <g id="line2d_45">
    <path clip-path="url(#p6fd04c88c3)" d="M 338.281832 445.22416 
L 337.619826 446.306649 
L 337.134512 444.326115 
L 338.281832 445.22416 
" style="fill:none;stroke:#000000;stroke-linecap:square;stroke-width:3;"/>
   </g>
   <g id="line2d_46">
    <path clip-path="url(#p6fd04c88c3)" d="M 337.134512 446.306649 
L 337.134512 444.326115 
L 338.281832 444.326115 
L 338.281832 446.306649 
L 337.134512 446.306649 
" style="fill:none;stroke:#d3d3d3;stroke-linecap:square;stroke-width:0.5;"/>
   </g>
   <g id="line2d_47">
    <path clip-path="url(#p6fd04c88c3)" d="M 308.030851 366.107871 
L 308.030851 366.107871 
L 308.030851 366.107871 
" style="fill:none;stroke:#000000;stroke-linecap:square;stroke-width:3;"/>
   </g>
   <g id="line2d_48">
    <path clip-path="url(#p6fd04c88c3)" d="M 308.030851 366.107871 
L 308.030851 366.107871 
L 308.030851 366.107871 
L 308.030851 366.107871 
L 308.030851 366.107871 
" style="fill:none;stroke:#d3d3d3;stroke-linecap:square;stroke-width:0.5;"/>
   </g>
   <g id="line2d_49">
    <path clip-path="url(#p6fd04c88c3)" d="M 308.030851 366.107871 
L 308.030851 366.107871 
L 308.030851 366.107871 
" style="fill:none;stroke:#000000;stroke-linecap:square;stroke-width:3;"/>
   </g>
   <g id="line2d_50">
    <path clip-path="url(#p6fd04c88c3)" d="M 308.030851 366.107871 
L 308.030851 366.107871 
L 308.030851 366.107871 
L 308.030851 366.107871 
L 308.030851 366.107871 
" style="fill:none;stroke:#d3d3d3;stroke-linecap:square;stroke-width:0.5;"/>
   </g>
   <g id="line2d_51">
    <path clip-path="url(#p6fd04c88c3)" d="M 375.330999 422.103444 
L 374.258605 422.205372 
L 370.103134 423.065939 
L 365.99176 424.378042 
L 361.947593 426.115004 
L 357.993575 428.242381 
L 354.147562 430.721828 
L 350.421658 433.514014 
" style="fill:none;stroke:#000000;stroke-linecap:square;stroke-width:3;"/>
   </g>
   <g id="line2d_52">
    <path clip-path="url(#p6fd04c88c3)" d="M 350.421658 433.514014 
L 350.421658 422.103444 
L 375.330999 422.103444 
L 375.330999 433.514014 
L 350.421658 433.514014 
" style="fill:none;stroke:#d3d3d3;stroke-linecap:square;stroke-width:0.5;"/>
   </g>
   <g id="line2d_53">
    <path clip-path="url(#p6fd04c88c3)" d="M 359.915684 237.99364 
L 359.915684 237.99364 
L 354.461465 245.035684 
L 347.172982 249.421331 
L 339.955816 251.351806 
L 333.289202 251.869479 
L 327.080337 251.59244 
L 321.19926 250.820049 
L 315.555437 249.707188 
L 310.090118 248.342581 
L 304.764499 246.781734 
L 299.552039 245.061859 
L 294.433916 243.20927 
L 289.396345 241.243365 
L 284.428939 239.178922 
L 279.523679 237.027497 
L 274.674244 234.798324 
L 269.875561 232.498908 
L 265.123497 230.135439 
L 260.414637 227.713083 
L 255.746129 225.236191 
L 251.115568 222.708456 
L 246.52091 220.133035 
L 241.960403 217.512633 
L 237.43254 214.849577 
L 232.936022 212.14587 
L 228.469719 209.403232 
L 224.032657 206.623137 
L 219.623991 203.806838 
L 215.242995 200.955386 
L 210.889047 198.069651 
L 206.561625 195.150326 
L 202.260295 192.197943 
L 197.984714 189.21287 
L 193.734623 186.195314 
L 189.509849 183.14532 
L 185.310306 180.062759 
L 181.136002 176.947316 
L 176.987045 173.79847 
L 172.863652 170.615469 
L 168.766164 167.397284 
L 164.695069 164.142561 
L 160.651019 160.849534 
L 156.634874 157.515916 
L 152.647739 154.138729 
L 151.570081 153.205974 
" style="fill:none;stroke:#000000;stroke-linecap:square;stroke-width:3;"/>
   </g>
   <g id="line2d_54">
    <path clip-path="url(#p6fd04c88c3)" d="M 151.570081 251.869479 
L 151.570081 153.205974 
L 359.915684 153.205974 
L 359.915684 251.869479 
L 151.570081 251.869479 
" style="fill:none;stroke:#d3d3d3;stroke-linecap:square;stroke-width:0.5;"/>
   </g>
   <g id="line2d_55">
    <path clip-path="url(#p6fd04c88c3)" d="M 151.570081 153.205974 
L 151.890286 162.226533 
L 152.010418 167.299652 
L 152.076516 172.366332 
L 152.093505 177.428039 
L 152.065343 182.485839 
L 151.99525 187.540507 
L 151.885866 192.592604 
L 151.739362 197.642524 
L 151.557528 202.69054 
L 151.341825 207.736831 
L 151.093439 212.78151 
L 150.813303 217.824636 
L 150.502128 222.866241 
L 150.160405 227.906336 
L 149.788421 232.94493 
L 149.386246 237.982045 
L 148.953732 243.017725 
L 148.490483 248.052058 
L 147.995834 253.085192 
L 147.468792 258.117359 
L 146.90798 263.148913 
L 146.315064 268.150555 
" style="fill:none;stroke:#000000;stroke-linecap:square;stroke-width:3;"/>
   </g>
   <g id="line2d_56">
    <path clip-path="url(#p6fd04c88c3)" d="M 146.315064 268.150555 
L 146.315064 153.205974 
L 152.093505 153.205974 
L 152.093505 268.150555 
L 146.315064 268.150555 
" style="fill:none;stroke:#d3d3d3;stroke-linecap:square;stroke-width:0.5;"/>
   </g>
   <g id="line2d_57">
    <path clip-path="url(#p6fd04c88c3)" d="M 350.421658 433.514014 
L 346.683827 436.606525 
L 343.203018 439.735408 
L 340.176799 442.835625 
L 338.064359 445.579763 
L 338.281832 445.22416 
" style="fill:none;stroke:#000000;stroke-linecap:square;stroke-width:3;"/>
   </g>
   <g id="line2d_58">
    <path clip-path="url(#p6fd04c88c3)" d="M 338.064359 445.579763 
L 338.064359 433.514014 
L 350.421658 433.514014 
L 350.421658 445.579763 
L 338.064359 445.579763 
" style="fill:none;stroke:#d3d3d3;stroke-linecap:square;stroke-width:0.5;"/>
   </g>
   <g id="line2d_59">
    <path clip-path="url(#p6fd04c88c3)" d="M 321.935479 351.863067 
L 325.788673 355.404496 
L 329.668082 358.912538 
L 333.57424 362.385361 
L 337.50775 365.820882 
L 341.46929 369.216718 
L 345.459614 372.570109 
L 349.47956 375.87783 
L 353.530043 379.136058 
L 357.612043 382.340195 
L 361.726574 385.484621 
L 365.874614 388.562338 
L 370.057 391.564503 
L 374.274372 394.479953 
L 378.528187 397.295913 
L 382.835544 400.012194 
L 388.292365 403.501351 
L 378.490773 421.803115 
L 375.330999 422.103444 
" style="fill:none;stroke:#000000;stroke-linecap:square;stroke-width:3;"/>
   </g>
   <g id="line2d_60">
    <path clip-path="url(#p6fd04c88c3)" d="M 321.935479 422.103444 
L 321.935479 351.863067 
L 388.292365 351.863067 
L 388.292365 422.103444 
L 321.935479 422.103444 
" style="fill:none;stroke:#d3d3d3;stroke-linecap:square;stroke-width:0.5;"/>
   </g>
   <g id="line2d_61">
    <path clip-path="url(#p6fd04c88c3)" d="M 464.124616 530.443131 
L 464.124616 530.443131 
L 467.308648 533.522232 
L 470.630219 536.232634 
L 474.051105 538.490896 
L 477.505926 540.207446 
L 480.905458 541.306682 
L 484.170373 541.753755 
L 487.290565 541.553741 
L 490.328993 540.705491 
L 493.32697 539.18872 
L 496.246652 537.018787 
L 499.016034 534.270446 
L 501.580134 531.046931 
L 503.912523 527.447766 
L 506.007425 523.555752 
L 507.870404 519.435884 
L 509.512234 515.138249 
L 510.945526 510.701377 
L 512.183013 506.155062 
L 513.236726 501.522524 
L 514.117642 496.822032 
L 514.835569 492.06811 
L 515.399148 487.272444 
L 515.815914 482.444576 
L 516.092382 477.592423 
L 516.234141 472.72269 
L 516.245944 467.841175 
L 516.131791 462.95302 
L 515.895007 458.062897 
L 515.538304 453.175162 
L 515.538304 453.175162 
" style="fill:none;stroke:#000000;stroke-linecap:square;stroke-width:3;"/>
   </g>
   <g id="line2d_62">
    <path clip-path="url(#p6fd04c88c3)" d="M 464.124616 541.753755 
L 464.124616 453.175162 
L 516.245944 453.175162 
L 516.245944 541.753755 
L 464.124616 541.753755 
" style="fill:none;stroke:#d3d3d3;stroke-linecap:square;stroke-width:0.5;"/>
   </g>
   <g id="line2d_63">
    <path clip-path="url(#p6fd04c88c3)" d="M 338.281832 445.22416 
L 338.461853 445.365068 
L 341.889346 447.287737 
L 346.153541 449.267204 
L 350.783503 451.249343 
L 355.588493 453.262292 
L 360.476063 455.334883 
L 365.394573 457.487874 
L 370.311941 459.734708 
L 375.206653 462.08325 
L 380.063566 464.537232 
L 384.871746 467.097356 
L 389.623271 469.762122 
L 394.312501 472.528461 
L 398.935595 475.392229 
L 403.490156 478.348582 
L 407.974957 481.392279 
L 412.389718 484.517901 
L 416.734918 487.720023 
L 421.011632 490.993337 
L 425.221398 494.332734 
L 429.366101 497.733367 
L 433.447876 501.190679 
L 437.469029 504.700421 
L 441.431974 508.258659 
L 445.339177 511.861766 
L 449.193116 515.506408 
L 452.99625 519.189536 
L 456.750992 522.90836 
L 460.45969 526.660333 
L 464.124616 530.443131 
L 464.124616 530.443131 
" style="fill:none;stroke:#000000;stroke-linecap:square;stroke-width:3;"/>
   </g>
   <g id="line2d_64">
    <path clip-path="url(#p6fd04c88c3)" d="M 338.281832 530.443131 
L 338.281832 445.22416 
L 464.124616 445.22416 
L 464.124616 530.443131 
L 338.281832 530.443131 
" style="fill:none;stroke:#d3d3d3;stroke-linecap:square;stroke-width:0.5;"/>
   </g>
   <g id="line2d_65">
    <path clip-path="url(#p6fd04c88c3)" d="M 146.315064 268.150555 
L 153.209399 267.272196 
L 158.938371 266.854099 
L 164.64474 266.723986 
L 170.321272 266.861811 
L 175.961222 267.25136 
L 181.558137 267.879023 
L 187.105775 268.732917 
L 192.598105 269.802238 
L 198.029357 271.076782 
L 203.39412 272.546593 
L 208.687461 274.201723 
L 213.905057 276.032077 
L 219.043325 278.027344 
L 224.099537 280.176994 
L 229.071899 282.470341 
L 233.959603 284.896636 
L 238.76282 287.4452 
L 243.482662 290.105557 
L 248.121101 292.867572 
L 252.680851 295.721569 
L 257.165239 298.658421 
L 261.578061 301.669628 
L 265.923442 304.747348 
L 270.205699 307.884417 
L 274.429226 311.074341 
L 278.598393 314.31127 
L 282.717463 317.589964 
L 286.790528 320.905744 
L 290.821471 324.254449 
L 294.813929 327.63238 
L 298.771283 331.03626 
L 302.696652 334.463182 
L 306.592893 337.91057 
L 310.46262 341.376148 
L 314.308212 344.857902 
L 318.131838 348.35406 
L 321.935479 351.863067 
" style="fill:none;stroke:#000000;stroke-linecap:square;stroke-width:3;"/>
   </g>
   <g id="line2d_66">
    <path clip-path="url(#p6fd04c88c3)" d="M 146.315064 351.863067 
L 146.315064 266.723986 
L 321.935479 266.723986 
L 321.935479 351.863067 
L 146.315064 351.863067 
" style="fill:none;stroke:#d3d3d3;stroke-linecap:square;stroke-width:0.5;"/>
   </g>
   <g id="line2d_67">
    <path clip-path="url(#p6fd04c88c3)" d="M 515.538304 453.175162 
L 515.538304 453.175162 
L 515.105341 448.303408 
L 514.635788 443.436981 
L 514.128723 438.57643 
L 513.583221 433.722323 
L 512.998352 428.87525 
L 512.373184 424.035814 
L 511.70678 419.20463 
L 510.998206 414.382326 
L 510.246528 409.569535 
L 509.450812 404.766897 
L 508.610131 399.975058 
L 507.723561 395.194668 
L 506.790184 390.42638 
L 505.809092 385.670855 
L 504.779383 380.928753 
L 503.700171 376.200746 
L 502.570577 371.487509 
L 501.389742 366.789725 
L 500.156819 362.108091 
L 498.870981 357.443311 
L 497.531418 352.796108 
L 496.137342 348.167218 
L 494.687985 343.557401 
L 493.182604 338.967436 
L 491.620477 334.398128 
L 490.000907 329.850314 
L 488.323221 325.324861 
L 486.586766 320.822675 
L 484.790914 316.344704 
L 482.935055 311.891945 
L 481.018596 307.465446 
L 479.040957 303.066319 
L 477.001569 298.695747 
L 474.899864 294.354991 
L 472.735271 290.045409 
L 470.507208 285.768466 
L 468.215072 281.525754 
" style="fill:none;stroke:#000000;stroke-linecap:square;stroke-width:3;"/>
   </g>
   <g id="line2d_68">
    <path clip-path="url(#p6fd04c88c3)" d="M 468.215072 453.175162 
L 468.215072 281.525754 
L 515.538304 281.525754 
L 515.538304 453.175162 
L 468.215072 453.175162 
" style="fill:none;stroke:#d3d3d3;stroke-linecap:square;stroke-width:0.5;"/>
   </g>
   <g id="line2d_69">
    <path clip-path="url(#p6fd04c88c3)" d="M 468.215072 281.525754 
L 465.858227 277.319017 
L 463.435994 273.150176 
L 460.947634 269.021366 
L 458.392336 264.934975 
L 455.769194 260.893703 
L 453.077194 256.900624 
L 450.315191 252.959272 
L 447.481891 249.073751 
L 444.575828 245.24887 
L 441.595358 241.490325 
L 438.538646 237.804933 
L 435.403686 234.200943 
L 432.188347 230.68845 
L 428.890485 227.279955 
L 425.508164 223.991122 
L 422.040082 220.841813 
L 418.486344 217.857488 
L 414.84987 215.071052 
L 411.138859 212.525151 
L 407.370962 210.274561 
L 403.579631 208.387348 
L 399.821393 206.941402 
L 396.176599 206.010722 
L 392.725643 205.640766 
L 389.491834 205.83566 
L 386.407715 206.588584 
L 383.380293 207.913736 
L 380.377732 209.816246 
L 377.427168 212.25444 
L 374.567914 215.149307 
L 371.825599 218.412905 
L 369.209711 221.966402 
L 366.718885 225.745673 
L 364.346039 229.70071 
L 362.081675 233.793133 
L 359.915684 237.99364 
L 359.915684 237.99364 
" style="fill:none;stroke:#000000;stroke-linecap:square;stroke-width:3;"/>
   </g>
   <g id="line2d_70">
    <path clip-path="url(#p6fd04c88c3)" d="M 359.915684 281.525754 
L 359.915684 205.640766 
L 468.215072 205.640766 
L 468.215072 281.525754 
L 359.915684 281.525754 
" style="fill:none;stroke:#d3d3d3;stroke-linecap:square;stroke-width:0.5;"/>
   </g>
   <g id="line2d_71">
    <path clip-path="url(#p6fd04c88c3)" d="M 535.647118 451.550405 
L 535.647118 451.550405 
L 535.201516 446.536451 
L 534.717874 441.524042 
L 534.195177 436.513678 
L 533.632402 431.505887 
L 533.028515 426.501223 
L 532.382477 421.500261 
L 531.693244 416.503597 
L 530.959768 411.511845 
L 530.181001 406.525633 
L 529.355892 401.545607 
L 528.483393 396.572426 
L 527.562459 391.606763 
L 526.592048 386.649305 
L 525.571129 381.700753 
L 524.498677 376.761822 
L 523.373678 371.833243 
L 522.195131 366.915764 
L 520.962051 362.010149 
L 519.673469 357.117182 
L 518.328434 352.237664 
L 516.926016 347.372421 
L 515.465307 342.522297 
L 513.945418 337.688161 
L 512.365488 332.870907 
L 510.724676 328.071452 
L 509.022163 323.290742 
L 507.257151 318.529749 
L 505.428862 313.789471 
L 503.53653 309.070939 
L 501.579399 304.37521 
L 499.556717 299.703378 
L 497.467726 295.056567 
L 495.311652 290.43594 
L 493.087693 285.842701 
L 490.795004 281.2781 
L 488.432676 276.743439 
L 485.999717 272.240081 
" style="fill:none;stroke:#000000;stroke-linecap:square;stroke-width:3;"/>
   </g>
   <g id="line2d_72">
    <path clip-path="url(#p6fd04c88c3)" d="M 485.999717 451.550405 
L 485.999717 272.240081 
L 535.647118 272.240081 
L 535.647118 451.550405 
L 485.999717 451.550405 
" style="fill:none;stroke:#d3d3d3;stroke-linecap:square;stroke-width:0.5;"/>
   </g>
   <g id="line2d_73">
    <path clip-path="url(#p6fd04c88c3)" d="M 485.999717 272.240081 
L 483.495021 267.769461 
L 480.91734 263.333102 
L 478.265241 258.932631 
L 475.537064 254.569801 
L 472.730858 250.246525 
L 469.844315 245.964912 
L 466.874683 241.727316 
L 463.818654 237.536399 
L 460.672229 233.395218 
L 457.43054 229.307335 
L 454.087622 225.276966 
L 450.636117 221.309192 
L 447.066874 217.410245 
L 443.368418 213.587929 
L 439.526233 209.852231 
L 435.521782 206.21626 
L 431.331188 202.697711 
L 426.923515 199.321229 
L 422.258688 196.122342 
L 417.285638 193.154093 
L 411.942659 190.498074 
L 406.165838 188.281234 
L 399.918436 186.694534 
L 393.256367 185.990427 
L 386.407555 186.409518 
L 379.75501 188.030582 
L 373.654587 190.690705 
L 368.265724 194.094404 
L 363.563618 197.971689 
L 359.44187 202.139216 
L 355.785289 206.487312 
L 352.496842 210.952156 
L 349.501382 215.495622 
L 346.742105 220.093785 
L 344.176022 224.730852 
L 341.770203 229.396004 
L 341.770203 229.396004 
" style="fill:none;stroke:#000000;stroke-linecap:square;stroke-width:3;"/>
   </g>
   <g id="line2d_74">
    <path clip-path="url(#p6fd04c88c3)" d="M 341.770203 272.240081 
L 341.770203 185.990427 
L 485.999717 185.990427 
L 485.999717 272.240081 
L 341.770203 272.240081 
" style="fill:none;stroke:#d3d3d3;stroke-linecap:square;stroke-width:0.5;"/>
   </g>
   <g id="line2d_75">
    <path clip-path="url(#p6fd04c88c3)" d="M 129.28757 132.414288 
L 125.729683 128.606239 
L 122.058106 124.33244 
L 118.366832 119.271815 
L 119.14987 102.13134 
L 134.56233 101.142854 
" style="fill:none;stroke:#000000;stroke-linecap:square;stroke-width:3;"/>
   </g>
   <g id="line2d_76">
    <path clip-path="url(#p6fd04c88c3)" d="M 118.366832 132.414288 
L 118.366832 101.142854 
L 134.56233 101.142854 
L 134.56233 132.414288 
L 118.366832 132.414288 
" style="fill:none;stroke:#d3d3d3;stroke-linecap:square;stroke-width:0.5;"/>
   </g>
   <g id="line2d_77">
    <path clip-path="url(#p6fd04c88c3)" d="M 357.125616 406.727476 
L 352.965638 408.512795 
L 347.515952 411.443109 
L 342.399464 414.740061 
L 337.602807 418.333371 
L 337.602807 418.333371 
" style="fill:none;stroke:#000000;stroke-linecap:square;stroke-width:3;"/>
   </g>
   <g id="line2d_78">
    <path clip-path="url(#p6fd04c88c3)" d="M 337.602807 418.333371 
L 337.602807 406.727476 
L 357.125616 406.727476 
L 357.125616 418.333371 
L 337.602807 418.333371 
" style="fill:none;stroke:#d3d3d3;stroke-linecap:square;stroke-width:0.5;"/>
   </g>
   <g id="line2d_79">
    <path clip-path="url(#p6fd04c88c3)" d="M 129.28757 132.414288 
L 130.128219 138.860611 
L 130.615908 143.570495 
L 131.006149 148.32971 
L 131.31346 153.124521 
L 131.548813 157.946149 
L 131.72068 162.788666 
L 131.835726 167.647871 
L 131.89928 172.520662 
L 131.915661 177.404653 
L 131.888406 182.297947 
L 131.820437 187.198981 
L 131.71418 192.106432 
L 131.571653 197.019147 
L 131.394536 201.936094 
L 131.184219 206.856335 
L 130.941839 211.778995 
L 130.668306 216.703248 
L 130.364323 221.628298 
L 130.030399 226.55337 
L 129.66685 231.477692 
L 129.273803 236.400489 
L 128.851185 241.32096 
L 128.398706 246.238268 
L 127.915841 251.151508 
L 127.401789 256.059679 
L 126.855426 260.961633 
L 126.27523 265.856009 
L 125.659187 270.741126 
L 125.004641 275.614817 
L 125.128423 274.751285 
" style="fill:none;stroke:#000000;stroke-linecap:square;stroke-width:3;"/>
   </g>
   <g id="line2d_80">
    <path clip-path="url(#p6fd04c88c3)" d="M 125.004641 275.614817 
L 125.004641 132.414288 
L 131.915661 132.414288 
L 131.915661 275.614817 
L 125.004641 275.614817 
" style="fill:none;stroke:#d3d3d3;stroke-linecap:square;stroke-width:0.5;"/>
   </g>
   <g id="line2d_81">
    <path clip-path="url(#p6fd04c88c3)" d="M 134.56233 101.142854 
L 142.958849 108.830996 
L 145.800943 115.118736 
L 147.461982 120.77041 
L 147.930677 122.947402 
" style="fill:none;stroke:#000000;stroke-linecap:square;stroke-width:3;"/>
   </g>
   <g id="line2d_82">
    <path clip-path="url(#p6fd04c88c3)" d="M 134.56233 122.947402 
L 134.56233 101.142854 
L 147.930677 101.142854 
L 147.930677 122.947402 
L 134.56233 122.947402 
" style="fill:none;stroke:#d3d3d3;stroke-linecap:square;stroke-width:0.5;"/>
   </g>
   <g id="line2d_83">
    <path clip-path="url(#p6fd04c88c3)" d="M 105.133394 304.74407 
L 105.446875 295.570621 
L 108.888047 287.988877 
L 113.707188 282.381351 
L 119.044245 278.19354 
L 124.600154 274.98394 
L 125.128423 274.751285 
" style="fill:none;stroke:#000000;stroke-linecap:square;stroke-width:3;"/>
   </g>
   <g id="line2d_84">
    <path clip-path="url(#p6fd04c88c3)" d="M 105.133394 304.74407 
L 105.133394 274.751285 
L 125.128423 274.751285 
L 125.128423 304.74407 
L 105.133394 304.74407 
" style="fill:none;stroke:#d3d3d3;stroke-linecap:square;stroke-width:0.5;"/>
   </g>
   <g id="line2d_85">
    <path clip-path="url(#p6fd04c88c3)" d="M 341.770203 229.396004 
L 341.770203 229.396004 
L 341.027969 230.368097 
L 339.523886 231.231354 
L 336.768359 231.941477 
L 333.122059 232.213015 
L 328.992118 232.023729 
L 324.612053 231.446114 
L 320.103246 230.555837 
L 315.530027 229.413287 
L 310.927964 228.06409 
L 306.317551 226.542601 
L 301.711014 224.875015 
L 297.11584 223.081634 
L 292.536701 221.178468 
L 287.97654 219.178338 
L 283.437215 217.091668 
L 278.919888 214.927035 
L 274.425268 212.691579 
L 269.953768 210.391304 
L 265.505606 208.031299 
L 261.080875 205.615909 
L 256.679591 203.148867 
L 252.301722 200.633396 
L 247.947212 198.072289 
L 243.616002 195.467972 
L 239.308036 192.82256 
L 235.023279 190.137888 
L 230.761716 187.415556 
L 226.523369 184.656947 
L 222.308297 181.863254 
L 218.116607 179.035494 
L 213.948461 176.174525 
L 209.804085 173.281054 
L 205.683781 170.355647 
L 201.587938 167.398733 
L 197.51705 164.410608 
L 193.471736 161.391436 
L 189.452768 158.341248 
L 185.461102 155.259935 
L 181.49793 152.147247 
L 177.564739 149.00278 
L 173.663397 145.825966 
L 169.796282 142.616063 
L 165.96646 139.372139 
L 162.17796 136.093068 
L 158.43621 132.777541 
L 154.748755 129.424132 
L 151.126531 126.031504 
L 147.586301 122.599004 
L 147.930677 122.947402 
" style="fill:none;stroke:#000000;stroke-linecap:square;stroke-width:3;"/>
   </g>
   <g id="line2d_86">
    <path clip-path="url(#p6fd04c88c3)" d="M 147.586301 232.213015 
L 147.586301 122.599004 
L 341.770203 122.599004 
L 341.770203 232.213015 
L 147.586301 232.213015 
" style="fill:none;stroke:#d3d3d3;stroke-linecap:square;stroke-width:0.5;"/>
   </g>
   <g id="line2d_87">
    <path clip-path="url(#p6fd04c88c3)" d="M 107.596025 315.71702 
L 107.420966 315.146371 
L 106.170224 309.882215 
L 105.133394 304.74407 
" style="fill:none;stroke:#000000;stroke-linecap:square;stroke-width:3;"/>
   </g>
   <g id="line2d_88">
    <path clip-path="url(#p6fd04c88c3)" d="M 105.133394 315.71702 
L 105.133394 304.74407 
L 107.596025 304.74407 
L 107.596025 315.71702 
L 105.133394 315.71702 
" style="fill:none;stroke:#d3d3d3;stroke-linecap:square;stroke-width:0.5;"/>
   </g>
   <g id="line2d_89">
    <path clip-path="url(#p6fd04c88c3)" d="M 308.030851 366.107871 
L 312.000741 369.756548 
L 316.002496 373.375219 
L 320.037417 376.962512 
L 324.107026 380.516893 
L 328.213114 384.036625 
L 332.357809 387.519732 
L 336.543657 390.963945 
L 340.773739 394.366622 
L 345.051833 397.724653 
L 349.382623 401.034313 
L 353.771995 404.291041 
L 358.227373 407.489093 
L 357.125616 406.727476 
" style="fill:none;stroke:#000000;stroke-linecap:square;stroke-width:3;"/>
   </g>
   <g id="line2d_90">
    <path clip-path="url(#p6fd04c88c3)" d="M 308.030851 407.489093 
L 308.030851 366.107871 
L 358.227373 366.107871 
L 358.227373 407.489093 
L 308.030851 407.489093 
" style="fill:none;stroke:#d3d3d3;stroke-linecap:square;stroke-width:0.5;"/>
   </g>
   <g id="line2d_91">
    <path clip-path="url(#p6fd04c88c3)" d="M 337.602807 418.333371 
L 337.602807 418.333371 
L 333.349086 421.853663 
L 329.117001 425.660753 
L 324.907054 429.985837 
L 320.760905 435.468009 
L 317.553799 444.239952 
L 320.772408 455.829336 
L 327.11606 461.620354 
L 332.692279 464.784208 
L 337.844827 467.180482 
L 342.787849 469.297326 
L 347.604785 471.315293 
L 352.331796 473.319691 
L 356.986121 475.356928 
L 361.576484 477.454262 
L 366.107432 479.628206 
L 370.581365 481.888651 
L 374.999556 484.241109 
L 379.362713 486.68807 
L 383.671298 489.229865 
L 387.925714 491.865276 
L 392.126416 494.591967 
L 396.273971 497.406815 
L 400.369091 500.306164 
L 404.412642 503.286023 
L 408.405643 506.342219 
L 412.349251 509.470517 
L 416.244743 512.666707 
L 420.0935 515.926676 
L 423.896982 519.246455 
L 427.656706 522.622249 
L 431.374231 526.05046 
L 435.051133 529.5277 
L 438.688998 533.05079 
L 442.289397 536.616763 
L 445.853885 540.222857 
L 449.383984 543.866505 
L 449.383984 543.866505 
" style="fill:none;stroke:#000000;stroke-linecap:square;stroke-width:3;"/>
   </g>
   <g id="line2d_92">
    <path clip-path="url(#p6fd04c88c3)" d="M 317.553799 543.866505 
L 317.553799 418.333371 
L 449.383984 418.333371 
L 449.383984 543.866505 
L 317.553799 543.866505 
" style="fill:none;stroke:#d3d3d3;stroke-linecap:square;stroke-width:0.5;"/>
   </g>
   <g id="line2d_93">
    <path clip-path="url(#p6fd04c88c3)" d="M 143.431238 288.769652 
L 150.664612 287.412507 
L 155.256631 286.827898 
L 159.916414 286.488133 
L 164.61989 286.381111 
L 169.348378 286.496088 
L 174.086997 286.823518 
L 178.823643 287.354819 
L 183.548321 288.082139 
L 188.252707 288.99814 
L 192.92986 290.095802 
L 197.574033 291.368268 
L 202.180535 292.808714 
L 206.745644 294.410252 
L 211.26653 296.16586 
L 215.741189 298.068344 
L 220.16838 300.110329 
L 224.547559 302.284268 
L 228.878802 304.582484 
L 233.162735 306.997215 
L 237.400447 309.520685 
L 241.593415 312.145175 
L 245.743421 314.863101 
L 249.852476 317.667078 
L 253.922749 320.549996 
L 257.956507 323.505064 
L 261.956052 326.525857 
L 265.923682 329.606346 
L 269.861645 332.74091 
L 273.772113 335.924347 
L 277.657158 339.151866 
L 281.518737 342.41908 
L 285.358681 345.721984 
L 289.178693 349.056938 
L 292.980349 352.420646 
L 296.765103 355.810133 
L 300.534294 359.22272 
L 304.28916 362.656012 
L 308.030851 366.107871 
" style="fill:none;stroke:#000000;stroke-linecap:square;stroke-width:3;"/>
   </g>
   <g id="line2d_94">
    <path clip-path="url(#p6fd04c88c3)" d="M 143.431238 366.107871 
L 143.431238 286.381111 
L 308.030851 286.381111 
L 308.030851 366.107871 
L 143.431238 366.107871 
" style="fill:none;stroke:#d3d3d3;stroke-linecap:square;stroke-width:0.5;"/>
   </g>
   <g id="line2d_95">
    <path clip-path="url(#p6fd04c88c3)" d="M 449.383984 543.866505 
L 449.383984 543.866505 
L 453.676888 548.015177 
L 458.430495 551.889979 
L 463.727387 555.380356 
L 469.649439 558.31334 
L 476.234148 560.429802 
L 483.382163 561.395891 
L 490.758162 560.918438 
L 497.844383 558.948286 
L 504.201423 555.746922 
L 509.658481 551.705181 
L 514.260915 547.148222 
L 518.136204 542.283674 
L 521.413832 537.231024 
L 524.199998 532.058418 
L 526.576183 526.806338 
L 528.604054 521.50029 
L 530.330599 516.157287 
L 531.792137 510.789216 
L 533.017168 505.404668 
L 534.028372 500.010012 
L 534.844007 494.610063 
L 535.478896 489.20854 
L 535.94515 483.808377 
L 536.252696 478.411964 
L 536.409671 473.021317 
L 536.422727 467.638217 
L 536.297261 462.264308 
L 536.037596 456.901176 
L 535.647118 451.550405 
L 535.647118 451.550405 
" style="fill:none;stroke:#000000;stroke-linecap:square;stroke-width:3;"/>
   </g>
   <g id="line2d_96">
    <path clip-path="url(#p6fd04c88c3)" d="M 449.383984 561.395891 
L 449.383984 451.550405 
L 536.422727 451.550405 
L 536.422727 561.395891 
L 449.383984 561.395891 
" style="fill:none;stroke:#d3d3d3;stroke-linecap:square;stroke-width:0.5;"/>
   </g>
   <g id="line2d_97">
    <path clip-path="url(#p6fd04c88c3)" d="M 143.431238 288.769652 
L 142.669271 293.378295 
L 141.759944 298.44567 
L 140.756134 303.538745 
L 139.622713 308.677785 
L 138.289944 313.909101 
L 136.577003 319.372944 
L 133.538449 325.882942 
L 113.391844 328.360198 
L 109.144867 320.765853 
L 107.596025 315.71702 
" style="fill:none;stroke:#000000;stroke-linecap:square;stroke-width:3;"/>
   </g>
   <g id="line2d_98">
    <path clip-path="url(#p6fd04c88c3)" d="M 107.596025 328.360198 
L 107.596025 288.769652 
L 143.431238 288.769652 
L 143.431238 328.360198 
L 107.596025 328.360198 
" style="fill:none;stroke:#d3d3d3;stroke-linecap:square;stroke-width:0.5;"/>
   </g>
   <g id="line2d_99">
    <path clip-path="url(#p6fd04c88c3)" d="M 477.107394 262.140063 
L 479.04261 262.261101 
L 480.946049 262.62223 
L 482.786458 263.217518 
L 484.533616 264.037192 
L 486.158836 265.067793 
L 487.635432 266.292397 
L 488.939158 267.690898 
L 490.048606 269.240331 
L 490.94556 270.915255 
L 491.615292 272.688168 
L 492.046805 274.529959 
L 492.233013 276.410385 
L 492.170858 278.298571 
L 491.861362 280.163511 
L 491.309606 281.974584 
L 490.524651 283.702052 
L 489.519384 285.31755 
L 488.310313 286.794551 
L 486.91729 288.108804 
L 485.363189 289.238728 
L 483.673528 290.16577 
L 481.876051 290.874708 
L 480.000273 291.353901 
L 478.076994 291.595481 
L 476.137794 291.595481 
L 474.214516 291.353901 
L 472.338738 290.874708 
L 470.541261 290.16577 
L 468.8516 289.238728 
L 467.297499 288.108804 
L 465.904476 286.794551 
L 464.695405 285.31755 
L 463.690138 283.702052 
L 462.905182 281.974584 
L 462.353427 280.163511 
L 462.04393 278.298571 
L 461.981776 276.410385 
L 462.167984 274.529959 
L 462.599496 272.688168 
L 463.269228 270.915255 
L 464.166182 269.240331 
L 465.275631 267.690898 
L 466.579356 266.292397 
L 468.055952 265.067793 
L 469.681172 264.037192 
L 471.428331 263.217518 
L 473.26874 262.62223 
L 475.172179 262.261101 
L 477.107394 262.140063 
" style="fill:none;stroke:#808080;stroke-linecap:square;stroke-width:1.5;"/>
   </g>
   <g id="line2d_100">
    <path clip-path="url(#p6fd04c88c3)" d="M 350.842943 218.951968 
L 352.778159 219.073006 
L 354.681598 219.434135 
L 356.522006 220.029423 
L 358.269165 220.849097 
L 359.894385 221.879698 
L 361.370981 223.104302 
L 362.674707 224.502803 
L 363.784155 226.052236 
L 364.681109 227.72716 
L 365.350841 229.500073 
L 365.782354 231.341864 
L 365.968561 233.22229 
L 365.906407 235.110476 
L 365.596911 236.975416 
L 365.045155 238.786489 
L 364.260199 240.513957 
L 363.254933 242.129455 
L 362.045861 243.606456 
L 360.652839 244.920709 
L 359.098738 246.050633 
L 357.409077 246.977675 
L 355.6116 247.686613 
L 353.735822 248.165806 
L 351.812543 248.407386 
L 349.873343 248.407386 
L 347.950064 248.165806 
L 346.074286 247.686613 
L 344.27681 246.977675 
L 342.587149 246.050633 
L 341.033048 244.920709 
L 339.640025 243.606456 
L 338.430954 242.129455 
L 337.425687 240.513957 
L 336.640731 238.786489 
L 336.088975 236.975416 
L 335.779479 235.110476 
L 335.717325 233.22229 
L 335.903533 231.341864 
L 336.335045 229.500073 
L 337.004777 227.72716 
L 337.901731 226.052236 
L 339.01118 224.502803 
L 340.314905 223.104302 
L 341.791501 221.879698 
L 343.416721 220.849097 
L 345.16388 220.029423 
L 347.004289 219.434135 
L 348.907728 219.073006 
L 350.842943 218.951968 
" style="fill:none;stroke:#808080;stroke-linecap:square;stroke-width:1.5;"/>
   </g>
   <g id="line2d_101">
    <path clip-path="url(#p6fd04c88c3)" d="M 130.701735 95.480524 
L 132.636951 95.601562 
L 134.54039 95.962691 
L 136.380799 96.557979 
L 138.127957 97.377653 
L 139.753177 98.408254 
L 141.229773 99.632858 
L 142.533499 101.031359 
L 143.642947 102.580792 
L 144.539901 104.255716 
L 145.209633 106.028629 
L 145.641146 107.87042 
L 145.827354 109.750846 
L 145.765199 111.639032 
L 145.455703 113.503972 
L 144.903947 115.315045 
L 144.118992 117.042513 
L 143.113725 118.658011 
L 141.904654 120.135012 
L 140.511631 121.449265 
L 138.95753 122.579189 
L 137.267869 123.506231 
L 135.470392 124.215169 
L 133.594614 124.694362 
L 131.671335 124.935942 
L 129.732135 124.935942 
L 127.808857 124.694362 
L 125.933079 124.215169 
L 124.135602 123.506231 
L 122.445941 122.579189 
L 120.89184 121.449265 
L 119.498817 120.135012 
L 118.289746 118.658011 
L 117.284479 117.042513 
L 116.499523 115.315045 
L 115.947768 113.503972 
L 115.638271 111.639032 
L 115.576117 109.750846 
L 115.762325 107.87042 
L 116.193837 106.028629 
L 116.863569 104.255716 
L 117.760523 102.580792 
L 118.869972 101.031359 
L 120.173697 99.632858 
L 121.650293 98.408254 
L 123.275513 97.377653 
L 125.022672 96.557979 
L 126.863081 95.962691 
L 128.76652 95.601562 
L 130.701735 95.480524 
" style="fill:none;stroke:#808080;stroke-linecap:square;stroke-width:1.5;"/>
   </g>
   <g id="line2d_102">
    <path clip-path="url(#p6fd04c88c3)" d="M 115.055505 288.221294 
L 116.99072 288.342332 
L 118.89416 288.703461 
L 120.734568 289.298749 
L 122.481727 290.118423 
L 124.106947 291.149024 
L 125.583543 292.373628 
L 126.887269 293.772129 
L 127.996717 295.321562 
L 128.893671 296.996486 
L 129.563403 298.769399 
L 129.994915 300.61119 
L 130.181123 302.491616 
L 130.118969 304.379802 
L 129.809473 306.244742 
L 129.257717 308.055815 
L 128.472761 309.783283 
L 127.467495 311.398781 
L 126.258423 312.875782 
L 124.8654 314.190035 
L 123.311299 315.319959 
L 121.621638 316.247001 
L 119.824162 316.955939 
L 117.948384 317.435132 
L 116.025105 317.676712 
L 114.085905 317.676712 
L 112.162626 317.435132 
L 110.286848 316.955939 
L 108.489372 316.247001 
L 106.799711 315.319959 
L 105.24561 314.190035 
L 103.852587 312.875782 
L 102.643516 311.398781 
L 101.638249 309.783283 
L 100.853293 308.055815 
L 100.301537 306.244742 
L 99.992041 304.379802 
L 99.929887 302.491616 
L 100.116095 300.61119 
L 100.547607 298.769399 
L 101.217339 296.996486 
L 102.114293 295.321562 
L 103.223742 293.772129 
L 104.527467 292.373628 
L 106.004063 291.149024 
L 107.629283 290.118423 
L 109.376442 289.298749 
L 111.21685 288.703461 
L 113.12029 288.342332 
L 115.055505 288.221294 
" style="fill:none;stroke:#808080;stroke-linecap:square;stroke-width:1.5;"/>
   </g>
   <g id="line2d_103">
    <path clip-path="url(#p6fd04c88c3)" d="M 314.983165 344.242615 
L 316.91838 344.363653 
L 318.82182 344.724782 
L 320.662228 345.32007 
L 322.409387 346.139744 
L 324.034607 347.170345 
L 325.511203 348.394949 
L 326.814928 349.79345 
L 327.924377 351.342883 
L 328.821331 353.017807 
L 329.491063 354.79072 
L 329.922575 356.632511 
L 330.108783 358.512937 
L 330.046629 360.401123 
L 329.737133 362.266063 
L 329.185377 364.077136 
L 328.400421 365.804604 
L 327.395154 367.420102 
L 326.186083 368.897103 
L 324.79306 370.211356 
L 323.238959 371.34128 
L 321.549298 372.268322 
L 319.751822 372.97726 
L 317.876044 373.456453 
L 315.952765 373.698033 
L 314.013565 373.698033 
L 312.090286 373.456453 
L 310.214508 372.97726 
L 308.417031 372.268322 
L 306.727371 371.34128 
L 305.173269 370.211356 
L 303.780247 368.897103 
L 302.571175 367.420102 
L 301.565909 365.804604 
L 300.780953 364.077136 
L 300.229197 362.266063 
L 299.919701 360.401123 
L 299.857547 358.512937 
L 300.043754 356.632511 
L 300.475267 354.79072 
L 301.144999 353.017807 
L 302.041953 351.342883 
L 303.151401 349.79345 
L 304.455127 348.394949 
L 305.931723 347.170345 
L 307.556943 346.139744 
L 309.304102 345.32007 
L 311.14451 344.724782 
L 313.047949 344.363653 
L 314.983165 344.242615 
" style="fill:none;stroke:#808080;stroke-linecap:square;stroke-width:1.5;"/>
   </g>
   <g id="line2d_104">
    <path clip-path="url(#p6fd04c88c3)" d="M 344.012232 411.180838 
L 345.947448 411.301876 
L 347.850887 411.663005 
L 349.691296 412.258293 
L 351.438454 413.077967 
L 353.063674 414.108568 
L 354.54027 415.333172 
L 355.843996 416.731673 
L 356.953444 418.281106 
L 357.850399 419.95603 
L 358.52013 421.728943 
L 358.951643 423.570734 
L 359.137851 425.45116 
L 359.075696 427.339346 
L 358.7662 429.204286 
L 358.214444 431.015359 
L 357.429489 432.742827 
L 356.424222 434.358325 
L 355.215151 435.835326 
L 353.822128 437.149579 
L 352.268027 438.279503 
L 350.578366 439.206545 
L 348.780889 439.915483 
L 346.905111 440.394676 
L 344.981832 440.636256 
L 343.042633 440.636256 
L 341.119354 440.394676 
L 339.243576 439.915483 
L 337.446099 439.206545 
L 335.756438 438.279503 
L 334.202337 437.149579 
L 332.809314 435.835326 
L 331.600243 434.358325 
L 330.594976 432.742827 
L 329.81002 431.015359 
L 329.258265 429.204286 
L 328.948769 427.339346 
L 328.886614 425.45116 
L 329.072822 423.570734 
L 329.504335 421.728943 
L 330.174066 419.95603 
L 331.07102 418.281106 
L 332.180469 416.731673 
L 333.484195 415.333172 
L 334.96079 414.108568 
L 336.586011 413.077967 
L 338.333169 412.258293 
L 340.173578 411.663005 
L 342.077017 411.301876 
L 344.012232 411.180838 
" style="fill:none;stroke:#808080;stroke-linecap:square;stroke-width:1.5;"/>
   </g>
   <g id="line2d_105">
    <path clip-path="url(#p6fd04c88c3)" d="M 456.7543 522.411964 
L 458.689515 522.533002 
L 460.592955 522.894131 
L 462.433363 523.489419 
L 464.180522 524.309093 
L 465.805742 525.339694 
L 467.282338 526.564298 
L 468.586063 527.962799 
L 469.695512 529.512232 
L 470.592466 531.187156 
L 471.262198 532.960069 
L 471.69371 534.80186 
L 471.879918 536.682286 
L 471.817764 538.570471 
L 471.508268 540.435412 
L 470.956512 542.246485 
L 470.171556 543.973953 
L 469.166289 545.589451 
L 467.957218 547.066452 
L 466.564195 548.380705 
L 465.010094 549.510629 
L 463.320433 550.437671 
L 461.522957 551.146609 
L 459.647179 551.625802 
L 457.7239 551.867382 
L 455.7847 551.867382 
L 453.861421 551.625802 
L 451.985643 551.146609 
L 450.188166 550.437671 
L 448.498506 549.510629 
L 446.944404 548.380705 
L 445.551382 547.066452 
L 444.34231 545.589451 
L 443.337044 543.973953 
L 442.552088 542.246485 
L 442.000332 540.435412 
L 441.690836 538.570471 
L 441.628682 536.682286 
L 441.814889 534.80186 
L 442.246402 532.960069 
L 442.916134 531.187156 
L 443.813088 529.512232 
L 444.922536 527.962799 
L 446.226262 526.564298 
L 447.702858 525.339694 
L 449.328078 524.309093 
L 451.075237 523.489419 
L 452.915645 522.894131 
L 454.819084 522.533002 
L 456.7543 522.411964 
" style="fill:none;stroke:#808080;stroke-linecap:square;stroke-width:1.5;"/>
   </g>
   <g id="line2d_106">
    <path clip-path="url(#p6fd04c88c3)" d="M 525.592711 437.619929 
L 527.527926 437.740968 
L 529.431366 438.102096 
L 531.271774 438.697385 
L 533.018933 439.517059 
L 534.644153 440.547659 
L 536.120749 441.772263 
L 537.424474 443.170764 
L 538.533923 444.720197 
L 539.430877 446.395121 
L 540.100609 448.168035 
L 540.532121 450.009825 
L 540.718329 451.890252 
L 540.656175 453.778437 
L 540.346679 455.643377 
L 539.794923 457.45445 
L 539.009967 459.181918 
L 538.0047 460.797416 
L 536.795629 462.274417 
L 535.402606 463.58867 
L 533.848505 464.718594 
L 532.158844 465.645636 
L 530.361368 466.354574 
L 528.48559 466.833767 
L 526.562311 467.075347 
L 524.623111 467.075347 
L 522.699832 466.833767 
L 520.824054 466.354574 
L 519.026577 465.645636 
L 517.336917 464.718594 
L 515.782815 463.58867 
L 514.389793 462.274417 
L 513.180721 460.797416 
L 512.175455 459.181918 
L 511.390499 457.45445 
L 510.838743 455.643377 
L 510.529247 453.778437 
L 510.467093 451.890252 
L 510.6533 450.009825 
L 511.084813 448.168035 
L 511.754545 446.395121 
L 512.651499 444.720197 
L 513.760947 443.170764 
L 515.064673 441.772263 
L 516.541269 440.547659 
L 518.166489 439.517059 
L 519.913648 438.697385 
L 521.754056 438.102096 
L 523.657495 437.740968 
L 525.592711 437.619929 
" style="fill:none;stroke:#808080;stroke-linecap:square;stroke-width:1.5;"/>
   </g>
   <g id="line2d_107"/>
   <g id="line2d_108"/>
   <g id="line2d_109"/>
   <g id="line2d_110"/>
   <g id="line2d_111"/>
   <g id="line2d_112"/>
   <g id="line2d_113"/>
   <g id="line2d_114"/>
   <g id="line2d_115"/>
   <g id="line2d_116"/>
   <g id="line2d_117"/>
   <g id="line2d_118"/>
   <g id="line2d_119"/>
   <g id="line2d_120"/>
   <g id="line2d_121"/>
   <g id="line2d_122"/>
   <g id="line2d_123"/>
   <g id="line2d_124"/>
   <g id="line2d_125"/>
   <g id="line2d_126"/>
   <g id="line2d_127"/>
   <g id="line2d_128"/>
   <g id="line2d_129"/>
   <g id="line2d_130"/>
   <g id="line2d_131"/>
   <g id="line2d_132"/>
   <g id="line2d_133"/>
   <g id="line2d_134"/>
   <g id="line2d_135"/>
   <g id="line2d_136"/>
   <g id="line2d_137"/>
   <g id="line2d_138"/>
   <g id="line2d_139"/>
   <g id="line2d_140"/>
   <g id="line2d_141"/>
   <g id="line2d_142"/>
   <g id="line2d_143"/>
   <g id="line2d_144"/>
   <g id="line2d_145"/>
   <g id="line2d_146"/>
   <g id="line2d_147"/>
   <g id="line2d_148"/>
   <g id="line2d_149"/>
   <g id="line2d_150"/>
   <g id="line2d_151"/>
   <g id="line2d_152"/>
   <g id="line2d_153"/>
   <g id="line2d_154"/>
   <g id="line2d_155"/>
   <g id="line2d_156"/>
   <g id="line2d_157"/>
   <g id="patch_3">
    <path d="M 90 630 
L 90 86.4 
" style="fill:none;stroke:#000000;stroke-linecap:square;stroke-linejoin:miter;stroke-width:0.8;"/>
   </g>
   <g id="patch_4">
    <path d="M 648 630 
L 648 86.4 
" style="fill:none;stroke:#000000;stroke-linecap:square;stroke-linejoin:miter;stroke-width:0.8;"/>
   </g>
   <g id="patch_5">
    <path d="M 90 630 
L 648 630 
" style="fill:none;stroke:#000000;stroke-linecap:square;stroke-linejoin:miter;stroke-width:0.8;"/>
   </g>
   <g id="patch_6">
    <path d="M 90 86.4 
L 648 86.4 
" style="fill:none;stroke:#000000;stroke-linecap:square;stroke-linejoin:miter;stroke-width:0.8;"/>
   </g>
   <g id="text_13">
    <!-- 0 -->
    <g transform="translate(-0.069094 521.173339)scale(0.1 -0.1)">
     <use xlink:href="#DejaVuSans-30"/>
    </g>
   </g>
   <g id="text_14">
    <!-- 0 -->
    <g transform="translate(-0.069094 506.430484)scale(0.1 -0.1)">
     <use xlink:href="#DejaVuSans-30"/>
    </g>
   </g>
   <g id="text_15">
    <!-- 0 -->
    <g transform="translate(-0.069094 491.68763)scale(0.1 -0.1)">
     <use xlink:href="#DejaVuSans-30"/>
    </g>
   </g>
  </g>
 </g>
 <defs>
  <clipPath id="p6fd04c88c3">
   <rect height="543.6" width="558" x="90" y="86.4"/>
  </clipPath>
 </defs>
</svg>
