<?xml version="1.0" encoding="utf-8" standalone="no"?>
<!DOCTYPE svg PUBLIC "-//W3C//DTD SVG 1.1//EN"
  "http://www.w3.org/Graphics/SVG/1.1/DTD/svg11.dtd">
<svg height="720pt" version="1.1" viewBox="0 0 720 720" width="720pt" xmlns="http://www.w3.org/2000/svg" xmlns:xlink="http://www.w3.org/1999/xlink">
 <metadata>
  <rdf:RDF xmlns:cc="http://creativecommons.org/ns#" xmlns:dc="http://purl.org/dc/elements/1.1/" xmlns:rdf="http://www.w3.org/1999/02/22-rdf-syntax-ns#">
   <cc:Work>
    <dc:type rdf:resource="http://purl.org/dc/dcmitype/StillImage"/>
    <dc:date>2022-01-11T13:26:08.037344</dc:date>
    <dc:format>image/svg+xml</dc:format>
    <dc:creator>
     <cc:Agent>
      <dc:title>Matplotlib v3.4.3, https://matplotlib.org/</dc:title>
     </cc:Agent>
    </dc:creator>
   </cc:Work>
  </rdf:RDF>
 </metadata>
 <defs>
  <style type="text/css">*{stroke-linecap:butt;stroke-linejoin:round;}</style>
 </defs>
 <g id="figure_1">
  <g id="patch_1">
   <path d="M 0 720 
L 720 720 
L 720 0 
L 0 0 
z
" style="fill:none;"/>
  </g>
  <g id="axes_1">
   <g id="patch_2">
    <path d="M 90 630 
L 648 630 
L 648 86.4 
L 90 86.4 
z
" style="fill:#ffffff;"/>
   </g>
   <g id="PathCollection_1">
    <defs>
     <path d="M 0.972304 -8.870829 
Q -1.277159 -8.870829 -2.413438 -6.653699 
Q -3.545098 -4.441189 -3.545098 0.006929 
Q -3.545098 4.436569 -2.413438 6.653699 
Q -1.277159 8.870829 0.972304 8.870829 
Q 3.240243 8.870829 4.371903 6.653699 
Q 5.508182 4.436569 5.508182 0.006929 
Q 5.508182 -4.441189 4.371903 -6.653699 
Q 3.240243 -8.870829 0.972304 -8.870829 
z
M 0.972304 -11.18034 
Q 4.598235 -11.18034 6.51051 -8.311928 
Q 8.422784 -5.448135 8.422784 0.006929 
Q 8.422784 5.448135 6.51051 8.316547 
Q 4.598235 11.18034 0.972304 11.18034 
Q -2.649008 11.18034 -4.561283 8.316547 
Q -6.473558 5.448135 -6.473558 0.006929 
Q -6.473558 -5.448135 -4.561283 -8.311928 
Q -2.649008 -11.18034 0.972304 -11.18034 
z
" id="m9c5a9213e0" style="stroke:#808080;"/>
    </defs>
    <g clip-path="url(#pb0a1f16d0d)">
     <use style="fill:#808080;stroke:#808080;" x="353.06796" xlink:href="#m9c5a9213e0" y="319.723791"/>
    </g>
   </g>
   <g id="PathCollection_2">
    <defs>
     <path d="M -4.535873 8.63565 
L 0.404946 8.63565 
L 0.404946 -8.424791 
L -4.971969 -7.346533 
L -4.971969 -10.102082 
L 0.376192 -11.18034 
L 3.400108 -11.18034 
L 3.400108 8.63565 
L 8.340927 8.63565 
L 8.340927 11.18034 
L -4.535873 11.18034 
L -4.535873 8.63565 
z
" id="mf24d120581" style="stroke:#808080;"/>
    </defs>
    <g clip-path="url(#pb0a1f16d0d)">
     <use style="fill:#808080;stroke:#808080;" x="431.793971" xlink:href="#mf24d120581" y="212.447457"/>
    </g>
   </g>
   <g id="PathCollection_3">
    <defs>
     <path d="M -2.294912 8.680651 
L 8.075736 8.680651 
L 8.075736 11.18034 
L -5.867913 11.18034 
L -5.867913 8.680651 
Q -4.177916 6.929457 -1.259259 3.982555 
Q 1.664105 1.030945 2.4126 0.174178 
Q 3.838976 -1.426376 4.403877 -2.537349 
Q 4.973486 -3.648321 4.973486 -4.721634 
Q 4.973486 -6.472828 3.744825 -7.574386 
Q 2.516165 -8.680651 0.543718 -8.680651 
Q -0.854413 -8.680651 -2.407892 -8.195778 
Q -3.956663 -7.710904 -5.72198 -6.722326 
L -5.72198 -9.725719 
Q -3.928418 -10.445968 -2.370232 -10.813154 
Q -0.807338 -11.18034 0.487227 -11.18034 
Q 3.900173 -11.18034 5.929111 -9.471513 
Q 7.958048 -7.767394 7.958048 -4.914642 
Q 7.958048 -3.558879 7.449637 -2.344341 
Q 6.945933 -1.13451 5.604292 0.513119 
Q 5.237107 0.941502 3.264659 2.979855 
Q 1.296919 5.018207 -2.294912 8.680651 
z
" id="mad25cc5f98" style="stroke:#808080;"/>
    </defs>
    <g clip-path="url(#pb0a1f16d0d)">
     <use style="fill:#808080;stroke:#808080;" x="415.567519" xlink:href="#mad25cc5f98" y="107.372857"/>
    </g>
   </g>
   <g id="PathCollection_4">
    <defs>
     <path d="M 3.77605 -0.861447 
Q 5.868466 -0.413402 7.041697 1.004637 
Q 8.219548 2.418057 8.219548 4.496617 
Q 8.219548 7.683741 6.025513 9.43435 
Q 3.831478 11.18034 -0.210165 11.18034 
Q -1.563539 11.18034 -3.000054 10.912437 
Q -4.436569 10.644533 -5.965465 10.108727 
L -5.965465 7.295743 
Q -4.755282 8.002454 -3.314147 8.362737 
Q -1.868394 8.723021 -0.293308 8.723021 
Q 2.445772 8.723021 3.882287 7.64217 
Q 5.318802 6.561319 5.318802 4.496617 
Q 5.318802 2.588961 3.983905 1.517348 
Q 2.649008 0.441116 0.270213 0.441116 
L -2.242535 0.441116 
L -2.242535 -1.956155 
L 0.385688 -1.956155 
Q 2.533533 -1.956155 3.674431 -2.815293 
Q 4.815329 -3.674431 4.815329 -5.291088 
Q 4.815329 -6.949317 3.637479 -7.836169 
Q 2.464248 -8.72764 0.270213 -8.72764 
Q -0.930733 -8.72764 -2.302582 -8.464356 
Q -3.674431 -8.20569 -5.318802 -7.660646 
L -5.318802 -10.256536 
Q -3.655955 -10.718438 -2.205582 -10.949389 
Q -0.75521 -11.18034 0.528878 -11.18034 
Q 3.849954 -11.18034 5.780705 -9.66992 
Q 7.716074 -8.164119 7.716074 -5.595944 
Q 7.716074 -3.803764 6.690652 -2.570485 
Q 5.665229 -1.337207 3.77605 -0.861447 
z
" id="me735c3b600" style="stroke:#808080;"/>
    </defs>
    <g clip-path="url(#pb0a1f16d0d)">
     <use style="fill:#808080;stroke:#808080;" x="411.474182" xlink:href="#me735c3b600" y="107.047037"/>
    </g>
   </g>
   <g id="PathCollection_5">
    <defs>
     <path d="M 2.695646 -8.544598 
L -4.943215 3.392919 
L 2.695646 3.392919 
L 2.695646 -8.544598 
z
M 1.900131 -11.18034 
L 5.705184 -11.18034 
L 5.705184 3.392919 
L 8.896829 3.392919 
L 8.896829 5.908855 
L 5.705184 5.908855 
L 5.705184 11.18034 
L 2.695646 11.18034 
L 2.695646 5.908855 
L -7.396852 5.908855 
L -7.396852 2.99037 
L 1.900131 -11.18034 
z
" id="m3bee479b7e" style="stroke:#808080;"/>
    </defs>
    <g clip-path="url(#pb0a1f16d0d)">
     <use style="fill:#808080;stroke:#808080;" x="262.670028" xlink:href="#m3bee479b7e" y="133.154401"/>
    </g>
   </g>
   <g id="PathCollection_6">
    <defs>
     <path d="M -5.008473 -11.18034 
L 6.639575 -11.18034 
L 6.639575 -8.679629 
L -2.291535 -8.679629 
L -2.291535 -3.306861 
Q -1.647555 -3.527789 -1.003575 -3.635902 
Q -0.354894 -3.744015 0.293787 -3.744015 
Q 3.964943 -3.744015 6.108409 -1.732165 
Q 8.256576 0.279685 8.256576 3.715812 
Q 8.256576 7.255352 6.052002 9.220196 
Q 3.847428 11.18034 -0.16217 11.18034 
Q -1.544142 11.18034 -2.97782 10.945311 
Q -4.406798 10.710281 -5.934488 10.240223 
L -5.934488 7.255352 
Q -4.613624 7.974541 -3.203448 8.327085 
Q -1.793273 8.679629 -0.223278 8.679629 
Q 2.319738 8.679629 3.800422 7.344663 
Q 5.285807 6.009697 5.285807 3.715812 
Q 5.285807 1.426627 3.800422 0.091661 
Q 2.319738 -1.248005 -0.223278 -1.248005 
Q -1.412526 -1.248005 -2.597073 -0.984772 
Q -3.77692 -0.72154 -5.008473 -0.16217 
L -5.008473 -11.18034 
z
" id="mdad2c135e9" style="stroke:#808080;"/>
    </defs>
    <g clip-path="url(#pb0a1f16d0d)">
     <use style="fill:#808080;stroke:#808080;" x="150.286494" xlink:href="#mdad2c135e9" y="232.329553"/>
    </g>
   </g>
   <g id="PathCollection_7">
    <defs>
     <path d="M 1.286397 -1.175541 
Q -0.676687 -1.175541 -1.826823 0.168594 
Q -2.97234 1.50811 -2.97234 3.845335 
Q -2.97234 6.168702 -1.826823 7.522075 
Q -0.676687 8.870829 1.286397 8.870829 
Q 3.249481 8.870829 4.394998 7.522075 
Q 5.540515 6.168702 5.540515 3.845335 
Q 5.540515 1.50811 4.394998 0.168594 
Q 3.249481 -1.175541 1.286397 -1.175541 
z
M 7.07403 -10.316583 
L 7.07403 -7.660646 
Q 5.974703 -8.177976 4.8569 -8.450499 
Q 3.739097 -8.72764 2.63977 -8.72764 
Q -0.247118 -8.72764 -1.771394 -6.778413 
Q -3.291052 -4.829186 -3.508146 -0.889162 
Q -2.658246 -2.145535 -1.374159 -2.815293 
Q -0.085452 -3.485051 1.457301 -3.485051 
Q 4.704473 -3.485051 6.589033 -1.512729 
Q 8.473594 0.454974 8.473594 3.845335 
Q 8.473594 7.166411 6.51051 9.175685 
Q 4.547426 11.18034 1.286397 11.18034 
Q -2.45501 11.18034 -4.43195 8.316547 
Q -6.408891 5.448135 -6.408891 0.006929 
Q -6.408891 -5.101708 -3.983905 -8.141024 
Q -1.55892 -11.18034 2.524295 -11.18034 
Q 3.623622 -11.18034 4.741425 -10.963246 
Q 5.859228 -10.746152 7.07403 -10.316583 
z
" id="m55c65dc111" style="stroke:#808080;"/>
    </defs>
    <g clip-path="url(#pb0a1f16d0d)">
     <use style="fill:#808080;stroke:#808080;" x="134.968216" xlink:href="#m55c65dc111" y="351.764909"/>
    </g>
   </g>
   <g id="PathCollection_8">
    <defs>
     <path d="M -5.93042 -11.18034 
L 8.446356 -11.18034 
L 8.446356 -9.891222 
L 0.32827 11.18034 
L -2.829829 11.18034 
L 4.809032 -8.630858 
L -5.93042 -8.630858 
L -5.93042 -11.18034 
z
" id="md5be788bbd" style="stroke:#808080;"/>
    </defs>
    <g clip-path="url(#pb0a1f16d0d)">
     <use style="fill:#808080;stroke:#808080;" x="244.01299" xlink:href="#md5be788bbd" y="443.735735"/>
    </g>
   </g>
   <g id="PathCollection_9">
    <defs>
     <path d="M 1.002328 0.524259 
Q -1.076232 0.524259 -2.267939 1.637443 
Q -3.455028 2.750627 -3.455028 4.695235 
Q -3.455028 6.644461 -2.267939 7.757645 
Q -1.076232 8.870829 1.002328 8.870829 
Q 3.080887 8.870829 4.277213 7.753026 
Q 5.478159 6.630604 5.478159 4.695235 
Q 5.478159 2.750627 4.286451 1.637443 
Q 3.099363 0.524259 1.002328 0.524259 
z
M -1.912275 -0.713639 
Q -3.787597 -1.175541 -4.836115 -2.459629 
Q -5.880014 -3.748335 -5.880014 -5.595944 
Q -5.880014 -8.177976 -4.041643 -9.679158 
Q -2.198654 -11.18034 1.002328 -11.18034 
Q 4.221785 -11.18034 6.055536 -9.679158 
Q 7.889288 -8.177976 7.889288 -5.595944 
Q 7.889288 -3.748335 6.84077 -2.459629 
Q 5.796871 -1.175541 3.935406 -0.713639 
Q 6.041679 -0.224023 7.214911 1.207874 
Q 8.392761 2.635151 8.392761 4.695235 
Q 8.392761 7.83155 6.480486 9.508254 
Q 4.568212 11.18034 1.002328 11.18034 
Q -2.558938 11.18034 -4.475831 9.508254 
Q -6.388106 7.83155 -6.388106 4.695235 
Q -6.388106 2.635151 -5.205636 1.207874 
Q -4.018548 -0.224023 -1.912275 -0.713639 
z
M -2.979268 -5.318802 
Q -2.979268 -3.646717 -1.93537 -2.709056 
Q -0.886852 -1.771394 1.002328 -1.771394 
Q 2.882269 -1.771394 3.940025 -2.709056 
Q 5.0024 -3.646717 5.0024 -5.318802 
Q 5.0024 -6.995507 3.940025 -7.933168 
Q 2.882269 -8.870829 1.002328 -8.870829 
Q -0.886852 -8.870829 -1.93537 -7.933168 
Q -2.979268 -6.995507 -2.979268 -5.318802 
z
" id="m2b1e0d4f3a" style="stroke:#808080;"/>
    </defs>
    <g clip-path="url(#pb0a1f16d0d)">
     <use style="fill:#808080;stroke:#808080;" x="315.840996" xlink:href="#m2b1e0d4f3a" y="466.992264"/>
    </g>
   </g>
   <g id="PathCollection_10">
    <defs>
     <path d="M -5.117875 10.311964 
L -5.117875 7.656027 
Q -4.018548 8.177976 -2.896126 8.450499 
Q -1.769085 8.723021 -0.683615 8.723021 
Q 2.203273 8.723021 3.722931 6.783032 
Q 5.247208 4.843043 5.464302 0.884542 
Q 4.628259 2.127059 3.339552 2.792198 
Q 2.055464 3.457337 0.498854 3.457337 
Q -2.73446 3.457337 -4.619021 1.503491 
Q -6.503581 -0.454974 -6.503581 -3.849954 
Q -6.503581 -7.166411 -4.540497 -9.171066 
Q -2.577414 -11.18034 0.683615 -11.18034 
Q 4.425022 -11.18034 6.392725 -8.311928 
Q 8.365047 -5.448135 8.365047 0.006929 
Q 8.365047 5.101708 5.94468 8.141024 
Q 3.528932 11.18034 -0.554282 11.18034 
Q -1.653609 11.18034 -2.780651 10.963246 
Q -3.903073 10.746152 -5.117875 10.311964 
z
M 0.683615 1.175541 
Q 2.646699 1.175541 3.792216 -0.163975 
Q 4.942352 -1.50811 4.942352 -3.849954 
Q 4.942352 -6.173321 3.792216 -7.522075 
Q 2.646699 -8.870829 0.683615 -8.870829 
Q -1.279469 -8.870829 -2.424986 -7.522075 
Q -3.570503 -6.173321 -3.570503 -3.849954 
Q -3.570503 -1.50811 -2.424986 -0.163975 
Q -1.279469 1.175541 0.683615 1.175541 
z
" id="m1df3fffbf1" style="stroke:#808080;"/>
    </defs>
    <g clip-path="url(#pb0a1f16d0d)">
     <use style="fill:#808080;stroke:#808080;" x="367.892063" xlink:href="#m1df3fffbf1" y="403.512794"/>
    </g>
   </g>
   <g id="PathCollection_11">
    <defs>
     <path d="M -8.880215 5.210045 
L -5.893528 5.210045 
L -5.893528 -5.10286 
L -9.143831 -4.451061 
L -9.143831 -6.116769 
L -5.910909 -6.768568 
L -4.082976 -6.768568 
L -4.082976 5.210045 
L -1.096289 5.210045 
L -1.096289 6.74829 
L -8.880215 6.74829 
L -8.880215 5.210045 
z
M 6.507667 -5.563464 
Q 5.096885 -5.563464 4.384252 -4.17296 
Q 3.674515 -2.785353 3.674515 0.004345 
Q 3.674515 2.782456 4.384252 4.17296 
Q 5.096885 5.563464 6.507667 5.563464 
Q 7.930037 5.563464 8.639773 4.17296 
Q 9.352407 2.782456 9.352407 0.004345 
Q 9.352407 -2.785353 8.639773 -4.17296 
Q 7.930037 -5.563464 6.507667 -5.563464 
z
M 6.507667 -7.011906 
Q 8.781721 -7.011906 9.98103 -5.212941 
Q 11.18034 -3.416874 11.18034 0.004345 
Q 11.18034 3.416874 9.98103 5.215838 
Q 8.781721 7.011906 6.507667 7.011906 
Q 4.236511 7.011906 3.037201 5.215838 
Q 1.837891 3.416874 1.837891 0.004345 
Q 1.837891 -3.416874 3.037201 -5.212941 
Q 4.236511 -7.011906 6.507667 -7.011906 
z
" id="m72e40a7416" style="stroke:#808080;"/>
    </defs>
    <g clip-path="url(#pb0a1f16d0d)">
     <use style="fill:#808080;stroke:#808080;" x="308.106308" xlink:href="#m72e40a7416" y="400.930572"/>
    </g>
   </g>
   <g id="PathCollection_12"/>
   <g id="PathCollection_13"/>
   <g id="PathCollection_14"/>
   <g id="PathCollection_15"/>
   <g id="PathCollection_16"/>
   <g id="matplotlib.axis_1">
    <g id="xtick_1">
     <g id="line2d_1">
      <defs>
       <path d="M 0 0 
L 0 3.5 
" id="m5d7ad60f3f" style="stroke:#000000;stroke-width:0.8;"/>
      </defs>
      <g>
       <use style="stroke:#000000;stroke-width:0.8;" x="114.739274" xlink:href="#m5d7ad60f3f" y="630"/>
      </g>
     </g>
     <g id="text_1">
      <!-- −300 -->
      <g transform="translate(101.005681 644.598438)scale(0.1 -0.1)">
       <defs>
        <path d="M 678 2272 
L 4684 2272 
L 4684 1741 
L 678 1741 
L 678 2272 
z
" id="DejaVuSans-2212" transform="scale(0.015625)"/>
        <path d="M 2597 2516 
Q 3050 2419 3304 2112 
Q 3559 1806 3559 1356 
Q 3559 666 3084 287 
Q 2609 -91 1734 -91 
Q 1441 -91 1130 -33 
Q 819 25 488 141 
L 488 750 
Q 750 597 1062 519 
Q 1375 441 1716 441 
Q 2309 441 2620 675 
Q 2931 909 2931 1356 
Q 2931 1769 2642 2001 
Q 2353 2234 1838 2234 
L 1294 2234 
L 1294 2753 
L 1863 2753 
Q 2328 2753 2575 2939 
Q 2822 3125 2822 3475 
Q 2822 3834 2567 4026 
Q 2313 4219 1838 4219 
Q 1578 4219 1281 4162 
Q 984 4106 628 3988 
L 628 4550 
Q 988 4650 1302 4700 
Q 1616 4750 1894 4750 
Q 2613 4750 3031 4423 
Q 3450 4097 3450 3541 
Q 3450 3153 3228 2886 
Q 3006 2619 2597 2516 
z
" id="DejaVuSans-33" transform="scale(0.015625)"/>
        <path d="M 2034 4250 
Q 1547 4250 1301 3770 
Q 1056 3291 1056 2328 
Q 1056 1369 1301 889 
Q 1547 409 2034 409 
Q 2525 409 2770 889 
Q 3016 1369 3016 2328 
Q 3016 3291 2770 3770 
Q 2525 4250 2034 4250 
z
M 2034 4750 
Q 2819 4750 3233 4129 
Q 3647 3509 3647 2328 
Q 3647 1150 3233 529 
Q 2819 -91 2034 -91 
Q 1250 -91 836 529 
Q 422 1150 422 2328 
Q 422 3509 836 4129 
Q 1250 4750 2034 4750 
z
" id="DejaVuSans-30" transform="scale(0.015625)"/>
       </defs>
       <use xlink:href="#DejaVuSans-2212"/>
       <use x="83.789062" xlink:href="#DejaVuSans-33"/>
       <use x="147.412109" xlink:href="#DejaVuSans-30"/>
       <use x="211.035156" xlink:href="#DejaVuSans-30"/>
      </g>
     </g>
    </g>
    <g id="xtick_2">
     <g id="line2d_2">
      <g>
       <use style="stroke:#000000;stroke-width:0.8;" x="196.433163" xlink:href="#m5d7ad60f3f" y="630"/>
      </g>
     </g>
     <g id="text_2">
      <!-- −200 -->
      <g transform="translate(182.69957 644.598438)scale(0.1 -0.1)">
       <defs>
        <path d="M 1228 531 
L 3431 531 
L 3431 0 
L 469 0 
L 469 531 
Q 828 903 1448 1529 
Q 2069 2156 2228 2338 
Q 2531 2678 2651 2914 
Q 2772 3150 2772 3378 
Q 2772 3750 2511 3984 
Q 2250 4219 1831 4219 
Q 1534 4219 1204 4116 
Q 875 4013 500 3803 
L 500 4441 
Q 881 4594 1212 4672 
Q 1544 4750 1819 4750 
Q 2544 4750 2975 4387 
Q 3406 4025 3406 3419 
Q 3406 3131 3298 2873 
Q 3191 2616 2906 2266 
Q 2828 2175 2409 1742 
Q 1991 1309 1228 531 
z
" id="DejaVuSans-32" transform="scale(0.015625)"/>
       </defs>
       <use xlink:href="#DejaVuSans-2212"/>
       <use x="83.789062" xlink:href="#DejaVuSans-32"/>
       <use x="147.412109" xlink:href="#DejaVuSans-30"/>
       <use x="211.035156" xlink:href="#DejaVuSans-30"/>
      </g>
     </g>
    </g>
    <g id="xtick_3">
     <g id="line2d_3">
      <g>
       <use style="stroke:#000000;stroke-width:0.8;" x="278.127052" xlink:href="#m5d7ad60f3f" y="630"/>
      </g>
     </g>
     <g id="text_3">
      <!-- −100 -->
      <g transform="translate(264.393459 644.598438)scale(0.1 -0.1)">
       <defs>
        <path d="M 794 531 
L 1825 531 
L 1825 4091 
L 703 3866 
L 703 4441 
L 1819 4666 
L 2450 4666 
L 2450 531 
L 3481 531 
L 3481 0 
L 794 0 
L 794 531 
z
" id="DejaVuSans-31" transform="scale(0.015625)"/>
       </defs>
       <use xlink:href="#DejaVuSans-2212"/>
       <use x="83.789062" xlink:href="#DejaVuSans-31"/>
       <use x="147.412109" xlink:href="#DejaVuSans-30"/>
       <use x="211.035156" xlink:href="#DejaVuSans-30"/>
      </g>
     </g>
    </g>
    <g id="xtick_4">
     <g id="line2d_4">
      <g>
       <use style="stroke:#000000;stroke-width:0.8;" x="359.820941" xlink:href="#m5d7ad60f3f" y="630"/>
      </g>
     </g>
     <g id="text_4">
      <!-- 0 -->
      <g transform="translate(356.639691 644.598438)scale(0.1 -0.1)">
       <use xlink:href="#DejaVuSans-30"/>
      </g>
     </g>
    </g>
    <g id="xtick_5">
     <g id="line2d_5">
      <g>
       <use style="stroke:#000000;stroke-width:0.8;" x="441.51483" xlink:href="#m5d7ad60f3f" y="630"/>
      </g>
     </g>
     <g id="text_5">
      <!-- 100 -->
      <g transform="translate(431.97108 644.598438)scale(0.1 -0.1)">
       <use xlink:href="#DejaVuSans-31"/>
       <use x="63.623047" xlink:href="#DejaVuSans-30"/>
       <use x="127.246094" xlink:href="#DejaVuSans-30"/>
      </g>
     </g>
    </g>
    <g id="xtick_6">
     <g id="line2d_6">
      <g>
       <use style="stroke:#000000;stroke-width:0.8;" x="523.208719" xlink:href="#m5d7ad60f3f" y="630"/>
      </g>
     </g>
     <g id="text_6">
      <!-- 200 -->
      <g transform="translate(513.664969 644.598438)scale(0.1 -0.1)">
       <use xlink:href="#DejaVuSans-32"/>
       <use x="63.623047" xlink:href="#DejaVuSans-30"/>
       <use x="127.246094" xlink:href="#DejaVuSans-30"/>
      </g>
     </g>
    </g>
    <g id="xtick_7">
     <g id="line2d_7">
      <g>
       <use style="stroke:#000000;stroke-width:0.8;" x="604.902608" xlink:href="#m5d7ad60f3f" y="630"/>
      </g>
     </g>
     <g id="text_7">
      <!-- 300 -->
      <g transform="translate(595.358858 644.598438)scale(0.1 -0.1)">
       <use xlink:href="#DejaVuSans-33"/>
       <use x="63.623047" xlink:href="#DejaVuSans-30"/>
       <use x="127.246094" xlink:href="#DejaVuSans-30"/>
      </g>
     </g>
    </g>
   </g>
   <g id="matplotlib.axis_2">
    <g id="ytick_1">
     <g id="line2d_8">
      <defs>
       <path d="M 0 0 
L -3.5 0 
" id="m94c8caedad" style="stroke:#000000;stroke-width:0.8;"/>
      </defs>
      <g>
       <use style="stroke:#000000;stroke-width:0.8;" x="90" xlink:href="#m94c8caedad" y="605.899158"/>
      </g>
     </g>
     <g id="text_8">
      <!-- −300 -->
      <g transform="translate(55.532812 609.698377)scale(0.1 -0.1)">
       <use xlink:href="#DejaVuSans-2212"/>
       <use x="83.789062" xlink:href="#DejaVuSans-33"/>
       <use x="147.412109" xlink:href="#DejaVuSans-30"/>
       <use x="211.035156" xlink:href="#DejaVuSans-30"/>
      </g>
     </g>
    </g>
    <g id="ytick_2">
     <g id="line2d_9">
      <g>
       <use style="stroke:#000000;stroke-width:0.8;" x="90" xlink:href="#m94c8caedad" y="526.313499"/>
      </g>
     </g>
     <g id="text_9">
      <!-- −200 -->
      <g transform="translate(55.532812 530.112718)scale(0.1 -0.1)">
       <use xlink:href="#DejaVuSans-2212"/>
       <use x="83.789062" xlink:href="#DejaVuSans-32"/>
       <use x="147.412109" xlink:href="#DejaVuSans-30"/>
       <use x="211.035156" xlink:href="#DejaVuSans-30"/>
      </g>
     </g>
    </g>
    <g id="ytick_3">
     <g id="line2d_10">
      <g>
       <use style="stroke:#000000;stroke-width:0.8;" x="90" xlink:href="#m94c8caedad" y="446.727839"/>
      </g>
     </g>
     <g id="text_10">
      <!-- −100 -->
      <g transform="translate(55.532812 450.527058)scale(0.1 -0.1)">
       <use xlink:href="#DejaVuSans-2212"/>
       <use x="83.789062" xlink:href="#DejaVuSans-31"/>
       <use x="147.412109" xlink:href="#DejaVuSans-30"/>
       <use x="211.035156" xlink:href="#DejaVuSans-30"/>
      </g>
     </g>
    </g>
    <g id="ytick_4">
     <g id="line2d_11">
      <g>
       <use style="stroke:#000000;stroke-width:0.8;" x="90" xlink:href="#m94c8caedad" y="367.14218"/>
      </g>
     </g>
     <g id="text_11">
      <!-- 0 -->
      <g transform="translate(76.6375 370.941399)scale(0.1 -0.1)">
       <use xlink:href="#DejaVuSans-30"/>
      </g>
     </g>
    </g>
    <g id="ytick_5">
     <g id="line2d_12">
      <g>
       <use style="stroke:#000000;stroke-width:0.8;" x="90" xlink:href="#m94c8caedad" y="287.55652"/>
      </g>
     </g>
     <g id="text_12">
      <!-- 100 -->
      <g transform="translate(63.9125 291.355739)scale(0.1 -0.1)">
       <use xlink:href="#DejaVuSans-31"/>
       <use x="63.623047" xlink:href="#DejaVuSans-30"/>
       <use x="127.246094" xlink:href="#DejaVuSans-30"/>
      </g>
     </g>
    </g>
    <g id="ytick_6">
     <g id="line2d_13">
      <g>
       <use style="stroke:#000000;stroke-width:0.8;" x="90" xlink:href="#m94c8caedad" y="207.970861"/>
      </g>
     </g>
     <g id="text_13">
      <!-- 200 -->
      <g transform="translate(63.9125 211.77008)scale(0.1 -0.1)">
       <use xlink:href="#DejaVuSans-32"/>
       <use x="63.623047" xlink:href="#DejaVuSans-30"/>
       <use x="127.246094" xlink:href="#DejaVuSans-30"/>
      </g>
     </g>
    </g>
    <g id="ytick_7">
     <g id="line2d_14">
      <g>
       <use style="stroke:#000000;stroke-width:0.8;" x="90" xlink:href="#m94c8caedad" y="128.385201"/>
      </g>
     </g>
     <g id="text_14">
      <!-- 300 -->
      <g transform="translate(63.9125 132.18442)scale(0.1 -0.1)">
       <use xlink:href="#DejaVuSans-33"/>
       <use x="63.623047" xlink:href="#DejaVuSans-30"/>
       <use x="127.246094" xlink:href="#DejaVuSans-30"/>
      </g>
     </g>
    </g>
   </g>
   <g id="line2d_15">
    <path clip-path="url(#pb0a1f16d0d)" d="M 308.106308 400.930572 
L 304.32134 402.484424 
L 300.496067 403.942015 
L 296.615405 405.252708 
L 292.654339 406.304816 
L 288.589087 406.743576 
L 285.480389 404.678429 
L 286.271282 400.7922 
L 288.134123 397.23443 
L 290.32035 393.85222 
L 292.666189 390.570712 
L 295.107605 387.354154 
L 297.612295 384.182546 
L 300.161419 381.043451 
L 302.742906 377.928541 
L 305.34849 374.831919 
L 307.972221 371.749232 
L 310.609647 368.677153 
L 313.25733 365.61307 
L 315.912544 362.554883 
L 318.573074 359.50087 
L 321.237092 356.449592 
L 323.903055 353.399832 
L 326.569642 350.350543 
L 329.235708 347.300813 
L 331.900242 344.24984 
L 334.562344 341.196908 
L 337.2212 338.141375 
L 339.876067 335.082656 
L 342.526258 332.020215 
L 345.171133 328.953557 
L 347.810088 325.88222 
L 350.442547 322.805768 
L 353.06796 319.723791 
" style="fill:none;stroke:#808080;stroke-linecap:square;stroke-width:1.5;"/>
   </g>
   <g id="line2d_16">
    <path clip-path="url(#pb0a1f16d0d)" d="M 285.480389 406.743576 
L 285.480389 319.723791 
L 353.06796 319.723791 
L 353.06796 406.743576 
L 285.480389 406.743576 
" style="fill:none;stroke:#d3d3d3;stroke-linecap:square;stroke-width:0.5;"/>
   </g>
   <g id="line2d_17">
    <path clip-path="url(#pb0a1f16d0d)" d="M 353.06796 319.723791 
L 355.68579 316.635893 
L 358.295518 313.541697 
L 360.896628 310.440836 
L 363.488613 307.332953 
L 366.070964 304.217699 
L 368.643173 301.094727 
L 371.204725 297.963695 
L 373.755098 294.824263 
L 376.29376 291.676088 
L 378.820164 288.518825 
L 381.333748 285.352129 
L 383.833931 282.175644 
L 386.32011 278.989013 
L 388.791655 275.791867 
L 391.24791 272.58383 
L 393.688183 269.364514 
L 396.11175 266.133518 
L 398.517844 262.890428 
L 400.905654 259.634816 
L 403.274318 256.366233 
L 405.622918 253.084214 
L 407.950473 249.788272 
L 410.255935 246.477898 
L 412.538173 243.152557 
L 414.795975 239.811689 
L 417.028025 236.454703 
L 419.232903 233.080974 
L 421.409059 229.689848 
L 423.55481 226.280628 
L 425.668307 222.85258 
L 427.747527 219.404927 
L 429.790238 215.936843 
L 431.793971 212.447457 
" style="fill:none;stroke:#808080;stroke-linecap:square;stroke-width:1.5;"/>
   </g>
   <g id="line2d_18">
    <path clip-path="url(#pb0a1f16d0d)" d="M 353.06796 319.723791 
L 353.06796 212.447457 
L 431.793971 212.447457 
L 431.793971 319.723791 
L 353.06796 319.723791 
" style="fill:none;stroke:#d3d3d3;stroke-linecap:square;stroke-width:0.5;"/>
   </g>
   <g id="line2d_19">
    <path clip-path="url(#pb0a1f16d0d)" d="M 431.793971 212.447457 
L 433.755987 208.935843 
L 435.673234 205.401023 
L 437.542292 201.841963 
L 439.359317 198.257576 
L 441.119968 194.64672 
L 442.819309 191.008207 
L 444.451711 187.340812 
L 446.010704 183.643293 
L 447.488822 179.914421 
L 448.877386 176.153028 
L 450.166249 172.35808 
L 451.343475 168.528802 
L 452.394935 164.664849 
L 453.303817 160.766589 
L 454.05003 156.835527 
L 454.609512 152.87495 
L 454.953497 148.890905 
L 455.047869 144.893642 
L 454.852908 140.899658 
L 454.324055 136.934376 
L 453.414643 133.035127 
L 452.08177 129.25328 
L 450.295709 125.653292 
L 448.050776 122.306057 
L 445.372249 119.276369 
L 442.31383 116.609266 
L 438.945822 114.322517 
L 435.340613 112.408477 
L 431.562226 110.842094 
L 427.661998 109.589785 
L 423.678666 108.616021 
L 419.640447 107.887107 
L 415.567519 107.372857 
" style="fill:none;stroke:#808080;stroke-linecap:square;stroke-width:1.5;"/>
   </g>
   <g id="line2d_20">
    <path clip-path="url(#pb0a1f16d0d)" d="M 415.567519 212.447457 
L 415.567519 107.372857 
L 455.047869 107.372857 
L 455.047869 212.447457 
L 415.567519 212.447457 
" style="fill:none;stroke:#d3d3d3;stroke-linecap:square;stroke-width:0.5;"/>
   </g>
   <g id="line2d_21">
    <path clip-path="url(#pb0a1f16d0d)" d="M 415.567519 107.372857 
L 411.474182 107.047037 
" style="fill:none;stroke:#808080;stroke-linecap:square;stroke-width:1.5;"/>
   </g>
   <g id="line2d_22">
    <path clip-path="url(#pb0a1f16d0d)" d="M 411.474182 107.372857 
L 411.474182 107.047037 
L 415.567519 107.047037 
L 415.567519 107.372857 
L 411.474182 107.372857 
" style="fill:none;stroke:#d3d3d3;stroke-linecap:square;stroke-width:0.5;"/>
   </g>
   <g id="line2d_23">
    <path clip-path="url(#pb0a1f16d0d)" d="M 411.474182 107.047037 
L 407.340615 106.824021 
L 403.205097 106.638406 
L 399.068043 106.491499 
L 394.929885 106.384629 
L 390.791076 106.319146 
L 386.652095 106.296415 
L 382.51345 106.317813 
L 378.375682 106.38473 
L 374.239371 106.498557 
L 370.105135 106.660688 
L 365.973637 106.872508 
L 361.845584 107.135392 
L 357.721734 107.450695 
L 353.602891 107.819744 
L 349.489909 108.243831 
L 345.383693 108.724206 
L 341.285195 109.262067 
L 337.195416 109.858549 
L 333.115398 110.514721 
L 329.046228 111.231572 
L 324.989029 112.010003 
L 320.944956 112.850825 
L 316.91519 113.754743 
L 312.900935 114.722357 
L 308.903407 115.754153 
L 304.923833 116.850499 
L 300.963436 118.01164 
L 297.023434 119.237702 
L 293.105033 120.528683 
L 289.209413 121.88446 
L 285.337732 123.304789 
L 281.491108 124.789306 
L 277.670623 126.337536 
L 273.877314 127.948894 
L 270.112165 129.622692 
L 266.376111 131.358151 
L 262.670028 133.154401 
" style="fill:none;stroke:#808080;stroke-linecap:square;stroke-width:1.5;"/>
   </g>
   <g id="line2d_24">
    <path clip-path="url(#pb0a1f16d0d)" d="M 262.670028 133.154401 
L 262.670028 106.296415 
L 411.474182 106.296415 
L 411.474182 133.154401 
L 262.670028 133.154401 
" style="fill:none;stroke:#d3d3d3;stroke-linecap:square;stroke-width:0.5;"/>
   </g>
   <g id="line2d_25">
    <path clip-path="url(#pb0a1f16d0d)" d="M 262.670028 133.154401 
L 258.994734 135.010498 
L 255.35099 136.925425 
L 251.739492 138.898108 
L 248.160881 140.92742 
L 244.615734 143.012193 
L 241.104571 145.151225 
L 237.627857 147.34329 
L 234.186002 149.587148 
L 230.779365 151.881547 
L 227.408254 154.225237 
L 224.072936 156.616975 
L 220.773634 159.055527 
L 217.510535 161.539681 
L 214.28379 164.068246 
L 211.093523 166.64006 
L 207.939831 169.253993 
L 204.822788 171.908951 
L 201.742453 174.60388 
L 198.698872 177.337764 
L 195.692078 180.109635 
L 192.722105 182.918567 
L 189.788981 185.763682 
L 186.892741 188.644149 
L 184.033428 191.559186 
L 181.211096 194.508059 
L 178.425817 197.49008 
L 175.677686 200.504612 
L 172.966823 203.551063 
L 170.293381 206.628889 
L 167.65755 209.737589 
L 165.059563 212.876706 
L 162.499703 216.045826 
L 159.978306 219.244572 
L 157.495776 222.472607 
L 155.052582 225.729626 
L 152.649275 229.015356 
L 150.286494 232.329553 
" style="fill:none;stroke:#808080;stroke-linecap:square;stroke-width:1.5;"/>
   </g>
   <g id="line2d_26">
    <path clip-path="url(#pb0a1f16d0d)" d="M 150.286494 232.329553 
L 150.286494 133.154401 
L 262.670028 133.154401 
L 262.670028 232.329553 
L 150.286494 232.329553 
" style="fill:none;stroke:#d3d3d3;stroke-linecap:square;stroke-width:0.5;"/>
   </g>
   <g id="line2d_27">
    <path clip-path="url(#pb0a1f16d0d)" d="M 150.286494 232.329553 
L 147.964977 235.671997 
L 145.685571 239.042486 
L 143.449245 242.440836 
L 141.257108 245.866872 
L 139.110418 249.320423 
L 137.010606 252.801318 
L 134.959297 256.309377 
L 132.958328 259.844404 
L 131.009781 263.40618 
L 129.116013 266.994456 
L 127.279692 270.608939 
L 125.503844 274.249292 
L 123.791903 277.915116 
L 122.147774 281.605948 
L 120.575915 285.321252 
L 119.08143 289.060412 
L 117.670193 292.822735 
L 116.349006 296.607452 
L 115.12581 300.413727 
L 114.009968 304.240679 
L 113.012659 308.087408 
L 112.147446 311.953023 
L 111.431108 315.836653 
L 110.884909 319.737367 
L 110.536569 323.653838 
L 110.423371 327.583315 
L 110.596998 331.51884 
L 111.130537 335.442253 
L 112.126143 339.308185 
L 113.714336 343.013461 
L 116.019766 346.361212 
L 119.071197 349.07723 
L 122.723899 350.941139 
L 126.724069 351.920272 
L 130.849582 352.13899 
L 134.968216 351.764909 
" style="fill:none;stroke:#808080;stroke-linecap:square;stroke-width:1.5;"/>
   </g>
   <g id="line2d_28">
    <path clip-path="url(#pb0a1f16d0d)" d="M 110.423371 352.13899 
L 110.423371 232.329553 
L 150.286494 232.329553 
L 150.286494 352.13899 
L 110.423371 352.13899 
" style="fill:none;stroke:#d3d3d3;stroke-linecap:square;stroke-width:0.5;"/>
   </g>
   <g id="line2d_29">
    <path clip-path="url(#pb0a1f16d0d)" d="M 134.968216 351.764909 
L 139.118467 351.152604 
L 143.273138 350.573624 
L 147.432243 350.031526 
L 151.59573 349.530435 
L 155.763456 349.075154 
L 159.935153 348.671327 
L 164.110385 348.325626 
L 168.288486 348.046013 
L 172.468471 347.84207 
L 176.648915 347.725451 
L 180.827752 347.710484 
L 185.001973 347.815001 
L 189.167107 348.06148 
L 193.316309 348.478606 
L 197.438657 349.103343 
L 201.515898 349.983374 
L 205.516426 351.17899 
L 209.38545 352.761408 
L 213.034101 354.801131 
L 216.340437 357.34057 
L 219.181061 360.361385 
L 221.484481 363.779057 
L 223.258759 367.477951 
L 224.571608 371.353538 
L 225.513262 375.331171 
L 226.171324 379.364357 
L 226.62118 383.426373 
L 226.925125 387.502659 
L 227.134692 391.585639 
L 227.293627 395.671516 
L 227.440648 399.758296 
L 227.611837 403.844486 
L 227.842791 407.92807 
L 228.170656 412.005463 
L 228.636213 416.070174 
L 229.28608 420.110805 
L 230.174899 424.107911 
L 231.366871 428.029085 
L 232.934786 431.821875 
L 234.952686 435.4057 
L 237.477015 438.668673 
L 240.517008 441.481519 
L 244.01299 443.735735 
" style="fill:none;stroke:#808080;stroke-linecap:square;stroke-width:1.5;"/>
   </g>
   <g id="line2d_30">
    <path clip-path="url(#pb0a1f16d0d)" d="M 134.968216 443.735735 
L 134.968216 347.710484 
L 244.01299 347.710484 
L 244.01299 443.735735 
L 134.968216 443.735735 
" style="fill:none;stroke:#d3d3d3;stroke-linecap:square;stroke-width:0.5;"/>
   </g>
   <g id="line2d_31">
    <path clip-path="url(#pb0a1f16d0d)" d="M 244.01299 443.735735 
L 247.829207 445.620233 
L 251.762121 447.26157 
L 255.811066 448.607738 
L 259.965393 449.601006 
L 264.200214 450.184853 
L 268.474826 450.316322 
L 272.73784 449.980941 
L 276.939982 449.202658 
L 281.049058 448.042505 
L 285.059484 446.588768 
L 288.99475 444.949191 
L 292.907698 443.256903 
L 296.883927 441.707344 
L 301.032949 440.678666 
L 305.27024 440.994883 
L 308.75575 443.309688 
L 311.081996 446.773764 
L 312.659472 450.637536 
L 313.797216 454.653022 
L 314.654631 458.736697 
L 315.318641 462.854943 
L 315.840996 466.992264 
" style="fill:none;stroke:#808080;stroke-linecap:square;stroke-width:1.5;"/>
   </g>
   <g id="line2d_32">
    <path clip-path="url(#pb0a1f16d0d)" d="M 244.01299 466.992264 
L 244.01299 440.678666 
L 315.840996 440.678666 
L 315.840996 466.992264 
L 244.01299 466.992264 
" style="fill:none;stroke:#d3d3d3;stroke-linecap:square;stroke-width:0.5;"/>
   </g>
   <g id="line2d_33">
    <path clip-path="url(#pb0a1f16d0d)" d="M 315.840996 466.992264 
L 316.321328 471.086141 
L 316.854577 475.17386 
L 317.459606 479.251502 
L 318.168515 483.31191 
L 319.044067 487.339123 
L 320.243664 491.282501 
L 322.473264 494.711466 
L 325.969879 493.221363 
L 328.172414 489.730109 
L 329.979181 486.020283 
L 331.618059 482.232904 
L 333.169587 478.407499 
L 334.673085 474.56144 
L 336.151467 470.704275 
L 337.619753 466.842061 
L 339.088709 462.979075 
L 340.566631 459.118616 
L 342.060325 455.263439 
L 343.575699 451.415997 
L 345.118137 447.578618 
L 346.692766 443.753623 
L 348.304662 439.943428 
L 349.959012 436.150646 
L 351.661276 432.378185 
L 353.41734 428.629369 
L 355.233677 424.908087 
L 357.117545 421.218976 
L 359.077211 417.567679 
L 361.122226 413.961193 
L 363.263772 410.408355 
L 365.515099 406.920558 
L 367.892063 403.512794 
" style="fill:none;stroke:#808080;stroke-linecap:square;stroke-width:1.5;"/>
   </g>
   <g id="line2d_34">
    <path clip-path="url(#pb0a1f16d0d)" d="M 315.840996 494.711466 
L 315.840996 403.512794 
L 367.892063 403.512794 
L 367.892063 494.711466 
L 315.840996 494.711466 
" style="fill:none;stroke:#d3d3d3;stroke-linecap:square;stroke-width:0.5;"/>
   </g>
   <g id="line2d_35">
    <path clip-path="url(#pb0a1f16d0d)" d="M 367.892063 403.512794 
L 370.236559 399.929745 
L 372.029017 396.062855 
L 372.598284 391.896652 
L 370.576496 388.252959 
L 366.636329 386.503343 
L 362.335184 385.990231 
L 357.994002 386.099735 
L 353.668279 386.58234 
L 349.373341 387.318277 
L 345.11314 388.240432 
L 340.88751 389.307265 
L 336.694796 390.491229 
L 332.53291 391.773088 
L 328.399771 393.138858 
L 324.293469 394.578045 
L 320.212319 396.082564 
L 316.154869 397.646058 
L 312.119881 399.263436 
L 308.106308 400.930572 
" style="fill:none;stroke:#808080;stroke-linecap:square;stroke-width:1.5;"/>
   </g>
   <g id="line2d_36">
    <path clip-path="url(#pb0a1f16d0d)" d="M 308.106308 403.512794 
L 308.106308 385.990231 
L 372.598284 385.990231 
L 372.598284 403.512794 
L 308.106308 403.512794 
" style="fill:none;stroke:#d3d3d3;stroke-linecap:square;stroke-width:0.5;"/>
   </g>
   <g id="line2d_37">
    <path clip-path="url(#pb0a1f16d0d)" d="M 247.914605 436.743474 
L 247.914605 436.743474 
L 247.914605 436.743474 
" style="fill:none;stroke:#000000;stroke-linecap:square;stroke-width:3;"/>
   </g>
   <g id="line2d_38">
    <path clip-path="url(#pb0a1f16d0d)" d="M 247.914605 436.743474 
L 247.914605 436.743474 
L 247.914605 436.743474 
L 247.914605 436.743474 
L 247.914605 436.743474 
" style="fill:none;stroke:#d3d3d3;stroke-linecap:square;stroke-width:0.5;"/>
   </g>
   <g id="line2d_39">
    <path clip-path="url(#pb0a1f16d0d)" d="M 247.914605 436.743474 
L 247.914605 436.743474 
L 247.914605 436.743474 
" style="fill:none;stroke:#000000;stroke-linecap:square;stroke-width:3;"/>
   </g>
   <g id="line2d_40">
    <path clip-path="url(#pb0a1f16d0d)" d="M 247.914605 436.743474 
L 247.914605 436.743474 
L 247.914605 436.743474 
L 247.914605 436.743474 
L 247.914605 436.743474 
" style="fill:none;stroke:#d3d3d3;stroke-linecap:square;stroke-width:0.5;"/>
   </g>
   <g id="line2d_41">
    <path clip-path="url(#pb0a1f16d0d)" d="M 364.099768 394.173541 
L 364.483276 392.813413 
L 365.381528 394.39511 
L 364.748366 394.246466 
L 364.099768 394.173541 
" style="fill:none;stroke:#000000;stroke-linecap:square;stroke-width:3;"/>
   </g>
   <g id="line2d_42">
    <path clip-path="url(#pb0a1f16d0d)" d="M 364.099768 394.39511 
L 364.099768 392.813413 
L 365.381528 392.813413 
L 365.381528 394.39511 
L 364.099768 394.39511 
" style="fill:none;stroke:#d3d3d3;stroke-linecap:square;stroke-width:0.5;"/>
   </g>
   <g id="line2d_43">
    <path clip-path="url(#pb0a1f16d0d)" d="M 361.227162 398.910516 
L 361.227162 398.910516 
L 363.105311 396.047097 
L 364.265951 393.584167 
L 364.099768 394.173541 
" style="fill:none;stroke:#000000;stroke-linecap:square;stroke-width:3;"/>
   </g>
   <g id="line2d_44">
    <path clip-path="url(#pb0a1f16d0d)" d="M 361.227162 398.910516 
L 361.227162 393.584167 
L 364.265951 393.584167 
L 364.265951 398.910516 
L 361.227162 398.910516 
" style="fill:none;stroke:#d3d3d3;stroke-linecap:square;stroke-width:0.5;"/>
   </g>
   <g id="line2d_45">
    <path clip-path="url(#pb0a1f16d0d)" d="M 133.713889 343.900712 
L 133.713889 343.900712 
L 137.927332 343.279088 
L 142.151781 342.690389 
L 146.388275 342.138211 
L 150.638008 341.626747 
L 154.902357 341.160923 
L 159.18293 340.746571 
L 163.481623 340.390667 
L 167.800705 340.101646 
L 172.142921 339.889826 
L 176.511631 339.768009 
L 180.910981 339.752331 
L 185.34609 339.863499 
L 189.823188 340.12862 
L 194.349491 340.583944 
L 198.932218 341.278914 
L 203.575285 342.281831 
L 208.270305 343.686241 
L 212.976233 345.612846 
L 217.584671 348.191586 
L 221.891538 351.501566 
L 225.636596 355.484091 
L 228.633239 359.92709 
L 230.865138 364.574609 
L 232.448231 369.242048 
L 233.537696 373.838598 
L 234.27205 378.334682 
L 234.759156 382.729115 
L 235.080127 387.030542 
L 235.296773 391.249106 
L 235.458017 395.393136 
L 235.604594 399.467845 
L 235.772401 403.474665 
L 235.994891 407.410576 
L 236.304812 411.267122 
L 236.735375 415.028885 
L 237.320721 418.671286 
L 238.09525 422.157831 
L 239.091041 425.437638 
L 240.332783 428.445966 
L 241.831962 431.113221 
L 243.588077 433.386977 
L 245.606086 435.255805 
L 247.914605 436.743474 
" style="fill:none;stroke:#000000;stroke-linecap:square;stroke-width:3;"/>
   </g>
   <g id="line2d_46">
    <path clip-path="url(#pb0a1f16d0d)" d="M 133.713889 436.743474 
L 133.713889 339.752331 
L 247.914605 339.752331 
L 247.914605 436.743474 
L 133.713889 436.743474 
" style="fill:none;stroke:#d3d3d3;stroke-linecap:square;stroke-width:0.5;"/>
   </g>
   <g id="line2d_47">
    <path clip-path="url(#pb0a1f16d0d)" d="M 364.099768 394.173541 
L 362.061026 393.944314 
L 358.616195 394.035185 
L 354.867848 394.454641 
L 350.983048 395.120817 
L 347.034227 395.975819 
L 343.05654 396.980189 
L 339.068428 398.106456 
L 335.080118 399.334904 
L 331.097521 400.650962 
L 327.124164 402.043577 
L 323.162206 403.504173 
L 319.212994 405.02597 
L 315.27739 406.603521 
L 311.35596 408.23239 
L 311.35596 408.23239 
" style="fill:none;stroke:#000000;stroke-linecap:square;stroke-width:3;"/>
   </g>
   <g id="line2d_48">
    <path clip-path="url(#pb0a1f16d0d)" d="M 311.35596 408.23239 
L 311.35596 393.944314 
L 364.099768 393.944314 
L 364.099768 408.23239 
L 311.35596 408.23239 
" style="fill:none;stroke:#d3d3d3;stroke-linecap:square;stroke-width:0.5;"/>
   </g>
   <g id="line2d_49">
    <path clip-path="url(#pb0a1f16d0d)" d="M 325.233429 476.317821 
L 325.54965 475.538094 
L 327.026943 471.758974 
L 328.492881 467.934244 
L 329.957883 464.080664 
L 331.430307 460.208562 
L 332.917136 456.324846 
L 334.424474 452.434468 
L 335.957902 448.541203 
L 337.522744 444.648104 
L 339.124274 440.757785 
L 340.767899 436.872613 
L 342.459331 432.994846 
L 344.204764 429.126752 
L 346.011072 425.270715 
L 347.886046 421.429352 
L 349.838683 417.60564 
L 351.87957 413.803096 
L 354.021386 410.026007 
L 356.279595 406.279775 
L 358.67341 402.57144 
L 361.227162 398.910516 
L 361.227162 398.910516 
" style="fill:none;stroke:#000000;stroke-linecap:square;stroke-width:3;"/>
   </g>
   <g id="line2d_50">
    <path clip-path="url(#pb0a1f16d0d)" d="M 325.233429 476.317821 
L 325.233429 398.910516 
L 361.227162 398.910516 
L 361.227162 476.317821 
L 325.233429 476.317821 
" style="fill:none;stroke:#d3d3d3;stroke-linecap:square;stroke-width:0.5;"/>
   </g>
   <g id="line2d_51">
    <path clip-path="url(#pb0a1f16d0d)" d="M 247.914605 436.743474 
L 251.299501 438.415416 
L 254.707361 439.83821 
L 258.122537 440.974385 
L 261.527961 441.789377 
L 264.911463 442.256507 
L 268.273791 442.360166 
L 271.632274 442.095589 
L 275.015584 441.468052 
L 278.455881 440.495532 
L 281.990813 439.213012 
L 285.681476 437.674559 
L 289.652136 435.957584 
L 294.185818 434.195362 
L 299.974848 432.787137 
L 307.90303 433.460938 
L 314.817296 437.974114 
L 318.413348 443.262585 
L 320.428535 448.176742 
L 321.74995 452.832317 
L 322.697607 457.34205 
L 323.410948 461.764247 
L 323.962282 466.129884 
L 323.962282 466.129884 
" style="fill:none;stroke:#000000;stroke-linecap:square;stroke-width:3;"/>
   </g>
   <g id="line2d_52">
    <path clip-path="url(#pb0a1f16d0d)" d="M 247.914605 466.129884 
L 247.914605 432.787137 
L 323.962282 432.787137 
L 323.962282 466.129884 
L 247.914605 466.129884 
" style="fill:none;stroke:#d3d3d3;stroke-linecap:square;stroke-width:0.5;"/>
   </g>
   <g id="line2d_53">
    <path clip-path="url(#pb0a1f16d0d)" d="M 311.35596 408.23239 
L 311.35596 408.23239 
L 307.407439 409.853276 
L 303.345153 411.400905 
L 299.083741 412.839308 
L 294.386978 414.082327 
L 288.169291 414.691627 
L 277.434891 406.059201 
L 278.727264 397.738338 
L 281.078388 393.222985 
L 283.528978 389.428889 
L 286.038876 385.917203 
L 288.591169 382.554338 
L 291.174864 379.282595 
L 293.782205 376.071766 
L 296.407492 372.903983 
L 299.0464 369.767745 
L 301.695561 366.655172 
L 304.352288 363.560608 
L 307.014393 360.479833 
L 309.680064 357.409599 
L 312.347771 354.347348 
L 315.016204 351.291013 
L 317.684225 348.238898 
L 320.350834 345.189585 
L 323.015137 342.141871 
L 325.67633 339.094724 
L 328.333678 336.047244 
L 330.986503 332.998642 
L 333.634175 329.948212 
L 336.276099 326.895324 
L 338.911712 323.839406 
L 341.540473 320.779933 
L 344.16186 317.716421 
L 346.775365 314.648423 
" style="fill:none;stroke:#000000;stroke-linecap:square;stroke-width:3;"/>
   </g>
   <g id="line2d_54">
    <path clip-path="url(#pb0a1f16d0d)" d="M 277.434891 414.691627 
L 277.434891 314.648423 
L 346.775365 314.648423 
L 346.775365 414.691627 
L 277.434891 414.691627 
" style="fill:none;stroke:#d3d3d3;stroke-linecap:square;stroke-width:0.5;"/>
   </g>
   <g id="line2d_55">
    <path clip-path="url(#pb0a1f16d0d)" d="M 346.775365 314.648423 
L 349.380487 311.575516 
L 351.976734 308.497304 
L 354.563614 305.413408 
L 357.140637 302.323465 
L 359.707306 299.227129 
L 362.263123 296.12406 
L 364.807575 293.01393 
L 367.340144 289.896415 
L 369.860293 286.771198 
L 372.36747 283.637964 
L 374.861106 280.4964 
L 377.340607 277.346194 
L 379.805354 274.187032 
L 382.254703 271.018601 
L 384.687974 267.840582 
L 387.104455 264.652655 
L 389.503394 261.454494 
L 391.883993 258.245769 
L 394.24541 255.026143 
L 396.586746 251.795272 
L 398.907043 248.552806 
L 401.205276 245.298388 
L 403.480349 242.031651 
L 405.73108 238.752222 
L 407.956197 235.459719 
L 410.154326 232.153754 
L 412.323978 228.833929 
L 414.463532 225.499845 
L 416.571226 222.151096 
L 418.645129 218.787277 
L 420.683127 215.407983 
L 422.682892 212.01282 
L 424.641857 208.601405 
L 426.557177 205.173382 
" style="fill:none;stroke:#000000;stroke-linecap:square;stroke-width:3;"/>
   </g>
   <g id="line2d_56">
    <path clip-path="url(#pb0a1f16d0d)" d="M 346.775365 314.648423 
L 346.775365 205.173382 
L 426.557177 205.173382 
L 426.557177 314.648423 
L 346.775365 314.648423 
" style="fill:none;stroke:#d3d3d3;stroke-linecap:square;stroke-width:0.5;"/>
   </g>
   <g id="line2d_57">
    <path clip-path="url(#pb0a1f16d0d)" d="M 426.557177 205.173382 
L 428.425689 201.728428 
L 430.243866 198.266274 
L 432.007758 194.786727 
L 433.712922 191.289696 
L 435.354342 187.775237 
L 436.926336 184.243605 
L 438.422431 180.695327 
L 439.835237 177.131305 
L 441.156274 173.552946 
L 442.375787 169.962353 
L 443.482528 166.362579 
L 444.463509 162.757968 
L 445.303754 159.154626 
L 445.986072 155.561043 
L 446.490911 151.988894 
L 446.796427 148.454013 
L 446.878932 144.977435 
L 446.713972 141.586198 
L 446.278216 138.313261 
L 445.552003 135.19551 
L 444.521576 132.268939 
L 443.179341 129.561767 
L 441.521508 127.089295 
L 439.546101 124.855269 
L 437.255751 122.85891 
L 434.66403 121.100354 
L 431.79849 119.580042 
L 428.697149 118.295168 
L 425.401667 117.237658 
L 421.951548 116.394698 
L 418.381032 115.750532 
L 414.718215 115.288298 
L 410.985429 114.991347 
L 410.985429 114.991347 
" style="fill:none;stroke:#000000;stroke-linecap:square;stroke-width:3;"/>
   </g>
   <g id="line2d_58">
    <path clip-path="url(#pb0a1f16d0d)" d="M 410.985429 205.173382 
L 410.985429 114.991347 
L 446.878932 114.991347 
L 446.878932 205.173382 
L 410.985429 205.173382 
" style="fill:none;stroke:#d3d3d3;stroke-linecap:square;stroke-width:0.5;"/>
   </g>
   <g id="line2d_59">
    <path clip-path="url(#pb0a1f16d0d)" d="M 410.985429 114.991347 
" style="fill:none;stroke:#000000;stroke-linecap:square;stroke-width:3;"/>
   </g>
   <g id="line2d_60">
    <path clip-path="url(#pb0a1f16d0d)" d="M 410.985429 114.991347 
L 410.985429 114.991347 
L 410.985429 114.991347 
L 410.985429 114.991347 
L 410.985429 114.991347 
" style="fill:none;stroke:#d3d3d3;stroke-linecap:square;stroke-width:0.5;"/>
   </g>
   <g id="line2d_61">
    <path clip-path="url(#pb0a1f16d0d)" d="M 323.962282 466.129884 
L 323.962282 466.129884 
L 324.432438 470.137209 
L 324.950697 474.110357 
L 325.53192 478.028256 
L 325.233429 476.317821 
" style="fill:none;stroke:#000000;stroke-linecap:square;stroke-width:3;"/>
   </g>
   <g id="line2d_62">
    <path clip-path="url(#pb0a1f16d0d)" d="M 323.962282 478.028256 
L 323.962282 466.129884 
L 325.53192 466.129884 
L 325.53192 478.028256 
L 323.962282 478.028256 
" style="fill:none;stroke:#d3d3d3;stroke-linecap:square;stroke-width:0.5;"/>
   </g>
   <g id="line2d_63">
    <path clip-path="url(#pb0a1f16d0d)" d="M 410.985429 114.991347 
L 410.985429 114.991347 
L 406.926319 114.772346 
L 402.867871 114.590188 
L 398.810556 114.446111 
L 394.754852 114.341368 
L 390.701254 114.277231 
L 386.650277 114.25498 
L 382.602455 114.275907 
L 378.558345 114.341306 
L 374.518534 114.452475 
L 370.483633 114.610707 
L 366.454287 114.817287 
L 362.43117 115.073486 
L 358.414989 115.380554 
L 354.406485 115.739713 
L 350.406431 116.152153 
L 346.41563 116.619023 
L 342.434918 117.141423 
L 338.46516 117.720398 
L 334.507245 118.356929 
L 330.56209 119.05193 
L 326.630628 119.806235 
L 322.713812 120.620595 
L 318.812608 121.495673 
L 314.92799 122.432037 
L 311.060936 123.430155 
L 307.212427 124.490391 
L 303.383436 125.613004 
L 299.574929 126.798146 
L 295.787857 128.045857 
L 292.023156 129.356071 
L 288.281738 130.728613 
L 284.56449 132.163201 
L 280.872271 133.659453 
L 277.205907 135.216886 
L 273.566191 136.834924 
L 269.953878 138.512904 
" style="fill:none;stroke:#000000;stroke-linecap:square;stroke-width:3;"/>
   </g>
   <g id="line2d_64">
    <path clip-path="url(#pb0a1f16d0d)" d="M 269.953878 138.512904 
L 269.953878 114.25498 
L 410.985429 114.25498 
L 410.985429 138.512904 
L 269.953878 138.512904 
" style="fill:none;stroke:#d3d3d3;stroke-linecap:square;stroke-width:0.5;"/>
   </g>
   <g id="line2d_65">
    <path clip-path="url(#pb0a1f16d0d)" d="M 269.953878 138.512904 
L 266.369685 140.250079 
L 262.814288 142.045627 
L 259.288324 143.898658 
L 255.792385 145.808222 
L 252.327026 147.773315 
L 248.892755 149.792888 
L 245.490044 151.865853 
L 242.119322 153.991093 
L 238.780981 156.167469 
L 235.475375 158.393825 
L 232.202822 160.668998 
L 228.963609 162.991822 
L 225.757991 165.361134 
L 222.586196 167.775782 
L 219.448424 170.234627 
L 216.344856 172.736552 
L 213.27565 175.28046 
L 210.24095 177.865285 
L 207.240886 180.489988 
L 204.275578 183.153565 
L 201.345141 185.855048 
L 198.449685 188.593505 
L 195.589323 191.368043 
L 192.764172 194.17781 
L 189.974358 197.021994 
L 187.220021 199.899824 
L 184.501317 202.810569 
L 181.818424 205.75354 
L 179.171547 208.728085 
L 176.560923 211.733592 
L 173.986824 214.769485 
L 171.449568 217.835223 
L 168.949519 220.930295 
L 166.487097 224.054224 
L 164.062787 227.206554 
L 161.677141 230.386854 
L 159.330794 233.594711 
" style="fill:none;stroke:#000000;stroke-linecap:square;stroke-width:3;"/>
   </g>
   <g id="line2d_66">
    <path clip-path="url(#pb0a1f16d0d)" d="M 159.330794 233.594711 
L 159.330794 138.512904 
L 269.953878 138.512904 
L 269.953878 233.594711 
L 159.330794 233.594711 
" style="fill:none;stroke:#d3d3d3;stroke-linecap:square;stroke-width:0.5;"/>
   </g>
   <g id="line2d_67">
    <path clip-path="url(#pb0a1f16d0d)" d="M 159.330794 233.594711 
L 157.024465 236.829723 
L 154.758977 240.091496 
L 152.535259 243.379638 
L 150.354367 246.693747 
L 148.217494 250.033407 
L 146.125986 253.398178 
L 144.081363 256.787581 
L 142.085338 260.201089 
L 140.139839 263.638111 
L 138.247041 267.097973 
L 136.409392 270.579903 
L 134.629653 274.083001 
L 132.910938 277.606217 
L 131.256765 281.148317 
L 129.671115 284.707842 
L 128.158505 288.283064 
L 126.724071 291.871928 
L 125.373677 295.471977 
L 124.114049 299.080258 
L 122.952941 302.6932 
L 121.899356 306.306444 
L 120.963829 309.91459 
L 120.158805 313.510831 
L 119.499151 317.086354 
L 119.002825 320.629351 
L 118.691734 324.123284 
L 118.592659 327.543733 
L 118.737718 330.852678 
L 119.162488 333.988556 
L 119.896876 336.852403 
L 120.941535 339.303011 
L 122.243783 341.206215 
L 123.757812 342.558532 
L 125.585734 343.486883 
L 127.882644 344.042146 
L 130.637307 344.183111 
L 133.713889 343.900712 
" style="fill:none;stroke:#000000;stroke-linecap:square;stroke-width:3;"/>
   </g>
   <g id="line2d_68">
    <path clip-path="url(#pb0a1f16d0d)" d="M 118.592659 344.183111 
L 118.592659 233.594711 
L 159.330794 233.594711 
L 159.330794 344.183111 
L 118.592659 344.183111 
" style="fill:none;stroke:#d3d3d3;stroke-linecap:square;stroke-width:0.5;"/>
   </g>
   <g id="line2d_69">
    <path clip-path="url(#pb0a1f16d0d)" d="M 133.713889 343.900712 
L 133.713889 343.900712 
" style="fill:none;stroke:#000000;stroke-linecap:square;stroke-width:3;"/>
   </g>
   <g id="line2d_70">
    <path clip-path="url(#pb0a1f16d0d)" d="M 133.713889 343.900712 
L 133.713889 343.900712 
L 133.713889 343.900712 
L 133.713889 343.900712 
L 133.713889 343.900712 
" style="fill:none;stroke:#d3d3d3;stroke-linecap:square;stroke-width:0.5;"/>
   </g>
   <g id="line2d_71">
    <path clip-path="url(#pb0a1f16d0d)" d="M 298.631226 396.150448 
L 299.293501 395.224222 
L 301.624041 392.153971 
L 304.049727 389.082496 
L 306.540634 386.015136 
L 309.078321 382.953098 
L 311.650579 379.896093 
L 314.24888 376.843291 
L 316.867006 373.793698 
L 319.500267 370.746308 
L 322.145023 367.700167 
L 324.798378 364.654391 
L 327.457981 361.608171 
L 330.121884 358.560767 
L 332.788451 355.511502 
L 335.456279 352.459756 
L 338.124155 349.404956 
L 340.791011 346.346572 
L 343.455897 343.284108 
L 346.117959 340.217099 
L 348.776417 337.145105 
L 351.430554 334.067708 
L 354.079702 330.984507 
L 356.723234 327.895115 
L 359.360554 324.799158 
L 361.991094 321.696269 
L 364.614302 318.58609 
L 367.229642 315.468264 
L 369.836589 312.342441 
L 372.434622 309.208268 
L 375.023223 306.065393 
L 377.601875 302.913461 
" style="fill:none;stroke:#000000;stroke-linecap:square;stroke-width:3;"/>
   </g>
   <g id="line2d_72">
    <path clip-path="url(#pb0a1f16d0d)" d="M 298.631226 396.150448 
L 298.631226 302.913461 
L 377.601875 302.913461 
L 377.601875 396.150448 
L 298.631226 396.150448 
" style="fill:none;stroke:#d3d3d3;stroke-linecap:square;stroke-width:0.5;"/>
   </g>
   <g id="line2d_73">
    <path clip-path="url(#pb0a1f16d0d)" d="M 377.601875 302.913461 
L 380.170053 299.75211 
L 382.727227 296.580977 
L 385.272858 293.399687 
L 387.806391 290.207857 
L 390.327256 287.005095 
L 392.834866 283.790994 
L 395.328608 280.565134 
L 397.807845 277.327079 
L 400.271911 274.076373 
L 402.720107 270.812542 
L 405.151696 267.535088 
L 407.565898 264.243489 
L 409.96189 260.937194 
L 412.338793 257.615621 
L 414.695671 254.278155 
L 417.031521 250.924144 
L 419.345267 247.552893 
L 421.635752 244.163659 
L 423.901724 240.755651 
L 426.141827 237.32802 
L 428.354587 233.87985 
L 430.538393 230.41016 
L 432.691486 226.917884 
L 434.811928 223.40187 
L 436.897583 219.860867 
L 438.946085 216.293509 
L 440.954798 212.698304 
L 442.920778 209.073618 
L 444.840717 205.417653 
L 446.710877 201.728426 
L 448.527014 198.003744 
" style="fill:none;stroke:#000000;stroke-linecap:square;stroke-width:3;"/>
   </g>
   <g id="line2d_74">
    <path clip-path="url(#pb0a1f16d0d)" d="M 377.601875 302.913461 
L 377.601875 198.003744 
L 448.527014 198.003744 
L 448.527014 302.913461 
L 377.601875 302.913461 
" style="fill:none;stroke:#d3d3d3;stroke-linecap:square;stroke-width:0.5;"/>
   </g>
   <g id="line2d_75">
    <path clip-path="url(#pb0a1f16d0d)" d="M 448.527014 198.003744 
L 450.284276 194.241177 
L 451.977086 190.438019 
L 453.598978 186.591259 
L 455.142408 182.697538 
L 456.598498 178.75311 
L 457.956711 174.753808 
L 459.204422 170.695025 
L 460.326361 166.571729 
L 461.30388 162.378552 
L 462.113987 158.11001 
L 462.728112 153.761005 
L 463.110568 149.327797 
L 463.216805 144.809849 
L 462.991844 140.213118 
L 462.369894 135.555492 
L 461.277284 130.874744 
L 459.641963 126.237621 
L 457.412077 121.744818 
L 454.580045 117.522819 
L 451.198396 113.69747 
L 447.371908 110.359622 
L 443.227615 107.544681 
L 438.882737 105.236912 
L 434.427303 103.38902 
L 429.92233 101.941912 
L 425.405783 100.837345 
L 420.899862 100.023682 
L 416.416822 99.457416 
L 411.962934 99.102727 
L 411.962934 99.102727 
" style="fill:none;stroke:#000000;stroke-linecap:square;stroke-width:3;"/>
   </g>
   <g id="line2d_76">
    <path clip-path="url(#pb0a1f16d0d)" d="M 411.962934 198.003744 
L 411.962934 99.102727 
L 463.216805 99.102727 
L 463.216805 198.003744 
L 411.962934 198.003744 
" style="fill:none;stroke:#d3d3d3;stroke-linecap:square;stroke-width:0.5;"/>
   </g>
   <g id="line2d_77">
    <path clip-path="url(#pb0a1f16d0d)" d="M 136.222543 359.629106 
L 136.222543 359.629106 
L 140.309602 359.02612 
L 144.394495 358.456859 
L 148.476211 357.924842 
L 152.553452 357.434122 
L 156.624555 356.989385 
L 160.687377 356.596083 
L 164.739148 356.260585 
L 168.776266 355.99038 
L 172.794022 355.794315 
L 176.786199 355.682893 
L 180.744523 355.668637 
L 184.657856 355.766503 
L 188.511025 355.994339 
L 192.283128 356.373269 
L 195.945095 356.927772 
L 199.456511 357.684917 
L 202.762547 358.67174 
L 205.794667 359.909971 
L 208.483531 361.410675 
L 210.789335 363.179573 
L 212.725526 365.238679 
L 214.335722 367.631025 
L 215.652379 370.381293 
L 216.694985 373.465028 
L 217.488827 376.823743 
L 218.070598 380.394033 
L 218.483205 384.123631 
L 218.770123 387.974776 
L 218.97261 391.922172 
L 219.129238 395.949895 
L 219.276701 400.048746 
L 219.451273 404.214308 
L 219.690691 408.445564 
L 220.036499 412.743805 
L 220.537051 417.111464 
L 221.251439 421.550324 
L 222.254548 426.057991 
L 223.6427 430.620533 
L 225.536789 435.197783 
L 228.073411 439.69818 
L 231.365954 443.95037 
L 235.42793 447.707234 
L 240.111375 450.727996 
" style="fill:none;stroke:#000000;stroke-linecap:square;stroke-width:3;"/>
   </g>
   <g id="line2d_78">
    <path clip-path="url(#pb0a1f16d0d)" d="M 136.222543 450.727996 
L 136.222543 355.668637 
L 240.111375 355.668637 
L 240.111375 450.727996 
L 136.222543 450.727996 
" style="fill:none;stroke:#d3d3d3;stroke-linecap:square;stroke-width:0.5;"/>
   </g>
   <g id="line2d_79">
    <path clip-path="url(#pb0a1f16d0d)" d="M 304.856656 393.628754 
L 304.856656 393.628754 
L 301.235241 395.115572 
L 297.646981 396.483126 
L 298.631226 396.150448 
" style="fill:none;stroke:#000000;stroke-linecap:square;stroke-width:3;"/>
   </g>
   <g id="line2d_80">
    <path clip-path="url(#pb0a1f16d0d)" d="M 297.646981 396.483126 
L 297.646981 393.628754 
L 304.856656 393.628754 
L 304.856656 396.483126 
L 297.646981 396.483126 
" style="fill:none;stroke:#d3d3d3;stroke-linecap:square;stroke-width:0.5;"/>
   </g>
   <g id="line2d_81">
    <path clip-path="url(#pb0a1f16d0d)" d="M 374.556965 408.115073 
L 374.556965 408.115073 
L 377.367808 403.812393 
L 379.792084 398.541544 
L 380.713291 390.979892 
L 375.771464 382.110808 
L 368.524292 378.760219 
L 362.609342 378.036148 
L 357.37181 378.164284 
L 352.468709 378.71004 
L 347.763634 379.515738 
L 343.192053 380.505044 
L 338.718479 381.634341 
L 334.321163 382.876002 
L 329.985703 384.211272 
L 325.702022 385.626755 
L 321.462773 387.112513 
L 317.262432 388.660956 
L 313.096745 390.266145 
L 308.962372 391.923351 
L 304.856656 393.628754 
L 304.856656 393.628754 
" style="fill:none;stroke:#000000;stroke-linecap:square;stroke-width:3;"/>
   </g>
   <g id="line2d_82">
    <path clip-path="url(#pb0a1f16d0d)" d="M 304.856656 408.115073 
L 304.856656 378.036148 
L 380.713291 378.036148 
L 380.713291 408.115073 
L 304.856656 408.115073 
" style="fill:none;stroke:#d3d3d3;stroke-linecap:square;stroke-width:0.5;"/>
   </g>
   <g id="line2d_83">
    <path clip-path="url(#pb0a1f16d0d)" d="M 411.962934 99.102727 
L 411.962934 99.102727 
L 407.754911 98.875696 
L 403.542323 98.686623 
L 399.325531 98.536887 
L 395.104919 98.42789 
L 390.880898 98.361061 
L 386.653913 98.337849 
L 382.424445 98.35972 
L 378.193019 98.428153 
L 373.960208 98.544639 
L 369.726636 98.710668 
L 365.492986 98.927729 
L 361.259999 99.197299 
L 357.02848 99.520837 
L 352.799297 99.899775 
L 348.573388 100.335509 
L 344.351757 100.82939 
L 340.135473 101.382711 
L 335.925671 101.996701 
L 331.723551 102.672513 
L 327.530367 103.411213 
L 323.347431 104.213772 
L 319.176099 105.081055 
L 315.017772 106.013813 
L 310.87388 107.012678 
L 306.745878 108.078152 
L 302.635238 109.210607 
L 298.543435 110.410276 
L 294.47194 111.677257 
L 290.422208 113.011508 
L 286.395671 114.412848 
L 282.393726 115.880965 
L 278.417726 117.415412 
L 274.468976 119.01562 
L 270.54872 120.680902 
L 266.658139 122.41046 
L 262.798343 124.203397 
" style="fill:none;stroke:#000000;stroke-linecap:square;stroke-width:3;"/>
   </g>
   <g id="line2d_84">
    <path clip-path="url(#pb0a1f16d0d)" d="M 262.798343 124.203397 
L 262.798343 98.337849 
L 411.962934 98.337849 
L 411.962934 124.203397 
L 262.798343 124.203397 
" style="fill:none;stroke:#d3d3d3;stroke-linecap:square;stroke-width:0.5;"/>
   </g>
   <g id="line2d_85">
    <path clip-path="url(#pb0a1f16d0d)" d="M 262.798343 124.203397 
L 258.97037 126.058723 
L 255.17518 127.975368 
L 251.413656 129.952192 
L 247.686599 131.987994 
L 243.994736 134.081525 
L 240.338712 136.231498 
L 236.719098 138.436597 
L 233.136392 140.695488 
L 229.591024 143.006826 
L 226.083355 145.369268 
L 222.613686 147.781477 
L 219.182263 150.242128 
L 215.789277 152.749921 
L 212.434873 155.303581 
L 209.119156 157.901865 
L 205.84219 160.543568 
L 202.604011 163.227526 
L 199.404626 165.952617 
L 196.244021 168.717771 
L 193.122165 171.521963 
L 190.039016 174.364222 
L 186.994524 177.243629 
L 183.988639 180.159321 
L 181.02131 183.110489 
L 178.092497 186.096379 
L 175.20217 189.116293 
L 172.350317 192.16959 
L 169.536948 195.255683 
L 166.762099 198.374041 
L 164.025839 201.524185 
L 161.328276 204.705692 
L 158.669558 207.91819 
L 156.049886 211.161356 
L 153.469516 214.434921 
L 150.928764 217.73866 
L 148.428022 221.072398 
L 145.967756 224.436002 
" style="fill:none;stroke:#000000;stroke-linecap:square;stroke-width:3;"/>
   </g>
   <g id="line2d_86">
    <path clip-path="url(#pb0a1f16d0d)" d="M 145.967756 224.436002 
L 145.967756 124.203397 
L 262.798343 124.203397 
L 262.798343 224.436002 
L 145.967756 224.436002 
" style="fill:none;stroke:#d3d3d3;stroke-linecap:square;stroke-width:0.5;"/>
   </g>
   <g id="line2d_87">
    <path clip-path="url(#pb0a1f16d0d)" d="M 145.967756 224.436002 
L 143.548523 227.829384 
L 141.170978 231.252498 
L 138.835883 234.705335 
L 136.544123 238.187926 
L 134.296721 241.700336 
L 132.094849 245.242668 
L 129.93985 248.815055 
L 127.833256 252.417665 
L 125.776817 256.050697 
L 123.772521 259.714387 
L 121.822634 263.409008 
L 119.929732 267.134878 
L 118.096751 270.892367 
L 116.327041 274.681916 
L 114.624433 278.504055 
L 112.993326 282.359439 
L 111.43879 286.248895 
L 109.966709 290.173493 
L 108.583963 294.134646 
L 107.298679 298.134253 
L 106.12058 302.174913 
L 105.06149 306.260225 
L 104.136087 310.395215 
L 103.363064 314.586953 
L 102.766993 318.845382 
L 102.381405 323.184392 
L 102.254083 327.622897 
L 102.456279 332.185002 
L 103.098586 336.895951 
L 104.355409 341.763967 
L 106.487136 346.723912 
L 109.795749 351.516208 
L 114.384581 355.595928 
L 119.862064 358.395395 
L 125.565494 359.798397 
L 131.061857 360.094869 
L 136.222543 359.629106 
" style="fill:none;stroke:#000000;stroke-linecap:square;stroke-width:3;"/>
   </g>
   <g id="line2d_88">
    <path clip-path="url(#pb0a1f16d0d)" d="M 102.254083 360.094869 
L 102.254083 224.436002 
L 145.967756 224.436002 
L 145.967756 360.094869 
L 102.254083 360.094869 
" style="fill:none;stroke:#d3d3d3;stroke-linecap:square;stroke-width:0.5;"/>
   </g>
   <g id="line2d_89">
    <path clip-path="url(#pb0a1f16d0d)" d="M 136.222543 359.629106 
L 136.222543 359.629106 
" style="fill:none;stroke:#000000;stroke-linecap:square;stroke-width:3;"/>
   </g>
   <g id="line2d_90">
    <path clip-path="url(#pb0a1f16d0d)" d="M 136.222543 359.629106 
L 136.222543 359.629106 
L 136.222543 359.629106 
L 136.222543 359.629106 
L 136.222543 359.629106 
" style="fill:none;stroke:#d3d3d3;stroke-linecap:square;stroke-width:0.5;"/>
   </g>
   <g id="line2d_91">
    <path clip-path="url(#pb0a1f16d0d)" d="M 307.719709 467.854644 
L 307.719709 467.854644 
L 308.210218 472.035073 
L 308.758457 476.237363 
L 309.387292 480.474748 
L 310.138522 484.775838 
L 311.104991 489.215552 
L 312.59332 494.074062 
L 318.169658 501.476179 
L 332.399066 498.131577 
L 335.423229 493.396573 
L 337.452529 489.234826 
L 339.188358 485.224407 
L 340.789524 481.276904 
L 342.319227 477.363907 
L 343.810053 473.474307 
L 345.281624 469.603458 
L 346.747112 465.749587 
L 348.216125 461.912387 
L 349.696176 458.092409 
L 351.193495 454.290791 
L 352.713529 450.509133 
L 354.261258 446.749461 
L 355.841424 443.014243 
L 357.458693 439.306446 
L 359.117789 435.629617 
L 360.823607 431.988023 
L 362.581308 428.386822 
L 364.396408 424.832311 
L 366.274853 421.332262 
L 368.223066 417.896378 
L 370.247948 414.536935 
L 372.356787 411.269676 
L 374.556965 408.115073 
L 374.556965 408.115073 
" style="fill:none;stroke:#000000;stroke-linecap:square;stroke-width:3;"/>
   </g>
   <g id="line2d_92">
    <path clip-path="url(#pb0a1f16d0d)" d="M 307.719709 501.476179 
L 307.719709 408.115073 
L 374.556965 408.115073 
L 374.556965 501.476179 
L 307.719709 501.476179 
" style="fill:none;stroke:#d3d3d3;stroke-linecap:square;stroke-width:0.5;"/>
   </g>
   <g id="line2d_93">
    <path clip-path="url(#pb0a1f16d0d)" d="M 240.111375 450.727996 
L 244.358913 452.82505 
L 248.816881 454.68493 
L 253.499596 456.241092 
L 258.402824 457.412635 
L 263.488965 458.113199 
L 268.675862 458.272478 
L 273.843406 457.866292 
L 278.864381 456.937265 
L 283.642234 455.589478 
L 288.128155 453.964525 
L 292.308025 452.223823 
L 296.163259 450.556222 
L 299.582036 449.219325 
L 302.091049 448.570195 
L 302.637451 448.528828 
L 302.694204 448.645261 
L 303.750643 450.284943 
L 304.89041 453.098331 
L 305.844481 456.473727 
L 306.611655 460.131344 
L 307.226333 463.945639 
L 307.719709 467.854644 
L 307.719709 467.854644 
" style="fill:none;stroke:#000000;stroke-linecap:square;stroke-width:3;"/>
   </g>
   <g id="line2d_94">
    <path clip-path="url(#pb0a1f16d0d)" d="M 240.111375 467.854644 
L 240.111375 448.528828 
L 307.719709 448.528828 
L 307.719709 467.854644 
L 240.111375 467.854644 
" style="fill:none;stroke:#d3d3d3;stroke-linecap:square;stroke-width:0.5;"/>
   </g>
   <g id="line2d_95">
    <path clip-path="url(#pb0a1f16d0d)" d="M 240.111375 450.727996 
L 240.111375 450.727996 
L 240.111375 450.727996 
" style="fill:none;stroke:#000000;stroke-linecap:square;stroke-width:3;"/>
   </g>
   <g id="line2d_96">
    <path clip-path="url(#pb0a1f16d0d)" d="M 240.111375 450.727996 
L 240.111375 450.727996 
L 240.111375 450.727996 
L 240.111375 450.727996 
L 240.111375 450.727996 
" style="fill:none;stroke:#d3d3d3;stroke-linecap:square;stroke-width:0.5;"/>
   </g>
   <g id="line2d_97">
    <path clip-path="url(#pb0a1f16d0d)" d="M 240.111375 450.727996 
L 240.111375 450.727996 
L 240.111375 450.727996 
" style="fill:none;stroke:#000000;stroke-linecap:square;stroke-width:3;"/>
   </g>
   <g id="line2d_98">
    <path clip-path="url(#pb0a1f16d0d)" d="M 240.111375 450.727996 
L 240.111375 450.727996 
L 240.111375 450.727996 
L 240.111375 450.727996 
L 240.111375 450.727996 
" style="fill:none;stroke:#d3d3d3;stroke-linecap:square;stroke-width:0.5;"/>
   </g>
   <g id="line2d_99">
    <path clip-path="url(#pb0a1f16d0d)" d="M 353.06796 307.785942 
L 354.634977 307.883951 
L 356.176264 308.176371 
L 357.666513 308.658398 
L 359.081253 309.322119 
L 360.397256 310.156636 
L 361.592911 311.148245 
L 362.648588 312.280663 
L 363.54695 313.535298 
L 364.273248 314.891548 
L 364.815555 316.327143 
L 365.164967 317.818511 
L 365.315747 319.341164 
L 365.265418 320.870099 
L 365.014807 322.380212 
L 364.56803 323.846706 
L 363.932421 325.245503 
L 363.118419 326.553633 
L 362.139388 327.749617 
L 361.011404 328.813817 
L 359.75299 329.72876 
L 358.384807 330.479421 
L 356.929322 331.053475 
L 355.410433 331.441495 
L 353.853081 331.637112 
L 352.282838 331.637112 
L 350.725486 331.441495 
L 349.206597 331.053475 
L 347.751112 330.479421 
L 346.382929 329.72876 
L 345.124515 328.813817 
L 343.996531 327.749617 
L 343.0175 326.553633 
L 342.203498 325.245503 
L 341.567889 323.846706 
L 341.121112 322.380212 
L 340.870501 320.870099 
L 340.820172 319.341164 
L 340.970952 317.818511 
L 341.320364 316.327143 
L 341.862671 314.891548 
L 342.588969 313.535298 
L 343.487331 312.280663 
L 344.543008 311.148245 
L 345.738663 310.156636 
L 347.054666 309.322119 
L 348.469406 308.658398 
L 349.959655 308.176371 
L 351.500942 307.883951 
L 353.06796 307.785942 
" style="fill:none;stroke:#808080;stroke-linecap:square;stroke-width:1.5;"/>
   </g>
   <g id="line2d_100">
    <path clip-path="url(#pb0a1f16d0d)" d="M 431.793971 200.509608 
L 433.360988 200.607617 
L 434.902275 200.900037 
L 436.392524 201.382065 
L 437.807265 202.045786 
L 439.123267 202.880302 
L 440.318923 203.871911 
L 441.374599 205.00433 
L 442.272962 206.258965 
L 442.999259 207.615214 
L 443.541567 209.050809 
L 443.890979 210.542177 
L 444.041758 212.06483 
L 443.991429 213.593765 
L 443.740819 215.103878 
L 443.294041 216.570373 
L 442.658433 217.969169 
L 441.84443 219.277299 
L 440.865399 220.473283 
L 439.737416 221.537484 
L 438.479001 222.452426 
L 437.110818 223.203087 
L 435.655333 223.777141 
L 434.136445 224.165162 
L 432.579093 224.360778 
L 431.008849 224.360778 
L 429.451497 224.165162 
L 427.932608 223.777141 
L 426.477123 223.203087 
L 425.108941 222.452426 
L 423.850526 221.537484 
L 422.722543 220.473283 
L 421.743512 219.277299 
L 420.929509 217.969169 
L 420.293901 216.570373 
L 419.847123 215.103878 
L 419.596512 213.593765 
L 419.546183 212.06483 
L 419.696963 210.542177 
L 420.046375 209.050809 
L 420.588682 207.615214 
L 421.31498 206.258965 
L 422.213343 205.00433 
L 423.269019 203.871911 
L 424.464675 202.880302 
L 425.780677 202.045786 
L 427.195418 201.382065 
L 428.685666 200.900037 
L 430.226953 200.607617 
L 431.793971 200.509608 
" style="fill:none;stroke:#808080;stroke-linecap:square;stroke-width:1.5;"/>
   </g>
   <g id="line2d_101">
    <path clip-path="url(#pb0a1f16d0d)" d="M 415.567519 95.435008 
L 417.134536 95.533017 
L 418.675823 95.825437 
L 420.166072 96.307464 
L 421.580812 96.971186 
L 422.896815 97.805702 
L 424.092471 98.797311 
L 425.148147 99.92973 
L 426.046509 101.184364 
L 426.772807 102.540614 
L 427.315114 103.976209 
L 427.664527 105.467577 
L 427.815306 106.99023 
L 427.764977 108.519165 
L 427.514367 110.029278 
L 427.067589 111.495772 
L 426.43198 112.894569 
L 425.617978 114.202699 
L 424.638947 115.398683 
L 423.510963 116.462883 
L 422.252549 117.377826 
L 420.884366 118.128487 
L 419.428881 118.702541 
L 417.909992 119.090562 
L 416.35264 119.286178 
L 414.782397 119.286178 
L 413.225045 119.090562 
L 411.706156 118.702541 
L 410.250671 118.128487 
L 408.882489 117.377826 
L 407.624074 116.462883 
L 406.49609 115.398683 
L 405.51706 114.202699 
L 404.703057 112.894569 
L 404.067448 111.495772 
L 403.620671 110.029278 
L 403.37006 108.519165 
L 403.319731 106.99023 
L 403.470511 105.467577 
L 403.819923 103.976209 
L 404.36223 102.540614 
L 405.088528 101.184364 
L 405.986891 99.92973 
L 407.042567 98.797311 
L 408.238222 97.805702 
L 409.554225 96.971186 
L 410.968966 96.307464 
L 412.459214 95.825437 
L 414.000501 95.533017 
L 415.567519 95.435008 
" style="fill:none;stroke:#808080;stroke-linecap:square;stroke-width:1.5;"/>
   </g>
   <g id="line2d_102">
    <path clip-path="url(#pb0a1f16d0d)" d="M 411.474182 95.109188 
L 413.041199 95.207197 
L 414.582486 95.499617 
L 416.072735 95.981645 
L 417.487475 96.645366 
L 418.803478 97.479882 
L 419.999134 98.471491 
L 421.05481 99.60391 
L 421.953172 100.858545 
L 422.67947 102.214794 
L 423.221777 103.650389 
L 423.57119 105.141757 
L 423.721969 106.66441 
L 423.67164 108.193345 
L 423.42103 109.703458 
L 422.974252 111.169953 
L 422.338644 112.568749 
L 421.524641 113.876879 
L 420.54561 115.072863 
L 419.417626 116.137064 
L 418.159212 117.052006 
L 416.791029 117.802667 
L 415.335544 118.376721 
L 413.816655 118.764742 
L 412.259304 118.960358 
L 410.68906 118.960358 
L 409.131708 118.764742 
L 407.612819 118.376721 
L 406.157334 117.802667 
L 404.789152 117.052006 
L 403.530737 116.137064 
L 402.402753 115.072863 
L 401.423723 113.876879 
L 400.60972 112.568749 
L 399.974111 111.169953 
L 399.527334 109.703458 
L 399.276723 108.193345 
L 399.226394 106.66441 
L 399.377174 105.141757 
L 399.726586 103.650389 
L 400.268893 102.214794 
L 400.995191 100.858545 
L 401.893554 99.60391 
L 402.94923 98.471491 
L 404.144885 97.479882 
L 405.460888 96.645366 
L 406.875629 95.981645 
L 408.365877 95.499617 
L 409.907164 95.207197 
L 411.474182 95.109188 
" style="fill:none;stroke:#808080;stroke-linecap:square;stroke-width:1.5;"/>
   </g>
   <g id="line2d_103">
    <path clip-path="url(#pb0a1f16d0d)" d="M 262.670028 121.216552 
L 264.237045 121.314562 
L 265.778332 121.606981 
L 267.268581 122.089009 
L 268.683321 122.75273 
L 269.999324 123.587246 
L 271.194979 124.578855 
L 272.250656 125.711274 
L 273.149018 126.965909 
L 273.875316 128.322159 
L 274.417623 129.757754 
L 274.767035 131.249122 
L 274.917815 132.771774 
L 274.867486 134.300709 
L 274.616875 135.810822 
L 274.170098 137.277317 
L 273.534489 138.676113 
L 272.720487 139.984243 
L 271.741456 141.180228 
L 270.613472 142.244428 
L 269.355058 143.15937 
L 267.986875 143.910031 
L 266.53139 144.484085 
L 265.012501 144.872106 
L 263.455149 145.067722 
L 261.884906 145.067722 
L 260.327554 144.872106 
L 258.808665 144.484085 
L 257.35318 143.910031 
L 255.984997 143.15937 
L 254.726583 142.244428 
L 253.598599 141.180228 
L 252.619568 139.984243 
L 251.805566 138.676113 
L 251.169957 137.277317 
L 250.72318 135.810822 
L 250.472569 134.300709 
L 250.42224 132.771774 
L 250.57302 131.249122 
L 250.922432 129.757754 
L 251.464739 128.322159 
L 252.191037 126.965909 
L 253.089399 125.711274 
L 254.145076 124.578855 
L 255.340731 123.587246 
L 256.656734 122.75273 
L 258.071474 122.089009 
L 259.561723 121.606981 
L 261.10301 121.314562 
L 262.670028 121.216552 
" style="fill:none;stroke:#808080;stroke-linecap:square;stroke-width:1.5;"/>
   </g>
   <g id="line2d_104">
    <path clip-path="url(#pb0a1f16d0d)" d="M 150.286494 220.391704 
L 151.853512 220.489714 
L 153.394799 220.782133 
L 154.885047 221.264161 
L 156.299788 221.927882 
L 157.615791 222.762399 
L 158.811446 223.754007 
L 159.867122 224.886426 
L 160.765485 226.141061 
L 161.491783 227.497311 
L 162.03409 228.932906 
L 162.383502 230.424274 
L 162.534282 231.946927 
L 162.483953 233.475862 
L 162.233342 234.985975 
L 161.786565 236.452469 
L 161.150956 237.851266 
L 160.336953 239.159396 
L 159.357923 240.35538 
L 158.229939 241.41958 
L 156.971524 242.334523 
L 155.603342 243.085184 
L 154.147857 243.659238 
L 152.628968 244.047258 
L 151.071616 244.242875 
L 149.501372 244.242875 
L 147.944021 244.047258 
L 146.425132 243.659238 
L 144.969647 243.085184 
L 143.601464 242.334523 
L 142.343049 241.41958 
L 141.215066 240.35538 
L 140.236035 239.159396 
L 139.422032 237.851266 
L 138.786424 236.452469 
L 138.339646 234.985975 
L 138.089036 233.475862 
L 138.038707 231.946927 
L 138.189486 230.424274 
L 138.538899 228.932906 
L 139.081206 227.497311 
L 139.807504 226.141061 
L 140.705866 224.886426 
L 141.761542 223.754007 
L 142.957198 222.762399 
L 144.2732 221.927882 
L 145.687941 221.264161 
L 147.17819 220.782133 
L 148.719477 220.489714 
L 150.286494 220.391704 
" style="fill:none;stroke:#808080;stroke-linecap:square;stroke-width:1.5;"/>
   </g>
   <g id="line2d_105">
    <path clip-path="url(#pb0a1f16d0d)" d="M 134.968216 339.82706 
L 136.535233 339.92507 
L 138.07652 340.217489 
L 139.566769 340.699517 
L 140.98151 341.363238 
L 142.297512 342.197754 
L 143.493168 343.189363 
L 144.548844 344.321782 
L 145.447206 345.576417 
L 146.173504 346.932667 
L 146.715812 348.368262 
L 147.065224 349.85963 
L 147.216003 351.382282 
L 147.165674 352.911217 
L 146.915064 354.42133 
L 146.468286 355.887825 
L 145.832678 357.286621 
L 145.018675 358.594751 
L 144.039644 359.790736 
L 142.911661 360.854936 
L 141.653246 361.769878 
L 140.285063 362.520539 
L 138.829578 363.094593 
L 137.31069 363.482614 
L 135.753338 363.67823 
L 134.183094 363.67823 
L 132.625742 363.482614 
L 131.106853 363.094593 
L 129.651368 362.520539 
L 128.283186 361.769878 
L 127.024771 360.854936 
L 125.896788 359.790736 
L 124.917757 358.594751 
L 124.103754 357.286621 
L 123.468146 355.887825 
L 123.021368 354.42133 
L 122.770757 352.911217 
L 122.720428 351.382282 
L 122.871208 349.85963 
L 123.22062 348.368262 
L 123.762927 346.932667 
L 124.489225 345.576417 
L 125.387588 344.321782 
L 126.443264 343.189363 
L 127.63892 342.197754 
L 128.954922 341.363238 
L 130.369663 340.699517 
L 131.859911 340.217489 
L 133.401198 339.92507 
L 134.968216 339.82706 
" style="fill:none;stroke:#808080;stroke-linecap:square;stroke-width:1.5;"/>
   </g>
   <g id="line2d_106">
    <path clip-path="url(#pb0a1f16d0d)" d="M 244.01299 431.797886 
L 245.580008 431.895895 
L 247.121295 432.188315 
L 248.611543 432.670343 
L 250.026284 433.334064 
L 251.342286 434.16858 
L 252.537942 435.160189 
L 253.593618 436.292608 
L 254.491981 437.547243 
L 255.218279 438.903492 
L 255.760586 440.339087 
L 256.109998 441.830455 
L 256.260778 443.353108 
L 256.210449 444.882043 
L 255.959838 446.392156 
L 255.51306 447.858651 
L 254.877452 449.257447 
L 254.063449 450.565577 
L 253.084418 451.761561 
L 251.956435 452.825762 
L 250.69802 453.740704 
L 249.329838 454.491365 
L 247.874353 455.065419 
L 246.355464 455.45344 
L 244.798112 455.649056 
L 243.227868 455.649056 
L 241.670516 455.45344 
L 240.151628 455.065419 
L 238.696143 454.491365 
L 237.32796 453.740704 
L 236.069545 452.825762 
L 234.941562 451.761561 
L 233.962531 450.565577 
L 233.148528 449.257447 
L 232.51292 447.858651 
L 232.066142 446.392156 
L 231.815532 444.882043 
L 231.765203 443.353108 
L 231.915982 441.830455 
L 232.265394 440.339087 
L 232.807702 438.903492 
L 233.534 437.547243 
L 234.432362 436.292608 
L 235.488038 435.160189 
L 236.683694 434.16858 
L 237.999696 433.334064 
L 239.414437 432.670343 
L 240.904686 432.188315 
L 242.445973 431.895895 
L 244.01299 431.797886 
" style="fill:none;stroke:#808080;stroke-linecap:square;stroke-width:1.5;"/>
   </g>
   <g id="line2d_107">
    <path clip-path="url(#pb0a1f16d0d)" d="M 315.840996 455.054415 
L 317.408013 455.152425 
L 318.9493 455.444844 
L 320.439549 455.926872 
L 321.854289 456.590593 
L 323.170292 457.425109 
L 324.365947 458.416718 
L 325.421624 459.549137 
L 326.319986 460.803772 
L 327.046284 462.160022 
L 327.588591 463.595617 
L 327.938003 465.086985 
L 328.088783 466.609637 
L 328.038454 468.138572 
L 327.787843 469.648685 
L 327.341066 471.11518 
L 326.705457 472.513976 
L 325.891455 473.822106 
L 324.912424 475.018091 
L 323.78444 476.082291 
L 322.526026 476.997233 
L 321.157843 477.747894 
L 319.702358 478.321948 
L 318.183469 478.709969 
L 316.626117 478.905585 
L 315.055874 478.905585 
L 313.498522 478.709969 
L 311.979633 478.321948 
L 310.524148 477.747894 
L 309.155965 476.997233 
L 307.897551 476.082291 
L 306.769567 475.018091 
L 305.790536 473.822106 
L 304.976534 472.513976 
L 304.340925 471.11518 
L 303.894148 469.648685 
L 303.643537 468.138572 
L 303.593208 466.609637 
L 303.743988 465.086985 
L 304.0934 463.595617 
L 304.635707 462.160022 
L 305.362005 460.803772 
L 306.260367 459.549137 
L 307.316044 458.416718 
L 308.511699 457.425109 
L 309.827702 456.590593 
L 311.242442 455.926872 
L 312.732691 455.444844 
L 314.273978 455.152425 
L 315.840996 455.054415 
" style="fill:none;stroke:#808080;stroke-linecap:square;stroke-width:1.5;"/>
   </g>
   <g id="line2d_108">
    <path clip-path="url(#pb0a1f16d0d)" d="M 367.892063 391.574945 
L 369.459081 391.672955 
L 371.000368 391.965374 
L 372.490616 392.447402 
L 373.905357 393.111123 
L 375.22136 393.945639 
L 376.417015 394.937248 
L 377.472691 396.069667 
L 378.371054 397.324302 
L 379.097352 398.680552 
L 379.639659 400.116147 
L 379.989071 401.607515 
L 380.139851 403.130167 
L 380.089522 404.659103 
L 379.838911 406.169216 
L 379.392134 407.63571 
L 378.756525 409.034506 
L 377.942522 410.342636 
L 376.963492 411.538621 
L 375.835508 412.602821 
L 374.577093 413.517763 
L 373.208911 414.268424 
L 371.753426 414.842478 
L 370.234537 415.230499 
L 368.677185 415.426116 
L 367.106942 415.426116 
L 365.54959 415.230499 
L 364.030701 414.842478 
L 362.575216 414.268424 
L 361.207033 413.517763 
L 359.948619 412.602821 
L 358.820635 411.538621 
L 357.841604 410.342636 
L 357.027602 409.034506 
L 356.391993 407.63571 
L 355.945215 406.169216 
L 355.694605 404.659103 
L 355.644276 403.130167 
L 355.795055 401.607515 
L 356.144468 400.116147 
L 356.686775 398.680552 
L 357.413073 397.324302 
L 358.311435 396.069667 
L 359.367111 394.937248 
L 360.562767 393.945639 
L 361.87877 393.111123 
L 363.29351 392.447402 
L 364.783759 391.965374 
L 366.325046 391.672955 
L 367.892063 391.574945 
" style="fill:none;stroke:#808080;stroke-linecap:square;stroke-width:1.5;"/>
   </g>
   <g id="line2d_109">
    <path clip-path="url(#pb0a1f16d0d)" d="M 308.106308 388.992723 
L 309.673325 389.090732 
L 311.214612 389.383152 
L 312.704861 389.865179 
L 314.119602 390.528901 
L 315.435604 391.363417 
L 316.63126 392.355026 
L 317.686936 393.487445 
L 318.585299 394.742079 
L 319.311596 396.098329 
L 319.853904 397.533924 
L 320.203316 399.025292 
L 320.354095 400.547945 
L 320.303766 402.07688 
L 320.053156 403.586993 
L 319.606378 405.053487 
L 318.97077 406.452284 
L 318.156767 407.760414 
L 317.177736 408.956398 
L 316.049753 410.020598 
L 314.791338 410.935541 
L 313.423155 411.686202 
L 311.96767 412.260256 
L 310.448782 412.648277 
L 308.89143 412.843893 
L 307.321186 412.843893 
L 305.763834 412.648277 
L 304.244945 412.260256 
L 302.78946 411.686202 
L 301.421278 410.935541 
L 300.162863 410.020598 
L 299.03488 408.956398 
L 298.055849 407.760414 
L 297.241846 406.452284 
L 296.606238 405.053487 
L 296.15946 403.586993 
L 295.908849 402.07688 
L 295.85852 400.547945 
L 296.0093 399.025292 
L 296.358712 397.533924 
L 296.901019 396.098329 
L 297.627317 394.742079 
L 298.52568 393.487445 
L 299.581356 392.355026 
L 300.777012 391.363417 
L 302.093014 390.528901 
L 303.507755 389.865179 
L 304.998003 389.383152 
L 306.53929 389.090732 
L 308.106308 388.992723 
" style="fill:none;stroke:#808080;stroke-linecap:square;stroke-width:1.5;"/>
   </g>
   <g id="line2d_110"/>
   <g id="line2d_111"/>
   <g id="line2d_112"/>
   <g id="line2d_113"/>
   <g id="line2d_114"/>
   <g id="line2d_115"/>
   <g id="line2d_116"/>
   <g id="line2d_117"/>
   <g id="line2d_118"/>
   <g id="line2d_119"/>
   <g id="line2d_120"/>
   <g id="line2d_121"/>
   <g id="line2d_122"/>
   <g id="line2d_123"/>
   <g id="line2d_124"/>
   <g id="line2d_125"/>
   <g id="line2d_126"/>
   <g id="line2d_127"/>
   <g id="line2d_128"/>
   <g id="line2d_129"/>
   <g id="line2d_130"/>
   <g id="line2d_131"/>
   <g id="line2d_132"/>
   <g id="line2d_133"/>
   <g id="line2d_134"/>
   <g id="line2d_135"/>
   <g id="line2d_136"/>
   <g id="line2d_137"/>
   <g id="line2d_138"/>
   <g id="line2d_139"/>
   <g id="line2d_140"/>
   <g id="line2d_141"/>
   <g id="line2d_142"/>
   <g id="line2d_143"/>
   <g id="line2d_144"/>
   <g id="line2d_145"/>
   <g id="line2d_146"/>
   <g id="line2d_147"/>
   <g id="line2d_148"/>
   <g id="line2d_149"/>
   <g id="line2d_150"/>
   <g id="line2d_151"/>
   <g id="line2d_152"/>
   <g id="line2d_153"/>
   <g id="line2d_154"/>
   <g id="line2d_155"/>
   <g id="line2d_156"/>
   <g id="line2d_157"/>
   <g id="line2d_158"/>
   <g id="line2d_159"/>
   <g id="line2d_160"/>
   <g id="patch_3">
    <path d="M 90 630 
L 90 86.4 
" style="fill:none;stroke:#000000;stroke-linecap:square;stroke-linejoin:miter;stroke-width:0.8;"/>
   </g>
   <g id="patch_4">
    <path d="M 648 630 
L 648 86.4 
" style="fill:none;stroke:#000000;stroke-linecap:square;stroke-linejoin:miter;stroke-width:0.8;"/>
   </g>
   <g id="patch_5">
    <path d="M 90 630 
L 648 630 
" style="fill:none;stroke:#000000;stroke-linecap:square;stroke-linejoin:miter;stroke-width:0.8;"/>
   </g>
   <g id="patch_6">
    <path d="M 90 86.4 
L 648 86.4 
" style="fill:none;stroke:#000000;stroke-linecap:square;stroke-linejoin:miter;stroke-width:0.8;"/>
   </g>
   <g id="text_15">
    <!-- 0 -->
    <g transform="translate(114.739274 446.727839)scale(0.1 -0.1)">
     <use xlink:href="#DejaVuSans-30"/>
    </g>
   </g>
   <g id="text_16">
    <!-- 0 -->
    <g transform="translate(114.739274 434.78999)scale(0.1 -0.1)">
     <use xlink:href="#DejaVuSans-30"/>
    </g>
   </g>
   <g id="text_17">
    <!-- 0 -->
    <g transform="translate(114.739274 422.852142)scale(0.1 -0.1)">
     <use xlink:href="#DejaVuSans-30"/>
    </g>
   </g>
  </g>
 </g>
 <defs>
  <clipPath id="pb0a1f16d0d">
   <rect height="543.6" width="558" x="90" y="86.4"/>
  </clipPath>
 </defs>
</svg>
