<?xml version="1.0" encoding="utf-8" standalone="no"?>
<!DOCTYPE svg PUBLIC "-//W3C//DTD SVG 1.1//EN"
  "http://www.w3.org/Graphics/SVG/1.1/DTD/svg11.dtd">
<svg height="720pt" version="1.1" viewBox="0 0 720 720" width="720pt" xmlns="http://www.w3.org/2000/svg" xmlns:xlink="http://www.w3.org/1999/xlink">
 <metadata>
  <rdf:RDF xmlns:cc="http://creativecommons.org/ns#" xmlns:dc="http://purl.org/dc/elements/1.1/" xmlns:rdf="http://www.w3.org/1999/02/22-rdf-syntax-ns#">
   <cc:Work>
    <dc:type rdf:resource="http://purl.org/dc/dcmitype/StillImage"/>
    <dc:date>2022-01-11T13:26:04.076641</dc:date>
    <dc:format>image/svg+xml</dc:format>
    <dc:creator>
     <cc:Agent>
      <dc:title>Matplotlib v3.4.3, https://matplotlib.org/</dc:title>
     </cc:Agent>
    </dc:creator>
   </cc:Work>
  </rdf:RDF>
 </metadata>
 <defs>
  <style type="text/css">*{stroke-linecap:butt;stroke-linejoin:round;}</style>
 </defs>
 <g id="figure_1">
  <g id="patch_1">
   <path d="M 0 720 
L 720 720 
L 720 0 
L 0 0 
z
" style="fill:none;"/>
  </g>
  <g id="axes_1">
   <g id="patch_2">
    <path d="M 90 630 
L 648 630 
L 648 86.4 
L 90 86.4 
z
" style="fill:#ffffff;"/>
   </g>
   <g id="PathCollection_1">
    <defs>
     <path d="M 0.972304 -8.870829 
Q -1.277159 -8.870829 -2.413438 -6.653699 
Q -3.545098 -4.441189 -3.545098 0.006929 
Q -3.545098 4.436569 -2.413438 6.653699 
Q -1.277159 8.870829 0.972304 8.870829 
Q 3.240243 8.870829 4.371903 6.653699 
Q 5.508182 4.436569 5.508182 0.006929 
Q 5.508182 -4.441189 4.371903 -6.653699 
Q 3.240243 -8.870829 0.972304 -8.870829 
z
M 0.972304 -11.18034 
Q 4.598235 -11.18034 6.51051 -8.311928 
Q 8.422784 -5.448135 8.422784 0.006929 
Q 8.422784 5.448135 6.51051 8.316547 
Q 4.598235 11.18034 0.972304 11.18034 
Q -2.649008 11.18034 -4.561283 8.316547 
Q -6.473558 5.448135 -6.473558 0.006929 
Q -6.473558 -5.448135 -4.561283 -8.311928 
Q -2.649008 -11.18034 0.972304 -11.18034 
z
" id="m5f19d5d5d8" style="stroke:#808080;"/>
    </defs>
    <g clip-path="url(#p3aeb42e077)">
     <use style="fill:#808080;stroke:#808080;" x="354.626121" xlink:href="#m5f19d5d5d8" y="153.534425"/>
    </g>
   </g>
   <g id="PathCollection_2">
    <defs>
     <path d="M -4.535873 8.63565 
L 0.404946 8.63565 
L 0.404946 -8.424791 
L -4.971969 -7.346533 
L -4.971969 -10.102082 
L 0.376192 -11.18034 
L 3.400108 -11.18034 
L 3.400108 8.63565 
L 8.340927 8.63565 
L 8.340927 11.18034 
L -4.535873 11.18034 
L -4.535873 8.63565 
z
" id="m33e34a4b26" style="stroke:#808080;"/>
    </defs>
    <g clip-path="url(#p3aeb42e077)">
     <use style="fill:#808080;stroke:#808080;" x="165.150861" xlink:href="#m33e34a4b26" y="266.119019"/>
    </g>
   </g>
   <g id="PathCollection_3">
    <defs>
     <path d="M -2.294912 8.680651 
L 8.075736 8.680651 
L 8.075736 11.18034 
L -5.867913 11.18034 
L -5.867913 8.680651 
Q -4.177916 6.929457 -1.259259 3.982555 
Q 1.664105 1.030945 2.4126 0.174178 
Q 3.838976 -1.426376 4.403877 -2.537349 
Q 4.973486 -3.648321 4.973486 -4.721634 
Q 4.973486 -6.472828 3.744825 -7.574386 
Q 2.516165 -8.680651 0.543718 -8.680651 
Q -0.854413 -8.680651 -2.407892 -8.195778 
Q -3.956663 -7.710904 -5.72198 -6.722326 
L -5.72198 -9.725719 
Q -3.928418 -10.445968 -2.370232 -10.813154 
Q -0.807338 -11.18034 0.487227 -11.18034 
Q 3.900173 -11.18034 5.929111 -9.471513 
Q 7.958048 -7.767394 7.958048 -4.914642 
Q 7.958048 -3.558879 7.449637 -2.344341 
Q 6.945933 -1.13451 5.604292 0.513119 
Q 5.237107 0.941502 3.264659 2.979855 
Q 1.296919 5.018207 -2.294912 8.680651 
z
" id="ma75ed4020c" style="stroke:#808080;"/>
    </defs>
    <g clip-path="url(#p3aeb42e077)">
     <use style="fill:#808080;stroke:#808080;" x="208.283854" xlink:href="#ma75ed4020c" y="389.254707"/>
    </g>
   </g>
   <g id="PathCollection_4">
    <defs>
     <path d="M 3.77605 -0.861447 
Q 5.868466 -0.413402 7.041697 1.004637 
Q 8.219548 2.418057 8.219548 4.496617 
Q 8.219548 7.683741 6.025513 9.43435 
Q 3.831478 11.18034 -0.210165 11.18034 
Q -1.563539 11.18034 -3.000054 10.912437 
Q -4.436569 10.644533 -5.965465 10.108727 
L -5.965465 7.295743 
Q -4.755282 8.002454 -3.314147 8.362737 
Q -1.868394 8.723021 -0.293308 8.723021 
Q 2.445772 8.723021 3.882287 7.64217 
Q 5.318802 6.561319 5.318802 4.496617 
Q 5.318802 2.588961 3.983905 1.517348 
Q 2.649008 0.441116 0.270213 0.441116 
L -2.242535 0.441116 
L -2.242535 -1.956155 
L 0.385688 -1.956155 
Q 2.533533 -1.956155 3.674431 -2.815293 
Q 4.815329 -3.674431 4.815329 -5.291088 
Q 4.815329 -6.949317 3.637479 -7.836169 
Q 2.464248 -8.72764 0.270213 -8.72764 
Q -0.930733 -8.72764 -2.302582 -8.464356 
Q -3.674431 -8.20569 -5.318802 -7.660646 
L -5.318802 -10.256536 
Q -3.655955 -10.718438 -2.205582 -10.949389 
Q -0.75521 -11.18034 0.528878 -11.18034 
Q 3.849954 -11.18034 5.780705 -9.66992 
Q 7.716074 -8.164119 7.716074 -5.595944 
Q 7.716074 -3.803764 6.690652 -2.570485 
Q 5.665229 -1.337207 3.77605 -0.861447 
z
" id="md82324a290" style="stroke:#808080;"/>
    </defs>
    <g clip-path="url(#p3aeb42e077)">
     <use style="fill:#808080;stroke:#808080;" x="372.704091" xlink:href="#md82324a290" y="489.82798"/>
    </g>
   </g>
   <g id="PathCollection_5">
    <defs>
     <path d="M 2.695646 -8.544598 
L -4.943215 3.392919 
L 2.695646 3.392919 
L 2.695646 -8.544598 
z
M 1.900131 -11.18034 
L 5.705184 -11.18034 
L 5.705184 3.392919 
L 8.896829 3.392919 
L 8.896829 5.908855 
L 5.705184 5.908855 
L 5.705184 11.18034 
L 2.695646 11.18034 
L 2.695646 5.908855 
L -7.396852 5.908855 
L -7.396852 2.99037 
L 1.900131 -11.18034 
z
" id="mdab1f9c98e" style="stroke:#808080;"/>
    </defs>
    <g clip-path="url(#p3aeb42e077)">
     <use style="fill:#808080;stroke:#808080;" x="560.290919" xlink:href="#mdab1f9c98e" y="510.716031"/>
    </g>
   </g>
   <g id="PathCollection_6">
    <defs>
     <path d="M -5.008473 -11.18034 
L 6.639575 -11.18034 
L 6.639575 -8.679629 
L -2.291535 -8.679629 
L -2.291535 -3.306861 
Q -1.647555 -3.527789 -1.003575 -3.635902 
Q -0.354894 -3.744015 0.293787 -3.744015 
Q 3.964943 -3.744015 6.108409 -1.732165 
Q 8.256576 0.279685 8.256576 3.715812 
Q 8.256576 7.255352 6.052002 9.220196 
Q 3.847428 11.18034 -0.16217 11.18034 
Q -1.544142 11.18034 -2.97782 10.945311 
Q -4.406798 10.710281 -5.934488 10.240223 
L -5.934488 7.255352 
Q -4.613624 7.974541 -3.203448 8.327085 
Q -1.793273 8.679629 -0.223278 8.679629 
Q 2.319738 8.679629 3.800422 7.344663 
Q 5.285807 6.009697 5.285807 3.715812 
Q 5.285807 1.426627 3.800422 0.091661 
Q 2.319738 -1.248005 -0.223278 -1.248005 
Q -1.412526 -1.248005 -2.597073 -0.984772 
Q -3.77692 -0.72154 -5.008473 -0.16217 
L -5.008473 -11.18034 
z
" id="mc98ef05c2d" style="stroke:#808080;"/>
    </defs>
    <g clip-path="url(#p3aeb42e077)">
     <use style="fill:#808080;stroke:#808080;" x="560.290919" xlink:href="#mc98ef05c2d" y="510.716031"/>
    </g>
   </g>
   <g id="PathCollection_7">
    <defs>
     <path d="M 1.286397 -1.175541 
Q -0.676687 -1.175541 -1.826823 0.168594 
Q -2.97234 1.50811 -2.97234 3.845335 
Q -2.97234 6.168702 -1.826823 7.522075 
Q -0.676687 8.870829 1.286397 8.870829 
Q 3.249481 8.870829 4.394998 7.522075 
Q 5.540515 6.168702 5.540515 3.845335 
Q 5.540515 1.50811 4.394998 0.168594 
Q 3.249481 -1.175541 1.286397 -1.175541 
z
M 7.07403 -10.316583 
L 7.07403 -7.660646 
Q 5.974703 -8.177976 4.8569 -8.450499 
Q 3.739097 -8.72764 2.63977 -8.72764 
Q -0.247118 -8.72764 -1.771394 -6.778413 
Q -3.291052 -4.829186 -3.508146 -0.889162 
Q -2.658246 -2.145535 -1.374159 -2.815293 
Q -0.085452 -3.485051 1.457301 -3.485051 
Q 4.704473 -3.485051 6.589033 -1.512729 
Q 8.473594 0.454974 8.473594 3.845335 
Q 8.473594 7.166411 6.51051 9.175685 
Q 4.547426 11.18034 1.286397 11.18034 
Q -2.45501 11.18034 -4.43195 8.316547 
Q -6.408891 5.448135 -6.408891 0.006929 
Q -6.408891 -5.101708 -3.983905 -8.141024 
Q -1.55892 -11.18034 2.524295 -11.18034 
Q 3.623622 -11.18034 4.741425 -10.963246 
Q 5.859228 -10.746152 7.07403 -10.316583 
z
" id="m9178fc3c61" style="stroke:#808080;"/>
    </defs>
    <g clip-path="url(#p3aeb42e077)">
     <use style="fill:#808080;stroke:#808080;" x="591.514985" xlink:href="#m9178fc3c61" y="307.55581"/>
    </g>
   </g>
   <g id="PathCollection_8">
    <defs>
     <path d="M -5.93042 -11.18034 
L 8.446356 -11.18034 
L 8.446356 -9.891222 
L 0.32827 11.18034 
L -2.829829 11.18034 
L 4.809032 -8.630858 
L -5.93042 -8.630858 
L -5.93042 -11.18034 
z
" id="m8b9b76a093" style="stroke:#808080;"/>
    </defs>
    <g clip-path="url(#p3aeb42e077)">
     <use style="fill:#808080;stroke:#808080;" x="470.103825" xlink:href="#m8b9b76a093" y="133.02017"/>
    </g>
   </g>
   <g id="PathCollection_9">
    <defs>
     <path d="M 1.002328 0.524259 
Q -1.076232 0.524259 -2.267939 1.637443 
Q -3.455028 2.750627 -3.455028 4.695235 
Q -3.455028 6.644461 -2.267939 7.757645 
Q -1.076232 8.870829 1.002328 8.870829 
Q 3.080887 8.870829 4.277213 7.753026 
Q 5.478159 6.630604 5.478159 4.695235 
Q 5.478159 2.750627 4.286451 1.637443 
Q 3.099363 0.524259 1.002328 0.524259 
z
M -1.912275 -0.713639 
Q -3.787597 -1.175541 -4.836115 -2.459629 
Q -5.880014 -3.748335 -5.880014 -5.595944 
Q -5.880014 -8.177976 -4.041643 -9.679158 
Q -2.198654 -11.18034 1.002328 -11.18034 
Q 4.221785 -11.18034 6.055536 -9.679158 
Q 7.889288 -8.177976 7.889288 -5.595944 
Q 7.889288 -3.748335 6.84077 -2.459629 
Q 5.796871 -1.175541 3.935406 -0.713639 
Q 6.041679 -0.224023 7.214911 1.207874 
Q 8.392761 2.635151 8.392761 4.695235 
Q 8.392761 7.83155 6.480486 9.508254 
Q 4.568212 11.18034 1.002328 11.18034 
Q -2.558938 11.18034 -4.475831 9.508254 
Q -6.388106 7.83155 -6.388106 4.695235 
Q -6.388106 2.635151 -5.205636 1.207874 
Q -4.018548 -0.224023 -1.912275 -0.713639 
z
M -2.979268 -5.318802 
Q -2.979268 -3.646717 -1.93537 -2.709056 
Q -0.886852 -1.771394 1.002328 -1.771394 
Q 2.882269 -1.771394 3.940025 -2.709056 
Q 5.0024 -3.646717 5.0024 -5.318802 
Q 5.0024 -6.995507 3.940025 -7.933168 
Q 2.882269 -8.870829 1.002328 -8.870829 
Q -0.886852 -8.870829 -1.93537 -7.933168 
Q -2.979268 -6.995507 -2.979268 -5.318802 
z
" id="m4e60b2c57b" style="stroke:#808080;"/>
    </defs>
    <g clip-path="url(#p3aeb42e077)">
     <use style="fill:#808080;stroke:#808080;" x="470.103825" xlink:href="#m4e60b2c57b" y="133.02017"/>
    </g>
   </g>
   <g id="PathCollection_10"/>
   <g id="PathCollection_11"/>
   <g id="PathCollection_12"/>
   <g id="PathCollection_13"/>
   <g id="PathCollection_14"/>
   <g id="matplotlib.axis_1">
    <g id="xtick_1">
     <g id="line2d_1">
      <defs>
       <path d="M 0 0 
L 0 3.5 
" id="mf78456e9c2" style="stroke:#000000;stroke-width:0.8;"/>
      </defs>
      <g>
       <use style="stroke:#000000;stroke-width:0.8;" x="146.979038" xlink:href="#mf78456e9c2" y="630"/>
      </g>
     </g>
     <g id="text_1">
      <!-- −250 -->
      <g transform="translate(133.245444 644.598438)scale(0.1 -0.1)">
       <defs>
        <path d="M 678 2272 
L 4684 2272 
L 4684 1741 
L 678 1741 
L 678 2272 
z
" id="DejaVuSans-2212" transform="scale(0.015625)"/>
        <path d="M 1228 531 
L 3431 531 
L 3431 0 
L 469 0 
L 469 531 
Q 828 903 1448 1529 
Q 2069 2156 2228 2338 
Q 2531 2678 2651 2914 
Q 2772 3150 2772 3378 
Q 2772 3750 2511 3984 
Q 2250 4219 1831 4219 
Q 1534 4219 1204 4116 
Q 875 4013 500 3803 
L 500 4441 
Q 881 4594 1212 4672 
Q 1544 4750 1819 4750 
Q 2544 4750 2975 4387 
Q 3406 4025 3406 3419 
Q 3406 3131 3298 2873 
Q 3191 2616 2906 2266 
Q 2828 2175 2409 1742 
Q 1991 1309 1228 531 
z
" id="DejaVuSans-32" transform="scale(0.015625)"/>
        <path d="M 691 4666 
L 3169 4666 
L 3169 4134 
L 1269 4134 
L 1269 2991 
Q 1406 3038 1543 3061 
Q 1681 3084 1819 3084 
Q 2600 3084 3056 2656 
Q 3513 2228 3513 1497 
Q 3513 744 3044 326 
Q 2575 -91 1722 -91 
Q 1428 -91 1123 -41 
Q 819 9 494 109 
L 494 744 
Q 775 591 1075 516 
Q 1375 441 1709 441 
Q 2250 441 2565 725 
Q 2881 1009 2881 1497 
Q 2881 1984 2565 2268 
Q 2250 2553 1709 2553 
Q 1456 2553 1204 2497 
Q 953 2441 691 2322 
L 691 4666 
z
" id="DejaVuSans-35" transform="scale(0.015625)"/>
        <path d="M 2034 4250 
Q 1547 4250 1301 3770 
Q 1056 3291 1056 2328 
Q 1056 1369 1301 889 
Q 1547 409 2034 409 
Q 2525 409 2770 889 
Q 3016 1369 3016 2328 
Q 3016 3291 2770 3770 
Q 2525 4250 2034 4250 
z
M 2034 4750 
Q 2819 4750 3233 4129 
Q 3647 3509 3647 2328 
Q 3647 1150 3233 529 
Q 2819 -91 2034 -91 
Q 1250 -91 836 529 
Q 422 1150 422 2328 
Q 422 3509 836 4129 
Q 1250 4750 2034 4750 
z
" id="DejaVuSans-30" transform="scale(0.015625)"/>
       </defs>
       <use xlink:href="#DejaVuSans-2212"/>
       <use x="83.789062" xlink:href="#DejaVuSans-32"/>
       <use x="147.412109" xlink:href="#DejaVuSans-35"/>
       <use x="211.035156" xlink:href="#DejaVuSans-30"/>
      </g>
     </g>
    </g>
    <g id="xtick_2">
     <g id="line2d_2">
      <g>
       <use style="stroke:#000000;stroke-width:0.8;" x="211.42026" xlink:href="#mf78456e9c2" y="630"/>
      </g>
     </g>
     <g id="text_2">
      <!-- −200 -->
      <g transform="translate(197.686667 644.598438)scale(0.1 -0.1)">
       <use xlink:href="#DejaVuSans-2212"/>
       <use x="83.789062" xlink:href="#DejaVuSans-32"/>
       <use x="147.412109" xlink:href="#DejaVuSans-30"/>
       <use x="211.035156" xlink:href="#DejaVuSans-30"/>
      </g>
     </g>
    </g>
    <g id="xtick_3">
     <g id="line2d_3">
      <g>
       <use style="stroke:#000000;stroke-width:0.8;" x="275.861483" xlink:href="#mf78456e9c2" y="630"/>
      </g>
     </g>
     <g id="text_3">
      <!-- −150 -->
      <g transform="translate(262.127889 644.598438)scale(0.1 -0.1)">
       <defs>
        <path d="M 794 531 
L 1825 531 
L 1825 4091 
L 703 3866 
L 703 4441 
L 1819 4666 
L 2450 4666 
L 2450 531 
L 3481 531 
L 3481 0 
L 794 0 
L 794 531 
z
" id="DejaVuSans-31" transform="scale(0.015625)"/>
       </defs>
       <use xlink:href="#DejaVuSans-2212"/>
       <use x="83.789062" xlink:href="#DejaVuSans-31"/>
       <use x="147.412109" xlink:href="#DejaVuSans-35"/>
       <use x="211.035156" xlink:href="#DejaVuSans-30"/>
      </g>
     </g>
    </g>
    <g id="xtick_4">
     <g id="line2d_4">
      <g>
       <use style="stroke:#000000;stroke-width:0.8;" x="340.302706" xlink:href="#mf78456e9c2" y="630"/>
      </g>
     </g>
     <g id="text_4">
      <!-- −100 -->
      <g transform="translate(326.569112 644.598438)scale(0.1 -0.1)">
       <use xlink:href="#DejaVuSans-2212"/>
       <use x="83.789062" xlink:href="#DejaVuSans-31"/>
       <use x="147.412109" xlink:href="#DejaVuSans-30"/>
       <use x="211.035156" xlink:href="#DejaVuSans-30"/>
      </g>
     </g>
    </g>
    <g id="xtick_5">
     <g id="line2d_5">
      <g>
       <use style="stroke:#000000;stroke-width:0.8;" x="404.743929" xlink:href="#mf78456e9c2" y="630"/>
      </g>
     </g>
     <g id="text_5">
      <!-- −50 -->
      <g transform="translate(394.191585 644.598438)scale(0.1 -0.1)">
       <use xlink:href="#DejaVuSans-2212"/>
       <use x="83.789062" xlink:href="#DejaVuSans-35"/>
       <use x="147.412109" xlink:href="#DejaVuSans-30"/>
      </g>
     </g>
    </g>
    <g id="xtick_6">
     <g id="line2d_6">
      <g>
       <use style="stroke:#000000;stroke-width:0.8;" x="469.185151" xlink:href="#mf78456e9c2" y="630"/>
      </g>
     </g>
     <g id="text_6">
      <!-- 0 -->
      <g transform="translate(466.003901 644.598438)scale(0.1 -0.1)">
       <use xlink:href="#DejaVuSans-30"/>
      </g>
     </g>
    </g>
    <g id="xtick_7">
     <g id="line2d_7">
      <g>
       <use style="stroke:#000000;stroke-width:0.8;" x="533.626374" xlink:href="#mf78456e9c2" y="630"/>
      </g>
     </g>
     <g id="text_7">
      <!-- 50 -->
      <g transform="translate(527.263874 644.598438)scale(0.1 -0.1)">
       <use xlink:href="#DejaVuSans-35"/>
       <use x="63.623047" xlink:href="#DejaVuSans-30"/>
      </g>
     </g>
    </g>
    <g id="xtick_8">
     <g id="line2d_8">
      <g>
       <use style="stroke:#000000;stroke-width:0.8;" x="598.067597" xlink:href="#mf78456e9c2" y="630"/>
      </g>
     </g>
     <g id="text_8">
      <!-- 100 -->
      <g transform="translate(588.523847 644.598438)scale(0.1 -0.1)">
       <use xlink:href="#DejaVuSans-31"/>
       <use x="63.623047" xlink:href="#DejaVuSans-30"/>
       <use x="127.246094" xlink:href="#DejaVuSans-30"/>
      </g>
     </g>
    </g>
   </g>
   <g id="matplotlib.axis_2">
    <g id="ytick_1">
     <g id="line2d_9">
      <defs>
       <path d="M 0 0 
L -3.5 0 
" id="m3f228b05d7" style="stroke:#000000;stroke-width:0.8;"/>
      </defs>
      <g>
       <use style="stroke:#000000;stroke-width:0.8;" x="90" xlink:href="#m3f228b05d7" y="574.491389"/>
      </g>
     </g>
     <g id="text_9">
      <!-- −250 -->
      <g transform="translate(55.532812 578.290608)scale(0.1 -0.1)">
       <use xlink:href="#DejaVuSans-2212"/>
       <use x="83.789062" xlink:href="#DejaVuSans-32"/>
       <use x="147.412109" xlink:href="#DejaVuSans-35"/>
       <use x="211.035156" xlink:href="#DejaVuSans-30"/>
      </g>
     </g>
    </g>
    <g id="ytick_2">
     <g id="line2d_10">
      <g>
       <use style="stroke:#000000;stroke-width:0.8;" x="90" xlink:href="#m3f228b05d7" y="511.713166"/>
      </g>
     </g>
     <g id="text_10">
      <!-- −200 -->
      <g transform="translate(55.532812 515.512385)scale(0.1 -0.1)">
       <use xlink:href="#DejaVuSans-2212"/>
       <use x="83.789062" xlink:href="#DejaVuSans-32"/>
       <use x="147.412109" xlink:href="#DejaVuSans-30"/>
       <use x="211.035156" xlink:href="#DejaVuSans-30"/>
      </g>
     </g>
    </g>
    <g id="ytick_3">
     <g id="line2d_11">
      <g>
       <use style="stroke:#000000;stroke-width:0.8;" x="90" xlink:href="#m3f228b05d7" y="448.934942"/>
      </g>
     </g>
     <g id="text_11">
      <!-- −150 -->
      <g transform="translate(55.532812 452.734161)scale(0.1 -0.1)">
       <use xlink:href="#DejaVuSans-2212"/>
       <use x="83.789062" xlink:href="#DejaVuSans-31"/>
       <use x="147.412109" xlink:href="#DejaVuSans-35"/>
       <use x="211.035156" xlink:href="#DejaVuSans-30"/>
      </g>
     </g>
    </g>
    <g id="ytick_4">
     <g id="line2d_12">
      <g>
       <use style="stroke:#000000;stroke-width:0.8;" x="90" xlink:href="#m3f228b05d7" y="386.156719"/>
      </g>
     </g>
     <g id="text_12">
      <!-- −100 -->
      <g transform="translate(55.532812 389.955938)scale(0.1 -0.1)">
       <use xlink:href="#DejaVuSans-2212"/>
       <use x="83.789062" xlink:href="#DejaVuSans-31"/>
       <use x="147.412109" xlink:href="#DejaVuSans-30"/>
       <use x="211.035156" xlink:href="#DejaVuSans-30"/>
      </g>
     </g>
    </g>
    <g id="ytick_5">
     <g id="line2d_13">
      <g>
       <use style="stroke:#000000;stroke-width:0.8;" x="90" xlink:href="#m3f228b05d7" y="323.378495"/>
      </g>
     </g>
     <g id="text_13">
      <!-- −50 -->
      <g transform="translate(61.895313 327.177714)scale(0.1 -0.1)">
       <use xlink:href="#DejaVuSans-2212"/>
       <use x="83.789062" xlink:href="#DejaVuSans-35"/>
       <use x="147.412109" xlink:href="#DejaVuSans-30"/>
      </g>
     </g>
    </g>
    <g id="ytick_6">
     <g id="line2d_14">
      <g>
       <use style="stroke:#000000;stroke-width:0.8;" x="90" xlink:href="#m3f228b05d7" y="260.600272"/>
      </g>
     </g>
     <g id="text_14">
      <!-- 0 -->
      <g transform="translate(76.6375 264.399491)scale(0.1 -0.1)">
       <use xlink:href="#DejaVuSans-30"/>
      </g>
     </g>
    </g>
    <g id="ytick_7">
     <g id="line2d_15">
      <g>
       <use style="stroke:#000000;stroke-width:0.8;" x="90" xlink:href="#m3f228b05d7" y="197.822048"/>
      </g>
     </g>
     <g id="text_15">
      <!-- 50 -->
      <g transform="translate(70.275 201.621267)scale(0.1 -0.1)">
       <use xlink:href="#DejaVuSans-35"/>
       <use x="63.623047" xlink:href="#DejaVuSans-30"/>
      </g>
     </g>
    </g>
    <g id="ytick_8">
     <g id="line2d_16">
      <g>
       <use style="stroke:#000000;stroke-width:0.8;" x="90" xlink:href="#m3f228b05d7" y="135.043825"/>
      </g>
     </g>
     <g id="text_16">
      <!-- 100 -->
      <g transform="translate(63.9125 138.843044)scale(0.1 -0.1)">
       <use xlink:href="#DejaVuSans-31"/>
       <use x="63.623047" xlink:href="#DejaVuSans-30"/>
       <use x="127.246094" xlink:href="#DejaVuSans-30"/>
      </g>
     </g>
    </g>
   </g>
   <g id="line2d_17">
    <path clip-path="url(#p3aeb42e077)" d="M 470.103825 133.02017 
L 468.642547 139.569739 
L 465.95645 145.731189 
L 461.574949 150.856877 
L 455.442895 153.774474 
L 448.595544 154.050515 
L 441.872439 152.635277 
L 435.346501 150.496179 
L 428.854971 148.259285 
L 422.255013 146.359735 
L 415.506958 145.07724 
L 408.664739 144.49932 
L 401.801126 144.553155 
L 394.959059 145.103444 
L 388.153356 146.022682 
L 381.385567 147.212532 
L 374.652851 148.602091 
L 367.951304 150.141087 
L 361.276967 151.793766 
L 354.626121 153.534425 
" style="fill:none;stroke:#808080;stroke-linecap:square;stroke-width:1.5;"/>
   </g>
   <g id="line2d_18">
    <path clip-path="url(#p3aeb42e077)" d="M 354.626121 154.050515 
L 354.626121 133.02017 
L 470.103825 133.02017 
L 470.103825 154.050515 
L 354.626121 154.050515 
" style="fill:none;stroke:#d3d3d3;stroke-linecap:square;stroke-width:0.5;"/>
   </g>
   <g id="line2d_19">
    <path clip-path="url(#p3aeb42e077)" d="M 354.626121 153.534425 
L 349.244234 156.960595 
L 346.732041 162.774465 
L 346.252517 169.09864 
L 346.785717 175.424406 
L 347.872931 181.686135 
L 349.292487 187.888571 
L 350.918368 194.047463 
L 352.667602 200.17937 
L 354.477508 206.300096 
L 356.293824 212.424837 
L 358.062871 218.568597 
L 359.72456 224.746404 
L 361.204079 230.972849 
L 362.399814 237.259843 
L 363.164251 243.609595 
L 363.274999 249.995001 
L 362.405169 256.310417 
L 360.161417 262.280838 
L 356.345837 267.435743 
L 351.276172 271.406694 
L 345.522814 274.242661 
L 339.46243 276.221526 
L 333.255352 277.595448 
L 326.964107 278.535712 
L 320.617004 279.153757 
L 314.229938 279.524176 
L 307.813322 279.699001 
L 301.374555 279.715914 
L 294.919113 279.603062 
L 288.451138 279.382008 
L 281.973805 279.069619 
L 275.489578 278.67932 
L 269.000381 278.221953 
L 262.507726 277.706391 
L 256.012812 277.139975 
L 249.516589 276.528839 
L 243.019815 275.878152 
L 236.523097 275.192308 
L 230.026919 274.475064 
L 223.53167 273.729657 
L 217.037657 272.958891 
L 210.545128 272.165206 
L 204.054276 271.350741 
L 197.565254 270.517374 
L 191.078181 269.666765 
L 184.593146 268.800384 
L 178.110218 267.91954 
L 171.629445 267.025403 
L 165.150861 266.119019 
" style="fill:none;stroke:#808080;stroke-linecap:square;stroke-width:1.5;"/>
   </g>
   <g id="line2d_20">
    <path clip-path="url(#p3aeb42e077)" d="M 165.150861 279.715914 
L 165.150861 153.534425 
L 363.274999 153.534425 
L 363.274999 279.715914 
L 165.150861 279.715914 
" style="fill:none;stroke:#d3d3d3;stroke-linecap:square;stroke-width:0.5;"/>
   </g>
   <g id="line2d_21">
    <path clip-path="url(#p3aeb42e077)" d="M 165.150861 266.119019 
L 158.7083 265.368024 
L 152.232119 264.982414 
L 145.745508 265.084765 
L 139.311217 265.871733 
L 133.102186 267.666414 
L 127.587599 270.93835 
L 123.71943 275.953905 
L 122.190784 282.065953 
L 122.575775 288.364449 
L 124.173475 294.489077 
L 126.53681 300.381052 
L 129.415041 306.055613 
L 132.661629 311.539761 
L 136.185419 316.85877 
L 139.926433 322.033832 
L 143.843313 327.082225 
L 147.906402 332.01798 
L 152.093729 336.852535 
L 156.388563 341.595282 
L 160.77786 346.253995 
L 165.251247 350.835158 
L 169.800333 355.344218 
L 174.418225 359.785784 
L 179.099194 364.163773 
L 183.838422 368.481536 
L 188.631819 372.741948 
L 193.475883 376.947481 
L 198.367599 381.100267 
L 203.304349 385.202148 
L 208.283854 389.254707 
" style="fill:none;stroke:#808080;stroke-linecap:square;stroke-width:1.5;"/>
   </g>
   <g id="line2d_22">
    <path clip-path="url(#p3aeb42e077)" d="M 122.190784 389.254707 
L 122.190784 264.982414 
L 208.283854 264.982414 
L 208.283854 389.254707 
L 122.190784 389.254707 
" style="fill:none;stroke:#d3d3d3;stroke-linecap:square;stroke-width:0.5;"/>
   </g>
   <g id="line2d_23">
    <path clip-path="url(#p3aeb42e077)" d="M 208.283854 389.254707 
L 213.30412 393.25931 
L 218.363394 397.217125 
L 223.460134 401.129147 
L 228.59298 404.996213 
L 233.760733 408.819018 
L 238.962332 412.598128 
L 244.196842 416.333988 
L 249.463438 420.02693 
L 254.761399 423.677179 
L 260.090089 427.284862 
L 265.448957 430.850003 
L 270.83753 434.372536 
L 276.255398 437.8523 
L 281.70222 441.28904 
L 287.177713 444.682411 
L 292.681648 448.031973 
L 298.213849 451.337191 
L 303.774191 454.597435 
L 309.362591 457.81197 
L 314.979015 460.979961 
L 320.623466 464.10046 
L 326.295992 467.172404 
L 331.996674 470.19461 
L 337.725635 473.165762 
L 343.483027 476.084407 
L 349.26904 478.948941 
L 355.083892 481.7576 
L 360.927831 484.508446 
L 366.801131 487.199351 
L 372.704091 489.82798 
" style="fill:none;stroke:#808080;stroke-linecap:square;stroke-width:1.5;"/>
   </g>
   <g id="line2d_24">
    <path clip-path="url(#p3aeb42e077)" d="M 208.283854 489.82798 
L 208.283854 389.254707 
L 372.704091 389.254707 
L 372.704091 489.82798 
L 208.283854 489.82798 
" style="fill:none;stroke:#d3d3d3;stroke-linecap:square;stroke-width:0.5;"/>
   </g>
   <g id="line2d_25">
    <path clip-path="url(#p3aeb42e077)" d="M 372.704091 489.82798 
L 378.637027 492.391773 
L 384.600272 494.887924 
L 390.59417 497.313356 
L 396.619066 499.664691 
L 402.675299 501.938225 
L 408.763192 504.129888 
L 414.883036 506.235208 
L 421.035073 508.249268 
L 427.219475 510.166657 
L 433.436311 511.981417 
L 439.68552 513.686986 
L 445.966856 515.276129 
L 452.279842 516.740878 
L 458.623693 518.072454 
L 464.99723 519.261197 
L 471.398779 520.296491 
L 477.826029 521.166707 
L 484.275884 521.859148 
L 490.744268 522.36003 
L 497.225903 522.654498 
L 503.714068 522.726711 
L 510.200321 522.560006 
L 516.674233 522.137177 
L 523.123142 521.440903 
L 529.531974 520.454336 
L 535.8832 519.161858 
L 542.156975 517.549995 
L 548.331547 515.608407 
L 554.383938 513.330859 
L 560.290919 510.716031 
" style="fill:none;stroke:#808080;stroke-linecap:square;stroke-width:1.5;"/>
   </g>
   <g id="line2d_26">
    <path clip-path="url(#p3aeb42e077)" d="M 372.704091 522.726711 
L 372.704091 489.82798 
L 560.290919 489.82798 
L 560.290919 522.726711 
L 372.704091 522.726711 
" style="fill:none;stroke:#d3d3d3;stroke-linecap:square;stroke-width:0.5;"/>
   </g>
   <g id="line2d_27">
    <path clip-path="url(#p3aeb42e077)" d="M 560.290919 510.716031 
" style="fill:none;stroke:#808080;stroke-linecap:square;stroke-width:1.5;"/>
   </g>
   <g id="line2d_28">
    <path clip-path="url(#p3aeb42e077)" d="M 560.290919 510.716031 
L 560.290919 510.716031 
L 560.290919 510.716031 
L 560.290919 510.716031 
L 560.290919 510.716031 
" style="fill:none;stroke:#d3d3d3;stroke-linecap:square;stroke-width:0.5;"/>
   </g>
   <g id="line2d_29">
    <path clip-path="url(#p3aeb42e077)" d="M 560.290919 510.716031 
L 566.036763 507.788006 
L 571.607505 504.55432 
L 576.969046 501.000683 
L 582.084145 497.117634 
L 586.913971 492.902351 
L 591.420405 488.360168 
L 595.568889 483.505384 
L 599.331346 478.360989 
L 602.688577 472.957215 
L 605.631576 467.329131 
L 608.161522 461.513817 
L 610.288581 455.547688 
L 612.029927 449.464438 
L 613.407507 443.293767 
L 614.445937 437.060857 
L 615.170793 430.786409 
L 615.607347 424.487029 
L 615.779742 418.175776 
L 615.710505 411.862758 
L 615.420322 405.555692 
L 614.927976 399.26039 
L 614.250401 392.981176 
L 613.402788 386.72122 
L 612.398728 380.482799 
L 611.250367 374.267517 
L 609.968551 368.076459 
L 608.562969 361.910324 
L 607.042285 355.769524 
L 605.414252 349.654255 
L 603.685816 343.564559 
L 601.863209 337.50037 
L 599.95203 331.461546 
L 597.95731 325.447897 
L 595.883579 319.459208 
L 593.734914 313.495254 
L 591.514985 307.55581 
" style="fill:none;stroke:#808080;stroke-linecap:square;stroke-width:1.5;"/>
   </g>
   <g id="line2d_30">
    <path clip-path="url(#p3aeb42e077)" d="M 560.290919 510.716031 
L 560.290919 307.55581 
L 615.779742 307.55581 
L 615.779742 510.716031 
L 560.290919 510.716031 
" style="fill:none;stroke:#d3d3d3;stroke-linecap:square;stroke-width:0.5;"/>
   </g>
   <g id="line2d_31">
    <path clip-path="url(#p3aeb42e077)" d="M 591.514985 307.55581 
L 589.227097 301.640666 
L 586.874221 295.749632 
L 584.459025 289.882543 
L 581.983896 284.039269 
L 579.450962 278.219714 
L 576.862107 272.423825 
L 574.218987 266.651591 
L 571.523039 260.903051 
L 568.775485 255.178293 
L 565.977342 249.477462 
L 563.129415 243.800762 
L 560.2323 238.14846 
L 557.286374 232.520898 
L 554.291781 226.918494 
L 551.248419 221.341756 
L 548.155916 215.791294 
L 545.013593 210.267834 
L 541.820429 204.772245 
L 538.574999 199.305565 
L 535.275408 193.869044 
L 531.919188 188.464202 
L 528.503174 183.092911 
L 525.023328 177.757517 
L 521.474503 172.461022 
L 517.850104 167.207365 
L 514.141608 162.001876 
L 510.33786 156.852015 
L 506.42397 151.768674 
L 502.37957 146.768557 
L 498.175805 141.878857 
L 493.769729 137.147342 
L 489.092308 132.666987 
L 484.016318 128.649672 
L 478.251397 125.763808 
L 472.321071 127.179481 
L 470.103825 133.02017 
" style="fill:none;stroke:#808080;stroke-linecap:square;stroke-width:1.5;"/>
   </g>
   <g id="line2d_32">
    <path clip-path="url(#p3aeb42e077)" d="M 470.103825 307.55581 
L 470.103825 125.763808 
L 591.514985 125.763808 
L 591.514985 307.55581 
L 470.103825 307.55581 
" style="fill:none;stroke:#d3d3d3;stroke-linecap:square;stroke-width:0.5;"/>
   </g>
   <g id="line2d_33">
    <path clip-path="url(#p3aeb42e077)" d="M 470.103825 133.02017 
" style="fill:none;stroke:#808080;stroke-linecap:square;stroke-width:1.5;"/>
   </g>
   <g id="line2d_34">
    <path clip-path="url(#p3aeb42e077)" d="M 470.103825 133.02017 
L 470.103825 133.02017 
L 470.103825 133.02017 
L 470.103825 133.02017 
L 470.103825 133.02017 
" style="fill:none;stroke:#d3d3d3;stroke-linecap:square;stroke-width:0.5;"/>
   </g>
   <g id="line2d_35">
    <path clip-path="url(#p3aeb42e077)" d="M 358.041728 165.641126 
L 358.041728 165.641126 
L 359.428418 164.655444 
L 359.377611 165.199481 
L 359.137956 168.836672 
L 358.845534 165.43075 
" style="fill:none;stroke:#000000;stroke-linecap:square;stroke-width:3;"/>
   </g>
   <g id="line2d_36">
    <path clip-path="url(#p3aeb42e077)" d="M 358.041728 168.836672 
L 358.041728 164.655444 
L 359.428418 164.655444 
L 359.428418 168.836672 
L 358.041728 168.836672 
" style="fill:none;stroke:#d3d3d3;stroke-linecap:square;stroke-width:0.5;"/>
   </g>
   <g id="line2d_37">
    <path clip-path="url(#p3aeb42e077)" d="M 358.845534 165.43075 
L 358.041728 165.641126 
L 358.041728 165.641126 
" style="fill:none;stroke:#000000;stroke-linecap:square;stroke-width:3;"/>
   </g>
   <g id="line2d_38">
    <path clip-path="url(#p3aeb42e077)" d="M 358.041728 165.641126 
L 358.041728 165.43075 
L 358.845534 165.43075 
L 358.845534 165.641126 
L 358.041728 165.641126 
" style="fill:none;stroke:#d3d3d3;stroke-linecap:square;stroke-width:0.5;"/>
   </g>
   <g id="line2d_39">
    <path clip-path="url(#p3aeb42e077)" d="M 163.306971 278.545503 
L 163.306971 278.545503 
L 163.306971 278.545503 
" style="fill:none;stroke:#000000;stroke-linecap:square;stroke-width:3;"/>
   </g>
   <g id="line2d_40">
    <path clip-path="url(#p3aeb42e077)" d="M 163.306971 278.545503 
L 163.306971 278.545503 
L 163.306971 278.545503 
L 163.306971 278.545503 
L 163.306971 278.545503 
" style="fill:none;stroke:#d3d3d3;stroke-linecap:square;stroke-width:0.5;"/>
   </g>
   <g id="line2d_41">
    <path clip-path="url(#p3aeb42e077)" d="M 163.306971 278.545503 
L 163.306971 278.545503 
L 163.306971 278.545503 
" style="fill:none;stroke:#000000;stroke-linecap:square;stroke-width:3;"/>
   </g>
   <g id="line2d_42">
    <path clip-path="url(#p3aeb42e077)" d="M 163.306971 278.545503 
L 163.306971 278.545503 
L 163.306971 278.545503 
L 163.306971 278.545503 
L 163.306971 278.545503 
" style="fill:none;stroke:#d3d3d3;stroke-linecap:square;stroke-width:0.5;"/>
   </g>
   <g id="line2d_43">
    <path clip-path="url(#p3aeb42e077)" d="M 481.131 142.520099 
L 480.974017 143.220261 
L 477.104788 152.031248 
L 469.702698 160.60108 
L 458.348362 166.006913 
L 447.127911 166.524488 
L 438.213679 164.674367 
L 430.98027 162.30937 
L 424.764288 160.165714 
L 419.135966 158.542157 
L 413.720098 157.511628 
L 408.199718 157.046789 
L 402.428058 157.093936 
L 396.410821 157.57918 
L 390.209504 158.417514 
L 383.884462 159.529913 
L 377.480269 160.851875 
L 371.026789 162.334015 
L 364.543236 163.939515 
L 358.845534 165.43075 
" style="fill:none;stroke:#000000;stroke-linecap:square;stroke-width:3;"/>
   </g>
   <g id="line2d_44">
    <path clip-path="url(#p3aeb42e077)" d="M 358.845534 166.524488 
L 358.845534 142.520099 
L 481.131 142.520099 
L 481.131 166.524488 
L 358.845534 166.524488 
" style="fill:none;stroke:#d3d3d3;stroke-linecap:square;stroke-width:0.5;"/>
   </g>
   <g id="line2d_45">
    <path clip-path="url(#p3aeb42e077)" d="M 554.617975 499.442101 
L 559.757605 496.823285 
L 564.689248 493.960908 
L 569.386744 490.847756 
L 573.824542 487.479231 
L 577.979068 483.853653 
L 581.830007 479.972419 
L 585.361242 475.840097 
L 588.561342 471.464562 
L 591.423642 466.857169 
L 593.946107 462.032826 
L 596.131099 457.009737 
L 597.985073 451.808696 
L 599.518132 446.452018 
L 600.743407 440.962322 
L 601.676295 435.361429 
L 602.33364 429.669543 
L 602.73297 423.904752 
L 602.89185 418.082837 
L 602.827399 412.217286 
L 602.555945 406.319453 
L 602.092817 400.398788 
L 601.452242 394.46309 
L 600.647309 388.518759 
L 599.689988 382.571022 
L 598.591179 376.624139 
L 597.36078 370.681576 
L 596.007762 364.746151 
L 594.540248 358.820153 
L 592.965591 352.905449 
L 591.290445 347.003562 
L 589.520832 341.11574 
L 587.662207 335.243011 
L 585.719511 329.386231 
L 583.697218 323.546117 
L 581.599387 317.723282 
" style="fill:none;stroke:#000000;stroke-linecap:square;stroke-width:3;"/>
   </g>
   <g id="line2d_46">
    <path clip-path="url(#p3aeb42e077)" d="M 554.617975 499.442101 
L 554.617975 317.723282 
L 602.89185 317.723282 
L 602.89185 499.442101 
L 554.617975 499.442101 
" style="fill:none;stroke:#d3d3d3;stroke-linecap:square;stroke-width:0.5;"/>
   </g>
   <g id="line2d_47">
    <path clip-path="url(#p3aeb42e077)" d="M 581.599387 317.723282 
L 579.429693 311.91826 
L 577.191466 306.131525 
L 574.88772 300.363509 
L 572.521178 294.614622 
L 570.094296 288.885258 
L 567.609284 283.175814 
L 565.068117 277.486693 
L 562.472553 271.81832 
L 559.824143 266.171149 
L 557.124236 260.545671 
L 554.37399 254.942425 
L 551.574367 249.362009 
L 548.726141 243.805089 
L 545.829887 238.272418 
L 542.885983 232.764843 
L 539.894592 227.283334 
L 536.85565 221.829002 
L 533.76885 216.403135 
L 530.633612 211.007234 
L 527.44905 205.643075 
L 524.213935 200.312778 
L 520.926638 195.018918 
L 517.58507 189.764669 
L 514.186601 184.554023 
L 510.727977 179.39212 
L 507.205214 174.285749 
L 503.613523 169.244156 
L 499.947293 164.280391 
L 496.2003 159.413668 
L 492.36658 154.673757 
L 488.443289 150.109783 
L 484.440077 145.809695 
L 480.413488 141.949213 
L 481.131 142.520099 
" style="fill:none;stroke:#000000;stroke-linecap:square;stroke-width:3;"/>
   </g>
   <g id="line2d_48">
    <path clip-path="url(#p3aeb42e077)" d="M 480.413488 317.723282 
L 480.413488 141.949213 
L 581.599387 141.949213 
L 581.599387 317.723282 
L 480.413488 317.723282 
" style="fill:none;stroke:#d3d3d3;stroke-linecap:square;stroke-width:0.5;"/>
   </g>
   <g id="line2d_49">
    <path clip-path="url(#p3aeb42e077)" d="M 163.306971 278.545503 
L 157.516786 277.869898 
L 151.891995 277.533686 
L 146.567892 277.614823 
L 141.805451 278.19001 
L 138.095706 279.241359 
L 136.075044 280.387029 
L 135.427814 281.201959 
L 135.049201 282.919674 
L 135.281607 286.259494 
L 136.412824 290.555315 
L 138.303014 295.257193 
L 140.762956 300.103324 
L 143.648987 304.976789 
L 146.861209 309.824692 
L 150.330219 314.623037 
L 154.006779 319.361423 
L 157.855048 324.036054 
L 161.84827 328.646391 
L 165.965998 333.193487 
L 170.192281 337.679127 
L 174.514442 342.10538 
L 178.922242 346.474368 
L 183.407289 350.788138 
L 187.962624 355.048607 
L 192.582404 359.257532 
L 197.261683 363.416504 
L 201.996231 367.526947 
L 206.782408 371.590131 
L 211.617059 375.607172 
L 216.497433 379.579049 
" style="fill:none;stroke:#000000;stroke-linecap:square;stroke-width:3;"/>
   </g>
   <g id="line2d_50">
    <path clip-path="url(#p3aeb42e077)" d="M 135.049201 379.579049 
L 135.049201 277.533686 
L 216.497433 277.533686 
L 216.497433 379.579049 
L 135.049201 379.579049 
" style="fill:none;stroke:#d3d3d3;stroke-linecap:square;stroke-width:0.5;"/>
   </g>
   <g id="line2d_51">
    <path clip-path="url(#p3aeb42e077)" d="M 216.497433 379.579049 
L 221.421121 383.506609 
L 226.386001 387.390577 
L 231.3902 391.231566 
L 236.43206 395.03008 
L 241.510104 398.786522 
L 246.62302 402.5012 
L 251.769637 406.17433 
L 256.948909 409.806039 
L 262.159902 413.396368 
L 267.401779 416.945275 
L 272.673795 420.452634 
L 277.975282 423.918239 
L 283.305644 427.3418 
L 288.66435 430.722943 
L 294.050929 434.061211 
L 299.464961 437.35606 
L 304.906074 440.606859 
L 310.373941 443.812882 
L 315.868272 446.973308 
L 321.388814 450.087217 
L 326.935342 453.153581 
L 332.507662 456.171261 
L 338.105601 459.138999 
L 343.729005 462.05541 
L 349.377737 464.918973 
L 355.051668 467.728022 
L 360.750678 470.480731 
L 366.474644 473.175107 
L 372.223438 475.808973 
L 377.996919 478.379949 
" style="fill:none;stroke:#000000;stroke-linecap:square;stroke-width:3;"/>
   </g>
   <g id="line2d_52">
    <path clip-path="url(#p3aeb42e077)" d="M 216.497433 478.379949 
L 216.497433 379.579049 
L 377.996919 379.579049 
L 377.996919 478.379949 
L 216.497433 478.379949 
" style="fill:none;stroke:#d3d3d3;stroke-linecap:square;stroke-width:0.5;"/>
   </g>
   <g id="line2d_53">
    <path clip-path="url(#p3aeb42e077)" d="M 377.996919 478.379949 
L 383.794925 480.88544 
L 389.61726 483.322615 
L 395.463688 485.68838 
L 401.333916 487.979361 
L 407.227576 490.191874 
L 413.144211 492.321894 
L 419.083248 494.365026 
L 425.043972 496.316468 
L 431.025493 498.170973 
L 437.026708 499.92281 
L 443.046253 501.565719 
L 449.082451 503.092869 
L 455.133244 504.496814 
L 461.196122 505.769448 
L 467.268032 506.901974 
L 473.345285 507.88487 
L 479.423442 508.707876 
L 485.497197 509.360004 
L 491.56026 509.829575 
L 497.605235 510.104293 
L 503.62352 510.171377 
L 509.605248 510.017752 
L 515.539269 509.630311 
L 521.41323 508.996251 
L 527.213741 508.103473 
L 532.926669 506.941037 
L 538.537537 505.49963 
L 544.031997 503.772027 
L 549.396342 501.753491 
L 554.617975 499.442101 
" style="fill:none;stroke:#000000;stroke-linecap:square;stroke-width:3;"/>
   </g>
   <g id="line2d_54">
    <path clip-path="url(#p3aeb42e077)" d="M 377.996919 510.171377 
L 377.996919 478.379949 
L 554.617975 478.379949 
L 554.617975 510.171377 
L 377.996919 510.171377 
" style="fill:none;stroke:#d3d3d3;stroke-linecap:square;stroke-width:0.5;"/>
   </g>
   <g id="line2d_55">
    <path clip-path="url(#p3aeb42e077)" d="M 554.617975 499.442101 
" style="fill:none;stroke:#000000;stroke-linecap:square;stroke-width:3;"/>
   </g>
   <g id="line2d_56">
    <path clip-path="url(#p3aeb42e077)" d="M 554.617975 499.442101 
L 554.617975 499.442101 
L 554.617975 499.442101 
L 554.617975 499.442101 
L 554.617975 499.442101 
" style="fill:none;stroke:#d3d3d3;stroke-linecap:square;stroke-width:0.5;"/>
   </g>
   <g id="line2d_57">
    <path clip-path="url(#p3aeb42e077)" d="M 358.845534 165.43075 
L 359.561393 173.76858 
L 360.510578 179.22223 
L 361.817137 184.927281 
L 363.362678 190.780501 
L 365.063584 196.742457 
L 366.855757 202.803054 
L 368.684314 208.96918 
L 370.49585 215.260946 
L 372.230852 221.712373 
L 373.813554 228.37557 
L 375.134689 235.32863 
L 376.017597 242.686239 
L 376.14828 250.599851 
L 374.953292 259.175845 
L 371.580159 268.103157 
L 365.631011 276.143333 
L 358.131347 282.038955 
L 350.382532 285.871529 
L 342.868425 288.330796 
L 335.614031 289.939041 
L 328.551135 290.995803 
L 321.619361 291.671372 
L 314.777673 292.068477 
L 307.999552 292.253335 
L 301.267793 292.271128 
L 294.571001 292.154126 
L 287.901428 291.926227 
L 281.253669 291.605649 
L 274.623851 291.206606 
L 268.009131 290.740407 
L 261.407375 290.216192 
L 254.816943 289.641454 
L 248.236554 289.022405 
L 241.665181 288.364252 
L 235.101995 287.671394 
L 228.546309 286.947582 
L 221.997546 286.196035 
L 215.455219 285.419536 
L 208.918904 284.6205 
L 202.388237 283.80104 
L 195.862894 282.963009 
L 189.342588 282.108043 
L 182.827064 281.237589 
L 176.316089 280.352935 
L 169.809456 279.45523 
L 163.306971 278.545503 
" style="fill:none;stroke:#000000;stroke-linecap:square;stroke-width:3;"/>
   </g>
   <g id="line2d_58">
    <path clip-path="url(#p3aeb42e077)" d="M 163.306971 292.271128 
L 163.306971 165.43075 
L 376.14828 165.43075 
L 376.14828 292.271128 
L 163.306971 292.271128 
" style="fill:none;stroke:#d3d3d3;stroke-linecap:square;stroke-width:0.5;"/>
   </g>
   <g id="line2d_59">
    <path clip-path="url(#p3aeb42e077)" d="M 554.617975 499.442101 
L 554.617975 499.442101 
L 554.617975 499.442101 
" style="fill:none;stroke:#000000;stroke-linecap:square;stroke-width:3;"/>
   </g>
   <g id="line2d_60">
    <path clip-path="url(#p3aeb42e077)" d="M 554.617975 499.442101 
L 554.617975 499.442101 
L 554.617975 499.442101 
L 554.617975 499.442101 
L 554.617975 499.442101 
" style="fill:none;stroke:#d3d3d3;stroke-linecap:square;stroke-width:0.5;"/>
   </g>
   <g id="line2d_61">
    <path clip-path="url(#p3aeb42e077)" d="M 554.617975 499.442101 
L 554.617975 499.442101 
L 554.617975 499.442101 
" style="fill:none;stroke:#000000;stroke-linecap:square;stroke-width:3;"/>
   </g>
   <g id="line2d_62">
    <path clip-path="url(#p3aeb42e077)" d="M 554.617975 499.442101 
L 554.617975 499.442101 
L 554.617975 499.442101 
L 554.617975 499.442101 
L 554.617975 499.442101 
" style="fill:none;stroke:#d3d3d3;stroke-linecap:square;stroke-width:0.5;"/>
   </g>
   <g id="line2d_63">
    <path clip-path="url(#p3aeb42e077)" d="M 166.99475 253.692535 
L 166.99475 253.692535 
L 166.99475 253.692535 
" style="fill:none;stroke:#000000;stroke-linecap:square;stroke-width:3;"/>
   </g>
   <g id="line2d_64">
    <path clip-path="url(#p3aeb42e077)" d="M 166.99475 253.692535 
L 166.99475 253.692535 
L 166.99475 253.692535 
L 166.99475 253.692535 
L 166.99475 253.692535 
" style="fill:none;stroke:#d3d3d3;stroke-linecap:square;stroke-width:0.5;"/>
   </g>
   <g id="line2d_65">
    <path clip-path="url(#p3aeb42e077)" d="M 166.99475 253.692535 
L 166.99475 253.692535 
L 166.99475 253.692535 
" style="fill:none;stroke:#000000;stroke-linecap:square;stroke-width:3;"/>
   </g>
   <g id="line2d_66">
    <path clip-path="url(#p3aeb42e077)" d="M 166.99475 253.692535 
L 166.99475 253.692535 
L 166.99475 253.692535 
L 166.99475 253.692535 
L 166.99475 253.692535 
" style="fill:none;stroke:#d3d3d3;stroke-linecap:square;stroke-width:0.5;"/>
   </g>
   <g id="line2d_67">
    <path clip-path="url(#p3aeb42e077)" d="M 565.963863 521.989962 
L 572.315922 518.752727 
L 578.525761 515.147731 
L 584.551347 511.153609 
L 590.343748 506.756038 
L 595.848874 501.951049 
L 601.010804 496.747918 
L 605.776536 491.170671 
L 610.10135 485.257416 
L 613.953511 479.05726 
L 617.317044 472.625436 
L 620.191945 466.017897 
L 622.592089 459.28668 
L 624.541723 452.476858 
L 626.071606 445.625211 
L 627.215579 438.760284 
L 628.007946 431.903276 
L 628.481725 425.069306 
L 628.667633 418.268715 
L 628.59361 411.508231 
L 628.284699 404.79193 
L 627.763136 398.121992 
L 627.048561 391.499262 
L 626.158267 384.92368 
L 625.107469 378.394577 
L 623.909555 371.910894 
L 622.576322 365.471341 
L 621.118177 359.074498 
L 619.544322 352.718895 
L 617.862913 346.403061 
L 616.081187 340.125557 
L 614.205587 333.885 
L 612.241853 327.68008 
L 610.19511 321.509563 
L 608.06994 315.3723 
L 605.87044 309.267225 
L 603.600276 303.19336 
L 601.262727 297.149808 
" style="fill:none;stroke:#000000;stroke-linecap:square;stroke-width:3;"/>
   </g>
   <g id="line2d_68">
    <path clip-path="url(#p3aeb42e077)" d="M 565.963863 521.989962 
L 565.963863 297.149808 
L 628.667633 297.149808 
L 628.667633 521.989962 
L 565.963863 521.989962 
" style="fill:none;stroke:#d3d3d3;stroke-linecap:square;stroke-width:0.5;"/>
   </g>
   <g id="line2d_69">
    <path clip-path="url(#p3aeb42e077)" d="M 601.262727 297.149808 
L 598.860722 291.135754 
L 596.396873 285.150464 
L 593.873496 279.193279 
L 591.29264 273.263614 
L 588.656098 267.360957 
L 585.965422 261.484863 
L 583.221935 255.634954 
L 580.426734 249.810916 
L 577.580694 244.0125 
L 574.684463 238.239515 
L 571.73846 232.491831 
L 568.74286 226.769378 
L 565.697578 221.072145 
L 562.602247 215.400178 
L 559.456182 209.753585 
L 556.258336 204.132533 
L 553.007246 198.537256 
L 549.700948 192.968056 
L 546.33688 187.42531 
L 542.911737 181.909487 
L 539.421278 176.421154 
L 535.860055 170.961011 
L 532.22103 165.529923 
L 528.494993 160.128981 
L 524.669694 154.759595 
L 520.728426 149.423638 
L 516.64764 144.12368 
L 512.39256 138.863358 
L 507.90832 133.647931 
L 503.099381 128.484989 
L 497.771129 123.384762 
L 491.403511 118.361145 
L 481.689143 113.663055 
L 462.464129 119.090298 
L 457.345732 131.240318 
L 457.345732 131.240318 
" style="fill:none;stroke:#000000;stroke-linecap:square;stroke-width:3;"/>
   </g>
   <g id="line2d_70">
    <path clip-path="url(#p3aeb42e077)" d="M 457.345732 297.149808 
L 457.345732 113.663055 
L 601.262727 113.663055 
L 601.262727 297.149808 
L 457.345732 297.149808 
" style="fill:none;stroke:#d3d3d3;stroke-linecap:square;stroke-width:0.5;"/>
   </g>
   <g id="line2d_71">
    <path clip-path="url(#p3aeb42e077)" d="M 457.345732 131.240318 
L 457.345732 131.240318 
L 456.311077 135.919218 
L 454.808112 139.43113 
L 453.4472 141.112675 
L 452.537428 141.542035 
L 450.063178 141.576542 
L 445.531198 140.596187 
L 439.712732 138.682987 
L 432.945654 136.352856 
L 425.374059 134.177314 
L 417.293817 132.642852 
L 409.12976 131.95185 
L 401.174195 132.012374 
L 393.507297 132.627708 
L 386.097209 133.62785 
L 378.886673 134.895151 
L 371.825433 136.352307 
L 364.875819 137.948159 
L 358.010698 139.648016 
L 351.210514 141.427724 
L 351.210514 141.427724 
" style="fill:none;stroke:#000000;stroke-linecap:square;stroke-width:3;"/>
   </g>
   <g id="line2d_72">
    <path clip-path="url(#p3aeb42e077)" d="M 351.210514 141.576542 
L 351.210514 131.240318 
L 457.345732 131.240318 
L 457.345732 141.576542 
L 351.210514 141.576542 
" style="fill:none;stroke:#d3d3d3;stroke-linecap:square;stroke-width:0.5;"/>
   </g>
   <g id="line2d_73">
    <path clip-path="url(#p3aeb42e077)" d="M 351.210514 141.427724 
L 351.210514 141.427724 
L 339.06005 149.265745 
L 334.08647 160.349449 
L 333.367078 169.360607 
L 334.01004 177.080232 
L 335.235284 184.15004 
L 336.767837 190.849861 
L 338.474058 197.314424 
L 340.27162 203.616282 
L 342.099258 209.797137 
L 343.903334 215.880494 
L 345.629891 221.876249 
L 347.218268 227.780435 
L 348.594604 233.570128 
L 349.664938 239.191056 
L 350.310906 244.532951 
L 350.401718 249.390151 
L 349.857045 253.444989 
L 348.742675 256.458519 
L 347.060663 258.728153 
L 344.420997 260.774434 
L 340.663096 262.613793 
L 336.056434 264.112255 
L 330.896674 265.251855 
L 325.377079 266.075621 
L 319.614647 266.636142 
L 313.682203 266.979875 
L 307.627092 267.144667 
L 301.481317 267.1607 
L 295.267226 267.051998 
L 289.000847 266.837789 
L 282.693941 266.53359 
L 276.355306 266.152033 
L 269.991631 265.703498 
L 263.608078 265.19659 
L 257.20868 264.638496 
L 250.796624 264.035273 
L 244.374449 263.392053 
L 237.944199 262.713223 
L 231.50753 262.002547 
L 225.065793 261.263279 
L 218.620096 260.498246 
L 212.171351 259.709912 
L 205.720315 258.900442 
L 199.267614 258.071739 
L 192.813773 257.225487 
L 186.359228 256.363179 
L 179.904346 255.486145 
L 173.449434 254.595576 
L 166.99475 253.692535 
" style="fill:none;stroke:#000000;stroke-linecap:square;stroke-width:3;"/>
   </g>
   <g id="line2d_74">
    <path clip-path="url(#p3aeb42e077)" d="M 166.99475 267.1607 
L 166.99475 141.427724 
L 351.210514 141.427724 
L 351.210514 267.1607 
L 166.99475 267.1607 
" style="fill:none;stroke:#d3d3d3;stroke-linecap:square;stroke-width:0.5;"/>
   </g>
   <g id="line2d_75">
    <path clip-path="url(#p3aeb42e077)" d="M 166.99475 253.692535 
L 159.899814 252.866151 
L 152.572244 252.431143 
L 144.923123 252.554707 
L 136.816984 253.553455 
L 128.108667 256.091469 
L 119.100154 261.489671 
L 112.011045 270.70585 
L 109.332367 281.212233 
L 109.869943 290.469403 
L 111.934126 298.42284 
L 114.770607 305.504911 
L 118.067126 312.007902 
L 121.674271 318.102732 
L 125.509628 323.892848 
L 129.522647 329.444627 
L 133.679846 334.803028 
L 137.957755 339.999906 
L 142.339188 345.058679 
L 146.811127 349.997078 
L 151.363438 354.828864 
L 155.988052 359.564936 
L 160.678423 364.214069 
L 165.429161 368.783429 
L 170.235765 373.278939 
L 175.094441 377.705541 
L 180.001955 382.067392 
L 184.955536 386.368014 
L 189.952789 390.610404 
L 194.991639 394.797123 
L 200.070276 398.930365 
" style="fill:none;stroke:#000000;stroke-linecap:square;stroke-width:3;"/>
   </g>
   <g id="line2d_76">
    <path clip-path="url(#p3aeb42e077)" d="M 109.332367 398.930365 
L 109.332367 252.431143 
L 200.070276 252.431143 
L 200.070276 398.930365 
L 109.332367 398.930365 
" style="fill:none;stroke:#d3d3d3;stroke-linecap:square;stroke-width:0.5;"/>
   </g>
   <g id="line2d_77">
    <path clip-path="url(#p3aeb42e077)" d="M 200.070276 398.930365 
L 205.187119 403.012012 
L 210.340787 407.043673 
L 215.530067 411.026728 
L 220.753901 414.962345 
L 226.011362 418.851513 
L 231.301644 422.695056 
L 236.624046 426.493646 
L 241.977968 430.247821 
L 247.362895 433.957991 
L 252.778398 437.624448 
L 258.22412 441.247372 
L 263.699777 444.826833 
L 269.205152 448.3628 
L 274.74009 451.855138 
L 280.304496 455.303611 
L 285.898334 458.707886 
L 291.521624 462.067524 
L 297.17444 465.381988 
L 302.85691 468.650633 
L 308.569216 471.872705 
L 314.31159 475.047338 
L 320.084321 478.173547 
L 325.887748 481.25022 
L 331.722264 484.276113 
L 337.588318 487.24984 
L 343.486412 490.16986 
L 349.417106 493.03447 
L 355.381018 495.841785 
L 361.378825 498.589729 
L 367.411262 501.27601 
" style="fill:none;stroke:#000000;stroke-linecap:square;stroke-width:3;"/>
   </g>
   <g id="line2d_78">
    <path clip-path="url(#p3aeb42e077)" d="M 200.070276 501.27601 
L 200.070276 398.930365 
L 367.411262 398.930365 
L 367.411262 501.27601 
L 200.070276 501.27601 
" style="fill:none;stroke:#d3d3d3;stroke-linecap:square;stroke-width:0.5;"/>
   </g>
   <g id="line2d_79">
    <path clip-path="url(#p3aeb42e077)" d="M 367.411262 501.27601 
L 373.479129 503.898106 
L 379.583284 506.453234 
L 385.724652 508.938332 
L 391.904216 511.350022 
L 398.123023 513.684577 
L 404.382173 515.937882 
L 410.682824 518.10539 
L 417.026174 520.182068 
L 423.413456 522.162341 
L 429.845914 524.040025 
L 436.324786 525.808252 
L 442.851262 527.459389 
L 449.42644 528.984943 
L 456.051264 530.37546 
L 462.726429 531.620419 
L 469.452272 532.708113 
L 476.228616 533.625539 
L 483.054571 534.358292 
L 489.928275 534.890484 
L 496.846572 535.204703 
L 503.804616 535.282046 
L 510.795395 535.10226 
L 517.809198 534.644043 
L 524.833055 533.885556 
L 531.850208 532.805199 
L 538.83973 531.38268 
L 545.776414 529.60036 
L 552.631097 527.444787 
L 559.371534 524.908228 
L 565.963863 521.989962 
" style="fill:none;stroke:#000000;stroke-linecap:square;stroke-width:3;"/>
   </g>
   <g id="line2d_80">
    <path clip-path="url(#p3aeb42e077)" d="M 367.411262 535.282046 
L 367.411262 501.27601 
L 565.963863 501.27601 
L 565.963863 535.282046 
L 367.411262 535.282046 
" style="fill:none;stroke:#d3d3d3;stroke-linecap:square;stroke-width:0.5;"/>
   </g>
   <g id="line2d_81">
    <path clip-path="url(#p3aeb42e077)" d="M 565.963863 521.989962 
" style="fill:none;stroke:#000000;stroke-linecap:square;stroke-width:3;"/>
   </g>
   <g id="line2d_82">
    <path clip-path="url(#p3aeb42e077)" d="M 565.963863 521.989962 
L 565.963863 521.989962 
L 565.963863 521.989962 
L 565.963863 521.989962 
L 565.963863 521.989962 
" style="fill:none;stroke:#d3d3d3;stroke-linecap:square;stroke-width:0.5;"/>
   </g>
   <g id="line2d_83">
    <path clip-path="url(#p3aeb42e077)" d="M 565.963863 521.989962 
L 565.963863 521.989962 
L 565.963863 521.989962 
" style="fill:none;stroke:#000000;stroke-linecap:square;stroke-width:3;"/>
   </g>
   <g id="line2d_84">
    <path clip-path="url(#p3aeb42e077)" d="M 565.963863 521.989962 
L 565.963863 521.989962 
L 565.963863 521.989962 
L 565.963863 521.989962 
L 565.963863 521.989962 
" style="fill:none;stroke:#d3d3d3;stroke-linecap:square;stroke-width:0.5;"/>
   </g>
   <g id="line2d_85">
    <path clip-path="url(#p3aeb42e077)" d="M 565.963863 521.989962 
L 565.963863 521.989962 
L 565.963863 521.989962 
" style="fill:none;stroke:#000000;stroke-linecap:square;stroke-width:3;"/>
   </g>
   <g id="line2d_86">
    <path clip-path="url(#p3aeb42e077)" d="M 565.963863 521.989962 
L 565.963863 521.989962 
L 565.963863 521.989962 
L 565.963863 521.989962 
L 565.963863 521.989962 
" style="fill:none;stroke:#d3d3d3;stroke-linecap:square;stroke-width:0.5;"/>
   </g>
   <g id="line2d_87">
    <path clip-path="url(#p3aeb42e077)" d="M 354.626121 134.700958 
L 357.098289 134.855581 
L 359.529864 135.316909 
L 361.88092 136.077369 
L 364.112853 137.124473 
L 366.189013 138.441028 
L 368.075311 140.005417 
L 369.740774 141.791951 
L 371.158054 143.771296 
L 372.303881 145.910952 
L 373.159439 148.175784 
L 373.710681 150.528606 
L 373.948555 152.930783 
L 373.869155 155.342872 
L 373.473785 157.725266 
L 372.768937 160.038847 
L 371.766184 162.245625 
L 370.481992 164.309366 
L 368.937447 166.196182 
L 367.15791 167.875093 
L 365.172602 169.31853 
L 363.01412 170.502793 
L 360.717908 171.408436 
L 358.32167 172.020587 
L 355.86475 172.329197 
L 353.387492 172.329197 
L 350.930572 172.020587 
L 348.534333 171.408436 
L 346.238121 170.502793 
L 344.07964 169.31853 
L 342.094332 167.875093 
L 340.314795 166.196182 
L 338.77025 164.309366 
L 337.486058 162.245625 
L 336.483305 160.038847 
L 335.778457 157.725266 
L 335.383087 155.342872 
L 335.303687 152.930783 
L 335.54156 150.528606 
L 336.092802 148.175784 
L 336.948361 145.910952 
L 338.094187 143.771296 
L 339.511468 141.791951 
L 341.176931 140.005417 
L 343.063229 138.441028 
L 345.139389 137.124473 
L 347.371321 136.077369 
L 349.722377 135.316909 
L 352.153953 134.855581 
L 354.626121 134.700958 
" style="fill:none;stroke:#808080;stroke-linecap:square;stroke-width:1.5;"/>
   </g>
   <g id="line2d_88">
    <path clip-path="url(#p3aeb42e077)" d="M 165.150861 247.285552 
L 167.623029 247.440174 
L 170.054604 247.901503 
L 172.40566 248.661963 
L 174.637592 249.709067 
L 176.713753 251.025622 
L 178.600051 252.59001 
L 180.265514 254.376544 
L 181.682794 256.355889 
L 182.828621 258.495545 
L 183.684179 260.760378 
L 184.235421 263.113199 
L 184.473295 265.515376 
L 184.393895 267.927465 
L 183.998525 270.309859 
L 183.293676 272.62344 
L 182.290924 274.830218 
L 181.006732 276.893959 
L 179.462186 278.780775 
L 177.68265 280.459686 
L 175.697342 281.903123 
L 173.53886 283.087386 
L 171.242648 283.993029 
L 168.846409 284.605181 
L 166.38949 284.91379 
L 163.912232 284.91379 
L 161.455312 284.605181 
L 159.059073 283.993029 
L 156.762861 283.087386 
L 154.60438 281.903123 
L 152.619072 280.459686 
L 150.839535 278.780775 
L 149.29499 276.893959 
L 148.010798 274.830218 
L 147.008045 272.62344 
L 146.303197 270.309859 
L 145.907827 267.927465 
L 145.828426 265.515376 
L 146.0663 263.113199 
L 146.617542 260.760378 
L 147.4731 258.495545 
L 148.618927 256.355889 
L 150.036208 254.376544 
L 151.70167 252.59001 
L 153.587968 251.025622 
L 155.664129 249.709067 
L 157.896061 248.661963 
L 160.247117 247.901503 
L 162.678692 247.440174 
L 165.150861 247.285552 
" style="fill:none;stroke:#808080;stroke-linecap:square;stroke-width:1.5;"/>
   </g>
   <g id="line2d_89">
    <path clip-path="url(#p3aeb42e077)" d="M 208.283854 370.42124 
L 210.756023 370.575863 
L 213.187598 371.037191 
L 215.538654 371.797651 
L 217.770586 372.844755 
L 219.846747 374.16131 
L 221.733045 375.725698 
L 223.398507 377.512232 
L 224.815788 379.491578 
L 225.961615 381.631233 
L 226.817173 383.896066 
L 227.368415 386.248888 
L 227.606289 388.651065 
L 227.526889 391.063154 
L 227.131518 393.445548 
L 226.42667 395.759128 
L 225.423917 397.965907 
L 224.139725 400.029647 
L 222.59518 401.916464 
L 220.815643 403.595374 
L 218.830335 405.038812 
L 216.671854 406.223075 
L 214.375642 407.128717 
L 211.979403 407.740869 
L 209.522483 408.049479 
L 207.045225 408.049479 
L 204.588306 407.740869 
L 202.192067 407.128717 
L 199.895855 406.223075 
L 197.737374 405.038812 
L 195.752065 403.595374 
L 193.972529 401.916464 
L 192.427983 400.029647 
L 191.143791 397.965907 
L 190.141039 395.759128 
L 189.43619 393.445548 
L 189.04082 391.063154 
L 188.96142 388.651065 
L 189.199294 386.248888 
L 189.750536 383.896066 
L 190.606094 381.631233 
L 191.751921 379.491578 
L 193.169201 377.512232 
L 194.834664 375.725698 
L 196.720962 374.16131 
L 198.797123 372.844755 
L 201.029055 371.797651 
L 203.380111 371.037191 
L 205.811686 370.575863 
L 208.283854 370.42124 
" style="fill:none;stroke:#808080;stroke-linecap:square;stroke-width:1.5;"/>
   </g>
   <g id="line2d_90">
    <path clip-path="url(#p3aeb42e077)" d="M 372.704091 470.994513 
L 375.176259 471.149135 
L 377.607834 471.610464 
L 379.95889 472.370924 
L 382.190822 473.418028 
L 384.266983 474.734583 
L 386.153281 476.298971 
L 387.818744 478.085505 
L 389.236024 480.06485 
L 390.381851 482.204506 
L 391.237409 484.469339 
L 391.788651 486.82216 
L 392.026525 489.224337 
L 391.947125 491.636426 
L 391.551755 494.01882 
L 390.846906 496.332401 
L 389.844154 498.539179 
L 388.559962 500.60292 
L 387.015416 502.489736 
L 385.23588 504.168647 
L 383.250571 505.612084 
L 381.09209 506.796347 
L 378.795878 507.70199 
L 376.399639 508.314142 
L 373.94272 508.622751 
L 371.465462 508.622751 
L 369.008542 508.314142 
L 366.612303 507.70199 
L 364.316091 506.796347 
L 362.15761 505.612084 
L 360.172301 504.168647 
L 358.392765 502.489736 
L 356.84822 500.60292 
L 355.564028 498.539179 
L 354.561275 496.332401 
L 353.856427 494.01882 
L 353.461056 491.636426 
L 353.381656 489.224337 
L 353.61953 486.82216 
L 354.170772 484.469339 
L 355.02633 482.204506 
L 356.172157 480.06485 
L 357.589438 478.085505 
L 359.2549 476.298971 
L 361.141198 474.734583 
L 363.217359 473.418028 
L 365.449291 472.370924 
L 367.800347 471.610464 
L 370.231922 471.149135 
L 372.704091 470.994513 
" style="fill:none;stroke:#808080;stroke-linecap:square;stroke-width:1.5;"/>
   </g>
   <g id="line2d_91">
    <path clip-path="url(#p3aeb42e077)" d="M 560.290919 491.882564 
L 562.763087 492.037187 
L 565.194662 492.498515 
L 567.545718 493.258975 
L 569.777651 494.306079 
L 571.853811 495.622634 
L 573.740109 497.187022 
L 575.405572 498.973557 
L 576.822852 500.952902 
L 577.968679 503.092557 
L 578.824237 505.35739 
L 579.375479 507.710212 
L 579.613353 510.112389 
L 579.533953 512.524478 
L 579.138583 514.906872 
L 578.433735 517.220453 
L 577.430982 519.427231 
L 576.14679 521.490971 
L 574.602245 523.377788 
L 572.822708 525.056699 
L 570.8374 526.500136 
L 568.678918 527.684399 
L 566.382706 528.590041 
L 563.986468 529.202193 
L 561.529548 529.510803 
L 559.05229 529.510803 
L 556.59537 529.202193 
L 554.199131 528.590041 
L 551.902919 527.684399 
L 549.744438 526.500136 
L 547.75913 525.056699 
L 545.979593 523.377788 
L 544.435048 521.490971 
L 543.150856 519.427231 
L 542.148103 517.220453 
L 541.443255 514.906872 
L 541.047885 512.524478 
L 540.968485 510.112389 
L 541.206358 507.710212 
L 541.7576 505.35739 
L 542.613159 503.092557 
L 543.758985 500.952902 
L 545.176266 498.973557 
L 546.841729 497.187022 
L 548.728027 495.622634 
L 550.804187 494.306079 
L 553.036119 493.258975 
L 555.387175 492.498515 
L 557.818751 492.037187 
L 560.290919 491.882564 
" style="fill:none;stroke:#808080;stroke-linecap:square;stroke-width:1.5;"/>
   </g>
   <g id="line2d_92">
    <path clip-path="url(#p3aeb42e077)" d="M 560.290919 491.882564 
L 562.763087 492.037187 
L 565.194662 492.498515 
L 567.545718 493.258975 
L 569.777651 494.306079 
L 571.853811 495.622634 
L 573.740109 497.187022 
L 575.405572 498.973557 
L 576.822852 500.952902 
L 577.968679 503.092557 
L 578.824237 505.35739 
L 579.375479 507.710212 
L 579.613353 510.112389 
L 579.533953 512.524478 
L 579.138583 514.906872 
L 578.433735 517.220453 
L 577.430982 519.427231 
L 576.14679 521.490971 
L 574.602245 523.377788 
L 572.822708 525.056699 
L 570.8374 526.500136 
L 568.678918 527.684399 
L 566.382706 528.590041 
L 563.986468 529.202193 
L 561.529548 529.510803 
L 559.05229 529.510803 
L 556.59537 529.202193 
L 554.199131 528.590041 
L 551.902919 527.684399 
L 549.744438 526.500136 
L 547.75913 525.056699 
L 545.979593 523.377788 
L 544.435048 521.490971 
L 543.150856 519.427231 
L 542.148103 517.220453 
L 541.443255 514.906872 
L 541.047885 512.524478 
L 540.968485 510.112389 
L 541.206358 507.710212 
L 541.7576 505.35739 
L 542.613159 503.092557 
L 543.758985 500.952902 
L 545.176266 498.973557 
L 546.841729 497.187022 
L 548.728027 495.622634 
L 550.804187 494.306079 
L 553.036119 493.258975 
L 555.387175 492.498515 
L 557.818751 492.037187 
L 560.290919 491.882564 
" style="fill:none;stroke:#808080;stroke-linecap:square;stroke-width:1.5;"/>
   </g>
   <g id="line2d_93">
    <path clip-path="url(#p3aeb42e077)" d="M 591.514985 288.722343 
L 593.987153 288.876965 
L 596.418728 289.338294 
L 598.769784 290.098754 
L 601.001716 291.145858 
L 603.077877 292.462413 
L 604.964175 294.026801 
L 606.629638 295.813335 
L 608.046918 297.792681 
L 609.192745 299.932336 
L 610.048303 302.197169 
L 610.599545 304.549991 
L 610.837419 306.952168 
L 610.758019 309.364257 
L 610.362649 311.746651 
L 609.6578 314.060231 
L 608.655048 316.26701 
L 607.370855 318.33075 
L 605.82631 320.217567 
L 604.046774 321.896477 
L 602.061465 323.339915 
L 599.902984 324.524177 
L 597.606772 325.42982 
L 595.210533 326.041972 
L 592.753614 326.350582 
L 590.276356 326.350582 
L 587.819436 326.041972 
L 585.423197 325.42982 
L 583.126985 324.524177 
L 580.968504 323.339915 
L 578.983195 321.896477 
L 577.203659 320.217567 
L 575.659114 318.33075 
L 574.374921 316.26701 
L 573.372169 314.060231 
L 572.66732 311.746651 
L 572.27195 309.364257 
L 572.19255 306.952168 
L 572.430424 304.549991 
L 572.981666 302.197169 
L 573.837224 299.932336 
L 574.983051 297.792681 
L 576.400332 295.813335 
L 578.065794 294.026801 
L 579.952092 292.462413 
L 582.028253 291.145858 
L 584.260185 290.098754 
L 586.611241 289.338294 
L 589.042816 288.876965 
L 591.514985 288.722343 
" style="fill:none;stroke:#808080;stroke-linecap:square;stroke-width:1.5;"/>
   </g>
   <g id="line2d_94">
    <path clip-path="url(#p3aeb42e077)" d="M 470.103825 114.186703 
L 472.575993 114.341325 
L 475.007568 114.802654 
L 477.358624 115.563113 
L 479.590556 116.610218 
L 481.666717 117.926773 
L 483.553015 119.491161 
L 485.218478 121.277695 
L 486.635758 123.25704 
L 487.781585 125.396696 
L 488.637143 127.661529 
L 489.188385 130.01435 
L 489.426259 132.416527 
L 489.346859 134.828616 
L 488.951489 137.21101 
L 488.246641 139.524591 
L 487.243888 141.731369 
L 485.959696 143.79511 
L 484.415151 145.681926 
L 482.635614 147.360837 
L 480.650306 148.804274 
L 478.491824 149.988537 
L 476.195612 150.89418 
L 473.799373 151.506332 
L 471.342454 151.814941 
L 468.865196 151.814941 
L 466.408276 151.506332 
L 464.012037 150.89418 
L 461.715825 149.988537 
L 459.557344 148.804274 
L 457.572036 147.360837 
L 455.792499 145.681926 
L 454.247954 143.79511 
L 452.963762 141.731369 
L 451.961009 139.524591 
L 451.256161 137.21101 
L 450.860791 134.828616 
L 450.781391 132.416527 
L 451.019264 130.01435 
L 451.570506 127.661529 
L 452.426064 125.396696 
L 453.571891 123.25704 
L 454.989172 121.277695 
L 456.654634 119.491161 
L 458.540933 117.926773 
L 460.617093 116.610218 
L 462.849025 115.563113 
L 465.200081 114.802654 
L 467.631657 114.341325 
L 470.103825 114.186703 
" style="fill:none;stroke:#808080;stroke-linecap:square;stroke-width:1.5;"/>
   </g>
   <g id="line2d_95">
    <path clip-path="url(#p3aeb42e077)" d="M 470.103825 114.186703 
L 472.575993 114.341325 
L 475.007568 114.802654 
L 477.358624 115.563113 
L 479.590556 116.610218 
L 481.666717 117.926773 
L 483.553015 119.491161 
L 485.218478 121.277695 
L 486.635758 123.25704 
L 487.781585 125.396696 
L 488.637143 127.661529 
L 489.188385 130.01435 
L 489.426259 132.416527 
L 489.346859 134.828616 
L 488.951489 137.21101 
L 488.246641 139.524591 
L 487.243888 141.731369 
L 485.959696 143.79511 
L 484.415151 145.681926 
L 482.635614 147.360837 
L 480.650306 148.804274 
L 478.491824 149.988537 
L 476.195612 150.89418 
L 473.799373 151.506332 
L 471.342454 151.814941 
L 468.865196 151.814941 
L 466.408276 151.506332 
L 464.012037 150.89418 
L 461.715825 149.988537 
L 459.557344 148.804274 
L 457.572036 147.360837 
L 455.792499 145.681926 
L 454.247954 143.79511 
L 452.963762 141.731369 
L 451.961009 139.524591 
L 451.256161 137.21101 
L 450.860791 134.828616 
L 450.781391 132.416527 
L 451.019264 130.01435 
L 451.570506 127.661529 
L 452.426064 125.396696 
L 453.571891 123.25704 
L 454.989172 121.277695 
L 456.654634 119.491161 
L 458.540933 117.926773 
L 460.617093 116.610218 
L 462.849025 115.563113 
L 465.200081 114.802654 
L 467.631657 114.341325 
L 470.103825 114.186703 
" style="fill:none;stroke:#808080;stroke-linecap:square;stroke-width:1.5;"/>
   </g>
   <g id="line2d_96"/>
   <g id="line2d_97"/>
   <g id="line2d_98"/>
   <g id="line2d_99"/>
   <g id="line2d_100"/>
   <g id="line2d_101"/>
   <g id="line2d_102"/>
   <g id="line2d_103"/>
   <g id="line2d_104"/>
   <g id="line2d_105"/>
   <g id="line2d_106"/>
   <g id="line2d_107"/>
   <g id="line2d_108"/>
   <g id="line2d_109"/>
   <g id="line2d_110"/>
   <g id="line2d_111"/>
   <g id="line2d_112"/>
   <g id="line2d_113"/>
   <g id="line2d_114"/>
   <g id="line2d_115"/>
   <g id="line2d_116"/>
   <g id="line2d_117"/>
   <g id="line2d_118"/>
   <g id="line2d_119"/>
   <g id="line2d_120"/>
   <g id="line2d_121"/>
   <g id="line2d_122"/>
   <g id="line2d_123"/>
   <g id="line2d_124"/>
   <g id="line2d_125"/>
   <g id="line2d_126"/>
   <g id="line2d_127"/>
   <g id="line2d_128"/>
   <g id="line2d_129"/>
   <g id="line2d_130"/>
   <g id="line2d_131"/>
   <g id="line2d_132"/>
   <g id="line2d_133"/>
   <g id="line2d_134"/>
   <g id="line2d_135"/>
   <g id="line2d_136"/>
   <g id="line2d_137"/>
   <g id="line2d_138"/>
   <g id="line2d_139"/>
   <g id="line2d_140"/>
   <g id="line2d_141"/>
   <g id="line2d_142"/>
   <g id="line2d_143"/>
   <g id="line2d_144"/>
   <g id="line2d_145"/>
   <g id="line2d_146"/>
   <g id="patch_3">
    <path d="M 90 630 
L 90 86.4 
" style="fill:none;stroke:#000000;stroke-linecap:square;stroke-linejoin:miter;stroke-width:0.8;"/>
   </g>
   <g id="patch_4">
    <path d="M 648 630 
L 648 86.4 
" style="fill:none;stroke:#000000;stroke-linecap:square;stroke-linejoin:miter;stroke-width:0.8;"/>
   </g>
   <g id="patch_5">
    <path d="M 90 630 
L 648 630 
" style="fill:none;stroke:#000000;stroke-linecap:square;stroke-linejoin:miter;stroke-width:0.8;"/>
   </g>
   <g id="patch_6">
    <path d="M 90 86.4 
L 648 86.4 
" style="fill:none;stroke:#000000;stroke-linecap:square;stroke-linejoin:miter;stroke-width:0.8;"/>
   </g>
   <g id="text_17">
    <!-- 0 -->
    <g transform="translate(82.537815 386.156719)scale(0.1 -0.1)">
     <use xlink:href="#DejaVuSans-30"/>
    </g>
   </g>
   <g id="text_18">
    <!-- 0 -->
    <g transform="translate(82.537815 367.323252)scale(0.1 -0.1)">
     <use xlink:href="#DejaVuSans-30"/>
    </g>
   </g>
   <g id="text_19">
    <!-- 0 -->
    <g transform="translate(82.537815 348.489785)scale(0.1 -0.1)">
     <use xlink:href="#DejaVuSans-30"/>
    </g>
   </g>
  </g>
 </g>
 <defs>
  <clipPath id="p3aeb42e077">
   <rect height="543.6" width="558" x="90" y="86.4"/>
  </clipPath>
 </defs>
</svg>
