<?xml version="1.0" encoding="utf-8" standalone="no"?>
<!DOCTYPE svg PUBLIC "-//W3C//DTD SVG 1.1//EN"
  "http://www.w3.org/Graphics/SVG/1.1/DTD/svg11.dtd">
<svg height="720pt" version="1.1" viewBox="0 0 720 720" width="720pt" xmlns="http://www.w3.org/2000/svg" xmlns:xlink="http://www.w3.org/1999/xlink">
 <metadata>
  <rdf:RDF xmlns:cc="http://creativecommons.org/ns#" xmlns:dc="http://purl.org/dc/elements/1.1/" xmlns:rdf="http://www.w3.org/1999/02/22-rdf-syntax-ns#">
   <cc:Work>
    <dc:type rdf:resource="http://purl.org/dc/dcmitype/StillImage"/>
    <dc:date>2022-01-11T13:25:58.954308</dc:date>
    <dc:format>image/svg+xml</dc:format>
    <dc:creator>
     <cc:Agent>
      <dc:title>Matplotlib v3.4.3, https://matplotlib.org/</dc:title>
     </cc:Agent>
    </dc:creator>
   </cc:Work>
  </rdf:RDF>
 </metadata>
 <defs>
  <style type="text/css">*{stroke-linecap:butt;stroke-linejoin:round;}</style>
 </defs>
 <g id="figure_1">
  <g id="patch_1">
   <path d="M 0 720 
L 720 720 
L 720 0 
L 0 0 
z
" style="fill:none;"/>
  </g>
  <g id="axes_1">
   <g id="patch_2">
    <path d="M 90 630 
L 648 630 
L 648 86.4 
L 90 86.4 
z
" style="fill:#ffffff;"/>
   </g>
   <g id="PathCollection_1">
    <defs>
     <path d="M 0.972304 -8.870829 
Q -1.277159 -8.870829 -2.413438 -6.653699 
Q -3.545098 -4.441189 -3.545098 0.006929 
Q -3.545098 4.436569 -2.413438 6.653699 
Q -1.277159 8.870829 0.972304 8.870829 
Q 3.240243 8.870829 4.371903 6.653699 
Q 5.508182 4.436569 5.508182 0.006929 
Q 5.508182 -4.441189 4.371903 -6.653699 
Q 3.240243 -8.870829 0.972304 -8.870829 
z
M 0.972304 -11.18034 
Q 4.598235 -11.18034 6.51051 -8.311928 
Q 8.422784 -5.448135 8.422784 0.006929 
Q 8.422784 5.448135 6.51051 8.316547 
Q 4.598235 11.18034 0.972304 11.18034 
Q -2.649008 11.18034 -4.561283 8.316547 
Q -6.473558 5.448135 -6.473558 0.006929 
Q -6.473558 -5.448135 -4.561283 -8.311928 
Q -2.649008 -11.18034 0.972304 -11.18034 
z
" id="m1c487e1c82" style="stroke:#808080;"/>
    </defs>
    <g clip-path="url(#pe359f1ce5a)">
     <use style="fill:#808080;stroke:#808080;" x="332.296214" xlink:href="#m1c487e1c82" y="251.705221"/>
    </g>
   </g>
   <g id="PathCollection_2">
    <defs>
     <path d="M -4.535873 8.63565 
L 0.404946 8.63565 
L 0.404946 -8.424791 
L -4.971969 -7.346533 
L -4.971969 -10.102082 
L 0.376192 -11.18034 
L 3.400108 -11.18034 
L 3.400108 8.63565 
L 8.340927 8.63565 
L 8.340927 11.18034 
L -4.535873 11.18034 
L -4.535873 8.63565 
z
" id="m657bf48ee6" style="stroke:#808080;"/>
    </defs>
    <g clip-path="url(#pe359f1ce5a)">
     <use style="fill:#808080;stroke:#808080;" x="340.352491" xlink:href="#m657bf48ee6" y="379.740055"/>
    </g>
   </g>
   <g id="PathCollection_3">
    <defs>
     <path d="M -2.294912 8.680651 
L 8.075736 8.680651 
L 8.075736 11.18034 
L -5.867913 11.18034 
L -5.867913 8.680651 
Q -4.177916 6.929457 -1.259259 3.982555 
Q 1.664105 1.030945 2.4126 0.174178 
Q 3.838976 -1.426376 4.403877 -2.537349 
Q 4.973486 -3.648321 4.973486 -4.721634 
Q 4.973486 -6.472828 3.744825 -7.574386 
Q 2.516165 -8.680651 0.543718 -8.680651 
Q -0.854413 -8.680651 -2.407892 -8.195778 
Q -3.956663 -7.710904 -5.72198 -6.722326 
L -5.72198 -9.725719 
Q -3.928418 -10.445968 -2.370232 -10.813154 
Q -0.807338 -11.18034 0.487227 -11.18034 
Q 3.900173 -11.18034 5.929111 -9.471513 
Q 7.958048 -7.767394 7.958048 -4.914642 
Q 7.958048 -3.558879 7.449637 -2.344341 
Q 6.945933 -1.13451 5.604292 0.513119 
Q 5.237107 0.941502 3.264659 2.979855 
Q 1.296919 5.018207 -2.294912 8.680651 
z
" id="ma2c6f32081" style="stroke:#808080;"/>
    </defs>
    <g clip-path="url(#pe359f1ce5a)">
     <use style="fill:#808080;stroke:#808080;" x="340.105823" xlink:href="#ma2c6f32081" y="606.599747"/>
    </g>
   </g>
   <g id="PathCollection_4">
    <defs>
     <path d="M 3.77605 -0.861447 
Q 5.868466 -0.413402 7.041697 1.004637 
Q 8.219548 2.418057 8.219548 4.496617 
Q 8.219548 7.683741 6.025513 9.43435 
Q 3.831478 11.18034 -0.210165 11.18034 
Q -1.563539 11.18034 -3.000054 10.912437 
Q -4.436569 10.644533 -5.965465 10.108727 
L -5.965465 7.295743 
Q -4.755282 8.002454 -3.314147 8.362737 
Q -1.868394 8.723021 -0.293308 8.723021 
Q 2.445772 8.723021 3.882287 7.64217 
Q 5.318802 6.561319 5.318802 4.496617 
Q 5.318802 2.588961 3.983905 1.517348 
Q 2.649008 0.441116 0.270213 0.441116 
L -2.242535 0.441116 
L -2.242535 -1.956155 
L 0.385688 -1.956155 
Q 2.533533 -1.956155 3.674431 -2.815293 
Q 4.815329 -3.674431 4.815329 -5.291088 
Q 4.815329 -6.949317 3.637479 -7.836169 
Q 2.464248 -8.72764 0.270213 -8.72764 
Q -0.930733 -8.72764 -2.302582 -8.464356 
Q -3.674431 -8.20569 -5.318802 -7.660646 
L -5.318802 -10.256536 
Q -3.655955 -10.718438 -2.205582 -10.949389 
Q -0.75521 -11.18034 0.528878 -11.18034 
Q 3.849954 -11.18034 5.780705 -9.66992 
Q 7.716074 -8.164119 7.716074 -5.595944 
Q 7.716074 -3.803764 6.690652 -2.570485 
Q 5.665229 -1.337207 3.77605 -0.861447 
z
" id="md569818268" style="stroke:#808080;"/>
    </defs>
    <g clip-path="url(#pe359f1ce5a)">
     <use style="fill:#808080;stroke:#808080;" x="491.514891" xlink:href="#md569818268" y="530.536004"/>
    </g>
   </g>
   <g id="PathCollection_5">
    <defs>
     <path d="M 2.695646 -8.544598 
L -4.943215 3.392919 
L 2.695646 3.392919 
L 2.695646 -8.544598 
z
M 1.900131 -11.18034 
L 5.705184 -11.18034 
L 5.705184 3.392919 
L 8.896829 3.392919 
L 8.896829 5.908855 
L 5.705184 5.908855 
L 5.705184 11.18034 
L 2.695646 11.18034 
L 2.695646 5.908855 
L -7.396852 5.908855 
L -7.396852 2.99037 
L 1.900131 -11.18034 
z
" id="m9997bd7a86" style="stroke:#808080;"/>
    </defs>
    <g clip-path="url(#pe359f1ce5a)">
     <use style="fill:#808080;stroke:#808080;" x="610.454225" xlink:href="#m9997bd7a86" y="414.147172"/>
    </g>
   </g>
   <g id="PathCollection_6">
    <defs>
     <path d="M -5.008473 -11.18034 
L 6.639575 -11.18034 
L 6.639575 -8.679629 
L -2.291535 -8.679629 
L -2.291535 -3.306861 
Q -1.647555 -3.527789 -1.003575 -3.635902 
Q -0.354894 -3.744015 0.293787 -3.744015 
Q 3.964943 -3.744015 6.108409 -1.732165 
Q 8.256576 0.279685 8.256576 3.715812 
Q 8.256576 7.255352 6.052002 9.220196 
Q 3.847428 11.18034 -0.16217 11.18034 
Q -1.544142 11.18034 -2.97782 10.945311 
Q -4.406798 10.710281 -5.934488 10.240223 
L -5.934488 7.255352 
Q -4.613624 7.974541 -3.203448 8.327085 
Q -1.793273 8.679629 -0.223278 8.679629 
Q 2.319738 8.679629 3.800422 7.344663 
Q 5.285807 6.009697 5.285807 3.715812 
Q 5.285807 1.426627 3.800422 0.091661 
Q 2.319738 -1.248005 -0.223278 -1.248005 
Q -1.412526 -1.248005 -2.597073 -0.984772 
Q -3.77692 -0.72154 -5.008473 -0.16217 
L -5.008473 -11.18034 
z
" id="mc7f87c5ed0" style="stroke:#808080;"/>
    </defs>
    <g clip-path="url(#pe359f1ce5a)">
     <use style="fill:#808080;stroke:#808080;" x="496.494321" xlink:href="#mc7f87c5ed0" y="254.089866"/>
    </g>
   </g>
   <g id="PathCollection_7">
    <defs>
     <path d="M 1.286397 -1.175541 
Q -0.676687 -1.175541 -1.826823 0.168594 
Q -2.97234 1.50811 -2.97234 3.845335 
Q -2.97234 6.168702 -1.826823 7.522075 
Q -0.676687 8.870829 1.286397 8.870829 
Q 3.249481 8.870829 4.394998 7.522075 
Q 5.540515 6.168702 5.540515 3.845335 
Q 5.540515 1.50811 4.394998 0.168594 
Q 3.249481 -1.175541 1.286397 -1.175541 
z
M 7.07403 -10.316583 
L 7.07403 -7.660646 
Q 5.974703 -8.177976 4.8569 -8.450499 
Q 3.739097 -8.72764 2.63977 -8.72764 
Q -0.247118 -8.72764 -1.771394 -6.778413 
Q -3.291052 -4.829186 -3.508146 -0.889162 
Q -2.658246 -2.145535 -1.374159 -2.815293 
Q -0.085452 -3.485051 1.457301 -3.485051 
Q 4.704473 -3.485051 6.589033 -1.512729 
Q 8.473594 0.454974 8.473594 3.845335 
Q 8.473594 7.166411 6.51051 9.175685 
Q 4.547426 11.18034 1.286397 11.18034 
Q -2.45501 11.18034 -4.43195 8.316547 
Q -6.408891 5.448135 -6.408891 0.006929 
Q -6.408891 -5.101708 -3.983905 -8.141024 
Q -1.55892 -11.18034 2.524295 -11.18034 
Q 3.623622 -11.18034 4.741425 -10.963246 
Q 5.859228 -10.746152 7.07403 -10.316583 
z
" id="md121822158" style="stroke:#808080;"/>
    </defs>
    <g clip-path="url(#pe359f1ce5a)">
     <use style="fill:#808080;stroke:#808080;" x="345.223909" xlink:href="#md121822158" y="127.890833"/>
    </g>
   </g>
   <g id="PathCollection_8"/>
   <g id="PathCollection_9"/>
   <g id="PathCollection_10"/>
   <g id="PathCollection_11"/>
   <g id="PathCollection_12"/>
   <g id="matplotlib.axis_1">
    <g id="xtick_1">
     <g id="line2d_1">
      <defs>
       <path d="M 0 0 
L 0 3.5 
" id="m94bac9b48a" style="stroke:#000000;stroke-width:0.8;"/>
      </defs>
      <g>
       <use style="stroke:#000000;stroke-width:0.8;" x="98.73035" xlink:href="#m94bac9b48a" y="630"/>
      </g>
     </g>
     <g id="text_1">
      <!-- −300 -->
      <g transform="translate(84.996756 644.598438)scale(0.1 -0.1)">
       <defs>
        <path d="M 678 2272 
L 4684 2272 
L 4684 1741 
L 678 1741 
L 678 2272 
z
" id="DejaVuSans-2212" transform="scale(0.015625)"/>
        <path d="M 2597 2516 
Q 3050 2419 3304 2112 
Q 3559 1806 3559 1356 
Q 3559 666 3084 287 
Q 2609 -91 1734 -91 
Q 1441 -91 1130 -33 
Q 819 25 488 141 
L 488 750 
Q 750 597 1062 519 
Q 1375 441 1716 441 
Q 2309 441 2620 675 
Q 2931 909 2931 1356 
Q 2931 1769 2642 2001 
Q 2353 2234 1838 2234 
L 1294 2234 
L 1294 2753 
L 1863 2753 
Q 2328 2753 2575 2939 
Q 2822 3125 2822 3475 
Q 2822 3834 2567 4026 
Q 2313 4219 1838 4219 
Q 1578 4219 1281 4162 
Q 984 4106 628 3988 
L 628 4550 
Q 988 4650 1302 4700 
Q 1616 4750 1894 4750 
Q 2613 4750 3031 4423 
Q 3450 4097 3450 3541 
Q 3450 3153 3228 2886 
Q 3006 2619 2597 2516 
z
" id="DejaVuSans-33" transform="scale(0.015625)"/>
        <path d="M 2034 4250 
Q 1547 4250 1301 3770 
Q 1056 3291 1056 2328 
Q 1056 1369 1301 889 
Q 1547 409 2034 409 
Q 2525 409 2770 889 
Q 3016 1369 3016 2328 
Q 3016 3291 2770 3770 
Q 2525 4250 2034 4250 
z
M 2034 4750 
Q 2819 4750 3233 4129 
Q 3647 3509 3647 2328 
Q 3647 1150 3233 529 
Q 2819 -91 2034 -91 
Q 1250 -91 836 529 
Q 422 1150 422 2328 
Q 422 3509 836 4129 
Q 1250 4750 2034 4750 
z
" id="DejaVuSans-30" transform="scale(0.015625)"/>
       </defs>
       <use xlink:href="#DejaVuSans-2212"/>
       <use x="83.789062" xlink:href="#DejaVuSans-33"/>
       <use x="147.412109" xlink:href="#DejaVuSans-30"/>
       <use x="211.035156" xlink:href="#DejaVuSans-30"/>
      </g>
     </g>
    </g>
    <g id="xtick_2">
     <g id="line2d_2">
      <g>
       <use style="stroke:#000000;stroke-width:0.8;" x="193.917053" xlink:href="#m94bac9b48a" y="630"/>
      </g>
     </g>
     <g id="text_2">
      <!-- −200 -->
      <g transform="translate(180.183459 644.598438)scale(0.1 -0.1)">
       <defs>
        <path d="M 1228 531 
L 3431 531 
L 3431 0 
L 469 0 
L 469 531 
Q 828 903 1448 1529 
Q 2069 2156 2228 2338 
Q 2531 2678 2651 2914 
Q 2772 3150 2772 3378 
Q 2772 3750 2511 3984 
Q 2250 4219 1831 4219 
Q 1534 4219 1204 4116 
Q 875 4013 500 3803 
L 500 4441 
Q 881 4594 1212 4672 
Q 1544 4750 1819 4750 
Q 2544 4750 2975 4387 
Q 3406 4025 3406 3419 
Q 3406 3131 3298 2873 
Q 3191 2616 2906 2266 
Q 2828 2175 2409 1742 
Q 1991 1309 1228 531 
z
" id="DejaVuSans-32" transform="scale(0.015625)"/>
       </defs>
       <use xlink:href="#DejaVuSans-2212"/>
       <use x="83.789062" xlink:href="#DejaVuSans-32"/>
       <use x="147.412109" xlink:href="#DejaVuSans-30"/>
       <use x="211.035156" xlink:href="#DejaVuSans-30"/>
      </g>
     </g>
    </g>
    <g id="xtick_3">
     <g id="line2d_3">
      <g>
       <use style="stroke:#000000;stroke-width:0.8;" x="289.103756" xlink:href="#m94bac9b48a" y="630"/>
      </g>
     </g>
     <g id="text_3">
      <!-- −100 -->
      <g transform="translate(275.370162 644.598438)scale(0.1 -0.1)">
       <defs>
        <path d="M 794 531 
L 1825 531 
L 1825 4091 
L 703 3866 
L 703 4441 
L 1819 4666 
L 2450 4666 
L 2450 531 
L 3481 531 
L 3481 0 
L 794 0 
L 794 531 
z
" id="DejaVuSans-31" transform="scale(0.015625)"/>
       </defs>
       <use xlink:href="#DejaVuSans-2212"/>
       <use x="83.789062" xlink:href="#DejaVuSans-31"/>
       <use x="147.412109" xlink:href="#DejaVuSans-30"/>
       <use x="211.035156" xlink:href="#DejaVuSans-30"/>
      </g>
     </g>
    </g>
    <g id="xtick_4">
     <g id="line2d_4">
      <g>
       <use style="stroke:#000000;stroke-width:0.8;" x="384.290459" xlink:href="#m94bac9b48a" y="630"/>
      </g>
     </g>
     <g id="text_4">
      <!-- 0 -->
      <g transform="translate(381.109209 644.598438)scale(0.1 -0.1)">
       <use xlink:href="#DejaVuSans-30"/>
      </g>
     </g>
    </g>
    <g id="xtick_5">
     <g id="line2d_5">
      <g>
       <use style="stroke:#000000;stroke-width:0.8;" x="479.477162" xlink:href="#m94bac9b48a" y="630"/>
      </g>
     </g>
     <g id="text_5">
      <!-- 100 -->
      <g transform="translate(469.933412 644.598438)scale(0.1 -0.1)">
       <use xlink:href="#DejaVuSans-31"/>
       <use x="63.623047" xlink:href="#DejaVuSans-30"/>
       <use x="127.246094" xlink:href="#DejaVuSans-30"/>
      </g>
     </g>
    </g>
    <g id="xtick_6">
     <g id="line2d_6">
      <g>
       <use style="stroke:#000000;stroke-width:0.8;" x="574.663865" xlink:href="#m94bac9b48a" y="630"/>
      </g>
     </g>
     <g id="text_6">
      <!-- 200 -->
      <g transform="translate(565.120115 644.598438)scale(0.1 -0.1)">
       <use xlink:href="#DejaVuSans-32"/>
       <use x="63.623047" xlink:href="#DejaVuSans-30"/>
       <use x="127.246094" xlink:href="#DejaVuSans-30"/>
      </g>
     </g>
    </g>
   </g>
   <g id="matplotlib.axis_2">
    <g id="ytick_1">
     <g id="line2d_7">
      <defs>
       <path d="M 0 0 
L -3.5 0 
" id="m9651cebf91" style="stroke:#000000;stroke-width:0.8;"/>
      </defs>
      <g>
       <use style="stroke:#000000;stroke-width:0.8;" x="90" xlink:href="#m9651cebf91" y="621.494949"/>
      </g>
     </g>
     <g id="text_7">
      <!-- −300 -->
      <g transform="translate(55.532812 625.294168)scale(0.1 -0.1)">
       <use xlink:href="#DejaVuSans-2212"/>
       <use x="83.789062" xlink:href="#DejaVuSans-33"/>
       <use x="147.412109" xlink:href="#DejaVuSans-30"/>
       <use x="211.035156" xlink:href="#DejaVuSans-30"/>
      </g>
     </g>
    </g>
    <g id="ytick_2">
     <g id="line2d_8">
      <g>
       <use style="stroke:#000000;stroke-width:0.8;" x="90" xlink:href="#m9651cebf91" y="528.764677"/>
      </g>
     </g>
     <g id="text_8">
      <!-- −200 -->
      <g transform="translate(55.532812 532.563896)scale(0.1 -0.1)">
       <use xlink:href="#DejaVuSans-2212"/>
       <use x="83.789062" xlink:href="#DejaVuSans-32"/>
       <use x="147.412109" xlink:href="#DejaVuSans-30"/>
       <use x="211.035156" xlink:href="#DejaVuSans-30"/>
      </g>
     </g>
    </g>
    <g id="ytick_3">
     <g id="line2d_9">
      <g>
       <use style="stroke:#000000;stroke-width:0.8;" x="90" xlink:href="#m9651cebf91" y="436.034405"/>
      </g>
     </g>
     <g id="text_9">
      <!-- −100 -->
      <g transform="translate(55.532812 439.833624)scale(0.1 -0.1)">
       <use xlink:href="#DejaVuSans-2212"/>
       <use x="83.789062" xlink:href="#DejaVuSans-31"/>
       <use x="147.412109" xlink:href="#DejaVuSans-30"/>
       <use x="211.035156" xlink:href="#DejaVuSans-30"/>
      </g>
     </g>
    </g>
    <g id="ytick_4">
     <g id="line2d_10">
      <g>
       <use style="stroke:#000000;stroke-width:0.8;" x="90" xlink:href="#m9651cebf91" y="343.304133"/>
      </g>
     </g>
     <g id="text_10">
      <!-- 0 -->
      <g transform="translate(76.6375 347.103352)scale(0.1 -0.1)">
       <use xlink:href="#DejaVuSans-30"/>
      </g>
     </g>
    </g>
    <g id="ytick_5">
     <g id="line2d_11">
      <g>
       <use style="stroke:#000000;stroke-width:0.8;" x="90" xlink:href="#m9651cebf91" y="250.573861"/>
      </g>
     </g>
     <g id="text_11">
      <!-- 100 -->
      <g transform="translate(63.9125 254.37308)scale(0.1 -0.1)">
       <use xlink:href="#DejaVuSans-31"/>
       <use x="63.623047" xlink:href="#DejaVuSans-30"/>
       <use x="127.246094" xlink:href="#DejaVuSans-30"/>
      </g>
     </g>
    </g>
    <g id="ytick_6">
     <g id="line2d_12">
      <g>
       <use style="stroke:#000000;stroke-width:0.8;" x="90" xlink:href="#m9651cebf91" y="157.843589"/>
      </g>
     </g>
     <g id="text_12">
      <!-- 200 -->
      <g transform="translate(63.9125 161.642808)scale(0.1 -0.1)">
       <use xlink:href="#DejaVuSans-32"/>
       <use x="63.623047" xlink:href="#DejaVuSans-30"/>
       <use x="127.246094" xlink:href="#DejaVuSans-30"/>
      </g>
     </g>
    </g>
   </g>
   <g id="line2d_13">
    <path clip-path="url(#pe359f1ce5a)" d="M 345.223909 127.890833 
L 340.425126 127.611659 
L 335.843177 128.992615 
L 332.084435 131.904932 
L 329.28676 135.721637 
L 327.245728 139.977757 
L 325.750858 144.449242 
L 324.656323 149.031975 
L 323.865726 153.674196 
L 323.313838 158.348359 
L 322.954938 163.039039 
L 322.755859 167.737292 
L 322.691804 172.437812 
L 322.743738 177.137416 
L 322.896706 181.834191 
L 323.138717 186.526996 
L 323.459979 191.21517 
L 323.852362 195.898349 
L 324.309012 200.576353 
L 324.824068 205.249117 
L 325.392452 209.916651 
L 326.009702 214.579008 
L 326.671853 219.23627 
L 327.375333 223.888543 
L 328.116886 228.535945 
L 328.893502 233.178612 
L 329.702366 237.816695 
L 330.540809 242.450361 
L 331.40626 247.079798 
L 332.296214 251.705221 
" style="fill:none;stroke:#808080;stroke-linecap:square;stroke-width:1.5;"/>
   </g>
   <g id="line2d_14">
    <path clip-path="url(#pe359f1ce5a)" d="M 322.691804 251.705221 
L 322.691804 127.611659 
L 345.223909 127.611659 
L 345.223909 251.705221 
L 322.691804 251.705221 
" style="fill:none;stroke:#d3d3d3;stroke-linecap:square;stroke-width:0.5;"/>
   </g>
   <g id="line2d_15">
    <path clip-path="url(#pe359f1ce5a)" d="M 332.296214 251.705221 
L 333.208186 256.326871 
L 334.139679 260.945025 
L 335.088142 265.559999 
L 336.050929 270.172159 
L 337.02525 274.781922 
L 338.008123 279.389771 
L 338.996306 283.996262 
L 339.986228 288.602037 
L 340.973898 293.207832 
L 341.954791 297.814497 
L 342.923712 302.423005 
L 343.874614 307.034472 
L 344.800375 311.650161 
L 345.692493 316.271494 
L 346.540696 320.900043 
L 347.332413 325.537491 
L 348.052075 330.18555 
L 348.680164 334.845769 
L 349.191942 339.519177 
L 349.555778 344.205579 
L 349.73104 348.902278 
L 349.665737 353.601784 
L 349.294648 358.287955 
L 348.539924 362.930212 
L 347.318083 367.476872 
L 345.557837 371.852305 
L 343.227006 375.966452 
L 340.352491 379.740055 
" style="fill:none;stroke:#808080;stroke-linecap:square;stroke-width:1.5;"/>
   </g>
   <g id="line2d_16">
    <path clip-path="url(#pe359f1ce5a)" d="M 332.296214 379.740055 
L 332.296214 251.705221 
L 349.73104 251.705221 
L 349.73104 379.740055 
L 332.296214 379.740055 
" style="fill:none;stroke:#d3d3d3;stroke-linecap:square;stroke-width:0.5;"/>
   </g>
   <g id="line2d_17">
    <path clip-path="url(#pe359f1ce5a)" d="M 340.352491 379.740055 
L 337.419292 383.516001 
L 334.750596 387.474008 
L 332.244243 391.530063 
L 329.858707 395.653726 
L 327.571771 399.829915 
L 325.369835 404.049824 
L 323.243911 408.307722 
L 321.187779 412.59956 
L 319.19702 416.922291 
L 317.268453 421.273505 
L 315.399797 425.65121 
L 313.589446 430.053717 
L 311.836324 434.479549 
L 310.139775 438.927399 
L 308.499499 443.396088 
L 306.915497 447.884549 
L 305.388037 452.391803 
L 303.91763 456.916953 
L 302.505019 461.459172 
L 301.151164 466.017697 
L 299.857252 470.59182 
L 298.624692 475.180883 
L 297.455131 479.784273 
L 296.350468 484.40141 
L 295.312878 489.031745 
L 294.344835 493.674741 
L 293.449148 498.329867 
L 292.629007 502.996577 
L 291.888029 507.674292 
L 291.230321 512.362369 
L 290.660557 517.060069 
L 290.184066 521.766512 
L 289.806941 526.480616 
L 289.53617 531.201017 
L 289.379797 535.925969 
L 289.347111 540.653203 
L 289.448881 545.379739 
L 289.697632 550.101628 
L 290.107977 554.81361 
L 290.697002 559.508626 
L 291.484691 564.177155 
L 292.494375 568.806301 
L 293.753109 573.378528 
L 295.291833 577.869979 
L 297.144991 582.248301 
L 299.349062 586.47011 
L 301.939187 590.478598 
L 304.943016 594.202598 
L 308.371631 597.559439 
L 312.209706 600.464111 
L 316.4101 602.844773 
L 320.898412 604.659099 
L 325.587377 605.902676 
L 330.393748 606.60505 
L 335.249619 606.817466 
L 340.105823 606.599747 
" style="fill:none;stroke:#808080;stroke-linecap:square;stroke-width:1.5;"/>
   </g>
   <g id="line2d_18">
    <path clip-path="url(#pe359f1ce5a)" d="M 289.347111 606.817466 
L 289.347111 379.740055 
L 340.352491 379.740055 
L 340.352491 606.817466 
L 289.347111 606.817466 
" style="fill:none;stroke:#d3d3d3;stroke-linecap:square;stroke-width:0.5;"/>
   </g>
   <g id="line2d_19">
    <path clip-path="url(#pe359f1ce5a)" d="M 340.105823 606.599747 
L 344.937222 606.150216 
L 349.760298 605.622812 
L 354.573143 605.013493 
L 359.373789 604.318169 
L 364.160138 603.532739 
L 368.929889 602.653153 
L 373.680488 601.67548 
L 378.409094 600.596002 
L 383.112569 599.411298 
L 387.787494 598.118351 
L 392.430211 596.714647 
L 397.036893 595.198264 
L 401.603629 593.567958 
L 406.126535 591.823217 
L 410.601863 589.964301 
L 415.026119 587.992249 
L 419.396164 585.908858 
L 423.709304 583.716639 
L 427.963358 581.418745 
L 432.1567 579.018883 
L 436.288282 576.521221 
L 440.357624 573.930282 
L 444.364796 571.25084 
L 448.310374 568.487828 
L 452.195388 565.646247 
L 456.021271 562.731095 
L 459.789791 559.747296 
L 463.502995 556.699659 
L 467.163154 553.592832 
L 470.772705 550.431276 
L 474.334212 547.21925 
L 477.850321 543.960796 
L 481.323726 540.65974 
L 484.757147 537.319691 
L 488.153301 533.944046 
L 491.514891 530.536004 
" style="fill:none;stroke:#808080;stroke-linecap:square;stroke-width:1.5;"/>
   </g>
   <g id="line2d_20">
    <path clip-path="url(#pe359f1ce5a)" d="M 340.105823 606.599747 
L 340.105823 530.536004 
L 491.514891 530.536004 
L 491.514891 606.599747 
L 340.105823 606.599747 
" style="fill:none;stroke:#d3d3d3;stroke-linecap:square;stroke-width:0.5;"/>
   </g>
   <g id="line2d_21">
    <path clip-path="url(#pe359f1ce5a)" d="M 491.514891 530.536004 
L 494.84459 527.098572 
L 498.145035 523.634579 
L 501.418823 520.146694 
L 504.668505 516.637434 
L 507.896594 513.109187 
L 511.10556 509.564221 
L 514.297843 506.004705 
L 517.475854 502.432721 
L 520.641988 498.850285 
L 523.79863 495.259365 
L 526.948169 491.661895 
L 530.093013 488.0598 
L 533.235602 484.455015 
L 536.378427 480.84951 
L 539.52405 477.245322 
L 542.675129 473.644579 
L 545.834445 470.049545 
L 549.004938 466.462664 
L 552.189741 462.886614 
L 555.392237 459.324377 
L 558.616115 455.779328 
L 561.865452 452.255348 
L 565.144808 448.756971 
L 568.459356 445.289588 
L 571.815063 441.859712 
L 575.218915 438.475374 
L 578.679255 435.146669 
L 582.206242 431.886601 
L 585.81253 428.712384 
L 589.514255 425.647579 
L 593.332501 422.7258 
L 597.29537 419.997575 
L 601.440373 417.544017 
L 605.814269 415.506025 
L 610.454225 414.147172 
" style="fill:none;stroke:#808080;stroke-linecap:square;stroke-width:1.5;"/>
   </g>
   <g id="line2d_22">
    <path clip-path="url(#pe359f1ce5a)" d="M 491.514891 530.536004 
L 491.514891 414.147172 
L 610.454225 414.147172 
L 610.454225 530.536004 
L 491.514891 530.536004 
" style="fill:none;stroke:#d3d3d3;stroke-linecap:square;stroke-width:0.5;"/>
   </g>
   <g id="line2d_23">
    <path clip-path="url(#pe359f1ce5a)" d="M 610.454225 414.147172 
L 615.222915 413.127822 
L 619.84081 411.587077 
L 623.612749 408.659592 
L 624.337485 404.069556 
L 622.76561 399.549282 
L 620.383668 395.31934 
L 617.649748 391.281669 
L 614.73159 387.37665 
L 611.704943 383.567432 
L 608.60877 379.829556 
L 605.465076 376.145972 
L 602.28722 372.504358 
L 599.083808 368.895544 
L 595.860667 365.312541 
L 592.621927 361.749902 
L 589.370627 358.203312 
L 586.109092 354.669288 
L 582.839162 351.14498 
L 579.562342 347.628019 
L 576.279906 344.116411 
L 572.992964 340.608456 
L 569.702514 337.102684 
L 566.409482 333.597805 
L 563.114749 330.092672 
L 559.819176 326.586251 
L 556.523624 323.077587 
L 553.228972 319.565788 
L 549.936138 316.049995 
L 546.646094 312.529368 
L 543.359891 309.003058 
L 540.07868 305.470184 
L 536.803742 301.929809 
L 533.536532 298.380904 
L 530.278722 294.822309 
L 527.032281 291.25268 
L 523.799563 287.670416 
L 520.583464 284.073561 
L 517.38763 280.459652 
L 514.216807 276.825489 
L 511.077415 273.166758 
L 507.978556 269.477374 
L 504.933986 265.748222 
L 501.966396 261.964477 
L 499.118662 258.09887 
L 496.494321 254.089866 
" style="fill:none;stroke:#808080;stroke-linecap:square;stroke-width:1.5;"/>
   </g>
   <g id="line2d_24">
    <path clip-path="url(#pe359f1ce5a)" d="M 496.494321 414.147172 
L 496.494321 254.089866 
L 624.337485 254.089866 
L 624.337485 414.147172 
L 496.494321 414.147172 
" style="fill:none;stroke:#d3d3d3;stroke-linecap:square;stroke-width:0.5;"/>
   </g>
   <g id="line2d_25">
    <path clip-path="url(#pe359f1ce5a)" d="M 496.494321 254.089866 
L 494.051941 249.962978 
L 491.601909 245.840298 
L 489.143489 241.72249 
L 486.675847 237.610333 
L 484.198035 233.504743 
L 481.708962 229.406797 
L 479.207369 225.317752 
L 476.691782 221.239072 
L 474.160458 217.172446 
L 471.611318 213.11982 
L 469.041846 209.083412 
L 466.448975 205.065745 
L 463.828929 201.069677 
L 461.177033 197.098449 
L 458.487479 193.155762 
L 455.753054 189.245911 
L 452.964835 185.374006 
L 450.111899 181.54634 
L 447.181104 177.770962 
L 444.157078 174.058486 
L 441.022604 170.423112 
L 437.759633 166.883622 
L 434.351127 163.463829 
L 430.783645 160.191681 
L 427.050144 157.096307 
L 423.151946 154.203178 
L 419.098875 151.528916 
L 414.907339 149.078033 
L 410.597202 146.842966 
L 406.188731 144.806965 
L 401.700507 142.948114 
L 397.148429 141.242945 
L 392.54554 139.668912 
L 387.902288 138.205717 
L 383.226938 136.835798 
L 378.526003 135.544325 
L 373.804614 134.318941 
L 369.066821 133.149426 
L 364.315836 132.027344 
L 359.554208 130.945735 
L 354.783977 129.898837 
L 350.006774 128.881866 
L 345.223909 127.890833 
" style="fill:none;stroke:#808080;stroke-linecap:square;stroke-width:1.5;"/>
   </g>
   <g id="line2d_26">
    <path clip-path="url(#pe359f1ce5a)" d="M 345.223909 254.089866 
L 345.223909 127.890833 
L 496.494321 127.890833 
L 496.494321 254.089866 
L 345.223909 254.089866 
" style="fill:none;stroke:#d3d3d3;stroke-linecap:square;stroke-width:0.5;"/>
   </g>
   <g id="line2d_27">
    <path clip-path="url(#pe359f1ce5a)" d="M 339.276547 597.361978 
L 343.955197 596.926671 
L 348.617442 596.416865 
L 353.261273 595.828957 
L 357.884709 595.159313 
L 362.485741 594.404308 
L 367.062282 593.560365 
L 371.612138 592.624021 
L 376.132989 591.591985 
L 380.622391 590.461215 
L 385.077801 589.228994 
L 389.496608 587.893 
L 393.876196 586.45138 
L 398.214001 584.902808 
L 402.507585 583.246534 
L 406.754702 581.482412 
L 410.953362 579.610915 
L 415.101885 577.633129 
L 419.198939 575.55073 
L 423.243566 573.365949 
L 427.235194 571.081515 
L 431.173633 568.700598 
L 435.059063 566.226737 
L 438.892012 563.663772 
L 442.673327 561.01577 
L 446.404142 558.286955 
L 450.085843 555.481643 
L 453.720031 552.604185 
L 457.308493 549.658914 
L 460.853159 546.650101 
L 464.356084 543.581923 
L 467.81941 540.458429 
L 471.245347 537.283525 
L 474.636153 534.060958 
L 477.994114 530.794305 
L 481.321532 527.486971 
L 484.620715 524.14219 
" style="fill:none;stroke:#000000;stroke-linecap:square;stroke-width:3;"/>
   </g>
   <g id="line2d_28">
    <path clip-path="url(#pe359f1ce5a)" d="M 339.276547 597.361978 
L 339.276547 524.14219 
L 484.620715 524.14219 
L 484.620715 597.361978 
L 339.276547 597.361978 
" style="fill:none;stroke:#d3d3d3;stroke-linecap:square;stroke-width:0.5;"/>
   </g>
   <g id="line2d_29">
    <path clip-path="url(#pe359f1ce5a)" d="M 484.620715 524.14219 
L 487.893963 520.763027 
L 491.143573 517.352382 
L 494.371828 513.913001 
L 497.580999 510.447483 
L 500.773349 506.958293 
L 503.951134 503.44777 
L 507.116608 499.918142 
L 510.272036 496.371539 
L 513.419695 492.810005 
L 516.561893 489.235514 
L 519.700979 485.649983 
L 522.839359 482.05529 
L 525.979517 478.453293 
L 529.124036 474.845845 
L 532.275628 471.234818 
L 535.437164 467.622127 
L 538.611717 464.009759 
L 541.802608 460.399804 
L 545.013473 456.794494 
L 548.248341 453.196254 
L 551.511736 449.607761 
L 554.808815 446.032015 
L 558.145551 442.472442 
L 561.528986 438.933018 
L 564.967588 435.418445 
L 568.471774 431.934393 
L 572.054682 428.48785 
L 575.733382 425.087654 
L 579.530828 421.745347 
L 583.479157 418.476649 
L 587.62559 415.304245 
L 592.043579 412.263694 
L 596.855044 409.417828 
L 602.275201 406.897764 
L 608.682666 405.036162 
L 608.682666 405.036162 
" style="fill:none;stroke:#000000;stroke-linecap:square;stroke-width:3;"/>
   </g>
   <g id="line2d_30">
    <path clip-path="url(#pe359f1ce5a)" d="M 484.620715 524.14219 
L 484.620715 405.036162 
L 608.682666 405.036162 
L 608.682666 524.14219 
L 484.620715 524.14219 
" style="fill:none;stroke:#d3d3d3;stroke-linecap:square;stroke-width:0.5;"/>
   </g>
   <g id="line2d_31">
    <path clip-path="url(#pe359f1ce5a)" d="M 608.682666 405.036162 
" style="fill:none;stroke:#000000;stroke-linecap:square;stroke-width:3;"/>
   </g>
   <g id="line2d_32">
    <path clip-path="url(#pe359f1ce5a)" d="M 608.682666 405.036162 
L 608.682666 405.036162 
L 608.682666 405.036162 
L 608.682666 405.036162 
L 608.682666 405.036162 
" style="fill:none;stroke:#d3d3d3;stroke-linecap:square;stroke-width:0.5;"/>
   </g>
   <g id="line2d_33">
    <path clip-path="url(#pe359f1ce5a)" d="M 343.267195 136.965818 
L 343.267195 136.965818 
L 341.439535 136.831877 
L 340.372137 137.148751 
L 339.107732 138.163956 
L 337.56773 140.294189 
L 336.125924 143.316728 
L 334.931817 146.897371 
L 333.997123 150.816254 
L 333.29451 154.945552 
L 332.79128 159.210494 
L 332.458236 163.565842 
L 332.271182 167.983193 
L 332.210472 172.444101 
L 332.260168 176.936221 
L 332.407249 181.451068 
L 332.640975 185.982676 
L 332.952383 190.526762 
L 333.333911 195.080193 
L 333.779098 199.640644 
L 334.282365 204.206365 
L 334.838838 208.776026 
L 335.444211 213.348614 
L 336.094634 217.923354 
L 336.786632 222.499664 
L 337.517027 227.077115 
L 338.282878 231.655411 
L 339.081435 236.234371 
L 339.910088 240.813918 
L 340.766329 245.394078 
L 341.647717 249.974974 
" style="fill:none;stroke:#000000;stroke-linecap:square;stroke-width:3;"/>
   </g>
   <g id="line2d_34">
    <path clip-path="url(#pe359f1ce5a)" d="M 332.210472 249.974974 
L 332.210472 136.831877 
L 343.267195 136.831877 
L 343.267195 249.974974 
L 332.210472 249.974974 
" style="fill:none;stroke:#d3d3d3;stroke-linecap:square;stroke-width:0.5;"/>
   </g>
   <g id="line2d_35">
    <path clip-path="url(#pe359f1ce5a)" d="M 341.647717 249.974974 
L 342.55184 254.556837 
L 343.476278 259.140001 
L 344.418566 263.724925 
L 345.376159 268.312196 
L 346.34638 272.902554 
L 347.326376 277.496913 
L 348.313055 282.096392 
L 349.303017 286.70235 
L 350.292464 291.316436 
L 351.277092 295.940652 
L 352.251952 300.577426 
L 353.211267 305.229716 
L 354.148196 309.901131 
L 355.054515 314.596097 
L 355.92018 319.320059 
L 356.732731 324.07974 
L 357.476438 328.883452 
L 358.131095 333.741449 
L 358.670263 338.666258 
L 359.058725 343.672811 
L 359.248854 348.777917 
L 359.175714 353.998013 
L 358.751508 359.343004 
L 357.862524 364.802644 
L 356.377354 370.322899 
L 354.180357 375.780278 
L 351.231515 380.984533 
L 347.610424 385.739655 
L 347.610424 385.739655 
" style="fill:none;stroke:#000000;stroke-linecap:square;stroke-width:3;"/>
   </g>
   <g id="line2d_36">
    <path clip-path="url(#pe359f1ce5a)" d="M 341.647717 385.739655 
L 341.647717 249.974974 
L 359.248854 249.974974 
L 359.248854 385.739655 
L 341.647717 385.739655 
" style="fill:none;stroke:#d3d3d3;stroke-linecap:square;stroke-width:0.5;"/>
   </g>
   <g id="line2d_37">
    <path clip-path="url(#pe359f1ce5a)" d="M 347.610424 385.739655 
L 347.610424 385.739655 
L 345.236839 388.806424 
L 342.820137 392.392248 
L 340.474569 396.188584 
L 338.207801 400.107157 
L 336.015923 404.109873 
L 333.893982 408.176543 
L 331.837709 412.294985 
L 329.843721 416.457139 
L 327.909432 420.657274 
L 326.032908 424.891085 
L 324.212754 429.155177 
L 322.448014 433.446775 
L 320.738098 437.763535 
L 319.08273 442.103427 
L 317.4819 446.464654 
L 315.93584 450.845599 
L 314.445004 455.244783 
L 313.010046 459.660838 
L 311.631821 464.092482 
L 310.311378 468.538501 
L 309.049963 472.997731 
L 307.849026 477.469043 
L 306.71023 481.951325 
L 305.635468 486.443469 
L 304.626882 490.944347 
L 303.686885 495.452792 
L 302.818195 499.967571 
L 302.023866 504.487351 
" style="fill:none;stroke:#000000;stroke-linecap:square;stroke-width:3;"/>
   </g>
   <g id="line2d_38">
    <path clip-path="url(#pe359f1ce5a)" d="M 302.023866 504.487351 
L 302.023866 385.739655 
L 347.610424 385.739655 
L 347.610424 504.487351 
L 302.023866 504.487351 
" style="fill:none;stroke:#d3d3d3;stroke-linecap:square;stroke-width:0.5;"/>
   </g>
   <g id="line2d_39">
    <path clip-path="url(#pe359f1ce5a)" d="M 302.023866 504.487351 
L 301.307335 509.010663 
L 300.672466 513.535853 
L 300.123612 518.061017 
L 299.665682 522.58393 
L 299.30422 527.101944 
L 299.045493 531.611863 
L 298.896597 536.109784 
L 298.865566 540.590888 
L 298.961501 545.049167 
L 299.194688 549.477076 
L 299.576719 553.865077 
L 300.120566 558.201056 
L 300.840586 562.469585 
L 301.752371 566.651021 
L 302.872349 570.720471 
L 304.216979 574.646759 
L 305.801394 578.391704 
L 307.637468 581.910364 
L 309.731666 585.153192 
L 312.083797 588.071032 
L 314.688366 590.622528 
L 317.539 592.780712 
L 320.632372 594.533954 
L 323.965706 595.880713 
L 327.527967 596.824405 
L 331.293438 597.373538 
L 335.223917 597.544472 
L 339.276547 597.361978 
" style="fill:none;stroke:#000000;stroke-linecap:square;stroke-width:3;"/>
   </g>
   <g id="line2d_40">
    <path clip-path="url(#pe359f1ce5a)" d="M 298.865566 597.544472 
L 298.865566 504.487351 
L 339.276547 504.487351 
L 339.276547 597.544472 
L 298.865566 597.544472 
" style="fill:none;stroke:#d3d3d3;stroke-linecap:square;stroke-width:0.5;"/>
   </g>
   <g id="line2d_41">
    <path clip-path="url(#pe359f1ce5a)" d="M 488.244066 258.714811 
L 488.244066 258.714811 
L 485.809796 254.601626 
L 483.368789 250.494133 
L 480.92045 246.393209 
L 478.464113 242.299888 
L 475.999028 238.215387 
L 473.52435 234.141137 
L 471.039111 230.078824 
L 468.542198 226.030418 
L 466.032311 221.998226 
L 463.507915 217.984933 
L 460.967178 213.993657 
L 458.407886 210.028013 
L 455.827347 206.092188 
L 453.22226 202.191038 
L 450.588578 198.33023 
L 447.921351 194.516425 
L 445.214565 190.757552 
L 442.461031 187.063176 
L 439.652336 183.444979 
L 436.778946 179.917291 
L 433.830507 176.49749 
L 430.796314 173.205926 
L 427.665822 170.064793 
L 424.428894 167.095561 
L 421.075648 164.315238 
L 417.59628 161.73286 
L 413.981812 159.348041 
L 410.226205 157.152215 
L 406.328842 155.131412 
L 402.295644 153.268943 
L 398.138134 151.547246 
L 393.871208 149.949037 
L 389.510798 148.458029 
L 385.072161 147.059387 
L 380.568938 145.739955 
L 376.012814 144.488301 
L 371.413523 143.29463 
L 366.779053 142.150637 
L 362.11589 141.049309 
L 357.429279 139.984748 
L 352.723456 138.951991 
L 348.001839 137.946857 
L 343.267195 136.965818 
L 343.267195 136.965818 
" style="fill:none;stroke:#000000;stroke-linecap:square;stroke-width:3;"/>
   </g>
   <g id="line2d_42">
    <path clip-path="url(#pe359f1ce5a)" d="M 343.267195 258.714811 
L 343.267195 136.965818 
L 488.244066 136.965818 
L 488.244066 258.714811 
L 343.267195 258.714811 
" style="fill:none;stroke:#d3d3d3;stroke-linecap:square;stroke-width:0.5;"/>
   </g>
   <g id="line2d_43">
    <path clip-path="url(#pe359f1ce5a)" d="M 608.682666 405.036162 
L 608.682666 405.036162 
L 612.822794 404.15442 
L 615.810669 403.186215 
L 615.546911 403.735591 
L 614.952976 405.620963 
L 614.149591 403.490771 
L 612.273243 400.173336 
L 609.847521 396.593511 
L 607.130777 392.958763 
L 604.244017 389.32587 
L 601.249526 385.710863 
L 598.182262 382.116888 
L 595.063288 378.542778 
L 591.906056 374.986005 
L 588.719586 371.443774 
L 585.510185 367.913416 
L 582.282433 364.392516 
L 579.039762 360.878934 
L 575.784829 357.370791 
L 572.519753 353.866435 
L 569.246266 350.364402 
L 565.965831 346.863392 
L 562.67971 343.362233 
L 559.389028 339.859855 
L 556.094809 336.355269 
L 552.798013 332.847546 
L 549.499558 329.335792 
L 546.200345 325.81913 
L 542.901275 322.29668 
L 539.60327 318.767532 
L 536.307284 315.230724 
L 533.014329 311.685205 
L 529.725491 308.129802 
L 526.441955 304.563163 
L 523.165037 300.983693 
L 519.896217 297.389456 
L 516.637194 293.778039 
L 513.389949 290.146346 
L 510.156837 286.490273 
L 506.940706 282.804168 
L 503.745073 279.079868 
L 500.574338 275.304862 
L 497.434026 271.458333 
L 494.330779 267.501328 
L 491.270538 263.346152 
L 488.244066 258.714811 
L 488.244066 258.714811 
" style="fill:none;stroke:#000000;stroke-linecap:square;stroke-width:3;"/>
   </g>
   <g id="line2d_44">
    <path clip-path="url(#pe359f1ce5a)" d="M 488.244066 405.620963 
L 488.244066 258.714811 
L 615.810669 258.714811 
L 615.810669 405.620963 
L 488.244066 405.620963 
" style="fill:none;stroke:#d3d3d3;stroke-linecap:square;stroke-width:0.5;"/>
   </g>
   <g id="line2d_45">
    <path clip-path="url(#pe359f1ce5a)" d="M 339.276547 597.361978 
L 339.276547 597.361978 
L 339.276547 597.361978 
" style="fill:none;stroke:#000000;stroke-linecap:square;stroke-width:3;"/>
   </g>
   <g id="line2d_46">
    <path clip-path="url(#pe359f1ce5a)" d="M 339.276547 597.361978 
L 339.276547 597.361978 
L 339.276547 597.361978 
L 339.276547 597.361978 
L 339.276547 597.361978 
" style="fill:none;stroke:#d3d3d3;stroke-linecap:square;stroke-width:0.5;"/>
   </g>
   <g id="line2d_47">
    <path clip-path="url(#pe359f1ce5a)" d="M 339.276547 597.361978 
L 339.276547 597.361978 
L 339.276547 597.361978 
" style="fill:none;stroke:#000000;stroke-linecap:square;stroke-width:3;"/>
   </g>
   <g id="line2d_48">
    <path clip-path="url(#pe359f1ce5a)" d="M 339.276547 597.361978 
L 339.276547 597.361978 
L 339.276547 597.361978 
L 339.276547 597.361978 
L 339.276547 597.361978 
" style="fill:none;stroke:#d3d3d3;stroke-linecap:square;stroke-width:0.5;"/>
   </g>
   <g id="line2d_49">
    <path clip-path="url(#pe359f1ce5a)" d="M 333.094558 373.740455 
L 333.094558 373.740455 
L 329.601746 378.225579 
L 326.681056 382.555768 
L 324.013916 386.871542 
L 321.509613 391.200296 
L 319.127619 395.549958 
L 316.845687 399.923106 
L 314.650113 404.320458 
L 312.531837 408.741981 
L 310.484608 413.187308 
L 308.503998 417.655925 
L 306.58684 422.147244 
L 304.730879 426.660659 
L 302.934549 431.195564 
L 301.196821 435.751371 
L 299.517099 440.327523 
L 297.895154 444.923499 
L 296.33107 449.538823 
L 294.825215 454.173068 
L 293.378217 458.825862 
L 291.990951 463.496893 
L 290.664541 468.185908 
L 289.400357 472.892723 
L 288.200031 477.61722 
L 287.065468 482.359352 
L 285.998874 487.119143 
L 285.002784 491.89669 
L 284.080102 496.692163 
L 283.234148 501.505804 
" style="fill:none;stroke:#000000;stroke-linecap:square;stroke-width:3;"/>
   </g>
   <g id="line2d_50">
    <path clip-path="url(#pe359f1ce5a)" d="M 283.234148 501.505804 
L 283.234148 373.740455 
L 333.094558 373.740455 
L 333.094558 501.505804 
L 283.234148 501.505804 
" style="fill:none;stroke:#d3d3d3;stroke-linecap:square;stroke-width:0.5;"/>
   </g>
   <g id="line2d_51">
    <path clip-path="url(#pe359f1ce5a)" d="M 283.234148 501.505804 
L 282.468723 506.337921 
L 281.788177 511.188885 
L 281.197503 516.059121 
L 280.70245 520.949095 
L 280.309662 525.859288 
L 280.026847 530.79017 
L 279.862997 535.742154 
L 279.828655 540.715518 
L 279.93626 545.71031 
L 280.200576 550.726181 
L 280.639236 555.762144 
L 281.273438 560.816196 
L 282.128797 565.884725 
L 283.236379 570.96158 
L 284.633869 576.036585 
L 286.366687 581.093199 
L 288.488588 586.104898 
L 291.060655 591.029856 
L 294.146709 595.804003 
L 297.802235 600.334165 
L 302.054895 604.496349 
L 306.880411 608.14751 
L 312.187827 611.155592 
L 317.831118 613.437486 
L 323.646787 614.980947 
L 329.494058 615.836563 
L 335.275321 616.090459 
L 340.9351 615.837515 
" style="fill:none;stroke:#000000;stroke-linecap:square;stroke-width:3;"/>
   </g>
   <g id="line2d_52">
    <path clip-path="url(#pe359f1ce5a)" d="M 279.828655 616.090459 
L 279.828655 501.505804 
L 340.9351 501.505804 
L 340.9351 616.090459 
L 279.828655 616.090459 
" style="fill:none;stroke:#d3d3d3;stroke-linecap:square;stroke-width:0.5;"/>
   </g>
   <g id="line2d_53">
    <path clip-path="url(#pe359f1ce5a)" d="M 504.744575 249.46492 
L 504.744575 249.46492 
L 502.294086 245.32433 
L 499.835029 241.186464 
L 497.366528 237.051771 
L 494.887582 232.920777 
L 492.397042 228.794099 
L 489.893575 224.672457 
L 487.375627 220.556681 
L 484.841365 216.447726 
L 482.288606 212.346667 
L 479.714721 208.254706 
L 477.116515 204.173166 
L 474.490064 200.103477 
L 471.830511 196.047167 
L 469.131805 192.00586 
L 466.386379 187.981295 
L 463.584757 183.975397 
L 460.715104 179.990459 
L 457.762766 176.029504 
L 454.709872 172.096945 
L 451.535211 168.199682 
L 448.214701 164.348735 
L 444.722952 160.561318 
L 441.036431 156.862865 
L 437.138396 153.287801 
L 433.02464 149.877376 
L 428.707611 146.673496 
L 424.215938 143.709792 
L 419.588474 141.003851 
L 414.865562 138.55452 
L 410.081819 136.344988 
L 405.26288 134.348982 
L 400.425649 132.536853 
L 395.580282 130.879795 
L 390.732415 129.352046 
L 385.884938 127.931641 
L 381.039193 126.600349 
L 376.195704 125.343252 
L 371.35459 124.148214 
L 366.515781 123.00538 
L 361.679138 121.906722 
L 356.844499 120.845683 
L 352.011709 119.816875 
L 347.180623 118.815847 
L 347.180623 118.815847 
" style="fill:none;stroke:#000000;stroke-linecap:square;stroke-width:3;"/>
   </g>
   <g id="line2d_54">
    <path clip-path="url(#pe359f1ce5a)" d="M 347.180623 249.46492 
L 347.180623 118.815847 
L 504.744575 118.815847 
L 504.744575 249.46492 
L 347.180623 249.46492 
" style="fill:none;stroke:#d3d3d3;stroke-linecap:square;stroke-width:0.5;"/>
   </g>
   <g id="line2d_55">
    <path clip-path="url(#pe359f1ce5a)" d="M 340.9351 615.837515 
L 345.919247 615.373762 
L 350.903155 614.828758 
L 355.885013 614.19803 
L 360.86287 613.477025 
L 365.834536 612.661171 
L 370.797496 611.74594 
L 375.748838 610.72694 
L 380.685198 609.600019 
L 385.602746 608.36138 
L 390.497187 607.007708 
L 395.363814 605.536294 
L 400.19759 603.945149 
L 404.993257 602.233107 
L 409.745484 600.399899 
L 414.449025 598.446189 
L 419.098877 596.373582 
L 423.690444 594.184588 
L 428.21967 591.882548 
L 432.683149 589.47154 
L 437.078206 586.956251 
L 441.40293 584.341845 
L 445.656186 581.633827 
L 449.837581 578.837908 
L 453.94742 575.959885 
L 457.986635 573.00554 
L 461.956699 569.980546 
L 465.85955 566.890408 
L 469.697498 563.740405 
L 473.473148 560.535563 
L 477.189326 557.28063 
L 480.849015 553.980071 
L 484.455294 550.638068 
L 488.011299 547.258523 
L 491.52018 543.845077 
L 494.98507 540.401122 
L 498.409067 536.929818 
" style="fill:none;stroke:#000000;stroke-linecap:square;stroke-width:3;"/>
   </g>
   <g id="line2d_56">
    <path clip-path="url(#pe359f1ce5a)" d="M 340.9351 615.837515 
L 340.9351 536.929818 
L 498.409067 536.929818 
L 498.409067 615.837515 
L 340.9351 615.837515 
" style="fill:none;stroke:#d3d3d3;stroke-linecap:square;stroke-width:0.5;"/>
   </g>
   <g id="line2d_57">
    <path clip-path="url(#pe359f1ce5a)" d="M 498.409067 536.929818 
L 501.795217 533.434116 
L 505.146498 529.916776 
L 508.465818 526.380387 
L 511.756011 522.827385 
L 515.019838 519.260081 
L 518.259986 515.680673 
L 521.479077 512.091267 
L 524.679673 508.493902 
L 527.864281 504.890566 
L 531.035366 501.283217 
L 534.195359 497.673808 
L 537.346667 494.064309 
L 540.491687 490.456736 
L 543.632817 486.853176 
L 546.772471 483.255825 
L 549.913093 479.66703 
L 553.057174 476.089331 
L 556.207267 472.525524 
L 559.366008 468.978733 
L 562.536132 465.452499 
L 565.720495 461.950894 
L 568.922089 458.47868 
L 572.144064 455.041501 
L 575.389727 451.646157 
L 578.662537 448.300979 
L 581.966056 445.016354 
L 585.303828 441.805488 
L 588.679102 438.685549 
L 592.094232 435.679421 
L 595.549353 432.818509 
L 599.039412 430.147355 
L 602.54716 427.731455 
L 606.025703 425.670207 
L 609.353336 424.114285 
L 612.225784 423.258182 
L 612.225784 423.258182 
" style="fill:none;stroke:#000000;stroke-linecap:square;stroke-width:3;"/>
   </g>
   <g id="line2d_58">
    <path clip-path="url(#pe359f1ce5a)" d="M 498.409067 536.929818 
L 498.409067 423.258182 
L 612.225784 423.258182 
L 612.225784 536.929818 
L 498.409067 536.929818 
" style="fill:none;stroke:#d3d3d3;stroke-linecap:square;stroke-width:0.5;"/>
   </g>
   <g id="line2d_59">
    <path clip-path="url(#pe359f1ce5a)" d="M 612.225784 423.258182 
" style="fill:none;stroke:#000000;stroke-linecap:square;stroke-width:3;"/>
   </g>
   <g id="line2d_60">
    <path clip-path="url(#pe359f1ce5a)" d="M 612.225784 423.258182 
L 612.225784 423.258182 
L 612.225784 423.258182 
L 612.225784 423.258182 
L 612.225784 423.258182 
" style="fill:none;stroke:#d3d3d3;stroke-linecap:square;stroke-width:0.5;"/>
   </g>
   <g id="line2d_61">
    <path clip-path="url(#pe359f1ce5a)" d="M 347.180623 118.815847 
L 347.180623 118.815847 
L 339.410717 118.39144 
L 331.314217 120.836479 
L 325.061138 125.645908 
L 321.00579 131.149086 
L 318.365532 136.638786 
L 316.569898 142.001113 
L 315.315524 147.247696 
L 314.436942 152.40284 
L 313.836396 157.486223 
L 313.45164 162.512236 
L 313.240536 167.491391 
L 313.173136 172.431523 
L 313.227309 177.338612 
L 313.386164 182.217314 
L 313.63646 187.071316 
L 313.967575 191.903579 
L 314.370813 196.716505 
L 314.838925 201.512061 
L 315.365771 206.29187 
L 315.946065 211.057276 
L 316.575194 215.809402 
L 317.249072 220.549187 
L 317.964034 225.277422 
L 318.716744 229.994775 
L 319.504125 234.701813 
L 320.323298 239.399019 
L 321.17153 244.086803 
L 322.046192 248.765519 
L 322.94471 253.435467 
" style="fill:none;stroke:#000000;stroke-linecap:square;stroke-width:3;"/>
   </g>
   <g id="line2d_62">
    <path clip-path="url(#pe359f1ce5a)" d="M 313.173136 253.435467 
L 313.173136 118.39144 
L 347.180623 118.39144 
L 347.180623 253.435467 
L 313.173136 253.435467 
" style="fill:none;stroke:#d3d3d3;stroke-linecap:square;stroke-width:0.5;"/>
   </g>
   <g id="line2d_63">
    <path clip-path="url(#pe359f1ce5a)" d="M 322.94471 253.435467 
L 323.864531 258.096905 
L 324.80308 262.750048 
L 325.757718 267.395073 
L 326.725699 272.032121 
L 327.70412 276.661289 
L 328.68987 281.282628 
L 329.679557 285.896133 
L 330.66944 290.501724 
L 331.655333 295.099228 
L 332.63249 299.688342 
L 333.595471 304.268584 
L 334.537961 308.839227 
L 335.452554 313.39919 
L 336.330472 317.946891 
L 337.161211 322.480027 
L 337.932096 326.995243 
L 338.627713 331.487647 
L 339.229233 335.95009 
L 339.713622 340.372096 
L 340.052831 344.738347 
L 340.213226 349.026639 
L 340.155761 353.205555 
L 339.837788 357.232906 
L 339.217324 361.05778 
L 338.258811 364.630845 
L 336.935316 367.924333 
L 335.222497 370.94837 
L 333.094558 373.740455 
L 333.094558 373.740455 
" style="fill:none;stroke:#000000;stroke-linecap:square;stroke-width:3;"/>
   </g>
   <g id="line2d_64">
    <path clip-path="url(#pe359f1ce5a)" d="M 322.94471 373.740455 
L 322.94471 253.435467 
L 340.213226 253.435467 
L 340.213226 373.740455 
L 322.94471 373.740455 
" style="fill:none;stroke:#d3d3d3;stroke-linecap:square;stroke-width:0.5;"/>
   </g>
   <g id="line2d_65">
    <path clip-path="url(#pe359f1ce5a)" d="M 612.225784 423.258182 
L 612.225784 423.258182 
L 617.623036 422.101224 
L 623.870951 419.987939 
L 631.678587 413.583592 
L 633.721995 402.518149 
L 631.381628 395.607792 
L 628.494094 390.465345 
L 625.451976 385.969827 
L 622.332404 381.794536 
L 619.165868 377.808994 
L 615.968014 373.948249 
L 612.747891 370.175055 
L 609.511153 366.465938 
L 606.261559 362.805084 
L 603.001749 359.181307 
L 599.733668 355.586388 
L 596.458821 352.014109 
L 593.178422 348.459643 
L 589.893494 344.919168 
L 586.604932 341.389603 
L 583.313546 337.86842 
L 580.020097 334.35352 
L 576.725318 330.843135 
L 573.429936 327.335755 
L 570.134689 323.830076 
L 566.840339 320.324956 
L 563.547689 316.819382 
L 560.257599 313.312445 
L 556.971 309.80331 
L 553.688919 306.291204 
L 550.412499 302.775391 
L 547.14303 299.255162 
L 543.881994 295.729816 
L 540.631108 292.198644 
L 537.392408 288.660925 
L 534.168344 285.115904 
L 530.961933 281.562794 
L 527.776979 278.000777 
L 524.618423 274.429031 
L 521.492908 270.84681 
L 518.409757 267.253649 
L 515.382775 263.649887 
L 512.433947 260.038112 
L 509.602014 256.427626 
L 506.966785 252.851588 
L 504.744575 249.46492 
L 504.744575 249.46492 
" style="fill:none;stroke:#000000;stroke-linecap:square;stroke-width:3;"/>
   </g>
   <g id="line2d_66">
    <path clip-path="url(#pe359f1ce5a)" d="M 504.744575 423.258182 
L 504.744575 249.46492 
L 633.721995 249.46492 
L 633.721995 423.258182 
L 504.744575 423.258182 
" style="fill:none;stroke:#d3d3d3;stroke-linecap:square;stroke-width:0.5;"/>
   </g>
   <g id="line2d_67">
    <path clip-path="url(#pe359f1ce5a)" d="M 340.9351 615.837515 
L 340.9351 615.837515 
L 340.9351 615.837515 
" style="fill:none;stroke:#000000;stroke-linecap:square;stroke-width:3;"/>
   </g>
   <g id="line2d_68">
    <path clip-path="url(#pe359f1ce5a)" d="M 340.9351 615.837515 
L 340.9351 615.837515 
L 340.9351 615.837515 
L 340.9351 615.837515 
L 340.9351 615.837515 
" style="fill:none;stroke:#d3d3d3;stroke-linecap:square;stroke-width:0.5;"/>
   </g>
   <g id="line2d_69">
    <path clip-path="url(#pe359f1ce5a)" d="M 340.9351 615.837515 
L 340.9351 615.837515 
L 340.9351 615.837515 
" style="fill:none;stroke:#000000;stroke-linecap:square;stroke-width:3;"/>
   </g>
   <g id="line2d_70">
    <path clip-path="url(#pe359f1ce5a)" d="M 340.9351 615.837515 
L 340.9351 615.837515 
L 340.9351 615.837515 
L 340.9351 615.837515 
L 340.9351 615.837515 
" style="fill:none;stroke:#d3d3d3;stroke-linecap:square;stroke-width:0.5;"/>
   </g>
   <g id="line2d_71">
    <path clip-path="url(#pe359f1ce5a)" d="M 332.296214 237.79568 
L 334.122045 237.909877 
L 335.917895 238.250594 
L 337.654278 238.812234 
L 339.302682 239.585578 
L 340.836039 240.557925 
L 342.229173 241.713311 
L 343.459208 243.032764 
L 344.505947 244.494618 
L 345.352202 246.07487 
L 345.984079 247.747573 
L 346.391201 249.48526 
L 346.566883 251.259398 
L 346.508242 253.040857 
L 346.21624 254.800385 
L 345.695671 256.50909 
L 344.955083 258.138916 
L 344.006638 259.663101 
L 342.865907 261.056618 
L 341.551622 262.296585 
L 340.085364 263.362642 
L 338.491208 264.237284 
L 336.795331 264.906151 
L 335.025578 265.358258 
L 333.211009 265.586183 
L 331.381419 265.586183 
L 329.56685 265.358258 
L 327.797097 264.906151 
L 326.101219 264.237284 
L 324.507063 263.362642 
L 323.040805 262.296585 
L 321.72652 261.056618 
L 320.58579 259.663101 
L 319.637344 258.138916 
L 318.896756 256.50909 
L 318.376188 254.800385 
L 318.084185 253.040857 
L 318.025544 251.259398 
L 318.201227 249.48526 
L 318.608349 247.747573 
L 319.240225 246.07487 
L 320.086481 244.494618 
L 321.13322 243.032764 
L 322.363254 241.713311 
L 323.756388 240.557925 
L 325.289746 239.585578 
L 326.938149 238.812234 
L 328.674532 238.250594 
L 330.470383 237.909877 
L 332.296214 237.79568 
" style="fill:none;stroke:#808080;stroke-linecap:square;stroke-width:1.5;"/>
   </g>
   <g id="line2d_72">
    <path clip-path="url(#pe359f1ce5a)" d="M 340.352491 365.830515 
L 342.178322 365.944712 
L 343.974172 366.285428 
L 345.710555 366.847069 
L 347.358959 367.620412 
L 348.892316 368.59276 
L 350.28545 369.748146 
L 351.515485 371.067599 
L 352.562224 372.529453 
L 353.408479 374.109705 
L 354.040356 375.782407 
L 354.447478 377.520094 
L 354.623161 379.294233 
L 354.564519 381.075692 
L 354.272517 382.835219 
L 353.751948 384.543925 
L 353.011361 386.173751 
L 352.062915 387.697935 
L 350.922184 389.091452 
L 349.607899 390.331419 
L 348.141641 391.397476 
L 346.547485 392.272119 
L 344.851608 392.940985 
L 343.081855 393.393093 
L 341.267286 393.621018 
L 339.437696 393.621018 
L 337.623127 393.393093 
L 335.853374 392.940985 
L 334.157496 392.272119 
L 332.563341 391.397476 
L 331.097082 390.331419 
L 329.782798 389.091452 
L 328.642067 387.697935 
L 327.693621 386.173751 
L 326.953034 384.543925 
L 326.432465 382.835219 
L 326.140462 381.075692 
L 326.081821 379.294233 
L 326.257504 377.520094 
L 326.664626 375.782407 
L 327.296502 374.109705 
L 328.142758 372.529453 
L 329.189497 371.067599 
L 330.419532 369.748146 
L 331.812665 368.59276 
L 333.346023 367.620412 
L 334.994427 366.847069 
L 336.730809 366.285428 
L 338.52666 365.944712 
L 340.352491 365.830515 
" style="fill:none;stroke:#808080;stroke-linecap:square;stroke-width:1.5;"/>
   </g>
   <g id="line2d_73">
    <path clip-path="url(#pe359f1ce5a)" d="M 340.105823 592.690206 
L 341.931654 592.804403 
L 343.727505 593.145119 
L 345.463888 593.70676 
L 347.112291 594.480104 
L 348.645649 595.452451 
L 350.038783 596.607837 
L 351.268818 597.92729 
L 352.315556 599.389144 
L 353.161812 600.969396 
L 353.793688 602.642099 
L 354.20081 604.379785 
L 354.376493 606.153924 
L 354.317852 607.935383 
L 354.025849 609.694911 
L 353.505281 611.403616 
L 352.764693 613.033442 
L 351.816247 614.557627 
L 350.675517 615.951143 
L 349.361232 617.19111 
L 347.894974 618.257167 
L 346.300818 619.13181 
L 344.60494 619.800676 
L 342.835187 620.252784 
L 341.020618 620.480709 
L 339.191028 620.480709 
L 337.376459 620.252784 
L 335.606706 619.800676 
L 333.910829 619.13181 
L 332.316673 618.257167 
L 330.850415 617.19111 
L 329.53613 615.951143 
L 328.395399 614.557627 
L 327.446954 613.033442 
L 326.706366 611.403616 
L 326.185797 609.694911 
L 325.893795 607.935383 
L 325.835154 606.153924 
L 326.010836 604.379785 
L 326.417958 602.642099 
L 327.049835 600.969396 
L 327.89609 599.389144 
L 328.942829 597.92729 
L 330.172864 596.607837 
L 331.565998 595.452451 
L 333.099355 594.480104 
L 334.747759 593.70676 
L 336.484142 593.145119 
L 338.279993 592.804403 
L 340.105823 592.690206 
" style="fill:none;stroke:#808080;stroke-linecap:square;stroke-width:1.5;"/>
   </g>
   <g id="line2d_74">
    <path clip-path="url(#pe359f1ce5a)" d="M 491.514891 516.626463 
L 493.340722 516.740661 
L 495.136573 517.081377 
L 496.872955 517.643018 
L 498.521359 518.416361 
L 500.054716 519.388709 
L 501.44785 520.544095 
L 502.677885 521.863547 
L 503.724624 523.325402 
L 504.570879 524.905654 
L 505.202756 526.578356 
L 505.609878 528.316043 
L 505.785561 530.090181 
L 505.726919 531.87164 
L 505.434917 533.631168 
L 504.914348 535.339874 
L 504.173761 536.969699 
L 503.225315 538.493884 
L 502.084584 539.887401 
L 500.7703 541.127368 
L 499.304041 542.193425 
L 497.709885 543.068067 
L 496.014008 543.736934 
L 494.244255 544.189041 
L 492.429686 544.416966 
L 490.600096 544.416966 
L 488.785527 544.189041 
L 487.015774 543.736934 
L 485.319897 543.068067 
L 483.725741 542.193425 
L 482.259482 541.127368 
L 480.945198 539.887401 
L 479.804467 538.493884 
L 478.856021 536.969699 
L 478.115434 535.339874 
L 477.594865 533.631168 
L 477.302863 531.87164 
L 477.244221 530.090181 
L 477.419904 528.316043 
L 477.827026 526.578356 
L 478.458903 524.905654 
L 479.305158 523.325402 
L 480.351897 521.863547 
L 481.581932 520.544095 
L 482.975066 519.388709 
L 484.508423 518.416361 
L 486.156827 517.643018 
L 487.893209 517.081377 
L 489.68906 516.740661 
L 491.514891 516.626463 
" style="fill:none;stroke:#808080;stroke-linecap:square;stroke-width:1.5;"/>
   </g>
   <g id="line2d_75">
    <path clip-path="url(#pe359f1ce5a)" d="M 610.454225 400.237631 
L 612.280056 400.351829 
L 614.075907 400.692545 
L 615.812289 401.254186 
L 617.460693 402.027529 
L 618.994051 402.999877 
L 620.387184 404.155263 
L 621.617219 405.474715 
L 622.663958 406.93657 
L 623.510214 408.516822 
L 624.14209 410.189524 
L 624.549212 411.927211 
L 624.724895 413.70135 
L 624.666254 415.482808 
L 624.374251 417.242336 
L 623.853682 418.951042 
L 623.113095 420.580868 
L 622.164649 422.105052 
L 621.023918 423.498569 
L 619.709634 424.738536 
L 618.243375 425.804593 
L 616.649219 426.679236 
L 614.953342 427.348102 
L 613.183589 427.800209 
L 611.36902 428.028134 
L 609.53943 428.028134 
L 607.724861 427.800209 
L 605.955108 427.348102 
L 604.259231 426.679236 
L 602.665075 425.804593 
L 601.198817 424.738536 
L 599.884532 423.498569 
L 598.743801 422.105052 
L 597.795355 420.580868 
L 597.054768 418.951042 
L 596.534199 417.242336 
L 596.242197 415.482808 
L 596.183555 413.70135 
L 596.359238 411.927211 
L 596.76636 410.189524 
L 597.398237 408.516822 
L 598.244492 406.93657 
L 599.291231 405.474715 
L 600.521266 404.155263 
L 601.9144 402.999877 
L 603.447757 402.027529 
L 605.096161 401.254186 
L 606.832544 400.692545 
L 608.628394 400.351829 
L 610.454225 400.237631 
" style="fill:none;stroke:#808080;stroke-linecap:square;stroke-width:1.5;"/>
   </g>
   <g id="line2d_76">
    <path clip-path="url(#pe359f1ce5a)" d="M 496.494321 240.180325 
L 498.320152 240.294522 
L 500.116002 240.635238 
L 501.852385 241.196879 
L 503.500789 241.970223 
L 505.034146 242.94257 
L 506.42728 244.097956 
L 507.657315 245.417409 
L 508.704054 246.879263 
L 509.550309 248.459515 
L 510.182186 250.132218 
L 510.589308 251.869904 
L 510.764991 253.644043 
L 510.706349 255.425502 
L 510.414347 257.18503 
L 509.893778 258.893735 
L 509.153191 260.523561 
L 508.204745 262.047746 
L 507.064014 263.441262 
L 505.749729 264.681229 
L 504.283471 265.747286 
L 502.689315 266.621929 
L 500.993438 267.290795 
L 499.223685 267.742903 
L 497.409116 267.970828 
L 495.579526 267.970828 
L 493.764957 267.742903 
L 491.995204 267.290795 
L 490.299326 266.621929 
L 488.705171 265.747286 
L 487.238912 264.681229 
L 485.924628 263.441262 
L 484.783897 262.047746 
L 483.835451 260.523561 
L 483.094864 258.893735 
L 482.574295 257.18503 
L 482.282292 255.425502 
L 482.223651 253.644043 
L 482.399334 251.869904 
L 482.806456 250.132218 
L 483.438332 248.459515 
L 484.284588 246.879263 
L 485.331327 245.417409 
L 486.561362 244.097956 
L 487.954495 242.94257 
L 489.487853 241.970223 
L 491.136257 241.196879 
L 492.872639 240.635238 
L 494.66849 240.294522 
L 496.494321 240.180325 
" style="fill:none;stroke:#808080;stroke-linecap:square;stroke-width:1.5;"/>
   </g>
   <g id="line2d_77">
    <path clip-path="url(#pe359f1ce5a)" d="M 345.223909 113.981292 
L 347.04974 114.095489 
L 348.845591 114.436205 
L 350.581973 114.997846 
L 352.230377 115.77119 
L 353.763734 116.743537 
L 355.156868 117.898923 
L 356.386903 119.218376 
L 357.433642 120.68023 
L 358.279897 122.260482 
L 358.911774 123.933185 
L 359.318896 125.670871 
L 359.494579 127.44501 
L 359.435937 129.226469 
L 359.143935 130.985997 
L 358.623366 132.694702 
L 357.882779 134.324528 
L 356.934333 135.848713 
L 355.793602 137.242229 
L 354.479318 138.482196 
L 353.013059 139.548253 
L 351.418903 140.422896 
L 349.723026 141.091762 
L 347.953273 141.54387 
L 346.138704 141.771795 
L 344.309114 141.771795 
L 342.494545 141.54387 
L 340.724792 141.091762 
L 339.028915 140.422896 
L 337.434759 139.548253 
L 335.9685 138.482196 
L 334.654216 137.242229 
L 333.513485 135.848713 
L 332.565039 134.324528 
L 331.824452 132.694702 
L 331.303883 130.985997 
L 331.011881 129.226469 
L 330.953239 127.44501 
L 331.128922 125.670871 
L 331.536044 123.933185 
L 332.167921 122.260482 
L 333.014176 120.68023 
L 334.060915 119.218376 
L 335.29095 117.898923 
L 336.684084 116.743537 
L 338.217441 115.77119 
L 339.865845 114.997846 
L 341.602227 114.436205 
L 343.398078 114.095489 
L 345.223909 113.981292 
" style="fill:none;stroke:#808080;stroke-linecap:square;stroke-width:1.5;"/>
   </g>
   <g id="line2d_78"/>
   <g id="line2d_79"/>
   <g id="line2d_80"/>
   <g id="line2d_81"/>
   <g id="line2d_82"/>
   <g id="line2d_83"/>
   <g id="line2d_84"/>
   <g id="line2d_85"/>
   <g id="line2d_86"/>
   <g id="line2d_87"/>
   <g id="line2d_88"/>
   <g id="line2d_89"/>
   <g id="line2d_90"/>
   <g id="line2d_91"/>
   <g id="line2d_92"/>
   <g id="line2d_93"/>
   <g id="line2d_94"/>
   <g id="line2d_95"/>
   <g id="line2d_96"/>
   <g id="line2d_97"/>
   <g id="line2d_98"/>
   <g id="line2d_99"/>
   <g id="line2d_100"/>
   <g id="line2d_101"/>
   <g id="line2d_102"/>
   <g id="line2d_103"/>
   <g id="line2d_104"/>
   <g id="line2d_105"/>
   <g id="line2d_106"/>
   <g id="line2d_107"/>
   <g id="line2d_108"/>
   <g id="line2d_109"/>
   <g id="line2d_110"/>
   <g id="line2d_111"/>
   <g id="line2d_112"/>
   <g id="line2d_113"/>
   <g id="line2d_114"/>
   <g id="line2d_115"/>
   <g id="line2d_116"/>
   <g id="line2d_117"/>
   <g id="line2d_118"/>
   <g id="line2d_119"/>
   <g id="line2d_120"/>
   <g id="line2d_121"/>
   <g id="line2d_122"/>
   <g id="line2d_123"/>
   <g id="line2d_124"/>
   <g id="line2d_125"/>
   <g id="line2d_126"/>
   <g id="line2d_127"/>
   <g id="line2d_128"/>
   <g id="patch_3">
    <path d="M 90 630 
L 90 86.4 
" style="fill:none;stroke:#000000;stroke-linecap:square;stroke-linejoin:miter;stroke-width:0.8;"/>
   </g>
   <g id="patch_4">
    <path d="M 648 630 
L 648 86.4 
" style="fill:none;stroke:#000000;stroke-linecap:square;stroke-linejoin:miter;stroke-width:0.8;"/>
   </g>
   <g id="patch_5">
    <path d="M 90 630 
L 648 630 
" style="fill:none;stroke:#000000;stroke-linecap:square;stroke-linejoin:miter;stroke-width:0.8;"/>
   </g>
   <g id="patch_6">
    <path d="M 90 86.4 
L 648 86.4 
" style="fill:none;stroke:#000000;stroke-linecap:square;stroke-linejoin:miter;stroke-width:0.8;"/>
   </g>
   <g id="text_13">
    <!-- 0 -->
    <g transform="translate(98.73035 436.034405)scale(0.1 -0.1)">
     <use xlink:href="#DejaVuSans-30"/>
    </g>
   </g>
   <g id="text_14">
    <!-- 0 -->
    <g transform="translate(98.73035 422.124865)scale(0.1 -0.1)">
     <use xlink:href="#DejaVuSans-30"/>
    </g>
   </g>
   <g id="text_15">
    <!-- 0 -->
    <g transform="translate(98.73035 408.215324)scale(0.1 -0.1)">
     <use xlink:href="#DejaVuSans-30"/>
    </g>
   </g>
  </g>
 </g>
 <defs>
  <clipPath id="pe359f1ce5a">
   <rect height="543.6" width="558" x="90" y="86.4"/>
  </clipPath>
 </defs>
</svg>
