<?xml version="1.0" encoding="utf-8" standalone="no"?>
<!DOCTYPE svg PUBLIC "-//W3C//DTD SVG 1.1//EN"
  "http://www.w3.org/Graphics/SVG/1.1/DTD/svg11.dtd">
<svg height="720pt" version="1.1" viewBox="0 0 720 720" width="720pt" xmlns="http://www.w3.org/2000/svg" xmlns:xlink="http://www.w3.org/1999/xlink">
 <metadata>
  <rdf:RDF xmlns:cc="http://creativecommons.org/ns#" xmlns:dc="http://purl.org/dc/elements/1.1/" xmlns:rdf="http://www.w3.org/1999/02/22-rdf-syntax-ns#">
   <cc:Work>
    <dc:type rdf:resource="http://purl.org/dc/dcmitype/StillImage"/>
    <dc:date>2022-01-11T13:26:03.081588</dc:date>
    <dc:format>image/svg+xml</dc:format>
    <dc:creator>
     <cc:Agent>
      <dc:title>Matplotlib v3.4.3, https://matplotlib.org/</dc:title>
     </cc:Agent>
    </dc:creator>
   </cc:Work>
  </rdf:RDF>
 </metadata>
 <defs>
  <style type="text/css">*{stroke-linecap:butt;stroke-linejoin:round;}</style>
 </defs>
 <g id="figure_1">
  <g id="patch_1">
   <path d="M 0 720 
L 720 720 
L 720 0 
L 0 0 
z
" style="fill:none;"/>
  </g>
  <g id="axes_1">
   <g id="patch_2">
    <path d="M 90 630 
L 648 630 
L 648 86.4 
L 90 86.4 
z
" style="fill:#ffffff;"/>
   </g>
   <g id="PathCollection_1">
    <defs>
     <path d="M 0.972304 -8.870829 
Q -1.277159 -8.870829 -2.413438 -6.653699 
Q -3.545098 -4.441189 -3.545098 0.006929 
Q -3.545098 4.436569 -2.413438 6.653699 
Q -1.277159 8.870829 0.972304 8.870829 
Q 3.240243 8.870829 4.371903 6.653699 
Q 5.508182 4.436569 5.508182 0.006929 
Q 5.508182 -4.441189 4.371903 -6.653699 
Q 3.240243 -8.870829 0.972304 -8.870829 
z
M 0.972304 -11.18034 
Q 4.598235 -11.18034 6.51051 -8.311928 
Q 8.422784 -5.448135 8.422784 0.006929 
Q 8.422784 5.448135 6.51051 8.316547 
Q 4.598235 11.18034 0.972304 11.18034 
Q -2.649008 11.18034 -4.561283 8.316547 
Q -6.473558 5.448135 -6.473558 0.006929 
Q -6.473558 -5.448135 -4.561283 -8.311928 
Q -2.649008 -11.18034 0.972304 -11.18034 
z
" id="m12da1034e3" style="stroke:#808080;"/>
    </defs>
    <g clip-path="url(#p004cc9699a)">
     <use style="fill:#808080;stroke:#808080;" x="366.249562" xlink:href="#m12da1034e3" y="166.814771"/>
    </g>
   </g>
   <g id="PathCollection_2">
    <defs>
     <path d="M -4.535873 8.63565 
L 0.404946 8.63565 
L 0.404946 -8.424791 
L -4.971969 -7.346533 
L -4.971969 -10.102082 
L 0.376192 -11.18034 
L 3.400108 -11.18034 
L 3.400108 8.63565 
L 8.340927 8.63565 
L 8.340927 11.18034 
L -4.535873 11.18034 
L -4.535873 8.63565 
z
" id="m1c6327aa34" style="stroke:#808080;"/>
    </defs>
    <g clip-path="url(#p004cc9699a)">
     <use style="fill:#808080;stroke:#808080;" x="224.084543" xlink:href="#m1c6327aa34" y="142.692843"/>
    </g>
   </g>
   <g id="PathCollection_3">
    <defs>
     <path d="M -2.294912 8.680651 
L 8.075736 8.680651 
L 8.075736 11.18034 
L -5.867913 11.18034 
L -5.867913 8.680651 
Q -4.177916 6.929457 -1.259259 3.982555 
Q 1.664105 1.030945 2.4126 0.174178 
Q 3.838976 -1.426376 4.403877 -2.537349 
Q 4.973486 -3.648321 4.973486 -4.721634 
Q 4.973486 -6.472828 3.744825 -7.574386 
Q 2.516165 -8.680651 0.543718 -8.680651 
Q -0.854413 -8.680651 -2.407892 -8.195778 
Q -3.956663 -7.710904 -5.72198 -6.722326 
L -5.72198 -9.725719 
Q -3.928418 -10.445968 -2.370232 -10.813154 
Q -0.807338 -11.18034 0.487227 -11.18034 
Q 3.900173 -11.18034 5.929111 -9.471513 
Q 7.958048 -7.767394 7.958048 -4.914642 
Q 7.958048 -3.558879 7.449637 -2.344341 
Q 6.945933 -1.13451 5.604292 0.513119 
Q 5.237107 0.941502 3.264659 2.979855 
Q 1.296919 5.018207 -2.294912 8.680651 
z
" id="md075ef8105" style="stroke:#808080;"/>
    </defs>
    <g clip-path="url(#p004cc9699a)">
     <use style="fill:#808080;stroke:#808080;" x="131.988596" xlink:href="#md075ef8105" y="303.733164"/>
    </g>
   </g>
   <g id="PathCollection_4">
    <defs>
     <path d="M 3.77605 -0.861447 
Q 5.868466 -0.413402 7.041697 1.004637 
Q 8.219548 2.418057 8.219548 4.496617 
Q 8.219548 7.683741 6.025513 9.43435 
Q 3.831478 11.18034 -0.210165 11.18034 
Q -1.563539 11.18034 -3.000054 10.912437 
Q -4.436569 10.644533 -5.965465 10.108727 
L -5.965465 7.295743 
Q -4.755282 8.002454 -3.314147 8.362737 
Q -1.868394 8.723021 -0.293308 8.723021 
Q 2.445772 8.723021 3.882287 7.64217 
Q 5.318802 6.561319 5.318802 4.496617 
Q 5.318802 2.588961 3.983905 1.517348 
Q 2.649008 0.441116 0.270213 0.441116 
L -2.242535 0.441116 
L -2.242535 -1.956155 
L 0.385688 -1.956155 
Q 2.533533 -1.956155 3.674431 -2.815293 
Q 4.815329 -3.674431 4.815329 -5.291088 
Q 4.815329 -6.949317 3.637479 -7.836169 
Q 2.464248 -8.72764 0.270213 -8.72764 
Q -0.930733 -8.72764 -2.302582 -8.464356 
Q -3.674431 -8.20569 -5.318802 -7.660646 
L -5.318802 -10.256536 
Q -3.655955 -10.718438 -2.205582 -10.949389 
Q -0.75521 -11.18034 0.528878 -11.18034 
Q 3.849954 -11.18034 5.780705 -9.66992 
Q 7.716074 -8.164119 7.716074 -5.595944 
Q 7.716074 -3.803764 6.690652 -2.570485 
Q 5.665229 -1.337207 3.77605 -0.861447 
z
" id="mf8c4e0f414" style="stroke:#808080;"/>
    </defs>
    <g clip-path="url(#p004cc9699a)">
     <use style="fill:#808080;stroke:#808080;" x="141.746275" xlink:href="#mf8c4e0f414" y="476.254667"/>
    </g>
   </g>
   <g id="PathCollection_5">
    <defs>
     <path d="M 2.695646 -8.544598 
L -4.943215 3.392919 
L 2.695646 3.392919 
L 2.695646 -8.544598 
z
M 1.900131 -11.18034 
L 5.705184 -11.18034 
L 5.705184 3.392919 
L 8.896829 3.392919 
L 8.896829 5.908855 
L 5.705184 5.908855 
L 5.705184 11.18034 
L 2.695646 11.18034 
L 2.695646 5.908855 
L -7.396852 5.908855 
L -7.396852 2.99037 
L 1.900131 -11.18034 
z
" id="m8ff58bfca7" style="stroke:#808080;"/>
    </defs>
    <g clip-path="url(#p004cc9699a)">
     <use style="fill:#808080;stroke:#808080;" x="141.746275" xlink:href="#m8ff58bfca7" y="476.254667"/>
    </g>
   </g>
   <g id="PathCollection_6">
    <defs>
     <path d="M -5.008473 -11.18034 
L 6.639575 -11.18034 
L 6.639575 -8.679629 
L -2.291535 -8.679629 
L -2.291535 -3.306861 
Q -1.647555 -3.527789 -1.003575 -3.635902 
Q -0.354894 -3.744015 0.293787 -3.744015 
Q 3.964943 -3.744015 6.108409 -1.732165 
Q 8.256576 0.279685 8.256576 3.715812 
Q 8.256576 7.255352 6.052002 9.220196 
Q 3.847428 11.18034 -0.16217 11.18034 
Q -1.544142 11.18034 -2.97782 10.945311 
Q -4.406798 10.710281 -5.934488 10.240223 
L -5.934488 7.255352 
Q -4.613624 7.974541 -3.203448 8.327085 
Q -1.793273 8.679629 -0.223278 8.679629 
Q 2.319738 8.679629 3.800422 7.344663 
Q 5.285807 6.009697 5.285807 3.715812 
Q 5.285807 1.426627 3.800422 0.091661 
Q 2.319738 -1.248005 -0.223278 -1.248005 
Q -1.412526 -1.248005 -2.597073 -0.984772 
Q -3.77692 -0.72154 -5.008473 -0.16217 
L -5.008473 -11.18034 
z
" id="m33dcaf2ba9" style="stroke:#808080;"/>
    </defs>
    <g clip-path="url(#p004cc9699a)">
     <use style="fill:#808080;stroke:#808080;" x="307.781177" xlink:href="#m33dcaf2ba9" y="519.845015"/>
    </g>
   </g>
   <g id="PathCollection_7">
    <defs>
     <path d="M 1.286397 -1.175541 
Q -0.676687 -1.175541 -1.826823 0.168594 
Q -2.97234 1.50811 -2.97234 3.845335 
Q -2.97234 6.168702 -1.826823 7.522075 
Q -0.676687 8.870829 1.286397 8.870829 
Q 3.249481 8.870829 4.394998 7.522075 
Q 5.540515 6.168702 5.540515 3.845335 
Q 5.540515 1.50811 4.394998 0.168594 
Q 3.249481 -1.175541 1.286397 -1.175541 
z
M 7.07403 -10.316583 
L 7.07403 -7.660646 
Q 5.974703 -8.177976 4.8569 -8.450499 
Q 3.739097 -8.72764 2.63977 -8.72764 
Q -0.247118 -8.72764 -1.771394 -6.778413 
Q -3.291052 -4.829186 -3.508146 -0.889162 
Q -2.658246 -2.145535 -1.374159 -2.815293 
Q -0.085452 -3.485051 1.457301 -3.485051 
Q 4.704473 -3.485051 6.589033 -1.512729 
Q 8.473594 0.454974 8.473594 3.845335 
Q 8.473594 7.166411 6.51051 9.175685 
Q 4.547426 11.18034 1.286397 11.18034 
Q -2.45501 11.18034 -4.43195 8.316547 
Q -6.408891 5.448135 -6.408891 0.006929 
Q -6.408891 -5.101708 -3.983905 -8.141024 
Q -1.55892 -11.18034 2.524295 -11.18034 
Q 3.623622 -11.18034 4.741425 -10.963246 
Q 5.859228 -10.746152 7.07403 -10.316583 
z
" id="mcb7f5cbe8a" style="stroke:#808080;"/>
    </defs>
    <g clip-path="url(#p004cc9699a)">
     <use style="fill:#808080;stroke:#808080;" x="475.647986" xlink:href="#mcb7f5cbe8a" y="542.468145"/>
    </g>
   </g>
   <g id="PathCollection_8">
    <defs>
     <path d="M -5.93042 -11.18034 
L 8.446356 -11.18034 
L 8.446356 -9.891222 
L 0.32827 11.18034 
L -2.829829 11.18034 
L 4.809032 -8.630858 
L -5.93042 -8.630858 
L -5.93042 -11.18034 
z
" id="m6f0c0e742f" style="stroke:#808080;"/>
    </defs>
    <g clip-path="url(#p004cc9699a)">
     <use style="fill:#808080;stroke:#808080;" x="436.477515" xlink:href="#m6f0c0e742f" y="459.997143"/>
    </g>
   </g>
   <g id="PathCollection_9">
    <defs>
     <path d="M 1.002328 0.524259 
Q -1.076232 0.524259 -2.267939 1.637443 
Q -3.455028 2.750627 -3.455028 4.695235 
Q -3.455028 6.644461 -2.267939 7.757645 
Q -1.076232 8.870829 1.002328 8.870829 
Q 3.080887 8.870829 4.277213 7.753026 
Q 5.478159 6.630604 5.478159 4.695235 
Q 5.478159 2.750627 4.286451 1.637443 
Q 3.099363 0.524259 1.002328 0.524259 
z
M -1.912275 -0.713639 
Q -3.787597 -1.175541 -4.836115 -2.459629 
Q -5.880014 -3.748335 -5.880014 -5.595944 
Q -5.880014 -8.177976 -4.041643 -9.679158 
Q -2.198654 -11.18034 1.002328 -11.18034 
Q 4.221785 -11.18034 6.055536 -9.679158 
Q 7.889288 -8.177976 7.889288 -5.595944 
Q 7.889288 -3.748335 6.84077 -2.459629 
Q 5.796871 -1.175541 3.935406 -0.713639 
Q 6.041679 -0.224023 7.214911 1.207874 
Q 8.392761 2.635151 8.392761 4.695235 
Q 8.392761 7.83155 6.480486 9.508254 
Q 4.568212 11.18034 1.002328 11.18034 
Q -2.558938 11.18034 -4.475831 9.508254 
Q -6.388106 7.83155 -6.388106 4.695235 
Q -6.388106 2.635151 -5.205636 1.207874 
Q -4.018548 -0.224023 -1.912275 -0.713639 
z
M -2.979268 -5.318802 
Q -2.979268 -3.646717 -1.93537 -2.709056 
Q -0.886852 -1.771394 1.002328 -1.771394 
Q 2.882269 -1.771394 3.940025 -2.709056 
Q 5.0024 -3.646717 5.0024 -5.318802 
Q 5.0024 -6.995507 3.940025 -7.933168 
Q 2.882269 -8.870829 1.002328 -8.870829 
Q -0.886852 -8.870829 -1.93537 -7.933168 
Q -2.979268 -6.995507 -2.979268 -5.318802 
z
" id="m9ae926f737" style="stroke:#808080;"/>
    </defs>
    <g clip-path="url(#p004cc9699a)">
     <use style="fill:#808080;stroke:#808080;" x="394.81398" xlink:href="#m9ae926f737" y="335.360988"/>
    </g>
   </g>
   <g id="PathCollection_10">
    <defs>
     <path d="M -5.117875 10.311964 
L -5.117875 7.656027 
Q -4.018548 8.177976 -2.896126 8.450499 
Q -1.769085 8.723021 -0.683615 8.723021 
Q 2.203273 8.723021 3.722931 6.783032 
Q 5.247208 4.843043 5.464302 0.884542 
Q 4.628259 2.127059 3.339552 2.792198 
Q 2.055464 3.457337 0.498854 3.457337 
Q -2.73446 3.457337 -4.619021 1.503491 
Q -6.503581 -0.454974 -6.503581 -3.849954 
Q -6.503581 -7.166411 -4.540497 -9.171066 
Q -2.577414 -11.18034 0.683615 -11.18034 
Q 4.425022 -11.18034 6.392725 -8.311928 
Q 8.365047 -5.448135 8.365047 0.006929 
Q 8.365047 5.101708 5.94468 8.141024 
Q 3.528932 11.18034 -0.554282 11.18034 
Q -1.653609 11.18034 -2.780651 10.963246 
Q -3.903073 10.746152 -5.117875 10.311964 
z
M 0.683615 1.175541 
Q 2.646699 1.175541 3.792216 -0.163975 
Q 4.942352 -1.50811 4.942352 -3.849954 
Q 4.942352 -6.173321 3.792216 -7.522075 
Q 2.646699 -8.870829 0.683615 -8.870829 
Q -1.279469 -8.870829 -2.424986 -7.522075 
Q -3.570503 -6.173321 -3.570503 -3.849954 
Q -3.570503 -1.50811 -2.424986 -0.163975 
Q -1.279469 1.175541 0.683615 1.175541 
z
" id="mb81510cfb6" style="stroke:#808080;"/>
    </defs>
    <g clip-path="url(#p004cc9699a)">
     <use style="fill:#808080;stroke:#808080;" x="394.81398" xlink:href="#mb81510cfb6" y="335.360988"/>
    </g>
   </g>
   <g id="PathCollection_11"/>
   <g id="PathCollection_12"/>
   <g id="PathCollection_13"/>
   <g id="PathCollection_14"/>
   <g id="PathCollection_15"/>
   <g id="matplotlib.axis_1">
    <g id="xtick_1">
     <g id="line2d_1">
      <defs>
       <path d="M 0 0 
L 0 3.5 
" id="me246fd214d" style="stroke:#000000;stroke-width:0.8;"/>
      </defs>
      <g>
       <use style="stroke:#000000;stroke-width:0.8;" x="163.721815" xlink:href="#me246fd214d" y="630"/>
      </g>
     </g>
     <g id="text_1">
      <!-- −200 -->
      <g transform="translate(149.988221 644.598438)scale(0.1 -0.1)">
       <defs>
        <path d="M 678 2272 
L 4684 2272 
L 4684 1741 
L 678 1741 
L 678 2272 
z
" id="DejaVuSans-2212" transform="scale(0.015625)"/>
        <path d="M 1228 531 
L 3431 531 
L 3431 0 
L 469 0 
L 469 531 
Q 828 903 1448 1529 
Q 2069 2156 2228 2338 
Q 2531 2678 2651 2914 
Q 2772 3150 2772 3378 
Q 2772 3750 2511 3984 
Q 2250 4219 1831 4219 
Q 1534 4219 1204 4116 
Q 875 4013 500 3803 
L 500 4441 
Q 881 4594 1212 4672 
Q 1544 4750 1819 4750 
Q 2544 4750 2975 4387 
Q 3406 4025 3406 3419 
Q 3406 3131 3298 2873 
Q 3191 2616 2906 2266 
Q 2828 2175 2409 1742 
Q 1991 1309 1228 531 
z
" id="DejaVuSans-32" transform="scale(0.015625)"/>
        <path d="M 2034 4250 
Q 1547 4250 1301 3770 
Q 1056 3291 1056 2328 
Q 1056 1369 1301 889 
Q 1547 409 2034 409 
Q 2525 409 2770 889 
Q 3016 1369 3016 2328 
Q 3016 3291 2770 3770 
Q 2525 4250 2034 4250 
z
M 2034 4750 
Q 2819 4750 3233 4129 
Q 3647 3509 3647 2328 
Q 3647 1150 3233 529 
Q 2819 -91 2034 -91 
Q 1250 -91 836 529 
Q 422 1150 422 2328 
Q 422 3509 836 4129 
Q 1250 4750 2034 4750 
z
" id="DejaVuSans-30" transform="scale(0.015625)"/>
       </defs>
       <use xlink:href="#DejaVuSans-2212"/>
       <use x="83.789062" xlink:href="#DejaVuSans-32"/>
       <use x="147.412109" xlink:href="#DejaVuSans-30"/>
       <use x="211.035156" xlink:href="#DejaVuSans-30"/>
      </g>
     </g>
    </g>
    <g id="xtick_2">
     <g id="line2d_2">
      <g>
       <use style="stroke:#000000;stroke-width:0.8;" x="245.162876" xlink:href="#me246fd214d" y="630"/>
      </g>
     </g>
     <g id="text_2">
      <!-- −100 -->
      <g transform="translate(231.429283 644.598438)scale(0.1 -0.1)">
       <defs>
        <path d="M 794 531 
L 1825 531 
L 1825 4091 
L 703 3866 
L 703 4441 
L 1819 4666 
L 2450 4666 
L 2450 531 
L 3481 531 
L 3481 0 
L 794 0 
L 794 531 
z
" id="DejaVuSans-31" transform="scale(0.015625)"/>
       </defs>
       <use xlink:href="#DejaVuSans-2212"/>
       <use x="83.789062" xlink:href="#DejaVuSans-31"/>
       <use x="147.412109" xlink:href="#DejaVuSans-30"/>
       <use x="211.035156" xlink:href="#DejaVuSans-30"/>
      </g>
     </g>
    </g>
    <g id="xtick_3">
     <g id="line2d_3">
      <g>
       <use style="stroke:#000000;stroke-width:0.8;" x="326.603938" xlink:href="#me246fd214d" y="630"/>
      </g>
     </g>
     <g id="text_3">
      <!-- 0 -->
      <g transform="translate(323.422688 644.598438)scale(0.1 -0.1)">
       <use xlink:href="#DejaVuSans-30"/>
      </g>
     </g>
    </g>
    <g id="xtick_4">
     <g id="line2d_4">
      <g>
       <use style="stroke:#000000;stroke-width:0.8;" x="408.044999" xlink:href="#me246fd214d" y="630"/>
      </g>
     </g>
     <g id="text_4">
      <!-- 100 -->
      <g transform="translate(398.501249 644.598438)scale(0.1 -0.1)">
       <use xlink:href="#DejaVuSans-31"/>
       <use x="63.623047" xlink:href="#DejaVuSans-30"/>
       <use x="127.246094" xlink:href="#DejaVuSans-30"/>
      </g>
     </g>
    </g>
    <g id="xtick_5">
     <g id="line2d_5">
      <g>
       <use style="stroke:#000000;stroke-width:0.8;" x="489.486061" xlink:href="#me246fd214d" y="630"/>
      </g>
     </g>
     <g id="text_5">
      <!-- 200 -->
      <g transform="translate(479.942311 644.598438)scale(0.1 -0.1)">
       <use xlink:href="#DejaVuSans-32"/>
       <use x="63.623047" xlink:href="#DejaVuSans-30"/>
       <use x="127.246094" xlink:href="#DejaVuSans-30"/>
      </g>
     </g>
    </g>
    <g id="xtick_6">
     <g id="line2d_6">
      <g>
       <use style="stroke:#000000;stroke-width:0.8;" x="570.927123" xlink:href="#me246fd214d" y="630"/>
      </g>
     </g>
     <g id="text_6">
      <!-- 300 -->
      <g transform="translate(561.383373 644.598438)scale(0.1 -0.1)">
       <defs>
        <path d="M 2597 2516 
Q 3050 2419 3304 2112 
Q 3559 1806 3559 1356 
Q 3559 666 3084 287 
Q 2609 -91 1734 -91 
Q 1441 -91 1130 -33 
Q 819 25 488 141 
L 488 750 
Q 750 597 1062 519 
Q 1375 441 1716 441 
Q 2309 441 2620 675 
Q 2931 909 2931 1356 
Q 2931 1769 2642 2001 
Q 2353 2234 1838 2234 
L 1294 2234 
L 1294 2753 
L 1863 2753 
Q 2328 2753 2575 2939 
Q 2822 3125 2822 3475 
Q 2822 3834 2567 4026 
Q 2313 4219 1838 4219 
Q 1578 4219 1281 4162 
Q 984 4106 628 3988 
L 628 4550 
Q 988 4650 1302 4700 
Q 1616 4750 1894 4750 
Q 2613 4750 3031 4423 
Q 3450 4097 3450 3541 
Q 3450 3153 3228 2886 
Q 3006 2619 2597 2516 
z
" id="DejaVuSans-33" transform="scale(0.015625)"/>
       </defs>
       <use xlink:href="#DejaVuSans-33"/>
       <use x="63.623047" xlink:href="#DejaVuSans-30"/>
       <use x="127.246094" xlink:href="#DejaVuSans-30"/>
      </g>
     </g>
    </g>
   </g>
   <g id="matplotlib.axis_2">
    <g id="ytick_1">
     <g id="line2d_7">
      <defs>
       <path d="M 0 0 
L -3.5 0 
" id="m9932a39e73" style="stroke:#000000;stroke-width:0.8;"/>
      </defs>
      <g>
       <use style="stroke:#000000;stroke-width:0.8;" x="90" xlink:href="#m9932a39e73" y="558.180684"/>
      </g>
     </g>
     <g id="text_7">
      <!-- −200 -->
      <g transform="translate(55.532812 561.979902)scale(0.1 -0.1)">
       <use xlink:href="#DejaVuSans-2212"/>
       <use x="83.789062" xlink:href="#DejaVuSans-32"/>
       <use x="147.412109" xlink:href="#DejaVuSans-30"/>
       <use x="211.035156" xlink:href="#DejaVuSans-30"/>
      </g>
     </g>
    </g>
    <g id="ytick_2">
     <g id="line2d_8">
      <g>
       <use style="stroke:#000000;stroke-width:0.8;" x="90" xlink:href="#m9932a39e73" y="478.841327"/>
      </g>
     </g>
     <g id="text_8">
      <!-- −100 -->
      <g transform="translate(55.532812 482.640546)scale(0.1 -0.1)">
       <use xlink:href="#DejaVuSans-2212"/>
       <use x="83.789062" xlink:href="#DejaVuSans-31"/>
       <use x="147.412109" xlink:href="#DejaVuSans-30"/>
       <use x="211.035156" xlink:href="#DejaVuSans-30"/>
      </g>
     </g>
    </g>
    <g id="ytick_3">
     <g id="line2d_9">
      <g>
       <use style="stroke:#000000;stroke-width:0.8;" x="90" xlink:href="#m9932a39e73" y="399.50197"/>
      </g>
     </g>
     <g id="text_9">
      <!-- 0 -->
      <g transform="translate(76.6375 403.301189)scale(0.1 -0.1)">
       <use xlink:href="#DejaVuSans-30"/>
      </g>
     </g>
    </g>
    <g id="ytick_4">
     <g id="line2d_10">
      <g>
       <use style="stroke:#000000;stroke-width:0.8;" x="90" xlink:href="#m9932a39e73" y="320.162613"/>
      </g>
     </g>
     <g id="text_10">
      <!-- 100 -->
      <g transform="translate(63.9125 323.961832)scale(0.1 -0.1)">
       <use xlink:href="#DejaVuSans-31"/>
       <use x="63.623047" xlink:href="#DejaVuSans-30"/>
       <use x="127.246094" xlink:href="#DejaVuSans-30"/>
      </g>
     </g>
    </g>
    <g id="ytick_5">
     <g id="line2d_11">
      <g>
       <use style="stroke:#000000;stroke-width:0.8;" x="90" xlink:href="#m9932a39e73" y="240.823257"/>
      </g>
     </g>
     <g id="text_11">
      <!-- 200 -->
      <g transform="translate(63.9125 244.622475)scale(0.1 -0.1)">
       <use xlink:href="#DejaVuSans-32"/>
       <use x="63.623047" xlink:href="#DejaVuSans-30"/>
       <use x="127.246094" xlink:href="#DejaVuSans-30"/>
      </g>
     </g>
    </g>
    <g id="ytick_6">
     <g id="line2d_12">
      <g>
       <use style="stroke:#000000;stroke-width:0.8;" x="90" xlink:href="#m9932a39e73" y="161.4839"/>
      </g>
     </g>
     <g id="text_12">
      <!-- 300 -->
      <g transform="translate(63.9125 165.283119)scale(0.1 -0.1)">
       <use xlink:href="#DejaVuSans-33"/>
       <use x="63.623047" xlink:href="#DejaVuSans-30"/>
       <use x="127.246094" xlink:href="#DejaVuSans-30"/>
      </g>
     </g>
    </g>
   </g>
   <g id="line2d_13">
    <path clip-path="url(#p004cc9699a)" d="M 394.81398 335.360988 
L 397.467393 332.320119 
L 399.780492 329.025686 
L 401.763533 325.53286 
L 403.436818 321.889533 
L 404.82558 318.134678 
L 405.956266 314.29872 
L 406.854301 310.404834 
L 407.54296 306.470462 
L 408.042966 302.508678 
L 408.372481 298.529304 
L 408.547291 294.539767 
L 408.581074 290.54573 
L 408.485675 286.551558 
L 408.271365 282.560657 
L 407.947074 278.575715 
L 407.520584 274.598883 
L 406.998703 270.631906 
L 406.387402 266.67622 
L 405.691932 262.73302 
L 404.916927 258.803324 
L 404.06648 254.888002 
L 403.144214 250.987819 
L 402.153339 247.103455 
L 401.096702 243.235527 
L 399.976823 239.384604 
L 398.795934 235.551221 
L 397.556003 231.73589 
L 396.258762 227.939112 
L 394.905728 224.161384 
L 393.498214 220.403206 
L 392.037354 216.665089 
L 390.524105 212.947565 
L 388.959263 209.25119 
L 387.343471 205.57655 
L 385.677222 201.924275 
L 383.960869 198.295039 
L 382.194626 194.68957 
L 380.37857 191.108662 
L 378.512645 187.553181 
L 376.596659 184.024074 
L 374.630287 180.522386 
L 372.613066 177.049267 
L 370.544394 173.60599 
L 368.423524 170.193968 
L 366.249562 166.814771 
" style="fill:none;stroke:#808080;stroke-linecap:square;stroke-width:1.5;"/>
   </g>
   <g id="line2d_14">
    <path clip-path="url(#p004cc9699a)" d="M 366.249562 335.360988 
L 366.249562 166.814771 
L 408.581074 166.814771 
L 408.581074 335.360988 
L 366.249562 335.360988 
" style="fill:none;stroke:#d3d3d3;stroke-linecap:square;stroke-width:0.5;"/>
   </g>
   <g id="line2d_15">
    <path clip-path="url(#p004cc9699a)" d="M 366.249562 166.814771 
L 364.021461 163.470151 
L 361.738012 160.162065 
L 359.397838 156.892705 
L 356.999389 153.664532 
L 354.540929 150.480319 
L 352.020531 147.343194 
L 349.436068 144.256698 
L 346.785208 141.224844 
L 344.06541 138.252201 
L 341.273925 135.343973 
L 338.407803 132.506108 
L 335.463914 129.745413 
L 332.438977 127.069692 
L 329.329619 124.487902 
L 326.13246 122.010323 
L 322.844242 119.648738 
L 319.462014 117.416622 
L 315.983399 115.329301 
L 312.406943 113.404076 
L 308.732589 111.660234 
L 304.962257 110.118901 
L 301.100526 108.802632 
L 297.155367 107.734648 
L 293.138793 106.937636 
L 289.067266 106.43211 
L 284.961628 106.23445 
L 280.846365 106.354915 
L 276.748132 106.796073 
L 272.69372 107.552099 
L 268.707836 108.609216 
L 264.811203 109.947219 
L 261.019379 111.541673 
L 257.342429 113.366263 
L 253.785345 115.394816 
L 250.348934 117.602734 
L 247.030882 119.967813 
L 243.826776 122.470552 
L 240.730963 125.094105 
L 237.737194 127.82405 
L 234.839089 130.648052 
L 232.030428 133.555529 
L 229.305332 136.537329 
L 226.65836 139.585458 
L 224.084543 142.692843 
" style="fill:none;stroke:#808080;stroke-linecap:square;stroke-width:1.5;"/>
   </g>
   <g id="line2d_16">
    <path clip-path="url(#p004cc9699a)" d="M 224.084543 166.814771 
L 224.084543 106.23445 
L 366.249562 106.23445 
L 366.249562 166.814771 
L 224.084543 166.814771 
" style="fill:none;stroke:#d3d3d3;stroke-linecap:square;stroke-width:0.5;"/>
   </g>
   <g id="line2d_17">
    <path clip-path="url(#p004cc9699a)" d="M 224.084543 142.692843 
L 221.540883 145.861396 
L 219.02449 149.050359 
L 216.534635 152.258901 
L 214.070681 155.486289 
L 211.632063 158.731872 
L 209.21829 161.995063 
L 206.828929 165.275336 
L 204.463605 168.572212 
L 202.121992 171.885252 
L 199.80381 175.214055 
L 197.508821 178.558254 
L 195.236824 181.917509 
L 192.987652 185.291505 
L 190.761172 188.679951 
L 188.557281 192.082577 
L 186.375903 195.499132 
L 184.216991 198.929384 
L 182.080521 202.373114 
L 179.966495 205.830119 
L 177.874937 209.300212 
L 175.805896 212.783215 
L 173.75944 216.278964 
L 171.73566 219.787307 
L 169.73467 223.308101 
L 167.756603 226.841213 
L 165.801614 230.386521 
L 163.869877 233.943909 
L 161.961591 237.513272 
L 160.076974 241.094513 
L 158.216265 244.687542 
L 156.379728 248.292278 
L 154.567647 251.908645 
L 152.780331 255.536577 
L 151.018113 259.176012 
L 149.281351 262.826897 
L 147.57043 266.489185 
L 145.885762 270.162836 
L 144.227786 273.847814 
L 142.596973 277.544091 
L 140.993826 281.251645 
L 139.418881 284.970459 
L 137.87271 288.70052 
L 136.355924 292.441821 
L 134.869172 296.19436 
L 133.413149 299.95814 
L 131.988596 303.733164 
" style="fill:none;stroke:#808080;stroke-linecap:square;stroke-width:1.5;"/>
   </g>
   <g id="line2d_18">
    <path clip-path="url(#p004cc9699a)" d="M 131.988596 303.733164 
L 131.988596 142.692843 
L 224.084543 142.692843 
L 224.084543 303.733164 
L 131.988596 303.733164 
" style="fill:none;stroke:#d3d3d3;stroke-linecap:square;stroke-width:0.5;"/>
   </g>
   <g id="line2d_19">
    <path clip-path="url(#p004cc9699a)" d="M 131.988596 303.733164 
L 130.596303 307.51944 
L 129.237115 311.31698 
L 127.911934 315.125793 
L 126.621725 318.945891 
L 125.367523 322.777282 
L 124.150432 326.619973 
L 122.97164 330.473965 
L 121.832422 334.339252 
L 120.734145 338.215817 
L 119.678282 342.10363 
L 118.666418 346.002646 
L 117.700264 349.912794 
L 116.781664 353.833981 
L 115.912614 357.766076 
L 115.095274 361.708912 
L 114.331983 365.662269 
L 113.625282 369.625868 
L 112.977929 373.59936 
L 112.392928 377.582305 
L 111.87355 381.574161 
L 111.423362 385.57426 
L 111.046263 389.581781 
L 110.746513 393.595722 
L 110.528773 397.614866 
L 110.398151 401.637729 
L 110.360239 405.662515 
L 110.421168 409.687046 
L 110.58765 413.708685 
L 110.867031 417.724242 
L 111.267329 421.729859 
L 111.797271 425.720873 
L 112.466309 429.691651 
L 113.2846 433.635404 
L 114.262949 437.543959 
L 115.412679 441.407532 
L 116.745398 445.214471 
L 118.272642 448.951032 
L 120.005359 452.601218 
L 121.953203 456.146747 
L 124.123666 459.567236 
L 126.521095 462.840694 
L 129.145721 465.944386 
L 131.992889 468.856056 
L 135.052695 471.555414 
L 138.310205 474.025644 
L 141.746275 476.254667 
" style="fill:none;stroke:#808080;stroke-linecap:square;stroke-width:1.5;"/>
   </g>
   <g id="line2d_20">
    <path clip-path="url(#p004cc9699a)" d="M 110.360239 476.254667 
L 110.360239 303.733164 
L 141.746275 303.733164 
L 141.746275 476.254667 
L 110.360239 476.254667 
" style="fill:none;stroke:#d3d3d3;stroke-linecap:square;stroke-width:0.5;"/>
   </g>
   <g id="line2d_21">
    <path clip-path="url(#p004cc9699a)" d="M 141.746275 476.254667 
" style="fill:none;stroke:#808080;stroke-linecap:square;stroke-width:1.5;"/>
   </g>
   <g id="line2d_22">
    <path clip-path="url(#p004cc9699a)" d="M 141.746275 476.254667 
L 141.746275 476.254667 
L 141.746275 476.254667 
L 141.746275 476.254667 
L 141.746275 476.254667 
" style="fill:none;stroke:#d3d3d3;stroke-linecap:square;stroke-width:0.5;"/>
   </g>
   <g id="line2d_23">
    <path clip-path="url(#p004cc9699a)" d="M 141.746275 476.254667 
L 145.287327 478.345844 
L 148.854589 480.39429 
L 152.448769 482.397608 
L 156.070501 484.353391 
L 159.720316 486.25925 
L 163.398602 488.112834 
L 167.105582 489.911869 
L 170.841286 491.654201 
L 174.605539 493.337837 
L 178.397949 494.961 
L 182.217907 496.522175 
L 186.064596 498.020157 
L 189.937009 499.454091 
L 193.833967 500.823502 
L 197.75415 502.12832 
L 201.696129 503.368883 
L 205.658399 504.54594 
L 209.639416 505.660629 
L 213.637622 506.714454 
L 217.651481 507.709245 
L 221.6795 508.64712 
L 225.720251 509.530433 
L 229.772384 510.361734 
L 233.834641 511.14371 
L 237.905858 511.87915 
L 241.984973 512.570899 
L 246.071021 513.221818 
L 250.163132 513.834759 
L 254.260531 514.412531 
L 258.362525 514.957884 
L 262.468502 515.473489 
L 266.577922 515.961925 
L 270.69031 516.425673 
L 274.805251 516.867106 
L 278.922379 517.288493 
L 283.041375 517.69199 
L 287.161962 518.079647 
L 291.283894 518.453411 
L 295.406959 518.815127 
L 299.530968 519.166542 
L 303.655756 519.509314 
L 307.781177 519.845015 
" style="fill:none;stroke:#808080;stroke-linecap:square;stroke-width:1.5;"/>
   </g>
   <g id="line2d_24">
    <path clip-path="url(#p004cc9699a)" d="M 141.746275 519.845015 
L 141.746275 476.254667 
L 307.781177 476.254667 
L 307.781177 519.845015 
L 141.746275 519.845015 
" style="fill:none;stroke:#d3d3d3;stroke-linecap:square;stroke-width:0.5;"/>
   </g>
   <g id="line2d_25">
    <path clip-path="url(#p004cc9699a)" d="M 307.781177 519.845015 
L 311.9071 520.175136 
L 316.033407 520.501095 
L 320.159991 520.824242 
L 324.286754 521.145866 
L 328.413605 521.467196 
L 332.540456 521.789415 
L 336.667224 522.113657 
L 340.793828 522.44102 
L 344.920185 522.772565 
L 349.046213 523.109325 
L 353.171826 523.45231 
L 357.296936 523.80251 
L 361.421446 524.160902 
L 365.545256 524.528454 
L 369.668256 524.906132 
L 373.790326 525.294902 
L 377.911336 525.695739 
L 382.03114 526.109628 
L 386.149579 526.537577 
L 390.266478 526.980615 
L 394.38164 527.439805 
L 398.494848 527.916251 
L 402.605858 528.411101 
L 406.714402 528.925562 
L 410.820178 529.460908 
L 414.922849 530.018491 
L 419.022039 530.599757 
L 423.117325 531.206256 
L 427.208232 531.839669 
L 431.294225 532.501821 
L 435.374697 533.194713 
L 439.448959 533.920547 
L 443.516219 534.68177 
L 447.575567 535.481115 
L 451.62594 536.321659 
L 455.66609 537.206894 
L 459.694528 538.140815 
L 463.709453 539.12803 
L 467.708651 540.173913 
L 471.689345 541.28478 
L 475.647986 542.468145 
" style="fill:none;stroke:#808080;stroke-linecap:square;stroke-width:1.5;"/>
   </g>
   <g id="line2d_26">
    <path clip-path="url(#p004cc9699a)" d="M 307.781177 542.468145 
L 307.781177 519.845015 
L 475.647986 519.845015 
L 475.647986 542.468145 
L 307.781177 542.468145 
" style="fill:none;stroke:#d3d3d3;stroke-linecap:square;stroke-width:0.5;"/>
   </g>
   <g id="line2d_27">
    <path clip-path="url(#p004cc9699a)" d="M 475.647986 542.468145 
L 479.584082 543.652495 
L 483.542309 544.762222 
L 487.526904 545.775467 
L 491.54323 546.657882 
L 495.597541 547.350254 
L 499.693671 547.735186 
L 503.802653 547.519628 
L 507.426841 545.745562 
L 508.199813 541.938831 
L 506.909876 538.150975 
L 504.951826 534.632246 
L 502.69542 531.288351 
L 500.270168 528.060092 
L 497.736001 524.912714 
L 495.125865 521.824409 
L 492.460057 518.78059 
L 489.75214 515.770964 
L 487.011733 512.787944 
L 484.245997 509.825729 
L 481.460463 506.879742 
L 478.659545 503.946273 
L 475.846866 501.02224 
L 473.02547 498.105022 
L 470.197975 495.192351 
L 467.366681 492.282221 
L 464.533643 489.37283 
L 461.700737 486.462531 
L 458.869704 483.549797 
L 456.042184 480.63319 
L 453.219751 477.711337 
L 450.403937 474.782912 
L 447.596255 471.846621 
L 444.798217 468.901181 
L 442.011356 465.945316 
L 439.237246 462.977739 
L 436.477515 459.997143 
" style="fill:none;stroke:#808080;stroke-linecap:square;stroke-width:1.5;"/>
   </g>
   <g id="line2d_28">
    <path clip-path="url(#p004cc9699a)" d="M 436.477515 547.735186 
L 436.477515 459.997143 
L 508.199813 459.997143 
L 508.199813 547.735186 
L 436.477515 547.735186 
" style="fill:none;stroke:#d3d3d3;stroke-linecap:square;stroke-width:0.5;"/>
   </g>
   <g id="line2d_29">
    <path clip-path="url(#p004cc9699a)" d="M 436.477515 459.997143 
L 433.733868 457.00219 
L 431.008107 453.991503 
L 428.302149 450.963654 
L 425.618056 447.917153 
L 422.958056 444.850441 
L 420.324576 441.761875 
L 417.720277 438.64972 
L 415.148093 435.512139 
L 412.611282 432.347176 
L 410.113477 429.152751 
L 407.658757 425.926646 
L 405.251725 422.666495 
L 402.897603 419.369778 
L 400.602346 416.033817 
L 398.372784 412.65578 
L 396.216784 409.232695 
L 394.143453 405.761484 
L 392.163377 402.23902 
L 390.288907 398.662224 
L 388.534481 395.028228 
L 386.916998 391.334619 
L 385.45619 387.579811 
L 384.174981 383.763592 
L 383.0997 379.887893 
L 382.260017 375.957805 
L 381.688325 371.982837 
L 381.418272 367.978252 
L 381.482146 363.966114 
L 381.907101 359.975473 
L 382.710766 356.04102 
L 383.897464 352.199924 
L 385.456557 348.487393 
L 387.363768 344.932306 
L 389.585055 341.554372 
L 392.081548 338.363494 
L 394.81398 335.360988 
" style="fill:none;stroke:#808080;stroke-linecap:square;stroke-width:1.5;"/>
   </g>
   <g id="line2d_30">
    <path clip-path="url(#p004cc9699a)" d="M 381.418272 459.997143 
L 381.418272 335.360988 
L 436.477515 335.360988 
L 436.477515 459.997143 
L 381.418272 459.997143 
" style="fill:none;stroke:#d3d3d3;stroke-linecap:square;stroke-width:0.5;"/>
   </g>
   <g id="line2d_31">
    <path clip-path="url(#p004cc9699a)" d="M 394.81398 335.360988 
" style="fill:none;stroke:#808080;stroke-linecap:square;stroke-width:1.5;"/>
   </g>
   <g id="line2d_32">
    <path clip-path="url(#p004cc9699a)" d="M 394.81398 335.360988 
L 394.81398 335.360988 
L 394.81398 335.360988 
L 394.81398 335.360988 
L 394.81398 335.360988 
" style="fill:none;stroke:#d3d3d3;stroke-linecap:square;stroke-width:0.5;"/>
   </g>
   <g id="line2d_33">
    <path clip-path="url(#p004cc9699a)" d="M 478.115989 534.907284 
L 478.115989 534.907284 
L 478.115989 534.907284 
" style="fill:none;stroke:#000000;stroke-linecap:square;stroke-width:3;"/>
   </g>
   <g id="line2d_34">
    <path clip-path="url(#p004cc9699a)" d="M 478.115989 534.907284 
L 478.115989 534.907284 
L 478.115989 534.907284 
L 478.115989 534.907284 
L 478.115989 534.907284 
" style="fill:none;stroke:#d3d3d3;stroke-linecap:square;stroke-width:0.5;"/>
   </g>
   <g id="line2d_35">
    <path clip-path="url(#p004cc9699a)" d="M 478.115989 534.907284 
L 478.115989 534.907284 
L 478.115989 534.907284 
" style="fill:none;stroke:#000000;stroke-linecap:square;stroke-width:3;"/>
   </g>
   <g id="line2d_36">
    <path clip-path="url(#p004cc9699a)" d="M 478.115989 534.907284 
L 478.115989 534.907284 
L 478.115989 534.907284 
L 478.115989 534.907284 
L 478.115989 534.907284 
" style="fill:none;stroke:#d3d3d3;stroke-linecap:square;stroke-width:0.5;"/>
   </g>
   <g id="line2d_37">
    <path clip-path="url(#p004cc9699a)" d="M 146.009572 469.494665 
L 146.009572 469.494665 
L 149.466771 471.536327 
L 152.945354 473.533857 
L 156.44596 475.485025 
L 159.969215 477.387635 
L 163.515701 479.239544 
L 167.085937 481.038685 
L 170.68036 482.7831 
L 174.299307 484.470981 
L 177.943006 486.100701 
L 181.611562 487.670858 
L 185.304959 489.180311 
L 189.023053 490.628217 
L 192.765575 492.014053 
L 196.532135 493.337641 
L 200.322231 494.599157 
L 204.135252 495.799133 
L 207.970491 496.938449 
L 211.827157 498.018315 
L 215.704388 499.040248 
L 219.60126 500.006039 
L 223.516809 500.91772 
L 227.450035 501.777523 
L 231.399928 502.587842 
L 235.36547 503.351195 
L 239.345654 504.070185 
L 243.339494 504.747467 
L 247.346031 505.385715 
L 251.364344 505.987598 
L 255.393555 506.555751 
L 259.432832 507.092762 
L 263.481391 507.601154 
L 267.538499 508.08337 
L 271.603476 508.541768 
L 275.675688 508.978616 
L 279.754552 509.396085 
L 283.839532 509.796248 
L 287.930134 510.181083 
L 292.025906 510.552474 
L 296.126436 510.912212 
L 300.231347 511.261999 
L 304.340293 511.603454 
" style="fill:none;stroke:#000000;stroke-linecap:square;stroke-width:3;"/>
   </g>
   <g id="line2d_38">
    <path clip-path="url(#p004cc9699a)" d="M 146.009572 511.603454 
L 146.009572 469.494665 
L 304.340293 469.494665 
L 304.340293 511.603454 
L 146.009572 511.603454 
" style="fill:none;stroke:#d3d3d3;stroke-linecap:square;stroke-width:0.5;"/>
   </g>
   <g id="line2d_39">
    <path clip-path="url(#p004cc9699a)" d="M 304.340293 511.603454 
L 308.452963 511.938117 
L 312.569069 512.267452 
L 316.68835 512.592856 
L 320.810569 512.915662 
L 324.935506 513.237143 
L 329.062963 513.55852 
L 333.192756 513.880969 
L 337.324716 514.205619 
L 341.458687 514.533566 
L 345.594522 514.865873 
L 349.732086 515.203575 
L 353.871251 515.547687 
L 358.011893 515.899206 
L 362.153896 516.259118 
L 366.297147 516.628404 
L 370.441533 517.008041 
L 374.586944 517.399013 
L 378.73327 517.802312 
L 382.880398 518.218948 
L 387.028215 518.649949 
L 391.176601 519.096377 
L 395.325434 519.559325 
L 399.474585 520.039935 
L 403.623916 520.539398 
L 407.773284 521.058973 
L 411.922536 521.599989 
L 416.071509 522.163866 
L 420.220028 522.752128 
L 424.367908 523.366419 
L 428.51495 524.008525 
L 432.660943 524.680403 
L 436.805658 525.384206 
L 440.948854 526.122325 
L 445.09027 526.897432 
L 449.229624 527.712537 
L 453.366611 528.571062 
L 457.500893 529.47693 
L 461.632096 530.434685 
L 465.759785 531.449642 
L 469.883449 532.528093 
L 474.002456 533.677583 
L 478.115989 534.907284 
" style="fill:none;stroke:#000000;stroke-linecap:square;stroke-width:3;"/>
   </g>
   <g id="line2d_40">
    <path clip-path="url(#p004cc9699a)" d="M 304.340293 534.907284 
L 304.340293 511.603454 
L 478.115989 511.603454 
L 478.115989 534.907284 
L 304.340293 534.907284 
" style="fill:none;stroke:#d3d3d3;stroke-linecap:square;stroke-width:0.5;"/>
   </g>
   <g id="line2d_41">
    <path clip-path="url(#p004cc9699a)" d="M 478.115989 534.907284 
" style="fill:none;stroke:#000000;stroke-linecap:square;stroke-width:3;"/>
   </g>
   <g id="line2d_42">
    <path clip-path="url(#p004cc9699a)" d="M 478.115989 534.907284 
L 478.115989 534.907284 
L 478.115989 534.907284 
L 478.115989 534.907284 
L 478.115989 534.907284 
" style="fill:none;stroke:#d3d3d3;stroke-linecap:square;stroke-width:0.5;"/>
   </g>
   <g id="line2d_43">
    <path clip-path="url(#p004cc9699a)" d="M 498.6133 539.862814 
L 497.997688 538.761543 
L 496.02203 535.836106 
L 493.789284 532.864814 
L 491.394313 529.890591 
L 488.888593 526.925958 
L 486.303069 523.97387 
L 483.657851 521.033964 
L 480.966814 518.104704 
L 478.240003 515.184191 
L 475.484978 512.270479 
L 472.707618 509.361688 
L 469.912629 506.456048 
L 467.103871 503.5519 
L 464.284582 500.647682 
L 461.45754 497.741923 
L 458.625169 494.833217 
L 455.789632 491.920215 
L 452.952886 489.001604 
L 450.116739 486.076097 
L 447.282887 483.142421 
L 444.452945 480.199302 
L 441.628478 477.245455 
L 438.811023 474.279575 
L 436.002114 471.300322 
L 433.203296 468.306312 
L 430.416154 465.296108 
L 427.642323 462.268203 
L 424.883516 459.221013 
L 422.141542 456.152858 
L 419.418329 453.061951 
L 416.715953 449.946377 
L 414.036665 446.804081 
" style="fill:none;stroke:#000000;stroke-linecap:square;stroke-width:3;"/>
   </g>
   <g id="line2d_44">
    <path clip-path="url(#p004cc9699a)" d="M 414.036665 539.862814 
L 414.036665 446.804081 
L 498.6133 446.804081 
L 498.6133 539.862814 
L 414.036665 539.862814 
" style="fill:none;stroke:#d3d3d3;stroke-linecap:square;stroke-width:0.5;"/>
   </g>
   <g id="line2d_45">
    <path clip-path="url(#p004cc9699a)" d="M 414.036665 446.804081 
L 411.382928 443.63284 
L 408.757455 440.430244 
L 406.163255 437.193671 
L 403.603695 433.920252 
L 401.08256 430.606843 
L 398.604146 427.249986 
L 396.173351 423.845867 
L 393.795809 420.390272 
L 391.47804 416.878542 
L 389.227647 413.305527 
L 387.053561 409.665547 
L 384.966344 405.952369 
L 382.978571 402.15922 
L 381.105309 398.278864 
L 379.364696 394.303785 
L 377.778619 390.226565 
L 376.373473 386.040568 
L 375.180874 381.741078 
L 374.23812 377.327101 
L 373.587952 372.803955 
L 373.276973 368.186569 
L 373.351931 363.502905 
L 373.853479 358.796082 
L 374.80816 354.123246 
L 376.221141 349.549736 
L 378.073103 345.13936 
L 380.323323 340.944224 
L 382.917712 336.998206 
L 385.798187 333.315907 
L 388.91003 329.895957 
L 388.91003 329.895957 
" style="fill:none;stroke:#000000;stroke-linecap:square;stroke-width:3;"/>
   </g>
   <g id="line2d_46">
    <path clip-path="url(#p004cc9699a)" d="M 373.276973 446.804081 
L 373.276973 329.895957 
L 414.036665 329.895957 
L 414.036665 446.804081 
L 373.276973 446.804081 
" style="fill:none;stroke:#d3d3d3;stroke-linecap:square;stroke-width:0.5;"/>
   </g>
   <g id="line2d_47">
    <path clip-path="url(#p004cc9699a)" d="M 478.115989 534.907284 
L 481.917883 536.051298 
L 485.705878 537.11338 
L 489.465749 538.069642 
L 493.168453 538.88353 
L 496.747458 539.495804 
L 500.02067 539.807648 
L 498.6133 539.862814 
" style="fill:none;stroke:#000000;stroke-linecap:square;stroke-width:3;"/>
   </g>
   <g id="line2d_48">
    <path clip-path="url(#p004cc9699a)" d="M 478.115989 539.862814 
L 478.115989 534.907284 
L 500.02067 534.907284 
L 500.02067 539.862814 
L 478.115989 539.862814 
" style="fill:none;stroke:#d3d3d3;stroke-linecap:square;stroke-width:0.5;"/>
   </g>
   <g id="line2d_49">
    <path clip-path="url(#p004cc9699a)" d="M 388.91003 329.895957 
L 388.91003 329.895957 
L 390.98717 327.514552 
L 392.841072 324.872956 
L 394.470658 322.001432 
L 395.87893 318.933888 
L 397.073098 315.703974 
L 398.063621 312.342403 
L 398.86289 308.875685 
L 399.484042 305.325915 
L 399.940112 301.711136 
L 400.243504 298.045926 
L 400.405714 294.342023 
L 400.437225 290.608886 
L 400.347494 286.854167 
L 400.145002 283.084094 
L 399.83733 279.30377 
L 399.431241 275.517416 
L 398.932769 271.728545 
L 398.347297 267.940114 
L 397.67963 264.154634 
L 396.93406 260.374254 
L 396.114426 256.600839 
L 395.22416 252.836018 
L 394.266332 249.081232 
L 393.24369 245.337772 
L 392.158691 241.606807 
L 391.013527 237.889409 
L 389.810152 234.186575 
L 388.550303 230.499244 
L 387.235517 226.828315 
L 385.867147 223.174658 
L 384.446375 219.539126 
L 382.974225 215.922571 
L 381.451571 212.325851 
L 379.879147 208.74984 
L 378.257551 205.195441 
L 376.587258 201.663596 
L 374.868614 198.155292 
L 373.101853 194.671581 
L 371.287087 191.21358 
L 369.42432 187.782494 
L 367.513442 184.379623 
L 365.554234 181.006382 
L 363.546369 177.664311 
L 361.489411 174.355103 
L 359.382818 171.080614 
" style="fill:none;stroke:#000000;stroke-linecap:square;stroke-width:3;"/>
   </g>
   <g id="line2d_50">
    <path clip-path="url(#p004cc9699a)" d="M 359.382818 329.895957 
L 359.382818 171.080614 
L 400.437225 171.080614 
L 400.437225 329.895957 
L 359.382818 329.895957 
" style="fill:none;stroke:#d3d3d3;stroke-linecap:square;stroke-width:0.5;"/>
   </g>
   <g id="line2d_51">
    <path clip-path="url(#p004cc9699a)" d="M 359.382818 171.080614 
L 357.22594 167.842898 
L 355.018022 164.644224 
L 352.758207 161.487115 
L 350.445535 158.374378 
L 348.078952 155.309147 
L 345.657314 152.294928 
L 343.179399 149.335653 
L 340.643921 146.435738 
L 338.049552 143.600153 
L 335.394954 140.8345 
L 332.678813 138.145093 
L 329.899899 135.539056 
L 327.057137 133.024419 
L 324.149697 130.610216 
L 321.177113 128.306583 
L 318.139429 126.124833 
L 315.037368 124.077497 
L 311.872527 122.178318 
L 308.647573 120.442151 
L 305.366421 118.884743 
L 302.034355 117.522378 
L 298.658041 116.371353 
L 295.245389 115.447311 
L 291.805282 114.764492 
L 288.347209 114.334974 
L 284.880961 114.167996 
L 281.416505 114.269385 
L 277.964063 114.641082 
L 274.534262 115.280768 
L 271.138075 116.181677 
L 267.786411 117.332775 
L 264.489407 118.719395 
L 261.255674 120.324282 
L 258.091762 122.128829 
L 255.001975 124.114231 
L 251.988494 126.262381 
L 249.051718 128.556451 
L 246.190678 130.981167 
L 243.403448 133.522877 
L 240.687502 136.169464 
L 238.039982 138.910202 
L 235.457907 141.735571 
L 232.938307 144.637075 
L 230.47832 147.607076 
L 230.47832 147.607076 
" style="fill:none;stroke:#000000;stroke-linecap:square;stroke-width:3;"/>
   </g>
   <g id="line2d_52">
    <path clip-path="url(#p004cc9699a)" d="M 230.47832 171.080614 
L 230.47832 114.167996 
L 359.382818 114.167996 
L 359.382818 171.080614 
L 230.47832 171.080614 
" style="fill:none;stroke:#d3d3d3;stroke-linecap:square;stroke-width:0.5;"/>
   </g>
   <g id="line2d_53">
    <path clip-path="url(#p004cc9699a)" d="M 230.47832 147.607076 
L 230.47832 147.607076 
L 227.977168 150.722681 
L 225.501425 153.860131 
L 223.050574 157.018413 
L 220.624154 160.196639 
L 218.221755 163.39402 
L 215.843013 166.609853 
L 213.487611 169.843506 
L 211.155274 173.094404 
L 208.845763 176.362025 
L 206.558876 179.645892 
L 204.294443 182.945566 
L 202.052326 186.260642 
L 199.832414 189.590745 
L 197.634623 192.93553 
L 195.458898 196.294671 
L 193.305203 199.66787 
L 191.173528 203.054843 
L 189.063887 206.455329 
L 186.976312 209.86908 
L 184.910859 213.295864 
L 182.867601 216.735462 
L 180.846634 220.187671 
L 178.848074 223.652295 
L 176.872055 227.129151 
L 174.918732 230.618067 
L 172.988279 234.118879 
L 171.080889 237.631431 
L 169.196778 241.155576 
L 167.33618 244.691174 
L 165.49935 248.238093 
L 163.686565 251.796206 
L 161.898124 255.365394 
L 160.134349 258.94554 
L 158.395585 262.536537 
L 156.682201 266.138279 
L 154.994592 269.750666 
L 153.33318 273.373602 
L 151.698414 277.006993 
L 150.090773 280.65075 
L 148.510767 284.304784 
L 146.95894 287.969011 
L 145.435868 291.643345 
L 143.942167 295.327701 
L 142.478491 299.021996 
L 141.045536 302.726142 
L 139.644045 306.440049 
" style="fill:none;stroke:#000000;stroke-linecap:square;stroke-width:3;"/>
   </g>
   <g id="line2d_54">
    <path clip-path="url(#p004cc9699a)" d="M 139.644045 306.440049 
L 139.644045 147.607076 
L 230.47832 147.607076 
L 230.47832 306.440049 
L 139.644045 306.440049 
" style="fill:none;stroke:#d3d3d3;stroke-linecap:square;stroke-width:0.5;"/>
   </g>
   <g id="line2d_55">
    <path clip-path="url(#p004cc9699a)" d="M 139.644045 306.440049 
L 138.274807 310.163626 
L 136.938664 313.896773 
L 135.636515 317.639385 
L 134.369318 321.391345 
L 133.138096 325.152528 
L 131.943943 328.922791 
L 130.78803 332.701977 
L 129.671609 336.489904 
L 128.596024 340.286368 
L 127.562712 344.091132 
L 126.573222 347.903924 
L 125.629215 351.724428 
L 124.732477 355.552278 
L 123.884933 359.387049 
L 123.088658 363.228243 
L 122.345889 367.075282 
L 121.659042 370.927489 
L 121.030728 374.784073 
L 120.463772 378.644109 
L 119.961226 382.506516 
L 119.5264 386.370028 
L 119.162875 390.233162 
L 118.87453 394.094184 
L 118.665564 397.951063 
L 118.540524 401.80142 
L 118.50432 405.642468 
L 118.562253 409.470948 
L 118.720028 413.283044 
L 118.983764 417.074299 
L 119.359991 420.839508 
L 119.855633 424.572613 
L 120.477965 428.266584 
L 121.234545 431.913302 
L 122.133101 435.503452 
L 123.181369 439.026447 
L 124.386884 442.470399 
L 125.756703 445.822171 
L 127.297088 449.067546 
L 129.013164 452.191543 
L 130.908576 455.178879 
L 132.985207 458.014578 
L 135.242967 460.684637 
L 137.679676 463.176674 
L 140.291016 465.480439 
L 143.070515 467.588155 
L 146.009572 469.494665 
L 146.009572 469.494665 
" style="fill:none;stroke:#000000;stroke-linecap:square;stroke-width:3;"/>
   </g>
   <g id="line2d_56">
    <path clip-path="url(#p004cc9699a)" d="M 118.50432 469.494665 
L 118.50432 306.440049 
L 146.009572 306.440049 
L 146.009572 469.494665 
L 118.50432 469.494665 
" style="fill:none;stroke:#d3d3d3;stroke-linecap:square;stroke-width:0.5;"/>
   </g>
   <g id="line2d_57">
    <path clip-path="url(#p004cc9699a)" d="M 146.009572 469.494665 
" style="fill:none;stroke:#000000;stroke-linecap:square;stroke-width:3;"/>
   </g>
   <g id="line2d_58">
    <path clip-path="url(#p004cc9699a)" d="M 146.009572 469.494665 
L 146.009572 469.494665 
L 146.009572 469.494665 
L 146.009572 469.494665 
L 146.009572 469.494665 
" style="fill:none;stroke:#d3d3d3;stroke-linecap:square;stroke-width:0.5;"/>
   </g>
   <g id="line2d_59">
    <path clip-path="url(#p004cc9699a)" d="M 217.690766 137.77861 
L 217.690766 137.77861 
L 215.104599 141.000111 
L 212.547554 144.240588 
L 210.018696 147.49939 
L 207.517207 150.77594 
L 205.042372 154.069723 
L 202.593567 157.380273 
L 200.170247 160.707167 
L 197.771936 164.050019 
L 195.398221 167.408478 
L 193.048745 170.782218 
L 190.723199 174.170943 
L 188.421321 177.574376 
L 186.14289 180.992264 
L 183.88772 184.424372 
L 181.655664 187.870482 
L 179.446604 191.330395 
L 177.260453 194.803924 
L 175.097155 198.290898 
L 172.956677 201.791159 
L 170.839016 205.30456 
L 168.744191 208.830967 
L 166.672245 212.370258 
L 164.623247 215.92232 
L 162.597286 219.487051 
L 160.594475 223.06436 
L 158.614949 226.654163 
L 156.658866 230.256387 
L 154.726405 233.870969 
L 152.817768 237.497852 
L 150.933181 241.136992 
L 149.07289 244.78835 
L 147.237169 248.451897 
L 145.426312 252.127613 
L 143.640641 255.815486 
L 141.880502 259.515515 
L 140.146268 263.227704 
L 138.438343 266.95207 
L 136.757157 270.688635 
L 135.103173 274.437433 
L 133.476885 278.198506 
L 131.878823 281.971907 
L 130.309553 285.757694 
L 128.769681 289.555941 
L 127.259854 293.366725 
L 125.780762 297.190138 
L 124.333147 301.026278 
" style="fill:none;stroke:#000000;stroke-linecap:square;stroke-width:3;"/>
   </g>
   <g id="line2d_60">
    <path clip-path="url(#p004cc9699a)" d="M 124.333147 301.026278 
L 124.333147 137.77861 
L 217.690766 137.77861 
L 217.690766 301.026278 
L 124.333147 301.026278 
" style="fill:none;stroke:#d3d3d3;stroke-linecap:square;stroke-width:0.5;"/>
   </g>
   <g id="line2d_61">
    <path clip-path="url(#p004cc9699a)" d="M 124.333147 301.026278 
L 122.917799 304.875255 
L 121.535566 308.737187 
L 120.187353 312.612201 
L 118.874133 316.500436 
L 117.596949 320.402036 
L 116.356921 324.317155 
L 115.155251 328.245953 
L 113.993234 332.188599 
L 112.872266 336.145266 
L 111.793851 340.116129 
L 110.759614 344.101368 
L 109.771312 348.101161 
L 108.830851 352.115683 
L 107.940296 356.145104 
L 107.101891 360.189581 
L 106.318078 364.249256 
L 105.591522 368.324248 
L 104.92513 372.414647 
L 104.322085 376.520501 
L 103.785873 380.641807 
L 103.320324 384.778492 
L 102.929651 388.930399 
L 102.618496 393.097261 
L 102.391982 397.278669 
L 102.255778 401.474039 
L 102.216159 405.682563 
L 102.280083 409.903144 
L 102.455272 414.134325 
L 102.750297 418.374184 
L 103.174666 422.620209 
L 103.73891 426.869132 
L 104.454653 431.116719 
L 105.334654 435.357505 
L 106.392798 439.584467 
L 107.643989 443.788617 
L 109.103911 447.958543 
L 110.788582 452.079893 
L 112.71363 456.13489 
L 114.893242 460.101951 
L 117.338756 463.955592 
L 120.056983 467.66681 
L 123.048476 471.204134 
L 126.306101 474.535438 
L 129.814374 477.630388 
L 133.549896 480.463134 
L 137.482978 483.014669 
L 137.482978 483.014669 
" style="fill:none;stroke:#000000;stroke-linecap:square;stroke-width:3;"/>
   </g>
   <g id="line2d_62">
    <path clip-path="url(#p004cc9699a)" d="M 102.216159 483.014669 
L 102.216159 301.026278 
L 137.482978 301.026278 
L 137.482978 483.014669 
L 102.216159 483.014669 
" style="fill:none;stroke:#d3d3d3;stroke-linecap:square;stroke-width:0.5;"/>
   </g>
   <g id="line2d_63">
    <path clip-path="url(#p004cc9699a)" d="M 137.482978 483.014669 
" style="fill:none;stroke:#000000;stroke-linecap:square;stroke-width:3;"/>
   </g>
   <g id="line2d_64">
    <path clip-path="url(#p004cc9699a)" d="M 137.482978 483.014669 
L 137.482978 483.014669 
L 137.482978 483.014669 
L 137.482978 483.014669 
L 137.482978 483.014669 
" style="fill:none;stroke:#d3d3d3;stroke-linecap:square;stroke-width:0.5;"/>
   </g>
   <g id="line2d_65">
    <path clip-path="url(#p004cc9699a)" d="M 400.717929 340.826018 
L 400.717929 340.826018 
L 403.947616 337.125686 
L 406.719911 333.178417 
L 409.056407 329.064287 
L 410.994706 324.845179 
L 412.578061 320.565383 
L 413.848911 316.255037 
L 414.845711 311.933984 
L 415.601878 307.61501 
L 416.14582 303.30622 
L 416.501458 299.012682 
L 416.688867 294.73751 
L 416.724922 290.482573 
L 416.623855 286.248949 
L 416.397728 282.03722 
L 416.056818 277.847659 
L 415.609927 273.68035 
L 415.064637 269.535268 
L 414.427506 265.412325 
L 413.704235 261.311407 
L 412.899794 257.232393 
L 412.018534 253.175164 
L 411.064268 249.13962 
L 410.040346 245.125679 
L 408.949713 241.133283 
L 407.794955 237.162402 
L 406.57834 233.213033 
L 405.301853 229.285205 
L 403.967221 225.37898 
L 402.575938 221.494452 
L 401.129282 217.631753 
L 399.628333 213.791052 
L 398.073985 209.972559 
L 396.466955 206.176528 
L 394.807795 202.403261 
L 393.096893 198.653109 
L 391.334481 194.926482 
L 389.520638 191.223848 
L 387.655288 187.545744 
L 385.738203 183.892782 
L 383.768999 180.265655 
L 381.747133 176.665149 
L 379.671899 173.092152 
L 377.542418 169.547668 
L 375.357636 166.032832 
L 373.116306 162.548928 
" style="fill:none;stroke:#000000;stroke-linecap:square;stroke-width:3;"/>
   </g>
   <g id="line2d_66">
    <path clip-path="url(#p004cc9699a)" d="M 373.116306 340.826018 
L 373.116306 162.548928 
L 416.724922 162.548928 
L 416.724922 340.826018 
L 373.116306 340.826018 
" style="fill:none;stroke:#d3d3d3;stroke-linecap:square;stroke-width:0.5;"/>
   </g>
   <g id="line2d_67">
    <path clip-path="url(#p004cc9699a)" d="M 373.116306 162.548928 
L 370.816982 159.097405 
L 368.458001 155.679906 
L 366.03747 152.298294 
L 363.553244 148.954686 
L 361.002907 145.651491 
L 358.383749 142.39146 
L 355.692738 139.177742 
L 352.926495 136.013951 
L 350.081267 132.904249 
L 347.152896 129.853447 
L 344.136793 126.867123 
L 341.027928 123.951769 
L 337.820817 121.114965 
L 334.509541 118.365589 
L 331.087807 115.714063 
L 327.549054 113.172644 
L 323.88666 110.755747 
L 320.09427 108.480284 
L 316.166314 106.366001 
L 312.098758 104.435725 
L 307.890158 102.715424 
L 303.543011 101.233911 
L 299.065344 100.021985 
L 294.472304 99.110779 
L 289.787323 98.529245 
L 285.042296 98.300904 
L 280.276225 98.440445 
L 275.532202 98.951064 
L 270.853179 99.823429 
L 266.277597 101.036755 
L 261.835994 102.561662 
L 257.54935 104.363951 
L 253.429184 106.408244 
L 249.478929 108.660803 
L 245.695894 111.091237 
L 242.073269 113.673246 
L 238.601834 116.384653 
L 235.271248 119.207043 
L 232.070941 122.125223 
L 228.990677 125.12664 
L 226.020874 128.200855 
L 223.152758 131.339088 
L 220.378413 134.533841 
L 217.690766 137.77861 
L 217.690766 137.77861 
" style="fill:none;stroke:#000000;stroke-linecap:square;stroke-width:3;"/>
   </g>
   <g id="line2d_68">
    <path clip-path="url(#p004cc9699a)" d="M 217.690766 162.548928 
L 217.690766 98.300904 
L 373.116306 98.300904 
L 373.116306 162.548928 
L 217.690766 162.548928 
" style="fill:none;stroke:#d3d3d3;stroke-linecap:square;stroke-width:0.5;"/>
   </g>
   <g id="line2d_69">
    <path clip-path="url(#p004cc9699a)" d="M 137.482978 483.014669 
L 137.482978 483.014669 
L 141.107883 485.15536 
L 144.763825 487.254724 
L 148.451577 489.310191 
L 152.171787 491.319148 
L 155.92493 493.278956 
L 159.711267 495.186983 
L 163.530803 497.040638 
L 167.383265 498.83742 
L 171.268073 500.574972 
L 175.184336 502.251142 
L 179.130854 503.864039 
L 183.10614 505.412098 
L 187.108444 506.894129 
L 191.135798 508.309364 
L 195.186068 509.657482 
L 199.257006 510.938633 
L 203.346308 512.153431 
L 207.451674 513.302944 
L 211.570855 514.38866 
L 215.701701 515.412451 
L 219.842191 516.376519 
L 223.990466 517.283344 
L 228.14484 518.135625 
L 232.303812 518.936225 
L 236.466063 519.688116 
L 240.630453 520.39433 
L 244.796011 521.057921 
L 248.96192 521.68192 
L 253.127506 522.269311 
L 257.292217 522.823006 
L 261.455612 523.345824 
L 265.617344 523.84048 
L 269.777145 524.309577 
L 273.934814 524.755596 
L 278.090205 525.180901 
L 282.243218 525.587731 
L 286.393789 525.978211 
L 290.541882 526.354348 
L 294.687481 526.718041 
L 298.830589 527.071084 
L 302.971219 527.415174 
" style="fill:none;stroke:#000000;stroke-linecap:square;stroke-width:3;"/>
   </g>
   <g id="line2d_70">
    <path clip-path="url(#p004cc9699a)" d="M 137.482978 527.415174 
L 137.482978 483.014669 
L 302.971219 483.014669 
L 302.971219 527.415174 
L 137.482978 527.415174 
" style="fill:none;stroke:#d3d3d3;stroke-linecap:square;stroke-width:0.5;"/>
   </g>
   <g id="line2d_71">
    <path clip-path="url(#p004cc9699a)" d="M 302.971219 527.415174 
L 307.109392 527.751912 
L 311.245132 528.082819 
L 315.378464 528.409334 
L 319.509414 528.732823 
L 323.638003 529.054589 
L 327.764247 529.375872 
L 331.888156 529.697861 
L 336.009733 530.021695 
L 340.128969 530.348473 
L 344.245848 530.679256 
L 348.36034 531.015075 
L 352.472402 531.356933 
L 356.581978 531.705814 
L 360.688996 532.062685 
L 364.793366 532.428505 
L 368.89498 532.804223 
L 372.993709 533.190791 
L 377.089402 533.589165 
L 381.181881 534.000309 
L 385.270944 534.425204 
L 389.356355 534.864853 
L 393.437846 535.320286 
L 397.51511 535.792567 
L 401.587801 536.282803 
L 405.65552 536.792151 
L 409.71782 537.321827 
L 413.774189 537.873117 
L 417.82405 538.447385 
L 421.866741 539.046094 
L 425.901514 539.670813 
L 429.927507 540.32324 
L 433.943736 541.005219 
L 437.949063 541.718769 
L 441.942168 542.466109 
L 445.921509 543.249694 
L 449.88527 544.072257 
L 453.831287 544.936858 
L 457.756961 545.846944 
L 461.659121 546.806419 
L 465.533852 547.819732 
L 469.376234 548.891977 
L 473.179983 550.029006 
" style="fill:none;stroke:#000000;stroke-linecap:square;stroke-width:3;"/>
   </g>
   <g id="line2d_72">
    <path clip-path="url(#p004cc9699a)" d="M 302.971219 550.029006 
L 302.971219 527.415174 
L 473.179983 527.415174 
L 473.179983 550.029006 
L 302.971219 550.029006 
" style="fill:none;stroke:#d3d3d3;stroke-linecap:square;stroke-width:0.5;"/>
   </g>
   <g id="line2d_73">
    <path clip-path="url(#p004cc9699a)" d="M 473.179983 550.029006 
" style="fill:none;stroke:#000000;stroke-linecap:square;stroke-width:3;"/>
   </g>
   <g id="line2d_74">
    <path clip-path="url(#p004cc9699a)" d="M 473.179983 550.029006 
L 473.179983 550.029006 
L 473.179983 550.029006 
L 473.179983 550.029006 
L 473.179983 550.029006 
" style="fill:none;stroke:#d3d3d3;stroke-linecap:square;stroke-width:0.5;"/>
   </g>
   <g id="line2d_75">
    <path clip-path="url(#p004cc9699a)" d="M 473.179983 550.029006 
L 477.25028 551.253692 
L 481.37874 552.411064 
L 485.58806 553.481292 
L 489.918008 554.432235 
L 494.447625 555.204705 
L 499.366672 555.662724 
L 505.27993 555.321946 
L 513.739393 550.758464 
L 516.238907 540.668849 
L 514.30204 534.821233 
L 511.905964 530.502949 
L 509.36881 526.740596 
L 506.751051 523.255371 
L 504.077689 519.934836 
L 501.363136 516.722861 
L 498.617045 513.587311 
L 495.846428 510.507964 
L 493.056653 507.471184 
L 490.251992 504.467266 
L 487.435949 501.489005 
L 484.611473 498.530859 
L 481.781102 495.588431 
L 478.947068 492.658144 
L 476.111368 489.737019 
L 473.275821 486.822518 
L 470.442116 483.912442 
L 467.611843 481.004847 
L 464.786521 478.097991 
L 461.967628 475.190283 
L 459.156615 472.280253 
L 456.35493 469.366523 
L 453.564032 466.447786 
L 450.78541 463.522788 
L 448.020599 460.590311 
L 445.271196 457.649166 
L 442.538876 454.698178 
L 439.825413 451.736177 
" style="fill:none;stroke:#000000;stroke-linecap:square;stroke-width:3;"/>
   </g>
   <g id="line2d_76">
    <path clip-path="url(#p004cc9699a)" d="M 439.825413 555.662724 
L 439.825413 451.736177 
L 516.238907 451.736177 
L 516.238907 555.662724 
L 439.825413 555.662724 
" style="fill:none;stroke:#d3d3d3;stroke-linecap:square;stroke-width:0.5;"/>
   </g>
   <g id="line2d_77">
    <path clip-path="url(#p004cc9699a)" d="M 439.825413 451.736177 
L 437.132697 448.761993 
L 434.462757 445.774449 
L 431.817783 442.772355 
L 429.200159 439.754504 
L 426.612487 436.719668 
L 424.057625 433.6666 
L 421.538732 430.594033 
L 419.059308 427.500681 
L 416.623259 424.385251 
L 414.234954 421.246449 
L 411.899304 418.083005 
L 409.621855 414.89369 
L 407.408884 411.677362 
L 405.267529 408.433017 
L 403.20592 405.159863 
L 401.233344 401.857422 
L 399.36041 398.525671 
L 397.599242 395.165228 
L 395.963653 391.777593 
L 394.4693 388.365453 
L 393.133761 384.933056 
L 391.976489 381.486617 
L 391.018526 378.034708 
L 390.281915 374.588508 
L 389.788698 371.16172 
L 389.55957 367.769935 
L 389.61236 364.429323 
L 389.960723 361.154864 
L 390.613371 357.958794 
L 391.573787 354.850112 
L 392.840011 351.835427 
L 394.404213 348.920388 
L 396.252397 346.110538 
L 398.364908 343.411081 
L 400.717929 340.826018 
L 400.717929 340.826018 
" style="fill:none;stroke:#000000;stroke-linecap:square;stroke-width:3;"/>
   </g>
   <g id="line2d_78">
    <path clip-path="url(#p004cc9699a)" d="M 389.55957 451.736177 
L 389.55957 340.826018 
L 439.825413 340.826018 
L 439.825413 451.736177 
L 389.55957 451.736177 
" style="fill:none;stroke:#d3d3d3;stroke-linecap:square;stroke-width:0.5;"/>
   </g>
   <g id="line2d_79">
    <path clip-path="url(#p004cc9699a)" d="M 473.179983 550.029006 
L 473.179983 550.029006 
L 473.179983 550.029006 
" style="fill:none;stroke:#000000;stroke-linecap:square;stroke-width:3;"/>
   </g>
   <g id="line2d_80">
    <path clip-path="url(#p004cc9699a)" d="M 473.179983 550.029006 
L 473.179983 550.029006 
L 473.179983 550.029006 
L 473.179983 550.029006 
L 473.179983 550.029006 
" style="fill:none;stroke:#d3d3d3;stroke-linecap:square;stroke-width:0.5;"/>
   </g>
   <g id="line2d_81">
    <path clip-path="url(#p004cc9699a)" d="M 473.179983 550.029006 
L 473.179983 550.029006 
L 473.179983 550.029006 
" style="fill:none;stroke:#000000;stroke-linecap:square;stroke-width:3;"/>
   </g>
   <g id="line2d_82">
    <path clip-path="url(#p004cc9699a)" d="M 473.179983 550.029006 
L 473.179983 550.029006 
L 473.179983 550.029006 
L 473.179983 550.029006 
L 473.179983 550.029006 
" style="fill:none;stroke:#d3d3d3;stroke-linecap:square;stroke-width:0.5;"/>
   </g>
   <g id="line2d_83">
    <path clip-path="url(#p004cc9699a)" d="M 366.249562 154.913868 
L 367.81173 155.011574 
L 369.348247 155.303088 
L 370.833883 155.783624 
L 372.244246 156.445291 
L 373.556175 157.277225 
L 374.748131 158.265765 
L 375.80054 159.394679 
L 376.696122 160.645431 
L 377.420172 161.997484 
L 377.960801 163.428636 
L 378.309132 164.915388 
L 378.459445 166.433328 
L 378.409272 167.957532 
L 378.159437 169.462971 
L 377.714042 170.924927 
L 377.0804 172.319395 
L 376.268917 173.623476 
L 375.292916 174.815759 
L 374.168423 175.876666 
L 372.913903 176.788777 
L 371.549955 177.537115 
L 370.098974 178.109392 
L 368.584786 178.496212 
L 367.032254 178.691223 
L 365.46687 178.691223 
L 363.914338 178.496212 
L 362.40015 178.109392 
L 360.949169 177.537115 
L 359.585221 176.788777 
L 358.330701 175.876666 
L 357.206208 174.815759 
L 356.230207 173.623476 
L 355.418724 172.319395 
L 354.785082 170.924927 
L 354.339687 169.462971 
L 354.089852 167.957532 
L 354.039679 166.433328 
L 354.189992 164.915388 
L 354.538323 163.428636 
L 355.078952 161.997484 
L 355.803002 160.645431 
L 356.698584 159.394679 
L 357.750993 158.265765 
L 358.942949 157.277225 
L 360.254878 156.445291 
L 361.665241 155.783624 
L 363.150877 155.303088 
L 364.687394 155.011574 
L 366.249562 154.913868 
" style="fill:none;stroke:#808080;stroke-linecap:square;stroke-width:1.5;"/>
   </g>
   <g id="line2d_84">
    <path clip-path="url(#p004cc9699a)" d="M 224.084543 130.79194 
L 225.646711 130.889646 
L 227.183228 131.18116 
L 228.668864 131.661696 
L 230.079227 132.323363 
L 231.391156 133.155297 
L 232.583112 134.143837 
L 233.635521 135.272751 
L 234.531103 136.523503 
L 235.255153 137.875556 
L 235.795782 139.306708 
L 236.144113 140.79346 
L 236.294426 142.3114 
L 236.244253 143.835604 
L 235.994418 145.341043 
L 235.549023 146.802999 
L 234.915381 148.197467 
L 234.103898 149.501548 
L 233.127897 150.693831 
L 232.003404 151.754738 
L 230.748884 152.666849 
L 229.384936 153.415187 
L 227.933955 153.987464 
L 226.419767 154.374284 
L 224.867235 154.569295 
L 223.301851 154.569295 
L 221.749319 154.374284 
L 220.235131 153.987464 
L 218.78415 153.415187 
L 217.420202 152.666849 
L 216.165682 151.754738 
L 215.041189 150.693831 
L 214.065188 149.501548 
L 213.253705 148.197467 
L 212.620063 146.802999 
L 212.174668 145.341043 
L 211.924833 143.835604 
L 211.87466 142.3114 
L 212.024973 140.79346 
L 212.373304 139.306708 
L 212.913933 137.875556 
L 213.637983 136.523503 
L 214.533565 135.272751 
L 215.585974 134.143837 
L 216.77793 133.155297 
L 218.089859 132.323363 
L 219.500222 131.661696 
L 220.985858 131.18116 
L 222.522375 130.889646 
L 224.084543 130.79194 
" style="fill:none;stroke:#808080;stroke-linecap:square;stroke-width:1.5;"/>
   </g>
   <g id="line2d_85">
    <path clip-path="url(#p004cc9699a)" d="M 131.988596 291.83226 
L 133.550764 291.929966 
L 135.087281 292.221481 
L 136.572917 292.702017 
L 137.98328 293.363684 
L 139.295209 294.195617 
L 140.487165 295.184157 
L 141.539574 296.313072 
L 142.435156 297.563824 
L 143.159206 298.915876 
L 143.699835 300.347028 
L 144.048166 301.833781 
L 144.198479 303.351721 
L 144.148306 304.875924 
L 143.898471 306.381364 
L 143.453076 307.84332 
L 142.819434 309.237787 
L 142.007951 310.541869 
L 141.03195 311.734152 
L 139.907457 312.795059 
L 138.652937 313.707169 
L 137.288989 314.455507 
L 135.838008 315.027785 
L 134.32382 315.414604 
L 132.771288 315.609616 
L 131.205904 315.609616 
L 129.653372 315.414604 
L 128.139184 315.027785 
L 126.688203 314.455507 
L 125.324255 313.707169 
L 124.069735 312.795059 
L 122.945242 311.734152 
L 121.969241 310.541869 
L 121.157758 309.237787 
L 120.524116 307.84332 
L 120.078721 306.381364 
L 119.828886 304.875924 
L 119.778713 303.351721 
L 119.929026 301.833781 
L 120.277357 300.347028 
L 120.817986 298.915876 
L 121.542036 297.563824 
L 122.437618 296.313072 
L 123.490027 295.184157 
L 124.681983 294.195617 
L 125.993912 293.363684 
L 127.404275 292.702017 
L 128.889911 292.221481 
L 130.426428 291.929966 
L 131.988596 291.83226 
" style="fill:none;stroke:#808080;stroke-linecap:square;stroke-width:1.5;"/>
   </g>
   <g id="line2d_86">
    <path clip-path="url(#p004cc9699a)" d="M 141.746275 464.353763 
L 143.308443 464.45147 
L 144.84496 464.742984 
L 146.330596 465.22352 
L 147.740959 465.885187 
L 149.052888 466.717121 
L 150.244844 467.70566 
L 151.297253 468.834575 
L 152.192835 470.085327 
L 152.916885 471.437379 
L 153.457514 472.868531 
L 153.805845 474.355284 
L 153.956158 475.873224 
L 153.905985 477.397428 
L 153.65615 478.902867 
L 153.210755 480.364823 
L 152.577113 481.75929 
L 151.76563 483.063372 
L 150.789629 484.255655 
L 149.665136 485.316562 
L 148.410616 486.228672 
L 147.046668 486.97701 
L 145.595687 487.549288 
L 144.081499 487.936108 
L 142.528967 488.131119 
L 140.963583 488.131119 
L 139.411051 487.936108 
L 137.896863 487.549288 
L 136.445882 486.97701 
L 135.081934 486.228672 
L 133.827414 485.316562 
L 132.702921 484.255655 
L 131.72692 483.063372 
L 130.915437 481.75929 
L 130.281795 480.364823 
L 129.8364 478.902867 
L 129.586565 477.397428 
L 129.536392 475.873224 
L 129.686705 474.355284 
L 130.035036 472.868531 
L 130.575665 471.437379 
L 131.299715 470.085327 
L 132.195297 468.834575 
L 133.247706 467.70566 
L 134.439662 466.717121 
L 135.751591 465.885187 
L 137.161953 465.22352 
L 138.64759 464.742984 
L 140.184107 464.45147 
L 141.746275 464.353763 
" style="fill:none;stroke:#808080;stroke-linecap:square;stroke-width:1.5;"/>
   </g>
   <g id="line2d_87">
    <path clip-path="url(#p004cc9699a)" d="M 141.746275 464.353763 
L 143.308443 464.45147 
L 144.84496 464.742984 
L 146.330596 465.22352 
L 147.740959 465.885187 
L 149.052888 466.717121 
L 150.244844 467.70566 
L 151.297253 468.834575 
L 152.192835 470.085327 
L 152.916885 471.437379 
L 153.457514 472.868531 
L 153.805845 474.355284 
L 153.956158 475.873224 
L 153.905985 477.397428 
L 153.65615 478.902867 
L 153.210755 480.364823 
L 152.577113 481.75929 
L 151.76563 483.063372 
L 150.789629 484.255655 
L 149.665136 485.316562 
L 148.410616 486.228672 
L 147.046668 486.97701 
L 145.595687 487.549288 
L 144.081499 487.936108 
L 142.528967 488.131119 
L 140.963583 488.131119 
L 139.411051 487.936108 
L 137.896863 487.549288 
L 136.445882 486.97701 
L 135.081934 486.228672 
L 133.827414 485.316562 
L 132.702921 484.255655 
L 131.72692 483.063372 
L 130.915437 481.75929 
L 130.281795 480.364823 
L 129.8364 478.902867 
L 129.586565 477.397428 
L 129.536392 475.873224 
L 129.686705 474.355284 
L 130.035036 472.868531 
L 130.575665 471.437379 
L 131.299715 470.085327 
L 132.195297 468.834575 
L 133.247706 467.70566 
L 134.439662 466.717121 
L 135.751591 465.885187 
L 137.161953 465.22352 
L 138.64759 464.742984 
L 140.184107 464.45147 
L 141.746275 464.353763 
" style="fill:none;stroke:#808080;stroke-linecap:square;stroke-width:1.5;"/>
   </g>
   <g id="line2d_88">
    <path clip-path="url(#p004cc9699a)" d="M 307.781177 507.944111 
L 309.343345 508.041817 
L 310.879862 508.333332 
L 312.365499 508.813868 
L 313.775861 509.475535 
L 315.087791 510.307468 
L 316.279746 511.296008 
L 317.332155 512.424923 
L 318.227738 513.675675 
L 318.951788 515.027727 
L 319.492417 516.458879 
L 319.840747 517.945632 
L 319.99106 519.463572 
L 319.940887 520.987775 
L 319.691052 522.493215 
L 319.245657 523.955171 
L 318.612016 525.349638 
L 317.800532 526.65372 
L 316.824531 527.846003 
L 315.700039 528.906909 
L 314.445519 529.81902 
L 313.08157 530.567358 
L 311.63059 531.139635 
L 310.116402 531.526455 
L 308.563869 531.721466 
L 306.998485 531.721466 
L 305.445953 531.526455 
L 303.931765 531.139635 
L 302.480785 530.567358 
L 301.116836 529.81902 
L 299.862316 528.906909 
L 298.737824 527.846003 
L 297.761823 526.65372 
L 296.950339 525.349638 
L 296.316698 523.955171 
L 295.871303 522.493215 
L 295.621468 520.987775 
L 295.571295 519.463572 
L 295.721608 517.945632 
L 296.069938 516.458879 
L 296.610567 515.027727 
L 297.334617 513.675675 
L 298.2302 512.424923 
L 299.282609 511.296008 
L 300.474564 510.307468 
L 301.786494 509.475535 
L 303.196856 508.813868 
L 304.682493 508.333332 
L 306.21901 508.041817 
L 307.781177 507.944111 
" style="fill:none;stroke:#808080;stroke-linecap:square;stroke-width:1.5;"/>
   </g>
   <g id="line2d_89">
    <path clip-path="url(#p004cc9699a)" d="M 475.647986 530.567241 
L 477.210154 530.664948 
L 478.746671 530.956462 
L 480.232307 531.436998 
L 481.64267 532.098665 
L 482.954599 532.930599 
L 484.146555 533.919139 
L 485.198964 535.048053 
L 486.094546 536.298805 
L 486.818596 537.650857 
L 487.359225 539.08201 
L 487.707556 540.568762 
L 487.857869 542.086702 
L 487.807696 543.610906 
L 487.557861 545.116345 
L 487.112466 546.578301 
L 486.478824 547.972768 
L 485.667341 549.27685 
L 484.69134 550.469133 
L 483.566847 551.53004 
L 482.312327 552.442151 
L 480.948379 553.190488 
L 479.497398 553.762766 
L 477.98321 554.149586 
L 476.430678 554.344597 
L 474.865294 554.344597 
L 473.312762 554.149586 
L 471.798574 553.762766 
L 470.347593 553.190488 
L 468.983645 552.442151 
L 467.729125 551.53004 
L 466.604632 550.469133 
L 465.628631 549.27685 
L 464.817148 547.972768 
L 464.183506 546.578301 
L 463.738111 545.116345 
L 463.488276 543.610906 
L 463.438103 542.086702 
L 463.588416 540.568762 
L 463.936747 539.08201 
L 464.477376 537.650857 
L 465.201426 536.298805 
L 466.097008 535.048053 
L 467.149417 533.919139 
L 468.341372 532.930599 
L 469.653302 532.098665 
L 471.063664 531.436998 
L 472.549301 530.956462 
L 474.085818 530.664948 
L 475.647986 530.567241 
" style="fill:none;stroke:#808080;stroke-linecap:square;stroke-width:1.5;"/>
   </g>
   <g id="line2d_90">
    <path clip-path="url(#p004cc9699a)" d="M 436.477515 448.096239 
L 438.039683 448.193945 
L 439.5762 448.48546 
L 441.061837 448.965996 
L 442.472199 449.627663 
L 443.784129 450.459596 
L 444.976084 451.448136 
L 446.028493 452.577051 
L 446.924075 453.827803 
L 447.648125 455.179855 
L 448.188754 456.611007 
L 448.537085 458.09776 
L 448.687398 459.6157 
L 448.637225 461.139903 
L 448.38739 462.645343 
L 447.941995 464.107299 
L 447.308353 465.501766 
L 446.49687 466.805848 
L 445.520869 467.998131 
L 444.396376 469.059038 
L 443.141856 469.971148 
L 441.777908 470.719486 
L 440.326927 471.291764 
L 438.812739 471.678583 
L 437.260207 471.873594 
L 435.694823 471.873594 
L 434.142291 471.678583 
L 432.628103 471.291764 
L 431.177122 470.719486 
L 429.813174 469.971148 
L 428.558654 469.059038 
L 427.434161 467.998131 
L 426.45816 466.805848 
L 425.646677 465.501766 
L 425.013035 464.107299 
L 424.56764 462.645343 
L 424.317805 461.139903 
L 424.267632 459.6157 
L 424.417945 458.09776 
L 424.766276 456.611007 
L 425.306905 455.179855 
L 426.030955 453.827803 
L 426.926537 452.577051 
L 427.978946 451.448136 
L 429.170902 450.459596 
L 430.482831 449.627663 
L 431.893194 448.965996 
L 433.37883 448.48546 
L 434.915347 448.193945 
L 436.477515 448.096239 
" style="fill:none;stroke:#808080;stroke-linecap:square;stroke-width:1.5;"/>
   </g>
   <g id="line2d_91">
    <path clip-path="url(#p004cc9699a)" d="M 394.81398 323.460084 
L 396.376147 323.55779 
L 397.912664 323.849305 
L 399.398301 324.329841 
L 400.808663 324.991508 
L 402.120593 325.823442 
L 403.312548 326.811981 
L 404.364957 327.940896 
L 405.26054 329.191648 
L 405.98459 330.5437 
L 406.525219 331.974852 
L 406.873549 333.461605 
L 407.023862 334.979545 
L 406.973689 336.503748 
L 406.723854 338.009188 
L 406.278459 339.471144 
L 405.644818 340.865611 
L 404.833334 342.169693 
L 403.857333 343.361976 
L 402.732841 344.422883 
L 401.478321 345.334993 
L 400.114372 346.083331 
L 398.663392 346.655609 
L 397.149204 347.042429 
L 395.596672 347.23744 
L 394.031288 347.23744 
L 392.478755 347.042429 
L 390.964567 346.655609 
L 389.513587 346.083331 
L 388.149638 345.334993 
L 386.895118 344.422883 
L 385.770626 343.361976 
L 384.794625 342.169693 
L 383.983141 340.865611 
L 383.3495 339.471144 
L 382.904105 338.009188 
L 382.65427 336.503748 
L 382.604097 334.979545 
L 382.75441 333.461605 
L 383.10274 331.974852 
L 383.643369 330.5437 
L 384.367419 329.191648 
L 385.263002 327.940896 
L 386.315411 326.811981 
L 387.507366 325.823442 
L 388.819296 324.991508 
L 390.229658 324.329841 
L 391.715295 323.849305 
L 393.251812 323.55779 
L 394.81398 323.460084 
" style="fill:none;stroke:#808080;stroke-linecap:square;stroke-width:1.5;"/>
   </g>
   <g id="line2d_92">
    <path clip-path="url(#p004cc9699a)" d="M 394.81398 323.460084 
L 396.376147 323.55779 
L 397.912664 323.849305 
L 399.398301 324.329841 
L 400.808663 324.991508 
L 402.120593 325.823442 
L 403.312548 326.811981 
L 404.364957 327.940896 
L 405.26054 329.191648 
L 405.98459 330.5437 
L 406.525219 331.974852 
L 406.873549 333.461605 
L 407.023862 334.979545 
L 406.973689 336.503748 
L 406.723854 338.009188 
L 406.278459 339.471144 
L 405.644818 340.865611 
L 404.833334 342.169693 
L 403.857333 343.361976 
L 402.732841 344.422883 
L 401.478321 345.334993 
L 400.114372 346.083331 
L 398.663392 346.655609 
L 397.149204 347.042429 
L 395.596672 347.23744 
L 394.031288 347.23744 
L 392.478755 347.042429 
L 390.964567 346.655609 
L 389.513587 346.083331 
L 388.149638 345.334993 
L 386.895118 344.422883 
L 385.770626 343.361976 
L 384.794625 342.169693 
L 383.983141 340.865611 
L 383.3495 339.471144 
L 382.904105 338.009188 
L 382.65427 336.503748 
L 382.604097 334.979545 
L 382.75441 333.461605 
L 383.10274 331.974852 
L 383.643369 330.5437 
L 384.367419 329.191648 
L 385.263002 327.940896 
L 386.315411 326.811981 
L 387.507366 325.823442 
L 388.819296 324.991508 
L 390.229658 324.329841 
L 391.715295 323.849305 
L 393.251812 323.55779 
L 394.81398 323.460084 
" style="fill:none;stroke:#808080;stroke-linecap:square;stroke-width:1.5;"/>
   </g>
   <g id="line2d_93"/>
   <g id="line2d_94"/>
   <g id="line2d_95"/>
   <g id="line2d_96"/>
   <g id="line2d_97"/>
   <g id="line2d_98"/>
   <g id="line2d_99"/>
   <g id="line2d_100"/>
   <g id="line2d_101"/>
   <g id="line2d_102"/>
   <g id="line2d_103"/>
   <g id="line2d_104"/>
   <g id="line2d_105"/>
   <g id="line2d_106"/>
   <g id="line2d_107"/>
   <g id="line2d_108"/>
   <g id="line2d_109"/>
   <g id="line2d_110"/>
   <g id="line2d_111"/>
   <g id="line2d_112"/>
   <g id="line2d_113"/>
   <g id="line2d_114"/>
   <g id="line2d_115"/>
   <g id="line2d_116"/>
   <g id="line2d_117"/>
   <g id="line2d_118"/>
   <g id="line2d_119"/>
   <g id="line2d_120"/>
   <g id="line2d_121"/>
   <g id="line2d_122"/>
   <g id="line2d_123"/>
   <g id="line2d_124"/>
   <g id="line2d_125"/>
   <g id="line2d_126"/>
   <g id="line2d_127"/>
   <g id="line2d_128"/>
   <g id="line2d_129"/>
   <g id="line2d_130"/>
   <g id="line2d_131"/>
   <g id="line2d_132"/>
   <g id="line2d_133"/>
   <g id="line2d_134"/>
   <g id="line2d_135"/>
   <g id="line2d_136"/>
   <g id="line2d_137"/>
   <g id="line2d_138"/>
   <g id="line2d_139"/>
   <g id="line2d_140"/>
   <g id="line2d_141"/>
   <g id="line2d_142"/>
   <g id="line2d_143"/>
   <g id="patch_3">
    <path d="M 90 630 
L 90 86.4 
" style="fill:none;stroke:#000000;stroke-linecap:square;stroke-linejoin:miter;stroke-width:0.8;"/>
   </g>
   <g id="patch_4">
    <path d="M 648 630 
L 648 86.4 
" style="fill:none;stroke:#000000;stroke-linecap:square;stroke-linejoin:miter;stroke-width:0.8;"/>
   </g>
   <g id="patch_5">
    <path d="M 90 630 
L 648 630 
" style="fill:none;stroke:#000000;stroke-linecap:square;stroke-linejoin:miter;stroke-width:0.8;"/>
   </g>
   <g id="patch_6">
    <path d="M 90 86.4 
L 648 86.4 
" style="fill:none;stroke:#000000;stroke-linecap:square;stroke-linejoin:miter;stroke-width:0.8;"/>
   </g>
   <g id="text_13">
    <!-- 0 -->
    <g transform="translate(82.280753 478.841327)scale(0.1 -0.1)">
     <use xlink:href="#DejaVuSans-30"/>
    </g>
   </g>
   <g id="text_14">
    <!-- 0 -->
    <g transform="translate(82.280753 466.940423)scale(0.1 -0.1)">
     <use xlink:href="#DejaVuSans-30"/>
    </g>
   </g>
   <g id="text_15">
    <!-- 0 -->
    <g transform="translate(82.280753 455.03952)scale(0.1 -0.1)">
     <use xlink:href="#DejaVuSans-30"/>
    </g>
   </g>
  </g>
 </g>
 <defs>
  <clipPath id="p004cc9699a">
   <rect height="543.6" width="558" x="90" y="86.4"/>
  </clipPath>
 </defs>
</svg>
