<?xml version="1.0" encoding="utf-8" standalone="no"?>
<!DOCTYPE svg PUBLIC "-//W3C//DTD SVG 1.1//EN"
  "http://www.w3.org/Graphics/SVG/1.1/DTD/svg11.dtd">
<svg height="720pt" version="1.1" viewBox="0 0 720 720" width="720pt" xmlns="http://www.w3.org/2000/svg" xmlns:xlink="http://www.w3.org/1999/xlink">
 <metadata>
  <rdf:RDF xmlns:cc="http://creativecommons.org/ns#" xmlns:dc="http://purl.org/dc/elements/1.1/" xmlns:rdf="http://www.w3.org/1999/02/22-rdf-syntax-ns#">
   <cc:Work>
    <dc:type rdf:resource="http://purl.org/dc/dcmitype/StillImage"/>
    <dc:date>2022-01-11T13:26:10.456365</dc:date>
    <dc:format>image/svg+xml</dc:format>
    <dc:creator>
     <cc:Agent>
      <dc:title>Matplotlib v3.4.3, https://matplotlib.org/</dc:title>
     </cc:Agent>
    </dc:creator>
   </cc:Work>
  </rdf:RDF>
 </metadata>
 <defs>
  <style type="text/css">*{stroke-linecap:butt;stroke-linejoin:round;}</style>
 </defs>
 <g id="figure_1">
  <g id="patch_1">
   <path d="M 0 720 
L 720 720 
L 720 0 
L 0 0 
z
" style="fill:none;"/>
  </g>
  <g id="axes_1">
   <g id="patch_2">
    <path d="M 90 630 
L 648 630 
L 648 86.4 
L 90 86.4 
z
" style="fill:#ffffff;"/>
   </g>
   <g id="PathCollection_1">
    <defs>
     <path d="M 0.972304 -8.870829 
Q -1.277159 -8.870829 -2.413438 -6.653699 
Q -3.545098 -4.441189 -3.545098 0.006929 
Q -3.545098 4.436569 -2.413438 6.653699 
Q -1.277159 8.870829 0.972304 8.870829 
Q 3.240243 8.870829 4.371903 6.653699 
Q 5.508182 4.436569 5.508182 0.006929 
Q 5.508182 -4.441189 4.371903 -6.653699 
Q 3.240243 -8.870829 0.972304 -8.870829 
z
M 0.972304 -11.18034 
Q 4.598235 -11.18034 6.51051 -8.311928 
Q 8.422784 -5.448135 8.422784 0.006929 
Q 8.422784 5.448135 6.51051 8.316547 
Q 4.598235 11.18034 0.972304 11.18034 
Q -2.649008 11.18034 -4.561283 8.316547 
Q -6.473558 5.448135 -6.473558 0.006929 
Q -6.473558 -5.448135 -4.561283 -8.311928 
Q -2.649008 -11.18034 0.972304 -11.18034 
z
" id="mb3399e1b3d" style="stroke:#808080;"/>
    </defs>
    <g clip-path="url(#p95781ecd2a)">
     <use style="fill:#808080;stroke:#808080;" x="397.014778" xlink:href="#mb3399e1b3d" y="137.748422"/>
    </g>
   </g>
   <g id="PathCollection_2">
    <defs>
     <path d="M -4.535873 8.63565 
L 0.404946 8.63565 
L 0.404946 -8.424791 
L -4.971969 -7.346533 
L -4.971969 -10.102082 
L 0.376192 -11.18034 
L 3.400108 -11.18034 
L 3.400108 8.63565 
L 8.340927 8.63565 
L 8.340927 11.18034 
L -4.535873 11.18034 
L -4.535873 8.63565 
z
" id="mf780a8039d" style="stroke:#808080;"/>
    </defs>
    <g clip-path="url(#p95781ecd2a)">
     <use style="fill:#808080;stroke:#808080;" x="307.872342" xlink:href="#mf780a8039d" y="392.022581"/>
    </g>
   </g>
   <g id="PathCollection_3">
    <defs>
     <path d="M -2.294912 8.680651 
L 8.075736 8.680651 
L 8.075736 11.18034 
L -5.867913 11.18034 
L -5.867913 8.680651 
Q -4.177916 6.929457 -1.259259 3.982555 
Q 1.664105 1.030945 2.4126 0.174178 
Q 3.838976 -1.426376 4.403877 -2.537349 
Q 4.973486 -3.648321 4.973486 -4.721634 
Q 4.973486 -6.472828 3.744825 -7.574386 
Q 2.516165 -8.680651 0.543718 -8.680651 
Q -0.854413 -8.680651 -2.407892 -8.195778 
Q -3.956663 -7.710904 -5.72198 -6.722326 
L -5.72198 -9.725719 
Q -3.928418 -10.445968 -2.370232 -10.813154 
Q -0.807338 -11.18034 0.487227 -11.18034 
Q 3.900173 -11.18034 5.929111 -9.471513 
Q 7.958048 -7.767394 7.958048 -4.914642 
Q 7.958048 -3.558879 7.449637 -2.344341 
Q 6.945933 -1.13451 5.604292 0.513119 
Q 5.237107 0.941502 3.264659 2.979855 
Q 1.296919 5.018207 -2.294912 8.680651 
z
" id="m058b4bbdd2" style="stroke:#808080;"/>
    </defs>
    <g clip-path="url(#p95781ecd2a)">
     <use style="fill:#808080;stroke:#808080;" x="448.544782" xlink:href="#m058b4bbdd2" y="489.345508"/>
    </g>
   </g>
   <g id="PathCollection_4">
    <defs>
     <path d="M 3.77605 -0.861447 
Q 5.868466 -0.413402 7.041697 1.004637 
Q 8.219548 2.418057 8.219548 4.496617 
Q 8.219548 7.683741 6.025513 9.43435 
Q 3.831478 11.18034 -0.210165 11.18034 
Q -1.563539 11.18034 -3.000054 10.912437 
Q -4.436569 10.644533 -5.965465 10.108727 
L -5.965465 7.295743 
Q -4.755282 8.002454 -3.314147 8.362737 
Q -1.868394 8.723021 -0.293308 8.723021 
Q 2.445772 8.723021 3.882287 7.64217 
Q 5.318802 6.561319 5.318802 4.496617 
Q 5.318802 2.588961 3.983905 1.517348 
Q 2.649008 0.441116 0.270213 0.441116 
L -2.242535 0.441116 
L -2.242535 -1.956155 
L 0.385688 -1.956155 
Q 2.533533 -1.956155 3.674431 -2.815293 
Q 4.815329 -3.674431 4.815329 -5.291088 
Q 4.815329 -6.949317 3.637479 -7.836169 
Q 2.464248 -8.72764 0.270213 -8.72764 
Q -0.930733 -8.72764 -2.302582 -8.464356 
Q -3.674431 -8.20569 -5.318802 -7.660646 
L -5.318802 -10.256536 
Q -3.655955 -10.718438 -2.205582 -10.949389 
Q -0.75521 -11.18034 0.528878 -11.18034 
Q 3.849954 -11.18034 5.780705 -9.66992 
Q 7.716074 -8.164119 7.716074 -5.595944 
Q 7.716074 -3.803764 6.690652 -2.570485 
Q 5.665229 -1.337207 3.77605 -0.861447 
z
" id="m073c79ddd3" style="stroke:#808080;"/>
    </defs>
    <g clip-path="url(#p95781ecd2a)">
     <use style="fill:#808080;stroke:#808080;" x="596.732223" xlink:href="#m073c79ddd3" y="591.29282"/>
    </g>
   </g>
   <g id="PathCollection_5">
    <defs>
     <path d="M 2.695646 -8.544598 
L -4.943215 3.392919 
L 2.695646 3.392919 
L 2.695646 -8.544598 
z
M 1.900131 -11.18034 
L 5.705184 -11.18034 
L 5.705184 3.392919 
L 8.896829 3.392919 
L 8.896829 5.908855 
L 5.705184 5.908855 
L 5.705184 11.18034 
L 2.695646 11.18034 
L 2.695646 5.908855 
L -7.396852 5.908855 
L -7.396852 2.99037 
L 1.900131 -11.18034 
z
" id="md7a9889719" style="stroke:#808080;"/>
    </defs>
    <g clip-path="url(#p95781ecd2a)">
     <use style="fill:#808080;stroke:#808080;" x="604.458721" xlink:href="#md7a9889719" y="426.302779"/>
    </g>
   </g>
   <g id="PathCollection_6">
    <defs>
     <path d="M -5.008473 -11.18034 
L 6.639575 -11.18034 
L 6.639575 -8.679629 
L -2.291535 -8.679629 
L -2.291535 -3.306861 
Q -1.647555 -3.527789 -1.003575 -3.635902 
Q -0.354894 -3.744015 0.293787 -3.744015 
Q 3.964943 -3.744015 6.108409 -1.732165 
Q 8.256576 0.279685 8.256576 3.715812 
Q 8.256576 7.255352 6.052002 9.220196 
Q 3.847428 11.18034 -0.16217 11.18034 
Q -1.544142 11.18034 -2.97782 10.945311 
Q -4.406798 10.710281 -5.934488 10.240223 
L -5.934488 7.255352 
Q -4.613624 7.974541 -3.203448 8.327085 
Q -1.793273 8.679629 -0.223278 8.679629 
Q 2.319738 8.679629 3.800422 7.344663 
Q 5.285807 6.009697 5.285807 3.715812 
Q 5.285807 1.426627 3.800422 0.091661 
Q 2.319738 -1.248005 -0.223278 -1.248005 
Q -1.412526 -1.248005 -2.597073 -0.984772 
Q -3.77692 -0.72154 -5.008473 -0.16217 
L -5.008473 -11.18034 
z
" id="m31d83ac927" style="stroke:#808080;"/>
    </defs>
    <g clip-path="url(#p95781ecd2a)">
     <use style="fill:#808080;stroke:#808080;" x="539.304487" xlink:href="#m31d83ac927" y="259.706272"/>
    </g>
   </g>
   <g id="PathCollection_7">
    <defs>
     <path d="M 1.286397 -1.175541 
Q -0.676687 -1.175541 -1.826823 0.168594 
Q -2.97234 1.50811 -2.97234 3.845335 
Q -2.97234 6.168702 -1.826823 7.522075 
Q -0.676687 8.870829 1.286397 8.870829 
Q 3.249481 8.870829 4.394998 7.522075 
Q 5.540515 6.168702 5.540515 3.845335 
Q 5.540515 1.50811 4.394998 0.168594 
Q 3.249481 -1.175541 1.286397 -1.175541 
z
M 7.07403 -10.316583 
L 7.07403 -7.660646 
Q 5.974703 -8.177976 4.8569 -8.450499 
Q 3.739097 -8.72764 2.63977 -8.72764 
Q -0.247118 -8.72764 -1.771394 -6.778413 
Q -3.291052 -4.829186 -3.508146 -0.889162 
Q -2.658246 -2.145535 -1.374159 -2.815293 
Q -0.085452 -3.485051 1.457301 -3.485051 
Q 4.704473 -3.485051 6.589033 -1.512729 
Q 8.473594 0.454974 8.473594 3.845335 
Q 8.473594 7.166411 6.51051 9.175685 
Q 4.547426 11.18034 1.286397 11.18034 
Q -2.45501 11.18034 -4.43195 8.316547 
Q -6.408891 5.448135 -6.408891 0.006929 
Q -6.408891 -5.101708 -3.983905 -8.141024 
Q -1.55892 -11.18034 2.524295 -11.18034 
Q 3.623622 -11.18034 4.741425 -10.963246 
Q 5.859228 -10.746152 7.07403 -10.316583 
z
" id="m4b4f46410b" style="stroke:#808080;"/>
    </defs>
    <g clip-path="url(#p95781ecd2a)">
     <use style="fill:#808080;stroke:#808080;" x="539.304487" xlink:href="#m4b4f46410b" y="259.706272"/>
    </g>
   </g>
   <g id="PathCollection_8"/>
   <g id="PathCollection_9"/>
   <g id="PathCollection_10"/>
   <g id="PathCollection_11"/>
   <g id="PathCollection_12"/>
   <g id="matplotlib.axis_1">
    <g id="xtick_1">
     <g id="line2d_1">
      <defs>
       <path d="M 0 0 
L 0 3.5 
" id="m2087702db5" style="stroke:#000000;stroke-width:0.8;"/>
      </defs>
      <g>
       <use style="stroke:#000000;stroke-width:0.8;" x="109.395383" xlink:href="#m2087702db5" y="630"/>
      </g>
     </g>
     <g id="text_1">
      <!-- −300 -->
      <g transform="translate(95.661789 644.598438)scale(0.1 -0.1)">
       <defs>
        <path d="M 678 2272 
L 4684 2272 
L 4684 1741 
L 678 1741 
L 678 2272 
z
" id="DejaVuSans-2212" transform="scale(0.015625)"/>
        <path d="M 2597 2516 
Q 3050 2419 3304 2112 
Q 3559 1806 3559 1356 
Q 3559 666 3084 287 
Q 2609 -91 1734 -91 
Q 1441 -91 1130 -33 
Q 819 25 488 141 
L 488 750 
Q 750 597 1062 519 
Q 1375 441 1716 441 
Q 2309 441 2620 675 
Q 2931 909 2931 1356 
Q 2931 1769 2642 2001 
Q 2353 2234 1838 2234 
L 1294 2234 
L 1294 2753 
L 1863 2753 
Q 2328 2753 2575 2939 
Q 2822 3125 2822 3475 
Q 2822 3834 2567 4026 
Q 2313 4219 1838 4219 
Q 1578 4219 1281 4162 
Q 984 4106 628 3988 
L 628 4550 
Q 988 4650 1302 4700 
Q 1616 4750 1894 4750 
Q 2613 4750 3031 4423 
Q 3450 4097 3450 3541 
Q 3450 3153 3228 2886 
Q 3006 2619 2597 2516 
z
" id="DejaVuSans-33" transform="scale(0.015625)"/>
        <path d="M 2034 4250 
Q 1547 4250 1301 3770 
Q 1056 3291 1056 2328 
Q 1056 1369 1301 889 
Q 1547 409 2034 409 
Q 2525 409 2770 889 
Q 3016 1369 3016 2328 
Q 3016 3291 2770 3770 
Q 2525 4250 2034 4250 
z
M 2034 4750 
Q 2819 4750 3233 4129 
Q 3647 3509 3647 2328 
Q 3647 1150 3233 529 
Q 2819 -91 2034 -91 
Q 1250 -91 836 529 
Q 422 1150 422 2328 
Q 422 3509 836 4129 
Q 1250 4750 2034 4750 
z
" id="DejaVuSans-30" transform="scale(0.015625)"/>
       </defs>
       <use xlink:href="#DejaVuSans-2212"/>
       <use x="83.789062" xlink:href="#DejaVuSans-33"/>
       <use x="147.412109" xlink:href="#DejaVuSans-30"/>
       <use x="211.035156" xlink:href="#DejaVuSans-30"/>
      </g>
     </g>
    </g>
    <g id="xtick_2">
     <g id="line2d_2">
      <g>
       <use style="stroke:#000000;stroke-width:0.8;" x="207.087377" xlink:href="#m2087702db5" y="630"/>
      </g>
     </g>
     <g id="text_2">
      <!-- −200 -->
      <g transform="translate(193.353783 644.598438)scale(0.1 -0.1)">
       <defs>
        <path d="M 1228 531 
L 3431 531 
L 3431 0 
L 469 0 
L 469 531 
Q 828 903 1448 1529 
Q 2069 2156 2228 2338 
Q 2531 2678 2651 2914 
Q 2772 3150 2772 3378 
Q 2772 3750 2511 3984 
Q 2250 4219 1831 4219 
Q 1534 4219 1204 4116 
Q 875 4013 500 3803 
L 500 4441 
Q 881 4594 1212 4672 
Q 1544 4750 1819 4750 
Q 2544 4750 2975 4387 
Q 3406 4025 3406 3419 
Q 3406 3131 3298 2873 
Q 3191 2616 2906 2266 
Q 2828 2175 2409 1742 
Q 1991 1309 1228 531 
z
" id="DejaVuSans-32" transform="scale(0.015625)"/>
       </defs>
       <use xlink:href="#DejaVuSans-2212"/>
       <use x="83.789062" xlink:href="#DejaVuSans-32"/>
       <use x="147.412109" xlink:href="#DejaVuSans-30"/>
       <use x="211.035156" xlink:href="#DejaVuSans-30"/>
      </g>
     </g>
    </g>
    <g id="xtick_3">
     <g id="line2d_3">
      <g>
       <use style="stroke:#000000;stroke-width:0.8;" x="304.77937" xlink:href="#m2087702db5" y="630"/>
      </g>
     </g>
     <g id="text_3">
      <!-- −100 -->
      <g transform="translate(291.045776 644.598438)scale(0.1 -0.1)">
       <defs>
        <path d="M 794 531 
L 1825 531 
L 1825 4091 
L 703 3866 
L 703 4441 
L 1819 4666 
L 2450 4666 
L 2450 531 
L 3481 531 
L 3481 0 
L 794 0 
L 794 531 
z
" id="DejaVuSans-31" transform="scale(0.015625)"/>
       </defs>
       <use xlink:href="#DejaVuSans-2212"/>
       <use x="83.789062" xlink:href="#DejaVuSans-31"/>
       <use x="147.412109" xlink:href="#DejaVuSans-30"/>
       <use x="211.035156" xlink:href="#DejaVuSans-30"/>
      </g>
     </g>
    </g>
    <g id="xtick_4">
     <g id="line2d_4">
      <g>
       <use style="stroke:#000000;stroke-width:0.8;" x="402.471363" xlink:href="#m2087702db5" y="630"/>
      </g>
     </g>
     <g id="text_4">
      <!-- 0 -->
      <g transform="translate(399.290113 644.598438)scale(0.1 -0.1)">
       <use xlink:href="#DejaVuSans-30"/>
      </g>
     </g>
    </g>
    <g id="xtick_5">
     <g id="line2d_5">
      <g>
       <use style="stroke:#000000;stroke-width:0.8;" x="500.163357" xlink:href="#m2087702db5" y="630"/>
      </g>
     </g>
     <g id="text_5">
      <!-- 100 -->
      <g transform="translate(490.619607 644.598438)scale(0.1 -0.1)">
       <use xlink:href="#DejaVuSans-31"/>
       <use x="63.623047" xlink:href="#DejaVuSans-30"/>
       <use x="127.246094" xlink:href="#DejaVuSans-30"/>
      </g>
     </g>
    </g>
    <g id="xtick_6">
     <g id="line2d_6">
      <g>
       <use style="stroke:#000000;stroke-width:0.8;" x="597.85535" xlink:href="#m2087702db5" y="630"/>
      </g>
     </g>
     <g id="text_6">
      <!-- 200 -->
      <g transform="translate(588.3116 644.598438)scale(0.1 -0.1)">
       <use xlink:href="#DejaVuSans-32"/>
       <use x="63.623047" xlink:href="#DejaVuSans-30"/>
       <use x="127.246094" xlink:href="#DejaVuSans-30"/>
      </g>
     </g>
    </g>
   </g>
   <g id="matplotlib.axis_2">
    <g id="ytick_1">
     <g id="line2d_7">
      <defs>
       <path d="M 0 0 
L -3.5 0 
" id="m4fec3ab8a2" style="stroke:#000000;stroke-width:0.8;"/>
      </defs>
      <g>
       <use style="stroke:#000000;stroke-width:0.8;" x="90" xlink:href="#m4fec3ab8a2" y="611.105143"/>
      </g>
     </g>
     <g id="text_7">
      <!-- −300 -->
      <g transform="translate(55.532812 614.904362)scale(0.1 -0.1)">
       <use xlink:href="#DejaVuSans-2212"/>
       <use x="83.789062" xlink:href="#DejaVuSans-33"/>
       <use x="147.412109" xlink:href="#DejaVuSans-30"/>
       <use x="211.035156" xlink:href="#DejaVuSans-30"/>
      </g>
     </g>
    </g>
    <g id="ytick_2">
     <g id="line2d_8">
      <g>
       <use style="stroke:#000000;stroke-width:0.8;" x="90" xlink:href="#m4fec3ab8a2" y="515.934233"/>
      </g>
     </g>
     <g id="text_8">
      <!-- −200 -->
      <g transform="translate(55.532812 519.733452)scale(0.1 -0.1)">
       <use xlink:href="#DejaVuSans-2212"/>
       <use x="83.789062" xlink:href="#DejaVuSans-32"/>
       <use x="147.412109" xlink:href="#DejaVuSans-30"/>
       <use x="211.035156" xlink:href="#DejaVuSans-30"/>
      </g>
     </g>
    </g>
    <g id="ytick_3">
     <g id="line2d_9">
      <g>
       <use style="stroke:#000000;stroke-width:0.8;" x="90" xlink:href="#m4fec3ab8a2" y="420.763323"/>
      </g>
     </g>
     <g id="text_9">
      <!-- −100 -->
      <g transform="translate(55.532812 424.562542)scale(0.1 -0.1)">
       <use xlink:href="#DejaVuSans-2212"/>
       <use x="83.789062" xlink:href="#DejaVuSans-31"/>
       <use x="147.412109" xlink:href="#DejaVuSans-30"/>
       <use x="211.035156" xlink:href="#DejaVuSans-30"/>
      </g>
     </g>
    </g>
    <g id="ytick_4">
     <g id="line2d_10">
      <g>
       <use style="stroke:#000000;stroke-width:0.8;" x="90" xlink:href="#m4fec3ab8a2" y="325.592414"/>
      </g>
     </g>
     <g id="text_10">
      <!-- 0 -->
      <g transform="translate(76.6375 329.391633)scale(0.1 -0.1)">
       <use xlink:href="#DejaVuSans-30"/>
      </g>
     </g>
    </g>
    <g id="ytick_5">
     <g id="line2d_11">
      <g>
       <use style="stroke:#000000;stroke-width:0.8;" x="90" xlink:href="#m4fec3ab8a2" y="230.421504"/>
      </g>
     </g>
     <g id="text_11">
      <!-- 100 -->
      <g transform="translate(63.9125 234.220723)scale(0.1 -0.1)">
       <use xlink:href="#DejaVuSans-31"/>
       <use x="63.623047" xlink:href="#DejaVuSans-30"/>
       <use x="127.246094" xlink:href="#DejaVuSans-30"/>
      </g>
     </g>
    </g>
    <g id="ytick_6">
     <g id="line2d_12">
      <g>
       <use style="stroke:#000000;stroke-width:0.8;" x="90" xlink:href="#m4fec3ab8a2" y="135.250594"/>
      </g>
     </g>
     <g id="text_12">
      <!-- 200 -->
      <g transform="translate(63.9125 139.049813)scale(0.1 -0.1)">
       <use xlink:href="#DejaVuSans-32"/>
       <use x="63.623047" xlink:href="#DejaVuSans-30"/>
       <use x="127.246094" xlink:href="#DejaVuSans-30"/>
      </g>
     </g>
    </g>
   </g>
   <g id="line2d_13">
    <path clip-path="url(#p95781ecd2a)" d="M 539.304487 259.706272 
L 535.194699 257.076332 
L 531.739202 253.63471 
L 528.592205 249.920836 
L 525.623288 246.070185 
L 522.769927 242.137565 
L 519.996672 238.150875 
L 517.281128 234.126432 
L 514.608022 230.074736 
L 511.966321 226.003045 
L 509.347675 221.916664 
L 506.745512 217.819661 
L 504.154478 213.715287 
L 501.570071 209.606232 
L 498.988395 205.494804 
L 496.405982 201.383042 
L 493.819665 197.272809 
L 491.226476 193.165854 
L 488.623566 189.06387 
L 486.008139 184.968539 
L 483.377392 180.881574 
L 480.728457 176.804772 
L 478.058346 172.740052 
L 475.363891 168.689515 
L 472.641681 164.65551 
L 469.887984 160.640709 
L 467.098661 156.648208 
L 464.269055 152.681664 
L 461.393858 148.745463 
L 458.466925 144.844963 
L 455.481047 140.986824 
L 452.427627 137.179484 
L 449.296238 133.433853 
L 446.073983 129.764369 
L 442.744554 126.190661 
L 439.286797 122.740282 
L 435.672457 119.453487 
L 431.862659 116.392221 
L 427.803077 113.658633 
L 423.422841 111.436726 
L 418.67436 110.081519 
L 413.739423 110.181946 
L 409.250489 112.107858 
L 405.695716 115.410225 
L 403.003239 119.436952 
L 400.941361 123.815589 
L 399.328964 128.37431 
L 398.04636 133.032234 
L 397.014778 137.748422 
" style="fill:none;stroke:#808080;stroke-linecap:square;stroke-width:1.5;"/>
   </g>
   <g id="line2d_14">
    <path clip-path="url(#p95781ecd2a)" d="M 397.014778 259.706272 
L 397.014778 110.081519 
L 539.304487 110.081519 
L 539.304487 259.706272 
L 397.014778 259.706272 
" style="fill:none;stroke:#d3d3d3;stroke-linecap:square;stroke-width:0.5;"/>
   </g>
   <g id="line2d_15">
    <path clip-path="url(#p95781ecd2a)" d="M 397.014778 137.748422 
L 396.078935 142.484082 
L 395.120992 147.214978 
L 394.138186 151.940212 
L 393.127325 156.659009 
L 392.084766 161.370604 
L 391.006412 166.074134 
L 389.887721 170.768536 
L 388.723756 175.452479 
L 387.509272 180.124329 
L 386.238879 184.782163 
L 384.907273 189.423845 
L 383.509549 194.047165 
L 382.041598 198.650014 
L 380.500538 203.230586 
L 378.885124 207.787551 
L 377.196065 212.320182 
L 375.436166 216.828395 
L 373.610234 221.312716 
L 371.724775 225.774194 
L 369.7875 230.214296 
L 367.806765 234.634811 
L 365.791026 239.037775 
L 363.748382 243.42541 
L 361.686269 247.800082 
L 359.611283 252.164248 
L 357.52913 256.520407 
L 355.444663 260.871045 
L 353.361972 265.218583 
L 351.284498 269.56533 
L 349.215151 273.913451 
L 347.156428 278.26495 
L 345.110505 282.621658 
L 343.079328 286.985249 
L 341.06468 291.357247 
L 339.068237 295.739059 
L 337.091624 300.131998 
L 335.136455 304.537316 
L 333.204382 308.956226 
L 331.297138 313.38993 
L 329.416593 317.839633 
L 327.564814 322.306556 
L 325.744141 326.791931 
L 323.957282 331.29699 
L 322.207432 335.822944 
L 320.498429 340.370946 
L 318.834957 344.942042 
L 317.222822 349.537118 
L 315.669326 354.156834 
L 314.183815 358.801576 
L 312.778489 363.47143 
L 311.469708 368.166242 
L 310.280222 372.885832 
L 309.243423 377.630489 
L 308.412494 382.401817 
L 307.883778 387.202714 
L 307.872342 392.022581 
" style="fill:none;stroke:#808080;stroke-linecap:square;stroke-width:1.5;"/>
   </g>
   <g id="line2d_16">
    <path clip-path="url(#p95781ecd2a)" d="M 307.872342 392.022581 
L 307.872342 137.748422 
L 397.014778 137.748422 
L 397.014778 392.022581 
L 307.872342 392.022581 
" style="fill:none;stroke:#d3d3d3;stroke-linecap:square;stroke-width:0.5;"/>
   </g>
   <g id="line2d_17">
    <path clip-path="url(#p95781ecd2a)" d="M 307.872342 392.022581 
L 308.330844 396.87261 
L 308.933753 401.707458 
L 309.719185 406.516131 
L 310.742801 411.279113 
L 312.089972 415.960003 
L 313.899171 420.485388 
L 316.402456 424.687043 
L 319.924275 428.136201 
L 324.500165 430.050235 
L 329.472181 430.160349 
L 334.324317 429.05703 
L 338.976187 427.297218 
L 343.478876 425.191019 
L 347.894592 422.910834 
L 352.27681 420.565944 
L 356.670538 418.238179 
L 361.114739 416.000241 
L 365.643505 413.927029 
L 370.28486 412.104178 
L 375.055852 410.634552 
L 379.95238 409.640069 
L 384.93448 409.251703 
L 389.915837 409.579582 
L 394.775384 410.669613 
L 399.396919 412.479488 
L 403.708571 414.900385 
L 407.691316 417.803409 
L 411.362121 421.073447 
L 414.753839 424.620493 
L 417.902481 428.378022 
L 420.841457 432.297648 
L 423.599738 436.344057 
L 426.201742 440.491163 
L 428.667843 444.719409 
L 431.015021 449.013902 
L 433.25747 453.363134 
L 435.407119 457.758089 
L 437.474058 462.191614 
L 439.466876 466.657972 
L 441.392937 471.152509 
L 443.258588 475.67142 
L 445.069339 480.211562 
L 446.829998 484.770322 
L 448.544782 489.345508 
" style="fill:none;stroke:#808080;stroke-linecap:square;stroke-width:1.5;"/>
   </g>
   <g id="line2d_18">
    <path clip-path="url(#p95781ecd2a)" d="M 307.872342 489.345508 
L 307.872342 392.022581 
L 448.544782 392.022581 
L 448.544782 489.345508 
L 307.872342 489.345508 
" style="fill:none;stroke:#d3d3d3;stroke-linecap:square;stroke-width:0.5;"/>
   </g>
   <g id="line2d_19">
    <path clip-path="url(#p95781ecd2a)" d="M 448.544782 489.345508 
L 450.254098 493.942702 
L 451.983503 498.532736 
L 453.734411 503.114954 
L 455.50839 507.688609 
L 457.307184 512.252845 
L 459.13274 516.806682 
L 460.98724 521.348989 
L 462.873144 525.878459 
L 464.793237 530.393578 
L 466.750689 534.892574 
L 468.749128 539.373378 
L 470.792736 543.833545 
L 472.886365 548.27018 
L 475.035682 552.679822 
L 477.247369 557.058301 
L 479.529362 561.400542 
L 481.891178 565.700296 
L 484.344332 569.949755 
L 486.902881 574.138994 
L 489.584123 578.255139 
L 492.409438 582.281084 
L 495.405203 586.193486 
L 498.603472 589.959636 
L 502.041582 593.532782 
L 505.75886 596.846052 
L 509.78753 599.807451 
L 514.136113 602.303533 
L 518.771453 604.222777 
L 523.616712 605.497441 
L 528.576059 606.135343 
L 533.568412 606.21288 
L 538.544341 605.839853 
L 543.483076 605.126756 
L 548.381898 604.168289 
L 553.246853 603.039556 
L 558.087017 601.798042 
L 562.911557 600.487123 
L 567.728474 599.139383 
L 572.544203 597.779271 
L 577.363615 596.425108 
L 582.190208 595.090568 
L 587.02633 593.785772 
L 591.87342 592.518103 
L 596.732223 591.29282 
" style="fill:none;stroke:#808080;stroke-linecap:square;stroke-width:1.5;"/>
   </g>
   <g id="line2d_20">
    <path clip-path="url(#p95781ecd2a)" d="M 448.544782 606.21288 
L 448.544782 489.345508 
L 596.732223 489.345508 
L 596.732223 606.21288 
L 448.544782 606.21288 
" style="fill:none;stroke:#d3d3d3;stroke-linecap:square;stroke-width:0.5;"/>
   </g>
   <g id="line2d_21">
    <path clip-path="url(#p95781ecd2a)" d="M 596.732223 591.29282 
L 601.409896 589.74739 
L 605.751393 587.454979 
L 609.60594 584.448542 
L 612.881385 580.848676 
L 615.568964 576.81299 
L 617.720482 572.483554 
L 619.411594 567.965496 
L 620.717601 563.329293 
L 621.703659 558.620307 
L 622.422981 553.867443 
L 622.918103 549.089209 
L 623.222877 544.297574 
L 623.36436 539.500362 
L 623.364338 534.702728 
L 623.240527 529.90808 
L 623.00747 525.118666 
L 622.677222 520.33595 
L 622.259869 515.560857 
L 621.763918 510.793943 
L 621.196603 506.035501 
L 620.564119 501.285644 
L 619.871807 496.544354 
L 619.124297 491.811521 
L 618.325627 487.086974 
L 617.479333 482.370492 
L 616.588529 477.661829 
L 615.655961 472.960715 
L 614.684068 468.26687 
L 613.675014 463.580008 
L 612.630731 458.899839 
L 611.552942 454.226077 
L 610.443192 449.558439 
L 609.302862 444.89665 
L 608.133193 440.240441 
L 606.935298 435.589555 
L 605.710176 430.943746 
L 604.458721 426.302779 
" style="fill:none;stroke:#808080;stroke-linecap:square;stroke-width:1.5;"/>
   </g>
   <g id="line2d_22">
    <path clip-path="url(#p95781ecd2a)" d="M 596.732223 591.29282 
L 596.732223 426.302779 
L 623.36436 426.302779 
L 623.36436 591.29282 
L 596.732223 591.29282 
" style="fill:none;stroke:#d3d3d3;stroke-linecap:square;stroke-width:0.5;"/>
   </g>
   <g id="line2d_23">
    <path clip-path="url(#p95781ecd2a)" d="M 604.458721 426.302779 
L 603.181734 421.666435 
L 601.879932 417.034507 
L 600.553952 412.406806 
L 599.204359 407.783158 
L 597.831651 403.163409 
L 596.436261 398.547423 
L 595.018566 393.935084 
L 593.578882 389.326301 
L 592.117474 384.721002 
L 590.634552 380.119146 
L 589.130273 375.520717 
L 587.604745 370.925728 
L 586.058018 366.334225 
L 584.490092 361.746292 
L 582.900909 357.162049 
L 581.290349 352.581659 
L 579.658228 348.005335 
L 578.004288 343.433342 
L 576.328193 338.866003 
L 574.629513 334.303713 
L 572.907709 329.74694 
L 571.162116 325.196247 
L 569.391916 320.652303 
L 567.596101 316.115902 
L 565.773425 311.587996 
L 563.922341 307.069729 
L 562.040901 302.562493 
L 560.126622 298.068004 
L 558.176275 293.588418 
L 556.185559 289.126521 
L 554.148549 284.686038 
L 552.056738 280.272195 
L 549.897153 275.892847 
L 547.648244 271.561037 
L 545.268989 267.30217 
L 542.658804 263.183183 
L 539.304487 259.706272 
" style="fill:none;stroke:#808080;stroke-linecap:square;stroke-width:1.5;"/>
   </g>
   <g id="line2d_24">
    <path clip-path="url(#p95781ecd2a)" d="M 539.304487 426.302779 
L 539.304487 259.706272 
L 604.458721 259.706272 
L 604.458721 426.302779 
L 539.304487 426.302779 
" style="fill:none;stroke:#d3d3d3;stroke-linecap:square;stroke-width:0.5;"/>
   </g>
   <g id="line2d_25">
    <path clip-path="url(#p95781ecd2a)" d="M 539.304487 259.706272 
" style="fill:none;stroke:#808080;stroke-linecap:square;stroke-width:1.5;"/>
   </g>
   <g id="line2d_26">
    <path clip-path="url(#p95781ecd2a)" d="M 539.304487 259.706272 
L 539.304487 259.706272 
L 539.304487 259.706272 
L 539.304487 259.706272 
L 539.304487 259.706272 
" style="fill:none;stroke:#d3d3d3;stroke-linecap:square;stroke-width:0.5;"/>
   </g>
   <g id="line2d_27">
    <path clip-path="url(#p95781ecd2a)" d="M 457.73673 486.122508 
L 457.73673 486.122508 
L 457.73673 486.122508 
" style="fill:none;stroke:#000000;stroke-linecap:square;stroke-width:3;"/>
   </g>
   <g id="line2d_28">
    <path clip-path="url(#p95781ecd2a)" d="M 457.73673 486.122508 
L 457.73673 486.122508 
L 457.73673 486.122508 
L 457.73673 486.122508 
L 457.73673 486.122508 
" style="fill:none;stroke:#d3d3d3;stroke-linecap:square;stroke-width:0.5;"/>
   </g>
   <g id="line2d_29">
    <path clip-path="url(#p95781ecd2a)" d="M 457.73673 486.122508 
L 457.73673 486.122508 
L 457.73673 486.122508 
" style="fill:none;stroke:#000000;stroke-linecap:square;stroke-width:3;"/>
   </g>
   <g id="line2d_30">
    <path clip-path="url(#p95781ecd2a)" d="M 457.73673 486.122508 
L 457.73673 486.122508 
L 457.73673 486.122508 
L 457.73673 486.122508 
L 457.73673 486.122508 
" style="fill:none;stroke:#d3d3d3;stroke-linecap:square;stroke-width:0.5;"/>
   </g>
   <g id="line2d_31">
    <path clip-path="url(#p95781ecd2a)" d="M 317.610841 391.268666 
L 317.610841 391.268666 
L 318.045949 395.872468 
L 318.610368 400.400307 
L 319.331043 404.814929 
L 320.24114 409.053595 
L 321.376442 413.00533 
L 322.753924 416.465069 
L 324.281869 419.06095 
L 325.548853 420.354756 
L 326.413814 420.717521 
L 328.240177 420.719241 
L 331.309576 420.004439 
L 335.020888 418.595053 
L 339.033529 416.716311 
L 343.225143 414.551283 
L 347.566751 412.228042 
L 352.070092 409.842397 
L 356.768424 407.476921 
L 361.709211 405.215833 
L 366.949128 403.159079 
L 372.543939 401.437446 
L 378.523631 400.225309 
L 384.844874 399.735013 
L 391.338357 400.163927 
L 397.718144 401.594571 
L 403.697314 403.934091 
L 409.1135 406.97258 
L 413.946413 410.492996 
L 418.257041 414.331258 
L 422.129737 418.380072 
L 425.643669 422.572674 
L 428.864331 426.867382 
L 431.843491 431.237407 
L 434.621579 435.664863 
L 437.230249 440.137336 
L 439.694515 444.645901 
L 442.034375 449.183946 
L 444.266016 453.746446 
L 446.402697 458.329499 
L 448.455403 462.930023 
L 450.433328 467.545548 
L 452.344246 472.174069 
L 454.194782 476.81394 
L 455.990634 481.463799 
L 457.73673 486.122508 
" style="fill:none;stroke:#000000;stroke-linecap:square;stroke-width:3;"/>
   </g>
   <g id="line2d_32">
    <path clip-path="url(#p95781ecd2a)" d="M 317.610841 486.122508 
L 317.610841 391.268666 
L 457.73673 391.268666 
L 457.73673 486.122508 
L 317.610841 486.122508 
" style="fill:none;stroke:#d3d3d3;stroke-linecap:square;stroke-width:0.5;"/>
   </g>
   <g id="line2d_33">
    <path clip-path="url(#p95781ecd2a)" d="M 406.611698 139.527865 
L 406.611698 139.527865 
L 405.667905 144.303745 
L 404.700788 149.079934 
L 403.707357 153.856235 
L 402.68415 158.632645 
L 401.627207 163.409226 
L 400.532061 168.185969 
L 399.393758 172.962639 
L 398.206912 177.73862 
L 396.965824 182.51277 
L 395.664688 187.283277 
L 394.297896 192.047566 
L 392.860443 196.802261 
L 391.348429 201.543247 
L 389.759576 206.265863 
L 388.093683 210.965229 
L 386.3529 215.636682 
L 384.541732 220.276258 
L 382.666744 224.881096 
L 380.736026 229.449706 
L 378.75853 233.982027 
L 376.743412 238.47931 
L 374.699479 242.94388 
L 372.634809 247.378846 
L 370.556535 251.787813 
L 368.470779 256.174636 
L 366.38269 260.543216 
L 364.296546 264.897356 
L 362.215887 269.240652 
" style="fill:none;stroke:#000000;stroke-linecap:square;stroke-width:3;"/>
   </g>
   <g id="line2d_34">
    <path clip-path="url(#p95781ecd2a)" d="M 362.215887 269.240652 
L 362.215887 139.527865 
L 406.611698 139.527865 
L 406.611698 269.240652 
L 362.215887 269.240652 
" style="fill:none;stroke:#d3d3d3;stroke-linecap:square;stroke-width:0.5;"/>
   </g>
   <g id="line2d_35">
    <path clip-path="url(#p95781ecd2a)" d="M 362.215887 269.240652 
L 360.143654 273.57643 
L 358.082324 277.907705 
L 356.03402 282.237176 
L 354.000614 286.567228 
L 351.983802 290.899957 
L 349.985168 295.237197 
L 348.006243 299.580558 
L 346.048543 303.931459 
L 344.113616 308.291166 
L 342.203079 312.660813 
L 340.31867 317.04143 
L 338.462291 321.433947 
L 336.636079 325.839189 
L 334.842479 330.257856 
L 333.084347 334.690476 
L 331.365072 339.137334 
L 329.688742 343.598366 
L 328.060362 348.073004 
L 326.486146 352.559958 
L 324.973918 357.056892 
L 323.533691 361.55995 
L 322.178517 366.062991 
L 320.925833 370.556285 
L 319.799675 375.024018 
L 318.834653 379.438811 
L 318.083548 383.747463 
L 317.632096 387.82464 
L 317.610841 391.268666 
L 317.610841 391.268666 
" style="fill:none;stroke:#000000;stroke-linecap:square;stroke-width:3;"/>
   </g>
   <g id="line2d_36">
    <path clip-path="url(#p95781ecd2a)" d="M 317.610841 391.268666 
L 317.610841 269.240652 
L 362.215887 269.240652 
L 362.215887 391.268666 
L 317.610841 391.268666 
" style="fill:none;stroke:#d3d3d3;stroke-linecap:square;stroke-width:0.5;"/>
   </g>
   <g id="line2d_37">
    <path clip-path="url(#p95781ecd2a)" d="M 317.610841 391.268666 
" style="fill:none;stroke:#000000;stroke-linecap:square;stroke-width:3;"/>
   </g>
   <g id="line2d_38">
    <path clip-path="url(#p95781ecd2a)" d="M 317.610841 391.268666 
L 317.610841 391.268666 
L 317.610841 391.268666 
L 317.610841 391.268666 
L 317.610841 391.268666 
" style="fill:none;stroke:#d3d3d3;stroke-linecap:square;stroke-width:0.5;"/>
   </g>
   <g id="line2d_39">
    <path clip-path="url(#p95781ecd2a)" d="M 457.73673 486.122508 
L 459.432346 490.682861 
L 461.146898 495.233477 
L 462.881652 499.773421 
L 464.638 504.301625 
L 466.417481 508.816861 
L 468.221796 513.317721 
L 470.052836 517.802574 
L 471.912707 522.269527 
L 473.803763 526.716376 
L 475.728647 531.140535 
L 477.690337 535.538958 
L 479.692197 539.908033 
L 481.738048 544.243453 
L 483.832242 548.540038 
L 485.97975 552.791512 
L 488.186266 556.990201 
L 490.458316 561.126626 
L 492.803366 565.188948 
L 495.2299 569.162207 
L 497.747415 573.027256 
L 500.366221 576.7593 
L 503.096817 580.325934 
L 505.948496 583.68475 
L 508.926712 586.781106 
L 512.029284 589.548112 
L 515.243972 591.913207 
L 518.554943 593.815674 
L 521.964688 595.228459 
L 525.513594 596.161479 
L 529.259848 596.641594 
L 533.233114 596.701396 
L 537.418555 596.386166 
L 541.776781 595.755955 
L 546.266535 594.87699 
L 550.854918 593.812143 
L 555.518567 592.615766 
L 560.241568 591.332377 
L 565.013033 589.997334 
L 569.825243 588.638214 
L 574.672424 587.276256 
L 579.549991 585.927631 
L 584.45411 584.604498 
L 589.381457 583.315846 
L 594.329084 582.06817 
" style="fill:none;stroke:#000000;stroke-linecap:square;stroke-width:3;"/>
   </g>
   <g id="line2d_40">
    <path clip-path="url(#p95781ecd2a)" d="M 457.73673 596.701396 
L 457.73673 486.122508 
L 594.329084 486.122508 
L 594.329084 596.701396 
L 457.73673 596.701396 
" style="fill:none;stroke:#d3d3d3;stroke-linecap:square;stroke-width:0.5;"/>
   </g>
   <g id="line2d_41">
    <path clip-path="url(#p95781ecd2a)" d="M 536.047378 268.678827 
L 536.047378 268.678827 
L 528.69458 264.180982 
L 524.411345 259.928616 
L 520.894406 255.780684 
L 517.716811 251.660127 
L 514.730768 247.544926 
L 511.867135 243.42844 
L 509.087476 239.309043 
L 506.367896 235.18694 
L 503.692312 231.063043 
L 501.049228 226.938537 
L 498.430019 222.814703 
L 495.827953 218.692857 
L 493.23758 214.574318 
L 490.654352 210.460419 
L 488.074359 206.352508 
L 485.494143 202.25197 
L 482.910571 198.160246 
L 480.320733 194.07886 
L 477.72186 190.009446 
L 475.111264 185.953782 
L 472.486281 181.913838 
L 469.844224 177.891818 
L 467.182337 173.890233 
L 464.497754 169.911978 
L 461.787454 165.960437 
L 459.048223 162.03962 
L 456.276609 158.154347 
L 453.468886 154.310494 
L 450.621025 150.515331 
L 447.728682 146.778001 
L 444.787231 143.110203 
L 441.791894 139.527204 
L 438.738063 136.049355 
L 435.622058 132.704463 
L 432.442849 129.53158 
L 429.206045 126.587269 
L 425.93356 123.956069 
L 422.688318 121.76709 
L 419.638531 120.210757 
L 417.185278 119.487401 
L 415.803492 119.484187 
L 414.823204 119.924637 
L 413.319421 121.361294 
L 411.608274 123.942598 
L 410.031912 127.300854 
L 408.680888 131.126089 
L 407.550004 135.236154 
L 406.611698 139.527865 
L 406.611698 139.527865 
" style="fill:none;stroke:#000000;stroke-linecap:square;stroke-width:3;"/>
   </g>
   <g id="line2d_42">
    <path clip-path="url(#p95781ecd2a)" d="M 406.611698 268.678827 
L 406.611698 119.484187 
L 536.047378 119.484187 
L 536.047378 268.678827 
L 406.611698 268.678827 
" style="fill:none;stroke:#d3d3d3;stroke-linecap:square;stroke-width:0.5;"/>
   </g>
   <g id="line2d_43">
    <path clip-path="url(#p95781ecd2a)" d="M 594.329084 582.06817 
L 597.524126 581.015548 
L 600.349954 579.524917 
L 602.854576 577.569857 
L 605.082413 575.117196 
L 607.038214 572.17522 
L 608.709811 568.806689 
L 610.095848 565.099623 
L 611.210834 561.138195 
L 612.078773 556.990512 
L 612.726595 552.70764 
L 613.18031 548.32669 
L 613.463341 543.874382 
L 613.596077 539.369996 
L 613.595979 534.827543 
L 613.477906 530.257303 
L 613.254492 525.666889 
L 612.936493 521.061998 
L 612.533102 516.446923 
L 612.05221 511.824926 
L 611.50062 507.198499 
L 610.884225 502.569553 
L 610.208155 497.939557 
L 609.476892 493.30964 
L 608.694373 488.680668 
L 607.864065 484.053304 
L 606.989035 479.428046 
L 606.072004 474.805268 
L 605.115393 470.185244 
L 604.121361 465.568167 
L 603.09184 460.954168 
L 602.028559 456.343327 
L 600.933072 451.735687 
L 599.806773 447.131261 
L 598.650916 442.530037 
L 597.466629 437.93199 
L 596.254928 433.33708 
L 595.016725 428.745263 
L 593.752841 424.156491 
" style="fill:none;stroke:#000000;stroke-linecap:square;stroke-width:3;"/>
   </g>
   <g id="line2d_44">
    <path clip-path="url(#p95781ecd2a)" d="M 593.752841 582.06817 
L 593.752841 424.156491 
L 613.596077 424.156491 
L 613.596077 582.06817 
L 593.752841 582.06817 
" style="fill:none;stroke:#d3d3d3;stroke-linecap:square;stroke-width:0.5;"/>
   </g>
   <g id="line2d_45">
    <path clip-path="url(#p95781ecd2a)" d="M 593.752841 424.156491 
L 592.464009 419.570716 
L 591.150888 414.987894 
L 589.814063 410.40799 
L 588.454052 405.830975 
L 587.071313 401.256837 
L 585.666243 396.685574 
L 584.239184 392.117208 
L 582.790427 387.551777 
L 581.32021 382.989347 
L 579.828719 378.430009 
L 578.316094 373.873887 
L 576.782423 369.32114 
L 575.227744 364.771969 
L 573.652043 360.226617 
L 572.055251 355.685384 
L 570.437241 351.148626 
L 568.797823 346.616773 
L 567.136737 342.090331 
L 565.453644 337.569904 
L 563.748118 333.05621 
L 562.019628 328.5501 
L 560.267521 324.052596 
L 558.490998 319.564927 
L 556.689083 315.08859 
L 554.860578 310.62543 
L 553.004006 306.17776 
L 551.117534 301.748547 
L 549.198865 297.341702 
L 547.245086 292.96257 
L 545.252468 288.618812 
L 543.21621 284.322113 
L 541.130246 280.091903 
L 538.987809 275.964793 
L 536.787499 272.024907 
L 534.593923 268.554069 
L 536.047378 268.678827 
L 536.047378 268.678827 
" style="fill:none;stroke:#000000;stroke-linecap:square;stroke-width:3;"/>
   </g>
   <g id="line2d_46">
    <path clip-path="url(#p95781ecd2a)" d="M 534.593923 424.156491 
L 534.593923 268.554069 
L 593.752841 268.554069 
L 593.752841 424.156491 
L 534.593923 424.156491 
" style="fill:none;stroke:#d3d3d3;stroke-linecap:square;stroke-width:0.5;"/>
   </g>
   <g id="line2d_47">
    <path clip-path="url(#p95781ecd2a)" d="M 594.329084 582.06817 
L 594.329084 582.06817 
L 594.329084 582.06817 
" style="fill:none;stroke:#000000;stroke-linecap:square;stroke-width:3;"/>
   </g>
   <g id="line2d_48">
    <path clip-path="url(#p95781ecd2a)" d="M 594.329084 582.06817 
L 594.329084 582.06817 
L 594.329084 582.06817 
L 594.329084 582.06817 
L 594.329084 582.06817 
" style="fill:none;stroke:#d3d3d3;stroke-linecap:square;stroke-width:0.5;"/>
   </g>
   <g id="line2d_49">
    <path clip-path="url(#p95781ecd2a)" d="M 594.329084 582.06817 
L 594.329084 582.06817 
L 594.329084 582.06817 
" style="fill:none;stroke:#000000;stroke-linecap:square;stroke-width:3;"/>
   </g>
   <g id="line2d_50">
    <path clip-path="url(#p95781ecd2a)" d="M 594.329084 582.06817 
L 594.329084 582.06817 
L 594.329084 582.06817 
L 594.329084 582.06817 
L 594.329084 582.06817 
" style="fill:none;stroke:#d3d3d3;stroke-linecap:square;stroke-width:0.5;"/>
   </g>
   <g id="line2d_51">
    <path clip-path="url(#p95781ecd2a)" d="M 439.352835 492.568507 
L 439.352835 492.568507 
L 439.352835 492.568507 
" style="fill:none;stroke:#000000;stroke-linecap:square;stroke-width:3;"/>
   </g>
   <g id="line2d_52">
    <path clip-path="url(#p95781ecd2a)" d="M 439.352835 492.568507 
L 439.352835 492.568507 
L 439.352835 492.568507 
L 439.352835 492.568507 
L 439.352835 492.568507 
" style="fill:none;stroke:#d3d3d3;stroke-linecap:square;stroke-width:0.5;"/>
   </g>
   <g id="line2d_53">
    <path clip-path="url(#p95781ecd2a)" d="M 439.352835 492.568507 
L 439.352835 492.568507 
L 439.352835 492.568507 
" style="fill:none;stroke:#000000;stroke-linecap:square;stroke-width:3;"/>
   </g>
   <g id="line2d_54">
    <path clip-path="url(#p95781ecd2a)" d="M 439.352835 492.568507 
L 439.352835 492.568507 
L 439.352835 492.568507 
L 439.352835 492.568507 
L 439.352835 492.568507 
" style="fill:none;stroke:#d3d3d3;stroke-linecap:square;stroke-width:0.5;"/>
   </g>
   <g id="line2d_55">
    <path clip-path="url(#p95781ecd2a)" d="M 599.135362 600.51747 
L 605.295665 598.479233 
L 611.152832 595.385041 
L 616.357304 591.327228 
L 620.680356 586.580155 
L 624.099715 581.45076 
L 626.731152 576.160418 
L 628.72734 570.831369 
L 630.224368 565.520392 
L 631.328545 560.250103 
L 632.119368 555.027246 
L 632.655895 549.851728 
L 632.982414 544.720767 
L 633.132642 539.630729 
L 633.132697 534.577912 
L 633.003147 529.558857 
L 632.760447 524.570443 
L 632.417952 519.609901 
L 631.986636 514.674791 
L 631.475626 509.762959 
L 630.892586 504.872503 
L 630.244013 500.001735 
L 629.535459 495.149151 
L 628.771702 490.313403 
L 627.956881 485.493279 
L 627.094602 480.687681 
L 626.188022 475.895612 
L 625.239918 471.116162 
L 624.252743 466.348496 
L 623.228667 461.591849 
L 622.169622 456.845511 
L 621.077325 452.108827 
L 619.953311 447.381191 
L 618.798951 442.662038 
L 617.615471 437.950844 
L 616.403968 433.24712 
L 615.165424 428.550411 
L 613.900716 423.860295 
L 612.610627 419.176378 
" style="fill:none;stroke:#000000;stroke-linecap:square;stroke-width:3;"/>
   </g>
   <g id="line2d_56">
    <path clip-path="url(#p95781ecd2a)" d="M 599.135362 600.51747 
L 599.135362 419.176378 
L 633.132697 419.176378 
L 633.132697 600.51747 
L 599.135362 600.51747 
" style="fill:none;stroke:#d3d3d3;stroke-linecap:square;stroke-width:0.5;"/>
   </g>
   <g id="line2d_57">
    <path clip-path="url(#p95781ecd2a)" d="M 612.610627 419.176378 
L 611.295855 414.498298 
L 609.957016 409.825718 
L 608.594655 405.158327 
L 607.209249 400.495843 
L 605.80121 395.838009 
L 604.370889 391.184594 
L 602.91858 386.535393 
L 601.444521 381.890228 
L 599.948894 377.248946 
L 598.431828 372.611425 
L 596.893395 367.977568 
L 595.333613 363.34731 
L 593.752441 358.720615 
L 592.149775 354.09748 
L 590.525446 349.477935 
L 588.879214 344.862045 
L 587.210753 340.249911 
L 585.51965 335.641676 
L 583.805382 331.037521 
L 582.0673 326.43767 
L 580.304605 321.842395 
L 578.516312 317.25201 
L 576.701203 312.666876 
L 574.857767 308.087401 
L 572.984104 303.514028 
L 571.077796 298.947226 
L 569.13571 294.387461 
L 567.153686 289.835135 
L 565.126031 285.290473 
L 563.044631 280.753263 
L 560.897266 276.222276 
L 558.66406 271.693791 
L 556.308679 267.157281 
L 553.750479 262.579432 
L 550.723685 257.812297 
L 542.561597 250.733717 
L 542.561597 250.733717 
" style="fill:none;stroke:#000000;stroke-linecap:square;stroke-width:3;"/>
   </g>
   <g id="line2d_58">
    <path clip-path="url(#p95781ecd2a)" d="M 542.561597 419.176378 
L 542.561597 250.733717 
L 612.610627 250.733717 
L 612.610627 419.176378 
L 542.561597 419.176378 
" style="fill:none;stroke:#d3d3d3;stroke-linecap:square;stroke-width:0.5;"/>
   </g>
   <g id="line2d_59">
    <path clip-path="url(#p95781ecd2a)" d="M 387.417859 135.968978 
L 387.417859 135.968978 
L 386.489966 140.664419 
L 385.541196 145.350022 
L 384.569015 150.024189 
L 383.570499 154.685373 
L 382.542325 159.331982 
L 381.480763 163.962298 
L 380.381684 168.574433 
L 379.240599 173.166338 
L 378.05272 177.735889 
L 376.81307 182.281049 
L 375.516649 186.800124 
L 374.158654 191.29207 
L 372.734767 195.756782 
L 371.2415 200.195308 
L 369.676565 204.609873 
L 368.03923 209.003682 
L 366.330599 213.380533 
L 364.553724 217.744336 
L 362.713523 222.098681 
L 360.816469 226.446564 
L 358.870119 230.790312 
L 356.882573 235.131669 
L 354.861956 239.471975 
L 352.816004 243.812351 
L 350.751787 248.15386 
L 348.675569 252.497598 
L 346.59278 256.844734 
L 344.508058 261.196513 
" style="fill:none;stroke:#000000;stroke-linecap:square;stroke-width:3;"/>
   </g>
   <g id="line2d_60">
    <path clip-path="url(#p95781ecd2a)" d="M 344.508058 261.196513 
L 344.508058 135.968978 
L 387.417859 135.968978 
L 387.417859 261.196513 
L 344.508058 261.196513 
" style="fill:none;stroke:#d3d3d3;stroke-linecap:square;stroke-width:0.5;"/>
   </g>
   <g id="line2d_61">
    <path clip-path="url(#p95781ecd2a)" d="M 344.508058 261.196513 
L 342.425342 265.55423 
L 340.347979 269.919197 
L 338.278835 274.292724 
L 336.220396 278.676089 
L 334.174855 283.07054 
L 332.144191 287.477297 
L 330.130231 291.89756 
L 328.134704 296.332538 
L 326.159294 300.783467 
L 324.205684 305.251639 
L 322.275606 309.738429 
L 320.370895 314.24532 
L 318.49355 318.773923 
L 316.645803 323.326005 
L 314.830217 327.903503 
L 313.049792 332.508554 
L 311.308116 337.143525 
L 309.609552 341.811081 
L 307.959497 346.514279 
L 306.364733 351.256777 
L 304.833938 356.043201 
L 303.378461 360.879868 
L 302.013583 365.776199 
L 300.760769 370.747645 
L 299.652194 375.822166 
L 298.74144 381.05617 
L 298.13546 386.580789 
L 298.133843 392.776497 
L 298.133843 392.776497 
" style="fill:none;stroke:#000000;stroke-linecap:square;stroke-width:3;"/>
   </g>
   <g id="line2d_62">
    <path clip-path="url(#p95781ecd2a)" d="M 298.133843 392.776497 
L 298.133843 261.196513 
L 344.508058 261.196513 
L 344.508058 392.776497 
L 298.133843 392.776497 
" style="fill:none;stroke:#d3d3d3;stroke-linecap:square;stroke-width:0.5;"/>
   </g>
   <g id="line2d_63">
    <path clip-path="url(#p95781ecd2a)" d="M 298.133843 392.776497 
" style="fill:none;stroke:#000000;stroke-linecap:square;stroke-width:3;"/>
   </g>
   <g id="line2d_64">
    <path clip-path="url(#p95781ecd2a)" d="M 298.133843 392.776497 
L 298.133843 392.776497 
L 298.133843 392.776497 
L 298.133843 392.776497 
L 298.133843 392.776497 
" style="fill:none;stroke:#d3d3d3;stroke-linecap:square;stroke-width:0.5;"/>
   </g>
   <g id="line2d_65">
    <path clip-path="url(#p95781ecd2a)" d="M 298.133843 392.776497 
L 298.133843 392.776497 
L 298.615739 397.872753 
L 299.257137 403.014608 
L 300.107327 408.217333 
L 301.244462 413.504631 
L 302.803503 418.914676 
L 305.044419 424.505706 
L 308.523042 430.313135 
L 314.299696 435.917646 
L 322.586515 439.382948 
L 330.704186 439.601456 
L 337.339058 438.109621 
L 342.931486 435.999382 
L 347.924224 433.665726 
L 352.564041 431.270385 
L 356.986869 428.903845 
L 361.270984 426.633962 
L 365.461055 424.52356 
L 369.577799 422.638226 
L 373.620593 421.049277 
L 377.567766 419.831659 
L 381.381129 419.054828 
L 385.024087 418.768394 
L 388.493317 418.995236 
L 391.832625 419.744654 
L 395.096524 421.024884 
L 398.303642 422.82819 
L 401.436219 425.113822 
L 404.467202 427.815636 
L 407.377941 430.860914 
L 410.161292 434.18337 
L 412.818583 437.727915 
L 415.355984 441.450707 
L 417.781904 445.317464 
L 420.105438 449.301482 
L 422.335528 453.381903 
L 424.480565 457.542322 
L 426.548222 461.769731 
L 428.545418 466.053729 
L 430.47835 470.38592 
L 432.352545 474.75947 
L 434.17293 479.168771 
L 435.943895 483.609185 
L 437.669361 488.076845 
L 439.352835 492.568507 
" style="fill:none;stroke:#000000;stroke-linecap:square;stroke-width:3;"/>
   </g>
   <g id="line2d_66">
    <path clip-path="url(#p95781ecd2a)" d="M 298.133843 492.568507 
L 298.133843 392.776497 
L 439.352835 392.776497 
L 439.352835 492.568507 
L 298.133843 492.568507 
" style="fill:none;stroke:#d3d3d3;stroke-linecap:square;stroke-width:0.5;"/>
   </g>
   <g id="line2d_67">
    <path clip-path="url(#p95781ecd2a)" d="M 439.352835 492.568507 
L 441.07585 497.202542 
L 442.820107 501.831994 
L 444.58717 506.456487 
L 446.378781 511.075593 
L 448.196888 515.688829 
L 450.043683 520.295643 
L 451.921643 524.895404 
L 453.833581 529.487391 
L 455.782712 534.070779 
L 457.772731 538.644614 
L 459.80792 543.207798 
L 461.893276 547.759058 
L 464.034681 552.296908 
L 466.239123 556.819606 
L 468.514989 561.32509 
L 470.872459 565.810884 
L 473.32404 570.273967 
L 475.885297 574.710562 
L 478.575863 579.115781 
L 481.420832 583.483022 
L 484.452656 587.802869 
L 487.713589 592.061038 
L 491.258448 596.234522 
L 495.156452 600.284459 
L 499.488435 604.143993 
L 504.331089 607.701696 
L 509.717284 610.791393 
L 515.578217 613.217095 
L 521.71983 614.833402 
L 527.892269 615.629092 
L 533.90371 615.724364 
L 539.670127 615.29354 
L 545.18937 614.497557 
L 550.49726 613.459588 
L 555.638789 612.266969 
L 560.655467 610.980317 
L 565.581546 609.641869 
L 570.443916 608.281432 
L 575.263162 606.920328 
L 580.054807 605.57396 
L 584.830425 604.253505 
L 589.598549 602.967046 
L 594.365382 601.720359 
L 599.135362 600.51747 
" style="fill:none;stroke:#000000;stroke-linecap:square;stroke-width:3;"/>
   </g>
   <g id="line2d_68">
    <path clip-path="url(#p95781ecd2a)" d="M 439.352835 615.724364 
L 439.352835 492.568507 
L 599.135362 492.568507 
L 599.135362 615.724364 
L 439.352835 615.724364 
" style="fill:none;stroke:#d3d3d3;stroke-linecap:square;stroke-width:0.5;"/>
   </g>
   <g id="line2d_69">
    <path clip-path="url(#p95781ecd2a)" d="M 542.561597 250.733717 
L 542.561597 250.733717 
L 541.694819 249.971682 
L 539.067059 247.340804 
L 536.290005 244.060988 
L 533.529766 240.480244 
L 530.809085 236.730204 
L 528.126209 232.87331 
L 525.47478 228.943821 
L 522.848148 224.962533 
L 520.24033 220.943046 
L 517.646123 216.894791 
L 515.061006 212.82462 
L 512.481004 208.737718 
L 509.902562 204.638146 
L 507.322438 200.529188 
L 504.737606 196.413575 
L 502.145188 192.293647 
L 499.54238 188.171462 
L 496.926398 184.048881 
L 494.294417 179.927632 
L 491.64352 175.809366 
L 488.970633 171.695706 
L 486.272468 167.588285 
L 483.545446 163.488798 
L 480.785608 159.399043 
L 477.988513 155.320981 
L 475.149098 151.256796 
L 472.261502 147.20898 
L 469.318829 143.180431 
L 466.312824 139.174594 
L 463.233411 135.195647 
L 460.068023 131.248765 
L 456.800581 127.340501 
L 453.409902 123.479383 
L 449.86705 119.67686 
L 446.130746 115.948984 
L 442.13887 112.319705 
L 437.791758 108.828373 
L 432.917835 105.550176 
L 427.207152 102.662694 
L 420.163442 100.675636 
L 411.675353 100.879705 
L 403.677774 104.291079 
L 398.07201 109.459156 
L 394.398205 114.931306 
L 391.850811 120.330325 
L 389.97704 125.622532 
L 388.542716 130.828314 
L 387.417859 135.968978 
L 387.417859 135.968978 
" style="fill:none;stroke:#000000;stroke-linecap:square;stroke-width:3;"/>
   </g>
   <g id="line2d_70">
    <path clip-path="url(#p95781ecd2a)" d="M 387.417859 250.733717 
L 387.417859 100.675636 
L 542.561597 100.675636 
L 542.561597 250.733717 
L 387.417859 250.733717 
" style="fill:none;stroke:#d3d3d3;stroke-linecap:square;stroke-width:0.5;"/>
   </g>
   <g id="line2d_71">
    <path clip-path="url(#p95781ecd2a)" d="M 599.135362 600.51747 
L 599.135362 600.51747 
L 599.135362 600.51747 
" style="fill:none;stroke:#000000;stroke-linecap:square;stroke-width:3;"/>
   </g>
   <g id="line2d_72">
    <path clip-path="url(#p95781ecd2a)" d="M 599.135362 600.51747 
L 599.135362 600.51747 
L 599.135362 600.51747 
L 599.135362 600.51747 
L 599.135362 600.51747 
" style="fill:none;stroke:#d3d3d3;stroke-linecap:square;stroke-width:0.5;"/>
   </g>
   <g id="line2d_73">
    <path clip-path="url(#p95781ecd2a)" d="M 599.135362 600.51747 
L 599.135362 600.51747 
L 599.135362 600.51747 
" style="fill:none;stroke:#000000;stroke-linecap:square;stroke-width:3;"/>
   </g>
   <g id="line2d_74">
    <path clip-path="url(#p95781ecd2a)" d="M 599.135362 600.51747 
L 599.135362 600.51747 
L 599.135362 600.51747 
L 599.135362 600.51747 
L 599.135362 600.51747 
" style="fill:none;stroke:#d3d3d3;stroke-linecap:square;stroke-width:0.5;"/>
   </g>
   <g id="line2d_75">
    <path clip-path="url(#p95781ecd2a)" d="M 397.014778 123.472785 
L 398.888665 123.589988 
L 400.731782 123.939672 
L 402.513866 124.516095 
L 404.205655 125.309793 
L 405.77937 126.307732 
L 407.209171 127.493528 
L 408.47158 128.847708 
L 409.545869 130.348038 
L 410.414397 131.969882 
L 411.062904 133.686609 
L 411.480742 135.470032 
L 411.661049 137.290865 
L 411.600864 139.119212 
L 411.301176 140.92505 
L 410.766906 142.678728 
L 410.006826 144.35145 
L 409.033418 145.915751 
L 407.862663 147.345945 
L 406.513787 148.618548 
L 405.008937 149.712663 
L 403.372824 150.610326 
L 401.632311 151.296797 
L 399.815979 151.760804 
L 397.953651 151.994727 
L 396.075906 151.994727 
L 394.213578 151.760804 
L 392.397246 151.296797 
L 390.656733 150.610326 
L 389.02062 149.712663 
L 387.51577 148.618548 
L 386.166893 147.345945 
L 384.996139 145.915751 
L 384.02273 144.35145 
L 383.262651 142.678728 
L 382.728381 140.92505 
L 382.428693 139.119212 
L 382.368508 137.290865 
L 382.548815 135.470032 
L 382.966652 133.686609 
L 383.61516 131.969882 
L 384.483688 130.348038 
L 385.557977 128.847708 
L 386.820386 127.493528 
L 388.250187 126.307732 
L 389.823902 125.309793 
L 391.515691 124.516095 
L 393.297775 123.939672 
L 395.140892 123.589988 
L 397.014778 123.472785 
" style="fill:none;stroke:#808080;stroke-linecap:square;stroke-width:1.5;"/>
   </g>
   <g id="line2d_76">
    <path clip-path="url(#p95781ecd2a)" d="M 307.872342 377.746945 
L 309.746228 377.864148 
L 311.589345 378.213832 
L 313.371429 378.790255 
L 315.063218 379.583952 
L 316.636934 380.581892 
L 318.066734 381.767687 
L 319.329143 383.121868 
L 320.403432 384.622198 
L 321.271961 386.244042 
L 321.920468 387.960769 
L 322.338305 389.744191 
L 322.518612 391.565025 
L 322.458428 393.393371 
L 322.15874 395.199209 
L 321.62447 396.952887 
L 320.86439 398.62561 
L 319.890981 400.189911 
L 318.720227 401.620105 
L 317.371351 402.892707 
L 315.866501 403.986823 
L 314.230387 404.884486 
L 312.489875 405.570956 
L 310.673542 406.034963 
L 308.811214 406.268887 
L 306.93347 406.268887 
L 305.071142 406.034963 
L 303.25481 405.570956 
L 301.514297 404.884486 
L 299.878183 403.986823 
L 298.373333 402.892707 
L 297.024457 401.620105 
L 295.853703 400.189911 
L 294.880294 398.62561 
L 294.120214 396.952887 
L 293.585944 395.199209 
L 293.286257 393.393371 
L 293.226072 391.565025 
L 293.406379 389.744191 
L 293.824216 387.960769 
L 294.472723 386.244042 
L 295.341252 384.622198 
L 296.415541 383.121868 
L 297.67795 381.767687 
L 299.107751 380.581892 
L 300.681466 379.583952 
L 302.373255 378.790255 
L 304.155339 378.213832 
L 305.998456 377.864148 
L 307.872342 377.746945 
" style="fill:none;stroke:#808080;stroke-linecap:square;stroke-width:1.5;"/>
   </g>
   <g id="line2d_77">
    <path clip-path="url(#p95781ecd2a)" d="M 448.544782 475.069871 
L 450.418668 475.187074 
L 452.261785 475.536758 
L 454.043869 476.113181 
L 455.735659 476.906878 
L 457.309374 477.904818 
L 458.739174 479.090613 
L 460.001584 480.444794 
L 461.075872 481.945124 
L 461.944401 483.566968 
L 462.592908 485.283695 
L 463.010746 487.067117 
L 463.191052 488.887951 
L 463.130868 490.716297 
L 462.83118 492.522136 
L 462.29691 494.275814 
L 461.53683 495.948536 
L 460.563422 497.512837 
L 459.392667 498.943031 
L 458.043791 500.215633 
L 456.538941 501.309749 
L 454.902827 502.207412 
L 453.162315 502.893882 
L 451.345982 503.357889 
L 449.483654 503.591813 
L 447.60591 503.591813 
L 445.743582 503.357889 
L 443.92725 502.893882 
L 442.186737 502.207412 
L 440.550623 501.309749 
L 439.045774 500.215633 
L 437.696897 498.943031 
L 436.526143 497.512837 
L 435.552734 495.948536 
L 434.792655 494.275814 
L 434.258385 492.522136 
L 433.958697 490.716297 
L 433.898512 488.887951 
L 434.078819 487.067117 
L 434.496656 485.283695 
L 435.145163 483.566968 
L 436.013692 481.945124 
L 437.087981 480.444794 
L 438.35039 479.090613 
L 439.780191 477.904818 
L 441.353906 476.906878 
L 443.045695 476.113181 
L 444.827779 475.536758 
L 446.670896 475.187074 
L 448.544782 475.069871 
" style="fill:none;stroke:#808080;stroke-linecap:square;stroke-width:1.5;"/>
   </g>
   <g id="line2d_78">
    <path clip-path="url(#p95781ecd2a)" d="M 596.732223 577.017184 
L 598.606109 577.134387 
L 600.449227 577.484071 
L 602.23131 578.060494 
L 603.9231 578.854191 
L 605.496815 579.852131 
L 606.926615 581.037926 
L 608.189025 582.392107 
L 609.263313 583.892436 
L 610.131842 585.51428 
L 610.780349 587.231008 
L 611.198187 589.01443 
L 611.378493 590.835264 
L 611.318309 592.66361 
L 611.018621 594.469448 
L 610.484351 596.223126 
L 609.724271 597.895849 
L 608.750863 599.46015 
L 607.580108 600.890343 
L 606.231232 602.162946 
L 604.726382 603.257061 
L 603.090268 604.154724 
L 601.349756 604.841195 
L 599.533423 605.305202 
L 597.671095 605.539126 
L 595.793351 605.539126 
L 593.931023 605.305202 
L 592.114691 604.841195 
L 590.374178 604.154724 
L 588.738064 603.257061 
L 587.233215 602.162946 
L 585.884338 600.890343 
L 584.713584 599.46015 
L 583.740175 597.895849 
L 582.980096 596.223126 
L 582.445826 594.469448 
L 582.146138 592.66361 
L 582.085953 590.835264 
L 582.26626 589.01443 
L 582.684097 587.231008 
L 583.332604 585.51428 
L 584.201133 583.892436 
L 585.275422 582.392107 
L 586.537831 581.037926 
L 587.967632 579.852131 
L 589.541347 578.854191 
L 591.233136 578.060494 
L 593.01522 577.484071 
L 594.858337 577.134387 
L 596.732223 577.017184 
" style="fill:none;stroke:#808080;stroke-linecap:square;stroke-width:1.5;"/>
   </g>
   <g id="line2d_79">
    <path clip-path="url(#p95781ecd2a)" d="M 604.458721 412.027143 
L 606.332607 412.144345 
L 608.175724 412.494029 
L 609.957808 413.070452 
L 611.649597 413.86415 
L 613.223312 414.862089 
L 614.653113 416.047885 
L 615.915522 417.402065 
L 616.989811 418.902395 
L 617.858339 420.524239 
L 618.506847 422.240967 
L 618.924684 424.024389 
L 619.104991 425.845222 
L 619.044806 427.673569 
L 618.745118 429.479407 
L 618.210848 431.233085 
L 617.450769 432.905807 
L 616.47736 434.470108 
L 615.306606 435.900302 
L 613.957729 437.172905 
L 612.452879 438.26702 
L 610.816766 439.164683 
L 609.076253 439.851154 
L 607.259921 440.315161 
L 605.397593 440.549085 
L 603.519848 440.549085 
L 601.65752 440.315161 
L 599.841188 439.851154 
L 598.100675 439.164683 
L 596.464562 438.26702 
L 594.959712 437.172905 
L 593.610836 435.900302 
L 592.440081 434.470108 
L 591.466673 432.905807 
L 590.706593 431.233085 
L 590.172323 429.479407 
L 589.872635 427.673569 
L 589.81245 425.845222 
L 589.992757 424.024389 
L 590.410595 422.240967 
L 591.059102 420.524239 
L 591.92763 418.902395 
L 593.001919 417.402065 
L 594.264328 416.047885 
L 595.694129 414.862089 
L 597.267844 413.86415 
L 598.959633 413.070452 
L 600.741717 412.494029 
L 602.584834 412.144345 
L 604.458721 412.027143 
" style="fill:none;stroke:#808080;stroke-linecap:square;stroke-width:1.5;"/>
   </g>
   <g id="line2d_80">
    <path clip-path="url(#p95781ecd2a)" d="M 539.304487 245.430636 
L 541.178374 245.547838 
L 543.021491 245.897522 
L 544.803575 246.473945 
L 546.495364 247.267643 
L 548.069079 248.265583 
L 549.49888 249.451378 
L 550.761289 250.805558 
L 551.835578 252.305888 
L 552.704106 253.927732 
L 553.352614 255.64446 
L 553.770451 257.427882 
L 553.950758 259.248715 
L 553.890573 261.077062 
L 553.590885 262.8829 
L 553.056615 264.636578 
L 552.296536 266.309301 
L 551.323127 267.873602 
L 550.152372 269.303795 
L 548.803496 270.576398 
L 547.298646 271.670513 
L 545.662533 272.568176 
L 543.92202 273.254647 
L 542.105688 273.718654 
L 540.24336 273.952578 
L 538.365615 273.952578 
L 536.503287 273.718654 
L 534.686955 273.254647 
L 532.946442 272.568176 
L 531.310329 271.670513 
L 529.805479 270.576398 
L 528.456602 269.303795 
L 527.285848 267.873602 
L 526.312439 266.309301 
L 525.55236 264.636578 
L 525.01809 262.8829 
L 524.718402 261.077062 
L 524.658217 259.248715 
L 524.838524 257.427882 
L 525.256361 255.64446 
L 525.904869 253.927732 
L 526.773397 252.305888 
L 527.847686 250.805558 
L 529.110095 249.451378 
L 530.539896 248.265583 
L 532.113611 247.267643 
L 533.8054 246.473945 
L 535.587484 245.897522 
L 537.430601 245.547838 
L 539.304487 245.430636 
" style="fill:none;stroke:#808080;stroke-linecap:square;stroke-width:1.5;"/>
   </g>
   <g id="line2d_81">
    <path clip-path="url(#p95781ecd2a)" d="M 539.304487 245.430636 
L 541.178374 245.547838 
L 543.021491 245.897522 
L 544.803575 246.473945 
L 546.495364 247.267643 
L 548.069079 248.265583 
L 549.49888 249.451378 
L 550.761289 250.805558 
L 551.835578 252.305888 
L 552.704106 253.927732 
L 553.352614 255.64446 
L 553.770451 257.427882 
L 553.950758 259.248715 
L 553.890573 261.077062 
L 553.590885 262.8829 
L 553.056615 264.636578 
L 552.296536 266.309301 
L 551.323127 267.873602 
L 550.152372 269.303795 
L 548.803496 270.576398 
L 547.298646 271.670513 
L 545.662533 272.568176 
L 543.92202 273.254647 
L 542.105688 273.718654 
L 540.24336 273.952578 
L 538.365615 273.952578 
L 536.503287 273.718654 
L 534.686955 273.254647 
L 532.946442 272.568176 
L 531.310329 271.670513 
L 529.805479 270.576398 
L 528.456602 269.303795 
L 527.285848 267.873602 
L 526.312439 266.309301 
L 525.55236 264.636578 
L 525.01809 262.8829 
L 524.718402 261.077062 
L 524.658217 259.248715 
L 524.838524 257.427882 
L 525.256361 255.64446 
L 525.904869 253.927732 
L 526.773397 252.305888 
L 527.847686 250.805558 
L 529.110095 249.451378 
L 530.539896 248.265583 
L 532.113611 247.267643 
L 533.8054 246.473945 
L 535.587484 245.897522 
L 537.430601 245.547838 
L 539.304487 245.430636 
" style="fill:none;stroke:#808080;stroke-linecap:square;stroke-width:1.5;"/>
   </g>
   <g id="line2d_82"/>
   <g id="line2d_83"/>
   <g id="line2d_84"/>
   <g id="line2d_85"/>
   <g id="line2d_86"/>
   <g id="line2d_87"/>
   <g id="line2d_88"/>
   <g id="line2d_89"/>
   <g id="line2d_90"/>
   <g id="line2d_91"/>
   <g id="line2d_92"/>
   <g id="line2d_93"/>
   <g id="line2d_94"/>
   <g id="line2d_95"/>
   <g id="line2d_96"/>
   <g id="line2d_97"/>
   <g id="line2d_98"/>
   <g id="line2d_99"/>
   <g id="line2d_100"/>
   <g id="line2d_101"/>
   <g id="line2d_102"/>
   <g id="line2d_103"/>
   <g id="line2d_104"/>
   <g id="line2d_105"/>
   <g id="line2d_106"/>
   <g id="line2d_107"/>
   <g id="line2d_108"/>
   <g id="line2d_109"/>
   <g id="line2d_110"/>
   <g id="line2d_111"/>
   <g id="line2d_112"/>
   <g id="line2d_113"/>
   <g id="line2d_114"/>
   <g id="line2d_115"/>
   <g id="line2d_116"/>
   <g id="line2d_117"/>
   <g id="line2d_118"/>
   <g id="line2d_119"/>
   <g id="line2d_120"/>
   <g id="line2d_121"/>
   <g id="line2d_122"/>
   <g id="line2d_123"/>
   <g id="line2d_124"/>
   <g id="line2d_125"/>
   <g id="line2d_126"/>
   <g id="line2d_127"/>
   <g id="line2d_128"/>
   <g id="line2d_129"/>
   <g id="line2d_130"/>
   <g id="line2d_131"/>
   <g id="line2d_132"/>
   <g id="patch_3">
    <path d="M 90 630 
L 90 86.4 
" style="fill:none;stroke:#000000;stroke-linecap:square;stroke-linejoin:miter;stroke-width:0.8;"/>
   </g>
   <g id="patch_4">
    <path d="M 648 630 
L 648 86.4 
" style="fill:none;stroke:#000000;stroke-linecap:square;stroke-linejoin:miter;stroke-width:0.8;"/>
   </g>
   <g id="patch_5">
    <path d="M 90 630 
L 648 630 
" style="fill:none;stroke:#000000;stroke-linecap:square;stroke-linejoin:miter;stroke-width:0.8;"/>
   </g>
   <g id="patch_6">
    <path d="M 90 86.4 
L 648 86.4 
" style="fill:none;stroke:#000000;stroke-linecap:square;stroke-linejoin:miter;stroke-width:0.8;"/>
   </g>
   <g id="text_13">
    <!-- 0 -->
    <g transform="translate(109.395383 420.763323)scale(0.1 -0.1)">
     <use xlink:href="#DejaVuSans-30"/>
    </g>
   </g>
   <g id="text_14">
    <!-- 0 -->
    <g transform="translate(109.395383 406.487687)scale(0.1 -0.1)">
     <use xlink:href="#DejaVuSans-30"/>
    </g>
   </g>
   <g id="text_15">
    <!-- 0 -->
    <g transform="translate(109.395383 392.212051)scale(0.1 -0.1)">
     <use xlink:href="#DejaVuSans-30"/>
    </g>
   </g>
  </g>
 </g>
 <defs>
  <clipPath id="p95781ecd2a">
   <rect height="543.6" width="558" x="90" y="86.4"/>
  </clipPath>
 </defs>
</svg>
