<?xml version="1.0" encoding="utf-8" standalone="no"?>
<!DOCTYPE svg PUBLIC "-//W3C//DTD SVG 1.1//EN"
  "http://www.w3.org/Graphics/SVG/1.1/DTD/svg11.dtd">
<svg height="720pt" version="1.1" viewBox="0 0 720 720" width="720pt" xmlns="http://www.w3.org/2000/svg" xmlns:xlink="http://www.w3.org/1999/xlink">
 <metadata>
  <rdf:RDF xmlns:cc="http://creativecommons.org/ns#" xmlns:dc="http://purl.org/dc/elements/1.1/" xmlns:rdf="http://www.w3.org/1999/02/22-rdf-syntax-ns#">
   <cc:Work>
    <dc:type rdf:resource="http://purl.org/dc/dcmitype/StillImage"/>
    <dc:date>2022-01-11T13:26:11.417939</dc:date>
    <dc:format>image/svg+xml</dc:format>
    <dc:creator>
     <cc:Agent>
      <dc:title>Matplotlib v3.4.3, https://matplotlib.org/</dc:title>
     </cc:Agent>
    </dc:creator>
   </cc:Work>
  </rdf:RDF>
 </metadata>
 <defs>
  <style type="text/css">*{stroke-linecap:butt;stroke-linejoin:round;}</style>
 </defs>
 <g id="figure_1">
  <g id="patch_1">
   <path d="M 0 720 
L 720 720 
L 720 0 
L 0 0 
z
" style="fill:none;"/>
  </g>
  <g id="axes_1">
   <g id="patch_2">
    <path d="M 90 630 
L 648 630 
L 648 86.4 
L 90 86.4 
z
" style="fill:#ffffff;"/>
   </g>
   <g id="PathCollection_1">
    <defs>
     <path d="M 0.972304 -8.870829 
Q -1.277159 -8.870829 -2.413438 -6.653699 
Q -3.545098 -4.441189 -3.545098 0.006929 
Q -3.545098 4.436569 -2.413438 6.653699 
Q -1.277159 8.870829 0.972304 8.870829 
Q 3.240243 8.870829 4.371903 6.653699 
Q 5.508182 4.436569 5.508182 0.006929 
Q 5.508182 -4.441189 4.371903 -6.653699 
Q 3.240243 -8.870829 0.972304 -8.870829 
z
M 0.972304 -11.18034 
Q 4.598235 -11.18034 6.51051 -8.311928 
Q 8.422784 -5.448135 8.422784 0.006929 
Q 8.422784 5.448135 6.51051 8.316547 
Q 4.598235 11.18034 0.972304 11.18034 
Q -2.649008 11.18034 -4.561283 8.316547 
Q -6.473558 5.448135 -6.473558 0.006929 
Q -6.473558 -5.448135 -4.561283 -8.311928 
Q -2.649008 -11.18034 0.972304 -11.18034 
z
" id="m41efc4f62e" style="stroke:#808080;"/>
    </defs>
    <g clip-path="url(#p2ac92c0020)">
     <use style="fill:#808080;stroke:#808080;" x="330.459335" xlink:href="#m41efc4f62e" y="204.023698"/>
    </g>
   </g>
   <g id="PathCollection_2">
    <defs>
     <path d="M -4.535873 8.63565 
L 0.404946 8.63565 
L 0.404946 -8.424791 
L -4.971969 -7.346533 
L -4.971969 -10.102082 
L 0.376192 -11.18034 
L 3.400108 -11.18034 
L 3.400108 8.63565 
L 8.340927 8.63565 
L 8.340927 11.18034 
L -4.535873 11.18034 
L -4.535873 8.63565 
z
" id="m71e3d8857e" style="stroke:#808080;"/>
    </defs>
    <g clip-path="url(#p2ac92c0020)">
     <use style="fill:#808080;stroke:#808080;" x="191.482619" xlink:href="#m71e3d8857e" y="265.457834"/>
    </g>
   </g>
   <g id="PathCollection_3">
    <defs>
     <path d="M -2.294912 8.680651 
L 8.075736 8.680651 
L 8.075736 11.18034 
L -5.867913 11.18034 
L -5.867913 8.680651 
Q -4.177916 6.929457 -1.259259 3.982555 
Q 1.664105 1.030945 2.4126 0.174178 
Q 3.838976 -1.426376 4.403877 -2.537349 
Q 4.973486 -3.648321 4.973486 -4.721634 
Q 4.973486 -6.472828 3.744825 -7.574386 
Q 2.516165 -8.680651 0.543718 -8.680651 
Q -0.854413 -8.680651 -2.407892 -8.195778 
Q -3.956663 -7.710904 -5.72198 -6.722326 
L -5.72198 -9.725719 
Q -3.928418 -10.445968 -2.370232 -10.813154 
Q -0.807338 -11.18034 0.487227 -11.18034 
Q 3.900173 -11.18034 5.929111 -9.471513 
Q 7.958048 -7.767394 7.958048 -4.914642 
Q 7.958048 -3.558879 7.449637 -2.344341 
Q 6.945933 -1.13451 5.604292 0.513119 
Q 5.237107 0.941502 3.264659 2.979855 
Q 1.296919 5.018207 -2.294912 8.680651 
z
" id="m53c5b68ec7" style="stroke:#808080;"/>
    </defs>
    <g clip-path="url(#p2ac92c0020)">
     <use style="fill:#808080;stroke:#808080;" x="311.848422" xlink:href="#m53c5b68ec7" y="412.189267"/>
    </g>
   </g>
   <g id="PathCollection_4">
    <defs>
     <path d="M 3.77605 -0.861447 
Q 5.868466 -0.413402 7.041697 1.004637 
Q 8.219548 2.418057 8.219548 4.496617 
Q 8.219548 7.683741 6.025513 9.43435 
Q 3.831478 11.18034 -0.210165 11.18034 
Q -1.563539 11.18034 -3.000054 10.912437 
Q -4.436569 10.644533 -5.965465 10.108727 
L -5.965465 7.295743 
Q -4.755282 8.002454 -3.314147 8.362737 
Q -1.868394 8.723021 -0.293308 8.723021 
Q 2.445772 8.723021 3.882287 7.64217 
Q 5.318802 6.561319 5.318802 4.496617 
Q 5.318802 2.588961 3.983905 1.517348 
Q 2.649008 0.441116 0.270213 0.441116 
L -2.242535 0.441116 
L -2.242535 -1.956155 
L 0.385688 -1.956155 
Q 2.533533 -1.956155 3.674431 -2.815293 
Q 4.815329 -3.674431 4.815329 -5.291088 
Q 4.815329 -6.949317 3.637479 -7.836169 
Q 2.464248 -8.72764 0.270213 -8.72764 
Q -0.930733 -8.72764 -2.302582 -8.464356 
Q -3.674431 -8.20569 -5.318802 -7.660646 
L -5.318802 -10.256536 
Q -3.655955 -10.718438 -2.205582 -10.949389 
Q -0.75521 -11.18034 0.528878 -11.18034 
Q 3.849954 -11.18034 5.780705 -9.66992 
Q 7.716074 -8.164119 7.716074 -5.595944 
Q 7.716074 -3.803764 6.690652 -2.570485 
Q 5.665229 -1.337207 3.77605 -0.861447 
z
" id="m9e7f79d131" style="stroke:#808080;"/>
    </defs>
    <g clip-path="url(#p2ac92c0020)">
     <use style="fill:#808080;stroke:#808080;" x="355.935016" xlink:href="#m9e7f79d131" y="523.471782"/>
    </g>
   </g>
   <g id="PathCollection_5">
    <defs>
     <path d="M 2.695646 -8.544598 
L -4.943215 3.392919 
L 2.695646 3.392919 
L 2.695646 -8.544598 
z
M 1.900131 -11.18034 
L 5.705184 -11.18034 
L 5.705184 3.392919 
L 8.896829 3.392919 
L 8.896829 5.908855 
L 5.705184 5.908855 
L 5.705184 11.18034 
L 2.695646 11.18034 
L 2.695646 5.908855 
L -7.396852 5.908855 
L -7.396852 2.99037 
L 1.900131 -11.18034 
z
" id="m569d2099f1" style="stroke:#808080;"/>
    </defs>
    <g clip-path="url(#p2ac92c0020)">
     <use style="fill:#808080;stroke:#808080;" x="469.613882" xlink:href="#m569d2099f1" y="594.19781"/>
    </g>
   </g>
   <g id="PathCollection_6">
    <defs>
     <path d="M -5.008473 -11.18034 
L 6.639575 -11.18034 
L 6.639575 -8.679629 
L -2.291535 -8.679629 
L -2.291535 -3.306861 
Q -1.647555 -3.527789 -1.003575 -3.635902 
Q -0.354894 -3.744015 0.293787 -3.744015 
Q 3.964943 -3.744015 6.108409 -1.732165 
Q 8.256576 0.279685 8.256576 3.715812 
Q 8.256576 7.255352 6.052002 9.220196 
Q 3.847428 11.18034 -0.16217 11.18034 
Q -1.544142 11.18034 -2.97782 10.945311 
Q -4.406798 10.710281 -5.934488 10.240223 
L -5.934488 7.255352 
Q -4.613624 7.974541 -3.203448 8.327085 
Q -1.793273 8.679629 -0.223278 8.679629 
Q 2.319738 8.679629 3.800422 7.344663 
Q 5.285807 6.009697 5.285807 3.715812 
Q 5.285807 1.426627 3.800422 0.091661 
Q 2.319738 -1.248005 -0.223278 -1.248005 
Q -1.412526 -1.248005 -2.597073 -0.984772 
Q -3.77692 -0.72154 -5.008473 -0.16217 
L -5.008473 -11.18034 
z
" id="ma1bee77bca" style="stroke:#808080;"/>
    </defs>
    <g clip-path="url(#p2ac92c0020)">
     <use style="fill:#808080;stroke:#808080;" x="469.613882" xlink:href="#ma1bee77bca" y="594.19781"/>
    </g>
   </g>
   <g id="PathCollection_7">
    <defs>
     <path d="M 1.286397 -1.175541 
Q -0.676687 -1.175541 -1.826823 0.168594 
Q -2.97234 1.50811 -2.97234 3.845335 
Q -2.97234 6.168702 -1.826823 7.522075 
Q -0.676687 8.870829 1.286397 8.870829 
Q 3.249481 8.870829 4.394998 7.522075 
Q 5.540515 6.168702 5.540515 3.845335 
Q 5.540515 1.50811 4.394998 0.168594 
Q 3.249481 -1.175541 1.286397 -1.175541 
z
M 7.07403 -10.316583 
L 7.07403 -7.660646 
Q 5.974703 -8.177976 4.8569 -8.450499 
Q 3.739097 -8.72764 2.63977 -8.72764 
Q -0.247118 -8.72764 -1.771394 -6.778413 
Q -3.291052 -4.829186 -3.508146 -0.889162 
Q -2.658246 -2.145535 -1.374159 -2.815293 
Q -0.085452 -3.485051 1.457301 -3.485051 
Q 4.704473 -3.485051 6.589033 -1.512729 
Q 8.473594 0.454974 8.473594 3.845335 
Q 8.473594 7.166411 6.51051 9.175685 
Q 4.547426 11.18034 1.286397 11.18034 
Q -2.45501 11.18034 -4.43195 8.316547 
Q -6.408891 5.448135 -6.408891 0.006929 
Q -6.408891 -5.101708 -3.983905 -8.141024 
Q -1.55892 -11.18034 2.524295 -11.18034 
Q 3.623622 -11.18034 4.741425 -10.963246 
Q 5.859228 -10.746152 7.07403 -10.316583 
z
" id="m4c06e74abb" style="stroke:#808080;"/>
    </defs>
    <g clip-path="url(#p2ac92c0020)">
     <use style="fill:#808080;stroke:#808080;" x="603.923984" xlink:href="#m4c06e74abb" y="607.465018"/>
    </g>
   </g>
   <g id="PathCollection_8">
    <defs>
     <path d="M -5.93042 -11.18034 
L 8.446356 -11.18034 
L 8.446356 -9.891222 
L 0.32827 11.18034 
L -2.829829 11.18034 
L 4.809032 -8.630858 
L -5.93042 -8.630858 
L -5.93042 -11.18034 
z
" id="mb2f33f141a" style="stroke:#808080;"/>
    </defs>
    <g clip-path="url(#p2ac92c0020)">
     <use style="fill:#808080;stroke:#808080;" x="596.872956" xlink:href="#mb2f33f141a" y="490.706081"/>
    </g>
   </g>
   <g id="PathCollection_9">
    <defs>
     <path d="M 1.002328 0.524259 
Q -1.076232 0.524259 -2.267939 1.637443 
Q -3.455028 2.750627 -3.455028 4.695235 
Q -3.455028 6.644461 -2.267939 7.757645 
Q -1.076232 8.870829 1.002328 8.870829 
Q 3.080887 8.870829 4.277213 7.753026 
Q 5.478159 6.630604 5.478159 4.695235 
Q 5.478159 2.750627 4.286451 1.637443 
Q 3.099363 0.524259 1.002328 0.524259 
z
M -1.912275 -0.713639 
Q -3.787597 -1.175541 -4.836115 -2.459629 
Q -5.880014 -3.748335 -5.880014 -5.595944 
Q -5.880014 -8.177976 -4.041643 -9.679158 
Q -2.198654 -11.18034 1.002328 -11.18034 
Q 4.221785 -11.18034 6.055536 -9.679158 
Q 7.889288 -8.177976 7.889288 -5.595944 
Q 7.889288 -3.748335 6.84077 -2.459629 
Q 5.796871 -1.175541 3.935406 -0.713639 
Q 6.041679 -0.224023 7.214911 1.207874 
Q 8.392761 2.635151 8.392761 4.695235 
Q 8.392761 7.83155 6.480486 9.508254 
Q 4.568212 11.18034 1.002328 11.18034 
Q -2.558938 11.18034 -4.475831 9.508254 
Q -6.388106 7.83155 -6.388106 4.695235 
Q -6.388106 2.635151 -5.205636 1.207874 
Q -4.018548 -0.224023 -1.912275 -0.713639 
z
M -2.979268 -5.318802 
Q -2.979268 -3.646717 -1.93537 -2.709056 
Q -0.886852 -1.771394 1.002328 -1.771394 
Q 2.882269 -1.771394 3.940025 -2.709056 
Q 5.0024 -3.646717 5.0024 -5.318802 
Q 5.0024 -6.995507 3.940025 -7.933168 
Q 2.882269 -8.870829 1.002328 -8.870829 
Q -0.886852 -8.870829 -1.93537 -7.933168 
Q -2.979268 -6.995507 -2.979268 -5.318802 
z
" id="m18a146dea9" style="stroke:#808080;"/>
    </defs>
    <g clip-path="url(#p2ac92c0020)">
     <use style="fill:#808080;stroke:#808080;" x="525.388439" xlink:href="#m18a146dea9" y="376.819622"/>
    </g>
   </g>
   <g id="PathCollection_10">
    <defs>
     <path d="M -5.117875 10.311964 
L -5.117875 7.656027 
Q -4.018548 8.177976 -2.896126 8.450499 
Q -1.769085 8.723021 -0.683615 8.723021 
Q 2.203273 8.723021 3.722931 6.783032 
Q 5.247208 4.843043 5.464302 0.884542 
Q 4.628259 2.127059 3.339552 2.792198 
Q 2.055464 3.457337 0.498854 3.457337 
Q -2.73446 3.457337 -4.619021 1.503491 
Q -6.503581 -0.454974 -6.503581 -3.849954 
Q -6.503581 -7.166411 -4.540497 -9.171066 
Q -2.577414 -11.18034 0.683615 -11.18034 
Q 4.425022 -11.18034 6.392725 -8.311928 
Q 8.365047 -5.448135 8.365047 0.006929 
Q 8.365047 5.101708 5.94468 8.141024 
Q 3.528932 11.18034 -0.554282 11.18034 
Q -1.653609 11.18034 -2.780651 10.963246 
Q -3.903073 10.746152 -5.117875 10.311964 
z
M 0.683615 1.175541 
Q 2.646699 1.175541 3.792216 -0.163975 
Q 4.942352 -1.50811 4.942352 -3.849954 
Q 4.942352 -6.173321 3.792216 -7.522075 
Q 2.646699 -8.870829 0.683615 -8.870829 
Q -1.279469 -8.870829 -2.424986 -7.522075 
Q -3.570503 -6.173321 -3.570503 -3.849954 
Q -3.570503 -1.50811 -2.424986 -0.163975 
Q -1.279469 1.175541 0.683615 1.175541 
z
" id="m96440dc9cd" style="stroke:#808080;"/>
    </defs>
    <g clip-path="url(#p2ac92c0020)">
     <use style="fill:#808080;stroke:#808080;" x="445.132027" xlink:href="#m96440dc9cd" y="278.027155"/>
    </g>
   </g>
   <g id="PathCollection_11"/>
   <g id="PathCollection_12"/>
   <g id="PathCollection_13"/>
   <g id="PathCollection_14"/>
   <g id="PathCollection_15"/>
   <g id="matplotlib.axis_1">
    <g id="xtick_1">
     <g id="line2d_1">
      <defs>
       <path d="M 0 0 
L 0 3.5 
" id="m03f2179eff" style="stroke:#000000;stroke-width:0.8;"/>
      </defs>
      <g>
       <use style="stroke:#000000;stroke-width:0.8;" x="140.348647" xlink:href="#m03f2179eff" y="630"/>
      </g>
     </g>
     <g id="text_1">
      <!-- −200 -->
      <g transform="translate(126.615054 644.598438)scale(0.1 -0.1)">
       <defs>
        <path d="M 678 2272 
L 4684 2272 
L 4684 1741 
L 678 1741 
L 678 2272 
z
" id="DejaVuSans-2212" transform="scale(0.015625)"/>
        <path d="M 1228 531 
L 3431 531 
L 3431 0 
L 469 0 
L 469 531 
Q 828 903 1448 1529 
Q 2069 2156 2228 2338 
Q 2531 2678 2651 2914 
Q 2772 3150 2772 3378 
Q 2772 3750 2511 3984 
Q 2250 4219 1831 4219 
Q 1534 4219 1204 4116 
Q 875 4013 500 3803 
L 500 4441 
Q 881 4594 1212 4672 
Q 1544 4750 1819 4750 
Q 2544 4750 2975 4387 
Q 3406 4025 3406 3419 
Q 3406 3131 3298 2873 
Q 3191 2616 2906 2266 
Q 2828 2175 2409 1742 
Q 1991 1309 1228 531 
z
" id="DejaVuSans-32" transform="scale(0.015625)"/>
        <path d="M 2034 4250 
Q 1547 4250 1301 3770 
Q 1056 3291 1056 2328 
Q 1056 1369 1301 889 
Q 1547 409 2034 409 
Q 2525 409 2770 889 
Q 3016 1369 3016 2328 
Q 3016 3291 2770 3770 
Q 2525 4250 2034 4250 
z
M 2034 4750 
Q 2819 4750 3233 4129 
Q 3647 3509 3647 2328 
Q 3647 1150 3233 529 
Q 2819 -91 2034 -91 
Q 1250 -91 836 529 
Q 422 1150 422 2328 
Q 422 3509 836 4129 
Q 1250 4750 2034 4750 
z
" id="DejaVuSans-30" transform="scale(0.015625)"/>
       </defs>
       <use xlink:href="#DejaVuSans-2212"/>
       <use x="83.789062" xlink:href="#DejaVuSans-32"/>
       <use x="147.412109" xlink:href="#DejaVuSans-30"/>
       <use x="211.035156" xlink:href="#DejaVuSans-30"/>
      </g>
     </g>
    </g>
    <g id="xtick_2">
     <g id="line2d_2">
      <g>
       <use style="stroke:#000000;stroke-width:0.8;" x="221.99526" xlink:href="#m03f2179eff" y="630"/>
      </g>
     </g>
     <g id="text_2">
      <!-- −100 -->
      <g transform="translate(208.261666 644.598438)scale(0.1 -0.1)">
       <defs>
        <path d="M 794 531 
L 1825 531 
L 1825 4091 
L 703 3866 
L 703 4441 
L 1819 4666 
L 2450 4666 
L 2450 531 
L 3481 531 
L 3481 0 
L 794 0 
L 794 531 
z
" id="DejaVuSans-31" transform="scale(0.015625)"/>
       </defs>
       <use xlink:href="#DejaVuSans-2212"/>
       <use x="83.789062" xlink:href="#DejaVuSans-31"/>
       <use x="147.412109" xlink:href="#DejaVuSans-30"/>
       <use x="211.035156" xlink:href="#DejaVuSans-30"/>
      </g>
     </g>
    </g>
    <g id="xtick_3">
     <g id="line2d_3">
      <g>
       <use style="stroke:#000000;stroke-width:0.8;" x="303.641873" xlink:href="#m03f2179eff" y="630"/>
      </g>
     </g>
     <g id="text_3">
      <!-- 0 -->
      <g transform="translate(300.460623 644.598438)scale(0.1 -0.1)">
       <use xlink:href="#DejaVuSans-30"/>
      </g>
     </g>
    </g>
    <g id="xtick_4">
     <g id="line2d_4">
      <g>
       <use style="stroke:#000000;stroke-width:0.8;" x="385.288486" xlink:href="#m03f2179eff" y="630"/>
      </g>
     </g>
     <g id="text_4">
      <!-- 100 -->
      <g transform="translate(375.744736 644.598438)scale(0.1 -0.1)">
       <use xlink:href="#DejaVuSans-31"/>
       <use x="63.623047" xlink:href="#DejaVuSans-30"/>
       <use x="127.246094" xlink:href="#DejaVuSans-30"/>
      </g>
     </g>
    </g>
    <g id="xtick_5">
     <g id="line2d_5">
      <g>
       <use style="stroke:#000000;stroke-width:0.8;" x="466.935098" xlink:href="#m03f2179eff" y="630"/>
      </g>
     </g>
     <g id="text_5">
      <!-- 200 -->
      <g transform="translate(457.391348 644.598438)scale(0.1 -0.1)">
       <use xlink:href="#DejaVuSans-32"/>
       <use x="63.623047" xlink:href="#DejaVuSans-30"/>
       <use x="127.246094" xlink:href="#DejaVuSans-30"/>
      </g>
     </g>
    </g>
    <g id="xtick_6">
     <g id="line2d_6">
      <g>
       <use style="stroke:#000000;stroke-width:0.8;" x="548.581711" xlink:href="#m03f2179eff" y="630"/>
      </g>
     </g>
     <g id="text_6">
      <!-- 300 -->
      <g transform="translate(539.037961 644.598438)scale(0.1 -0.1)">
       <defs>
        <path d="M 2597 2516 
Q 3050 2419 3304 2112 
Q 3559 1806 3559 1356 
Q 3559 666 3084 287 
Q 2609 -91 1734 -91 
Q 1441 -91 1130 -33 
Q 819 25 488 141 
L 488 750 
Q 750 597 1062 519 
Q 1375 441 1716 441 
Q 2309 441 2620 675 
Q 2931 909 2931 1356 
Q 2931 1769 2642 2001 
Q 2353 2234 1838 2234 
L 1294 2234 
L 1294 2753 
L 1863 2753 
Q 2328 2753 2575 2939 
Q 2822 3125 2822 3475 
Q 2822 3834 2567 4026 
Q 2313 4219 1838 4219 
Q 1578 4219 1281 4162 
Q 984 4106 628 3988 
L 628 4550 
Q 988 4650 1302 4700 
Q 1616 4750 1894 4750 
Q 2613 4750 3031 4423 
Q 3450 4097 3450 3541 
Q 3450 3153 3228 2886 
Q 3006 2619 2597 2516 
z
" id="DejaVuSans-33" transform="scale(0.015625)"/>
       </defs>
       <use xlink:href="#DejaVuSans-33"/>
       <use x="63.623047" xlink:href="#DejaVuSans-30"/>
       <use x="127.246094" xlink:href="#DejaVuSans-30"/>
      </g>
     </g>
    </g>
    <g id="xtick_7">
     <g id="line2d_7">
      <g>
       <use style="stroke:#000000;stroke-width:0.8;" x="630.228324" xlink:href="#m03f2179eff" y="630"/>
      </g>
     </g>
     <g id="text_7">
      <!-- 400 -->
      <g transform="translate(620.684574 644.598438)scale(0.1 -0.1)">
       <defs>
        <path d="M 2419 4116 
L 825 1625 
L 2419 1625 
L 2419 4116 
z
M 2253 4666 
L 3047 4666 
L 3047 1625 
L 3713 1625 
L 3713 1100 
L 3047 1100 
L 3047 0 
L 2419 0 
L 2419 1100 
L 313 1100 
L 313 1709 
L 2253 4666 
z
" id="DejaVuSans-34" transform="scale(0.015625)"/>
       </defs>
       <use xlink:href="#DejaVuSans-34"/>
       <use x="63.623047" xlink:href="#DejaVuSans-30"/>
       <use x="127.246094" xlink:href="#DejaVuSans-30"/>
      </g>
     </g>
    </g>
   </g>
   <g id="matplotlib.axis_2">
    <g id="ytick_1">
     <g id="line2d_8">
      <defs>
       <path d="M 0 0 
L -3.5 0 
" id="mb1abf5851b" style="stroke:#000000;stroke-width:0.8;"/>
      </defs>
      <g>
       <use style="stroke:#000000;stroke-width:0.8;" x="90" xlink:href="#mb1abf5851b" y="580.950673"/>
      </g>
     </g>
     <g id="text_8">
      <!-- −200 -->
      <g transform="translate(55.532812 584.749891)scale(0.1 -0.1)">
       <use xlink:href="#DejaVuSans-2212"/>
       <use x="83.789062" xlink:href="#DejaVuSans-32"/>
       <use x="147.412109" xlink:href="#DejaVuSans-30"/>
       <use x="211.035156" xlink:href="#DejaVuSans-30"/>
      </g>
     </g>
    </g>
    <g id="ytick_2">
     <g id="line2d_9">
      <g>
       <use style="stroke:#000000;stroke-width:0.8;" x="90" xlink:href="#mb1abf5851b" y="501.411069"/>
      </g>
     </g>
     <g id="text_9">
      <!-- −100 -->
      <g transform="translate(55.532812 505.210288)scale(0.1 -0.1)">
       <use xlink:href="#DejaVuSans-2212"/>
       <use x="83.789062" xlink:href="#DejaVuSans-31"/>
       <use x="147.412109" xlink:href="#DejaVuSans-30"/>
       <use x="211.035156" xlink:href="#DejaVuSans-30"/>
      </g>
     </g>
    </g>
    <g id="ytick_3">
     <g id="line2d_10">
      <g>
       <use style="stroke:#000000;stroke-width:0.8;" x="90" xlink:href="#mb1abf5851b" y="421.871466"/>
      </g>
     </g>
     <g id="text_10">
      <!-- 0 -->
      <g transform="translate(76.6375 425.670685)scale(0.1 -0.1)">
       <use xlink:href="#DejaVuSans-30"/>
      </g>
     </g>
    </g>
    <g id="ytick_4">
     <g id="line2d_11">
      <g>
       <use style="stroke:#000000;stroke-width:0.8;" x="90" xlink:href="#mb1abf5851b" y="342.331863"/>
      </g>
     </g>
     <g id="text_11">
      <!-- 100 -->
      <g transform="translate(63.9125 346.131081)scale(0.1 -0.1)">
       <use xlink:href="#DejaVuSans-31"/>
       <use x="63.623047" xlink:href="#DejaVuSans-30"/>
       <use x="127.246094" xlink:href="#DejaVuSans-30"/>
      </g>
     </g>
    </g>
    <g id="ytick_5">
     <g id="line2d_12">
      <g>
       <use style="stroke:#000000;stroke-width:0.8;" x="90" xlink:href="#mb1abf5851b" y="262.792259"/>
      </g>
     </g>
     <g id="text_12">
      <!-- 200 -->
      <g transform="translate(63.9125 266.591478)scale(0.1 -0.1)">
       <use xlink:href="#DejaVuSans-32"/>
       <use x="63.623047" xlink:href="#DejaVuSans-30"/>
       <use x="127.246094" xlink:href="#DejaVuSans-30"/>
      </g>
     </g>
    </g>
    <g id="ytick_6">
     <g id="line2d_13">
      <g>
       <use style="stroke:#000000;stroke-width:0.8;" x="90" xlink:href="#mb1abf5851b" y="183.252656"/>
      </g>
     </g>
     <g id="text_13">
      <!-- 300 -->
      <g transform="translate(63.9125 187.051875)scale(0.1 -0.1)">
       <use xlink:href="#DejaVuSans-33"/>
       <use x="63.623047" xlink:href="#DejaVuSans-30"/>
       <use x="127.246094" xlink:href="#DejaVuSans-30"/>
      </g>
     </g>
    </g>
    <g id="ytick_7">
     <g id="line2d_14">
      <g>
       <use style="stroke:#000000;stroke-width:0.8;" x="90" xlink:href="#mb1abf5851b" y="103.713052"/>
      </g>
     </g>
     <g id="text_14">
      <!-- 400 -->
      <g transform="translate(63.9125 107.512271)scale(0.1 -0.1)">
       <use xlink:href="#DejaVuSans-34"/>
       <use x="63.623047" xlink:href="#DejaVuSans-30"/>
       <use x="127.246094" xlink:href="#DejaVuSans-30"/>
      </g>
     </g>
    </g>
   </g>
   <g id="line2d_15">
    <path clip-path="url(#p2ac92c0020)" d="M 445.132027 278.027155 
L 440.904375 277.996166 
L 436.679827 277.842442 
L 432.4652 277.52999 
L 428.274071 277.006118 
L 424.134209 276.190977 
L 420.105088 274.960753 
L 416.321007 273.130807 
L 413.069234 270.498187 
L 410.743578 267.06179 
L 409.461021 263.142835 
L 408.963565 259.057014 
L 408.93945 254.940471 
L 409.163402 250.827807 
L 409.481619 246.719596 
L 409.779114 242.608741 
L 409.957353 238.490408 
L 409.920384 234.367993 
L 409.566966 230.259939 
L 408.789937 226.209002 
L 407.487948 222.291418 
L 405.593529 218.615802 
L 403.105953 215.298635 
L 400.09855 212.422838 
L 396.687339 210.012391 
L 392.988851 208.040911 
L 389.096467 206.456617 
L 385.076714 205.202539 
L 380.97445 204.226592 
L 376.819333 203.484759 
L 372.630938 202.941044 
L 368.422272 202.566351 
L 364.202066 202.337167 
L 359.976238 202.234398 
L 355.748836 202.242419 
L 351.522642 202.348332 
L 347.299574 202.541392 
L 343.08095 202.812573 
L 338.867671 203.154223 
L 334.660336 203.559807 
L 330.459335 204.023698 
" style="fill:none;stroke:#808080;stroke-linecap:square;stroke-width:1.5;"/>
   </g>
   <g id="line2d_16">
    <path clip-path="url(#p2ac92c0020)" d="M 330.459335 278.027155 
L 330.459335 202.234398 
L 445.132027 202.234398 
L 445.132027 278.027155 
L 330.459335 278.027155 
" style="fill:none;stroke:#d3d3d3;stroke-linecap:square;stroke-width:0.5;"/>
   </g>
   <g id="line2d_17">
    <path clip-path="url(#p2ac92c0020)" d="M 330.459335 204.023698 
L 326.345195 204.519816 
L 322.234103 205.04561 
L 318.1265 205.602553 
L 314.022895 206.192246 
L 309.923877 206.816435 
L 305.830128 207.477023 
L 301.742444 208.176094 
L 297.66175 208.915932 
L 293.589127 209.699045 
L 289.525842 210.528197 
L 285.473377 211.406434 
L 281.433476 212.337129 
L 277.408188 213.324016 
L 273.399928 214.371243 
L 269.411543 215.483423 
L 265.446397 216.665695 
L 261.508466 217.923791 
L 257.602445 219.264102 
L 253.733888 220.693753 
L 249.90935 222.220662 
L 246.13655 223.853588 
L 242.424543 225.602117 
L 238.783868 227.476575 
L 235.226637 229.487744 
L 231.76645 231.646307 
L 228.417952 233.961789 
L 225.195654 236.440805 
L 222.111457 239.08443 
L 219.17016 241.884729 
L 216.362559 244.820944 
L 213.656904 247.856037 
L 210.991786 250.933939 
L 208.27637 253.977304 
L 205.405722 256.887662 
L 202.294296 259.556137 
L 198.911468 261.892133 
L 195.287186 263.854787 
L 191.482619 265.457834 
" style="fill:none;stroke:#808080;stroke-linecap:square;stroke-width:1.5;"/>
   </g>
   <g id="line2d_18">
    <path clip-path="url(#p2ac92c0020)" d="M 191.482619 265.457834 
L 191.482619 204.023698 
L 330.459335 204.023698 
L 330.459335 265.457834 
L 191.482619 265.457834 
" style="fill:none;stroke:#d3d3d3;stroke-linecap:square;stroke-width:0.5;"/>
   </g>
   <g id="line2d_19">
    <path clip-path="url(#p2ac92c0020)" d="M 191.482619 265.457834 
L 187.949088 267.580165 
L 185.41828 270.790637 
L 183.895566 274.56606 
L 183.140109 278.563078 
L 182.938442 282.629536 
L 183.147626 286.701271 
L 183.674629 290.74968 
L 184.457156 294.761239 
L 185.451907 298.729302 
L 186.62773 302.650559 
L 187.961539 306.523378 
L 189.435789 310.346969 
L 191.03687 314.120955 
L 192.754034 317.845127 
L 194.578666 321.519318 
L 196.503773 325.143324 
L 198.523613 328.716861 
L 200.63343 332.239541 
L 202.829243 335.710861 
L 205.1077 339.130194 
L 207.465951 342.496789 
L 209.901558 345.809769 
L 212.412413 349.068134 
L 214.996684 352.270764 
L 217.652756 355.416419 
L 220.379191 358.503747 
L 223.174691 361.531283 
L 226.038064 364.49746 
L 228.968198 367.400605 
L 231.964031 370.238954 
L 235.024534 373.010653 
L 238.148682 375.713765 
L 241.335442 378.346283 
L 244.583749 380.906133 
L 247.892492 383.39119 
L 251.260498 385.799287 
L 254.686514 388.128231 
L 258.169199 390.375815 
L 261.707112 392.539834 
L 265.298695 394.618107 
L 268.942275 396.60849 
L 272.63605 398.508899 
L 276.37809 400.317331 
L 280.166333 402.031881 
L 283.998589 403.650768 
L 287.872539 405.172351 
L 291.785748 406.595154 
L 295.735669 407.917879 
L 299.719657 409.139426 
L 303.734984 410.25891 
L 307.778854 411.275666 
L 311.848422 412.189267 
" style="fill:none;stroke:#808080;stroke-linecap:square;stroke-width:1.5;"/>
   </g>
   <g id="line2d_20">
    <path clip-path="url(#p2ac92c0020)" d="M 182.938442 412.189267 
L 182.938442 265.457834 
L 311.848422 265.457834 
L 311.848422 412.189267 
L 182.938442 412.189267 
" style="fill:none;stroke:#d3d3d3;stroke-linecap:square;stroke-width:0.5;"/>
   </g>
   <g id="line2d_21">
    <path clip-path="url(#p2ac92c0020)" d="M 311.848422 412.189267 
L 315.858553 413.082421 
L 319.844636 414.074669 
L 323.798185 415.185303 
L 327.706689 416.439032 
L 331.551278 417.867712 
L 335.302892 419.512325 
L 338.916198 421.424491 
L 342.320926 423.665192 
L 345.41324 426.29533 
L 348.058415 429.350719 
L 350.125445 432.805606 
L 351.552356 436.560398 
L 352.38325 440.485262 
L 352.734225 444.478374 
L 352.734922 448.484456 
L 352.496278 452.482013 
L 352.104393 456.466898 
L 351.624684 460.442088 
L 351.107531 464.412686 
L 350.592845 468.383701 
L 350.113279 472.359119 
L 349.696387 476.341503 
L 349.36604 480.331842 
L 349.143308 484.329477 
L 349.046987 488.332078 
L 349.093849 492.335657 
L 349.298709 496.334621 
L 349.674355 500.321874 
L 350.231387 504.288996 
L 350.978038 508.226488 
L 351.92 512.124093 
L 353.060318 515.971176 
L 354.39938 519.75713 
L 355.935016 523.471782 
" style="fill:none;stroke:#808080;stroke-linecap:square;stroke-width:1.5;"/>
   </g>
   <g id="line2d_22">
    <path clip-path="url(#p2ac92c0020)" d="M 311.848422 523.471782 
L 311.848422 412.189267 
L 355.935016 412.189267 
L 355.935016 523.471782 
L 311.848422 523.471782 
" style="fill:none;stroke:#d3d3d3;stroke-linecap:square;stroke-width:0.5;"/>
   </g>
   <g id="line2d_23">
    <path clip-path="url(#p2ac92c0020)" d="M 355.935016 523.471782 
L 357.66272 527.105757 
L 359.575962 530.650775 
L 361.666572 534.09985 
L 363.925154 537.447404 
L 366.341497 540.689279 
L 368.90495 543.822678 
L 371.604752 546.846053 
L 374.430289 549.758952 
L 377.371301 552.561852 
L 380.418022 555.255999 
L 383.561272 557.843238 
L 386.792509 560.325879 
L 390.103845 562.706567 
L 393.488042 564.988178 
L 396.938491 567.173732 
L 400.449178 569.266321 
L 404.014642 571.269057 
L 407.629939 573.185025 
L 411.290595 575.017255 
L 414.992561 576.768696 
L 418.732178 578.442201 
L 422.506137 580.040515 
L 426.311441 581.566269 
L 430.145377 583.021976 
L 434.005484 584.41003 
L 437.88953 585.73271 
L 441.795484 586.992178 
L 445.721497 588.190485 
L 449.665885 589.329573 
L 453.627107 590.411284 
L 457.603757 591.437359 
L 461.594543 592.409446 
L 465.598281 593.329105 
L 469.613882 594.19781 
" style="fill:none;stroke:#808080;stroke-linecap:square;stroke-width:1.5;"/>
   </g>
   <g id="line2d_24">
    <path clip-path="url(#p2ac92c0020)" d="M 355.935016 594.19781 
L 355.935016 523.471782 
L 469.613882 523.471782 
L 469.613882 594.19781 
L 355.935016 594.19781 
" style="fill:none;stroke:#d3d3d3;stroke-linecap:square;stroke-width:0.5;"/>
   </g>
   <g id="line2d_25">
    <path clip-path="url(#p2ac92c0020)" d="M 469.613882 594.19781 
" style="fill:none;stroke:#808080;stroke-linecap:square;stroke-width:1.5;"/>
   </g>
   <g id="line2d_26">
    <path clip-path="url(#p2ac92c0020)" d="M 469.613882 594.19781 
L 469.613882 594.19781 
L 469.613882 594.19781 
L 469.613882 594.19781 
L 469.613882 594.19781 
" style="fill:none;stroke:#d3d3d3;stroke-linecap:square;stroke-width:0.5;"/>
   </g>
   <g id="line2d_27">
    <path clip-path="url(#p2ac92c0020)" d="M 469.613882 594.19781 
L 473.647465 595.039682 
L 477.682744 595.872673 
L 481.719826 596.696193 
L 485.758824 597.509602 
L 489.799857 598.312199 
L 493.843049 599.103218 
L 497.888532 599.881817 
L 501.936445 600.647074 
L 505.986934 601.397969 
L 510.040152 602.133379 
L 514.096259 602.852057 
L 518.15542 603.552618 
L 522.217808 604.233519 
L 526.283601 604.893035 
L 530.352976 605.529228 
L 534.426114 606.139917 
L 538.503188 606.722631 
L 542.584362 607.274566 
L 546.669779 607.792517 
L 550.75955 608.272807 
L 554.853732 608.711191 
L 558.952308 609.10274 
L 563.05514 609.441694 
L 567.161917 609.721272 
L 571.272069 609.933435 
L 575.384648 610.068573 
L 579.498135 610.1151 
L 583.610159 610.058932 
L 587.717062 609.882791 
L 591.813214 609.565319 
L 595.889937 609.079947 
L 599.933806 608.393545 
L 603.923984 607.465018 
" style="fill:none;stroke:#808080;stroke-linecap:square;stroke-width:1.5;"/>
   </g>
   <g id="line2d_28">
    <path clip-path="url(#p2ac92c0020)" d="M 469.613882 610.1151 
L 469.613882 594.19781 
L 603.923984 594.19781 
L 603.923984 610.1151 
L 469.613882 610.1151 
" style="fill:none;stroke:#d3d3d3;stroke-linecap:square;stroke-width:0.5;"/>
   </g>
   <g id="line2d_29">
    <path clip-path="url(#p2ac92c0020)" d="M 603.923984 607.465018 
L 607.828175 606.244423 
L 611.59704 604.674027 
L 615.158101 602.694191 
L 618.413523 600.257937 
L 621.2507 597.354354 
L 623.572081 594.028419 
L 625.33103 590.375388 
L 626.544307 586.507483 
L 627.272875 582.520321 
L 627.593029 578.479987 
L 627.577144 574.426528 
L 627.286202 570.382242 
L 626.769023 566.3587 
L 626.06398 562.361348 
L 625.20117 558.392243 
L 624.204336 554.451609 
L 623.092391 550.538712 
L 621.880563 546.652351 
L 620.581255 542.791127 
L 619.204678 538.953599 
L 617.759331 535.138359 
L 616.252351 531.344076 
L 614.689795 527.569517 
L 613.076838 523.813552 
L 611.417945 520.075151 
L 609.71699 516.353385 
L 607.97736 512.647414 
L 606.202036 508.956484 
L 604.393655 505.279918 
L 602.554562 501.617108 
L 600.686855 497.967514 
L 598.792419 494.330649 
L 596.872956 490.706081 
" style="fill:none;stroke:#808080;stroke-linecap:square;stroke-width:1.5;"/>
   </g>
   <g id="line2d_30">
    <path clip-path="url(#p2ac92c0020)" d="M 596.872956 607.465018 
L 596.872956 490.706081 
L 627.593029 490.706081 
L 627.593029 607.465018 
L 596.872956 607.465018 
" style="fill:none;stroke:#d3d3d3;stroke-linecap:square;stroke-width:0.5;"/>
   </g>
   <g id="line2d_31">
    <path clip-path="url(#p2ac92c0020)" d="M 596.872956 490.706081 
L 594.930005 487.093425 
L 592.96497 483.49234 
L 590.979131 479.90252 
L 588.973659 476.323697 
L 586.949632 472.755635 
L 584.908043 469.198124 
L 582.849807 465.650982 
L 580.775774 462.114049 
L 578.686731 458.587187 
L 576.583411 455.070276 
L 574.466495 451.563214 
L 572.336619 448.065913 
L 570.194377 444.578299 
L 568.040323 441.100313 
L 565.874974 437.631902 
L 563.698817 434.173027 
L 561.512305 430.723656 
L 559.31586 427.283765 
L 557.109879 423.853334 
L 554.894731 420.432352 
L 552.67076 417.020812 
L 550.438285 413.618709 
L 548.197602 410.226044 
L 545.948984 406.842819 
L 543.692681 403.469038 
L 541.428922 400.104708 
L 539.157913 396.749835 
L 536.879838 393.404427 
L 534.594863 390.068492 
L 532.303127 386.742037 
L 530.00475 383.425069 
L 527.69983 380.117595 
L 525.388439 376.819622 
" style="fill:none;stroke:#808080;stroke-linecap:square;stroke-width:1.5;"/>
   </g>
   <g id="line2d_32">
    <path clip-path="url(#p2ac92c0020)" d="M 525.388439 490.706081 
L 525.388439 376.819622 
L 596.872956 376.819622 
L 596.872956 490.706081 
L 525.388439 490.706081 
" style="fill:none;stroke:#d3d3d3;stroke-linecap:square;stroke-width:0.5;"/>
   </g>
   <g id="line2d_33">
    <path clip-path="url(#p2ac92c0020)" d="M 525.388439 376.819622 
L 523.070628 373.531153 
L 520.746423 370.252193 
L 518.415824 366.982746 
L 516.078803 363.722816 
L 513.735306 360.472405 
L 511.385248 357.231519 
L 509.028509 354.000162 
L 506.66494 350.778343 
L 504.294348 347.566074 
L 501.916505 344.363372 
L 499.531132 341.170264 
L 497.137905 337.986784 
L 494.736439 334.812984 
L 492.326288 331.648932 
L 489.906932 328.494721 
L 487.477765 325.350479 
L 485.038083 322.216373 
L 482.587061 319.092627 
L 480.123734 315.97954 
L 477.646956 312.87751 
L 475.155362 309.787067 
L 472.647301 306.708926 
L 470.120742 303.64406 
L 467.573143 300.593813 
L 465.001235 297.560087 
L 462.400668 294.545646 
L 459.765399 291.554682 
L 457.086503 288.593946 
L 454.349588 285.675307 
L 451.528009 282.822939 
L 448.55809 280.102329 
L 445.132027 278.027155 
" style="fill:none;stroke:#808080;stroke-linecap:square;stroke-width:1.5;"/>
   </g>
   <g id="line2d_34">
    <path clip-path="url(#p2ac92c0020)" d="M 445.132027 376.819622 
L 445.132027 278.027155 
L 525.388439 278.027155 
L 525.388439 376.819622 
L 445.132027 376.819622 
" style="fill:none;stroke:#d3d3d3;stroke-linecap:square;stroke-width:0.5;"/>
   </g>
   <g id="line2d_35">
    <path clip-path="url(#p2ac92c0020)" d="M 331.433355 211.920856 
L 331.433355 211.920856 
L 327.377601 212.409932 
L 323.327727 212.927894 
L 319.284421 213.476117 
L 315.248469 214.056086 
L 311.220768 214.669412 
L 307.20235 215.317841 
L 303.194401 216.003272 
L 299.198289 216.72777 
L 295.215596 217.493586 
L 291.248155 218.303173 
L 287.298096 219.159209 
L 283.367896 220.064622 
L 279.460439 221.022609 
L 275.579092 222.036663 
L 271.727785 223.1106 
L 267.911105 224.248583 
L 264.134404 225.455141 
L 260.403911 226.735187 
L 256.726849 228.094026 
L 253.111538 229.537348 
L 249.567463 231.071207 
L 246.105261 232.701978 
L 242.736547 234.436301 
L 239.473475 236.281029 
L 236.327823 238.243228 
L 233.309373 240.33034 
L 230.423251 242.550632 
L 227.665969 244.914071 
L 225.020044 247.433405 
L 222.447357 250.124436 
L 219.881771 253.002944 
L 217.22269 256.073909 
L 214.336201 259.307857 
L 211.080878 262.605962 
L 207.373641 265.783509 
L 203.256899 268.625983 
L 198.877472 270.998458 
L 194.388817 272.890854 
L 194.388817 272.890854 
" style="fill:none;stroke:#000000;stroke-linecap:square;stroke-width:3;"/>
   </g>
   <g id="line2d_36">
    <path clip-path="url(#p2ac92c0020)" d="M 194.388817 272.890854 
L 194.388817 211.920856 
L 331.433355 211.920856 
L 331.433355 272.890854 
L 194.388817 272.890854 
" style="fill:none;stroke:#d3d3d3;stroke-linecap:square;stroke-width:0.5;"/>
   </g>
   <g id="line2d_37">
    <path clip-path="url(#p2ac92c0020)" d="M 471.332901 586.422142 
L 475.349103 587.260387 
L 479.365854 588.089553 
L 483.383158 588.909039 
L 487.401014 589.718191 
L 491.419414 590.516293 
L 495.438342 591.302565 
L 499.45777 592.07615 
L 503.477657 592.836109 
L 507.497945 593.581407 
L 511.518556 594.310901 
L 515.539387 595.02333 
L 519.560304 595.717291 
L 523.581133 596.391228 
L 527.601652 597.043402 
L 531.621577 597.671867 
L 535.64055 598.274437 
L 539.658111 598.848649 
L 543.67368 599.391716 
L 547.686518 599.900471 
L 551.695679 600.371301 
L 555.699956 600.800067 
L 559.697791 601.182004 
L 563.687171 601.511601 
L 567.665475 601.782454 
L 571.629262 601.98709 
L 575.573986 602.116752 
L 579.493584 602.161141 
L 583.379901 602.108135 
L 587.221873 601.943473 
L 591.004387 601.650484 
L 594.706704 601.209956 
L 598.300422 600.600377 
L 601.747166 599.798965 
" style="fill:none;stroke:#000000;stroke-linecap:square;stroke-width:3;"/>
   </g>
   <g id="line2d_38">
    <path clip-path="url(#p2ac92c0020)" d="M 471.332901 602.161141 
L 471.332901 586.422142 
L 601.747166 586.422142 
L 601.747166 602.161141 
L 471.332901 602.161141 
" style="fill:none;stroke:#d3d3d3;stroke-linecap:square;stroke-width:0.5;"/>
   </g>
   <g id="line2d_39">
    <path clip-path="url(#p2ac92c0020)" d="M 601.747166 599.798965 
L 604.996895 598.784012 
L 607.989186 597.53876 
L 610.661721 596.05506 
L 612.96859 594.330996 
L 614.898654 592.357093 
L 616.47021 590.104326 
L 617.701929 587.542091 
L 618.599645 584.6735 
L 619.170167 581.542324 
L 619.433051 578.21064 
L 619.41871 574.737132 
L 619.161488 571.168096 
L 618.69445 567.537019 
L 618.046969 563.86717 
L 617.2441 560.174438 
L 616.306822 556.469617 
L 615.252586 552.760035 
L 614.095898 549.050666 
L 612.848861 545.344886 
L 611.521624 541.644978 
L 610.122752 537.952474 
L 608.659522 534.268384 
L 607.138158 530.593362 
L 605.564018 526.927808 
L 603.941745 523.271951 
L 602.275387 519.625899 
L 600.568495 515.989681 
L 598.8242 512.363269 
L 597.045277 508.746602 
L 595.234201 505.139597 
L 593.393184 501.542161 
L 591.524218 497.954196 
L 589.629099 494.375603 
" style="fill:none;stroke:#000000;stroke-linecap:square;stroke-width:3;"/>
   </g>
   <g id="line2d_40">
    <path clip-path="url(#p2ac92c0020)" d="M 589.629099 599.798965 
L 589.629099 494.375603 
L 619.433051 494.375603 
L 619.433051 599.798965 
L 589.629099 599.798965 
" style="fill:none;stroke:#d3d3d3;stroke-linecap:square;stroke-width:0.5;"/>
   </g>
   <g id="line2d_41">
    <path clip-path="url(#p2ac92c0020)" d="M 589.629099 494.375603 
L 587.709457 490.806289 
L 585.766774 487.246168 
L 583.802403 483.695158 
L 581.817583 480.15319 
L 579.813451 476.620202 
L 577.791057 473.096141 
L 575.751367 469.580963 
L 573.69528 466.074634 
L 571.623625 462.577128 
L 569.537175 459.088426 
L 567.436649 455.608518 
L 565.322719 452.1374 
L 563.19601 448.675075 
L 561.057106 445.221552 
L 558.906555 441.776844 
L 556.744868 438.34097 
L 554.572525 434.913952 
L 552.389972 431.495817 
L 550.197629 428.086593 
L 547.995886 424.686314 
L 545.785108 421.295012 
L 543.565635 417.912724 
L 541.337783 414.539486 
L 539.101843 411.175336 
L 536.858084 407.820313 
L 534.606755 404.474455 
L 532.348078 401.137801 
L 530.082259 397.81039 
L 527.809479 394.49226 
L 525.529898 391.183448 
L 523.243655 387.883991 
L 520.950867 384.593927 
L 518.651627 381.313291 
" style="fill:none;stroke:#000000;stroke-linecap:square;stroke-width:3;"/>
   </g>
   <g id="line2d_42">
    <path clip-path="url(#p2ac92c0020)" d="M 518.651627 494.375603 
L 518.651627 381.313291 
L 589.629099 381.313291 
L 589.629099 494.375603 
L 518.651627 494.375603 
" style="fill:none;stroke:#d3d3d3;stroke-linecap:square;stroke-width:0.5;"/>
   </g>
   <g id="line2d_43">
    <path clip-path="url(#p2ac92c0020)" d="M 518.651627 381.313291 
L 516.346009 378.042121 
L 514.03406 374.780452 
L 511.715805 371.528322 
L 509.391243 368.28577 
L 507.060347 365.052837 
L 504.723063 361.829567 
L 502.379307 358.616009 
L 500.028964 355.41222 
L 497.671888 352.218265 
L 495.307895 349.034218 
L 492.936763 345.860172 
L 490.55823 342.696239 
L 488.171985 339.542554 
L 485.777668 336.399288 
L 483.374861 333.266653 
L 480.963082 330.144916 
L 478.541776 327.034417 
L 476.110307 323.935589 
L 473.66794 320.848991 
L 471.213831 317.77535 
L 468.747004 314.715624 
L 466.266331 311.671094 
L 463.770502 308.6435 
L 461.258 305.635268 
L 458.727078 302.649877 
L 456.175774 299.692522 
L 453.60205 296.771379 
L 451.004362 293.900328 
L 448.383929 291.105736 
L 445.755294 288.447796 
L 443.223109 286.123418 
L 445.17412 285.981009 
L 445.17412 285.981009 
" style="fill:none;stroke:#000000;stroke-linecap:square;stroke-width:3;"/>
   </g>
   <g id="line2d_44">
    <path clip-path="url(#p2ac92c0020)" d="M 443.223109 381.313291 
L 443.223109 285.981009 
L 518.651627 285.981009 
L 518.651627 381.313291 
L 443.223109 381.313291 
" style="fill:none;stroke:#d3d3d3;stroke-linecap:square;stroke-width:0.5;"/>
   </g>
   <g id="line2d_45">
    <path clip-path="url(#p2ac92c0020)" d="M 445.17412 285.981009 
" style="fill:none;stroke:#000000;stroke-linecap:square;stroke-width:3;"/>
   </g>
   <g id="line2d_46">
    <path clip-path="url(#p2ac92c0020)" d="M 445.17412 285.981009 
L 445.17412 285.981009 
L 445.17412 285.981009 
L 445.17412 285.981009 
L 445.17412 285.981009 
" style="fill:none;stroke:#d3d3d3;stroke-linecap:square;stroke-width:0.5;"/>
   </g>
   <g id="line2d_47">
    <path clip-path="url(#p2ac92c0020)" d="M 313.578168 404.415857 
L 313.578168 404.415857 
L 317.773225 405.350262 
L 321.978942 406.397281 
L 326.196403 407.582208 
L 330.425859 408.939146 
L 334.665205 410.51496 
L 338.906301 412.374927 
L 343.126356 414.609573 
L 347.268964 417.338285 
L 351.209565 420.693563 
L 354.721234 424.753544 
L 357.515427 429.423897 
L 359.41264 434.408857 
L 360.4696 439.386261 
L 360.89307 444.178202 
L 360.89516 448.746246 
L 360.634945 453.116207 
L 360.220971 457.328855 
L 359.727229 461.421362 
L 359.206055 465.423035 
L 358.696315 469.355683 
L 358.228286 473.235001 
L 357.826553 477.071887 
L 357.511749 480.873481 
L 357.301586 484.643943 
L 357.211467 488.385032 
L 357.25482 492.096553 
L 357.443263 495.776733 
L 357.786658 499.42253 
L 358.293108 503.029925 
L 358.968924 506.594185 
L 359.818595 510.110105 
L 360.844778 513.572232 
L 362.048319 516.975057 
L 363.428311 520.313197 
" style="fill:none;stroke:#000000;stroke-linecap:square;stroke-width:3;"/>
   </g>
   <g id="line2d_48">
    <path clip-path="url(#p2ac92c0020)" d="M 313.578168 520.313197 
L 313.578168 404.415857 
L 363.428311 404.415857 
L 363.428311 520.313197 
L 313.578168 520.313197 
" style="fill:none;stroke:#d3d3d3;stroke-linecap:square;stroke-width:0.5;"/>
   </g>
   <g id="line2d_49">
    <path clip-path="url(#p2ac92c0020)" d="M 363.428311 520.313197 
L 364.982205 523.581541 
L 366.705952 526.775377 
L 368.594192 529.890502 
L 370.640467 532.923298 
L 372.837457 535.870791 
L 375.177217 538.730676 
L 377.651407 541.50132 
L 380.251503 544.181733 
L 382.968984 546.771533 
L 385.795477 549.270875 
L 388.72288 551.680395 
L 391.743452 554.001129 
L 394.849865 556.234446 
L 398.035244 558.381978 
L 401.293182 560.445562 
L 404.617741 562.427179 
L 408.003438 564.328915 
L 411.445232 566.152911 
L 414.938496 567.901339 
L 418.478993 569.576371 
L 422.062847 571.180156 
L 425.686516 572.714808 
L 429.346764 574.182389 
L 433.040633 575.584904 
L 436.76542 576.92429 
L 440.518655 578.202415 
L 444.298074 579.421075 
L 448.101606 580.581991 
L 451.927351 581.686811 
L 455.773566 582.737111 
L 459.638647 583.734394 
L 463.521119 584.680094 
L 467.419622 585.575576 
L 471.332901 586.422142 
" style="fill:none;stroke:#000000;stroke-linecap:square;stroke-width:3;"/>
   </g>
   <g id="line2d_50">
    <path clip-path="url(#p2ac92c0020)" d="M 363.428311 586.422142 
L 363.428311 520.313197 
L 471.332901 520.313197 
L 471.332901 586.422142 
L 363.428311 586.422142 
" style="fill:none;stroke:#d3d3d3;stroke-linecap:square;stroke-width:0.5;"/>
   </g>
   <g id="line2d_51">
    <path clip-path="url(#p2ac92c0020)" d="M 194.388817 272.890854 
L 194.388817 272.890854 
L 193.472374 273.437897 
L 192.591747 274.589126 
L 191.773055 276.657029 
L 191.257424 279.41843 
L 191.102983 282.586487 
L 191.278515 285.978567 
L 191.736399 289.490909 
L 192.433777 293.064016 
L 193.336104 296.662468 
L 194.416293 300.264284 
L 195.653138 303.855264 
L 197.029922 307.425876 
L 198.533319 310.969481 
L 200.152596 314.481269 
L 201.879007 317.957615 
L 203.705357 321.395668 
L 205.625668 324.793083 
L 207.634929 328.147846 
L 209.728905 331.458156 
L 211.903987 334.722339 
L 214.157075 337.938795 
L 216.485485 341.105958 
L 218.886874 344.222262 
L 221.359175 347.286129 
L 223.900553 350.295947 
L 226.509353 353.250069 
L 229.184069 356.146797 
L 231.923313 358.984389 
L 234.725783 361.76105 
L 237.590243 364.474935 
L 240.515499 367.124154 
L 243.500382 369.706774 
L 246.543726 372.220823 
L 249.644357 374.664301 
L 252.801075 377.035183 
L 256.012643 379.331434 
L 259.277774 381.551016 
L 262.595122 383.691902 
L 265.963272 385.752089 
L 269.380734 387.729611 
L 272.845934 389.622555 
L 276.357215 391.429078 
L 279.912829 393.147418 
L 283.51094 394.775918 
L 287.149621 396.313034 
L 290.826862 397.757358 
L 294.540572 399.107626 
L 298.288582 400.362738 
L 302.06866 401.521764 
L 305.878514 402.58396 
L 309.715808 403.548776 
L 313.578168 404.415857 
L 313.578168 404.415857 
" style="fill:none;stroke:#000000;stroke-linecap:square;stroke-width:3;"/>
   </g>
   <g id="line2d_52">
    <path clip-path="url(#p2ac92c0020)" d="M 191.102983 404.415857 
L 191.102983 272.890854 
L 313.578168 272.890854 
L 313.578168 404.415857 
L 191.102983 404.415857 
" style="fill:none;stroke:#d3d3d3;stroke-linecap:square;stroke-width:0.5;"/>
   </g>
   <g id="line2d_53">
    <path clip-path="url(#p2ac92c0020)" d="M 445.17412 285.981009 
L 445.17412 285.981009 
L 440.731136 285.948336 
L 436.231869 285.784422 
L 431.657072 285.444893 
L 426.978464 284.859296 
L 422.155598 283.907844 
L 417.142566 282.372642 
L 411.96165 279.856109 
L 407.014164 275.83387 
L 403.336958 270.408776 
L 401.456366 264.709799 
L 400.809524 259.462566 
L 400.778667 254.695327 
L 401.018307 250.277485 
L 401.341107 246.108289 
L 401.629146 242.131757 
L 401.794413 238.327078 
L 401.762919 234.701888 
L 401.470807 231.288118 
L 400.868035 228.134155 
L 399.923682 225.285153 
L 398.620711 222.753717 
L 396.937862 220.510011 
L 394.848188 218.514111 
L 392.348258 216.750126 
L 389.476181 215.221111 
L 386.297037 213.928427 
L 382.879704 212.863123 
L 379.283569 212.008113 
L 375.555065 211.342783 
L 371.728895 210.846312 
L 367.830546 210.499395 
L 363.878674 210.284886 
L 359.886988 210.187884 
L 355.865641 210.195566 
L 351.82222 210.296936 
L 347.762449 210.48256 
L 343.690688 210.744322 
L 339.610285 211.075215 
L 335.523833 211.469159 
L 331.433355 211.920856 
L 331.433355 211.920856 
" style="fill:none;stroke:#000000;stroke-linecap:square;stroke-width:3;"/>
   </g>
   <g id="line2d_54">
    <path clip-path="url(#p2ac92c0020)" d="M 331.433355 285.981009 
L 331.433355 210.187884 
L 445.17412 210.187884 
L 445.17412 285.981009 
L 331.433355 285.981009 
" style="fill:none;stroke:#d3d3d3;stroke-linecap:square;stroke-width:0.5;"/>
   </g>
   <g id="line2d_55">
    <path clip-path="url(#p2ac92c0020)" d="M 471.332901 586.422142 
L 471.332901 586.422142 
L 471.332901 586.422142 
" style="fill:none;stroke:#000000;stroke-linecap:square;stroke-width:3;"/>
   </g>
   <g id="line2d_56">
    <path clip-path="url(#p2ac92c0020)" d="M 471.332901 586.422142 
L 471.332901 586.422142 
L 471.332901 586.422142 
L 471.332901 586.422142 
L 471.332901 586.422142 
" style="fill:none;stroke:#d3d3d3;stroke-linecap:square;stroke-width:0.5;"/>
   </g>
   <g id="line2d_57">
    <path clip-path="url(#p2ac92c0020)" d="M 471.332901 586.422142 
L 471.332901 586.422142 
L 471.332901 586.422142 
" style="fill:none;stroke:#000000;stroke-linecap:square;stroke-width:3;"/>
   </g>
   <g id="line2d_58">
    <path clip-path="url(#p2ac92c0020)" d="M 471.332901 586.422142 
L 471.332901 586.422142 
L 471.332901 586.422142 
L 471.332901 586.422142 
L 471.332901 586.422142 
" style="fill:none;stroke:#d3d3d3;stroke-linecap:square;stroke-width:0.5;"/>
   </g>
   <g id="line2d_59">
    <path clip-path="url(#p2ac92c0020)" d="M 445.089933 270.0733 
L 445.089933 270.0733 
L 441.077613 270.043997 
L 437.127785 269.900462 
L 433.273328 269.615087 
L 429.569678 269.15294 
L 426.11282 268.47411 
L 423.067609 267.548865 
L 420.680364 266.405505 
L 419.124305 265.162504 
L 418.150198 263.714804 
L 417.465677 261.57587 
L 417.117606 258.651462 
L 417.100233 255.185615 
L 417.308498 251.378129 
L 417.622131 247.330903 
L 417.929081 243.085725 
L 418.120292 238.653737 
L 418.077848 234.034098 
L 417.663125 229.231759 
L 416.711838 224.283849 
L 415.052214 219.297683 
L 412.566347 214.477886 
L 409.274043 210.087259 
L 405.348911 206.331565 
L 401.02642 203.274656 
L 396.50152 200.860711 
L 391.895897 198.984808 
L 387.273723 197.541955 
L 382.665331 196.445071 
L 378.083602 195.626735 
L 373.532981 195.035776 
L 369.013998 194.633307 
L 364.525458 194.389449 
L 360.065489 194.280913 
L 355.632031 194.289273 
L 351.223064 194.399727 
L 346.836698 194.600224 
L 342.471213 194.880824 
L 338.125057 195.233232 
L 333.796839 195.650455 
L 329.485315 196.126541 
L 329.485315 196.126541 
" style="fill:none;stroke:#000000;stroke-linecap:square;stroke-width:3;"/>
   </g>
   <g id="line2d_60">
    <path clip-path="url(#p2ac92c0020)" d="M 329.485315 270.0733 
L 329.485315 194.280913 
L 445.089933 194.280913 
L 445.089933 270.0733 
L 329.485315 270.0733 
" style="fill:none;stroke:#d3d3d3;stroke-linecap:square;stroke-width:0.5;"/>
   </g>
   <g id="line2d_61">
    <path clip-path="url(#p2ac92c0020)" d="M 467.894863 601.973478 
L 471.945826 602.818978 
L 475.999634 603.655793 
L 480.056495 604.483347 
L 484.116635 605.301014 
L 488.180299 606.108105 
L 492.247755 606.90387 
L 496.319294 607.687484 
L 500.395234 608.458038 
L 504.475924 609.214532 
L 508.561748 609.955857 
L 512.65313 610.680784 
L 516.750536 611.387944 
L 520.854484 612.07581 
L 524.96555 612.742668 
L 529.084375 613.38659 
L 533.211678 614.005396 
L 537.348265 614.596613 
L 541.495044 615.157416 
L 545.65304 615.684563 
L 549.82342 616.174313 
L 554.007509 616.622314 
L 558.206826 617.023476 
L 562.423109 617.371787 
L 566.658358 617.66009 
L 570.914876 617.87978 
L 575.19531 618.020394 
L 579.502685 618.069059 
L 583.840417 618.009728 
L 588.212251 617.822108 
L 592.62204 617.480154 
L 597.07317 616.949939 
L 601.567191 616.186713 
L 606.100801 615.131071 
" style="fill:none;stroke:#000000;stroke-linecap:square;stroke-width:3;"/>
   </g>
   <g id="line2d_62">
    <path clip-path="url(#p2ac92c0020)" d="M 467.894863 618.069059 
L 467.894863 601.973478 
L 606.100801 601.973478 
L 606.100801 618.069059 
L 467.894863 618.069059 
" style="fill:none;stroke:#d3d3d3;stroke-linecap:square;stroke-width:0.5;"/>
   </g>
   <g id="line2d_63">
    <path clip-path="url(#p2ac92c0020)" d="M 606.100801 615.131071 
L 610.659455 613.704834 
L 615.204893 611.809294 
L 619.654481 609.333323 
L 623.858456 606.184878 
L 627.602747 602.351615 
L 630.673952 597.952512 
L 632.960132 593.208684 
L 634.488968 588.341465 
L 635.375582 583.498319 
L 635.753008 578.749334 
L 635.735578 574.115923 
L 635.410915 569.596389 
L 634.843596 565.180381 
L 634.080992 560.855527 
L 633.158241 556.610049 
L 632.10185 552.4336 
L 630.932195 548.317388 
L 629.665227 544.254035 
L 628.313648 540.237369 
L 626.887733 536.26222 
L 625.395909 532.324244 
L 623.845181 528.419768 
L 622.241431 524.545673 
L 620.589659 520.699296 
L 618.894145 516.878352 
L 617.158592 513.080871 
L 615.386225 509.305147 
L 613.579873 505.549699 
L 611.742032 501.813233 
L 609.874923 498.09462 
L 607.980526 494.392866 
L 606.060621 490.707102 
L 604.116812 487.036559 
" style="fill:none;stroke:#000000;stroke-linecap:square;stroke-width:3;"/>
   </g>
   <g id="line2d_64">
    <path clip-path="url(#p2ac92c0020)" d="M 604.116812 615.131071 
L 604.116812 487.036559 
L 635.753008 487.036559 
L 635.753008 615.131071 
L 604.116812 615.131071 
" style="fill:none;stroke:#d3d3d3;stroke-linecap:square;stroke-width:0.5;"/>
   </g>
   <g id="line2d_65">
    <path clip-path="url(#p2ac92c0020)" d="M 604.116812 487.036559 
L 602.150553 483.380562 
L 600.163166 479.738512 
L 598.155859 476.109881 
L 596.129736 472.494204 
L 594.085813 468.891068 
L 592.025028 465.300107 
L 589.948246 461.721001 
L 587.856268 458.153465 
L 585.749838 454.597247 
L 583.629647 451.052127 
L 581.496341 447.51791 
L 579.35052 443.994425 
L 577.192745 440.481524 
L 575.023539 436.979073 
L 572.843394 433.48696 
L 570.652766 430.005085 
L 568.452084 426.533361 
L 566.241748 423.071713 
L 564.022129 419.620075 
L 561.793577 416.178391 
L 559.556412 412.746612 
L 557.310935 409.324695 
L 555.057422 405.912603 
L 552.796126 402.510302 
L 550.527278 399.117764 
L 548.251089 395.734961 
L 545.967747 392.361869 
L 543.677418 388.998464 
L 541.380246 385.644724 
L 539.076356 382.300626 
L 536.765845 378.966147 
L 534.448792 375.641264 
L 532.12525 372.325952 
" style="fill:none;stroke:#000000;stroke-linecap:square;stroke-width:3;"/>
   </g>
   <g id="line2d_66">
    <path clip-path="url(#p2ac92c0020)" d="M 532.12525 487.036559 
L 532.12525 372.325952 
L 604.116812 372.325952 
L 604.116812 487.036559 
L 532.12525 487.036559 
" style="fill:none;stroke:#d3d3d3;stroke-linecap:square;stroke-width:0.5;"/>
   </g>
   <g id="line2d_67">
    <path clip-path="url(#p2ac92c0020)" d="M 532.12525 372.325952 
L 529.795247 369.020185 
L 527.458786 365.723934 
L 525.115843 362.437171 
L 522.766364 359.159862 
L 520.410266 355.891974 
L 518.047432 352.633471 
L 515.677712 349.384314 
L 513.300915 346.144465 
L 510.916809 342.913883 
L 508.525115 339.692526 
L 506.125502 336.480355 
L 503.71758 333.27733 
L 501.300893 330.083414 
L 498.874909 326.898575 
L 496.439003 323.72279 
L 493.992448 320.556041 
L 491.534389 317.398328 
L 489.063815 314.249665 
L 486.579527 311.11009 
L 484.080081 307.979671 
L 481.56372 304.85851 
L 479.02827 301.746758 
L 476.470982 298.64462 
L 473.888287 295.552359 
L 471.275392 292.470297 
L 468.625562 289.398769 
L 465.928749 286.337986 
L 463.168645 283.287564 
L 460.315247 280.244878 
L 457.300724 277.198083 
L 453.893072 274.08124 
L 445.089933 270.0733 
L 445.089933 270.0733 
" style="fill:none;stroke:#000000;stroke-linecap:square;stroke-width:3;"/>
   </g>
   <g id="line2d_68">
    <path clip-path="url(#p2ac92c0020)" d="M 445.089933 372.325952 
L 445.089933 270.0733 
L 532.12525 270.0733 
L 532.12525 372.325952 
L 445.089933 372.325952 
" style="fill:none;stroke:#d3d3d3;stroke-linecap:square;stroke-width:0.5;"/>
   </g>
   <g id="line2d_69">
    <path clip-path="url(#p2ac92c0020)" d="M 445.089933 270.0733 
" style="fill:none;stroke:#000000;stroke-linecap:square;stroke-width:3;"/>
   </g>
   <g id="line2d_70">
    <path clip-path="url(#p2ac92c0020)" d="M 445.089933 270.0733 
L 445.089933 270.0733 
L 445.089933 270.0733 
L 445.089933 270.0733 
L 445.089933 270.0733 
" style="fill:none;stroke:#d3d3d3;stroke-linecap:square;stroke-width:0.5;"/>
   </g>
   <g id="line2d_71">
    <path clip-path="url(#p2ac92c0020)" d="M 310.118676 419.962677 
L 310.118676 419.962677 
L 313.94388 420.81458 
L 317.71033 421.752058 
L 321.399967 422.788399 
L 324.987518 423.938919 
L 328.43735 425.220463 
L 331.699483 426.649723 
L 334.70604 428.23941 
L 337.372889 429.992099 
L 339.616916 431.897096 
L 341.395595 433.947894 
L 342.735463 436.187315 
L 343.692072 438.711939 
L 344.2969 441.584263 
L 344.57538 444.778546 
L 344.574684 448.222667 
L 344.357611 451.84782 
L 343.987815 455.60494 
L 343.522139 459.462814 
L 343.009007 463.402337 
L 342.489375 467.41172 
L 341.998272 471.483236 
L 341.566222 475.611119 
L 341.220331 479.790203 
L 340.985031 484.01501 
L 340.882506 488.279124 
L 340.932877 492.574761 
L 341.154156 496.892509 
L 341.562052 501.221219 
L 342.169667 505.548068 
L 342.987153 509.858791 
L 344.021405 514.138081 
L 345.275858 518.37012 
L 346.750441 522.539203 
L 348.441721 526.630367 
" style="fill:none;stroke:#000000;stroke-linecap:square;stroke-width:3;"/>
   </g>
   <g id="line2d_72">
    <path clip-path="url(#p2ac92c0020)" d="M 310.118676 526.630367 
L 310.118676 419.962677 
L 348.441721 419.962677 
L 348.441721 526.630367 
L 310.118676 526.630367 
" style="fill:none;stroke:#d3d3d3;stroke-linecap:square;stroke-width:0.5;"/>
   </g>
   <g id="line2d_73">
    <path clip-path="url(#p2ac92c0020)" d="M 348.441721 526.630367 
L 350.343235 530.629974 
L 352.445972 534.526172 
L 354.738952 538.309197 
L 357.209841 541.971509 
L 359.845537 545.507766 
L 362.632684 548.91468 
L 365.558097 552.190787 
L 368.609074 555.33617 
L 371.773618 558.352172 
L 375.040567 561.241122 
L 378.399664 564.00608 
L 381.841566 566.650628 
L 385.357826 569.178688 
L 388.940841 571.594378 
L 392.583801 573.901902 
L 396.280614 576.105463 
L 400.025846 578.2092 
L 403.814647 580.21714 
L 407.642693 582.133171 
L 411.506129 583.961022 
L 415.40151 585.704247 
L 419.325757 587.366223 
L 423.276118 588.950149 
L 427.25012 590.459048 
L 431.245548 591.895771 
L 435.260406 593.263006 
L 439.292894 594.563282 
L 443.341389 595.798978 
L 447.404418 596.972335 
L 451.480649 598.085457 
L 455.568867 599.140324 
L 459.667967 600.138799 
L 463.77694 601.082634 
L 467.894863 601.973478 
" style="fill:none;stroke:#000000;stroke-linecap:square;stroke-width:3;"/>
   </g>
   <g id="line2d_74">
    <path clip-path="url(#p2ac92c0020)" d="M 348.441721 601.973478 
L 348.441721 526.630367 
L 467.894863 526.630367 
L 467.894863 601.973478 
L 348.441721 601.973478 
" style="fill:none;stroke:#d3d3d3;stroke-linecap:square;stroke-width:0.5;"/>
   </g>
   <g id="line2d_75">
    <path clip-path="url(#p2ac92c0020)" d="M 188.576421 258.024813 
L 188.576421 258.024813 
L 182.425802 261.722434 
L 178.244813 266.992149 
L 176.018076 272.475092 
L 175.022795 277.707725 
L 174.7739 282.672586 
L 175.016737 287.423974 
L 175.61286 292.008452 
L 176.480534 296.458462 
L 177.567709 300.796135 
L 178.839168 305.036834 
L 180.269939 309.191492 
L 181.841656 313.268062 
L 183.540421 317.272428 
L 185.355472 321.208984 
L 187.278325 325.081021 
L 189.302189 328.89098 
L 191.421559 332.640639 
L 193.631931 336.331236 
L 195.929582 339.963567 
L 198.311414 343.53805 
L 200.774828 347.054782 
L 203.31763 350.51358 
L 205.937953 353.914006 
L 208.634193 357.255399 
L 211.404959 360.53689 
L 214.249029 363.757425 
L 217.165313 366.915769 
L 220.152816 370.01053 
L 223.210613 373.04016 
L 226.33782 376.002974 
L 229.533568 378.897152 
L 232.796982 381.720757 
L 236.127157 384.471743 
L 239.523141 387.147965 
L 242.983909 389.747197 
L 246.508352 392.267141 
L 250.095254 394.705446 
L 253.743277 397.059727 
L 257.450951 399.327579 
L 261.216656 401.506603 
L 265.038615 403.594425 
L 268.914884 405.588721 
L 272.84335 407.487244 
L 276.821727 409.287845 
L 280.847557 410.988501 
L 284.918216 412.587345 
L 289.030924 414.082682 
L 293.182755 415.47302 
L 297.370654 416.757089 
L 301.591454 417.933859 
L 305.841901 419.002557 
L 310.118676 419.962677 
L 310.118676 419.962677 
" style="fill:none;stroke:#000000;stroke-linecap:square;stroke-width:3;"/>
   </g>
   <g id="line2d_76">
    <path clip-path="url(#p2ac92c0020)" d="M 174.7739 419.962677 
L 174.7739 258.024813 
L 310.118676 258.024813 
L 310.118676 419.962677 
L 174.7739 419.962677 
" style="fill:none;stroke:#d3d3d3;stroke-linecap:square;stroke-width:0.5;"/>
   </g>
   <g id="line2d_77">
    <path clip-path="url(#p2ac92c0020)" d="M 329.485315 196.126541 
L 329.485315 196.126541 
L 325.312789 196.6297 
L 321.140479 197.163326 
L 316.968579 197.728989 
L 312.797321 198.328406 
L 308.626985 198.963458 
L 304.457906 199.636205 
L 300.290486 200.348917 
L 296.12521 201.104094 
L 291.962658 201.904505 
L 287.803528 202.753221 
L 283.648658 203.65366 
L 279.499057 204.609636 
L 275.355937 205.625424 
L 271.220763 206.705823 
L 267.095301 207.856245 
L 262.98169 209.082807 
L 258.882527 210.392441 
L 254.800979 211.793017 
L 250.740928 213.293479 
L 246.707162 214.903977 
L 242.705637 216.635968 
L 238.743826 218.502257 
L 234.831189 220.516848 
L 230.979799 222.69446 
L 227.205077 225.049386 
L 223.526532 227.593237 
L 219.968058 230.330978 
L 216.556944 233.254788 
L 213.320276 236.336053 
L 210.277762 239.517453 
L 207.432036 242.709129 
L 204.760882 245.793969 
L 202.21654 248.646752 
L 199.730565 251.169362 
L 197.214951 253.328765 
L 194.566038 255.158283 
L 191.6969 256.711115 
L 188.576421 258.024813 
L 188.576421 258.024813 
" style="fill:none;stroke:#000000;stroke-linecap:square;stroke-width:3;"/>
   </g>
   <g id="line2d_78">
    <path clip-path="url(#p2ac92c0020)" d="M 188.576421 258.024813 
L 188.576421 196.126541 
L 329.485315 196.126541 
L 329.485315 258.024813 
L 188.576421 258.024813 
" style="fill:none;stroke:#d3d3d3;stroke-linecap:square;stroke-width:0.5;"/>
   </g>
   <g id="line2d_79">
    <path clip-path="url(#p2ac92c0020)" d="M 467.894863 601.973478 
L 467.894863 601.973478 
L 467.894863 601.973478 
" style="fill:none;stroke:#000000;stroke-linecap:square;stroke-width:3;"/>
   </g>
   <g id="line2d_80">
    <path clip-path="url(#p2ac92c0020)" d="M 467.894863 601.973478 
L 467.894863 601.973478 
L 467.894863 601.973478 
L 467.894863 601.973478 
L 467.894863 601.973478 
" style="fill:none;stroke:#d3d3d3;stroke-linecap:square;stroke-width:0.5;"/>
   </g>
   <g id="line2d_81">
    <path clip-path="url(#p2ac92c0020)" d="M 467.894863 601.973478 
L 467.894863 601.973478 
L 467.894863 601.973478 
" style="fill:none;stroke:#000000;stroke-linecap:square;stroke-width:3;"/>
   </g>
   <g id="line2d_82">
    <path clip-path="url(#p2ac92c0020)" d="M 467.894863 601.973478 
L 467.894863 601.973478 
L 467.894863 601.973478 
L 467.894863 601.973478 
L 467.894863 601.973478 
" style="fill:none;stroke:#d3d3d3;stroke-linecap:square;stroke-width:0.5;"/>
   </g>
   <g id="line2d_83">
    <path clip-path="url(#p2ac92c0020)" d="M 330.459335 192.092758 
L 332.025446 192.190711 
L 333.565841 192.482961 
L 335.055227 192.96471 
L 336.469149 193.628047 
L 337.78439 194.46208 
L 338.979354 195.453115 
L 340.034419 196.584879 
L 340.932262 197.838788 
L 341.658139 199.194252 
L 342.200132 200.629017 
L 342.549342 202.119522 
L 342.700035 203.641293 
L 342.649735 205.169343 
L 342.399269 206.678582 
L 341.95275 208.144228 
L 341.31751 209.542215 
L 340.503978 210.849588 
L 339.525514 212.04488 
L 338.398183 213.108465 
L 337.140497 214.022878 
L 335.773106 214.773104 
L 334.318463 215.346826 
L 332.800453 215.734622 
L 331.244003 215.930126 
L 329.674668 215.930126 
L 328.118217 215.734622 
L 326.600207 215.346826 
L 325.145564 214.773104 
L 323.778174 214.022878 
L 322.520487 213.108465 
L 321.393156 212.04488 
L 320.414692 210.849588 
L 319.601161 209.542215 
L 318.96592 208.144228 
L 318.519401 206.678582 
L 318.268935 205.169343 
L 318.218635 203.641293 
L 318.369328 202.119522 
L 318.718538 200.629017 
L 319.260531 199.194252 
L 319.986409 197.838788 
L 320.884251 196.584879 
L 321.939316 195.453115 
L 323.13428 194.46208 
L 324.449521 193.628047 
L 325.863443 192.96471 
L 327.352829 192.482961 
L 328.893224 192.190711 
L 330.459335 192.092758 
" style="fill:none;stroke:#808080;stroke-linecap:square;stroke-width:1.5;"/>
   </g>
   <g id="line2d_84">
    <path clip-path="url(#p2ac92c0020)" d="M 191.482619 253.526893 
L 193.048729 253.624846 
L 194.589124 253.917096 
L 196.078511 254.398845 
L 197.492433 255.062182 
L 198.807674 255.896215 
L 200.002637 256.88725 
L 201.057703 258.019014 
L 201.955545 259.272923 
L 202.681423 260.628388 
L 203.223416 262.063152 
L 203.572626 263.553657 
L 203.723318 265.075428 
L 203.673019 266.603479 
L 203.422553 268.112718 
L 202.976034 269.578363 
L 202.340793 270.97635 
L 201.527262 272.283723 
L 200.548797 273.479015 
L 199.421467 274.5426 
L 198.16378 275.457013 
L 196.796389 276.20724 
L 195.341746 276.780961 
L 193.823737 277.168757 
L 192.267286 277.364261 
L 190.697951 277.364261 
L 189.141501 277.168757 
L 187.623491 276.780961 
L 186.168848 276.20724 
L 184.801457 275.457013 
L 183.543771 274.5426 
L 182.41644 273.479015 
L 181.437976 272.283723 
L 180.624444 270.97635 
L 179.989204 269.578363 
L 179.542684 268.112718 
L 179.292219 266.603479 
L 179.241919 265.075428 
L 179.392611 263.553657 
L 179.741821 262.063152 
L 180.283815 260.628388 
L 181.009692 259.272923 
L 181.907535 258.019014 
L 182.9626 256.88725 
L 184.157564 255.896215 
L 185.472805 255.062182 
L 186.886727 254.398845 
L 188.376113 253.917096 
L 189.916508 253.624846 
L 191.482619 253.526893 
" style="fill:none;stroke:#808080;stroke-linecap:square;stroke-width:1.5;"/>
   </g>
   <g id="line2d_85">
    <path clip-path="url(#p2ac92c0020)" d="M 311.848422 400.258327 
L 313.414533 400.356279 
L 314.954928 400.64853 
L 316.444314 401.130278 
L 317.858236 401.793615 
L 319.173477 402.627649 
L 320.368441 403.618684 
L 321.423506 404.750447 
L 322.321349 406.004356 
L 323.047226 407.359821 
L 323.58922 408.794585 
L 323.938429 410.28509 
L 324.089122 411.806862 
L 324.038822 413.334912 
L 323.788356 414.844151 
L 323.341837 416.309797 
L 322.706597 417.707784 
L 321.893065 419.015157 
L 320.914601 420.210449 
L 319.78727 421.274033 
L 318.529584 422.188446 
L 317.162193 422.938673 
L 315.70755 423.512395 
L 314.18954 423.900191 
L 312.63309 424.095694 
L 311.063755 424.095694 
L 309.507304 423.900191 
L 307.989294 423.512395 
L 306.534652 422.938673 
L 305.167261 422.188446 
L 303.909574 421.274033 
L 302.782244 420.210449 
L 301.803779 419.015157 
L 300.990248 417.707784 
L 300.355007 416.309797 
L 299.908488 414.844151 
L 299.658022 413.334912 
L 299.607723 411.806862 
L 299.758415 410.28509 
L 300.107625 408.794585 
L 300.649618 407.359821 
L 301.375496 406.004356 
L 302.273338 404.750447 
L 303.328404 403.618684 
L 304.523367 402.627649 
L 305.838608 401.793615 
L 307.25253 401.130278 
L 308.741917 400.64853 
L 310.282312 400.356279 
L 311.848422 400.258327 
" style="fill:none;stroke:#808080;stroke-linecap:square;stroke-width:1.5;"/>
   </g>
   <g id="line2d_86">
    <path clip-path="url(#p2ac92c0020)" d="M 355.935016 511.540842 
L 357.501127 511.638794 
L 359.041522 511.931045 
L 360.530908 512.412793 
L 361.94483 513.07613 
L 363.260071 513.910164 
L 364.455035 514.901199 
L 365.5101 516.032962 
L 366.407943 517.286871 
L 367.13382 518.642336 
L 367.675814 520.0771 
L 368.025024 521.567605 
L 368.175716 523.089377 
L 368.125416 524.617427 
L 367.874951 526.126666 
L 367.428432 527.592312 
L 366.793191 528.990299 
L 365.979659 530.297672 
L 365.001195 531.492964 
L 363.873864 532.556549 
L 362.616178 533.470961 
L 361.248787 534.221188 
L 359.794144 534.79491 
L 358.276135 535.182706 
L 356.719684 535.378209 
L 355.150349 535.378209 
L 353.593898 535.182706 
L 352.075889 534.79491 
L 350.621246 534.221188 
L 349.253855 533.470961 
L 347.996168 532.556549 
L 346.868838 531.492964 
L 345.890373 530.297672 
L 345.076842 528.990299 
L 344.441601 527.592312 
L 343.995082 526.126666 
L 343.744616 524.617427 
L 343.694317 523.089377 
L 343.845009 521.567605 
L 344.194219 520.0771 
L 344.736212 518.642336 
L 345.46209 517.286871 
L 346.359933 516.032962 
L 347.414998 514.901199 
L 348.609962 513.910164 
L 349.925202 513.07613 
L 351.339124 512.412793 
L 352.828511 511.931045 
L 354.368906 511.638794 
L 355.935016 511.540842 
" style="fill:none;stroke:#808080;stroke-linecap:square;stroke-width:1.5;"/>
   </g>
   <g id="line2d_87">
    <path clip-path="url(#p2ac92c0020)" d="M 469.613882 582.26687 
L 471.179993 582.364822 
L 472.720388 582.657073 
L 474.209774 583.138821 
L 475.623696 583.802158 
L 476.938937 584.636192 
L 478.133901 585.627227 
L 479.188966 586.75899 
L 480.086809 588.012899 
L 480.812686 589.368364 
L 481.35468 590.803128 
L 481.70389 592.293633 
L 481.854582 593.815405 
L 481.804282 595.343455 
L 481.553816 596.852694 
L 481.107297 598.31834 
L 480.472057 599.716327 
L 479.658525 601.0237 
L 478.680061 602.218992 
L 477.55273 603.282577 
L 476.295044 604.196989 
L 474.927653 604.947216 
L 473.47301 605.520938 
L 471.955 605.908734 
L 470.39855 606.104237 
L 468.829215 606.104237 
L 467.272764 605.908734 
L 465.754754 605.520938 
L 464.300112 604.947216 
L 462.932721 604.196989 
L 461.675034 603.282577 
L 460.547704 602.218992 
L 459.569239 601.0237 
L 458.755708 599.716327 
L 458.120467 598.31834 
L 457.673948 596.852694 
L 457.423482 595.343455 
L 457.373183 593.815405 
L 457.523875 592.293633 
L 457.873085 590.803128 
L 458.415078 589.368364 
L 459.140956 588.012899 
L 460.038798 586.75899 
L 461.093864 585.627227 
L 462.288827 584.636192 
L 463.604068 583.802158 
L 465.01799 583.138821 
L 466.507377 582.657073 
L 468.047772 582.364822 
L 469.613882 582.26687 
" style="fill:none;stroke:#808080;stroke-linecap:square;stroke-width:1.5;"/>
   </g>
   <g id="line2d_88">
    <path clip-path="url(#p2ac92c0020)" d="M 469.613882 582.26687 
L 471.179993 582.364822 
L 472.720388 582.657073 
L 474.209774 583.138821 
L 475.623696 583.802158 
L 476.938937 584.636192 
L 478.133901 585.627227 
L 479.188966 586.75899 
L 480.086809 588.012899 
L 480.812686 589.368364 
L 481.35468 590.803128 
L 481.70389 592.293633 
L 481.854582 593.815405 
L 481.804282 595.343455 
L 481.553816 596.852694 
L 481.107297 598.31834 
L 480.472057 599.716327 
L 479.658525 601.0237 
L 478.680061 602.218992 
L 477.55273 603.282577 
L 476.295044 604.196989 
L 474.927653 604.947216 
L 473.47301 605.520938 
L 471.955 605.908734 
L 470.39855 606.104237 
L 468.829215 606.104237 
L 467.272764 605.908734 
L 465.754754 605.520938 
L 464.300112 604.947216 
L 462.932721 604.196989 
L 461.675034 603.282577 
L 460.547704 602.218992 
L 459.569239 601.0237 
L 458.755708 599.716327 
L 458.120467 598.31834 
L 457.673948 596.852694 
L 457.423482 595.343455 
L 457.373183 593.815405 
L 457.523875 592.293633 
L 457.873085 590.803128 
L 458.415078 589.368364 
L 459.140956 588.012899 
L 460.038798 586.75899 
L 461.093864 585.627227 
L 462.288827 584.636192 
L 463.604068 583.802158 
L 465.01799 583.138821 
L 466.507377 582.657073 
L 468.047772 582.364822 
L 469.613882 582.26687 
" style="fill:none;stroke:#808080;stroke-linecap:square;stroke-width:1.5;"/>
   </g>
   <g id="line2d_89">
    <path clip-path="url(#p2ac92c0020)" d="M 603.923984 595.534077 
L 605.490094 595.63203 
L 607.030489 595.92428 
L 608.519876 596.406029 
L 609.933798 597.069366 
L 611.249039 597.9034 
L 612.444002 598.894435 
L 613.499068 600.026198 
L 614.39691 601.280107 
L 615.122788 602.635572 
L 615.664781 604.070336 
L 616.013991 605.560841 
L 616.164683 607.082612 
L 616.114384 608.610663 
L 615.863918 610.119902 
L 615.417399 611.585548 
L 614.782158 612.983535 
L 613.968627 614.290908 
L 612.990162 615.4862 
L 611.862832 616.549784 
L 610.605145 617.464197 
L 609.237754 618.214424 
L 607.783112 618.788146 
L 606.265102 619.175942 
L 604.708651 619.371445 
L 603.139316 619.371445 
L 601.582866 619.175942 
L 600.064856 618.788146 
L 598.610213 618.214424 
L 597.242822 617.464197 
L 595.985136 616.549784 
L 594.857805 615.4862 
L 593.879341 614.290908 
L 593.065809 612.983535 
L 592.430569 611.585548 
L 591.984049 610.119902 
L 591.733584 608.610663 
L 591.683284 607.082612 
L 591.833976 605.560841 
L 592.183186 604.070336 
L 592.72518 602.635572 
L 593.451057 601.280107 
L 594.3489 600.026198 
L 595.403965 598.894435 
L 596.598929 597.9034 
L 597.91417 597.069366 
L 599.328092 596.406029 
L 600.817478 595.92428 
L 602.357873 595.63203 
L 603.923984 595.534077 
" style="fill:none;stroke:#808080;stroke-linecap:square;stroke-width:1.5;"/>
   </g>
   <g id="line2d_90">
    <path clip-path="url(#p2ac92c0020)" d="M 596.872956 478.775141 
L 598.439066 478.873093 
L 599.979461 479.165344 
L 601.468848 479.647092 
L 602.88277 480.31043 
L 604.198011 481.144463 
L 605.392974 482.135498 
L 606.44804 483.267261 
L 607.345882 484.52117 
L 608.07176 485.876635 
L 608.613753 487.311399 
L 608.962963 488.801904 
L 609.113655 490.323676 
L 609.063356 491.851726 
L 608.81289 493.360965 
L 608.366371 494.826611 
L 607.73113 496.224598 
L 606.917599 497.531971 
L 605.939134 498.727263 
L 604.811804 499.790848 
L 603.554117 500.70526 
L 602.186726 501.455487 
L 600.732084 502.029209 
L 599.214074 502.417005 
L 597.657623 502.612508 
L 596.088288 502.612508 
L 594.531838 502.417005 
L 593.013828 502.029209 
L 591.559185 501.455487 
L 590.191794 500.70526 
L 588.934108 499.790848 
L 587.806777 498.727263 
L 586.828313 497.531971 
L 586.014781 496.224598 
L 585.379541 494.826611 
L 584.933021 493.360965 
L 584.682556 491.851726 
L 584.632256 490.323676 
L 584.782948 488.801904 
L 585.132158 487.311399 
L 585.674152 485.876635 
L 586.400029 484.52117 
L 587.297872 483.267261 
L 588.352937 482.135498 
L 589.547901 481.144463 
L 590.863142 480.31043 
L 592.277064 479.647092 
L 593.76645 479.165344 
L 595.306845 478.873093 
L 596.872956 478.775141 
" style="fill:none;stroke:#808080;stroke-linecap:square;stroke-width:1.5;"/>
   </g>
   <g id="line2d_91">
    <path clip-path="url(#p2ac92c0020)" d="M 525.388439 364.888681 
L 526.954549 364.986634 
L 528.494944 365.278884 
L 529.984331 365.760633 
L 531.398253 366.42397 
L 532.713494 367.258003 
L 533.908457 368.249038 
L 534.963523 369.380802 
L 535.861365 370.634711 
L 536.587243 371.990176 
L 537.129236 373.42494 
L 537.478446 374.915445 
L 537.629138 376.437216 
L 537.578839 377.965267 
L 537.328373 379.474506 
L 536.881854 380.940152 
L 536.246613 382.338139 
L 535.433082 383.645512 
L 534.454617 384.840804 
L 533.327287 385.904388 
L 532.0696 386.818801 
L 530.702209 387.569028 
L 529.247567 388.142749 
L 527.729557 388.530546 
L 526.173106 388.726049 
L 524.603771 388.726049 
L 523.047321 388.530546 
L 521.529311 388.142749 
L 520.074668 387.569028 
L 518.707277 386.818801 
L 517.449591 385.904388 
L 516.32226 384.840804 
L 515.343796 383.645512 
L 514.530264 382.338139 
L 513.895024 380.940152 
L 513.448505 379.474506 
L 513.198039 377.965267 
L 513.147739 376.437216 
L 513.298432 374.915445 
L 513.647641 373.42494 
L 514.189635 371.990176 
L 514.915512 370.634711 
L 515.813355 369.380802 
L 516.86842 368.249038 
L 518.063384 367.258003 
L 519.378625 366.42397 
L 520.792547 365.760633 
L 522.281933 365.278884 
L 523.822328 364.986634 
L 525.388439 364.888681 
" style="fill:none;stroke:#808080;stroke-linecap:square;stroke-width:1.5;"/>
   </g>
   <g id="line2d_92">
    <path clip-path="url(#p2ac92c0020)" d="M 445.132027 266.096214 
L 446.698138 266.194167 
L 448.238533 266.486417 
L 449.727919 266.968166 
L 451.141841 267.631503 
L 452.457082 268.465536 
L 453.652046 269.456571 
L 454.707111 270.588335 
L 455.604953 271.842244 
L 456.330831 273.197709 
L 456.872824 274.632473 
L 457.222034 276.122978 
L 457.372727 277.644749 
L 457.322427 279.1728 
L 457.071961 280.682039 
L 456.625442 282.147685 
L 455.990201 283.545671 
L 455.17667 284.853044 
L 454.198206 286.048337 
L 453.070875 287.111921 
L 451.813188 288.026334 
L 450.445798 288.776561 
L 448.991155 289.350282 
L 447.473145 289.738079 
L 445.916694 289.933582 
L 444.347359 289.933582 
L 442.790909 289.738079 
L 441.272899 289.350282 
L 439.818256 288.776561 
L 438.450865 288.026334 
L 437.193179 287.111921 
L 436.065848 286.048337 
L 435.087384 284.853044 
L 434.273852 283.545671 
L 433.638612 282.147685 
L 433.192093 280.682039 
L 432.941627 279.1728 
L 432.891327 277.644749 
L 433.04202 276.122978 
L 433.39123 274.632473 
L 433.933223 273.197709 
L 434.6591 271.842244 
L 435.556943 270.588335 
L 436.612008 269.456571 
L 437.806972 268.465536 
L 439.122213 267.631503 
L 440.536135 266.968166 
L 442.025521 266.486417 
L 443.565916 266.194167 
L 445.132027 266.096214 
" style="fill:none;stroke:#808080;stroke-linecap:square;stroke-width:1.5;"/>
   </g>
   <g id="line2d_93"/>
   <g id="line2d_94"/>
   <g id="line2d_95"/>
   <g id="line2d_96"/>
   <g id="line2d_97"/>
   <g id="line2d_98"/>
   <g id="line2d_99"/>
   <g id="line2d_100"/>
   <g id="line2d_101"/>
   <g id="line2d_102"/>
   <g id="line2d_103"/>
   <g id="line2d_104"/>
   <g id="line2d_105"/>
   <g id="line2d_106"/>
   <g id="line2d_107"/>
   <g id="line2d_108"/>
   <g id="line2d_109"/>
   <g id="line2d_110"/>
   <g id="line2d_111"/>
   <g id="line2d_112"/>
   <g id="line2d_113"/>
   <g id="line2d_114"/>
   <g id="line2d_115"/>
   <g id="line2d_116"/>
   <g id="line2d_117"/>
   <g id="line2d_118"/>
   <g id="line2d_119"/>
   <g id="line2d_120"/>
   <g id="line2d_121"/>
   <g id="line2d_122"/>
   <g id="line2d_123"/>
   <g id="line2d_124"/>
   <g id="line2d_125"/>
   <g id="line2d_126"/>
   <g id="line2d_127"/>
   <g id="line2d_128"/>
   <g id="line2d_129"/>
   <g id="line2d_130"/>
   <g id="line2d_131"/>
   <g id="line2d_132"/>
   <g id="line2d_133"/>
   <g id="line2d_134"/>
   <g id="line2d_135"/>
   <g id="line2d_136"/>
   <g id="line2d_137"/>
   <g id="line2d_138"/>
   <g id="line2d_139"/>
   <g id="line2d_140"/>
   <g id="line2d_141"/>
   <g id="line2d_142"/>
   <g id="line2d_143"/>
   <g id="patch_3">
    <path d="M 90 630 
L 90 86.4 
" style="fill:none;stroke:#000000;stroke-linecap:square;stroke-linejoin:miter;stroke-width:0.8;"/>
   </g>
   <g id="patch_4">
    <path d="M 648 630 
L 648 86.4 
" style="fill:none;stroke:#000000;stroke-linecap:square;stroke-linejoin:miter;stroke-width:0.8;"/>
   </g>
   <g id="patch_5">
    <path d="M 90 630 
L 648 630 
" style="fill:none;stroke:#000000;stroke-linecap:square;stroke-linejoin:miter;stroke-width:0.8;"/>
   </g>
   <g id="patch_6">
    <path d="M 90 86.4 
L 648 86.4 
" style="fill:none;stroke:#000000;stroke-linecap:square;stroke-linejoin:miter;stroke-width:0.8;"/>
   </g>
   <g id="text_15">
    <!-- 0 -->
    <g transform="translate(58.702035 501.411069)scale(0.1 -0.1)">
     <use xlink:href="#DejaVuSans-30"/>
    </g>
   </g>
   <g id="text_16">
    <!-- 0 -->
    <g transform="translate(58.702035 489.480129)scale(0.1 -0.1)">
     <use xlink:href="#DejaVuSans-30"/>
    </g>
   </g>
   <g id="text_17">
    <!-- 0 -->
    <g transform="translate(58.702035 477.549188)scale(0.1 -0.1)">
     <use xlink:href="#DejaVuSans-30"/>
    </g>
   </g>
  </g>
 </g>
 <defs>
  <clipPath id="p2ac92c0020">
   <rect height="543.6" width="558" x="90" y="86.4"/>
  </clipPath>
 </defs>
</svg>
