<?xml version="1.0" encoding="utf-8" standalone="no"?>
<!DOCTYPE svg PUBLIC "-//W3C//DTD SVG 1.1//EN"
  "http://www.w3.org/Graphics/SVG/1.1/DTD/svg11.dtd">
<svg height="576pt" version="1.1" viewBox="0 0 720 576" width="720pt" xmlns="http://www.w3.org/2000/svg" xmlns:xlink="http://www.w3.org/1999/xlink">
 <metadata>
  <rdf:RDF xmlns:cc="http://creativecommons.org/ns#" xmlns:dc="http://purl.org/dc/elements/1.1/" xmlns:rdf="http://www.w3.org/1999/02/22-rdf-syntax-ns#">
   <cc:Work>
    <dc:type rdf:resource="http://purl.org/dc/dcmitype/StillImage"/>
    <dc:date>2022-01-12T19:43:21.703140</dc:date>
    <dc:format>image/svg+xml</dc:format>
    <dc:creator>
     <cc:Agent>
      <dc:title>Matplotlib v3.4.3, https://matplotlib.org/</dc:title>
     </cc:Agent>
    </dc:creator>
   </cc:Work>
  </rdf:RDF>
 </metadata>
 <defs>
  <style type="text/css">*{stroke-linecap:butt;stroke-linejoin:round;}</style>
 </defs>
 <g id="figure_1">
  <g id="patch_1">
   <path d="M 0 576 
L 720 576 
L 720 0 
L 0 0 
z
" style="fill:none;"/>
  </g>
  <g id="axes_1">
   <g id="patch_2">
    <path d="M 90 504 
L 648 504 
L 648 69.12 
L 90 69.12 
z
" style="fill:#ffffff;"/>
   </g>
   <g id="matplotlib.axis_1">
    <g id="xtick_1">
     <g id="line2d_1">
      <defs>
       <path d="M 0 0 
L 0 3.5 
" id="m6303c85487" style="stroke:#000000;stroke-width:0.8;"/>
      </defs>
      <g>
       <use style="stroke:#000000;stroke-width:0.8;" x="115.363636" xlink:href="#m6303c85487" y="504"/>
      </g>
     </g>
     <g id="text_1">
      <!-- 0 -->
      <g transform="translate(112.182386 518.598438)scale(0.1 -0.1)">
       <defs>
        <path d="M 2034 4250 
Q 1547 4250 1301 3770 
Q 1056 3291 1056 2328 
Q 1056 1369 1301 889 
Q 1547 409 2034 409 
Q 2525 409 2770 889 
Q 3016 1369 3016 2328 
Q 3016 3291 2770 3770 
Q 2525 4250 2034 4250 
z
M 2034 4750 
Q 2819 4750 3233 4129 
Q 3647 3509 3647 2328 
Q 3647 1150 3233 529 
Q 2819 -91 2034 -91 
Q 1250 -91 836 529 
Q 422 1150 422 2328 
Q 422 3509 836 4129 
Q 1250 4750 2034 4750 
z
" id="DejaVuSans-30" transform="scale(0.015625)"/>
       </defs>
       <use xlink:href="#DejaVuSans-30"/>
      </g>
     </g>
    </g>
    <g id="xtick_2">
     <g id="line2d_2">
      <g>
       <use style="stroke:#000000;stroke-width:0.8;" x="217.021498" xlink:href="#m6303c85487" y="504"/>
      </g>
     </g>
     <g id="text_2">
      <!-- 100 -->
      <g transform="translate(207.477748 518.598438)scale(0.1 -0.1)">
       <defs>
        <path d="M 794 531 
L 1825 531 
L 1825 4091 
L 703 3866 
L 703 4441 
L 1819 4666 
L 2450 4666 
L 2450 531 
L 3481 531 
L 3481 0 
L 794 0 
L 794 531 
z
" id="DejaVuSans-31" transform="scale(0.015625)"/>
       </defs>
       <use xlink:href="#DejaVuSans-31"/>
       <use x="63.623047" xlink:href="#DejaVuSans-30"/>
       <use x="127.246094" xlink:href="#DejaVuSans-30"/>
      </g>
     </g>
    </g>
    <g id="xtick_3">
     <g id="line2d_3">
      <g>
       <use style="stroke:#000000;stroke-width:0.8;" x="318.679359" xlink:href="#m6303c85487" y="504"/>
      </g>
     </g>
     <g id="text_3">
      <!-- 200 -->
      <g transform="translate(309.135609 518.598438)scale(0.1 -0.1)">
       <defs>
        <path d="M 1228 531 
L 3431 531 
L 3431 0 
L 469 0 
L 469 531 
Q 828 903 1448 1529 
Q 2069 2156 2228 2338 
Q 2531 2678 2651 2914 
Q 2772 3150 2772 3378 
Q 2772 3750 2511 3984 
Q 2250 4219 1831 4219 
Q 1534 4219 1204 4116 
Q 875 4013 500 3803 
L 500 4441 
Q 881 4594 1212 4672 
Q 1544 4750 1819 4750 
Q 2544 4750 2975 4387 
Q 3406 4025 3406 3419 
Q 3406 3131 3298 2873 
Q 3191 2616 2906 2266 
Q 2828 2175 2409 1742 
Q 1991 1309 1228 531 
z
" id="DejaVuSans-32" transform="scale(0.015625)"/>
       </defs>
       <use xlink:href="#DejaVuSans-32"/>
       <use x="63.623047" xlink:href="#DejaVuSans-30"/>
       <use x="127.246094" xlink:href="#DejaVuSans-30"/>
      </g>
     </g>
    </g>
    <g id="xtick_4">
     <g id="line2d_4">
      <g>
       <use style="stroke:#000000;stroke-width:0.8;" x="420.33722" xlink:href="#m6303c85487" y="504"/>
      </g>
     </g>
     <g id="text_4">
      <!-- 300 -->
      <g transform="translate(410.79347 518.598438)scale(0.1 -0.1)">
       <defs>
        <path d="M 2597 2516 
Q 3050 2419 3304 2112 
Q 3559 1806 3559 1356 
Q 3559 666 3084 287 
Q 2609 -91 1734 -91 
Q 1441 -91 1130 -33 
Q 819 25 488 141 
L 488 750 
Q 750 597 1062 519 
Q 1375 441 1716 441 
Q 2309 441 2620 675 
Q 2931 909 2931 1356 
Q 2931 1769 2642 2001 
Q 2353 2234 1838 2234 
L 1294 2234 
L 1294 2753 
L 1863 2753 
Q 2328 2753 2575 2939 
Q 2822 3125 2822 3475 
Q 2822 3834 2567 4026 
Q 2313 4219 1838 4219 
Q 1578 4219 1281 4162 
Q 984 4106 628 3988 
L 628 4550 
Q 988 4650 1302 4700 
Q 1616 4750 1894 4750 
Q 2613 4750 3031 4423 
Q 3450 4097 3450 3541 
Q 3450 3153 3228 2886 
Q 3006 2619 2597 2516 
z
" id="DejaVuSans-33" transform="scale(0.015625)"/>
       </defs>
       <use xlink:href="#DejaVuSans-33"/>
       <use x="63.623047" xlink:href="#DejaVuSans-30"/>
       <use x="127.246094" xlink:href="#DejaVuSans-30"/>
      </g>
     </g>
    </g>
    <g id="xtick_5">
     <g id="line2d_5">
      <g>
       <use style="stroke:#000000;stroke-width:0.8;" x="521.995081" xlink:href="#m6303c85487" y="504"/>
      </g>
     </g>
     <g id="text_5">
      <!-- 400 -->
      <g transform="translate(512.451331 518.598438)scale(0.1 -0.1)">
       <defs>
        <path d="M 2419 4116 
L 825 1625 
L 2419 1625 
L 2419 4116 
z
M 2253 4666 
L 3047 4666 
L 3047 1625 
L 3713 1625 
L 3713 1100 
L 3047 1100 
L 3047 0 
L 2419 0 
L 2419 1100 
L 313 1100 
L 313 1709 
L 2253 4666 
z
" id="DejaVuSans-34" transform="scale(0.015625)"/>
       </defs>
       <use xlink:href="#DejaVuSans-34"/>
       <use x="63.623047" xlink:href="#DejaVuSans-30"/>
       <use x="127.246094" xlink:href="#DejaVuSans-30"/>
      </g>
     </g>
    </g>
    <g id="xtick_6">
     <g id="line2d_6">
      <g>
       <use style="stroke:#000000;stroke-width:0.8;" x="623.652942" xlink:href="#m6303c85487" y="504"/>
      </g>
     </g>
     <g id="text_6">
      <!-- 500 -->
      <g transform="translate(614.109192 518.598438)scale(0.1 -0.1)">
       <defs>
        <path d="M 691 4666 
L 3169 4666 
L 3169 4134 
L 1269 4134 
L 1269 2991 
Q 1406 3038 1543 3061 
Q 1681 3084 1819 3084 
Q 2600 3084 3056 2656 
Q 3513 2228 3513 1497 
Q 3513 744 3044 326 
Q 2575 -91 1722 -91 
Q 1428 -91 1123 -41 
Q 819 9 494 109 
L 494 744 
Q 775 591 1075 516 
Q 1375 441 1709 441 
Q 2250 441 2565 725 
Q 2881 1009 2881 1497 
Q 2881 1984 2565 2268 
Q 2250 2553 1709 2553 
Q 1456 2553 1204 2497 
Q 953 2441 691 2322 
L 691 4666 
z
" id="DejaVuSans-35" transform="scale(0.015625)"/>
       </defs>
       <use xlink:href="#DejaVuSans-35"/>
       <use x="63.623047" xlink:href="#DejaVuSans-30"/>
       <use x="127.246094" xlink:href="#DejaVuSans-30"/>
      </g>
     </g>
    </g>
   </g>
   <g id="matplotlib.axis_2">
    <g id="ytick_1">
     <g id="line2d_7">
      <defs>
       <path d="M 0 0 
L -3.5 0 
" id="m9093f0bc1a" style="stroke:#000000;stroke-width:0.8;"/>
      </defs>
      <g>
       <use style="stroke:#000000;stroke-width:0.8;" x="90" xlink:href="#m9093f0bc1a" y="484.232727"/>
      </g>
     </g>
     <g id="text_7">
      <!-- −1.00 -->
      <g transform="translate(52.354687 488.031946)scale(0.1 -0.1)">
       <defs>
        <path d="M 678 2272 
L 4684 2272 
L 4684 1741 
L 678 1741 
L 678 2272 
z
" id="DejaVuSans-2212" transform="scale(0.015625)"/>
        <path d="M 684 794 
L 1344 794 
L 1344 0 
L 684 0 
L 684 794 
z
" id="DejaVuSans-2e" transform="scale(0.015625)"/>
       </defs>
       <use xlink:href="#DejaVuSans-2212"/>
       <use x="83.789062" xlink:href="#DejaVuSans-31"/>
       <use x="147.412109" xlink:href="#DejaVuSans-2e"/>
       <use x="179.199219" xlink:href="#DejaVuSans-30"/>
       <use x="242.822266" xlink:href="#DejaVuSans-30"/>
      </g>
     </g>
    </g>
    <g id="ytick_2">
     <g id="line2d_8">
      <g>
       <use style="stroke:#000000;stroke-width:0.8;" x="90" xlink:href="#m9093f0bc1a" y="434.814545"/>
      </g>
     </g>
     <g id="text_8">
      <!-- −0.75 -->
      <g transform="translate(52.354687 438.613764)scale(0.1 -0.1)">
       <defs>
        <path d="M 525 4666 
L 3525 4666 
L 3525 4397 
L 1831 0 
L 1172 0 
L 2766 4134 
L 525 4134 
L 525 4666 
z
" id="DejaVuSans-37" transform="scale(0.015625)"/>
       </defs>
       <use xlink:href="#DejaVuSans-2212"/>
       <use x="83.789062" xlink:href="#DejaVuSans-30"/>
       <use x="147.412109" xlink:href="#DejaVuSans-2e"/>
       <use x="179.199219" xlink:href="#DejaVuSans-37"/>
       <use x="242.822266" xlink:href="#DejaVuSans-35"/>
      </g>
     </g>
    </g>
    <g id="ytick_3">
     <g id="line2d_9">
      <g>
       <use style="stroke:#000000;stroke-width:0.8;" x="90" xlink:href="#m9093f0bc1a" y="385.396364"/>
      </g>
     </g>
     <g id="text_9">
      <!-- −0.50 -->
      <g transform="translate(52.354687 389.195582)scale(0.1 -0.1)">
       <use xlink:href="#DejaVuSans-2212"/>
       <use x="83.789062" xlink:href="#DejaVuSans-30"/>
       <use x="147.412109" xlink:href="#DejaVuSans-2e"/>
       <use x="179.199219" xlink:href="#DejaVuSans-35"/>
       <use x="242.822266" xlink:href="#DejaVuSans-30"/>
      </g>
     </g>
    </g>
    <g id="ytick_4">
     <g id="line2d_10">
      <g>
       <use style="stroke:#000000;stroke-width:0.8;" x="90" xlink:href="#m9093f0bc1a" y="335.978182"/>
      </g>
     </g>
     <g id="text_10">
      <!-- −0.25 -->
      <g transform="translate(52.354687 339.777401)scale(0.1 -0.1)">
       <use xlink:href="#DejaVuSans-2212"/>
       <use x="83.789062" xlink:href="#DejaVuSans-30"/>
       <use x="147.412109" xlink:href="#DejaVuSans-2e"/>
       <use x="179.199219" xlink:href="#DejaVuSans-32"/>
       <use x="242.822266" xlink:href="#DejaVuSans-35"/>
      </g>
     </g>
    </g>
    <g id="ytick_5">
     <g id="line2d_11">
      <g>
       <use style="stroke:#000000;stroke-width:0.8;" x="90" xlink:href="#m9093f0bc1a" y="286.56"/>
      </g>
     </g>
     <g id="text_11">
      <!-- 0.00 -->
      <g transform="translate(60.734375 290.359219)scale(0.1 -0.1)">
       <use xlink:href="#DejaVuSans-30"/>
       <use x="63.623047" xlink:href="#DejaVuSans-2e"/>
       <use x="95.410156" xlink:href="#DejaVuSans-30"/>
       <use x="159.033203" xlink:href="#DejaVuSans-30"/>
      </g>
     </g>
    </g>
    <g id="ytick_6">
     <g id="line2d_12">
      <g>
       <use style="stroke:#000000;stroke-width:0.8;" x="90" xlink:href="#m9093f0bc1a" y="237.141818"/>
      </g>
     </g>
     <g id="text_12">
      <!-- 0.25 -->
      <g transform="translate(60.734375 240.941037)scale(0.1 -0.1)">
       <use xlink:href="#DejaVuSans-30"/>
       <use x="63.623047" xlink:href="#DejaVuSans-2e"/>
       <use x="95.410156" xlink:href="#DejaVuSans-32"/>
       <use x="159.033203" xlink:href="#DejaVuSans-35"/>
      </g>
     </g>
    </g>
    <g id="ytick_7">
     <g id="line2d_13">
      <g>
       <use style="stroke:#000000;stroke-width:0.8;" x="90" xlink:href="#m9093f0bc1a" y="187.723636"/>
      </g>
     </g>
     <g id="text_13">
      <!-- 0.50 -->
      <g transform="translate(60.734375 191.522855)scale(0.1 -0.1)">
       <use xlink:href="#DejaVuSans-30"/>
       <use x="63.623047" xlink:href="#DejaVuSans-2e"/>
       <use x="95.410156" xlink:href="#DejaVuSans-35"/>
       <use x="159.033203" xlink:href="#DejaVuSans-30"/>
      </g>
     </g>
    </g>
    <g id="ytick_8">
     <g id="line2d_14">
      <g>
       <use style="stroke:#000000;stroke-width:0.8;" x="90" xlink:href="#m9093f0bc1a" y="138.305455"/>
      </g>
     </g>
     <g id="text_14">
      <!-- 0.75 -->
      <g transform="translate(60.734375 142.104673)scale(0.1 -0.1)">
       <use xlink:href="#DejaVuSans-30"/>
       <use x="63.623047" xlink:href="#DejaVuSans-2e"/>
       <use x="95.410156" xlink:href="#DejaVuSans-37"/>
       <use x="159.033203" xlink:href="#DejaVuSans-35"/>
      </g>
     </g>
    </g>
    <g id="ytick_9">
     <g id="line2d_15">
      <g>
       <use style="stroke:#000000;stroke-width:0.8;" x="90" xlink:href="#m9093f0bc1a" y="88.887273"/>
      </g>
     </g>
     <g id="text_15">
      <!-- 1.00 -->
      <g transform="translate(60.734375 92.686491)scale(0.1 -0.1)">
       <use xlink:href="#DejaVuSans-31"/>
       <use x="63.623047" xlink:href="#DejaVuSans-2e"/>
       <use x="95.410156" xlink:href="#DejaVuSans-30"/>
       <use x="159.033203" xlink:href="#DejaVuSans-30"/>
      </g>
     </g>
    </g>
   </g>
   <g id="line2d_16">
    <path clip-path="url(#pef39e676df)" d="M 115.363636 476.52068 
L 116.380215 92.288574 
L 118.413372 470.10675 
L 119.429951 88.891762 
L 120.446529 484.231796 
L 121.463108 88.889676 
L 122.479687 449.98061 
L 123.496265 121.023058 
L 124.512844 483.765645 
L 125.529422 91.233005 
L 126.546001 484.232727 
L 127.56258 88.887273 
L 128.579158 484.232727 
L 129.595737 88.900905 
L 130.612316 484.232727 
L 131.628894 88.887273 
L 132.645473 484.217976 
L 133.662051 88.892245 
L 134.67863 484.232727 
L 135.695209 88.887273 
L 136.711787 484.232433 
L 137.728366 484.232727 
L 138.744944 88.901447 
L 139.761523 89.164579 
L 140.778102 481.760077 
L 141.79468 367.323074 
L 142.811259 484.219425 
L 143.827837 90.149478 
L 144.844416 484.232727 
L 145.860995 88.887308 
L 146.877573 484.232727 
L 147.894152 88.887273 
L 148.910731 484.232727 
L 149.927309 194.654735 
L 150.943888 88.887273 
L 151.960466 484.232727 
L 152.977045 330.570992 
L 153.993624 484.232727 
L 155.010202 88.887273 
L 156.026781 88.887273 
L 157.043359 89.070109 
L 158.059938 484.232727 
L 159.076517 88.887273 
L 160.093095 88.887273 
L 161.109674 484.232727 
L 162.126253 88.887273 
L 163.142831 484.232727 
L 164.15941 88.887273 
L 165.175988 484.232727 
L 166.192567 88.887273 
L 167.209146 484.232727 
L 168.225724 88.887273 
L 169.242303 484.232727 
L 170.258881 88.887273 
L 171.27546 484.232727 
L 172.292039 484.232727 
L 173.308617 88.89479 
L 175.341774 88.887273 
L 176.358353 484.232727 
L 177.374932 484.232727 
L 178.39151 484.118605 
L 179.408089 484.232727 
L 180.424668 484.232727 
L 181.441246 88.887273 
L 182.457825 484.232727 
L 183.474403 484.232727 
L 184.490982 173.142594 
L 185.507561 484.23268 
L 186.524139 88.887285 
L 187.540718 484.232727 
L 188.557296 88.887273 
L 189.573875 484.232727 
L 190.590454 88.887273 
L 191.607032 484.232727 
L 193.640189 484.232727 
L 194.656768 88.887285 
L 195.673347 484.232727 
L 196.689925 88.887273 
L 198.723083 88.887874 
L 199.739661 484.232727 
L 200.75624 484.232727 
L 201.772818 88.887273 
L 202.789397 484.230477 
L 203.805976 484.232727 
L 204.822554 436.990638 
L 205.839133 484.232727 
L 206.855711 88.887273 
L 207.87229 484.232727 
L 208.888869 88.887273 
L 209.905447 484.232727 
L 210.922026 88.887273 
L 211.938604 484.232727 
L 212.955183 484.232727 
L 213.971762 89.239467 
L 214.98834 88.887273 
L 216.004919 88.887273 
L 217.021498 484.232727 
L 221.087812 484.232727 
L 222.104391 88.887273 
L 223.120969 484.232727 
L 224.137548 484.232727 
L 225.154126 428.458218 
L 226.170705 180.926714 
L 227.187284 88.887285 
L 228.203862 88.887273 
L 229.220441 484.232727 
L 230.237019 88.887273 
L 231.253598 94.442256 
L 232.270177 88.887273 
L 233.286755 88.887273 
L 234.303334 484.232727 
L 235.319913 484.232727 
L 236.336491 143.418746 
L 237.35307 88.887273 
L 238.369648 484.232727 
L 241.419384 484.232727 
L 242.435963 88.887273 
L 243.452541 484.232727 
L 244.46912 484.231867 
L 245.485699 469.520349 
L 246.502277 480.940259 
L 247.518856 478.891273 
L 248.535435 96.183349 
L 249.552013 484.232727 
L 250.568592 88.887273 
L 251.58517 88.887273 
L 252.601749 484.232727 
L 253.618328 484.232727 
L 254.634906 91.383393 
L 255.651485 88.887273 
L 256.668063 484.232727 
L 257.684642 484.232727 
L 258.701221 469.250065 
L 259.717799 447.479529 
L 260.734378 484.232715 
L 261.750956 484.232727 
L 262.767535 88.887273 
L 263.784114 484.232727 
L 264.800692 484.232715 
L 265.817271 232.793051 
L 266.83385 473.772985 
L 267.850428 484.227166 
L 268.867007 89.197487 
L 269.883585 484.232727 
L 270.900164 88.887273 
L 271.916743 88.887273 
L 272.933321 484.232727 
L 273.9499 484.232727 
L 274.966478 89.130587 
L 275.983057 88.887273 
L 276.999636 484.232727 
L 278.016214 484.232727 
L 279.032793 111.718892 
L 280.049371 88.887273 
L 282.082529 88.887273 
L 283.099107 484.232727 
L 284.115686 88.887273 
L 286.148843 88.887273 
L 287.165422 484.232727 
L 288.182 88.896522 
L 289.198579 88.887273 
L 290.215158 484.232727 
L 291.231736 88.887273 
L 292.248315 88.887273 
L 293.264893 484.232727 
L 294.281472 484.232727 
L 295.298051 90.008975 
L 296.314629 88.887273 
L 297.331208 484.232727 
L 298.347786 484.232727 
L 299.364365 480.564206 
L 300.380944 484.228215 
L 302.414101 484.232727 
L 303.43068 88.887273 
L 304.447258 484.232727 
L 305.463837 484.226836 
L 306.480415 409.05672 
L 307.496994 152.147822 
L 308.513573 88.887273 
L 309.530151 484.232727 
L 310.54673 88.887273 
L 311.563308 88.887273 
L 312.579887 484.232727 
L 313.596466 484.232727 
L 314.613044 88.887662 
L 315.629623 88.887273 
L 316.646201 484.232727 
L 317.66278 484.232727 
L 318.679359 90.851368 
L 319.695937 88.887273 
L 320.712516 156.592073 
L 321.729095 211.31671 
L 322.745673 484.232727 
L 323.762252 88.887273 
L 324.77883 105.984371 
L 325.795409 484.232727 
L 326.811988 484.232727 
L 327.828566 104.498139 
L 328.845145 484.232727 
L 329.861723 88.887273 
L 330.878302 484.232715 
L 331.894881 88.887273 
L 332.911459 484.232727 
L 333.928038 88.887273 
L 336.977774 88.887273 
L 337.994352 484.232727 
L 339.010931 484.232727 
L 340.02751 483.559421 
L 341.044088 484.225776 
L 343.077245 484.232727 
L 344.093824 88.887273 
L 345.110403 484.232727 
L 346.126981 484.209234 
L 347.14356 426.147833 
L 348.160138 484.232727 
L 349.176717 88.887273 
L 350.193296 484.232727 
L 351.209874 88.887273 
L 352.226453 484.232727 
L 353.243032 88.887273 
L 354.25961 484.232727 
L 355.276189 484.232727 
L 356.292767 90.012297 
L 357.309346 88.887273 
L 358.325925 484.232727 
L 359.342503 484.232727 
L 360.359082 101.640363 
L 361.37566 88.887273 
L 363.408818 88.887273 
L 364.425396 484.232727 
L 365.441975 88.887273 
L 366.458553 484.232727 
L 367.475132 202.182827 
L 368.491711 88.887332 
L 369.508289 484.232727 
L 370.524868 88.887285 
L 371.541447 484.232727 
L 372.558025 88.887273 
L 373.574604 484.232727 
L 374.591182 88.887273 
L 375.607761 88.887273 
L 376.62434 484.232727 
L 377.640918 484.232727 
L 378.657497 104.321806 
L 379.674075 88.887273 
L 380.690654 484.232727 
L 383.74039 484.232727 
L 384.756968 88.887273 
L 385.773547 88.887273 
L 386.790126 484.232727 
L 387.806704 88.887273 
L 388.823283 484.232727 
L 389.839862 484.21265 
L 390.85644 88.90299 
L 391.873019 484.232727 
L 392.889597 88.887273 
L 393.906176 484.232727 
L 394.922755 484.232727 
L 395.939333 88.887308 
L 396.955912 88.887273 
L 397.97249 484.232727 
L 398.989069 484.232727 
L 400.005648 91.467236 
L 401.022226 88.887273 
L 402.038805 118.027371 
L 403.055383 484.232727 
L 404.071962 484.232727 
L 405.088541 88.887273 
L 406.105119 484.232727 
L 407.121698 484.232727 
L 408.138277 455.778601 
L 409.154855 483.002865 
L 410.171434 109.341347 
L 411.188012 484.232727 
L 412.204591 88.887273 
L 413.22117 484.232727 
L 414.237748 88.887273 
L 415.254327 484.232727 
L 416.270905 484.232727 
L 417.287484 89.130634 
L 418.304063 449.003122 
L 419.320641 484.232727 
L 420.33722 484.232715 
L 421.353799 216.907458 
L 422.370377 388.478814 
L 423.386956 484.232727 
L 424.403534 484.232727 
L 425.420113 88.887273 
L 426.436692 484.222972 
L 427.45327 88.887273 
L 428.469849 484.232727 
L 429.486427 88.887273 
L 430.503006 484.232727 
L 431.519585 88.887273 
L 432.536163 484.232727 
L 433.552742 88.887273 
L 434.56932 88.887273 
L 435.585899 484.232727 
L 436.602478 484.232727 
L 437.619056 88.906878 
L 439.652214 88.887273 
L 440.668792 477.447846 
L 441.685371 484.232727 
L 442.701949 481.38043 
L 443.718528 484.232727 
L 444.735107 484.232727 
L 445.751685 88.887273 
L 446.768264 484.232727 
L 447.784842 484.232727 
L 448.801421 449.243491 
L 449.818 481.585111 
L 450.834578 91.657188 
L 451.851157 484.232727 
L 452.867735 88.887273 
L 453.884314 484.232727 
L 454.900893 88.887273 
L 455.917471 484.232727 
L 456.93405 484.232727 
L 457.950629 88.895461 
L 458.967207 484.232727 
L 459.983786 88.887273 
L 461.000364 484.232727 
L 462.016943 88.887273 
L 463.033522 484.232727 
L 464.0501 106.825597 
L 465.066679 484.232727 
L 466.083257 88.887273 
L 467.099836 484.232727 
L 468.116415 88.887273 
L 469.132993 484.232727 
L 470.149572 88.887273 
L 471.16615 484.232727 
L 472.182729 484.232727 
L 473.199308 88.887273 
L 474.215886 484.232727 
L 475.232465 88.887273 
L 476.249044 484.232727 
L 477.265622 484.232727 
L 478.282201 88.90973 
L 480.315358 88.889841 
L 481.331937 479.47071 
L 482.348515 484.232727 
L 483.365094 483.319252 
L 484.381672 484.232727 
L 485.398251 484.232727 
L 486.41483 88.887273 
L 487.431408 479.576491 
L 488.447987 89.122104 
L 489.464565 448.371077 
L 490.481144 88.887273 
L 491.497723 484.232727 
L 492.514301 88.887273 
L 493.53088 484.232727 
L 494.547459 88.887273 
L 495.564037 482.865142 
L 496.580616 99.969681 
L 497.597194 484.232727 
L 498.613773 88.887273 
L 499.630352 88.887296 
L 500.64693 484.232727 
L 501.663509 88.887273 
L 502.680087 88.887273 
L 503.696666 365.418744 
L 504.713245 484.232727 
L 505.729823 88.887273 
L 506.746402 88.963775 
L 507.762981 484.232727 
L 508.779559 193.42142 
L 509.796138 484.232727 
L 510.812716 484.232727 
L 511.829295 88.887273 
L 512.845874 484.232727 
L 513.862452 88.887273 
L 514.879031 484.232727 
L 515.895609 88.887355 
L 516.912188 484.232727 
L 517.928767 88.887779 
L 518.945345 484.232727 
L 519.961924 88.887273 
L 520.978502 484.232727 
L 521.995081 484.232727 
L 523.01166 88.887603 
L 524.028238 88.887273 
L 525.044817 346.501524 
L 526.061396 484.232727 
L 527.077974 88.887367 
L 528.094553 88.887285 
L 529.111131 484.232727 
L 530.12771 88.887273 
L 531.144289 484.232727 
L 532.160867 88.887273 
L 533.177446 484.232727 
L 534.194024 88.921194 
L 535.210603 484.232727 
L 536.227182 88.887273 
L 537.24376 478.726899 
L 538.260339 188.901139 
L 539.276917 484.232727 
L 540.293496 88.887273 
L 541.310075 484.232727 
L 542.326653 88.887273 
L 543.343232 88.887273 
L 544.359811 123.319352 
L 545.376389 484.232727 
L 546.392968 88.887273 
L 547.409546 484.232727 
L 548.426125 88.887273 
L 550.459282 88.887273 
L 551.475861 484.232727 
L 552.492439 88.887273 
L 553.509018 484.232727 
L 554.525597 484.232715 
L 555.542175 482.632573 
L 556.558754 478.346605 
L 558.591911 445.608949 
L 559.60849 110.811119 
L 560.625068 484.232727 
L 561.641647 88.887273 
L 562.658226 484.232727 
L 563.674804 484.232727 
L 564.691383 98.168475 
L 565.707961 88.887285 
L 566.72454 89.119052 
L 568.757697 88.887273 
L 569.774276 484.232727 
L 570.790854 88.887285 
L 571.807433 88.887296 
L 572.824012 92.982876 
L 573.84059 89.810763 
L 574.857169 88.887367 
L 575.873747 484.232727 
L 576.890326 88.887273 
L 577.906905 484.232727 
L 578.923483 88.887273 
L 579.940062 484.232727 
L 580.956641 88.887273 
L 581.973219 484.232715 
L 582.989798 88.891008 
L 584.006376 484.232727 
L 585.022955 88.887273 
L 586.039534 484.232727 
L 587.056112 88.887367 
L 588.072691 484.232727 
L 589.089269 88.887273 
L 591.122427 88.961772 
L 592.139005 126.634301 
L 593.155584 484.232503 
L 594.172163 484.232727 
L 595.188741 482.925856 
L 596.20532 484.09365 
L 597.221898 484.232727 
L 598.238477 484.232727 
L 599.255056 88.887273 
L 600.271634 484.232727 
L 601.288213 88.887273 
L 602.304791 484.232727 
L 603.32137 88.887273 
L 604.337949 484.232727 
L 605.354527 88.887296 
L 606.371106 484.232715 
L 607.387684 88.887273 
L 608.404263 88.887273 
L 609.420842 89.065608 
L 610.43742 88.899208 
L 612.470578 88.891255 
L 613.487156 484.232727 
L 614.503735 484.157227 
L 616.536892 88.924434 
L 617.553471 89.109839 
L 618.570049 484.232727 
L 619.586628 484.232727 
L 620.603206 483.747489 
L 621.619785 482.088329 
L 622.636364 484.159878 
L 622.636364 484.159878 
" style="fill:none;stroke:#1f77b4;stroke-linecap:square;stroke-width:1.5;"/>
   </g>
   <g id="line2d_17">
    <path clip-path="url(#pef39e676df)" d="M 115.363636 483.182696 
L 116.380215 477.248161 
L 117.396794 484.232551 
L 118.413372 468.466713 
L 119.429951 426.806058 
L 120.446529 484.232715 
L 121.463108 311.121265 
L 122.479687 481.915673 
L 123.496265 430.368963 
L 124.512844 484.165121 
L 125.529422 436.088933 
L 126.546001 484.232727 
L 127.56258 88.936511 
L 128.579158 484.232727 
L 129.595737 484.106163 
L 130.612316 484.232727 
L 131.628894 126.314532 
L 132.645473 484.230701 
L 133.662051 484.144361 
L 134.67863 484.232727 
L 135.695209 97.302388 
L 136.711787 484.232727 
L 137.728366 484.232727 
L 138.744944 101.507919 
L 139.761523 97.811168 
L 140.778102 482.274488 
L 141.79468 484.085037 
L 142.811259 484.209634 
L 143.827837 312.23538 
L 144.844416 484.232727 
L 145.860995 446.148904 
L 146.877573 484.232727 
L 147.894152 88.887296 
L 148.910731 484.232727 
L 149.927309 484.226318 
L 150.943888 88.887273 
L 151.960466 484.232727 
L 153.993624 484.232727 
L 155.010202 89.499476 
L 156.026781 88.890348 
L 157.043359 89.872313 
L 158.059938 484.232727 
L 159.076517 484.231243 
L 160.093095 88.887296 
L 161.109674 484.232727 
L 162.126253 484.115376 
L 163.142831 484.232727 
L 164.15941 88.887744 
L 165.175988 484.232727 
L 166.192567 88.89208 
L 167.209146 484.232727 
L 168.225724 88.887273 
L 169.242303 484.232727 
L 170.258881 88.887273 
L 171.27546 484.232727 
L 172.292039 484.232727 
L 173.308617 123.457675 
L 174.325196 484.232727 
L 175.341774 88.913806 
L 176.358353 484.232727 
L 180.424668 484.232727 
L 181.441246 88.887273 
L 182.457825 484.232727 
L 183.474403 484.232727 
L 184.490982 474.147943 
L 185.507561 484.232727 
L 186.524139 187.83195 
L 187.540718 484.232727 
L 188.557296 88.894931 
L 189.573875 484.232727 
L 193.640189 484.232727 
L 194.656768 480.954598 
L 195.673347 484.232727 
L 196.689925 88.887273 
L 197.706504 88.887485 
L 198.723083 93.817775 
L 199.739661 484.232727 
L 200.75624 484.232727 
L 201.772818 88.887273 
L 202.789397 484.232727 
L 203.805976 484.232727 
L 204.822554 484.088124 
L 205.839133 484.232727 
L 207.87229 484.232727 
L 208.888869 88.887273 
L 209.905447 484.232727 
L 210.922026 88.887273 
L 211.938604 484.232727 
L 212.955183 484.232727 
L 213.971762 405.161202 
L 214.98834 484.232715 
L 216.004919 193.899796 
L 217.021498 484.232727 
L 221.087812 484.232727 
L 222.104391 88.887273 
L 223.120969 484.232727 
L 224.137548 484.232727 
L 225.154126 482.420399 
L 226.170705 481.475807 
L 227.187284 267.232588 
L 228.203862 189.497466 
L 229.220441 484.232727 
L 230.237019 484.172273 
L 232.270177 484.232692 
L 233.286755 88.887285 
L 234.303334 484.232727 
L 235.319913 484.232727 
L 236.336491 300.10144 
L 237.35307 88.888875 
L 238.369648 484.232727 
L 241.419384 484.232727 
L 242.435963 88.887273 
L 243.452541 484.232727 
L 244.46912 484.232727 
L 245.485699 483.73778 
L 246.502277 483.553919 
L 247.518856 480.805647 
L 248.535435 185.028078 
L 249.552013 484.232727 
L 250.568592 484.232727 
L 251.58517 88.888133 
L 252.601749 484.232727 
L 253.618328 484.232727 
L 254.634906 471.931072 
L 255.651485 88.895014 
L 256.668063 484.232727 
L 257.684642 484.232727 
L 258.701221 482.820488 
L 259.717799 483.846424 
L 260.734378 484.232727 
L 261.750956 484.232727 
L 262.767535 88.887273 
L 263.784114 484.232727 
L 264.800692 484.232727 
L 265.817271 477.018219 
L 266.83385 484.155424 
L 267.850428 482.24561 
L 268.867007 107.145543 
L 269.883585 484.232727 
L 270.900164 484.232727 
L 271.916743 88.887273 
L 272.933321 484.232727 
L 273.9499 484.232727 
L 274.966478 481.24609 
L 275.983057 88.937053 
L 276.999636 484.232727 
L 278.016214 484.232727 
L 279.032793 208.694461 
L 280.049371 88.888168 
L 282.082529 88.887273 
L 283.099107 484.232727 
L 284.115686 90.447238 
L 285.132265 484.218176 
L 286.148843 143.967515 
L 287.165422 484.232727 
L 288.182 376.153347 
L 289.198579 295.896947 
L 290.215158 484.232727 
L 291.231736 484.232715 
L 292.248315 88.915821 
L 293.264893 484.232727 
L 294.281472 484.232727 
L 295.298051 477.707102 
L 296.314629 88.899573 
L 297.331208 484.232727 
L 298.347786 484.232727 
L 299.364365 483.722546 
L 300.380944 484.23202 
L 302.414101 484.232727 
L 303.43068 88.887273 
L 304.447258 484.232727 
L 305.463837 484.232727 
L 306.480415 481.728984 
L 307.496994 470.263406 
L 308.513573 91.01633 
L 309.530151 484.232727 
L 310.54673 484.232727 
L 311.563308 92.606682 
L 312.579887 484.232727 
L 314.613044 484.232704 
L 315.629623 88.890843 
L 316.646201 484.232727 
L 317.66278 484.232727 
L 318.679359 105.134591 
L 319.695937 89.164214 
L 320.712516 470.08996 
L 321.729095 484.232727 
L 322.745673 484.232727 
L 323.762252 88.887273 
L 324.77883 484.232727 
L 326.811988 484.232727 
L 327.828566 166.610229 
L 328.845145 484.232727 
L 330.878302 484.232727 
L 331.894881 482.550216 
L 332.911459 484.232727 
L 334.944617 484.232727 
L 335.961195 361.610739 
L 336.977774 109.759792 
L 337.994352 484.232727 
L 339.010931 484.232727 
L 340.02751 484.054757 
L 341.044088 484.229322 
L 343.077245 484.232727 
L 344.093824 88.887273 
L 345.110403 484.232727 
L 346.126981 484.232727 
L 347.14356 477.438609 
L 348.160138 484.232727 
L 349.176717 207.261125 
L 350.193296 484.232727 
L 351.209874 88.887273 
L 352.226453 484.232727 
L 355.276189 484.232727 
L 356.292767 479.211513 
L 357.309346 88.986715 
L 358.325925 484.232727 
L 359.342503 484.232727 
L 360.359082 164.831858 
L 361.37566 88.88785 
L 362.392239 88.993501 
L 363.408818 88.887273 
L 364.425396 484.232727 
L 365.441975 97.127764 
L 366.458553 484.232727 
L 367.475132 481.341525 
L 368.491711 435.425736 
L 369.508289 484.232727 
L 370.524868 483.77414 
L 371.541447 484.232727 
L 372.558025 482.645286 
L 373.574604 484.232727 
L 374.591182 484.232727 
L 375.607761 88.887296 
L 376.62434 484.232727 
L 377.640918 484.232727 
L 378.657497 218.346556 
L 379.674075 88.88772 
L 380.690654 484.232727 
L 383.74039 484.232727 
L 384.756968 88.887273 
L 385.773547 484.232727 
L 386.790126 484.232727 
L 387.806704 88.887273 
L 388.823283 484.232727 
L 389.839862 484.232727 
L 390.85644 102.322954 
L 391.873019 484.232727 
L 392.889597 88.907244 
L 393.906176 484.232727 
L 395.939333 484.232727 
L 396.955912 88.890112 
L 397.97249 484.232727 
L 398.989069 484.232727 
L 400.005648 109.015946 
L 401.022226 89.063971 
L 402.038805 470.344962 
L 403.055383 484.232727 
L 404.071962 484.232727 
L 405.088541 88.887273 
L 406.105119 484.232727 
L 407.121698 484.232727 
L 408.138277 483.747712 
L 409.154855 484.152137 
L 410.171434 224.453972 
L 411.188012 484.232727 
L 412.204591 88.991404 
L 413.22117 484.232727 
L 416.270905 484.232727 
L 417.287484 412.585151 
L 418.304063 484.232727 
L 420.33722 484.232727 
L 421.353799 483.437086 
L 422.370377 483.257172 
L 423.386956 484.232727 
L 424.403534 484.232727 
L 425.420113 88.887273 
L 426.436692 484.232727 
L 427.45327 89.813708 
L 428.469849 484.232727 
L 430.503006 484.232727 
L 431.519585 92.940707 
L 432.536163 484.232727 
L 433.552742 89.431894 
L 434.56932 88.89175 
L 435.585899 484.232727 
L 436.602478 484.232727 
L 437.619056 444.816065 
L 438.635635 484.232727 
L 439.652214 472.083616 
L 440.668792 484.076578 
L 441.685371 484.232727 
L 444.735107 484.232727 
L 445.751685 88.887273 
L 446.768264 484.232727 
L 447.784842 484.232727 
L 448.801421 483.759424 
L 449.818 484.096442 
L 450.834578 160.099532 
L 451.851157 484.232727 
L 452.867735 482.237798 
L 453.884314 484.232727 
L 456.93405 484.232727 
L 457.950629 98.042818 
L 458.967207 484.232727 
L 461.000364 484.232727 
L 462.016943 89.641511 
L 463.033522 484.232727 
L 465.066679 484.232727 
L 466.083257 88.887273 
L 467.099836 484.232727 
L 468.116415 88.887273 
L 469.132993 484.232727 
L 470.149572 88.887273 
L 471.16615 484.232727 
L 474.215886 484.232727 
L 475.232465 88.887273 
L 476.249044 484.232727 
L 477.265622 484.232727 
L 478.282201 452.209298 
L 479.298779 484.232727 
L 480.315358 473.94206 
L 481.331937 481.119926 
L 482.348515 484.232727 
L 485.398251 484.232727 
L 486.41483 88.887273 
L 487.431408 481.659327 
L 488.447987 484.227578 
L 489.464565 448.331642 
L 490.481144 424.325501 
L 491.497723 484.232727 
L 492.514301 89.134581 
L 493.53088 484.232727 
L 494.547459 89.720994 
L 495.564037 484.230194 
L 496.580616 474.763575 
L 497.597194 484.232727 
L 498.613773 88.887273 
L 499.630352 484.23043 
L 500.64693 484.232727 
L 501.663509 88.887273 
L 502.680087 88.887285 
L 503.696666 476.251056 
L 504.713245 484.232727 
L 505.729823 118.674391 
L 506.746402 89.42797 
L 507.762981 484.232727 
L 510.812716 484.232727 
L 512.845874 484.232727 
L 513.862452 95.359725 
L 514.879031 484.232727 
L 515.895609 102.770454 
L 516.912188 484.232727 
L 517.928767 215.77451 
L 518.945345 484.232727 
L 521.995081 484.232727 
L 523.01166 90.671383 
L 524.028238 88.924929 
L 525.044817 449.152391 
L 526.061396 484.232727 
L 527.077974 353.293363 
L 528.094553 484.230442 
L 529.111131 484.232727 
L 530.12771 96.270007 
L 531.144289 484.232727 
L 532.160867 97.459575 
L 533.177446 484.232727 
L 535.210603 484.232727 
L 536.227182 88.887273 
L 537.24376 484.232668 
L 539.276917 484.232727 
L 540.293496 88.887273 
L 541.310075 484.232727 
L 542.326653 102.95699 
L 543.343232 88.887273 
L 544.359811 165.055284 
L 545.376389 484.232727 
L 546.392968 88.98391 
L 547.409546 484.232727 
L 548.426125 89.301323 
L 549.442704 88.887273 
L 550.459282 484.232727 
L 554.525597 484.232727 
L 555.542175 484.031098 
L 556.558754 481.795789 
L 557.575332 471.220534 
L 558.591911 456.69435 
L 559.60849 398.131934 
L 560.625068 484.232727 
L 561.641647 88.887273 
L 562.658226 484.232727 
L 563.674804 484.232727 
L 564.691383 321.7031 
L 565.707961 88.941176 
L 566.72454 90.108959 
L 567.741119 94.642153 
L 568.757697 484.232727 
L 569.774276 484.232727 
L 570.790854 195.035483 
L 571.807433 88.889806 
L 572.824012 190.722451 
L 573.84059 97.790631 
L 574.857169 89.038933 
L 575.873747 484.232727 
L 576.890326 88.887273 
L 577.906905 484.232727 
L 578.923483 88.887332 
L 579.940062 484.232727 
L 581.973219 484.232727 
L 582.989798 96.849822 
L 584.006376 484.232727 
L 586.039534 484.232727 
L 587.056112 329.754187 
L 588.072691 484.232727 
L 589.089269 97.638617 
L 590.105848 89.369813 
L 591.122427 91.554071 
L 592.139005 398.881059 
L 593.155584 484.232727 
L 594.172163 484.232727 
L 595.188741 484.117191 
L 597.221898 484.232727 
L 598.238477 484.232727 
L 599.255056 88.887273 
L 600.271634 484.232727 
L 601.288213 112.569461 
L 602.304791 484.232727 
L 603.32137 89.287621 
L 604.337949 484.232727 
L 605.354527 162.1648 
L 606.371106 484.232727 
L 607.387684 88.887273 
L 608.404263 88.887308 
L 609.420842 484.162317 
L 610.43742 484.074433 
L 611.453999 88.887591 
L 612.470578 461.850435 
L 613.487156 484.232727 
L 614.503735 484.232715 
L 615.520313 317.043321 
L 616.536892 95.374052 
L 617.553471 366.776809 
L 618.570049 484.232727 
L 619.586628 484.232727 
L 621.619785 483.92593 
L 622.636364 484.227755 
L 622.636364 484.227755 
" style="fill:none;stroke:#ff7f0e;stroke-linecap:square;stroke-width:1.5;"/>
   </g>
   <g id="line2d_18">
    <path clip-path="url(#pef39e676df)" d="M 115.363636 482.956973 
L 116.380215 240.313946 
L 117.396794 484.231808 
L 118.413372 473.090854 
L 119.429951 273.388224 
L 120.446529 484.231137 
L 121.463108 155.16758 
L 122.479687 460.066726 
L 123.496265 216.537597 
L 124.512844 483.939185 
L 125.529422 313.061548 
L 126.546001 484.232727 
L 127.56258 88.887308 
L 128.579158 484.232727 
L 129.595737 483.313491 
L 130.612316 484.232727 
L 131.628894 89.47881 
L 132.645473 484.190241 
L 134.67863 484.232727 
L 135.695209 89.220792 
L 136.711787 484.231643 
L 137.728366 484.232727 
L 138.744944 100.26988 
L 139.761523 132.359985 
L 140.778102 480.365004 
L 141.79468 426.832968 
L 142.811259 484.224951 
L 143.827837 264.448834 
L 144.844416 484.232727 
L 145.860995 255.101363 
L 146.877573 484.232727 
L 147.894152 88.887273 
L 148.910731 484.232727 
L 149.927309 484.230618 
L 150.943888 88.887273 
L 151.960466 484.232727 
L 152.977045 483.683511 
L 153.993624 484.232727 
L 155.010202 88.887273 
L 156.026781 88.892999 
L 157.043359 484.213664 
L 158.059938 484.232727 
L 159.076517 88.887273 
L 160.093095 89.002244 
L 161.109674 484.232727 
L 162.126253 460.600849 
L 163.142831 484.232727 
L 164.15941 89.242707 
L 165.175988 484.232727 
L 166.192567 88.887273 
L 167.209146 484.232727 
L 168.225724 88.887273 
L 169.242303 484.232727 
L 170.258881 88.887273 
L 171.27546 484.232727 
L 172.292039 484.232727 
L 173.308617 88.908858 
L 174.325196 484.232727 
L 175.341774 88.887273 
L 176.358353 484.232727 
L 177.374932 484.232727 
L 178.39151 484.087735 
L 179.408089 484.232727 
L 180.424668 484.232727 
L 181.441246 88.887273 
L 182.457825 484.232727 
L 183.474403 484.232727 
L 184.490982 180.612659 
L 185.507561 484.232079 
L 186.524139 88.896475 
L 187.540718 484.232727 
L 188.557296 88.887273 
L 189.573875 484.232727 
L 193.640189 484.232727 
L 194.656768 280.061672 
L 195.673347 484.232727 
L 196.689925 88.887273 
L 197.706504 88.889028 
L 198.723083 483.161135 
L 199.739661 484.232727 
L 200.75624 484.232727 
L 201.772818 88.887273 
L 202.789397 484.232727 
L 203.805976 484.232727 
L 204.822554 479.804948 
L 205.839133 484.232727 
L 209.905447 484.232727 
L 210.922026 88.887273 
L 211.938604 484.232727 
L 212.955183 484.232727 
L 213.971762 91.915431 
L 214.98834 484.232727 
L 216.004919 88.895073 
L 217.021498 484.232727 
L 221.087812 484.232727 
L 222.104391 88.887273 
L 223.120969 484.232727 
L 224.137548 484.232727 
L 225.154126 439.722143 
L 226.170705 277.542173 
L 227.187284 329.224005 
L 228.203862 88.978455 
L 229.220441 484.232727 
L 230.237019 89.135701 
L 231.253598 484.232551 
L 232.270177 484.232727 
L 233.286755 88.887273 
L 234.303334 484.232727 
L 235.319913 484.232727 
L 236.336491 176.939943 
L 237.35307 88.887285 
L 238.369648 484.232727 
L 241.419384 484.232727 
L 242.435963 88.887273 
L 243.452541 484.232727 
L 244.46912 484.232727 
L 245.485699 468.930484 
L 246.502277 477.624555 
L 247.518856 474.681017 
L 248.535435 99.326714 
L 249.552013 484.232727 
L 250.568592 484.232727 
L 251.58517 88.887273 
L 252.601749 484.232727 
L 253.618328 484.232727 
L 254.634906 175.168263 
L 255.651485 88.887273 
L 256.668063 484.232727 
L 257.684642 484.232727 
L 258.701221 471.487814 
L 259.717799 457.283249 
L 260.734378 484.232315 
L 261.750956 484.232727 
L 262.767535 88.887273 
L 263.784114 484.232727 
L 264.800692 484.232727 
L 265.817271 257.818688 
L 266.83385 459.076089 
L 267.850428 484.232727 
L 268.867007 91.057474 
L 269.883585 484.23268 
L 270.900164 484.232727 
L 271.916743 88.887273 
L 272.933321 484.232727 
L 273.9499 484.232727 
L 274.966478 362.965746 
L 275.983057 88.887391 
L 276.999636 484.232727 
L 278.016214 484.232727 
L 279.032793 127.692626 
L 280.049371 88.887273 
L 281.06595 102.691513 
L 282.082529 88.887273 
L 283.099107 484.232727 
L 284.115686 484.117156 
L 285.132265 484.139648 
L 286.148843 116.750721 
L 287.165422 484.232727 
L 288.182 478.94368 
L 289.198579 97.156242 
L 290.215158 484.232727 
L 291.231736 484.097314 
L 292.248315 88.887567 
L 293.264893 484.232727 
L 294.281472 484.232727 
L 295.298051 220.833692 
L 296.314629 89.011363 
L 297.331208 484.232727 
L 298.347786 484.232727 
L 299.364365 480.564524 
L 300.380944 484.224138 
L 302.414101 484.232727 
L 303.43068 88.887273 
L 304.447258 484.232727 
L 305.463837 484.232727 
L 306.480415 418.312649 
L 307.496994 439.742692 
L 308.513573 88.887273 
L 309.530151 484.232727 
L 310.54673 484.232727 
L 311.563308 88.887273 
L 312.579887 484.232727 
L 314.613044 484.232727 
L 315.629623 88.887296 
L 316.646201 484.232727 
L 317.66278 484.232727 
L 318.679359 92.137408 
L 319.695937 89.401024 
L 320.712516 408.215199 
L 321.729095 483.819513 
L 322.745673 484.232727 
L 326.811988 484.232727 
L 327.828566 114.343309 
L 328.845145 484.232668 
L 329.861723 88.888074 
L 330.878302 484.232704 
L 331.894881 88.887426 
L 332.911459 484.232727 
L 333.928038 89.196556 
L 334.944617 484.232727 
L 335.961195 479.199708 
L 336.977774 145.765987 
L 337.994352 484.232727 
L 339.010931 484.232727 
L 340.02751 483.827655 
L 341.044088 484.22283 
L 343.077245 484.232727 
L 344.093824 88.887273 
L 345.110403 484.232727 
L 346.126981 484.232727 
L 347.14356 476.276717 
L 348.160138 484.232727 
L 349.176717 88.894507 
L 350.193296 484.232727 
L 351.209874 88.887556 
L 352.226453 484.232727 
L 355.276189 484.232727 
L 356.292767 272.645388 
L 357.309346 88.986114 
L 358.325925 484.232727 
L 359.342503 484.232727 
L 360.359082 104.262389 
L 361.37566 89.74027 
L 362.392239 89.416223 
L 363.408818 88.887273 
L 364.425396 484.232727 
L 365.441975 384.290797 
L 366.458553 484.232727 
L 367.475132 484.232727 
L 368.491711 126.468997 
L 369.508289 484.230347 
L 370.524868 88.995587 
L 371.541447 484.232645 
L 372.558025 88.88732 
L 373.574604 484.232727 
L 374.591182 483.28063 
L 375.607761 88.887273 
L 376.62434 484.232727 
L 377.640918 484.232727 
L 378.657497 113.448414 
L 379.674075 89.012765 
L 380.690654 484.232727 
L 383.74039 484.232727 
L 384.756968 88.887273 
L 385.773547 88.887273 
L 386.790126 484.232727 
L 387.806704 88.887273 
L 388.823283 484.232727 
L 389.839862 484.232715 
L 390.85644 105.305409 
L 391.873019 484.232727 
L 392.889597 181.990094 
L 393.906176 484.232727 
L 395.939333 484.232704 
L 396.955912 88.887273 
L 397.97249 484.232727 
L 398.989069 484.232727 
L 400.005648 92.857678 
L 401.022226 89.484419 
L 402.038805 420.912289 
L 403.055383 484.232727 
L 404.071962 484.232727 
L 405.088541 88.887273 
L 406.105119 484.232727 
L 407.121698 484.232727 
L 408.138277 456.587262 
L 409.154855 482.640632 
L 410.171434 119.588938 
L 411.188012 484.232704 
L 412.204591 88.887273 
L 413.22117 484.232727 
L 416.270905 484.232727 
L 417.287484 90.095621 
L 418.304063 484.232727 
L 420.33722 484.232727 
L 421.353799 283.753995 
L 422.370377 484.214441 
L 424.403534 484.232727 
L 425.420113 88.887273 
L 426.436692 484.173698 
L 427.45327 88.887273 
L 428.469849 484.232727 
L 429.486427 219.182574 
L 430.503006 484.232727 
L 431.519585 132.073995 
L 432.536163 484.232727 
L 433.552742 477.375798 
L 434.56932 88.887273 
L 435.585899 484.232727 
L 436.602478 484.232727 
L 437.619056 94.85058 
L 438.635635 484.232727 
L 439.652214 421.525564 
L 440.668792 442.064883 
L 441.685371 484.232044 
L 442.701949 477.385271 
L 443.718528 484.232727 
L 444.735107 484.232727 
L 445.751685 88.887273 
L 446.768264 484.232727 
L 447.784842 484.232727 
L 448.801421 450.742636 
L 449.818 482.028723 
L 450.834578 92.842043 
L 451.851157 484.232727 
L 452.867735 88.887296 
L 453.884314 484.232727 
L 456.93405 484.232727 
L 457.950629 88.9771 
L 458.967207 484.232727 
L 465.066679 484.232727 
L 466.083257 88.887273 
L 467.099836 484.232727 
L 468.116415 88.887273 
L 469.132993 484.232727 
L 470.149572 88.887273 
L 471.16615 484.232727 
L 472.182729 484.232727 
L 473.199308 483.559009 
L 474.215886 484.232727 
L 475.232465 88.887273 
L 476.249044 484.232727 
L 477.265622 484.232727 
L 478.282201 95.517572 
L 479.298779 484.232727 
L 480.315358 468.049646 
L 481.331937 477.857702 
L 482.348515 484.232727 
L 483.365094 482.74216 
L 484.381672 484.232727 
L 485.398251 484.232727 
L 486.41483 88.887273 
L 487.431408 480.467109 
L 488.447987 480.19818 
L 489.464565 451.673278 
L 490.481144 471.015088 
L 491.497723 484.232727 
L 492.514301 480.347189 
L 493.53088 484.232727 
L 494.547459 88.887273 
L 495.564037 481.832372 
L 496.580616 484.126428 
L 497.597194 484.232727 
L 498.613773 88.887273 
L 499.630352 484.190205 
L 500.64693 484.232727 
L 501.663509 88.887273 
L 502.680087 88.887273 
L 503.696666 465.810413 
L 504.713245 484.232727 
L 505.729823 91.313112 
L 506.746402 171.739981 
L 507.762981 484.232727 
L 508.779559 483.782352 
L 509.796138 484.232727 
L 512.845874 484.232727 
L 513.862452 163.267191 
L 514.879031 484.232704 
L 515.895609 89.02265 
L 516.912188 484.232727 
L 517.928767 90.478319 
L 518.945345 484.232727 
L 519.961924 88.887308 
L 520.978502 484.232727 
L 521.995081 484.232727 
L 523.01166 90.553525 
L 524.028238 88.904451 
L 525.044817 434.42955 
L 526.061396 484.232727 
L 527.077974 89.894699 
L 528.094553 484.232115 
L 529.111131 484.232727 
L 530.12771 484.081126 
L 531.144289 484.232727 
L 532.160867 88.887273 
L 533.177446 484.232727 
L 535.210603 484.232727 
L 536.227182 88.887273 
L 537.24376 484.192326 
L 540.293496 484.221758 
L 541.310075 484.232727 
L 542.326653 88.887273 
L 543.343232 88.887273 
L 544.359811 478.426795 
L 545.376389 484.232727 
L 546.392968 477.359196 
L 547.409546 484.232727 
L 549.442704 484.232727 
L 550.459282 88.887273 
L 551.475861 484.232727 
L 554.525597 484.232704 
L 555.542175 460.136677 
L 556.558754 466.613465 
L 557.575332 434.946813 
L 558.591911 428.926667 
L 559.60849 194.340468 
L 560.625068 484.232727 
L 561.641647 88.887273 
L 562.658226 484.232727 
L 563.674804 484.232727 
L 564.691383 196.864006 
L 565.707961 88.900622 
L 566.72454 136.180957 
L 567.741119 89.393083 
L 568.757697 484.232727 
L 569.774276 484.232727 
L 570.790854 88.887273 
L 571.807433 89.751404 
L 572.824012 104.274206 
L 573.84059 90.144352 
L 574.857169 91.053067 
L 575.873747 484.232727 
L 576.890326 88.887273 
L 577.906905 484.232727 
L 578.923483 88.887273 
L 579.940062 484.232692 
L 581.973219 484.21417 
L 582.989798 88.952075 
L 584.006376 484.232727 
L 586.039534 484.232727 
L 587.056112 236.987719 
L 588.072691 484.232727 
L 589.089269 88.887273 
L 590.105848 223.223096 
L 591.122427 88.92315 
L 592.139005 483.681225 
L 593.155584 484.229405 
L 594.172163 484.232633 
L 595.188741 483.165035 
L 596.20532 484.127818 
L 598.238477 484.232727 
L 599.255056 88.887273 
L 600.271634 484.232727 
L 602.304791 484.232727 
L 603.32137 88.900752 
L 604.337949 484.232727 
L 605.354527 88.939444 
L 606.371106 484.232079 
L 607.387684 88.887273 
L 608.404263 89.408918 
L 609.420842 484.213239 
L 610.43742 88.935273 
L 611.453999 306.248164 
L 612.470578 459.939006 
L 613.487156 484.232727 
L 614.503735 484.085202 
L 616.536892 92.656414 
L 617.553471 123.759665 
L 618.570049 484.232727 
L 619.586628 484.232645 
L 620.603206 483.16236 
L 621.619785 463.646174 
L 622.636364 482.958481 
L 622.636364 482.958481 
" style="fill:none;stroke:#2ca02c;stroke-linecap:square;stroke-width:1.5;"/>
   </g>
   <g id="line2d_19">
    <path clip-path="url(#pef39e676df)" d="M 115.363636 482.868335 
L 116.380215 134.989528 
L 117.396794 484.225081 
L 118.413372 475.831126 
L 119.429951 484.121303 
L 120.446529 484.221004 
L 121.463108 484.006214 
L 122.479687 470.231028 
L 123.496265 432.157091 
L 124.512844 483.59809 
L 125.529422 470.616613 
L 126.546001 484.232715 
L 127.56258 413.195505 
L 128.579158 484.232704 
L 129.595737 483.863367 
L 130.612316 484.232727 
L 137.728366 484.232727 
L 138.744944 372.008624 
L 139.761523 240.748457 
L 140.778102 473.604523 
L 141.79468 434.595514 
L 142.811259 484.187507 
L 143.827837 474.039629 
L 144.844416 484.232727 
L 146.877573 484.232727 
L 147.894152 483.679988 
L 148.910731 484.232444 
L 155.010202 484.232727 
L 156.026781 177.002506 
L 157.043359 483.910684 
L 158.059938 484.232727 
L 159.076517 484.232727 
L 160.093095 287.265386 
L 161.109674 484.232727 
L 165.175988 484.232727 
L 166.192567 88.921594 
L 167.209146 484.232727 
L 168.225724 88.887273 
L 169.242303 484.232727 
L 170.258881 88.887273 
L 171.27546 484.232727 
L 172.292039 484.232727 
L 173.308617 103.842164 
L 174.325196 484.232727 
L 177.374932 484.232727 
L 178.39151 483.951733 
L 179.408089 484.232727 
L 183.474403 484.232727 
L 184.490982 264.302025 
L 185.507561 484.232586 
L 186.524139 343.669917 
L 187.540718 484.232727 
L 188.557296 88.888345 
L 189.573875 484.232727 
L 196.689925 484.232727 
L 197.706504 89.90244 
L 198.723083 484.018927 
L 199.739661 484.232727 
L 203.805976 484.232727 
L 204.822554 482.753188 
L 205.839133 484.232727 
L 212.955183 484.232727 
L 213.971762 141.137757 
L 214.98834 484.232727 
L 224.137548 484.232727 
L 225.154126 450.121325 
L 226.170705 382.323598 
L 227.187284 484.207148 
L 229.220441 484.232727 
L 230.237019 483.439443 
L 231.253598 484.232715 
L 232.270177 484.232727 
L 233.286755 89.139636 
L 234.303334 484.232727 
L 235.319913 484.232692 
L 236.336491 206.208644 
L 237.35307 483.813151 
L 238.369648 484.232727 
L 244.46912 484.232727 
L 245.485699 468.024232 
L 246.502277 476.783152 
L 247.518856 476.04072 
L 248.535435 111.962571 
L 249.552013 484.232727 
L 253.618328 484.232727 
L 254.634906 326.059668 
L 255.651485 483.577012 
L 256.668063 484.232727 
L 257.684642 484.232727 
L 258.701221 475.492411 
L 259.717799 453.36366 
L 260.734378 484.232468 
L 264.800692 484.232727 
L 265.817271 286.587782 
L 266.83385 480.678293 
L 267.850428 484.232715 
L 268.867007 184.247141 
L 269.883585 484.210777 
L 273.9499 484.232727 
L 274.966478 474.959289 
L 275.983057 484.232727 
L 278.016214 484.232727 
L 279.032793 139.131034 
L 280.049371 91.427612 
L 281.06595 222.462295 
L 282.082529 484.232704 
L 285.132265 484.232727 
L 286.148843 483.800956 
L 287.165422 484.232727 
L 288.182 483.681249 
L 289.198579 484.232727 
L 294.281472 484.232715 
L 295.298051 367.102546 
L 296.314629 484.232727 
L 298.347786 484.232727 
L 299.364365 481.428054 
L 300.380944 484.227355 
L 302.414101 484.232727 
L 303.43068 434.18633 
L 304.447258 484.232727 
L 305.463837 484.232727 
L 306.480415 428.603387 
L 307.496994 482.712987 
L 308.513573 484.232727 
L 317.66278 484.232727 
L 318.679359 93.236665 
L 319.695937 450.267742 
L 320.712516 437.036129 
L 321.729095 484.23083 
L 326.811988 484.232727 
L 327.828566 118.39024 
L 328.845145 484.232704 
L 329.861723 401.912905 
L 330.878302 484.231973 
L 331.894881 421.360013 
L 332.911459 484.232727 
L 333.928038 483.330457 
L 334.944617 484.232727 
L 339.010931 484.232727 
L 340.02751 483.61865 
L 341.044088 484.226813 
L 343.077245 484.232727 
L 344.093824 483.704719 
L 345.110403 484.232727 
L 346.126981 484.232727 
L 347.14356 478.968376 
L 348.160138 484.232727 
L 355.276189 484.232727 
L 356.292767 441.844473 
L 357.309346 484.229911 
L 359.342503 484.232727 
L 360.359082 117.934021 
L 361.37566 132.538757 
L 362.392239 110.211263 
L 363.408818 484.228851 
L 367.475132 484.232727 
L 368.491711 476.609612 
L 369.508289 484.054451 
L 370.524868 287.26323 
L 371.541447 484.232715 
L 372.558025 279.115303 
L 373.574604 484.232727 
L 377.640918 484.232727 
L 378.657497 133.865116 
L 379.674075 483.37735 
L 380.690654 484.232727 
L 384.756968 484.232727 
L 385.773547 88.887273 
L 386.790126 484.232727 
L 389.839862 484.232704 
L 390.85644 454.728358 
L 391.873019 484.232727 
L 398.989069 484.232727 
L 400.005648 95.699135 
L 401.022226 438.847102 
L 402.038805 433.851585 
L 403.055383 484.232727 
L 407.121698 484.232727 
L 408.138277 463.004385 
L 409.154855 483.084692 
L 410.171434 155.935498 
L 411.188012 484.232715 
L 412.204591 88.888262 
L 413.22117 484.232727 
L 416.270905 484.232727 
L 417.287484 152.216218 
L 418.304063 484.232727 
L 420.33722 484.232727 
L 421.353799 451.373232 
L 422.370377 484.204026 
L 426.436692 484.230147 
L 427.45327 482.609162 
L 428.469849 484.232727 
L 430.503006 484.232727 
L 431.519585 483.764915 
L 432.536163 484.232727 
L 433.552742 482.749889 
L 434.56932 484.232727 
L 436.602478 484.232727 
L 437.619056 303.968263 
L 438.635635 484.232727 
L 439.652214 478.953401 
L 440.668792 427.634583 
L 441.685371 483.970726 
L 442.701949 475.526414 
L 443.718528 484.232727 
L 447.784842 484.232727 
L 448.801421 456.234596 
L 449.818 482.055634 
L 450.834578 113.588587 
L 451.851157 484.232727 
L 452.867735 175.700819 
L 453.884314 484.232727 
L 456.93405 484.232727 
L 457.950629 121.503053 
L 458.967207 484.232727 
L 465.066679 484.232727 
L 466.083257 100.889177 
L 467.099836 484.232727 
L 468.116415 88.887273 
L 469.132993 484.232727 
L 470.149572 88.911579 
L 471.16615 484.232727 
L 474.215886 484.232727 
L 475.232465 113.260146 
L 476.249044 484.232727 
L 477.265622 484.232727 
L 478.282201 308.077026 
L 479.298779 484.232727 
L 480.315358 483.487231 
L 481.331937 472.16846 
L 482.348515 484.23268 
L 483.365094 481.893793 
L 484.381672 484.232727 
L 486.41483 484.232727 
L 487.431408 480.669315 
L 488.447987 404.675634 
L 489.464565 448.153106 
L 490.481144 484.232727 
L 494.547459 484.232727 
L 495.564037 483.500698 
L 496.580616 484.228486 
L 501.663509 484.232727 
L 502.680087 108.518407 
L 503.696666 474.276392 
L 504.713245 484.232727 
L 505.729823 484.232727 
L 506.746402 169.620632 
L 507.762981 484.232727 
L 514.879031 484.224656 
L 515.895609 451.480191 
L 516.912188 484.232727 
L 517.928767 383.781022 
L 518.945345 484.232727 
L 521.995081 484.232727 
L 524.028238 120.619081 
L 525.044817 453.853199 
L 526.061396 484.232727 
L 527.077974 406.686928 
L 528.094553 484.232621 
L 542.326653 484.232727 
L 543.343232 91.055765 
L 544.359811 475.55349 
L 545.376389 484.232727 
L 554.525597 484.231938 
L 555.542175 471.212722 
L 556.558754 455.000186 
L 557.575332 458.691082 
L 558.591911 439.475695 
L 559.60849 297.370083 
L 560.625068 484.232727 
L 563.674804 484.232727 
L 564.691383 408.036804 
L 565.707961 90.537112 
L 566.72454 167.429847 
L 567.741119 90.675601 
L 568.757697 484.232727 
L 569.774276 484.232727 
L 570.790854 89.007934 
L 571.807433 133.082105 
L 572.824012 276.611717 
L 573.84059 91.536044 
L 574.857169 197.314958 
L 575.873747 484.232727 
L 577.906905 484.232727 
L 578.923483 88.888321 
L 579.940062 484.229216 
L 580.956641 484.232727 
L 581.973219 483.658144 
L 582.989798 141.719433 
L 584.006376 484.232727 
L 586.039534 484.232727 
L 587.056112 483.525453 
L 588.072691 484.232727 
L 589.089269 484.230394 
L 590.105848 360.363763 
L 591.122427 114.095317 
L 592.139005 483.65521 
L 593.155584 484.219166 
L 594.172163 484.23096 
L 595.188741 483.203987 
L 596.20532 484.071594 
L 597.221898 484.232727 
L 602.304791 484.232727 
L 603.32137 478.264235 
L 604.337949 484.232727 
L 605.354527 94.385336 
L 606.371106 484.22468 
L 607.387684 88.887273 
L 608.404263 89.232998 
L 609.420842 484.184797 
L 610.43742 91.297607 
L 611.453999 98.499273 
L 612.470578 481.294762 
L 613.487156 484.232727 
L 614.503735 484.037743 
L 615.520313 307.043642 
L 616.536892 157.506797 
L 617.553471 464.083223 
L 618.570049 484.232727 
L 619.586628 484.232492 
L 620.603206 483.566514 
L 621.619785 476.517346 
L 622.636364 483.395813 
L 622.636364 483.395813 
" style="fill:none;stroke:#d62728;stroke-linecap:square;stroke-width:1.5;"/>
   </g>
   <g id="patch_3">
    <path d="M 90 504 
L 90 69.12 
" style="fill:none;stroke:#000000;stroke-linecap:square;stroke-linejoin:miter;stroke-width:0.8;"/>
   </g>
   <g id="patch_4">
    <path d="M 648 504 
L 648 69.12 
" style="fill:none;stroke:#000000;stroke-linecap:square;stroke-linejoin:miter;stroke-width:0.8;"/>
   </g>
   <g id="patch_5">
    <path d="M 90 504 
L 648 504 
" style="fill:none;stroke:#000000;stroke-linecap:square;stroke-linejoin:miter;stroke-width:0.8;"/>
   </g>
   <g id="patch_6">
    <path d="M 90 69.12 
L 648 69.12 
" style="fill:none;stroke:#000000;stroke-linecap:square;stroke-linejoin:miter;stroke-width:0.8;"/>
   </g>
  </g>
 </g>
 <defs>
  <clipPath id="pef39e676df">
   <rect height="434.88" width="558" x="90" y="69.12"/>
  </clipPath>
 </defs>
</svg>
