<?xml version="1.0" encoding="utf-8" standalone="no"?>
<!DOCTYPE svg PUBLIC "-//W3C//DTD SVG 1.1//EN"
  "http://www.w3.org/Graphics/SVG/1.1/DTD/svg11.dtd">
<svg height="576pt" version="1.1" viewBox="0 0 1440 576" width="1440pt" xmlns="http://www.w3.org/2000/svg" xmlns:xlink="http://www.w3.org/1999/xlink">
 <metadata>
  <rdf:RDF xmlns:cc="http://creativecommons.org/ns#" xmlns:dc="http://purl.org/dc/elements/1.1/" xmlns:rdf="http://www.w3.org/1999/02/22-rdf-syntax-ns#">
   <cc:Work>
    <dc:type rdf:resource="http://purl.org/dc/dcmitype/StillImage"/>
    <dc:date>2022-01-12T19:30:33.169062</dc:date>
    <dc:format>image/svg+xml</dc:format>
    <dc:creator>
     <cc:Agent>
      <dc:title>Matplotlib v3.4.3, https://matplotlib.org/</dc:title>
     </cc:Agent>
    </dc:creator>
   </cc:Work>
  </rdf:RDF>
 </metadata>
 <defs>
  <style type="text/css">*{stroke-linecap:butt;stroke-linejoin:round;}</style>
 </defs>
 <g id="figure_1">
  <g id="patch_1">
   <path d="M 0 576 
L 1440 576 
L 1440 0 
L 0 0 
z
" style="fill:none;"/>
  </g>
  <g id="axes_1">
   <g id="patch_2">
    <path d="M 180 504 
L 687.272727 504 
L 687.272727 69.12 
L 180 69.12 
z
" style="fill:#ffffff;"/>
   </g>
   <g id="matplotlib.axis_1">
    <g id="xtick_1">
     <g id="line2d_1">
      <defs>
       <path d="M 0 0 
L 0 3.5 
" id="m8969354590" style="stroke:#000000;stroke-width:0.8;"/>
      </defs>
      <g>
       <use style="stroke:#000000;stroke-width:0.8;" x="203.057851" xlink:href="#m8969354590" y="504"/>
      </g>
     </g>
     <g id="text_1">
      <!-- 0 -->
      <g transform="translate(199.876601 518.598438)scale(0.1 -0.1)">
       <defs>
        <path d="M 2034 4250 
Q 1547 4250 1301 3770 
Q 1056 3291 1056 2328 
Q 1056 1369 1301 889 
Q 1547 409 2034 409 
Q 2525 409 2770 889 
Q 3016 1369 3016 2328 
Q 3016 3291 2770 3770 
Q 2525 4250 2034 4250 
z
M 2034 4750 
Q 2819 4750 3233 4129 
Q 3647 3509 3647 2328 
Q 3647 1150 3233 529 
Q 2819 -91 2034 -91 
Q 1250 -91 836 529 
Q 422 1150 422 2328 
Q 422 3509 836 4129 
Q 1250 4750 2034 4750 
z
" id="DejaVuSans-30" transform="scale(0.015625)"/>
       </defs>
       <use xlink:href="#DejaVuSans-30"/>
      </g>
     </g>
    </g>
    <g id="xtick_2">
     <g id="line2d_2">
      <g>
       <use style="stroke:#000000;stroke-width:0.8;" x="295.474089" xlink:href="#m8969354590" y="504"/>
      </g>
     </g>
     <g id="text_2">
      <!-- 100 -->
      <g transform="translate(285.930339 518.598438)scale(0.1 -0.1)">
       <defs>
        <path d="M 794 531 
L 1825 531 
L 1825 4091 
L 703 3866 
L 703 4441 
L 1819 4666 
L 2450 4666 
L 2450 531 
L 3481 531 
L 3481 0 
L 794 0 
L 794 531 
z
" id="DejaVuSans-31" transform="scale(0.015625)"/>
       </defs>
       <use xlink:href="#DejaVuSans-31"/>
       <use x="63.623047" xlink:href="#DejaVuSans-30"/>
       <use x="127.246094" xlink:href="#DejaVuSans-30"/>
      </g>
     </g>
    </g>
    <g id="xtick_3">
     <g id="line2d_3">
      <g>
       <use style="stroke:#000000;stroke-width:0.8;" x="387.890326" xlink:href="#m8969354590" y="504"/>
      </g>
     </g>
     <g id="text_3">
      <!-- 200 -->
      <g transform="translate(378.346576 518.598438)scale(0.1 -0.1)">
       <defs>
        <path d="M 1228 531 
L 3431 531 
L 3431 0 
L 469 0 
L 469 531 
Q 828 903 1448 1529 
Q 2069 2156 2228 2338 
Q 2531 2678 2651 2914 
Q 2772 3150 2772 3378 
Q 2772 3750 2511 3984 
Q 2250 4219 1831 4219 
Q 1534 4219 1204 4116 
Q 875 4013 500 3803 
L 500 4441 
Q 881 4594 1212 4672 
Q 1544 4750 1819 4750 
Q 2544 4750 2975 4387 
Q 3406 4025 3406 3419 
Q 3406 3131 3298 2873 
Q 3191 2616 2906 2266 
Q 2828 2175 2409 1742 
Q 1991 1309 1228 531 
z
" id="DejaVuSans-32" transform="scale(0.015625)"/>
       </defs>
       <use xlink:href="#DejaVuSans-32"/>
       <use x="63.623047" xlink:href="#DejaVuSans-30"/>
       <use x="127.246094" xlink:href="#DejaVuSans-30"/>
      </g>
     </g>
    </g>
    <g id="xtick_4">
     <g id="line2d_4">
      <g>
       <use style="stroke:#000000;stroke-width:0.8;" x="480.306564" xlink:href="#m8969354590" y="504"/>
      </g>
     </g>
     <g id="text_4">
      <!-- 300 -->
      <g transform="translate(470.762814 518.598438)scale(0.1 -0.1)">
       <defs>
        <path d="M 2597 2516 
Q 3050 2419 3304 2112 
Q 3559 1806 3559 1356 
Q 3559 666 3084 287 
Q 2609 -91 1734 -91 
Q 1441 -91 1130 -33 
Q 819 25 488 141 
L 488 750 
Q 750 597 1062 519 
Q 1375 441 1716 441 
Q 2309 441 2620 675 
Q 2931 909 2931 1356 
Q 2931 1769 2642 2001 
Q 2353 2234 1838 2234 
L 1294 2234 
L 1294 2753 
L 1863 2753 
Q 2328 2753 2575 2939 
Q 2822 3125 2822 3475 
Q 2822 3834 2567 4026 
Q 2313 4219 1838 4219 
Q 1578 4219 1281 4162 
Q 984 4106 628 3988 
L 628 4550 
Q 988 4650 1302 4700 
Q 1616 4750 1894 4750 
Q 2613 4750 3031 4423 
Q 3450 4097 3450 3541 
Q 3450 3153 3228 2886 
Q 3006 2619 2597 2516 
z
" id="DejaVuSans-33" transform="scale(0.015625)"/>
       </defs>
       <use xlink:href="#DejaVuSans-33"/>
       <use x="63.623047" xlink:href="#DejaVuSans-30"/>
       <use x="127.246094" xlink:href="#DejaVuSans-30"/>
      </g>
     </g>
    </g>
    <g id="xtick_5">
     <g id="line2d_5">
      <g>
       <use style="stroke:#000000;stroke-width:0.8;" x="572.722801" xlink:href="#m8969354590" y="504"/>
      </g>
     </g>
     <g id="text_5">
      <!-- 400 -->
      <g transform="translate(563.179051 518.598438)scale(0.1 -0.1)">
       <defs>
        <path d="M 2419 4116 
L 825 1625 
L 2419 1625 
L 2419 4116 
z
M 2253 4666 
L 3047 4666 
L 3047 1625 
L 3713 1625 
L 3713 1100 
L 3047 1100 
L 3047 0 
L 2419 0 
L 2419 1100 
L 313 1100 
L 313 1709 
L 2253 4666 
z
" id="DejaVuSans-34" transform="scale(0.015625)"/>
       </defs>
       <use xlink:href="#DejaVuSans-34"/>
       <use x="63.623047" xlink:href="#DejaVuSans-30"/>
       <use x="127.246094" xlink:href="#DejaVuSans-30"/>
      </g>
     </g>
    </g>
    <g id="xtick_6">
     <g id="line2d_6">
      <g>
       <use style="stroke:#000000;stroke-width:0.8;" x="665.139038" xlink:href="#m8969354590" y="504"/>
      </g>
     </g>
     <g id="text_6">
      <!-- 500 -->
      <g transform="translate(655.595288 518.598438)scale(0.1 -0.1)">
       <defs>
        <path d="M 691 4666 
L 3169 4666 
L 3169 4134 
L 1269 4134 
L 1269 2991 
Q 1406 3038 1543 3061 
Q 1681 3084 1819 3084 
Q 2600 3084 3056 2656 
Q 3513 2228 3513 1497 
Q 3513 744 3044 326 
Q 2575 -91 1722 -91 
Q 1428 -91 1123 -41 
Q 819 9 494 109 
L 494 744 
Q 775 591 1075 516 
Q 1375 441 1709 441 
Q 2250 441 2565 725 
Q 2881 1009 2881 1497 
Q 2881 1984 2565 2268 
Q 2250 2553 1709 2553 
Q 1456 2553 1204 2497 
Q 953 2441 691 2322 
L 691 4666 
z
" id="DejaVuSans-35" transform="scale(0.015625)"/>
       </defs>
       <use xlink:href="#DejaVuSans-35"/>
       <use x="63.623047" xlink:href="#DejaVuSans-30"/>
       <use x="127.246094" xlink:href="#DejaVuSans-30"/>
      </g>
     </g>
    </g>
   </g>
   <g id="matplotlib.axis_2">
    <g id="ytick_1">
     <g id="line2d_7">
      <defs>
       <path d="M 0 0 
L -3.5 0 
" id="m001e84cbdc" style="stroke:#000000;stroke-width:0.8;"/>
      </defs>
      <g>
       <use style="stroke:#000000;stroke-width:0.8;" x="180" xlink:href="#m001e84cbdc" y="484.232727"/>
      </g>
     </g>
     <g id="text_7">
      <!-- −1.00 -->
      <g transform="translate(142.354688 488.031946)scale(0.1 -0.1)">
       <defs>
        <path d="M 678 2272 
L 4684 2272 
L 4684 1741 
L 678 1741 
L 678 2272 
z
" id="DejaVuSans-2212" transform="scale(0.015625)"/>
        <path d="M 684 794 
L 1344 794 
L 1344 0 
L 684 0 
L 684 794 
z
" id="DejaVuSans-2e" transform="scale(0.015625)"/>
       </defs>
       <use xlink:href="#DejaVuSans-2212"/>
       <use x="83.789062" xlink:href="#DejaVuSans-31"/>
       <use x="147.412109" xlink:href="#DejaVuSans-2e"/>
       <use x="179.199219" xlink:href="#DejaVuSans-30"/>
       <use x="242.822266" xlink:href="#DejaVuSans-30"/>
      </g>
     </g>
    </g>
    <g id="ytick_2">
     <g id="line2d_8">
      <g>
       <use style="stroke:#000000;stroke-width:0.8;" x="180" xlink:href="#m001e84cbdc" y="434.814545"/>
      </g>
     </g>
     <g id="text_8">
      <!-- −0.75 -->
      <g transform="translate(142.354688 438.613764)scale(0.1 -0.1)">
       <defs>
        <path d="M 525 4666 
L 3525 4666 
L 3525 4397 
L 1831 0 
L 1172 0 
L 2766 4134 
L 525 4134 
L 525 4666 
z
" id="DejaVuSans-37" transform="scale(0.015625)"/>
       </defs>
       <use xlink:href="#DejaVuSans-2212"/>
       <use x="83.789062" xlink:href="#DejaVuSans-30"/>
       <use x="147.412109" xlink:href="#DejaVuSans-2e"/>
       <use x="179.199219" xlink:href="#DejaVuSans-37"/>
       <use x="242.822266" xlink:href="#DejaVuSans-35"/>
      </g>
     </g>
    </g>
    <g id="ytick_3">
     <g id="line2d_9">
      <g>
       <use style="stroke:#000000;stroke-width:0.8;" x="180" xlink:href="#m001e84cbdc" y="385.396364"/>
      </g>
     </g>
     <g id="text_9">
      <!-- −0.50 -->
      <g transform="translate(142.354688 389.195582)scale(0.1 -0.1)">
       <use xlink:href="#DejaVuSans-2212"/>
       <use x="83.789062" xlink:href="#DejaVuSans-30"/>
       <use x="147.412109" xlink:href="#DejaVuSans-2e"/>
       <use x="179.199219" xlink:href="#DejaVuSans-35"/>
       <use x="242.822266" xlink:href="#DejaVuSans-30"/>
      </g>
     </g>
    </g>
    <g id="ytick_4">
     <g id="line2d_10">
      <g>
       <use style="stroke:#000000;stroke-width:0.8;" x="180" xlink:href="#m001e84cbdc" y="335.978182"/>
      </g>
     </g>
     <g id="text_10">
      <!-- −0.25 -->
      <g transform="translate(142.354688 339.777401)scale(0.1 -0.1)">
       <use xlink:href="#DejaVuSans-2212"/>
       <use x="83.789062" xlink:href="#DejaVuSans-30"/>
       <use x="147.412109" xlink:href="#DejaVuSans-2e"/>
       <use x="179.199219" xlink:href="#DejaVuSans-32"/>
       <use x="242.822266" xlink:href="#DejaVuSans-35"/>
      </g>
     </g>
    </g>
    <g id="ytick_5">
     <g id="line2d_11">
      <g>
       <use style="stroke:#000000;stroke-width:0.8;" x="180" xlink:href="#m001e84cbdc" y="286.56"/>
      </g>
     </g>
     <g id="text_11">
      <!-- 0.00 -->
      <g transform="translate(150.734375 290.359219)scale(0.1 -0.1)">
       <use xlink:href="#DejaVuSans-30"/>
       <use x="63.623047" xlink:href="#DejaVuSans-2e"/>
       <use x="95.410156" xlink:href="#DejaVuSans-30"/>
       <use x="159.033203" xlink:href="#DejaVuSans-30"/>
      </g>
     </g>
    </g>
    <g id="ytick_6">
     <g id="line2d_12">
      <g>
       <use style="stroke:#000000;stroke-width:0.8;" x="180" xlink:href="#m001e84cbdc" y="237.141818"/>
      </g>
     </g>
     <g id="text_12">
      <!-- 0.25 -->
      <g transform="translate(150.734375 240.941037)scale(0.1 -0.1)">
       <use xlink:href="#DejaVuSans-30"/>
       <use x="63.623047" xlink:href="#DejaVuSans-2e"/>
       <use x="95.410156" xlink:href="#DejaVuSans-32"/>
       <use x="159.033203" xlink:href="#DejaVuSans-35"/>
      </g>
     </g>
    </g>
    <g id="ytick_7">
     <g id="line2d_13">
      <g>
       <use style="stroke:#000000;stroke-width:0.8;" x="180" xlink:href="#m001e84cbdc" y="187.723636"/>
      </g>
     </g>
     <g id="text_13">
      <!-- 0.50 -->
      <g transform="translate(150.734375 191.522855)scale(0.1 -0.1)">
       <use xlink:href="#DejaVuSans-30"/>
       <use x="63.623047" xlink:href="#DejaVuSans-2e"/>
       <use x="95.410156" xlink:href="#DejaVuSans-35"/>
       <use x="159.033203" xlink:href="#DejaVuSans-30"/>
      </g>
     </g>
    </g>
    <g id="ytick_8">
     <g id="line2d_14">
      <g>
       <use style="stroke:#000000;stroke-width:0.8;" x="180" xlink:href="#m001e84cbdc" y="138.305455"/>
      </g>
     </g>
     <g id="text_14">
      <!-- 0.75 -->
      <g transform="translate(150.734375 142.104673)scale(0.1 -0.1)">
       <use xlink:href="#DejaVuSans-30"/>
       <use x="63.623047" xlink:href="#DejaVuSans-2e"/>
       <use x="95.410156" xlink:href="#DejaVuSans-37"/>
       <use x="159.033203" xlink:href="#DejaVuSans-35"/>
      </g>
     </g>
    </g>
    <g id="ytick_9">
     <g id="line2d_15">
      <g>
       <use style="stroke:#000000;stroke-width:0.8;" x="180" xlink:href="#m001e84cbdc" y="88.887273"/>
      </g>
     </g>
     <g id="text_15">
      <!-- 1.00 -->
      <g transform="translate(150.734375 92.686491)scale(0.1 -0.1)">
       <use xlink:href="#DejaVuSans-31"/>
       <use x="63.623047" xlink:href="#DejaVuSans-2e"/>
       <use x="95.410156" xlink:href="#DejaVuSans-30"/>
       <use x="159.033203" xlink:href="#DejaVuSans-30"/>
      </g>
     </g>
    </g>
   </g>
   <g id="line2d_16">
    <path clip-path="url(#pc5895e7d6e)" d="M 203.057851 476.52068 
L 203.982014 92.288574 
L 205.830338 470.10675 
L 206.754501 88.891762 
L 207.678663 484.231796 
L 208.602825 88.889676 
L 209.526988 449.98061 
L 210.45115 121.023058 
L 211.375313 483.765645 
L 212.299475 91.233005 
L 213.223637 484.232727 
L 214.1478 88.887273 
L 215.071962 484.232727 
L 215.996124 88.900905 
L 216.920287 484.232727 
L 217.844449 88.887273 
L 218.768612 484.217976 
L 219.692774 88.892245 
L 220.616936 484.232727 
L 221.541099 88.887273 
L 222.465261 484.232433 
L 223.389423 484.232727 
L 224.313586 88.901447 
L 225.237748 89.164579 
L 226.161911 481.760077 
L 227.086073 367.323074 
L 228.010235 484.219425 
L 228.934398 90.149478 
L 229.85856 484.232727 
L 230.782722 88.887308 
L 231.706885 484.232727 
L 232.631047 88.887273 
L 233.55521 484.232727 
L 234.479372 194.654735 
L 235.403534 88.887273 
L 236.327697 484.232727 
L 237.251859 330.570992 
L 238.176021 484.232727 
L 239.100184 88.887273 
L 240.024346 88.887273 
L 240.948509 89.070109 
L 241.872671 484.232727 
L 242.796833 88.887273 
L 243.720996 88.887273 
L 244.645158 484.232727 
L 245.56932 88.887273 
L 246.493483 484.232727 
L 247.417645 88.887273 
L 248.341808 484.232727 
L 249.26597 88.887273 
L 250.190132 484.232727 
L 251.114295 88.887273 
L 252.038457 484.232727 
L 252.962619 88.887273 
L 253.886782 484.232727 
L 254.810944 484.232727 
L 255.735107 88.89479 
L 257.583431 88.887273 
L 258.507594 484.232727 
L 259.431756 484.232727 
L 260.355918 484.118605 
L 261.280081 484.232727 
L 262.204243 484.232727 
L 263.128406 88.887273 
L 264.052568 484.232727 
L 264.97673 484.232727 
L 265.900893 173.142594 
L 266.825055 484.23268 
L 267.749217 88.887285 
L 268.67338 484.232727 
L 269.597542 88.887273 
L 270.521705 484.232727 
L 271.445867 88.887273 
L 272.370029 484.232727 
L 274.218354 484.232727 
L 275.142516 88.887285 
L 276.066679 484.232727 
L 276.990841 88.887273 
L 278.839166 88.887874 
L 279.763328 484.232727 
L 280.687491 484.232727 
L 281.611653 88.887273 
L 282.535815 484.230477 
L 283.459978 484.232727 
L 284.38414 436.990638 
L 285.308303 484.232727 
L 286.232465 88.887273 
L 287.156627 484.232727 
L 288.08079 88.887273 
L 289.004952 484.232727 
L 289.929114 88.887273 
L 290.853277 484.232727 
L 291.777439 484.232727 
L 292.701602 89.239467 
L 293.625764 88.887273 
L 294.549926 88.887273 
L 295.474089 484.232727 
L 299.170738 484.232727 
L 300.094901 88.887273 
L 301.019063 484.232727 
L 301.943225 484.232727 
L 302.867388 428.458218 
L 303.79155 180.926714 
L 304.715712 88.887285 
L 305.639875 88.887273 
L 306.564037 484.232727 
L 307.4882 88.887273 
L 308.412362 94.442256 
L 309.336524 88.887273 
L 310.260687 88.887273 
L 311.184849 484.232727 
L 312.109011 484.232727 
L 313.033174 143.418746 
L 313.957336 88.887273 
L 314.881499 484.232727 
L 317.653986 484.232727 
L 318.578148 88.887273 
L 319.50231 484.232727 
L 320.426473 484.231867 
L 321.350635 469.520349 
L 322.274798 480.940259 
L 323.19896 478.891273 
L 324.123122 96.183349 
L 325.047285 484.232727 
L 325.971447 88.887273 
L 326.895609 88.887273 
L 327.819772 484.232727 
L 328.743934 484.232727 
L 329.668097 91.383393 
L 330.592259 88.887273 
L 331.516421 484.232727 
L 332.440584 484.232727 
L 333.364746 469.250065 
L 334.288908 447.479529 
L 335.213071 484.232715 
L 336.137233 484.232727 
L 337.061396 88.887273 
L 337.985558 484.232727 
L 338.90972 484.232715 
L 339.833883 232.793051 
L 340.758045 473.772985 
L 341.682207 484.227166 
L 342.60637 89.197487 
L 343.530532 484.232727 
L 344.454695 88.887273 
L 345.378857 88.887273 
L 346.303019 484.232727 
L 347.227182 484.232727 
L 348.151344 89.130587 
L 349.075506 88.887273 
L 349.999669 484.232727 
L 350.923831 484.232727 
L 351.847994 111.718892 
L 352.772156 88.887273 
L 354.620481 88.887273 
L 355.544643 484.232727 
L 356.468805 88.887273 
L 358.31713 88.887273 
L 359.241293 484.232727 
L 360.165455 88.896522 
L 361.089617 88.887273 
L 362.01378 484.232727 
L 362.937942 88.887273 
L 363.862104 88.887273 
L 364.786267 484.232727 
L 365.710429 484.232727 
L 366.634591 90.008975 
L 367.558754 88.887273 
L 368.482916 484.232727 
L 369.407079 484.232727 
L 370.331241 480.564206 
L 371.255403 484.228215 
L 373.103728 484.232727 
L 374.02789 88.887273 
L 374.952053 484.232727 
L 375.876215 484.226836 
L 376.800378 409.05672 
L 377.72454 152.147822 
L 378.648702 88.887273 
L 379.572865 484.232727 
L 380.497027 88.887273 
L 381.421189 88.887273 
L 382.345352 484.232727 
L 383.269514 484.232727 
L 384.193677 88.887662 
L 385.117839 88.887273 
L 386.042001 484.232727 
L 386.966164 484.232727 
L 387.890326 90.851368 
L 388.814488 88.887273 
L 389.738651 156.592073 
L 390.662813 211.31671 
L 391.586976 484.232727 
L 392.511138 88.887273 
L 393.4353 105.984371 
L 394.359463 484.232727 
L 395.283625 484.232727 
L 396.207787 104.498139 
L 397.13195 484.232727 
L 398.056112 88.887273 
L 398.980275 484.232715 
L 399.904437 88.887273 
L 400.828599 484.232727 
L 401.752762 88.887273 
L 404.525249 88.887273 
L 405.449411 484.232727 
L 406.373574 484.232727 
L 407.297736 483.559421 
L 408.221898 484.225776 
L 410.070223 484.232727 
L 410.994385 88.887273 
L 411.918548 484.232727 
L 412.84271 484.209234 
L 413.766873 426.147833 
L 414.691035 484.232727 
L 415.615197 88.887273 
L 416.53936 484.232727 
L 417.463522 88.887273 
L 418.387684 484.232727 
L 419.311847 88.887273 
L 420.236009 484.232727 
L 421.160172 484.232727 
L 422.084334 90.012297 
L 423.008496 88.887273 
L 423.932659 484.232727 
L 424.856821 484.232727 
L 425.780983 101.640363 
L 426.705146 88.887273 
L 428.553471 88.887273 
L 429.477633 484.232727 
L 430.401795 88.887273 
L 431.325958 484.232727 
L 432.25012 202.182827 
L 433.174282 88.887332 
L 434.098445 484.232727 
L 435.022607 88.887285 
L 435.94677 484.232727 
L 436.870932 88.887273 
L 437.795094 484.232727 
L 438.719257 88.887273 
L 439.643419 88.887273 
L 440.567581 484.232727 
L 441.491744 484.232727 
L 442.415906 104.321806 
L 443.340069 88.887273 
L 444.264231 484.232727 
L 447.036718 484.232727 
L 447.96088 88.887273 
L 448.885043 88.887273 
L 449.809205 484.232727 
L 450.733368 88.887273 
L 451.65753 484.232727 
L 452.581692 484.21265 
L 453.505855 88.90299 
L 454.430017 484.232727 
L 455.354179 88.887273 
L 456.278342 484.232727 
L 457.202504 484.232727 
L 458.126667 88.887308 
L 459.050829 88.887273 
L 459.974991 484.232727 
L 460.899154 484.232727 
L 461.823316 91.467236 
L 462.747478 88.887273 
L 463.671641 118.027371 
L 464.595803 484.232727 
L 465.519966 484.232727 
L 466.444128 88.887273 
L 467.36829 484.232727 
L 468.292453 484.232727 
L 469.216615 455.778601 
L 470.140777 483.002865 
L 471.06494 109.341347 
L 471.989102 484.232727 
L 472.913265 88.887273 
L 473.837427 484.232727 
L 474.761589 88.887273 
L 475.685752 484.232727 
L 476.609914 484.232727 
L 477.534076 89.130634 
L 478.458239 449.003122 
L 479.382401 484.232727 
L 480.306564 484.232715 
L 481.230726 216.907458 
L 482.154888 388.478814 
L 483.079051 484.232727 
L 484.003213 484.232727 
L 484.927375 88.887273 
L 485.851538 484.222972 
L 486.7757 88.887273 
L 487.699863 484.232727 
L 488.624025 88.887273 
L 489.548187 484.232727 
L 490.47235 88.887273 
L 491.396512 484.232727 
L 492.320674 88.887273 
L 493.244837 88.887273 
L 494.168999 484.232727 
L 495.093162 484.232727 
L 496.017324 88.906878 
L 497.865649 88.887273 
L 498.789811 477.447846 
L 499.713973 484.232727 
L 500.638136 481.38043 
L 501.562298 484.232727 
L 502.486461 484.232727 
L 503.410623 88.887273 
L 504.334785 484.232727 
L 505.258948 484.232727 
L 506.18311 449.243491 
L 507.107272 481.585111 
L 508.031435 91.657188 
L 508.955597 484.232727 
L 509.87976 88.887273 
L 510.803922 484.232727 
L 511.728084 88.887273 
L 512.652247 484.232727 
L 513.576409 484.232727 
L 514.500571 88.895461 
L 515.424734 484.232727 
L 516.348896 88.887273 
L 517.273059 484.232727 
L 518.197221 88.887273 
L 519.121383 484.232727 
L 520.045546 106.825597 
L 520.969708 484.232727 
L 521.89387 88.887273 
L 522.818033 484.232727 
L 523.742195 88.887273 
L 524.666358 484.232727 
L 525.59052 88.887273 
L 526.514682 484.232727 
L 527.438845 484.232727 
L 528.363007 88.887273 
L 529.287169 484.232727 
L 530.211332 88.887273 
L 531.135494 484.232727 
L 532.059657 484.232727 
L 532.983819 88.90973 
L 534.832144 88.889841 
L 535.756306 479.47071 
L 536.680468 484.232727 
L 537.604631 483.319252 
L 538.528793 484.232727 
L 539.452955 484.232727 
L 540.377118 88.887273 
L 541.30128 479.576491 
L 542.225443 89.122104 
L 543.149605 448.371077 
L 544.073767 88.887273 
L 544.99793 484.232727 
L 545.922092 88.887273 
L 546.846254 484.232727 
L 547.770417 88.887273 
L 548.694579 482.865142 
L 549.618742 99.969681 
L 550.542904 484.232727 
L 551.467066 88.887273 
L 552.391229 88.887296 
L 553.315391 484.232727 
L 554.239553 88.887273 
L 555.163716 88.887273 
L 556.087878 365.418744 
L 557.012041 484.232727 
L 557.936203 88.887273 
L 558.860365 88.963775 
L 559.784528 484.232727 
L 560.70869 193.42142 
L 561.632852 484.232727 
L 562.557015 484.232727 
L 563.481177 88.887273 
L 564.40534 484.232727 
L 565.329502 88.887273 
L 566.253664 484.232727 
L 567.177827 88.887355 
L 568.101989 484.232727 
L 569.026151 88.887779 
L 569.950314 484.232727 
L 570.874476 88.887273 
L 571.798639 484.232727 
L 572.722801 484.232727 
L 573.646963 88.887603 
L 574.571126 88.887273 
L 575.495288 346.501524 
L 576.41945 484.232727 
L 577.343613 88.887367 
L 578.267775 88.887285 
L 579.191938 484.232727 
L 580.1161 88.887273 
L 581.040262 484.232727 
L 581.964425 88.887273 
L 582.888587 484.232727 
L 583.812749 88.921194 
L 584.736912 484.232727 
L 585.661074 88.887273 
L 586.585237 478.726899 
L 587.509399 188.901139 
L 588.433561 484.232727 
L 589.357724 88.887273 
L 590.281886 484.232727 
L 591.206048 88.887273 
L 592.130211 88.887273 
L 593.054373 123.319352 
L 593.978536 484.232727 
L 594.902698 88.887273 
L 595.82686 484.232727 
L 596.751023 88.887273 
L 598.599347 88.887273 
L 599.52351 484.232727 
L 600.447672 88.887273 
L 601.371835 484.232727 
L 602.295997 484.232715 
L 603.220159 482.632573 
L 604.144322 478.346605 
L 605.992646 445.608949 
L 606.916809 110.811119 
L 607.840971 484.232727 
L 608.765134 88.887273 
L 609.689296 484.232727 
L 610.613458 484.232727 
L 611.537621 98.168475 
L 612.461783 88.887285 
L 613.385945 89.119052 
L 615.23427 88.887273 
L 616.158433 484.232727 
L 617.082595 88.887285 
L 618.006757 88.887296 
L 618.93092 92.982876 
L 619.855082 89.810763 
L 620.779244 88.887367 
L 621.703407 484.232727 
L 622.627569 88.887273 
L 623.551732 484.232727 
L 624.475894 88.887273 
L 625.400056 484.232727 
L 626.324219 88.887273 
L 627.248381 484.232715 
L 628.172543 88.891008 
L 629.096706 484.232727 
L 630.020868 88.887273 
L 630.945031 484.232727 
L 631.869193 88.887367 
L 632.793355 484.232727 
L 633.717518 88.887273 
L 635.565842 88.961772 
L 636.490005 126.634301 
L 637.414167 484.232503 
L 638.33833 484.232727 
L 639.262492 482.925856 
L 640.186654 484.09365 
L 641.110817 484.232727 
L 642.034979 484.232727 
L 642.959141 88.887273 
L 643.883304 484.232727 
L 644.807466 88.887273 
L 645.731629 484.232727 
L 646.655791 88.887273 
L 647.579953 484.232727 
L 648.504116 88.887296 
L 649.428278 484.232715 
L 650.35244 88.887273 
L 651.276603 88.887273 
L 652.200765 89.065608 
L 653.124928 88.899208 
L 654.973252 88.891255 
L 655.897415 484.232727 
L 656.821577 484.157227 
L 658.669902 88.924434 
L 659.594064 89.109839 
L 660.518227 484.232727 
L 661.442389 484.232727 
L 662.366551 483.747489 
L 663.290714 482.088329 
L 664.214876 484.159878 
L 664.214876 484.159878 
" style="fill:none;stroke:#1f77b4;stroke-linecap:square;stroke-width:1.5;"/>
   </g>
   <g id="line2d_17">
    <path clip-path="url(#pc5895e7d6e)" d="M 203.057851 483.182696 
L 203.982014 477.248161 
L 204.906176 484.232551 
L 205.830338 468.466713 
L 206.754501 426.806058 
L 207.678663 484.232715 
L 208.602825 311.121265 
L 209.526988 481.915673 
L 210.45115 430.368963 
L 211.375313 484.165121 
L 212.299475 436.088933 
L 213.223637 484.232727 
L 214.1478 88.936511 
L 215.071962 484.232727 
L 215.996124 484.106163 
L 216.920287 484.232727 
L 217.844449 126.314532 
L 218.768612 484.230701 
L 219.692774 484.144361 
L 220.616936 484.232727 
L 221.541099 97.302388 
L 222.465261 484.232727 
L 223.389423 484.232727 
L 224.313586 101.507919 
L 225.237748 97.811168 
L 226.161911 482.274488 
L 227.086073 484.085037 
L 228.010235 484.209634 
L 228.934398 312.23538 
L 229.85856 484.232727 
L 230.782722 446.148904 
L 231.706885 484.232727 
L 232.631047 88.887296 
L 233.55521 484.232727 
L 234.479372 484.226318 
L 235.403534 88.887273 
L 236.327697 484.232727 
L 238.176021 484.232727 
L 239.100184 89.499476 
L 240.024346 88.890348 
L 240.948509 89.872313 
L 241.872671 484.232727 
L 242.796833 484.231243 
L 243.720996 88.887296 
L 244.645158 484.232727 
L 245.56932 484.115376 
L 246.493483 484.232727 
L 247.417645 88.887744 
L 248.341808 484.232727 
L 249.26597 88.89208 
L 250.190132 484.232727 
L 251.114295 88.887273 
L 252.038457 484.232727 
L 252.962619 88.887273 
L 253.886782 484.232727 
L 254.810944 484.232727 
L 255.735107 123.457675 
L 256.659269 484.232727 
L 257.583431 88.913806 
L 258.507594 484.232727 
L 262.204243 484.232727 
L 263.128406 88.887273 
L 264.052568 484.232727 
L 264.97673 484.232727 
L 265.900893 474.147943 
L 266.825055 484.232727 
L 267.749217 187.83195 
L 268.67338 484.232727 
L 269.597542 88.894931 
L 270.521705 484.232727 
L 274.218354 484.232727 
L 275.142516 480.954598 
L 276.066679 484.232727 
L 276.990841 88.887273 
L 277.915004 88.887485 
L 278.839166 93.817775 
L 279.763328 484.232727 
L 280.687491 484.232727 
L 281.611653 88.887273 
L 282.535815 484.232727 
L 283.459978 484.232727 
L 284.38414 484.088124 
L 285.308303 484.232727 
L 287.156627 484.232727 
L 288.08079 88.887273 
L 289.004952 484.232727 
L 289.929114 88.887273 
L 290.853277 484.232727 
L 291.777439 484.232727 
L 292.701602 405.161202 
L 293.625764 484.232715 
L 294.549926 193.899796 
L 295.474089 484.232727 
L 299.170738 484.232727 
L 300.094901 88.887273 
L 301.019063 484.232727 
L 301.943225 484.232727 
L 302.867388 482.420399 
L 303.79155 481.475807 
L 304.715712 267.232588 
L 305.639875 189.497466 
L 306.564037 484.232727 
L 307.4882 484.172273 
L 309.336524 484.232692 
L 310.260687 88.887285 
L 311.184849 484.232727 
L 312.109011 484.232727 
L 313.033174 300.10144 
L 313.957336 88.888875 
L 314.881499 484.232727 
L 317.653986 484.232727 
L 318.578148 88.887273 
L 319.50231 484.232727 
L 320.426473 484.232727 
L 321.350635 483.73778 
L 322.274798 483.553919 
L 323.19896 480.805647 
L 324.123122 185.028078 
L 325.047285 484.232727 
L 325.971447 484.232727 
L 326.895609 88.888133 
L 327.819772 484.232727 
L 328.743934 484.232727 
L 329.668097 471.931072 
L 330.592259 88.895014 
L 331.516421 484.232727 
L 332.440584 484.232727 
L 333.364746 482.820488 
L 334.288908 483.846424 
L 335.213071 484.232727 
L 336.137233 484.232727 
L 337.061396 88.887273 
L 337.985558 484.232727 
L 338.90972 484.232727 
L 339.833883 477.018219 
L 340.758045 484.155424 
L 341.682207 482.24561 
L 342.60637 107.145543 
L 343.530532 484.232727 
L 344.454695 484.232727 
L 345.378857 88.887273 
L 346.303019 484.232727 
L 347.227182 484.232727 
L 348.151344 481.24609 
L 349.075506 88.937053 
L 349.999669 484.232727 
L 350.923831 484.232727 
L 351.847994 208.694461 
L 352.772156 88.888168 
L 354.620481 88.887273 
L 355.544643 484.232727 
L 356.468805 90.447238 
L 357.392968 484.218176 
L 358.31713 143.967515 
L 359.241293 484.232727 
L 360.165455 376.153347 
L 361.089617 295.896947 
L 362.01378 484.232727 
L 362.937942 484.232715 
L 363.862104 88.915821 
L 364.786267 484.232727 
L 365.710429 484.232727 
L 366.634591 477.707102 
L 367.558754 88.899573 
L 368.482916 484.232727 
L 369.407079 484.232727 
L 370.331241 483.722546 
L 371.255403 484.23202 
L 373.103728 484.232727 
L 374.02789 88.887273 
L 374.952053 484.232727 
L 375.876215 484.232727 
L 376.800378 481.728984 
L 377.72454 470.263406 
L 378.648702 91.01633 
L 379.572865 484.232727 
L 380.497027 484.232727 
L 381.421189 92.606682 
L 382.345352 484.232727 
L 384.193677 484.232704 
L 385.117839 88.890843 
L 386.042001 484.232727 
L 386.966164 484.232727 
L 387.890326 105.134591 
L 388.814488 89.164214 
L 389.738651 470.08996 
L 390.662813 484.232727 
L 391.586976 484.232727 
L 392.511138 88.887273 
L 393.4353 484.232727 
L 395.283625 484.232727 
L 396.207787 166.610229 
L 397.13195 484.232727 
L 398.980275 484.232727 
L 399.904437 482.550216 
L 400.828599 484.232727 
L 402.676924 484.232727 
L 403.601086 361.610739 
L 404.525249 109.759792 
L 405.449411 484.232727 
L 406.373574 484.232727 
L 407.297736 484.054757 
L 408.221898 484.229322 
L 410.070223 484.232727 
L 410.994385 88.887273 
L 411.918548 484.232727 
L 412.84271 484.232727 
L 413.766873 477.438609 
L 414.691035 484.232727 
L 415.615197 207.261125 
L 416.53936 484.232727 
L 417.463522 88.887273 
L 418.387684 484.232727 
L 421.160172 484.232727 
L 422.084334 479.211513 
L 423.008496 88.986715 
L 423.932659 484.232727 
L 424.856821 484.232727 
L 425.780983 164.831858 
L 426.705146 88.88785 
L 427.629308 88.993501 
L 428.553471 88.887273 
L 429.477633 484.232727 
L 430.401795 97.127764 
L 431.325958 484.232727 
L 432.25012 481.341525 
L 433.174282 435.425736 
L 434.098445 484.232727 
L 435.022607 483.77414 
L 435.94677 484.232727 
L 436.870932 482.645286 
L 437.795094 484.232727 
L 438.719257 484.232727 
L 439.643419 88.887296 
L 440.567581 484.232727 
L 441.491744 484.232727 
L 442.415906 218.346556 
L 443.340069 88.88772 
L 444.264231 484.232727 
L 447.036718 484.232727 
L 447.96088 88.887273 
L 448.885043 484.232727 
L 449.809205 484.232727 
L 450.733368 88.887273 
L 451.65753 484.232727 
L 452.581692 484.232727 
L 453.505855 102.322954 
L 454.430017 484.232727 
L 455.354179 88.907244 
L 456.278342 484.232727 
L 458.126667 484.232727 
L 459.050829 88.890112 
L 459.974991 484.232727 
L 460.899154 484.232727 
L 461.823316 109.015946 
L 462.747478 89.063971 
L 463.671641 470.344962 
L 464.595803 484.232727 
L 465.519966 484.232727 
L 466.444128 88.887273 
L 467.36829 484.232727 
L 468.292453 484.232727 
L 469.216615 483.747712 
L 470.140777 484.152137 
L 471.06494 224.453972 
L 471.989102 484.232727 
L 472.913265 88.991404 
L 473.837427 484.232727 
L 476.609914 484.232727 
L 477.534076 412.585151 
L 478.458239 484.232727 
L 480.306564 484.232727 
L 481.230726 483.437086 
L 482.154888 483.257172 
L 483.079051 484.232727 
L 484.003213 484.232727 
L 484.927375 88.887273 
L 485.851538 484.232727 
L 486.7757 89.813708 
L 487.699863 484.232727 
L 489.548187 484.232727 
L 490.47235 92.940707 
L 491.396512 484.232727 
L 492.320674 89.431894 
L 493.244837 88.89175 
L 494.168999 484.232727 
L 495.093162 484.232727 
L 496.017324 444.816065 
L 496.941486 484.232727 
L 497.865649 472.083616 
L 498.789811 484.076578 
L 499.713973 484.232727 
L 502.486461 484.232727 
L 503.410623 88.887273 
L 504.334785 484.232727 
L 505.258948 484.232727 
L 506.18311 483.759424 
L 507.107272 484.096442 
L 508.031435 160.099532 
L 508.955597 484.232727 
L 509.87976 482.237798 
L 510.803922 484.232727 
L 513.576409 484.232727 
L 514.500571 98.042818 
L 515.424734 484.232727 
L 517.273059 484.232727 
L 518.197221 89.641511 
L 519.121383 484.232727 
L 520.969708 484.232727 
L 521.89387 88.887273 
L 522.818033 484.232727 
L 523.742195 88.887273 
L 524.666358 484.232727 
L 525.59052 88.887273 
L 526.514682 484.232727 
L 529.287169 484.232727 
L 530.211332 88.887273 
L 531.135494 484.232727 
L 532.059657 484.232727 
L 532.983819 452.209298 
L 533.907981 484.232727 
L 534.832144 473.94206 
L 535.756306 481.119926 
L 536.680468 484.232727 
L 539.452955 484.232727 
L 540.377118 88.887273 
L 541.30128 481.659327 
L 542.225443 484.227578 
L 543.149605 448.331642 
L 544.073767 424.325501 
L 544.99793 484.232727 
L 545.922092 89.134581 
L 546.846254 484.232727 
L 547.770417 89.720994 
L 548.694579 484.230194 
L 549.618742 474.763575 
L 550.542904 484.232727 
L 551.467066 88.887273 
L 552.391229 484.23043 
L 553.315391 484.232727 
L 554.239553 88.887273 
L 555.163716 88.887285 
L 556.087878 476.251056 
L 557.012041 484.232727 
L 557.936203 118.674391 
L 558.860365 89.42797 
L 559.784528 484.232727 
L 562.557015 484.232727 
L 564.40534 484.232727 
L 565.329502 95.359725 
L 566.253664 484.232727 
L 567.177827 102.770454 
L 568.101989 484.232727 
L 569.026151 215.77451 
L 569.950314 484.232727 
L 572.722801 484.232727 
L 573.646963 90.671383 
L 574.571126 88.924929 
L 575.495288 449.152391 
L 576.41945 484.232727 
L 577.343613 353.293363 
L 578.267775 484.230442 
L 579.191938 484.232727 
L 580.1161 96.270007 
L 581.040262 484.232727 
L 581.964425 97.459575 
L 582.888587 484.232727 
L 584.736912 484.232727 
L 585.661074 88.887273 
L 586.585237 484.232668 
L 588.433561 484.232727 
L 589.357724 88.887273 
L 590.281886 484.232727 
L 591.206048 102.95699 
L 592.130211 88.887273 
L 593.054373 165.055284 
L 593.978536 484.232727 
L 594.902698 88.98391 
L 595.82686 484.232727 
L 596.751023 89.301323 
L 597.675185 88.887273 
L 598.599347 484.232727 
L 602.295997 484.232727 
L 603.220159 484.031098 
L 604.144322 481.795789 
L 605.068484 471.220534 
L 605.992646 456.69435 
L 606.916809 398.131934 
L 607.840971 484.232727 
L 608.765134 88.887273 
L 609.689296 484.232727 
L 610.613458 484.232727 
L 611.537621 321.7031 
L 612.461783 88.941176 
L 613.385945 90.108959 
L 614.310108 94.642153 
L 615.23427 484.232727 
L 616.158433 484.232727 
L 617.082595 195.035483 
L 618.006757 88.889806 
L 618.93092 190.722451 
L 619.855082 97.790631 
L 620.779244 89.038933 
L 621.703407 484.232727 
L 622.627569 88.887273 
L 623.551732 484.232727 
L 624.475894 88.887332 
L 625.400056 484.232727 
L 627.248381 484.232727 
L 628.172543 96.849822 
L 629.096706 484.232727 
L 630.945031 484.232727 
L 631.869193 329.754187 
L 632.793355 484.232727 
L 633.717518 97.638617 
L 634.64168 89.369813 
L 635.565842 91.554071 
L 636.490005 398.881059 
L 637.414167 484.232727 
L 638.33833 484.232727 
L 639.262492 484.117191 
L 641.110817 484.232727 
L 642.034979 484.232727 
L 642.959141 88.887273 
L 643.883304 484.232727 
L 644.807466 112.569461 
L 645.731629 484.232727 
L 646.655791 89.287621 
L 647.579953 484.232727 
L 648.504116 162.1648 
L 649.428278 484.232727 
L 650.35244 88.887273 
L 651.276603 88.887308 
L 652.200765 484.162317 
L 653.124928 484.074433 
L 654.04909 88.887591 
L 654.973252 461.850435 
L 655.897415 484.232727 
L 656.821577 484.232715 
L 657.745739 317.043321 
L 658.669902 95.374052 
L 659.594064 366.776809 
L 660.518227 484.232727 
L 661.442389 484.232727 
L 663.290714 483.92593 
L 664.214876 484.227755 
L 664.214876 484.227755 
" style="fill:none;stroke:#ff7f0e;stroke-linecap:square;stroke-width:1.5;"/>
   </g>
   <g id="line2d_18">
    <path clip-path="url(#pc5895e7d6e)" d="M 203.057851 482.956973 
L 203.982014 240.313946 
L 204.906176 484.231808 
L 205.830338 473.090854 
L 206.754501 273.388224 
L 207.678663 484.231137 
L 208.602825 155.16758 
L 209.526988 460.066726 
L 210.45115 216.537597 
L 211.375313 483.939185 
L 212.299475 313.061548 
L 213.223637 484.232727 
L 214.1478 88.887308 
L 215.071962 484.232727 
L 215.996124 483.313491 
L 216.920287 484.232727 
L 217.844449 89.47881 
L 218.768612 484.190241 
L 220.616936 484.232727 
L 221.541099 89.220792 
L 222.465261 484.231643 
L 223.389423 484.232727 
L 224.313586 100.26988 
L 225.237748 132.359985 
L 226.161911 480.365004 
L 227.086073 426.832968 
L 228.010235 484.224951 
L 228.934398 264.448834 
L 229.85856 484.232727 
L 230.782722 255.101363 
L 231.706885 484.232727 
L 232.631047 88.887273 
L 233.55521 484.232727 
L 234.479372 484.230618 
L 235.403534 88.887273 
L 236.327697 484.232727 
L 237.251859 483.683511 
L 238.176021 484.232727 
L 239.100184 88.887273 
L 240.024346 88.892999 
L 240.948509 484.213664 
L 241.872671 484.232727 
L 242.796833 88.887273 
L 243.720996 89.002244 
L 244.645158 484.232727 
L 245.56932 460.600849 
L 246.493483 484.232727 
L 247.417645 89.242707 
L 248.341808 484.232727 
L 249.26597 88.887273 
L 250.190132 484.232727 
L 251.114295 88.887273 
L 252.038457 484.232727 
L 252.962619 88.887273 
L 253.886782 484.232727 
L 254.810944 484.232727 
L 255.735107 88.908858 
L 256.659269 484.232727 
L 257.583431 88.887273 
L 258.507594 484.232727 
L 259.431756 484.232727 
L 260.355918 484.087735 
L 261.280081 484.232727 
L 262.204243 484.232727 
L 263.128406 88.887273 
L 264.052568 484.232727 
L 264.97673 484.232727 
L 265.900893 180.612659 
L 266.825055 484.232079 
L 267.749217 88.896475 
L 268.67338 484.232727 
L 269.597542 88.887273 
L 270.521705 484.232727 
L 274.218354 484.232727 
L 275.142516 280.061672 
L 276.066679 484.232727 
L 276.990841 88.887273 
L 277.915004 88.889028 
L 278.839166 483.161135 
L 279.763328 484.232727 
L 280.687491 484.232727 
L 281.611653 88.887273 
L 282.535815 484.232727 
L 283.459978 484.232727 
L 284.38414 479.804948 
L 285.308303 484.232727 
L 289.004952 484.232727 
L 289.929114 88.887273 
L 290.853277 484.232727 
L 291.777439 484.232727 
L 292.701602 91.915431 
L 293.625764 484.232727 
L 294.549926 88.895073 
L 295.474089 484.232727 
L 299.170738 484.232727 
L 300.094901 88.887273 
L 301.019063 484.232727 
L 301.943225 484.232727 
L 302.867388 439.722143 
L 303.79155 277.542173 
L 304.715712 329.224005 
L 305.639875 88.978455 
L 306.564037 484.232727 
L 307.4882 89.135701 
L 308.412362 484.232551 
L 309.336524 484.232727 
L 310.260687 88.887273 
L 311.184849 484.232727 
L 312.109011 484.232727 
L 313.033174 176.939943 
L 313.957336 88.887285 
L 314.881499 484.232727 
L 317.653986 484.232727 
L 318.578148 88.887273 
L 319.50231 484.232727 
L 320.426473 484.232727 
L 321.350635 468.930484 
L 322.274798 477.624555 
L 323.19896 474.681017 
L 324.123122 99.326714 
L 325.047285 484.232727 
L 325.971447 484.232727 
L 326.895609 88.887273 
L 327.819772 484.232727 
L 328.743934 484.232727 
L 329.668097 175.168263 
L 330.592259 88.887273 
L 331.516421 484.232727 
L 332.440584 484.232727 
L 334.288908 457.283249 
L 335.213071 484.232315 
L 336.137233 484.232727 
L 337.061396 88.887273 
L 337.985558 484.232727 
L 338.90972 484.232727 
L 339.833883 257.818688 
L 340.758045 459.076089 
L 341.682207 484.232727 
L 342.60637 91.057474 
L 343.530532 484.23268 
L 344.454695 484.232727 
L 345.378857 88.887273 
L 346.303019 484.232727 
L 347.227182 484.232727 
L 348.151344 362.965746 
L 349.075506 88.887391 
L 349.999669 484.232727 
L 350.923831 484.232727 
L 351.847994 127.692626 
L 352.772156 88.887273 
L 353.696318 102.691513 
L 354.620481 88.887273 
L 355.544643 484.232727 
L 356.468805 484.117156 
L 357.392968 484.139648 
L 358.31713 116.750721 
L 359.241293 484.232727 
L 360.165455 478.94368 
L 361.089617 97.156242 
L 362.01378 484.232727 
L 362.937942 484.097314 
L 363.862104 88.887567 
L 364.786267 484.232727 
L 365.710429 484.232727 
L 366.634591 220.833692 
L 367.558754 89.011363 
L 368.482916 484.232727 
L 369.407079 484.232727 
L 370.331241 480.564524 
L 371.255403 484.224138 
L 373.103728 484.232727 
L 374.02789 88.887273 
L 374.952053 484.232727 
L 375.876215 484.232727 
L 376.800378 418.312649 
L 377.72454 439.742692 
L 378.648702 88.887273 
L 379.572865 484.232727 
L 380.497027 484.232727 
L 381.421189 88.887273 
L 382.345352 484.232727 
L 384.193677 484.232727 
L 385.117839 88.887296 
L 386.042001 484.232727 
L 386.966164 484.232727 
L 387.890326 92.137408 
L 388.814488 89.401024 
L 389.738651 408.215199 
L 390.662813 483.819513 
L 391.586976 484.232727 
L 395.283625 484.232727 
L 396.207787 114.343309 
L 397.13195 484.232668 
L 398.056112 88.888074 
L 398.980275 484.232704 
L 399.904437 88.887426 
L 400.828599 484.232727 
L 401.752762 89.196556 
L 402.676924 484.232727 
L 403.601086 479.199708 
L 404.525249 145.765987 
L 405.449411 484.232727 
L 406.373574 484.232727 
L 407.297736 483.827655 
L 408.221898 484.22283 
L 410.070223 484.232727 
L 410.994385 88.887273 
L 411.918548 484.232727 
L 412.84271 484.232727 
L 413.766873 476.276717 
L 414.691035 484.232727 
L 415.615197 88.894507 
L 416.53936 484.232727 
L 417.463522 88.887556 
L 418.387684 484.232727 
L 421.160172 484.232727 
L 422.084334 272.645388 
L 423.008496 88.986114 
L 423.932659 484.232727 
L 424.856821 484.232727 
L 425.780983 104.262389 
L 426.705146 89.74027 
L 427.629308 89.416223 
L 428.553471 88.887273 
L 429.477633 484.232727 
L 430.401795 384.290797 
L 431.325958 484.232727 
L 432.25012 484.232727 
L 433.174282 126.468997 
L 434.098445 484.230347 
L 435.022607 88.995587 
L 435.94677 484.232645 
L 436.870932 88.88732 
L 437.795094 484.232727 
L 438.719257 483.28063 
L 439.643419 88.887273 
L 440.567581 484.232727 
L 441.491744 484.232727 
L 442.415906 113.448414 
L 443.340069 89.012765 
L 444.264231 484.232727 
L 447.036718 484.232727 
L 447.96088 88.887273 
L 448.885043 88.887273 
L 449.809205 484.232727 
L 450.733368 88.887273 
L 451.65753 484.232727 
L 452.581692 484.232715 
L 453.505855 105.305409 
L 454.430017 484.232727 
L 455.354179 181.990094 
L 456.278342 484.232727 
L 458.126667 484.232704 
L 459.050829 88.887273 
L 459.974991 484.232727 
L 460.899154 484.232727 
L 461.823316 92.857678 
L 462.747478 89.484419 
L 463.671641 420.912289 
L 464.595803 484.232727 
L 465.519966 484.232727 
L 466.444128 88.887273 
L 467.36829 484.232727 
L 468.292453 484.232727 
L 469.216615 456.587262 
L 470.140777 482.640632 
L 471.06494 119.588938 
L 471.989102 484.232704 
L 472.913265 88.887273 
L 473.837427 484.232727 
L 476.609914 484.232727 
L 477.534076 90.095621 
L 478.458239 484.232727 
L 480.306564 484.232727 
L 481.230726 283.753995 
L 482.154888 484.214441 
L 484.003213 484.232727 
L 484.927375 88.887273 
L 485.851538 484.173698 
L 486.7757 88.887273 
L 487.699863 484.232727 
L 488.624025 219.182574 
L 489.548187 484.232727 
L 490.47235 132.073995 
L 491.396512 484.232727 
L 492.320674 477.375798 
L 493.244837 88.887273 
L 494.168999 484.232727 
L 495.093162 484.232727 
L 496.017324 94.85058 
L 496.941486 484.232727 
L 497.865649 421.525564 
L 498.789811 442.064883 
L 499.713973 484.232044 
L 500.638136 477.385271 
L 501.562298 484.232727 
L 502.486461 484.232727 
L 503.410623 88.887273 
L 504.334785 484.232727 
L 505.258948 484.232727 
L 506.18311 450.742636 
L 507.107272 482.028723 
L 508.031435 92.842043 
L 508.955597 484.232727 
L 509.87976 88.887296 
L 510.803922 484.232727 
L 513.576409 484.232727 
L 514.500571 88.9771 
L 515.424734 484.232727 
L 520.969708 484.232727 
L 521.89387 88.887273 
L 522.818033 484.232727 
L 523.742195 88.887273 
L 524.666358 484.232727 
L 525.59052 88.887273 
L 526.514682 484.232727 
L 527.438845 484.232727 
L 528.363007 483.559009 
L 529.287169 484.232727 
L 530.211332 88.887273 
L 531.135494 484.232727 
L 532.059657 484.232727 
L 532.983819 95.517572 
L 533.907981 484.232727 
L 534.832144 468.049646 
L 535.756306 477.857702 
L 536.680468 484.232727 
L 537.604631 482.74216 
L 538.528793 484.232727 
L 539.452955 484.232727 
L 540.377118 88.887273 
L 541.30128 480.467109 
L 542.225443 480.19818 
L 543.149605 451.673278 
L 544.073767 471.015088 
L 544.99793 484.232727 
L 545.922092 480.347189 
L 546.846254 484.232727 
L 547.770417 88.887273 
L 548.694579 481.832372 
L 549.618742 484.126428 
L 550.542904 484.232727 
L 551.467066 88.887273 
L 552.391229 484.190205 
L 553.315391 484.232727 
L 554.239553 88.887273 
L 555.163716 88.887273 
L 556.087878 465.810413 
L 557.012041 484.232727 
L 557.936203 91.313112 
L 558.860365 171.739981 
L 559.784528 484.232727 
L 560.70869 483.782352 
L 561.632852 484.232727 
L 564.40534 484.232727 
L 565.329502 163.267191 
L 566.253664 484.232704 
L 567.177827 89.02265 
L 568.101989 484.232727 
L 569.026151 90.478319 
L 569.950314 484.232727 
L 570.874476 88.887308 
L 571.798639 484.232727 
L 572.722801 484.232727 
L 573.646963 90.553525 
L 574.571126 88.904451 
L 575.495288 434.42955 
L 576.41945 484.232727 
L 577.343613 89.894699 
L 578.267775 484.232115 
L 579.191938 484.232727 
L 580.1161 484.081126 
L 581.040262 484.232727 
L 581.964425 88.887273 
L 582.888587 484.232727 
L 584.736912 484.232727 
L 585.661074 88.887273 
L 586.585237 484.192326 
L 589.357724 484.221758 
L 590.281886 484.232727 
L 591.206048 88.887273 
L 592.130211 88.887273 
L 593.054373 478.426795 
L 593.978536 484.232727 
L 594.902698 477.359196 
L 595.82686 484.232727 
L 597.675185 484.232727 
L 598.599347 88.887273 
L 599.52351 484.232727 
L 602.295997 484.232704 
L 603.220159 460.136677 
L 604.144322 466.613465 
L 605.068484 434.946813 
L 605.992646 428.926667 
L 606.916809 194.340468 
L 607.840971 484.232727 
L 608.765134 88.887273 
L 609.689296 484.232727 
L 610.613458 484.232727 
L 611.537621 196.864006 
L 612.461783 88.900622 
L 613.385945 136.180957 
L 614.310108 89.393083 
L 615.23427 484.232727 
L 616.158433 484.232727 
L 617.082595 88.887273 
L 618.006757 89.751404 
L 618.93092 104.274206 
L 619.855082 90.144352 
L 620.779244 91.053067 
L 621.703407 484.232727 
L 622.627569 88.887273 
L 623.551732 484.232727 
L 624.475894 88.887273 
L 625.400056 484.232692 
L 627.248381 484.21417 
L 628.172543 88.952075 
L 629.096706 484.232727 
L 630.945031 484.232727 
L 631.869193 236.987719 
L 632.793355 484.232727 
L 633.717518 88.887273 
L 634.64168 223.223096 
L 635.565842 88.92315 
L 636.490005 483.681225 
L 637.414167 484.229405 
L 638.33833 484.232633 
L 639.262492 483.165035 
L 640.186654 484.127818 
L 642.034979 484.232727 
L 642.959141 88.887273 
L 643.883304 484.232727 
L 645.731629 484.232727 
L 646.655791 88.900752 
L 647.579953 484.232727 
L 648.504116 88.939444 
L 649.428278 484.232079 
L 650.35244 88.887273 
L 651.276603 89.408918 
L 652.200765 484.213239 
L 653.124928 88.935273 
L 654.04909 306.248164 
L 654.973252 459.939006 
L 655.897415 484.232727 
L 656.821577 484.085202 
L 658.669902 92.656414 
L 659.594064 123.759665 
L 660.518227 484.232727 
L 661.442389 484.232645 
L 662.366551 483.16236 
L 663.290714 463.646174 
L 664.214876 482.958481 
L 664.214876 482.958481 
" style="fill:none;stroke:#2ca02c;stroke-linecap:square;stroke-width:1.5;"/>
   </g>
   <g id="line2d_19">
    <path clip-path="url(#pc5895e7d6e)" d="M 203.057851 482.868335 
L 203.982014 134.989528 
L 204.906176 484.225081 
L 205.830338 475.831126 
L 206.754501 484.121303 
L 207.678663 484.221004 
L 208.602825 484.006214 
L 209.526988 470.231028 
L 210.45115 432.157091 
L 211.375313 483.59809 
L 212.299475 470.616613 
L 213.223637 484.232715 
L 214.1478 413.195505 
L 215.071962 484.232704 
L 215.996124 483.863367 
L 216.920287 484.232727 
L 223.389423 484.232727 
L 224.313586 372.008624 
L 225.237748 240.748457 
L 226.161911 473.604523 
L 227.086073 434.595514 
L 228.010235 484.187507 
L 228.934398 474.039629 
L 229.85856 484.232727 
L 231.706885 484.232727 
L 232.631047 483.679988 
L 233.55521 484.232444 
L 239.100184 484.232727 
L 240.024346 177.002506 
L 240.948509 483.910684 
L 241.872671 484.232727 
L 242.796833 484.232727 
L 243.720996 287.265386 
L 244.645158 484.232727 
L 248.341808 484.232727 
L 249.26597 88.921594 
L 250.190132 484.232727 
L 251.114295 88.887273 
L 252.038457 484.232727 
L 252.962619 88.887273 
L 253.886782 484.232727 
L 254.810944 484.232727 
L 255.735107 103.842164 
L 256.659269 484.232727 
L 259.431756 484.232727 
L 260.355918 483.951733 
L 261.280081 484.232727 
L 264.97673 484.232727 
L 265.900893 264.302025 
L 266.825055 484.232586 
L 267.749217 343.669917 
L 268.67338 484.232727 
L 269.597542 88.888345 
L 270.521705 484.232727 
L 276.990841 484.232727 
L 277.915004 89.90244 
L 278.839166 484.018927 
L 279.763328 484.232727 
L 283.459978 484.232727 
L 284.38414 482.753188 
L 285.308303 484.232727 
L 291.777439 484.232727 
L 292.701602 141.137757 
L 293.625764 484.232727 
L 301.943225 484.232727 
L 302.867388 450.121325 
L 303.79155 382.323598 
L 304.715712 484.207148 
L 306.564037 484.232727 
L 307.4882 483.439443 
L 308.412362 484.232715 
L 309.336524 484.232727 
L 310.260687 89.139636 
L 311.184849 484.232727 
L 312.109011 484.232692 
L 313.033174 206.208644 
L 313.957336 483.813151 
L 314.881499 484.232727 
L 320.426473 484.232727 
L 321.350635 468.024232 
L 322.274798 476.783152 
L 323.19896 476.04072 
L 324.123122 111.962571 
L 325.047285 484.232727 
L 328.743934 484.232727 
L 329.668097 326.059668 
L 330.592259 483.577012 
L 331.516421 484.232727 
L 332.440584 484.232727 
L 333.364746 475.492411 
L 334.288908 453.36366 
L 335.213071 484.232468 
L 338.90972 484.232727 
L 339.833883 286.587782 
L 340.758045 480.678293 
L 341.682207 484.232715 
L 342.60637 184.247141 
L 343.530532 484.210777 
L 347.227182 484.232727 
L 348.151344 474.959289 
L 349.075506 484.232727 
L 350.923831 484.232727 
L 351.847994 139.131034 
L 352.772156 91.427612 
L 353.696318 222.462295 
L 354.620481 484.232704 
L 357.392968 484.232727 
L 358.31713 483.800956 
L 359.241293 484.232727 
L 360.165455 483.681249 
L 361.089617 484.232727 
L 365.710429 484.232715 
L 366.634591 367.102546 
L 367.558754 484.232727 
L 369.407079 484.232727 
L 370.331241 481.428054 
L 371.255403 484.227355 
L 373.103728 484.232727 
L 374.02789 434.18633 
L 374.952053 484.232727 
L 375.876215 484.232727 
L 376.800378 428.603387 
L 377.72454 482.712987 
L 378.648702 484.232727 
L 386.966164 484.232727 
L 387.890326 93.236665 
L 388.814488 450.267742 
L 389.738651 437.036129 
L 390.662813 484.23083 
L 395.283625 484.232727 
L 396.207787 118.39024 
L 397.13195 484.232704 
L 398.056112 401.912905 
L 398.980275 484.231973 
L 399.904437 421.360013 
L 400.828599 484.232727 
L 401.752762 483.330457 
L 402.676924 484.232727 
L 406.373574 484.232727 
L 407.297736 483.61865 
L 408.221898 484.226813 
L 410.070223 484.232727 
L 410.994385 483.704719 
L 411.918548 484.232727 
L 412.84271 484.232727 
L 413.766873 478.968376 
L 414.691035 484.232727 
L 421.160172 484.232727 
L 422.084334 441.844473 
L 423.008496 484.229911 
L 424.856821 484.232727 
L 425.780983 117.934021 
L 426.705146 132.538757 
L 427.629308 110.211263 
L 428.553471 484.228851 
L 432.25012 484.232727 
L 433.174282 476.609612 
L 434.098445 484.054451 
L 435.022607 287.26323 
L 435.94677 484.232715 
L 436.870932 279.115303 
L 437.795094 484.232727 
L 441.491744 484.232727 
L 442.415906 133.865116 
L 443.340069 483.37735 
L 444.264231 484.232727 
L 447.96088 484.232727 
L 448.885043 88.887273 
L 449.809205 484.232727 
L 452.581692 484.232704 
L 453.505855 454.728358 
L 454.430017 484.232727 
L 460.899154 484.232727 
L 461.823316 95.699135 
L 462.747478 438.847102 
L 463.671641 433.851585 
L 464.595803 484.232727 
L 468.292453 484.232727 
L 469.216615 463.004385 
L 470.140777 483.084692 
L 471.06494 155.935498 
L 471.989102 484.232715 
L 472.913265 88.888262 
L 473.837427 484.232727 
L 476.609914 484.232727 
L 477.534076 152.216218 
L 478.458239 484.232727 
L 480.306564 484.232727 
L 481.230726 451.373232 
L 482.154888 484.204026 
L 485.851538 484.230147 
L 486.7757 482.609162 
L 487.699863 484.232727 
L 489.548187 484.232727 
L 490.47235 483.764915 
L 491.396512 484.232727 
L 492.320674 482.749889 
L 493.244837 484.232727 
L 495.093162 484.232727 
L 496.017324 303.968263 
L 496.941486 484.232727 
L 497.865649 478.953401 
L 498.789811 427.634583 
L 499.713973 483.970726 
L 500.638136 475.526414 
L 501.562298 484.232727 
L 505.258948 484.232727 
L 506.18311 456.234596 
L 507.107272 482.055634 
L 508.031435 113.588587 
L 508.955597 484.232727 
L 509.87976 175.700819 
L 510.803922 484.232727 
L 513.576409 484.232727 
L 514.500571 121.503053 
L 515.424734 484.232727 
L 520.969708 484.232727 
L 521.89387 100.889177 
L 522.818033 484.232727 
L 523.742195 88.887273 
L 524.666358 484.232727 
L 525.59052 88.911579 
L 526.514682 484.232727 
L 529.287169 484.232727 
L 530.211332 113.260146 
L 531.135494 484.232727 
L 532.059657 484.232727 
L 532.983819 308.077026 
L 533.907981 484.232727 
L 534.832144 483.487231 
L 535.756306 472.16846 
L 536.680468 484.23268 
L 537.604631 481.893793 
L 538.528793 484.232727 
L 540.377118 484.232727 
L 541.30128 480.669315 
L 542.225443 404.675634 
L 543.149605 448.153106 
L 544.073767 484.232727 
L 547.770417 484.232727 
L 548.694579 483.500698 
L 549.618742 484.228486 
L 554.239553 484.232727 
L 555.163716 108.518407 
L 556.087878 474.276392 
L 557.012041 484.232727 
L 557.936203 484.232727 
L 558.860365 169.620632 
L 559.784528 484.232727 
L 566.253664 484.224656 
L 567.177827 451.480191 
L 568.101989 484.232727 
L 569.026151 383.781022 
L 569.950314 484.232727 
L 572.722801 484.232727 
L 574.571126 120.619081 
L 575.495288 453.853199 
L 576.41945 484.232727 
L 577.343613 406.686928 
L 578.267775 484.232621 
L 591.206048 484.232727 
L 592.130211 91.055765 
L 593.054373 475.55349 
L 593.978536 484.232727 
L 602.295997 484.231938 
L 603.220159 471.212722 
L 604.144322 455.000186 
L 605.068484 458.691082 
L 605.992646 439.475695 
L 606.916809 297.370083 
L 607.840971 484.232727 
L 610.613458 484.232727 
L 611.537621 408.036804 
L 612.461783 90.537112 
L 613.385945 167.429847 
L 614.310108 90.675601 
L 615.23427 484.232727 
L 616.158433 484.232727 
L 617.082595 89.007934 
L 618.006757 133.082105 
L 618.93092 276.611717 
L 619.855082 91.536044 
L 620.779244 197.314958 
L 621.703407 484.232727 
L 623.551732 484.232727 
L 624.475894 88.888321 
L 625.400056 484.229216 
L 626.324219 484.232727 
L 627.248381 483.658144 
L 628.172543 141.719433 
L 629.096706 484.232727 
L 630.945031 484.232727 
L 631.869193 483.525453 
L 632.793355 484.232727 
L 633.717518 484.230394 
L 634.64168 360.363763 
L 635.565842 114.095317 
L 636.490005 483.65521 
L 637.414167 484.219166 
L 638.33833 484.23096 
L 639.262492 483.203987 
L 640.186654 484.071594 
L 641.110817 484.232727 
L 645.731629 484.232727 
L 646.655791 478.264235 
L 647.579953 484.232727 
L 648.504116 94.385336 
L 649.428278 484.22468 
L 650.35244 88.887273 
L 651.276603 89.232998 
L 652.200765 484.184797 
L 653.124928 91.297607 
L 654.04909 98.499273 
L 654.973252 481.294762 
L 655.897415 484.232727 
L 656.821577 484.037743 
L 657.745739 307.043642 
L 658.669902 157.506797 
L 659.594064 464.083223 
L 660.518227 484.232727 
L 661.442389 484.232492 
L 662.366551 483.566514 
L 663.290714 476.517346 
L 664.214876 483.395813 
L 664.214876 483.395813 
" style="fill:none;stroke:#d62728;stroke-linecap:square;stroke-width:1.5;"/>
   </g>
   <g id="patch_3">
    <path d="M 180 504 
L 180 69.12 
" style="fill:none;stroke:#000000;stroke-linecap:square;stroke-linejoin:miter;stroke-width:0.8;"/>
   </g>
   <g id="patch_4">
    <path d="M 687.272727 504 
L 687.272727 69.12 
" style="fill:none;stroke:#000000;stroke-linecap:square;stroke-linejoin:miter;stroke-width:0.8;"/>
   </g>
   <g id="patch_5">
    <path d="M 180 504 
L 687.272727 504 
" style="fill:none;stroke:#000000;stroke-linecap:square;stroke-linejoin:miter;stroke-width:0.8;"/>
   </g>
   <g id="patch_6">
    <path d="M 180 69.12 
L 687.272727 69.12 
" style="fill:none;stroke:#000000;stroke-linecap:square;stroke-linejoin:miter;stroke-width:0.8;"/>
   </g>
  </g>
  <g id="axes_2">
   <g id="patch_7">
    <path d="M 788.727273 504 
L 1296 504 
L 1296 69.12 
L 788.727273 69.12 
z
" style="fill:#ffffff;"/>
   </g>
   <g id="matplotlib.axis_3">
    <g id="xtick_7">
     <g id="line2d_20">
      <g>
       <use style="stroke:#000000;stroke-width:0.8;" x="811.785124" xlink:href="#m8969354590" y="504"/>
      </g>
     </g>
     <g id="text_16">
      <!-- 0 -->
      <g transform="translate(808.603874 518.598438)scale(0.1 -0.1)">
       <use xlink:href="#DejaVuSans-30"/>
      </g>
     </g>
    </g>
    <g id="xtick_8">
     <g id="line2d_21">
      <g>
       <use style="stroke:#000000;stroke-width:0.8;" x="904.201361" xlink:href="#m8969354590" y="504"/>
      </g>
     </g>
     <g id="text_17">
      <!-- 100 -->
      <g transform="translate(894.657611 518.598438)scale(0.1 -0.1)">
       <use xlink:href="#DejaVuSans-31"/>
       <use x="63.623047" xlink:href="#DejaVuSans-30"/>
       <use x="127.246094" xlink:href="#DejaVuSans-30"/>
      </g>
     </g>
    </g>
    <g id="xtick_9">
     <g id="line2d_22">
      <g>
       <use style="stroke:#000000;stroke-width:0.8;" x="996.617599" xlink:href="#m8969354590" y="504"/>
      </g>
     </g>
     <g id="text_18">
      <!-- 200 -->
      <g transform="translate(987.073849 518.598438)scale(0.1 -0.1)">
       <use xlink:href="#DejaVuSans-32"/>
       <use x="63.623047" xlink:href="#DejaVuSans-30"/>
       <use x="127.246094" xlink:href="#DejaVuSans-30"/>
      </g>
     </g>
    </g>
    <g id="xtick_10">
     <g id="line2d_23">
      <g>
       <use style="stroke:#000000;stroke-width:0.8;" x="1089.033836" xlink:href="#m8969354590" y="504"/>
      </g>
     </g>
     <g id="text_19">
      <!-- 300 -->
      <g transform="translate(1079.490086 518.598438)scale(0.1 -0.1)">
       <use xlink:href="#DejaVuSans-33"/>
       <use x="63.623047" xlink:href="#DejaVuSans-30"/>
       <use x="127.246094" xlink:href="#DejaVuSans-30"/>
      </g>
     </g>
    </g>
    <g id="xtick_11">
     <g id="line2d_24">
      <g>
       <use style="stroke:#000000;stroke-width:0.8;" x="1181.450074" xlink:href="#m8969354590" y="504"/>
      </g>
     </g>
     <g id="text_20">
      <!-- 400 -->
      <g transform="translate(1171.906324 518.598438)scale(0.1 -0.1)">
       <use xlink:href="#DejaVuSans-34"/>
       <use x="63.623047" xlink:href="#DejaVuSans-30"/>
       <use x="127.246094" xlink:href="#DejaVuSans-30"/>
      </g>
     </g>
    </g>
    <g id="xtick_12">
     <g id="line2d_25">
      <g>
       <use style="stroke:#000000;stroke-width:0.8;" x="1273.866311" xlink:href="#m8969354590" y="504"/>
      </g>
     </g>
     <g id="text_21">
      <!-- 500 -->
      <g transform="translate(1264.322561 518.598438)scale(0.1 -0.1)">
       <use xlink:href="#DejaVuSans-35"/>
       <use x="63.623047" xlink:href="#DejaVuSans-30"/>
       <use x="127.246094" xlink:href="#DejaVuSans-30"/>
      </g>
     </g>
    </g>
   </g>
   <g id="matplotlib.axis_4">
    <g id="ytick_10">
     <g id="line2d_26">
      <g>
       <use style="stroke:#000000;stroke-width:0.8;" x="788.727273" xlink:href="#m001e84cbdc" y="463.956631"/>
      </g>
     </g>
     <g id="text_22">
      <!-- −1000 -->
      <g transform="translate(747.897585 467.75585)scale(0.1 -0.1)">
       <use xlink:href="#DejaVuSans-2212"/>
       <use x="83.789062" xlink:href="#DejaVuSans-31"/>
       <use x="147.412109" xlink:href="#DejaVuSans-30"/>
       <use x="211.035156" xlink:href="#DejaVuSans-30"/>
       <use x="274.658203" xlink:href="#DejaVuSans-30"/>
      </g>
     </g>
    </g>
    <g id="ytick_11">
     <g id="line2d_27">
      <g>
       <use style="stroke:#000000;stroke-width:0.8;" x="788.727273" xlink:href="#m001e84cbdc" y="396.369644"/>
      </g>
     </g>
     <g id="text_23">
      <!-- 0 -->
      <g transform="translate(775.364773 400.168863)scale(0.1 -0.1)">
       <use xlink:href="#DejaVuSans-30"/>
      </g>
     </g>
    </g>
    <g id="ytick_12">
     <g id="line2d_28">
      <g>
       <use style="stroke:#000000;stroke-width:0.8;" x="788.727273" xlink:href="#m001e84cbdc" y="328.782657"/>
      </g>
     </g>
     <g id="text_24">
      <!-- 1000 -->
      <g transform="translate(756.277273 332.581875)scale(0.1 -0.1)">
       <use xlink:href="#DejaVuSans-31"/>
       <use x="63.623047" xlink:href="#DejaVuSans-30"/>
       <use x="127.246094" xlink:href="#DejaVuSans-30"/>
       <use x="190.869141" xlink:href="#DejaVuSans-30"/>
      </g>
     </g>
    </g>
    <g id="ytick_13">
     <g id="line2d_29">
      <g>
       <use style="stroke:#000000;stroke-width:0.8;" x="788.727273" xlink:href="#m001e84cbdc" y="261.19567"/>
      </g>
     </g>
     <g id="text_25">
      <!-- 2000 -->
      <g transform="translate(756.277273 264.994888)scale(0.1 -0.1)">
       <use xlink:href="#DejaVuSans-32"/>
       <use x="63.623047" xlink:href="#DejaVuSans-30"/>
       <use x="127.246094" xlink:href="#DejaVuSans-30"/>
       <use x="190.869141" xlink:href="#DejaVuSans-30"/>
      </g>
     </g>
    </g>
    <g id="ytick_14">
     <g id="line2d_30">
      <g>
       <use style="stroke:#000000;stroke-width:0.8;" x="788.727273" xlink:href="#m001e84cbdc" y="193.608682"/>
      </g>
     </g>
     <g id="text_26">
      <!-- 3000 -->
      <g transform="translate(756.277273 197.407901)scale(0.1 -0.1)">
       <use xlink:href="#DejaVuSans-33"/>
       <use x="63.623047" xlink:href="#DejaVuSans-30"/>
       <use x="127.246094" xlink:href="#DejaVuSans-30"/>
       <use x="190.869141" xlink:href="#DejaVuSans-30"/>
      </g>
     </g>
    </g>
    <g id="ytick_15">
     <g id="line2d_31">
      <g>
       <use style="stroke:#000000;stroke-width:0.8;" x="788.727273" xlink:href="#m001e84cbdc" y="126.021695"/>
      </g>
     </g>
     <g id="text_27">
      <!-- 4000 -->
      <g transform="translate(756.277273 129.820914)scale(0.1 -0.1)">
       <use xlink:href="#DejaVuSans-34"/>
       <use x="63.623047" xlink:href="#DejaVuSans-30"/>
       <use x="127.246094" xlink:href="#DejaVuSans-30"/>
       <use x="190.869141" xlink:href="#DejaVuSans-30"/>
      </g>
     </g>
    </g>
   </g>
   <g id="line2d_32">
    <path clip-path="url(#p6832d6f0c7)" d="M 811.785124 396.369644 
L 812.709286 416.64574 
L 813.633449 416.64574 
L 814.557611 416.533915 
L 817.330098 415.507747 
L 819.178423 415.027556 
L 821.95091 414.317173 
L 824.723397 414.130346 
L 827.495884 414.281304 
L 828.420047 414.638775 
L 829.344209 415.359139 
L 830.268371 414.990826 
L 831.192534 410.155459 
L 832.116696 402.526239 
L 833.040859 401.029999 
L 833.965021 402.847067 
L 834.889183 402.800264 
L 836.737508 400.103182 
L 837.66167 399.417376 
L 840.434158 397.990201 
L 841.35832 397.792675 
L 842.282482 397.764962 
L 844.130807 397.520695 
L 845.054969 397.378865 
L 846.903294 396.760138 
L 847.827457 396.679939 
L 848.751619 397.081563 
L 849.675781 397.357183 
L 852.448268 395.188794 
L 853.372431 394.889916 
L 854.296593 395.304626 
L 856.144918 395.550694 
L 862.614055 395.54077 
L 863.538217 395.260971 
L 866.310704 395.360885 
L 867.234866 395.163077 
L 868.159029 394.374382 
L 869.083191 393.082706 
L 870.007354 385.179554 
L 870.931516 378.345784 
L 871.855678 379.236376 
L 872.779841 379.246279 
L 873.704003 379.596007 
L 874.628165 379.714051 
L 879.248977 379.700689 
L 881.097302 379.277201 
L 884.793952 377.759584 
L 885.718114 377.632465 
L 886.642276 378.463495 
L 887.566439 379.064 
L 889.414763 362.597447 
L 890.338926 363.675531 
L 891.263088 363.687317 
L 892.187251 364.10938 
L 893.111413 364.319516 
L 894.959738 364.386673 
L 899.58055 363.870263 
L 900.504712 363.341182 
L 902.353037 363.211485 
L 903.277199 363.189437 
L 904.201361 362.754113 
L 905.125524 361.28411 
L 906.049686 358.954856 
L 906.973849 349.868053 
L 907.898011 343.959796 
L 908.822173 345.685615 
L 909.746336 345.698661 
L 910.670498 346.321736 
L 911.59466 346.624352 
L 913.442985 346.717325 
L 914.367148 346.751645 
L 917.139635 346.384741 
L 918.063797 346.129095 
L 918.987959 346.316702 
L 919.912122 346.258948 
L 920.836284 345.420658 
L 921.760447 345.187677 
L 922.684609 345.760551 
L 923.608771 345.149372 
L 924.532934 342.531953 
L 925.457096 332.164968 
L 926.381258 325.347222 
L 927.305421 327.236675 
L 928.229583 327.251405 
L 929.153746 327.938358 
L 930.077908 328.28466 
L 931.00207 328.41309 
L 933.774557 328.36071 
L 934.69872 328.097657 
L 935.622882 328.122064 
L 936.547045 327.943315 
L 937.471207 327.272655 
L 938.395369 326.952839 
L 939.319532 327.251851 
L 940.243694 326.890199 
L 941.167856 325.488094 
L 942.092019 323.663506 
L 943.016181 320.974331 
L 943.940343 309.441282 
L 944.864506 301.703614 
L 945.788668 303.80397 
L 946.712831 303.820519 
L 947.636993 304.586638 
L 948.561155 304.871626 
L 951.333642 304.93213 
L 952.257805 304.855985 
L 953.181967 304.561556 
L 954.10613 304.588858 
L 955.030292 304.388654 
L 955.954454 303.637637 
L 956.878617 303.070716 
L 957.802779 303.196467 
L 958.726941 302.790824 
L 959.651104 301.221038 
L 960.575266 301.197526 
L 961.499429 304.083855 
L 962.423591 314.328949 
L 963.347753 321.072486 
L 964.271916 320.779881 
L 965.196078 321.660133 
L 967.044403 321.859646 
L 970.741052 321.712332 
L 971.665215 321.443934 
L 972.589377 321.468816 
L 973.513539 321.286211 
L 974.437702 320.601053 
L 975.361864 320.223876 
L 976.286027 320.478417 
L 977.210189 320.108274 
L 978.134351 318.675478 
L 979.058514 316.772182 
L 979.982676 313.749698 
L 980.906838 301.431924 
L 981.831001 293.196884 
L 982.755163 295.255202 
L 983.679326 295.210432 
L 984.603488 295.988962 
L 985.52765 296.356483 
L 987.375975 296.504361 
L 988.300137 296.410057 
L 989.2243 296.197942 
L 990.148462 296.224803 
L 991.072625 296.050273 
L 992.920949 294.851406 
L 993.845112 294.88811 
L 994.769274 294.553649 
L 995.693436 293.271033 
L 996.617599 293.428501 
L 997.541761 294.950785 
L 998.465924 294.75603 
L 999.390086 286.519151 
L 1000.314248 281.627399 
L 1001.238411 284.296592 
L 1002.162573 284.567337 
L 1003.086735 285.116248 
L 1004.010898 285.524714 
L 1004.93506 285.634493 
L 1007.707547 285.338832 
L 1008.63171 285.171268 
L 1012.328359 283.985274 
L 1013.252522 284.055011 
L 1014.176684 283.569983 
L 1015.100846 281.92113 
L 1016.025009 279.717794 
L 1016.949171 276.225411 
L 1017.873333 261.681802 
L 1018.797496 251.796383 
L 1019.721658 254.161993 
L 1020.645821 254.181203 
L 1021.569983 255.057843 
L 1022.494145 255.493304 
L 1024.34247 255.699282 
L 1027.114957 255.378281 
L 1028.03912 254.938473 
L 1028.963282 254.368896 
L 1029.887444 253.492054 
L 1030.811607 252.918914 
L 1031.735769 253.153813 
L 1032.659931 252.679948 
L 1033.584094 250.847783 
L 1034.508256 250.997878 
L 1035.432419 254.428473 
L 1036.356581 268.738638 
L 1037.280743 278.992199 
L 1038.204906 278.663648 
L 1039.129068 279.618733 
L 1040.05323 279.84064 
L 1040.977393 280.20756 
L 1041.901555 280.291376 
L 1044.674042 280.048054 
L 1045.598205 279.922649 
L 1046.522367 279.680153 
L 1047.446529 279.188059 
L 1048.370692 279.221757 
L 1049.294854 278.92696 
L 1050.219017 277.803532 
L 1051.143179 277.732362 
L 1052.067341 278.739569 
L 1052.991504 277.919598 
L 1053.915666 274.410143 
L 1054.839828 259.951721 
L 1055.763991 250.194975 
L 1056.688153 252.580008 
L 1057.612316 251.738752 
L 1058.536478 251.760946 
L 1059.46064 251.998011 
L 1064.081452 251.679959 
L 1065.005615 251.446922 
L 1066.853939 250.060057 
L 1067.778102 250.10246 
L 1068.702264 249.715638 
L 1069.626426 248.232908 
L 1070.550589 248.404702 
L 1071.474751 250.174729 
L 1072.398914 250.057898 
L 1073.323076 236.128291 
L 1074.247238 225.790686 
L 1075.171401 228.34661 
L 1076.095563 228.367509 
L 1077.019725 229.310017 
L 1077.943888 229.778092 
L 1079.792213 230.021189 
L 1080.716375 229.917826 
L 1081.640537 229.990546 
L 1082.5647 229.922061 
L 1083.488862 229.451849 
L 1084.413024 228.842664 
L 1085.337187 227.9044 
L 1086.261349 227.70031 
L 1087.185512 227.325762 
L 1088.109674 225.781185 
L 1089.033836 223.816964 
L 1089.957999 222.15972 
L 1090.882161 219.321504 
L 1091.806323 202.988847 
L 1092.730486 191.924164 
L 1093.654648 194.706575 
L 1094.578811 194.728911 
L 1095.502973 195.215189 
L 1096.427135 195.203235 
L 1097.351298 195.375997 
L 1100.123785 195.13489 
L 1101.047947 194.895717 
L 1101.97211 195.093627 
L 1102.896272 194.823052 
L 1103.820434 193.808744 
L 1104.744597 193.433778 
L 1105.668759 193.224577 
L 1106.592921 192.468403 
L 1107.517084 191.073048 
L 1108.441246 188.412397 
L 1109.365409 184.031045 
L 1110.289571 166.120947 
L 1111.213733 154.196804 
L 1112.137896 157.182184 
L 1113.062058 157.206127 
L 1113.98622 158.304894 
L 1114.910383 158.846009 
L 1116.758707 159.13949 
L 1119.531195 158.723718 
L 1120.455357 158.17452 
L 1121.379519 157.46329 
L 1122.303682 156.368251 
L 1123.227844 156.436248 
L 1124.152006 156.269068 
L 1125.076169 154.936581 
L 1126.000331 153.155372 
L 1126.924494 151.871955 
L 1127.848656 148.86037 
L 1128.772818 137.552409 
L 1129.696981 133.032514 
L 1130.621143 135.468632 
L 1131.545305 134.78987 
L 1132.469468 135.136314 
L 1133.39363 134.921349 
L 1134.317793 135.074047 
L 1135.241955 134.9549 
L 1137.09028 134.368941 
L 1138.014442 133.875485 
L 1138.938604 133.945152 
L 1139.862767 133.844913 
L 1140.786929 132.693451 
L 1141.711092 132.256535 
L 1142.635254 132.007946 
L 1143.559416 131.079516 
L 1144.483579 129.292562 
L 1145.407741 126.144518 
L 1146.331903 121.144836 
L 1147.256066 101.549258 
L 1148.180228 88.887273 
L 1149.104391 484.232727 
L 1157.421852 484.173152 
L 1162.042664 483.943197 
L 1164.815151 483.955844 
L 1181.450074 483.969617 
L 1182.374236 483.909548 
L 1184.222561 484.039596 
L 1186.995048 483.937882 
L 1191.61586 483.839135 
L 1195.312509 483.859003 
L 1197.160834 483.87918 
L 1201.781646 483.837561 
L 1228.582355 483.850823 
L 1229.506517 481.081309 
L 1230.43068 465.048176 
L 1231.354842 465.555352 
L 1237.823979 465.422898 
L 1242.44479 464.575264 
L 1243.368953 464.824832 
L 1244.293115 465.265389 
L 1245.217278 465.405582 
L 1246.14144 464.774779 
L 1247.065602 463.700008 
L 1247.989765 462.253312 
L 1248.913927 460.089566 
L 1249.838089 455.899493 
L 1250.762252 482.949687 
L 1251.686414 483.840394 
L 1272.942149 483.85935 
L 1272.942149 483.85935 
" style="fill:none;stroke:#1f77b4;stroke-linecap:square;stroke-width:1.5;"/>
   </g>
   <g id="patch_8">
    <path d="M 788.727273 504 
L 788.727273 69.12 
" style="fill:none;stroke:#000000;stroke-linecap:square;stroke-linejoin:miter;stroke-width:0.8;"/>
   </g>
   <g id="patch_9">
    <path d="M 1296 504 
L 1296 69.12 
" style="fill:none;stroke:#000000;stroke-linecap:square;stroke-linejoin:miter;stroke-width:0.8;"/>
   </g>
   <g id="patch_10">
    <path d="M 788.727273 504 
L 1296 504 
" style="fill:none;stroke:#000000;stroke-linecap:square;stroke-linejoin:miter;stroke-width:0.8;"/>
   </g>
   <g id="patch_11">
    <path d="M 788.727273 69.12 
L 1296 69.12 
" style="fill:none;stroke:#000000;stroke-linecap:square;stroke-linejoin:miter;stroke-width:0.8;"/>
   </g>
  </g>
 </g>
 <defs>
  <clipPath id="pc5895e7d6e">
   <rect height="434.88" width="507.272727" x="180" y="69.12"/>
  </clipPath>
  <clipPath id="p6832d6f0c7">
   <rect height="434.88" width="507.272727" x="788.727273" y="69.12"/>
  </clipPath>
 </defs>
</svg>
