<?xml version="1.0" encoding="utf-8" standalone="no"?>
<!DOCTYPE svg PUBLIC "-//W3C//DTD SVG 1.1//EN"
  "http://www.w3.org/Graphics/SVG/1.1/DTD/svg11.dtd">
<svg height="576pt" version="1.1" viewBox="0 0 720 576" width="720pt" xmlns="http://www.w3.org/2000/svg" xmlns:xlink="http://www.w3.org/1999/xlink">
 <metadata>
  <rdf:RDF xmlns:cc="http://creativecommons.org/ns#" xmlns:dc="http://purl.org/dc/elements/1.1/" xmlns:rdf="http://www.w3.org/1999/02/22-rdf-syntax-ns#">
   <cc:Work>
    <dc:type rdf:resource="http://purl.org/dc/dcmitype/StillImage"/>
    <dc:date>2022-01-12T19:43:20.980363</dc:date>
    <dc:format>image/svg+xml</dc:format>
    <dc:creator>
     <cc:Agent>
      <dc:title>Matplotlib v3.4.3, https://matplotlib.org/</dc:title>
     </cc:Agent>
    </dc:creator>
   </cc:Work>
  </rdf:RDF>
 </metadata>
 <defs>
  <style type="text/css">*{stroke-linecap:butt;stroke-linejoin:round;}</style>
 </defs>
 <g id="figure_1">
  <g id="patch_1">
   <path d="M 0 576 
L 720 576 
L 720 0 
L 0 0 
z
" style="fill:none;"/>
  </g>
  <g id="axes_1">
   <g id="patch_2">
    <path d="M 90 504 
L 648 504 
L 648 69.12 
L 90 69.12 
z
" style="fill:#ffffff;"/>
   </g>
   <g id="matplotlib.axis_1">
    <g id="xtick_1">
     <g id="line2d_1">
      <defs>
       <path d="M 0 0 
L 0 3.5 
" id="me5dba0db48" style="stroke:#000000;stroke-width:0.8;"/>
      </defs>
      <g>
       <use style="stroke:#000000;stroke-width:0.8;" x="115.363636" xlink:href="#me5dba0db48" y="504"/>
      </g>
     </g>
     <g id="text_1">
      <!-- 0 -->
      <g transform="translate(112.182386 518.598438)scale(0.1 -0.1)">
       <defs>
        <path d="M 2034 4250 
Q 1547 4250 1301 3770 
Q 1056 3291 1056 2328 
Q 1056 1369 1301 889 
Q 1547 409 2034 409 
Q 2525 409 2770 889 
Q 3016 1369 3016 2328 
Q 3016 3291 2770 3770 
Q 2525 4250 2034 4250 
z
M 2034 4750 
Q 2819 4750 3233 4129 
Q 3647 3509 3647 2328 
Q 3647 1150 3233 529 
Q 2819 -91 2034 -91 
Q 1250 -91 836 529 
Q 422 1150 422 2328 
Q 422 3509 836 4129 
Q 1250 4750 2034 4750 
z
" id="DejaVuSans-30" transform="scale(0.015625)"/>
       </defs>
       <use xlink:href="#DejaVuSans-30"/>
      </g>
     </g>
    </g>
    <g id="xtick_2">
     <g id="line2d_2">
      <g>
       <use style="stroke:#000000;stroke-width:0.8;" x="217.021498" xlink:href="#me5dba0db48" y="504"/>
      </g>
     </g>
     <g id="text_2">
      <!-- 100 -->
      <g transform="translate(207.477748 518.598438)scale(0.1 -0.1)">
       <defs>
        <path d="M 794 531 
L 1825 531 
L 1825 4091 
L 703 3866 
L 703 4441 
L 1819 4666 
L 2450 4666 
L 2450 531 
L 3481 531 
L 3481 0 
L 794 0 
L 794 531 
z
" id="DejaVuSans-31" transform="scale(0.015625)"/>
       </defs>
       <use xlink:href="#DejaVuSans-31"/>
       <use x="63.623047" xlink:href="#DejaVuSans-30"/>
       <use x="127.246094" xlink:href="#DejaVuSans-30"/>
      </g>
     </g>
    </g>
    <g id="xtick_3">
     <g id="line2d_3">
      <g>
       <use style="stroke:#000000;stroke-width:0.8;" x="318.679359" xlink:href="#me5dba0db48" y="504"/>
      </g>
     </g>
     <g id="text_3">
      <!-- 200 -->
      <g transform="translate(309.135609 518.598438)scale(0.1 -0.1)">
       <defs>
        <path d="M 1228 531 
L 3431 531 
L 3431 0 
L 469 0 
L 469 531 
Q 828 903 1448 1529 
Q 2069 2156 2228 2338 
Q 2531 2678 2651 2914 
Q 2772 3150 2772 3378 
Q 2772 3750 2511 3984 
Q 2250 4219 1831 4219 
Q 1534 4219 1204 4116 
Q 875 4013 500 3803 
L 500 4441 
Q 881 4594 1212 4672 
Q 1544 4750 1819 4750 
Q 2544 4750 2975 4387 
Q 3406 4025 3406 3419 
Q 3406 3131 3298 2873 
Q 3191 2616 2906 2266 
Q 2828 2175 2409 1742 
Q 1991 1309 1228 531 
z
" id="DejaVuSans-32" transform="scale(0.015625)"/>
       </defs>
       <use xlink:href="#DejaVuSans-32"/>
       <use x="63.623047" xlink:href="#DejaVuSans-30"/>
       <use x="127.246094" xlink:href="#DejaVuSans-30"/>
      </g>
     </g>
    </g>
    <g id="xtick_4">
     <g id="line2d_4">
      <g>
       <use style="stroke:#000000;stroke-width:0.8;" x="420.33722" xlink:href="#me5dba0db48" y="504"/>
      </g>
     </g>
     <g id="text_4">
      <!-- 300 -->
      <g transform="translate(410.79347 518.598438)scale(0.1 -0.1)">
       <defs>
        <path d="M 2597 2516 
Q 3050 2419 3304 2112 
Q 3559 1806 3559 1356 
Q 3559 666 3084 287 
Q 2609 -91 1734 -91 
Q 1441 -91 1130 -33 
Q 819 25 488 141 
L 488 750 
Q 750 597 1062 519 
Q 1375 441 1716 441 
Q 2309 441 2620 675 
Q 2931 909 2931 1356 
Q 2931 1769 2642 2001 
Q 2353 2234 1838 2234 
L 1294 2234 
L 1294 2753 
L 1863 2753 
Q 2328 2753 2575 2939 
Q 2822 3125 2822 3475 
Q 2822 3834 2567 4026 
Q 2313 4219 1838 4219 
Q 1578 4219 1281 4162 
Q 984 4106 628 3988 
L 628 4550 
Q 988 4650 1302 4700 
Q 1616 4750 1894 4750 
Q 2613 4750 3031 4423 
Q 3450 4097 3450 3541 
Q 3450 3153 3228 2886 
Q 3006 2619 2597 2516 
z
" id="DejaVuSans-33" transform="scale(0.015625)"/>
       </defs>
       <use xlink:href="#DejaVuSans-33"/>
       <use x="63.623047" xlink:href="#DejaVuSans-30"/>
       <use x="127.246094" xlink:href="#DejaVuSans-30"/>
      </g>
     </g>
    </g>
    <g id="xtick_5">
     <g id="line2d_5">
      <g>
       <use style="stroke:#000000;stroke-width:0.8;" x="521.995081" xlink:href="#me5dba0db48" y="504"/>
      </g>
     </g>
     <g id="text_5">
      <!-- 400 -->
      <g transform="translate(512.451331 518.598438)scale(0.1 -0.1)">
       <defs>
        <path d="M 2419 4116 
L 825 1625 
L 2419 1625 
L 2419 4116 
z
M 2253 4666 
L 3047 4666 
L 3047 1625 
L 3713 1625 
L 3713 1100 
L 3047 1100 
L 3047 0 
L 2419 0 
L 2419 1100 
L 313 1100 
L 313 1709 
L 2253 4666 
z
" id="DejaVuSans-34" transform="scale(0.015625)"/>
       </defs>
       <use xlink:href="#DejaVuSans-34"/>
       <use x="63.623047" xlink:href="#DejaVuSans-30"/>
       <use x="127.246094" xlink:href="#DejaVuSans-30"/>
      </g>
     </g>
    </g>
    <g id="xtick_6">
     <g id="line2d_6">
      <g>
       <use style="stroke:#000000;stroke-width:0.8;" x="623.652942" xlink:href="#me5dba0db48" y="504"/>
      </g>
     </g>
     <g id="text_6">
      <!-- 500 -->
      <g transform="translate(614.109192 518.598438)scale(0.1 -0.1)">
       <defs>
        <path d="M 691 4666 
L 3169 4666 
L 3169 4134 
L 1269 4134 
L 1269 2991 
Q 1406 3038 1543 3061 
Q 1681 3084 1819 3084 
Q 2600 3084 3056 2656 
Q 3513 2228 3513 1497 
Q 3513 744 3044 326 
Q 2575 -91 1722 -91 
Q 1428 -91 1123 -41 
Q 819 9 494 109 
L 494 744 
Q 775 591 1075 516 
Q 1375 441 1709 441 
Q 2250 441 2565 725 
Q 2881 1009 2881 1497 
Q 2881 1984 2565 2268 
Q 2250 2553 1709 2553 
Q 1456 2553 1204 2497 
Q 953 2441 691 2322 
L 691 4666 
z
" id="DejaVuSans-35" transform="scale(0.015625)"/>
       </defs>
       <use xlink:href="#DejaVuSans-35"/>
       <use x="63.623047" xlink:href="#DejaVuSans-30"/>
       <use x="127.246094" xlink:href="#DejaVuSans-30"/>
      </g>
     </g>
    </g>
   </g>
   <g id="matplotlib.axis_2">
    <g id="ytick_1">
     <g id="line2d_7">
      <defs>
       <path d="M 0 0 
L -3.5 0 
" id="mc477bc212a" style="stroke:#000000;stroke-width:0.8;"/>
      </defs>
      <g>
       <use style="stroke:#000000;stroke-width:0.8;" x="90" xlink:href="#mc477bc212a" y="473.935676"/>
      </g>
     </g>
     <g id="text_7">
      <!-- −25 -->
      <g transform="translate(61.895313 477.734895)scale(0.1 -0.1)">
       <defs>
        <path d="M 678 2272 
L 4684 2272 
L 4684 1741 
L 678 1741 
L 678 2272 
z
" id="DejaVuSans-2212" transform="scale(0.015625)"/>
       </defs>
       <use xlink:href="#DejaVuSans-2212"/>
       <use x="83.789062" xlink:href="#DejaVuSans-32"/>
       <use x="147.412109" xlink:href="#DejaVuSans-35"/>
      </g>
     </g>
    </g>
    <g id="ytick_2">
     <g id="line2d_8">
      <g>
       <use style="stroke:#000000;stroke-width:0.8;" x="90" xlink:href="#mc477bc212a" y="402.428296"/>
      </g>
     </g>
     <g id="text_8">
      <!-- −20 -->
      <g transform="translate(61.895313 406.227514)scale(0.1 -0.1)">
       <use xlink:href="#DejaVuSans-2212"/>
       <use x="83.789062" xlink:href="#DejaVuSans-32"/>
       <use x="147.412109" xlink:href="#DejaVuSans-30"/>
      </g>
     </g>
    </g>
    <g id="ytick_3">
     <g id="line2d_9">
      <g>
       <use style="stroke:#000000;stroke-width:0.8;" x="90" xlink:href="#mc477bc212a" y="330.920915"/>
      </g>
     </g>
     <g id="text_9">
      <!-- −15 -->
      <g transform="translate(61.895313 334.720134)scale(0.1 -0.1)">
       <use xlink:href="#DejaVuSans-2212"/>
       <use x="83.789062" xlink:href="#DejaVuSans-31"/>
       <use x="147.412109" xlink:href="#DejaVuSans-35"/>
      </g>
     </g>
    </g>
    <g id="ytick_4">
     <g id="line2d_10">
      <g>
       <use style="stroke:#000000;stroke-width:0.8;" x="90" xlink:href="#mc477bc212a" y="259.413535"/>
      </g>
     </g>
     <g id="text_10">
      <!-- −10 -->
      <g transform="translate(61.895313 263.212753)scale(0.1 -0.1)">
       <use xlink:href="#DejaVuSans-2212"/>
       <use x="83.789062" xlink:href="#DejaVuSans-31"/>
       <use x="147.412109" xlink:href="#DejaVuSans-30"/>
      </g>
     </g>
    </g>
    <g id="ytick_5">
     <g id="line2d_11">
      <g>
       <use style="stroke:#000000;stroke-width:0.8;" x="90" xlink:href="#mc477bc212a" y="187.906154"/>
      </g>
     </g>
     <g id="text_11">
      <!-- −5 -->
      <g transform="translate(68.257812 191.705373)scale(0.1 -0.1)">
       <use xlink:href="#DejaVuSans-2212"/>
       <use x="83.789062" xlink:href="#DejaVuSans-35"/>
      </g>
     </g>
    </g>
    <g id="ytick_6">
     <g id="line2d_12">
      <g>
       <use style="stroke:#000000;stroke-width:0.8;" x="90" xlink:href="#mc477bc212a" y="116.398773"/>
      </g>
     </g>
     <g id="text_12">
      <!-- 0 -->
      <g transform="translate(76.6375 120.197992)scale(0.1 -0.1)">
       <use xlink:href="#DejaVuSans-30"/>
      </g>
     </g>
    </g>
   </g>
   <g id="line2d_13">
    <path clip-path="url(#p0b04bb0a5d)" d="M 115.363636 116.398773 
L 117.396794 116.398773 
L 119.429951 121.651744 
L 120.446529 123.338732 
L 121.463108 124.53575 
L 122.479687 125.224092 
L 123.496265 126.101801 
L 125.529422 127.529838 
L 126.546001 128.03836 
L 127.56258 128.255918 
L 128.579158 128.272225 
L 129.595737 128.496291 
L 131.628894 128.499772 
L 132.645473 128.127666 
L 133.662051 127.204729 
L 134.67863 125.050746 
L 135.695209 126.211302 
L 137.728366 145.060536 
L 138.744944 146.540944 
L 139.761523 144.733034 
L 140.778102 144.781046 
L 141.79468 146.231983 
L 142.811259 147.422542 
L 143.827837 148.05909 
L 146.877573 149.344351 
L 147.894152 149.518306 
L 148.910731 149.542639 
L 150.943888 149.756347 
L 151.960466 149.879808 
L 153.993624 150.413156 
L 155.010202 150.481677 
L 157.043359 149.898641 
L 159.076517 151.212734 
L 160.093095 151.731502 
L 161.109674 151.976729 
L 162.126253 151.636004 
L 164.15941 151.432268 
L 171.27546 151.440508 
L 172.292039 151.672025 
L 175.341774 151.589527 
L 176.358353 151.752669 
L 177.374932 152.395795 
L 178.39151 153.424946 
L 179.408089 159.186112 
L 180.424668 163.604247 
L 181.441246 163.052183 
L 182.457825 163.046007 
L 183.474403 162.827392 
L 185.507561 162.750367 
L 189.573875 162.761755 
L 191.607032 163.026719 
L 195.673347 163.964127 
L 196.689925 164.041809 
L 197.706504 163.531651 
L 198.723083 163.159544 
L 199.739661 168.162138 
L 200.75624 172.475701 
L 201.772818 171.91361 
L 202.789397 171.907433 
L 204.822554 171.575117 
L 206.855711 171.539699 
L 211.938604 171.811473 
L 212.955183 172.08854 
L 217.021498 172.394369 
L 218.038076 173.152928 
L 219.054655 174.334548 
L 220.071233 178.730464 
L 221.087812 181.429475 
L 222.104391 180.652809 
L 223.120969 180.646902 
L 224.137548 180.364158 
L 226.170705 180.185562 
L 230.237019 180.282161 
L 234.303334 180.392707 
L 235.319913 180.772656 
L 236.336491 180.877855 
L 237.35307 180.618873 
L 238.369648 180.895135 
L 239.386227 182.0651 
L 240.402806 186.507513 
L 241.419384 189.28158 
L 242.435963 188.52347 
L 243.452541 188.517528 
L 244.46912 188.239895 
L 246.502277 188.047402 
L 251.58517 188.165468 
L 252.601749 188.237888 
L 253.618328 188.508956 
L 254.634906 188.637862 
L 255.651485 188.517348 
L 256.668063 188.663083 
L 257.684642 189.225329 
L 258.701221 189.950557 
L 259.717799 191.006586 
L 260.734378 195.375594 
L 261.750956 198.176086 
L 262.767535 197.425476 
L 263.784114 197.419534 
L 264.800692 197.143988 
L 266.83385 197.026396 
L 271.916743 197.143188 
L 272.933321 197.215286 
L 274.966478 197.688309 
L 275.983057 197.643294 
L 276.999636 197.788411 
L 278.016214 198.347574 
L 279.032793 198.35592 
L 280.049371 197.324927 
L 281.06595 193.554236 
L 282.082529 190.968304 
L 283.099107 191.082367 
L 284.115686 190.738699 
L 287.165422 190.669439 
L 290.215158 190.71827 
L 291.231736 190.823255 
L 293.264893 190.884879 
L 294.281472 191.151992 
L 295.298051 191.29863 
L 296.314629 191.199701 
L 297.331208 191.343515 
L 298.347786 191.897627 
L 299.364365 192.627468 
L 300.380944 193.772329 
L 301.397522 198.272678 
L 302.414101 201.148198 
L 303.43068 200.438695 
L 304.447258 200.454191 
L 305.463837 200.184316 
L 307.496994 200.019045 
L 309.530151 200.037981 
L 313.596466 200.385554 
L 314.613044 200.578355 
L 315.629623 200.56567 
L 316.646201 200.681191 
L 317.66278 201.122742 
L 318.679359 201.068656 
L 319.695937 200.544005 
L 320.712516 200.611309 
L 321.729095 203.410191 
L 322.745673 205.030581 
L 323.762252 204.150122 
L 325.795409 203.877972 
L 327.828566 203.705461 
L 331.894881 203.859673 
L 337.994352 204.390673 
L 339.010931 204.93412 
L 340.02751 205.655153 
L 341.044088 206.78624 
L 342.060667 211.351741 
L 343.077245 214.333531 
L 344.093824 213.628303 
L 345.110403 213.622555 
L 346.126981 213.359896 
L 348.160138 213.182136 
L 351.209874 213.213247 
L 353.243032 213.395704 
L 356.292767 213.999521 
L 357.309346 213.929482 
L 358.325925 214.070721 
L 359.342503 214.614901 
L 360.359082 214.570434 
L 361.37566 213.54854 
L 362.392239 209.16454 
L 363.408818 205.89133 
L 364.425396 205.998067 
L 365.441975 205.687434 
L 369.508289 205.487173 
L 372.558025 205.588361 
L 376.62434 205.912534 
L 377.640918 206.276893 
L 378.657497 206.299926 
L 379.674075 205.973413 
L 380.690654 206.239318 
L 381.707233 207.368601 
L 382.723811 211.880317 
L 383.74039 214.808068 
L 384.756968 214.100483 
L 385.773547 214.350648 
L 392.889597 214.368107 
L 393.906176 214.43728 
L 395.939333 214.847943 
L 396.955912 214.835413 
L 397.97249 214.949664 
L 398.989069 215.386377 
L 400.005648 215.335877 
L 401.022226 214.814053 
L 402.038805 214.848581 
L 403.055383 218.882006 
L 404.071962 221.775585 
L 405.088541 221.067605 
L 406.105119 221.061797 
L 407.121698 220.7995 
L 409.154855 220.622151 
L 413.22117 220.628817 
L 415.254327 220.929645 
L 416.270905 221.190438 
L 418.304063 221.350949 
L 420.33722 222.319059 
L 421.353799 222.773245 
L 422.370377 223.546618 
L 423.386956 227.892819 
L 424.403534 230.74336 
L 425.420113 230.033271 
L 426.436692 230.027553 
L 427.45327 229.902989 
L 435.585899 230.003448 
L 436.602478 230.262887 
L 439.652214 230.604814 
L 440.668792 230.959691 
L 441.685371 231.633339 
L 442.701949 232.734149 
L 443.718528 237.129712 
L 444.735107 239.969508 
L 445.751685 239.264684 
L 446.768264 239.259015 
L 447.784842 238.998573 
L 449.818 238.824793 
L 452.867735 238.842731 
L 454.900893 239.029505 
L 457.950629 239.441172 
L 458.967207 239.480692 
L 462.016943 240.515615 
L 463.033522 241.219482 
L 464.0501 243.827678 
L 465.066679 244.855385 
L 466.083257 244.302501 
L 467.099836 244.456788 
L 468.116415 244.378062 
L 476.249044 244.671273 
L 477.265622 244.932148 
L 480.315358 245.296911 
L 481.331937 245.699577 
L 482.348515 246.405913 
L 483.365094 247.519887 
L 484.381672 251.797631 
L 485.398251 254.491302 
L 486.41483 116.398773 
L 488.447987 116.354672 
L 490.481144 117.033064 
L 492.514301 117.527648 
L 494.547459 117.632746 
L 495.564037 117.501989 
L 496.580616 117.191856 
L 497.597194 116.563542 
L 498.613773 116.604028 
L 499.630352 115.09906 
L 500.64693 115.538279 
L 501.663509 117.092929 
L 502.680087 116.108784 
L 503.696666 115.902283 
L 504.713245 116.608495 
L 505.729823 116.826224 
L 506.746402 116.492492 
L 507.762981 116.506677 
L 509.796138 117.089625 
L 511.829295 117.507072 
L 513.862452 117.641277 
L 517.928767 117.430651 
L 518.945345 116.774565 
L 519.961924 115.938282 
L 520.978502 117.712846 
L 521.995081 120.311345 
L 523.01166 120.735033 
L 524.028238 119.924989 
L 525.044817 119.75089 
L 526.061396 120.275887 
L 527.077974 120.500834 
L 528.094553 120.540587 
L 530.12771 120.992815 
L 532.160867 121.177215 
L 536.227182 121.206969 
L 537.24376 121.061811 
L 538.260339 120.633408 
L 539.276917 119.61118 
L 540.293496 118.831966 
L 541.310075 120.265526 
L 542.326653 121.346742 
L 543.343232 120.549283 
L 544.359811 120.125504 
L 546.392968 120.749791 
L 548.426125 121.156485 
L 551.475861 121.244813 
L 554.525597 121.527311 
L 556.558754 121.508549 
L 557.575332 121.379605 
L 558.591911 121.117572 
L 559.60849 121.041047 
L 560.625068 117.219528 
L 561.641647 112.734696 
L 562.658226 112.7565 
L 563.674804 113.781422 
L 564.691383 114.160913 
L 565.707961 113.775011 
L 567.741119 112.622296 
L 568.757697 112.474695 
L 569.774276 112.947117 
L 570.790854 112.965871 
L 572.824012 111.59174 
L 573.84059 110.400084 
L 575.873747 149.808202 
L 576.890326 149.363626 
L 584.006376 149.480308 
L 589.089269 150.217477 
L 590.105848 150.002113 
L 591.122427 149.618528 
L 592.139005 149.495532 
L 593.155584 150.045417 
L 594.172163 150.962173 
L 595.188741 152.159084 
L 596.20532 153.877972 
L 597.221898 157.000201 
L 599.255056 91.826888 
L 600.271634 91.900143 
L 601.288213 91.123082 
L 603.32137 90.715007 
L 604.337949 90.824473 
L 605.354527 90.719749 
L 606.371106 90.853788 
L 607.387684 90.759625 
L 608.404263 89.864932 
L 609.420842 89.641353 
L 610.43742 89.642728 
L 611.453999 89.0391 
L 612.470578 88.887273 
L 613.487156 89.488414 
L 614.503735 90.250916 
L 615.520313 90.634974 
L 617.553471 90.134813 
L 618.570049 90.311961 
L 620.603206 91.035945 
L 622.636364 91.558046 
L 622.636364 91.558046 
" style="fill:none;stroke:#1f77b4;stroke-linecap:square;stroke-width:1.5;"/>
   </g>
   <g id="line2d_14">
    <path clip-path="url(#p0b04bb0a5d)" d="M 115.363636 116.398773 
L 128.579158 116.504397 
L 140.778102 116.992769 
L 143.827837 116.758415 
L 145.860995 116.402902 
L 146.877573 116.065251 
L 147.894152 115.979012 
L 148.910731 115.573545 
L 149.927309 114.314456 
L 150.943888 114.930733 
L 151.960466 115.061138 
L 153.993624 114.897931 
L 158.059938 114.899274 
L 162.126253 115.05919 
L 163.142831 115.233531 
L 167.209146 115.431092 
L 168.225724 115.204701 
L 169.242303 117.553106 
L 170.258881 121.12337 
L 171.27546 121.544183 
L 172.292039 121.15952 
L 173.308617 121.094107 
L 182.457825 121.61201 
L 184.490982 121.933557 
L 186.524139 122.126713 
L 187.540718 122.230477 
L 189.573875 122.257058 
L 190.590454 122.785976 
L 191.607032 124.116405 
L 192.623611 124.186973 
L 193.640189 122.913041 
L 194.656768 122.651316 
L 199.739661 122.569069 
L 200.75624 122.892329 
L 201.772818 122.956974 
L 202.789397 123.153646 
L 203.805976 123.932799 
L 204.822554 125.244221 
L 206.855711 481.934749 
L 207.87229 481.12358 
L 208.888869 480.730354 
L 210.922026 480.426453 
L 211.938604 480.399438 
L 212.955183 480.238461 
L 216.004919 480.197249 
L 219.054655 480.295807 
L 228.203862 480.893626 
L 233.286755 481.144268 
L 235.319913 481.21081 
L 238.369648 481.211219 
L 245.485699 480.3621 
L 247.518856 480.093145 
L 260.734378 479.990597 
L 269.883585 479.997818 
L 282.082529 479.864225 
L 290.215158 480.062191 
L 292.248315 480.137636 
L 299.364365 480.211468 
L 301.397522 479.980219 
L 302.414101 479.796462 
L 304.447258 479.698321 
L 306.480415 479.199665 
L 307.496994 479.035786 
L 309.530151 478.983796 
L 310.54673 478.834614 
L 312.579887 478.802587 
L 314.613044 478.623518 
L 322.745673 478.67217 
L 325.795409 478.835688 
L 326.811988 478.968859 
L 329.861723 479.070182 
L 336.977774 479.551043 
L 339.010931 479.50159 
L 340.02751 479.245121 
L 341.044088 478.632184 
L 342.060667 477.526277 
L 343.077245 475.965947 
L 344.093824 475.521352 
L 345.110403 475.233873 
L 346.126981 473.956239 
L 347.14356 472.998378 
L 348.160138 472.264356 
L 349.176717 472.017442 
L 356.292767 471.248308 
L 361.37566 471.205913 
L 363.408818 471.06665 
L 366.458553 471.228672 
L 368.491711 471.421898 
L 376.62434 472.239252 
L 377.640918 472.63309 
L 378.657497 472.70269 
L 379.674075 472.416224 
L 380.690654 472.583893 
L 382.723811 474.064328 
L 383.74039 475.036567 
L 384.756968 475.20629 
L 385.773547 474.21597 
L 386.790126 478.193545 
L 387.806704 483.934146 
L 388.823283 484.232727 
L 389.839862 482.90056 
L 390.85644 482.575082 
L 393.906176 482.283988 
L 395.939333 481.954865 
L 403.055383 481.94185 
L 405.088541 482.069897 
L 406.105119 482.114364 
L 410.171434 482.687775 
L 414.237748 483.006263 
L 415.254327 483.323392 
L 416.270905 483.821412 
L 417.287484 483.883564 
L 419.320641 467.513665 
L 421.353799 467.673565 
L 422.370377 467.896247 
L 423.386956 468.307477 
L 424.403534 468.848549 
L 425.420113 468.958155 
L 426.436692 469.278384 
L 427.45327 469.39803 
L 428.469849 470.761055 
L 429.486427 471.720467 
L 430.503006 470.003342 
L 431.519585 469.289912 
L 432.536163 469.199581 
L 433.552742 468.901497 
L 435.585899 468.946232 
L 437.619056 468.720132 
L 442.701949 468.812732 
L 447.784842 469.266738 
L 449.818 469.673812 
L 451.851157 469.710326 
L 453.884314 469.927487 
L 455.917471 470.680417 
L 456.93405 471.499837 
L 458.967207 432.003148 
L 459.983786 431.752711 
L 462.016943 431.84249 
L 464.0501 432.217462 
L 465.066679 432.532537 
L 466.083257 432.483682 
L 467.099836 432.56288 
L 468.116415 432.438606 
L 469.132993 432.704596 
L 470.149572 431.626503 
L 471.16615 426.785902 
L 472.182729 423.015258 
L 473.199308 422.070199 
L 474.215886 421.62386 
L 475.232465 421.537104 
L 476.249044 421.584953 
L 477.265622 421.39335 
L 479.298779 421.328633 
L 482.348515 421.361858 
L 485.398251 421.644091 
L 486.41483 116.398773 
L 488.447987 116.445434 
L 490.481144 116.030456 
L 493.53088 114.931832 
L 494.547459 114.770693 
L 495.564037 114.460478 
L 497.597194 112.822016 
L 498.613773 112.588625 
L 499.630352 112.608418 
L 500.64693 112.125754 
L 501.663509 111.947918 
L 503.696666 112.220124 
L 505.729823 112.269494 
L 506.746402 112.116718 
L 507.762981 112.16396 
L 513.862452 113.591456 
L 521.995081 114.126978 
L 525.044817 114.117685 
L 529.111131 113.87165 
L 533.177446 113.397985 
L 535.210603 112.663141 
L 537.24376 112.414435 
L 539.276917 111.676932 
L 541.310075 111.396369 
L 542.326653 111.330259 
L 546.392968 111.436266 
L 551.475861 111.498921 
L 573.84059 111.491222 
L 586.039534 111.434247 
L 590.105848 111.468077 
L 621.619785 111.490632 
L 622.636364 111.546315 
L 622.636364 111.546315 
" style="fill:none;stroke:#ff7f0e;stroke-linecap:square;stroke-width:1.5;"/>
   </g>
   <g id="line2d_15">
    <path clip-path="url(#p0b04bb0a5d)" d="M 115.363636 151.068509 
L 116.380215 116.398773 
L 117.396794 143.939597 
L 118.413372 146.105457 
L 119.429951 146.868489 
L 121.463108 147.908464 
L 123.496265 148.435181 
L 124.512844 147.645248 
L 125.529422 147.172506 
L 126.546001 155.725862 
L 127.56258 160.610957 
L 128.579158 159.359564 
L 129.595737 161.167133 
L 130.612316 162.313989 
L 131.628894 162.481665 
L 132.645473 162.402574 
L 133.662051 163.049743 
L 134.67863 163.497454 
L 135.695209 163.470335 
L 136.711787 163.287974 
L 137.728366 163.52442 
L 138.744944 163.347733 
L 140.778102 162.402547 
L 141.79468 161.743672 
L 143.827837 159.507257 
L 144.844416 156.855356 
L 145.860995 151.799641 
L 146.877573 156.463952 
L 147.894152 163.206757 
L 148.910731 164.429945 
L 149.927309 167.053875 
L 150.943888 169.018249 
L 153.993624 168.217416 
L 157.043359 167.923012 
L 159.076517 167.902267 
L 161.109674 167.744898 
L 164.15941 167.947532 
L 165.175988 167.975046 
L 166.192567 167.795986 
L 167.209146 167.735678 
L 168.225724 167.174156 
L 169.242303 169.830187 
L 170.258881 174.261151 
L 171.27546 175.032914 
L 172.292039 174.800347 
L 175.341774 175.089399 
L 178.39151 175.471152 
L 184.490982 176.692335 
L 187.540718 177.563924 
L 188.557296 177.560958 
L 190.590454 189.844631 
L 191.607032 188.8865 
L 192.623611 188.293086 
L 193.640189 187.947907 
L 195.673347 187.662477 
L 199.739661 187.3575 
L 200.75624 187.453998 
L 202.789397 187.426136 
L 205.839133 188.131619 
L 206.855711 188.359193 
L 207.87229 188.707237 
L 208.888869 188.80613 
L 209.905447 191.473804 
L 210.922026 195.444466 
L 211.938604 196.036433 
L 212.955183 195.72934 
L 213.971762 195.760538 
L 217.021498 196.121859 
L 219.054655 196.461061 
L 222.104391 197.082363 
L 223.120969 197.252081 
L 226.170705 198.46195 
L 227.187284 198.671238 
L 228.203862 198.711054 
L 229.220441 199.606353 
L 230.237019 201.649043 
L 231.253598 201.945619 
L 232.270177 200.829172 
L 233.286755 200.603284 
L 234.303334 200.526619 
L 235.319913 200.258147 
L 237.35307 200.012074 
L 239.386227 199.988182 
L 242.435963 200.134031 
L 243.452541 200.136571 
L 245.485699 200.637037 
L 247.518856 201.366595 
L 248.535435 201.120868 
L 249.552013 201.183091 
L 250.568592 202.457883 
L 251.58517 203.976496 
L 252.601749 204.545609 
L 253.618328 204.248774 
L 254.634906 204.238363 
L 263.784114 205.706239 
L 265.817271 206.412863 
L 266.83385 206.791217 
L 267.850428 207.481218 
L 268.867007 207.616669 
L 269.883585 208.2932 
L 270.900164 212.19202 
L 271.916743 215.301766 
L 272.933321 214.968292 
L 273.9499 214.217677 
L 274.966478 213.849564 
L 278.016214 213.544798 
L 280.049371 213.27683 
L 282.082529 212.872497 
L 287.165422 212.86707 
L 288.182 213.084028 
L 289.198579 212.907905 
L 290.215158 213.227557 
L 291.231736 214.519736 
L 292.248315 216.037891 
L 293.264893 216.588745 
L 294.281472 216.298975 
L 295.298051 216.278303 
L 301.397522 217.187949 
L 302.414101 217.448443 
L 304.447258 217.714873 
L 307.496994 218.920262 
L 308.513573 219.028408 
L 309.530151 219.485855 
L 310.54673 220.575287 
L 311.563308 220.403391 
L 312.579887 218.484087 
L 313.596466 216.820893 
L 314.613044 216.176489 
L 316.646201 215.864463 
L 319.695937 215.471028 
L 321.729095 215.400935 
L 323.762252 215.505898 
L 324.77883 215.500646 
L 325.795409 215.657075 
L 326.811988 215.928441 
L 328.845145 215.792029 
L 329.861723 215.867396 
L 330.878302 216.237243 
L 331.894881 215.23242 
L 332.911459 213.130665 
L 333.928038 212.689827 
L 335.961195 212.859579 
L 341.044088 213.495562 
L 344.093824 214.083536 
L 345.110403 214.243846 
L 347.14356 215.075747 
L 348.160138 215.60338 
L 349.176717 215.87298 
L 350.193296 216.36831 
L 351.209874 216.735338 
L 352.226453 221.211222 
L 353.243032 225.094219 
L 354.25961 223.876033 
L 355.276189 223.148766 
L 356.292767 222.806864 
L 362.392239 222.044304 
L 363.408818 221.840162 
L 366.458553 221.924216 
L 367.475132 222.123316 
L 368.491711 222.133444 
L 369.508289 222.295706 
L 370.524868 222.308996 
L 371.541447 222.619551 
L 372.558025 220.762006 
L 373.574604 217.816771 
L 374.591182 217.22333 
L 376.62434 217.50737 
L 378.657497 217.555498 
L 380.690654 217.753523 
L 384.756968 218.520143 
L 385.773547 218.468844 
L 388.823283 219.060806 
L 389.839862 219.734526 
L 390.85644 220.011931 
L 391.873019 220.798824 
L 392.889597 221.415968 
L 393.906176 219.927882 
L 394.922755 218.238554 
L 395.939333 217.593271 
L 397.97249 217.281464 
L 401.022226 216.889271 
L 403.055383 216.842249 
L 404.071962 216.949937 
L 406.105119 216.91664 
L 409.154855 217.6995 
L 410.171434 217.593632 
L 411.188012 217.622103 
L 412.204591 216.999287 
L 413.22117 219.338738 
L 414.237748 222.48278 
L 416.270905 221.884777 
L 418.304063 222.037648 
L 421.353799 222.302187 
L 423.386956 222.655946 
L 424.403534 222.909235 
L 427.45327 223.32555 
L 428.469849 223.532374 
L 429.486427 223.875668 
L 430.503006 224.346095 
L 431.519585 224.645415 
L 432.536163 225.435712 
L 433.552742 227.148736 
L 434.56932 228.14476 
L 435.585899 227.817988 
L 436.602478 227.08061 
L 437.619056 226.777162 
L 440.668792 226.4563 
L 442.701949 226.458151 
L 445.751685 226.596732 
L 446.768264 226.598721 
L 449.818 227.369336 
L 450.834578 227.202367 
L 451.851157 227.172518 
L 452.867735 226.986555 
L 454.900893 234.285047 
L 456.93405 233.706771 
L 461.000364 234.091111 
L 463.033522 234.327413 
L 466.083257 234.77512 
L 471.16615 235.322526 
L 473.199308 237.201267 
L 475.232465 244.892195 
L 476.249044 245.028691 
L 477.265622 244.266364 
L 478.282201 243.95294 
L 481.331937 243.623376 
L 483.365094 243.626673 
L 485.398251 243.80305 
L 486.41483 116.398773 
L 487.431408 150.956496 
L 488.447987 203.45839 
L 489.464565 202.21377 
L 490.481144 201.349797 
L 491.497723 203.78189 
L 492.514301 204.954628 
L 493.53088 205.30185 
L 494.547459 205.430966 
L 495.564037 205.338097 
L 496.580616 205.860395 
L 497.597194 206.172967 
L 498.613773 206.174413 
L 499.630352 206.000356 
L 500.64693 206.081137 
L 501.663509 206.033444 
L 504.713245 205.440811 
L 505.729823 205.269846 
L 506.746402 205.267218 
L 507.762981 204.746359 
L 508.779559 203.344785 
L 509.796138 196.339657 
L 510.812716 192.504115 
L 511.829295 195.454611 
L 512.845874 196.792431 
L 513.862452 197.429781 
L 515.895609 198.158918 
L 520.978502 199.407474 
L 521.995081 199.725418 
L 524.028238 199.995638 
L 528.094553 200.467892 
L 529.111131 199.914063 
L 530.12771 200.878358 
L 531.144289 203.585386 
L 532.160867 204.202613 
L 533.177446 204.005205 
L 534.194024 204.510954 
L 535.210603 204.856818 
L 538.260339 205.075505 
L 539.276917 205.239302 
L 541.310075 205.281324 
L 542.326653 205.239859 
L 546.392968 204.539925 
L 549.442704 203.324475 
L 550.459282 201.770857 
L 551.475861 202.348689 
L 552.492439 204.795445 
L 554.525597 206.948284 
L 555.542175 207.760847 
L 557.575332 208.995401 
L 558.591911 209.478077 
L 562.658226 210.402179 
L 563.674804 210.862848 
L 564.691383 211.17221 
L 566.72454 211.434246 
L 567.741119 213.262499 
L 568.757697 214.667863 
L 570.790854 214.187652 
L 572.824012 213.195191 
L 574.857169 212.262201 
L 576.890326 212.158336 
L 577.906905 212.168653 
L 579.940062 211.900383 
L 580.956641 212.234534 
L 581.973219 212.704957 
L 582.989798 212.11583 
L 584.006376 212.886919 
L 585.022955 214.339502 
L 586.039534 213.721137 
L 587.056112 213.513999 
L 589.089269 213.618407 
L 591.122427 213.999603 
L 594.172163 214.504111 
L 596.20532 215.078979 
L 598.238477 215.869319 
L 600.271634 216.302371 
L 604.337949 217.640922 
L 607.387684 218.166754 
L 608.404263 217.800151 
L 609.420842 217.811034 
L 610.43742 217.973494 
L 611.453999 217.916945 
L 612.470578 217.999832 
L 615.520313 218.723251 
L 618.570049 219.14562 
L 619.586628 219.004848 
L 620.603206 218.700974 
L 621.619785 218.100393 
L 622.636364 216.190006 
L 622.636364 216.190006 
" style="fill:none;stroke:#2ca02c;stroke-linecap:square;stroke-width:1.5;"/>
   </g>
   <g id="patch_3">
    <path d="M 90 504 
L 90 69.12 
" style="fill:none;stroke:#000000;stroke-linecap:square;stroke-linejoin:miter;stroke-width:0.8;"/>
   </g>
   <g id="patch_4">
    <path d="M 648 504 
L 648 69.12 
" style="fill:none;stroke:#000000;stroke-linecap:square;stroke-linejoin:miter;stroke-width:0.8;"/>
   </g>
   <g id="patch_5">
    <path d="M 90 504 
L 648 504 
" style="fill:none;stroke:#000000;stroke-linecap:square;stroke-linejoin:miter;stroke-width:0.8;"/>
   </g>
   <g id="patch_6">
    <path d="M 90 69.12 
L 648 69.12 
" style="fill:none;stroke:#000000;stroke-linecap:square;stroke-linejoin:miter;stroke-width:0.8;"/>
   </g>
  </g>
 </g>
 <defs>
  <clipPath id="p0b04bb0a5d">
   <rect height="434.88" width="558" x="90" y="69.12"/>
  </clipPath>
 </defs>
</svg>
