<?xml version="1.0" encoding="utf-8" standalone="no"?>
<!DOCTYPE svg PUBLIC "-//W3C//DTD SVG 1.1//EN"
  "http://www.w3.org/Graphics/SVG/1.1/DTD/svg11.dtd">
<svg height="576pt" version="1.1" viewBox="0 0 720 576" width="720pt" xmlns="http://www.w3.org/2000/svg" xmlns:xlink="http://www.w3.org/1999/xlink">
 <metadata>
  <rdf:RDF xmlns:cc="http://creativecommons.org/ns#" xmlns:dc="http://purl.org/dc/elements/1.1/" xmlns:rdf="http://www.w3.org/1999/02/22-rdf-syntax-ns#">
   <cc:Work>
    <dc:type rdf:resource="http://purl.org/dc/dcmitype/StillImage"/>
    <dc:date>2022-01-12T19:43:21.043835</dc:date>
    <dc:format>image/svg+xml</dc:format>
    <dc:creator>
     <cc:Agent>
      <dc:title>Matplotlib v3.4.3, https://matplotlib.org/</dc:title>
     </cc:Agent>
    </dc:creator>
   </cc:Work>
  </rdf:RDF>
 </metadata>
 <defs>
  <style type="text/css">*{stroke-linecap:butt;stroke-linejoin:round;}</style>
 </defs>
 <g id="figure_1">
  <g id="patch_1">
   <path d="M 0 576 
L 720 576 
L 720 0 
L 0 0 
z
" style="fill:none;"/>
  </g>
  <g id="axes_1">
   <g id="patch_2">
    <path d="M 90 504 
L 648 504 
L 648 69.12 
L 90 69.12 
z
" style="fill:#ffffff;"/>
   </g>
   <g id="matplotlib.axis_1">
    <g id="xtick_1">
     <g id="line2d_1">
      <defs>
       <path d="M 0 0 
L 0 3.5 
" id="mfa4a60ee96" style="stroke:#000000;stroke-width:0.8;"/>
      </defs>
      <g>
       <use style="stroke:#000000;stroke-width:0.8;" x="115.363636" xlink:href="#mfa4a60ee96" y="504"/>
      </g>
     </g>
     <g id="text_1">
      <!-- 0 -->
      <g transform="translate(112.182386 518.598438)scale(0.1 -0.1)">
       <defs>
        <path d="M 2034 4250 
Q 1547 4250 1301 3770 
Q 1056 3291 1056 2328 
Q 1056 1369 1301 889 
Q 1547 409 2034 409 
Q 2525 409 2770 889 
Q 3016 1369 3016 2328 
Q 3016 3291 2770 3770 
Q 2525 4250 2034 4250 
z
M 2034 4750 
Q 2819 4750 3233 4129 
Q 3647 3509 3647 2328 
Q 3647 1150 3233 529 
Q 2819 -91 2034 -91 
Q 1250 -91 836 529 
Q 422 1150 422 2328 
Q 422 3509 836 4129 
Q 1250 4750 2034 4750 
z
" id="DejaVuSans-30" transform="scale(0.015625)"/>
       </defs>
       <use xlink:href="#DejaVuSans-30"/>
      </g>
     </g>
    </g>
    <g id="xtick_2">
     <g id="line2d_2">
      <g>
       <use style="stroke:#000000;stroke-width:0.8;" x="217.021498" xlink:href="#mfa4a60ee96" y="504"/>
      </g>
     </g>
     <g id="text_2">
      <!-- 100 -->
      <g transform="translate(207.477748 518.598438)scale(0.1 -0.1)">
       <defs>
        <path d="M 794 531 
L 1825 531 
L 1825 4091 
L 703 3866 
L 703 4441 
L 1819 4666 
L 2450 4666 
L 2450 531 
L 3481 531 
L 3481 0 
L 794 0 
L 794 531 
z
" id="DejaVuSans-31" transform="scale(0.015625)"/>
       </defs>
       <use xlink:href="#DejaVuSans-31"/>
       <use x="63.623047" xlink:href="#DejaVuSans-30"/>
       <use x="127.246094" xlink:href="#DejaVuSans-30"/>
      </g>
     </g>
    </g>
    <g id="xtick_3">
     <g id="line2d_3">
      <g>
       <use style="stroke:#000000;stroke-width:0.8;" x="318.679359" xlink:href="#mfa4a60ee96" y="504"/>
      </g>
     </g>
     <g id="text_3">
      <!-- 200 -->
      <g transform="translate(309.135609 518.598438)scale(0.1 -0.1)">
       <defs>
        <path d="M 1228 531 
L 3431 531 
L 3431 0 
L 469 0 
L 469 531 
Q 828 903 1448 1529 
Q 2069 2156 2228 2338 
Q 2531 2678 2651 2914 
Q 2772 3150 2772 3378 
Q 2772 3750 2511 3984 
Q 2250 4219 1831 4219 
Q 1534 4219 1204 4116 
Q 875 4013 500 3803 
L 500 4441 
Q 881 4594 1212 4672 
Q 1544 4750 1819 4750 
Q 2544 4750 2975 4387 
Q 3406 4025 3406 3419 
Q 3406 3131 3298 2873 
Q 3191 2616 2906 2266 
Q 2828 2175 2409 1742 
Q 1991 1309 1228 531 
z
" id="DejaVuSans-32" transform="scale(0.015625)"/>
       </defs>
       <use xlink:href="#DejaVuSans-32"/>
       <use x="63.623047" xlink:href="#DejaVuSans-30"/>
       <use x="127.246094" xlink:href="#DejaVuSans-30"/>
      </g>
     </g>
    </g>
    <g id="xtick_4">
     <g id="line2d_4">
      <g>
       <use style="stroke:#000000;stroke-width:0.8;" x="420.33722" xlink:href="#mfa4a60ee96" y="504"/>
      </g>
     </g>
     <g id="text_4">
      <!-- 300 -->
      <g transform="translate(410.79347 518.598438)scale(0.1 -0.1)">
       <defs>
        <path d="M 2597 2516 
Q 3050 2419 3304 2112 
Q 3559 1806 3559 1356 
Q 3559 666 3084 287 
Q 2609 -91 1734 -91 
Q 1441 -91 1130 -33 
Q 819 25 488 141 
L 488 750 
Q 750 597 1062 519 
Q 1375 441 1716 441 
Q 2309 441 2620 675 
Q 2931 909 2931 1356 
Q 2931 1769 2642 2001 
Q 2353 2234 1838 2234 
L 1294 2234 
L 1294 2753 
L 1863 2753 
Q 2328 2753 2575 2939 
Q 2822 3125 2822 3475 
Q 2822 3834 2567 4026 
Q 2313 4219 1838 4219 
Q 1578 4219 1281 4162 
Q 984 4106 628 3988 
L 628 4550 
Q 988 4650 1302 4700 
Q 1616 4750 1894 4750 
Q 2613 4750 3031 4423 
Q 3450 4097 3450 3541 
Q 3450 3153 3228 2886 
Q 3006 2619 2597 2516 
z
" id="DejaVuSans-33" transform="scale(0.015625)"/>
       </defs>
       <use xlink:href="#DejaVuSans-33"/>
       <use x="63.623047" xlink:href="#DejaVuSans-30"/>
       <use x="127.246094" xlink:href="#DejaVuSans-30"/>
      </g>
     </g>
    </g>
    <g id="xtick_5">
     <g id="line2d_5">
      <g>
       <use style="stroke:#000000;stroke-width:0.8;" x="521.995081" xlink:href="#mfa4a60ee96" y="504"/>
      </g>
     </g>
     <g id="text_5">
      <!-- 400 -->
      <g transform="translate(512.451331 518.598438)scale(0.1 -0.1)">
       <defs>
        <path d="M 2419 4116 
L 825 1625 
L 2419 1625 
L 2419 4116 
z
M 2253 4666 
L 3047 4666 
L 3047 1625 
L 3713 1625 
L 3713 1100 
L 3047 1100 
L 3047 0 
L 2419 0 
L 2419 1100 
L 313 1100 
L 313 1709 
L 2253 4666 
z
" id="DejaVuSans-34" transform="scale(0.015625)"/>
       </defs>
       <use xlink:href="#DejaVuSans-34"/>
       <use x="63.623047" xlink:href="#DejaVuSans-30"/>
       <use x="127.246094" xlink:href="#DejaVuSans-30"/>
      </g>
     </g>
    </g>
    <g id="xtick_6">
     <g id="line2d_6">
      <g>
       <use style="stroke:#000000;stroke-width:0.8;" x="623.652942" xlink:href="#mfa4a60ee96" y="504"/>
      </g>
     </g>
     <g id="text_6">
      <!-- 500 -->
      <g transform="translate(614.109192 518.598438)scale(0.1 -0.1)">
       <defs>
        <path d="M 691 4666 
L 3169 4666 
L 3169 4134 
L 1269 4134 
L 1269 2991 
Q 1406 3038 1543 3061 
Q 1681 3084 1819 3084 
Q 2600 3084 3056 2656 
Q 3513 2228 3513 1497 
Q 3513 744 3044 326 
Q 2575 -91 1722 -91 
Q 1428 -91 1123 -41 
Q 819 9 494 109 
L 494 744 
Q 775 591 1075 516 
Q 1375 441 1709 441 
Q 2250 441 2565 725 
Q 2881 1009 2881 1497 
Q 2881 1984 2565 2268 
Q 2250 2553 1709 2553 
Q 1456 2553 1204 2497 
Q 953 2441 691 2322 
L 691 4666 
z
" id="DejaVuSans-35" transform="scale(0.015625)"/>
       </defs>
       <use xlink:href="#DejaVuSans-35"/>
       <use x="63.623047" xlink:href="#DejaVuSans-30"/>
       <use x="127.246094" xlink:href="#DejaVuSans-30"/>
      </g>
     </g>
    </g>
   </g>
   <g id="matplotlib.axis_2">
    <g id="ytick_1">
     <g id="line2d_7">
      <defs>
       <path d="M 0 0 
L -3.5 0 
" id="m8d8d900ab9" style="stroke:#000000;stroke-width:0.8;"/>
      </defs>
      <g>
       <use style="stroke:#000000;stroke-width:0.8;" x="90" xlink:href="#m8d8d900ab9" y="460.512"/>
      </g>
     </g>
     <g id="text_7">
      <!-- −40 -->
      <g transform="translate(61.895313 464.311219)scale(0.1 -0.1)">
       <defs>
        <path d="M 678 2272 
L 4684 2272 
L 4684 1741 
L 678 1741 
L 678 2272 
z
" id="DejaVuSans-2212" transform="scale(0.015625)"/>
       </defs>
       <use xlink:href="#DejaVuSans-2212"/>
       <use x="83.789062" xlink:href="#DejaVuSans-34"/>
       <use x="147.412109" xlink:href="#DejaVuSans-30"/>
      </g>
     </g>
    </g>
    <g id="ytick_2">
     <g id="line2d_8">
      <g>
       <use style="stroke:#000000;stroke-width:0.8;" x="90" xlink:href="#m8d8d900ab9" y="373.536"/>
      </g>
     </g>
     <g id="text_8">
      <!-- −20 -->
      <g transform="translate(61.895313 377.335219)scale(0.1 -0.1)">
       <use xlink:href="#DejaVuSans-2212"/>
       <use x="83.789062" xlink:href="#DejaVuSans-32"/>
       <use x="147.412109" xlink:href="#DejaVuSans-30"/>
      </g>
     </g>
    </g>
    <g id="ytick_3">
     <g id="line2d_9">
      <g>
       <use style="stroke:#000000;stroke-width:0.8;" x="90" xlink:href="#m8d8d900ab9" y="286.56"/>
      </g>
     </g>
     <g id="text_9">
      <!-- 0 -->
      <g transform="translate(76.6375 290.359219)scale(0.1 -0.1)">
       <use xlink:href="#DejaVuSans-30"/>
      </g>
     </g>
    </g>
    <g id="ytick_4">
     <g id="line2d_10">
      <g>
       <use style="stroke:#000000;stroke-width:0.8;" x="90" xlink:href="#m8d8d900ab9" y="199.584"/>
      </g>
     </g>
     <g id="text_10">
      <!-- 20 -->
      <g transform="translate(70.275 203.383219)scale(0.1 -0.1)">
       <use xlink:href="#DejaVuSans-32"/>
       <use x="63.623047" xlink:href="#DejaVuSans-30"/>
      </g>
     </g>
    </g>
    <g id="ytick_5">
     <g id="line2d_11">
      <g>
       <use style="stroke:#000000;stroke-width:0.8;" x="90" xlink:href="#m8d8d900ab9" y="112.608"/>
      </g>
     </g>
     <g id="text_11">
      <!-- 40 -->
      <g transform="translate(70.275 116.407219)scale(0.1 -0.1)">
       <use xlink:href="#DejaVuSans-34"/>
       <use x="63.623047" xlink:href="#DejaVuSans-30"/>
      </g>
     </g>
    </g>
   </g>
   <g id="line2d_12">
    <path clip-path="url(#p527fc4c578)" d="M 115.363636 286.56 
L 117.396794 286.56 
L 118.413372 299.475247 
L 119.429951 288.159631 
L 120.446529 294.429638 
L 121.463108 285.682022 
L 122.479687 291.508897 
L 123.496265 286.875817 
L 124.512844 290.470206 
L 125.529422 287.23871 
L 126.546001 289.171147 
L 127.56258 285.407643 
L 128.579158 287.821587 
L 129.595737 286.797803 
L 130.612316 286.058431 
L 131.628894 287.365867 
L 132.645473 282.96773 
L 133.662051 283.246563 
L 134.67863 273.027097 
L 135.695209 309.545723 
L 136.711787 341.872125 
L 137.728366 306.314509 
L 138.744944 278.846236 
L 139.761523 279.562609 
L 140.778102 293.949683 
L 141.79468 291.067536 
L 142.811259 291.87443 
L 143.827837 286.529368 
L 144.844416 290.365525 
L 145.860995 287.070495 
L 146.877573 289.068674 
L 147.894152 285.633657 
L 148.910731 287.707263 
L 149.927309 286.777945 
L 150.943888 286.537201 
L 151.960466 291.350858 
L 152.977045 291.101142 
L 153.993624 293.263805 
L 155.010202 282.493621 
L 156.026781 277.364305 
L 157.043359 286.575059 
L 158.059938 311.763101 
L 159.076517 286.559636 
L 160.093095 306.443521 
L 161.109674 276.075517 
L 162.126253 283.985061 
L 163.142831 283.613632 
L 164.15941 287.236178 
L 165.175988 286.34855 
L 166.192567 285.874686 
L 167.209146 288.00162 
L 168.225724 284.441269 
L 169.242303 289.318234 
L 170.258881 283.166574 
L 171.27546 290.616705 
L 172.292039 291.346503 
L 173.308617 281.27611 
L 174.325196 289.909057 
L 175.341774 282.489333 
L 176.358353 296.908654 
L 177.374932 300.960945 
L 178.39151 311.764194 
L 179.408089 483.064393 
L 180.424668 260.079964 
L 181.441246 291.794774 
L 182.457825 281.087571 
L 183.474403 283.619142 
L 184.490982 286.652167 
L 185.507561 286.352257 
L 186.524139 286.179579 
L 187.540718 288.004281 
L 188.557296 284.438833 
L 189.573875 289.320627 
L 190.590454 288.257935 
L 191.607032 290.620501 
L 193.640189 292.20392 
L 194.656768 288.153775 
L 195.673347 294.706018 
L 196.689925 281.389109 
L 197.706504 272.191969 
L 198.723083 286.67606 
L 199.739661 477.512476 
L 200.75624 259.896879 
L 201.772818 291.81493 
L 202.789397 281.069823 
L 203.805976 283.608843 
L 204.822554 285.295734 
L 205.839133 286.346877 
L 206.855711 286.901948 
L 207.87229 287.998546 
L 208.888869 286.56 
L 209.905447 289.288753 
L 210.922026 284.893323 
L 211.938604 290.552598 
L 212.955183 291.274279 
L 213.971762 283.620147 
L 214.98834 289.853194 
L 216.004919 283.629117 
L 217.021498 296.647048 
L 218.038076 300.427814 
L 219.054655 310.007121 
L 220.071233 401.933518 
L 221.087812 256.419759 
L 222.104391 292.173546 
L 223.120969 280.759916 
L 224.137548 283.430554 
L 225.154126 285.338263 
L 226.170705 286.492473 
L 227.187284 286.578009 
L 228.203862 286.046662 
L 229.220441 288.620351 
L 230.237019 286.557932 
L 231.253598 288.251522 
L 232.270177 288.558192 
L 233.286755 281.841136 
L 234.303334 292.119033 
L 235.319913 293.15712 
L 236.336491 283.328644 
L 237.35307 281.502284 
L 238.369648 300.463779 
L 239.386227 310.121653 
L 240.402806 405.25627 
L 241.419384 256.696755 
L 242.435963 292.146545 
L 243.452541 280.783171 
L 244.46912 283.444089 
L 245.485699 285.179914 
L 246.502277 286.270478 
L 247.518856 287.155838 
L 248.535435 285.417351 
L 249.552013 288.624156 
L 250.568592 287.912798 
L 251.58517 284.889599 
L 252.601749 290.561345 
L 253.618328 291.284002 
L 254.634906 285.985304 
L 255.651485 283.254054 
L 256.668063 294.560771 
L 257.684642 296.67301 
L 258.701221 299.811519 
L 259.717799 307.330641 
L 260.734378 406.5526 
L 261.750956 256.798737 
L 262.767535 292.136752 
L 263.784114 280.791797 
L 265.817271 286.360193 
L 266.83385 286.281222 
L 267.850428 287.177513 
L 268.867007 285.3789 
L 269.883585 288.626361 
L 270.900164 287.913924 
L 271.916743 284.888537 
L 272.933321 290.563337 
L 273.9499 291.286186 
L 274.966478 288.404283 
L 275.983057 283.258174 
L 276.999636 294.565833 
L 278.016214 296.680634 
L 279.032793 276.709915 
L 280.049371 262.986895 
L 281.06595 187.88813 
L 282.082529 301.391856 
L 283.099107 275.426624 
L 284.115686 286.549479 
L 285.132265 285.008113 
L 286.148843 287.136573 
L 287.165422 286.271767 
L 288.182 286.781903 
L 289.198579 286.243749 
L 290.215158 288.630834 
L 291.231736 287.915632 
L 292.248315 284.886549 
L 293.264893 290.56763 
L 294.281472 291.290949 
L 295.298051 286.626306 
L 296.314629 283.255594 
L 297.331208 294.574331 
L 298.347786 296.693715 
L 299.364365 300.329745 
L 300.380944 310.286294 
L 301.397522 410.227244 
L 302.414101 257.070561 
L 303.43068 292.812123 
L 304.447258 280.815456 
L 305.463837 283.463371 
L 306.480415 285.473058 
L 307.496994 286.416139 
L 308.513573 286.248158 
L 309.530151 287.952625 
L 310.54673 287.597134 
L 311.563308 285.214661 
L 312.579887 289.911603 
L 313.596466 290.572002 
L 314.613044 288.927895 
L 315.629623 283.771902 
L 316.646201 293.179077 
L 317.66278 294.584783 
L 318.679359 276.741491 
L 319.695937 278.978612 
L 320.712516 296.373605 
L 321.729095 369.613362 
L 322.745673 257.312481 
L 323.762252 286.56 
L 324.77883 283.57521 
L 325.795409 283.477478 
L 327.828566 286.785448 
L 328.845145 287.19256 
L 329.861723 286.414596 
L 330.878302 288.638006 
L 331.894881 286.337986 
L 332.911459 289.91407 
L 333.928038 286.556884 
L 334.944617 288.929308 
L 335.961195 288.448949 
L 336.977774 283.899428 
L 337.994352 294.592277 
L 339.010931 296.721487 
L 340.02751 300.537635 
L 341.044088 310.450061 
L 342.060667 415.52092 
L 343.077245 257.428081 
L 344.093824 292.081206 
L 345.110403 280.846383 
L 346.126981 283.481682 
L 347.14356 285.262155 
L 348.160138 286.284692 
L 349.176717 286.337781 
L 350.193296 287.957683 
L 351.209874 285.520746 
L 352.226453 289.279985 
L 353.243032 288.237456 
L 354.25961 290.575917 
L 355.276189 291.300502 
L 356.292767 287.530343 
L 357.309346 283.249631 
L 358.325925 294.590854 
L 359.342503 296.717798 
L 360.359082 274.915938 
L 361.37566 264.048428 
L 362.392239 162.541077 
L 363.408818 301.174591 
L 364.425396 275.513116 
L 365.441975 287.223516 
L 366.458553 283.47816 
L 367.475132 285.637812 
L 368.491711 286.566574 
L 369.508289 287.194561 
L 370.524868 286.210878 
L 371.541447 288.640603 
L 372.558025 285.848386 
L 373.574604 289.91703 
L 374.591182 288.564024 
L 375.607761 284.188901 
L 376.62434 292.143113 
L 377.640918 293.186116 
L 378.657497 280.705677 
L 379.674075 281.47069 
L 380.690654 300.563606 
L 381.707233 310.414617 
L 382.723811 413.956704 
L 383.74039 257.313581 
L 384.756968 292.085246 
L 385.773547 289.421093 
L 386.790126 283.477932 
L 387.806704 287.280733 
L 388.823283 286.284828 
L 389.839862 287.195494 
L 390.85644 285.860619 
L 391.873019 288.641695 
L 392.889597 285.519139 
L 393.906176 289.918477 
L 394.922755 290.579512 
L 395.939333 288.931887 
L 396.955912 283.767737 
L 397.97249 293.187726 
L 398.989069 294.594076 
L 400.005648 276.830471 
L 401.022226 278.770336 
L 402.038805 295.508925 
L 403.055383 413.060356 
L 404.071962 257.248843 
L 405.088541 292.091624 
L 406.105119 280.833269 
L 407.121698 283.476197 
L 408.138277 285.260012 
L 409.154855 286.286631 
L 410.171434 286.12783 
L 411.188012 287.961323 
L 412.204591 284.47686 
L 413.22117 289.285256 
L 414.237748 288.240244 
L 415.254327 290.581523 
L 416.270905 291.306 
L 417.287484 283.718216 
L 418.304063 292.893767 
L 419.320641 294.595051 
L 420.33722 296.719816 
L 421.353799 291.679528 
L 422.370377 307.453417 
L 423.386956 411.805484 
L 424.403534 257.146011 
L 425.420113 292.101711 
L 426.436692 280.826054 
L 427.45327 288.106369 
L 428.469849 285.116622 
L 429.486427 286.514659 
L 430.503006 287.196678 
L 431.519585 285.941945 
L 432.536163 288.644304 
L 433.552742 286.533123 
L 434.56932 284.878645 
L 435.585899 290.584983 
L 436.602478 291.309571 
L 437.619056 285.049114 
L 438.635635 289.876598 
L 439.652214 289.764932 
L 441.685371 300.557801 
L 442.701949 309.825078 
L 443.718528 412.086156 
L 444.735107 257.161617 
L 445.751685 292.099919 
L 446.768264 280.828179 
L 447.784842 283.475268 
L 448.801421 285.295915 
L 449.818 286.290071 
L 450.834578 286.003394 
L 451.851157 287.965125 
L 452.867735 285.74011 
L 453.884314 289.289882 
L 454.900893 288.242707 
L 455.917471 290.586666 
L 456.93405 291.311297 
L 457.950629 281.264169 
L 458.967207 293.194505 
L 459.983786 290.57991 
L 461.000364 296.721023 
L 462.016943 286.573337 
L 463.033522 310.313246 
L 464.0501 350.83158 
L 465.066679 256.961139 
L 466.083257 297.511969 
L 467.099836 280.811603 
L 468.116415 289.653247 
L 469.132993 285.114437 
L 470.149572 286.835211 
L 471.16615 287.198013 
L 472.182729 287.964265 
L 473.199308 287.601857 
L 474.215886 289.289398 
L 475.232465 283.299073 
L 476.249044 290.585705 
L 477.265622 291.309862 
L 478.282201 285.135324 
L 479.298779 289.875404 
L 480.315358 290.300168 
L 481.331937 296.372836 
L 482.348515 300.525258 
L 483.365094 310.095488 
L 484.381672 407.030166 
L 485.398251 256.769345 
L 486.41483 286.56 
L 488.447987 286.54659 
L 489.464565 289.253224 
L 490.481144 287.632052 
L 491.497723 288.533624 
L 492.514301 286.554156 
L 493.53088 287.024444 
L 494.547459 286.814457 
L 495.564037 284.816719 
L 496.580616 284.780674 
L 497.597194 279.509535 
L 498.613773 294.267738 
L 499.630352 254.493428 
L 500.64693 326.677538 
L 501.663509 277.950879 
L 502.680087 275.23077 
L 503.696666 293.707236 
L 504.713245 293.7721 
L 505.729823 283.792623 
L 506.746402 282.514704 
L 507.762981 290.895286 
L 508.779559 288.865604 
L 509.796138 289.567013 
L 510.812716 288.93177 
L 511.829295 287.41678 
L 512.845874 287.552705 
L 513.862452 286.497067 
L 514.879031 285.687567 
L 515.895609 287.741806 
L 516.912188 282.223637 
L 517.928767 290.302345 
L 518.945345 269.19101 
L 519.961924 286.560044 
L 520.978502 323.416419 
L 521.995081 303.672816 
L 523.01166 278.246922 
L 524.028238 278.049867 
L 525.044817 291.454628 
L 526.061396 292.576553 
L 527.077974 285.222339 
L 528.094553 288.724517 
L 529.111131 290.203381 
L 530.12771 286.587432 
L 531.144289 288.922861 
L 532.160867 285.727742 
L 533.177446 287.540469 
L 535.210603 285.657105 
L 536.227182 287.719158 
L 537.24376 282.156431 
L 538.260339 281.390146 
L 539.276917 268.360094 
L 540.293496 286.561814 
L 541.310075 320.589894 
L 542.326653 278.60684 
L 543.343232 275.282631 
L 544.359811 287.619409 
L 545.376389 293.651415 
L 546.392968 286.509139 
L 547.409546 291.588924 
L 548.426125 286.562103 
L 550.459282 286.56 
L 551.475861 289.032955 
L 552.492439 287.533588 
L 553.509018 287.941686 
L 554.525597 287.291181 
L 555.542175 286.484878 
L 556.558754 285.453578 
L 557.575332 284.054785 
L 558.591911 281.725788 
L 559.60849 289.250746 
L 560.625068 176.828274 
L 561.641647 270.671476 
L 562.658226 303.059238 
L 563.674804 298.765841 
L 564.691383 284.982591 
L 565.707961 277.329718 
L 566.72454 279.245248 
L 567.741119 278.137802 
L 568.757697 290.848774 
L 569.774276 295.502938 
L 570.790854 278.142396 
L 571.807433 275.95247 
L 572.824012 277.699146 
L 573.84059 262.039459 
L 574.377458 577 
M 575.344403 577 
L 575.873747 271.248127 
L 576.890326 289.418647 
L 577.906905 284.128861 
L 578.923483 287.2969 
L 579.940062 286.892274 
L 580.956641 287.111761 
L 581.973219 288.278835 
L 582.989798 284.476942 
L 584.006376 289.318576 
L 585.022955 288.188599 
L 586.039534 290.338758 
L 587.056112 286.521035 
L 588.072691 291.554187 
L 589.089269 283.748001 
L 590.105848 283.318531 
L 591.122427 279.020499 
L 592.139005 290.642969 
L 593.155584 297.927921 
L 594.172163 300.947403 
L 595.188741 305.798564 
L 596.20532 315.611793 
L 597.221898 345.223984 
L 597.568575 -1 
M 598.93239 -1 
L 599.255056 310.094095 
L 600.271634 265.083814 
L 601.288213 286.207966 
L 602.304791 280.615775 
L 603.32137 287.338861 
L 604.337949 288.855356 
L 605.354527 281.323764 
L 606.371106 295.560385 
L 607.387684 274.915271 
L 608.404263 273.079295 
L 609.420842 293.761989 
L 610.43742 279.39664 
L 611.453999 276.769688 
L 612.470578 292.085699 
L 613.487156 297.921063 
L 614.503735 296.619778 
L 615.520313 287.289491 
L 616.536892 279.606064 
L 618.570049 292.409211 
L 621.619785 290.148255 
L 622.636364 289.696233 
L 622.636364 289.696233 
" style="fill:none;stroke:#1f77b4;stroke-linecap:square;stroke-width:1.5;"/>
   </g>
   <g id="line2d_13">
    <path clip-path="url(#p527fc4c578)" d="M 115.363636 286.56 
L 123.496265 286.566637 
L 124.512844 286.682453 
L 125.529422 286.589786 
L 126.546001 286.718431 
L 127.56258 286.460126 
L 128.579158 286.749562 
L 129.595737 286.676834 
L 130.612316 286.848024 
L 131.628894 286.411478 
L 132.645473 286.942515 
L 133.662051 286.79236 
L 134.67863 287.094161 
L 135.695209 286.288285 
L 136.711787 287.073198 
L 137.728366 286.96791 
L 138.744944 286.399562 
L 139.761523 286.496301 
L 141.79468 286.297568 
L 142.811259 285.911576 
L 143.827837 286.566604 
L 144.844416 285.189242 
L 145.860995 286.249827 
L 146.877573 283.874537 
L 147.894152 288.461021 
L 148.910731 280.977682 
L 149.927309 280.732328 
L 150.943888 294.294874 
L 151.960466 283.8614 
L 152.977045 285.192407 
L 153.993624 285.695209 
L 155.010202 286.631533 
L 156.026781 286.114706 
L 157.043359 286.561145 
L 158.059938 288.218223 
L 159.076517 286.559996 
L 160.093095 284.481833 
L 161.109674 289.928499 
L 162.126253 288.450424 
L 163.142831 291.340266 
L 164.15941 283.704422 
L 165.175988 293.532375 
L 166.192567 277.700252 
L 167.209146 298.81179 
L 168.225724 265.660832 
L 169.242303 397.160569 
L 170.258881 312.331899 
L 171.27546 276.861796 
L 172.292039 281.565347 
L 173.308617 289.056097 
L 174.325196 285.95252 
L 175.341774 286.653495 
L 176.358353 287.169883 
L 178.39151 288.404053 
L 180.424668 289.435141 
L 181.441246 284.87383 
L 182.457825 290.440991 
L 183.474403 290.977915 
L 184.490982 286.217759 
L 185.507561 292.248383 
L 186.524139 282.959185 
L 187.540718 294.154284 
L 188.557296 277.418647 
L 189.573875 298.271422 
L 190.590454 295.204553 
L 191.607032 329.293041 
L 192.623611 246.561316 
L 193.640189 277.196219 
L 194.656768 285.782436 
L 195.673347 286.117119 
L 196.689925 285.875028 
L 197.706504 283.77579 
L 198.723083 286.578776 
L 199.739661 291.95198 
L 200.75624 293.479898 
L 201.772818 282.102234 
L 202.789397 298.508326 
L 203.805976 304.286854 
L 204.822554 318.780613 
L 204.86145 577 
M 206.809893 577 
L 206.855711 270.657058 
L 207.87229 271.750564 
L 208.888869 286.56 
L 209.905447 280.415386 
L 210.922026 288.725994 
L 211.938604 283.54521 
L 212.955183 284.516052 
L 213.971762 287.240757 
L 214.98834 286.226541 
L 216.004919 286.613586 
L 217.021498 286.863819 
L 220.071233 287.932584 
L 221.087812 288.224642 
L 222.104391 285.593639 
L 223.120969 288.73583 
L 224.137548 288.949248 
L 225.154126 288.68947 
L 226.170705 287.16684 
L 227.187284 286.643815 
L 228.203862 285.473374 
L 229.220441 289.495244 
L 230.237019 286.55779 
L 231.253598 287.955634 
L 232.270177 287.815683 
L 233.286755 284.416783 
L 234.303334 288.198145 
L 235.319913 287.555873 
L 236.336491 286.46211 
L 237.35307 286.844309 
L 238.369648 285.203556 
L 239.386227 284.520727 
L 240.402806 284.005642 
L 241.419384 283.683766 
L 242.435963 288.066669 
L 243.452541 283.583965 
L 244.46912 283.76913 
L 245.485699 284.182761 
L 246.502277 284.376548 
L 247.518856 284.689668 
L 248.535435 287.917835 
L 249.552013 285.19644 
L 250.568592 286.008165 
L 251.58517 286.992609 
L 252.601749 285.90957 
L 253.618328 286.09997 
L 254.634906 286.590304 
L 255.651485 286.635193 
L 256.668063 286.529065 
L 259.717799 286.71892 
L 261.750956 286.76207 
L 262.767535 286.469975 
L 263.784114 286.693661 
L 267.850428 286.324713 
L 268.867007 286.836012 
L 269.883585 286.16938 
L 270.900164 286.344685 
L 271.916743 286.77977 
L 272.933321 286.144146 
L 273.9499 286.19931 
L 275.983057 286.644456 
L 276.999636 286.519041 
L 278.016214 286.661963 
L 280.049371 286.146454 
L 281.06595 286.090435 
L 282.082529 286.190525 
L 283.099107 287.45814 
L 284.115686 286.561923 
L 285.132265 287.15876 
L 286.148843 286.034997 
L 287.165422 287.997652 
L 289.198579 286.197399 
L 290.215158 288.186183 
L 291.231736 287.370693 
L 292.248315 285.774807 
L 293.264893 288.02083 
L 294.281472 287.839829 
L 295.298051 286.572052 
L 296.314629 286.238249 
L 297.331208 286.722066 
L 299.364365 285.442004 
L 302.414101 283.204714 
L 303.43068 288.755285 
L 304.447258 282.310187 
L 305.463837 282.15182 
L 307.496994 284.460765 
L 308.513573 288.466503 
L 309.530151 283.134038 
L 310.54673 285.070592 
L 311.563308 287.807738 
L 312.579887 284.494779 
L 313.596466 284.932524 
L 315.629623 286.968203 
L 316.646201 286.114995 
L 317.66278 286.464323 
L 319.695937 286.265576 
L 320.712516 286.904577 
L 321.729095 287.289353 
L 322.745673 287.939165 
L 323.762252 286.56 
L 325.795409 288.665011 
L 326.811988 288.888274 
L 327.828566 284.496436 
L 328.845145 289.297885 
L 329.861723 286.256163 
L 330.878302 289.634779 
L 331.894881 286.299027 
L 332.911459 289.825602 
L 333.928038 286.557475 
L 334.944617 288.113277 
L 335.961195 287.487612 
L 336.977774 285.759402 
L 337.994352 287.138602 
L 339.010931 284.547849 
L 340.02751 279.985946 
L 341.044088 272.613535 
L 342.060667 263.481164 
L 343.077245 257.399673 
L 344.093824 300.835482 
L 345.110403 262.660827 
L 346.126981 267.693148 
L 347.14356 273.364548 
L 348.160138 275.198552 
L 349.176717 289.665179 
L 350.193296 279.611894 
L 351.209874 289.283425 
L 352.226453 282.315952 
L 353.243032 284.929751 
L 354.25961 284.12094 
L 355.276189 284.819905 
L 356.292767 286.362656 
L 357.309346 286.86093 
L 358.325925 286.434356 
L 359.342503 286.866472 
L 360.359082 285.974841 
L 362.392239 285.177659 
L 363.408818 285.682894 
L 364.425396 288.635003 
L 365.441975 286.283003 
L 366.458553 289.257532 
L 367.475132 288.482113 
L 368.491711 286.480988 
L 369.508289 290.189346 
L 370.524868 285.572861 
L 371.541447 290.855207 
L 372.558025 285.34337 
L 373.574604 291.597075 
L 374.591182 289.278798 
L 375.607761 283.60962 
L 376.62434 292.940763 
L 377.640918 293.376248 
L 378.657497 282.075971 
L 379.674075 281.442612 
L 380.690654 297.298409 
L 381.707233 298.768147 
L 382.723811 301.035597 
L 383.74039 304.677835 
L 384.756968 274.131994 
L 385.773547 265.789277 
L 386.790126 440.672443 
L 387.806704 324.897787 
L 388.823283 258.231268 
L 389.839862 270.234906 
L 390.85644 291.975164 
L 391.873019 278.889218 
L 392.889597 288.694648 
L 393.906176 282.468625 
L 394.922755 283.602358 
L 395.939333 285.531255 
L 396.955912 287.218121 
L 397.97249 285.872318 
L 398.989069 286.418736 
L 401.022226 286.123472 
L 402.038805 287.007162 
L 403.055383 288.132461 
L 404.071962 288.496675 
L 405.088541 285.415036 
L 406.105119 289.198568 
L 407.121698 289.549126 
L 408.138277 289.578367 
L 409.154855 290.262752 
L 410.171434 283.761798 
L 411.188012 291.11812 
L 412.204591 281.506104 
L 413.22117 292.204923 
L 414.237748 289.757917 
L 415.254327 294.019013 
L 416.270905 295.843812 
L 417.287484 279.365657 
L 418.304063 15.904614 
L 419.320641 284.634548 
L 420.33722 289.319537 
L 421.353799 288.345571 
L 422.370377 292.264529 
L 423.386956 294.682857 
L 424.403534 296.627291 
L 425.420113 280.177533 
L 426.436692 303.708045 
L 427.45327 273.434203 
L 428.469849 345.50661 
L 429.486427 259.864953 
L 430.503006 255.545392 
L 431.519585 293.602907 
L 432.536163 276.482915 
L 433.552742 286.627814 
L 434.56932 288.978515 
L 435.585899 283.158946 
L 436.602478 284.239173 
L 437.619056 286.955682 
L 438.635635 286.181665 
L 440.668792 286.88618 
L 442.701949 287.820607 
L 444.735107 288.656192 
L 445.751685 285.319186 
L 446.768264 289.426601 
L 447.784842 289.820031 
L 448.801421 289.78157 
L 449.818 290.637193 
L 450.834578 282.551616 
L 451.851157 291.735649 
L 452.867735 284.254237 
L 453.884314 293.347208 
L 454.900893 290.62979 
L 456.93405 303.750994 
L 457.382569 -1 
M 458.540205 -1 
L 458.967207 278.541871 
L 459.983786 286.094994 
L 461.000364 288.308199 
L 462.016943 286.56325 
L 463.033522 291.308302 
L 464.0501 289.717507 
L 465.066679 294.032465 
L 466.083257 277.439829 
L 467.099836 298.351271 
L 468.116415 270.577369 
L 469.132993 311.513589 
L 470.149572 225.245974 
L 471.16615 184.616987 
L 472.182729 261.331967 
L 473.199308 279.914425 
L 474.215886 278.171822 
L 475.232465 292.029872 
L 476.249044 282.699712 
L 477.265622 283.974945 
L 478.282201 286.970287 
L 479.298779 286.147456 
L 480.315358 286.481934 
L 485.398251 288.791881 
L 486.41483 286.56 
L 488.447987 286.574189 
L 489.464565 285.060769 
L 490.481144 285.596698 
L 491.497723 283.565821 
L 492.514301 286.577118 
L 493.53088 282.016854 
L 494.547459 289.264601 
L 495.564037 280.323228 
L 496.580616 283.048662 
L 497.597194 279.106651 
L 498.613773 290.224331 
L 499.630352 283.216037 
L 500.64693 281.056652 
L 501.663509 288.459107 
L 502.680087 288.47848 
L 503.696666 286.338038 
L 504.713245 287.650416 
L 505.729823 285.605509 
L 506.746402 284.395791 
L 507.762981 289.689983 
L 508.779559 288.670003 
L 509.796138 289.974835 
L 510.812716 289.952093 
L 511.829295 288.211089 
L 512.845874 289.724607 
L 513.862452 285.369785 
L 514.879031 289.353384 
L 515.895609 285.212983 
L 516.912188 288.891742 
L 517.928767 285.596759 
L 518.945345 288.350088 
L 519.961924 286.559999 
L 520.978502 287.708463 
L 521.995081 287.365721 
L 523.01166 286.239361 
L 524.028238 286.495959 
L 525.044817 286.330675 
L 526.061396 285.790142 
L 527.077974 286.884011 
L 528.094553 285.69243 
L 529.111131 284.282082 
L 530.12771 286.533769 
L 531.144289 283.059324 
L 532.160867 288.590972 
L 533.177446 281.775339 
L 534.194024 283.888108 
L 535.210603 280.801981 
L 536.227182 289.528418 
L 537.24376 280.820485 
L 538.260339 283.279131 
L 539.276917 282.208588 
L 540.293496 286.560046 
L 541.310075 284.322666 
L 542.326653 287.2029 
L 543.343232 287.163378 
L 544.359811 286.554561 
L 545.376389 286.924816 
L 546.392968 286.554468 
L 547.409546 287.381463 
L 548.426125 286.560451 
L 577.906905 286.476511 
L 578.923483 286.659045 
L 579.940062 286.442645 
L 580.956641 286.49046 
L 581.973219 286.394238 
L 582.989798 286.745532 
L 584.006376 286.308568 
L 585.022955 286.391984 
L 586.039534 286.031674 
L 587.056112 286.574883 
L 588.072691 287.431509 
L 589.089269 286.437243 
L 592.139005 286.551398 
L 597.221898 286.436614 
L 598.238477 286.425694 
L 599.255056 286.631664 
L 600.271634 286.409439 
L 601.288213 286.555327 
L 602.304791 286.399826 
L 603.32137 286.642818 
L 604.337949 286.394797 
L 605.354527 286.708899 
L 606.371106 286.396298 
L 607.387684 286.719924 
L 608.404263 286.713666 
L 609.420842 286.487408 
L 610.43742 286.626389 
L 611.453999 286.64453 
L 613.487156 286.483853 
L 618.570049 286.724454 
L 620.603206 286.960021 
L 621.619785 287.148333 
L 622.636364 287.535985 
L 622.636364 287.535985 
" style="fill:none;stroke:#ff7f0e;stroke-linecap:square;stroke-width:1.5;"/>
   </g>
   <g id="line2d_14">
    <path clip-path="url(#p527fc4c578)" d="M 115.363636 297.102391 
L 116.380215 286.56 
L 117.396794 294.934627 
L 118.413372 289.151944 
L 119.429951 288.066605 
L 120.446529 287.762645 
L 121.463108 288.612553 
L 122.479687 285.801674 
L 123.496265 289.165059 
L 124.512844 279.122156 
L 125.529422 291.055448 
L 126.546001 337.400007 
L 127.56258 268.475943 
L 128.579158 296.261594 
L 129.595737 288.95416 
L 130.612316 292.314152 
L 131.628894 282.062424 
L 132.645473 290.465324 
L 133.662051 287.497001 
L 134.67863 289.124557 
L 135.695209 283.774551 
L 136.711787 287.861177 
L 137.728366 287.18193 
L 138.744944 284.501004 
L 139.761523 284.827119 
L 140.778102 284.37754 
L 141.79468 283.3399 
L 142.811259 280.501125 
L 143.827837 283.391186 
L 144.844416 267.259359 
L 145.860995 262.170161 
L 146.877573 352.331508 
L 147.894152 282.122298 
L 148.910731 302.103218 
L 149.927309 294.795101 
L 150.943888 284.404085 
L 151.960466 278.265747 
L 152.977045 282.038891 
L 153.993624 283.433579 
L 155.010202 285.117597 
L 156.026781 284.550821 
L 157.043359 285.257407 
L 158.059938 287.429225 
L 159.076517 285.328074 
L 160.093095 282.774418 
L 161.109674 289.331506 
L 162.126253 287.442255 
L 163.142831 290.698518 
L 164.15941 281.508081 
L 165.175988 292.662845 
L 166.192567 273.617647 
L 167.209146 297.198793 
L 168.225724 254.472885 
L 169.242303 420.098882 
L 170.258881 322.269501 
L 171.27546 280.329338 
L 172.292039 283.907383 
L 173.308617 291.482737 
L 174.325196 287.663443 
L 178.39151 289.931205 
L 180.424668 291.199196 
L 181.441246 285.816978 
L 182.457825 292.71788 
L 183.474403 293.701242 
L 184.490982 287.808817 
L 185.507561 296.743738 
L 186.524139 283.447969 
L 187.540718 304.711545 
L 188.557296 268.294317 
L 189.573875 543.214135 
L 190.590454 264.267703 
L 191.607032 271.851857 
L 192.623611 278.274485 
L 194.656768 284.462595 
L 195.673347 284.806912 
L 196.689925 284.81923 
L 197.706504 283.815215 
L 198.723083 285.318372 
L 199.739661 288.0861 
L 200.75624 288.709208 
L 201.772818 283.246145 
L 202.789397 289.977314 
L 203.805976 290.695951 
L 204.822554 291.098763 
L 205.839133 292.659103 
L 206.855711 289.122648 
L 207.87229 297.174944 
L 208.888869 279.669513 
L 209.905447 385.930292 
L 210.922026 311.922343 
L 211.938604 279.796881 
L 212.955183 283.672674 
L 213.971762 290.427732 
L 214.98834 287.629019 
L 216.004919 288.236542 
L 217.021498 288.579969 
L 221.087812 291.136836 
L 222.104391 285.843745 
L 223.120969 292.636068 
L 224.137548 293.599468 
L 225.154126 293.698975 
L 226.170705 290.337233 
L 227.187284 289.395517 
L 228.203862 284.98431 
L 229.220441 316.494056 
L 230.237019 321.328874 
L 231.253598 261.185281 
L 232.270177 276.487589 
L 233.286755 289.424427 
L 234.303334 281.242751 
L 236.336491 285.117286 
L 237.35307 284.84367 
L 238.369648 286.631127 
L 240.402806 288.032643 
L 241.419384 288.658397 
L 242.435963 283.279319 
L 243.452541 289.922026 
L 244.46912 290.632842 
L 245.485699 291.082469 
L 247.518856 293.782789 
L 248.535435 271.467469 
L 249.552013 303.645247 
L 250.568592 310.300938 
L 251.58517 311.574314 
L 252.601749 279.863442 
L 253.618328 283.701808 
L 254.634906 289.083088 
L 255.651485 289.09838 
L 256.668063 287.829247 
L 257.684642 288.587118 
L 258.701221 289.188743 
L 259.717799 289.63306 
L 260.734378 290.500441 
L 261.750956 291.14353 
L 262.767535 285.840736 
L 263.784114 292.644322 
L 264.800692 293.609305 
L 265.817271 289.146849 
L 266.83385 296.16604 
L 267.850428 299.190447 
L 268.867007 278.294391 
L 269.883585 316.626969 
L 270.900164 382.135879 
L 271.916743 291.377807 
L 272.933321 270.956573 
L 273.9499 277.884696 
L 274.966478 283.328655 
L 275.983057 285.48493 
L 276.999636 284.70682 
L 278.016214 285.773406 
L 279.032793 284.268544 
L 280.049371 283.242505 
L 281.06595 283.121623 
L 282.082529 283.645529 
L 283.099107 289.282996 
L 284.115686 285.208081 
L 285.132265 287.855605 
L 286.148843 282.257299 
L 287.165422 292.568277 
L 288.182 287.617707 
L 289.198579 279.760358 
L 290.215158 303.79193 
L 291.231736 311.501797 
L 292.248315 311.224173 
L 293.264893 279.916379 
L 294.281472 283.723777 
L 295.298051 288.719953 
L 296.314629 289.088477 
L 297.331208 287.835621 
L 299.364365 289.240857 
L 302.414101 291.147284 
L 303.43068 285.585549 
L 304.447258 292.648265 
L 305.463837 293.613552 
L 306.480415 293.187348 
L 307.496994 292.599703 
L 308.513573 284.073128 
L 309.530151 304.116982 
L 310.54673 304.89833 
L 311.563308 262.546294 
L 312.579887 247.069086 
L 313.596466 271.014888 
L 314.613044 280.781424 
L 315.629623 285.905308 
L 316.646201 283.307597 
L 317.66278 284.717028 
L 318.679359 284.539675 
L 319.695937 284.49084 
L 320.712516 286.159553 
L 321.729095 287.105423 
L 322.745673 288.672701 
L 323.762252 285.274852 
L 324.77883 287.670573 
L 325.795409 290.654346 
L 326.811988 291.499421 
L 327.828566 278.01033 
L 328.845145 294.178753 
L 329.861723 281.450277 
L 330.878302 303.982087 
L 331.894881 235.687147 
L 332.911459 267.465512 
L 333.928038 290.979094 
L 334.944617 286.601374 
L 336.977774 288.936334 
L 337.994352 287.844156 
L 340.02751 289.261927 
L 343.077245 291.151298 
L 344.093824 285.834957 
L 345.110403 292.651629 
L 346.126981 293.61638 
L 347.14356 294.201676 
L 348.160138 296.570418 
L 349.176717 285.564398 
L 350.193296 304.084023 
L 351.209874 281.257619 
L 352.226453 440.941208 
L 353.243032 261.541927 
L 354.25961 270.941785 
L 355.276189 277.886987 
L 356.292767 283.813231 
L 357.309346 285.471513 
L 358.325925 284.714509 
L 359.342503 285.782279 
L 360.359082 284.077254 
L 362.392239 282.667884 
L 363.408818 283.628843 
L 364.425396 289.299297 
L 365.441975 284.639426 
L 366.458553 290.663935 
L 367.475132 289.114805 
L 368.491711 284.344008 
L 369.508289 294.205464 
L 370.524868 279.359219 
L 371.541447 304.152509 
L 372.558025 206.811549 
L 373.574604 267.757947 
L 374.591182 285.505138 
L 375.607761 292.28153 
L 376.62434 285.686232 
L 378.657497 288.317808 
L 379.674075 287.648451 
L 380.690654 289.263332 
L 383.74039 291.145884 
L 384.756968 285.841057 
L 385.773547 285.559239 
L 386.790126 293.602352 
L 387.806704 284.951469 
L 388.823283 296.537525 
L 389.839862 299.165363 
L 390.85644 283.253151 
L 391.873019 316.227462 
L 392.889597 277.55424 
L 393.906176 245.708017 
L 394.922755 270.769357 
L 395.939333 280.714515 
L 396.955912 285.889418 
L 397.97249 283.283295 
L 398.989069 284.704622 
L 401.022226 284.451582 
L 402.038805 286.078161 
L 403.055383 288.053564 
L 404.071962 288.683445 
L 405.088541 283.239931 
L 406.105119 289.958321 
L 407.121698 290.678118 
L 408.138277 290.873579 
L 409.154855 292.594543 
L 410.171434 276.96936 
L 411.188012 297.106964 
L 412.204591 255.092608 
L 413.22117 396.60974 
L 414.237748 282.118905 
L 415.254327 280.112118 
L 416.270905 283.797402 
L 417.287484 290.294508 
L 418.304063 286.99296 
L 420.33722 288.597547 
L 421.353799 288.378597 
L 422.370377 289.629864 
L 423.386956 290.498282 
L 424.403534 291.136958 
L 425.420113 285.847677 
L 426.436692 292.624277 
L 427.45327 285.274953 
L 428.469849 294.797861 
L 429.486427 289.862286 
L 430.503006 299.067978 
L 431.519585 284.109352 
L 432.536163 315.556478 
L 433.552742 315.084613 
L 435.585899 270.475 
L 437.619056 285.1511 
L 438.635635 283.982715 
L 442.701949 287.338284 
L 444.735107 288.691425 
L 445.751685 283.213359 
L 446.768264 289.973971 
L 447.784842 290.699255 
L 448.801421 290.734853 
L 449.818 292.604836 
L 450.834578 274.862914 
L 451.851157 297.246618 
L 452.867735 269.578154 
L 453.884314 420.700785 
L 454.900893 282.325831 
L 455.917471 280.242028 
L 456.93405 283.845261 
L 457.950629 291.600834 
L 458.967207 286.940134 
L 459.983786 287.984749 
L 461.000364 288.597555 
L 462.016943 287.873093 
L 463.033522 289.876809 
L 464.0501 289.203256 
L 465.066679 291.124245 
L 466.083257 283.934263 
L 467.099836 292.600912 
L 468.116415 282.547794 
L 469.132993 294.749371 
L 470.149572 280.696769 
L 471.16615 298.938189 
L 472.182729 303.491715 
L 473.199308 303.681945 
L 474.215886 396.843863 
L 475.232465 307.74547 
L 476.249044 269.96604 
L 478.282201 285.066744 
L 479.298779 283.936385 
L 483.365094 287.368331 
L 485.398251 288.694939 
L 486.41483 286.56 
L 487.431408 297.068329 
L 488.447987 292.016473 
L 489.464565 269.498086 
L 490.481144 295.301896 
L 491.497723 302.140459 
L 492.514301 283.123063 
L 493.53088 293.780175 
L 494.547459 280.813006 
L 495.564037 291.249567 
L 496.580616 287.802886 
L 497.597194 289.709725 
L 498.613773 283.433757 
L 499.630352 286.869021 
L 500.64693 287.731714 
L 501.663509 284.421672 
L 502.680087 284.229647 
L 503.696666 285.217049 
L 504.713245 284.025896 
L 505.729823 285.604028 
L 506.746402 287.462335 
L 507.762981 275.009734 
L 508.779559 269.416144 
L 509.796138 159.776334 
L 510.812716 334.258638 
L 511.829295 299.697632 
L 512.845874 301.097205 
L 513.862452 285.250228 
L 514.879031 295.577587 
L 515.895609 284.977169 
L 516.912188 293.073217 
L 517.928767 285.861605 
L 518.945345 291.463722 
L 519.961924 287.793403 
L 520.978502 290.171316 
L 521.995081 289.55217 
L 523.01166 287.204761 
L 524.028238 287.89051 
L 525.044817 287.644643 
L 526.061396 286.292636 
L 527.077974 290.221883 
L 528.094553 286.089479 
L 529.111131 275.446955 
L 530.12771 317.953087 
L 531.144289 312.551701 
L 532.160867 273.755131 
L 533.177446 295.148877 
L 534.194024 288.768251 
L 535.210603 291.913537 
L 536.227182 282.010296 
L 537.24376 290.184012 
L 538.260339 287.945303 
L 539.276917 288.919358 
L 540.293496 285.32782 
L 541.310075 287.643992 
L 542.326653 284.475959 
L 543.343232 284.265926 
L 544.359811 285.077808 
L 545.376389 283.898417 
L 546.392968 284.55858 
L 547.409546 279.416362 
L 548.426125 282.862442 
L 549.442704 279.776414 
L 550.459282 249.004035 
L 551.475861 340.308546 
L 552.492439 301.376327 
L 553.509018 302.972118 
L 554.525597 299.225212 
L 555.542175 296.653478 
L 557.575332 293.822869 
L 558.591911 292.816697 
L 559.60849 287.144034 
L 560.625068 293.246335 
L 561.641647 285.897574 
L 562.658226 292.971228 
L 563.674804 293.050754 
L 564.691383 288.733601 
L 565.707961 286.830112 
L 566.72454 291.184696 
L 567.741119 333.135156 
L 568.757697 279.340661 
L 569.774276 287.326571 
L 570.790854 278.795276 
L 571.807433 279.179364 
L 572.824012 281.28422 
L 573.84059 279.407417 
L 574.857169 280.005588 
L 575.873747 290.815317 
L 576.890326 281.694344 
L 577.906905 291.714633 
L 578.923483 276.877504 
L 579.940062 293.256567 
L 580.956641 289.222447 
L 581.973219 297.074626 
L 582.989798 259.541568 
L 584.006376 335.179531 
L 585.022955 278.632367 
L 586.039534 277.159753 
L 587.056112 290.154021 
L 588.072691 284.480801 
L 589.089269 290.056952 
L 590.105848 289.118589 
L 592.139005 288.285817 
L 593.155584 289.205293 
L 596.20532 291.327863 
L 598.238477 292.912666 
L 599.255056 285.447436 
L 600.271634 294.598207 
L 601.288213 288.613236 
L 602.304791 296.130895 
L 603.32137 284.480496 
L 604.337949 297.029015 
L 605.354527 281.157508 
L 606.371106 296.853226 
L 607.387684 281.07617 
L 608.404263 281.748617 
L 609.420842 291.677 
L 610.43742 286.005475 
L 611.453999 285.526293 
L 612.470578 289.921894 
L 613.487156 290.771396 
L 614.503735 289.811262 
L 615.520313 288.595227 
L 616.536892 289.428651 
L 617.553471 289.153989 
L 618.570049 285.465034 
L 619.586628 283.700166 
L 620.603206 280.882919 
L 621.619785 275.364556 
L 622.636364 244.08598 
L 622.636364 244.08598 
" style="fill:none;stroke:#2ca02c;stroke-linecap:square;stroke-width:1.5;"/>
   </g>
   <g id="patch_3">
    <path d="M 90 504 
L 90 69.12 
" style="fill:none;stroke:#000000;stroke-linecap:square;stroke-linejoin:miter;stroke-width:0.8;"/>
   </g>
   <g id="patch_4">
    <path d="M 648 504 
L 648 69.12 
" style="fill:none;stroke:#000000;stroke-linecap:square;stroke-linejoin:miter;stroke-width:0.8;"/>
   </g>
   <g id="patch_5">
    <path d="M 90 504 
L 648 504 
" style="fill:none;stroke:#000000;stroke-linecap:square;stroke-linejoin:miter;stroke-width:0.8;"/>
   </g>
   <g id="patch_6">
    <path d="M 90 69.12 
L 648 69.12 
" style="fill:none;stroke:#000000;stroke-linecap:square;stroke-linejoin:miter;stroke-width:0.8;"/>
   </g>
  </g>
 </g>
 <defs>
  <clipPath id="p527fc4c578">
   <rect height="434.88" width="558" x="90" y="69.12"/>
  </clipPath>
 </defs>
</svg>
