<?xml version="1.0" encoding="utf-8" standalone="no"?>
<!DOCTYPE svg PUBLIC "-//W3C//DTD SVG 1.1//EN"
  "http://www.w3.org/Graphics/SVG/1.1/DTD/svg11.dtd">
<svg height="576pt" version="1.1" viewBox="0 0 720 576" width="720pt" xmlns="http://www.w3.org/2000/svg" xmlns:xlink="http://www.w3.org/1999/xlink">
 <metadata>
  <rdf:RDF xmlns:cc="http://creativecommons.org/ns#" xmlns:dc="http://purl.org/dc/elements/1.1/" xmlns:rdf="http://www.w3.org/1999/02/22-rdf-syntax-ns#">
   <cc:Work>
    <dc:type rdf:resource="http://purl.org/dc/dcmitype/StillImage"/>
    <dc:date>2022-01-12T19:43:21.105295</dc:date>
    <dc:format>image/svg+xml</dc:format>
    <dc:creator>
     <cc:Agent>
      <dc:title>Matplotlib v3.4.3, https://matplotlib.org/</dc:title>
     </cc:Agent>
    </dc:creator>
   </cc:Work>
  </rdf:RDF>
 </metadata>
 <defs>
  <style type="text/css">*{stroke-linecap:butt;stroke-linejoin:round;}</style>
 </defs>
 <g id="figure_1">
  <g id="patch_1">
   <path d="M 0 576 
L 720 576 
L 720 0 
L 0 0 
z
" style="fill:none;"/>
  </g>
  <g id="axes_1">
   <g id="patch_2">
    <path d="M 90 504 
L 648 504 
L 648 69.12 
L 90 69.12 
z
" style="fill:#ffffff;"/>
   </g>
   <g id="matplotlib.axis_1">
    <g id="xtick_1">
     <g id="line2d_1">
      <defs>
       <path d="M 0 0 
L 0 3.5 
" id="mf80f6c5ba4" style="stroke:#000000;stroke-width:0.8;"/>
      </defs>
      <g>
       <use style="stroke:#000000;stroke-width:0.8;" x="115.363636" xlink:href="#mf80f6c5ba4" y="504"/>
      </g>
     </g>
     <g id="text_1">
      <!-- 0 -->
      <g transform="translate(112.182386 518.598438)scale(0.1 -0.1)">
       <defs>
        <path d="M 2034 4250 
Q 1547 4250 1301 3770 
Q 1056 3291 1056 2328 
Q 1056 1369 1301 889 
Q 1547 409 2034 409 
Q 2525 409 2770 889 
Q 3016 1369 3016 2328 
Q 3016 3291 2770 3770 
Q 2525 4250 2034 4250 
z
M 2034 4750 
Q 2819 4750 3233 4129 
Q 3647 3509 3647 2328 
Q 3647 1150 3233 529 
Q 2819 -91 2034 -91 
Q 1250 -91 836 529 
Q 422 1150 422 2328 
Q 422 3509 836 4129 
Q 1250 4750 2034 4750 
z
" id="DejaVuSans-30" transform="scale(0.015625)"/>
       </defs>
       <use xlink:href="#DejaVuSans-30"/>
      </g>
     </g>
    </g>
    <g id="xtick_2">
     <g id="line2d_2">
      <g>
       <use style="stroke:#000000;stroke-width:0.8;" x="217.021498" xlink:href="#mf80f6c5ba4" y="504"/>
      </g>
     </g>
     <g id="text_2">
      <!-- 100 -->
      <g transform="translate(207.477748 518.598438)scale(0.1 -0.1)">
       <defs>
        <path d="M 794 531 
L 1825 531 
L 1825 4091 
L 703 3866 
L 703 4441 
L 1819 4666 
L 2450 4666 
L 2450 531 
L 3481 531 
L 3481 0 
L 794 0 
L 794 531 
z
" id="DejaVuSans-31" transform="scale(0.015625)"/>
       </defs>
       <use xlink:href="#DejaVuSans-31"/>
       <use x="63.623047" xlink:href="#DejaVuSans-30"/>
       <use x="127.246094" xlink:href="#DejaVuSans-30"/>
      </g>
     </g>
    </g>
    <g id="xtick_3">
     <g id="line2d_3">
      <g>
       <use style="stroke:#000000;stroke-width:0.8;" x="318.679359" xlink:href="#mf80f6c5ba4" y="504"/>
      </g>
     </g>
     <g id="text_3">
      <!-- 200 -->
      <g transform="translate(309.135609 518.598438)scale(0.1 -0.1)">
       <defs>
        <path d="M 1228 531 
L 3431 531 
L 3431 0 
L 469 0 
L 469 531 
Q 828 903 1448 1529 
Q 2069 2156 2228 2338 
Q 2531 2678 2651 2914 
Q 2772 3150 2772 3378 
Q 2772 3750 2511 3984 
Q 2250 4219 1831 4219 
Q 1534 4219 1204 4116 
Q 875 4013 500 3803 
L 500 4441 
Q 881 4594 1212 4672 
Q 1544 4750 1819 4750 
Q 2544 4750 2975 4387 
Q 3406 4025 3406 3419 
Q 3406 3131 3298 2873 
Q 3191 2616 2906 2266 
Q 2828 2175 2409 1742 
Q 1991 1309 1228 531 
z
" id="DejaVuSans-32" transform="scale(0.015625)"/>
       </defs>
       <use xlink:href="#DejaVuSans-32"/>
       <use x="63.623047" xlink:href="#DejaVuSans-30"/>
       <use x="127.246094" xlink:href="#DejaVuSans-30"/>
      </g>
     </g>
    </g>
    <g id="xtick_4">
     <g id="line2d_4">
      <g>
       <use style="stroke:#000000;stroke-width:0.8;" x="420.33722" xlink:href="#mf80f6c5ba4" y="504"/>
      </g>
     </g>
     <g id="text_4">
      <!-- 300 -->
      <g transform="translate(410.79347 518.598438)scale(0.1 -0.1)">
       <defs>
        <path d="M 2597 2516 
Q 3050 2419 3304 2112 
Q 3559 1806 3559 1356 
Q 3559 666 3084 287 
Q 2609 -91 1734 -91 
Q 1441 -91 1130 -33 
Q 819 25 488 141 
L 488 750 
Q 750 597 1062 519 
Q 1375 441 1716 441 
Q 2309 441 2620 675 
Q 2931 909 2931 1356 
Q 2931 1769 2642 2001 
Q 2353 2234 1838 2234 
L 1294 2234 
L 1294 2753 
L 1863 2753 
Q 2328 2753 2575 2939 
Q 2822 3125 2822 3475 
Q 2822 3834 2567 4026 
Q 2313 4219 1838 4219 
Q 1578 4219 1281 4162 
Q 984 4106 628 3988 
L 628 4550 
Q 988 4650 1302 4700 
Q 1616 4750 1894 4750 
Q 2613 4750 3031 4423 
Q 3450 4097 3450 3541 
Q 3450 3153 3228 2886 
Q 3006 2619 2597 2516 
z
" id="DejaVuSans-33" transform="scale(0.015625)"/>
       </defs>
       <use xlink:href="#DejaVuSans-33"/>
       <use x="63.623047" xlink:href="#DejaVuSans-30"/>
       <use x="127.246094" xlink:href="#DejaVuSans-30"/>
      </g>
     </g>
    </g>
    <g id="xtick_5">
     <g id="line2d_5">
      <g>
       <use style="stroke:#000000;stroke-width:0.8;" x="521.995081" xlink:href="#mf80f6c5ba4" y="504"/>
      </g>
     </g>
     <g id="text_5">
      <!-- 400 -->
      <g transform="translate(512.451331 518.598438)scale(0.1 -0.1)">
       <defs>
        <path d="M 2419 4116 
L 825 1625 
L 2419 1625 
L 2419 4116 
z
M 2253 4666 
L 3047 4666 
L 3047 1625 
L 3713 1625 
L 3713 1100 
L 3047 1100 
L 3047 0 
L 2419 0 
L 2419 1100 
L 313 1100 
L 313 1709 
L 2253 4666 
z
" id="DejaVuSans-34" transform="scale(0.015625)"/>
       </defs>
       <use xlink:href="#DejaVuSans-34"/>
       <use x="63.623047" xlink:href="#DejaVuSans-30"/>
       <use x="127.246094" xlink:href="#DejaVuSans-30"/>
      </g>
     </g>
    </g>
    <g id="xtick_6">
     <g id="line2d_6">
      <g>
       <use style="stroke:#000000;stroke-width:0.8;" x="623.652942" xlink:href="#mf80f6c5ba4" y="504"/>
      </g>
     </g>
     <g id="text_6">
      <!-- 500 -->
      <g transform="translate(614.109192 518.598438)scale(0.1 -0.1)">
       <defs>
        <path d="M 691 4666 
L 3169 4666 
L 3169 4134 
L 1269 4134 
L 1269 2991 
Q 1406 3038 1543 3061 
Q 1681 3084 1819 3084 
Q 2600 3084 3056 2656 
Q 3513 2228 3513 1497 
Q 3513 744 3044 326 
Q 2575 -91 1722 -91 
Q 1428 -91 1123 -41 
Q 819 9 494 109 
L 494 744 
Q 775 591 1075 516 
Q 1375 441 1709 441 
Q 2250 441 2565 725 
Q 2881 1009 2881 1497 
Q 2881 1984 2565 2268 
Q 2250 2553 1709 2553 
Q 1456 2553 1204 2497 
Q 953 2441 691 2322 
L 691 4666 
z
" id="DejaVuSans-35" transform="scale(0.015625)"/>
       </defs>
       <use xlink:href="#DejaVuSans-35"/>
       <use x="63.623047" xlink:href="#DejaVuSans-30"/>
       <use x="127.246094" xlink:href="#DejaVuSans-30"/>
      </g>
     </g>
    </g>
   </g>
   <g id="matplotlib.axis_2">
    <g id="ytick_1">
     <g id="line2d_7">
      <defs>
       <path d="M 0 0 
L -3.5 0 
" id="m5b157d1625" style="stroke:#000000;stroke-width:0.8;"/>
      </defs>
      <g>
       <use style="stroke:#000000;stroke-width:0.8;" x="90" xlink:href="#m5b157d1625" y="460.512"/>
      </g>
     </g>
     <g id="text_7">
      <!-- −40000 -->
      <g transform="translate(42.807812 464.311219)scale(0.1 -0.1)">
       <defs>
        <path d="M 678 2272 
L 4684 2272 
L 4684 1741 
L 678 1741 
L 678 2272 
z
" id="DejaVuSans-2212" transform="scale(0.015625)"/>
       </defs>
       <use xlink:href="#DejaVuSans-2212"/>
       <use x="83.789062" xlink:href="#DejaVuSans-34"/>
       <use x="147.412109" xlink:href="#DejaVuSans-30"/>
       <use x="211.035156" xlink:href="#DejaVuSans-30"/>
       <use x="274.658203" xlink:href="#DejaVuSans-30"/>
       <use x="338.28125" xlink:href="#DejaVuSans-30"/>
      </g>
     </g>
    </g>
    <g id="ytick_2">
     <g id="line2d_8">
      <g>
       <use style="stroke:#000000;stroke-width:0.8;" x="90" xlink:href="#m5b157d1625" y="373.536"/>
      </g>
     </g>
     <g id="text_8">
      <!-- −20000 -->
      <g transform="translate(42.807812 377.335219)scale(0.1 -0.1)">
       <use xlink:href="#DejaVuSans-2212"/>
       <use x="83.789062" xlink:href="#DejaVuSans-32"/>
       <use x="147.412109" xlink:href="#DejaVuSans-30"/>
       <use x="211.035156" xlink:href="#DejaVuSans-30"/>
       <use x="274.658203" xlink:href="#DejaVuSans-30"/>
       <use x="338.28125" xlink:href="#DejaVuSans-30"/>
      </g>
     </g>
    </g>
    <g id="ytick_3">
     <g id="line2d_9">
      <g>
       <use style="stroke:#000000;stroke-width:0.8;" x="90" xlink:href="#m5b157d1625" y="286.56"/>
      </g>
     </g>
     <g id="text_9">
      <!-- 0 -->
      <g transform="translate(76.6375 290.359219)scale(0.1 -0.1)">
       <use xlink:href="#DejaVuSans-30"/>
      </g>
     </g>
    </g>
    <g id="ytick_4">
     <g id="line2d_10">
      <g>
       <use style="stroke:#000000;stroke-width:0.8;" x="90" xlink:href="#m5b157d1625" y="199.584"/>
      </g>
     </g>
     <g id="text_10">
      <!-- 20000 -->
      <g transform="translate(51.1875 203.383219)scale(0.1 -0.1)">
       <use xlink:href="#DejaVuSans-32"/>
       <use x="63.623047" xlink:href="#DejaVuSans-30"/>
       <use x="127.246094" xlink:href="#DejaVuSans-30"/>
       <use x="190.869141" xlink:href="#DejaVuSans-30"/>
       <use x="254.492188" xlink:href="#DejaVuSans-30"/>
      </g>
     </g>
    </g>
    <g id="ytick_5">
     <g id="line2d_11">
      <g>
       <use style="stroke:#000000;stroke-width:0.8;" x="90" xlink:href="#m5b157d1625" y="112.608"/>
      </g>
     </g>
     <g id="text_11">
      <!-- 40000 -->
      <g transform="translate(51.1875 116.407219)scale(0.1 -0.1)">
       <use xlink:href="#DejaVuSans-34"/>
       <use x="63.623047" xlink:href="#DejaVuSans-30"/>
       <use x="127.246094" xlink:href="#DejaVuSans-30"/>
       <use x="190.869141" xlink:href="#DejaVuSans-30"/>
       <use x="254.492188" xlink:href="#DejaVuSans-30"/>
      </g>
     </g>
    </g>
   </g>
   <g id="line2d_12">
    <path clip-path="url(#pa34293fc4b)" d="M 115.363636 286.56 
L 117.396794 286.56 
L 118.413372 288.710576 
L 119.429951 284.561166 
L 120.446529 287.717402 
L 121.463108 284.879724 
L 122.479687 287.693276 
L 123.496265 285.646085 
L 124.512844 287.283176 
L 125.529422 285.898558 
L 126.546001 286.971134 
L 127.56258 285.730109 
L 128.579158 287.091761 
L 129.595737 286.334702 
L 130.612316 286.387244 
L 131.628894 286.882218 
L 132.645473 285.476928 
L 133.662051 286.628611 
L 134.67863 283.93153 
L 135.695209 296.341854 
L 136.711787 295.212714 
L 137.728366 277.049219 
L 138.744944 279.212918 
L 139.761523 286.751699 
L 140.778102 290.425871 
L 141.79468 285.782815 
L 142.811259 286.778915 
L 143.827837 285.100918 
L 144.844416 287.628915 
L 145.860995 285.623571 
L 146.877573 287.142997 
L 147.894152 285.532458 
L 148.910731 287.179132 
L 149.927309 286.283048 
L 150.943888 286.535499 
L 151.960466 292.673644 
L 152.977045 286.242889 
L 153.993624 289.301916 
L 155.010202 272.927091 
L 156.026781 280.067045 
L 157.043359 298.220012 
L 158.059938 318.377217 
L 159.076517 254.792385 
L 160.093095 311.622529 
L 161.109674 248.282542 
L 162.126253 296.529703 
L 163.142831 286.092631 
L 164.15941 291.110381 
L 165.175988 285.445021 
L 166.192567 285.964761 
L 167.209146 289.231725 
L 168.225724 282.087704 
L 169.242303 292.686147 
L 170.258881 278.832658 
L 171.27546 295.918403 
L 172.292039 287.476727 
L 173.308617 273.910183 
L 174.325196 297.404148 
L 175.341774 277.205185 
L 176.358353 304.807809 
L 177.374932 291.688428 
L 178.39151 300.232188 
L 179.408089 503.351111 
L 180.424668 4.359307 
L 181.441246 326.697069 
L 182.457825 273.009157 
L 183.474403 289.763961 
L 184.490982 290.398602 
L 185.507561 286.180425 
L 186.524139 286.341449 
L 187.540718 288.86944 
L 188.557296 282.047376 
L 189.573875 292.738662 
L 190.590454 285.215 
L 191.607032 289.560389 
L 192.623611 287.492272 
L 193.640189 287.645433 
L 194.656768 281.399016 
L 195.673347 294.861051 
L 196.689925 269.787483 
L 197.706504 274.975969 
L 198.723083 304.803593 
L 199.739661 526.259205 
L 200.75624 13.992069 
L 201.772818 326.538003 
L 202.789397 273.101576 
L 203.805976 289.740156 
L 204.822554 288.672853 
L 205.839133 287.876134 
L 206.855711 287.254772 
L 207.87229 287.925402 
L 208.888869 284.778312 
L 209.905447 289.670927 
L 210.922026 282.019224 
L 211.938604 292.407493 
L 212.955183 287.305822 
L 213.971762 278.649841 
L 214.98834 293.001331 
L 216.004919 280.112417 
L 217.021498 300.07882 
L 218.038076 290.486412 
L 219.054655 296.50833 
L 220.071233 382.027665 
L 221.087812 135.440639 
L 222.104391 323.691124 
L 223.120969 274.70626 
L 224.137548 289.333718 
L 226.170705 287.758808 
L 227.187284 286.648879 
L 228.203862 286.007103 
L 229.220441 289.2409 
L 230.237019 284.411626 
L 231.253598 288.324171 
L 232.270177 286.880203 
L 233.286755 279.511268 
L 234.303334 297.374028 
L 235.319913 287.652238 
L 236.336491 276.218835 
L 237.35307 284.637642 
L 238.369648 306.527028 
L 239.386227 296.730692 
L 240.402806 386.746123 
L 241.419384 130.112197 
L 242.435963 323.892121 
L 243.452541 274.591792 
L 244.46912 289.362892 
L 245.485699 288.38844 
L 246.502277 287.708738 
L 247.518856 287.492546 
L 248.535435 284.72899 
L 249.552013 289.937377 
L 250.568592 285.810798 
L 251.58517 283.368077 
L 252.601749 292.563464 
L 253.618328 287.324975 
L 254.634906 280.951017 
L 255.651485 283.667717 
L 256.668063 298.538578 
L 257.684642 288.79788 
L 258.701221 289.885197 
L 259.717799 294.526448 
L 260.734378 391.689764 
L 261.750956 127.883564 
L 262.767535 324.003509 
L 263.784114 274.538441 
L 264.800692 289.376008 
L 265.817271 289.644805 
L 266.83385 286.476307 
L 267.850428 287.509898 
L 268.867007 284.653943 
L 269.883585 290.001526 
L 270.900164 285.804973 
L 271.916743 283.348012 
L 272.933321 292.59593 
L 273.9499 287.328897 
L 274.966478 283.494511 
L 275.983057 281.08029 
L 276.999636 298.61407 
L 278.016214 288.814526 
L 279.032793 265.269805 
L 280.049371 271.929697 
L 281.06595 206.492877 
L 282.082529 407.57963 
L 283.099107 258.872607 
L 284.115686 298.421133 
L 285.132265 284.914562 
L 286.148843 288.836909 
L 287.165422 285.633847 
L 288.182 287.10638 
L 289.198579 285.983021 
L 290.215158 289.122016 
L 291.231736 285.792356 
L 292.248315 283.305079 
L 293.264893 292.671863 
L 295.298051 281.541469 
L 296.314629 282.931704 
L 297.331208 298.750508 
L 298.347786 288.842725 
L 299.364365 290.47626 
L 300.380944 297.2839 
L 301.397522 394.203341 
L 302.414101 121.599625 
L 303.43068 325.056142 
L 304.447258 273.637063 
L 305.463837 289.412736 
L 306.480415 288.725141 
L 308.513573 286.378516 
L 309.530151 288.406612 
L 311.563308 283.973159 
L 312.579887 291.670792 
L 313.596466 287.278657 
L 314.613044 284.770854 
L 315.629623 280.943238 
L 316.646201 296.819309 
L 317.66278 288.093138 
L 318.679359 267.099149 
L 319.695937 288.999925 
L 320.712516 305.532753 
L 321.729095 366.476229 
L 322.745673 163.927799 
L 323.762252 318.510689 
L 324.77883 283.297478 
L 325.795409 286.453059 
L 326.811988 288.355019 
L 327.828566 288.38647 
L 329.861723 285.708286 
L 330.878302 288.994167 
L 331.894881 284.04198 
L 332.911459 290.475007 
L 333.928038 282.88466 
L 334.944617 289.157249 
L 335.961195 286.033527 
L 336.977774 281.561104 
L 337.994352 298.329014 
L 339.010931 288.904206 
L 340.02751 290.761483 
L 341.044088 297.473504 
L 342.060667 402.24405 
L 343.077245 112.498213 
L 344.093824 324.713435 
L 345.110403 274.191596 
L 346.126981 289.460905 
L 349.176717 286.618379 
L 350.193296 288.337609 
L 351.209874 283.891381 
L 352.226453 290.677641 
L 353.243032 285.417798 
L 354.25961 289.125322 
L 355.276189 287.355897 
L 356.292767 282.418793 
L 357.309346 281.856643 
L 358.325925 299.0253 
L 359.342503 288.897895 
L 360.359082 262.595823 
L 361.37566 274.614679 
L 362.392239 174.985138 
L 363.408818 438.944358 
L 364.425396 258.352184 
L 365.441975 299.432835 
L 366.458553 282.441766 
L 367.475132 288.935293 
L 368.491711 287.581738 
L 369.508289 287.251037 
L 370.524868 285.477521 
L 371.541447 289.233726 
L 372.558025 283.487415 
L 373.574604 291.037131 
L 374.591182 285.071169 
L 375.607761 281.74224 
L 376.62434 295.325248 
L 377.640918 287.70936 
L 378.657497 272.806908 
L 379.674075 287.403222 
L 380.690654 307.609655 
L 381.707233 297.420496 
L 382.723811 400.712588 
L 383.74039 113.864833 
L 384.756968 324.894901 
L 385.773547 283.622916 
L 386.790126 280.00796 
L 387.806704 290.752529 
L 388.823283 285.462108 
L 389.839862 287.563853 
L 390.85644 285.088529 
L 391.873019 289.623826 
L 392.889597 283.122036 
L 393.906176 291.40734 
L 394.922755 287.288896 
L 395.939333 284.743233 
L 396.955912 280.862434 
L 397.97249 296.959714 
L 398.989069 288.112728 
L 400.005648 266.947498 
L 401.022226 288.701771 
L 402.038805 305.041478 
L 403.055383 416.380152 
L 404.071962 114.454952 
L 405.088541 325.046364 
L 406.105119 274.12395 
L 407.121698 289.479487 
L 409.154855 287.694044 
L 410.171434 286.384583 
L 411.188012 288.585353 
L 412.204591 282.710907 
L 413.22117 291.871568 
L 414.237748 285.405633 
L 415.254327 289.147384 
L 416.270905 287.360972 
L 417.287484 278.17105 
L 418.304063 296.704447 
L 419.320641 288.441559 
L 420.33722 288.910678 
L 421.353799 280.983808 
L 422.370377 304.00822 
L 423.386956 401.950066 
L 424.403534 115.570667 
L 425.420113 325.206529 
L 426.436692 274.093922 
L 427.45327 294.608849 
L 428.469849 283.254746 
L 429.486427 288.105525 
L 430.503006 287.313796 
L 431.519585 285.173531 
L 432.536163 289.545108 
L 433.552742 284.228687 
L 434.56932 284.726748 
L 435.585899 292.905667 
L 436.602478 287.365922 
L 437.619056 279.596817 
L 438.635635 291.92926 
L 439.652214 286.43577 
L 440.668792 292.794242 
L 441.685371 292.339662 
L 442.701949 296.876383 
L 443.718528 400.397304 
L 444.735107 114.098034 
L 445.751685 325.45331 
L 446.768264 274.011931 
L 447.784842 289.506914 
L 449.818 287.666759 
L 450.834578 286.240853 
L 451.851157 288.743921 
L 452.867735 284.082979 
L 453.884314 290.511783 
L 454.900893 285.394244 
L 455.917471 289.170242 
L 456.93405 287.367216 
L 457.950629 275.367813 
L 458.967207 299.849981 
L 459.983786 283.64744 
L 461.000364 293.391747 
L 462.016943 275.286351 
L 463.033522 312.921255 
L 464.0501 331.530524 
L 465.066679 182.41003 
L 466.083257 331.536314 
L 467.099836 268.037053 
L 468.116415 296.366569 
L 469.132993 281.525851 
L 470.149572 288.46857 
L 471.16615 286.962396 
L 472.182729 287.409875 
L 473.199308 286.158042 
L 474.215886 288.429252 
L 475.232465 279.933381 
L 476.249044 294.62075 
L 478.282201 279.729381 
L 479.298779 291.803632 
L 480.315358 287.029979 
L 481.331937 293.281732 
L 482.348515 291.157044 
L 483.365094 297.154946 
L 484.381672 393.87375 
L 485.398251 120.210393 
L 486.41483 286.56 
L 488.447987 286.559866 
L 489.464565 287.389976 
L 490.481144 286.046589 
L 491.497723 286.856509 
L 492.514301 285.885932 
L 493.53088 286.728512 
L 494.547459 286.481209 
L 495.564037 285.811954 
L 496.580616 286.546536 
L 497.597194 284.12393 
L 498.613773 294.439296 
L 499.630352 265.388907 
L 500.64693 330.073027 
L 501.663509 254.083288 
L 502.680087 284.74771 
L 503.696666 298.865278 
L 504.713245 286.603372 
L 505.729823 279.860419 
L 506.746402 285.702105 
L 507.762981 292.194173 
L 508.779559 285.193479 
L 509.796138 287.033926 
L 510.812716 286.129256 
L 511.829295 285.53272 
L 512.845874 286.652469 
L 513.862452 285.839516 
L 514.879031 286.007258 
L 515.895609 287.963307 
L 516.912188 282.790613 
L 517.928767 292.078126 
L 518.945345 272.140328 
L 519.961924 298.423353 
L 520.978502 311.733643 
L 521.995081 273.074671 
L 523.01166 269.193537 
L 524.028238 286.425415 
L 525.044817 295.714679 
L 526.061396 287.326815 
L 527.077974 281.529514 
L 528.094553 288.955551 
L 529.111131 287.577201 
L 530.12771 284.059121 
L 531.144289 288.188104 
L 532.160867 284.315117 
L 533.177446 287.833146 
L 534.194024 285.922649 
L 535.210603 285.858573 
L 536.227182 288.076697 
L 537.24376 282.471198 
L 538.260339 285.996861 
L 539.276917 276.76365 
L 540.293496 300.539538 
L 541.310075 313.125429 
L 542.326653 253.261404 
L 543.343232 283.923776 
L 544.359811 296.342225 
L 545.376389 291.373213 
L 546.392968 280.825264 
L 547.409546 290.660482 
L 548.426125 282.480835 
L 549.442704 286.558204 
L 550.459282 286.56 
L 551.475861 288.83899 
L 552.492439 285.178248 
L 553.509018 286.93599 
L 554.525597 285.960827 
L 556.558754 285.610072 
L 557.575332 285.271556 
L 558.591911 284.414704 
L 559.60849 293.491511 
L 560.625068 183.003195 
L 561.641647 373.00257 
L 562.658226 316.392049 
L 563.674804 282.605601 
L 564.691383 273.865047 
L 565.707961 279.511579 
L 566.72454 288.324185 
L 567.741119 285.540079 
L 568.757697 298.266047 
L 569.774276 290.846851 
L 570.790854 270.56713 
L 571.807433 284.54257 
L 572.824012 288.169107 
L 573.84059 272.133927 
L 574.390262 577 
M 575.098618 577 
L 575.63753 -1 
M 576.335599 -1 
L 576.890326 303.298444 
L 577.906905 281.687399 
L 578.923483 289.478021 
L 579.940062 286.187307 
L 580.956641 286.762165 
L 581.973219 287.63508 
L 582.989798 283.057429 
L 584.006376 291.02041 
L 585.022955 285.519006 
L 586.039534 288.541447 
L 587.056112 283.040753 
L 588.072691 291.20601 
L 589.089269 279.344406 
L 590.105848 286.163015 
L 591.122427 282.58738 
L 592.139005 297.301406 
L 594.172163 289.349696 
L 595.188741 291.041982 
L 596.20532 295.62643 
L 597.221898 313.918668 
L 597.55353 -1 
M 598.597145 -1 
L 598.915873 577 
M 599.915261 577 
L 600.271634 244.977444 
L 601.288213 306.074337 
L 602.304791 281.394439 
L 603.32137 292.769626 
L 604.337949 287.960588 
L 605.354527 279.604498 
L 606.371106 299.707802 
L 607.387684 267.493628 
L 608.404263 284.864422 
L 609.420842 305.661078 
L 610.43742 273.292685 
L 611.453999 284.133626 
L 612.470578 300.707751 
L 613.487156 291.950748 
L 614.503735 285.357792 
L 615.520313 277.940105 
L 616.536892 279.461576 
L 617.553471 292.178349 
L 618.570049 292.770067 
L 619.586628 285.837865 
L 620.603206 285.901617 
L 621.619785 285.851648 
L 622.636364 286.142384 
L 622.636364 286.142384 
" style="fill:none;stroke:#1f77b4;stroke-linecap:square;stroke-width:1.5;"/>
   </g>
   <g id="line2d_13">
    <path clip-path="url(#pa34293fc4b)" d="M 115.363636 286.56 
L 131.628894 286.452413 
L 132.645473 286.690772 
L 133.662051 286.523052 
L 134.67863 286.637624 
L 135.695209 286.344138 
L 136.711787 286.770095 
L 137.728366 286.531838 
L 138.744944 286.407981 
L 139.761523 286.585887 
L 142.811259 286.455278 
L 143.827837 286.738808 
L 144.844416 286.176209 
L 145.860995 286.861413 
L 146.877573 285.866975 
L 147.894152 287.931989 
L 148.910731 284.325644 
L 149.927309 286.486881 
L 150.943888 287.940301 
L 151.960466 273.308841 
L 152.977045 288.25022 
L 153.993624 287.197474 
L 155.010202 287.7452 
L 156.026781 285.905774 
L 157.043359 287.125152 
L 158.059938 288.6532 
L 159.076517 284.469894 
L 160.093095 283.940592 
L 161.109674 293.425269 
L 162.126253 284.696938 
L 163.142831 290.196283 
L 164.15941 276.968403 
L 165.175988 298.905223 
L 166.192567 266.672649 
L 167.209146 313.079031 
L 168.225724 244.917779 
L 169.242303 451.741987 
L 170.258881 180.003374 
L 171.27546 242.004611 
L 172.292039 292.468314 
L 173.308617 295.969426 
L 174.325196 282.661488 
L 175.341774 287.443792 
L 176.358353 287.213495 
L 177.374932 287.394231 
L 179.408089 287.228976 
L 180.424668 287.195931 
L 181.441246 280.787376 
L 182.457825 293.605699 
L 184.490982 280.535539 
L 185.507561 294.192521 
L 186.524139 274.803103 
L 187.540718 300.729114 
L 188.557296 265.378473 
L 189.573875 312.952399 
L 190.590454 282.678405 
L 191.607032 329.851362 
L 192.623611 181.137313 
L 193.640189 325.597187 
L 194.656768 297.501172 
L 195.673347 286.984011 
L 196.689925 286.255088 
L 197.706504 283.915957 
L 198.723083 290.090531 
L 199.739661 293.308988 
L 200.75624 288.473748 
L 201.772818 272.309246 
L 202.789397 307.108903 
L 203.805976 293.797683 
L 204.822554 304.713623 
L 204.855382 577 
M 206.328289 577 
L 206.362939 -1 
M 207.837772 -1 
L 207.87229 287.921552 
L 208.888869 304.901999 
L 209.905447 279.554806 
L 210.922026 295.145418 
L 211.938604 281.206911 
L 212.955183 287.563316 
L 213.971762 289.375845 
L 214.98834 285.511893 
L 216.004919 286.960943 
L 217.021498 286.819861 
L 218.038076 286.970657 
L 221.087812 286.863309 
L 222.104391 283.827644 
L 223.120969 289.823354 
L 224.137548 286.781655 
L 225.154126 286.290196 
L 226.170705 284.978536 
L 227.187284 286.016536 
L 228.203862 285.342091 
L 229.220441 290.749407 
L 230.237019 283.500122 
L 231.253598 288.016099 
L 232.270177 286.413873 
L 233.286755 282.993269 
L 234.303334 290.538611 
L 235.319913 285.884225 
L 236.336491 285.409183 
L 237.35307 286.962288 
L 238.369648 284.832237 
L 239.386227 285.840914 
L 241.419384 286.221032 
L 242.435963 291.175628 
L 243.452541 281.838697 
L 244.46912 286.755044 
L 245.485699 286.995701 
L 246.502277 286.764123 
L 247.518856 286.889809 
L 248.535435 289.959971 
L 249.552013 283.693853 
L 250.568592 287.414908 
L 251.58517 287.599386 
L 252.601749 285.413618 
L 253.618328 286.76155 
L 254.634906 287.079047 
L 255.651485 286.607536 
L 256.668063 286.447565 
L 257.684642 286.660574 
L 261.750956 286.559211 
L 262.767535 286.250502 
L 263.784114 286.797026 
L 264.800692 286.480479 
L 267.850428 286.448383 
L 268.867007 287.101842 
L 269.883585 285.853531 
L 270.900164 286.745785 
L 271.916743 287.02192 
L 272.933321 285.883926 
L 273.9499 286.618678 
L 274.966478 286.845994 
L 275.983057 286.747707 
L 276.999636 286.426307 
L 278.016214 286.712364 
L 279.032793 286.258904 
L 280.049371 286.311518 
L 282.082529 286.666718 
L 283.099107 287.911691 
L 284.115686 285.604297 
L 285.132265 287.197135 
L 286.148843 285.35786 
L 287.165422 288.66188 
L 288.182 285.602523 
L 289.198579 285.588325 
L 290.215158 288.694527 
L 291.231736 285.684716 
L 292.248315 284.845129 
L 293.264893 288.976333 
L 294.281472 286.365267 
L 295.298051 285.196042 
L 297.331208 287.081081 
L 298.347786 285.917001 
L 301.397522 285.73421 
L 302.414101 285.814423 
L 303.43068 292.53835 
L 304.447258 279.617272 
L 305.463837 286.389383 
L 306.480415 287.786332 
L 307.496994 287.821312 
L 308.513573 290.887732 
L 309.530151 280.782832 
L 310.54673 288.658354 
L 311.563308 289.531938 
L 312.579887 282.955135 
L 313.596466 287.036362 
L 314.613044 287.672334 
L 315.629623 287.664091 
L 316.646201 285.629506 
L 317.66278 286.940997 
L 318.679359 286.418375 
L 319.695937 286.48486 
L 320.712516 287.256959 
L 321.729095 286.979852 
L 322.745673 287.269592 
L 323.762252 285.053368 
L 324.77883 287.627506 
L 325.795409 287.794702 
L 326.811988 286.804423 
L 327.828566 281.751918 
L 328.845145 291.816568 
L 329.861723 283.229926 
L 330.878302 290.258877 
L 331.894881 282.908079 
L 332.911459 290.420805 
L 333.928038 282.98216 
L 334.944617 288.263239 
L 335.961195 285.874272 
L 336.977774 284.661088 
L 337.994352 288.078008 
L 339.010931 283.707646 
L 340.02751 281.53746 
L 341.044088 278.443032 
L 342.060667 276.50517 
L 343.077245 279.864218 
L 344.093824 334.383257 
L 345.110403 244.533564 
L 346.126981 292.099519 
L 347.14356 292.803008 
L 348.160138 288.577793 
L 349.176717 302.468013 
L 350.193296 275.527973 
L 351.209874 297.151012 
L 352.226453 278.928255 
L 353.243032 289.423697 
L 354.25961 285.672723 
L 355.276189 287.327755 
L 356.292767 288.254585 
L 358.325925 286.091147 
L 359.342503 287.034973 
L 360.359082 285.579937 
L 361.37566 286.089795 
L 362.392239 286.15396 
L 363.408818 287.115348 
L 364.425396 289.805042 
L 365.441975 283.974528 
L 366.458553 289.830665 
L 367.475132 285.707156 
L 368.491711 284.358547 
L 369.508289 290.640679 
L 370.524868 281.479853 
L 371.541447 292.372817 
L 372.558025 280.494717 
L 373.574604 293.441571 
L 374.591182 284.008997 
L 375.607761 280.317263 
L 376.62434 296.842575 
L 377.640918 287.039893 
L 378.657497 274.107413 
L 379.674075 285.86189 
L 380.690654 304.040779 
L 381.707233 288.18035 
L 382.723811 289.059807 
L 383.74039 290.575477 
L 384.756968 252.883966 
L 385.773547 277.362608 
L 386.790126 479.36001 
L 387.806704 158.920228 
L 388.823283 213.06637 
L 389.839862 299.791961 
L 390.85644 310.52492 
L 391.873019 272.143614 
L 392.889597 297.35587 
L 393.906176 279.699957 
L 394.922755 287.81012 
L 395.939333 288.686913 
L 396.955912 288.421107 
L 397.97249 285.074227 
L 398.989069 287.163291 
L 400.005648 286.35189 
L 401.022226 286.442114 
L 402.038805 287.535703 
L 403.055383 287.802745 
L 404.071962 286.962301 
L 405.088541 283.156108 
L 406.105119 290.739313 
L 407.121698 286.947241 
L 408.138277 286.592301 
L 409.154855 287.315998 
L 410.171434 279.378796 
L 411.188012 294.686097 
L 412.204591 275.94214 
L 413.22117 298.378391 
L 414.237748 283.856928 
L 415.254327 291.269003 
L 416.270905 288.577473 
L 417.287484 268.341977 
L 418.290209 -1 
M 418.310491 -1 
L 419.308954 577 
M 419.344194 577 
L 420.33722 291.743117 
L 421.353799 285.482478 
L 422.370377 290.894939 
L 423.386956 289.23413 
L 424.403534 288.709738 
L 425.420113 268.37338 
L 426.436692 312.574733 
L 427.45327 253.090352 
L 428.469849 366.238185 
L 429.486427 191.88349 
L 430.503006 281.785833 
L 431.519585 328.613222 
L 432.536163 267.648733 
L 433.552742 297.762704 
L 435.585899 280.088416 
L 436.602478 287.761481 
L 437.619056 289.581433 
L 438.635635 285.699117 
L 439.652214 286.913001 
L 441.685371 287.14587 
L 442.701949 287.014354 
L 444.735107 286.998811 
L 445.751685 282.845246 
L 446.768264 291.132509 
L 447.784842 286.997993 
L 448.801421 286.517182 
L 449.818 287.512534 
L 450.834578 277.558619 
L 451.851157 296.784237 
L 452.867735 278.23124 
L 453.884314 296.682749 
L 454.900893 283.534863 
L 455.917471 293.793922 
L 456.93405 293.940322 
L 457.320018 -1 
M 458.274876 -1 
L 458.663795 577 
M 459.592623 577 
L 459.983786 294.973891 
L 461.000364 289.022104 
L 462.016943 284.621436 
L 463.033522 291.828998 
L 464.0501 284.794406 
L 465.066679 291.347479 
L 466.083257 268.156539 
L 467.099836 309.753596 
L 468.116415 255.755016 
L 469.132993 331.96376 
L 470.149572 190.877641 
L 471.16615 241.497003 
L 472.182729 371.647204 
L 473.199308 307.170439 
L 474.215886 284.629757 
L 475.232465 301.890057 
L 476.249044 276.238622 
L 477.265622 287.970734 
L 478.282201 289.873614 
L 479.298779 285.649758 
L 480.315358 286.930083 
L 482.348515 287.137385 
L 485.398251 287.024552 
L 486.41483 286.56 
L 488.447987 286.560142 
L 489.464565 286.095917 
L 490.481144 286.729724 
L 491.497723 285.892086 
L 492.514301 287.585437 
L 493.53088 284.925981 
L 494.547459 289.279504 
L 495.564037 283.211935 
L 496.580616 287.578035 
L 497.597194 284.73819 
L 498.613773 292.495648 
L 499.630352 282.829621 
L 500.64693 285.258309 
L 501.663509 291.493796 
L 502.680087 286.572907 
L 503.696666 285.134471 
L 504.713245 287.437545 
L 505.729823 285.187181 
L 506.746402 285.747889 
L 507.762981 290.119227 
L 508.779559 285.87328 
L 509.796138 287.441645 
L 510.812716 286.544579 
L 511.829295 285.379466 
L 512.845874 287.589642 
L 513.862452 283.58779 
L 514.879031 289.280077 
L 515.895609 283.731578 
L 516.912188 289.072911 
L 517.928767 284.309376 
L 518.945345 288.440606 
L 519.961924 285.337338 
L 520.978502 287.344424 
L 521.995081 286.325899 
L 523.01166 285.790671 
L 524.028238 286.735253 
L 526.061396 286.190556 
L 527.077974 287.308237 
L 528.094553 285.744938 
L 529.111131 285.589925 
L 530.12771 288.117322 
L 531.144289 284.13785 
L 532.160867 290.446523 
L 533.177446 281.773126 
L 534.194024 288.043327 
L 535.210603 284.34107 
L 536.227182 292.978537 
L 537.24376 280.15936 
L 538.260339 288.366847 
L 539.276917 285.755136 
L 540.293496 289.902067 
L 541.310075 284.813297 
L 542.326653 288.84444 
L 543.343232 286.528658 
L 544.359811 286.077249 
L 545.376389 286.855443 
L 546.392968 286.262637 
L 547.409546 287.227564 
L 548.426125 285.893764 
L 549.442704 286.559615 
L 576.890326 286.646446 
L 577.906905 286.450727 
L 578.923483 286.728128 
L 579.940062 286.360678 
L 580.956641 286.604042 
L 581.973219 286.471362 
L 582.989798 286.883637 
L 584.006376 286.157442 
L 585.022955 286.636847 
L 586.039534 286.227961 
L 587.056112 287.060741 
L 588.072691 287.350735 
L 589.089269 285.640957 
L 590.105848 286.62923 
L 594.172163 286.537763 
L 598.238477 286.549911 
L 599.255056 286.750296 
L 600.271634 286.354698 
L 601.288213 286.69477 
L 602.304791 286.416362 
L 603.32137 286.784434 
L 604.337949 286.330936 
L 605.354527 286.850077 
L 606.371106 286.271307 
L 607.387684 286.858878 
L 609.420842 286.351044 
L 610.43742 286.688358 
L 612.470578 286.441662 
L 615.520313 286.60259 
L 616.536892 286.532545 
L 621.619785 286.73398 
L 622.636364 286.918145 
L 622.636364 286.918145 
" style="fill:none;stroke:#ff7f0e;stroke-linecap:square;stroke-width:1.5;"/>
   </g>
   <g id="line2d_14">
    <path clip-path="url(#pa34293fc4b)" d="M 115.363636 286.665424 
L 116.380215 286.56 
L 117.396794 286.643746 
L 118.413372 285.5971 
L 119.429951 286.368281 
L 121.463108 286.723254 
L 122.479687 286.013309 
L 123.496265 287.223457 
L 124.512844 284.539411 
L 125.529422 289.002578 
L 126.546001 296.420004 
L 127.56258 271.361541 
L 128.579158 292.680825 
L 129.595737 284.951895 
L 130.612316 287.34507 
L 131.628894 284.03346 
L 132.645473 288.629274 
L 133.662051 285.829604 
L 134.67863 286.978611 
L 135.695209 285.126951 
L 136.711787 287.653855 
L 137.728366 286.378318 
L 138.744944 285.842919 
L 139.761523 286.647267 
L 141.79468 286.280195 
L 142.811259 285.789824 
L 143.827837 287.348921 
L 144.844416 282.064995 
L 145.860995 285.113678 
L 146.877573 312.865847 
L 147.894152 265.557796 
L 148.910731 292.525852 
L 149.927309 284.382061 
L 150.943888 285.502475 
L 151.960466 278.763929 
L 152.977045 291.351444 
L 153.993624 288.328245 
L 155.010202 288.691632 
L 156.026781 285.842545 
L 157.043359 287.454477 
L 158.059938 289.303413 
L 159.076517 283.911612 
L 160.093095 283.341259 
L 161.109674 294.824905 
L 162.126253 284.178665 
L 163.142831 290.657351 
L 164.15941 275.015634 
L 165.175988 300.571875 
L 166.192567 262.636579 
L 167.209146 316.181204 
L 168.225724 232.890308 
L 169.242303 494.609322 
L 170.258881 163.672672 
L 171.27546 233.877313 
L 172.292039 291.054523 
L 173.308617 296.075701 
L 174.325196 281.76245 
L 175.341774 287.250668 
L 176.358353 287.109947 
L 177.374932 287.39861 
L 179.408089 287.346474 
L 180.424668 287.378248 
L 181.441246 279.748467 
L 182.457825 295.293658 
L 183.474403 287.804544 
L 184.490982 279.102537 
L 185.507561 297.868278 
L 186.524139 269.732177 
L 187.540718 313.472314 
L 188.557296 240.468389 
L 189.425499 577 
M 189.65728 577 
L 190.495482 -1 
M 190.774018 -1 
L 191.607032 296.191648 
L 192.623611 294.744173 
L 193.640189 290.632521 
L 194.656768 290.37281 
L 195.673347 286.996216 
L 196.689925 286.575515 
L 197.706504 285.295417 
L 198.723083 288.453317 
L 199.739661 290.036392 
L 200.75624 287.340456 
L 201.772818 279.717403 
L 202.789397 294.9909 
L 203.805976 287.460102 
L 204.822554 287.064527 
L 205.839133 288.513698 
L 206.855711 282.133483 
L 207.87229 296.58612 
L 208.888869 264.878918 
L 209.905447 407.703071 
L 210.922026 210.104801 
L 211.938604 253.366095 
L 212.955183 290.565436 
L 213.971762 293.541012 
L 214.98834 283.667765 
L 216.004919 287.189339 
L 217.021498 286.916641 
L 218.038076 287.254285 
L 221.087812 287.227544 
L 222.104391 281.063004 
L 223.120969 293.614236 
L 224.137548 287.560585 
L 225.154126 286.663348 
L 226.170705 283.06836 
L 227.187284 285.581483 
L 228.203862 281.969892 
L 229.220441 319.382331 
L 230.237019 291.596318 
L 231.253598 223.909914 
L 232.270177 302.537584 
L 233.286755 300.135636 
L 234.303334 277.951539 
L 235.319913 288.711585 
L 236.336491 288.48506 
L 237.35307 286.272002 
L 238.369648 288.442247 
L 239.386227 287.337136 
L 241.419384 287.218981 
L 242.435963 280.895301 
L 243.452541 293.556277 
L 244.46912 287.308742 
L 245.485699 287.033617 
L 246.502277 287.917258 
L 247.518856 288.04704 
L 248.535435 263.057052 
L 249.552013 320.449326 
L 250.568592 293.569774 
L 251.58517 287.904443 
L 252.601749 252.994483 
L 253.618328 290.623136 
L 254.634906 292.256401 
L 255.651485 286.576194 
L 256.668063 285.215453 
L 257.684642 287.362951 
L 259.717799 287.03075 
L 260.734378 287.479027 
L 261.750956 287.241405 
L 262.767535 280.941256 
L 263.784114 293.769347 
L 265.817271 281.831149 
L 266.83385 293.998863 
L 267.850428 289.765294 
L 268.867007 264.415673 
L 269.883585 327.1833 
L 270.900164 355.985079 
L 271.916743 190.204129 
L 272.933321 264.839207 
L 273.9499 293.929464 
L 274.966478 292.350753 
L 276.999636 285.730528 
L 278.016214 287.697055 
L 279.032793 284.955711 
L 280.049371 285.466125 
L 281.06595 286.431121 
L 282.082529 287.118598 
L 283.099107 292.571376 
L 284.115686 282.214612 
L 285.132265 289.386283 
L 286.148843 280.571242 
L 287.165422 297.602403 
L 288.182 281.257702 
L 289.198579 278.135782 
L 290.215158 312.352662 
L 291.231736 294.835181 
L 292.248315 286.261678 
L 293.264893 252.878221 
L 294.281472 290.656251 
L 295.298051 291.935217 
L 296.314629 286.956685 
L 297.331208 285.210649 
L 298.347786 287.375019 
L 299.364365 287.25852 
L 302.414101 287.252532 
L 303.43068 280.569626 
L 304.447258 294.168032 
L 305.463837 287.599954 
L 306.480415 286.100829 
L 307.496994 285.92685 
L 308.513573 277.348033 
L 309.530151 308.275417 
L 310.54673 287.40663 
L 311.563308 240.575034 
L 312.579887 269.719089 
L 313.596466 312.618231 
L 314.613044 297.188111 
L 315.629623 292.141783 
L 316.646201 283.72698 
L 317.66278 288.0972 
L 318.679359 286.366569 
L 319.695937 286.506738 
L 320.712516 288.380068 
L 321.729095 287.592095 
L 322.745673 288.271463 
L 323.762252 282.848109 
L 324.77883 289.17864 
L 325.795409 289.82492 
L 326.811988 287.485168 
L 327.828566 271.792459 
L 328.845145 304.260989 
L 329.861723 272.624882 
L 330.878302 311.227606 
L 331.894881 211.791939 
L 332.911459 321.350159 
L 333.928038 312.301922 
L 334.944617 281.767423 
L 335.961195 287.775568 
L 336.977774 287.906946 
L 337.994352 285.357901 
L 339.010931 287.391191 
L 341.044088 287.251679 
L 343.077245 287.267509 
L 344.093824 280.706656 
L 345.110403 294.064466 
L 346.126981 287.621987 
L 347.14356 287.204286 
L 348.160138 289.166118 
L 349.176717 274.457392 
L 350.193296 306.882612 
L 351.209874 261.56347 
L 352.226453 461.467675 
L 353.243032 90.00885 
L 354.25961 296.871766 
L 355.276189 294.188726 
L 356.292767 293.069487 
L 357.309346 288.382008 
L 358.325925 285.727966 
L 359.342503 287.733672 
L 360.359082 284.68587 
L 361.37566 285.739611 
L 362.392239 285.831239 
L 363.408818 287.616276 
L 364.425396 292.793123 
L 365.441975 281.437565 
L 366.458553 293.184294 
L 367.475132 284.85619 
L 368.491711 281.311611 
L 369.508289 297.411552 
L 370.524868 270.222654 
L 371.541447 313.843116 
L 372.558025 179.44498 
L 373.574604 353.625362 
L 374.591182 306.088791 
L 375.607761 294.021968 
L 376.62434 279.292225 
L 377.640918 287.924352 
L 378.657497 288.095572 
L 379.674075 285.822212 
L 380.690654 288.340383 
L 381.707233 287.247961 
L 383.74039 287.266895 
L 384.756968 280.71156 
L 385.773547 286.249311 
L 386.790126 295.427133 
L 387.806704 277.022534 
L 388.823283 299.332548 
L 389.839862 289.456743 
L 390.85644 269.019506 
L 391.873019 322.886789 
L 392.889597 243.980422 
L 393.906176 251.470751 
L 394.922755 314.194084 
L 395.939333 297.526107 
L 396.955912 292.269431 
L 397.97249 283.682827 
L 398.989069 288.129264 
L 400.005648 286.36101 
L 401.022226 286.479613 
L 402.038805 288.355945 
L 403.055383 288.741573 
L 404.071962 287.255748 
L 405.088541 280.547247 
L 406.105119 293.981176 
L 407.121698 287.355117 
L 408.138277 286.775915 
L 409.154855 288.461045 
L 410.171434 269.299819 
L 411.188012 308.804831 
L 412.204591 240.149071 
L 413.22117 442.886129 
L 414.237748 160.088323 
L 415.254327 284.342269 
L 416.270905 290.634399 
L 417.287484 293.743112 
L 418.304063 282.909824 
L 419.320641 287.503533 
L 420.33722 287.391352 
L 421.353799 286.317771 
L 422.370377 287.944083 
L 423.386956 287.520276 
L 424.403534 287.266111 
L 425.420113 280.712245 
L 426.436692 294.052037 
L 427.45327 278.434857 
L 428.469849 297.087857 
L 429.486427 281.103742 
L 430.503006 296.734532 
L 431.519585 270.03085 
L 432.536163 321.297457 
L 433.552742 286.038934 
L 434.56932 260.532455 
L 435.585899 263.073509 
L 436.602478 294.602571 
L 437.619056 294.840898 
L 438.635635 285.260491 
L 439.652214 287.528436 
L 440.668792 287.482776 
L 441.685371 287.627345 
L 442.701949 287.336169 
L 443.718528 287.361481 
L 444.735107 287.264837 
L 445.751685 280.461818 
L 446.768264 294.086134 
L 447.784842 287.367434 
L 448.801421 286.59963 
L 449.818 288.641786 
L 450.834578 266.80856 
L 451.851157 311.478931 
L 452.867735 255.757794 
L 453.884314 454.79725 
L 454.900893 132.51556 
L 455.917471 284.239468 
L 456.93405 290.57389 
L 457.950629 295.199467 
L 458.967207 281.368141 
L 459.983786 287.723662 
L 461.000364 287.241722 
L 462.016943 285.755153 
L 463.033522 288.784966 
L 464.0501 285.812436 
L 465.066679 288.691352 
L 466.083257 278.585345 
L 467.099836 296.172476 
L 468.116415 275.409743 
L 469.132993 300.093186 
L 470.149572 270.973779 
L 471.16615 306.792182 
L 472.182729 291.610472 
L 473.199308 286.77099 
L 474.215886 389.753428 
L 475.232465 187.997542 
L 476.249044 244.766955 
L 477.265622 294.905533 
L 478.282201 294.919708 
L 479.298779 285.30956 
L 480.315358 287.519263 
L 482.348515 287.559992 
L 483.365094 287.378884 
L 485.398251 287.266106 
L 486.41483 286.56 
L 487.431408 286.665083 
L 488.447987 286.509481 
L 489.464565 279.654845 
L 490.481144 294.731837 
L 491.497723 288.809064 
L 492.514301 280.084006 
L 493.53088 290.378621 
L 494.547459 281.694451 
L 495.564037 290.467933 
L 496.580616 285.272556 
L 497.597194 287.44125 
L 498.613773 283.209307 
L 499.630352 288.388524 
L 500.64693 287.080037 
L 501.663509 284.35383 
L 502.680087 286.432062 
L 503.696666 287.217607 
L 504.713245 285.763514 
L 505.729823 287.619456 
L 506.746402 287.807522 
L 507.762981 278.188254 
L 508.779559 282.794011 
L 509.796138 212.478891 
L 510.812716 404.872434 
L 511.829295 263.124977 
L 512.845874 287.512125 
L 513.862452 275.744277 
L 514.879031 293.611716 
L 515.895609 279.318563 
L 516.912188 292.090302 
L 517.928767 281.63414 
L 518.945345 290.386413 
L 519.961924 284.053108 
L 520.978502 288.184163 
L 521.995081 286.137109 
L 523.01166 284.956667 
L 524.028238 287.028357 
L 526.061396 285.635928 
L 527.077974 289.247714 
L 528.094553 283.733364 
L 529.111131 279.239794 
L 530.12771 315.958283 
L 531.144289 282.794517 
L 532.160867 259.30162 
L 533.177446 301.585627 
L 534.194024 282.08031 
L 535.210603 288.821466 
L 536.227182 279.275891 
L 537.24376 292.567972 
L 538.260339 284.914783 
L 539.276917 287.292322 
L 540.293496 283.801577 
L 541.310075 288.368216 
L 542.326653 284.047295 
L 543.343232 286.393436 
L 544.359811 287.203767 
L 545.376389 285.61891 
L 546.392968 287.090064 
L 547.409546 282.409121 
L 548.426125 289.356425 
L 549.442704 283.924004 
L 550.459282 257.67851 
L 551.475861 370.703075 
L 552.492439 250.681734 
L 553.509018 288.03024 
L 554.525597 283.108764 
L 556.558754 285.1946 
L 557.575332 285.318115 
L 558.591911 285.633191 
L 559.60849 281.334705 
L 560.625068 292.181072 
L 561.641647 279.790775 
L 562.658226 293.075473 
L 563.674804 286.633246 
L 564.691383 282.583721 
L 565.707961 284.806855 
L 566.72454 290.570531 
L 567.741119 325.194978 
L 568.757697 237.018478 
L 569.774276 293.91565 
L 570.790854 278.700805 
L 571.807433 286.913835 
L 572.824012 288.499076 
L 573.84059 284.831046 
L 574.857169 287.111043 
L 575.873747 296.517932 
L 576.890326 278.157879 
L 577.906905 295.790026 
L 578.923483 272.893807 
L 579.940062 301.646439 
L 580.956641 282.84425 
L 581.973219 293.793234 
L 582.989798 251.981914 
L 584.006376 356.242321 
L 585.022955 234.465803 
L 586.039534 285.202935 
L 587.056112 298.538355 
L 588.072691 281.323156 
L 589.089269 291.714276 
L 590.105848 285.692612 
L 591.122427 286.136295 
L 592.139005 286.214019 
L 593.155584 287.409638 
L 594.172163 287.195496 
L 598.238477 287.309322 
L 599.255056 279.662883 
L 600.271634 295.0139 
L 601.288213 281.031128 
L 602.304791 293.504136 
L 603.32137 275.799372 
L 604.337949 298.149421 
L 605.354527 271.902502 
L 606.371106 301.055307 
L 607.387684 271.989423 
L 608.404263 287.181025 
L 609.420842 295.729155 
L 610.43742 281.321984 
L 612.470578 290.620317 
L 613.487156 287.344776 
L 614.503735 285.672969 
L 615.520313 285.436552 
L 616.536892 287.329969 
L 617.553471 286.306251 
L 618.570049 283.151869 
L 619.586628 284.92946 
L 620.603206 283.957179 
L 621.619785 281.461648 
L 622.636364 257.662222 
L 622.636364 257.662222 
" style="fill:none;stroke:#2ca02c;stroke-linecap:square;stroke-width:1.5;"/>
   </g>
   <g id="patch_3">
    <path d="M 90 504 
L 90 69.12 
" style="fill:none;stroke:#000000;stroke-linecap:square;stroke-linejoin:miter;stroke-width:0.8;"/>
   </g>
   <g id="patch_4">
    <path d="M 648 504 
L 648 69.12 
" style="fill:none;stroke:#000000;stroke-linecap:square;stroke-linejoin:miter;stroke-width:0.8;"/>
   </g>
   <g id="patch_5">
    <path d="M 90 504 
L 648 504 
" style="fill:none;stroke:#000000;stroke-linecap:square;stroke-linejoin:miter;stroke-width:0.8;"/>
   </g>
   <g id="patch_6">
    <path d="M 90 69.12 
L 648 69.12 
" style="fill:none;stroke:#000000;stroke-linecap:square;stroke-linejoin:miter;stroke-width:0.8;"/>
   </g>
  </g>
 </g>
 <defs>
  <clipPath id="pa34293fc4b">
   <rect height="434.88" width="558" x="90" y="69.12"/>
  </clipPath>
 </defs>
</svg>
