<?xml version="1.0" encoding="utf-8" standalone="no"?>
<!DOCTYPE svg PUBLIC "-//W3C//DTD SVG 1.1//EN"
  "http://www.w3.org/Graphics/SVG/1.1/DTD/svg11.dtd">
<svg height="576pt" version="1.1" viewBox="0 0 720 576" width="720pt" xmlns="http://www.w3.org/2000/svg" xmlns:xlink="http://www.w3.org/1999/xlink">
 <metadata>
  <rdf:RDF xmlns:cc="http://creativecommons.org/ns#" xmlns:dc="http://purl.org/dc/elements/1.1/" xmlns:rdf="http://www.w3.org/1999/02/22-rdf-syntax-ns#">
   <cc:Work>
    <dc:type rdf:resource="http://purl.org/dc/dcmitype/StillImage"/>
    <dc:date>2022-01-19T22:12:17.261242</dc:date>
    <dc:format>image/svg+xml</dc:format>
    <dc:creator>
     <cc:Agent>
      <dc:title>Matplotlib v3.4.3, https://matplotlib.org/</dc:title>
     </cc:Agent>
    </dc:creator>
   </cc:Work>
  </rdf:RDF>
 </metadata>
 <defs>
  <style type="text/css">*{stroke-linecap:butt;stroke-linejoin:round;}</style>
 </defs>
 <g id="figure_1">
  <g id="patch_1">
   <path d="M 0 576 
L 720 576 
L 720 0 
L 0 0 
z
" style="fill:none;"/>
  </g>
  <g id="axes_1">
   <g id="patch_2">
    <path d="M 90 504 
L 648 504 
L 648 69.12 
L 90 69.12 
z
" style="fill:#ffffff;"/>
   </g>
   <g id="matplotlib.axis_1">
    <g id="xtick_1">
     <g id="line2d_1">
      <defs>
       <path d="M 0 0 
L 0 3.5 
" id="m8898a82278" style="stroke:#000000;stroke-width:0.8;"/>
      </defs>
      <g>
       <use style="stroke:#000000;stroke-width:0.8;" x="115.363636" xlink:href="#m8898a82278" y="504"/>
      </g>
     </g>
     <g id="text_1">
      <!-- 0 -->
      <g transform="translate(108.364886 527.716563)scale(0.22 -0.22)">
       <defs>
        <path d="M 2034 4250 
Q 1547 4250 1301 3770 
Q 1056 3291 1056 2328 
Q 1056 1369 1301 889 
Q 1547 409 2034 409 
Q 2525 409 2770 889 
Q 3016 1369 3016 2328 
Q 3016 3291 2770 3770 
Q 2525 4250 2034 4250 
z
M 2034 4750 
Q 2819 4750 3233 4129 
Q 3647 3509 3647 2328 
Q 3647 1150 3233 529 
Q 2819 -91 2034 -91 
Q 1250 -91 836 529 
Q 422 1150 422 2328 
Q 422 3509 836 4129 
Q 1250 4750 2034 4750 
z
" id="DejaVuSans-30" transform="scale(0.015625)"/>
       </defs>
       <use xlink:href="#DejaVuSans-30"/>
      </g>
     </g>
    </g>
    <g id="xtick_2">
     <g id="line2d_2">
      <g>
       <use style="stroke:#000000;stroke-width:0.8;" x="216.85878" xlink:href="#m8898a82278" y="504"/>
      </g>
     </g>
     <g id="text_2">
      <!-- 500 -->
      <g transform="translate(195.86253 527.716563)scale(0.22 -0.22)">
       <defs>
        <path d="M 691 4666 
L 3169 4666 
L 3169 4134 
L 1269 4134 
L 1269 2991 
Q 1406 3038 1543 3061 
Q 1681 3084 1819 3084 
Q 2600 3084 3056 2656 
Q 3513 2228 3513 1497 
Q 3513 744 3044 326 
Q 2575 -91 1722 -91 
Q 1428 -91 1123 -41 
Q 819 9 494 109 
L 494 744 
Q 775 591 1075 516 
Q 1375 441 1709 441 
Q 2250 441 2565 725 
Q 2881 1009 2881 1497 
Q 2881 1984 2565 2268 
Q 2250 2553 1709 2553 
Q 1456 2553 1204 2497 
Q 953 2441 691 2322 
L 691 4666 
z
" id="DejaVuSans-35" transform="scale(0.015625)"/>
       </defs>
       <use xlink:href="#DejaVuSans-35"/>
       <use x="63.623047" xlink:href="#DejaVuSans-30"/>
       <use x="127.246094" xlink:href="#DejaVuSans-30"/>
      </g>
     </g>
    </g>
    <g id="xtick_3">
     <g id="line2d_3">
      <g>
       <use style="stroke:#000000;stroke-width:0.8;" x="318.353923" xlink:href="#m8898a82278" y="504"/>
      </g>
     </g>
     <g id="text_3">
      <!-- 1000 -->
      <g transform="translate(290.358923 527.716563)scale(0.22 -0.22)">
       <defs>
        <path d="M 794 531 
L 1825 531 
L 1825 4091 
L 703 3866 
L 703 4441 
L 1819 4666 
L 2450 4666 
L 2450 531 
L 3481 531 
L 3481 0 
L 794 0 
L 794 531 
z
" id="DejaVuSans-31" transform="scale(0.015625)"/>
       </defs>
       <use xlink:href="#DejaVuSans-31"/>
       <use x="63.623047" xlink:href="#DejaVuSans-30"/>
       <use x="127.246094" xlink:href="#DejaVuSans-30"/>
       <use x="190.869141" xlink:href="#DejaVuSans-30"/>
      </g>
     </g>
    </g>
    <g id="xtick_4">
     <g id="line2d_4">
      <g>
       <use style="stroke:#000000;stroke-width:0.8;" x="419.849067" xlink:href="#m8898a82278" y="504"/>
      </g>
     </g>
     <g id="text_4">
      <!-- 1500 -->
      <g transform="translate(391.854067 527.716563)scale(0.22 -0.22)">
       <use xlink:href="#DejaVuSans-31"/>
       <use x="63.623047" xlink:href="#DejaVuSans-35"/>
       <use x="127.246094" xlink:href="#DejaVuSans-30"/>
       <use x="190.869141" xlink:href="#DejaVuSans-30"/>
      </g>
     </g>
    </g>
    <g id="xtick_5">
     <g id="line2d_5">
      <g>
       <use style="stroke:#000000;stroke-width:0.8;" x="521.34421" xlink:href="#m8898a82278" y="504"/>
      </g>
     </g>
     <g id="text_5">
      <!-- 2000 -->
      <g transform="translate(493.34921 527.716563)scale(0.22 -0.22)">
       <defs>
        <path d="M 1228 531 
L 3431 531 
L 3431 0 
L 469 0 
L 469 531 
Q 828 903 1448 1529 
Q 2069 2156 2228 2338 
Q 2531 2678 2651 2914 
Q 2772 3150 2772 3378 
Q 2772 3750 2511 3984 
Q 2250 4219 1831 4219 
Q 1534 4219 1204 4116 
Q 875 4013 500 3803 
L 500 4441 
Q 881 4594 1212 4672 
Q 1544 4750 1819 4750 
Q 2544 4750 2975 4387 
Q 3406 4025 3406 3419 
Q 3406 3131 3298 2873 
Q 3191 2616 2906 2266 
Q 2828 2175 2409 1742 
Q 1991 1309 1228 531 
z
" id="DejaVuSans-32" transform="scale(0.015625)"/>
       </defs>
       <use xlink:href="#DejaVuSans-32"/>
       <use x="63.623047" xlink:href="#DejaVuSans-30"/>
       <use x="127.246094" xlink:href="#DejaVuSans-30"/>
       <use x="190.869141" xlink:href="#DejaVuSans-30"/>
      </g>
     </g>
    </g>
    <g id="xtick_6">
     <g id="line2d_6">
      <g>
       <use style="stroke:#000000;stroke-width:0.8;" x="622.839354" xlink:href="#m8898a82278" y="504"/>
      </g>
     </g>
     <g id="text_6">
      <!-- 2500 -->
      <g transform="translate(594.844354 527.716563)scale(0.22 -0.22)">
       <use xlink:href="#DejaVuSans-32"/>
       <use x="63.623047" xlink:href="#DejaVuSans-35"/>
       <use x="127.246094" xlink:href="#DejaVuSans-30"/>
       <use x="190.869141" xlink:href="#DejaVuSans-30"/>
      </g>
     </g>
    </g>
    <g id="text_7">
     <!-- nr iteracji epizodu -->
     <g transform="translate(269.688906 553.008438)scale(0.22 -0.22)">
      <defs>
       <path d="M 3513 2113 
L 3513 0 
L 2938 0 
L 2938 2094 
Q 2938 2591 2744 2837 
Q 2550 3084 2163 3084 
Q 1697 3084 1428 2787 
Q 1159 2491 1159 1978 
L 1159 0 
L 581 0 
L 581 3500 
L 1159 3500 
L 1159 2956 
Q 1366 3272 1645 3428 
Q 1925 3584 2291 3584 
Q 2894 3584 3203 3211 
Q 3513 2838 3513 2113 
z
" id="DejaVuSans-6e" transform="scale(0.015625)"/>
       <path d="M 2631 2963 
Q 2534 3019 2420 3045 
Q 2306 3072 2169 3072 
Q 1681 3072 1420 2755 
Q 1159 2438 1159 1844 
L 1159 0 
L 581 0 
L 581 3500 
L 1159 3500 
L 1159 2956 
Q 1341 3275 1631 3429 
Q 1922 3584 2338 3584 
Q 2397 3584 2469 3576 
Q 2541 3569 2628 3553 
L 2631 2963 
z
" id="DejaVuSans-72" transform="scale(0.015625)"/>
       <path id="DejaVuSans-20" transform="scale(0.015625)"/>
       <path d="M 603 3500 
L 1178 3500 
L 1178 0 
L 603 0 
L 603 3500 
z
M 603 4863 
L 1178 4863 
L 1178 4134 
L 603 4134 
L 603 4863 
z
" id="DejaVuSans-69" transform="scale(0.015625)"/>
       <path d="M 1172 4494 
L 1172 3500 
L 2356 3500 
L 2356 3053 
L 1172 3053 
L 1172 1153 
Q 1172 725 1289 603 
Q 1406 481 1766 481 
L 2356 481 
L 2356 0 
L 1766 0 
Q 1100 0 847 248 
Q 594 497 594 1153 
L 594 3053 
L 172 3053 
L 172 3500 
L 594 3500 
L 594 4494 
L 1172 4494 
z
" id="DejaVuSans-74" transform="scale(0.015625)"/>
       <path d="M 3597 1894 
L 3597 1613 
L 953 1613 
Q 991 1019 1311 708 
Q 1631 397 2203 397 
Q 2534 397 2845 478 
Q 3156 559 3463 722 
L 3463 178 
Q 3153 47 2828 -22 
Q 2503 -91 2169 -91 
Q 1331 -91 842 396 
Q 353 884 353 1716 
Q 353 2575 817 3079 
Q 1281 3584 2069 3584 
Q 2775 3584 3186 3129 
Q 3597 2675 3597 1894 
z
M 3022 2063 
Q 3016 2534 2758 2815 
Q 2500 3097 2075 3097 
Q 1594 3097 1305 2825 
Q 1016 2553 972 2059 
L 3022 2063 
z
" id="DejaVuSans-65" transform="scale(0.015625)"/>
       <path d="M 2194 1759 
Q 1497 1759 1228 1600 
Q 959 1441 959 1056 
Q 959 750 1161 570 
Q 1363 391 1709 391 
Q 2188 391 2477 730 
Q 2766 1069 2766 1631 
L 2766 1759 
L 2194 1759 
z
M 3341 1997 
L 3341 0 
L 2766 0 
L 2766 531 
Q 2569 213 2275 61 
Q 1981 -91 1556 -91 
Q 1019 -91 701 211 
Q 384 513 384 1019 
Q 384 1609 779 1909 
Q 1175 2209 1959 2209 
L 2766 2209 
L 2766 2266 
Q 2766 2663 2505 2880 
Q 2244 3097 1772 3097 
Q 1472 3097 1187 3025 
Q 903 2953 641 2809 
L 641 3341 
Q 956 3463 1253 3523 
Q 1550 3584 1831 3584 
Q 2591 3584 2966 3190 
Q 3341 2797 3341 1997 
z
" id="DejaVuSans-61" transform="scale(0.015625)"/>
       <path d="M 3122 3366 
L 3122 2828 
Q 2878 2963 2633 3030 
Q 2388 3097 2138 3097 
Q 1578 3097 1268 2742 
Q 959 2388 959 1747 
Q 959 1106 1268 751 
Q 1578 397 2138 397 
Q 2388 397 2633 464 
Q 2878 531 3122 666 
L 3122 134 
Q 2881 22 2623 -34 
Q 2366 -91 2075 -91 
Q 1284 -91 818 406 
Q 353 903 353 1747 
Q 353 2603 823 3093 
Q 1294 3584 2113 3584 
Q 2378 3584 2631 3529 
Q 2884 3475 3122 3366 
z
" id="DejaVuSans-63" transform="scale(0.015625)"/>
       <path d="M 603 3500 
L 1178 3500 
L 1178 -63 
Q 1178 -731 923 -1031 
Q 669 -1331 103 -1331 
L -116 -1331 
L -116 -844 
L 38 -844 
Q 366 -844 484 -692 
Q 603 -541 603 -63 
L 603 3500 
z
M 603 4863 
L 1178 4863 
L 1178 4134 
L 603 4134 
L 603 4863 
z
" id="DejaVuSans-6a" transform="scale(0.015625)"/>
       <path d="M 1159 525 
L 1159 -1331 
L 581 -1331 
L 581 3500 
L 1159 3500 
L 1159 2969 
Q 1341 3281 1617 3432 
Q 1894 3584 2278 3584 
Q 2916 3584 3314 3078 
Q 3713 2572 3713 1747 
Q 3713 922 3314 415 
Q 2916 -91 2278 -91 
Q 1894 -91 1617 61 
Q 1341 213 1159 525 
z
M 3116 1747 
Q 3116 2381 2855 2742 
Q 2594 3103 2138 3103 
Q 1681 3103 1420 2742 
Q 1159 2381 1159 1747 
Q 1159 1113 1420 752 
Q 1681 391 2138 391 
Q 2594 391 2855 752 
Q 3116 1113 3116 1747 
z
" id="DejaVuSans-70" transform="scale(0.015625)"/>
       <path d="M 353 3500 
L 3084 3500 
L 3084 2975 
L 922 459 
L 3084 459 
L 3084 0 
L 275 0 
L 275 525 
L 2438 3041 
L 353 3041 
L 353 3500 
z
" id="DejaVuSans-7a" transform="scale(0.015625)"/>
       <path d="M 1959 3097 
Q 1497 3097 1228 2736 
Q 959 2375 959 1747 
Q 959 1119 1226 758 
Q 1494 397 1959 397 
Q 2419 397 2687 759 
Q 2956 1122 2956 1747 
Q 2956 2369 2687 2733 
Q 2419 3097 1959 3097 
z
M 1959 3584 
Q 2709 3584 3137 3096 
Q 3566 2609 3566 1747 
Q 3566 888 3137 398 
Q 2709 -91 1959 -91 
Q 1206 -91 779 398 
Q 353 888 353 1747 
Q 353 2609 779 3096 
Q 1206 3584 1959 3584 
z
" id="DejaVuSans-6f" transform="scale(0.015625)"/>
       <path d="M 2906 2969 
L 2906 4863 
L 3481 4863 
L 3481 0 
L 2906 0 
L 2906 525 
Q 2725 213 2448 61 
Q 2172 -91 1784 -91 
Q 1150 -91 751 415 
Q 353 922 353 1747 
Q 353 2572 751 3078 
Q 1150 3584 1784 3584 
Q 2172 3584 2448 3432 
Q 2725 3281 2906 2969 
z
M 947 1747 
Q 947 1113 1208 752 
Q 1469 391 1925 391 
Q 2381 391 2643 752 
Q 2906 1113 2906 1747 
Q 2906 2381 2643 2742 
Q 2381 3103 1925 3103 
Q 1469 3103 1208 2742 
Q 947 2381 947 1747 
z
" id="DejaVuSans-64" transform="scale(0.015625)"/>
       <path d="M 544 1381 
L 544 3500 
L 1119 3500 
L 1119 1403 
Q 1119 906 1312 657 
Q 1506 409 1894 409 
Q 2359 409 2629 706 
Q 2900 1003 2900 1516 
L 2900 3500 
L 3475 3500 
L 3475 0 
L 2900 0 
L 2900 538 
Q 2691 219 2414 64 
Q 2138 -91 1772 -91 
Q 1169 -91 856 284 
Q 544 659 544 1381 
z
M 1991 3584 
L 1991 3584 
z
" id="DejaVuSans-75" transform="scale(0.015625)"/>
      </defs>
      <use xlink:href="#DejaVuSans-6e"/>
      <use x="63.378906" xlink:href="#DejaVuSans-72"/>
      <use x="104.492188" xlink:href="#DejaVuSans-20"/>
      <use x="136.279297" xlink:href="#DejaVuSans-69"/>
      <use x="164.0625" xlink:href="#DejaVuSans-74"/>
      <use x="203.271484" xlink:href="#DejaVuSans-65"/>
      <use x="264.794922" xlink:href="#DejaVuSans-72"/>
      <use x="305.908203" xlink:href="#DejaVuSans-61"/>
      <use x="367.1875" xlink:href="#DejaVuSans-63"/>
      <use x="422.167969" xlink:href="#DejaVuSans-6a"/>
      <use x="449.951172" xlink:href="#DejaVuSans-69"/>
      <use x="477.734375" xlink:href="#DejaVuSans-20"/>
      <use x="509.521484" xlink:href="#DejaVuSans-65"/>
      <use x="571.044922" xlink:href="#DejaVuSans-70"/>
      <use x="634.521484" xlink:href="#DejaVuSans-69"/>
      <use x="662.304688" xlink:href="#DejaVuSans-7a"/>
      <use x="714.794922" xlink:href="#DejaVuSans-6f"/>
      <use x="775.976562" xlink:href="#DejaVuSans-64"/>
      <use x="839.453125" xlink:href="#DejaVuSans-75"/>
     </g>
    </g>
   </g>
   <g id="matplotlib.axis_2">
    <g id="ytick_1">
     <g id="line2d_7">
      <defs>
       <path d="M 0 0 
L -3.5 0 
" id="m6955e6bfab" style="stroke:#000000;stroke-width:0.8;"/>
      </defs>
      <g>
       <use style="stroke:#000000;stroke-width:0.8;" x="90" xlink:href="#m6955e6bfab" y="498.786796"/>
      </g>
     </g>
     <g id="text_8">
      <!-- −25000 -->
      <g transform="translate(-5.422813 507.145078)scale(0.22 -0.22)">
       <defs>
        <path d="M 678 2272 
L 4684 2272 
L 4684 1741 
L 678 1741 
L 678 2272 
z
" id="DejaVuSans-2212" transform="scale(0.015625)"/>
       </defs>
       <use xlink:href="#DejaVuSans-2212"/>
       <use x="83.789062" xlink:href="#DejaVuSans-32"/>
       <use x="147.412109" xlink:href="#DejaVuSans-35"/>
       <use x="211.035156" xlink:href="#DejaVuSans-30"/>
       <use x="274.658203" xlink:href="#DejaVuSans-30"/>
       <use x="338.28125" xlink:href="#DejaVuSans-30"/>
      </g>
     </g>
    </g>
    <g id="ytick_2">
     <g id="line2d_8">
      <g>
       <use style="stroke:#000000;stroke-width:0.8;" x="90" xlink:href="#m6955e6bfab" y="428.312748"/>
      </g>
     </g>
     <g id="text_9">
      <!-- −20000 -->
      <g transform="translate(-5.422813 436.671029)scale(0.22 -0.22)">
       <use xlink:href="#DejaVuSans-2212"/>
       <use x="83.789062" xlink:href="#DejaVuSans-32"/>
       <use x="147.412109" xlink:href="#DejaVuSans-30"/>
       <use x="211.035156" xlink:href="#DejaVuSans-30"/>
       <use x="274.658203" xlink:href="#DejaVuSans-30"/>
       <use x="338.28125" xlink:href="#DejaVuSans-30"/>
      </g>
     </g>
    </g>
    <g id="ytick_3">
     <g id="line2d_9">
      <g>
       <use style="stroke:#000000;stroke-width:0.8;" x="90" xlink:href="#m6955e6bfab" y="357.838699"/>
      </g>
     </g>
     <g id="text_10">
      <!-- −15000 -->
      <g transform="translate(-5.422813 366.19698)scale(0.22 -0.22)">
       <use xlink:href="#DejaVuSans-2212"/>
       <use x="83.789062" xlink:href="#DejaVuSans-31"/>
       <use x="147.412109" xlink:href="#DejaVuSans-35"/>
       <use x="211.035156" xlink:href="#DejaVuSans-30"/>
       <use x="274.658203" xlink:href="#DejaVuSans-30"/>
       <use x="338.28125" xlink:href="#DejaVuSans-30"/>
      </g>
     </g>
    </g>
    <g id="ytick_4">
     <g id="line2d_10">
      <g>
       <use style="stroke:#000000;stroke-width:0.8;" x="90" xlink:href="#m6955e6bfab" y="287.36465"/>
      </g>
     </g>
     <g id="text_11">
      <!-- −10000 -->
      <g transform="translate(-5.422813 295.722931)scale(0.22 -0.22)">
       <use xlink:href="#DejaVuSans-2212"/>
       <use x="83.789062" xlink:href="#DejaVuSans-31"/>
       <use x="147.412109" xlink:href="#DejaVuSans-30"/>
       <use x="211.035156" xlink:href="#DejaVuSans-30"/>
       <use x="274.658203" xlink:href="#DejaVuSans-30"/>
       <use x="338.28125" xlink:href="#DejaVuSans-30"/>
      </g>
     </g>
    </g>
    <g id="ytick_5">
     <g id="line2d_11">
      <g>
       <use style="stroke:#000000;stroke-width:0.8;" x="90" xlink:href="#m6955e6bfab" y="216.890601"/>
      </g>
     </g>
     <g id="text_12">
      <!-- −5000 -->
      <g transform="translate(8.574687 225.248882)scale(0.22 -0.22)">
       <use xlink:href="#DejaVuSans-2212"/>
       <use x="83.789062" xlink:href="#DejaVuSans-35"/>
       <use x="147.412109" xlink:href="#DejaVuSans-30"/>
       <use x="211.035156" xlink:href="#DejaVuSans-30"/>
       <use x="274.658203" xlink:href="#DejaVuSans-30"/>
      </g>
     </g>
    </g>
    <g id="ytick_6">
     <g id="line2d_12">
      <g>
       <use style="stroke:#000000;stroke-width:0.8;" x="90" xlink:href="#m6955e6bfab" y="146.416552"/>
      </g>
     </g>
     <g id="text_13">
      <!-- 0 -->
      <g transform="translate(69.0025 154.774833)scale(0.22 -0.22)">
       <use xlink:href="#DejaVuSans-30"/>
      </g>
     </g>
    </g>
    <g id="ytick_7">
     <g id="line2d_13">
      <g>
       <use style="stroke:#000000;stroke-width:0.8;" x="90" xlink:href="#m6955e6bfab" y="75.942503"/>
      </g>
     </g>
     <g id="text_14">
      <!-- 5000 -->
      <g transform="translate(27.01 84.300785)scale(0.22 -0.22)">
       <use xlink:href="#DejaVuSans-35"/>
       <use x="63.623047" xlink:href="#DejaVuSans-30"/>
       <use x="127.246094" xlink:href="#DejaVuSans-30"/>
       <use x="190.869141" xlink:href="#DejaVuSans-30"/>
      </g>
     </g>
    </g>
    <g id="text_15">
     <!-- wartość funkcji nagrody -->
     <g transform="translate(-13.998125 418.171562)rotate(-90)scale(0.22 -0.22)">
      <defs>
       <path d="M 269 3500 
L 844 3500 
L 1563 769 
L 2278 3500 
L 2956 3500 
L 3675 769 
L 4391 3500 
L 4966 3500 
L 4050 0 
L 3372 0 
L 2619 2869 
L 1863 0 
L 1184 0 
L 269 3500 
z
" id="DejaVuSans-77" transform="scale(0.015625)"/>
       <path d="M 2242 5119 
L 2864 5119 
L 1846 3944 
L 1367 3944 
L 2242 5119 
z
M 2834 3397 
L 2834 2853 
Q 2591 2978 2328 3040 
Q 2066 3103 1784 3103 
Q 1356 3103 1142 2972 
Q 928 2841 928 2578 
Q 928 2378 1081 2264 
Q 1234 2150 1697 2047 
L 1894 2003 
Q 2506 1872 2764 1633 
Q 3022 1394 3022 966 
Q 3022 478 2636 193 
Q 2250 -91 1575 -91 
Q 1294 -91 989 -36 
Q 684 19 347 128 
L 347 722 
Q 666 556 975 473 
Q 1284 391 1588 391 
Q 1994 391 2212 530 
Q 2431 669 2431 922 
Q 2431 1156 2273 1281 
Q 2116 1406 1581 1522 
L 1381 1569 
Q 847 1681 609 1914 
Q 372 2147 372 2553 
Q 372 3047 722 3315 
Q 1072 3584 1716 3584 
Q 2034 3584 2315 3537 
Q 2597 3491 2834 3397 
z
" id="DejaVuSans-15b" transform="scale(0.015625)"/>
       <path d="M 3122 3366 
L 3122 2828 
Q 2878 2963 2633 3030 
Q 2388 3097 2138 3097 
Q 1578 3097 1268 2742 
Q 959 2388 959 1747 
Q 959 1106 1268 751 
Q 1578 397 2138 397 
Q 2388 397 2633 464 
Q 2878 531 3122 666 
L 3122 134 
Q 2881 22 2623 -34 
Q 2366 -91 2075 -91 
Q 1284 -91 818 406 
Q 353 903 353 1747 
Q 353 2603 823 3093 
Q 1294 3584 2113 3584 
Q 2378 3584 2631 3529 
Q 2884 3475 3122 3366 
z
M 2466 5119 
L 3088 5119 
L 2070 3944 
L 1591 3944 
L 2466 5119 
z
" id="DejaVuSans-107" transform="scale(0.015625)"/>
       <path d="M 2375 4863 
L 2375 4384 
L 1825 4384 
Q 1516 4384 1395 4259 
Q 1275 4134 1275 3809 
L 1275 3500 
L 2222 3500 
L 2222 3053 
L 1275 3053 
L 1275 0 
L 697 0 
L 697 3053 
L 147 3053 
L 147 3500 
L 697 3500 
L 697 3744 
Q 697 4328 969 4595 
Q 1241 4863 1831 4863 
L 2375 4863 
z
" id="DejaVuSans-66" transform="scale(0.015625)"/>
       <path d="M 581 4863 
L 1159 4863 
L 1159 1991 
L 2875 3500 
L 3609 3500 
L 1753 1863 
L 3688 0 
L 2938 0 
L 1159 1709 
L 1159 0 
L 581 0 
L 581 4863 
z
" id="DejaVuSans-6b" transform="scale(0.015625)"/>
       <path d="M 2906 1791 
Q 2906 2416 2648 2759 
Q 2391 3103 1925 3103 
Q 1463 3103 1205 2759 
Q 947 2416 947 1791 
Q 947 1169 1205 825 
Q 1463 481 1925 481 
Q 2391 481 2648 825 
Q 2906 1169 2906 1791 
z
M 3481 434 
Q 3481 -459 3084 -895 
Q 2688 -1331 1869 -1331 
Q 1566 -1331 1297 -1286 
Q 1028 -1241 775 -1147 
L 775 -588 
Q 1028 -725 1275 -790 
Q 1522 -856 1778 -856 
Q 2344 -856 2625 -561 
Q 2906 -266 2906 331 
L 2906 616 
Q 2728 306 2450 153 
Q 2172 0 1784 0 
Q 1141 0 747 490 
Q 353 981 353 1791 
Q 353 2603 747 3093 
Q 1141 3584 1784 3584 
Q 2172 3584 2450 3431 
Q 2728 3278 2906 2969 
L 2906 3500 
L 3481 3500 
L 3481 434 
z
" id="DejaVuSans-67" transform="scale(0.015625)"/>
       <path d="M 2059 -325 
Q 1816 -950 1584 -1140 
Q 1353 -1331 966 -1331 
L 506 -1331 
L 506 -850 
L 844 -850 
Q 1081 -850 1212 -737 
Q 1344 -625 1503 -206 
L 1606 56 
L 191 3500 
L 800 3500 
L 1894 763 
L 2988 3500 
L 3597 3500 
L 2059 -325 
z
" id="DejaVuSans-79" transform="scale(0.015625)"/>
      </defs>
      <use xlink:href="#DejaVuSans-77"/>
      <use x="81.787109" xlink:href="#DejaVuSans-61"/>
      <use x="143.066406" xlink:href="#DejaVuSans-72"/>
      <use x="184.179688" xlink:href="#DejaVuSans-74"/>
      <use x="223.388672" xlink:href="#DejaVuSans-6f"/>
      <use x="284.570312" xlink:href="#DejaVuSans-15b"/>
      <use x="336.669922" xlink:href="#DejaVuSans-107"/>
      <use x="391.650391" xlink:href="#DejaVuSans-20"/>
      <use x="423.4375" xlink:href="#DejaVuSans-66"/>
      <use x="458.642578" xlink:href="#DejaVuSans-75"/>
      <use x="522.021484" xlink:href="#DejaVuSans-6e"/>
      <use x="585.400391" xlink:href="#DejaVuSans-6b"/>
      <use x="643.310547" xlink:href="#DejaVuSans-63"/>
      <use x="698.291016" xlink:href="#DejaVuSans-6a"/>
      <use x="726.074219" xlink:href="#DejaVuSans-69"/>
      <use x="753.857422" xlink:href="#DejaVuSans-20"/>
      <use x="785.644531" xlink:href="#DejaVuSans-6e"/>
      <use x="849.023438" xlink:href="#DejaVuSans-61"/>
      <use x="910.302734" xlink:href="#DejaVuSans-67"/>
      <use x="973.779297" xlink:href="#DejaVuSans-72"/>
      <use x="1012.642578" xlink:href="#DejaVuSans-6f"/>
      <use x="1073.824219" xlink:href="#DejaVuSans-64"/>
      <use x="1137.300781" xlink:href="#DejaVuSans-79"/>
     </g>
    </g>
   </g>
   <g id="line2d_14">
    <path clip-path="url(#p094db6b4f6)" d="M 115.363636 146.444742 
L 115.566627 150.68728 
L 117.79952 150.784772 
L 119.423442 150.351784 
L 119.626432 149.680374 
L 120.032413 132.76056 
L 120.235403 142.919726 
L 120.641384 148.874183 
L 120.844374 150.021979 
L 121.859326 149.671287 
L 122.874277 149.074877 
L 123.483248 148.519749 
L 123.889228 147.910619 
L 124.295209 146.955754 
L 124.90418 144.665781 
L 125.513151 142.417599 
L 125.919131 141.549515 
L 126.325112 141.048311 
L 126.731092 140.812433 
L 127.137073 140.767071 
L 127.746044 140.983505 
L 128.355015 141.551703 
L 128.760995 141.985825 
L 129.166976 143.654665 
L 129.369966 155.87417 
L 131.602859 155.971662 
L 133.226782 155.538674 
L 133.429772 154.867264 
L 133.835752 137.94745 
L 134.038743 148.106616 
L 134.444723 154.061073 
L 134.647714 155.208869 
L 135.662665 154.858177 
L 136.677617 154.261767 
L 137.286587 153.706639 
L 137.692568 153.097509 
L 138.098549 152.142644 
L 138.707519 149.852671 
L 139.31649 147.604489 
L 139.722471 146.736405 
L 140.128451 146.235201 
L 140.331442 146.089676 
L 140.534432 89.299782 
L 140.737422 88.969817 
L 140.940413 88.887273 
L 141.143403 89.031046 
L 141.549383 89.973003 
L 141.955364 91.851859 
L 142.564335 95.626805 
L 142.970315 105.485257 
L 143.173306 157.523262 
L 145.203209 157.614926 
L 145.609189 156.915754 
L 146.21816 155.70849 
L 147.233111 153.749886 
L 148.045073 151.967938 
L 148.248063 152.028746 
L 148.857034 150.865695 
L 149.466005 149.254695 
L 150.074975 147.106881 
L 150.886937 143.188268 
L 151.292917 140.094855 
L 151.698898 135.393708 
L 152.104878 128.141889 
L 153.32282 101.543525 
L 153.728801 97.377264 
L 154.134781 95.098397 
L 154.540762 94.156707 
L 154.743752 94.074163 
L 154.946742 94.217936 
L 155.352723 95.159893 
L 155.758703 97.038749 
L 156.367674 100.813695 
L 156.773655 110.672147 
L 156.976645 162.710152 
L 159.006548 162.801816 
L 159.412529 162.102644 
L 159.818509 161.231633 
L 160.0215 180.525992 
L 162.254393 180.623484 
L 163.878315 180.190497 
L 164.081305 179.519086 
L 164.487286 162.599272 
L 164.690276 172.758439 
L 165.096257 178.712896 
L 165.299247 179.860691 
L 166.314198 179.51 
L 167.32915 178.913589 
L 167.938121 178.358461 
L 168.344101 177.749331 
L 168.750082 176.794466 
L 169.359053 174.504494 
L 169.968024 172.256311 
L 170.374004 171.388227 
L 170.779985 170.887024 
L 171.185965 170.651145 
L 171.591946 170.605783 
L 172.200917 170.822217 
L 172.809888 171.390416 
L 173.215868 171.824537 
L 173.621849 173.493377 
L 173.824839 185.712882 
L 176.057732 185.810374 
L 177.681654 185.377387 
L 177.884645 184.705976 
L 178.290625 167.786162 
L 178.493616 177.945329 
L 178.899596 183.899786 
L 179.102586 185.047581 
L 180.117538 184.69689 
L 181.132489 184.100479 
L 181.74146 183.545351 
L 182.147441 182.936221 
L 182.553421 181.981356 
L 183.162392 179.691384 
L 183.771363 177.443201 
L 184.177344 176.575117 
L 184.583324 176.073914 
L 184.786315 175.928389 
L 184.989305 119.138494 
L 185.192295 118.80853 
L 185.395285 118.725985 
L 185.598276 118.869758 
L 186.004256 119.811715 
L 186.410237 121.690572 
L 187.019208 125.465518 
L 187.425188 135.32397 
L 187.628179 187.361975 
L 189.658081 187.453638 
L 190.064062 186.754466 
L 190.673033 185.547203 
L 191.687984 183.588598 
L 192.499945 181.806651 
L 192.702936 181.867458 
L 193.311907 180.704407 
L 193.920877 179.093407 
L 194.529848 176.945593 
L 195.341809 173.026981 
L 195.74779 169.933567 
L 196.153771 165.23242 
L 196.559751 157.980601 
L 197.777693 131.382237 
L 198.183673 127.215976 
L 198.589654 124.937109 
L 198.995635 123.99542 
L 199.198625 123.912875 
L 199.401615 124.056648 
L 199.807596 124.998605 
L 200.213576 126.877462 
L 200.822547 130.652408 
L 201.228528 140.510859 
L 201.431518 192.548865 
L 203.461421 192.640528 
L 203.867402 191.941356 
L 204.273382 191.070345 
L 204.476372 210.364704 
L 206.709266 210.462196 
L 208.333188 210.029209 
L 208.536178 209.357799 
L 208.942159 192.437985 
L 209.145149 202.597151 
L 209.55113 208.551608 
L 209.75412 209.699403 
L 210.769071 209.348712 
L 211.784023 208.752302 
L 212.392994 208.197173 
L 212.798974 207.588044 
L 213.204955 206.633178 
L 213.813926 204.343206 
L 214.422896 202.095024 
L 214.828877 201.226939 
L 215.234858 200.725736 
L 215.640838 200.489858 
L 216.046819 200.444496 
L 216.65579 200.660929 
L 217.26476 201.229128 
L 217.670741 201.663249 
L 218.076722 203.33209 
L 218.279712 215.551594 
L 220.512605 215.649086 
L 222.136527 215.216099 
L 222.339518 214.544689 
L 222.745498 197.624875 
L 222.948488 207.784041 
L 223.354469 213.738498 
L 223.557459 214.886293 
L 224.572411 214.535602 
L 225.587362 213.939192 
L 226.196333 213.384063 
L 226.602314 212.774934 
L 227.008294 211.820068 
L 227.617265 209.530096 
L 228.226236 207.281914 
L 228.632217 206.413829 
L 229.038197 205.912626 
L 229.241187 205.767101 
L 229.444178 148.977206 
L 229.647168 148.647242 
L 229.850158 148.564697 
L 230.053149 148.708471 
L 230.459129 149.650428 
L 230.86511 151.529284 
L 231.474081 155.30423 
L 231.880061 165.162682 
L 232.083051 217.200687 
L 234.112954 217.29235 
L 234.518935 216.593178 
L 235.127906 215.385915 
L 236.142857 213.42731 
L 236.954818 211.645363 
L 237.157809 211.70617 
L 237.766779 210.543119 
L 238.37575 208.93212 
L 238.984721 206.784305 
L 239.796682 202.865693 
L 240.202663 199.772279 
L 240.608643 195.071132 
L 241.014624 187.819313 
L 242.232566 161.220949 
L 242.638546 157.054688 
L 243.044527 154.775822 
L 243.450507 153.834132 
L 243.653498 153.751587 
L 243.856488 153.895361 
L 244.262469 154.837318 
L 244.668449 156.716174 
L 245.27742 160.49112 
L 245.683401 170.349572 
L 245.886391 222.387577 
L 247.916294 222.47924 
L 248.322274 221.780068 
L 248.728255 220.909058 
L 248.931245 240.203416 
L 251.164138 240.300909 
L 252.788061 239.867921 
L 252.991051 239.196511 
L 253.397032 222.276697 
L 253.600022 232.435863 
L 254.006002 238.39032 
L 254.208993 239.538116 
L 255.223944 239.187424 
L 256.238896 238.591014 
L 256.847866 238.035886 
L 257.253847 237.426756 
L 257.659828 236.471891 
L 258.268798 234.181918 
L 258.877769 231.933736 
L 259.28375 231.065651 
L 259.68973 230.564448 
L 260.095711 230.32857 
L 260.501692 230.283208 
L 261.110662 230.499641 
L 261.719633 231.06784 
L 262.125614 231.501962 
L 262.531594 233.170802 
L 262.734585 245.390306 
L 264.967478 245.487799 
L 266.5914 245.054811 
L 266.79439 244.383401 
L 267.200371 227.463587 
L 267.403361 237.622753 
L 267.809342 243.57721 
L 268.012332 244.725006 
L 269.027284 244.374314 
L 270.042235 243.777904 
L 270.651206 243.222776 
L 271.057187 242.613646 
L 271.463167 241.658781 
L 272.072138 239.368808 
L 272.681109 237.120626 
L 273.087089 236.252541 
L 273.49307 235.751338 
L 273.69606 235.605813 
L 273.899051 178.815919 
L 274.102041 178.485954 
L 274.305031 178.40341 
L 274.508021 178.547183 
L 274.914002 179.48914 
L 275.319983 181.367996 
L 275.928953 185.142942 
L 276.334934 195.001394 
L 276.537924 247.039399 
L 278.567827 247.131063 
L 278.973808 246.431891 
L 279.582779 245.224627 
L 280.59773 243.266022 
L 281.409691 241.484075 
L 281.612681 241.544883 
L 282.221652 240.381832 
L 282.830623 238.770832 
L 283.439594 236.623017 
L 284.251555 232.704405 
L 284.657536 229.610991 
L 285.063516 224.909845 
L 285.469497 217.658026 
L 286.687439 191.059662 
L 287.093419 186.8934 
L 287.4994 184.614534 
L 287.90538 183.672844 
L 288.108371 183.5903 
L 288.311361 183.734073 
L 288.717341 184.67603 
L 289.123322 186.554886 
L 289.732293 190.329832 
L 290.138273 200.188284 
L 290.341264 252.226289 
L 292.371167 252.317953 
L 292.777147 251.618781 
L 293.183128 250.74777 
L 293.386118 270.042129 
L 295.619011 270.139621 
L 297.242934 269.706634 
L 297.445924 269.035223 
L 297.851904 252.115409 
L 298.054895 262.274576 
L 298.460875 268.229033 
L 298.663866 269.376828 
L 299.678817 269.026136 
L 300.693768 268.429726 
L 301.302739 267.874598 
L 301.70872 267.265468 
L 302.1147 266.310603 
L 302.723671 264.020631 
L 303.332642 261.772448 
L 303.738623 260.904364 
L 304.144603 260.40316 
L 304.550584 260.167282 
L 304.956564 260.12192 
L 305.565535 260.338354 
L 306.174506 260.906552 
L 306.580487 261.340674 
L 306.986467 263.009514 
L 307.189458 275.229019 
L 309.422351 275.326511 
L 311.046273 274.893524 
L 311.249263 274.222113 
L 311.655244 257.302299 
L 311.858234 267.461466 
L 312.264215 273.415923 
L 312.467205 274.563718 
L 313.482156 274.213026 
L 314.497108 273.616616 
L 315.106079 273.061488 
L 315.512059 272.452358 
L 315.91804 271.497493 
L 316.527011 269.207521 
L 317.135982 266.959338 
L 317.541962 266.091254 
L 317.947943 265.59005 
L 318.150933 265.444526 
L 318.353923 208.654631 
L 318.556914 208.324666 
L 318.759904 208.242122 
L 318.962894 208.385895 
L 319.368875 209.327852 
L 319.774855 211.206708 
L 320.383826 214.981655 
L 320.789807 224.840106 
L 320.992797 276.878111 
L 323.0227 276.969775 
L 323.428681 276.270603 
L 324.037651 275.063339 
L 325.052603 273.104735 
L 325.864564 271.322788 
L 326.067554 271.383595 
L 326.676525 270.220544 
L 327.285496 268.609544 
L 327.894467 266.46173 
L 328.706428 262.543118 
L 329.112409 259.449704 
L 329.518389 254.748557 
L 329.92437 247.496738 
L 331.142311 220.898374 
L 331.548292 216.732113 
L 331.954273 214.453246 
L 332.360253 213.511556 
L 332.563243 213.429012 
L 332.766234 213.572785 
L 333.172214 214.514742 
L 333.578195 216.393598 
L 334.187166 220.168545 
L 334.593146 230.026996 
L 334.796137 282.065001 
L 336.82604 282.156665 
L 337.23202 281.457493 
L 337.638001 280.586482 
L 337.840991 299.880841 
L 340.073884 299.978333 
L 341.697806 299.545346 
L 341.900797 298.873936 
L 342.306777 281.954122 
L 342.509768 292.113288 
L 342.915748 298.067745 
L 343.118738 299.21554 
L 344.13369 298.864849 
L 345.148641 298.268438 
L 345.757612 297.71331 
L 346.163593 297.104181 
L 346.569573 296.149315 
L 347.178544 293.859343 
L 347.787515 291.61116 
L 348.193496 290.743076 
L 348.599476 290.241873 
L 349.005457 290.005995 
L 349.411437 289.960632 
L 350.020408 290.177066 
L 350.629379 290.745265 
L 351.03536 291.179386 
L 351.44134 292.848227 
L 351.64433 305.067731 
L 353.877224 305.165223 
L 355.501146 304.732236 
L 355.704136 304.060826 
L 356.110117 287.141012 
L 356.313107 297.300178 
L 356.719088 303.254635 
L 356.922078 304.40243 
L 357.937029 304.051739 
L 358.951981 303.455328 
L 359.560952 302.9002 
L 359.966932 302.291071 
L 360.372913 301.336205 
L 360.981884 299.046233 
L 361.590855 296.79805 
L 361.996835 295.929966 
L 362.402816 295.428763 
L 362.605806 295.283238 
L 362.808796 238.493343 
L 363.011787 238.163379 
L 363.214777 238.080834 
L 363.417767 238.224608 
L 363.823748 239.166565 
L 364.229728 241.045421 
L 364.838699 244.820367 
L 365.24468 254.678819 
L 365.44767 306.716824 
L 367.477573 306.808487 
L 367.883553 306.109315 
L 368.492524 304.902052 
L 369.507476 302.943447 
L 370.319437 301.1615 
L 370.522427 301.222307 
L 371.131398 300.059256 
L 371.740369 298.448256 
L 372.34934 296.300442 
L 373.161301 292.38183 
L 373.567281 289.288416 
L 373.973262 284.587269 
L 374.379243 277.33545 
L 375.597184 250.737086 
L 376.003165 246.570825 
L 376.409145 244.291958 
L 376.815126 243.350269 
L 377.018116 243.267724 
L 377.221107 243.411498 
L 377.627087 244.353455 
L 378.033068 246.232311 
L 378.642039 250.007257 
L 379.048019 259.865709 
L 379.251009 311.903714 
L 381.280912 311.995377 
L 381.686893 311.296205 
L 382.092874 310.425195 
L 382.295864 329.719553 
L 384.528757 329.817046 
L 386.152679 329.384058 
L 386.35567 328.712648 
L 386.76165 311.792834 
L 386.96464 321.952 
L 387.370621 327.906457 
L 387.573611 329.054252 
L 388.588563 328.703561 
L 389.603514 328.107151 
L 390.212485 327.552023 
L 390.618466 326.942893 
L 391.024446 325.988028 
L 391.633417 323.698055 
L 392.242388 321.449873 
L 392.648368 320.581788 
L 393.054349 320.080585 
L 393.46033 319.844707 
L 393.86631 319.799345 
L 394.475281 320.015778 
L 395.084252 320.583977 
L 395.490232 321.018098 
L 395.896213 322.686939 
L 396.099203 334.906443 
L 398.332096 335.003936 
L 399.956019 334.570948 
L 400.159009 333.899538 
L 400.56499 316.979724 
L 400.76798 327.13889 
L 401.17396 333.093347 
L 401.376951 334.241142 
L 402.391902 333.890451 
L 403.406854 333.294041 
L 404.015825 332.738913 
L 404.421805 332.129783 
L 404.827786 331.174918 
L 405.436757 328.884945 
L 406.045727 326.636763 
L 406.451708 325.768678 
L 406.857689 325.267475 
L 407.060679 325.12195 
L 407.263669 268.332055 
L 407.466659 268.002091 
L 407.66965 267.919546 
L 407.87264 268.06332 
L 408.278621 269.005277 
L 408.684601 270.884133 
L 409.293572 274.659079 
L 409.699553 284.517531 
L 409.902543 336.555536 
L 411.932446 336.6472 
L 412.338426 335.948027 
L 412.947397 334.740764 
L 413.962349 332.782159 
L 414.77431 331.000212 
L 414.9773 331.061019 
L 415.586271 329.897969 
L 416.195242 328.286969 
L 416.804213 326.139154 
L 417.616174 322.220542 
L 418.022154 319.127128 
L 418.428135 314.425981 
L 418.834115 307.174162 
L 420.052057 280.575798 
L 420.458038 276.409537 
L 420.864018 274.130671 
L 421.269999 273.188981 
L 421.472989 273.106436 
L 421.675979 273.25021 
L 422.08196 274.192167 
L 422.487941 276.071023 
L 423.096911 279.845969 
L 423.502892 289.704421 
L 423.705882 341.742426 
L 425.735785 341.83409 
L 426.141766 341.134917 
L 426.547746 340.263907 
L 426.750737 359.558266 
L 428.98363 359.655758 
L 430.607552 359.22277 
L 430.810542 358.55136 
L 431.216523 341.631546 
L 431.419513 351.790712 
L 431.825494 357.745169 
L 432.028484 358.892965 
L 433.043436 358.542273 
L 434.058387 357.945863 
L 434.667358 357.390735 
L 435.073338 356.781605 
L 435.479319 355.82674 
L 436.08829 353.536767 
L 436.697261 351.288585 
L 437.103241 350.420501 
L 437.509222 349.919297 
L 437.915202 349.683419 
L 438.321183 349.638057 
L 438.930154 349.85449 
L 439.539125 350.422689 
L 439.945105 350.856811 
L 440.351086 352.525651 
L 440.554076 364.745156 
L 442.786969 364.842648 
L 444.410892 364.40966 
L 444.613882 363.73825 
L 445.019862 346.818436 
L 445.222853 356.977602 
L 445.628833 362.932059 
L 445.831824 364.079855 
L 446.846775 363.729163 
L 447.861727 363.132753 
L 448.470697 362.577625 
L 448.876678 361.968495 
L 449.282659 361.01363 
L 449.891629 358.723657 
L 450.5006 356.475475 
L 450.906581 355.607391 
L 451.312561 355.106187 
L 451.515552 354.960662 
L 451.718542 298.170768 
L 451.921532 297.840803 
L 452.124523 297.758259 
L 452.327513 297.902032 
L 452.733493 298.843989 
L 453.139474 300.722845 
L 453.748445 304.497791 
L 454.154425 314.356243 
L 454.357416 366.394248 
L 456.387319 366.485912 
L 456.793299 365.78674 
L 457.40227 364.579476 
L 458.417221 362.620872 
L 459.229183 360.838924 
L 459.432173 360.899732 
L 460.041144 359.736681 
L 460.650115 358.125681 
L 461.259085 355.977867 
L 462.071047 352.059254 
L 462.477027 348.965841 
L 462.883008 344.264694 
L 463.288988 337.012875 
L 464.50693 310.414511 
L 464.912911 306.24825 
L 465.318891 303.969383 
L 465.724872 303.027693 
L 465.927862 302.945149 
L 466.130852 303.088922 
L 466.536833 304.030879 
L 466.942813 305.909735 
L 467.551784 309.684681 
L 467.957765 319.543133 
L 468.160755 371.581138 
L 470.190658 371.672802 
L 470.596639 370.97363 
L 471.002619 370.102619 
L 471.20561 389.396978 
L 473.438503 389.49447 
L 475.062425 389.061483 
L 475.265415 388.390072 
L 475.671396 371.470258 
L 475.874386 381.629425 
L 476.280367 387.583882 
L 476.483357 388.731677 
L 477.498308 388.380986 
L 478.51326 387.784575 
L 479.122231 387.229447 
L 479.528211 386.620317 
L 479.934192 385.665452 
L 480.543163 383.37548 
L 481.152134 381.127297 
L 481.558114 380.259213 
L 481.964095 379.75801 
L 482.370075 379.522131 
L 482.776056 379.476769 
L 483.385027 379.693203 
L 483.993998 380.261402 
L 484.399978 380.695523 
L 484.805959 382.364363 
L 485.008949 394.583868 
L 487.241842 394.68136 
L 488.865764 394.248373 
L 489.068755 393.576962 
L 489.474735 376.657148 
L 489.677726 386.816315 
L 490.083706 392.770772 
L 490.286696 393.918567 
L 491.301648 393.567876 
L 492.316599 392.971465 
L 492.92557 392.416337 
L 493.331551 391.807207 
L 493.737531 390.852342 
L 494.346502 388.56237 
L 494.955473 386.314187 
L 495.361454 385.446103 
L 495.767434 384.9449 
L 495.970425 384.799375 
L 496.173415 328.00948 
L 496.376405 327.679516 
L 496.579395 327.596971 
L 496.782386 327.740744 
L 497.188366 328.682701 
L 497.594347 330.561558 
L 498.203318 334.336504 
L 498.609298 344.194955 
L 498.812289 396.232961 
L 500.842191 396.324624 
L 501.248172 395.625452 
L 501.857143 394.418189 
L 502.872094 392.459584 
L 503.684055 390.677637 
L 503.887046 390.738444 
L 504.496017 389.575393 
L 505.104987 387.964393 
L 505.713958 385.816579 
L 506.525919 381.897967 
L 506.9319 378.804553 
L 507.337881 374.103406 
L 507.743861 366.851587 
L 508.961803 340.253223 
L 509.367783 336.086962 
L 509.773764 333.808095 
L 510.179745 332.866406 
L 510.382735 332.783861 
L 510.585725 332.927634 
L 510.991706 333.869591 
L 511.397686 335.748448 
L 512.006657 339.523394 
L 512.412638 349.381845 
L 512.615628 401.419851 
L 514.645531 401.511514 
L 515.051512 400.812342 
L 515.457492 399.941331 
L 515.660482 419.23569 
L 517.893376 419.333182 
L 519.517298 418.900195 
L 519.720288 418.228785 
L 520.126269 401.308971 
L 520.329259 411.468137 
L 520.73524 417.422594 
L 520.93823 418.570389 
L 521.953181 418.219698 
L 522.968133 417.623287 
L 523.577104 417.068159 
L 523.983084 416.45903 
L 524.389065 415.504164 
L 524.998036 413.214192 
L 525.607006 410.96601 
L 526.012987 410.097925 
L 526.418968 409.596722 
L 526.824948 409.360844 
L 527.230929 409.315482 
L 527.8399 409.531915 
L 528.44887 410.100114 
L 528.854851 410.534235 
L 529.260832 412.203076 
L 529.463822 424.42258 
L 531.696715 424.520072 
L 533.320637 424.087085 
L 533.523628 423.415675 
L 533.929608 406.495861 
L 534.132598 416.655027 
L 534.538579 422.609484 
L 534.741569 423.757279 
L 535.756521 423.406588 
L 536.771472 422.810177 
L 537.380443 422.255049 
L 537.786424 421.64592 
L 538.192404 420.691054 
L 538.801375 418.401082 
L 539.410346 416.1529 
L 539.816327 415.284815 
L 540.222307 414.783612 
L 540.425297 414.638087 
L 540.628288 357.848192 
L 540.831278 357.518228 
L 541.034268 357.435683 
L 541.237259 357.579457 
L 541.643239 358.521414 
L 542.04922 360.40027 
L 542.658191 364.175216 
L 543.064171 374.033668 
L 543.267161 426.071673 
L 545.297064 426.163336 
L 545.703045 425.464164 
L 546.312016 424.256901 
L 547.326967 422.298296 
L 548.138928 420.516349 
L 548.341919 420.577156 
L 548.950889 419.414105 
L 549.55986 417.803106 
L 550.168831 415.655291 
L 550.980792 411.736679 
L 551.386773 408.643265 
L 551.792753 403.942118 
L 552.198734 396.690299 
L 553.416676 370.091935 
L 553.822656 365.925674 
L 554.228637 363.646808 
L 554.634617 362.705118 
L 554.837608 362.622573 
L 555.040598 362.766347 
L 555.446579 363.708304 
L 555.852559 365.58716 
L 556.46153 369.362106 
L 556.867511 379.220558 
L 557.070501 431.258563 
L 559.100404 431.350226 
L 559.506384 430.651054 
L 559.912365 429.780044 
L 560.115355 449.074402 
L 562.348248 449.171895 
L 563.972171 448.738907 
L 564.175161 448.067497 
L 564.581142 431.147683 
L 564.784132 441.306849 
L 565.190112 447.261306 
L 565.393103 448.409102 
L 566.408054 448.05841 
L 567.423006 447.462 
L 568.031976 446.906872 
L 568.437957 446.297742 
L 568.843938 445.342877 
L 569.452908 443.052904 
L 570.061879 440.804722 
L 570.46786 439.936637 
L 570.87384 439.435434 
L 571.279821 439.199556 
L 571.685802 439.154194 
L 572.294772 439.370627 
L 572.903743 439.938826 
L 573.309724 440.372948 
L 573.715704 442.041788 
L 573.918695 454.261292 
L 576.151588 454.358785 
L 577.77551 453.925797 
L 577.9785 453.254387 
L 578.384481 436.334573 
L 578.587471 446.493739 
L 578.993452 452.448196 
L 579.196442 453.595992 
L 580.211394 453.2453 
L 581.226345 452.64889 
L 581.835316 452.093762 
L 582.241297 451.484632 
L 582.647277 450.529767 
L 583.256248 448.239794 
L 583.865219 445.991612 
L 584.271199 445.123527 
L 584.67718 444.622324 
L 584.88017 444.476799 
L 585.083161 387.686905 
L 585.286151 387.35694 
L 585.489141 387.274396 
L 585.692131 387.418169 
L 586.098112 388.360126 
L 586.504093 390.238982 
L 587.113063 394.013928 
L 587.519044 403.87238 
L 587.722034 455.910385 
L 589.751937 456.002049 
L 590.157918 455.302877 
L 590.766889 454.095613 
L 591.78184 452.137008 
L 592.593801 450.355061 
L 592.796791 450.415869 
L 593.405762 449.252818 
L 594.014733 447.641818 
L 594.623704 445.494003 
L 595.435665 441.575391 
L 595.841646 438.481977 
L 596.247626 433.780831 
L 596.653607 426.529012 
L 597.871549 399.930648 
L 598.277529 395.764386 
L 598.68351 393.48552 
L 599.08949 392.54383 
L 599.292481 392.461286 
L 599.495471 392.605059 
L 599.901451 393.547016 
L 600.307432 395.425872 
L 600.916403 399.200818 
L 601.322383 409.05927 
L 601.525374 461.097275 
L 603.555277 461.188939 
L 603.961257 460.489767 
L 604.367238 459.618756 
L 604.570228 478.913115 
L 606.803121 479.010607 
L 608.427044 478.57762 
L 608.630034 477.906209 
L 609.036014 460.986395 
L 609.239005 471.145562 
L 609.644985 477.100019 
L 609.847976 478.247814 
L 610.862927 477.897122 
L 611.877878 477.300712 
L 612.486849 476.745584 
L 612.89283 476.136454 
L 613.29881 475.181589 
L 613.907781 472.891617 
L 614.516752 470.643434 
L 614.922733 469.77535 
L 615.328713 469.274146 
L 615.734694 469.038268 
L 616.140674 468.992906 
L 616.749645 469.20934 
L 617.358616 469.777538 
L 617.764597 470.21166 
L 618.170577 471.8805 
L 618.373568 484.100005 
L 620.606461 484.197497 
L 622.230383 483.76451 
L 622.433373 483.093099 
L 622.636364 472.82521 
L 622.636364 472.82521 
" style="fill:none;stroke:#1f77b4;stroke-linecap:square;stroke-width:1.5;"/>
   </g>
   <g id="patch_3">
    <path d="M 90 504 
L 90 69.12 
" style="fill:none;stroke:#000000;stroke-linecap:square;stroke-linejoin:miter;stroke-width:0.8;"/>
   </g>
   <g id="patch_4">
    <path d="M 648 504 
L 648 69.12 
" style="fill:none;stroke:#000000;stroke-linecap:square;stroke-linejoin:miter;stroke-width:0.8;"/>
   </g>
   <g id="patch_5">
    <path d="M 90 504 
L 648 504 
" style="fill:none;stroke:#000000;stroke-linecap:square;stroke-linejoin:miter;stroke-width:0.8;"/>
   </g>
   <g id="patch_6">
    <path d="M 90 69.12 
L 648 69.12 
" style="fill:none;stroke:#000000;stroke-linecap:square;stroke-linejoin:miter;stroke-width:0.8;"/>
   </g>
  </g>
 </g>
 <defs>
  <clipPath id="p094db6b4f6">
   <rect height="434.88" width="558" x="90" y="69.12"/>
  </clipPath>
 </defs>
</svg>
