<?xml version="1.0" encoding="utf-8" standalone="no"?>
<!DOCTYPE svg PUBLIC "-//W3C//DTD SVG 1.1//EN"
  "http://www.w3.org/Graphics/SVG/1.1/DTD/svg11.dtd">
<svg height="576pt" version="1.1" viewBox="0 0 720 576" width="720pt" xmlns="http://www.w3.org/2000/svg" xmlns:xlink="http://www.w3.org/1999/xlink">
 <metadata>
  <rdf:RDF xmlns:cc="http://creativecommons.org/ns#" xmlns:dc="http://purl.org/dc/elements/1.1/" xmlns:rdf="http://www.w3.org/1999/02/22-rdf-syntax-ns#">
   <cc:Work>
    <dc:type rdf:resource="http://purl.org/dc/dcmitype/StillImage"/>
    <dc:date>2022-01-19T22:12:17.108512</dc:date>
    <dc:format>image/svg+xml</dc:format>
    <dc:creator>
     <cc:Agent>
      <dc:title>Matplotlib v3.4.3, https://matplotlib.org/</dc:title>
     </cc:Agent>
    </dc:creator>
   </cc:Work>
  </rdf:RDF>
 </metadata>
 <defs>
  <style type="text/css">*{stroke-linecap:butt;stroke-linejoin:round;}</style>
 </defs>
 <g id="figure_1">
  <g id="patch_1">
   <path d="M 0 576 
L 720 576 
L 720 0 
L 0 0 
z
" style="fill:none;"/>
  </g>
  <g id="axes_1">
   <g id="patch_2">
    <path d="M 90 504 
L 648 504 
L 648 69.12 
L 90 69.12 
z
" style="fill:#ffffff;"/>
   </g>
   <g id="matplotlib.axis_1">
    <g id="xtick_1">
     <g id="line2d_1">
      <defs>
       <path d="M 0 0 
L 0 3.5 
" id="m37dab972cd" style="stroke:#000000;stroke-width:0.8;"/>
      </defs>
      <g>
       <use style="stroke:#000000;stroke-width:0.8;" x="115.363636" xlink:href="#m37dab972cd" y="504"/>
      </g>
     </g>
     <g id="text_1">
      <!-- 0 -->
      <g transform="translate(108.364886 527.716563)scale(0.22 -0.22)">
       <defs>
        <path d="M 2034 4250 
Q 1547 4250 1301 3770 
Q 1056 3291 1056 2328 
Q 1056 1369 1301 889 
Q 1547 409 2034 409 
Q 2525 409 2770 889 
Q 3016 1369 3016 2328 
Q 3016 3291 2770 3770 
Q 2525 4250 2034 4250 
z
M 2034 4750 
Q 2819 4750 3233 4129 
Q 3647 3509 3647 2328 
Q 3647 1150 3233 529 
Q 2819 -91 2034 -91 
Q 1250 -91 836 529 
Q 422 1150 422 2328 
Q 422 3509 836 4129 
Q 1250 4750 2034 4750 
z
" id="DejaVuSans-30" transform="scale(0.015625)"/>
       </defs>
       <use xlink:href="#DejaVuSans-30"/>
      </g>
     </g>
    </g>
    <g id="xtick_2">
     <g id="line2d_2">
      <g>
       <use style="stroke:#000000;stroke-width:0.8;" x="216.85878" xlink:href="#m37dab972cd" y="504"/>
      </g>
     </g>
     <g id="text_2">
      <!-- 500 -->
      <g transform="translate(195.86253 527.716563)scale(0.22 -0.22)">
       <defs>
        <path d="M 691 4666 
L 3169 4666 
L 3169 4134 
L 1269 4134 
L 1269 2991 
Q 1406 3038 1543 3061 
Q 1681 3084 1819 3084 
Q 2600 3084 3056 2656 
Q 3513 2228 3513 1497 
Q 3513 744 3044 326 
Q 2575 -91 1722 -91 
Q 1428 -91 1123 -41 
Q 819 9 494 109 
L 494 744 
Q 775 591 1075 516 
Q 1375 441 1709 441 
Q 2250 441 2565 725 
Q 2881 1009 2881 1497 
Q 2881 1984 2565 2268 
Q 2250 2553 1709 2553 
Q 1456 2553 1204 2497 
Q 953 2441 691 2322 
L 691 4666 
z
" id="DejaVuSans-35" transform="scale(0.015625)"/>
       </defs>
       <use xlink:href="#DejaVuSans-35"/>
       <use x="63.623047" xlink:href="#DejaVuSans-30"/>
       <use x="127.246094" xlink:href="#DejaVuSans-30"/>
      </g>
     </g>
    </g>
    <g id="xtick_3">
     <g id="line2d_3">
      <g>
       <use style="stroke:#000000;stroke-width:0.8;" x="318.353923" xlink:href="#m37dab972cd" y="504"/>
      </g>
     </g>
     <g id="text_3">
      <!-- 1000 -->
      <g transform="translate(290.358923 527.716563)scale(0.22 -0.22)">
       <defs>
        <path d="M 794 531 
L 1825 531 
L 1825 4091 
L 703 3866 
L 703 4441 
L 1819 4666 
L 2450 4666 
L 2450 531 
L 3481 531 
L 3481 0 
L 794 0 
L 794 531 
z
" id="DejaVuSans-31" transform="scale(0.015625)"/>
       </defs>
       <use xlink:href="#DejaVuSans-31"/>
       <use x="63.623047" xlink:href="#DejaVuSans-30"/>
       <use x="127.246094" xlink:href="#DejaVuSans-30"/>
       <use x="190.869141" xlink:href="#DejaVuSans-30"/>
      </g>
     </g>
    </g>
    <g id="xtick_4">
     <g id="line2d_4">
      <g>
       <use style="stroke:#000000;stroke-width:0.8;" x="419.849067" xlink:href="#m37dab972cd" y="504"/>
      </g>
     </g>
     <g id="text_4">
      <!-- 1500 -->
      <g transform="translate(391.854067 527.716563)scale(0.22 -0.22)">
       <use xlink:href="#DejaVuSans-31"/>
       <use x="63.623047" xlink:href="#DejaVuSans-35"/>
       <use x="127.246094" xlink:href="#DejaVuSans-30"/>
       <use x="190.869141" xlink:href="#DejaVuSans-30"/>
      </g>
     </g>
    </g>
    <g id="xtick_5">
     <g id="line2d_5">
      <g>
       <use style="stroke:#000000;stroke-width:0.8;" x="521.34421" xlink:href="#m37dab972cd" y="504"/>
      </g>
     </g>
     <g id="text_5">
      <!-- 2000 -->
      <g transform="translate(493.34921 527.716563)scale(0.22 -0.22)">
       <defs>
        <path d="M 1228 531 
L 3431 531 
L 3431 0 
L 469 0 
L 469 531 
Q 828 903 1448 1529 
Q 2069 2156 2228 2338 
Q 2531 2678 2651 2914 
Q 2772 3150 2772 3378 
Q 2772 3750 2511 3984 
Q 2250 4219 1831 4219 
Q 1534 4219 1204 4116 
Q 875 4013 500 3803 
L 500 4441 
Q 881 4594 1212 4672 
Q 1544 4750 1819 4750 
Q 2544 4750 2975 4387 
Q 3406 4025 3406 3419 
Q 3406 3131 3298 2873 
Q 3191 2616 2906 2266 
Q 2828 2175 2409 1742 
Q 1991 1309 1228 531 
z
" id="DejaVuSans-32" transform="scale(0.015625)"/>
       </defs>
       <use xlink:href="#DejaVuSans-32"/>
       <use x="63.623047" xlink:href="#DejaVuSans-30"/>
       <use x="127.246094" xlink:href="#DejaVuSans-30"/>
       <use x="190.869141" xlink:href="#DejaVuSans-30"/>
      </g>
     </g>
    </g>
    <g id="xtick_6">
     <g id="line2d_6">
      <g>
       <use style="stroke:#000000;stroke-width:0.8;" x="622.839354" xlink:href="#m37dab972cd" y="504"/>
      </g>
     </g>
     <g id="text_6">
      <!-- 2500 -->
      <g transform="translate(594.844354 527.716563)scale(0.22 -0.22)">
       <use xlink:href="#DejaVuSans-32"/>
       <use x="63.623047" xlink:href="#DejaVuSans-35"/>
       <use x="127.246094" xlink:href="#DejaVuSans-30"/>
       <use x="190.869141" xlink:href="#DejaVuSans-30"/>
      </g>
     </g>
    </g>
    <g id="text_7">
     <!-- nr iteracji epizodu -->
     <g transform="translate(269.688906 553.008438)scale(0.22 -0.22)">
      <defs>
       <path d="M 3513 2113 
L 3513 0 
L 2938 0 
L 2938 2094 
Q 2938 2591 2744 2837 
Q 2550 3084 2163 3084 
Q 1697 3084 1428 2787 
Q 1159 2491 1159 1978 
L 1159 0 
L 581 0 
L 581 3500 
L 1159 3500 
L 1159 2956 
Q 1366 3272 1645 3428 
Q 1925 3584 2291 3584 
Q 2894 3584 3203 3211 
Q 3513 2838 3513 2113 
z
" id="DejaVuSans-6e" transform="scale(0.015625)"/>
       <path d="M 2631 2963 
Q 2534 3019 2420 3045 
Q 2306 3072 2169 3072 
Q 1681 3072 1420 2755 
Q 1159 2438 1159 1844 
L 1159 0 
L 581 0 
L 581 3500 
L 1159 3500 
L 1159 2956 
Q 1341 3275 1631 3429 
Q 1922 3584 2338 3584 
Q 2397 3584 2469 3576 
Q 2541 3569 2628 3553 
L 2631 2963 
z
" id="DejaVuSans-72" transform="scale(0.015625)"/>
       <path id="DejaVuSans-20" transform="scale(0.015625)"/>
       <path d="M 603 3500 
L 1178 3500 
L 1178 0 
L 603 0 
L 603 3500 
z
M 603 4863 
L 1178 4863 
L 1178 4134 
L 603 4134 
L 603 4863 
z
" id="DejaVuSans-69" transform="scale(0.015625)"/>
       <path d="M 1172 4494 
L 1172 3500 
L 2356 3500 
L 2356 3053 
L 1172 3053 
L 1172 1153 
Q 1172 725 1289 603 
Q 1406 481 1766 481 
L 2356 481 
L 2356 0 
L 1766 0 
Q 1100 0 847 248 
Q 594 497 594 1153 
L 594 3053 
L 172 3053 
L 172 3500 
L 594 3500 
L 594 4494 
L 1172 4494 
z
" id="DejaVuSans-74" transform="scale(0.015625)"/>
       <path d="M 3597 1894 
L 3597 1613 
L 953 1613 
Q 991 1019 1311 708 
Q 1631 397 2203 397 
Q 2534 397 2845 478 
Q 3156 559 3463 722 
L 3463 178 
Q 3153 47 2828 -22 
Q 2503 -91 2169 -91 
Q 1331 -91 842 396 
Q 353 884 353 1716 
Q 353 2575 817 3079 
Q 1281 3584 2069 3584 
Q 2775 3584 3186 3129 
Q 3597 2675 3597 1894 
z
M 3022 2063 
Q 3016 2534 2758 2815 
Q 2500 3097 2075 3097 
Q 1594 3097 1305 2825 
Q 1016 2553 972 2059 
L 3022 2063 
z
" id="DejaVuSans-65" transform="scale(0.015625)"/>
       <path d="M 2194 1759 
Q 1497 1759 1228 1600 
Q 959 1441 959 1056 
Q 959 750 1161 570 
Q 1363 391 1709 391 
Q 2188 391 2477 730 
Q 2766 1069 2766 1631 
L 2766 1759 
L 2194 1759 
z
M 3341 1997 
L 3341 0 
L 2766 0 
L 2766 531 
Q 2569 213 2275 61 
Q 1981 -91 1556 -91 
Q 1019 -91 701 211 
Q 384 513 384 1019 
Q 384 1609 779 1909 
Q 1175 2209 1959 2209 
L 2766 2209 
L 2766 2266 
Q 2766 2663 2505 2880 
Q 2244 3097 1772 3097 
Q 1472 3097 1187 3025 
Q 903 2953 641 2809 
L 641 3341 
Q 956 3463 1253 3523 
Q 1550 3584 1831 3584 
Q 2591 3584 2966 3190 
Q 3341 2797 3341 1997 
z
" id="DejaVuSans-61" transform="scale(0.015625)"/>
       <path d="M 3122 3366 
L 3122 2828 
Q 2878 2963 2633 3030 
Q 2388 3097 2138 3097 
Q 1578 3097 1268 2742 
Q 959 2388 959 1747 
Q 959 1106 1268 751 
Q 1578 397 2138 397 
Q 2388 397 2633 464 
Q 2878 531 3122 666 
L 3122 134 
Q 2881 22 2623 -34 
Q 2366 -91 2075 -91 
Q 1284 -91 818 406 
Q 353 903 353 1747 
Q 353 2603 823 3093 
Q 1294 3584 2113 3584 
Q 2378 3584 2631 3529 
Q 2884 3475 3122 3366 
z
" id="DejaVuSans-63" transform="scale(0.015625)"/>
       <path d="M 603 3500 
L 1178 3500 
L 1178 -63 
Q 1178 -731 923 -1031 
Q 669 -1331 103 -1331 
L -116 -1331 
L -116 -844 
L 38 -844 
Q 366 -844 484 -692 
Q 603 -541 603 -63 
L 603 3500 
z
M 603 4863 
L 1178 4863 
L 1178 4134 
L 603 4134 
L 603 4863 
z
" id="DejaVuSans-6a" transform="scale(0.015625)"/>
       <path d="M 1159 525 
L 1159 -1331 
L 581 -1331 
L 581 3500 
L 1159 3500 
L 1159 2969 
Q 1341 3281 1617 3432 
Q 1894 3584 2278 3584 
Q 2916 3584 3314 3078 
Q 3713 2572 3713 1747 
Q 3713 922 3314 415 
Q 2916 -91 2278 -91 
Q 1894 -91 1617 61 
Q 1341 213 1159 525 
z
M 3116 1747 
Q 3116 2381 2855 2742 
Q 2594 3103 2138 3103 
Q 1681 3103 1420 2742 
Q 1159 2381 1159 1747 
Q 1159 1113 1420 752 
Q 1681 391 2138 391 
Q 2594 391 2855 752 
Q 3116 1113 3116 1747 
z
" id="DejaVuSans-70" transform="scale(0.015625)"/>
       <path d="M 353 3500 
L 3084 3500 
L 3084 2975 
L 922 459 
L 3084 459 
L 3084 0 
L 275 0 
L 275 525 
L 2438 3041 
L 353 3041 
L 353 3500 
z
" id="DejaVuSans-7a" transform="scale(0.015625)"/>
       <path d="M 1959 3097 
Q 1497 3097 1228 2736 
Q 959 2375 959 1747 
Q 959 1119 1226 758 
Q 1494 397 1959 397 
Q 2419 397 2687 759 
Q 2956 1122 2956 1747 
Q 2956 2369 2687 2733 
Q 2419 3097 1959 3097 
z
M 1959 3584 
Q 2709 3584 3137 3096 
Q 3566 2609 3566 1747 
Q 3566 888 3137 398 
Q 2709 -91 1959 -91 
Q 1206 -91 779 398 
Q 353 888 353 1747 
Q 353 2609 779 3096 
Q 1206 3584 1959 3584 
z
" id="DejaVuSans-6f" transform="scale(0.015625)"/>
       <path d="M 2906 2969 
L 2906 4863 
L 3481 4863 
L 3481 0 
L 2906 0 
L 2906 525 
Q 2725 213 2448 61 
Q 2172 -91 1784 -91 
Q 1150 -91 751 415 
Q 353 922 353 1747 
Q 353 2572 751 3078 
Q 1150 3584 1784 3584 
Q 2172 3584 2448 3432 
Q 2725 3281 2906 2969 
z
M 947 1747 
Q 947 1113 1208 752 
Q 1469 391 1925 391 
Q 2381 391 2643 752 
Q 2906 1113 2906 1747 
Q 2906 2381 2643 2742 
Q 2381 3103 1925 3103 
Q 1469 3103 1208 2742 
Q 947 2381 947 1747 
z
" id="DejaVuSans-64" transform="scale(0.015625)"/>
       <path d="M 544 1381 
L 544 3500 
L 1119 3500 
L 1119 1403 
Q 1119 906 1312 657 
Q 1506 409 1894 409 
Q 2359 409 2629 706 
Q 2900 1003 2900 1516 
L 2900 3500 
L 3475 3500 
L 3475 0 
L 2900 0 
L 2900 538 
Q 2691 219 2414 64 
Q 2138 -91 1772 -91 
Q 1169 -91 856 284 
Q 544 659 544 1381 
z
M 1991 3584 
L 1991 3584 
z
" id="DejaVuSans-75" transform="scale(0.015625)"/>
      </defs>
      <use xlink:href="#DejaVuSans-6e"/>
      <use x="63.378906" xlink:href="#DejaVuSans-72"/>
      <use x="104.492188" xlink:href="#DejaVuSans-20"/>
      <use x="136.279297" xlink:href="#DejaVuSans-69"/>
      <use x="164.0625" xlink:href="#DejaVuSans-74"/>
      <use x="203.271484" xlink:href="#DejaVuSans-65"/>
      <use x="264.794922" xlink:href="#DejaVuSans-72"/>
      <use x="305.908203" xlink:href="#DejaVuSans-61"/>
      <use x="367.1875" xlink:href="#DejaVuSans-63"/>
      <use x="422.167969" xlink:href="#DejaVuSans-6a"/>
      <use x="449.951172" xlink:href="#DejaVuSans-69"/>
      <use x="477.734375" xlink:href="#DejaVuSans-20"/>
      <use x="509.521484" xlink:href="#DejaVuSans-65"/>
      <use x="571.044922" xlink:href="#DejaVuSans-70"/>
      <use x="634.521484" xlink:href="#DejaVuSans-69"/>
      <use x="662.304688" xlink:href="#DejaVuSans-7a"/>
      <use x="714.794922" xlink:href="#DejaVuSans-6f"/>
      <use x="775.976562" xlink:href="#DejaVuSans-64"/>
      <use x="839.453125" xlink:href="#DejaVuSans-75"/>
     </g>
    </g>
   </g>
   <g id="matplotlib.axis_2">
    <g id="ytick_1">
     <g id="line2d_7">
      <defs>
       <path d="M 0 0 
L -3.5 0 
" id="mbad4d7b501" style="stroke:#000000;stroke-width:0.8;"/>
      </defs>
      <g>
       <use style="stroke:#000000;stroke-width:0.8;" x="90" xlink:href="#mbad4d7b501" y="473.537928"/>
      </g>
     </g>
     <g id="text_8">
      <!-- −4000 -->
      <g transform="translate(8.574687 481.896209)scale(0.22 -0.22)">
       <defs>
        <path d="M 678 2272 
L 4684 2272 
L 4684 1741 
L 678 1741 
L 678 2272 
z
" id="DejaVuSans-2212" transform="scale(0.015625)"/>
        <path d="M 2419 4116 
L 825 1625 
L 2419 1625 
L 2419 4116 
z
M 2253 4666 
L 3047 4666 
L 3047 1625 
L 3713 1625 
L 3713 1100 
L 3047 1100 
L 3047 0 
L 2419 0 
L 2419 1100 
L 313 1100 
L 313 1709 
L 2253 4666 
z
" id="DejaVuSans-34" transform="scale(0.015625)"/>
       </defs>
       <use xlink:href="#DejaVuSans-2212"/>
       <use x="83.789062" xlink:href="#DejaVuSans-34"/>
       <use x="147.412109" xlink:href="#DejaVuSans-30"/>
       <use x="211.035156" xlink:href="#DejaVuSans-30"/>
       <use x="274.658203" xlink:href="#DejaVuSans-30"/>
      </g>
     </g>
    </g>
    <g id="ytick_2">
     <g id="line2d_8">
      <g>
       <use style="stroke:#000000;stroke-width:0.8;" x="90" xlink:href="#mbad4d7b501" y="417.156137"/>
      </g>
     </g>
     <g id="text_9">
      <!-- −3000 -->
      <g transform="translate(8.574687 425.514418)scale(0.22 -0.22)">
       <defs>
        <path d="M 2597 2516 
Q 3050 2419 3304 2112 
Q 3559 1806 3559 1356 
Q 3559 666 3084 287 
Q 2609 -91 1734 -91 
Q 1441 -91 1130 -33 
Q 819 25 488 141 
L 488 750 
Q 750 597 1062 519 
Q 1375 441 1716 441 
Q 2309 441 2620 675 
Q 2931 909 2931 1356 
Q 2931 1769 2642 2001 
Q 2353 2234 1838 2234 
L 1294 2234 
L 1294 2753 
L 1863 2753 
Q 2328 2753 2575 2939 
Q 2822 3125 2822 3475 
Q 2822 3834 2567 4026 
Q 2313 4219 1838 4219 
Q 1578 4219 1281 4162 
Q 984 4106 628 3988 
L 628 4550 
Q 988 4650 1302 4700 
Q 1616 4750 1894 4750 
Q 2613 4750 3031 4423 
Q 3450 4097 3450 3541 
Q 3450 3153 3228 2886 
Q 3006 2619 2597 2516 
z
" id="DejaVuSans-33" transform="scale(0.015625)"/>
       </defs>
       <use xlink:href="#DejaVuSans-2212"/>
       <use x="83.789062" xlink:href="#DejaVuSans-33"/>
       <use x="147.412109" xlink:href="#DejaVuSans-30"/>
       <use x="211.035156" xlink:href="#DejaVuSans-30"/>
       <use x="274.658203" xlink:href="#DejaVuSans-30"/>
      </g>
     </g>
    </g>
    <g id="ytick_3">
     <g id="line2d_9">
      <g>
       <use style="stroke:#000000;stroke-width:0.8;" x="90" xlink:href="#mbad4d7b501" y="360.774347"/>
      </g>
     </g>
     <g id="text_10">
      <!-- −2000 -->
      <g transform="translate(8.574687 369.132628)scale(0.22 -0.22)">
       <use xlink:href="#DejaVuSans-2212"/>
       <use x="83.789062" xlink:href="#DejaVuSans-32"/>
       <use x="147.412109" xlink:href="#DejaVuSans-30"/>
       <use x="211.035156" xlink:href="#DejaVuSans-30"/>
       <use x="274.658203" xlink:href="#DejaVuSans-30"/>
      </g>
     </g>
    </g>
    <g id="ytick_4">
     <g id="line2d_10">
      <g>
       <use style="stroke:#000000;stroke-width:0.8;" x="90" xlink:href="#mbad4d7b501" y="304.392556"/>
      </g>
     </g>
     <g id="text_11">
      <!-- −1000 -->
      <g transform="translate(8.574687 312.750837)scale(0.22 -0.22)">
       <use xlink:href="#DejaVuSans-2212"/>
       <use x="83.789062" xlink:href="#DejaVuSans-31"/>
       <use x="147.412109" xlink:href="#DejaVuSans-30"/>
       <use x="211.035156" xlink:href="#DejaVuSans-30"/>
       <use x="274.658203" xlink:href="#DejaVuSans-30"/>
      </g>
     </g>
    </g>
    <g id="ytick_5">
     <g id="line2d_11">
      <g>
       <use style="stroke:#000000;stroke-width:0.8;" x="90" xlink:href="#mbad4d7b501" y="248.010765"/>
      </g>
     </g>
     <g id="text_12">
      <!-- 0 -->
      <g transform="translate(69.0025 256.369047)scale(0.22 -0.22)">
       <use xlink:href="#DejaVuSans-30"/>
      </g>
     </g>
    </g>
    <g id="ytick_6">
     <g id="line2d_12">
      <g>
       <use style="stroke:#000000;stroke-width:0.8;" x="90" xlink:href="#mbad4d7b501" y="191.628975"/>
      </g>
     </g>
     <g id="text_13">
      <!-- 1000 -->
      <g transform="translate(27.01 199.987256)scale(0.22 -0.22)">
       <use xlink:href="#DejaVuSans-31"/>
       <use x="63.623047" xlink:href="#DejaVuSans-30"/>
       <use x="127.246094" xlink:href="#DejaVuSans-30"/>
       <use x="190.869141" xlink:href="#DejaVuSans-30"/>
      </g>
     </g>
    </g>
    <g id="ytick_7">
     <g id="line2d_13">
      <g>
       <use style="stroke:#000000;stroke-width:0.8;" x="90" xlink:href="#mbad4d7b501" y="135.247184"/>
      </g>
     </g>
     <g id="text_14">
      <!-- 2000 -->
      <g transform="translate(27.01 143.605465)scale(0.22 -0.22)">
       <use xlink:href="#DejaVuSans-32"/>
       <use x="63.623047" xlink:href="#DejaVuSans-30"/>
       <use x="127.246094" xlink:href="#DejaVuSans-30"/>
       <use x="190.869141" xlink:href="#DejaVuSans-30"/>
      </g>
     </g>
    </g>
    <g id="ytick_8">
     <g id="line2d_14">
      <g>
       <use style="stroke:#000000;stroke-width:0.8;" x="90" xlink:href="#mbad4d7b501" y="78.865394"/>
      </g>
     </g>
     <g id="text_15">
      <!-- 3000 -->
      <g transform="translate(27.01 87.223675)scale(0.22 -0.22)">
       <use xlink:href="#DejaVuSans-33"/>
       <use x="63.623047" xlink:href="#DejaVuSans-30"/>
       <use x="127.246094" xlink:href="#DejaVuSans-30"/>
       <use x="190.869141" xlink:href="#DejaVuSans-30"/>
      </g>
     </g>
    </g>
    <g id="text_16">
     <!-- wartość funkcji nagrody -->
     <g transform="translate(-0.000625 418.171562)rotate(-90)scale(0.22 -0.22)">
      <defs>
       <path d="M 269 3500 
L 844 3500 
L 1563 769 
L 2278 3500 
L 2956 3500 
L 3675 769 
L 4391 3500 
L 4966 3500 
L 4050 0 
L 3372 0 
L 2619 2869 
L 1863 0 
L 1184 0 
L 269 3500 
z
" id="DejaVuSans-77" transform="scale(0.015625)"/>
       <path d="M 2242 5119 
L 2864 5119 
L 1846 3944 
L 1367 3944 
L 2242 5119 
z
M 2834 3397 
L 2834 2853 
Q 2591 2978 2328 3040 
Q 2066 3103 1784 3103 
Q 1356 3103 1142 2972 
Q 928 2841 928 2578 
Q 928 2378 1081 2264 
Q 1234 2150 1697 2047 
L 1894 2003 
Q 2506 1872 2764 1633 
Q 3022 1394 3022 966 
Q 3022 478 2636 193 
Q 2250 -91 1575 -91 
Q 1294 -91 989 -36 
Q 684 19 347 128 
L 347 722 
Q 666 556 975 473 
Q 1284 391 1588 391 
Q 1994 391 2212 530 
Q 2431 669 2431 922 
Q 2431 1156 2273 1281 
Q 2116 1406 1581 1522 
L 1381 1569 
Q 847 1681 609 1914 
Q 372 2147 372 2553 
Q 372 3047 722 3315 
Q 1072 3584 1716 3584 
Q 2034 3584 2315 3537 
Q 2597 3491 2834 3397 
z
" id="DejaVuSans-15b" transform="scale(0.015625)"/>
       <path d="M 3122 3366 
L 3122 2828 
Q 2878 2963 2633 3030 
Q 2388 3097 2138 3097 
Q 1578 3097 1268 2742 
Q 959 2388 959 1747 
Q 959 1106 1268 751 
Q 1578 397 2138 397 
Q 2388 397 2633 464 
Q 2878 531 3122 666 
L 3122 134 
Q 2881 22 2623 -34 
Q 2366 -91 2075 -91 
Q 1284 -91 818 406 
Q 353 903 353 1747 
Q 353 2603 823 3093 
Q 1294 3584 2113 3584 
Q 2378 3584 2631 3529 
Q 2884 3475 3122 3366 
z
M 2466 5119 
L 3088 5119 
L 2070 3944 
L 1591 3944 
L 2466 5119 
z
" id="DejaVuSans-107" transform="scale(0.015625)"/>
       <path d="M 2375 4863 
L 2375 4384 
L 1825 4384 
Q 1516 4384 1395 4259 
Q 1275 4134 1275 3809 
L 1275 3500 
L 2222 3500 
L 2222 3053 
L 1275 3053 
L 1275 0 
L 697 0 
L 697 3053 
L 147 3053 
L 147 3500 
L 697 3500 
L 697 3744 
Q 697 4328 969 4595 
Q 1241 4863 1831 4863 
L 2375 4863 
z
" id="DejaVuSans-66" transform="scale(0.015625)"/>
       <path d="M 581 4863 
L 1159 4863 
L 1159 1991 
L 2875 3500 
L 3609 3500 
L 1753 1863 
L 3688 0 
L 2938 0 
L 1159 1709 
L 1159 0 
L 581 0 
L 581 4863 
z
" id="DejaVuSans-6b" transform="scale(0.015625)"/>
       <path d="M 2906 1791 
Q 2906 2416 2648 2759 
Q 2391 3103 1925 3103 
Q 1463 3103 1205 2759 
Q 947 2416 947 1791 
Q 947 1169 1205 825 
Q 1463 481 1925 481 
Q 2391 481 2648 825 
Q 2906 1169 2906 1791 
z
M 3481 434 
Q 3481 -459 3084 -895 
Q 2688 -1331 1869 -1331 
Q 1566 -1331 1297 -1286 
Q 1028 -1241 775 -1147 
L 775 -588 
Q 1028 -725 1275 -790 
Q 1522 -856 1778 -856 
Q 2344 -856 2625 -561 
Q 2906 -266 2906 331 
L 2906 616 
Q 2728 306 2450 153 
Q 2172 0 1784 0 
Q 1141 0 747 490 
Q 353 981 353 1791 
Q 353 2603 747 3093 
Q 1141 3584 1784 3584 
Q 2172 3584 2450 3431 
Q 2728 3278 2906 2969 
L 2906 3500 
L 3481 3500 
L 3481 434 
z
" id="DejaVuSans-67" transform="scale(0.015625)"/>
       <path d="M 2059 -325 
Q 1816 -950 1584 -1140 
Q 1353 -1331 966 -1331 
L 506 -1331 
L 506 -850 
L 844 -850 
Q 1081 -850 1212 -737 
Q 1344 -625 1503 -206 
L 1606 56 
L 191 3500 
L 800 3500 
L 1894 763 
L 2988 3500 
L 3597 3500 
L 2059 -325 
z
" id="DejaVuSans-79" transform="scale(0.015625)"/>
      </defs>
      <use xlink:href="#DejaVuSans-77"/>
      <use x="81.787109" xlink:href="#DejaVuSans-61"/>
      <use x="143.066406" xlink:href="#DejaVuSans-72"/>
      <use x="184.179688" xlink:href="#DejaVuSans-74"/>
      <use x="223.388672" xlink:href="#DejaVuSans-6f"/>
      <use x="284.570312" xlink:href="#DejaVuSans-15b"/>
      <use x="336.669922" xlink:href="#DejaVuSans-107"/>
      <use x="391.650391" xlink:href="#DejaVuSans-20"/>
      <use x="423.4375" xlink:href="#DejaVuSans-66"/>
      <use x="458.642578" xlink:href="#DejaVuSans-75"/>
      <use x="522.021484" xlink:href="#DejaVuSans-6e"/>
      <use x="585.400391" xlink:href="#DejaVuSans-6b"/>
      <use x="643.310547" xlink:href="#DejaVuSans-63"/>
      <use x="698.291016" xlink:href="#DejaVuSans-6a"/>
      <use x="726.074219" xlink:href="#DejaVuSans-69"/>
      <use x="753.857422" xlink:href="#DejaVuSans-20"/>
      <use x="785.644531" xlink:href="#DejaVuSans-6e"/>
      <use x="849.023438" xlink:href="#DejaVuSans-61"/>
      <use x="910.302734" xlink:href="#DejaVuSans-67"/>
      <use x="973.779297" xlink:href="#DejaVuSans-72"/>
      <use x="1012.642578" xlink:href="#DejaVuSans-6f"/>
      <use x="1073.824219" xlink:href="#DejaVuSans-64"/>
      <use x="1137.300781" xlink:href="#DejaVuSans-79"/>
     </g>
    </g>
   </g>
   <g id="line2d_15">
    <path clip-path="url(#p30d9b8e362)" d="M 115.363636 265.038066 
L 121.453345 266.618882 
L 125.513151 267.438329 
L 129.166976 267.952033 
L 132.820801 268.233524 
L 136.474626 268.281154 
L 140.128451 268.106319 
L 141.346393 268.0024 
L 141.549383 267.524478 
L 141.752374 262.982235 
L 142.158354 262.520749 
L 142.564335 262.489284 
L 143.173306 262.689511 
L 143.985267 263.21324 
L 144.797228 264.032238 
L 145.203209 264.690695 
L 145.406199 265.279619 
L 146.01517 259.484834 
L 146.42115 259.302817 
L 147.030121 259.423648 
L 147.842082 259.905956 
L 148.654043 260.688647 
L 149.060024 261.269729 
L 149.263014 261.680047 
L 149.466005 262.354012 
L 150.074975 258.016098 
L 150.480956 257.843164 
L 151.089927 257.968344 
L 151.901888 258.452312 
L 152.713849 259.23298 
L 153.11983 259.811361 
L 153.32282 260.221649 
L 153.52581 260.91307 
L 153.728801 259.992499 
L 153.931791 258.378385 
L 154.337771 258.002628 
L 154.743752 257.995885 
L 155.555713 258.303537 
L 156.367674 258.905575 
L 156.976645 259.61974 
L 157.382626 260.395204 
L 157.585616 261.140531 
L 157.788606 259.556386 
L 157.991597 257.062121 
L 158.397577 256.530086 
L 158.803558 256.474454 
L 159.412529 256.689819 
L 160.0215 257.125587 
L 160.63047 257.769433 
L 161.036451 258.364389 
L 161.848412 255.940673 
L 162.051402 252.283327 
L 162.457383 251.559185 
L 162.863364 251.458256 
L 163.472334 247.650534 
L 164.081305 242.421044 
L 164.690276 234.813982 
L 165.096257 227.215839 
L 165.502237 215.436535 
L 165.908218 193.274522 
L 166.111208 170.331811 
L 166.314198 101.878414 
L 166.517189 111.087215 
L 166.720179 186.523339 
L 167.12616 224.157146 
L 167.53214 240.274659 
L 167.73513 243.579011 
L 168.344101 244.222325 
L 168.953072 245.188005 
L 169.359053 246.142627 
L 169.562043 246.836485 
L 169.765033 247.984109 
L 170.171014 233.51073 
L 170.374004 232.737729 
L 170.779985 232.252934 
L 171.185965 232.234719 
L 171.591946 232.445585 
L 172.200917 233.061757 
L 172.809888 234.02687 
L 173.215868 234.946771 
L 173.621849 236.366825 
L 173.824839 237.717903 
L 174.23082 221.264406 
L 174.43381 220.364842 
L 174.83979 219.788056 
L 175.245771 219.748764 
L 175.651752 219.973292 
L 176.260722 220.655543 
L 176.869693 221.740443 
L 177.275674 222.783681 
L 177.681654 224.408216 
L 177.884645 225.971455 
L 178.493616 207.980399 
L 178.899596 207.321236 
L 179.305577 207.262699 
L 179.711557 207.499527 
L 180.320528 208.242153 
L 180.929499 209.437433 
L 181.33548 210.595279 
L 181.74146 212.412618 
L 181.944451 214.183149 
L 182.553421 196.685696 
L 182.959402 195.956555 
L 183.365383 195.881233 
L 183.771363 196.128579 
L 184.380334 196.923855 
L 184.989305 198.216413 
L 185.395285 199.47629 
L 185.801266 201.468263 
L 186.004256 203.4346 
L 186.613227 186.961538 
L 187.019208 186.173939 
L 187.425188 186.084149 
L 187.831169 186.340334 
L 188.237149 186.844655 
L 188.84612 188.030538 
L 189.455091 189.907761 
L 189.861072 192.055821 
L 190.064062 194.20415 
L 190.673033 178.76253 
L 191.079013 177.924759 
L 191.484994 177.822188 
L 191.890975 178.085929 
L 192.296955 178.613129 
L 192.905926 179.861082 
L 193.514897 181.847626 
L 193.920877 184.135513 
L 194.123868 186.450029 
L 194.732839 171.700932 
L 195.138819 170.817 
L 195.5448 170.702512 
L 195.95078 170.973022 
L 196.356761 171.521067 
L 196.965732 172.825731 
L 197.574703 174.91199 
L 197.980683 177.326516 
L 198.183673 179.789433 
L 198.792644 165.248509 
L 199.198625 164.318734 
L 199.604605 164.1925 
L 200.010586 164.469439 
L 200.416567 165.037431 
L 201.025537 166.396135 
L 201.634508 168.576519 
L 202.040489 171.108395 
L 202.243479 173.703305 
L 202.446469 168.45636 
L 202.64946 160.311217 
L 203.05544 158.264088 
L 203.461421 157.801722 
L 203.867402 157.898279 
L 204.273382 158.341299 
L 204.882353 159.536523 
L 205.491324 161.462489 
L 205.897304 163.471465 
L 206.100295 164.999923 
L 206.303285 167.71613 
L 206.506275 162.27017 
L 206.709266 153.795718 
L 207.115246 151.650555 
L 207.521227 151.161086 
L 207.927207 151.255811 
L 208.333188 151.712698 
L 208.739168 152.465996 
L 209.348139 154.181122 
L 209.75412 155.886713 
L 210.1601 158.644684 
L 210.363091 161.478808 
L 210.566081 155.729845 
L 210.769071 146.81592 
L 211.175052 144.565696 
L 211.581032 144.047752 
L 211.784023 144.038414 
L 212.190003 144.335359 
L 212.595984 144.965012 
L 213.204955 146.488923 
L 213.610935 147.983797 
L 214.016916 150.16528 
L 214.219906 151.827598 
L 214.422896 154.78281 
L 215.031867 137.687203 
L 215.437848 136.550701 
L 215.640838 136.386237 
L 215.843828 136.373405 
L 216.249809 136.677652 
L 216.65579 137.329628 
L 217.26476 138.913128 
L 217.670741 140.469296 
L 218.076722 142.742976 
L 218.279712 144.477055 
L 218.482702 147.561521 
L 219.091673 129.623952 
L 219.497654 128.430284 
L 219.700644 128.255422 
L 219.903634 128.238992 
L 220.309615 128.550818 
L 220.715595 129.225948 
L 221.324566 130.871402 
L 221.730547 132.491518 
L 222.136527 134.861963 
L 222.339518 136.672131 
L 222.542508 139.897388 
L 223.151479 121.327402 
L 223.557459 120.076578 
L 223.76045 119.891234 
L 223.96344 119.871168 
L 224.36942 120.190689 
L 224.775401 120.889395 
L 225.384372 122.598216 
L 225.790353 124.284123 
L 226.196333 126.755053 
L 226.399323 128.645446 
L 226.602314 132.025028 
L 226.805304 125.385729 
L 227.008294 114.997414 
L 227.414275 112.308274 
L 227.820255 111.669144 
L 228.023246 111.645496 
L 228.429226 111.972597 
L 228.835207 112.694682 
L 229.444178 114.466779 
L 229.850158 116.21894 
L 230.256139 118.792367 
L 230.459129 120.766299 
L 230.662119 124.314879 
L 230.86511 117.856927 
L 231.0681 107.507718 
L 231.474081 104.725841 
L 231.880061 104.05863 
L 232.083051 104.031568 
L 232.489032 104.36586 
L 232.895013 105.110372 
L 233.503983 106.943801 
L 233.909964 108.760937 
L 234.315945 111.436659 
L 234.518935 113.496264 
L 234.721925 117.229597 
L 234.924915 111.183106 
L 235.127906 101.106961 
L 235.533886 98.249636 
L 235.939867 97.557444 
L 236.142857 97.527253 
L 236.548838 97.868064 
L 236.954818 98.633265 
L 237.563789 100.524128 
L 237.96977 102.403127 
L 238.37575 105.178607 
L 238.578741 107.32485 
L 238.781731 111.26078 
L 238.984721 105.839224 
L 239.187711 96.250389 
L 239.593692 93.339802 
L 239.999673 92.626846 
L 240.202663 92.59393 
L 240.608643 92.94032 
L 241.014624 93.723725 
L 241.420605 94.909425 
L 242.029575 97.602316 
L 242.435556 100.472942 
L 242.638546 102.705959 
L 242.841537 106.866839 
L 243.044527 102.246372 
L 243.247517 93.315755 
L 243.653498 90.37834 
L 244.059478 89.649859 
L 244.262469 89.614729 
L 244.668449 89.96552 
L 245.07443 90.763972 
L 245.48041 91.975859 
L 246.089381 94.737595 
L 246.495362 97.697141 
L 246.698352 100.01688 
L 246.901342 104.43408 
L 247.104333 100.748946 
L 247.307323 92.595823 
L 247.713304 89.661789 
L 248.119284 88.924002 
L 248.322274 88.887273 
L 248.728255 89.24106 
L 249.134236 90.050765 
L 249.540216 91.283275 
L 249.946197 93.001439 
L 250.352177 95.440503 
L 250.758158 99.551194 
L 250.961148 104.273595 
L 251.164138 101.628161 
L 251.367129 94.325614 
L 251.773109 91.429082 
L 252.17909 90.689295 
L 252.38208 90.651699 
L 252.788061 91.006825 
L 253.194041 91.823281 
L 253.600022 93.06981 
L 254.006002 94.813242 
L 254.411983 97.300484 
L 254.817964 101.546663 
L 255.020954 106.659007 
L 255.223944 105.157752 
L 255.426934 98.74755 
L 255.832915 95.927999 
L 256.238896 95.195051 
L 256.441886 95.157489 
L 256.644876 95.27104 
L 257.050857 95.866843 
L 257.456837 96.899642 
L 257.862818 98.388596 
L 258.268798 100.47629 
L 258.674779 103.656616 
L 258.877769 106.252341 
L 259.08076 111.925961 
L 259.28375 111.741578 
L 259.48674 106.258675 
L 259.892721 103.566053 
L 260.298701 102.85177 
L 260.501692 102.815459 
L 260.907672 103.166376 
L 261.313653 103.977597 
L 261.719633 105.224933 
L 262.125614 106.985234 
L 262.531594 109.53283 
L 262.937575 114.075896 
L 263.140565 120.78289 
L 263.343556 122.420537 
L 263.546546 117.972007 
L 263.952526 115.499369 
L 264.358507 114.827265 
L 264.561497 114.794617 
L 264.967478 115.135534 
L 265.373458 115.920909 
L 265.779439 117.129281 
L 266.18542 118.83779 
L 266.5914 121.322697 
L 266.997381 125.815942 
L 267.200371 132.962351 
L 267.403361 135.403791 
L 267.606352 131.413106 
L 268.012332 129.092494 
L 268.418313 128.457003 
L 268.621303 128.427973 
L 269.027284 128.758942 
L 269.433264 129.5173 
L 269.839245 130.683826 
L 270.245225 132.333916 
L 270.651206 134.735447 
L 271.057187 139.085328 
L 271.260177 146.078176 
L 271.463167 148.555364 
L 271.666157 144.747605 
L 272.072138 142.521205 
L 272.478119 141.912805 
L 272.681109 141.886617 
L 273.087089 142.209316 
L 273.49307 142.944301 
L 273.899051 144.072932 
L 274.305031 145.66719 
L 274.711012 147.982482 
L 275.116992 152.149402 
L 275.319983 158.610147 
L 275.522973 160.630458 
L 275.725963 156.829144 
L 276.131944 154.649754 
L 276.537924 154.058855 
L 276.740915 154.034587 
L 277.146895 154.350972 
L 277.552876 155.067599 
L 277.958856 156.165083 
L 278.364837 157.710838 
L 278.770817 159.945121 
L 279.176798 163.909325 
L 279.379788 169.60305 
L 279.582779 170.76211 
L 279.785769 166.741571 
L 280.191749 164.550182 
L 280.59773 163.963814 
L 280.80072 163.940089 
L 281.206701 164.252901 
L 281.612681 164.958614 
L 282.018662 166.035047 
L 282.424643 167.54206 
L 282.830623 169.694906 
L 283.236604 173.392841 
L 283.439594 178.004901 
L 283.642584 177.410141 
L 283.845575 172.466037 
L 284.251555 170.145955 
L 284.657536 169.545578 
L 284.860526 169.52082 
L 285.266507 169.831633 
L 285.672487 170.529427 
L 286.281458 172.262099 
L 286.687439 173.993326 
L 287.093419 176.572957 
L 287.296409 178.601421 
L 287.4994 182.529802 
L 287.70239 180.070096 
L 287.90538 173.69731 
L 288.311361 171.236735 
L 288.717341 170.61959 
L 288.920332 170.593325 
L 289.326312 170.904105 
L 289.732293 171.600899 
L 290.341264 173.32157 
L 290.747244 175.028322 
L 291.153225 177.542264 
L 291.356215 179.479907 
L 291.559206 183.016404 
L 291.762196 178.037613 
L 291.965186 169.257064 
L 292.371167 166.608914 
L 292.777147 165.96223 
L 292.980138 165.93294 
L 293.386118 166.247355 
L 293.792099 166.954447 
L 294.40107 168.694768 
L 294.80705 170.41165 
L 295.213031 172.917396 
L 295.416021 174.818126 
L 295.619011 178.138576 
L 296.227982 152.429417 
L 296.633963 151.008643 
L 296.836953 150.790419 
L 297.039943 150.755151 
L 297.445924 151.079875 
L 297.851904 151.817341 
L 298.460875 153.631249 
L 298.866856 155.414467 
L 299.272836 157.998862 
L 299.475827 159.934479 
L 299.678817 163.204177 
L 300.084798 106.768148 
L 300.490778 103.232166 
L 300.896759 102.399286 
L 301.099749 373.009195 
L 307.189458 374.590011 
L 311.249263 375.409458 
L 314.903089 375.923162 
L 318.556914 376.204653 
L 322.210739 376.252283 
L 325.864564 376.077448 
L 327.082506 375.973529 
L 327.285496 375.495607 
L 327.488486 370.953364 
L 327.894467 370.491878 
L 328.300447 370.460413 
L 328.909418 370.66064 
L 329.721379 371.184369 
L 330.533341 372.003367 
L 330.939321 372.661824 
L 331.142311 373.250748 
L 331.751282 367.455963 
L 332.157263 367.273946 
L 332.766234 367.394777 
L 333.578195 367.877085 
L 334.390156 368.659776 
L 334.796137 369.240858 
L 334.999127 369.651176 
L 335.202117 370.325141 
L 335.811088 365.987227 
L 336.217069 365.814293 
L 336.82604 365.939473 
L 337.638001 366.423441 
L 338.449962 367.204109 
L 338.855942 367.78249 
L 339.058933 368.192778 
L 339.261923 368.884199 
L 339.464913 367.963628 
L 339.667904 366.349514 
L 340.073884 365.973757 
L 340.479865 365.967014 
L 341.291826 366.274666 
L 342.103787 366.876704 
L 342.712758 367.590869 
L 343.118738 368.366333 
L 343.321729 369.11166 
L 343.524719 367.527515 
L 343.727709 365.03325 
L 344.13369 364.501215 
L 344.53967 364.445583 
L 345.148641 364.660947 
L 345.757612 365.096716 
L 346.366583 365.740562 
L 346.772564 366.335518 
L 347.584525 363.911802 
L 347.787515 360.254456 
L 348.193496 359.530314 
L 348.599476 359.429385 
L 349.208447 355.621663 
L 349.817418 350.392173 
L 350.426389 342.785111 
L 350.832369 335.186968 
L 351.23835 323.407664 
L 351.64433 301.245651 
L 351.847321 278.30294 
L 352.050311 209.849543 
L 352.253301 219.058344 
L 352.456292 294.494468 
L 352.862272 332.128275 
L 353.268253 348.245788 
L 353.471243 351.55014 
L 354.080214 352.193454 
L 354.689185 353.159134 
L 355.095165 354.113756 
L 355.298156 354.807614 
L 355.501146 355.955238 
L 355.907126 341.481859 
L 356.110117 340.708858 
L 356.516097 340.224063 
L 356.922078 340.205848 
L 357.328058 340.416714 
L 357.937029 341.032886 
L 358.546 341.997999 
L 358.951981 342.9179 
L 359.357961 344.337954 
L 359.560952 345.689032 
L 359.966932 329.235535 
L 360.169923 328.335971 
L 360.575903 327.759185 
L 360.981884 327.719893 
L 361.387864 327.944421 
L 361.996835 328.626672 
L 362.605806 329.711572 
L 363.011787 330.75481 
L 363.417767 332.379345 
L 363.620757 333.942584 
L 364.229728 315.951528 
L 364.635709 315.292365 
L 365.041689 315.233828 
L 365.44767 315.470656 
L 366.056641 316.213282 
L 366.665612 317.408562 
L 367.071592 318.566408 
L 367.477573 320.383747 
L 367.680563 322.154278 
L 368.289534 304.656825 
L 368.695515 303.927684 
L 369.101495 303.852362 
L 369.507476 304.099708 
L 370.116447 304.894984 
L 370.725417 306.187542 
L 371.131398 307.447419 
L 371.537379 309.439392 
L 371.740369 311.405729 
L 372.34934 294.932667 
L 372.75532 294.145068 
L 373.161301 294.055277 
L 373.567281 294.311462 
L 373.973262 294.815784 
L 374.582233 296.001667 
L 375.191204 297.87889 
L 375.597184 300.02695 
L 375.800175 302.175279 
L 376.409145 286.733659 
L 376.815126 285.895888 
L 377.221107 285.793316 
L 377.627087 286.057058 
L 378.033068 286.584258 
L 378.642039 287.832211 
L 379.251009 289.818755 
L 379.65699 292.106642 
L 379.85998 294.421158 
L 380.468951 279.672061 
L 380.874932 278.788129 
L 381.280912 278.673641 
L 381.686893 278.944151 
L 382.092874 279.492196 
L 382.701844 280.79686 
L 383.310815 282.883119 
L 383.716796 285.297645 
L 383.919786 287.760562 
L 384.528757 273.219638 
L 384.934738 272.289863 
L 385.340718 272.163629 
L 385.746699 272.440568 
L 386.152679 273.00856 
L 386.76165 274.367264 
L 387.370621 276.547648 
L 387.776602 279.079524 
L 387.979592 281.674434 
L 388.182582 276.427489 
L 388.385572 268.282346 
L 388.791553 266.235217 
L 389.197534 265.772851 
L 389.603514 265.869408 
L 390.009495 266.312428 
L 390.618466 267.507652 
L 391.227436 269.433618 
L 391.633417 271.442594 
L 391.836407 272.971052 
L 392.039398 275.687259 
L 392.242388 270.241299 
L 392.445378 261.766847 
L 392.851359 259.621684 
L 393.257339 259.132215 
L 393.66332 259.22694 
L 394.0693 259.683827 
L 394.475281 260.437124 
L 395.084252 262.152251 
L 395.490232 263.857841 
L 395.896213 266.615813 
L 396.099203 269.449937 
L 396.302194 263.700974 
L 396.505184 254.787049 
L 396.911164 252.536825 
L 397.317145 252.018881 
L 397.520135 252.009543 
L 397.926116 252.306488 
L 398.332096 252.936141 
L 398.941067 254.460052 
L 399.347048 255.954926 
L 399.753028 258.136409 
L 399.956019 259.798727 
L 400.159009 262.753939 
L 400.76798 245.658332 
L 401.17396 244.52183 
L 401.376951 244.357366 
L 401.579941 244.344534 
L 401.985922 244.648781 
L 402.391902 245.300757 
L 403.000873 246.884257 
L 403.406854 248.440425 
L 403.812834 250.714105 
L 404.015825 252.448184 
L 404.218815 255.53265 
L 404.827786 237.595081 
L 405.233766 236.401413 
L 405.436757 236.226551 
L 405.639747 236.210121 
L 406.045727 236.521947 
L 406.451708 237.197077 
L 407.060679 238.842531 
L 407.466659 240.462647 
L 407.87264 242.833092 
L 408.07563 244.64326 
L 408.278621 247.868517 
L 408.887591 229.298531 
L 409.293572 228.047707 
L 409.496562 227.862363 
L 409.699553 227.842297 
L 410.105533 228.161818 
L 410.511514 228.860524 
L 411.120485 230.569345 
L 411.526465 232.255252 
L 411.932446 234.726182 
L 412.135436 236.616575 
L 412.338426 239.996157 
L 412.541417 233.356858 
L 412.744407 222.968543 
L 413.150387 220.279403 
L 413.556368 219.640273 
L 413.759358 219.616625 
L 414.165339 219.943726 
L 414.571319 220.665811 
L 415.18029 222.437908 
L 415.586271 224.190069 
L 415.992251 226.763496 
L 416.195242 228.737428 
L 416.398232 232.286008 
L 416.601222 225.828056 
L 416.804213 215.478847 
L 417.210193 212.69697 
L 417.616174 212.029759 
L 417.819164 212.002697 
L 418.225145 212.336989 
L 418.631125 213.0815 
L 419.240096 214.91493 
L 419.646077 216.732066 
L 420.052057 219.407787 
L 420.255047 221.467393 
L 420.458038 225.200726 
L 420.661028 219.154235 
L 420.864018 209.07809 
L 421.269999 206.220765 
L 421.675979 205.528573 
L 421.87897 205.498382 
L 422.28495 205.839193 
L 422.690931 206.604394 
L 423.299902 208.495257 
L 423.705882 210.374256 
L 424.111863 213.149736 
L 424.314853 215.295979 
L 424.517844 219.231908 
L 424.720834 213.810353 
L 424.923824 204.221518 
L 425.329805 201.310931 
L 425.735785 200.597975 
L 425.938776 200.565059 
L 426.344756 200.911449 
L 426.750737 201.694854 
L 427.156717 202.880554 
L 427.765688 205.573445 
L 428.171669 208.444071 
L 428.374659 210.677088 
L 428.577649 214.837968 
L 428.78064 210.217501 
L 428.98363 201.286884 
L 429.38961 198.349469 
L 429.795591 197.620988 
L 429.998581 197.585857 
L 430.404562 197.936649 
L 430.810542 198.735101 
L 431.216523 199.946988 
L 431.825494 202.708724 
L 432.231474 205.66827 
L 432.434465 207.988009 
L 432.637455 212.405209 
L 432.840445 208.720075 
L 433.043436 200.566952 
L 433.449416 197.632918 
L 433.855397 196.895131 
L 434.058387 196.858402 
L 434.464368 197.212189 
L 434.870348 198.021894 
L 435.276329 199.254404 
L 435.682309 200.972568 
L 436.08829 203.411632 
L 436.49427 207.522323 
L 436.697261 212.244724 
L 436.900251 209.59929 
L 437.103241 202.296743 
L 437.509222 199.400211 
L 437.915202 198.660424 
L 438.118193 198.622828 
L 438.524173 198.977954 
L 438.930154 199.79441 
L 439.336134 201.040939 
L 439.742115 202.784371 
L 440.148096 205.271613 
L 440.554076 209.517792 
L 440.757066 214.630136 
L 440.960057 213.128881 
L 441.163047 206.718679 
L 441.569028 203.899128 
L 441.975008 203.16618 
L 442.177998 203.128618 
L 442.380989 203.242169 
L 442.786969 203.837972 
L 443.19295 204.870771 
L 443.59893 206.359725 
L 444.004911 208.447419 
L 444.410892 211.627745 
L 444.613882 214.223469 
L 444.816872 219.89709 
L 445.019862 219.712707 
L 445.222853 214.229804 
L 445.628833 211.537182 
L 446.034814 210.822899 
L 446.237804 210.786588 
L 446.643785 211.137505 
L 447.049765 211.948726 
L 447.455746 213.196062 
L 447.861727 214.956363 
L 448.267707 217.503959 
L 448.673688 222.047025 
L 448.876678 228.754019 
L 449.079668 230.391666 
L 449.282659 225.943136 
L 449.688639 223.470498 
L 450.09462 222.798393 
L 450.29761 222.765746 
L 450.703591 223.106663 
L 451.109571 223.892038 
L 451.515552 225.10041 
L 451.921532 226.808919 
L 452.327513 229.293826 
L 452.733493 233.787071 
L 452.936484 240.93348 
L 453.139474 243.37492 
L 453.342464 239.384235 
L 453.748445 237.063623 
L 454.154425 236.428132 
L 454.357416 236.399102 
L 454.763396 236.730071 
L 455.169377 237.488429 
L 455.575357 238.654955 
L 455.981338 240.305045 
L 456.387319 242.706576 
L 456.793299 247.056457 
L 456.996289 254.049305 
L 457.19928 256.526493 
L 457.40227 252.718734 
L 457.808251 250.492334 
L 458.214231 249.883934 
L 458.417221 249.857746 
L 458.823202 250.180445 
L 459.229183 250.91543 
L 459.635163 252.044061 
L 460.041144 253.638319 
L 460.447124 255.953611 
L 460.853105 260.120531 
L 461.056095 266.581276 
L 461.259085 268.601587 
L 461.462076 264.800273 
L 461.868056 262.620883 
L 462.274037 262.029984 
L 462.477027 262.005716 
L 462.883008 262.322101 
L 463.288988 263.038728 
L 463.694969 264.136212 
L 464.100949 265.681967 
L 464.50693 267.91625 
L 464.912911 271.880454 
L 465.115901 277.574179 
L 465.318891 278.733239 
L 465.521881 274.7127 
L 465.927862 272.521311 
L 466.333843 271.934943 
L 466.536833 271.911218 
L 466.942813 272.22403 
L 467.348794 272.929743 
L 467.754775 274.006176 
L 468.160755 275.513189 
L 468.566736 277.666035 
L 468.972716 281.36397 
L 469.175707 285.97603 
L 469.378697 285.38127 
L 469.581687 280.437166 
L 469.987668 278.117084 
L 470.393648 277.516706 
L 470.596639 277.491949 
L 471.002619 277.802762 
L 471.4086 278.500556 
L 472.017571 280.233228 
L 472.423551 281.964455 
L 472.829532 284.544086 
L 473.032522 286.57255 
L 473.235512 290.500931 
L 473.438503 288.041225 
L 473.641493 281.668439 
L 474.047474 279.207864 
L 474.453454 278.590719 
L 474.656444 278.564454 
L 475.062425 278.875234 
L 475.468406 279.572028 
L 476.077376 281.292699 
L 476.483357 282.999451 
L 476.889338 285.513393 
L 477.092328 287.451036 
L 477.295318 290.987533 
L 477.498308 286.008741 
L 477.701299 277.228193 
L 478.107279 274.580043 
L 478.51326 273.933359 
L 478.71625 273.904069 
L 479.122231 274.218484 
L 479.528211 274.925576 
L 480.137182 276.665897 
L 480.543163 278.382779 
L 480.949143 280.888525 
L 481.152134 282.789255 
L 481.355124 286.109705 
L 481.964095 260.400546 
L 482.370075 258.979772 
L 482.573066 258.761548 
L 482.776056 258.726279 
L 483.182036 259.051004 
L 483.588017 259.78847 
L 484.196988 261.602378 
L 484.602968 263.385596 
L 485.008949 265.969991 
L 485.211939 267.905607 
L 485.41493 271.175305 
L 485.82091 214.739277 
L 486.226891 211.203295 
L 486.632871 210.370415 
L 486.835862 480.980324 
L 492.92557 482.56114 
L 496.985376 483.380587 
L 500.639201 483.894291 
L 504.293026 484.175782 
L 507.946851 484.223412 
L 511.600677 484.048577 
L 512.818618 483.944658 
L 513.021609 483.466735 
L 513.224599 478.924493 
L 513.63058 478.463007 
L 514.03656 478.431542 
L 514.645531 478.631769 
L 515.457492 479.155498 
L 516.269453 479.974496 
L 516.675434 480.632953 
L 516.878424 481.221877 
L 517.487395 475.427092 
L 517.893376 475.245075 
L 518.502346 475.365906 
L 519.314308 475.848214 
L 520.126269 476.630905 
L 520.532249 477.211986 
L 520.73524 477.622305 
L 520.93823 478.29627 
L 521.547201 473.958356 
L 521.953181 473.785422 
L 522.562152 473.910602 
L 523.374113 474.39457 
L 524.186074 475.175238 
L 524.592055 475.753619 
L 524.795045 476.163907 
L 524.998036 476.855328 
L 525.201026 475.934757 
L 525.404016 474.320643 
L 525.809997 473.944886 
L 526.215977 473.938143 
L 527.027938 474.245795 
L 527.8399 474.847833 
L 528.44887 475.561998 
L 528.854851 476.337462 
L 529.057841 477.082789 
L 529.260832 475.498644 
L 529.463822 473.004379 
L 529.869802 472.472344 
L 530.275783 472.416712 
L 530.884754 472.632076 
L 531.493725 473.067845 
L 532.102696 473.711691 
L 532.508676 474.306646 
L 533.320637 471.882931 
L 533.523628 468.225585 
L 533.929608 467.501443 
L 534.335589 467.400514 
L 534.94456 463.592792 
L 535.553531 458.363302 
L 536.162501 450.75624 
L 536.568482 443.158097 
L 536.974463 431.378793 
L 537.380443 409.21678 
L 537.583433 386.274068 
L 537.786424 317.820672 
L 537.989414 327.029473 
L 538.192404 402.465597 
L 538.598385 440.099404 
L 539.004365 456.216917 
L 539.207356 459.521269 
L 539.816327 460.164583 
L 540.425297 461.130263 
L 540.831278 462.084885 
L 541.034268 462.778743 
L 541.237259 463.926367 
L 541.643239 449.452988 
L 541.846229 448.679987 
L 542.25221 448.195192 
L 542.658191 448.176977 
L 543.064171 448.387843 
L 543.673142 449.004015 
L 544.282113 449.969128 
L 544.688093 450.889029 
L 545.094074 452.309083 
L 545.297064 453.660161 
L 545.703045 437.206664 
L 545.906035 436.3071 
L 546.312016 435.730314 
L 546.717996 435.691022 
L 547.123977 435.91555 
L 547.732948 436.597801 
L 548.341919 437.682701 
L 548.747899 438.725939 
L 549.15388 440.350474 
L 549.35687 441.913713 
L 549.965841 423.922657 
L 550.371821 423.263494 
L 550.777802 423.204957 
L 551.183783 423.441785 
L 551.792753 424.184411 
L 552.401724 425.379691 
L 552.807705 426.537537 
L 553.213685 428.354876 
L 553.416676 430.125407 
L 554.025647 412.627953 
L 554.431627 411.898813 
L 554.837608 411.823491 
L 555.243588 412.070837 
L 555.852559 412.866113 
L 556.46153 414.158671 
L 556.867511 415.418548 
L 557.273491 417.410521 
L 557.476482 419.376858 
L 558.085452 402.903796 
L 558.491433 402.116197 
L 558.897414 402.026406 
L 559.303394 402.282591 
L 559.709375 402.786913 
L 560.318346 403.972796 
L 560.927316 405.850019 
L 561.333297 407.998079 
L 561.536287 410.146407 
L 562.145258 394.704788 
L 562.551239 393.867017 
L 562.957219 393.764445 
L 563.3632 394.028187 
L 563.76918 394.555387 
L 564.378151 395.80334 
L 564.987122 397.789884 
L 565.393103 400.077771 
L 565.596093 402.392287 
L 566.205064 387.64319 
L 566.611044 386.759258 
L 567.017025 386.64477 
L 567.423006 386.91528 
L 567.828986 387.463325 
L 568.437957 388.767989 
L 569.046928 390.854248 
L 569.452908 393.268774 
L 569.655899 395.731691 
L 570.26487 381.190767 
L 570.67085 380.260992 
L 571.076831 380.134758 
L 571.482811 380.411697 
L 571.888792 380.979689 
L 572.497763 382.338393 
L 573.106734 384.518777 
L 573.512714 387.050653 
L 573.715704 389.645563 
L 573.918695 384.398618 
L 574.121685 376.253475 
L 574.527666 374.206346 
L 574.933646 373.74398 
L 575.339627 373.840537 
L 575.745607 374.283557 
L 576.354578 375.478781 
L 576.963549 377.404747 
L 577.36953 379.413723 
L 577.57252 380.942181 
L 577.77551 383.658388 
L 577.9785 378.212428 
L 578.181491 369.737975 
L 578.587471 367.592813 
L 578.993452 367.103344 
L 579.399433 367.198069 
L 579.805413 367.654956 
L 580.211394 368.408253 
L 580.820365 370.12338 
L 581.226345 371.82897 
L 581.632326 374.586942 
L 581.835316 377.421066 
L 582.038306 371.672103 
L 582.241297 362.758178 
L 582.647277 360.507954 
L 583.053258 359.99001 
L 583.256248 359.980672 
L 583.662229 360.277617 
L 584.068209 360.90727 
L 584.67718 362.431181 
L 585.083161 363.926055 
L 585.489141 366.107538 
L 585.692131 367.769856 
L 585.895122 370.725068 
L 586.504093 353.629461 
L 586.910073 352.492959 
L 587.113063 352.328495 
L 587.316054 352.315663 
L 587.722034 352.61991 
L 588.128015 353.271885 
L 588.736986 354.855386 
L 589.142966 356.411554 
L 589.548947 358.685234 
L 589.751937 360.419313 
L 589.954927 363.503779 
L 590.563898 345.56621 
L 590.969879 344.372542 
L 591.172869 344.19768 
L 591.375859 344.18125 
L 591.78184 344.493076 
L 592.187821 345.168206 
L 592.796791 346.81366 
L 593.202772 348.433776 
L 593.608753 350.804221 
L 593.811743 352.614389 
L 594.014733 355.839646 
L 594.623704 337.26966 
L 595.029685 336.018836 
L 595.232675 335.833492 
L 595.435665 335.813426 
L 595.841646 336.132946 
L 596.247626 336.831653 
L 596.856597 338.540474 
L 597.262578 340.226381 
L 597.668558 342.697311 
L 597.871549 344.587704 
L 598.074539 347.967286 
L 598.277529 341.327987 
L 598.480519 330.939672 
L 598.8865 328.250532 
L 599.292481 327.611402 
L 599.495471 327.587754 
L 599.901451 327.914855 
L 600.307432 328.63694 
L 600.916403 330.409037 
L 601.322383 332.161198 
L 601.728364 334.734625 
L 601.931354 336.708557 
L 602.134345 340.257137 
L 602.337335 333.799185 
L 602.540325 323.449976 
L 602.946306 320.668099 
L 603.352286 320.000888 
L 603.555277 319.973826 
L 603.961257 320.308118 
L 604.367238 321.052629 
L 604.976209 322.886059 
L 605.382189 324.703195 
L 605.78817 327.378916 
L 605.99116 329.438522 
L 606.19415 333.171855 
L 606.397141 327.125364 
L 606.600131 317.049219 
L 607.006112 314.191894 
L 607.412092 313.499702 
L 607.615082 313.469511 
L 608.021063 313.810322 
L 608.427044 314.575523 
L 609.036014 316.466386 
L 609.441995 318.345385 
L 609.847976 321.120865 
L 610.050966 323.267108 
L 610.253956 327.203037 
L 610.456946 321.781482 
L 610.659937 312.192647 
L 611.065917 309.28206 
L 611.471898 308.569104 
L 611.674888 308.536188 
L 612.080869 308.882578 
L 612.486849 309.665983 
L 612.89283 310.851683 
L 613.501801 313.544574 
L 613.907781 316.4152 
L 614.110772 318.648217 
L 614.313762 322.809097 
L 614.516752 318.18863 
L 614.719742 309.258013 
L 615.125723 306.320598 
L 615.531704 305.592117 
L 615.734694 305.556986 
L 616.140674 305.907778 
L 616.546655 306.70623 
L 616.952636 307.918117 
L 617.561606 310.679853 
L 617.967587 313.639399 
L 618.170577 315.959138 
L 618.373568 320.376338 
L 618.576558 316.691204 
L 618.779548 308.538081 
L 619.185529 305.604047 
L 619.591509 304.86626 
L 619.7945 304.829531 
L 620.20048 305.183318 
L 620.606461 305.993023 
L 621.012441 307.225533 
L 621.418422 308.943697 
L 621.824402 311.382761 
L 622.230383 315.493452 
L 622.433373 320.215853 
L 622.636364 317.570419 
L 622.636364 317.570419 
" style="fill:none;stroke:#1f77b4;stroke-linecap:square;stroke-width:1.5;"/>
   </g>
   <g id="patch_3">
    <path d="M 90 504 
L 90 69.12 
" style="fill:none;stroke:#000000;stroke-linecap:square;stroke-linejoin:miter;stroke-width:0.8;"/>
   </g>
   <g id="patch_4">
    <path d="M 648 504 
L 648 69.12 
" style="fill:none;stroke:#000000;stroke-linecap:square;stroke-linejoin:miter;stroke-width:0.8;"/>
   </g>
   <g id="patch_5">
    <path d="M 90 504 
L 648 504 
" style="fill:none;stroke:#000000;stroke-linecap:square;stroke-linejoin:miter;stroke-width:0.8;"/>
   </g>
   <g id="patch_6">
    <path d="M 90 69.12 
L 648 69.12 
" style="fill:none;stroke:#000000;stroke-linecap:square;stroke-linejoin:miter;stroke-width:0.8;"/>
   </g>
  </g>
 </g>
 <defs>
  <clipPath id="p30d9b8e362">
   <rect height="434.88" width="558" x="90" y="69.12"/>
  </clipPath>
 </defs>
</svg>
