<?xml version="1.0" encoding="utf-8" standalone="no"?>
<!DOCTYPE svg PUBLIC "-//W3C//DTD SVG 1.1//EN"
  "http://www.w3.org/Graphics/SVG/1.1/DTD/svg11.dtd">
<svg height="576pt" version="1.1" viewBox="0 0 720 576" width="720pt" xmlns="http://www.w3.org/2000/svg" xmlns:xlink="http://www.w3.org/1999/xlink">
 <metadata>
  <rdf:RDF xmlns:cc="http://creativecommons.org/ns#" xmlns:dc="http://purl.org/dc/elements/1.1/" xmlns:rdf="http://www.w3.org/1999/02/22-rdf-syntax-ns#">
   <cc:Work>
    <dc:type rdf:resource="http://purl.org/dc/dcmitype/StillImage"/>
    <dc:date>2022-01-19T22:11:59.593822</dc:date>
    <dc:format>image/svg+xml</dc:format>
    <dc:creator>
     <cc:Agent>
      <dc:title>Matplotlib v3.4.3, https://matplotlib.org/</dc:title>
     </cc:Agent>
    </dc:creator>
   </cc:Work>
  </rdf:RDF>
 </metadata>
 <defs>
  <style type="text/css">*{stroke-linecap:butt;stroke-linejoin:round;}</style>
 </defs>
 <g id="figure_1">
  <g id="patch_1">
   <path d="M 0 576 
L 720 576 
L 720 0 
L 0 0 
z
" style="fill:none;"/>
  </g>
  <g id="axes_1">
   <g id="patch_2">
    <path d="M 90 504 
L 648 504 
L 648 69.12 
L 90 69.12 
z
" style="fill:#ffffff;"/>
   </g>
   <g id="matplotlib.axis_1">
    <g id="xtick_1">
     <g id="line2d_1">
      <defs>
       <path d="M 0 0 
L 0 3.5 
" id="m49bff8a859" style="stroke:#000000;stroke-width:0.8;"/>
      </defs>
      <g>
       <use style="stroke:#000000;stroke-width:0.8;" x="115.363636" xlink:href="#m49bff8a859" y="504"/>
      </g>
     </g>
     <g id="text_1">
      <!-- 0 -->
      <g transform="translate(108.364886 527.716563)scale(0.22 -0.22)">
       <defs>
        <path d="M 2034 4250 
Q 1547 4250 1301 3770 
Q 1056 3291 1056 2328 
Q 1056 1369 1301 889 
Q 1547 409 2034 409 
Q 2525 409 2770 889 
Q 3016 1369 3016 2328 
Q 3016 3291 2770 3770 
Q 2525 4250 2034 4250 
z
M 2034 4750 
Q 2819 4750 3233 4129 
Q 3647 3509 3647 2328 
Q 3647 1150 3233 529 
Q 2819 -91 2034 -91 
Q 1250 -91 836 529 
Q 422 1150 422 2328 
Q 422 3509 836 4129 
Q 1250 4750 2034 4750 
z
" id="DejaVuSans-30" transform="scale(0.015625)"/>
       </defs>
       <use xlink:href="#DejaVuSans-30"/>
      </g>
     </g>
    </g>
    <g id="xtick_2">
     <g id="line2d_2">
      <g>
       <use style="stroke:#000000;stroke-width:0.8;" x="216.85878" xlink:href="#m49bff8a859" y="504"/>
      </g>
     </g>
     <g id="text_2">
      <!-- 500 -->
      <g transform="translate(195.86253 527.716563)scale(0.22 -0.22)">
       <defs>
        <path d="M 691 4666 
L 3169 4666 
L 3169 4134 
L 1269 4134 
L 1269 2991 
Q 1406 3038 1543 3061 
Q 1681 3084 1819 3084 
Q 2600 3084 3056 2656 
Q 3513 2228 3513 1497 
Q 3513 744 3044 326 
Q 2575 -91 1722 -91 
Q 1428 -91 1123 -41 
Q 819 9 494 109 
L 494 744 
Q 775 591 1075 516 
Q 1375 441 1709 441 
Q 2250 441 2565 725 
Q 2881 1009 2881 1497 
Q 2881 1984 2565 2268 
Q 2250 2553 1709 2553 
Q 1456 2553 1204 2497 
Q 953 2441 691 2322 
L 691 4666 
z
" id="DejaVuSans-35" transform="scale(0.015625)"/>
       </defs>
       <use xlink:href="#DejaVuSans-35"/>
       <use x="63.623047" xlink:href="#DejaVuSans-30"/>
       <use x="127.246094" xlink:href="#DejaVuSans-30"/>
      </g>
     </g>
    </g>
    <g id="xtick_3">
     <g id="line2d_3">
      <g>
       <use style="stroke:#000000;stroke-width:0.8;" x="318.353923" xlink:href="#m49bff8a859" y="504"/>
      </g>
     </g>
     <g id="text_3">
      <!-- 1000 -->
      <g transform="translate(290.358923 527.716563)scale(0.22 -0.22)">
       <defs>
        <path d="M 794 531 
L 1825 531 
L 1825 4091 
L 703 3866 
L 703 4441 
L 1819 4666 
L 2450 4666 
L 2450 531 
L 3481 531 
L 3481 0 
L 794 0 
L 794 531 
z
" id="DejaVuSans-31" transform="scale(0.015625)"/>
       </defs>
       <use xlink:href="#DejaVuSans-31"/>
       <use x="63.623047" xlink:href="#DejaVuSans-30"/>
       <use x="127.246094" xlink:href="#DejaVuSans-30"/>
       <use x="190.869141" xlink:href="#DejaVuSans-30"/>
      </g>
     </g>
    </g>
    <g id="xtick_4">
     <g id="line2d_4">
      <g>
       <use style="stroke:#000000;stroke-width:0.8;" x="419.849067" xlink:href="#m49bff8a859" y="504"/>
      </g>
     </g>
     <g id="text_4">
      <!-- 1500 -->
      <g transform="translate(391.854067 527.716563)scale(0.22 -0.22)">
       <use xlink:href="#DejaVuSans-31"/>
       <use x="63.623047" xlink:href="#DejaVuSans-35"/>
       <use x="127.246094" xlink:href="#DejaVuSans-30"/>
       <use x="190.869141" xlink:href="#DejaVuSans-30"/>
      </g>
     </g>
    </g>
    <g id="xtick_5">
     <g id="line2d_5">
      <g>
       <use style="stroke:#000000;stroke-width:0.8;" x="521.34421" xlink:href="#m49bff8a859" y="504"/>
      </g>
     </g>
     <g id="text_5">
      <!-- 2000 -->
      <g transform="translate(493.34921 527.716563)scale(0.22 -0.22)">
       <defs>
        <path d="M 1228 531 
L 3431 531 
L 3431 0 
L 469 0 
L 469 531 
Q 828 903 1448 1529 
Q 2069 2156 2228 2338 
Q 2531 2678 2651 2914 
Q 2772 3150 2772 3378 
Q 2772 3750 2511 3984 
Q 2250 4219 1831 4219 
Q 1534 4219 1204 4116 
Q 875 4013 500 3803 
L 500 4441 
Q 881 4594 1212 4672 
Q 1544 4750 1819 4750 
Q 2544 4750 2975 4387 
Q 3406 4025 3406 3419 
Q 3406 3131 3298 2873 
Q 3191 2616 2906 2266 
Q 2828 2175 2409 1742 
Q 1991 1309 1228 531 
z
" id="DejaVuSans-32" transform="scale(0.015625)"/>
       </defs>
       <use xlink:href="#DejaVuSans-32"/>
       <use x="63.623047" xlink:href="#DejaVuSans-30"/>
       <use x="127.246094" xlink:href="#DejaVuSans-30"/>
       <use x="190.869141" xlink:href="#DejaVuSans-30"/>
      </g>
     </g>
    </g>
    <g id="xtick_6">
     <g id="line2d_6">
      <g>
       <use style="stroke:#000000;stroke-width:0.8;" x="622.839354" xlink:href="#m49bff8a859" y="504"/>
      </g>
     </g>
     <g id="text_6">
      <!-- 2500 -->
      <g transform="translate(594.844354 527.716563)scale(0.22 -0.22)">
       <use xlink:href="#DejaVuSans-32"/>
       <use x="63.623047" xlink:href="#DejaVuSans-35"/>
       <use x="127.246094" xlink:href="#DejaVuSans-30"/>
       <use x="190.869141" xlink:href="#DejaVuSans-30"/>
      </g>
     </g>
    </g>
    <g id="text_7">
     <!-- nr iteracji epizodu -->
     <g transform="translate(269.688906 553.008438)scale(0.22 -0.22)">
      <defs>
       <path d="M 3513 2113 
L 3513 0 
L 2938 0 
L 2938 2094 
Q 2938 2591 2744 2837 
Q 2550 3084 2163 3084 
Q 1697 3084 1428 2787 
Q 1159 2491 1159 1978 
L 1159 0 
L 581 0 
L 581 3500 
L 1159 3500 
L 1159 2956 
Q 1366 3272 1645 3428 
Q 1925 3584 2291 3584 
Q 2894 3584 3203 3211 
Q 3513 2838 3513 2113 
z
" id="DejaVuSans-6e" transform="scale(0.015625)"/>
       <path d="M 2631 2963 
Q 2534 3019 2420 3045 
Q 2306 3072 2169 3072 
Q 1681 3072 1420 2755 
Q 1159 2438 1159 1844 
L 1159 0 
L 581 0 
L 581 3500 
L 1159 3500 
L 1159 2956 
Q 1341 3275 1631 3429 
Q 1922 3584 2338 3584 
Q 2397 3584 2469 3576 
Q 2541 3569 2628 3553 
L 2631 2963 
z
" id="DejaVuSans-72" transform="scale(0.015625)"/>
       <path id="DejaVuSans-20" transform="scale(0.015625)"/>
       <path d="M 603 3500 
L 1178 3500 
L 1178 0 
L 603 0 
L 603 3500 
z
M 603 4863 
L 1178 4863 
L 1178 4134 
L 603 4134 
L 603 4863 
z
" id="DejaVuSans-69" transform="scale(0.015625)"/>
       <path d="M 1172 4494 
L 1172 3500 
L 2356 3500 
L 2356 3053 
L 1172 3053 
L 1172 1153 
Q 1172 725 1289 603 
Q 1406 481 1766 481 
L 2356 481 
L 2356 0 
L 1766 0 
Q 1100 0 847 248 
Q 594 497 594 1153 
L 594 3053 
L 172 3053 
L 172 3500 
L 594 3500 
L 594 4494 
L 1172 4494 
z
" id="DejaVuSans-74" transform="scale(0.015625)"/>
       <path d="M 3597 1894 
L 3597 1613 
L 953 1613 
Q 991 1019 1311 708 
Q 1631 397 2203 397 
Q 2534 397 2845 478 
Q 3156 559 3463 722 
L 3463 178 
Q 3153 47 2828 -22 
Q 2503 -91 2169 -91 
Q 1331 -91 842 396 
Q 353 884 353 1716 
Q 353 2575 817 3079 
Q 1281 3584 2069 3584 
Q 2775 3584 3186 3129 
Q 3597 2675 3597 1894 
z
M 3022 2063 
Q 3016 2534 2758 2815 
Q 2500 3097 2075 3097 
Q 1594 3097 1305 2825 
Q 1016 2553 972 2059 
L 3022 2063 
z
" id="DejaVuSans-65" transform="scale(0.015625)"/>
       <path d="M 2194 1759 
Q 1497 1759 1228 1600 
Q 959 1441 959 1056 
Q 959 750 1161 570 
Q 1363 391 1709 391 
Q 2188 391 2477 730 
Q 2766 1069 2766 1631 
L 2766 1759 
L 2194 1759 
z
M 3341 1997 
L 3341 0 
L 2766 0 
L 2766 531 
Q 2569 213 2275 61 
Q 1981 -91 1556 -91 
Q 1019 -91 701 211 
Q 384 513 384 1019 
Q 384 1609 779 1909 
Q 1175 2209 1959 2209 
L 2766 2209 
L 2766 2266 
Q 2766 2663 2505 2880 
Q 2244 3097 1772 3097 
Q 1472 3097 1187 3025 
Q 903 2953 641 2809 
L 641 3341 
Q 956 3463 1253 3523 
Q 1550 3584 1831 3584 
Q 2591 3584 2966 3190 
Q 3341 2797 3341 1997 
z
" id="DejaVuSans-61" transform="scale(0.015625)"/>
       <path d="M 3122 3366 
L 3122 2828 
Q 2878 2963 2633 3030 
Q 2388 3097 2138 3097 
Q 1578 3097 1268 2742 
Q 959 2388 959 1747 
Q 959 1106 1268 751 
Q 1578 397 2138 397 
Q 2388 397 2633 464 
Q 2878 531 3122 666 
L 3122 134 
Q 2881 22 2623 -34 
Q 2366 -91 2075 -91 
Q 1284 -91 818 406 
Q 353 903 353 1747 
Q 353 2603 823 3093 
Q 1294 3584 2113 3584 
Q 2378 3584 2631 3529 
Q 2884 3475 3122 3366 
z
" id="DejaVuSans-63" transform="scale(0.015625)"/>
       <path d="M 603 3500 
L 1178 3500 
L 1178 -63 
Q 1178 -731 923 -1031 
Q 669 -1331 103 -1331 
L -116 -1331 
L -116 -844 
L 38 -844 
Q 366 -844 484 -692 
Q 603 -541 603 -63 
L 603 3500 
z
M 603 4863 
L 1178 4863 
L 1178 4134 
L 603 4134 
L 603 4863 
z
" id="DejaVuSans-6a" transform="scale(0.015625)"/>
       <path d="M 1159 525 
L 1159 -1331 
L 581 -1331 
L 581 3500 
L 1159 3500 
L 1159 2969 
Q 1341 3281 1617 3432 
Q 1894 3584 2278 3584 
Q 2916 3584 3314 3078 
Q 3713 2572 3713 1747 
Q 3713 922 3314 415 
Q 2916 -91 2278 -91 
Q 1894 -91 1617 61 
Q 1341 213 1159 525 
z
M 3116 1747 
Q 3116 2381 2855 2742 
Q 2594 3103 2138 3103 
Q 1681 3103 1420 2742 
Q 1159 2381 1159 1747 
Q 1159 1113 1420 752 
Q 1681 391 2138 391 
Q 2594 391 2855 752 
Q 3116 1113 3116 1747 
z
" id="DejaVuSans-70" transform="scale(0.015625)"/>
       <path d="M 353 3500 
L 3084 3500 
L 3084 2975 
L 922 459 
L 3084 459 
L 3084 0 
L 275 0 
L 275 525 
L 2438 3041 
L 353 3041 
L 353 3500 
z
" id="DejaVuSans-7a" transform="scale(0.015625)"/>
       <path d="M 1959 3097 
Q 1497 3097 1228 2736 
Q 959 2375 959 1747 
Q 959 1119 1226 758 
Q 1494 397 1959 397 
Q 2419 397 2687 759 
Q 2956 1122 2956 1747 
Q 2956 2369 2687 2733 
Q 2419 3097 1959 3097 
z
M 1959 3584 
Q 2709 3584 3137 3096 
Q 3566 2609 3566 1747 
Q 3566 888 3137 398 
Q 2709 -91 1959 -91 
Q 1206 -91 779 398 
Q 353 888 353 1747 
Q 353 2609 779 3096 
Q 1206 3584 1959 3584 
z
" id="DejaVuSans-6f" transform="scale(0.015625)"/>
       <path d="M 2906 2969 
L 2906 4863 
L 3481 4863 
L 3481 0 
L 2906 0 
L 2906 525 
Q 2725 213 2448 61 
Q 2172 -91 1784 -91 
Q 1150 -91 751 415 
Q 353 922 353 1747 
Q 353 2572 751 3078 
Q 1150 3584 1784 3584 
Q 2172 3584 2448 3432 
Q 2725 3281 2906 2969 
z
M 947 1747 
Q 947 1113 1208 752 
Q 1469 391 1925 391 
Q 2381 391 2643 752 
Q 2906 1113 2906 1747 
Q 2906 2381 2643 2742 
Q 2381 3103 1925 3103 
Q 1469 3103 1208 2742 
Q 947 2381 947 1747 
z
" id="DejaVuSans-64" transform="scale(0.015625)"/>
       <path d="M 544 1381 
L 544 3500 
L 1119 3500 
L 1119 1403 
Q 1119 906 1312 657 
Q 1506 409 1894 409 
Q 2359 409 2629 706 
Q 2900 1003 2900 1516 
L 2900 3500 
L 3475 3500 
L 3475 0 
L 2900 0 
L 2900 538 
Q 2691 219 2414 64 
Q 2138 -91 1772 -91 
Q 1169 -91 856 284 
Q 544 659 544 1381 
z
M 1991 3584 
L 1991 3584 
z
" id="DejaVuSans-75" transform="scale(0.015625)"/>
      </defs>
      <use xlink:href="#DejaVuSans-6e"/>
      <use x="63.378906" xlink:href="#DejaVuSans-72"/>
      <use x="104.492188" xlink:href="#DejaVuSans-20"/>
      <use x="136.279297" xlink:href="#DejaVuSans-69"/>
      <use x="164.0625" xlink:href="#DejaVuSans-74"/>
      <use x="203.271484" xlink:href="#DejaVuSans-65"/>
      <use x="264.794922" xlink:href="#DejaVuSans-72"/>
      <use x="305.908203" xlink:href="#DejaVuSans-61"/>
      <use x="367.1875" xlink:href="#DejaVuSans-63"/>
      <use x="422.167969" xlink:href="#DejaVuSans-6a"/>
      <use x="449.951172" xlink:href="#DejaVuSans-69"/>
      <use x="477.734375" xlink:href="#DejaVuSans-20"/>
      <use x="509.521484" xlink:href="#DejaVuSans-65"/>
      <use x="571.044922" xlink:href="#DejaVuSans-70"/>
      <use x="634.521484" xlink:href="#DejaVuSans-69"/>
      <use x="662.304688" xlink:href="#DejaVuSans-7a"/>
      <use x="714.794922" xlink:href="#DejaVuSans-6f"/>
      <use x="775.976562" xlink:href="#DejaVuSans-64"/>
      <use x="839.453125" xlink:href="#DejaVuSans-75"/>
     </g>
    </g>
   </g>
   <g id="matplotlib.axis_2">
    <g id="ytick_1">
     <g id="line2d_7">
      <defs>
       <path d="M 0 0 
L -3.5 0 
" id="m0dfbc7d5ee" style="stroke:#000000;stroke-width:0.8;"/>
      </defs>
      <g>
       <use style="stroke:#000000;stroke-width:0.8;" x="90" xlink:href="#m0dfbc7d5ee" y="486.131172"/>
      </g>
     </g>
     <g id="text_8">
      <!-- −100000 -->
      <g transform="translate(-19.420312 494.489453)scale(0.22 -0.22)">
       <defs>
        <path d="M 678 2272 
L 4684 2272 
L 4684 1741 
L 678 1741 
L 678 2272 
z
" id="DejaVuSans-2212" transform="scale(0.015625)"/>
       </defs>
       <use xlink:href="#DejaVuSans-2212"/>
       <use x="83.789062" xlink:href="#DejaVuSans-31"/>
       <use x="147.412109" xlink:href="#DejaVuSans-30"/>
       <use x="211.035156" xlink:href="#DejaVuSans-30"/>
       <use x="274.658203" xlink:href="#DejaVuSans-30"/>
       <use x="338.28125" xlink:href="#DejaVuSans-30"/>
       <use x="401.904297" xlink:href="#DejaVuSans-30"/>
      </g>
     </g>
    </g>
    <g id="ytick_2">
     <g id="line2d_8">
      <g>
       <use style="stroke:#000000;stroke-width:0.8;" x="90" xlink:href="#m0dfbc7d5ee" y="423.476243"/>
      </g>
     </g>
     <g id="text_9">
      <!-- −80000 -->
      <g transform="translate(-5.422813 431.834524)scale(0.22 -0.22)">
       <defs>
        <path d="M 2034 2216 
Q 1584 2216 1326 1975 
Q 1069 1734 1069 1313 
Q 1069 891 1326 650 
Q 1584 409 2034 409 
Q 2484 409 2743 651 
Q 3003 894 3003 1313 
Q 3003 1734 2745 1975 
Q 2488 2216 2034 2216 
z
M 1403 2484 
Q 997 2584 770 2862 
Q 544 3141 544 3541 
Q 544 4100 942 4425 
Q 1341 4750 2034 4750 
Q 2731 4750 3128 4425 
Q 3525 4100 3525 3541 
Q 3525 3141 3298 2862 
Q 3072 2584 2669 2484 
Q 3125 2378 3379 2068 
Q 3634 1759 3634 1313 
Q 3634 634 3220 271 
Q 2806 -91 2034 -91 
Q 1263 -91 848 271 
Q 434 634 434 1313 
Q 434 1759 690 2068 
Q 947 2378 1403 2484 
z
M 1172 3481 
Q 1172 3119 1398 2916 
Q 1625 2713 2034 2713 
Q 2441 2713 2670 2916 
Q 2900 3119 2900 3481 
Q 2900 3844 2670 4047 
Q 2441 4250 2034 4250 
Q 1625 4250 1398 4047 
Q 1172 3844 1172 3481 
z
" id="DejaVuSans-38" transform="scale(0.015625)"/>
       </defs>
       <use xlink:href="#DejaVuSans-2212"/>
       <use x="83.789062" xlink:href="#DejaVuSans-38"/>
       <use x="147.412109" xlink:href="#DejaVuSans-30"/>
       <use x="211.035156" xlink:href="#DejaVuSans-30"/>
       <use x="274.658203" xlink:href="#DejaVuSans-30"/>
       <use x="338.28125" xlink:href="#DejaVuSans-30"/>
      </g>
     </g>
    </g>
    <g id="ytick_3">
     <g id="line2d_9">
      <g>
       <use style="stroke:#000000;stroke-width:0.8;" x="90" xlink:href="#m0dfbc7d5ee" y="360.821314"/>
      </g>
     </g>
     <g id="text_10">
      <!-- −60000 -->
      <g transform="translate(-5.422813 369.179595)scale(0.22 -0.22)">
       <defs>
        <path d="M 2113 2584 
Q 1688 2584 1439 2293 
Q 1191 2003 1191 1497 
Q 1191 994 1439 701 
Q 1688 409 2113 409 
Q 2538 409 2786 701 
Q 3034 994 3034 1497 
Q 3034 2003 2786 2293 
Q 2538 2584 2113 2584 
z
M 3366 4563 
L 3366 3988 
Q 3128 4100 2886 4159 
Q 2644 4219 2406 4219 
Q 1781 4219 1451 3797 
Q 1122 3375 1075 2522 
Q 1259 2794 1537 2939 
Q 1816 3084 2150 3084 
Q 2853 3084 3261 2657 
Q 3669 2231 3669 1497 
Q 3669 778 3244 343 
Q 2819 -91 2113 -91 
Q 1303 -91 875 529 
Q 447 1150 447 2328 
Q 447 3434 972 4092 
Q 1497 4750 2381 4750 
Q 2619 4750 2861 4703 
Q 3103 4656 3366 4563 
z
" id="DejaVuSans-36" transform="scale(0.015625)"/>
       </defs>
       <use xlink:href="#DejaVuSans-2212"/>
       <use x="83.789062" xlink:href="#DejaVuSans-36"/>
       <use x="147.412109" xlink:href="#DejaVuSans-30"/>
       <use x="211.035156" xlink:href="#DejaVuSans-30"/>
       <use x="274.658203" xlink:href="#DejaVuSans-30"/>
       <use x="338.28125" xlink:href="#DejaVuSans-30"/>
      </g>
     </g>
    </g>
    <g id="ytick_4">
     <g id="line2d_10">
      <g>
       <use style="stroke:#000000;stroke-width:0.8;" x="90" xlink:href="#m0dfbc7d5ee" y="298.166385"/>
      </g>
     </g>
     <g id="text_11">
      <!-- −40000 -->
      <g transform="translate(-5.422813 306.524666)scale(0.22 -0.22)">
       <defs>
        <path d="M 2419 4116 
L 825 1625 
L 2419 1625 
L 2419 4116 
z
M 2253 4666 
L 3047 4666 
L 3047 1625 
L 3713 1625 
L 3713 1100 
L 3047 1100 
L 3047 0 
L 2419 0 
L 2419 1100 
L 313 1100 
L 313 1709 
L 2253 4666 
z
" id="DejaVuSans-34" transform="scale(0.015625)"/>
       </defs>
       <use xlink:href="#DejaVuSans-2212"/>
       <use x="83.789062" xlink:href="#DejaVuSans-34"/>
       <use x="147.412109" xlink:href="#DejaVuSans-30"/>
       <use x="211.035156" xlink:href="#DejaVuSans-30"/>
       <use x="274.658203" xlink:href="#DejaVuSans-30"/>
       <use x="338.28125" xlink:href="#DejaVuSans-30"/>
      </g>
     </g>
    </g>
    <g id="ytick_5">
     <g id="line2d_11">
      <g>
       <use style="stroke:#000000;stroke-width:0.8;" x="90" xlink:href="#m0dfbc7d5ee" y="235.511456"/>
      </g>
     </g>
     <g id="text_12">
      <!-- −20000 -->
      <g transform="translate(-5.422813 243.869737)scale(0.22 -0.22)">
       <use xlink:href="#DejaVuSans-2212"/>
       <use x="83.789062" xlink:href="#DejaVuSans-32"/>
       <use x="147.412109" xlink:href="#DejaVuSans-30"/>
       <use x="211.035156" xlink:href="#DejaVuSans-30"/>
       <use x="274.658203" xlink:href="#DejaVuSans-30"/>
       <use x="338.28125" xlink:href="#DejaVuSans-30"/>
      </g>
     </g>
    </g>
    <g id="ytick_6">
     <g id="line2d_12">
      <g>
       <use style="stroke:#000000;stroke-width:0.8;" x="90" xlink:href="#m0dfbc7d5ee" y="172.856527"/>
      </g>
     </g>
     <g id="text_13">
      <!-- 0 -->
      <g transform="translate(69.0025 181.214808)scale(0.22 -0.22)">
       <use xlink:href="#DejaVuSans-30"/>
      </g>
     </g>
    </g>
    <g id="ytick_7">
     <g id="line2d_13">
      <g>
       <use style="stroke:#000000;stroke-width:0.8;" x="90" xlink:href="#m0dfbc7d5ee" y="110.201598"/>
      </g>
     </g>
     <g id="text_14">
      <!-- 20000 -->
      <g transform="translate(13.0125 118.559879)scale(0.22 -0.22)">
       <use xlink:href="#DejaVuSans-32"/>
       <use x="63.623047" xlink:href="#DejaVuSans-30"/>
       <use x="127.246094" xlink:href="#DejaVuSans-30"/>
       <use x="190.869141" xlink:href="#DejaVuSans-30"/>
       <use x="254.492188" xlink:href="#DejaVuSans-30"/>
      </g>
     </g>
    </g>
    <g id="text_15">
     <!-- wartość funkcji nagrody -->
     <g transform="translate(-27.995625 418.171562)rotate(-90)scale(0.22 -0.22)">
      <defs>
       <path d="M 269 3500 
L 844 3500 
L 1563 769 
L 2278 3500 
L 2956 3500 
L 3675 769 
L 4391 3500 
L 4966 3500 
L 4050 0 
L 3372 0 
L 2619 2869 
L 1863 0 
L 1184 0 
L 269 3500 
z
" id="DejaVuSans-77" transform="scale(0.015625)"/>
       <path d="M 2242 5119 
L 2864 5119 
L 1846 3944 
L 1367 3944 
L 2242 5119 
z
M 2834 3397 
L 2834 2853 
Q 2591 2978 2328 3040 
Q 2066 3103 1784 3103 
Q 1356 3103 1142 2972 
Q 928 2841 928 2578 
Q 928 2378 1081 2264 
Q 1234 2150 1697 2047 
L 1894 2003 
Q 2506 1872 2764 1633 
Q 3022 1394 3022 966 
Q 3022 478 2636 193 
Q 2250 -91 1575 -91 
Q 1294 -91 989 -36 
Q 684 19 347 128 
L 347 722 
Q 666 556 975 473 
Q 1284 391 1588 391 
Q 1994 391 2212 530 
Q 2431 669 2431 922 
Q 2431 1156 2273 1281 
Q 2116 1406 1581 1522 
L 1381 1569 
Q 847 1681 609 1914 
Q 372 2147 372 2553 
Q 372 3047 722 3315 
Q 1072 3584 1716 3584 
Q 2034 3584 2315 3537 
Q 2597 3491 2834 3397 
z
" id="DejaVuSans-15b" transform="scale(0.015625)"/>
       <path d="M 3122 3366 
L 3122 2828 
Q 2878 2963 2633 3030 
Q 2388 3097 2138 3097 
Q 1578 3097 1268 2742 
Q 959 2388 959 1747 
Q 959 1106 1268 751 
Q 1578 397 2138 397 
Q 2388 397 2633 464 
Q 2878 531 3122 666 
L 3122 134 
Q 2881 22 2623 -34 
Q 2366 -91 2075 -91 
Q 1284 -91 818 406 
Q 353 903 353 1747 
Q 353 2603 823 3093 
Q 1294 3584 2113 3584 
Q 2378 3584 2631 3529 
Q 2884 3475 3122 3366 
z
M 2466 5119 
L 3088 5119 
L 2070 3944 
L 1591 3944 
L 2466 5119 
z
" id="DejaVuSans-107" transform="scale(0.015625)"/>
       <path d="M 2375 4863 
L 2375 4384 
L 1825 4384 
Q 1516 4384 1395 4259 
Q 1275 4134 1275 3809 
L 1275 3500 
L 2222 3500 
L 2222 3053 
L 1275 3053 
L 1275 0 
L 697 0 
L 697 3053 
L 147 3053 
L 147 3500 
L 697 3500 
L 697 3744 
Q 697 4328 969 4595 
Q 1241 4863 1831 4863 
L 2375 4863 
z
" id="DejaVuSans-66" transform="scale(0.015625)"/>
       <path d="M 581 4863 
L 1159 4863 
L 1159 1991 
L 2875 3500 
L 3609 3500 
L 1753 1863 
L 3688 0 
L 2938 0 
L 1159 1709 
L 1159 0 
L 581 0 
L 581 4863 
z
" id="DejaVuSans-6b" transform="scale(0.015625)"/>
       <path d="M 2906 1791 
Q 2906 2416 2648 2759 
Q 2391 3103 1925 3103 
Q 1463 3103 1205 2759 
Q 947 2416 947 1791 
Q 947 1169 1205 825 
Q 1463 481 1925 481 
Q 2391 481 2648 825 
Q 2906 1169 2906 1791 
z
M 3481 434 
Q 3481 -459 3084 -895 
Q 2688 -1331 1869 -1331 
Q 1566 -1331 1297 -1286 
Q 1028 -1241 775 -1147 
L 775 -588 
Q 1028 -725 1275 -790 
Q 1522 -856 1778 -856 
Q 2344 -856 2625 -561 
Q 2906 -266 2906 331 
L 2906 616 
Q 2728 306 2450 153 
Q 2172 0 1784 0 
Q 1141 0 747 490 
Q 353 981 353 1791 
Q 353 2603 747 3093 
Q 1141 3584 1784 3584 
Q 2172 3584 2450 3431 
Q 2728 3278 2906 2969 
L 2906 3500 
L 3481 3500 
L 3481 434 
z
" id="DejaVuSans-67" transform="scale(0.015625)"/>
       <path d="M 2059 -325 
Q 1816 -950 1584 -1140 
Q 1353 -1331 966 -1331 
L 506 -1331 
L 506 -850 
L 844 -850 
Q 1081 -850 1212 -737 
Q 1344 -625 1503 -206 
L 1606 56 
L 191 3500 
L 800 3500 
L 1894 763 
L 2988 3500 
L 3597 3500 
L 2059 -325 
z
" id="DejaVuSans-79" transform="scale(0.015625)"/>
      </defs>
      <use xlink:href="#DejaVuSans-77"/>
      <use x="81.787109" xlink:href="#DejaVuSans-61"/>
      <use x="143.066406" xlink:href="#DejaVuSans-72"/>
      <use x="184.179688" xlink:href="#DejaVuSans-74"/>
      <use x="223.388672" xlink:href="#DejaVuSans-6f"/>
      <use x="284.570312" xlink:href="#DejaVuSans-15b"/>
      <use x="336.669922" xlink:href="#DejaVuSans-107"/>
      <use x="391.650391" xlink:href="#DejaVuSans-20"/>
      <use x="423.4375" xlink:href="#DejaVuSans-66"/>
      <use x="458.642578" xlink:href="#DejaVuSans-75"/>
      <use x="522.021484" xlink:href="#DejaVuSans-6e"/>
      <use x="585.400391" xlink:href="#DejaVuSans-6b"/>
      <use x="643.310547" xlink:href="#DejaVuSans-63"/>
      <use x="698.291016" xlink:href="#DejaVuSans-6a"/>
      <use x="726.074219" xlink:href="#DejaVuSans-69"/>
      <use x="753.857422" xlink:href="#DejaVuSans-20"/>
      <use x="785.644531" xlink:href="#DejaVuSans-6e"/>
      <use x="849.023438" xlink:href="#DejaVuSans-61"/>
      <use x="910.302734" xlink:href="#DejaVuSans-67"/>
      <use x="973.779297" xlink:href="#DejaVuSans-72"/>
      <use x="1012.642578" xlink:href="#DejaVuSans-6f"/>
      <use x="1073.824219" xlink:href="#DejaVuSans-64"/>
      <use x="1137.300781" xlink:href="#DejaVuSans-79"/>
     </g>
    </g>
   </g>
   <g id="line2d_14">
    <path clip-path="url(#p1e8198131f)" d="M 115.363636 172.862792 
L 115.566627 172.865925 
L 115.769617 173.808882 
L 118.2055 173.8284 
L 118.408491 174.789432 
L 120.844374 174.822104 
L 121.047364 175.769981 
L 123.483248 175.780932 
L 123.686238 176.750531 
L 126.731092 176.795587 
L 126.934083 176.575308 
L 127.340063 174.292887 
L 127.746044 173.961739 
L 127.949034 177.756142 
L 130.384918 177.781396 
L 130.587908 177.659221 
L 130.790898 177.128521 
L 130.993888 177.439719 
L 131.196879 177.378009 
L 131.399869 176.639007 
L 131.602859 176.391815 
L 131.80585 175.869065 
L 132.21183 175.641673 
L 132.617811 176.235155 
L 132.820801 176.141855 
L 133.226782 175.782098 
L 133.835752 175.782425 
L 134.038743 178.789949 
L 136.271636 178.773033 
L 136.474626 178.635674 
L 136.677617 179.770498 
L 139.722471 179.814792 
L 139.925461 180.760446 
L 142.767325 180.773852 
L 142.970315 181.747261 
L 144.391247 181.768877 
L 144.594238 182.712147 
L 146.827131 182.741944 
L 147.030121 183.689564 
L 149.060024 183.713884 
L 149.263014 183.59648 
L 149.466005 184.666981 
L 152.104878 184.706764 
L 152.307869 184.388641 
L 152.510859 184.707591 
L 152.713849 176.495758 
L 152.916839 121.137631 
L 153.11983 108.722355 
L 153.32282 105.020506 
L 153.728801 91.040179 
L 153.931791 88.887273 
L 154.134781 187.862382 
L 156.773655 187.901821 
L 156.976645 187.521953 
L 157.179635 185.761338 
L 157.382626 181.966031 
L 157.585616 188.855463 
L 159.615519 188.884795 
L 159.818509 189.829747 
L 161.848412 189.791991 
L 162.051402 189.724376 
L 162.254393 189.431641 
L 162.457383 189.434809 
L 162.660373 190.81343 
L 164.081305 190.835266 
L 164.284296 191.778316 
L 165.908218 191.798948 
L 166.111208 192.746334 
L 168.141111 192.75887 
L 168.344101 192.628778 
L 168.547092 192.353113 
L 168.750082 192.343684 
L 168.953072 192.601887 
L 169.156062 192.590243 
L 169.359053 193.736282 
L 171.388956 193.76746 
L 171.591946 194.710566 
L 174.43381 194.754425 
L 174.6368 195.697381 
L 177.072684 195.704223 
L 177.275674 195.54677 
L 177.478664 195.042994 
L 177.681654 193.994808 
L 178.290625 188.288023 
L 178.493616 188.831039 
L 178.899596 191.481047 
L 179.102586 191.54327 
L 179.508567 190.476199 
L 179.711557 190.408612 
L 179.914548 189.469214 
L 180.320528 181.281699 
L 180.523518 160.592704 
L 180.726509 189.410832 
L 180.929499 189.252645 
L 181.33548 188.490353 
L 181.53847 198.930376 
L 184.380334 198.900458 
L 184.786315 198.615757 
L 184.989305 198.280585 
L 185.192295 197.716148 
L 185.395285 196.797645 
L 185.598276 195.326499 
L 185.801266 192.974983 
L 186.004256 189.166538 
L 186.207247 178.738647 
L 186.410237 202.132043 
L 193.311907 202.238556 
L 193.514897 203.181513 
L 200.416567 203.288026 
L 200.619557 204.230983 
L 202.446469 204.259177 
L 202.64946 205.202134 
L 203.867402 205.157762 
L 204.070392 204.783546 
L 204.273382 202.780749 
L 204.476372 206.170153 
L 205.694314 206.188484 
L 205.897304 207.131906 
L 207.115246 207.150575 
L 207.318236 208.093659 
L 208.130198 208.093541 
L 208.333188 207.99504 
L 208.536178 207.521197 
L 208.739168 209.055412 
L 209.95711 209.074209 
L 210.1601 210.017165 
L 211.378042 210.035962 
L 211.581032 210.978918 
L 212.798974 210.997715 
L 213.001964 211.940672 
L 214.219906 211.959468 
L 214.422896 212.902425 
L 215.640838 212.921221 
L 215.843828 213.864178 
L 217.06177 213.882974 
L 217.26476 214.825931 
L 218.482702 214.844728 
L 218.685692 215.787684 
L 219.903634 215.806481 
L 220.106624 216.749437 
L 221.324566 216.768234 
L 221.527556 217.711191 
L 222.745498 217.729987 
L 222.948488 218.672944 
L 224.16643 218.69174 
L 224.36942 219.634697 
L 225.587362 219.653493 
L 225.790353 220.59645 
L 227.008294 220.615247 
L 227.211285 221.558203 
L 228.429226 221.577 
L 228.632217 222.519956 
L 229.850158 222.538753 
L 230.053149 223.48171 
L 231.27109 223.500506 
L 231.474081 224.443463 
L 232.692022 224.462259 
L 232.895013 225.405216 
L 234.112954 225.424012 
L 234.315945 226.366969 
L 235.533886 226.385766 
L 235.736877 227.328722 
L 236.954818 227.347519 
L 237.157809 228.290475 
L 238.37575 228.309272 
L 238.578741 229.252229 
L 239.796682 229.271025 
L 239.999673 230.213982 
L 241.217614 230.232778 
L 241.420605 231.175735 
L 242.638546 231.194531 
L 242.841537 232.137488 
L 244.059478 232.156284 
L 244.262469 233.099241 
L 245.48041 233.118038 
L 245.683401 234.060994 
L 246.901342 234.079791 
L 247.104333 235.022747 
L 248.322274 235.041544 
L 248.525265 235.984501 
L 249.743206 236.003297 
L 249.946197 236.946254 
L 251.164138 236.96505 
L 251.367129 237.908007 
L 252.58507 237.926803 
L 252.788061 238.86976 
L 254.006002 238.888557 
L 254.208993 239.831513 
L 255.426934 239.85031 
L 255.629925 240.793266 
L 256.847866 240.812063 
L 257.050857 241.75502 
L 258.268798 241.773816 
L 258.471789 242.716773 
L 259.68973 242.735569 
L 259.892721 243.678526 
L 261.110662 243.697322 
L 261.313653 244.640279 
L 262.531594 244.659076 
L 262.734585 245.602032 
L 263.952526 245.620829 
L 264.155517 246.563785 
L 265.373458 246.582582 
L 265.576449 247.525539 
L 266.79439 247.544335 
L 266.997381 248.487292 
L 268.215322 248.506088 
L 268.418313 249.449045 
L 269.636255 249.467841 
L 269.839245 250.410798 
L 271.057187 250.429594 
L 271.260177 251.372551 
L 272.478119 251.391348 
L 272.681109 252.334304 
L 273.899051 252.353101 
L 274.102041 253.296057 
L 275.319983 253.314854 
L 275.522973 254.257811 
L 276.740915 254.276607 
L 276.943905 255.219564 
L 278.161847 255.23836 
L 278.364837 256.181317 
L 279.582779 256.200113 
L 279.785769 257.14307 
L 281.003711 257.161867 
L 281.206701 258.104823 
L 282.424643 258.12362 
L 282.627633 259.066576 
L 283.845575 259.085373 
L 284.048565 260.02833 
L 285.266507 260.047126 
L 285.469497 260.990083 
L 286.687439 261.008879 
L 286.890429 261.951836 
L 288.108371 261.970632 
L 288.311361 262.913589 
L 289.529303 262.932386 
L 289.732293 263.875342 
L 290.950235 263.894139 
L 291.153225 264.837095 
L 292.371167 264.855892 
L 292.574157 265.798849 
L 293.792099 265.817645 
L 293.995089 266.760602 
L 295.213031 266.779398 
L 295.416021 267.722355 
L 296.633963 267.741151 
L 296.836953 268.684108 
L 298.054895 268.702905 
L 298.257885 269.645861 
L 299.475827 269.664658 
L 299.678817 270.607614 
L 300.896759 270.626411 
L 301.099749 271.569368 
L 302.317691 271.588164 
L 302.520681 272.531121 
L 303.738623 272.549917 
L 303.941613 273.492874 
L 305.159555 273.51167 
L 305.362545 274.454627 
L 306.580487 274.473423 
L 306.783477 275.41638 
L 308.001419 275.435177 
L 308.204409 276.378133 
L 309.422351 276.39693 
L 309.625341 277.339886 
L 310.843283 277.358683 
L 311.046273 278.30164 
L 312.264215 278.320436 
L 312.467205 279.263393 
L 313.685147 279.282189 
L 313.888137 280.225146 
L 315.106079 280.243942 
L 315.309069 281.186899 
L 316.527011 281.205696 
L 316.730001 282.148652 
L 317.947943 282.167449 
L 318.150933 283.110405 
L 319.368875 283.129202 
L 319.571865 284.072159 
L 320.789807 284.090955 
L 320.992797 285.033912 
L 322.210739 285.052708 
L 322.413729 285.995665 
L 323.631671 286.014461 
L 323.834661 286.957418 
L 325.052603 286.976215 
L 325.255593 287.919171 
L 326.473535 287.937968 
L 326.676525 288.880924 
L 327.894467 288.899721 
L 328.097457 289.842678 
L 329.315399 289.861474 
L 329.518389 290.804431 
L 330.736331 290.823227 
L 330.939321 291.766184 
L 332.157263 291.78498 
L 332.360253 292.727937 
L 333.578195 292.746733 
L 333.781185 293.68969 
L 334.999127 293.708487 
L 335.202117 294.651443 
L 336.420059 294.67024 
L 336.623049 295.613196 
L 337.840991 295.631993 
L 338.043981 296.57495 
L 339.261923 296.593746 
L 339.464913 297.536703 
L 340.682855 297.555499 
L 340.885845 298.498456 
L 342.103787 298.517252 
L 342.306777 299.460209 
L 343.524719 299.479006 
L 343.727709 300.421962 
L 344.945651 300.440759 
L 345.148641 301.383715 
L 346.366583 301.402512 
L 346.569573 302.345469 
L 347.787515 302.364265 
L 347.990505 303.307222 
L 349.208447 303.326018 
L 349.411437 304.268975 
L 350.629379 304.287771 
L 350.832369 305.230728 
L 352.050311 305.249525 
L 352.253301 306.192481 
L 353.471243 306.211278 
L 353.674233 307.154234 
L 354.892175 307.173031 
L 355.095165 308.115988 
L 356.313107 308.134784 
L 356.516097 309.077741 
L 357.734039 309.096537 
L 357.937029 310.039494 
L 359.154971 310.05829 
L 359.357961 311.001247 
L 360.575903 311.020044 
L 360.778893 311.963 
L 361.996835 311.981797 
L 362.199825 312.924753 
L 363.417767 312.94355 
L 363.620757 313.886507 
L 364.838699 313.905303 
L 365.041689 314.84826 
L 366.259631 314.867056 
L 366.462621 315.810013 
L 367.680563 315.828809 
L 367.883553 316.771766 
L 369.101495 316.790562 
L 369.304485 317.733519 
L 370.522427 317.752316 
L 370.725417 318.695272 
L 371.943359 318.714069 
L 372.146349 319.657025 
L 373.364291 319.675822 
L 373.567281 320.618779 
L 374.785223 320.637575 
L 374.988213 321.580532 
L 376.206155 321.599328 
L 376.409145 322.542285 
L 377.627087 322.561081 
L 377.830077 323.504038 
L 379.048019 323.522835 
L 379.251009 324.465791 
L 380.468951 324.484588 
L 380.671942 325.427544 
L 381.889883 325.446341 
L 382.092874 326.389298 
L 383.310815 326.408094 
L 383.513806 327.351051 
L 384.731747 327.369847 
L 384.934738 328.312804 
L 386.152679 328.3316 
L 386.35567 329.274557 
L 387.573611 329.293354 
L 387.776602 330.23631 
L 388.994543 330.255107 
L 389.197534 331.198063 
L 390.415475 331.21686 
L 390.618466 332.159817 
L 391.836407 332.178613 
L 392.039398 333.12157 
L 393.257339 333.140366 
L 393.46033 334.083323 
L 394.678271 334.102119 
L 394.881262 335.045076 
L 396.099203 335.063872 
L 396.302194 336.006829 
L 397.520135 336.025626 
L 397.723126 336.968582 
L 398.941067 336.987379 
L 399.144058 337.930335 
L 400.361999 337.949132 
L 400.56499 338.892089 
L 401.782931 338.910885 
L 401.985922 339.853842 
L 403.203863 339.872638 
L 403.406854 340.815595 
L 404.624795 340.834391 
L 404.827786 341.777348 
L 406.045727 341.796145 
L 406.248718 342.739101 
L 407.466659 342.757898 
L 407.66965 343.700854 
L 408.887591 343.719651 
L 409.090582 344.662608 
L 410.308523 344.681404 
L 410.511514 345.624361 
L 411.729455 345.643157 
L 411.932446 346.586114 
L 413.150387 346.60491 
L 413.353378 347.547867 
L 414.571319 347.566664 
L 414.77431 348.50962 
L 415.992251 348.528417 
L 416.195242 349.471373 
L 417.413183 349.49017 
L 417.616174 350.433127 
L 418.834115 350.451923 
L 419.037106 351.39488 
L 420.255047 351.413676 
L 420.458038 352.356633 
L 421.675979 352.375429 
L 421.87897 353.318386 
L 423.096911 353.337183 
L 423.299902 354.280139 
L 424.517844 354.298936 
L 424.720834 355.241892 
L 425.938776 355.260689 
L 426.141766 356.203646 
L 427.359708 356.222442 
L 427.562698 357.165399 
L 428.78064 357.184195 
L 428.98363 358.127152 
L 430.201572 358.145948 
L 430.404562 359.088905 
L 431.622504 359.107701 
L 431.825494 360.050658 
L 433.043436 360.069455 
L 433.246426 361.012411 
L 434.464368 361.031208 
L 434.667358 361.974164 
L 435.8853 361.992961 
L 436.08829 362.935918 
L 437.306232 362.954714 
L 437.509222 363.897671 
L 438.727164 363.916467 
L 438.930154 364.859424 
L 440.148096 364.87822 
L 440.351086 365.821177 
L 441.569028 365.839974 
L 441.772018 366.78293 
L 442.98996 366.801727 
L 443.19295 367.744683 
L 444.410892 367.76348 
L 444.613882 368.706437 
L 445.831824 368.725233 
L 446.034814 369.66819 
L 447.252756 369.686986 
L 447.455746 370.629943 
L 448.673688 370.648739 
L 448.876678 371.591696 
L 450.09462 371.610493 
L 450.29761 372.553449 
L 451.515552 372.572246 
L 451.718542 373.515202 
L 452.936484 373.533999 
L 453.139474 374.476956 
L 454.357416 374.495752 
L 454.560406 375.438709 
L 455.778348 375.457505 
L 455.981338 376.400462 
L 457.19928 376.419258 
L 457.40227 377.362215 
L 458.620212 377.381011 
L 458.823202 378.323968 
L 460.041144 378.342765 
L 460.244134 379.285721 
L 461.462076 379.304518 
L 461.665066 380.247474 
L 462.883008 380.266271 
L 463.085998 381.209228 
L 464.30394 381.228024 
L 464.50693 382.170981 
L 465.724872 382.189777 
L 465.927862 383.132734 
L 467.145804 383.15153 
L 467.348794 384.094487 
L 468.566736 384.113284 
L 468.769726 385.05624 
L 469.987668 385.075037 
L 470.190658 386.017993 
L 471.4086 386.03679 
L 471.61159 386.979747 
L 472.829532 386.998543 
L 473.032522 387.9415 
L 474.250464 387.960296 
L 474.453454 388.903253 
L 475.671396 388.922049 
L 475.874386 389.865006 
L 477.092328 389.883803 
L 477.295318 390.826759 
L 478.51326 390.845556 
L 478.71625 391.788512 
L 479.934192 391.807309 
L 480.137182 392.750266 
L 481.355124 392.769062 
L 481.558114 393.712019 
L 482.776056 393.730815 
L 482.979046 394.673772 
L 484.196988 394.692568 
L 484.399978 395.635525 
L 485.61792 395.654322 
L 485.82091 396.597278 
L 487.038852 396.616075 
L 487.241842 397.559031 
L 488.459784 397.577828 
L 488.662774 398.520784 
L 489.880716 398.539581 
L 490.083706 399.482538 
L 491.301648 399.501334 
L 491.504638 400.444291 
L 492.72258 400.463087 
L 492.92557 401.406044 
L 494.143512 401.42484 
L 494.346502 402.367797 
L 495.564444 402.386594 
L 495.767434 403.32955 
L 496.985376 403.348347 
L 497.188366 404.291303 
L 498.406308 404.3101 
L 498.609298 405.253057 
L 499.82724 405.271853 
L 500.03023 406.21481 
L 501.248172 406.233606 
L 501.451162 407.176563 
L 502.669104 407.195359 
L 502.872094 408.138316 
L 504.090036 408.157113 
L 504.293026 409.100069 
L 505.510968 409.118866 
L 505.713958 410.061822 
L 506.9319 410.080619 
L 507.13489 411.023576 
L 508.352832 411.042372 
L 508.555822 411.985329 
L 509.773764 412.004125 
L 509.976754 412.947082 
L 511.194696 412.965878 
L 511.397686 413.908835 
L 512.615628 413.927632 
L 512.818618 414.870588 
L 514.03656 414.889385 
L 514.23955 415.832341 
L 515.457492 415.851138 
L 515.660482 416.794095 
L 516.878424 416.812891 
L 517.081414 417.755848 
L 518.299356 417.774644 
L 518.502346 418.717601 
L 519.720288 418.736397 
L 519.923278 419.679354 
L 521.14122 419.69815 
L 521.34421 420.641107 
L 522.562152 420.659904 
L 522.765142 421.60286 
L 523.983084 421.621657 
L 524.186074 422.564613 
L 525.404016 422.58341 
L 525.607006 423.526367 
L 526.824948 423.545163 
L 527.027938 424.48812 
L 528.24588 424.506916 
L 528.44887 425.449873 
L 529.666812 425.468669 
L 529.869802 426.411626 
L 531.087744 426.430423 
L 531.290734 427.373379 
L 532.508676 427.392176 
L 532.711666 428.335132 
L 533.929608 428.353929 
L 534.132598 429.296886 
L 535.35054 429.315682 
L 535.553531 430.258639 
L 536.771472 430.277435 
L 536.974463 431.220392 
L 538.192404 431.239188 
L 538.395395 432.182145 
L 539.613336 432.200942 
L 539.816327 433.143898 
L 541.034268 433.162695 
L 541.237259 434.105651 
L 542.4552 434.124448 
L 542.658191 435.067405 
L 543.876132 435.086201 
L 544.079123 436.029158 
L 545.297064 436.047954 
L 545.500055 436.990911 
L 546.717996 437.009707 
L 546.920987 437.952664 
L 548.138928 437.97146 
L 548.341919 438.914417 
L 549.55986 438.933214 
L 549.762851 439.87617 
L 550.980792 439.894967 
L 551.183783 440.837923 
L 552.401724 440.85672 
L 552.604715 441.799677 
L 553.213685 441.724669 
L 553.416676 441.508245 
L 553.619666 439.918501 
L 553.822656 437.091575 
L 554.025647 387.296533 
L 554.228637 403.185844 
L 554.431627 441.813732 
L 556.055549 441.726168 
L 556.867511 441.45742 
L 557.476482 441.069322 
L 558.085452 440.458811 
L 558.694423 439.582292 
L 559.709375 438.009308 
L 559.912365 437.769284 
L 560.521336 437.821479 
L 560.927316 436.959808 
L 561.130307 442.871076 
L 562.348248 442.889872 
L 562.551239 443.832829 
L 563.76918 443.851626 
L 563.972171 444.794582 
L 565.190112 444.813379 
L 565.393103 445.756335 
L 566.611044 445.775132 
L 566.814035 446.718089 
L 568.031976 446.736885 
L 568.234967 447.679842 
L 569.452908 447.698638 
L 569.655899 448.641595 
L 570.87384 448.660391 
L 571.076831 449.603348 
L 572.294772 449.622145 
L 572.497763 450.565101 
L 573.715704 450.583898 
L 573.918695 451.526854 
L 575.136636 451.545651 
L 575.339627 452.488608 
L 576.557568 452.507404 
L 576.760559 453.450361 
L 577.9785 453.469157 
L 578.181491 454.412114 
L 579.399433 454.43091 
L 579.602423 455.373867 
L 580.820365 455.392663 
L 581.023355 456.33562 
L 582.241297 456.354417 
L 582.444287 457.297373 
L 583.662229 457.31617 
L 583.865219 458.259126 
L 585.083161 458.277923 
L 585.286151 459.22088 
L 586.504093 459.239676 
L 586.707083 460.182633 
L 587.925025 460.201429 
L 588.128015 461.144386 
L 589.345957 461.163182 
L 589.548947 462.106139 
L 590.766889 462.124936 
L 590.969879 463.067892 
L 592.187821 463.086689 
L 592.390811 464.029645 
L 593.608753 464.048442 
L 593.811743 464.991399 
L 595.029685 465.010195 
L 595.232675 465.953152 
L 596.450617 465.971948 
L 596.653607 466.914905 
L 597.871549 466.933701 
L 598.074539 467.876658 
L 599.292481 467.895455 
L 599.495471 468.838411 
L 600.713413 468.857208 
L 600.916403 469.800164 
L 602.134345 469.818961 
L 602.337335 470.761918 
L 603.555277 470.780714 
L 603.758267 471.723671 
L 604.976209 471.742467 
L 605.179199 472.685424 
L 606.397141 472.70422 
L 606.600131 473.647177 
L 607.818073 473.665974 
L 608.021063 474.60893 
L 609.239005 474.627727 
L 609.441995 475.570683 
L 610.659937 475.58948 
L 610.862927 476.532437 
L 612.080869 476.551233 
L 612.283859 477.49419 
L 613.501801 477.512986 
L 613.704791 478.455943 
L 614.922733 478.474739 
L 615.125723 479.417696 
L 616.343665 479.436492 
L 616.546655 480.379449 
L 617.764597 480.398246 
L 617.967587 481.341202 
L 619.185529 481.359999 
L 619.388519 482.302955 
L 620.606461 482.321752 
L 620.809451 483.264709 
L 622.027393 483.283505 
L 622.230383 484.226462 
L 622.636364 484.232727 
L 622.636364 484.232727 
" style="fill:none;stroke:#1f77b4;stroke-linecap:square;stroke-width:1.5;"/>
   </g>
   <g id="patch_3">
    <path d="M 90 504 
L 90 69.12 
" style="fill:none;stroke:#000000;stroke-linecap:square;stroke-linejoin:miter;stroke-width:0.8;"/>
   </g>
   <g id="patch_4">
    <path d="M 648 504 
L 648 69.12 
" style="fill:none;stroke:#000000;stroke-linecap:square;stroke-linejoin:miter;stroke-width:0.8;"/>
   </g>
   <g id="patch_5">
    <path d="M 90 504 
L 648 504 
" style="fill:none;stroke:#000000;stroke-linecap:square;stroke-linejoin:miter;stroke-width:0.8;"/>
   </g>
   <g id="patch_6">
    <path d="M 90 69.12 
L 648 69.12 
" style="fill:none;stroke:#000000;stroke-linecap:square;stroke-linejoin:miter;stroke-width:0.8;"/>
   </g>
  </g>
 </g>
 <defs>
  <clipPath id="p1e8198131f">
   <rect height="434.88" width="558" x="90" y="69.12"/>
  </clipPath>
 </defs>
</svg>
