<?xml version="1.0" encoding="utf-8" standalone="no"?>
<!DOCTYPE svg PUBLIC "-//W3C//DTD SVG 1.1//EN"
  "http://www.w3.org/Graphics/SVG/1.1/DTD/svg11.dtd">
<svg height="576pt" version="1.1" viewBox="0 0 720 576" width="720pt" xmlns="http://www.w3.org/2000/svg" xmlns:xlink="http://www.w3.org/1999/xlink">
 <metadata>
  <rdf:RDF xmlns:cc="http://creativecommons.org/ns#" xmlns:dc="http://purl.org/dc/elements/1.1/" xmlns:rdf="http://www.w3.org/1999/02/22-rdf-syntax-ns#">
   <cc:Work>
    <dc:type rdf:resource="http://purl.org/dc/dcmitype/StillImage"/>
    <dc:date>2022-01-19T22:12:17.777670</dc:date>
    <dc:format>image/svg+xml</dc:format>
    <dc:creator>
     <cc:Agent>
      <dc:title>Matplotlib v3.4.3, https://matplotlib.org/</dc:title>
     </cc:Agent>
    </dc:creator>
   </cc:Work>
  </rdf:RDF>
 </metadata>
 <defs>
  <style type="text/css">*{stroke-linecap:butt;stroke-linejoin:round;}</style>
 </defs>
 <g id="figure_1">
  <g id="patch_1">
   <path d="M 0 576 
L 720 576 
L 720 0 
L 0 0 
z
" style="fill:none;"/>
  </g>
  <g id="axes_1">
   <g id="patch_2">
    <path d="M 90 504 
L 648 504 
L 648 69.12 
L 90 69.12 
z
" style="fill:#ffffff;"/>
   </g>
   <g id="matplotlib.axis_1">
    <g id="xtick_1">
     <g id="line2d_1">
      <defs>
       <path d="M 0 0 
L 0 3.5 
" id="m712a0845f5" style="stroke:#000000;stroke-width:0.8;"/>
      </defs>
      <g>
       <use style="stroke:#000000;stroke-width:0.8;" x="115.363636" xlink:href="#m712a0845f5" y="504"/>
      </g>
     </g>
     <g id="text_1">
      <!-- 0 -->
      <g transform="translate(108.364886 527.716563)scale(0.22 -0.22)">
       <defs>
        <path d="M 2034 4250 
Q 1547 4250 1301 3770 
Q 1056 3291 1056 2328 
Q 1056 1369 1301 889 
Q 1547 409 2034 409 
Q 2525 409 2770 889 
Q 3016 1369 3016 2328 
Q 3016 3291 2770 3770 
Q 2525 4250 2034 4250 
z
M 2034 4750 
Q 2819 4750 3233 4129 
Q 3647 3509 3647 2328 
Q 3647 1150 3233 529 
Q 2819 -91 2034 -91 
Q 1250 -91 836 529 
Q 422 1150 422 2328 
Q 422 3509 836 4129 
Q 1250 4750 2034 4750 
z
" id="DejaVuSans-30" transform="scale(0.015625)"/>
       </defs>
       <use xlink:href="#DejaVuSans-30"/>
      </g>
     </g>
    </g>
    <g id="xtick_2">
     <g id="line2d_2">
      <g>
       <use style="stroke:#000000;stroke-width:0.8;" x="216.85878" xlink:href="#m712a0845f5" y="504"/>
      </g>
     </g>
     <g id="text_2">
      <!-- 500 -->
      <g transform="translate(195.86253 527.716563)scale(0.22 -0.22)">
       <defs>
        <path d="M 691 4666 
L 3169 4666 
L 3169 4134 
L 1269 4134 
L 1269 2991 
Q 1406 3038 1543 3061 
Q 1681 3084 1819 3084 
Q 2600 3084 3056 2656 
Q 3513 2228 3513 1497 
Q 3513 744 3044 326 
Q 2575 -91 1722 -91 
Q 1428 -91 1123 -41 
Q 819 9 494 109 
L 494 744 
Q 775 591 1075 516 
Q 1375 441 1709 441 
Q 2250 441 2565 725 
Q 2881 1009 2881 1497 
Q 2881 1984 2565 2268 
Q 2250 2553 1709 2553 
Q 1456 2553 1204 2497 
Q 953 2441 691 2322 
L 691 4666 
z
" id="DejaVuSans-35" transform="scale(0.015625)"/>
       </defs>
       <use xlink:href="#DejaVuSans-35"/>
       <use x="63.623047" xlink:href="#DejaVuSans-30"/>
       <use x="127.246094" xlink:href="#DejaVuSans-30"/>
      </g>
     </g>
    </g>
    <g id="xtick_3">
     <g id="line2d_3">
      <g>
       <use style="stroke:#000000;stroke-width:0.8;" x="318.353923" xlink:href="#m712a0845f5" y="504"/>
      </g>
     </g>
     <g id="text_3">
      <!-- 1000 -->
      <g transform="translate(290.358923 527.716563)scale(0.22 -0.22)">
       <defs>
        <path d="M 794 531 
L 1825 531 
L 1825 4091 
L 703 3866 
L 703 4441 
L 1819 4666 
L 2450 4666 
L 2450 531 
L 3481 531 
L 3481 0 
L 794 0 
L 794 531 
z
" id="DejaVuSans-31" transform="scale(0.015625)"/>
       </defs>
       <use xlink:href="#DejaVuSans-31"/>
       <use x="63.623047" xlink:href="#DejaVuSans-30"/>
       <use x="127.246094" xlink:href="#DejaVuSans-30"/>
       <use x="190.869141" xlink:href="#DejaVuSans-30"/>
      </g>
     </g>
    </g>
    <g id="xtick_4">
     <g id="line2d_4">
      <g>
       <use style="stroke:#000000;stroke-width:0.8;" x="419.849067" xlink:href="#m712a0845f5" y="504"/>
      </g>
     </g>
     <g id="text_4">
      <!-- 1500 -->
      <g transform="translate(391.854067 527.716563)scale(0.22 -0.22)">
       <use xlink:href="#DejaVuSans-31"/>
       <use x="63.623047" xlink:href="#DejaVuSans-35"/>
       <use x="127.246094" xlink:href="#DejaVuSans-30"/>
       <use x="190.869141" xlink:href="#DejaVuSans-30"/>
      </g>
     </g>
    </g>
    <g id="xtick_5">
     <g id="line2d_5">
      <g>
       <use style="stroke:#000000;stroke-width:0.8;" x="521.34421" xlink:href="#m712a0845f5" y="504"/>
      </g>
     </g>
     <g id="text_5">
      <!-- 2000 -->
      <g transform="translate(493.34921 527.716563)scale(0.22 -0.22)">
       <defs>
        <path d="M 1228 531 
L 3431 531 
L 3431 0 
L 469 0 
L 469 531 
Q 828 903 1448 1529 
Q 2069 2156 2228 2338 
Q 2531 2678 2651 2914 
Q 2772 3150 2772 3378 
Q 2772 3750 2511 3984 
Q 2250 4219 1831 4219 
Q 1534 4219 1204 4116 
Q 875 4013 500 3803 
L 500 4441 
Q 881 4594 1212 4672 
Q 1544 4750 1819 4750 
Q 2544 4750 2975 4387 
Q 3406 4025 3406 3419 
Q 3406 3131 3298 2873 
Q 3191 2616 2906 2266 
Q 2828 2175 2409 1742 
Q 1991 1309 1228 531 
z
" id="DejaVuSans-32" transform="scale(0.015625)"/>
       </defs>
       <use xlink:href="#DejaVuSans-32"/>
       <use x="63.623047" xlink:href="#DejaVuSans-30"/>
       <use x="127.246094" xlink:href="#DejaVuSans-30"/>
       <use x="190.869141" xlink:href="#DejaVuSans-30"/>
      </g>
     </g>
    </g>
    <g id="xtick_6">
     <g id="line2d_6">
      <g>
       <use style="stroke:#000000;stroke-width:0.8;" x="622.839354" xlink:href="#m712a0845f5" y="504"/>
      </g>
     </g>
     <g id="text_6">
      <!-- 2500 -->
      <g transform="translate(594.844354 527.716563)scale(0.22 -0.22)">
       <use xlink:href="#DejaVuSans-32"/>
       <use x="63.623047" xlink:href="#DejaVuSans-35"/>
       <use x="127.246094" xlink:href="#DejaVuSans-30"/>
       <use x="190.869141" xlink:href="#DejaVuSans-30"/>
      </g>
     </g>
    </g>
    <g id="text_7">
     <!-- nr iteracji epizodu -->
     <g transform="translate(269.688906 553.008438)scale(0.22 -0.22)">
      <defs>
       <path d="M 3513 2113 
L 3513 0 
L 2938 0 
L 2938 2094 
Q 2938 2591 2744 2837 
Q 2550 3084 2163 3084 
Q 1697 3084 1428 2787 
Q 1159 2491 1159 1978 
L 1159 0 
L 581 0 
L 581 3500 
L 1159 3500 
L 1159 2956 
Q 1366 3272 1645 3428 
Q 1925 3584 2291 3584 
Q 2894 3584 3203 3211 
Q 3513 2838 3513 2113 
z
" id="DejaVuSans-6e" transform="scale(0.015625)"/>
       <path d="M 2631 2963 
Q 2534 3019 2420 3045 
Q 2306 3072 2169 3072 
Q 1681 3072 1420 2755 
Q 1159 2438 1159 1844 
L 1159 0 
L 581 0 
L 581 3500 
L 1159 3500 
L 1159 2956 
Q 1341 3275 1631 3429 
Q 1922 3584 2338 3584 
Q 2397 3584 2469 3576 
Q 2541 3569 2628 3553 
L 2631 2963 
z
" id="DejaVuSans-72" transform="scale(0.015625)"/>
       <path id="DejaVuSans-20" transform="scale(0.015625)"/>
       <path d="M 603 3500 
L 1178 3500 
L 1178 0 
L 603 0 
L 603 3500 
z
M 603 4863 
L 1178 4863 
L 1178 4134 
L 603 4134 
L 603 4863 
z
" id="DejaVuSans-69" transform="scale(0.015625)"/>
       <path d="M 1172 4494 
L 1172 3500 
L 2356 3500 
L 2356 3053 
L 1172 3053 
L 1172 1153 
Q 1172 725 1289 603 
Q 1406 481 1766 481 
L 2356 481 
L 2356 0 
L 1766 0 
Q 1100 0 847 248 
Q 594 497 594 1153 
L 594 3053 
L 172 3053 
L 172 3500 
L 594 3500 
L 594 4494 
L 1172 4494 
z
" id="DejaVuSans-74" transform="scale(0.015625)"/>
       <path d="M 3597 1894 
L 3597 1613 
L 953 1613 
Q 991 1019 1311 708 
Q 1631 397 2203 397 
Q 2534 397 2845 478 
Q 3156 559 3463 722 
L 3463 178 
Q 3153 47 2828 -22 
Q 2503 -91 2169 -91 
Q 1331 -91 842 396 
Q 353 884 353 1716 
Q 353 2575 817 3079 
Q 1281 3584 2069 3584 
Q 2775 3584 3186 3129 
Q 3597 2675 3597 1894 
z
M 3022 2063 
Q 3016 2534 2758 2815 
Q 2500 3097 2075 3097 
Q 1594 3097 1305 2825 
Q 1016 2553 972 2059 
L 3022 2063 
z
" id="DejaVuSans-65" transform="scale(0.015625)"/>
       <path d="M 2194 1759 
Q 1497 1759 1228 1600 
Q 959 1441 959 1056 
Q 959 750 1161 570 
Q 1363 391 1709 391 
Q 2188 391 2477 730 
Q 2766 1069 2766 1631 
L 2766 1759 
L 2194 1759 
z
M 3341 1997 
L 3341 0 
L 2766 0 
L 2766 531 
Q 2569 213 2275 61 
Q 1981 -91 1556 -91 
Q 1019 -91 701 211 
Q 384 513 384 1019 
Q 384 1609 779 1909 
Q 1175 2209 1959 2209 
L 2766 2209 
L 2766 2266 
Q 2766 2663 2505 2880 
Q 2244 3097 1772 3097 
Q 1472 3097 1187 3025 
Q 903 2953 641 2809 
L 641 3341 
Q 956 3463 1253 3523 
Q 1550 3584 1831 3584 
Q 2591 3584 2966 3190 
Q 3341 2797 3341 1997 
z
" id="DejaVuSans-61" transform="scale(0.015625)"/>
       <path d="M 3122 3366 
L 3122 2828 
Q 2878 2963 2633 3030 
Q 2388 3097 2138 3097 
Q 1578 3097 1268 2742 
Q 959 2388 959 1747 
Q 959 1106 1268 751 
Q 1578 397 2138 397 
Q 2388 397 2633 464 
Q 2878 531 3122 666 
L 3122 134 
Q 2881 22 2623 -34 
Q 2366 -91 2075 -91 
Q 1284 -91 818 406 
Q 353 903 353 1747 
Q 353 2603 823 3093 
Q 1294 3584 2113 3584 
Q 2378 3584 2631 3529 
Q 2884 3475 3122 3366 
z
" id="DejaVuSans-63" transform="scale(0.015625)"/>
       <path d="M 603 3500 
L 1178 3500 
L 1178 -63 
Q 1178 -731 923 -1031 
Q 669 -1331 103 -1331 
L -116 -1331 
L -116 -844 
L 38 -844 
Q 366 -844 484 -692 
Q 603 -541 603 -63 
L 603 3500 
z
M 603 4863 
L 1178 4863 
L 1178 4134 
L 603 4134 
L 603 4863 
z
" id="DejaVuSans-6a" transform="scale(0.015625)"/>
       <path d="M 1159 525 
L 1159 -1331 
L 581 -1331 
L 581 3500 
L 1159 3500 
L 1159 2969 
Q 1341 3281 1617 3432 
Q 1894 3584 2278 3584 
Q 2916 3584 3314 3078 
Q 3713 2572 3713 1747 
Q 3713 922 3314 415 
Q 2916 -91 2278 -91 
Q 1894 -91 1617 61 
Q 1341 213 1159 525 
z
M 3116 1747 
Q 3116 2381 2855 2742 
Q 2594 3103 2138 3103 
Q 1681 3103 1420 2742 
Q 1159 2381 1159 1747 
Q 1159 1113 1420 752 
Q 1681 391 2138 391 
Q 2594 391 2855 752 
Q 3116 1113 3116 1747 
z
" id="DejaVuSans-70" transform="scale(0.015625)"/>
       <path d="M 353 3500 
L 3084 3500 
L 3084 2975 
L 922 459 
L 3084 459 
L 3084 0 
L 275 0 
L 275 525 
L 2438 3041 
L 353 3041 
L 353 3500 
z
" id="DejaVuSans-7a" transform="scale(0.015625)"/>
       <path d="M 1959 3097 
Q 1497 3097 1228 2736 
Q 959 2375 959 1747 
Q 959 1119 1226 758 
Q 1494 397 1959 397 
Q 2419 397 2687 759 
Q 2956 1122 2956 1747 
Q 2956 2369 2687 2733 
Q 2419 3097 1959 3097 
z
M 1959 3584 
Q 2709 3584 3137 3096 
Q 3566 2609 3566 1747 
Q 3566 888 3137 398 
Q 2709 -91 1959 -91 
Q 1206 -91 779 398 
Q 353 888 353 1747 
Q 353 2609 779 3096 
Q 1206 3584 1959 3584 
z
" id="DejaVuSans-6f" transform="scale(0.015625)"/>
       <path d="M 2906 2969 
L 2906 4863 
L 3481 4863 
L 3481 0 
L 2906 0 
L 2906 525 
Q 2725 213 2448 61 
Q 2172 -91 1784 -91 
Q 1150 -91 751 415 
Q 353 922 353 1747 
Q 353 2572 751 3078 
Q 1150 3584 1784 3584 
Q 2172 3584 2448 3432 
Q 2725 3281 2906 2969 
z
M 947 1747 
Q 947 1113 1208 752 
Q 1469 391 1925 391 
Q 2381 391 2643 752 
Q 2906 1113 2906 1747 
Q 2906 2381 2643 2742 
Q 2381 3103 1925 3103 
Q 1469 3103 1208 2742 
Q 947 2381 947 1747 
z
" id="DejaVuSans-64" transform="scale(0.015625)"/>
       <path d="M 544 1381 
L 544 3500 
L 1119 3500 
L 1119 1403 
Q 1119 906 1312 657 
Q 1506 409 1894 409 
Q 2359 409 2629 706 
Q 2900 1003 2900 1516 
L 2900 3500 
L 3475 3500 
L 3475 0 
L 2900 0 
L 2900 538 
Q 2691 219 2414 64 
Q 2138 -91 1772 -91 
Q 1169 -91 856 284 
Q 544 659 544 1381 
z
M 1991 3584 
L 1991 3584 
z
" id="DejaVuSans-75" transform="scale(0.015625)"/>
      </defs>
      <use xlink:href="#DejaVuSans-6e"/>
      <use x="63.378906" xlink:href="#DejaVuSans-72"/>
      <use x="104.492188" xlink:href="#DejaVuSans-20"/>
      <use x="136.279297" xlink:href="#DejaVuSans-69"/>
      <use x="164.0625" xlink:href="#DejaVuSans-74"/>
      <use x="203.271484" xlink:href="#DejaVuSans-65"/>
      <use x="264.794922" xlink:href="#DejaVuSans-72"/>
      <use x="305.908203" xlink:href="#DejaVuSans-61"/>
      <use x="367.1875" xlink:href="#DejaVuSans-63"/>
      <use x="422.167969" xlink:href="#DejaVuSans-6a"/>
      <use x="449.951172" xlink:href="#DejaVuSans-69"/>
      <use x="477.734375" xlink:href="#DejaVuSans-20"/>
      <use x="509.521484" xlink:href="#DejaVuSans-65"/>
      <use x="571.044922" xlink:href="#DejaVuSans-70"/>
      <use x="634.521484" xlink:href="#DejaVuSans-69"/>
      <use x="662.304688" xlink:href="#DejaVuSans-7a"/>
      <use x="714.794922" xlink:href="#DejaVuSans-6f"/>
      <use x="775.976562" xlink:href="#DejaVuSans-64"/>
      <use x="839.453125" xlink:href="#DejaVuSans-75"/>
     </g>
    </g>
   </g>
   <g id="matplotlib.axis_2">
    <g id="ytick_1">
     <g id="line2d_7">
      <defs>
       <path d="M 0 0 
L -3.5 0 
" id="m8702451179" style="stroke:#000000;stroke-width:0.8;"/>
      </defs>
      <g>
       <use style="stroke:#000000;stroke-width:0.8;" x="90" xlink:href="#m8702451179" y="458.904223"/>
      </g>
     </g>
     <g id="text_8">
      <!-- −60000 -->
      <g transform="translate(-5.422813 467.262504)scale(0.22 -0.22)">
       <defs>
        <path d="M 678 2272 
L 4684 2272 
L 4684 1741 
L 678 1741 
L 678 2272 
z
" id="DejaVuSans-2212" transform="scale(0.015625)"/>
        <path d="M 2113 2584 
Q 1688 2584 1439 2293 
Q 1191 2003 1191 1497 
Q 1191 994 1439 701 
Q 1688 409 2113 409 
Q 2538 409 2786 701 
Q 3034 994 3034 1497 
Q 3034 2003 2786 2293 
Q 2538 2584 2113 2584 
z
M 3366 4563 
L 3366 3988 
Q 3128 4100 2886 4159 
Q 2644 4219 2406 4219 
Q 1781 4219 1451 3797 
Q 1122 3375 1075 2522 
Q 1259 2794 1537 2939 
Q 1816 3084 2150 3084 
Q 2853 3084 3261 2657 
Q 3669 2231 3669 1497 
Q 3669 778 3244 343 
Q 2819 -91 2113 -91 
Q 1303 -91 875 529 
Q 447 1150 447 2328 
Q 447 3434 972 4092 
Q 1497 4750 2381 4750 
Q 2619 4750 2861 4703 
Q 3103 4656 3366 4563 
z
" id="DejaVuSans-36" transform="scale(0.015625)"/>
       </defs>
       <use xlink:href="#DejaVuSans-2212"/>
       <use x="83.789062" xlink:href="#DejaVuSans-36"/>
       <use x="147.412109" xlink:href="#DejaVuSans-30"/>
       <use x="211.035156" xlink:href="#DejaVuSans-30"/>
       <use x="274.658203" xlink:href="#DejaVuSans-30"/>
       <use x="338.28125" xlink:href="#DejaVuSans-30"/>
      </g>
     </g>
    </g>
    <g id="ytick_2">
     <g id="line2d_8">
      <g>
       <use style="stroke:#000000;stroke-width:0.8;" x="90" xlink:href="#m8702451179" y="397.232675"/>
      </g>
     </g>
     <g id="text_9">
      <!-- −50000 -->
      <g transform="translate(-5.422813 405.590957)scale(0.22 -0.22)">
       <use xlink:href="#DejaVuSans-2212"/>
       <use x="83.789062" xlink:href="#DejaVuSans-35"/>
       <use x="147.412109" xlink:href="#DejaVuSans-30"/>
       <use x="211.035156" xlink:href="#DejaVuSans-30"/>
       <use x="274.658203" xlink:href="#DejaVuSans-30"/>
       <use x="338.28125" xlink:href="#DejaVuSans-30"/>
      </g>
     </g>
    </g>
    <g id="ytick_3">
     <g id="line2d_9">
      <g>
       <use style="stroke:#000000;stroke-width:0.8;" x="90" xlink:href="#m8702451179" y="335.561128"/>
      </g>
     </g>
     <g id="text_10">
      <!-- −40000 -->
      <g transform="translate(-5.422813 343.919409)scale(0.22 -0.22)">
       <defs>
        <path d="M 2419 4116 
L 825 1625 
L 2419 1625 
L 2419 4116 
z
M 2253 4666 
L 3047 4666 
L 3047 1625 
L 3713 1625 
L 3713 1100 
L 3047 1100 
L 3047 0 
L 2419 0 
L 2419 1100 
L 313 1100 
L 313 1709 
L 2253 4666 
z
" id="DejaVuSans-34" transform="scale(0.015625)"/>
       </defs>
       <use xlink:href="#DejaVuSans-2212"/>
       <use x="83.789062" xlink:href="#DejaVuSans-34"/>
       <use x="147.412109" xlink:href="#DejaVuSans-30"/>
       <use x="211.035156" xlink:href="#DejaVuSans-30"/>
       <use x="274.658203" xlink:href="#DejaVuSans-30"/>
       <use x="338.28125" xlink:href="#DejaVuSans-30"/>
      </g>
     </g>
    </g>
    <g id="ytick_4">
     <g id="line2d_10">
      <g>
       <use style="stroke:#000000;stroke-width:0.8;" x="90" xlink:href="#m8702451179" y="273.889581"/>
      </g>
     </g>
     <g id="text_11">
      <!-- −30000 -->
      <g transform="translate(-5.422813 282.247862)scale(0.22 -0.22)">
       <defs>
        <path d="M 2597 2516 
Q 3050 2419 3304 2112 
Q 3559 1806 3559 1356 
Q 3559 666 3084 287 
Q 2609 -91 1734 -91 
Q 1441 -91 1130 -33 
Q 819 25 488 141 
L 488 750 
Q 750 597 1062 519 
Q 1375 441 1716 441 
Q 2309 441 2620 675 
Q 2931 909 2931 1356 
Q 2931 1769 2642 2001 
Q 2353 2234 1838 2234 
L 1294 2234 
L 1294 2753 
L 1863 2753 
Q 2328 2753 2575 2939 
Q 2822 3125 2822 3475 
Q 2822 3834 2567 4026 
Q 2313 4219 1838 4219 
Q 1578 4219 1281 4162 
Q 984 4106 628 3988 
L 628 4550 
Q 988 4650 1302 4700 
Q 1616 4750 1894 4750 
Q 2613 4750 3031 4423 
Q 3450 4097 3450 3541 
Q 3450 3153 3228 2886 
Q 3006 2619 2597 2516 
z
" id="DejaVuSans-33" transform="scale(0.015625)"/>
       </defs>
       <use xlink:href="#DejaVuSans-2212"/>
       <use x="83.789062" xlink:href="#DejaVuSans-33"/>
       <use x="147.412109" xlink:href="#DejaVuSans-30"/>
       <use x="211.035156" xlink:href="#DejaVuSans-30"/>
       <use x="274.658203" xlink:href="#DejaVuSans-30"/>
       <use x="338.28125" xlink:href="#DejaVuSans-30"/>
      </g>
     </g>
    </g>
    <g id="ytick_5">
     <g id="line2d_11">
      <g>
       <use style="stroke:#000000;stroke-width:0.8;" x="90" xlink:href="#m8702451179" y="212.218033"/>
      </g>
     </g>
     <g id="text_12">
      <!-- −20000 -->
      <g transform="translate(-5.422813 220.576314)scale(0.22 -0.22)">
       <use xlink:href="#DejaVuSans-2212"/>
       <use x="83.789062" xlink:href="#DejaVuSans-32"/>
       <use x="147.412109" xlink:href="#DejaVuSans-30"/>
       <use x="211.035156" xlink:href="#DejaVuSans-30"/>
       <use x="274.658203" xlink:href="#DejaVuSans-30"/>
       <use x="338.28125" xlink:href="#DejaVuSans-30"/>
      </g>
     </g>
    </g>
    <g id="ytick_6">
     <g id="line2d_12">
      <g>
       <use style="stroke:#000000;stroke-width:0.8;" x="90" xlink:href="#m8702451179" y="150.546486"/>
      </g>
     </g>
     <g id="text_13">
      <!-- −10000 -->
      <g transform="translate(-5.422813 158.904767)scale(0.22 -0.22)">
       <use xlink:href="#DejaVuSans-2212"/>
       <use x="83.789062" xlink:href="#DejaVuSans-31"/>
       <use x="147.412109" xlink:href="#DejaVuSans-30"/>
       <use x="211.035156" xlink:href="#DejaVuSans-30"/>
       <use x="274.658203" xlink:href="#DejaVuSans-30"/>
       <use x="338.28125" xlink:href="#DejaVuSans-30"/>
      </g>
     </g>
    </g>
    <g id="ytick_7">
     <g id="line2d_13">
      <g>
       <use style="stroke:#000000;stroke-width:0.8;" x="90" xlink:href="#m8702451179" y="88.874938"/>
      </g>
     </g>
     <g id="text_14">
      <!-- 0 -->
      <g transform="translate(69.0025 97.23322)scale(0.22 -0.22)">
       <use xlink:href="#DejaVuSans-30"/>
      </g>
     </g>
    </g>
    <g id="text_15">
     <!-- wartość funkcji nagrody -->
     <g transform="translate(-13.998125 418.171562)rotate(-90)scale(0.22 -0.22)">
      <defs>
       <path d="M 269 3500 
L 844 3500 
L 1563 769 
L 2278 3500 
L 2956 3500 
L 3675 769 
L 4391 3500 
L 4966 3500 
L 4050 0 
L 3372 0 
L 2619 2869 
L 1863 0 
L 1184 0 
L 269 3500 
z
" id="DejaVuSans-77" transform="scale(0.015625)"/>
       <path d="M 2242 5119 
L 2864 5119 
L 1846 3944 
L 1367 3944 
L 2242 5119 
z
M 2834 3397 
L 2834 2853 
Q 2591 2978 2328 3040 
Q 2066 3103 1784 3103 
Q 1356 3103 1142 2972 
Q 928 2841 928 2578 
Q 928 2378 1081 2264 
Q 1234 2150 1697 2047 
L 1894 2003 
Q 2506 1872 2764 1633 
Q 3022 1394 3022 966 
Q 3022 478 2636 193 
Q 2250 -91 1575 -91 
Q 1294 -91 989 -36 
Q 684 19 347 128 
L 347 722 
Q 666 556 975 473 
Q 1284 391 1588 391 
Q 1994 391 2212 530 
Q 2431 669 2431 922 
Q 2431 1156 2273 1281 
Q 2116 1406 1581 1522 
L 1381 1569 
Q 847 1681 609 1914 
Q 372 2147 372 2553 
Q 372 3047 722 3315 
Q 1072 3584 1716 3584 
Q 2034 3584 2315 3537 
Q 2597 3491 2834 3397 
z
" id="DejaVuSans-15b" transform="scale(0.015625)"/>
       <path d="M 3122 3366 
L 3122 2828 
Q 2878 2963 2633 3030 
Q 2388 3097 2138 3097 
Q 1578 3097 1268 2742 
Q 959 2388 959 1747 
Q 959 1106 1268 751 
Q 1578 397 2138 397 
Q 2388 397 2633 464 
Q 2878 531 3122 666 
L 3122 134 
Q 2881 22 2623 -34 
Q 2366 -91 2075 -91 
Q 1284 -91 818 406 
Q 353 903 353 1747 
Q 353 2603 823 3093 
Q 1294 3584 2113 3584 
Q 2378 3584 2631 3529 
Q 2884 3475 3122 3366 
z
M 2466 5119 
L 3088 5119 
L 2070 3944 
L 1591 3944 
L 2466 5119 
z
" id="DejaVuSans-107" transform="scale(0.015625)"/>
       <path d="M 2375 4863 
L 2375 4384 
L 1825 4384 
Q 1516 4384 1395 4259 
Q 1275 4134 1275 3809 
L 1275 3500 
L 2222 3500 
L 2222 3053 
L 1275 3053 
L 1275 0 
L 697 0 
L 697 3053 
L 147 3053 
L 147 3500 
L 697 3500 
L 697 3744 
Q 697 4328 969 4595 
Q 1241 4863 1831 4863 
L 2375 4863 
z
" id="DejaVuSans-66" transform="scale(0.015625)"/>
       <path d="M 581 4863 
L 1159 4863 
L 1159 1991 
L 2875 3500 
L 3609 3500 
L 1753 1863 
L 3688 0 
L 2938 0 
L 1159 1709 
L 1159 0 
L 581 0 
L 581 4863 
z
" id="DejaVuSans-6b" transform="scale(0.015625)"/>
       <path d="M 2906 1791 
Q 2906 2416 2648 2759 
Q 2391 3103 1925 3103 
Q 1463 3103 1205 2759 
Q 947 2416 947 1791 
Q 947 1169 1205 825 
Q 1463 481 1925 481 
Q 2391 481 2648 825 
Q 2906 1169 2906 1791 
z
M 3481 434 
Q 3481 -459 3084 -895 
Q 2688 -1331 1869 -1331 
Q 1566 -1331 1297 -1286 
Q 1028 -1241 775 -1147 
L 775 -588 
Q 1028 -725 1275 -790 
Q 1522 -856 1778 -856 
Q 2344 -856 2625 -561 
Q 2906 -266 2906 331 
L 2906 616 
Q 2728 306 2450 153 
Q 2172 0 1784 0 
Q 1141 0 747 490 
Q 353 981 353 1791 
Q 353 2603 747 3093 
Q 1141 3584 1784 3584 
Q 2172 3584 2450 3431 
Q 2728 3278 2906 2969 
L 2906 3500 
L 3481 3500 
L 3481 434 
z
" id="DejaVuSans-67" transform="scale(0.015625)"/>
       <path d="M 2059 -325 
Q 1816 -950 1584 -1140 
Q 1353 -1331 966 -1331 
L 506 -1331 
L 506 -850 
L 844 -850 
Q 1081 -850 1212 -737 
Q 1344 -625 1503 -206 
L 1606 56 
L 191 3500 
L 800 3500 
L 1894 763 
L 2988 3500 
L 3597 3500 
L 2059 -325 
z
" id="DejaVuSans-79" transform="scale(0.015625)"/>
      </defs>
      <use xlink:href="#DejaVuSans-77"/>
      <use x="81.787109" xlink:href="#DejaVuSans-61"/>
      <use x="143.066406" xlink:href="#DejaVuSans-72"/>
      <use x="184.179688" xlink:href="#DejaVuSans-74"/>
      <use x="223.388672" xlink:href="#DejaVuSans-6f"/>
      <use x="284.570312" xlink:href="#DejaVuSans-15b"/>
      <use x="336.669922" xlink:href="#DejaVuSans-107"/>
      <use x="391.650391" xlink:href="#DejaVuSans-20"/>
      <use x="423.4375" xlink:href="#DejaVuSans-66"/>
      <use x="458.642578" xlink:href="#DejaVuSans-75"/>
      <use x="522.021484" xlink:href="#DejaVuSans-6e"/>
      <use x="585.400391" xlink:href="#DejaVuSans-6b"/>
      <use x="643.310547" xlink:href="#DejaVuSans-63"/>
      <use x="698.291016" xlink:href="#DejaVuSans-6a"/>
      <use x="726.074219" xlink:href="#DejaVuSans-69"/>
      <use x="753.857422" xlink:href="#DejaVuSans-20"/>
      <use x="785.644531" xlink:href="#DejaVuSans-6e"/>
      <use x="849.023438" xlink:href="#DejaVuSans-61"/>
      <use x="910.302734" xlink:href="#DejaVuSans-67"/>
      <use x="973.779297" xlink:href="#DejaVuSans-72"/>
      <use x="1012.642578" xlink:href="#DejaVuSans-6f"/>
      <use x="1073.824219" xlink:href="#DejaVuSans-64"/>
      <use x="1137.300781" xlink:href="#DejaVuSans-79"/>
     </g>
    </g>
   </g>
   <g id="line2d_14">
    <path clip-path="url(#p4473ecc729)" d="M 115.363636 88.887273 
L 115.972607 88.905774 
L 116.175598 90.762088 
L 118.2055 90.823759 
L 118.408491 92.680073 
L 122.062316 92.791082 
L 122.265306 94.647395 
L 124.498199 94.715234 
L 124.70119 96.571548 
L 127.137073 96.645553 
L 127.340063 98.501867 
L 130.181927 98.588207 
L 130.384918 100.444521 
L 132.21183 100.500025 
L 132.41482 102.356339 
L 134.647714 102.424177 
L 134.850704 104.280491 
L 137.489578 104.360664 
L 137.692568 106.216978 
L 139.519481 106.272482 
L 139.722471 108.128796 
L 143.985267 108.258306 
L 144.188257 110.114619 
L 147.233111 110.207127 
L 147.436102 112.06344 
L 151.698898 112.19295 
L 151.901888 112.501308 
L 154.134781 112.569147 
L 154.337771 114.425461 
L 158.600567 114.554971 
L 158.803558 116.411284 
L 161.036451 116.479123 
L 161.239441 118.335437 
L 164.284296 118.427944 
L 164.487286 120.284258 
L 167.12616 120.364431 
L 167.32915 122.220744 
L 169.562043 122.288583 
L 169.765033 124.144896 
L 171.185965 124.188066 
L 171.388956 126.04438 
L 175.042781 126.155389 
L 175.245771 128.011702 
L 180.523518 128.172048 
L 180.726509 130.028362 
L 181.944451 130.065365 
L 182.147441 131.921678 
L 183.365383 131.958681 
L 183.568373 133.814995 
L 184.786315 133.851998 
L 184.989305 135.708312 
L 186.410237 135.751482 
L 186.613227 137.607795 
L 187.831169 137.644798 
L 188.034159 139.501112 
L 189.252101 139.538115 
L 189.455091 141.394428 
L 190.876023 141.437598 
L 191.079013 143.293912 
L 192.296955 143.330915 
L 192.499945 145.187228 
L 193.717887 145.224231 
L 193.920877 147.080545 
L 195.341809 147.123715 
L 195.5448 148.980029 
L 196.762741 149.017031 
L 196.965732 150.873345 
L 198.386664 150.916515 
L 198.589654 152.772829 
L 200.010586 152.815999 
L 200.213576 154.672312 
L 201.837499 154.72165 
L 202.040489 156.577963 
L 204.070392 156.639635 
L 204.273382 158.495948 
L 206.709266 158.569954 
L 206.912256 157.028165 
L 207.521227 157.046667 
L 207.724217 166.297399 
L 211.987013 166.426909 
L 212.190003 164.885121 
L 214.828877 164.965294 
L 215.031867 172.674237 
L 220.918586 172.853084 
L 221.121576 171.311296 
L 222.136527 171.342132 
L 222.339518 173.198445 
L 229.444178 173.414296 
L 229.647168 175.270609 
L 236.142857 175.467958 
L 236.345847 183.176902 
L 238.37575 183.238573 
L 238.578741 185.094887 
L 239.796682 185.13189 
L 239.999673 186.988203 
L 241.217614 187.025206 
L 241.420605 188.88152 
L 242.638546 188.918523 
L 242.841537 190.774836 
L 244.059478 190.811839 
L 244.262469 192.668153 
L 245.48041 192.705156 
L 245.683401 194.561469 
L 246.901342 194.598472 
L 247.104333 196.454786 
L 248.322274 196.491789 
L 248.525265 198.348102 
L 249.743206 198.385105 
L 249.946197 200.241419 
L 251.164138 200.278422 
L 251.367129 202.134735 
L 252.58507 202.171738 
L 252.788061 204.028052 
L 254.006002 204.065055 
L 254.208993 205.921368 
L 255.426934 205.958371 
L 255.629925 207.814685 
L 256.847866 207.851688 
L 257.050857 209.708001 
L 258.268798 209.745004 
L 258.471789 211.601318 
L 259.68973 211.638321 
L 259.892721 213.494634 
L 261.313653 213.537804 
L 261.516643 215.394118 
L 262.937575 215.437288 
L 263.140565 217.293602 
L 265.170468 217.355273 
L 265.373458 191.144865 
L 265.779439 188.061288 
L 265.982429 188.067455 
L 266.18542 186.525667 
L 266.38841 186.531834 
L 266.5914 184.990045 
L 266.79439 184.996212 
L 266.997381 183.454423 
L 267.200371 183.460591 
L 267.403361 181.918802 
L 267.606352 181.924969 
L 268.012332 178.841392 
L 268.215322 178.847559 
L 268.418313 177.30577 
L 268.621303 177.311937 
L 268.824293 175.770149 
L 269.027284 175.776316 
L 269.230274 174.234527 
L 269.433264 174.240694 
L 269.636255 172.698906 
L 269.839245 172.705073 
L 270.042235 171.163284 
L 270.245225 171.169451 
L 270.448216 169.627663 
L 270.651206 169.63383 
L 270.854196 168.092041 
L 271.057187 168.098208 
L 271.260177 166.55642 
L 271.463167 166.562587 
L 271.666157 165.020798 
L 271.869148 165.026965 
L 272.072138 163.485176 
L 272.478119 163.497511 
L 272.681109 161.955722 
L 272.884099 161.961889 
L 273.087089 160.420101 
L 273.29008 160.426268 
L 273.49307 223.639604 
L 276.334934 223.725944 
L 276.537924 229.899266 
L 279.379788 229.985606 
L 279.582779 228.443817 
L 280.191749 228.462319 
L 280.39474 226.92053 
L 280.80072 226.932864 
L 281.003711 236.183597 
L 286.687439 236.356277 
L 286.890429 234.814488 
L 287.90538 234.845324 
L 288.108371 236.701638 
L 293.386118 236.861984 
L 293.589108 235.320195 
L 295.01004 235.363365 
L 295.213031 237.219679 
L 299.475827 237.349189 
L 299.678817 235.8074 
L 299.881807 246.599921 
L 304.144603 246.729431 
L 304.347594 245.187642 
L 305.971516 245.23698 
L 306.174506 243.695191 
L 306.783477 243.713692 
L 306.986467 245.570006 
L 310.843283 245.687182 
L 311.046273 244.145393 
L 313.279166 244.213232 
L 313.482156 242.671443 
L 313.888137 242.683778 
L 314.091127 244.540091 
L 320.992797 244.749774 
L 321.195787 246.606088 
L 323.428681 246.673927 
L 323.631671 245.132138 
L 324.443632 245.156807 
L 324.646622 259.032905 
L 331.548292 259.242588 
L 331.751282 261.098902 
L 335.202117 261.203743 
L 335.405107 259.661955 
L 338.652952 259.760629 
L 338.855942 261.616943 
L 342.509768 261.727951 
L 342.712758 260.186163 
L 345.757612 260.27867 
L 345.960602 260.587028 
L 351.847321 260.765875 
L 352.050311 259.224087 
L 352.862272 259.248755 
L 353.065262 261.105069 
L 355.704136 261.185242 
L 355.907126 259.643453 
L 356.719088 259.668122 
L 356.922078 258.126333 
L 357.328058 258.138667 
L 357.734039 255.05509 
L 357.937029 255.061257 
L 358.14002 253.519468 
L 358.34301 253.525636 
L 358.546 251.983847 
L 358.748991 273.568889 
L 363.214777 273.704566 
L 363.417767 272.162777 
L 367.680563 272.292288 
L 367.883553 274.148601 
L 369.913456 274.210273 
L 370.116447 281.919216 
L 377.018116 282.128899 
L 377.221107 282.437257 
L 379.048019 282.492761 
L 379.251009 290.201705 
L 384.122776 290.349717 
L 384.325767 288.807928 
L 386.35567 288.869599 
L 386.55866 290.725913 
L 388.588563 290.787585 
L 388.791553 289.245796 
L 389.806504 289.276632 
L 390.009495 287.734843 
L 390.415475 287.747177 
L 390.618466 286.205389 
L 390.821456 286.211556 
L 391.024446 284.669767 
L 391.227436 284.675934 
L 391.430427 283.134146 
L 391.633417 283.140313 
L 391.836407 281.598524 
L 392.039398 281.604691 
L 392.242388 298.564367 
L 396.505184 298.693877 
L 396.708174 297.152088 
L 398.535087 297.207593 
L 398.738077 295.665804 
L 399.347048 295.684305 
L 399.550038 297.540619 
L 404.624795 297.694798 
L 404.827786 296.153009 
L 406.451708 296.202346 
L 406.654698 298.05866 
L 408.684601 298.120332 
L 408.887591 296.578543 
L 409.293572 296.590877 
L 409.496562 308.925187 
L 412.947397 309.030028 
L 413.150387 315.20335 
L 416.195242 315.295858 
L 416.398232 313.754069 
L 418.225145 313.809573 
L 418.428135 321.518517 
L 420.661028 321.586355 
L 420.864018 323.442669 
L 423.096911 323.510508 
L 423.299902 325.366821 
L 426.344756 325.459329 
L 426.547746 327.315642 
L 430.607552 327.438985 
L 430.810542 333.612307 
L 433.855397 333.704814 
L 434.058387 335.561128 
L 437.306232 335.659802 
L 437.509222 337.516116 
L 439.133144 337.565453 
L 439.336134 336.023665 
L 440.148096 336.048333 
L 440.351086 334.506545 
L 441.163047 334.531213 
L 441.366037 332.989424 
L 442.380989 333.02026 
L 442.583979 331.478472 
L 443.39594 331.50314 
L 443.59893 329.961351 
L 444.613882 329.992187 
L 444.816872 328.450399 
L 445.831824 328.481234 
L 446.034814 326.939446 
L 447.252756 326.976449 
L 447.455746 325.43466 
L 448.470697 325.465496 
L 448.673688 323.923707 
L 449.891629 323.96071 
L 450.09462 322.418921 
L 451.312561 322.455924 
L 451.515552 320.914135 
L 452.733493 320.951138 
L 452.936484 319.40935 
L 454.763396 319.464854 
L 454.966387 317.923065 
L 456.996289 317.984737 
L 457.19928 316.442948 
L 459.026192 316.498453 
L 459.229183 314.956664 
L 459.432173 316.812978 
L 461.056095 316.862315 
L 461.259085 318.718628 
L 462.274037 318.749464 
L 462.477027 320.605778 
L 464.912911 320.679784 
L 465.115901 322.536097 
L 467.551784 322.610103 
L 467.754775 324.466417 
L 469.378697 324.515754 
L 469.581687 326.057543 
L 469.987668 326.069877 
L 470.190658 329.461812 
L 472.423551 329.529651 
L 472.626542 331.385964 
L 475.062425 331.45997 
L 475.265415 333.316284 
L 477.498308 333.384122 
L 477.701299 335.240436 
L 479.934192 335.308275 
L 480.137182 337.164588 
L 482.370075 337.232427 
L 482.573066 339.08874 
L 485.008949 339.162746 
L 485.211939 341.01906 
L 487.444832 341.086899 
L 487.647823 342.943212 
L 490.083706 343.017218 
L 490.286696 344.873532 
L 492.72258 344.947537 
L 492.92557 346.803851 
L 495.361454 346.877857 
L 495.564444 348.734171 
L 498.000327 348.808176 
L 498.203318 350.66449 
L 500.639201 350.738496 
L 500.842191 352.594809 
L 503.278075 352.668815 
L 503.481065 354.525129 
L 505.916949 354.599135 
L 506.119939 356.455448 
L 508.555822 356.529454 
L 508.758813 358.385768 
L 511.194696 358.459774 
L 511.397686 360.316087 
L 513.83357 360.390093 
L 514.03656 362.246407 
L 516.472444 362.320412 
L 516.675434 364.176726 
L 519.111317 364.250732 
L 519.314308 366.107045 
L 521.750191 366.181051 
L 521.953181 368.037365 
L 524.389065 368.111371 
L 524.592055 369.967684 
L 527.027938 370.04169 
L 527.230929 371.898004 
L 529.666812 371.97201 
L 529.869802 373.828323 
L 532.305686 373.902329 
L 532.508676 375.758643 
L 534.94456 375.832648 
L 535.14755 377.688962 
L 537.380443 377.756801 
L 537.583433 379.613114 
L 540.019317 379.68712 
L 540.222307 381.543434 
L 542.861181 381.623607 
L 543.064171 383.47992 
L 545.500055 383.553926 
L 545.703045 385.41024 
L 548.138928 385.484246 
L 548.341919 387.340559 
L 550.777802 387.414565 
L 550.980792 389.270879 
L 553.416676 389.344884 
L 553.619666 391.201198 
L 556.055549 391.275204 
L 556.25854 393.131517 
L 558.694423 393.205523 
L 558.897414 395.061837 
L 561.333297 395.135843 
L 561.536287 396.992156 
L 563.972171 397.066162 
L 564.175161 398.922476 
L 565.393103 398.959479 
L 565.596093 397.41769 
L 565.799083 397.726048 
L 568.234967 397.800054 
L 568.437957 399.656367 
L 570.87384 399.730373 
L 571.076831 401.586687 
L 572.294772 401.62369 
L 572.497763 403.165478 
L 573.309724 403.190147 
L 573.512714 405.04646 
L 578.181491 405.188305 
L 578.384481 407.044619 
L 580.820365 407.118624 
L 581.023355 408.974938 
L 582.850267 409.030442 
L 583.053258 410.886756 
L 584.67718 410.936093 
L 584.88017 414.328028 
L 587.316054 414.402034 
L 587.519044 416.258348 
L 589.954927 416.332354 
L 590.157918 418.188667 
L 591.57885 418.231837 
L 591.78184 444.442245 
L 592.999782 444.479248 
L 593.202772 446.335561 
L 594.826694 446.384899 
L 595.029685 448.241212 
L 596.247626 448.278215 
L 596.450617 450.134529 
L 597.668558 450.171532 
L 597.871549 452.027845 
L 599.08949 452.064848 
L 599.292481 453.921162 
L 600.510422 453.958165 
L 600.713413 455.814478 
L 601.931354 455.851481 
L 602.134345 457.707795 
L 603.758267 457.757132 
L 603.961257 459.613446 
L 605.179199 459.650448 
L 605.382189 461.506762 
L 606.600131 461.543765 
L 606.803121 463.400079 
L 608.021063 463.437081 
L 608.224053 465.293395 
L 609.441995 465.330398 
L 609.644985 467.186712 
L 610.862927 467.223715 
L 611.065917 469.080028 
L 612.283859 469.117031 
L 612.486849 470.973345 
L 613.704791 471.010348 
L 613.907781 472.866661 
L 615.125723 472.903664 
L 615.328713 474.759978 
L 616.546655 474.796981 
L 616.749645 476.653294 
L 617.967587 476.690297 
L 618.170577 478.546611 
L 619.388519 478.583614 
L 619.591509 480.439927 
L 620.809451 480.47693 
L 621.012441 482.333244 
L 622.230383 482.370247 
L 622.433373 484.22656 
L 622.636364 484.232727 
L 622.636364 484.232727 
" style="fill:none;stroke:#1f77b4;stroke-linecap:square;stroke-width:1.5;"/>
   </g>
   <g id="patch_3">
    <path d="M 90 504 
L 90 69.12 
" style="fill:none;stroke:#000000;stroke-linecap:square;stroke-linejoin:miter;stroke-width:0.8;"/>
   </g>
   <g id="patch_4">
    <path d="M 648 504 
L 648 69.12 
" style="fill:none;stroke:#000000;stroke-linecap:square;stroke-linejoin:miter;stroke-width:0.8;"/>
   </g>
   <g id="patch_5">
    <path d="M 90 504 
L 648 504 
" style="fill:none;stroke:#000000;stroke-linecap:square;stroke-linejoin:miter;stroke-width:0.8;"/>
   </g>
   <g id="patch_6">
    <path d="M 90 69.12 
L 648 69.12 
" style="fill:none;stroke:#000000;stroke-linecap:square;stroke-linejoin:miter;stroke-width:0.8;"/>
   </g>
  </g>
 </g>
 <defs>
  <clipPath id="p4473ecc729">
   <rect height="434.88" width="558" x="90" y="69.12"/>
  </clipPath>
 </defs>
</svg>
