<?xml version="1.0" encoding="utf-8" standalone="no"?>
<!DOCTYPE svg PUBLIC "-//W3C//DTD SVG 1.1//EN"
  "http://www.w3.org/Graphics/SVG/1.1/DTD/svg11.dtd">
<svg height="576pt" version="1.1" viewBox="0 0 720 576" width="720pt" xmlns="http://www.w3.org/2000/svg" xmlns:xlink="http://www.w3.org/1999/xlink">
 <metadata>
  <rdf:RDF xmlns:cc="http://creativecommons.org/ns#" xmlns:dc="http://purl.org/dc/elements/1.1/" xmlns:rdf="http://www.w3.org/1999/02/22-rdf-syntax-ns#">
   <cc:Work>
    <dc:type rdf:resource="http://purl.org/dc/dcmitype/StillImage"/>
    <dc:date>2022-01-19T22:12:17.211518</dc:date>
    <dc:format>image/svg+xml</dc:format>
    <dc:creator>
     <cc:Agent>
      <dc:title>Matplotlib v3.4.3, https://matplotlib.org/</dc:title>
     </cc:Agent>
    </dc:creator>
   </cc:Work>
  </rdf:RDF>
 </metadata>
 <defs>
  <style type="text/css">*{stroke-linecap:butt;stroke-linejoin:round;}</style>
 </defs>
 <g id="figure_1">
  <g id="patch_1">
   <path d="M 0 576 
L 720 576 
L 720 0 
L 0 0 
z
" style="fill:none;"/>
  </g>
  <g id="axes_1">
   <g id="patch_2">
    <path d="M 90 504 
L 648 504 
L 648 69.12 
L 90 69.12 
z
" style="fill:#ffffff;"/>
   </g>
   <g id="matplotlib.axis_1">
    <g id="xtick_1">
     <g id="line2d_1">
      <defs>
       <path d="M 0 0 
L 0 3.5 
" id="m84326b8150" style="stroke:#000000;stroke-width:0.8;"/>
      </defs>
      <g>
       <use style="stroke:#000000;stroke-width:0.8;" x="115.363636" xlink:href="#m84326b8150" y="504"/>
      </g>
     </g>
     <g id="text_1">
      <!-- 0 -->
      <g transform="translate(108.364886 527.716563)scale(0.22 -0.22)">
       <defs>
        <path d="M 2034 4250 
Q 1547 4250 1301 3770 
Q 1056 3291 1056 2328 
Q 1056 1369 1301 889 
Q 1547 409 2034 409 
Q 2525 409 2770 889 
Q 3016 1369 3016 2328 
Q 3016 3291 2770 3770 
Q 2525 4250 2034 4250 
z
M 2034 4750 
Q 2819 4750 3233 4129 
Q 3647 3509 3647 2328 
Q 3647 1150 3233 529 
Q 2819 -91 2034 -91 
Q 1250 -91 836 529 
Q 422 1150 422 2328 
Q 422 3509 836 4129 
Q 1250 4750 2034 4750 
z
" id="DejaVuSans-30" transform="scale(0.015625)"/>
       </defs>
       <use xlink:href="#DejaVuSans-30"/>
      </g>
     </g>
    </g>
    <g id="xtick_2">
     <g id="line2d_2">
      <g>
       <use style="stroke:#000000;stroke-width:0.8;" x="216.85878" xlink:href="#m84326b8150" y="504"/>
      </g>
     </g>
     <g id="text_2">
      <!-- 500 -->
      <g transform="translate(195.86253 527.716563)scale(0.22 -0.22)">
       <defs>
        <path d="M 691 4666 
L 3169 4666 
L 3169 4134 
L 1269 4134 
L 1269 2991 
Q 1406 3038 1543 3061 
Q 1681 3084 1819 3084 
Q 2600 3084 3056 2656 
Q 3513 2228 3513 1497 
Q 3513 744 3044 326 
Q 2575 -91 1722 -91 
Q 1428 -91 1123 -41 
Q 819 9 494 109 
L 494 744 
Q 775 591 1075 516 
Q 1375 441 1709 441 
Q 2250 441 2565 725 
Q 2881 1009 2881 1497 
Q 2881 1984 2565 2268 
Q 2250 2553 1709 2553 
Q 1456 2553 1204 2497 
Q 953 2441 691 2322 
L 691 4666 
z
" id="DejaVuSans-35" transform="scale(0.015625)"/>
       </defs>
       <use xlink:href="#DejaVuSans-35"/>
       <use x="63.623047" xlink:href="#DejaVuSans-30"/>
       <use x="127.246094" xlink:href="#DejaVuSans-30"/>
      </g>
     </g>
    </g>
    <g id="xtick_3">
     <g id="line2d_3">
      <g>
       <use style="stroke:#000000;stroke-width:0.8;" x="318.353923" xlink:href="#m84326b8150" y="504"/>
      </g>
     </g>
     <g id="text_3">
      <!-- 1000 -->
      <g transform="translate(290.358923 527.716563)scale(0.22 -0.22)">
       <defs>
        <path d="M 794 531 
L 1825 531 
L 1825 4091 
L 703 3866 
L 703 4441 
L 1819 4666 
L 2450 4666 
L 2450 531 
L 3481 531 
L 3481 0 
L 794 0 
L 794 531 
z
" id="DejaVuSans-31" transform="scale(0.015625)"/>
       </defs>
       <use xlink:href="#DejaVuSans-31"/>
       <use x="63.623047" xlink:href="#DejaVuSans-30"/>
       <use x="127.246094" xlink:href="#DejaVuSans-30"/>
       <use x="190.869141" xlink:href="#DejaVuSans-30"/>
      </g>
     </g>
    </g>
    <g id="xtick_4">
     <g id="line2d_4">
      <g>
       <use style="stroke:#000000;stroke-width:0.8;" x="419.849067" xlink:href="#m84326b8150" y="504"/>
      </g>
     </g>
     <g id="text_4">
      <!-- 1500 -->
      <g transform="translate(391.854067 527.716563)scale(0.22 -0.22)">
       <use xlink:href="#DejaVuSans-31"/>
       <use x="63.623047" xlink:href="#DejaVuSans-35"/>
       <use x="127.246094" xlink:href="#DejaVuSans-30"/>
       <use x="190.869141" xlink:href="#DejaVuSans-30"/>
      </g>
     </g>
    </g>
    <g id="xtick_5">
     <g id="line2d_5">
      <g>
       <use style="stroke:#000000;stroke-width:0.8;" x="521.34421" xlink:href="#m84326b8150" y="504"/>
      </g>
     </g>
     <g id="text_5">
      <!-- 2000 -->
      <g transform="translate(493.34921 527.716563)scale(0.22 -0.22)">
       <defs>
        <path d="M 1228 531 
L 3431 531 
L 3431 0 
L 469 0 
L 469 531 
Q 828 903 1448 1529 
Q 2069 2156 2228 2338 
Q 2531 2678 2651 2914 
Q 2772 3150 2772 3378 
Q 2772 3750 2511 3984 
Q 2250 4219 1831 4219 
Q 1534 4219 1204 4116 
Q 875 4013 500 3803 
L 500 4441 
Q 881 4594 1212 4672 
Q 1544 4750 1819 4750 
Q 2544 4750 2975 4387 
Q 3406 4025 3406 3419 
Q 3406 3131 3298 2873 
Q 3191 2616 2906 2266 
Q 2828 2175 2409 1742 
Q 1991 1309 1228 531 
z
" id="DejaVuSans-32" transform="scale(0.015625)"/>
       </defs>
       <use xlink:href="#DejaVuSans-32"/>
       <use x="63.623047" xlink:href="#DejaVuSans-30"/>
       <use x="127.246094" xlink:href="#DejaVuSans-30"/>
       <use x="190.869141" xlink:href="#DejaVuSans-30"/>
      </g>
     </g>
    </g>
    <g id="xtick_6">
     <g id="line2d_6">
      <g>
       <use style="stroke:#000000;stroke-width:0.8;" x="622.839354" xlink:href="#m84326b8150" y="504"/>
      </g>
     </g>
     <g id="text_6">
      <!-- 2500 -->
      <g transform="translate(594.844354 527.716563)scale(0.22 -0.22)">
       <use xlink:href="#DejaVuSans-32"/>
       <use x="63.623047" xlink:href="#DejaVuSans-35"/>
       <use x="127.246094" xlink:href="#DejaVuSans-30"/>
       <use x="190.869141" xlink:href="#DejaVuSans-30"/>
      </g>
     </g>
    </g>
    <g id="text_7">
     <!-- nr iteracji epizodu -->
     <g transform="translate(269.688906 553.008438)scale(0.22 -0.22)">
      <defs>
       <path d="M 3513 2113 
L 3513 0 
L 2938 0 
L 2938 2094 
Q 2938 2591 2744 2837 
Q 2550 3084 2163 3084 
Q 1697 3084 1428 2787 
Q 1159 2491 1159 1978 
L 1159 0 
L 581 0 
L 581 3500 
L 1159 3500 
L 1159 2956 
Q 1366 3272 1645 3428 
Q 1925 3584 2291 3584 
Q 2894 3584 3203 3211 
Q 3513 2838 3513 2113 
z
" id="DejaVuSans-6e" transform="scale(0.015625)"/>
       <path d="M 2631 2963 
Q 2534 3019 2420 3045 
Q 2306 3072 2169 3072 
Q 1681 3072 1420 2755 
Q 1159 2438 1159 1844 
L 1159 0 
L 581 0 
L 581 3500 
L 1159 3500 
L 1159 2956 
Q 1341 3275 1631 3429 
Q 1922 3584 2338 3584 
Q 2397 3584 2469 3576 
Q 2541 3569 2628 3553 
L 2631 2963 
z
" id="DejaVuSans-72" transform="scale(0.015625)"/>
       <path id="DejaVuSans-20" transform="scale(0.015625)"/>
       <path d="M 603 3500 
L 1178 3500 
L 1178 0 
L 603 0 
L 603 3500 
z
M 603 4863 
L 1178 4863 
L 1178 4134 
L 603 4134 
L 603 4863 
z
" id="DejaVuSans-69" transform="scale(0.015625)"/>
       <path d="M 1172 4494 
L 1172 3500 
L 2356 3500 
L 2356 3053 
L 1172 3053 
L 1172 1153 
Q 1172 725 1289 603 
Q 1406 481 1766 481 
L 2356 481 
L 2356 0 
L 1766 0 
Q 1100 0 847 248 
Q 594 497 594 1153 
L 594 3053 
L 172 3053 
L 172 3500 
L 594 3500 
L 594 4494 
L 1172 4494 
z
" id="DejaVuSans-74" transform="scale(0.015625)"/>
       <path d="M 3597 1894 
L 3597 1613 
L 953 1613 
Q 991 1019 1311 708 
Q 1631 397 2203 397 
Q 2534 397 2845 478 
Q 3156 559 3463 722 
L 3463 178 
Q 3153 47 2828 -22 
Q 2503 -91 2169 -91 
Q 1331 -91 842 396 
Q 353 884 353 1716 
Q 353 2575 817 3079 
Q 1281 3584 2069 3584 
Q 2775 3584 3186 3129 
Q 3597 2675 3597 1894 
z
M 3022 2063 
Q 3016 2534 2758 2815 
Q 2500 3097 2075 3097 
Q 1594 3097 1305 2825 
Q 1016 2553 972 2059 
L 3022 2063 
z
" id="DejaVuSans-65" transform="scale(0.015625)"/>
       <path d="M 2194 1759 
Q 1497 1759 1228 1600 
Q 959 1441 959 1056 
Q 959 750 1161 570 
Q 1363 391 1709 391 
Q 2188 391 2477 730 
Q 2766 1069 2766 1631 
L 2766 1759 
L 2194 1759 
z
M 3341 1997 
L 3341 0 
L 2766 0 
L 2766 531 
Q 2569 213 2275 61 
Q 1981 -91 1556 -91 
Q 1019 -91 701 211 
Q 384 513 384 1019 
Q 384 1609 779 1909 
Q 1175 2209 1959 2209 
L 2766 2209 
L 2766 2266 
Q 2766 2663 2505 2880 
Q 2244 3097 1772 3097 
Q 1472 3097 1187 3025 
Q 903 2953 641 2809 
L 641 3341 
Q 956 3463 1253 3523 
Q 1550 3584 1831 3584 
Q 2591 3584 2966 3190 
Q 3341 2797 3341 1997 
z
" id="DejaVuSans-61" transform="scale(0.015625)"/>
       <path d="M 3122 3366 
L 3122 2828 
Q 2878 2963 2633 3030 
Q 2388 3097 2138 3097 
Q 1578 3097 1268 2742 
Q 959 2388 959 1747 
Q 959 1106 1268 751 
Q 1578 397 2138 397 
Q 2388 397 2633 464 
Q 2878 531 3122 666 
L 3122 134 
Q 2881 22 2623 -34 
Q 2366 -91 2075 -91 
Q 1284 -91 818 406 
Q 353 903 353 1747 
Q 353 2603 823 3093 
Q 1294 3584 2113 3584 
Q 2378 3584 2631 3529 
Q 2884 3475 3122 3366 
z
" id="DejaVuSans-63" transform="scale(0.015625)"/>
       <path d="M 603 3500 
L 1178 3500 
L 1178 -63 
Q 1178 -731 923 -1031 
Q 669 -1331 103 -1331 
L -116 -1331 
L -116 -844 
L 38 -844 
Q 366 -844 484 -692 
Q 603 -541 603 -63 
L 603 3500 
z
M 603 4863 
L 1178 4863 
L 1178 4134 
L 603 4134 
L 603 4863 
z
" id="DejaVuSans-6a" transform="scale(0.015625)"/>
       <path d="M 1159 525 
L 1159 -1331 
L 581 -1331 
L 581 3500 
L 1159 3500 
L 1159 2969 
Q 1341 3281 1617 3432 
Q 1894 3584 2278 3584 
Q 2916 3584 3314 3078 
Q 3713 2572 3713 1747 
Q 3713 922 3314 415 
Q 2916 -91 2278 -91 
Q 1894 -91 1617 61 
Q 1341 213 1159 525 
z
M 3116 1747 
Q 3116 2381 2855 2742 
Q 2594 3103 2138 3103 
Q 1681 3103 1420 2742 
Q 1159 2381 1159 1747 
Q 1159 1113 1420 752 
Q 1681 391 2138 391 
Q 2594 391 2855 752 
Q 3116 1113 3116 1747 
z
" id="DejaVuSans-70" transform="scale(0.015625)"/>
       <path d="M 353 3500 
L 3084 3500 
L 3084 2975 
L 922 459 
L 3084 459 
L 3084 0 
L 275 0 
L 275 525 
L 2438 3041 
L 353 3041 
L 353 3500 
z
" id="DejaVuSans-7a" transform="scale(0.015625)"/>
       <path d="M 1959 3097 
Q 1497 3097 1228 2736 
Q 959 2375 959 1747 
Q 959 1119 1226 758 
Q 1494 397 1959 397 
Q 2419 397 2687 759 
Q 2956 1122 2956 1747 
Q 2956 2369 2687 2733 
Q 2419 3097 1959 3097 
z
M 1959 3584 
Q 2709 3584 3137 3096 
Q 3566 2609 3566 1747 
Q 3566 888 3137 398 
Q 2709 -91 1959 -91 
Q 1206 -91 779 398 
Q 353 888 353 1747 
Q 353 2609 779 3096 
Q 1206 3584 1959 3584 
z
" id="DejaVuSans-6f" transform="scale(0.015625)"/>
       <path d="M 2906 2969 
L 2906 4863 
L 3481 4863 
L 3481 0 
L 2906 0 
L 2906 525 
Q 2725 213 2448 61 
Q 2172 -91 1784 -91 
Q 1150 -91 751 415 
Q 353 922 353 1747 
Q 353 2572 751 3078 
Q 1150 3584 1784 3584 
Q 2172 3584 2448 3432 
Q 2725 3281 2906 2969 
z
M 947 1747 
Q 947 1113 1208 752 
Q 1469 391 1925 391 
Q 2381 391 2643 752 
Q 2906 1113 2906 1747 
Q 2906 2381 2643 2742 
Q 2381 3103 1925 3103 
Q 1469 3103 1208 2742 
Q 947 2381 947 1747 
z
" id="DejaVuSans-64" transform="scale(0.015625)"/>
       <path d="M 544 1381 
L 544 3500 
L 1119 3500 
L 1119 1403 
Q 1119 906 1312 657 
Q 1506 409 1894 409 
Q 2359 409 2629 706 
Q 2900 1003 2900 1516 
L 2900 3500 
L 3475 3500 
L 3475 0 
L 2900 0 
L 2900 538 
Q 2691 219 2414 64 
Q 2138 -91 1772 -91 
Q 1169 -91 856 284 
Q 544 659 544 1381 
z
M 1991 3584 
L 1991 3584 
z
" id="DejaVuSans-75" transform="scale(0.015625)"/>
      </defs>
      <use xlink:href="#DejaVuSans-6e"/>
      <use x="63.378906" xlink:href="#DejaVuSans-72"/>
      <use x="104.492188" xlink:href="#DejaVuSans-20"/>
      <use x="136.279297" xlink:href="#DejaVuSans-69"/>
      <use x="164.0625" xlink:href="#DejaVuSans-74"/>
      <use x="203.271484" xlink:href="#DejaVuSans-65"/>
      <use x="264.794922" xlink:href="#DejaVuSans-72"/>
      <use x="305.908203" xlink:href="#DejaVuSans-61"/>
      <use x="367.1875" xlink:href="#DejaVuSans-63"/>
      <use x="422.167969" xlink:href="#DejaVuSans-6a"/>
      <use x="449.951172" xlink:href="#DejaVuSans-69"/>
      <use x="477.734375" xlink:href="#DejaVuSans-20"/>
      <use x="509.521484" xlink:href="#DejaVuSans-65"/>
      <use x="571.044922" xlink:href="#DejaVuSans-70"/>
      <use x="634.521484" xlink:href="#DejaVuSans-69"/>
      <use x="662.304688" xlink:href="#DejaVuSans-7a"/>
      <use x="714.794922" xlink:href="#DejaVuSans-6f"/>
      <use x="775.976562" xlink:href="#DejaVuSans-64"/>
      <use x="839.453125" xlink:href="#DejaVuSans-75"/>
     </g>
    </g>
   </g>
   <g id="matplotlib.axis_2">
    <g id="ytick_1">
     <g id="line2d_7">
      <defs>
       <path d="M 0 0 
L -3.5 0 
" id="m606a4a88c9" style="stroke:#000000;stroke-width:0.8;"/>
      </defs>
      <g>
       <use style="stroke:#000000;stroke-width:0.8;" x="90" xlink:href="#m606a4a88c9" y="465.36649"/>
      </g>
     </g>
     <g id="text_8">
      <!-- 0 -->
      <g transform="translate(69.0025 473.724771)scale(0.22 -0.22)">
       <use xlink:href="#DejaVuSans-30"/>
      </g>
     </g>
    </g>
    <g id="ytick_2">
     <g id="line2d_8">
      <g>
       <use style="stroke:#000000;stroke-width:0.8;" x="90" xlink:href="#m606a4a88c9" y="406.324305"/>
      </g>
     </g>
     <g id="text_9">
      <!-- 1000 -->
      <g transform="translate(27.01 414.682586)scale(0.22 -0.22)">
       <use xlink:href="#DejaVuSans-31"/>
       <use x="63.623047" xlink:href="#DejaVuSans-30"/>
       <use x="127.246094" xlink:href="#DejaVuSans-30"/>
       <use x="190.869141" xlink:href="#DejaVuSans-30"/>
      </g>
     </g>
    </g>
    <g id="ytick_3">
     <g id="line2d_9">
      <g>
       <use style="stroke:#000000;stroke-width:0.8;" x="90" xlink:href="#m606a4a88c9" y="347.28212"/>
      </g>
     </g>
     <g id="text_10">
      <!-- 2000 -->
      <g transform="translate(27.01 355.640401)scale(0.22 -0.22)">
       <use xlink:href="#DejaVuSans-32"/>
       <use x="63.623047" xlink:href="#DejaVuSans-30"/>
       <use x="127.246094" xlink:href="#DejaVuSans-30"/>
       <use x="190.869141" xlink:href="#DejaVuSans-30"/>
      </g>
     </g>
    </g>
    <g id="ytick_4">
     <g id="line2d_10">
      <g>
       <use style="stroke:#000000;stroke-width:0.8;" x="90" xlink:href="#m606a4a88c9" y="288.239935"/>
      </g>
     </g>
     <g id="text_11">
      <!-- 3000 -->
      <g transform="translate(27.01 296.598216)scale(0.22 -0.22)">
       <defs>
        <path d="M 2597 2516 
Q 3050 2419 3304 2112 
Q 3559 1806 3559 1356 
Q 3559 666 3084 287 
Q 2609 -91 1734 -91 
Q 1441 -91 1130 -33 
Q 819 25 488 141 
L 488 750 
Q 750 597 1062 519 
Q 1375 441 1716 441 
Q 2309 441 2620 675 
Q 2931 909 2931 1356 
Q 2931 1769 2642 2001 
Q 2353 2234 1838 2234 
L 1294 2234 
L 1294 2753 
L 1863 2753 
Q 2328 2753 2575 2939 
Q 2822 3125 2822 3475 
Q 2822 3834 2567 4026 
Q 2313 4219 1838 4219 
Q 1578 4219 1281 4162 
Q 984 4106 628 3988 
L 628 4550 
Q 988 4650 1302 4700 
Q 1616 4750 1894 4750 
Q 2613 4750 3031 4423 
Q 3450 4097 3450 3541 
Q 3450 3153 3228 2886 
Q 3006 2619 2597 2516 
z
" id="DejaVuSans-33" transform="scale(0.015625)"/>
       </defs>
       <use xlink:href="#DejaVuSans-33"/>
       <use x="63.623047" xlink:href="#DejaVuSans-30"/>
       <use x="127.246094" xlink:href="#DejaVuSans-30"/>
       <use x="190.869141" xlink:href="#DejaVuSans-30"/>
      </g>
     </g>
    </g>
    <g id="ytick_5">
     <g id="line2d_11">
      <g>
       <use style="stroke:#000000;stroke-width:0.8;" x="90" xlink:href="#m606a4a88c9" y="229.19775"/>
      </g>
     </g>
     <g id="text_12">
      <!-- 4000 -->
      <g transform="translate(27.01 237.556031)scale(0.22 -0.22)">
       <defs>
        <path d="M 2419 4116 
L 825 1625 
L 2419 1625 
L 2419 4116 
z
M 2253 4666 
L 3047 4666 
L 3047 1625 
L 3713 1625 
L 3713 1100 
L 3047 1100 
L 3047 0 
L 2419 0 
L 2419 1100 
L 313 1100 
L 313 1709 
L 2253 4666 
z
" id="DejaVuSans-34" transform="scale(0.015625)"/>
       </defs>
       <use xlink:href="#DejaVuSans-34"/>
       <use x="63.623047" xlink:href="#DejaVuSans-30"/>
       <use x="127.246094" xlink:href="#DejaVuSans-30"/>
       <use x="190.869141" xlink:href="#DejaVuSans-30"/>
      </g>
     </g>
    </g>
    <g id="ytick_6">
     <g id="line2d_12">
      <g>
       <use style="stroke:#000000;stroke-width:0.8;" x="90" xlink:href="#m606a4a88c9" y="170.155565"/>
      </g>
     </g>
     <g id="text_13">
      <!-- 5000 -->
      <g transform="translate(27.01 178.513846)scale(0.22 -0.22)">
       <use xlink:href="#DejaVuSans-35"/>
       <use x="63.623047" xlink:href="#DejaVuSans-30"/>
       <use x="127.246094" xlink:href="#DejaVuSans-30"/>
       <use x="190.869141" xlink:href="#DejaVuSans-30"/>
      </g>
     </g>
    </g>
    <g id="ytick_7">
     <g id="line2d_13">
      <g>
       <use style="stroke:#000000;stroke-width:0.8;" x="90" xlink:href="#m606a4a88c9" y="111.11338"/>
      </g>
     </g>
     <g id="text_14">
      <!-- 6000 -->
      <g transform="translate(27.01 119.471661)scale(0.22 -0.22)">
       <defs>
        <path d="M 2113 2584 
Q 1688 2584 1439 2293 
Q 1191 2003 1191 1497 
Q 1191 994 1439 701 
Q 1688 409 2113 409 
Q 2538 409 2786 701 
Q 3034 994 3034 1497 
Q 3034 2003 2786 2293 
Q 2538 2584 2113 2584 
z
M 3366 4563 
L 3366 3988 
Q 3128 4100 2886 4159 
Q 2644 4219 2406 4219 
Q 1781 4219 1451 3797 
Q 1122 3375 1075 2522 
Q 1259 2794 1537 2939 
Q 1816 3084 2150 3084 
Q 2853 3084 3261 2657 
Q 3669 2231 3669 1497 
Q 3669 778 3244 343 
Q 2819 -91 2113 -91 
Q 1303 -91 875 529 
Q 447 1150 447 2328 
Q 447 3434 972 4092 
Q 1497 4750 2381 4750 
Q 2619 4750 2861 4703 
Q 3103 4656 3366 4563 
z
" id="DejaVuSans-36" transform="scale(0.015625)"/>
       </defs>
       <use xlink:href="#DejaVuSans-36"/>
       <use x="63.623047" xlink:href="#DejaVuSans-30"/>
       <use x="127.246094" xlink:href="#DejaVuSans-30"/>
       <use x="190.869141" xlink:href="#DejaVuSans-30"/>
      </g>
     </g>
    </g>
    <g id="text_15">
     <!-- wartość funkcji nagrody -->
     <g transform="translate(18.434687 418.171562)rotate(-90)scale(0.22 -0.22)">
      <defs>
       <path d="M 269 3500 
L 844 3500 
L 1563 769 
L 2278 3500 
L 2956 3500 
L 3675 769 
L 4391 3500 
L 4966 3500 
L 4050 0 
L 3372 0 
L 2619 2869 
L 1863 0 
L 1184 0 
L 269 3500 
z
" id="DejaVuSans-77" transform="scale(0.015625)"/>
       <path d="M 2242 5119 
L 2864 5119 
L 1846 3944 
L 1367 3944 
L 2242 5119 
z
M 2834 3397 
L 2834 2853 
Q 2591 2978 2328 3040 
Q 2066 3103 1784 3103 
Q 1356 3103 1142 2972 
Q 928 2841 928 2578 
Q 928 2378 1081 2264 
Q 1234 2150 1697 2047 
L 1894 2003 
Q 2506 1872 2764 1633 
Q 3022 1394 3022 966 
Q 3022 478 2636 193 
Q 2250 -91 1575 -91 
Q 1294 -91 989 -36 
Q 684 19 347 128 
L 347 722 
Q 666 556 975 473 
Q 1284 391 1588 391 
Q 1994 391 2212 530 
Q 2431 669 2431 922 
Q 2431 1156 2273 1281 
Q 2116 1406 1581 1522 
L 1381 1569 
Q 847 1681 609 1914 
Q 372 2147 372 2553 
Q 372 3047 722 3315 
Q 1072 3584 1716 3584 
Q 2034 3584 2315 3537 
Q 2597 3491 2834 3397 
z
" id="DejaVuSans-15b" transform="scale(0.015625)"/>
       <path d="M 3122 3366 
L 3122 2828 
Q 2878 2963 2633 3030 
Q 2388 3097 2138 3097 
Q 1578 3097 1268 2742 
Q 959 2388 959 1747 
Q 959 1106 1268 751 
Q 1578 397 2138 397 
Q 2388 397 2633 464 
Q 2878 531 3122 666 
L 3122 134 
Q 2881 22 2623 -34 
Q 2366 -91 2075 -91 
Q 1284 -91 818 406 
Q 353 903 353 1747 
Q 353 2603 823 3093 
Q 1294 3584 2113 3584 
Q 2378 3584 2631 3529 
Q 2884 3475 3122 3366 
z
M 2466 5119 
L 3088 5119 
L 2070 3944 
L 1591 3944 
L 2466 5119 
z
" id="DejaVuSans-107" transform="scale(0.015625)"/>
       <path d="M 2375 4863 
L 2375 4384 
L 1825 4384 
Q 1516 4384 1395 4259 
Q 1275 4134 1275 3809 
L 1275 3500 
L 2222 3500 
L 2222 3053 
L 1275 3053 
L 1275 0 
L 697 0 
L 697 3053 
L 147 3053 
L 147 3500 
L 697 3500 
L 697 3744 
Q 697 4328 969 4595 
Q 1241 4863 1831 4863 
L 2375 4863 
z
" id="DejaVuSans-66" transform="scale(0.015625)"/>
       <path d="M 581 4863 
L 1159 4863 
L 1159 1991 
L 2875 3500 
L 3609 3500 
L 1753 1863 
L 3688 0 
L 2938 0 
L 1159 1709 
L 1159 0 
L 581 0 
L 581 4863 
z
" id="DejaVuSans-6b" transform="scale(0.015625)"/>
       <path d="M 2906 1791 
Q 2906 2416 2648 2759 
Q 2391 3103 1925 3103 
Q 1463 3103 1205 2759 
Q 947 2416 947 1791 
Q 947 1169 1205 825 
Q 1463 481 1925 481 
Q 2391 481 2648 825 
Q 2906 1169 2906 1791 
z
M 3481 434 
Q 3481 -459 3084 -895 
Q 2688 -1331 1869 -1331 
Q 1566 -1331 1297 -1286 
Q 1028 -1241 775 -1147 
L 775 -588 
Q 1028 -725 1275 -790 
Q 1522 -856 1778 -856 
Q 2344 -856 2625 -561 
Q 2906 -266 2906 331 
L 2906 616 
Q 2728 306 2450 153 
Q 2172 0 1784 0 
Q 1141 0 747 490 
Q 353 981 353 1791 
Q 353 2603 747 3093 
Q 1141 3584 1784 3584 
Q 2172 3584 2450 3431 
Q 2728 3278 2906 2969 
L 2906 3500 
L 3481 3500 
L 3481 434 
z
" id="DejaVuSans-67" transform="scale(0.015625)"/>
       <path d="M 2059 -325 
Q 1816 -950 1584 -1140 
Q 1353 -1331 966 -1331 
L 506 -1331 
L 506 -850 
L 844 -850 
Q 1081 -850 1212 -737 
Q 1344 -625 1503 -206 
L 1606 56 
L 191 3500 
L 800 3500 
L 1894 763 
L 2988 3500 
L 3597 3500 
L 2059 -325 
z
" id="DejaVuSans-79" transform="scale(0.015625)"/>
      </defs>
      <use xlink:href="#DejaVuSans-77"/>
      <use x="81.787109" xlink:href="#DejaVuSans-61"/>
      <use x="143.066406" xlink:href="#DejaVuSans-72"/>
      <use x="184.179688" xlink:href="#DejaVuSans-74"/>
      <use x="223.388672" xlink:href="#DejaVuSans-6f"/>
      <use x="284.570312" xlink:href="#DejaVuSans-15b"/>
      <use x="336.669922" xlink:href="#DejaVuSans-107"/>
      <use x="391.650391" xlink:href="#DejaVuSans-20"/>
      <use x="423.4375" xlink:href="#DejaVuSans-66"/>
      <use x="458.642578" xlink:href="#DejaVuSans-75"/>
      <use x="522.021484" xlink:href="#DejaVuSans-6e"/>
      <use x="585.400391" xlink:href="#DejaVuSans-6b"/>
      <use x="643.310547" xlink:href="#DejaVuSans-63"/>
      <use x="698.291016" xlink:href="#DejaVuSans-6a"/>
      <use x="726.074219" xlink:href="#DejaVuSans-69"/>
      <use x="753.857422" xlink:href="#DejaVuSans-20"/>
      <use x="785.644531" xlink:href="#DejaVuSans-6e"/>
      <use x="849.023438" xlink:href="#DejaVuSans-61"/>
      <use x="910.302734" xlink:href="#DejaVuSans-67"/>
      <use x="973.779297" xlink:href="#DejaVuSans-72"/>
      <use x="1012.642578" xlink:href="#DejaVuSans-6f"/>
      <use x="1073.824219" xlink:href="#DejaVuSans-64"/>
      <use x="1137.300781" xlink:href="#DejaVuSans-79"/>
     </g>
    </g>
   </g>
   <g id="line2d_14">
    <path clip-path="url(#pfe95bcf946)" d="M 115.363636 483.19723 
L 119.220452 484.220223 
L 119.626432 481.25474 
L 120.032413 482.010126 
L 120.641384 482.340737 
L 121.453345 482.458608 
L 122.265306 482.346433 
L 122.874277 482.019084 
L 123.077267 481.788807 
L 123.280258 481.345023 
L 123.483248 393.011962 
L 123.686238 197.773212 
L 124.092219 202.395955 
L 124.498199 203.593005 
L 124.70119 203.762963 
L 124.90418 203.752272 
L 125.31016 203.316212 
L 125.716141 202.418865 
L 126.122122 201.06844 
L 126.528102 199.152791 
L 126.934083 196.276034 
L 127.137073 194.054707 
L 127.340063 190.182723 
L 127.746044 246.1818 
L 128.152024 249.619818 
L 128.558005 250.562362 
L 128.760995 250.701062 
L 128.963986 250.695519 
L 129.369966 250.345988 
L 129.775947 249.61188 
L 130.181927 248.494513 
L 130.587908 246.897242 
L 130.993888 244.482449 
L 131.196879 242.6026 
L 131.399869 239.256396 
L 131.80585 267.363748 
L 132.21183 270.226476 
L 132.617811 271.024194 
L 133.023791 271.140834 
L 133.429772 270.851827 
L 133.835752 270.238692 
L 134.241733 269.298976 
L 134.647714 267.943503 
L 135.053694 265.866062 
L 135.256684 264.221875 
L 135.459675 261.204542 
L 136.068646 280.046353 
L 136.474626 281.335952 
L 136.880607 281.700219 
L 137.286587 281.607808 
L 137.692568 281.188903 
L 138.098549 280.472898 
L 138.504529 279.421094 
L 138.91051 277.879961 
L 139.31649 275.247666 
L 139.519481 272.385737 
L 140.128451 287.267034 
L 140.534432 288.43339 
L 140.940413 288.763957 
L 141.346393 288.685399 
L 141.752374 288.316084 
L 142.158354 287.681502 
L 142.564335 286.744187 
L 142.970315 285.359554 
L 143.376296 282.957943 
L 143.579286 280.261996 
L 143.782277 283.896886 
L 143.985267 290.228668 
L 144.391247 292.272565 
L 144.797228 292.881858 
L 145.203209 292.979799 
L 145.609189 292.760454 
L 146.01517 292.280552 
L 146.42115 291.534023 
L 146.827131 290.445202 
L 147.233111 288.755528 
L 147.436102 287.394811 
L 147.639092 284.773544 
L 147.842082 287.76591 
L 148.045073 293.332774 
L 148.451053 295.228112 
L 148.857034 295.791832 
L 149.263014 295.884879 
L 149.668995 295.689208 
L 150.074975 295.256952 
L 150.480956 294.581245 
L 150.886937 293.589751 
L 151.292917 292.036002 
L 151.495907 290.768411 
L 151.698898 288.257293 
L 151.901888 290.401129 
L 152.104878 295.036547 
L 152.510859 296.792117 
L 152.916839 297.329502 
L 153.32282 297.420328 
L 153.728801 297.230925 
L 154.134781 296.809507 
L 154.540762 296.148909 
L 154.946742 295.178824 
L 155.352723 293.659377 
L 155.555713 292.419757 
L 155.758703 289.947315 
L 155.961694 291.784307 
L 156.164684 296.024833 
L 156.570665 297.671349 
L 156.976645 298.170504 
L 157.382626 298.257432 
L 157.788606 298.089353 
L 158.194587 297.710413 
L 158.600567 297.11286 
L 159.006548 296.229671 
L 159.412529 294.832245 
L 159.615519 293.676211 
L 159.818509 291.293289 
L 160.0215 292.534784 
L 160.22449 296.111921 
L 160.63047 297.642663 
L 161.036451 298.123085 
L 161.442432 298.208499 
L 161.848412 298.04347 
L 162.254393 297.669562 
L 162.660373 297.078882 
L 163.066354 296.205621 
L 163.472334 294.825124 
L 163.675325 293.683796 
L 163.878315 291.31876 
L 164.081305 292.392363 
L 164.284296 295.724814 
L 164.690276 297.136487 
L 165.096257 297.560219 
L 165.502237 297.640806 
L 165.908218 297.507717 
L 166.314198 297.195713 
L 166.923169 296.360925 
L 167.32915 295.432798 
L 167.73513 293.73393 
L 167.938121 291.486909 
L 168.141111 291.857306 
L 168.344101 294.387644 
L 168.750082 295.642004 
L 169.156062 296.051244 
L 169.562043 296.130831 
L 169.968024 295.998307 
L 170.374004 295.687038 
L 170.982975 294.85369 
L 171.388956 293.927779 
L 171.794936 292.235282 
L 171.997926 289.988007 
L 172.200917 290.275857 
L 172.403907 292.78063 
L 172.809888 294.126266 
L 173.215868 294.572204 
L 173.621849 294.652924 
L 174.027829 294.516306 
L 174.43381 294.198391 
L 175.042781 293.349721 
L 175.448761 292.407214 
L 175.854742 290.683314 
L 176.057732 288.404209 
L 176.260722 288.777299 
L 176.463713 291.340448 
L 176.869693 292.610212 
L 177.275674 293.023318 
L 177.681654 293.102192 
L 178.087635 292.965966 
L 178.493616 292.648441 
L 179.102586 291.800399 
L 179.508567 290.859318 
L 179.914548 289.141071 
L 180.117538 286.863464 
L 180.320528 287.231403 
L 180.523518 289.929343 
L 180.929499 291.280859 
L 181.33548 291.721527 
L 181.74146 291.802611 
L 182.147441 291.657658 
L 182.553421 291.324665 
L 183.162392 290.440094 
L 183.568373 289.461008 
L 183.974353 287.678314 
L 184.177344 285.353487 
L 184.380334 285.841642 
L 184.583324 288.569773 
L 184.989305 289.892952 
L 185.395285 290.319751 
L 185.801266 290.398668 
L 186.207247 290.254154 
L 186.613227 289.921571 
L 187.222198 289.037655 
L 187.628179 288.060109 
L 188.034159 286.284252 
L 188.237149 283.971337 
L 188.44014 284.335063 
L 188.64313 286.923931 
L 189.049111 288.219158 
L 189.455091 288.641808 
L 189.861072 288.72001 
L 190.267052 288.573751 
L 190.673033 288.238894 
L 191.282004 287.350137 
L 191.687984 286.366652 
L 192.093965 284.5754 
L 192.296955 282.233655 
L 192.499945 282.699302 
L 192.702936 285.419343 
L 193.108916 286.743936 
L 193.514897 287.170915 
L 193.920877 287.249051 
L 194.326858 287.102997 
L 194.732839 286.768141 
L 195.341809 285.879104 
L 195.74779 284.89621 
L 196.153771 283.111081 
L 196.356761 280.75938 
L 196.559751 281.265526 
L 196.762741 284.080062 
L 197.168722 285.442465 
L 197.574703 285.881577 
L 197.980683 285.960487 
L 198.386664 285.810555 
L 198.792644 285.469221 
L 199.401615 284.565235 
L 199.807596 283.566249 
L 200.213576 281.749639 
L 200.416567 279.38441 
L 200.619557 279.88582 
L 200.822547 282.665794 
L 201.228528 284.010938 
L 201.634508 284.443004 
L 202.040489 284.520716 
L 202.446469 284.370805 
L 202.85245 284.029257 
L 203.461421 283.124507 
L 203.867402 282.125649 
L 204.273382 280.316007 
L 204.476372 277.951795 
L 204.679363 278.424622 
L 204.882353 281.192967 
L 205.288334 282.541882 
L 205.694314 282.97654 
L 206.100295 283.053212 
L 206.506275 282.891106 
L 206.912256 282.528306 
L 207.318236 281.955417 
L 207.724217 281.106194 
L 208.130198 279.754593 
L 208.333188 278.624328 
L 208.536178 276.205313 
L 208.739168 276.920283 
L 208.942159 279.977188 
L 209.348139 281.403641 
L 209.75412 281.856402 
L 210.1601 281.934686 
L 210.566081 281.773263 
L 210.972062 281.410509 
L 211.378042 280.837472 
L 211.784023 279.988419 
L 212.190003 278.639503 
L 212.392994 277.519922 
L 212.595984 275.114395 
L 212.798974 275.751952 
L 213.001964 278.72975 
L 213.407945 280.139878 
L 213.813926 280.589766 
L 214.219906 280.667316 
L 214.625887 280.504293 
L 215.031867 280.139947 
L 215.437848 279.565013 
L 215.843828 278.713074 
L 216.249809 277.35754 
L 216.452799 276.224193 
L 216.65579 273.798595 
L 216.85878 274.51223 
L 217.06177 277.573879 
L 217.467751 279.002697 
L 217.873731 279.455681 
L 218.279712 279.533273 
L 218.685692 279.370528 
L 219.091673 279.005895 
L 219.497654 278.430367 
L 219.903634 277.577992 
L 220.309615 276.224316 
L 220.512605 275.209405 
L 220.715595 272.93714 
L 220.918586 272.723083 
L 221.121576 274.677074 
L 221.527556 275.762528 
L 221.933537 276.126625 
L 222.339518 276.198536 
L 222.745498 276.079044 
L 223.354469 275.593577 
L 223.76045 275.036628 
L 224.16643 274.183144 
L 224.572411 272.587975 
L 224.775401 270.283387 
L 224.978391 270.093271 
L 225.181382 272.080086 
L 225.587362 273.176566 
L 225.993343 273.542761 
L 226.399323 273.614401 
L 226.805304 273.493811 
L 227.414275 273.004655 
L 227.820255 272.443995 
L 228.226236 271.585809 
L 228.632217 269.982727 
L 228.835207 267.665778 
L 229.038197 267.495371 
L 229.241187 269.518532 
L 229.647168 270.63057 
L 230.053149 271.00115 
L 230.459129 271.07239 
L 230.86511 270.94817 
L 231.474081 270.449461 
L 231.880061 269.879179 
L 232.286042 269.006994 
L 232.692022 267.381688 
L 232.895013 265.054457 
L 233.098003 264.902929 
L 233.300993 266.951539 
L 233.706974 268.071718 
L 233.909964 252.271928 
L 234.315945 252.471967 
L 234.721925 252.437309 
L 235.127906 252.225859 
L 235.736877 251.586454 
L 236.142857 250.878922 
L 236.548838 249.733721 
L 236.751828 248.746918 
L 236.954818 246.399057 
L 237.157809 246.261842 
L 237.360799 248.348331 
L 237.766779 249.485397 
L 238.17276 249.861948 
L 238.578741 249.932229 
L 238.984721 249.803035 
L 239.593692 249.290735 
L 239.999673 248.706847 
L 240.405653 247.815573 
L 240.811634 246.159049 
L 241.014624 243.803771 
L 241.217614 243.682009 
L 241.420605 245.788032 
L 241.826585 246.930883 
L 242.232566 247.308211 
L 242.638546 247.378138 
L 243.044527 247.24781 
L 243.653498 246.731648 
L 244.059478 246.143923 
L 244.465459 245.247843 
L 244.871439 243.585571 
L 245.07443 241.224183 
L 245.27742 241.117726 
L 245.48041 243.24878 
L 245.886391 244.401869 
L 246.292371 244.782001 
L 246.698352 244.851512 
L 247.104333 244.719252 
L 247.713304 244.198978 
L 248.119284 243.607286 
L 248.525265 242.705302 
L 248.931245 241.032163 
L 249.134236 238.666833 
L 249.337226 238.572038 
L 249.540216 240.71577 
L 249.946197 241.871926 
L 250.352177 242.252139 
L 250.758158 242.321266 
L 251.164138 242.187869 
L 251.773109 241.663647 
L 252.17909 241.068063 
L 252.58507 240.161233 
L 252.991051 238.482988 
L 253.194041 236.114394 
L 253.397032 236.037072 
L 253.600022 238.2051 
L 254.006002 239.370548 
L 254.411983 239.753219 
L 254.817964 239.821929 
L 255.223944 239.687435 
L 255.832915 239.161911 
L 256.238896 238.565284 
L 256.644876 237.656748 
L 257.050857 235.974115 
L 257.253847 233.60613 
L 257.456837 233.533355 
L 257.659828 235.702612 
L 258.065808 236.866767 
L 258.471789 237.248386 
L 258.877769 237.316671 
L 259.28375 237.181072 
L 259.892721 236.651512 
L 260.298701 236.050941 
L 260.704682 235.137529 
L 261.110662 233.450341 
L 261.313653 231.082074 
L 261.516643 231.030473 
L 261.719633 233.224836 
L 262.125614 234.397815 
L 262.531594 234.781669 
L 262.937575 234.849534 
L 263.343556 234.714442 
L 263.952526 234.189135 
L 264.358507 233.59327 
L 264.764488 232.686333 
L 265.170468 231.007606 
L 265.373458 228.647569 
L 265.576449 228.578536 
L 265.779439 230.743944 
L 266.18542 231.904773 
L 266.5914 232.284752 
L 266.997381 232.352115 
L 267.403361 232.21607 
L 268.012332 231.686624 
L 268.418313 231.086754 
L 268.824293 230.174894 
L 269.230274 228.492024 
L 269.433264 226.134806 
L 269.636255 226.091629 
L 269.839245 228.283884 
L 270.245225 229.453388 
L 270.651206 229.835457 
L 271.057187 229.902396 
L 271.463167 229.777092 
L 272.072138 229.287541 
L 272.478119 228.729047 
L 272.884099 227.87525 
L 273.29008 226.281087 
L 273.49307 223.96303 
L 273.69606 223.724802 
L 273.899051 225.670668 
L 274.305031 226.75079 
L 274.711012 227.108991 
L 275.116992 227.175025 
L 275.522973 227.050106 
L 276.131944 226.55619 
L 276.537924 225.993492 
L 276.943905 225.134439 
L 277.349885 223.535613 
L 277.552876 221.222353 
L 277.755866 221.010664 
L 277.958856 222.981571 
L 278.364837 224.069865 
L 278.770817 224.429939 
L 279.176798 224.495524 
L 279.785769 224.282589 
L 280.39474 223.737542 
L 280.80072 223.127446 
L 281.206701 222.126102 
L 281.409691 221.24631 
L 281.612681 218.973876 
L 281.815672 218.456866 
L 282.018662 220.065398 
L 282.424643 221.014703 
L 282.830623 221.338093 
L 283.236604 221.403076 
L 283.845575 221.190196 
L 284.454545 220.639911 
L 284.860526 220.024937 
L 285.266507 219.017933 
L 285.469497 218.135529 
L 285.672487 215.869363 
L 285.875477 215.376434 
L 286.078468 217.005159 
L 286.484448 217.961634 
L 286.890429 218.286603 
L 287.296409 218.351112 
L 287.90538 218.139318 
L 288.514351 217.592862 
L 288.920332 216.981996 
L 289.326312 215.980566 
L 289.529303 215.102063 
L 289.732293 212.845999 
L 289.935283 212.352923 
L 290.138273 213.970792 
L 290.544254 214.921156 
L 290.950235 215.243994 
L 291.356215 215.308127 
L 291.965186 215.093828 
L 292.574157 214.542182 
L 292.980138 213.926534 
L 293.386118 212.919673 
L 293.589108 212.038955 
L 293.792099 209.792578 
L 293.995089 209.328711 
L 294.198079 210.968897 
L 294.60406 211.926707 
L 295.01004 212.251129 
L 295.416021 212.314791 
L 296.024992 212.106231 
L 296.633963 211.568432 
L 297.039943 210.966979 
L 297.445924 209.980575 
L 297.648914 209.114726 
L 297.851904 206.885334 
L 298.054895 206.388288 
L 298.257885 207.97663 
L 298.663866 208.911776 
L 299.069846 209.229773 
L 299.475827 209.293137 
L 300.084798 209.082458 
L 300.693768 208.539539 
L 301.099749 207.933415 
L 301.50573 206.941785 
L 301.70872 206.074044 
L 301.91171 203.857875 
L 302.1147 203.39499 
L 302.317691 205.007415 
L 302.723671 205.95026 
L 303.129652 206.269847 
L 303.535632 206.332738 
L 304.144603 206.129919 
L 304.753574 205.605349 
L 305.159555 205.01796 
L 305.565535 204.053601 
L 305.768526 203.205914 
L 305.971516 201.011362 
L 306.174506 200.503135 
L 306.377496 202.046802 
L 306.783477 202.959889 
L 307.189458 203.271226 
L 307.595438 203.333903 
L 308.204409 203.129151 
L 308.81338 202.599553 
L 309.21936 202.007629 
L 309.625341 201.038263 
L 309.828331 200.188986 
L 310.031322 198.011432 
L 310.234312 197.542529 
L 310.437302 199.112023 
L 310.843283 200.033103 
L 311.249263 200.346046 
L 311.655244 200.408245 
L 312.264215 200.206042 
L 312.873186 199.683379 
L 313.279166 199.098812 
L 313.685147 198.140403 
L 313.888137 197.299824 
L 314.091127 195.144474 
L 314.294118 194.679132 
L 314.497108 196.230742 
L 314.903089 197.141755 
L 315.309069 197.451492 
L 315.71505 197.513387 
L 316.324021 197.308801 
L 316.932991 196.781184 
L 317.338972 196.192226 
L 317.744953 195.229124 
L 317.947943 194.387399 
L 318.150933 192.253483 
L 318.353923 191.835239 
L 318.556914 193.416735 
L 318.962894 194.336472 
L 319.368875 194.647915 
L 319.774855 194.709327 
L 320.383826 194.505025 
L 320.992797 193.979542 
L 321.398778 193.393222 
L 321.804758 192.434533 
L 322.007749 191.597333 
L 322.210739 189.489298 
L 322.413729 189.100523 
L 322.616719 190.688056 
L 323.0227 191.60629 
L 323.428681 191.916645 
L 323.834661 191.977692 
L 324.443632 191.770778 
L 325.052603 191.240372 
L 325.458583 190.649806 
L 325.864564 189.686842 
L 326.067554 188.849163 
L 326.270545 186.768386 
L 326.473535 186.43846 
L 326.676525 188.062979 
L 327.082506 188.991185 
L 327.488486 189.303429 
L 327.894467 189.36398 
L 328.503438 189.155495 
L 329.112409 188.623375 
L 329.518389 188.03173 
L 329.92437 187.068282 
L 330.12736 186.23252 
L 330.33035 184.185194 
L 330.533341 183.916054 
L 330.736331 185.572857 
L 331.142311 186.507538 
L 331.548292 186.820539 
L 331.954273 186.880633 
L 332.563243 186.669119 
L 333.172214 186.131805 
L 333.578195 185.535954 
L 333.984175 184.569037 
L 334.187166 183.734603 
L 334.390156 181.730412 
L 334.593146 181.5539 
L 334.796137 183.268965 
L 335.202117 184.217332 
L 335.608098 184.532783 
L 336.014078 184.59232 
L 336.623049 184.377611 
L 337.23202 183.835542 
L 337.638001 183.235959 
L 338.043981 182.265673 
L 338.246972 181.432428 
L 338.449962 179.470207 
L 338.652952 179.387988 
L 338.855942 181.163269 
L 339.261923 182.124245 
L 339.667904 182.441678 
L 340.073884 182.500725 
L 340.682855 182.282956 
L 341.291826 181.736023 
L 341.697806 181.132634 
L 342.103787 180.159429 
L 342.306777 179.327722 
L 342.509768 177.404207 
L 342.712758 177.41799 
L 342.915748 179.259741 
L 343.321729 180.234892 
L 343.727709 180.554814 
L 344.13369 180.613327 
L 344.742661 180.392293 
L 345.351632 179.840439 
L 345.757612 179.233177 
L 346.163593 178.256519 
L 346.366583 177.426094 
L 346.569573 175.540946 
L 346.772564 175.655303 
L 346.975554 177.567712 
L 347.381534 178.556281 
L 347.787515 178.878292 
L 348.193496 178.936329 
L 348.802466 178.71236 
L 349.411437 178.155954 
L 349.817418 177.545264 
L 350.223398 176.566371 
L 350.426389 175.73807 
L 350.629379 173.890363 
L 350.832369 174.112346 
L 351.03536 176.105036 
L 351.44134 177.108729 
L 351.847321 177.433307 
L 352.253301 177.490825 
L 352.862272 177.263628 
L 353.471243 176.702425 
L 353.877224 176.088068 
L 354.283204 175.106238 
L 354.486194 174.279873 
L 354.689185 172.469587 
L 354.892175 172.80581 
L 355.095165 174.884738 
L 355.501146 175.902691 
L 355.907126 176.2294 
L 356.313107 176.286459 
L 356.922078 176.056446 
L 357.531049 175.491011 
L 357.937029 174.873636 
L 358.34301 173.890367 
L 358.546 173.066888 
L 358.748991 171.293682 
L 358.951981 171.756289 
L 359.154971 173.935765 
L 359.560952 174.969991 
L 359.966932 175.299345 
L 360.372913 175.355901 
L 360.981884 175.122787 
L 361.590855 174.552892 
L 361.996835 173.932288 
L 362.402816 172.946968 
L 362.605806 172.126371 
L 362.808796 170.390555 
L 363.011787 170.989072 
L 363.214777 173.277659 
L 363.620757 174.327027 
L 364.026738 174.658515 
L 364.432719 174.714629 
L 364.838699 174.594604 
L 365.44767 174.136887 
L 366.056641 173.281948 
L 366.462621 172.296132 
L 366.665612 171.47936 
L 366.868602 169.780844 
L 367.071592 170.535238 
L 367.274583 172.954981 
L 367.680563 174.021926 
L 368.086544 174.356116 
L 368.492524 174.411749 
L 368.898505 174.29 
L 369.507476 173.828713 
L 370.116447 172.970026 
L 370.522427 171.983579 
L 370.725417 171.171016 
L 370.928408 169.510611 
L 371.131398 170.435167 
L 371.334388 172.998841 
L 371.740369 174.081687 
L 372.146349 174.417926 
L 372.55233 174.473144 
L 372.958311 174.349916 
L 373.567281 173.885394 
L 374.176252 173.023627 
L 374.582233 172.037844 
L 374.785223 171.230278 
L 374.988213 169.607975 
L 375.191204 170.737265 
L 375.394194 173.481646 
L 375.800175 174.583528 
L 376.206155 174.922489 
L 376.612136 174.977258 
L 377.018116 174.852823 
L 377.627087 174.386492 
L 378.236058 173.524077 
L 378.642039 172.541189 
L 378.845029 171.740642 
L 379.048019 170.159151 
L 379.251009 171.507489 
L 379.454 174.442917 
L 379.85998 175.559198 
L 380.265961 175.899529 
L 380.671942 175.95394 
L 381.077922 175.828239 
L 381.686893 175.359178 
L 382.295864 174.494754 
L 382.701844 173.514018 
L 382.904835 172.719947 
L 383.107825 171.178092 
L 383.310815 172.819098 
L 383.513806 176.023144 
L 383.919786 177.16009 
L 384.325767 177.503105 
L 384.731747 177.557118 
L 385.137728 177.429469 
L 385.746699 176.956051 
L 386.35567 176.087112 
L 386.76165 175.105829 
L 386.96464 174.316789 
L 387.167631 172.813436 
L 387.370621 174.844156 
L 387.573611 178.415088 
L 387.979592 179.576332 
L 388.385572 179.922493 
L 388.791553 179.976156 
L 389.197534 179.84733 
L 389.806504 179.372027 
L 390.415475 178.502811 
L 390.821456 177.525999 
L 391.024446 176.745615 
L 391.227436 175.284592 
L 391.430427 177.810746 
L 391.633417 181.851052 
L 392.039398 183.034556 
L 392.445378 183.383181 
L 392.851359 183.436567 
L 393.257339 183.306578 
L 393.86631 182.829378 
L 394.475281 181.959891 
L 394.881262 180.987275 
L 395.084252 180.215709 
L 395.287242 178.79805 
L 395.896213 187.587493 
L 396.302194 188.21504 
L 396.708174 188.393092 
L 397.114155 188.347128 
L 397.723126 187.980895 
L 398.332096 187.261452 
L 398.738077 186.495077 
L 399.144058 185.195369 
L 399.347048 183.830198 
L 399.956019 195.225577 
L 400.361999 195.859819 
L 400.76798 196.038436 
L 401.17396 195.992326 
L 401.782931 195.6266 
L 402.391902 194.910826 
L 402.797883 194.1516 
L 403.203863 192.875037 
L 403.406854 191.566239 
L 403.812834 207.438322 
L 404.218815 208.695218 
L 404.624795 209.04942 
L 405.030776 209.103508 
L 405.436757 208.975192 
L 406.045727 208.506407 
L 406.654698 207.660851 
L 407.060679 206.730489 
L 407.263669 206.010098 
L 407.466659 204.764512 
L 407.87264 233.310814 
L 408.278621 234.319447 
L 408.684601 234.615155 
L 409.090582 234.673273 
L 409.699553 234.496824 
L 410.308523 234.052282 
L 410.917494 233.248386 
L 411.323475 232.247888 
L 411.526465 231.205916 
L 411.932446 242.010261 
L 412.338426 243.017158 
L 412.744407 243.313757 
L 413.150387 243.372275 
L 413.759358 243.197785 
L 414.368329 242.758079 
L 414.9773 241.965527 
L 415.383281 240.986917 
L 415.586271 239.988181 
L 415.992251 257.302718 
L 416.398232 258.318301 
L 416.804213 258.613949 
L 417.210193 258.673543 
L 417.819164 258.504949 
L 418.428135 258.077053 
L 419.037106 257.306773 
L 419.443086 256.362032 
L 419.646077 255.416043 
L 419.849067 271.305023 
L 421.87897 272.435408 
L 422.893921 272.877192 
L 423.705882 273.033354 
L 423.908873 270.296184 
L 424.111863 241.270015 
L 424.517844 242.383349 
L 424.923824 242.691637 
L 425.329805 242.748802 
L 425.938776 242.564702 
L 426.547746 242.11293 
L 427.156717 241.313515 
L 427.562698 240.354681 
L 427.765688 239.434559 
L 428.171669 220.843997 
L 428.577649 222.034034 
L 428.98363 222.35286 
L 429.38961 222.407609 
L 429.998581 222.208576 
L 430.607552 221.732626 
L 431.216523 220.900157 
L 431.622504 219.914124 
L 431.825494 218.986794 
L 432.231474 207.492841 
L 432.637455 208.750066 
L 433.043436 209.07711 
L 433.449416 209.130238 
L 434.058387 208.920921 
L 434.667358 208.428756 
L 435.276329 207.574815 
L 435.682309 206.572715 
L 435.8853 205.644959 
L 436.29128 196.900902 
L 436.49427 197.8179 
L 436.900251 198.435839 
L 437.306232 198.603417 
L 437.712212 198.565775 
L 438.321183 198.250382 
L 438.930154 197.641516 
L 439.336134 197.010081 
L 439.742115 195.996827 
L 439.945105 195.072736 
L 440.351086 188.038974 
L 440.554076 189.005684 
L 440.960057 189.641464 
L 441.366037 189.81083 
L 441.772018 189.770067 
L 442.380989 189.445387 
L 442.98996 188.823651 
L 443.39594 188.18238 
L 443.801921 187.162053 
L 444.004911 186.247624 
L 444.410892 180.637655 
L 444.613882 181.669379 
L 445.019862 182.326459 
L 445.425843 182.497873 
L 445.831824 182.453617 
L 446.440794 182.118844 
L 447.049765 181.48409 
L 447.455746 180.8345 
L 447.861727 179.81303 
L 448.064717 178.918299 
L 448.470697 174.607804 
L 448.673688 175.734086 
L 449.079668 176.417678 
L 449.485649 176.591448 
L 449.891629 176.543556 
L 450.5006 176.19883 
L 451.109571 175.552086 
L 451.515552 174.895552 
L 451.921532 173.875472 
L 452.124523 173.002014 
L 452.327513 170.57972 
L 452.530503 169.625949 
L 452.733493 170.869562 
L 453.139474 171.582047 
L 453.545455 171.758275 
L 453.951435 171.706793 
L 454.560406 171.352508 
L 455.169377 170.694775 
L 455.778348 169.59039 
L 456.184328 168.16411 
L 456.387319 166.048575 
L 456.590309 165.515029 
L 456.793299 150.331615 
L 457.19928 151.078254 
L 457.60526 151.257326 
L 458.011241 151.201514 
L 458.620212 150.835517 
L 459.229183 150.163696 
L 459.838153 149.048554 
L 460.244134 147.641927 
L 460.447124 145.750312 
L 460.650115 145.605035 
L 460.853105 147.195989 
L 461.259085 147.977055 
L 461.665066 148.158805 
L 462.071047 148.099457 
L 462.680017 147.724488 
L 463.288988 147.04321 
L 463.897959 145.924787 
L 464.30394 144.545764 
L 464.50693 142.840559 
L 464.70992 143.111966 
L 464.912911 144.972259 
L 465.318891 145.791822 
L 465.724872 145.976446 
L 466.130852 145.913462 
L 466.739823 145.529387 
L 467.348794 144.838835 
L 467.957765 143.71821 
L 468.363745 142.368071 
L 468.566736 140.819016 
L 468.769726 141.617743 
L 468.972716 143.890786 
L 469.378697 144.747553 
L 469.784678 144.933546 
L 470.190658 144.868552 
L 470.799629 144.481863 
L 471.4086 143.792736 
L 472.017571 142.685803 
L 472.423551 141.379024 
L 472.626542 139.967274 
L 472.829532 141.455668 
L 473.032522 144.3231 
L 473.438503 145.221201 
L 473.844483 145.410112 
L 474.250464 145.341698 
L 474.859435 144.947084 
L 475.468406 144.251114 
L 476.077376 143.146061 
L 476.483357 141.869992 
L 476.686347 140.569237 
L 477.295318 148.404368 
L 477.701299 148.84158 
L 478.107279 148.880548 
L 479.122231 148.754851 
L 479.934192 148.395923 
L 480.340172 148.029339 
L 480.543163 147.687712 
L 480.949143 145.61155 
L 481.355124 146.231071 
L 481.964095 146.445641 
L 482.776056 146.427993 
L 483.588017 146.196253 
L 484.196988 145.823098 
L 484.602968 145.276311 
L 485.008949 143.500457 
L 485.41493 144.142575 
L 486.0239 144.358078 
L 486.835862 144.337819 
L 487.647823 144.102973 
L 488.256794 143.728866 
L 488.662774 143.188994 
L 489.068755 141.653765 
L 489.474735 142.320569 
L 490.083706 142.537016 
L 490.895667 142.514162 
L 491.707629 142.276262 
L 492.316599 141.901344 
L 492.72258 141.368541 
L 492.92557 140.418229 
L 493.128561 140.03526 
L 493.331551 140.52971 
L 493.737531 140.842031 
L 494.346502 140.963991 
L 495.158463 140.88147 
L 495.970425 140.581723 
L 496.579395 140.09841 
L 496.782386 139.779501 
L 496.985376 138.905232 
L 497.188366 138.617519 
L 497.391357 139.138649 
L 497.797337 139.456122 
L 498.406308 139.577498 
L 499.218269 139.492178 
L 500.03023 139.189856 
L 500.639201 138.707855 
L 500.842191 138.394275 
L 501.045182 137.582608 
L 501.248172 137.379801 
L 501.451162 137.930631 
L 501.857143 138.253415 
L 502.466114 138.374212 
L 503.278075 138.286118 
L 504.090036 137.981304 
L 504.699007 137.500719 
L 504.901997 137.192389 
L 505.104987 136.434391 
L 505.307978 136.31168 
L 505.510968 136.896414 
L 505.916949 137.224734 
L 506.525919 137.344956 
L 507.337881 137.25413 
L 508.149842 136.946942 
L 508.758813 136.467956 
L 508.961803 136.164826 
L 509.164793 135.45375 
L 509.367783 135.409854 
L 509.570774 136.034127 
L 509.976754 136.368301 
L 510.585725 136.487943 
L 511.397686 136.394384 
L 512.209647 136.084892 
L 512.818618 135.607592 
L 513.021609 135.309591 
L 513.224599 134.639969 
L 513.427589 134.676615 
L 513.63058 135.347797 
L 514.03656 135.688198 
L 514.645531 135.80725 
L 515.457492 135.710938 
L 516.269453 135.399223 
L 516.878424 134.923926 
L 517.081414 134.631235 
L 517.284405 133.999804 
L 517.487395 134.124655 
L 517.690385 134.854153 
L 518.096366 135.201319 
L 518.705337 135.31977 
L 519.517298 135.220696 
L 520.329259 134.906857 
L 520.93823 134.433655 
L 521.14122 134.146159 
L 521.34421 133.548657 
L 521.547201 133.770707 
L 521.750191 134.571939 
L 522.156172 134.926265 
L 522.765142 135.04412 
L 523.577104 134.942317 
L 524.389065 134.626467 
L 524.998036 134.155365 
L 525.201026 133.872873 
L 525.404016 133.305769 
L 525.607006 133.641446 
L 525.809997 134.534628 
L 526.215977 134.896742 
L 526.824948 135.013992 
L 527.636909 134.909345 
L 528.44887 134.591359 
L 529.057841 134.122531 
L 529.260832 133.845125 
L 529.463822 133.305824 
L 529.666812 133.781165 
L 529.869802 134.795211 
L 530.275783 135.165519 
L 530.884754 135.282166 
L 531.696715 135.17481 
L 532.508676 134.855065 
L 533.117647 134.389044 
L 533.320637 134.117011 
L 533.523628 133.604527 
L 533.726618 134.274947 
L 533.929608 135.46702 
L 534.335589 135.846496 
L 534.94456 135.962532 
L 535.756521 135.852494 
L 536.568482 135.531176 
L 537.177453 135.068207 
L 537.380443 134.801517 
L 537.583433 134.313477 
L 538.192404 136.990192 
L 538.598385 137.186845 
L 539.207356 137.22605 
L 540.019317 137.060291 
L 540.831278 136.675708 
L 541.237259 136.338549 
L 541.440249 136.077303 
L 541.643239 135.612101 
L 542.25221 139.244158 
L 542.658191 139.44279 
L 543.267161 139.480657 
L 544.079123 139.312885 
L 544.891084 138.928633 
L 545.297064 138.595095 
L 545.500055 138.339481 
L 545.703045 137.895719 
L 546.109025 143.276529 
L 546.515006 143.686753 
L 547.123977 143.801279 
L 547.935938 143.685191 
L 548.747899 143.362811 
L 549.35687 142.913121 
L 549.762851 142.240697 
L 550.168831 155.255709 
L 550.574812 155.674923 
L 551.183783 155.789607 
L 551.995744 155.675256 
L 552.807705 155.358539 
L 553.416676 154.91989 
L 553.822656 154.279388 
L 554.228637 123.325305 
L 554.634617 123.770496 
L 555.243588 123.882133 
L 556.055549 123.751565 
L 556.867511 123.41239 
L 557.476482 122.953574 
L 557.882462 122.305477 
L 558.288443 115.03703 
L 558.694423 115.501724 
L 559.303394 115.612009 
L 560.115355 115.474797 
L 560.927316 115.12836 
L 561.536287 114.666332 
L 561.942268 114.030565 
L 562.348248 109.928038 
L 562.754229 110.413109 
L 563.3632 110.522256 
L 564.175161 110.379601 
L 564.987122 110.027881 
L 565.596093 109.564956 
L 566.002074 108.943611 
L 566.408054 106.132577 
L 566.814035 106.640572 
L 567.423006 106.74862 
L 568.234967 106.600856 
L 569.046928 106.244623 
L 569.655899 105.781749 
L 570.061879 105.175272 
L 570.46786 103.074244 
L 570.87384 103.608273 
L 571.482811 103.715261 
L 572.294772 103.562615 
L 573.106734 103.202318 
L 573.715704 102.740039 
L 574.121685 102.147801 
L 574.527666 100.488547 
L 574.730656 100.898024 
L 575.136636 101.124024 
L 575.745607 101.140143 
L 576.557568 100.928257 
L 577.36953 100.507467 
L 577.9785 99.940848 
L 578.181491 99.595906 
L 578.384481 98.652252 
L 578.587471 98.251817 
L 578.790462 98.69085 
L 579.196442 98.921064 
L 579.805413 98.934598 
L 580.617374 98.718103 
L 581.429335 98.29452 
L 582.038306 97.732215 
L 582.241297 97.397038 
L 582.444287 96.561688 
L 582.647277 96.293418 
L 582.850267 96.767026 
L 583.256248 97.001692 
L 583.865219 97.012633 
L 584.67718 96.791595 
L 585.489141 96.365457 
L 586.098112 95.807735 
L 586.301102 95.481928 
L 586.504093 94.730556 
L 586.707083 94.577033 
L 586.910073 95.09198 
L 587.316054 95.331337 
L 587.925025 95.339701 
L 588.736986 95.114288 
L 589.548947 94.685715 
L 590.157918 94.132455 
L 590.360908 93.815422 
L 590.563898 93.130735 
L 590.766889 93.084061 
L 590.969879 93.649539 
L 591.375859 93.893924 
L 591.98483 93.899671 
L 592.796791 93.66987 
L 593.608753 93.238998 
L 594.217723 92.690291 
L 594.420714 92.381664 
L 594.623704 91.752026 
L 594.826694 91.813892 
L 595.029685 92.443208 
L 595.435665 92.693012 
L 596.044636 92.696132 
L 596.856597 92.462024 
L 597.668558 92.029034 
L 598.277529 91.484898 
L 598.480519 91.184252 
L 598.68351 90.600622 
L 598.8865 90.781057 
L 599.08949 91.493236 
L 599.495471 91.748859 
L 600.104442 91.749335 
L 600.916403 91.510984 
L 601.728364 91.07602 
L 602.337335 90.536529 
L 602.540325 90.243547 
L 602.743316 89.699339 
L 602.946306 90.022004 
L 603.149296 90.84737 
L 603.555277 91.109282 
L 604.164248 91.107103 
L 604.976209 90.864606 
L 605.78817 90.427888 
L 606.397141 89.893131 
L 606.600131 89.607495 
L 606.803121 89.097382 
L 607.006112 89.607472 
L 607.209102 90.596598 
L 607.615082 90.865293 
L 608.224053 90.860464 
L 609.036014 90.61396 
L 609.847976 90.175717 
L 610.456946 89.645842 
L 610.659937 89.367323 
L 610.862927 88.887273 
L 611.065917 89.678751 
L 611.268908 90.929683 
L 611.674888 91.205739 
L 612.283859 91.198293 
L 613.09582 90.947999 
L 613.907781 90.508641 
L 614.516752 89.98395 
L 614.922733 89.259114 
L 615.531704 92.497931 
L 615.937684 92.600962 
L 616.749645 92.463792 
L 617.764597 92.002219 
L 618.576558 91.354064 
L 618.982538 90.66062 
L 619.388519 96.213767 
L 619.7945 96.506038 
L 620.40347 96.494031 
L 621.215432 96.238312 
L 622.027393 95.799825 
L 622.636364 95.288346 
L 622.636364 95.288346 
" style="fill:none;stroke:#1f77b4;stroke-linecap:square;stroke-width:1.5;"/>
   </g>
   <g id="patch_3">
    <path d="M 90 504 
L 90 69.12 
" style="fill:none;stroke:#000000;stroke-linecap:square;stroke-linejoin:miter;stroke-width:0.8;"/>
   </g>
   <g id="patch_4">
    <path d="M 648 504 
L 648 69.12 
" style="fill:none;stroke:#000000;stroke-linecap:square;stroke-linejoin:miter;stroke-width:0.8;"/>
   </g>
   <g id="patch_5">
    <path d="M 90 504 
L 648 504 
" style="fill:none;stroke:#000000;stroke-linecap:square;stroke-linejoin:miter;stroke-width:0.8;"/>
   </g>
   <g id="patch_6">
    <path d="M 90 69.12 
L 648 69.12 
" style="fill:none;stroke:#000000;stroke-linecap:square;stroke-linejoin:miter;stroke-width:0.8;"/>
   </g>
  </g>
 </g>
 <defs>
  <clipPath id="pfe95bcf946">
   <rect height="434.88" width="558" x="90" y="69.12"/>
  </clipPath>
 </defs>
</svg>
