<?xml version="1.0" encoding="utf-8" standalone="no"?>
<!DOCTYPE svg PUBLIC "-//W3C//DTD SVG 1.1//EN"
  "http://www.w3.org/Graphics/SVG/1.1/DTD/svg11.dtd">
<svg height="576pt" version="1.1" viewBox="0 0 720 576" width="720pt" xmlns="http://www.w3.org/2000/svg" xmlns:xlink="http://www.w3.org/1999/xlink">
 <metadata>
  <rdf:RDF xmlns:cc="http://creativecommons.org/ns#" xmlns:dc="http://purl.org/dc/elements/1.1/" xmlns:rdf="http://www.w3.org/1999/02/22-rdf-syntax-ns#">
   <cc:Work>
    <dc:type rdf:resource="http://purl.org/dc/dcmitype/StillImage"/>
    <dc:date>2022-01-19T22:12:17.355080</dc:date>
    <dc:format>image/svg+xml</dc:format>
    <dc:creator>
     <cc:Agent>
      <dc:title>Matplotlib v3.4.3, https://matplotlib.org/</dc:title>
     </cc:Agent>
    </dc:creator>
   </cc:Work>
  </rdf:RDF>
 </metadata>
 <defs>
  <style type="text/css">*{stroke-linecap:butt;stroke-linejoin:round;}</style>
 </defs>
 <g id="figure_1">
  <g id="patch_1">
   <path d="M 0 576 
L 720 576 
L 720 0 
L 0 0 
z
" style="fill:none;"/>
  </g>
  <g id="axes_1">
   <g id="patch_2">
    <path d="M 90 504 
L 648 504 
L 648 69.12 
L 90 69.12 
z
" style="fill:#ffffff;"/>
   </g>
   <g id="matplotlib.axis_1">
    <g id="xtick_1">
     <g id="line2d_1">
      <defs>
       <path d="M 0 0 
L 0 3.5 
" id="m419be38fac" style="stroke:#000000;stroke-width:0.8;"/>
      </defs>
      <g>
       <use style="stroke:#000000;stroke-width:0.8;" x="115.363636" xlink:href="#m419be38fac" y="504"/>
      </g>
     </g>
     <g id="text_1">
      <!-- 0 -->
      <g transform="translate(108.364886 527.716563)scale(0.22 -0.22)">
       <defs>
        <path d="M 2034 4250 
Q 1547 4250 1301 3770 
Q 1056 3291 1056 2328 
Q 1056 1369 1301 889 
Q 1547 409 2034 409 
Q 2525 409 2770 889 
Q 3016 1369 3016 2328 
Q 3016 3291 2770 3770 
Q 2525 4250 2034 4250 
z
M 2034 4750 
Q 2819 4750 3233 4129 
Q 3647 3509 3647 2328 
Q 3647 1150 3233 529 
Q 2819 -91 2034 -91 
Q 1250 -91 836 529 
Q 422 1150 422 2328 
Q 422 3509 836 4129 
Q 1250 4750 2034 4750 
z
" id="DejaVuSans-30" transform="scale(0.015625)"/>
       </defs>
       <use xlink:href="#DejaVuSans-30"/>
      </g>
     </g>
    </g>
    <g id="xtick_2">
     <g id="line2d_2">
      <g>
       <use style="stroke:#000000;stroke-width:0.8;" x="216.85878" xlink:href="#m419be38fac" y="504"/>
      </g>
     </g>
     <g id="text_2">
      <!-- 500 -->
      <g transform="translate(195.86253 527.716563)scale(0.22 -0.22)">
       <defs>
        <path d="M 691 4666 
L 3169 4666 
L 3169 4134 
L 1269 4134 
L 1269 2991 
Q 1406 3038 1543 3061 
Q 1681 3084 1819 3084 
Q 2600 3084 3056 2656 
Q 3513 2228 3513 1497 
Q 3513 744 3044 326 
Q 2575 -91 1722 -91 
Q 1428 -91 1123 -41 
Q 819 9 494 109 
L 494 744 
Q 775 591 1075 516 
Q 1375 441 1709 441 
Q 2250 441 2565 725 
Q 2881 1009 2881 1497 
Q 2881 1984 2565 2268 
Q 2250 2553 1709 2553 
Q 1456 2553 1204 2497 
Q 953 2441 691 2322 
L 691 4666 
z
" id="DejaVuSans-35" transform="scale(0.015625)"/>
       </defs>
       <use xlink:href="#DejaVuSans-35"/>
       <use x="63.623047" xlink:href="#DejaVuSans-30"/>
       <use x="127.246094" xlink:href="#DejaVuSans-30"/>
      </g>
     </g>
    </g>
    <g id="xtick_3">
     <g id="line2d_3">
      <g>
       <use style="stroke:#000000;stroke-width:0.8;" x="318.353923" xlink:href="#m419be38fac" y="504"/>
      </g>
     </g>
     <g id="text_3">
      <!-- 1000 -->
      <g transform="translate(290.358923 527.716563)scale(0.22 -0.22)">
       <defs>
        <path d="M 794 531 
L 1825 531 
L 1825 4091 
L 703 3866 
L 703 4441 
L 1819 4666 
L 2450 4666 
L 2450 531 
L 3481 531 
L 3481 0 
L 794 0 
L 794 531 
z
" id="DejaVuSans-31" transform="scale(0.015625)"/>
       </defs>
       <use xlink:href="#DejaVuSans-31"/>
       <use x="63.623047" xlink:href="#DejaVuSans-30"/>
       <use x="127.246094" xlink:href="#DejaVuSans-30"/>
       <use x="190.869141" xlink:href="#DejaVuSans-30"/>
      </g>
     </g>
    </g>
    <g id="xtick_4">
     <g id="line2d_4">
      <g>
       <use style="stroke:#000000;stroke-width:0.8;" x="419.849067" xlink:href="#m419be38fac" y="504"/>
      </g>
     </g>
     <g id="text_4">
      <!-- 1500 -->
      <g transform="translate(391.854067 527.716563)scale(0.22 -0.22)">
       <use xlink:href="#DejaVuSans-31"/>
       <use x="63.623047" xlink:href="#DejaVuSans-35"/>
       <use x="127.246094" xlink:href="#DejaVuSans-30"/>
       <use x="190.869141" xlink:href="#DejaVuSans-30"/>
      </g>
     </g>
    </g>
    <g id="xtick_5">
     <g id="line2d_5">
      <g>
       <use style="stroke:#000000;stroke-width:0.8;" x="521.34421" xlink:href="#m419be38fac" y="504"/>
      </g>
     </g>
     <g id="text_5">
      <!-- 2000 -->
      <g transform="translate(493.34921 527.716563)scale(0.22 -0.22)">
       <defs>
        <path d="M 1228 531 
L 3431 531 
L 3431 0 
L 469 0 
L 469 531 
Q 828 903 1448 1529 
Q 2069 2156 2228 2338 
Q 2531 2678 2651 2914 
Q 2772 3150 2772 3378 
Q 2772 3750 2511 3984 
Q 2250 4219 1831 4219 
Q 1534 4219 1204 4116 
Q 875 4013 500 3803 
L 500 4441 
Q 881 4594 1212 4672 
Q 1544 4750 1819 4750 
Q 2544 4750 2975 4387 
Q 3406 4025 3406 3419 
Q 3406 3131 3298 2873 
Q 3191 2616 2906 2266 
Q 2828 2175 2409 1742 
Q 1991 1309 1228 531 
z
" id="DejaVuSans-32" transform="scale(0.015625)"/>
       </defs>
       <use xlink:href="#DejaVuSans-32"/>
       <use x="63.623047" xlink:href="#DejaVuSans-30"/>
       <use x="127.246094" xlink:href="#DejaVuSans-30"/>
       <use x="190.869141" xlink:href="#DejaVuSans-30"/>
      </g>
     </g>
    </g>
    <g id="xtick_6">
     <g id="line2d_6">
      <g>
       <use style="stroke:#000000;stroke-width:0.8;" x="622.839354" xlink:href="#m419be38fac" y="504"/>
      </g>
     </g>
     <g id="text_6">
      <!-- 2500 -->
      <g transform="translate(594.844354 527.716563)scale(0.22 -0.22)">
       <use xlink:href="#DejaVuSans-32"/>
       <use x="63.623047" xlink:href="#DejaVuSans-35"/>
       <use x="127.246094" xlink:href="#DejaVuSans-30"/>
       <use x="190.869141" xlink:href="#DejaVuSans-30"/>
      </g>
     </g>
    </g>
    <g id="text_7">
     <!-- nr iteracji epizodu -->
     <g transform="translate(269.688906 553.008438)scale(0.22 -0.22)">
      <defs>
       <path d="M 3513 2113 
L 3513 0 
L 2938 0 
L 2938 2094 
Q 2938 2591 2744 2837 
Q 2550 3084 2163 3084 
Q 1697 3084 1428 2787 
Q 1159 2491 1159 1978 
L 1159 0 
L 581 0 
L 581 3500 
L 1159 3500 
L 1159 2956 
Q 1366 3272 1645 3428 
Q 1925 3584 2291 3584 
Q 2894 3584 3203 3211 
Q 3513 2838 3513 2113 
z
" id="DejaVuSans-6e" transform="scale(0.015625)"/>
       <path d="M 2631 2963 
Q 2534 3019 2420 3045 
Q 2306 3072 2169 3072 
Q 1681 3072 1420 2755 
Q 1159 2438 1159 1844 
L 1159 0 
L 581 0 
L 581 3500 
L 1159 3500 
L 1159 2956 
Q 1341 3275 1631 3429 
Q 1922 3584 2338 3584 
Q 2397 3584 2469 3576 
Q 2541 3569 2628 3553 
L 2631 2963 
z
" id="DejaVuSans-72" transform="scale(0.015625)"/>
       <path id="DejaVuSans-20" transform="scale(0.015625)"/>
       <path d="M 603 3500 
L 1178 3500 
L 1178 0 
L 603 0 
L 603 3500 
z
M 603 4863 
L 1178 4863 
L 1178 4134 
L 603 4134 
L 603 4863 
z
" id="DejaVuSans-69" transform="scale(0.015625)"/>
       <path d="M 1172 4494 
L 1172 3500 
L 2356 3500 
L 2356 3053 
L 1172 3053 
L 1172 1153 
Q 1172 725 1289 603 
Q 1406 481 1766 481 
L 2356 481 
L 2356 0 
L 1766 0 
Q 1100 0 847 248 
Q 594 497 594 1153 
L 594 3053 
L 172 3053 
L 172 3500 
L 594 3500 
L 594 4494 
L 1172 4494 
z
" id="DejaVuSans-74" transform="scale(0.015625)"/>
       <path d="M 3597 1894 
L 3597 1613 
L 953 1613 
Q 991 1019 1311 708 
Q 1631 397 2203 397 
Q 2534 397 2845 478 
Q 3156 559 3463 722 
L 3463 178 
Q 3153 47 2828 -22 
Q 2503 -91 2169 -91 
Q 1331 -91 842 396 
Q 353 884 353 1716 
Q 353 2575 817 3079 
Q 1281 3584 2069 3584 
Q 2775 3584 3186 3129 
Q 3597 2675 3597 1894 
z
M 3022 2063 
Q 3016 2534 2758 2815 
Q 2500 3097 2075 3097 
Q 1594 3097 1305 2825 
Q 1016 2553 972 2059 
L 3022 2063 
z
" id="DejaVuSans-65" transform="scale(0.015625)"/>
       <path d="M 2194 1759 
Q 1497 1759 1228 1600 
Q 959 1441 959 1056 
Q 959 750 1161 570 
Q 1363 391 1709 391 
Q 2188 391 2477 730 
Q 2766 1069 2766 1631 
L 2766 1759 
L 2194 1759 
z
M 3341 1997 
L 3341 0 
L 2766 0 
L 2766 531 
Q 2569 213 2275 61 
Q 1981 -91 1556 -91 
Q 1019 -91 701 211 
Q 384 513 384 1019 
Q 384 1609 779 1909 
Q 1175 2209 1959 2209 
L 2766 2209 
L 2766 2266 
Q 2766 2663 2505 2880 
Q 2244 3097 1772 3097 
Q 1472 3097 1187 3025 
Q 903 2953 641 2809 
L 641 3341 
Q 956 3463 1253 3523 
Q 1550 3584 1831 3584 
Q 2591 3584 2966 3190 
Q 3341 2797 3341 1997 
z
" id="DejaVuSans-61" transform="scale(0.015625)"/>
       <path d="M 3122 3366 
L 3122 2828 
Q 2878 2963 2633 3030 
Q 2388 3097 2138 3097 
Q 1578 3097 1268 2742 
Q 959 2388 959 1747 
Q 959 1106 1268 751 
Q 1578 397 2138 397 
Q 2388 397 2633 464 
Q 2878 531 3122 666 
L 3122 134 
Q 2881 22 2623 -34 
Q 2366 -91 2075 -91 
Q 1284 -91 818 406 
Q 353 903 353 1747 
Q 353 2603 823 3093 
Q 1294 3584 2113 3584 
Q 2378 3584 2631 3529 
Q 2884 3475 3122 3366 
z
" id="DejaVuSans-63" transform="scale(0.015625)"/>
       <path d="M 603 3500 
L 1178 3500 
L 1178 -63 
Q 1178 -731 923 -1031 
Q 669 -1331 103 -1331 
L -116 -1331 
L -116 -844 
L 38 -844 
Q 366 -844 484 -692 
Q 603 -541 603 -63 
L 603 3500 
z
M 603 4863 
L 1178 4863 
L 1178 4134 
L 603 4134 
L 603 4863 
z
" id="DejaVuSans-6a" transform="scale(0.015625)"/>
       <path d="M 1159 525 
L 1159 -1331 
L 581 -1331 
L 581 3500 
L 1159 3500 
L 1159 2969 
Q 1341 3281 1617 3432 
Q 1894 3584 2278 3584 
Q 2916 3584 3314 3078 
Q 3713 2572 3713 1747 
Q 3713 922 3314 415 
Q 2916 -91 2278 -91 
Q 1894 -91 1617 61 
Q 1341 213 1159 525 
z
M 3116 1747 
Q 3116 2381 2855 2742 
Q 2594 3103 2138 3103 
Q 1681 3103 1420 2742 
Q 1159 2381 1159 1747 
Q 1159 1113 1420 752 
Q 1681 391 2138 391 
Q 2594 391 2855 752 
Q 3116 1113 3116 1747 
z
" id="DejaVuSans-70" transform="scale(0.015625)"/>
       <path d="M 353 3500 
L 3084 3500 
L 3084 2975 
L 922 459 
L 3084 459 
L 3084 0 
L 275 0 
L 275 525 
L 2438 3041 
L 353 3041 
L 353 3500 
z
" id="DejaVuSans-7a" transform="scale(0.015625)"/>
       <path d="M 1959 3097 
Q 1497 3097 1228 2736 
Q 959 2375 959 1747 
Q 959 1119 1226 758 
Q 1494 397 1959 397 
Q 2419 397 2687 759 
Q 2956 1122 2956 1747 
Q 2956 2369 2687 2733 
Q 2419 3097 1959 3097 
z
M 1959 3584 
Q 2709 3584 3137 3096 
Q 3566 2609 3566 1747 
Q 3566 888 3137 398 
Q 2709 -91 1959 -91 
Q 1206 -91 779 398 
Q 353 888 353 1747 
Q 353 2609 779 3096 
Q 1206 3584 1959 3584 
z
" id="DejaVuSans-6f" transform="scale(0.015625)"/>
       <path d="M 2906 2969 
L 2906 4863 
L 3481 4863 
L 3481 0 
L 2906 0 
L 2906 525 
Q 2725 213 2448 61 
Q 2172 -91 1784 -91 
Q 1150 -91 751 415 
Q 353 922 353 1747 
Q 353 2572 751 3078 
Q 1150 3584 1784 3584 
Q 2172 3584 2448 3432 
Q 2725 3281 2906 2969 
z
M 947 1747 
Q 947 1113 1208 752 
Q 1469 391 1925 391 
Q 2381 391 2643 752 
Q 2906 1113 2906 1747 
Q 2906 2381 2643 2742 
Q 2381 3103 1925 3103 
Q 1469 3103 1208 2742 
Q 947 2381 947 1747 
z
" id="DejaVuSans-64" transform="scale(0.015625)"/>
       <path d="M 544 1381 
L 544 3500 
L 1119 3500 
L 1119 1403 
Q 1119 906 1312 657 
Q 1506 409 1894 409 
Q 2359 409 2629 706 
Q 2900 1003 2900 1516 
L 2900 3500 
L 3475 3500 
L 3475 0 
L 2900 0 
L 2900 538 
Q 2691 219 2414 64 
Q 2138 -91 1772 -91 
Q 1169 -91 856 284 
Q 544 659 544 1381 
z
M 1991 3584 
L 1991 3584 
z
" id="DejaVuSans-75" transform="scale(0.015625)"/>
      </defs>
      <use xlink:href="#DejaVuSans-6e"/>
      <use x="63.378906" xlink:href="#DejaVuSans-72"/>
      <use x="104.492188" xlink:href="#DejaVuSans-20"/>
      <use x="136.279297" xlink:href="#DejaVuSans-69"/>
      <use x="164.0625" xlink:href="#DejaVuSans-74"/>
      <use x="203.271484" xlink:href="#DejaVuSans-65"/>
      <use x="264.794922" xlink:href="#DejaVuSans-72"/>
      <use x="305.908203" xlink:href="#DejaVuSans-61"/>
      <use x="367.1875" xlink:href="#DejaVuSans-63"/>
      <use x="422.167969" xlink:href="#DejaVuSans-6a"/>
      <use x="449.951172" xlink:href="#DejaVuSans-69"/>
      <use x="477.734375" xlink:href="#DejaVuSans-20"/>
      <use x="509.521484" xlink:href="#DejaVuSans-65"/>
      <use x="571.044922" xlink:href="#DejaVuSans-70"/>
      <use x="634.521484" xlink:href="#DejaVuSans-69"/>
      <use x="662.304688" xlink:href="#DejaVuSans-7a"/>
      <use x="714.794922" xlink:href="#DejaVuSans-6f"/>
      <use x="775.976562" xlink:href="#DejaVuSans-64"/>
      <use x="839.453125" xlink:href="#DejaVuSans-75"/>
     </g>
    </g>
   </g>
   <g id="matplotlib.axis_2">
    <g id="ytick_1">
     <g id="line2d_7">
      <defs>
       <path d="M 0 0 
L -3.5 0 
" id="m51daef8a57" style="stroke:#000000;stroke-width:0.8;"/>
      </defs>
      <g>
       <use style="stroke:#000000;stroke-width:0.8;" x="90" xlink:href="#m51daef8a57" y="472.421932"/>
      </g>
     </g>
     <g id="text_8">
      <!-- −20000 -->
      <g transform="translate(-5.422813 480.780213)scale(0.22 -0.22)">
       <defs>
        <path d="M 678 2272 
L 4684 2272 
L 4684 1741 
L 678 1741 
L 678 2272 
z
" id="DejaVuSans-2212" transform="scale(0.015625)"/>
       </defs>
       <use xlink:href="#DejaVuSans-2212"/>
       <use x="83.789062" xlink:href="#DejaVuSans-32"/>
       <use x="147.412109" xlink:href="#DejaVuSans-30"/>
       <use x="211.035156" xlink:href="#DejaVuSans-30"/>
       <use x="274.658203" xlink:href="#DejaVuSans-30"/>
       <use x="338.28125" xlink:href="#DejaVuSans-30"/>
      </g>
     </g>
    </g>
    <g id="ytick_2">
     <g id="line2d_8">
      <g>
       <use style="stroke:#000000;stroke-width:0.8;" x="90" xlink:href="#m51daef8a57" y="421.894818"/>
      </g>
     </g>
     <g id="text_9">
      <!-- −15000 -->
      <g transform="translate(-5.422813 430.253099)scale(0.22 -0.22)">
       <use xlink:href="#DejaVuSans-2212"/>
       <use x="83.789062" xlink:href="#DejaVuSans-31"/>
       <use x="147.412109" xlink:href="#DejaVuSans-35"/>
       <use x="211.035156" xlink:href="#DejaVuSans-30"/>
       <use x="274.658203" xlink:href="#DejaVuSans-30"/>
       <use x="338.28125" xlink:href="#DejaVuSans-30"/>
      </g>
     </g>
    </g>
    <g id="ytick_3">
     <g id="line2d_9">
      <g>
       <use style="stroke:#000000;stroke-width:0.8;" x="90" xlink:href="#m51daef8a57" y="371.367704"/>
      </g>
     </g>
     <g id="text_10">
      <!-- −10000 -->
      <g transform="translate(-5.422813 379.725985)scale(0.22 -0.22)">
       <use xlink:href="#DejaVuSans-2212"/>
       <use x="83.789062" xlink:href="#DejaVuSans-31"/>
       <use x="147.412109" xlink:href="#DejaVuSans-30"/>
       <use x="211.035156" xlink:href="#DejaVuSans-30"/>
       <use x="274.658203" xlink:href="#DejaVuSans-30"/>
       <use x="338.28125" xlink:href="#DejaVuSans-30"/>
      </g>
     </g>
    </g>
    <g id="ytick_4">
     <g id="line2d_10">
      <g>
       <use style="stroke:#000000;stroke-width:0.8;" x="90" xlink:href="#m51daef8a57" y="320.84059"/>
      </g>
     </g>
     <g id="text_11">
      <!-- −5000 -->
      <g transform="translate(8.574687 329.198871)scale(0.22 -0.22)">
       <use xlink:href="#DejaVuSans-2212"/>
       <use x="83.789062" xlink:href="#DejaVuSans-35"/>
       <use x="147.412109" xlink:href="#DejaVuSans-30"/>
       <use x="211.035156" xlink:href="#DejaVuSans-30"/>
       <use x="274.658203" xlink:href="#DejaVuSans-30"/>
      </g>
     </g>
    </g>
    <g id="ytick_5">
     <g id="line2d_11">
      <g>
       <use style="stroke:#000000;stroke-width:0.8;" x="90" xlink:href="#m51daef8a57" y="270.313476"/>
      </g>
     </g>
     <g id="text_12">
      <!-- 0 -->
      <g transform="translate(69.0025 278.671757)scale(0.22 -0.22)">
       <use xlink:href="#DejaVuSans-30"/>
      </g>
     </g>
    </g>
    <g id="ytick_6">
     <g id="line2d_12">
      <g>
       <use style="stroke:#000000;stroke-width:0.8;" x="90" xlink:href="#m51daef8a57" y="219.786362"/>
      </g>
     </g>
     <g id="text_13">
      <!-- 5000 -->
      <g transform="translate(27.01 228.144643)scale(0.22 -0.22)">
       <use xlink:href="#DejaVuSans-35"/>
       <use x="63.623047" xlink:href="#DejaVuSans-30"/>
       <use x="127.246094" xlink:href="#DejaVuSans-30"/>
       <use x="190.869141" xlink:href="#DejaVuSans-30"/>
      </g>
     </g>
    </g>
    <g id="ytick_7">
     <g id="line2d_13">
      <g>
       <use style="stroke:#000000;stroke-width:0.8;" x="90" xlink:href="#m51daef8a57" y="169.259248"/>
      </g>
     </g>
     <g id="text_14">
      <!-- 10000 -->
      <g transform="translate(13.0125 177.617529)scale(0.22 -0.22)">
       <use xlink:href="#DejaVuSans-31"/>
       <use x="63.623047" xlink:href="#DejaVuSans-30"/>
       <use x="127.246094" xlink:href="#DejaVuSans-30"/>
       <use x="190.869141" xlink:href="#DejaVuSans-30"/>
       <use x="254.492188" xlink:href="#DejaVuSans-30"/>
      </g>
     </g>
    </g>
    <g id="ytick_8">
     <g id="line2d_14">
      <g>
       <use style="stroke:#000000;stroke-width:0.8;" x="90" xlink:href="#m51daef8a57" y="118.732134"/>
      </g>
     </g>
     <g id="text_15">
      <!-- 15000 -->
      <g transform="translate(13.0125 127.090415)scale(0.22 -0.22)">
       <use xlink:href="#DejaVuSans-31"/>
       <use x="63.623047" xlink:href="#DejaVuSans-35"/>
       <use x="127.246094" xlink:href="#DejaVuSans-30"/>
       <use x="190.869141" xlink:href="#DejaVuSans-30"/>
       <use x="254.492188" xlink:href="#DejaVuSans-30"/>
      </g>
     </g>
    </g>
    <g id="text_16">
     <!-- wartość funkcji nagrody -->
     <g transform="translate(-13.998125 418.171562)rotate(-90)scale(0.22 -0.22)">
      <defs>
       <path d="M 269 3500 
L 844 3500 
L 1563 769 
L 2278 3500 
L 2956 3500 
L 3675 769 
L 4391 3500 
L 4966 3500 
L 4050 0 
L 3372 0 
L 2619 2869 
L 1863 0 
L 1184 0 
L 269 3500 
z
" id="DejaVuSans-77" transform="scale(0.015625)"/>
       <path d="M 2242 5119 
L 2864 5119 
L 1846 3944 
L 1367 3944 
L 2242 5119 
z
M 2834 3397 
L 2834 2853 
Q 2591 2978 2328 3040 
Q 2066 3103 1784 3103 
Q 1356 3103 1142 2972 
Q 928 2841 928 2578 
Q 928 2378 1081 2264 
Q 1234 2150 1697 2047 
L 1894 2003 
Q 2506 1872 2764 1633 
Q 3022 1394 3022 966 
Q 3022 478 2636 193 
Q 2250 -91 1575 -91 
Q 1294 -91 989 -36 
Q 684 19 347 128 
L 347 722 
Q 666 556 975 473 
Q 1284 391 1588 391 
Q 1994 391 2212 530 
Q 2431 669 2431 922 
Q 2431 1156 2273 1281 
Q 2116 1406 1581 1522 
L 1381 1569 
Q 847 1681 609 1914 
Q 372 2147 372 2553 
Q 372 3047 722 3315 
Q 1072 3584 1716 3584 
Q 2034 3584 2315 3537 
Q 2597 3491 2834 3397 
z
" id="DejaVuSans-15b" transform="scale(0.015625)"/>
       <path d="M 3122 3366 
L 3122 2828 
Q 2878 2963 2633 3030 
Q 2388 3097 2138 3097 
Q 1578 3097 1268 2742 
Q 959 2388 959 1747 
Q 959 1106 1268 751 
Q 1578 397 2138 397 
Q 2388 397 2633 464 
Q 2878 531 3122 666 
L 3122 134 
Q 2881 22 2623 -34 
Q 2366 -91 2075 -91 
Q 1284 -91 818 406 
Q 353 903 353 1747 
Q 353 2603 823 3093 
Q 1294 3584 2113 3584 
Q 2378 3584 2631 3529 
Q 2884 3475 3122 3366 
z
M 2466 5119 
L 3088 5119 
L 2070 3944 
L 1591 3944 
L 2466 5119 
z
" id="DejaVuSans-107" transform="scale(0.015625)"/>
       <path d="M 2375 4863 
L 2375 4384 
L 1825 4384 
Q 1516 4384 1395 4259 
Q 1275 4134 1275 3809 
L 1275 3500 
L 2222 3500 
L 2222 3053 
L 1275 3053 
L 1275 0 
L 697 0 
L 697 3053 
L 147 3053 
L 147 3500 
L 697 3500 
L 697 3744 
Q 697 4328 969 4595 
Q 1241 4863 1831 4863 
L 2375 4863 
z
" id="DejaVuSans-66" transform="scale(0.015625)"/>
       <path d="M 581 4863 
L 1159 4863 
L 1159 1991 
L 2875 3500 
L 3609 3500 
L 1753 1863 
L 3688 0 
L 2938 0 
L 1159 1709 
L 1159 0 
L 581 0 
L 581 4863 
z
" id="DejaVuSans-6b" transform="scale(0.015625)"/>
       <path d="M 2906 1791 
Q 2906 2416 2648 2759 
Q 2391 3103 1925 3103 
Q 1463 3103 1205 2759 
Q 947 2416 947 1791 
Q 947 1169 1205 825 
Q 1463 481 1925 481 
Q 2391 481 2648 825 
Q 2906 1169 2906 1791 
z
M 3481 434 
Q 3481 -459 3084 -895 
Q 2688 -1331 1869 -1331 
Q 1566 -1331 1297 -1286 
Q 1028 -1241 775 -1147 
L 775 -588 
Q 1028 -725 1275 -790 
Q 1522 -856 1778 -856 
Q 2344 -856 2625 -561 
Q 2906 -266 2906 331 
L 2906 616 
Q 2728 306 2450 153 
Q 2172 0 1784 0 
Q 1141 0 747 490 
Q 353 981 353 1791 
Q 353 2603 747 3093 
Q 1141 3584 1784 3584 
Q 2172 3584 2450 3431 
Q 2728 3278 2906 2969 
L 2906 3500 
L 3481 3500 
L 3481 434 
z
" id="DejaVuSans-67" transform="scale(0.015625)"/>
       <path d="M 2059 -325 
Q 1816 -950 1584 -1140 
Q 1353 -1331 966 -1331 
L 506 -1331 
L 506 -850 
L 844 -850 
Q 1081 -850 1212 -737 
Q 1344 -625 1503 -206 
L 1606 56 
L 191 3500 
L 800 3500 
L 1894 763 
L 2988 3500 
L 3597 3500 
L 2059 -325 
z
" id="DejaVuSans-79" transform="scale(0.015625)"/>
      </defs>
      <use xlink:href="#DejaVuSans-77"/>
      <use x="81.787109" xlink:href="#DejaVuSans-61"/>
      <use x="143.066406" xlink:href="#DejaVuSans-72"/>
      <use x="184.179688" xlink:href="#DejaVuSans-74"/>
      <use x="223.388672" xlink:href="#DejaVuSans-6f"/>
      <use x="284.570312" xlink:href="#DejaVuSans-15b"/>
      <use x="336.669922" xlink:href="#DejaVuSans-107"/>
      <use x="391.650391" xlink:href="#DejaVuSans-20"/>
      <use x="423.4375" xlink:href="#DejaVuSans-66"/>
      <use x="458.642578" xlink:href="#DejaVuSans-75"/>
      <use x="522.021484" xlink:href="#DejaVuSans-6e"/>
      <use x="585.400391" xlink:href="#DejaVuSans-6b"/>
      <use x="643.310547" xlink:href="#DejaVuSans-63"/>
      <use x="698.291016" xlink:href="#DejaVuSans-6a"/>
      <use x="726.074219" xlink:href="#DejaVuSans-69"/>
      <use x="753.857422" xlink:href="#DejaVuSans-20"/>
      <use x="785.644531" xlink:href="#DejaVuSans-6e"/>
      <use x="849.023438" xlink:href="#DejaVuSans-61"/>
      <use x="910.302734" xlink:href="#DejaVuSans-67"/>
      <use x="973.779297" xlink:href="#DejaVuSans-72"/>
      <use x="1012.642578" xlink:href="#DejaVuSans-6f"/>
      <use x="1073.824219" xlink:href="#DejaVuSans-64"/>
      <use x="1137.300781" xlink:href="#DejaVuSans-79"/>
     </g>
    </g>
   </g>
   <g id="line2d_15">
    <path clip-path="url(#pbb7a8d77e1)" d="M 115.363636 270.333687 
L 115.566627 273.375419 
L 119.017462 273.485355 
L 119.220452 273.239146 
L 119.626432 269.060862 
L 119.829423 271.861598 
L 120.235403 273.182435 
L 120.641384 273.546294 
L 121.047364 273.645821 
L 121.250355 273.501426 
L 122.265306 272.068337 
L 122.874277 271.484358 
L 124.70119 270.562274 
L 124.90418 270.373414 
L 125.513151 271.004668 
L 126.528102 270.778601 
L 127.137073 270.549469 
L 127.340063 181.809229 
L 127.949034 88.887273 
L 128.152024 120.338469 
L 128.355015 178.462404 
L 128.558005 277.053793 
L 132.00884 277.163729 
L 132.21183 276.91752 
L 132.617811 272.739236 
L 132.820801 275.539972 
L 133.226782 276.860809 
L 133.632762 277.224668 
L 134.038743 277.324195 
L 134.241733 277.179799 
L 135.256684 275.746711 
L 135.865655 275.162731 
L 137.692568 274.240648 
L 137.895558 274.051788 
L 138.504529 274.683042 
L 139.519481 274.456975 
L 140.128451 274.227843 
L 140.331442 185.487603 
L 140.940413 92.565647 
L 141.143403 124.016843 
L 141.346393 182.140777 
L 141.549383 280.732167 
L 145.000218 280.842103 
L 145.203209 280.595894 
L 145.609189 276.41761 
L 145.812179 279.218346 
L 146.21816 280.539183 
L 146.624141 280.903042 
L 147.030121 281.002569 
L 147.233111 280.858173 
L 148.248063 279.425085 
L 148.857034 278.841105 
L 150.683946 277.919022 
L 150.886937 277.730162 
L 151.495907 278.361415 
L 152.510859 278.135349 
L 153.11983 277.906217 
L 153.32282 189.165977 
L 153.931791 96.244021 
L 154.134781 127.695217 
L 154.337771 185.819151 
L 154.540762 284.410541 
L 157.991597 284.520477 
L 158.194587 284.274268 
L 158.600567 280.095984 
L 158.803558 282.89672 
L 159.209538 284.217557 
L 159.615519 284.581416 
L 160.0215 284.680943 
L 160.22449 284.536547 
L 161.239441 283.103458 
L 161.848412 282.519479 
L 163.675325 281.597396 
L 163.878315 281.408536 
L 164.487286 282.039789 
L 165.502237 281.813723 
L 166.111208 281.584591 
L 166.314198 192.844351 
L 166.923169 99.922394 
L 167.12616 131.373591 
L 167.32915 189.497525 
L 167.53214 288.088914 
L 170.982975 288.19885 
L 171.185965 287.952642 
L 171.591946 283.774358 
L 171.794936 286.575093 
L 172.200917 287.89593 
L 172.606897 288.25979 
L 173.012878 288.359317 
L 173.215868 288.214921 
L 174.23082 286.781832 
L 174.83979 286.197853 
L 176.666703 285.27577 
L 176.869693 285.08691 
L 177.478664 285.718163 
L 178.493616 285.492097 
L 179.102586 285.262965 
L 179.305577 196.522725 
L 179.914548 103.600768 
L 180.117538 135.051965 
L 180.320528 193.175899 
L 180.523518 291.767288 
L 180.726509 301.882817 
L 184.177344 301.992753 
L 184.380334 301.746544 
L 184.786315 297.56826 
L 184.989305 300.368996 
L 185.395285 301.689833 
L 185.801266 302.053692 
L 186.207247 302.153219 
L 186.410237 302.008823 
L 187.425188 300.575734 
L 188.034159 299.991755 
L 189.861072 299.069672 
L 190.064062 298.880812 
L 190.673033 299.512065 
L 191.687984 299.285999 
L 192.296955 299.056867 
L 192.499945 210.316627 
L 193.108916 117.39467 
L 193.311907 148.845867 
L 193.514897 206.969801 
L 193.717887 305.561191 
L 197.168722 305.671126 
L 197.371712 305.424918 
L 197.777693 301.246634 
L 197.980683 304.047369 
L 198.386664 305.368206 
L 198.792644 305.732066 
L 199.198625 305.831593 
L 199.401615 305.687197 
L 200.416567 304.254108 
L 201.025537 303.670129 
L 202.85245 302.748046 
L 203.05544 302.559186 
L 203.664411 303.190439 
L 204.679363 302.964373 
L 205.288334 302.735241 
L 205.491324 213.995001 
L 206.100295 121.073044 
L 206.303285 152.524241 
L 206.506275 210.648175 
L 206.709266 309.239564 
L 210.1601 309.3495 
L 210.363091 309.103292 
L 210.769071 304.925008 
L 210.972062 307.725743 
L 211.378042 309.04658 
L 211.784023 309.410439 
L 212.190003 309.509967 
L 212.392994 309.365571 
L 213.407945 307.932482 
L 214.016916 307.348503 
L 215.843828 306.42642 
L 216.046819 306.23756 
L 216.65579 306.868813 
L 217.670741 306.642747 
L 218.279712 306.413615 
L 218.482702 217.673375 
L 219.091673 124.751418 
L 219.294663 156.202615 
L 219.497654 214.326549 
L 219.700644 312.917938 
L 223.151479 313.027874 
L 223.354469 312.781666 
L 223.76045 308.603382 
L 223.96344 311.404117 
L 224.36942 312.724954 
L 224.775401 313.088813 
L 225.181382 313.188341 
L 225.384372 313.043945 
L 226.399323 311.610856 
L 227.008294 311.026877 
L 228.835207 310.104794 
L 229.038197 309.915934 
L 229.647168 310.547187 
L 230.662119 310.321121 
L 231.27109 310.091988 
L 231.474081 221.351749 
L 232.083051 128.429792 
L 232.286042 159.880988 
L 232.489032 218.004923 
L 232.692022 316.596312 
L 236.142857 316.706248 
L 236.345847 316.46004 
L 236.751828 312.281756 
L 236.954818 315.082491 
L 237.360799 316.403328 
L 237.766779 316.767187 
L 238.17276 316.866715 
L 238.37575 316.722319 
L 239.390702 315.28923 
L 239.999673 314.705251 
L 241.826585 313.783168 
L 242.029575 313.594308 
L 242.638546 314.225561 
L 243.653498 313.999495 
L 244.262469 313.770362 
L 244.465459 225.030123 
L 245.07443 132.108166 
L 245.27742 163.559362 
L 245.48041 221.683297 
L 245.683401 320.274686 
L 245.886391 330.390214 
L 249.337226 330.50015 
L 249.540216 330.253942 
L 249.946197 326.075658 
L 250.149187 328.876393 
L 250.555168 330.19723 
L 250.961148 330.561089 
L 251.367129 330.660617 
L 251.570119 330.516221 
L 252.58507 329.083132 
L 253.194041 328.499153 
L 255.020954 327.57707 
L 255.223944 327.38821 
L 255.832915 328.019463 
L 256.847866 327.793397 
L 257.456837 327.564264 
L 257.659828 238.824025 
L 258.268798 145.902068 
L 258.471789 177.353264 
L 258.674779 235.477199 
L 258.877769 334.068588 
L 262.328604 334.178524 
L 262.531594 333.932316 
L 262.937575 329.754032 
L 263.140565 332.554767 
L 263.546546 333.875604 
L 263.952526 334.239463 
L 264.358507 334.338991 
L 264.561497 334.194595 
L 265.576449 332.761506 
L 266.18542 332.177527 
L 268.012332 331.255444 
L 268.215322 331.066584 
L 268.824293 331.697837 
L 269.839245 331.471771 
L 270.448216 331.242638 
L 270.651206 242.502399 
L 271.260177 149.580442 
L 271.463167 181.031638 
L 271.666157 239.155573 
L 271.869148 337.746962 
L 275.319983 337.856898 
L 275.522973 337.61069 
L 275.928953 333.432406 
L 276.131944 336.233141 
L 276.537924 337.553978 
L 276.943905 337.917837 
L 277.349885 338.017365 
L 277.552876 337.872969 
L 278.567827 336.43988 
L 279.176798 335.855901 
L 281.003711 334.933818 
L 281.206701 334.744958 
L 281.815672 335.376211 
L 282.830623 335.150145 
L 283.439594 334.921012 
L 283.642584 246.180773 
L 284.251555 153.258816 
L 284.454545 184.710012 
L 284.657536 242.833947 
L 284.860526 341.425336 
L 288.311361 341.535272 
L 288.514351 341.289064 
L 288.920332 337.11078 
L 289.123322 339.911515 
L 289.529303 341.232352 
L 289.935283 341.596211 
L 290.341264 341.695739 
L 290.544254 341.551343 
L 291.559206 340.118254 
L 292.168176 339.534275 
L 293.995089 338.612191 
L 294.198079 338.423331 
L 294.80705 339.054585 
L 295.822002 338.828518 
L 296.430972 338.599386 
L 296.633963 249.859147 
L 297.242934 156.93719 
L 297.445924 188.388386 
L 297.648914 246.512321 
L 297.851904 345.10371 
L 301.302739 345.213646 
L 301.50573 344.967438 
L 301.91171 340.789154 
L 302.1147 343.589889 
L 302.520681 344.910726 
L 302.926662 345.274585 
L 303.332642 345.374112 
L 303.535632 345.229717 
L 304.550584 343.796628 
L 305.159555 343.212649 
L 306.986467 342.290565 
L 307.189458 342.101705 
L 307.798428 342.732959 
L 308.81338 342.506892 
L 309.422351 342.27776 
L 309.625341 253.53752 
L 310.234312 160.615564 
L 310.437302 192.06676 
L 310.640292 250.190695 
L 310.843283 348.782084 
L 311.046273 358.897612 
L 314.497108 359.007548 
L 314.700098 358.76134 
L 315.106079 354.583056 
L 315.309069 357.383791 
L 315.71505 358.704628 
L 316.12103 359.068487 
L 316.527011 359.168015 
L 316.730001 359.023619 
L 317.744953 357.59053 
L 318.353923 357.006551 
L 320.180836 356.084467 
L 320.383826 355.895608 
L 320.992797 356.526861 
L 322.007749 356.300794 
L 322.616719 356.071662 
L 322.81971 267.331423 
L 323.428681 174.409466 
L 323.631671 205.860662 
L 323.834661 263.984597 
L 324.037651 362.575986 
L 327.488486 362.685922 
L 327.691477 362.439714 
L 328.097457 358.26143 
L 328.300447 361.062165 
L 328.706428 362.383002 
L 329.112409 362.746861 
L 329.518389 362.846388 
L 329.721379 362.701993 
L 330.736331 361.268904 
L 331.345302 360.684925 
L 333.172214 359.762841 
L 333.375205 359.573981 
L 333.984175 360.205235 
L 334.999127 359.979168 
L 335.608098 359.750036 
L 335.811088 271.009796 
L 336.420059 178.08784 
L 336.623049 209.539036 
L 336.82604 267.662971 
L 337.02903 366.25436 
L 340.479865 366.364296 
L 340.682855 366.118087 
L 341.088836 361.939803 
L 341.291826 364.740539 
L 341.697806 366.061376 
L 342.103787 366.425235 
L 342.509768 366.524762 
L 342.712758 366.380367 
L 343.727709 364.947278 
L 344.33668 364.363299 
L 346.163593 363.441215 
L 346.366583 363.252355 
L 346.975554 363.883609 
L 347.990505 363.657542 
L 348.599476 363.42841 
L 348.802466 274.68817 
L 349.411437 181.766214 
L 349.614428 213.21741 
L 349.817418 271.341345 
L 350.020408 369.932734 
L 353.471243 370.04267 
L 353.674233 369.796461 
L 354.080214 365.618177 
L 354.283204 368.418913 
L 354.689185 369.73975 
L 355.095165 370.103609 
L 355.501146 370.203136 
L 355.704136 370.05874 
L 356.719088 368.625652 
L 357.328058 368.041672 
L 359.154971 367.119589 
L 359.357961 366.930729 
L 359.966932 367.561983 
L 360.981884 367.335916 
L 361.590855 367.106784 
L 361.793845 278.366544 
L 362.402816 185.444588 
L 362.605806 216.895784 
L 362.808796 275.019718 
L 363.011787 373.611108 
L 366.462621 373.721044 
L 366.665612 373.474835 
L 367.071592 369.296551 
L 367.274583 372.097287 
L 367.680563 373.418124 
L 368.086544 373.781983 
L 368.492524 373.88151 
L 368.695515 373.737114 
L 369.710466 372.304026 
L 370.319437 371.720046 
L 372.146349 370.797963 
L 372.34934 370.609103 
L 372.958311 371.240357 
L 373.973262 371.01429 
L 374.582233 370.785158 
L 374.785223 282.044918 
L 375.394194 189.122962 
L 375.597184 220.574158 
L 375.800175 278.698092 
L 376.003165 377.289482 
L 376.206155 387.40501 
L 379.65699 387.514946 
L 379.85998 387.268737 
L 380.265961 383.090453 
L 380.468951 385.891189 
L 380.874932 387.212026 
L 381.280912 387.575885 
L 381.686893 387.675412 
L 381.889883 387.531017 
L 382.904835 386.097928 
L 383.513806 385.513949 
L 385.340718 384.591865 
L 385.543708 384.403005 
L 386.152679 385.034259 
L 387.167631 384.808192 
L 387.776602 384.57906 
L 387.979592 295.83882 
L 388.588563 202.916864 
L 388.791553 234.36806 
L 388.994543 292.491994 
L 389.197534 391.083384 
L 392.648368 391.19332 
L 392.851359 390.947111 
L 393.257339 386.768827 
L 393.46033 389.569563 
L 393.86631 390.8904 
L 394.272291 391.254259 
L 394.678271 391.353786 
L 394.881262 391.20939 
L 395.896213 389.776302 
L 396.505184 389.192322 
L 398.332096 388.270239 
L 398.535087 388.081379 
L 399.144058 388.712633 
L 400.159009 388.486566 
L 400.76798 388.257434 
L 400.97097 299.517194 
L 401.579941 206.595238 
L 401.782931 238.046434 
L 401.985922 296.170368 
L 402.188912 394.761758 
L 405.639747 394.871694 
L 405.842737 394.625485 
L 406.248718 390.447201 
L 406.451708 393.247937 
L 406.857689 394.568774 
L 407.263669 394.932633 
L 407.66965 395.03216 
L 407.87264 394.887764 
L 408.887591 393.454676 
L 409.496562 392.870696 
L 411.323475 391.948613 
L 411.526465 391.759753 
L 412.135436 392.391006 
L 413.150387 392.16494 
L 413.759358 391.935808 
L 413.962349 303.195568 
L 414.571319 210.273612 
L 414.77431 241.724808 
L 414.9773 299.848742 
L 415.18029 398.440132 
L 418.631125 398.550067 
L 418.834115 398.303859 
L 419.240096 394.125575 
L 419.443086 396.926311 
L 419.849067 398.247148 
L 420.255047 398.611007 
L 420.661028 398.710534 
L 420.864018 398.566138 
L 421.87897 397.133049 
L 422.487941 396.54907 
L 424.314853 395.626987 
L 424.517844 395.438127 
L 425.126814 396.06938 
L 426.141766 395.843314 
L 426.750737 395.614182 
L 426.953727 306.873942 
L 427.562698 213.951985 
L 427.765688 245.403182 
L 427.968678 303.527116 
L 428.171669 402.118505 
L 431.622504 402.228441 
L 431.825494 401.982233 
L 432.231474 397.803949 
L 432.434465 400.604684 
L 432.840445 401.925521 
L 433.246426 402.289381 
L 433.652406 402.388908 
L 433.855397 402.244512 
L 434.870348 400.811423 
L 435.479319 400.227444 
L 437.306232 399.305361 
L 437.509222 399.116501 
L 438.118193 399.747754 
L 439.133144 399.521688 
L 439.742115 399.292556 
L 439.945105 310.552316 
L 440.554076 217.630359 
L 440.757066 249.081556 
L 440.960057 307.20549 
L 441.163047 405.796879 
L 441.366037 415.912408 
L 444.816872 416.022344 
L 445.019862 415.776135 
L 445.425843 411.597851 
L 445.628833 414.398587 
L 446.034814 415.719424 
L 446.440794 416.083283 
L 446.846775 416.18281 
L 447.049765 416.038414 
L 448.064717 414.605325 
L 448.673688 414.021346 
L 450.5006 413.099263 
L 450.703591 412.910403 
L 451.312561 413.541656 
L 452.327513 413.31559 
L 452.936484 413.086458 
L 453.139474 324.346218 
L 453.748445 231.424261 
L 453.951435 262.875458 
L 454.154425 320.999392 
L 454.357416 419.590781 
L 457.808251 419.700717 
L 458.011241 419.454509 
L 458.417221 415.276225 
L 458.620212 418.07696 
L 459.026192 419.397797 
L 459.432173 419.761657 
L 459.838153 419.861184 
L 460.041144 419.716788 
L 461.056095 418.283699 
L 461.665066 417.69972 
L 463.491979 416.777637 
L 463.694969 416.588777 
L 464.30394 417.22003 
L 465.318891 416.993964 
L 465.927862 416.764832 
L 466.130852 328.024592 
L 466.739823 235.102635 
L 466.942813 266.553832 
L 467.145804 324.677766 
L 467.348794 423.269155 
L 470.799629 423.379091 
L 471.002619 423.132883 
L 471.4086 418.954599 
L 471.61159 421.755334 
L 472.017571 423.076171 
L 472.423551 423.44003 
L 472.829532 423.539558 
L 473.032522 423.395162 
L 474.047474 421.962073 
L 474.656444 421.378094 
L 476.483357 420.456011 
L 476.686347 420.267151 
L 477.295318 420.898404 
L 478.31027 420.672338 
L 478.91924 420.443205 
L 479.122231 331.702966 
L 479.731202 238.781009 
L 479.934192 270.232206 
L 480.137182 328.35614 
L 480.340172 426.947529 
L 483.791007 427.057465 
L 483.993998 426.811257 
L 484.399978 422.632973 
L 484.602968 425.433708 
L 485.008949 426.754545 
L 485.41493 427.118404 
L 485.82091 427.217932 
L 486.0239 427.073536 
L 487.038852 425.640447 
L 487.647823 425.056468 
L 489.474735 424.134385 
L 489.677726 423.945525 
L 490.286696 424.576778 
L 491.301648 424.350712 
L 491.910619 424.121579 
L 492.113609 335.38134 
L 492.72258 242.459383 
L 492.92557 273.910579 
L 493.128561 332.034514 
L 493.331551 430.625903 
L 496.782386 430.735839 
L 496.985376 430.489631 
L 497.391357 426.311347 
L 497.594347 429.112082 
L 498.000327 430.432919 
L 498.406308 430.796778 
L 498.812289 430.896306 
L 499.015279 430.75191 
L 500.03023 429.318821 
L 500.639201 428.734842 
L 502.466114 427.812759 
L 502.669104 427.623899 
L 503.278075 428.255152 
L 504.293026 428.029086 
L 504.901997 427.799953 
L 505.104987 339.059714 
L 505.713958 246.137757 
L 505.916949 277.588953 
L 506.119939 335.712888 
L 506.322929 434.304277 
L 506.525919 444.419805 
L 509.976754 444.529741 
L 510.179745 444.283533 
L 510.585725 440.105249 
L 510.788715 442.905984 
L 511.194696 444.226821 
L 511.600677 444.59068 
L 512.006657 444.690208 
L 512.209647 444.545812 
L 513.224599 443.112723 
L 513.83357 442.528744 
L 515.660482 441.606661 
L 515.863473 441.417801 
L 516.472444 442.049054 
L 517.487395 441.822988 
L 518.096366 441.593855 
L 518.299356 352.853616 
L 518.908327 259.931659 
L 519.111317 291.382855 
L 519.314308 349.50679 
L 519.517298 448.098179 
L 522.968133 448.208115 
L 523.171123 447.961907 
L 523.577104 443.783623 
L 523.780094 446.584358 
L 524.186074 447.905195 
L 524.592055 448.269054 
L 524.998036 448.368582 
L 525.201026 448.224186 
L 526.215977 446.791097 
L 526.824948 446.207118 
L 528.651861 445.285035 
L 528.854851 445.096175 
L 529.463822 445.727428 
L 530.478773 445.501362 
L 531.087744 445.272229 
L 531.290734 356.53199 
L 531.899705 263.610033 
L 532.102696 295.061229 
L 532.305686 353.185164 
L 532.508676 451.776553 
L 535.959511 451.886489 
L 536.162501 451.640281 
L 536.568482 447.461997 
L 536.771472 450.262732 
L 537.177453 451.583569 
L 537.583433 451.947428 
L 537.989414 452.046956 
L 538.192404 451.90256 
L 539.207356 450.469471 
L 539.816327 449.885492 
L 541.643239 448.963408 
L 541.846229 448.774549 
L 542.4552 449.405802 
L 543.470152 449.179736 
L 544.079123 448.950603 
L 544.282113 360.210364 
L 544.891084 267.288407 
L 545.094074 298.739603 
L 545.297064 356.863538 
L 545.500055 455.454927 
L 548.950889 455.564863 
L 549.15388 455.318655 
L 549.55986 451.140371 
L 549.762851 453.941106 
L 550.168831 455.261943 
L 550.574812 455.625802 
L 550.980792 455.72533 
L 551.183783 455.580934 
L 552.198734 454.147845 
L 552.807705 453.563866 
L 554.634617 452.641782 
L 554.837608 452.452922 
L 555.446579 453.084176 
L 556.46153 452.858109 
L 557.070501 452.628977 
L 557.273491 363.888738 
L 557.882462 270.966781 
L 558.085452 302.417977 
L 558.288443 360.541912 
L 558.491433 459.133301 
L 561.942268 459.243237 
L 562.145258 458.997028 
L 562.551239 454.818745 
L 562.754229 457.61948 
L 563.16021 458.940317 
L 563.56619 459.304176 
L 563.972171 459.403703 
L 564.175161 459.259308 
L 565.190112 457.826219 
L 565.799083 457.24224 
L 567.625996 456.320156 
L 567.828986 456.131296 
L 568.437957 456.76255 
L 569.452908 456.536483 
L 570.061879 456.307351 
L 570.26487 367.567111 
L 570.87384 274.645155 
L 571.076831 306.096351 
L 571.279821 364.220286 
L 571.482811 462.811675 
L 571.685802 472.927203 
L 575.136636 473.037139 
L 575.339627 472.790931 
L 575.745607 468.612647 
L 575.948598 471.413382 
L 576.354578 472.734219 
L 576.760559 473.098078 
L 577.166539 473.197606 
L 577.36953 473.05321 
L 578.384481 471.620121 
L 578.993452 471.036142 
L 580.820365 470.114058 
L 581.023355 469.925198 
L 581.632326 470.556452 
L 582.647277 470.330385 
L 583.256248 470.101253 
L 583.459238 381.361014 
L 584.068209 288.439057 
L 584.271199 319.890253 
L 584.47419 378.014188 
L 584.67718 476.605577 
L 588.128015 476.715513 
L 588.331005 476.469305 
L 588.736986 472.291021 
L 588.939976 475.091756 
L 589.345957 476.412593 
L 589.751937 476.776452 
L 590.157918 476.875979 
L 590.360908 476.731584 
L 591.375859 475.298495 
L 591.98483 474.714516 
L 593.811743 473.792432 
L 594.014733 473.603572 
L 594.623704 474.234826 
L 595.638655 474.008759 
L 596.247626 473.779627 
L 596.450617 385.039387 
L 597.059587 292.117431 
L 597.262578 323.568627 
L 597.465568 381.692562 
L 597.668558 480.283951 
L 601.119393 480.393887 
L 601.322383 480.147678 
L 601.728364 475.969394 
L 601.931354 478.77013 
L 602.337335 480.090967 
L 602.743316 480.454826 
L 603.149296 480.554353 
L 603.352286 480.409958 
L 604.367238 478.976869 
L 604.976209 478.39289 
L 606.803121 477.470806 
L 607.006112 477.281946 
L 607.615082 477.9132 
L 608.630034 477.687133 
L 609.239005 477.458001 
L 609.441995 388.717761 
L 610.050966 295.795805 
L 610.253956 327.247001 
L 610.456946 385.370936 
L 610.659937 483.962325 
L 614.110772 484.072261 
L 614.313762 483.826052 
L 614.719742 479.647768 
L 614.922733 482.448504 
L 615.328713 483.769341 
L 615.734694 484.1332 
L 616.140674 484.232727 
L 616.343665 484.088331 
L 617.358616 482.655243 
L 617.967587 482.071263 
L 619.7945 481.14918 
L 619.99749 480.96032 
L 620.606461 481.591574 
L 621.621412 481.365507 
L 622.230383 481.136375 
L 622.433373 392.396135 
L 622.636364 364.677072 
L 622.636364 364.677072 
" style="fill:none;stroke:#1f77b4;stroke-linecap:square;stroke-width:1.5;"/>
   </g>
   <g id="patch_3">
    <path d="M 90 504 
L 90 69.12 
" style="fill:none;stroke:#000000;stroke-linecap:square;stroke-linejoin:miter;stroke-width:0.8;"/>
   </g>
   <g id="patch_4">
    <path d="M 648 504 
L 648 69.12 
" style="fill:none;stroke:#000000;stroke-linecap:square;stroke-linejoin:miter;stroke-width:0.8;"/>
   </g>
   <g id="patch_5">
    <path d="M 90 504 
L 648 504 
" style="fill:none;stroke:#000000;stroke-linecap:square;stroke-linejoin:miter;stroke-width:0.8;"/>
   </g>
   <g id="patch_6">
    <path d="M 90 69.12 
L 648 69.12 
" style="fill:none;stroke:#000000;stroke-linecap:square;stroke-linejoin:miter;stroke-width:0.8;"/>
   </g>
  </g>
 </g>
 <defs>
  <clipPath id="pbb7a8d77e1">
   <rect height="434.88" width="558" x="90" y="69.12"/>
  </clipPath>
 </defs>
</svg>
