<?xml version="1.0" encoding="utf-8" standalone="no"?>
<!DOCTYPE svg PUBLIC "-//W3C//DTD SVG 1.1//EN"
  "http://www.w3.org/Graphics/SVG/1.1/DTD/svg11.dtd">
<svg height="576pt" version="1.1" viewBox="0 0 720 576" width="720pt" xmlns="http://www.w3.org/2000/svg" xmlns:xlink="http://www.w3.org/1999/xlink">
 <metadata>
  <rdf:RDF xmlns:cc="http://creativecommons.org/ns#" xmlns:dc="http://purl.org/dc/elements/1.1/" xmlns:rdf="http://www.w3.org/1999/02/22-rdf-syntax-ns#">
   <cc:Work>
    <dc:type rdf:resource="http://purl.org/dc/dcmitype/StillImage"/>
    <dc:date>2022-01-19T22:12:17.455220</dc:date>
    <dc:format>image/svg+xml</dc:format>
    <dc:creator>
     <cc:Agent>
      <dc:title>Matplotlib v3.4.3, https://matplotlib.org/</dc:title>
     </cc:Agent>
    </dc:creator>
   </cc:Work>
  </rdf:RDF>
 </metadata>
 <defs>
  <style type="text/css">*{stroke-linecap:butt;stroke-linejoin:round;}</style>
 </defs>
 <g id="figure_1">
  <g id="patch_1">
   <path d="M 0 576 
L 720 576 
L 720 0 
L 0 0 
z
" style="fill:none;"/>
  </g>
  <g id="axes_1">
   <g id="patch_2">
    <path d="M 90 504 
L 648 504 
L 648 69.12 
L 90 69.12 
z
" style="fill:#ffffff;"/>
   </g>
   <g id="matplotlib.axis_1">
    <g id="xtick_1">
     <g id="line2d_1">
      <defs>
       <path d="M 0 0 
L 0 3.5 
" id="mec1975ab87" style="stroke:#000000;stroke-width:0.8;"/>
      </defs>
      <g>
       <use style="stroke:#000000;stroke-width:0.8;" x="115.363636" xlink:href="#mec1975ab87" y="504"/>
      </g>
     </g>
     <g id="text_1">
      <!-- 0 -->
      <g transform="translate(108.364886 527.716563)scale(0.22 -0.22)">
       <defs>
        <path d="M 2034 4250 
Q 1547 4250 1301 3770 
Q 1056 3291 1056 2328 
Q 1056 1369 1301 889 
Q 1547 409 2034 409 
Q 2525 409 2770 889 
Q 3016 1369 3016 2328 
Q 3016 3291 2770 3770 
Q 2525 4250 2034 4250 
z
M 2034 4750 
Q 2819 4750 3233 4129 
Q 3647 3509 3647 2328 
Q 3647 1150 3233 529 
Q 2819 -91 2034 -91 
Q 1250 -91 836 529 
Q 422 1150 422 2328 
Q 422 3509 836 4129 
Q 1250 4750 2034 4750 
z
" id="DejaVuSans-30" transform="scale(0.015625)"/>
       </defs>
       <use xlink:href="#DejaVuSans-30"/>
      </g>
     </g>
    </g>
    <g id="xtick_2">
     <g id="line2d_2">
      <g>
       <use style="stroke:#000000;stroke-width:0.8;" x="216.85878" xlink:href="#mec1975ab87" y="504"/>
      </g>
     </g>
     <g id="text_2">
      <!-- 500 -->
      <g transform="translate(195.86253 527.716563)scale(0.22 -0.22)">
       <defs>
        <path d="M 691 4666 
L 3169 4666 
L 3169 4134 
L 1269 4134 
L 1269 2991 
Q 1406 3038 1543 3061 
Q 1681 3084 1819 3084 
Q 2600 3084 3056 2656 
Q 3513 2228 3513 1497 
Q 3513 744 3044 326 
Q 2575 -91 1722 -91 
Q 1428 -91 1123 -41 
Q 819 9 494 109 
L 494 744 
Q 775 591 1075 516 
Q 1375 441 1709 441 
Q 2250 441 2565 725 
Q 2881 1009 2881 1497 
Q 2881 1984 2565 2268 
Q 2250 2553 1709 2553 
Q 1456 2553 1204 2497 
Q 953 2441 691 2322 
L 691 4666 
z
" id="DejaVuSans-35" transform="scale(0.015625)"/>
       </defs>
       <use xlink:href="#DejaVuSans-35"/>
       <use x="63.623047" xlink:href="#DejaVuSans-30"/>
       <use x="127.246094" xlink:href="#DejaVuSans-30"/>
      </g>
     </g>
    </g>
    <g id="xtick_3">
     <g id="line2d_3">
      <g>
       <use style="stroke:#000000;stroke-width:0.8;" x="318.353923" xlink:href="#mec1975ab87" y="504"/>
      </g>
     </g>
     <g id="text_3">
      <!-- 1000 -->
      <g transform="translate(290.358923 527.716563)scale(0.22 -0.22)">
       <defs>
        <path d="M 794 531 
L 1825 531 
L 1825 4091 
L 703 3866 
L 703 4441 
L 1819 4666 
L 2450 4666 
L 2450 531 
L 3481 531 
L 3481 0 
L 794 0 
L 794 531 
z
" id="DejaVuSans-31" transform="scale(0.015625)"/>
       </defs>
       <use xlink:href="#DejaVuSans-31"/>
       <use x="63.623047" xlink:href="#DejaVuSans-30"/>
       <use x="127.246094" xlink:href="#DejaVuSans-30"/>
       <use x="190.869141" xlink:href="#DejaVuSans-30"/>
      </g>
     </g>
    </g>
    <g id="xtick_4">
     <g id="line2d_4">
      <g>
       <use style="stroke:#000000;stroke-width:0.8;" x="419.849067" xlink:href="#mec1975ab87" y="504"/>
      </g>
     </g>
     <g id="text_4">
      <!-- 1500 -->
      <g transform="translate(391.854067 527.716563)scale(0.22 -0.22)">
       <use xlink:href="#DejaVuSans-31"/>
       <use x="63.623047" xlink:href="#DejaVuSans-35"/>
       <use x="127.246094" xlink:href="#DejaVuSans-30"/>
       <use x="190.869141" xlink:href="#DejaVuSans-30"/>
      </g>
     </g>
    </g>
    <g id="xtick_5">
     <g id="line2d_5">
      <g>
       <use style="stroke:#000000;stroke-width:0.8;" x="521.34421" xlink:href="#mec1975ab87" y="504"/>
      </g>
     </g>
     <g id="text_5">
      <!-- 2000 -->
      <g transform="translate(493.34921 527.716563)scale(0.22 -0.22)">
       <defs>
        <path d="M 1228 531 
L 3431 531 
L 3431 0 
L 469 0 
L 469 531 
Q 828 903 1448 1529 
Q 2069 2156 2228 2338 
Q 2531 2678 2651 2914 
Q 2772 3150 2772 3378 
Q 2772 3750 2511 3984 
Q 2250 4219 1831 4219 
Q 1534 4219 1204 4116 
Q 875 4013 500 3803 
L 500 4441 
Q 881 4594 1212 4672 
Q 1544 4750 1819 4750 
Q 2544 4750 2975 4387 
Q 3406 4025 3406 3419 
Q 3406 3131 3298 2873 
Q 3191 2616 2906 2266 
Q 2828 2175 2409 1742 
Q 1991 1309 1228 531 
z
" id="DejaVuSans-32" transform="scale(0.015625)"/>
       </defs>
       <use xlink:href="#DejaVuSans-32"/>
       <use x="63.623047" xlink:href="#DejaVuSans-30"/>
       <use x="127.246094" xlink:href="#DejaVuSans-30"/>
       <use x="190.869141" xlink:href="#DejaVuSans-30"/>
      </g>
     </g>
    </g>
    <g id="xtick_6">
     <g id="line2d_6">
      <g>
       <use style="stroke:#000000;stroke-width:0.8;" x="622.839354" xlink:href="#mec1975ab87" y="504"/>
      </g>
     </g>
     <g id="text_6">
      <!-- 2500 -->
      <g transform="translate(594.844354 527.716563)scale(0.22 -0.22)">
       <use xlink:href="#DejaVuSans-32"/>
       <use x="63.623047" xlink:href="#DejaVuSans-35"/>
       <use x="127.246094" xlink:href="#DejaVuSans-30"/>
       <use x="190.869141" xlink:href="#DejaVuSans-30"/>
      </g>
     </g>
    </g>
    <g id="text_7">
     <!-- nr iteracji epizodu -->
     <g transform="translate(269.688906 553.008438)scale(0.22 -0.22)">
      <defs>
       <path d="M 3513 2113 
L 3513 0 
L 2938 0 
L 2938 2094 
Q 2938 2591 2744 2837 
Q 2550 3084 2163 3084 
Q 1697 3084 1428 2787 
Q 1159 2491 1159 1978 
L 1159 0 
L 581 0 
L 581 3500 
L 1159 3500 
L 1159 2956 
Q 1366 3272 1645 3428 
Q 1925 3584 2291 3584 
Q 2894 3584 3203 3211 
Q 3513 2838 3513 2113 
z
" id="DejaVuSans-6e" transform="scale(0.015625)"/>
       <path d="M 2631 2963 
Q 2534 3019 2420 3045 
Q 2306 3072 2169 3072 
Q 1681 3072 1420 2755 
Q 1159 2438 1159 1844 
L 1159 0 
L 581 0 
L 581 3500 
L 1159 3500 
L 1159 2956 
Q 1341 3275 1631 3429 
Q 1922 3584 2338 3584 
Q 2397 3584 2469 3576 
Q 2541 3569 2628 3553 
L 2631 2963 
z
" id="DejaVuSans-72" transform="scale(0.015625)"/>
       <path id="DejaVuSans-20" transform="scale(0.015625)"/>
       <path d="M 603 3500 
L 1178 3500 
L 1178 0 
L 603 0 
L 603 3500 
z
M 603 4863 
L 1178 4863 
L 1178 4134 
L 603 4134 
L 603 4863 
z
" id="DejaVuSans-69" transform="scale(0.015625)"/>
       <path d="M 1172 4494 
L 1172 3500 
L 2356 3500 
L 2356 3053 
L 1172 3053 
L 1172 1153 
Q 1172 725 1289 603 
Q 1406 481 1766 481 
L 2356 481 
L 2356 0 
L 1766 0 
Q 1100 0 847 248 
Q 594 497 594 1153 
L 594 3053 
L 172 3053 
L 172 3500 
L 594 3500 
L 594 4494 
L 1172 4494 
z
" id="DejaVuSans-74" transform="scale(0.015625)"/>
       <path d="M 3597 1894 
L 3597 1613 
L 953 1613 
Q 991 1019 1311 708 
Q 1631 397 2203 397 
Q 2534 397 2845 478 
Q 3156 559 3463 722 
L 3463 178 
Q 3153 47 2828 -22 
Q 2503 -91 2169 -91 
Q 1331 -91 842 396 
Q 353 884 353 1716 
Q 353 2575 817 3079 
Q 1281 3584 2069 3584 
Q 2775 3584 3186 3129 
Q 3597 2675 3597 1894 
z
M 3022 2063 
Q 3016 2534 2758 2815 
Q 2500 3097 2075 3097 
Q 1594 3097 1305 2825 
Q 1016 2553 972 2059 
L 3022 2063 
z
" id="DejaVuSans-65" transform="scale(0.015625)"/>
       <path d="M 2194 1759 
Q 1497 1759 1228 1600 
Q 959 1441 959 1056 
Q 959 750 1161 570 
Q 1363 391 1709 391 
Q 2188 391 2477 730 
Q 2766 1069 2766 1631 
L 2766 1759 
L 2194 1759 
z
M 3341 1997 
L 3341 0 
L 2766 0 
L 2766 531 
Q 2569 213 2275 61 
Q 1981 -91 1556 -91 
Q 1019 -91 701 211 
Q 384 513 384 1019 
Q 384 1609 779 1909 
Q 1175 2209 1959 2209 
L 2766 2209 
L 2766 2266 
Q 2766 2663 2505 2880 
Q 2244 3097 1772 3097 
Q 1472 3097 1187 3025 
Q 903 2953 641 2809 
L 641 3341 
Q 956 3463 1253 3523 
Q 1550 3584 1831 3584 
Q 2591 3584 2966 3190 
Q 3341 2797 3341 1997 
z
" id="DejaVuSans-61" transform="scale(0.015625)"/>
       <path d="M 3122 3366 
L 3122 2828 
Q 2878 2963 2633 3030 
Q 2388 3097 2138 3097 
Q 1578 3097 1268 2742 
Q 959 2388 959 1747 
Q 959 1106 1268 751 
Q 1578 397 2138 397 
Q 2388 397 2633 464 
Q 2878 531 3122 666 
L 3122 134 
Q 2881 22 2623 -34 
Q 2366 -91 2075 -91 
Q 1284 -91 818 406 
Q 353 903 353 1747 
Q 353 2603 823 3093 
Q 1294 3584 2113 3584 
Q 2378 3584 2631 3529 
Q 2884 3475 3122 3366 
z
" id="DejaVuSans-63" transform="scale(0.015625)"/>
       <path d="M 603 3500 
L 1178 3500 
L 1178 -63 
Q 1178 -731 923 -1031 
Q 669 -1331 103 -1331 
L -116 -1331 
L -116 -844 
L 38 -844 
Q 366 -844 484 -692 
Q 603 -541 603 -63 
L 603 3500 
z
M 603 4863 
L 1178 4863 
L 1178 4134 
L 603 4134 
L 603 4863 
z
" id="DejaVuSans-6a" transform="scale(0.015625)"/>
       <path d="M 1159 525 
L 1159 -1331 
L 581 -1331 
L 581 3500 
L 1159 3500 
L 1159 2969 
Q 1341 3281 1617 3432 
Q 1894 3584 2278 3584 
Q 2916 3584 3314 3078 
Q 3713 2572 3713 1747 
Q 3713 922 3314 415 
Q 2916 -91 2278 -91 
Q 1894 -91 1617 61 
Q 1341 213 1159 525 
z
M 3116 1747 
Q 3116 2381 2855 2742 
Q 2594 3103 2138 3103 
Q 1681 3103 1420 2742 
Q 1159 2381 1159 1747 
Q 1159 1113 1420 752 
Q 1681 391 2138 391 
Q 2594 391 2855 752 
Q 3116 1113 3116 1747 
z
" id="DejaVuSans-70" transform="scale(0.015625)"/>
       <path d="M 353 3500 
L 3084 3500 
L 3084 2975 
L 922 459 
L 3084 459 
L 3084 0 
L 275 0 
L 275 525 
L 2438 3041 
L 353 3041 
L 353 3500 
z
" id="DejaVuSans-7a" transform="scale(0.015625)"/>
       <path d="M 1959 3097 
Q 1497 3097 1228 2736 
Q 959 2375 959 1747 
Q 959 1119 1226 758 
Q 1494 397 1959 397 
Q 2419 397 2687 759 
Q 2956 1122 2956 1747 
Q 2956 2369 2687 2733 
Q 2419 3097 1959 3097 
z
M 1959 3584 
Q 2709 3584 3137 3096 
Q 3566 2609 3566 1747 
Q 3566 888 3137 398 
Q 2709 -91 1959 -91 
Q 1206 -91 779 398 
Q 353 888 353 1747 
Q 353 2609 779 3096 
Q 1206 3584 1959 3584 
z
" id="DejaVuSans-6f" transform="scale(0.015625)"/>
       <path d="M 2906 2969 
L 2906 4863 
L 3481 4863 
L 3481 0 
L 2906 0 
L 2906 525 
Q 2725 213 2448 61 
Q 2172 -91 1784 -91 
Q 1150 -91 751 415 
Q 353 922 353 1747 
Q 353 2572 751 3078 
Q 1150 3584 1784 3584 
Q 2172 3584 2448 3432 
Q 2725 3281 2906 2969 
z
M 947 1747 
Q 947 1113 1208 752 
Q 1469 391 1925 391 
Q 2381 391 2643 752 
Q 2906 1113 2906 1747 
Q 2906 2381 2643 2742 
Q 2381 3103 1925 3103 
Q 1469 3103 1208 2742 
Q 947 2381 947 1747 
z
" id="DejaVuSans-64" transform="scale(0.015625)"/>
       <path d="M 544 1381 
L 544 3500 
L 1119 3500 
L 1119 1403 
Q 1119 906 1312 657 
Q 1506 409 1894 409 
Q 2359 409 2629 706 
Q 2900 1003 2900 1516 
L 2900 3500 
L 3475 3500 
L 3475 0 
L 2900 0 
L 2900 538 
Q 2691 219 2414 64 
Q 2138 -91 1772 -91 
Q 1169 -91 856 284 
Q 544 659 544 1381 
z
M 1991 3584 
L 1991 3584 
z
" id="DejaVuSans-75" transform="scale(0.015625)"/>
      </defs>
      <use xlink:href="#DejaVuSans-6e"/>
      <use x="63.378906" xlink:href="#DejaVuSans-72"/>
      <use x="104.492188" xlink:href="#DejaVuSans-20"/>
      <use x="136.279297" xlink:href="#DejaVuSans-69"/>
      <use x="164.0625" xlink:href="#DejaVuSans-74"/>
      <use x="203.271484" xlink:href="#DejaVuSans-65"/>
      <use x="264.794922" xlink:href="#DejaVuSans-72"/>
      <use x="305.908203" xlink:href="#DejaVuSans-61"/>
      <use x="367.1875" xlink:href="#DejaVuSans-63"/>
      <use x="422.167969" xlink:href="#DejaVuSans-6a"/>
      <use x="449.951172" xlink:href="#DejaVuSans-69"/>
      <use x="477.734375" xlink:href="#DejaVuSans-20"/>
      <use x="509.521484" xlink:href="#DejaVuSans-65"/>
      <use x="571.044922" xlink:href="#DejaVuSans-70"/>
      <use x="634.521484" xlink:href="#DejaVuSans-69"/>
      <use x="662.304688" xlink:href="#DejaVuSans-7a"/>
      <use x="714.794922" xlink:href="#DejaVuSans-6f"/>
      <use x="775.976562" xlink:href="#DejaVuSans-64"/>
      <use x="839.453125" xlink:href="#DejaVuSans-75"/>
     </g>
    </g>
   </g>
   <g id="matplotlib.axis_2">
    <g id="ytick_1">
     <g id="line2d_7">
      <defs>
       <path d="M 0 0 
L -3.5 0 
" id="m1ec35aff5f" style="stroke:#000000;stroke-width:0.8;"/>
      </defs>
      <g>
       <use style="stroke:#000000;stroke-width:0.8;" x="90" xlink:href="#m1ec35aff5f" y="492.291122"/>
      </g>
     </g>
     <g id="text_8">
      <!-- −40000 -->
      <g transform="translate(-5.422813 500.649403)scale(0.22 -0.22)">
       <defs>
        <path d="M 678 2272 
L 4684 2272 
L 4684 1741 
L 678 1741 
L 678 2272 
z
" id="DejaVuSans-2212" transform="scale(0.015625)"/>
        <path d="M 2419 4116 
L 825 1625 
L 2419 1625 
L 2419 4116 
z
M 2253 4666 
L 3047 4666 
L 3047 1625 
L 3713 1625 
L 3713 1100 
L 3047 1100 
L 3047 0 
L 2419 0 
L 2419 1100 
L 313 1100 
L 313 1709 
L 2253 4666 
z
" id="DejaVuSans-34" transform="scale(0.015625)"/>
       </defs>
       <use xlink:href="#DejaVuSans-2212"/>
       <use x="83.789062" xlink:href="#DejaVuSans-34"/>
       <use x="147.412109" xlink:href="#DejaVuSans-30"/>
       <use x="211.035156" xlink:href="#DejaVuSans-30"/>
       <use x="274.658203" xlink:href="#DejaVuSans-30"/>
       <use x="338.28125" xlink:href="#DejaVuSans-30"/>
      </g>
     </g>
    </g>
    <g id="ytick_2">
     <g id="line2d_8">
      <g>
       <use style="stroke:#000000;stroke-width:0.8;" x="90" xlink:href="#m1ec35aff5f" y="441.86312"/>
      </g>
     </g>
     <g id="text_9">
      <!-- −35000 -->
      <g transform="translate(-5.422813 450.221401)scale(0.22 -0.22)">
       <defs>
        <path d="M 2597 2516 
Q 3050 2419 3304 2112 
Q 3559 1806 3559 1356 
Q 3559 666 3084 287 
Q 2609 -91 1734 -91 
Q 1441 -91 1130 -33 
Q 819 25 488 141 
L 488 750 
Q 750 597 1062 519 
Q 1375 441 1716 441 
Q 2309 441 2620 675 
Q 2931 909 2931 1356 
Q 2931 1769 2642 2001 
Q 2353 2234 1838 2234 
L 1294 2234 
L 1294 2753 
L 1863 2753 
Q 2328 2753 2575 2939 
Q 2822 3125 2822 3475 
Q 2822 3834 2567 4026 
Q 2313 4219 1838 4219 
Q 1578 4219 1281 4162 
Q 984 4106 628 3988 
L 628 4550 
Q 988 4650 1302 4700 
Q 1616 4750 1894 4750 
Q 2613 4750 3031 4423 
Q 3450 4097 3450 3541 
Q 3450 3153 3228 2886 
Q 3006 2619 2597 2516 
z
" id="DejaVuSans-33" transform="scale(0.015625)"/>
       </defs>
       <use xlink:href="#DejaVuSans-2212"/>
       <use x="83.789062" xlink:href="#DejaVuSans-33"/>
       <use x="147.412109" xlink:href="#DejaVuSans-35"/>
       <use x="211.035156" xlink:href="#DejaVuSans-30"/>
       <use x="274.658203" xlink:href="#DejaVuSans-30"/>
       <use x="338.28125" xlink:href="#DejaVuSans-30"/>
      </g>
     </g>
    </g>
    <g id="ytick_3">
     <g id="line2d_9">
      <g>
       <use style="stroke:#000000;stroke-width:0.8;" x="90" xlink:href="#m1ec35aff5f" y="391.435117"/>
      </g>
     </g>
     <g id="text_10">
      <!-- −30000 -->
      <g transform="translate(-5.422813 399.793398)scale(0.22 -0.22)">
       <use xlink:href="#DejaVuSans-2212"/>
       <use x="83.789062" xlink:href="#DejaVuSans-33"/>
       <use x="147.412109" xlink:href="#DejaVuSans-30"/>
       <use x="211.035156" xlink:href="#DejaVuSans-30"/>
       <use x="274.658203" xlink:href="#DejaVuSans-30"/>
       <use x="338.28125" xlink:href="#DejaVuSans-30"/>
      </g>
     </g>
    </g>
    <g id="ytick_4">
     <g id="line2d_10">
      <g>
       <use style="stroke:#000000;stroke-width:0.8;" x="90" xlink:href="#m1ec35aff5f" y="341.007114"/>
      </g>
     </g>
     <g id="text_11">
      <!-- −25000 -->
      <g transform="translate(-5.422813 349.365396)scale(0.22 -0.22)">
       <use xlink:href="#DejaVuSans-2212"/>
       <use x="83.789062" xlink:href="#DejaVuSans-32"/>
       <use x="147.412109" xlink:href="#DejaVuSans-35"/>
       <use x="211.035156" xlink:href="#DejaVuSans-30"/>
       <use x="274.658203" xlink:href="#DejaVuSans-30"/>
       <use x="338.28125" xlink:href="#DejaVuSans-30"/>
      </g>
     </g>
    </g>
    <g id="ytick_5">
     <g id="line2d_11">
      <g>
       <use style="stroke:#000000;stroke-width:0.8;" x="90" xlink:href="#m1ec35aff5f" y="290.579112"/>
      </g>
     </g>
     <g id="text_12">
      <!-- −20000 -->
      <g transform="translate(-5.422813 298.937393)scale(0.22 -0.22)">
       <use xlink:href="#DejaVuSans-2212"/>
       <use x="83.789062" xlink:href="#DejaVuSans-32"/>
       <use x="147.412109" xlink:href="#DejaVuSans-30"/>
       <use x="211.035156" xlink:href="#DejaVuSans-30"/>
       <use x="274.658203" xlink:href="#DejaVuSans-30"/>
       <use x="338.28125" xlink:href="#DejaVuSans-30"/>
      </g>
     </g>
    </g>
    <g id="ytick_6">
     <g id="line2d_12">
      <g>
       <use style="stroke:#000000;stroke-width:0.8;" x="90" xlink:href="#m1ec35aff5f" y="240.151109"/>
      </g>
     </g>
     <g id="text_13">
      <!-- −15000 -->
      <g transform="translate(-5.422813 248.50939)scale(0.22 -0.22)">
       <use xlink:href="#DejaVuSans-2212"/>
       <use x="83.789062" xlink:href="#DejaVuSans-31"/>
       <use x="147.412109" xlink:href="#DejaVuSans-35"/>
       <use x="211.035156" xlink:href="#DejaVuSans-30"/>
       <use x="274.658203" xlink:href="#DejaVuSans-30"/>
       <use x="338.28125" xlink:href="#DejaVuSans-30"/>
      </g>
     </g>
    </g>
    <g id="ytick_7">
     <g id="line2d_13">
      <g>
       <use style="stroke:#000000;stroke-width:0.8;" x="90" xlink:href="#m1ec35aff5f" y="189.723107"/>
      </g>
     </g>
     <g id="text_14">
      <!-- −10000 -->
      <g transform="translate(-5.422813 198.081388)scale(0.22 -0.22)">
       <use xlink:href="#DejaVuSans-2212"/>
       <use x="83.789062" xlink:href="#DejaVuSans-31"/>
       <use x="147.412109" xlink:href="#DejaVuSans-30"/>
       <use x="211.035156" xlink:href="#DejaVuSans-30"/>
       <use x="274.658203" xlink:href="#DejaVuSans-30"/>
       <use x="338.28125" xlink:href="#DejaVuSans-30"/>
      </g>
     </g>
    </g>
    <g id="ytick_8">
     <g id="line2d_14">
      <g>
       <use style="stroke:#000000;stroke-width:0.8;" x="90" xlink:href="#m1ec35aff5f" y="139.295104"/>
      </g>
     </g>
     <g id="text_15">
      <!-- −5000 -->
      <g transform="translate(8.574687 147.653385)scale(0.22 -0.22)">
       <use xlink:href="#DejaVuSans-2212"/>
       <use x="83.789062" xlink:href="#DejaVuSans-35"/>
       <use x="147.412109" xlink:href="#DejaVuSans-30"/>
       <use x="211.035156" xlink:href="#DejaVuSans-30"/>
       <use x="274.658203" xlink:href="#DejaVuSans-30"/>
      </g>
     </g>
    </g>
    <g id="ytick_9">
     <g id="line2d_15">
      <g>
       <use style="stroke:#000000;stroke-width:0.8;" x="90" xlink:href="#m1ec35aff5f" y="88.867102"/>
      </g>
     </g>
     <g id="text_16">
      <!-- 0 -->
      <g transform="translate(69.0025 97.225383)scale(0.22 -0.22)">
       <use xlink:href="#DejaVuSans-30"/>
      </g>
     </g>
    </g>
    <g id="text_17">
     <!-- wartość funkcji nagrody -->
     <g transform="translate(-13.998125 418.171562)rotate(-90)scale(0.22 -0.22)">
      <defs>
       <path d="M 269 3500 
L 844 3500 
L 1563 769 
L 2278 3500 
L 2956 3500 
L 3675 769 
L 4391 3500 
L 4966 3500 
L 4050 0 
L 3372 0 
L 2619 2869 
L 1863 0 
L 1184 0 
L 269 3500 
z
" id="DejaVuSans-77" transform="scale(0.015625)"/>
       <path d="M 2242 5119 
L 2864 5119 
L 1846 3944 
L 1367 3944 
L 2242 5119 
z
M 2834 3397 
L 2834 2853 
Q 2591 2978 2328 3040 
Q 2066 3103 1784 3103 
Q 1356 3103 1142 2972 
Q 928 2841 928 2578 
Q 928 2378 1081 2264 
Q 1234 2150 1697 2047 
L 1894 2003 
Q 2506 1872 2764 1633 
Q 3022 1394 3022 966 
Q 3022 478 2636 193 
Q 2250 -91 1575 -91 
Q 1294 -91 989 -36 
Q 684 19 347 128 
L 347 722 
Q 666 556 975 473 
Q 1284 391 1588 391 
Q 1994 391 2212 530 
Q 2431 669 2431 922 
Q 2431 1156 2273 1281 
Q 2116 1406 1581 1522 
L 1381 1569 
Q 847 1681 609 1914 
Q 372 2147 372 2553 
Q 372 3047 722 3315 
Q 1072 3584 1716 3584 
Q 2034 3584 2315 3537 
Q 2597 3491 2834 3397 
z
" id="DejaVuSans-15b" transform="scale(0.015625)"/>
       <path d="M 3122 3366 
L 3122 2828 
Q 2878 2963 2633 3030 
Q 2388 3097 2138 3097 
Q 1578 3097 1268 2742 
Q 959 2388 959 1747 
Q 959 1106 1268 751 
Q 1578 397 2138 397 
Q 2388 397 2633 464 
Q 2878 531 3122 666 
L 3122 134 
Q 2881 22 2623 -34 
Q 2366 -91 2075 -91 
Q 1284 -91 818 406 
Q 353 903 353 1747 
Q 353 2603 823 3093 
Q 1294 3584 2113 3584 
Q 2378 3584 2631 3529 
Q 2884 3475 3122 3366 
z
M 2466 5119 
L 3088 5119 
L 2070 3944 
L 1591 3944 
L 2466 5119 
z
" id="DejaVuSans-107" transform="scale(0.015625)"/>
       <path d="M 2375 4863 
L 2375 4384 
L 1825 4384 
Q 1516 4384 1395 4259 
Q 1275 4134 1275 3809 
L 1275 3500 
L 2222 3500 
L 2222 3053 
L 1275 3053 
L 1275 0 
L 697 0 
L 697 3053 
L 147 3053 
L 147 3500 
L 697 3500 
L 697 3744 
Q 697 4328 969 4595 
Q 1241 4863 1831 4863 
L 2375 4863 
z
" id="DejaVuSans-66" transform="scale(0.015625)"/>
       <path d="M 581 4863 
L 1159 4863 
L 1159 1991 
L 2875 3500 
L 3609 3500 
L 1753 1863 
L 3688 0 
L 2938 0 
L 1159 1709 
L 1159 0 
L 581 0 
L 581 4863 
z
" id="DejaVuSans-6b" transform="scale(0.015625)"/>
       <path d="M 2906 1791 
Q 2906 2416 2648 2759 
Q 2391 3103 1925 3103 
Q 1463 3103 1205 2759 
Q 947 2416 947 1791 
Q 947 1169 1205 825 
Q 1463 481 1925 481 
Q 2391 481 2648 825 
Q 2906 1169 2906 1791 
z
M 3481 434 
Q 3481 -459 3084 -895 
Q 2688 -1331 1869 -1331 
Q 1566 -1331 1297 -1286 
Q 1028 -1241 775 -1147 
L 775 -588 
Q 1028 -725 1275 -790 
Q 1522 -856 1778 -856 
Q 2344 -856 2625 -561 
Q 2906 -266 2906 331 
L 2906 616 
Q 2728 306 2450 153 
Q 2172 0 1784 0 
Q 1141 0 747 490 
Q 353 981 353 1791 
Q 353 2603 747 3093 
Q 1141 3584 1784 3584 
Q 2172 3584 2450 3431 
Q 2728 3278 2906 2969 
L 2906 3500 
L 3481 3500 
L 3481 434 
z
" id="DejaVuSans-67" transform="scale(0.015625)"/>
       <path d="M 2059 -325 
Q 1816 -950 1584 -1140 
Q 1353 -1331 966 -1331 
L 506 -1331 
L 506 -850 
L 844 -850 
Q 1081 -850 1212 -737 
Q 1344 -625 1503 -206 
L 1606 56 
L 191 3500 
L 800 3500 
L 1894 763 
L 2988 3500 
L 3597 3500 
L 2059 -325 
z
" id="DejaVuSans-79" transform="scale(0.015625)"/>
      </defs>
      <use xlink:href="#DejaVuSans-77"/>
      <use x="81.787109" xlink:href="#DejaVuSans-61"/>
      <use x="143.066406" xlink:href="#DejaVuSans-72"/>
      <use x="184.179688" xlink:href="#DejaVuSans-74"/>
      <use x="223.388672" xlink:href="#DejaVuSans-6f"/>
      <use x="284.570312" xlink:href="#DejaVuSans-15b"/>
      <use x="336.669922" xlink:href="#DejaVuSans-107"/>
      <use x="391.650391" xlink:href="#DejaVuSans-20"/>
      <use x="423.4375" xlink:href="#DejaVuSans-66"/>
      <use x="458.642578" xlink:href="#DejaVuSans-75"/>
      <use x="522.021484" xlink:href="#DejaVuSans-6e"/>
      <use x="585.400391" xlink:href="#DejaVuSans-6b"/>
      <use x="643.310547" xlink:href="#DejaVuSans-63"/>
      <use x="698.291016" xlink:href="#DejaVuSans-6a"/>
      <use x="726.074219" xlink:href="#DejaVuSans-69"/>
      <use x="753.857422" xlink:href="#DejaVuSans-20"/>
      <use x="785.644531" xlink:href="#DejaVuSans-6e"/>
      <use x="849.023438" xlink:href="#DejaVuSans-61"/>
      <use x="910.302734" xlink:href="#DejaVuSans-67"/>
      <use x="973.779297" xlink:href="#DejaVuSans-72"/>
      <use x="1012.642578" xlink:href="#DejaVuSans-6f"/>
      <use x="1073.824219" xlink:href="#DejaVuSans-64"/>
      <use x="1137.300781" xlink:href="#DejaVuSans-79"/>
     </g>
    </g>
   </g>
   <g id="line2d_16">
    <path clip-path="url(#p41b81f9741)" d="M 115.363636 88.887273 
L 115.566627 91.923038 
L 117.393539 91.922105 
L 119.220452 90.958943 
L 120.032413 90.80051 
L 120.844374 90.886985 
L 121.250355 91.05244 
L 121.656335 91.469205 
L 121.859326 92.235692 
L 124.092219 92.27762 
L 124.70119 92.06604 
L 124.90418 91.846951 
L 125.10717 90.980227 
L 125.31016 90.657484 
L 125.513151 91.346072 
L 125.919131 91.697455 
L 126.528102 91.82808 
L 127.543054 91.823585 
L 128.558005 91.587641 
L 129.166976 91.30723 
L 129.369966 95.634539 
L 131.196879 95.633606 
L 133.023791 94.670444 
L 133.632762 94.529603 
L 133.835752 105.942023 
L 135.662665 105.94109 
L 137.489578 104.977927 
L 138.301539 104.819495 
L 139.1135 104.905969 
L 139.519481 105.071425 
L 139.925461 105.488189 
L 140.128451 106.254677 
L 142.361345 106.296604 
L 142.970315 106.085025 
L 143.173306 105.865936 
L 143.376296 104.999212 
L 143.579286 104.676469 
L 143.782277 105.365057 
L 144.188257 105.71644 
L 144.797228 105.847065 
L 145.812179 105.84257 
L 146.827131 105.606626 
L 147.436102 105.326214 
L 147.639092 109.653524 
L 149.466005 109.652591 
L 151.292917 108.689428 
L 151.698898 108.58126 
L 151.901888 119.950922 
L 153.728801 119.949989 
L 155.555713 118.986826 
L 156.367674 118.828394 
L 157.179635 118.914868 
L 157.585616 119.080324 
L 157.991597 119.497088 
L 158.194587 120.263576 
L 160.42748 120.305503 
L 161.036451 120.093924 
L 161.239441 119.874835 
L 161.442432 119.008111 
L 161.645422 118.685368 
L 161.848412 119.373956 
L 162.254393 119.725339 
L 162.863364 119.855964 
L 163.878315 119.851469 
L 164.893266 119.615525 
L 165.502237 119.335113 
L 165.705228 123.662423 
L 167.53214 123.66149 
L 169.359053 122.698327 
L 169.765033 122.590159 
L 169.968024 133.959821 
L 171.794936 133.958888 
L 173.621849 132.995725 
L 174.43381 132.837293 
L 175.245771 132.923767 
L 175.651752 133.089223 
L 176.057732 133.505988 
L 176.260722 134.272475 
L 178.493616 134.314402 
L 179.102586 134.102823 
L 179.305577 133.883734 
L 179.508567 133.01701 
L 179.711557 132.694267 
L 179.914548 133.382855 
L 180.320528 133.734238 
L 180.929499 133.864863 
L 181.944451 133.860368 
L 182.959402 133.624424 
L 183.568373 133.344012 
L 183.771363 137.671322 
L 185.598276 137.670389 
L 187.425188 136.707226 
L 187.831169 136.599058 
L 188.034159 147.968721 
L 189.861072 147.967787 
L 191.687984 147.004625 
L 192.499945 146.846192 
L 193.311907 146.932667 
L 193.717887 147.098122 
L 194.123868 147.514887 
L 194.326858 148.281374 
L 196.559751 148.323302 
L 197.168722 148.111722 
L 197.371712 147.892633 
L 197.574703 147.025909 
L 197.777693 146.703166 
L 197.980683 147.391755 
L 198.386664 147.743137 
L 198.995635 147.873762 
L 200.010586 147.869267 
L 201.025537 147.633323 
L 201.634508 147.352912 
L 201.837499 151.680222 
L 203.664411 151.679288 
L 205.491324 150.716126 
L 205.897304 150.607957 
L 206.100295 161.97762 
L 207.927207 161.976686 
L 209.75412 161.013524 
L 210.566081 160.855092 
L 211.378042 160.941566 
L 211.784023 161.107021 
L 212.190003 161.523786 
L 212.392994 162.290273 
L 214.625887 162.332201 
L 215.234858 162.120621 
L 215.437848 161.901532 
L 215.640838 161.034808 
L 215.843828 160.712065 
L 216.046819 161.400654 
L 216.452799 161.752037 
L 217.06177 161.882662 
L 218.076722 161.878166 
L 219.091673 161.642222 
L 219.700644 161.361811 
L 219.903634 165.689121 
L 221.730547 165.688187 
L 223.557459 164.725025 
L 223.96344 164.616857 
L 224.16643 175.986519 
L 225.993343 175.985586 
L 227.820255 175.022423 
L 228.632217 174.863991 
L 229.444178 174.950465 
L 229.850158 175.11592 
L 230.256139 175.532685 
L 230.459129 176.299172 
L 232.692022 176.3411 
L 233.300993 176.12952 
L 233.503983 175.910431 
L 233.706974 175.043707 
L 233.909964 174.720964 
L 234.112954 175.409553 
L 234.518935 175.760936 
L 235.127906 175.891561 
L 236.142857 175.887065 
L 237.157809 175.651121 
L 237.766779 175.37071 
L 237.96977 179.69802 
L 239.796682 179.697087 
L 241.623595 178.733924 
L 242.029575 178.625756 
L 242.232566 189.995418 
L 244.059478 189.994485 
L 245.886391 189.031322 
L 246.698352 188.87289 
L 247.510313 188.959364 
L 247.916294 189.124819 
L 248.322274 189.541584 
L 248.525265 190.308071 
L 250.758158 190.349999 
L 251.367129 190.138419 
L 251.570119 189.91933 
L 251.773109 189.052607 
L 251.9761 188.729864 
L 252.17909 189.418452 
L 252.58507 189.769835 
L 253.194041 189.90046 
L 254.208993 189.895964 
L 255.223944 189.66002 
L 255.832915 189.379609 
L 256.035905 193.706919 
L 257.862818 193.705986 
L 259.68973 192.742823 
L 260.095711 192.634655 
L 260.298701 204.004317 
L 262.125614 204.003384 
L 263.952526 203.040221 
L 264.764488 202.881789 
L 265.576449 202.968263 
L 265.982429 203.133719 
L 266.38841 203.550483 
L 266.5914 204.316971 
L 268.824293 204.358898 
L 269.433264 204.147318 
L 269.636255 203.928229 
L 269.839245 203.061506 
L 270.042235 202.738763 
L 270.245225 203.427351 
L 270.651206 203.778734 
L 271.260177 203.909359 
L 272.275128 203.904863 
L 273.29008 203.66892 
L 273.899051 203.388508 
L 274.102041 207.715818 
L 275.928953 207.714885 
L 277.755866 206.751722 
L 278.161847 206.643554 
L 278.364837 218.013216 
L 280.191749 218.012283 
L 282.018662 217.04912 
L 282.830623 216.890688 
L 283.642584 216.977162 
L 284.048565 217.142618 
L 284.454545 217.559382 
L 284.657536 218.32587 
L 286.890429 218.367797 
L 287.4994 218.156218 
L 287.70239 217.937128 
L 287.90538 217.070405 
L 288.108371 216.747662 
L 288.311361 217.43625 
L 288.717341 217.787633 
L 289.326312 217.918258 
L 290.341264 217.913762 
L 291.356215 217.677819 
L 291.965186 217.397407 
L 292.168176 221.724717 
L 293.995089 221.723784 
L 295.822002 220.760621 
L 296.227982 220.652453 
L 296.430972 232.022115 
L 298.257885 232.021182 
L 300.084798 231.058019 
L 300.896759 230.899587 
L 301.70872 230.986061 
L 302.1147 231.151517 
L 302.520681 231.568281 
L 302.723671 232.334769 
L 304.956564 232.376696 
L 305.565535 232.165117 
L 305.768526 231.946028 
L 305.971516 231.079304 
L 306.174506 230.756561 
L 306.377496 231.445149 
L 306.783477 231.796532 
L 307.392448 231.927157 
L 308.407399 231.922662 
L 309.422351 231.686718 
L 310.031322 231.406306 
L 310.234312 235.733616 
L 312.061224 235.732683 
L 313.888137 234.76952 
L 314.294118 234.661352 
L 314.497108 246.031014 
L 316.324021 246.030081 
L 318.150933 245.066918 
L 318.962894 244.908486 
L 319.774855 244.99496 
L 320.180836 245.160416 
L 320.586817 245.57718 
L 320.789807 246.343668 
L 323.0227 246.385595 
L 323.631671 246.174016 
L 323.834661 245.954927 
L 324.037651 245.088203 
L 324.240642 244.76546 
L 324.443632 245.454048 
L 324.849613 245.805431 
L 325.458583 245.936056 
L 326.473535 245.931561 
L 327.488486 245.695617 
L 328.097457 245.415205 
L 328.300447 249.742515 
L 330.12736 249.741582 
L 331.954273 248.778419 
L 332.360253 248.670251 
L 332.563243 260.039913 
L 334.390156 260.03898 
L 336.217069 259.075818 
L 337.02903 258.917385 
L 337.840991 259.00386 
L 338.246972 259.169315 
L 338.652952 259.58608 
L 338.855942 260.352567 
L 341.088836 260.394494 
L 341.697806 260.182915 
L 341.900797 259.963826 
L 342.103787 259.097102 
L 342.306777 258.774359 
L 342.509768 259.462947 
L 342.915748 259.81433 
L 343.524719 259.944955 
L 344.53967 259.94046 
L 345.554622 259.704516 
L 346.163593 259.424104 
L 346.366583 263.751414 
L 348.193496 263.750481 
L 350.020408 262.787318 
L 350.426389 262.67915 
L 350.629379 274.048813 
L 352.456292 274.047879 
L 354.283204 273.084717 
L 355.095165 272.926284 
L 355.907126 273.012759 
L 356.313107 273.178214 
L 356.719088 273.594979 
L 356.922078 274.361466 
L 359.154971 274.403394 
L 359.763942 274.191814 
L 359.966932 273.972725 
L 360.169923 273.106001 
L 360.372913 272.783258 
L 360.575903 273.471847 
L 360.981884 273.823229 
L 361.590855 273.953854 
L 362.605806 273.949359 
L 363.620757 273.713415 
L 364.229728 273.433004 
L 364.432719 277.760314 
L 366.259631 277.75938 
L 368.086544 276.796218 
L 368.492524 276.688049 
L 368.695515 288.057712 
L 370.522427 288.056778 
L 372.34934 287.093616 
L 373.161301 286.935184 
L 373.973262 287.021658 
L 374.379243 287.187113 
L 374.785223 287.603878 
L 374.988213 288.370365 
L 377.221107 288.412293 
L 377.830077 288.200713 
L 378.033068 287.981624 
L 378.236058 287.1149 
L 378.439048 286.792157 
L 378.642039 287.480746 
L 379.048019 287.832129 
L 379.65699 287.962754 
L 380.671942 287.958258 
L 381.686893 287.722314 
L 382.295864 287.441903 
L 382.498854 291.769213 
L 384.325767 291.768279 
L 386.152679 290.805117 
L 386.55866 290.696949 
L 386.76165 302.066611 
L 388.588563 302.065678 
L 390.415475 301.102515 
L 391.227436 300.944083 
L 392.039398 301.030557 
L 392.445378 301.196012 
L 392.851359 301.612777 
L 393.054349 302.379264 
L 395.287242 302.421192 
L 395.896213 302.209612 
L 396.099203 301.990523 
L 396.302194 301.1238 
L 396.505184 300.801057 
L 396.708174 301.489645 
L 397.114155 301.841028 
L 397.723126 301.971653 
L 398.738077 301.967157 
L 399.753028 301.731213 
L 400.361999 301.450802 
L 400.56499 305.778112 
L 402.391902 305.777179 
L 404.218815 304.814016 
L 404.624795 304.705848 
L 404.827786 316.07551 
L 406.654698 316.074577 
L 408.481611 315.111414 
L 409.293572 314.952982 
L 410.105533 315.039456 
L 410.511514 315.204911 
L 410.917494 315.621676 
L 411.120485 316.388164 
L 413.353378 316.430091 
L 413.962349 316.218511 
L 414.165339 315.999422 
L 414.368329 315.132699 
L 414.571319 314.809956 
L 414.77431 315.498544 
L 415.18029 315.849927 
L 415.789261 315.980552 
L 416.804213 315.976056 
L 417.819164 315.740113 
L 418.428135 315.459701 
L 418.631125 319.787011 
L 420.458038 319.786078 
L 422.28495 318.822915 
L 422.690931 318.714747 
L 422.893921 330.084409 
L 424.720834 330.083476 
L 426.547746 329.120313 
L 427.359708 328.961881 
L 428.171669 329.048355 
L 428.577649 329.213811 
L 428.98363 329.630575 
L 429.18662 330.397063 
L 431.419513 330.43899 
L 432.028484 330.227411 
L 432.231474 330.008321 
L 432.434465 329.141598 
L 432.637455 328.818855 
L 432.840445 329.507443 
L 433.246426 329.858826 
L 433.855397 329.989451 
L 434.870348 329.984955 
L 435.8853 329.749012 
L 436.49427 329.4686 
L 436.697261 333.79591 
L 438.524173 333.794977 
L 440.351086 332.831814 
L 440.757066 332.723646 
L 440.960057 344.093308 
L 442.786969 344.092375 
L 444.613882 343.129212 
L 445.425843 342.97078 
L 446.237804 343.057254 
L 446.643785 343.22271 
L 447.049765 343.639474 
L 447.252756 344.405962 
L 449.485649 344.447889 
L 450.09462 344.23631 
L 450.29761 344.017221 
L 450.5006 343.150497 
L 450.703591 342.827754 
L 450.906581 343.516342 
L 451.312561 343.867725 
L 451.921532 343.99835 
L 452.936484 343.993854 
L 453.951435 343.757911 
L 454.560406 343.477499 
L 454.763396 347.804809 
L 456.590309 347.803876 
L 458.417221 346.840713 
L 458.823202 346.732545 
L 459.026192 358.102207 
L 460.853105 358.101274 
L 462.680017 357.138111 
L 463.491979 356.979679 
L 464.30394 357.066153 
L 464.70992 357.231609 
L 465.115901 357.648373 
L 465.318891 358.414861 
L 467.551784 358.456788 
L 468.160755 358.245209 
L 468.363745 358.02612 
L 468.566736 357.159396 
L 468.769726 356.836653 
L 468.972716 357.525241 
L 469.378697 357.876624 
L 469.987668 358.007249 
L 471.002619 358.002754 
L 472.017571 357.76681 
L 472.626542 357.486398 
L 472.829532 361.813708 
L 474.656444 361.812775 
L 476.483357 360.849612 
L 476.889338 360.741444 
L 477.092328 372.111106 
L 478.91924 372.110173 
L 480.746153 371.14701 
L 481.558114 370.988578 
L 482.370075 371.075052 
L 482.776056 371.240508 
L 483.182036 371.657272 
L 483.385027 372.42376 
L 485.61792 372.465687 
L 486.226891 372.254108 
L 486.429881 372.035019 
L 486.632871 371.168295 
L 486.835862 370.845552 
L 487.038852 371.53414 
L 487.444832 371.885523 
L 488.053803 372.016148 
L 489.068755 372.011653 
L 490.083706 371.775709 
L 490.692677 371.495297 
L 490.895667 375.822607 
L 492.72258 375.821674 
L 494.549493 374.858511 
L 494.955473 374.750343 
L 495.158463 386.120005 
L 496.985376 386.119072 
L 498.812289 385.15591 
L 499.62425 384.997477 
L 500.436211 385.083952 
L 500.842191 385.249407 
L 501.248172 385.666172 
L 501.451162 386.432659 
L 503.684055 386.474587 
L 504.293026 386.263007 
L 504.496017 386.043918 
L 504.699007 385.177194 
L 504.901997 384.854451 
L 505.104987 385.543039 
L 505.510968 385.894422 
L 506.119939 386.025047 
L 507.13489 386.020552 
L 508.149842 385.784608 
L 508.758813 385.504196 
L 508.961803 389.831506 
L 510.788715 389.830573 
L 512.615628 388.867411 
L 513.021609 388.759242 
L 513.224599 400.128905 
L 515.051512 400.127971 
L 516.878424 399.164809 
L 517.690385 399.006376 
L 518.502346 399.092851 
L 518.908327 399.258306 
L 519.314308 399.675071 
L 519.517298 400.441558 
L 521.750191 400.483486 
L 522.359162 400.271906 
L 522.562152 400.052817 
L 522.765142 399.186093 
L 522.968133 398.86335 
L 523.171123 399.551939 
L 523.577104 399.903321 
L 524.186074 400.033946 
L 525.201026 400.029451 
L 526.215977 399.793507 
L 526.824948 399.513096 
L 527.027938 403.840406 
L 528.854851 403.839472 
L 530.681764 402.87631 
L 531.087744 402.768141 
L 531.290734 414.137804 
L 533.117647 414.13687 
L 534.94456 413.173708 
L 535.756521 413.015276 
L 536.568482 413.10175 
L 536.974463 413.267205 
L 537.380443 413.68397 
L 537.583433 414.450457 
L 539.816327 414.492385 
L 540.425297 414.280805 
L 540.628288 414.061716 
L 540.831278 413.194992 
L 541.034268 412.872249 
L 541.237259 413.560838 
L 541.643239 413.912221 
L 542.25221 414.042846 
L 543.267161 414.03835 
L 544.282113 413.802406 
L 544.891084 413.521995 
L 545.094074 417.849305 
L 546.920987 417.848371 
L 548.747899 416.885209 
L 549.15388 416.777041 
L 549.35687 428.146703 
L 551.183783 428.14577 
L 553.010695 427.182607 
L 553.822656 427.024175 
L 554.634617 427.110649 
L 555.040598 427.276104 
L 555.446579 427.692869 
L 555.649569 428.459356 
L 557.882462 428.501284 
L 558.491433 428.289704 
L 558.694423 428.070615 
L 558.897414 427.203892 
L 559.100404 426.881149 
L 559.303394 427.569737 
L 559.709375 427.92112 
L 560.318346 428.051745 
L 561.333297 428.047249 
L 562.348248 427.811305 
L 562.957219 427.530894 
L 563.16021 431.858204 
L 564.987122 431.857271 
L 566.814035 430.894108 
L 567.220015 430.78594 
L 567.423006 442.155602 
L 569.249918 442.154669 
L 571.076831 441.191506 
L 571.888792 441.033074 
L 572.700753 441.119548 
L 573.106734 441.285003 
L 573.512714 441.701768 
L 573.715704 442.468256 
L 575.948598 442.510183 
L 576.557568 442.298603 
L 576.760559 442.079514 
L 576.963549 441.212791 
L 577.166539 440.890048 
L 577.36953 441.578636 
L 577.77551 441.930019 
L 578.384481 442.060644 
L 579.399433 442.056148 
L 580.414384 441.820205 
L 581.023355 441.539793 
L 581.226345 445.867103 
L 583.053258 445.86617 
L 584.88017 444.903007 
L 585.286151 444.794839 
L 585.489141 456.164501 
L 587.316054 456.163568 
L 589.142966 455.200405 
L 589.954927 455.041973 
L 590.766889 455.128447 
L 591.172869 455.293903 
L 591.57885 455.710667 
L 591.78184 456.477155 
L 594.014733 456.519082 
L 594.623704 456.307503 
L 594.826694 456.088413 
L 595.029685 455.22169 
L 595.232675 454.898947 
L 595.435665 455.587535 
L 595.841646 455.938918 
L 596.450617 456.069543 
L 597.465568 456.065047 
L 598.480519 455.829104 
L 599.08949 455.548692 
L 599.292481 459.876002 
L 601.119393 459.875069 
L 602.946306 458.911906 
L 603.352286 458.803738 
L 603.555277 470.1734 
L 605.382189 470.172467 
L 607.209102 469.209304 
L 608.021063 469.050872 
L 608.833024 469.137346 
L 609.239005 469.302802 
L 609.644985 469.719566 
L 609.847976 470.486054 
L 612.080869 470.527981 
L 612.68984 470.316402 
L 612.89283 470.097313 
L 613.09582 469.230589 
L 613.29881 468.907846 
L 613.501801 469.596434 
L 613.907781 469.947817 
L 614.516752 470.078442 
L 615.531704 470.073946 
L 616.546655 469.838003 
L 617.155626 469.557591 
L 617.358616 473.884901 
L 619.185529 473.883968 
L 621.012441 472.920805 
L 621.418422 472.812637 
L 621.621412 484.182299 
L 622.636364 484.232727 
L 622.636364 484.232727 
" style="fill:none;stroke:#1f77b4;stroke-linecap:square;stroke-width:1.5;"/>
   </g>
   <g id="patch_3">
    <path d="M 90 504 
L 90 69.12 
" style="fill:none;stroke:#000000;stroke-linecap:square;stroke-linejoin:miter;stroke-width:0.8;"/>
   </g>
   <g id="patch_4">
    <path d="M 648 504 
L 648 69.12 
" style="fill:none;stroke:#000000;stroke-linecap:square;stroke-linejoin:miter;stroke-width:0.8;"/>
   </g>
   <g id="patch_5">
    <path d="M 90 504 
L 648 504 
" style="fill:none;stroke:#000000;stroke-linecap:square;stroke-linejoin:miter;stroke-width:0.8;"/>
   </g>
   <g id="patch_6">
    <path d="M 90 69.12 
L 648 69.12 
" style="fill:none;stroke:#000000;stroke-linecap:square;stroke-linejoin:miter;stroke-width:0.8;"/>
   </g>
  </g>
 </g>
 <defs>
  <clipPath id="p41b81f9741">
   <rect height="434.88" width="558" x="90" y="69.12"/>
  </clipPath>
 </defs>
</svg>
