<?xml version="1.0" encoding="utf-8" standalone="no"?>
<!DOCTYPE svg PUBLIC "-//W3C//DTD SVG 1.1//EN"
  "http://www.w3.org/Graphics/SVG/1.1/DTD/svg11.dtd">
<svg height="576pt" version="1.1" viewBox="0 0 720 576" width="720pt" xmlns="http://www.w3.org/2000/svg" xmlns:xlink="http://www.w3.org/1999/xlink">
 <metadata>
  <rdf:RDF xmlns:cc="http://creativecommons.org/ns#" xmlns:dc="http://purl.org/dc/elements/1.1/" xmlns:rdf="http://www.w3.org/1999/02/22-rdf-syntax-ns#">
   <cc:Work>
    <dc:type rdf:resource="http://purl.org/dc/dcmitype/StillImage"/>
    <dc:date>2022-01-11T08:52:12.763269</dc:date>
    <dc:format>image/svg+xml</dc:format>
    <dc:creator>
     <cc:Agent>
      <dc:title>Matplotlib v3.4.3, https://matplotlib.org/</dc:title>
     </cc:Agent>
    </dc:creator>
   </cc:Work>
  </rdf:RDF>
 </metadata>
 <defs>
  <style type="text/css">*{stroke-linecap:butt;stroke-linejoin:round;}</style>
 </defs>
 <g id="figure_1">
  <g id="patch_1">
   <path d="M 0 576 
L 720 576 
L 720 0 
L 0 0 
z
" style="fill:none;"/>
  </g>
  <g id="axes_1">
   <g id="patch_2">
    <path d="M 90 504 
L 648 504 
L 648 69.12 
L 90 69.12 
z
" style="fill:#ffffff;"/>
   </g>
   <g id="matplotlib.axis_1">
    <g id="xtick_1">
     <g id="line2d_1">
      <defs>
       <path d="M 0 0 
L 0 3.5 
" id="m41343562f3" style="stroke:#000000;stroke-width:0.8;"/>
      </defs>
      <g>
       <use style="stroke:#000000;stroke-width:0.8;" x="115.363636" xlink:href="#m41343562f3" y="504"/>
      </g>
     </g>
     <g id="text_1">
      <!-- 0 -->
      <g transform="translate(112.182386 518.598438)scale(0.1 -0.1)">
       <defs>
        <path d="M 2034 4250 
Q 1547 4250 1301 3770 
Q 1056 3291 1056 2328 
Q 1056 1369 1301 889 
Q 1547 409 2034 409 
Q 2525 409 2770 889 
Q 3016 1369 3016 2328 
Q 3016 3291 2770 3770 
Q 2525 4250 2034 4250 
z
M 2034 4750 
Q 2819 4750 3233 4129 
Q 3647 3509 3647 2328 
Q 3647 1150 3233 529 
Q 2819 -91 2034 -91 
Q 1250 -91 836 529 
Q 422 1150 422 2328 
Q 422 3509 836 4129 
Q 1250 4750 2034 4750 
z
" id="DejaVuSans-30" transform="scale(0.015625)"/>
       </defs>
       <use xlink:href="#DejaVuSans-30"/>
      </g>
     </g>
    </g>
    <g id="xtick_2">
     <g id="line2d_2">
      <g>
       <use style="stroke:#000000;stroke-width:0.8;" x="216.85878" xlink:href="#m41343562f3" y="504"/>
      </g>
     </g>
     <g id="text_2">
      <!-- 500 -->
      <g transform="translate(207.31503 518.598438)scale(0.1 -0.1)">
       <defs>
        <path d="M 691 4666 
L 3169 4666 
L 3169 4134 
L 1269 4134 
L 1269 2991 
Q 1406 3038 1543 3061 
Q 1681 3084 1819 3084 
Q 2600 3084 3056 2656 
Q 3513 2228 3513 1497 
Q 3513 744 3044 326 
Q 2575 -91 1722 -91 
Q 1428 -91 1123 -41 
Q 819 9 494 109 
L 494 744 
Q 775 591 1075 516 
Q 1375 441 1709 441 
Q 2250 441 2565 725 
Q 2881 1009 2881 1497 
Q 2881 1984 2565 2268 
Q 2250 2553 1709 2553 
Q 1456 2553 1204 2497 
Q 953 2441 691 2322 
L 691 4666 
z
" id="DejaVuSans-35" transform="scale(0.015625)"/>
       </defs>
       <use xlink:href="#DejaVuSans-35"/>
       <use x="63.623047" xlink:href="#DejaVuSans-30"/>
       <use x="127.246094" xlink:href="#DejaVuSans-30"/>
      </g>
     </g>
    </g>
    <g id="xtick_3">
     <g id="line2d_3">
      <g>
       <use style="stroke:#000000;stroke-width:0.8;" x="318.353923" xlink:href="#m41343562f3" y="504"/>
      </g>
     </g>
     <g id="text_3">
      <!-- 1000 -->
      <g transform="translate(305.628923 518.598438)scale(0.1 -0.1)">
       <defs>
        <path d="M 794 531 
L 1825 531 
L 1825 4091 
L 703 3866 
L 703 4441 
L 1819 4666 
L 2450 4666 
L 2450 531 
L 3481 531 
L 3481 0 
L 794 0 
L 794 531 
z
" id="DejaVuSans-31" transform="scale(0.015625)"/>
       </defs>
       <use xlink:href="#DejaVuSans-31"/>
       <use x="63.623047" xlink:href="#DejaVuSans-30"/>
       <use x="127.246094" xlink:href="#DejaVuSans-30"/>
       <use x="190.869141" xlink:href="#DejaVuSans-30"/>
      </g>
     </g>
    </g>
    <g id="xtick_4">
     <g id="line2d_4">
      <g>
       <use style="stroke:#000000;stroke-width:0.8;" x="419.849067" xlink:href="#m41343562f3" y="504"/>
      </g>
     </g>
     <g id="text_4">
      <!-- 1500 -->
      <g transform="translate(407.124067 518.598438)scale(0.1 -0.1)">
       <use xlink:href="#DejaVuSans-31"/>
       <use x="63.623047" xlink:href="#DejaVuSans-35"/>
       <use x="127.246094" xlink:href="#DejaVuSans-30"/>
       <use x="190.869141" xlink:href="#DejaVuSans-30"/>
      </g>
     </g>
    </g>
    <g id="xtick_5">
     <g id="line2d_5">
      <g>
       <use style="stroke:#000000;stroke-width:0.8;" x="521.34421" xlink:href="#m41343562f3" y="504"/>
      </g>
     </g>
     <g id="text_5">
      <!-- 2000 -->
      <g transform="translate(508.61921 518.598438)scale(0.1 -0.1)">
       <defs>
        <path d="M 1228 531 
L 3431 531 
L 3431 0 
L 469 0 
L 469 531 
Q 828 903 1448 1529 
Q 2069 2156 2228 2338 
Q 2531 2678 2651 2914 
Q 2772 3150 2772 3378 
Q 2772 3750 2511 3984 
Q 2250 4219 1831 4219 
Q 1534 4219 1204 4116 
Q 875 4013 500 3803 
L 500 4441 
Q 881 4594 1212 4672 
Q 1544 4750 1819 4750 
Q 2544 4750 2975 4387 
Q 3406 4025 3406 3419 
Q 3406 3131 3298 2873 
Q 3191 2616 2906 2266 
Q 2828 2175 2409 1742 
Q 1991 1309 1228 531 
z
" id="DejaVuSans-32" transform="scale(0.015625)"/>
       </defs>
       <use xlink:href="#DejaVuSans-32"/>
       <use x="63.623047" xlink:href="#DejaVuSans-30"/>
       <use x="127.246094" xlink:href="#DejaVuSans-30"/>
       <use x="190.869141" xlink:href="#DejaVuSans-30"/>
      </g>
     </g>
    </g>
    <g id="xtick_6">
     <g id="line2d_6">
      <g>
       <use style="stroke:#000000;stroke-width:0.8;" x="622.839354" xlink:href="#m41343562f3" y="504"/>
      </g>
     </g>
     <g id="text_6">
      <!-- 2500 -->
      <g transform="translate(610.114354 518.598438)scale(0.1 -0.1)">
       <use xlink:href="#DejaVuSans-32"/>
       <use x="63.623047" xlink:href="#DejaVuSans-35"/>
       <use x="127.246094" xlink:href="#DejaVuSans-30"/>
       <use x="190.869141" xlink:href="#DejaVuSans-30"/>
      </g>
     </g>
    </g>
   </g>
   <g id="matplotlib.axis_2">
    <g id="ytick_1">
     <g id="line2d_7">
      <defs>
       <path d="M 0 0 
L -3.5 0 
" id="me1b513b539" style="stroke:#000000;stroke-width:0.8;"/>
      </defs>
      <g>
       <use style="stroke:#000000;stroke-width:0.8;" x="90" xlink:href="#me1b513b539" y="460.326467"/>
      </g>
     </g>
     <g id="text_7">
      <!-- 0 -->
      <g transform="translate(76.6375 464.125685)scale(0.1 -0.1)">
       <use xlink:href="#DejaVuSans-30"/>
      </g>
     </g>
    </g>
    <g id="ytick_2">
     <g id="line2d_8">
      <g>
       <use style="stroke:#000000;stroke-width:0.8;" x="90" xlink:href="#me1b513b539" y="375.057835"/>
      </g>
     </g>
     <g id="text_8">
      <!-- 20000 -->
      <g transform="translate(51.1875 378.857054)scale(0.1 -0.1)">
       <use xlink:href="#DejaVuSans-32"/>
       <use x="63.623047" xlink:href="#DejaVuSans-30"/>
       <use x="127.246094" xlink:href="#DejaVuSans-30"/>
       <use x="190.869141" xlink:href="#DejaVuSans-30"/>
       <use x="254.492188" xlink:href="#DejaVuSans-30"/>
      </g>
     </g>
    </g>
    <g id="ytick_3">
     <g id="line2d_9">
      <g>
       <use style="stroke:#000000;stroke-width:0.8;" x="90" xlink:href="#me1b513b539" y="289.789203"/>
      </g>
     </g>
     <g id="text_9">
      <!-- 40000 -->
      <g transform="translate(51.1875 293.588422)scale(0.1 -0.1)">
       <defs>
        <path d="M 2419 4116 
L 825 1625 
L 2419 1625 
L 2419 4116 
z
M 2253 4666 
L 3047 4666 
L 3047 1625 
L 3713 1625 
L 3713 1100 
L 3047 1100 
L 3047 0 
L 2419 0 
L 2419 1100 
L 313 1100 
L 313 1709 
L 2253 4666 
z
" id="DejaVuSans-34" transform="scale(0.015625)"/>
       </defs>
       <use xlink:href="#DejaVuSans-34"/>
       <use x="63.623047" xlink:href="#DejaVuSans-30"/>
       <use x="127.246094" xlink:href="#DejaVuSans-30"/>
       <use x="190.869141" xlink:href="#DejaVuSans-30"/>
       <use x="254.492188" xlink:href="#DejaVuSans-30"/>
      </g>
     </g>
    </g>
    <g id="ytick_4">
     <g id="line2d_10">
      <g>
       <use style="stroke:#000000;stroke-width:0.8;" x="90" xlink:href="#me1b513b539" y="204.520572"/>
      </g>
     </g>
     <g id="text_10">
      <!-- 60000 -->
      <g transform="translate(51.1875 208.319791)scale(0.1 -0.1)">
       <defs>
        <path d="M 2113 2584 
Q 1688 2584 1439 2293 
Q 1191 2003 1191 1497 
Q 1191 994 1439 701 
Q 1688 409 2113 409 
Q 2538 409 2786 701 
Q 3034 994 3034 1497 
Q 3034 2003 2786 2293 
Q 2538 2584 2113 2584 
z
M 3366 4563 
L 3366 3988 
Q 3128 4100 2886 4159 
Q 2644 4219 2406 4219 
Q 1781 4219 1451 3797 
Q 1122 3375 1075 2522 
Q 1259 2794 1537 2939 
Q 1816 3084 2150 3084 
Q 2853 3084 3261 2657 
Q 3669 2231 3669 1497 
Q 3669 778 3244 343 
Q 2819 -91 2113 -91 
Q 1303 -91 875 529 
Q 447 1150 447 2328 
Q 447 3434 972 4092 
Q 1497 4750 2381 4750 
Q 2619 4750 2861 4703 
Q 3103 4656 3366 4563 
z
" id="DejaVuSans-36" transform="scale(0.015625)"/>
       </defs>
       <use xlink:href="#DejaVuSans-36"/>
       <use x="63.623047" xlink:href="#DejaVuSans-30"/>
       <use x="127.246094" xlink:href="#DejaVuSans-30"/>
       <use x="190.869141" xlink:href="#DejaVuSans-30"/>
       <use x="254.492188" xlink:href="#DejaVuSans-30"/>
      </g>
     </g>
    </g>
    <g id="ytick_5">
     <g id="line2d_11">
      <g>
       <use style="stroke:#000000;stroke-width:0.8;" x="90" xlink:href="#me1b513b539" y="119.25194"/>
      </g>
     </g>
     <g id="text_11">
      <!-- 80000 -->
      <g transform="translate(51.1875 123.051159)scale(0.1 -0.1)">
       <defs>
        <path d="M 2034 2216 
Q 1584 2216 1326 1975 
Q 1069 1734 1069 1313 
Q 1069 891 1326 650 
Q 1584 409 2034 409 
Q 2484 409 2743 651 
Q 3003 894 3003 1313 
Q 3003 1734 2745 1975 
Q 2488 2216 2034 2216 
z
M 1403 2484 
Q 997 2584 770 2862 
Q 544 3141 544 3541 
Q 544 4100 942 4425 
Q 1341 4750 2034 4750 
Q 2731 4750 3128 4425 
Q 3525 4100 3525 3541 
Q 3525 3141 3298 2862 
Q 3072 2584 2669 2484 
Q 3125 2378 3379 2068 
Q 3634 1759 3634 1313 
Q 3634 634 3220 271 
Q 2806 -91 2034 -91 
Q 1263 -91 848 271 
Q 434 634 434 1313 
Q 434 1759 690 2068 
Q 947 2378 1403 2484 
z
M 1172 3481 
Q 1172 3119 1398 2916 
Q 1625 2713 2034 2713 
Q 2441 2713 2670 2916 
Q 2900 3119 2900 3481 
Q 2900 3844 2670 4047 
Q 2441 4250 2034 4250 
Q 1625 4250 1398 4047 
Q 1172 3844 1172 3481 
z
" id="DejaVuSans-38" transform="scale(0.015625)"/>
       </defs>
       <use xlink:href="#DejaVuSans-38"/>
       <use x="63.623047" xlink:href="#DejaVuSans-30"/>
       <use x="127.246094" xlink:href="#DejaVuSans-30"/>
       <use x="190.869141" xlink:href="#DejaVuSans-30"/>
       <use x="254.492188" xlink:href="#DejaVuSans-30"/>
      </g>
     </g>
    </g>
   </g>
   <g id="line2d_12">
    <path clip-path="url(#p9831be999e)" d="M 115.363636 461.614023 
L 115.566627 461.618286 
L 115.769617 460.371171 
L 115.972607 456.921241 
L 116.378588 456.074455 
L 116.987559 455.552484 
L 117.79952 455.243168 
L 118.611481 455.180444 
L 119.220452 455.348411 
L 119.423442 455.520999 
L 119.626432 456.101754 
L 119.829423 456.270356 
L 120.235403 455.694198 
L 120.844374 455.384036 
L 121.859326 455.156397 
L 122.874277 455.153692 
L 123.280258 455.268378 
L 123.483248 455.413551 
L 123.889228 456.568446 
L 124.295209 456.200387 
L 125.10717 455.931608 
L 126.325112 455.792054 
L 127.137073 455.855337 
L 127.543054 456.049031 
L 127.949034 457.776698 
L 128.355015 457.505019 
L 129.369966 457.258261 
L 130.790898 457.177261 
L 131.399869 457.294899 
L 131.602859 457.447539 
L 132.21183 456.191845 
L 133.023791 455.880363 
L 134.241733 455.680622 
L 135.053694 455.696828 
L 135.459675 455.867424 
L 135.865655 457.753343 
L 136.271636 457.459939 
L 137.286587 457.146522 
L 138.707519 456.961206 
L 139.1135 457.002375 
L 139.31649 457.108908 
L 139.925461 455.645549 
L 140.737422 455.252769 
L 142.361345 454.78007 
L 142.970315 454.738891 
L 143.376296 456.454951 
L 143.985267 456.134005 
L 146.624141 455.157323 
L 147.030121 454.446575 
L 148.248063 454.078742 
L 149.871985 453.3761 
L 150.277966 453.068067 
L 150.683946 452.277863 
L 151.089927 452.392784 
L 151.901888 452.244668 
L 153.11983 451.797456 
L 153.728801 451.438948 
L 154.134781 450.957012 
L 154.743752 452.621643 
L 155.352723 452.660347 
L 156.367674 452.467747 
L 157.382626 452.063494 
L 157.788606 451.757842 
L 157.991597 451.454092 
L 158.600567 453.495225 
L 159.209538 453.591079 
L 160.22449 453.477995 
L 161.239441 453.161355 
L 161.645422 452.919014 
L 161.848412 452.708342 
L 162.254393 451.655003 
L 162.660373 452.019726 
L 163.269344 452.104958 
L 164.284296 451.996369 
L 165.299247 451.663592 
L 165.705228 451.387346 
L 165.908218 451.11538 
L 166.111208 459.408185 
L 166.314198 462.656261 
L 168.750082 462.71255 
L 174.027829 462.839649 
L 177.681654 462.922896 
L 186.207247 463.069031 
L 186.816217 462.826604 
L 188.44014 462.876692 
L 190.267052 462.774727 
L 190.673033 462.332468 
L 191.282004 462.439737 
L 193.108916 462.436711 
L 194.326858 462.274834 
L 194.732839 461.781004 
L 195.341809 461.923661 
L 196.965732 461.92353 
L 198.183673 461.772889 
L 198.386664 461.701888 
L 198.792644 461.378133 
L 199.198625 461.540133 
L 200.416567 461.591376 
L 202.040489 461.432865 
L 202.446469 461.302261 
L 202.64946 461.126514 
L 202.85245 461.161043 
L 203.258431 461.424053 
L 204.273382 461.49069 
L 205.897304 461.354891 
L 206.506275 461.184782 
L 206.709266 461.038747 
L 207.318236 461.757819 
L 208.333188 461.829218 
L 209.95711 461.700851 
L 210.769071 461.43976 
L 211.175052 460.08597 
L 211.581032 460.273299 
L 212.595984 460.315832 
L 214.016916 460.126576 
L 214.625887 459.9257 
L 214.828877 459.802098 
L 215.031867 459.517409 
L 215.234858 459.500197 
L 215.640838 459.823476 
L 216.452799 459.884631 
L 217.670741 459.750318 
L 218.685692 459.450338 
L 219.091673 459.13163 
L 219.497654 461.303427 
L 220.106624 461.447863 
L 221.324566 461.396872 
L 221.730547 461.342776 
L 221.933537 458.806521 
L 222.745498 458.481222 
L 223.151479 458.155247 
L 223.354469 457.666693 
L 223.557459 457.50507 
L 223.76045 457.78456 
L 224.16643 457.909561 
L 224.978391 457.866222 
L 225.993343 457.607431 
L 226.805304 457.236941 
L 227.211285 456.92215 
L 227.414275 456.638278 
L 227.617265 402.30366 
L 227.820255 293.646565 
L 228.023246 294.456596 
L 228.226236 294.721557 
L 228.429226 294.773691 
L 228.835207 294.554873 
L 229.444178 293.774601 
L 230.053149 292.622689 
L 230.662119 291.100552 
L 231.27109 288.926109 
L 231.474081 287.795127 
L 231.677071 285.558568 
L 231.880061 285.321777 
L 232.083051 286.944225 
L 232.286042 287.306842 
L 232.489032 287.373143 
L 232.895013 287.128214 
L 233.503983 286.288988 
L 234.315945 284.611978 
L 234.924915 282.896939 
L 235.330896 281.331149 
L 235.533886 280.218965 
L 235.736877 278.199246 
L 235.939867 278.571554 
L 236.142857 280.630097 
L 236.345847 281.030103 
L 236.548838 281.103457 
L 236.954818 280.850502 
L 237.563789 279.983586 
L 238.37575 278.262538 
L 238.984721 276.516281 
L 239.390702 274.940542 
L 239.593692 273.84245 
L 239.796682 271.967273 
L 239.999673 273.08977 
L 240.202663 275.792957 
L 240.405653 276.233706 
L 240.608643 276.315846 
L 241.014624 276.058665 
L 241.623595 275.170665 
L 242.435556 273.416074 
L 243.044527 271.649931 
L 243.450507 270.078625 
L 243.653498 269.009531 
L 243.856488 267.306651 
L 244.465459 275.774631 
L 244.668449 275.868668 
L 245.07443 275.608791 
L 245.683401 274.703456 
L 246.495362 272.929159 
L 247.104333 271.166782 
L 247.510313 269.630198 
L 247.713304 238.719351 
L 247.916294 236.99747 
L 248.322274 88.887273 
L 248.525265 89.79006 
L 248.728255 468.665739 
L 248.931245 468.670002 
L 249.134236 467.422887 
L 249.337226 463.972957 
L 249.743206 463.12617 
L 250.352177 462.604199 
L 251.164138 462.294883 
L 251.9761 462.232159 
L 252.58507 462.400127 
L 252.788061 462.572715 
L 252.991051 463.15347 
L 253.194041 463.322072 
L 253.600022 462.745914 
L 254.208993 462.435752 
L 255.223944 462.208112 
L 256.238896 462.205408 
L 256.644876 462.320094 
L 256.847866 462.465267 
L 257.253847 463.620162 
L 257.659828 463.252102 
L 258.471789 462.983324 
L 259.68973 462.84377 
L 260.501692 462.907052 
L 260.907672 463.100747 
L 261.313653 464.828413 
L 261.719633 464.556735 
L 262.734585 464.309976 
L 264.155517 464.228976 
L 264.764488 464.346615 
L 264.967478 464.499255 
L 265.576449 463.243561 
L 266.38841 462.932079 
L 267.606352 462.732338 
L 268.418313 462.748544 
L 268.824293 462.919139 
L 269.230274 464.805058 
L 269.636255 464.511655 
L 270.651206 464.198237 
L 272.072138 464.012922 
L 272.478119 464.054091 
L 272.681109 464.160624 
L 273.29008 462.697265 
L 274.102041 462.304484 
L 275.725963 461.831785 
L 276.334934 461.790606 
L 276.740915 463.506667 
L 277.349885 463.185721 
L 279.988759 462.209039 
L 280.39474 461.498291 
L 281.612681 461.130458 
L 283.236604 460.427815 
L 283.642584 460.119782 
L 284.048565 459.329579 
L 284.454545 459.444499 
L 285.266507 459.296384 
L 286.484448 458.849172 
L 287.093419 458.490663 
L 287.4994 458.008727 
L 288.108371 459.673358 
L 288.717341 459.712063 
L 289.732293 459.519463 
L 290.747244 459.11521 
L 291.153225 458.809558 
L 291.356215 458.505808 
L 291.965186 460.546941 
L 292.574157 460.642795 
L 293.589108 460.529711 
L 294.60406 460.213071 
L 295.01004 459.970729 
L 295.213031 459.760057 
L 295.619011 458.706719 
L 296.024992 459.071442 
L 296.633963 459.156673 
L 297.648914 459.048085 
L 298.663866 458.715307 
L 299.069846 458.439061 
L 299.272836 458.167095 
L 299.475827 466.459901 
L 299.678817 469.707977 
L 302.1147 469.764265 
L 307.392448 469.891365 
L 311.046273 469.974612 
L 319.571865 470.120747 
L 320.180836 469.878319 
L 321.804758 469.928408 
L 323.631671 469.826443 
L 324.037651 469.384184 
L 324.646622 469.491453 
L 326.473535 469.488427 
L 327.691477 469.32655 
L 328.097457 468.83272 
L 328.706428 468.975376 
L 330.33035 468.975245 
L 331.548292 468.824605 
L 331.751282 468.753604 
L 332.157263 468.429849 
L 332.563243 468.591849 
L 333.781185 468.643092 
L 335.405107 468.484581 
L 335.811088 468.353977 
L 336.014078 468.17823 
L 336.217069 468.212759 
L 336.623049 468.475769 
L 337.638001 468.542405 
L 339.261923 468.406607 
L 339.870894 468.236498 
L 340.073884 468.090462 
L 340.682855 468.809535 
L 341.697806 468.880934 
L 343.321729 468.752567 
L 344.13369 468.491476 
L 344.53967 467.137686 
L 344.945651 467.325015 
L 345.960602 467.367548 
L 347.381534 467.178292 
L 347.990505 466.977416 
L 348.193496 466.853813 
L 348.396486 466.569125 
L 348.599476 466.551913 
L 349.005457 466.875192 
L 349.817418 466.936346 
L 351.03536 466.802034 
L 352.050311 466.502054 
L 352.456292 466.183345 
L 352.862272 468.355143 
L 353.471243 468.499579 
L 354.689185 468.448587 
L 355.095165 468.394492 
L 355.298156 465.858237 
L 356.110117 465.532938 
L 356.516097 465.206963 
L 356.719088 464.718409 
L 356.922078 464.556786 
L 357.125068 464.836275 
L 357.531049 464.961277 
L 358.34301 464.917938 
L 359.357961 464.659147 
L 360.169923 464.288657 
L 360.575903 463.973866 
L 360.778893 463.689994 
L 360.981884 409.355376 
L 361.184874 300.698281 
L 361.387864 301.508312 
L 361.590855 301.773273 
L 361.793845 301.825406 
L 362.199825 301.606589 
L 362.808796 300.826317 
L 363.417767 299.674405 
L 364.026738 298.152267 
L 364.635709 295.977825 
L 364.838699 294.846843 
L 365.041689 292.610284 
L 365.24468 292.373493 
L 365.44767 293.995941 
L 365.65066 294.358558 
L 365.853651 294.424859 
L 366.259631 294.17993 
L 366.868602 293.340703 
L 367.680563 291.663693 
L 368.289534 289.948655 
L 368.695515 288.382865 
L 368.898505 287.270681 
L 369.101495 285.250962 
L 369.304485 285.62327 
L 369.507476 287.681813 
L 369.710466 288.081819 
L 369.913456 288.155173 
L 370.319437 287.902218 
L 370.928408 287.035301 
L 371.740369 285.314254 
L 372.34934 283.567997 
L 372.75532 281.992258 
L 372.958311 280.894165 
L 373.161301 279.018989 
L 373.364291 280.141485 
L 373.567281 282.844673 
L 373.770272 283.285422 
L 373.973262 283.367562 
L 374.379243 283.110381 
L 374.988213 282.222381 
L 375.800175 280.46779 
L 376.409145 278.701646 
L 376.815126 277.13034 
L 377.018116 276.061247 
L 377.221107 274.358367 
L 377.830077 282.826346 
L 378.033068 282.920384 
L 378.439048 282.660507 
L 379.048019 281.755172 
L 379.85998 279.980875 
L 380.468951 278.218497 
L 380.874932 276.681914 
L 381.077922 245.771067 
L 381.280912 244.049186 
L 381.686893 95.938989 
L 381.889883 96.841776 
L 382.092874 475.717455 
L 382.295864 475.721718 
L 382.498854 474.474603 
L 382.701844 471.024673 
L 383.107825 470.177886 
L 383.716796 469.655915 
L 384.528757 469.346599 
L 385.340718 469.283875 
L 385.949689 469.451842 
L 386.152679 469.624431 
L 386.35567 470.205186 
L 386.55866 470.373788 
L 386.96464 469.79763 
L 387.573611 469.487468 
L 388.588563 469.259828 
L 389.603514 469.257124 
L 390.009495 469.371809 
L 390.212485 469.516983 
L 390.618466 470.671878 
L 391.024446 470.303818 
L 391.836407 470.03504 
L 393.054349 469.895486 
L 393.86631 469.958768 
L 394.272291 470.152463 
L 394.678271 471.880129 
L 395.084252 471.608451 
L 396.099203 471.361692 
L 397.520135 471.280692 
L 398.129106 471.398331 
L 398.332096 471.550971 
L 398.941067 470.295277 
L 399.753028 469.983795 
L 400.97097 469.784054 
L 401.782931 469.80026 
L 402.188912 469.970855 
L 402.594893 471.856774 
L 403.000873 471.563371 
L 404.015825 471.249953 
L 405.436757 471.064637 
L 405.842737 471.105807 
L 406.045727 471.21234 
L 406.654698 469.748981 
L 407.466659 469.3562 
L 409.090582 468.883501 
L 409.699553 468.842322 
L 410.105533 470.558383 
L 410.714504 470.237437 
L 413.353378 469.260755 
L 413.759358 468.550007 
L 414.9773 468.182174 
L 416.601222 467.479531 
L 417.007203 467.171498 
L 417.413183 466.381295 
L 417.819164 466.496215 
L 418.631125 466.3481 
L 419.849067 465.900887 
L 420.458038 465.542379 
L 420.864018 465.060443 
L 421.472989 466.725074 
L 422.08196 466.763779 
L 423.096911 466.571179 
L 424.111863 466.166926 
L 424.517844 465.861274 
L 424.720834 465.557523 
L 425.329805 467.598657 
L 425.938776 467.694511 
L 426.953727 467.581427 
L 427.968678 467.264787 
L 428.374659 467.022445 
L 428.577649 466.811773 
L 428.98363 465.758435 
L 429.38961 466.123158 
L 429.998581 466.208389 
L 431.013533 466.099801 
L 432.028484 465.767023 
L 432.434465 465.490777 
L 432.637455 465.218811 
L 432.840445 473.511616 
L 433.043436 476.759692 
L 435.479319 476.815981 
L 440.757066 476.943081 
L 444.410892 477.026328 
L 452.936484 477.172462 
L 453.545455 476.930035 
L 455.169377 476.980124 
L 456.996289 476.878158 
L 457.40227 476.4359 
L 458.011241 476.543169 
L 459.838153 476.540143 
L 461.056095 476.378266 
L 461.462076 475.884436 
L 462.071047 476.027092 
L 463.694969 476.026961 
L 464.912911 475.876321 
L 465.115901 475.80532 
L 465.521881 475.481565 
L 465.927862 475.643565 
L 467.145804 475.694808 
L 468.769726 475.536297 
L 469.175707 475.405693 
L 469.378697 475.229946 
L 469.581687 475.264475 
L 469.987668 475.527485 
L 471.002619 475.594121 
L 472.626542 475.458323 
L 473.235512 475.288214 
L 473.438503 475.142178 
L 474.047474 475.861251 
L 475.062425 475.932649 
L 476.686347 475.804283 
L 477.498308 475.543191 
L 477.904289 474.189402 
L 478.31027 474.376731 
L 479.325221 474.419264 
L 480.746153 474.230008 
L 481.355124 474.029132 
L 481.558114 473.905529 
L 481.761104 473.620841 
L 481.964095 473.603628 
L 482.370075 473.926908 
L 483.182036 473.988062 
L 484.399978 473.85375 
L 485.41493 473.553769 
L 485.82091 473.235061 
L 486.226891 475.406859 
L 486.835862 475.551295 
L 488.053803 475.500303 
L 488.459784 475.446207 
L 488.662774 472.909952 
L 489.474735 472.584654 
L 489.880716 472.258679 
L 490.083706 471.770125 
L 490.286696 471.608501 
L 490.489687 471.887991 
L 490.895667 472.012993 
L 491.707629 471.969654 
L 492.72258 471.710863 
L 493.534541 471.340373 
L 493.940522 471.025581 
L 494.143512 470.74171 
L 494.346502 416.407092 
L 494.549493 307.749997 
L 494.752483 308.560028 
L 494.955473 308.824988 
L 495.158463 308.877122 
L 495.564444 308.658305 
L 496.173415 307.878033 
L 496.782386 306.726121 
L 497.391357 305.203983 
L 498.000327 303.02954 
L 498.203318 301.898559 
L 498.406308 299.662 
L 498.609298 299.425208 
L 498.812289 301.047656 
L 499.015279 301.410273 
L 499.218269 301.476575 
L 499.62425 301.231646 
L 500.233221 300.392419 
L 501.045182 298.715409 
L 501.654153 297.00037 
L 502.060133 295.434581 
L 502.263123 294.322397 
L 502.466114 292.302678 
L 502.669104 292.674986 
L 502.872094 294.733529 
L 503.075085 295.133534 
L 503.278075 295.206888 
L 503.684055 294.953934 
L 504.293026 294.087017 
L 505.104987 292.36597 
L 505.713958 290.619713 
L 506.119939 289.043974 
L 506.322929 287.945881 
L 506.525919 286.070705 
L 506.72891 287.193201 
L 506.9319 289.896389 
L 507.13489 290.337138 
L 507.337881 290.419278 
L 507.743861 290.162097 
L 508.352832 289.274096 
L 509.164793 287.519506 
L 509.773764 285.753362 
L 510.179745 284.182056 
L 510.382735 283.112962 
L 510.585725 281.410082 
L 511.194696 289.878062 
L 511.397686 289.9721 
L 511.803667 289.712223 
L 512.412638 288.806888 
L 513.224599 287.03259 
L 513.83357 285.270213 
L 514.23955 283.73363 
L 514.442541 252.822783 
L 514.645531 251.100902 
L 515.051512 102.990704 
L 515.254502 103.893491 
L 515.457492 482.76917 
L 515.660482 482.773434 
L 515.863473 481.526319 
L 516.066463 478.076388 
L 516.472444 477.229602 
L 517.081414 476.707631 
L 517.893376 476.398315 
L 518.705337 476.335591 
L 519.314308 476.503558 
L 519.517298 476.676147 
L 519.720288 477.256901 
L 519.923278 477.425504 
L 520.329259 476.849345 
L 520.93823 476.539183 
L 521.953181 476.311544 
L 522.968133 476.30884 
L 523.374113 476.423525 
L 523.577104 476.568699 
L 523.983084 477.723593 
L 524.389065 477.355534 
L 525.201026 477.086756 
L 526.418968 476.947201 
L 527.230929 477.010484 
L 527.636909 477.204179 
L 528.04289 478.931845 
L 528.44887 478.660167 
L 529.463822 478.413408 
L 530.884754 478.332408 
L 531.493725 478.450047 
L 531.696715 478.602687 
L 532.305686 477.346992 
L 533.117647 477.03551 
L 534.335589 476.835769 
L 535.14755 476.851976 
L 535.553531 477.022571 
L 535.959511 478.90849 
L 536.365492 478.615086 
L 537.380443 478.301669 
L 538.801375 478.116353 
L 539.207356 478.157523 
L 539.410346 478.264056 
L 540.019317 476.800697 
L 540.831278 476.407916 
L 542.4552 475.935217 
L 543.064171 475.894038 
L 543.470152 477.610098 
L 544.079123 477.289153 
L 546.717996 476.312471 
L 547.123977 475.601722 
L 548.341919 475.23389 
L 549.965841 474.531247 
L 550.371821 474.223214 
L 550.777802 473.433011 
L 551.183783 473.547931 
L 551.995744 473.399815 
L 553.213685 472.952603 
L 553.822656 472.594095 
L 554.228637 472.112159 
L 554.837608 473.77679 
L 555.446579 473.815495 
L 556.46153 473.622895 
L 557.476482 473.218642 
L 557.882462 472.912989 
L 558.085452 472.609239 
L 558.694423 474.650372 
L 559.303394 474.746227 
L 560.318346 474.633142 
L 561.333297 474.316503 
L 561.739278 474.074161 
L 561.942268 473.863489 
L 562.348248 472.810151 
L 562.754229 473.174874 
L 563.3632 473.260105 
L 564.378151 473.151517 
L 565.393103 472.818739 
L 565.799083 472.542493 
L 566.002074 472.270527 
L 566.205064 480.563332 
L 566.408054 483.811408 
L 568.843938 483.867697 
L 574.121685 483.994797 
L 577.77551 484.078044 
L 586.301102 484.224178 
L 586.910073 483.981751 
L 588.533995 484.03184 
L 590.360908 483.929874 
L 590.766889 483.487616 
L 591.375859 483.594885 
L 593.202772 483.591858 
L 594.420714 483.429982 
L 594.826694 482.936152 
L 595.435665 483.078808 
L 597.059587 483.078677 
L 598.277529 482.928037 
L 598.480519 482.857035 
L 598.8865 482.533281 
L 599.292481 482.695281 
L 600.510422 482.746523 
L 602.134345 482.588013 
L 602.540325 482.457408 
L 602.743316 482.281661 
L 602.946306 482.316191 
L 603.352286 482.579201 
L 604.367238 482.645837 
L 605.99116 482.510039 
L 606.600131 482.339929 
L 606.803121 482.193894 
L 607.412092 482.912967 
L 608.427044 482.984365 
L 610.050966 482.855999 
L 610.862927 482.594907 
L 611.268908 481.241118 
L 611.674888 481.428447 
L 612.68984 481.47098 
L 614.110772 481.281724 
L 614.719742 481.080848 
L 614.922733 480.957245 
L 615.125723 480.672557 
L 615.328713 480.655344 
L 615.734694 480.978624 
L 616.546655 481.039778 
L 617.764597 480.905466 
L 618.779548 480.605485 
L 619.185529 480.286777 
L 619.591509 482.458575 
L 620.20048 482.60301 
L 621.418422 482.552019 
L 621.824402 482.497923 
L 622.027393 479.961668 
L 622.636364 479.739745 
L 622.636364 479.739745 
" style="fill:none;stroke:#1f77b4;stroke-linecap:square;stroke-width:1.5;"/>
   </g>
   <g id="patch_3">
    <path d="M 90 504 
L 90 69.12 
" style="fill:none;stroke:#000000;stroke-linecap:square;stroke-linejoin:miter;stroke-width:0.8;"/>
   </g>
   <g id="patch_4">
    <path d="M 648 504 
L 648 69.12 
" style="fill:none;stroke:#000000;stroke-linecap:square;stroke-linejoin:miter;stroke-width:0.8;"/>
   </g>
   <g id="patch_5">
    <path d="M 90 504 
L 648 504 
" style="fill:none;stroke:#000000;stroke-linecap:square;stroke-linejoin:miter;stroke-width:0.8;"/>
   </g>
   <g id="patch_6">
    <path d="M 90 69.12 
L 648 69.12 
" style="fill:none;stroke:#000000;stroke-linecap:square;stroke-linejoin:miter;stroke-width:0.8;"/>
   </g>
  </g>
 </g>
 <defs>
  <clipPath id="p9831be999e">
   <rect height="434.88" width="558" x="90" y="69.12"/>
  </clipPath>
 </defs>
</svg>
