<?xml version="1.0" encoding="utf-8" standalone="no"?>
<!DOCTYPE svg PUBLIC "-//W3C//DTD SVG 1.1//EN"
  "http://www.w3.org/Graphics/SVG/1.1/DTD/svg11.dtd">
<svg height="576pt" version="1.1" viewBox="0 0 720 576" width="720pt" xmlns="http://www.w3.org/2000/svg" xmlns:xlink="http://www.w3.org/1999/xlink">
 <metadata>
  <rdf:RDF xmlns:cc="http://creativecommons.org/ns#" xmlns:dc="http://purl.org/dc/elements/1.1/" xmlns:rdf="http://www.w3.org/1999/02/22-rdf-syntax-ns#">
   <cc:Work>
    <dc:type rdf:resource="http://purl.org/dc/dcmitype/StillImage"/>
    <dc:date>2022-01-19T22:10:05.977248</dc:date>
    <dc:format>image/svg+xml</dc:format>
    <dc:creator>
     <cc:Agent>
      <dc:title>Matplotlib v3.4.3, https://matplotlib.org/</dc:title>
     </cc:Agent>
    </dc:creator>
   </cc:Work>
  </rdf:RDF>
 </metadata>
 <defs>
  <style type="text/css">*{stroke-linecap:butt;stroke-linejoin:round;}</style>
 </defs>
 <g id="figure_1">
  <g id="patch_1">
   <path d="M 0 576 
L 720 576 
L 720 0 
L 0 0 
z
" style="fill:none;"/>
  </g>
  <g id="axes_1">
   <g id="patch_2">
    <path d="M 90 504 
L 648 504 
L 648 69.12 
L 90 69.12 
z
" style="fill:#ffffff;"/>
   </g>
   <g id="matplotlib.axis_1">
    <g id="xtick_1">
     <g id="line2d_1">
      <defs>
       <path d="M 0 0 
L 0 3.5 
" id="m364347b160" style="stroke:#000000;stroke-width:0.8;"/>
      </defs>
      <g>
       <use style="stroke:#000000;stroke-width:0.8;" x="115.363636" xlink:href="#m364347b160" y="504"/>
      </g>
     </g>
     <g id="text_1">
      <!-- 0 -->
      <g transform="translate(108.364886 527.716563)scale(0.22 -0.22)">
       <defs>
        <path d="M 2034 4250 
Q 1547 4250 1301 3770 
Q 1056 3291 1056 2328 
Q 1056 1369 1301 889 
Q 1547 409 2034 409 
Q 2525 409 2770 889 
Q 3016 1369 3016 2328 
Q 3016 3291 2770 3770 
Q 2525 4250 2034 4250 
z
M 2034 4750 
Q 2819 4750 3233 4129 
Q 3647 3509 3647 2328 
Q 3647 1150 3233 529 
Q 2819 -91 2034 -91 
Q 1250 -91 836 529 
Q 422 1150 422 2328 
Q 422 3509 836 4129 
Q 1250 4750 2034 4750 
z
" id="DejaVuSans-30" transform="scale(0.015625)"/>
       </defs>
       <use xlink:href="#DejaVuSans-30"/>
      </g>
     </g>
    </g>
    <g id="xtick_2">
     <g id="line2d_2">
      <g>
       <use style="stroke:#000000;stroke-width:0.8;" x="216.85878" xlink:href="#m364347b160" y="504"/>
      </g>
     </g>
     <g id="text_2">
      <!-- 500 -->
      <g transform="translate(195.86253 527.716563)scale(0.22 -0.22)">
       <defs>
        <path d="M 691 4666 
L 3169 4666 
L 3169 4134 
L 1269 4134 
L 1269 2991 
Q 1406 3038 1543 3061 
Q 1681 3084 1819 3084 
Q 2600 3084 3056 2656 
Q 3513 2228 3513 1497 
Q 3513 744 3044 326 
Q 2575 -91 1722 -91 
Q 1428 -91 1123 -41 
Q 819 9 494 109 
L 494 744 
Q 775 591 1075 516 
Q 1375 441 1709 441 
Q 2250 441 2565 725 
Q 2881 1009 2881 1497 
Q 2881 1984 2565 2268 
Q 2250 2553 1709 2553 
Q 1456 2553 1204 2497 
Q 953 2441 691 2322 
L 691 4666 
z
" id="DejaVuSans-35" transform="scale(0.015625)"/>
       </defs>
       <use xlink:href="#DejaVuSans-35"/>
       <use x="63.623047" xlink:href="#DejaVuSans-30"/>
       <use x="127.246094" xlink:href="#DejaVuSans-30"/>
      </g>
     </g>
    </g>
    <g id="xtick_3">
     <g id="line2d_3">
      <g>
       <use style="stroke:#000000;stroke-width:0.8;" x="318.353923" xlink:href="#m364347b160" y="504"/>
      </g>
     </g>
     <g id="text_3">
      <!-- 1000 -->
      <g transform="translate(290.358923 527.716563)scale(0.22 -0.22)">
       <defs>
        <path d="M 794 531 
L 1825 531 
L 1825 4091 
L 703 3866 
L 703 4441 
L 1819 4666 
L 2450 4666 
L 2450 531 
L 3481 531 
L 3481 0 
L 794 0 
L 794 531 
z
" id="DejaVuSans-31" transform="scale(0.015625)"/>
       </defs>
       <use xlink:href="#DejaVuSans-31"/>
       <use x="63.623047" xlink:href="#DejaVuSans-30"/>
       <use x="127.246094" xlink:href="#DejaVuSans-30"/>
       <use x="190.869141" xlink:href="#DejaVuSans-30"/>
      </g>
     </g>
    </g>
    <g id="xtick_4">
     <g id="line2d_4">
      <g>
       <use style="stroke:#000000;stroke-width:0.8;" x="419.849067" xlink:href="#m364347b160" y="504"/>
      </g>
     </g>
     <g id="text_4">
      <!-- 1500 -->
      <g transform="translate(391.854067 527.716563)scale(0.22 -0.22)">
       <use xlink:href="#DejaVuSans-31"/>
       <use x="63.623047" xlink:href="#DejaVuSans-35"/>
       <use x="127.246094" xlink:href="#DejaVuSans-30"/>
       <use x="190.869141" xlink:href="#DejaVuSans-30"/>
      </g>
     </g>
    </g>
    <g id="xtick_5">
     <g id="line2d_5">
      <g>
       <use style="stroke:#000000;stroke-width:0.8;" x="521.34421" xlink:href="#m364347b160" y="504"/>
      </g>
     </g>
     <g id="text_5">
      <!-- 2000 -->
      <g transform="translate(493.34921 527.716563)scale(0.22 -0.22)">
       <defs>
        <path d="M 1228 531 
L 3431 531 
L 3431 0 
L 469 0 
L 469 531 
Q 828 903 1448 1529 
Q 2069 2156 2228 2338 
Q 2531 2678 2651 2914 
Q 2772 3150 2772 3378 
Q 2772 3750 2511 3984 
Q 2250 4219 1831 4219 
Q 1534 4219 1204 4116 
Q 875 4013 500 3803 
L 500 4441 
Q 881 4594 1212 4672 
Q 1544 4750 1819 4750 
Q 2544 4750 2975 4387 
Q 3406 4025 3406 3419 
Q 3406 3131 3298 2873 
Q 3191 2616 2906 2266 
Q 2828 2175 2409 1742 
Q 1991 1309 1228 531 
z
" id="DejaVuSans-32" transform="scale(0.015625)"/>
       </defs>
       <use xlink:href="#DejaVuSans-32"/>
       <use x="63.623047" xlink:href="#DejaVuSans-30"/>
       <use x="127.246094" xlink:href="#DejaVuSans-30"/>
       <use x="190.869141" xlink:href="#DejaVuSans-30"/>
      </g>
     </g>
    </g>
    <g id="xtick_6">
     <g id="line2d_6">
      <g>
       <use style="stroke:#000000;stroke-width:0.8;" x="622.839354" xlink:href="#m364347b160" y="504"/>
      </g>
     </g>
     <g id="text_6">
      <!-- 2500 -->
      <g transform="translate(594.844354 527.716563)scale(0.22 -0.22)">
       <use xlink:href="#DejaVuSans-32"/>
       <use x="63.623047" xlink:href="#DejaVuSans-35"/>
       <use x="127.246094" xlink:href="#DejaVuSans-30"/>
       <use x="190.869141" xlink:href="#DejaVuSans-30"/>
      </g>
     </g>
    </g>
    <g id="text_7">
     <!-- nr iteracji epizodu -->
     <g transform="translate(269.688906 553.008438)scale(0.22 -0.22)">
      <defs>
       <path d="M 3513 2113 
L 3513 0 
L 2938 0 
L 2938 2094 
Q 2938 2591 2744 2837 
Q 2550 3084 2163 3084 
Q 1697 3084 1428 2787 
Q 1159 2491 1159 1978 
L 1159 0 
L 581 0 
L 581 3500 
L 1159 3500 
L 1159 2956 
Q 1366 3272 1645 3428 
Q 1925 3584 2291 3584 
Q 2894 3584 3203 3211 
Q 3513 2838 3513 2113 
z
" id="DejaVuSans-6e" transform="scale(0.015625)"/>
       <path d="M 2631 2963 
Q 2534 3019 2420 3045 
Q 2306 3072 2169 3072 
Q 1681 3072 1420 2755 
Q 1159 2438 1159 1844 
L 1159 0 
L 581 0 
L 581 3500 
L 1159 3500 
L 1159 2956 
Q 1341 3275 1631 3429 
Q 1922 3584 2338 3584 
Q 2397 3584 2469 3576 
Q 2541 3569 2628 3553 
L 2631 2963 
z
" id="DejaVuSans-72" transform="scale(0.015625)"/>
       <path id="DejaVuSans-20" transform="scale(0.015625)"/>
       <path d="M 603 3500 
L 1178 3500 
L 1178 0 
L 603 0 
L 603 3500 
z
M 603 4863 
L 1178 4863 
L 1178 4134 
L 603 4134 
L 603 4863 
z
" id="DejaVuSans-69" transform="scale(0.015625)"/>
       <path d="M 1172 4494 
L 1172 3500 
L 2356 3500 
L 2356 3053 
L 1172 3053 
L 1172 1153 
Q 1172 725 1289 603 
Q 1406 481 1766 481 
L 2356 481 
L 2356 0 
L 1766 0 
Q 1100 0 847 248 
Q 594 497 594 1153 
L 594 3053 
L 172 3053 
L 172 3500 
L 594 3500 
L 594 4494 
L 1172 4494 
z
" id="DejaVuSans-74" transform="scale(0.015625)"/>
       <path d="M 3597 1894 
L 3597 1613 
L 953 1613 
Q 991 1019 1311 708 
Q 1631 397 2203 397 
Q 2534 397 2845 478 
Q 3156 559 3463 722 
L 3463 178 
Q 3153 47 2828 -22 
Q 2503 -91 2169 -91 
Q 1331 -91 842 396 
Q 353 884 353 1716 
Q 353 2575 817 3079 
Q 1281 3584 2069 3584 
Q 2775 3584 3186 3129 
Q 3597 2675 3597 1894 
z
M 3022 2063 
Q 3016 2534 2758 2815 
Q 2500 3097 2075 3097 
Q 1594 3097 1305 2825 
Q 1016 2553 972 2059 
L 3022 2063 
z
" id="DejaVuSans-65" transform="scale(0.015625)"/>
       <path d="M 2194 1759 
Q 1497 1759 1228 1600 
Q 959 1441 959 1056 
Q 959 750 1161 570 
Q 1363 391 1709 391 
Q 2188 391 2477 730 
Q 2766 1069 2766 1631 
L 2766 1759 
L 2194 1759 
z
M 3341 1997 
L 3341 0 
L 2766 0 
L 2766 531 
Q 2569 213 2275 61 
Q 1981 -91 1556 -91 
Q 1019 -91 701 211 
Q 384 513 384 1019 
Q 384 1609 779 1909 
Q 1175 2209 1959 2209 
L 2766 2209 
L 2766 2266 
Q 2766 2663 2505 2880 
Q 2244 3097 1772 3097 
Q 1472 3097 1187 3025 
Q 903 2953 641 2809 
L 641 3341 
Q 956 3463 1253 3523 
Q 1550 3584 1831 3584 
Q 2591 3584 2966 3190 
Q 3341 2797 3341 1997 
z
" id="DejaVuSans-61" transform="scale(0.015625)"/>
       <path d="M 3122 3366 
L 3122 2828 
Q 2878 2963 2633 3030 
Q 2388 3097 2138 3097 
Q 1578 3097 1268 2742 
Q 959 2388 959 1747 
Q 959 1106 1268 751 
Q 1578 397 2138 397 
Q 2388 397 2633 464 
Q 2878 531 3122 666 
L 3122 134 
Q 2881 22 2623 -34 
Q 2366 -91 2075 -91 
Q 1284 -91 818 406 
Q 353 903 353 1747 
Q 353 2603 823 3093 
Q 1294 3584 2113 3584 
Q 2378 3584 2631 3529 
Q 2884 3475 3122 3366 
z
" id="DejaVuSans-63" transform="scale(0.015625)"/>
       <path d="M 603 3500 
L 1178 3500 
L 1178 -63 
Q 1178 -731 923 -1031 
Q 669 -1331 103 -1331 
L -116 -1331 
L -116 -844 
L 38 -844 
Q 366 -844 484 -692 
Q 603 -541 603 -63 
L 603 3500 
z
M 603 4863 
L 1178 4863 
L 1178 4134 
L 603 4134 
L 603 4863 
z
" id="DejaVuSans-6a" transform="scale(0.015625)"/>
       <path d="M 1159 525 
L 1159 -1331 
L 581 -1331 
L 581 3500 
L 1159 3500 
L 1159 2969 
Q 1341 3281 1617 3432 
Q 1894 3584 2278 3584 
Q 2916 3584 3314 3078 
Q 3713 2572 3713 1747 
Q 3713 922 3314 415 
Q 2916 -91 2278 -91 
Q 1894 -91 1617 61 
Q 1341 213 1159 525 
z
M 3116 1747 
Q 3116 2381 2855 2742 
Q 2594 3103 2138 3103 
Q 1681 3103 1420 2742 
Q 1159 2381 1159 1747 
Q 1159 1113 1420 752 
Q 1681 391 2138 391 
Q 2594 391 2855 752 
Q 3116 1113 3116 1747 
z
" id="DejaVuSans-70" transform="scale(0.015625)"/>
       <path d="M 353 3500 
L 3084 3500 
L 3084 2975 
L 922 459 
L 3084 459 
L 3084 0 
L 275 0 
L 275 525 
L 2438 3041 
L 353 3041 
L 353 3500 
z
" id="DejaVuSans-7a" transform="scale(0.015625)"/>
       <path d="M 1959 3097 
Q 1497 3097 1228 2736 
Q 959 2375 959 1747 
Q 959 1119 1226 758 
Q 1494 397 1959 397 
Q 2419 397 2687 759 
Q 2956 1122 2956 1747 
Q 2956 2369 2687 2733 
Q 2419 3097 1959 3097 
z
M 1959 3584 
Q 2709 3584 3137 3096 
Q 3566 2609 3566 1747 
Q 3566 888 3137 398 
Q 2709 -91 1959 -91 
Q 1206 -91 779 398 
Q 353 888 353 1747 
Q 353 2609 779 3096 
Q 1206 3584 1959 3584 
z
" id="DejaVuSans-6f" transform="scale(0.015625)"/>
       <path d="M 2906 2969 
L 2906 4863 
L 3481 4863 
L 3481 0 
L 2906 0 
L 2906 525 
Q 2725 213 2448 61 
Q 2172 -91 1784 -91 
Q 1150 -91 751 415 
Q 353 922 353 1747 
Q 353 2572 751 3078 
Q 1150 3584 1784 3584 
Q 2172 3584 2448 3432 
Q 2725 3281 2906 2969 
z
M 947 1747 
Q 947 1113 1208 752 
Q 1469 391 1925 391 
Q 2381 391 2643 752 
Q 2906 1113 2906 1747 
Q 2906 2381 2643 2742 
Q 2381 3103 1925 3103 
Q 1469 3103 1208 2742 
Q 947 2381 947 1747 
z
" id="DejaVuSans-64" transform="scale(0.015625)"/>
       <path d="M 544 1381 
L 544 3500 
L 1119 3500 
L 1119 1403 
Q 1119 906 1312 657 
Q 1506 409 1894 409 
Q 2359 409 2629 706 
Q 2900 1003 2900 1516 
L 2900 3500 
L 3475 3500 
L 3475 0 
L 2900 0 
L 2900 538 
Q 2691 219 2414 64 
Q 2138 -91 1772 -91 
Q 1169 -91 856 284 
Q 544 659 544 1381 
z
M 1991 3584 
L 1991 3584 
z
" id="DejaVuSans-75" transform="scale(0.015625)"/>
      </defs>
      <use xlink:href="#DejaVuSans-6e"/>
      <use x="63.378906" xlink:href="#DejaVuSans-72"/>
      <use x="104.492188" xlink:href="#DejaVuSans-20"/>
      <use x="136.279297" xlink:href="#DejaVuSans-69"/>
      <use x="164.0625" xlink:href="#DejaVuSans-74"/>
      <use x="203.271484" xlink:href="#DejaVuSans-65"/>
      <use x="264.794922" xlink:href="#DejaVuSans-72"/>
      <use x="305.908203" xlink:href="#DejaVuSans-61"/>
      <use x="367.1875" xlink:href="#DejaVuSans-63"/>
      <use x="422.167969" xlink:href="#DejaVuSans-6a"/>
      <use x="449.951172" xlink:href="#DejaVuSans-69"/>
      <use x="477.734375" xlink:href="#DejaVuSans-20"/>
      <use x="509.521484" xlink:href="#DejaVuSans-65"/>
      <use x="571.044922" xlink:href="#DejaVuSans-70"/>
      <use x="634.521484" xlink:href="#DejaVuSans-69"/>
      <use x="662.304688" xlink:href="#DejaVuSans-7a"/>
      <use x="714.794922" xlink:href="#DejaVuSans-6f"/>
      <use x="775.976562" xlink:href="#DejaVuSans-64"/>
      <use x="839.453125" xlink:href="#DejaVuSans-75"/>
     </g>
    </g>
   </g>
   <g id="matplotlib.axis_2">
    <g id="ytick_1">
     <g id="line2d_7">
      <defs>
       <path d="M 0 0 
L -3.5 0 
" id="m779ec019b7" style="stroke:#000000;stroke-width:0.8;"/>
      </defs>
      <g>
       <use style="stroke:#000000;stroke-width:0.8;" x="90" xlink:href="#m779ec019b7" y="493.480574"/>
      </g>
     </g>
     <g id="text_8">
      <!-- −70000 -->
      <g transform="translate(-5.422813 501.838855)scale(0.22 -0.22)">
       <defs>
        <path d="M 678 2272 
L 4684 2272 
L 4684 1741 
L 678 1741 
L 678 2272 
z
" id="DejaVuSans-2212" transform="scale(0.015625)"/>
        <path d="M 525 4666 
L 3525 4666 
L 3525 4397 
L 1831 0 
L 1172 0 
L 2766 4134 
L 525 4134 
L 525 4666 
z
" id="DejaVuSans-37" transform="scale(0.015625)"/>
       </defs>
       <use xlink:href="#DejaVuSans-2212"/>
       <use x="83.789062" xlink:href="#DejaVuSans-37"/>
       <use x="147.412109" xlink:href="#DejaVuSans-30"/>
       <use x="211.035156" xlink:href="#DejaVuSans-30"/>
       <use x="274.658203" xlink:href="#DejaVuSans-30"/>
       <use x="338.28125" xlink:href="#DejaVuSans-30"/>
      </g>
     </g>
    </g>
    <g id="ytick_2">
     <g id="line2d_8">
      <g>
       <use style="stroke:#000000;stroke-width:0.8;" x="90" xlink:href="#m779ec019b7" y="435.681531"/>
      </g>
     </g>
     <g id="text_9">
      <!-- −60000 -->
      <g transform="translate(-5.422813 444.039812)scale(0.22 -0.22)">
       <defs>
        <path d="M 2113 2584 
Q 1688 2584 1439 2293 
Q 1191 2003 1191 1497 
Q 1191 994 1439 701 
Q 1688 409 2113 409 
Q 2538 409 2786 701 
Q 3034 994 3034 1497 
Q 3034 2003 2786 2293 
Q 2538 2584 2113 2584 
z
M 3366 4563 
L 3366 3988 
Q 3128 4100 2886 4159 
Q 2644 4219 2406 4219 
Q 1781 4219 1451 3797 
Q 1122 3375 1075 2522 
Q 1259 2794 1537 2939 
Q 1816 3084 2150 3084 
Q 2853 3084 3261 2657 
Q 3669 2231 3669 1497 
Q 3669 778 3244 343 
Q 2819 -91 2113 -91 
Q 1303 -91 875 529 
Q 447 1150 447 2328 
Q 447 3434 972 4092 
Q 1497 4750 2381 4750 
Q 2619 4750 2861 4703 
Q 3103 4656 3366 4563 
z
" id="DejaVuSans-36" transform="scale(0.015625)"/>
       </defs>
       <use xlink:href="#DejaVuSans-2212"/>
       <use x="83.789062" xlink:href="#DejaVuSans-36"/>
       <use x="147.412109" xlink:href="#DejaVuSans-30"/>
       <use x="211.035156" xlink:href="#DejaVuSans-30"/>
       <use x="274.658203" xlink:href="#DejaVuSans-30"/>
       <use x="338.28125" xlink:href="#DejaVuSans-30"/>
      </g>
     </g>
    </g>
    <g id="ytick_3">
     <g id="line2d_9">
      <g>
       <use style="stroke:#000000;stroke-width:0.8;" x="90" xlink:href="#m779ec019b7" y="377.882488"/>
      </g>
     </g>
     <g id="text_10">
      <!-- −50000 -->
      <g transform="translate(-5.422813 386.240769)scale(0.22 -0.22)">
       <use xlink:href="#DejaVuSans-2212"/>
       <use x="83.789062" xlink:href="#DejaVuSans-35"/>
       <use x="147.412109" xlink:href="#DejaVuSans-30"/>
       <use x="211.035156" xlink:href="#DejaVuSans-30"/>
       <use x="274.658203" xlink:href="#DejaVuSans-30"/>
       <use x="338.28125" xlink:href="#DejaVuSans-30"/>
      </g>
     </g>
    </g>
    <g id="ytick_4">
     <g id="line2d_10">
      <g>
       <use style="stroke:#000000;stroke-width:0.8;" x="90" xlink:href="#m779ec019b7" y="320.083445"/>
      </g>
     </g>
     <g id="text_11">
      <!-- −40000 -->
      <g transform="translate(-5.422813 328.441726)scale(0.22 -0.22)">
       <defs>
        <path d="M 2419 4116 
L 825 1625 
L 2419 1625 
L 2419 4116 
z
M 2253 4666 
L 3047 4666 
L 3047 1625 
L 3713 1625 
L 3713 1100 
L 3047 1100 
L 3047 0 
L 2419 0 
L 2419 1100 
L 313 1100 
L 313 1709 
L 2253 4666 
z
" id="DejaVuSans-34" transform="scale(0.015625)"/>
       </defs>
       <use xlink:href="#DejaVuSans-2212"/>
       <use x="83.789062" xlink:href="#DejaVuSans-34"/>
       <use x="147.412109" xlink:href="#DejaVuSans-30"/>
       <use x="211.035156" xlink:href="#DejaVuSans-30"/>
       <use x="274.658203" xlink:href="#DejaVuSans-30"/>
       <use x="338.28125" xlink:href="#DejaVuSans-30"/>
      </g>
     </g>
    </g>
    <g id="ytick_5">
     <g id="line2d_11">
      <g>
       <use style="stroke:#000000;stroke-width:0.8;" x="90" xlink:href="#m779ec019b7" y="262.284402"/>
      </g>
     </g>
     <g id="text_12">
      <!-- −30000 -->
      <g transform="translate(-5.422813 270.642683)scale(0.22 -0.22)">
       <defs>
        <path d="M 2597 2516 
Q 3050 2419 3304 2112 
Q 3559 1806 3559 1356 
Q 3559 666 3084 287 
Q 2609 -91 1734 -91 
Q 1441 -91 1130 -33 
Q 819 25 488 141 
L 488 750 
Q 750 597 1062 519 
Q 1375 441 1716 441 
Q 2309 441 2620 675 
Q 2931 909 2931 1356 
Q 2931 1769 2642 2001 
Q 2353 2234 1838 2234 
L 1294 2234 
L 1294 2753 
L 1863 2753 
Q 2328 2753 2575 2939 
Q 2822 3125 2822 3475 
Q 2822 3834 2567 4026 
Q 2313 4219 1838 4219 
Q 1578 4219 1281 4162 
Q 984 4106 628 3988 
L 628 4550 
Q 988 4650 1302 4700 
Q 1616 4750 1894 4750 
Q 2613 4750 3031 4423 
Q 3450 4097 3450 3541 
Q 3450 3153 3228 2886 
Q 3006 2619 2597 2516 
z
" id="DejaVuSans-33" transform="scale(0.015625)"/>
       </defs>
       <use xlink:href="#DejaVuSans-2212"/>
       <use x="83.789062" xlink:href="#DejaVuSans-33"/>
       <use x="147.412109" xlink:href="#DejaVuSans-30"/>
       <use x="211.035156" xlink:href="#DejaVuSans-30"/>
       <use x="274.658203" xlink:href="#DejaVuSans-30"/>
       <use x="338.28125" xlink:href="#DejaVuSans-30"/>
      </g>
     </g>
    </g>
    <g id="ytick_6">
     <g id="line2d_12">
      <g>
       <use style="stroke:#000000;stroke-width:0.8;" x="90" xlink:href="#m779ec019b7" y="204.485359"/>
      </g>
     </g>
     <g id="text_13">
      <!-- −20000 -->
      <g transform="translate(-5.422813 212.84364)scale(0.22 -0.22)">
       <use xlink:href="#DejaVuSans-2212"/>
       <use x="83.789062" xlink:href="#DejaVuSans-32"/>
       <use x="147.412109" xlink:href="#DejaVuSans-30"/>
       <use x="211.035156" xlink:href="#DejaVuSans-30"/>
       <use x="274.658203" xlink:href="#DejaVuSans-30"/>
       <use x="338.28125" xlink:href="#DejaVuSans-30"/>
      </g>
     </g>
    </g>
    <g id="ytick_7">
     <g id="line2d_13">
      <g>
       <use style="stroke:#000000;stroke-width:0.8;" x="90" xlink:href="#m779ec019b7" y="146.686316"/>
      </g>
     </g>
     <g id="text_14">
      <!-- −10000 -->
      <g transform="translate(-5.422813 155.044597)scale(0.22 -0.22)">
       <use xlink:href="#DejaVuSans-2212"/>
       <use x="83.789062" xlink:href="#DejaVuSans-31"/>
       <use x="147.412109" xlink:href="#DejaVuSans-30"/>
       <use x="211.035156" xlink:href="#DejaVuSans-30"/>
       <use x="274.658203" xlink:href="#DejaVuSans-30"/>
       <use x="338.28125" xlink:href="#DejaVuSans-30"/>
      </g>
     </g>
    </g>
    <g id="ytick_8">
     <g id="line2d_14">
      <g>
       <use style="stroke:#000000;stroke-width:0.8;" x="90" xlink:href="#m779ec019b7" y="88.887273"/>
      </g>
     </g>
     <g id="text_15">
      <!-- 0 -->
      <g transform="translate(69.0025 97.245554)scale(0.22 -0.22)">
       <use xlink:href="#DejaVuSans-30"/>
      </g>
     </g>
    </g>
    <g id="text_16">
     <!-- wartość funkcji nagrody -->
     <g transform="translate(-13.998125 418.171562)rotate(-90)scale(0.22 -0.22)">
      <defs>
       <path d="M 269 3500 
L 844 3500 
L 1563 769 
L 2278 3500 
L 2956 3500 
L 3675 769 
L 4391 3500 
L 4966 3500 
L 4050 0 
L 3372 0 
L 2619 2869 
L 1863 0 
L 1184 0 
L 269 3500 
z
" id="DejaVuSans-77" transform="scale(0.015625)"/>
       <path d="M 2242 5119 
L 2864 5119 
L 1846 3944 
L 1367 3944 
L 2242 5119 
z
M 2834 3397 
L 2834 2853 
Q 2591 2978 2328 3040 
Q 2066 3103 1784 3103 
Q 1356 3103 1142 2972 
Q 928 2841 928 2578 
Q 928 2378 1081 2264 
Q 1234 2150 1697 2047 
L 1894 2003 
Q 2506 1872 2764 1633 
Q 3022 1394 3022 966 
Q 3022 478 2636 193 
Q 2250 -91 1575 -91 
Q 1294 -91 989 -36 
Q 684 19 347 128 
L 347 722 
Q 666 556 975 473 
Q 1284 391 1588 391 
Q 1994 391 2212 530 
Q 2431 669 2431 922 
Q 2431 1156 2273 1281 
Q 2116 1406 1581 1522 
L 1381 1569 
Q 847 1681 609 1914 
Q 372 2147 372 2553 
Q 372 3047 722 3315 
Q 1072 3584 1716 3584 
Q 2034 3584 2315 3537 
Q 2597 3491 2834 3397 
z
" id="DejaVuSans-15b" transform="scale(0.015625)"/>
       <path d="M 3122 3366 
L 3122 2828 
Q 2878 2963 2633 3030 
Q 2388 3097 2138 3097 
Q 1578 3097 1268 2742 
Q 959 2388 959 1747 
Q 959 1106 1268 751 
Q 1578 397 2138 397 
Q 2388 397 2633 464 
Q 2878 531 3122 666 
L 3122 134 
Q 2881 22 2623 -34 
Q 2366 -91 2075 -91 
Q 1284 -91 818 406 
Q 353 903 353 1747 
Q 353 2603 823 3093 
Q 1294 3584 2113 3584 
Q 2378 3584 2631 3529 
Q 2884 3475 3122 3366 
z
M 2466 5119 
L 3088 5119 
L 2070 3944 
L 1591 3944 
L 2466 5119 
z
" id="DejaVuSans-107" transform="scale(0.015625)"/>
       <path d="M 2375 4863 
L 2375 4384 
L 1825 4384 
Q 1516 4384 1395 4259 
Q 1275 4134 1275 3809 
L 1275 3500 
L 2222 3500 
L 2222 3053 
L 1275 3053 
L 1275 0 
L 697 0 
L 697 3053 
L 147 3053 
L 147 3500 
L 697 3500 
L 697 3744 
Q 697 4328 969 4595 
Q 1241 4863 1831 4863 
L 2375 4863 
z
" id="DejaVuSans-66" transform="scale(0.015625)"/>
       <path d="M 581 4863 
L 1159 4863 
L 1159 1991 
L 2875 3500 
L 3609 3500 
L 1753 1863 
L 3688 0 
L 2938 0 
L 1159 1709 
L 1159 0 
L 581 0 
L 581 4863 
z
" id="DejaVuSans-6b" transform="scale(0.015625)"/>
       <path d="M 2906 1791 
Q 2906 2416 2648 2759 
Q 2391 3103 1925 3103 
Q 1463 3103 1205 2759 
Q 947 2416 947 1791 
Q 947 1169 1205 825 
Q 1463 481 1925 481 
Q 2391 481 2648 825 
Q 2906 1169 2906 1791 
z
M 3481 434 
Q 3481 -459 3084 -895 
Q 2688 -1331 1869 -1331 
Q 1566 -1331 1297 -1286 
Q 1028 -1241 775 -1147 
L 775 -588 
Q 1028 -725 1275 -790 
Q 1522 -856 1778 -856 
Q 2344 -856 2625 -561 
Q 2906 -266 2906 331 
L 2906 616 
Q 2728 306 2450 153 
Q 2172 0 1784 0 
Q 1141 0 747 490 
Q 353 981 353 1791 
Q 353 2603 747 3093 
Q 1141 3584 1784 3584 
Q 2172 3584 2450 3431 
Q 2728 3278 2906 2969 
L 2906 3500 
L 3481 3500 
L 3481 434 
z
" id="DejaVuSans-67" transform="scale(0.015625)"/>
       <path d="M 2059 -325 
Q 1816 -950 1584 -1140 
Q 1353 -1331 966 -1331 
L 506 -1331 
L 506 -850 
L 844 -850 
Q 1081 -850 1212 -737 
Q 1344 -625 1503 -206 
L 1606 56 
L 191 3500 
L 800 3500 
L 1894 763 
L 2988 3500 
L 3597 3500 
L 2059 -325 
z
" id="DejaVuSans-79" transform="scale(0.015625)"/>
      </defs>
      <use xlink:href="#DejaVuSans-77"/>
      <use x="81.787109" xlink:href="#DejaVuSans-61"/>
      <use x="143.066406" xlink:href="#DejaVuSans-72"/>
      <use x="184.179688" xlink:href="#DejaVuSans-74"/>
      <use x="223.388672" xlink:href="#DejaVuSans-6f"/>
      <use x="284.570312" xlink:href="#DejaVuSans-15b"/>
      <use x="336.669922" xlink:href="#DejaVuSans-107"/>
      <use x="391.650391" xlink:href="#DejaVuSans-20"/>
      <use x="423.4375" xlink:href="#DejaVuSans-66"/>
      <use x="458.642578" xlink:href="#DejaVuSans-75"/>
      <use x="522.021484" xlink:href="#DejaVuSans-6e"/>
      <use x="585.400391" xlink:href="#DejaVuSans-6b"/>
      <use x="643.310547" xlink:href="#DejaVuSans-63"/>
      <use x="698.291016" xlink:href="#DejaVuSans-6a"/>
      <use x="726.074219" xlink:href="#DejaVuSans-69"/>
      <use x="753.857422" xlink:href="#DejaVuSans-20"/>
      <use x="785.644531" xlink:href="#DejaVuSans-6e"/>
      <use x="849.023438" xlink:href="#DejaVuSans-61"/>
      <use x="910.302734" xlink:href="#DejaVuSans-67"/>
      <use x="973.779297" xlink:href="#DejaVuSans-72"/>
      <use x="1012.642578" xlink:href="#DejaVuSans-6f"/>
      <use x="1073.824219" xlink:href="#DejaVuSans-64"/>
      <use x="1137.300781" xlink:href="#DejaVuSans-79"/>
     </g>
    </g>
   </g>
   <g id="line2d_15">
    <path clip-path="url(#pca9eba2b59)" d="M 115.363636 88.887273 
L 115.566627 90.621244 
L 117.59653 90.621244 
L 117.79952 92.355215 
L 119.829423 92.355215 
L 120.032413 94.089187 
L 122.062316 94.089187 
L 122.265306 95.823158 
L 124.295209 95.823158 
L 124.498199 97.557129 
L 126.528102 97.557129 
L 126.731092 99.2911 
L 128.760995 99.2911 
L 128.963986 101.025072 
L 130.993888 101.025072 
L 131.196879 102.759043 
L 133.226782 102.759043 
L 133.429772 104.493014 
L 135.459675 104.493014 
L 135.662665 106.226986 
L 137.692568 106.226986 
L 137.895558 107.960957 
L 139.925461 107.960957 
L 140.128451 109.694928 
L 142.158354 109.694928 
L 142.361345 111.4289 
L 144.391247 111.4289 
L 144.594238 113.162871 
L 146.624141 113.162871 
L 146.827131 114.896842 
L 148.857034 114.896842 
L 149.060024 116.630813 
L 151.089927 116.630813 
L 151.292917 118.364785 
L 153.32282 118.364785 
L 153.52581 120.098756 
L 155.555713 120.098756 
L 155.758703 121.832727 
L 157.788606 121.832727 
L 157.991597 123.566699 
L 160.0215 123.566699 
L 160.22449 125.30067 
L 162.254393 125.30067 
L 162.457383 127.034641 
L 164.487286 127.034641 
L 164.690276 128.768612 
L 166.720179 128.768612 
L 166.923169 130.502584 
L 168.953072 130.502584 
L 169.156062 132.236555 
L 171.185965 132.236555 
L 171.388956 133.970526 
L 173.418858 133.970526 
L 173.621849 135.704498 
L 175.651752 135.704498 
L 175.854742 137.438469 
L 177.884645 137.438469 
L 178.087635 139.17244 
L 180.117538 139.17244 
L 180.320528 140.906411 
L 182.350431 140.906411 
L 182.553421 142.640383 
L 184.583324 142.640383 
L 184.786315 144.374354 
L 186.816217 144.374354 
L 187.019208 146.108325 
L 189.049111 146.108325 
L 189.252101 147.842297 
L 191.282004 147.842297 
L 191.484994 149.576268 
L 193.514897 149.576268 
L 193.717887 151.310239 
L 195.74779 151.310239 
L 195.95078 153.044211 
L 197.980683 153.044211 
L 198.183673 154.778182 
L 200.213576 154.778182 
L 200.416567 156.512153 
L 202.446469 156.512153 
L 202.64946 158.246124 
L 204.679363 158.246124 
L 204.882353 159.980096 
L 206.912256 159.980096 
L 207.115246 161.714067 
L 209.145149 161.714067 
L 209.348139 163.448038 
L 211.378042 163.448038 
L 211.581032 165.18201 
L 213.610935 165.18201 
L 213.813926 166.915981 
L 215.843828 166.915981 
L 216.046819 168.649952 
L 218.076722 168.649952 
L 218.279712 170.383923 
L 220.309615 170.383923 
L 220.512605 172.117895 
L 222.542508 172.117895 
L 222.745498 173.851866 
L 224.775401 173.851866 
L 224.978391 175.585837 
L 227.008294 175.585837 
L 227.211285 177.319809 
L 229.241187 177.319809 
L 229.444178 179.05378 
L 231.474081 179.05378 
L 231.677071 180.787751 
L 233.706974 180.787751 
L 233.909964 182.521722 
L 235.939867 182.521722 
L 236.142857 184.255694 
L 238.17276 184.255694 
L 238.37575 185.989665 
L 240.405653 185.989665 
L 240.608643 187.723636 
L 242.638546 187.723636 
L 242.841537 189.457608 
L 244.871439 189.457608 
L 245.07443 191.191579 
L 247.104333 191.191579 
L 247.307323 192.92555 
L 249.337226 192.92555 
L 249.540216 194.659522 
L 251.570119 194.659522 
L 251.773109 196.393493 
L 253.803012 196.393493 
L 254.006002 198.127464 
L 256.035905 198.127464 
L 256.238896 199.861435 
L 258.268798 199.861435 
L 258.471789 201.595407 
L 260.501692 201.595407 
L 260.704682 203.329378 
L 262.734585 203.329378 
L 262.937575 205.063349 
L 264.967478 205.063349 
L 265.170468 206.797321 
L 267.200371 206.797321 
L 267.403361 208.531292 
L 269.433264 208.531292 
L 269.636255 210.265263 
L 271.666157 210.265263 
L 271.869148 211.999234 
L 273.899051 211.999234 
L 274.102041 213.733206 
L 276.131944 213.733206 
L 276.334934 215.467177 
L 278.364837 215.467177 
L 278.567827 217.201148 
L 280.59773 217.201148 
L 280.80072 218.93512 
L 282.830623 218.93512 
L 283.033613 220.669091 
L 285.063516 220.669091 
L 285.266507 222.403062 
L 287.296409 222.403062 
L 287.4994 224.137033 
L 289.529303 224.137033 
L 289.732293 225.871005 
L 291.762196 225.871005 
L 291.965186 227.604976 
L 293.995089 227.604976 
L 294.198079 229.338947 
L 296.227982 229.338947 
L 296.430972 231.072919 
L 298.460875 231.072919 
L 298.663866 232.80689 
L 300.693768 232.80689 
L 300.896759 234.540861 
L 302.926662 234.540861 
L 303.129652 236.274833 
L 305.159555 236.274833 
L 305.362545 238.008804 
L 307.392448 238.008804 
L 307.595438 239.742775 
L 309.625341 239.742775 
L 309.828331 241.476746 
L 311.858234 241.476746 
L 312.061224 243.210718 
L 314.091127 243.210718 
L 314.294118 244.944689 
L 316.324021 244.944689 
L 316.527011 246.67866 
L 318.556914 246.67866 
L 318.759904 248.412632 
L 320.789807 248.412632 
L 320.992797 250.146603 
L 323.0227 250.146603 
L 323.22569 251.880574 
L 325.255593 251.880574 
L 325.458583 253.614545 
L 327.488486 253.614545 
L 327.691477 255.348517 
L 329.721379 255.348517 
L 329.92437 257.082488 
L 331.954273 257.082488 
L 332.157263 258.816459 
L 334.187166 258.816459 
L 334.390156 260.550431 
L 336.420059 260.550431 
L 336.623049 262.284402 
L 338.652952 262.284402 
L 338.855942 264.018373 
L 340.885845 264.018373 
L 341.088836 265.752344 
L 343.118738 265.752344 
L 343.321729 267.486316 
L 345.351632 267.486316 
L 345.554622 269.220287 
L 347.584525 269.220287 
L 347.787515 270.954258 
L 349.817418 270.954258 
L 350.020408 272.68823 
L 352.050311 272.68823 
L 352.253301 274.422201 
L 354.283204 274.422201 
L 354.486194 276.156172 
L 356.516097 276.156172 
L 356.719088 277.890144 
L 358.748991 277.890144 
L 358.951981 279.624115 
L 360.981884 279.624115 
L 361.184874 281.358086 
L 363.214777 281.358086 
L 363.417767 283.092057 
L 365.44767 283.092057 
L 365.65066 284.826029 
L 367.680563 284.826029 
L 367.883553 286.56 
L 369.913456 286.56 
L 370.116447 288.293971 
L 372.146349 288.293971 
L 372.34934 290.027943 
L 374.379243 290.027943 
L 374.582233 291.761914 
L 376.612136 291.761914 
L 376.815126 293.495885 
L 378.845029 293.495885 
L 379.048019 295.229856 
L 381.077922 295.229856 
L 381.280912 296.963828 
L 383.310815 296.963828 
L 383.513806 298.697799 
L 385.543708 298.697799 
L 385.746699 300.43177 
L 387.776602 300.43177 
L 387.979592 302.165742 
L 390.009495 302.165742 
L 390.212485 303.899713 
L 392.242388 303.899713 
L 392.445378 305.633684 
L 394.475281 305.633684 
L 394.678271 307.367656 
L 396.708174 307.367656 
L 396.911164 309.101627 
L 398.941067 309.101627 
L 399.144058 310.835598 
L 401.17396 310.835598 
L 401.376951 312.569569 
L 403.406854 312.569569 
L 403.609844 314.303541 
L 405.639747 314.303541 
L 405.842737 316.037512 
L 407.87264 316.037512 
L 408.07563 317.771483 
L 410.105533 317.771483 
L 410.308523 319.505455 
L 412.338426 319.505455 
L 412.541417 321.239426 
L 414.571319 321.239426 
L 414.77431 322.973397 
L 416.804213 322.973397 
L 417.007203 324.707368 
L 419.037106 324.707368 
L 419.240096 326.44134 
L 421.269999 326.44134 
L 421.472989 328.175311 
L 423.502892 328.175311 
L 423.705882 329.909282 
L 425.735785 329.909282 
L 425.938776 331.643254 
L 427.968678 331.643254 
L 428.171669 333.377225 
L 430.201572 333.377225 
L 430.404562 335.111196 
L 432.434465 335.111196 
L 432.637455 336.845167 
L 434.667358 336.845167 
L 434.870348 338.579139 
L 436.900251 338.579139 
L 437.103241 340.31311 
L 439.133144 340.31311 
L 439.336134 342.047081 
L 441.366037 342.047081 
L 441.569028 343.781053 
L 443.59893 343.781053 
L 443.801921 345.515024 
L 445.831824 345.515024 
L 446.034814 347.248995 
L 448.064717 347.248995 
L 448.267707 348.982967 
L 450.29761 348.982967 
L 450.5006 350.716938 
L 452.530503 350.716938 
L 452.733493 352.450909 
L 454.763396 352.450909 
L 454.966387 354.18488 
L 456.996289 354.18488 
L 457.19928 355.918852 
L 459.229183 355.918852 
L 459.432173 357.652823 
L 461.462076 357.652823 
L 461.665066 359.386794 
L 463.694969 359.386794 
L 463.897959 361.120766 
L 465.927862 361.120766 
L 466.130852 362.854737 
L 468.160755 362.854737 
L 468.363745 364.588708 
L 470.393648 364.588708 
L 470.596639 366.322679 
L 472.626542 366.322679 
L 472.829532 368.056651 
L 474.859435 368.056651 
L 475.062425 369.790622 
L 477.092328 369.790622 
L 477.295318 371.524593 
L 479.325221 371.524593 
L 479.528211 373.258565 
L 481.558114 373.258565 
L 481.761104 374.992536 
L 483.791007 374.992536 
L 483.993998 376.726507 
L 486.0239 376.726507 
L 486.226891 378.460478 
L 488.256794 378.460478 
L 488.459784 380.19445 
L 490.489687 380.19445 
L 490.692677 381.928421 
L 492.72258 381.928421 
L 492.92557 383.662392 
L 494.955473 383.662392 
L 495.158463 385.396364 
L 497.188366 385.396364 
L 497.391357 387.130335 
L 499.421259 387.130335 
L 499.62425 388.864306 
L 501.654153 388.864306 
L 501.857143 390.598278 
L 503.887046 390.598278 
L 504.090036 392.332249 
L 506.119939 392.332249 
L 506.322929 394.06622 
L 508.352832 394.06622 
L 508.555822 395.800191 
L 510.585725 395.800191 
L 510.788715 397.534163 
L 512.818618 397.534163 
L 513.021609 399.268134 
L 515.051512 399.268134 
L 515.254502 401.002105 
L 517.284405 401.002105 
L 517.487395 402.736077 
L 519.517298 402.736077 
L 519.720288 404.470048 
L 521.750191 404.470048 
L 521.953181 406.204019 
L 523.983084 406.204019 
L 524.186074 407.93799 
L 526.215977 407.93799 
L 526.418968 409.671962 
L 528.44887 409.671962 
L 528.651861 411.405933 
L 530.681764 411.405933 
L 530.884754 413.139904 
L 532.914657 413.139904 
L 533.117647 414.873876 
L 535.14755 414.873876 
L 535.35054 416.607847 
L 537.380443 416.607847 
L 537.583433 418.341818 
L 539.613336 418.341818 
L 539.816327 420.075789 
L 541.846229 420.075789 
L 542.04922 421.809761 
L 544.079123 421.809761 
L 544.282113 423.543732 
L 546.312016 423.543732 
L 546.515006 425.277703 
L 548.544909 425.277703 
L 548.747899 427.011675 
L 550.777802 427.011675 
L 550.980792 428.745646 
L 553.010695 428.745646 
L 553.213685 430.479617 
L 555.243588 430.479617 
L 555.446579 432.213589 
L 557.476482 432.213589 
L 557.679472 433.94756 
L 559.709375 433.94756 
L 559.912365 435.681531 
L 561.942268 435.681531 
L 562.145258 437.415502 
L 564.175161 437.415502 
L 564.378151 439.149474 
L 566.408054 439.149474 
L 566.611044 440.883445 
L 568.640947 440.883445 
L 568.843938 442.617416 
L 570.87384 442.617416 
L 571.076831 444.351388 
L 573.106734 444.351388 
L 573.309724 446.085359 
L 575.339627 446.085359 
L 575.542617 447.81933 
L 577.57252 447.81933 
L 577.77551 449.553301 
L 579.805413 449.553301 
L 580.008403 451.287273 
L 582.038306 451.287273 
L 582.241297 453.021244 
L 584.271199 453.021244 
L 584.47419 454.755215 
L 586.504093 454.755215 
L 586.707083 456.489187 
L 588.736986 456.489187 
L 588.939976 458.223158 
L 590.969879 458.223158 
L 591.172869 459.957129 
L 593.202772 459.957129 
L 593.405762 461.6911 
L 595.435665 461.6911 
L 595.638655 463.425072 
L 597.668558 463.425072 
L 597.871549 465.159043 
L 599.901451 465.159043 
L 600.104442 466.893014 
L 602.134345 466.893014 
L 602.337335 468.626986 
L 604.367238 468.626986 
L 604.570228 470.360957 
L 606.600131 470.360957 
L 606.803121 472.094928 
L 608.833024 472.094928 
L 609.036014 473.8289 
L 611.065917 473.8289 
L 611.268908 475.562871 
L 613.29881 475.562871 
L 613.501801 477.296842 
L 615.531704 477.296842 
L 615.734694 479.030813 
L 617.764597 479.030813 
L 617.967587 480.764785 
L 619.99749 480.764785 
L 620.20048 482.498756 
L 622.230383 482.498756 
L 622.433373 484.232727 
L 622.636364 484.232727 
L 622.636364 484.232727 
" style="fill:none;stroke:#1f77b4;stroke-linecap:square;stroke-width:1.5;"/>
   </g>
   <g id="patch_3">
    <path d="M 90 504 
L 90 69.12 
" style="fill:none;stroke:#000000;stroke-linecap:square;stroke-linejoin:miter;stroke-width:0.8;"/>
   </g>
   <g id="patch_4">
    <path d="M 648 504 
L 648 69.12 
" style="fill:none;stroke:#000000;stroke-linecap:square;stroke-linejoin:miter;stroke-width:0.8;"/>
   </g>
   <g id="patch_5">
    <path d="M 90 504 
L 648 504 
" style="fill:none;stroke:#000000;stroke-linecap:square;stroke-linejoin:miter;stroke-width:0.8;"/>
   </g>
   <g id="patch_6">
    <path d="M 90 69.12 
L 648 69.12 
" style="fill:none;stroke:#000000;stroke-linecap:square;stroke-linejoin:miter;stroke-width:0.8;"/>
   </g>
  </g>
 </g>
 <defs>
  <clipPath id="pca9eba2b59">
   <rect height="434.88" width="558" x="90" y="69.12"/>
  </clipPath>
 </defs>
</svg>
