<?xml version="1.0" encoding="utf-8" standalone="no"?>
<!DOCTYPE svg PUBLIC "-//W3C//DTD SVG 1.1//EN"
  "http://www.w3.org/Graphics/SVG/1.1/DTD/svg11.dtd">
<svg height="576pt" version="1.1" viewBox="0 0 720 576" width="720pt" xmlns="http://www.w3.org/2000/svg" xmlns:xlink="http://www.w3.org/1999/xlink">
 <metadata>
  <rdf:RDF xmlns:cc="http://creativecommons.org/ns#" xmlns:dc="http://purl.org/dc/elements/1.1/" xmlns:rdf="http://www.w3.org/1999/02/22-rdf-syntax-ns#">
   <cc:Work>
    <dc:type rdf:resource="http://purl.org/dc/dcmitype/StillImage"/>
    <dc:date>2022-01-19T22:12:17.163203</dc:date>
    <dc:format>image/svg+xml</dc:format>
    <dc:creator>
     <cc:Agent>
      <dc:title>Matplotlib v3.4.3, https://matplotlib.org/</dc:title>
     </cc:Agent>
    </dc:creator>
   </cc:Work>
  </rdf:RDF>
 </metadata>
 <defs>
  <style type="text/css">*{stroke-linecap:butt;stroke-linejoin:round;}</style>
 </defs>
 <g id="figure_1">
  <g id="patch_1">
   <path d="M 0 576 
L 720 576 
L 720 0 
L 0 0 
z
" style="fill:none;"/>
  </g>
  <g id="axes_1">
   <g id="patch_2">
    <path d="M 90 504 
L 648 504 
L 648 69.12 
L 90 69.12 
z
" style="fill:#ffffff;"/>
   </g>
   <g id="matplotlib.axis_1">
    <g id="xtick_1">
     <g id="line2d_1">
      <defs>
       <path d="M 0 0 
L 0 3.5 
" id="m0adbfbf5c6" style="stroke:#000000;stroke-width:0.8;"/>
      </defs>
      <g>
       <use style="stroke:#000000;stroke-width:0.8;" x="115.363636" xlink:href="#m0adbfbf5c6" y="504"/>
      </g>
     </g>
     <g id="text_1">
      <!-- 0 -->
      <g transform="translate(108.364886 527.716563)scale(0.22 -0.22)">
       <defs>
        <path d="M 2034 4250 
Q 1547 4250 1301 3770 
Q 1056 3291 1056 2328 
Q 1056 1369 1301 889 
Q 1547 409 2034 409 
Q 2525 409 2770 889 
Q 3016 1369 3016 2328 
Q 3016 3291 2770 3770 
Q 2525 4250 2034 4250 
z
M 2034 4750 
Q 2819 4750 3233 4129 
Q 3647 3509 3647 2328 
Q 3647 1150 3233 529 
Q 2819 -91 2034 -91 
Q 1250 -91 836 529 
Q 422 1150 422 2328 
Q 422 3509 836 4129 
Q 1250 4750 2034 4750 
z
" id="DejaVuSans-30" transform="scale(0.015625)"/>
       </defs>
       <use xlink:href="#DejaVuSans-30"/>
      </g>
     </g>
    </g>
    <g id="xtick_2">
     <g id="line2d_2">
      <g>
       <use style="stroke:#000000;stroke-width:0.8;" x="216.85878" xlink:href="#m0adbfbf5c6" y="504"/>
      </g>
     </g>
     <g id="text_2">
      <!-- 500 -->
      <g transform="translate(195.86253 527.716563)scale(0.22 -0.22)">
       <defs>
        <path d="M 691 4666 
L 3169 4666 
L 3169 4134 
L 1269 4134 
L 1269 2991 
Q 1406 3038 1543 3061 
Q 1681 3084 1819 3084 
Q 2600 3084 3056 2656 
Q 3513 2228 3513 1497 
Q 3513 744 3044 326 
Q 2575 -91 1722 -91 
Q 1428 -91 1123 -41 
Q 819 9 494 109 
L 494 744 
Q 775 591 1075 516 
Q 1375 441 1709 441 
Q 2250 441 2565 725 
Q 2881 1009 2881 1497 
Q 2881 1984 2565 2268 
Q 2250 2553 1709 2553 
Q 1456 2553 1204 2497 
Q 953 2441 691 2322 
L 691 4666 
z
" id="DejaVuSans-35" transform="scale(0.015625)"/>
       </defs>
       <use xlink:href="#DejaVuSans-35"/>
       <use x="63.623047" xlink:href="#DejaVuSans-30"/>
       <use x="127.246094" xlink:href="#DejaVuSans-30"/>
      </g>
     </g>
    </g>
    <g id="xtick_3">
     <g id="line2d_3">
      <g>
       <use style="stroke:#000000;stroke-width:0.8;" x="318.353923" xlink:href="#m0adbfbf5c6" y="504"/>
      </g>
     </g>
     <g id="text_3">
      <!-- 1000 -->
      <g transform="translate(290.358923 527.716563)scale(0.22 -0.22)">
       <defs>
        <path d="M 794 531 
L 1825 531 
L 1825 4091 
L 703 3866 
L 703 4441 
L 1819 4666 
L 2450 4666 
L 2450 531 
L 3481 531 
L 3481 0 
L 794 0 
L 794 531 
z
" id="DejaVuSans-31" transform="scale(0.015625)"/>
       </defs>
       <use xlink:href="#DejaVuSans-31"/>
       <use x="63.623047" xlink:href="#DejaVuSans-30"/>
       <use x="127.246094" xlink:href="#DejaVuSans-30"/>
       <use x="190.869141" xlink:href="#DejaVuSans-30"/>
      </g>
     </g>
    </g>
    <g id="xtick_4">
     <g id="line2d_4">
      <g>
       <use style="stroke:#000000;stroke-width:0.8;" x="419.849067" xlink:href="#m0adbfbf5c6" y="504"/>
      </g>
     </g>
     <g id="text_4">
      <!-- 1500 -->
      <g transform="translate(391.854067 527.716563)scale(0.22 -0.22)">
       <use xlink:href="#DejaVuSans-31"/>
       <use x="63.623047" xlink:href="#DejaVuSans-35"/>
       <use x="127.246094" xlink:href="#DejaVuSans-30"/>
       <use x="190.869141" xlink:href="#DejaVuSans-30"/>
      </g>
     </g>
    </g>
    <g id="xtick_5">
     <g id="line2d_5">
      <g>
       <use style="stroke:#000000;stroke-width:0.8;" x="521.34421" xlink:href="#m0adbfbf5c6" y="504"/>
      </g>
     </g>
     <g id="text_5">
      <!-- 2000 -->
      <g transform="translate(493.34921 527.716563)scale(0.22 -0.22)">
       <defs>
        <path d="M 1228 531 
L 3431 531 
L 3431 0 
L 469 0 
L 469 531 
Q 828 903 1448 1529 
Q 2069 2156 2228 2338 
Q 2531 2678 2651 2914 
Q 2772 3150 2772 3378 
Q 2772 3750 2511 3984 
Q 2250 4219 1831 4219 
Q 1534 4219 1204 4116 
Q 875 4013 500 3803 
L 500 4441 
Q 881 4594 1212 4672 
Q 1544 4750 1819 4750 
Q 2544 4750 2975 4387 
Q 3406 4025 3406 3419 
Q 3406 3131 3298 2873 
Q 3191 2616 2906 2266 
Q 2828 2175 2409 1742 
Q 1991 1309 1228 531 
z
" id="DejaVuSans-32" transform="scale(0.015625)"/>
       </defs>
       <use xlink:href="#DejaVuSans-32"/>
       <use x="63.623047" xlink:href="#DejaVuSans-30"/>
       <use x="127.246094" xlink:href="#DejaVuSans-30"/>
       <use x="190.869141" xlink:href="#DejaVuSans-30"/>
      </g>
     </g>
    </g>
    <g id="xtick_6">
     <g id="line2d_6">
      <g>
       <use style="stroke:#000000;stroke-width:0.8;" x="622.839354" xlink:href="#m0adbfbf5c6" y="504"/>
      </g>
     </g>
     <g id="text_6">
      <!-- 2500 -->
      <g transform="translate(594.844354 527.716563)scale(0.22 -0.22)">
       <use xlink:href="#DejaVuSans-32"/>
       <use x="63.623047" xlink:href="#DejaVuSans-35"/>
       <use x="127.246094" xlink:href="#DejaVuSans-30"/>
       <use x="190.869141" xlink:href="#DejaVuSans-30"/>
      </g>
     </g>
    </g>
    <g id="text_7">
     <!-- nr iteracji epizodu -->
     <g transform="translate(269.688906 553.008438)scale(0.22 -0.22)">
      <defs>
       <path d="M 3513 2113 
L 3513 0 
L 2938 0 
L 2938 2094 
Q 2938 2591 2744 2837 
Q 2550 3084 2163 3084 
Q 1697 3084 1428 2787 
Q 1159 2491 1159 1978 
L 1159 0 
L 581 0 
L 581 3500 
L 1159 3500 
L 1159 2956 
Q 1366 3272 1645 3428 
Q 1925 3584 2291 3584 
Q 2894 3584 3203 3211 
Q 3513 2838 3513 2113 
z
" id="DejaVuSans-6e" transform="scale(0.015625)"/>
       <path d="M 2631 2963 
Q 2534 3019 2420 3045 
Q 2306 3072 2169 3072 
Q 1681 3072 1420 2755 
Q 1159 2438 1159 1844 
L 1159 0 
L 581 0 
L 581 3500 
L 1159 3500 
L 1159 2956 
Q 1341 3275 1631 3429 
Q 1922 3584 2338 3584 
Q 2397 3584 2469 3576 
Q 2541 3569 2628 3553 
L 2631 2963 
z
" id="DejaVuSans-72" transform="scale(0.015625)"/>
       <path id="DejaVuSans-20" transform="scale(0.015625)"/>
       <path d="M 603 3500 
L 1178 3500 
L 1178 0 
L 603 0 
L 603 3500 
z
M 603 4863 
L 1178 4863 
L 1178 4134 
L 603 4134 
L 603 4863 
z
" id="DejaVuSans-69" transform="scale(0.015625)"/>
       <path d="M 1172 4494 
L 1172 3500 
L 2356 3500 
L 2356 3053 
L 1172 3053 
L 1172 1153 
Q 1172 725 1289 603 
Q 1406 481 1766 481 
L 2356 481 
L 2356 0 
L 1766 0 
Q 1100 0 847 248 
Q 594 497 594 1153 
L 594 3053 
L 172 3053 
L 172 3500 
L 594 3500 
L 594 4494 
L 1172 4494 
z
" id="DejaVuSans-74" transform="scale(0.015625)"/>
       <path d="M 3597 1894 
L 3597 1613 
L 953 1613 
Q 991 1019 1311 708 
Q 1631 397 2203 397 
Q 2534 397 2845 478 
Q 3156 559 3463 722 
L 3463 178 
Q 3153 47 2828 -22 
Q 2503 -91 2169 -91 
Q 1331 -91 842 396 
Q 353 884 353 1716 
Q 353 2575 817 3079 
Q 1281 3584 2069 3584 
Q 2775 3584 3186 3129 
Q 3597 2675 3597 1894 
z
M 3022 2063 
Q 3016 2534 2758 2815 
Q 2500 3097 2075 3097 
Q 1594 3097 1305 2825 
Q 1016 2553 972 2059 
L 3022 2063 
z
" id="DejaVuSans-65" transform="scale(0.015625)"/>
       <path d="M 2194 1759 
Q 1497 1759 1228 1600 
Q 959 1441 959 1056 
Q 959 750 1161 570 
Q 1363 391 1709 391 
Q 2188 391 2477 730 
Q 2766 1069 2766 1631 
L 2766 1759 
L 2194 1759 
z
M 3341 1997 
L 3341 0 
L 2766 0 
L 2766 531 
Q 2569 213 2275 61 
Q 1981 -91 1556 -91 
Q 1019 -91 701 211 
Q 384 513 384 1019 
Q 384 1609 779 1909 
Q 1175 2209 1959 2209 
L 2766 2209 
L 2766 2266 
Q 2766 2663 2505 2880 
Q 2244 3097 1772 3097 
Q 1472 3097 1187 3025 
Q 903 2953 641 2809 
L 641 3341 
Q 956 3463 1253 3523 
Q 1550 3584 1831 3584 
Q 2591 3584 2966 3190 
Q 3341 2797 3341 1997 
z
" id="DejaVuSans-61" transform="scale(0.015625)"/>
       <path d="M 3122 3366 
L 3122 2828 
Q 2878 2963 2633 3030 
Q 2388 3097 2138 3097 
Q 1578 3097 1268 2742 
Q 959 2388 959 1747 
Q 959 1106 1268 751 
Q 1578 397 2138 397 
Q 2388 397 2633 464 
Q 2878 531 3122 666 
L 3122 134 
Q 2881 22 2623 -34 
Q 2366 -91 2075 -91 
Q 1284 -91 818 406 
Q 353 903 353 1747 
Q 353 2603 823 3093 
Q 1294 3584 2113 3584 
Q 2378 3584 2631 3529 
Q 2884 3475 3122 3366 
z
" id="DejaVuSans-63" transform="scale(0.015625)"/>
       <path d="M 603 3500 
L 1178 3500 
L 1178 -63 
Q 1178 -731 923 -1031 
Q 669 -1331 103 -1331 
L -116 -1331 
L -116 -844 
L 38 -844 
Q 366 -844 484 -692 
Q 603 -541 603 -63 
L 603 3500 
z
M 603 4863 
L 1178 4863 
L 1178 4134 
L 603 4134 
L 603 4863 
z
" id="DejaVuSans-6a" transform="scale(0.015625)"/>
       <path d="M 1159 525 
L 1159 -1331 
L 581 -1331 
L 581 3500 
L 1159 3500 
L 1159 2969 
Q 1341 3281 1617 3432 
Q 1894 3584 2278 3584 
Q 2916 3584 3314 3078 
Q 3713 2572 3713 1747 
Q 3713 922 3314 415 
Q 2916 -91 2278 -91 
Q 1894 -91 1617 61 
Q 1341 213 1159 525 
z
M 3116 1747 
Q 3116 2381 2855 2742 
Q 2594 3103 2138 3103 
Q 1681 3103 1420 2742 
Q 1159 2381 1159 1747 
Q 1159 1113 1420 752 
Q 1681 391 2138 391 
Q 2594 391 2855 752 
Q 3116 1113 3116 1747 
z
" id="DejaVuSans-70" transform="scale(0.015625)"/>
       <path d="M 353 3500 
L 3084 3500 
L 3084 2975 
L 922 459 
L 3084 459 
L 3084 0 
L 275 0 
L 275 525 
L 2438 3041 
L 353 3041 
L 353 3500 
z
" id="DejaVuSans-7a" transform="scale(0.015625)"/>
       <path d="M 1959 3097 
Q 1497 3097 1228 2736 
Q 959 2375 959 1747 
Q 959 1119 1226 758 
Q 1494 397 1959 397 
Q 2419 397 2687 759 
Q 2956 1122 2956 1747 
Q 2956 2369 2687 2733 
Q 2419 3097 1959 3097 
z
M 1959 3584 
Q 2709 3584 3137 3096 
Q 3566 2609 3566 1747 
Q 3566 888 3137 398 
Q 2709 -91 1959 -91 
Q 1206 -91 779 398 
Q 353 888 353 1747 
Q 353 2609 779 3096 
Q 1206 3584 1959 3584 
z
" id="DejaVuSans-6f" transform="scale(0.015625)"/>
       <path d="M 2906 2969 
L 2906 4863 
L 3481 4863 
L 3481 0 
L 2906 0 
L 2906 525 
Q 2725 213 2448 61 
Q 2172 -91 1784 -91 
Q 1150 -91 751 415 
Q 353 922 353 1747 
Q 353 2572 751 3078 
Q 1150 3584 1784 3584 
Q 2172 3584 2448 3432 
Q 2725 3281 2906 2969 
z
M 947 1747 
Q 947 1113 1208 752 
Q 1469 391 1925 391 
Q 2381 391 2643 752 
Q 2906 1113 2906 1747 
Q 2906 2381 2643 2742 
Q 2381 3103 1925 3103 
Q 1469 3103 1208 2742 
Q 947 2381 947 1747 
z
" id="DejaVuSans-64" transform="scale(0.015625)"/>
       <path d="M 544 1381 
L 544 3500 
L 1119 3500 
L 1119 1403 
Q 1119 906 1312 657 
Q 1506 409 1894 409 
Q 2359 409 2629 706 
Q 2900 1003 2900 1516 
L 2900 3500 
L 3475 3500 
L 3475 0 
L 2900 0 
L 2900 538 
Q 2691 219 2414 64 
Q 2138 -91 1772 -91 
Q 1169 -91 856 284 
Q 544 659 544 1381 
z
M 1991 3584 
L 1991 3584 
z
" id="DejaVuSans-75" transform="scale(0.015625)"/>
      </defs>
      <use xlink:href="#DejaVuSans-6e"/>
      <use x="63.378906" xlink:href="#DejaVuSans-72"/>
      <use x="104.492188" xlink:href="#DejaVuSans-20"/>
      <use x="136.279297" xlink:href="#DejaVuSans-69"/>
      <use x="164.0625" xlink:href="#DejaVuSans-74"/>
      <use x="203.271484" xlink:href="#DejaVuSans-65"/>
      <use x="264.794922" xlink:href="#DejaVuSans-72"/>
      <use x="305.908203" xlink:href="#DejaVuSans-61"/>
      <use x="367.1875" xlink:href="#DejaVuSans-63"/>
      <use x="422.167969" xlink:href="#DejaVuSans-6a"/>
      <use x="449.951172" xlink:href="#DejaVuSans-69"/>
      <use x="477.734375" xlink:href="#DejaVuSans-20"/>
      <use x="509.521484" xlink:href="#DejaVuSans-65"/>
      <use x="571.044922" xlink:href="#DejaVuSans-70"/>
      <use x="634.521484" xlink:href="#DejaVuSans-69"/>
      <use x="662.304688" xlink:href="#DejaVuSans-7a"/>
      <use x="714.794922" xlink:href="#DejaVuSans-6f"/>
      <use x="775.976562" xlink:href="#DejaVuSans-64"/>
      <use x="839.453125" xlink:href="#DejaVuSans-75"/>
     </g>
    </g>
   </g>
   <g id="matplotlib.axis_2">
    <g id="ytick_1">
     <g id="line2d_7">
      <defs>
       <path d="M 0 0 
L -3.5 0 
" id="m7aaae161df" style="stroke:#000000;stroke-width:0.8;"/>
      </defs>
      <g>
       <use style="stroke:#000000;stroke-width:0.8;" x="90" xlink:href="#m7aaae161df" y="497.919303"/>
      </g>
     </g>
     <g id="text_8">
      <!-- −5000 -->
      <g transform="translate(8.574687 506.277584)scale(0.22 -0.22)">
       <defs>
        <path d="M 678 2272 
L 4684 2272 
L 4684 1741 
L 678 1741 
L 678 2272 
z
" id="DejaVuSans-2212" transform="scale(0.015625)"/>
       </defs>
       <use xlink:href="#DejaVuSans-2212"/>
       <use x="83.789062" xlink:href="#DejaVuSans-35"/>
       <use x="147.412109" xlink:href="#DejaVuSans-30"/>
       <use x="211.035156" xlink:href="#DejaVuSans-30"/>
       <use x="274.658203" xlink:href="#DejaVuSans-30"/>
      </g>
     </g>
    </g>
    <g id="ytick_2">
     <g id="line2d_8">
      <g>
       <use style="stroke:#000000;stroke-width:0.8;" x="90" xlink:href="#m7aaae161df" y="414.883604"/>
      </g>
     </g>
     <g id="text_9">
      <!-- 0 -->
      <g transform="translate(69.0025 423.241886)scale(0.22 -0.22)">
       <use xlink:href="#DejaVuSans-30"/>
      </g>
     </g>
    </g>
    <g id="ytick_3">
     <g id="line2d_9">
      <g>
       <use style="stroke:#000000;stroke-width:0.8;" x="90" xlink:href="#m7aaae161df" y="331.847906"/>
      </g>
     </g>
     <g id="text_10">
      <!-- 5000 -->
      <g transform="translate(27.01 340.206187)scale(0.22 -0.22)">
       <use xlink:href="#DejaVuSans-35"/>
       <use x="63.623047" xlink:href="#DejaVuSans-30"/>
       <use x="127.246094" xlink:href="#DejaVuSans-30"/>
       <use x="190.869141" xlink:href="#DejaVuSans-30"/>
      </g>
     </g>
    </g>
    <g id="ytick_4">
     <g id="line2d_10">
      <g>
       <use style="stroke:#000000;stroke-width:0.8;" x="90" xlink:href="#m7aaae161df" y="248.812208"/>
      </g>
     </g>
     <g id="text_11">
      <!-- 10000 -->
      <g transform="translate(13.0125 257.170489)scale(0.22 -0.22)">
       <use xlink:href="#DejaVuSans-31"/>
       <use x="63.623047" xlink:href="#DejaVuSans-30"/>
       <use x="127.246094" xlink:href="#DejaVuSans-30"/>
       <use x="190.869141" xlink:href="#DejaVuSans-30"/>
       <use x="254.492188" xlink:href="#DejaVuSans-30"/>
      </g>
     </g>
    </g>
    <g id="ytick_5">
     <g id="line2d_11">
      <g>
       <use style="stroke:#000000;stroke-width:0.8;" x="90" xlink:href="#m7aaae161df" y="165.77651"/>
      </g>
     </g>
     <g id="text_12">
      <!-- 15000 -->
      <g transform="translate(13.0125 174.134791)scale(0.22 -0.22)">
       <use xlink:href="#DejaVuSans-31"/>
       <use x="63.623047" xlink:href="#DejaVuSans-35"/>
       <use x="127.246094" xlink:href="#DejaVuSans-30"/>
       <use x="190.869141" xlink:href="#DejaVuSans-30"/>
       <use x="254.492188" xlink:href="#DejaVuSans-30"/>
      </g>
     </g>
    </g>
    <g id="ytick_6">
     <g id="line2d_12">
      <g>
       <use style="stroke:#000000;stroke-width:0.8;" x="90" xlink:href="#m7aaae161df" y="82.740812"/>
      </g>
     </g>
     <g id="text_13">
      <!-- 20000 -->
      <g transform="translate(13.0125 91.099093)scale(0.22 -0.22)">
       <use xlink:href="#DejaVuSans-32"/>
       <use x="63.623047" xlink:href="#DejaVuSans-30"/>
       <use x="127.246094" xlink:href="#DejaVuSans-30"/>
       <use x="190.869141" xlink:href="#DejaVuSans-30"/>
       <use x="254.492188" xlink:href="#DejaVuSans-30"/>
      </g>
     </g>
    </g>
    <g id="text_14">
     <!-- wartość funkcji nagrody -->
     <g transform="translate(-0.000625 418.171562)rotate(-90)scale(0.22 -0.22)">
      <defs>
       <path d="M 269 3500 
L 844 3500 
L 1563 769 
L 2278 3500 
L 2956 3500 
L 3675 769 
L 4391 3500 
L 4966 3500 
L 4050 0 
L 3372 0 
L 2619 2869 
L 1863 0 
L 1184 0 
L 269 3500 
z
" id="DejaVuSans-77" transform="scale(0.015625)"/>
       <path d="M 2242 5119 
L 2864 5119 
L 1846 3944 
L 1367 3944 
L 2242 5119 
z
M 2834 3397 
L 2834 2853 
Q 2591 2978 2328 3040 
Q 2066 3103 1784 3103 
Q 1356 3103 1142 2972 
Q 928 2841 928 2578 
Q 928 2378 1081 2264 
Q 1234 2150 1697 2047 
L 1894 2003 
Q 2506 1872 2764 1633 
Q 3022 1394 3022 966 
Q 3022 478 2636 193 
Q 2250 -91 1575 -91 
Q 1294 -91 989 -36 
Q 684 19 347 128 
L 347 722 
Q 666 556 975 473 
Q 1284 391 1588 391 
Q 1994 391 2212 530 
Q 2431 669 2431 922 
Q 2431 1156 2273 1281 
Q 2116 1406 1581 1522 
L 1381 1569 
Q 847 1681 609 1914 
Q 372 2147 372 2553 
Q 372 3047 722 3315 
Q 1072 3584 1716 3584 
Q 2034 3584 2315 3537 
Q 2597 3491 2834 3397 
z
" id="DejaVuSans-15b" transform="scale(0.015625)"/>
       <path d="M 3122 3366 
L 3122 2828 
Q 2878 2963 2633 3030 
Q 2388 3097 2138 3097 
Q 1578 3097 1268 2742 
Q 959 2388 959 1747 
Q 959 1106 1268 751 
Q 1578 397 2138 397 
Q 2388 397 2633 464 
Q 2878 531 3122 666 
L 3122 134 
Q 2881 22 2623 -34 
Q 2366 -91 2075 -91 
Q 1284 -91 818 406 
Q 353 903 353 1747 
Q 353 2603 823 3093 
Q 1294 3584 2113 3584 
Q 2378 3584 2631 3529 
Q 2884 3475 3122 3366 
z
M 2466 5119 
L 3088 5119 
L 2070 3944 
L 1591 3944 
L 2466 5119 
z
" id="DejaVuSans-107" transform="scale(0.015625)"/>
       <path d="M 2375 4863 
L 2375 4384 
L 1825 4384 
Q 1516 4384 1395 4259 
Q 1275 4134 1275 3809 
L 1275 3500 
L 2222 3500 
L 2222 3053 
L 1275 3053 
L 1275 0 
L 697 0 
L 697 3053 
L 147 3053 
L 147 3500 
L 697 3500 
L 697 3744 
Q 697 4328 969 4595 
Q 1241 4863 1831 4863 
L 2375 4863 
z
" id="DejaVuSans-66" transform="scale(0.015625)"/>
       <path d="M 581 4863 
L 1159 4863 
L 1159 1991 
L 2875 3500 
L 3609 3500 
L 1753 1863 
L 3688 0 
L 2938 0 
L 1159 1709 
L 1159 0 
L 581 0 
L 581 4863 
z
" id="DejaVuSans-6b" transform="scale(0.015625)"/>
       <path d="M 2906 1791 
Q 2906 2416 2648 2759 
Q 2391 3103 1925 3103 
Q 1463 3103 1205 2759 
Q 947 2416 947 1791 
Q 947 1169 1205 825 
Q 1463 481 1925 481 
Q 2391 481 2648 825 
Q 2906 1169 2906 1791 
z
M 3481 434 
Q 3481 -459 3084 -895 
Q 2688 -1331 1869 -1331 
Q 1566 -1331 1297 -1286 
Q 1028 -1241 775 -1147 
L 775 -588 
Q 1028 -725 1275 -790 
Q 1522 -856 1778 -856 
Q 2344 -856 2625 -561 
Q 2906 -266 2906 331 
L 2906 616 
Q 2728 306 2450 153 
Q 2172 0 1784 0 
Q 1141 0 747 490 
Q 353 981 353 1791 
Q 353 2603 747 3093 
Q 1141 3584 1784 3584 
Q 2172 3584 2450 3431 
Q 2728 3278 2906 2969 
L 2906 3500 
L 3481 3500 
L 3481 434 
z
" id="DejaVuSans-67" transform="scale(0.015625)"/>
       <path d="M 2059 -325 
Q 1816 -950 1584 -1140 
Q 1353 -1331 966 -1331 
L 506 -1331 
L 506 -850 
L 844 -850 
Q 1081 -850 1212 -737 
Q 1344 -625 1503 -206 
L 1606 56 
L 191 3500 
L 800 3500 
L 1894 763 
L 2988 3500 
L 3597 3500 
L 2059 -325 
z
" id="DejaVuSans-79" transform="scale(0.015625)"/>
      </defs>
      <use xlink:href="#DejaVuSans-77"/>
      <use x="81.787109" xlink:href="#DejaVuSans-61"/>
      <use x="143.066406" xlink:href="#DejaVuSans-72"/>
      <use x="184.179688" xlink:href="#DejaVuSans-74"/>
      <use x="223.388672" xlink:href="#DejaVuSans-6f"/>
      <use x="284.570312" xlink:href="#DejaVuSans-15b"/>
      <use x="336.669922" xlink:href="#DejaVuSans-107"/>
      <use x="391.650391" xlink:href="#DejaVuSans-20"/>
      <use x="423.4375" xlink:href="#DejaVuSans-66"/>
      <use x="458.642578" xlink:href="#DejaVuSans-75"/>
      <use x="522.021484" xlink:href="#DejaVuSans-6e"/>
      <use x="585.400391" xlink:href="#DejaVuSans-6b"/>
      <use x="643.310547" xlink:href="#DejaVuSans-63"/>
      <use x="698.291016" xlink:href="#DejaVuSans-6a"/>
      <use x="726.074219" xlink:href="#DejaVuSans-69"/>
      <use x="753.857422" xlink:href="#DejaVuSans-20"/>
      <use x="785.644531" xlink:href="#DejaVuSans-6e"/>
      <use x="849.023438" xlink:href="#DejaVuSans-61"/>
      <use x="910.302734" xlink:href="#DejaVuSans-67"/>
      <use x="973.779297" xlink:href="#DejaVuSans-72"/>
      <use x="1012.642578" xlink:href="#DejaVuSans-6f"/>
      <use x="1073.824219" xlink:href="#DejaVuSans-64"/>
      <use x="1137.300781" xlink:href="#DejaVuSans-79"/>
     </g>
    </g>
   </g>
   <g id="line2d_13">
    <path clip-path="url(#p793a01cbf2)" d="M 115.363636 419.898961 
L 115.769617 419.909555 
L 116.784568 419.545868 
L 117.79952 419.431363 
L 118.814471 419.541433 
L 119.220452 419.731908 
L 119.423442 420.12722 
L 119.626432 420.239044 
L 121.250355 420.16658 
L 122.874277 420.285052 
L 123.280258 420.393671 
L 123.483248 420.563246 
L 141.752374 421.972849 
L 141.955364 421.788355 
L 142.767325 421.979043 
L 145.203209 422.216308 
L 145.812179 422.184484 
L 146.21816 421.326962 
L 146.624141 421.622362 
L 147.639092 421.899289 
L 148.857034 422.040837 
L 149.060024 422.016724 
L 149.871985 422.394707 
L 151.901888 422.67342 
L 154.134781 422.803238 
L 154.743752 422.705966 
L 154.946742 422.595431 
L 155.149733 422.247307 
L 155.758703 423.190801 
L 159.412529 423.27823 
L 160.0215 423.320799 
L 160.42748 423.095488 
L 161.645422 423.008965 
L 163.269344 423.100833 
L 163.878315 423.322936 
L 164.081305 422.771157 
L 164.284296 421.701148 
L 164.690276 421.335392 
L 165.502237 421.005411 
L 166.517189 420.843756 
L 167.32915 420.929112 
L 167.73513 421.14783 
L 167.938121 421.42407 
L 168.141111 338.397586 
L 168.344101 134.164401 
L 168.750082 128.505104 
L 169.359053 124.584751 
L 169.968024 122.248372 
L 170.374004 121.255768 
L 170.779985 120.719764 
L 170.982975 120.65966 
L 171.185965 120.78156 
L 171.388956 121.148987 
L 171.591946 121.883667 
L 171.794936 123.263964 
L 171.997926 126.223629 
L 172.403907 179.523832 
L 172.809888 172.511517 
L 173.418858 167.746124 
L 174.027829 164.865529 
L 174.43381 163.619872 
L 174.83979 162.921406 
L 175.042781 162.819384 
L 175.245771 162.931001 
L 175.448761 163.32672 
L 175.651752 164.139358 
L 175.854742 165.664161 
L 176.057732 168.826071 
L 176.463713 194.831427 
L 176.869693 185.288202 
L 177.478664 179.094418 
L 178.087635 175.294125 
L 178.696606 173.002021 
L 179.102586 172.412337 
L 179.305577 172.506227 
L 179.508567 106.354995 
L 179.711557 107.592321 
L 179.914548 109.935629 
L 180.117538 114.651325 
L 180.320528 131.134596 
L 180.523518 135.438234 
L 180.929499 115.855202 
L 181.53847 104.237978 
L 182.147441 97.06278 
L 182.756412 92.432063 
L 183.162392 90.83722 
L 183.365383 90.722212 
L 184.177344 90.774501 
L 184.989305 90.544435 
L 185.598276 90.17827 
L 186.004256 89.769274 
L 186.207247 89.449517 
L 186.410237 88.887273 
L 186.816217 100.442618 
L 187.222198 101.031155 
L 187.628179 101.201761 
L 188.237149 101.220674 
L 189.049111 100.991109 
L 189.658081 100.625601 
L 190.064062 100.217596 
L 190.267052 99.899023 
L 190.470043 99.343813 
L 190.876023 111.570395 
L 191.282004 112.151832 
L 191.890975 112.349555 
L 192.702936 112.25954 
L 193.514897 111.899679 
L 194.123868 111.356872 
L 194.326858 111.044526 
L 194.529848 110.500306 
L 194.935829 123.161818 
L 195.341809 123.73481 
L 195.95078 123.930186 
L 196.762741 123.842833 
L 197.574703 123.490392 
L 198.183673 122.958042 
L 198.386664 122.651549 
L 198.589654 122.118192 
L 198.995635 135.264868 
L 199.401615 135.828025 
L 200.010586 136.020486 
L 200.822547 135.936213 
L 201.634508 135.592181 
L 202.243479 135.071802 
L 202.446469 134.7723 
L 202.64946 134.251325 
L 203.05544 147.706974 
L 203.461421 148.259486 
L 204.070392 148.449006 
L 204.882353 148.36845 
L 205.694314 148.035162 
L 206.303285 147.52975 
L 206.506275 147.23837 
L 206.709266 146.731209 
L 207.115246 159.807541 
L 207.521227 160.345813 
L 208.130198 160.531288 
L 208.942159 160.453961 
L 209.75412 160.129378 
L 210.363091 159.636329 
L 210.566081 159.352352 
L 210.769071 158.858441 
L 211.175052 171.920062 
L 211.581032 172.446129 
L 212.190003 172.628252 
L 213.001964 172.554091 
L 213.813926 172.23826 
L 214.422896 171.757464 
L 214.625887 171.480023 
L 214.828877 170.997573 
L 215.234858 184.983467 
L 215.640838 185.49937 
L 216.249809 185.678546 
L 217.06177 185.607988 
L 217.873731 185.302011 
L 218.482702 184.835154 
L 218.685692 184.565017 
L 218.888683 184.094799 
L 219.294663 199.636564 
L 219.700644 200.142067 
L 220.309615 200.318351 
L 221.121576 200.251255 
L 221.933537 199.954528 
L 222.542508 199.500662 
L 222.745498 199.238546 
L 222.948488 198.783611 
L 223.354469 215.281457 
L 223.76045 215.772036 
L 224.36942 215.944125 
L 225.181382 215.881669 
L 225.993343 215.597591 
L 226.602314 215.161515 
L 226.805304 214.909278 
L 227.008294 214.471266 
L 227.414275 232.000994 
L 227.820255 232.474948 
L 228.429226 232.642498 
L 229.241187 232.584937 
L 230.053149 232.314248 
L 230.662119 231.896824 
L 230.86511 231.655155 
L 231.0681 231.235827 
L 231.474081 249.812755 
L 231.880061 250.267301 
L 232.489032 250.429486 
L 233.300993 250.37769 
L 234.112954 250.12268 
L 234.721925 249.727213 
L 234.924915 249.49778 
L 235.127906 249.099344 
L 235.533886 268.753302 
L 235.939867 269.185988 
L 236.548838 269.342252 
L 237.360799 269.296764 
L 238.17276 269.059039 
L 238.781731 268.687578 
L 239.187711 268.096302 
L 239.593692 288.876841 
L 239.999673 289.28417 
L 240.608643 289.433518 
L 241.420605 289.39535 
L 242.232566 289.177503 
L 242.841537 288.83377 
L 243.247517 288.284128 
L 243.653498 310.243757 
L 244.059478 310.621977 
L 244.668449 310.763495 
L 245.683401 310.700726 
L 246.495362 310.45765 
L 247.104333 310.043154 
L 247.307323 309.723934 
L 247.713304 332.652305 
L 248.119284 332.996302 
L 248.728255 333.12859 
L 249.743206 333.080465 
L 250.555168 332.868454 
L 251.164138 332.500863 
L 251.367129 332.215827 
L 251.773109 356.239331 
L 252.17909 356.542647 
L 252.991051 356.67511 
L 254.006002 356.603722 
L 254.817964 356.383837 
L 255.223944 356.146994 
L 255.426934 355.90257 
L 255.832915 379.261202 
L 256.238896 379.516773 
L 257.050857 379.637457 
L 258.268798 379.564918 
L 259.08076 379.346228 
L 259.48674 379.036711 
L 259.892721 402.112182 
L 260.298701 402.307579 
L 261.313653 402.421096 
L 262.734585 402.363315 
L 263.343556 402.22384 
L 263.546546 402.098339 
L 263.952526 403.780218 
L 264.561497 403.976094 
L 265.779439 404.049303 
L 267.200371 403.919846 
L 267.606352 403.735185 
L 268.012332 405.409374 
L 268.621303 405.601381 
L 270.042235 405.673215 
L 271.260177 405.554463 
L 271.666157 405.377081 
L 272.072138 406.96646 
L 272.681109 407.153295 
L 274.102041 407.226265 
L 275.319983 407.113526 
L 275.725963 406.942295 
L 276.131944 408.520318 
L 276.740915 408.703278 
L 278.161847 408.777305 
L 279.379788 408.669745 
L 279.785769 408.503845 
L 280.191749 410.142602 
L 280.80072 410.32251 
L 282.221652 410.397943 
L 283.439594 410.297133 
L 283.845575 410.138082 
L 284.251555 411.75844 
L 284.454545 411.848833 
L 284.657536 450.32324 
L 285.063516 450.333835 
L 286.078468 449.970148 
L 287.093419 449.855643 
L 288.108371 449.965713 
L 288.514351 450.156187 
L 288.717341 450.5515 
L 288.920332 450.663324 
L 290.544254 450.59086 
L 292.168176 450.709331 
L 292.574157 450.817951 
L 292.777147 450.987526 
L 311.046273 452.397129 
L 311.249263 452.212635 
L 312.061224 452.403323 
L 314.497108 452.640588 
L 315.106079 452.608764 
L 315.512059 451.751241 
L 315.91804 452.046642 
L 316.932991 452.323569 
L 318.150933 452.465117 
L 318.353923 452.441004 
L 319.165885 452.818987 
L 321.195787 453.0977 
L 323.428681 453.227518 
L 324.037651 453.130246 
L 324.240642 453.01971 
L 324.443632 452.671587 
L 325.052603 453.615081 
L 328.706428 453.70251 
L 329.315399 453.745079 
L 329.721379 453.519767 
L 330.939321 453.433245 
L 332.563243 453.525113 
L 333.172214 453.747216 
L 333.375205 453.195437 
L 333.578195 452.125428 
L 333.984175 451.759671 
L 334.796137 451.429691 
L 335.811088 451.268036 
L 336.623049 451.353391 
L 337.02903 451.57211 
L 337.23202 451.84835 
L 337.43501 368.821866 
L 337.638001 164.58868 
L 338.043981 158.929384 
L 338.652952 155.009031 
L 339.261923 152.672652 
L 339.667904 151.680048 
L 340.073884 151.144044 
L 340.276874 151.08394 
L 340.479865 151.20584 
L 340.682855 151.573267 
L 340.885845 152.307947 
L 341.088836 153.688244 
L 341.291826 156.647909 
L 341.697806 209.948112 
L 342.103787 202.935797 
L 342.712758 198.170403 
L 343.321729 195.289809 
L 343.727709 194.044152 
L 344.13369 193.345686 
L 344.33668 193.243664 
L 344.53967 193.355281 
L 344.742661 193.750999 
L 344.945651 194.563638 
L 345.148641 196.088441 
L 345.351632 199.250351 
L 345.757612 225.255706 
L 346.163593 215.712482 
L 346.772564 209.518698 
L 347.381534 205.718405 
L 347.990505 203.426301 
L 348.396486 202.836617 
L 348.599476 202.930507 
L 348.802466 136.779274 
L 349.005457 138.016601 
L 349.208447 140.359909 
L 349.411437 145.075604 
L 349.614428 161.558876 
L 349.817418 165.862514 
L 350.223398 146.279482 
L 350.832369 134.662258 
L 351.44134 127.48706 
L 352.050311 122.856343 
L 352.456292 121.2615 
L 352.659282 121.146492 
L 353.471243 121.198781 
L 354.283204 120.968715 
L 354.892175 120.60255 
L 355.298156 120.193554 
L 355.501146 119.873797 
L 355.704136 119.311553 
L 356.110117 130.866898 
L 356.516097 131.455435 
L 356.922078 131.626041 
L 357.531049 131.644953 
L 358.34301 131.415389 
L 358.951981 131.049881 
L 359.357961 130.641876 
L 359.560952 130.323302 
L 359.763942 129.768093 
L 360.169923 141.994675 
L 360.575903 142.576112 
L 361.184874 142.773835 
L 361.996835 142.68382 
L 362.808796 142.323958 
L 363.417767 141.781152 
L 363.620757 141.468806 
L 363.823748 140.924586 
L 364.229728 153.586098 
L 364.635709 154.15909 
L 365.24468 154.354466 
L 366.056641 154.267113 
L 366.868602 153.914672 
L 367.477573 153.382322 
L 367.680563 153.075829 
L 367.883553 152.542472 
L 368.289534 165.689147 
L 368.695515 166.252305 
L 369.304485 166.444765 
L 370.116447 166.360493 
L 370.928408 166.016461 
L 371.537379 165.496082 
L 371.740369 165.19658 
L 371.943359 164.675605 
L 372.34934 178.131254 
L 372.75532 178.683766 
L 373.364291 178.873286 
L 374.176252 178.79273 
L 374.988213 178.459441 
L 375.597184 177.95403 
L 375.800175 177.66265 
L 376.003165 177.155489 
L 376.409145 190.231821 
L 376.815126 190.770093 
L 377.424097 190.955568 
L 378.236058 190.878241 
L 379.048019 190.553658 
L 379.65699 190.060609 
L 379.85998 189.776632 
L 380.062971 189.28272 
L 380.468951 202.344342 
L 380.874932 202.870409 
L 381.483903 203.052531 
L 382.295864 202.978371 
L 383.107825 202.66254 
L 383.716796 202.181744 
L 383.919786 201.904303 
L 384.122776 201.421853 
L 384.528757 215.407747 
L 384.934738 215.92365 
L 385.543708 216.102826 
L 386.35567 216.032268 
L 387.167631 215.726291 
L 387.776602 215.259434 
L 387.979592 214.989297 
L 388.182582 214.519079 
L 388.588563 230.060844 
L 388.994543 230.566347 
L 389.603514 230.742631 
L 390.415475 230.675535 
L 391.227436 230.378808 
L 391.836407 229.924941 
L 392.039398 229.662826 
L 392.242388 229.207891 
L 392.648368 245.705737 
L 393.054349 246.196315 
L 393.66332 246.368405 
L 394.475281 246.305949 
L 395.287242 246.021871 
L 395.896213 245.585795 
L 396.099203 245.333558 
L 396.302194 244.895545 
L 396.708174 262.425274 
L 397.114155 262.899228 
L 397.723126 263.066778 
L 398.535087 263.009217 
L 399.347048 262.738528 
L 399.956019 262.321104 
L 400.159009 262.079435 
L 400.361999 261.660107 
L 400.76798 280.237035 
L 401.17396 280.69158 
L 401.782931 280.853766 
L 402.594893 280.80197 
L 403.406854 280.54696 
L 404.015825 280.151493 
L 404.218815 279.92206 
L 404.421805 279.523624 
L 404.827786 299.177581 
L 405.233766 299.610268 
L 405.842737 299.766532 
L 406.654698 299.721044 
L 407.466659 299.483319 
L 408.07563 299.111858 
L 408.481611 298.520582 
L 408.887591 319.301121 
L 409.293572 319.70845 
L 409.902543 319.857798 
L 410.714504 319.81963 
L 411.526465 319.601783 
L 412.135436 319.25805 
L 412.541417 318.708408 
L 412.947397 340.668037 
L 413.353378 341.046257 
L 413.962349 341.187774 
L 414.9773 341.125006 
L 415.789261 340.88193 
L 416.398232 340.467434 
L 416.601222 340.148214 
L 417.007203 363.076585 
L 417.413183 363.420582 
L 418.022154 363.55287 
L 419.037106 363.504745 
L 419.849067 363.292734 
L 420.458038 362.925142 
L 420.661028 362.640106 
L 421.067009 386.663611 
L 421.472989 386.966927 
L 422.28495 387.09939 
L 423.299902 387.028002 
L 424.111863 386.808116 
L 424.517844 386.571274 
L 424.720834 386.32685 
L 425.126814 409.685482 
L 425.532795 409.941053 
L 426.344756 410.061737 
L 427.562698 409.989198 
L 428.374659 409.770508 
L 428.78064 409.460991 
L 429.18662 432.536461 
L 429.592601 432.731859 
L 430.607552 432.845376 
L 432.028484 432.787594 
L 432.637455 432.64812 
L 432.840445 432.522618 
L 433.246426 434.204497 
L 433.855397 434.400374 
L 435.073338 434.473583 
L 436.49427 434.344126 
L 436.900251 434.159465 
L 437.306232 435.833653 
L 437.915202 436.025661 
L 439.336134 436.097495 
L 440.554076 435.978743 
L 440.960057 435.80136 
L 441.366037 437.39074 
L 441.975008 437.577575 
L 443.39594 437.650545 
L 444.613882 437.537806 
L 445.019862 437.366575 
L 445.425843 438.944598 
L 446.034814 439.127558 
L 447.455746 439.201585 
L 448.673688 439.094025 
L 449.079668 438.928125 
L 449.485649 440.566882 
L 450.09462 440.74679 
L 451.515552 440.822222 
L 452.733493 440.721413 
L 453.139474 440.562362 
L 453.545455 442.18272 
L 453.748445 442.273112 
L 453.951435 480.74752 
L 454.357416 480.758115 
L 455.372367 480.394428 
L 456.387319 480.279923 
L 457.40227 480.389993 
L 457.808251 480.580467 
L 458.011241 480.97578 
L 458.214231 481.087603 
L 459.838153 481.015139 
L 461.462076 481.133611 
L 461.868056 481.242231 
L 462.071047 481.411806 
L 480.340172 482.821408 
L 480.543163 482.636915 
L 481.355124 482.827603 
L 483.791007 483.064868 
L 484.399978 483.033044 
L 484.805959 482.175521 
L 485.211939 482.470921 
L 486.226891 482.747849 
L 487.444832 482.889397 
L 487.647823 482.865284 
L 488.459784 483.243267 
L 490.489687 483.52198 
L 492.72258 483.651798 
L 493.331551 483.554526 
L 493.534541 483.44399 
L 493.737531 483.095866 
L 494.346502 484.039361 
L 498.000327 484.126789 
L 498.609298 484.169358 
L 499.015279 483.944047 
L 500.233221 483.857525 
L 501.857143 483.949392 
L 502.466114 484.171495 
L 502.669104 483.619717 
L 502.872094 482.549707 
L 503.278075 482.183951 
L 504.090036 481.853971 
L 505.104987 481.692316 
L 505.916949 481.777671 
L 506.322929 481.99639 
L 506.525919 482.27263 
L 506.72891 399.246146 
L 506.9319 195.01296 
L 507.337881 189.353664 
L 507.946851 185.43331 
L 508.555822 183.096932 
L 508.961803 182.104328 
L 509.367783 181.568323 
L 509.570774 181.50822 
L 509.773764 181.630119 
L 509.976754 181.997547 
L 510.179745 182.732227 
L 510.382735 184.112524 
L 510.585725 187.072189 
L 510.991706 240.372392 
L 511.397686 233.360077 
L 512.006657 228.594683 
L 512.615628 225.714089 
L 513.021609 224.468431 
L 513.427589 223.769966 
L 513.63058 223.667943 
L 513.83357 223.779561 
L 514.03656 224.175279 
L 514.23955 224.987918 
L 514.442541 226.512721 
L 514.645531 229.674631 
L 515.051512 255.679986 
L 515.457492 246.136761 
L 516.066463 239.942978 
L 516.675434 236.142685 
L 517.284405 233.850581 
L 517.690385 233.260897 
L 517.893376 233.354787 
L 518.096366 167.203554 
L 518.299356 168.440881 
L 518.502346 170.784189 
L 518.705337 175.499884 
L 518.908327 191.983156 
L 519.111317 196.286793 
L 519.517298 176.703762 
L 520.126269 165.086538 
L 520.73524 157.91134 
L 521.34421 153.280622 
L 521.750191 151.68578 
L 521.953181 151.570771 
L 522.765142 151.623061 
L 523.577104 151.392995 
L 524.186074 151.02683 
L 524.592055 150.617834 
L 524.795045 150.298077 
L 524.998036 149.735832 
L 525.404016 161.291178 
L 525.809997 161.879714 
L 526.215977 162.050321 
L 526.824948 162.069233 
L 527.636909 161.839669 
L 528.24588 161.474161 
L 528.651861 161.066156 
L 528.854851 160.747582 
L 529.057841 160.192373 
L 529.463822 172.418955 
L 529.869802 173.000392 
L 530.478773 173.198115 
L 531.290734 173.1081 
L 532.102696 172.748238 
L 532.711666 172.205431 
L 532.914657 171.893086 
L 533.117647 171.348866 
L 533.523628 184.010377 
L 533.929608 184.58337 
L 534.538579 184.778745 
L 535.35054 184.691393 
L 536.162501 184.338952 
L 536.771472 183.806602 
L 536.974463 183.500108 
L 537.177453 182.966752 
L 537.583433 196.113427 
L 537.989414 196.676584 
L 538.598385 196.869045 
L 539.410346 196.784773 
L 540.222307 196.44074 
L 540.831278 195.920361 
L 541.034268 195.620859 
L 541.237259 195.099884 
L 541.643239 208.555533 
L 542.04922 209.108046 
L 542.658191 209.297566 
L 543.470152 209.21701 
L 544.282113 208.883721 
L 544.891084 208.37831 
L 545.094074 208.086929 
L 545.297064 207.579768 
L 545.703045 220.656101 
L 546.109025 221.194372 
L 546.717996 221.379848 
L 547.529957 221.302521 
L 548.341919 220.977938 
L 548.950889 220.484889 
L 549.15388 220.200912 
L 549.35687 219.707 
L 549.762851 232.768621 
L 550.168831 233.294689 
L 550.777802 233.476811 
L 551.589763 233.402651 
L 552.401724 233.08682 
L 553.010695 232.606024 
L 553.213685 232.328583 
L 553.416676 231.846133 
L 553.822656 245.832027 
L 554.228637 246.347929 
L 554.837608 246.527106 
L 555.649569 246.456548 
L 556.46153 246.150571 
L 557.070501 245.683714 
L 557.273491 245.413577 
L 557.476482 244.943359 
L 557.882462 260.485124 
L 558.288443 260.990627 
L 558.897414 261.166911 
L 559.709375 261.099814 
L 560.521336 260.803087 
L 561.130307 260.349221 
L 561.333297 260.087105 
L 561.536287 259.632171 
L 561.942268 276.130017 
L 562.348248 276.620595 
L 562.957219 276.792685 
L 563.76918 276.730229 
L 564.581142 276.446151 
L 565.190112 276.010075 
L 565.393103 275.757838 
L 565.596093 275.319825 
L 566.002074 292.849554 
L 566.408054 293.323508 
L 567.017025 293.491058 
L 567.828986 293.433497 
L 568.640947 293.162808 
L 569.249918 292.745384 
L 569.452908 292.503715 
L 569.655899 292.084387 
L 570.061879 310.661315 
L 570.46786 311.11586 
L 571.076831 311.278046 
L 571.888792 311.22625 
L 572.700753 310.971239 
L 573.309724 310.575773 
L 573.512714 310.34634 
L 573.715704 309.947904 
L 574.121685 329.601861 
L 574.527666 330.034548 
L 575.136636 330.190812 
L 575.948598 330.145324 
L 576.760559 329.907599 
L 577.36953 329.536138 
L 577.77551 328.944862 
L 578.181491 349.7254 
L 578.587471 350.132729 
L 579.196442 350.282078 
L 580.008403 350.24391 
L 580.820365 350.026063 
L 581.429335 349.68233 
L 581.835316 349.132688 
L 582.241297 371.092317 
L 582.647277 371.470537 
L 583.256248 371.612054 
L 584.271199 371.549286 
L 585.083161 371.30621 
L 585.692131 370.891713 
L 585.895122 370.572493 
L 586.301102 393.500865 
L 586.707083 393.844862 
L 587.316054 393.977149 
L 588.331005 393.929024 
L 589.142966 393.717014 
L 589.751937 393.349422 
L 589.954927 393.064386 
L 590.360908 417.087891 
L 590.766889 417.391207 
L 591.57885 417.52367 
L 592.593801 417.452282 
L 593.405762 417.232396 
L 593.811743 416.995553 
L 594.014733 416.751129 
L 594.420714 440.109762 
L 594.826694 440.365333 
L 595.638655 440.486017 
L 596.856597 440.413478 
L 597.668558 440.194788 
L 598.074539 439.885271 
L 598.480519 462.960741 
L 598.8865 463.156139 
L 599.901451 463.269656 
L 601.322383 463.211874 
L 601.931354 463.0724 
L 602.134345 462.946898 
L 602.540325 464.628777 
L 603.149296 464.824654 
L 604.367238 464.897863 
L 605.78817 464.768406 
L 606.19415 464.583744 
L 606.600131 466.257933 
L 607.209102 466.449941 
L 608.630034 466.521775 
L 609.847976 466.403023 
L 610.253956 466.22564 
L 610.659937 467.815019 
L 611.268908 468.001855 
L 612.68984 468.074825 
L 613.907781 467.962086 
L 614.313762 467.790855 
L 614.719742 469.368878 
L 615.328713 469.551838 
L 616.749645 469.625865 
L 617.967587 469.518304 
L 618.373568 469.352404 
L 618.779548 470.991162 
L 619.388519 471.17107 
L 620.809451 471.246502 
L 622.027393 471.145693 
L 622.433373 470.986642 
L 622.636364 471.739602 
L 622.636364 471.739602 
" style="fill:none;stroke:#1f77b4;stroke-linecap:square;stroke-width:1.5;"/>
   </g>
   <g id="patch_3">
    <path d="M 90 504 
L 90 69.12 
" style="fill:none;stroke:#000000;stroke-linecap:square;stroke-linejoin:miter;stroke-width:0.8;"/>
   </g>
   <g id="patch_4">
    <path d="M 648 504 
L 648 69.12 
" style="fill:none;stroke:#000000;stroke-linecap:square;stroke-linejoin:miter;stroke-width:0.8;"/>
   </g>
   <g id="patch_5">
    <path d="M 90 504 
L 648 504 
" style="fill:none;stroke:#000000;stroke-linecap:square;stroke-linejoin:miter;stroke-width:0.8;"/>
   </g>
   <g id="patch_6">
    <path d="M 90 69.12 
L 648 69.12 
" style="fill:none;stroke:#000000;stroke-linecap:square;stroke-linejoin:miter;stroke-width:0.8;"/>
   </g>
  </g>
 </g>
 <defs>
  <clipPath id="p793a01cbf2">
   <rect height="434.88" width="558" x="90" y="69.12"/>
  </clipPath>
 </defs>
</svg>
