<?xml version="1.0" encoding="utf-8" standalone="no"?>
<!DOCTYPE svg PUBLIC "-//W3C//DTD SVG 1.1//EN"
  "http://www.w3.org/Graphics/SVG/1.1/DTD/svg11.dtd">
<svg height="576pt" version="1.1" viewBox="0 0 720 576" width="720pt" xmlns="http://www.w3.org/2000/svg" xmlns:xlink="http://www.w3.org/1999/xlink">
 <metadata>
  <rdf:RDF xmlns:cc="http://creativecommons.org/ns#" xmlns:dc="http://purl.org/dc/elements/1.1/" xmlns:rdf="http://www.w3.org/1999/02/22-rdf-syntax-ns#">
   <cc:Work>
    <dc:type rdf:resource="http://purl.org/dc/dcmitype/StillImage"/>
    <dc:date>2022-01-11T09:24:02.043349</dc:date>
    <dc:format>image/svg+xml</dc:format>
    <dc:creator>
     <cc:Agent>
      <dc:title>Matplotlib v3.4.3, https://matplotlib.org/</dc:title>
     </cc:Agent>
    </dc:creator>
   </cc:Work>
  </rdf:RDF>
 </metadata>
 <defs>
  <style type="text/css">*{stroke-linecap:butt;stroke-linejoin:round;}</style>
 </defs>
 <g id="figure_1">
  <g id="patch_1">
   <path d="M 0 576 
L 720 576 
L 720 0 
L 0 0 
z
" style="fill:none;"/>
  </g>
  <g id="axes_1">
   <g id="patch_2">
    <path d="M 90 504 
L 648 504 
L 648 69.12 
L 90 69.12 
z
" style="fill:#ffffff;"/>
   </g>
   <g id="matplotlib.axis_1">
    <g id="xtick_1">
     <g id="line2d_1">
      <defs>
       <path d="M 0 0 
L 0 3.5 
" id="m7bad09bed7" style="stroke:#000000;stroke-width:0.8;"/>
      </defs>
      <g>
       <use style="stroke:#000000;stroke-width:0.8;" x="115.363636" xlink:href="#m7bad09bed7" y="504"/>
      </g>
     </g>
     <g id="text_1">
      <!-- 0 -->
      <g transform="translate(112.182386 518.598438)scale(0.1 -0.1)">
       <defs>
        <path d="M 2034 4250 
Q 1547 4250 1301 3770 
Q 1056 3291 1056 2328 
Q 1056 1369 1301 889 
Q 1547 409 2034 409 
Q 2525 409 2770 889 
Q 3016 1369 3016 2328 
Q 3016 3291 2770 3770 
Q 2525 4250 2034 4250 
z
M 2034 4750 
Q 2819 4750 3233 4129 
Q 3647 3509 3647 2328 
Q 3647 1150 3233 529 
Q 2819 -91 2034 -91 
Q 1250 -91 836 529 
Q 422 1150 422 2328 
Q 422 3509 836 4129 
Q 1250 4750 2034 4750 
z
" id="DejaVuSans-30" transform="scale(0.015625)"/>
       </defs>
       <use xlink:href="#DejaVuSans-30"/>
      </g>
     </g>
    </g>
    <g id="xtick_2">
     <g id="line2d_2">
      <g>
       <use style="stroke:#000000;stroke-width:0.8;" x="216.85878" xlink:href="#m7bad09bed7" y="504"/>
      </g>
     </g>
     <g id="text_2">
      <!-- 500 -->
      <g transform="translate(207.31503 518.598438)scale(0.1 -0.1)">
       <defs>
        <path d="M 691 4666 
L 3169 4666 
L 3169 4134 
L 1269 4134 
L 1269 2991 
Q 1406 3038 1543 3061 
Q 1681 3084 1819 3084 
Q 2600 3084 3056 2656 
Q 3513 2228 3513 1497 
Q 3513 744 3044 326 
Q 2575 -91 1722 -91 
Q 1428 -91 1123 -41 
Q 819 9 494 109 
L 494 744 
Q 775 591 1075 516 
Q 1375 441 1709 441 
Q 2250 441 2565 725 
Q 2881 1009 2881 1497 
Q 2881 1984 2565 2268 
Q 2250 2553 1709 2553 
Q 1456 2553 1204 2497 
Q 953 2441 691 2322 
L 691 4666 
z
" id="DejaVuSans-35" transform="scale(0.015625)"/>
       </defs>
       <use xlink:href="#DejaVuSans-35"/>
       <use x="63.623047" xlink:href="#DejaVuSans-30"/>
       <use x="127.246094" xlink:href="#DejaVuSans-30"/>
      </g>
     </g>
    </g>
    <g id="xtick_3">
     <g id="line2d_3">
      <g>
       <use style="stroke:#000000;stroke-width:0.8;" x="318.353923" xlink:href="#m7bad09bed7" y="504"/>
      </g>
     </g>
     <g id="text_3">
      <!-- 1000 -->
      <g transform="translate(305.628923 518.598438)scale(0.1 -0.1)">
       <defs>
        <path d="M 794 531 
L 1825 531 
L 1825 4091 
L 703 3866 
L 703 4441 
L 1819 4666 
L 2450 4666 
L 2450 531 
L 3481 531 
L 3481 0 
L 794 0 
L 794 531 
z
" id="DejaVuSans-31" transform="scale(0.015625)"/>
       </defs>
       <use xlink:href="#DejaVuSans-31"/>
       <use x="63.623047" xlink:href="#DejaVuSans-30"/>
       <use x="127.246094" xlink:href="#DejaVuSans-30"/>
       <use x="190.869141" xlink:href="#DejaVuSans-30"/>
      </g>
     </g>
    </g>
    <g id="xtick_4">
     <g id="line2d_4">
      <g>
       <use style="stroke:#000000;stroke-width:0.8;" x="419.849067" xlink:href="#m7bad09bed7" y="504"/>
      </g>
     </g>
     <g id="text_4">
      <!-- 1500 -->
      <g transform="translate(407.124067 518.598438)scale(0.1 -0.1)">
       <use xlink:href="#DejaVuSans-31"/>
       <use x="63.623047" xlink:href="#DejaVuSans-35"/>
       <use x="127.246094" xlink:href="#DejaVuSans-30"/>
       <use x="190.869141" xlink:href="#DejaVuSans-30"/>
      </g>
     </g>
    </g>
    <g id="xtick_5">
     <g id="line2d_5">
      <g>
       <use style="stroke:#000000;stroke-width:0.8;" x="521.34421" xlink:href="#m7bad09bed7" y="504"/>
      </g>
     </g>
     <g id="text_5">
      <!-- 2000 -->
      <g transform="translate(508.61921 518.598438)scale(0.1 -0.1)">
       <defs>
        <path d="M 1228 531 
L 3431 531 
L 3431 0 
L 469 0 
L 469 531 
Q 828 903 1448 1529 
Q 2069 2156 2228 2338 
Q 2531 2678 2651 2914 
Q 2772 3150 2772 3378 
Q 2772 3750 2511 3984 
Q 2250 4219 1831 4219 
Q 1534 4219 1204 4116 
Q 875 4013 500 3803 
L 500 4441 
Q 881 4594 1212 4672 
Q 1544 4750 1819 4750 
Q 2544 4750 2975 4387 
Q 3406 4025 3406 3419 
Q 3406 3131 3298 2873 
Q 3191 2616 2906 2266 
Q 2828 2175 2409 1742 
Q 1991 1309 1228 531 
z
" id="DejaVuSans-32" transform="scale(0.015625)"/>
       </defs>
       <use xlink:href="#DejaVuSans-32"/>
       <use x="63.623047" xlink:href="#DejaVuSans-30"/>
       <use x="127.246094" xlink:href="#DejaVuSans-30"/>
       <use x="190.869141" xlink:href="#DejaVuSans-30"/>
      </g>
     </g>
    </g>
    <g id="xtick_6">
     <g id="line2d_6">
      <g>
       <use style="stroke:#000000;stroke-width:0.8;" x="622.839354" xlink:href="#m7bad09bed7" y="504"/>
      </g>
     </g>
     <g id="text_6">
      <!-- 2500 -->
      <g transform="translate(610.114354 518.598438)scale(0.1 -0.1)">
       <use xlink:href="#DejaVuSans-32"/>
       <use x="63.623047" xlink:href="#DejaVuSans-35"/>
       <use x="127.246094" xlink:href="#DejaVuSans-30"/>
       <use x="190.869141" xlink:href="#DejaVuSans-30"/>
      </g>
     </g>
    </g>
   </g>
   <g id="matplotlib.axis_2">
    <g id="ytick_1">
     <g id="line2d_7">
      <defs>
       <path d="M 0 0 
L -3.5 0 
" id="m2899e82c42" style="stroke:#000000;stroke-width:0.8;"/>
      </defs>
      <g>
       <use style="stroke:#000000;stroke-width:0.8;" x="90" xlink:href="#m2899e82c42" y="463.993552"/>
      </g>
     </g>
     <g id="text_7">
      <!-- −70000 -->
      <g transform="translate(42.807812 467.79277)scale(0.1 -0.1)">
       <defs>
        <path d="M 678 2272 
L 4684 2272 
L 4684 1741 
L 678 1741 
L 678 2272 
z
" id="DejaVuSans-2212" transform="scale(0.015625)"/>
        <path d="M 525 4666 
L 3525 4666 
L 3525 4397 
L 1831 0 
L 1172 0 
L 2766 4134 
L 525 4134 
L 525 4666 
z
" id="DejaVuSans-37" transform="scale(0.015625)"/>
       </defs>
       <use xlink:href="#DejaVuSans-2212"/>
       <use x="83.789062" xlink:href="#DejaVuSans-37"/>
       <use x="147.412109" xlink:href="#DejaVuSans-30"/>
       <use x="211.035156" xlink:href="#DejaVuSans-30"/>
       <use x="274.658203" xlink:href="#DejaVuSans-30"/>
       <use x="338.28125" xlink:href="#DejaVuSans-30"/>
      </g>
     </g>
    </g>
    <g id="ytick_2">
     <g id="line2d_8">
      <g>
       <use style="stroke:#000000;stroke-width:0.8;" x="90" xlink:href="#m2899e82c42" y="410.603792"/>
      </g>
     </g>
     <g id="text_8">
      <!-- −60000 -->
      <g transform="translate(42.807812 414.403011)scale(0.1 -0.1)">
       <defs>
        <path d="M 2113 2584 
Q 1688 2584 1439 2293 
Q 1191 2003 1191 1497 
Q 1191 994 1439 701 
Q 1688 409 2113 409 
Q 2538 409 2786 701 
Q 3034 994 3034 1497 
Q 3034 2003 2786 2293 
Q 2538 2584 2113 2584 
z
M 3366 4563 
L 3366 3988 
Q 3128 4100 2886 4159 
Q 2644 4219 2406 4219 
Q 1781 4219 1451 3797 
Q 1122 3375 1075 2522 
Q 1259 2794 1537 2939 
Q 1816 3084 2150 3084 
Q 2853 3084 3261 2657 
Q 3669 2231 3669 1497 
Q 3669 778 3244 343 
Q 2819 -91 2113 -91 
Q 1303 -91 875 529 
Q 447 1150 447 2328 
Q 447 3434 972 4092 
Q 1497 4750 2381 4750 
Q 2619 4750 2861 4703 
Q 3103 4656 3366 4563 
z
" id="DejaVuSans-36" transform="scale(0.015625)"/>
       </defs>
       <use xlink:href="#DejaVuSans-2212"/>
       <use x="83.789062" xlink:href="#DejaVuSans-36"/>
       <use x="147.412109" xlink:href="#DejaVuSans-30"/>
       <use x="211.035156" xlink:href="#DejaVuSans-30"/>
       <use x="274.658203" xlink:href="#DejaVuSans-30"/>
       <use x="338.28125" xlink:href="#DejaVuSans-30"/>
      </g>
     </g>
    </g>
    <g id="ytick_3">
     <g id="line2d_9">
      <g>
       <use style="stroke:#000000;stroke-width:0.8;" x="90" xlink:href="#m2899e82c42" y="357.214032"/>
      </g>
     </g>
     <g id="text_9">
      <!-- −50000 -->
      <g transform="translate(42.807812 361.013251)scale(0.1 -0.1)">
       <use xlink:href="#DejaVuSans-2212"/>
       <use x="83.789062" xlink:href="#DejaVuSans-35"/>
       <use x="147.412109" xlink:href="#DejaVuSans-30"/>
       <use x="211.035156" xlink:href="#DejaVuSans-30"/>
       <use x="274.658203" xlink:href="#DejaVuSans-30"/>
       <use x="338.28125" xlink:href="#DejaVuSans-30"/>
      </g>
     </g>
    </g>
    <g id="ytick_4">
     <g id="line2d_10">
      <g>
       <use style="stroke:#000000;stroke-width:0.8;" x="90" xlink:href="#m2899e82c42" y="303.824272"/>
      </g>
     </g>
     <g id="text_10">
      <!-- −40000 -->
      <g transform="translate(42.807812 307.623491)scale(0.1 -0.1)">
       <defs>
        <path d="M 2419 4116 
L 825 1625 
L 2419 1625 
L 2419 4116 
z
M 2253 4666 
L 3047 4666 
L 3047 1625 
L 3713 1625 
L 3713 1100 
L 3047 1100 
L 3047 0 
L 2419 0 
L 2419 1100 
L 313 1100 
L 313 1709 
L 2253 4666 
z
" id="DejaVuSans-34" transform="scale(0.015625)"/>
       </defs>
       <use xlink:href="#DejaVuSans-2212"/>
       <use x="83.789062" xlink:href="#DejaVuSans-34"/>
       <use x="147.412109" xlink:href="#DejaVuSans-30"/>
       <use x="211.035156" xlink:href="#DejaVuSans-30"/>
       <use x="274.658203" xlink:href="#DejaVuSans-30"/>
       <use x="338.28125" xlink:href="#DejaVuSans-30"/>
      </g>
     </g>
    </g>
    <g id="ytick_5">
     <g id="line2d_11">
      <g>
       <use style="stroke:#000000;stroke-width:0.8;" x="90" xlink:href="#m2899e82c42" y="250.434512"/>
      </g>
     </g>
     <g id="text_11">
      <!-- −30000 -->
      <g transform="translate(42.807812 254.233731)scale(0.1 -0.1)">
       <defs>
        <path d="M 2597 2516 
Q 3050 2419 3304 2112 
Q 3559 1806 3559 1356 
Q 3559 666 3084 287 
Q 2609 -91 1734 -91 
Q 1441 -91 1130 -33 
Q 819 25 488 141 
L 488 750 
Q 750 597 1062 519 
Q 1375 441 1716 441 
Q 2309 441 2620 675 
Q 2931 909 2931 1356 
Q 2931 1769 2642 2001 
Q 2353 2234 1838 2234 
L 1294 2234 
L 1294 2753 
L 1863 2753 
Q 2328 2753 2575 2939 
Q 2822 3125 2822 3475 
Q 2822 3834 2567 4026 
Q 2313 4219 1838 4219 
Q 1578 4219 1281 4162 
Q 984 4106 628 3988 
L 628 4550 
Q 988 4650 1302 4700 
Q 1616 4750 1894 4750 
Q 2613 4750 3031 4423 
Q 3450 4097 3450 3541 
Q 3450 3153 3228 2886 
Q 3006 2619 2597 2516 
z
" id="DejaVuSans-33" transform="scale(0.015625)"/>
       </defs>
       <use xlink:href="#DejaVuSans-2212"/>
       <use x="83.789062" xlink:href="#DejaVuSans-33"/>
       <use x="147.412109" xlink:href="#DejaVuSans-30"/>
       <use x="211.035156" xlink:href="#DejaVuSans-30"/>
       <use x="274.658203" xlink:href="#DejaVuSans-30"/>
       <use x="338.28125" xlink:href="#DejaVuSans-30"/>
      </g>
     </g>
    </g>
    <g id="ytick_6">
     <g id="line2d_12">
      <g>
       <use style="stroke:#000000;stroke-width:0.8;" x="90" xlink:href="#m2899e82c42" y="197.044752"/>
      </g>
     </g>
     <g id="text_12">
      <!-- −20000 -->
      <g transform="translate(42.807812 200.843971)scale(0.1 -0.1)">
       <use xlink:href="#DejaVuSans-2212"/>
       <use x="83.789062" xlink:href="#DejaVuSans-32"/>
       <use x="147.412109" xlink:href="#DejaVuSans-30"/>
       <use x="211.035156" xlink:href="#DejaVuSans-30"/>
       <use x="274.658203" xlink:href="#DejaVuSans-30"/>
       <use x="338.28125" xlink:href="#DejaVuSans-30"/>
      </g>
     </g>
    </g>
    <g id="ytick_7">
     <g id="line2d_13">
      <g>
       <use style="stroke:#000000;stroke-width:0.8;" x="90" xlink:href="#m2899e82c42" y="143.654992"/>
      </g>
     </g>
     <g id="text_13">
      <!-- −10000 -->
      <g transform="translate(42.807812 147.454211)scale(0.1 -0.1)">
       <use xlink:href="#DejaVuSans-2212"/>
       <use x="83.789062" xlink:href="#DejaVuSans-31"/>
       <use x="147.412109" xlink:href="#DejaVuSans-30"/>
       <use x="211.035156" xlink:href="#DejaVuSans-30"/>
       <use x="274.658203" xlink:href="#DejaVuSans-30"/>
       <use x="338.28125" xlink:href="#DejaVuSans-30"/>
      </g>
     </g>
    </g>
    <g id="ytick_8">
     <g id="line2d_14">
      <g>
       <use style="stroke:#000000;stroke-width:0.8;" x="90" xlink:href="#m2899e82c42" y="90.265232"/>
      </g>
     </g>
     <g id="text_14">
      <!-- 0 -->
      <g transform="translate(76.6375 94.064451)scale(0.1 -0.1)">
       <use xlink:href="#DejaVuSans-30"/>
      </g>
     </g>
    </g>
   </g>
   <g id="line2d_15">
    <path clip-path="url(#p4bcf45b3a0)" d="M 115.363636 90.27591 
L 115.566627 91.882942 
L 117.190549 91.847872 
L 117.79952 91.676345 
L 118.00251 91.537422 
L 118.2055 91.222032 
L 118.408491 91.597443 
L 119.626432 91.045727 
L 120.844374 90.253162 
L 122.468296 88.887273 
L 122.671287 97.408782 
L 124.295209 97.373712 
L 124.90418 97.202185 
L 125.10717 97.063262 
L 125.31016 96.747872 
L 125.513151 97.123283 
L 126.731092 96.571567 
L 127.949034 95.779002 
L 129.572956 94.413113 
L 129.775947 102.934622 
L 131.399869 102.899552 
L 132.00884 102.728025 
L 132.21183 102.589102 
L 132.41482 102.273712 
L 132.617811 102.649123 
L 133.835752 102.097407 
L 135.053694 101.304842 
L 136.677617 99.938953 
L 136.880607 108.460463 
L 138.504529 108.425392 
L 139.1135 108.253865 
L 139.31649 108.114942 
L 139.519481 107.799552 
L 139.722471 108.174963 
L 140.940413 107.623247 
L 142.158354 106.830682 
L 143.782277 105.464793 
L 143.985267 113.986303 
L 145.609189 113.951233 
L 146.21816 113.779705 
L 146.42115 113.640782 
L 146.624141 113.325392 
L 146.827131 113.700804 
L 148.045073 113.149087 
L 149.263014 112.356522 
L 150.886937 110.990633 
L 151.089927 119.512143 
L 152.713849 119.477073 
L 153.32282 119.305545 
L 153.52581 119.166622 
L 153.728801 118.851233 
L 153.931791 119.226644 
L 155.149733 118.674927 
L 156.367674 117.882362 
L 157.991597 116.516473 
L 158.194587 125.037983 
L 159.818509 125.002913 
L 160.42748 124.831386 
L 160.63047 124.692463 
L 160.833461 124.377073 
L 161.036451 124.752484 
L 162.254393 124.200767 
L 163.472334 123.408202 
L 165.096257 122.042314 
L 165.299247 130.563823 
L 166.923169 130.528753 
L 167.53214 130.357226 
L 167.73513 130.218303 
L 167.938121 129.902913 
L 168.141111 130.278324 
L 169.359053 129.726608 
L 170.576994 128.934043 
L 172.200917 127.568154 
L 172.403907 136.089663 
L 174.027829 136.054593 
L 174.6368 135.883066 
L 174.83979 135.744143 
L 175.042781 135.428753 
L 175.245771 135.804164 
L 176.463713 135.252448 
L 177.681654 134.459883 
L 179.305577 133.093994 
L 179.508567 141.615503 
L 181.132489 141.580433 
L 181.74146 141.408906 
L 181.944451 141.269983 
L 182.147441 140.954593 
L 182.350431 141.330004 
L 183.568373 140.778288 
L 184.786315 139.985723 
L 186.410237 138.619834 
L 186.613227 147.141344 
L 188.237149 147.106274 
L 188.84612 146.934746 
L 189.049111 146.795823 
L 189.252101 146.480433 
L 189.455091 146.855845 
L 190.673033 146.304128 
L 191.890975 145.511563 
L 193.514897 144.145674 
L 193.717887 152.667184 
L 195.341809 152.632114 
L 195.95078 152.460586 
L 196.153771 152.321663 
L 196.356761 152.006274 
L 196.559751 152.381685 
L 197.777693 151.829968 
L 198.995635 151.037403 
L 200.619557 149.671514 
L 200.822547 158.193024 
L 202.446469 158.157954 
L 203.05544 157.986426 
L 203.258431 157.847503 
L 203.461421 157.532114 
L 203.664411 157.907525 
L 204.882353 157.355808 
L 206.100295 156.563243 
L 207.724217 155.197355 
L 207.927207 163.718864 
L 209.55113 163.683794 
L 210.1601 163.512267 
L 210.363091 163.373344 
L 210.566081 163.057954 
L 210.769071 163.433365 
L 211.987013 162.881648 
L 213.204955 162.089084 
L 214.828877 160.723195 
L 215.031867 169.244704 
L 216.65579 169.209634 
L 217.26476 169.038107 
L 217.467751 168.899184 
L 217.670741 168.583794 
L 217.873731 168.959205 
L 219.091673 168.407489 
L 220.309615 167.614924 
L 221.933537 166.249035 
L 222.136527 174.770544 
L 223.76045 174.735474 
L 224.36942 174.563947 
L 224.572411 174.425024 
L 224.775401 174.109634 
L 224.978391 174.485045 
L 226.196333 173.933329 
L 227.414275 173.140764 
L 229.038197 171.774875 
L 229.241187 180.296384 
L 230.86511 180.261314 
L 231.474081 180.089787 
L 231.677071 179.950864 
L 231.880061 179.635474 
L 232.083051 180.010885 
L 233.300993 179.459169 
L 234.518935 178.666604 
L 236.142857 177.300715 
L 236.345847 185.822225 
L 237.96977 185.787155 
L 238.578741 185.615627 
L 238.781731 185.476704 
L 238.984721 185.161314 
L 239.187711 185.536726 
L 240.405653 184.985009 
L 241.623595 184.192444 
L 243.247517 182.826555 
L 243.450507 191.348065 
L 245.07443 191.312995 
L 245.683401 191.141467 
L 245.886391 191.002544 
L 246.089381 190.687155 
L 246.292371 191.062566 
L 247.510313 190.510849 
L 248.728255 189.718284 
L 250.352177 188.352395 
L 250.555168 196.873905 
L 252.17909 196.838835 
L 252.788061 196.667308 
L 252.991051 196.528384 
L 253.194041 196.212995 
L 253.397032 196.588406 
L 254.614973 196.036689 
L 255.832915 195.244124 
L 257.456837 193.878236 
L 257.659828 202.399745 
L 259.28375 202.364675 
L 259.892721 202.193148 
L 260.095711 202.054225 
L 260.298701 201.738835 
L 260.501692 202.114246 
L 261.719633 201.56253 
L 262.937575 200.769965 
L 264.561497 199.404076 
L 264.764488 207.925585 
L 266.38841 207.890515 
L 266.997381 207.718988 
L 267.200371 207.580065 
L 267.403361 207.264675 
L 267.606352 207.640086 
L 268.824293 207.08837 
L 270.042235 206.295805 
L 271.666157 204.929916 
L 271.869148 213.451425 
L 273.49307 213.416355 
L 274.102041 213.244828 
L 274.305031 213.105905 
L 274.508021 212.790515 
L 274.711012 213.165926 
L 275.928953 212.61421 
L 277.146895 211.821645 
L 278.770817 210.455756 
L 278.973808 218.977266 
L 280.59773 218.942195 
L 281.206701 218.770668 
L 281.409691 218.631745 
L 281.612681 218.316355 
L 281.815672 218.691766 
L 283.033613 218.14005 
L 284.251555 217.347485 
L 285.875477 215.981596 
L 286.078468 224.503106 
L 287.70239 224.468036 
L 288.311361 224.296508 
L 288.514351 224.157585 
L 288.717341 223.842195 
L 288.920332 224.217607 
L 290.138273 223.66589 
L 291.356215 222.873325 
L 292.980138 221.507436 
L 293.183128 230.028946 
L 294.80705 229.993876 
L 295.416021 229.822348 
L 295.619011 229.683425 
L 295.822002 229.368036 
L 296.024992 229.743447 
L 297.242934 229.19173 
L 298.460875 228.399165 
L 300.084798 227.033276 
L 300.287788 235.554786 
L 301.91171 235.519716 
L 302.520681 235.348189 
L 302.723671 235.209266 
L 302.926662 234.893876 
L 303.129652 235.269287 
L 304.347594 234.71757 
L 305.565535 233.925005 
L 307.189458 232.559117 
L 307.392448 241.080626 
L 309.01637 241.045556 
L 309.625341 240.874029 
L 309.828331 240.735106 
L 310.031322 240.419716 
L 310.234312 240.795127 
L 311.452254 240.243411 
L 312.670195 239.450846 
L 314.294118 238.084957 
L 314.497108 246.606466 
L 316.12103 246.571396 
L 316.730001 246.399869 
L 316.932991 246.260946 
L 317.135982 245.945556 
L 317.338972 246.320967 
L 318.556914 245.769251 
L 319.774855 244.976686 
L 321.398778 243.610797 
L 321.601768 252.132306 
L 323.22569 252.097236 
L 323.834661 251.925709 
L 324.037651 251.786786 
L 324.240642 251.471396 
L 324.443632 251.846807 
L 325.661574 251.295091 
L 326.879515 250.502526 
L 328.503438 249.136637 
L 328.706428 257.658147 
L 330.33035 257.623077 
L 330.939321 257.451549 
L 331.142311 257.312626 
L 331.345302 256.997236 
L 331.548292 257.372648 
L 332.766234 256.820931 
L 333.984175 256.028366 
L 335.608098 254.662477 
L 335.811088 263.183987 
L 337.43501 263.148917 
L 338.043981 262.977389 
L 338.246972 262.838466 
L 338.449962 262.523077 
L 338.652952 262.898488 
L 339.870894 262.346771 
L 341.088836 261.554206 
L 342.712758 260.188317 
L 342.915748 268.709827 
L 344.53967 268.674757 
L 345.148641 268.503229 
L 345.351632 268.364306 
L 345.554622 268.048917 
L 345.757612 268.424328 
L 346.975554 267.872611 
L 348.193496 267.080046 
L 349.817418 265.714158 
L 350.020408 274.235667 
L 351.64433 274.200597 
L 352.253301 274.02907 
L 352.456292 273.890147 
L 352.659282 273.574757 
L 352.862272 273.950168 
L 354.080214 273.398451 
L 355.298156 272.605887 
L 356.922078 271.239998 
L 357.125068 279.761507 
L 358.748991 279.726437 
L 359.357961 279.55491 
L 359.560952 279.415987 
L 359.763942 279.100597 
L 359.966932 279.476008 
L 361.184874 278.924292 
L 362.402816 278.131727 
L 364.026738 276.765838 
L 364.229728 285.287347 
L 365.853651 285.252277 
L 366.462621 285.08075 
L 366.665612 284.941827 
L 366.868602 284.626437 
L 367.071592 285.001848 
L 368.289534 284.450132 
L 369.507476 283.657567 
L 371.131398 282.291678 
L 371.334388 290.813187 
L 372.958311 290.778117 
L 373.567281 290.60659 
L 373.770272 290.467667 
L 373.973262 290.152277 
L 374.176252 290.527688 
L 375.394194 289.975972 
L 376.612136 289.183407 
L 378.236058 287.817518 
L 378.439048 296.339028 
L 380.062971 296.303958 
L 380.671942 296.13243 
L 380.874932 295.993507 
L 381.077922 295.678117 
L 381.280912 296.053529 
L 382.498854 295.501812 
L 383.716796 294.709247 
L 385.340718 293.343358 
L 385.543708 301.864868 
L 387.167631 301.829798 
L 387.776602 301.65827 
L 387.979592 301.519347 
L 388.182582 301.203958 
L 388.385572 301.579369 
L 389.603514 301.027652 
L 390.821456 300.235087 
L 392.445378 298.869198 
L 392.648368 307.390708 
L 394.272291 307.355638 
L 394.881262 307.184111 
L 395.084252 307.045187 
L 395.287242 306.729798 
L 395.490232 307.105209 
L 396.708174 306.553492 
L 397.926116 305.760927 
L 399.550038 304.395039 
L 399.753028 312.916548 
L 401.376951 312.881478 
L 401.985922 312.709951 
L 402.188912 312.571028 
L 402.391902 312.255638 
L 402.594893 312.631049 
L 403.812834 312.079333 
L 405.030776 311.286768 
L 406.654698 309.920879 
L 406.857689 318.442388 
L 408.481611 318.407318 
L 409.090582 318.235791 
L 409.293572 318.096868 
L 409.496562 317.781478 
L 409.699553 318.156889 
L 410.917494 317.605173 
L 412.135436 316.812608 
L 413.759358 315.446719 
L 413.962349 323.968228 
L 415.586271 323.933158 
L 416.195242 323.761631 
L 416.398232 323.622708 
L 416.601222 323.307318 
L 416.804213 323.682729 
L 418.022154 323.131013 
L 419.240096 322.338448 
L 420.864018 320.972559 
L 421.067009 329.494069 
L 422.690931 329.458999 
L 423.299902 329.287471 
L 423.502892 329.148548 
L 423.705882 328.833158 
L 423.908873 329.208569 
L 425.126814 328.656853 
L 426.344756 327.864288 
L 427.968678 326.498399 
L 428.171669 335.019909 
L 429.795591 334.984839 
L 430.404562 334.813311 
L 430.607552 334.674388 
L 430.810542 334.358998 
L 431.013533 334.73441 
L 432.231474 334.182693 
L 433.449416 333.390128 
L 435.073338 332.024239 
L 435.276329 340.545749 
L 436.900251 340.510679 
L 437.509222 340.339151 
L 437.712212 340.200228 
L 437.915202 339.884839 
L 438.118193 340.26025 
L 439.336134 339.708533 
L 440.554076 338.915968 
L 442.177998 337.550079 
L 442.380989 346.071589 
L 444.004911 346.036519 
L 444.613882 345.864992 
L 444.816872 345.726069 
L 445.019862 345.410679 
L 445.222853 345.78609 
L 446.440794 345.234373 
L 447.658736 344.441808 
L 449.282659 343.07592 
L 449.485649 351.597429 
L 451.109571 351.562359 
L 451.718542 351.390832 
L 451.921532 351.251909 
L 452.124523 350.936519 
L 452.327513 351.31193 
L 453.545455 350.760214 
L 454.763396 349.967649 
L 456.387319 348.60176 
L 456.590309 357.123269 
L 458.214231 357.088199 
L 458.823202 356.916672 
L 459.026192 356.777749 
L 459.229183 356.462359 
L 459.432173 356.83777 
L 460.650115 356.286054 
L 461.868056 355.493489 
L 463.491979 354.1276 
L 463.694969 362.649109 
L 465.318891 362.614039 
L 465.927862 362.442512 
L 466.130852 362.303589 
L 466.333843 361.988199 
L 466.536833 362.36361 
L 467.754775 361.811894 
L 468.972716 361.019329 
L 470.596639 359.65344 
L 470.799629 368.17495 
L 472.423551 368.13988 
L 473.032522 367.968352 
L 473.235512 367.829429 
L 473.438503 367.514039 
L 473.641493 367.889451 
L 474.859435 367.337734 
L 476.077376 366.545169 
L 477.701299 365.17928 
L 477.904289 373.70079 
L 479.528211 373.66572 
L 480.137182 373.494192 
L 480.340172 373.355269 
L 480.543163 373.03988 
L 480.746153 373.415291 
L 481.964095 372.863574 
L 483.182036 372.071009 
L 484.805959 370.70512 
L 485.008949 379.22663 
L 486.632871 379.19156 
L 487.241842 379.020032 
L 487.444832 378.881109 
L 487.647823 378.56572 
L 487.850813 378.941131 
L 489.068755 378.389414 
L 490.286696 377.596849 
L 491.910619 376.230961 
L 492.113609 384.75247 
L 493.737531 384.7174 
L 494.346502 384.545873 
L 494.549493 384.40695 
L 494.752483 384.09156 
L 494.955473 384.466971 
L 496.173415 383.915254 
L 497.391357 383.12269 
L 499.015279 381.756801 
L 499.218269 390.27831 
L 500.842191 390.24324 
L 501.451162 390.071713 
L 501.654153 389.93279 
L 501.857143 389.6174 
L 502.060133 389.992811 
L 503.278075 389.441095 
L 504.496017 388.64853 
L 506.119939 387.282641 
L 506.322929 395.80415 
L 507.946851 395.76908 
L 508.555822 395.597553 
L 508.758813 395.45863 
L 508.961803 395.14324 
L 509.164793 395.518651 
L 510.382735 394.966935 
L 511.600677 394.17437 
L 513.224599 392.808481 
L 513.427589 401.32999 
L 515.051512 401.29492 
L 515.660482 401.123393 
L 515.863473 400.98447 
L 516.066463 400.66908 
L 516.269453 401.044491 
L 517.487395 400.492775 
L 518.705337 399.70021 
L 520.329259 398.334321 
L 520.532249 406.855831 
L 522.156172 406.820761 
L 522.765142 406.649233 
L 522.968133 406.51031 
L 523.171123 406.19492 
L 523.374113 406.570332 
L 524.592055 406.018615 
L 525.809997 405.22605 
L 527.433919 403.860161 
L 527.636909 412.381671 
L 529.260832 412.346601 
L 529.869802 412.175073 
L 530.072793 412.03615 
L 530.275783 411.720761 
L 530.478773 412.096172 
L 531.696715 411.544455 
L 532.914657 410.75189 
L 534.538579 409.386001 
L 534.741569 417.907511 
L 536.365492 417.872441 
L 536.974463 417.700914 
L 537.177453 417.56199 
L 537.380443 417.246601 
L 537.583433 417.622012 
L 538.801375 417.070295 
L 540.019317 416.27773 
L 541.643239 414.911842 
L 541.846229 423.433351 
L 543.470152 423.398281 
L 544.079123 423.226754 
L 544.282113 423.087831 
L 544.485103 422.772441 
L 544.688093 423.147852 
L 545.906035 422.596136 
L 547.123977 421.803571 
L 548.747899 420.437682 
L 548.950889 428.959191 
L 550.574812 428.924121 
L 551.183783 428.752594 
L 551.386773 428.613671 
L 551.589763 428.298281 
L 551.792753 428.673692 
L 553.010695 428.121976 
L 554.228637 427.329411 
L 555.852559 425.963522 
L 556.055549 434.485031 
L 557.679472 434.449961 
L 558.288443 434.278434 
L 558.491433 434.139511 
L 558.694423 433.824121 
L 558.897414 434.199532 
L 560.115355 433.647816 
L 561.333297 432.855251 
L 562.957219 431.489362 
L 563.16021 440.010872 
L 564.784132 439.975802 
L 565.393103 439.804274 
L 565.596093 439.665351 
L 565.799083 439.349961 
L 566.002074 439.725372 
L 567.220015 439.173656 
L 568.437957 438.381091 
L 570.061879 437.015202 
L 570.26487 445.536712 
L 571.888792 445.501642 
L 572.497763 445.330114 
L 572.700753 445.191191 
L 572.903743 444.875802 
L 573.106734 445.251213 
L 574.324675 444.699496 
L 575.542617 443.906931 
L 577.166539 442.541042 
L 577.36953 451.062552 
L 578.993452 451.027482 
L 579.602423 450.855954 
L 579.805413 450.717031 
L 580.008403 450.401642 
L 580.211394 450.777053 
L 581.429335 450.225336 
L 582.647277 449.432771 
L 584.271199 448.066883 
L 584.47419 456.588392 
L 586.098112 456.553322 
L 586.707083 456.381795 
L 586.910073 456.242872 
L 587.113063 455.927482 
L 587.316054 456.302893 
L 588.533995 455.751176 
L 589.751937 454.958611 
L 591.375859 453.592723 
L 591.57885 462.114232 
L 593.202772 462.079162 
L 593.811743 461.907635 
L 594.014733 461.768712 
L 594.217723 461.453322 
L 594.420714 461.828733 
L 595.638655 461.277017 
L 596.856597 460.484452 
L 598.480519 459.118563 
L 598.68351 467.640072 
L 600.307432 467.605002 
L 600.916403 467.433475 
L 601.119393 467.294552 
L 601.322383 466.979162 
L 601.525374 467.354573 
L 602.743316 466.802857 
L 603.961257 466.010292 
L 605.58518 464.644403 
L 605.78817 473.165912 
L 607.412092 473.130842 
L 608.021063 472.959315 
L 608.224053 472.820392 
L 608.427044 472.505002 
L 608.630034 472.880413 
L 609.847976 472.328697 
L 611.065917 471.536132 
L 612.68984 470.170243 
L 612.89283 478.691753 
L 614.516752 478.656683 
L 615.125723 478.485155 
L 615.328713 478.346232 
L 615.531704 478.030842 
L 615.734694 478.406254 
L 616.952636 477.854537 
L 618.170577 477.061972 
L 619.7945 475.696083 
L 619.99749 484.217593 
L 621.621412 484.182523 
L 622.230383 484.010995 
L 622.433373 483.872072 
L 622.636364 483.556683 
L 622.636364 483.556683 
" style="fill:none;stroke:#1f77b4;stroke-linecap:square;stroke-width:1.5;"/>
   </g>
   <g id="patch_3">
    <path d="M 90 504 
L 90 69.12 
" style="fill:none;stroke:#000000;stroke-linecap:square;stroke-linejoin:miter;stroke-width:0.8;"/>
   </g>
   <g id="patch_4">
    <path d="M 648 504 
L 648 69.12 
" style="fill:none;stroke:#000000;stroke-linecap:square;stroke-linejoin:miter;stroke-width:0.8;"/>
   </g>
   <g id="patch_5">
    <path d="M 90 504 
L 648 504 
" style="fill:none;stroke:#000000;stroke-linecap:square;stroke-linejoin:miter;stroke-width:0.8;"/>
   </g>
   <g id="patch_6">
    <path d="M 90 69.12 
L 648 69.12 
" style="fill:none;stroke:#000000;stroke-linecap:square;stroke-linejoin:miter;stroke-width:0.8;"/>
   </g>
  </g>
 </g>
 <defs>
  <clipPath id="p4bcf45b3a0">
   <rect height="434.88" width="558" x="90" y="69.12"/>
  </clipPath>
 </defs>
</svg>
