<?xml version="1.0" encoding="utf-8" standalone="no"?>
<!DOCTYPE svg PUBLIC "-//W3C//DTD SVG 1.1//EN"
  "http://www.w3.org/Graphics/SVG/1.1/DTD/svg11.dtd">
<svg height="576pt" version="1.1" viewBox="0 0 720 576" width="720pt" xmlns="http://www.w3.org/2000/svg" xmlns:xlink="http://www.w3.org/1999/xlink">
 <metadata>
  <rdf:RDF xmlns:cc="http://creativecommons.org/ns#" xmlns:dc="http://purl.org/dc/elements/1.1/" xmlns:rdf="http://www.w3.org/1999/02/22-rdf-syntax-ns#">
   <cc:Work>
    <dc:type rdf:resource="http://purl.org/dc/dcmitype/StillImage"/>
    <dc:date>2022-01-19T22:10:05.886556</dc:date>
    <dc:format>image/svg+xml</dc:format>
    <dc:creator>
     <cc:Agent>
      <dc:title>Matplotlib v3.4.3, https://matplotlib.org/</dc:title>
     </cc:Agent>
    </dc:creator>
   </cc:Work>
  </rdf:RDF>
 </metadata>
 <defs>
  <style type="text/css">*{stroke-linecap:butt;stroke-linejoin:round;}</style>
 </defs>
 <g id="figure_1">
  <g id="patch_1">
   <path d="M 0 576 
L 720 576 
L 720 0 
L 0 0 
z
" style="fill:none;"/>
  </g>
  <g id="axes_1">
   <g id="patch_2">
    <path d="M 90 504 
L 648 504 
L 648 69.12 
L 90 69.12 
z
" style="fill:#ffffff;"/>
   </g>
   <g id="matplotlib.axis_1">
    <g id="xtick_1">
     <g id="line2d_1">
      <defs>
       <path d="M 0 0 
L 0 3.5 
" id="m1b653ccfe3" style="stroke:#000000;stroke-width:0.8;"/>
      </defs>
      <g>
       <use style="stroke:#000000;stroke-width:0.8;" x="115.363636" xlink:href="#m1b653ccfe3" y="504"/>
      </g>
     </g>
     <g id="text_1">
      <!-- 0 -->
      <g transform="translate(108.364886 527.716563)scale(0.22 -0.22)">
       <defs>
        <path d="M 2034 4250 
Q 1547 4250 1301 3770 
Q 1056 3291 1056 2328 
Q 1056 1369 1301 889 
Q 1547 409 2034 409 
Q 2525 409 2770 889 
Q 3016 1369 3016 2328 
Q 3016 3291 2770 3770 
Q 2525 4250 2034 4250 
z
M 2034 4750 
Q 2819 4750 3233 4129 
Q 3647 3509 3647 2328 
Q 3647 1150 3233 529 
Q 2819 -91 2034 -91 
Q 1250 -91 836 529 
Q 422 1150 422 2328 
Q 422 3509 836 4129 
Q 1250 4750 2034 4750 
z
" id="DejaVuSans-30" transform="scale(0.015625)"/>
       </defs>
       <use xlink:href="#DejaVuSans-30"/>
      </g>
     </g>
    </g>
    <g id="xtick_2">
     <g id="line2d_2">
      <g>
       <use style="stroke:#000000;stroke-width:0.8;" x="216.85878" xlink:href="#m1b653ccfe3" y="504"/>
      </g>
     </g>
     <g id="text_2">
      <!-- 500 -->
      <g transform="translate(195.86253 527.716563)scale(0.22 -0.22)">
       <defs>
        <path d="M 691 4666 
L 3169 4666 
L 3169 4134 
L 1269 4134 
L 1269 2991 
Q 1406 3038 1543 3061 
Q 1681 3084 1819 3084 
Q 2600 3084 3056 2656 
Q 3513 2228 3513 1497 
Q 3513 744 3044 326 
Q 2575 -91 1722 -91 
Q 1428 -91 1123 -41 
Q 819 9 494 109 
L 494 744 
Q 775 591 1075 516 
Q 1375 441 1709 441 
Q 2250 441 2565 725 
Q 2881 1009 2881 1497 
Q 2881 1984 2565 2268 
Q 2250 2553 1709 2553 
Q 1456 2553 1204 2497 
Q 953 2441 691 2322 
L 691 4666 
z
" id="DejaVuSans-35" transform="scale(0.015625)"/>
       </defs>
       <use xlink:href="#DejaVuSans-35"/>
       <use x="63.623047" xlink:href="#DejaVuSans-30"/>
       <use x="127.246094" xlink:href="#DejaVuSans-30"/>
      </g>
     </g>
    </g>
    <g id="xtick_3">
     <g id="line2d_3">
      <g>
       <use style="stroke:#000000;stroke-width:0.8;" x="318.353923" xlink:href="#m1b653ccfe3" y="504"/>
      </g>
     </g>
     <g id="text_3">
      <!-- 1000 -->
      <g transform="translate(290.358923 527.716563)scale(0.22 -0.22)">
       <defs>
        <path d="M 794 531 
L 1825 531 
L 1825 4091 
L 703 3866 
L 703 4441 
L 1819 4666 
L 2450 4666 
L 2450 531 
L 3481 531 
L 3481 0 
L 794 0 
L 794 531 
z
" id="DejaVuSans-31" transform="scale(0.015625)"/>
       </defs>
       <use xlink:href="#DejaVuSans-31"/>
       <use x="63.623047" xlink:href="#DejaVuSans-30"/>
       <use x="127.246094" xlink:href="#DejaVuSans-30"/>
       <use x="190.869141" xlink:href="#DejaVuSans-30"/>
      </g>
     </g>
    </g>
    <g id="xtick_4">
     <g id="line2d_4">
      <g>
       <use style="stroke:#000000;stroke-width:0.8;" x="419.849067" xlink:href="#m1b653ccfe3" y="504"/>
      </g>
     </g>
     <g id="text_4">
      <!-- 1500 -->
      <g transform="translate(391.854067 527.716563)scale(0.22 -0.22)">
       <use xlink:href="#DejaVuSans-31"/>
       <use x="63.623047" xlink:href="#DejaVuSans-35"/>
       <use x="127.246094" xlink:href="#DejaVuSans-30"/>
       <use x="190.869141" xlink:href="#DejaVuSans-30"/>
      </g>
     </g>
    </g>
    <g id="xtick_5">
     <g id="line2d_5">
      <g>
       <use style="stroke:#000000;stroke-width:0.8;" x="521.34421" xlink:href="#m1b653ccfe3" y="504"/>
      </g>
     </g>
     <g id="text_5">
      <!-- 2000 -->
      <g transform="translate(493.34921 527.716563)scale(0.22 -0.22)">
       <defs>
        <path d="M 1228 531 
L 3431 531 
L 3431 0 
L 469 0 
L 469 531 
Q 828 903 1448 1529 
Q 2069 2156 2228 2338 
Q 2531 2678 2651 2914 
Q 2772 3150 2772 3378 
Q 2772 3750 2511 3984 
Q 2250 4219 1831 4219 
Q 1534 4219 1204 4116 
Q 875 4013 500 3803 
L 500 4441 
Q 881 4594 1212 4672 
Q 1544 4750 1819 4750 
Q 2544 4750 2975 4387 
Q 3406 4025 3406 3419 
Q 3406 3131 3298 2873 
Q 3191 2616 2906 2266 
Q 2828 2175 2409 1742 
Q 1991 1309 1228 531 
z
" id="DejaVuSans-32" transform="scale(0.015625)"/>
       </defs>
       <use xlink:href="#DejaVuSans-32"/>
       <use x="63.623047" xlink:href="#DejaVuSans-30"/>
       <use x="127.246094" xlink:href="#DejaVuSans-30"/>
       <use x="190.869141" xlink:href="#DejaVuSans-30"/>
      </g>
     </g>
    </g>
    <g id="xtick_6">
     <g id="line2d_6">
      <g>
       <use style="stroke:#000000;stroke-width:0.8;" x="622.839354" xlink:href="#m1b653ccfe3" y="504"/>
      </g>
     </g>
     <g id="text_6">
      <!-- 2500 -->
      <g transform="translate(594.844354 527.716563)scale(0.22 -0.22)">
       <use xlink:href="#DejaVuSans-32"/>
       <use x="63.623047" xlink:href="#DejaVuSans-35"/>
       <use x="127.246094" xlink:href="#DejaVuSans-30"/>
       <use x="190.869141" xlink:href="#DejaVuSans-30"/>
      </g>
     </g>
    </g>
    <g id="text_7">
     <!-- nr iteracji epizodu -->
     <g transform="translate(269.688906 553.008438)scale(0.22 -0.22)">
      <defs>
       <path d="M 3513 2113 
L 3513 0 
L 2938 0 
L 2938 2094 
Q 2938 2591 2744 2837 
Q 2550 3084 2163 3084 
Q 1697 3084 1428 2787 
Q 1159 2491 1159 1978 
L 1159 0 
L 581 0 
L 581 3500 
L 1159 3500 
L 1159 2956 
Q 1366 3272 1645 3428 
Q 1925 3584 2291 3584 
Q 2894 3584 3203 3211 
Q 3513 2838 3513 2113 
z
" id="DejaVuSans-6e" transform="scale(0.015625)"/>
       <path d="M 2631 2963 
Q 2534 3019 2420 3045 
Q 2306 3072 2169 3072 
Q 1681 3072 1420 2755 
Q 1159 2438 1159 1844 
L 1159 0 
L 581 0 
L 581 3500 
L 1159 3500 
L 1159 2956 
Q 1341 3275 1631 3429 
Q 1922 3584 2338 3584 
Q 2397 3584 2469 3576 
Q 2541 3569 2628 3553 
L 2631 2963 
z
" id="DejaVuSans-72" transform="scale(0.015625)"/>
       <path id="DejaVuSans-20" transform="scale(0.015625)"/>
       <path d="M 603 3500 
L 1178 3500 
L 1178 0 
L 603 0 
L 603 3500 
z
M 603 4863 
L 1178 4863 
L 1178 4134 
L 603 4134 
L 603 4863 
z
" id="DejaVuSans-69" transform="scale(0.015625)"/>
       <path d="M 1172 4494 
L 1172 3500 
L 2356 3500 
L 2356 3053 
L 1172 3053 
L 1172 1153 
Q 1172 725 1289 603 
Q 1406 481 1766 481 
L 2356 481 
L 2356 0 
L 1766 0 
Q 1100 0 847 248 
Q 594 497 594 1153 
L 594 3053 
L 172 3053 
L 172 3500 
L 594 3500 
L 594 4494 
L 1172 4494 
z
" id="DejaVuSans-74" transform="scale(0.015625)"/>
       <path d="M 3597 1894 
L 3597 1613 
L 953 1613 
Q 991 1019 1311 708 
Q 1631 397 2203 397 
Q 2534 397 2845 478 
Q 3156 559 3463 722 
L 3463 178 
Q 3153 47 2828 -22 
Q 2503 -91 2169 -91 
Q 1331 -91 842 396 
Q 353 884 353 1716 
Q 353 2575 817 3079 
Q 1281 3584 2069 3584 
Q 2775 3584 3186 3129 
Q 3597 2675 3597 1894 
z
M 3022 2063 
Q 3016 2534 2758 2815 
Q 2500 3097 2075 3097 
Q 1594 3097 1305 2825 
Q 1016 2553 972 2059 
L 3022 2063 
z
" id="DejaVuSans-65" transform="scale(0.015625)"/>
       <path d="M 2194 1759 
Q 1497 1759 1228 1600 
Q 959 1441 959 1056 
Q 959 750 1161 570 
Q 1363 391 1709 391 
Q 2188 391 2477 730 
Q 2766 1069 2766 1631 
L 2766 1759 
L 2194 1759 
z
M 3341 1997 
L 3341 0 
L 2766 0 
L 2766 531 
Q 2569 213 2275 61 
Q 1981 -91 1556 -91 
Q 1019 -91 701 211 
Q 384 513 384 1019 
Q 384 1609 779 1909 
Q 1175 2209 1959 2209 
L 2766 2209 
L 2766 2266 
Q 2766 2663 2505 2880 
Q 2244 3097 1772 3097 
Q 1472 3097 1187 3025 
Q 903 2953 641 2809 
L 641 3341 
Q 956 3463 1253 3523 
Q 1550 3584 1831 3584 
Q 2591 3584 2966 3190 
Q 3341 2797 3341 1997 
z
" id="DejaVuSans-61" transform="scale(0.015625)"/>
       <path d="M 3122 3366 
L 3122 2828 
Q 2878 2963 2633 3030 
Q 2388 3097 2138 3097 
Q 1578 3097 1268 2742 
Q 959 2388 959 1747 
Q 959 1106 1268 751 
Q 1578 397 2138 397 
Q 2388 397 2633 464 
Q 2878 531 3122 666 
L 3122 134 
Q 2881 22 2623 -34 
Q 2366 -91 2075 -91 
Q 1284 -91 818 406 
Q 353 903 353 1747 
Q 353 2603 823 3093 
Q 1294 3584 2113 3584 
Q 2378 3584 2631 3529 
Q 2884 3475 3122 3366 
z
" id="DejaVuSans-63" transform="scale(0.015625)"/>
       <path d="M 603 3500 
L 1178 3500 
L 1178 -63 
Q 1178 -731 923 -1031 
Q 669 -1331 103 -1331 
L -116 -1331 
L -116 -844 
L 38 -844 
Q 366 -844 484 -692 
Q 603 -541 603 -63 
L 603 3500 
z
M 603 4863 
L 1178 4863 
L 1178 4134 
L 603 4134 
L 603 4863 
z
" id="DejaVuSans-6a" transform="scale(0.015625)"/>
       <path d="M 1159 525 
L 1159 -1331 
L 581 -1331 
L 581 3500 
L 1159 3500 
L 1159 2969 
Q 1341 3281 1617 3432 
Q 1894 3584 2278 3584 
Q 2916 3584 3314 3078 
Q 3713 2572 3713 1747 
Q 3713 922 3314 415 
Q 2916 -91 2278 -91 
Q 1894 -91 1617 61 
Q 1341 213 1159 525 
z
M 3116 1747 
Q 3116 2381 2855 2742 
Q 2594 3103 2138 3103 
Q 1681 3103 1420 2742 
Q 1159 2381 1159 1747 
Q 1159 1113 1420 752 
Q 1681 391 2138 391 
Q 2594 391 2855 752 
Q 3116 1113 3116 1747 
z
" id="DejaVuSans-70" transform="scale(0.015625)"/>
       <path d="M 353 3500 
L 3084 3500 
L 3084 2975 
L 922 459 
L 3084 459 
L 3084 0 
L 275 0 
L 275 525 
L 2438 3041 
L 353 3041 
L 353 3500 
z
" id="DejaVuSans-7a" transform="scale(0.015625)"/>
       <path d="M 1959 3097 
Q 1497 3097 1228 2736 
Q 959 2375 959 1747 
Q 959 1119 1226 758 
Q 1494 397 1959 397 
Q 2419 397 2687 759 
Q 2956 1122 2956 1747 
Q 2956 2369 2687 2733 
Q 2419 3097 1959 3097 
z
M 1959 3584 
Q 2709 3584 3137 3096 
Q 3566 2609 3566 1747 
Q 3566 888 3137 398 
Q 2709 -91 1959 -91 
Q 1206 -91 779 398 
Q 353 888 353 1747 
Q 353 2609 779 3096 
Q 1206 3584 1959 3584 
z
" id="DejaVuSans-6f" transform="scale(0.015625)"/>
       <path d="M 2906 2969 
L 2906 4863 
L 3481 4863 
L 3481 0 
L 2906 0 
L 2906 525 
Q 2725 213 2448 61 
Q 2172 -91 1784 -91 
Q 1150 -91 751 415 
Q 353 922 353 1747 
Q 353 2572 751 3078 
Q 1150 3584 1784 3584 
Q 2172 3584 2448 3432 
Q 2725 3281 2906 2969 
z
M 947 1747 
Q 947 1113 1208 752 
Q 1469 391 1925 391 
Q 2381 391 2643 752 
Q 2906 1113 2906 1747 
Q 2906 2381 2643 2742 
Q 2381 3103 1925 3103 
Q 1469 3103 1208 2742 
Q 947 2381 947 1747 
z
" id="DejaVuSans-64" transform="scale(0.015625)"/>
       <path d="M 544 1381 
L 544 3500 
L 1119 3500 
L 1119 1403 
Q 1119 906 1312 657 
Q 1506 409 1894 409 
Q 2359 409 2629 706 
Q 2900 1003 2900 1516 
L 2900 3500 
L 3475 3500 
L 3475 0 
L 2900 0 
L 2900 538 
Q 2691 219 2414 64 
Q 2138 -91 1772 -91 
Q 1169 -91 856 284 
Q 544 659 544 1381 
z
M 1991 3584 
L 1991 3584 
z
" id="DejaVuSans-75" transform="scale(0.015625)"/>
      </defs>
      <use xlink:href="#DejaVuSans-6e"/>
      <use x="63.378906" xlink:href="#DejaVuSans-72"/>
      <use x="104.492188" xlink:href="#DejaVuSans-20"/>
      <use x="136.279297" xlink:href="#DejaVuSans-69"/>
      <use x="164.0625" xlink:href="#DejaVuSans-74"/>
      <use x="203.271484" xlink:href="#DejaVuSans-65"/>
      <use x="264.794922" xlink:href="#DejaVuSans-72"/>
      <use x="305.908203" xlink:href="#DejaVuSans-61"/>
      <use x="367.1875" xlink:href="#DejaVuSans-63"/>
      <use x="422.167969" xlink:href="#DejaVuSans-6a"/>
      <use x="449.951172" xlink:href="#DejaVuSans-69"/>
      <use x="477.734375" xlink:href="#DejaVuSans-20"/>
      <use x="509.521484" xlink:href="#DejaVuSans-65"/>
      <use x="571.044922" xlink:href="#DejaVuSans-70"/>
      <use x="634.521484" xlink:href="#DejaVuSans-69"/>
      <use x="662.304688" xlink:href="#DejaVuSans-7a"/>
      <use x="714.794922" xlink:href="#DejaVuSans-6f"/>
      <use x="775.976562" xlink:href="#DejaVuSans-64"/>
      <use x="839.453125" xlink:href="#DejaVuSans-75"/>
     </g>
    </g>
   </g>
   <g id="matplotlib.axis_2">
    <g id="ytick_1">
     <g id="line2d_7">
      <defs>
       <path d="M 0 0 
L -3.5 0 
" id="mc0ee7984e8" style="stroke:#000000;stroke-width:0.8;"/>
      </defs>
      <g>
       <use style="stroke:#000000;stroke-width:0.8;" x="90" xlink:href="#mc0ee7984e8" y="424.255105"/>
      </g>
     </g>
     <g id="text_8">
      <!-- −40000 -->
      <g transform="translate(-5.422813 432.613386)scale(0.22 -0.22)">
       <defs>
        <path d="M 678 2272 
L 4684 2272 
L 4684 1741 
L 678 1741 
L 678 2272 
z
" id="DejaVuSans-2212" transform="scale(0.015625)"/>
        <path d="M 2419 4116 
L 825 1625 
L 2419 1625 
L 2419 4116 
z
M 2253 4666 
L 3047 4666 
L 3047 1625 
L 3713 1625 
L 3713 1100 
L 3047 1100 
L 3047 0 
L 2419 0 
L 2419 1100 
L 313 1100 
L 313 1709 
L 2253 4666 
z
" id="DejaVuSans-34" transform="scale(0.015625)"/>
       </defs>
       <use xlink:href="#DejaVuSans-2212"/>
       <use x="83.789062" xlink:href="#DejaVuSans-34"/>
       <use x="147.412109" xlink:href="#DejaVuSans-30"/>
       <use x="211.035156" xlink:href="#DejaVuSans-30"/>
       <use x="274.658203" xlink:href="#DejaVuSans-30"/>
       <use x="338.28125" xlink:href="#DejaVuSans-30"/>
      </g>
     </g>
    </g>
    <g id="ytick_2">
     <g id="line2d_8">
      <g>
       <use style="stroke:#000000;stroke-width:0.8;" x="90" xlink:href="#mc0ee7984e8" y="339.77958"/>
      </g>
     </g>
     <g id="text_9">
      <!-- −30000 -->
      <g transform="translate(-5.422813 348.137862)scale(0.22 -0.22)">
       <defs>
        <path d="M 2597 2516 
Q 3050 2419 3304 2112 
Q 3559 1806 3559 1356 
Q 3559 666 3084 287 
Q 2609 -91 1734 -91 
Q 1441 -91 1130 -33 
Q 819 25 488 141 
L 488 750 
Q 750 597 1062 519 
Q 1375 441 1716 441 
Q 2309 441 2620 675 
Q 2931 909 2931 1356 
Q 2931 1769 2642 2001 
Q 2353 2234 1838 2234 
L 1294 2234 
L 1294 2753 
L 1863 2753 
Q 2328 2753 2575 2939 
Q 2822 3125 2822 3475 
Q 2822 3834 2567 4026 
Q 2313 4219 1838 4219 
Q 1578 4219 1281 4162 
Q 984 4106 628 3988 
L 628 4550 
Q 988 4650 1302 4700 
Q 1616 4750 1894 4750 
Q 2613 4750 3031 4423 
Q 3450 4097 3450 3541 
Q 3450 3153 3228 2886 
Q 3006 2619 2597 2516 
z
" id="DejaVuSans-33" transform="scale(0.015625)"/>
       </defs>
       <use xlink:href="#DejaVuSans-2212"/>
       <use x="83.789062" xlink:href="#DejaVuSans-33"/>
       <use x="147.412109" xlink:href="#DejaVuSans-30"/>
       <use x="211.035156" xlink:href="#DejaVuSans-30"/>
       <use x="274.658203" xlink:href="#DejaVuSans-30"/>
       <use x="338.28125" xlink:href="#DejaVuSans-30"/>
      </g>
     </g>
    </g>
    <g id="ytick_3">
     <g id="line2d_9">
      <g>
       <use style="stroke:#000000;stroke-width:0.8;" x="90" xlink:href="#mc0ee7984e8" y="255.304056"/>
      </g>
     </g>
     <g id="text_10">
      <!-- −20000 -->
      <g transform="translate(-5.422813 263.662337)scale(0.22 -0.22)">
       <use xlink:href="#DejaVuSans-2212"/>
       <use x="83.789062" xlink:href="#DejaVuSans-32"/>
       <use x="147.412109" xlink:href="#DejaVuSans-30"/>
       <use x="211.035156" xlink:href="#DejaVuSans-30"/>
       <use x="274.658203" xlink:href="#DejaVuSans-30"/>
       <use x="338.28125" xlink:href="#DejaVuSans-30"/>
      </g>
     </g>
    </g>
    <g id="ytick_4">
     <g id="line2d_10">
      <g>
       <use style="stroke:#000000;stroke-width:0.8;" x="90" xlink:href="#mc0ee7984e8" y="170.828531"/>
      </g>
     </g>
     <g id="text_11">
      <!-- −10000 -->
      <g transform="translate(-5.422813 179.186813)scale(0.22 -0.22)">
       <use xlink:href="#DejaVuSans-2212"/>
       <use x="83.789062" xlink:href="#DejaVuSans-31"/>
       <use x="147.412109" xlink:href="#DejaVuSans-30"/>
       <use x="211.035156" xlink:href="#DejaVuSans-30"/>
       <use x="274.658203" xlink:href="#DejaVuSans-30"/>
       <use x="338.28125" xlink:href="#DejaVuSans-30"/>
      </g>
     </g>
    </g>
    <g id="ytick_5">
     <g id="line2d_11">
      <g>
       <use style="stroke:#000000;stroke-width:0.8;" x="90" xlink:href="#mc0ee7984e8" y="86.353007"/>
      </g>
     </g>
     <g id="text_12">
      <!-- 0 -->
      <g transform="translate(69.0025 94.711288)scale(0.22 -0.22)">
       <use xlink:href="#DejaVuSans-30"/>
      </g>
     </g>
    </g>
    <g id="text_13">
     <!-- wartość funkcji nagrody -->
     <g transform="translate(-13.998125 418.171562)rotate(-90)scale(0.22 -0.22)">
      <defs>
       <path d="M 269 3500 
L 844 3500 
L 1563 769 
L 2278 3500 
L 2956 3500 
L 3675 769 
L 4391 3500 
L 4966 3500 
L 4050 0 
L 3372 0 
L 2619 2869 
L 1863 0 
L 1184 0 
L 269 3500 
z
" id="DejaVuSans-77" transform="scale(0.015625)"/>
       <path d="M 2242 5119 
L 2864 5119 
L 1846 3944 
L 1367 3944 
L 2242 5119 
z
M 2834 3397 
L 2834 2853 
Q 2591 2978 2328 3040 
Q 2066 3103 1784 3103 
Q 1356 3103 1142 2972 
Q 928 2841 928 2578 
Q 928 2378 1081 2264 
Q 1234 2150 1697 2047 
L 1894 2003 
Q 2506 1872 2764 1633 
Q 3022 1394 3022 966 
Q 3022 478 2636 193 
Q 2250 -91 1575 -91 
Q 1294 -91 989 -36 
Q 684 19 347 128 
L 347 722 
Q 666 556 975 473 
Q 1284 391 1588 391 
Q 1994 391 2212 530 
Q 2431 669 2431 922 
Q 2431 1156 2273 1281 
Q 2116 1406 1581 1522 
L 1381 1569 
Q 847 1681 609 1914 
Q 372 2147 372 2553 
Q 372 3047 722 3315 
Q 1072 3584 1716 3584 
Q 2034 3584 2315 3537 
Q 2597 3491 2834 3397 
z
" id="DejaVuSans-15b" transform="scale(0.015625)"/>
       <path d="M 3122 3366 
L 3122 2828 
Q 2878 2963 2633 3030 
Q 2388 3097 2138 3097 
Q 1578 3097 1268 2742 
Q 959 2388 959 1747 
Q 959 1106 1268 751 
Q 1578 397 2138 397 
Q 2388 397 2633 464 
Q 2878 531 3122 666 
L 3122 134 
Q 2881 22 2623 -34 
Q 2366 -91 2075 -91 
Q 1284 -91 818 406 
Q 353 903 353 1747 
Q 353 2603 823 3093 
Q 1294 3584 2113 3584 
Q 2378 3584 2631 3529 
Q 2884 3475 3122 3366 
z
M 2466 5119 
L 3088 5119 
L 2070 3944 
L 1591 3944 
L 2466 5119 
z
" id="DejaVuSans-107" transform="scale(0.015625)"/>
       <path d="M 2375 4863 
L 2375 4384 
L 1825 4384 
Q 1516 4384 1395 4259 
Q 1275 4134 1275 3809 
L 1275 3500 
L 2222 3500 
L 2222 3053 
L 1275 3053 
L 1275 0 
L 697 0 
L 697 3053 
L 147 3053 
L 147 3500 
L 697 3500 
L 697 3744 
Q 697 4328 969 4595 
Q 1241 4863 1831 4863 
L 2375 4863 
z
" id="DejaVuSans-66" transform="scale(0.015625)"/>
       <path d="M 581 4863 
L 1159 4863 
L 1159 1991 
L 2875 3500 
L 3609 3500 
L 1753 1863 
L 3688 0 
L 2938 0 
L 1159 1709 
L 1159 0 
L 581 0 
L 581 4863 
z
" id="DejaVuSans-6b" transform="scale(0.015625)"/>
       <path d="M 2906 1791 
Q 2906 2416 2648 2759 
Q 2391 3103 1925 3103 
Q 1463 3103 1205 2759 
Q 947 2416 947 1791 
Q 947 1169 1205 825 
Q 1463 481 1925 481 
Q 2391 481 2648 825 
Q 2906 1169 2906 1791 
z
M 3481 434 
Q 3481 -459 3084 -895 
Q 2688 -1331 1869 -1331 
Q 1566 -1331 1297 -1286 
Q 1028 -1241 775 -1147 
L 775 -588 
Q 1028 -725 1275 -790 
Q 1522 -856 1778 -856 
Q 2344 -856 2625 -561 
Q 2906 -266 2906 331 
L 2906 616 
Q 2728 306 2450 153 
Q 2172 0 1784 0 
Q 1141 0 747 490 
Q 353 981 353 1791 
Q 353 2603 747 3093 
Q 1141 3584 1784 3584 
Q 2172 3584 2450 3431 
Q 2728 3278 2906 2969 
L 2906 3500 
L 3481 3500 
L 3481 434 
z
" id="DejaVuSans-67" transform="scale(0.015625)"/>
       <path d="M 2059 -325 
Q 1816 -950 1584 -1140 
Q 1353 -1331 966 -1331 
L 506 -1331 
L 506 -850 
L 844 -850 
Q 1081 -850 1212 -737 
Q 1344 -625 1503 -206 
L 1606 56 
L 191 3500 
L 800 3500 
L 1894 763 
L 2988 3500 
L 3597 3500 
L 2059 -325 
z
" id="DejaVuSans-79" transform="scale(0.015625)"/>
      </defs>
      <use xlink:href="#DejaVuSans-77"/>
      <use x="81.787109" xlink:href="#DejaVuSans-61"/>
      <use x="143.066406" xlink:href="#DejaVuSans-72"/>
      <use x="184.179688" xlink:href="#DejaVuSans-74"/>
      <use x="223.388672" xlink:href="#DejaVuSans-6f"/>
      <use x="284.570312" xlink:href="#DejaVuSans-15b"/>
      <use x="336.669922" xlink:href="#DejaVuSans-107"/>
      <use x="391.650391" xlink:href="#DejaVuSans-20"/>
      <use x="423.4375" xlink:href="#DejaVuSans-66"/>
      <use x="458.642578" xlink:href="#DejaVuSans-75"/>
      <use x="522.021484" xlink:href="#DejaVuSans-6e"/>
      <use x="585.400391" xlink:href="#DejaVuSans-6b"/>
      <use x="643.310547" xlink:href="#DejaVuSans-63"/>
      <use x="698.291016" xlink:href="#DejaVuSans-6a"/>
      <use x="726.074219" xlink:href="#DejaVuSans-69"/>
      <use x="753.857422" xlink:href="#DejaVuSans-20"/>
      <use x="785.644531" xlink:href="#DejaVuSans-6e"/>
      <use x="849.023438" xlink:href="#DejaVuSans-61"/>
      <use x="910.302734" xlink:href="#DejaVuSans-67"/>
      <use x="973.779297" xlink:href="#DejaVuSans-72"/>
      <use x="1012.642578" xlink:href="#DejaVuSans-6f"/>
      <use x="1073.824219" xlink:href="#DejaVuSans-64"/>
      <use x="1137.300781" xlink:href="#DejaVuSans-79"/>
     </g>
    </g>
   </g>
   <g id="line2d_12">
    <path clip-path="url(#p3aee33628b)" d="M 115.363636 88.887273 
L 118.408491 88.887273 
L 118.611481 91.421538 
L 121.656335 91.421538 
L 121.859326 93.955804 
L 124.90418 93.955804 
L 125.10717 96.49007 
L 128.152024 96.49007 
L 128.355015 99.024336 
L 131.399869 99.024336 
L 131.602859 101.558601 
L 134.647714 101.558601 
L 134.850704 104.092867 
L 137.895558 104.092867 
L 138.098549 106.627133 
L 141.143403 106.627133 
L 141.346393 109.161399 
L 144.391247 109.161399 
L 144.594238 111.695664 
L 147.639092 111.695664 
L 147.842082 114.22993 
L 150.886937 114.22993 
L 151.089927 116.764196 
L 154.134781 116.764196 
L 154.337771 119.298462 
L 157.382626 119.298462 
L 157.585616 121.832727 
L 160.63047 121.832727 
L 160.833461 124.366993 
L 163.878315 124.366993 
L 164.081305 126.901259 
L 167.12616 126.901259 
L 167.32915 129.435524 
L 170.374004 129.435524 
L 170.576994 131.96979 
L 173.621849 131.96979 
L 173.824839 134.504056 
L 176.869693 134.504056 
L 177.072684 137.038322 
L 180.117538 137.038322 
L 180.320528 139.572587 
L 183.365383 139.572587 
L 183.568373 142.106853 
L 186.613227 142.106853 
L 186.816217 144.641119 
L 189.861072 144.641119 
L 190.064062 147.175385 
L 193.108916 147.175385 
L 193.311907 149.70965 
L 196.356761 149.70965 
L 196.559751 152.243916 
L 199.604605 152.243916 
L 199.807596 154.778182 
L 202.85245 154.778182 
L 203.05544 157.312448 
L 206.100295 157.312448 
L 206.303285 159.846713 
L 209.348139 159.846713 
L 209.55113 162.380979 
L 212.595984 162.380979 
L 212.798974 164.915245 
L 215.843828 164.915245 
L 216.046819 167.44951 
L 219.091673 167.44951 
L 219.294663 169.983776 
L 222.339518 169.983776 
L 222.542508 172.518042 
L 225.587362 172.518042 
L 225.790353 175.052308 
L 228.835207 175.052308 
L 229.038197 177.586573 
L 232.083051 177.586573 
L 232.286042 180.120839 
L 235.330896 180.120839 
L 235.533886 182.655105 
L 238.578741 182.655105 
L 238.781731 185.189371 
L 241.826585 185.189371 
L 242.029575 187.723636 
L 245.07443 187.723636 
L 245.27742 190.257902 
L 248.322274 190.257902 
L 248.525265 192.792168 
L 251.570119 192.792168 
L 251.773109 195.326434 
L 254.817964 195.326434 
L 255.020954 197.860699 
L 258.065808 197.860699 
L 258.268798 200.394965 
L 261.313653 200.394965 
L 261.516643 202.929231 
L 264.561497 202.929231 
L 264.764488 205.463497 
L 267.809342 205.463497 
L 268.012332 207.997762 
L 271.057187 207.997762 
L 271.260177 210.532028 
L 274.305031 210.532028 
L 274.508021 213.066294 
L 277.552876 213.066294 
L 277.755866 215.600559 
L 280.80072 215.600559 
L 281.003711 218.134825 
L 284.048565 218.134825 
L 284.251555 220.669091 
L 287.296409 220.669091 
L 287.4994 223.203357 
L 290.544254 223.203357 
L 290.747244 225.737622 
L 293.792099 225.737622 
L 293.995089 228.271888 
L 297.039943 228.271888 
L 297.242934 230.806154 
L 300.287788 230.806154 
L 300.490778 233.34042 
L 303.535632 233.34042 
L 303.738623 235.874685 
L 306.783477 235.874685 
L 306.986467 238.408951 
L 310.031322 238.408951 
L 310.234312 240.943217 
L 313.279166 240.943217 
L 313.482156 243.477483 
L 316.527011 243.477483 
L 316.730001 246.011748 
L 319.774855 246.011748 
L 319.977846 248.546014 
L 323.0227 248.546014 
L 323.22569 251.08028 
L 326.270545 251.08028 
L 326.473535 253.614545 
L 329.518389 253.614545 
L 329.721379 256.148811 
L 332.766234 256.148811 
L 332.969224 258.683077 
L 336.014078 258.683077 
L 336.217069 261.217343 
L 339.261923 261.217343 
L 339.464913 263.751608 
L 342.509768 263.751608 
L 342.712758 266.285874 
L 345.757612 266.285874 
L 345.960602 268.82014 
L 349.005457 268.82014 
L 349.208447 271.354406 
L 352.253301 271.354406 
L 352.456292 273.888671 
L 355.501146 273.888671 
L 355.704136 276.422937 
L 358.748991 276.422937 
L 358.951981 278.957203 
L 361.996835 278.957203 
L 362.199825 281.491469 
L 365.24468 281.491469 
L 365.44767 284.025734 
L 368.492524 284.025734 
L 368.695515 286.56 
L 371.740369 286.56 
L 371.943359 289.094266 
L 374.988213 289.094266 
L 375.191204 291.628531 
L 378.236058 291.628531 
L 378.439048 294.162797 
L 381.483903 294.162797 
L 381.686893 296.697063 
L 384.731747 296.697063 
L 384.934738 299.231329 
L 387.979592 299.231329 
L 388.182582 301.765594 
L 391.227436 301.765594 
L 391.430427 304.29986 
L 394.475281 304.29986 
L 394.678271 306.834126 
L 397.723126 306.834126 
L 397.926116 309.368392 
L 400.97097 309.368392 
L 401.17396 311.902657 
L 404.218815 311.902657 
L 404.421805 314.436923 
L 407.466659 314.436923 
L 407.66965 316.971189 
L 410.714504 316.971189 
L 410.917494 319.505455 
L 413.962349 319.505455 
L 414.165339 322.03972 
L 417.210193 322.03972 
L 417.413183 324.573986 
L 420.458038 324.573986 
L 420.661028 327.108252 
L 423.705882 327.108252 
L 423.908873 329.642517 
L 426.953727 329.642517 
L 427.156717 332.176783 
L 430.201572 332.176783 
L 430.404562 334.711049 
L 433.449416 334.711049 
L 433.652406 337.245315 
L 436.697261 337.245315 
L 436.900251 339.77958 
L 439.945105 339.77958 
L 440.148096 342.313846 
L 443.19295 342.313846 
L 443.39594 344.848112 
L 446.440794 344.848112 
L 446.643785 347.382378 
L 449.688639 347.382378 
L 449.891629 349.916643 
L 452.936484 349.916643 
L 453.139474 352.450909 
L 456.184328 352.450909 
L 456.387319 354.985175 
L 459.432173 354.985175 
L 459.635163 357.519441 
L 462.680017 357.519441 
L 462.883008 360.053706 
L 465.927862 360.053706 
L 466.130852 362.587972 
L 469.175707 362.587972 
L 469.378697 365.122238 
L 472.423551 365.122238 
L 472.626542 367.656503 
L 475.671396 367.656503 
L 475.874386 370.190769 
L 478.91924 370.190769 
L 479.122231 372.725035 
L 482.167085 372.725035 
L 482.370075 375.259301 
L 485.41493 375.259301 
L 485.61792 377.793566 
L 488.662774 377.793566 
L 488.865764 380.327832 
L 491.910619 380.327832 
L 492.113609 382.862098 
L 495.158463 382.862098 
L 495.361454 385.396364 
L 498.406308 385.396364 
L 498.609298 387.930629 
L 501.654153 387.930629 
L 501.857143 390.464895 
L 504.901997 390.464895 
L 505.104987 392.999161 
L 508.149842 392.999161 
L 508.352832 395.533427 
L 511.397686 395.533427 
L 511.600677 398.067692 
L 514.645531 398.067692 
L 514.848521 400.601958 
L 517.893376 400.601958 
L 518.096366 403.136224 
L 521.14122 403.136224 
L 521.34421 405.67049 
L 524.389065 405.67049 
L 524.592055 408.204755 
L 527.636909 408.204755 
L 527.8399 410.739021 
L 530.884754 410.739021 
L 531.087744 413.273287 
L 534.132598 413.273287 
L 534.335589 415.807552 
L 537.380443 415.807552 
L 537.583433 418.341818 
L 540.628288 418.341818 
L 540.831278 420.876084 
L 543.876132 420.876084 
L 544.079123 423.41035 
L 547.123977 423.41035 
L 547.326967 425.944615 
L 550.371821 425.944615 
L 550.574812 428.478881 
L 553.619666 428.478881 
L 553.822656 431.013147 
L 556.867511 431.013147 
L 557.070501 433.547413 
L 560.115355 433.547413 
L 560.318346 436.081678 
L 563.3632 436.081678 
L 563.56619 438.615944 
L 566.611044 438.615944 
L 566.814035 441.15021 
L 569.858889 441.15021 
L 570.061879 443.684476 
L 573.106734 443.684476 
L 573.309724 446.218741 
L 576.354578 446.218741 
L 576.557568 448.753007 
L 579.602423 448.753007 
L 579.805413 451.287273 
L 582.850267 451.287273 
L 583.053258 453.821538 
L 586.098112 453.821538 
L 586.301102 456.355804 
L 589.345957 456.355804 
L 589.548947 458.89007 
L 592.593801 458.89007 
L 592.796791 461.424336 
L 595.841646 461.424336 
L 596.044636 463.958601 
L 599.08949 463.958601 
L 599.292481 466.492867 
L 602.337335 466.492867 
L 602.540325 469.027133 
L 605.58518 469.027133 
L 605.78817 471.561399 
L 608.833024 471.561399 
L 609.036014 474.095664 
L 612.080869 474.095664 
L 612.283859 476.62993 
L 615.328713 476.62993 
L 615.531704 479.164196 
L 618.576558 479.164196 
L 618.779548 481.698462 
L 621.824402 481.698462 
L 622.027393 484.232727 
L 622.636364 484.232727 
L 622.636364 484.232727 
" style="fill:none;stroke:#1f77b4;stroke-linecap:square;stroke-width:1.5;"/>
   </g>
   <g id="patch_3">
    <path d="M 90 504 
L 90 69.12 
" style="fill:none;stroke:#000000;stroke-linecap:square;stroke-linejoin:miter;stroke-width:0.8;"/>
   </g>
   <g id="patch_4">
    <path d="M 648 504 
L 648 69.12 
" style="fill:none;stroke:#000000;stroke-linecap:square;stroke-linejoin:miter;stroke-width:0.8;"/>
   </g>
   <g id="patch_5">
    <path d="M 90 504 
L 648 504 
" style="fill:none;stroke:#000000;stroke-linecap:square;stroke-linejoin:miter;stroke-width:0.8;"/>
   </g>
   <g id="patch_6">
    <path d="M 90 69.12 
L 648 69.12 
" style="fill:none;stroke:#000000;stroke-linecap:square;stroke-linejoin:miter;stroke-width:0.8;"/>
   </g>
  </g>
 </g>
 <defs>
  <clipPath id="p3aee33628b">
   <rect height="434.88" width="558" x="90" y="69.12"/>
  </clipPath>
 </defs>
</svg>
