<?xml version="1.0" encoding="utf-8" standalone="no"?>
<!DOCTYPE svg PUBLIC "-//W3C//DTD SVG 1.1//EN"
  "http://www.w3.org/Graphics/SVG/1.1/DTD/svg11.dtd">
<svg height="576pt" version="1.1" viewBox="0 0 720 576" width="720pt" xmlns="http://www.w3.org/2000/svg" xmlns:xlink="http://www.w3.org/1999/xlink">
 <metadata>
  <rdf:RDF xmlns:cc="http://creativecommons.org/ns#" xmlns:dc="http://purl.org/dc/elements/1.1/" xmlns:rdf="http://www.w3.org/1999/02/22-rdf-syntax-ns#">
   <cc:Work>
    <dc:type rdf:resource="http://purl.org/dc/dcmitype/StillImage"/>
    <dc:date>2022-01-19T22:12:17.041528</dc:date>
    <dc:format>image/svg+xml</dc:format>
    <dc:creator>
     <cc:Agent>
      <dc:title>Matplotlib v3.4.3, https://matplotlib.org/</dc:title>
     </cc:Agent>
    </dc:creator>
   </cc:Work>
  </rdf:RDF>
 </metadata>
 <defs>
  <style type="text/css">*{stroke-linecap:butt;stroke-linejoin:round;}</style>
 </defs>
 <g id="figure_1">
  <g id="patch_1">
   <path d="M 0 576 
L 720 576 
L 720 0 
L 0 0 
z
" style="fill:none;"/>
  </g>
  <g id="axes_1">
   <g id="patch_2">
    <path d="M 90 504 
L 648 504 
L 648 69.12 
L 90 69.12 
z
" style="fill:#ffffff;"/>
   </g>
   <g id="matplotlib.axis_1">
    <g id="xtick_1">
     <g id="line2d_1">
      <defs>
       <path d="M 0 0 
L 0 3.5 
" id="m97b84e9c8f" style="stroke:#000000;stroke-width:0.8;"/>
      </defs>
      <g>
       <use style="stroke:#000000;stroke-width:0.8;" x="115.363636" xlink:href="#m97b84e9c8f" y="504"/>
      </g>
     </g>
     <g id="text_1">
      <!-- 0 -->
      <g transform="translate(108.364886 527.716563)scale(0.22 -0.22)">
       <defs>
        <path d="M 2034 4250 
Q 1547 4250 1301 3770 
Q 1056 3291 1056 2328 
Q 1056 1369 1301 889 
Q 1547 409 2034 409 
Q 2525 409 2770 889 
Q 3016 1369 3016 2328 
Q 3016 3291 2770 3770 
Q 2525 4250 2034 4250 
z
M 2034 4750 
Q 2819 4750 3233 4129 
Q 3647 3509 3647 2328 
Q 3647 1150 3233 529 
Q 2819 -91 2034 -91 
Q 1250 -91 836 529 
Q 422 1150 422 2328 
Q 422 3509 836 4129 
Q 1250 4750 2034 4750 
z
" id="DejaVuSans-30" transform="scale(0.015625)"/>
       </defs>
       <use xlink:href="#DejaVuSans-30"/>
      </g>
     </g>
    </g>
    <g id="xtick_2">
     <g id="line2d_2">
      <g>
       <use style="stroke:#000000;stroke-width:0.8;" x="216.85878" xlink:href="#m97b84e9c8f" y="504"/>
      </g>
     </g>
     <g id="text_2">
      <!-- 500 -->
      <g transform="translate(195.86253 527.716563)scale(0.22 -0.22)">
       <defs>
        <path d="M 691 4666 
L 3169 4666 
L 3169 4134 
L 1269 4134 
L 1269 2991 
Q 1406 3038 1543 3061 
Q 1681 3084 1819 3084 
Q 2600 3084 3056 2656 
Q 3513 2228 3513 1497 
Q 3513 744 3044 326 
Q 2575 -91 1722 -91 
Q 1428 -91 1123 -41 
Q 819 9 494 109 
L 494 744 
Q 775 591 1075 516 
Q 1375 441 1709 441 
Q 2250 441 2565 725 
Q 2881 1009 2881 1497 
Q 2881 1984 2565 2268 
Q 2250 2553 1709 2553 
Q 1456 2553 1204 2497 
Q 953 2441 691 2322 
L 691 4666 
z
" id="DejaVuSans-35" transform="scale(0.015625)"/>
       </defs>
       <use xlink:href="#DejaVuSans-35"/>
       <use x="63.623047" xlink:href="#DejaVuSans-30"/>
       <use x="127.246094" xlink:href="#DejaVuSans-30"/>
      </g>
     </g>
    </g>
    <g id="xtick_3">
     <g id="line2d_3">
      <g>
       <use style="stroke:#000000;stroke-width:0.8;" x="318.353923" xlink:href="#m97b84e9c8f" y="504"/>
      </g>
     </g>
     <g id="text_3">
      <!-- 1000 -->
      <g transform="translate(290.358923 527.716563)scale(0.22 -0.22)">
       <defs>
        <path d="M 794 531 
L 1825 531 
L 1825 4091 
L 703 3866 
L 703 4441 
L 1819 4666 
L 2450 4666 
L 2450 531 
L 3481 531 
L 3481 0 
L 794 0 
L 794 531 
z
" id="DejaVuSans-31" transform="scale(0.015625)"/>
       </defs>
       <use xlink:href="#DejaVuSans-31"/>
       <use x="63.623047" xlink:href="#DejaVuSans-30"/>
       <use x="127.246094" xlink:href="#DejaVuSans-30"/>
       <use x="190.869141" xlink:href="#DejaVuSans-30"/>
      </g>
     </g>
    </g>
    <g id="xtick_4">
     <g id="line2d_4">
      <g>
       <use style="stroke:#000000;stroke-width:0.8;" x="419.849067" xlink:href="#m97b84e9c8f" y="504"/>
      </g>
     </g>
     <g id="text_4">
      <!-- 1500 -->
      <g transform="translate(391.854067 527.716563)scale(0.22 -0.22)">
       <use xlink:href="#DejaVuSans-31"/>
       <use x="63.623047" xlink:href="#DejaVuSans-35"/>
       <use x="127.246094" xlink:href="#DejaVuSans-30"/>
       <use x="190.869141" xlink:href="#DejaVuSans-30"/>
      </g>
     </g>
    </g>
    <g id="xtick_5">
     <g id="line2d_5">
      <g>
       <use style="stroke:#000000;stroke-width:0.8;" x="521.34421" xlink:href="#m97b84e9c8f" y="504"/>
      </g>
     </g>
     <g id="text_5">
      <!-- 2000 -->
      <g transform="translate(493.34921 527.716563)scale(0.22 -0.22)">
       <defs>
        <path d="M 1228 531 
L 3431 531 
L 3431 0 
L 469 0 
L 469 531 
Q 828 903 1448 1529 
Q 2069 2156 2228 2338 
Q 2531 2678 2651 2914 
Q 2772 3150 2772 3378 
Q 2772 3750 2511 3984 
Q 2250 4219 1831 4219 
Q 1534 4219 1204 4116 
Q 875 4013 500 3803 
L 500 4441 
Q 881 4594 1212 4672 
Q 1544 4750 1819 4750 
Q 2544 4750 2975 4387 
Q 3406 4025 3406 3419 
Q 3406 3131 3298 2873 
Q 3191 2616 2906 2266 
Q 2828 2175 2409 1742 
Q 1991 1309 1228 531 
z
" id="DejaVuSans-32" transform="scale(0.015625)"/>
       </defs>
       <use xlink:href="#DejaVuSans-32"/>
       <use x="63.623047" xlink:href="#DejaVuSans-30"/>
       <use x="127.246094" xlink:href="#DejaVuSans-30"/>
       <use x="190.869141" xlink:href="#DejaVuSans-30"/>
      </g>
     </g>
    </g>
    <g id="xtick_6">
     <g id="line2d_6">
      <g>
       <use style="stroke:#000000;stroke-width:0.8;" x="622.839354" xlink:href="#m97b84e9c8f" y="504"/>
      </g>
     </g>
     <g id="text_6">
      <!-- 2500 -->
      <g transform="translate(594.844354 527.716563)scale(0.22 -0.22)">
       <use xlink:href="#DejaVuSans-32"/>
       <use x="63.623047" xlink:href="#DejaVuSans-35"/>
       <use x="127.246094" xlink:href="#DejaVuSans-30"/>
       <use x="190.869141" xlink:href="#DejaVuSans-30"/>
      </g>
     </g>
    </g>
    <g id="text_7">
     <!-- nr iteracji epizodu -->
     <g transform="translate(269.688906 553.008438)scale(0.22 -0.22)">
      <defs>
       <path d="M 3513 2113 
L 3513 0 
L 2938 0 
L 2938 2094 
Q 2938 2591 2744 2837 
Q 2550 3084 2163 3084 
Q 1697 3084 1428 2787 
Q 1159 2491 1159 1978 
L 1159 0 
L 581 0 
L 581 3500 
L 1159 3500 
L 1159 2956 
Q 1366 3272 1645 3428 
Q 1925 3584 2291 3584 
Q 2894 3584 3203 3211 
Q 3513 2838 3513 2113 
z
" id="DejaVuSans-6e" transform="scale(0.015625)"/>
       <path d="M 2631 2963 
Q 2534 3019 2420 3045 
Q 2306 3072 2169 3072 
Q 1681 3072 1420 2755 
Q 1159 2438 1159 1844 
L 1159 0 
L 581 0 
L 581 3500 
L 1159 3500 
L 1159 2956 
Q 1341 3275 1631 3429 
Q 1922 3584 2338 3584 
Q 2397 3584 2469 3576 
Q 2541 3569 2628 3553 
L 2631 2963 
z
" id="DejaVuSans-72" transform="scale(0.015625)"/>
       <path id="DejaVuSans-20" transform="scale(0.015625)"/>
       <path d="M 603 3500 
L 1178 3500 
L 1178 0 
L 603 0 
L 603 3500 
z
M 603 4863 
L 1178 4863 
L 1178 4134 
L 603 4134 
L 603 4863 
z
" id="DejaVuSans-69" transform="scale(0.015625)"/>
       <path d="M 1172 4494 
L 1172 3500 
L 2356 3500 
L 2356 3053 
L 1172 3053 
L 1172 1153 
Q 1172 725 1289 603 
Q 1406 481 1766 481 
L 2356 481 
L 2356 0 
L 1766 0 
Q 1100 0 847 248 
Q 594 497 594 1153 
L 594 3053 
L 172 3053 
L 172 3500 
L 594 3500 
L 594 4494 
L 1172 4494 
z
" id="DejaVuSans-74" transform="scale(0.015625)"/>
       <path d="M 3597 1894 
L 3597 1613 
L 953 1613 
Q 991 1019 1311 708 
Q 1631 397 2203 397 
Q 2534 397 2845 478 
Q 3156 559 3463 722 
L 3463 178 
Q 3153 47 2828 -22 
Q 2503 -91 2169 -91 
Q 1331 -91 842 396 
Q 353 884 353 1716 
Q 353 2575 817 3079 
Q 1281 3584 2069 3584 
Q 2775 3584 3186 3129 
Q 3597 2675 3597 1894 
z
M 3022 2063 
Q 3016 2534 2758 2815 
Q 2500 3097 2075 3097 
Q 1594 3097 1305 2825 
Q 1016 2553 972 2059 
L 3022 2063 
z
" id="DejaVuSans-65" transform="scale(0.015625)"/>
       <path d="M 2194 1759 
Q 1497 1759 1228 1600 
Q 959 1441 959 1056 
Q 959 750 1161 570 
Q 1363 391 1709 391 
Q 2188 391 2477 730 
Q 2766 1069 2766 1631 
L 2766 1759 
L 2194 1759 
z
M 3341 1997 
L 3341 0 
L 2766 0 
L 2766 531 
Q 2569 213 2275 61 
Q 1981 -91 1556 -91 
Q 1019 -91 701 211 
Q 384 513 384 1019 
Q 384 1609 779 1909 
Q 1175 2209 1959 2209 
L 2766 2209 
L 2766 2266 
Q 2766 2663 2505 2880 
Q 2244 3097 1772 3097 
Q 1472 3097 1187 3025 
Q 903 2953 641 2809 
L 641 3341 
Q 956 3463 1253 3523 
Q 1550 3584 1831 3584 
Q 2591 3584 2966 3190 
Q 3341 2797 3341 1997 
z
" id="DejaVuSans-61" transform="scale(0.015625)"/>
       <path d="M 3122 3366 
L 3122 2828 
Q 2878 2963 2633 3030 
Q 2388 3097 2138 3097 
Q 1578 3097 1268 2742 
Q 959 2388 959 1747 
Q 959 1106 1268 751 
Q 1578 397 2138 397 
Q 2388 397 2633 464 
Q 2878 531 3122 666 
L 3122 134 
Q 2881 22 2623 -34 
Q 2366 -91 2075 -91 
Q 1284 -91 818 406 
Q 353 903 353 1747 
Q 353 2603 823 3093 
Q 1294 3584 2113 3584 
Q 2378 3584 2631 3529 
Q 2884 3475 3122 3366 
z
" id="DejaVuSans-63" transform="scale(0.015625)"/>
       <path d="M 603 3500 
L 1178 3500 
L 1178 -63 
Q 1178 -731 923 -1031 
Q 669 -1331 103 -1331 
L -116 -1331 
L -116 -844 
L 38 -844 
Q 366 -844 484 -692 
Q 603 -541 603 -63 
L 603 3500 
z
M 603 4863 
L 1178 4863 
L 1178 4134 
L 603 4134 
L 603 4863 
z
" id="DejaVuSans-6a" transform="scale(0.015625)"/>
       <path d="M 1159 525 
L 1159 -1331 
L 581 -1331 
L 581 3500 
L 1159 3500 
L 1159 2969 
Q 1341 3281 1617 3432 
Q 1894 3584 2278 3584 
Q 2916 3584 3314 3078 
Q 3713 2572 3713 1747 
Q 3713 922 3314 415 
Q 2916 -91 2278 -91 
Q 1894 -91 1617 61 
Q 1341 213 1159 525 
z
M 3116 1747 
Q 3116 2381 2855 2742 
Q 2594 3103 2138 3103 
Q 1681 3103 1420 2742 
Q 1159 2381 1159 1747 
Q 1159 1113 1420 752 
Q 1681 391 2138 391 
Q 2594 391 2855 752 
Q 3116 1113 3116 1747 
z
" id="DejaVuSans-70" transform="scale(0.015625)"/>
       <path d="M 353 3500 
L 3084 3500 
L 3084 2975 
L 922 459 
L 3084 459 
L 3084 0 
L 275 0 
L 275 525 
L 2438 3041 
L 353 3041 
L 353 3500 
z
" id="DejaVuSans-7a" transform="scale(0.015625)"/>
       <path d="M 1959 3097 
Q 1497 3097 1228 2736 
Q 959 2375 959 1747 
Q 959 1119 1226 758 
Q 1494 397 1959 397 
Q 2419 397 2687 759 
Q 2956 1122 2956 1747 
Q 2956 2369 2687 2733 
Q 2419 3097 1959 3097 
z
M 1959 3584 
Q 2709 3584 3137 3096 
Q 3566 2609 3566 1747 
Q 3566 888 3137 398 
Q 2709 -91 1959 -91 
Q 1206 -91 779 398 
Q 353 888 353 1747 
Q 353 2609 779 3096 
Q 1206 3584 1959 3584 
z
" id="DejaVuSans-6f" transform="scale(0.015625)"/>
       <path d="M 2906 2969 
L 2906 4863 
L 3481 4863 
L 3481 0 
L 2906 0 
L 2906 525 
Q 2725 213 2448 61 
Q 2172 -91 1784 -91 
Q 1150 -91 751 415 
Q 353 922 353 1747 
Q 353 2572 751 3078 
Q 1150 3584 1784 3584 
Q 2172 3584 2448 3432 
Q 2725 3281 2906 2969 
z
M 947 1747 
Q 947 1113 1208 752 
Q 1469 391 1925 391 
Q 2381 391 2643 752 
Q 2906 1113 2906 1747 
Q 2906 2381 2643 2742 
Q 2381 3103 1925 3103 
Q 1469 3103 1208 2742 
Q 947 2381 947 1747 
z
" id="DejaVuSans-64" transform="scale(0.015625)"/>
       <path d="M 544 1381 
L 544 3500 
L 1119 3500 
L 1119 1403 
Q 1119 906 1312 657 
Q 1506 409 1894 409 
Q 2359 409 2629 706 
Q 2900 1003 2900 1516 
L 2900 3500 
L 3475 3500 
L 3475 0 
L 2900 0 
L 2900 538 
Q 2691 219 2414 64 
Q 2138 -91 1772 -91 
Q 1169 -91 856 284 
Q 544 659 544 1381 
z
M 1991 3584 
L 1991 3584 
z
" id="DejaVuSans-75" transform="scale(0.015625)"/>
      </defs>
      <use xlink:href="#DejaVuSans-6e"/>
      <use x="63.378906" xlink:href="#DejaVuSans-72"/>
      <use x="104.492188" xlink:href="#DejaVuSans-20"/>
      <use x="136.279297" xlink:href="#DejaVuSans-69"/>
      <use x="164.0625" xlink:href="#DejaVuSans-74"/>
      <use x="203.271484" xlink:href="#DejaVuSans-65"/>
      <use x="264.794922" xlink:href="#DejaVuSans-72"/>
      <use x="305.908203" xlink:href="#DejaVuSans-61"/>
      <use x="367.1875" xlink:href="#DejaVuSans-63"/>
      <use x="422.167969" xlink:href="#DejaVuSans-6a"/>
      <use x="449.951172" xlink:href="#DejaVuSans-69"/>
      <use x="477.734375" xlink:href="#DejaVuSans-20"/>
      <use x="509.521484" xlink:href="#DejaVuSans-65"/>
      <use x="571.044922" xlink:href="#DejaVuSans-70"/>
      <use x="634.521484" xlink:href="#DejaVuSans-69"/>
      <use x="662.304688" xlink:href="#DejaVuSans-7a"/>
      <use x="714.794922" xlink:href="#DejaVuSans-6f"/>
      <use x="775.976562" xlink:href="#DejaVuSans-64"/>
      <use x="839.453125" xlink:href="#DejaVuSans-75"/>
     </g>
    </g>
   </g>
   <g id="matplotlib.axis_2">
    <g id="ytick_1">
     <g id="line2d_7">
      <defs>
       <path d="M 0 0 
L -3.5 0 
" id="mf49156aca1" style="stroke:#000000;stroke-width:0.8;"/>
      </defs>
      <g>
       <use style="stroke:#000000;stroke-width:0.8;" x="90" xlink:href="#mf49156aca1" y="488.607983"/>
      </g>
     </g>
     <g id="text_8">
      <!-- −2000 -->
      <g transform="translate(8.574687 496.966265)scale(0.22 -0.22)">
       <defs>
        <path d="M 678 2272 
L 4684 2272 
L 4684 1741 
L 678 1741 
L 678 2272 
z
" id="DejaVuSans-2212" transform="scale(0.015625)"/>
       </defs>
       <use xlink:href="#DejaVuSans-2212"/>
       <use x="83.789062" xlink:href="#DejaVuSans-32"/>
       <use x="147.412109" xlink:href="#DejaVuSans-30"/>
       <use x="211.035156" xlink:href="#DejaVuSans-30"/>
       <use x="274.658203" xlink:href="#DejaVuSans-30"/>
      </g>
     </g>
    </g>
    <g id="ytick_2">
     <g id="line2d_8">
      <g>
       <use style="stroke:#000000;stroke-width:0.8;" x="90" xlink:href="#mf49156aca1" y="415.165856"/>
      </g>
     </g>
     <g id="text_9">
      <!-- 0 -->
      <g transform="translate(69.0025 423.524137)scale(0.22 -0.22)">
       <use xlink:href="#DejaVuSans-30"/>
      </g>
     </g>
    </g>
    <g id="ytick_3">
     <g id="line2d_9">
      <g>
       <use style="stroke:#000000;stroke-width:0.8;" x="90" xlink:href="#mf49156aca1" y="341.723728"/>
      </g>
     </g>
     <g id="text_10">
      <!-- 2000 -->
      <g transform="translate(27.01 350.082009)scale(0.22 -0.22)">
       <use xlink:href="#DejaVuSans-32"/>
       <use x="63.623047" xlink:href="#DejaVuSans-30"/>
       <use x="127.246094" xlink:href="#DejaVuSans-30"/>
       <use x="190.869141" xlink:href="#DejaVuSans-30"/>
      </g>
     </g>
    </g>
    <g id="ytick_4">
     <g id="line2d_10">
      <g>
       <use style="stroke:#000000;stroke-width:0.8;" x="90" xlink:href="#mf49156aca1" y="268.2816"/>
      </g>
     </g>
     <g id="text_11">
      <!-- 4000 -->
      <g transform="translate(27.01 276.639881)scale(0.22 -0.22)">
       <defs>
        <path d="M 2419 4116 
L 825 1625 
L 2419 1625 
L 2419 4116 
z
M 2253 4666 
L 3047 4666 
L 3047 1625 
L 3713 1625 
L 3713 1100 
L 3047 1100 
L 3047 0 
L 2419 0 
L 2419 1100 
L 313 1100 
L 313 1709 
L 2253 4666 
z
" id="DejaVuSans-34" transform="scale(0.015625)"/>
       </defs>
       <use xlink:href="#DejaVuSans-34"/>
       <use x="63.623047" xlink:href="#DejaVuSans-30"/>
       <use x="127.246094" xlink:href="#DejaVuSans-30"/>
       <use x="190.869141" xlink:href="#DejaVuSans-30"/>
      </g>
     </g>
    </g>
    <g id="ytick_5">
     <g id="line2d_11">
      <g>
       <use style="stroke:#000000;stroke-width:0.8;" x="90" xlink:href="#mf49156aca1" y="194.839472"/>
      </g>
     </g>
     <g id="text_12">
      <!-- 6000 -->
      <g transform="translate(27.01 203.197754)scale(0.22 -0.22)">
       <defs>
        <path d="M 2113 2584 
Q 1688 2584 1439 2293 
Q 1191 2003 1191 1497 
Q 1191 994 1439 701 
Q 1688 409 2113 409 
Q 2538 409 2786 701 
Q 3034 994 3034 1497 
Q 3034 2003 2786 2293 
Q 2538 2584 2113 2584 
z
M 3366 4563 
L 3366 3988 
Q 3128 4100 2886 4159 
Q 2644 4219 2406 4219 
Q 1781 4219 1451 3797 
Q 1122 3375 1075 2522 
Q 1259 2794 1537 2939 
Q 1816 3084 2150 3084 
Q 2853 3084 3261 2657 
Q 3669 2231 3669 1497 
Q 3669 778 3244 343 
Q 2819 -91 2113 -91 
Q 1303 -91 875 529 
Q 447 1150 447 2328 
Q 447 3434 972 4092 
Q 1497 4750 2381 4750 
Q 2619 4750 2861 4703 
Q 3103 4656 3366 4563 
z
" id="DejaVuSans-36" transform="scale(0.015625)"/>
       </defs>
       <use xlink:href="#DejaVuSans-36"/>
       <use x="63.623047" xlink:href="#DejaVuSans-30"/>
       <use x="127.246094" xlink:href="#DejaVuSans-30"/>
       <use x="190.869141" xlink:href="#DejaVuSans-30"/>
      </g>
     </g>
    </g>
    <g id="ytick_6">
     <g id="line2d_12">
      <g>
       <use style="stroke:#000000;stroke-width:0.8;" x="90" xlink:href="#mf49156aca1" y="121.397345"/>
      </g>
     </g>
     <g id="text_13">
      <!-- 8000 -->
      <g transform="translate(27.01 129.755626)scale(0.22 -0.22)">
       <defs>
        <path d="M 2034 2216 
Q 1584 2216 1326 1975 
Q 1069 1734 1069 1313 
Q 1069 891 1326 650 
Q 1584 409 2034 409 
Q 2484 409 2743 651 
Q 3003 894 3003 1313 
Q 3003 1734 2745 1975 
Q 2488 2216 2034 2216 
z
M 1403 2484 
Q 997 2584 770 2862 
Q 544 3141 544 3541 
Q 544 4100 942 4425 
Q 1341 4750 2034 4750 
Q 2731 4750 3128 4425 
Q 3525 4100 3525 3541 
Q 3525 3141 3298 2862 
Q 3072 2584 2669 2484 
Q 3125 2378 3379 2068 
Q 3634 1759 3634 1313 
Q 3634 634 3220 271 
Q 2806 -91 2034 -91 
Q 1263 -91 848 271 
Q 434 634 434 1313 
Q 434 1759 690 2068 
Q 947 2378 1403 2484 
z
M 1172 3481 
Q 1172 3119 1398 2916 
Q 1625 2713 2034 2713 
Q 2441 2713 2670 2916 
Q 2900 3119 2900 3481 
Q 2900 3844 2670 4047 
Q 2441 4250 2034 4250 
Q 1625 4250 1398 4047 
Q 1172 3844 1172 3481 
z
" id="DejaVuSans-38" transform="scale(0.015625)"/>
       </defs>
       <use xlink:href="#DejaVuSans-38"/>
       <use x="63.623047" xlink:href="#DejaVuSans-30"/>
       <use x="127.246094" xlink:href="#DejaVuSans-30"/>
       <use x="190.869141" xlink:href="#DejaVuSans-30"/>
      </g>
     </g>
    </g>
    <g id="text_14">
     <!-- wartość funkcji nagrody -->
     <g transform="translate(-0.000625 418.171562)rotate(-90)scale(0.22 -0.22)">
      <defs>
       <path d="M 269 3500 
L 844 3500 
L 1563 769 
L 2278 3500 
L 2956 3500 
L 3675 769 
L 4391 3500 
L 4966 3500 
L 4050 0 
L 3372 0 
L 2619 2869 
L 1863 0 
L 1184 0 
L 269 3500 
z
" id="DejaVuSans-77" transform="scale(0.015625)"/>
       <path d="M 2242 5119 
L 2864 5119 
L 1846 3944 
L 1367 3944 
L 2242 5119 
z
M 2834 3397 
L 2834 2853 
Q 2591 2978 2328 3040 
Q 2066 3103 1784 3103 
Q 1356 3103 1142 2972 
Q 928 2841 928 2578 
Q 928 2378 1081 2264 
Q 1234 2150 1697 2047 
L 1894 2003 
Q 2506 1872 2764 1633 
Q 3022 1394 3022 966 
Q 3022 478 2636 193 
Q 2250 -91 1575 -91 
Q 1294 -91 989 -36 
Q 684 19 347 128 
L 347 722 
Q 666 556 975 473 
Q 1284 391 1588 391 
Q 1994 391 2212 530 
Q 2431 669 2431 922 
Q 2431 1156 2273 1281 
Q 2116 1406 1581 1522 
L 1381 1569 
Q 847 1681 609 1914 
Q 372 2147 372 2553 
Q 372 3047 722 3315 
Q 1072 3584 1716 3584 
Q 2034 3584 2315 3537 
Q 2597 3491 2834 3397 
z
" id="DejaVuSans-15b" transform="scale(0.015625)"/>
       <path d="M 3122 3366 
L 3122 2828 
Q 2878 2963 2633 3030 
Q 2388 3097 2138 3097 
Q 1578 3097 1268 2742 
Q 959 2388 959 1747 
Q 959 1106 1268 751 
Q 1578 397 2138 397 
Q 2388 397 2633 464 
Q 2878 531 3122 666 
L 3122 134 
Q 2881 22 2623 -34 
Q 2366 -91 2075 -91 
Q 1284 -91 818 406 
Q 353 903 353 1747 
Q 353 2603 823 3093 
Q 1294 3584 2113 3584 
Q 2378 3584 2631 3529 
Q 2884 3475 3122 3366 
z
M 2466 5119 
L 3088 5119 
L 2070 3944 
L 1591 3944 
L 2466 5119 
z
" id="DejaVuSans-107" transform="scale(0.015625)"/>
       <path d="M 2375 4863 
L 2375 4384 
L 1825 4384 
Q 1516 4384 1395 4259 
Q 1275 4134 1275 3809 
L 1275 3500 
L 2222 3500 
L 2222 3053 
L 1275 3053 
L 1275 0 
L 697 0 
L 697 3053 
L 147 3053 
L 147 3500 
L 697 3500 
L 697 3744 
Q 697 4328 969 4595 
Q 1241 4863 1831 4863 
L 2375 4863 
z
" id="DejaVuSans-66" transform="scale(0.015625)"/>
       <path d="M 581 4863 
L 1159 4863 
L 1159 1991 
L 2875 3500 
L 3609 3500 
L 1753 1863 
L 3688 0 
L 2938 0 
L 1159 1709 
L 1159 0 
L 581 0 
L 581 4863 
z
" id="DejaVuSans-6b" transform="scale(0.015625)"/>
       <path d="M 2906 1791 
Q 2906 2416 2648 2759 
Q 2391 3103 1925 3103 
Q 1463 3103 1205 2759 
Q 947 2416 947 1791 
Q 947 1169 1205 825 
Q 1463 481 1925 481 
Q 2391 481 2648 825 
Q 2906 1169 2906 1791 
z
M 3481 434 
Q 3481 -459 3084 -895 
Q 2688 -1331 1869 -1331 
Q 1566 -1331 1297 -1286 
Q 1028 -1241 775 -1147 
L 775 -588 
Q 1028 -725 1275 -790 
Q 1522 -856 1778 -856 
Q 2344 -856 2625 -561 
Q 2906 -266 2906 331 
L 2906 616 
Q 2728 306 2450 153 
Q 2172 0 1784 0 
Q 1141 0 747 490 
Q 353 981 353 1791 
Q 353 2603 747 3093 
Q 1141 3584 1784 3584 
Q 2172 3584 2450 3431 
Q 2728 3278 2906 2969 
L 2906 3500 
L 3481 3500 
L 3481 434 
z
" id="DejaVuSans-67" transform="scale(0.015625)"/>
       <path d="M 2059 -325 
Q 1816 -950 1584 -1140 
Q 1353 -1331 966 -1331 
L 506 -1331 
L 506 -850 
L 844 -850 
Q 1081 -850 1212 -737 
Q 1344 -625 1503 -206 
L 1606 56 
L 191 3500 
L 800 3500 
L 1894 763 
L 2988 3500 
L 3597 3500 
L 2059 -325 
z
" id="DejaVuSans-79" transform="scale(0.015625)"/>
      </defs>
      <use xlink:href="#DejaVuSans-77"/>
      <use x="81.787109" xlink:href="#DejaVuSans-61"/>
      <use x="143.066406" xlink:href="#DejaVuSans-72"/>
      <use x="184.179688" xlink:href="#DejaVuSans-74"/>
      <use x="223.388672" xlink:href="#DejaVuSans-6f"/>
      <use x="284.570312" xlink:href="#DejaVuSans-15b"/>
      <use x="336.669922" xlink:href="#DejaVuSans-107"/>
      <use x="391.650391" xlink:href="#DejaVuSans-20"/>
      <use x="423.4375" xlink:href="#DejaVuSans-66"/>
      <use x="458.642578" xlink:href="#DejaVuSans-75"/>
      <use x="522.021484" xlink:href="#DejaVuSans-6e"/>
      <use x="585.400391" xlink:href="#DejaVuSans-6b"/>
      <use x="643.310547" xlink:href="#DejaVuSans-63"/>
      <use x="698.291016" xlink:href="#DejaVuSans-6a"/>
      <use x="726.074219" xlink:href="#DejaVuSans-69"/>
      <use x="753.857422" xlink:href="#DejaVuSans-20"/>
      <use x="785.644531" xlink:href="#DejaVuSans-6e"/>
      <use x="849.023438" xlink:href="#DejaVuSans-61"/>
      <use x="910.302734" xlink:href="#DejaVuSans-67"/>
      <use x="973.779297" xlink:href="#DejaVuSans-72"/>
      <use x="1012.642578" xlink:href="#DejaVuSans-6f"/>
      <use x="1073.824219" xlink:href="#DejaVuSans-64"/>
      <use x="1137.300781" xlink:href="#DejaVuSans-79"/>
     </g>
    </g>
   </g>
   <g id="line2d_13">
    <path clip-path="url(#pe78239f272)" d="M 115.363636 426.255617 
L 126.528102 428.275275 
L 126.731092 427.786006 
L 127.340063 427.675034 
L 128.760995 427.750615 
L 129.978937 427.993098 
L 130.384918 428.204544 
L 130.587908 427.951661 
L 130.790898 427.484895 
L 131.399869 427.317373 
L 132.617811 427.324672 
L 133.835752 427.529646 
L 134.241733 427.693711 
L 134.444723 427.870827 
L 134.647714 427.635724 
L 134.850704 427.177904 
L 135.459675 426.973982 
L 136.474626 426.940269 
L 137.692568 427.10063 
L 138.301539 427.337905 
L 138.504529 427.54617 
L 138.707519 427.323669 
L 138.91051 426.857238 
L 139.31649 426.667067 
L 140.128451 426.567922 
L 141.346393 426.642814 
L 142.158354 426.861311 
L 142.564335 427.211635 
L 142.767325 426.997172 
L 142.970315 426.517037 
L 143.376296 426.307128 
L 144.188257 426.188753 
L 145.406199 426.252571 
L 146.21816 426.478317 
L 146.42115 426.602636 
L 146.624141 426.859288 
L 146.827131 426.650141 
L 147.030121 426.154372 
L 147.436102 425.926439 
L 148.248063 425.790529 
L 149.466005 425.844266 
L 150.277966 426.07658 
L 150.480956 426.208122 
L 150.683946 426.485471 
L 150.886937 426.279915 
L 151.089927 425.767687 
L 151.495907 425.52292 
L 152.307869 425.370658 
L 153.52581 425.415001 
L 154.337771 425.653405 
L 154.540762 425.791643 
L 154.743752 426.08828 
L 154.946742 425.885132 
L 155.149733 425.356079 
L 155.555713 425.095357 
L 156.367674 424.927617 
L 157.382626 424.937065 
L 158.194587 425.114215 
L 158.600567 425.351754 
L 158.803558 425.666612 
L 159.006548 425.465005 
L 159.209538 424.918959 
L 159.615519 424.642958 
L 160.42748 424.460411 
L 161.442432 424.461797 
L 162.254393 424.640905 
L 162.660373 424.887509 
L 162.863364 425.219748 
L 163.066354 425.019003 
L 163.269344 424.455885 
L 163.675325 424.165134 
L 164.487286 423.968314 
L 165.502237 423.961926 
L 166.314198 424.142911 
L 166.720179 424.398216 
L 166.923169 424.74715 
L 167.12616 424.546706 
L 167.32915 423.966467 
L 167.73513 423.661389 
L 168.547092 423.45072 
L 169.562043 423.436794 
L 170.374004 423.619588 
L 170.779985 423.883296 
L 170.982975 424.248354 
L 171.185965 424.047718 
L 171.388956 423.450306 
L 171.794936 423.13124 
L 172.606897 422.907071 
L 173.621849 422.885795 
L 174.43381 423.070341 
L 174.83979 423.342207 
L 175.042781 423.722901 
L 175.245771 423.521619 
L 175.448761 422.906964 
L 175.854742 422.574182 
L 176.666703 422.336793 
L 177.681654 422.308322 
L 178.493616 422.494574 
L 178.899596 422.774391 
L 179.102586 423.170295 
L 179.305577 422.967931 
L 179.508567 422.335931 
L 179.914548 421.989646 
L 180.726509 421.739267 
L 181.74146 421.703728 
L 182.553421 421.891644 
L 182.959402 422.179238 
L 183.162392 422.589976 
L 183.365383 422.386089 
L 183.568373 421.736601 
L 183.974353 421.37698 
L 184.583324 421.154245 
L 185.598276 421.059547 
L 186.410237 421.184386 
L 186.816217 421.373329 
L 187.019208 421.556057 
L 187.222198 421.98129 
L 187.425188 421.775426 
L 187.628179 421.108258 
L 188.034159 420.735422 
L 188.64313 420.5024 
L 189.658081 420.39918 
L 190.470043 420.523538 
L 190.876023 420.716366 
L 191.079013 420.904051 
L 191.282004 421.343468 
L 191.484994 421.135144 
L 191.687984 420.450048 
L 192.093965 420.064077 
L 192.702936 419.820855 
L 193.514897 419.709915 
L 194.326858 419.778526 
L 194.935829 420.029725 
L 195.138819 420.222295 
L 195.341809 420.675605 
L 195.5448 420.464298 
L 195.74779 419.76096 
L 196.153771 419.361896 
L 196.762741 419.108533 
L 197.574703 418.990253 
L 198.386664 419.056756 
L 198.995635 419.31232 
L 199.198625 419.509709 
L 199.401615 419.976638 
L 199.604605 419.76177 
L 199.807596 419.039806 
L 200.213576 418.627652 
L 200.822547 418.36418 
L 201.634508 418.238591 
L 202.446469 418.302993 
L 203.05544 418.56288 
L 203.258431 418.765034 
L 203.461421 419.245317 
L 203.664411 419.026245 
L 203.867402 418.285186 
L 204.273382 417.859909 
L 204.882353 417.586335 
L 205.694314 417.453451 
L 206.506275 417.515755 
L 207.115246 417.779934 
L 207.318236 417.986804 
L 207.521227 418.480182 
L 207.724217 418.256184 
L 207.927207 417.495468 
L 208.333188 417.056995 
L 208.942159 416.773301 
L 209.75412 416.633118 
L 210.566081 416.693322 
L 211.175052 416.961769 
L 211.378042 417.173316 
L 211.581032 417.67953 
L 211.784023 417.449788 
L 211.987013 416.668744 
L 212.392994 416.216963 
L 213.001964 415.923105 
L 213.813926 415.775602 
L 214.625887 415.8337 
L 215.234858 416.106399 
L 215.437848 416.322588 
L 215.640838 416.841378 
L 215.843828 416.604961 
L 216.046819 415.802796 
L 216.452799 415.337552 
L 217.06177 415.03346 
L 217.873731 414.878599 
L 218.685692 414.93458 
L 219.294663 415.211521 
L 219.497654 415.432324 
L 219.700644 415.963424 
L 219.903634 415.719269 
L 220.106624 414.895047 
L 220.512605 414.416138 
L 221.121576 414.101713 
L 221.933537 413.939439 
L 222.745498 413.993285 
L 223.354469 414.274469 
L 223.557459 414.499863 
L 223.76045 415.042996 
L 223.96344 414.789882 
L 224.16643 413.942501 
L 224.572411 413.449677 
L 225.181382 413.124791 
L 225.993343 412.955028 
L 226.805304 413.00672 
L 227.414275 413.292152 
L 227.617265 413.52212 
L 227.820255 414.076997 
L 228.023246 413.81352 
L 228.226236 412.941684 
L 228.632217 412.434641 
L 229.241187 412.099132 
L 230.053149 411.921785 
L 230.86511 411.971294 
L 231.474081 412.26099 
L 231.677071 412.495518 
L 231.880061 413.061834 
L 232.083051 412.786372 
L 232.286042 411.888557 
L 232.692022 411.366929 
L 233.300993 411.020602 
L 234.112954 410.835552 
L 234.924915 410.882846 
L 235.533886 411.176827 
L 235.736877 411.415909 
L 235.939867 411.993341 
L 236.142857 411.704012 
L 236.345847 410.778425 
L 236.751828 410.241779 
L 237.360799 409.884398 
L 238.17276 409.691502 
L 238.984721 409.736543 
L 239.390702 409.890618 
L 239.796682 410.278472 
L 239.999673 410.866676 
L 240.202663 410.56129 
L 240.405653 409.605815 
L 240.811634 409.053641 
L 241.420605 408.684928 
L 242.232566 408.484017 
L 243.044527 408.526758 
L 243.450507 408.682735 
L 243.856488 409.077595 
L 244.059478 409.676205 
L 244.262469 409.352198 
L 244.465459 408.36433 
L 244.871439 407.796034 
L 245.48041 407.415661 
L 246.292371 407.206536 
L 247.104333 407.246922 
L 247.510313 407.404827 
L 247.916294 407.806726 
L 248.119284 408.415348 
L 248.322274 408.069709 
L 248.525265 407.046471 
L 248.931245 406.461355 
L 249.540216 406.068941 
L 250.352177 405.851368 
L 251.164138 405.889337 
L 251.570119 406.049201 
L 251.9761 406.458181 
L 252.17909 407.0764 
L 252.38208 406.705565 
L 252.58507 405.643395 
L 252.991051 405.040651 
L 253.600022 404.635751 
L 254.411983 404.409459 
L 255.223944 404.444936 
L 255.629925 404.606797 
L 256.035905 405.022914 
L 256.238896 405.650286 
L 256.441886 405.250008 
L 256.644876 404.144624 
L 257.050857 403.523309 
L 257.659828 403.105407 
L 258.471789 402.87008 
L 259.28375 402.902981 
L 259.68973 403.066883 
L 260.095711 403.490208 
L 260.298701 404.126266 
L 260.501692 403.69144 
L 260.704682 402.537645 
L 261.110662 401.89666 
L 261.719633 401.465156 
L 262.531594 401.220428 
L 263.343556 401.250655 
L 263.749536 401.416649 
L 264.155517 401.847271 
L 264.358507 402.491524 
L 264.561497 402.015951 
L 264.764488 400.80738 
L 265.170468 400.145444 
L 265.779439 399.699642 
L 266.5914 399.445087 
L 267.200371 399.435238 
L 267.809342 399.640673 
L 268.215322 400.078701 
L 268.418313 400.73064 
L 268.621303 400.206701 
L 268.824293 398.935466 
L 269.230274 398.251078 
L 269.839245 397.790166 
L 270.651206 397.525289 
L 271.260177 397.512493 
L 271.869148 397.720181 
L 272.275128 398.165748 
L 272.478119 398.824854 
L 272.681109 398.243047 
L 272.884099 396.89924 
L 273.29008 396.190633 
L 273.899051 395.713662 
L 274.711012 395.437885 
L 275.319983 395.421989 
L 275.928953 395.632014 
L 276.334934 396.085285 
L 276.537924 396.751038 
L 276.740915 396.0993 
L 276.943905 394.670268 
L 277.349885 393.935354 
L 277.958856 393.441207 
L 278.770817 393.153851 
L 279.379788 393.134673 
L 279.988759 393.347136 
L 280.39474 393.808318 
L 280.59773 394.480211 
L 280.80072 393.742911 
L 281.003711 392.212171 
L 281.409691 391.448459 
L 282.018662 390.935816 
L 282.830623 390.636073 
L 283.439594 390.613401 
L 284.048565 390.828423 
L 284.454545 391.297777 
L 284.657536 391.975335 
L 284.860526 391.131696 
L 285.063516 389.47725 
L 285.469497 388.681744 
L 286.078468 388.14902 
L 286.687439 387.884031 
L 287.296409 387.797297 
L 287.90538 387.915741 
L 288.311361 388.204291 
L 288.514351 388.505094 
L 288.717341 389.187908 
L 288.920332 388.209433 
L 289.123322 386.401042 
L 289.529303 385.570087 
L 290.138273 385.015364 
L 290.747244 384.738452 
L 291.356215 384.645765 
L 291.965186 384.764411 
L 292.371167 385.058384 
L 292.574157 385.364687 
L 292.777147 386.052457 
L 292.980138 384.898524 
L 293.183128 382.893031 
L 293.589108 382.0221 
L 294.198079 381.443004 
L 294.80705 381.15297 
L 295.416021 381.053756 
L 296.024992 381.172611 
L 296.430972 381.472423 
L 296.633963 381.784556 
L 296.836953 382.477159 
L 297.039943 381.086941 
L 297.242934 378.819728 
L 297.648914 377.903081 
L 298.257885 377.296605 
L 298.866856 376.99192 
L 299.475827 376.885443 
L 300.084798 377.004517 
L 300.490778 377.310721 
L 300.693768 377.62916 
L 300.896759 378.326762 
L 301.50573 373.369218 
L 301.91171 372.734647 
L 302.520681 372.230582 
L 303.129652 371.981651 
L 303.738623 371.936154 
L 304.144603 372.046584 
L 304.550584 372.359951 
L 304.753574 372.685403 
L 304.956564 373.38865 
L 305.565535 367.342122 
L 305.971516 366.669874 
L 306.580487 366.136631 
L 307.189458 365.871769 
L 307.798428 365.819718 
L 308.204409 365.931555 
L 308.61039 366.253231 
L 308.81338 366.586817 
L 309.01637 367.297218 
L 309.625341 359.457107 
L 310.031322 358.738511 
L 310.640292 358.169507 
L 311.249263 357.885143 
L 311.858234 357.825065 
L 312.264215 357.93862 
L 312.670195 358.270486 
L 312.873186 358.614156 
L 313.076176 359.334939 
L 313.482156 348.736802 
L 313.888137 347.519667 
L 314.497108 346.73976 
L 315.106079 346.343109 
L 315.71505 346.191218 
L 316.324021 346.311537 
L 316.730001 346.657251 
L 316.932991 347.014973 
L 317.135982 347.75357 
L 317.541962 327.196279 
L 317.947943 325.811717 
L 318.556914 324.933869 
L 319.165885 324.484634 
L 319.774855 324.306511 
L 320.180836 324.345471 
L 320.586817 324.568735 
L 320.992797 325.180534 
L 321.195787 325.959923 
L 321.601768 94.062461 
L 322.007749 91.640033 
L 322.413729 90.499013 
L 323.0227 89.494592 
L 323.631671 88.983256 
L 324.037651 88.887273 
L 324.443632 89.036833 
L 324.849613 89.594797 
L 325.052603 90.193453 
L 325.255593 91.41048 
L 325.661574 131.990347 
L 326.067554 129.591169 
L 326.473535 128.48852 
L 327.082506 127.526378 
L 327.691477 127.041274 
L 328.097457 126.952946 
L 328.503438 127.098574 
L 328.909418 127.629311 
L 329.112409 128.191336 
L 329.315399 129.30755 
L 329.721379 146.365332 
L 330.12736 143.890531 
L 330.533341 142.784891 
L 331.142311 141.828156 
L 331.751282 141.349059 
L 332.157263 141.262922 
L 332.563243 141.407028 
L 332.969224 141.925822 
L 333.172214 142.468894 
L 333.375205 143.522951 
L 333.781185 153.677744 
L 334.187166 151.072348 
L 334.593146 149.947571 
L 335.202117 148.982985 
L 335.811088 148.502977 
L 336.217069 148.417218 
L 336.623049 148.560552 
L 337.02903 149.072039 
L 337.23202 149.601341 
L 337.43501 150.605059 
L 337.840991 157.42107 
L 338.246972 154.628249 
L 338.652952 153.472878 
L 339.261923 152.49199 
L 339.870894 152.006961 
L 340.276874 151.920552 
L 340.682855 152.063497 
L 341.088836 152.569951 
L 341.291826 153.087886 
L 341.494816 154.047156 
L 341.697806 189.376895 
L 341.900797 190.547987 
L 342.306777 187.908062 
L 342.712758 186.879954 
L 343.321729 186.023554 
L 343.9307 185.610383 
L 344.33668 185.543965 
L 344.742661 185.677564 
L 345.148641 186.123403 
L 345.351632 186.568804 
L 345.554622 187.370337 
L 345.757612 189.812303 
L 345.960602 190.248692 
L 346.366583 187.282159 
L 346.772564 186.208002 
L 347.381534 185.325036 
L 347.990505 184.902079 
L 348.396486 184.833838 
L 348.802466 184.967493 
L 349.208447 185.411126 
L 349.411437 185.848719 
L 349.614428 186.617525 
L 349.817418 188.678584 
L 350.020408 188.395905 
L 350.223398 185.928885 
L 350.629379 184.279038 
L 351.03536 183.421585 
L 351.64433 182.690934 
L 352.253301 182.387264 
L 352.659282 182.412103 
L 353.065262 182.678825 
L 353.471243 183.381373 
L 353.674233 184.119871 
L 353.877224 185.899301 
L 354.080214 184.67858 
L 354.283204 181.451267 
L 354.689185 179.652499 
L 355.095165 178.747974 
L 355.704136 177.986351 
L 356.313107 177.671573 
L 356.719088 177.695291 
L 357.125068 177.963134 
L 357.531049 178.659011 
L 357.734039 179.370091 
L 357.937029 180.935176 
L 358.14002 177.855917 
L 358.34301 172.838124 
L 358.748991 170.833549 
L 359.154971 169.866651 
L 359.763942 169.063637 
L 360.169923 168.796911 
L 360.575903 168.718405 
L 360.981884 168.853611 
L 361.387864 169.297996 
L 361.590855 169.718949 
L 361.793845 170.407518 
L 361.996835 171.810082 
L 362.402816 143.799166 
L 362.808796 141.444667 
L 363.214777 140.367797 
L 363.823748 139.486467 
L 364.229728 139.194743 
L 364.635709 139.106157 
L 365.041689 139.244302 
L 365.44767 139.702998 
L 365.853651 140.819892 
L 366.056641 142.131415 
L 366.462621 162.974159 
L 366.868602 160.362972 
L 367.274583 159.253747 
L 367.883553 158.365703 
L 368.289534 158.076199 
L 368.695515 157.989831 
L 369.101495 158.125898 
L 369.507476 158.568956 
L 369.913456 159.614939 
L 370.116447 160.766184 
L 370.522427 167.632066 
L 370.928408 164.587532 
L 371.334388 163.414983 
L 371.943359 162.499358 
L 372.34934 162.205367 
L 372.75532 162.11837 
L 373.161301 162.253372 
L 373.567281 162.686257 
L 373.973262 163.673888 
L 374.176252 164.689918 
L 374.379243 167.420605 
L 374.582233 167.402345 
L 374.785223 164.586543 
L 375.191204 162.694218 
L 375.597184 161.753013 
L 376.003165 161.19733 
L 376.409145 160.893838 
L 376.815126 160.804411 
L 377.221107 160.938775 
L 377.627087 161.363862 
L 378.033068 162.300584 
L 378.236058 163.205379 
L 378.439048 165.153186 
L 378.642039 161.975243 
L 378.845029 156.483616 
L 379.251009 154.240855 
L 379.65699 153.209995 
L 380.062971 152.616817 
L 380.468951 152.297419 
L 380.874932 152.203229 
L 381.280912 152.337558 
L 381.686893 152.758176 
L 382.092874 153.653527 
L 382.295864 154.469571 
L 382.498854 155.984583 
L 382.904835 184.762271 
L 383.310815 182.100257 
L 383.716796 181.023591 
L 384.122776 180.426532 
L 384.528757 180.112806 
L 384.934738 180.023473 
L 385.340718 180.154079 
L 385.746699 180.549295 
L 386.152679 181.356777 
L 386.35567 182.052554 
L 386.55866 183.211055 
L 386.76165 186.418622 
L 386.96464 186.904569 
L 387.167631 184.221537 
L 387.573611 182.387916 
L 387.979592 181.520419 
L 388.385572 181.052211 
L 388.791553 180.84675 
L 389.197534 180.864263 
L 389.603514 181.113546 
L 390.009495 181.660377 
L 390.415475 182.719201 
L 390.618466 183.669828 
L 390.821456 185.538199 
L 391.430427 166.682609 
L 391.836407 165.23427 
L 392.242388 164.515596 
L 392.648368 164.157388 
L 393.054349 164.05639 
L 393.46033 164.186225 
L 393.86631 164.568517 
L 394.272291 165.295427 
L 394.678271 166.682129 
L 394.881262 168.03114 
L 395.084252 172.122275 
L 395.287242 173.535283 
L 395.490232 171.046964 
L 395.896213 169.286147 
L 396.302194 168.496304 
L 396.708174 168.118886 
L 397.114155 168.014889 
L 397.520135 168.142858 
L 397.926116 168.510607 
L 398.332096 169.18312 
L 398.738077 170.371619 
L 398.941067 171.380596 
L 399.144058 173.246215 
L 399.550038 132.247009 
L 399.956019 129.676769 
L 400.361999 128.712961 
L 400.76798 128.275777 
L 401.17396 128.154951 
L 401.579941 128.284616 
L 401.985922 128.657014 
L 402.391902 129.315443 
L 402.797883 130.405392 
L 403.203863 132.516903 
L 403.406854 135.307917 
L 403.609844 134.240744 
L 403.812834 130.349755 
L 404.218815 128.404518 
L 404.624795 127.659477 
L 405.030776 127.374984 
L 405.436757 127.381297 
L 405.842737 127.624207 
L 406.248718 128.10094 
L 406.654698 128.85892 
L 407.060679 130.055174 
L 407.466659 132.383094 
L 407.66965 136.285413 
L 407.87264 137.522185 
L 408.07563 135.134687 
L 408.481611 133.638937 
L 408.887591 133.103436 
L 409.293572 132.968507 
L 409.699553 133.093423 
L 410.105533 133.432367 
L 410.511514 133.98434 
L 410.917494 134.794582 
L 411.323475 136.013983 
L 411.526465 136.924099 
L 411.729455 138.348968 
L 412.135436 145.943886 
L 412.338426 144.200118 
L 412.744407 143.073825 
L 413.150387 142.735575 
L 413.556368 142.737888 
L 413.962349 142.96263 
L 414.368329 143.370181 
L 414.571319 482.181797 
L 425.735785 484.201456 
L 425.938776 483.782007 
L 426.547746 483.70039 
L 427.968678 483.800058 
L 429.18662 484.039601 
L 429.592601 484.232727 
L 429.795591 484.018287 
L 429.998581 483.618356 
L 430.607552 483.487694 
L 431.825494 483.52327 
L 433.043436 483.730283 
L 433.449416 483.882318 
L 433.652406 484.040798 
L 433.855397 483.841777 
L 434.058387 483.449604 
L 434.667358 483.287375 
L 435.8853 483.297629 
L 437.103241 483.504376 
L 437.509222 483.671232 
L 437.712212 483.856725 
L 437.915202 483.668634 
L 438.118193 483.268992 
L 438.727164 483.081117 
L 439.945105 483.070862 
L 441.163047 483.277458 
L 441.569028 483.456294 
L 441.772018 483.664086 
L 441.975008 483.482965 
L 442.177998 483.071439 
L 442.786969 482.861029 
L 443.801921 482.821584 
L 445.019862 482.981732 
L 445.628833 483.228541 
L 445.831824 483.455999 
L 446.034814 483.279489 
L 446.237804 482.854404 
L 446.643785 482.666476 
L 447.455746 482.568105 
L 448.673688 482.643956 
L 449.485649 482.864929 
L 449.891629 483.229292 
L 450.09462 483.055896 
L 450.29761 482.616538 
L 450.703591 482.41401 
L 451.515552 482.301457 
L 452.733493 482.369161 
L 453.545455 482.595416 
L 453.748445 482.720179 
L 453.951435 482.982314 
L 454.154425 482.811007 
L 454.357416 482.357056 
L 454.763396 482.140692 
L 455.575357 482.014715 
L 456.793299 482.07471 
L 457.60526 482.305938 
L 457.808251 482.43617 
L 458.011241 482.714108 
L 458.214231 482.544137 
L 458.417221 482.075449 
L 458.823202 481.845834 
L 459.635163 481.707017 
L 460.853105 481.759639 
L 461.665066 481.9956 
L 461.868056 482.131039 
L 462.071047 482.42405 
L 462.274037 482.254827 
L 462.477027 481.771334 
L 462.883008 481.528926 
L 463.694969 481.37773 
L 464.912911 481.423245 
L 465.724872 481.663749 
L 465.927862 481.804185 
L 466.130852 482.111675 
L 466.333843 481.942713 
L 466.536833 481.44437 
L 466.942813 481.189538 
L 467.754775 481.026332 
L 468.769726 481.038626 
L 469.581687 481.216653 
L 469.987668 481.455105 
L 470.190658 481.776579 
L 470.393648 481.607451 
L 470.596639 481.094215 
L 471.002619 480.827251 
L 471.81458 480.652336 
L 472.829532 480.658257 
L 473.641493 480.837803 
L 474.047474 481.08333 
L 474.250464 481.418364 
L 474.453454 481.248676 
L 474.656444 480.720486 
L 475.062425 480.441627 
L 475.874386 480.255248 
L 476.889338 480.254928 
L 477.701299 480.435954 
L 478.107279 480.688376 
L 478.31027 481.036602 
L 478.51326 480.865974 
L 478.71625 480.322742 
L 479.122231 480.032173 
L 479.934192 479.834527 
L 480.949143 479.828078 
L 481.761104 480.010547 
L 482.167085 480.269714 
L 482.370075 480.630804 
L 482.573066 480.458856 
L 482.776056 479.900457 
L 483.182036 479.598322 
L 483.993998 479.389569 
L 485.008949 479.377078 
L 485.82091 479.560963 
L 486.226891 479.826744 
L 486.429881 480.200405 
L 486.632871 480.026743 
L 486.835862 479.453011 
L 487.241842 479.139415 
L 488.053803 478.919679 
L 489.068755 478.901217 
L 489.880716 479.08649 
L 490.286696 479.358776 
L 490.489687 479.744738 
L 490.692677 479.568942 
L 490.895667 478.979661 
L 491.301648 478.654674 
L 492.113609 478.424048 
L 493.128561 478.399669 
L 493.940522 478.586311 
L 494.346502 478.865007 
L 494.549493 479.263018 
L 494.752483 479.084634 
L 494.955473 478.479534 
L 495.361454 478.143191 
L 496.173415 477.901739 
L 497.188366 477.871483 
L 498.000327 478.059474 
L 498.406308 478.344499 
L 498.609298 478.754322 
L 498.812289 478.57285 
L 499.015279 477.951596 
L 499.421259 477.603901 
L 500.233221 477.351659 
L 501.248172 477.315551 
L 502.060133 477.504877 
L 502.466114 477.796163 
L 502.669104 478.217567 
L 502.872094 478.03245 
L 503.075085 477.394635 
L 503.481065 477.035559 
L 504.090036 476.812923 
L 505.104987 476.7187 
L 505.916949 476.844365 
L 506.322929 477.034442 
L 506.525919 477.218726 
L 506.72891 477.651487 
L 506.9319 477.462097 
L 507.13489 476.807234 
L 507.540871 476.436714 
L 508.149842 476.205302 
L 509.164793 476.103844 
L 509.976754 476.22908 
L 510.382735 476.422371 
L 510.585725 476.610711 
L 510.788715 477.054604 
L 510.991706 476.860232 
L 511.194696 476.18774 
L 511.600677 475.805679 
L 512.209647 475.565452 
L 513.224599 475.45674 
L 514.03656 475.581541 
L 514.442541 475.778033 
L 514.645531 475.970399 
L 514.848521 476.425199 
L 515.051512 476.225039 
L 515.254502 475.534229 
L 515.660482 475.140491 
L 516.269453 474.891389 
L 517.081414 474.776582 
L 517.893376 474.844629 
L 518.502346 475.099433 
L 518.705337 475.2958 
L 518.908327 475.761275 
L 519.111317 475.554404 
L 519.314308 474.844465 
L 519.720288 474.438877 
L 520.329259 474.180813 
L 521.14122 474.059577 
L 521.953181 474.125774 
L 522.562152 474.384256 
L 522.765142 474.584605 
L 522.968133 475.060516 
L 523.171123 474.845875 
L 523.374113 474.115851 
L 523.780094 473.698195 
L 524.389065 473.431059 
L 525.201026 473.303328 
L 526.012987 473.367656 
L 526.621958 473.629823 
L 526.824948 473.834138 
L 527.027938 474.320234 
L 527.230929 474.096606 
L 527.433919 473.345374 
L 527.8399 472.915386 
L 528.44887 472.639037 
L 529.260832 472.504728 
L 530.072793 472.567163 
L 530.681764 472.833028 
L 530.884754 473.041299 
L 531.087744 473.537315 
L 531.290734 473.303293 
L 531.493725 472.52953 
L 531.899705 472.086893 
L 532.508676 471.801162 
L 533.320637 471.660173 
L 534.132598 471.720688 
L 534.741569 471.990268 
L 534.94456 472.202488 
L 535.14755 472.708145 
L 535.35054 472.462096 
L 535.553531 471.664249 
L 535.959511 471.208587 
L 536.568482 470.913269 
L 537.380443 470.765476 
L 538.192404 470.824036 
L 538.801375 471.09736 
L 539.004365 471.313526 
L 539.207356 471.828525 
L 539.410346 471.56855 
L 539.613336 470.744782 
L 540.019317 470.275654 
L 540.628288 469.970508 
L 541.440249 469.815765 
L 542.25221 469.87233 
L 542.861181 470.149431 
L 543.064171 470.369545 
L 543.267161 470.893568 
L 543.470152 470.617445 
L 543.673142 469.765584 
L 544.079123 469.282473 
L 544.688093 468.967215 
L 545.500055 468.805348 
L 546.312016 468.859871 
L 546.920987 469.140793 
L 547.123977 469.364862 
L 547.326967 469.897569 
L 547.529957 469.602686 
L 547.732948 468.720149 
L 548.138928 468.222451 
L 548.747899 467.896751 
L 549.55986 467.727557 
L 550.371821 467.779983 
L 550.980792 468.064779 
L 551.183783 468.292815 
L 551.386773 468.833845 
L 551.589763 468.51711 
L 551.792753 467.600809 
L 552.198734 467.087824 
L 552.807705 466.751294 
L 553.619666 466.574539 
L 554.431627 466.624805 
L 555.040598 466.913538 
L 555.243588 467.145558 
L 555.446579 467.694526 
L 555.649569 467.352256 
L 555.852559 466.398478 
L 556.25854 465.869386 
L 556.867511 465.52158 
L 557.679472 465.336989 
L 558.491433 465.385021 
L 559.100404 465.677767 
L 559.303394 465.913796 
L 559.506384 466.470296 
L 559.709375 466.098064 
L 559.912365 465.102301 
L 560.318346 464.556151 
L 560.927316 464.196549 
L 561.739278 464.003804 
L 562.551239 464.049517 
L 563.16021 464.346366 
L 563.3632 464.586434 
L 563.56619 465.150042 
L 563.76918 464.742472 
L 563.972171 463.699204 
L 564.378151 463.134884 
L 564.987122 462.762882 
L 565.799083 462.561615 
L 566.611044 462.60491 
L 567.017025 462.760486 
L 567.423006 463.150117 
L 567.625996 463.720391 
L 567.828986 463.270876 
L 568.031976 462.173262 
L 568.437957 461.589469 
L 569.046928 461.204363 
L 569.858889 460.994144 
L 570.67085 461.034907 
L 571.076831 461.192413 
L 571.482811 461.588582 
L 571.685802 462.165072 
L 571.888792 461.665369 
L 572.091782 460.504817 
L 572.497763 459.900021 
L 573.106734 459.500988 
L 573.918695 459.281316 
L 574.730656 459.319412 
L 575.136636 459.478922 
L 575.542617 459.881774 
L 575.745607 460.464028 
L 575.948598 459.903677 
L 576.151588 458.669213 
L 576.557568 458.041602 
L 577.166539 457.627673 
L 577.9785 457.397958 
L 578.790462 457.433231 
L 579.196442 457.594833 
L 579.602423 458.004546 
L 579.805413 458.592124 
L 580.008403 457.95757 
L 580.211394 456.634898 
L 580.617374 455.982312 
L 581.226345 455.552341 
L 582.038306 455.311885 
L 582.850267 455.344149 
L 583.256248 455.507948 
L 583.662229 455.924749 
L 583.865219 456.51724 
L 584.068209 455.790462 
L 584.271199 454.360505 
L 584.67718 453.680345 
L 585.286151 453.23296 
L 586.098112 452.980926 
L 586.910073 453.009958 
L 587.316054 453.176083 
L 587.722034 453.600261 
L 587.925025 454.197312 
L 588.128015 453.353596 
L 588.331005 451.790129 
L 588.736986 451.079226 
L 589.345957 450.612761 
L 590.157918 450.348132 
L 590.766889 450.336317 
L 591.375859 450.542272 
L 591.78184 450.974208 
L 591.98483 451.575556 
L 592.187821 450.579673 
L 592.390811 448.845269 
L 592.796791 448.099696 
L 593.405762 447.612094 
L 594.217723 447.333609 
L 594.826694 447.317934 
L 595.435665 447.526597 
L 595.841646 447.9668 
L 596.044636 448.572341 
L 596.247626 447.371538 
L 596.450617 445.410154 
L 596.856597 444.624934 
L 597.465568 444.113586 
L 598.277529 443.81964 
L 598.8865 443.799673 
L 599.495471 444.01131 
L 599.901451 444.46049 
L 600.104442 445.070365 
L 600.713413 440.78552 
L 601.119393 440.244933 
L 601.728364 439.822402 
L 602.540325 439.592614 
L 603.149296 439.633707 
L 603.555277 439.811278 
L 603.961257 440.270468 
L 604.164248 440.885239 
L 604.773218 435.655963 
L 605.179199 435.0827 
L 605.78817 434.634864 
L 606.397141 434.419784 
L 607.006112 434.389266 
L 607.615082 434.608113 
L 608.021063 435.078911 
L 608.224053 435.699886 
L 608.833024 428.915113 
L 609.239005 428.301653 
L 609.847976 427.822804 
L 610.456946 427.59081 
L 611.065917 427.55333 
L 611.674888 427.776914 
L 612.080869 428.262047 
L 612.283859 428.892026 
L 612.68984 419.71046 
L 613.09582 418.664638 
L 613.704791 418.002882 
L 614.313762 417.673506 
L 614.922733 417.556401 
L 615.531704 417.675372 
L 615.937684 417.984944 
L 616.140674 418.300056 
L 616.343665 418.945484 
L 616.749645 401.126764 
L 617.155626 399.93574 
L 617.764597 399.189043 
L 618.373568 398.814064 
L 618.982538 398.674209 
L 619.591509 398.793852 
L 619.99749 399.124236 
L 620.20048 399.461459 
L 620.40347 400.142265 
L 620.809451 199.037152 
L 621.215432 196.946032 
L 621.621412 195.966223 
L 622.230383 195.109754 
L 622.636364 194.782518 
L 622.636364 194.782518 
" style="fill:none;stroke:#1f77b4;stroke-linecap:square;stroke-width:1.5;"/>
   </g>
   <g id="patch_3">
    <path d="M 90 504 
L 90 69.12 
" style="fill:none;stroke:#000000;stroke-linecap:square;stroke-linejoin:miter;stroke-width:0.8;"/>
   </g>
   <g id="patch_4">
    <path d="M 648 504 
L 648 69.12 
" style="fill:none;stroke:#000000;stroke-linecap:square;stroke-linejoin:miter;stroke-width:0.8;"/>
   </g>
   <g id="patch_5">
    <path d="M 90 504 
L 648 504 
" style="fill:none;stroke:#000000;stroke-linecap:square;stroke-linejoin:miter;stroke-width:0.8;"/>
   </g>
   <g id="patch_6">
    <path d="M 90 69.12 
L 648 69.12 
" style="fill:none;stroke:#000000;stroke-linecap:square;stroke-linejoin:miter;stroke-width:0.8;"/>
   </g>
  </g>
 </g>
 <defs>
  <clipPath id="pe78239f272">
   <rect height="434.88" width="558" x="90" y="69.12"/>
  </clipPath>
 </defs>
</svg>
