<?xml version="1.0" encoding="utf-8" standalone="no"?>
<!DOCTYPE svg PUBLIC "-//W3C//DTD SVG 1.1//EN"
  "http://www.w3.org/Graphics/SVG/1.1/DTD/svg11.dtd">
<svg height="576pt" version="1.1" viewBox="0 0 720 576" width="720pt" xmlns="http://www.w3.org/2000/svg" xmlns:xlink="http://www.w3.org/1999/xlink">
 <metadata>
  <rdf:RDF xmlns:cc="http://creativecommons.org/ns#" xmlns:dc="http://purl.org/dc/elements/1.1/" xmlns:rdf="http://www.w3.org/1999/02/22-rdf-syntax-ns#">
   <cc:Work>
    <dc:type rdf:resource="http://purl.org/dc/dcmitype/StillImage"/>
    <dc:date>2022-01-19T22:12:17.309496</dc:date>
    <dc:format>image/svg+xml</dc:format>
    <dc:creator>
     <cc:Agent>
      <dc:title>Matplotlib v3.4.3, https://matplotlib.org/</dc:title>
     </cc:Agent>
    </dc:creator>
   </cc:Work>
  </rdf:RDF>
 </metadata>
 <defs>
  <style type="text/css">*{stroke-linecap:butt;stroke-linejoin:round;}</style>
 </defs>
 <g id="figure_1">
  <g id="patch_1">
   <path d="M 0 576 
L 720 576 
L 720 0 
L 0 0 
z
" style="fill:none;"/>
  </g>
  <g id="axes_1">
   <g id="patch_2">
    <path d="M 90 504 
L 648 504 
L 648 69.12 
L 90 69.12 
z
" style="fill:#ffffff;"/>
   </g>
   <g id="matplotlib.axis_1">
    <g id="xtick_1">
     <g id="line2d_1">
      <defs>
       <path d="M 0 0 
L 0 3.5 
" id="m434b669adc" style="stroke:#000000;stroke-width:0.8;"/>
      </defs>
      <g>
       <use style="stroke:#000000;stroke-width:0.8;" x="115.363636" xlink:href="#m434b669adc" y="504"/>
      </g>
     </g>
     <g id="text_1">
      <!-- 0 -->
      <g transform="translate(108.364886 527.716563)scale(0.22 -0.22)">
       <defs>
        <path d="M 2034 4250 
Q 1547 4250 1301 3770 
Q 1056 3291 1056 2328 
Q 1056 1369 1301 889 
Q 1547 409 2034 409 
Q 2525 409 2770 889 
Q 3016 1369 3016 2328 
Q 3016 3291 2770 3770 
Q 2525 4250 2034 4250 
z
M 2034 4750 
Q 2819 4750 3233 4129 
Q 3647 3509 3647 2328 
Q 3647 1150 3233 529 
Q 2819 -91 2034 -91 
Q 1250 -91 836 529 
Q 422 1150 422 2328 
Q 422 3509 836 4129 
Q 1250 4750 2034 4750 
z
" id="DejaVuSans-30" transform="scale(0.015625)"/>
       </defs>
       <use xlink:href="#DejaVuSans-30"/>
      </g>
     </g>
    </g>
    <g id="xtick_2">
     <g id="line2d_2">
      <g>
       <use style="stroke:#000000;stroke-width:0.8;" x="216.85878" xlink:href="#m434b669adc" y="504"/>
      </g>
     </g>
     <g id="text_2">
      <!-- 500 -->
      <g transform="translate(195.86253 527.716563)scale(0.22 -0.22)">
       <defs>
        <path d="M 691 4666 
L 3169 4666 
L 3169 4134 
L 1269 4134 
L 1269 2991 
Q 1406 3038 1543 3061 
Q 1681 3084 1819 3084 
Q 2600 3084 3056 2656 
Q 3513 2228 3513 1497 
Q 3513 744 3044 326 
Q 2575 -91 1722 -91 
Q 1428 -91 1123 -41 
Q 819 9 494 109 
L 494 744 
Q 775 591 1075 516 
Q 1375 441 1709 441 
Q 2250 441 2565 725 
Q 2881 1009 2881 1497 
Q 2881 1984 2565 2268 
Q 2250 2553 1709 2553 
Q 1456 2553 1204 2497 
Q 953 2441 691 2322 
L 691 4666 
z
" id="DejaVuSans-35" transform="scale(0.015625)"/>
       </defs>
       <use xlink:href="#DejaVuSans-35"/>
       <use x="63.623047" xlink:href="#DejaVuSans-30"/>
       <use x="127.246094" xlink:href="#DejaVuSans-30"/>
      </g>
     </g>
    </g>
    <g id="xtick_3">
     <g id="line2d_3">
      <g>
       <use style="stroke:#000000;stroke-width:0.8;" x="318.353923" xlink:href="#m434b669adc" y="504"/>
      </g>
     </g>
     <g id="text_3">
      <!-- 1000 -->
      <g transform="translate(290.358923 527.716563)scale(0.22 -0.22)">
       <defs>
        <path d="M 794 531 
L 1825 531 
L 1825 4091 
L 703 3866 
L 703 4441 
L 1819 4666 
L 2450 4666 
L 2450 531 
L 3481 531 
L 3481 0 
L 794 0 
L 794 531 
z
" id="DejaVuSans-31" transform="scale(0.015625)"/>
       </defs>
       <use xlink:href="#DejaVuSans-31"/>
       <use x="63.623047" xlink:href="#DejaVuSans-30"/>
       <use x="127.246094" xlink:href="#DejaVuSans-30"/>
       <use x="190.869141" xlink:href="#DejaVuSans-30"/>
      </g>
     </g>
    </g>
    <g id="xtick_4">
     <g id="line2d_4">
      <g>
       <use style="stroke:#000000;stroke-width:0.8;" x="419.849067" xlink:href="#m434b669adc" y="504"/>
      </g>
     </g>
     <g id="text_4">
      <!-- 1500 -->
      <g transform="translate(391.854067 527.716563)scale(0.22 -0.22)">
       <use xlink:href="#DejaVuSans-31"/>
       <use x="63.623047" xlink:href="#DejaVuSans-35"/>
       <use x="127.246094" xlink:href="#DejaVuSans-30"/>
       <use x="190.869141" xlink:href="#DejaVuSans-30"/>
      </g>
     </g>
    </g>
    <g id="xtick_5">
     <g id="line2d_5">
      <g>
       <use style="stroke:#000000;stroke-width:0.8;" x="521.34421" xlink:href="#m434b669adc" y="504"/>
      </g>
     </g>
     <g id="text_5">
      <!-- 2000 -->
      <g transform="translate(493.34921 527.716563)scale(0.22 -0.22)">
       <defs>
        <path d="M 1228 531 
L 3431 531 
L 3431 0 
L 469 0 
L 469 531 
Q 828 903 1448 1529 
Q 2069 2156 2228 2338 
Q 2531 2678 2651 2914 
Q 2772 3150 2772 3378 
Q 2772 3750 2511 3984 
Q 2250 4219 1831 4219 
Q 1534 4219 1204 4116 
Q 875 4013 500 3803 
L 500 4441 
Q 881 4594 1212 4672 
Q 1544 4750 1819 4750 
Q 2544 4750 2975 4387 
Q 3406 4025 3406 3419 
Q 3406 3131 3298 2873 
Q 3191 2616 2906 2266 
Q 2828 2175 2409 1742 
Q 1991 1309 1228 531 
z
" id="DejaVuSans-32" transform="scale(0.015625)"/>
       </defs>
       <use xlink:href="#DejaVuSans-32"/>
       <use x="63.623047" xlink:href="#DejaVuSans-30"/>
       <use x="127.246094" xlink:href="#DejaVuSans-30"/>
       <use x="190.869141" xlink:href="#DejaVuSans-30"/>
      </g>
     </g>
    </g>
    <g id="xtick_6">
     <g id="line2d_6">
      <g>
       <use style="stroke:#000000;stroke-width:0.8;" x="622.839354" xlink:href="#m434b669adc" y="504"/>
      </g>
     </g>
     <g id="text_6">
      <!-- 2500 -->
      <g transform="translate(594.844354 527.716563)scale(0.22 -0.22)">
       <use xlink:href="#DejaVuSans-32"/>
       <use x="63.623047" xlink:href="#DejaVuSans-35"/>
       <use x="127.246094" xlink:href="#DejaVuSans-30"/>
       <use x="190.869141" xlink:href="#DejaVuSans-30"/>
      </g>
     </g>
    </g>
    <g id="text_7">
     <!-- nr iteracji epizodu -->
     <g transform="translate(269.688906 553.008438)scale(0.22 -0.22)">
      <defs>
       <path d="M 3513 2113 
L 3513 0 
L 2938 0 
L 2938 2094 
Q 2938 2591 2744 2837 
Q 2550 3084 2163 3084 
Q 1697 3084 1428 2787 
Q 1159 2491 1159 1978 
L 1159 0 
L 581 0 
L 581 3500 
L 1159 3500 
L 1159 2956 
Q 1366 3272 1645 3428 
Q 1925 3584 2291 3584 
Q 2894 3584 3203 3211 
Q 3513 2838 3513 2113 
z
" id="DejaVuSans-6e" transform="scale(0.015625)"/>
       <path d="M 2631 2963 
Q 2534 3019 2420 3045 
Q 2306 3072 2169 3072 
Q 1681 3072 1420 2755 
Q 1159 2438 1159 1844 
L 1159 0 
L 581 0 
L 581 3500 
L 1159 3500 
L 1159 2956 
Q 1341 3275 1631 3429 
Q 1922 3584 2338 3584 
Q 2397 3584 2469 3576 
Q 2541 3569 2628 3553 
L 2631 2963 
z
" id="DejaVuSans-72" transform="scale(0.015625)"/>
       <path id="DejaVuSans-20" transform="scale(0.015625)"/>
       <path d="M 603 3500 
L 1178 3500 
L 1178 0 
L 603 0 
L 603 3500 
z
M 603 4863 
L 1178 4863 
L 1178 4134 
L 603 4134 
L 603 4863 
z
" id="DejaVuSans-69" transform="scale(0.015625)"/>
       <path d="M 1172 4494 
L 1172 3500 
L 2356 3500 
L 2356 3053 
L 1172 3053 
L 1172 1153 
Q 1172 725 1289 603 
Q 1406 481 1766 481 
L 2356 481 
L 2356 0 
L 1766 0 
Q 1100 0 847 248 
Q 594 497 594 1153 
L 594 3053 
L 172 3053 
L 172 3500 
L 594 3500 
L 594 4494 
L 1172 4494 
z
" id="DejaVuSans-74" transform="scale(0.015625)"/>
       <path d="M 3597 1894 
L 3597 1613 
L 953 1613 
Q 991 1019 1311 708 
Q 1631 397 2203 397 
Q 2534 397 2845 478 
Q 3156 559 3463 722 
L 3463 178 
Q 3153 47 2828 -22 
Q 2503 -91 2169 -91 
Q 1331 -91 842 396 
Q 353 884 353 1716 
Q 353 2575 817 3079 
Q 1281 3584 2069 3584 
Q 2775 3584 3186 3129 
Q 3597 2675 3597 1894 
z
M 3022 2063 
Q 3016 2534 2758 2815 
Q 2500 3097 2075 3097 
Q 1594 3097 1305 2825 
Q 1016 2553 972 2059 
L 3022 2063 
z
" id="DejaVuSans-65" transform="scale(0.015625)"/>
       <path d="M 2194 1759 
Q 1497 1759 1228 1600 
Q 959 1441 959 1056 
Q 959 750 1161 570 
Q 1363 391 1709 391 
Q 2188 391 2477 730 
Q 2766 1069 2766 1631 
L 2766 1759 
L 2194 1759 
z
M 3341 1997 
L 3341 0 
L 2766 0 
L 2766 531 
Q 2569 213 2275 61 
Q 1981 -91 1556 -91 
Q 1019 -91 701 211 
Q 384 513 384 1019 
Q 384 1609 779 1909 
Q 1175 2209 1959 2209 
L 2766 2209 
L 2766 2266 
Q 2766 2663 2505 2880 
Q 2244 3097 1772 3097 
Q 1472 3097 1187 3025 
Q 903 2953 641 2809 
L 641 3341 
Q 956 3463 1253 3523 
Q 1550 3584 1831 3584 
Q 2591 3584 2966 3190 
Q 3341 2797 3341 1997 
z
" id="DejaVuSans-61" transform="scale(0.015625)"/>
       <path d="M 3122 3366 
L 3122 2828 
Q 2878 2963 2633 3030 
Q 2388 3097 2138 3097 
Q 1578 3097 1268 2742 
Q 959 2388 959 1747 
Q 959 1106 1268 751 
Q 1578 397 2138 397 
Q 2388 397 2633 464 
Q 2878 531 3122 666 
L 3122 134 
Q 2881 22 2623 -34 
Q 2366 -91 2075 -91 
Q 1284 -91 818 406 
Q 353 903 353 1747 
Q 353 2603 823 3093 
Q 1294 3584 2113 3584 
Q 2378 3584 2631 3529 
Q 2884 3475 3122 3366 
z
" id="DejaVuSans-63" transform="scale(0.015625)"/>
       <path d="M 603 3500 
L 1178 3500 
L 1178 -63 
Q 1178 -731 923 -1031 
Q 669 -1331 103 -1331 
L -116 -1331 
L -116 -844 
L 38 -844 
Q 366 -844 484 -692 
Q 603 -541 603 -63 
L 603 3500 
z
M 603 4863 
L 1178 4863 
L 1178 4134 
L 603 4134 
L 603 4863 
z
" id="DejaVuSans-6a" transform="scale(0.015625)"/>
       <path d="M 1159 525 
L 1159 -1331 
L 581 -1331 
L 581 3500 
L 1159 3500 
L 1159 2969 
Q 1341 3281 1617 3432 
Q 1894 3584 2278 3584 
Q 2916 3584 3314 3078 
Q 3713 2572 3713 1747 
Q 3713 922 3314 415 
Q 2916 -91 2278 -91 
Q 1894 -91 1617 61 
Q 1341 213 1159 525 
z
M 3116 1747 
Q 3116 2381 2855 2742 
Q 2594 3103 2138 3103 
Q 1681 3103 1420 2742 
Q 1159 2381 1159 1747 
Q 1159 1113 1420 752 
Q 1681 391 2138 391 
Q 2594 391 2855 752 
Q 3116 1113 3116 1747 
z
" id="DejaVuSans-70" transform="scale(0.015625)"/>
       <path d="M 353 3500 
L 3084 3500 
L 3084 2975 
L 922 459 
L 3084 459 
L 3084 0 
L 275 0 
L 275 525 
L 2438 3041 
L 353 3041 
L 353 3500 
z
" id="DejaVuSans-7a" transform="scale(0.015625)"/>
       <path d="M 1959 3097 
Q 1497 3097 1228 2736 
Q 959 2375 959 1747 
Q 959 1119 1226 758 
Q 1494 397 1959 397 
Q 2419 397 2687 759 
Q 2956 1122 2956 1747 
Q 2956 2369 2687 2733 
Q 2419 3097 1959 3097 
z
M 1959 3584 
Q 2709 3584 3137 3096 
Q 3566 2609 3566 1747 
Q 3566 888 3137 398 
Q 2709 -91 1959 -91 
Q 1206 -91 779 398 
Q 353 888 353 1747 
Q 353 2609 779 3096 
Q 1206 3584 1959 3584 
z
" id="DejaVuSans-6f" transform="scale(0.015625)"/>
       <path d="M 2906 2969 
L 2906 4863 
L 3481 4863 
L 3481 0 
L 2906 0 
L 2906 525 
Q 2725 213 2448 61 
Q 2172 -91 1784 -91 
Q 1150 -91 751 415 
Q 353 922 353 1747 
Q 353 2572 751 3078 
Q 1150 3584 1784 3584 
Q 2172 3584 2448 3432 
Q 2725 3281 2906 2969 
z
M 947 1747 
Q 947 1113 1208 752 
Q 1469 391 1925 391 
Q 2381 391 2643 752 
Q 2906 1113 2906 1747 
Q 2906 2381 2643 2742 
Q 2381 3103 1925 3103 
Q 1469 3103 1208 2742 
Q 947 2381 947 1747 
z
" id="DejaVuSans-64" transform="scale(0.015625)"/>
       <path d="M 544 1381 
L 544 3500 
L 1119 3500 
L 1119 1403 
Q 1119 906 1312 657 
Q 1506 409 1894 409 
Q 2359 409 2629 706 
Q 2900 1003 2900 1516 
L 2900 3500 
L 3475 3500 
L 3475 0 
L 2900 0 
L 2900 538 
Q 2691 219 2414 64 
Q 2138 -91 1772 -91 
Q 1169 -91 856 284 
Q 544 659 544 1381 
z
M 1991 3584 
L 1991 3584 
z
" id="DejaVuSans-75" transform="scale(0.015625)"/>
      </defs>
      <use xlink:href="#DejaVuSans-6e"/>
      <use x="63.378906" xlink:href="#DejaVuSans-72"/>
      <use x="104.492188" xlink:href="#DejaVuSans-20"/>
      <use x="136.279297" xlink:href="#DejaVuSans-69"/>
      <use x="164.0625" xlink:href="#DejaVuSans-74"/>
      <use x="203.271484" xlink:href="#DejaVuSans-65"/>
      <use x="264.794922" xlink:href="#DejaVuSans-72"/>
      <use x="305.908203" xlink:href="#DejaVuSans-61"/>
      <use x="367.1875" xlink:href="#DejaVuSans-63"/>
      <use x="422.167969" xlink:href="#DejaVuSans-6a"/>
      <use x="449.951172" xlink:href="#DejaVuSans-69"/>
      <use x="477.734375" xlink:href="#DejaVuSans-20"/>
      <use x="509.521484" xlink:href="#DejaVuSans-65"/>
      <use x="571.044922" xlink:href="#DejaVuSans-70"/>
      <use x="634.521484" xlink:href="#DejaVuSans-69"/>
      <use x="662.304688" xlink:href="#DejaVuSans-7a"/>
      <use x="714.794922" xlink:href="#DejaVuSans-6f"/>
      <use x="775.976562" xlink:href="#DejaVuSans-64"/>
      <use x="839.453125" xlink:href="#DejaVuSans-75"/>
     </g>
    </g>
   </g>
   <g id="matplotlib.axis_2">
    <g id="ytick_1">
     <g id="line2d_7">
      <defs>
       <path d="M 0 0 
L -3.5 0 
" id="m806ddadcfd" style="stroke:#000000;stroke-width:0.8;"/>
      </defs>
      <g>
       <use style="stroke:#000000;stroke-width:0.8;" x="90" xlink:href="#m806ddadcfd" y="465.762154"/>
      </g>
     </g>
     <g id="text_8">
      <!-- −5000 -->
      <g transform="translate(8.574687 474.120435)scale(0.22 -0.22)">
       <defs>
        <path d="M 678 2272 
L 4684 2272 
L 4684 1741 
L 678 1741 
L 678 2272 
z
" id="DejaVuSans-2212" transform="scale(0.015625)"/>
       </defs>
       <use xlink:href="#DejaVuSans-2212"/>
       <use x="83.789062" xlink:href="#DejaVuSans-35"/>
       <use x="147.412109" xlink:href="#DejaVuSans-30"/>
       <use x="211.035156" xlink:href="#DejaVuSans-30"/>
       <use x="274.658203" xlink:href="#DejaVuSans-30"/>
      </g>
     </g>
    </g>
    <g id="ytick_2">
     <g id="line2d_8">
      <g>
       <use style="stroke:#000000;stroke-width:0.8;" x="90" xlink:href="#m806ddadcfd" y="397.078189"/>
      </g>
     </g>
     <g id="text_9">
      <!-- 0 -->
      <g transform="translate(69.0025 405.43647)scale(0.22 -0.22)">
       <use xlink:href="#DejaVuSans-30"/>
      </g>
     </g>
    </g>
    <g id="ytick_3">
     <g id="line2d_9">
      <g>
       <use style="stroke:#000000;stroke-width:0.8;" x="90" xlink:href="#m806ddadcfd" y="328.394224"/>
      </g>
     </g>
     <g id="text_10">
      <!-- 5000 -->
      <g transform="translate(27.01 336.752506)scale(0.22 -0.22)">
       <use xlink:href="#DejaVuSans-35"/>
       <use x="63.623047" xlink:href="#DejaVuSans-30"/>
       <use x="127.246094" xlink:href="#DejaVuSans-30"/>
       <use x="190.869141" xlink:href="#DejaVuSans-30"/>
      </g>
     </g>
    </g>
    <g id="ytick_4">
     <g id="line2d_10">
      <g>
       <use style="stroke:#000000;stroke-width:0.8;" x="90" xlink:href="#m806ddadcfd" y="259.71026"/>
      </g>
     </g>
     <g id="text_11">
      <!-- 10000 -->
      <g transform="translate(13.0125 268.068541)scale(0.22 -0.22)">
       <use xlink:href="#DejaVuSans-31"/>
       <use x="63.623047" xlink:href="#DejaVuSans-30"/>
       <use x="127.246094" xlink:href="#DejaVuSans-30"/>
       <use x="190.869141" xlink:href="#DejaVuSans-30"/>
       <use x="254.492188" xlink:href="#DejaVuSans-30"/>
      </g>
     </g>
    </g>
    <g id="ytick_5">
     <g id="line2d_11">
      <g>
       <use style="stroke:#000000;stroke-width:0.8;" x="90" xlink:href="#m806ddadcfd" y="191.026295"/>
      </g>
     </g>
     <g id="text_12">
      <!-- 15000 -->
      <g transform="translate(13.0125 199.384576)scale(0.22 -0.22)">
       <use xlink:href="#DejaVuSans-31"/>
       <use x="63.623047" xlink:href="#DejaVuSans-35"/>
       <use x="127.246094" xlink:href="#DejaVuSans-30"/>
       <use x="190.869141" xlink:href="#DejaVuSans-30"/>
       <use x="254.492188" xlink:href="#DejaVuSans-30"/>
      </g>
     </g>
    </g>
    <g id="ytick_6">
     <g id="line2d_12">
      <g>
       <use style="stroke:#000000;stroke-width:0.8;" x="90" xlink:href="#m806ddadcfd" y="122.34233"/>
      </g>
     </g>
     <g id="text_13">
      <!-- 20000 -->
      <g transform="translate(13.0125 130.700611)scale(0.22 -0.22)">
       <use xlink:href="#DejaVuSans-32"/>
       <use x="63.623047" xlink:href="#DejaVuSans-30"/>
       <use x="127.246094" xlink:href="#DejaVuSans-30"/>
       <use x="190.869141" xlink:href="#DejaVuSans-30"/>
       <use x="254.492188" xlink:href="#DejaVuSans-30"/>
      </g>
     </g>
    </g>
    <g id="text_14">
     <!-- wartość funkcji nagrody -->
     <g transform="translate(-0.000625 418.171562)rotate(-90)scale(0.22 -0.22)">
      <defs>
       <path d="M 269 3500 
L 844 3500 
L 1563 769 
L 2278 3500 
L 2956 3500 
L 3675 769 
L 4391 3500 
L 4966 3500 
L 4050 0 
L 3372 0 
L 2619 2869 
L 1863 0 
L 1184 0 
L 269 3500 
z
" id="DejaVuSans-77" transform="scale(0.015625)"/>
       <path d="M 2242 5119 
L 2864 5119 
L 1846 3944 
L 1367 3944 
L 2242 5119 
z
M 2834 3397 
L 2834 2853 
Q 2591 2978 2328 3040 
Q 2066 3103 1784 3103 
Q 1356 3103 1142 2972 
Q 928 2841 928 2578 
Q 928 2378 1081 2264 
Q 1234 2150 1697 2047 
L 1894 2003 
Q 2506 1872 2764 1633 
Q 3022 1394 3022 966 
Q 3022 478 2636 193 
Q 2250 -91 1575 -91 
Q 1294 -91 989 -36 
Q 684 19 347 128 
L 347 722 
Q 666 556 975 473 
Q 1284 391 1588 391 
Q 1994 391 2212 530 
Q 2431 669 2431 922 
Q 2431 1156 2273 1281 
Q 2116 1406 1581 1522 
L 1381 1569 
Q 847 1681 609 1914 
Q 372 2147 372 2553 
Q 372 3047 722 3315 
Q 1072 3584 1716 3584 
Q 2034 3584 2315 3537 
Q 2597 3491 2834 3397 
z
" id="DejaVuSans-15b" transform="scale(0.015625)"/>
       <path d="M 3122 3366 
L 3122 2828 
Q 2878 2963 2633 3030 
Q 2388 3097 2138 3097 
Q 1578 3097 1268 2742 
Q 959 2388 959 1747 
Q 959 1106 1268 751 
Q 1578 397 2138 397 
Q 2388 397 2633 464 
Q 2878 531 3122 666 
L 3122 134 
Q 2881 22 2623 -34 
Q 2366 -91 2075 -91 
Q 1284 -91 818 406 
Q 353 903 353 1747 
Q 353 2603 823 3093 
Q 1294 3584 2113 3584 
Q 2378 3584 2631 3529 
Q 2884 3475 3122 3366 
z
M 2466 5119 
L 3088 5119 
L 2070 3944 
L 1591 3944 
L 2466 5119 
z
" id="DejaVuSans-107" transform="scale(0.015625)"/>
       <path d="M 2375 4863 
L 2375 4384 
L 1825 4384 
Q 1516 4384 1395 4259 
Q 1275 4134 1275 3809 
L 1275 3500 
L 2222 3500 
L 2222 3053 
L 1275 3053 
L 1275 0 
L 697 0 
L 697 3053 
L 147 3053 
L 147 3500 
L 697 3500 
L 697 3744 
Q 697 4328 969 4595 
Q 1241 4863 1831 4863 
L 2375 4863 
z
" id="DejaVuSans-66" transform="scale(0.015625)"/>
       <path d="M 581 4863 
L 1159 4863 
L 1159 1991 
L 2875 3500 
L 3609 3500 
L 1753 1863 
L 3688 0 
L 2938 0 
L 1159 1709 
L 1159 0 
L 581 0 
L 581 4863 
z
" id="DejaVuSans-6b" transform="scale(0.015625)"/>
       <path d="M 2906 1791 
Q 2906 2416 2648 2759 
Q 2391 3103 1925 3103 
Q 1463 3103 1205 2759 
Q 947 2416 947 1791 
Q 947 1169 1205 825 
Q 1463 481 1925 481 
Q 2391 481 2648 825 
Q 2906 1169 2906 1791 
z
M 3481 434 
Q 3481 -459 3084 -895 
Q 2688 -1331 1869 -1331 
Q 1566 -1331 1297 -1286 
Q 1028 -1241 775 -1147 
L 775 -588 
Q 1028 -725 1275 -790 
Q 1522 -856 1778 -856 
Q 2344 -856 2625 -561 
Q 2906 -266 2906 331 
L 2906 616 
Q 2728 306 2450 153 
Q 2172 0 1784 0 
Q 1141 0 747 490 
Q 353 981 353 1791 
Q 353 2603 747 3093 
Q 1141 3584 1784 3584 
Q 2172 3584 2450 3431 
Q 2728 3278 2906 2969 
L 2906 3500 
L 3481 3500 
L 3481 434 
z
" id="DejaVuSans-67" transform="scale(0.015625)"/>
       <path d="M 2059 -325 
Q 1816 -950 1584 -1140 
Q 1353 -1331 966 -1331 
L 506 -1331 
L 506 -850 
L 844 -850 
Q 1081 -850 1212 -737 
Q 1344 -625 1503 -206 
L 1606 56 
L 191 3500 
L 800 3500 
L 1894 763 
L 2988 3500 
L 3597 3500 
L 2059 -325 
z
" id="DejaVuSans-79" transform="scale(0.015625)"/>
      </defs>
      <use xlink:href="#DejaVuSans-77"/>
      <use x="81.787109" xlink:href="#DejaVuSans-61"/>
      <use x="143.066406" xlink:href="#DejaVuSans-72"/>
      <use x="184.179688" xlink:href="#DejaVuSans-74"/>
      <use x="223.388672" xlink:href="#DejaVuSans-6f"/>
      <use x="284.570312" xlink:href="#DejaVuSans-15b"/>
      <use x="336.669922" xlink:href="#DejaVuSans-107"/>
      <use x="391.650391" xlink:href="#DejaVuSans-20"/>
      <use x="423.4375" xlink:href="#DejaVuSans-66"/>
      <use x="458.642578" xlink:href="#DejaVuSans-75"/>
      <use x="522.021484" xlink:href="#DejaVuSans-6e"/>
      <use x="585.400391" xlink:href="#DejaVuSans-6b"/>
      <use x="643.310547" xlink:href="#DejaVuSans-63"/>
      <use x="698.291016" xlink:href="#DejaVuSans-6a"/>
      <use x="726.074219" xlink:href="#DejaVuSans-69"/>
      <use x="753.857422" xlink:href="#DejaVuSans-20"/>
      <use x="785.644531" xlink:href="#DejaVuSans-6e"/>
      <use x="849.023438" xlink:href="#DejaVuSans-61"/>
      <use x="910.302734" xlink:href="#DejaVuSans-67"/>
      <use x="973.779297" xlink:href="#DejaVuSans-72"/>
      <use x="1012.642578" xlink:href="#DejaVuSans-6f"/>
      <use x="1073.824219" xlink:href="#DejaVuSans-64"/>
      <use x="1137.300781" xlink:href="#DejaVuSans-79"/>
     </g>
    </g>
   </g>
   <g id="line2d_13">
    <path clip-path="url(#pe04d24e254)" d="M 115.363636 401.226701 
L 115.972607 401.267843 
L 116.175598 400.395822 
L 116.378588 394.538925 
L 116.784568 392.058938 
L 117.190549 390.807008 
L 117.79952 389.708061 
L 118.408491 389.145317 
L 118.814471 389.018549 
L 119.220452 389.127896 
L 119.626432 389.636581 
L 119.829423 390.24899 
L 120.032413 392.072543 
L 120.235403 392.29022 
L 120.641384 389.918064 
L 121.047364 388.964596 
L 121.656335 388.110472 
L 122.265306 387.627613 
L 122.874277 387.457871 
L 123.280258 387.568298 
L 123.686238 388.024839 
L 123.889228 388.592618 
L 124.092219 390.703578 
L 124.295209 391.546328 
L 124.70119 389.821546 
L 125.31016 388.799089 
L 125.919131 388.225252 
L 126.528102 387.918991 
L 127.137073 387.890935 
L 127.543054 388.119418 
L 127.746044 388.386966 
L 127.949034 388.913315 
L 128.355015 392.336632 
L 128.760995 390.92524 
L 129.369966 390.059086 
L 129.978937 389.569901 
L 130.587908 389.310281 
L 131.196879 389.294753 
L 131.602859 389.505607 
L 131.80585 389.750147 
L 132.00884 390.233054 
L 132.41482 393.681185 
L 132.820801 392.457816 
L 133.429772 391.697298 
L 134.038743 391.267125 
L 134.647714 391.04042 
L 135.256684 391.032678 
L 135.662665 391.227386 
L 135.865655 391.450323 
L 136.068646 391.886396 
L 136.474626 394.725801 
L 136.880607 393.565805 
L 137.489578 392.853539 
L 138.301539 392.361621 
L 138.91051 392.213604 
L 139.519481 392.301818 
L 139.925461 392.625484 
L 140.128451 393.013703 
L 140.331442 394.305625 
L 140.534432 394.681384 
L 140.940413 393.343673 
L 141.549383 392.5841 
L 142.158354 392.161774 
L 142.767325 391.941773 
L 143.376296 391.935201 
L 143.782277 392.116604 
L 143.985267 392.314625 
L 144.188257 392.668656 
L 144.391247 393.543138 
L 144.594238 392.989733 
L 144.797228 391.364021 
L 145.203209 390.341896 
L 145.812179 389.575912 
L 146.42115 389.147599 
L 147.030121 388.957806 
L 147.639092 389.047312 
L 148.045073 389.37612 
L 148.248063 389.716451 
L 148.451053 390.372798 
L 148.857034 397.030278 
L 149.263014 395.908998 
L 149.871985 395.20942 
L 150.480956 394.841516 
L 151.089927 394.687398 
L 151.698898 394.762086 
L 152.104878 395.001967 
L 152.510859 395.569033 
L 152.713849 396.212791 
L 152.916839 400.876484 
L 153.11983 401.839698 
L 157.179635 401.250647 
L 160.63047 400.542146 
L 163.472334 399.749733 
L 165.705228 398.91173 
L 167.53214 398.004904 
L 169.359053 396.846094 
L 170.779985 395.702843 
L 172.200917 394.270073 
L 173.418858 392.722395 
L 174.43381 391.098379 
L 175.448761 389.019379 
L 176.463713 386.331253 
L 177.681654 382.492231 
L 178.899596 377.869346 
L 180.117538 372.284137 
L 181.33548 365.730904 
L 182.553421 358.044618 
L 183.771363 349.000716 
L 185.395285 335.014664 
L 187.019208 318.944871 
L 187.831169 310.091496 
L 188.034159 192.836502 
L 189.861072 151.727386 
L 192.093965 107.097009 
L 193.108916 88.887273 
L 193.311907 407.174732 
L 208.130198 408.067754 
L 213.610935 408.169271 
L 217.670741 408.035992 
L 221.324566 407.705445 
L 224.775401 407.180036 
L 228.023246 406.469932 
L 231.0681 405.585047 
L 233.909964 404.538015 
L 236.548838 403.342749 
L 238.984721 401.995308 
L 241.014624 400.63506 
L 242.841537 399.146727 
L 244.465459 397.50761 
L 245.886391 395.766172 
L 247.307323 393.681232 
L 248.525265 391.530237 
L 249.743206 388.943292 
L 250.961148 385.78866 
L 251.9761 382.537912 
L 252.991051 378.460166 
L 253.803012 374.325462 
L 255.020954 366.736968 
L 256.238896 357.661745 
L 257.456837 346.715829 
L 258.674779 333.663851 
L 259.892721 318.440707 
L 261.110662 300.547951 
L 262.531594 275.976109 
L 264.155517 243.867666 
L 265.779439 207.111125 
L 267.606352 165.438138 
L 269.636255 124.240267 
L 271.057187 98.283239 
L 271.260177 416.570698 
L 286.078468 417.46372 
L 286.281458 417.471486 
L 286.484448 434.758212 
L 287.093419 434.799355 
L 287.296409 433.927333 
L 287.4994 428.070437 
L 287.90538 425.590449 
L 288.311361 424.33852 
L 288.920332 423.239572 
L 289.529303 422.676829 
L 289.935283 422.55006 
L 290.341264 422.659408 
L 290.747244 423.168093 
L 290.950235 423.780501 
L 291.153225 425.604055 
L 291.356215 425.821731 
L 291.762196 423.449576 
L 292.168176 422.496108 
L 292.777147 421.641984 
L 293.386118 421.159125 
L 293.995089 420.989382 
L 294.40107 421.09981 
L 294.80705 421.55635 
L 295.01004 422.12413 
L 295.213031 424.23509 
L 295.416021 425.07784 
L 295.822002 423.353058 
L 296.430972 422.330601 
L 297.039943 421.756763 
L 297.648914 421.450503 
L 298.257885 421.422446 
L 298.663866 421.650929 
L 298.866856 421.918478 
L 299.069846 422.444827 
L 299.475827 425.868143 
L 299.881807 424.456752 
L 300.490778 423.590598 
L 301.099749 423.101412 
L 301.70872 422.841792 
L 302.317691 422.826264 
L 302.723671 423.037119 
L 302.926662 423.281659 
L 303.129652 423.764565 
L 303.535632 427.212697 
L 303.941613 425.989327 
L 304.550584 425.22881 
L 305.159555 424.798637 
L 305.768526 424.571932 
L 306.377496 424.564189 
L 306.783477 424.758897 
L 306.986467 424.981834 
L 307.189458 425.417908 
L 307.595438 428.257312 
L 308.001419 427.097317 
L 308.61039 426.385051 
L 309.422351 425.893133 
L 310.031322 425.745115 
L 310.640292 425.83333 
L 311.046273 426.156995 
L 311.249263 426.545214 
L 311.452254 427.837137 
L 311.655244 428.212896 
L 312.061224 426.875184 
L 312.670195 426.115612 
L 313.279166 425.693285 
L 313.888137 425.473284 
L 314.497108 425.466712 
L 314.903089 425.648116 
L 315.106079 425.846137 
L 315.309069 426.200168 
L 315.512059 427.07465 
L 315.71505 426.521244 
L 315.91804 424.895533 
L 316.324021 423.873407 
L 316.932991 423.107424 
L 317.541962 422.67911 
L 318.150933 422.489318 
L 318.759904 422.578824 
L 319.165885 422.907632 
L 319.368875 423.247963 
L 319.571865 423.904309 
L 319.977846 430.561789 
L 320.383826 429.440509 
L 320.992797 428.740932 
L 321.601768 428.373027 
L 322.210739 428.218909 
L 322.81971 428.293598 
L 323.22569 428.533479 
L 323.631671 429.100545 
L 323.834661 429.744302 
L 324.037651 434.407996 
L 324.240642 435.37121 
L 328.300447 434.782158 
L 331.751282 434.073657 
L 334.593146 433.281245 
L 336.82604 432.443242 
L 338.652952 431.536416 
L 340.479865 430.377606 
L 341.900797 429.234354 
L 343.321729 427.801584 
L 344.53967 426.253907 
L 345.554622 424.629891 
L 346.569573 422.550891 
L 347.584525 419.862765 
L 348.802466 416.023742 
L 350.020408 411.400858 
L 351.23835 405.815649 
L 352.456292 399.262416 
L 353.674233 391.57613 
L 354.892175 382.532227 
L 356.516097 368.546176 
L 358.14002 352.476383 
L 358.951981 343.623007 
L 359.154971 226.368014 
L 360.981884 185.258898 
L 363.214777 140.628521 
L 364.229728 122.418784 
L 364.432719 440.706244 
L 379.251009 441.599265 
L 384.731747 441.700783 
L 388.791553 441.567503 
L 392.445378 441.236956 
L 395.896213 440.711548 
L 399.144058 440.001443 
L 402.188912 439.116559 
L 405.030776 438.069527 
L 407.66965 436.87426 
L 410.105533 435.52682 
L 412.135436 434.166572 
L 413.962349 432.678239 
L 415.586271 431.039122 
L 417.007203 429.297683 
L 418.428135 427.212744 
L 419.646077 425.061748 
L 420.864018 422.474804 
L 422.08196 419.320172 
L 423.096911 416.069423 
L 424.111863 411.991677 
L 424.923824 407.856974 
L 426.141766 400.26848 
L 427.359708 391.193257 
L 428.577649 380.247341 
L 429.795591 367.195362 
L 431.013533 351.972218 
L 432.231474 334.079462 
L 433.652406 309.507621 
L 435.276329 277.399178 
L 436.900251 240.642636 
L 438.727164 198.969649 
L 440.757066 157.771778 
L 442.177998 131.814751 
L 442.380989 450.10221 
L 457.19928 450.995232 
L 457.40227 451.002998 
L 457.60526 468.289724 
L 458.214231 468.330867 
L 458.417221 467.458845 
L 458.620212 461.601949 
L 459.026192 459.121961 
L 459.432173 457.870031 
L 460.041144 456.771084 
L 460.650115 456.20834 
L 461.056095 456.081572 
L 461.462076 456.190919 
L 461.868056 456.699604 
L 462.071047 457.312013 
L 462.274037 459.135566 
L 462.477027 459.353243 
L 462.883008 456.981087 
L 463.288988 456.02762 
L 463.897959 455.173496 
L 464.50693 454.690637 
L 465.115901 454.520894 
L 465.521881 454.631321 
L 465.927862 455.087862 
L 466.130852 455.655641 
L 466.333843 457.766601 
L 466.536833 458.609351 
L 466.942813 456.884569 
L 467.551784 455.862113 
L 468.160755 455.288275 
L 468.769726 454.982014 
L 469.378697 454.953958 
L 469.784678 455.182441 
L 469.987668 455.449989 
L 470.190658 455.976338 
L 470.596639 459.399655 
L 471.002619 457.988263 
L 471.61159 457.122109 
L 472.220561 456.632924 
L 472.829532 456.373304 
L 473.438503 456.357776 
L 473.844483 456.56863 
L 474.047474 456.81317 
L 474.250464 457.296077 
L 474.656444 460.744208 
L 475.062425 459.520839 
L 475.671396 458.760321 
L 476.280367 458.330148 
L 476.889338 458.103443 
L 477.498308 458.095701 
L 477.904289 458.290409 
L 478.107279 458.513346 
L 478.31027 458.949419 
L 478.71625 461.788824 
L 479.122231 460.628829 
L 479.731202 459.916562 
L 480.543163 459.424645 
L 481.152134 459.276627 
L 481.761104 459.364842 
L 482.167085 459.688507 
L 482.370075 460.076726 
L 482.573066 461.368648 
L 482.776056 461.744408 
L 483.182036 460.406696 
L 483.791007 459.647123 
L 484.399978 459.224797 
L 485.008949 459.004796 
L 485.61792 458.998224 
L 486.0239 459.179628 
L 486.226891 459.377649 
L 486.429881 459.731679 
L 486.632871 460.606162 
L 486.835862 460.052756 
L 487.038852 458.427044 
L 487.444832 457.404919 
L 488.053803 456.638935 
L 488.662774 456.210622 
L 489.271745 456.020829 
L 489.880716 456.110336 
L 490.286696 456.439144 
L 490.489687 456.779474 
L 490.692677 457.435821 
L 491.098658 464.093301 
L 491.504638 462.972021 
L 492.113609 462.272444 
L 492.72258 461.904539 
L 493.331551 461.750421 
L 493.940522 461.82511 
L 494.346502 462.06499 
L 494.752483 462.632057 
L 494.955473 463.275814 
L 495.158463 467.939507 
L 495.361454 468.902722 
L 499.421259 468.31367 
L 502.872094 467.605169 
L 505.713958 466.812757 
L 507.946851 465.974754 
L 509.773764 465.067928 
L 511.600677 463.909118 
L 513.021609 462.765866 
L 514.442541 461.333096 
L 515.660482 459.785419 
L 516.675434 458.161403 
L 517.690385 456.082403 
L 518.705337 453.394276 
L 519.923278 449.555254 
L 521.14122 444.932369 
L 522.359162 439.34716 
L 523.577104 432.793927 
L 524.795045 425.107641 
L 526.012987 416.063739 
L 527.636909 402.077687 
L 529.260832 386.007894 
L 530.072793 377.154519 
L 530.275783 259.899525 
L 532.102696 218.790409 
L 534.335589 174.160033 
L 535.35054 155.950296 
L 535.553531 474.237755 
L 550.371821 475.130777 
L 555.852559 475.232294 
L 559.912365 475.099015 
L 563.56619 474.768468 
L 567.017025 474.24306 
L 570.26487 473.532955 
L 573.309724 472.64807 
L 576.151588 471.601039 
L 578.790462 470.405772 
L 581.226345 469.058332 
L 583.256248 467.698084 
L 585.083161 466.209751 
L 586.707083 464.570634 
L 588.128015 462.829195 
L 589.548947 460.744255 
L 590.766889 458.59326 
L 591.98483 456.006315 
L 593.202772 452.851683 
L 594.217723 449.600935 
L 595.232675 445.523189 
L 596.044636 441.388485 
L 597.262578 433.799992 
L 598.480519 424.724768 
L 599.698461 413.778853 
L 600.916403 400.726874 
L 602.134345 385.50373 
L 603.352286 367.610974 
L 604.773218 343.039133 
L 606.397141 310.930689 
L 608.021063 274.174148 
L 609.847976 232.501161 
L 611.877878 191.30329 
L 613.29881 165.346262 
L 613.501801 483.633722 
L 622.636364 484.232727 
L 622.636364 484.232727 
" style="fill:none;stroke:#1f77b4;stroke-linecap:square;stroke-width:1.5;"/>
   </g>
   <g id="patch_3">
    <path d="M 90 504 
L 90 69.12 
" style="fill:none;stroke:#000000;stroke-linecap:square;stroke-linejoin:miter;stroke-width:0.8;"/>
   </g>
   <g id="patch_4">
    <path d="M 648 504 
L 648 69.12 
" style="fill:none;stroke:#000000;stroke-linecap:square;stroke-linejoin:miter;stroke-width:0.8;"/>
   </g>
   <g id="patch_5">
    <path d="M 90 504 
L 648 504 
" style="fill:none;stroke:#000000;stroke-linecap:square;stroke-linejoin:miter;stroke-width:0.8;"/>
   </g>
   <g id="patch_6">
    <path d="M 90 69.12 
L 648 69.12 
" style="fill:none;stroke:#000000;stroke-linecap:square;stroke-linejoin:miter;stroke-width:0.8;"/>
   </g>
  </g>
 </g>
 <defs>
  <clipPath id="pe04d24e254">
   <rect height="434.88" width="558" x="90" y="69.12"/>
  </clipPath>
 </defs>
</svg>
