<?xml version="1.0" encoding="utf-8" standalone="no"?>
<!DOCTYPE svg PUBLIC "-//W3C//DTD SVG 1.1//EN"
  "http://www.w3.org/Graphics/SVG/1.1/DTD/svg11.dtd">
<svg height="576pt" version="1.1" viewBox="0 0 720 576" width="720pt" xmlns="http://www.w3.org/2000/svg" xmlns:xlink="http://www.w3.org/1999/xlink">
 <metadata>
  <rdf:RDF xmlns:cc="http://creativecommons.org/ns#" xmlns:dc="http://purl.org/dc/elements/1.1/" xmlns:rdf="http://www.w3.org/1999/02/22-rdf-syntax-ns#">
   <cc:Work>
    <dc:type rdf:resource="http://purl.org/dc/dcmitype/StillImage"/>
    <dc:date>2022-01-11T08:52:12.873846</dc:date>
    <dc:format>image/svg+xml</dc:format>
    <dc:creator>
     <cc:Agent>
      <dc:title>Matplotlib v3.4.3, https://matplotlib.org/</dc:title>
     </cc:Agent>
    </dc:creator>
   </cc:Work>
  </rdf:RDF>
 </metadata>
 <defs>
  <style type="text/css">*{stroke-linecap:butt;stroke-linejoin:round;}</style>
 </defs>
 <g id="figure_1">
  <g id="patch_1">
   <path d="M 0 576 
L 720 576 
L 720 0 
L 0 0 
z
" style="fill:none;"/>
  </g>
  <g id="axes_1">
   <g id="patch_2">
    <path d="M 90 504 
L 648 504 
L 648 69.12 
L 90 69.12 
z
" style="fill:#ffffff;"/>
   </g>
   <g id="matplotlib.axis_1">
    <g id="xtick_1">
     <g id="line2d_1">
      <defs>
       <path d="M 0 0 
L 0 3.5 
" id="mea24a3e9af" style="stroke:#000000;stroke-width:0.8;"/>
      </defs>
      <g>
       <use style="stroke:#000000;stroke-width:0.8;" x="115.363636" xlink:href="#mea24a3e9af" y="504"/>
      </g>
     </g>
     <g id="text_1">
      <!-- 0 -->
      <g transform="translate(112.182386 518.598438)scale(0.1 -0.1)">
       <defs>
        <path d="M 2034 4250 
Q 1547 4250 1301 3770 
Q 1056 3291 1056 2328 
Q 1056 1369 1301 889 
Q 1547 409 2034 409 
Q 2525 409 2770 889 
Q 3016 1369 3016 2328 
Q 3016 3291 2770 3770 
Q 2525 4250 2034 4250 
z
M 2034 4750 
Q 2819 4750 3233 4129 
Q 3647 3509 3647 2328 
Q 3647 1150 3233 529 
Q 2819 -91 2034 -91 
Q 1250 -91 836 529 
Q 422 1150 422 2328 
Q 422 3509 836 4129 
Q 1250 4750 2034 4750 
z
" id="DejaVuSans-30" transform="scale(0.015625)"/>
       </defs>
       <use xlink:href="#DejaVuSans-30"/>
      </g>
     </g>
    </g>
    <g id="xtick_2">
     <g id="line2d_2">
      <g>
       <use style="stroke:#000000;stroke-width:0.8;" x="216.85878" xlink:href="#mea24a3e9af" y="504"/>
      </g>
     </g>
     <g id="text_2">
      <!-- 500 -->
      <g transform="translate(207.31503 518.598438)scale(0.1 -0.1)">
       <defs>
        <path d="M 691 4666 
L 3169 4666 
L 3169 4134 
L 1269 4134 
L 1269 2991 
Q 1406 3038 1543 3061 
Q 1681 3084 1819 3084 
Q 2600 3084 3056 2656 
Q 3513 2228 3513 1497 
Q 3513 744 3044 326 
Q 2575 -91 1722 -91 
Q 1428 -91 1123 -41 
Q 819 9 494 109 
L 494 744 
Q 775 591 1075 516 
Q 1375 441 1709 441 
Q 2250 441 2565 725 
Q 2881 1009 2881 1497 
Q 2881 1984 2565 2268 
Q 2250 2553 1709 2553 
Q 1456 2553 1204 2497 
Q 953 2441 691 2322 
L 691 4666 
z
" id="DejaVuSans-35" transform="scale(0.015625)"/>
       </defs>
       <use xlink:href="#DejaVuSans-35"/>
       <use x="63.623047" xlink:href="#DejaVuSans-30"/>
       <use x="127.246094" xlink:href="#DejaVuSans-30"/>
      </g>
     </g>
    </g>
    <g id="xtick_3">
     <g id="line2d_3">
      <g>
       <use style="stroke:#000000;stroke-width:0.8;" x="318.353923" xlink:href="#mea24a3e9af" y="504"/>
      </g>
     </g>
     <g id="text_3">
      <!-- 1000 -->
      <g transform="translate(305.628923 518.598438)scale(0.1 -0.1)">
       <defs>
        <path d="M 794 531 
L 1825 531 
L 1825 4091 
L 703 3866 
L 703 4441 
L 1819 4666 
L 2450 4666 
L 2450 531 
L 3481 531 
L 3481 0 
L 794 0 
L 794 531 
z
" id="DejaVuSans-31" transform="scale(0.015625)"/>
       </defs>
       <use xlink:href="#DejaVuSans-31"/>
       <use x="63.623047" xlink:href="#DejaVuSans-30"/>
       <use x="127.246094" xlink:href="#DejaVuSans-30"/>
       <use x="190.869141" xlink:href="#DejaVuSans-30"/>
      </g>
     </g>
    </g>
    <g id="xtick_4">
     <g id="line2d_4">
      <g>
       <use style="stroke:#000000;stroke-width:0.8;" x="419.849067" xlink:href="#mea24a3e9af" y="504"/>
      </g>
     </g>
     <g id="text_4">
      <!-- 1500 -->
      <g transform="translate(407.124067 518.598438)scale(0.1 -0.1)">
       <use xlink:href="#DejaVuSans-31"/>
       <use x="63.623047" xlink:href="#DejaVuSans-35"/>
       <use x="127.246094" xlink:href="#DejaVuSans-30"/>
       <use x="190.869141" xlink:href="#DejaVuSans-30"/>
      </g>
     </g>
    </g>
    <g id="xtick_5">
     <g id="line2d_5">
      <g>
       <use style="stroke:#000000;stroke-width:0.8;" x="521.34421" xlink:href="#mea24a3e9af" y="504"/>
      </g>
     </g>
     <g id="text_5">
      <!-- 2000 -->
      <g transform="translate(508.61921 518.598438)scale(0.1 -0.1)">
       <defs>
        <path d="M 1228 531 
L 3431 531 
L 3431 0 
L 469 0 
L 469 531 
Q 828 903 1448 1529 
Q 2069 2156 2228 2338 
Q 2531 2678 2651 2914 
Q 2772 3150 2772 3378 
Q 2772 3750 2511 3984 
Q 2250 4219 1831 4219 
Q 1534 4219 1204 4116 
Q 875 4013 500 3803 
L 500 4441 
Q 881 4594 1212 4672 
Q 1544 4750 1819 4750 
Q 2544 4750 2975 4387 
Q 3406 4025 3406 3419 
Q 3406 3131 3298 2873 
Q 3191 2616 2906 2266 
Q 2828 2175 2409 1742 
Q 1991 1309 1228 531 
z
" id="DejaVuSans-32" transform="scale(0.015625)"/>
       </defs>
       <use xlink:href="#DejaVuSans-32"/>
       <use x="63.623047" xlink:href="#DejaVuSans-30"/>
       <use x="127.246094" xlink:href="#DejaVuSans-30"/>
       <use x="190.869141" xlink:href="#DejaVuSans-30"/>
      </g>
     </g>
    </g>
    <g id="xtick_6">
     <g id="line2d_6">
      <g>
       <use style="stroke:#000000;stroke-width:0.8;" x="622.839354" xlink:href="#mea24a3e9af" y="504"/>
      </g>
     </g>
     <g id="text_6">
      <!-- 2500 -->
      <g transform="translate(610.114354 518.598438)scale(0.1 -0.1)">
       <use xlink:href="#DejaVuSans-32"/>
       <use x="63.623047" xlink:href="#DejaVuSans-35"/>
       <use x="127.246094" xlink:href="#DejaVuSans-30"/>
       <use x="190.869141" xlink:href="#DejaVuSans-30"/>
      </g>
     </g>
    </g>
   </g>
   <g id="matplotlib.axis_2">
    <g id="ytick_1">
     <g id="line2d_7">
      <defs>
       <path d="M 0 0 
L -3.5 0 
" id="m7a1cc184c4" style="stroke:#000000;stroke-width:0.8;"/>
      </defs>
      <g>
       <use style="stroke:#000000;stroke-width:0.8;" x="90" xlink:href="#m7a1cc184c4" y="429.498457"/>
      </g>
     </g>
     <g id="text_7">
      <!-- −6000 -->
      <g transform="translate(49.170313 433.297675)scale(0.1 -0.1)">
       <defs>
        <path d="M 678 2272 
L 4684 2272 
L 4684 1741 
L 678 1741 
L 678 2272 
z
" id="DejaVuSans-2212" transform="scale(0.015625)"/>
        <path d="M 2113 2584 
Q 1688 2584 1439 2293 
Q 1191 2003 1191 1497 
Q 1191 994 1439 701 
Q 1688 409 2113 409 
Q 2538 409 2786 701 
Q 3034 994 3034 1497 
Q 3034 2003 2786 2293 
Q 2538 2584 2113 2584 
z
M 3366 4563 
L 3366 3988 
Q 3128 4100 2886 4159 
Q 2644 4219 2406 4219 
Q 1781 4219 1451 3797 
Q 1122 3375 1075 2522 
Q 1259 2794 1537 2939 
Q 1816 3084 2150 3084 
Q 2853 3084 3261 2657 
Q 3669 2231 3669 1497 
Q 3669 778 3244 343 
Q 2819 -91 2113 -91 
Q 1303 -91 875 529 
Q 447 1150 447 2328 
Q 447 3434 972 4092 
Q 1497 4750 2381 4750 
Q 2619 4750 2861 4703 
Q 3103 4656 3366 4563 
z
" id="DejaVuSans-36" transform="scale(0.015625)"/>
       </defs>
       <use xlink:href="#DejaVuSans-2212"/>
       <use x="83.789062" xlink:href="#DejaVuSans-36"/>
       <use x="147.412109" xlink:href="#DejaVuSans-30"/>
       <use x="211.035156" xlink:href="#DejaVuSans-30"/>
       <use x="274.658203" xlink:href="#DejaVuSans-30"/>
      </g>
     </g>
    </g>
    <g id="ytick_2">
     <g id="line2d_8">
      <g>
       <use style="stroke:#000000;stroke-width:0.8;" x="90" xlink:href="#m7a1cc184c4" y="350.801709"/>
      </g>
     </g>
     <g id="text_8">
      <!-- −4000 -->
      <g transform="translate(49.170313 354.600928)scale(0.1 -0.1)">
       <defs>
        <path d="M 2419 4116 
L 825 1625 
L 2419 1625 
L 2419 4116 
z
M 2253 4666 
L 3047 4666 
L 3047 1625 
L 3713 1625 
L 3713 1100 
L 3047 1100 
L 3047 0 
L 2419 0 
L 2419 1100 
L 313 1100 
L 313 1709 
L 2253 4666 
z
" id="DejaVuSans-34" transform="scale(0.015625)"/>
       </defs>
       <use xlink:href="#DejaVuSans-2212"/>
       <use x="83.789062" xlink:href="#DejaVuSans-34"/>
       <use x="147.412109" xlink:href="#DejaVuSans-30"/>
       <use x="211.035156" xlink:href="#DejaVuSans-30"/>
       <use x="274.658203" xlink:href="#DejaVuSans-30"/>
      </g>
     </g>
    </g>
    <g id="ytick_3">
     <g id="line2d_9">
      <g>
       <use style="stroke:#000000;stroke-width:0.8;" x="90" xlink:href="#m7a1cc184c4" y="272.104962"/>
      </g>
     </g>
     <g id="text_9">
      <!-- −2000 -->
      <g transform="translate(49.170313 275.904181)scale(0.1 -0.1)">
       <use xlink:href="#DejaVuSans-2212"/>
       <use x="83.789062" xlink:href="#DejaVuSans-32"/>
       <use x="147.412109" xlink:href="#DejaVuSans-30"/>
       <use x="211.035156" xlink:href="#DejaVuSans-30"/>
       <use x="274.658203" xlink:href="#DejaVuSans-30"/>
      </g>
     </g>
    </g>
    <g id="ytick_4">
     <g id="line2d_10">
      <g>
       <use style="stroke:#000000;stroke-width:0.8;" x="90" xlink:href="#m7a1cc184c4" y="193.408215"/>
      </g>
     </g>
     <g id="text_10">
      <!-- 0 -->
      <g transform="translate(76.6375 197.207434)scale(0.1 -0.1)">
       <use xlink:href="#DejaVuSans-30"/>
      </g>
     </g>
    </g>
    <g id="ytick_5">
     <g id="line2d_11">
      <g>
       <use style="stroke:#000000;stroke-width:0.8;" x="90" xlink:href="#m7a1cc184c4" y="114.711468"/>
      </g>
     </g>
     <g id="text_11">
      <!-- 2000 -->
      <g transform="translate(57.55 118.510686)scale(0.1 -0.1)">
       <use xlink:href="#DejaVuSans-32"/>
       <use x="63.623047" xlink:href="#DejaVuSans-30"/>
       <use x="127.246094" xlink:href="#DejaVuSans-30"/>
       <use x="190.869141" xlink:href="#DejaVuSans-30"/>
      </g>
     </g>
    </g>
   </g>
   <g id="line2d_12">
    <path clip-path="url(#pbb4c9fcae0)" d="M 115.363636 193.486912 
L 115.566627 205.330772 
L 115.972607 205.39644 
L 116.175598 205.320102 
L 116.378588 204.834569 
L 116.581578 202.837943 
L 116.987559 88.887273 
L 117.190549 107.009473 
L 117.59653 119.288789 
L 118.00251 125.230238 
L 118.611481 130.639764 
L 119.017462 132.824749 
L 119.423442 134.006912 
L 119.626432 134.159503 
L 119.829423 133.927727 
L 120.032413 133.160661 
L 120.235403 131.532667 
L 120.438394 128.139595 
L 120.641384 117.825035 
L 120.844374 121.771293 
L 121.047364 136.907271 
L 121.453345 146.637227 
L 122.062316 154.028743 
L 122.671287 158.559304 
L 123.280258 161.270372 
L 123.686238 161.992134 
L 123.889228 161.856767 
L 124.092219 161.161395 
L 124.295209 159.406047 
L 124.498199 154.476342 
L 124.90418 195.533899 
L 125.31016 200.16326 
L 125.919131 203.233509 
L 126.528102 204.911392 
L 127.137073 205.915889 
L 127.543054 206.310154 
L 127.949034 206.416166 
L 128.152024 206.180963 
L 128.355015 204.012531 
L 128.558005 203.136067 
L 128.963986 206.016792 
L 129.166976 206.556128 
L 130.384918 206.736516 
L 131.602859 206.865868 
L 132.617811 206.711236 
L 133.632762 206.296359 
L 134.038743 206.003223 
L 134.241733 205.763739 
L 134.647714 190.205509 
L 134.850704 190.286092 
L 135.256684 190.029209 
L 136.068646 189.133242 
L 137.692568 187.275605 
L 138.301539 186.951774 
L 138.91051 186.967208 
L 139.925461 187.102799 
L 140.331442 186.958807 
L 140.737422 186.642884 
L 141.346393 185.794816 
L 141.955364 184.358417 
L 142.361345 182.779843 
L 142.564335 181.528191 
L 142.767325 179.172479 
L 143.376296 189.203939 
L 143.782277 189.903211 
L 144.188257 190.039136 
L 144.594238 189.91808 
L 145.203209 189.447494 
L 146.01517 188.467241 
L 146.827131 187.458084 
L 147.233111 187.258289 
L 147.639092 187.450697 
L 148.654043 188.35482 
L 149.060024 188.388147 
L 149.466005 188.184645 
L 149.871985 187.750652 
L 150.480956 186.634209 
L 150.886937 185.503258 
L 151.292917 183.877761 
L 151.698898 181.308697 
L 151.901888 179.177334 
L 152.104878 175.215604 
L 152.307869 212.452828 
L 159.006548 213.751324 
L 159.209538 225.595185 
L 159.615519 225.660852 
L 159.818509 225.584514 
L 160.0215 225.098981 
L 160.22449 223.102356 
L 160.63047 109.151685 
L 160.833461 127.273885 
L 161.239441 139.553201 
L 161.645422 145.49465 
L 162.254393 150.904177 
L 162.660373 153.089161 
L 163.066354 154.271324 
L 163.269344 154.423915 
L 163.472334 154.192139 
L 163.675325 153.425073 
L 163.878315 151.797079 
L 164.081305 148.404008 
L 164.284296 138.089447 
L 164.487286 142.035705 
L 164.690276 157.171683 
L 165.096257 166.901639 
L 165.705228 174.293155 
L 166.314198 178.823716 
L 166.923169 181.534785 
L 167.32915 182.256546 
L 167.53214 182.12118 
L 167.73513 181.425807 
L 167.938121 179.67046 
L 168.141111 174.740754 
L 168.547092 215.798311 
L 168.953072 220.427672 
L 169.562043 223.497921 
L 170.171014 225.175804 
L 170.779985 226.180302 
L 171.185965 226.574567 
L 171.591946 226.680579 
L 171.794936 226.445375 
L 171.997926 224.276943 
L 172.200917 223.40048 
L 172.606897 226.281205 
L 172.809888 226.820541 
L 174.027829 227.000928 
L 175.245771 227.13028 
L 176.260722 226.975649 
L 177.275674 226.560771 
L 177.681654 226.267635 
L 177.884645 226.028152 
L 178.290625 210.469922 
L 178.493616 210.550504 
L 178.899596 210.293622 
L 179.711557 209.397654 
L 181.33548 207.540017 
L 181.944451 207.216187 
L 182.553421 207.23162 
L 183.568373 207.367211 
L 183.974353 207.22322 
L 184.380334 206.907296 
L 184.989305 206.059228 
L 185.598276 204.622829 
L 186.004256 203.044255 
L 186.207247 201.792604 
L 186.410237 199.436892 
L 187.019208 209.468352 
L 187.425188 210.167624 
L 187.831169 210.303548 
L 188.237149 210.182492 
L 188.84612 209.711906 
L 189.658081 208.731654 
L 190.470043 207.722496 
L 190.876023 207.522702 
L 191.282004 207.715109 
L 192.296955 208.619232 
L 192.702936 208.65256 
L 193.108916 208.449057 
L 193.514897 208.015064 
L 194.123868 206.898621 
L 194.529848 205.76767 
L 194.935829 204.142173 
L 195.341809 201.573109 
L 195.5448 199.441746 
L 195.74779 195.480017 
L 195.95078 232.71724 
L 202.64946 234.015736 
L 202.85245 245.859597 
L 203.258431 245.925264 
L 203.461421 245.848927 
L 203.664411 245.363393 
L 203.867402 243.366768 
L 204.273382 129.416098 
L 204.476372 147.538298 
L 204.882353 159.817614 
L 205.288334 165.759063 
L 205.897304 171.168589 
L 206.303285 173.353574 
L 206.709266 174.535737 
L 206.912256 174.688328 
L 207.115246 174.456552 
L 207.318236 173.689486 
L 207.521227 172.061492 
L 207.724217 168.66842 
L 207.927207 158.35386 
L 208.130198 162.300118 
L 208.333188 177.436096 
L 208.739168 187.166052 
L 209.348139 194.557568 
L 209.95711 199.088128 
L 210.566081 201.799197 
L 210.972062 202.520959 
L 211.175052 202.385592 
L 211.378042 201.690219 
L 211.581032 199.934872 
L 211.784023 195.005166 
L 212.190003 236.062724 
L 212.595984 240.692085 
L 213.204955 243.762333 
L 213.813926 245.440216 
L 214.422896 246.444714 
L 214.828877 246.838979 
L 215.234858 246.944991 
L 215.437848 246.709788 
L 215.640838 244.541355 
L 215.843828 243.664892 
L 216.249809 246.545617 
L 216.452799 247.084953 
L 217.670741 247.265341 
L 218.888683 247.394692 
L 219.903634 247.240061 
L 220.918586 246.825184 
L 221.324566 246.532048 
L 221.527556 246.292564 
L 221.933537 230.734334 
L 222.136527 230.814917 
L 222.542508 230.558034 
L 223.354469 229.662067 
L 224.978391 227.80443 
L 225.587362 227.480599 
L 226.196333 227.496033 
L 227.211285 227.631624 
L 227.617265 227.487632 
L 228.023246 227.171709 
L 228.632217 226.32364 
L 229.241187 224.887242 
L 229.647168 223.308668 
L 229.850158 222.057016 
L 230.053149 219.701304 
L 230.662119 229.732764 
L 231.0681 230.432036 
L 231.474081 230.567961 
L 231.880061 230.446905 
L 232.489032 229.976318 
L 233.300993 228.996066 
L 234.112954 227.986909 
L 234.518935 227.787114 
L 234.924915 227.979522 
L 235.939867 228.883645 
L 236.345847 228.916972 
L 236.751828 228.71347 
L 237.157809 228.279477 
L 237.766779 227.163034 
L 238.17276 226.032083 
L 238.578741 224.406586 
L 238.984721 221.837522 
L 239.187711 219.706159 
L 239.390702 215.744429 
L 239.593692 252.981653 
L 246.292371 254.280149 
L 246.495362 266.124009 
L 246.901342 266.189677 
L 247.104333 266.113339 
L 247.307323 265.627806 
L 247.510313 263.63118 
L 247.916294 149.68051 
L 248.119284 167.80271 
L 248.525265 180.082026 
L 248.931245 186.023475 
L 249.540216 191.433001 
L 249.946197 193.617986 
L 250.352177 194.800149 
L 250.555168 194.95274 
L 250.758158 194.720964 
L 250.961148 193.953898 
L 251.164138 192.325904 
L 251.367129 188.932833 
L 251.570119 178.618272 
L 251.773109 182.56453 
L 251.9761 197.700508 
L 252.38208 207.430464 
L 252.991051 214.82198 
L 253.600022 219.352541 
L 254.208993 222.06361 
L 254.614973 222.785371 
L 254.817964 222.650004 
L 255.020954 221.954632 
L 255.223944 220.199285 
L 255.426934 215.269579 
L 255.832915 256.327136 
L 256.238896 260.956497 
L 256.847866 264.026746 
L 257.456837 265.704629 
L 258.065808 266.709127 
L 258.471789 267.103392 
L 258.877769 267.209403 
L 259.08076 266.9742 
L 259.28375 264.805768 
L 259.48674 263.929304 
L 259.892721 266.81003 
L 260.095711 267.349365 
L 261.313653 267.529753 
L 262.531594 267.659105 
L 263.546546 267.504473 
L 264.561497 267.089596 
L 264.967478 266.79646 
L 265.170468 266.556976 
L 265.576449 250.998746 
L 265.779439 251.079329 
L 266.18542 250.822447 
L 266.997381 249.926479 
L 268.621303 248.068842 
L 269.230274 247.745011 
L 269.839245 247.760445 
L 270.854196 247.896036 
L 271.260177 247.752044 
L 271.666157 247.436121 
L 272.275128 246.588053 
L 272.884099 245.151654 
L 273.29008 243.57308 
L 273.49307 242.321429 
L 273.69606 239.965717 
L 274.305031 249.997176 
L 274.711012 250.696449 
L 275.116992 250.832373 
L 275.522973 250.711317 
L 276.131944 250.240731 
L 276.943905 249.260479 
L 277.755866 248.251321 
L 278.161847 248.051526 
L 278.567827 248.243934 
L 279.582779 249.148057 
L 279.988759 249.181384 
L 280.39474 248.977882 
L 280.80072 248.543889 
L 281.409691 247.427446 
L 281.815672 246.296495 
L 282.221652 244.670998 
L 282.627633 242.101934 
L 282.830623 239.970571 
L 283.033613 236.008841 
L 283.236604 273.246065 
L 288.311361 274.229774 
L 288.514351 313.617496 
L 288.920332 313.683164 
L 289.123322 313.606826 
L 289.326312 313.121293 
L 289.529303 311.124667 
L 289.935283 197.173997 
L 290.138273 215.296197 
L 290.544254 227.575513 
L 290.950235 233.516962 
L 291.559206 238.926488 
L 291.965186 241.111473 
L 292.371167 242.293636 
L 292.574157 242.446227 
L 292.777147 242.214451 
L 292.980138 241.447385 
L 293.183128 239.819391 
L 293.386118 236.42632 
L 293.589108 226.111759 
L 293.792099 230.058017 
L 293.995089 245.193995 
L 294.40107 254.923951 
L 295.01004 262.315467 
L 295.619011 266.846028 
L 296.227982 269.557097 
L 296.633963 270.278858 
L 296.836953 270.143491 
L 297.039943 269.448119 
L 297.242934 267.692771 
L 297.445924 262.763066 
L 297.851904 303.820623 
L 298.257885 308.449984 
L 298.866856 311.520233 
L 299.475827 313.198116 
L 300.084798 314.202614 
L 300.490778 314.596878 
L 300.896759 314.70289 
L 301.099749 314.467687 
L 301.302739 312.299255 
L 301.50573 311.422791 
L 301.91171 314.303517 
L 302.1147 314.842852 
L 303.332642 315.02324 
L 304.550584 315.152592 
L 305.565535 314.99796 
L 306.580487 314.583083 
L 306.986467 314.289947 
L 307.189458 314.050463 
L 307.595438 298.492233 
L 307.798428 298.572816 
L 308.204409 298.315934 
L 309.01637 297.419966 
L 310.640292 295.562329 
L 311.249263 295.238498 
L 311.858234 295.253932 
L 312.873186 295.389523 
L 313.279166 295.245531 
L 313.685147 294.929608 
L 314.294118 294.08154 
L 314.903089 292.645141 
L 315.309069 291.066567 
L 315.512059 289.814916 
L 315.71505 287.459203 
L 316.324021 297.490663 
L 316.730001 298.189935 
L 317.135982 298.32586 
L 317.541962 298.204804 
L 318.150933 297.734218 
L 318.962894 296.753966 
L 319.774855 295.744808 
L 320.180836 295.545013 
L 320.586817 295.737421 
L 321.601768 296.641544 
L 322.007749 296.674871 
L 322.413729 296.471369 
L 322.81971 296.037376 
L 323.428681 294.920933 
L 323.834661 293.789982 
L 324.240642 292.164485 
L 324.646622 289.595421 
L 324.849613 287.464058 
L 325.052603 283.502328 
L 325.255593 320.739552 
L 331.954273 322.038048 
L 332.157263 333.881909 
L 332.563243 333.947576 
L 332.766234 333.871239 
L 332.969224 333.385705 
L 333.172214 331.38908 
L 333.578195 217.438409 
L 333.781185 235.56061 
L 334.187166 247.839925 
L 334.593146 253.781375 
L 335.202117 259.190901 
L 335.608098 261.375885 
L 336.014078 262.558048 
L 336.217069 262.710639 
L 336.420059 262.478863 
L 336.623049 261.711797 
L 336.82604 260.083804 
L 337.02903 256.690732 
L 337.23202 246.376171 
L 337.43501 250.32243 
L 337.638001 265.458408 
L 338.043981 275.188363 
L 338.652952 282.579879 
L 339.261923 287.11044 
L 339.870894 289.821509 
L 340.276874 290.54327 
L 340.479865 290.407904 
L 340.682855 289.712531 
L 340.885845 287.957184 
L 341.088836 283.027478 
L 341.494816 324.085035 
L 341.900797 328.714396 
L 342.509768 331.784645 
L 343.118738 333.462528 
L 343.727709 334.467026 
L 344.13369 334.861291 
L 344.53967 334.967303 
L 344.742661 334.732099 
L 344.945651 332.563667 
L 345.148641 331.687204 
L 345.554622 334.567929 
L 345.757612 335.107265 
L 346.975554 335.287652 
L 348.193496 335.417004 
L 349.208447 335.262373 
L 350.223398 334.847495 
L 350.629379 334.554359 
L 350.832369 334.314876 
L 351.23835 318.756646 
L 351.44134 318.837229 
L 351.847321 318.580346 
L 352.659282 317.684379 
L 354.283204 315.826742 
L 354.892175 315.502911 
L 355.501146 315.518344 
L 356.516097 315.653935 
L 356.922078 315.509944 
L 357.328058 315.19402 
L 357.937029 314.345952 
L 358.546 312.909553 
L 358.951981 311.330979 
L 359.154971 310.079328 
L 359.357961 307.723616 
L 359.966932 317.755076 
L 360.372913 318.454348 
L 360.778893 318.590272 
L 361.184874 318.469216 
L 361.793845 317.99863 
L 362.605806 317.018378 
L 363.417767 316.00922 
L 363.823748 315.809426 
L 364.229728 316.001834 
L 365.24468 316.905956 
L 365.65066 316.939284 
L 366.056641 316.735782 
L 366.462621 316.301788 
L 367.071592 315.185346 
L 367.477573 314.054394 
L 367.883553 312.428898 
L 368.289534 309.859834 
L 368.492524 307.72847 
L 368.695515 303.766741 
L 368.898505 341.003964 
L 375.597184 342.302461 
L 375.800175 354.146321 
L 376.206155 354.211989 
L 376.409145 354.135651 
L 376.612136 353.650118 
L 376.815126 351.653492 
L 377.221107 237.702822 
L 377.424097 255.825022 
L 377.830077 268.104338 
L 378.236058 274.045787 
L 378.845029 279.455313 
L 379.251009 281.640298 
L 379.65699 282.822461 
L 379.85998 282.975052 
L 380.062971 282.743276 
L 380.265961 281.97621 
L 380.468951 280.348216 
L 380.671942 276.955144 
L 380.874932 266.640584 
L 381.077922 270.586842 
L 381.280912 285.72282 
L 381.686893 295.452776 
L 382.295864 302.844292 
L 382.904835 307.374853 
L 383.513806 310.085921 
L 383.919786 310.807683 
L 384.122776 310.672316 
L 384.325767 309.976944 
L 384.528757 308.221596 
L 384.731747 303.291891 
L 385.137728 344.349448 
L 385.543708 348.978809 
L 386.152679 352.049057 
L 386.76165 353.726941 
L 387.370621 354.731438 
L 387.776602 355.125703 
L 388.182582 355.231715 
L 388.385572 354.996512 
L 388.588563 352.82808 
L 388.791553 351.951616 
L 389.197534 354.832341 
L 389.400524 355.371677 
L 390.618466 355.552065 
L 391.836407 355.681417 
L 392.851359 355.526785 
L 393.86631 355.111908 
L 394.272291 354.818772 
L 394.475281 354.579288 
L 394.881262 339.021058 
L 395.084252 339.101641 
L 395.490232 338.844758 
L 396.302194 337.948791 
L 397.926116 336.091154 
L 398.535087 335.767323 
L 399.144058 335.782757 
L 400.159009 335.918348 
L 400.56499 335.774356 
L 400.97097 335.458433 
L 401.579941 334.610365 
L 402.188912 333.173966 
L 402.594893 331.595392 
L 402.797883 330.34374 
L 403.000873 327.988028 
L 403.609844 338.019488 
L 404.015825 338.71876 
L 404.421805 338.854685 
L 404.827786 338.733629 
L 405.436757 338.263043 
L 406.248718 337.28279 
L 407.060679 336.273633 
L 407.466659 336.073838 
L 407.87264 336.266246 
L 408.887591 337.170369 
L 409.293572 337.203696 
L 409.699553 337.000194 
L 410.105533 336.566201 
L 410.714504 335.449758 
L 411.120485 334.318807 
L 411.526465 332.69331 
L 411.932446 330.124246 
L 412.135436 327.992883 
L 412.338426 324.031153 
L 412.541417 361.268377 
L 419.240096 362.566873 
L 419.443086 374.410733 
L 419.849067 374.476401 
L 420.052057 374.400063 
L 420.255047 373.91453 
L 420.458038 371.917905 
L 420.864018 257.967234 
L 421.067009 276.089434 
L 421.472989 288.36875 
L 421.87897 294.310199 
L 422.487941 299.719726 
L 422.893921 301.90471 
L 423.299902 303.086873 
L 423.502892 303.239464 
L 423.705882 303.007688 
L 423.908873 302.240622 
L 424.111863 300.612628 
L 424.314853 297.219557 
L 424.517844 286.904996 
L 424.720834 290.851254 
L 424.923824 305.987232 
L 425.329805 315.717188 
L 425.938776 323.108704 
L 426.547746 327.639265 
L 427.156717 330.350334 
L 427.562698 331.072095 
L 427.765688 330.936729 
L 427.968678 330.241356 
L 428.171669 328.486009 
L 428.374659 323.556303 
L 428.78064 364.61386 
L 429.18662 369.243221 
L 429.795591 372.31347 
L 430.404562 373.991353 
L 431.013533 374.995851 
L 431.419513 375.390116 
L 431.825494 375.496128 
L 432.028484 375.260924 
L 432.231474 373.092492 
L 432.434465 372.216029 
L 432.840445 375.096754 
L 433.043436 375.63609 
L 434.261377 375.816477 
L 435.479319 375.945829 
L 436.49427 375.791198 
L 437.509222 375.37632 
L 437.915202 375.083184 
L 438.118193 374.843701 
L 438.524173 359.285471 
L 438.727164 359.366053 
L 439.133144 359.109171 
L 439.945105 358.213203 
L 441.569028 356.355566 
L 442.177998 356.031736 
L 442.786969 356.047169 
L 443.801921 356.18276 
L 444.207901 356.038769 
L 444.613882 355.722845 
L 445.222853 354.874777 
L 445.831824 353.438378 
L 446.237804 351.859804 
L 446.440794 350.608153 
L 446.643785 348.252441 
L 447.252756 358.283901 
L 447.658736 358.983173 
L 448.064717 359.119097 
L 448.470697 358.998041 
L 449.079668 358.527455 
L 449.891629 357.547203 
L 450.703591 356.538045 
L 451.109571 356.338251 
L 451.515552 356.530658 
L 452.530503 357.434781 
L 452.936484 357.468109 
L 453.342464 357.264606 
L 453.748445 356.830613 
L 454.357416 355.71417 
L 454.763396 354.583219 
L 455.169377 352.957722 
L 455.575357 350.388658 
L 455.778348 348.257295 
L 455.981338 344.295566 
L 456.184328 381.532789 
L 461.259085 382.516498 
L 461.462076 421.90422 
L 461.868056 421.969888 
L 462.071047 421.89355 
L 462.274037 421.408017 
L 462.477027 419.411392 
L 462.883008 305.460721 
L 463.085998 323.582921 
L 463.491979 335.862237 
L 463.897959 341.803686 
L 464.50693 347.213212 
L 464.912911 349.398197 
L 465.318891 350.58036 
L 465.521881 350.732951 
L 465.724872 350.501175 
L 465.927862 349.734109 
L 466.130852 348.106115 
L 466.333843 344.713044 
L 466.536833 334.398483 
L 466.739823 338.344741 
L 466.942813 353.480719 
L 467.348794 363.210675 
L 467.957765 370.602191 
L 468.566736 375.132752 
L 469.175707 377.843821 
L 469.581687 378.565582 
L 469.784678 378.430216 
L 469.987668 377.734843 
L 470.190658 375.979496 
L 470.393648 371.04979 
L 470.799629 412.107347 
L 471.20561 416.736708 
L 471.81458 419.806957 
L 472.423551 421.48484 
L 473.032522 422.489338 
L 473.438503 422.883603 
L 473.844483 422.989615 
L 474.047474 422.754411 
L 474.250464 420.585979 
L 474.453454 419.709516 
L 474.859435 422.590241 
L 475.062425 423.129576 
L 476.280367 423.309964 
L 477.498308 423.439316 
L 478.51326 423.284685 
L 479.528211 422.869807 
L 479.934192 422.576671 
L 480.137182 422.337188 
L 480.543163 406.778958 
L 480.746153 406.85954 
L 481.152134 406.602658 
L 481.964095 405.70669 
L 483.588017 403.849053 
L 484.196988 403.525222 
L 484.805959 403.540656 
L 485.82091 403.676247 
L 486.226891 403.532256 
L 486.632871 403.216332 
L 487.241842 402.368264 
L 487.850813 400.931865 
L 488.256794 399.353291 
L 488.459784 398.10164 
L 488.662774 395.745928 
L 489.271745 405.777387 
L 489.677726 406.47666 
L 490.083706 406.612584 
L 490.489687 406.491528 
L 491.098658 406.020942 
L 491.910619 405.04069 
L 492.72258 404.031532 
L 493.128561 403.831738 
L 493.534541 404.024145 
L 494.549493 404.928268 
L 494.955473 404.961596 
L 495.361454 404.758093 
L 495.767434 404.3241 
L 496.376405 403.207657 
L 496.782386 402.076706 
L 497.188366 400.451209 
L 497.594347 397.882145 
L 497.797337 395.750782 
L 498.000327 391.789053 
L 498.203318 429.026276 
L 504.901997 430.324772 
L 505.104987 442.168633 
L 505.510968 442.2343 
L 505.713958 442.157963 
L 505.916949 441.672429 
L 506.119939 439.675804 
L 506.525919 325.725133 
L 506.72891 343.847334 
L 507.13489 356.12665 
L 507.540871 362.068099 
L 508.149842 367.477625 
L 508.555822 369.66261 
L 508.961803 370.844773 
L 509.164793 370.997364 
L 509.367783 370.765588 
L 509.570774 369.998522 
L 509.773764 368.370528 
L 509.976754 364.977456 
L 510.179745 354.662896 
L 510.382735 358.609154 
L 510.585725 373.745132 
L 510.991706 383.475088 
L 511.600677 390.866603 
L 512.209647 395.397164 
L 512.818618 398.108233 
L 513.224599 398.829994 
L 513.427589 398.694628 
L 513.63058 397.999255 
L 513.83357 396.243908 
L 514.03656 391.314202 
L 514.442541 432.37176 
L 514.848521 437.001121 
L 515.457492 440.071369 
L 516.066463 441.749252 
L 516.675434 442.75375 
L 517.081414 443.148015 
L 517.487395 443.254027 
L 517.690385 443.018823 
L 517.893376 440.850391 
L 518.096366 439.973928 
L 518.502346 442.854653 
L 518.705337 443.393989 
L 519.923278 443.574377 
L 521.14122 443.703728 
L 522.156172 443.549097 
L 523.171123 443.13422 
L 523.577104 442.841084 
L 523.780094 442.6016 
L 524.186074 427.04337 
L 524.389065 427.123953 
L 524.795045 426.86707 
L 525.607006 425.971103 
L 527.230929 424.113466 
L 527.8399 423.789635 
L 528.44887 423.805069 
L 529.463822 423.94066 
L 529.869802 423.796668 
L 530.275783 423.480745 
L 530.884754 422.632676 
L 531.493725 421.196278 
L 531.899705 419.617704 
L 532.102696 418.366052 
L 532.305686 416.01034 
L 532.914657 426.0418 
L 533.320637 426.741072 
L 533.726618 426.876997 
L 534.132598 426.75594 
L 534.741569 426.285354 
L 535.553531 425.305102 
L 536.365492 424.295945 
L 536.771472 424.09615 
L 537.177453 424.288558 
L 538.192404 425.19268 
L 538.598385 425.226008 
L 539.004365 425.022506 
L 539.410346 424.588513 
L 540.019317 423.47207 
L 540.425297 422.341119 
L 540.831278 420.715622 
L 541.237259 418.146558 
L 541.440249 416.015195 
L 541.643239 412.053465 
L 541.846229 449.290688 
L 548.544909 450.589185 
L 548.747899 462.433045 
L 549.15388 462.498713 
L 549.35687 462.422375 
L 549.55986 461.936842 
L 549.762851 459.940216 
L 550.168831 345.989546 
L 550.371821 364.111746 
L 550.777802 376.391062 
L 551.183783 382.332511 
L 551.792753 387.742037 
L 552.198734 389.927022 
L 552.604715 391.109185 
L 552.807705 391.261776 
L 553.010695 391.03 
L 553.213685 390.262934 
L 553.416676 388.63494 
L 553.619666 385.241869 
L 553.822656 374.927308 
L 554.025647 378.873566 
L 554.228637 394.009544 
L 554.634617 403.7395 
L 555.243588 411.131016 
L 555.852559 415.661577 
L 556.46153 418.372646 
L 556.867511 419.094407 
L 557.070501 418.95904 
L 557.273491 418.263668 
L 557.476482 416.50832 
L 557.679472 411.578615 
L 558.085452 452.636172 
L 558.491433 457.265533 
L 559.100404 460.335782 
L 559.709375 462.013665 
L 560.318346 463.018163 
L 560.724326 463.412427 
L 561.130307 463.518439 
L 561.333297 463.283236 
L 561.536287 461.114804 
L 561.739278 460.23834 
L 562.145258 463.119066 
L 562.348248 463.658401 
L 563.56619 463.838789 
L 564.784132 463.968141 
L 565.799083 463.813509 
L 566.814035 463.398632 
L 567.220015 463.105496 
L 567.423006 462.866012 
L 567.828986 447.307782 
L 568.031976 447.388365 
L 568.437957 447.131483 
L 569.249918 446.235515 
L 570.87384 444.377878 
L 571.482811 444.054047 
L 572.091782 444.069481 
L 573.106734 444.205072 
L 573.512714 444.06108 
L 573.918695 443.745157 
L 574.527666 442.897089 
L 575.136636 441.46069 
L 575.542617 439.882116 
L 575.745607 438.630465 
L 575.948598 436.274752 
L 576.557568 446.306212 
L 576.963549 447.005484 
L 577.36953 447.141409 
L 577.77551 447.020353 
L 578.384481 446.549767 
L 579.196442 445.569515 
L 580.008403 444.560357 
L 580.414384 444.360562 
L 580.820365 444.55297 
L 581.835316 445.457093 
L 582.241297 445.49042 
L 582.647277 445.286918 
L 583.053258 444.852925 
L 583.662229 443.736482 
L 584.068209 442.605531 
L 584.47419 440.980034 
L 584.88017 438.41097 
L 585.083161 436.279607 
L 585.286151 432.317877 
L 585.489141 469.555101 
L 592.187821 470.853597 
L 592.390811 482.697458 
L 592.796791 482.763125 
L 592.999782 482.686788 
L 593.202772 482.201254 
L 593.405762 480.204629 
L 593.811743 366.253958 
L 594.014733 384.376158 
L 594.420714 396.655474 
L 594.826694 402.596923 
L 595.435665 408.00645 
L 595.841646 410.191434 
L 596.247626 411.373597 
L 596.450617 411.526188 
L 596.653607 411.294412 
L 596.856597 410.527346 
L 597.059587 408.899353 
L 597.262578 405.506281 
L 597.465568 395.19172 
L 597.668558 399.137979 
L 597.871549 414.273957 
L 598.277529 424.003912 
L 598.8865 431.395428 
L 599.495471 435.925989 
L 600.104442 438.637058 
L 600.510422 439.358819 
L 600.713413 439.223453 
L 600.916403 438.52808 
L 601.119393 436.772733 
L 601.322383 431.843027 
L 601.728364 472.900584 
L 602.134345 477.529945 
L 602.743316 480.600194 
L 603.352286 482.278077 
L 603.961257 483.282575 
L 604.367238 483.67684 
L 604.773218 483.782852 
L 604.976209 483.547648 
L 605.179199 481.379216 
L 605.382189 480.502753 
L 605.78817 483.383478 
L 605.99116 483.922814 
L 607.209102 484.103201 
L 608.427044 484.232553 
L 609.441995 484.077922 
L 610.456946 483.663044 
L 610.862927 483.369908 
L 611.065917 483.130425 
L 611.471898 467.572195 
L 611.674888 467.652778 
L 612.080869 467.395895 
L 612.89283 466.499927 
L 614.516752 464.642291 
L 615.125723 464.31846 
L 615.734694 464.333893 
L 616.749645 464.469484 
L 617.155626 464.325493 
L 617.561606 464.009569 
L 618.170577 463.161501 
L 618.779548 461.725102 
L 619.185529 460.146528 
L 619.388519 458.894877 
L 619.591509 456.539165 
L 620.20048 466.570625 
L 620.606461 467.269897 
L 621.012441 467.405821 
L 621.418422 467.284765 
L 622.027393 466.814179 
L 622.636364 466.103204 
L 622.636364 466.103204 
" style="fill:none;stroke:#1f77b4;stroke-linecap:square;stroke-width:1.5;"/>
   </g>
   <g id="patch_3">
    <path d="M 90 504 
L 90 69.12 
" style="fill:none;stroke:#000000;stroke-linecap:square;stroke-linejoin:miter;stroke-width:0.8;"/>
   </g>
   <g id="patch_4">
    <path d="M 648 504 
L 648 69.12 
" style="fill:none;stroke:#000000;stroke-linecap:square;stroke-linejoin:miter;stroke-width:0.8;"/>
   </g>
   <g id="patch_5">
    <path d="M 90 504 
L 648 504 
" style="fill:none;stroke:#000000;stroke-linecap:square;stroke-linejoin:miter;stroke-width:0.8;"/>
   </g>
   <g id="patch_6">
    <path d="M 90 69.12 
L 648 69.12 
" style="fill:none;stroke:#000000;stroke-linecap:square;stroke-linejoin:miter;stroke-width:0.8;"/>
   </g>
  </g>
 </g>
 <defs>
  <clipPath id="pbb4c9fcae0">
   <rect height="434.88" width="558" x="90" y="69.12"/>
  </clipPath>
 </defs>
</svg>
