<?xml version="1.0" encoding="utf-8" standalone="no"?>
<!DOCTYPE svg PUBLIC "-//W3C//DTD SVG 1.1//EN"
  "http://www.w3.org/Graphics/SVG/1.1/DTD/svg11.dtd">
<svg height="576pt" version="1.1" viewBox="0 0 720 576" width="720pt" xmlns="http://www.w3.org/2000/svg" xmlns:xlink="http://www.w3.org/1999/xlink">
 <metadata>
  <rdf:RDF xmlns:cc="http://creativecommons.org/ns#" xmlns:dc="http://purl.org/dc/elements/1.1/" xmlns:rdf="http://www.w3.org/1999/02/22-rdf-syntax-ns#">
   <cc:Work>
    <dc:type rdf:resource="http://purl.org/dc/dcmitype/StillImage"/>
    <dc:date>2022-01-12T19:43:21.767808</dc:date>
    <dc:format>image/svg+xml</dc:format>
    <dc:creator>
     <cc:Agent>
      <dc:title>Matplotlib v3.4.3, https://matplotlib.org/</dc:title>
     </cc:Agent>
    </dc:creator>
   </cc:Work>
  </rdf:RDF>
 </metadata>
 <defs>
  <style type="text/css">*{stroke-linecap:butt;stroke-linejoin:round;}</style>
 </defs>
 <g id="figure_1">
  <g id="patch_1">
   <path d="M 0 576 
L 720 576 
L 720 0 
L 0 0 
z
" style="fill:none;"/>
  </g>
  <g id="axes_1">
   <g id="patch_2">
    <path d="M 90 504 
L 648 504 
L 648 69.12 
L 90 69.12 
z
" style="fill:#ffffff;"/>
   </g>
   <g id="matplotlib.axis_1">
    <g id="xtick_1">
     <g id="line2d_1">
      <defs>
       <path d="M 0 0 
L 0 3.5 
" id="meab3bd9b30" style="stroke:#000000;stroke-width:0.8;"/>
      </defs>
      <g>
       <use style="stroke:#000000;stroke-width:0.8;" x="115.363636" xlink:href="#meab3bd9b30" y="504"/>
      </g>
     </g>
     <g id="text_1">
      <!-- 0 -->
      <g transform="translate(112.182386 518.598438)scale(0.1 -0.1)">
       <defs>
        <path d="M 2034 4250 
Q 1547 4250 1301 3770 
Q 1056 3291 1056 2328 
Q 1056 1369 1301 889 
Q 1547 409 2034 409 
Q 2525 409 2770 889 
Q 3016 1369 3016 2328 
Q 3016 3291 2770 3770 
Q 2525 4250 2034 4250 
z
M 2034 4750 
Q 2819 4750 3233 4129 
Q 3647 3509 3647 2328 
Q 3647 1150 3233 529 
Q 2819 -91 2034 -91 
Q 1250 -91 836 529 
Q 422 1150 422 2328 
Q 422 3509 836 4129 
Q 1250 4750 2034 4750 
z
" id="DejaVuSans-30" transform="scale(0.015625)"/>
       </defs>
       <use xlink:href="#DejaVuSans-30"/>
      </g>
     </g>
    </g>
    <g id="xtick_2">
     <g id="line2d_2">
      <g>
       <use style="stroke:#000000;stroke-width:0.8;" x="217.021498" xlink:href="#meab3bd9b30" y="504"/>
      </g>
     </g>
     <g id="text_2">
      <!-- 100 -->
      <g transform="translate(207.477748 518.598438)scale(0.1 -0.1)">
       <defs>
        <path d="M 794 531 
L 1825 531 
L 1825 4091 
L 703 3866 
L 703 4441 
L 1819 4666 
L 2450 4666 
L 2450 531 
L 3481 531 
L 3481 0 
L 794 0 
L 794 531 
z
" id="DejaVuSans-31" transform="scale(0.015625)"/>
       </defs>
       <use xlink:href="#DejaVuSans-31"/>
       <use x="63.623047" xlink:href="#DejaVuSans-30"/>
       <use x="127.246094" xlink:href="#DejaVuSans-30"/>
      </g>
     </g>
    </g>
    <g id="xtick_3">
     <g id="line2d_3">
      <g>
       <use style="stroke:#000000;stroke-width:0.8;" x="318.679359" xlink:href="#meab3bd9b30" y="504"/>
      </g>
     </g>
     <g id="text_3">
      <!-- 200 -->
      <g transform="translate(309.135609 518.598438)scale(0.1 -0.1)">
       <defs>
        <path d="M 1228 531 
L 3431 531 
L 3431 0 
L 469 0 
L 469 531 
Q 828 903 1448 1529 
Q 2069 2156 2228 2338 
Q 2531 2678 2651 2914 
Q 2772 3150 2772 3378 
Q 2772 3750 2511 3984 
Q 2250 4219 1831 4219 
Q 1534 4219 1204 4116 
Q 875 4013 500 3803 
L 500 4441 
Q 881 4594 1212 4672 
Q 1544 4750 1819 4750 
Q 2544 4750 2975 4387 
Q 3406 4025 3406 3419 
Q 3406 3131 3298 2873 
Q 3191 2616 2906 2266 
Q 2828 2175 2409 1742 
Q 1991 1309 1228 531 
z
" id="DejaVuSans-32" transform="scale(0.015625)"/>
       </defs>
       <use xlink:href="#DejaVuSans-32"/>
       <use x="63.623047" xlink:href="#DejaVuSans-30"/>
       <use x="127.246094" xlink:href="#DejaVuSans-30"/>
      </g>
     </g>
    </g>
    <g id="xtick_4">
     <g id="line2d_4">
      <g>
       <use style="stroke:#000000;stroke-width:0.8;" x="420.33722" xlink:href="#meab3bd9b30" y="504"/>
      </g>
     </g>
     <g id="text_4">
      <!-- 300 -->
      <g transform="translate(410.79347 518.598438)scale(0.1 -0.1)">
       <defs>
        <path d="M 2597 2516 
Q 3050 2419 3304 2112 
Q 3559 1806 3559 1356 
Q 3559 666 3084 287 
Q 2609 -91 1734 -91 
Q 1441 -91 1130 -33 
Q 819 25 488 141 
L 488 750 
Q 750 597 1062 519 
Q 1375 441 1716 441 
Q 2309 441 2620 675 
Q 2931 909 2931 1356 
Q 2931 1769 2642 2001 
Q 2353 2234 1838 2234 
L 1294 2234 
L 1294 2753 
L 1863 2753 
Q 2328 2753 2575 2939 
Q 2822 3125 2822 3475 
Q 2822 3834 2567 4026 
Q 2313 4219 1838 4219 
Q 1578 4219 1281 4162 
Q 984 4106 628 3988 
L 628 4550 
Q 988 4650 1302 4700 
Q 1616 4750 1894 4750 
Q 2613 4750 3031 4423 
Q 3450 4097 3450 3541 
Q 3450 3153 3228 2886 
Q 3006 2619 2597 2516 
z
" id="DejaVuSans-33" transform="scale(0.015625)"/>
       </defs>
       <use xlink:href="#DejaVuSans-33"/>
       <use x="63.623047" xlink:href="#DejaVuSans-30"/>
       <use x="127.246094" xlink:href="#DejaVuSans-30"/>
      </g>
     </g>
    </g>
    <g id="xtick_5">
     <g id="line2d_5">
      <g>
       <use style="stroke:#000000;stroke-width:0.8;" x="521.995081" xlink:href="#meab3bd9b30" y="504"/>
      </g>
     </g>
     <g id="text_5">
      <!-- 400 -->
      <g transform="translate(512.451331 518.598438)scale(0.1 -0.1)">
       <defs>
        <path d="M 2419 4116 
L 825 1625 
L 2419 1625 
L 2419 4116 
z
M 2253 4666 
L 3047 4666 
L 3047 1625 
L 3713 1625 
L 3713 1100 
L 3047 1100 
L 3047 0 
L 2419 0 
L 2419 1100 
L 313 1100 
L 313 1709 
L 2253 4666 
z
" id="DejaVuSans-34" transform="scale(0.015625)"/>
       </defs>
       <use xlink:href="#DejaVuSans-34"/>
       <use x="63.623047" xlink:href="#DejaVuSans-30"/>
       <use x="127.246094" xlink:href="#DejaVuSans-30"/>
      </g>
     </g>
    </g>
    <g id="xtick_6">
     <g id="line2d_6">
      <g>
       <use style="stroke:#000000;stroke-width:0.8;" x="623.652942" xlink:href="#meab3bd9b30" y="504"/>
      </g>
     </g>
     <g id="text_6">
      <!-- 500 -->
      <g transform="translate(614.109192 518.598438)scale(0.1 -0.1)">
       <defs>
        <path d="M 691 4666 
L 3169 4666 
L 3169 4134 
L 1269 4134 
L 1269 2991 
Q 1406 3038 1543 3061 
Q 1681 3084 1819 3084 
Q 2600 3084 3056 2656 
Q 3513 2228 3513 1497 
Q 3513 744 3044 326 
Q 2575 -91 1722 -91 
Q 1428 -91 1123 -41 
Q 819 9 494 109 
L 494 744 
Q 775 591 1075 516 
Q 1375 441 1709 441 
Q 2250 441 2565 725 
Q 2881 1009 2881 1497 
Q 2881 1984 2565 2268 
Q 2250 2553 1709 2553 
Q 1456 2553 1204 2497 
Q 953 2441 691 2322 
L 691 4666 
z
" id="DejaVuSans-35" transform="scale(0.015625)"/>
       </defs>
       <use xlink:href="#DejaVuSans-35"/>
       <use x="63.623047" xlink:href="#DejaVuSans-30"/>
       <use x="127.246094" xlink:href="#DejaVuSans-30"/>
      </g>
     </g>
    </g>
   </g>
   <g id="matplotlib.axis_2">
    <g id="ytick_1">
     <g id="line2d_7">
      <defs>
       <path d="M 0 0 
L -3.5 0 
" id="md7ff0896b7" style="stroke:#000000;stroke-width:0.8;"/>
      </defs>
      <g>
       <use style="stroke:#000000;stroke-width:0.8;" x="90" xlink:href="#md7ff0896b7" y="463.956631"/>
      </g>
     </g>
     <g id="text_7">
      <!-- −1000 -->
      <g transform="translate(49.170313 467.75585)scale(0.1 -0.1)">
       <defs>
        <path d="M 678 2272 
L 4684 2272 
L 4684 1741 
L 678 1741 
L 678 2272 
z
" id="DejaVuSans-2212" transform="scale(0.015625)"/>
       </defs>
       <use xlink:href="#DejaVuSans-2212"/>
       <use x="83.789062" xlink:href="#DejaVuSans-31"/>
       <use x="147.412109" xlink:href="#DejaVuSans-30"/>
       <use x="211.035156" xlink:href="#DejaVuSans-30"/>
       <use x="274.658203" xlink:href="#DejaVuSans-30"/>
      </g>
     </g>
    </g>
    <g id="ytick_2">
     <g id="line2d_8">
      <g>
       <use style="stroke:#000000;stroke-width:0.8;" x="90" xlink:href="#md7ff0896b7" y="396.369644"/>
      </g>
     </g>
     <g id="text_8">
      <!-- 0 -->
      <g transform="translate(76.6375 400.168863)scale(0.1 -0.1)">
       <use xlink:href="#DejaVuSans-30"/>
      </g>
     </g>
    </g>
    <g id="ytick_3">
     <g id="line2d_9">
      <g>
       <use style="stroke:#000000;stroke-width:0.8;" x="90" xlink:href="#md7ff0896b7" y="328.782657"/>
      </g>
     </g>
     <g id="text_9">
      <!-- 1000 -->
      <g transform="translate(57.55 332.581875)scale(0.1 -0.1)">
       <use xlink:href="#DejaVuSans-31"/>
       <use x="63.623047" xlink:href="#DejaVuSans-30"/>
       <use x="127.246094" xlink:href="#DejaVuSans-30"/>
       <use x="190.869141" xlink:href="#DejaVuSans-30"/>
      </g>
     </g>
    </g>
    <g id="ytick_4">
     <g id="line2d_10">
      <g>
       <use style="stroke:#000000;stroke-width:0.8;" x="90" xlink:href="#md7ff0896b7" y="261.19567"/>
      </g>
     </g>
     <g id="text_10">
      <!-- 2000 -->
      <g transform="translate(57.55 264.994888)scale(0.1 -0.1)">
       <use xlink:href="#DejaVuSans-32"/>
       <use x="63.623047" xlink:href="#DejaVuSans-30"/>
       <use x="127.246094" xlink:href="#DejaVuSans-30"/>
       <use x="190.869141" xlink:href="#DejaVuSans-30"/>
      </g>
     </g>
    </g>
    <g id="ytick_5">
     <g id="line2d_11">
      <g>
       <use style="stroke:#000000;stroke-width:0.8;" x="90" xlink:href="#md7ff0896b7" y="193.608682"/>
      </g>
     </g>
     <g id="text_11">
      <!-- 3000 -->
      <g transform="translate(57.55 197.407901)scale(0.1 -0.1)">
       <use xlink:href="#DejaVuSans-33"/>
       <use x="63.623047" xlink:href="#DejaVuSans-30"/>
       <use x="127.246094" xlink:href="#DejaVuSans-30"/>
       <use x="190.869141" xlink:href="#DejaVuSans-30"/>
      </g>
     </g>
    </g>
    <g id="ytick_6">
     <g id="line2d_12">
      <g>
       <use style="stroke:#000000;stroke-width:0.8;" x="90" xlink:href="#md7ff0896b7" y="126.021695"/>
      </g>
     </g>
     <g id="text_12">
      <!-- 4000 -->
      <g transform="translate(57.55 129.820914)scale(0.1 -0.1)">
       <use xlink:href="#DejaVuSans-34"/>
       <use x="63.623047" xlink:href="#DejaVuSans-30"/>
       <use x="127.246094" xlink:href="#DejaVuSans-30"/>
       <use x="190.869141" xlink:href="#DejaVuSans-30"/>
      </g>
     </g>
    </g>
   </g>
   <g id="line2d_13">
    <path clip-path="url(#pa0b42c5f7a)" d="M 115.363636 396.369644 
L 116.380215 416.64574 
L 117.396794 416.64574 
L 118.413372 416.533915 
L 121.463108 415.507747 
L 123.496265 415.027556 
L 126.546001 414.317173 
L 129.595737 414.130346 
L 132.645473 414.281304 
L 133.662051 414.638775 
L 134.67863 415.359139 
L 135.695209 414.990826 
L 136.711787 410.155459 
L 137.728366 402.526239 
L 138.744944 401.029999 
L 139.761523 402.847067 
L 140.778102 402.800264 
L 141.79468 401.348485 
L 142.811259 400.103182 
L 143.827837 399.417376 
L 146.877573 397.990201 
L 147.894152 397.792675 
L 148.910731 397.764962 
L 150.943888 397.520695 
L 151.960466 397.378865 
L 153.993624 396.760138 
L 155.010202 396.679939 
L 156.026781 397.081563 
L 157.043359 397.357183 
L 160.093095 395.188794 
L 161.109674 394.889916 
L 162.126253 395.304626 
L 164.15941 395.550694 
L 171.27546 395.54077 
L 172.292039 395.260971 
L 175.341774 395.360885 
L 176.358353 395.163077 
L 177.374932 394.374382 
L 178.39151 393.082706 
L 179.408089 385.179554 
L 180.424668 378.345784 
L 181.441246 379.236376 
L 182.457825 379.246279 
L 183.474403 379.596007 
L 184.490982 379.714051 
L 189.573875 379.700689 
L 191.607032 379.277201 
L 195.673347 377.759584 
L 196.689925 377.632465 
L 197.706504 378.463495 
L 198.723083 379.064 
L 200.75624 362.597447 
L 201.772818 363.675531 
L 202.789397 363.687317 
L 203.805976 364.10938 
L 204.822554 364.319516 
L 206.855711 364.386673 
L 211.938604 363.870263 
L 212.955183 363.341182 
L 214.98834 363.211485 
L 216.004919 363.189437 
L 217.021498 362.754113 
L 218.038076 361.28411 
L 219.054655 358.954856 
L 220.071233 349.868053 
L 221.087812 343.959796 
L 222.104391 345.685615 
L 223.120969 345.698661 
L 224.137548 346.321736 
L 225.154126 346.624352 
L 227.187284 346.717325 
L 228.203862 346.751645 
L 231.253598 346.384741 
L 232.270177 346.129095 
L 233.286755 346.316702 
L 234.303334 346.258948 
L 235.319913 345.420658 
L 236.336491 345.187677 
L 237.35307 345.760551 
L 238.369648 345.149372 
L 239.386227 342.531953 
L 240.402806 332.164968 
L 241.419384 325.347222 
L 242.435963 327.236675 
L 243.452541 327.251405 
L 244.46912 327.938358 
L 245.485699 328.28466 
L 246.502277 328.41309 
L 249.552013 328.36071 
L 250.568592 328.097657 
L 251.58517 328.122064 
L 252.601749 327.943315 
L 253.618328 327.272655 
L 254.634906 326.952839 
L 255.651485 327.251851 
L 256.668063 326.890199 
L 257.684642 325.488094 
L 258.701221 323.663506 
L 259.717799 320.974331 
L 260.734378 309.441282 
L 261.750956 301.703614 
L 262.767535 303.80397 
L 263.784114 303.820519 
L 264.800692 304.586638 
L 265.817271 304.871626 
L 268.867007 304.93213 
L 269.883585 304.855985 
L 270.900164 304.561556 
L 271.916743 304.588858 
L 272.933321 304.388654 
L 273.9499 303.637637 
L 274.966478 303.070716 
L 275.983057 303.196467 
L 276.999636 302.790824 
L 278.016214 301.221038 
L 279.032793 301.197526 
L 280.049371 304.083855 
L 281.06595 314.328949 
L 282.082529 321.072486 
L 283.099107 320.779881 
L 284.115686 321.660133 
L 286.148843 321.859646 
L 290.215158 321.712332 
L 291.231736 321.443934 
L 292.248315 321.468816 
L 293.264893 321.286211 
L 294.281472 320.601053 
L 295.298051 320.223876 
L 296.314629 320.478417 
L 297.331208 320.108274 
L 298.347786 318.675478 
L 299.364365 316.772182 
L 300.380944 313.749698 
L 301.397522 301.431924 
L 302.414101 293.196884 
L 303.43068 295.255202 
L 304.447258 295.210432 
L 305.463837 295.988962 
L 306.480415 296.356483 
L 308.513573 296.504361 
L 309.530151 296.410057 
L 310.54673 296.197942 
L 311.563308 296.224803 
L 312.579887 296.050273 
L 314.613044 294.851406 
L 315.629623 294.88811 
L 316.646201 294.553649 
L 317.66278 293.271033 
L 318.679359 293.428501 
L 319.695937 294.950785 
L 320.712516 294.75603 
L 321.729095 286.519151 
L 322.745673 281.627399 
L 323.762252 284.296592 
L 324.77883 284.567337 
L 325.795409 285.116248 
L 326.811988 285.524714 
L 327.828566 285.634493 
L 330.878302 285.338832 
L 331.894881 285.171268 
L 335.961195 283.985274 
L 336.977774 284.055011 
L 337.994352 283.569983 
L 339.010931 281.92113 
L 340.02751 279.717794 
L 341.044088 276.225411 
L 342.060667 261.681802 
L 343.077245 251.796383 
L 344.093824 254.161993 
L 345.110403 254.181203 
L 346.126981 255.057843 
L 347.14356 255.493304 
L 349.176717 255.699282 
L 352.226453 255.378281 
L 353.243032 254.938473 
L 354.25961 254.368896 
L 355.276189 253.492054 
L 356.292767 252.918914 
L 357.309346 253.153813 
L 358.325925 252.679948 
L 359.342503 250.847783 
L 360.359082 250.997878 
L 361.37566 254.428473 
L 362.392239 268.738638 
L 363.408818 278.992199 
L 364.425396 278.663648 
L 365.441975 279.618733 
L 366.458553 279.84064 
L 367.475132 280.20756 
L 368.491711 280.291376 
L 371.541447 280.048054 
L 372.558025 279.922649 
L 373.574604 279.680153 
L 374.591182 279.188059 
L 375.607761 279.221757 
L 376.62434 278.92696 
L 377.640918 277.803532 
L 378.657497 277.732362 
L 379.674075 278.739569 
L 380.690654 277.919598 
L 381.707233 274.410143 
L 382.723811 259.951721 
L 383.74039 250.194975 
L 384.756968 252.580008 
L 385.773547 251.738752 
L 386.790126 251.760946 
L 387.806704 251.998011 
L 392.889597 251.679959 
L 393.906176 251.446922 
L 395.939333 250.060057 
L 396.955912 250.10246 
L 397.97249 249.715638 
L 398.989069 248.232908 
L 400.005648 248.404702 
L 401.022226 250.174729 
L 402.038805 250.057898 
L 403.055383 236.128291 
L 404.071962 225.790686 
L 405.088541 228.34661 
L 406.105119 228.367509 
L 407.121698 229.310017 
L 408.138277 229.778092 
L 410.171434 230.021189 
L 411.188012 229.917826 
L 412.204591 229.990546 
L 413.22117 229.922061 
L 414.237748 229.451849 
L 415.254327 228.842664 
L 416.270905 227.9044 
L 417.287484 227.70031 
L 418.304063 227.325762 
L 419.320641 225.781185 
L 420.33722 223.816964 
L 421.353799 222.15972 
L 422.370377 219.321504 
L 423.386956 202.988847 
L 424.403534 191.924164 
L 425.420113 194.706575 
L 426.436692 194.728911 
L 427.45327 195.215189 
L 428.469849 195.203235 
L 429.486427 195.375997 
L 432.536163 195.13489 
L 433.552742 194.895717 
L 434.56932 195.093627 
L 435.585899 194.823052 
L 436.602478 193.808744 
L 437.619056 193.433778 
L 438.635635 193.224577 
L 439.652214 192.468403 
L 440.668792 191.073048 
L 441.685371 188.412397 
L 442.701949 184.031045 
L 443.718528 166.120947 
L 444.735107 154.196804 
L 445.751685 157.182184 
L 446.768264 157.206127 
L 447.784842 158.304894 
L 448.801421 158.846009 
L 450.834578 159.13949 
L 453.884314 158.723718 
L 454.900893 158.17452 
L 455.917471 157.46329 
L 456.93405 156.368251 
L 457.950629 156.436248 
L 458.967207 156.269068 
L 459.983786 154.936581 
L 461.000364 153.155372 
L 462.016943 151.871955 
L 463.033522 148.86037 
L 464.0501 137.552409 
L 465.066679 133.032514 
L 466.083257 135.468632 
L 467.099836 134.78987 
L 468.116415 135.136314 
L 469.132993 134.921349 
L 470.149572 135.074047 
L 471.16615 134.9549 
L 473.199308 134.368941 
L 474.215886 133.875485 
L 475.232465 133.945152 
L 476.249044 133.844913 
L 477.265622 132.693451 
L 478.282201 132.256535 
L 479.298779 132.007946 
L 480.315358 131.079516 
L 481.331937 129.292562 
L 482.348515 126.144518 
L 483.365094 121.144836 
L 484.381672 101.549258 
L 485.398251 88.887273 
L 486.41483 484.232727 
L 495.564037 484.173152 
L 500.64693 483.943197 
L 503.696666 483.955844 
L 521.995081 483.969617 
L 523.01166 483.909548 
L 525.044817 484.039596 
L 528.094553 483.937882 
L 533.177446 483.839135 
L 537.24376 483.859003 
L 539.276917 483.87918 
L 544.359811 483.837561 
L 573.84059 483.850823 
L 574.857169 481.081309 
L 575.873747 465.048176 
L 576.890326 465.555352 
L 584.006376 465.422898 
L 589.089269 464.575264 
L 590.105848 464.824832 
L 591.122427 465.265389 
L 592.139005 465.405582 
L 593.155584 464.774779 
L 594.172163 463.700008 
L 595.188741 462.253312 
L 596.20532 460.089566 
L 597.221898 455.899493 
L 598.238477 482.949687 
L 599.255056 483.840394 
L 622.636364 483.85935 
L 622.636364 483.85935 
" style="fill:none;stroke:#1f77b4;stroke-linecap:square;stroke-width:1.5;"/>
   </g>
   <g id="patch_3">
    <path d="M 90 504 
L 90 69.12 
" style="fill:none;stroke:#000000;stroke-linecap:square;stroke-linejoin:miter;stroke-width:0.8;"/>
   </g>
   <g id="patch_4">
    <path d="M 648 504 
L 648 69.12 
" style="fill:none;stroke:#000000;stroke-linecap:square;stroke-linejoin:miter;stroke-width:0.8;"/>
   </g>
   <g id="patch_5">
    <path d="M 90 504 
L 648 504 
" style="fill:none;stroke:#000000;stroke-linecap:square;stroke-linejoin:miter;stroke-width:0.8;"/>
   </g>
   <g id="patch_6">
    <path d="M 90 69.12 
L 648 69.12 
" style="fill:none;stroke:#000000;stroke-linecap:square;stroke-linejoin:miter;stroke-width:0.8;"/>
   </g>
  </g>
 </g>
 <defs>
  <clipPath id="pa0b42c5f7a">
   <rect height="434.88" width="558" x="90" y="69.12"/>
  </clipPath>
 </defs>
</svg>
