<?xml version="1.0" encoding="utf-8" standalone="no"?>
<!DOCTYPE svg PUBLIC "-//W3C//DTD SVG 1.1//EN"
  "http://www.w3.org/Graphics/SVG/1.1/DTD/svg11.dtd">
<svg height="720pt" version="1.1" viewBox="0 0 720 720" width="720pt" xmlns="http://www.w3.org/2000/svg" xmlns:xlink="http://www.w3.org/1999/xlink">
 <metadata>
  <rdf:RDF xmlns:cc="http://creativecommons.org/ns#" xmlns:dc="http://purl.org/dc/elements/1.1/" xmlns:rdf="http://www.w3.org/1999/02/22-rdf-syntax-ns#">
   <cc:Work>
    <dc:type rdf:resource="http://purl.org/dc/dcmitype/StillImage"/>
    <dc:date>2022-01-10T05:13:08.398727</dc:date>
    <dc:format>image/svg+xml</dc:format>
    <dc:creator>
     <cc:Agent>
      <dc:title>Matplotlib v3.4.3, https://matplotlib.org/</dc:title>
     </cc:Agent>
    </dc:creator>
   </cc:Work>
  </rdf:RDF>
 </metadata>
 <defs>
  <style type="text/css">*{stroke-linecap:butt;stroke-linejoin:round;}</style>
 </defs>
 <g id="figure_1">
  <g id="patch_1">
   <path d="M 0 720 
L 720 720 
L 720 0 
L 0 0 
z
" style="fill:none;"/>
  </g>
  <g id="axes_1">
   <g id="patch_2">
    <path d="M 90 630 
L 648 630 
L 648 86.4 
L 90 86.4 
z
" style="fill:#ffffff;"/>
   </g>
   <g id="matplotlib.axis_1">
    <g id="xtick_1">
     <g id="line2d_1">
      <defs>
       <path d="M 0 0 
L 0 3.5 
" id="m7689ba6ff1" style="stroke:#000000;stroke-width:0.8;"/>
      </defs>
      <g>
       <use style="stroke:#000000;stroke-width:0.8;" x="130.619685" xlink:href="#m7689ba6ff1" y="630"/>
      </g>
     </g>
     <g id="text_1">
      <!-- −400 -->
      <g transform="translate(116.886092 644.598438)scale(0.1 -0.1)">
       <defs>
        <path d="M 678 2272 
L 4684 2272 
L 4684 1741 
L 678 1741 
L 678 2272 
z
" id="DejaVuSans-2212" transform="scale(0.015625)"/>
        <path d="M 2419 4116 
L 825 1625 
L 2419 1625 
L 2419 4116 
z
M 2253 4666 
L 3047 4666 
L 3047 1625 
L 3713 1625 
L 3713 1100 
L 3047 1100 
L 3047 0 
L 2419 0 
L 2419 1100 
L 313 1100 
L 313 1709 
L 2253 4666 
z
" id="DejaVuSans-34" transform="scale(0.015625)"/>
        <path d="M 2034 4250 
Q 1547 4250 1301 3770 
Q 1056 3291 1056 2328 
Q 1056 1369 1301 889 
Q 1547 409 2034 409 
Q 2525 409 2770 889 
Q 3016 1369 3016 2328 
Q 3016 3291 2770 3770 
Q 2525 4250 2034 4250 
z
M 2034 4750 
Q 2819 4750 3233 4129 
Q 3647 3509 3647 2328 
Q 3647 1150 3233 529 
Q 2819 -91 2034 -91 
Q 1250 -91 836 529 
Q 422 1150 422 2328 
Q 422 3509 836 4129 
Q 1250 4750 2034 4750 
z
" id="DejaVuSans-30" transform="scale(0.015625)"/>
       </defs>
       <use xlink:href="#DejaVuSans-2212"/>
       <use x="83.789062" xlink:href="#DejaVuSans-34"/>
       <use x="147.412109" xlink:href="#DejaVuSans-30"/>
       <use x="211.035156" xlink:href="#DejaVuSans-30"/>
      </g>
     </g>
    </g>
    <g id="xtick_2">
     <g id="line2d_2">
      <g>
       <use style="stroke:#000000;stroke-width:0.8;" x="222.066535" xlink:href="#m7689ba6ff1" y="630"/>
      </g>
     </g>
     <g id="text_2">
      <!-- −300 -->
      <g transform="translate(208.332941 644.598438)scale(0.1 -0.1)">
       <defs>
        <path d="M 2597 2516 
Q 3050 2419 3304 2112 
Q 3559 1806 3559 1356 
Q 3559 666 3084 287 
Q 2609 -91 1734 -91 
Q 1441 -91 1130 -33 
Q 819 25 488 141 
L 488 750 
Q 750 597 1062 519 
Q 1375 441 1716 441 
Q 2309 441 2620 675 
Q 2931 909 2931 1356 
Q 2931 1769 2642 2001 
Q 2353 2234 1838 2234 
L 1294 2234 
L 1294 2753 
L 1863 2753 
Q 2328 2753 2575 2939 
Q 2822 3125 2822 3475 
Q 2822 3834 2567 4026 
Q 2313 4219 1838 4219 
Q 1578 4219 1281 4162 
Q 984 4106 628 3988 
L 628 4550 
Q 988 4650 1302 4700 
Q 1616 4750 1894 4750 
Q 2613 4750 3031 4423 
Q 3450 4097 3450 3541 
Q 3450 3153 3228 2886 
Q 3006 2619 2597 2516 
z
" id="DejaVuSans-33" transform="scale(0.015625)"/>
       </defs>
       <use xlink:href="#DejaVuSans-2212"/>
       <use x="83.789062" xlink:href="#DejaVuSans-33"/>
       <use x="147.412109" xlink:href="#DejaVuSans-30"/>
       <use x="211.035156" xlink:href="#DejaVuSans-30"/>
      </g>
     </g>
    </g>
    <g id="xtick_3">
     <g id="line2d_3">
      <g>
       <use style="stroke:#000000;stroke-width:0.8;" x="313.513385" xlink:href="#m7689ba6ff1" y="630"/>
      </g>
     </g>
     <g id="text_3">
      <!-- −200 -->
      <g transform="translate(299.779791 644.598438)scale(0.1 -0.1)">
       <defs>
        <path d="M 1228 531 
L 3431 531 
L 3431 0 
L 469 0 
L 469 531 
Q 828 903 1448 1529 
Q 2069 2156 2228 2338 
Q 2531 2678 2651 2914 
Q 2772 3150 2772 3378 
Q 2772 3750 2511 3984 
Q 2250 4219 1831 4219 
Q 1534 4219 1204 4116 
Q 875 4013 500 3803 
L 500 4441 
Q 881 4594 1212 4672 
Q 1544 4750 1819 4750 
Q 2544 4750 2975 4387 
Q 3406 4025 3406 3419 
Q 3406 3131 3298 2873 
Q 3191 2616 2906 2266 
Q 2828 2175 2409 1742 
Q 1991 1309 1228 531 
z
" id="DejaVuSans-32" transform="scale(0.015625)"/>
       </defs>
       <use xlink:href="#DejaVuSans-2212"/>
       <use x="83.789062" xlink:href="#DejaVuSans-32"/>
       <use x="147.412109" xlink:href="#DejaVuSans-30"/>
       <use x="211.035156" xlink:href="#DejaVuSans-30"/>
      </g>
     </g>
    </g>
    <g id="xtick_4">
     <g id="line2d_4">
      <g>
       <use style="stroke:#000000;stroke-width:0.8;" x="404.960234" xlink:href="#m7689ba6ff1" y="630"/>
      </g>
     </g>
     <g id="text_4">
      <!-- −100 -->
      <g transform="translate(391.22664 644.598438)scale(0.1 -0.1)">
       <defs>
        <path d="M 794 531 
L 1825 531 
L 1825 4091 
L 703 3866 
L 703 4441 
L 1819 4666 
L 2450 4666 
L 2450 531 
L 3481 531 
L 3481 0 
L 794 0 
L 794 531 
z
" id="DejaVuSans-31" transform="scale(0.015625)"/>
       </defs>
       <use xlink:href="#DejaVuSans-2212"/>
       <use x="83.789062" xlink:href="#DejaVuSans-31"/>
       <use x="147.412109" xlink:href="#DejaVuSans-30"/>
       <use x="211.035156" xlink:href="#DejaVuSans-30"/>
      </g>
     </g>
    </g>
    <g id="xtick_5">
     <g id="line2d_5">
      <g>
       <use style="stroke:#000000;stroke-width:0.8;" x="496.407084" xlink:href="#m7689ba6ff1" y="630"/>
      </g>
     </g>
     <g id="text_5">
      <!-- 0 -->
      <g transform="translate(493.225834 644.598438)scale(0.1 -0.1)">
       <use xlink:href="#DejaVuSans-30"/>
      </g>
     </g>
    </g>
    <g id="xtick_6">
     <g id="line2d_6">
      <g>
       <use style="stroke:#000000;stroke-width:0.8;" x="587.853933" xlink:href="#m7689ba6ff1" y="630"/>
      </g>
     </g>
     <g id="text_6">
      <!-- 100 -->
      <g transform="translate(578.310183 644.598438)scale(0.1 -0.1)">
       <use xlink:href="#DejaVuSans-31"/>
       <use x="63.623047" xlink:href="#DejaVuSans-30"/>
       <use x="127.246094" xlink:href="#DejaVuSans-30"/>
      </g>
     </g>
    </g>
   </g>
   <g id="matplotlib.axis_2">
    <g id="ytick_1">
     <g id="line2d_7">
      <defs>
       <path d="M 0 0 
L -3.5 0 
" id="mb227588a8c" style="stroke:#000000;stroke-width:0.8;"/>
      </defs>
      <g>
       <use style="stroke:#000000;stroke-width:0.8;" x="90" xlink:href="#mb227588a8c" y="593.654449"/>
      </g>
     </g>
     <g id="text_7">
      <!-- −400 -->
      <g transform="translate(55.532812 597.453668)scale(0.1 -0.1)">
       <use xlink:href="#DejaVuSans-2212"/>
       <use x="83.789062" xlink:href="#DejaVuSans-34"/>
       <use x="147.412109" xlink:href="#DejaVuSans-30"/>
       <use x="211.035156" xlink:href="#DejaVuSans-30"/>
      </g>
     </g>
    </g>
    <g id="ytick_2">
     <g id="line2d_8">
      <g>
       <use style="stroke:#000000;stroke-width:0.8;" x="90" xlink:href="#mb227588a8c" y="484.182812"/>
      </g>
     </g>
     <g id="text_8">
      <!-- −200 -->
      <g transform="translate(55.532812 487.98203)scale(0.1 -0.1)">
       <use xlink:href="#DejaVuSans-2212"/>
       <use x="83.789062" xlink:href="#DejaVuSans-32"/>
       <use x="147.412109" xlink:href="#DejaVuSans-30"/>
       <use x="211.035156" xlink:href="#DejaVuSans-30"/>
      </g>
     </g>
    </g>
    <g id="ytick_3">
     <g id="line2d_9">
      <g>
       <use style="stroke:#000000;stroke-width:0.8;" x="90" xlink:href="#mb227588a8c" y="374.711174"/>
      </g>
     </g>
     <g id="text_9">
      <!-- 0 -->
      <g transform="translate(76.6375 378.510393)scale(0.1 -0.1)">
       <use xlink:href="#DejaVuSans-30"/>
      </g>
     </g>
    </g>
    <g id="ytick_4">
     <g id="line2d_10">
      <g>
       <use style="stroke:#000000;stroke-width:0.8;" x="90" xlink:href="#mb227588a8c" y="265.239536"/>
      </g>
     </g>
     <g id="text_10">
      <!-- 200 -->
      <g transform="translate(63.9125 269.038755)scale(0.1 -0.1)">
       <use xlink:href="#DejaVuSans-32"/>
       <use x="63.623047" xlink:href="#DejaVuSans-30"/>
       <use x="127.246094" xlink:href="#DejaVuSans-30"/>
      </g>
     </g>
    </g>
    <g id="ytick_5">
     <g id="line2d_11">
      <g>
       <use style="stroke:#000000;stroke-width:0.8;" x="90" xlink:href="#mb227588a8c" y="155.767898"/>
      </g>
     </g>
     <g id="text_11">
      <!-- 400 -->
      <g transform="translate(63.9125 159.567117)scale(0.1 -0.1)">
       <use xlink:href="#DejaVuSans-34"/>
       <use x="63.623047" xlink:href="#DejaVuSans-30"/>
       <use x="127.246094" xlink:href="#DejaVuSans-30"/>
      </g>
     </g>
    </g>
   </g>
   <g id="line2d_12">
    <path clip-path="url(#pb2d59a13d1)" d="M 621.943361 436.569998 
L 622.550586 440.985743 
L 622.636364 445.416149 
L 622.081951 449.833887 
L 620.739965 454.189249 
L 618.443302 458.396917 
L 615.04123 462.32447 
L 610.472874 465.800895 
L 604.84109 468.665971 
L 598.399783 470.838779 
L 591.444017 472.339947 
L 584.210947 473.25376 
L 576.854571 473.680316 
L 569.464348 473.70962 
L 562.089602 473.414487 
L 554.756762 472.851652 
L 547.479522 472.064979 
L 540.264497 471.08857 
L 533.114338 469.949224 
L 526.029471 468.668271 
L 519.009084 467.262904 
L 512.051697 465.747151 
L 505.155493 464.132593 
L 498.318517 462.428887 
L 491.538791 460.644166 
L 484.814381 458.785336 
L 478.143438 456.858308 
L 471.524216 454.86818 
L 464.95508 452.819374 
L 458.434513 450.71575 
L 451.961111 448.560694 
L 445.533581 446.357191 
L 439.150736 444.107882 
L 432.811487 441.815116 
L 426.514841 439.480987 
L 420.259895 437.107365 
L 414.045828 434.695931 
L 407.871898 432.248191 
L 401.737437 429.765503 
L 395.641849 427.249091 
L 389.584601 424.70006 
L 383.565227 422.119406 
L 377.583318 419.508029 
L 371.638524 416.866745 
L 365.730553 414.196286 
L 359.859163 411.497314 
L 354.024168 408.770425 
L 348.22543 406.016152 
L 342.462864 403.234973 
L 336.736434 400.427314 
L 331.046153 397.59355 
L 325.392084 394.734013 
L 319.77434 391.848989 
L 314.193084 388.938727 
L 308.64853 386.003434 
L 303.140943 383.043282 
L 297.670643 380.058409 
L 292.238004 377.048917 
L 286.843456 374.014878 
L 281.487489 370.956332 
L 276.170653 367.873286 
L 270.893564 364.765721 
L 265.656904 361.633586 
L 260.461426 358.476801 
L 255.307957 355.29526 
L 250.197406 352.088825 
L 245.130763 348.857333 
L 240.109111 345.600589 
L 235.133626 342.318373 
L 230.20559 339.010435 
L 225.326393 335.676494 
L 220.497545 332.316242 
L 215.720686 328.92934 
L 210.997591 325.515418 
L 206.330191 322.074075 
L 201.720576 318.604881 
L 197.171018 315.107369 
L 192.683982 311.581043 
L 188.262146 308.025373 
L 183.908425 304.439793 
L 179.625987 300.823708 
L 175.418285 297.176484 
L 171.289087 293.497459 
L 167.242503 289.785936 
L 163.283029 286.04119 
L 159.415586 282.262469 
L 155.645567 278.448998 
L 151.978894 274.59999 
L 148.422076 270.714647 
L 144.98228 266.792181 
L 141.667405 262.831823 
L 138.486167 258.832852 
L 135.448197 254.794617 
L 132.564139 250.716584 
L 129.845766 246.59838 
L 127.306089 242.439859 
L 124.959481 238.241192 
L 122.821781 234.002963 
L 120.910389 229.726311 
L 119.244323 225.413092 
L 117.844219 221.066074 
L 116.73224 216.689169 
L 115.931853 212.28769 
L 115.467433 207.868619 
L 115.363636 203.440861 
L 115.644519 199.015441 
L 116.332385 194.605586 
L 117.446414 190.226635 
L 119.001178 185.895709 
L 121.005232 181.631125 
L 123.460013 177.451562 
L 126.359269 173.375076 
L 129.689176 169.418089 
L 133.429138 165.594513 
L 137.55316 161.915137 
L 142.031534 158.387345 
" style="fill:none;stroke:#1f77b4;stroke-linecap:square;stroke-width:1.5;"/>
   </g>
   <g id="line2d_13">
    <path clip-path="url(#pb2d59a13d1)" d="M 142.031534 158.387345 
L 146.732602 154.934541 
L 151.501938 151.514888 
L 156.346112 148.132699 
L 161.272579 144.793099 
L 166.289844 141.502204 
L 171.407647 138.267369 
L 176.637186 135.097517 
L 181.991356 132.00358 
L 187.484994 128.999097 
L 193.135085 126.101035 
L 198.960842 123.330904 
L 204.983469 120.716267 
L 211.22525 118.292722 
L 217.707304 116.106337 
L 224.444954 114.216175 
L 231.439321 112.695744 
L 238.66449 111.630746 
L 246.052954 111.109091 
L 253.488877 111.20079 
L 260.822412 111.933723 
L 267.906144 113.281055 
L 274.632362 115.171279 
L 280.94774 117.512801 
L 286.844463 120.216079 
L 292.34241 123.205025 
L 297.473913 126.41951 
L 302.274313 129.813556 
L 306.777238 133.352352 
L 311.012693 137.009475 
L 315.006602 140.764673 
L 318.781 144.602238 
L 322.354456 148.509821 
L 325.742548 152.477585 
L 328.958318 156.497596 
L 332.012649 160.563387 
L 334.914597 164.669626 
L 337.671652 168.811884 
L 340.289951 172.986449 
L 342.774444 177.190187 
L 345.12903 181.42044 
L 347.356655 185.674935 
L 349.459381 189.95172 
L 351.43844 194.249104 
L 353.294256 198.565613 
L 355.026455 202.899947 
L 356.63385 207.250941 
L 358.114401 211.61753 
L 359.465162 215.998712 
L 360.682188 220.393514 
L 361.760419 224.800944 
L 362.693518 229.219946 
L 363.473659 233.64934 
L 364.091244 238.087739 
L 364.534535 242.533452 
L 364.789152 246.984335 
L 364.837402 251.437587 
L 364.657363 255.889445 
L 364.221603 260.334714 
L 363.495386 264.766033 
L 362.434117 269.172653 
L 360.979684 273.538367 
L 359.055314 277.837843 
L 356.558793 282.029934 
L 353.355553 286.045338 
L 349.279414 289.764952 
L 344.16688 292.99014 
" style="fill:none;stroke:#ff7f0e;stroke-linecap:square;stroke-width:1.5;"/>
   </g>
   <g id="line2d_14">
    <path clip-path="url(#pb2d59a13d1)" d="M 344.16688 292.99014 
L 339.261349 296.296709 
L 335.500134 300.112756 
L 332.508032 304.167461 
L 330.056866 308.349967 
L 328.007581 312.608101 
L 326.270529 316.914372 
L 324.784661 321.253046 
L 323.506448 325.614535 
L 322.403655 329.9927 
L 321.451647 334.383439 
L 320.631088 338.783903 
L 319.926442 343.192041 
L 319.324968 347.606323 
L 318.816019 352.02557 
L 318.390543 356.448844 
L 318.040717 360.875377 
L 317.759669 365.304527 
L 317.541276 369.735744 
L 317.37999 374.168551 
L 317.270711 378.602533 
L 317.20868 383.037321 
L 317.189384 387.472595 
L 317.208479 391.908072 
L 317.261719 396.343506 
L 317.344891 400.778689 
L 317.453754 405.213446 
L 317.583977 409.647634 
L 317.731079 414.081145 
L 317.890369 418.513902 
L 318.056876 422.945857 
L 318.225284 427.376991 
L 318.389853 431.807312 
L 318.544348 436.236848 
L 318.681943 440.66564 
L 318.795141 445.09374 
L 318.875678 449.521188 
L 318.91443 453.948005 
L 318.901329 458.374161 
L 318.825285 462.799545 
L 318.674144 467.223926 
L 318.434674 471.646896 
L 318.092625 476.067805 
L 317.632863 480.485685 
L 317.039626 484.899162 
L 316.296908 489.306372 
L 315.389 493.704879 
L 314.301168 498.091633 
L 313.020442 502.462969 
L 311.536435 506.814677 
L 309.842084 511.142157 
L 307.934202 515.440658 
L 305.813709 519.705575 
L 303.485505 523.932775 
L 300.957987 528.118889 
L 298.242292 532.261533 
L 295.351407 536.359423 
L 292.299282 540.412371 
L 289.100049 544.421187 
L 285.767428 548.387503 
L 282.314329 552.313569 
L 278.752631 556.202031 
L 275.093102 560.055738 
L 271.345424 563.877577 
L 267.518265 567.670344 
L 263.619383 571.43666 
L 259.655741 575.178916 
L 255.633597 578.899256 
L 251.55859 582.599578 
L 247.435802 586.281559 
L 243.269795 589.946689 
" style="fill:none;stroke:#2ca02c;stroke-linecap:square;stroke-width:1.5;"/>
   </g>
   <g id="line2d_15">
    <path clip-path="url(#pb2d59a13d1)" d="M 243.269795 589.946689 
L 239.680036 593.834124 
L 238.407713 598.173473 
L 241.815952 602.008639 
L 248.354621 604.078295 
L 255.646626 604.997953 
L 263.096001 605.290909 
L 270.557303 605.191355 
L 277.986962 604.817089 
L 285.371569 604.235046 
L 292.707869 603.486778 
L 299.996087 602.599804 
L 307.237486 601.593244 
L 314.43343 600.48087 
L 321.585037 599.272867 
L 328.693062 597.976898 
L 335.75787 596.598793 
L 342.779441 595.14299 
L 349.757384 593.612845 
L 356.690945 592.010841 
L 363.579015 590.338729 
L 370.420115 588.597639 
L 377.212387 586.788151 
L 383.953563 584.91034 
L 390.640926 582.963813 
L 397.271257 580.947724 
L 403.840772 578.860783 
L 410.345033 576.701247 
L 416.778848 574.466914 
L 423.136139 572.155099 
L 429.409787 569.762611 
L 435.591428 567.28572 
L 441.671221 564.720128 
L 447.637538 562.060932 
L 453.476608 559.30261 
L 459.172067 556.43901 
L 464.704424 553.463387 
L 470.050433 550.368492 
L 475.182384 547.146763 
L 480.067359 543.790669 
L 484.666553 540.293261 
L 488.934855 536.649024 
L 492.821017 532.855066 
L 496.268869 528.912636 
L 499.2201 524.828773 
L 501.618935 520.617708 
L 503.418437 516.301367 
L 504.587234 511.908398 
L 505.114659 507.471565 
L 505.012436 503.024065 
L 504.312274 498.595893 
L 503.060413 494.211306 
L 501.311114 489.887813 
L 499.120842 485.636494 
L 496.544083 481.463075 
L 493.630878 477.369266 
L 490.425718 473.353991 
L 486.967355 469.414401 
L 483.289111 465.546612 
L 479.419435 461.746222 
L 475.382533 458.008653 
L 471.198979 454.329365 
L 466.886275 450.703987 
L 462.459338 447.128387 
L 457.930917 443.598706 
L 453.31194 440.111369 
" style="fill:none;stroke:#d62728;stroke-linecap:square;stroke-width:1.5;"/>
   </g>
   <g id="line2d_16">
    <path clip-path="url(#pb2d59a13d1)" d="M 453.31194 440.111369 
L 448.792225 436.552769 
L 444.609399 432.849502 
L 440.779793 429.011742 
L 437.318111 425.050701 
L 434.237293 420.978485 
L 431.548425 416.807934 
L 429.260729 412.552459 
L 427.381611 408.225891 
L 425.916772 403.842337 
L 424.87036 399.416072 
L 424.245161 394.961454 
L 424.042815 390.492873 
L 424.264036 386.024742 
L 424.90884 381.571522 
L 425.976753 377.147787 
L 427.467004 372.768327 
L 429.378691 368.448297 
L 431.710893 364.203396 
L 434.462753 360.050102 
L 437.633474 356.005945 
L 441.222236 352.089832 
L 445.227995 348.322415 
L 449.649115 344.726512 
L 454.482782 341.327547 
L 459.724124 338.153998 
L 465.364943 335.237769 
L 471.391982 332.614389 
L 477.784661 330.322852 
L 484.512344 328.40484 
L 491.531422 326.903014 
L 498.782818 325.858088 
L 506.19098 325.304652 
L 513.665603 325.266182 
L 521.106991 325.7504 
L 528.414746 326.74654 
L 535.497844 328.225831 
L 542.283153 330.145297 
L 548.719984 332.453636 
L 554.780091 335.097279 
L 560.454268 338.025119 
L 565.747422 341.191336 
L 570.673695 344.556526 
L 575.252482 348.087671 
L 579.505568 351.757512 
L 583.455266 355.543691 
L 587.1233 359.427893 
L 590.530205 363.395077 
L 593.695048 367.432835 
L 596.635348 371.530877 
L 599.367106 375.680616 
L 601.90489 379.874839 
L 604.261946 384.107458 
L 606.45032 388.373298 
L 608.480975 392.667942 
L 610.3639 396.9876 
L 612.108214 401.329006 
L 613.722257 405.689333 
L 615.213669 410.066127 
L 616.589464 414.457252 
L 617.856095 418.86084 
L 619.019511 423.275257 
L 620.085201 427.699069 
L 621.058248 432.131019 
L 621.943361 436.569998 
" style="fill:none;stroke:#9467bd;stroke-linecap:square;stroke-width:1.5;"/>
   </g>
   <g id="patch_3">
    <path d="M 90 630 
L 90 86.4 
" style="fill:none;stroke:#000000;stroke-linecap:square;stroke-linejoin:miter;stroke-width:0.8;"/>
   </g>
   <g id="patch_4">
    <path d="M 648 630 
L 648 86.4 
" style="fill:none;stroke:#000000;stroke-linecap:square;stroke-linejoin:miter;stroke-width:0.8;"/>
   </g>
   <g id="patch_5">
    <path d="M 90 630 
L 648 630 
" style="fill:none;stroke:#000000;stroke-linecap:square;stroke-linejoin:miter;stroke-width:0.8;"/>
   </g>
   <g id="patch_6">
    <path d="M 90 86.4 
L 648 86.4 
" style="fill:none;stroke:#000000;stroke-linecap:square;stroke-linejoin:miter;stroke-width:0.8;"/>
   </g>
  </g>
 </g>
 <defs>
  <clipPath id="pb2d59a13d1">
   <rect height="543.6" width="558" x="90" y="86.4"/>
  </clipPath>
 </defs>
</svg>
