<?xml version="1.0" encoding="utf-8" standalone="no"?>
<!DOCTYPE svg PUBLIC "-//W3C//DTD SVG 1.1//EN"
  "http://www.w3.org/Graphics/SVG/1.1/DTD/svg11.dtd">
<svg height="720pt" version="1.1" viewBox="0 0 720 720" width="720pt" xmlns="http://www.w3.org/2000/svg" xmlns:xlink="http://www.w3.org/1999/xlink">
 <metadata>
  <rdf:RDF xmlns:cc="http://creativecommons.org/ns#" xmlns:dc="http://purl.org/dc/elements/1.1/" xmlns:rdf="http://www.w3.org/1999/02/22-rdf-syntax-ns#">
   <cc:Work>
    <dc:type rdf:resource="http://purl.org/dc/dcmitype/StillImage"/>
    <dc:date>2022-01-10T05:23:25.321055</dc:date>
    <dc:format>image/svg+xml</dc:format>
    <dc:creator>
     <cc:Agent>
      <dc:title>Matplotlib v3.4.3, https://matplotlib.org/</dc:title>
     </cc:Agent>
    </dc:creator>
   </cc:Work>
  </rdf:RDF>
 </metadata>
 <defs>
  <style type="text/css">*{stroke-linecap:butt;stroke-linejoin:round;}</style>
 </defs>
 <g id="figure_1">
  <g id="patch_1">
   <path d="M 0 720 
L 720 720 
L 720 0 
L 0 0 
z
" style="fill:none;"/>
  </g>
  <g id="axes_1">
   <g id="patch_2">
    <path d="M 90 630 
L 648 630 
L 648 86.4 
L 90 86.4 
z
" style="fill:#ffffff;"/>
   </g>
   <g id="PathCollection_1">
    <defs>
     <path d="M 0 7.071068 
C 1.875269 7.071068 3.673985 6.326016 5 5 
C 6.326016 3.673985 7.071068 1.875269 7.071068 0 
C 7.071068 -1.875269 6.326016 -3.673985 5 -5 
C 3.673985 -6.326016 1.875269 -7.071068 0 -7.071068 
C -1.875269 -7.071068 -3.673985 -6.326016 -5 -5 
C -6.326016 -3.673985 -7.071068 -1.875269 -7.071068 0 
C -7.071068 1.875269 -6.326016 3.673985 -5 5 
C -3.673985 6.326016 -1.875269 7.071068 0 7.071068 
z
" id="mc786898555" style="stroke:#1f77b4;"/>
    </defs>
    <g clip-path="url(#p7477bd4253)">
     <use style="fill:#1f77b4;stroke:#1f77b4;" x="144.013107" xlink:href="#mc786898555" y="160.275188"/>
    </g>
   </g>
   <g id="PathCollection_2">
    <defs>
     <path d="M 0 7.071068 
C 1.875269 7.071068 3.673985 6.326016 5 5 
C 6.326016 3.673985 7.071068 1.875269 7.071068 0 
C 7.071068 -1.875269 6.326016 -3.673985 5 -5 
C 3.673985 -6.326016 1.875269 -7.071068 0 -7.071068 
C -1.875269 -7.071068 -3.673985 -6.326016 -5 -5 
C -6.326016 -3.673985 -7.071068 -1.875269 -7.071068 0 
C -7.071068 1.875269 -6.326016 3.673985 -5 5 
C -3.673985 6.326016 -1.875269 7.071068 0 7.071068 
z
" id="m0627a24f64" style="stroke:#ff7f0e;"/>
    </defs>
    <g clip-path="url(#p7477bd4253)">
     <use style="fill:#ff7f0e;stroke:#ff7f0e;" x="356.901246" xlink:href="#m0627a24f64" y="303.729498"/>
    </g>
   </g>
   <g id="PathCollection_3">
    <defs>
     <path d="M 0 7.071068 
C 1.875269 7.071068 3.673985 6.326016 5 5 
C 6.326016 3.673985 7.071068 1.875269 7.071068 0 
C 7.071068 -1.875269 6.326016 -3.673985 5 -5 
C 3.673985 -6.326016 1.875269 -7.071068 0 -7.071068 
C -1.875269 -7.071068 -3.673985 -6.326016 -5 -5 
C -6.326016 -3.673985 -7.071068 -1.875269 -7.071068 0 
C -7.071068 1.875269 -6.326016 3.673985 -5 5 
C -3.673985 6.326016 -1.875269 7.071068 0 7.071068 
z
" id="mde776e0590" style="stroke:#2ca02c;"/>
    </defs>
    <g clip-path="url(#p7477bd4253)">
     <use style="fill:#2ca02c;stroke:#2ca02c;" x="265.800551" xlink:href="#mde776e0590" y="586.040585"/>
    </g>
   </g>
   <g id="PathCollection_4">
    <defs>
     <path d="M 0 7.071068 
C 1.875269 7.071068 3.673985 6.326016 5 5 
C 6.326016 3.673985 7.071068 1.875269 7.071068 0 
C 7.071068 -1.875269 6.326016 -3.673985 5 -5 
C 3.673985 -6.326016 1.875269 -7.071068 0 -7.071068 
C -1.875269 -7.071068 -3.673985 -6.326016 -5 -5 
C -6.326016 -3.673985 -7.071068 -1.875269 -7.071068 0 
C -7.071068 1.875269 -6.326016 3.673985 -5 5 
C -3.673985 6.326016 -1.875269 7.071068 0 7.071068 
z
" id="m9e83a0c868" style="stroke:#d62728;"/>
    </defs>
    <g clip-path="url(#p7477bd4253)">
     <use style="fill:#d62728;stroke:#d62728;" x="434.354214" xlink:href="#m9e83a0c868" y="443.204365"/>
    </g>
   </g>
   <g id="PathCollection_5">
    <defs>
     <path d="M 0 7.071068 
C 1.875269 7.071068 3.673985 6.326016 5 5 
C 6.326016 3.673985 7.071068 1.875269 7.071068 0 
C 7.071068 -1.875269 6.326016 -3.673985 5 -5 
C 3.673985 -6.326016 1.875269 -7.071068 0 -7.071068 
C -1.875269 -7.071068 -3.673985 -6.326016 -5 -5 
C -6.326016 -3.673985 -7.071068 -1.875269 -7.071068 0 
C -7.071068 1.875269 -6.326016 3.673985 -5 5 
C -3.673985 6.326016 -1.875269 7.071068 0 7.071068 
z
" id="mcd9e3b3c69" style="stroke:#9467bd;"/>
    </defs>
    <g clip-path="url(#p7477bd4253)">
     <use style="fill:#9467bd;stroke:#9467bd;" x="621.888057" xlink:href="#mcd9e3b3c69" y="432.05879"/>
    </g>
   </g>
   <g id="PathCollection_6">
    <defs>
     <path d="M 0 7.071068 
C 1.875269 7.071068 3.673985 6.326016 5 5 
C 6.326016 3.673985 7.071068 1.875269 7.071068 0 
C 7.071068 -1.875269 6.326016 -3.673985 5 -5 
C 3.673985 -6.326016 1.875269 -7.071068 0 -7.071068 
C -1.875269 -7.071068 -3.673985 -6.326016 -5 -5 
C -6.326016 -3.673985 -7.071068 -1.875269 -7.071068 0 
C -7.071068 1.875269 -6.326016 3.673985 -5 5 
C -3.673985 6.326016 -1.875269 7.071068 0 7.071068 
z
" id="m6d62dfb40c" style="stroke:#8c564b;"/>
    </defs>
    <g clip-path="url(#p7477bd4253)">
     <use style="fill:#8c564b;stroke:#8c564b;" x="170.580276" xlink:href="#m6d62dfb40c" y="173.430254"/>
    </g>
   </g>
   <g id="PathCollection_7">
    <defs>
     <path d="M 0 7.071068 
C 1.875269 7.071068 3.673985 6.326016 5 5 
C 6.326016 3.673985 7.071068 1.875269 7.071068 0 
C 7.071068 -1.875269 6.326016 -3.673985 5 -5 
C 3.673985 -6.326016 1.875269 -7.071068 0 -7.071068 
C -1.875269 -7.071068 -3.673985 -6.326016 -5 -5 
C -6.326016 -3.673985 -7.071068 -1.875269 -7.071068 0 
C -7.071068 1.875269 -6.326016 3.673985 -5 5 
C -3.673985 6.326016 -1.875269 7.071068 0 7.071068 
z
" id="m559e086e75" style="stroke:#e377c2;"/>
    </defs>
    <g clip-path="url(#p7477bd4253)">
     <use style="fill:#e377c2;stroke:#e377c2;" x="334.778144" xlink:href="#m559e086e75" y="287.768183"/>
    </g>
   </g>
   <g id="PathCollection_8">
    <defs>
     <path d="M 0 7.071068 
C 1.875269 7.071068 3.673985 6.326016 5 5 
C 6.326016 3.673985 7.071068 1.875269 7.071068 0 
C 7.071068 -1.875269 6.326016 -3.673985 5 -5 
C 3.673985 -6.326016 1.875269 -7.071068 0 -7.071068 
C -1.875269 -7.071068 -3.673985 -6.326016 -5 -5 
C -6.326016 -3.673985 -7.071068 -1.875269 -7.071068 0 
C -7.071068 1.875269 -6.326016 3.673985 -5 5 
C -3.673985 6.326016 -1.875269 7.071068 0 7.071068 
z
" id="m7dd0ba7ff0" style="stroke:#7f7f7f;"/>
    </defs>
    <g clip-path="url(#p7477bd4253)">
     <use style="fill:#7f7f7f;stroke:#7f7f7f;" x="237.654071" xlink:href="#m7dd0ba7ff0" y="574.190407"/>
    </g>
   </g>
   <g id="PathCollection_9">
    <defs>
     <path d="M 0 7.071068 
C 1.875269 7.071068 3.673985 6.326016 5 5 
C 6.326016 3.673985 7.071068 1.875269 7.071068 0 
C 7.071068 -1.875269 6.326016 -3.673985 5 -5 
C 3.673985 -6.326016 1.875269 -7.071068 0 -7.071068 
C -1.875269 -7.071068 -3.673985 -6.326016 -5 -5 
C -6.326016 -3.673985 -7.071068 -1.875269 -7.071068 0 
C -7.071068 1.875269 -6.326016 3.673985 -5 5 
C -3.673985 6.326016 -1.875269 7.071068 0 7.071068 
z
" id="md61b7ad6d5" style="stroke:#bcbd22;"/>
    </defs>
    <g clip-path="url(#p7477bd4253)">
     <use style="fill:#bcbd22;stroke:#bcbd22;" x="460.936646" xlink:href="#md61b7ad6d5" y="430.060948"/>
    </g>
   </g>
   <g id="PathCollection_10">
    <defs>
     <path d="M 0 7.071068 
C 1.875269 7.071068 3.673985 6.326016 5 5 
C 6.326016 3.673985 7.071068 1.875269 7.071068 0 
C 7.071068 -1.875269 6.326016 -3.673985 5 -5 
C 3.673985 -6.326016 1.875269 -7.071068 0 -7.071068 
C -1.875269 -7.071068 -3.673985 -6.326016 -5 -5 
C -6.326016 -3.673985 -7.071068 -1.875269 -7.071068 0 
C -7.071068 1.875269 -6.326016 3.673985 -5 5 
C -3.673985 6.326016 -1.875269 7.071068 0 7.071068 
z
" id="m9d43a23b72" style="stroke:#17becf;"/>
    </defs>
    <g clip-path="url(#p7477bd4253)">
     <use style="fill:#17becf;stroke:#17becf;" x="587.986822" xlink:href="#m9d43a23b72" y="434.424063"/>
    </g>
   </g>
   <g id="PathCollection_11"/>
   <g id="PathCollection_12"/>
   <g id="PathCollection_13">
    <defs>
     <path d="M 0 10 
C 2.652031 10 5.195799 8.946337 7.071068 7.071068 
C 8.946337 5.195799 10 2.652031 10 0 
C 10 -2.652031 8.946337 -5.195799 7.071068 -7.071068 
C 5.195799 -8.946337 2.652031 -10 0 -10 
C -2.652031 -10 -5.195799 -8.946337 -7.071068 -7.071068 
C -8.946337 -5.195799 -10 -2.652031 -10 0 
C -10 2.652031 -8.946337 5.195799 -7.071068 7.071068 
C -5.195799 8.946337 -2.652031 10 0 10 
z
" id="mb2642e5013" style="stroke:#2ca02c;"/>
    </defs>
    <g clip-path="url(#p7477bd4253)">
     <use style="fill:#2ca02c;stroke:#2ca02c;" x="338.242386" xlink:href="#mb2642e5013" y="411.809138"/>
    </g>
   </g>
   <g id="PathCollection_14">
    <defs>
     <path d="M 0 10 
C 2.652031 10 5.195799 8.946337 7.071068 7.071068 
C 8.946337 5.195799 10 2.652031 10 0 
C 10 -2.652031 8.946337 -5.195799 7.071068 -7.071068 
C 5.195799 -8.946337 2.652031 -10 0 -10 
C -2.652031 -10 -5.195799 -8.946337 -7.071068 -7.071068 
C -8.946337 -5.195799 -10 -2.652031 -10 0 
C -10 2.652031 -8.946337 5.195799 -7.071068 7.071068 
C -5.195799 8.946337 -2.652031 10 0 10 
z
" id="m8841263730" style="stroke:#d62728;"/>
    </defs>
    <g clip-path="url(#p7477bd4253)">
     <use style="fill:#d62728;stroke:#d62728;" x="453.583714" xlink:href="#m8841263730" y="459.046412"/>
    </g>
   </g>
   <g id="PathCollection_15"/>
   <g id="PathCollection_16"/>
   <g id="PathCollection_17"/>
   <g id="PathCollection_18">
    <defs>
     <path d="M 0 10 
C 2.652031 10 5.195799 8.946337 7.071068 7.071068 
C 8.946337 5.195799 10 2.652031 10 0 
C 10 -2.652031 8.946337 -5.195799 7.071068 -7.071068 
C 5.195799 -8.946337 2.652031 -10 0 -10 
C -2.652031 -10 -5.195799 -8.946337 -7.071068 -7.071068 
C -8.946337 -5.195799 -10 -2.652031 -10 0 
C -10 2.652031 -8.946337 5.195799 -7.071068 7.071068 
C -5.195799 8.946337 -2.652031 10 0 10 
z
" id="mecc4864fa8" style="stroke:#7f7f7f;"/>
    </defs>
    <g clip-path="url(#p7477bd4253)">
     <use style="fill:#7f7f7f;stroke:#7f7f7f;" x="303.668179" xlink:href="#mecc4864fa8" y="393.899578"/>
    </g>
   </g>
   <g id="PathCollection_19">
    <defs>
     <path d="M 0 10 
C 2.652031 10 5.195799 8.946337 7.071068 7.071068 
C 8.946337 5.195799 10 2.652031 10 0 
C 10 -2.652031 8.946337 -5.195799 7.071068 -7.071068 
C 5.195799 -8.946337 2.652031 -10 0 -10 
C -2.652031 -10 -5.195799 -8.946337 -7.071068 -7.071068 
C -8.946337 -5.195799 -10 -2.652031 -10 0 
C -10 2.652031 -8.946337 5.195799 -7.071068 7.071068 
C -5.195799 8.946337 -2.652031 10 0 10 
z
" id="mb0e78847b5" style="stroke:#bcbd22;"/>
    </defs>
    <g clip-path="url(#p7477bd4253)">
     <use style="fill:#bcbd22;stroke:#bcbd22;" x="504.049059" xlink:href="#mb0e78847b5" y="472.683765"/>
    </g>
   </g>
   <g id="PathCollection_20"/>
   <g id="PathCollection_21"/>
   <g id="PathCollection_22"/>
   <g id="PathCollection_23"/>
   <g id="PathCollection_24"/>
   <g id="PathCollection_25"/>
   <g id="PathCollection_26"/>
   <g id="PathCollection_27"/>
   <g id="PathCollection_28"/>
   <g id="PathCollection_29"/>
   <g id="PathCollection_30"/>
   <g id="PathCollection_31">
    <defs>
     <path d="M 0 10 
C 2.652031 10 5.195799 8.946337 7.071068 7.071068 
C 8.946337 5.195799 10 2.652031 10 0 
C 10 -2.652031 8.946337 -5.195799 7.071068 -7.071068 
C 5.195799 -8.946337 2.652031 -10 0 -10 
C -2.652031 -10 -5.195799 -8.946337 -7.071068 -7.071068 
C -8.946337 -5.195799 -10 -2.652031 -10 0 
C -10 2.652031 -8.946337 5.195799 -7.071068 7.071068 
C -5.195799 8.946337 -2.652031 10 0 10 
z
" id="m109668732c" style="stroke:#1f77b4;"/>
    </defs>
    <g clip-path="url(#p7477bd4253)">
     <use style="fill:#1f77b4;stroke:#1f77b4;" x="267.653403" xlink:href="#m109668732c" y="584.367073"/>
    </g>
   </g>
   <g id="PathCollection_32"/>
   <g id="PathCollection_33">
    <g clip-path="url(#p7477bd4253)">
     <use style="fill:#2ca02c;stroke:#2ca02c;" x="337.743694" xlink:href="#mb2642e5013" y="384.35936"/>
    </g>
   </g>
   <g id="PathCollection_34"/>
   <g id="PathCollection_35"/>
   <g id="PathCollection_36"/>
   <g id="PathCollection_37"/>
   <g id="PathCollection_38"/>
   <g id="PathCollection_39"/>
   <g id="PathCollection_40"/>
   <g id="PathCollection_41"/>
   <g id="PathCollection_42"/>
   <g id="PathCollection_43"/>
   <g id="PathCollection_44"/>
   <g id="PathCollection_45"/>
   <g id="PathCollection_46">
    <defs>
     <path d="M 0 10 
C 2.652031 10 5.195799 8.946337 7.071068 7.071068 
C 8.946337 5.195799 10 2.652031 10 0 
C 10 -2.652031 8.946337 -5.195799 7.071068 -7.071068 
C 5.195799 -8.946337 2.652031 -10 0 -10 
C -2.652031 -10 -5.195799 -8.946337 -7.071068 -7.071068 
C -8.946337 -5.195799 -10 -2.652031 -10 0 
C -10 2.652031 -8.946337 5.195799 -7.071068 7.071068 
C -5.195799 8.946337 -2.652031 10 0 10 
z
" id="m44257f0fd9" style="stroke:#8c564b;"/>
    </defs>
    <g clip-path="url(#p7477bd4253)">
     <use style="fill:#8c564b;stroke:#8c564b;" x="412.243653" xlink:href="#m44257f0fd9" y="419.37547"/>
    </g>
   </g>
   <g id="PathCollection_47"/>
   <g id="PathCollection_48"/>
   <g id="PathCollection_49"/>
   <g id="PathCollection_50"/>
   <g id="PathCollection_51"/>
   <g id="PathCollection_52"/>
   <g id="PathCollection_53">
    <g clip-path="url(#p7477bd4253)">
     <use style="fill:#2ca02c;stroke:#2ca02c;" x="304.06631" xlink:href="#mb2642e5013" y="365.706433"/>
    </g>
   </g>
   <g id="PathCollection_54">
    <g clip-path="url(#p7477bd4253)">
     <use style="fill:#d62728;stroke:#d62728;" x="476.68899" xlink:href="#m8841263730" y="442.75422"/>
    </g>
   </g>
   <g id="PathCollection_55"/>
   <g id="PathCollection_56"/>
   <g id="PathCollection_57">
    <defs>
     <path d="M 0 10 
C 2.652031 10 5.195799 8.946337 7.071068 7.071068 
C 8.946337 5.195799 10 2.652031 10 0 
C 10 -2.652031 8.946337 -5.195799 7.071068 -7.071068 
C 5.195799 -8.946337 2.652031 -10 0 -10 
C -2.652031 -10 -5.195799 -8.946337 -7.071068 -7.071068 
C -8.946337 -5.195799 -10 -2.652031 -10 0 
C -10 2.652031 -8.946337 5.195799 -7.071068 7.071068 
C -5.195799 8.946337 -2.652031 10 0 10 
z
" id="md2aaf41a70" style="stroke:#e377c2;"/>
    </defs>
    <g clip-path="url(#p7477bd4253)">
     <use style="fill:#e377c2;stroke:#e377c2;" x="337.44521" xlink:href="#md2aaf41a70" y="285.940378"/>
    </g>
   </g>
   <g id="PathCollection_58"/>
   <g id="PathCollection_59"/>
   <g id="PathCollection_60"/>
   <g id="PathCollection_61"/>
   <g id="PathCollection_62"/>
   <g id="PathCollection_63"/>
   <g id="PathCollection_64"/>
   <g id="PathCollection_65"/>
   <g id="matplotlib.axis_1">
    <g id="xtick_1">
     <g id="line2d_1">
      <defs>
       <path d="M 0 0 
L 0 3.5 
" id="m22c5bb4926" style="stroke:#000000;stroke-width:0.8;"/>
      </defs>
      <g>
       <use style="stroke:#000000;stroke-width:0.8;" x="146.652219" xlink:href="#m22c5bb4926" y="630"/>
      </g>
     </g>
     <g id="text_1">
      <!-- −400 -->
      <g transform="translate(132.918625 644.598438)scale(0.1 -0.1)">
       <defs>
        <path d="M 678 2272 
L 4684 2272 
L 4684 1741 
L 678 1741 
L 678 2272 
z
" id="DejaVuSans-2212" transform="scale(0.015625)"/>
        <path d="M 2419 4116 
L 825 1625 
L 2419 1625 
L 2419 4116 
z
M 2253 4666 
L 3047 4666 
L 3047 1625 
L 3713 1625 
L 3713 1100 
L 3047 1100 
L 3047 0 
L 2419 0 
L 2419 1100 
L 313 1100 
L 313 1709 
L 2253 4666 
z
" id="DejaVuSans-34" transform="scale(0.015625)"/>
        <path d="M 2034 4250 
Q 1547 4250 1301 3770 
Q 1056 3291 1056 2328 
Q 1056 1369 1301 889 
Q 1547 409 2034 409 
Q 2525 409 2770 889 
Q 3016 1369 3016 2328 
Q 3016 3291 2770 3770 
Q 2525 4250 2034 4250 
z
M 2034 4750 
Q 2819 4750 3233 4129 
Q 3647 3509 3647 2328 
Q 3647 1150 3233 529 
Q 2819 -91 2034 -91 
Q 1250 -91 836 529 
Q 422 1150 422 2328 
Q 422 3509 836 4129 
Q 1250 4750 2034 4750 
z
" id="DejaVuSans-30" transform="scale(0.015625)"/>
       </defs>
       <use xlink:href="#DejaVuSans-2212"/>
       <use x="83.789062" xlink:href="#DejaVuSans-34"/>
       <use x="147.412109" xlink:href="#DejaVuSans-30"/>
       <use x="211.035156" xlink:href="#DejaVuSans-30"/>
      </g>
     </g>
    </g>
    <g id="xtick_2">
     <g id="line2d_2">
      <g>
       <use style="stroke:#000000;stroke-width:0.8;" x="231.949838" xlink:href="#m22c5bb4926" y="630"/>
      </g>
     </g>
     <g id="text_2">
      <!-- −300 -->
      <g transform="translate(218.216244 644.598438)scale(0.1 -0.1)">
       <defs>
        <path d="M 2597 2516 
Q 3050 2419 3304 2112 
Q 3559 1806 3559 1356 
Q 3559 666 3084 287 
Q 2609 -91 1734 -91 
Q 1441 -91 1130 -33 
Q 819 25 488 141 
L 488 750 
Q 750 597 1062 519 
Q 1375 441 1716 441 
Q 2309 441 2620 675 
Q 2931 909 2931 1356 
Q 2931 1769 2642 2001 
Q 2353 2234 1838 2234 
L 1294 2234 
L 1294 2753 
L 1863 2753 
Q 2328 2753 2575 2939 
Q 2822 3125 2822 3475 
Q 2822 3834 2567 4026 
Q 2313 4219 1838 4219 
Q 1578 4219 1281 4162 
Q 984 4106 628 3988 
L 628 4550 
Q 988 4650 1302 4700 
Q 1616 4750 1894 4750 
Q 2613 4750 3031 4423 
Q 3450 4097 3450 3541 
Q 3450 3153 3228 2886 
Q 3006 2619 2597 2516 
z
" id="DejaVuSans-33" transform="scale(0.015625)"/>
       </defs>
       <use xlink:href="#DejaVuSans-2212"/>
       <use x="83.789062" xlink:href="#DejaVuSans-33"/>
       <use x="147.412109" xlink:href="#DejaVuSans-30"/>
       <use x="211.035156" xlink:href="#DejaVuSans-30"/>
      </g>
     </g>
    </g>
    <g id="xtick_3">
     <g id="line2d_3">
      <g>
       <use style="stroke:#000000;stroke-width:0.8;" x="317.247457" xlink:href="#m22c5bb4926" y="630"/>
      </g>
     </g>
     <g id="text_3">
      <!-- −200 -->
      <g transform="translate(303.513863 644.598438)scale(0.1 -0.1)">
       <defs>
        <path d="M 1228 531 
L 3431 531 
L 3431 0 
L 469 0 
L 469 531 
Q 828 903 1448 1529 
Q 2069 2156 2228 2338 
Q 2531 2678 2651 2914 
Q 2772 3150 2772 3378 
Q 2772 3750 2511 3984 
Q 2250 4219 1831 4219 
Q 1534 4219 1204 4116 
Q 875 4013 500 3803 
L 500 4441 
Q 881 4594 1212 4672 
Q 1544 4750 1819 4750 
Q 2544 4750 2975 4387 
Q 3406 4025 3406 3419 
Q 3406 3131 3298 2873 
Q 3191 2616 2906 2266 
Q 2828 2175 2409 1742 
Q 1991 1309 1228 531 
z
" id="DejaVuSans-32" transform="scale(0.015625)"/>
       </defs>
       <use xlink:href="#DejaVuSans-2212"/>
       <use x="83.789062" xlink:href="#DejaVuSans-32"/>
       <use x="147.412109" xlink:href="#DejaVuSans-30"/>
       <use x="211.035156" xlink:href="#DejaVuSans-30"/>
      </g>
     </g>
    </g>
    <g id="xtick_4">
     <g id="line2d_4">
      <g>
       <use style="stroke:#000000;stroke-width:0.8;" x="402.545075" xlink:href="#m22c5bb4926" y="630"/>
      </g>
     </g>
     <g id="text_4">
      <!-- −100 -->
      <g transform="translate(388.811482 644.598438)scale(0.1 -0.1)">
       <defs>
        <path d="M 794 531 
L 1825 531 
L 1825 4091 
L 703 3866 
L 703 4441 
L 1819 4666 
L 2450 4666 
L 2450 531 
L 3481 531 
L 3481 0 
L 794 0 
L 794 531 
z
" id="DejaVuSans-31" transform="scale(0.015625)"/>
       </defs>
       <use xlink:href="#DejaVuSans-2212"/>
       <use x="83.789062" xlink:href="#DejaVuSans-31"/>
       <use x="147.412109" xlink:href="#DejaVuSans-30"/>
       <use x="211.035156" xlink:href="#DejaVuSans-30"/>
      </g>
     </g>
    </g>
    <g id="xtick_5">
     <g id="line2d_5">
      <g>
       <use style="stroke:#000000;stroke-width:0.8;" x="487.842694" xlink:href="#m22c5bb4926" y="630"/>
      </g>
     </g>
     <g id="text_5">
      <!-- 0 -->
      <g transform="translate(484.661444 644.598438)scale(0.1 -0.1)">
       <use xlink:href="#DejaVuSans-30"/>
      </g>
     </g>
    </g>
    <g id="xtick_6">
     <g id="line2d_6">
      <g>
       <use style="stroke:#000000;stroke-width:0.8;" x="573.140313" xlink:href="#m22c5bb4926" y="630"/>
      </g>
     </g>
     <g id="text_6">
      <!-- 100 -->
      <g transform="translate(563.596563 644.598438)scale(0.1 -0.1)">
       <use xlink:href="#DejaVuSans-31"/>
       <use x="63.623047" xlink:href="#DejaVuSans-30"/>
       <use x="127.246094" xlink:href="#DejaVuSans-30"/>
      </g>
     </g>
    </g>
   </g>
   <g id="matplotlib.axis_2">
    <g id="ytick_1">
     <g id="line2d_7">
      <defs>
       <path d="M 0 0 
L -3.5 0 
" id="m102f5a1bae" style="stroke:#000000;stroke-width:0.8;"/>
      </defs>
      <g>
       <use style="stroke:#000000;stroke-width:0.8;" x="90" xlink:href="#m102f5a1bae" y="583.666061"/>
      </g>
     </g>
     <g id="text_7">
      <!-- −400 -->
      <g transform="translate(55.532812 587.465279)scale(0.1 -0.1)">
       <use xlink:href="#DejaVuSans-2212"/>
       <use x="83.789062" xlink:href="#DejaVuSans-34"/>
       <use x="147.412109" xlink:href="#DejaVuSans-30"/>
       <use x="211.035156" xlink:href="#DejaVuSans-30"/>
      </g>
     </g>
    </g>
    <g id="ytick_2">
     <g id="line2d_8">
      <g>
       <use style="stroke:#000000;stroke-width:0.8;" x="90" xlink:href="#m102f5a1bae" y="478.835628"/>
      </g>
     </g>
     <g id="text_8">
      <!-- −200 -->
      <g transform="translate(55.532812 482.634846)scale(0.1 -0.1)">
       <use xlink:href="#DejaVuSans-2212"/>
       <use x="83.789062" xlink:href="#DejaVuSans-32"/>
       <use x="147.412109" xlink:href="#DejaVuSans-30"/>
       <use x="211.035156" xlink:href="#DejaVuSans-30"/>
      </g>
     </g>
    </g>
    <g id="ytick_3">
     <g id="line2d_9">
      <g>
       <use style="stroke:#000000;stroke-width:0.8;" x="90" xlink:href="#m102f5a1bae" y="374.005195"/>
      </g>
     </g>
     <g id="text_9">
      <!-- 0 -->
      <g transform="translate(76.6375 377.804413)scale(0.1 -0.1)">
       <use xlink:href="#DejaVuSans-30"/>
      </g>
     </g>
    </g>
    <g id="ytick_4">
     <g id="line2d_10">
      <g>
       <use style="stroke:#000000;stroke-width:0.8;" x="90" xlink:href="#m102f5a1bae" y="269.174762"/>
      </g>
     </g>
     <g id="text_10">
      <!-- 200 -->
      <g transform="translate(63.9125 272.97398)scale(0.1 -0.1)">
       <use xlink:href="#DejaVuSans-32"/>
       <use x="63.623047" xlink:href="#DejaVuSans-30"/>
       <use x="127.246094" xlink:href="#DejaVuSans-30"/>
      </g>
     </g>
    </g>
    <g id="ytick_5">
     <g id="line2d_11">
      <g>
       <use style="stroke:#000000;stroke-width:0.8;" x="90" xlink:href="#m102f5a1bae" y="164.344329"/>
      </g>
     </g>
     <g id="text_11">
      <!-- 400 -->
      <g transform="translate(63.9125 168.143547)scale(0.1 -0.1)">
       <use xlink:href="#DejaVuSans-34"/>
       <use x="63.623047" xlink:href="#DejaVuSans-30"/>
       <use x="127.246094" xlink:href="#DejaVuSans-30"/>
      </g>
     </g>
    </g>
   </g>
   <g id="line2d_12">
    <path clip-path="url(#p7477bd4253)" d="M 621.888057 432.05879 
L 622.542733 436.954663 
L 622.636364 442.012848 
L 621.993629 447.247498 
L 620.367707 452.649859 
L 617.437144 458.14951 
L 612.871668 463.551577 
L 606.531526 468.501364 
L 598.698834 472.594363 
L 590.008593 475.608467 
L 581.075991 477.591843 
L 572.262336 478.737964 
L 563.706867 479.24914 
L 555.433607 479.283982 
L 547.422797 478.955583 
L 539.643341 478.343029 
L 532.064731 477.502264 
L 524.660531 476.473773 
L 517.408791 475.287608 
L 510.291527 473.966625 
L 503.294012 472.528599 
L 496.404121 470.987625 
L 489.611798 469.355071 
L 482.908627 467.640247 
L 476.287509 465.850876 
L 469.742404 463.993436 
L 463.268135 462.07342 
L 456.860236 460.095521 
L 450.514827 458.063786 
L 444.22852 455.981723 
L 437.998343 453.852397 
L 431.821675 451.678494 
L 425.6962 449.462387 
L 419.619861 447.206172 
L 413.590829 444.911714 
L 407.607472 442.580675 
L 401.668337 440.214539 
L 395.772123 437.814635 
L 389.917669 435.382155 
L 384.103938 432.91817 
L 378.330007 430.42364 
L 372.595054 427.899429 
L 366.898351 425.346313 
L 361.239257 422.764988 
L 355.617211 420.156077 
L 350.031726 417.520135 
L 344.482387 414.857659 
L 338.968843 412.169086 
L 333.490809 409.454803 
L 328.048057 406.715144 
L 322.640423 403.950401 
L 317.267795 401.16082 
L 311.93012 398.346605 
L 306.627398 395.507924 
L 301.359685 392.644903 
L 296.127092 389.757634 
L 290.929783 386.846174 
L 285.767981 383.910544 
L 280.641961 380.950733 
L 275.55206 377.966696 
L 270.498673 374.958356 
L 265.482256 371.925602 
L 260.50333 368.868291 
L 255.562482 365.786249 
L 250.660371 362.679266 
L 245.797728 359.5471 
L 240.975363 356.389474 
L 236.194169 353.206074 
L 231.455126 349.996554 
L 226.759312 346.760525 
L 222.107901 343.497562 
L 217.50218 340.207198 
L 212.943551 336.888923 
L 208.433546 333.542182 
L 203.973832 330.166373 
L 199.566229 326.760843 
L 195.212719 323.324886 
L 190.915465 319.85774 
L 186.676828 316.358582 
L 182.499386 312.826525 
L 178.385958 309.260617 
L 174.33963 305.659831 
L 170.363783 302.023062 
L 166.46213 298.349128 
L 162.638753 294.636757 
L 158.898148 290.884588 
L 155.245277 287.091166 
L 151.685627 283.254938 
L 148.225279 279.374252 
L 144.870986 275.447359 
L 141.630265 271.472414 
L 138.511501 267.447487 
L 135.524066 263.370579 
L 132.678456 259.239648 
L 129.986448 255.052647 
L 127.461263 250.807587 
L 125.117758 246.502616 
L 122.97262 242.136145 
L 121.044556 237.707008 
L 119.354466 233.214686 
L 117.925568 228.659599 
L 116.78342 224.043483 
L 115.955791 219.369849 
L 115.472285 214.64452 
L 115.363636 209.876219 
L 115.66057 205.077133 
L 116.392195 200.263348 
L 117.583937 195.455012 
L 119.255201 190.676066 
L 121.41705 185.953422 
L 124.070375 181.315563 
L 127.204977 176.790723 
L 130.799877 172.404908 
L 134.82485 168.180139 
L 139.242889 164.133215 
L 144.013107 160.275188 
" style="fill:none;stroke:#1f77b4;stroke-linecap:square;stroke-width:1.5;"/>
   </g>
   <g id="line2d_13">
    <path clip-path="url(#p7477bd4253)" d="M 144.013107 160.275188 
L 148.51904 156.877563 
L 153.103561 153.50288 
L 157.775507 150.154075 
L 162.545194 146.83466 
L 167.42477 143.548863 
L 172.428668 140.301832 
L 177.574175 137.099914 
L 182.882171 133.951062 
L 188.378061 130.865431 
L 194.092936 127.856265 
L 200.064929 124.941251 
L 206.340632 122.144588 
L 212.976045 119.500176 
L 220.035763 117.056372 
L 227.587457 114.882599 
L 235.686149 113.076776 
L 244.341232 111.768841 
L 253.466211 111.109091 
L 262.837562 111.228626 
L 272.118138 112.180513 
L 280.966184 113.906822 
L 289.15325 116.266956 
L 296.599778 119.099565 
L 303.333843 122.267415 
L 309.433456 125.670613 
L 314.98759 129.241653 
L 320.07805 132.936015 
L 324.773823 136.724204 
L 329.130968 140.586269 
L 333.194395 144.508339 
L 336.999975 148.480478 
L 340.576426 152.495359 
L 343.946842 156.547443 
L 347.129888 160.632446 
L 350.140709 164.747002 
L 352.991626 168.888429 
L 355.692664 173.054577 
L 358.251952 177.243713 
L 360.676028 181.454451 
L 362.970069 185.685691 
L 365.138063 189.936579 
L 367.182938 194.206478 
L 369.106648 198.494945 
L 370.910231 202.801713 
L 372.593837 207.126684 
L 374.156727 211.46992 
L 375.597245 215.83164 
L 376.912764 220.212223 
L 378.099594 224.612213 
L 379.15285 229.032332 
L 380.066266 233.473495 
L 380.831951 237.93684 
L 381.440039 242.423764 
L 381.87822 246.935975 
L 382.131084 251.475559 
L 382.179189 256.045083 
L 381.997712 260.647712 
L 381.554451 265.287368 
L 380.806766 269.968901 
L 379.69676 274.698206 
L 378.143436 279.482045 
L 376.029612 284.326844 
L 373.179964 289.234162 
L 369.326326 294.186023 
L 364.068022 299.101404 
L 356.901246 303.729498 
" style="fill:none;stroke:#ff7f0e;stroke-linecap:square;stroke-width:1.5;"/>
   </g>
   <g id="line2d_14">
    <path clip-path="url(#p7477bd4253)" d="M 356.901246 303.729498 
L 355.226902 304.938105 
L 352.996902 307.278885 
L 350.857251 310.263081 
L 348.944615 313.617239 
L 347.266581 317.198863 
L 345.801274 320.92947 
L 344.522769 324.762927 
L 343.407461 328.670523 
L 342.435254 332.633509 
L 341.589355 336.639139 
L 340.855737 340.678442 
L 340.222611 344.744912 
L 339.67997 348.833705 
L 339.219227 352.941135 
L 338.832922 357.064338 
L 338.514496 361.201052 
L 338.258103 365.349469 
L 338.058469 369.50813 
L 337.91077 373.675853 
L 337.81053 377.851677 
L 337.753542 382.034832 
L 337.735791 386.224711 
L 337.753391 390.420848 
L 337.802525 394.622913 
L 337.879388 398.830699 
L 337.980137 403.044117 
L 338.10083 407.263199 
L 338.237375 411.488097 
L 338.385471 415.719084 
L 338.540541 419.956557 
L 338.697669 424.201046 
L 338.851521 428.453212 
L 338.996266 432.713858 
L 339.125484 436.983923 
L 339.232065 441.264483 
L 339.308108 445.556737 
L 339.344806 449.861992 
L 339.332335 454.181618 
L 339.259749 458.516993 
L 339.114896 462.869413 
L 338.884369 467.239965 
L 338.553527 471.629358 
L 338.10661 476.037702 
L 337.526995 480.46425 
L 336.79763 484.907112 
L 335.901679 489.362982 
L 334.823362 493.826928 
L 333.548969 498.292317 
L 332.067907 502.750947 
L 330.373644 507.193406 
L 328.464349 511.609672 
L 326.343071 515.989858 
L 324.017415 520.324985 
L 321.498753 524.607641 
L 318.801137 528.832421 
L 315.940123 532.996097 
L 312.931689 537.097533 
L 309.791377 541.137417 
L 306.533704 545.117881 
L 303.171841 549.042093 
L 299.71749 552.913866 
L 296.180922 556.737333 
L 292.571096 560.516686 
L 288.895817 564.255986 
L 285.161909 567.959042 
L 281.375368 571.629338 
L 277.541498 575.270009 
L 273.665015 578.883841 
L 269.750119 582.473303 
L 265.800551 586.040585 
" style="fill:none;stroke:#2ca02c;stroke-linecap:square;stroke-width:1.5;"/>
   </g>
   <g id="line2d_15">
    <path clip-path="url(#p7477bd4253)" d="M 265.800551 586.040585 
L 264.198353 587.761943 
L 264.158068 586.89669 
L 261.603202 583.775799 
L 261.705722 583.67081 
L 265.377034 584.12572 
L 270.490048 584.327443 
L 276.220768 584.247381 
L 282.248781 583.934976 
L 288.430682 583.434423 
L 294.694334 582.778362 
L 300.999919 581.990423 
L 307.323693 581.087928 
L 313.650493 580.083811 
L 319.969991 578.987894 
L 326.274699 577.807746 
L 332.55884 576.549251 
L 338.817672 575.21701 
L 345.047071 573.814612 
L 351.24325 572.344838 
L 357.402568 570.809801 
L 363.521377 569.211054 
L 369.59591 567.549667 
L 375.622173 565.826288 
L 381.595853 564.041183 
L 387.512213 562.194278 
L 393.365994 560.285178 
L 399.151301 558.313195 
L 404.861469 556.277363 
L 410.488927 554.17646 
L 416.025019 552.009033 
L 421.459813 549.773421 
L 426.781872 547.467804 
L 431.977996 545.090253 
L 437.032929 542.638819 
L 441.929048 540.111644 
L 446.646037 537.507125 
L 451.160597 534.824126 
L 455.446252 532.062251 
L 459.473334 529.22216 
L 463.209324 526.305899 
L 466.619681 523.317141 
L 469.669346 520.261208 
L 472.324895 517.144686 
L 474.557092 513.974495 
L 476.343179 510.756559 
L 477.668144 507.494605 
L 478.524615 504.189911 
L 478.911949 500.842506 
L 478.835573 497.453351 
L 478.307115 494.02626 
L 477.3448 490.568472 
L 475.973194 487.089818 
L 474.221902 483.601159 
L 472.123578 480.11291 
L 469.711827 476.634066 
L 467.019472 473.171769 
L 464.077371 469.731294 
L 460.913752 466.316245 
L 457.553943 462.928851 
L 454.02038 459.570264 
L 450.332763 456.24083 
L 446.5083 452.940305 
L 442.56198 449.668037 
L 438.506838 446.423093 
L 434.354214 443.204365 
" style="fill:none;stroke:#d62728;stroke-linecap:square;stroke-width:1.5;"/>
   </g>
   <g id="line2d_16">
    <path clip-path="url(#p7477bd4253)" d="M 434.354214 443.204365 
L 429.568523 439.33592 
L 425.133771 435.304971 
L 421.069403 431.123411 
L 417.392825 426.804378 
L 414.119202 422.362026 
L 411.261345 417.811276 
L 408.829715 413.167571 
L 406.832513 408.446636 
L 405.275866 403.664273 
L 404.164071 398.836197 
L 403.499906 393.977911 
L 403.284961 389.104636 
L 403.519992 384.231297 
L 404.205277 379.372552 
L 405.340964 374.542879 
L 406.9274 369.756711 
L 408.96544 365.028619 
L 411.456722 360.373557 
L 414.403914 355.807159 
L 417.8109 351.346116 
L 421.682894 347.008629 
L 426.026453 342.814971 
L 430.849291 338.788155 
L 436.15982 334.954753 
L 441.966229 331.345821 
L 448.274865 327.99792 
L 455.087581 324.954081 
L 462.397694 322.264432 
L 470.184275 319.985984 
L 478.404972 318.180767 
L 486.988536 316.911421 
L 495.829695 316.23368 
L 504.790222 316.186457 
L 513.709364 316.782149 
L 522.42314 318.00118 
L 530.786817 319.793827 
L 538.692349 322.089012 
L 546.075265 324.806366 
L 552.911174 327.867107 
L 559.20617 331.2011 
L 564.985915 334.749846 
L 570.28642 338.46658 
L 575.147532 342.314844 
L 579.60893 346.266573 
L 583.707965 350.300233 
L 587.478701 354.39926 
L 590.951652 358.550826 
L 594.153888 362.744903 
L 597.109324 366.973577 
L 599.839056 371.230532 
L 602.361716 375.510676 
L 604.693792 379.809863 
L 606.849918 384.124686 
L 608.843127 388.452326 
L 610.685066 392.790427 
L 612.386181 397.137013 
L 613.955875 401.490414 
L 615.40264 405.849215 
L 616.734173 410.212209 
L 617.95747 414.578366 
L 619.07891 418.946806 
L 620.104327 423.316773 
L 621.03907 427.687619 
L 621.888057 432.05879 
" style="fill:none;stroke:#9467bd;stroke-linecap:square;stroke-width:1.5;"/>
   </g>
   <g id="line2d_17">
    <path clip-path="url(#p7477bd4253)" d="M 587.986822 434.424063 
L 588.46493 437.985256 
L 588.53132 441.412218 
L 588.13979 444.638451 
L 587.26222 447.57751 
L 585.908331 450.136414 
L 584.127199 452.256426 
L 581.945016 453.964713 
L 579.271546 455.358928 
L 575.945446 456.506202 
L 571.901981 457.397874 
L 567.222254 458.001893 
L 562.054312 458.30766 
L 556.541019 458.328942 
L 550.794147 458.092101 
L 544.894099 457.626708 
L 538.896927 456.960831 
L 532.841409 456.119296 
L 526.754438 455.123379 
L 520.654794 453.991072 
L 514.55569 452.737527 
L 508.466488 451.375521 
L 502.393857 449.915862 
L 496.342563 448.367737 
L 490.316018 446.738997 
L 484.316653 445.036391 
L 478.346195 443.26575 
L 472.405852 441.432141 
L 466.496456 439.539989 
L 460.618564 437.593176 
L 454.77253 435.595124 
L 448.95856 433.54886 
L 443.176757 431.457076 
L 437.427148 429.322169 
L 431.70971 427.146285 
L 426.024387 424.931348 
L 420.371102 422.679087 
L 414.749773 420.391062 
L 409.160314 418.068681 
L 403.602648 415.713216 
L 398.076709 413.325823 
L 392.582444 410.907546 
L 387.119821 408.459336 
L 381.688829 405.982054 
L 376.289481 403.476483 
L 370.921815 400.943334 
L 365.585897 398.383252 
L 360.281824 395.796822 
L 355.00972 393.184573 
L 349.769744 390.546982 
L 344.562088 387.88448 
L 339.38698 385.197455 
L 334.244684 382.486251 
L 329.135504 379.751177 
L 324.059781 376.992503 
L 319.017902 374.210468 
L 314.010298 371.405278 
L 309.037444 368.577108 
L 304.099867 365.726106 
L 299.198145 362.852393 
L 294.332909 359.956062 
L 289.504851 357.037185 
L 284.714723 354.095808 
L 279.963341 351.131953 
L 275.251592 348.145625 
L 270.580438 345.136805 
L 265.950918 342.105454 
L 261.364156 339.051514 
L 256.82137 335.974912 
L 252.323872 332.875553 
L 247.87308 329.753329 
L 243.470526 326.608114 
L 239.117863 323.439769 
L 234.816877 320.248142 
L 230.569497 317.033068 
L 226.377806 313.794371 
L 222.244059 310.531869 
L 218.170691 307.245371 
L 214.160339 303.934683 
L 210.215859 300.599612 
L 206.340345 297.239967 
L 202.537155 293.855566 
L 198.809931 290.446238 
L 195.162631 287.011837 
L 191.59956 283.552244 
L 188.125401 280.067378 
L 184.745254 276.557215 
L 181.46468 273.021794 
L 178.28974 269.461244 
L 175.227051 265.875801 
L 172.283831 262.265841 
L 169.467957 258.631909 
L 166.78802 254.974761 
L 164.253384 251.295414 
L 161.874233 247.5952 
L 159.66162 243.875833 
L 157.627498 240.139484 
L 155.78473 236.388869 
L 154.147068 232.627333 
L 152.729091 228.858948 
L 151.546078 225.088594 
L 150.613815 221.32203 
L 149.948313 217.56592 
L 149.565437 213.827812 
L 149.480452 210.116038 
L 149.707507 206.439528 
L 150.259106 202.807528 
L 151.145598 199.229266 
L 152.374767 195.713591 
L 153.951506 192.268673 
L 155.877604 188.901802 
L 158.151601 185.619327 
L 160.768683 182.426692 
L 163.720658 179.328522 
L 166.996031 176.328679 
L 170.580276 173.430254 
" style="fill:none;stroke:#8c564b;stroke-linecap:square;stroke-width:1.5;"/>
   </g>
   <g id="line2d_18">
    <path clip-path="url(#p7477bd4253)" d="M 170.580276 173.430254 
L 174.844245 170.215044 
L 179.156978 167.040382 
L 183.521899 163.911595 
L 187.9426 160.834984 
L 192.422793 157.818034 
L 196.96622 154.869686 
L 201.576483 152.000681 
L 206.256759 149.224002 
L 211.009319 146.555427 
L 215.83476 144.014204 
L 220.730789 141.623843 
L 225.690372 139.412933 
L 230.699078 137.415755 
L 235.731713 135.672179 
L 240.749188 134.225901 
L 245.698575 133.119783 
L 250.522136 132.388026 
L 255.180427 132.048699 
L 259.680884 132.104786 
L 264.081109 132.556618 
L 268.447853 133.410729 
L 272.808631 134.670765 
L 277.14352 136.322656 
L 281.409865 138.332144 
L 285.566741 140.653396 
L 289.585489 143.238761 
L 293.450236 146.044699 
L 297.154725 149.03404 
L 300.698873 152.176121 
L 304.086134 155.446034 
L 307.321741 158.823628 
L 310.411615 162.292577 
L 313.361728 165.839583 
L 316.17774 169.453734 
L 318.864813 173.126009 
L 321.427517 176.848881 
L 323.869799 180.616017 
L 326.194979 184.422036 
L 328.405756 188.262328 
L 330.504226 192.132899 
L 332.491893 196.03025 
L 334.36968 199.951279 
L 336.137928 203.893194 
L 337.796393 207.853436 
L 339.344226 211.829612 
L 340.779951 215.819431 
L 342.10142 219.820633 
L 343.305762 223.830922 
L 344.389309 227.847887 
L 345.347508 231.86891 
L 346.1748 235.891052 
L 346.864477 239.910912 
L 347.408502 243.924443 
L 347.797286 247.926694 
L 348.019412 251.911473 
L 348.061319 255.870849 
L 347.906931 259.79445 
L 347.537275 263.668406 
L 346.930193 267.473767 
L 346.060389 271.184052 
L 344.900452 274.761459 
L 343.424337 278.151049 
L 341.616695 281.272452 
L 339.494649 284.010923 
L 337.148865 286.219373 
L 334.778144 287.768183 
" style="fill:none;stroke:#e377c2;stroke-linecap:square;stroke-width:1.5;"/>
   </g>
   <g id="line2d_19">
    <path clip-path="url(#p7477bd4253)" d="M 334.778144 287.768183 
L 327.30116 292.89234 
L 322.514566 297.86008 
L 319.072413 302.641484 
L 316.412369 307.297691 
L 314.267435 311.871276 
L 312.49225 316.388071 
L 310.99885 320.864072 
L 309.729636 325.309631 
L 308.644569 329.731738 
L 307.714486 334.135283 
L 306.917341 338.523781 
L 306.235941 342.899809 
L 305.656525 347.26528 
L 305.167817 351.621623 
L 304.760391 355.969906 
L 304.426212 360.31092 
L 304.158308 364.645242 
L 303.950525 368.973279 
L 303.797343 373.295302 
L 303.693722 377.611471 
L 303.63499 381.921855 
L 303.616744 386.226445 
L 303.634766 390.525164 
L 303.684952 394.817874 
L 303.763248 399.104383 
L 303.865584 403.384443 
L 303.987824 407.657749 
L 304.1257 411.923943 
L 304.274762 416.182604 
L 304.430313 420.433243 
L 304.587351 424.675295 
L 304.740505 428.908111 
L 304.883971 433.130943 
L 305.011439 437.342933 
L 305.11603 441.543102 
L 305.19023 445.730329 
L 305.225825 449.903345 
L 305.213855 454.060724 
L 305.14458 458.200877 
L 305.007477 462.322063 
L 304.791271 466.422414 
L 304.484016 470.499978 
L 304.073242 474.55279 
L 303.546166 478.578966 
L 302.88998 482.576822 
L 302.092218 486.545005 
L 301.141171 490.482603 
L 300.026355 494.389227 
L 298.738982 498.26502 
L 297.272412 502.110581 
L 295.62253 505.926834 
L 293.788001 509.714848 
L 291.770364 513.475685 
L 289.57391 517.210305 
L 287.205362 520.919547 
L 284.673395 524.604179 
L 281.988052 528.264977 
L 279.160154 531.902806 
L 276.200781 535.51866 
L 273.120846 539.113678 
L 269.930804 542.689115 
L 266.640475 546.246295 
L 263.258961 549.786556 
L 259.794626 553.31119 
L 256.255123 556.821409 
L 252.647439 560.318309 
L 248.977949 563.80286 
L 245.252457 567.275911 
L 241.47624 570.738206 
L 237.654071 574.190407 
" style="fill:none;stroke:#7f7f7f;stroke-linecap:square;stroke-width:1.5;"/>
   </g>
   <g id="line2d_20">
    <path clip-path="url(#p7477bd4253)" d="M 237.654071 574.190407 
L 232.559528 579.914292 
L 230.22628 589.090297 
L 239.139257 599.556325 
L 251.234706 603.625134 
L 261.166719 604.931561 
L 269.950607 605.290909 
L 278.13904 605.180304 
L 285.971147 604.775912 
L 293.565322 604.161732 
L 300.98763 603.384706 
L 308.278308 602.473905 
L 315.463453 601.448629 
L 322.560776 600.322321 
L 329.58269 599.104661 
L 336.538091 597.802761 
L 343.433438 596.421897 
L 350.273435 594.965975 
L 357.061475 593.437829 
L 363.79994 591.839432 
L 370.490402 590.172028 
L 377.13375 588.436228 
L 383.730286 586.63207 
L 390.279771 584.759052 
L 396.78145 582.816154 
L 403.234056 580.801832 
L 409.635786 578.714006 
L 415.98426 576.550031 
L 422.276452 574.306652 
L 428.508601 571.979951 
L 434.676076 569.565268 
L 440.773212 567.057121 
L 446.793081 564.449097 
L 452.727197 561.733737 
L 458.565122 558.902413 
L 464.293953 555.945201 
L 469.897646 552.850786 
L 475.356131 549.606419 
L 480.644195 546.198017 
L 485.730094 542.610491 
L 490.573958 538.828491 
L 495.126172 534.83778 
L 499.326191 530.627499 
L 503.102653 526.193449 
L 506.376014 521.542197 
L 509.064982 516.695071 
L 511.097011 511.690338 
L 512.420944 506.581586 
L 513.017529 501.431538 
L 512.903208 496.302808 
L 512.125504 491.249033 
L 510.752457 486.309427 
L 508.860725 481.507697 
L 506.526037 476.854198 
L 503.817385 472.349486 
L 500.794514 467.987837 
L 497.507604 463.760051 
L 493.998085 459.655396 
L 490.299895 455.662827 
L 486.440776 451.771687 
L 482.443448 447.972054 
L 478.326592 444.25489 
L 474.105651 440.612066 
L 469.793466 437.036319 
L 465.400782 433.521193 
L 460.936646 430.060948 
" style="fill:none;stroke:#bcbd22;stroke-linecap:square;stroke-width:1.5;"/>
   </g>
   <g id="line2d_21">
    <path clip-path="url(#p7477bd4253)" d="M 460.936646 430.060948 
L 457.290752 427.113936 
L 453.922392 424.052361 
L 450.842581 420.883815 
L 448.061348 417.616634 
L 445.587667 414.25985 
L 443.429407 410.82313 
L 441.593312 407.31672 
L 440.084996 403.75138 
L 438.908968 400.138329 
L 438.068668 396.48919 
L 437.566516 392.81596 
L 437.403982 389.130976 
L 437.581642 385.446919 
L 438.099246 381.776825 
L 438.955764 378.134128 
L 440.149411 374.532725 
L 441.677646 370.987063 
L 443.537116 367.51226 
L 445.723553 364.12424 
L 448.231586 360.839885 
L 451.054472 357.677203 
L 454.183708 354.655479 
L 457.608524 351.795394 
L 461.315262 349.119074 
L 465.28664 346.650003 
L 469.501023 344.41272 
L 473.931824 342.432244 
L 478.547332 340.733124 
L 483.311329 339.338183 
L 488.184809 338.267091 
L 493.128814 337.535189 
L 498.107673 337.152984 
L 503.09115 337.126531 
L 508.05401 337.458216 
L 512.972941 338.147 
L 517.822873 339.187501 
L 522.575419 340.56849 
L 527.200491 342.272085 
L 531.669787 344.274467 
L 535.960039 346.547894 
L 540.054739 349.06311 
L 543.944257 351.791411 
L 547.624929 354.706021 
L 551.097716 357.782798 
L 554.366892 361.000456 
L 557.43892 364.340481 
L 560.321593 367.786894 
L 563.02341 371.32596 
L 565.553141 374.945885 
L 567.919537 378.636539 
L 570.131145 382.389202 
L 572.196186 386.196357 
L 574.122499 390.051501 
L 575.917502 393.948995 
L 577.588183 397.883934 
L 579.141108 401.85204 
L 580.582431 405.849568 
L 581.917913 409.873235 
L 583.152943 413.920154 
L 584.292564 417.98778 
L 585.341489 422.073863 
L 586.304131 426.176414 
L 587.18462 430.293669 
L 587.986822 434.424063 
" style="fill:none;stroke:#17becf;stroke-linecap:square;stroke-width:1.5;"/>
   </g>
   <g id="patch_3">
    <path d="M 90 630 
L 90 86.4 
" style="fill:none;stroke:#000000;stroke-linecap:square;stroke-linejoin:miter;stroke-width:0.8;"/>
   </g>
   <g id="patch_4">
    <path d="M 648 630 
L 648 86.4 
" style="fill:none;stroke:#000000;stroke-linecap:square;stroke-linejoin:miter;stroke-width:0.8;"/>
   </g>
   <g id="patch_5">
    <path d="M 90 630 
L 648 630 
" style="fill:none;stroke:#000000;stroke-linecap:square;stroke-linejoin:miter;stroke-width:0.8;"/>
   </g>
   <g id="patch_6">
    <path d="M 90 86.4 
L 648 86.4 
" style="fill:none;stroke:#000000;stroke-linecap:square;stroke-linejoin:miter;stroke-width:0.8;"/>
   </g>
  </g>
 </g>
 <defs>
  <clipPath id="p7477bd4253">
   <rect height="543.6" width="558" x="90" y="86.4"/>
  </clipPath>
 </defs>
</svg>
