<?xml version="1.0" encoding="utf-8" standalone="no"?>
<!DOCTYPE svg PUBLIC "-//W3C//DTD SVG 1.1//EN"
  "http://www.w3.org/Graphics/SVG/1.1/DTD/svg11.dtd">
<svg height="720pt" version="1.1" viewBox="0 0 720 720" width="720pt" xmlns="http://www.w3.org/2000/svg" xmlns:xlink="http://www.w3.org/1999/xlink">
 <metadata>
  <rdf:RDF xmlns:cc="http://creativecommons.org/ns#" xmlns:dc="http://purl.org/dc/elements/1.1/" xmlns:rdf="http://www.w3.org/1999/02/22-rdf-syntax-ns#">
   <cc:Work>
    <dc:type rdf:resource="http://purl.org/dc/dcmitype/StillImage"/>
    <dc:date>2022-01-10T05:23:28.311655</dc:date>
    <dc:format>image/svg+xml</dc:format>
    <dc:creator>
     <cc:Agent>
      <dc:title>Matplotlib v3.4.3, https://matplotlib.org/</dc:title>
     </cc:Agent>
    </dc:creator>
   </cc:Work>
  </rdf:RDF>
 </metadata>
 <defs>
  <style type="text/css">*{stroke-linecap:butt;stroke-linejoin:round;}</style>
 </defs>
 <g id="figure_1">
  <g id="patch_1">
   <path d="M 0 720 
L 720 720 
L 720 0 
L 0 0 
z
" style="fill:none;"/>
  </g>
  <g id="axes_1">
   <g id="patch_2">
    <path d="M 90 630 
L 648 630 
L 648 86.4 
L 90 86.4 
z
" style="fill:#ffffff;"/>
   </g>
   <g id="PathCollection_1">
    <defs>
     <path d="M 0.972304 -8.870829 
Q -1.277159 -8.870829 -2.413438 -6.653699 
Q -3.545098 -4.441189 -3.545098 0.006929 
Q -3.545098 4.436569 -2.413438 6.653699 
Q -1.277159 8.870829 0.972304 8.870829 
Q 3.240243 8.870829 4.371903 6.653699 
Q 5.508182 4.436569 5.508182 0.006929 
Q 5.508182 -4.441189 4.371903 -6.653699 
Q 3.240243 -8.870829 0.972304 -8.870829 
z
M 0.972304 -11.18034 
Q 4.598235 -11.18034 6.51051 -8.311928 
Q 8.422784 -5.448135 8.422784 0.006929 
Q 8.422784 5.448135 6.51051 8.316547 
Q 4.598235 11.18034 0.972304 11.18034 
Q -2.649008 11.18034 -4.561283 8.316547 
Q -6.473558 5.448135 -6.473558 0.006929 
Q -6.473558 -5.448135 -4.561283 -8.311928 
Q -2.649008 -11.18034 0.972304 -11.18034 
z
" id="mfaa96026aa" style="stroke:#808080;"/>
    </defs>
    <g clip-path="url(#p237c256e28)">
     <use style="fill:#808080;stroke:#808080;" x="389.768857" xlink:href="#mfaa96026aa" y="436.179922"/>
    </g>
   </g>
   <g id="PathCollection_2">
    <defs>
     <path d="M -4.535873 8.63565 
L 0.404946 8.63565 
L 0.404946 -8.424791 
L -4.971969 -7.346533 
L -4.971969 -10.102082 
L 0.376192 -11.18034 
L 3.400108 -11.18034 
L 3.400108 8.63565 
L 8.340927 8.63565 
L 8.340927 11.18034 
L -4.535873 11.18034 
L -4.535873 8.63565 
z
" id="mb33f74cd25" style="stroke:#808080;"/>
    </defs>
    <g clip-path="url(#p237c256e28)">
     <use style="fill:#808080;stroke:#808080;" x="262.39693" xlink:href="#mb33f74cd25" y="319.985141"/>
    </g>
   </g>
   <g id="PathCollection_3">
    <defs>
     <path d="M -2.294912 8.680651 
L 8.075736 8.680651 
L 8.075736 11.18034 
L -5.867913 11.18034 
L -5.867913 8.680651 
Q -4.177916 6.929457 -1.259259 3.982555 
Q 1.664105 1.030945 2.4126 0.174178 
Q 3.838976 -1.426376 4.403877 -2.537349 
Q 4.973486 -3.648321 4.973486 -4.721634 
Q 4.973486 -6.472828 3.744825 -7.574386 
Q 2.516165 -8.680651 0.543718 -8.680651 
Q -0.854413 -8.680651 -2.407892 -8.195778 
Q -3.956663 -7.710904 -5.72198 -6.722326 
L -5.72198 -9.725719 
Q -3.928418 -10.445968 -2.370232 -10.813154 
Q -0.807338 -11.18034 0.487227 -11.18034 
Q 3.900173 -11.18034 5.929111 -9.471513 
Q 7.958048 -7.767394 7.958048 -4.914642 
Q 7.958048 -3.558879 7.449637 -2.344341 
Q 6.945933 -1.13451 5.604292 0.513119 
Q 5.237107 0.941502 3.264659 2.979855 
Q 1.296919 5.018207 -2.294912 8.680651 
z
" id="m19219e0dcc" style="stroke:#808080;"/>
    </defs>
    <g clip-path="url(#p237c256e28)">
     <use style="fill:#808080;stroke:#808080;" x="225.276266" xlink:href="#m19219e0dcc" y="164.739829"/>
    </g>
   </g>
   <g id="PathCollection_4">
    <defs>
     <path d="M 3.77605 -0.861447 
Q 5.868466 -0.413402 7.041697 1.004637 
Q 8.219548 2.418057 8.219548 4.496617 
Q 8.219548 7.683741 6.025513 9.43435 
Q 3.831478 11.18034 -0.210165 11.18034 
Q -1.563539 11.18034 -3.000054 10.912437 
Q -4.436569 10.644533 -5.965465 10.108727 
L -5.965465 7.295743 
Q -4.755282 8.002454 -3.314147 8.362737 
Q -1.868394 8.723021 -0.293308 8.723021 
Q 2.445772 8.723021 3.882287 7.64217 
Q 5.318802 6.561319 5.318802 4.496617 
Q 5.318802 2.588961 3.983905 1.517348 
Q 2.649008 0.441116 0.270213 0.441116 
L -2.242535 0.441116 
L -2.242535 -1.956155 
L 0.385688 -1.956155 
Q 2.533533 -1.956155 3.674431 -2.815293 
Q 4.815329 -3.674431 4.815329 -5.291088 
Q 4.815329 -6.949317 3.637479 -7.836169 
Q 2.464248 -8.72764 0.270213 -8.72764 
Q -0.930733 -8.72764 -2.302582 -8.464356 
Q -3.674431 -8.20569 -5.318802 -7.660646 
L -5.318802 -10.256536 
Q -3.655955 -10.718438 -2.205582 -10.949389 
Q -0.75521 -11.18034 0.528878 -11.18034 
Q 3.849954 -11.18034 5.780705 -9.66992 
Q 7.716074 -8.164119 7.716074 -5.595944 
Q 7.716074 -3.803764 6.690652 -2.570485 
Q 5.665229 -1.337207 3.77605 -0.861447 
z
" id="m8a2e5bde49" style="stroke:#808080;"/>
    </defs>
    <g clip-path="url(#p237c256e28)">
     <use style="fill:#808080;stroke:#808080;" x="228.064695" xlink:href="#m8a2e5bde49" y="161.164757"/>
    </g>
   </g>
   <g id="PathCollection_5">
    <defs>
     <path d="M 2.695646 -8.544598 
L -4.943215 3.392919 
L 2.695646 3.392919 
L 2.695646 -8.544598 
z
M 1.900131 -11.18034 
L 5.705184 -11.18034 
L 5.705184 3.392919 
L 8.896829 3.392919 
L 8.896829 5.908855 
L 5.705184 5.908855 
L 5.705184 11.18034 
L 2.695646 11.18034 
L 2.695646 5.908855 
L -7.396852 5.908855 
L -7.396852 2.99037 
L 1.900131 -11.18034 
z
" id="mdc5903c100" style="stroke:#808080;"/>
    </defs>
    <g clip-path="url(#p237c256e28)">
     <use style="fill:#808080;stroke:#808080;" x="342.451143" xlink:href="#mdc5903c100" y="155.175794"/>
    </g>
   </g>
   <g id="PathCollection_6">
    <defs>
     <path d="M -5.008473 -11.18034 
L 6.639575 -11.18034 
L 6.639575 -8.679629 
L -2.291535 -8.679629 
L -2.291535 -3.306861 
Q -1.647555 -3.527789 -1.003575 -3.635902 
Q -0.354894 -3.744015 0.293787 -3.744015 
Q 3.964943 -3.744015 6.108409 -1.732165 
Q 8.256576 0.279685 8.256576 3.715812 
Q 8.256576 7.255352 6.052002 9.220196 
Q 3.847428 11.18034 -0.16217 11.18034 
Q -1.544142 11.18034 -2.97782 10.945311 
Q -4.406798 10.710281 -5.934488 10.240223 
L -5.934488 7.255352 
Q -4.613624 7.974541 -3.203448 8.327085 
Q -1.793273 8.679629 -0.223278 8.679629 
Q 2.319738 8.679629 3.800422 7.344663 
Q 5.285807 6.009697 5.285807 3.715812 
Q 5.285807 1.426627 3.800422 0.091661 
Q 2.319738 -1.248005 -0.223278 -1.248005 
Q -1.412526 -1.248005 -2.597073 -0.984772 
Q -3.77692 -0.72154 -5.008473 -0.16217 
L -5.008473 -11.18034 
z
" id="me7ee22dcaf" style="stroke:#808080;"/>
    </defs>
    <g clip-path="url(#p237c256e28)">
     <use style="fill:#808080;stroke:#808080;" x="353.92293" xlink:href="#me7ee22dcaf" y="297.571497"/>
    </g>
   </g>
   <g id="PathCollection_7">
    <defs>
     <path d="M 1.286397 -1.175541 
Q -0.676687 -1.175541 -1.826823 0.168594 
Q -2.97234 1.50811 -2.97234 3.845335 
Q -2.97234 6.168702 -1.826823 7.522075 
Q -0.676687 8.870829 1.286397 8.870829 
Q 3.249481 8.870829 4.394998 7.522075 
Q 5.540515 6.168702 5.540515 3.845335 
Q 5.540515 1.50811 4.394998 0.168594 
Q 3.249481 -1.175541 1.286397 -1.175541 
z
M 7.07403 -10.316583 
L 7.07403 -7.660646 
Q 5.974703 -8.177976 4.8569 -8.450499 
Q 3.739097 -8.72764 2.63977 -8.72764 
Q -0.247118 -8.72764 -1.771394 -6.778413 
Q -3.291052 -4.829186 -3.508146 -0.889162 
Q -2.658246 -2.145535 -1.374159 -2.815293 
Q -0.085452 -3.485051 1.457301 -3.485051 
Q 4.704473 -3.485051 6.589033 -1.512729 
Q 8.473594 0.454974 8.473594 3.845335 
Q 8.473594 7.166411 6.51051 9.175685 
Q 4.547426 11.18034 1.286397 11.18034 
Q -2.45501 11.18034 -4.43195 8.316547 
Q -6.408891 5.448135 -6.408891 0.006929 
Q -6.408891 -5.101708 -3.983905 -8.141024 
Q -1.55892 -11.18034 2.524295 -11.18034 
Q 3.623622 -11.18034 4.741425 -10.963246 
Q 5.859228 -10.746152 7.07403 -10.316583 
z
" id="maf0ced34a5" style="stroke:#808080;"/>
    </defs>
    <g clip-path="url(#p237c256e28)">
     <use style="fill:#808080;stroke:#808080;" x="353.92293" xlink:href="#maf0ced34a5" y="297.571497"/>
    </g>
   </g>
   <g id="PathCollection_8">
    <defs>
     <path d="M -5.93042 -11.18034 
L 8.446356 -11.18034 
L 8.446356 -9.891222 
L 0.32827 11.18034 
L -2.829829 11.18034 
L 4.809032 -8.630858 
L -5.93042 -8.630858 
L -5.93042 -11.18034 
z
" id="m846e9c1151" style="stroke:#808080;"/>
    </defs>
    <g clip-path="url(#p237c256e28)">
     <use style="fill:#808080;stroke:#808080;" x="338.125385" xlink:href="#m846e9c1151" y="451.713587"/>
    </g>
   </g>
   <g id="PathCollection_9">
    <defs>
     <path d="M 1.002328 0.524259 
Q -1.076232 0.524259 -2.267939 1.637443 
Q -3.455028 2.750627 -3.455028 4.695235 
Q -3.455028 6.644461 -2.267939 7.757645 
Q -1.076232 8.870829 1.002328 8.870829 
Q 3.080887 8.870829 4.277213 7.753026 
Q 5.478159 6.630604 5.478159 4.695235 
Q 5.478159 2.750627 4.286451 1.637443 
Q 3.099363 0.524259 1.002328 0.524259 
z
M -1.912275 -0.713639 
Q -3.787597 -1.175541 -4.836115 -2.459629 
Q -5.880014 -3.748335 -5.880014 -5.595944 
Q -5.880014 -8.177976 -4.041643 -9.679158 
Q -2.198654 -11.18034 1.002328 -11.18034 
Q 4.221785 -11.18034 6.055536 -9.679158 
Q 7.889288 -8.177976 7.889288 -5.595944 
Q 7.889288 -3.748335 6.84077 -2.459629 
Q 5.796871 -1.175541 3.935406 -0.713639 
Q 6.041679 -0.224023 7.214911 1.207874 
Q 8.392761 2.635151 8.392761 4.695235 
Q 8.392761 7.83155 6.480486 9.508254 
Q 4.568212 11.18034 1.002328 11.18034 
Q -2.558938 11.18034 -4.475831 9.508254 
Q -6.388106 7.83155 -6.388106 4.695235 
Q -6.388106 2.635151 -5.205636 1.207874 
Q -4.018548 -0.224023 -1.912275 -0.713639 
z
M -2.979268 -5.318802 
Q -2.979268 -3.646717 -1.93537 -2.709056 
Q -0.886852 -1.771394 1.002328 -1.771394 
Q 2.882269 -1.771394 3.940025 -2.709056 
Q 5.0024 -3.646717 5.0024 -5.318802 
Q 5.0024 -6.995507 3.940025 -7.933168 
Q 2.882269 -8.870829 1.002328 -8.870829 
Q -0.886852 -8.870829 -1.93537 -7.933168 
Q -2.979268 -6.995507 -2.979268 -5.318802 
z
" id="md76655110d" style="stroke:#808080;"/>
    </defs>
    <g clip-path="url(#p237c256e28)">
     <use style="fill:#808080;stroke:#808080;" x="291.100029" xlink:href="#md76655110d" y="598.507854"/>
    </g>
   </g>
   <g id="PathCollection_10">
    <defs>
     <path d="M -5.117875 10.311964 
L -5.117875 7.656027 
Q -4.018548 8.177976 -2.896126 8.450499 
Q -1.769085 8.723021 -0.683615 8.723021 
Q 2.203273 8.723021 3.722931 6.783032 
Q 5.247208 4.843043 5.464302 0.884542 
Q 4.628259 2.127059 3.339552 2.792198 
Q 2.055464 3.457337 0.498854 3.457337 
Q -2.73446 3.457337 -4.619021 1.503491 
Q -6.503581 -0.454974 -6.503581 -3.849954 
Q -6.503581 -7.166411 -4.540497 -9.171066 
Q -2.577414 -11.18034 0.683615 -11.18034 
Q 4.425022 -11.18034 6.392725 -8.311928 
Q 8.365047 -5.448135 8.365047 0.006929 
Q 8.365047 5.101708 5.94468 8.141024 
Q 3.528932 11.18034 -0.554282 11.18034 
Q -1.653609 11.18034 -2.780651 10.963246 
Q -3.903073 10.746152 -5.117875 10.311964 
z
M 0.683615 1.175541 
Q 2.646699 1.175541 3.792216 -0.163975 
Q 4.942352 -1.50811 4.942352 -3.849954 
Q 4.942352 -6.173321 3.792216 -7.522075 
Q 2.646699 -8.870829 0.683615 -8.870829 
Q -1.279469 -8.870829 -2.424986 -7.522075 
Q -3.570503 -6.173321 -3.570503 -3.849954 
Q -3.570503 -1.50811 -2.424986 -0.163975 
Q -1.279469 1.175541 0.683615 1.175541 
z
" id="m8979917247" style="stroke:#808080;"/>
    </defs>
    <g clip-path="url(#p237c256e28)">
     <use style="fill:#808080;stroke:#808080;" x="291.100029" xlink:href="#m8979917247" y="598.507854"/>
    </g>
   </g>
   <g id="PathCollection_11">
    <defs>
     <path d="M -8.880215 5.210045 
L -5.893528 5.210045 
L -5.893528 -5.10286 
L -9.143831 -4.451061 
L -9.143831 -6.116769 
L -5.910909 -6.768568 
L -4.082976 -6.768568 
L -4.082976 5.210045 
L -1.096289 5.210045 
L -1.096289 6.74829 
L -8.880215 6.74829 
L -8.880215 5.210045 
z
M 6.507667 -5.563464 
Q 5.096885 -5.563464 4.384252 -4.17296 
Q 3.674515 -2.785353 3.674515 0.004345 
Q 3.674515 2.782456 4.384252 4.17296 
Q 5.096885 5.563464 6.507667 5.563464 
Q 7.930037 5.563464 8.639773 4.17296 
Q 9.352407 2.782456 9.352407 0.004345 
Q 9.352407 -2.785353 8.639773 -4.17296 
Q 7.930037 -5.563464 6.507667 -5.563464 
z
M 6.507667 -7.011906 
Q 8.781721 -7.011906 9.98103 -5.212941 
Q 11.18034 -3.416874 11.18034 0.004345 
Q 11.18034 3.416874 9.98103 5.215838 
Q 8.781721 7.011906 6.507667 7.011906 
Q 4.236511 7.011906 3.037201 5.215838 
Q 1.837891 3.416874 1.837891 0.004345 
Q 1.837891 -3.416874 3.037201 -5.212941 
Q 4.236511 -7.011906 6.507667 -7.011906 
z
" id="m5e1eebce2d" style="stroke:#808080;"/>
    </defs>
    <g clip-path="url(#p237c256e28)">
     <use style="fill:#808080;stroke:#808080;" x="418.348251" xlink:href="#m5e1eebce2d" y="570.248373"/>
    </g>
   </g>
   <g id="PathCollection_12">
    <defs>
     <path d="M -8.829662 5.334915 
L -5.777332 5.334915 
L -5.777332 -5.204651 
L -9.099072 -4.538526 
L -9.099072 -6.240844 
L -5.795096 -6.906968 
L -3.926987 -6.906968 
L -3.926987 5.334915 
L -0.874658 5.334915 
L -0.874658 6.906968 
L -8.829662 6.906968 
L -8.829662 5.334915 
z
M 3.225336 5.334915 
L 6.277666 5.334915 
L 6.277666 -5.204651 
L 2.955926 -4.538526 
L 2.955926 -6.240844 
L 6.259902 -6.906968 
L 8.128011 -6.906968 
L 8.128011 5.334915 
L 11.18034 5.334915 
L 11.18034 6.906968 
L 3.225336 6.906968 
L 3.225336 5.334915 
z
" id="m579c875c38" style="stroke:#808080;"/>
    </defs>
    <g clip-path="url(#p237c256e28)">
     <use style="fill:#808080;stroke:#808080;" x="421.88138" xlink:href="#m579c875c38" y="446.664444"/>
    </g>
   </g>
   <g id="PathCollection_13">
    <defs>
     <path d="M -8.813996 5.495639 
L -5.741326 5.495639 
L -5.741326 -5.114163 
L -9.085202 -4.4436 
L -9.085202 -6.157262 
L -5.759208 -6.827825 
L -3.87865 -6.827825 
L -3.87865 5.495639 
L -0.80598 5.495639 
L -0.80598 7.078169 
L -8.813996 7.078169 
L -8.813996 5.495639 
z
M 4.61478 5.495639 
L 11.18034 5.495639 
L 11.18034 7.078169 
L 2.352746 7.078169 
L 2.352746 5.495639 
Q 3.422667 4.386974 5.270442 2.521318 
Q 7.121196 0.652682 7.595061 0.11027 
Q 8.498087 -0.903025 8.85572 -1.606372 
Q 9.216334 -2.309718 9.216334 -2.989222 
Q 9.216334 -4.097887 8.438481 -4.795273 
Q 7.660627 -5.495639 6.411889 -5.495639 
Q 5.526746 -5.495639 4.543253 -5.18867 
Q 3.56274 -4.881701 2.445135 -4.255842 
L 2.445135 -6.157262 
Q 3.580622 -6.613245 4.567095 -6.845707 
Q 5.556549 -7.078169 6.376126 -7.078169 
Q 8.53683 -7.078169 9.821332 -5.996326 
Q 11.105833 -4.917465 11.105833 -3.111414 
Q 11.105833 -2.253093 10.783962 -1.48418 
Q 10.465072 -0.718248 9.615692 0.324851 
Q 9.38323 0.596056 8.134492 1.886518 
Q 6.888734 3.17698 4.61478 5.495639 
z
" id="m4035ca8abe" style="stroke:#808080;"/>
    </defs>
    <g clip-path="url(#p237c256e28)">
     <use style="fill:#808080;stroke:#808080;" x="526.878618" xlink:href="#m4035ca8abe" y="443.075611"/>
    </g>
   </g>
   <g id="matplotlib.axis_1">
    <g id="xtick_1">
     <g id="line2d_1">
      <defs>
       <path d="M 0 0 
L 0 3.5 
" id="m71cfac4a0f" style="stroke:#000000;stroke-width:0.8;"/>
      </defs>
      <g>
       <use style="stroke:#000000;stroke-width:0.8;" x="107.081633" xlink:href="#m71cfac4a0f" y="630"/>
      </g>
     </g>
     <g id="text_1">
      <!-- −600 -->
      <g transform="translate(93.348039 644.598438)scale(0.1 -0.1)">
       <defs>
        <path d="M 678 2272 
L 4684 2272 
L 4684 1741 
L 678 1741 
L 678 2272 
z
" id="DejaVuSans-2212" transform="scale(0.015625)"/>
        <path d="M 2113 2584 
Q 1688 2584 1439 2293 
Q 1191 2003 1191 1497 
Q 1191 994 1439 701 
Q 1688 409 2113 409 
Q 2538 409 2786 701 
Q 3034 994 3034 1497 
Q 3034 2003 2786 2293 
Q 2538 2584 2113 2584 
z
M 3366 4563 
L 3366 3988 
Q 3128 4100 2886 4159 
Q 2644 4219 2406 4219 
Q 1781 4219 1451 3797 
Q 1122 3375 1075 2522 
Q 1259 2794 1537 2939 
Q 1816 3084 2150 3084 
Q 2853 3084 3261 2657 
Q 3669 2231 3669 1497 
Q 3669 778 3244 343 
Q 2819 -91 2113 -91 
Q 1303 -91 875 529 
Q 447 1150 447 2328 
Q 447 3434 972 4092 
Q 1497 4750 2381 4750 
Q 2619 4750 2861 4703 
Q 3103 4656 3366 4563 
z
" id="DejaVuSans-36" transform="scale(0.015625)"/>
        <path d="M 2034 4250 
Q 1547 4250 1301 3770 
Q 1056 3291 1056 2328 
Q 1056 1369 1301 889 
Q 1547 409 2034 409 
Q 2525 409 2770 889 
Q 3016 1369 3016 2328 
Q 3016 3291 2770 3770 
Q 2525 4250 2034 4250 
z
M 2034 4750 
Q 2819 4750 3233 4129 
Q 3647 3509 3647 2328 
Q 3647 1150 3233 529 
Q 2819 -91 2034 -91 
Q 1250 -91 836 529 
Q 422 1150 422 2328 
Q 422 3509 836 4129 
Q 1250 4750 2034 4750 
z
" id="DejaVuSans-30" transform="scale(0.015625)"/>
       </defs>
       <use xlink:href="#DejaVuSans-2212"/>
       <use x="83.789062" xlink:href="#DejaVuSans-36"/>
       <use x="147.412109" xlink:href="#DejaVuSans-30"/>
       <use x="211.035156" xlink:href="#DejaVuSans-30"/>
      </g>
     </g>
    </g>
    <g id="xtick_2">
     <g id="line2d_2">
      <g>
       <use style="stroke:#000000;stroke-width:0.8;" x="220.959184" xlink:href="#m71cfac4a0f" y="630"/>
      </g>
     </g>
     <g id="text_2">
      <!-- −400 -->
      <g transform="translate(207.22559 644.598438)scale(0.1 -0.1)">
       <defs>
        <path d="M 2419 4116 
L 825 1625 
L 2419 1625 
L 2419 4116 
z
M 2253 4666 
L 3047 4666 
L 3047 1625 
L 3713 1625 
L 3713 1100 
L 3047 1100 
L 3047 0 
L 2419 0 
L 2419 1100 
L 313 1100 
L 313 1709 
L 2253 4666 
z
" id="DejaVuSans-34" transform="scale(0.015625)"/>
       </defs>
       <use xlink:href="#DejaVuSans-2212"/>
       <use x="83.789062" xlink:href="#DejaVuSans-34"/>
       <use x="147.412109" xlink:href="#DejaVuSans-30"/>
       <use x="211.035156" xlink:href="#DejaVuSans-30"/>
      </g>
     </g>
    </g>
    <g id="xtick_3">
     <g id="line2d_3">
      <g>
       <use style="stroke:#000000;stroke-width:0.8;" x="334.836735" xlink:href="#m71cfac4a0f" y="630"/>
      </g>
     </g>
     <g id="text_3">
      <!-- −200 -->
      <g transform="translate(321.103141 644.598438)scale(0.1 -0.1)">
       <defs>
        <path d="M 1228 531 
L 3431 531 
L 3431 0 
L 469 0 
L 469 531 
Q 828 903 1448 1529 
Q 2069 2156 2228 2338 
Q 2531 2678 2651 2914 
Q 2772 3150 2772 3378 
Q 2772 3750 2511 3984 
Q 2250 4219 1831 4219 
Q 1534 4219 1204 4116 
Q 875 4013 500 3803 
L 500 4441 
Q 881 4594 1212 4672 
Q 1544 4750 1819 4750 
Q 2544 4750 2975 4387 
Q 3406 4025 3406 3419 
Q 3406 3131 3298 2873 
Q 3191 2616 2906 2266 
Q 2828 2175 2409 1742 
Q 1991 1309 1228 531 
z
" id="DejaVuSans-32" transform="scale(0.015625)"/>
       </defs>
       <use xlink:href="#DejaVuSans-2212"/>
       <use x="83.789062" xlink:href="#DejaVuSans-32"/>
       <use x="147.412109" xlink:href="#DejaVuSans-30"/>
       <use x="211.035156" xlink:href="#DejaVuSans-30"/>
      </g>
     </g>
    </g>
    <g id="xtick_4">
     <g id="line2d_4">
      <g>
       <use style="stroke:#000000;stroke-width:0.8;" x="448.714286" xlink:href="#m71cfac4a0f" y="630"/>
      </g>
     </g>
     <g id="text_4">
      <!-- 0 -->
      <g transform="translate(445.533036 644.598438)scale(0.1 -0.1)">
       <use xlink:href="#DejaVuSans-30"/>
      </g>
     </g>
    </g>
    <g id="xtick_5">
     <g id="line2d_5">
      <g>
       <use style="stroke:#000000;stroke-width:0.8;" x="562.591837" xlink:href="#m71cfac4a0f" y="630"/>
      </g>
     </g>
     <g id="text_5">
      <!-- 200 -->
      <g transform="translate(553.048087 644.598438)scale(0.1 -0.1)">
       <use xlink:href="#DejaVuSans-32"/>
       <use x="63.623047" xlink:href="#DejaVuSans-30"/>
       <use x="127.246094" xlink:href="#DejaVuSans-30"/>
      </g>
     </g>
    </g>
   </g>
   <g id="matplotlib.axis_2">
    <g id="ytick_1">
     <g id="line2d_6">
      <defs>
       <path d="M 0 0 
L -3.5 0 
" id="m16180cbfbe" style="stroke:#000000;stroke-width:0.8;"/>
      </defs>
      <g>
       <use style="stroke:#000000;stroke-width:0.8;" x="90" xlink:href="#m16180cbfbe" y="602.265306"/>
      </g>
     </g>
     <g id="text_6">
      <!-- −400 -->
      <g transform="translate(55.532812 606.064525)scale(0.1 -0.1)">
       <use xlink:href="#DejaVuSans-2212"/>
       <use x="83.789062" xlink:href="#DejaVuSans-34"/>
       <use x="147.412109" xlink:href="#DejaVuSans-30"/>
       <use x="211.035156" xlink:href="#DejaVuSans-30"/>
      </g>
     </g>
    </g>
    <g id="ytick_2">
     <g id="line2d_7">
      <g>
       <use style="stroke:#000000;stroke-width:0.8;" x="90" xlink:href="#m16180cbfbe" y="491.326531"/>
      </g>
     </g>
     <g id="text_7">
      <!-- −200 -->
      <g transform="translate(55.532812 495.125749)scale(0.1 -0.1)">
       <use xlink:href="#DejaVuSans-2212"/>
       <use x="83.789062" xlink:href="#DejaVuSans-32"/>
       <use x="147.412109" xlink:href="#DejaVuSans-30"/>
       <use x="211.035156" xlink:href="#DejaVuSans-30"/>
      </g>
     </g>
    </g>
    <g id="ytick_3">
     <g id="line2d_8">
      <g>
       <use style="stroke:#000000;stroke-width:0.8;" x="90" xlink:href="#m16180cbfbe" y="380.387755"/>
      </g>
     </g>
     <g id="text_8">
      <!-- 0 -->
      <g transform="translate(76.6375 384.186974)scale(0.1 -0.1)">
       <use xlink:href="#DejaVuSans-30"/>
      </g>
     </g>
    </g>
    <g id="ytick_4">
     <g id="line2d_9">
      <g>
       <use style="stroke:#000000;stroke-width:0.8;" x="90" xlink:href="#m16180cbfbe" y="269.44898"/>
      </g>
     </g>
     <g id="text_9">
      <!-- 200 -->
      <g transform="translate(63.9125 273.248198)scale(0.1 -0.1)">
       <use xlink:href="#DejaVuSans-32"/>
       <use x="63.623047" xlink:href="#DejaVuSans-30"/>
       <use x="127.246094" xlink:href="#DejaVuSans-30"/>
      </g>
     </g>
    </g>
    <g id="ytick_5">
     <g id="line2d_10">
      <g>
       <use style="stroke:#000000;stroke-width:0.8;" x="90" xlink:href="#m16180cbfbe" y="158.510204"/>
      </g>
     </g>
     <g id="text_10">
      <!-- 400 -->
      <g transform="translate(63.9125 162.309423)scale(0.1 -0.1)">
       <use xlink:href="#DejaVuSans-34"/>
       <use x="63.623047" xlink:href="#DejaVuSans-30"/>
       <use x="127.246094" xlink:href="#DejaVuSans-30"/>
      </g>
     </g>
    </g>
   </g>
   <g id="line2d_11">
    <path clip-path="url(#p237c256e28)" d="M 526.878618 443.075611 
L 527.256702 447.550535 
L 527.310111 452.040318 
L 526.96491 456.517262 
L 526.129331 460.930994 
L 524.699329 465.195053 
L 522.581052 469.175244 
L 519.736595 472.69826 
L 516.230002 475.601734 
L 512.219364 477.803662 
L 507.888403 479.324948 
L 503.38478 480.251008 
L 498.804381 480.68328 
L 494.202908 480.712977 
L 489.611071 480.413889 
L 485.045326 479.843511 
L 480.514201 479.046295 
L 476.021814 478.0568 
L 471.569814 476.902185 
L 467.158469 475.604065 
L 462.787272 474.179862 
L 458.455301 472.643795 
L 454.161425 471.007599 
L 449.904427 469.281061 
L 445.683075 467.47242 
L 441.496166 465.588678 
L 437.342548 463.635824 
L 433.221133 461.619025 
L 429.130904 459.542761 
L 425.070916 457.410944 
L 421.040295 455.227006 
L 417.038236 452.993971 
L 413.064 450.714517 
L 409.116908 448.391024 
L 405.196344 446.025612 
L 401.301743 443.62018 
L 397.432595 441.176427 
L 393.588438 438.695883 
L 389.768857 436.179922 
" style="fill:none;stroke:#808080;stroke-linecap:square;stroke-width:1.5;"/>
   </g>
   <g id="line2d_12">
    <path clip-path="url(#p237c256e28)" d="M 389.768857 480.712977 
L 389.768857 436.179922 
L 527.310111 436.179922 
L 527.310111 480.712977 
L 389.768857 480.712977 
" style="fill:none;stroke:#d3d3d3;stroke-linecap:square;stroke-width:0.5;"/>
   </g>
   <g id="line2d_13">
    <path clip-path="url(#p237c256e28)" d="M 389.768857 436.179922 
L 385.973479 433.629785 
L 382.201974 431.046592 
L 378.45405 428.431351 
L 374.729454 425.784978 
L 371.027968 423.108295 
L 367.349409 420.402046 
L 363.693627 417.666903 
L 360.060506 414.903468 
L 356.44996 412.112282 
L 352.861937 409.29383 
L 349.296413 406.448543 
L 345.753397 403.576801 
L 342.232928 400.67894 
L 338.735077 397.755252 
L 335.259945 394.805986 
L 331.807665 391.831354 
L 328.378403 388.83153 
L 324.972356 385.806654 
L 321.58976 382.756829 
L 318.23088 379.682128 
L 314.896023 376.582591 
L 311.58553 373.458226 
L 308.299786 370.309014 
L 305.039214 367.134901 
L 301.804284 363.93581 
L 298.595511 360.711629 
L 295.41346 357.462222 
L 292.258748 354.187421 
L 289.132049 350.887031 
L 286.034097 347.560827 
L 282.965688 344.208555 
L 279.927688 340.829933 
L 276.921038 337.424647 
L 273.946758 333.992353 
L 271.005955 330.532678 
L 268.099829 327.045215 
L 265.229682 323.529526 
L 262.39693 319.985141 
" style="fill:none;stroke:#808080;stroke-linecap:square;stroke-width:1.5;"/>
   </g>
   <g id="line2d_14">
    <path clip-path="url(#p237c256e28)" d="M 262.39693 436.179922 
L 262.39693 319.985141 
L 389.768857 319.985141 
L 389.768857 436.179922 
L 262.39693 436.179922 
" style="fill:none;stroke:#d3d3d3;stroke-linecap:square;stroke-width:0.5;"/>
   </g>
   <g id="line2d_15">
    <path clip-path="url(#p237c256e28)" d="M 262.39693 319.985141 
L 259.603107 316.411555 
L 256.84988 312.808232 
L 254.139064 309.174599 
L 251.472633 305.51005 
L 248.852735 301.813947 
L 246.281717 298.085615 
L 243.762139 294.32435 
L 241.296798 290.529417 
L 238.88876 286.700053 
L 236.541383 282.835475 
L 234.258353 278.934882 
L 232.043724 274.997468 
L 229.901958 271.022433 
L 227.837973 267.008999 
L 225.857196 262.956433 
L 223.965624 258.864078 
L 222.169885 254.731391 
L 220.477308 250.557995 
L 218.895995 246.343742 
L 217.434895 242.088804 
L 216.10387 237.793774 
L 214.913754 233.459807 
L 213.876389 229.088783 
L 213.004624 224.683506 
L 212.312257 220.247942 
L 211.813902 215.787474 
L 211.524734 211.309178 
L 211.460106 206.82208 
L 211.634995 202.33735 
L 212.06329 197.868394 
L 212.756933 193.430757 
L 213.724997 189.041788 
L 214.972808 184.72005 
L 216.501261 180.484472 
L 218.306464 176.353353 
L 220.379808 172.343334 
L 222.708471 168.468515 
L 225.276266 164.739829 
" style="fill:none;stroke:#808080;stroke-linecap:square;stroke-width:1.5;"/>
   </g>
   <g id="line2d_16">
    <path clip-path="url(#p237c256e28)" d="M 211.460106 319.985141 
L 211.460106 164.739829 
L 262.39693 164.739829 
L 262.39693 319.985141 
L 211.460106 319.985141 
" style="fill:none;stroke:#d3d3d3;stroke-linecap:square;stroke-width:0.5;"/>
   </g>
   <g id="line2d_17">
    <path clip-path="url(#p237c256e28)" d="M 225.276266 164.739829 
L 228.064695 161.164757 
" style="fill:none;stroke:#808080;stroke-linecap:square;stroke-width:1.5;"/>
   </g>
   <g id="line2d_18">
    <path clip-path="url(#p237c256e28)" d="M 225.276266 164.739829 
L 225.276266 161.164757 
L 228.064695 161.164757 
L 228.064695 164.739829 
L 225.276266 164.739829 
" style="fill:none;stroke:#d3d3d3;stroke-linecap:square;stroke-width:0.5;"/>
   </g>
   <g id="line2d_19">
    <path clip-path="url(#p237c256e28)" d="M 228.064695 161.164757 
L 230.991785 157.665679 
L 233.96138 154.200195 
L 236.977573 150.772678 
L 240.045005 147.388321 
L 243.168972 144.053321 
L 246.355538 140.775133 
L 249.611676 137.562799 
L 252.945414 134.427397 
L 256.365992 131.382648 
L 259.883984 128.445746 
L 263.511353 125.63849 
L 267.261301 122.988811 
L 271.147705 120.532786 
L 275.183713 118.317099 
L 279.378866 116.401606 
L 283.733862 114.860797 
L 288.232566 113.781526 
L 292.832944 113.25288 
L 297.462872 113.345808 
L 302.029049 114.088564 
L 306.439688 115.453953 
L 310.627724 117.369509 
L 314.559952 119.742412 
L 318.231507 122.48192 
L 321.654768 125.510924 
L 324.849864 128.768489 
L 327.838801 132.208022 
L 330.642518 135.794245 
L 333.279695 139.50038 
L 335.766477 143.305906 
L 338.116581 147.194902 
L 340.341569 151.154855 
L 342.451143 155.175794 
" style="fill:none;stroke:#808080;stroke-linecap:square;stroke-width:1.5;"/>
   </g>
   <g id="line2d_20">
    <path clip-path="url(#p237c256e28)" d="M 228.064695 161.164757 
L 228.064695 113.25288 
L 342.451143 113.25288 
L 342.451143 161.164757 
L 228.064695 161.164757 
" style="fill:none;stroke:#d3d3d3;stroke-linecap:square;stroke-width:0.5;"/>
   </g>
   <g id="line2d_21">
    <path clip-path="url(#p237c256e28)" d="M 342.451143 155.175794 
L 344.45342 159.249682 
L 346.355179 163.369962 
L 348.162058 167.531233 
L 349.87872 171.729006 
L 351.508986 175.959518 
L 353.055939 180.219595 
L 354.522007 184.506541 
L 355.909023 188.818055 
L 357.218271 193.152157 
L 358.450519 197.507134 
L 359.606031 201.881494 
L 360.684573 206.273917 
L 361.685407 210.683222 
L 362.607262 215.108332 
L 363.448305 219.548231 
L 364.206078 224.001932 
L 364.877431 228.46843 
L 365.458419 232.946656 
L 365.944169 237.435412 
L 366.328704 241.933295 
L 366.604716 246.438589 
L 366.763252 250.949123 
L 366.793295 255.462058 
L 366.681194 259.973579 
L 366.409871 264.478424 
L 365.957697 268.969131 
L 365.296905 273.434809 
L 364.391312 277.859032 
L 363.193115 282.216129 
L 361.638673 286.464402 
L 359.644197 290.533621 
L 357.106216 294.303085 
L 353.92293 297.571497 
" style="fill:none;stroke:#808080;stroke-linecap:square;stroke-width:1.5;"/>
   </g>
   <g id="line2d_22">
    <path clip-path="url(#p237c256e28)" d="M 342.451143 297.571497 
L 342.451143 155.175794 
L 366.793295 155.175794 
L 366.793295 297.571497 
L 342.451143 297.571497 
" style="fill:none;stroke:#d3d3d3;stroke-linecap:square;stroke-width:0.5;"/>
   </g>
   <g id="line2d_23">
    <path clip-path="url(#p237c256e28)" d="M 353.92293 297.571497 
" style="fill:none;stroke:#808080;stroke-linecap:square;stroke-width:1.5;"/>
   </g>
   <g id="line2d_24">
    <path clip-path="url(#p237c256e28)" d="M 353.92293 297.571497 
L 353.92293 297.571497 
L 353.92293 297.571497 
L 353.92293 297.571497 
L 353.92293 297.571497 
" style="fill:none;stroke:#d3d3d3;stroke-linecap:square;stroke-width:0.5;"/>
   </g>
   <g id="line2d_25">
    <path clip-path="url(#p237c256e28)" d="M 353.92293 297.571497 
L 350.868534 300.922381 
L 348.526639 304.78957 
L 346.663626 308.898617 
L 345.137424 313.137176 
L 343.86145 317.452377 
L 342.779886 321.816362 
L 341.85472 326.213182 
L 341.058849 330.633124 
L 340.372203 335.069965 
L 339.779441 339.519549 
L 339.268526 343.978988 
L 338.829782 348.446204 
L 338.455279 352.919646 
L 338.138385 357.398119 
L 337.873465 361.880674 
L 337.655648 366.366531 
L 337.480656 370.85504 
L 337.344675 375.345644 
L 337.244251 379.83786 
L 337.176209 384.331266 
L 337.137586 388.82549 
L 337.125571 393.320205 
L 337.137461 397.815126 
L 337.17061 402.310004 
L 337.222397 406.804627 
L 337.290179 411.298818 
L 337.371262 415.792433 
L 337.462854 420.285362 
L 337.562035 424.777527 
L 337.66571 429.268879 
L 337.770567 433.759399 
L 337.873036 438.249095 
L 337.96923 442.737995 
L 338.054903 447.226143 
L 338.125385 451.713587 
" style="fill:none;stroke:#808080;stroke-linecap:square;stroke-width:1.5;"/>
   </g>
   <g id="line2d_26">
    <path clip-path="url(#p237c256e28)" d="M 337.125571 451.713587 
L 337.125571 297.571497 
L 353.92293 297.571497 
L 353.92293 451.713587 
L 337.125571 451.713587 
" style="fill:none;stroke:#d3d3d3;stroke-linecap:square;stroke-width:0.5;"/>
   </g>
   <g id="line2d_27">
    <path clip-path="url(#p237c256e28)" d="M 338.125385 451.713587 
L 338.175531 456.200373 
L 338.19966 460.686518 
L 338.191502 465.171992 
L 338.144154 469.656686 
L 338.050047 474.140362 
L 337.900943 478.622608 
L 337.687968 483.102767 
L 337.401701 487.579855 
L 337.032325 492.052482 
L 336.569877 496.518757 
L 336.004574 500.976212 
L 335.327243 505.421758 
L 334.529807 509.851679 
L 333.6058 514.261708 
L 332.550824 518.647185 
L 331.362894 523.003294 
L 330.042583 527.32537 
L 328.592942 531.609223 
L 327.019199 535.851439 
L 325.32829 540.049603 
L 323.5283 544.202412 
L 321.627914 548.309678 
L 319.635933 552.37222 
L 317.560898 556.391693 
L 315.410849 560.370376 
L 313.193181 564.310951 
L 310.9146 568.216305 
L 308.581133 572.089364 
L 306.198178 575.932962 
L 303.770565 579.749754 
L 301.302629 583.542164 
L 298.798268 587.312364 
L 296.260992 591.062278 
L 293.693965 594.793604 
L 291.100029 598.507854 
" style="fill:none;stroke:#808080;stroke-linecap:square;stroke-width:1.5;"/>
   </g>
   <g id="line2d_28">
    <path clip-path="url(#p237c256e28)" d="M 291.100029 598.507854 
L 291.100029 451.713587 
L 338.19966 451.713587 
L 338.19966 598.507854 
L 291.100029 598.507854 
" style="fill:none;stroke:#d3d3d3;stroke-linecap:square;stroke-width:0.5;"/>
   </g>
   <g id="line2d_29">
    <path clip-path="url(#p237c256e28)" d="M 291.100029 598.507854 
" style="fill:none;stroke:#808080;stroke-linecap:square;stroke-width:1.5;"/>
   </g>
   <g id="line2d_30">
    <path clip-path="url(#p237c256e28)" d="M 291.100029 598.507854 
L 291.100029 598.507854 
L 291.100029 598.507854 
L 291.100029 598.507854 
L 291.100029 598.507854 
" style="fill:none;stroke:#d3d3d3;stroke-linecap:square;stroke-width:0.5;"/>
   </g>
   <g id="line2d_31">
    <path clip-path="url(#p237c256e28)" d="M 291.100029 598.507854 
L 288.864889 602.447389 
L 288.072686 606.844894 
L 290.194803 610.731458 
L 294.266062 612.828852 
L 298.80638 613.760835 
L 303.444684 614.057717 
L 308.090415 613.956829 
L 312.716443 613.577547 
L 317.314419 612.987704 
L 321.882318 612.229408 
L 326.420279 611.330546 
L 330.929088 610.310496 
L 335.409595 609.183215 
L 339.862495 607.959022 
L 344.28826 606.645684 
L 348.687116 605.249109 
L 353.059051 603.773796 
L 357.403821 602.223145 
L 361.720957 600.59967 
L 366.009768 598.905148 
L 370.269333 597.140725 
L 374.498497 595.306985 
L 378.695845 593.404008 
L 382.859688 591.431394 
L 386.98802 589.388286 
L 391.078485 587.273375 
L 395.12832 585.084897 
L 399.134292 582.820619 
L 403.092617 580.477822 
L 406.998862 578.053269 
L 410.847821 575.543184 
L 414.633363 572.943207 
L 418.348251 570.248373 
" style="fill:none;stroke:#808080;stroke-linecap:square;stroke-width:1.5;"/>
   </g>
   <g id="line2d_32">
    <path clip-path="url(#p237c256e28)" d="M 288.072686 614.057717 
L 288.072686 570.248373 
L 418.348251 570.248373 
L 418.348251 614.057717 
L 288.072686 614.057717 
" style="fill:none;stroke:#d3d3d3;stroke-linecap:square;stroke-width:0.5;"/>
   </g>
   <g id="line2d_33">
    <path clip-path="url(#p237c256e28)" d="M 418.348251 570.248373 
L 421.983909 567.453084 
L 425.530149 564.551106 
L 428.974835 561.535604 
L 432.303492 558.399231 
L 435.498867 555.134325 
L 438.540464 551.733252 
L 441.404122 548.188971 
L 444.061752 544.495894 
L 446.481445 540.65109 
L 448.628227 536.655823 
L 450.465792 532.517229 
L 451.95941 528.249727 
L 453.079858 523.875538 
L 453.807602 519.423695 
L 454.136 514.9274 
L 454.072351 510.420295 
L 453.6364 505.932776 
L 452.856937 501.489426 
L 451.767748 497.10799 
L 450.40399 492.799695 
L 448.799588 488.570344 
L 446.985699 484.421669 
L 444.990028 480.352582 
L 442.836701 476.360194 
L 440.546467 472.440569 
L 438.137039 468.589246 
L 435.623488 464.801586 
L 433.018626 461.072988 
L 430.333349 457.399024 
L 427.576947 453.775503 
L 424.757355 450.198517 
L 421.88138 446.664444 
" style="fill:none;stroke:#808080;stroke-linecap:square;stroke-width:1.5;"/>
   </g>
   <g id="line2d_34">
    <path clip-path="url(#p237c256e28)" d="M 418.348251 570.248373 
L 418.348251 446.664444 
L 454.136 446.664444 
L 454.136 570.248373 
L 418.348251 570.248373 
" style="fill:none;stroke:#d3d3d3;stroke-linecap:square;stroke-width:0.5;"/>
   </g>
   <g id="line2d_35">
    <path clip-path="url(#p237c256e28)" d="M 421.88138 446.664444 
L 419.067209 443.05815 
L 416.4628 439.305252 
L 414.078321 435.416059 
L 411.922928 431.401932 
L 410.004677 427.27514 
L 408.330471 423.048696 
L 406.906052 418.736189 
L 405.736032 414.351636 
L 404.82396 409.909334 
L 404.172418 405.423748 
L 403.783142 400.909429 
L 403.657153 396.38096 
L 403.794895 391.852947 
L 404.196377 387.340045 
L 404.861306 382.857023 
L 405.789202 378.418871 
L 406.9795 374.040943 
L 408.431631 369.739152 
L 410.145058 365.530195 
L 412.119286 361.431839 
L 414.353805 357.463242 
L 416.847965 353.645334 
L 419.600746 350.001239 
L 422.610397 346.556721 
L 425.873883 343.34064 
L 429.386102 340.385328 
L 433.138798 337.726789 
L 437.119157 335.404541 
L 441.308105 333.460825 
L 445.678487 331.938871 
L 450.193521 330.879941 
L 454.806164 330.319088 
L 459.460189 330.280103 
L 464.09352 330.77081 
L 468.643645 331.7803 
L 473.053889 333.279417 
L 477.278717 335.224607 
L 481.286567 337.563883 
L 485.059852 340.242956 
L 488.592841 343.210034 
L 491.888588 346.418685 
L 494.9559 349.828975 
L 497.806851 353.407444 
L 500.455007 357.126468 
L 502.91426 360.96339 
L 505.198137 364.899648 
L 507.319424 368.92 
L 509.289993 373.011872 
L 511.120751 377.164836 
L 512.821662 381.370189 
L 514.401796 385.620624 
L 515.869402 389.909968 
L 517.231978 394.232979 
L 518.496352 398.58518 
L 519.668743 402.96273 
L 520.754829 407.362319 
L 521.759802 411.781083 
L 522.688419 416.216535 
L 523.545049 420.66651 
L 524.333709 425.129114 
L 525.058102 429.602693 
L 525.721647 434.085794 
L 526.327508 438.57714 
L 526.878618 443.075611 
" style="fill:none;stroke:#808080;stroke-linecap:square;stroke-width:1.5;"/>
   </g>
   <g id="line2d_36">
    <path clip-path="url(#p237c256e28)" d="M 403.657153 446.664444 
L 403.657153 330.280103 
L 526.878618 330.280103 
L 526.878618 446.664444 
L 403.657153 446.664444 
" style="fill:none;stroke:#d3d3d3;stroke-linecap:square;stroke-width:0.5;"/>
   </g>
   <g id="line2d_37">
    <path clip-path="url(#p237c256e28)" d="M 348.851494 420.394488 
L 349.050521 429.016648 
L 349.155409 433.508458 
L 349.25811 438.008393 
L 349.354732 442.517301 
L 349.440989 447.036178 
L 349.512135 451.56616 
L 349.562896 456.10852 
L 349.587393 460.664636 
L 349.579068 465.235962 
L 349.530615 469.823954 
L 349.433921 474.429984 
L 349.280037 479.055203 
L 349.05919 483.70036 
L 348.760859 488.365573 
L 348.373948 493.05005 
L 347.887075 497.751793 
L 347.289 502.467301 
L 346.569191 507.191355 
L 345.718494 511.916938 
L 344.729839 516.635367 
L 343.598867 521.336683 
L 342.324354 526.010279 
L 340.908336 530.645693 
L 339.355889 535.233423 
L 337.674605 539.765624 
L 335.873864 544.236577 
L 333.964049 548.642865 
L 331.955827 552.983287 
L 329.859573 557.25857 
L 327.684977 561.470971 
L 325.440829 565.623841 
L 323.134944 569.721218 
L 320.774177 573.767474 
L 318.364508 577.767045 
L 315.911146 581.72423 
L 313.418648 585.643058 
L 310.891016 589.527219 
L 308.33179 593.380027 
L 305.744119 597.204433 
L 303.130806 601.003047 
L 301.731184 603.007166 
" style="fill:none;stroke:#000000;stroke-linecap:square;stroke-width:3;"/>
   </g>
   <g id="line2d_38">
    <path clip-path="url(#p237c256e28)" d="M 301.731184 603.007166 
L 301.731184 420.394488 
L 349.587393 420.394488 
L 349.587393 603.007166 
L 301.731184 603.007166 
" style="fill:none;stroke:#d3d3d3;stroke-linecap:square;stroke-width:0.5;"/>
   </g>
   <g id="line2d_39">
    <path clip-path="url(#p237c256e28)" d="M 425.845366 470.384222 
L 423.79679 469.344339 
L 419.600487 467.140957 
L 415.441653 464.887557 
L 411.318538 462.586984 
L 407.229596 460.241747 
L 403.173453 457.854065 
L 399.148889 455.425912 
L 395.154815 452.959046 
L 391.190261 450.455038 
L 387.254357 447.915294 
L 383.346329 445.341077 
L 379.465486 442.733518 
L 375.61121 440.093635 
L 371.782953 437.422341 
L 367.980229 434.720458 
L 364.20261 431.988723 
L 360.449722 429.227793 
L 356.72124 426.438259 
L 353.016886 423.620643 
L 349.336426 420.775411 
L 348.851494 420.394488 
" style="fill:none;stroke:#000000;stroke-linecap:square;stroke-width:3;"/>
   </g>
   <g id="line2d_40">
    <path clip-path="url(#p237c256e28)" d="M 348.851494 470.384222 
L 348.851494 420.394488 
L 425.845366 420.394488 
L 425.845366 470.384222 
L 348.851494 470.384222 
" style="fill:none;stroke:#d3d3d3;stroke-linecap:square;stroke-width:0.5;"/>
   </g>
   <g id="line2d_41">
    <path clip-path="url(#p237c256e28)" d="M 301.731184 603.007166 
L 307.450162 602.880499 
L 311.474046 602.54989 
L 315.600654 602.020171 
L 319.781834 601.325882 
L 323.991005 600.492031 
L 328.212319 599.536949 
L 332.435651 598.474323 
L 336.65411 597.314548 
L 340.862696 596.065634 
L 345.057553 594.733809 
L 349.235515 593.323939 
L 353.393829 591.839825 
L 357.529969 590.284409 
L 361.641503 588.659928 
L 365.725995 586.968024 
L 369.780932 585.20983 
L 373.803648 583.386031 
L 377.791262 581.496911 
L 381.740614 579.542389 
L 385.648192 577.522048 
L 389.510061 575.43516 
L 393.321774 573.280702 
L 397.078275 571.057382 
L 400.773786 568.763661 
L 404.401678 566.397783 
L 407.954315 563.957821 
L 411.422887 561.441733 
L 414.79721 558.847457 
L 418.065519 556.173027 
L 421.214254 553.416745 
L 424.227862 550.577411 
L 427.088667 547.654605 
L 429.776868 544.649026 
L 432.270756 541.562837 
L 434.547274 538.399927 
L 436.583018 535.16593 
L 438.355679 531.867812 
L 439.845739 528.512897 
L 441.038007 525.107456 
L 441.922462 521.655431 
L 442.494183 518.158177 
L 442.75274 514.615723 
L 442.701756 511.029087 
L 442.348994 507.402303 
L 441.70662 503.743034 
L 440.79103 500.061683 
L 439.621989 496.369744 
L 438.221294 492.678239 
L 436.611376 488.996686 
L 434.814146 485.332646 
L 432.850204 481.691699 
L 430.738391 478.077659 
L 428.495616 474.492885 
L 426.136854 470.938598 
L 423.675256 467.415161 
L 425.845366 470.384222 
" style="fill:none;stroke:#000000;stroke-linecap:square;stroke-width:3;"/>
   </g>
   <g id="line2d_42">
    <path clip-path="url(#p237c256e28)" d="M 301.731184 603.007166 
L 301.731184 467.415161 
L 442.75274 467.415161 
L 442.75274 603.007166 
L 301.731184 603.007166 
" style="fill:none;stroke:#d3d3d3;stroke-linecap:square;stroke-width:0.5;"/>
   </g>
   <g id="line2d_43">
    <path clip-path="url(#p237c256e28)" d="M 300.494348 604.778191 
L 300.494348 604.778191 
L 299.424832 606.599851 
L 299.39794 605.684181 
L 297.692489 602.381439 
L 297.760924 602.270333 
L 300.211637 602.751749 
L 303.624731 602.965227 
L 301.731184 603.007166 
" style="fill:none;stroke:#000000;stroke-linecap:square;stroke-width:3;"/>
   </g>
   <g id="line2d_44">
    <path clip-path="url(#p237c256e28)" d="M 297.692489 606.599851 
L 297.692489 602.270333 
L 303.624731 602.270333 
L 303.624731 606.599851 
L 297.692489 606.599851 
" style="fill:none;stroke:#d3d3d3;stroke-linecap:square;stroke-width:0.5;"/>
   </g>
   <g id="line2d_45">
    <path clip-path="url(#p237c256e28)" d="M 301.731184 603.007166 
L 300.494348 604.778191 
L 300.494348 604.778191 
" style="fill:none;stroke:#000000;stroke-linecap:square;stroke-width:3;"/>
   </g>
   <g id="line2d_46">
    <path clip-path="url(#p237c256e28)" d="M 300.494348 604.778191 
L 300.494348 603.007166 
L 301.731184 603.007166 
L 301.731184 604.778191 
L 300.494348 604.778191 
" style="fill:none;stroke:#d3d3d3;stroke-linecap:square;stroke-width:0.5;"/>
   </g>
   <g id="line2d_47">
    <path clip-path="url(#p237c256e28)" d="M 398.249608 428.401701 
L 392.481473 424.526053 
L 388.792738 421.999549 
L 385.125148 419.440362 
L 381.47868 416.849497 
L 377.853326 414.227867 
L 374.249096 411.5763 
L 370.666014 408.895548 
L 367.104126 406.186293 
L 363.563494 403.449154 
L 360.044203 400.684692 
L 356.546358 397.893412 
L 353.070089 395.07577 
L 349.615545 392.232175 
L 346.182905 389.362993 
L 348.518602 391.345245 
" style="fill:none;stroke:#000000;stroke-linecap:square;stroke-width:3;"/>
   </g>
   <g id="line2d_48">
    <path clip-path="url(#p237c256e28)" d="M 346.182905 428.401701 
L 346.182905 389.362993 
L 398.249608 389.362993 
L 398.249608 428.401701 
L 346.182905 428.401701 
" style="fill:none;stroke:#d3d3d3;stroke-linecap:square;stroke-width:0.5;"/>
   </g>
   <g id="line2d_49">
    <path clip-path="url(#p237c256e28)" d="M 398.249608 428.401701 
L 397.593887 426.746364 
L 395.9707 421.832076 
L 394.637506 416.836057 
L 393.598396 411.775032 
L 392.85624 406.66563 
L 392.412889 401.524257 
L 392.269407 396.367023 
L 392.426297 391.20972 
L 392.883746 386.067862 
L 393.641852 380.95677 
L 394.700846 375.891718 
L 396.0613 370.888126 
L 397.724308 365.961818 
L 399.691649 361.129342 
L 401.965916 356.408359 
L 404.550591 351.818133 
L 407.45005 347.380114 
L 410.669442 343.118662 
L 414.214383 339.061892 
L 418.090339 335.242672 
L 422.301546 331.699692 
L 426.849243 328.478492 
L 431.728968 325.632121 
L 436.926749 323.220911 
L 442.414317 321.310506 
L 448.144109 319.967196 
L 454.045854 319.249964 
L 460.02728 319.199989 
L 465.981081 319.830392 
L 471.797793 321.120454 
L 477.380804 323.017557 
L 482.657989 325.44648 
L 487.586312 328.32217 
L 492.149491 331.561257 
L 496.351594 335.089517 
L 500.209751 338.845045 
L 503.748 342.778348 
L 506.992942 346.850847 
L 509.971061 351.032838 
L 512.707293 355.301534 
L 515.224375 359.639407 
L 517.542676 364.032879 
L 519.680267 368.47134 
L 521.653111 372.946414 
L 523.475291 377.451417 
L 525.159244 381.980959 
L 526.715976 386.530654 
L 528.155256 391.096897 
L 529.485784 395.676703 
L 530.715335 400.26758 
L 531.850881 404.867436 
L 532.8987 409.474505 
L 533.86446 414.087288 
L 534.753299 418.704508 
L 535.569887 423.325077 
L 536.318483 427.94806 
L 537.00298 432.572659 
L 537.62695 437.198189 
L 538.193675 441.824064 
L 538.193675 441.824064 
" style="fill:none;stroke:#000000;stroke-linecap:square;stroke-width:3;"/>
   </g>
   <g id="line2d_50">
    <path clip-path="url(#p237c256e28)" d="M 392.269407 441.824064 
L 392.269407 319.199989 
L 538.193675 319.199989 
L 538.193675 441.824064 
L 392.269407 441.824064 
" style="fill:none;stroke:#d3d3d3;stroke-linecap:square;stroke-width:0.5;"/>
   </g>
   <g id="line2d_51">
    <path clip-path="url(#p237c256e28)" d="M 281.70571 592.237518 
L 281.70571 592.237518 
L 278.304946 598.294926 
L 276.747431 608.005606 
L 282.697117 619.081477 
L 290.7712 623.387371 
L 297.401123 624.769921 
L 303.264638 625.150208 
L 308.730667 625.033159 
L 313.958839 624.605203 
L 319.028184 623.955236 
L 323.982802 623.132933 
L 328.849553 622.169061 
L 333.645858 621.084043 
L 338.383538 619.892107 
L 343.070881 618.603495 
L 347.713824 617.225735 
L 352.31668 615.76441 
L 356.882587 614.223652 
L 361.413812 612.606464 
L 365.911945 610.91493 
L 370.378033 609.150368 
L 374.812672 607.313425 
L 379.216062 605.404141 
L 383.588043 603.421985 
L 387.928113 601.365877 
L 392.235426 599.234183 
L 396.508777 597.024702 
L 400.746578 594.734634 
L 404.946809 592.360536 
L 409.106959 589.898261 
L 413.223938 587.342878 
L 417.293963 584.688584 
L 421.312411 581.928593 
L 425.273615 579.055013 
L 429.170608 576.058711 
L 432.994779 572.929186 
L 436.735416 569.654462 
L 440.379122 566.22105 
L 443.909067 562.614045 
L 447.30406 558.817478 
L 450.537488 554.815105 
L 453.57623 550.591861 
L 456.379872 546.136251 
L 458.900776 541.443835 
L 461.085845 536.52156 
L 462.880814 531.391998 
L 464.237255 526.095645 
L 465.121021 520.689213 
L 465.51926 515.239078 
L 465.442947 509.811503 
L 464.923806 504.46325 
L 464.007255 499.235819 
L 462.744466 494.154298 
L 461.18599 489.229646 
L 459.377881 484.46245 
L 459.532531 484.816207 
" style="fill:none;stroke:#000000;stroke-linecap:square;stroke-width:3;"/>
   </g>
   <g id="line2d_52">
    <path clip-path="url(#p237c256e28)" d="M 276.747431 625.150208 
L 276.747431 484.46245 
L 465.51926 484.46245 
L 465.51926 625.150208 
L 276.747431 625.150208 
" style="fill:none;stroke:#d3d3d3;stroke-linecap:square;stroke-width:0.5;"/>
   </g>
   <g id="line2d_53">
    <path clip-path="url(#p237c256e28)" d="M 361.306855 306.017178 
L 361.306855 306.017178 
L 360.189179 307.29621 
L 358.700586 309.773384 
L 357.272303 312.931466 
L 355.995559 316.481066 
L 354.875421 320.271387 
L 353.897283 324.219372 
L 353.043842 328.2762 
L 352.299339 332.411487 
L 351.650362 336.605392 
L 351.085698 340.844425 
L 350.595986 345.119093 
L 350.173354 349.422511 
L 349.811125 353.749554 
L 349.503565 358.096319 
L 349.245695 362.459775 
L 349.033135 366.83753 
L 348.861985 371.227671 
L 348.728724 375.628652 
L 348.63013 380.039223 
L 348.563217 384.458367 
L 348.525176 388.88527 
L 348.518602 391.345245 
" style="fill:none;stroke:#000000;stroke-linecap:square;stroke-width:3;"/>
   </g>
   <g id="line2d_54">
    <path clip-path="url(#p237c256e28)" d="M 348.518602 391.345245 
L 348.518602 306.017178 
L 361.306855 306.017178 
L 361.306855 391.345245 
L 348.518602 391.345245 
" style="fill:none;stroke:#d3d3d3;stroke-linecap:square;stroke-width:0.5;"/>
   </g>
   <g id="line2d_55">
    <path clip-path="url(#p237c256e28)" d="M 219.197496 154.203959 
L 219.197496 154.203959 
L 222.205344 150.608359 
L 225.265652 147.037037 
L 228.384319 143.493101 
L 231.568231 139.980268 
L 234.825498 136.503012 
L 238.165754 133.06678 
L 241.600537 129.67829 
L 245.143787 126.345959 
L 248.812463 123.080532 
L 252.627316 119.896025 
L 256.613805 116.811157 
L 260.803029 113.851536 
L 265.232371 111.053037 
L 269.944949 108.466836 
L 274.985936 106.166399 
L 280.392062 104.255353 
L 286.169595 102.871206 
L 292.260798 102.173013 
L 298.516462 102.299514 
L 304.711531 103.306866 
L 310.617873 105.133764 
L 316.082991 107.631421 
L 321.053777 110.629083 
L 325.548971 113.981519 
L 329.62065 117.583018 
L 333.328204 121.362138 
L 336.726242 125.271766 
L 339.860815 129.280688 
L 342.769343 133.367791 
L 345.481805 137.518395 
L 348.022146 141.721986 
L 350.409537 145.970809 
L 352.659393 150.259003 
" style="fill:none;stroke:#000000;stroke-linecap:square;stroke-width:3;"/>
   </g>
   <g id="line2d_56">
    <path clip-path="url(#p237c256e28)" d="M 219.197496 154.203959 
L 219.197496 102.173013 
L 352.659393 102.173013 
L 352.659393 154.203959 
L 219.197496 154.203959 
" style="fill:none;stroke:#d3d3d3;stroke-linecap:square;stroke-width:0.5;"/>
   </g>
   <g id="line2d_57">
    <path clip-path="url(#p237c256e28)" d="M 352.659393 150.259003 
L 354.784174 154.582034 
L 356.793989 158.936341 
L 358.697063 163.319084 
L 360.500089 167.727988 
L 362.208492 172.16122 
L 363.826637 176.617313 
L 365.35798 181.095102 
L 366.805183 185.593684 
L 368.170199 190.112385 
L 369.454335 194.650735 
L 370.658282 199.208453 
L 371.782141 203.785435 
L 372.825417 208.381746 
L 373.787007 212.997619 
L 374.665157 217.633453 
L 375.457402 222.289825 
L 376.160482 226.967499 
L 376.770216 231.667443 
L 377.281334 236.390862 
L 377.687251 241.139234 
L 377.979751 245.914365 
L 378.148545 250.718466 
L 378.180656 255.554251 
L 378.059515 260.425069 
L 377.763625 265.335072 
L 377.264522 270.289393 
L 376.523559 275.294268 
L 375.486667 280.356856 
L 374.075626 285.483955 
L 372.173398 290.677217 
L 369.600977 295.917617 
L 366.090897 301.119411 
L 361.306855 306.017178 
L 361.306855 306.017178 
" style="fill:none;stroke:#000000;stroke-linecap:square;stroke-width:3;"/>
   </g>
   <g id="line2d_58">
    <path clip-path="url(#p237c256e28)" d="M 352.659393 306.017178 
L 352.659393 150.259003 
L 378.180656 150.259003 
L 378.180656 306.017178 
L 352.659393 306.017178 
" style="fill:none;stroke:#d3d3d3;stroke-linecap:square;stroke-width:0.5;"/>
   </g>
   <g id="line2d_59">
    <path clip-path="url(#p237c256e28)" d="M 361.306855 306.017178 
" style="fill:none;stroke:#000000;stroke-linecap:square;stroke-width:3;"/>
   </g>
   <g id="line2d_60">
    <path clip-path="url(#p237c256e28)" d="M 361.306855 306.017178 
L 361.306855 306.017178 
L 361.306855 306.017178 
L 361.306855 306.017178 
L 361.306855 306.017178 
" style="fill:none;stroke:#d3d3d3;stroke-linecap:square;stroke-width:0.5;"/>
   </g>
   <g id="line2d_61">
    <path clip-path="url(#p237c256e28)" d="M 325.772151 401.44136 
L 324.23116 400.113577 
L 320.738244 397.05807 
L 317.268881 393.976963 
L 313.823219 390.870277 
L 310.401444 387.738002 
L 307.003779 384.580089 
L 303.630488 381.396456 
L 300.281876 378.186987 
L 296.95829 374.951531 
L 293.660123 371.689902 
L 290.387814 368.401879 
L 287.14185 365.087205 
L 283.922774 361.745587 
L 280.73118 358.376695 
L 277.567724 354.98016 
L 274.433124 351.555571 
L 271.328164 348.102479 
L 268.253704 344.62039 
L 265.21068 341.108763 
L 262.200114 337.567012 
L 259.223118 333.994499 
L 256.280908 330.390532 
L 253.374806 326.754366 
L 250.506258 323.085193 
L 247.676837 319.382144 
L 244.888267 315.644279 
L 242.142427 311.87059 
L 239.441379 308.059989 
L 236.78738 304.211311 
L 234.182907 300.323301 
L 231.630685 296.394614 
L 229.133717 292.423811 
L 226.695313 288.409351 
L 224.319138 284.34959 
L 222.00925 280.242782 
L 219.770156 276.087074 
L 217.606875 271.880513 
L 215.525005 267.621058 
L 213.5308 263.306594 
L 211.631269 258.934959 
L 209.83427 254.503987 
L 208.148632 250.011572 
L 206.584271 245.455756 
L 205.152326 240.834856 
L 203.865283 236.147638 
L 202.737097 231.393553 
L 201.783263 226.573047 
L 201.020844 221.687956 
L 200.468377 216.741995 
L 200.145622 211.741327 
L 200.073096 206.695183 
L 200.271308 201.61646 
L 200.75969 196.522181 
L 201.555214 191.433669 
L 202.670834 186.37626 
L 204.113935 181.378433 
L 205.88511 176.470332 
L 207.977554 171.681835 
L 210.37726 167.040464 
L 213.064052 162.569522 
L 216.013229 158.286789 
L 219.197496 154.203959 
L 219.197496 154.203959 
" style="fill:none;stroke:#000000;stroke-linecap:square;stroke-width:3;"/>
   </g>
   <g id="line2d_62">
    <path clip-path="url(#p237c256e28)" d="M 200.073096 401.44136 
L 200.073096 154.203959 
L 325.772151 154.203959 
L 325.772151 401.44136 
L 200.073096 401.44136 
" style="fill:none;stroke:#d3d3d3;stroke-linecap:square;stroke-width:0.5;"/>
   </g>
   <g id="line2d_63">
    <path clip-path="url(#p237c256e28)" d="M 325.772151 401.44136 
L 325.835612 406.949443 
L 325.903925 411.478896 
L 325.985523 416.001203 
L 326.07756 420.515984 
L 326.177063 425.022791 
L 326.280898 429.52111 
L 326.385726 434.010341 
L 326.487961 438.489798 
L 326.583729 442.958689 
L 326.668818 447.416107 
L 326.738636 451.861014 
L 326.788166 456.292226 
L 326.811927 460.708399 
L 326.803937 465.108023 
L 326.757694 469.489417 
L 326.666173 473.85074 
L 326.521849 478.190014 
L 326.316747 482.505173 
L 326.042543 486.794137 
L 325.690703 491.054914 
L 325.252679 495.28572 
L 324.720148 499.485124 
L 324.085295 503.652161 
L 323.341121 507.78642 
L 322.48176 511.88805 
L 321.50278 515.957688 
L 320.401433 519.996309 
L 319.176829 524.005046 
L 317.829994 527.985023 
L 316.363794 531.937254 
L 314.782716 535.862629 
L 313.09255 539.76196 
L 311.300001 543.636069 
L 309.412293 547.485869 
L 307.43682 551.312415 
L 305.380869 555.11691 
L 303.251418 558.900683 
L 301.055023 562.665136 
L 298.797759 566.411683 
L 296.485209 570.141694 
L 294.122482 573.856449 
L 291.714243 577.557109 
L 289.264745 581.244701 
L 286.777865 584.920123 
L 284.257125 588.584161 
L 281.70571 592.237518 
L 281.70571 592.237518 
" style="fill:none;stroke:#000000;stroke-linecap:square;stroke-width:3;"/>
   </g>
   <g id="line2d_64">
    <path clip-path="url(#p237c256e28)" d="M 281.70571 592.237518 
L 281.70571 401.44136 
L 326.811927 401.44136 
L 326.811927 592.237518 
L 281.70571 592.237518 
" style="fill:none;stroke:#d3d3d3;stroke-linecap:square;stroke-width:0.5;"/>
   </g>
   <g id="line2d_65">
    <path clip-path="url(#p237c256e28)" d="M 538.193675 441.824064 
L 538.193675 441.824064 
L 538.630691 447.005213 
L 538.693192 452.358133 
L 538.264148 457.897799 
L 537.178795 463.614949 
L 535.222554 469.435058 
L 532.174959 475.151897 
L 527.942719 480.390102 
L 522.714157 484.721596 
L 516.913155 487.911327 
L 510.95037 490.010272 
L 505.066984 491.223176 
L 499.355947 491.764137 
L 493.833292 491.80101 
L 488.485831 491.453476 
L 483.292805 490.805229 
L 478.233851 489.915473 
L 473.29132 488.827054 
L 468.450562 487.571772 
L 463.69957 486.173817 
L 459.532531 484.816207 
" style="fill:none;stroke:#000000;stroke-linecap:square;stroke-width:3;"/>
   </g>
   <g id="line2d_66">
    <path clip-path="url(#p237c256e28)" d="M 459.532531 491.80101 
L 459.532531 441.824064 
L 538.693192 441.824064 
L 538.693192 491.80101 
L 459.532531 491.80101 
" style="fill:none;stroke:#d3d3d3;stroke-linecap:square;stroke-width:0.5;"/>
   </g>
   <g id="line2d_67">
    <path clip-path="url(#p237c256e28)" d="M 515.563561 444.327158 
L 515.563561 444.327158 
L 515.882713 448.095858 
L 515.92703 451.722504 
L 515.665672 455.136726 
L 515.079867 458.24704 
L 514.176105 460.955049 
L 512.987145 463.198591 
L 511.53047 465.006418 
L 509.745847 466.481872 
L 507.525574 467.695996 
L 504.826437 468.639625 
L 501.702576 469.278839 
L 498.252816 469.602423 
L 494.572523 469.624945 
L 490.73631 469.374303 
L 486.797847 468.881793 
L 482.794552 468.177116 
L 478.752307 467.286546 
L 474.689067 466.232598 
L 470.617368 465.034312 
L 466.546029 463.707725 
L 462.4813 462.266357 
L 458.427633 460.721645 
L 454.388209 459.083312 
L 450.365305 457.359668 
L 446.360545 455.557853 
L 442.375081 453.684039 
L 441.268846 453.142703 
" style="fill:none;stroke:#000000;stroke-linecap:square;stroke-width:3;"/>
   </g>
   <g id="line2d_68">
    <path clip-path="url(#p237c256e28)" d="M 441.268846 469.624945 
L 441.268846 444.327158 
L 515.92703 444.327158 
L 515.92703 469.624945 
L 441.268846 469.624945 
" style="fill:none;stroke:#d3d3d3;stroke-linecap:square;stroke-width:0.5;"/>
   </g>
   <g id="line2d_69">
    <path clip-path="url(#p237c256e28)" d="M 441.268846 453.142703 
L 436.665873 447.091627 
L 433.733621 443.371678 
L 430.753674 439.70981 
L 430.753674 439.70981 
" style="fill:none;stroke:#000000;stroke-linecap:square;stroke-width:3;"/>
   </g>
   <g id="line2d_70">
    <path clip-path="url(#p237c256e28)" d="M 430.753674 453.142703 
L 430.753674 439.70981 
L 441.268846 439.70981 
L 441.268846 453.142703 
L 430.753674 453.142703 
" style="fill:none;stroke:#d3d3d3;stroke-linecap:square;stroke-width:0.5;"/>
   </g>
   <g id="line2d_71">
    <path clip-path="url(#p237c256e28)" d="M 430.753674 439.70981 
L 430.753674 439.70981 
L 428.319928 436.591078 
L 426.071444 433.35111 
L 424.015576 429.997936 
L 422.159018 426.540381 
L 420.50776 422.988 
L 419.067055 419.351027 
L 417.841405 415.640303 
L 416.834558 411.867215 
L 416.049524 408.043635 
L 415.488597 404.181866 
L 415.153396 400.294601 
L 415.044899 396.394898 
L 415.163492 392.496175 
L 415.509009 388.612229 
L 416.080761 384.757277 
L 416.877557 380.946024 
L 417.897701 377.19376 
L 419.138954 373.516485 
L 420.598468 369.931049 
L 422.272657 366.455319 
L 424.15702 363.108351 
L 426.24588 359.910554 
L 428.532051 356.883816 
L 431.006411 354.051551 
L 433.657428 351.438609 
L 436.470658 349.070963 
L 439.428353 346.975086 
L 442.509347 345.176962 
L 445.689461 343.700738 
L 448.942658 342.567236 
L 452.242933 341.792687 
L 455.566474 341.388211 
" style="fill:none;stroke:#000000;stroke-linecap:square;stroke-width:3;"/>
   </g>
   <g id="line2d_72">
    <path clip-path="url(#p237c256e28)" d="M 415.044899 439.70981 
L 415.044899 341.388211 
L 455.566474 341.388211 
L 455.566474 439.70981 
L 415.044899 439.70981 
" style="fill:none;stroke:#d3d3d3;stroke-linecap:square;stroke-width:0.5;"/>
   </g>
   <g id="line2d_73">
    <path clip-path="url(#p237c256e28)" d="M 455.566474 341.388211 
L 458.893097 341.360216 
L 462.205958 341.711228 
L 465.489496 342.440146 
L 468.726974 343.541276 
L 471.899444 345.002735 
L 474.986822 346.805595 
L 477.970214 348.924654 
L 480.834089 351.330551 
L 483.567426 353.992326 
L 486.163799 356.879601 
L 488.62076 359.964042 
L 490.938952 363.220099 
L 493.121227 366.625246 
L 495.1719 370.15989 
L 497.096172 373.807121 
L 498.899718 377.552405 
L 500.588391 381.383259 
L 502.168033 385.288962 
L 503.644349 389.260289 
L 505.022828 393.289282 
L 506.308701 397.36906 
L 507.50692 401.493657 
L 508.622151 405.65788 
L 509.658776 409.857202 
L 510.620903 414.087661 
L 511.512378 418.345783 
L 512.336799 422.628511 
L 513.09753 426.933152 
L 513.79772 431.257326 
L 514.440313 435.598928 
L 515.028066 439.956091 
L 515.563561 444.327158 
L 515.563561 444.327158 
" style="fill:none;stroke:#000000;stroke-linecap:square;stroke-width:3;"/>
   </g>
   <g id="line2d_74">
    <path clip-path="url(#p237c256e28)" d="M 455.566474 444.327158 
L 455.566474 341.360216 
L 515.563561 341.360216 
L 515.563561 444.327158 
L 455.566474 444.327158 
" style="fill:none;stroke:#d3d3d3;stroke-linecap:square;stroke-width:0.5;"/>
   </g>
   <g id="line2d_75">
    <path clip-path="url(#p237c256e28)" d="M 515.563561 444.327158 
" style="fill:none;stroke:#000000;stroke-linecap:square;stroke-width:3;"/>
   </g>
   <g id="line2d_76">
    <path clip-path="url(#p237c256e28)" d="M 515.563561 444.327158 
L 515.563561 444.327158 
L 515.563561 444.327158 
L 515.563561 444.327158 
L 515.563561 444.327158 
" style="fill:none;stroke:#d3d3d3;stroke-linecap:square;stroke-width:0.5;"/>
   </g>
   <g id="line2d_77">
    <path clip-path="url(#p237c256e28)" d="M 236.931895 168.125555 
L 236.931895 168.125555 
L 239.778225 164.722998 
L 242.657107 161.363353 
L 245.570826 158.052256 
L 248.521779 154.796374 
L 251.512445 151.60363 
L 254.545322 148.483485 
L 257.622814 145.447307 
L 260.747041 142.508835 
L 263.919521 139.684764 
L 267.140651 136.995467 
L 270.4089 134.465823 
L 273.719574 132.126086 
L 277.063038 130.012535 
L 280.422477 128.167363 
L 283.771795 126.636812 
L 287.075663 125.466242 
L 290.295538 124.691847 
L 293.40509 124.332747 
L 296.409283 124.392103 
L 299.346568 124.870262 
L 302.261503 125.774141 
L 305.172457 127.107597 
L 308.066127 128.855742 
L 310.914043 130.98232 
L 313.688886 133.43883 
L 316.371523 136.174841 
L 318.95136 139.144277 
L 321.42422 142.307803 
L 323.790048 145.63297 
L 326.051149 149.093416 
L 328.211015 152.667819 
L 330.273601 156.3389 
" style="fill:none;stroke:#000000;stroke-linecap:square;stroke-width:3;"/>
   </g>
   <g id="line2d_78">
    <path clip-path="url(#p237c256e28)" d="M 236.931895 168.125555 
L 236.931895 124.332747 
L 330.273601 124.332747 
L 330.273601 168.125555 
L 236.931895 168.125555 
" style="fill:none;stroke:#d3d3d3;stroke-linecap:square;stroke-width:0.5;"/>
   </g>
   <g id="line2d_79">
    <path clip-path="url(#p237c256e28)" d="M 330.273601 156.3389 
L 332.242892 160.092585 
L 334.122666 163.917329 
L 335.916369 167.803583 
L 337.627053 171.743382 
L 339.257351 175.730023 
L 340.80948 179.757815 
L 342.285242 183.821876 
L 343.686034 187.91798 
L 345.012863 192.042425 
L 346.266344 196.191928 
L 347.446703 200.363534 
L 348.55378 204.554534 
L 349.587006 208.762398 
L 350.545396 212.984699 
L 351.427517 217.219045 
L 352.231452 221.463009 
L 352.954754 225.714038 
L 353.594381 229.969361 
L 354.146623 234.225868 
L 354.607004 238.479961 
L 354.970157 242.727355 
L 355.229682 246.962813 
L 355.377958 251.17978 
L 355.405933 255.369864 
L 355.302874 259.522088 
L 355.056117 263.621775 
L 354.650871 267.64887 
L 354.070251 271.575349 
L 353.295957 275.361208 
L 352.310605 278.948304 
L 351.103949 282.251588 
L 349.687417 285.149626 
L 348.319355 287.191508 
" style="fill:none;stroke:#000000;stroke-linecap:square;stroke-width:3;"/>
   </g>
   <g id="line2d_80">
    <path clip-path="url(#p237c256e28)" d="M 330.273601 287.191508 
L 330.273601 156.3389 
L 355.405933 156.3389 
L 355.405933 287.191508 
L 330.273601 287.191508 
" style="fill:none;stroke:#d3d3d3;stroke-linecap:square;stroke-width:0.5;"/>
   </g>
   <g id="line2d_81">
    <path clip-path="url(#p237c256e28)" d="M 348.319355 287.191508 
" style="fill:none;stroke:#000000;stroke-linecap:square;stroke-width:3;"/>
   </g>
   <g id="line2d_82">
    <path clip-path="url(#p237c256e28)" d="M 348.319355 287.191508 
L 348.319355 287.191508 
L 348.319355 287.191508 
L 348.319355 287.191508 
L 348.319355 287.191508 
" style="fill:none;stroke:#d3d3d3;stroke-linecap:square;stroke-width:0.5;"/>
   </g>
   <g id="line2d_83">
    <path clip-path="url(#p237c256e28)" d="M 348.319355 287.191508 
L 341.54789 294.548552 
L 338.352692 299.805757 
L 336.054949 304.865768 
L 334.279288 309.793285 
L 332.847479 314.633368 
L 331.662489 319.413351 
L 330.665598 324.150164 
L 329.818359 328.85476 
L 329.094043 333.534538 
L 328.473185 338.194672 
L 327.941066 342.838883 
L 327.486211 347.469896 
L 327.099432 352.089738 
L 326.773205 356.69992 
L 326.501236 361.301572 
L 326.278161 365.895532 
L 326.099326 370.48241 
L 325.960626 375.062636 
L 326.037915 371.605434 
" style="fill:none;stroke:#000000;stroke-linecap:square;stroke-width:3;"/>
   </g>
   <g id="line2d_84">
    <path clip-path="url(#p237c256e28)" d="M 325.960626 375.062636 
L 325.960626 287.191508 
L 348.319355 287.191508 
L 348.319355 375.062636 
L 325.960626 375.062636 
" style="fill:none;stroke:#d3d3d3;stroke-linecap:square;stroke-width:0.5;"/>
   </g>
   <g id="line2d_85">
    <path clip-path="url(#p237c256e28)" d="M 326.037915 371.605434 
L 322.788266 368.585093 
L 319.540572 365.519997 
L 316.317695 362.43104 
L 313.120138 359.318272 
L 309.948444 356.181718 
L 306.803208 353.02138 
L 303.685069 349.837239 
L 300.594722 346.629255 
L 297.532919 343.397366 
L 294.50047 340.141494 
L 291.498252 336.861539 
L 288.527212 333.557387 
L 285.588372 330.228904 
L 282.682836 326.875944 
L 279.811796 323.498344 
L 276.976539 320.095931 
L 274.178457 316.66852 
L 271.419054 313.215915 
L 268.699956 309.737917 
L 266.022923 306.23432 
L 263.389862 302.704918 
L 260.802838 299.149511 
L 258.264092 295.567904 
L 255.776055 291.959919 
L 253.341371 288.3254 
L 250.962912 284.66422 
L 248.643804 280.976296 
L 246.387452 277.2616 
L 244.197568 273.520174 
L 242.078199 269.752155 
L 240.03376 265.957793 
L 238.06907 262.137484 
L 236.189388 258.291807 
L 234.400448 254.421562 
L 232.708501 250.527824 
L 231.120345 246.612003 
L 229.643358 242.675912 
L 228.285519 238.721852 
L 227.055415 234.752692 
L 225.962225 230.771976 
L 225.015682 226.784012 
L 224.225985 222.793965 
L 223.60367 218.807927 
L 223.159427 214.832953 
L 222.903846 210.87703 
L 222.847116 206.948976 
L 222.998682 203.05824 
L 223.366891 199.214608 
L 223.958652 195.427844 
L 224.77916 191.707315 
L 225.831681 188.061666 
L 227.117411 184.498612 
L 228.635374 181.024871 
L 230.382356 177.646205 
L 232.35289 174.367509 
L 234.539302 171.192868 
L 236.931895 168.125555 
L 236.931895 168.125555 
" style="fill:none;stroke:#000000;stroke-linecap:square;stroke-width:3;"/>
   </g>
   <g id="line2d_86">
    <path clip-path="url(#p237c256e28)" d="M 222.847116 371.605434 
L 222.847116 168.125555 
L 326.037915 168.125555 
L 326.037915 371.605434 
L 222.847116 371.605434 
" style="fill:none;stroke:#d3d3d3;stroke-linecap:square;stroke-width:0.5;"/>
   </g>
   <g id="line2d_87">
    <path clip-path="url(#p237c256e28)" d="M 346.539006 289.125817 
L 346.539006 289.125817 
L 348.319355 287.191508 
" style="fill:none;stroke:#000000;stroke-linecap:square;stroke-width:3;"/>
   </g>
   <g id="line2d_88">
    <path clip-path="url(#p237c256e28)" d="M 346.539006 289.125817 
L 346.539006 287.191508 
L 348.319355 287.191508 
L 348.319355 289.125817 
L 346.539006 289.125817 
" style="fill:none;stroke:#d3d3d3;stroke-linecap:square;stroke-width:0.5;"/>
   </g>
   <g id="line2d_89">
    <path clip-path="url(#p237c256e28)" d="M 348.319355 287.191508 
L 348.121535 287.48676 
L 346.539006 289.125817 
L 346.539006 289.125817 
" style="fill:none;stroke:#000000;stroke-linecap:square;stroke-width:3;"/>
   </g>
   <g id="line2d_90">
    <path clip-path="url(#p237c256e28)" d="M 346.539006 289.125817 
L 346.539006 287.191508 
L 348.319355 287.191508 
L 348.319355 289.125817 
L 346.539006 289.125817 
" style="fill:none;stroke:#d3d3d3;stroke-linecap:square;stroke-width:0.5;"/>
   </g>
   <g id="line2d_91">
    <path clip-path="url(#p237c256e28)" d="M 389.768857 419.539106 
L 391.953208 419.675727 
L 394.101692 420.083346 
L 396.17903 420.755271 
L 398.151114 421.680468 
L 399.985562 422.843745 
L 401.652251 424.226002 
L 403.123815 425.804543 
L 404.376092 427.553447 
L 405.388518 429.443997 
L 406.144469 431.445151 
L 406.631534 433.524049 
L 406.841714 435.646558 
L 406.771557 437.777824 
L 406.422218 439.882852 
L 405.79943 441.927078 
L 404.913421 443.876937 
L 403.778738 445.70041 
L 402.414014 447.367558 
L 400.841656 448.851004 
L 399.087484 450.126392 
L 397.1803 451.172779 
L 395.15142 451.972984 
L 393.034159 452.513868 
L 390.863281 452.786548 
L 388.674433 452.786548 
L 386.503556 452.513868 
L 384.386294 451.972984 
L 382.357414 451.172779 
L 380.45023 450.126392 
L 378.696058 448.851004 
L 377.1237 447.367558 
L 375.758976 445.70041 
L 374.624293 443.876937 
L 373.738284 441.927078 
L 373.115497 439.882852 
L 372.766157 437.777824 
L 372.696001 435.646558 
L 372.906181 433.524049 
L 373.393245 431.445151 
L 374.149197 429.443997 
L 375.161623 427.553447 
L 376.413899 425.804543 
L 377.885463 424.226002 
L 379.552153 422.843745 
L 381.3866 421.680468 
L 383.358684 420.755271 
L 385.436023 420.083346 
L 387.584506 419.675727 
L 389.768857 419.539106 
" style="fill:none;stroke:#808080;stroke-linecap:square;stroke-width:1.5;"/>
   </g>
   <g id="line2d_92">
    <path clip-path="url(#p237c256e28)" d="M 262.39693 303.344324 
L 264.581281 303.480945 
L 266.729765 303.888565 
L 268.807103 304.560489 
L 270.779187 305.485686 
L 272.613635 306.648964 
L 274.280324 308.031221 
L 275.751888 309.609762 
L 277.004165 311.358665 
L 278.016591 313.249216 
L 278.772542 315.250369 
L 279.259607 317.329268 
L 279.469787 319.451776 
L 279.399631 321.583042 
L 279.050291 323.688071 
L 278.427503 325.732297 
L 277.541494 327.682156 
L 276.406811 329.505629 
L 275.042087 331.172776 
L 273.469729 332.656223 
L 271.715557 333.931611 
L 269.808373 334.977998 
L 267.779493 335.778203 
L 265.662232 336.319086 
L 263.491354 336.591767 
L 261.302506 336.591767 
L 259.131629 336.319086 
L 257.014367 335.778203 
L 254.985488 334.977998 
L 253.078303 333.931611 
L 251.324131 332.656223 
L 249.751773 331.172776 
L 248.387049 329.505629 
L 247.252366 327.682156 
L 246.366357 325.732297 
L 245.74357 323.688071 
L 245.39423 321.583042 
L 245.324074 319.451776 
L 245.534254 317.329268 
L 246.021318 315.250369 
L 246.77727 313.249216 
L 247.789696 311.358665 
L 249.041972 309.609762 
L 250.513536 308.031221 
L 252.180226 306.648964 
L 254.014673 305.485686 
L 255.986757 304.560489 
L 258.064096 303.888565 
L 260.212579 303.480945 
L 262.39693 303.344324 
" style="fill:none;stroke:#808080;stroke-linecap:square;stroke-width:1.5;"/>
   </g>
   <g id="line2d_93">
    <path clip-path="url(#p237c256e28)" d="M 225.276266 148.099012 
L 227.460616 148.235633 
L 229.6091 148.643253 
L 231.686439 149.315177 
L 233.658523 150.240374 
L 235.49297 151.403652 
L 237.159659 152.785909 
L 238.631224 154.364449 
L 239.8835 156.113353 
L 240.895926 158.003903 
L 241.651878 160.005057 
L 242.138942 162.083956 
L 242.349122 164.206464 
L 242.278966 166.33773 
L 241.929626 168.442759 
L 241.306838 170.486985 
L 240.420829 172.436843 
L 239.286147 174.260317 
L 237.921422 175.927464 
L 236.349065 177.410911 
L 234.594892 178.686299 
L 232.687708 179.732686 
L 230.658828 180.532891 
L 228.541567 181.073774 
L 226.37069 181.346455 
L 224.181842 181.346455 
L 222.010964 181.073774 
L 219.893703 180.532891 
L 217.864823 179.732686 
L 215.957639 178.686299 
L 214.203466 177.410911 
L 212.631109 175.927464 
L 211.266384 174.260317 
L 210.131702 172.436843 
L 209.245693 170.486985 
L 208.622905 168.442759 
L 208.273565 166.33773 
L 208.203409 164.206464 
L 208.413589 162.083956 
L 208.900653 160.005057 
L 209.656605 158.003903 
L 210.669031 156.113353 
L 211.921307 154.364449 
L 213.392872 152.785909 
L 215.059561 151.403652 
L 216.894009 150.240374 
L 218.866092 149.315177 
L 220.943431 148.643253 
L 223.091915 148.235633 
L 225.276266 148.099012 
" style="fill:none;stroke:#808080;stroke-linecap:square;stroke-width:1.5;"/>
   </g>
   <g id="line2d_94">
    <path clip-path="url(#p237c256e28)" d="M 228.064695 144.523941 
L 230.249046 144.660562 
L 232.39753 145.068181 
L 234.474869 145.740106 
L 236.446952 146.665303 
L 238.2814 147.82858 
L 239.948089 149.210838 
L 241.419654 150.789378 
L 242.67193 152.538282 
L 243.684356 154.428832 
L 244.440308 156.429986 
L 244.927372 158.508885 
L 245.137552 160.631393 
L 245.067396 162.762659 
L 244.718056 164.867687 
L 244.095268 166.911914 
L 243.209259 168.861772 
L 242.074577 170.685245 
L 240.709852 172.352393 
L 239.137495 173.835839 
L 237.383322 175.111227 
L 235.476138 176.157615 
L 233.447258 176.95782 
L 231.329997 177.498703 
L 229.159119 177.771383 
L 226.970271 177.771383 
L 224.799394 177.498703 
L 222.682133 176.95782 
L 220.653253 176.157615 
L 218.746069 175.111227 
L 216.991896 173.835839 
L 215.419539 172.352393 
L 214.054814 170.685245 
L 212.920132 168.861772 
L 212.034123 166.911914 
L 211.411335 164.867687 
L 211.061995 162.762659 
L 210.991839 160.631393 
L 211.202019 158.508885 
L 211.689083 156.429986 
L 212.445035 154.428832 
L 213.457461 152.538282 
L 214.709737 150.789378 
L 216.181302 149.210838 
L 217.847991 147.82858 
L 219.682438 146.665303 
L 221.654522 145.740106 
L 223.731861 145.068181 
L 225.880345 144.660562 
L 228.064695 144.523941 
" style="fill:none;stroke:#808080;stroke-linecap:square;stroke-width:1.5;"/>
   </g>
   <g id="line2d_95">
    <path clip-path="url(#p237c256e28)" d="M 342.451143 138.534978 
L 344.635493 138.671598 
L 346.783977 139.079218 
L 348.861316 139.751142 
L 350.8334 140.676339 
L 352.667847 141.839617 
L 354.334536 143.221874 
L 355.806101 144.800415 
L 357.058377 146.549318 
L 358.070803 148.439869 
L 358.826755 150.441023 
L 359.313819 152.519921 
L 359.523999 154.642429 
L 359.453843 156.773695 
L 359.104503 158.878724 
L 358.481715 160.92295 
L 357.595706 162.872809 
L 356.461024 164.696282 
L 355.096299 166.363429 
L 353.523942 167.846876 
L 351.769769 169.122264 
L 349.862585 170.168651 
L 347.833705 170.968856 
L 345.716444 171.509739 
L 343.545567 171.78242 
L 341.356719 171.78242 
L 339.185841 171.509739 
L 337.06858 170.968856 
L 335.0397 170.168651 
L 333.132516 169.122264 
L 331.378343 167.846876 
L 329.805986 166.363429 
L 328.441261 164.696282 
L 327.306579 162.872809 
L 326.42057 160.92295 
L 325.797782 158.878724 
L 325.448442 156.773695 
L 325.378286 154.642429 
L 325.588466 152.519921 
L 326.07553 150.441023 
L 326.831482 148.439869 
L 327.843908 146.549318 
L 329.096184 144.800415 
L 330.567749 143.221874 
L 332.234438 141.839617 
L 334.068886 140.676339 
L 336.040969 139.751142 
L 338.118308 139.079218 
L 340.266792 138.671598 
L 342.451143 138.534978 
" style="fill:none;stroke:#808080;stroke-linecap:square;stroke-width:1.5;"/>
   </g>
   <g id="line2d_96">
    <path clip-path="url(#p237c256e28)" d="M 353.92293 280.930681 
L 356.107281 281.067302 
L 358.255765 281.474921 
L 360.333104 282.146846 
L 362.305187 283.072043 
L 364.139635 284.235321 
L 365.806324 285.617578 
L 367.277889 287.196118 
L 368.530165 288.945022 
L 369.542591 290.835572 
L 370.298543 292.836726 
L 370.785607 294.915625 
L 370.995787 297.038133 
L 370.925631 299.169399 
L 370.576291 301.274427 
L 369.953503 303.318654 
L 369.067494 305.268512 
L 367.932812 307.091986 
L 366.568087 308.759133 
L 364.99573 310.24258 
L 363.241557 311.517968 
L 361.334373 312.564355 
L 359.305493 313.36456 
L 357.188232 313.905443 
L 355.017354 314.178123 
L 352.828507 314.178123 
L 350.657629 313.905443 
L 348.540368 313.36456 
L 346.511488 312.564355 
L 344.604304 311.517968 
L 342.850131 310.24258 
L 341.277774 308.759133 
L 339.913049 307.091986 
L 338.778367 305.268512 
L 337.892358 303.318654 
L 337.26957 301.274427 
L 336.92023 299.169399 
L 336.850074 297.038133 
L 337.060254 294.915625 
L 337.547318 292.836726 
L 338.30327 290.835572 
L 339.315696 288.945022 
L 340.567972 287.196118 
L 342.039537 285.617578 
L 343.706226 284.235321 
L 345.540674 283.072043 
L 347.512757 282.146846 
L 349.590096 281.474921 
L 351.73858 281.067302 
L 353.92293 280.930681 
" style="fill:none;stroke:#808080;stroke-linecap:square;stroke-width:1.5;"/>
   </g>
   <g id="line2d_97">
    <path clip-path="url(#p237c256e28)" d="M 353.92293 280.930681 
L 356.107281 281.067302 
L 358.255765 281.474921 
L 360.333104 282.146846 
L 362.305187 283.072043 
L 364.139635 284.235321 
L 365.806324 285.617578 
L 367.277889 287.196118 
L 368.530165 288.945022 
L 369.542591 290.835572 
L 370.298543 292.836726 
L 370.785607 294.915625 
L 370.995787 297.038133 
L 370.925631 299.169399 
L 370.576291 301.274427 
L 369.953503 303.318654 
L 369.067494 305.268512 
L 367.932812 307.091986 
L 366.568087 308.759133 
L 364.99573 310.24258 
L 363.241557 311.517968 
L 361.334373 312.564355 
L 359.305493 313.36456 
L 357.188232 313.905443 
L 355.017354 314.178123 
L 352.828507 314.178123 
L 350.657629 313.905443 
L 348.540368 313.36456 
L 346.511488 312.564355 
L 344.604304 311.517968 
L 342.850131 310.24258 
L 341.277774 308.759133 
L 339.913049 307.091986 
L 338.778367 305.268512 
L 337.892358 303.318654 
L 337.26957 301.274427 
L 336.92023 299.169399 
L 336.850074 297.038133 
L 337.060254 294.915625 
L 337.547318 292.836726 
L 338.30327 290.835572 
L 339.315696 288.945022 
L 340.567972 287.196118 
L 342.039537 285.617578 
L 343.706226 284.235321 
L 345.540674 283.072043 
L 347.512757 282.146846 
L 349.590096 281.474921 
L 351.73858 281.067302 
L 353.92293 280.930681 
" style="fill:none;stroke:#808080;stroke-linecap:square;stroke-width:1.5;"/>
   </g>
   <g id="line2d_98">
    <path clip-path="url(#p237c256e28)" d="M 338.125385 435.072771 
L 340.309736 435.209392 
L 342.45822 435.617011 
L 344.535558 436.288936 
L 346.507642 437.214133 
L 348.34209 438.37741 
L 350.008779 439.759668 
L 351.480343 441.338208 
L 352.73262 443.087112 
L 353.745046 444.977662 
L 354.500997 446.978816 
L 354.988062 449.057715 
L 355.198242 451.180223 
L 355.128086 453.311489 
L 354.778746 455.416517 
L 354.155958 457.460744 
L 353.269949 459.410602 
L 352.135266 461.234076 
L 350.770542 462.901223 
L 349.198185 464.38467 
L 347.444012 465.660058 
L 345.536828 466.706445 
L 343.507948 467.50665 
L 341.390687 468.047533 
L 339.219809 468.320213 
L 337.030961 468.320213 
L 334.860084 468.047533 
L 332.742822 467.50665 
L 330.713943 466.706445 
L 328.806758 465.660058 
L 327.052586 464.38467 
L 325.480228 462.901223 
L 324.115504 461.234076 
L 322.980822 459.410602 
L 322.094812 457.460744 
L 321.472025 455.416517 
L 321.122685 453.311489 
L 321.052529 451.180223 
L 321.262709 449.057715 
L 321.749773 446.978816 
L 322.505725 444.977662 
L 323.518151 443.087112 
L 324.770427 441.338208 
L 326.241991 439.759668 
L 327.908681 438.37741 
L 329.743128 437.214133 
L 331.715212 436.288936 
L 333.792551 435.617011 
L 335.941035 435.209392 
L 338.125385 435.072771 
" style="fill:none;stroke:#808080;stroke-linecap:square;stroke-width:1.5;"/>
   </g>
   <g id="line2d_99">
    <path clip-path="url(#p237c256e28)" d="M 291.100029 581.867038 
L 293.28438 582.003659 
L 295.432863 582.411278 
L 297.510202 583.083203 
L 299.482286 584.0084 
L 301.316733 585.171677 
L 302.983423 586.553935 
L 304.454987 588.132475 
L 305.707263 589.881379 
L 306.719689 591.771929 
L 307.475641 593.773083 
L 307.962705 595.851982 
L 308.172885 597.97449 
L 308.102729 600.105756 
L 307.753389 602.210784 
L 307.130602 604.255011 
L 306.244593 606.204869 
L 305.10991 608.028342 
L 303.745186 609.69549 
L 302.172828 611.178937 
L 300.418656 612.454324 
L 298.511472 613.500712 
L 296.482592 614.300917 
L 294.36533 614.8418 
L 292.194453 615.11448 
L 290.005605 615.11448 
L 287.834727 614.8418 
L 285.717466 614.300917 
L 283.688586 613.500712 
L 281.781402 612.454324 
L 280.02723 611.178937 
L 278.454872 609.69549 
L 277.090148 608.028342 
L 275.955465 606.204869 
L 275.069456 604.255011 
L 274.446668 602.210784 
L 274.097329 600.105756 
L 274.027172 597.97449 
L 274.237352 595.851982 
L 274.724417 593.773083 
L 275.480368 591.771929 
L 276.492794 589.881379 
L 277.745071 588.132475 
L 279.216635 586.553935 
L 280.883325 585.171677 
L 282.717772 584.0084 
L 284.689856 583.083203 
L 286.767194 582.411278 
L 288.915678 582.003659 
L 291.100029 581.867038 
" style="fill:none;stroke:#808080;stroke-linecap:square;stroke-width:1.5;"/>
   </g>
   <g id="line2d_100">
    <path clip-path="url(#p237c256e28)" d="M 291.100029 581.867038 
L 293.28438 582.003659 
L 295.432863 582.411278 
L 297.510202 583.083203 
L 299.482286 584.0084 
L 301.316733 585.171677 
L 302.983423 586.553935 
L 304.454987 588.132475 
L 305.707263 589.881379 
L 306.719689 591.771929 
L 307.475641 593.773083 
L 307.962705 595.851982 
L 308.172885 597.97449 
L 308.102729 600.105756 
L 307.753389 602.210784 
L 307.130602 604.255011 
L 306.244593 606.204869 
L 305.10991 608.028342 
L 303.745186 609.69549 
L 302.172828 611.178937 
L 300.418656 612.454324 
L 298.511472 613.500712 
L 296.482592 614.300917 
L 294.36533 614.8418 
L 292.194453 615.11448 
L 290.005605 615.11448 
L 287.834727 614.8418 
L 285.717466 614.300917 
L 283.688586 613.500712 
L 281.781402 612.454324 
L 280.02723 611.178937 
L 278.454872 609.69549 
L 277.090148 608.028342 
L 275.955465 606.204869 
L 275.069456 604.255011 
L 274.446668 602.210784 
L 274.097329 600.105756 
L 274.027172 597.97449 
L 274.237352 595.851982 
L 274.724417 593.773083 
L 275.480368 591.771929 
L 276.492794 589.881379 
L 277.745071 588.132475 
L 279.216635 586.553935 
L 280.883325 585.171677 
L 282.717772 584.0084 
L 284.689856 583.083203 
L 286.767194 582.411278 
L 288.915678 582.003659 
L 291.100029 581.867038 
" style="fill:none;stroke:#808080;stroke-linecap:square;stroke-width:1.5;"/>
   </g>
   <g id="line2d_101">
    <path clip-path="url(#p237c256e28)" d="M 418.348251 553.607557 
L 420.532601 553.744178 
L 422.681085 554.151797 
L 424.758424 554.823722 
L 426.730508 555.748919 
L 428.564955 556.912196 
L 430.231645 558.294453 
L 431.703209 559.872994 
L 432.955485 561.621898 
L 433.967911 563.512448 
L 434.723863 565.513602 
L 435.210927 567.592501 
L 435.421107 569.715009 
L 435.350951 571.846275 
L 435.001611 573.951303 
L 434.378824 575.99553 
L 433.492814 577.945388 
L 432.358132 579.768861 
L 430.993408 581.436009 
L 429.42105 582.919455 
L 427.666878 584.194843 
L 425.759693 585.241231 
L 423.730814 586.041435 
L 421.613552 586.582319 
L 419.442675 586.854999 
L 417.253827 586.854999 
L 415.082949 586.582319 
L 412.965688 586.041435 
L 410.936808 585.241231 
L 409.029624 584.194843 
L 407.275451 582.919455 
L 405.703094 581.436009 
L 404.33837 579.768861 
L 403.203687 577.945388 
L 402.317678 575.99553 
L 401.69489 573.951303 
L 401.34555 571.846275 
L 401.275394 569.715009 
L 401.485574 567.592501 
L 401.972639 565.513602 
L 402.72859 563.512448 
L 403.741016 561.621898 
L 404.993293 559.872994 
L 406.464857 558.294453 
L 408.131546 556.912196 
L 409.965994 555.748919 
L 411.938078 554.823722 
L 414.015416 554.151797 
L 416.1639 553.744178 
L 418.348251 553.607557 
" style="fill:none;stroke:#808080;stroke-linecap:square;stroke-width:1.5;"/>
   </g>
   <g id="line2d_102">
    <path clip-path="url(#p237c256e28)" d="M 421.88138 430.023627 
L 424.06573 430.160248 
L 426.214214 430.567867 
L 428.291553 431.239792 
L 430.263636 432.164989 
L 432.098084 433.328267 
L 433.764773 434.710524 
L 435.236338 436.289064 
L 436.488614 438.037968 
L 437.50104 439.928518 
L 438.256992 441.929672 
L 438.744056 444.008571 
L 438.954236 446.131079 
L 438.88408 448.262345 
L 438.53474 450.367373 
L 437.911952 452.4116 
L 437.025943 454.361458 
L 435.891261 456.184932 
L 434.526536 457.852079 
L 432.954179 459.335526 
L 431.200006 460.610914 
L 429.292822 461.657301 
L 427.263942 462.457506 
L 425.146681 462.998389 
L 422.975803 463.271069 
L 420.786956 463.271069 
L 418.616078 462.998389 
L 416.498817 462.457506 
L 414.469937 461.657301 
L 412.562753 460.610914 
L 410.80858 459.335526 
L 409.236223 457.852079 
L 407.871498 456.184932 
L 406.736816 454.361458 
L 405.850807 452.4116 
L 405.228019 450.367373 
L 404.878679 448.262345 
L 404.808523 446.131079 
L 405.018703 444.008571 
L 405.505767 441.929672 
L 406.261719 439.928518 
L 407.274145 438.037968 
L 408.526421 436.289064 
L 409.997986 434.710524 
L 411.664675 433.328267 
L 413.499123 432.164989 
L 415.471206 431.239792 
L 417.548545 430.567867 
L 419.697029 430.160248 
L 421.88138 430.023627 
" style="fill:none;stroke:#808080;stroke-linecap:square;stroke-width:1.5;"/>
   </g>
   <g id="line2d_103">
    <path clip-path="url(#p237c256e28)" d="M 526.878618 426.434794 
L 529.062968 426.571415 
L 531.211452 426.979035 
L 533.288791 427.650959 
L 535.260875 428.576156 
L 537.095322 429.739434 
L 538.762012 431.121691 
L 540.233576 432.700232 
L 541.485852 434.449135 
L 542.498278 436.339686 
L 543.25423 438.34084 
L 543.741294 440.419738 
L 543.951474 442.542246 
L 543.881318 444.673512 
L 543.531978 446.778541 
L 542.909191 448.822767 
L 542.023181 450.772626 
L 540.888499 452.596099 
L 539.523775 454.263246 
L 537.951417 455.746693 
L 536.197245 457.022081 
L 534.29006 458.068468 
L 532.261181 458.868673 
L 530.143919 459.409556 
L 527.973042 459.682237 
L 525.784194 459.682237 
L 523.613316 459.409556 
L 521.496055 458.868673 
L 519.467175 458.068468 
L 517.559991 457.022081 
L 515.805818 455.746693 
L 514.233461 454.263246 
L 512.868737 452.596099 
L 511.734054 450.772626 
L 510.848045 448.822767 
L 510.225257 446.778541 
L 509.875917 444.673512 
L 509.805761 442.542246 
L 510.015941 440.419738 
L 510.503006 438.34084 
L 511.258957 436.339686 
L 512.271383 434.449135 
L 513.52366 432.700232 
L 514.995224 431.121691 
L 516.661913 429.739434 
L 518.496361 428.576156 
L 520.468445 427.650959 
L 522.545783 426.979035 
L 524.694267 426.571415 
L 526.878618 426.434794 
" style="fill:none;stroke:#808080;stroke-linecap:square;stroke-width:1.5;"/>
   </g>
   <g id="patch_3">
    <path d="M 90 630 
L 90 86.4 
" style="fill:none;stroke:#000000;stroke-linecap:square;stroke-linejoin:miter;stroke-width:0.8;"/>
   </g>
   <g id="patch_4">
    <path d="M 648 630 
L 648 86.4 
" style="fill:none;stroke:#000000;stroke-linecap:square;stroke-linejoin:miter;stroke-width:0.8;"/>
   </g>
   <g id="patch_5">
    <path d="M 90 630 
L 648 630 
" style="fill:none;stroke:#000000;stroke-linecap:square;stroke-linejoin:miter;stroke-width:0.8;"/>
   </g>
   <g id="patch_6">
    <path d="M 90 86.4 
L 648 86.4 
" style="fill:none;stroke:#000000;stroke-linecap:square;stroke-linejoin:miter;stroke-width:0.8;"/>
   </g>
  </g>
 </g>
 <defs>
  <clipPath id="p237c256e28">
   <rect height="543.6" width="558" x="90" y="86.4"/>
  </clipPath>
 </defs>
</svg>
