<?xml version="1.0" encoding="utf-8" standalone="no"?>
<!DOCTYPE svg PUBLIC "-//W3C//DTD SVG 1.1//EN"
  "http://www.w3.org/Graphics/SVG/1.1/DTD/svg11.dtd">
<svg height="576pt" version="1.1" viewBox="0 0 720 576" width="720pt" xmlns="http://www.w3.org/2000/svg" xmlns:xlink="http://www.w3.org/1999/xlink">
 <metadata>
  <rdf:RDF xmlns:cc="http://creativecommons.org/ns#" xmlns:dc="http://purl.org/dc/elements/1.1/" xmlns:rdf="http://www.w3.org/1999/02/22-rdf-syntax-ns#">
   <cc:Work>
    <dc:type rdf:resource="http://purl.org/dc/dcmitype/StillImage"/>
    <dc:date>2022-01-12T19:43:21.365175</dc:date>
    <dc:format>image/svg+xml</dc:format>
    <dc:creator>
     <cc:Agent>
      <dc:title>Matplotlib v3.4.3, https://matplotlib.org/</dc:title>
     </cc:Agent>
    </dc:creator>
   </cc:Work>
  </rdf:RDF>
 </metadata>
 <defs>
  <style type="text/css">*{stroke-linecap:butt;stroke-linejoin:round;}</style>
 </defs>
 <g id="figure_1">
  <g id="patch_1">
   <path d="M 0 576 
L 720 576 
L 720 0 
L 0 0 
z
" style="fill:none;"/>
  </g>
  <g id="axes_1">
   <g id="patch_2">
    <path d="M 90 504 
L 648 504 
L 648 69.12 
L 90 69.12 
z
" style="fill:#ffffff;"/>
   </g>
   <g id="matplotlib.axis_1">
    <g id="xtick_1">
     <g id="line2d_1">
      <defs>
       <path d="M 0 0 
L 0 3.5 
" id="mabd10495c8" style="stroke:#000000;stroke-width:0.8;"/>
      </defs>
      <g>
       <use style="stroke:#000000;stroke-width:0.8;" x="115.363636" xlink:href="#mabd10495c8" y="504"/>
      </g>
     </g>
     <g id="text_1">
      <!-- 0 -->
      <g transform="translate(112.182386 518.598438)scale(0.1 -0.1)">
       <defs>
        <path d="M 2034 4250 
Q 1547 4250 1301 3770 
Q 1056 3291 1056 2328 
Q 1056 1369 1301 889 
Q 1547 409 2034 409 
Q 2525 409 2770 889 
Q 3016 1369 3016 2328 
Q 3016 3291 2770 3770 
Q 2525 4250 2034 4250 
z
M 2034 4750 
Q 2819 4750 3233 4129 
Q 3647 3509 3647 2328 
Q 3647 1150 3233 529 
Q 2819 -91 2034 -91 
Q 1250 -91 836 529 
Q 422 1150 422 2328 
Q 422 3509 836 4129 
Q 1250 4750 2034 4750 
z
" id="DejaVuSans-30" transform="scale(0.015625)"/>
       </defs>
       <use xlink:href="#DejaVuSans-30"/>
      </g>
     </g>
    </g>
    <g id="xtick_2">
     <g id="line2d_2">
      <g>
       <use style="stroke:#000000;stroke-width:0.8;" x="217.021498" xlink:href="#mabd10495c8" y="504"/>
      </g>
     </g>
     <g id="text_2">
      <!-- 100 -->
      <g transform="translate(207.477748 518.598438)scale(0.1 -0.1)">
       <defs>
        <path d="M 794 531 
L 1825 531 
L 1825 4091 
L 703 3866 
L 703 4441 
L 1819 4666 
L 2450 4666 
L 2450 531 
L 3481 531 
L 3481 0 
L 794 0 
L 794 531 
z
" id="DejaVuSans-31" transform="scale(0.015625)"/>
       </defs>
       <use xlink:href="#DejaVuSans-31"/>
       <use x="63.623047" xlink:href="#DejaVuSans-30"/>
       <use x="127.246094" xlink:href="#DejaVuSans-30"/>
      </g>
     </g>
    </g>
    <g id="xtick_3">
     <g id="line2d_3">
      <g>
       <use style="stroke:#000000;stroke-width:0.8;" x="318.679359" xlink:href="#mabd10495c8" y="504"/>
      </g>
     </g>
     <g id="text_3">
      <!-- 200 -->
      <g transform="translate(309.135609 518.598438)scale(0.1 -0.1)">
       <defs>
        <path d="M 1228 531 
L 3431 531 
L 3431 0 
L 469 0 
L 469 531 
Q 828 903 1448 1529 
Q 2069 2156 2228 2338 
Q 2531 2678 2651 2914 
Q 2772 3150 2772 3378 
Q 2772 3750 2511 3984 
Q 2250 4219 1831 4219 
Q 1534 4219 1204 4116 
Q 875 4013 500 3803 
L 500 4441 
Q 881 4594 1212 4672 
Q 1544 4750 1819 4750 
Q 2544 4750 2975 4387 
Q 3406 4025 3406 3419 
Q 3406 3131 3298 2873 
Q 3191 2616 2906 2266 
Q 2828 2175 2409 1742 
Q 1991 1309 1228 531 
z
" id="DejaVuSans-32" transform="scale(0.015625)"/>
       </defs>
       <use xlink:href="#DejaVuSans-32"/>
       <use x="63.623047" xlink:href="#DejaVuSans-30"/>
       <use x="127.246094" xlink:href="#DejaVuSans-30"/>
      </g>
     </g>
    </g>
    <g id="xtick_4">
     <g id="line2d_4">
      <g>
       <use style="stroke:#000000;stroke-width:0.8;" x="420.33722" xlink:href="#mabd10495c8" y="504"/>
      </g>
     </g>
     <g id="text_4">
      <!-- 300 -->
      <g transform="translate(410.79347 518.598438)scale(0.1 -0.1)">
       <defs>
        <path d="M 2597 2516 
Q 3050 2419 3304 2112 
Q 3559 1806 3559 1356 
Q 3559 666 3084 287 
Q 2609 -91 1734 -91 
Q 1441 -91 1130 -33 
Q 819 25 488 141 
L 488 750 
Q 750 597 1062 519 
Q 1375 441 1716 441 
Q 2309 441 2620 675 
Q 2931 909 2931 1356 
Q 2931 1769 2642 2001 
Q 2353 2234 1838 2234 
L 1294 2234 
L 1294 2753 
L 1863 2753 
Q 2328 2753 2575 2939 
Q 2822 3125 2822 3475 
Q 2822 3834 2567 4026 
Q 2313 4219 1838 4219 
Q 1578 4219 1281 4162 
Q 984 4106 628 3988 
L 628 4550 
Q 988 4650 1302 4700 
Q 1616 4750 1894 4750 
Q 2613 4750 3031 4423 
Q 3450 4097 3450 3541 
Q 3450 3153 3228 2886 
Q 3006 2619 2597 2516 
z
" id="DejaVuSans-33" transform="scale(0.015625)"/>
       </defs>
       <use xlink:href="#DejaVuSans-33"/>
       <use x="63.623047" xlink:href="#DejaVuSans-30"/>
       <use x="127.246094" xlink:href="#DejaVuSans-30"/>
      </g>
     </g>
    </g>
    <g id="xtick_5">
     <g id="line2d_5">
      <g>
       <use style="stroke:#000000;stroke-width:0.8;" x="521.995081" xlink:href="#mabd10495c8" y="504"/>
      </g>
     </g>
     <g id="text_5">
      <!-- 400 -->
      <g transform="translate(512.451331 518.598438)scale(0.1 -0.1)">
       <defs>
        <path d="M 2419 4116 
L 825 1625 
L 2419 1625 
L 2419 4116 
z
M 2253 4666 
L 3047 4666 
L 3047 1625 
L 3713 1625 
L 3713 1100 
L 3047 1100 
L 3047 0 
L 2419 0 
L 2419 1100 
L 313 1100 
L 313 1709 
L 2253 4666 
z
" id="DejaVuSans-34" transform="scale(0.015625)"/>
       </defs>
       <use xlink:href="#DejaVuSans-34"/>
       <use x="63.623047" xlink:href="#DejaVuSans-30"/>
       <use x="127.246094" xlink:href="#DejaVuSans-30"/>
      </g>
     </g>
    </g>
    <g id="xtick_6">
     <g id="line2d_6">
      <g>
       <use style="stroke:#000000;stroke-width:0.8;" x="623.652942" xlink:href="#mabd10495c8" y="504"/>
      </g>
     </g>
     <g id="text_6">
      <!-- 500 -->
      <g transform="translate(614.109192 518.598438)scale(0.1 -0.1)">
       <defs>
        <path d="M 691 4666 
L 3169 4666 
L 3169 4134 
L 1269 4134 
L 1269 2991 
Q 1406 3038 1543 3061 
Q 1681 3084 1819 3084 
Q 2600 3084 3056 2656 
Q 3513 2228 3513 1497 
Q 3513 744 3044 326 
Q 2575 -91 1722 -91 
Q 1428 -91 1123 -41 
Q 819 9 494 109 
L 494 744 
Q 775 591 1075 516 
Q 1375 441 1709 441 
Q 2250 441 2565 725 
Q 2881 1009 2881 1497 
Q 2881 1984 2565 2268 
Q 2250 2553 1709 2553 
Q 1456 2553 1204 2497 
Q 953 2441 691 2322 
L 691 4666 
z
" id="DejaVuSans-35" transform="scale(0.015625)"/>
       </defs>
       <use xlink:href="#DejaVuSans-35"/>
       <use x="63.623047" xlink:href="#DejaVuSans-30"/>
       <use x="127.246094" xlink:href="#DejaVuSans-30"/>
      </g>
     </g>
    </g>
   </g>
   <g id="matplotlib.axis_2">
    <g id="ytick_1">
     <g id="line2d_7">
      <defs>
       <path d="M 0 0 
L -3.5 0 
" id="m025eec939a" style="stroke:#000000;stroke-width:0.8;"/>
      </defs>
      <g>
       <use style="stroke:#000000;stroke-width:0.8;" x="90" xlink:href="#m025eec939a" y="484.037926"/>
      </g>
     </g>
     <g id="text_7">
      <!-- −200 -->
      <g transform="translate(55.532812 487.837145)scale(0.1 -0.1)">
       <defs>
        <path d="M 678 2272 
L 4684 2272 
L 4684 1741 
L 678 1741 
L 678 2272 
z
" id="DejaVuSans-2212" transform="scale(0.015625)"/>
       </defs>
       <use xlink:href="#DejaVuSans-2212"/>
       <use x="83.789062" xlink:href="#DejaVuSans-32"/>
       <use x="147.412109" xlink:href="#DejaVuSans-30"/>
       <use x="211.035156" xlink:href="#DejaVuSans-30"/>
      </g>
     </g>
    </g>
    <g id="ytick_2">
     <g id="line2d_8">
      <g>
       <use style="stroke:#000000;stroke-width:0.8;" x="90" xlink:href="#m025eec939a" y="423.811118"/>
      </g>
     </g>
     <g id="text_8">
      <!-- −150 -->
      <g transform="translate(55.532812 427.610337)scale(0.1 -0.1)">
       <use xlink:href="#DejaVuSans-2212"/>
       <use x="83.789062" xlink:href="#DejaVuSans-31"/>
       <use x="147.412109" xlink:href="#DejaVuSans-35"/>
       <use x="211.035156" xlink:href="#DejaVuSans-30"/>
      </g>
     </g>
    </g>
    <g id="ytick_3">
     <g id="line2d_9">
      <g>
       <use style="stroke:#000000;stroke-width:0.8;" x="90" xlink:href="#m025eec939a" y="363.584311"/>
      </g>
     </g>
     <g id="text_9">
      <!-- −100 -->
      <g transform="translate(55.532812 367.38353)scale(0.1 -0.1)">
       <use xlink:href="#DejaVuSans-2212"/>
       <use x="83.789062" xlink:href="#DejaVuSans-31"/>
       <use x="147.412109" xlink:href="#DejaVuSans-30"/>
       <use x="211.035156" xlink:href="#DejaVuSans-30"/>
      </g>
     </g>
    </g>
    <g id="ytick_4">
     <g id="line2d_10">
      <g>
       <use style="stroke:#000000;stroke-width:0.8;" x="90" xlink:href="#m025eec939a" y="303.357503"/>
      </g>
     </g>
     <g id="text_10">
      <!-- −50 -->
      <g transform="translate(61.895313 307.156722)scale(0.1 -0.1)">
       <use xlink:href="#DejaVuSans-2212"/>
       <use x="83.789062" xlink:href="#DejaVuSans-35"/>
       <use x="147.412109" xlink:href="#DejaVuSans-30"/>
      </g>
     </g>
    </g>
    <g id="ytick_5">
     <g id="line2d_11">
      <g>
       <use style="stroke:#000000;stroke-width:0.8;" x="90" xlink:href="#m025eec939a" y="243.130695"/>
      </g>
     </g>
     <g id="text_11">
      <!-- 0 -->
      <g transform="translate(76.6375 246.929914)scale(0.1 -0.1)">
       <use xlink:href="#DejaVuSans-30"/>
      </g>
     </g>
    </g>
    <g id="ytick_6">
     <g id="line2d_12">
      <g>
       <use style="stroke:#000000;stroke-width:0.8;" x="90" xlink:href="#m025eec939a" y="182.903888"/>
      </g>
     </g>
     <g id="text_12">
      <!-- 50 -->
      <g transform="translate(70.275 186.703106)scale(0.1 -0.1)">
       <use xlink:href="#DejaVuSans-35"/>
       <use x="63.623047" xlink:href="#DejaVuSans-30"/>
      </g>
     </g>
    </g>
    <g id="ytick_7">
     <g id="line2d_13">
      <g>
       <use style="stroke:#000000;stroke-width:0.8;" x="90" xlink:href="#m025eec939a" y="122.67708"/>
      </g>
     </g>
     <g id="text_13">
      <!-- 100 -->
      <g transform="translate(63.9125 126.476299)scale(0.1 -0.1)">
       <use xlink:href="#DejaVuSans-31"/>
       <use x="63.623047" xlink:href="#DejaVuSans-30"/>
       <use x="127.246094" xlink:href="#DejaVuSans-30"/>
      </g>
     </g>
    </g>
   </g>
   <g id="line2d_14">
    <path clip-path="url(#pe6a4f69f63)" d="M 115.363636 243.130143 
L 131.628894 243.249228 
L 134.67863 243.364233 
L 137.728366 243.228537 
L 147.894152 243.240298 
L 158.059938 243.383454 
L 181.441246 243.29199 
L 183.474403 243.19536 
L 222.104391 242.909468 
L 224.137548 242.821299 
L 242.435963 242.739769 
L 244.46912 242.651303 
L 262.767535 242.565778 
L 264.800692 242.477272 
L 280.049371 242.474567 
L 287.165422 242.56049 
L 303.43068 242.501814 
L 305.463837 242.424396 
L 343.077245 242.273662 
L 346.126981 242.09615 
L 384.756968 242.078502 
L 386.790126 241.886071 
L 396.955912 241.941134 
L 405.088541 241.849755 
L 407.121698 241.762254 
L 425.420113 241.664131 
L 427.45327 241.600572 
L 434.56932 241.65232 
L 444.735107 241.651967 
L 447.784842 241.479295 
L 485.398251 241.445776 
L 486.41483 243.130695 
L 487.431408 243.12779 
L 488.447987 242.909336 
L 493.53088 242.958723 
L 497.597194 243.040187 
L 500.64693 242.869893 
L 513.862452 242.876448 
L 516.912188 242.946545 
L 518.945345 243.520629 
L 535.210603 243.545276 
L 542.326653 243.662825 
L 558.591911 243.676139 
L 564.691383 243.700521 
L 576.890326 243.752131 
L 578.923483 243.819672 
L 601.288213 243.91011 
L 603.32137 244.037629 
L 609.420842 244.042179 
L 622.636364 244.016779 
L 622.636364 244.016779 
" style="fill:none;stroke:#1f77b4;stroke-linecap:square;stroke-width:1.5;"/>
   </g>
   <g id="line2d_15">
    <path clip-path="url(#pe6a4f69f63)" d="M 115.363636 242.174498 
L 116.380215 243.130695 
L 117.396794 211.624826 
L 118.413372 209.708266 
L 120.446529 206.786884 
L 122.479687 205.807829 
L 124.512844 204.40259 
L 126.546001 201.408445 
L 128.579158 201.492798 
L 130.612316 196.50037 
L 132.645473 196.573849 
L 134.67863 192.45009 
L 138.744944 192.499305 
L 141.79468 191.797678 
L 142.811259 191.481356 
L 144.844416 189.361105 
L 146.877573 186.533433 
L 148.910731 186.745354 
L 149.927309 262.381782 
L 150.943888 483.436237 
L 151.960466 483.401973 
L 153.993624 482.62998 
L 156.026781 482.65112 
L 158.059938 481.616784 
L 161.109674 481.620316 
L 163.142831 480.799732 
L 173.308617 480.801053 
L 175.341774 482.575022 
L 189.573875 482.602206 
L 191.607032 484.232727 
L 193.640189 484.232727 
L 195.673347 481.435958 
L 197.706504 481.449279 
L 199.739661 480.117127 
L 204.822554 480.037133 
L 205.839133 479.958499 
L 207.87229 477.470875 
L 209.905447 438.594731 
L 213.971762 438.66086 
L 216.004919 439.618419 
L 226.170705 439.731972 
L 228.203862 440.219816 
L 230.237019 440.223367 
L 231.253598 440.68768 
L 232.270177 441.680875 
L 233.286755 442.207887 
L 236.336491 442.283446 
L 238.369648 442.384756 
L 249.552013 442.403589 
L 251.58517 443.403817 
L 254.634906 443.49347 
L 256.668063 443.592398 
L 269.883585 443.648253 
L 271.916743 444.378076 
L 273.9499 444.390452 
L 275.983057 444.826849 
L 283.099107 444.895805 
L 284.115686 445.112486 
L 285.132265 445.533754 
L 286.148843 445.759294 
L 287.165422 445.780416 
L 289.198579 446.203208 
L 290.215158 446.211014 
L 292.248315 446.684798 
L 295.298051 446.796657 
L 297.331208 446.920008 
L 306.480415 446.988618 
L 308.513573 448.116281 
L 309.530151 448.145725 
L 311.563308 449.008497 
L 313.596466 449.028727 
L 315.629623 449.476426 
L 320.712516 449.585262 
L 322.745673 449.824574 
L 326.811988 450.269122 
L 333.928038 450.267036 
L 334.944617 450.50034 
L 335.961195 451.025446 
L 336.977774 451.379107 
L 339.010931 451.441786 
L 346.126981 451.40559 
L 348.160138 451.187519 
L 350.193296 450.323948 
L 352.226453 450.425522 
L 354.25961 450.95712 
L 356.292767 451.016842 
L 358.325925 451.101533 
L 365.441975 451.172906 
L 369.508289 451.339406 
L 373.574604 451.330144 
L 375.607761 451.628122 
L 390.85644 451.571095 
L 391.873019 451.446255 
L 393.906176 451.758301 
L 394.922755 451.758301 
L 397.97249 452.027947 
L 413.22117 452.132931 
L 416.270905 452.311134 
L 418.304063 452.382728 
L 420.33722 452.450817 
L 427.45327 452.2994 
L 430.503006 452.197688 
L 432.536163 452.061286 
L 434.56932 453.531408 
L 442.701949 453.751826 
L 454.900893 453.82637 
L 456.93405 453.895385 
L 458.967207 453.894054 
L 461.000364 453.3256 
L 465.066679 452.980504 
L 472.182729 452.980443 
L 474.215886 452.429089 
L 480.315358 452.554474 
L 484.381672 452.59035 
L 485.398251 452.59035 
L 486.41483 243.130695 
L 487.431408 242.995553 
L 488.447987 185.11139 
L 489.464565 183.210633 
L 491.497723 178.70008 
L 493.53088 172.136179 
L 495.564037 172.455652 
L 496.580616 155.6878 
L 497.597194 142.113957 
L 498.613773 142.419077 
L 500.64693 117.022258 
L 502.680087 117.11891 
L 504.713245 116.108825 
L 505.729823 116.111465 
L 507.762981 115.743108 
L 509.796138 114.833328 
L 510.812716 114.833328 
L 512.845874 113.994535 
L 515.895609 113.88536 
L 524.028238 113.913035 
L 527.077974 113.709667 
L 529.111131 112.270398 
L 531.144289 110.19418 
L 533.177446 110.292746 
L 535.210603 103.96356 
L 537.24376 104.083435 
L 539.276917 97.813656 
L 541.310075 93.06251 
L 543.343232 93.102559 
L 546.392968 90.400025 
L 548.426125 88.887273 
L 550.459282 96.143017 
L 561.641647 96.24798 
L 571.807433 96.267545 
L 584.006376 96.265332 
L 586.039534 96.130973 
L 588.072691 95.771312 
L 612.470578 95.953913 
L 622.636364 95.956757 
L 622.636364 95.956757 
" style="fill:none;stroke:#ff7f0e;stroke-linecap:square;stroke-width:1.5;"/>
   </g>
   <g id="line2d_16">
    <path clip-path="url(#pe6a4f69f63)" d="M 115.363636 243.129713 
L 139.761523 243.257141 
L 142.811259 243.253702 
L 144.844416 243.621721 
L 156.026781 243.56735 
L 171.27546 243.586251 
L 375.607761 243.663802 
L 377.640918 243.719232 
L 407.121698 243.759059 
L 485.398251 243.644177 
L 486.41483 243.130695 
L 527.077974 243.189185 
L 530.12771 243.28932 
L 536.227182 243.255678 
L 547.409546 243.3672 
L 549.442704 336.966012 
L 553.509018 336.92839 
L 586.039534 336.999514 
L 588.072691 337.323775 
L 595.188741 337.394807 
L 622.636364 337.448902 
L 622.636364 337.448902 
" style="fill:none;stroke:#2ca02c;stroke-linecap:square;stroke-width:1.5;"/>
   </g>
   <g id="patch_3">
    <path d="M 90 504 
L 90 69.12 
" style="fill:none;stroke:#000000;stroke-linecap:square;stroke-linejoin:miter;stroke-width:0.8;"/>
   </g>
   <g id="patch_4">
    <path d="M 648 504 
L 648 69.12 
" style="fill:none;stroke:#000000;stroke-linecap:square;stroke-linejoin:miter;stroke-width:0.8;"/>
   </g>
   <g id="patch_5">
    <path d="M 90 504 
L 648 504 
" style="fill:none;stroke:#000000;stroke-linecap:square;stroke-linejoin:miter;stroke-width:0.8;"/>
   </g>
   <g id="patch_6">
    <path d="M 90 69.12 
L 648 69.12 
" style="fill:none;stroke:#000000;stroke-linecap:square;stroke-linejoin:miter;stroke-width:0.8;"/>
   </g>
  </g>
 </g>
 <defs>
  <clipPath id="pe6a4f69f63">
   <rect height="434.88" width="558" x="90" y="69.12"/>
  </clipPath>
 </defs>
</svg>
