<?xml version="1.0" encoding="utf-8" standalone="no"?>
<!DOCTYPE svg PUBLIC "-//W3C//DTD SVG 1.1//EN"
  "http://www.w3.org/Graphics/SVG/1.1/DTD/svg11.dtd">
<svg height="576pt" version="1.1" viewBox="0 0 720 576" width="720pt" xmlns="http://www.w3.org/2000/svg" xmlns:xlink="http://www.w3.org/1999/xlink">
 <metadata>
  <rdf:RDF xmlns:cc="http://creativecommons.org/ns#" xmlns:dc="http://purl.org/dc/elements/1.1/" xmlns:rdf="http://www.w3.org/1999/02/22-rdf-syntax-ns#">
   <cc:Work>
    <dc:type rdf:resource="http://purl.org/dc/dcmitype/StillImage"/>
    <dc:date>2022-01-12T19:43:21.425887</dc:date>
    <dc:format>image/svg+xml</dc:format>
    <dc:creator>
     <cc:Agent>
      <dc:title>Matplotlib v3.4.3, https://matplotlib.org/</dc:title>
     </cc:Agent>
    </dc:creator>
   </cc:Work>
  </rdf:RDF>
 </metadata>
 <defs>
  <style type="text/css">*{stroke-linecap:butt;stroke-linejoin:round;}</style>
 </defs>
 <g id="figure_1">
  <g id="patch_1">
   <path d="M 0 576 
L 720 576 
L 720 0 
L 0 0 
z
" style="fill:none;"/>
  </g>
  <g id="axes_1">
   <g id="patch_2">
    <path d="M 90 504 
L 648 504 
L 648 69.12 
L 90 69.12 
z
" style="fill:#ffffff;"/>
   </g>
   <g id="matplotlib.axis_1">
    <g id="xtick_1">
     <g id="line2d_1">
      <defs>
       <path d="M 0 0 
L 0 3.5 
" id="m49fa42905f" style="stroke:#000000;stroke-width:0.8;"/>
      </defs>
      <g>
       <use style="stroke:#000000;stroke-width:0.8;" x="115.363636" xlink:href="#m49fa42905f" y="504"/>
      </g>
     </g>
     <g id="text_1">
      <!-- 0 -->
      <g transform="translate(112.182386 518.598438)scale(0.1 -0.1)">
       <defs>
        <path d="M 2034 4250 
Q 1547 4250 1301 3770 
Q 1056 3291 1056 2328 
Q 1056 1369 1301 889 
Q 1547 409 2034 409 
Q 2525 409 2770 889 
Q 3016 1369 3016 2328 
Q 3016 3291 2770 3770 
Q 2525 4250 2034 4250 
z
M 2034 4750 
Q 2819 4750 3233 4129 
Q 3647 3509 3647 2328 
Q 3647 1150 3233 529 
Q 2819 -91 2034 -91 
Q 1250 -91 836 529 
Q 422 1150 422 2328 
Q 422 3509 836 4129 
Q 1250 4750 2034 4750 
z
" id="DejaVuSans-30" transform="scale(0.015625)"/>
       </defs>
       <use xlink:href="#DejaVuSans-30"/>
      </g>
     </g>
    </g>
    <g id="xtick_2">
     <g id="line2d_2">
      <g>
       <use style="stroke:#000000;stroke-width:0.8;" x="217.021498" xlink:href="#m49fa42905f" y="504"/>
      </g>
     </g>
     <g id="text_2">
      <!-- 100 -->
      <g transform="translate(207.477748 518.598438)scale(0.1 -0.1)">
       <defs>
        <path d="M 794 531 
L 1825 531 
L 1825 4091 
L 703 3866 
L 703 4441 
L 1819 4666 
L 2450 4666 
L 2450 531 
L 3481 531 
L 3481 0 
L 794 0 
L 794 531 
z
" id="DejaVuSans-31" transform="scale(0.015625)"/>
       </defs>
       <use xlink:href="#DejaVuSans-31"/>
       <use x="63.623047" xlink:href="#DejaVuSans-30"/>
       <use x="127.246094" xlink:href="#DejaVuSans-30"/>
      </g>
     </g>
    </g>
    <g id="xtick_3">
     <g id="line2d_3">
      <g>
       <use style="stroke:#000000;stroke-width:0.8;" x="318.679359" xlink:href="#m49fa42905f" y="504"/>
      </g>
     </g>
     <g id="text_3">
      <!-- 200 -->
      <g transform="translate(309.135609 518.598438)scale(0.1 -0.1)">
       <defs>
        <path d="M 1228 531 
L 3431 531 
L 3431 0 
L 469 0 
L 469 531 
Q 828 903 1448 1529 
Q 2069 2156 2228 2338 
Q 2531 2678 2651 2914 
Q 2772 3150 2772 3378 
Q 2772 3750 2511 3984 
Q 2250 4219 1831 4219 
Q 1534 4219 1204 4116 
Q 875 4013 500 3803 
L 500 4441 
Q 881 4594 1212 4672 
Q 1544 4750 1819 4750 
Q 2544 4750 2975 4387 
Q 3406 4025 3406 3419 
Q 3406 3131 3298 2873 
Q 3191 2616 2906 2266 
Q 2828 2175 2409 1742 
Q 1991 1309 1228 531 
z
" id="DejaVuSans-32" transform="scale(0.015625)"/>
       </defs>
       <use xlink:href="#DejaVuSans-32"/>
       <use x="63.623047" xlink:href="#DejaVuSans-30"/>
       <use x="127.246094" xlink:href="#DejaVuSans-30"/>
      </g>
     </g>
    </g>
    <g id="xtick_4">
     <g id="line2d_4">
      <g>
       <use style="stroke:#000000;stroke-width:0.8;" x="420.33722" xlink:href="#m49fa42905f" y="504"/>
      </g>
     </g>
     <g id="text_4">
      <!-- 300 -->
      <g transform="translate(410.79347 518.598438)scale(0.1 -0.1)">
       <defs>
        <path d="M 2597 2516 
Q 3050 2419 3304 2112 
Q 3559 1806 3559 1356 
Q 3559 666 3084 287 
Q 2609 -91 1734 -91 
Q 1441 -91 1130 -33 
Q 819 25 488 141 
L 488 750 
Q 750 597 1062 519 
Q 1375 441 1716 441 
Q 2309 441 2620 675 
Q 2931 909 2931 1356 
Q 2931 1769 2642 2001 
Q 2353 2234 1838 2234 
L 1294 2234 
L 1294 2753 
L 1863 2753 
Q 2328 2753 2575 2939 
Q 2822 3125 2822 3475 
Q 2822 3834 2567 4026 
Q 2313 4219 1838 4219 
Q 1578 4219 1281 4162 
Q 984 4106 628 3988 
L 628 4550 
Q 988 4650 1302 4700 
Q 1616 4750 1894 4750 
Q 2613 4750 3031 4423 
Q 3450 4097 3450 3541 
Q 3450 3153 3228 2886 
Q 3006 2619 2597 2516 
z
" id="DejaVuSans-33" transform="scale(0.015625)"/>
       </defs>
       <use xlink:href="#DejaVuSans-33"/>
       <use x="63.623047" xlink:href="#DejaVuSans-30"/>
       <use x="127.246094" xlink:href="#DejaVuSans-30"/>
      </g>
     </g>
    </g>
    <g id="xtick_5">
     <g id="line2d_5">
      <g>
       <use style="stroke:#000000;stroke-width:0.8;" x="521.995081" xlink:href="#m49fa42905f" y="504"/>
      </g>
     </g>
     <g id="text_5">
      <!-- 400 -->
      <g transform="translate(512.451331 518.598438)scale(0.1 -0.1)">
       <defs>
        <path d="M 2419 4116 
L 825 1625 
L 2419 1625 
L 2419 4116 
z
M 2253 4666 
L 3047 4666 
L 3047 1625 
L 3713 1625 
L 3713 1100 
L 3047 1100 
L 3047 0 
L 2419 0 
L 2419 1100 
L 313 1100 
L 313 1709 
L 2253 4666 
z
" id="DejaVuSans-34" transform="scale(0.015625)"/>
       </defs>
       <use xlink:href="#DejaVuSans-34"/>
       <use x="63.623047" xlink:href="#DejaVuSans-30"/>
       <use x="127.246094" xlink:href="#DejaVuSans-30"/>
      </g>
     </g>
    </g>
    <g id="xtick_6">
     <g id="line2d_6">
      <g>
       <use style="stroke:#000000;stroke-width:0.8;" x="623.652942" xlink:href="#m49fa42905f" y="504"/>
      </g>
     </g>
     <g id="text_6">
      <!-- 500 -->
      <g transform="translate(614.109192 518.598438)scale(0.1 -0.1)">
       <defs>
        <path d="M 691 4666 
L 3169 4666 
L 3169 4134 
L 1269 4134 
L 1269 2991 
Q 1406 3038 1543 3061 
Q 1681 3084 1819 3084 
Q 2600 3084 3056 2656 
Q 3513 2228 3513 1497 
Q 3513 744 3044 326 
Q 2575 -91 1722 -91 
Q 1428 -91 1123 -41 
Q 819 9 494 109 
L 494 744 
Q 775 591 1075 516 
Q 1375 441 1709 441 
Q 2250 441 2565 725 
Q 2881 1009 2881 1497 
Q 2881 1984 2565 2268 
Q 2250 2553 1709 2553 
Q 1456 2553 1204 2497 
Q 953 2441 691 2322 
L 691 4666 
z
" id="DejaVuSans-35" transform="scale(0.015625)"/>
       </defs>
       <use xlink:href="#DejaVuSans-35"/>
       <use x="63.623047" xlink:href="#DejaVuSans-30"/>
       <use x="127.246094" xlink:href="#DejaVuSans-30"/>
      </g>
     </g>
    </g>
   </g>
   <g id="matplotlib.axis_2">
    <g id="ytick_1">
     <g id="line2d_7">
      <defs>
       <path d="M 0 0 
L -3.5 0 
" id="mbe88912352" style="stroke:#000000;stroke-width:0.8;"/>
      </defs>
      <g>
       <use style="stroke:#000000;stroke-width:0.8;" x="90" xlink:href="#mbe88912352" y="460.512"/>
      </g>
     </g>
     <g id="text_7">
      <!-- −40 -->
      <g transform="translate(61.895313 464.311219)scale(0.1 -0.1)">
       <defs>
        <path d="M 678 2272 
L 4684 2272 
L 4684 1741 
L 678 1741 
L 678 2272 
z
" id="DejaVuSans-2212" transform="scale(0.015625)"/>
       </defs>
       <use xlink:href="#DejaVuSans-2212"/>
       <use x="83.789062" xlink:href="#DejaVuSans-34"/>
       <use x="147.412109" xlink:href="#DejaVuSans-30"/>
      </g>
     </g>
    </g>
    <g id="ytick_2">
     <g id="line2d_8">
      <g>
       <use style="stroke:#000000;stroke-width:0.8;" x="90" xlink:href="#mbe88912352" y="373.536"/>
      </g>
     </g>
     <g id="text_8">
      <!-- −20 -->
      <g transform="translate(61.895313 377.335219)scale(0.1 -0.1)">
       <use xlink:href="#DejaVuSans-2212"/>
       <use x="83.789062" xlink:href="#DejaVuSans-32"/>
       <use x="147.412109" xlink:href="#DejaVuSans-30"/>
      </g>
     </g>
    </g>
    <g id="ytick_3">
     <g id="line2d_9">
      <g>
       <use style="stroke:#000000;stroke-width:0.8;" x="90" xlink:href="#mbe88912352" y="286.56"/>
      </g>
     </g>
     <g id="text_9">
      <!-- 0 -->
      <g transform="translate(76.6375 290.359219)scale(0.1 -0.1)">
       <use xlink:href="#DejaVuSans-30"/>
      </g>
     </g>
    </g>
    <g id="ytick_4">
     <g id="line2d_10">
      <g>
       <use style="stroke:#000000;stroke-width:0.8;" x="90" xlink:href="#mbe88912352" y="199.584"/>
      </g>
     </g>
     <g id="text_10">
      <!-- 20 -->
      <g transform="translate(70.275 203.383219)scale(0.1 -0.1)">
       <use xlink:href="#DejaVuSans-32"/>
       <use x="63.623047" xlink:href="#DejaVuSans-30"/>
      </g>
     </g>
    </g>
    <g id="ytick_5">
     <g id="line2d_11">
      <g>
       <use style="stroke:#000000;stroke-width:0.8;" x="90" xlink:href="#mbe88912352" y="112.608"/>
      </g>
     </g>
     <g id="text_11">
      <!-- 40 -->
      <g transform="translate(70.275 116.407219)scale(0.1 -0.1)">
       <use xlink:href="#DejaVuSans-34"/>
       <use x="63.623047" xlink:href="#DejaVuSans-30"/>
      </g>
     </g>
    </g>
   </g>
   <g id="line2d_12">
    <path clip-path="url(#p1e561a0a13)" d="M 115.363636 286.558006 
L 118.413372 286.540423 
L 119.429951 286.18997 
L 120.446529 286.56 
L 122.479687 286.515157 
L 123.496265 286.372818 
L 124.512844 286.557727 
L 126.546001 286.56 
L 127.56258 288.689908 
L 128.579158 286.56 
L 130.612316 286.56 
L 131.628894 292.586658 
L 132.645473 286.559134 
L 133.662051 288.704738 
L 134.67863 286.56 
L 135.695209 280.000993 
L 136.711787 286.560038 
L 137.728366 286.56 
L 138.744944 285.813186 
L 139.761523 286.415411 
L 140.778102 286.557567 
L 141.79468 286.423917 
L 142.811259 286.559964 
L 143.827837 286.946575 
L 144.844416 286.56 
L 146.877573 286.56 
L 147.894152 289.225998 
L 148.910731 286.559998 
L 149.927309 286.576243 
L 150.943888 290.77855 
L 151.960466 286.56 
L 152.977045 286.495228 
L 153.993624 286.56 
L 156.026781 286.416396 
L 157.043359 285.467264 
L 158.059938 286.56 
L 159.076517 285.742763 
L 160.093095 282.076333 
L 161.109674 286.56 
L 162.126253 287.419912 
L 163.142831 286.56 
L 164.15941 292.515336 
L 165.175988 286.56 
L 173.308617 286.495502 
L 174.325196 286.371728 
L 177.374932 286.56 
L 180.424668 286.56 
L 181.441246 242.40775 
L 182.457825 286.56 
L 183.474403 286.56 
L 184.490982 283.522736 
L 185.507561 286.559998 
L 186.524139 287.962058 
L 187.540718 286.56 
L 189.573875 286.56 
L 190.590454 286.427083 
L 191.607032 286.56 
L 193.640189 286.56 
L 194.656768 286.279227 
L 195.673347 286.56 
L 196.689925 285.917249 
L 197.706504 286.556516 
L 198.723083 284.494926 
L 199.739661 286.56 
L 200.75624 286.56 
L 201.772818 243.212118 
L 202.789397 286.560003 
L 207.87229 286.56 
L 208.888869 289.100782 
L 209.905447 286.56 
L 210.922026 288.30939 
L 211.938604 286.56 
L 212.955183 286.56 
L 213.971762 285.801387 
L 214.98834 286.366324 
L 216.004919 286.403405 
L 217.021498 286.56 
L 221.087812 286.56 
L 222.104391 253.500485 
L 223.120969 286.56 
L 224.137548 286.56 
L 225.154126 286.077119 
L 226.170705 285.407034 
L 227.187284 288.523017 
L 228.203862 288.78186 
L 229.220441 286.56 
L 230.237019 286.350949 
L 235.319913 286.56 
L 236.336491 286.429743 
L 237.35307 285.969388 
L 238.369648 286.56 
L 241.419384 286.56 
L 242.435963 252.920454 
L 243.452541 286.56 
L 244.46912 286.56 
L 245.485699 286.323239 
L 246.502277 286.482706 
L 247.518856 286.516268 
L 248.535435 285.975471 
L 249.552013 286.56 
L 250.568592 286.399013 
L 251.58517 288.30534 
L 252.601749 286.56 
L 253.618328 286.56 
L 254.634906 285.99669 
L 255.651485 286.917738 
L 256.668063 286.56 
L 258.701221 286.567381 
L 259.717799 286.690011 
L 260.734378 286.560002 
L 261.750956 286.56 
L 262.767535 252.700442 
L 263.784114 286.56 
L 264.800692 286.56 
L 265.817271 283.703498 
L 266.83385 286.52639 
L 267.850428 286.578685 
L 268.867007 287.142501 
L 269.883585 286.55986 
L 270.900164 286.384654 
L 271.916743 288.304197 
L 272.933321 286.56 
L 273.9499 286.56 
L 274.966478 286.309801 
L 275.983057 286.917116 
L 276.999636 286.56 
L 280.049371 286.545113 
L 281.06595 285.192038 
L 282.082529 278.249793 
L 283.099107 286.56 
L 284.115686 307.656927 
L 285.132265 286.464656 
L 286.148843 291.81575 
L 287.165422 286.56 
L 288.182 287.40224 
L 289.198579 287.931179 
L 290.215158 286.56 
L 291.231736 286.370769 
L 292.248315 288.301766 
L 293.264893 286.56 
L 294.281472 286.56 
L 295.298051 286.069763 
L 296.314629 286.915034 
L 297.331208 286.56 
L 302.414101 286.56 
L 303.43068 256.451145 
L 304.447258 286.56 
L 305.463837 286.559998 
L 306.480415 285.763623 
L 307.496994 286.571608 
L 308.513573 290.192848 
L 309.530151 286.56 
L 310.54673 286.360313 
L 311.563308 288.641099 
L 312.579887 286.56 
L 313.596466 286.56 
L 314.613044 286.351681 
L 315.629623 287.285244 
L 316.646201 286.56 
L 318.679359 286.562154 
L 319.695937 285.37389 
L 320.712516 286.517831 
L 321.729095 286.407138 
L 322.745673 286.56 
L 323.762252 254.98619 
L 324.77883 286.37634 
L 325.795409 286.56 
L 326.811988 286.56 
L 327.828566 286.001407 
L 328.845145 286.56 
L 329.861723 285.814083 
L 330.878302 286.559995 
L 331.894881 286.029487 
L 332.911459 286.56 
L 333.928038 286.283932 
L 334.944617 286.343948 
L 336.977774 286.89531 
L 337.994352 286.56 
L 343.077245 286.56 
L 344.093824 251.280878 
L 345.110403 286.56 
L 348.160138 286.56 
L 349.176717 289.096741 
L 350.193296 286.56 
L 351.209874 289.071244 
L 352.226453 286.56 
L 353.243032 286.331168 
L 354.25961 286.56 
L 355.276189 286.56 
L 356.292767 286.21293 
L 357.309346 286.910556 
L 358.325925 286.56 
L 360.359082 286.631706 
L 361.37566 286.303404 
L 362.392239 286.338915 
L 363.408818 278.173876 
L 364.425396 286.56 
L 365.441975 306.966101 
L 366.458553 286.56 
L 367.475132 286.394182 
L 368.491711 287.031671 
L 369.508289 286.558357 
L 370.524868 284.946658 
L 371.541447 286.56 
L 372.558025 285.273711 
L 373.574604 286.56 
L 374.591182 286.322268 
L 375.607761 287.625672 
L 376.62434 286.56 
L 378.657497 286.461957 
L 379.674075 285.958051 
L 380.690654 286.56 
L 383.74039 286.56 
L 384.756968 251.511173 
L 385.773547 265.78854 
L 386.790126 286.56 
L 387.806704 292.647392 
L 388.823283 286.56 
L 389.839862 286.559985 
L 390.85644 289.226271 
L 391.873019 286.56 
L 392.889597 288.644541 
L 393.906176 286.56 
L 394.922755 286.56 
L 395.939333 286.316042 
L 396.955912 287.282053 
L 397.97249 286.56 
L 400.005648 286.560653 
L 401.022226 285.409904 
L 402.038805 286.576285 
L 404.071962 286.56 
L 405.088541 251.664106 
L 406.105119 286.56 
L 407.121698 286.56 
L 408.138277 286.251675 
L 409.154855 286.54811 
L 410.171434 285.90414 
L 411.188012 286.56 
L 413.22117 286.56 
L 414.237748 286.284396 
L 415.254327 286.56 
L 416.270905 286.56 
L 417.287484 285.808971 
L 418.304063 286.5393 
L 420.33722 286.56 
L 421.353799 286.368043 
L 422.370377 286.522471 
L 424.403534 286.56 
L 425.420113 251.90296 
L 426.436692 286.560246 
L 427.45327 295.846675 
L 428.469849 286.56 
L 429.486427 286.448142 
L 430.503006 286.56 
L 431.519585 289.502307 
L 432.536163 286.56 
L 433.552742 288.54782 
L 434.56932 288.293448 
L 435.585899 286.56 
L 436.602478 286.56 
L 437.619056 286.000771 
L 438.635635 286.322992 
L 439.652214 286.32142 
L 440.668792 286.614587 
L 443.718528 286.56 
L 444.735107 286.56 
L 445.751685 251.860755 
L 446.768264 286.56 
L 447.784842 286.56 
L 448.801421 286.148828 
L 449.818 286.536112 
L 450.834578 286.120302 
L 451.851157 286.56 
L 452.867735 284.450809 
L 453.884314 286.56 
L 454.900893 286.252851 
L 455.917471 286.56 
L 458.967207 286.56 
L 459.983786 286.340019 
L 461.000364 286.56 
L 462.016943 285.635056 
L 463.033522 286.56 
L 465.066679 286.56 
L 466.083257 285.521008 
L 467.099836 286.56 
L 472.182729 286.56 
L 473.199308 286.197116 
L 474.215886 286.56 
L 475.232465 286.666805 
L 477.265622 286.56 
L 478.282201 285.988319 
L 479.298779 286.314381 
L 480.315358 286.339873 
L 481.331937 286.570568 
L 487.431408 286.54951 
L 488.447987 285.781795 
L 489.464565 286.56056 
L 490.481144 286.8618 
L 491.497723 286.56 
L 492.514301 289.788992 
L 493.53088 286.56 
L 494.547459 291.38562 
L 495.564037 286.548511 
L 496.580616 287.329483 
L 497.597194 286.56 
L 498.613773 270.761656 
L 499.630352 285.935019 
L 500.64693 286.56 
L 501.663509 284.835723 
L 502.680087 286.51535 
L 504.713245 286.56 
L 505.729823 287.050513 
L 507.762981 286.56 
L 508.779559 286.496461 
L 510.812716 286.56 
L 512.845874 286.56 
L 513.862452 290.615743 
L 514.879031 286.559892 
L 515.895609 293.175252 
L 516.912188 286.56 
L 517.928767 357.344682 
L 518.945345 286.56 
L 519.961924 285.626574 
L 520.978502 286.56 
L 521.995081 286.56 
L 523.01166 286.068763 
L 524.028238 286.535969 
L 528.094553 286.449213 
L 529.111131 286.56 
L 530.12771 288.613997 
L 531.144289 286.56 
L 532.160867 289.273421 
L 533.177446 286.56 
L 534.194024 286.645795 
L 535.210603 286.56 
L 536.227182 294.168562 
L 537.24376 286.5706 
L 538.260339 300.147584 
L 539.276917 286.56 
L 540.293496 281.592926 
L 541.310075 286.56 
L 542.326653 284.960008 
L 543.343232 286.555392 
L 545.376389 286.56 
L 546.392968 287.338546 
L 547.409546 286.56 
L 548.426125 288.008685 
L 549.442704 288.293071 
L 550.459282 286.338719 
L 551.475861 286.56 
L 552.492439 285.821709 
L 553.509018 286.56 
L 555.542175 286.552587 
L 556.558754 286.28537 
L 557.575332 286.762475 
L 558.591911 286.505653 
L 559.60849 293.458367 
L 560.625068 286.56 
L 561.641647 283.763566 
L 562.658226 286.56 
L 567.741119 286.556167 
L 568.757697 285.853029 
L 569.774276 286.56 
L 570.790854 286.573635 
L 571.807433 286.463416 
L 572.824012 286.050748 
L 573.84059 286.581869 
L 574.857169 285.204015 
L 575.873747 286.56 
L 576.890326 309.021594 
L 577.906905 286.56 
L 579.940062 286.559965 
L 580.956641 288.450125 
L 581.973219 286.555917 
L 582.989798 286.828071 
L 584.006376 286.56 
L 585.022955 286.817676 
L 586.039534 286.56 
L 587.056112 286.934477 
L 588.072691 286.56 
L 589.089269 287.196669 
L 590.105848 286.8122 
L 591.122427 286.556338 
L 592.139005 286.437591 
L 593.155584 286.560025 
L 598.238477 286.56 
L 599.255056 279.883577 
L 600.271634 286.56 
L 601.288213 322.95356 
L 602.304791 286.56 
L 603.32137 292.692189 
L 604.337949 286.56 
L 605.354527 286.385617 
L 606.371106 286.56002 
L 608.404263 286.552412 
L 609.420842 282.309271 
L 610.43742 287.376276 
L 611.453999 285.501122 
L 612.470578 284.914555 
L 613.487156 286.56 
L 616.536892 286.558461 
L 617.553471 286.421794 
L 618.570049 286.56 
L 622.636364 286.554488 
L 622.636364 286.554488 
" style="fill:none;stroke:#1f77b4;stroke-linecap:square;stroke-width:1.5;"/>
   </g>
   <g id="line2d_13">
    <path clip-path="url(#p1e561a0a13)" d="M 115.363636 283.107792 
L 116.380215 286.56 
L 117.396794 172.812707 
L 118.413372 285.088321 
L 119.429951 192.106859 
L 120.446529 286.56021 
L 121.463108 254.97304 
L 122.479687 281.382151 
L 123.496265 238.687695 
L 124.512844 286.466527 
L 125.529422 173.837367 
L 126.546001 286.56 
L 127.56258 289.91606 
L 128.579158 286.56 
L 129.595737 82.293862 
L 130.612316 286.56 
L 131.628894 289.821034 
L 132.645473 286.573314 
L 133.662051 99.326589 
L 134.67863 286.56 
L 135.695209 290.052959 
L 136.711787 286.560294 
L 137.728366 286.56 
L 138.744944 284.333609 
L 139.761523 268.550856 
L 140.778102 287.127892 
L 141.79468 255.579328 
L 142.811259 286.556638 
L 143.827837 181.008662 
L 144.844416 286.56 
L 145.860995 139.587913 
L 146.877573 286.56 
L 147.894152 297.992935 
L 148.910731 286.559985 
L 148.947011 577 
M 150.905718 577 
L 150.943888 270.848536 
L 151.960466 286.56 
L 152.977045 109.733825 
L 153.993624 286.56 
L 155.010202 290.972375 
L 156.026781 287.396172 
L 157.043359 50.030984 
L 158.059938 286.56 
L 159.076517 286.384368 
L 160.093095 287.539298 
L 161.109674 286.56 
L 162.126253 100.008077 
L 163.142831 286.56 
L 164.15941 287.03851 
L 165.175988 286.56 
L 172.292039 286.56 
L 173.308617 286.202483 
L 174.045253 577 
M 174.608545 577 
L 175.341774 291.026627 
L 176.358353 286.56 
L 180.424668 286.56 
L 181.441246 288.288292 
L 182.457825 286.56 
L 183.474403 286.56 
L 184.490982 288.760988 
L 185.507561 286.559749 
L 186.524139 286.624243 
L 188.557296 286.559998 
L 189.573875 286.56 
L 190.365096 577 
M 190.815811 577 
L 191.607032 286.56 
L 193.640189 286.56 
L 194.095904 -1 
M 195.217633 -1 
L 195.673347 286.56 
L 196.689925 289.586734 
L 197.706504 286.563705 
L 198.672959 -1 
M 198.773206 -1 
L 199.739661 286.56 
L 200.75624 286.56 
L 201.772818 286.248314 
L 202.789397 286.558491 
L 203.805976 286.56 
L 204.822554 251.013331 
L 205.839133 286.56 
L 206.360583 -1 
M 207.35084 -1 
L 207.87229 286.56 
L 207.907375 -1 
M 209.870362 -1 
L 209.905447 286.56 
L 210.922026 300.065895 
L 211.938604 286.56 
L 212.955183 286.56 
L 213.971762 284.213919 
L 214.98834 464.95697 
L 216.004919 289.814475 
L 217.021498 286.56 
L 221.087812 286.56 
L 222.104391 289.171603 
L 223.120969 286.56 
L 224.137548 286.56 
L 225.154126 289.565333 
L 226.170705 314.655079 
L 227.187284 363.346352 
L 228.203862 288.014787 
L 229.220441 286.56 
L 230.237019 286.440806 
L 231.253598 461.298574 
L 232.270177 486.223515 
L 233.286755 286.561575 
L 235.319913 286.56 
L 236.336491 315.261183 
L 237.35307 291.459915 
L 238.369648 286.56 
L 241.419384 286.56 
L 242.435963 295.717699 
L 243.452541 286.56 
L 244.46912 286.560855 
L 245.485699 285.745547 
L 246.502277 283.950373 
L 247.518856 283.712368 
L 248.535435 287.252802 
L 249.552013 286.56 
L 250.568592 474.324637 
L 251.58517 291.837162 
L 252.601749 286.56 
L 253.618328 286.56 
L 254.634906 315.545742 
L 255.651485 290.979215 
L 256.668063 286.56 
L 257.684642 286.56 
L 258.701221 287.225128 
L 259.717799 289.47648 
L 260.734378 286.559865 
L 261.750956 286.56 
L 262.767535 290.640867 
L 263.784114 286.56 
L 264.800692 286.560004 
L 265.817271 293.229941 
L 266.83385 281.321174 
L 267.850428 286.584584 
L 268.867007 288.12576 
L 269.883585 286.559723 
L 270.900164 423.932446 
L 271.916743 291.312721 
L 272.933321 286.56 
L 273.9499 286.56 
L 274.966478 368.17782 
L 275.983057 291.00661 
L 276.999636 286.56 
L 278.016214 286.56 
L 279.032793 289.721272 
L 280.049371 286.584735 
L 281.06595 290.869734 
L 282.082529 290.112117 
L 283.099107 286.56 
L 284.115686 369.981903 
L 285.132265 365.49999 
L 286.148843 294.726889 
L 287.165422 286.56 
L 288.182 366.833968 
L 289.198579 289.584945 
L 290.215158 286.56 
L 291.231736 376.974239 
L 292.248315 289.433344 
L 293.264893 286.56 
L 294.281472 286.56 
L 295.298051 327.135552 
L 296.314629 290.241875 
L 297.331208 286.56 
L 302.414101 286.56 
L 303.43068 296.865283 
L 304.447258 286.56 
L 305.463837 286.565456 
L 306.480415 292.689696 
L 307.496994 497.365741 
L 308.513573 298.077179 
L 309.530151 286.56 
L 310.54673 451.521833 
L 311.563308 294.507387 
L 312.579887 286.56 
L 313.596466 286.56 
L 314.613044 371.947763 
L 315.629623 291.774067 
L 316.646201 286.56 
L 318.679359 286.618622 
L 319.695937 290.033879 
L 320.712516 317.137854 
L 321.729095 318.421332 
L 322.745673 286.56 
L 323.762252 333.083536 
L 324.77883 327.761116 
L 325.795409 286.56 
L 326.811988 286.56 
L 327.828566 287.381539 
L 328.845145 286.559993 
L 329.861723 285.929777 
L 330.878302 286.559995 
L 331.894881 286.046078 
L 332.911459 286.56 
L 333.928038 286.380944 
L 334.944617 378.952164 
L 335.961195 401.949269 
L 336.977774 311.466634 
L 337.994352 286.56 
L 339.010931 286.56 
L 340.02751 287.874724 
L 341.044088 286.567223 
L 343.077245 286.56 
L 344.093824 278.052816 
L 345.110403 286.56 
L 346.126981 286.543549 
L 347.14356 243.246187 
L 348.160138 286.56 
L 349.176717 115.315968 
L 350.193296 286.56 
L 351.209874 306.64171 
L 352.226453 286.56 
L 353.243032 391.764861 
L 354.25961 286.56 
L 355.276189 286.56 
L 356.292767 310.243998 
L 357.309346 291.516335 
L 358.325925 286.56 
L 359.342503 286.56 
L 360.359082 286.337789 
L 361.37566 286.985155 
L 362.392239 286.758177 
L 363.408818 289.298347 
L 364.425396 286.56 
L 365.441975 308.606963 
L 366.458553 286.56 
L 367.475132 305.914778 
L 368.491711 289.239736 
L 369.508289 286.5591 
L 370.524868 285.588999 
L 371.541447 286.559992 
L 372.558025 285.691596 
L 373.574604 286.56 
L 374.591182 345.469762 
L 375.607761 287.163434 
L 376.62434 286.56 
L 377.640918 286.56 
L 378.657497 306.252153 
L 379.674075 285.808427 
L 380.690654 286.56 
L 383.74039 286.56 
L 384.756968 284.15666 
L 385.773547 289.018376 
L 386.790126 286.56 
L 387.806704 280.745441 
L 388.823283 286.56 
L 389.839862 286.551434 
L 390.85644 236.906122 
L 391.873019 286.56 
L 392.889597 348.602789 
L 393.906176 286.56 
L 394.922755 286.56 
L 395.939333 334.351653 
L 396.955912 292.460291 
L 397.97249 286.56 
L 400.005648 286.511998 
L 401.022226 289.700401 
L 402.038805 301.885612 
L 403.055383 286.56 
L 404.071962 286.56 
L 405.088541 288.93051 
L 406.105119 286.56 
L 409.154855 286.536971 
L 410.171434 286.792104 
L 411.188012 286.559999 
L 413.22117 286.56 
L 414.237748 322.102533 
L 415.254327 286.56 
L 416.270905 286.56 
L 417.287484 287.255208 
L 418.304063 313.74719 
L 419.320641 286.56 
L 420.33722 286.559996 
L 421.353799 273.064656 
L 422.370377 272.160315 
L 423.386956 286.56 
L 424.403534 286.56 
L 425.420113 285.456448 
L 426.436692 286.56517 
L 427.45327 284.082294 
L 428.469849 286.56 
L 429.486427 267.503229 
L 430.503006 286.56 
L 431.519585 259.356318 
L 432.536163 286.56 
L 433.552742 572.132858 
L 434.56932 302.553261 
L 435.585899 286.56 
L 436.602478 286.56 
L 437.619056 284.964878 
L 438.635635 309.878831 
L 439.652214 303.331949 
L 440.668792 284.441073 
L 441.685371 286.557685 
L 442.701949 286.343475 
L 443.718528 286.56 
L 444.735107 286.56 
L 445.751685 288.807572 
L 446.768264 286.56 
L 449.818 286.567386 
L 450.834578 286.422181 
L 451.851157 286.56 
L 452.867735 285.737634 
L 453.884314 286.56 
L 454.900893 314.307509 
L 455.917471 286.56 
L 456.93405 286.56 
L 457.950629 286.292474 
L 458.967207 286.56 
L 459.983786 172.326746 
L 461.000364 286.56 
L 462.016943 245.693706 
L 463.033522 286.56 
L 464.0501 258.260341 
L 465.066679 286.56 
L 472.182729 286.56 
L 473.199308 176.241317 
L 474.215886 286.56 
L 475.232465 287.902177 
L 476.249044 286.56 
L 477.265622 286.56 
L 478.282201 284.80291 
L 479.298779 304.672455 
L 480.315358 301.248852 
L 481.331937 286.418197 
L 482.348515 286.56 
L 485.398251 286.56 
L 486.41483 286.56 
L 487.431408 286.072089 
L 488.447987 78.065684 
L 489.464565 284.622045 
L 490.481144 24.818066 
L 491.497723 286.56 
L 492.204231 -1 
M 492.824372 -1 
L 493.53088 286.56 
L 494.547459 306.393996 
L 495.564037 290.121964 
L 495.694503 -1 
M 497.468122 -1 
L 497.597194 286.56 
L 498.613773 345.3731 
L 498.745064 -1 
M 500.535488 -1 
L 500.64693 286.56 
L 501.663509 298.013986 
L 502.680087 286.90515 
L 503.696666 164.707365 
L 504.713245 286.56 
L 505.729823 287.199744 
L 506.746402 241.568262 
L 507.762981 286.56 
L 508.779559 175.79089 
L 509.796138 286.56 
L 510.812716 286.56 
L 511.829295 183.719849 
L 512.845874 286.56 
L 513.862452 272.157198 
L 514.879031 286.559963 
L 515.895609 288.458934 
L 516.912188 286.56 
L 517.928767 287.275527 
L 518.945345 286.56 
L 519.961924 286.434002 
L 520.978502 286.56 
L 521.995081 286.56 
L 523.01166 288.267337 
L 524.028238 286.891969 
L 525.044817 261.066506 
L 526.061396 286.56 
L 527.077974 287.052019 
L 528.094553 108.103081 
L 529.111131 286.56 
L 530.12771 26.315146 
L 531.144289 286.56 
L 532.160867 299.058897 
L 533.177446 286.56 
L 533.537589 -1 
M 534.85046 -1 
L 535.210603 286.56 
L 536.227182 311.318457 
L 537.24376 268.871482 
L 537.580547 -1 
M 538.925683 -1 
L 539.276917 286.56 
L 539.717103 -1 
M 540.869889 -1 
L 541.310075 286.56 
L 542.326653 292.280091 
L 543.343232 286.587151 
L 544.359811 14.960433 
L 545.376389 286.56 
L 546.392968 51.426493 
L 547.409546 286.56 
L 548.426125 79.74021 
L 548.766181 577 
M 550.228577 577 
L 550.459282 286.585099 
L 551.475861 286.56 
L 552.492439 304.104338 
L 553.509018 286.56 
L 554.525597 286.559991 
L 555.542175 285.969335 
L 556.558754 286.076213 
L 557.575332 286.055698 
L 559.60849 286.291928 
L 560.625068 286.56 
L 561.641647 290.817289 
L 562.658226 286.56 
L 563.674804 286.56 
L 564.691383 287.832832 
L 565.707961 286.577232 
L 566.72454 287.466371 
L 567.741119 286.517398 
L 568.757697 286.440182 
L 569.774276 286.56 
L 570.790854 285.411728 
L 571.807433 287.03685 
L 572.824012 287.447353 
L 573.84059 286.490175 
L 574.857169 287.728341 
L 575.873747 286.56 
L 576.890326 290.90058 
L 577.906905 286.56 
L 579.940062 286.559962 
L 580.956641 279.126308 
L 581.973219 286.553971 
L 582.989798 287.067346 
L 584.006376 286.56 
L 585.022955 264.212425 
L 586.039534 286.56 
L 587.056112 226.669894 
L 588.072691 286.56 
L 589.089269 290.480755 
L 590.105848 296.007164 
L 591.122427 286.80035 
L 592.139005 297.187224 
L 593.155584 286.559784 
L 598.238477 286.56 
L 599.255056 290.979239 
L 600.271634 286.56 
L 601.288213 292.686065 
L 602.304791 286.56 
L 603.32137 290.929539 
L 604.337949 286.56 
L 605.354527 285.801394 
L 606.371106 286.55991 
L 608.404263 286.562682 
L 609.420842 285.259549 
L 610.43742 282.193407 
L 611.453999 285.455646 
L 612.470578 284.256537 
L 613.487156 286.56 
L 615.520313 286.477211 
L 616.536892 287.174821 
L 617.553471 287.033253 
L 618.570049 286.56 
L 620.603206 286.571618 
L 621.619785 287.145247 
L 622.636364 286.610784 
L 622.636364 286.610784 
" style="fill:none;stroke:#ff7f0e;stroke-linecap:square;stroke-width:1.5;"/>
   </g>
   <g id="line2d_14">
    <path clip-path="url(#p1e561a0a13)" d="M 115.363636 286.556453 
L 116.380215 286.56 
L 117.396794 286.445468 
L 118.413372 286.617876 
L 119.429951 287.100282 
L 120.446529 286.559861 
L 121.463108 289.446665 
L 122.479687 286.306835 
L 123.496265 288.304877 
L 124.512844 286.593848 
L 125.529422 285.17433 
L 126.546001 286.56 
L 127.56258 284.833528 
L 128.579158 286.56 
L 129.595737 286.330424 
L 130.612316 286.56 
L 131.628894 286.930219 
L 132.645473 286.559909 
L 133.662051 286.441586 
L 134.67863 286.56 
L 135.695209 288.35565 
L 136.711787 286.559975 
L 137.728366 286.56 
L 138.744944 288.729844 
L 139.761523 287.971625 
L 140.778102 286.451933 
L 141.79468 285.790544 
L 142.811259 286.559359 
L 143.827837 304.881511 
L 144.844416 286.56 
L 145.860995 285.15424 
L 146.877573 286.56 
L 147.894152 284.635226 
L 148.910731 286.560001 
L 149.927309 286.378157 
L 150.943888 286.322714 
L 152.977045 286.696382 
L 153.993624 286.56 
L 155.010202 291.042696 
L 156.026781 287.361723 
L 157.043359 289.624872 
L 158.059938 286.56 
L 159.076517 286.3515 
L 160.093095 287.421251 
L 161.109674 286.56 
L 162.126253 286.426484 
L 163.142831 286.56 
L 164.15941 286.886301 
L 165.175988 286.56 
L 172.292039 286.56 
L 173.308617 286.153024 
L 174.325196 286.554316 
L 175.341774 291.051525 
L 176.358353 286.56 
L 180.424668 286.56 
L 181.441246 287.937906 
L 182.457825 286.56 
L 183.474403 286.56 
L 184.490982 286.104697 
L 185.507561 286.56 
L 186.524139 286.188897 
L 187.540718 286.56 
L 189.573875 286.56 
L 190.590454 285.801848 
L 191.607032 286.56 
L 193.640189 286.56 
L 194.656768 286.750886 
L 195.673347 286.56 
L 196.689925 290.159166 
L 197.706504 286.567627 
L 198.723083 289.114139 
L 199.739661 286.56 
L 200.75624 286.56 
L 201.772818 287.939918 
L 202.789397 286.559999 
L 205.839133 286.56 
L 206.855711 286.380378 
L 207.87229 286.56 
L 208.888869 284.563964 
L 209.905447 286.56 
L 210.922026 278.352905 
L 211.938604 286.56 
L 212.955183 286.56 
L 213.971762 280.628109 
L 214.98834 286.47645 
L 216.004919 289.945009 
L 217.021498 286.56 
L 221.087812 286.56 
L 222.104391 287.96905 
L 223.120969 286.56 
L 225.154126 286.483744 
L 227.187284 286.148744 
L 228.203862 285.469763 
L 229.220441 286.56 
L 230.237019 285.77287 
L 231.253598 285.996423 
L 232.270177 284.961968 
L 233.286755 286.574732 
L 235.319913 286.559999 
L 236.336491 285.476566 
L 237.35307 290.218943 
L 238.369648 286.56 
L 241.419384 286.56 
L 242.435963 287.967308 
L 243.452541 286.56 
L 247.518856 286.56208 
L 248.535435 286.681159 
L 249.552013 286.56 
L 250.568592 286.297821 
L 251.58517 278.281556 
L 252.601749 286.56 
L 253.618328 286.56 
L 254.634906 283.445252 
L 255.651485 292.670805 
L 256.668063 286.56 
L 258.701221 286.499801 
L 259.717799 286.350443 
L 260.734378 286.559999 
L 261.750956 286.56 
L 262.767535 287.965681 
L 263.784114 286.56 
L 264.800692 286.56 
L 265.817271 286.16828 
L 266.83385 286.542175 
L 267.850428 286.559343 
L 268.867007 286.286311 
L 269.883585 286.560128 
L 270.900164 286.302013 
L 271.916743 278.265927 
L 272.933321 286.56 
L 274.966478 286.477184 
L 275.983057 292.675585 
L 276.999636 286.56 
L 278.016214 286.56 
L 279.032793 285.997623 
L 281.06595 287.271686 
L 282.082529 288.302919 
L 283.099107 286.56 
L 284.115686 287.709531 
L 285.132265 286.332647 
L 286.148843 286.823217 
L 288.182 286.265955 
L 289.198579 285.671398 
L 290.215158 286.56 
L 291.231736 286.219773 
L 292.248315 278.207898 
L 293.264893 286.56 
L 294.281472 286.559999 
L 295.298051 284.260849 
L 296.314629 292.663654 
L 297.331208 286.56 
L 302.414101 286.56 
L 303.43068 287.786229 
L 304.447258 286.56 
L 305.463837 286.559998 
L 307.496994 286.413733 
L 308.513573 285.965676 
L 309.530151 286.56 
L 310.54673 286.441195 
L 311.563308 282.480858 
L 312.579887 286.56 
L 313.596466 286.56 
L 314.613044 285.840984 
L 315.629623 295.915878 
L 316.646201 286.56 
L 317.66278 286.56 
L 318.679359 286.447291 
L 319.695937 289.305329 
L 320.712516 286.143173 
L 322.745673 286.56 
L 323.762252 287.949647 
L 324.77883 286.288517 
L 325.795409 286.56 
L 328.845145 286.56 
L 329.861723 286.301493 
L 330.878302 286.560004 
L 331.894881 286.404439 
L 332.911459 286.56 
L 333.928038 282.823349 
L 334.944617 287.169447 
L 335.961195 289.415324 
L 336.977774 292.303646 
L 337.994352 286.56 
L 343.077245 286.56 
L 344.093824 287.960406 
L 345.110403 286.56 
L 348.160138 286.56 
L 349.176717 286.005584 
L 350.193296 286.56 
L 351.209874 284.249222 
L 352.226453 286.56 
L 353.243032 286.961956 
L 354.25961 286.56 
L 355.276189 286.56 
L 356.292767 285.562513 
L 357.309346 292.654301 
L 358.325925 286.56 
L 359.342503 286.56 
L 360.359082 286.182723 
L 361.37566 286.836237 
L 362.392239 286.672153 
L 363.408818 288.291793 
L 364.425396 286.56 
L 365.441975 287.542103 
L 366.458553 286.56 
L 367.475132 286.294725 
L 368.491711 286.189493 
L 369.508289 286.560278 
L 370.524868 286.684939 
L 371.541447 286.56 
L 372.558025 287.912821 
L 373.574604 286.56 
L 374.591182 284.057464 
L 375.607761 308.612569 
L 376.62434 286.56 
L 377.640918 286.56 
L 378.657497 285.592643 
L 379.674075 290.199787 
L 380.690654 286.56 
L 383.74039 286.56 
L 384.756968 287.965764 
L 385.773547 285.181404 
L 386.790126 286.56 
L 387.806704 286.922766 
L 388.823283 286.56 
L 389.839862 286.560002 
L 390.85644 285.434442 
L 391.873019 286.56 
L 392.889597 282.791244 
L 393.906176 286.56 
L 394.922755 286.56 
L 395.939333 283.681923 
L 396.955912 295.967392 
L 397.97249 286.56 
L 398.989069 286.56 
L 400.005648 286.432712 
L 401.022226 289.210374 
L 402.038805 285.899033 
L 403.055383 286.56 
L 404.071962 286.56 
L 405.088541 287.944891 
L 406.105119 286.56 
L 413.22117 286.56 
L 414.237748 285.453151 
L 415.254327 286.56 
L 416.270905 286.56 
L 417.287484 280.86072 
L 418.304063 286.57774 
L 420.33722 286.56 
L 421.353799 286.257047 
L 422.370377 286.564949 
L 424.403534 286.56 
L 425.420113 287.971878 
L 426.436692 286.559946 
L 427.45327 287.296573 
L 428.469849 286.56 
L 429.486427 286.322197 
L 430.503006 286.56 
L 431.519585 285.411554 
L 432.536163 286.56 
L 433.552742 284.097009 
L 434.56932 278.576628 
L 435.585899 286.56 
L 436.602478 286.56 
L 437.619056 283.59595 
L 438.635635 285.296716 
L 439.652214 285.80019 
L 440.668792 286.111339 
L 441.685371 286.558021 
L 443.718528 286.56 
L 444.735107 286.56 
L 445.751685 287.932652 
L 446.768264 286.56 
L 451.851157 286.56 
L 452.867735 287.813677 
L 453.884314 286.56 
L 454.900893 285.033775 
L 455.917471 286.56 
L 456.93405 286.56 
L 457.950629 287.115369 
L 458.967207 286.56 
L 459.983786 286.786199 
L 461.000364 286.56 
L 462.016943 289.793941 
L 463.033522 286.56 
L 464.0501 286.631988 
L 465.066679 286.56 
L 467.099836 286.56 
L 472.182729 286.56 
L 473.199308 287.254264 
L 474.215886 286.56 
L 475.232465 286.084726 
L 476.249044 286.56 
L 477.265622 286.56 
L 478.282201 283.473666 
L 479.298779 284.866828 
L 480.315358 285.406642 
L 481.331937 286.481781 
L 483.365094 286.546006 
L 487.431408 286.558767 
L 488.447987 286.385555 
L 489.464565 286.566118 
L 490.481144 285.565434 
L 491.497723 286.56 
L 492.514301 285.59339 
L 493.53088 286.56 
L 495.564037 286.557504 
L 496.580616 286.417523 
L 497.597194 286.56 
L 498.613773 288.100842 
L 499.630352 286.460156 
L 500.64693 286.56 
L 501.663509 289.323942 
L 502.680087 286.725155 
L 503.696666 286.54688 
L 504.713245 286.56 
L 505.729823 293.478356 
L 506.746402 289.209627 
L 507.762981 286.56 
L 508.779559 285.920188 
L 509.796138 286.56 
L 510.812716 286.56 
L 511.829295 286.314772 
L 512.845874 286.56 
L 513.862452 286.307839 
L 514.879031 286.559997 
L 515.895609 287.041787 
L 516.912188 286.56 
L 517.928767 286.999731 
L 518.945345 286.56 
L 519.961924 286.337785 
L 520.978502 286.56 
L 521.995081 286.56 
L 523.01166 288.394104 
L 524.028238 286.88896 
L 526.061396 286.56 
L 527.077974 288.980336 
L 528.094553 300.3189 
L 529.111131 286.56 
L 530.12771 281.369696 
L 531.144289 286.56 
L 532.160867 284.888218 
L 533.177446 286.56 
L 534.194024 286.303114 
L 535.210603 286.56 
L 536.227182 287.135528 
L 537.24376 286.557723 
L 538.260339 286.457 
L 539.276917 286.56 
L 540.293496 288.646195 
L 541.310075 286.56 
L 542.326653 289.262769 
L 543.343232 286.578556 
L 544.359811 289.894112 
L 545.376389 286.56 
L 546.392968 294.260274 
L 547.409546 286.56 
L 547.430534 577 
M 549.420928 577 
L 549.442704 275.418269 
L 550.459282 285.641222 
L 551.475861 286.56 
L 552.492439 286.681722 
L 553.509018 286.56 
L 558.591911 286.547072 
L 559.60849 285.934086 
L 560.625068 286.56 
L 561.641647 287.615821 
L 562.658226 286.56 
L 563.674804 286.56 
L 564.691383 285.555525 
L 565.707961 286.566068 
L 566.72454 285.214341 
L 567.741119 286.175747 
L 568.757697 302.844306 
L 569.774276 286.56 
L 570.790854 286.24694 
L 571.807433 286.664907 
L 572.824012 286.74206 
L 573.84059 286.542572 
L 574.857169 286.762654 
L 575.873747 286.56 
L 576.890326 287.003368 
L 577.906905 286.56 
L 579.940062 286.560003 
L 580.956641 285.976615 
L 581.973219 286.561963 
L 582.989798 286.294266 
L 584.006376 286.56 
L 585.022955 284.678567 
L 586.039534 286.56 
L 587.056112 340.55545 
L 588.072691 286.56 
L 589.089269 294.991325 
L 590.105848 290.291171 
L 591.122427 286.832287 
L 592.139005 285.981217 
L 593.155584 286.559903 
L 598.238477 286.56 
L 599.255056 287.300435 
L 600.271634 286.56 
L 601.288213 286.154694 
L 602.304791 286.56 
L 603.32137 286.463258 
L 604.337949 286.56 
L 606.371106 286.56 
L 608.404263 286.562899 
L 609.420842 288.57702 
L 610.43742 285.360097 
L 611.453999 288.212055 
L 612.470578 289.41218 
L 613.487156 286.56 
L 614.503735 286.557805 
L 615.520313 286.436421 
L 616.536892 287.421186 
L 617.553471 288.931099 
L 618.570049 286.56 
L 620.603206 286.648181 
L 621.619785 286.86936 
L 622.636364 286.573501 
L 622.636364 286.573501 
" style="fill:none;stroke:#2ca02c;stroke-linecap:square;stroke-width:1.5;"/>
   </g>
   <g id="patch_3">
    <path d="M 90 504 
L 90 69.12 
" style="fill:none;stroke:#000000;stroke-linecap:square;stroke-linejoin:miter;stroke-width:0.8;"/>
   </g>
   <g id="patch_4">
    <path d="M 648 504 
L 648 69.12 
" style="fill:none;stroke:#000000;stroke-linecap:square;stroke-linejoin:miter;stroke-width:0.8;"/>
   </g>
   <g id="patch_5">
    <path d="M 90 504 
L 648 504 
" style="fill:none;stroke:#000000;stroke-linecap:square;stroke-linejoin:miter;stroke-width:0.8;"/>
   </g>
   <g id="patch_6">
    <path d="M 90 69.12 
L 648 69.12 
" style="fill:none;stroke:#000000;stroke-linecap:square;stroke-linejoin:miter;stroke-width:0.8;"/>
   </g>
  </g>
 </g>
 <defs>
  <clipPath id="p1e561a0a13">
   <rect height="434.88" width="558" x="90" y="69.12"/>
  </clipPath>
 </defs>
</svg>
