<?xml version="1.0" encoding="utf-8" standalone="no"?>
<!DOCTYPE svg PUBLIC "-//W3C//DTD SVG 1.1//EN"
  "http://www.w3.org/Graphics/SVG/1.1/DTD/svg11.dtd">
<svg height="576pt" version="1.1" viewBox="0 0 576 576" width="576pt" xmlns="http://www.w3.org/2000/svg" xmlns:xlink="http://www.w3.org/1999/xlink">
 <metadata>
  <rdf:RDF xmlns:cc="http://creativecommons.org/ns#" xmlns:dc="http://purl.org/dc/elements/1.1/" xmlns:rdf="http://www.w3.org/1999/02/22-rdf-syntax-ns#">
   <cc:Work>
    <dc:type rdf:resource="http://purl.org/dc/dcmitype/StillImage"/>
    <dc:date>2022-01-10T06:09:55.715614</dc:date>
    <dc:format>image/svg+xml</dc:format>
    <dc:creator>
     <cc:Agent>
      <dc:title>Matplotlib v3.4.3, https://matplotlib.org/</dc:title>
     </cc:Agent>
    </dc:creator>
   </cc:Work>
  </rdf:RDF>
 </metadata>
 <defs>
  <style type="text/css">*{stroke-linecap:butt;stroke-linejoin:round;}</style>
 </defs>
 <g id="figure_1">
  <g id="patch_1">
   <path d="M 0 576 
L 576 576 
L 576 0 
L 0 0 
z
" style="fill:none;"/>
  </g>
  <g id="axes_1">
   <g id="patch_2">
    <path d="M 72 504 
L 518.4 504 
L 518.4 69.12 
L 72 69.12 
z
" style="fill:#ffffff;"/>
   </g>
   <g id="patch_3">
    <path clip-path="url(#p4559cb92db)" d="M 261.397501 139.027655 
L 266.262964 142.2474 
L 264.799688 143.336397 
L 308.53091 199.104022 
L 308.501349 199.126022 
L 264.770126 143.358397 
L 263.30685 144.447393 
z
" style="fill:#0000ff;stroke:#0000ff;stroke-linejoin:miter;"/>
   </g>
   <g id="patch_4">
    <path clip-path="url(#p4559cb92db)" d="M 164.006637 248.477783 
L 168.8721 251.697528 
L 167.408823 252.786525 
L 211.140046 308.55415 
L 211.110485 308.57615 
L 167.379262 252.808525 
L 165.915985 253.897521 
z
" style="fill:#0000ff;stroke:#0000ff;stroke-linejoin:miter;"/>
   </g>
   <g id="patch_5">
    <path clip-path="url(#p4559cb92db)" d="M 234.765241 313.91761 
L 239.630705 317.137356 
L 238.167428 318.226352 
L 281.898651 373.993978 
L 281.86909 374.015978 
L 238.137867 318.248352 
L 236.67459 319.337348 
z
" style="fill:#0000ff;stroke:#0000ff;stroke-linejoin:miter;"/>
   </g>
   <g id="patch_6">
    <path clip-path="url(#p4559cb92db)" d="M 332.156106 204.467482 
L 337.021569 207.687228 
L 335.558292 208.776224 
L 379.289515 264.54385 
L 379.259954 264.56585 
L 335.528731 208.798224 
L 334.065455 209.88722 
z
" style="fill:#0000ff;stroke:#0000ff;stroke-linejoin:miter;"/>
   </g>
   <g id="patch_7">
    <path clip-path="url(#p4559cb92db)" d="M 308.51613 217.47588 
L 306.65613 212.03988 
L 308.49753 212.03988 
L 308.49753 199.115022 
L 308.53473 199.115022 
L 308.53473 212.03988 
L 310.37613 212.03988 
z
" style="fill:#a52a2a;stroke:#a52a2a;stroke-linejoin:miter;"/>
   </g>
   <g id="patch_8">
    <path clip-path="url(#p4559cb92db)" d="M 211.125265 326.926008 
L 209.265265 321.490008 
L 211.106665 321.490008 
L 211.106665 308.56515 
L 211.143865 308.56515 
L 211.143865 321.490008 
L 212.985265 321.490008 
z
" style="fill:#a52a2a;stroke:#a52a2a;stroke-linejoin:miter;"/>
   </g>
   <g id="patch_9">
    <path clip-path="url(#p4559cb92db)" d="M 281.88387 392.365836 
L 280.02387 386.929836 
L 281.86527 386.929836 
L 281.86527 374.004978 
L 281.90247 374.004978 
L 281.90247 386.929836 
L 283.74387 386.929836 
z
" style="fill:#a52a2a;stroke:#a52a2a;stroke-linejoin:miter;"/>
   </g>
   <g id="patch_10">
    <path clip-path="url(#p4559cb92db)" d="M 379.274735 282.915708 
L 377.414735 277.479708 
L 379.256135 277.479708 
L 379.256135 264.55485 
L 379.293335 264.55485 
L 379.293335 277.479708 
L 381.134735 277.479708 
z
" style="fill:#a52a2a;stroke:#a52a2a;stroke-linejoin:miter;"/>
   </g>
   <g id="patch_11">
    <path clip-path="url(#p4559cb92db)" d="M 295.2 343.695432 
L 293.34 338.259432 
L 295.1814 338.259432 
L 295.1814 286.56 
L 295.2186 286.56 
L 295.2186 338.259432 
L 297.06 338.259432 
z
" style="fill:#a52a2a;stroke:#a52a2a;stroke-linejoin:miter;"/>
   </g>
   <g id="matplotlib.axis_1">
    <g id="xtick_1">
     <g id="line2d_1">
      <defs>
       <path d="M 0 0 
L 0 3.5 
" id="mc4e174856d" style="stroke:#000000;stroke-width:0.8;"/>
      </defs>
      <g>
       <use style="stroke:#000000;stroke-width:0.8;" x="72" xlink:href="#mc4e174856d" y="504"/>
      </g>
     </g>
     <g id="text_1">
      <!-- −6 -->
      <g transform="translate(64.628906 518.598438)scale(0.1 -0.1)">
       <defs>
        <path d="M 678 2272 
L 4684 2272 
L 4684 1741 
L 678 1741 
L 678 2272 
z
" id="DejaVuSans-2212" transform="scale(0.015625)"/>
        <path d="M 2113 2584 
Q 1688 2584 1439 2293 
Q 1191 2003 1191 1497 
Q 1191 994 1439 701 
Q 1688 409 2113 409 
Q 2538 409 2786 701 
Q 3034 994 3034 1497 
Q 3034 2003 2786 2293 
Q 2538 2584 2113 2584 
z
M 3366 4563 
L 3366 3988 
Q 3128 4100 2886 4159 
Q 2644 4219 2406 4219 
Q 1781 4219 1451 3797 
Q 1122 3375 1075 2522 
Q 1259 2794 1537 2939 
Q 1816 3084 2150 3084 
Q 2853 3084 3261 2657 
Q 3669 2231 3669 1497 
Q 3669 778 3244 343 
Q 2819 -91 2113 -91 
Q 1303 -91 875 529 
Q 447 1150 447 2328 
Q 447 3434 972 4092 
Q 1497 4750 2381 4750 
Q 2619 4750 2861 4703 
Q 3103 4656 3366 4563 
z
" id="DejaVuSans-36" transform="scale(0.015625)"/>
       </defs>
       <use xlink:href="#DejaVuSans-2212"/>
       <use x="83.789062" xlink:href="#DejaVuSans-36"/>
      </g>
     </g>
    </g>
    <g id="xtick_2">
     <g id="line2d_2">
      <g>
       <use style="stroke:#000000;stroke-width:0.8;" x="146.4" xlink:href="#mc4e174856d" y="504"/>
      </g>
     </g>
     <g id="text_2">
      <!-- −4 -->
      <g transform="translate(139.028906 518.598438)scale(0.1 -0.1)">
       <defs>
        <path d="M 2419 4116 
L 825 1625 
L 2419 1625 
L 2419 4116 
z
M 2253 4666 
L 3047 4666 
L 3047 1625 
L 3713 1625 
L 3713 1100 
L 3047 1100 
L 3047 0 
L 2419 0 
L 2419 1100 
L 313 1100 
L 313 1709 
L 2253 4666 
z
" id="DejaVuSans-34" transform="scale(0.015625)"/>
       </defs>
       <use xlink:href="#DejaVuSans-2212"/>
       <use x="83.789062" xlink:href="#DejaVuSans-34"/>
      </g>
     </g>
    </g>
    <g id="xtick_3">
     <g id="line2d_3">
      <g>
       <use style="stroke:#000000;stroke-width:0.8;" x="220.8" xlink:href="#mc4e174856d" y="504"/>
      </g>
     </g>
     <g id="text_3">
      <!-- −2 -->
      <g transform="translate(213.428906 518.598438)scale(0.1 -0.1)">
       <defs>
        <path d="M 1228 531 
L 3431 531 
L 3431 0 
L 469 0 
L 469 531 
Q 828 903 1448 1529 
Q 2069 2156 2228 2338 
Q 2531 2678 2651 2914 
Q 2772 3150 2772 3378 
Q 2772 3750 2511 3984 
Q 2250 4219 1831 4219 
Q 1534 4219 1204 4116 
Q 875 4013 500 3803 
L 500 4441 
Q 881 4594 1212 4672 
Q 1544 4750 1819 4750 
Q 2544 4750 2975 4387 
Q 3406 4025 3406 3419 
Q 3406 3131 3298 2873 
Q 3191 2616 2906 2266 
Q 2828 2175 2409 1742 
Q 1991 1309 1228 531 
z
" id="DejaVuSans-32" transform="scale(0.015625)"/>
       </defs>
       <use xlink:href="#DejaVuSans-2212"/>
       <use x="83.789062" xlink:href="#DejaVuSans-32"/>
      </g>
     </g>
    </g>
    <g id="xtick_4">
     <g id="line2d_4">
      <g>
       <use style="stroke:#000000;stroke-width:0.8;" x="295.2" xlink:href="#mc4e174856d" y="504"/>
      </g>
     </g>
     <g id="text_4">
      <!-- 0 -->
      <g transform="translate(292.01875 518.598438)scale(0.1 -0.1)">
       <defs>
        <path d="M 2034 4250 
Q 1547 4250 1301 3770 
Q 1056 3291 1056 2328 
Q 1056 1369 1301 889 
Q 1547 409 2034 409 
Q 2525 409 2770 889 
Q 3016 1369 3016 2328 
Q 3016 3291 2770 3770 
Q 2525 4250 2034 4250 
z
M 2034 4750 
Q 2819 4750 3233 4129 
Q 3647 3509 3647 2328 
Q 3647 1150 3233 529 
Q 2819 -91 2034 -91 
Q 1250 -91 836 529 
Q 422 1150 422 2328 
Q 422 3509 836 4129 
Q 1250 4750 2034 4750 
z
" id="DejaVuSans-30" transform="scale(0.015625)"/>
       </defs>
       <use xlink:href="#DejaVuSans-30"/>
      </g>
     </g>
    </g>
    <g id="xtick_5">
     <g id="line2d_5">
      <g>
       <use style="stroke:#000000;stroke-width:0.8;" x="369.6" xlink:href="#mc4e174856d" y="504"/>
      </g>
     </g>
     <g id="text_5">
      <!-- 2 -->
      <g transform="translate(366.41875 518.598438)scale(0.1 -0.1)">
       <use xlink:href="#DejaVuSans-32"/>
      </g>
     </g>
    </g>
    <g id="xtick_6">
     <g id="line2d_6">
      <g>
       <use style="stroke:#000000;stroke-width:0.8;" x="444" xlink:href="#mc4e174856d" y="504"/>
      </g>
     </g>
     <g id="text_6">
      <!-- 4 -->
      <g transform="translate(440.81875 518.598438)scale(0.1 -0.1)">
       <use xlink:href="#DejaVuSans-34"/>
      </g>
     </g>
    </g>
    <g id="xtick_7">
     <g id="line2d_7">
      <g>
       <use style="stroke:#000000;stroke-width:0.8;" x="518.4" xlink:href="#mc4e174856d" y="504"/>
      </g>
     </g>
     <g id="text_7">
      <!-- 6 -->
      <g transform="translate(515.21875 518.598438)scale(0.1 -0.1)">
       <use xlink:href="#DejaVuSans-36"/>
      </g>
     </g>
    </g>
   </g>
   <g id="matplotlib.axis_2">
    <g id="ytick_1">
     <g id="line2d_8">
      <defs>
       <path d="M 0 0 
L -3.5 0 
" id="m62667b6450" style="stroke:#000000;stroke-width:0.8;"/>
      </defs>
      <g>
       <use style="stroke:#000000;stroke-width:0.8;" x="72" xlink:href="#m62667b6450" y="504"/>
      </g>
     </g>
     <g id="text_8">
      <!-- −6 -->
      <g transform="translate(50.257812 507.799219)scale(0.1 -0.1)">
       <use xlink:href="#DejaVuSans-2212"/>
       <use x="83.789062" xlink:href="#DejaVuSans-36"/>
      </g>
     </g>
    </g>
    <g id="ytick_2">
     <g id="line2d_9">
      <g>
       <use style="stroke:#000000;stroke-width:0.8;" x="72" xlink:href="#m62667b6450" y="431.52"/>
      </g>
     </g>
     <g id="text_9">
      <!-- −4 -->
      <g transform="translate(50.257812 435.319219)scale(0.1 -0.1)">
       <use xlink:href="#DejaVuSans-2212"/>
       <use x="83.789062" xlink:href="#DejaVuSans-34"/>
      </g>
     </g>
    </g>
    <g id="ytick_3">
     <g id="line2d_10">
      <g>
       <use style="stroke:#000000;stroke-width:0.8;" x="72" xlink:href="#m62667b6450" y="359.04"/>
      </g>
     </g>
     <g id="text_10">
      <!-- −2 -->
      <g transform="translate(50.257812 362.839219)scale(0.1 -0.1)">
       <use xlink:href="#DejaVuSans-2212"/>
       <use x="83.789062" xlink:href="#DejaVuSans-32"/>
      </g>
     </g>
    </g>
    <g id="ytick_4">
     <g id="line2d_11">
      <g>
       <use style="stroke:#000000;stroke-width:0.8;" x="72" xlink:href="#m62667b6450" y="286.56"/>
      </g>
     </g>
     <g id="text_11">
      <!-- 0 -->
      <g transform="translate(58.6375 290.359219)scale(0.1 -0.1)">
       <use xlink:href="#DejaVuSans-30"/>
      </g>
     </g>
    </g>
    <g id="ytick_5">
     <g id="line2d_12">
      <g>
       <use style="stroke:#000000;stroke-width:0.8;" x="72" xlink:href="#m62667b6450" y="214.08"/>
      </g>
     </g>
     <g id="text_12">
      <!-- 2 -->
      <g transform="translate(58.6375 217.879219)scale(0.1 -0.1)">
       <use xlink:href="#DejaVuSans-32"/>
      </g>
     </g>
    </g>
    <g id="ytick_6">
     <g id="line2d_13">
      <g>
       <use style="stroke:#000000;stroke-width:0.8;" x="72" xlink:href="#m62667b6450" y="141.6"/>
      </g>
     </g>
     <g id="text_13">
      <!-- 4 -->
      <g transform="translate(58.6375 145.399219)scale(0.1 -0.1)">
       <use xlink:href="#DejaVuSans-34"/>
      </g>
     </g>
    </g>
    <g id="ytick_7">
     <g id="line2d_14">
      <g>
       <use style="stroke:#000000;stroke-width:0.8;" x="72" xlink:href="#m62667b6450" y="69.12"/>
      </g>
     </g>
     <g id="text_14">
      <!-- 6 -->
      <g transform="translate(58.6375 72.919219)scale(0.1 -0.1)">
       <use xlink:href="#DejaVuSans-36"/>
      </g>
     </g>
    </g>
   </g>
   <g id="line2d_15">
    <path clip-path="url(#p4559cb92db)" d="M 273.136827 166.395109 
L 279.654325 159.665653 
L 286.645732 153.583955 
L 293.996251 148.249875 
L 301.585185 143.751 
L 309.287926 140.161201 
L 316.977993 137.539422 
L 324.529117 135.928712 
L 331.817309 135.35552 
L 338.722895 135.829257 
L 345.132488 137.342145 
L 350.94084 139.869341 
L 356.052581 143.36935 
L 360.383774 147.784702 
L 363.863301 153.042896 
L 366.43403 159.057593 
L 368.053748 165.730031 
L 368.695861 172.950651 
L 368.349823 180.600889 
L 367.021318 188.555128 
L 364.73216 196.68276 
L 361.519936 204.85033 
L 357.437391 212.923727 
L 352.55156 220.770385 
L 346.942669 228.261463 
L 340.702815 235.273956 
L 333.934456 241.692721 
L 326.748729 247.412362 
L 319.263624 252.338961 
L 311.602045 256.391625 
L 303.889795 259.503809 
L 296.253509 261.62441 
L 288.818576 262.718609 
L 281.707075 262.768439 
L 275.035779 261.773082 
L 268.914229 259.74888 
L 263.442941 256.729073 
L 258.711754 252.763245 
L 254.798353 247.916514 
L 251.766997 242.268464 
L 249.66746 235.911836 
L 248.534216 228.951005 
L 248.385874 221.500268 
L 249.224868 213.681966 
L 251.037424 205.624475 
L 253.793779 197.460099 
L 257.448673 189.322897 
L 261.942093 181.346481 
L 267.200257 173.661825 
L 273.136827 166.395109 
" style="fill:none;stroke:#000000;stroke-linecap:square;stroke-width:1.5;"/>
   </g>
   <g id="line2d_16">
    <path clip-path="url(#p4559cb92db)" d="M 308.51613 199.115022 
L 295.2 286.56 
" style="fill:none;stroke:#808080;stroke-linecap:square;stroke-width:1.5;"/>
   </g>
   <g id="line2d_17">
    <path clip-path="url(#p4559cb92db)" d="M 175.745963 275.845237 
L 182.26346 269.115781 
L 189.254868 263.034083 
L 196.605386 257.700003 
L 204.194321 253.201128 
L 211.897061 249.611329 
L 219.587129 246.98955 
L 227.138253 245.37884 
L 234.426444 244.805648 
L 241.332031 245.279385 
L 247.741623 246.792273 
L 253.549976 249.319469 
L 258.661716 252.819478 
L 262.992909 257.23483 
L 266.472437 262.493024 
L 269.043166 268.507721 
L 270.662884 275.180159 
L 271.304996 282.400779 
L 270.958959 290.051017 
L 269.630454 298.005256 
L 267.341296 306.132888 
L 264.129072 314.300459 
L 260.046527 322.373855 
L 255.160696 330.220513 
L 249.551804 337.711591 
L 243.31195 344.724084 
L 236.543592 351.142849 
L 229.357865 356.86249 
L 221.872759 361.789089 
L 214.21118 365.841753 
L 206.49893 368.953937 
L 198.862645 371.074538 
L 191.427711 372.168737 
L 184.316211 372.218567 
L 177.644915 371.22321 
L 171.523365 369.199009 
L 166.052077 366.179201 
L 161.32089 362.213373 
L 157.407489 357.366642 
L 154.376132 351.718592 
L 152.276595 345.361964 
L 151.143352 338.401133 
L 150.995009 330.950396 
L 151.834004 323.132094 
L 153.64656 315.074603 
L 156.402914 306.910227 
L 160.057808 298.773025 
L 164.551228 290.796609 
L 169.809393 283.111953 
L 175.745963 275.845237 
" style="fill:none;stroke:#000000;stroke-linecap:square;stroke-width:1.5;"/>
   </g>
   <g id="line2d_18">
    <path clip-path="url(#p4559cb92db)" d="M 211.125265 308.56515 
L 295.2 286.56 
" style="fill:none;stroke:#808080;stroke-linecap:square;stroke-width:1.5;"/>
   </g>
   <g id="line2d_19">
    <path clip-path="url(#p4559cb92db)" d="M 246.504568 341.285064 
L 253.022065 334.555608 
L 260.013472 328.47391 
L 267.363991 323.139831 
L 274.952926 318.640955 
L 282.655666 315.051156 
L 290.345734 312.429377 
L 297.896858 310.818667 
L 305.185049 310.245475 
L 312.090636 310.719212 
L 318.500228 312.2321 
L 324.308581 314.759297 
L 329.420321 318.259306 
L 333.751514 322.674657 
L 337.231042 327.932851 
L 339.80177 333.947548 
L 341.421489 340.619987 
L 342.063601 347.840606 
L 341.717564 355.490844 
L 340.389059 363.445083 
L 338.099901 371.572716 
L 334.887676 379.740286 
L 330.805131 387.813682 
L 325.919301 395.66034 
L 320.310409 403.151418 
L 314.070555 410.163912 
L 307.302196 416.582677 
L 300.11647 422.302317 
L 292.631364 427.228917 
L 284.969785 431.28158 
L 277.257535 434.393764 
L 269.62125 436.514366 
L 262.186316 437.608565 
L 255.074816 437.658394 
L 248.40352 436.663037 
L 242.28197 434.638836 
L 236.810682 431.619028 
L 232.079494 427.6532 
L 228.166094 422.806469 
L 225.134737 417.158419 
L 223.0352 410.801791 
L 221.901956 403.84096 
L 221.753614 396.390223 
L 222.592609 388.571921 
L 224.405165 380.51443 
L 227.161519 372.350054 
L 230.816413 364.212852 
L 235.309833 356.236437 
L 240.567998 348.55178 
L 246.504568 341.285064 
" style="fill:none;stroke:#000000;stroke-linecap:square;stroke-width:1.5;"/>
   </g>
   <g id="line2d_20">
    <path clip-path="url(#p4559cb92db)" d="M 281.88387 374.004978 
L 295.2 286.56 
" style="fill:none;stroke:#808080;stroke-linecap:square;stroke-width:1.5;"/>
   </g>
   <g id="line2d_21">
    <path clip-path="url(#p4559cb92db)" d="M 343.895432 231.834936 
L 350.412929 225.10548 
L 357.404337 219.023782 
L 364.754855 213.689702 
L 372.34379 209.190827 
L 380.04653 205.601028 
L 387.736598 202.979249 
L 395.287722 201.368539 
L 402.575914 200.795347 
L 409.4815 201.269084 
L 415.891092 202.781972 
L 421.699445 205.309169 
L 426.811185 208.809178 
L 431.142378 213.224529 
L 434.621906 218.482723 
L 437.192635 224.49742 
L 438.812353 231.169859 
L 439.454465 238.390478 
L 439.108428 246.040716 
L 437.779923 253.994955 
L 435.490765 262.122588 
L 432.278541 270.290158 
L 428.195996 278.363554 
L 423.310165 286.210212 
L 417.701273 293.70129 
L 411.461419 300.713784 
L 404.693061 307.132549 
L 397.507334 312.852189 
L 390.022228 317.778789 
L 382.360649 321.831452 
L 374.6484 324.943636 
L 367.012114 327.064237 
L 359.577181 328.158436 
L 352.46568 328.208266 
L 345.794384 327.212909 
L 339.672834 325.188708 
L 334.201546 322.1689 
L 329.470359 318.203072 
L 325.556958 313.356341 
L 322.525602 307.708291 
L 320.426064 301.351663 
L 319.292821 294.390832 
L 319.144478 286.940095 
L 319.983473 279.121793 
L 321.796029 271.064302 
L 324.552383 262.899926 
L 328.207277 254.762724 
L 332.700698 246.786309 
L 337.958862 239.101652 
L 343.895432 231.834936 
" style="fill:none;stroke:#000000;stroke-linecap:square;stroke-width:1.5;"/>
   </g>
   <g id="line2d_22">
    <path clip-path="url(#p4559cb92db)" d="M 379.274735 264.55485 
L 295.2 286.56 
" style="fill:none;stroke:#808080;stroke-linecap:square;stroke-width:1.5;"/>
   </g>
   <g id="line2d_23">
    <path clip-path="url(#p4559cb92db)" d="M 127.050531 461.449955 
L 127.050531 111.670045 
L 463.349469 111.670045 
L 463.349469 461.449955 
L 127.050531 461.449955 
" style="fill:none;stroke:#ff0000;stroke-linecap:square;stroke-width:1.5;"/>
   </g>
   <g id="patch_12">
    <path d="M 72 504 
L 72 69.12 
" style="fill:none;stroke:#000000;stroke-linecap:square;stroke-linejoin:miter;stroke-width:0.8;"/>
   </g>
   <g id="patch_13">
    <path d="M 518.4 504 
L 518.4 69.12 
" style="fill:none;stroke:#000000;stroke-linecap:square;stroke-linejoin:miter;stroke-width:0.8;"/>
   </g>
   <g id="patch_14">
    <path d="M 72 504 
L 518.4 504 
" style="fill:none;stroke:#000000;stroke-linecap:square;stroke-linejoin:miter;stroke-width:0.8;"/>
   </g>
   <g id="patch_15">
    <path d="M 72 69.12 
L 518.4 69.12 
" style="fill:none;stroke:#000000;stroke-linecap:square;stroke-linejoin:miter;stroke-width:0.8;"/>
   </g>
  </g>
 </g>
 <defs>
  <clipPath id="p4559cb92db">
   <rect height="434.88" width="446.4" x="72" y="69.12"/>
  </clipPath>
 </defs>
</svg>
